<?xml version="1.0"?>
<svg xmlns="http://www.w3.org/2000/svg"
xmlns:xlink="http://www.w3.org/1999/xlink" xmlns:cml="http://www.xml-cml.org/schema" width="368.498" height="305.829" x="0" y="0" font-family="sans-serif" stroke="rgb(0,0,0)" stroke-width="1"  stroke-linecap="round">
<rect x="0%" y="0%" width="100%" height="100%" stroke-width="0" fill="rgb(255,255,255)"  />
<line x1="194.2" y1="115.7" x2="186.0" y2="141.3" stroke="rgb(0,0,0)"  stroke-width="1.0"/>
<line x1="233.3" y1="107.7" x2="194.2" y2="115.7" stroke="rgb(0,0,0)"  stroke-width="1.0"/>
<line x1="305.0" y1="220.2" x2="265.2" y2="220.5" stroke="rgb(0,0,0)"  stroke-width="1.0"/>
<line x1="49.7" y1="217.0" x2="73.2" y2="203.4" stroke="rgb(0,0,0)"  stroke-width="1.0"/>
<line x1="52.7" y1="222.2" x2="76.2" y2="208.6" stroke="rgb(0,0,0)"  stroke-width="1.0"/>
<line x1="112.0" y1="118.5" x2="112.0" y2="145.8" stroke="rgb(0,0,0)"  stroke-width="1.0"/>
<line x1="106.0" y1="118.5" x2="106.0" y2="145.8" stroke="rgb(0,0,0)"  stroke-width="1.0"/>
<line x1="320.8" y1="241.7" x2="305.0" y2="220.2" stroke="rgb(0,0,0)"  stroke-width="1.0"/>
<line x1="317.4" y1="244.2" x2="301.6" y2="222.7" stroke="rgb(0,0,0)"  stroke-width="1.0"/>
<line x1="324.2" y1="239.2" x2="308.4" y2="217.7" stroke="rgb(0,0,0)"  stroke-width="1.0"/>
<line x1="232.2" y1="185.8" x2="205.3" y2="186.2" stroke="rgb(0,0,0)"  stroke-width="1.0"/>
<line x1="109.2" y1="252.8" x2="109.1" y2="239.0" stroke="rgb(0,0,0)"  stroke-width="1.0"/>
<line x1="51.4" y1="152.4" x2="63.4" y2="159.3" stroke="rgb(0,0,0)"  stroke-width="1.0"/>
<line x1="228.1" y1="49.7" x2="246.0" y2="69.8" stroke="rgb(0,0,0)"  stroke-width="1.0"/>
<line x1="265.2" y1="220.5" x2="251.6" y2="196.9" stroke="rgb(0,0,0)"  stroke-width="1.0"/>
<line x1="205.3" y1="186.2" x2="189.6" y2="164.2" stroke="rgb(0,0,0)"  stroke-width="1.0"/>
<line x1="169.6" y1="157.6" x2="143.8" y2="165.8" stroke="rgb(0,0,0)"  stroke-width="1.0"/>
<line x1="143.8" y1="165.8" x2="143.3" y2="205.7" stroke="rgb(0,0,0)"  stroke-width="1.0"/>
<line x1="151.0" y1="171.9" x2="150.6" y2="199.8" stroke="rgb(0,0,0)"  stroke-width="1.0"/>
<line x1="143.3" y1="205.7" x2="169.2" y2="214.2" stroke="rgb(0,0,0)"  stroke-width="1.0"/>
<line x1="189.4" y1="207.7" x2="205.3" y2="186.2" stroke="rgb(0,0,0)"  stroke-width="1.0"/>
<line x1="184.8" y1="201.8" x2="196.0" y2="186.7" stroke="rgb(0,0,0)"  stroke-width="1.0"/>
<line x1="143.8" y1="165.8" x2="109.0" y2="145.8" stroke="rgb(0,0,0)"  stroke-width="1.0"/>
<line x1="109.0" y1="145.8" x2="85.9" y2="159.3" stroke="rgb(0,0,0)"  stroke-width="1.0"/>
<line x1="74.7" y1="178.8" x2="74.7" y2="206.0" stroke="rgb(0,0,0)"  stroke-width="1.0"/>
<line x1="74.7" y1="206.0" x2="97.8" y2="219.5" stroke="rgb(0,0,0)"  stroke-width="1.0"/>
<line x1="120.2" y1="219.4" x2="143.3" y2="205.7" stroke="rgb(0,0,0)"  stroke-width="1.0"/>
<line x1="233.3" y1="107.7" x2="246.0" y2="69.8" stroke="rgb(0,0,0)"  stroke-width="1.0"/>
<line x1="246.0" y1="69.8" x2="285.3" y2="61.3" stroke="rgb(0,0,0)"  stroke-width="1.0"/>
<line x1="253.4" y1="75.6" x2="281.0" y2="69.6" stroke="rgb(0,0,0)"  stroke-width="1.0"/>
<line x1="285.3" y1="61.3" x2="311.8" y2="91.3" stroke="rgb(0,0,0)"  stroke-width="1.0"/>
<line x1="311.8" y1="91.3" x2="299.5" y2="129.3" stroke="rgb(0,0,0)"  stroke-width="1.0"/>
<line x1="303.1" y1="94.8" x2="294.5" y2="121.4" stroke="rgb(0,0,0)"  stroke-width="1.0"/>
<line x1="299.5" y1="129.3" x2="260.3" y2="137.8" stroke="rgb(0,0,0)"  stroke-width="1.0"/>
<line x1="260.3" y1="137.8" x2="233.3" y2="107.7" stroke="rgb(0,0,0)"  stroke-width="1.0"/>
<line x1="261.7" y1="128.6" x2="242.7" y2="107.3" stroke="rgb(0,0,0)"  stroke-width="1.0"/>
<text x="175.501400" y="226.332855" fill="rgb(12,12,255)"  stroke="rgb(12,12,255)" stroke-width="1" font-size="16" >N</text>
<text x="103.001436" y="233.998604" fill="rgb(12,12,255)"  stroke="rgb(12,12,255)" stroke-width="1" font-size="16" >N</text>
<text x="176.000498" y="161.668237" fill="rgb(12,12,255)"  stroke="rgb(12,12,255)" stroke-width="1" font-size="16" >N</text>
<text x="68.665469" y="173.830709" fill="rgb(12,12,255)"  stroke="rgb(12,12,255)" stroke-width="1" font-size="16" >N</text>
<text x="34.000000" y="234.168201" fill="rgb(255,12,12)"  stroke="rgb(255,12,12)" stroke-width="1" font-size="16" >O</text>
<text x="103.001436" y="113.498063" fill="rgb(255,12,12)"  stroke="rgb(255,12,12)" stroke-width="1" font-size="16" >O</text>
<text x="322.497718" y="260.164879" fill="rgb(102,102,102)"  stroke="rgb(102,102,102)" stroke-width="1" font-size="16" >CH</text>
<text x="239.162978" y="193.668622" fill="rgb(255,12,12)"  stroke="rgb(255,12,12)" stroke-width="1" font-size="16" >O</text>
<text x="105.330937" y="273.829490" fill="rgb(102,102,102)"  stroke="rgb(102,102,102)" stroke-width="1" font-size="16" >CH</text>
<text x="129.330937" y="277.509490" fill="rgb(102,102,102)"  stroke="rgb(102,102,102)" stroke-width="1" font-size="13" >3</text>
<text x="14.164751" y="153.832891" fill="rgb(102,102,102)"  stroke="rgb(102,102,102)" stroke-width="1" font-size="16" >H</text>
<text x="26.164751" y="157.512891" fill="rgb(102,102,102)"  stroke="rgb(102,102,102)" stroke-width="1" font-size="13" >3</text>
<text x="32.664751" y="153.832891" fill="rgb(102,102,102)"  stroke="rgb(102,102,102)" stroke-width="1" font-size="16" >C</text>
<text x="201.500646" y="48.000000" fill="rgb(30,239,30)"  stroke="rgb(30,239,30)" stroke-width="1" font-size="16" >Cl</text>
<text font-size="18.000000" fill ="black" font-family="sans-serif"
x="10.000000" y="20.000000" ></text>
<title> - OBDepict</title>
</svg>
