<?xml version="1.0"?>
<svg xmlns="http://www.w3.org/2000/svg"
xmlns:xlink="http://www.w3.org/1999/xlink" xmlns:cml="http://www.xml-cml.org/schema" width="287.229" height="360.517" x="0" y="0" font-family="sans-serif" stroke="rgb(0,0,0)" stroke-width="1"  stroke-linecap="round">
<rect x="0%" y="0%" width="100%" height="100%" stroke-width="0" fill="rgb(255,255,255)"  />
<line x1="213.0" y1="80.3" x2="212.8" y2="119.8" stroke="rgb(0,0,0)"  stroke-width="1.0"/>
<line x1="213.4" y1="53.0" x2="213.0" y2="80.3" stroke="rgb(0,0,0)"  stroke-width="1.0"/>
<line x1="217.6" y1="53.1" x2="217.2" y2="80.4" stroke="rgb(0,0,0)"  stroke-width="1.0"/>
<line x1="209.2" y1="52.9" x2="208.8" y2="80.2" stroke="rgb(0,0,0)"  stroke-width="1.0"/>
<line x1="153.2" y1="311.4" x2="176.7" y2="297.8" stroke="rgb(0,0,0)"  stroke-width="1.0"/>
<line x1="156.2" y1="316.6" x2="179.7" y2="303.0" stroke="rgb(0,0,0)"  stroke-width="1.0"/>
<line x1="235.9" y1="186.7" x2="212.4" y2="200.2" stroke="rgb(0,0,0)"  stroke-width="1.0"/>
<line x1="178.2" y1="300.4" x2="178.2" y2="260.3" stroke="rgb(0,0,0)"  stroke-width="1.0"/>
<line x1="178.0" y1="153.0" x2="177.6" y2="180.1" stroke="rgb(0,0,0)"  stroke-width="1.0"/>
<line x1="120.2" y1="186.2" x2="143.4" y2="199.8" stroke="rgb(0,0,0)"  stroke-width="1.0"/>
<line x1="212.8" y1="119.8" x2="189.5" y2="133.4" stroke="rgb(0,0,0)"  stroke-width="1.0"/>
<line x1="74.4" y1="199.8" x2="97.8" y2="186.2" stroke="rgb(0,0,0)"  stroke-width="1.0"/>
<line x1="51.3" y1="186.5" x2="74.4" y2="199.8" stroke="rgb(0,0,0)"  stroke-width="1.0"/>
<line x1="177.6" y1="180.1" x2="212.4" y2="200.2" stroke="rgb(0,0,0)"  stroke-width="1.0"/>
<line x1="212.4" y1="200.2" x2="212.4" y2="240.1" stroke="rgb(0,0,0)"  stroke-width="1.0"/>
<line x1="205.2" y1="206.2" x2="205.2" y2="234.1" stroke="rgb(0,0,0)"  stroke-width="1.0"/>
<line x1="212.4" y1="240.1" x2="178.2" y2="260.3" stroke="rgb(0,0,0)"  stroke-width="1.0"/>
<line x1="178.2" y1="260.3" x2="143.2" y2="240.1" stroke="rgb(0,0,0)"  stroke-width="1.0"/>
<line x1="176.6" y1="251.0" x2="152.0" y2="236.9" stroke="rgb(0,0,0)"  stroke-width="1.0"/>
<line x1="143.2" y1="240.1" x2="143.4" y2="199.8" stroke="rgb(0,0,0)"  stroke-width="1.0"/>
<line x1="143.4" y1="199.8" x2="177.6" y2="180.1" stroke="rgb(0,0,0)"  stroke-width="1.0"/>
<line x1="152.2" y1="203.0" x2="176.0" y2="189.3" stroke="rgb(0,0,0)"  stroke-width="1.0"/>
<text x="207.640589" y="48.000000" fill="rgb(102,102,102)"  stroke="rgb(102,102,102)" stroke-width="1" font-size="16" >CH</text>
<text x="137.413006" y="328.516887" fill="rgb(255,12,12)"  stroke="rgb(255,12,12)" stroke-width="1" font-size="16" >O</text>
<text x="241.229173" y="188.260872" fill="rgb(165,40,40)"  stroke="rgb(165,40,40)" stroke-width="1" font-size="16" >Br</text>
<text x="172.220785" y="147.954572" fill="rgb(255,12,12)"  stroke="rgb(255,12,12)" stroke-width="1" font-size="16" >O</text>
<text x="103.008388" y="187.648846" fill="rgb(255,12,12)"  stroke="rgb(255,12,12)" stroke-width="1" font-size="16" >O</text>
<text x="14.000000" y="188.052006" fill="rgb(102,102,102)"  stroke="rgb(102,102,102)" stroke-width="1" font-size="16" >H</text>
<text x="26.000000" y="191.732006" fill="rgb(102,102,102)"  stroke="rgb(102,102,102)" stroke-width="1" font-size="13" >3</text>
<text x="32.500000" y="188.052006" fill="rgb(102,102,102)"  stroke="rgb(102,102,102)" stroke-width="1" font-size="16" >C</text>
<text font-size="18.000000" fill ="black" font-family="sans-serif"
x="10.000000" y="20.000000" ></text>
<title> - OBDepict</title>
</svg>
