<?xml version="1.0"?>
<svg xmlns="http://www.w3.org/2000/svg"
xmlns:xlink="http://www.w3.org/1999/xlink" xmlns:cml="http://www.xml-cml.org/schema" width="359.145" height="397.099" x="0" y="0" font-family="sans-serif" stroke="rgb(0,0,0)" stroke-width="1"  stroke-linecap="round">
<rect x="0%" y="0%" width="100%" height="100%" stroke-width="0" fill="rgb(255,255,255)"  />
<line x1="200.8" y1="277.4" x2="162.6" y2="289.7" stroke="rgb(0,0,0)"  stroke-width="1.0"/>
<line x1="198.9" y1="271.7" x2="160.8" y2="284.0" stroke="rgb(0,0,0)"  stroke-width="1.0"/>
<line x1="50.7" y1="235.4" x2="59.2" y2="274.5" stroke="rgb(0,0,0)"  stroke-width="1.0"/>
<line x1="43.5" y1="209.2" x2="50.7" y2="235.4" stroke="rgb(0,0,0)"  stroke-width="1.0"/>
<line x1="47.5" y1="208.1" x2="54.7" y2="234.3" stroke="rgb(0,0,0)"  stroke-width="1.0"/>
<line x1="39.4" y1="210.3" x2="46.6" y2="236.5" stroke="rgb(0,0,0)"  stroke-width="1.0"/>
<line x1="91.1" y1="344.9" x2="107.0" y2="323.2" stroke="rgb(0,0,0)"  stroke-width="1.0"/>
<line x1="95.9" y1="348.4" x2="111.8" y2="326.8" stroke="rgb(0,0,0)"  stroke-width="1.0"/>
<line x1="132.1" y1="236.2" x2="132.4" y2="263.2" stroke="rgb(0,0,0)"  stroke-width="1.0"/>
<line x1="126.1" y1="236.3" x2="126.4" y2="263.3" stroke="rgb(0,0,0)"  stroke-width="1.0"/>
<line x1="281.0" y1="67.1" x2="271.9" y2="105.8" stroke="rgb(0,0,0)"  stroke-width="1.0"/>
<line x1="208.1" y1="235.4" x2="199.9" y2="274.5" stroke="rgb(0,0,0)"  stroke-width="1.0"/>
<line x1="59.2" y1="274.5" x2="84.6" y2="282.8" stroke="rgb(0,0,0)"  stroke-width="1.0"/>
<line x1="230.9" y1="131.0" x2="225.1" y2="157.1" stroke="rgb(0,0,0)"  stroke-width="1.0"/>
<line x1="263.0" y1="46.5" x2="283.0" y2="64.8" stroke="rgb(0,0,0)"  stroke-width="1.0"/>
<line x1="258.9" y1="51.0" x2="279.0" y2="69.3" stroke="rgb(0,0,0)"  stroke-width="1.0"/>
<line x1="271.9" y1="105.8" x2="246.1" y2="114.3" stroke="rgb(0,0,0)"  stroke-width="1.0"/>
<line x1="306.8" y1="58.4" x2="281.0" y2="67.1" stroke="rgb(0,0,0)"  stroke-width="1.0"/>
<line x1="167.4" y1="151.0" x2="186.9" y2="169.4" stroke="rgb(0,0,0)"  stroke-width="1.0"/>
<line x1="119.7" y1="154.3" x2="145.5" y2="146.1" stroke="rgb(0,0,0)"  stroke-width="1.0"/>
<line x1="99.9" y1="136.3" x2="119.7" y2="154.3" stroke="rgb(0,0,0)"  stroke-width="1.0"/>
<line x1="101.0" y1="299.2" x2="109.4" y2="325.0" stroke="rgb(0,0,0)"  stroke-width="1.0"/>
<line x1="109.4" y1="325.0" x2="136.4" y2="325.0" stroke="rgb(0,0,0)"  stroke-width="1.0"/>
<line x1="153.4" y1="312.6" x2="161.7" y2="286.9" stroke="rgb(0,0,0)"  stroke-width="1.0"/>
<line x1="161.7" y1="286.9" x2="129.4" y2="263.2" stroke="rgb(0,0,0)"  stroke-width="1.0"/>
<line x1="129.4" y1="263.2" x2="107.4" y2="279.2" stroke="rgb(0,0,0)"  stroke-width="1.0"/>
<line x1="186.9" y1="169.4" x2="225.1" y2="157.1" stroke="rgb(0,0,0)"  stroke-width="1.0"/>
<line x1="194.9" y1="174.4" x2="221.6" y2="165.8" stroke="rgb(0,0,0)"  stroke-width="1.0"/>
<line x1="225.1" y1="157.1" x2="254.8" y2="183.7" stroke="rgb(0,0,0)"  stroke-width="1.0"/>
<line x1="254.8" y1="183.7" x2="245.9" y2="223.3" stroke="rgb(0,0,0)"  stroke-width="1.0"/>
<line x1="246.4" y1="188.0" x2="240.2" y2="215.8" stroke="rgb(0,0,0)"  stroke-width="1.0"/>
<line x1="245.9" y1="223.3" x2="208.1" y2="235.4" stroke="rgb(0,0,0)"  stroke-width="1.0"/>
<line x1="208.1" y1="235.4" x2="178.5" y2="208.1" stroke="rgb(0,0,0)"  stroke-width="1.0"/>
<line x1="208.6" y1="226.0" x2="187.8" y2="206.9" stroke="rgb(0,0,0)"  stroke-width="1.0"/>
<line x1="178.5" y1="208.1" x2="186.9" y2="169.4" stroke="rgb(0,0,0)"  stroke-width="1.0"/>
<text x="90.916636" y="294.861903" fill="rgb(12,12,255)"  stroke="rgb(12,12,255)" stroke-width="1" font-size="16" >N</text>
<text x="143.394619" y="333.010069" fill="rgb(178,178,0)"  stroke="rgb(178,178,0)" stroke-width="1" font-size="16" >S</text>
<text x="22.000000" y="204.638387" fill="rgb(102,102,102)"  stroke="rgb(102,102,102)" stroke-width="1" font-size="16" >HC</text>
<text x="79.812726" y="365.099351" fill="rgb(255,12,12)"  stroke="rgb(255,12,12)" stroke-width="1" font-size="16" >O</text>
<text x="123.010770" y="231.280010" fill="rgb(255,12,12)"  stroke="rgb(255,12,12)" stroke-width="1" font-size="16" >O</text>
<text x="227.767845" y="126.319193" fill="rgb(255,12,12)"  stroke="rgb(255,12,12)" stroke-width="1" font-size="16" >O</text>
<text x="245.328420" y="48.000000" fill="rgb(255,12,12)"  stroke="rgb(255,12,12)" stroke-width="1" font-size="16" >O</text>
<text x="313.145225" y="62.334668" fill="rgb(255,12,12)"  stroke="rgb(255,12,12)" stroke-width="1" font-size="16" >OH</text>
<text x="151.874145" y="150.137542" fill="rgb(255,12,12)"  stroke="rgb(255,12,12)" stroke-width="1" font-size="16" >O</text>
<text x="64.256231" y="135.603983" fill="rgb(102,102,102)"  stroke="rgb(102,102,102)" stroke-width="1" font-size="16" >H</text>
<text x="76.256231" y="139.283983" fill="rgb(102,102,102)"  stroke="rgb(102,102,102)" stroke-width="1" font-size="13" >3</text>
<text x="82.756231" y="135.603983" fill="rgb(102,102,102)"  stroke="rgb(102,102,102)" stroke-width="1" font-size="16" >C</text>
<text font-size="18.000000" fill ="black" font-family="sans-serif"
x="10.000000" y="20.000000" ></text>
<title> - OBDepict</title>
</svg>
