<?xml version="1.0"?>
<svg xmlns="http://www.w3.org/2000/svg"
xmlns:xlink="http://www.w3.org/1999/xlink" xmlns:cml="http://www.xml-cml.org/schema" width="309.545" height="321.119" x="0" y="0" font-family="sans-serif" stroke="rgb(0,0,0)" stroke-width="1"  stroke-linecap="round">
<rect x="0%" y="0%" width="100%" height="100%" stroke-width="0" fill="rgb(255,255,255)"  />
<line x1="190.4" y1="177.3" x2="210.2" y2="212.0" stroke="rgb(0,0,0)"  stroke-width="1.0"/>
<line x1="138.3" y1="139.1" x2="111.9" y2="131.9" stroke="rgb(0,0,0)"  stroke-width="1.0"/>
<line x1="96.0" y1="116.0" x2="89.0" y2="89.6" stroke="rgb(0,0,0)"  stroke-width="1.0"/>
<line x1="89.0" y1="89.6" x2="50.2" y2="78.9" stroke="rgb(0,0,0)"  stroke-width="1.0"/>
<line x1="50.2" y1="78.9" x2="43.3" y2="52.6" stroke="rgb(0,0,0)"  stroke-width="1.0"/>
<line x1="46.2" y1="80.0" x2="39.2" y2="53.6" stroke="rgb(0,0,0)"  stroke-width="1.0"/>
<line x1="54.3" y1="77.8" x2="47.4" y2="51.5" stroke="rgb(0,0,0)"  stroke-width="1.0"/>
<line x1="190.4" y1="177.3" x2="163.3" y2="177.3" stroke="rgb(0,0,0)"  stroke-width="1.0"/>
<line x1="146.4" y1="164.9" x2="138.3" y2="139.1" stroke="rgb(0,0,0)"  stroke-width="1.0"/>
<line x1="138.3" y1="139.1" x2="159.8" y2="123.3" stroke="rgb(0,0,0)"  stroke-width="1.0"/>
<line x1="147.4" y1="141.3" x2="162.5" y2="130.2" stroke="rgb(0,0,0)"  stroke-width="1.0"/>
<line x1="180.9" y1="123.1" x2="192.3" y2="131.4" stroke="rgb(0,0,0)"  stroke-width="1.0"/>
<line x1="198.7" y1="151.7" x2="190.4" y2="177.3" stroke="rgb(0,0,0)"  stroke-width="1.0"/>
<line x1="191.3" y1="151.4" x2="185.4" y2="169.4" stroke="rgb(0,0,0)"  stroke-width="1.0"/>
<line x1="210.2" y1="212.0" x2="189.9" y2="246.1" stroke="rgb(0,0,0)"  stroke-width="1.0"/>
<line x1="213.3" y1="220.9" x2="199.2" y2="244.6" stroke="rgb(0,0,0)"  stroke-width="1.0"/>
<line x1="189.9" y1="246.1" x2="209.5" y2="280.8" stroke="rgb(0,0,0)"  stroke-width="1.0"/>
<line x1="209.5" y1="280.8" x2="249.4" y2="281.1" stroke="rgb(0,0,0)"  stroke-width="1.0"/>
<line x1="215.6" y1="273.6" x2="243.5" y2="273.9" stroke="rgb(0,0,0)"  stroke-width="1.0"/>
<line x1="249.4" y1="281.1" x2="269.5" y2="246.7" stroke="rgb(0,0,0)"  stroke-width="1.0"/>
<line x1="269.5" y1="246.7" x2="249.6" y2="212.0" stroke="rgb(0,0,0)"  stroke-width="1.0"/>
<line x1="260.3" y1="245.1" x2="246.3" y2="220.8" stroke="rgb(0,0,0)"  stroke-width="1.0"/>
<line x1="249.6" y1="212.0" x2="210.2" y2="212.0" stroke="rgb(0,0,0)"  stroke-width="1.0"/>
<text x="144.329277" y="185.323193" fill="rgb(255,12,12)"  stroke="rgb(255,12,12)" stroke-width="1" font-size="16" >O</text>
<text x="196.810990" y="147.093919" fill="rgb(12,12,255)"  stroke="rgb(12,12,255)" stroke-width="1" font-size="16" >N</text>
<text x="164.451222" y="123.451240" fill="rgb(12,12,255)"  stroke="rgb(12,12,255)" stroke-width="1" font-size="16" >N</text>
<text x="93.353684" y="136.531714" fill="rgb(178,178,0)"  stroke="rgb(178,178,0)" stroke-width="1" font-size="16" >S</text>
<text x="22.000000" y="48.000000" fill="rgb(102,102,102)"  stroke="rgb(102,102,102)" stroke-width="1" font-size="16" >HC</text>
<text font-size="18.000000" fill ="black" font-family="sans-serif"
x="10.000000" y="20.000000" ></text>
<title> - OBDepict</title>
</svg>
