<?xml version="1.0"?>
<svg xmlns="http://www.w3.org/2000/svg"
xmlns:xlink="http://www.w3.org/1999/xlink" xmlns:cml="http://www.xml-cml.org/schema" width="395.903" height="365.828" x="0" y="0" font-family="sans-serif" stroke="rgb(0,0,0)" stroke-width="1"  stroke-linecap="round">
<rect x="0%" y="0%" width="100%" height="100%" stroke-width="0" fill="rgb(255,255,255)"  />
<line x1="142.9" y1="153.5" x2="122.9" y2="188.1" stroke="rgb(0,0,0)"  stroke-width="1.0"/>
<line x1="137.7" y1="150.5" x2="117.7" y2="185.0" stroke="rgb(0,0,0)"  stroke-width="1.0"/>
<line x1="80.0" y1="186.5" x2="120.3" y2="186.5" stroke="rgb(0,0,0)"  stroke-width="1.0"/>
<line x1="53.0" y1="186.4" x2="80.0" y2="186.5" stroke="rgb(0,0,0)"  stroke-width="1.0"/>
<line x1="53.0" y1="182.2" x2="80.0" y2="182.3" stroke="rgb(0,0,0)"  stroke-width="1.0"/>
<line x1="53.0" y1="190.6" x2="79.9" y2="190.7" stroke="rgb(0,0,0)"  stroke-width="1.0"/>
<line x1="315.9" y1="41.8" x2="297.4" y2="76.9" stroke="rgb(0,0,0)"  stroke-width="1.0"/>
<line x1="342.9" y1="40.6" x2="315.9" y2="41.8" stroke="rgb(0,0,0)"  stroke-width="1.0"/>
<line x1="343.1" y1="44.8" x2="316.1" y2="46.0" stroke="rgb(0,0,0)"  stroke-width="1.0"/>
<line x1="342.7" y1="36.4" x2="315.7" y2="37.6" stroke="rgb(0,0,0)"  stroke-width="1.0"/>
<line x1="139.9" y1="221.1" x2="120.3" y2="186.5" stroke="rgb(0,0,0)"  stroke-width="1.0"/>
<line x1="180.3" y1="150.8" x2="140.3" y2="152.0" stroke="rgb(0,0,0)"  stroke-width="1.0"/>
<line x1="192.8" y1="314.4" x2="179.7" y2="290.7" stroke="rgb(0,0,0)"  stroke-width="1.0"/>
<line x1="297.4" y1="76.9" x2="270.4" y2="78.2" stroke="rgb(0,0,0)"  stroke-width="1.0"/>
<line x1="251.3" y1="90.2" x2="238.6" y2="113.9" stroke="rgb(0,0,0)"  stroke-width="1.0"/>
<line x1="139.9" y1="221.1" x2="119.9" y2="255.6" stroke="rgb(0,0,0)"  stroke-width="1.0"/>
<line x1="143.1" y1="229.9" x2="129.2" y2="254.0" stroke="rgb(0,0,0)"  stroke-width="1.0"/>
<line x1="119.9" y1="255.6" x2="139.3" y2="290.5" stroke="rgb(0,0,0)"  stroke-width="1.0"/>
<line x1="139.3" y1="290.5" x2="179.7" y2="290.7" stroke="rgb(0,0,0)"  stroke-width="1.0"/>
<line x1="145.3" y1="283.3" x2="173.7" y2="283.5" stroke="rgb(0,0,0)"  stroke-width="1.0"/>
<line x1="179.7" y1="290.7" x2="199.9" y2="256.2" stroke="rgb(0,0,0)"  stroke-width="1.0"/>
<line x1="199.9" y1="256.2" x2="180.3" y2="221.7" stroke="rgb(0,0,0)"  stroke-width="1.0"/>
<line x1="190.6" y1="254.5" x2="177.0" y2="230.4" stroke="rgb(0,0,0)"  stroke-width="1.0"/>
<line x1="180.3" y1="221.7" x2="139.9" y2="221.1" stroke="rgb(0,0,0)"  stroke-width="1.0"/>
<line x1="180.3" y1="150.8" x2="198.7" y2="115.7" stroke="rgb(0,0,0)"  stroke-width="1.0"/>
<line x1="198.7" y1="115.7" x2="238.6" y2="113.9" stroke="rgb(0,0,0)"  stroke-width="1.0"/>
<line x1="205.0" y1="122.6" x2="233.0" y2="121.3" stroke="rgb(0,0,0)"  stroke-width="1.0"/>
<line x1="238.6" y1="113.9" x2="260.2" y2="147.8" stroke="rgb(0,0,0)"  stroke-width="1.0"/>
<line x1="260.2" y1="147.8" x2="241.4" y2="183.5" stroke="rgb(0,0,0)"  stroke-width="1.0"/>
<line x1="251.1" y1="149.8" x2="237.9" y2="174.9" stroke="rgb(0,0,0)"  stroke-width="1.0"/>
<line x1="241.4" y1="183.5" x2="201.5" y2="184.7" stroke="rgb(0,0,0)"  stroke-width="1.0"/>
<line x1="201.5" y1="184.7" x2="180.3" y2="150.8" stroke="rgb(0,0,0)"  stroke-width="1.0"/>
<line x1="204.4" y1="175.8" x2="189.6" y2="152.1" stroke="rgb(0,0,0)"  stroke-width="1.0"/>
<text x="34.000000" y="194.345632" fill="rgb(12,12,255)"  stroke="rgb(12,12,255)" stroke-width="1" font-size="16" >N</text>
<text x="349.902803" y="48.000000" fill="rgb(102,102,102)"  stroke="rgb(102,102,102)" stroke-width="1" font-size="16" >CH</text>
<text x="193.058905" y="333.828131" fill="rgb(30,239,30)"  stroke="rgb(30,239,30)" stroke-width="1" font-size="16" >Cl</text>
<text x="251.395529" y="86.755371" fill="rgb(255,12,12)"  stroke="rgb(255,12,12)" stroke-width="1" font-size="16" >O</text>
<text font-size="18.000000" fill ="black" font-family="sans-serif"
x="10.000000" y="20.000000" ></text>
<title> - OBDepict</title>
</svg>
