<?xml version="1.0"?>
<svg xmlns="http://www.w3.org/2000/svg"
xmlns:xlink="http://www.w3.org/1999/xlink" xmlns:cml="http://www.xml-cml.org/schema" width="317.104" height="402.731" x="0" y="0" font-family="sans-serif" stroke="rgb(0,0,0)" stroke-width="1"  stroke-linecap="round">
<rect x="0%" y="0%" width="100%" height="100%" stroke-width="0" fill="rgb(255,255,255)"  />
<line x1="194.5" y1="142.8" x2="202.8" y2="117.2" stroke="rgb(0,0,0)"  stroke-width="1.0"/>
<line x1="132.7" y1="333.0" x2="105.8" y2="303.4" stroke="rgb(0,0,0)"  stroke-width="1.0"/>
<line x1="143.0" y1="189.2" x2="155.3" y2="151.1" stroke="rgb(0,0,0)"  stroke-width="1.0"/>
<line x1="155.3" y1="151.1" x2="194.5" y2="142.8" stroke="rgb(0,0,0)"  stroke-width="1.0"/>
<line x1="150.7" y1="353.1" x2="132.7" y2="333.0" stroke="rgb(0,0,0)"  stroke-width="1.0"/>
<line x1="147.5" y1="355.9" x2="129.6" y2="335.9" stroke="rgb(0,0,0)"  stroke-width="1.0"/>
<line x1="153.8" y1="350.3" x2="135.8" y2="330.2" stroke="rgb(0,0,0)"  stroke-width="1.0"/>
<line x1="116.5" y1="194.8" x2="143.0" y2="189.2" stroke="rgb(0,0,0)"  stroke-width="1.0"/>
<line x1="156.2" y1="69.5" x2="183.2" y2="69.5" stroke="rgb(0,0,0)"  stroke-width="1.0"/>
<line x1="156.2" y1="75.5" x2="183.2" y2="75.5" stroke="rgb(0,0,0)"  stroke-width="1.0"/>
<line x1="264.8" y1="110.7" x2="243.0" y2="94.9" stroke="rgb(0,0,0)"  stroke-width="1.0"/>
<line x1="268.3" y1="105.9" x2="246.6" y2="90.1" stroke="rgb(0,0,0)"  stroke-width="1.0"/>
<line x1="91.5" y1="235.5" x2="99.8" y2="209.9" stroke="rgb(0,0,0)"  stroke-width="1.0"/>
<line x1="158.7" y1="211.3" x2="140.8" y2="191.2" stroke="rgb(0,0,0)"  stroke-width="1.0"/>
<line x1="163.2" y1="207.3" x2="145.2" y2="187.2" stroke="rgb(0,0,0)"  stroke-width="1.0"/>
<line x1="199.1" y1="94.3" x2="183.2" y2="72.5" stroke="rgb(0,0,0)"  stroke-width="1.0"/>
<line x1="183.2" y1="72.5" x2="206.8" y2="40.0" stroke="rgb(0,0,0)"  stroke-width="1.0"/>
<line x1="206.8" y1="40.0" x2="244.8" y2="52.5" stroke="rgb(0,0,0)"  stroke-width="1.0"/>
<line x1="244.8" y1="52.5" x2="244.8" y2="92.5" stroke="rgb(0,0,0)"  stroke-width="1.0"/>
<line x1="244.8" y1="92.5" x2="219.2" y2="100.8" stroke="rgb(0,0,0)"  stroke-width="1.0"/>
<line x1="91.5" y1="235.5" x2="118.2" y2="265.2" stroke="rgb(0,0,0)"  stroke-width="1.0"/>
<line x1="90.2" y1="244.8" x2="108.8" y2="265.5" stroke="rgb(0,0,0)"  stroke-width="1.0"/>
<line x1="118.2" y1="265.2" x2="105.8" y2="303.4" stroke="rgb(0,0,0)"  stroke-width="1.0"/>
<line x1="105.8" y1="303.4" x2="66.7" y2="311.6" stroke="rgb(0,0,0)"  stroke-width="1.0"/>
<line x1="98.5" y1="297.6" x2="71.0" y2="303.3" stroke="rgb(0,0,0)"  stroke-width="1.0"/>
<line x1="66.7" y1="311.6" x2="40.0" y2="281.9" stroke="rgb(0,0,0)"  stroke-width="1.0"/>
<line x1="40.0" y1="281.9" x2="52.3" y2="243.8" stroke="rgb(0,0,0)"  stroke-width="1.0"/>
<line x1="48.7" y1="278.4" x2="57.3" y2="251.7" stroke="rgb(0,0,0)"  stroke-width="1.0"/>
<line x1="52.3" y1="243.8" x2="91.5" y2="235.5" stroke="rgb(0,0,0)"  stroke-width="1.0"/>
<text x="200.822739" y="112.826710" fill="rgb(12,12,255)"  stroke="rgb(12,12,255)" stroke-width="1" font-size="16" >N</text>
<text x="153.360153" y="370.731024" fill="rgb(102,102,102)"  stroke="rgb(102,102,102)" stroke-width="1" font-size="16" >CH</text>
<text x="97.822134" y="205.529196" fill="rgb(12,12,255)"  stroke="rgb(12,12,255)" stroke-width="1" font-size="16" >N</text>
<text x="97.822134" y="189.529196" fill="rgb(12,12,255)"  stroke="rgb(12,12,255)" stroke-width="1" font-size="16" >H</text>
<text x="137.204432" y="80.515268" fill="rgb(255,12,12)"  stroke="rgb(255,12,12)" stroke-width="1" font-size="16" >O</text>
<text x="271.104249" y="123.935284" fill="rgb(255,12,12)"  stroke="rgb(255,12,12)" stroke-width="1" font-size="16" >O</text>
<text x="163.663126" y="226.935890" fill="rgb(255,12,12)"  stroke="rgb(255,12,12)" stroke-width="1" font-size="16" >O</text>
<text font-size="18.000000" fill ="black" font-family="sans-serif"
x="10.000000" y="20.000000" ></text>
<title> - OBDepict</title>
</svg>
