<?xml version="1.0"?>
<svg xmlns="http://www.w3.org/2000/svg"
xmlns:xlink="http://www.w3.org/1999/xlink" xmlns:cml="http://www.xml-cml.org/schema" width="366.903" height="487.107" x="0" y="0" font-family="sans-serif" stroke="rgb(0,0,0)" stroke-width="1"  stroke-linecap="round">
<rect x="0%" y="0%" width="100%" height="100%" stroke-width="0" fill="rgb(255,255,255)"  />
<line x1="201.7" y1="366.9" x2="163.4" y2="379.3" stroke="rgb(0,0,0)"  stroke-width="1.0"/>
<line x1="199.9" y1="361.2" x2="161.5" y2="373.6" stroke="rgb(0,0,0)"  stroke-width="1.0"/>
<line x1="208.7" y1="324.7" x2="200.8" y2="364.1" stroke="rgb(0,0,0)"  stroke-width="1.0"/>
<line x1="230.9" y1="219.8" x2="225.0" y2="246.7" stroke="rgb(0,0,0)"  stroke-width="1.0"/>
<line x1="50.8" y1="324.7" x2="59.3" y2="364.1" stroke="rgb(0,0,0)"  stroke-width="1.0"/>
<line x1="43.5" y1="298.2" x2="50.8" y2="324.7" stroke="rgb(0,0,0)"  stroke-width="1.0"/>
<line x1="47.5" y1="297.1" x2="54.8" y2="323.6" stroke="rgb(0,0,0)"  stroke-width="1.0"/>
<line x1="39.4" y1="299.3" x2="46.7" y2="325.8" stroke="rgb(0,0,0)"  stroke-width="1.0"/>
<line x1="91.4" y1="434.9" x2="107.4" y2="413.0" stroke="rgb(0,0,0)"  stroke-width="1.0"/>
<line x1="96.2" y1="438.4" x2="112.3" y2="416.6" stroke="rgb(0,0,0)"  stroke-width="1.0"/>
<line x1="132.7" y1="325.5" x2="132.9" y2="352.7" stroke="rgb(0,0,0)"  stroke-width="1.0"/>
<line x1="126.7" y1="325.5" x2="126.9" y2="352.7" stroke="rgb(0,0,0)"  stroke-width="1.0"/>
<line x1="59.3" y1="364.1" x2="84.9" y2="372.4" stroke="rgb(0,0,0)"  stroke-width="1.0"/>
<line x1="280.3" y1="265.1" x2="254.4" y2="272.9" stroke="rgb(0,0,0)"  stroke-width="1.0"/>
<line x1="271.9" y1="195.5" x2="246.1" y2="203.3" stroke="rgb(0,0,0)"  stroke-width="1.0"/>
<line x1="167.5" y1="240.9" x2="187.4" y2="259.3" stroke="rgb(0,0,0)"  stroke-width="1.0"/>
<line x1="280.6" y1="156.5" x2="271.9" y2="195.5" stroke="rgb(0,0,0)"  stroke-width="1.0"/>
<line x1="303.8" y1="52.6" x2="297.5" y2="78.8" stroke="rgb(0,0,0)"  stroke-width="1.0"/>
<line x1="132.6" y1="240.3" x2="145.6" y2="236.1" stroke="rgb(0,0,0)"  stroke-width="1.0"/>
<line x1="107.8" y1="368.8" x2="129.9" y2="352.7" stroke="rgb(0,0,0)"  stroke-width="1.0"/>
<line x1="129.9" y1="352.7" x2="162.4" y2="376.4" stroke="rgb(0,0,0)"  stroke-width="1.0"/>
<line x1="162.4" y1="376.4" x2="154.0" y2="402.5" stroke="rgb(0,0,0)"  stroke-width="1.0"/>
<line x1="137.0" y1="414.8" x2="109.8" y2="414.8" stroke="rgb(0,0,0)"  stroke-width="1.0"/>
<line x1="109.8" y1="414.8" x2="101.3" y2="388.8" stroke="rgb(0,0,0)"  stroke-width="1.0"/>
<line x1="254.4" y1="272.9" x2="225.0" y2="246.7" stroke="rgb(0,0,0)"  stroke-width="1.0"/>
<line x1="225.0" y1="246.7" x2="187.4" y2="259.3" stroke="rgb(0,0,0)"  stroke-width="1.0"/>
<line x1="221.6" y1="255.4" x2="195.4" y2="264.2" stroke="rgb(0,0,0)"  stroke-width="1.0"/>
<line x1="187.4" y1="259.3" x2="178.7" y2="297.9" stroke="rgb(0,0,0)"  stroke-width="1.0"/>
<line x1="178.7" y1="297.9" x2="208.7" y2="324.7" stroke="rgb(0,0,0)"  stroke-width="1.0"/>
<line x1="187.9" y1="296.5" x2="209.0" y2="315.3" stroke="rgb(0,0,0)"  stroke-width="1.0"/>
<line x1="208.7" y1="324.7" x2="246.5" y2="312.5" stroke="rgb(0,0,0)"  stroke-width="1.0"/>
<line x1="246.5" y1="312.5" x2="254.4" y2="272.9" stroke="rgb(0,0,0)"  stroke-width="1.0"/>
<line x1="240.6" y1="305.2" x2="246.2" y2="277.4" stroke="rgb(0,0,0)"  stroke-width="1.0"/>
<line x1="280.6" y1="156.5" x2="251.2" y2="129.9" stroke="rgb(0,0,0)"  stroke-width="1.0"/>
<line x1="251.2" y1="129.9" x2="259.9" y2="91.6" stroke="rgb(0,0,0)"  stroke-width="1.0"/>
<line x1="259.5" y1="125.7" x2="265.6" y2="99.0" stroke="rgb(0,0,0)"  stroke-width="1.0"/>
<line x1="259.9" y1="91.6" x2="297.5" y2="78.8" stroke="rgb(0,0,0)"  stroke-width="1.0"/>
<line x1="297.5" y1="78.8" x2="326.9" y2="105.6" stroke="rgb(0,0,0)"  stroke-width="1.0"/>
<line x1="297.0" y1="88.1" x2="317.6" y2="106.9" stroke="rgb(0,0,0)"  stroke-width="1.0"/>
<line x1="326.9" y1="105.6" x2="318.4" y2="144.4" stroke="rgb(0,0,0)"  stroke-width="1.0"/>
<line x1="318.4" y1="144.4" x2="280.6" y2="156.5" stroke="rgb(0,0,0)"  stroke-width="1.0"/>
<line x1="310.5" y1="139.4" x2="284.1" y2="147.9" stroke="rgb(0,0,0)"  stroke-width="1.0"/>
<text x="91.256806" y="384.447800" fill="rgb(12,12,255)"  stroke="rgb(12,12,255)" stroke-width="1" font-size="16" >N</text>
<text x="144.046015" y="422.823689" fill="rgb(178,178,0)"  stroke="rgb(178,178,0)" stroke-width="1" font-size="16" >S</text>
<text x="227.702260" y="215.109418" fill="rgb(255,12,12)"  stroke="rgb(255,12,12)" stroke-width="1" font-size="16" >O</text>
<text x="22.000000" y="293.688848" fill="rgb(102,102,102)"  stroke="rgb(102,102,102)" stroke-width="1" font-size="16" >HC</text>
<text x="80.087812" y="455.107399" fill="rgb(255,12,12)"  stroke="rgb(255,12,12)" stroke-width="1" font-size="16" >O</text>
<text x="123.540516" y="320.489598" fill="rgb(255,12,12)"  stroke="rgb(255,12,12)" stroke-width="1" font-size="16" >O</text>
<text x="286.791555" y="269.320135" fill="rgb(30,239,30)"  stroke="rgb(30,239,30)" stroke-width="1" font-size="16" >Cl</text>
<text x="151.965847" y="240.082514" fill="rgb(255,12,12)"  stroke="rgb(255,12,12)" stroke-width="1" font-size="16" >O</text>
<text x="300.798730" y="48.000000" fill="rgb(165,40,40)"  stroke="rgb(165,40,40)" stroke-width="1" font-size="16" >Br</text>
<text x="94.199176" y="252.266871" fill="rgb(102,102,102)"  stroke="rgb(102,102,102)" stroke-width="1" font-size="16" >H</text>
<text x="106.199176" y="255.946871" fill="rgb(102,102,102)"  stroke="rgb(102,102,102)" stroke-width="1" font-size="13" >3</text>
<text x="112.699176" y="252.266871" fill="rgb(102,102,102)"  stroke="rgb(102,102,102)" stroke-width="1" font-size="16" >C</text>
<text font-size="18.000000" fill ="black" font-family="sans-serif"
x="10.000000" y="20.000000" ></text>
<title> - OBDepict</title>
</svg>
