<?xml version="1.0"?>
<svg xmlns="http://www.w3.org/2000/svg"
xmlns:xlink="http://www.w3.org/1999/xlink" xmlns:cml="http://www.xml-cml.org/schema" width="519.732" height="347.517" x="0" y="0" font-family="sans-serif" stroke="rgb(0,0,0)" stroke-width="1"  stroke-linecap="round">
<rect x="0%" y="0%" width="100%" height="100%" stroke-width="0" fill="rgb(255,255,255)"  />
<line x1="266.6" y1="181.2" x2="239.6" y2="180.9" stroke="rgb(0,0,0)"  stroke-width="1.0"/>
<line x1="266.7" y1="175.2" x2="239.7" y2="174.9" stroke="rgb(0,0,0)"  stroke-width="1.0"/>
<line x1="85.2" y1="144.2" x2="109.0" y2="157.9" stroke="rgb(0,0,0)"  stroke-width="1.0"/>
<line x1="339.6" y1="143.8" x2="299.6" y2="143.8" stroke="rgb(0,0,0)"  stroke-width="1.0"/>
<line x1="299.6" y1="143.8" x2="286.2" y2="167.1" stroke="rgb(0,0,0)"  stroke-width="1.0"/>
<line x1="201.7" y1="277.8" x2="228.4" y2="248.2" stroke="rgb(0,0,0)"  stroke-width="1.0"/>
<line x1="183.8" y1="297.8" x2="201.7" y2="277.8" stroke="rgb(0,0,0)"  stroke-width="1.0"/>
<line x1="180.6" y1="295.0" x2="198.6" y2="275.0" stroke="rgb(0,0,0)"  stroke-width="1.0"/>
<line x1="186.9" y1="300.7" x2="204.8" y2="280.6" stroke="rgb(0,0,0)"  stroke-width="1.0"/>
<line x1="90.7" y1="116.6" x2="83.4" y2="128.3" stroke="rgb(0,0,0)"  stroke-width="1.0"/>
<line x1="85.7" y1="113.4" x2="78.3" y2="125.1" stroke="rgb(0,0,0)"  stroke-width="1.0"/>
<line x1="57.0" y1="159.2" x2="64.5" y2="147.2" stroke="rgb(0,0,0)"  stroke-width="1.0"/>
<line x1="62.1" y1="162.4" x2="69.6" y2="150.3" stroke="rgb(0,0,0)"  stroke-width="1.0"/>
<line x1="288.8" y1="119.0" x2="302.2" y2="142.3" stroke="rgb(0,0,0)"  stroke-width="1.0"/>
<line x1="283.6" y1="122.0" x2="297.0" y2="145.3" stroke="rgb(0,0,0)"  stroke-width="1.0"/>
<line x1="51.1" y1="123.6" x2="62.9" y2="130.9" stroke="rgb(0,0,0)"  stroke-width="1.0"/>
<line x1="228.4" y1="248.2" x2="220.2" y2="222.4" stroke="rgb(0,0,0)"  stroke-width="1.0"/>
<line x1="346.2" y1="85.9" x2="359.8" y2="109.3" stroke="rgb(0,0,0)"  stroke-width="1.0"/>
<line x1="353.3" y1="51.2" x2="346.1" y2="63.5" stroke="rgb(0,0,0)"  stroke-width="1.0"/>
<line x1="239.7" y1="177.9" x2="223.9" y2="156.1" stroke="rgb(0,0,0)"  stroke-width="1.0"/>
<line x1="203.9" y1="149.6" x2="178.1" y2="157.9" stroke="rgb(0,0,0)"  stroke-width="1.0"/>
<line x1="178.1" y1="157.9" x2="178.1" y2="197.9" stroke="rgb(0,0,0)"  stroke-width="1.0"/>
<line x1="185.3" y1="163.9" x2="185.3" y2="191.9" stroke="rgb(0,0,0)"  stroke-width="1.0"/>
<line x1="178.1" y1="197.9" x2="203.9" y2="206.1" stroke="rgb(0,0,0)"  stroke-width="1.0"/>
<line x1="223.9" y1="199.5" x2="239.7" y2="177.9" stroke="rgb(0,0,0)"  stroke-width="1.0"/>
<line x1="339.6" y1="143.8" x2="359.8" y2="178.9" stroke="rgb(0,0,0)"  stroke-width="1.0"/>
<line x1="348.8" y1="145.4" x2="363.1" y2="170.1" stroke="rgb(0,0,0)"  stroke-width="1.0"/>
<line x1="359.8" y1="178.9" x2="399.8" y2="178.5" stroke="rgb(0,0,0)"  stroke-width="1.0"/>
<line x1="399.8" y1="178.5" x2="419.8" y2="144.0" stroke="rgb(0,0,0)"  stroke-width="1.0"/>
<line x1="419.8" y1="144.0" x2="399.8" y2="109.5" stroke="rgb(0,0,0)"  stroke-width="1.0"/>
<line x1="399.8" y1="109.5" x2="359.8" y2="109.3" stroke="rgb(0,0,0)"  stroke-width="1.0"/>
<line x1="393.7" y1="116.6" x2="365.8" y2="116.5" stroke="rgb(0,0,0)"  stroke-width="1.0"/>
<line x1="359.8" y1="109.3" x2="339.6" y2="143.8" stroke="rgb(0,0,0)"  stroke-width="1.0"/>
<line x1="459.7" y1="144.0" x2="419.8" y2="144.0" stroke="rgb(0,0,0)"  stroke-width="1.0"/>
<line x1="453.7" y1="151.2" x2="425.8" y2="151.2" stroke="rgb(0,0,0)"  stroke-width="1.0"/>
<line x1="399.8" y1="178.5" x2="419.8" y2="213.4" stroke="rgb(0,0,0)"  stroke-width="1.0"/>
<line x1="409.0" y1="180.1" x2="423.0" y2="204.6" stroke="rgb(0,0,0)"  stroke-width="1.0"/>
<line x1="419.8" y1="213.4" x2="459.7" y2="213.4" stroke="rgb(0,0,0)"  stroke-width="1.0"/>
<line x1="459.7" y1="213.4" x2="479.7" y2="178.9" stroke="rgb(0,0,0)"  stroke-width="1.0"/>
<line x1="456.5" y1="204.6" x2="470.5" y2="180.5" stroke="rgb(0,0,0)"  stroke-width="1.0"/>
<line x1="479.7" y1="178.9" x2="459.7" y2="144.0" stroke="rgb(0,0,0)"  stroke-width="1.0"/>
<line x1="109.0" y1="157.9" x2="143.6" y2="137.9" stroke="rgb(0,0,0)"  stroke-width="1.0"/>
<line x1="117.8" y1="161.1" x2="142.0" y2="147.2" stroke="rgb(0,0,0)"  stroke-width="1.0"/>
<line x1="143.6" y1="137.9" x2="178.1" y2="157.9" stroke="rgb(0,0,0)"  stroke-width="1.0"/>
<line x1="178.1" y1="197.9" x2="143.6" y2="217.9" stroke="rgb(0,0,0)"  stroke-width="1.0"/>
<line x1="143.6" y1="217.9" x2="109.0" y2="197.9" stroke="rgb(0,0,0)"  stroke-width="1.0"/>
<line x1="142.0" y1="208.6" x2="117.8" y2="194.7" stroke="rgb(0,0,0)"  stroke-width="1.0"/>
<line x1="109.0" y1="197.9" x2="109.0" y2="157.9" stroke="rgb(0,0,0)"  stroke-width="1.0"/>
<text x="273.650481" y="186.301266" fill="rgb(12,12,255)"  stroke="rgb(12,12,255)" stroke-width="1" font-size="16" >N</text>
<text x="67.918747" y="145.719909" fill="rgb(178,178,0)"  stroke="rgb(178,178,0)" stroke-width="1" font-size="16" >S</text>
<text x="210.256343" y="218.000758" fill="rgb(12,12,255)"  stroke="rgb(12,12,255)" stroke-width="1" font-size="16" >N</text>
<text x="210.256343" y="153.593903" fill="rgb(178,178,0)"  stroke="rgb(178,178,0)" stroke-width="1" font-size="16" >S</text>
<text x="157.069294" y="315.517154" fill="rgb(102,102,102)"  stroke="rgb(102,102,102)" stroke-width="1" font-size="16" >HC</text>
<text x="89.117963" y="112.004675" fill="rgb(255,12,12)"  stroke="rgb(255,12,12)" stroke-width="1" font-size="16" >O</text>
<text x="46.719530" y="179.842168" fill="rgb(255,12,12)"  stroke="rgb(255,12,12)" stroke-width="1" font-size="16" >O</text>
<text x="273.650481" y="117.252389" fill="rgb(255,12,12)"  stroke="rgb(255,12,12)" stroke-width="1" font-size="16" >O</text>
<text x="14.000000" y="124.724205" fill="rgb(12,12,255)"  stroke="rgb(12,12,255)" stroke-width="1" font-size="16" >H</text>
<text x="26.000000" y="128.404205" fill="rgb(12,12,255)"  stroke="rgb(12,12,255)" stroke-width="1" font-size="13" >2</text>
<text x="32.500000" y="124.724205" fill="rgb(12,12,255)"  stroke="rgb(12,12,255)" stroke-width="1" font-size="16" >N</text>
<text x="333.613979" y="82.727951" fill="rgb(255,12,12)"  stroke="rgb(255,12,12)" stroke-width="1" font-size="16" >O</text>
<text x="355.805324" y="48.000000" fill="rgb(102,102,102)"  stroke="rgb(102,102,102)" stroke-width="1" font-size="16" >CH</text>
<text x="379.805324" y="51.680000" fill="rgb(102,102,102)"  stroke="rgb(102,102,102)" stroke-width="1" font-size="13" >3</text>
<text font-size="18.000000" fill ="black" font-family="sans-serif"
x="10.000000" y="20.000000" ></text>
<title> - OBDepict</title>
</svg>
