<?xml version="1.0"?>
<svg xmlns="http://www.w3.org/2000/svg"
xmlns:xlink="http://www.w3.org/1999/xlink" xmlns:cml="http://www.xml-cml.org/schema" width="357.822" height="250.092" x="0" y="0" font-family="sans-serif" stroke="rgb(0,0,0)" stroke-width="1"  stroke-linecap="round">
<rect x="0%" y="0%" width="100%" height="100%" stroke-width="0" fill="rgb(255,255,255)"  />
<line x1="178.9" y1="99.5" x2="178.9" y2="139.2" stroke="rgb(0,0,0)"  stroke-width="1.0"/>
<line x1="132.4" y1="176.1" x2="159.1" y2="176.1" stroke="rgb(0,0,0)"  stroke-width="1.0"/>
<line x1="178.9" y1="73.1" x2="178.9" y2="99.5" stroke="rgb(0,0,0)"  stroke-width="1.0"/>
<line x1="283.8" y1="40.0" x2="249.8" y2="60.1" stroke="rgb(0,0,0)"  stroke-width="1.0"/>
<line x1="306.6" y1="53.5" x2="283.8" y2="40.0" stroke="rgb(0,0,0)"  stroke-width="1.0"/>
<line x1="304.5" y1="57.1" x2="281.7" y2="43.6" stroke="rgb(0,0,0)"  stroke-width="1.0"/>
<line x1="308.8" y1="49.9" x2="285.9" y2="36.4" stroke="rgb(0,0,0)"  stroke-width="1.0"/>
<line x1="105.7" y1="150.7" x2="113.2" y2="164.6" stroke="rgb(0,0,0)"  stroke-width="1.0"/>
<line x1="103.5" y1="197.4" x2="110.2" y2="185.8" stroke="rgb(0,0,0)"  stroke-width="1.0"/>
<line x1="108.7" y1="200.4" x2="115.4" y2="188.8" stroke="rgb(0,0,0)"  stroke-width="1.0"/>
<line x1="205.6" y1="102.5" x2="178.9" y2="102.5" stroke="rgb(0,0,0)"  stroke-width="1.0"/>
<line x1="205.6" y1="96.5" x2="178.9" y2="96.5" stroke="rgb(0,0,0)"  stroke-width="1.0"/>
<line x1="144.9" y1="40.0" x2="167.7" y2="53.5" stroke="rgb(0,0,0)"  stroke-width="1.0"/>
<line x1="108.0" y1="60.1" x2="144.9" y2="40.0" stroke="rgb(0,0,0)"  stroke-width="1.0"/>
<line x1="212.9" y1="40.0" x2="190.1" y2="53.5" stroke="rgb(0,0,0)"  stroke-width="1.0"/>
<line x1="249.8" y1="60.1" x2="212.9" y2="40.0" stroke="rgb(0,0,0)"  stroke-width="1.0"/>
<line x1="178.9" y1="139.2" x2="159.1" y2="176.1" stroke="rgb(0,0,0)"  stroke-width="1.0"/>
<line x1="182.4" y1="147.9" x2="168.2" y2="174.2" stroke="rgb(0,0,0)"  stroke-width="1.0"/>
<line x1="159.1" y1="176.1" x2="178.9" y2="210.1" stroke="rgb(0,0,0)"  stroke-width="1.0"/>
<line x1="178.9" y1="210.1" x2="218.6" y2="210.1" stroke="rgb(0,0,0)"  stroke-width="1.0"/>
<line x1="184.9" y1="202.9" x2="212.6" y2="202.9" stroke="rgb(0,0,0)"  stroke-width="1.0"/>
<line x1="218.6" y1="210.1" x2="238.4" y2="176.1" stroke="rgb(0,0,0)"  stroke-width="1.0"/>
<line x1="238.4" y1="176.1" x2="218.6" y2="139.2" stroke="rgb(0,0,0)"  stroke-width="1.0"/>
<line x1="229.3" y1="174.2" x2="215.1" y2="147.9" stroke="rgb(0,0,0)"  stroke-width="1.0"/>
<line x1="218.6" y1="139.2" x2="178.9" y2="139.2" stroke="rgb(0,0,0)"  stroke-width="1.0"/>
<line x1="108.0" y1="60.1" x2="74.0" y2="40.0" stroke="rgb(0,0,0)"  stroke-width="1.0"/>
<line x1="99.2" y1="63.2" x2="75.5" y2="49.3" stroke="rgb(0,0,0)"  stroke-width="1.0"/>
<line x1="74.0" y1="40.0" x2="40.0" y2="60.1" stroke="rgb(0,0,0)"  stroke-width="1.0"/>
<line x1="40.0" y1="60.1" x2="40.0" y2="99.5" stroke="rgb(0,0,0)"  stroke-width="1.0"/>
<line x1="47.2" y1="66.1" x2="47.2" y2="93.5" stroke="rgb(0,0,0)"  stroke-width="1.0"/>
<line x1="40.0" y1="99.5" x2="74.0" y2="119.1" stroke="rgb(0,0,0)"  stroke-width="1.0"/>
<line x1="74.0" y1="119.1" x2="108.0" y2="99.5" stroke="rgb(0,0,0)"  stroke-width="1.0"/>
<line x1="75.6" y1="109.9" x2="99.2" y2="96.3" stroke="rgb(0,0,0)"  stroke-width="1.0"/>
<line x1="108.0" y1="99.5" x2="108.0" y2="60.1" stroke="rgb(0,0,0)"  stroke-width="1.0"/>
<text x="124.178980" y="172.039411" fill="rgb(12,12,255)"  stroke="rgb(12,12,255)" stroke-width="1" font-size="16" >+</text>
<text x="113.378980" y="184.071411" fill="rgb(12,12,255)"  stroke="rgb(12,12,255)" stroke-width="1" font-size="16" >N</text>
<text x="172.910821" y="68.076973" fill="rgb(12,12,255)"  stroke="rgb(12,12,255)" stroke-width="1" font-size="16" >N</text>
<text x="311.821642" y="68.076973" fill="rgb(102,102,102)"  stroke="rgb(102,102,102)" stroke-width="1" font-size="16" >CH</text>
<text x="104.331841" y="125.109331" fill="rgb(255,12,12)"  stroke="rgb(255,12,12)" stroke-width="1" font-size="16" >_</text>
<text x="93.531841" y="147.221331" fill="rgb(255,12,12)"  stroke="rgb(255,12,12)" stroke-width="1" font-size="16" >O</text>
<text x="93.531841" y="218.091658" fill="rgb(255,12,12)"  stroke="rgb(255,12,12)" stroke-width="1" font-size="16" >O</text>
<text x="212.600311" y="107.531841" fill="rgb(255,12,12)"  stroke="rgb(255,12,12)" stroke-width="1" font-size="16" >O</text>
<text font-size="18.000000" fill ="black" font-family="sans-serif"
x="10.000000" y="20.000000" ></text>
<title> - OBDepict</title>
</svg>
