<?xml version="1.0"?>
<svg xmlns="http://www.w3.org/2000/svg"
xmlns:xlink="http://www.w3.org/1999/xlink" xmlns:cml="http://www.xml-cml.org/schema" width="441.327" height="430.479" x="0" y="0" font-family="sans-serif" stroke="rgb(0,0,0)" stroke-width="1"  stroke-linecap="round">
<rect x="0%" y="0%" width="100%" height="100%" stroke-width="0" fill="rgb(255,255,255)"  />
<line x1="180.2" y1="229.3" x2="220.3" y2="192.6" stroke="rgb(0,0,0)"  stroke-width="1.0"/>
<line x1="180.2" y1="229.3" x2="166.7" y2="199.8" stroke="rgb(0,0,0)"  stroke-width="1.0"/>
<line x1="202.3" y1="256.6" x2="227.3" y2="258.7" stroke="rgb(0,0,0)"  stroke-width="1.0"/>
<line x1="201.8" y1="262.5" x2="226.8" y2="264.7" stroke="rgb(0,0,0)"  stroke-width="1.0"/>
<line x1="220.3" y1="192.6" x2="266.2" y2="200.9" stroke="rgb(0,0,0)"  stroke-width="1.0"/>
<line x1="184.5" y1="305.6" x2="193.4" y2="330.4" stroke="rgb(0,0,0)"  stroke-width="1.0"/>
<line x1="266.2" y1="200.9" x2="290.3" y2="169.7" stroke="rgb(0,0,0)"  stroke-width="1.0"/>
<line x1="268.9" y1="199.7" x2="276.6" y2="215.8" stroke="rgb(0,0,0)"  stroke-width="1.0"/>
<line x1="263.5" y1="202.2" x2="271.2" y2="218.3" stroke="rgb(0,0,0)"  stroke-width="1.0"/>
<line x1="74.2" y1="241.8" x2="51.3" y2="228.6" stroke="rgb(0,0,0)"  stroke-width="1.0"/>
<line x1="193.4" y1="330.4" x2="167.9" y2="360.5" stroke="rgb(0,0,0)"  stroke-width="1.0"/>
<line x1="167.9" y1="360.5" x2="150.8" y2="380.6" stroke="rgb(0,0,0)"  stroke-width="1.0"/>
<line x1="171.1" y1="363.2" x2="154.0" y2="383.3" stroke="rgb(0,0,0)"  stroke-width="1.0"/>
<line x1="164.7" y1="357.7" x2="147.6" y2="377.9" stroke="rgb(0,0,0)"  stroke-width="1.0"/>
<line x1="338.4" y1="107.5" x2="361.9" y2="76.0" stroke="rgb(0,0,0)"  stroke-width="1.0"/>
<line x1="361.9" y1="76.0" x2="388.5" y2="79.9" stroke="rgb(0,0,0)"  stroke-width="1.0"/>
<line x1="361.9" y1="76.0" x2="352.2" y2="52.0" stroke="rgb(0,0,0)"  stroke-width="1.0"/>
<line x1="180.2" y1="229.3" x2="142.4" y2="241.8" stroke="rgb(0,0,0)"  stroke-width="1.0"/>
<line x1="142.4" y1="241.8" x2="142.4" y2="281.3" stroke="rgb(0,0,0)"  stroke-width="1.0"/>
<line x1="149.6" y1="247.8" x2="149.6" y2="275.3" stroke="rgb(0,0,0)"  stroke-width="1.0"/>
<line x1="142.4" y1="281.3" x2="167.8" y2="289.4" stroke="rgb(0,0,0)"  stroke-width="1.0"/>
<line x1="187.2" y1="282.5" x2="202.0" y2="259.5" stroke="rgb(0,0,0)"  stroke-width="1.0"/>
<line x1="202.0" y1="259.5" x2="180.2" y2="229.3" stroke="rgb(0,0,0)"  stroke-width="1.0"/>
<line x1="108.2" y1="300.8" x2="142.4" y2="281.3" stroke="rgb(0,0,0)"  stroke-width="1.0"/>
<line x1="142.4" y1="241.8" x2="108.2" y2="221.9" stroke="rgb(0,0,0)"  stroke-width="1.0"/>
<line x1="108.2" y1="221.9" x2="74.2" y2="241.8" stroke="rgb(0,0,0)"  stroke-width="1.0"/>
<line x1="106.6" y1="231.2" x2="83.0" y2="245.0" stroke="rgb(0,0,0)"  stroke-width="1.0"/>
<line x1="74.2" y1="241.8" x2="74.2" y2="281.3" stroke="rgb(0,0,0)"  stroke-width="1.0"/>
<line x1="74.2" y1="281.3" x2="108.2" y2="300.8" stroke="rgb(0,0,0)"  stroke-width="1.0"/>
<line x1="83.0" y1="278.0" x2="106.6" y2="291.5" stroke="rgb(0,0,0)"  stroke-width="1.0"/>
<line x1="290.3" y1="169.7" x2="275.3" y2="133.5" stroke="rgb(0,0,0)"  stroke-width="1.0"/>
<line x1="294.6" y1="161.4" x2="284.2" y2="136.3" stroke="rgb(0,0,0)"  stroke-width="1.0"/>
<line x1="275.3" y1="133.5" x2="299.0" y2="102.2" stroke="rgb(0,0,0)"  stroke-width="1.0"/>
<line x1="299.0" y1="102.2" x2="338.4" y2="107.5" stroke="rgb(0,0,0)"  stroke-width="1.0"/>
<line x1="304.0" y1="110.1" x2="331.5" y2="113.8" stroke="rgb(0,0,0)"  stroke-width="1.0"/>
<line x1="338.4" y1="107.5" x2="353.2" y2="144.0" stroke="rgb(0,0,0)"  stroke-width="1.0"/>
<line x1="353.2" y1="144.0" x2="329.2" y2="174.9" stroke="rgb(0,0,0)"  stroke-width="1.0"/>
<line x1="343.9" y1="144.3" x2="327.2" y2="165.8" stroke="rgb(0,0,0)"  stroke-width="1.0"/>
<line x1="329.2" y1="174.9" x2="290.3" y2="169.7" stroke="rgb(0,0,0)"  stroke-width="1.0"/>
<text x="143.346442" y="195.927682" fill="rgb(255,12,12)"  stroke="rgb(255,12,12)" stroke-width="1" font-size="16" >HO</text>
<text x="174.154328" y="301.364532" fill="rgb(12,12,255)"  stroke="rgb(12,12,255)" stroke-width="1" font-size="16" >N</text>
<text x="234.015835" y="270.796345" fill="rgb(255,12,12)"  stroke="rgb(255,12,12)" stroke-width="1" font-size="16" >O</text>
<text x="273.441253" y="236.804635" fill="rgb(255,12,12)"  stroke="rgb(255,12,12)" stroke-width="1" font-size="16" >O</text>
<text x="22.000000" y="230.110383" fill="rgb(165,40,40)"  stroke="rgb(165,40,40)" stroke-width="1" font-size="16" >Br</text>
<text x="124.357113" y="398.478929" fill="rgb(102,102,102)"  stroke="rgb(102,102,102)" stroke-width="1" font-size="16" >HC</text>
<text x="397.327245" y="89.774613" fill="rgb(102,102,102)"  stroke="rgb(102,102,102)" stroke-width="1" font-size="16" >CH</text>
<text x="421.327245" y="93.454613" fill="rgb(102,102,102)"  stroke="rgb(102,102,102)" stroke-width="1" font-size="13" >3</text>
<text x="321.257555" y="48.000000" fill="rgb(102,102,102)"  stroke="rgb(102,102,102)" stroke-width="1" font-size="16" >H</text>
<text x="333.257555" y="51.680000" fill="rgb(102,102,102)"  stroke="rgb(102,102,102)" stroke-width="1" font-size="13" >3</text>
<text x="339.757555" y="48.000000" fill="rgb(102,102,102)"  stroke="rgb(102,102,102)" stroke-width="1" font-size="16" >C</text>
<text font-size="18.000000" fill ="black" font-family="sans-serif"
x="10.000000" y="20.000000" ></text>
<title> - OBDepict</title>
</svg>
