<?xml version="1.0"?>
<svg xmlns="http://www.w3.org/2000/svg"
xmlns:xlink="http://www.w3.org/1999/xlink" xmlns:cml="http://www.xml-cml.org/schema" width="400.364" height="487.099" x="0" y="0" font-family="sans-serif" stroke="rgb(0,0,0)" stroke-width="1"  stroke-linecap="round">
<rect x="0%" y="0%" width="100%" height="100%" stroke-width="0" fill="rgb(255,255,255)"  />
<line x1="201.4" y1="367.1" x2="163.1" y2="379.4" stroke="rgb(0,0,0)"  stroke-width="1.0"/>
<line x1="199.6" y1="361.4" x2="161.3" y2="373.7" stroke="rgb(0,0,0)"  stroke-width="1.0"/>
<line x1="208.4" y1="324.9" x2="200.5" y2="364.2" stroke="rgb(0,0,0)"  stroke-width="1.0"/>
<line x1="231.6" y1="220.2" x2="225.4" y2="246.9" stroke="rgb(0,0,0)"  stroke-width="1.0"/>
<line x1="50.7" y1="324.9" x2="59.2" y2="364.2" stroke="rgb(0,0,0)"  stroke-width="1.0"/>
<line x1="43.5" y1="298.5" x2="50.7" y2="324.9" stroke="rgb(0,0,0)"  stroke-width="1.0"/>
<line x1="47.5" y1="297.4" x2="54.8" y2="323.8" stroke="rgb(0,0,0)"  stroke-width="1.0"/>
<line x1="39.4" y1="299.7" x2="46.7" y2="326.0" stroke="rgb(0,0,0)"  stroke-width="1.0"/>
<line x1="91.3" y1="434.9" x2="107.3" y2="413.1" stroke="rgb(0,0,0)"  stroke-width="1.0"/>
<line x1="96.1" y1="438.4" x2="112.1" y2="416.7" stroke="rgb(0,0,0)"  stroke-width="1.0"/>
<line x1="132.5" y1="325.7" x2="132.8" y2="352.8" stroke="rgb(0,0,0)"  stroke-width="1.0"/>
<line x1="126.5" y1="325.8" x2="126.8" y2="352.9" stroke="rgb(0,0,0)"  stroke-width="1.0"/>
<line x1="59.2" y1="364.2" x2="84.8" y2="372.5" stroke="rgb(0,0,0)"  stroke-width="1.0"/>
<line x1="322.7" y1="287.6" x2="292.9" y2="260.9" stroke="rgb(0,0,0)"  stroke-width="1.0"/>
<line x1="349.0" y1="282.0" x2="323.6" y2="290.5" stroke="rgb(0,0,0)"  stroke-width="1.0"/>
<line x1="347.1" y1="276.3" x2="321.7" y2="284.8" stroke="rgb(0,0,0)"  stroke-width="1.0"/>
<line x1="272.2" y1="195.4" x2="246.9" y2="203.6" stroke="rgb(0,0,0)"  stroke-width="1.0"/>
<line x1="167.9" y1="240.8" x2="187.1" y2="258.6" stroke="rgb(0,0,0)"  stroke-width="1.0"/>
<line x1="281.1" y1="156.5" x2="272.2" y2="195.4" stroke="rgb(0,0,0)"  stroke-width="1.0"/>
<line x1="292.9" y1="260.9" x2="255.2" y2="273.8" stroke="rgb(0,0,0)"  stroke-width="1.0"/>
<line x1="304.6" y1="52.7" x2="298.8" y2="78.5" stroke="rgb(0,0,0)"  stroke-width="1.0"/>
<line x1="132.6" y1="240.1" x2="146.0" y2="235.9" stroke="rgb(0,0,0)"  stroke-width="1.0"/>
<line x1="107.7" y1="368.9" x2="129.8" y2="352.9" stroke="rgb(0,0,0)"  stroke-width="1.0"/>
<line x1="129.8" y1="352.9" x2="162.2" y2="376.6" stroke="rgb(0,0,0)"  stroke-width="1.0"/>
<line x1="162.2" y1="376.6" x2="153.8" y2="402.5" stroke="rgb(0,0,0)"  stroke-width="1.0"/>
<line x1="136.8" y1="414.9" x2="109.7" y2="414.9" stroke="rgb(0,0,0)"  stroke-width="1.0"/>
<line x1="109.7" y1="414.9" x2="101.2" y2="388.9" stroke="rgb(0,0,0)"  stroke-width="1.0"/>
<line x1="187.1" y1="258.6" x2="225.4" y2="246.9" stroke="rgb(0,0,0)"  stroke-width="1.0"/>
<line x1="195.0" y1="263.8" x2="221.8" y2="255.5" stroke="rgb(0,0,0)"  stroke-width="1.0"/>
<line x1="225.4" y1="246.9" x2="255.2" y2="273.8" stroke="rgb(0,0,0)"  stroke-width="1.0"/>
<line x1="255.2" y1="273.8" x2="246.5" y2="312.7" stroke="rgb(0,0,0)"  stroke-width="1.0"/>
<line x1="246.9" y1="278.1" x2="240.8" y2="305.3" stroke="rgb(0,0,0)"  stroke-width="1.0"/>
<line x1="246.5" y1="312.7" x2="208.4" y2="324.9" stroke="rgb(0,0,0)"  stroke-width="1.0"/>
<line x1="208.4" y1="324.9" x2="179.0" y2="298.2" stroke="rgb(0,0,0)"  stroke-width="1.0"/>
<line x1="208.8" y1="315.5" x2="188.3" y2="296.9" stroke="rgb(0,0,0)"  stroke-width="1.0"/>
<line x1="179.0" y1="298.2" x2="187.1" y2="258.6" stroke="rgb(0,0,0)"  stroke-width="1.0"/>
<line x1="281.1" y1="156.5" x2="319.0" y2="144.4" stroke="rgb(0,0,0)"  stroke-width="1.0"/>
<line x1="284.6" y1="147.8" x2="311.1" y2="139.3" stroke="rgb(0,0,0)"  stroke-width="1.0"/>
<line x1="319.0" y1="144.4" x2="328.1" y2="106.3" stroke="rgb(0,0,0)"  stroke-width="1.0"/>
<line x1="328.1" y1="106.3" x2="298.8" y2="78.5" stroke="rgb(0,0,0)"  stroke-width="1.0"/>
<line x1="318.8" y1="107.4" x2="298.2" y2="87.9" stroke="rgb(0,0,0)"  stroke-width="1.0"/>
<line x1="298.8" y1="78.5" x2="260.1" y2="91.1" stroke="rgb(0,0,0)"  stroke-width="1.0"/>
<line x1="260.1" y1="91.1" x2="251.5" y2="129.6" stroke="rgb(0,0,0)"  stroke-width="1.0"/>
<line x1="265.8" y1="98.5" x2="259.9" y2="125.3" stroke="rgb(0,0,0)"  stroke-width="1.0"/>
<line x1="251.5" y1="129.6" x2="281.1" y2="156.5" stroke="rgb(0,0,0)"  stroke-width="1.0"/>
<text x="91.139338" y="384.581031" fill="rgb(12,12,255)"  stroke="rgb(12,12,255)" stroke-width="1" font-size="16" >N</text>
<text x="143.823992" y="422.877732" fill="rgb(178,178,0)"  stroke="rgb(178,178,0)" stroke-width="1" font-size="16" >S</text>
<text x="228.526085" y="215.584463" fill="rgb(255,12,12)"  stroke="rgb(255,12,12)" stroke-width="1" font-size="16" >O</text>
<text x="22.000000" y="294.002442" fill="rgb(102,102,102)"  stroke="rgb(102,102,102)" stroke-width="1" font-size="16" >HC</text>
<text x="79.992921" y="455.098981" fill="rgb(255,12,12)"  stroke="rgb(255,12,12)" stroke-width="1" font-size="16" >O</text>
<text x="123.360587" y="320.749961" fill="rgb(255,12,12)"  stroke="rgb(255,12,12)" stroke-width="1" font-size="16" >O</text>
<text x="356.363649" y="283.059834" fill="rgb(102,102,102)"  stroke="rgb(102,102,102)" stroke-width="1" font-size="16" >CH</text>
<text x="380.363649" y="286.739834" fill="rgb(102,102,102)"  stroke="rgb(102,102,102)" stroke-width="1" font-size="13" >2</text>
<text x="152.335448" y="239.900830" fill="rgb(255,12,12)"  stroke="rgb(255,12,12)" stroke-width="1" font-size="16" >O</text>
<text x="301.475187" y="48.000000" fill="rgb(127,178,255)"  stroke="rgb(127,178,255)" stroke-width="1" font-size="16" >F</text>
<text x="94.242556" y="252.056587" fill="rgb(102,102,102)"  stroke="rgb(102,102,102)" stroke-width="1" font-size="16" >H</text>
<text x="106.242556" y="255.736587" fill="rgb(102,102,102)"  stroke="rgb(102,102,102)" stroke-width="1" font-size="13" >3</text>
<text x="112.742556" y="252.056587" fill="rgb(102,102,102)"  stroke="rgb(102,102,102)" stroke-width="1" font-size="16" >C</text>
<text font-size="18.000000" fill ="black" font-family="sans-serif"
x="10.000000" y="20.000000" ></text>
<title> - OBDepict</title>
</svg>
