<?xml version="1.0"?>
<svg xmlns="http://www.w3.org/2000/svg"
xmlns:xlink="http://www.w3.org/1999/xlink" xmlns:cml="http://www.xml-cml.org/schema" width="425.931" height="319.932" x="0" y="0" font-family="sans-serif" stroke="rgb(0,0,0)" stroke-width="1"  stroke-linecap="round">
<rect x="0%" y="0%" width="100%" height="100%" stroke-width="0" fill="rgb(255,255,255)"  />
<line x1="212.9" y1="159.9" x2="213.2" y2="199.7" stroke="rgb(0,0,0)"  stroke-width="1.0"/>
<line x1="247.3" y1="140.0" x2="270.6" y2="153.3" stroke="rgb(0,0,0)"  stroke-width="1.0"/>
<line x1="178.6" y1="219.7" x2="143.7" y2="200.0" stroke="rgb(0,0,0)"  stroke-width="1.0"/>
<line x1="247.3" y1="99.9" x2="270.7" y2="86.4" stroke="rgb(0,0,0)"  stroke-width="1.0"/>
<line x1="293.1" y1="153.1" x2="316.4" y2="139.3" stroke="rgb(0,0,0)"  stroke-width="1.0"/>
<line x1="178.6" y1="259.9" x2="154.9" y2="273.5" stroke="rgb(0,0,0)"  stroke-width="1.0"/>
<line x1="143.7" y1="200.0" x2="120.5" y2="213.4" stroke="rgb(0,0,0)"  stroke-width="1.0"/>
<line x1="140.7" y1="200.0" x2="140.7" y2="172.9" stroke="rgb(0,0,0)"  stroke-width="1.0"/>
<line x1="146.7" y1="200.0" x2="146.7" y2="172.9" stroke="rgb(0,0,0)"  stroke-width="1.0"/>
<line x1="249.5" y1="257.3" x2="272.7" y2="270.8" stroke="rgb(0,0,0)"  stroke-width="1.0"/>
<line x1="246.5" y1="262.5" x2="269.7" y2="276.0" stroke="rgb(0,0,0)"  stroke-width="1.0"/>
<line x1="281.9" y1="67.0" x2="281.9" y2="53.0" stroke="rgb(0,0,0)"  stroke-width="1.0"/>
<line x1="316.4" y1="139.3" x2="351.3" y2="159.4" stroke="rgb(0,0,0)"  stroke-width="1.0"/>
<line x1="97.9" y1="213.4" x2="74.6" y2="200.0" stroke="rgb(0,0,0)"  stroke-width="1.0"/>
<line x1="351.3" y1="159.4" x2="374.7" y2="145.8" stroke="rgb(0,0,0)"  stroke-width="1.0"/>
<line x1="349.2" y1="155.7" x2="372.6" y2="142.2" stroke="rgb(0,0,0)"  stroke-width="1.0"/>
<line x1="353.4" y1="163.0" x2="376.8" y2="149.5" stroke="rgb(0,0,0)"  stroke-width="1.0"/>
<line x1="74.6" y1="200.0" x2="51.3" y2="213.4" stroke="rgb(0,0,0)"  stroke-width="1.0"/>
<line x1="212.9" y1="159.9" x2="178.3" y2="140.0" stroke="rgb(0,0,0)"  stroke-width="1.0"/>
<line x1="178.3" y1="140.0" x2="178.1" y2="100.4" stroke="rgb(0,0,0)"  stroke-width="1.0"/>
<line x1="185.4" y1="134.0" x2="185.3" y2="106.3" stroke="rgb(0,0,0)"  stroke-width="1.0"/>
<line x1="178.1" y1="100.4" x2="212.9" y2="80.0" stroke="rgb(0,0,0)"  stroke-width="1.0"/>
<line x1="212.9" y1="80.0" x2="247.3" y2="99.9" stroke="rgb(0,0,0)"  stroke-width="1.0"/>
<line x1="214.5" y1="89.2" x2="238.5" y2="103.1" stroke="rgb(0,0,0)"  stroke-width="1.0"/>
<line x1="247.3" y1="99.9" x2="247.3" y2="140.0" stroke="rgb(0,0,0)"  stroke-width="1.0"/>
<line x1="247.3" y1="140.0" x2="212.9" y2="159.9" stroke="rgb(0,0,0)"  stroke-width="1.0"/>
<line x1="238.5" y1="136.8" x2="214.5" y2="150.6" stroke="rgb(0,0,0)"  stroke-width="1.0"/>
<line x1="213.2" y1="199.7" x2="236.7" y2="213.2" stroke="rgb(0,0,0)"  stroke-width="1.0"/>
<line x1="248.0" y1="232.7" x2="248.0" y2="259.9" stroke="rgb(0,0,0)"  stroke-width="1.0"/>
<line x1="248.0" y1="259.9" x2="224.5" y2="273.4" stroke="rgb(0,0,0)"  stroke-width="1.0"/>
<line x1="202.0" y1="273.4" x2="178.6" y2="259.9" stroke="rgb(0,0,0)"  stroke-width="1.0"/>
<line x1="178.6" y1="259.9" x2="178.6" y2="219.7" stroke="rgb(0,0,0)"  stroke-width="1.0"/>
<line x1="185.8" y1="253.9" x2="185.8" y2="225.7" stroke="rgb(0,0,0)"  stroke-width="1.0"/>
<line x1="178.6" y1="219.7" x2="213.2" y2="199.7" stroke="rgb(0,0,0)"  stroke-width="1.0"/>
<text x="241.993068" y="227.739254" fill="rgb(12,12,255)"  stroke="rgb(12,12,255)" stroke-width="1" font-size="16" >NH</text>
<text x="275.934495" y="167.716264" fill="rgb(255,12,12)"  stroke="rgb(255,12,12)" stroke-width="1" font-size="16" >O</text>
<text x="275.934495" y="87.963607" fill="rgb(255,12,12)"  stroke="rgb(255,12,12)" stroke-width="1" font-size="16" >O</text>
<text x="207.217651" y="287.931951" fill="rgb(12,12,255)"  stroke="rgb(12,12,255)" stroke-width="1" font-size="16" >N</text>
<text x="207.217651" y="303.931951" fill="rgb(12,12,255)"  stroke="rgb(12,12,255)" stroke-width="1" font-size="16" >H</text>
<text x="117.661968" y="287.931951" fill="rgb(102,102,102)"  stroke="rgb(102,102,102)" stroke-width="1" font-size="16" >H</text>
<text x="129.661968" y="291.611951" fill="rgb(102,102,102)"  stroke="rgb(102,102,102)" stroke-width="1" font-size="13" >3</text>
<text x="136.161968" y="287.931951" fill="rgb(102,102,102)"  stroke="rgb(102,102,102)" stroke-width="1" font-size="16" >C</text>
<text x="103.216268" y="227.908961" fill="rgb(255,12,12)"  stroke="rgb(255,12,12)" stroke-width="1" font-size="16" >O</text>
<text x="137.661968" y="167.881122" fill="rgb(255,12,12)"  stroke="rgb(255,12,12)" stroke-width="1" font-size="16" >O</text>
<text x="276.438768" y="287.931951" fill="rgb(255,12,12)"  stroke="rgb(255,12,12)" stroke-width="1" font-size="16" >O</text>
<text x="277.934495" y="48.000000" fill="rgb(102,102,102)"  stroke="rgb(102,102,102)" stroke-width="1" font-size="16" >CH</text>
<text x="301.934495" y="51.680000" fill="rgb(102,102,102)"  stroke="rgb(102,102,102)" stroke-width="1" font-size="13" >3</text>
<text x="379.931029" y="147.317466" fill="rgb(102,102,102)"  stroke="rgb(102,102,102)" stroke-width="1" font-size="16" >CH</text>
<text x="14.000000" y="227.908961" fill="rgb(102,102,102)"  stroke="rgb(102,102,102)" stroke-width="1" font-size="16" >H</text>
<text x="26.000000" y="231.588961" fill="rgb(102,102,102)"  stroke="rgb(102,102,102)" stroke-width="1" font-size="13" >3</text>
<text x="32.500000" y="227.908961" fill="rgb(102,102,102)"  stroke="rgb(102,102,102)" stroke-width="1" font-size="16" >C</text>
<text font-size="18.000000" fill ="black" font-family="sans-serif"
x="10.000000" y="20.000000" ></text>
<title> - OBDepict</title>
</svg>
