<?xml version="1.0"?>
<svg xmlns="http://www.w3.org/2000/svg"
xmlns:xlink="http://www.w3.org/1999/xlink" xmlns:cml="http://www.xml-cml.org/schema" width="347.383" height="357.102" x="0" y="0" font-family="sans-serif" stroke="rgb(0,0,0)" stroke-width="1"  stroke-linecap="round">
<rect x="0%" y="0%" width="100%" height="100%" stroke-width="0" fill="rgb(255,255,255)"  />
<line x1="141.9" y1="147.0" x2="127.8" y2="170.5" stroke="rgb(0,0,0)"  stroke-width="1.0"/>
<line x1="141.9" y1="147.0" x2="121.8" y2="111.2" stroke="rgb(0,0,0)"  stroke-width="1.0"/>
<line x1="141.9" y1="147.0" x2="182.8" y2="147.3" stroke="rgb(0,0,0)"  stroke-width="1.0"/>
<line x1="127.4" y1="192.9" x2="141.1" y2="217.4" stroke="rgb(0,0,0)"  stroke-width="1.0"/>
<line x1="108.0" y1="181.6" x2="80.2" y2="181.5" stroke="rgb(0,0,0)"  stroke-width="1.0"/>
<line x1="182.8" y1="147.3" x2="196.9" y2="123.1" stroke="rgb(0,0,0)"  stroke-width="1.0"/>
<line x1="185.3" y1="145.8" x2="193.0" y2="159.0" stroke="rgb(0,0,0)"  stroke-width="1.0"/>
<line x1="180.2" y1="148.8" x2="187.8" y2="162.0" stroke="rgb(0,0,0)"  stroke-width="1.0"/>
<line x1="141.1" y1="217.4" x2="120.4" y2="252.7" stroke="rgb(0,0,0)"  stroke-width="1.0"/>
<line x1="80.2" y1="181.5" x2="60.1" y2="146.0" stroke="rgb(0,0,0)"  stroke-width="1.0"/>
<line x1="82.8" y1="183.0" x2="68.6" y2="207.0" stroke="rgb(0,0,0)"  stroke-width="1.0"/>
<line x1="77.6" y1="180.0" x2="63.5" y2="204.0" stroke="rgb(0,0,0)"  stroke-width="1.0"/>
<line x1="142.6" y1="75.9" x2="158.1" y2="76.0" stroke="rgb(0,0,0)"  stroke-width="1.0"/>
<line x1="216.5" y1="112.0" x2="244.4" y2="112.3" stroke="rgb(0,0,0)"  stroke-width="1.0"/>
<line x1="60.1" y1="146.0" x2="46.4" y2="121.9" stroke="rgb(0,0,0)"  stroke-width="1.0"/>
<line x1="56.4" y1="148.1" x2="42.8" y2="124.0" stroke="rgb(0,0,0)"  stroke-width="1.0"/>
<line x1="63.8" y1="144.0" x2="50.1" y2="119.8" stroke="rgb(0,0,0)"  stroke-width="1.0"/>
<line x1="120.4" y1="252.7" x2="79.9" y2="256.5" stroke="rgb(0,0,0)"  stroke-width="1.0"/>
<line x1="115.1" y1="260.4" x2="86.6" y2="263.1" stroke="rgb(0,0,0)"  stroke-width="1.0"/>
<line x1="79.9" y1="256.5" x2="71.0" y2="296.3" stroke="rgb(0,0,0)"  stroke-width="1.0"/>
<line x1="71.0" y1="296.3" x2="106.3" y2="317.1" stroke="rgb(0,0,0)"  stroke-width="1.0"/>
<line x1="79.9" y1="293.2" x2="104.8" y2="307.9" stroke="rgb(0,0,0)"  stroke-width="1.0"/>
<line x1="106.3" y1="317.1" x2="127.0" y2="298.7" stroke="rgb(0,0,0)"  stroke-width="1.0"/>
<line x1="131.5" y1="278.2" x2="120.4" y2="252.7" stroke="rgb(0,0,0)"  stroke-width="1.0"/>
<line x1="244.4" y1="112.3" x2="268.5" y2="79.3" stroke="rgb(0,0,0)"  stroke-width="1.0"/>
<line x1="268.5" y1="79.3" x2="307.4" y2="92.3" stroke="rgb(0,0,0)"  stroke-width="1.0"/>
<line x1="307.4" y1="92.3" x2="307.0" y2="133.3" stroke="rgb(0,0,0)"  stroke-width="1.0"/>
<line x1="307.0" y1="133.3" x2="268.1" y2="145.6" stroke="rgb(0,0,0)"  stroke-width="1.0"/>
<line x1="268.1" y1="145.6" x2="244.4" y2="112.3" stroke="rgb(0,0,0)"  stroke-width="1.0"/>
<line x1="121.8" y1="111.2" x2="80.9" y2="110.9" stroke="rgb(0,0,0)"  stroke-width="1.0"/>
<line x1="80.9" y1="110.9" x2="60.9" y2="75.2" stroke="rgb(0,0,0)"  stroke-width="1.0"/>
<line x1="84.2" y1="102.1" x2="70.1" y2="76.9" stroke="rgb(0,0,0)"  stroke-width="1.0"/>
<line x1="60.9" y1="75.2" x2="81.4" y2="40.0" stroke="rgb(0,0,0)"  stroke-width="1.0"/>
<line x1="81.4" y1="40.0" x2="122.4" y2="40.4" stroke="rgb(0,0,0)"  stroke-width="1.0"/>
<line x1="87.4" y1="47.3" x2="116.3" y2="47.5" stroke="rgb(0,0,0)"  stroke-width="1.0"/>
<line x1="122.4" y1="40.4" x2="142.6" y2="75.9" stroke="rgb(0,0,0)"  stroke-width="1.0"/>
<line x1="142.6" y1="75.9" x2="121.8" y2="111.2" stroke="rgb(0,0,0)"  stroke-width="1.0"/>
<line x1="133.3" y1="77.5" x2="118.6" y2="102.4" stroke="rgb(0,0,0)"  stroke-width="1.0"/>
<text x="115.047601" y="189.616470" fill="rgb(12,12,255)"  stroke="rgb(12,12,255)" stroke-width="1" font-size="16" >N</text>
<text x="197.507698" y="119.893628" fill="rgb(12,12,255)"  stroke="rgb(12,12,255)" stroke-width="1" font-size="16" >N</text>
<text x="197.507698" y="103.893628" fill="rgb(12,12,255)"  stroke="rgb(12,12,255)" stroke-width="1" font-size="16" >H</text>
<text x="190.901176" y="179.709166" fill="rgb(255,12,12)"  stroke="rgb(255,12,12)" stroke-width="1" font-size="16" >O</text>
<text x="53.437943" y="224.715786" fill="rgb(255,12,12)"  stroke="rgb(255,12,12)" stroke-width="1" font-size="16" >O</text>
<text x="165.144167" y="84.135147" fill="rgb(127,178,255)"  stroke="rgb(127,178,255)" stroke-width="1" font-size="16" >F</text>
<text x="130.708973" y="298.116077" fill="rgb(255,12,12)"  stroke="rgb(255,12,12)" stroke-width="1" font-size="16" >O</text>
<text x="22.000000" y="118.575297" fill="rgb(102,102,102)"  stroke="rgb(102,102,102)" stroke-width="1" font-size="16" >HC</text>
<text font-size="18.000000" fill ="black" font-family="sans-serif"
x="10.000000" y="20.000000" ></text>
<title> - OBDepict</title>
</svg>
