<?xml version="1.0"?>
<svg xmlns="http://www.w3.org/2000/svg"
xmlns:xlink="http://www.w3.org/1999/xlink" xmlns:cml="http://www.xml-cml.org/schema" width="467.648" height="315.135" x="0" y="0" font-family="sans-serif" stroke="rgb(0,0,0)" stroke-width="1"  stroke-linecap="round">
<rect x="0%" y="0%" width="100%" height="100%" stroke-width="0" fill="rgb(255,255,255)"  />
<line x1="105.9" y1="199.0" x2="118.2" y2="161.0" stroke="rgb(0,0,0)"  stroke-width="1.0"/>
<line x1="225.2" y1="101.4" x2="188.7" y2="85.2" stroke="rgb(0,0,0)"  stroke-width="1.0"/>
<line x1="188.7" y1="85.2" x2="156.4" y2="108.7" stroke="rgb(0,0,0)"  stroke-width="1.0"/>
<line x1="395.3" y1="63.4" x2="363.0" y2="86.9" stroke="rgb(0,0,0)"  stroke-width="1.0"/>
<line x1="417.1" y1="47.6" x2="395.3" y2="63.4" stroke="rgb(0,0,0)"  stroke-width="1.0"/>
<line x1="419.6" y1="51.0" x2="397.8" y2="66.8" stroke="rgb(0,0,0)"  stroke-width="1.0"/>
<line x1="414.7" y1="44.2" x2="392.9" y2="60.0" stroke="rgb(0,0,0)"  stroke-width="1.0"/>
<line x1="247.0" y1="85.6" x2="225.2" y2="101.4" stroke="rgb(0,0,0)"  stroke-width="1.0"/>
<line x1="225.0" y1="128.6" x2="222.3" y2="101.7" stroke="rgb(0,0,0)"  stroke-width="1.0"/>
<line x1="230.9" y1="128.0" x2="228.2" y2="101.1" stroke="rgb(0,0,0)"  stroke-width="1.0"/>
<line x1="294.1" y1="94.1" x2="269.5" y2="83.2" stroke="rgb(0,0,0)"  stroke-width="1.0"/>
<line x1="48.7" y1="187.3" x2="66.7" y2="207.5" stroke="rgb(0,0,0)"  stroke-width="1.0"/>
<line x1="118.2" y1="161.0" x2="102.4" y2="139.2" stroke="rgb(0,0,0)"  stroke-width="1.0"/>
<line x1="102.4" y1="118.2" x2="118.2" y2="96.4" stroke="rgb(0,0,0)"  stroke-width="1.0"/>
<line x1="118.2" y1="96.4" x2="156.4" y2="108.7" stroke="rgb(0,0,0)"  stroke-width="1.0"/>
<line x1="121.7" y1="105.1" x2="148.4" y2="113.7" stroke="rgb(0,0,0)"  stroke-width="1.0"/>
<line x1="156.4" y1="108.7" x2="156.4" y2="135.7" stroke="rgb(0,0,0)"  stroke-width="1.0"/>
<line x1="143.8" y1="152.7" x2="118.2" y2="161.0" stroke="rgb(0,0,0)"  stroke-width="1.0"/>
<line x1="139.7" y1="146.5" x2="121.7" y2="152.3" stroke="rgb(0,0,0)"  stroke-width="1.0"/>
<line x1="105.9" y1="199.0" x2="132.7" y2="228.9" stroke="rgb(0,0,0)"  stroke-width="1.0"/>
<line x1="132.7" y1="228.9" x2="120.2" y2="266.9" stroke="rgb(0,0,0)"  stroke-width="1.0"/>
<line x1="124.0" y1="232.3" x2="115.2" y2="258.9" stroke="rgb(0,0,0)"  stroke-width="1.0"/>
<line x1="120.2" y1="266.9" x2="81.2" y2="275.1" stroke="rgb(0,0,0)"  stroke-width="1.0"/>
<line x1="81.2" y1="275.1" x2="54.3" y2="245.4" stroke="rgb(0,0,0)"  stroke-width="1.0"/>
<line x1="82.5" y1="265.9" x2="63.7" y2="245.1" stroke="rgb(0,0,0)"  stroke-width="1.0"/>
<line x1="54.3" y1="245.4" x2="66.7" y2="207.5" stroke="rgb(0,0,0)"  stroke-width="1.0"/>
<line x1="66.7" y1="207.5" x2="105.9" y2="199.0" stroke="rgb(0,0,0)"  stroke-width="1.0"/>
<line x1="74.1" y1="213.2" x2="101.5" y2="207.3" stroke="rgb(0,0,0)"  stroke-width="1.0"/>
<line x1="294.1" y1="94.1" x2="326.4" y2="70.7" stroke="rgb(0,0,0)"  stroke-width="1.0"/>
<line x1="303.2" y1="96.4" x2="325.8" y2="80.1" stroke="rgb(0,0,0)"  stroke-width="1.0"/>
<line x1="326.4" y1="70.7" x2="363.0" y2="86.9" stroke="rgb(0,0,0)"  stroke-width="1.0"/>
<line x1="363.0" y1="86.9" x2="367.3" y2="126.7" stroke="rgb(0,0,0)"  stroke-width="1.0"/>
<line x1="356.5" y1="93.6" x2="359.5" y2="121.5" stroke="rgb(0,0,0)"  stroke-width="1.0"/>
<line x1="367.3" y1="126.7" x2="334.7" y2="150.3" stroke="rgb(0,0,0)"  stroke-width="1.0"/>
<line x1="334.7" y1="150.3" x2="298.2" y2="133.9" stroke="rgb(0,0,0)"  stroke-width="1.0"/>
<line x1="332.2" y1="141.3" x2="306.6" y2="129.8" stroke="rgb(0,0,0)"  stroke-width="1.0"/>
<line x1="298.2" y1="133.9" x2="294.1" y2="94.1" stroke="rgb(0,0,0)"  stroke-width="1.0"/>
<text x="150.356010" y="156.678753" fill="rgb(12,12,255)"  stroke="rgb(12,12,255)" stroke-width="1" font-size="16" >N</text>
<text x="88.739233" y="136.681048" fill="rgb(178,178,0)"  stroke="rgb(178,178,0)" stroke-width="1" font-size="16" >S</text>
<text x="421.648188" y="48.000000" fill="rgb(102,102,102)"  stroke="rgb(102,102,102)" stroke-width="1" font-size="16" >CH</text>
<text x="251.561069" y="85.974313" fill="rgb(12,12,255)"  stroke="rgb(12,12,255)" stroke-width="1" font-size="16" >N</text>
<text x="251.561069" y="69.974313" fill="rgb(12,12,255)"  stroke="rgb(12,12,255)" stroke-width="1" font-size="16" >H</text>
<text x="223.275416" y="149.205059" fill="rgb(255,12,12)"  stroke="rgb(255,12,12)" stroke-width="1" font-size="16" >O</text>
<text x="22.000000" y="185.565403" fill="rgb(30,239,30)"  stroke="rgb(30,239,30)" stroke-width="1" font-size="16" >Cl</text>
<text font-size="18.000000" fill ="black" font-family="sans-serif"
x="10.000000" y="20.000000" ></text>
<title> - OBDepict</title>
</svg>
