<?xml version="1.0"?>
<svg xmlns="http://www.w3.org/2000/svg"
xmlns:xlink="http://www.w3.org/1999/xlink" xmlns:cml="http://www.xml-cml.org/schema" width="253.175" height="461.515" x="0" y="0" font-family="sans-serif" stroke="rgb(0,0,0)" stroke-width="1"  stroke-linecap="round">
<rect x="0%" y="0%" width="100%" height="100%" stroke-width="0" fill="rgb(255,255,255)"  />
<line x1="178.6" y1="200.0" x2="178.6" y2="240.1" stroke="rgb(0,0,0)"  stroke-width="1.0"/>
<line x1="178.6" y1="320.1" x2="178.6" y2="347.1" stroke="rgb(0,0,0)"  stroke-width="1.0"/>
<line x1="155.1" y1="186.5" x2="178.6" y2="200.0" stroke="rgb(0,0,0)"  stroke-width="1.0"/>
<line x1="74.6" y1="60.0" x2="109.3" y2="80.0" stroke="rgb(0,0,0)"  stroke-width="1.0"/>
<line x1="51.3" y1="46.5" x2="74.6" y2="60.0" stroke="rgb(0,0,0)"  stroke-width="1.0"/>
<line x1="53.4" y1="42.9" x2="76.7" y2="56.4" stroke="rgb(0,0,0)"  stroke-width="1.0"/>
<line x1="49.1" y1="50.1" x2="72.5" y2="63.6" stroke="rgb(0,0,0)"  stroke-width="1.0"/>
<line x1="203.4" y1="189.1" x2="180.1" y2="202.6" stroke="rgb(0,0,0)"  stroke-width="1.0"/>
<line x1="200.4" y1="184.0" x2="177.1" y2="197.4" stroke="rgb(0,0,0)"  stroke-width="1.0"/>
<line x1="143.9" y1="140.0" x2="143.9" y2="167.0" stroke="rgb(0,0,0)"  stroke-width="1.0"/>
<line x1="189.1" y1="367.7" x2="211.0" y2="383.5" stroke="rgb(0,0,0)"  stroke-width="1.0"/>
<line x1="211.0" y1="383.5" x2="202.7" y2="409.0" stroke="rgb(0,0,0)"  stroke-width="1.0"/>
<line x1="202.3" y1="387.0" x2="196.5" y2="404.8" stroke="rgb(0,0,0)"  stroke-width="1.0"/>
<line x1="185.6" y1="421.5" x2="158.6" y2="421.5" stroke="rgb(0,0,0)"  stroke-width="1.0"/>
<line x1="158.6" y1="421.5" x2="146.3" y2="383.5" stroke="rgb(0,0,0)"  stroke-width="1.0"/>
<line x1="163.6" y1="413.6" x2="155.0" y2="387.0" stroke="rgb(0,0,0)"  stroke-width="1.0"/>
<line x1="146.3" y1="383.5" x2="168.1" y2="367.7" stroke="rgb(0,0,0)"  stroke-width="1.0"/>
<line x1="178.6" y1="320.1" x2="143.9" y2="300.1" stroke="rgb(0,0,0)"  stroke-width="1.0"/>
<line x1="143.9" y1="300.1" x2="143.9" y2="260.1" stroke="rgb(0,0,0)"  stroke-width="1.0"/>
<line x1="151.1" y1="294.1" x2="151.1" y2="266.1" stroke="rgb(0,0,0)"  stroke-width="1.0"/>
<line x1="143.9" y1="260.1" x2="178.6" y2="240.1" stroke="rgb(0,0,0)"  stroke-width="1.0"/>
<line x1="178.6" y1="240.1" x2="213.2" y2="260.1" stroke="rgb(0,0,0)"  stroke-width="1.0"/>
<line x1="180.2" y1="249.3" x2="204.4" y2="263.3" stroke="rgb(0,0,0)"  stroke-width="1.0"/>
<line x1="213.2" y1="260.1" x2="213.2" y2="287.1" stroke="rgb(0,0,0)"  stroke-width="1.0"/>
<line x1="201.8" y1="306.7" x2="178.6" y2="320.1" stroke="rgb(0,0,0)"  stroke-width="1.0"/>
<line x1="196.4" y1="301.4" x2="180.2" y2="310.8" stroke="rgb(0,0,0)"  stroke-width="1.0"/>
<line x1="143.9" y1="140.0" x2="109.3" y2="120.0" stroke="rgb(0,0,0)"  stroke-width="1.0"/>
<line x1="142.3" y1="130.8" x2="118.1" y2="116.8" stroke="rgb(0,0,0)"  stroke-width="1.0"/>
<line x1="109.3" y1="120.0" x2="109.3" y2="80.0" stroke="rgb(0,0,0)"  stroke-width="1.0"/>
<line x1="109.3" y1="80.0" x2="143.9" y2="60.0" stroke="rgb(0,0,0)"  stroke-width="1.0"/>
<line x1="118.1" y1="83.2" x2="142.3" y2="69.2" stroke="rgb(0,0,0)"  stroke-width="1.0"/>
<line x1="143.9" y1="60.0" x2="178.6" y2="80.0" stroke="rgb(0,0,0)"  stroke-width="1.0"/>
<line x1="178.6" y1="80.0" x2="178.6" y2="120.0" stroke="rgb(0,0,0)"  stroke-width="1.0"/>
<line x1="171.4" y1="86.0" x2="171.4" y2="114.0" stroke="rgb(0,0,0)"  stroke-width="1.0"/>
<line x1="178.6" y1="120.0" x2="143.9" y2="140.0" stroke="rgb(0,0,0)"  stroke-width="1.0"/>
<text x="172.620310" y="368.083283" fill="rgb(12,12,255)"  stroke="rgb(12,12,255)" stroke-width="1" font-size="16" >N</text>
<text x="207.174755" y="308.067667" fill="rgb(12,12,255)"  stroke="rgb(12,12,255)" stroke-width="1" font-size="16" >N</text>
<text x="192.625515" y="429.515024" fill="rgb(12,12,255)"  stroke="rgb(12,12,255)" stroke-width="1" font-size="16" >N</text>
<text x="125.867025" y="188.036436" fill="rgb(12,12,255)"  stroke="rgb(12,12,255)" stroke-width="1" font-size="16" >HN</text>
<text x="22.000000" y="48.000000" fill="rgb(102,102,102)"  stroke="rgb(102,102,102)" stroke-width="1" font-size="16" >HC</text>
<text x="207.174755" y="188.036436" fill="rgb(255,12,12)"  stroke="rgb(255,12,12)" stroke-width="1" font-size="16" >O</text>
<text font-size="18.000000" fill ="black" font-family="sans-serif"
x="10.000000" y="20.000000" ></text>
<title> - OBDepict</title>
</svg>
