<?xml version="1.0"?>
<svg xmlns="http://www.w3.org/2000/svg"
xmlns:xlink="http://www.w3.org/1999/xlink" xmlns:cml="http://www.xml-cml.org/schema" width="544.591" height="247.251" x="0" y="0" font-family="sans-serif" stroke="rgb(0,0,0)" stroke-width="1"  stroke-linecap="round">
<rect x="0%" y="0%" width="100%" height="100%" stroke-width="0" fill="rgb(255,255,255)"  />
<line x1="275.0" y1="182.2" x2="242.1" y2="159.2" stroke="rgb(0,0,0)"  stroke-width="1.0"/>
<line x1="278.5" y1="177.3" x2="245.5" y2="154.3" stroke="rgb(0,0,0)"  stroke-width="1.0"/>
<line x1="311.1" y1="160.0" x2="276.7" y2="179.8" stroke="rgb(0,0,0)"  stroke-width="1.0"/>
<line x1="465.6" y1="146.5" x2="453.1" y2="108.5" stroke="rgb(0,0,0)"  stroke-width="1.0"/>
<line x1="491.9" y1="152.2" x2="465.6" y2="146.5" stroke="rgb(0,0,0)"  stroke-width="1.0"/>
<line x1="491.0" y1="156.3" x2="464.7" y2="150.6" stroke="rgb(0,0,0)"  stroke-width="1.0"/>
<line x1="492.8" y1="148.1" x2="466.5" y2="142.3" stroke="rgb(0,0,0)"  stroke-width="1.0"/>
<line x1="194.8" y1="194.0" x2="202.8" y2="168.6" stroke="rgb(0,0,0)"  stroke-width="1.0"/>
<line x1="200.5" y1="195.8" x2="208.5" y2="170.4" stroke="rgb(0,0,0)"  stroke-width="1.0"/>
<line x1="402.8" y1="173.5" x2="379.6" y2="160.0" stroke="rgb(0,0,0)"  stroke-width="1.0"/>
<line x1="402.8" y1="106.5" x2="379.6" y2="120.0" stroke="rgb(0,0,0)"  stroke-width="1.0"/>
<line x1="344.7" y1="73.4" x2="345.0" y2="100.4" stroke="rgb(0,0,0)"  stroke-width="1.0"/>
<line x1="453.1" y1="108.5" x2="426.8" y2="102.8" stroke="rgb(0,0,0)"  stroke-width="1.0"/>
<line x1="51.3" y1="138.4" x2="74.3" y2="125.2" stroke="rgb(0,0,0)"  stroke-width="1.0"/>
<line x1="51.3" y1="71.3" x2="74.3" y2="84.6" stroke="rgb(0,0,0)"  stroke-width="1.0"/>
<line x1="368.0" y1="46.6" x2="355.8" y2="53.8" stroke="rgb(0,0,0)"  stroke-width="1.0"/>
<line x1="205.6" y1="104.2" x2="189.9" y2="81.9" stroke="rgb(0,0,0)"  stroke-width="1.0"/>
<line x1="196.3" y1="103.5" x2="185.2" y2="87.6" stroke="rgb(0,0,0)"  stroke-width="1.0"/>
<line x1="170.0" y1="75.2" x2="143.4" y2="84.6" stroke="rgb(0,0,0)"  stroke-width="1.0"/>
<line x1="143.4" y1="84.6" x2="144.0" y2="125.2" stroke="rgb(0,0,0)"  stroke-width="1.0"/>
<line x1="144.0" y1="125.2" x2="169.8" y2="133.1" stroke="rgb(0,0,0)"  stroke-width="1.0"/>
<line x1="189.8" y1="126.4" x2="205.6" y2="104.2" stroke="rgb(0,0,0)"  stroke-width="1.0"/>
<line x1="243.8" y1="156.8" x2="205.6" y2="169.5" stroke="rgb(0,0,0)"  stroke-width="1.0"/>
<line x1="205.6" y1="169.5" x2="189.8" y2="147.5" stroke="rgb(0,0,0)"  stroke-width="1.0"/>
<line x1="205.6" y1="104.2" x2="231.5" y2="112.7" stroke="rgb(0,0,0)"  stroke-width="1.0"/>
<line x1="243.8" y1="129.8" x2="243.8" y2="156.8" stroke="rgb(0,0,0)"  stroke-width="1.0"/>
<line x1="379.6" y1="160.0" x2="379.6" y2="120.0" stroke="rgb(0,0,0)"  stroke-width="1.0"/>
<line x1="372.4" y1="154.0" x2="372.4" y2="126.0" stroke="rgb(0,0,0)"  stroke-width="1.0"/>
<line x1="379.6" y1="120.0" x2="345.0" y2="100.4" stroke="rgb(0,0,0)"  stroke-width="1.0"/>
<line x1="345.0" y1="100.4" x2="310.7" y2="120.0" stroke="rgb(0,0,0)"  stroke-width="1.0"/>
<line x1="343.4" y1="109.6" x2="319.5" y2="123.3" stroke="rgb(0,0,0)"  stroke-width="1.0"/>
<line x1="310.7" y1="120.0" x2="311.1" y2="160.0" stroke="rgb(0,0,0)"  stroke-width="1.0"/>
<line x1="311.1" y1="160.0" x2="345.2" y2="179.8" stroke="rgb(0,0,0)"  stroke-width="1.0"/>
<line x1="319.9" y1="156.8" x2="343.6" y2="170.5" stroke="rgb(0,0,0)"  stroke-width="1.0"/>
<line x1="345.2" y1="179.8" x2="379.6" y2="160.0" stroke="rgb(0,0,0)"  stroke-width="1.0"/>
<line x1="143.4" y1="84.6" x2="108.3" y2="64.8" stroke="rgb(0,0,0)"  stroke-width="1.0"/>
<line x1="134.7" y1="88.0" x2="110.0" y2="74.1" stroke="rgb(0,0,0)"  stroke-width="1.0"/>
<line x1="108.3" y1="64.8" x2="74.3" y2="84.6" stroke="rgb(0,0,0)"  stroke-width="1.0"/>
<line x1="74.3" y1="84.6" x2="74.3" y2="125.2" stroke="rgb(0,0,0)"  stroke-width="1.0"/>
<line x1="81.5" y1="90.6" x2="81.5" y2="119.2" stroke="rgb(0,0,0)"  stroke-width="1.0"/>
<line x1="74.3" y1="125.2" x2="108.3" y2="144.8" stroke="rgb(0,0,0)"  stroke-width="1.0"/>
<line x1="108.3" y1="144.8" x2="144.0" y2="125.2" stroke="rgb(0,0,0)"  stroke-width="1.0"/>
<line x1="110.1" y1="135.6" x2="135.3" y2="121.8" stroke="rgb(0,0,0)"  stroke-width="1.0"/>
<text x="176.205583" y="144.960992" fill="rgb(12,12,255)"  stroke="rgb(12,12,255)" stroke-width="1" font-size="16" >N</text>
<text x="176.205583" y="78.906891" fill="rgb(12,12,255)"  stroke="rgb(12,12,255)" stroke-width="1" font-size="16" >N</text>
<text x="237.811221" y="124.756550" fill="rgb(178,178,0)"  stroke="rgb(178,178,0)" stroke-width="1" font-size="16" >S</text>
<text x="498.590838" y="162.933942" fill="rgb(102,102,102)"  stroke="rgb(102,102,102)" stroke-width="1" font-size="16" >CH</text>
<text x="187.721244" y="215.250572" fill="rgb(255,12,12)"  stroke="rgb(255,12,12)" stroke-width="1" font-size="16" >O</text>
<text x="408.091975" y="187.983772" fill="rgb(30,239,30)"  stroke="rgb(30,239,30)" stroke-width="1" font-size="16" >Cl</text>
<text x="408.091975" y="107.993737" fill="rgb(255,12,12)"  stroke="rgb(255,12,12)" stroke-width="1" font-size="16" >O</text>
<text x="338.610767" y="68.402905" fill="rgb(255,12,12)"  stroke="rgb(255,12,12)" stroke-width="1" font-size="16" >O</text>
<text x="14.000000" y="152.836562" fill="rgb(102,102,102)"  stroke="rgb(102,102,102)" stroke-width="1" font-size="16" >H</text>
<text x="26.000000" y="156.516562" fill="rgb(102,102,102)"  stroke="rgb(102,102,102)" stroke-width="1" font-size="13" >3</text>
<text x="32.500000" y="152.836562" fill="rgb(102,102,102)"  stroke="rgb(102,102,102)" stroke-width="1" font-size="16" >C</text>
<text x="14.000000" y="72.846527" fill="rgb(102,102,102)"  stroke="rgb(102,102,102)" stroke-width="1" font-size="16" >H</text>
<text x="26.000000" y="76.526527" fill="rgb(102,102,102)"  stroke="rgb(102,102,102)" stroke-width="1" font-size="13" >3</text>
<text x="32.500000" y="72.846527" fill="rgb(102,102,102)"  stroke="rgb(102,102,102)" stroke-width="1" font-size="16" >C</text>
<text x="375.148068" y="48.000000" fill="rgb(102,102,102)"  stroke="rgb(102,102,102)" stroke-width="1" font-size="16" >CH</text>
<text x="399.148068" y="51.680000" fill="rgb(102,102,102)"  stroke="rgb(102,102,102)" stroke-width="1" font-size="13" >3</text>
<text font-size="18.000000" fill ="black" font-family="sans-serif"
x="10.000000" y="20.000000" ></text>
<title> - OBDepict</title>
</svg>
