<?xml version="1.0"?>
<svg xmlns="http://www.w3.org/2000/svg"
xmlns:xlink="http://www.w3.org/1999/xlink" xmlns:cml="http://www.xml-cml.org/schema" width="494.894" height="278.858" x="0" y="0" font-family="sans-serif" stroke="rgb(0,0,0)" stroke-width="1"  stroke-linecap="round">
<rect x="0%" y="0%" width="100%" height="100%" stroke-width="0" fill="rgb(255,255,255)"  />
<line x1="301.6" y1="112.4" x2="274.6" y2="112.1" stroke="rgb(0,0,0)"  stroke-width="1.0"/>
<line x1="301.7" y1="106.4" x2="274.7" y2="106.1" stroke="rgb(0,0,0)"  stroke-width="1.0"/>
<line x1="334.6" y1="75.0" x2="321.2" y2="98.3" stroke="rgb(0,0,0)"  stroke-width="1.0"/>
<line x1="374.7" y1="75.0" x2="334.6" y2="75.0" stroke="rgb(0,0,0)"  stroke-width="1.0"/>
<line x1="236.6" y1="209.1" x2="263.3" y2="179.4" stroke="rgb(0,0,0)"  stroke-width="1.0"/>
<line x1="218.6" y1="229.2" x2="236.6" y2="209.1" stroke="rgb(0,0,0)"  stroke-width="1.0"/>
<line x1="215.5" y1="226.4" x2="233.5" y2="206.3" stroke="rgb(0,0,0)"  stroke-width="1.0"/>
<line x1="221.8" y1="232.0" x2="239.8" y2="212.0" stroke="rgb(0,0,0)"  stroke-width="1.0"/>
<line x1="74.6" y1="88.9" x2="97.5" y2="75.5" stroke="rgb(0,0,0)"  stroke-width="1.0"/>
<line x1="120.0" y1="75.4" x2="143.9" y2="89.1" stroke="rgb(0,0,0)"  stroke-width="1.0"/>
<line x1="323.8" y1="50.1" x2="337.2" y2="73.5" stroke="rgb(0,0,0)"  stroke-width="1.0"/>
<line x1="318.6" y1="53.2" x2="332.1" y2="76.5" stroke="rgb(0,0,0)"  stroke-width="1.0"/>
<line x1="263.3" y1="179.4" x2="255.1" y2="153.6" stroke="rgb(0,0,0)"  stroke-width="1.0"/>
<line x1="52.8" y1="72.8" x2="76.1" y2="86.3" stroke="rgb(0,0,0)"  stroke-width="1.0"/>
<line x1="49.7" y1="78.0" x2="73.1" y2="91.5" stroke="rgb(0,0,0)"  stroke-width="1.0"/>
<line x1="380.8" y1="133.0" x2="394.7" y2="109.1" stroke="rgb(0,0,0)"  stroke-width="1.0"/>
<line x1="74.3" y1="115.9" x2="74.6" y2="88.9" stroke="rgb(0,0,0)"  stroke-width="1.0"/>
<line x1="274.6" y1="109.1" x2="258.8" y2="87.3" stroke="rgb(0,0,0)"  stroke-width="1.0"/>
<line x1="238.8" y1="80.8" x2="213.0" y2="89.1" stroke="rgb(0,0,0)"  stroke-width="1.0"/>
<line x1="213.0" y1="89.1" x2="213.0" y2="129.1" stroke="rgb(0,0,0)"  stroke-width="1.0"/>
<line x1="220.2" y1="95.1" x2="220.2" y2="123.1" stroke="rgb(0,0,0)"  stroke-width="1.0"/>
<line x1="213.0" y1="129.1" x2="238.8" y2="137.3" stroke="rgb(0,0,0)"  stroke-width="1.0"/>
<line x1="258.8" y1="130.7" x2="274.6" y2="109.1" stroke="rgb(0,0,0)"  stroke-width="1.0"/>
<line x1="374.7" y1="75.0" x2="394.7" y2="109.1" stroke="rgb(0,0,0)"  stroke-width="1.0"/>
<line x1="383.9" y1="76.5" x2="397.8" y2="100.3" stroke="rgb(0,0,0)"  stroke-width="1.0"/>
<line x1="394.7" y1="109.1" x2="434.3" y2="109.7" stroke="rgb(0,0,0)"  stroke-width="1.0"/>
<line x1="434.3" y1="109.7" x2="454.9" y2="75.8" stroke="rgb(0,0,0)"  stroke-width="1.0"/>
<line x1="431.2" y1="100.9" x2="445.6" y2="77.2" stroke="rgb(0,0,0)"  stroke-width="1.0"/>
<line x1="454.9" y1="75.8" x2="434.9" y2="40.4" stroke="rgb(0,0,0)"  stroke-width="1.0"/>
<line x1="434.9" y1="40.4" x2="395.3" y2="40.0" stroke="rgb(0,0,0)"  stroke-width="1.0"/>
<line x1="428.8" y1="47.5" x2="401.2" y2="47.3" stroke="rgb(0,0,0)"  stroke-width="1.0"/>
<line x1="395.3" y1="40.0" x2="374.7" y2="75.0" stroke="rgb(0,0,0)"  stroke-width="1.0"/>
<line x1="178.4" y1="69.1" x2="213.0" y2="89.1" stroke="rgb(0,0,0)"  stroke-width="1.0"/>
<line x1="213.0" y1="129.1" x2="178.4" y2="149.1" stroke="rgb(0,0,0)"  stroke-width="1.0"/>
<line x1="178.4" y1="149.1" x2="143.9" y2="129.1" stroke="rgb(0,0,0)"  stroke-width="1.0"/>
<line x1="176.8" y1="139.9" x2="152.7" y2="125.9" stroke="rgb(0,0,0)"  stroke-width="1.0"/>
<line x1="143.9" y1="129.1" x2="143.9" y2="89.1" stroke="rgb(0,0,0)"  stroke-width="1.0"/>
<line x1="143.9" y1="89.1" x2="178.4" y2="69.1" stroke="rgb(0,0,0)"  stroke-width="1.0"/>
<line x1="152.7" y1="92.3" x2="176.8" y2="78.3" stroke="rgb(0,0,0)"  stroke-width="1.0"/>
<text x="308.640366" y="117.519220" fill="rgb(12,12,255)"  stroke="rgb(12,12,255)" stroke-width="1" font-size="16" >N</text>
<text x="245.185867" y="149.246470" fill="rgb(12,12,255)"  stroke="rgb(12,12,255)" stroke-width="1" font-size="16" >N</text>
<text x="245.185867" y="84.780377" fill="rgb(178,178,0)"  stroke="rgb(178,178,0)" stroke-width="1" font-size="16" >S</text>
<text x="191.957383" y="246.857979" fill="rgb(102,102,102)"  stroke="rgb(102,102,102)" stroke-width="1" font-size="16" >HC</text>
<text x="102.710913" y="76.895756" fill="rgb(12,12,255)"  stroke="rgb(12,12,255)" stroke-width="1" font-size="16" >N</text>
<text x="102.710913" y="60.895756" fill="rgb(12,12,255)"  stroke="rgb(12,12,255)" stroke-width="1" font-size="16" >H</text>
<text x="308.640366" y="48.401733" fill="rgb(255,12,12)"  stroke="rgb(255,12,12)" stroke-width="1" font-size="16" >O</text>
<text x="34.000000" y="76.895756" fill="rgb(255,12,12)"  stroke="rgb(255,12,12)" stroke-width="1" font-size="16" >O</text>
<text x="356.256619" y="152.281250" fill="rgb(165,40,40)"  stroke="rgb(165,40,40)" stroke-width="1" font-size="16" >Br</text>
<text x="48.152170" y="136.918582" fill="rgb(102,102,102)"  stroke="rgb(102,102,102)" stroke-width="1" font-size="16" >H</text>
<text x="60.152170" y="140.598582" fill="rgb(102,102,102)"  stroke="rgb(102,102,102)" stroke-width="1" font-size="13" >3</text>
<text x="66.652170" y="136.918582" fill="rgb(102,102,102)"  stroke="rgb(102,102,102)" stroke-width="1" font-size="16" >C</text>
<text font-size="18.000000" fill ="black" font-family="sans-serif"
x="10.000000" y="20.000000" ></text>
<title> - OBDepict</title>
</svg>
