<?xml version="1.0"?>
<svg xmlns="http://www.w3.org/2000/svg"
xmlns:xlink="http://www.w3.org/1999/xlink" xmlns:cml="http://www.xml-cml.org/schema" width="412.089" height="445.781" x="0" y="0" font-family="sans-serif" stroke="rgb(0,0,0)" stroke-width="1"  stroke-linecap="round">
<rect x="0%" y="0%" width="100%" height="100%" stroke-width="0" fill="rgb(255,255,255)"  />
<line x1="188.7" y1="209.2" x2="165.4" y2="223.0" stroke="rgb(0,0,0)"  stroke-width="1.0"/>
<line x1="185.7" y1="204.0" x2="162.4" y2="217.8" stroke="rgb(0,0,0)"  stroke-width="1.0"/>
<line x1="198.4" y1="159.8" x2="198.4" y2="187.0" stroke="rgb(0,0,0)"  stroke-width="1.0"/>
<line x1="180.0" y1="326.9" x2="189.1" y2="287.8" stroke="rgb(0,0,0)"  stroke-width="1.0"/>
<line x1="174.0" y1="353.6" x2="180.0" y2="326.9" stroke="rgb(0,0,0)"  stroke-width="1.0"/>
<line x1="169.9" y1="352.6" x2="175.9" y2="326.0" stroke="rgb(0,0,0)"  stroke-width="1.0"/>
<line x1="178.1" y1="354.5" x2="184.1" y2="327.8" stroke="rgb(0,0,0)"  stroke-width="1.0"/>
<line x1="232.9" y1="139.9" x2="198.4" y2="159.8" stroke="rgb(0,0,0)"  stroke-width="1.0"/>
<line x1="176.1" y1="144.0" x2="199.8" y2="157.2" stroke="rgb(0,0,0)"  stroke-width="1.0"/>
<line x1="173.2" y1="149.2" x2="196.9" y2="162.5" stroke="rgb(0,0,0)"  stroke-width="1.0"/>
<line x1="325.7" y1="87.0" x2="302.3" y2="100.3" stroke="rgb(0,0,0)"  stroke-width="1.0"/>
<line x1="189.1" y1="287.8" x2="168.6" y2="268.7" stroke="rgb(0,0,0)"  stroke-width="1.0"/>
<line x1="112.4" y1="325.7" x2="99.5" y2="301.7" stroke="rgb(0,0,0)"  stroke-width="1.0"/>
<line x1="337.0" y1="53.0" x2="337.0" y2="67.6" stroke="rgb(0,0,0)"  stroke-width="1.0"/>
<line x1="360.8" y1="94.1" x2="348.3" y2="87.0" stroke="rgb(0,0,0)"  stroke-width="1.0"/>
<line x1="97.9" y1="371.3" x2="111.8" y2="348.3" stroke="rgb(0,0,0)"  stroke-width="1.0"/>
<line x1="110.3" y1="394.3" x2="97.9" y2="371.3" stroke="rgb(0,0,0)"  stroke-width="1.0"/>
<line x1="163.9" y1="220.4" x2="139.9" y2="209.1" stroke="rgb(0,0,0)"  stroke-width="1.0"/>
<line x1="119.2" y1="213.0" x2="100.3" y2="232.7" stroke="rgb(0,0,0)"  stroke-width="1.0"/>
<line x1="100.3" y1="232.7" x2="120.1" y2="267.6" stroke="rgb(0,0,0)"  stroke-width="1.0"/>
<line x1="109.5" y1="234.3" x2="123.4" y2="258.8" stroke="rgb(0,0,0)"  stroke-width="1.0"/>
<line x1="120.1" y1="267.6" x2="146.3" y2="262.4" stroke="rgb(0,0,0)"  stroke-width="1.0"/>
<line x1="160.6" y1="247.0" x2="163.9" y2="220.4" stroke="rgb(0,0,0)"  stroke-width="1.0"/>
<line x1="232.9" y1="139.9" x2="232.9" y2="100.5" stroke="rgb(0,0,0)"  stroke-width="1.0"/>
<line x1="240.1" y1="133.9" x2="240.1" y2="106.5" stroke="rgb(0,0,0)"  stroke-width="1.0"/>
<line x1="232.9" y1="100.5" x2="268.0" y2="80.3" stroke="rgb(0,0,0)"  stroke-width="1.0"/>
<line x1="268.0" y1="80.3" x2="302.3" y2="100.3" stroke="rgb(0,0,0)"  stroke-width="1.0"/>
<line x1="269.5" y1="89.6" x2="293.5" y2="103.5" stroke="rgb(0,0,0)"  stroke-width="1.0"/>
<line x1="302.3" y1="100.3" x2="302.5" y2="140.3" stroke="rgb(0,0,0)"  stroke-width="1.0"/>
<line x1="302.5" y1="140.3" x2="268.0" y2="160.0" stroke="rgb(0,0,0)"  stroke-width="1.0"/>
<line x1="293.7" y1="137.0" x2="269.6" y2="150.8" stroke="rgb(0,0,0)"  stroke-width="1.0"/>
<line x1="268.0" y1="160.0" x2="232.9" y2="139.9" stroke="rgb(0,0,0)"  stroke-width="1.0"/>
<line x1="99.5" y1="301.7" x2="60.0" y2="301.1" stroke="rgb(0,0,0)"  stroke-width="1.0"/>
<line x1="93.6" y1="294.4" x2="66.1" y2="294.0" stroke="rgb(0,0,0)"  stroke-width="1.0"/>
<line x1="60.0" y1="301.1" x2="40.0" y2="266.0" stroke="rgb(0,0,0)"  stroke-width="1.0"/>
<line x1="40.0" y1="266.0" x2="61.2" y2="231.9" stroke="rgb(0,0,0)"  stroke-width="1.0"/>
<line x1="49.3" y1="264.7" x2="64.1" y2="240.8" stroke="rgb(0,0,0)"  stroke-width="1.0"/>
<line x1="61.2" y1="231.9" x2="100.3" y2="232.7" stroke="rgb(0,0,0)"  stroke-width="1.0"/>
<line x1="120.1" y1="267.6" x2="99.5" y2="301.7" stroke="rgb(0,0,0)"  stroke-width="1.0"/>
<text x="192.379640" y="207.992053" fill="rgb(12,12,255)"  stroke="rgb(12,12,255)" stroke-width="1" font-size="16" >N</text>
<text x="153.037729" y="267.912811" fill="rgb(12,12,255)"  stroke="rgb(12,12,255)" stroke-width="1" font-size="16" >N</text>
<text x="122.169460" y="211.623615" fill="rgb(178,178,0)"  stroke="rgb(178,178,0)" stroke-width="1" font-size="16" >S</text>
<text x="153.142933" y="374.235234" fill="rgb(102,102,102)"  stroke="rgb(102,102,102)" stroke-width="1" font-size="16" >HC</text>
<text x="157.274550" y="148.269822" fill="rgb(255,12,12)"  stroke="rgb(255,12,12)" stroke-width="1" font-size="16" >O</text>
<text x="330.984220" y="88.552432" fill="rgb(12,12,255)"  stroke="rgb(12,12,255)" stroke-width="1" font-size="16" >N</text>
<text x="112.485297" y="345.182746" fill="rgb(255,12,12)"  stroke="rgb(255,12,12)" stroke-width="1" font-size="16" >O</text>
<text x="332.984220" y="48.000000" fill="rgb(102,102,102)"  stroke="rgb(102,102,102)" stroke-width="1" font-size="16" >CH</text>
<text x="356.984220" y="51.680000" fill="rgb(102,102,102)"  stroke="rgb(102,102,102)" stroke-width="1" font-size="13" >3</text>
<text x="368.089310" y="108.526017" fill="rgb(102,102,102)"  stroke="rgb(102,102,102)" stroke-width="1" font-size="16" >CH</text>
<text x="392.089310" y="112.206017" fill="rgb(102,102,102)"  stroke="rgb(102,102,102)" stroke-width="1" font-size="13" >3</text>
<text x="112.466149" y="413.780513" fill="rgb(102,102,102)"  stroke="rgb(102,102,102)" stroke-width="1" font-size="16" >CH</text>
<text x="136.466149" y="417.460513" fill="rgb(102,102,102)"  stroke="rgb(102,102,102)" stroke-width="1" font-size="13" >3</text>
<text font-size="18.000000" fill ="black" font-family="sans-serif"
x="10.000000" y="20.000000" ></text>
<title> - OBDepict</title>
</svg>
