<?xml version="1.0"?>
<svg xmlns="http://www.w3.org/2000/svg"
xmlns:xlink="http://www.w3.org/1999/xlink" xmlns:cml="http://www.xml-cml.org/schema" width="580.734" height="251.859" x="0" y="0" font-family="sans-serif" stroke="rgb(0,0,0)" stroke-width="1"  stroke-linecap="round">
<rect x="0%" y="0%" width="100%" height="100%" stroke-width="0" fill="rgb(255,255,255)"  />
<line x1="360.5" y1="163.5" x2="384.9" y2="151.2" stroke="rgb(0,0,0)"  stroke-width="1.0"/>
<line x1="363.2" y1="168.8" x2="387.6" y2="156.5" stroke="rgb(0,0,0)"  stroke-width="1.0"/>
<line x1="280.9" y1="168.9" x2="304.7" y2="156.3" stroke="rgb(0,0,0)"  stroke-width="1.0"/>
<line x1="327.1" y1="157.2" x2="339.3" y2="165.0" stroke="rgb(0,0,0)"  stroke-width="1.0"/>
<line x1="514.9" y1="120.3" x2="489.2" y2="150.9" stroke="rgb(0,0,0)"  stroke-width="1.0"/>
<line x1="532.4" y1="99.6" x2="514.9" y2="120.3" stroke="rgb(0,0,0)"  stroke-width="1.0"/>
<line x1="535.6" y1="102.3" x2="518.1" y2="123.1" stroke="rgb(0,0,0)"  stroke-width="1.0"/>
<line x1="529.1" y1="96.9" x2="511.7" y2="117.6" stroke="rgb(0,0,0)"  stroke-width="1.0"/>
<line x1="422.5" y1="199.4" x2="418.6" y2="172.5" stroke="rgb(0,0,0)"  stroke-width="1.0"/>
<line x1="428.5" y1="198.6" x2="424.5" y2="171.6" stroke="rgb(0,0,0)"  stroke-width="1.0"/>
<line x1="489.2" y1="150.9" x2="462.4" y2="146.3" stroke="rgb(0,0,0)"  stroke-width="1.0"/>
<line x1="276.9" y1="195.8" x2="277.9" y2="168.7" stroke="rgb(0,0,0)"  stroke-width="1.0"/>
<line x1="282.8" y1="196.0" x2="283.9" y2="169.0" stroke="rgb(0,0,0)"  stroke-width="1.0"/>
<line x1="247.0" y1="147.2" x2="280.9" y2="168.9" stroke="rgb(0,0,0)"  stroke-width="1.0"/>
<line x1="223.0" y1="159.9" x2="247.0" y2="147.2" stroke="rgb(0,0,0)"  stroke-width="1.0"/>
<line x1="177.5" y1="144.5" x2="200.5" y2="159.1" stroke="rgb(0,0,0)"  stroke-width="1.0"/>
<line x1="74.3" y1="82.3" x2="108.8" y2="102.3" stroke="rgb(0,0,0)"  stroke-width="1.0"/>
<line x1="74.3" y1="55.5" x2="74.3" y2="82.3" stroke="rgb(0,0,0)"  stroke-width="1.0"/>
<line x1="51.2" y1="95.8" x2="74.3" y2="82.3" stroke="rgb(0,0,0)"  stroke-width="1.0"/>
<line x1="421.6" y1="172.0" x2="440.3" y2="153.3" stroke="rgb(0,0,0)"  stroke-width="1.0"/>
<line x1="443.8" y1="132.5" x2="431.9" y2="108.5" stroke="rgb(0,0,0)"  stroke-width="1.0"/>
<line x1="431.9" y1="108.5" x2="392.5" y2="114.5" stroke="rgb(0,0,0)"  stroke-width="1.0"/>
<line x1="427.0" y1="116.5" x2="399.6" y2="120.7" stroke="rgb(0,0,0)"  stroke-width="1.0"/>
<line x1="392.5" y1="114.5" x2="386.2" y2="153.8" stroke="rgb(0,0,0)"  stroke-width="1.0"/>
<line x1="386.2" y1="153.8" x2="421.6" y2="172.0" stroke="rgb(0,0,0)"  stroke-width="1.0"/>
<line x1="108.3" y1="142.3" x2="108.8" y2="102.3" stroke="rgb(0,0,0)"  stroke-width="1.0"/>
<line x1="115.6" y1="136.4" x2="116.0" y2="108.4" stroke="rgb(0,0,0)"  stroke-width="1.0"/>
<line x1="108.8" y1="102.3" x2="144.7" y2="83.7" stroke="rgb(0,0,0)"  stroke-width="1.0"/>
<line x1="144.7" y1="83.7" x2="178.7" y2="104.2" stroke="rgb(0,0,0)"  stroke-width="1.0"/>
<line x1="146.1" y1="92.9" x2="169.8" y2="107.2" stroke="rgb(0,0,0)"  stroke-width="1.0"/>
<line x1="178.7" y1="104.2" x2="177.5" y2="144.5" stroke="rgb(0,0,0)"  stroke-width="1.0"/>
<line x1="177.5" y1="144.5" x2="142.3" y2="163.5" stroke="rgb(0,0,0)"  stroke-width="1.0"/>
<line x1="168.8" y1="141.0" x2="144.2" y2="154.3" stroke="rgb(0,0,0)"  stroke-width="1.0"/>
<line x1="142.3" y1="163.5" x2="108.3" y2="142.3" stroke="rgb(0,0,0)"  stroke-width="1.0"/>
<line x1="431.9" y1="108.5" x2="446.4" y2="71.3" stroke="rgb(0,0,0)"  stroke-width="1.0"/>
<line x1="446.4" y1="71.3" x2="421.6" y2="40.0" stroke="rgb(0,0,0)"  stroke-width="1.0"/>
<line x1="437.0" y1="71.1" x2="419.6" y2="49.2" stroke="rgb(0,0,0)"  stroke-width="1.0"/>
<line x1="421.6" y1="40.0" x2="382.2" y2="46.0" stroke="rgb(0,0,0)"  stroke-width="1.0"/>
<line x1="382.2" y1="46.0" x2="367.7" y2="83.0" stroke="rgb(0,0,0)"  stroke-width="1.0"/>
<line x1="386.7" y1="54.2" x2="376.6" y2="80.0" stroke="rgb(0,0,0)"  stroke-width="1.0"/>
<line x1="367.7" y1="83.0" x2="392.5" y2="114.5" stroke="rgb(0,0,0)"  stroke-width="1.0"/>
<text x="443.558813" y="152.185293" fill="rgb(12,12,255)"  stroke="rgb(12,12,255)" stroke-width="1" font-size="16" >N</text>
<text x="344.205288" y="180.019950" fill="rgb(12,12,255)"  stroke="rgb(12,12,255)" stroke-width="1" font-size="16" >N</text>
<text x="310.203960" y="158.187518" fill="rgb(12,12,255)"  stroke="rgb(12,12,255)" stroke-width="1" font-size="16" >N</text>
<text x="310.203960" y="142.187518" fill="rgb(12,12,255)"  stroke="rgb(12,12,255)" stroke-width="1" font-size="16" >H</text>
<text x="534.733640" y="97.676762" fill="rgb(102,102,102)"  stroke="rgb(102,102,102)" stroke-width="1" font-size="16" >CH</text>
<text x="421.387819" y="219.859060" fill="rgb(255,12,12)"  stroke="rgb(255,12,12)" stroke-width="1" font-size="16" >O</text>
<text x="273.363545" y="216.860365" fill="rgb(255,12,12)"  stroke="rgb(255,12,12)" stroke-width="1" font-size="16" >O</text>
<text x="205.525334" y="174.017724" fill="rgb(255,12,12)"  stroke="rgb(255,12,12)" stroke-width="1" font-size="16" >O</text>
<text x="70.335054" y="50.500524" fill="rgb(102,102,102)"  stroke="rgb(102,102,102)" stroke-width="1" font-size="16" >CH</text>
<text x="94.335054" y="54.180524" fill="rgb(102,102,102)"  stroke="rgb(102,102,102)" stroke-width="1" font-size="13" >3</text>
<text x="14.000000" y="110.343829" fill="rgb(102,102,102)"  stroke="rgb(102,102,102)" stroke-width="1" font-size="16" >H</text>
<text x="26.000000" y="114.023829" fill="rgb(102,102,102)"  stroke="rgb(102,102,102)" stroke-width="1" font-size="13" >3</text>
<text x="32.500000" y="110.343829" fill="rgb(102,102,102)"  stroke="rgb(102,102,102)" stroke-width="1" font-size="16" >C</text>
<text font-size="18.000000" fill ="black" font-family="sans-serif"
x="10.000000" y="20.000000" ></text>
<title> - OBDepict</title>
</svg>
