<?xml version="1.0"?>
<svg xmlns="http://www.w3.org/2000/svg"
xmlns:xlink="http://www.w3.org/1999/xlink" xmlns:cml="http://www.xml-cml.org/schema" width="460.964" height="240.183" x="0" y="0" font-family="sans-serif" stroke="rgb(0,0,0)" stroke-width="1"  stroke-linecap="round">
<rect x="0%" y="0%" width="100%" height="100%" stroke-width="0" fill="rgb(255,255,255)"  />
<line x1="282.4" y1="160.2" x2="247.9" y2="140.2" stroke="rgb(0,0,0)"  stroke-width="1.0"/>
<line x1="149.0" y1="186.8" x2="144.8" y2="173.5" stroke="rgb(0,0,0)"  stroke-width="1.0"/>
<line x1="154.7" y1="185.1" x2="150.6" y2="171.7" stroke="rgb(0,0,0)"  stroke-width="1.0"/>
<line x1="133.1" y1="185.1" x2="137.1" y2="171.7" stroke="rgb(0,0,0)"  stroke-width="1.0"/>
<line x1="138.8" y1="186.8" x2="142.9" y2="173.5" stroke="rgb(0,0,0)"  stroke-width="1.0"/>
<line x1="305.9" y1="146.7" x2="282.4" y2="160.2" stroke="rgb(0,0,0)"  stroke-width="1.0"/>
<line x1="386.2" y1="180.2" x2="351.7" y2="160.2" stroke="rgb(0,0,0)"  stroke-width="1.0"/>
<line x1="409.7" y1="193.7" x2="386.2" y2="180.2" stroke="rgb(0,0,0)"  stroke-width="1.0"/>
<line x1="407.6" y1="197.3" x2="384.1" y2="183.8" stroke="rgb(0,0,0)"  stroke-width="1.0"/>
<line x1="411.8" y1="190.1" x2="388.3" y2="176.5" stroke="rgb(0,0,0)"  stroke-width="1.0"/>
<line x1="351.7" y1="160.2" x2="328.4" y2="146.7" stroke="rgb(0,0,0)"  stroke-width="1.0"/>
<line x1="146.8" y1="53.0" x2="146.8" y2="80.2" stroke="rgb(0,0,0)"  stroke-width="1.0"/>
<line x1="140.8" y1="53.0" x2="140.8" y2="80.2" stroke="rgb(0,0,0)"  stroke-width="1.0"/>
<line x1="279.4" y1="187.2" x2="279.4" y2="160.2" stroke="rgb(0,0,0)"  stroke-width="1.0"/>
<line x1="285.4" y1="187.2" x2="285.4" y2="160.2" stroke="rgb(0,0,0)"  stroke-width="1.0"/>
<line x1="371.7" y1="125.4" x2="351.7" y2="160.2" stroke="rgb(0,0,0)"  stroke-width="1.0"/>
<line x1="331.7" y1="194.7" x2="351.7" y2="160.2" stroke="rgb(0,0,0)"  stroke-width="1.0"/>
<line x1="398.7" y1="125.4" x2="371.7" y2="125.4" stroke="rgb(0,0,0)"  stroke-width="1.0"/>
<line x1="304.7" y1="194.7" x2="331.7" y2="194.7" stroke="rgb(0,0,0)"  stroke-width="1.0"/>
<line x1="178.6" y1="140.2" x2="178.6" y2="100.2" stroke="rgb(0,0,0)"  stroke-width="1.0"/>
<line x1="185.8" y1="134.2" x2="185.8" y2="106.2" stroke="rgb(0,0,0)"  stroke-width="1.0"/>
<line x1="178.6" y1="100.2" x2="213.1" y2="80.2" stroke="rgb(0,0,0)"  stroke-width="1.0"/>
<line x1="213.1" y1="80.2" x2="247.9" y2="100.2" stroke="rgb(0,0,0)"  stroke-width="1.0"/>
<line x1="214.7" y1="89.4" x2="239.1" y2="103.4" stroke="rgb(0,0,0)"  stroke-width="1.0"/>
<line x1="247.9" y1="100.2" x2="247.9" y2="140.2" stroke="rgb(0,0,0)"  stroke-width="1.0"/>
<line x1="247.9" y1="140.2" x2="213.1" y2="160.2" stroke="rgb(0,0,0)"  stroke-width="1.0"/>
<line x1="239.1" y1="136.9" x2="214.7" y2="151.0" stroke="rgb(0,0,0)"  stroke-width="1.0"/>
<line x1="213.1" y1="160.2" x2="178.6" y2="140.2" stroke="rgb(0,0,0)"  stroke-width="1.0"/>
<line x1="109.3" y1="100.2" x2="143.8" y2="80.2" stroke="rgb(0,0,0)"  stroke-width="1.0"/>
<line x1="143.8" y1="80.2" x2="178.6" y2="100.2" stroke="rgb(0,0,0)"  stroke-width="1.0"/>
<line x1="178.6" y1="140.2" x2="155.1" y2="153.7" stroke="rgb(0,0,0)"  stroke-width="1.0"/>
<line x1="132.6" y1="153.7" x2="109.3" y2="140.2" stroke="rgb(0,0,0)"  stroke-width="1.0"/>
<line x1="109.3" y1="140.2" x2="109.3" y2="100.2" stroke="rgb(0,0,0)"  stroke-width="1.0"/>
<line x1="116.5" y1="134.2" x2="116.5" y2="106.2" stroke="rgb(0,0,0)"  stroke-width="1.0"/>
<line x1="74.5" y1="80.2" x2="109.3" y2="100.2" stroke="rgb(0,0,0)"  stroke-width="1.0"/>
<line x1="109.3" y1="140.2" x2="74.5" y2="160.2" stroke="rgb(0,0,0)"  stroke-width="1.0"/>
<line x1="74.5" y1="160.2" x2="40.0" y2="140.2" stroke="rgb(0,0,0)"  stroke-width="1.0"/>
<line x1="73.0" y1="151.0" x2="48.8" y2="137.0" stroke="rgb(0,0,0)"  stroke-width="1.0"/>
<line x1="40.0" y1="140.2" x2="40.0" y2="100.2" stroke="rgb(0,0,0)"  stroke-width="1.0"/>
<line x1="40.0" y1="100.2" x2="74.5" y2="80.2" stroke="rgb(0,0,0)"  stroke-width="1.0"/>
<line x1="48.8" y1="103.4" x2="73.0" y2="89.4" stroke="rgb(0,0,0)"  stroke-width="1.0"/>
<text x="137.826678" y="168.188215" fill="rgb(178,178,0)"  stroke="rgb(178,178,0)" stroke-width="1" font-size="16" >S</text>
<text x="149.742725" y="206.365135" fill="rgb(255,12,12)"  stroke="rgb(255,12,12)" stroke-width="1" font-size="16" >O</text>
<text x="126.109394" y="206.365135" fill="rgb(255,12,12)"  stroke="rgb(255,12,12)" stroke-width="1" font-size="16" >O</text>
<text x="311.137775" y="148.190781" fill="rgb(12,12,255)"  stroke="rgb(12,12,255)" stroke-width="1" font-size="16" >N</text>
<text x="311.137775" y="132.190781" fill="rgb(12,12,255)"  stroke="rgb(12,12,255)" stroke-width="1" font-size="16" >H</text>
<text x="414.964453" y="208.183084" fill="rgb(102,102,102)"  stroke="rgb(102,102,102)" stroke-width="1" font-size="16" >CH</text>
<text x="137.826678" y="48.000000" fill="rgb(255,12,12)"  stroke="rgb(255,12,12)" stroke-width="1" font-size="16" >O</text>
<text x="276.393142" y="208.183084" fill="rgb(255,12,12)"  stroke="rgb(255,12,12)" stroke-width="1" font-size="16" >O</text>
<text x="407.671100" y="133.443582" fill="rgb(102,102,102)"  stroke="rgb(102,102,102)" stroke-width="1" font-size="16" >CH</text>
<text x="431.671100" y="137.123582" fill="rgb(102,102,102)"  stroke="rgb(102,102,102)" stroke-width="1" font-size="13" >3</text>
<text x="265.686495" y="202.729238" fill="rgb(102,102,102)"  stroke="rgb(102,102,102)" stroke-width="1" font-size="16" >H</text>
<text x="277.686495" y="206.409238" fill="rgb(102,102,102)"  stroke="rgb(102,102,102)" stroke-width="1" font-size="13" >3</text>
<text x="284.186495" y="202.729238" fill="rgb(102,102,102)"  stroke="rgb(102,102,102)" stroke-width="1" font-size="16" >C</text>
<text font-size="18.000000" fill ="black" font-family="sans-serif"
x="10.000000" y="20.000000" ></text>
<title> - OBDepict</title>
</svg>
