<?xml version="1.0"?>
<svg xmlns="http://www.w3.org/2000/svg"
xmlns:xlink="http://www.w3.org/1999/xlink" xmlns:cml="http://www.xml-cml.org/schema" width="457.932" height="351.569" x="0" y="0" font-family="sans-serif" stroke="rgb(0,0,0)" stroke-width="1"  stroke-linecap="round">
<rect x="0%" y="0%" width="100%" height="100%" stroke-width="0" fill="rgb(255,255,255)"  />
<line x1="290.3" y1="150.6" x2="304.1" y2="173.7" stroke="rgb(0,0,0)"  stroke-width="1.0"/>
<line x1="285.2" y1="153.7" x2="299.0" y2="176.7" stroke="rgb(0,0,0)"  stroke-width="1.0"/>
<line x1="220.4" y1="107.2" x2="234.4" y2="130.5" stroke="rgb(0,0,0)"  stroke-width="1.0"/>
<line x1="254.1" y1="141.5" x2="268.1" y2="141.2" stroke="rgb(0,0,0)"  stroke-width="1.0"/>
<line x1="276.4" y1="294.9" x2="312.7" y2="278.1" stroke="rgb(0,0,0)"  stroke-width="1.0"/>
<line x1="252.0" y1="306.1" x2="276.4" y2="294.9" stroke="rgb(0,0,0)"  stroke-width="1.0"/>
<line x1="250.3" y1="302.3" x2="274.6" y2="291.1" stroke="rgb(0,0,0)"  stroke-width="1.0"/>
<line x1="253.8" y1="309.9" x2="278.2" y2="298.7" stroke="rgb(0,0,0)"  stroke-width="1.0"/>
<line x1="259.0" y1="215.1" x2="285.4" y2="208.8" stroke="rgb(0,0,0)"  stroke-width="1.0"/>
<line x1="260.4" y1="220.9" x2="286.8" y2="214.6" stroke="rgb(0,0,0)"  stroke-width="1.0"/>
<line x1="166.6" y1="85.1" x2="180.5" y2="107.8" stroke="rgb(0,0,0)"  stroke-width="1.0"/>
<line x1="119.9" y1="74.7" x2="146.9" y2="74.2" stroke="rgb(0,0,0)"  stroke-width="1.0"/>
<line x1="312.7" y1="278.1" x2="315.1" y2="251.2" stroke="rgb(0,0,0)"  stroke-width="1.0"/>
<line x1="236.0" y1="85.2" x2="223.0" y2="108.6" stroke="rgb(0,0,0)"  stroke-width="1.0"/>
<line x1="230.8" y1="82.3" x2="217.8" y2="105.7" stroke="rgb(0,0,0)"  stroke-width="1.0"/>
<line x1="180.5" y1="107.8" x2="220.4" y2="107.2" stroke="rgb(0,0,0)"  stroke-width="1.0"/>
<line x1="286.1" y1="211.7" x2="306.5" y2="229.6" stroke="rgb(0,0,0)"  stroke-width="1.0"/>
<line x1="327.4" y1="231.5" x2="350.2" y2="217.7" stroke="rgb(0,0,0)"  stroke-width="1.0"/>
<line x1="350.2" y1="217.7" x2="341.6" y2="178.5" stroke="rgb(0,0,0)"  stroke-width="1.0"/>
<line x1="341.9" y1="213.4" x2="335.8" y2="185.9" stroke="rgb(0,0,0)"  stroke-width="1.0"/>
<line x1="341.6" y1="178.5" x2="301.6" y2="175.2" stroke="rgb(0,0,0)"  stroke-width="1.0"/>
<line x1="301.6" y1="175.2" x2="286.1" y2="211.7" stroke="rgb(0,0,0)"  stroke-width="1.0"/>
<line x1="100.7" y1="109.7" x2="60.5" y2="110.4" stroke="rgb(0,0,0)"  stroke-width="1.0"/>
<line x1="60.5" y1="110.4" x2="40.0" y2="75.7" stroke="rgb(0,0,0)"  stroke-width="1.0"/>
<line x1="40.0" y1="75.7" x2="59.3" y2="40.7" stroke="rgb(0,0,0)"  stroke-width="1.0"/>
<line x1="49.2" y1="73.9" x2="62.7" y2="49.4" stroke="rgb(0,0,0)"  stroke-width="1.0"/>
<line x1="59.3" y1="40.7" x2="99.2" y2="40.0" stroke="rgb(0,0,0)"  stroke-width="1.0"/>
<line x1="99.2" y1="40.0" x2="119.9" y2="74.7" stroke="rgb(0,0,0)"  stroke-width="1.0"/>
<line x1="96.1" y1="48.8" x2="110.6" y2="73.2" stroke="rgb(0,0,0)"  stroke-width="1.0"/>
<line x1="119.9" y1="74.7" x2="100.7" y2="109.7" stroke="rgb(0,0,0)"  stroke-width="1.0"/>
<line x1="350.2" y1="217.7" x2="388.6" y2="229.1" stroke="rgb(0,0,0)"  stroke-width="1.0"/>
<line x1="388.6" y1="229.1" x2="417.9" y2="202.2" stroke="rgb(0,0,0)"  stroke-width="1.0"/>
<line x1="388.2" y1="219.7" x2="408.6" y2="200.9" stroke="rgb(0,0,0)"  stroke-width="1.0"/>
<line x1="417.9" y1="202.2" x2="408.8" y2="163.2" stroke="rgb(0,0,0)"  stroke-width="1.0"/>
<line x1="408.8" y1="163.2" x2="370.6" y2="151.5" stroke="rgb(0,0,0)"  stroke-width="1.0"/>
<line x1="400.9" y1="168.3" x2="374.2" y2="160.2" stroke="rgb(0,0,0)"  stroke-width="1.0"/>
<line x1="370.6" y1="151.5" x2="341.6" y2="178.5" stroke="rgb(0,0,0)"  stroke-width="1.0"/>
<line x1="60.5" y1="110.4" x2="40.7" y2="145.2" stroke="rgb(0,0,0)"  stroke-width="1.0"/>
<line x1="63.8" y1="119.1" x2="49.9" y2="143.5" stroke="rgb(0,0,0)"  stroke-width="1.0"/>
<line x1="40.7" y1="145.2" x2="61.3" y2="179.7" stroke="rgb(0,0,0)"  stroke-width="1.0"/>
<line x1="61.3" y1="179.7" x2="101.7" y2="179.0" stroke="rgb(0,0,0)"  stroke-width="1.0"/>
<line x1="67.2" y1="172.4" x2="95.6" y2="171.9" stroke="rgb(0,0,0)"  stroke-width="1.0"/>
<line x1="101.7" y1="179.0" x2="121.2" y2="143.5" stroke="rgb(0,0,0)"  stroke-width="1.0"/>
<line x1="121.2" y1="143.5" x2="100.7" y2="109.7" stroke="rgb(0,0,0)"  stroke-width="1.0"/>
<line x1="111.9" y1="142.1" x2="97.6" y2="118.5" stroke="rgb(0,0,0)"  stroke-width="1.0"/>
<text x="310.243902" y="246.216299" fill="rgb(12,12,255)"  stroke="rgb(12,12,255)" stroke-width="1" font-size="16" >N</text>
<text x="275.066013" y="149.023681" fill="rgb(12,12,255)"  stroke="rgb(12,12,255)" stroke-width="1" font-size="16" >N</text>
<text x="235.053225" y="149.688055" fill="rgb(12,12,255)"  stroke="rgb(12,12,255)" stroke-width="1" font-size="16" >N</text>
<text x="235.053225" y="165.688055" fill="rgb(12,12,255)"  stroke="rgb(12,12,255)" stroke-width="1" font-size="16" >H</text>
<text x="222.223970" y="319.569035" fill="rgb(102,102,102)"  stroke="rgb(102,102,102)" stroke-width="1" font-size="16" >HC</text>
<text x="241.056841" y="229.044407" fill="rgb(255,12,12)"  stroke="rgb(255,12,12)" stroke-width="1" font-size="16" >O</text>
<text x="153.863783" y="82.009172" fill="rgb(12,12,255)"  stroke="rgb(12,12,255)" stroke-width="1" font-size="16" >N</text>
<text x="153.863783" y="66.009172" fill="rgb(12,12,255)"  stroke="rgb(12,12,255)" stroke-width="1" font-size="16" >H</text>
<text x="233.719627" y="80.340962" fill="rgb(255,12,12)"  stroke="rgb(255,12,12)" stroke-width="1" font-size="16" >O</text>
<text font-size="18.000000" fill ="black" font-family="sans-serif"
x="10.000000" y="20.000000" ></text>
<title> - OBDepict</title>
</svg>
