<?xml version="1.0"?>
<svg xmlns="http://www.w3.org/2000/svg"
xmlns:xlink="http://www.w3.org/1999/xlink" xmlns:cml="http://www.xml-cml.org/schema" width="460.477" height="289.872" x="0" y="0" font-family="sans-serif" stroke="rgb(0,0,0)" stroke-width="1"  stroke-linecap="round">
<rect x="0%" y="0%" width="100%" height="100%" stroke-width="0" fill="rgb(255,255,255)"  />
<line x1="46.7" y1="193.7" x2="60.0" y2="171.8" stroke="rgb(0,0,0)"  stroke-width="1.0"/>
<line x1="43.1" y1="191.5" x2="56.4" y2="169.6" stroke="rgb(0,0,0)"  stroke-width="1.0"/>
<line x1="50.3" y1="195.8" x2="63.6" y2="173.9" stroke="rgb(0,0,0)"  stroke-width="1.0"/>
<line x1="286.8" y1="167.0" x2="273.0" y2="141.7" stroke="rgb(0,0,0)"  stroke-width="1.0"/>
<line x1="157.2" y1="139.8" x2="131.5" y2="139.4" stroke="rgb(0,0,0)"  stroke-width="1.0"/>
<line x1="335.5" y1="179.5" x2="306.0" y2="178.7" stroke="rgb(0,0,0)"  stroke-width="1.0"/>
<line x1="273.0" y1="141.7" x2="234.4" y2="141.1" stroke="rgb(0,0,0)"  stroke-width="1.0"/>
<line x1="342.4" y1="238.8" x2="355.9" y2="217.0" stroke="rgb(0,0,0)"  stroke-width="1.0"/>
<line x1="164.6" y1="84.2" x2="177.1" y2="106.7" stroke="rgb(0,0,0)"  stroke-width="1.0"/>
<line x1="111.9" y1="150.3" x2="98.6" y2="172.4" stroke="rgb(0,0,0)"  stroke-width="1.0"/>
<line x1="98.6" y1="172.4" x2="60.0" y2="171.8" stroke="rgb(0,0,0)"  stroke-width="1.0"/>
<line x1="171.1" y1="51.2" x2="164.9" y2="61.7" stroke="rgb(0,0,0)"  stroke-width="1.0"/>
<line x1="177.1" y1="106.7" x2="215.8" y2="107.4" stroke="rgb(0,0,0)"  stroke-width="1.0"/>
<line x1="183.0" y1="114.0" x2="209.6" y2="114.5" stroke="rgb(0,0,0)"  stroke-width="1.0"/>
<line x1="215.8" y1="107.4" x2="234.4" y2="141.1" stroke="rgb(0,0,0)"  stroke-width="1.0"/>
<line x1="234.4" y1="141.1" x2="214.5" y2="174.3" stroke="rgb(0,0,0)"  stroke-width="1.0"/>
<line x1="225.2" y1="142.5" x2="211.4" y2="165.5" stroke="rgb(0,0,0)"  stroke-width="1.0"/>
<line x1="214.5" y1="174.3" x2="175.8" y2="173.7" stroke="rgb(0,0,0)"  stroke-width="1.0"/>
<line x1="175.8" y1="173.7" x2="157.2" y2="139.8" stroke="rgb(0,0,0)"  stroke-width="1.0"/>
<line x1="179.2" y1="165.0" x2="166.4" y2="141.6" stroke="rgb(0,0,0)"  stroke-width="1.0"/>
<line x1="157.2" y1="139.8" x2="177.1" y2="106.7" stroke="rgb(0,0,0)"  stroke-width="1.0"/>
<line x1="335.5" y1="179.5" x2="355.9" y2="217.0" stroke="rgb(0,0,0)"  stroke-width="1.0"/>
<line x1="344.7" y1="181.3" x2="359.3" y2="208.3" stroke="rgb(0,0,0)"  stroke-width="1.0"/>
<line x1="355.9" y1="217.0" x2="398.4" y2="218.1" stroke="rgb(0,0,0)"  stroke-width="1.0"/>
<line x1="398.4" y1="218.1" x2="420.5" y2="182.1" stroke="rgb(0,0,0)"  stroke-width="1.0"/>
<line x1="395.4" y1="209.2" x2="411.2" y2="183.4" stroke="rgb(0,0,0)"  stroke-width="1.0"/>
<line x1="420.5" y1="182.1" x2="400.5" y2="144.7" stroke="rgb(0,0,0)"  stroke-width="1.0"/>
<line x1="400.5" y1="144.7" x2="358.0" y2="143.4" stroke="rgb(0,0,0)"  stroke-width="1.0"/>
<line x1="394.3" y1="151.7" x2="363.8" y2="150.8" stroke="rgb(0,0,0)"  stroke-width="1.0"/>
<line x1="358.0" y1="143.4" x2="335.5" y2="179.5" stroke="rgb(0,0,0)"  stroke-width="1.0"/>
<text x="22.000000" y="212.805999" fill="rgb(102,102,102)"  stroke="rgb(102,102,102)" stroke-width="1" font-size="16" >HC</text>
<text x="287.005287" y="186.411893" fill="rgb(12,12,255)"  stroke="rgb(12,12,255)" stroke-width="1" font-size="16" >N</text>
<text x="287.005287" y="202.411893" fill="rgb(12,12,255)"  stroke="rgb(12,12,255)" stroke-width="1" font-size="16" >H</text>
<text x="317.495763" y="257.872082" fill="rgb(30,239,30)"  stroke="rgb(30,239,30)" stroke-width="1" font-size="16" >Cl</text>
<text x="152.238652" y="80.830777" fill="rgb(255,12,12)"  stroke="rgb(255,12,12)" stroke-width="1" font-size="16" >O</text>
<text x="112.544281" y="147.139753" fill="rgb(255,12,12)"  stroke="rgb(255,12,12)" stroke-width="1" font-size="16" >O</text>
<text x="173.769164" y="48.000000" fill="rgb(102,102,102)"  stroke="rgb(102,102,102)" stroke-width="1" font-size="16" >CH</text>
<text x="197.769164" y="51.680000" fill="rgb(102,102,102)"  stroke="rgb(102,102,102)" stroke-width="1" font-size="13" >3</text>
<text font-size="18.000000" fill ="black" font-family="sans-serif"
x="10.000000" y="20.000000" ></text>
<title> - OBDepict</title>
</svg>
