<?xml version="1.0"?>
<svg xmlns="http://www.w3.org/2000/svg"
xmlns:xlink="http://www.w3.org/1999/xlink" xmlns:cml="http://www.xml-cml.org/schema" width="287.786" height="300.111" x="0" y="0" font-family="sans-serif" stroke="rgb(0,0,0)" stroke-width="1"  stroke-linecap="round">
<rect x="0%" y="0%" width="100%" height="100%" stroke-width="0" fill="rgb(255,255,255)"  />
<line x1="143.9" y1="140.1" x2="143.9" y2="180.1" stroke="rgb(0,0,0)"  stroke-width="1.0"/>
<line x1="74.6" y1="60.0" x2="109.1" y2="80.0" stroke="rgb(0,0,0)"  stroke-width="1.0"/>
<line x1="51.3" y1="46.5" x2="74.6" y2="60.0" stroke="rgb(0,0,0)"  stroke-width="1.0"/>
<line x1="53.4" y1="42.9" x2="76.7" y2="56.4" stroke="rgb(0,0,0)"  stroke-width="1.0"/>
<line x1="49.1" y1="50.1" x2="72.5" y2="63.6" stroke="rgb(0,0,0)"  stroke-width="1.0"/>
<line x1="168.7" y1="129.1" x2="145.4" y2="142.6" stroke="rgb(0,0,0)"  stroke-width="1.0"/>
<line x1="165.7" y1="124.0" x2="142.4" y2="137.5" stroke="rgb(0,0,0)"  stroke-width="1.0"/>
<line x1="120.4" y1="126.5" x2="143.9" y2="140.1" stroke="rgb(0,0,0)"  stroke-width="1.0"/>
<line x1="109.1" y1="80.0" x2="109.1" y2="107.0" stroke="rgb(0,0,0)"  stroke-width="1.0"/>
<line x1="143.9" y1="180.1" x2="109.1" y2="200.1" stroke="rgb(0,0,0)"  stroke-width="1.0"/>
<line x1="109.1" y1="200.1" x2="109.1" y2="240.1" stroke="rgb(0,0,0)"  stroke-width="1.0"/>
<line x1="116.3" y1="206.1" x2="116.3" y2="234.1" stroke="rgb(0,0,0)"  stroke-width="1.0"/>
<line x1="109.1" y1="240.1" x2="132.6" y2="253.6" stroke="rgb(0,0,0)"  stroke-width="1.0"/>
<line x1="155.3" y1="253.5" x2="178.5" y2="240.1" stroke="rgb(0,0,0)"  stroke-width="1.0"/>
<line x1="153.4" y1="246.3" x2="169.7" y2="236.9" stroke="rgb(0,0,0)"  stroke-width="1.0"/>
<line x1="178.5" y1="240.1" x2="178.5" y2="200.1" stroke="rgb(0,0,0)"  stroke-width="1.0"/>
<line x1="178.5" y1="200.1" x2="143.9" y2="180.1" stroke="rgb(0,0,0)"  stroke-width="1.0"/>
<line x1="169.7" y1="203.3" x2="145.5" y2="189.3" stroke="rgb(0,0,0)"  stroke-width="1.0"/>
<line x1="213.2" y1="260.1" x2="247.8" y2="240.1" stroke="rgb(0,0,0)"  stroke-width="1.0"/>
<line x1="214.8" y1="250.9" x2="239.0" y2="236.9" stroke="rgb(0,0,0)"  stroke-width="1.0"/>
<line x1="247.8" y1="240.1" x2="247.8" y2="200.1" stroke="rgb(0,0,0)"  stroke-width="1.0"/>
<line x1="247.8" y1="200.1" x2="213.2" y2="180.1" stroke="rgb(0,0,0)"  stroke-width="1.0"/>
<line x1="239.0" y1="203.3" x2="214.8" y2="189.3" stroke="rgb(0,0,0)"  stroke-width="1.0"/>
<line x1="213.2" y1="180.1" x2="178.5" y2="200.1" stroke="rgb(0,0,0)"  stroke-width="1.0"/>
<line x1="178.5" y1="240.1" x2="213.2" y2="260.1" stroke="rgb(0,0,0)"  stroke-width="1.0"/>
<line x1="109.1" y1="240.1" x2="74.6" y2="260.1" stroke="rgb(0,0,0)"  stroke-width="1.0"/>
<line x1="74.6" y1="260.1" x2="40.0" y2="240.1" stroke="rgb(0,0,0)"  stroke-width="1.0"/>
<line x1="40.0" y1="240.1" x2="40.0" y2="200.1" stroke="rgb(0,0,0)"  stroke-width="1.0"/>
<line x1="40.0" y1="200.1" x2="74.6" y2="180.1" stroke="rgb(0,0,0)"  stroke-width="1.0"/>
<line x1="74.6" y1="180.1" x2="109.1" y2="200.1" stroke="rgb(0,0,0)"  stroke-width="1.0"/>
<text x="137.890423" y="268.110604" fill="rgb(12,12,255)"  stroke="rgb(12,12,255)" stroke-width="1" font-size="16" >N</text>
<text x="22.000000" y="48.000000" fill="rgb(102,102,102)"  stroke="rgb(102,102,102)" stroke-width="1" font-size="16" >HC</text>
<text x="172.454406" y="128.039339" fill="rgb(255,12,12)"  stroke="rgb(255,12,12)" stroke-width="1" font-size="16" >O</text>
<text x="91.127965" y="128.039339" fill="rgb(12,12,255)"  stroke="rgb(12,12,255)" stroke-width="1" font-size="16" >HN</text>
<text font-size="18.000000" fill ="black" font-family="sans-serif"
x="10.000000" y="20.000000" ></text>
<title> - OBDepict</title>
</svg>
