<?xml version="1.0"?>
<svg xmlns="http://www.w3.org/2000/svg"
xmlns:xlink="http://www.w3.org/1999/xlink" xmlns:cml="http://www.xml-cml.org/schema" width="488.587" height="300.466" x="0" y="0" font-family="sans-serif" stroke="rgb(0,0,0)" stroke-width="1"  stroke-linecap="round">
<rect x="0%" y="0%" width="100%" height="100%" stroke-width="0" fill="rgb(255,255,255)"  />
<line x1="261.6" y1="123.0" x2="224.2" y2="111.1" stroke="rgb(0,0,0)"  stroke-width="1.0"/>
<line x1="353.4" y1="94.9" x2="392.6" y2="91.8" stroke="rgb(0,0,0)"  stroke-width="1.0"/>
<line x1="315.5" y1="159.0" x2="331.2" y2="180.5" stroke="rgb(0,0,0)"  stroke-width="1.0"/>
<line x1="310.7" y1="162.6" x2="326.3" y2="184.1" stroke="rgb(0,0,0)"  stroke-width="1.0"/>
<line x1="266.1" y1="171.3" x2="250.6" y2="192.8" stroke="rgb(0,0,0)"  stroke-width="1.0"/>
<line x1="224.2" y1="111.1" x2="204.3" y2="128.7" stroke="rgb(0,0,0)"  stroke-width="1.0"/>
<line x1="221.2" y1="111.8" x2="215.6" y2="86.0" stroke="rgb(0,0,0)"  stroke-width="1.0"/>
<line x1="227.1" y1="110.5" x2="221.5" y2="84.7" stroke="rgb(0,0,0)"  stroke-width="1.0"/>
<line x1="392.6" y1="91.8" x2="403.9" y2="67.8" stroke="rgb(0,0,0)"  stroke-width="1.0"/>
<line x1="395.1" y1="90.1" x2="410.1" y2="111.6" stroke="rgb(0,0,0)"  stroke-width="1.0"/>
<line x1="390.2" y1="93.5" x2="405.2" y2="115.0" stroke="rgb(0,0,0)"  stroke-width="1.0"/>
<line x1="250.6" y1="192.8" x2="266.4" y2="228.3" stroke="rgb(0,0,0)"  stroke-width="1.0"/>
<line x1="182.2" y1="133.4" x2="157.2" y2="125.5" stroke="rgb(0,0,0)"  stroke-width="1.0"/>
<line x1="422.4" y1="54.9" x2="435.6" y2="53.7" stroke="rgb(0,0,0)"  stroke-width="1.0"/>
<line x1="266.4" y1="228.3" x2="250.9" y2="249.9" stroke="rgb(0,0,0)"  stroke-width="1.0"/>
<line x1="269.8" y1="230.7" x2="254.3" y2="252.4" stroke="rgb(0,0,0)"  stroke-width="1.0"/>
<line x1="263.0" y1="225.8" x2="247.5" y2="247.5" stroke="rgb(0,0,0)"  stroke-width="1.0"/>
<line x1="157.2" y1="125.5" x2="128.0" y2="151.7" stroke="rgb(0,0,0)"  stroke-width="1.0"/>
<line x1="69.2" y1="204.4" x2="49.6" y2="222.0" stroke="rgb(0,0,0)"  stroke-width="1.0"/>
<line x1="293.3" y1="100.1" x2="325.3" y2="123.0" stroke="rgb(0,0,0)"  stroke-width="1.0"/>
<line x1="325.3" y1="123.0" x2="353.4" y2="94.9" stroke="rgb(0,0,0)"  stroke-width="1.0"/>
<line x1="353.4" y1="94.9" x2="321.0" y2="71.7" stroke="rgb(0,0,0)"  stroke-width="1.0"/>
<line x1="321.0" y1="71.7" x2="310.9" y2="51.6" stroke="rgb(0,0,0)"  stroke-width="1.0"/>
<line x1="302.5" y1="52.8" x2="293.3" y2="100.1" stroke="rgb(0,0,0)"  stroke-width="1.0"/>
<line x1="286.7" y1="160.8" x2="313.1" y2="160.8" stroke="rgb(0,0,0)"  stroke-width="1.0"/>
<line x1="313.1" y1="160.8" x2="325.3" y2="123.0" stroke="rgb(0,0,0)"  stroke-width="1.0"/>
<line x1="293.3" y1="100.1" x2="261.6" y2="123.0" stroke="rgb(0,0,0)"  stroke-width="1.0"/>
<line x1="261.6" y1="123.0" x2="269.7" y2="148.4" stroke="rgb(0,0,0)"  stroke-width="1.0"/>
<line x1="321.0" y1="71.7" x2="282.7" y2="61.5" stroke="rgb(0,0,0)"  stroke-width="1.0"/>
<line x1="282.7" y1="61.5" x2="255.0" y2="89.5" stroke="rgb(0,0,0)"  stroke-width="1.0"/>
<line x1="283.6" y1="70.8" x2="264.4" y2="90.3" stroke="rgb(0,0,0)"  stroke-width="1.0"/>
<line x1="255.0" y1="89.5" x2="293.3" y2="100.1" stroke="rgb(0,0,0)"  stroke-width="1.0"/>
<line x1="128.0" y1="151.7" x2="90.7" y2="139.2" stroke="rgb(0,0,0)"  stroke-width="1.0"/>
<line x1="120.0" y1="156.6" x2="94.1" y2="147.9" stroke="rgb(0,0,0)"  stroke-width="1.0"/>
<line x1="90.7" y1="139.2" x2="61.3" y2="165.6" stroke="rgb(0,0,0)"  stroke-width="1.0"/>
<line x1="61.3" y1="165.6" x2="69.2" y2="204.4" stroke="rgb(0,0,0)"  stroke-width="1.0"/>
<line x1="69.5" y1="170.0" x2="75.1" y2="197.0" stroke="rgb(0,0,0)"  stroke-width="1.0"/>
<line x1="69.2" y1="204.4" x2="107.0" y2="216.4" stroke="rgb(0,0,0)"  stroke-width="1.0"/>
<line x1="107.0" y1="216.4" x2="136.2" y2="190.0" stroke="rgb(0,0,0)"  stroke-width="1.0"/>
<line x1="106.6" y1="207.0" x2="126.9" y2="188.7" stroke="rgb(0,0,0)"  stroke-width="1.0"/>
<line x1="136.2" y1="190.0" x2="128.0" y2="151.7" stroke="rgb(0,0,0)"  stroke-width="1.0"/>
<text x="299.016639" y="48.000000" fill="rgb(255,12,12)"  stroke="rgb(255,12,12)" stroke-width="1" font-size="16" >O</text>
<text x="267.665548" y="168.791100" fill="rgb(12,12,255)"  stroke="rgb(12,12,255)" stroke-width="1" font-size="16" >N</text>
<text x="330.372512" y="200.806693" fill="rgb(255,12,12)"  stroke="rgb(255,12,12)" stroke-width="1" font-size="16" >O</text>
<text x="188.623317" y="145.356661" fill="rgb(12,12,255)"  stroke="rgb(12,12,255)" stroke-width="1" font-size="16" >N</text>
<text x="188.623317" y="161.356661" fill="rgb(12,12,255)"  stroke="rgb(12,12,255)" stroke-width="1" font-size="16" >H</text>
<text x="209.743951" y="80.670534" fill="rgb(255,12,12)"  stroke="rgb(255,12,12)" stroke-width="1" font-size="16" >O</text>
<text x="403.477253" y="64.005406" fill="rgb(12,12,255)"  stroke="rgb(12,12,255)" stroke-width="1" font-size="16" >N</text>
<text x="403.477253" y="48.005406" fill="rgb(12,12,255)"  stroke="rgb(12,12,255)" stroke-width="1" font-size="16" >H</text>
<text x="409.084882" y="131.990139" fill="rgb(255,12,12)"  stroke="rgb(255,12,12)" stroke-width="1" font-size="16" >O</text>
<text x="444.587238" y="60.539481" fill="rgb(102,102,102)"  stroke="rgb(102,102,102)" stroke-width="1" font-size="16" >CH</text>
<text x="468.587238" y="64.219481" fill="rgb(102,102,102)"  stroke="rgb(102,102,102)" stroke-width="1" font-size="13" >3</text>
<text x="225.299257" y="268.466346" fill="rgb(102,102,102)"  stroke="rgb(102,102,102)" stroke-width="1" font-size="16" >HC</text>
<text x="34.000000" y="238.759776" fill="rgb(127,178,255)"  stroke="rgb(127,178,255)" stroke-width="1" font-size="16" >F</text>
<text font-size="18.000000" fill ="black" font-family="sans-serif"
x="10.000000" y="20.000000" ></text>
<title> - OBDepict</title>
</svg>
