<?xml version="1.0"?>
<svg xmlns="http://www.w3.org/2000/svg"
xmlns:xlink="http://www.w3.org/1999/xlink" xmlns:cml="http://www.xml-cml.org/schema" width="287.116" height="360.482" x="0" y="0" font-family="sans-serif" stroke="rgb(0,0,0)" stroke-width="1"  stroke-linecap="round">
<rect x="0%" y="0%" width="100%" height="100%" stroke-width="0" fill="rgb(255,255,255)"  />
<line x1="213.9" y1="80.7" x2="213.3" y2="120.1" stroke="rgb(0,0,0)"  stroke-width="1.0"/>
<line x1="213.9" y1="53.0" x2="213.9" y2="80.7" stroke="rgb(0,0,0)"  stroke-width="1.0"/>
<line x1="218.1" y1="53.0" x2="218.1" y2="80.7" stroke="rgb(0,0,0)"  stroke-width="1.0"/>
<line x1="209.7" y1="53.0" x2="209.7" y2="80.7" stroke="rgb(0,0,0)"  stroke-width="1.0"/>
<line x1="178.0" y1="300.4" x2="178.0" y2="260.3" stroke="rgb(0,0,0)"  stroke-width="1.0"/>
<line x1="153.1" y1="311.4" x2="176.5" y2="297.8" stroke="rgb(0,0,0)"  stroke-width="1.0"/>
<line x1="156.1" y1="316.6" x2="179.5" y2="303.0" stroke="rgb(0,0,0)"  stroke-width="1.0"/>
<line x1="235.9" y1="253.8" x2="212.7" y2="240.4" stroke="rgb(0,0,0)"  stroke-width="1.0"/>
<line x1="178.6" y1="153.1" x2="178.4" y2="180.0" stroke="rgb(0,0,0)"  stroke-width="1.0"/>
<line x1="120.5" y1="186.2" x2="143.4" y2="199.7" stroke="rgb(0,0,0)"  stroke-width="1.0"/>
<line x1="213.3" y1="120.1" x2="189.9" y2="133.6" stroke="rgb(0,0,0)"  stroke-width="1.0"/>
<line x1="74.5" y1="199.7" x2="98.0" y2="186.1" stroke="rgb(0,0,0)"  stroke-width="1.0"/>
<line x1="51.2" y1="186.2" x2="74.5" y2="199.7" stroke="rgb(0,0,0)"  stroke-width="1.0"/>
<line x1="178.0" y1="260.3" x2="212.7" y2="240.4" stroke="rgb(0,0,0)"  stroke-width="1.0"/>
<line x1="212.7" y1="240.4" x2="212.7" y2="200.3" stroke="rgb(0,0,0)"  stroke-width="1.0"/>
<line x1="205.5" y1="234.4" x2="205.5" y2="206.3" stroke="rgb(0,0,0)"  stroke-width="1.0"/>
<line x1="212.7" y1="200.3" x2="178.4" y2="180.0" stroke="rgb(0,0,0)"  stroke-width="1.0"/>
<line x1="178.4" y1="180.0" x2="143.4" y2="199.7" stroke="rgb(0,0,0)"  stroke-width="1.0"/>
<line x1="176.7" y1="189.3" x2="152.1" y2="203.0" stroke="rgb(0,0,0)"  stroke-width="1.0"/>
<line x1="143.4" y1="199.7" x2="143.4" y2="239.8" stroke="rgb(0,0,0)"  stroke-width="1.0"/>
<line x1="143.4" y1="239.8" x2="178.0" y2="260.3" stroke="rgb(0,0,0)"  stroke-width="1.0"/>
<line x1="152.2" y1="236.7" x2="176.5" y2="251.0" stroke="rgb(0,0,0)"  stroke-width="1.0"/>
<text x="207.881687" y="48.000000" fill="rgb(102,102,102)"  stroke="rgb(102,102,102)" stroke-width="1" font-size="16" >CH</text>
<text x="137.356248" y="328.482105" fill="rgb(255,12,12)"  stroke="rgb(255,12,12)" stroke-width="1" font-size="16" >O</text>
<text x="241.116193" y="268.292290" fill="rgb(165,40,40)"  stroke="rgb(165,40,40)" stroke-width="1" font-size="16" >Br</text>
<text x="172.618968" y="148.116941" fill="rgb(255,12,12)"  stroke="rgb(255,12,12)" stroke-width="1" font-size="16" >O</text>
<text x="103.309484" y="187.635507" fill="rgb(255,12,12)"  stroke="rgb(255,12,12)" stroke-width="1" font-size="16" >O</text>
<text x="14.000000" y="187.635507" fill="rgb(102,102,102)"  stroke="rgb(102,102,102)" stroke-width="1" font-size="16" >H</text>
<text x="26.000000" y="191.315507" fill="rgb(102,102,102)"  stroke="rgb(102,102,102)" stroke-width="1" font-size="13" >3</text>
<text x="32.500000" y="187.635507" fill="rgb(102,102,102)"  stroke="rgb(102,102,102)" stroke-width="1" font-size="16" >C</text>
<text font-size="18.000000" fill ="black" font-family="sans-serif"
x="10.000000" y="20.000000" ></text>
<title> - OBDepict</title>
</svg>
