<?xml version="1.0"?>
<svg xmlns="http://www.w3.org/2000/svg"
xmlns:xlink="http://www.w3.org/1999/xlink" xmlns:cml="http://www.xml-cml.org/schema" width="457.805" height="266.156" x="0" y="0" font-family="sans-serif" stroke="rgb(0,0,0)" stroke-width="1"  stroke-linecap="round">
<rect x="0%" y="0%" width="100%" height="100%" stroke-width="0" fill="rgb(255,255,255)"  />
<line x1="200.6" y1="146.7" x2="162.6" y2="158.8" stroke="rgb(0,0,0)"  stroke-width="1.0"/>
<line x1="198.7" y1="141.0" x2="160.7" y2="153.1" stroke="rgb(0,0,0)"  stroke-width="1.0"/>
<line x1="208.0" y1="104.7" x2="199.7" y2="143.8" stroke="rgb(0,0,0)"  stroke-width="1.0"/>
<line x1="372.0" y1="161.7" x2="348.5" y2="148.2" stroke="rgb(0,0,0)"  stroke-width="1.0"/>
<line x1="50.7" y1="104.7" x2="59.2" y2="143.8" stroke="rgb(0,0,0)"  stroke-width="1.0"/>
<line x1="279.5" y1="108.2" x2="255.8" y2="94.7" stroke="rgb(0,0,0)"  stroke-width="1.0"/>
<line x1="43.5" y1="78.5" x2="50.7" y2="104.7" stroke="rgb(0,0,0)"  stroke-width="1.0"/>
<line x1="47.5" y1="77.4" x2="54.7" y2="103.5" stroke="rgb(0,0,0)"  stroke-width="1.0"/>
<line x1="39.4" y1="79.6" x2="46.6" y2="105.8" stroke="rgb(0,0,0)"  stroke-width="1.0"/>
<line x1="383.0" y1="195.0" x2="383.1" y2="181.2" stroke="rgb(0,0,0)"  stroke-width="1.0"/>
<line x1="91.1" y1="213.9" x2="106.9" y2="192.4" stroke="rgb(0,0,0)"  stroke-width="1.0"/>
<line x1="95.9" y1="217.5" x2="111.7" y2="195.9" stroke="rgb(0,0,0)"  stroke-width="1.0"/>
<line x1="408.1" y1="157.3" x2="396.1" y2="164.2" stroke="rgb(0,0,0)"  stroke-width="1.0"/>
<line x1="405.1" y1="152.1" x2="393.1" y2="159.0" stroke="rgb(0,0,0)"  stroke-width="1.0"/>
<line x1="132.1" y1="105.5" x2="132.3" y2="132.5" stroke="rgb(0,0,0)"  stroke-width="1.0"/>
<line x1="126.1" y1="105.5" x2="126.3" y2="132.5" stroke="rgb(0,0,0)"  stroke-width="1.0"/>
<line x1="59.2" y1="143.8" x2="84.5" y2="152.0" stroke="rgb(0,0,0)"  stroke-width="1.0"/>
<line x1="100.9" y1="168.3" x2="109.3" y2="194.2" stroke="rgb(0,0,0)"  stroke-width="1.0"/>
<line x1="109.3" y1="194.2" x2="136.3" y2="194.2" stroke="rgb(0,0,0)"  stroke-width="1.0"/>
<line x1="153.3" y1="181.8" x2="161.7" y2="156.0" stroke="rgb(0,0,0)"  stroke-width="1.0"/>
<line x1="161.7" y1="156.0" x2="129.3" y2="132.5" stroke="rgb(0,0,0)"  stroke-width="1.0"/>
<line x1="129.3" y1="132.5" x2="107.4" y2="148.4" stroke="rgb(0,0,0)"  stroke-width="1.0"/>
<line x1="208.0" y1="104.7" x2="181.0" y2="74.8" stroke="rgb(0,0,0)"  stroke-width="1.0"/>
<line x1="209.3" y1="95.4" x2="190.4" y2="74.4" stroke="rgb(0,0,0)"  stroke-width="1.0"/>
<line x1="181.0" y1="74.8" x2="200.8" y2="40.0" stroke="rgb(0,0,0)"  stroke-width="1.0"/>
<line x1="200.8" y1="40.0" x2="240.2" y2="48.5" stroke="rgb(0,0,0)"  stroke-width="1.0"/>
<line x1="205.2" y1="48.3" x2="232.8" y2="54.3" stroke="rgb(0,0,0)"  stroke-width="1.0"/>
<line x1="240.2" y1="48.5" x2="243.1" y2="75.4" stroke="rgb(0,0,0)"  stroke-width="1.0"/>
<line x1="232.6" y1="93.6" x2="208.0" y2="104.7" stroke="rgb(0,0,0)"  stroke-width="1.0"/>
<line x1="279.5" y1="108.2" x2="314.0" y2="88.2" stroke="rgb(0,0,0)"  stroke-width="1.0"/>
<line x1="314.0" y1="88.2" x2="348.5" y2="108.3" stroke="rgb(0,0,0)"  stroke-width="1.0"/>
<line x1="315.5" y1="97.4" x2="339.7" y2="111.5" stroke="rgb(0,0,0)"  stroke-width="1.0"/>
<line x1="348.5" y1="108.3" x2="348.5" y2="148.2" stroke="rgb(0,0,0)"  stroke-width="1.0"/>
<line x1="348.5" y1="148.2" x2="313.8" y2="168.2" stroke="rgb(0,0,0)"  stroke-width="1.0"/>
<line x1="339.7" y1="144.9" x2="315.4" y2="158.9" stroke="rgb(0,0,0)"  stroke-width="1.0"/>
<line x1="313.8" y1="168.2" x2="279.3" y2="148.2" stroke="rgb(0,0,0)"  stroke-width="1.0"/>
<line x1="279.3" y1="148.2" x2="279.5" y2="108.2" stroke="rgb(0,0,0)"  stroke-width="1.0"/>
<line x1="286.5" y1="142.2" x2="286.7" y2="114.2" stroke="rgb(0,0,0)"  stroke-width="1.0"/>
<text x="90.827133" y="163.991155" fill="rgb(12,12,255)"  stroke="rgb(12,12,255)" stroke-width="1" font-size="16" >N</text>
<text x="143.324718" y="202.157113" fill="rgb(178,178,0)"  stroke="rgb(178,178,0)" stroke-width="1" font-size="16" >S</text>
<text x="238.487500" y="96.332880" fill="rgb(12,12,255)"  stroke="rgb(12,12,255)" stroke-width="1" font-size="16" >N</text>
<text x="388.109383" y="164.128433" fill="rgb(12,12,255)"  stroke="rgb(12,12,255)" stroke-width="1" font-size="16" >+</text>
<text x="377.309383" y="176.160433" fill="rgb(12,12,255)"  stroke="rgb(12,12,255)" stroke-width="1" font-size="16" >N</text>
<text x="22.000000" y="73.996680" fill="rgb(102,102,102)"  stroke="rgb(102,102,102)" stroke-width="1" font-size="16" >HC</text>
<text x="387.610006" y="193.877363" fill="rgb(255,12,12)"  stroke="rgb(255,12,12)" stroke-width="1" font-size="16" >_</text>
<text x="376.810006" y="215.989363" fill="rgb(255,12,12)"  stroke="rgb(255,12,12)" stroke-width="1" font-size="16" >O</text>
<text x="79.831148" y="234.156010" fill="rgb(255,12,12)"  stroke="rgb(255,12,12)" stroke-width="1" font-size="16" >O</text>
<text x="411.805164" y="156.161122" fill="rgb(255,12,12)"  stroke="rgb(255,12,12)" stroke-width="1" font-size="16" >O</text>
<text x="122.995721" y="100.497585" fill="rgb(255,12,12)"  stroke="rgb(255,12,12)" stroke-width="1" font-size="16" >O</text>
<text font-size="18.000000" fill ="black" font-family="sans-serif"
x="10.000000" y="20.000000" ></text>
<title> - OBDepict</title>
</svg>
