<?xml version="1.0"?>
<svg xmlns="http://www.w3.org/2000/svg"
xmlns:xlink="http://www.w3.org/1999/xlink" xmlns:cml="http://www.xml-cml.org/schema" width="377.479" height="425.979" x="0" y="0" font-family="sans-serif" stroke="rgb(0,0,0)" stroke-width="1"  stroke-linecap="round">
<rect x="0%" y="0%" width="100%" height="100%" stroke-width="0" fill="rgb(255,255,255)"  />
<line x1="189.3" y1="228.4" x2="165.0" y2="242.5" stroke="rgb(0,0,0)"  stroke-width="1.0"/>
<line x1="186.3" y1="223.2" x2="162.0" y2="237.3" stroke="rgb(0,0,0)"  stroke-width="1.0"/>
<line x1="198.6" y1="179.6" x2="198.9" y2="206.3" stroke="rgb(0,0,0)"  stroke-width="1.0"/>
<line x1="179.2" y1="346.6" x2="188.3" y2="307.6" stroke="rgb(0,0,0)"  stroke-width="1.0"/>
<line x1="173.1" y1="373.3" x2="179.2" y2="346.6" stroke="rgb(0,0,0)"  stroke-width="1.0"/>
<line x1="169.0" y1="372.4" x2="175.2" y2="345.6" stroke="rgb(0,0,0)"  stroke-width="1.0"/>
<line x1="177.2" y1="374.3" x2="183.3" y2="347.5" stroke="rgb(0,0,0)"  stroke-width="1.0"/>
<line x1="188.3" y1="307.6" x2="168.5" y2="288.8" stroke="rgb(0,0,0)"  stroke-width="1.0"/>
<line x1="176.8" y1="163.6" x2="200.1" y2="177.0" stroke="rgb(0,0,0)"  stroke-width="1.0"/>
<line x1="173.8" y1="168.7" x2="197.1" y2="182.2" stroke="rgb(0,0,0)"  stroke-width="1.0"/>
<line x1="233.2" y1="133.6" x2="233.2" y2="159.6" stroke="rgb(0,0,0)"  stroke-width="1.0"/>
<line x1="233.2" y1="159.6" x2="198.6" y2="179.6" stroke="rgb(0,0,0)"  stroke-width="1.0"/>
<line x1="268.4" y1="100.0" x2="244.4" y2="114.1" stroke="rgb(0,0,0)"  stroke-width="1.0"/>
<line x1="111.9" y1="345.2" x2="99.0" y2="321.1" stroke="rgb(0,0,0)"  stroke-width="1.0"/>
<line x1="163.5" y1="239.9" x2="140.1" y2="228.8" stroke="rgb(0,0,0)"  stroke-width="1.0"/>
<line x1="119.3" y1="232.6" x2="100.4" y2="252.0" stroke="rgb(0,0,0)"  stroke-width="1.0"/>
<line x1="100.4" y1="252.0" x2="119.8" y2="287.2" stroke="rgb(0,0,0)"  stroke-width="1.0"/>
<line x1="109.6" y1="253.8" x2="123.2" y2="278.4" stroke="rgb(0,0,0)"  stroke-width="1.0"/>
<line x1="119.8" y1="287.2" x2="146.2" y2="282.3" stroke="rgb(0,0,0)"  stroke-width="1.0"/>
<line x1="160.5" y1="267.0" x2="163.5" y2="239.9" stroke="rgb(0,0,0)"  stroke-width="1.0"/>
<line x1="268.4" y1="100.0" x2="302.9" y2="120.0" stroke="rgb(0,0,0)"  stroke-width="1.0"/>
<line x1="277.2" y1="96.8" x2="301.3" y2="110.8" stroke="rgb(0,0,0)"  stroke-width="1.0"/>
<line x1="302.9" y1="120.0" x2="337.5" y2="100.0" stroke="rgb(0,0,0)"  stroke-width="1.0"/>
<line x1="337.5" y1="100.0" x2="337.5" y2="60.2" stroke="rgb(0,0,0)"  stroke-width="1.0"/>
<line x1="330.3" y1="94.0" x2="330.3" y2="66.2" stroke="rgb(0,0,0)"  stroke-width="1.0"/>
<line x1="337.5" y1="60.2" x2="302.7" y2="40.0" stroke="rgb(0,0,0)"  stroke-width="1.0"/>
<line x1="302.7" y1="40.0" x2="267.8" y2="60.2" stroke="rgb(0,0,0)"  stroke-width="1.0"/>
<line x1="301.1" y1="49.2" x2="276.6" y2="63.4" stroke="rgb(0,0,0)"  stroke-width="1.0"/>
<line x1="267.8" y1="60.2" x2="268.4" y2="100.0" stroke="rgb(0,0,0)"  stroke-width="1.0"/>
<line x1="99.0" y1="321.1" x2="60.0" y2="320.5" stroke="rgb(0,0,0)"  stroke-width="1.0"/>
<line x1="93.1" y1="313.8" x2="66.1" y2="313.4" stroke="rgb(0,0,0)"  stroke-width="1.0"/>
<line x1="60.0" y1="320.5" x2="40.0" y2="285.1" stroke="rgb(0,0,0)"  stroke-width="1.0"/>
<line x1="40.0" y1="285.1" x2="60.8" y2="250.8" stroke="rgb(0,0,0)"  stroke-width="1.0"/>
<line x1="49.3" y1="283.7" x2="63.9" y2="259.6" stroke="rgb(0,0,0)"  stroke-width="1.0"/>
<line x1="60.8" y1="250.8" x2="100.4" y2="252.0" stroke="rgb(0,0,0)"  stroke-width="1.0"/>
<line x1="119.8" y1="287.2" x2="99.0" y2="321.1" stroke="rgb(0,0,0)"  stroke-width="1.0"/>
<text x="153.031484" y="287.880057" fill="rgb(12,12,255)"  stroke="rgb(12,12,255)" stroke-width="1" font-size="16" >N</text>
<text x="193.046220" y="227.252257" fill="rgb(12,12,255)"  stroke="rgb(12,12,255)" stroke-width="1" font-size="16" >N</text>
<text x="122.315401" y="231.293464" fill="rgb(178,178,0)"  stroke="rgb(178,178,0)" stroke-width="1" font-size="16" >S</text>
<text x="152.152072" y="393.978709" fill="rgb(102,102,102)"  stroke="rgb(102,102,102)" stroke-width="1" font-size="16" >HC</text>
<text x="158.085416" y="167.637180" fill="rgb(255,12,12)"  stroke="rgb(255,12,12)" stroke-width="1" font-size="16" >O</text>
<text x="227.202659" y="128.630323" fill="rgb(255,12,12)"  stroke="rgb(255,12,12)" stroke-width="1" font-size="16" >O</text>
<text x="114.008869" y="364.672687" fill="rgb(102,102,102)"  stroke="rgb(102,102,102)" stroke-width="1" font-size="16" >CH</text>
<text x="138.008869" y="368.352687" fill="rgb(102,102,102)"  stroke="rgb(102,102,102)" stroke-width="1" font-size="13" >3</text>
<text font-size="18.000000" fill ="black" font-family="sans-serif"
x="10.000000" y="20.000000" ></text>
<title> - OBDepict</title>
</svg>
