<?xml version="1.0"?>
<svg xmlns="http://www.w3.org/2000/svg"
xmlns:xlink="http://www.w3.org/1999/xlink" xmlns:cml="http://www.xml-cml.org/schema" width="426.233" height="419.97" x="0" y="0" font-family="sans-serif" stroke="rgb(0,0,0)" stroke-width="1"  stroke-linecap="round">
<rect x="0%" y="0%" width="100%" height="100%" stroke-width="0" fill="rgb(255,255,255)"  />
<line x1="109.3" y1="160.0" x2="143.8" y2="140.0" stroke="rgb(0,0,0)"  stroke-width="1.0"/>
<line x1="213.1" y1="100.0" x2="236.4" y2="86.5" stroke="rgb(0,0,0)"  stroke-width="1.0"/>
<line x1="351.7" y1="60.0" x2="316.9" y2="80.0" stroke="rgb(0,0,0)"  stroke-width="1.0"/>
<line x1="375.0" y1="46.5" x2="351.7" y2="60.0" stroke="rgb(0,0,0)"  stroke-width="1.0"/>
<line x1="377.1" y1="50.1" x2="353.8" y2="63.6" stroke="rgb(0,0,0)"  stroke-width="1.0"/>
<line x1="372.9" y1="42.9" x2="349.6" y2="56.4" stroke="rgb(0,0,0)"  stroke-width="1.0"/>
<line x1="109.3" y1="187.0" x2="109.3" y2="160.0" stroke="rgb(0,0,0)"  stroke-width="1.0"/>
<line x1="236.7" y1="55.0" x2="243.8" y2="67.2" stroke="rgb(0,0,0)"  stroke-width="1.0"/>
<line x1="231.5" y1="58.0" x2="238.6" y2="70.2" stroke="rgb(0,0,0)"  stroke-width="1.0"/>
<line x1="258.5" y1="104.8" x2="251.6" y2="92.8" stroke="rgb(0,0,0)"  stroke-width="1.0"/>
<line x1="263.7" y1="101.8" x2="256.8" y2="89.7" stroke="rgb(0,0,0)"  stroke-width="1.0"/>
<line x1="271.1" y1="66.5" x2="258.9" y2="73.5" stroke="rgb(0,0,0)"  stroke-width="1.0"/>
<line x1="87.3" y1="143.9" x2="110.8" y2="157.4" stroke="rgb(0,0,0)"  stroke-width="1.0"/>
<line x1="84.3" y1="149.1" x2="107.8" y2="162.6" stroke="rgb(0,0,0)"  stroke-width="1.0"/>
<line x1="74.5" y1="220.0" x2="98.0" y2="206.5" stroke="rgb(0,0,0)"  stroke-width="1.0"/>
<line x1="74.5" y1="260.0" x2="74.5" y2="220.0" stroke="rgb(0,0,0)"  stroke-width="1.0"/>
<line x1="316.9" y1="80.0" x2="293.7" y2="66.5" stroke="rgb(0,0,0)"  stroke-width="1.0"/>
<line x1="74.5" y1="367.0" x2="74.5" y2="340.0" stroke="rgb(0,0,0)"  stroke-width="1.0"/>
<line x1="213.1" y1="100.0" x2="213.1" y2="140.0" stroke="rgb(0,0,0)"  stroke-width="1.0"/>
<line x1="213.1" y1="140.0" x2="178.6" y2="160.0" stroke="rgb(0,0,0)"  stroke-width="1.0"/>
<line x1="204.3" y1="136.8" x2="180.2" y2="150.8" stroke="rgb(0,0,0)"  stroke-width="1.0"/>
<line x1="178.6" y1="160.0" x2="143.8" y2="140.0" stroke="rgb(0,0,0)"  stroke-width="1.0"/>
<line x1="143.8" y1="140.0" x2="143.8" y2="100.0" stroke="rgb(0,0,0)"  stroke-width="1.0"/>
<line x1="151.0" y1="134.0" x2="151.0" y2="106.0" stroke="rgb(0,0,0)"  stroke-width="1.0"/>
<line x1="143.8" y1="100.0" x2="178.6" y2="80.0" stroke="rgb(0,0,0)"  stroke-width="1.0"/>
<line x1="178.6" y1="80.0" x2="213.1" y2="100.0" stroke="rgb(0,0,0)"  stroke-width="1.0"/>
<line x1="180.2" y1="89.2" x2="204.3" y2="103.2" stroke="rgb(0,0,0)"  stroke-width="1.0"/>
<line x1="74.5" y1="260.0" x2="109.3" y2="280.0" stroke="rgb(0,0,0)"  stroke-width="1.0"/>
<line x1="109.3" y1="280.0" x2="109.3" y2="320.0" stroke="rgb(0,0,0)"  stroke-width="1.0"/>
<line x1="102.1" y1="286.0" x2="102.1" y2="314.0" stroke="rgb(0,0,0)"  stroke-width="1.0"/>
<line x1="109.3" y1="320.0" x2="74.5" y2="340.0" stroke="rgb(0,0,0)"  stroke-width="1.0"/>
<line x1="74.5" y1="340.0" x2="40.0" y2="320.0" stroke="rgb(0,0,0)"  stroke-width="1.0"/>
<line x1="73.0" y1="330.7" x2="48.8" y2="316.8" stroke="rgb(0,0,0)"  stroke-width="1.0"/>
<line x1="40.0" y1="320.0" x2="40.0" y2="280.0" stroke="rgb(0,0,0)"  stroke-width="1.0"/>
<line x1="40.0" y1="280.0" x2="74.5" y2="260.0" stroke="rgb(0,0,0)"  stroke-width="1.0"/>
<line x1="48.8" y1="283.2" x2="73.0" y2="269.2" stroke="rgb(0,0,0)"  stroke-width="1.0"/>
<text x="241.656522" y="87.996412" fill="rgb(178,178,0)"  stroke="rgb(178,178,0)" stroke-width="1" font-size="16" >S</text>
<text x="380.233181" y="48.000000" fill="rgb(102,102,102)"  stroke="rgb(102,102,102)" stroke-width="1" font-size="16" >CH</text>
<text x="103.288330" y="207.985647" fill="rgb(12,12,255)"  stroke="rgb(12,12,255)" stroke-width="1" font-size="16" >NH</text>
<text x="221.658316" y="53.250438" fill="rgb(255,12,12)"  stroke="rgb(255,12,12)" stroke-width="1" font-size="16" >O</text>
<text x="261.654728" y="122.538768" fill="rgb(255,12,12)"  stroke="rgb(255,12,12)" stroke-width="1" font-size="16" >O</text>
<text x="276.402496" y="67.998206" fill="rgb(12,12,255)"  stroke="rgb(12,12,255)" stroke-width="1" font-size="16" >N</text>
<text x="276.402496" y="51.998206" fill="rgb(12,12,255)"  stroke="rgb(12,12,255)" stroke-width="1" font-size="16" >H</text>
<text x="68.542356" y="147.991030" fill="rgb(255,12,12)"  stroke="rgb(255,12,12)" stroke-width="1" font-size="16" >O</text>
<text x="68.542356" y="387.969501" fill="rgb(127,178,255)"  stroke="rgb(127,178,255)" stroke-width="1" font-size="16" >F</text>
<text font-size="18.000000" fill ="black" font-family="sans-serif"
x="10.000000" y="20.000000" ></text>
<title> - OBDepict</title>
</svg>
