<?xml version="1.0"?>
<svg xmlns="http://www.w3.org/2000/svg"
xmlns:xlink="http://www.w3.org/1999/xlink" xmlns:cml="http://www.xml-cml.org/schema" width="253.948" height="359.701" x="0" y="0" font-family="sans-serif" stroke="rgb(0,0,0)" stroke-width="1"  stroke-linecap="round">
<rect x="0%" y="0%" width="100%" height="100%" stroke-width="0" fill="rgb(255,255,255)"  />
<line x1="144.4" y1="279.7" x2="144.6" y2="239.9" stroke="rgb(0,0,0)"  stroke-width="1.0"/>
<line x1="144.4" y1="306.7" x2="144.4" y2="279.7" stroke="rgb(0,0,0)"  stroke-width="1.0"/>
<line x1="140.2" y1="306.7" x2="140.2" y2="279.7" stroke="rgb(0,0,0)"  stroke-width="1.0"/>
<line x1="148.6" y1="306.7" x2="148.6" y2="279.7" stroke="rgb(0,0,0)"  stroke-width="1.0"/>
<line x1="52.8" y1="103.8" x2="76.8" y2="117.4" stroke="rgb(0,0,0)"  stroke-width="1.0"/>
<line x1="49.8" y1="109.0" x2="73.8" y2="122.6" stroke="rgb(0,0,0)"  stroke-width="1.0"/>
<line x1="110.0" y1="206.9" x2="110.0" y2="180.0" stroke="rgb(0,0,0)"  stroke-width="1.0"/>
<line x1="144.6" y1="239.9" x2="121.2" y2="226.4" stroke="rgb(0,0,0)"  stroke-width="1.0"/>
<line x1="202.7" y1="46.5" x2="179.1" y2="60.0" stroke="rgb(0,0,0)"  stroke-width="1.0"/>
<line x1="121.2" y1="106.5" x2="144.4" y2="120.0" stroke="rgb(0,0,0)"  stroke-width="1.0"/>
<line x1="144.4" y1="120.0" x2="144.4" y2="146.8" stroke="rgb(0,0,0)"  stroke-width="1.0"/>
<line x1="137.2" y1="126.0" x2="137.2" y2="144.8" stroke="rgb(0,0,0)"  stroke-width="1.0"/>
<line x1="133.2" y1="166.5" x2="110.0" y2="180.0" stroke="rgb(0,0,0)"  stroke-width="1.0"/>
<line x1="110.0" y1="180.0" x2="86.8" y2="166.6" stroke="rgb(0,0,0)"  stroke-width="1.0"/>
<line x1="108.4" y1="170.7" x2="92.1" y2="161.3" stroke="rgb(0,0,0)"  stroke-width="1.0"/>
<line x1="75.3" y1="147.0" x2="75.3" y2="120.0" stroke="rgb(0,0,0)"  stroke-width="1.0"/>
<line x1="75.3" y1="120.0" x2="98.7" y2="106.5" stroke="rgb(0,0,0)"  stroke-width="1.0"/>
<line x1="144.4" y1="120.0" x2="179.1" y2="100.0" stroke="rgb(0,0,0)"  stroke-width="1.0"/>
<line x1="179.1" y1="100.0" x2="179.1" y2="60.0" stroke="rgb(0,0,0)"  stroke-width="1.0"/>
<line x1="171.9" y1="94.0" x2="171.9" y2="66.0" stroke="rgb(0,0,0)"  stroke-width="1.0"/>
<line x1="179.1" y1="60.0" x2="144.4" y2="40.0" stroke="rgb(0,0,0)"  stroke-width="1.0"/>
<line x1="144.4" y1="40.0" x2="110.0" y2="60.0" stroke="rgb(0,0,0)"  stroke-width="1.0"/>
<line x1="142.8" y1="49.2" x2="118.8" y2="63.2" stroke="rgb(0,0,0)"  stroke-width="1.0"/>
<line x1="110.0" y1="60.0" x2="110.0" y2="87.0" stroke="rgb(0,0,0)"  stroke-width="1.0"/>
<text x="103.977450" y="107.982749" fill="rgb(12,12,255)"  stroke="rgb(12,12,255)" stroke-width="1" font-size="16" >N</text>
<text x="138.411183" y="167.965498" fill="rgb(12,12,255)"  stroke="rgb(12,12,255)" stroke-width="1" font-size="16" >N</text>
<text x="69.320751" y="167.965498" fill="rgb(12,12,255)"  stroke="rgb(12,12,255)" stroke-width="1" font-size="16" >N</text>
<text x="138.411183" y="327.701376" fill="rgb(102,102,102)"  stroke="rgb(102,102,102)" stroke-width="1" font-size="16" >CH</text>
<text x="34.000000" y="107.982749" fill="rgb(255,12,12)"  stroke="rgb(255,12,12)" stroke-width="1" font-size="16" >O</text>
<text x="103.977450" y="227.948247" fill="rgb(178,178,0)"  stroke="rgb(178,178,0)" stroke-width="1" font-size="16" >S</text>
<text x="209.947548" y="48.000000" fill="rgb(102,102,102)"  stroke="rgb(102,102,102)" stroke-width="1" font-size="16" >CH</text>
<text x="233.947548" y="51.680000" fill="rgb(102,102,102)"  stroke="rgb(102,102,102)" stroke-width="1" font-size="13" >3</text>
<text font-size="18.000000" fill ="black" font-family="sans-serif"
x="10.000000" y="20.000000" ></text>
<title> - OBDepict</title>
</svg>
