<?xml version="1.0"?>
<svg xmlns="http://www.w3.org/2000/svg"
xmlns:xlink="http://www.w3.org/1999/xlink" xmlns:cml="http://www.xml-cml.org/schema" width="279.119" height="418.11" x="0" y="0" font-family="sans-serif" stroke="rgb(0,0,0)" stroke-width="1"  stroke-linecap="round">
<rect x="0%" y="0%" width="100%" height="100%" stroke-width="0" fill="rgb(255,255,255)"  />
<line x1="154.8" y1="241.9" x2="164.9" y2="216.9" stroke="rgb(0,0,0)"  stroke-width="1.0"/>
<line x1="51.5" y1="340.0" x2="66.2" y2="302.7" stroke="rgb(0,0,0)"  stroke-width="1.0"/>
<line x1="43.8" y1="365.7" x2="51.5" y2="340.0" stroke="rgb(0,0,0)"  stroke-width="1.0"/>
<line x1="39.7" y1="364.5" x2="47.5" y2="338.8" stroke="rgb(0,0,0)"  stroke-width="1.0"/>
<line x1="47.8" y1="366.9" x2="55.5" y2="341.2" stroke="rgb(0,0,0)"  stroke-width="1.0"/>
<line x1="115.5" y1="249.6" x2="154.8" y2="241.9" stroke="rgb(0,0,0)"  stroke-width="1.0"/>
<line x1="227.0" y1="211.3" x2="205.8" y2="194.7" stroke="rgb(0,0,0)"  stroke-width="1.0"/>
<line x1="230.7" y1="206.6" x2="209.5" y2="189.9" stroke="rgb(0,0,0)"  stroke-width="1.0"/>
<line x1="118.9" y1="171.5" x2="145.9" y2="169.7" stroke="rgb(0,0,0)"  stroke-width="1.0"/>
<line x1="119.3" y1="177.5" x2="146.3" y2="175.7" stroke="rgb(0,0,0)"  stroke-width="1.0"/>
<line x1="95.5" y1="231.4" x2="117.2" y2="247.2" stroke="rgb(0,0,0)"  stroke-width="1.0"/>
<line x1="91.9" y1="236.3" x2="113.7" y2="252.0" stroke="rgb(0,0,0)"  stroke-width="1.0"/>
<line x1="107.3" y1="275.3" x2="115.5" y2="249.6" stroke="rgb(0,0,0)"  stroke-width="1.0"/>
<line x1="66.2" y1="302.7" x2="91.3" y2="292.6" stroke="rgb(0,0,0)"  stroke-width="1.0"/>
<line x1="162.0" y1="194.3" x2="146.1" y2="172.7" stroke="rgb(0,0,0)"  stroke-width="1.0"/>
<line x1="146.1" y1="172.7" x2="169.3" y2="139.7" stroke="rgb(0,0,0)"  stroke-width="1.0"/>
<line x1="169.3" y1="139.7" x2="195.1" y2="148.4" stroke="rgb(0,0,0)"  stroke-width="1.0"/>
<line x1="207.5" y1="165.6" x2="207.6" y2="192.3" stroke="rgb(0,0,0)"  stroke-width="1.0"/>
<line x1="207.6" y1="192.3" x2="182.1" y2="200.7" stroke="rgb(0,0,0)"  stroke-width="1.0"/>
<line x1="169.3" y1="139.7" x2="129.2" y2="136.0" stroke="rgb(0,0,0)"  stroke-width="1.0"/>
<line x1="129.2" y1="136.0" x2="103.1" y2="105.8" stroke="rgb(0,0,0)"  stroke-width="1.0"/>
<line x1="103.1" y1="105.8" x2="106.4" y2="66.0" stroke="rgb(0,0,0)"  stroke-width="1.0"/>
<line x1="106.4" y1="66.0" x2="136.6" y2="40.0" stroke="rgb(0,0,0)"  stroke-width="1.0"/>
<line x1="136.6" y1="40.0" x2="176.6" y2="43.0" stroke="rgb(0,0,0)"  stroke-width="1.0"/>
<line x1="176.6" y1="43.0" x2="202.4" y2="73.3" stroke="rgb(0,0,0)"  stroke-width="1.0"/>
<line x1="202.4" y1="73.3" x2="199.4" y2="113.2" stroke="rgb(0,0,0)"  stroke-width="1.0"/>
<line x1="199.4" y1="113.2" x2="169.3" y2="139.7" stroke="rgb(0,0,0)"  stroke-width="1.0"/>
<text x="163.723845" y="212.819484" fill="rgb(12,12,255)"  stroke="rgb(12,12,255)" stroke-width="1" font-size="16" >N</text>
<text x="201.444137" y="160.568995" fill="rgb(12,12,255)"  stroke="rgb(12,12,255)" stroke-width="1" font-size="16" >NH</text>
<text x="22.000000" y="386.109660" fill="rgb(102,102,102)"  stroke="rgb(102,102,102)" stroke-width="1" font-size="16" >HC</text>
<text x="233.119479" y="224.923938" fill="rgb(255,12,12)"  stroke="rgb(255,12,12)" stroke-width="1" font-size="16" >O</text>
<text x="100.169397" y="183.361270" fill="rgb(255,12,12)"  stroke="rgb(255,12,12)" stroke-width="1" font-size="16" >O</text>
<text x="77.173361" y="234.199976" fill="rgb(255,12,12)"  stroke="rgb(255,12,12)" stroke-width="1" font-size="16" >O</text>
<text x="97.345833" y="295.731354" fill="rgb(12,12,255)"  stroke="rgb(12,12,255)" stroke-width="1" font-size="16" >NH</text>
<text font-size="18.000000" fill ="black" font-family="sans-serif"
x="10.000000" y="20.000000" ></text>
<title> - OBDepict</title>
</svg>
