<?xml version="1.0"?>
<svg xmlns="http://www.w3.org/2000/svg"
xmlns:xlink="http://www.w3.org/1999/xlink" xmlns:cml="http://www.xml-cml.org/schema" width="308.746" height="383.379" x="0" y="0" font-family="sans-serif" stroke="rgb(0,0,0)" stroke-width="1"  stroke-linecap="round">
<rect x="0%" y="0%" width="100%" height="100%" stroke-width="0" fill="rgb(255,255,255)"  />
<line x1="201.1" y1="263.5" x2="162.9" y2="275.9" stroke="rgb(0,0,0)"  stroke-width="1.0"/>
<line x1="199.3" y1="257.8" x2="161.0" y2="270.1" stroke="rgb(0,0,0)"  stroke-width="1.0"/>
<line x1="229.8" y1="116.9" x2="224.5" y2="143.1" stroke="rgb(0,0,0)"  stroke-width="1.0"/>
<line x1="50.7" y1="221.4" x2="59.2" y2="260.7" stroke="rgb(0,0,0)"  stroke-width="1.0"/>
<line x1="43.5" y1="195.1" x2="50.7" y2="221.4" stroke="rgb(0,0,0)"  stroke-width="1.0"/>
<line x1="47.5" y1="194.0" x2="54.8" y2="220.3" stroke="rgb(0,0,0)"  stroke-width="1.0"/>
<line x1="39.4" y1="196.2" x2="46.7" y2="222.5" stroke="rgb(0,0,0)"  stroke-width="1.0"/>
<line x1="91.2" y1="331.1" x2="107.2" y2="309.4" stroke="rgb(0,0,0)"  stroke-width="1.0"/>
<line x1="96.0" y1="334.7" x2="112.0" y2="313.0" stroke="rgb(0,0,0)"  stroke-width="1.0"/>
<line x1="132.3" y1="222.3" x2="132.6" y2="249.3" stroke="rgb(0,0,0)"  stroke-width="1.0"/>
<line x1="126.3" y1="222.3" x2="126.6" y2="249.4" stroke="rgb(0,0,0)"  stroke-width="1.0"/>
<line x1="59.2" y1="260.7" x2="84.7" y2="269.0" stroke="rgb(0,0,0)"  stroke-width="1.0"/>
<line x1="208.1" y1="221.4" x2="200.2" y2="260.7" stroke="rgb(0,0,0)"  stroke-width="1.0"/>
<line x1="101.1" y1="285.3" x2="109.6" y2="311.2" stroke="rgb(0,0,0)"  stroke-width="1.0"/>
<line x1="109.6" y1="311.2" x2="136.6" y2="311.2" stroke="rgb(0,0,0)"  stroke-width="1.0"/>
<line x1="153.6" y1="298.9" x2="162.0" y2="273.0" stroke="rgb(0,0,0)"  stroke-width="1.0"/>
<line x1="162.0" y1="273.0" x2="129.6" y2="249.3" stroke="rgb(0,0,0)"  stroke-width="1.0"/>
<line x1="129.6" y1="249.3" x2="107.5" y2="265.4" stroke="rgb(0,0,0)"  stroke-width="1.0"/>
<line x1="223.6" y1="94.5" x2="205.6" y2="74.6" stroke="rgb(0,0,0)"  stroke-width="1.0"/>
<line x1="205.6" y1="74.6" x2="225.5" y2="40.0" stroke="rgb(0,0,0)"  stroke-width="1.0"/>
<line x1="225.5" y1="40.0" x2="264.5" y2="48.3" stroke="rgb(0,0,0)"  stroke-width="1.0"/>
<line x1="264.5" y1="48.3" x2="268.7" y2="87.9" stroke="rgb(0,0,0)"  stroke-width="1.0"/>
<line x1="268.7" y1="87.9" x2="244.2" y2="98.8" stroke="rgb(0,0,0)"  stroke-width="1.0"/>
<line x1="208.1" y1="221.4" x2="246.3" y2="209.1" stroke="rgb(0,0,0)"  stroke-width="1.0"/>
<line x1="211.6" y1="212.7" x2="238.4" y2="204.1" stroke="rgb(0,0,0)"  stroke-width="1.0"/>
<line x1="246.3" y1="209.1" x2="254.2" y2="169.8" stroke="rgb(0,0,0)"  stroke-width="1.0"/>
<line x1="254.2" y1="169.8" x2="224.5" y2="143.1" stroke="rgb(0,0,0)"  stroke-width="1.0"/>
<line x1="244.9" y1="171.2" x2="224.1" y2="152.5" stroke="rgb(0,0,0)"  stroke-width="1.0"/>
<line x1="224.5" y1="143.1" x2="186.6" y2="155.9" stroke="rgb(0,0,0)"  stroke-width="1.0"/>
<line x1="186.6" y1="155.9" x2="178.3" y2="194.7" stroke="rgb(0,0,0)"  stroke-width="1.0"/>
<line x1="192.4" y1="163.3" x2="186.6" y2="190.4" stroke="rgb(0,0,0)"  stroke-width="1.0"/>
<line x1="178.3" y1="194.7" x2="208.1" y2="221.4" stroke="rgb(0,0,0)"  stroke-width="1.0"/>
<text x="91.032547" y="280.996808" fill="rgb(12,12,255)"  stroke="rgb(12,12,255)" stroke-width="1" font-size="16" >N</text>
<text x="143.615333" y="319.222090" fill="rgb(178,178,0)"  stroke="rgb(178,178,0)" stroke-width="1" font-size="16" >S</text>
<text x="226.343063" y="112.109507" fill="rgb(12,12,255)"  stroke="rgb(12,12,255)" stroke-width="1" font-size="16" >N</text>
<text x="22.000000" y="190.586214" fill="rgb(102,102,102)"  stroke="rgb(102,102,102)" stroke-width="1" font-size="16" >HC</text>
<text x="79.908146" y="351.378635" fill="rgb(255,12,12)"  stroke="rgb(255,12,12)" stroke-width="1" font-size="16" >O</text>
<text x="123.193939" y="217.284774" fill="rgb(255,12,12)"  stroke="rgb(255,12,12)" stroke-width="1" font-size="16" >O</text>
<text font-size="18.000000" fill ="black" font-family="sans-serif"
x="10.000000" y="20.000000" ></text>
<title> - OBDepict</title>
</svg>
