<?xml version="1.0"?>
<svg xmlns="http://www.w3.org/2000/svg"
xmlns:xlink="http://www.w3.org/1999/xlink" xmlns:cml="http://www.xml-cml.org/schema" width="367.803" height="392.194" x="0" y="0" font-family="sans-serif" stroke="rgb(0,0,0)" stroke-width="1"  stroke-linecap="round">
<rect x="0%" y="0%" width="100%" height="100%" stroke-width="0" fill="rgb(255,255,255)"  />
<line x1="245.0" y1="197.5" x2="255.1" y2="235.9" stroke="rgb(0,0,0)"  stroke-width="1.0"/>
<line x1="199.4" y1="135.1" x2="178.3" y2="118.2" stroke="rgb(0,0,0)"  stroke-width="1.0"/>
<line x1="257.3" y1="238.0" x2="229.2" y2="266.4" stroke="rgb(0,0,0)"  stroke-width="1.0"/>
<line x1="253.0" y1="233.8" x2="225.0" y2="262.2" stroke="rgb(0,0,0)"  stroke-width="1.0"/>
<line x1="178.3" y1="118.2" x2="185.0" y2="78.9" stroke="rgb(0,0,0)"  stroke-width="1.0"/>
<line x1="227.1" y1="264.3" x2="188.5" y2="254.5" stroke="rgb(0,0,0)"  stroke-width="1.0"/>
<line x1="227.1" y1="264.3" x2="237.4" y2="303.1" stroke="rgb(0,0,0)"  stroke-width="1.0"/>
<line x1="185.0" y1="78.9" x2="190.6" y2="52.7" stroke="rgb(0,0,0)"  stroke-width="1.0"/>
<line x1="180.9" y1="78.0" x2="186.5" y2="51.8" stroke="rgb(0,0,0)"  stroke-width="1.0"/>
<line x1="189.1" y1="79.8" x2="194.7" y2="53.6" stroke="rgb(0,0,0)"  stroke-width="1.0"/>
<line x1="188.5" y1="254.5" x2="169.3" y2="273.7" stroke="rgb(0,0,0)"  stroke-width="1.0"/>
<line x1="185.6" y1="255.3" x2="178.3" y2="229.2" stroke="rgb(0,0,0)"  stroke-width="1.0"/>
<line x1="191.4" y1="253.7" x2="184.0" y2="227.6" stroke="rgb(0,0,0)"  stroke-width="1.0"/>
<line x1="237.4" y1="303.1" x2="244.3" y2="329.1" stroke="rgb(0,0,0)"  stroke-width="1.0"/>
<line x1="241.5" y1="302.0" x2="248.4" y2="328.0" stroke="rgb(0,0,0)"  stroke-width="1.0"/>
<line x1="233.4" y1="304.2" x2="240.2" y2="330.2" stroke="rgb(0,0,0)"  stroke-width="1.0"/>
<line x1="147.1" y1="282.8" x2="120.2" y2="282.5" stroke="rgb(0,0,0)"  stroke-width="1.0"/>
<line x1="100.1" y1="317.5" x2="113.6" y2="340.9" stroke="rgb(0,0,0)"  stroke-width="1.0"/>
<line x1="269.7" y1="166.3" x2="248.0" y2="133.0" stroke="rgb(0,0,0)"  stroke-width="1.0"/>
<line x1="248.0" y1="133.0" x2="222.1" y2="139.9" stroke="rgb(0,0,0)"  stroke-width="1.0"/>
<line x1="208.8" y1="156.2" x2="207.4" y2="183.3" stroke="rgb(0,0,0)"  stroke-width="1.0"/>
<line x1="207.4" y1="183.3" x2="245.0" y2="197.5" stroke="rgb(0,0,0)"  stroke-width="1.0"/>
<line x1="215.5" y1="178.7" x2="241.9" y2="188.7" stroke="rgb(0,0,0)"  stroke-width="1.0"/>
<line x1="245.0" y1="197.5" x2="269.7" y2="166.3" stroke="rgb(0,0,0)"  stroke-width="1.0"/>
<line x1="269.7" y1="166.3" x2="309.6" y2="164.4" stroke="rgb(0,0,0)"  stroke-width="1.0"/>
<line x1="275.3" y1="158.8" x2="303.3" y2="157.5" stroke="rgb(0,0,0)"  stroke-width="1.0"/>
<line x1="309.6" y1="164.4" x2="327.8" y2="128.7" stroke="rgb(0,0,0)"  stroke-width="1.0"/>
<line x1="327.8" y1="128.7" x2="306.1" y2="95.5" stroke="rgb(0,0,0)"  stroke-width="1.0"/>
<line x1="318.5" y1="127.6" x2="303.3" y2="104.4" stroke="rgb(0,0,0)"  stroke-width="1.0"/>
<line x1="306.1" y1="95.5" x2="266.0" y2="97.6" stroke="rgb(0,0,0)"  stroke-width="1.0"/>
<line x1="266.0" y1="97.6" x2="248.0" y2="133.0" stroke="rgb(0,0,0)"  stroke-width="1.0"/>
<line x1="269.7" y1="106.2" x2="257.1" y2="131.0" stroke="rgb(0,0,0)"  stroke-width="1.0"/>
<line x1="120.2" y1="282.5" x2="100.6" y2="247.8" stroke="rgb(0,0,0)"  stroke-width="1.0"/>
<line x1="100.6" y1="247.8" x2="60.2" y2="247.5" stroke="rgb(0,0,0)"  stroke-width="1.0"/>
<line x1="94.6" y1="254.9" x2="66.2" y2="254.7" stroke="rgb(0,0,0)"  stroke-width="1.0"/>
<line x1="60.2" y1="247.5" x2="40.0" y2="281.9" stroke="rgb(0,0,0)"  stroke-width="1.0"/>
<line x1="40.0" y1="281.9" x2="59.5" y2="317.1" stroke="rgb(0,0,0)"  stroke-width="1.0"/>
<line x1="49.2" y1="283.6" x2="62.9" y2="308.4" stroke="rgb(0,0,0)"  stroke-width="1.0"/>
<line x1="59.5" y1="317.1" x2="100.1" y2="317.5" stroke="rgb(0,0,0)"  stroke-width="1.0"/>
<line x1="100.1" y1="317.5" x2="120.2" y2="282.5" stroke="rgb(0,0,0)"  stroke-width="1.0"/>
<line x1="96.9" y1="308.7" x2="110.9" y2="284.2" stroke="rgb(0,0,0)"  stroke-width="1.0"/>
<text x="203.541128" y="151.235559" fill="rgb(12,12,255)"  stroke="rgb(12,12,255)" stroke-width="1" font-size="16" >N</text>
<text x="187.343425" y="48.000000" fill="rgb(102,102,102)"  stroke="rgb(102,102,102)" stroke-width="1" font-size="16" >CH</text>
<text x="154.096270" y="290.873607" fill="rgb(12,12,255)"  stroke="rgb(12,12,255)" stroke-width="1" font-size="16" >N</text>
<text x="154.096270" y="306.873607" fill="rgb(12,12,255)"  stroke="rgb(12,12,255)" stroke-width="1" font-size="16" >H</text>
<text x="171.639347" y="223.895352" fill="rgb(255,12,12)"  stroke="rgb(255,12,12)" stroke-width="1" font-size="16" >O</text>
<text x="241.627752" y="349.673159" fill="rgb(12,12,255)"  stroke="rgb(12,12,255)" stroke-width="1" font-size="16" >N</text>
<text x="116.015786" y="360.194165" fill="rgb(102,102,102)"  stroke="rgb(102,102,102)" stroke-width="1" font-size="16" >CH</text>
<text x="140.015786" y="363.874165" fill="rgb(102,102,102)"  stroke="rgb(102,102,102)" stroke-width="1" font-size="13" >3</text>
<text font-size="18.000000" fill ="black" font-family="sans-serif"
x="10.000000" y="20.000000" ></text>
<title> - OBDepict</title>
</svg>
