<?xml version="1.0"?>
<svg xmlns="http://www.w3.org/2000/svg"
xmlns:xlink="http://www.w3.org/1999/xlink" xmlns:cml="http://www.xml-cml.org/schema" width="450.647" height="313.41" x="0" y="0" font-family="sans-serif" stroke="rgb(0,0,0)" stroke-width="1"  stroke-linecap="round">
<rect x="0%" y="0%" width="100%" height="100%" stroke-width="0" fill="rgb(255,255,255)"  />
<line x1="331.9" y1="169.8" x2="309.5" y2="157.1" stroke="rgb(0,0,0)"  stroke-width="1.0"/>
<line x1="210.1" y1="95.8" x2="243.8" y2="115.2" stroke="rgb(0,0,0)"  stroke-width="1.0"/>
<line x1="207.1" y1="101.0" x2="240.8" y2="120.4" stroke="rgb(0,0,0)"  stroke-width="1.0"/>
<line x1="174.9" y1="117.8" x2="208.6" y2="98.4" stroke="rgb(0,0,0)"  stroke-width="1.0"/>
<line x1="376.9" y1="156.7" x2="354.5" y2="169.7" stroke="rgb(0,0,0)"  stroke-width="1.0"/>
<line x1="40.0" y1="234.5" x2="73.7" y2="215.1" stroke="rgb(0,0,0)"  stroke-width="1.0"/>
<line x1="40.0" y1="260.4" x2="40.0" y2="234.5" stroke="rgb(0,0,0)"  stroke-width="1.0"/>
<line x1="35.8" y1="260.4" x2="35.8" y2="234.5" stroke="rgb(0,0,0)"  stroke-width="1.0"/>
<line x1="44.2" y1="260.4" x2="44.2" y2="234.5" stroke="rgb(0,0,0)"  stroke-width="1.0"/>
<line x1="278.8" y1="72.5" x2="278.8" y2="98.4" stroke="rgb(0,0,0)"  stroke-width="1.0"/>
<line x1="272.8" y1="72.5" x2="272.8" y2="98.4" stroke="rgb(0,0,0)"  stroke-width="1.0"/>
<line x1="379.6" y1="130.8" x2="379.9" y2="156.7" stroke="rgb(0,0,0)"  stroke-width="1.0"/>
<line x1="373.6" y1="130.8" x2="373.9" y2="156.7" stroke="rgb(0,0,0)"  stroke-width="1.0"/>
<line x1="141.1" y1="202.1" x2="141.1" y2="176.2" stroke="rgb(0,0,0)"  stroke-width="1.0"/>
<line x1="85.0" y1="169.7" x2="107.4" y2="156.7" stroke="rgb(0,0,0)"  stroke-width="1.0"/>
<line x1="85.0" y1="104.8" x2="107.4" y2="117.8" stroke="rgb(0,0,0)"  stroke-width="1.0"/>
<line x1="73.7" y1="215.1" x2="73.7" y2="189.2" stroke="rgb(0,0,0)"  stroke-width="1.0"/>
<line x1="399.4" y1="169.5" x2="376.9" y2="156.7" stroke="rgb(0,0,0)"  stroke-width="1.0"/>
<line x1="73.7" y1="59.5" x2="73.7" y2="85.4" stroke="rgb(0,0,0)"  stroke-width="1.0"/>
<line x1="51.3" y1="46.5" x2="73.7" y2="59.5" stroke="rgb(0,0,0)"  stroke-width="1.0"/>
<line x1="298.2" y1="111.3" x2="275.8" y2="98.4" stroke="rgb(0,0,0)"  stroke-width="1.0"/>
<line x1="275.8" y1="98.4" x2="242.3" y2="117.8" stroke="rgb(0,0,0)"  stroke-width="1.0"/>
<line x1="242.3" y1="117.8" x2="242.3" y2="143.7" stroke="rgb(0,0,0)"  stroke-width="1.0"/>
<line x1="255.3" y1="156.8" x2="309.5" y2="157.1" stroke="rgb(0,0,0)"  stroke-width="1.0"/>
<line x1="309.5" y1="157.1" x2="309.5" y2="130.8" stroke="rgb(0,0,0)"  stroke-width="1.0"/>
<line x1="302.3" y1="151.1" x2="302.3" y2="132.9" stroke="rgb(0,0,0)"  stroke-width="1.0"/>
<line x1="141.1" y1="176.2" x2="107.4" y2="156.7" stroke="rgb(0,0,0)"  stroke-width="1.0"/>
<line x1="139.5" y1="166.9" x2="116.2" y2="153.5" stroke="rgb(0,0,0)"  stroke-width="1.0"/>
<line x1="107.4" y1="156.7" x2="107.4" y2="117.8" stroke="rgb(0,0,0)"  stroke-width="1.0"/>
<line x1="107.4" y1="117.8" x2="141.1" y2="98.4" stroke="rgb(0,0,0)"  stroke-width="1.0"/>
<line x1="116.2" y1="121.0" x2="139.5" y2="107.6" stroke="rgb(0,0,0)"  stroke-width="1.0"/>
<line x1="141.1" y1="98.4" x2="174.9" y2="117.8" stroke="rgb(0,0,0)"  stroke-width="1.0"/>
<line x1="174.9" y1="117.8" x2="174.9" y2="156.7" stroke="rgb(0,0,0)"  stroke-width="1.0"/>
<line x1="167.7" y1="123.8" x2="167.7" y2="150.7" stroke="rgb(0,0,0)"  stroke-width="1.0"/>
<line x1="174.9" y1="156.7" x2="141.1" y2="176.2" stroke="rgb(0,0,0)"  stroke-width="1.0"/>
<text x="303.502364" y="125.804760" fill="rgb(12,12,255)"  stroke="rgb(12,12,255)" stroke-width="1" font-size="16" >N</text>
<text x="236.289544" y="164.704780" fill="rgb(178,178,0)"  stroke="rgb(178,178,0)" stroke-width="1" font-size="16" >S</text>
<text x="337.217288" y="184.157150" fill="rgb(12,12,255)"  stroke="rgb(12,12,255)" stroke-width="1" font-size="16" >N</text>
<text x="337.217288" y="200.157150" fill="rgb(12,12,255)"  stroke="rgb(12,12,255)" stroke-width="1" font-size="16" >H</text>
<text x="34.000000" y="281.409561" fill="rgb(102,102,102)"  stroke="rgb(102,102,102)" stroke-width="1" font-size="16" >CH</text>
<text x="269.787440" y="67.452369" fill="rgb(255,12,12)"  stroke="rgb(255,12,12)" stroke-width="1" font-size="16" >O</text>
<text x="370.502873" y="125.804760" fill="rgb(255,12,12)"  stroke="rgb(255,12,12)" stroke-width="1" font-size="16" >O</text>
<text x="135.144772" y="223.057171" fill="rgb(30,239,30)"  stroke="rgb(30,239,30)" stroke-width="1" font-size="16" >Cl</text>
<text x="67.714924" y="184.157150" fill="rgb(255,12,12)"  stroke="rgb(255,12,12)" stroke-width="1" font-size="16" >O</text>
<text x="67.714924" y="106.352390" fill="rgb(255,12,12)"  stroke="rgb(255,12,12)" stroke-width="1" font-size="16" >O</text>
<text x="406.647136" y="183.940121" fill="rgb(102,102,102)"  stroke="rgb(102,102,102)" stroke-width="1" font-size="16" >CH</text>
<text x="430.647136" y="187.620121" fill="rgb(102,102,102)"  stroke="rgb(102,102,102)" stroke-width="1" font-size="13" >3</text>
<text x="14.000000" y="48.000000" fill="rgb(102,102,102)"  stroke="rgb(102,102,102)" stroke-width="1" font-size="16" >H</text>
<text x="26.000000" y="51.680000" fill="rgb(102,102,102)"  stroke="rgb(102,102,102)" stroke-width="1" font-size="13" >3</text>
<text x="32.500000" y="48.000000" fill="rgb(102,102,102)"  stroke="rgb(102,102,102)" stroke-width="1" font-size="16" >C</text>
<text font-size="18.000000" fill ="black" font-family="sans-serif"
x="10.000000" y="20.000000" ></text>
<title> - OBDepict</title>
</svg>
