<?xml version="1.0"?>
<svg xmlns="http://www.w3.org/2000/svg"
xmlns:xlink="http://www.w3.org/1999/xlink" xmlns:cml="http://www.xml-cml.org/schema" width="506.105" height="365.757" x="0" y="0" font-family="sans-serif" stroke="rgb(0,0,0)" stroke-width="1"  stroke-linecap="round">
<rect x="0%" y="0%" width="100%" height="100%" stroke-width="0" fill="rgb(255,255,255)"  />
<line x1="385.4" y1="106.8" x2="361.9" y2="120.6" stroke="rgb(0,0,0)"  stroke-width="1.0"/>
<line x1="247.7" y1="229.1" x2="224.3" y2="243.3" stroke="rgb(0,0,0)"  stroke-width="1.0"/>
<line x1="244.6" y1="223.9" x2="221.2" y2="238.2" stroke="rgb(0,0,0)"  stroke-width="1.0"/>
<line x1="257.3" y1="180.1" x2="257.3" y2="206.7" stroke="rgb(0,0,0)"  stroke-width="1.0"/>
<line x1="420.4" y1="86.9" x2="408.0" y2="93.8" stroke="rgb(0,0,0)"  stroke-width="1.0"/>
<line x1="288.0" y1="293.4" x2="250.0" y2="306.4" stroke="rgb(0,0,0)"  stroke-width="1.0"/>
<line x1="407.6" y1="125.3" x2="400.5" y2="113.0" stroke="rgb(0,0,0)"  stroke-width="1.0"/>
<line x1="412.8" y1="122.3" x2="405.7" y2="110.0" stroke="rgb(0,0,0)"  stroke-width="1.0"/>
<line x1="385.7" y1="75.2" x2="392.8" y2="87.4" stroke="rgb(0,0,0)"  stroke-width="1.0"/>
<line x1="380.5" y1="78.2" x2="387.6" y2="90.4" stroke="rgb(0,0,0)"  stroke-width="1.0"/>
<line x1="313.3" y1="284.2" x2="288.0" y2="293.4" stroke="rgb(0,0,0)"  stroke-width="1.0"/>
<line x1="314.8" y1="288.1" x2="289.4" y2="297.4" stroke="rgb(0,0,0)"  stroke-width="1.0"/>
<line x1="311.9" y1="280.2" x2="286.5" y2="289.5" stroke="rgb(0,0,0)"  stroke-width="1.0"/>
<line x1="291.8" y1="160.2" x2="257.3" y2="180.1" stroke="rgb(0,0,0)"  stroke-width="1.0"/>
<line x1="235.5" y1="164.4" x2="258.8" y2="177.5" stroke="rgb(0,0,0)"  stroke-width="1.0"/>
<line x1="232.6" y1="169.6" x2="255.8" y2="182.8" stroke="rgb(0,0,0)"  stroke-width="1.0"/>
<line x1="250.0" y1="306.4" x2="229.0" y2="288.5" stroke="rgb(0,0,0)"  stroke-width="1.0"/>
<line x1="431.6" y1="53.0" x2="431.7" y2="67.6" stroke="rgb(0,0,0)"  stroke-width="1.0"/>
<line x1="454.8" y1="93.6" x2="443.1" y2="87.0" stroke="rgb(0,0,0)"  stroke-width="1.0"/>
<line x1="222.8" y1="240.7" x2="197.6" y2="230.2" stroke="rgb(0,0,0)"  stroke-width="1.0"/>
<line x1="177.2" y1="235.1" x2="159.8" y2="255.5" stroke="rgb(0,0,0)"  stroke-width="1.0"/>
<line x1="159.8" y1="255.5" x2="180.4" y2="289.4" stroke="rgb(0,0,0)"  stroke-width="1.0"/>
<line x1="169.0" y1="256.9" x2="183.4" y2="280.5" stroke="rgb(0,0,0)"  stroke-width="1.0"/>
<line x1="180.4" y1="289.4" x2="206.5" y2="283.1" stroke="rgb(0,0,0)"  stroke-width="1.0"/>
<line x1="220.3" y1="267.2" x2="222.8" y2="240.7" stroke="rgb(0,0,0)"  stroke-width="1.0"/>
<line x1="291.8" y1="160.2" x2="292.2" y2="120.0" stroke="rgb(0,0,0)"  stroke-width="1.0"/>
<line x1="292.2" y1="120.0" x2="326.8" y2="100.2" stroke="rgb(0,0,0)"  stroke-width="1.0"/>
<line x1="301.0" y1="123.2" x2="325.1" y2="109.4" stroke="rgb(0,0,0)"  stroke-width="1.0"/>
<line x1="326.8" y1="100.2" x2="361.9" y2="120.6" stroke="rgb(0,0,0)"  stroke-width="1.0"/>
<line x1="361.9" y1="120.6" x2="361.3" y2="160.6" stroke="rgb(0,0,0)"  stroke-width="1.0"/>
<line x1="354.6" y1="126.5" x2="354.2" y2="154.5" stroke="rgb(0,0,0)"  stroke-width="1.0"/>
<line x1="361.3" y1="160.6" x2="326.8" y2="179.7" stroke="rgb(0,0,0)"  stroke-width="1.0"/>
<line x1="326.8" y1="179.7" x2="291.8" y2="160.2" stroke="rgb(0,0,0)"  stroke-width="1.0"/>
<line x1="325.1" y1="170.5" x2="300.6" y2="156.8" stroke="rgb(0,0,0)"  stroke-width="1.0"/>
<line x1="120.0" y1="256.1" x2="100.6" y2="291.2" stroke="rgb(0,0,0)"  stroke-width="1.0"/>
<line x1="100.6" y1="291.2" x2="61.2" y2="292.4" stroke="rgb(0,0,0)"  stroke-width="1.0"/>
<line x1="94.4" y1="284.2" x2="67.0" y2="285.1" stroke="rgb(0,0,0)"  stroke-width="1.0"/>
<line x1="61.2" y1="292.4" x2="40.0" y2="258.3" stroke="rgb(0,0,0)"  stroke-width="1.0"/>
<line x1="40.0" y1="258.3" x2="58.8" y2="223.2" stroke="rgb(0,0,0)"  stroke-width="1.0"/>
<line x1="49.2" y1="256.4" x2="62.3" y2="231.9" stroke="rgb(0,0,0)"  stroke-width="1.0"/>
<line x1="58.8" y1="223.2" x2="98.8" y2="222.2" stroke="rgb(0,0,0)"  stroke-width="1.0"/>
<line x1="98.8" y1="222.2" x2="120.0" y2="256.1" stroke="rgb(0,0,0)"  stroke-width="1.0"/>
<line x1="95.8" y1="231.1" x2="110.7" y2="254.8" stroke="rgb(0,0,0)"  stroke-width="1.0"/>
<line x1="161.6" y1="324.5" x2="121.8" y2="325.8" stroke="rgb(0,0,0)"  stroke-width="1.0"/>
<line x1="155.4" y1="317.5" x2="127.6" y2="318.4" stroke="rgb(0,0,0)"  stroke-width="1.0"/>
<line x1="121.8" y1="325.8" x2="100.6" y2="291.2" stroke="rgb(0,0,0)"  stroke-width="1.0"/>
<line x1="120.0" y1="256.1" x2="159.8" y2="255.5" stroke="rgb(0,0,0)"  stroke-width="1.0"/>
<line x1="180.4" y1="289.4" x2="161.6" y2="324.5" stroke="rgb(0,0,0)"  stroke-width="1.0"/>
<text x="390.638570" y="108.177456" fill="rgb(178,178,0)"  stroke="rgb(178,178,0)" stroke-width="1" font-size="16" >S</text>
<text x="251.294284" y="227.732459" fill="rgb(12,12,255)"  stroke="rgb(12,12,255)" stroke-width="1" font-size="16" >N</text>
<text x="179.602975" y="233.181542" fill="rgb(178,178,0)"  stroke="rgb(178,178,0)" stroke-width="1" font-size="16" >S</text>
<text x="213.131315" y="288.108681" fill="rgb(12,12,255)"  stroke="rgb(12,12,255)" stroke-width="1" font-size="16" >N</text>
<text x="425.776426" y="88.586938" fill="rgb(12,12,255)"  stroke="rgb(12,12,255)" stroke-width="1" font-size="16" >N</text>
<text x="410.626619" y="143.116547" fill="rgb(255,12,12)"  stroke="rgb(255,12,12)" stroke-width="1" font-size="16" >O</text>
<text x="370.645673" y="73.446827" fill="rgb(255,12,12)"  stroke="rgb(255,12,12)" stroke-width="1" font-size="16" >O</text>
<text x="319.553253" y="287.706302" fill="rgb(102,102,102)"  stroke="rgb(102,102,102)" stroke-width="1" font-size="16" >CH</text>
<text x="216.762420" y="168.558526" fill="rgb(255,12,12)"  stroke="rgb(255,12,12)" stroke-width="1" font-size="16" >O</text>
<text x="405.572813" y="48.000000" fill="rgb(102,102,102)"  stroke="rgb(102,102,102)" stroke-width="1" font-size="16" >H</text>
<text x="417.572813" y="51.680000" fill="rgb(102,102,102)"  stroke="rgb(102,102,102)" stroke-width="1" font-size="13" >3</text>
<text x="424.072813" y="48.000000" fill="rgb(102,102,102)"  stroke="rgb(102,102,102)" stroke-width="1" font-size="16" >C</text>
<text x="462.104676" y="107.973843" fill="rgb(102,102,102)"  stroke="rgb(102,102,102)" stroke-width="1" font-size="16" >CH</text>
<text x="486.104676" y="111.653843" fill="rgb(102,102,102)"  stroke="rgb(102,102,102)" stroke-width="1" font-size="13" >3</text>
<text font-size="18.000000" fill ="black" font-family="sans-serif"
x="10.000000" y="20.000000" ></text>
<title> - OBDepict</title>
</svg>
