<?xml version="1.0"?>
<svg xmlns="http://www.w3.org/2000/svg"
xmlns:xlink="http://www.w3.org/1999/xlink" xmlns:cml="http://www.xml-cml.org/schema" width="367.068" height="322.088" x="0" y="0" font-family="sans-serif" stroke="rgb(0,0,0)" stroke-width="1"  stroke-linecap="round">
<rect x="0%" y="0%" width="100%" height="100%" stroke-width="0" fill="rgb(255,255,255)"  />
<line x1="182.7" y1="151.2" x2="143.9" y2="161.0" stroke="rgb(0,0,0)"  stroke-width="1.0"/>
<line x1="181.2" y1="145.4" x2="142.4" y2="155.2" stroke="rgb(0,0,0)"  stroke-width="1.0"/>
<line x1="209.8" y1="176.3" x2="181.9" y2="148.3" stroke="rgb(0,0,0)"  stroke-width="1.0"/>
<line x1="307.9" y1="78.7" x2="297.6" y2="117.0" stroke="rgb(0,0,0)"  stroke-width="1.0"/>
<line x1="315.1" y1="52.5" x2="307.9" y2="78.7" stroke="rgb(0,0,0)"  stroke-width="1.0"/>
<line x1="319.2" y1="53.6" x2="312.0" y2="79.8" stroke="rgb(0,0,0)"  stroke-width="1.0"/>
<line x1="311.1" y1="51.4" x2="303.9" y2="77.5" stroke="rgb(0,0,0)"  stroke-width="1.0"/>
<line x1="53.3" y1="150.7" x2="79.6" y2="157.7" stroke="rgb(0,0,0)"  stroke-width="1.0"/>
<line x1="51.8" y1="156.5" x2="78.0" y2="163.5" stroke="rgb(0,0,0)"  stroke-width="1.0"/>
<line x1="147.1" y1="220.0" x2="130.3" y2="198.1" stroke="rgb(0,0,0)"  stroke-width="1.0"/>
<line x1="151.9" y1="216.3" x2="135.0" y2="194.4" stroke="rgb(0,0,0)"  stroke-width="1.0"/>
<line x1="302.9" y1="188.4" x2="276.4" y2="194.4" stroke="rgb(0,0,0)"  stroke-width="1.0"/>
<line x1="255.4" y1="139.9" x2="248.3" y2="166.0" stroke="rgb(0,0,0)"  stroke-width="1.0"/>
<line x1="219.9" y1="269.6" x2="227.3" y2="243.3" stroke="rgb(0,0,0)"  stroke-width="1.0"/>
<line x1="297.6" y1="117.0" x2="271.3" y2="124.0" stroke="rgb(0,0,0)"  stroke-width="1.0"/>
<line x1="323.3" y1="159.4" x2="319.3" y2="173.0" stroke="rgb(0,0,0)"  stroke-width="1.0"/>
<line x1="105.8" y1="197.5" x2="132.6" y2="196.3" stroke="rgb(0,0,0)"  stroke-width="1.0"/>
<line x1="132.6" y1="196.3" x2="143.1" y2="158.1" stroke="rgb(0,0,0)"  stroke-width="1.0"/>
<line x1="143.1" y1="158.1" x2="121.0" y2="143.0" stroke="rgb(0,0,0)"  stroke-width="1.0"/>
<line x1="100.1" y1="143.7" x2="78.8" y2="160.6" stroke="rgb(0,0,0)"  stroke-width="1.0"/>
<line x1="78.8" y1="160.6" x2="88.3" y2="185.9" stroke="rgb(0,0,0)"  stroke-width="1.0"/>
<line x1="209.8" y1="176.3" x2="248.3" y2="166.0" stroke="rgb(0,0,0)"  stroke-width="1.0"/>
<line x1="217.4" y1="181.7" x2="244.3" y2="174.5" stroke="rgb(0,0,0)"  stroke-width="1.0"/>
<line x1="248.3" y1="166.0" x2="276.4" y2="194.4" stroke="rgb(0,0,0)"  stroke-width="1.0"/>
<line x1="276.4" y1="194.4" x2="266.1" y2="232.6" stroke="rgb(0,0,0)"  stroke-width="1.0"/>
<line x1="267.9" y1="198.4" x2="260.7" y2="224.9" stroke="rgb(0,0,0)"  stroke-width="1.0"/>
<line x1="266.1" y1="232.6" x2="227.3" y2="243.3" stroke="rgb(0,0,0)"  stroke-width="1.0"/>
<line x1="227.3" y1="243.3" x2="199.3" y2="215.1" stroke="rgb(0,0,0)"  stroke-width="1.0"/>
<line x1="228.1" y1="233.9" x2="208.6" y2="214.3" stroke="rgb(0,0,0)"  stroke-width="1.0"/>
<line x1="199.3" y1="215.1" x2="209.8" y2="176.3" stroke="rgb(0,0,0)"  stroke-width="1.0"/>
<text x="86.818943" y="206.112209" fill="rgb(12,12,255)"  stroke="rgb(12,12,255)" stroke-width="1" font-size="16" >N</text>
<text x="86.818943" y="222.112209" fill="rgb(12,12,255)"  stroke="rgb(12,12,255)" stroke-width="1" font-size="16" >H</text>
<text x="104.312002" y="143.634224" fill="rgb(178,178,0)"  stroke="rgb(178,178,0)" stroke-width="1" font-size="16" >S</text>
<text x="312.573569" y="48.000000" fill="rgb(102,102,102)"  stroke="rgb(102,102,102)" stroke-width="1" font-size="16" >CH</text>
<text x="34.000000" y="158.297524" fill="rgb(255,12,12)"  stroke="rgb(255,12,12)" stroke-width="1" font-size="16" >O</text>
<text x="151.461718" y="236.433835" fill="rgb(255,12,12)"  stroke="rgb(255,12,12)" stroke-width="1" font-size="16" >O</text>
<text x="309.573926" y="193.448671" fill="rgb(255,12,12)"  stroke="rgb(255,12,12)" stroke-width="1" font-size="16" >O</text>
<text x="252.760315" y="135.305120" fill="rgb(255,12,12)"  stroke="rgb(255,12,12)" stroke-width="1" font-size="16" >O</text>
<text x="198.440120" y="290.087629" fill="rgb(165,40,40)"  stroke="rgb(165,40,40)" stroke-width="1" font-size="16" >Br</text>
<text x="323.067701" y="154.962970" fill="rgb(102,102,102)"  stroke="rgb(102,102,102)" stroke-width="1" font-size="16" >CH</text>
<text x="347.067701" y="158.642970" fill="rgb(102,102,102)"  stroke="rgb(102,102,102)" stroke-width="1" font-size="13" >3</text>
<text font-size="18.000000" fill ="black" font-family="sans-serif"
x="10.000000" y="20.000000" ></text>
<title> - OBDepict</title>
</svg>
