<?xml version="1.0"?>
<svg xmlns="http://www.w3.org/2000/svg"
xmlns:xlink="http://www.w3.org/1999/xlink" xmlns:cml="http://www.xml-cml.org/schema" width="619.668" height="283.283" x="0" y="0" font-family="sans-serif" stroke="rgb(0,0,0)" stroke-width="1"  stroke-linecap="round">
<rect x="0%" y="0%" width="100%" height="100%" stroke-width="0" fill="rgb(255,255,255)"  />
<line x1="239.5" y1="110.8" x2="266.4" y2="111.1" stroke="rgb(0,0,0)"  stroke-width="1.0"/>
<line x1="239.4" y1="116.8" x2="266.4" y2="117.1" stroke="rgb(0,0,0)"  stroke-width="1.0"/>
<line x1="486.6" y1="81.1" x2="472.7" y2="81.0" stroke="rgb(0,0,0)"  stroke-width="1.0"/>
<line x1="285.9" y1="103.0" x2="299.3" y2="79.7" stroke="rgb(0,0,0)"  stroke-width="1.0"/>
<line x1="85.2" y1="80.2" x2="109.0" y2="93.8" stroke="rgb(0,0,0)"  stroke-width="1.0"/>
<line x1="299.3" y1="79.7" x2="339.3" y2="79.7" stroke="rgb(0,0,0)"  stroke-width="1.0"/>
<line x1="419.3" y1="80.5" x2="446.7" y2="80.8" stroke="rgb(0,0,0)"  stroke-width="1.0"/>
<line x1="462.8" y1="53.6" x2="462.7" y2="68.0" stroke="rgb(0,0,0)"  stroke-width="1.0"/>
<line x1="456.8" y1="53.6" x2="456.7" y2="67.9" stroke="rgb(0,0,0)"  stroke-width="1.0"/>
<line x1="456.4" y1="108.0" x2="456.5" y2="93.9" stroke="rgb(0,0,0)"  stroke-width="1.0"/>
<line x1="462.4" y1="108.1" x2="462.5" y2="94.0" stroke="rgb(0,0,0)"  stroke-width="1.0"/>
<line x1="201.5" y1="213.6" x2="228.2" y2="184.0" stroke="rgb(0,0,0)"  stroke-width="1.0"/>
<line x1="183.6" y1="233.6" x2="201.5" y2="213.6" stroke="rgb(0,0,0)"  stroke-width="1.0"/>
<line x1="180.5" y1="230.8" x2="198.4" y2="210.8" stroke="rgb(0,0,0)"  stroke-width="1.0"/>
<line x1="186.7" y1="236.4" x2="204.7" y2="216.4" stroke="rgb(0,0,0)"  stroke-width="1.0"/>
<line x1="90.7" y1="52.6" x2="83.3" y2="64.3" stroke="rgb(0,0,0)"  stroke-width="1.0"/>
<line x1="85.6" y1="49.4" x2="78.3" y2="61.1" stroke="rgb(0,0,0)"  stroke-width="1.0"/>
<line x1="57.0" y1="95.1" x2="64.5" y2="83.1" stroke="rgb(0,0,0)"  stroke-width="1.0"/>
<line x1="62.1" y1="98.3" x2="69.6" y2="86.3" stroke="rgb(0,0,0)"  stroke-width="1.0"/>
<line x1="51.1" y1="59.5" x2="62.8" y2="66.8" stroke="rgb(0,0,0)"  stroke-width="1.0"/>
<line x1="288.5" y1="55.0" x2="301.9" y2="78.2" stroke="rgb(0,0,0)"  stroke-width="1.0"/>
<line x1="283.3" y1="58.0" x2="296.7" y2="81.2" stroke="rgb(0,0,0)"  stroke-width="1.0"/>
<line x1="228.2" y1="184.0" x2="220.0" y2="158.3" stroke="rgb(0,0,0)"  stroke-width="1.0"/>
<line x1="239.4" y1="113.8" x2="223.7" y2="92.1" stroke="rgb(0,0,0)"  stroke-width="1.0"/>
<line x1="203.7" y1="85.5" x2="177.9" y2="93.8" stroke="rgb(0,0,0)"  stroke-width="1.0"/>
<line x1="177.9" y1="93.8" x2="177.9" y2="133.8" stroke="rgb(0,0,0)"  stroke-width="1.0"/>
<line x1="185.1" y1="99.8" x2="185.1" y2="127.8" stroke="rgb(0,0,0)"  stroke-width="1.0"/>
<line x1="177.9" y1="133.8" x2="203.7" y2="141.9" stroke="rgb(0,0,0)"  stroke-width="1.0"/>
<line x1="223.7" y1="135.4" x2="239.4" y2="113.8" stroke="rgb(0,0,0)"  stroke-width="1.0"/>
<line x1="419.3" y1="80.5" x2="399.8" y2="44.8" stroke="rgb(0,0,0)"  stroke-width="1.0"/>
<line x1="399.8" y1="44.8" x2="359.8" y2="44.6" stroke="rgb(0,0,0)"  stroke-width="1.0"/>
<line x1="393.7" y1="52.0" x2="365.8" y2="51.9" stroke="rgb(0,0,0)"  stroke-width="1.0"/>
<line x1="359.8" y1="44.6" x2="339.3" y2="79.7" stroke="rgb(0,0,0)"  stroke-width="1.0"/>
<line x1="339.3" y1="79.7" x2="359.2" y2="113.8" stroke="rgb(0,0,0)"  stroke-width="1.0"/>
<line x1="348.5" y1="81.3" x2="362.4" y2="105.0" stroke="rgb(0,0,0)"  stroke-width="1.0"/>
<line x1="359.2" y1="113.8" x2="398.8" y2="114.4" stroke="rgb(0,0,0)"  stroke-width="1.0"/>
<line x1="398.8" y1="114.4" x2="419.3" y2="80.5" stroke="rgb(0,0,0)"  stroke-width="1.0"/>
<line x1="395.7" y1="105.6" x2="410.1" y2="81.9" stroke="rgb(0,0,0)"  stroke-width="1.0"/>
<line x1="506.0" y1="92.4" x2="519.2" y2="115.4" stroke="rgb(0,0,0)"  stroke-width="1.0"/>
<line x1="519.2" y1="115.4" x2="559.5" y2="115.6" stroke="rgb(0,0,0)"  stroke-width="1.0"/>
<line x1="525.2" y1="108.3" x2="553.5" y2="108.4" stroke="rgb(0,0,0)"  stroke-width="1.0"/>
<line x1="559.5" y1="115.6" x2="579.7" y2="81.7" stroke="rgb(0,0,0)"  stroke-width="1.0"/>
<line x1="579.7" y1="81.7" x2="560.1" y2="46.5" stroke="rgb(0,0,0)"  stroke-width="1.0"/>
<line x1="560.1" y1="46.5" x2="519.8" y2="46.1" stroke="rgb(0,0,0)"  stroke-width="1.0"/>
<line x1="519.8" y1="46.1" x2="506.1" y2="69.9" stroke="rgb(0,0,0)"  stroke-width="1.0"/>
<line x1="559.5" y1="115.6" x2="579.1" y2="150.7" stroke="rgb(0,0,0)"  stroke-width="1.0"/>
<line x1="579.1" y1="150.7" x2="558.9" y2="185.2" stroke="rgb(0,0,0)"  stroke-width="1.0"/>
<line x1="569.8" y1="152.3" x2="555.7" y2="176.4" stroke="rgb(0,0,0)"  stroke-width="1.0"/>
<line x1="558.9" y1="185.2" x2="518.6" y2="185.0" stroke="rgb(0,0,0)"  stroke-width="1.0"/>
<line x1="518.6" y1="185.0" x2="499.0" y2="150.1" stroke="rgb(0,0,0)"  stroke-width="1.0"/>
<line x1="521.9" y1="176.2" x2="508.2" y2="151.8" stroke="rgb(0,0,0)"  stroke-width="1.0"/>
<line x1="499.0" y1="150.1" x2="519.2" y2="115.4" stroke="rgb(0,0,0)"  stroke-width="1.0"/>
<line x1="109.0" y1="93.8" x2="143.5" y2="73.9" stroke="rgb(0,0,0)"  stroke-width="1.0"/>
<line x1="117.8" y1="97.1" x2="141.9" y2="83.1" stroke="rgb(0,0,0)"  stroke-width="1.0"/>
<line x1="143.5" y1="73.9" x2="177.9" y2="93.8" stroke="rgb(0,0,0)"  stroke-width="1.0"/>
<line x1="177.9" y1="133.8" x2="143.5" y2="153.7" stroke="rgb(0,0,0)"  stroke-width="1.0"/>
<line x1="143.5" y1="153.7" x2="109.0" y2="133.8" stroke="rgb(0,0,0)"  stroke-width="1.0"/>
<line x1="141.9" y1="144.5" x2="117.8" y2="130.6" stroke="rgb(0,0,0)"  stroke-width="1.0"/>
<line x1="109.0" y1="133.8" x2="109.0" y2="93.8" stroke="rgb(0,0,0)"  stroke-width="1.0"/>
<text x="453.673200" y="88.937352" fill="rgb(178,178,0)"  stroke="rgb(178,178,0)" stroke-width="1" font-size="16" >S</text>
<text x="493.603817" y="89.140635" fill="rgb(12,12,255)"  stroke="rgb(12,12,255)" stroke-width="1" font-size="16" >N</text>
<text x="273.380416" y="122.212866" fill="rgb(12,12,255)"  stroke="rgb(12,12,255)" stroke-width="1" font-size="16" >N</text>
<text x="67.880523" y="81.677240" fill="rgb(178,178,0)"  stroke="rgb(178,178,0)" stroke-width="1" font-size="16" >S</text>
<text x="210.057719" y="153.876635" fill="rgb(12,12,255)"  stroke="rgb(12,12,255)" stroke-width="1" font-size="16" >N</text>
<text x="210.057719" y="89.542361" fill="rgb(178,178,0)"  stroke="rgb(178,178,0)" stroke-width="1" font-size="16" >S</text>
<text x="453.876483" y="48.605009" fill="rgb(255,12,12)"  stroke="rgb(255,12,12)" stroke-width="1" font-size="16" >O</text>
<text x="453.271474" y="129.071252" fill="rgb(255,12,12)"  stroke="rgb(255,12,12)" stroke-width="1" font-size="16" >O</text>
<text x="156.917083" y="251.283139" fill="rgb(102,102,102)"  stroke="rgb(102,102,102)" stroke-width="1" font-size="16" >HC</text>
<text x="89.055850" y="48.000000" fill="rgb(255,12,12)"  stroke="rgb(255,12,12)" stroke-width="1" font-size="16" >O</text>
<text x="46.705196" y="115.761046" fill="rgb(255,12,12)"  stroke="rgb(255,12,12)" stroke-width="1" font-size="16" >O</text>
<text x="14.000000" y="60.705196" fill="rgb(12,12,255)"  stroke="rgb(12,12,255)" stroke-width="1" font-size="16" >H</text>
<text x="26.000000" y="64.385196" fill="rgb(12,12,255)"  stroke="rgb(12,12,255)" stroke-width="1" font-size="13" >2</text>
<text x="32.500000" y="60.705196" fill="rgb(12,12,255)"  stroke="rgb(12,12,255)" stroke-width="1" font-size="16" >N</text>
<text x="273.380416" y="53.241801" fill="rgb(255,12,12)"  stroke="rgb(255,12,12)" stroke-width="1" font-size="16" >O</text>
<text font-size="18.000000" fill ="black" font-family="sans-serif"
x="10.000000" y="20.000000" ></text>
<title> - OBDepict</title>
</svg>
