<?xml version="1.0"?>
<svg xmlns="http://www.w3.org/2000/svg"
xmlns:xlink="http://www.w3.org/1999/xlink" xmlns:cml="http://www.xml-cml.org/schema" width="426.266" height="360.005" x="0" y="0" font-family="sans-serif" stroke="rgb(0,0,0)" stroke-width="1"  stroke-linecap="round">
<rect x="0%" y="0%" width="100%" height="100%" stroke-width="0" fill="rgb(255,255,255)"  />
<line x1="247.7" y1="200.0" x2="247.7" y2="173.0" stroke="rgb(0,0,0)"  stroke-width="1.0"/>
<line x1="247.7" y1="133.0" x2="247.7" y2="147.0" stroke="rgb(0,0,0)"  stroke-width="1.0"/>
<line x1="178.4" y1="280.0" x2="213.1" y2="260.0" stroke="rgb(0,0,0)"  stroke-width="1.0"/>
<line x1="74.5" y1="260.0" x2="109.1" y2="280.0" stroke="rgb(0,0,0)"  stroke-width="1.0"/>
<line x1="274.7" y1="163.0" x2="260.7" y2="163.0" stroke="rgb(0,0,0)"  stroke-width="1.0"/>
<line x1="274.7" y1="157.0" x2="260.7" y2="157.0" stroke="rgb(0,0,0)"  stroke-width="1.0"/>
<line x1="220.7" y1="157.0" x2="234.7" y2="157.0" stroke="rgb(0,0,0)"  stroke-width="1.0"/>
<line x1="220.7" y1="163.0" x2="234.7" y2="163.0" stroke="rgb(0,0,0)"  stroke-width="1.0"/>
<line x1="51.3" y1="246.5" x2="74.5" y2="260.0" stroke="rgb(0,0,0)"  stroke-width="1.0"/>
<line x1="53.4" y1="242.9" x2="76.7" y2="256.4" stroke="rgb(0,0,0)"  stroke-width="1.0"/>
<line x1="49.1" y1="250.2" x2="72.4" y2="263.6" stroke="rgb(0,0,0)"  stroke-width="1.0"/>
<line x1="175.4" y1="307.0" x2="175.4" y2="280.0" stroke="rgb(0,0,0)"  stroke-width="1.0"/>
<line x1="181.4" y1="307.0" x2="181.4" y2="280.0" stroke="rgb(0,0,0)"  stroke-width="1.0"/>
<line x1="155.1" y1="266.5" x2="178.4" y2="280.0" stroke="rgb(0,0,0)"  stroke-width="1.0"/>
<line x1="282.4" y1="100.0" x2="258.9" y2="113.5" stroke="rgb(0,0,0)"  stroke-width="1.0"/>
<line x1="375.0" y1="46.5" x2="351.7" y2="60.0" stroke="rgb(0,0,0)"  stroke-width="1.0"/>
<line x1="109.1" y1="280.0" x2="132.6" y2="266.5" stroke="rgb(0,0,0)"  stroke-width="1.0"/>
<line x1="247.7" y1="307.0" x2="247.7" y2="280.0" stroke="rgb(0,0,0)"  stroke-width="1.0"/>
<line x1="282.4" y1="100.0" x2="317.0" y2="120.0" stroke="rgb(0,0,0)"  stroke-width="1.0"/>
<line x1="317.0" y1="120.0" x2="351.7" y2="100.0" stroke="rgb(0,0,0)"  stroke-width="1.0"/>
<line x1="318.6" y1="110.8" x2="342.9" y2="96.8" stroke="rgb(0,0,0)"  stroke-width="1.0"/>
<line x1="351.7" y1="100.0" x2="351.7" y2="60.0" stroke="rgb(0,0,0)"  stroke-width="1.0"/>
<line x1="351.7" y1="60.0" x2="317.0" y2="40.0" stroke="rgb(0,0,0)"  stroke-width="1.0"/>
<line x1="342.9" y1="63.2" x2="318.6" y2="49.2" stroke="rgb(0,0,0)"  stroke-width="1.0"/>
<line x1="317.0" y1="40.0" x2="282.4" y2="60.0" stroke="rgb(0,0,0)"  stroke-width="1.0"/>
<line x1="282.4" y1="60.0" x2="282.4" y2="100.0" stroke="rgb(0,0,0)"  stroke-width="1.0"/>
<line x1="289.6" y1="66.0" x2="289.6" y2="94.0" stroke="rgb(0,0,0)"  stroke-width="1.0"/>
<line x1="247.7" y1="200.0" x2="282.4" y2="220.0" stroke="rgb(0,0,0)"  stroke-width="1.0"/>
<line x1="282.4" y1="220.0" x2="282.4" y2="260.0" stroke="rgb(0,0,0)"  stroke-width="1.0"/>
<line x1="275.2" y1="226.0" x2="275.2" y2="254.0" stroke="rgb(0,0,0)"  stroke-width="1.0"/>
<line x1="282.4" y1="260.0" x2="247.7" y2="280.0" stroke="rgb(0,0,0)"  stroke-width="1.0"/>
<line x1="247.7" y1="280.0" x2="213.1" y2="260.0" stroke="rgb(0,0,0)"  stroke-width="1.0"/>
<line x1="246.1" y1="270.8" x2="221.9" y2="256.8" stroke="rgb(0,0,0)"  stroke-width="1.0"/>
<line x1="213.1" y1="260.0" x2="213.1" y2="220.0" stroke="rgb(0,0,0)"  stroke-width="1.0"/>
<line x1="213.1" y1="220.0" x2="247.7" y2="200.0" stroke="rgb(0,0,0)"  stroke-width="1.0"/>
<line x1="221.9" y1="223.2" x2="246.1" y2="209.2" stroke="rgb(0,0,0)"  stroke-width="1.0"/>
<text x="241.679102" y="168.002283" fill="rgb(178,178,0)"  stroke="rgb(178,178,0)" stroke-width="1" font-size="16" >S</text>
<text x="229.679102" y="128.001522" fill="rgb(12,12,255)"  stroke="rgb(12,12,255)" stroke-width="1" font-size="16" >HN</text>
<text x="281.679863" y="168.002283" fill="rgb(255,12,12)"  stroke="rgb(255,12,12)" stroke-width="1" font-size="16" >O</text>
<text x="201.678342" y="168.002283" fill="rgb(255,12,12)"  stroke="rgb(255,12,12)" stroke-width="1" font-size="16" >O</text>
<text x="22.000000" y="248.003805" fill="rgb(102,102,102)"  stroke="rgb(102,102,102)" stroke-width="1" font-size="16" >HC</text>
<text x="172.383239" y="328.005327" fill="rgb(255,12,12)"  stroke="rgb(255,12,12)" stroke-width="1" font-size="16" >O</text>
<text x="137.837127" y="268.004185" fill="rgb(12,12,255)"  stroke="rgb(12,12,255)" stroke-width="1" font-size="16" >N</text>
<text x="137.837127" y="252.004185" fill="rgb(12,12,255)"  stroke="rgb(12,12,255)" stroke-width="1" font-size="16" >H</text>
<text x="380.265981" y="48.000000" fill="rgb(127,178,255)"  stroke="rgb(127,178,255)" stroke-width="1" font-size="16" >F</text>
<text x="243.679102" y="328.005327" fill="rgb(102,102,102)"  stroke="rgb(102,102,102)" stroke-width="1" font-size="16" >CH</text>
<text x="267.679102" y="331.685327" fill="rgb(102,102,102)"  stroke="rgb(102,102,102)" stroke-width="1" font-size="13" >3</text>
<text font-size="18.000000" fill ="black" font-family="sans-serif"
x="10.000000" y="20.000000" ></text>
<title> - OBDepict</title>
</svg>
