<?xml version="1.0"?>
<svg xmlns="http://www.w3.org/2000/svg"
xmlns:xlink="http://www.w3.org/1999/xlink" xmlns:cml="http://www.xml-cml.org/schema" width="351.662" height="363.776" x="0" y="0" font-family="sans-serif" stroke="rgb(0,0,0)" stroke-width="1"  stroke-linecap="round">
<rect x="0%" y="0%" width="100%" height="100%" stroke-width="0" fill="rgb(255,255,255)"  />
<line x1="154.5" y1="149.4" x2="166.8" y2="111.4" stroke="rgb(0,0,0)"  stroke-width="1.0"/>
<line x1="160.2" y1="151.2" x2="172.5" y2="113.2" stroke="rgb(0,0,0)"  stroke-width="1.0"/>
<line x1="118.2" y1="158.6" x2="157.4" y2="150.3" stroke="rgb(0,0,0)"  stroke-width="1.0"/>
<line x1="147.1" y1="294.1" x2="120.2" y2="264.4" stroke="rgb(0,0,0)"  stroke-width="1.0"/>
<line x1="165.0" y1="314.1" x2="147.1" y2="294.1" stroke="rgb(0,0,0)"  stroke-width="1.0"/>
<line x1="161.9" y1="316.9" x2="143.9" y2="296.9" stroke="rgb(0,0,0)"  stroke-width="1.0"/>
<line x1="168.2" y1="311.3" x2="150.2" y2="291.3" stroke="rgb(0,0,0)"  stroke-width="1.0"/>
<line x1="119.0" y1="77.0" x2="146.0" y2="77.0" stroke="rgb(0,0,0)"  stroke-width="1.0"/>
<line x1="119.0" y1="83.0" x2="146.0" y2="83.0" stroke="rgb(0,0,0)"  stroke-width="1.0"/>
<line x1="300.4" y1="113.5" x2="276.9" y2="100.0" stroke="rgb(0,0,0)"  stroke-width="1.0"/>
<line x1="123.8" y1="216.8" x2="105.8" y2="196.7" stroke="rgb(0,0,0)"  stroke-width="1.0"/>
<line x1="120.2" y1="264.4" x2="128.5" y2="238.8" stroke="rgb(0,0,0)"  stroke-width="1.0"/>
<line x1="146.0" y1="80.0" x2="162.0" y2="58.0" stroke="rgb(0,0,0)"  stroke-width="1.0"/>
<line x1="182.0" y1="51.5" x2="207.6" y2="60.0" stroke="rgb(0,0,0)"  stroke-width="1.0"/>
<line x1="207.6" y1="60.0" x2="207.6" y2="100.0" stroke="rgb(0,0,0)"  stroke-width="1.0"/>
<line x1="200.4" y1="66.0" x2="200.4" y2="94.0" stroke="rgb(0,0,0)"  stroke-width="1.0"/>
<line x1="207.6" y1="100.0" x2="169.7" y2="112.3" stroke="rgb(0,0,0)"  stroke-width="1.0"/>
<line x1="169.7" y1="112.3" x2="146.0" y2="80.0" stroke="rgb(0,0,0)"  stroke-width="1.0"/>
<line x1="207.6" y1="60.0" x2="242.4" y2="40.0" stroke="rgb(0,0,0)"  stroke-width="1.0"/>
<line x1="242.4" y1="40.0" x2="276.9" y2="60.0" stroke="rgb(0,0,0)"  stroke-width="1.0"/>
<line x1="244.0" y1="49.2" x2="268.1" y2="63.2" stroke="rgb(0,0,0)"  stroke-width="1.0"/>
<line x1="276.9" y1="60.0" x2="276.9" y2="100.0" stroke="rgb(0,0,0)"  stroke-width="1.0"/>
<line x1="276.9" y1="100.0" x2="242.4" y2="120.0" stroke="rgb(0,0,0)"  stroke-width="1.0"/>
<line x1="268.1" y1="96.8" x2="244.0" y2="110.7" stroke="rgb(0,0,0)"  stroke-width="1.0"/>
<line x1="242.4" y1="120.0" x2="207.6" y2="100.0" stroke="rgb(0,0,0)"  stroke-width="1.0"/>
<line x1="118.2" y1="158.6" x2="105.8" y2="196.7" stroke="rgb(0,0,0)"  stroke-width="1.0"/>
<line x1="109.5" y1="162.1" x2="100.8" y2="188.8" stroke="rgb(0,0,0)"  stroke-width="1.0"/>
<line x1="105.8" y1="196.7" x2="66.7" y2="205.0" stroke="rgb(0,0,0)"  stroke-width="1.0"/>
<line x1="66.7" y1="205.0" x2="40.0" y2="175.3" stroke="rgb(0,0,0)"  stroke-width="1.0"/>
<line x1="68.0" y1="195.7" x2="49.4" y2="175.0" stroke="rgb(0,0,0)"  stroke-width="1.0"/>
<line x1="40.0" y1="175.3" x2="52.3" y2="137.1" stroke="rgb(0,0,0)"  stroke-width="1.0"/>
<line x1="52.3" y1="137.1" x2="91.3" y2="128.9" stroke="rgb(0,0,0)"  stroke-width="1.0"/>
<line x1="59.7" y1="142.9" x2="86.9" y2="137.2" stroke="rgb(0,0,0)"  stroke-width="1.0"/>
<line x1="91.3" y1="128.9" x2="118.2" y2="158.6" stroke="rgb(0,0,0)"  stroke-width="1.0"/>
<text x="163.669968" y="55.469960" fill="rgb(12,12,255)"  stroke="rgb(12,12,255)" stroke-width="1" font-size="16" >N</text>
<text x="163.669968" y="39.469960" fill="rgb(12,12,255)"  stroke="rgb(12,12,255)" stroke-width="1" font-size="16" >H</text>
<text x="167.712762" y="331.776060" fill="rgb(102,102,102)"  stroke="rgb(102,102,102)" stroke-width="1" font-size="16" >CH</text>
<text x="100.046853" y="87.991672" fill="rgb(255,12,12)"  stroke="rgb(255,12,12)" stroke-width="1" font-size="16" >O</text>
<text x="305.662218" y="127.983345" fill="rgb(30,239,30)"  stroke="rgb(30,239,30)" stroke-width="1" font-size="16" >Cl</text>
<text x="126.509221" y="234.424210" fill="rgb(255,12,12)"  stroke="rgb(255,12,12)" stroke-width="1" font-size="16" >O</text>
<text font-size="18.000000" fill ="black" font-family="sans-serif"
x="10.000000" y="20.000000" ></text>
<title> - OBDepict</title>
</svg>
