<?xml version="1.0"?>
<svg xmlns="http://www.w3.org/2000/svg"
xmlns:xlink="http://www.w3.org/1999/xlink" xmlns:cml="http://www.xml-cml.org/schema" width="411.317" height="365.86" x="0" y="0" font-family="sans-serif" stroke="rgb(0,0,0)" stroke-width="1"  stroke-linecap="round">
<rect x="0%" y="0%" width="100%" height="100%" stroke-width="0" fill="rgb(255,255,255)"  />
<line x1="188.3" y1="169.0" x2="165.0" y2="182.8" stroke="rgb(0,0,0)"  stroke-width="1.0"/>
<line x1="185.3" y1="163.8" x2="161.9" y2="177.6" stroke="rgb(0,0,0)"  stroke-width="1.0"/>
<line x1="198.0" y1="119.6" x2="198.0" y2="146.8" stroke="rgb(0,0,0)"  stroke-width="1.0"/>
<line x1="232.5" y1="99.6" x2="198.0" y2="119.6" stroke="rgb(0,0,0)"  stroke-width="1.0"/>
<line x1="179.8" y1="286.9" x2="188.9" y2="247.7" stroke="rgb(0,0,0)"  stroke-width="1.0"/>
<line x1="174.1" y1="313.2" x2="179.8" y2="286.9" stroke="rgb(0,0,0)"  stroke-width="1.0"/>
<line x1="170.0" y1="312.3" x2="175.7" y2="286.0" stroke="rgb(0,0,0)"  stroke-width="1.0"/>
<line x1="178.2" y1="314.1" x2="183.9" y2="287.8" stroke="rgb(0,0,0)"  stroke-width="1.0"/>
<line x1="175.6" y1="103.4" x2="199.5" y2="117.0" stroke="rgb(0,0,0)"  stroke-width="1.0"/>
<line x1="172.6" y1="108.6" x2="196.5" y2="122.2" stroke="rgb(0,0,0)"  stroke-width="1.0"/>
<line x1="188.9" y1="247.7" x2="168.5" y2="228.7" stroke="rgb(0,0,0)"  stroke-width="1.0"/>
<line x1="112.3" y1="285.4" x2="99.2" y2="261.6" stroke="rgb(0,0,0)"  stroke-width="1.0"/>
<line x1="163.4" y1="180.2" x2="139.5" y2="169.0" stroke="rgb(0,0,0)"  stroke-width="1.0"/>
<line x1="118.8" y1="172.9" x2="100.4" y2="192.5" stroke="rgb(0,0,0)"  stroke-width="1.0"/>
<line x1="100.4" y1="192.5" x2="119.8" y2="227.7" stroke="rgb(0,0,0)"  stroke-width="1.0"/>
<line x1="109.6" y1="194.3" x2="123.2" y2="218.9" stroke="rgb(0,0,0)"  stroke-width="1.0"/>
<line x1="119.8" y1="227.7" x2="146.2" y2="222.4" stroke="rgb(0,0,0)"  stroke-width="1.0"/>
<line x1="160.4" y1="206.9" x2="163.4" y2="180.2" stroke="rgb(0,0,0)"  stroke-width="1.0"/>
<line x1="232.5" y1="99.6" x2="256.2" y2="113.3" stroke="rgb(0,0,0)"  stroke-width="1.0"/>
<line x1="278.7" y1="113.3" x2="301.6" y2="100.0" stroke="rgb(0,0,0)"  stroke-width="1.0"/>
<line x1="301.6" y1="100.0" x2="302.2" y2="60.0" stroke="rgb(0,0,0)"  stroke-width="1.0"/>
<line x1="294.5" y1="93.9" x2="294.9" y2="65.9" stroke="rgb(0,0,0)"  stroke-width="1.0"/>
<line x1="302.2" y1="60.0" x2="278.9" y2="46.5" stroke="rgb(0,0,0)"  stroke-width="1.0"/>
<line x1="256.4" y1="46.4" x2="232.5" y2="60.0" stroke="rgb(0,0,0)"  stroke-width="1.0"/>
<line x1="232.5" y1="60.0" x2="232.5" y2="99.6" stroke="rgb(0,0,0)"  stroke-width="1.0"/>
<line x1="336.8" y1="40.2" x2="302.2" y2="60.0" stroke="rgb(0,0,0)"  stroke-width="1.0"/>
<line x1="301.6" y1="100.0" x2="336.2" y2="119.8" stroke="rgb(0,0,0)"  stroke-width="1.0"/>
<line x1="336.2" y1="119.8" x2="371.1" y2="100.6" stroke="rgb(0,0,0)"  stroke-width="1.0"/>
<line x1="338.0" y1="110.6" x2="362.4" y2="97.2" stroke="rgb(0,0,0)"  stroke-width="1.0"/>
<line x1="371.1" y1="100.6" x2="371.3" y2="60.2" stroke="rgb(0,0,0)"  stroke-width="1.0"/>
<line x1="371.3" y1="60.2" x2="336.8" y2="40.2" stroke="rgb(0,0,0)"  stroke-width="1.0"/>
<line x1="362.5" y1="63.4" x2="338.4" y2="49.4" stroke="rgb(0,0,0)"  stroke-width="1.0"/>
<line x1="99.2" y1="261.6" x2="60.0" y2="261.4" stroke="rgb(0,0,0)"  stroke-width="1.0"/>
<line x1="93.2" y1="254.4" x2="66.0" y2="254.2" stroke="rgb(0,0,0)"  stroke-width="1.0"/>
<line x1="60.0" y1="261.4" x2="40.0" y2="226.3" stroke="rgb(0,0,0)"  stroke-width="1.0"/>
<line x1="40.0" y1="226.3" x2="60.6" y2="191.9" stroke="rgb(0,0,0)"  stroke-width="1.0"/>
<line x1="49.3" y1="224.8" x2="63.7" y2="200.8" stroke="rgb(0,0,0)"  stroke-width="1.0"/>
<line x1="60.6" y1="191.9" x2="100.4" y2="192.5" stroke="rgb(0,0,0)"  stroke-width="1.0"/>
<line x1="119.8" y1="227.7" x2="99.2" y2="261.6" stroke="rgb(0,0,0)"  stroke-width="1.0"/>
<text x="191.984658" y="167.799710" fill="rgb(12,12,255)"  stroke="rgb(12,12,255)" stroke-width="1" font-size="16" >N</text>
<text x="152.991691" y="227.801172" fill="rgb(12,12,255)"  stroke="rgb(12,12,255)" stroke-width="1" font-size="16" >N</text>
<text x="121.682162" y="171.438215" fill="rgb(178,178,0)"  stroke="rgb(178,178,0)" stroke-width="1" font-size="16" >S</text>
<text x="261.474295" y="127.800348" fill="rgb(255,12,12)"  stroke="rgb(255,12,12)" stroke-width="1" font-size="16" >O</text>
<text x="261.682348" y="48.000000" fill="rgb(255,12,12)"  stroke="rgb(255,12,12)" stroke-width="1" font-size="16" >O</text>
<text x="153.315191" y="333.859719" fill="rgb(102,102,102)"  stroke="rgb(102,102,102)" stroke-width="1" font-size="16" >HC</text>
<text x="156.833410" y="107.599872" fill="rgb(255,12,12)"  stroke="rgb(255,12,12)" stroke-width="1" font-size="16" >O</text>
<text x="112.590738" y="304.771034" fill="rgb(30,239,30)"  stroke="rgb(30,239,30)" stroke-width="1" font-size="16" >Cl</text>
<text font-size="18.000000" fill ="black" font-family="sans-serif"
x="10.000000" y="20.000000" ></text>
<title> - OBDepict</title>
</svg>
