<?xml version="1.0"?>
<svg xmlns="http://www.w3.org/2000/svg"
xmlns:xlink="http://www.w3.org/1999/xlink" xmlns:cml="http://www.xml-cml.org/schema" width="529.428" height="281.801" x="0" y="0" font-family="sans-serif" stroke="rgb(0,0,0)" stroke-width="1"  stroke-linecap="round">
<rect x="0%" y="0%" width="100%" height="100%" stroke-width="0" fill="rgb(255,255,255)"  />
<line x1="176.7" y1="244.4" x2="141.8" y2="224.8" stroke="rgb(0,0,0)"  stroke-width="1.0"/>
<line x1="179.6" y1="239.2" x2="144.8" y2="219.5" stroke="rgb(0,0,0)"  stroke-width="1.0"/>
<line x1="105.8" y1="105.5" x2="82.8" y2="138.7" stroke="rgb(0,0,0)"  stroke-width="1.0"/>
<line x1="120.1" y1="82.5" x2="105.8" y2="105.5" stroke="rgb(0,0,0)"  stroke-width="1.0"/>
<line x1="123.7" y1="84.8" x2="109.4" y2="107.7" stroke="rgb(0,0,0)"  stroke-width="1.0"/>
<line x1="116.5" y1="80.3" x2="102.3" y2="103.3" stroke="rgb(0,0,0)"  stroke-width="1.0"/>
<line x1="52.6" y1="209.5" x2="79.5" y2="206.7" stroke="rgb(0,0,0)"  stroke-width="1.0"/>
<line x1="53.2" y1="215.4" x2="80.1" y2="212.6" stroke="rgb(0,0,0)"  stroke-width="1.0"/>
<line x1="160.4" y1="166.1" x2="140.9" y2="184.5" stroke="rgb(0,0,0)"  stroke-width="1.0"/>
<line x1="156.3" y1="161.7" x2="136.8" y2="180.1" stroke="rgb(0,0,0)"  stroke-width="1.0"/>
<line x1="212.6" y1="221.1" x2="178.1" y2="241.8" stroke="rgb(0,0,0)"  stroke-width="1.0"/>
<line x1="82.8" y1="138.7" x2="93.9" y2="162.7" stroke="rgb(0,0,0)"  stroke-width="1.0"/>
<line x1="305.5" y1="167.0" x2="281.6" y2="180.5" stroke="rgb(0,0,0)"  stroke-width="1.0"/>
<line x1="385.8" y1="160.6" x2="351.1" y2="180.0" stroke="rgb(0,0,0)"  stroke-width="1.0"/>
<line x1="351.1" y1="180.0" x2="328.1" y2="167.0" stroke="rgb(0,0,0)"  stroke-width="1.0"/>
<line x1="246.8" y1="134.0" x2="246.5" y2="161.0" stroke="rgb(0,0,0)"  stroke-width="1.0"/>
<line x1="223.3" y1="107.6" x2="235.7" y2="114.6" stroke="rgb(0,0,0)"  stroke-width="1.0"/>
<line x1="93.0" y1="185.8" x2="79.8" y2="209.6" stroke="rgb(0,0,0)"  stroke-width="1.0"/>
<line x1="79.8" y1="209.6" x2="98.2" y2="229.6" stroke="rgb(0,0,0)"  stroke-width="1.0"/>
<line x1="118.8" y1="233.6" x2="143.3" y2="222.1" stroke="rgb(0,0,0)"  stroke-width="1.0"/>
<line x1="143.3" y1="222.1" x2="138.8" y2="182.3" stroke="rgb(0,0,0)"  stroke-width="1.0"/>
<line x1="138.8" y1="182.3" x2="112.1" y2="177.0" stroke="rgb(0,0,0)"  stroke-width="1.0"/>
<line x1="246.5" y1="161.0" x2="281.6" y2="180.5" stroke="rgb(0,0,0)"  stroke-width="1.0"/>
<line x1="248.2" y1="170.2" x2="272.9" y2="183.9" stroke="rgb(0,0,0)"  stroke-width="1.0"/>
<line x1="281.6" y1="180.5" x2="281.6" y2="220.3" stroke="rgb(0,0,0)"  stroke-width="1.0"/>
<line x1="281.6" y1="220.3" x2="247.1" y2="240.5" stroke="rgb(0,0,0)"  stroke-width="1.0"/>
<line x1="272.8" y1="217.1" x2="248.7" y2="231.2" stroke="rgb(0,0,0)"  stroke-width="1.0"/>
<line x1="247.1" y1="240.5" x2="212.6" y2="221.1" stroke="rgb(0,0,0)"  stroke-width="1.0"/>
<line x1="212.6" y1="221.1" x2="212.6" y2="181.1" stroke="rgb(0,0,0)"  stroke-width="1.0"/>
<line x1="219.8" y1="215.1" x2="219.8" y2="187.1" stroke="rgb(0,0,0)"  stroke-width="1.0"/>
<line x1="212.6" y1="181.1" x2="246.5" y2="161.0" stroke="rgb(0,0,0)"  stroke-width="1.0"/>
<line x1="420.1" y1="100.7" x2="454.3" y2="120.7" stroke="rgb(0,0,0)"  stroke-width="1.0"/>
<line x1="454.3" y1="120.7" x2="454.9" y2="160.6" stroke="rgb(0,0,0)"  stroke-width="1.0"/>
<line x1="447.2" y1="126.8" x2="447.6" y2="154.8" stroke="rgb(0,0,0)"  stroke-width="1.0"/>
<line x1="454.9" y1="160.6" x2="420.3" y2="180.3" stroke="rgb(0,0,0)"  stroke-width="1.0"/>
<line x1="420.3" y1="180.3" x2="385.8" y2="160.6" stroke="rgb(0,0,0)"  stroke-width="1.0"/>
<line x1="418.6" y1="171.1" x2="394.6" y2="157.4" stroke="rgb(0,0,0)"  stroke-width="1.0"/>
<line x1="385.8" y1="160.6" x2="385.3" y2="120.5" stroke="rgb(0,0,0)"  stroke-width="1.0"/>
<line x1="385.3" y1="120.5" x2="420.1" y2="100.7" stroke="rgb(0,0,0)"  stroke-width="1.0"/>
<line x1="394.1" y1="123.8" x2="418.5" y2="109.9" stroke="rgb(0,0,0)"  stroke-width="1.0"/>
<line x1="489.4" y1="100.7" x2="454.3" y2="120.7" stroke="rgb(0,0,0)"  stroke-width="1.0"/>
<line x1="420.1" y1="100.7" x2="419.8" y2="60.5" stroke="rgb(0,0,0)"  stroke-width="1.0"/>
<line x1="419.8" y1="60.5" x2="454.9" y2="40.0" stroke="rgb(0,0,0)"  stroke-width="1.0"/>
<line x1="428.6" y1="63.7" x2="453.4" y2="49.2" stroke="rgb(0,0,0)"  stroke-width="1.0"/>
<line x1="454.9" y1="40.0" x2="489.4" y2="61.0" stroke="rgb(0,0,0)"  stroke-width="1.0"/>
<line x1="489.4" y1="61.0" x2="489.4" y2="100.7" stroke="rgb(0,0,0)"  stroke-width="1.0"/>
<line x1="482.2" y1="67.0" x2="482.2" y2="94.7" stroke="rgb(0,0,0)"  stroke-width="1.0"/>
<text x="93.320323" y="182.475560" fill="rgb(12,12,255)"  stroke="rgb(12,12,255)" stroke-width="1" font-size="16" >N</text>
<text x="100.990511" y="247.133985" fill="rgb(178,178,0)"  stroke="rgb(178,178,0)" stroke-width="1" font-size="16" >S</text>
<text x="120.985363" y="79.495285" fill="rgb(102,102,102)"  stroke="rgb(102,102,102)" stroke-width="1" font-size="16" >CH</text>
<text x="34.000000" y="221.805879" fill="rgb(255,12,12)"  stroke="rgb(255,12,12)" stroke-width="1" font-size="16" >O</text>
<text x="161.813842" y="162.980095" fill="rgb(255,12,12)"  stroke="rgb(255,12,12)" stroke-width="1" font-size="16" >O</text>
<text x="310.791002" y="168.647888" fill="rgb(255,12,12)"  stroke="rgb(255,12,12)" stroke-width="1" font-size="16" >O</text>
<text x="240.969019" y="128.987877" fill="rgb(255,12,12)"  stroke="rgb(255,12,12)" stroke-width="1" font-size="16" >O</text>
<text x="185.973180" y="109.157871" fill="rgb(102,102,102)"  stroke="rgb(102,102,102)" stroke-width="1" font-size="16" >H</text>
<text x="197.973180" y="112.837871" fill="rgb(102,102,102)"  stroke="rgb(102,102,102)" stroke-width="1" font-size="13" >3</text>
<text x="204.473180" y="109.157871" fill="rgb(102,102,102)"  stroke="rgb(102,102,102)" stroke-width="1" font-size="16" >C</text>
<text font-size="18.000000" fill ="black" font-family="sans-serif"
x="10.000000" y="20.000000" ></text>
<title> - OBDepict</title>
</svg>
