<?xml version="1.0"?>
<svg xmlns="http://www.w3.org/2000/svg"
xmlns:xlink="http://www.w3.org/1999/xlink" xmlns:cml="http://www.xml-cml.org/schema" width="465.407" height="441.044" x="0" y="0" font-family="sans-serif" stroke="rgb(0,0,0)" stroke-width="1"  stroke-linecap="round">
<rect x="0%" y="0%" width="100%" height="100%" stroke-width="0" fill="rgb(255,255,255)"  />
<line x1="178.2" y1="174.0" x2="217.7" y2="180.2" stroke="rgb(0,0,0)"  stroke-width="1.0"/>
<line x1="177.3" y1="179.9" x2="216.7" y2="186.1" stroke="rgb(0,0,0)"  stroke-width="1.0"/>
<line x1="316.7" y1="155.2" x2="292.8" y2="167.4" stroke="rgb(0,0,0)"  stroke-width="1.0"/>
<line x1="291.7" y1="234.1" x2="272.5" y2="214.9" stroke="rgb(0,0,0)"  stroke-width="1.0"/>
<line x1="295.9" y1="229.8" x2="276.7" y2="210.6" stroke="rgb(0,0,0)"  stroke-width="1.0"/>
<line x1="65.0" y1="369.8" x2="90.1" y2="338.8" stroke="rgb(0,0,0)"  stroke-width="1.0"/>
<line x1="48.1" y1="390.9" x2="65.0" y2="369.8" stroke="rgb(0,0,0)"  stroke-width="1.0"/>
<line x1="44.8" y1="388.3" x2="61.7" y2="367.2" stroke="rgb(0,0,0)"  stroke-width="1.0"/>
<line x1="51.4" y1="393.5" x2="68.2" y2="372.5" stroke="rgb(0,0,0)"  stroke-width="1.0"/>
<line x1="244.4" y1="127.9" x2="248.6" y2="154.3" stroke="rgb(0,0,0)"  stroke-width="1.0"/>
<line x1="238.4" y1="128.8" x2="242.6" y2="155.2" stroke="rgb(0,0,0)"  stroke-width="1.0"/>
<line x1="152.0" y1="207.9" x2="177.7" y2="176.9" stroke="rgb(0,0,0)"  stroke-width="1.0"/>
<line x1="318.7" y1="115.5" x2="316.7" y2="155.2" stroke="rgb(0,0,0)"  stroke-width="1.0"/>
<line x1="354.3" y1="97.4" x2="318.7" y2="115.5" stroke="rgb(0,0,0)"  stroke-width="1.0"/>
<line x1="90.1" y1="338.8" x2="80.5" y2="313.7" stroke="rgb(0,0,0)"  stroke-width="1.0"/>
<line x1="84.1" y1="291.5" x2="101.2" y2="270.6" stroke="rgb(0,0,0)"  stroke-width="1.0"/>
<line x1="279.1" y1="186.1" x2="274.6" y2="212.8" stroke="rgb(0,0,0)"  stroke-width="1.0"/>
<line x1="274.6" y1="212.8" x2="248.0" y2="216.8" stroke="rgb(0,0,0)"  stroke-width="1.0"/>
<line x1="229.3" y1="207.2" x2="217.2" y2="183.2" stroke="rgb(0,0,0)"  stroke-width="1.0"/>
<line x1="217.2" y1="183.2" x2="245.6" y2="154.8" stroke="rgb(0,0,0)"  stroke-width="1.0"/>
<line x1="245.6" y1="154.8" x2="269.7" y2="167.3" stroke="rgb(0,0,0)"  stroke-width="1.0"/>
<line x1="152.0" y1="207.9" x2="166.3" y2="245.4" stroke="rgb(0,0,0)"  stroke-width="1.0"/>
<line x1="166.3" y1="245.4" x2="141.1" y2="276.2" stroke="rgb(0,0,0)"  stroke-width="1.0"/>
<line x1="156.9" y1="245.5" x2="139.3" y2="267.0" stroke="rgb(0,0,0)"  stroke-width="1.0"/>
<line x1="141.1" y1="276.2" x2="101.2" y2="270.6" stroke="rgb(0,0,0)"  stroke-width="1.0"/>
<line x1="101.2" y1="270.6" x2="87.1" y2="232.1" stroke="rgb(0,0,0)"  stroke-width="1.0"/>
<line x1="105.9" y1="262.4" x2="95.9" y2="235.3" stroke="rgb(0,0,0)"  stroke-width="1.0"/>
<line x1="87.1" y1="232.1" x2="112.5" y2="201.3" stroke="rgb(0,0,0)"  stroke-width="1.0"/>
<line x1="112.5" y1="201.3" x2="152.0" y2="207.9" stroke="rgb(0,0,0)"  stroke-width="1.0"/>
<line x1="117.2" y1="209.4" x2="144.8" y2="214.0" stroke="rgb(0,0,0)"  stroke-width="1.0"/>
<line x1="354.3" y1="97.4" x2="356.1" y2="57.9" stroke="rgb(0,0,0)"  stroke-width="1.0"/>
<line x1="356.1" y1="57.9" x2="392.2" y2="40.0" stroke="rgb(0,0,0)"  stroke-width="1.0"/>
<line x1="364.7" y1="61.7" x2="390.0" y2="49.1" stroke="rgb(0,0,0)"  stroke-width="1.0"/>
<line x1="392.2" y1="40.0" x2="425.4" y2="61.7" stroke="rgb(0,0,0)"  stroke-width="1.0"/>
<line x1="425.4" y1="61.7" x2="423.2" y2="101.6" stroke="rgb(0,0,0)"  stroke-width="1.0"/>
<line x1="417.9" y1="67.3" x2="416.3" y2="95.2" stroke="rgb(0,0,0)"  stroke-width="1.0"/>
<line x1="423.2" y1="101.6" x2="387.5" y2="119.5" stroke="rgb(0,0,0)"  stroke-width="1.0"/>
<line x1="387.5" y1="119.5" x2="354.3" y2="97.4" stroke="rgb(0,0,0)"  stroke-width="1.0"/>
<line x1="386.6" y1="110.2" x2="363.3" y2="94.7" stroke="rgb(0,0,0)"  stroke-width="1.0"/>
<text x="275.233724" y="181.299736" fill="rgb(12,12,255)"  stroke="rgb(12,12,255)" stroke-width="1" font-size="16" >N</text>
<text x="229.118148" y="226.809867" fill="rgb(178,178,0)"  stroke="rgb(178,178,0)" stroke-width="1" font-size="16" >S</text>
<text x="296.976485" y="249.162916" fill="rgb(178,178,0)"  stroke="rgb(178,178,0)" stroke-width="1" font-size="16" >S</text>
<text x="22.000000" y="409.044133" fill="rgb(102,102,102)"  stroke="rgb(102,102,102)" stroke-width="1" font-size="16" >HC</text>
<text x="233.346580" y="123.511169" fill="rgb(255,12,12)"  stroke="rgb(255,12,12)" stroke-width="1" font-size="16" >O</text>
<text x="69.842376" y="309.571851" fill="rgb(255,12,12)"  stroke="rgb(255,12,12)" stroke-width="1" font-size="16" >O</text>
<text font-size="18.000000" fill ="black" font-family="sans-serif"
x="10.000000" y="20.000000" ></text>
<title> - OBDepict</title>
</svg>
