<?xml version="1.0"?>
<svg xmlns="http://www.w3.org/2000/svg"
xmlns:xlink="http://www.w3.org/1999/xlink" xmlns:cml="http://www.xml-cml.org/schema" width="736.018" height="518.78" x="0" y="0" font-family="sans-serif" stroke="rgb(0,0,0)" stroke-width="1"  stroke-linecap="round">
<rect x="0%" y="0%" width="100%" height="100%" stroke-width="0" fill="rgb(255,255,255)"  />
<line x1="119.1" y1="258.7" x2="94.9" y2="269.2" stroke="rgb(0,0,0)"  stroke-width="1.0"/>
<line x1="116.7" y1="253.2" x2="92.5" y2="263.7" stroke="rgb(0,0,0)"  stroke-width="1.0"/>
<line x1="161.3" y1="210.9" x2="173.5" y2="186.0" stroke="rgb(0,0,0)"  stroke-width="1.0"/>
<line x1="166.7" y1="213.6" x2="178.9" y2="188.6" stroke="rgb(0,0,0)"  stroke-width="1.0"/>
<line x1="119.8" y1="206.0" x2="103.7" y2="183.6" stroke="rgb(0,0,0)"  stroke-width="1.0"/>
<line x1="199.8" y1="325.5" x2="206.6" y2="352.1" stroke="rgb(0,0,0)"  stroke-width="1.0"/>
<line x1="222.4" y1="368.2" x2="249.1" y2="375.7" stroke="rgb(0,0,0)"  stroke-width="1.0"/>
<line x1="96.6" y1="114.9" x2="112.3" y2="78.1" stroke="rgb(0,0,0)"  stroke-width="1.0"/>
<line x1="112.3" y1="78.1" x2="123.6" y2="51.9" stroke="rgb(0,0,0)"  stroke-width="1.0"/>
<line x1="108.5" y1="76.5" x2="119.7" y2="50.3" stroke="rgb(0,0,0)"  stroke-width="1.0"/>
<line x1="116.2" y1="79.8" x2="127.4" y2="53.6" stroke="rgb(0,0,0)"  stroke-width="1.0"/>
<line x1="324.0" y1="400.4" x2="362.1" y2="412.9" stroke="rgb(0,0,0)"  stroke-width="1.0"/>
<line x1="362.1" y1="412.9" x2="400.4" y2="425.4" stroke="rgb(0,0,0)"  stroke-width="1.0"/>
<line x1="362.1" y1="412.9" x2="370.6" y2="386.9" stroke="rgb(0,0,0)"  stroke-width="1.0"/>
<line x1="362.1" y1="412.9" x2="353.6" y2="439.1" stroke="rgb(0,0,0)"  stroke-width="1.0"/>
<line x1="475.1" y1="453.8" x2="500.8" y2="464.2" stroke="rgb(0,0,0)"  stroke-width="1.0"/>
<line x1="522.9" y1="460.9" x2="544.9" y2="443.3" stroke="rgb(0,0,0)"  stroke-width="1.0"/>
<line x1="575.0" y1="342.6" x2="555.0" y2="324.9" stroke="rgb(0,0,0)"  stroke-width="1.0"/>
<line x1="578.9" y1="338.1" x2="559.0" y2="320.4" stroke="rgb(0,0,0)"  stroke-width="1.0"/>
<line x1="635.5" y1="363.0" x2="662.4" y2="365.2" stroke="rgb(0,0,0)"  stroke-width="1.0"/>
<line x1="635.1" y1="369.0" x2="661.9" y2="371.1" stroke="rgb(0,0,0)"  stroke-width="1.0"/>
<line x1="622.6" y1="320.8" x2="636.8" y2="297.3" stroke="rgb(0,0,0)"  stroke-width="1.0"/>
<line x1="637.7" y1="228.6" x2="617.4" y2="194.4" stroke="rgb(0,0,0)"  stroke-width="1.0"/>
<line x1="617.4" y1="194.4" x2="603.6" y2="169.9" stroke="rgb(0,0,0)"  stroke-width="1.0"/>
<line x1="613.8" y1="196.4" x2="600.0" y2="172.0" stroke="rgb(0,0,0)"  stroke-width="1.0"/>
<line x1="621.1" y1="192.3" x2="607.3" y2="167.9" stroke="rgb(0,0,0)"  stroke-width="1.0"/>
<line x1="152.8" y1="275.5" x2="181.0" y2="247.8" stroke="rgb(0,0,0)"  stroke-width="1.0"/>
<line x1="152.0" y1="266.2" x2="171.7" y2="246.8" stroke="rgb(0,0,0)"  stroke-width="1.0"/>
<line x1="181.0" y1="247.8" x2="164.0" y2="212.2" stroke="rgb(0,0,0)"  stroke-width="1.0"/>
<line x1="164.0" y1="212.2" x2="140.3" y2="215.0" stroke="rgb(0,0,0)"  stroke-width="1.0"/>
<line x1="124.4" y1="229.2" x2="117.9" y2="255.9" stroke="rgb(0,0,0)"  stroke-width="1.0"/>
<line x1="117.9" y1="255.9" x2="152.8" y2="275.5" stroke="rgb(0,0,0)"  stroke-width="1.0"/>
<line x1="635.3" y1="366.0" x2="622.4" y2="343.2" stroke="rgb(0,0,0)"  stroke-width="1.0"/>
<line x1="603.2" y1="334.7" x2="577.0" y2="340.3" stroke="rgb(0,0,0)"  stroke-width="1.0"/>
<line x1="577.0" y1="340.3" x2="573.7" y2="379.5" stroke="rgb(0,0,0)"  stroke-width="1.0"/>
<line x1="573.7" y1="379.5" x2="609.5" y2="395.2" stroke="rgb(0,0,0)"  stroke-width="1.0"/>
<line x1="582.1" y1="375.3" x2="606.9" y2="386.2" stroke="rgb(0,0,0)"  stroke-width="1.0"/>
<line x1="609.5" y1="395.2" x2="635.3" y2="366.0" stroke="rgb(0,0,0)"  stroke-width="1.0"/>
<line x1="152.8" y1="275.5" x2="161.6" y2="314.1" stroke="rgb(0,0,0)"  stroke-width="1.0"/>
<line x1="161.6" y1="314.1" x2="199.8" y2="325.5" stroke="rgb(0,0,0)"  stroke-width="1.0"/>
<line x1="169.5" y1="308.9" x2="196.1" y2="316.9" stroke="rgb(0,0,0)"  stroke-width="1.0"/>
<line x1="199.8" y1="325.5" x2="228.6" y2="297.7" stroke="rgb(0,0,0)"  stroke-width="1.0"/>
<line x1="228.6" y1="297.7" x2="219.1" y2="259.2" stroke="rgb(0,0,0)"  stroke-width="1.0"/>
<line x1="220.2" y1="293.6" x2="213.6" y2="266.7" stroke="rgb(0,0,0)"  stroke-width="1.0"/>
<line x1="219.1" y1="259.2" x2="181.0" y2="247.8" stroke="rgb(0,0,0)"  stroke-width="1.0"/>
<line x1="103.7" y1="183.6" x2="64.1" y2="188.1" stroke="rgb(0,0,0)"  stroke-width="1.0"/>
<line x1="64.1" y1="188.1" x2="40.0" y2="154.8" stroke="rgb(0,0,0)"  stroke-width="1.0"/>
<line x1="66.4" y1="179.0" x2="49.4" y2="155.4" stroke="rgb(0,0,0)"  stroke-width="1.0"/>
<line x1="40.0" y1="154.8" x2="57.0" y2="119.4" stroke="rgb(0,0,0)"  stroke-width="1.0"/>
<line x1="57.0" y1="119.4" x2="96.6" y2="114.9" stroke="rgb(0,0,0)"  stroke-width="1.0"/>
<line x1="63.8" y1="125.9" x2="91.5" y2="122.8" stroke="rgb(0,0,0)"  stroke-width="1.0"/>
<line x1="96.6" y1="114.9" x2="120.3" y2="147.9" stroke="rgb(0,0,0)"  stroke-width="1.0"/>
<line x1="120.3" y1="147.9" x2="103.7" y2="183.6" stroke="rgb(0,0,0)"  stroke-width="1.0"/>
<line x1="111.3" y1="150.3" x2="99.7" y2="175.1" stroke="rgb(0,0,0)"  stroke-width="1.0"/>
<line x1="249.1" y1="375.7" x2="278.6" y2="348.3" stroke="rgb(0,0,0)"  stroke-width="1.0"/>
<line x1="278.6" y1="348.3" x2="316.2" y2="360.8" stroke="rgb(0,0,0)"  stroke-width="1.0"/>
<line x1="282.0" y1="357.0" x2="308.3" y2="365.7" stroke="rgb(0,0,0)"  stroke-width="1.0"/>
<line x1="316.2" y1="360.8" x2="324.0" y2="400.4" stroke="rgb(0,0,0)"  stroke-width="1.0"/>
<line x1="324.0" y1="400.4" x2="294.3" y2="427.8" stroke="rgb(0,0,0)"  stroke-width="1.0"/>
<line x1="314.7" y1="399.2" x2="293.8" y2="418.4" stroke="rgb(0,0,0)"  stroke-width="1.0"/>
<line x1="294.3" y1="427.8" x2="256.6" y2="414.6" stroke="rgb(0,0,0)"  stroke-width="1.0"/>
<line x1="256.6" y1="414.6" x2="249.1" y2="375.7" stroke="rgb(0,0,0)"  stroke-width="1.0"/>
<line x1="262.5" y1="407.4" x2="257.3" y2="380.2" stroke="rgb(0,0,0)"  stroke-width="1.0"/>
<line x1="400.4" y1="425.4" x2="431.6" y2="399.1" stroke="rgb(0,0,0)"  stroke-width="1.0"/>
<line x1="409.6" y1="427.0" x2="431.7" y2="408.5" stroke="rgb(0,0,0)"  stroke-width="1.0"/>
<line x1="431.6" y1="399.1" x2="469.1" y2="414.0" stroke="rgb(0,0,0)"  stroke-width="1.0"/>
<line x1="469.1" y1="414.0" x2="475.1" y2="453.8" stroke="rgb(0,0,0)"  stroke-width="1.0"/>
<line x1="462.9" y1="421.0" x2="467.1" y2="449.0" stroke="rgb(0,0,0)"  stroke-width="1.0"/>
<line x1="475.1" y1="453.8" x2="444.1" y2="478.8" stroke="rgb(0,0,0)"  stroke-width="1.0"/>
<line x1="444.1" y1="478.8" x2="406.4" y2="465.2" stroke="rgb(0,0,0)"  stroke-width="1.0"/>
<line x1="440.9" y1="470.0" x2="414.5" y2="460.5" stroke="rgb(0,0,0)"  stroke-width="1.0"/>
<line x1="406.4" y1="465.2" x2="400.4" y2="425.4" stroke="rgb(0,0,0)"  stroke-width="1.0"/>
<line x1="544.9" y1="443.3" x2="581.5" y2="459.6" stroke="rgb(0,0,0)"  stroke-width="1.0"/>
<line x1="581.5" y1="459.6" x2="613.6" y2="435.1" stroke="rgb(0,0,0)"  stroke-width="1.0"/>
<line x1="581.9" y1="450.3" x2="604.4" y2="433.0" stroke="rgb(0,0,0)"  stroke-width="1.0"/>
<line x1="613.6" y1="435.1" x2="609.5" y2="395.2" stroke="rgb(0,0,0)"  stroke-width="1.0"/>
<line x1="573.7" y1="379.5" x2="540.8" y2="403.4" stroke="rgb(0,0,0)"  stroke-width="1.0"/>
<line x1="540.8" y1="403.4" x2="544.9" y2="443.3" stroke="rgb(0,0,0)"  stroke-width="1.0"/>
<line x1="548.6" y1="408.7" x2="551.4" y2="436.6" stroke="rgb(0,0,0)"  stroke-width="1.0"/>
<line x1="636.8" y1="297.3" x2="676.9" y2="297.7" stroke="rgb(0,0,0)"  stroke-width="1.0"/>
<line x1="642.9" y1="290.1" x2="670.9" y2="290.4" stroke="rgb(0,0,0)"  stroke-width="1.0"/>
<line x1="676.9" y1="297.7" x2="696.0" y2="263.3" stroke="rgb(0,0,0)"  stroke-width="1.0"/>
<line x1="696.0" y1="263.3" x2="678.1" y2="229.0" stroke="rgb(0,0,0)"  stroke-width="1.0"/>
<line x1="686.9" y1="261.3" x2="674.5" y2="237.7" stroke="rgb(0,0,0)"  stroke-width="1.0"/>
<line x1="678.1" y1="229.0" x2="637.7" y2="228.6" stroke="rgb(0,0,0)"  stroke-width="1.0"/>
<line x1="637.7" y1="228.6" x2="617.4" y2="263.0" stroke="rgb(0,0,0)"  stroke-width="1.0"/>
<line x1="640.8" y1="237.4" x2="626.7" y2="261.5" stroke="rgb(0,0,0)"  stroke-width="1.0"/>
<line x1="617.4" y1="263.0" x2="636.8" y2="297.3" stroke="rgb(0,0,0)"  stroke-width="1.0"/>
<text x="121.410537" y="224.543951" fill="rgb(12,12,255)"  stroke="rgb(12,12,255)" stroke-width="1" font-size="16" >N</text>
<text x="75.771278" y="279.666314" fill="rgb(255,12,12)"  stroke="rgb(255,12,12)" stroke-width="1" font-size="16" >O</text>
<text x="175.887428" y="183.636538" fill="rgb(255,12,12)"  stroke="rgb(255,12,12)" stroke-width="1" font-size="16" >O</text>
<text x="203.870835" y="372.672562" fill="rgb(255,12,12)"  stroke="rgb(255,12,12)" stroke-width="1" font-size="16" >O</text>
<text x="122.701482" y="48.000000" fill="rgb(102,102,102)"  stroke="rgb(102,102,102)" stroke-width="1" font-size="16" >CH</text>
<text x="370.582746" y="382.573039" fill="rgb(102,102,102)"  stroke="rgb(102,102,102)" stroke-width="1" font-size="16" >CH</text>
<text x="394.582746" y="386.253039" fill="rgb(102,102,102)"  stroke="rgb(102,102,102)" stroke-width="1" font-size="13" >3</text>
<text x="323.608307" y="459.442480" fill="rgb(102,102,102)"  stroke="rgb(102,102,102)" stroke-width="1" font-size="16" >H</text>
<text x="335.608307" y="463.122480" fill="rgb(102,102,102)"  stroke="rgb(102,102,102)" stroke-width="1" font-size="13" >3</text>
<text x="342.108307" y="459.442480" fill="rgb(102,102,102)"  stroke="rgb(102,102,102)" stroke-width="1" font-size="16" >C</text>
<text x="506.806026" y="477.093478" fill="rgb(255,12,12)"  stroke="rgb(255,12,12)" stroke-width="1" font-size="16" >O</text>
<text x="609.931144" y="339.947602" fill="rgb(12,12,255)"  stroke="rgb(12,12,255)" stroke-width="1" font-size="16" >N</text>
<text x="541.249010" y="322.078212" fill="rgb(255,12,12)"  stroke="rgb(255,12,12)" stroke-width="1" font-size="16" >O</text>
<text x="669.139881" y="377.190868" fill="rgb(255,12,12)"  stroke="rgb(255,12,12)" stroke-width="1" font-size="16" >O</text>
<text x="579.202742" y="166.631013" fill="rgb(102,102,102)"  stroke="rgb(102,102,102)" stroke-width="1" font-size="16" >HC</text>
<text font-size="18.000000" fill ="black" font-family="sans-serif"
x="10.000000" y="20.000000" ></text>
<title> - OBDepict</title>
</svg>
