<?xml version="1.0"?>
<svg xmlns="http://www.w3.org/2000/svg"
xmlns:xlink="http://www.w3.org/1999/xlink" xmlns:cml="http://www.xml-cml.org/schema" width="479.867" height="218.62" x="0" y="0" font-family="sans-serif" stroke="rgb(0,0,0)" stroke-width="1"  stroke-linecap="round">
<rect x="0%" y="0%" width="100%" height="100%" stroke-width="0" fill="rgb(255,255,255)"  />
<line x1="166.5" y1="120.6" x2="180.0" y2="144.0" stroke="rgb(0,0,0)"  stroke-width="1.0"/>
<line x1="120.0" y1="109.3" x2="147.0" y2="109.3" stroke="rgb(0,0,0)"  stroke-width="1.0"/>
<line x1="399.9" y1="109.3" x2="359.9" y2="109.3" stroke="rgb(0,0,0)"  stroke-width="1.0"/>
<line x1="426.9" y1="109.3" x2="399.9" y2="109.3" stroke="rgb(0,0,0)"  stroke-width="1.0"/>
<line x1="426.9" y1="113.5" x2="399.9" y2="113.5" stroke="rgb(0,0,0)"  stroke-width="1.0"/>
<line x1="426.9" y1="105.1" x2="399.9" y2="105.1" stroke="rgb(0,0,0)"  stroke-width="1.0"/>
<line x1="219.9" y1="144.0" x2="180.0" y2="144.0" stroke="rgb(0,0,0)"  stroke-width="1.0"/>
<line x1="163.9" y1="165.9" x2="177.4" y2="142.5" stroke="rgb(0,0,0)"  stroke-width="1.0"/>
<line x1="169.1" y1="168.9" x2="182.6" y2="145.5" stroke="rgb(0,0,0)"  stroke-width="1.0"/>
<line x1="359.9" y1="109.3" x2="346.4" y2="132.7" stroke="rgb(0,0,0)"  stroke-width="1.0"/>
<line x1="326.9" y1="144.0" x2="299.9" y2="144.0" stroke="rgb(0,0,0)"  stroke-width="1.0"/>
<line x1="113.5" y1="51.3" x2="100.0" y2="74.7" stroke="rgb(0,0,0)"  stroke-width="1.0"/>
<line x1="46.5" y1="51.3" x2="60.0" y2="74.7" stroke="rgb(0,0,0)"  stroke-width="1.0"/>
<line x1="219.9" y1="144.0" x2="239.9" y2="178.6" stroke="rgb(0,0,0)"  stroke-width="1.0"/>
<line x1="239.9" y1="178.6" x2="279.9" y2="178.6" stroke="rgb(0,0,0)"  stroke-width="1.0"/>
<line x1="245.9" y1="171.4" x2="273.9" y2="171.4" stroke="rgb(0,0,0)"  stroke-width="1.0"/>
<line x1="279.9" y1="178.6" x2="299.9" y2="144.0" stroke="rgb(0,0,0)"  stroke-width="1.0"/>
<line x1="299.9" y1="144.0" x2="279.9" y2="109.3" stroke="rgb(0,0,0)"  stroke-width="1.0"/>
<line x1="290.7" y1="142.4" x2="276.7" y2="118.1" stroke="rgb(0,0,0)"  stroke-width="1.0"/>
<line x1="279.9" y1="109.3" x2="239.9" y2="109.3" stroke="rgb(0,0,0)"  stroke-width="1.0"/>
<line x1="239.9" y1="109.3" x2="219.9" y2="144.0" stroke="rgb(0,0,0)"  stroke-width="1.0"/>
<line x1="243.2" y1="118.1" x2="229.2" y2="142.4" stroke="rgb(0,0,0)"  stroke-width="1.0"/>
<line x1="120.0" y1="109.3" x2="100.0" y2="74.7" stroke="rgb(0,0,0)"  stroke-width="1.0"/>
<line x1="100.0" y1="74.7" x2="60.0" y2="74.7" stroke="rgb(0,0,0)"  stroke-width="1.0"/>
<line x1="94.0" y1="81.9" x2="66.0" y2="81.9" stroke="rgb(0,0,0)"  stroke-width="1.0"/>
<line x1="60.0" y1="74.7" x2="40.0" y2="109.3" stroke="rgb(0,0,0)"  stroke-width="1.0"/>
<line x1="40.0" y1="109.3" x2="60.0" y2="144.0" stroke="rgb(0,0,0)"  stroke-width="1.0"/>
<line x1="49.2" y1="110.9" x2="63.2" y2="135.2" stroke="rgb(0,0,0)"  stroke-width="1.0"/>
<line x1="60.0" y1="144.0" x2="100.0" y2="144.0" stroke="rgb(0,0,0)"  stroke-width="1.0"/>
<line x1="100.0" y1="144.0" x2="120.0" y2="109.3" stroke="rgb(0,0,0)"  stroke-width="1.0"/>
<line x1="96.7" y1="135.2" x2="110.7" y2="110.9" stroke="rgb(0,0,0)"  stroke-width="1.0"/>
<text x="153.959197" y="117.310189" fill="rgb(12,12,255)"  stroke="rgb(12,12,255)" stroke-width="1" font-size="16" >N</text>
<text x="153.959197" y="101.310189" fill="rgb(12,12,255)"  stroke="rgb(12,12,255)" stroke-width="1" font-size="16" >H</text>
<text x="433.867223" y="117.310189" fill="rgb(102,102,102)"  stroke="rgb(102,102,102)" stroke-width="1" font-size="16" >CH</text>
<text x="153.959197" y="186.620379" fill="rgb(255,12,12)"  stroke="rgb(255,12,12)" stroke-width="1" font-size="16" >O</text>
<text x="333.902842" y="151.965284" fill="rgb(255,12,12)"  stroke="rgb(255,12,12)" stroke-width="1" font-size="16" >O</text>
<text x="115.974415" y="48.000000" fill="rgb(102,102,102)"  stroke="rgb(102,102,102)" stroke-width="1" font-size="16" >CH</text>
<text x="139.974415" y="51.680000" fill="rgb(102,102,102)"  stroke="rgb(102,102,102)" stroke-width="1" font-size="13" >3</text>
<text x="14.000000" y="48.000000" fill="rgb(102,102,102)"  stroke="rgb(102,102,102)" stroke-width="1" font-size="16" >H</text>
<text x="26.000000" y="51.680000" fill="rgb(102,102,102)"  stroke="rgb(102,102,102)" stroke-width="1" font-size="13" >3</text>
<text x="32.500000" y="48.000000" fill="rgb(102,102,102)"  stroke="rgb(102,102,102)" stroke-width="1" font-size="16" >C</text>
<text font-size="18.000000" fill ="black" font-family="sans-serif"
x="10.000000" y="20.000000" ></text>
<title> - OBDepict</title>
</svg>
