<?xml version="1.0"?>
<svg xmlns="http://www.w3.org/2000/svg"
xmlns:xlink="http://www.w3.org/1999/xlink" xmlns:cml="http://www.xml-cml.org/schema" width="341.49" height="249.545" x="0" y="0" font-family="sans-serif" stroke="rgb(0,0,0)" stroke-width="1"  stroke-linecap="round">
<rect x="0%" y="0%" width="100%" height="100%" stroke-width="0" fill="rgb(255,255,255)"  />
<line x1="200.0" y1="109.3" x2="240.1" y2="109.3" stroke="rgb(0,0,0)"  stroke-width="1.0"/>
<line x1="186.6" y1="86.0" x2="200.0" y2="109.3" stroke="rgb(0,0,0)"  stroke-width="1.0"/>
<line x1="60.0" y1="144.1" x2="80.0" y2="109.3" stroke="rgb(0,0,0)"  stroke-width="1.0"/>
<line x1="46.5" y1="167.4" x2="60.0" y2="144.1" stroke="rgb(0,0,0)"  stroke-width="1.0"/>
<line x1="42.9" y1="165.3" x2="56.4" y2="142.0" stroke="rgb(0,0,0)"  stroke-width="1.0"/>
<line x1="50.1" y1="169.5" x2="63.6" y2="146.2" stroke="rgb(0,0,0)"  stroke-width="1.0"/>
<line x1="183.9" y1="131.3" x2="197.4" y2="107.8" stroke="rgb(0,0,0)"  stroke-width="1.0"/>
<line x1="189.1" y1="134.3" x2="202.6" y2="110.8" stroke="rgb(0,0,0)"  stroke-width="1.0"/>
<line x1="140.0" y1="74.8" x2="167.0" y2="74.8" stroke="rgb(0,0,0)"  stroke-width="1.0"/>
<line x1="251.2" y1="179.8" x2="263.5" y2="141.6" stroke="rgb(0,0,0)"  stroke-width="1.0"/>
<line x1="269.2" y1="199.9" x2="251.2" y2="179.8" stroke="rgb(0,0,0)"  stroke-width="1.0"/>
<line x1="240.1" y1="109.3" x2="255.9" y2="87.5" stroke="rgb(0,0,0)"  stroke-width="1.0"/>
<line x1="275.9" y1="81.0" x2="289.1" y2="85.3" stroke="rgb(0,0,0)"  stroke-width="1.0"/>
<line x1="301.5" y1="102.5" x2="301.5" y2="116.1" stroke="rgb(0,0,0)"  stroke-width="1.0"/>
<line x1="294.3" y1="104.5" x2="294.3" y2="114.1" stroke="rgb(0,0,0)"  stroke-width="1.0"/>
<line x1="289.1" y1="133.3" x2="263.5" y2="141.6" stroke="rgb(0,0,0)"  stroke-width="1.0"/>
<line x1="263.5" y1="141.6" x2="240.1" y2="109.3" stroke="rgb(0,0,0)"  stroke-width="1.0"/>
<line x1="265.8" y1="132.6" x2="249.4" y2="109.9" stroke="rgb(0,0,0)"  stroke-width="1.0"/>
<line x1="140.0" y1="74.8" x2="120.0" y2="109.3" stroke="rgb(0,0,0)"  stroke-width="1.0"/>
<line x1="130.8" y1="76.3" x2="116.8" y2="100.5" stroke="rgb(0,0,0)"  stroke-width="1.0"/>
<line x1="120.0" y1="109.3" x2="80.0" y2="109.3" stroke="rgb(0,0,0)"  stroke-width="1.0"/>
<line x1="80.0" y1="109.3" x2="60.0" y2="74.8" stroke="rgb(0,0,0)"  stroke-width="1.0"/>
<line x1="83.2" y1="100.5" x2="69.2" y2="76.3" stroke="rgb(0,0,0)"  stroke-width="1.0"/>
<line x1="60.0" y1="74.8" x2="80.0" y2="40.0" stroke="rgb(0,0,0)"  stroke-width="1.0"/>
<line x1="80.0" y1="40.0" x2="120.0" y2="40.0" stroke="rgb(0,0,0)"  stroke-width="1.0"/>
<line x1="86.0" y1="47.2" x2="114.0" y2="47.2" stroke="rgb(0,0,0)"  stroke-width="1.0"/>
<line x1="120.0" y1="40.0" x2="140.0" y2="74.8" stroke="rgb(0,0,0)"  stroke-width="1.0"/>
<text x="295.490139" y="97.304636" fill="rgb(12,12,255)"  stroke="rgb(12,12,255)" stroke-width="1" font-size="16" >N</text>
<text x="295.490139" y="137.316759" fill="rgb(12,12,255)"  stroke="rgb(12,12,255)" stroke-width="1" font-size="16" >N</text>
<text x="257.500446" y="84.980902" fill="rgb(178,178,0)"  stroke="rgb(178,178,0)" stroke-width="1" font-size="16" >S</text>
<text x="174.042432" y="82.754773" fill="rgb(12,12,255)"  stroke="rgb(12,12,255)" stroke-width="1" font-size="16" >N</text>
<text x="174.042432" y="66.754773" fill="rgb(12,12,255)"  stroke="rgb(12,12,255)" stroke-width="1" font-size="16" >H</text>
<text x="22.000000" y="186.626245" fill="rgb(102,102,102)"  stroke="rgb(102,102,102)" stroke-width="1" font-size="16" >HC</text>
<text x="174.042432" y="152.070320" fill="rgb(255,12,12)"  stroke="rgb(255,12,12)" stroke-width="1" font-size="16" >O</text>
<text x="273.846611" y="217.544704" fill="rgb(102,102,102)"  stroke="rgb(102,102,102)" stroke-width="1" font-size="16" >CH</text>
<text x="297.846611" y="221.224704" fill="rgb(102,102,102)"  stroke="rgb(102,102,102)" stroke-width="1" font-size="13" >3</text>
<text font-size="18.000000" fill ="black" font-family="sans-serif"
x="10.000000" y="20.000000" ></text>
<title> - OBDepict</title>
</svg>
