<?xml version="1.0"?>
<svg xmlns="http://www.w3.org/2000/svg"
xmlns:xlink="http://www.w3.org/1999/xlink" xmlns:cml="http://www.xml-cml.org/schema" width="292.091" height="424.879" x="0" y="0" font-family="sans-serif" stroke="rgb(0,0,0)" stroke-width="1"  stroke-linecap="round">
<rect x="0%" y="0%" width="100%" height="100%" stroke-width="0" fill="rgb(255,255,255)"  />
<line x1="211.9" y1="315.4" x2="171.8" y2="315.4" stroke="rgb(0,0,0)"  stroke-width="1.0"/>
<line x1="234.7" y1="282.3" x2="214.5" y2="316.9" stroke="rgb(0,0,0)"  stroke-width="1.0"/>
<line x1="229.5" y1="279.2" x2="209.3" y2="313.9" stroke="rgb(0,0,0)"  stroke-width="1.0"/>
<line x1="232.1" y1="350.4" x2="211.9" y2="315.4" stroke="rgb(0,0,0)"  stroke-width="1.0"/>
<line x1="211.9" y1="246.3" x2="232.1" y2="280.7" stroke="rgb(0,0,0)"  stroke-width="1.0"/>
<line x1="245.6" y1="373.6" x2="232.1" y2="350.4" stroke="rgb(0,0,0)"  stroke-width="1.0"/>
<line x1="241.9" y1="375.7" x2="228.5" y2="352.5" stroke="rgb(0,0,0)"  stroke-width="1.0"/>
<line x1="249.2" y1="371.5" x2="235.7" y2="348.3" stroke="rgb(0,0,0)"  stroke-width="1.0"/>
<line x1="152.5" y1="74.2" x2="172.4" y2="108.8" stroke="rgb(0,0,0)"  stroke-width="1.0"/>
<line x1="139.3" y1="51.3" x2="152.5" y2="74.2" stroke="rgb(0,0,0)"  stroke-width="1.0"/>
<line x1="142.9" y1="49.2" x2="156.1" y2="72.1" stroke="rgb(0,0,0)"  stroke-width="1.0"/>
<line x1="135.6" y1="53.4" x2="148.8" y2="76.3" stroke="rgb(0,0,0)"  stroke-width="1.0"/>
<line x1="224.6" y1="154.8" x2="211.6" y2="177.9" stroke="rgb(0,0,0)"  stroke-width="1.0"/>
<line x1="125.3" y1="211.8" x2="152.0" y2="212.1" stroke="rgb(0,0,0)"  stroke-width="1.0"/>
<line x1="158.4" y1="154.7" x2="171.8" y2="177.9" stroke="rgb(0,0,0)"  stroke-width="1.0"/>
<line x1="172.4" y1="108.8" x2="158.6" y2="132.3" stroke="rgb(0,0,0)"  stroke-width="1.0"/>
<line x1="171.8" y1="315.4" x2="155.9" y2="293.3" stroke="rgb(0,0,0)"  stroke-width="1.0"/>
<line x1="135.9" y1="286.8" x2="109.3" y2="295.4" stroke="rgb(0,0,0)"  stroke-width="1.0"/>
<line x1="109.3" y1="295.4" x2="109.3" y2="335.7" stroke="rgb(0,0,0)"  stroke-width="1.0"/>
<line x1="109.3" y1="335.7" x2="135.8" y2="344.4" stroke="rgb(0,0,0)"  stroke-width="1.0"/>
<line x1="155.9" y1="337.5" x2="171.8" y2="315.4" stroke="rgb(0,0,0)"  stroke-width="1.0"/>
<line x1="151.2" y1="331.7" x2="162.4" y2="316.1" stroke="rgb(0,0,0)"  stroke-width="1.0"/>
<line x1="152.0" y1="212.1" x2="171.8" y2="177.9" stroke="rgb(0,0,0)"  stroke-width="1.0"/>
<line x1="161.2" y1="210.5" x2="175.0" y2="186.8" stroke="rgb(0,0,0)"  stroke-width="1.0"/>
<line x1="171.8" y1="177.9" x2="211.6" y2="177.9" stroke="rgb(0,0,0)"  stroke-width="1.0"/>
<line x1="211.6" y1="177.9" x2="230.9" y2="212.3" stroke="rgb(0,0,0)"  stroke-width="1.0"/>
<line x1="208.3" y1="186.7" x2="221.7" y2="210.6" stroke="rgb(0,0,0)"  stroke-width="1.0"/>
<line x1="230.9" y1="212.3" x2="211.9" y2="246.3" stroke="rgb(0,0,0)"  stroke-width="1.0"/>
<line x1="211.9" y1="246.3" x2="171.8" y2="246.3" stroke="rgb(0,0,0)"  stroke-width="1.0"/>
<line x1="205.9" y1="239.1" x2="177.8" y2="239.1" stroke="rgb(0,0,0)"  stroke-width="1.0"/>
<line x1="171.8" y1="246.3" x2="152.0" y2="212.1" stroke="rgb(0,0,0)"  stroke-width="1.0"/>
<line x1="74.7" y1="355.9" x2="40.0" y2="335.7" stroke="rgb(0,0,0)"  stroke-width="1.0"/>
<line x1="40.0" y1="335.7" x2="40.0" y2="295.4" stroke="rgb(0,0,0)"  stroke-width="1.0"/>
<line x1="47.2" y1="329.7" x2="47.2" y2="301.4" stroke="rgb(0,0,0)"  stroke-width="1.0"/>
<line x1="40.0" y1="295.4" x2="74.7" y2="275.2" stroke="rgb(0,0,0)"  stroke-width="1.0"/>
<line x1="74.7" y1="275.2" x2="109.3" y2="295.4" stroke="rgb(0,0,0)"  stroke-width="1.0"/>
<line x1="76.2" y1="284.5" x2="100.5" y2="298.6" stroke="rgb(0,0,0)"  stroke-width="1.0"/>
<line x1="109.3" y1="335.7" x2="74.7" y2="355.9" stroke="rgb(0,0,0)"  stroke-width="1.0"/>
<line x1="100.5" y1="332.5" x2="76.2" y2="346.6" stroke="rgb(0,0,0)"  stroke-width="1.0"/>
<text x="142.125255" y="356.391947" fill="rgb(12,12,255)"  stroke="rgb(12,12,255)" stroke-width="1" font-size="16" >N</text>
<text x="142.295347" y="290.746033" fill="rgb(12,12,255)"  stroke="rgb(12,12,255)" stroke-width="1" font-size="16" >N</text>
<text x="142.295347" y="274.746033" fill="rgb(12,12,255)"  stroke="rgb(12,12,255)" stroke-width="1" font-size="16" >H</text>
<text x="246.090538" y="392.879178" fill="rgb(12,12,255)"  stroke="rgb(12,12,255)" stroke-width="1" font-size="16" >N</text>
<text x="114.802367" y="48.000000" fill="rgb(102,102,102)"  stroke="rgb(102,102,102)" stroke-width="1" font-size="16" >HC</text>
<text x="224.931054" y="151.464725" fill="rgb(147,0,147)"  stroke="rgb(147,0,147)" stroke-width="1" font-size="16" >I</text>
<text x="106.308673" y="219.608567" fill="rgb(147,0,147)"  stroke="rgb(147,0,147)" stroke-width="1" font-size="16" >I</text>
<text x="145.959622" y="151.464725" fill="rgb(255,12,12)"  stroke="rgb(255,12,12)" stroke-width="1" font-size="16" >O</text>
<text font-size="18.000000" fill ="black" font-family="sans-serif"
x="10.000000" y="20.000000" ></text>
<title> - OBDepict</title>
</svg>
