<?xml version="1.0"?>
<svg xmlns="http://www.w3.org/2000/svg"
xmlns:xlink="http://www.w3.org/1999/xlink" xmlns:cml="http://www.xml-cml.org/schema" width="475.308" height="278.363" x="0" y="0" font-family="sans-serif" stroke="rgb(0,0,0)" stroke-width="1"  stroke-linecap="round">
<rect x="0%" y="0%" width="100%" height="100%" stroke-width="0" fill="rgb(255,255,255)"  />
<line x1="266.9" y1="112.0" x2="239.9" y2="111.7" stroke="rgb(0,0,0)"  stroke-width="1.0"/>
<line x1="267.0" y1="106.0" x2="240.0" y2="105.7" stroke="rgb(0,0,0)"  stroke-width="1.0"/>
<line x1="300.0" y1="74.5" x2="286.5" y2="97.8" stroke="rgb(0,0,0)"  stroke-width="1.0"/>
<line x1="340.0" y1="74.5" x2="300.0" y2="74.5" stroke="rgb(0,0,0)"  stroke-width="1.0"/>
<line x1="202.0" y1="208.7" x2="228.7" y2="179.0" stroke="rgb(0,0,0)"  stroke-width="1.0"/>
<line x1="184.0" y1="228.7" x2="202.0" y2="208.7" stroke="rgb(0,0,0)"  stroke-width="1.0"/>
<line x1="180.9" y1="225.9" x2="198.9" y2="205.9" stroke="rgb(0,0,0)"  stroke-width="1.0"/>
<line x1="187.2" y1="231.5" x2="205.1" y2="211.5" stroke="rgb(0,0,0)"  stroke-width="1.0"/>
<line x1="289.1" y1="49.7" x2="302.6" y2="73.0" stroke="rgb(0,0,0)"  stroke-width="1.0"/>
<line x1="283.9" y1="52.8" x2="297.4" y2="76.0" stroke="rgb(0,0,0)"  stroke-width="1.0"/>
<line x1="228.7" y1="179.0" x2="220.5" y2="153.2" stroke="rgb(0,0,0)"  stroke-width="1.0"/>
<line x1="424.6" y1="110.4" x2="402.0" y2="94.7" stroke="rgb(0,0,0)"  stroke-width="1.0"/>
<line x1="85.4" y1="75.0" x2="109.3" y2="88.7" stroke="rgb(0,0,0)"  stroke-width="1.0"/>
<line x1="51.2" y1="81.9" x2="62.9" y2="75.1" stroke="rgb(0,0,0)"  stroke-width="1.0"/>
<line x1="240.0" y1="108.7" x2="224.2" y2="86.9" stroke="rgb(0,0,0)"  stroke-width="1.0"/>
<line x1="204.2" y1="80.4" x2="178.4" y2="88.7" stroke="rgb(0,0,0)"  stroke-width="1.0"/>
<line x1="178.4" y1="88.7" x2="178.4" y2="128.7" stroke="rgb(0,0,0)"  stroke-width="1.0"/>
<line x1="185.6" y1="94.7" x2="185.6" y2="122.7" stroke="rgb(0,0,0)"  stroke-width="1.0"/>
<line x1="178.4" y1="128.7" x2="204.2" y2="136.9" stroke="rgb(0,0,0)"  stroke-width="1.0"/>
<line x1="224.2" y1="130.3" x2="240.0" y2="108.7" stroke="rgb(0,0,0)"  stroke-width="1.0"/>
<line x1="340.0" y1="74.5" x2="356.5" y2="96.8" stroke="rgb(0,0,0)"  stroke-width="1.0"/>
<line x1="376.5" y1="103.2" x2="402.0" y2="94.7" stroke="rgb(0,0,0)"  stroke-width="1.0"/>
<line x1="402.0" y1="94.7" x2="401.8" y2="54.8" stroke="rgb(0,0,0)"  stroke-width="1.0"/>
<line x1="394.7" y1="88.8" x2="394.6" y2="60.8" stroke="rgb(0,0,0)"  stroke-width="1.0"/>
<line x1="401.8" y1="54.8" x2="363.8" y2="42.6" stroke="rgb(0,0,0)"  stroke-width="1.0"/>
<line x1="363.8" y1="42.6" x2="340.0" y2="74.5" stroke="rgb(0,0,0)"  stroke-width="1.0"/>
<line x1="366.0" y1="51.7" x2="349.3" y2="74.0" stroke="rgb(0,0,0)"  stroke-width="1.0"/>
<line x1="143.8" y1="68.7" x2="178.4" y2="88.7" stroke="rgb(0,0,0)"  stroke-width="1.0"/>
<line x1="178.4" y1="128.7" x2="143.8" y2="148.7" stroke="rgb(0,0,0)"  stroke-width="1.0"/>
<line x1="143.8" y1="148.7" x2="109.3" y2="128.7" stroke="rgb(0,0,0)"  stroke-width="1.0"/>
<line x1="142.2" y1="139.4" x2="118.1" y2="125.5" stroke="rgb(0,0,0)"  stroke-width="1.0"/>
<line x1="109.3" y1="128.7" x2="109.3" y2="88.7" stroke="rgb(0,0,0)"  stroke-width="1.0"/>
<line x1="109.3" y1="88.7" x2="143.8" y2="68.7" stroke="rgb(0,0,0)"  stroke-width="1.0"/>
<line x1="118.1" y1="91.9" x2="142.2" y2="77.9" stroke="rgb(0,0,0)"  stroke-width="1.0"/>
<text x="273.973277" y="117.084902" fill="rgb(12,12,255)"  stroke="rgb(12,12,255)" stroke-width="1" font-size="16" >N</text>
<text x="210.548693" y="148.797194" fill="rgb(12,12,255)"  stroke="rgb(12,12,255)" stroke-width="1" font-size="16" >N</text>
<text x="210.548693" y="84.361493" fill="rgb(178,178,0)"  stroke="rgb(178,178,0)" stroke-width="1" font-size="16" >S</text>
<text x="358.205577" y="115.265860" fill="rgb(178,178,0)"  stroke="rgb(178,178,0)" stroke-width="1" font-size="16" >S</text>
<text x="157.339646" y="246.362686" fill="rgb(102,102,102)"  stroke="rgb(102,102,102)" stroke-width="1" font-size="16" >HC</text>
<text x="273.973277" y="48.000000" fill="rgb(255,12,12)"  stroke="rgb(255,12,12)" stroke-width="1" font-size="16" >O</text>
<text x="429.307874" y="125.768894" fill="rgb(165,40,40)"  stroke="rgb(165,40,40)" stroke-width="1" font-size="16" >Br</text>
<text x="68.140907" y="76.480590" fill="rgb(255,12,12)"  stroke="rgb(255,12,12)" stroke-width="1" font-size="16" >O</text>
<text x="14.000000" y="96.480378" fill="rgb(102,102,102)"  stroke="rgb(102,102,102)" stroke-width="1" font-size="16" >H</text>
<text x="26.000000" y="100.160378" fill="rgb(102,102,102)"  stroke="rgb(102,102,102)" stroke-width="1" font-size="13" >3</text>
<text x="32.500000" y="96.480378" fill="rgb(102,102,102)"  stroke="rgb(102,102,102)" stroke-width="1" font-size="16" >C</text>
<text font-size="18.000000" fill ="black" font-family="sans-serif"
x="10.000000" y="20.000000" ></text>
<title> - OBDepict</title>
</svg>
