<?xml version="1.0"?>
<svg xmlns="http://www.w3.org/2000/svg"
xmlns:xlink="http://www.w3.org/1999/xlink" xmlns:cml="http://www.xml-cml.org/schema" width="406.216" height="433.046" x="0" y="0" font-family="sans-serif" stroke="rgb(0,0,0)" stroke-width="1"  stroke-linecap="round">
<rect x="0%" y="0%" width="100%" height="100%" stroke-width="0" fill="rgb(255,255,255)"  />
<line x1="200.7" y1="313.4" x2="162.6" y2="325.7" stroke="rgb(0,0,0)"  stroke-width="1.0"/>
<line x1="198.9" y1="307.7" x2="160.7" y2="320.0" stroke="rgb(0,0,0)"  stroke-width="1.0"/>
<line x1="208.0" y1="271.2" x2="199.8" y2="310.5" stroke="rgb(0,0,0)"  stroke-width="1.0"/>
<line x1="231.2" y1="166.7" x2="225.2" y2="192.7" stroke="rgb(0,0,0)"  stroke-width="1.0"/>
<line x1="50.7" y1="271.4" x2="59.2" y2="310.5" stroke="rgb(0,0,0)"  stroke-width="1.0"/>
<line x1="43.5" y1="245.2" x2="50.7" y2="271.4" stroke="rgb(0,0,0)"  stroke-width="1.0"/>
<line x1="47.5" y1="244.1" x2="54.7" y2="270.3" stroke="rgb(0,0,0)"  stroke-width="1.0"/>
<line x1="39.4" y1="246.3" x2="46.6" y2="272.5" stroke="rgb(0,0,0)"  stroke-width="1.0"/>
<line x1="91.1" y1="380.8" x2="107.0" y2="359.2" stroke="rgb(0,0,0)"  stroke-width="1.0"/>
<line x1="95.9" y1="384.4" x2="111.8" y2="362.7" stroke="rgb(0,0,0)"  stroke-width="1.0"/>
<line x1="132.1" y1="272.3" x2="132.4" y2="299.2" stroke="rgb(0,0,0)"  stroke-width="1.0"/>
<line x1="126.1" y1="272.3" x2="126.4" y2="299.3" stroke="rgb(0,0,0)"  stroke-width="1.0"/>
<line x1="281.3" y1="102.5" x2="272.4" y2="141.9" stroke="rgb(0,0,0)"  stroke-width="1.0"/>
<line x1="59.2" y1="310.5" x2="84.5" y2="318.8" stroke="rgb(0,0,0)"  stroke-width="1.0"/>
<line x1="263.0" y1="82.4" x2="283.3" y2="100.3" stroke="rgb(0,0,0)"  stroke-width="1.0"/>
<line x1="259.0" y1="86.9" x2="279.3" y2="104.8" stroke="rgb(0,0,0)"  stroke-width="1.0"/>
<line x1="272.4" y1="141.9" x2="246.5" y2="150.1" stroke="rgb(0,0,0)"  stroke-width="1.0"/>
<line x1="280.6" y1="211.8" x2="254.6" y2="220.0" stroke="rgb(0,0,0)"  stroke-width="1.0"/>
<line x1="167.4" y1="187.0" x2="186.9" y2="204.8" stroke="rgb(0,0,0)"  stroke-width="1.0"/>
<line x1="306.6" y1="94.4" x2="281.3" y2="102.5" stroke="rgb(0,0,0)"  stroke-width="1.0"/>
<line x1="119.7" y1="190.3" x2="145.4" y2="182.1" stroke="rgb(0,0,0)"  stroke-width="1.0"/>
<line x1="327.9" y1="51.9" x2="321.9" y2="77.8" stroke="rgb(0,0,0)"  stroke-width="1.0"/>
<line x1="99.8" y1="172.2" x2="119.7" y2="190.3" stroke="rgb(0,0,0)"  stroke-width="1.0"/>
<line x1="353.8" y1="43.9" x2="327.9" y2="51.9" stroke="rgb(0,0,0)"  stroke-width="1.0"/>
<line x1="107.4" y1="315.2" x2="129.4" y2="299.2" stroke="rgb(0,0,0)"  stroke-width="1.0"/>
<line x1="129.4" y1="299.2" x2="161.7" y2="322.8" stroke="rgb(0,0,0)"  stroke-width="1.0"/>
<line x1="161.7" y1="322.8" x2="153.3" y2="348.6" stroke="rgb(0,0,0)"  stroke-width="1.0"/>
<line x1="136.3" y1="361.0" x2="109.4" y2="361.0" stroke="rgb(0,0,0)"  stroke-width="1.0"/>
<line x1="109.4" y1="361.0" x2="100.9" y2="335.2" stroke="rgb(0,0,0)"  stroke-width="1.0"/>
<line x1="254.6" y1="220.0" x2="225.2" y2="192.7" stroke="rgb(0,0,0)"  stroke-width="1.0"/>
<line x1="225.2" y1="192.7" x2="186.9" y2="204.8" stroke="rgb(0,0,0)"  stroke-width="1.0"/>
<line x1="221.6" y1="201.4" x2="194.8" y2="209.9" stroke="rgb(0,0,0)"  stroke-width="1.0"/>
<line x1="186.9" y1="204.8" x2="178.4" y2="244.2" stroke="rgb(0,0,0)"  stroke-width="1.0"/>
<line x1="178.4" y1="244.2" x2="208.0" y2="271.2" stroke="rgb(0,0,0)"  stroke-width="1.0"/>
<line x1="187.7" y1="242.9" x2="208.5" y2="261.8" stroke="rgb(0,0,0)"  stroke-width="1.0"/>
<line x1="208.0" y1="271.2" x2="246.2" y2="259.1" stroke="rgb(0,0,0)"  stroke-width="1.0"/>
<line x1="246.2" y1="259.1" x2="254.6" y2="220.0" stroke="rgb(0,0,0)"  stroke-width="1.0"/>
<line x1="240.4" y1="251.7" x2="246.3" y2="224.3" stroke="rgb(0,0,0)"  stroke-width="1.0"/>
<text x="90.894441" y="330.838455" fill="rgb(12,12,255)"  stroke="rgb(12,12,255)" stroke-width="1" font-size="16" >N</text>
<text x="143.344688" y="368.969060" fill="rgb(178,178,0)"  stroke="rgb(178,178,0)" stroke-width="1" font-size="16" >S</text>
<text x="228.071262" y="161.983377" fill="rgb(255,12,12)"  stroke="rgb(255,12,12)" stroke-width="1" font-size="16" >O</text>
<text x="22.000000" y="240.661179" fill="rgb(102,102,102)"  stroke="rgb(102,102,102)" stroke-width="1" font-size="16" >HC</text>
<text x="79.793680" y="401.046030" fill="rgb(255,12,12)"  stroke="rgb(255,12,12)" stroke-width="1" font-size="16" >O</text>
<text x="122.966549" y="267.292309" fill="rgb(255,12,12)"  stroke="rgb(255,12,12)" stroke-width="1" font-size="16" >O</text>
<text x="245.220796" y="84.107864" fill="rgb(255,12,12)"  stroke="rgb(255,12,12)" stroke-width="1" font-size="16" >O</text>
<text x="286.983582" y="215.848570" fill="rgb(30,239,30)"  stroke="rgb(30,239,30)" stroke-width="1" font-size="16" >Cl</text>
<text x="151.814915" y="186.193053" fill="rgb(255,12,12)"  stroke="rgb(255,12,12)" stroke-width="1" font-size="16" >O</text>
<text x="313.006917" y="98.437231" fill="rgb(255,12,12)"  stroke="rgb(255,12,12)" stroke-width="1" font-size="16" >O</text>
<text x="64.233012" y="171.464974" fill="rgb(102,102,102)"  stroke="rgb(102,102,102)" stroke-width="1" font-size="16" >H</text>
<text x="76.233012" y="175.144974" fill="rgb(102,102,102)"  stroke="rgb(102,102,102)" stroke-width="1" font-size="13" >3</text>
<text x="82.733012" y="171.464974" fill="rgb(102,102,102)"  stroke="rgb(102,102,102)" stroke-width="1" font-size="16" >C</text>
<text x="362.215543" y="48.000000" fill="rgb(102,102,102)"  stroke="rgb(102,102,102)" stroke-width="1" font-size="16" >CH</text>
<text x="386.215543" y="51.680000" fill="rgb(102,102,102)"  stroke="rgb(102,102,102)" stroke-width="1" font-size="13" >3</text>
<text font-size="18.000000" fill ="black" font-family="sans-serif"
x="10.000000" y="20.000000" ></text>
<title> - OBDepict</title>
</svg>
