<?xml version="1.0"?>
<svg xmlns="http://www.w3.org/2000/svg"
xmlns:xlink="http://www.w3.org/1999/xlink" xmlns:cml="http://www.xml-cml.org/schema" width="357.23" height="439.869" x="0" y="0" font-family="sans-serif" stroke="rgb(0,0,0)" stroke-width="1"  stroke-linecap="round">
<rect x="0%" y="0%" width="100%" height="100%" stroke-width="0" fill="rgb(255,255,255)"  />
<line x1="181.6" y1="219.9" x2="181.6" y2="259.9" stroke="rgb(0,0,0)"  stroke-width="1.0"/>
<line x1="175.6" y1="219.9" x2="175.6" y2="259.9" stroke="rgb(0,0,0)"  stroke-width="1.0"/>
<line x1="247.9" y1="339.9" x2="224.5" y2="326.4" stroke="rgb(0,0,0)"  stroke-width="1.0"/>
<line x1="144.0" y1="199.9" x2="178.6" y2="219.9" stroke="rgb(0,0,0)"  stroke-width="1.0"/>
<line x1="213.3" y1="80.0" x2="178.6" y2="100.0" stroke="rgb(0,0,0)"  stroke-width="1.0"/>
<line x1="175.6" y1="366.9" x2="175.6" y2="339.9" stroke="rgb(0,0,0)"  stroke-width="1.0"/>
<line x1="181.6" y1="366.9" x2="181.6" y2="339.9" stroke="rgb(0,0,0)"  stroke-width="1.0"/>
<line x1="238.2" y1="269.0" x2="214.8" y2="282.5" stroke="rgb(0,0,0)"  stroke-width="1.0"/>
<line x1="235.2" y1="263.8" x2="211.8" y2="277.3" stroke="rgb(0,0,0)"  stroke-width="1.0"/>
<line x1="213.3" y1="53.0" x2="213.3" y2="80.0" stroke="rgb(0,0,0)"  stroke-width="1.0"/>
<line x1="217.5" y1="53.0" x2="217.5" y2="80.0" stroke="rgb(0,0,0)"  stroke-width="1.0"/>
<line x1="209.1" y1="53.0" x2="209.1" y2="80.0" stroke="rgb(0,0,0)"  stroke-width="1.0"/>
<line x1="122.1" y1="263.8" x2="145.5" y2="277.3" stroke="rgb(0,0,0)"  stroke-width="1.0"/>
<line x1="119.1" y1="269.0" x2="142.5" y2="282.5" stroke="rgb(0,0,0)"  stroke-width="1.0"/>
<line x1="51.3" y1="213.4" x2="74.7" y2="199.9" stroke="rgb(0,0,0)"  stroke-width="1.0"/>
<line x1="167.4" y1="146.5" x2="144.0" y2="160.0" stroke="rgb(0,0,0)"  stroke-width="1.0"/>
<line x1="178.6" y1="100.0" x2="178.6" y2="127.0" stroke="rgb(0,0,0)"  stroke-width="1.0"/>
<line x1="224.5" y1="393.4" x2="247.9" y2="379.9" stroke="rgb(0,0,0)"  stroke-width="1.0"/>
<line x1="213.3" y1="306.9" x2="213.3" y2="279.9" stroke="rgb(0,0,0)"  stroke-width="1.0"/>
<line x1="213.3" y1="279.9" x2="178.6" y2="259.9" stroke="rgb(0,0,0)"  stroke-width="1.0"/>
<line x1="178.6" y1="259.9" x2="144.0" y2="279.9" stroke="rgb(0,0,0)"  stroke-width="1.0"/>
<line x1="144.0" y1="279.9" x2="144.0" y2="306.9" stroke="rgb(0,0,0)"  stroke-width="1.0"/>
<line x1="155.2" y1="326.4" x2="178.6" y2="339.9" stroke="rgb(0,0,0)"  stroke-width="1.0"/>
<line x1="178.6" y1="339.9" x2="202.0" y2="326.4" stroke="rgb(0,0,0)"  stroke-width="1.0"/>
<line x1="144.0" y1="199.9" x2="144.0" y2="160.0" stroke="rgb(0,0,0)"  stroke-width="1.0"/>
<line x1="144.0" y1="160.0" x2="109.3" y2="140.0" stroke="rgb(0,0,0)"  stroke-width="1.0"/>
<line x1="135.2" y1="163.2" x2="110.9" y2="149.2" stroke="rgb(0,0,0)"  stroke-width="1.0"/>
<line x1="109.3" y1="140.0" x2="74.7" y2="160.0" stroke="rgb(0,0,0)"  stroke-width="1.0"/>
<line x1="74.7" y1="160.0" x2="74.7" y2="199.9" stroke="rgb(0,0,0)"  stroke-width="1.0"/>
<line x1="81.9" y1="166.0" x2="81.9" y2="193.9" stroke="rgb(0,0,0)"  stroke-width="1.0"/>
<line x1="74.7" y1="199.9" x2="109.3" y2="219.9" stroke="rgb(0,0,0)"  stroke-width="1.0"/>
<line x1="109.3" y1="219.9" x2="144.0" y2="199.9" stroke="rgb(0,0,0)"  stroke-width="1.0"/>
<line x1="110.9" y1="210.7" x2="135.2" y2="196.7" stroke="rgb(0,0,0)"  stroke-width="1.0"/>
<line x1="247.9" y1="339.9" x2="247.9" y2="379.9" stroke="rgb(0,0,0)"  stroke-width="1.0"/>
<line x1="247.9" y1="379.9" x2="282.6" y2="399.9" stroke="rgb(0,0,0)"  stroke-width="1.0"/>
<line x1="256.7" y1="376.6" x2="281.0" y2="390.6" stroke="rgb(0,0,0)"  stroke-width="1.0"/>
<line x1="282.6" y1="399.9" x2="317.2" y2="379.9" stroke="rgb(0,0,0)"  stroke-width="1.0"/>
<line x1="317.2" y1="379.9" x2="317.2" y2="339.9" stroke="rgb(0,0,0)"  stroke-width="1.0"/>
<line x1="310.0" y1="373.9" x2="310.0" y2="345.9" stroke="rgb(0,0,0)"  stroke-width="1.0"/>
<line x1="317.2" y1="339.9" x2="282.6" y2="319.9" stroke="rgb(0,0,0)"  stroke-width="1.0"/>
<line x1="282.6" y1="319.9" x2="247.9" y2="339.9" stroke="rgb(0,0,0)"  stroke-width="1.0"/>
<line x1="281.0" y1="329.1" x2="256.7" y2="343.1" stroke="rgb(0,0,0)"  stroke-width="1.0"/>
<text x="207.269017" y="327.897596" fill="rgb(12,12,255)"  stroke="rgb(12,12,255)" stroke-width="1" font-size="16" >N</text>
<text x="125.961410" y="327.897596" fill="rgb(12,12,255)"  stroke="rgb(12,12,255)" stroke-width="1" font-size="16" >HN</text>
<text x="172.615214" y="387.874960" fill="rgb(255,12,12)"  stroke="rgb(255,12,12)" stroke-width="1" font-size="16" >O</text>
<text x="241.922820" y="267.920233" fill="rgb(255,12,12)"  stroke="rgb(255,12,12)" stroke-width="1" font-size="16" >O</text>
<text x="207.269017" y="48.000000" fill="rgb(102,102,102)"  stroke="rgb(102,102,102)" stroke-width="1" font-size="16" >CH</text>
<text x="103.307607" y="267.920233" fill="rgb(255,12,12)"  stroke="rgb(255,12,12)" stroke-width="1" font-size="16" >O</text>
<text x="22.000000" y="227.936940" fill="rgb(165,40,40)"  stroke="rgb(165,40,40)" stroke-width="1" font-size="16" >Br</text>
<text x="172.615214" y="147.965506" fill="rgb(255,12,12)"  stroke="rgb(255,12,12)" stroke-width="1" font-size="16" >O</text>
<text x="187.269017" y="407.869031" fill="rgb(102,102,102)"  stroke="rgb(102,102,102)" stroke-width="1" font-size="16" >H</text>
<text x="199.269017" y="411.549031" fill="rgb(102,102,102)"  stroke="rgb(102,102,102)" stroke-width="1" font-size="13" >3</text>
<text x="205.769017" y="407.869031" fill="rgb(102,102,102)"  stroke="rgb(102,102,102)" stroke-width="1" font-size="16" >C</text>
<text font-size="18.000000" fill ="black" font-family="sans-serif"
x="10.000000" y="20.000000" ></text>
<title> - OBDepict</title>
</svg>
