<?xml version="1.0"?>
<svg xmlns="http://www.w3.org/2000/svg"
xmlns:xlink="http://www.w3.org/1999/xlink" xmlns:cml="http://www.xml-cml.org/schema" width="283.218" height="409.371" x="0" y="0" font-family="sans-serif" stroke="rgb(0,0,0)" stroke-width="1"  stroke-linecap="round">
<rect x="0%" y="0%" width="100%" height="100%" stroke-width="0" fill="rgb(255,255,255)"  />
<line x1="155.9" y1="289.1" x2="117.6" y2="301.2" stroke="rgb(0,0,0)"  stroke-width="1.0"/>
<line x1="154.1" y1="283.4" x2="115.8" y2="295.5" stroke="rgb(0,0,0)"  stroke-width="1.0"/>
<line x1="234.7" y1="78.9" x2="226.0" y2="118.1" stroke="rgb(0,0,0)"  stroke-width="1.0"/>
<line x1="240.4" y1="52.7" x2="234.7" y2="78.9" stroke="rgb(0,0,0)"  stroke-width="1.0"/>
<line x1="244.5" y1="53.6" x2="238.8" y2="79.8" stroke="rgb(0,0,0)"  stroke-width="1.0"/>
<line x1="236.3" y1="51.8" x2="230.6" y2="78.0" stroke="rgb(0,0,0)"  stroke-width="1.0"/>
<line x1="162.9" y1="247.1" x2="155.0" y2="286.2" stroke="rgb(0,0,0)"  stroke-width="1.0"/>
<line x1="45.3" y1="357.1" x2="61.7" y2="334.9" stroke="rgb(0,0,0)"  stroke-width="1.0"/>
<line x1="50.1" y1="360.7" x2="66.5" y2="338.5" stroke="rgb(0,0,0)"  stroke-width="1.0"/>
<line x1="86.9" y1="247.9" x2="87.2" y2="275.0" stroke="rgb(0,0,0)"  stroke-width="1.0"/>
<line x1="80.9" y1="247.9" x2="81.2" y2="275.1" stroke="rgb(0,0,0)"  stroke-width="1.0"/>
<line x1="122.1" y1="163.3" x2="141.6" y2="181.0" stroke="rgb(0,0,0)"  stroke-width="1.0"/>
<line x1="185.4" y1="142.5" x2="179.3" y2="168.8" stroke="rgb(0,0,0)"  stroke-width="1.0"/>
<line x1="226.0" y1="118.1" x2="200.7" y2="126.0" stroke="rgb(0,0,0)"  stroke-width="1.0"/>
<line x1="87.1" y1="162.5" x2="100.0" y2="158.5" stroke="rgb(0,0,0)"  stroke-width="1.0"/>
<line x1="55.6" y1="310.7" x2="64.1" y2="336.7" stroke="rgb(0,0,0)"  stroke-width="1.0"/>
<line x1="64.1" y1="336.7" x2="91.3" y2="336.7" stroke="rgb(0,0,0)"  stroke-width="1.0"/>
<line x1="108.3" y1="324.3" x2="116.7" y2="298.4" stroke="rgb(0,0,0)"  stroke-width="1.0"/>
<line x1="116.7" y1="298.4" x2="84.2" y2="275.1" stroke="rgb(0,0,0)"  stroke-width="1.0"/>
<line x1="84.2" y1="275.1" x2="62.1" y2="290.8" stroke="rgb(0,0,0)"  stroke-width="1.0"/>
<line x1="141.6" y1="181.0" x2="179.3" y2="168.8" stroke="rgb(0,0,0)"  stroke-width="1.0"/>
<line x1="149.5" y1="186.0" x2="175.8" y2="177.5" stroke="rgb(0,0,0)"  stroke-width="1.0"/>
<line x1="179.3" y1="168.8" x2="209.1" y2="195.6" stroke="rgb(0,0,0)"  stroke-width="1.0"/>
<line x1="209.1" y1="195.6" x2="200.6" y2="234.9" stroke="rgb(0,0,0)"  stroke-width="1.0"/>
<line x1="200.8" y1="199.9" x2="194.9" y2="227.5" stroke="rgb(0,0,0)"  stroke-width="1.0"/>
<line x1="200.6" y1="234.9" x2="162.9" y2="247.1" stroke="rgb(0,0,0)"  stroke-width="1.0"/>
<line x1="162.9" y1="247.1" x2="133.1" y2="220.3" stroke="rgb(0,0,0)"  stroke-width="1.0"/>
<line x1="163.3" y1="237.7" x2="142.4" y2="219.0" stroke="rgb(0,0,0)"  stroke-width="1.0"/>
<line x1="133.1" y1="220.3" x2="141.6" y2="181.0" stroke="rgb(0,0,0)"  stroke-width="1.0"/>
<text x="33.559421" y="306.387049" fill="rgb(12,12,255)"  stroke="rgb(12,12,255)" stroke-width="1" font-size="16" >HN</text>
<text x="98.290778" y="344.717700" fill="rgb(12,12,255)"  stroke="rgb(12,12,255)" stroke-width="1" font-size="16" >N</text>
<text x="98.290778" y="360.717700" fill="rgb(12,12,255)"  stroke="rgb(12,12,255)" stroke-width="1" font-size="16" >H</text>
<text x="237.217529" y="48.000000" fill="rgb(102,102,102)"  stroke="rgb(102,102,102)" stroke-width="1" font-size="16" >CH</text>
<text x="34.000000" y="377.370635" fill="rgb(255,12,12)"  stroke="rgb(255,12,12)" stroke-width="1" font-size="16" >O</text>
<text x="77.809233" y="242.902517" fill="rgb(255,12,12)"  stroke="rgb(255,12,12)" stroke-width="1" font-size="16" >O</text>
<text x="106.406657" y="162.588828" fill="rgb(255,12,12)"  stroke="rgb(255,12,12)" stroke-width="1" font-size="16" >O</text>
<text x="182.256855" y="137.847782" fill="rgb(255,12,12)"  stroke="rgb(255,12,12)" stroke-width="1" font-size="16" >O</text>
<text x="48.683119" y="174.352239" fill="rgb(102,102,102)"  stroke="rgb(102,102,102)" stroke-width="1" font-size="16" >H</text>
<text x="60.683119" y="178.032239" fill="rgb(102,102,102)"  stroke="rgb(102,102,102)" stroke-width="1" font-size="13" >3</text>
<text x="67.183119" y="174.352239" fill="rgb(102,102,102)"  stroke="rgb(102,102,102)" stroke-width="1" font-size="16" >C</text>
<text font-size="18.000000" fill ="black" font-family="sans-serif"
x="10.000000" y="20.000000" ></text>
<title> - OBDepict</title>
</svg>
