<?xml version="1.0"?>
<svg xmlns="http://www.w3.org/2000/svg"
xmlns:xlink="http://www.w3.org/1999/xlink" xmlns:cml="http://www.xml-cml.org/schema" width="329.452" height="409.165" x="0" y="0" font-family="sans-serif" stroke="rgb(0,0,0)" stroke-width="1"  stroke-linecap="round">
<rect x="0%" y="0%" width="100%" height="100%" stroke-width="0" fill="rgb(255,255,255)"  />
<line x1="201.2" y1="289.3" x2="162.9" y2="301.6" stroke="rgb(0,0,0)"  stroke-width="1.0"/>
<line x1="199.3" y1="283.6" x2="161.1" y2="295.9" stroke="rgb(0,0,0)"  stroke-width="1.0"/>
<line x1="208.1" y1="247.2" x2="200.2" y2="286.4" stroke="rgb(0,0,0)"  stroke-width="1.0"/>
<line x1="50.7" y1="247.2" x2="59.2" y2="286.4" stroke="rgb(0,0,0)"  stroke-width="1.0"/>
<line x1="281.0" y1="79.0" x2="271.9" y2="117.9" stroke="rgb(0,0,0)"  stroke-width="1.0"/>
<line x1="286.7" y1="52.7" x2="281.0" y2="79.0" stroke="rgb(0,0,0)"  stroke-width="1.0"/>
<line x1="290.8" y1="53.6" x2="285.1" y2="79.9" stroke="rgb(0,0,0)"  stroke-width="1.0"/>
<line x1="282.6" y1="51.8" x2="276.9" y2="78.2" stroke="rgb(0,0,0)"  stroke-width="1.0"/>
<line x1="43.5" y1="220.9" x2="50.7" y2="247.2" stroke="rgb(0,0,0)"  stroke-width="1.0"/>
<line x1="47.5" y1="219.7" x2="54.8" y2="246.1" stroke="rgb(0,0,0)"  stroke-width="1.0"/>
<line x1="39.4" y1="222.0" x2="46.7" y2="248.3" stroke="rgb(0,0,0)"  stroke-width="1.0"/>
<line x1="91.2" y1="356.9" x2="107.2" y2="335.2" stroke="rgb(0,0,0)"  stroke-width="1.0"/>
<line x1="96.0" y1="360.5" x2="112.0" y2="338.8" stroke="rgb(0,0,0)"  stroke-width="1.0"/>
<line x1="132.4" y1="248.0" x2="132.6" y2="275.1" stroke="rgb(0,0,0)"  stroke-width="1.0"/>
<line x1="126.4" y1="248.1" x2="126.6" y2="275.1" stroke="rgb(0,0,0)"  stroke-width="1.0"/>
<line x1="59.2" y1="286.4" x2="84.7" y2="294.7" stroke="rgb(0,0,0)"  stroke-width="1.0"/>
<line x1="265.9" y1="253.0" x2="246.2" y2="235.0" stroke="rgb(0,0,0)"  stroke-width="1.0"/>
<line x1="231.3" y1="142.7" x2="225.1" y2="169.3" stroke="rgb(0,0,0)"  stroke-width="1.0"/>
<line x1="167.7" y1="163.2" x2="186.9" y2="181.0" stroke="rgb(0,0,0)"  stroke-width="1.0"/>
<line x1="271.9" y1="117.9" x2="246.6" y2="126.0" stroke="rgb(0,0,0)"  stroke-width="1.0"/>
<line x1="119.9" y1="166.9" x2="145.8" y2="158.4" stroke="rgb(0,0,0)"  stroke-width="1.0"/>
<line x1="100.0" y1="148.5" x2="119.9" y2="166.9" stroke="rgb(0,0,0)"  stroke-width="1.0"/>
<line x1="107.6" y1="291.1" x2="129.6" y2="275.1" stroke="rgb(0,0,0)"  stroke-width="1.0"/>
<line x1="129.6" y1="275.1" x2="162.0" y2="298.8" stroke="rgb(0,0,0)"  stroke-width="1.0"/>
<line x1="162.0" y1="298.8" x2="153.6" y2="324.6" stroke="rgb(0,0,0)"  stroke-width="1.0"/>
<line x1="136.7" y1="337.0" x2="109.6" y2="337.0" stroke="rgb(0,0,0)"  stroke-width="1.0"/>
<line x1="109.6" y1="337.0" x2="101.1" y2="311.1" stroke="rgb(0,0,0)"  stroke-width="1.0"/>
<line x1="208.1" y1="247.2" x2="246.2" y2="235.0" stroke="rgb(0,0,0)"  stroke-width="1.0"/>
<line x1="246.2" y1="235.0" x2="254.9" y2="196.2" stroke="rgb(0,0,0)"  stroke-width="1.0"/>
<line x1="240.4" y1="227.6" x2="246.5" y2="200.5" stroke="rgb(0,0,0)"  stroke-width="1.0"/>
<line x1="254.9" y1="196.2" x2="225.1" y2="169.3" stroke="rgb(0,0,0)"  stroke-width="1.0"/>
<line x1="225.1" y1="169.3" x2="186.9" y2="181.0" stroke="rgb(0,0,0)"  stroke-width="1.0"/>
<line x1="221.5" y1="177.9" x2="194.7" y2="186.1" stroke="rgb(0,0,0)"  stroke-width="1.0"/>
<line x1="186.9" y1="181.0" x2="178.8" y2="220.5" stroke="rgb(0,0,0)"  stroke-width="1.0"/>
<line x1="178.8" y1="220.5" x2="208.1" y2="247.2" stroke="rgb(0,0,0)"  stroke-width="1.0"/>
<line x1="188.1" y1="219.2" x2="208.5" y2="237.8" stroke="rgb(0,0,0)"  stroke-width="1.0"/>
<text x="91.052249" y="306.759867" fill="rgb(12,12,255)"  stroke="rgb(12,12,255)" stroke-width="1" font-size="16" >N</text>
<text x="143.651994" y="344.997012" fill="rgb(178,178,0)"  stroke="rgb(178,178,0)" stroke-width="1" font-size="16" >S</text>
<text x="283.451853" y="48.000000" fill="rgb(102,102,102)"  stroke="rgb(102,102,102)" stroke-width="1" font-size="16" >CH</text>
<text x="22.000000" y="216.325983" fill="rgb(102,102,102)"  stroke="rgb(102,102,102)" stroke-width="1" font-size="16" >HC</text>
<text x="79.923418" y="377.164769" fill="rgb(255,12,12)"  stroke="rgb(255,12,12)" stroke-width="1" font-size="16" >O</text>
<text x="123.220006" y="243.031291" fill="rgb(255,12,12)"  stroke="rgb(255,12,12)" stroke-width="1" font-size="16" >O</text>
<text x="269.492260" y="269.736599" fill="rgb(165,40,40)"  stroke="rgb(165,40,40)" stroke-width="1" font-size="16" >Br</text>
<text x="228.220421" y="138.030876" fill="rgb(255,12,12)"  stroke="rgb(255,12,12)" stroke-width="1" font-size="16" >O</text>
<text x="152.149137" y="162.308429" fill="rgb(255,12,12)"  stroke="rgb(255,12,12)" stroke-width="1" font-size="16" >O</text>
<text x="64.375922" y="147.741897" fill="rgb(102,102,102)"  stroke="rgb(102,102,102)" stroke-width="1" font-size="16" >H</text>
<text x="76.375922" y="151.421897" fill="rgb(102,102,102)"  stroke="rgb(102,102,102)" stroke-width="1" font-size="13" >3</text>
<text x="82.875922" y="147.741897" fill="rgb(102,102,102)"  stroke="rgb(102,102,102)" stroke-width="1" font-size="16" >C</text>
<text font-size="18.000000" fill ="black" font-family="sans-serif"
x="10.000000" y="20.000000" ></text>
<title> - OBDepict</title>
</svg>
