<?xml version="1.0"?>
<svg xmlns="http://www.w3.org/2000/svg"
xmlns:xlink="http://www.w3.org/1999/xlink" xmlns:cml="http://www.xml-cml.org/schema" width="356.789" height="340.214" x="0" y="0" font-family="sans-serif" stroke="rgb(0,0,0)" stroke-width="1"  stroke-linecap="round">
<rect x="0%" y="0%" width="100%" height="100%" stroke-width="0" fill="rgb(255,255,255)"  />
<line x1="247.6" y1="220.2" x2="247.6" y2="180.2" stroke="rgb(0,0,0)"  stroke-width="1.0"/>
<line x1="175.5" y1="219.7" x2="175.5" y2="192.7" stroke="rgb(0,0,0)"  stroke-width="1.0"/>
<line x1="181.5" y1="219.7" x2="181.5" y2="192.7" stroke="rgb(0,0,0)"  stroke-width="1.0"/>
<line x1="283.8" y1="277.2" x2="307.1" y2="290.7" stroke="rgb(0,0,0)"  stroke-width="1.0"/>
<line x1="280.8" y1="282.4" x2="304.0" y2="295.9" stroke="rgb(0,0,0)"  stroke-width="1.0"/>
<line x1="144.3" y1="280.3" x2="120.6" y2="293.8" stroke="rgb(0,0,0)"  stroke-width="1.0"/>
<line x1="247.5" y1="100.1" x2="247.0" y2="60.1" stroke="rgb(0,0,0)"  stroke-width="1.0"/>
<line x1="98.1" y1="293.7" x2="74.7" y2="280.3" stroke="rgb(0,0,0)"  stroke-width="1.0"/>
<line x1="247.0" y1="60.1" x2="270.7" y2="46.5" stroke="rgb(0,0,0)"  stroke-width="1.0"/>
<line x1="247.0" y1="60.1" x2="223.7" y2="46.5" stroke="rgb(0,0,0)"  stroke-width="1.0"/>
<line x1="247.0" y1="60.1" x2="273.3" y2="67.1" stroke="rgb(0,0,0)"  stroke-width="1.0"/>
<line x1="74.7" y1="280.3" x2="74.7" y2="240.1" stroke="rgb(0,0,0)"  stroke-width="1.0"/>
<line x1="74.7" y1="240.1" x2="51.3" y2="226.7" stroke="rgb(0,0,0)"  stroke-width="1.0"/>
<line x1="72.6" y1="243.7" x2="49.2" y2="230.3" stroke="rgb(0,0,0)"  stroke-width="1.0"/>
<line x1="76.8" y1="236.5" x2="53.4" y2="223.0" stroke="rgb(0,0,0)"  stroke-width="1.0"/>
<line x1="247.6" y1="220.2" x2="282.3" y2="239.8" stroke="rgb(0,0,0)"  stroke-width="1.0"/>
<line x1="282.3" y1="239.8" x2="282.3" y2="279.8" stroke="rgb(0,0,0)"  stroke-width="1.0"/>
<line x1="282.3" y1="279.8" x2="258.9" y2="293.4" stroke="rgb(0,0,0)"  stroke-width="1.0"/>
<line x1="236.4" y1="293.4" x2="213.0" y2="279.8" stroke="rgb(0,0,0)"  stroke-width="1.0"/>
<line x1="213.0" y1="279.8" x2="213.0" y2="240.1" stroke="rgb(0,0,0)"  stroke-width="1.0"/>
<line x1="220.2" y1="273.8" x2="220.2" y2="246.1" stroke="rgb(0,0,0)"  stroke-width="1.0"/>
<line x1="213.0" y1="240.1" x2="247.6" y2="220.2" stroke="rgb(0,0,0)"  stroke-width="1.0"/>
<line x1="213.0" y1="240.1" x2="178.5" y2="219.7" stroke="rgb(0,0,0)"  stroke-width="1.0"/>
<line x1="178.5" y1="219.7" x2="155.5" y2="233.4" stroke="rgb(0,0,0)"  stroke-width="1.0"/>
<line x1="144.3" y1="253.1" x2="144.3" y2="280.3" stroke="rgb(0,0,0)"  stroke-width="1.0"/>
<line x1="144.3" y1="280.3" x2="167.2" y2="293.4" stroke="rgb(0,0,0)"  stroke-width="1.0"/>
<line x1="153.1" y1="277.0" x2="169.0" y2="286.1" stroke="rgb(0,0,0)"  stroke-width="1.0"/>
<line x1="189.7" y1="293.3" x2="213.0" y2="279.8" stroke="rgb(0,0,0)"  stroke-width="1.0"/>
<line x1="247.6" y1="180.2" x2="213.0" y2="160.2" stroke="rgb(0,0,0)"  stroke-width="1.0"/>
<line x1="213.0" y1="160.2" x2="212.5" y2="120.5" stroke="rgb(0,0,0)"  stroke-width="1.0"/>
<line x1="220.1" y1="154.1" x2="219.8" y2="126.4" stroke="rgb(0,0,0)"  stroke-width="1.0"/>
<line x1="212.5" y1="120.5" x2="247.5" y2="100.1" stroke="rgb(0,0,0)"  stroke-width="1.0"/>
<line x1="247.5" y1="100.1" x2="282.0" y2="120.0" stroke="rgb(0,0,0)"  stroke-width="1.0"/>
<line x1="249.1" y1="109.4" x2="273.2" y2="123.3" stroke="rgb(0,0,0)"  stroke-width="1.0"/>
<line x1="282.0" y1="120.0" x2="282.3" y2="160.1" stroke="rgb(0,0,0)"  stroke-width="1.0"/>
<line x1="282.3" y1="160.1" x2="247.6" y2="180.2" stroke="rgb(0,0,0)"  stroke-width="1.0"/>
<line x1="273.5" y1="156.8" x2="249.2" y2="170.9" stroke="rgb(0,0,0)"  stroke-width="1.0"/>
<text x="172.481909" y="307.879742" fill="rgb(12,12,255)"  stroke="rgb(12,12,255)" stroke-width="1" font-size="16" >N</text>
<text x="241.637977" y="307.879742" fill="rgb(12,12,255)"  stroke="rgb(12,12,255)" stroke-width="1" font-size="16" >N</text>
<text x="241.637977" y="323.879742" fill="rgb(12,12,255)"  stroke="rgb(12,12,255)" stroke-width="1" font-size="16" >H</text>
<text x="126.318608" y="248.100029" fill="rgb(12,12,255)"  stroke="rgb(12,12,255)" stroke-width="1" font-size="16" >HN</text>
<text x="172.481909" y="187.650922" fill="rgb(255,12,12)"  stroke="rgb(255,12,12)" stroke-width="1" font-size="16" >O</text>
<text x="310.789194" y="307.879742" fill="rgb(255,12,12)"  stroke="rgb(255,12,12)" stroke-width="1" font-size="16" >O</text>
<text x="103.325841" y="308.214439" fill="rgb(178,178,0)"  stroke="rgb(178,178,0)" stroke-width="1" font-size="16" >S</text>
<text x="275.961350" y="48.000000" fill="rgb(127,178,255)"  stroke="rgb(127,178,255)" stroke-width="1" font-size="16" >F</text>
<text x="206.475437" y="48.000000" fill="rgb(127,178,255)"  stroke="rgb(127,178,255)" stroke-width="1" font-size="16" >F</text>
<text x="279.812786" y="78.476789" fill="rgb(127,178,255)"  stroke="rgb(127,178,255)" stroke-width="1" font-size="16" >F</text>
<text x="22.000000" y="228.173457" fill="rgb(102,102,102)"  stroke="rgb(102,102,102)" stroke-width="1" font-size="16" >HC</text>
<text font-size="18.000000" fill ="black" font-family="sans-serif"
x="10.000000" y="20.000000" ></text>
<title> - OBDepict</title>
</svg>
