<?xml version="1.0"?>
<svg xmlns="http://www.w3.org/2000/svg"
xmlns:xlink="http://www.w3.org/1999/xlink" xmlns:cml="http://www.xml-cml.org/schema" width="201.593" height="415.684" x="0" y="0" font-family="sans-serif" stroke="rgb(0,0,0)" stroke-width="1"  stroke-linecap="round">
<rect x="0%" y="0%" width="100%" height="100%" stroke-width="0" fill="rgb(255,255,255)"  />
<line x1="79.2" y1="180.8" x2="91.5" y2="142.8" stroke="rgb(0,0,0)"  stroke-width="1.0"/>
<line x1="97.3" y1="200.8" x2="79.2" y2="180.8" stroke="rgb(0,0,0)"  stroke-width="1.0"/>
<line x1="134.7" y1="346.0" x2="108.1" y2="316.3" stroke="rgb(0,0,0)"  stroke-width="1.0"/>
<line x1="152.9" y1="366.0" x2="134.7" y2="346.0" stroke="rgb(0,0,0)"  stroke-width="1.0"/>
<line x1="149.8" y1="368.9" x2="131.6" y2="348.8" stroke="rgb(0,0,0)"  stroke-width="1.0"/>
<line x1="156.0" y1="363.2" x2="137.8" y2="343.2" stroke="rgb(0,0,0)"  stroke-width="1.0"/>
<line x1="52.1" y1="183.4" x2="78.6" y2="177.8" stroke="rgb(0,0,0)"  stroke-width="1.0"/>
<line x1="53.3" y1="189.3" x2="79.8" y2="183.7" stroke="rgb(0,0,0)"  stroke-width="1.0"/>
<line x1="93.5" y1="248.6" x2="102.0" y2="222.8" stroke="rgb(0,0,0)"  stroke-width="1.0"/>
<line x1="86.1" y1="51.4" x2="94.4" y2="77.0" stroke="rgb(0,0,0)"  stroke-width="1.0"/>
<line x1="80.3" y1="53.3" x2="88.7" y2="78.9" stroke="rgb(0,0,0)"  stroke-width="1.0"/>
<line x1="75.7" y1="99.9" x2="91.5" y2="78.0" stroke="rgb(0,0,0)"  stroke-width="1.0"/>
<line x1="91.5" y1="78.0" x2="129.7" y2="90.5" stroke="rgb(0,0,0)"  stroke-width="1.0"/>
<line x1="129.7" y1="90.5" x2="129.7" y2="130.5" stroke="rgb(0,0,0)"  stroke-width="1.0"/>
<line x1="129.7" y1="130.5" x2="91.5" y2="142.8" stroke="rgb(0,0,0)"  stroke-width="1.0"/>
<line x1="91.5" y1="142.8" x2="75.7" y2="121.0" stroke="rgb(0,0,0)"  stroke-width="1.0"/>
<line x1="93.5" y1="248.6" x2="120.4" y2="278.3" stroke="rgb(0,0,0)"  stroke-width="1.0"/>
<line x1="92.2" y1="257.9" x2="111.0" y2="278.7" stroke="rgb(0,0,0)"  stroke-width="1.0"/>
<line x1="120.4" y1="278.3" x2="108.1" y2="316.3" stroke="rgb(0,0,0)"  stroke-width="1.0"/>
<line x1="108.1" y1="316.3" x2="68.9" y2="324.6" stroke="rgb(0,0,0)"  stroke-width="1.0"/>
<line x1="100.7" y1="310.5" x2="73.3" y2="316.3" stroke="rgb(0,0,0)"  stroke-width="1.0"/>
<line x1="68.9" y1="324.6" x2="42.2" y2="294.9" stroke="rgb(0,0,0)"  stroke-width="1.0"/>
<line x1="42.2" y1="294.9" x2="54.5" y2="256.9" stroke="rgb(0,0,0)"  stroke-width="1.0"/>
<line x1="50.9" y1="291.4" x2="59.5" y2="264.9" stroke="rgb(0,0,0)"  stroke-width="1.0"/>
<line x1="54.5" y1="256.9" x2="93.5" y2="248.6" stroke="rgb(0,0,0)"  stroke-width="1.0"/>
<text x="50.076284" y="118.491251" fill="rgb(12,12,255)"  stroke="rgb(12,12,255)" stroke-width="1" font-size="16" >HN</text>
<text x="100.046162" y="218.469387" fill="rgb(12,12,255)"  stroke="rgb(12,12,255)" stroke-width="1" font-size="16" >NH</text>
<text x="155.592803" y="383.684165" fill="rgb(102,102,102)"  stroke="rgb(102,102,102)" stroke-width="1" font-size="16" >CH</text>
<text x="34.000000" y="197.058312" fill="rgb(255,12,12)"  stroke="rgb(255,12,12)" stroke-width="1" font-size="16" >O</text>
<text x="73.186582" y="48.000000" fill="rgb(255,12,12)"  stroke="rgb(255,12,12)" stroke-width="1" font-size="16" >O</text>
<text font-size="18.000000" fill ="black" font-family="sans-serif"
x="10.000000" y="20.000000" ></text>
<title> - OBDepict</title>
</svg>
