<?xml version="1.0"?>
<svg xmlns="http://www.w3.org/2000/svg"
xmlns:xlink="http://www.w3.org/1999/xlink" xmlns:cml="http://www.xml-cml.org/schema" width="322.536" height="259.932" x="0" y="0" font-family="sans-serif" stroke="rgb(0,0,0)" stroke-width="1"  stroke-linecap="round">
<rect x="0%" y="0%" width="100%" height="100%" stroke-width="0" fill="rgb(255,255,255)"  />
<line x1="178.5" y1="120.0" x2="213.3" y2="100.0" stroke="rgb(0,0,0)"  stroke-width="1.0"/>
<line x1="74.7" y1="100.0" x2="109.3" y2="120.0" stroke="rgb(0,0,0)"  stroke-width="1.0"/>
<line x1="51.3" y1="86.5" x2="74.7" y2="100.0" stroke="rgb(0,0,0)"  stroke-width="1.0"/>
<line x1="53.4" y1="82.8" x2="76.8" y2="96.3" stroke="rgb(0,0,0)"  stroke-width="1.0"/>
<line x1="49.2" y1="90.1" x2="72.6" y2="103.6" stroke="rgb(0,0,0)"  stroke-width="1.0"/>
<line x1="175.5" y1="147.0" x2="175.5" y2="120.0" stroke="rgb(0,0,0)"  stroke-width="1.0"/>
<line x1="181.5" y1="147.0" x2="181.5" y2="120.0" stroke="rgb(0,0,0)"  stroke-width="1.0"/>
<line x1="155.3" y1="106.5" x2="178.5" y2="120.0" stroke="rgb(0,0,0)"  stroke-width="1.0"/>
<line x1="247.8" y1="147.0" x2="247.8" y2="120.0" stroke="rgb(0,0,0)"  stroke-width="1.0"/>
<line x1="109.3" y1="120.0" x2="132.7" y2="106.5" stroke="rgb(0,0,0)"  stroke-width="1.0"/>
<line x1="282.5" y1="179.9" x2="259.1" y2="166.4" stroke="rgb(0,0,0)"  stroke-width="1.0"/>
<line x1="282.5" y1="206.9" x2="282.5" y2="179.9" stroke="rgb(0,0,0)"  stroke-width="1.0"/>
<line x1="213.3" y1="100.0" x2="213.3" y2="60.0" stroke="rgb(0,0,0)"  stroke-width="1.0"/>
<line x1="213.3" y1="60.0" x2="247.8" y2="40.0" stroke="rgb(0,0,0)"  stroke-width="1.0"/>
<line x1="222.1" y1="63.2" x2="246.2" y2="49.2" stroke="rgb(0,0,0)"  stroke-width="1.0"/>
<line x1="247.8" y1="40.0" x2="282.5" y2="60.0" stroke="rgb(0,0,0)"  stroke-width="1.0"/>
<line x1="282.5" y1="60.0" x2="282.5" y2="86.8" stroke="rgb(0,0,0)"  stroke-width="1.0"/>
<line x1="275.3" y1="66.0" x2="275.3" y2="84.8" stroke="rgb(0,0,0)"  stroke-width="1.0"/>
<line x1="271.3" y1="106.5" x2="247.8" y2="120.0" stroke="rgb(0,0,0)"  stroke-width="1.0"/>
<line x1="247.8" y1="120.0" x2="213.3" y2="100.0" stroke="rgb(0,0,0)"  stroke-width="1.0"/>
<line x1="246.2" y1="110.7" x2="222.1" y2="96.8" stroke="rgb(0,0,0)"  stroke-width="1.0"/>
<text x="22.000000" y="87.984894" fill="rgb(102,102,102)"  stroke="rgb(102,102,102)" stroke-width="1" font-size="16" >HC</text>
<text x="276.536253" y="107.977342" fill="rgb(12,12,255)"  stroke="rgb(12,12,255)" stroke-width="1" font-size="16" >N</text>
<text x="172.531908" y="167.954683" fill="rgb(255,12,12)"  stroke="rgb(255,12,12)" stroke-width="1" font-size="16" >O</text>
<text x="137.999499" y="107.977342" fill="rgb(12,12,255)"  stroke="rgb(12,12,255)" stroke-width="1" font-size="16" >N</text>
<text x="137.999499" y="91.977342" fill="rgb(12,12,255)"  stroke="rgb(12,12,255)" stroke-width="1" font-size="16" >H</text>
<text x="241.800285" y="167.954683" fill="rgb(255,12,12)"  stroke="rgb(255,12,12)" stroke-width="1" font-size="16" >O</text>
<text x="278.536253" y="227.932025" fill="rgb(102,102,102)"  stroke="rgb(102,102,102)" stroke-width="1" font-size="16" >CH</text>
<text x="302.536253" y="231.612025" fill="rgb(102,102,102)"  stroke="rgb(102,102,102)" stroke-width="1" font-size="13" >3</text>
<text font-size="18.000000" fill ="black" font-family="sans-serif"
x="10.000000" y="20.000000" ></text>
<title> - OBDepict</title>
</svg>
