<?xml version="1.0"?>
<svg xmlns="http://www.w3.org/2000/svg"
xmlns:xlink="http://www.w3.org/1999/xlink" xmlns:cml="http://www.xml-cml.org/schema" width="253.275" height="359.906" x="0" y="0" font-family="sans-serif" stroke="rgb(0,0,0)" stroke-width="1"  stroke-linecap="round">
<rect x="0%" y="0%" width="100%" height="100%" stroke-width="0" fill="rgb(255,255,255)"  />
<line x1="178.5" y1="180.0" x2="144.0" y2="199.9" stroke="rgb(0,0,0)"  stroke-width="1.0"/>
<line x1="202.0" y1="166.4" x2="178.5" y2="180.0" stroke="rgb(0,0,0)"  stroke-width="1.0"/>
<line x1="204.1" y1="170.1" x2="180.6" y2="183.6" stroke="rgb(0,0,0)"  stroke-width="1.0"/>
<line x1="199.9" y1="162.8" x2="176.4" y2="176.3" stroke="rgb(0,0,0)"  stroke-width="1.0"/>
<line x1="144.0" y1="80.0" x2="144.0" y2="120.0" stroke="rgb(0,0,0)"  stroke-width="1.0"/>
<line x1="144.0" y1="53.0" x2="144.0" y2="80.0" stroke="rgb(0,0,0)"  stroke-width="1.0"/>
<line x1="148.2" y1="53.0" x2="148.2" y2="80.0" stroke="rgb(0,0,0)"  stroke-width="1.0"/>
<line x1="139.8" y1="53.0" x2="139.8" y2="80.0" stroke="rgb(0,0,0)"  stroke-width="1.0"/>
<line x1="109.3" y1="299.9" x2="109.3" y2="259.9" stroke="rgb(0,0,0)"  stroke-width="1.0"/>
<line x1="131.2" y1="316.0" x2="107.8" y2="302.5" stroke="rgb(0,0,0)"  stroke-width="1.0"/>
<line x1="134.2" y1="310.8" x2="110.8" y2="297.3" stroke="rgb(0,0,0)"  stroke-width="1.0"/>
<line x1="109.3" y1="153.0" x2="109.3" y2="180.0" stroke="rgb(0,0,0)"  stroke-width="1.0"/>
<line x1="144.0" y1="120.0" x2="120.5" y2="133.5" stroke="rgb(0,0,0)"  stroke-width="1.0"/>
<line x1="51.3" y1="253.4" x2="74.7" y2="239.9" stroke="rgb(0,0,0)"  stroke-width="1.0"/>
<line x1="86.0" y1="313.4" x2="109.3" y2="299.9" stroke="rgb(0,0,0)"  stroke-width="1.0"/>
<line x1="144.0" y1="199.9" x2="109.3" y2="180.0" stroke="rgb(0,0,0)"  stroke-width="1.0"/>
<line x1="109.3" y1="180.0" x2="86.1" y2="193.3" stroke="rgb(0,0,0)"  stroke-width="1.0"/>
<line x1="107.7" y1="189.2" x2="91.5" y2="198.6" stroke="rgb(0,0,0)"  stroke-width="1.0"/>
<line x1="74.7" y1="212.9" x2="74.7" y2="239.9" stroke="rgb(0,0,0)"  stroke-width="1.0"/>
<line x1="74.7" y1="239.9" x2="109.3" y2="259.9" stroke="rgb(0,0,0)"  stroke-width="1.0"/>
<line x1="83.5" y1="236.7" x2="107.7" y2="250.7" stroke="rgb(0,0,0)"  stroke-width="1.0"/>
<line x1="109.3" y1="259.9" x2="144.0" y2="239.9" stroke="rgb(0,0,0)"  stroke-width="1.0"/>
<line x1="144.0" y1="239.9" x2="144.0" y2="199.9" stroke="rgb(0,0,0)"  stroke-width="1.0"/>
<line x1="136.8" y1="233.9" x2="136.8" y2="205.9" stroke="rgb(0,0,0)"  stroke-width="1.0"/>
<text x="68.737472" y="207.946502" fill="rgb(12,12,255)"  stroke="rgb(12,12,255)" stroke-width="1" font-size="16" >N</text>
<text x="207.275378" y="167.959877" fill="rgb(12,12,255)"  stroke="rgb(12,12,255)" stroke-width="1" font-size="16" >N</text>
<text x="138.004001" y="48.000000" fill="rgb(102,102,102)"  stroke="rgb(102,102,102)" stroke-width="1" font-size="16" >CH</text>
<text x="138.004001" y="327.906379" fill="rgb(255,12,12)"  stroke="rgb(255,12,12)" stroke-width="1" font-size="16" >O</text>
<text x="103.271376" y="147.966564" fill="rgb(178,178,0)"  stroke="rgb(178,178,0)" stroke-width="1" font-size="16" >S</text>
<text x="14.000000" y="267.926441" fill="rgb(102,102,102)"  stroke="rgb(102,102,102)" stroke-width="1" font-size="16" >H</text>
<text x="26.000000" y="271.606441" fill="rgb(102,102,102)"  stroke="rgb(102,102,102)" stroke-width="1" font-size="13" >3</text>
<text x="32.500000" y="267.926441" fill="rgb(102,102,102)"  stroke="rgb(102,102,102)" stroke-width="1" font-size="16" >C</text>
<text x="48.737472" y="327.906379" fill="rgb(102,102,102)"  stroke="rgb(102,102,102)" stroke-width="1" font-size="16" >H</text>
<text x="60.737472" y="331.586379" fill="rgb(102,102,102)"  stroke="rgb(102,102,102)" stroke-width="1" font-size="13" >3</text>
<text x="67.237472" y="327.906379" fill="rgb(102,102,102)"  stroke="rgb(102,102,102)" stroke-width="1" font-size="16" >C</text>
<text font-size="18.000000" fill ="black" font-family="sans-serif"
x="10.000000" y="20.000000" ></text>
<title> - OBDepict</title>
</svg>
