<?xml version="1.0"?>
<svg xmlns="http://www.w3.org/2000/svg"
xmlns:xlink="http://www.w3.org/1999/xlink" xmlns:cml="http://www.xml-cml.org/schema" width="470.909" height="223.913" x="0" y="0" font-family="sans-serif" stroke="rgb(0,0,0)" stroke-width="1"  stroke-linecap="round">
<rect x="0%" y="0%" width="100%" height="100%" stroke-width="0" fill="rgb(255,255,255)"  />
<line x1="390.9" y1="40.0" x2="350.9" y2="40.0" stroke="rgb(0,0,0)"  stroke-width="1.0"/>
<line x1="417.9" y1="40.0" x2="390.9" y2="40.0" stroke="rgb(0,0,0)"  stroke-width="1.0"/>
<line x1="417.9" y1="44.2" x2="390.9" y2="44.2" stroke="rgb(0,0,0)"  stroke-width="1.0"/>
<line x1="417.9" y1="35.8" x2="390.9" y2="35.8" stroke="rgb(0,0,0)"  stroke-width="1.0"/>
<line x1="290.8" y1="74.6" x2="270.8" y2="109.3" stroke="rgb(0,0,0)"  stroke-width="1.0"/>
<line x1="279.9" y1="49.7" x2="293.4" y2="73.1" stroke="rgb(0,0,0)"  stroke-width="1.0"/>
<line x1="274.7" y1="52.8" x2="288.2" y2="76.1" stroke="rgb(0,0,0)"  stroke-width="1.0"/>
<line x1="317.9" y1="74.6" x2="290.8" y2="74.6" stroke="rgb(0,0,0)"  stroke-width="1.0"/>
<line x1="350.9" y1="40.0" x2="337.4" y2="63.3" stroke="rgb(0,0,0)"  stroke-width="1.0"/>
<line x1="210.8" y1="143.9" x2="170.8" y2="143.9" stroke="rgb(0,0,0)"  stroke-width="1.0"/>
<line x1="230.8" y1="109.3" x2="210.8" y2="143.9" stroke="rgb(0,0,0)"  stroke-width="1.0"/>
<line x1="270.8" y1="109.3" x2="230.8" y2="109.3" stroke="rgb(0,0,0)"  stroke-width="1.0"/>
<line x1="155.1" y1="122.2" x2="170.8" y2="143.9" stroke="rgb(0,0,0)"  stroke-width="1.0"/>
<line x1="150.4" y1="128.1" x2="161.4" y2="143.3" stroke="rgb(0,0,0)"  stroke-width="1.0"/>
<line x1="170.8" y1="143.9" x2="155.0" y2="165.7" stroke="rgb(0,0,0)"  stroke-width="1.0"/>
<line x1="135.0" y1="172.2" x2="109.1" y2="163.9" stroke="rgb(0,0,0)"  stroke-width="1.0"/>
<line x1="109.1" y1="163.9" x2="109.1" y2="123.9" stroke="rgb(0,0,0)"  stroke-width="1.0"/>
<line x1="116.3" y1="157.9" x2="116.3" y2="129.9" stroke="rgb(0,0,0)"  stroke-width="1.0"/>
<line x1="109.1" y1="123.9" x2="135.0" y2="115.5" stroke="rgb(0,0,0)"  stroke-width="1.0"/>
<line x1="74.6" y1="183.9" x2="40.0" y2="163.9" stroke="rgb(0,0,0)"  stroke-width="1.0"/>
<line x1="73.0" y1="174.7" x2="48.8" y2="160.7" stroke="rgb(0,0,0)"  stroke-width="1.0"/>
<line x1="40.0" y1="163.9" x2="40.0" y2="123.9" stroke="rgb(0,0,0)"  stroke-width="1.0"/>
<line x1="40.0" y1="123.9" x2="74.6" y2="103.9" stroke="rgb(0,0,0)"  stroke-width="1.0"/>
<line x1="48.8" y1="127.1" x2="73.0" y2="113.1" stroke="rgb(0,0,0)"  stroke-width="1.0"/>
<line x1="74.6" y1="103.9" x2="109.1" y2="123.9" stroke="rgb(0,0,0)"  stroke-width="1.0"/>
<line x1="109.1" y1="163.9" x2="74.6" y2="183.9" stroke="rgb(0,0,0)"  stroke-width="1.0"/>
<text x="141.327345" y="119.551564" fill="rgb(12,12,255)"  stroke="rgb(12,12,255)" stroke-width="1" font-size="16" >N</text>
<text x="141.327345" y="184.234177" fill="rgb(178,178,0)"  stroke="rgb(178,178,0)" stroke-width="1" font-size="16" >S</text>
<text x="424.909234" y="48.000000" fill="rgb(102,102,102)"  stroke="rgb(102,102,102)" stroke-width="1" font-size="16" >CH</text>
<text x="264.827769" y="48.000000" fill="rgb(255,12,12)"  stroke="rgb(255,12,12)" stroke-width="1" font-size="16" >O</text>
<text x="324.858318" y="82.563043" fill="rgb(12,12,255)"  stroke="rgb(12,12,255)" stroke-width="1" font-size="16" >N</text>
<text x="324.858318" y="98.563043" fill="rgb(12,12,255)"  stroke="rgb(12,12,255)" stroke-width="1" font-size="16" >H</text>
<text font-size="18.000000" fill ="black" font-family="sans-serif"
x="10.000000" y="20.000000" ></text>
<title> - OBDepict</title>
</svg>
