<?xml version="1.0"?>
<svg xmlns="http://www.w3.org/2000/svg"
xmlns:xlink="http://www.w3.org/1999/xlink" xmlns:cml="http://www.xml-cml.org/schema" width="289.531" height="257.828" x="0" y="0" font-family="sans-serif" stroke="rgb(0,0,0)" stroke-width="1"  stroke-linecap="round">
<rect x="0%" y="0%" width="100%" height="100%" stroke-width="0" fill="rgb(255,255,255)"  />
<line x1="209.9" y1="178.5" x2="170.8" y2="178.5" stroke="rgb(0,0,0)"  stroke-width="1.0"/>
<line x1="230.3" y1="75.1" x2="209.9" y2="109.1" stroke="rgb(0,0,0)"  stroke-width="1.0"/>
<line x1="243.3" y1="51.4" x2="230.3" y2="75.1" stroke="rgb(0,0,0)"  stroke-width="1.0"/>
<line x1="247.0" y1="53.4" x2="234.0" y2="77.1" stroke="rgb(0,0,0)"  stroke-width="1.0"/>
<line x1="239.6" y1="49.4" x2="226.6" y2="73.1" stroke="rgb(0,0,0)"  stroke-width="1.0"/>
<line x1="222.4" y1="203.2" x2="207.4" y2="180.1" stroke="rgb(0,0,0)"  stroke-width="1.0"/>
<line x1="227.4" y1="199.9" x2="212.4" y2="176.8" stroke="rgb(0,0,0)"  stroke-width="1.0"/>
<line x1="155.9" y1="119.0" x2="147.6" y2="145.6" stroke="rgb(0,0,0)"  stroke-width="1.0"/>
<line x1="223.7" y1="155.1" x2="209.9" y2="178.5" stroke="rgb(0,0,0)"  stroke-width="1.0"/>
<line x1="209.9" y1="109.1" x2="223.7" y2="132.7" stroke="rgb(0,0,0)"  stroke-width="1.0"/>
<line x1="170.8" y1="178.5" x2="155.3" y2="199.4" stroke="rgb(0,0,0)"  stroke-width="1.0"/>
<line x1="135.2" y1="205.8" x2="109.7" y2="197.4" stroke="rgb(0,0,0)"  stroke-width="1.0"/>
<line x1="109.7" y1="197.4" x2="109.7" y2="158.1" stroke="rgb(0,0,0)"  stroke-width="1.0"/>
<line x1="116.9" y1="191.4" x2="116.9" y2="164.1" stroke="rgb(0,0,0)"  stroke-width="1.0"/>
<line x1="109.7" y1="158.1" x2="147.6" y2="145.6" stroke="rgb(0,0,0)"  stroke-width="1.0"/>
<line x1="147.6" y1="145.6" x2="170.8" y2="178.5" stroke="rgb(0,0,0)"  stroke-width="1.0"/>
<line x1="145.2" y1="154.7" x2="161.5" y2="177.7" stroke="rgb(0,0,0)"  stroke-width="1.0"/>
<line x1="74.0" y1="137.7" x2="40.0" y2="158.1" stroke="rgb(0,0,0)"  stroke-width="1.0"/>
<line x1="72.5" y1="147.0" x2="48.8" y2="161.2" stroke="rgb(0,0,0)"  stroke-width="1.0"/>
<line x1="40.0" y1="158.1" x2="40.0" y2="197.4" stroke="rgb(0,0,0)"  stroke-width="1.0"/>
<line x1="40.0" y1="197.4" x2="74.0" y2="217.8" stroke="rgb(0,0,0)"  stroke-width="1.0"/>
<line x1="48.8" y1="194.4" x2="72.5" y2="208.6" stroke="rgb(0,0,0)"  stroke-width="1.0"/>
<line x1="74.0" y1="217.8" x2="109.7" y2="197.4" stroke="rgb(0,0,0)"  stroke-width="1.0"/>
<line x1="109.7" y1="158.1" x2="74.0" y2="137.7" stroke="rgb(0,0,0)"  stroke-width="1.0"/>
<text x="141.593501" y="217.895895" fill="rgb(178,178,0)"  stroke="rgb(178,178,0)" stroke-width="1" font-size="16" >S</text>
<text x="243.531038" y="48.000000" fill="rgb(102,102,102)"  stroke="rgb(102,102,102)" stroke-width="1" font-size="16" >CH</text>
<text x="225.979710" y="220.441802" fill="rgb(255,12,12)"  stroke="rgb(255,12,12)" stroke-width="1" font-size="16" >O</text>
<text x="153.773352" y="114.545573" fill="rgb(30,239,30)"  stroke="rgb(30,239,30)" stroke-width="1" font-size="16" >Cl</text>
<text x="224.282438" y="151.924116" fill="rgb(255,12,12)"  stroke="rgb(255,12,12)" stroke-width="1" font-size="16" >O</text>
<text font-size="18.000000" fill ="black" font-family="sans-serif"
x="10.000000" y="20.000000" ></text>
<title> - OBDepict</title>
</svg>
