<?xml version="1.0"?>
<svg xmlns="http://www.w3.org/2000/svg"
xmlns:xlink="http://www.w3.org/1999/xlink" xmlns:cml="http://www.xml-cml.org/schema" width="450.147" height="352.911" x="0" y="0" font-family="sans-serif" stroke="rgb(0,0,0)" stroke-width="1"  stroke-linecap="round">
<rect x="0%" y="0%" width="100%" height="100%" stroke-width="0" fill="rgb(255,255,255)"  />
<line x1="209.7" y1="183.7" x2="170.1" y2="181.3" stroke="rgb(0,0,0)"  stroke-width="1.0"/>
<line x1="304.5" y1="141.6" x2="282.5" y2="156.1" stroke="rgb(0,0,0)"  stroke-width="1.0"/>
<line x1="133.6" y1="282.9" x2="160.4" y2="252.1" stroke="rgb(0,0,0)"  stroke-width="1.0"/>
<line x1="115.8" y1="303.2" x2="133.6" y2="282.9" stroke="rgb(0,0,0)"  stroke-width="1.0"/>
<line x1="112.7" y1="300.4" x2="130.5" y2="280.1" stroke="rgb(0,0,0)"  stroke-width="1.0"/>
<line x1="119.0" y1="305.9" x2="136.8" y2="285.7" stroke="rgb(0,0,0)"  stroke-width="1.0"/>
<line x1="292.2" y1="221.8" x2="270.0" y2="206.1" stroke="rgb(0,0,0)"  stroke-width="1.0"/>
<line x1="295.6" y1="216.9" x2="273.4" y2="201.2" stroke="rgb(0,0,0)"  stroke-width="1.0"/>
<line x1="160.4" y1="252.1" x2="151.5" y2="226.0" stroke="rgb(0,0,0)"  stroke-width="1.0"/>
<line x1="398.5" y1="149.0" x2="374.1" y2="136.8" stroke="rgb(0,0,0)"  stroke-width="1.0"/>
<line x1="333.2" y1="53.0" x2="335.3" y2="79.2" stroke="rgb(0,0,0)"  stroke-width="1.0"/>
<line x1="170.1" y1="181.3" x2="154.7" y2="203.0" stroke="rgb(0,0,0)"  stroke-width="1.0"/>
<line x1="134.8" y1="209.8" x2="108.8" y2="201.7" stroke="rgb(0,0,0)"  stroke-width="1.0"/>
<line x1="108.8" y1="201.7" x2="108.8" y2="162.1" stroke="rgb(0,0,0)"  stroke-width="1.0"/>
<line x1="116.0" y1="195.7" x2="116.0" y2="168.1" stroke="rgb(0,0,0)"  stroke-width="1.0"/>
<line x1="108.8" y1="162.1" x2="134.8" y2="153.9" stroke="rgb(0,0,0)"  stroke-width="1.0"/>
<line x1="154.8" y1="160.4" x2="170.1" y2="181.3" stroke="rgb(0,0,0)"  stroke-width="1.0"/>
<line x1="150.2" y1="166.3" x2="160.7" y2="180.7" stroke="rgb(0,0,0)"  stroke-width="1.0"/>
<line x1="209.7" y1="183.7" x2="233.7" y2="216.1" stroke="rgb(0,0,0)"  stroke-width="1.0"/>
<line x1="233.7" y1="216.1" x2="271.7" y2="203.7" stroke="rgb(0,0,0)"  stroke-width="1.0"/>
<line x1="271.7" y1="203.7" x2="271.7" y2="176.3" stroke="rgb(0,0,0)"  stroke-width="1.0"/>
<line x1="259.3" y1="159.3" x2="233.7" y2="151.2" stroke="rgb(0,0,0)"  stroke-width="1.0"/>
<line x1="233.7" y1="151.2" x2="209.7" y2="183.7" stroke="rgb(0,0,0)"  stroke-width="1.0"/>
<line x1="304.5" y1="141.6" x2="302.1" y2="102.0" stroke="rgb(0,0,0)"  stroke-width="1.0"/>
<line x1="311.3" y1="135.2" x2="309.7" y2="107.6" stroke="rgb(0,0,0)"  stroke-width="1.0"/>
<line x1="302.1" y1="102.0" x2="335.3" y2="79.2" stroke="rgb(0,0,0)"  stroke-width="1.0"/>
<line x1="335.3" y1="79.2" x2="371.7" y2="97.2" stroke="rgb(0,0,0)"  stroke-width="1.0"/>
<line x1="337.5" y1="88.3" x2="363.2" y2="101.0" stroke="rgb(0,0,0)"  stroke-width="1.0"/>
<line x1="371.7" y1="97.2" x2="374.1" y2="136.8" stroke="rgb(0,0,0)"  stroke-width="1.0"/>
<line x1="374.1" y1="136.8" x2="340.5" y2="159.3" stroke="rgb(0,0,0)"  stroke-width="1.0"/>
<line x1="365.1" y1="134.2" x2="341.5" y2="149.9" stroke="rgb(0,0,0)"  stroke-width="1.0"/>
<line x1="340.5" y1="159.3" x2="304.5" y2="141.6" stroke="rgb(0,0,0)"  stroke-width="1.0"/>
<line x1="74.8" y1="222.1" x2="108.8" y2="201.7" stroke="rgb(0,0,0)"  stroke-width="1.0"/>
<line x1="108.8" y1="162.1" x2="74.8" y2="141.6" stroke="rgb(0,0,0)"  stroke-width="1.0"/>
<line x1="74.8" y1="141.6" x2="40.0" y2="162.1" stroke="rgb(0,0,0)"  stroke-width="1.0"/>
<line x1="73.3" y1="150.9" x2="48.8" y2="165.2" stroke="rgb(0,0,0)"  stroke-width="1.0"/>
<line x1="40.0" y1="162.1" x2="40.0" y2="201.7" stroke="rgb(0,0,0)"  stroke-width="1.0"/>
<line x1="40.0" y1="201.7" x2="74.8" y2="222.1" stroke="rgb(0,0,0)"  stroke-width="1.0"/>
<line x1="48.8" y1="198.5" x2="73.3" y2="212.8" stroke="rgb(0,0,0)"  stroke-width="1.0"/>
<text x="141.241080" y="158.049532" fill="rgb(12,12,255)"  stroke="rgb(12,12,255)" stroke-width="1" font-size="16" >N</text>
<text x="141.241080" y="221.677004" fill="rgb(12,12,255)"  stroke="rgb(12,12,255)" stroke-width="1" font-size="16" >N</text>
<text x="265.687572" y="171.256059" fill="rgb(12,12,255)"  stroke="rgb(12,12,255)" stroke-width="1" font-size="16" >N</text>
<text x="89.223068" y="320.910594" fill="rgb(102,102,102)"  stroke="rgb(102,102,102)" stroke-width="1" font-size="16" >HC</text>
<text x="298.504674" y="234.878672" fill="rgb(255,12,12)"  stroke="rgb(255,12,12)" stroke-width="1" font-size="16" >O</text>
<text x="406.147171" y="162.850138" fill="rgb(102,102,102)"  stroke="rgb(102,102,102)" stroke-width="1" font-size="16" >CH</text>
<text x="430.147171" y="166.530138" fill="rgb(102,102,102)"  stroke="rgb(102,102,102)" stroke-width="1" font-size="13" >3</text>
<text x="306.113020" y="48.000000" fill="rgb(102,102,102)"  stroke="rgb(102,102,102)" stroke-width="1" font-size="16" >H</text>
<text x="318.113020" y="51.680000" fill="rgb(102,102,102)"  stroke="rgb(102,102,102)" stroke-width="1" font-size="13" >3</text>
<text x="324.613020" y="48.000000" fill="rgb(102,102,102)"  stroke="rgb(102,102,102)" stroke-width="1" font-size="16" >C</text>
<text font-size="18.000000" fill ="black" font-family="sans-serif"
x="10.000000" y="20.000000" ></text>
<title> - OBDepict</title>
</svg>
