<?xml version="1.0"?>
<svg xmlns="http://www.w3.org/2000/svg"
xmlns:xlink="http://www.w3.org/1999/xlink" xmlns:cml="http://www.xml-cml.org/schema" width="430.795" height="236.379" x="0" y="0" font-family="sans-serif" stroke="rgb(0,0,0)" stroke-width="1"  stroke-linecap="round">
<rect x="0%" y="0%" width="100%" height="100%" stroke-width="0" fill="rgb(255,255,255)"  />
<line x1="197.5" y1="129.8" x2="170.5" y2="129.8" stroke="rgb(0,0,0)"  stroke-width="1.0"/>
<line x1="197.5" y1="123.8" x2="170.5" y2="123.8" stroke="rgb(0,0,0)"  stroke-width="1.0"/>
<line x1="230.6" y1="161.4" x2="217.1" y2="138.0" stroke="rgb(0,0,0)"  stroke-width="1.0"/>
<line x1="198.4" y1="48.5" x2="159.4" y2="56.4" stroke="rgb(0,0,0)"  stroke-width="1.0"/>
<line x1="224.5" y1="42.8" x2="198.4" y2="48.5" stroke="rgb(0,0,0)"  stroke-width="1.0"/>
<line x1="225.4" y1="46.9" x2="199.3" y2="52.6" stroke="rgb(0,0,0)"  stroke-width="1.0"/>
<line x1="223.6" y1="38.7" x2="197.5" y2="44.4" stroke="rgb(0,0,0)"  stroke-width="1.0"/>
<line x1="270.6" y1="161.4" x2="230.6" y2="161.4" stroke="rgb(0,0,0)"  stroke-width="1.0"/>
<line x1="214.7" y1="183.6" x2="228.0" y2="159.9" stroke="rgb(0,0,0)"  stroke-width="1.0"/>
<line x1="219.9" y1="186.5" x2="233.2" y2="162.8" stroke="rgb(0,0,0)"  stroke-width="1.0"/>
<line x1="159.4" y1="56.4" x2="151.2" y2="82.2" stroke="rgb(0,0,0)"  stroke-width="1.0"/>
<line x1="74.4" y1="60.1" x2="74.4" y2="86.7" stroke="rgb(0,0,0)"  stroke-width="1.0"/>
<line x1="377.8" y1="161.4" x2="350.7" y2="161.4" stroke="rgb(0,0,0)"  stroke-width="1.0"/>
<line x1="170.5" y1="126.8" x2="154.7" y2="149.0" stroke="rgb(0,0,0)"  stroke-width="1.0"/>
<line x1="134.8" y1="155.6" x2="109.2" y2="147.4" stroke="rgb(0,0,0)"  stroke-width="1.0"/>
<line x1="109.2" y1="147.4" x2="109.0" y2="107.4" stroke="rgb(0,0,0)"  stroke-width="1.0"/>
<line x1="116.4" y1="141.4" x2="116.2" y2="113.3" stroke="rgb(0,0,0)"  stroke-width="1.0"/>
<line x1="109.0" y1="107.4" x2="134.9" y2="98.7" stroke="rgb(0,0,0)"  stroke-width="1.0"/>
<line x1="154.8" y1="105.2" x2="170.5" y2="126.8" stroke="rgb(0,0,0)"  stroke-width="1.0"/>
<line x1="270.6" y1="161.4" x2="290.7" y2="126.2" stroke="rgb(0,0,0)"  stroke-width="1.0"/>
<line x1="290.7" y1="126.2" x2="330.7" y2="126.2" stroke="rgb(0,0,0)"  stroke-width="1.0"/>
<line x1="296.7" y1="133.4" x2="324.7" y2="133.4" stroke="rgb(0,0,0)"  stroke-width="1.0"/>
<line x1="330.7" y1="126.2" x2="350.7" y2="161.4" stroke="rgb(0,0,0)"  stroke-width="1.0"/>
<line x1="350.7" y1="161.4" x2="330.7" y2="195.4" stroke="rgb(0,0,0)"  stroke-width="1.0"/>
<line x1="341.5" y1="162.9" x2="327.6" y2="186.5" stroke="rgb(0,0,0)"  stroke-width="1.0"/>
<line x1="330.7" y1="195.4" x2="290.7" y2="195.4" stroke="rgb(0,0,0)"  stroke-width="1.0"/>
<line x1="290.7" y1="195.4" x2="270.6" y2="161.4" stroke="rgb(0,0,0)"  stroke-width="1.0"/>
<line x1="293.8" y1="186.5" x2="279.9" y2="162.9" stroke="rgb(0,0,0)"  stroke-width="1.0"/>
<line x1="74.4" y1="86.7" x2="40.0" y2="107.4" stroke="rgb(0,0,0)"  stroke-width="1.0"/>
<line x1="72.9" y1="96.0" x2="48.8" y2="110.5" stroke="rgb(0,0,0)"  stroke-width="1.0"/>
<line x1="40.0" y1="107.4" x2="40.0" y2="147.4" stroke="rgb(0,0,0)"  stroke-width="1.0"/>
<line x1="40.0" y1="147.4" x2="74.4" y2="167.2" stroke="rgb(0,0,0)"  stroke-width="1.0"/>
<line x1="48.8" y1="144.2" x2="72.8" y2="158.0" stroke="rgb(0,0,0)"  stroke-width="1.0"/>
<line x1="74.4" y1="167.2" x2="109.2" y2="147.4" stroke="rgb(0,0,0)"  stroke-width="1.0"/>
<line x1="109.0" y1="107.4" x2="74.4" y2="86.7" stroke="rgb(0,0,0)"  stroke-width="1.0"/>
<text x="204.542060" y="134.788308" fill="rgb(12,12,255)"  stroke="rgb(12,12,255)" stroke-width="1" font-size="16" >N</text>
<text x="141.219368" y="102.622012" fill="rgb(12,12,255)"  stroke="rgb(12,12,255)" stroke-width="1" font-size="16" >N</text>
<text x="141.219368" y="167.561515" fill="rgb(178,178,0)"  stroke="rgb(178,178,0)" stroke-width="1" font-size="16" >S</text>
<text x="231.246155" y="48.000000" fill="rgb(102,102,102)"  stroke="rgb(102,102,102)" stroke-width="1" font-size="16" >CH</text>
<text x="204.945049" y="204.379179" fill="rgb(255,12,12)"  stroke="rgb(255,12,12)" stroke-width="1" font-size="16" >O</text>
<text x="68.390019" y="55.079013" fill="rgb(127,178,255)"  stroke="rgb(127,178,255)" stroke-width="1" font-size="16" >F</text>
<text x="384.794700" y="169.382249" fill="rgb(127,178,255)"  stroke="rgb(127,178,255)" stroke-width="1" font-size="16" >F</text>
<text font-size="18.000000" fill ="black" font-family="sans-serif"
x="10.000000" y="20.000000" ></text>
<title> - OBDepict</title>
</svg>
