<?xml version="1.0"?>
<svg xmlns="http://www.w3.org/2000/svg"
xmlns:xlink="http://www.w3.org/1999/xlink" xmlns:cml="http://www.xml-cml.org/schema" width="278.532" height="439.896" x="0" y="0" font-family="sans-serif" stroke="rgb(0,0,0)" stroke-width="1"  stroke-linecap="round">
<rect x="0%" y="0%" width="100%" height="100%" stroke-width="0" fill="rgb(255,255,255)"  />
<line x1="178.5" y1="386.9" x2="178.5" y2="359.9" stroke="rgb(0,0,0)"  stroke-width="1.0"/>
<line x1="174.3" y1="386.9" x2="174.3" y2="359.9" stroke="rgb(0,0,0)"  stroke-width="1.0"/>
<line x1="182.7" y1="386.9" x2="182.7" y2="359.9" stroke="rgb(0,0,0)"  stroke-width="1.0"/>
<line x1="144.0" y1="259.9" x2="167.3" y2="273.4" stroke="rgb(0,0,0)"  stroke-width="1.0"/>
<line x1="178.5" y1="292.9" x2="178.5" y2="319.9" stroke="rgb(0,0,0)"  stroke-width="1.0"/>
<line x1="109.3" y1="160.0" x2="109.3" y2="187.0" stroke="rgb(0,0,0)"  stroke-width="1.0"/>
<line x1="178.5" y1="319.9" x2="178.5" y2="359.9" stroke="rgb(0,0,0)"  stroke-width="1.0"/>
<line x1="120.5" y1="206.4" x2="144.0" y2="219.9" stroke="rgb(0,0,0)"  stroke-width="1.0"/>
<line x1="119.0" y1="270.8" x2="142.5" y2="257.3" stroke="rgb(0,0,0)"  stroke-width="1.0"/>
<line x1="122.0" y1="276.0" x2="145.5" y2="262.5" stroke="rgb(0,0,0)"  stroke-width="1.0"/>
<line x1="144.0" y1="219.9" x2="144.0" y2="259.9" stroke="rgb(0,0,0)"  stroke-width="1.0"/>
<line x1="51.3" y1="153.5" x2="74.7" y2="140.0" stroke="rgb(0,0,0)"  stroke-width="1.0"/>
<line x1="109.3" y1="53.0" x2="109.3" y2="80.0" stroke="rgb(0,0,0)"  stroke-width="1.0"/>
<line x1="138.6" y1="319.9" x2="178.5" y2="319.9" stroke="rgb(0,0,0)"  stroke-width="1.0"/>
<line x1="218.5" y1="319.9" x2="178.5" y2="319.9" stroke="rgb(0,0,0)"  stroke-width="1.0"/>
<line x1="125.1" y1="296.4" x2="138.6" y2="319.9" stroke="rgb(0,0,0)"  stroke-width="1.0"/>
<line x1="232.0" y1="343.2" x2="218.5" y2="319.9" stroke="rgb(0,0,0)"  stroke-width="1.0"/>
<line x1="74.7" y1="140.0" x2="74.7" y2="100.0" stroke="rgb(0,0,0)"  stroke-width="1.0"/>
<line x1="74.7" y1="100.0" x2="109.3" y2="80.0" stroke="rgb(0,0,0)"  stroke-width="1.0"/>
<line x1="83.5" y1="103.2" x2="107.7" y2="89.2" stroke="rgb(0,0,0)"  stroke-width="1.0"/>
<line x1="109.3" y1="80.0" x2="144.0" y2="100.0" stroke="rgb(0,0,0)"  stroke-width="1.0"/>
<line x1="144.0" y1="100.0" x2="144.0" y2="140.0" stroke="rgb(0,0,0)"  stroke-width="1.0"/>
<line x1="136.8" y1="106.0" x2="136.8" y2="134.0" stroke="rgb(0,0,0)"  stroke-width="1.0"/>
<line x1="144.0" y1="140.0" x2="109.3" y2="160.0" stroke="rgb(0,0,0)"  stroke-width="1.0"/>
<line x1="109.3" y1="160.0" x2="74.7" y2="140.0" stroke="rgb(0,0,0)"  stroke-width="1.0"/>
<line x1="107.7" y1="150.7" x2="83.5" y2="136.7" stroke="rgb(0,0,0)"  stroke-width="1.0"/>
<text x="172.549107" y="407.896138" fill="rgb(102,102,102)"  stroke="rgb(102,102,102)" stroke-width="1" font-size="16" >CH</text>
<text x="172.549107" y="287.930759" fill="rgb(12,12,255)"  stroke="rgb(12,12,255)" stroke-width="1" font-size="16" >NH</text>
<text x="103.274554" y="207.953839" fill="rgb(255,12,12)"  stroke="rgb(255,12,12)" stroke-width="1" font-size="16" >O</text>
<text x="103.274554" y="287.930759" fill="rgb(255,12,12)"  stroke="rgb(255,12,12)" stroke-width="1" font-size="16" >O</text>
<text x="22.000000" y="167.965379" fill="rgb(165,40,40)"  stroke="rgb(165,40,40)" stroke-width="1" font-size="16" >Br</text>
<text x="103.274554" y="48.000000" fill="rgb(165,40,40)"  stroke="rgb(165,40,40)" stroke-width="1" font-size="16" >Br</text>
<text x="92.566418" y="293.180153" fill="rgb(102,102,102)"  stroke="rgb(102,102,102)" stroke-width="1" font-size="16" >H</text>
<text x="104.566418" y="296.860153" fill="rgb(102,102,102)"  stroke="rgb(102,102,102)" stroke-width="1" font-size="13" >3</text>
<text x="111.066418" y="293.180153" fill="rgb(102,102,102)"  stroke="rgb(102,102,102)" stroke-width="1" font-size="16" >C</text>
<text x="234.531797" y="362.454707" fill="rgb(102,102,102)"  stroke="rgb(102,102,102)" stroke-width="1" font-size="16" >CH</text>
<text x="258.531797" y="366.134707" fill="rgb(102,102,102)"  stroke="rgb(102,102,102)" stroke-width="1" font-size="13" >3</text>
<text font-size="18.000000" fill ="black" font-family="sans-serif"
x="10.000000" y="20.000000" ></text>
<title> - OBDepict</title>
</svg>
