<?xml version="1.0"?>
<svg xmlns="http://www.w3.org/2000/svg"
xmlns:xlink="http://www.w3.org/1999/xlink" xmlns:cml="http://www.xml-cml.org/schema" width="533.359" height="241.57" x="0" y="0" font-family="sans-serif" stroke="rgb(0,0,0)" stroke-width="1"  stroke-linecap="round">
<rect x="0%" y="0%" width="100%" height="100%" stroke-width="0" fill="rgb(255,255,255)"  />
<line x1="238.8" y1="177.6" x2="206.5" y2="154.0" stroke="rgb(0,0,0)"  stroke-width="1.0"/>
<line x1="242.4" y1="172.8" x2="210.0" y2="149.1" stroke="rgb(0,0,0)"  stroke-width="1.0"/>
<line x1="277.6" y1="158.9" x2="240.6" y2="175.2" stroke="rgb(0,0,0)"  stroke-width="1.0"/>
<line x1="457.0" y1="119.4" x2="419.8" y2="135.2" stroke="rgb(0,0,0)"  stroke-width="1.0"/>
<line x1="481.5" y1="108.5" x2="457.0" y2="119.4" stroke="rgb(0,0,0)"  stroke-width="1.0"/>
<line x1="483.2" y1="112.3" x2="458.7" y2="123.2" stroke="rgb(0,0,0)"  stroke-width="1.0"/>
<line x1="479.8" y1="104.6" x2="455.3" y2="115.5" stroke="rgb(0,0,0)"  stroke-width="1.0"/>
<line x1="159.1" y1="188.3" x2="167.5" y2="162.8" stroke="rgb(0,0,0)"  stroke-width="1.0"/>
<line x1="164.8" y1="190.2" x2="173.2" y2="164.7" stroke="rgb(0,0,0)"  stroke-width="1.0"/>
<line x1="368.1" y1="182.8" x2="346.3" y2="166.4" stroke="rgb(0,0,0)"  stroke-width="1.0"/>
<line x1="375.7" y1="116.1" x2="350.6" y2="126.7" stroke="rgb(0,0,0)"  stroke-width="1.0"/>
<line x1="321.8" y1="76.6" x2="318.8" y2="103.0" stroke="rgb(0,0,0)"  stroke-width="1.0"/>
<line x1="419.8" y1="135.2" x2="398.0" y2="118.8" stroke="rgb(0,0,0)"  stroke-width="1.0"/>
<line x1="302.0" y1="47.8" x2="312.9" y2="55.9" stroke="rgb(0,0,0)"  stroke-width="1.0"/>
<line x1="170.6" y1="98.9" x2="155.0" y2="77.3" stroke="rgb(0,0,0)"  stroke-width="1.0"/>
<line x1="161.2" y1="98.2" x2="150.4" y2="83.2" stroke="rgb(0,0,0)"  stroke-width="1.0"/>
<line x1="135.0" y1="70.7" x2="109.2" y2="79.2" stroke="rgb(0,0,0)"  stroke-width="1.0"/>
<line x1="109.2" y1="79.2" x2="109.2" y2="119.0" stroke="rgb(0,0,0)"  stroke-width="1.0"/>
<line x1="109.2" y1="119.0" x2="134.5" y2="127.1" stroke="rgb(0,0,0)"  stroke-width="1.0"/>
<line x1="154.6" y1="120.6" x2="170.6" y2="98.9" stroke="rgb(0,0,0)"  stroke-width="1.0"/>
<line x1="208.2" y1="151.5" x2="208.6" y2="124.7" stroke="rgb(0,0,0)"  stroke-width="1.0"/>
<line x1="196.4" y1="107.6" x2="170.6" y2="98.9" stroke="rgb(0,0,0)"  stroke-width="1.0"/>
<line x1="154.5" y1="141.6" x2="170.4" y2="163.7" stroke="rgb(0,0,0)"  stroke-width="1.0"/>
<line x1="170.4" y1="163.7" x2="208.2" y2="151.5" stroke="rgb(0,0,0)"  stroke-width="1.0"/>
<line x1="346.3" y1="166.4" x2="350.6" y2="126.7" stroke="rgb(0,0,0)"  stroke-width="1.0"/>
<line x1="350.6" y1="126.7" x2="318.8" y2="103.0" stroke="rgb(0,0,0)"  stroke-width="1.0"/>
<line x1="341.5" y1="128.9" x2="319.3" y2="112.4" stroke="rgb(0,0,0)"  stroke-width="1.0"/>
<line x1="318.8" y1="103.0" x2="281.9" y2="119.0" stroke="rgb(0,0,0)"  stroke-width="1.0"/>
<line x1="281.9" y1="119.0" x2="277.6" y2="158.9" stroke="rgb(0,0,0)"  stroke-width="1.0"/>
<line x1="288.4" y1="125.8" x2="285.4" y2="153.7" stroke="rgb(0,0,0)"  stroke-width="1.0"/>
<line x1="277.6" y1="158.9" x2="309.3" y2="182.7" stroke="rgb(0,0,0)"  stroke-width="1.0"/>
<line x1="309.3" y1="182.7" x2="346.3" y2="166.4" stroke="rgb(0,0,0)"  stroke-width="1.0"/>
<line x1="311.9" y1="173.7" x2="337.9" y2="162.2" stroke="rgb(0,0,0)"  stroke-width="1.0"/>
<line x1="109.2" y1="79.2" x2="74.5" y2="58.8" stroke="rgb(0,0,0)"  stroke-width="1.0"/>
<line x1="100.4" y1="82.4" x2="76.0" y2="68.1" stroke="rgb(0,0,0)"  stroke-width="1.0"/>
<line x1="74.5" y1="58.8" x2="40.0" y2="79.2" stroke="rgb(0,0,0)"  stroke-width="1.0"/>
<line x1="40.0" y1="79.2" x2="40.0" y2="119.4" stroke="rgb(0,0,0)"  stroke-width="1.0"/>
<line x1="47.2" y1="85.2" x2="47.2" y2="113.4" stroke="rgb(0,0,0)"  stroke-width="1.0"/>
<line x1="40.0" y1="119.4" x2="74.5" y2="139.0" stroke="rgb(0,0,0)"  stroke-width="1.0"/>
<line x1="74.5" y1="139.0" x2="109.2" y2="119.0" stroke="rgb(0,0,0)"  stroke-width="1.0"/>
<line x1="76.1" y1="129.8" x2="100.4" y2="115.8" stroke="rgb(0,0,0)"  stroke-width="1.0"/>
<text x="140.881195" y="139.040829" fill="rgb(12,12,255)"  stroke="rgb(12,12,255)" stroke-width="1" font-size="16" >N</text>
<text x="141.381366" y="74.679022" fill="rgb(12,12,255)"  stroke="rgb(12,12,255)" stroke-width="1" font-size="16" >N</text>
<text x="202.737290" y="119.694410" fill="rgb(178,178,0)"  stroke="rgb(178,178,0)" stroke-width="1" font-size="16" >S</text>
<text x="487.358852" y="111.191503" fill="rgb(102,102,102)"  stroke="rgb(102,102,102)" stroke-width="1" font-size="16" >CH</text>
<text x="151.884956" y="209.569791" fill="rgb(255,12,12)"  stroke="rgb(255,12,12)" stroke-width="1" font-size="16" >O</text>
<text x="372.474922" y="198.566030" fill="rgb(165,40,40)"  stroke="rgb(165,40,40)" stroke-width="1" font-size="16" >Br</text>
<text x="381.643104" y="119.029134" fill="rgb(255,12,12)"  stroke="rgb(255,12,12)" stroke-width="1" font-size="16" >O</text>
<text x="317.286154" y="71.673141" fill="rgb(255,12,12)"  stroke="rgb(255,12,12)" stroke-width="1" font-size="16" >O</text>
<text x="265.605422" y="48.000000" fill="rgb(102,102,102)"  stroke="rgb(102,102,102)" stroke-width="1" font-size="16" >H</text>
<text x="277.605422" y="51.680000" fill="rgb(102,102,102)"  stroke="rgb(102,102,102)" stroke-width="1" font-size="13" >3</text>
<text x="284.105422" y="48.000000" fill="rgb(102,102,102)"  stroke="rgb(102,102,102)" stroke-width="1" font-size="16" >C</text>
<text font-size="18.000000" fill ="black" font-family="sans-serif"
x="10.000000" y="20.000000" ></text>
<title> - OBDepict</title>
</svg>
