<?xml version="1.0"?>
<svg xmlns="http://www.w3.org/2000/svg"
xmlns:xlink="http://www.w3.org/1999/xlink" xmlns:cml="http://www.xml-cml.org/schema" width="422.087" height="316.613" x="0" y="0" font-family="sans-serif" stroke="rgb(0,0,0)" stroke-width="1"  stroke-linecap="round">
<rect x="0%" y="0%" width="100%" height="100%" stroke-width="0" fill="rgb(255,255,255)"  />
<line x1="210.9" y1="146.9" x2="170.9" y2="146.9" stroke="rgb(0,0,0)"  stroke-width="1.0"/>
<line x1="304.9" y1="103.2" x2="282.9" y2="119.2" stroke="rgb(0,0,0)"  stroke-width="1.0"/>
<line x1="132.9" y1="246.9" x2="159.6" y2="217.2" stroke="rgb(0,0,0)"  stroke-width="1.0"/>
<line x1="114.8" y1="267.0" x2="132.9" y2="246.9" stroke="rgb(0,0,0)"  stroke-width="1.0"/>
<line x1="111.7" y1="264.2" x2="129.8" y2="244.1" stroke="rgb(0,0,0)"  stroke-width="1.0"/>
<line x1="117.9" y1="269.8" x2="136.1" y2="249.7" stroke="rgb(0,0,0)"  stroke-width="1.0"/>
<line x1="292.6" y1="185.2" x2="270.6" y2="169.3" stroke="rgb(0,0,0)"  stroke-width="1.0"/>
<line x1="296.1" y1="180.3" x2="274.1" y2="164.5" stroke="rgb(0,0,0)"  stroke-width="1.0"/>
<line x1="159.6" y1="217.2" x2="151.3" y2="191.6" stroke="rgb(0,0,0)"  stroke-width="1.0"/>
<line x1="344.1" y1="146.5" x2="341.3" y2="119.6" stroke="rgb(0,0,0)"  stroke-width="1.0"/>
<line x1="370.2" y1="170.3" x2="357.4" y2="164.7" stroke="rgb(0,0,0)"  stroke-width="1.0"/>
<line x1="170.9" y1="146.9" x2="155.0" y2="168.7" stroke="rgb(0,0,0)"  stroke-width="1.0"/>
<line x1="134.9" y1="175.2" x2="109.3" y2="166.9" stroke="rgb(0,0,0)"  stroke-width="1.0"/>
<line x1="109.3" y1="166.9" x2="109.3" y2="126.9" stroke="rgb(0,0,0)"  stroke-width="1.0"/>
<line x1="116.5" y1="160.9" x2="116.5" y2="132.9" stroke="rgb(0,0,0)"  stroke-width="1.0"/>
<line x1="109.3" y1="126.9" x2="134.9" y2="118.6" stroke="rgb(0,0,0)"  stroke-width="1.0"/>
<line x1="155.1" y1="125.2" x2="170.9" y2="146.9" stroke="rgb(0,0,0)"  stroke-width="1.0"/>
<line x1="150.5" y1="131.1" x2="161.6" y2="146.3" stroke="rgb(0,0,0)"  stroke-width="1.0"/>
<line x1="210.9" y1="146.9" x2="234.4" y2="179.2" stroke="rgb(0,0,0)"  stroke-width="1.0"/>
<line x1="234.4" y1="179.2" x2="272.4" y2="166.9" stroke="rgb(0,0,0)"  stroke-width="1.0"/>
<line x1="272.4" y1="166.9" x2="272.4" y2="139.9" stroke="rgb(0,0,0)"  stroke-width="1.0"/>
<line x1="260.0" y1="122.9" x2="234.4" y2="114.6" stroke="rgb(0,0,0)"  stroke-width="1.0"/>
<line x1="234.4" y1="114.6" x2="210.9" y2="146.9" stroke="rgb(0,0,0)"  stroke-width="1.0"/>
<line x1="74.6" y1="186.9" x2="109.3" y2="166.9" stroke="rgb(0,0,0)"  stroke-width="1.0"/>
<line x1="109.3" y1="126.9" x2="74.6" y2="106.9" stroke="rgb(0,0,0)"  stroke-width="1.0"/>
<line x1="74.6" y1="106.9" x2="40.0" y2="126.9" stroke="rgb(0,0,0)"  stroke-width="1.0"/>
<line x1="73.0" y1="116.1" x2="48.8" y2="130.1" stroke="rgb(0,0,0)"  stroke-width="1.0"/>
<line x1="40.0" y1="126.9" x2="40.0" y2="166.9" stroke="rgb(0,0,0)"  stroke-width="1.0"/>
<line x1="40.0" y1="166.9" x2="74.6" y2="186.9" stroke="rgb(0,0,0)"  stroke-width="1.0"/>
<line x1="48.8" y1="163.7" x2="73.0" y2="177.7" stroke="rgb(0,0,0)"  stroke-width="1.0"/>
<line x1="304.9" y1="103.2" x2="300.7" y2="63.4" stroke="rgb(0,0,0)"  stroke-width="1.0"/>
<line x1="300.7" y1="63.4" x2="333.0" y2="40.0" stroke="rgb(0,0,0)"  stroke-width="1.0"/>
<line x1="309.7" y1="65.7" x2="332.4" y2="49.4" stroke="rgb(0,0,0)"  stroke-width="1.0"/>
<line x1="333.0" y1="40.0" x2="369.6" y2="56.4" stroke="rgb(0,0,0)"  stroke-width="1.0"/>
<line x1="369.6" y1="56.4" x2="373.8" y2="96.0" stroke="rgb(0,0,0)"  stroke-width="1.0"/>
<line x1="363.0" y1="63.1" x2="366.0" y2="90.8" stroke="rgb(0,0,0)"  stroke-width="1.0"/>
<line x1="373.8" y1="96.0" x2="341.3" y2="119.6" stroke="rgb(0,0,0)"  stroke-width="1.0"/>
<line x1="341.3" y1="119.6" x2="304.9" y2="103.2" stroke="rgb(0,0,0)"  stroke-width="1.0"/>
<line x1="338.8" y1="110.6" x2="313.3" y2="99.1" stroke="rgb(0,0,0)"  stroke-width="1.0"/>
<text x="266.369443" y="134.886978" fill="rgb(12,12,255)"  stroke="rgb(12,12,255)" stroke-width="1" font-size="16" >N</text>
<text x="141.293318" y="122.559763" fill="rgb(12,12,255)"  stroke="rgb(12,12,255)" stroke-width="1" font-size="16" >N</text>
<text x="141.293318" y="187.221870" fill="rgb(12,12,255)"  stroke="rgb(12,12,255)" stroke-width="1" font-size="16" >N</text>
<text x="88.073286" y="284.612682" fill="rgb(102,102,102)"  stroke="rgb(102,102,102)" stroke-width="1" font-size="16" >HC</text>
<text x="298.899322" y="198.331881" fill="rgb(255,12,12)"  stroke="rgb(255,12,12)" stroke-width="1" font-size="16" >O</text>
<text x="339.513177" y="167.416857" fill="rgb(255,12,12)"  stroke="rgb(255,12,12)" stroke-width="1" font-size="16" >O</text>
<text x="378.087469" y="183.584808" fill="rgb(102,102,102)"  stroke="rgb(102,102,102)" stroke-width="1" font-size="16" >CH</text>
<text x="402.087469" y="187.264808" fill="rgb(102,102,102)"  stroke="rgb(102,102,102)" stroke-width="1" font-size="13" >3</text>
<text font-size="18.000000" fill ="black" font-family="sans-serif"
x="10.000000" y="20.000000" ></text>
<title> - OBDepict</title>
</svg>
