<?xml version="1.0"?>
<svg xmlns="http://www.w3.org/2000/svg"
xmlns:xlink="http://www.w3.org/1999/xlink" xmlns:cml="http://www.xml-cml.org/schema" width="357.082" height="459.882" x="0" y="0" font-family="sans-serif" stroke="rgb(0,0,0)" stroke-width="1"  stroke-linecap="round">
<rect x="0%" y="0%" width="100%" height="100%" stroke-width="0" fill="rgb(255,255,255)"  />
<line x1="144.0" y1="187.0" x2="144.0" y2="160.0" stroke="rgb(0,0,0)"  stroke-width="1.0"/>
<line x1="109.3" y1="219.9" x2="132.7" y2="206.4" stroke="rgb(0,0,0)"  stroke-width="1.0"/>
<line x1="213.3" y1="79.8" x2="189.8" y2="93.4" stroke="rgb(0,0,0)"  stroke-width="1.0"/>
<line x1="144.0" y1="399.9" x2="109.3" y2="379.9" stroke="rgb(0,0,0)"  stroke-width="1.0"/>
<line x1="167.3" y1="413.4" x2="144.0" y2="399.9" stroke="rgb(0,0,0)"  stroke-width="1.0"/>
<line x1="165.2" y1="417.0" x2="141.9" y2="403.5" stroke="rgb(0,0,0)"  stroke-width="1.0"/>
<line x1="169.4" y1="409.7" x2="146.1" y2="396.3" stroke="rgb(0,0,0)"  stroke-width="1.0"/>
<line x1="147.0" y1="53.0" x2="147.0" y2="79.8" stroke="rgb(0,0,0)"  stroke-width="1.0"/>
<line x1="141.0" y1="53.0" x2="141.0" y2="79.8" stroke="rgb(0,0,0)"  stroke-width="1.0"/>
<line x1="84.5" y1="150.9" x2="107.8" y2="137.4" stroke="rgb(0,0,0)"  stroke-width="1.0"/>
<line x1="87.5" y1="156.0" x2="110.8" y2="142.6" stroke="rgb(0,0,0)"  stroke-width="1.0"/>
<line x1="202.0" y1="153.5" x2="178.5" y2="140.0" stroke="rgb(0,0,0)"  stroke-width="1.0"/>
<line x1="109.3" y1="259.9" x2="109.3" y2="219.9" stroke="rgb(0,0,0)"  stroke-width="1.0"/>
<line x1="86.0" y1="273.4" x2="109.3" y2="259.9" stroke="rgb(0,0,0)"  stroke-width="1.0"/>
<line x1="87.5" y1="203.9" x2="110.8" y2="217.3" stroke="rgb(0,0,0)"  stroke-width="1.0"/>
<line x1="84.5" y1="209.1" x2="107.8" y2="222.5" stroke="rgb(0,0,0)"  stroke-width="1.0"/>
<line x1="74.7" y1="319.9" x2="74.7" y2="292.9" stroke="rgb(0,0,0)"  stroke-width="1.0"/>
<line x1="247.8" y1="100.0" x2="213.3" y2="79.8" stroke="rgb(0,0,0)"  stroke-width="1.0"/>
<line x1="178.5" y1="219.9" x2="155.3" y2="206.5" stroke="rgb(0,0,0)"  stroke-width="1.0"/>
<line x1="236.6" y1="213.4" x2="213.3" y2="200.0" stroke="rgb(0,0,0)"  stroke-width="1.0"/>
<line x1="213.3" y1="200.0" x2="178.5" y2="219.9" stroke="rgb(0,0,0)"  stroke-width="1.0"/>
<line x1="271.3" y1="206.4" x2="259.1" y2="213.5" stroke="rgb(0,0,0)"  stroke-width="1.0"/>
<line x1="178.5" y1="113.0" x2="178.5" y2="140.0" stroke="rgb(0,0,0)"  stroke-width="1.0"/>
<line x1="178.5" y1="140.0" x2="144.0" y2="160.0" stroke="rgb(0,0,0)"  stroke-width="1.0"/>
<line x1="169.7" y1="136.7" x2="145.6" y2="150.7" stroke="rgb(0,0,0)"  stroke-width="1.0"/>
<line x1="144.0" y1="160.0" x2="109.3" y2="140.0" stroke="rgb(0,0,0)"  stroke-width="1.0"/>
<line x1="109.3" y1="140.0" x2="109.3" y2="113.0" stroke="rgb(0,0,0)"  stroke-width="1.0"/>
<line x1="120.5" y1="93.4" x2="144.0" y2="79.8" stroke="rgb(0,0,0)"  stroke-width="1.0"/>
<line x1="144.0" y1="79.8" x2="167.3" y2="93.4" stroke="rgb(0,0,0)"  stroke-width="1.0"/>
<line x1="247.8" y1="100.0" x2="282.5" y2="79.8" stroke="rgb(0,0,0)"  stroke-width="1.0"/>
<line x1="256.6" y1="103.2" x2="281.0" y2="89.0" stroke="rgb(0,0,0)"  stroke-width="1.0"/>
<line x1="282.5" y1="79.8" x2="317.1" y2="100.0" stroke="rgb(0,0,0)"  stroke-width="1.0"/>
<line x1="317.1" y1="100.0" x2="317.1" y2="140.0" stroke="rgb(0,0,0)"  stroke-width="1.0"/>
<line x1="309.9" y1="106.0" x2="309.9" y2="134.0" stroke="rgb(0,0,0)"  stroke-width="1.0"/>
<line x1="317.1" y1="140.0" x2="282.5" y2="160.0" stroke="rgb(0,0,0)"  stroke-width="1.0"/>
<line x1="282.5" y1="160.0" x2="247.8" y2="140.0" stroke="rgb(0,0,0)"  stroke-width="1.0"/>
<line x1="280.9" y1="150.7" x2="256.6" y2="136.7" stroke="rgb(0,0,0)"  stroke-width="1.0"/>
<line x1="247.8" y1="140.0" x2="247.8" y2="100.0" stroke="rgb(0,0,0)"  stroke-width="1.0"/>
<line x1="109.3" y1="379.9" x2="74.7" y2="399.9" stroke="rgb(0,0,0)"  stroke-width="1.0"/>
<line x1="100.5" y1="376.7" x2="76.3" y2="390.7" stroke="rgb(0,0,0)"  stroke-width="1.0"/>
<line x1="74.7" y1="399.9" x2="40.0" y2="379.9" stroke="rgb(0,0,0)"  stroke-width="1.0"/>
<line x1="40.0" y1="379.9" x2="40.0" y2="339.9" stroke="rgb(0,0,0)"  stroke-width="1.0"/>
<line x1="47.2" y1="373.9" x2="47.2" y2="345.9" stroke="rgb(0,0,0)"  stroke-width="1.0"/>
<line x1="40.0" y1="339.9" x2="74.7" y2="319.9" stroke="rgb(0,0,0)"  stroke-width="1.0"/>
<line x1="74.7" y1="319.9" x2="109.3" y2="339.9" stroke="rgb(0,0,0)"  stroke-width="1.0"/>
<line x1="76.3" y1="329.1" x2="100.5" y2="343.1" stroke="rgb(0,0,0)"  stroke-width="1.0"/>
<line x1="109.3" y1="339.9" x2="109.3" y2="379.9" stroke="rgb(0,0,0)"  stroke-width="1.0"/>
<text x="172.541036" y="107.981294" fill="rgb(12,12,255)"  stroke="rgb(12,12,255)" stroke-width="1" font-size="16" >N</text>
<text x="91.268095" y="107.981294" fill="rgb(12,12,255)"  stroke="rgb(12,12,255)" stroke-width="1" font-size="16" >HN</text>
<text x="138.006352" y="207.950117" fill="rgb(12,12,255)"  stroke="rgb(12,12,255)" stroke-width="1" font-size="16" >N</text>
<text x="172.541036" y="427.881529" fill="rgb(102,102,102)"  stroke="rgb(102,102,102)" stroke-width="1" font-size="16" >CH</text>
<text x="138.006352" y="48.000000" fill="rgb(255,12,12)"  stroke="rgb(255,12,12)" stroke-width="1" font-size="16" >O</text>
<text x="68.733410" y="167.962588" fill="rgb(255,12,12)"  stroke="rgb(255,12,12)" stroke-width="1" font-size="16" >O</text>
<text x="209.279294" y="167.962588" fill="rgb(12,12,255)"  stroke="rgb(12,12,255)" stroke-width="1" font-size="16" >NH</text>
<text x="233.279294" y="171.642588" fill="rgb(12,12,255)"  stroke="rgb(12,12,255)" stroke-width="1" font-size="13" >2</text>
<text x="56.733410" y="287.925176" fill="rgb(12,12,255)"  stroke="rgb(12,12,255)" stroke-width="1" font-size="16" >HN</text>
<text x="68.733410" y="207.950117" fill="rgb(255,12,12)"  stroke="rgb(255,12,12)" stroke-width="1" font-size="16" >O</text>
<text x="241.813978" y="227.943882" fill="rgb(255,12,12)"  stroke="rgb(255,12,12)" stroke-width="1" font-size="16" >O</text>
<text x="278.547389" y="207.950117" fill="rgb(102,102,102)"  stroke="rgb(102,102,102)" stroke-width="1" font-size="16" >CH</text>
<text x="302.547389" y="211.630117" fill="rgb(102,102,102)"  stroke="rgb(102,102,102)" stroke-width="1" font-size="13" >3</text>
<text font-size="18.000000" fill ="black" font-family="sans-serif"
x="10.000000" y="20.000000" ></text>
<title> - OBDepict</title>
</svg>
