<?xml version="1.0"?>
<svg xmlns="http://www.w3.org/2000/svg"
xmlns:xlink="http://www.w3.org/1999/xlink" xmlns:cml="http://www.xml-cml.org/schema" width="287.915" height="539.876" x="0" y="0" font-family="sans-serif" stroke="rgb(0,0,0)" stroke-width="1"  stroke-linecap="round">
<rect x="0%" y="0%" width="100%" height="100%" stroke-width="0" fill="rgb(255,255,255)"  />
<line x1="178.6" y1="199.8" x2="178.6" y2="239.8" stroke="rgb(0,0,0)"  stroke-width="1.0"/>
<line x1="85.8" y1="333.4" x2="98.0" y2="326.3" stroke="rgb(0,0,0)"  stroke-width="1.0"/>
<line x1="143.9" y1="299.8" x2="120.6" y2="313.3" stroke="rgb(0,0,0)"  stroke-width="1.0"/>
<line x1="201.9" y1="186.3" x2="178.6" y2="199.8" stroke="rgb(0,0,0)"  stroke-width="1.0"/>
<line x1="143.9" y1="60.0" x2="178.6" y2="79.8" stroke="rgb(0,0,0)"  stroke-width="1.0"/>
<line x1="120.2" y1="344.8" x2="113.2" y2="332.6" stroke="rgb(0,0,0)"  stroke-width="1.0"/>
<line x1="125.4" y1="341.8" x2="118.4" y2="329.6" stroke="rgb(0,0,0)"  stroke-width="1.0"/>
<line x1="98.4" y1="295.0" x2="105.4" y2="307.1" stroke="rgb(0,0,0)"  stroke-width="1.0"/>
<line x1="93.2" y1="298.0" x2="100.2" y2="310.1" stroke="rgb(0,0,0)"  stroke-width="1.0"/>
<line x1="120.6" y1="46.5" x2="143.9" y2="60.0" stroke="rgb(0,0,0)"  stroke-width="1.0"/>
<line x1="122.7" y1="42.9" x2="146.0" y2="56.4" stroke="rgb(0,0,0)"  stroke-width="1.0"/>
<line x1="118.4" y1="50.1" x2="141.7" y2="63.6" stroke="rgb(0,0,0)"  stroke-width="1.0"/>
<line x1="156.6" y1="183.7" x2="180.1" y2="197.2" stroke="rgb(0,0,0)"  stroke-width="1.0"/>
<line x1="153.6" y1="188.9" x2="177.1" y2="202.4" stroke="rgb(0,0,0)"  stroke-width="1.0"/>
<line x1="213.2" y1="139.8" x2="213.2" y2="166.8" stroke="rgb(0,0,0)"  stroke-width="1.0"/>
<line x1="74.6" y1="379.9" x2="74.6" y2="352.8" stroke="rgb(0,0,0)"  stroke-width="1.0"/>
<line x1="74.6" y1="486.9" x2="74.6" y2="459.9" stroke="rgb(0,0,0)"  stroke-width="1.0"/>
<line x1="74.6" y1="379.9" x2="109.3" y2="399.9" stroke="rgb(0,0,0)"  stroke-width="1.0"/>
<line x1="109.3" y1="399.9" x2="109.3" y2="439.9" stroke="rgb(0,0,0)"  stroke-width="1.0"/>
<line x1="102.1" y1="405.9" x2="102.1" y2="433.9" stroke="rgb(0,0,0)"  stroke-width="1.0"/>
<line x1="109.3" y1="439.9" x2="74.6" y2="459.9" stroke="rgb(0,0,0)"  stroke-width="1.0"/>
<line x1="74.6" y1="459.9" x2="40.0" y2="439.9" stroke="rgb(0,0,0)"  stroke-width="1.0"/>
<line x1="73.0" y1="450.6" x2="48.8" y2="436.6" stroke="rgb(0,0,0)"  stroke-width="1.0"/>
<line x1="40.0" y1="439.9" x2="40.0" y2="399.9" stroke="rgb(0,0,0)"  stroke-width="1.0"/>
<line x1="40.0" y1="399.9" x2="74.6" y2="379.9" stroke="rgb(0,0,0)"  stroke-width="1.0"/>
<line x1="48.8" y1="403.1" x2="73.0" y2="389.1" stroke="rgb(0,0,0)"  stroke-width="1.0"/>
<line x1="143.9" y1="299.8" x2="143.9" y2="259.8" stroke="rgb(0,0,0)"  stroke-width="1.0"/>
<line x1="151.1" y1="293.8" x2="151.1" y2="265.8" stroke="rgb(0,0,0)"  stroke-width="1.0"/>
<line x1="143.9" y1="259.8" x2="178.6" y2="239.8" stroke="rgb(0,0,0)"  stroke-width="1.0"/>
<line x1="178.6" y1="239.8" x2="213.2" y2="259.8" stroke="rgb(0,0,0)"  stroke-width="1.0"/>
<line x1="180.2" y1="249.1" x2="204.4" y2="263.1" stroke="rgb(0,0,0)"  stroke-width="1.0"/>
<line x1="213.2" y1="259.8" x2="213.2" y2="299.8" stroke="rgb(0,0,0)"  stroke-width="1.0"/>
<line x1="213.2" y1="299.8" x2="178.6" y2="319.8" stroke="rgb(0,0,0)"  stroke-width="1.0"/>
<line x1="204.4" y1="296.6" x2="180.2" y2="310.6" stroke="rgb(0,0,0)"  stroke-width="1.0"/>
<line x1="178.6" y1="319.8" x2="143.9" y2="299.8" stroke="rgb(0,0,0)"  stroke-width="1.0"/>
<line x1="213.2" y1="139.8" x2="178.6" y2="119.8" stroke="rgb(0,0,0)"  stroke-width="1.0"/>
<line x1="211.6" y1="130.6" x2="187.4" y2="116.6" stroke="rgb(0,0,0)"  stroke-width="1.0"/>
<line x1="178.6" y1="119.8" x2="178.6" y2="79.8" stroke="rgb(0,0,0)"  stroke-width="1.0"/>
<line x1="178.6" y1="79.8" x2="213.2" y2="60.0" stroke="rgb(0,0,0)"  stroke-width="1.0"/>
<line x1="187.4" y1="83.1" x2="211.5" y2="69.2" stroke="rgb(0,0,0)"  stroke-width="1.0"/>
<line x1="213.2" y1="60.0" x2="247.9" y2="79.8" stroke="rgb(0,0,0)"  stroke-width="1.0"/>
<line x1="247.9" y1="79.8" x2="247.9" y2="119.8" stroke="rgb(0,0,0)"  stroke-width="1.0"/>
<line x1="240.7" y1="85.8" x2="240.7" y2="113.8" stroke="rgb(0,0,0)"  stroke-width="1.0"/>
<line x1="247.9" y1="119.8" x2="213.2" y2="139.8" stroke="rgb(0,0,0)"  stroke-width="1.0"/>
<text x="103.301687" y="327.844779" fill="rgb(178,178,0)"  stroke="rgb(178,178,0)" stroke-width="1" font-size="16" >S</text>
<text x="56.551432" y="347.848240" fill="rgb(12,12,255)"  stroke="rgb(12,12,255)" stroke-width="1" font-size="16" >HN</text>
<text x="207.159655" y="187.820554" fill="rgb(12,12,255)"  stroke="rgb(12,12,255)" stroke-width="1" font-size="16" >NH</text>
<text x="123.305148" y="362.599883" fill="rgb(255,12,12)"  stroke="rgb(255,12,12)" stroke-width="1" font-size="16" >O</text>
<text x="83.298226" y="293.293347" fill="rgb(255,12,12)"  stroke="rgb(255,12,12)" stroke-width="1" font-size="16" >O</text>
<text x="91.301687" y="48.000000" fill="rgb(102,102,102)"  stroke="rgb(102,102,102)" stroke-width="1" font-size="16" >HC</text>
<text x="137.853119" y="187.820554" fill="rgb(255,12,12)"  stroke="rgb(255,12,12)" stroke-width="1" font-size="16" >O</text>
<text x="68.551432" y="507.875926" fill="rgb(30,239,30)"  stroke="rgb(30,239,30)" stroke-width="1" font-size="16" >Cl</text>
<text font-size="18.000000" fill ="black" font-family="sans-serif"
x="10.000000" y="20.000000" ></text>
<title> - OBDepict</title>
</svg>
