<?xml version="1.0"?>
<svg xmlns="http://www.w3.org/2000/svg"
xmlns:xlink="http://www.w3.org/1999/xlink" xmlns:cml="http://www.xml-cml.org/schema" width="426.437" height="199.991" x="0" y="0" font-family="sans-serif" stroke="rgb(0,0,0)" stroke-width="1"  stroke-linecap="round">
<rect x="0%" y="0%" width="100%" height="100%" stroke-width="0" fill="rgb(255,255,255)"  />
<line x1="282.4" y1="120.0" x2="305.9" y2="106.5" stroke="rgb(0,0,0)"  stroke-width="1.0"/>
<line x1="74.5" y1="120.0" x2="109.3" y2="100.0" stroke="rgb(0,0,0)"  stroke-width="1.0"/>
<line x1="51.3" y1="133.5" x2="74.5" y2="120.0" stroke="rgb(0,0,0)"  stroke-width="1.0"/>
<line x1="49.1" y1="129.8" x2="72.4" y2="116.4" stroke="rgb(0,0,0)"  stroke-width="1.0"/>
<line x1="53.4" y1="137.1" x2="76.6" y2="123.6" stroke="rgb(0,0,0)"  stroke-width="1.0"/>
<line x1="247.9" y1="100.0" x2="282.4" y2="120.0" stroke="rgb(0,0,0)"  stroke-width="1.0"/>
<line x1="224.4" y1="113.5" x2="247.9" y2="100.0" stroke="rgb(0,0,0)"  stroke-width="1.0"/>
<line x1="279.4" y1="147.0" x2="279.4" y2="120.0" stroke="rgb(0,0,0)"  stroke-width="1.0"/>
<line x1="285.4" y1="147.0" x2="285.4" y2="120.0" stroke="rgb(0,0,0)"  stroke-width="1.0"/>
<line x1="178.6" y1="100.0" x2="201.9" y2="113.5" stroke="rgb(0,0,0)"  stroke-width="1.0"/>
<line x1="351.7" y1="147.0" x2="351.7" y2="120.0" stroke="rgb(0,0,0)"  stroke-width="1.0"/>
<line x1="317.2" y1="87.0" x2="317.2" y2="60.0" stroke="rgb(0,0,0)"  stroke-width="1.0"/>
<line x1="317.2" y1="60.0" x2="351.7" y2="40.0" stroke="rgb(0,0,0)"  stroke-width="1.0"/>
<line x1="351.7" y1="40.0" x2="386.4" y2="60.0" stroke="rgb(0,0,0)"  stroke-width="1.0"/>
<line x1="386.4" y1="60.0" x2="386.4" y2="100.0" stroke="rgb(0,0,0)"  stroke-width="1.0"/>
<line x1="386.4" y1="100.0" x2="351.7" y2="120.0" stroke="rgb(0,0,0)"  stroke-width="1.0"/>
<line x1="351.7" y1="120.0" x2="328.4" y2="106.5" stroke="rgb(0,0,0)"  stroke-width="1.0"/>
<line x1="109.3" y1="100.0" x2="109.3" y2="60.0" stroke="rgb(0,0,0)"  stroke-width="1.0"/>
<line x1="116.5" y1="94.0" x2="116.5" y2="66.0" stroke="rgb(0,0,0)"  stroke-width="1.0"/>
<line x1="109.3" y1="60.0" x2="143.8" y2="40.0" stroke="rgb(0,0,0)"  stroke-width="1.0"/>
<line x1="143.8" y1="40.0" x2="178.6" y2="60.0" stroke="rgb(0,0,0)"  stroke-width="1.0"/>
<line x1="145.4" y1="49.2" x2="169.8" y2="63.2" stroke="rgb(0,0,0)"  stroke-width="1.0"/>
<line x1="178.6" y1="60.0" x2="178.6" y2="100.0" stroke="rgb(0,0,0)"  stroke-width="1.0"/>
<line x1="178.6" y1="100.0" x2="143.8" y2="120.0" stroke="rgb(0,0,0)"  stroke-width="1.0"/>
<line x1="169.8" y1="96.7" x2="145.4" y2="110.8" stroke="rgb(0,0,0)"  stroke-width="1.0"/>
<line x1="143.8" y1="120.0" x2="109.3" y2="100.0" stroke="rgb(0,0,0)"  stroke-width="1.0"/>
<text x="311.152719" y="107.995538" fill="rgb(12,12,255)"  stroke="rgb(12,12,255)" stroke-width="1" font-size="16" >N</text>
<text x="22.000000" y="147.992563" fill="rgb(102,102,102)"  stroke="rgb(102,102,102)" stroke-width="1" font-size="16" >HC</text>
<text x="207.116821" y="127.994050" fill="rgb(12,12,255)"  stroke="rgb(12,12,255)" stroke-width="1" font-size="16" >N</text>
<text x="207.116821" y="143.994050" fill="rgb(12,12,255)"  stroke="rgb(12,12,255)" stroke-width="1" font-size="16" >H</text>
<text x="276.406212" y="167.991075" fill="rgb(255,12,12)"  stroke="rgb(255,12,12)" stroke-width="1" font-size="16" >O</text>
<text x="347.695604" y="167.991075" fill="rgb(102,102,102)"  stroke="rgb(102,102,102)" stroke-width="1" font-size="16" >CH</text>
<text x="371.695604" y="171.671075" fill="rgb(102,102,102)"  stroke="rgb(102,102,102)" stroke-width="1" font-size="13" >3</text>
<text font-size="18.000000" fill ="black" font-family="sans-serif"
x="10.000000" y="20.000000" ></text>
<title> - OBDepict</title>
</svg>
