<?xml version="1.0"?>
<svg xmlns="http://www.w3.org/2000/svg"
xmlns:xlink="http://www.w3.org/1999/xlink" xmlns:cml="http://www.xml-cml.org/schema" width="444.085" height="383.032" x="0" y="0" font-family="sans-serif" stroke="rgb(0,0,0)" stroke-width="1"  stroke-linecap="round">
<rect x="0%" y="0%" width="100%" height="100%" stroke-width="0" fill="rgb(255,255,255)"  />
<line x1="79.9" y1="186.5" x2="119.8" y2="190.3" stroke="rgb(0,0,0)"  stroke-width="1.0"/>
<line x1="52.9" y1="183.9" x2="79.9" y2="186.5" stroke="rgb(0,0,0)"  stroke-width="1.0"/>
<line x1="53.3" y1="179.7" x2="80.3" y2="182.3" stroke="rgb(0,0,0)"  stroke-width="1.0"/>
<line x1="52.5" y1="188.1" x2="79.5" y2="190.7" stroke="rgb(0,0,0)"  stroke-width="1.0"/>
<line x1="207.0" y1="189.9" x2="183.3" y2="157.5" stroke="rgb(0,0,0)"  stroke-width="1.0"/>
<line x1="270.3" y1="217.7" x2="254.6" y2="196.0" stroke="rgb(0,0,0)"  stroke-width="1.0"/>
<line x1="234.0" y1="186.9" x2="207.0" y2="189.9" stroke="rgb(0,0,0)"  stroke-width="1.0"/>
<line x1="119.8" y1="190.3" x2="135.8" y2="168.0" stroke="rgb(0,0,0)"  stroke-width="1.0"/>
<line x1="340.8" y1="314.8" x2="317.2" y2="282.4" stroke="rgb(0,0,0)"  stroke-width="1.0"/>
<line x1="380.8" y1="313.6" x2="341.1" y2="317.8" stroke="rgb(0,0,0)"  stroke-width="1.0"/>
<line x1="380.2" y1="307.6" x2="340.5" y2="311.8" stroke="rgb(0,0,0)"  stroke-width="1.0"/>
<line x1="227.0" y1="256.9" x2="254.0" y2="254.2" stroke="rgb(0,0,0)"  stroke-width="1.0"/>
<line x1="396.4" y1="332.5" x2="380.5" y2="310.6" stroke="rgb(0,0,0)"  stroke-width="1.0"/>
<line x1="202.9" y1="282.8" x2="208.7" y2="270.0" stroke="rgb(0,0,0)"  stroke-width="1.0"/>
<line x1="183.3" y1="157.5" x2="191.4" y2="132.1" stroke="rgb(0,0,0)"  stroke-width="1.0"/>
<line x1="178.2" y1="149.6" x2="183.9" y2="131.8" stroke="rgb(0,0,0)"  stroke-width="1.0"/>
<line x1="184.9" y1="111.9" x2="163.1" y2="96.0" stroke="rgb(0,0,0)"  stroke-width="1.0"/>
<line x1="163.1" y1="96.0" x2="130.9" y2="119.4" stroke="rgb(0,0,0)"  stroke-width="1.0"/>
<line x1="130.9" y1="119.4" x2="139.3" y2="145.1" stroke="rgb(0,0,0)"  stroke-width="1.0"/>
<line x1="156.4" y1="157.5" x2="183.3" y2="157.5" stroke="rgb(0,0,0)"  stroke-width="1.0"/>
<line x1="254.0" y1="254.2" x2="277.6" y2="286.6" stroke="rgb(0,0,0)"  stroke-width="1.0"/>
<line x1="277.6" y1="286.6" x2="317.2" y2="282.4" stroke="rgb(0,0,0)"  stroke-width="1.0"/>
<line x1="282.8" y1="278.8" x2="310.5" y2="275.9" stroke="rgb(0,0,0)"  stroke-width="1.0"/>
<line x1="317.2" y1="282.4" x2="333.6" y2="245.9" stroke="rgb(0,0,0)"  stroke-width="1.0"/>
<line x1="333.6" y1="245.9" x2="310.0" y2="213.5" stroke="rgb(0,0,0)"  stroke-width="1.0"/>
<line x1="324.2" y1="245.3" x2="307.7" y2="222.6" stroke="rgb(0,0,0)"  stroke-width="1.0"/>
<line x1="310.0" y1="213.5" x2="270.3" y2="217.7" stroke="rgb(0,0,0)"  stroke-width="1.0"/>
<line x1="270.3" y1="217.7" x2="254.0" y2="254.2" stroke="rgb(0,0,0)"  stroke-width="1.0"/>
<line x1="274.4" y1="226.1" x2="263.0" y2="251.6" stroke="rgb(0,0,0)"  stroke-width="1.0"/>
<line x1="94.4" y1="103.1" x2="90.2" y2="63.4" stroke="rgb(0,0,0)"  stroke-width="1.0"/>
<line x1="90.2" y1="63.4" x2="122.4" y2="40.0" stroke="rgb(0,0,0)"  stroke-width="1.0"/>
<line x1="99.3" y1="65.7" x2="121.8" y2="49.4" stroke="rgb(0,0,0)"  stroke-width="1.0"/>
<line x1="122.4" y1="40.0" x2="158.9" y2="56.3" stroke="rgb(0,0,0)"  stroke-width="1.0"/>
<line x1="158.9" y1="56.3" x2="163.1" y2="96.0" stroke="rgb(0,0,0)"  stroke-width="1.0"/>
<line x1="152.4" y1="63.1" x2="155.3" y2="90.8" stroke="rgb(0,0,0)"  stroke-width="1.0"/>
<line x1="130.9" y1="119.4" x2="94.4" y2="103.1" stroke="rgb(0,0,0)"  stroke-width="1.0"/>
<line x1="128.3" y1="110.4" x2="102.8" y2="98.9" stroke="rgb(0,0,0)"  stroke-width="1.0"/>
<text x="189.349410" y="127.582912" fill="rgb(12,12,255)"  stroke="rgb(12,12,255)" stroke-width="1" font-size="16" >N</text>
<text x="137.362860" y="165.461318" fill="rgb(12,12,255)"  stroke="rgb(12,12,255)" stroke-width="1" font-size="16" >N</text>
<text x="22.000000" y="190.650627" fill="rgb(102,102,102)"  stroke="rgb(102,102,102)" stroke-width="1" font-size="16" >HC</text>
<text x="240.924290" y="193.474193" fill="rgb(255,12,12)"  stroke="rgb(255,12,12)" stroke-width="1" font-size="16" >O</text>
<text x="208.087621" y="266.208868" fill="rgb(255,12,12)"  stroke="rgb(255,12,12)" stroke-width="1" font-size="16" >O</text>
<text x="400.085044" y="351.032087" fill="rgb(102,102,102)"  stroke="rgb(102,102,102)" stroke-width="1" font-size="16" >CH</text>
<text x="424.085044" y="354.712087" fill="rgb(102,102,102)"  stroke="rgb(102,102,102)" stroke-width="1" font-size="13" >3</text>
<text x="171.562737" y="302.677912" fill="rgb(102,102,102)"  stroke="rgb(102,102,102)" stroke-width="1" font-size="16" >H</text>
<text x="183.562737" y="306.357912" fill="rgb(102,102,102)"  stroke="rgb(102,102,102)" stroke-width="1" font-size="13" >3</text>
<text x="190.062737" y="302.677912" fill="rgb(102,102,102)"  stroke="rgb(102,102,102)" stroke-width="1" font-size="16" >C</text>
<text font-size="18.000000" fill ="black" font-family="sans-serif"
x="10.000000" y="20.000000" ></text>
<title> - OBDepict</title>
</svg>
