<?xml version="1.0"?>
<svg xmlns="http://www.w3.org/2000/svg"
xmlns:xlink="http://www.w3.org/1999/xlink" xmlns:cml="http://www.xml-cml.org/schema" width="330.107" height="256.934" x="0" y="0" font-family="sans-serif" stroke="rgb(0,0,0)" stroke-width="1"  stroke-linecap="round">
<rect x="0%" y="0%" width="100%" height="100%" stroke-width="0" fill="rgb(255,255,255)"  />
<line x1="170.5" y1="79.4" x2="210.1" y2="79.4" stroke="rgb(0,0,0)"  stroke-width="1.0"/>
<line x1="153.9" y1="123.3" x2="167.4" y2="146.4" stroke="rgb(0,0,0)"  stroke-width="1.0"/>
<line x1="210.1" y1="79.4" x2="230.2" y2="113.8" stroke="rgb(0,0,0)"  stroke-width="1.0"/>
<line x1="167.4" y1="146.4" x2="147.4" y2="180.7" stroke="rgb(0,0,0)"  stroke-width="1.0"/>
<line x1="147.4" y1="180.7" x2="160.9" y2="203.9" stroke="rgb(0,0,0)"  stroke-width="1.0"/>
<line x1="151.1" y1="178.6" x2="164.5" y2="201.8" stroke="rgb(0,0,0)"  stroke-width="1.0"/>
<line x1="143.8" y1="182.8" x2="157.2" y2="206.0" stroke="rgb(0,0,0)"  stroke-width="1.0"/>
<line x1="270.0" y1="182.5" x2="283.5" y2="205.7" stroke="rgb(0,0,0)"  stroke-width="1.0"/>
<line x1="170.5" y1="79.4" x2="154.9" y2="101.4" stroke="rgb(0,0,0)"  stroke-width="1.0"/>
<line x1="135.0" y1="108.1" x2="109.0" y2="99.9" stroke="rgb(0,0,0)"  stroke-width="1.0"/>
<line x1="109.0" y1="99.9" x2="108.8" y2="60.0" stroke="rgb(0,0,0)"  stroke-width="1.0"/>
<line x1="108.8" y1="60.0" x2="134.6" y2="51.3" stroke="rgb(0,0,0)"  stroke-width="1.0"/>
<line x1="154.7" y1="57.8" x2="170.5" y2="79.4" stroke="rgb(0,0,0)"  stroke-width="1.0"/>
<line x1="150.1" y1="63.7" x2="161.2" y2="78.8" stroke="rgb(0,0,0)"  stroke-width="1.0"/>
<line x1="74.3" y1="119.8" x2="109.0" y2="99.9" stroke="rgb(0,0,0)"  stroke-width="1.0"/>
<line x1="75.9" y1="110.6" x2="100.2" y2="96.6" stroke="rgb(0,0,0)"  stroke-width="1.0"/>
<line x1="108.8" y1="60.0" x2="74.3" y2="40.0" stroke="rgb(0,0,0)"  stroke-width="1.0"/>
<line x1="100.1" y1="63.2" x2="75.9" y2="49.2" stroke="rgb(0,0,0)"  stroke-width="1.0"/>
<line x1="74.3" y1="40.0" x2="40.0" y2="60.0" stroke="rgb(0,0,0)"  stroke-width="1.0"/>
<line x1="40.0" y1="60.0" x2="40.0" y2="99.9" stroke="rgb(0,0,0)"  stroke-width="1.0"/>
<line x1="47.2" y1="66.0" x2="47.2" y2="93.9" stroke="rgb(0,0,0)"  stroke-width="1.0"/>
<line x1="40.0" y1="99.9" x2="74.3" y2="119.8" stroke="rgb(0,0,0)"  stroke-width="1.0"/>
<line x1="230.2" y1="113.8" x2="207.1" y2="146.1" stroke="rgb(0,0,0)"  stroke-width="1.0"/>
<line x1="232.6" y1="122.9" x2="216.5" y2="145.4" stroke="rgb(0,0,0)"  stroke-width="1.0"/>
<line x1="207.1" y1="146.1" x2="230.2" y2="182.5" stroke="rgb(0,0,0)"  stroke-width="1.0"/>
<line x1="230.2" y1="182.5" x2="270.0" y2="182.5" stroke="rgb(0,0,0)"  stroke-width="1.0"/>
<line x1="236.2" y1="175.3" x2="264.0" y2="175.3" stroke="rgb(0,0,0)"  stroke-width="1.0"/>
<line x1="270.0" y1="182.5" x2="289.8" y2="147.8" stroke="rgb(0,0,0)"  stroke-width="1.0"/>
<line x1="289.8" y1="147.8" x2="269.8" y2="113.3" stroke="rgb(0,0,0)"  stroke-width="1.0"/>
<line x1="280.5" y1="146.2" x2="266.6" y2="122.1" stroke="rgb(0,0,0)"  stroke-width="1.0"/>
<line x1="269.8" y1="113.3" x2="230.2" y2="113.8" stroke="rgb(0,0,0)"  stroke-width="1.0"/>
<text x="141.425867" y="120.006294" fill="rgb(12,12,255)"  stroke="rgb(12,12,255)" stroke-width="1" font-size="16" >N</text>
<text x="140.924283" y="55.147577" fill="rgb(12,12,255)"  stroke="rgb(12,12,255)" stroke-width="1" font-size="16" >N</text>
<text x="161.383138" y="223.105996" fill="rgb(102,102,102)"  stroke="rgb(102,102,102)" stroke-width="1" font-size="16" >CH</text>
<text x="284.107328" y="224.933885" fill="rgb(30,239,30)"  stroke="rgb(30,239,30)" stroke-width="1" font-size="16" >Cl</text>
<text font-size="18.000000" fill ="black" font-family="sans-serif"
x="10.000000" y="20.000000" ></text>
<title> - OBDepict</title>
</svg>
