<?xml version="1.0"?>
<svg xmlns="http://www.w3.org/2000/svg"
xmlns:xlink="http://www.w3.org/1999/xlink" xmlns:cml="http://www.xml-cml.org/schema" width="497.596" height="228.677" x="0" y="0" font-family="sans-serif" stroke="rgb(0,0,0)" stroke-width="1"  stroke-linecap="round">
<rect x="0%" y="0%" width="100%" height="100%" stroke-width="0" fill="rgb(255,255,255)"  />
<line x1="184.1" y1="103.2" x2="197.6" y2="80.0" stroke="rgb(0,0,0)"  stroke-width="1.0"/>
<line x1="137.6" y1="114.4" x2="164.6" y2="114.4" stroke="rgb(0,0,0)"  stroke-width="1.0"/>
<line x1="417.6" y1="45.3" x2="377.6" y2="45.3" stroke="rgb(0,0,0)"  stroke-width="1.0"/>
<line x1="444.6" y1="45.3" x2="417.6" y2="45.3" stroke="rgb(0,0,0)"  stroke-width="1.0"/>
<line x1="444.6" y1="49.5" x2="417.6" y2="49.5" stroke="rgb(0,0,0)"  stroke-width="1.0"/>
<line x1="444.6" y1="41.1" x2="417.6" y2="41.1" stroke="rgb(0,0,0)"  stroke-width="1.0"/>
<line x1="237.6" y1="80.0" x2="197.6" y2="80.0" stroke="rgb(0,0,0)"  stroke-width="1.0"/>
<line x1="186.7" y1="55.1" x2="200.2" y2="78.5" stroke="rgb(0,0,0)"  stroke-width="1.0"/>
<line x1="181.5" y1="58.1" x2="195.0" y2="81.5" stroke="rgb(0,0,0)"  stroke-width="1.0"/>
<line x1="377.6" y1="45.3" x2="364.1" y2="68.5" stroke="rgb(0,0,0)"  stroke-width="1.0"/>
<line x1="344.6" y1="79.9" x2="317.6" y2="80.0" stroke="rgb(0,0,0)"  stroke-width="1.0"/>
<line x1="52.2" y1="158.3" x2="77.6" y2="149.1" stroke="rgb(0,0,0)"  stroke-width="1.0"/>
<line x1="82.4" y1="175.9" x2="77.6" y2="149.1" stroke="rgb(0,0,0)"  stroke-width="1.0"/>
<line x1="82.4" y1="52.8" x2="77.6" y2="80.0" stroke="rgb(0,0,0)"  stroke-width="1.0"/>
<line x1="52.2" y1="70.5" x2="77.6" y2="80.0" stroke="rgb(0,0,0)"  stroke-width="1.0"/>
<line x1="77.6" y1="149.1" x2="64.1" y2="125.7" stroke="rgb(0,0,0)"  stroke-width="1.0"/>
<line x1="64.1" y1="103.2" x2="77.6" y2="80.0" stroke="rgb(0,0,0)"  stroke-width="1.0"/>
<line x1="77.6" y1="80.0" x2="117.6" y2="80.0" stroke="rgb(0,0,0)"  stroke-width="1.0"/>
<line x1="117.6" y1="80.0" x2="137.6" y2="114.4" stroke="rgb(0,0,0)"  stroke-width="1.0"/>
<line x1="137.6" y1="114.4" x2="117.6" y2="149.1" stroke="rgb(0,0,0)"  stroke-width="1.0"/>
<line x1="117.6" y1="149.1" x2="77.6" y2="149.1" stroke="rgb(0,0,0)"  stroke-width="1.0"/>
<line x1="237.6" y1="80.0" x2="257.6" y2="114.4" stroke="rgb(0,0,0)"  stroke-width="1.0"/>
<line x1="246.8" y1="81.6" x2="260.8" y2="105.6" stroke="rgb(0,0,0)"  stroke-width="1.0"/>
<line x1="257.6" y1="114.4" x2="297.6" y2="114.4" stroke="rgb(0,0,0)"  stroke-width="1.0"/>
<line x1="297.6" y1="114.4" x2="317.6" y2="80.0" stroke="rgb(0,0,0)"  stroke-width="1.0"/>
<line x1="294.4" y1="105.6" x2="308.3" y2="81.6" stroke="rgb(0,0,0)"  stroke-width="1.0"/>
<line x1="317.6" y1="80.0" x2="297.6" y2="45.3" stroke="rgb(0,0,0)"  stroke-width="1.0"/>
<line x1="297.6" y1="45.3" x2="257.6" y2="45.3" stroke="rgb(0,0,0)"  stroke-width="1.0"/>
<line x1="291.6" y1="52.5" x2="263.6" y2="52.5" stroke="rgb(0,0,0)"  stroke-width="1.0"/>
<line x1="257.6" y1="45.3" x2="237.6" y2="80.0" stroke="rgb(0,0,0)"  stroke-width="1.0"/>
<text x="39.562677" y="122.449844" fill="rgb(12,12,255)"  stroke="rgb(12,12,255)" stroke-width="1" font-size="16" >HN</text>
<text x="171.572684" y="122.449844" fill="rgb(12,12,255)"  stroke="rgb(12,12,255)" stroke-width="1" font-size="16" >N</text>
<text x="171.572684" y="138.449844" fill="rgb(12,12,255)"  stroke="rgb(12,12,255)" stroke-width="1" font-size="16" >H</text>
<text x="451.596033" y="53.333778" fill="rgb(102,102,102)"  stroke="rgb(102,102,102)" stroke-width="1" font-size="16" >CH</text>
<text x="171.572684" y="53.333778" fill="rgb(255,12,12)"  stroke="rgb(255,12,12)" stroke-width="1" font-size="16" >O</text>
<text x="351.587694" y="87.780287" fill="rgb(255,12,12)"  stroke="rgb(255,12,12)" stroke-width="1" font-size="16" >O</text>
<text x="14.000000" y="170.676896" fill="rgb(102,102,102)"  stroke="rgb(102,102,102)" stroke-width="1" font-size="16" >H</text>
<text x="26.000000" y="174.356896" fill="rgb(102,102,102)"  stroke="rgb(102,102,102)" stroke-width="1" font-size="13" >3</text>
<text x="32.500000" y="170.676896" fill="rgb(102,102,102)"  stroke="rgb(102,102,102)" stroke-width="1" font-size="16" >C</text>
<text x="80.672816" y="196.676640" fill="rgb(102,102,102)"  stroke="rgb(102,102,102)" stroke-width="1" font-size="16" >CH</text>
<text x="104.672816" y="200.356640" fill="rgb(102,102,102)"  stroke="rgb(102,102,102)" stroke-width="1" font-size="13" >3</text>
<text x="80.672816" y="48.000000" fill="rgb(102,102,102)"  stroke="rgb(102,102,102)" stroke-width="1" font-size="16" >CH</text>
<text x="104.672816" y="51.680000" fill="rgb(102,102,102)"  stroke="rgb(102,102,102)" stroke-width="1" font-size="13" >3</text>
<text x="14.000000" y="73.999744" fill="rgb(102,102,102)"  stroke="rgb(102,102,102)" stroke-width="1" font-size="16" >H</text>
<text x="26.000000" y="77.679744" fill="rgb(102,102,102)"  stroke="rgb(102,102,102)" stroke-width="1" font-size="13" >3</text>
<text x="32.500000" y="73.999744" fill="rgb(102,102,102)"  stroke="rgb(102,102,102)" stroke-width="1" font-size="16" >C</text>
<text font-size="18.000000" fill ="black" font-family="sans-serif"
x="10.000000" y="20.000000" ></text>
<title> - OBDepict</title>
</svg>
