<?xml version="1.0"?>
<svg xmlns="http://www.w3.org/2000/svg"
xmlns:xlink="http://www.w3.org/1999/xlink" xmlns:cml="http://www.xml-cml.org/schema" width="459.466" height="293.404" x="0" y="0" font-family="sans-serif" stroke="rgb(0,0,0)" stroke-width="1"  stroke-linecap="round">
<rect x="0%" y="0%" width="100%" height="100%" stroke-width="0" fill="rgb(255,255,255)"  />
<line x1="248.1" y1="156.5" x2="224.6" y2="170.8" stroke="rgb(0,0,0)"  stroke-width="1.0"/>
<line x1="245.0" y1="151.4" x2="221.5" y2="165.7" stroke="rgb(0,0,0)"  stroke-width="1.0"/>
<line x1="383.5" y1="76.5" x2="356.0" y2="74.0" stroke="rgb(0,0,0)"  stroke-width="1.0"/>
<line x1="257.7" y1="107.6" x2="257.7" y2="134.2" stroke="rgb(0,0,0)"  stroke-width="1.0"/>
<line x1="292.2" y1="87.5" x2="257.7" y2="107.6" stroke="rgb(0,0,0)"  stroke-width="1.0"/>
<line x1="288.4" y1="221.0" x2="250.4" y2="234.0" stroke="rgb(0,0,0)"  stroke-width="1.0"/>
<line x1="313.8" y1="211.7" x2="288.4" y2="221.0" stroke="rgb(0,0,0)"  stroke-width="1.0"/>
<line x1="315.2" y1="215.7" x2="289.8" y2="225.0" stroke="rgb(0,0,0)"  stroke-width="1.0"/>
<line x1="312.4" y1="207.8" x2="286.9" y2="217.1" stroke="rgb(0,0,0)"  stroke-width="1.0"/>
<line x1="407.9" y1="102.1" x2="401.9" y2="89.4" stroke="rgb(0,0,0)"  stroke-width="1.0"/>
<line x1="414.4" y1="57.2" x2="406.3" y2="68.7" stroke="rgb(0,0,0)"  stroke-width="1.0"/>
<line x1="409.5" y1="53.8" x2="401.4" y2="65.3" stroke="rgb(0,0,0)"  stroke-width="1.0"/>
<line x1="235.8" y1="91.7" x2="259.1" y2="105.0" stroke="rgb(0,0,0)"  stroke-width="1.0"/>
<line x1="232.9" y1="97.0" x2="256.2" y2="110.2" stroke="rgb(0,0,0)"  stroke-width="1.0"/>
<line x1="250.4" y1="234.0" x2="229.3" y2="216.1" stroke="rgb(0,0,0)"  stroke-width="1.0"/>
<line x1="223.1" y1="168.2" x2="197.8" y2="157.7" stroke="rgb(0,0,0)"  stroke-width="1.0"/>
<line x1="177.4" y1="162.6" x2="160.0" y2="183.0" stroke="rgb(0,0,0)"  stroke-width="1.0"/>
<line x1="160.0" y1="183.0" x2="180.6" y2="217.0" stroke="rgb(0,0,0)"  stroke-width="1.0"/>
<line x1="169.2" y1="184.4" x2="183.6" y2="208.1" stroke="rgb(0,0,0)"  stroke-width="1.0"/>
<line x1="180.6" y1="217.0" x2="206.8" y2="210.7" stroke="rgb(0,0,0)"  stroke-width="1.0"/>
<line x1="220.6" y1="194.7" x2="223.1" y2="168.2" stroke="rgb(0,0,0)"  stroke-width="1.0"/>
<line x1="338.0" y1="93.9" x2="356.0" y2="74.0" stroke="rgb(0,0,0)"  stroke-width="1.0"/>
<line x1="356.0" y1="74.0" x2="335.3" y2="40.0" stroke="rgb(0,0,0)"  stroke-width="1.0"/>
<line x1="346.7" y1="72.6" x2="332.3" y2="48.9" stroke="rgb(0,0,0)"  stroke-width="1.0"/>
<line x1="335.3" y1="40.0" x2="296.5" y2="48.5" stroke="rgb(0,0,0)"  stroke-width="1.0"/>
<line x1="296.5" y1="48.5" x2="292.2" y2="87.5" stroke="rgb(0,0,0)"  stroke-width="1.0"/>
<line x1="303.0" y1="55.2" x2="300.0" y2="82.3" stroke="rgb(0,0,0)"  stroke-width="1.0"/>
<line x1="292.2" y1="87.5" x2="317.3" y2="98.4" stroke="rgb(0,0,0)"  stroke-width="1.0"/>
<line x1="120.1" y1="183.6" x2="100.7" y2="218.8" stroke="rgb(0,0,0)"  stroke-width="1.0"/>
<line x1="100.7" y1="218.8" x2="61.2" y2="220.0" stroke="rgb(0,0,0)"  stroke-width="1.0"/>
<line x1="94.5" y1="211.8" x2="67.0" y2="212.6" stroke="rgb(0,0,0)"  stroke-width="1.0"/>
<line x1="61.2" y1="220.0" x2="40.0" y2="185.8" stroke="rgb(0,0,0)"  stroke-width="1.0"/>
<line x1="40.0" y1="185.8" x2="58.8" y2="150.6" stroke="rgb(0,0,0)"  stroke-width="1.0"/>
<line x1="49.2" y1="183.9" x2="62.3" y2="159.3" stroke="rgb(0,0,0)"  stroke-width="1.0"/>
<line x1="58.8" y1="150.6" x2="98.9" y2="149.6" stroke="rgb(0,0,0)"  stroke-width="1.0"/>
<line x1="98.9" y1="149.6" x2="120.1" y2="183.6" stroke="rgb(0,0,0)"  stroke-width="1.0"/>
<line x1="95.9" y1="158.5" x2="110.8" y2="182.3" stroke="rgb(0,0,0)"  stroke-width="1.0"/>
<line x1="161.8" y1="252.2" x2="121.9" y2="253.4" stroke="rgb(0,0,0)"  stroke-width="1.0"/>
<line x1="155.6" y1="245.2" x2="127.7" y2="246.0" stroke="rgb(0,0,0)"  stroke-width="1.0"/>
<line x1="121.9" y1="253.4" x2="100.7" y2="218.8" stroke="rgb(0,0,0)"  stroke-width="1.0"/>
<line x1="120.1" y1="183.6" x2="160.0" y2="183.0" stroke="rgb(0,0,0)"  stroke-width="1.0"/>
<line x1="180.6" y1="217.0" x2="161.8" y2="252.2" stroke="rgb(0,0,0)"  stroke-width="1.0"/>
<text x="251.650821" y="155.207360" fill="rgb(12,12,255)"  stroke="rgb(12,12,255)" stroke-width="1" font-size="16" >N</text>
<text x="179.842255" y="160.668584" fill="rgb(178,178,0)"  stroke="rgb(178,178,0)" stroke-width="1" font-size="16" >S</text>
<text x="213.417416" y="215.687151" fill="rgb(12,12,255)"  stroke="rgb(12,12,255)" stroke-width="1" font-size="16" >N</text>
<text x="401.206545" y="73.591916" fill="rgb(12,12,255)"  stroke="rgb(12,12,255)" stroke-width="1" font-size="16" >+</text>
<text x="390.406545" y="85.623916" fill="rgb(12,12,255)"  stroke="rgb(12,12,255)" stroke-width="1" font-size="16" >N</text>
<text x="323.251387" y="111.517567" fill="rgb(255,12,12)"  stroke="rgb(255,12,12)" stroke-width="1" font-size="16" >O</text>
<text x="320.015285" y="215.285662" fill="rgb(102,102,102)"  stroke="rgb(102,102,102)" stroke-width="1" font-size="16" >CH</text>
<text x="418.194870" y="99.723363" fill="rgb(255,12,12)"  stroke="rgb(255,12,12)" stroke-width="1" font-size="16" >_</text>
<text x="407.394870" y="121.835363" fill="rgb(255,12,12)"  stroke="rgb(255,12,12)" stroke-width="1" font-size="16" >O</text>
<text x="413.465585" y="52.856571" fill="rgb(255,12,12)"  stroke="rgb(255,12,12)" stroke-width="1" font-size="16" >O</text>
<text x="217.059844" y="95.941711" fill="rgb(255,12,12)"  stroke="rgb(255,12,12)" stroke-width="1" font-size="16" >O</text>
<text font-size="18.000000" fill ="black" font-family="sans-serif"
x="10.000000" y="20.000000" ></text>
<title> - OBDepict</title>
</svg>
