<?xml version="1.0"?>
<svg xmlns="http://www.w3.org/2000/svg"
xmlns:xlink="http://www.w3.org/1999/xlink" xmlns:cml="http://www.xml-cml.org/schema" width="565.38" height="319.194" x="0" y="0" font-family="sans-serif" stroke="rgb(0,0,0)" stroke-width="1"  stroke-linecap="round">
<rect x="0%" y="0%" width="100%" height="100%" stroke-width="0" fill="rgb(255,255,255)"  />
<line x1="283.0" y1="97.2" x2="318.0" y2="117.2" stroke="rgb(0,0,0)"  stroke-width="1.0"/>
<line x1="280.0" y1="102.5" x2="315.0" y2="122.5" stroke="rgb(0,0,0)"  stroke-width="1.0"/>
<line x1="420.2" y1="100.0" x2="396.8" y2="113.4" stroke="rgb(0,0,0)"  stroke-width="1.0"/>
<line x1="247.2" y1="120.0" x2="281.5" y2="99.8" stroke="rgb(0,0,0)"  stroke-width="1.0"/>
<line x1="74.7" y1="180.5" x2="109.2" y2="160.7" stroke="rgb(0,0,0)"  stroke-width="1.0"/>
<line x1="407.4" y1="176.1" x2="384.0" y2="162.6" stroke="rgb(0,0,0)"  stroke-width="1.0"/>
<line x1="410.4" y1="170.9" x2="387.0" y2="157.4" stroke="rgb(0,0,0)"  stroke-width="1.0"/>
<line x1="51.3" y1="194.0" x2="74.7" y2="180.5" stroke="rgb(0,0,0)"  stroke-width="1.0"/>
<line x1="49.2" y1="190.4" x2="72.6" y2="176.9" stroke="rgb(0,0,0)"  stroke-width="1.0"/>
<line x1="53.4" y1="197.7" x2="76.8" y2="184.2" stroke="rgb(0,0,0)"  stroke-width="1.0"/>
<line x1="354.0" y1="72.5" x2="354.0" y2="99.5" stroke="rgb(0,0,0)"  stroke-width="1.0"/>
<line x1="348.0" y1="72.5" x2="348.0" y2="99.5" stroke="rgb(0,0,0)"  stroke-width="1.0"/>
<line x1="291.3" y1="171.0" x2="315.0" y2="157.4" stroke="rgb(0,0,0)"  stroke-width="1.0"/>
<line x1="294.3" y1="176.2" x2="318.0" y2="162.6" stroke="rgb(0,0,0)"  stroke-width="1.0"/>
<line x1="155.0" y1="107.4" x2="178.5" y2="120.7" stroke="rgb(0,0,0)"  stroke-width="1.0"/>
<line x1="155.3" y1="174.0" x2="178.5" y2="160.7" stroke="rgb(0,0,0)"  stroke-width="1.0"/>
<line x1="213.0" y1="206.9" x2="213.0" y2="180.4" stroke="rgb(0,0,0)"  stroke-width="1.0"/>
<line x1="514.0" y1="46.8" x2="490.2" y2="60.2" stroke="rgb(0,0,0)"  stroke-width="1.0"/>
<line x1="109.2" y1="160.7" x2="132.7" y2="174.1" stroke="rgb(0,0,0)"  stroke-width="1.0"/>
<line x1="247.7" y1="239.4" x2="224.3" y2="226.2" stroke="rgb(0,0,0)"  stroke-width="1.0"/>
<line x1="247.7" y1="266.2" x2="247.7" y2="239.4" stroke="rgb(0,0,0)"  stroke-width="1.0"/>
<line x1="374.3" y1="113.2" x2="351.0" y2="99.5" stroke="rgb(0,0,0)"  stroke-width="1.0"/>
<line x1="351.0" y1="99.5" x2="316.5" y2="119.8" stroke="rgb(0,0,0)"  stroke-width="1.0"/>
<line x1="316.5" y1="119.8" x2="316.5" y2="160.0" stroke="rgb(0,0,0)"  stroke-width="1.0"/>
<line x1="316.5" y1="160.0" x2="339.8" y2="173.5" stroke="rgb(0,0,0)"  stroke-width="1.0"/>
<line x1="362.3" y1="173.5" x2="385.5" y2="160.0" stroke="rgb(0,0,0)"  stroke-width="1.0"/>
<line x1="385.5" y1="160.0" x2="385.5" y2="132.8" stroke="rgb(0,0,0)"  stroke-width="1.0"/>
<line x1="178.5" y1="120.7" x2="178.5" y2="160.7" stroke="rgb(0,0,0)"  stroke-width="1.0"/>
<line x1="178.5" y1="160.7" x2="213.0" y2="180.4" stroke="rgb(0,0,0)"  stroke-width="1.0"/>
<line x1="187.3" y1="157.4" x2="211.4" y2="171.1" stroke="rgb(0,0,0)"  stroke-width="1.0"/>
<line x1="213.0" y1="180.4" x2="247.5" y2="160.4" stroke="rgb(0,0,0)"  stroke-width="1.0"/>
<line x1="247.5" y1="160.4" x2="247.2" y2="120.0" stroke="rgb(0,0,0)"  stroke-width="1.0"/>
<line x1="240.3" y1="154.4" x2="240.0" y2="126.1" stroke="rgb(0,0,0)"  stroke-width="1.0"/>
<line x1="247.2" y1="120.0" x2="212.7" y2="100.7" stroke="rgb(0,0,0)"  stroke-width="1.0"/>
<line x1="212.7" y1="100.7" x2="178.5" y2="120.7" stroke="rgb(0,0,0)"  stroke-width="1.0"/>
<line x1="211.1" y1="109.9" x2="187.3" y2="123.9" stroke="rgb(0,0,0)"  stroke-width="1.0"/>
<line x1="420.2" y1="100.0" x2="420.2" y2="60.0" stroke="rgb(0,0,0)"  stroke-width="1.0"/>
<line x1="420.2" y1="60.0" x2="455.4" y2="40.0" stroke="rgb(0,0,0)"  stroke-width="1.0"/>
<line x1="429.0" y1="63.3" x2="453.7" y2="49.2" stroke="rgb(0,0,0)"  stroke-width="1.0"/>
<line x1="455.4" y1="40.0" x2="490.2" y2="60.2" stroke="rgb(0,0,0)"  stroke-width="1.0"/>
<line x1="490.2" y1="60.2" x2="489.9" y2="100.5" stroke="rgb(0,0,0)"  stroke-width="1.0"/>
<line x1="483.0" y1="66.1" x2="482.7" y2="94.5" stroke="rgb(0,0,0)"  stroke-width="1.0"/>
<line x1="489.9" y1="100.5" x2="455.0" y2="120.0" stroke="rgb(0,0,0)"  stroke-width="1.0"/>
<line x1="455.0" y1="120.0" x2="420.2" y2="100.0" stroke="rgb(0,0,0)"  stroke-width="1.0"/>
<line x1="453.4" y1="110.8" x2="429.0" y2="96.7" stroke="rgb(0,0,0)"  stroke-width="1.0"/>
<text x="379.531490" y="127.847697" fill="rgb(12,12,255)"  stroke="rgb(12,12,255)" stroke-width="1" font-size="16" >N</text>
<text x="345.026346" y="188.013497" fill="rgb(12,12,255)"  stroke="rgb(12,12,255)" stroke-width="1" font-size="16" >N</text>
<text x="345.026346" y="204.013497" fill="rgb(12,12,255)"  stroke="rgb(12,12,255)" stroke-width="1" font-size="16" >H</text>
<text x="414.201499" y="188.013497" fill="rgb(255,12,12)"  stroke="rgb(255,12,12)" stroke-width="1" font-size="16" >O</text>
<text x="22.000000" y="208.519716" fill="rgb(102,102,102)"  stroke="rgb(102,102,102)" stroke-width="1" font-size="16" >HC</text>
<text x="345.026346" y="67.502486" fill="rgb(255,12,12)"  stroke="rgb(255,12,12)" stroke-width="1" font-size="16" >O</text>
<text x="275.521464" y="188.013497" fill="rgb(255,12,12)"  stroke="rgb(255,12,12)" stroke-width="1" font-size="16" >O</text>
<text x="125.675449" y="109.009518" fill="rgb(30,239,30)"  stroke="rgb(30,239,30)" stroke-width="1" font-size="16" >Cl</text>
<text x="138.010026" y="188.517788" fill="rgb(255,12,12)"  stroke="rgb(255,12,12)" stroke-width="1" font-size="16" >O</text>
<text x="207.015466" y="227.857338" fill="rgb(255,12,12)"  stroke="rgb(255,12,12)" stroke-width="1" font-size="16" >O</text>
<text x="519.380123" y="48.504291" fill="rgb(30,239,30)"  stroke="rgb(30,239,30)" stroke-width="1" font-size="16" >Cl</text>
<text x="243.685475" y="287.193967" fill="rgb(102,102,102)"  stroke="rgb(102,102,102)" stroke-width="1" font-size="16" >CH</text>
<text x="267.685475" y="290.873967" fill="rgb(102,102,102)"  stroke="rgb(102,102,102)" stroke-width="1" font-size="13" >3</text>
<text font-size="18.000000" fill ="black" font-family="sans-serif"
x="10.000000" y="20.000000" ></text>
<title> - OBDepict</title>
</svg>
