<?xml version="1.0"?>
<svg xmlns="http://www.w3.org/2000/svg"
xmlns:xlink="http://www.w3.org/1999/xlink" xmlns:cml="http://www.xml-cml.org/schema" width="369.752" height="269.448" x="0" y="0" font-family="sans-serif" stroke="rgb(0,0,0)" stroke-width="1"  stroke-linecap="round">
<rect x="0%" y="0%" width="100%" height="100%" stroke-width="0" fill="rgb(255,255,255)"  />
<line x1="210.8" y1="185.3" x2="180.8" y2="212.0" stroke="rgb(0,0,0)"  stroke-width="1.0"/>
<line x1="179.8" y1="214.8" x2="141.7" y2="202.0" stroke="rgb(0,0,0)"  stroke-width="1.0"/>
<line x1="181.7" y1="209.1" x2="143.6" y2="196.3" stroke="rgb(0,0,0)"  stroke-width="1.0"/>
<line x1="252.8" y1="90.8" x2="246.7" y2="117.0" stroke="rgb(0,0,0)"  stroke-width="1.0"/>
<line x1="83.8" y1="92.0" x2="67.5" y2="128.3" stroke="rgb(0,0,0)"  stroke-width="1.0"/>
<line x1="93.7" y1="66.6" x2="83.8" y2="92.0" stroke="rgb(0,0,0)"  stroke-width="1.0"/>
<line x1="97.7" y1="68.1" x2="87.7" y2="93.5" stroke="rgb(0,0,0)"  stroke-width="1.0"/>
<line x1="89.8" y1="65.1" x2="79.9" y2="90.5" stroke="rgb(0,0,0)"  stroke-width="1.0"/>
<line x1="290.9" y1="78.7" x2="252.8" y2="90.8" stroke="rgb(0,0,0)"  stroke-width="1.0"/>
<line x1="51.5" y1="204.1" x2="77.3" y2="196.1" stroke="rgb(0,0,0)"  stroke-width="1.0"/>
<line x1="53.3" y1="209.8" x2="79.0" y2="201.8" stroke="rgb(0,0,0)"  stroke-width="1.0"/>
<line x1="149.0" y1="141.1" x2="133.4" y2="162.9" stroke="rgb(0,0,0)"  stroke-width="1.0"/>
<line x1="144.1" y1="137.6" x2="128.5" y2="159.4" stroke="rgb(0,0,0)"  stroke-width="1.0"/>
<line x1="67.5" y1="128.3" x2="83.0" y2="150.5" stroke="rgb(0,0,0)"  stroke-width="1.0"/>
<line x1="308.9" y1="99.3" x2="288.9" y2="80.9" stroke="rgb(0,0,0)"  stroke-width="1.0"/>
<line x1="312.9" y1="94.9" x2="293.0" y2="76.5" stroke="rgb(0,0,0)"  stroke-width="1.0"/>
<line x1="296.6" y1="52.7" x2="290.9" y2="78.7" stroke="rgb(0,0,0)"  stroke-width="1.0"/>
<line x1="207.1" y1="145.6" x2="231.9" y2="134.8" stroke="rgb(0,0,0)"  stroke-width="1.0"/>
<line x1="252.3" y1="139.5" x2="270.3" y2="160.3" stroke="rgb(0,0,0)"  stroke-width="1.0"/>
<line x1="270.3" y1="160.3" x2="250.1" y2="194.3" stroke="rgb(0,0,0)"  stroke-width="1.0"/>
<line x1="250.1" y1="194.3" x2="210.8" y2="185.3" stroke="rgb(0,0,0)"  stroke-width="1.0"/>
<line x1="210.8" y1="185.3" x2="207.1" y2="145.6" stroke="rgb(0,0,0)"  stroke-width="1.0"/>
<line x1="217.4" y1="178.7" x2="214.8" y2="150.9" stroke="rgb(0,0,0)"  stroke-width="1.0"/>
<line x1="86.5" y1="173.5" x2="78.2" y2="199.0" stroke="rgb(0,0,0)"  stroke-width="1.0"/>
<line x1="78.2" y1="199.0" x2="99.9" y2="215.0" stroke="rgb(0,0,0)"  stroke-width="1.0"/>
<line x1="120.8" y1="215.1" x2="142.6" y2="199.1" stroke="rgb(0,0,0)"  stroke-width="1.0"/>
<line x1="142.6" y1="199.1" x2="131.0" y2="161.1" stroke="rgb(0,0,0)"  stroke-width="1.0"/>
<line x1="131.0" y1="161.1" x2="103.5" y2="161.1" stroke="rgb(0,0,0)"  stroke-width="1.0"/>
<line x1="270.3" y1="160.3" x2="310.3" y2="160.5" stroke="rgb(0,0,0)"  stroke-width="1.0"/>
<line x1="276.2" y1="167.5" x2="304.2" y2="167.6" stroke="rgb(0,0,0)"  stroke-width="1.0"/>
<line x1="310.3" y1="160.5" x2="329.8" y2="195.6" stroke="rgb(0,0,0)"  stroke-width="1.0"/>
<line x1="329.8" y1="195.6" x2="309.1" y2="229.4" stroke="rgb(0,0,0)"  stroke-width="1.0"/>
<line x1="320.5" y1="197.0" x2="306.1" y2="220.6" stroke="rgb(0,0,0)"  stroke-width="1.0"/>
<line x1="309.1" y1="229.4" x2="269.1" y2="229.4" stroke="rgb(0,0,0)"  stroke-width="1.0"/>
<line x1="269.1" y1="229.4" x2="250.1" y2="194.3" stroke="rgb(0,0,0)"  stroke-width="1.0"/>
<line x1="272.6" y1="220.7" x2="259.3" y2="196.1" stroke="rgb(0,0,0)"  stroke-width="1.0"/>
<text x="84.488513" y="169.131714" fill="rgb(12,12,255)"  stroke="rgb(12,12,255)" stroke-width="1" font-size="16" >N</text>
<text x="237.776601" y="137.639407" fill="rgb(12,12,255)"  stroke="rgb(12,12,255)" stroke-width="1" font-size="16" >N</text>
<text x="104.313591" y="230.783346" fill="rgb(178,178,0)"  stroke="rgb(178,178,0)" stroke-width="1" font-size="16" >S</text>
<text x="92.486405" y="62.497997" fill="rgb(102,102,102)"  stroke="rgb(102,102,102)" stroke-width="1" font-size="16" >CH</text>
<text x="34.000000" y="218.786507" fill="rgb(255,12,12)"  stroke="rgb(255,12,12)" stroke-width="1" font-size="16" >O</text>
<text x="148.137194" y="136.810535" fill="rgb(255,12,12)"  stroke="rgb(255,12,12)" stroke-width="1" font-size="16" >O</text>
<text x="314.425492" y="113.980188" fill="rgb(255,12,12)"  stroke="rgb(255,12,12)" stroke-width="1" font-size="16" >O</text>
<text x="293.427390" y="48.000000" fill="rgb(255,12,12)"  stroke="rgb(255,12,12)" stroke-width="1" font-size="16" >OH</text>
<text font-size="18.000000" fill ="black" font-family="sans-serif"
x="10.000000" y="20.000000" ></text>
<title> - OBDepict</title>
</svg>
