<?xml version="1.0"?>
<svg xmlns="http://www.w3.org/2000/svg"
xmlns:xlink="http://www.w3.org/1999/xlink" xmlns:cml="http://www.xml-cml.org/schema" width="253.158" height="407.364" x="0" y="0" font-family="sans-serif" stroke="rgb(0,0,0)" stroke-width="1"  stroke-linecap="round">
<rect x="0%" y="0%" width="100%" height="100%" stroke-width="0" fill="rgb(255,255,255)"  />
<line x1="84.9" y1="328.5" x2="95.3" y2="290.0" stroke="rgb(0,0,0)"  stroke-width="1.0"/>
<line x1="145.5" y1="239.7" x2="126.3" y2="219.4" stroke="rgb(0,0,0)"  stroke-width="1.0"/>
<line x1="78.1" y1="354.8" x2="84.9" y2="328.5" stroke="rgb(0,0,0)"  stroke-width="1.0"/>
<line x1="74.1" y1="353.7" x2="80.8" y2="327.4" stroke="rgb(0,0,0)"  stroke-width="1.0"/>
<line x1="82.2" y1="355.8" x2="89.0" y2="329.5" stroke="rgb(0,0,0)"  stroke-width="1.0"/>
<line x1="157.3" y1="169.7" x2="128.2" y2="176.4" stroke="rgb(0,0,0)"  stroke-width="1.0"/>
<line x1="155.9" y1="163.9" x2="126.9" y2="170.5" stroke="rgb(0,0,0)"  stroke-width="1.0"/>
<line x1="70.4" y1="248.2" x2="78.5" y2="221.9" stroke="rgb(0,0,0)"  stroke-width="1.0"/>
<line x1="95.3" y1="290.0" x2="75.6" y2="269.9" stroke="rgb(0,0,0)"  stroke-width="1.0"/>
<line x1="64.1" y1="90.3" x2="48.3" y2="109.4" stroke="rgb(0,0,0)"  stroke-width="1.0"/>
<line x1="46.9" y1="130.4" x2="61.7" y2="154.3" stroke="rgb(0,0,0)"  stroke-width="1.0"/>
<line x1="61.7" y1="154.3" x2="100.6" y2="144.1" stroke="rgb(0,0,0)"  stroke-width="1.0"/>
<line x1="65.7" y1="145.8" x2="93.0" y2="138.7" stroke="rgb(0,0,0)"  stroke-width="1.0"/>
<line x1="100.6" y1="144.1" x2="101.6" y2="104.0" stroke="rgb(0,0,0)"  stroke-width="1.0"/>
<line x1="101.6" y1="104.0" x2="64.1" y2="90.3" stroke="rgb(0,0,0)"  stroke-width="1.0"/>
<line x1="93.5" y1="108.7" x2="67.3" y2="99.1" stroke="rgb(0,0,0)"  stroke-width="1.0"/>
<line x1="64.1" y1="51.4" x2="101.6" y2="40.0" stroke="rgb(0,0,0)"  stroke-width="1.0"/>
<line x1="101.6" y1="40.0" x2="126.4" y2="72.9" stroke="rgb(0,0,0)"  stroke-width="1.0"/>
<line x1="126.4" y1="72.9" x2="101.6" y2="104.0" stroke="rgb(0,0,0)"  stroke-width="1.0"/>
<line x1="64.1" y1="90.3" x2="64.1" y2="51.4" stroke="rgb(0,0,0)"  stroke-width="1.0"/>
<line x1="61.7" y1="154.3" x2="53.6" y2="180.8" stroke="rgb(0,0,0)"  stroke-width="1.0"/>
<line x1="59.3" y1="202.7" x2="78.5" y2="221.9" stroke="rgb(0,0,0)"  stroke-width="1.0"/>
<line x1="65.7" y1="199.0" x2="79.3" y2="212.6" stroke="rgb(0,0,0)"  stroke-width="1.0"/>
<line x1="78.5" y1="221.9" x2="105.0" y2="213.8" stroke="rgb(0,0,0)"  stroke-width="1.0"/>
<line x1="120.9" y1="197.4" x2="127.6" y2="173.5" stroke="rgb(0,0,0)"  stroke-width="1.0"/>
<line x1="127.6" y1="173.5" x2="100.6" y2="144.1" stroke="rgb(0,0,0)"  stroke-width="1.0"/>
<line x1="145.5" y1="239.7" x2="135.8" y2="276.4" stroke="rgb(0,0,0)"  stroke-width="1.0"/>
<line x1="150.9" y1="247.3" x2="144.3" y2="272.4" stroke="rgb(0,0,0)"  stroke-width="1.0"/>
<line x1="135.8" y1="276.4" x2="165.3" y2="303.3" stroke="rgb(0,0,0)"  stroke-width="1.0"/>
<line x1="165.3" y1="303.3" x2="204.2" y2="291.8" stroke="rgb(0,0,0)"  stroke-width="1.0"/>
<line x1="169.0" y1="294.7" x2="196.4" y2="286.6" stroke="rgb(0,0,0)"  stroke-width="1.0"/>
<line x1="204.2" y1="291.8" x2="213.2" y2="254.8" stroke="rgb(0,0,0)"  stroke-width="1.0"/>
<line x1="213.2" y1="254.8" x2="184.4" y2="227.7" stroke="rgb(0,0,0)"  stroke-width="1.0"/>
<line x1="203.9" y1="256.0" x2="183.8" y2="237.1" stroke="rgb(0,0,0)"  stroke-width="1.0"/>
<line x1="184.4" y1="227.7" x2="145.5" y2="239.7" stroke="rgb(0,0,0)"  stroke-width="1.0"/>
<text x="111.403070" y="217.967168" fill="rgb(12,12,255)"  stroke="rgb(12,12,255)" stroke-width="1" font-size="16" >N</text>
<text x="43.776465" y="201.208204" fill="rgb(12,12,255)"  stroke="rgb(12,12,255)" stroke-width="1" font-size="16" >N</text>
<text x="34.000000" y="127.398070" fill="rgb(178,178,0)"  stroke="rgb(178,178,0)" stroke-width="1" font-size="16" >S</text>
<text x="56.912489" y="375.363902" fill="rgb(102,102,102)"  stroke="rgb(102,102,102)" stroke-width="1" font-size="16" >HC</text>
<text x="163.268212" y="171.883650" fill="rgb(255,12,12)"  stroke="rgb(255,12,12)" stroke-width="1" font-size="16" >O</text>
<text x="60.535429" y="268.636278" fill="rgb(178,178,0)"  stroke="rgb(178,178,0)" stroke-width="1" font-size="16" >S</text>
<text font-size="18.000000" fill ="black" font-family="sans-serif"
x="10.000000" y="20.000000" ></text>
<title> - OBDepict</title>
</svg>
