<?xml version="1.0"?>
<svg xmlns="http://www.w3.org/2000/svg"
xmlns:xlink="http://www.w3.org/1999/xlink" xmlns:cml="http://www.xml-cml.org/schema" width="381.788" height="360.128" x="0" y="0" font-family="sans-serif" stroke="rgb(0,0,0)" stroke-width="1"  stroke-linecap="round">
<rect x="0%" y="0%" width="100%" height="100%" stroke-width="0" fill="rgb(255,255,255)"  />
<line x1="220.0" y1="122.7" x2="179.5" y2="159.3" stroke="rgb(0,0,0)"  stroke-width="1.0"/>
<line x1="265.6" y1="131.0" x2="220.0" y2="122.7" stroke="rgb(0,0,0)"  stroke-width="1.0"/>
<line x1="289.5" y1="99.8" x2="265.6" y2="131.0" stroke="rgb(0,0,0)"  stroke-width="1.0"/>
<line x1="167.5" y1="290.1" x2="192.6" y2="260.1" stroke="rgb(0,0,0)"  stroke-width="1.0"/>
<line x1="150.4" y1="310.2" x2="167.5" y2="290.1" stroke="rgb(0,0,0)"  stroke-width="1.0"/>
<line x1="147.2" y1="307.5" x2="164.3" y2="287.4" stroke="rgb(0,0,0)"  stroke-width="1.0"/>
<line x1="153.6" y1="312.9" x2="170.7" y2="292.9" stroke="rgb(0,0,0)"  stroke-width="1.0"/>
<line x1="226.3" y1="194.5" x2="201.6" y2="192.5" stroke="rgb(0,0,0)"  stroke-width="1.0"/>
<line x1="226.8" y1="188.6" x2="202.1" y2="186.5" stroke="rgb(0,0,0)"  stroke-width="1.0"/>
<line x1="192.6" y1="260.1" x2="183.9" y2="235.6" stroke="rgb(0,0,0)"  stroke-width="1.0"/>
<line x1="166.3" y1="129.7" x2="179.5" y2="159.3" stroke="rgb(0,0,0)"  stroke-width="1.0"/>
<line x1="270.5" y1="148.2" x2="262.9" y2="132.3" stroke="rgb(0,0,0)"  stroke-width="1.0"/>
<line x1="275.9" y1="145.6" x2="268.3" y2="129.7" stroke="rgb(0,0,0)"  stroke-width="1.0"/>
<line x1="51.3" y1="158.6" x2="74.2" y2="171.8" stroke="rgb(0,0,0)"  stroke-width="1.0"/>
<line x1="201.8" y1="189.5" x2="186.6" y2="212.5" stroke="rgb(0,0,0)"  stroke-width="1.0"/>
<line x1="167.1" y1="219.2" x2="142.3" y2="211.0" stroke="rgb(0,0,0)"  stroke-width="1.0"/>
<line x1="142.3" y1="211.0" x2="142.3" y2="171.8" stroke="rgb(0,0,0)"  stroke-width="1.0"/>
<line x1="149.5" y1="205.0" x2="149.5" y2="177.8" stroke="rgb(0,0,0)"  stroke-width="1.0"/>
<line x1="142.3" y1="171.8" x2="179.5" y2="159.3" stroke="rgb(0,0,0)"  stroke-width="1.0"/>
<line x1="179.5" y1="159.3" x2="201.8" y2="189.5" stroke="rgb(0,0,0)"  stroke-width="1.0"/>
<line x1="289.5" y1="99.8" x2="315.8" y2="100.7" stroke="rgb(0,0,0)"  stroke-width="1.0"/>
<line x1="333.1" y1="88.9" x2="341.8" y2="63.8" stroke="rgb(0,0,0)"  stroke-width="1.0"/>
<line x1="341.8" y1="63.8" x2="311.1" y2="40.0" stroke="rgb(0,0,0)"  stroke-width="1.0"/>
<line x1="332.6" y1="65.8" x2="311.4" y2="49.4" stroke="rgb(0,0,0)"  stroke-width="1.0"/>
<line x1="311.1" y1="40.0" x2="278.3" y2="62.3" stroke="rgb(0,0,0)"  stroke-width="1.0"/>
<line x1="278.3" y1="62.3" x2="289.5" y2="99.8" stroke="rgb(0,0,0)"  stroke-width="1.0"/>
<line x1="286.9" y1="66.0" x2="294.7" y2="92.0" stroke="rgb(0,0,0)"  stroke-width="1.0"/>
<line x1="142.3" y1="211.0" x2="108.0" y2="230.6" stroke="rgb(0,0,0)"  stroke-width="1.0"/>
<line x1="108.0" y1="230.6" x2="74.2" y2="211.0" stroke="rgb(0,0,0)"  stroke-width="1.0"/>
<line x1="106.4" y1="221.4" x2="83.0" y2="207.8" stroke="rgb(0,0,0)"  stroke-width="1.0"/>
<line x1="74.2" y1="211.0" x2="74.2" y2="171.8" stroke="rgb(0,0,0)"  stroke-width="1.0"/>
<line x1="74.2" y1="171.8" x2="108.0" y2="152.0" stroke="rgb(0,0,0)"  stroke-width="1.0"/>
<line x1="83.0" y1="175.0" x2="106.5" y2="161.2" stroke="rgb(0,0,0)"  stroke-width="1.0"/>
<line x1="108.0" y1="152.0" x2="142.3" y2="171.8" stroke="rgb(0,0,0)"  stroke-width="1.0"/>
<text x="173.481950" y="231.309492" fill="rgb(12,12,255)"  stroke="rgb(12,12,255)" stroke-width="1" font-size="16" >N</text>
<text x="322.793133" y="109.157032" fill="rgb(178,178,0)"  stroke="rgb(178,178,0)" stroke-width="1" font-size="16" >S</text>
<text x="123.985422" y="328.128388" fill="rgb(102,102,102)"  stroke="rgb(102,102,102)" stroke-width="1" font-size="16" >HC</text>
<text x="233.474493" y="200.647799" fill="rgb(255,12,12)"  stroke="rgb(255,12,12)" stroke-width="1" font-size="16" >O</text>
<text x="142.983219" y="125.825852" fill="rgb(255,12,12)"  stroke="rgb(255,12,12)" stroke-width="1" font-size="16" >HO</text>
<text x="272.796178" y="166.649489" fill="rgb(255,12,12)"  stroke="rgb(255,12,12)" stroke-width="1" font-size="16" >O</text>
<text x="22.000000" y="160.152119" fill="rgb(165,40,40)"  stroke="rgb(165,40,40)" stroke-width="1" font-size="16" >Br</text>
<text font-size="18.000000" fill ="black" font-family="sans-serif"
x="10.000000" y="20.000000" ></text>
<title> - OBDepict</title>
</svg>
