<?xml version="1.0"?>
<svg xmlns="http://www.w3.org/2000/svg"
xmlns:xlink="http://www.w3.org/1999/xlink" xmlns:cml="http://www.xml-cml.org/schema" width="620.397" height="283.558" x="0" y="0" font-family="sans-serif" stroke="rgb(0,0,0)" stroke-width="1"  stroke-linecap="round">
<rect x="0%" y="0%" width="100%" height="100%" stroke-width="0" fill="rgb(255,255,255)"  />
<line x1="446.8" y1="80.0" x2="419.9" y2="80.0" stroke="rgb(0,0,0)"  stroke-width="1.0"/>
<line x1="266.7" y1="117.2" x2="239.7" y2="116.9" stroke="rgb(0,0,0)"  stroke-width="1.0"/>
<line x1="266.7" y1="111.2" x2="239.7" y2="110.9" stroke="rgb(0,0,0)"  stroke-width="1.0"/>
<line x1="85.2" y1="80.2" x2="109.1" y2="93.9" stroke="rgb(0,0,0)"  stroke-width="1.0"/>
<line x1="487.2" y1="80.0" x2="472.8" y2="80.0" stroke="rgb(0,0,0)"  stroke-width="1.0"/>
<line x1="299.7" y1="79.8" x2="286.2" y2="103.1" stroke="rgb(0,0,0)"  stroke-width="1.0"/>
<line x1="201.8" y1="213.9" x2="228.4" y2="184.2" stroke="rgb(0,0,0)"  stroke-width="1.0"/>
<line x1="456.8" y1="107.4" x2="456.8" y2="93.0" stroke="rgb(0,0,0)"  stroke-width="1.0"/>
<line x1="462.8" y1="107.4" x2="462.8" y2="93.0" stroke="rgb(0,0,0)"  stroke-width="1.0"/>
<line x1="463.1" y1="53.0" x2="463.0" y2="67.0" stroke="rgb(0,0,0)"  stroke-width="1.0"/>
<line x1="457.1" y1="53.0" x2="457.0" y2="67.0" stroke="rgb(0,0,0)"  stroke-width="1.0"/>
<line x1="183.8" y1="233.9" x2="201.8" y2="213.9" stroke="rgb(0,0,0)"  stroke-width="1.0"/>
<line x1="180.7" y1="231.1" x2="198.6" y2="211.1" stroke="rgb(0,0,0)"  stroke-width="1.0"/>
<line x1="186.9" y1="236.7" x2="204.9" y2="216.7" stroke="rgb(0,0,0)"  stroke-width="1.0"/>
<line x1="57.0" y1="95.2" x2="64.5" y2="83.2" stroke="rgb(0,0,0)"  stroke-width="1.0"/>
<line x1="62.1" y1="98.4" x2="69.6" y2="86.3" stroke="rgb(0,0,0)"  stroke-width="1.0"/>
<line x1="90.8" y1="52.6" x2="83.4" y2="64.3" stroke="rgb(0,0,0)"  stroke-width="1.0"/>
<line x1="85.7" y1="49.4" x2="78.3" y2="61.1" stroke="rgb(0,0,0)"  stroke-width="1.0"/>
<line x1="339.7" y1="79.8" x2="299.7" y2="79.8" stroke="rgb(0,0,0)"  stroke-width="1.0"/>
<line x1="51.1" y1="59.6" x2="62.9" y2="66.9" stroke="rgb(0,0,0)"  stroke-width="1.0"/>
<line x1="288.8" y1="55.0" x2="302.3" y2="78.3" stroke="rgb(0,0,0)"  stroke-width="1.0"/>
<line x1="283.6" y1="58.0" x2="297.1" y2="81.3" stroke="rgb(0,0,0)"  stroke-width="1.0"/>
<line x1="228.4" y1="184.2" x2="220.2" y2="158.4" stroke="rgb(0,0,0)"  stroke-width="1.0"/>
<line x1="239.7" y1="113.9" x2="223.9" y2="92.1" stroke="rgb(0,0,0)"  stroke-width="1.0"/>
<line x1="203.9" y1="85.6" x2="178.1" y2="93.9" stroke="rgb(0,0,0)"  stroke-width="1.0"/>
<line x1="178.1" y1="93.9" x2="178.1" y2="133.9" stroke="rgb(0,0,0)"  stroke-width="1.0"/>
<line x1="185.3" y1="99.9" x2="185.3" y2="127.9" stroke="rgb(0,0,0)"  stroke-width="1.0"/>
<line x1="178.1" y1="133.9" x2="203.9" y2="142.1" stroke="rgb(0,0,0)"  stroke-width="1.0"/>
<line x1="224.0" y1="135.5" x2="239.7" y2="113.9" stroke="rgb(0,0,0)"  stroke-width="1.0"/>
<line x1="339.7" y1="79.8" x2="359.7" y2="114.5" stroke="rgb(0,0,0)"  stroke-width="1.0"/>
<line x1="348.9" y1="81.4" x2="362.9" y2="105.7" stroke="rgb(0,0,0)"  stroke-width="1.0"/>
<line x1="359.7" y1="114.5" x2="399.3" y2="114.5" stroke="rgb(0,0,0)"  stroke-width="1.0"/>
<line x1="399.3" y1="114.5" x2="419.9" y2="80.0" stroke="rgb(0,0,0)"  stroke-width="1.0"/>
<line x1="396.1" y1="105.7" x2="410.6" y2="81.4" stroke="rgb(0,0,0)"  stroke-width="1.0"/>
<line x1="419.9" y1="80.0" x2="399.9" y2="45.2" stroke="rgb(0,0,0)"  stroke-width="1.0"/>
<line x1="399.9" y1="45.2" x2="359.9" y2="45.2" stroke="rgb(0,0,0)"  stroke-width="1.0"/>
<line x1="393.9" y1="52.4" x2="365.9" y2="52.4" stroke="rgb(0,0,0)"  stroke-width="1.0"/>
<line x1="359.9" y1="45.2" x2="339.7" y2="79.8" stroke="rgb(0,0,0)"  stroke-width="1.0"/>
<line x1="506.8" y1="68.8" x2="520.4" y2="45.5" stroke="rgb(0,0,0)"  stroke-width="1.0"/>
<line x1="520.4" y1="45.5" x2="560.4" y2="45.5" stroke="rgb(0,0,0)"  stroke-width="1.0"/>
<line x1="560.4" y1="45.5" x2="573.9" y2="68.7" stroke="rgb(0,0,0)"  stroke-width="1.0"/>
<line x1="573.9" y1="91.2" x2="560.4" y2="114.5" stroke="rgb(0,0,0)"  stroke-width="1.0"/>
<line x1="560.4" y1="114.5" x2="520.2" y2="114.5" stroke="rgb(0,0,0)"  stroke-width="1.0"/>
<line x1="520.2" y1="114.5" x2="506.7" y2="91.2" stroke="rgb(0,0,0)"  stroke-width="1.0"/>
<line x1="109.1" y1="93.9" x2="143.6" y2="73.9" stroke="rgb(0,0,0)"  stroke-width="1.0"/>
<line x1="117.9" y1="97.1" x2="142.0" y2="83.2" stroke="rgb(0,0,0)"  stroke-width="1.0"/>
<line x1="143.6" y1="73.9" x2="178.1" y2="93.9" stroke="rgb(0,0,0)"  stroke-width="1.0"/>
<line x1="178.1" y1="133.9" x2="143.6" y2="153.9" stroke="rgb(0,0,0)"  stroke-width="1.0"/>
<line x1="143.6" y1="153.9" x2="109.1" y2="133.9" stroke="rgb(0,0,0)"  stroke-width="1.0"/>
<line x1="142.0" y1="144.7" x2="117.9" y2="130.7" stroke="rgb(0,0,0)"  stroke-width="1.0"/>
<line x1="109.1" y1="133.9" x2="109.1" y2="93.9" stroke="rgb(0,0,0)"  stroke-width="1.0"/>
<text x="453.837357" y="87.984510" fill="rgb(178,178,0)"  stroke="rgb(178,178,0)" stroke-width="1" font-size="16" >S</text>
<text x="273.703504" y="122.313030" fill="rgb(12,12,255)"  stroke="rgb(12,12,255)" stroke-width="1" font-size="16" >N</text>
<text x="67.926251" y="81.722694" fill="rgb(178,178,0)"  stroke="rgb(178,178,0)" stroke-width="1" font-size="16" >S</text>
<text x="210.295341" y="154.019535" fill="rgb(12,12,255)"  stroke="rgb(12,12,255)" stroke-width="1" font-size="16" >N</text>
<text x="210.295341" y="89.598430" fill="rgb(178,178,0)"  stroke="rgb(178,178,0)" stroke-width="1" font-size="16" >S</text>
<text x="494.224136" y="87.984510" fill="rgb(12,12,255)"  stroke="rgb(12,12,255)" stroke-width="1" font-size="16" >N</text>
<text x="453.837357" y="128.371289" fill="rgb(255,12,12)"  stroke="rgb(255,12,12)" stroke-width="1" font-size="16" >O</text>
<text x="454.239626" y="48.000000" fill="rgb(255,12,12)"  stroke="rgb(255,12,12)" stroke-width="1" font-size="16" >O</text>
<text x="157.099179" y="251.557507" fill="rgb(102,102,102)"  stroke="rgb(102,102,102)" stroke-width="1" font-size="16" >HC</text>
<text x="46.722344" y="115.852502" fill="rgb(255,12,12)"  stroke="rgb(255,12,12)" stroke-width="1" font-size="16" >O</text>
<text x="89.130158" y="48.000000" fill="rgb(255,12,12)"  stroke="rgb(255,12,12)" stroke-width="1" font-size="16" >O</text>
<text x="14.000000" y="60.722344" fill="rgb(12,12,255)"  stroke="rgb(12,12,255)" stroke-width="1" font-size="16" >H</text>
<text x="26.000000" y="64.402344" fill="rgb(12,12,255)"  stroke="rgb(12,12,255)" stroke-width="1" font-size="13" >2</text>
<text x="32.500000" y="60.722344" fill="rgb(12,12,255)"  stroke="rgb(12,12,255)" stroke-width="1" font-size="16" >N</text>
<text x="273.703504" y="53.248876" fill="rgb(255,12,12)"  stroke="rgb(255,12,12)" stroke-width="1" font-size="16" >O</text>
<text x="574.396714" y="87.984510" fill="rgb(255,12,12)"  stroke="rgb(255,12,12)" stroke-width="1" font-size="16" >O</text>
<text font-size="18.000000" fill ="black" font-family="sans-serif"
x="10.000000" y="20.000000" ></text>
<title> - OBDepict</title>
</svg>
