<?xml version="1.0"?>
<svg xmlns="http://www.w3.org/2000/svg"
xmlns:xlink="http://www.w3.org/1999/xlink" xmlns:cml="http://www.xml-cml.org/schema" width="254.025" height="393.727" x="0" y="0" font-family="sans-serif" stroke="rgb(0,0,0)" stroke-width="1"  stroke-linecap="round">
<rect x="0%" y="0%" width="100%" height="100%" stroke-width="0" fill="rgb(255,255,255)"  />
<line x1="141.2" y1="173.7" x2="140.8" y2="133.7" stroke="rgb(0,0,0)"  stroke-width="1.0"/>
<line x1="147.2" y1="173.6" x2="146.8" y2="133.6" stroke="rgb(0,0,0)"  stroke-width="1.0"/>
<line x1="109.6" y1="193.8" x2="144.2" y2="173.6" stroke="rgb(0,0,0)"  stroke-width="1.0"/>
<line x1="178.9" y1="313.8" x2="144.4" y2="293.8" stroke="rgb(0,0,0)"  stroke-width="1.0"/>
<line x1="178.9" y1="340.7" x2="178.9" y2="313.8" stroke="rgb(0,0,0)"  stroke-width="1.0"/>
<line x1="174.7" y1="340.7" x2="174.7" y2="313.8" stroke="rgb(0,0,0)"  stroke-width="1.0"/>
<line x1="183.1" y1="340.7" x2="183.1" y2="313.8" stroke="rgb(0,0,0)"  stroke-width="1.0"/>
<line x1="110.3" y1="48.7" x2="126.2" y2="70.3" stroke="rgb(0,0,0)"  stroke-width="1.0"/>
<line x1="105.5" y1="52.2" x2="121.4" y2="73.9" stroke="rgb(0,0,0)"  stroke-width="1.0"/>
<line x1="200.7" y1="121.3" x2="175.4" y2="113.1" stroke="rgb(0,0,0)"  stroke-width="1.0"/>
<line x1="202.6" y1="115.5" x2="177.2" y2="107.4" stroke="rgb(0,0,0)"  stroke-width="1.0"/>
<line x1="133.1" y1="247.3" x2="109.6" y2="233.8" stroke="rgb(0,0,0)"  stroke-width="1.0"/>
<line x1="74.7" y1="281.2" x2="74.7" y2="253.8" stroke="rgb(0,0,0)"  stroke-width="1.0"/>
<line x1="144.4" y1="293.8" x2="144.4" y2="266.8" stroke="rgb(0,0,0)"  stroke-width="1.0"/>
<line x1="51.3" y1="307.4" x2="63.4" y2="300.6" stroke="rgb(0,0,0)"  stroke-width="1.0"/>
<line x1="167.8" y1="84.5" x2="176.3" y2="110.3" stroke="rgb(0,0,0)"  stroke-width="1.0"/>
<line x1="176.3" y1="110.3" x2="143.8" y2="133.7" stroke="rgb(0,0,0)"  stroke-width="1.0"/>
<line x1="143.8" y1="133.7" x2="122.0" y2="117.9" stroke="rgb(0,0,0)"  stroke-width="1.0"/>
<line x1="115.5" y1="97.9" x2="123.8" y2="72.1" stroke="rgb(0,0,0)"  stroke-width="1.0"/>
<line x1="123.8" y1="72.1" x2="150.8" y2="72.1" stroke="rgb(0,0,0)"  stroke-width="1.0"/>
<line x1="109.6" y1="193.8" x2="109.6" y2="233.8" stroke="rgb(0,0,0)"  stroke-width="1.0"/>
<line x1="109.6" y1="233.8" x2="74.7" y2="253.8" stroke="rgb(0,0,0)"  stroke-width="1.0"/>
<line x1="100.9" y1="230.5" x2="76.4" y2="244.6" stroke="rgb(0,0,0)"  stroke-width="1.0"/>
<line x1="74.7" y1="253.8" x2="40.2" y2="233.8" stroke="rgb(0,0,0)"  stroke-width="1.0"/>
<line x1="40.2" y1="233.8" x2="40.2" y2="193.8" stroke="rgb(0,0,0)"  stroke-width="1.0"/>
<line x1="47.4" y1="227.8" x2="47.4" y2="199.8" stroke="rgb(0,0,0)"  stroke-width="1.0"/>
<line x1="40.2" y1="193.8" x2="74.7" y2="173.8" stroke="rgb(0,0,0)"  stroke-width="1.0"/>
<line x1="74.7" y1="173.8" x2="109.6" y2="193.8" stroke="rgb(0,0,0)"  stroke-width="1.0"/>
<line x1="76.4" y1="183.1" x2="100.9" y2="197.1" stroke="rgb(0,0,0)"  stroke-width="1.0"/>
<text x="157.756251" y="80.099490" fill="rgb(12,12,255)"  stroke="rgb(12,12,255)" stroke-width="1" font-size="16" >N</text>
<text x="157.756251" y="64.099490" fill="rgb(12,12,255)"  stroke="rgb(12,12,255)" stroke-width="1" font-size="16" >H</text>
<text x="105.466788" y="118.255487" fill="rgb(178,178,0)"  stroke="rgb(178,178,0)" stroke-width="1" font-size="16" >S</text>
<text x="172.897520" y="361.727086" fill="rgb(102,102,102)"  stroke="rgb(102,102,102)" stroke-width="1" font-size="16" >CH</text>
<text x="94.162923" y="48.000000" fill="rgb(178,178,0)"  stroke="rgb(178,178,0)" stroke-width="1" font-size="16" >S</text>
<text x="208.025263" y="130.368501" fill="rgb(255,12,12)"  stroke="rgb(255,12,12)" stroke-width="1" font-size="16" >O</text>
<text x="138.375427" y="261.794713" fill="rgb(255,12,12)"  stroke="rgb(255,12,12)" stroke-width="1" font-size="16" >O</text>
<text x="68.725591" y="302.169815" fill="rgb(255,12,12)"  stroke="rgb(255,12,12)" stroke-width="1" font-size="16" >O</text>
<text x="14.000000" y="321.754137" fill="rgb(102,102,102)"  stroke="rgb(102,102,102)" stroke-width="1" font-size="16" >H</text>
<text x="26.000000" y="325.434137" fill="rgb(102,102,102)"  stroke="rgb(102,102,102)" stroke-width="1" font-size="13" >3</text>
<text x="32.500000" y="321.754137" fill="rgb(102,102,102)"  stroke="rgb(102,102,102)" stroke-width="1" font-size="16" >C</text>
<text font-size="18.000000" fill ="black" font-family="sans-serif"
x="10.000000" y="20.000000" ></text>
<title> - OBDepict</title>
</svg>
