<?xml version="1.0"?>
<svg xmlns="http://www.w3.org/2000/svg"
xmlns:xlink="http://www.w3.org/1999/xlink" xmlns:cml="http://www.xml-cml.org/schema" width="197.331" height="470.355" x="0" y="0" font-family="sans-serif" stroke="rgb(0,0,0)" stroke-width="1"  stroke-linecap="round">
<rect x="0%" y="0%" width="100%" height="100%" stroke-width="0" fill="rgb(255,255,255)"  />
<line x1="91.5" y1="256.9" x2="103.8" y2="218.9" stroke="rgb(0,0,0)"  stroke-width="1.0"/>
<line x1="120.4" y1="392.4" x2="132.7" y2="354.2" stroke="rgb(0,0,0)"  stroke-width="1.0"/>
<line x1="118.4" y1="286.6" x2="91.5" y2="256.9" stroke="rgb(0,0,0)"  stroke-width="1.0"/>
<line x1="112.1" y1="418.0" x2="120.4" y2="392.4" stroke="rgb(0,0,0)"  stroke-width="1.0"/>
<line x1="108.1" y1="416.7" x2="116.4" y2="391.1" stroke="rgb(0,0,0)"  stroke-width="1.0"/>
<line x1="116.1" y1="419.3" x2="124.4" y2="393.7" stroke="rgb(0,0,0)"  stroke-width="1.0"/>
<line x1="91.5" y1="116.1" x2="103.8" y2="154.1" stroke="rgb(0,0,0)"  stroke-width="1.0"/>
<line x1="145.2" y1="283.9" x2="119.0" y2="289.5" stroke="rgb(0,0,0)"  stroke-width="1.0"/>
<line x1="144.0" y1="278.1" x2="117.7" y2="283.6" stroke="rgb(0,0,0)"  stroke-width="1.0"/>
<line x1="110.0" y1="312.2" x2="118.4" y2="286.6" stroke="rgb(0,0,0)"  stroke-width="1.0"/>
<line x1="132.7" y1="354.2" x2="114.7" y2="334.2" stroke="rgb(0,0,0)"  stroke-width="1.0"/>
<line x1="88.1" y1="175.7" x2="103.8" y2="154.1" stroke="rgb(0,0,0)"  stroke-width="1.0"/>
<line x1="95.1" y1="178.3" x2="106.1" y2="163.2" stroke="rgb(0,0,0)"  stroke-width="1.0"/>
<line x1="103.8" y1="154.1" x2="129.6" y2="162.4" stroke="rgb(0,0,0)"  stroke-width="1.0"/>
<line x1="142.0" y1="179.4" x2="142.0" y2="206.4" stroke="rgb(0,0,0)"  stroke-width="1.0"/>
<line x1="142.0" y1="206.4" x2="103.8" y2="218.9" stroke="rgb(0,0,0)"  stroke-width="1.0"/>
<line x1="134.0" y1="201.4" x2="107.3" y2="210.2" stroke="rgb(0,0,0)"  stroke-width="1.0"/>
<line x1="103.8" y1="218.9" x2="88.0" y2="197.0" stroke="rgb(0,0,0)"  stroke-width="1.0"/>
<line x1="91.5" y1="116.1" x2="118.4" y2="86.4" stroke="rgb(0,0,0)"  stroke-width="1.0"/>
<line x1="118.4" y1="86.4" x2="106.0" y2="48.3" stroke="rgb(0,0,0)"  stroke-width="1.0"/>
<line x1="109.7" y1="82.9" x2="101.0" y2="56.2" stroke="rgb(0,0,0)"  stroke-width="1.0"/>
<line x1="106.0" y1="48.3" x2="66.9" y2="40.0" stroke="rgb(0,0,0)"  stroke-width="1.0"/>
<line x1="66.9" y1="40.0" x2="40.0" y2="69.7" stroke="rgb(0,0,0)"  stroke-width="1.0"/>
<line x1="68.2" y1="49.3" x2="49.4" y2="70.1" stroke="rgb(0,0,0)"  stroke-width="1.0"/>
<line x1="40.0" y1="69.7" x2="52.5" y2="107.9" stroke="rgb(0,0,0)"  stroke-width="1.0"/>
<line x1="52.5" y1="107.9" x2="91.5" y2="116.1" stroke="rgb(0,0,0)"  stroke-width="1.0"/>
<line x1="59.9" y1="102.1" x2="87.1" y2="107.8" stroke="rgb(0,0,0)"  stroke-width="1.0"/>
<text x="74.389787" y="194.410553" fill="rgb(12,12,255)"  stroke="rgb(12,12,255)" stroke-width="1" font-size="16" >N</text>
<text x="135.978875" y="174.419452" fill="rgb(178,178,0)"  stroke="rgb(178,178,0)" stroke-width="1" font-size="16" >S</text>
<text x="90.052230" y="438.355358" fill="rgb(102,102,102)"  stroke="rgb(102,102,102)" stroke-width="1" font-size="16" >HC</text>
<text x="151.331265" y="286.291981" fill="rgb(255,12,12)"  stroke="rgb(255,12,12)" stroke-width="1" font-size="16" >O</text>
<text x="88.038564" y="332.538385" fill="rgb(12,12,255)"  stroke="rgb(12,12,255)" stroke-width="1" font-size="16" >HN</text>
<text font-size="18.000000" fill ="black" font-family="sans-serif"
x="10.000000" y="20.000000" ></text>
<title> - OBDepict</title>
</svg>
