<?xml version="1.0"?>
<svg xmlns="http://www.w3.org/2000/svg"
xmlns:xlink="http://www.w3.org/1999/xlink" xmlns:cml="http://www.xml-cml.org/schema" width="322.601" height="390.556" x="0" y="0" font-family="sans-serif" stroke="rgb(0,0,0)" stroke-width="1"  stroke-linecap="round">
<rect x="0%" y="0%" width="100%" height="100%" stroke-width="0" fill="rgb(255,255,255)"  />
<line x1="178.6" y1="249.7" x2="202.3" y2="263.6" stroke="rgb(0,0,0)"  stroke-width="1.0"/>
<line x1="191.9" y1="146.7" x2="210.0" y2="111.0" stroke="rgb(0,0,0)"  stroke-width="1.0"/>
<line x1="213.4" y1="283.2" x2="213.1" y2="310.1" stroke="rgb(0,0,0)"  stroke-width="1.0"/>
<line x1="213.1" y1="310.1" x2="247.5" y2="330.2" stroke="rgb(0,0,0)"  stroke-width="1.0"/>
<line x1="247.5" y1="330.2" x2="271.4" y2="344.0" stroke="rgb(0,0,0)"  stroke-width="1.0"/>
<line x1="249.6" y1="326.6" x2="273.5" y2="340.4" stroke="rgb(0,0,0)"  stroke-width="1.0"/>
<line x1="245.4" y1="333.8" x2="269.3" y2="347.7" stroke="rgb(0,0,0)"  stroke-width="1.0"/>
<line x1="143.9" y1="189.8" x2="167.3" y2="203.2" stroke="rgb(0,0,0)"  stroke-width="1.0"/>
<line x1="188.3" y1="200.9" x2="198.6" y2="191.6" stroke="rgb(0,0,0)"  stroke-width="1.0"/>
<line x1="202.9" y1="171.0" x2="191.9" y2="146.7" stroke="rgb(0,0,0)"  stroke-width="1.0"/>
<line x1="195.5" y1="172.1" x2="187.8" y2="155.1" stroke="rgb(0,0,0)"  stroke-width="1.0"/>
<line x1="191.9" y1="146.7" x2="165.3" y2="149.4" stroke="rgb(0,0,0)"  stroke-width="1.0"/>
<line x1="149.6" y1="163.6" x2="143.9" y2="189.8" stroke="rgb(0,0,0)"  stroke-width="1.0"/>
<line x1="156.2" y1="167.1" x2="152.2" y2="185.4" stroke="rgb(0,0,0)"  stroke-width="1.0"/>
<line x1="143.9" y1="189.8" x2="109.3" y2="209.6" stroke="rgb(0,0,0)"  stroke-width="1.0"/>
<line x1="109.3" y1="209.6" x2="109.3" y2="249.7" stroke="rgb(0,0,0)"  stroke-width="1.0"/>
<line x1="109.3" y1="249.7" x2="132.6" y2="263.1" stroke="rgb(0,0,0)"  stroke-width="1.0"/>
<line x1="155.3" y1="263.0" x2="178.6" y2="249.7" stroke="rgb(0,0,0)"  stroke-width="1.0"/>
<line x1="153.5" y1="255.8" x2="169.8" y2="246.4" stroke="rgb(0,0,0)"  stroke-width="1.0"/>
<line x1="178.6" y1="249.7" x2="178.6" y2="222.6" stroke="rgb(0,0,0)"  stroke-width="1.0"/>
<line x1="74.9" y1="269.6" x2="109.3" y2="249.7" stroke="rgb(0,0,0)"  stroke-width="1.0"/>
<line x1="76.5" y1="260.3" x2="100.5" y2="246.5" stroke="rgb(0,0,0)"  stroke-width="1.0"/>
<line x1="109.3" y1="209.6" x2="74.9" y2="189.8" stroke="rgb(0,0,0)"  stroke-width="1.0"/>
<line x1="100.5" y1="212.9" x2="76.5" y2="199.0" stroke="rgb(0,0,0)"  stroke-width="1.0"/>
<line x1="74.9" y1="189.8" x2="40.0" y2="209.6" stroke="rgb(0,0,0)"  stroke-width="1.0"/>
<line x1="40.0" y1="209.6" x2="40.0" y2="249.7" stroke="rgb(0,0,0)"  stroke-width="1.0"/>
<line x1="47.2" y1="215.6" x2="47.2" y2="243.7" stroke="rgb(0,0,0)"  stroke-width="1.0"/>
<line x1="40.0" y1="249.7" x2="74.9" y2="269.6" stroke="rgb(0,0,0)"  stroke-width="1.0"/>
<line x1="210.0" y1="111.0" x2="188.3" y2="77.7" stroke="rgb(0,0,0)"  stroke-width="1.0"/>
<line x1="188.3" y1="77.7" x2="206.8" y2="42.0" stroke="rgb(0,0,0)"  stroke-width="1.0"/>
<line x1="197.4" y1="75.7" x2="210.4" y2="50.6" stroke="rgb(0,0,0)"  stroke-width="1.0"/>
<line x1="206.8" y1="42.0" x2="246.7" y2="40.0" stroke="rgb(0,0,0)"  stroke-width="1.0"/>
<line x1="246.7" y1="40.0" x2="268.6" y2="73.6" stroke="rgb(0,0,0)"  stroke-width="1.0"/>
<line x1="243.9" y1="49.0" x2="259.3" y2="72.5" stroke="rgb(0,0,0)"  stroke-width="1.0"/>
<line x1="268.6" y1="73.6" x2="250.0" y2="109.0" stroke="rgb(0,0,0)"  stroke-width="1.0"/>
<line x1="250.0" y1="109.0" x2="210.0" y2="111.0" stroke="rgb(0,0,0)"  stroke-width="1.0"/>
<line x1="243.7" y1="102.1" x2="215.6" y2="103.5" stroke="rgb(0,0,0)"  stroke-width="1.0"/>
<text x="172.583902" y="217.638534" fill="rgb(12,12,255)"  stroke="rgb(12,12,255)" stroke-width="1" font-size="16" >N</text>
<text x="146.366244" y="158.697318" fill="rgb(12,12,255)"  stroke="rgb(12,12,255)" stroke-width="1" font-size="16" >N</text>
<text x="202.299513" y="190.921169" fill="rgb(12,12,255)"  stroke="rgb(12,12,255)" stroke-width="1" font-size="16" >N</text>
<text x="137.851812" y="277.579165" fill="rgb(12,12,255)"  stroke="rgb(12,12,255)" stroke-width="1" font-size="16" >N</text>
<text x="207.476093" y="278.243824" fill="rgb(178,178,0)"  stroke="rgb(178,178,0)" stroke-width="1" font-size="16" >S</text>
<text x="276.600667" y="358.556022" fill="rgb(102,102,102)"  stroke="rgb(102,102,102)" stroke-width="1" font-size="16" >CH</text>
<text font-size="18.000000" fill ="black" font-family="sans-serif"
x="10.000000" y="20.000000" ></text>
<title> - OBDepict</title>
</svg>
