<?xml version="1.0"?>
<svg xmlns="http://www.w3.org/2000/svg"
xmlns:xlink="http://www.w3.org/1999/xlink" xmlns:cml="http://www.xml-cml.org/schema" width="356.451" height="189.33" x="0" y="0" font-family="sans-serif" stroke="rgb(0,0,0)" stroke-width="1"  stroke-linecap="round">
<rect x="0%" y="0%" width="100%" height="100%" stroke-width="0" fill="rgb(255,255,255)"  />
<line x1="179.2" y1="109.3" x2="213.6" y2="88.9" stroke="rgb(0,0,0)"  stroke-width="1.0"/>
<line x1="75.0" y1="90.9" x2="109.9" y2="110.3" stroke="rgb(0,0,0)"  stroke-width="1.0"/>
<line x1="51.3" y1="77.7" x2="75.0" y2="90.9" stroke="rgb(0,0,0)"  stroke-width="1.0"/>
<line x1="53.4" y1="74.0" x2="77.0" y2="87.3" stroke="rgb(0,0,0)"  stroke-width="1.0"/>
<line x1="49.3" y1="81.3" x2="72.9" y2="94.6" stroke="rgb(0,0,0)"  stroke-width="1.0"/>
<line x1="176.6" y1="136.4" x2="176.2" y2="109.4" stroke="rgb(0,0,0)"  stroke-width="1.0"/>
<line x1="182.6" y1="136.3" x2="182.2" y2="109.3" stroke="rgb(0,0,0)"  stroke-width="1.0"/>
<line x1="155.6" y1="96.2" x2="179.2" y2="109.3" stroke="rgb(0,0,0)"  stroke-width="1.0"/>
<line x1="109.9" y1="110.3" x2="133.1" y2="96.6" stroke="rgb(0,0,0)"  stroke-width="1.0"/>
<line x1="303.5" y1="76.8" x2="276.6" y2="74.4" stroke="rgb(0,0,0)"  stroke-width="1.0"/>
<line x1="213.6" y1="88.9" x2="217.2" y2="48.9" stroke="rgb(0,0,0)"  stroke-width="1.0"/>
<line x1="221.3" y1="83.6" x2="223.9" y2="55.5" stroke="rgb(0,0,0)"  stroke-width="1.0"/>
<line x1="217.2" y1="48.9" x2="256.2" y2="40.0" stroke="rgb(0,0,0)"  stroke-width="1.0"/>
<line x1="256.2" y1="40.0" x2="276.6" y2="74.4" stroke="rgb(0,0,0)"  stroke-width="1.0"/>
<line x1="253.1" y1="48.8" x2="267.4" y2="72.9" stroke="rgb(0,0,0)"  stroke-width="1.0"/>
<line x1="276.6" y1="74.4" x2="258.9" y2="94.7" stroke="rgb(0,0,0)"  stroke-width="1.0"/>
<line x1="238.4" y1="99.4" x2="213.6" y2="88.9" stroke="rgb(0,0,0)"  stroke-width="1.0"/>
<text x="244.368387" y="112.468904" fill="rgb(178,178,0)"  stroke="rgb(178,178,0)" stroke-width="1" font-size="16" >S</text>
<text x="22.000000" y="79.325791" fill="rgb(102,102,102)"  stroke="rgb(102,102,102)" stroke-width="1" font-size="16" >HC</text>
<text x="173.841742" y="157.330111" fill="rgb(255,12,12)"  stroke="rgb(255,12,12)" stroke-width="1" font-size="16" >O</text>
<text x="138.275532" y="97.915787" fill="rgb(12,12,255)"  stroke="rgb(12,12,255)" stroke-width="1" font-size="16" >N</text>
<text x="138.275532" y="81.915787" fill="rgb(12,12,255)"  stroke="rgb(12,12,255)" stroke-width="1" font-size="16" >H</text>
<text x="312.451073" y="85.994152" fill="rgb(102,102,102)"  stroke="rgb(102,102,102)" stroke-width="1" font-size="16" >CH</text>
<text x="336.451073" y="89.674152" fill="rgb(102,102,102)"  stroke="rgb(102,102,102)" stroke-width="1" font-size="13" >3</text>
<text font-size="18.000000" fill ="black" font-family="sans-serif"
x="10.000000" y="20.000000" ></text>
<title> - OBDepict</title>
</svg>
