<?xml version="1.0"?>
<svg xmlns="http://www.w3.org/2000/svg"
xmlns:xlink="http://www.w3.org/1999/xlink" xmlns:cml="http://www.xml-cml.org/schema" width="372.293" height="280.388" x="0" y="0" font-family="sans-serif" stroke="rgb(0,0,0)" stroke-width="1"  stroke-linecap="round">
<rect x="0%" y="0%" width="100%" height="100%" stroke-width="0" fill="rgb(255,255,255)"  />
<line x1="247.8" y1="143.6" x2="224.4" y2="157.9" stroke="rgb(0,0,0)"  stroke-width="1.0"/>
<line x1="244.7" y1="138.5" x2="221.3" y2="152.8" stroke="rgb(0,0,0)"  stroke-width="1.0"/>
<line x1="257.4" y1="94.7" x2="257.4" y2="121.3" stroke="rgb(0,0,0)"  stroke-width="1.0"/>
<line x1="291.9" y1="74.7" x2="257.4" y2="94.7" stroke="rgb(0,0,0)"  stroke-width="1.0"/>
<line x1="288.1" y1="208.1" x2="250.1" y2="221.0" stroke="rgb(0,0,0)"  stroke-width="1.0"/>
<line x1="313.4" y1="198.8" x2="288.1" y2="208.1" stroke="rgb(0,0,0)"  stroke-width="1.0"/>
<line x1="314.9" y1="202.7" x2="289.5" y2="212.0" stroke="rgb(0,0,0)"  stroke-width="1.0"/>
<line x1="312.0" y1="194.8" x2="286.6" y2="204.1" stroke="rgb(0,0,0)"  stroke-width="1.0"/>
<line x1="235.6" y1="78.9" x2="258.8" y2="92.1" stroke="rgb(0,0,0)"  stroke-width="1.0"/>
<line x1="232.6" y1="84.2" x2="255.9" y2="97.3" stroke="rgb(0,0,0)"  stroke-width="1.0"/>
<line x1="250.1" y1="221.0" x2="229.1" y2="203.1" stroke="rgb(0,0,0)"  stroke-width="1.0"/>
<line x1="291.9" y1="74.7" x2="332.3" y2="74.7" stroke="rgb(0,0,0)"  stroke-width="1.0"/>
<line x1="332.3" y1="74.7" x2="312.3" y2="40.0" stroke="rgb(0,0,0)"  stroke-width="1.0"/>
<line x1="312.3" y1="40.0" x2="291.9" y2="74.7" stroke="rgb(0,0,0)"  stroke-width="1.0"/>
<line x1="222.8" y1="155.3" x2="197.6" y2="144.8" stroke="rgb(0,0,0)"  stroke-width="1.0"/>
<line x1="177.2" y1="149.7" x2="159.8" y2="170.1" stroke="rgb(0,0,0)"  stroke-width="1.0"/>
<line x1="159.8" y1="170.1" x2="180.4" y2="204.0" stroke="rgb(0,0,0)"  stroke-width="1.0"/>
<line x1="169.1" y1="171.5" x2="183.4" y2="195.2" stroke="rgb(0,0,0)"  stroke-width="1.0"/>
<line x1="180.4" y1="204.0" x2="206.5" y2="197.8" stroke="rgb(0,0,0)"  stroke-width="1.0"/>
<line x1="220.4" y1="181.8" x2="222.8" y2="155.3" stroke="rgb(0,0,0)"  stroke-width="1.0"/>
<line x1="120.0" y1="170.7" x2="100.6" y2="205.8" stroke="rgb(0,0,0)"  stroke-width="1.0"/>
<line x1="100.6" y1="205.8" x2="61.2" y2="207.1" stroke="rgb(0,0,0)"  stroke-width="1.0"/>
<line x1="94.4" y1="198.8" x2="67.0" y2="199.7" stroke="rgb(0,0,0)"  stroke-width="1.0"/>
<line x1="61.2" y1="207.1" x2="40.0" y2="172.9" stroke="rgb(0,0,0)"  stroke-width="1.0"/>
<line x1="40.0" y1="172.9" x2="58.8" y2="137.8" stroke="rgb(0,0,0)"  stroke-width="1.0"/>
<line x1="49.2" y1="171.0" x2="62.3" y2="146.4" stroke="rgb(0,0,0)"  stroke-width="1.0"/>
<line x1="58.8" y1="137.8" x2="98.8" y2="136.8" stroke="rgb(0,0,0)"  stroke-width="1.0"/>
<line x1="98.8" y1="136.8" x2="120.0" y2="170.7" stroke="rgb(0,0,0)"  stroke-width="1.0"/>
<line x1="95.9" y1="145.7" x2="110.7" y2="169.4" stroke="rgb(0,0,0)"  stroke-width="1.0"/>
<line x1="161.6" y1="239.2" x2="121.8" y2="240.4" stroke="rgb(0,0,0)"  stroke-width="1.0"/>
<line x1="155.4" y1="232.2" x2="127.6" y2="233.0" stroke="rgb(0,0,0)"  stroke-width="1.0"/>
<line x1="121.8" y1="240.4" x2="100.6" y2="205.8" stroke="rgb(0,0,0)"  stroke-width="1.0"/>
<line x1="120.0" y1="170.7" x2="159.8" y2="170.1" stroke="rgb(0,0,0)"  stroke-width="1.0"/>
<line x1="180.4" y1="204.0" x2="161.6" y2="239.2" stroke="rgb(0,0,0)"  stroke-width="1.0"/>
<text x="251.352519" y="142.330295" fill="rgb(12,12,255)"  stroke="rgb(12,12,255)" stroke-width="1" font-size="16" >N</text>
<text x="179.642095" y="147.786417" fill="rgb(178,178,0)"  stroke="rgb(178,178,0)" stroke-width="1" font-size="16" >S</text>
<text x="213.179061" y="202.730783" fill="rgb(12,12,255)"  stroke="rgb(12,12,255)" stroke-width="1" font-size="16" >N</text>
<text x="319.629223" y="202.328242" fill="rgb(102,102,102)"  stroke="rgb(102,102,102)" stroke-width="1" font-size="16" >CH</text>
<text x="216.811626" y="83.142278" fill="rgb(255,12,12)"  stroke="rgb(255,12,12)" stroke-width="1" font-size="16" >O</text>
<text font-size="18.000000" fill ="black" font-family="sans-serif"
x="10.000000" y="20.000000" ></text>
<title> - OBDepict</title>
</svg>
