<?xml version="1.0"?>
<svg xmlns="http://www.w3.org/2000/svg"
xmlns:xlink="http://www.w3.org/1999/xlink" xmlns:cml="http://www.xml-cml.org/schema" width="218.658" height="440.192" x="0" y="0" font-family="sans-serif" stroke="rgb(0,0,0)" stroke-width="1"  stroke-linecap="round">
<rect x="0%" y="0%" width="100%" height="100%" stroke-width="0" fill="rgb(255,255,255)"  />
<line x1="109.3" y1="200.1" x2="109.3" y2="240.1" stroke="rgb(0,0,0)"  stroke-width="1.0"/>
<line x1="132.6" y1="186.6" x2="109.3" y2="200.1" stroke="rgb(0,0,0)"  stroke-width="1.0"/>
<line x1="74.8" y1="60.0" x2="109.3" y2="80.0" stroke="rgb(0,0,0)"  stroke-width="1.0"/>
<line x1="109.3" y1="320.1" x2="109.3" y2="347.2" stroke="rgb(0,0,0)"  stroke-width="1.0"/>
<line x1="51.3" y1="46.5" x2="74.8" y2="60.0" stroke="rgb(0,0,0)"  stroke-width="1.0"/>
<line x1="53.4" y1="42.8" x2="76.9" y2="56.4" stroke="rgb(0,0,0)"  stroke-width="1.0"/>
<line x1="49.2" y1="50.1" x2="72.7" y2="63.7" stroke="rgb(0,0,0)"  stroke-width="1.0"/>
<line x1="82.3" y1="357.2" x2="96.3" y2="357.2" stroke="rgb(0,0,0)"  stroke-width="1.0"/>
<line x1="82.3" y1="363.2" x2="96.3" y2="363.2" stroke="rgb(0,0,0)"  stroke-width="1.0"/>
<line x1="106.3" y1="387.2" x2="106.3" y2="373.2" stroke="rgb(0,0,0)"  stroke-width="1.0"/>
<line x1="112.3" y1="387.2" x2="112.3" y2="373.2" stroke="rgb(0,0,0)"  stroke-width="1.0"/>
<line x1="87.5" y1="184.0" x2="110.8" y2="197.5" stroke="rgb(0,0,0)"  stroke-width="1.0"/>
<line x1="84.5" y1="189.2" x2="107.8" y2="202.7" stroke="rgb(0,0,0)"  stroke-width="1.0"/>
<line x1="143.9" y1="140.1" x2="143.9" y2="167.1" stroke="rgb(0,0,0)"  stroke-width="1.0"/>
<line x1="136.3" y1="360.2" x2="122.3" y2="360.2" stroke="rgb(0,0,0)"  stroke-width="1.0"/>
<line x1="109.3" y1="320.1" x2="143.9" y2="300.1" stroke="rgb(0,0,0)"  stroke-width="1.0"/>
<line x1="143.9" y1="300.1" x2="143.9" y2="260.1" stroke="rgb(0,0,0)"  stroke-width="1.0"/>
<line x1="136.7" y1="294.1" x2="136.7" y2="266.1" stroke="rgb(0,0,0)"  stroke-width="1.0"/>
<line x1="143.9" y1="260.1" x2="109.3" y2="240.1" stroke="rgb(0,0,0)"  stroke-width="1.0"/>
<line x1="109.3" y1="240.1" x2="74.8" y2="260.1" stroke="rgb(0,0,0)"  stroke-width="1.0"/>
<line x1="107.7" y1="249.3" x2="83.6" y2="263.3" stroke="rgb(0,0,0)"  stroke-width="1.0"/>
<line x1="74.8" y1="260.1" x2="74.8" y2="300.1" stroke="rgb(0,0,0)"  stroke-width="1.0"/>
<line x1="74.8" y1="300.1" x2="109.3" y2="320.1" stroke="rgb(0,0,0)"  stroke-width="1.0"/>
<line x1="83.6" y1="296.9" x2="107.7" y2="310.9" stroke="rgb(0,0,0)"  stroke-width="1.0"/>
<line x1="143.9" y1="140.1" x2="109.3" y2="120.0" stroke="rgb(0,0,0)"  stroke-width="1.0"/>
<line x1="142.3" y1="130.8" x2="118.1" y2="116.8" stroke="rgb(0,0,0)"  stroke-width="1.0"/>
<line x1="109.3" y1="120.0" x2="109.3" y2="80.0" stroke="rgb(0,0,0)"  stroke-width="1.0"/>
<line x1="109.3" y1="80.0" x2="143.9" y2="60.0" stroke="rgb(0,0,0)"  stroke-width="1.0"/>
<line x1="118.1" y1="83.2" x2="142.3" y2="69.2" stroke="rgb(0,0,0)"  stroke-width="1.0"/>
<line x1="143.9" y1="60.0" x2="178.7" y2="80.0" stroke="rgb(0,0,0)"  stroke-width="1.0"/>
<line x1="178.7" y1="80.0" x2="178.7" y2="120.0" stroke="rgb(0,0,0)"  stroke-width="1.0"/>
<line x1="171.5" y1="86.0" x2="171.5" y2="114.0" stroke="rgb(0,0,0)"  stroke-width="1.0"/>
<line x1="178.7" y1="120.0" x2="143.9" y2="140.1" stroke="rgb(0,0,0)"  stroke-width="1.0"/>
<text x="103.326556" y="368.170228" fill="rgb(178,178,0)"  stroke="rgb(178,178,0)" stroke-width="1" font-size="16" >S</text>
<text x="137.890388" y="188.074475" fill="rgb(12,12,255)"  stroke="rgb(12,12,255)" stroke-width="1" font-size="16" >NH</text>
<text x="22.000000" y="48.000000" fill="rgb(102,102,102)"  stroke="rgb(102,102,102)" stroke-width="1" font-size="16" >HC</text>
<text x="63.305278" y="368.170228" fill="rgb(255,12,12)"  stroke="rgb(255,12,12)" stroke-width="1" font-size="16" >O</text>
<text x="103.326556" y="408.191506" fill="rgb(255,12,12)"  stroke="rgb(255,12,12)" stroke-width="1" font-size="16" >O</text>
<text x="68.762725" y="188.074475" fill="rgb(255,12,12)"  stroke="rgb(255,12,12)" stroke-width="1" font-size="16" >O</text>
<text x="145.347835" y="368.170228" fill="rgb(102,102,102)"  stroke="rgb(102,102,102)" stroke-width="1" font-size="16" >CH</text>
<text x="169.347835" y="371.850228" fill="rgb(102,102,102)"  stroke="rgb(102,102,102)" stroke-width="1" font-size="13" >3</text>
<text font-size="18.000000" fill ="black" font-family="sans-serif"
x="10.000000" y="20.000000" ></text>
<title> - OBDepict</title>
</svg>
