<?xml version="1.0"?>
<svg xmlns="http://www.w3.org/2000/svg"
xmlns:xlink="http://www.w3.org/1999/xlink" xmlns:cml="http://www.xml-cml.org/schema" width="505.418" height="316.792" x="0" y="0" font-family="sans-serif" stroke="rgb(0,0,0)" stroke-width="1"  stroke-linecap="round">
<rect x="0%" y="0%" width="100%" height="100%" stroke-width="0" fill="rgb(255,255,255)"  />
<line x1="386.2" y1="145.2" x2="359.4" y2="148.1" stroke="rgb(0,0,0)"  stroke-width="1.0"/>
<line x1="250.1" y1="113.4" x2="284.5" y2="133.3" stroke="rgb(0,0,0)"  stroke-width="1.0"/>
<line x1="247.1" y1="118.6" x2="281.5" y2="138.5" stroke="rgb(0,0,0)"  stroke-width="1.0"/>
<line x1="213.5" y1="136.1" x2="248.6" y2="116.0" stroke="rgb(0,0,0)"  stroke-width="1.0"/>
<line x1="74.5" y1="256.8" x2="108.9" y2="236.5" stroke="rgb(0,0,0)"  stroke-width="1.0"/>
<line x1="51.3" y1="270.3" x2="74.5" y2="256.8" stroke="rgb(0,0,0)"  stroke-width="1.0"/>
<line x1="49.1" y1="266.6" x2="72.4" y2="253.2" stroke="rgb(0,0,0)"  stroke-width="1.0"/>
<line x1="53.4" y1="273.9" x2="76.6" y2="260.5" stroke="rgb(0,0,0)"  stroke-width="1.0"/>
<line x1="334.7" y1="209.5" x2="323.8" y2="185.1" stroke="rgb(0,0,0)"  stroke-width="1.0"/>
<line x1="340.2" y1="207.1" x2="329.3" y2="182.7" stroke="rgb(0,0,0)"  stroke-width="1.0"/>
<line x1="328.1" y1="93.8" x2="322.7" y2="120.4" stroke="rgb(0,0,0)"  stroke-width="1.0"/>
<line x1="322.2" y1="92.6" x2="316.8" y2="119.2" stroke="rgb(0,0,0)"  stroke-width="1.0"/>
<line x1="120.8" y1="122.4" x2="144.0" y2="135.5" stroke="rgb(0,0,0)"  stroke-width="1.0"/>
<line x1="120.2" y1="190.1" x2="143.8" y2="176.4" stroke="rgb(0,0,0)"  stroke-width="1.0"/>
<line x1="178.9" y1="222.9" x2="179.1" y2="196.0" stroke="rgb(0,0,0)"  stroke-width="1.0"/>
<line x1="386.3" y1="87.1" x2="402.1" y2="108.7" stroke="rgb(0,0,0)"  stroke-width="1.0"/>
<line x1="108.9" y1="236.5" x2="108.9" y2="209.6" stroke="rgb(0,0,0)"  stroke-width="1.0"/>
<line x1="202.3" y1="249.7" x2="190.1" y2="242.5" stroke="rgb(0,0,0)"  stroke-width="1.0"/>
<line x1="389.6" y1="51.9" x2="383.8" y2="64.8" stroke="rgb(0,0,0)"  stroke-width="1.0"/>
<line x1="337.8" y1="139.8" x2="319.7" y2="119.8" stroke="rgb(0,0,0)"  stroke-width="1.0"/>
<line x1="319.7" y1="119.8" x2="283.0" y2="135.9" stroke="rgb(0,0,0)"  stroke-width="1.0"/>
<line x1="283.0" y1="135.9" x2="285.9" y2="162.5" stroke="rgb(0,0,0)"  stroke-width="1.0"/>
<line x1="300.0" y1="178.2" x2="326.6" y2="183.9" stroke="rgb(0,0,0)"  stroke-width="1.0"/>
<line x1="326.6" y1="183.9" x2="340.0" y2="160.7" stroke="rgb(0,0,0)"  stroke-width="1.0"/>
<line x1="144.0" y1="135.5" x2="143.8" y2="176.4" stroke="rgb(0,0,0)"  stroke-width="1.0"/>
<line x1="151.2" y1="141.6" x2="151.0" y2="170.5" stroke="rgb(0,0,0)"  stroke-width="1.0"/>
<line x1="143.8" y1="176.4" x2="179.1" y2="196.0" stroke="rgb(0,0,0)"  stroke-width="1.0"/>
<line x1="179.1" y1="196.0" x2="213.5" y2="176.0" stroke="rgb(0,0,0)"  stroke-width="1.0"/>
<line x1="180.6" y1="186.7" x2="204.7" y2="172.8" stroke="rgb(0,0,0)"  stroke-width="1.0"/>
<line x1="213.5" y1="176.0" x2="213.5" y2="136.1" stroke="rgb(0,0,0)"  stroke-width="1.0"/>
<line x1="213.5" y1="136.1" x2="178.8" y2="115.6" stroke="rgb(0,0,0)"  stroke-width="1.0"/>
<line x1="204.7" y1="139.3" x2="180.3" y2="124.8" stroke="rgb(0,0,0)"  stroke-width="1.0"/>
<line x1="178.8" y1="115.6" x2="144.0" y2="135.5" stroke="rgb(0,0,0)"  stroke-width="1.0"/>
<line x1="386.2" y1="145.2" x2="402.1" y2="108.7" stroke="rgb(0,0,0)"  stroke-width="1.0"/>
<line x1="402.1" y1="108.7" x2="441.8" y2="104.7" stroke="rgb(0,0,0)"  stroke-width="1.0"/>
<line x1="408.8" y1="115.3" x2="436.6" y2="112.5" stroke="rgb(0,0,0)"  stroke-width="1.0"/>
<line x1="441.8" y1="104.7" x2="465.4" y2="137.1" stroke="rgb(0,0,0)"  stroke-width="1.0"/>
<line x1="465.4" y1="137.1" x2="448.7" y2="173.4" stroke="rgb(0,0,0)"  stroke-width="1.0"/>
<line x1="456.4" y1="139.6" x2="444.7" y2="164.9" stroke="rgb(0,0,0)"  stroke-width="1.0"/>
<line x1="448.7" y1="173.4" x2="409.4" y2="177.6" stroke="rgb(0,0,0)"  stroke-width="1.0"/>
<line x1="409.4" y1="177.6" x2="386.2" y2="145.2" stroke="rgb(0,0,0)"  stroke-width="1.0"/>
<line x1="411.8" y1="168.6" x2="395.6" y2="145.9" stroke="rgb(0,0,0)"  stroke-width="1.0"/>
<text x="340.518664" y="157.429105" fill="rgb(12,12,255)"  stroke="rgb(12,12,255)" stroke-width="1" font-size="16" >N</text>
<text x="281.269783" y="183.424630" fill="rgb(178,178,0)"  stroke="rgb(178,178,0)" stroke-width="1" font-size="16" >S</text>
<text x="22.000000" y="284.792168" fill="rgb(102,102,102)"  stroke="rgb(102,102,102)" stroke-width="1" font-size="16" >HC</text>
<text x="336.688815" y="228.167533" fill="rgb(255,12,12)"  stroke="rgb(255,12,12)" stroke-width="1" font-size="16" >O</text>
<text x="321.776128" y="88.506344" fill="rgb(255,12,12)"  stroke="rgb(255,12,12)" stroke-width="1" font-size="16" >O</text>
<text x="91.523141" y="123.972394" fill="rgb(30,239,30)"  stroke="rgb(30,239,30)" stroke-width="1" font-size="16" >Cl</text>
<text x="102.917918" y="204.588057" fill="rgb(255,12,12)"  stroke="rgb(255,12,12)" stroke-width="1" font-size="16" >O</text>
<text x="172.847769" y="243.883956" fill="rgb(255,12,12)"  stroke="rgb(255,12,12)" stroke-width="1" font-size="16" >O</text>
<text x="372.561574" y="84.676495" fill="rgb(255,12,12)"  stroke="rgb(255,12,12)" stroke-width="1" font-size="16" >O</text>
<text x="209.510083" y="264.238805" fill="rgb(102,102,102)"  stroke="rgb(102,102,102)" stroke-width="1" font-size="16" >CH</text>
<text x="233.510083" y="267.918805" fill="rgb(102,102,102)"  stroke="rgb(102,102,102)" stroke-width="1" font-size="13" >3</text>
<text x="390.888062" y="48.000000" fill="rgb(102,102,102)"  stroke="rgb(102,102,102)" stroke-width="1" font-size="16" >CH</text>
<text x="414.888062" y="51.680000" fill="rgb(102,102,102)"  stroke="rgb(102,102,102)" stroke-width="1" font-size="13" >3</text>
<text font-size="18.000000" fill ="black" font-family="sans-serif"
x="10.000000" y="20.000000" ></text>
<title> - OBDepict</title>
</svg>
