<?xml version="1.0"?>
<svg xmlns="http://www.w3.org/2000/svg"
xmlns:xlink="http://www.w3.org/1999/xlink" xmlns:cml="http://www.xml-cml.org/schema" width="243.873" height="499.882" x="0" y="0" font-family="sans-serif" stroke="rgb(0,0,0)" stroke-width="1"  stroke-linecap="round">
<rect x="0%" y="0%" width="100%" height="100%" stroke-width="0" fill="rgb(255,255,255)"  />
<line x1="109.3" y1="119.8" x2="109.3" y2="146.8" stroke="rgb(0,0,0)"  stroke-width="1.0"/>
<line x1="109.3" y1="186.8" x2="109.3" y2="172.8" stroke="rgb(0,0,0)"  stroke-width="1.0"/>
<line x1="109.3" y1="319.9" x2="109.3" y2="279.8" stroke="rgb(0,0,0)"  stroke-width="1.0"/>
<line x1="132.6" y1="333.3" x2="109.3" y2="319.9" stroke="rgb(0,0,0)"  stroke-width="1.0"/>
<line x1="143.9" y1="419.9" x2="143.9" y2="379.9" stroke="rgb(0,0,0)"  stroke-width="1.0"/>
<line x1="82.3" y1="156.8" x2="96.3" y2="156.8" stroke="rgb(0,0,0)"  stroke-width="1.0"/>
<line x1="82.3" y1="162.8" x2="96.3" y2="162.8" stroke="rgb(0,0,0)"  stroke-width="1.0"/>
<line x1="136.3" y1="162.8" x2="122.3" y2="162.8" stroke="rgb(0,0,0)"  stroke-width="1.0"/>
<line x1="136.3" y1="156.8" x2="122.3" y2="156.8" stroke="rgb(0,0,0)"  stroke-width="1.0"/>
<line x1="143.9" y1="446.9" x2="143.9" y2="419.9" stroke="rgb(0,0,0)"  stroke-width="1.0"/>
<line x1="139.7" y1="446.9" x2="139.7" y2="419.9" stroke="rgb(0,0,0)"  stroke-width="1.0"/>
<line x1="148.1" y1="446.9" x2="148.1" y2="419.9" stroke="rgb(0,0,0)"  stroke-width="1.0"/>
<line x1="143.9" y1="379.9" x2="143.9" y2="352.9" stroke="rgb(0,0,0)"  stroke-width="1.0"/>
<line x1="84.3" y1="330.8" x2="107.8" y2="317.3" stroke="rgb(0,0,0)"  stroke-width="1.0"/>
<line x1="87.3" y1="336.0" x2="110.8" y2="322.5" stroke="rgb(0,0,0)"  stroke-width="1.0"/>
<line x1="51.3" y1="113.3" x2="74.6" y2="99.8" stroke="rgb(0,0,0)"  stroke-width="1.0"/>
<line x1="183.9" y1="379.9" x2="143.9" y2="379.9" stroke="rgb(0,0,0)"  stroke-width="1.0"/>
<line x1="103.9" y1="379.9" x2="143.9" y2="379.9" stroke="rgb(0,0,0)"  stroke-width="1.0"/>
<line x1="197.4" y1="403.4" x2="183.9" y2="379.9" stroke="rgb(0,0,0)"  stroke-width="1.0"/>
<line x1="90.4" y1="356.6" x2="103.9" y2="379.9" stroke="rgb(0,0,0)"  stroke-width="1.0"/>
<line x1="120.6" y1="206.3" x2="143.9" y2="219.8" stroke="rgb(0,0,0)"  stroke-width="1.0"/>
<line x1="143.9" y1="219.8" x2="143.9" y2="259.8" stroke="rgb(0,0,0)"  stroke-width="1.0"/>
<line x1="143.9" y1="259.8" x2="109.3" y2="279.8" stroke="rgb(0,0,0)"  stroke-width="1.0"/>
<line x1="109.3" y1="279.8" x2="74.6" y2="259.8" stroke="rgb(0,0,0)"  stroke-width="1.0"/>
<line x1="74.6" y1="259.8" x2="74.6" y2="219.8" stroke="rgb(0,0,0)"  stroke-width="1.0"/>
<line x1="74.6" y1="219.8" x2="98.0" y2="206.3" stroke="rgb(0,0,0)"  stroke-width="1.0"/>
<line x1="109.3" y1="119.8" x2="74.6" y2="99.8" stroke="rgb(0,0,0)"  stroke-width="1.0"/>
<line x1="107.7" y1="110.6" x2="83.3" y2="96.6" stroke="rgb(0,0,0)"  stroke-width="1.0"/>
<line x1="74.6" y1="99.8" x2="74.6" y2="59.8" stroke="rgb(0,0,0)"  stroke-width="1.0"/>
<line x1="74.6" y1="59.8" x2="109.3" y2="40.0" stroke="rgb(0,0,0)"  stroke-width="1.0"/>
<line x1="83.3" y1="63.1" x2="107.7" y2="49.2" stroke="rgb(0,0,0)"  stroke-width="1.0"/>
<line x1="109.3" y1="40.0" x2="143.9" y2="59.8" stroke="rgb(0,0,0)"  stroke-width="1.0"/>
<line x1="143.9" y1="59.8" x2="143.9" y2="99.8" stroke="rgb(0,0,0)"  stroke-width="1.0"/>
<line x1="136.7" y1="65.8" x2="136.7" y2="93.8" stroke="rgb(0,0,0)"  stroke-width="1.0"/>
<line x1="143.9" y1="99.8" x2="109.3" y2="119.8" stroke="rgb(0,0,0)"  stroke-width="1.0"/>
<text x="103.308674" y="167.820788" fill="rgb(178,178,0)"  stroke="rgb(178,178,0)" stroke-width="1" font-size="16" >S</text>
<text x="103.308674" y="207.828944" fill="rgb(12,12,255)"  stroke="rgb(12,12,255)" stroke-width="1" font-size="16" >N</text>
<text x="137.861171" y="347.857487" fill="rgb(12,12,255)"  stroke="rgb(12,12,255)" stroke-width="1" font-size="16" >NH</text>
<text x="63.300518" y="167.820788" fill="rgb(255,12,12)"  stroke="rgb(255,12,12)" stroke-width="1" font-size="16" >O</text>
<text x="143.316829" y="167.820788" fill="rgb(255,12,12)"  stroke="rgb(255,12,12)" stroke-width="1" font-size="16" >O</text>
<text x="137.861171" y="467.881953" fill="rgb(102,102,102)"  stroke="rgb(102,102,102)" stroke-width="1" font-size="16" >CH</text>
<text x="68.552498" y="347.857487" fill="rgb(255,12,12)"  stroke="rgb(255,12,12)" stroke-width="1" font-size="16" >O</text>
<text x="34.000000" y="127.812633" fill="rgb(127,178,255)"  stroke="rgb(127,178,255)" stroke-width="1" font-size="16" >F</text>
<text x="199.873404" y="422.621818" fill="rgb(102,102,102)"  stroke="rgb(102,102,102)" stroke-width="1" font-size="16" >CH</text>
<text x="223.873404" y="426.301818" fill="rgb(102,102,102)"  stroke="rgb(102,102,102)" stroke-width="1" font-size="13" >3</text>
<text x="57.848938" y="353.313145" fill="rgb(102,102,102)"  stroke="rgb(102,102,102)" stroke-width="1" font-size="16" >H</text>
<text x="69.848938" y="356.993145" fill="rgb(102,102,102)"  stroke="rgb(102,102,102)" stroke-width="1" font-size="13" >3</text>
<text x="76.348938" y="353.313145" fill="rgb(102,102,102)"  stroke="rgb(102,102,102)" stroke-width="1" font-size="16" >C</text>
<text font-size="18.000000" fill ="black" font-family="sans-serif"
x="10.000000" y="20.000000" ></text>
<title> - OBDepict</title>
</svg>
