<?xml version="1.0"?>
<svg xmlns="http://www.w3.org/2000/svg"
xmlns:xlink="http://www.w3.org/1999/xlink" xmlns:cml="http://www.xml-cml.org/schema" width="218.573" height="299.982" x="0" y="0" font-family="sans-serif" stroke="rgb(0,0,0)" stroke-width="1"  stroke-linecap="round">
<rect x="0%" y="0%" width="100%" height="100%" stroke-width="0" fill="rgb(255,255,255)"  />
<line x1="144.0" y1="240.0" x2="109.3" y2="220.0" stroke="rgb(0,0,0)"  stroke-width="1.0"/>
<line x1="167.3" y1="253.5" x2="144.0" y2="240.0" stroke="rgb(0,0,0)"  stroke-width="1.0"/>
<line x1="165.2" y1="257.1" x2="141.9" y2="243.6" stroke="rgb(0,0,0)"  stroke-width="1.0"/>
<line x1="169.4" y1="249.8" x2="146.1" y2="236.3" stroke="rgb(0,0,0)"  stroke-width="1.0"/>
<line x1="49.8" y1="170.9" x2="73.2" y2="157.4" stroke="rgb(0,0,0)"  stroke-width="1.0"/>
<line x1="52.8" y1="176.1" x2="76.2" y2="162.6" stroke="rgb(0,0,0)"  stroke-width="1.0"/>
<line x1="74.7" y1="120.0" x2="74.7" y2="160.0" stroke="rgb(0,0,0)"  stroke-width="1.0"/>
<line x1="98.0" y1="173.5" x2="74.7" y2="160.0" stroke="rgb(0,0,0)"  stroke-width="1.0"/>
<line x1="109.3" y1="220.0" x2="109.3" y2="193.0" stroke="rgb(0,0,0)"  stroke-width="1.0"/>
<line x1="74.7" y1="120.0" x2="109.3" y2="100.0" stroke="rgb(0,0,0)"  stroke-width="1.0"/>
<line x1="109.3" y1="100.0" x2="109.3" y2="60.0" stroke="rgb(0,0,0)"  stroke-width="1.0"/>
<line x1="109.3" y1="60.0" x2="74.7" y2="40.0" stroke="rgb(0,0,0)"  stroke-width="1.0"/>
<line x1="74.7" y1="40.0" x2="40.0" y2="60.0" stroke="rgb(0,0,0)"  stroke-width="1.0"/>
<line x1="40.0" y1="60.0" x2="40.0" y2="100.0" stroke="rgb(0,0,0)"  stroke-width="1.0"/>
<line x1="40.0" y1="100.0" x2="74.7" y2="120.0" stroke="rgb(0,0,0)"  stroke-width="1.0"/>
<text x="172.572867" y="267.981941" fill="rgb(102,102,102)"  stroke="rgb(102,102,102)" stroke-width="1" font-size="16" >CH</text>
<text x="34.000000" y="187.988508" fill="rgb(255,12,12)"  stroke="rgb(255,12,12)" stroke-width="1" font-size="16" >O</text>
<text x="103.288857" y="187.988508" fill="rgb(12,12,255)"  stroke="rgb(12,12,255)" stroke-width="1" font-size="16" >NH</text>
<text font-size="18.000000" fill ="black" font-family="sans-serif"
x="10.000000" y="20.000000" ></text>
<title> - OBDepict</title>
</svg>
