<?xml version="1.0"?>
<svg xmlns="http://www.w3.org/2000/svg"
xmlns:xlink="http://www.w3.org/1999/xlink" xmlns:cml="http://www.xml-cml.org/schema" width="379.911" height="253.282" x="0" y="0" font-family="sans-serif" stroke="rgb(0,0,0)" stroke-width="1"  stroke-linecap="round">
<rect x="0%" y="0%" width="100%" height="100%" stroke-width="0" fill="rgb(255,255,255)"  />
<line x1="326.9" y1="144.0" x2="299.9" y2="144.0" stroke="rgb(0,0,0)"  stroke-width="1.0"/>
<line x1="326.9" y1="148.2" x2="299.9" y2="148.2" stroke="rgb(0,0,0)"  stroke-width="1.0"/>
<line x1="326.9" y1="139.8" x2="299.9" y2="139.8" stroke="rgb(0,0,0)"  stroke-width="1.0"/>
<line x1="80.0" y1="109.3" x2="120.0" y2="109.3" stroke="rgb(0,0,0)"  stroke-width="1.0"/>
<line x1="299.9" y1="144.0" x2="259.9" y2="144.0" stroke="rgb(0,0,0)"  stroke-width="1.0"/>
<line x1="53.0" y1="109.3" x2="80.0" y2="109.3" stroke="rgb(0,0,0)"  stroke-width="1.0"/>
<line x1="53.0" y1="105.1" x2="80.0" y2="105.1" stroke="rgb(0,0,0)"  stroke-width="1.0"/>
<line x1="53.0" y1="113.5" x2="80.0" y2="113.5" stroke="rgb(0,0,0)"  stroke-width="1.0"/>
<line x1="186.5" y1="202.0" x2="200.0" y2="178.6" stroke="rgb(0,0,0)"  stroke-width="1.0"/>
<line x1="153.0" y1="144.0" x2="180.0" y2="144.0" stroke="rgb(0,0,0)"  stroke-width="1.0"/>
<line x1="186.5" y1="85.9" x2="200.0" y2="109.3" stroke="rgb(0,0,0)"  stroke-width="1.0"/>
<line x1="120.0" y1="109.3" x2="133.5" y2="132.7" stroke="rgb(0,0,0)"  stroke-width="1.0"/>
<line x1="193.5" y1="51.3" x2="186.5" y2="63.4" stroke="rgb(0,0,0)"  stroke-width="1.0"/>
<line x1="180.0" y1="144.0" x2="200.0" y2="178.6" stroke="rgb(0,0,0)"  stroke-width="1.0"/>
<line x1="200.0" y1="178.6" x2="239.9" y2="178.6" stroke="rgb(0,0,0)"  stroke-width="1.0"/>
<line x1="206.0" y1="171.4" x2="233.9" y2="171.4" stroke="rgb(0,0,0)"  stroke-width="1.0"/>
<line x1="239.9" y1="178.6" x2="259.9" y2="144.0" stroke="rgb(0,0,0)"  stroke-width="1.0"/>
<line x1="259.9" y1="144.0" x2="239.9" y2="109.3" stroke="rgb(0,0,0)"  stroke-width="1.0"/>
<line x1="250.7" y1="142.4" x2="236.7" y2="118.1" stroke="rgb(0,0,0)"  stroke-width="1.0"/>
<line x1="239.9" y1="109.3" x2="200.0" y2="109.3" stroke="rgb(0,0,0)"  stroke-width="1.0"/>
<line x1="200.0" y1="109.3" x2="180.0" y2="144.0" stroke="rgb(0,0,0)"  stroke-width="1.0"/>
<line x1="203.2" y1="118.1" x2="189.2" y2="142.4" stroke="rgb(0,0,0)"  stroke-width="1.0"/>
<text x="333.911162" y="151.969203" fill="rgb(12,12,255)"  stroke="rgb(12,12,255)" stroke-width="1" font-size="16" >N</text>
<text x="22.000000" y="117.312802" fill="rgb(102,102,102)"  stroke="rgb(102,102,102)" stroke-width="1" font-size="16" >HC</text>
<text x="161.958542" y="221.282005" fill="rgb(165,40,40)"  stroke="rgb(165,40,40)" stroke-width="1" font-size="16" >Br</text>
<text x="133.970387" y="151.969203" fill="rgb(255,12,12)"  stroke="rgb(255,12,12)" stroke-width="1" font-size="16" >O</text>
<text x="173.958542" y="82.656401" fill="rgb(255,12,12)"  stroke="rgb(255,12,12)" stroke-width="1" font-size="16" >O</text>
<text x="195.952620" y="48.000000" fill="rgb(102,102,102)"  stroke="rgb(102,102,102)" stroke-width="1" font-size="16" >CH</text>
<text x="219.952620" y="51.680000" fill="rgb(102,102,102)"  stroke="rgb(102,102,102)" stroke-width="1" font-size="13" >3</text>
<text font-size="18.000000" fill ="black" font-family="sans-serif"
x="10.000000" y="20.000000" ></text>
<title> - OBDepict</title>
</svg>
