<?xml version="1.0"?>
<svg xmlns="http://www.w3.org/2000/svg"
xmlns:xlink="http://www.w3.org/1999/xlink" xmlns:cml="http://www.xml-cml.org/schema" width="440.224" height="322.376" x="0" y="0" font-family="sans-serif" stroke="rgb(0,0,0)" stroke-width="1"  stroke-linecap="round">
<rect x="0%" y="0%" width="100%" height="100%" stroke-width="0" fill="rgb(255,255,255)"  />
<line x1="297.6" y1="211.5" x2="317.6" y2="176.8" stroke="rgb(0,0,0)"  stroke-width="1.0"/>
<line x1="302.8" y1="214.5" x2="322.8" y2="179.8" stroke="rgb(0,0,0)"  stroke-width="1.0"/>
<line x1="260.1" y1="213.0" x2="300.2" y2="213.0" stroke="rgb(0,0,0)"  stroke-width="1.0"/>
<line x1="360.2" y1="178.3" x2="320.2" y2="178.3" stroke="rgb(0,0,0)"  stroke-width="1.0"/>
<line x1="387.2" y1="178.3" x2="360.2" y2="178.3" stroke="rgb(0,0,0)"  stroke-width="1.0"/>
<line x1="387.2" y1="182.5" x2="360.2" y2="182.5" stroke="rgb(0,0,0)"  stroke-width="1.0"/>
<line x1="387.2" y1="174.1" x2="360.2" y2="174.1" stroke="rgb(0,0,0)"  stroke-width="1.0"/>
<line x1="80.0" y1="178.3" x2="120.0" y2="178.3" stroke="rgb(0,0,0)"  stroke-width="1.0"/>
<line x1="53.0" y1="178.3" x2="80.0" y2="178.3" stroke="rgb(0,0,0)"  stroke-width="1.0"/>
<line x1="53.0" y1="174.1" x2="80.0" y2="174.1" stroke="rgb(0,0,0)"  stroke-width="1.0"/>
<line x1="53.0" y1="182.5" x2="80.0" y2="182.5" stroke="rgb(0,0,0)"  stroke-width="1.0"/>
<line x1="300.2" y1="143.6" x2="320.2" y2="178.3" stroke="rgb(0,0,0)"  stroke-width="1.0"/>
<line x1="186.6" y1="271.1" x2="200.1" y2="247.7" stroke="rgb(0,0,0)"  stroke-width="1.0"/>
<line x1="153.1" y1="213.0" x2="180.1" y2="213.0" stroke="rgb(0,0,0)"  stroke-width="1.0"/>
<line x1="186.6" y1="154.9" x2="200.1" y2="178.3" stroke="rgb(0,0,0)"  stroke-width="1.0"/>
<line x1="246.6" y1="51.3" x2="260.1" y2="74.9" stroke="rgb(0,0,0)"  stroke-width="1.0"/>
<line x1="120.0" y1="178.3" x2="133.6" y2="201.7" stroke="rgb(0,0,0)"  stroke-width="1.0"/>
<line x1="193.6" y1="120.2" x2="186.6" y2="132.4" stroke="rgb(0,0,0)"  stroke-width="1.0"/>
<line x1="200.1" y1="247.7" x2="180.1" y2="213.0" stroke="rgb(0,0,0)"  stroke-width="1.0"/>
<line x1="180.1" y1="213.0" x2="200.1" y2="178.3" stroke="rgb(0,0,0)"  stroke-width="1.0"/>
<line x1="189.3" y1="211.4" x2="203.3" y2="187.1" stroke="rgb(0,0,0)"  stroke-width="1.0"/>
<line x1="200.1" y1="178.3" x2="240.1" y2="178.3" stroke="rgb(0,0,0)"  stroke-width="1.0"/>
<line x1="240.1" y1="178.3" x2="260.1" y2="213.0" stroke="rgb(0,0,0)"  stroke-width="1.0"/>
<line x1="236.9" y1="187.1" x2="250.9" y2="211.4" stroke="rgb(0,0,0)"  stroke-width="1.0"/>
<line x1="260.1" y1="213.0" x2="240.1" y2="247.7" stroke="rgb(0,0,0)"  stroke-width="1.0"/>
<line x1="240.1" y1="247.7" x2="200.1" y2="247.7" stroke="rgb(0,0,0)"  stroke-width="1.0"/>
<line x1="234.1" y1="240.5" x2="206.1" y2="240.5" stroke="rgb(0,0,0)"  stroke-width="1.0"/>
<line x1="300.2" y1="143.6" x2="320.2" y2="108.9" stroke="rgb(0,0,0)"  stroke-width="1.0"/>
<line x1="320.2" y1="108.9" x2="300.2" y2="74.9" stroke="rgb(0,0,0)"  stroke-width="1.0"/>
<line x1="310.9" y1="107.4" x2="297.0" y2="83.7" stroke="rgb(0,0,0)"  stroke-width="1.0"/>
<line x1="300.2" y1="74.9" x2="260.1" y2="74.9" stroke="rgb(0,0,0)"  stroke-width="1.0"/>
<line x1="260.1" y1="74.9" x2="240.1" y2="108.9" stroke="rgb(0,0,0)"  stroke-width="1.0"/>
<line x1="263.3" y1="83.7" x2="249.4" y2="107.4" stroke="rgb(0,0,0)"  stroke-width="1.0"/>
<line x1="240.1" y1="108.9" x2="260.1" y2="143.6" stroke="rgb(0,0,0)"  stroke-width="1.0"/>
<line x1="260.1" y1="143.6" x2="300.2" y2="143.6" stroke="rgb(0,0,0)"  stroke-width="1.0"/>
<line x1="266.1" y1="136.4" x2="294.2" y2="136.4" stroke="rgb(0,0,0)"  stroke-width="1.0"/>
<text x="394.223822" y="186.311393" fill="rgb(12,12,255)"  stroke="rgb(12,12,255)" stroke-width="1" font-size="16" >N</text>
<text x="22.000000" y="186.311393" fill="rgb(102,102,102)"  stroke="rgb(102,102,102)" stroke-width="1" font-size="16" >HC</text>
<text x="162.087042" y="290.376053" fill="rgb(165,40,40)"  stroke="rgb(165,40,40)" stroke-width="1" font-size="16" >Br</text>
<text x="134.062173" y="220.999613" fill="rgb(255,12,12)"  stroke="rgb(255,12,12)" stroke-width="1" font-size="16" >O</text>
<text x="174.087042" y="151.623173" fill="rgb(255,12,12)"  stroke="rgb(255,12,12)" stroke-width="1" font-size="16" >O</text>
<text x="234.124345" y="48.000000" fill="rgb(127,178,255)"  stroke="rgb(127,178,255)" stroke-width="1" font-size="16" >F</text>
<text x="196.099476" y="116.934953" fill="rgb(102,102,102)"  stroke="rgb(102,102,102)" stroke-width="1" font-size="16" >CH</text>
<text x="220.099476" y="120.614953" fill="rgb(102,102,102)"  stroke="rgb(102,102,102)" stroke-width="1" font-size="13" >3</text>
<text font-size="18.000000" fill ="black" font-family="sans-serif"
x="10.000000" y="20.000000" ></text>
<title> - OBDepict</title>
</svg>
