<?xml version="1.0"?>
<svg xmlns="http://www.w3.org/2000/svg"
xmlns:xlink="http://www.w3.org/1999/xlink" xmlns:cml="http://www.xml-cml.org/schema" width="386.788" height="448.917" x="0" y="0" font-family="sans-serif" stroke="rgb(0,0,0)" stroke-width="1"  stroke-linecap="round">
<rect x="0%" y="0%" width="100%" height="100%" stroke-width="0" fill="rgb(255,255,255)"  />
<line x1="200.7" y1="329.3" x2="162.5" y2="341.6" stroke="rgb(0,0,0)"  stroke-width="1.0"/>
<line x1="198.8" y1="323.6" x2="160.7" y2="335.9" stroke="rgb(0,0,0)"  stroke-width="1.0"/>
<line x1="50.7" y1="287.3" x2="59.2" y2="326.4" stroke="rgb(0,0,0)"  stroke-width="1.0"/>
<line x1="43.5" y1="261.1" x2="50.7" y2="287.3" stroke="rgb(0,0,0)"  stroke-width="1.0"/>
<line x1="47.5" y1="260.0" x2="54.7" y2="286.2" stroke="rgb(0,0,0)"  stroke-width="1.0"/>
<line x1="39.4" y1="262.2" x2="46.6" y2="288.4" stroke="rgb(0,0,0)"  stroke-width="1.0"/>
<line x1="91.1" y1="396.7" x2="107.0" y2="375.1" stroke="rgb(0,0,0)"  stroke-width="1.0"/>
<line x1="95.9" y1="400.2" x2="111.8" y2="378.6" stroke="rgb(0,0,0)"  stroke-width="1.0"/>
<line x1="279.0" y1="117.9" x2="270.3" y2="157.2" stroke="rgb(0,0,0)"  stroke-width="1.0"/>
<line x1="132.1" y1="288.2" x2="132.4" y2="315.1" stroke="rgb(0,0,0)"  stroke-width="1.0"/>
<line x1="126.1" y1="288.2" x2="126.4" y2="315.2" stroke="rgb(0,0,0)"  stroke-width="1.0"/>
<line x1="207.6" y1="287.3" x2="199.7" y2="326.4" stroke="rgb(0,0,0)"  stroke-width="1.0"/>
<line x1="59.2" y1="326.4" x2="84.5" y2="334.7" stroke="rgb(0,0,0)"  stroke-width="1.0"/>
<line x1="229.7" y1="182.0" x2="223.9" y2="208.4" stroke="rgb(0,0,0)"  stroke-width="1.0"/>
<line x1="270.3" y1="157.2" x2="244.8" y2="165.3" stroke="rgb(0,0,0)"  stroke-width="1.0"/>
<line x1="279.3" y1="226.8" x2="253.6" y2="234.6" stroke="rgb(0,0,0)"  stroke-width="1.0"/>
<line x1="337.1" y1="124.3" x2="317.1" y2="106.2" stroke="rgb(0,0,0)"  stroke-width="1.0"/>
<line x1="100.9" y1="351.1" x2="109.4" y2="376.8" stroke="rgb(0,0,0)"  stroke-width="1.0"/>
<line x1="109.4" y1="376.8" x2="136.3" y2="376.8" stroke="rgb(0,0,0)"  stroke-width="1.0"/>
<line x1="153.3" y1="364.5" x2="161.6" y2="338.7" stroke="rgb(0,0,0)"  stroke-width="1.0"/>
<line x1="161.6" y1="338.7" x2="129.4" y2="315.1" stroke="rgb(0,0,0)"  stroke-width="1.0"/>
<line x1="129.4" y1="315.1" x2="107.4" y2="331.1" stroke="rgb(0,0,0)"  stroke-width="1.0"/>
<line x1="253.6" y1="234.6" x2="223.9" y2="208.4" stroke="rgb(0,0,0)"  stroke-width="1.0"/>
<line x1="223.9" y1="208.4" x2="186.2" y2="221.1" stroke="rgb(0,0,0)"  stroke-width="1.0"/>
<line x1="220.6" y1="217.2" x2="194.2" y2="226.0" stroke="rgb(0,0,0)"  stroke-width="1.0"/>
<line x1="186.2" y1="221.1" x2="177.4" y2="260.1" stroke="rgb(0,0,0)"  stroke-width="1.0"/>
<line x1="177.4" y1="260.1" x2="207.6" y2="287.3" stroke="rgb(0,0,0)"  stroke-width="1.0"/>
<line x1="186.6" y1="258.7" x2="208.0" y2="277.9" stroke="rgb(0,0,0)"  stroke-width="1.0"/>
<line x1="207.6" y1="287.3" x2="245.1" y2="274.6" stroke="rgb(0,0,0)"  stroke-width="1.0"/>
<line x1="245.1" y1="274.6" x2="253.6" y2="234.6" stroke="rgb(0,0,0)"  stroke-width="1.0"/>
<line x1="239.3" y1="267.2" x2="245.3" y2="239.0" stroke="rgb(0,0,0)"  stroke-width="1.0"/>
<line x1="279.0" y1="117.9" x2="317.1" y2="106.2" stroke="rgb(0,0,0)"  stroke-width="1.0"/>
<line x1="282.6" y1="109.2" x2="309.3" y2="101.0" stroke="rgb(0,0,0)"  stroke-width="1.0"/>
<line x1="317.1" y1="106.2" x2="325.6" y2="67.2" stroke="rgb(0,0,0)"  stroke-width="1.0"/>
<line x1="325.6" y1="67.2" x2="296.0" y2="40.0" stroke="rgb(0,0,0)"  stroke-width="1.0"/>
<line x1="316.3" y1="68.5" x2="295.5" y2="49.4" stroke="rgb(0,0,0)"  stroke-width="1.0"/>
<line x1="296.0" y1="40.0" x2="257.8" y2="52.7" stroke="rgb(0,0,0)"  stroke-width="1.0"/>
<line x1="257.8" y1="52.7" x2="249.4" y2="92.0" stroke="rgb(0,0,0)"  stroke-width="1.0"/>
<line x1="263.6" y1="60.1" x2="257.7" y2="87.7" stroke="rgb(0,0,0)"  stroke-width="1.0"/>
<line x1="249.4" y1="92.0" x2="279.0" y2="117.9" stroke="rgb(0,0,0)"  stroke-width="1.0"/>
<text x="90.880571" y="346.723558" fill="rgb(12,12,255)"  stroke="rgb(12,12,255)" stroke-width="1" font-size="16" >N</text>
<text x="143.317120" y="384.844251" fill="rgb(178,178,0)"  stroke="rgb(178,178,0)" stroke-width="1" font-size="16" >S</text>
<text x="22.000000" y="256.563710" fill="rgb(102,102,102)"  stroke="rgb(102,102,102)" stroke-width="1" font-size="16" >HC</text>
<text x="79.782632" y="416.916810" fill="rgb(255,12,12)"  stroke="rgb(255,12,12)" stroke-width="1" font-size="16" >O</text>
<text x="122.948283" y="283.189070" fill="rgb(255,12,12)"  stroke="rgb(255,12,12)" stroke-width="1" font-size="16" >O</text>
<text x="226.420813" y="177.293410" fill="rgb(255,12,12)"  stroke="rgb(255,12,12)" stroke-width="1" font-size="16" >O</text>
<text x="285.724514" y="230.946371" fill="rgb(165,40,40)"  stroke="rgb(165,40,40)" stroke-width="1" font-size="16" >Br</text>
<text x="340.787738" y="140.985219" fill="rgb(127,178,255)"  stroke="rgb(127,178,255)" stroke-width="1" font-size="16" >F</text>
<text font-size="18.000000" fill ="black" font-family="sans-serif"
x="10.000000" y="20.000000" ></text>
<title> - OBDepict</title>
</svg>
