<?xml version="1.0"?>
<svg xmlns="http://www.w3.org/2000/svg"
xmlns:xlink="http://www.w3.org/1999/xlink" xmlns:cml="http://www.xml-cml.org/schema" width="365.554" height="313.109" x="0" y="0" font-family="sans-serif" stroke="rgb(0,0,0)" stroke-width="1"  stroke-linecap="round">
<rect x="0%" y="0%" width="100%" height="100%" stroke-width="0" fill="rgb(255,255,255)"  />
<line x1="283.5" y1="95.1" x2="258.5" y2="103.4" stroke="rgb(0,0,0)"  stroke-width="1.0"/>
<line x1="204.4" y1="191.5" x2="165.4" y2="204.1" stroke="rgb(0,0,0)"  stroke-width="1.0"/>
<line x1="202.6" y1="185.8" x2="163.6" y2="198.4" stroke="rgb(0,0,0)"  stroke-width="1.0"/>
<line x1="50.9" y1="148.6" x2="59.6" y2="188.7" stroke="rgb(0,0,0)"  stroke-width="1.0"/>
<line x1="43.5" y1="121.5" x2="50.9" y2="148.6" stroke="rgb(0,0,0)"  stroke-width="1.0"/>
<line x1="47.5" y1="120.4" x2="55.0" y2="147.5" stroke="rgb(0,0,0)"  stroke-width="1.0"/>
<line x1="39.4" y1="122.6" x2="46.9" y2="149.7" stroke="rgb(0,0,0)"  stroke-width="1.0"/>
<line x1="315.7" y1="108.3" x2="305.6" y2="99.5" stroke="rgb(0,0,0)"  stroke-width="1.0"/>
<line x1="92.2" y1="260.9" x2="108.6" y2="238.5" stroke="rgb(0,0,0)"  stroke-width="1.0"/>
<line x1="97.0" y1="264.4" x2="113.4" y2="242.1" stroke="rgb(0,0,0)"  stroke-width="1.0"/>
<line x1="303.8" y1="65.3" x2="301.2" y2="78.8" stroke="rgb(0,0,0)"  stroke-width="1.0"/>
<line x1="297.9" y1="64.2" x2="295.3" y2="77.7" stroke="rgb(0,0,0)"  stroke-width="1.0"/>
<line x1="134.2" y1="149.2" x2="134.5" y2="177.1" stroke="rgb(0,0,0)"  stroke-width="1.0"/>
<line x1="128.2" y1="149.2" x2="128.5" y2="177.1" stroke="rgb(0,0,0)"  stroke-width="1.0"/>
<line x1="212.2" y1="149.0" x2="203.5" y2="188.7" stroke="rgb(0,0,0)"  stroke-width="1.0"/>
<line x1="59.6" y1="188.7" x2="85.9" y2="197.2" stroke="rgb(0,0,0)"  stroke-width="1.0"/>
<line x1="234.0" y1="52.7" x2="228.3" y2="78.4" stroke="rgb(0,0,0)"  stroke-width="1.0"/>
<line x1="102.3" y1="213.6" x2="111.0" y2="240.3" stroke="rgb(0,0,0)"  stroke-width="1.0"/>
<line x1="111.0" y1="240.3" x2="138.9" y2="240.3" stroke="rgb(0,0,0)"  stroke-width="1.0"/>
<line x1="155.9" y1="227.9" x2="164.5" y2="201.3" stroke="rgb(0,0,0)"  stroke-width="1.0"/>
<line x1="164.5" y1="201.3" x2="131.5" y2="177.1" stroke="rgb(0,0,0)"  stroke-width="1.0"/>
<line x1="131.5" y1="177.1" x2="108.7" y2="193.6" stroke="rgb(0,0,0)"  stroke-width="1.0"/>
<line x1="258.5" y1="103.4" x2="228.3" y2="78.4" stroke="rgb(0,0,0)"  stroke-width="1.0"/>
<line x1="228.3" y1="78.4" x2="189.7" y2="87.9" stroke="rgb(0,0,0)"  stroke-width="1.0"/>
<line x1="224.2" y1="86.8" x2="197.2" y2="93.5" stroke="rgb(0,0,0)"  stroke-width="1.0"/>
<line x1="189.7" y1="87.9" x2="181.6" y2="123.8" stroke="rgb(0,0,0)"  stroke-width="1.0"/>
<line x1="181.6" y1="123.8" x2="212.2" y2="149.0" stroke="rgb(0,0,0)"  stroke-width="1.0"/>
<line x1="190.8" y1="122.1" x2="212.1" y2="139.6" stroke="rgb(0,0,0)"  stroke-width="1.0"/>
<line x1="212.2" y1="149.0" x2="250.6" y2="138.7" stroke="rgb(0,0,0)"  stroke-width="1.0"/>
<line x1="250.6" y1="138.7" x2="258.5" y2="103.4" stroke="rgb(0,0,0)"  stroke-width="1.0"/>
<line x1="244.9" y1="131.3" x2="250.1" y2="107.7" stroke="rgb(0,0,0)"  stroke-width="1.0"/>
<text x="92.224291" y="209.258004" fill="rgb(12,12,255)"  stroke="rgb(12,12,255)" stroke-width="1" font-size="16" >N</text>
<text x="145.907868" y="248.283077" fill="rgb(178,178,0)"  stroke="rgb(178,178,0)" stroke-width="1" font-size="16" >S</text>
<text x="300.622466" y="86.966675" fill="rgb(12,12,255)"  stroke="rgb(12,12,255)" stroke-width="1" font-size="16" >+</text>
<text x="289.822466" y="98.998675" fill="rgb(12,12,255)"  stroke="rgb(12,12,255)" stroke-width="1" font-size="16" >N</text>
<text x="22.000000" y="116.963899" fill="rgb(102,102,102)"  stroke="rgb(102,102,102)" stroke-width="1" font-size="16" >HC</text>
<text x="330.354019" y="102.694511" fill="rgb(255,12,12)"  stroke="rgb(255,12,12)" stroke-width="1" font-size="16" >_</text>
<text x="319.554019" y="124.806511" fill="rgb(255,12,12)"  stroke="rgb(255,12,12)" stroke-width="1" font-size="16" >O</text>
<text x="80.867686" y="281.109256" fill="rgb(255,12,12)"  stroke="rgb(255,12,12)" stroke-width="1" font-size="16" >O</text>
<text x="297.255354" y="59.973602" fill="rgb(255,12,12)"  stroke="rgb(255,12,12)" stroke-width="1" font-size="16" >O</text>
<text x="125.055291" y="144.217822" fill="rgb(255,12,12)"  stroke="rgb(255,12,12)" stroke-width="1" font-size="16" >O</text>
<text x="230.769085" y="48.000000" fill="rgb(255,12,12)"  stroke="rgb(255,12,12)" stroke-width="1" font-size="16" >OH</text>
<text font-size="18.000000" fill ="black" font-family="sans-serif"
x="10.000000" y="20.000000" ></text>
<title> - OBDepict</title>
</svg>
