<?xml version="1.0"?>
<svg xmlns="http://www.w3.org/2000/svg"
xmlns:xlink="http://www.w3.org/1999/xlink" xmlns:cml="http://www.xml-cml.org/schema" width="543.435" height="386.654" x="0" y="0" font-family="sans-serif" stroke="rgb(0,0,0)" stroke-width="1"  stroke-linecap="round">
<rect x="0%" y="0%" width="100%" height="100%" stroke-width="0" fill="rgb(255,255,255)"  />
<line x1="346.3" y1="170.0" x2="304.8" y2="182.4" stroke="rgb(0,0,0)"  stroke-width="1.0"/>
<line x1="379.4" y1="189.1" x2="379.4" y2="227.3" stroke="rgb(0,0,0)"  stroke-width="1.0"/>
<line x1="307.7" y1="183.1" x2="299.2" y2="220.0" stroke="rgb(0,0,0)"  stroke-width="1.0"/>
<line x1="301.9" y1="181.7" x2="293.3" y2="218.7" stroke="rgb(0,0,0)"  stroke-width="1.0"/>
<line x1="304.8" y1="182.4" x2="276.6" y2="156.0" stroke="rgb(0,0,0)"  stroke-width="1.0"/>
<line x1="412.5" y1="170.0" x2="442.4" y2="180.1" stroke="rgb(0,0,0)"  stroke-width="1.0"/>
<line x1="379.4" y1="227.3" x2="379.4" y2="252.5" stroke="rgb(0,0,0)"  stroke-width="1.0"/>
<line x1="383.6" y1="227.3" x2="383.6" y2="252.5" stroke="rgb(0,0,0)"  stroke-width="1.0"/>
<line x1="375.2" y1="227.3" x2="375.2" y2="252.5" stroke="rgb(0,0,0)"  stroke-width="1.0"/>
<line x1="296.3" y1="219.3" x2="258.3" y2="231.2" stroke="rgb(0,0,0)"  stroke-width="1.0"/>
<line x1="276.6" y1="156.0" x2="258.5" y2="139.1" stroke="rgb(0,0,0)"  stroke-width="1.0"/>
<line x1="273.8" y1="159.1" x2="255.6" y2="142.2" stroke="rgb(0,0,0)"  stroke-width="1.0"/>
<line x1="279.5" y1="153.0" x2="261.3" y2="136.0" stroke="rgb(0,0,0)"  stroke-width="1.0"/>
<line x1="421.7" y1="122.5" x2="439.6" y2="104.7" stroke="rgb(0,0,0)"  stroke-width="1.0"/>
<line x1="211.2" y1="281.4" x2="205.2" y2="306.9" stroke="rgb(0,0,0)"  stroke-width="1.0"/>
<line x1="191.3" y1="215.5" x2="171.9" y2="197.3" stroke="rgb(0,0,0)"  stroke-width="1.0"/>
<line x1="182.4" y1="254.1" x2="157.0" y2="261.8" stroke="rgb(0,0,0)"  stroke-width="1.0"/>
<line x1="211.7" y1="328.5" x2="221.5" y2="337.7" stroke="rgb(0,0,0)"  stroke-width="1.0"/>
<line x1="135.1" y1="256.6" x2="115.9" y2="238.6" stroke="rgb(0,0,0)"  stroke-width="1.0"/>
<line x1="115.9" y1="238.6" x2="77.6" y2="249.7" stroke="rgb(0,0,0)"  stroke-width="1.0"/>
<line x1="77.6" y1="249.7" x2="52.4" y2="257.5" stroke="rgb(0,0,0)"  stroke-width="1.0"/>
<line x1="78.9" y1="253.7" x2="53.7" y2="261.5" stroke="rgb(0,0,0)"  stroke-width="1.0"/>
<line x1="76.4" y1="245.7" x2="51.2" y2="253.5" stroke="rgb(0,0,0)"  stroke-width="1.0"/>
<line x1="346.3" y1="170.0" x2="379.4" y2="189.1" stroke="rgb(0,0,0)"  stroke-width="1.0"/>
<line x1="379.4" y1="189.1" x2="412.5" y2="170.0" stroke="rgb(0,0,0)"  stroke-width="1.0"/>
<line x1="381.0" y1="179.9" x2="403.7" y2="166.8" stroke="rgb(0,0,0)"  stroke-width="1.0"/>
<line x1="412.5" y1="170.0" x2="412.5" y2="144.7" stroke="rgb(0,0,0)"  stroke-width="1.0"/>
<line x1="399.5" y1="131.7" x2="359.3" y2="131.7" stroke="rgb(0,0,0)"  stroke-width="1.0"/>
<line x1="346.3" y1="144.3" x2="346.3" y2="170.0" stroke="rgb(0,0,0)"  stroke-width="1.0"/>
<line x1="353.5" y1="146.5" x2="353.5" y2="164.0" stroke="rgb(0,0,0)"  stroke-width="1.0"/>
<line x1="258.3" y1="231.2" x2="229.2" y2="204.2" stroke="rgb(0,0,0)"  stroke-width="1.0"/>
<line x1="249.0" y1="232.4" x2="228.7" y2="213.6" stroke="rgb(0,0,0)"  stroke-width="1.0"/>
<line x1="229.2" y1="204.2" x2="191.3" y2="215.5" stroke="rgb(0,0,0)"  stroke-width="1.0"/>
<line x1="191.3" y1="215.5" x2="182.4" y2="254.1" stroke="rgb(0,0,0)"  stroke-width="1.0"/>
<line x1="197.0" y1="223.0" x2="190.8" y2="249.8" stroke="rgb(0,0,0)"  stroke-width="1.0"/>
<line x1="182.4" y1="254.1" x2="211.2" y2="281.4" stroke="rgb(0,0,0)"  stroke-width="1.0"/>
<line x1="211.2" y1="281.4" x2="249.0" y2="269.5" stroke="rgb(0,0,0)"  stroke-width="1.0"/>
<line x1="214.7" y1="272.7" x2="241.1" y2="264.5" stroke="rgb(0,0,0)"  stroke-width="1.0"/>
<line x1="249.0" y1="269.5" x2="258.3" y2="231.2" stroke="rgb(0,0,0)"  stroke-width="1.0"/>
<line x1="439.6" y1="104.7" x2="476.2" y2="114.4" stroke="rgb(0,0,0)"  stroke-width="1.0"/>
<line x1="476.2" y1="114.4" x2="503.4" y2="87.5" stroke="rgb(0,0,0)"  stroke-width="1.0"/>
<line x1="475.4" y1="105.0" x2="494.1" y2="86.6" stroke="rgb(0,0,0)"  stroke-width="1.0"/>
<line x1="503.4" y1="87.5" x2="493.6" y2="50.4" stroke="rgb(0,0,0)"  stroke-width="1.0"/>
<line x1="493.6" y1="50.4" x2="456.5" y2="40.0" stroke="rgb(0,0,0)"  stroke-width="1.0"/>
<line x1="485.9" y1="55.7" x2="460.4" y2="48.5" stroke="rgb(0,0,0)"  stroke-width="1.0"/>
<line x1="456.5" y1="40.0" x2="429.6" y2="67.1" stroke="rgb(0,0,0)"  stroke-width="1.0"/>
<line x1="429.6" y1="67.1" x2="439.6" y2="104.7" stroke="rgb(0,0,0)"  stroke-width="1.0"/>
<line x1="438.1" y1="71.0" x2="445.0" y2="97.1" stroke="rgb(0,0,0)"  stroke-width="1.0"/>
<text x="340.290103" y="139.664151" fill="rgb(12,12,255)"  stroke="rgb(12,12,255)" stroke-width="1" font-size="16" >N</text>
<text x="406.493039" y="139.664151" fill="rgb(12,12,255)"  stroke="rgb(12,12,255)" stroke-width="1" font-size="16" >N</text>
<text x="450.693869" y="192.234571" fill="rgb(12,12,255)"  stroke="rgb(12,12,255)" stroke-width="1" font-size="16" >NH</text>
<text x="474.693869" y="195.914571" fill="rgb(12,12,255)"  stroke="rgb(12,12,255)" stroke-width="1" font-size="13" >2</text>
<text x="373.391571" y="273.533854" fill="rgb(12,12,255)"  stroke="rgb(12,12,255)" stroke-width="1" font-size="16" >N</text>
<text x="242.983120" y="138.209764" fill="rgb(12,12,255)"  stroke="rgb(12,12,255)" stroke-width="1" font-size="16" >N</text>
<text x="196.239692" y="327.553938" fill="rgb(255,12,12)"  stroke="rgb(255,12,12)" stroke-width="1" font-size="16" >O</text>
<text x="156.404601" y="196.413572" fill="rgb(147,0,147)"  stroke="rgb(147,0,147)" stroke-width="1" font-size="16" >I</text>
<text x="138.583640" y="273.533854" fill="rgb(255,12,12)"  stroke="rgb(255,12,12)" stroke-width="1" font-size="16" >O</text>
<text x="226.977999" y="354.653700" fill="rgb(102,102,102)"  stroke="rgb(102,102,102)" stroke-width="1" font-size="16" >CH</text>
<text x="250.977999" y="358.333700" fill="rgb(102,102,102)"  stroke="rgb(102,102,102)" stroke-width="1" font-size="13" >3</text>
<text x="22.000000" y="269.345408" fill="rgb(102,102,102)"  stroke="rgb(102,102,102)" stroke-width="1" font-size="16" >HC</text>
<text font-size="18.000000" fill ="black" font-family="sans-serif"
x="10.000000" y="20.000000" ></text>
<title> - OBDepict</title>
</svg>
