<?xml version="1.0"?>
<svg xmlns="http://www.w3.org/2000/svg"
xmlns:xlink="http://www.w3.org/1999/xlink" xmlns:cml="http://www.xml-cml.org/schema" width="450.249" height="293.727" x="0" y="0" font-family="sans-serif" stroke="rgb(0,0,0)" stroke-width="1"  stroke-linecap="round">
<rect x="0%" y="0%" width="100%" height="100%" stroke-width="0" fill="rgb(255,255,255)"  />
<line x1="331.6" y1="150.2" x2="309.2" y2="137.6" stroke="rgb(0,0,0)"  stroke-width="1.0"/>
<line x1="209.9" y1="76.3" x2="243.6" y2="95.7" stroke="rgb(0,0,0)"  stroke-width="1.0"/>
<line x1="206.9" y1="81.5" x2="240.6" y2="100.9" stroke="rgb(0,0,0)"  stroke-width="1.0"/>
<line x1="174.7" y1="98.3" x2="208.4" y2="78.9" stroke="rgb(0,0,0)"  stroke-width="1.0"/>
<line x1="376.6" y1="137.1" x2="354.2" y2="150.1" stroke="rgb(0,0,0)"  stroke-width="1.0"/>
<line x1="40.0" y1="214.9" x2="73.7" y2="195.4" stroke="rgb(0,0,0)"  stroke-width="1.0"/>
<line x1="40.0" y1="240.7" x2="40.0" y2="214.9" stroke="rgb(0,0,0)"  stroke-width="1.0"/>
<line x1="35.8" y1="240.7" x2="35.8" y2="214.9" stroke="rgb(0,0,0)"  stroke-width="1.0"/>
<line x1="44.2" y1="240.7" x2="44.2" y2="214.9" stroke="rgb(0,0,0)"  stroke-width="1.0"/>
<line x1="278.5" y1="53.0" x2="278.5" y2="78.9" stroke="rgb(0,0,0)"  stroke-width="1.0"/>
<line x1="272.5" y1="53.0" x2="272.5" y2="78.9" stroke="rgb(0,0,0)"  stroke-width="1.0"/>
<line x1="379.3" y1="111.3" x2="379.6" y2="137.1" stroke="rgb(0,0,0)"  stroke-width="1.0"/>
<line x1="373.3" y1="111.3" x2="373.6" y2="137.2" stroke="rgb(0,0,0)"  stroke-width="1.0"/>
<line x1="141.0" y1="182.4" x2="141.0" y2="156.6" stroke="rgb(0,0,0)"  stroke-width="1.0"/>
<line x1="84.9" y1="150.1" x2="107.4" y2="137.1" stroke="rgb(0,0,0)"  stroke-width="1.0"/>
<line x1="84.9" y1="85.4" x2="107.4" y2="98.3" stroke="rgb(0,0,0)"  stroke-width="1.0"/>
<line x1="73.7" y1="195.4" x2="73.7" y2="169.6" stroke="rgb(0,0,0)"  stroke-width="1.0"/>
<line x1="399.0" y1="149.9" x2="376.6" y2="137.1" stroke="rgb(0,0,0)"  stroke-width="1.0"/>
<line x1="73.7" y1="53.0" x2="73.7" y2="65.9" stroke="rgb(0,0,0)"  stroke-width="1.0"/>
<line x1="298.0" y1="91.8" x2="275.5" y2="78.9" stroke="rgb(0,0,0)"  stroke-width="1.0"/>
<line x1="275.5" y1="78.9" x2="242.1" y2="98.3" stroke="rgb(0,0,0)"  stroke-width="1.0"/>
<line x1="242.1" y1="98.3" x2="242.1" y2="124.1" stroke="rgb(0,0,0)"  stroke-width="1.0"/>
<line x1="255.1" y1="137.2" x2="309.2" y2="137.6" stroke="rgb(0,0,0)"  stroke-width="1.0"/>
<line x1="309.2" y1="137.6" x2="309.2" y2="111.3" stroke="rgb(0,0,0)"  stroke-width="1.0"/>
<line x1="302.0" y1="131.6" x2="302.0" y2="113.3" stroke="rgb(0,0,0)"  stroke-width="1.0"/>
<line x1="141.0" y1="156.6" x2="107.4" y2="137.1" stroke="rgb(0,0,0)"  stroke-width="1.0"/>
<line x1="139.4" y1="147.3" x2="116.2" y2="133.9" stroke="rgb(0,0,0)"  stroke-width="1.0"/>
<line x1="107.4" y1="137.1" x2="107.4" y2="98.3" stroke="rgb(0,0,0)"  stroke-width="1.0"/>
<line x1="107.4" y1="98.3" x2="141.0" y2="78.9" stroke="rgb(0,0,0)"  stroke-width="1.0"/>
<line x1="116.2" y1="101.5" x2="139.4" y2="88.1" stroke="rgb(0,0,0)"  stroke-width="1.0"/>
<line x1="141.0" y1="78.9" x2="174.7" y2="98.3" stroke="rgb(0,0,0)"  stroke-width="1.0"/>
<line x1="174.7" y1="98.3" x2="174.7" y2="137.1" stroke="rgb(0,0,0)"  stroke-width="1.0"/>
<line x1="167.5" y1="104.3" x2="167.5" y2="131.1" stroke="rgb(0,0,0)"  stroke-width="1.0"/>
<line x1="174.7" y1="137.1" x2="141.0" y2="156.6" stroke="rgb(0,0,0)"  stroke-width="1.0"/>
<text x="303.212736" y="106.289680" fill="rgb(12,12,255)"  stroke="rgb(12,12,255)" stroke-width="1" font-size="16" >N</text>
<text x="236.072148" y="145.147896" fill="rgb(178,178,0)"  stroke="rgb(178,178,0)" stroke-width="1" font-size="16" >S</text>
<text x="336.891427" y="164.579361" fill="rgb(12,12,255)"  stroke="rgb(12,12,255)" stroke-width="1" font-size="16" >N</text>
<text x="336.891427" y="180.579361" fill="rgb(12,12,255)"  stroke="rgb(12,12,255)" stroke-width="1" font-size="16" >H</text>
<text x="34.000000" y="261.727257" fill="rgb(102,102,102)"  stroke="rgb(102,102,102)" stroke-width="1" font-size="16" >CH</text>
<text x="269.534044" y="48.000000" fill="rgb(255,12,12)"  stroke="rgb(255,12,12)" stroke-width="1" font-size="16" >O</text>
<text x="370.141241" y="106.289680" fill="rgb(255,12,12)"  stroke="rgb(255,12,12)" stroke-width="1" font-size="16" >O</text>
<text x="135.036074" y="203.437576" fill="rgb(165,40,40)"  stroke="rgb(165,40,40)" stroke-width="1" font-size="16" >Br</text>
<text x="67.678691" y="164.579361" fill="rgb(255,12,12)"  stroke="rgb(255,12,12)" stroke-width="1" font-size="16" >O</text>
<text x="67.678691" y="86.858216" fill="rgb(255,12,12)"  stroke="rgb(255,12,12)" stroke-width="1" font-size="16" >O</text>
<text x="406.248810" y="164.362565" fill="rgb(102,102,102)"  stroke="rgb(102,102,102)" stroke-width="1" font-size="16" >CH</text>
<text x="430.248810" y="168.042565" fill="rgb(102,102,102)"  stroke="rgb(102,102,102)" stroke-width="1" font-size="13" >3</text>
<text x="69.678691" y="48.000000" fill="rgb(102,102,102)"  stroke="rgb(102,102,102)" stroke-width="1" font-size="16" >CH</text>
<text x="93.678691" y="51.680000" fill="rgb(102,102,102)"  stroke="rgb(102,102,102)" stroke-width="1" font-size="13" >3</text>
<text font-size="18.000000" fill ="black" font-family="sans-serif"
x="10.000000" y="20.000000" ></text>
<title> - OBDepict</title>
</svg>
