<?xml version="1.0"?>
<svg xmlns="http://www.w3.org/2000/svg"
xmlns:xlink="http://www.w3.org/1999/xlink" xmlns:cml="http://www.xml-cml.org/schema" width="440.774" height="290.133" x="0" y="0" font-family="sans-serif" stroke="rgb(0,0,0)" stroke-width="1"  stroke-linecap="round">
<rect x="0%" y="0%" width="100%" height="100%" stroke-width="0" fill="rgb(255,255,255)"  />
<line x1="265.0" y1="86.1" x2="288.1" y2="99.6" stroke="rgb(0,0,0)"  stroke-width="1.0"/>
<line x1="262.0" y1="91.3" x2="285.1" y2="104.7" stroke="rgb(0,0,0)"  stroke-width="1.0"/>
<line x1="149.2" y1="102.2" x2="183.5" y2="82.2" stroke="rgb(0,0,0)"  stroke-width="1.0"/>
<line x1="183.5" y1="82.2" x2="206.6" y2="95.6" stroke="rgb(0,0,0)"  stroke-width="1.0"/>
<line x1="229.0" y1="95.6" x2="241.0" y2="88.7" stroke="rgb(0,0,0)"  stroke-width="1.0"/>
<line x1="322.3" y1="218.3" x2="345.9" y2="186.1" stroke="rgb(0,0,0)"  stroke-width="1.0"/>
<line x1="306.8" y1="239.6" x2="322.3" y2="218.3" stroke="rgb(0,0,0)"  stroke-width="1.0"/>
<line x1="303.4" y1="237.2" x2="318.9" y2="215.8" stroke="rgb(0,0,0)"  stroke-width="1.0"/>
<line x1="310.2" y1="242.1" x2="325.7" y2="220.8" stroke="rgb(0,0,0)"  stroke-width="1.0"/>
<line x1="269.1" y1="157.0" x2="288.6" y2="139.3" stroke="rgb(0,0,0)"  stroke-width="1.0"/>
<line x1="273.1" y1="161.5" x2="292.6" y2="143.7" stroke="rgb(0,0,0)"  stroke-width="1.0"/>
<line x1="186.5" y1="55.5" x2="186.5" y2="82.2" stroke="rgb(0,0,0)"  stroke-width="1.0"/>
<line x1="180.5" y1="55.5" x2="180.5" y2="82.2" stroke="rgb(0,0,0)"  stroke-width="1.0"/>
<line x1="345.9" y1="186.1" x2="334.9" y2="161.5" stroke="rgb(0,0,0)"  stroke-width="1.0"/>
<line x1="172.2" y1="155.1" x2="149.2" y2="141.8" stroke="rgb(0,0,0)"  stroke-width="1.0"/>
<line x1="51.0" y1="83.9" x2="80.3" y2="102.2" stroke="rgb(0,0,0)"  stroke-width="1.0"/>
<line x1="290.6" y1="141.5" x2="316.9" y2="147.0" stroke="rgb(0,0,0)"  stroke-width="1.0"/>
<line x1="336.1" y1="138.4" x2="349.4" y2="115.3" stroke="rgb(0,0,0)"  stroke-width="1.0"/>
<line x1="349.4" y1="115.3" x2="323.0" y2="86.0" stroke="rgb(0,0,0)"  stroke-width="1.0"/>
<line x1="340.1" y1="115.7" x2="321.6" y2="95.3" stroke="rgb(0,0,0)"  stroke-width="1.0"/>
<line x1="323.0" y1="86.0" x2="286.6" y2="102.2" stroke="rgb(0,0,0)"  stroke-width="1.0"/>
<line x1="286.6" y1="102.2" x2="290.6" y2="141.5" stroke="rgb(0,0,0)"  stroke-width="1.0"/>
<line x1="149.2" y1="102.2" x2="149.2" y2="141.8" stroke="rgb(0,0,0)"  stroke-width="1.0"/>
<line x1="142.0" y1="108.2" x2="142.0" y2="135.8" stroke="rgb(0,0,0)"  stroke-width="1.0"/>
<line x1="149.2" y1="141.8" x2="114.7" y2="161.6" stroke="rgb(0,0,0)"  stroke-width="1.0"/>
<line x1="114.7" y1="161.6" x2="80.3" y2="141.8" stroke="rgb(0,0,0)"  stroke-width="1.0"/>
<line x1="113.1" y1="152.4" x2="89.1" y2="138.6" stroke="rgb(0,0,0)"  stroke-width="1.0"/>
<line x1="80.3" y1="141.8" x2="80.3" y2="102.2" stroke="rgb(0,0,0)"  stroke-width="1.0"/>
<line x1="80.3" y1="102.2" x2="114.7" y2="82.0" stroke="rgb(0,0,0)"  stroke-width="1.0"/>
<line x1="89.1" y1="105.3" x2="113.1" y2="91.2" stroke="rgb(0,0,0)"  stroke-width="1.0"/>
<line x1="114.7" y1="82.0" x2="149.2" y2="102.2" stroke="rgb(0,0,0)"  stroke-width="1.0"/>
<line x1="349.4" y1="115.3" x2="388.4" y2="107.3" stroke="rgb(0,0,0)"  stroke-width="1.0"/>
<line x1="388.4" y1="107.3" x2="400.8" y2="69.7" stroke="rgb(0,0,0)"  stroke-width="1.0"/>
<line x1="383.5" y1="99.4" x2="392.1" y2="73.1" stroke="rgb(0,0,0)"  stroke-width="1.0"/>
<line x1="400.8" y1="69.7" x2="373.9" y2="40.0" stroke="rgb(0,0,0)"  stroke-width="1.0"/>
<line x1="373.9" y1="40.0" x2="335.3" y2="48.3" stroke="rgb(0,0,0)"  stroke-width="1.0"/>
<line x1="369.6" y1="48.3" x2="342.7" y2="54.1" stroke="rgb(0,0,0)"  stroke-width="1.0"/>
<line x1="335.3" y1="48.3" x2="323.0" y2="86.0" stroke="rgb(0,0,0)"  stroke-width="1.0"/>
<text x="323.618977" y="157.647926" fill="rgb(12,12,255)"  stroke="rgb(12,12,255)" stroke-width="1" font-size="16" >N</text>
<text x="246.296229" y="90.156378" fill="rgb(12,12,255)"  stroke="rgb(12,12,255)" stroke-width="1" font-size="16" >N</text>
<text x="211.802899" y="110.155298" fill="rgb(12,12,255)"  stroke="rgb(12,12,255)" stroke-width="1" font-size="16" >N</text>
<text x="211.802899" y="126.155298" fill="rgb(12,12,255)"  stroke="rgb(12,12,255)" stroke-width="1" font-size="16" >H</text>
<text x="281.125431" y="258.132884" fill="rgb(102,102,102)"  stroke="rgb(102,102,102)" stroke-width="1" font-size="16" >HC</text>
<text x="255.464003" y="175.978667" fill="rgb(255,12,12)"  stroke="rgb(255,12,12)" stroke-width="1" font-size="16" >O</text>
<text x="177.477830" y="50.495058" fill="rgb(255,12,12)"  stroke="rgb(255,12,12)" stroke-width="1" font-size="16" >O</text>
<text x="177.477830" y="169.647278" fill="rgb(255,12,12)"  stroke="rgb(255,12,12)" stroke-width="1" font-size="16" >OH</text>
<text x="22.000000" y="84.993195" fill="rgb(30,239,30)"  stroke="rgb(30,239,30)" stroke-width="1" font-size="16" >Cl</text>
<text font-size="18.000000" fill ="black" font-family="sans-serif"
x="10.000000" y="20.000000" ></text>
<title> - OBDepict</title>
</svg>
