<?xml version="1.0"?>
<svg xmlns="http://www.w3.org/2000/svg"
xmlns:xlink="http://www.w3.org/1999/xlink" xmlns:cml="http://www.xml-cml.org/schema" width="417.513" height="350.252" x="0" y="0" font-family="sans-serif" stroke="rgb(0,0,0)" stroke-width="1"  stroke-linecap="round">
<rect x="0%" y="0%" width="100%" height="100%" stroke-width="0" fill="rgb(255,255,255)"  />
<line x1="247.4" y1="188.5" x2="239.0" y2="227.6" stroke="rgb(0,0,0)"  stroke-width="1.0"/>
<line x1="239.9" y1="230.5" x2="201.7" y2="242.8" stroke="rgb(0,0,0)"  stroke-width="1.0"/>
<line x1="238.0" y1="224.8" x2="199.9" y2="237.1" stroke="rgb(0,0,0)"  stroke-width="1.0"/>
<line x1="309.6" y1="106.0" x2="289.6" y2="124.0" stroke="rgb(0,0,0)"  stroke-width="1.0"/>
<line x1="68.5" y1="254.5" x2="98.4" y2="227.6" stroke="rgb(0,0,0)"  stroke-width="1.0"/>
<line x1="49.2" y1="273.6" x2="68.5" y2="254.5" stroke="rgb(0,0,0)"  stroke-width="1.0"/>
<line x1="46.3" y1="270.6" x2="65.5" y2="251.5" stroke="rgb(0,0,0)"  stroke-width="1.0"/>
<line x1="52.2" y1="276.6" x2="71.4" y2="257.5" stroke="rgb(0,0,0)"  stroke-width="1.0"/>
<line x1="130.3" y1="298.0" x2="146.0" y2="276.4" stroke="rgb(0,0,0)"  stroke-width="1.0"/>
<line x1="135.1" y1="301.5" x2="150.9" y2="279.9" stroke="rgb(0,0,0)"  stroke-width="1.0"/>
<line x1="171.5" y1="189.3" x2="171.5" y2="216.3" stroke="rgb(0,0,0)"  stroke-width="1.0"/>
<line x1="165.5" y1="189.3" x2="165.5" y2="216.3" stroke="rgb(0,0,0)"  stroke-width="1.0"/>
<line x1="98.4" y1="227.6" x2="124.0" y2="235.9" stroke="rgb(0,0,0)"  stroke-width="1.0"/>
<line x1="229.7" y1="99.5" x2="240.8" y2="124.2" stroke="rgb(0,0,0)"  stroke-width="1.0"/>
<line x1="307.1" y1="185.9" x2="283.8" y2="172.1" stroke="rgb(0,0,0)"  stroke-width="1.0"/>
<line x1="146.8" y1="232.3" x2="168.5" y2="216.3" stroke="rgb(0,0,0)"  stroke-width="1.0"/>
<line x1="168.5" y1="216.3" x2="200.8" y2="240.0" stroke="rgb(0,0,0)"  stroke-width="1.0"/>
<line x1="200.8" y1="240.0" x2="192.5" y2="265.8" stroke="rgb(0,0,0)"  stroke-width="1.0"/>
<line x1="175.5" y1="278.1" x2="148.5" y2="278.1" stroke="rgb(0,0,0)"  stroke-width="1.0"/>
<line x1="148.5" y1="278.1" x2="140.3" y2="252.4" stroke="rgb(0,0,0)"  stroke-width="1.0"/>
<line x1="247.4" y1="188.5" x2="220.8" y2="158.8" stroke="rgb(0,0,0)"  stroke-width="1.0"/>
<line x1="220.8" y1="158.8" x2="240.8" y2="124.2" stroke="rgb(0,0,0)"  stroke-width="1.0"/>
<line x1="230.0" y1="157.2" x2="244.0" y2="133.0" stroke="rgb(0,0,0)"  stroke-width="1.0"/>
<line x1="240.8" y1="124.2" x2="267.3" y2="130.0" stroke="rgb(0,0,0)"  stroke-width="1.0"/>
<line x1="281.2" y1="145.7" x2="283.8" y2="172.1" stroke="rgb(0,0,0)"  stroke-width="1.0"/>
<line x1="283.8" y1="172.1" x2="247.4" y2="188.5" stroke="rgb(0,0,0)"  stroke-width="1.0"/>
<line x1="275.4" y1="168.0" x2="250.0" y2="179.4" stroke="rgb(0,0,0)"  stroke-width="1.0"/>
<line x1="309.6" y1="106.0" x2="304.0" y2="79.4" stroke="rgb(0,0,0)"  stroke-width="1.0"/>
<line x1="311.3" y1="57.9" x2="331.5" y2="40.0" stroke="rgb(0,0,0)"  stroke-width="1.0"/>
<line x1="317.6" y1="61.9" x2="331.7" y2="49.4" stroke="rgb(0,0,0)"  stroke-width="1.0"/>
<line x1="331.5" y1="40.0" x2="369.2" y2="52.7" stroke="rgb(0,0,0)"  stroke-width="1.0"/>
<line x1="369.2" y1="52.7" x2="377.5" y2="91.5" stroke="rgb(0,0,0)"  stroke-width="1.0"/>
<line x1="363.4" y1="60.1" x2="369.2" y2="87.1" stroke="rgb(0,0,0)"  stroke-width="1.0"/>
<line x1="377.5" y1="91.5" x2="347.8" y2="118.6" stroke="rgb(0,0,0)"  stroke-width="1.0"/>
<line x1="347.8" y1="118.6" x2="309.6" y2="106.0" stroke="rgb(0,0,0)"  stroke-width="1.0"/>
<line x1="344.4" y1="109.9" x2="317.6" y2="101.1" stroke="rgb(0,0,0)"  stroke-width="1.0"/>
<text x="130.348494" y="247.960145" fill="rgb(12,12,255)"  stroke="rgb(12,12,255)" stroke-width="1" font-size="16" >N</text>
<text x="273.956058" y="140.712061" fill="rgb(12,12,255)"  stroke="rgb(12,12,255)" stroke-width="1" font-size="16" >N</text>
<text x="182.457760" y="286.135414" fill="rgb(178,178,0)"  stroke="rgb(178,178,0)" stroke-width="1" font-size="16" >S</text>
<text x="22.000000" y="290.781698" fill="rgb(102,102,102)"  stroke="rgb(102,102,102)" stroke-width="1" font-size="16" >HC</text>
<text x="119.036224" y="318.251578" fill="rgb(255,12,12)"  stroke="rgb(255,12,12)" stroke-width="1" font-size="16" >O</text>
<text x="162.459804" y="184.339552" fill="rgb(255,12,12)"  stroke="rgb(255,12,12)" stroke-width="1" font-size="16" >O</text>
<text x="295.366834" y="74.659087" fill="rgb(12,12,255)"  stroke="rgb(12,12,255)" stroke-width="1" font-size="16" >N</text>
<text x="198.414270" y="95.666894" fill="rgb(102,102,102)"  stroke="rgb(102,102,102)" stroke-width="1" font-size="16" >H</text>
<text x="210.414270" y="99.346894" fill="rgb(102,102,102)"  stroke="rgb(102,102,102)" stroke-width="1" font-size="13" >3</text>
<text x="216.914270" y="95.666894" fill="rgb(102,102,102)"  stroke="rgb(102,102,102)" stroke-width="1" font-size="16" >C</text>
<text x="314.335239" y="200.497163" fill="rgb(102,102,102)"  stroke="rgb(102,102,102)" stroke-width="1" font-size="16" >CH</text>
<text x="338.335239" y="204.177163" fill="rgb(102,102,102)"  stroke="rgb(102,102,102)" stroke-width="1" font-size="13" >3</text>
<text font-size="18.000000" fill ="black" font-family="sans-serif"
x="10.000000" y="20.000000" ></text>
<title> - OBDepict</title>
</svg>
