<?xml version="1.0"?>
<svg xmlns="http://www.w3.org/2000/svg"
xmlns:xlink="http://www.w3.org/1999/xlink" xmlns:cml="http://www.xml-cml.org/schema" width="555.29" height="313.604" x="0" y="0" font-family="sans-serif" stroke="rgb(0,0,0)" stroke-width="1"  stroke-linecap="round">
<rect x="0%" y="0%" width="100%" height="100%" stroke-width="0" fill="rgb(255,255,255)"  />
<line x1="301.6" y1="147.1" x2="274.6" y2="146.9" stroke="rgb(0,0,0)"  stroke-width="1.0"/>
<line x1="301.7" y1="141.1" x2="274.6" y2="140.9" stroke="rgb(0,0,0)"  stroke-width="1.0"/>
<line x1="334.6" y1="109.7" x2="321.1" y2="133.0" stroke="rgb(0,0,0)"  stroke-width="1.0"/>
<line x1="397.2" y1="76.9" x2="377.2" y2="111.2" stroke="rgb(0,0,0)"  stroke-width="1.0"/>
<line x1="392.1" y1="73.9" x2="372.0" y2="108.2" stroke="rgb(0,0,0)"  stroke-width="1.0"/>
<line x1="236.6" y1="243.9" x2="263.3" y2="214.2" stroke="rgb(0,0,0)"  stroke-width="1.0"/>
<line x1="374.6" y1="109.7" x2="334.6" y2="109.7" stroke="rgb(0,0,0)"  stroke-width="1.0"/>
<line x1="218.6" y1="263.9" x2="236.6" y2="243.9" stroke="rgb(0,0,0)"  stroke-width="1.0"/>
<line x1="215.5" y1="261.1" x2="233.5" y2="241.1" stroke="rgb(0,0,0)"  stroke-width="1.0"/>
<line x1="221.8" y1="266.7" x2="239.7" y2="246.7" stroke="rgb(0,0,0)"  stroke-width="1.0"/>
<line x1="74.6" y1="123.7" x2="97.5" y2="110.2" stroke="rgb(0,0,0)"  stroke-width="1.0"/>
<line x1="120.0" y1="110.1" x2="143.9" y2="123.9" stroke="rgb(0,0,0)"  stroke-width="1.0"/>
<line x1="434.3" y1="74.8" x2="394.7" y2="75.4" stroke="rgb(0,0,0)"  stroke-width="1.0"/>
<line x1="263.3" y1="214.2" x2="255.1" y2="188.4" stroke="rgb(0,0,0)"  stroke-width="1.0"/>
<line x1="323.7" y1="84.9" x2="337.2" y2="108.2" stroke="rgb(0,0,0)"  stroke-width="1.0"/>
<line x1="318.5" y1="87.9" x2="332.0" y2="111.2" stroke="rgb(0,0,0)"  stroke-width="1.0"/>
<line x1="52.8" y1="107.6" x2="76.1" y2="121.1" stroke="rgb(0,0,0)"  stroke-width="1.0"/>
<line x1="49.7" y1="112.8" x2="73.1" y2="126.3" stroke="rgb(0,0,0)"  stroke-width="1.0"/>
<line x1="441.3" y1="133.2" x2="454.9" y2="109.3" stroke="rgb(0,0,0)"  stroke-width="1.0"/>
<line x1="74.3" y1="150.7" x2="74.6" y2="123.7" stroke="rgb(0,0,0)"  stroke-width="1.0"/>
<line x1="274.6" y1="143.9" x2="258.8" y2="122.1" stroke="rgb(0,0,0)"  stroke-width="1.0"/>
<line x1="238.8" y1="115.5" x2="213.0" y2="123.9" stroke="rgb(0,0,0)"  stroke-width="1.0"/>
<line x1="213.0" y1="123.9" x2="213.0" y2="163.9" stroke="rgb(0,0,0)"  stroke-width="1.0"/>
<line x1="220.2" y1="129.9" x2="220.2" y2="157.9" stroke="rgb(0,0,0)"  stroke-width="1.0"/>
<line x1="213.0" y1="163.9" x2="238.8" y2="172.1" stroke="rgb(0,0,0)"  stroke-width="1.0"/>
<line x1="258.8" y1="165.5" x2="274.6" y2="143.9" stroke="rgb(0,0,0)"  stroke-width="1.0"/>
<line x1="434.3" y1="74.8" x2="454.9" y2="109.3" stroke="rgb(0,0,0)"  stroke-width="1.0"/>
<line x1="443.5" y1="76.2" x2="458.0" y2="100.5" stroke="rgb(0,0,0)"  stroke-width="1.0"/>
<line x1="454.9" y1="109.3" x2="495.5" y2="108.7" stroke="rgb(0,0,0)"  stroke-width="1.0"/>
<line x1="495.5" y1="108.7" x2="515.3" y2="74.6" stroke="rgb(0,0,0)"  stroke-width="1.0"/>
<line x1="492.3" y1="99.9" x2="506.1" y2="76.1" stroke="rgb(0,0,0)"  stroke-width="1.0"/>
<line x1="515.3" y1="74.6" x2="494.9" y2="40.0" stroke="rgb(0,0,0)"  stroke-width="1.0"/>
<line x1="494.9" y1="40.0" x2="454.7" y2="40.4" stroke="rgb(0,0,0)"  stroke-width="1.0"/>
<line x1="489.0" y1="47.3" x2="460.7" y2="47.5" stroke="rgb(0,0,0)"  stroke-width="1.0"/>
<line x1="454.7" y1="40.4" x2="434.3" y2="74.8" stroke="rgb(0,0,0)"  stroke-width="1.0"/>
<line x1="178.4" y1="103.9" x2="213.0" y2="123.9" stroke="rgb(0,0,0)"  stroke-width="1.0"/>
<line x1="213.0" y1="163.9" x2="178.4" y2="183.9" stroke="rgb(0,0,0)"  stroke-width="1.0"/>
<line x1="178.4" y1="183.9" x2="143.9" y2="163.9" stroke="rgb(0,0,0)"  stroke-width="1.0"/>
<line x1="176.8" y1="174.6" x2="152.7" y2="160.6" stroke="rgb(0,0,0)"  stroke-width="1.0"/>
<line x1="143.9" y1="163.9" x2="143.9" y2="123.9" stroke="rgb(0,0,0)"  stroke-width="1.0"/>
<line x1="143.9" y1="123.9" x2="178.4" y2="103.9" stroke="rgb(0,0,0)"  stroke-width="1.0"/>
<line x1="152.7" y1="127.1" x2="176.8" y2="113.1" stroke="rgb(0,0,0)"  stroke-width="1.0"/>
<text x="245.174830" y="183.999089" fill="rgb(12,12,255)"  stroke="rgb(12,12,255)" stroke-width="1" font-size="16" >N</text>
<text x="308.627513" y="152.272748" fill="rgb(12,12,255)"  stroke="rgb(12,12,255)" stroke-width="1" font-size="16" >N</text>
<text x="245.174830" y="119.534378" fill="rgb(178,178,0)"  stroke="rgb(178,178,0)" stroke-width="1" font-size="16" >S</text>
<text x="191.952860" y="281.604075" fill="rgb(102,102,102)"  stroke="rgb(102,102,102)" stroke-width="1" font-size="16" >HC</text>
<text x="102.711354" y="111.651215" fill="rgb(12,12,255)"  stroke="rgb(12,12,255)" stroke-width="1" font-size="16" >N</text>
<text x="102.711354" y="95.651215" fill="rgb(12,12,255)"  stroke="rgb(12,12,255)" stroke-width="1" font-size="16" >H</text>
<text x="308.627513" y="83.159488" fill="rgb(255,12,12)"  stroke="rgb(255,12,12)" stroke-width="1" font-size="16" >O</text>
<text x="34.000000" y="111.651215" fill="rgb(255,12,12)"  stroke="rgb(255,12,12)" stroke-width="1" font-size="16" >O</text>
<text x="416.865119" y="152.476122" fill="rgb(30,239,30)"  stroke="rgb(30,239,30)" stroke-width="1" font-size="16" >Cl</text>
<text x="48.157145" y="171.670752" fill="rgb(102,102,102)"  stroke="rgb(102,102,102)" stroke-width="1" font-size="16" >H</text>
<text x="60.157145" y="175.350752" fill="rgb(102,102,102)"  stroke="rgb(102,102,102)" stroke-width="1" font-size="13" >3</text>
<text x="66.657145" y="171.670752" fill="rgb(102,102,102)"  stroke="rgb(102,102,102)" stroke-width="1" font-size="16" >C</text>
<text font-size="18.000000" fill ="black" font-family="sans-serif"
x="10.000000" y="20.000000" ></text>
<title> - OBDepict</title>
</svg>
