<?xml version="1.0"?>
<svg xmlns="http://www.w3.org/2000/svg"
xmlns:xlink="http://www.w3.org/1999/xlink" xmlns:cml="http://www.xml-cml.org/schema" width="530.19" height="279.511" x="0" y="0" font-family="sans-serif" stroke="rgb(0,0,0)" stroke-width="1"  stroke-linecap="round">
<rect x="0%" y="0%" width="100%" height="100%" stroke-width="0" fill="rgb(255,255,255)"  />
<line x1="389.4" y1="203.7" x2="409.4" y2="169.2" stroke="rgb(0,0,0)"  stroke-width="1.0"/>
<line x1="394.6" y1="206.7" x2="414.6" y2="172.2" stroke="rgb(0,0,0)"  stroke-width="1.0"/>
<line x1="74.7" y1="136.2" x2="109.2" y2="156.7" stroke="rgb(0,0,0)"  stroke-width="1.0"/>
<line x1="172.0" y1="170.7" x2="212.0" y2="170.7" stroke="rgb(0,0,0)"  stroke-width="1.0"/>
<line x1="374.0" y1="53.3" x2="411.5" y2="66.5" stroke="rgb(0,0,0)"  stroke-width="1.0"/>
<line x1="348.6" y1="44.3" x2="374.0" y2="53.3" stroke="rgb(0,0,0)"  stroke-width="1.0"/>
<line x1="350.0" y1="40.4" x2="375.4" y2="49.4" stroke="rgb(0,0,0)"  stroke-width="1.0"/>
<line x1="347.2" y1="48.3" x2="372.6" y2="57.3" stroke="rgb(0,0,0)"  stroke-width="1.0"/>
<line x1="480.4" y1="111.7" x2="456.7" y2="125.3" stroke="rgb(0,0,0)"  stroke-width="1.0"/>
<line x1="477.4" y1="106.5" x2="453.7" y2="120.1" stroke="rgb(0,0,0)"  stroke-width="1.0"/>
<line x1="365.3" y1="130.2" x2="392.3" y2="133.0" stroke="rgb(0,0,0)"  stroke-width="1.0"/>
<line x1="364.6" y1="136.2" x2="391.7" y2="139.0" stroke="rgb(0,0,0)"  stroke-width="1.0"/>
<line x1="352.0" y1="205.2" x2="392.0" y2="205.2" stroke="rgb(0,0,0)"  stroke-width="1.0"/>
<line x1="411.5" y1="66.5" x2="416.5" y2="93.1" stroke="rgb(0,0,0)"  stroke-width="1.0"/>
<line x1="245.0" y1="205.2" x2="271.8" y2="205.2" stroke="rgb(0,0,0)"  stroke-width="1.0"/>
<line x1="49.8" y1="147.1" x2="73.2" y2="133.6" stroke="rgb(0,0,0)"  stroke-width="1.0"/>
<line x1="52.8" y1="152.3" x2="76.2" y2="138.8" stroke="rgb(0,0,0)"  stroke-width="1.0"/>
<line x1="212.0" y1="170.7" x2="225.5" y2="193.9" stroke="rgb(0,0,0)"  stroke-width="1.0"/>
<line x1="75.1" y1="109.2" x2="74.7" y2="136.2" stroke="rgb(0,0,0)"  stroke-width="1.0"/>
<line x1="277.8" y1="146.7" x2="291.8" y2="170.7" stroke="rgb(0,0,0)"  stroke-width="1.0"/>
<line x1="244.2" y1="136.0" x2="258.2" y2="135.7" stroke="rgb(0,0,0)"  stroke-width="1.0"/>
<line x1="410.2" y1="115.5" x2="392.0" y2="136.0" stroke="rgb(0,0,0)"  stroke-width="1.0"/>
<line x1="392.0" y1="136.0" x2="412.0" y2="170.7" stroke="rgb(0,0,0)"  stroke-width="1.0"/>
<line x1="412.0" y1="170.7" x2="438.2" y2="164.9" stroke="rgb(0,0,0)"  stroke-width="1.0"/>
<line x1="452.3" y1="149.2" x2="455.2" y2="122.7" stroke="rgb(0,0,0)"  stroke-width="1.0"/>
<line x1="455.2" y1="122.7" x2="430.7" y2="111.3" stroke="rgb(0,0,0)"  stroke-width="1.0"/>
<line x1="133.0" y1="146.1" x2="109.2" y2="156.7" stroke="rgb(0,0,0)"  stroke-width="1.0"/>
<line x1="109.2" y1="156.7" x2="112.8" y2="196.7" stroke="rgb(0,0,0)"  stroke-width="1.0"/>
<line x1="116.9" y1="162.0" x2="119.5" y2="190.0" stroke="rgb(0,0,0)"  stroke-width="1.0"/>
<line x1="112.8" y1="196.7" x2="152.0" y2="205.2" stroke="rgb(0,0,0)"  stroke-width="1.0"/>
<line x1="152.0" y1="205.2" x2="172.0" y2="170.7" stroke="rgb(0,0,0)"  stroke-width="1.0"/>
<line x1="148.8" y1="196.4" x2="162.8" y2="172.2" stroke="rgb(0,0,0)"  stroke-width="1.0"/>
<line x1="172.0" y1="170.7" x2="153.6" y2="150.4" stroke="rgb(0,0,0)"  stroke-width="1.0"/>
<line x1="291.8" y1="170.7" x2="271.8" y2="205.2" stroke="rgb(0,0,0)"  stroke-width="1.0"/>
<line x1="271.8" y1="205.2" x2="291.8" y2="239.5" stroke="rgb(0,0,0)"  stroke-width="1.0"/>
<line x1="281.1" y1="206.7" x2="295.0" y2="230.7" stroke="rgb(0,0,0)"  stroke-width="1.0"/>
<line x1="291.8" y1="239.5" x2="332.2" y2="239.5" stroke="rgb(0,0,0)"  stroke-width="1.0"/>
<line x1="332.2" y1="239.5" x2="352.0" y2="205.2" stroke="rgb(0,0,0)"  stroke-width="1.0"/>
<line x1="329.0" y1="230.7" x2="342.8" y2="206.8" stroke="rgb(0,0,0)"  stroke-width="1.0"/>
<line x1="352.0" y1="205.2" x2="332.2" y2="170.7" stroke="rgb(0,0,0)"  stroke-width="1.0"/>
<line x1="332.2" y1="170.7" x2="291.8" y2="170.7" stroke="rgb(0,0,0)"  stroke-width="1.0"/>
<line x1="326.2" y1="177.9" x2="297.8" y2="177.9" stroke="rgb(0,0,0)"  stroke-width="1.0"/>
<text x="412.855514" y="113.836055" fill="rgb(12,12,255)"  stroke="rgb(12,12,255)" stroke-width="1" font-size="16" >N</text>
<text x="444.857131" y="170.168600" fill="rgb(178,178,0)"  stroke="rgb(178,178,0)" stroke-width="1" font-size="16" >S</text>
<text x="138.844087" y="148.834188" fill="rgb(255,12,12)"  stroke="rgb(255,12,12)" stroke-width="1" font-size="16" >O</text>
<text x="318.349525" y="48.000000" fill="rgb(102,102,102)"  stroke="rgb(102,102,102)" stroke-width="1" font-size="16" >HC</text>
<text x="484.190029" y="110.664986" fill="rgb(255,12,12)"  stroke="rgb(255,12,12)" stroke-width="1" font-size="16" >O</text>
<text x="346.015772" y="139.834945" fill="rgb(255,12,12)"  stroke="rgb(255,12,12)" stroke-width="1" font-size="16" >O</text>
<text x="226.009706" y="213.171985" fill="rgb(255,12,12)"  stroke="rgb(255,12,12)" stroke-width="1" font-size="16" >O</text>
<text x="34.000000" y="164.165872" fill="rgb(255,12,12)"  stroke="rgb(255,12,12)" stroke-width="1" font-size="16" >O</text>
<text x="69.337544" y="104.162839" fill="rgb(255,12,12)"  stroke="rgb(255,12,12)" stroke-width="1" font-size="16" >OH</text>
<text x="265.177746" y="143.505434" fill="rgb(255,12,12)"  stroke="rgb(255,12,12)" stroke-width="1" font-size="16" >O</text>
<text x="205.180573" y="144.164861" fill="rgb(102,102,102)"  stroke="rgb(102,102,102)" stroke-width="1" font-size="16" >H</text>
<text x="217.180573" y="147.844861" fill="rgb(102,102,102)"  stroke="rgb(102,102,102)" stroke-width="1" font-size="13" >3</text>
<text x="223.680573" y="144.164861" fill="rgb(102,102,102)"  stroke="rgb(102,102,102)" stroke-width="1" font-size="16" >C</text>
<text font-size="18.000000" fill ="black" font-family="sans-serif"
x="10.000000" y="20.000000" ></text>
<title> - OBDepict</title>
</svg>
