<?xml version="1.0"?>
<svg xmlns="http://www.w3.org/2000/svg"
xmlns:xlink="http://www.w3.org/1999/xlink" xmlns:cml="http://www.xml-cml.org/schema" width="474.741" height="242.421" x="0" y="0" font-family="sans-serif" stroke="rgb(0,0,0)" stroke-width="1"  stroke-linecap="round">
<rect x="0%" y="0%" width="100%" height="100%" stroke-width="0" fill="rgb(255,255,255)"  />
<line x1="296.2" y1="133.1" x2="261.6" y2="153.1" stroke="rgb(0,0,0)"  stroke-width="1.0"/>
<line x1="261.6" y1="153.1" x2="238.1" y2="139.6" stroke="rgb(0,0,0)"  stroke-width="1.0"/>
<line x1="400.0" y1="113.1" x2="365.4" y2="133.1" stroke="rgb(0,0,0)"  stroke-width="1.0"/>
<line x1="423.5" y1="99.6" x2="400.0" y2="113.1" stroke="rgb(0,0,0)"  stroke-width="1.0"/>
<line x1="425.6" y1="103.3" x2="402.1" y2="116.8" stroke="rgb(0,0,0)"  stroke-width="1.0"/>
<line x1="421.4" y1="96.0" x2="397.9" y2="109.5" stroke="rgb(0,0,0)"  stroke-width="1.0"/>
<line x1="319.5" y1="146.6" x2="296.2" y2="133.1" stroke="rgb(0,0,0)"  stroke-width="1.0"/>
<line x1="189.3" y1="180.1" x2="189.3" y2="153.1" stroke="rgb(0,0,0)"  stroke-width="1.0"/>
<line x1="195.3" y1="180.1" x2="195.3" y2="153.1" stroke="rgb(0,0,0)"  stroke-width="1.0"/>
<line x1="365.4" y1="133.1" x2="342.0" y2="146.6" stroke="rgb(0,0,0)"  stroke-width="1.0"/>
<line x1="299.2" y1="106.1" x2="299.2" y2="133.1" stroke="rgb(0,0,0)"  stroke-width="1.0"/>
<line x1="293.2" y1="106.1" x2="293.2" y2="133.1" stroke="rgb(0,0,0)"  stroke-width="1.0"/>
<line x1="345.4" y1="98.6" x2="365.4" y2="133.1" stroke="rgb(0,0,0)"  stroke-width="1.0"/>
<line x1="385.4" y1="167.7" x2="365.4" y2="133.1" stroke="rgb(0,0,0)"  stroke-width="1.0"/>
<line x1="371.9" y1="191.2" x2="385.4" y2="167.7" stroke="rgb(0,0,0)"  stroke-width="1.0"/>
<line x1="359.0" y1="75.1" x2="345.4" y2="98.6" stroke="rgb(0,0,0)"  stroke-width="1.0"/>
<line x1="96.0" y1="113.1" x2="119.6" y2="80.8" stroke="rgb(0,0,0)"  stroke-width="1.0"/>
<line x1="105.3" y1="112.5" x2="121.9" y2="89.9" stroke="rgb(0,0,0)"  stroke-width="1.0"/>
<line x1="119.6" y1="80.8" x2="157.6" y2="93.1" stroke="rgb(0,0,0)"  stroke-width="1.0"/>
<line x1="157.6" y1="93.1" x2="157.6" y2="133.1" stroke="rgb(0,0,0)"  stroke-width="1.0"/>
<line x1="150.4" y1="99.1" x2="150.4" y2="127.1" stroke="rgb(0,0,0)"  stroke-width="1.0"/>
<line x1="157.6" y1="133.1" x2="132.0" y2="141.4" stroke="rgb(0,0,0)"  stroke-width="1.0"/>
<line x1="111.9" y1="135.0" x2="96.0" y2="113.1" stroke="rgb(0,0,0)"  stroke-width="1.0"/>
<line x1="157.6" y1="93.1" x2="181.1" y2="79.6" stroke="rgb(0,0,0)"  stroke-width="1.0"/>
<line x1="203.7" y1="79.7" x2="226.9" y2="93.1" stroke="rgb(0,0,0)"  stroke-width="1.0"/>
<line x1="201.9" y1="87.0" x2="218.1" y2="96.4" stroke="rgb(0,0,0)"  stroke-width="1.0"/>
<line x1="226.9" y1="93.1" x2="226.9" y2="120.1" stroke="rgb(0,0,0)"  stroke-width="1.0"/>
<line x1="215.6" y1="139.6" x2="192.3" y2="153.1" stroke="rgb(0,0,0)"  stroke-width="1.0"/>
<line x1="192.3" y1="153.1" x2="157.6" y2="133.1" stroke="rgb(0,0,0)"  stroke-width="1.0"/>
<line x1="103.2" y1="44.2" x2="63.4" y2="40.0" stroke="rgb(0,0,0)"  stroke-width="1.0"/>
<line x1="96.5" y1="50.8" x2="68.6" y2="47.8" stroke="rgb(0,0,0)"  stroke-width="1.0"/>
<line x1="63.4" y1="40.0" x2="40.0" y2="72.3" stroke="rgb(0,0,0)"  stroke-width="1.0"/>
<line x1="40.0" y1="72.3" x2="56.2" y2="108.9" stroke="rgb(0,0,0)"  stroke-width="1.0"/>
<line x1="49.0" y1="74.9" x2="60.3" y2="100.5" stroke="rgb(0,0,0)"  stroke-width="1.0"/>
<line x1="56.2" y1="108.9" x2="96.0" y2="113.1" stroke="rgb(0,0,0)"  stroke-width="1.0"/>
<line x1="119.6" y1="80.8" x2="103.2" y2="44.2" stroke="rgb(0,0,0)"  stroke-width="1.0"/>
<text x="220.866571" y="141.132685" fill="rgb(12,12,255)"  stroke="rgb(12,12,255)" stroke-width="1" font-size="16" >N</text>
<text x="113.595986" y="153.452439" fill="rgb(255,12,12)"  stroke="rgb(255,12,12)" stroke-width="1" font-size="16" >O</text>
<text x="186.321806" y="81.133884" fill="rgb(12,12,255)"  stroke="rgb(12,12,255)" stroke-width="1" font-size="16" >N</text>
<text x="428.741207" y="101.133484" fill="rgb(102,102,102)"  stroke="rgb(102,102,102)" stroke-width="1" font-size="16" >CH</text>
<text x="324.704497" y="161.132286" fill="rgb(12,12,255)"  stroke="rgb(12,12,255)" stroke-width="1" font-size="16" >N</text>
<text x="324.704497" y="177.132286" fill="rgb(12,12,255)"  stroke="rgb(12,12,255)" stroke-width="1" font-size="16" >H</text>
<text x="186.321806" y="201.131487" fill="rgb(255,12,12)"  stroke="rgb(255,12,12)" stroke-width="1" font-size="16" >O</text>
<text x="290.159733" y="101.133484" fill="rgb(255,12,12)"  stroke="rgb(255,12,12)" stroke-width="1" font-size="16" >O</text>
<text x="339.448046" y="210.420999" fill="rgb(102,102,102)"  stroke="rgb(102,102,102)" stroke-width="1" font-size="16" >H</text>
<text x="351.448046" y="214.100999" fill="rgb(102,102,102)"  stroke="rgb(102,102,102)" stroke-width="1" font-size="13" >3</text>
<text x="357.948046" y="210.420999" fill="rgb(102,102,102)"  stroke="rgb(102,102,102)" stroke-width="1" font-size="16" >C</text>
<text x="361.448046" y="71.839524" fill="rgb(102,102,102)"  stroke="rgb(102,102,102)" stroke-width="1" font-size="16" >CH</text>
<text x="385.448046" y="75.519524" fill="rgb(102,102,102)"  stroke="rgb(102,102,102)" stroke-width="1" font-size="13" >3</text>
<text font-size="18.000000" fill ="black" font-family="sans-serif"
x="10.000000" y="20.000000" ></text>
<title> - OBDepict</title>
</svg>
