<?xml version="1.0"?>
<svg xmlns="http://www.w3.org/2000/svg"
xmlns:xlink="http://www.w3.org/1999/xlink" xmlns:cml="http://www.xml-cml.org/schema" width="495.268" height="257.57" x="0" y="0" font-family="sans-serif" stroke="rgb(0,0,0)" stroke-width="1"  stroke-linecap="round">
<rect x="0%" y="0%" width="100%" height="100%" stroke-width="0" fill="rgb(255,255,255)"  />
<line x1="232.9" y1="142.0" x2="205.8" y2="142.0" stroke="rgb(0,0,0)"  stroke-width="1.0"/>
<line x1="232.9" y1="136.0" x2="205.8" y2="136.0" stroke="rgb(0,0,0)"  stroke-width="1.0"/>
<line x1="366.1" y1="93.0" x2="372.0" y2="67.9" stroke="rgb(0,0,0)"  stroke-width="1.0"/>
<line x1="372.0" y1="67.9" x2="343.5" y2="40.0" stroke="rgb(0,0,0)"  stroke-width="1.0"/>
<line x1="256.2" y1="100.1" x2="249.2" y2="126.4" stroke="rgb(0,0,0)"  stroke-width="1.0"/>
<line x1="233.6" y1="217.6" x2="194.7" y2="209.1" stroke="rgb(0,0,0)"  stroke-width="1.0"/>
<line x1="251.6" y1="197.5" x2="233.6" y2="217.6" stroke="rgb(0,0,0)"  stroke-width="1.0"/>
<line x1="254.7" y1="200.3" x2="236.7" y2="220.4" stroke="rgb(0,0,0)"  stroke-width="1.0"/>
<line x1="248.5" y1="194.7" x2="230.4" y2="214.8" stroke="rgb(0,0,0)"  stroke-width="1.0"/>
<line x1="396.8" y1="65.0" x2="372.8" y2="70.9" stroke="rgb(0,0,0)"  stroke-width="1.0"/>
<line x1="395.4" y1="59.2" x2="371.3" y2="65.0" stroke="rgb(0,0,0)"  stroke-width="1.0"/>
<line x1="194.7" y1="209.1" x2="186.2" y2="183.7" stroke="rgb(0,0,0)"  stroke-width="1.0"/>
<line x1="239.0" y1="78.8" x2="258.4" y2="98.0" stroke="rgb(0,0,0)"  stroke-width="1.0"/>
<line x1="234.8" y1="83.1" x2="254.1" y2="102.3" stroke="rgb(0,0,0)"  stroke-width="1.0"/>
<line x1="301.5" y1="63.1" x2="294.5" y2="89.4" stroke="rgb(0,0,0)"  stroke-width="1.0"/>
<line x1="343.5" y1="40.0" x2="317.4" y2="47.1" stroke="rgb(0,0,0)"  stroke-width="1.0"/>
<line x1="294.5" y1="89.4" x2="256.2" y2="100.1" stroke="rgb(0,0,0)"  stroke-width="1.0"/>
<line x1="51.3" y1="105.5" x2="75.0" y2="119.0" stroke="rgb(0,0,0)"  stroke-width="1.0"/>
<line x1="327.3" y1="124.6" x2="335.2" y2="165.1" stroke="rgb(0,0,0)"  stroke-width="1.0"/>
<line x1="335.2" y1="165.1" x2="375.3" y2="169.6" stroke="rgb(0,0,0)"  stroke-width="1.0"/>
<line x1="375.3" y1="169.6" x2="392.3" y2="133.1" stroke="rgb(0,0,0)"  stroke-width="1.0"/>
<line x1="392.3" y1="133.1" x2="372.6" y2="114.5" stroke="rgb(0,0,0)"  stroke-width="1.0"/>
<line x1="351.7" y1="111.7" x2="327.3" y2="124.6" stroke="rgb(0,0,0)"  stroke-width="1.0"/>
<line x1="205.8" y1="139.0" x2="189.8" y2="116.9" stroke="rgb(0,0,0)"  stroke-width="1.0"/>
<line x1="169.8" y1="110.5" x2="143.9" y2="119.0" stroke="rgb(0,0,0)"  stroke-width="1.0"/>
<line x1="143.9" y1="119.0" x2="143.9" y2="159.1" stroke="rgb(0,0,0)"  stroke-width="1.0"/>
<line x1="151.1" y1="125.0" x2="151.1" y2="153.1" stroke="rgb(0,0,0)"  stroke-width="1.0"/>
<line x1="143.9" y1="159.1" x2="169.8" y2="167.4" stroke="rgb(0,0,0)"  stroke-width="1.0"/>
<line x1="189.8" y1="160.9" x2="205.8" y2="139.0" stroke="rgb(0,0,0)"  stroke-width="1.0"/>
<line x1="375.3" y1="169.6" x2="398.2" y2="202.4" stroke="rgb(0,0,0)"  stroke-width="1.0"/>
<line x1="384.6" y1="170.4" x2="400.6" y2="193.3" stroke="rgb(0,0,0)"  stroke-width="1.0"/>
<line x1="398.2" y1="202.4" x2="437.9" y2="199.4" stroke="rgb(0,0,0)"  stroke-width="1.0"/>
<line x1="437.9" y1="199.4" x2="455.3" y2="162.9" stroke="rgb(0,0,0)"  stroke-width="1.0"/>
<line x1="433.9" y1="190.8" x2="446.2" y2="165.2" stroke="rgb(0,0,0)"  stroke-width="1.0"/>
<line x1="455.3" y1="162.9" x2="432.4" y2="130.1" stroke="rgb(0,0,0)"  stroke-width="1.0"/>
<line x1="432.4" y1="130.1" x2="392.3" y2="133.1" stroke="rgb(0,0,0)"  stroke-width="1.0"/>
<line x1="426.9" y1="137.7" x2="398.8" y2="139.9" stroke="rgb(0,0,0)"  stroke-width="1.0"/>
<line x1="109.2" y1="178.7" x2="75.0" y2="159.1" stroke="rgb(0,0,0)"  stroke-width="1.0"/>
<line x1="107.6" y1="169.5" x2="83.8" y2="155.8" stroke="rgb(0,0,0)"  stroke-width="1.0"/>
<line x1="75.0" y1="159.1" x2="75.0" y2="119.0" stroke="rgb(0,0,0)"  stroke-width="1.0"/>
<line x1="75.0" y1="119.0" x2="109.2" y2="98.5" stroke="rgb(0,0,0)"  stroke-width="1.0"/>
<line x1="83.9" y1="122.1" x2="107.8" y2="107.8" stroke="rgb(0,0,0)"  stroke-width="1.0"/>
<line x1="109.2" y1="98.5" x2="143.9" y2="119.0" stroke="rgb(0,0,0)"  stroke-width="1.0"/>
<line x1="143.9" y1="159.1" x2="109.2" y2="178.7" stroke="rgb(0,0,0)"  stroke-width="1.0"/>
<text x="176.132819" y="179.405447" fill="rgb(12,12,255)"  stroke="rgb(12,12,255)" stroke-width="1" font-size="16" >N</text>
<text x="239.909182" y="147.009561" fill="rgb(12,12,255)"  stroke="rgb(12,12,255)" stroke-width="1" font-size="16" >N</text>
<text x="357.142643" y="113.603126" fill="rgb(12,12,255)"  stroke="rgb(12,12,255)" stroke-width="1" font-size="16" >N</text>
<text x="176.132819" y="114.414481" fill="rgb(178,178,0)"  stroke="rgb(178,178,0)" stroke-width="1" font-size="16" >S</text>
<text x="254.285221" y="195.807443" fill="rgb(102,102,102)"  stroke="rgb(102,102,102)" stroke-width="1" font-size="16" >CH</text>
<text x="402.699965" y="67.035255" fill="rgb(255,12,12)"  stroke="rgb(255,12,12)" stroke-width="1" font-size="16" >O</text>
<text x="221.690140" y="79.793443" fill="rgb(255,12,12)"  stroke="rgb(255,12,12)" stroke-width="1" font-size="16" >O</text>
<text x="298.827134" y="58.528177" fill="rgb(178,178,0)"  stroke="rgb(178,178,0)" stroke-width="1" font-size="16" >S</text>
<text x="34.000000" y="107.122005" fill="rgb(191,191,191)"  stroke="rgb(191,191,191)" stroke-width="1" font-size="16" >H</text>
<text font-size="18.000000" fill ="black" font-family="sans-serif"
x="10.000000" y="20.000000" ></text>
<title> - OBDepict</title>
</svg>
