<?xml version="1.0"?>
<svg xmlns="http://www.w3.org/2000/svg"
xmlns:xlink="http://www.w3.org/1999/xlink" xmlns:cml="http://www.xml-cml.org/schema" width="288.655" height="260.809" x="0" y="0" font-family="sans-serif" stroke="rgb(0,0,0)" stroke-width="1"  stroke-linecap="round">
<rect x="0%" y="0%" width="100%" height="100%" stroke-width="0" fill="rgb(255,255,255)"  />
<line x1="144.4" y1="161.0" x2="144.4" y2="188.3" stroke="rgb(0,0,0)"  stroke-width="1.0"/>
<line x1="178.4" y1="140.9" x2="213.6" y2="161.8" stroke="rgb(0,0,0)"  stroke-width="1.0"/>
<line x1="157.2" y1="205.2" x2="168.7" y2="211.7" stroke="rgb(0,0,0)"  stroke-width="1.0"/>
<line x1="154.2" y1="210.4" x2="165.7" y2="216.9" stroke="rgb(0,0,0)"  stroke-width="1.0"/>
<line x1="133.1" y1="207.7" x2="121.5" y2="214.4" stroke="rgb(0,0,0)"  stroke-width="1.0"/>
<line x1="213.6" y1="161.8" x2="237.5" y2="176.3" stroke="rgb(0,0,0)"  stroke-width="1.0"/>
<line x1="215.7" y1="158.2" x2="239.7" y2="172.7" stroke="rgb(0,0,0)"  stroke-width="1.0"/>
<line x1="211.4" y1="165.4" x2="235.4" y2="179.9" stroke="rgb(0,0,0)"  stroke-width="1.0"/>
<line x1="110.2" y1="101.4" x2="86.3" y2="87.1" stroke="rgb(0,0,0)"  stroke-width="1.0"/>
<line x1="65.3" y1="89.4" x2="52.8" y2="96.5" stroke="rgb(0,0,0)"  stroke-width="1.0"/>
<line x1="62.3" y1="84.2" x2="49.8" y2="91.3" stroke="rgb(0,0,0)"  stroke-width="1.0"/>
<line x1="75.1" y1="67.4" x2="75.1" y2="53.0" stroke="rgb(0,0,0)"  stroke-width="1.0"/>
<line x1="144.4" y1="161.0" x2="110.2" y2="140.9" stroke="rgb(0,0,0)"  stroke-width="1.0"/>
<line x1="142.9" y1="151.8" x2="119.0" y2="137.8" stroke="rgb(0,0,0)"  stroke-width="1.0"/>
<line x1="110.2" y1="140.9" x2="110.2" y2="101.4" stroke="rgb(0,0,0)"  stroke-width="1.0"/>
<line x1="110.2" y1="101.4" x2="144.4" y2="81.2" stroke="rgb(0,0,0)"  stroke-width="1.0"/>
<line x1="119.0" y1="104.6" x2="142.9" y2="90.4" stroke="rgb(0,0,0)"  stroke-width="1.0"/>
<line x1="144.4" y1="81.2" x2="178.4" y2="101.4" stroke="rgb(0,0,0)"  stroke-width="1.0"/>
<line x1="178.4" y1="101.4" x2="178.4" y2="140.9" stroke="rgb(0,0,0)"  stroke-width="1.0"/>
<line x1="171.2" y1="107.4" x2="171.2" y2="134.9" stroke="rgb(0,0,0)"  stroke-width="1.0"/>
<line x1="178.4" y1="140.9" x2="144.4" y2="161.0" stroke="rgb(0,0,0)"  stroke-width="1.0"/>
<text x="149.199711" y="197.256607" fill="rgb(12,12,255)"  stroke="rgb(12,12,255)" stroke-width="1" font-size="16" >+</text>
<text x="138.399711" y="209.288607" fill="rgb(12,12,255)"  stroke="rgb(12,12,255)" stroke-width="1" font-size="16" >N</text>
<text x="172.444558" y="228.809449" fill="rgb(255,12,12)"  stroke="rgb(255,12,12)" stroke-width="1" font-size="16" >O</text>
<text x="115.005775" y="206.697449" fill="rgb(255,12,12)"  stroke="rgb(255,12,12)" stroke-width="1" font-size="16" >_</text>
<text x="104.205775" y="228.809449" fill="rgb(255,12,12)"  stroke="rgb(255,12,12)" stroke-width="1" font-size="16" >O</text>
<text x="242.655143" y="190.984512" fill="rgb(102,102,102)"  stroke="rgb(102,102,102)" stroke-width="1" font-size="16" >CH</text>
<text x="79.902888" y="76.365898" fill="rgb(12,12,255)"  stroke="rgb(12,12,255)" stroke-width="1" font-size="16" >+</text>
<text x="69.102888" y="88.397898" fill="rgb(12,12,255)"  stroke="rgb(12,12,255)" stroke-width="1" font-size="16" >N</text>
<text x="34.000000" y="108.366002" fill="rgb(255,12,12)"  stroke="rgb(255,12,12)" stroke-width="1" font-size="16" >O</text>
<text x="79.902888" y="25.888000" fill="rgb(255,12,12)"  stroke="rgb(255,12,12)" stroke-width="1" font-size="16" >_</text>
<text x="69.102888" y="48.000000" fill="rgb(255,12,12)"  stroke="rgb(255,12,12)" stroke-width="1" font-size="16" >O</text>
<text font-size="18.000000" fill ="black" font-family="sans-serif"
x="10.000000" y="20.000000" ></text>
<title> - OBDepict</title>
</svg>
