<?xml version="1.0"?>
<svg xmlns="http://www.w3.org/2000/svg"
xmlns:xlink="http://www.w3.org/1999/xlink" xmlns:cml="http://www.xml-cml.org/schema" width="411.291" height="406.438" x="0" y="0" font-family="sans-serif" stroke="rgb(0,0,0)" stroke-width="1"  stroke-linecap="round">
<rect x="0%" y="0%" width="100%" height="100%" stroke-width="0" fill="rgb(255,255,255)"  />
<line x1="188.3" y1="209.6" x2="165.0" y2="223.4" stroke="rgb(0,0,0)"  stroke-width="1.0"/>
<line x1="185.3" y1="204.4" x2="161.9" y2="218.2" stroke="rgb(0,0,0)"  stroke-width="1.0"/>
<line x1="325.5" y1="86.5" x2="302.2" y2="100.0" stroke="rgb(0,0,0)"  stroke-width="1.0"/>
<line x1="198.0" y1="160.2" x2="198.0" y2="187.4" stroke="rgb(0,0,0)"  stroke-width="1.0"/>
<line x1="179.8" y1="327.5" x2="188.9" y2="288.3" stroke="rgb(0,0,0)"  stroke-width="1.0"/>
<line x1="174.1" y1="353.7" x2="179.8" y2="327.5" stroke="rgb(0,0,0)"  stroke-width="1.0"/>
<line x1="170.0" y1="352.8" x2="175.7" y2="326.6" stroke="rgb(0,0,0)"  stroke-width="1.0"/>
<line x1="178.2" y1="354.6" x2="183.9" y2="328.3" stroke="rgb(0,0,0)"  stroke-width="1.0"/>
<line x1="360.0" y1="93.5" x2="348.0" y2="86.5" stroke="rgb(0,0,0)"  stroke-width="1.0"/>
<line x1="232.5" y1="140.2" x2="198.0" y2="160.2" stroke="rgb(0,0,0)"  stroke-width="1.0"/>
<line x1="339.6" y1="53.0" x2="339.7" y2="67.0" stroke="rgb(0,0,0)"  stroke-width="1.0"/>
<line x1="333.6" y1="53.0" x2="333.7" y2="67.0" stroke="rgb(0,0,0)"  stroke-width="1.0"/>
<line x1="175.6" y1="144.0" x2="199.5" y2="157.6" stroke="rgb(0,0,0)"  stroke-width="1.0"/>
<line x1="172.6" y1="149.2" x2="196.5" y2="162.8" stroke="rgb(0,0,0)"  stroke-width="1.0"/>
<line x1="188.9" y1="288.3" x2="168.5" y2="269.3" stroke="rgb(0,0,0)"  stroke-width="1.0"/>
<line x1="112.3" y1="326.0" x2="99.2" y2="302.2" stroke="rgb(0,0,0)"  stroke-width="1.0"/>
<line x1="163.4" y1="220.8" x2="139.4" y2="209.5" stroke="rgb(0,0,0)"  stroke-width="1.0"/>
<line x1="118.8" y1="213.5" x2="100.4" y2="233.1" stroke="rgb(0,0,0)"  stroke-width="1.0"/>
<line x1="100.4" y1="233.1" x2="119.8" y2="268.3" stroke="rgb(0,0,0)"  stroke-width="1.0"/>
<line x1="109.6" y1="234.9" x2="123.2" y2="259.5" stroke="rgb(0,0,0)"  stroke-width="1.0"/>
<line x1="119.8" y1="268.3" x2="146.2" y2="262.9" stroke="rgb(0,0,0)"  stroke-width="1.0"/>
<line x1="160.4" y1="247.5" x2="163.4" y2="220.8" stroke="rgb(0,0,0)"  stroke-width="1.0"/>
<line x1="232.5" y1="140.2" x2="267.5" y2="160.2" stroke="rgb(0,0,0)"  stroke-width="1.0"/>
<line x1="241.3" y1="136.9" x2="265.8" y2="151.0" stroke="rgb(0,0,0)"  stroke-width="1.0"/>
<line x1="267.5" y1="160.2" x2="302.2" y2="140.2" stroke="rgb(0,0,0)"  stroke-width="1.0"/>
<line x1="302.2" y1="140.2" x2="302.2" y2="100.0" stroke="rgb(0,0,0)"  stroke-width="1.0"/>
<line x1="295.0" y1="134.2" x2="295.0" y2="106.0" stroke="rgb(0,0,0)"  stroke-width="1.0"/>
<line x1="302.2" y1="100.0" x2="267.5" y2="80.6" stroke="rgb(0,0,0)"  stroke-width="1.0"/>
<line x1="267.5" y1="80.6" x2="232.9" y2="100.6" stroke="rgb(0,0,0)"  stroke-width="1.0"/>
<line x1="265.9" y1="89.8" x2="241.7" y2="103.8" stroke="rgb(0,0,0)"  stroke-width="1.0"/>
<line x1="232.9" y1="100.6" x2="232.5" y2="140.2" stroke="rgb(0,0,0)"  stroke-width="1.0"/>
<line x1="99.2" y1="302.2" x2="60.0" y2="302.0" stroke="rgb(0,0,0)"  stroke-width="1.0"/>
<line x1="93.2" y1="295.0" x2="66.0" y2="294.8" stroke="rgb(0,0,0)"  stroke-width="1.0"/>
<line x1="60.0" y1="302.0" x2="40.0" y2="266.9" stroke="rgb(0,0,0)"  stroke-width="1.0"/>
<line x1="40.0" y1="266.9" x2="60.6" y2="232.5" stroke="rgb(0,0,0)"  stroke-width="1.0"/>
<line x1="49.3" y1="265.4" x2="63.7" y2="241.4" stroke="rgb(0,0,0)"  stroke-width="1.0"/>
<line x1="60.6" y1="232.5" x2="100.4" y2="233.1" stroke="rgb(0,0,0)"  stroke-width="1.0"/>
<line x1="119.8" y1="268.3" x2="99.2" y2="302.2" stroke="rgb(0,0,0)"  stroke-width="1.0"/>
<text x="191.972141" y="208.391168" fill="rgb(12,12,255)"  stroke="rgb(12,12,255)" stroke-width="1" font-size="16" >N</text>
<text x="152.982263" y="268.387876" fill="rgb(12,12,255)"  stroke="rgb(12,12,255)" stroke-width="1" font-size="16" >N</text>
<text x="121.675215" y="212.029384" fill="rgb(178,178,0)"  stroke="rgb(178,178,0)" stroke-width="1" font-size="16" >S</text>
<text x="341.546883" y="75.964193" fill="rgb(12,12,255)"  stroke="rgb(12,12,255)" stroke-width="1" font-size="16" >+</text>
<text x="330.746883" y="87.996193" fill="rgb(12,12,255)"  stroke="rgb(12,12,255)" stroke-width="1" font-size="16" >N</text>
<text x="153.304787" y="374.438021" fill="rgb(102,102,102)"  stroke="rgb(102,102,102)" stroke-width="1" font-size="16" >HC</text>
<text x="376.090589" y="85.884708" fill="rgb(255,12,12)"  stroke="rgb(255,12,12)" stroke-width="1" font-size="16" >_</text>
<text x="365.290589" y="107.996708" fill="rgb(255,12,12)"  stroke="rgb(255,12,12)" stroke-width="1" font-size="16" >O</text>
<text x="330.543685" y="48.000000" fill="rgb(255,12,12)"  stroke="rgb(255,12,12)" stroke-width="1" font-size="16" >O</text>
<text x="156.823678" y="148.196099" fill="rgb(255,12,12)"  stroke="rgb(255,12,12)" stroke-width="1" font-size="16" >O</text>
<text x="112.584512" y="345.351640" fill="rgb(30,239,30)"  stroke="rgb(30,239,30)" stroke-width="1" font-size="16" >Cl</text>
<text font-size="18.000000" fill ="black" font-family="sans-serif"
x="10.000000" y="20.000000" ></text>
<title> - OBDepict</title>
</svg>
