<?xml version="1.0"?>
<svg xmlns="http://www.w3.org/2000/svg"
xmlns:xlink="http://www.w3.org/1999/xlink" xmlns:cml="http://www.xml-cml.org/schema" width="278.622" height="499.877" x="0" y="0" font-family="sans-serif" stroke="rgb(0,0,0)" stroke-width="1"  stroke-linecap="round">
<rect x="0%" y="0%" width="100%" height="100%" stroke-width="0" fill="rgb(255,255,255)"  />
<line x1="178.6" y1="446.9" x2="178.6" y2="419.9" stroke="rgb(0,0,0)"  stroke-width="1.0"/>
<line x1="174.4" y1="446.9" x2="174.4" y2="419.9" stroke="rgb(0,0,0)"  stroke-width="1.0"/>
<line x1="182.8" y1="446.9" x2="182.8" y2="419.9" stroke="rgb(0,0,0)"  stroke-width="1.0"/>
<line x1="143.9" y1="319.9" x2="167.3" y2="333.4" stroke="rgb(0,0,0)"  stroke-width="1.0"/>
<line x1="178.6" y1="352.9" x2="178.6" y2="379.9" stroke="rgb(0,0,0)"  stroke-width="1.0"/>
<line x1="178.6" y1="379.9" x2="178.6" y2="419.9" stroke="rgb(0,0,0)"  stroke-width="1.0"/>
<line x1="119.1" y1="330.7" x2="142.4" y2="317.3" stroke="rgb(0,0,0)"  stroke-width="1.0"/>
<line x1="122.1" y1="335.9" x2="145.4" y2="322.4" stroke="rgb(0,0,0)"  stroke-width="1.0"/>
<line x1="74.6" y1="159.8" x2="74.6" y2="186.8" stroke="rgb(0,0,0)"  stroke-width="1.0"/>
<line x1="74.6" y1="53.0" x2="74.6" y2="79.8" stroke="rgb(0,0,0)"  stroke-width="1.0"/>
<line x1="85.8" y1="206.3" x2="109.3" y2="219.8" stroke="rgb(0,0,0)"  stroke-width="1.0"/>
<line x1="143.9" y1="279.8" x2="143.9" y2="319.9" stroke="rgb(0,0,0)"  stroke-width="1.0"/>
<line x1="218.6" y1="379.9" x2="178.6" y2="379.9" stroke="rgb(0,0,0)"  stroke-width="1.0"/>
<line x1="138.6" y1="379.9" x2="178.6" y2="379.9" stroke="rgb(0,0,0)"  stroke-width="1.0"/>
<line x1="109.3" y1="219.8" x2="109.3" y2="259.8" stroke="rgb(0,0,0)"  stroke-width="1.0"/>
<line x1="109.3" y1="259.8" x2="143.9" y2="279.8" stroke="rgb(0,0,0)"  stroke-width="1.0"/>
<line x1="232.1" y1="403.4" x2="218.6" y2="379.9" stroke="rgb(0,0,0)"  stroke-width="1.0"/>
<line x1="125.1" y1="356.6" x2="138.6" y2="379.9" stroke="rgb(0,0,0)"  stroke-width="1.0"/>
<line x1="74.6" y1="159.8" x2="109.3" y2="139.8" stroke="rgb(0,0,0)"  stroke-width="1.0"/>
<line x1="109.3" y1="139.8" x2="109.3" y2="99.8" stroke="rgb(0,0,0)"  stroke-width="1.0"/>
<line x1="102.1" y1="133.8" x2="102.1" y2="105.8" stroke="rgb(0,0,0)"  stroke-width="1.0"/>
<line x1="109.3" y1="99.8" x2="74.6" y2="79.8" stroke="rgb(0,0,0)"  stroke-width="1.0"/>
<line x1="74.6" y1="79.8" x2="40.0" y2="99.8" stroke="rgb(0,0,0)"  stroke-width="1.0"/>
<line x1="73.0" y1="89.0" x2="48.8" y2="103.0" stroke="rgb(0,0,0)"  stroke-width="1.0"/>
<line x1="40.0" y1="99.8" x2="40.0" y2="139.8" stroke="rgb(0,0,0)"  stroke-width="1.0"/>
<line x1="40.0" y1="139.8" x2="74.6" y2="159.8" stroke="rgb(0,0,0)"  stroke-width="1.0"/>
<line x1="48.8" y1="136.6" x2="73.0" y2="150.6" stroke="rgb(0,0,0)"  stroke-width="1.0"/>
<text x="172.610931" y="467.877207" fill="rgb(102,102,102)"  stroke="rgb(102,102,102)" stroke-width="1" font-size="16" >CH</text>
<text x="172.610931" y="347.854098" fill="rgb(12,12,255)"  stroke="rgb(12,12,255)" stroke-width="1" font-size="16" >NH</text>
<text x="103.303041" y="347.854098" fill="rgb(255,12,12)"  stroke="rgb(255,12,12)" stroke-width="1" font-size="16" >O</text>
<text x="68.552107" y="48.000000" fill="rgb(165,40,40)"  stroke="rgb(165,40,40)" stroke-width="1" font-size="16" >Br</text>
<text x="68.552107" y="207.827137" fill="rgb(255,12,12)"  stroke="rgb(255,12,12)" stroke-width="1" font-size="16" >O</text>
<text x="234.622485" y="422.617584" fill="rgb(102,102,102)"  stroke="rgb(102,102,102)" stroke-width="1" font-size="16" >CH</text>
<text x="258.622485" y="426.297584" fill="rgb(102,102,102)"  stroke="rgb(102,102,102)" stroke-width="1" font-size="13" >3</text>
<text x="92.599376" y="353.309694" fill="rgb(102,102,102)"  stroke="rgb(102,102,102)" stroke-width="1" font-size="16" >H</text>
<text x="104.599376" y="356.989694" fill="rgb(102,102,102)"  stroke="rgb(102,102,102)" stroke-width="1" font-size="13" >3</text>
<text x="111.099376" y="353.309694" fill="rgb(102,102,102)"  stroke="rgb(102,102,102)" stroke-width="1" font-size="16" >C</text>
<text font-size="18.000000" fill ="black" font-family="sans-serif"
x="10.000000" y="20.000000" ></text>
<title> - OBDepict</title>
</svg>
