<?xml version="1.0"?>
<svg xmlns="http://www.w3.org/2000/svg"
xmlns:xlink="http://www.w3.org/1999/xlink" xmlns:cml="http://www.xml-cml.org/schema" width="344.533" height="268.734" x="0" y="0" font-family="sans-serif" stroke="rgb(0,0,0)" stroke-width="1"  stroke-linecap="round">
<rect x="0%" y="0%" width="100%" height="100%" stroke-width="0" fill="rgb(255,255,255)"  />
<line x1="165.8" y1="160.0" x2="189.2" y2="146.5" stroke="rgb(0,0,0)"  stroke-width="1.0"/>
<line x1="211.8" y1="146.5" x2="235.2" y2="160.0" stroke="rgb(0,0,0)"  stroke-width="1.0"/>
<line x1="269.9" y1="100.0" x2="269.9" y2="140.0" stroke="rgb(0,0,0)"  stroke-width="1.0"/>
<line x1="68.0" y1="131.8" x2="96.7" y2="160.0" stroke="rgb(0,0,0)"  stroke-width="1.0"/>
<line x1="142.4" y1="146.5" x2="165.8" y2="160.0" stroke="rgb(0,0,0)"  stroke-width="1.0"/>
<line x1="49.1" y1="112.6" x2="68.0" y2="131.8" stroke="rgb(0,0,0)"  stroke-width="1.0"/>
<line x1="52.1" y1="109.7" x2="71.0" y2="128.9" stroke="rgb(0,0,0)"  stroke-width="1.0"/>
<line x1="46.1" y1="115.6" x2="65.0" y2="134.8" stroke="rgb(0,0,0)"  stroke-width="1.0"/>
<line x1="96.7" y1="160.0" x2="119.9" y2="146.6" stroke="rgb(0,0,0)"  stroke-width="1.0"/>
<line x1="162.8" y1="187.1" x2="162.8" y2="160.0" stroke="rgb(0,0,0)"  stroke-width="1.0"/>
<line x1="168.8" y1="187.1" x2="168.8" y2="160.0" stroke="rgb(0,0,0)"  stroke-width="1.0"/>
<line x1="247.9" y1="83.9" x2="271.4" y2="97.4" stroke="rgb(0,0,0)"  stroke-width="1.0"/>
<line x1="244.9" y1="89.1" x2="268.4" y2="102.6" stroke="rgb(0,0,0)"  stroke-width="1.0"/>
<line x1="293.3" y1="86.5" x2="269.9" y2="100.0" stroke="rgb(0,0,0)"  stroke-width="1.0"/>
<line x1="66.0" y1="185.4" x2="96.7" y2="160.0" stroke="rgb(0,0,0)"  stroke-width="1.0"/>
<line x1="119.4" y1="192.7" x2="96.7" y2="160.0" stroke="rgb(0,0,0)"  stroke-width="1.0"/>
<line x1="304.5" y1="53.0" x2="304.5" y2="67.0" stroke="rgb(0,0,0)"  stroke-width="1.0"/>
<line x1="70.5" y1="212.4" x2="66.0" y2="185.4" stroke="rgb(0,0,0)"  stroke-width="1.0"/>
<line x1="108.2" y1="216.9" x2="119.4" y2="192.7" stroke="rgb(0,0,0)"  stroke-width="1.0"/>
<line x1="269.9" y1="140.0" x2="235.2" y2="160.0" stroke="rgb(0,0,0)"  stroke-width="1.0"/>
<line x1="235.2" y1="160.0" x2="235.2" y2="200.1" stroke="rgb(0,0,0)"  stroke-width="1.0"/>
<line x1="242.4" y1="166.0" x2="242.4" y2="194.1" stroke="rgb(0,0,0)"  stroke-width="1.0"/>
<line x1="235.2" y1="200.1" x2="269.9" y2="220.1" stroke="rgb(0,0,0)"  stroke-width="1.0"/>
<line x1="269.9" y1="220.1" x2="304.5" y2="200.1" stroke="rgb(0,0,0)"  stroke-width="1.0"/>
<line x1="271.5" y1="210.8" x2="295.7" y2="196.8" stroke="rgb(0,0,0)"  stroke-width="1.0"/>
<line x1="304.5" y1="200.1" x2="304.5" y2="160.0" stroke="rgb(0,0,0)"  stroke-width="1.0"/>
<line x1="304.5" y1="160.0" x2="269.9" y2="140.0" stroke="rgb(0,0,0)"  stroke-width="1.0"/>
<line x1="295.7" y1="163.3" x2="271.5" y2="149.3" stroke="rgb(0,0,0)"  stroke-width="1.0"/>
<text x="194.496744" y="148.034612" fill="rgb(12,12,255)"  stroke="rgb(12,12,255)" stroke-width="1" font-size="16" >N</text>
<text x="194.496744" y="132.034612" fill="rgb(12,12,255)"  stroke="rgb(12,12,255)" stroke-width="1" font-size="16" >H</text>
<text x="125.139413" y="148.034612" fill="rgb(12,12,255)"  stroke="rgb(12,12,255)" stroke-width="1" font-size="16" >N</text>
<text x="125.139413" y="132.034612" fill="rgb(12,12,255)"  stroke="rgb(12,12,255)" stroke-width="1" font-size="16" >H</text>
<text x="22.000000" y="111.357679" fill="rgb(102,102,102)"  stroke="rgb(102,102,102)" stroke-width="1" font-size="16" >HC</text>
<text x="159.818078" y="208.055379" fill="rgb(255,12,12)"  stroke="rgb(255,12,12)" stroke-width="1" font-size="16" >O</text>
<text x="229.175409" y="88.013845" fill="rgb(255,12,12)"  stroke="rgb(255,12,12)" stroke-width="1" font-size="16" >O</text>
<text x="298.532740" y="88.013845" fill="rgb(255,12,12)"  stroke="rgb(255,12,12)" stroke-width="1" font-size="16" >O</text>
<text x="300.532740" y="48.000000" fill="rgb(102,102,102)"  stroke="rgb(102,102,102)" stroke-width="1" font-size="16" >CH</text>
<text x="324.532740" y="51.680000" fill="rgb(102,102,102)"  stroke="rgb(102,102,102)" stroke-width="1" font-size="13" >3</text>
<text x="68.680398" y="233.174373" fill="rgb(102,102,102)"  stroke="rgb(102,102,102)" stroke-width="1" font-size="16" >CH</text>
<text x="92.680398" y="236.854373" fill="rgb(102,102,102)"  stroke="rgb(102,102,102)" stroke-width="1" font-size="13" >3</text>
<text x="76.688357" y="236.734392" fill="rgb(102,102,102)"  stroke="rgb(102,102,102)" stroke-width="1" font-size="16" >H</text>
<text x="88.688357" y="240.414392" fill="rgb(102,102,102)"  stroke="rgb(102,102,102)" stroke-width="1" font-size="13" >3</text>
<text x="95.188357" y="236.734392" fill="rgb(102,102,102)"  stroke="rgb(102,102,102)" stroke-width="1" font-size="16" >C</text>
<text font-size="18.000000" fill ="black" font-family="sans-serif"
x="10.000000" y="20.000000" ></text>
<title> - OBDepict</title>
</svg>
