<?xml version="1.0"?>
<svg xmlns="http://www.w3.org/2000/svg"
xmlns:xlink="http://www.w3.org/1999/xlink" xmlns:cml="http://www.xml-cml.org/schema" width="513.785" height="314.121" x="0" y="0" font-family="sans-serif" stroke="rgb(0,0,0)" stroke-width="1"  stroke-linecap="round">
<rect x="0%" y="0%" width="100%" height="100%" stroke-width="0" fill="rgb(255,255,255)"  />
<line x1="257.0" y1="88.6" x2="295.3" y2="101.0" stroke="rgb(0,0,0)"  stroke-width="1.0"/>
<line x1="255.2" y1="94.3" x2="293.5" y2="106.7" stroke="rgb(0,0,0)"  stroke-width="1.0"/>
<line x1="70.0" y1="212.7" x2="99.8" y2="185.9" stroke="rgb(0,0,0)"  stroke-width="1.0"/>
<line x1="397.6" y1="91.5" x2="371.6" y2="99.9" stroke="rgb(0,0,0)"  stroke-width="1.0"/>
<line x1="49.7" y1="230.6" x2="70.0" y2="212.7" stroke="rgb(0,0,0)"  stroke-width="1.0"/>
<line x1="47.0" y1="227.5" x2="67.2" y2="209.6" stroke="rgb(0,0,0)"  stroke-width="1.0"/>
<line x1="52.5" y1="233.8" x2="72.8" y2="215.8" stroke="rgb(0,0,0)"  stroke-width="1.0"/>
<line x1="360.3" y1="165.7" x2="344.3" y2="143.9" stroke="rgb(0,0,0)"  stroke-width="1.0"/>
<line x1="365.1" y1="162.1" x2="349.1" y2="140.4" stroke="rgb(0,0,0)"  stroke-width="1.0"/>
<line x1="329.6" y1="53.0" x2="329.6" y2="80.1" stroke="rgb(0,0,0)"  stroke-width="1.0"/>
<line x1="323.6" y1="53.0" x2="323.6" y2="80.1" stroke="rgb(0,0,0)"  stroke-width="1.0"/>
<line x1="226.7" y1="118.4" x2="256.1" y2="91.5" stroke="rgb(0,0,0)"  stroke-width="1.0"/>
<line x1="210.9" y1="210.3" x2="205.4" y2="184.1" stroke="rgb(0,0,0)"  stroke-width="1.0"/>
<line x1="147.3" y1="189.9" x2="167.7" y2="172.0" stroke="rgb(0,0,0)"  stroke-width="1.0"/>
<line x1="99.8" y1="185.9" x2="125.2" y2="194.4" stroke="rgb(0,0,0)"  stroke-width="1.0"/>
<line x1="251.2" y1="235.2" x2="225.9" y2="227.0" stroke="rgb(0,0,0)"  stroke-width="1.0"/>
<line x1="257.0" y1="261.4" x2="251.2" y2="235.2" stroke="rgb(0,0,0)"  stroke-width="1.0"/>
<line x1="355.2" y1="116.2" x2="346.7" y2="142.2" stroke="rgb(0,0,0)"  stroke-width="1.0"/>
<line x1="346.7" y1="142.2" x2="319.6" y2="142.2" stroke="rgb(0,0,0)"  stroke-width="1.0"/>
<line x1="302.6" y1="129.8" x2="294.4" y2="103.9" stroke="rgb(0,0,0)"  stroke-width="1.0"/>
<line x1="294.4" y1="103.9" x2="326.6" y2="80.1" stroke="rgb(0,0,0)"  stroke-width="1.0"/>
<line x1="326.6" y1="80.1" x2="348.7" y2="96.2" stroke="rgb(0,0,0)"  stroke-width="1.0"/>
<line x1="205.4" y1="184.1" x2="167.7" y2="172.0" stroke="rgb(0,0,0)"  stroke-width="1.0"/>
<line x1="201.9" y1="175.4" x2="175.6" y2="166.9" stroke="rgb(0,0,0)"  stroke-width="1.0"/>
<line x1="167.7" y1="172.0" x2="159.4" y2="133.0" stroke="rgb(0,0,0)"  stroke-width="1.0"/>
<line x1="159.4" y1="133.0" x2="189.2" y2="106.3" stroke="rgb(0,0,0)"  stroke-width="1.0"/>
<line x1="168.7" y1="134.4" x2="189.5" y2="115.7" stroke="rgb(0,0,0)"  stroke-width="1.0"/>
<line x1="189.2" y1="106.3" x2="226.7" y2="118.4" stroke="rgb(0,0,0)"  stroke-width="1.0"/>
<line x1="226.7" y1="118.4" x2="234.8" y2="157.4" stroke="rgb(0,0,0)"  stroke-width="1.0"/>
<line x1="220.9" y1="125.8" x2="226.5" y2="153.0" stroke="rgb(0,0,0)"  stroke-width="1.0"/>
<line x1="234.8" y1="157.4" x2="205.4" y2="184.1" stroke="rgb(0,0,0)"  stroke-width="1.0"/>
<line x1="397.6" y1="91.5" x2="427.0" y2="118.4" stroke="rgb(0,0,0)"  stroke-width="1.0"/>
<line x1="406.9" y1="90.2" x2="427.4" y2="109.1" stroke="rgb(0,0,0)"  stroke-width="1.0"/>
<line x1="427.0" y1="118.4" x2="465.3" y2="106.3" stroke="rgb(0,0,0)"  stroke-width="1.0"/>
<line x1="465.3" y1="106.3" x2="473.8" y2="67.2" stroke="rgb(0,0,0)"  stroke-width="1.0"/>
<line x1="459.5" y1="98.9" x2="465.5" y2="71.5" stroke="rgb(0,0,0)"  stroke-width="1.0"/>
<line x1="473.8" y1="67.2" x2="444.0" y2="40.0" stroke="rgb(0,0,0)"  stroke-width="1.0"/>
<line x1="444.0" y1="40.0" x2="405.7" y2="52.2" stroke="rgb(0,0,0)"  stroke-width="1.0"/>
<line x1="440.4" y1="48.7" x2="413.6" y2="57.2" stroke="rgb(0,0,0)"  stroke-width="1.0"/>
<line x1="405.7" y1="52.2" x2="397.6" y2="91.5" stroke="rgb(0,0,0)"  stroke-width="1.0"/>
<text x="353.255134" y="111.852968" fill="rgb(12,12,255)"  stroke="rgb(12,12,255)" stroke-width="1" font-size="16" >N</text>
<text x="300.554717" y="150.163778" fill="rgb(178,178,0)"  stroke="rgb(178,178,0)" stroke-width="1" font-size="16" >S</text>
<text x="22.000000" y="247.256009" fill="rgb(102,102,102)"  stroke="rgb(102,102,102)" stroke-width="1" font-size="16" >HC</text>
<text x="364.407685" y="182.393584" fill="rgb(255,12,12)"  stroke="rgb(255,12,12)" stroke-width="1" font-size="16" >O</text>
<text x="320.622515" y="48.000000" fill="rgb(255,12,12)"  stroke="rgb(255,12,12)" stroke-width="1" font-size="16" >O</text>
<text x="207.514871" y="231.041616" fill="rgb(255,12,12)"  stroke="rgb(255,12,12)" stroke-width="1" font-size="16" >O</text>
<text x="131.499896" y="206.508914" fill="rgb(255,12,12)"  stroke="rgb(255,12,12)" stroke-width="1" font-size="16" >O</text>
<text x="255.731472" y="282.121078" fill="rgb(102,102,102)"  stroke="rgb(102,102,102)" stroke-width="1" font-size="16" >CH</text>
<text x="279.731472" y="285.801078" fill="rgb(102,102,102)"  stroke="rgb(102,102,102)" stroke-width="1" font-size="13" >3</text>
<text font-size="18.000000" fill ="black" font-family="sans-serif"
x="10.000000" y="20.000000" ></text>
<title> - OBDepict</title>
</svg>
