<?xml version="1.0"?>
<svg xmlns="http://www.w3.org/2000/svg"
xmlns:xlink="http://www.w3.org/1999/xlink" xmlns:cml="http://www.xml-cml.org/schema" width="462.381" height="265.94" x="0" y="0" font-family="sans-serif" stroke="rgb(0,0,0)" stroke-width="1"  stroke-linecap="round">
<rect x="0%" y="0%" width="100%" height="100%" stroke-width="0" fill="rgb(255,255,255)"  />
<line x1="239.8" y1="146.2" x2="201.6" y2="158.5" stroke="rgb(0,0,0)"  stroke-width="1.0"/>
<line x1="237.9" y1="140.5" x2="199.8" y2="152.8" stroke="rgb(0,0,0)"  stroke-width="1.0"/>
<line x1="247.3" y1="104.2" x2="238.9" y2="143.4" stroke="rgb(0,0,0)"  stroke-width="1.0"/>
<line x1="68.5" y1="170.2" x2="98.3" y2="143.4" stroke="rgb(0,0,0)"  stroke-width="1.0"/>
<line x1="318.6" y1="107.8" x2="295.0" y2="94.3" stroke="rgb(0,0,0)"  stroke-width="1.0"/>
<line x1="49.2" y1="189.3" x2="68.5" y2="170.2" stroke="rgb(0,0,0)"  stroke-width="1.0"/>
<line x1="46.3" y1="186.3" x2="65.5" y2="167.2" stroke="rgb(0,0,0)"  stroke-width="1.0"/>
<line x1="52.2" y1="192.3" x2="71.4" y2="173.2" stroke="rgb(0,0,0)"  stroke-width="1.0"/>
<line x1="130.2" y1="213.7" x2="146.0" y2="192.1" stroke="rgb(0,0,0)"  stroke-width="1.0"/>
<line x1="135.1" y1="217.2" x2="150.8" y2="195.6" stroke="rgb(0,0,0)"  stroke-width="1.0"/>
<line x1="171.4" y1="105.1" x2="171.4" y2="132.1" stroke="rgb(0,0,0)"  stroke-width="1.0"/>
<line x1="165.4" y1="105.1" x2="165.4" y2="132.1" stroke="rgb(0,0,0)"  stroke-width="1.0"/>
<line x1="98.3" y1="143.4" x2="123.9" y2="151.7" stroke="rgb(0,0,0)"  stroke-width="1.0"/>
<line x1="411.1" y1="161.9" x2="387.7" y2="148.2" stroke="rgb(0,0,0)"  stroke-width="1.0"/>
<line x1="146.8" y1="148.0" x2="168.4" y2="132.1" stroke="rgb(0,0,0)"  stroke-width="1.0"/>
<line x1="168.4" y1="132.1" x2="200.7" y2="155.7" stroke="rgb(0,0,0)"  stroke-width="1.0"/>
<line x1="200.7" y1="155.7" x2="192.4" y2="181.5" stroke="rgb(0,0,0)"  stroke-width="1.0"/>
<line x1="175.4" y1="193.8" x2="148.4" y2="193.8" stroke="rgb(0,0,0)"  stroke-width="1.0"/>
<line x1="148.4" y1="193.8" x2="140.2" y2="168.1" stroke="rgb(0,0,0)"  stroke-width="1.0"/>
<line x1="247.3" y1="104.2" x2="220.7" y2="74.5" stroke="rgb(0,0,0)"  stroke-width="1.0"/>
<line x1="248.7" y1="94.9" x2="230.1" y2="74.2" stroke="rgb(0,0,0)"  stroke-width="1.0"/>
<line x1="220.7" y1="74.5" x2="240.7" y2="40.0" stroke="rgb(0,0,0)"  stroke-width="1.0"/>
<line x1="240.7" y1="40.0" x2="279.4" y2="48.3" stroke="rgb(0,0,0)"  stroke-width="1.0"/>
<line x1="245.0" y1="48.3" x2="272.1" y2="54.1" stroke="rgb(0,0,0)"  stroke-width="1.0"/>
<line x1="279.4" y1="48.3" x2="282.3" y2="74.9" stroke="rgb(0,0,0)"  stroke-width="1.0"/>
<line x1="271.8" y1="93.2" x2="247.3" y2="104.2" stroke="rgb(0,0,0)"  stroke-width="1.0"/>
<line x1="318.6" y1="107.8" x2="318.2" y2="148.2" stroke="rgb(0,0,0)"  stroke-width="1.0"/>
<line x1="325.7" y1="113.9" x2="325.5" y2="142.3" stroke="rgb(0,0,0)"  stroke-width="1.0"/>
<line x1="318.2" y1="148.2" x2="352.7" y2="168.2" stroke="rgb(0,0,0)"  stroke-width="1.0"/>
<line x1="352.7" y1="168.2" x2="387.7" y2="148.2" stroke="rgb(0,0,0)"  stroke-width="1.0"/>
<line x1="354.4" y1="159.0" x2="378.9" y2="144.9" stroke="rgb(0,0,0)"  stroke-width="1.0"/>
<line x1="387.7" y1="148.2" x2="387.7" y2="108.2" stroke="rgb(0,0,0)"  stroke-width="1.0"/>
<line x1="387.7" y1="108.2" x2="352.7" y2="87.8" stroke="rgb(0,0,0)"  stroke-width="1.0"/>
<line x1="378.8" y1="111.4" x2="354.3" y2="97.1" stroke="rgb(0,0,0)"  stroke-width="1.0"/>
<line x1="352.7" y1="87.8" x2="318.6" y2="107.8" stroke="rgb(0,0,0)"  stroke-width="1.0"/>
<text x="130.297520" y="163.681204" fill="rgb(12,12,255)"  stroke="rgb(12,12,255)" stroke-width="1" font-size="16" >N</text>
<text x="182.385107" y="201.842225" fill="rgb(178,178,0)"  stroke="rgb(178,178,0)" stroke-width="1" font-size="16" >S</text>
<text x="277.683369" y="95.848012" fill="rgb(12,12,255)"  stroke="rgb(12,12,255)" stroke-width="1" font-size="16" >N</text>
<text x="22.000000" y="206.484414" fill="rgb(102,102,102)"  stroke="rgb(102,102,102)" stroke-width="1" font-size="16" >HC</text>
<text x="118.995222" y="233.939782" fill="rgb(255,12,12)"  stroke="rgb(255,12,12)" stroke-width="1" font-size="16" >O</text>
<text x="162.399928" y="100.087587" fill="rgb(255,12,12)"  stroke="rgb(255,12,12)" stroke-width="1" font-size="16" >O</text>
<text x="416.381485" y="176.404779" fill="rgb(127,178,255)"  stroke="rgb(127,178,255)" stroke-width="1" font-size="16" >F</text>
<text font-size="18.000000" fill ="black" font-family="sans-serif"
x="10.000000" y="20.000000" ></text>
<title> - OBDepict</title>
</svg>
