<?xml version="1.0"?>
<svg xmlns="http://www.w3.org/2000/svg"
xmlns:xlink="http://www.w3.org/1999/xlink" xmlns:cml="http://www.xml-cml.org/schema" width="530.498" height="259.999" x="0" y="0" font-family="sans-serif" stroke="rgb(0,0,0)" stroke-width="1"  stroke-linecap="round">
<rect x="0%" y="0%" width="100%" height="100%" stroke-width="0" fill="rgb(255,255,255)"  />
<line x1="247.9" y1="100.0" x2="282.6" y2="80.0" stroke="rgb(0,0,0)"  stroke-width="1.0"/>
<line x1="305.9" y1="93.5" x2="282.6" y2="80.0" stroke="rgb(0,0,0)"  stroke-width="1.0"/>
<line x1="421.2" y1="160.0" x2="397.7" y2="146.5" stroke="rgb(0,0,0)"  stroke-width="1.0"/>
<line x1="74.7" y1="160.0" x2="109.3" y2="140.0" stroke="rgb(0,0,0)"  stroke-width="1.0"/>
<line x1="51.3" y1="173.5" x2="74.7" y2="160.0" stroke="rgb(0,0,0)"  stroke-width="1.0"/>
<line x1="49.2" y1="169.9" x2="72.6" y2="156.4" stroke="rgb(0,0,0)"  stroke-width="1.0"/>
<line x1="53.4" y1="177.2" x2="76.8" y2="163.6" stroke="rgb(0,0,0)"  stroke-width="1.0"/>
<line x1="285.6" y1="53.0" x2="285.6" y2="80.0" stroke="rgb(0,0,0)"  stroke-width="1.0"/>
<line x1="279.6" y1="53.0" x2="279.6" y2="80.0" stroke="rgb(0,0,0)"  stroke-width="1.0"/>
<line x1="155.3" y1="86.5" x2="178.6" y2="100.0" stroke="rgb(0,0,0)"  stroke-width="1.0"/>
<line x1="155.3" y1="153.5" x2="178.6" y2="140.0" stroke="rgb(0,0,0)"  stroke-width="1.0"/>
<line x1="213.3" y1="187.0" x2="213.3" y2="160.0" stroke="rgb(0,0,0)"  stroke-width="1.0"/>
<line x1="455.8" y1="113.0" x2="455.8" y2="140.0" stroke="rgb(0,0,0)"  stroke-width="1.0"/>
<line x1="109.3" y1="140.0" x2="132.8" y2="153.5" stroke="rgb(0,0,0)"  stroke-width="1.0"/>
<line x1="236.6" y1="213.5" x2="224.6" y2="206.5" stroke="rgb(0,0,0)"  stroke-width="1.0"/>
<line x1="328.4" y1="93.5" x2="351.9" y2="80.0" stroke="rgb(0,0,0)"  stroke-width="1.0"/>
<line x1="351.9" y1="80.0" x2="386.5" y2="100.0" stroke="rgb(0,0,0)"  stroke-width="1.0"/>
<line x1="386.5" y1="100.0" x2="386.5" y2="127.0" stroke="rgb(0,0,0)"  stroke-width="1.0"/>
<line x1="375.2" y1="146.5" x2="351.9" y2="160.0" stroke="rgb(0,0,0)"  stroke-width="1.0"/>
<line x1="351.9" y1="160.0" x2="317.2" y2="140.0" stroke="rgb(0,0,0)"  stroke-width="1.0"/>
<line x1="317.2" y1="140.0" x2="317.2" y2="113.0" stroke="rgb(0,0,0)"  stroke-width="1.0"/>
<line x1="247.9" y1="100.0" x2="213.3" y2="80.0" stroke="rgb(0,0,0)"  stroke-width="1.0"/>
<line x1="213.3" y1="80.0" x2="178.6" y2="100.0" stroke="rgb(0,0,0)"  stroke-width="1.0"/>
<line x1="211.7" y1="89.2" x2="187.4" y2="103.2" stroke="rgb(0,0,0)"  stroke-width="1.0"/>
<line x1="178.6" y1="100.0" x2="178.6" y2="140.0" stroke="rgb(0,0,0)"  stroke-width="1.0"/>
<line x1="178.6" y1="140.0" x2="213.3" y2="160.0" stroke="rgb(0,0,0)"  stroke-width="1.0"/>
<line x1="187.4" y1="136.8" x2="211.7" y2="150.8" stroke="rgb(0,0,0)"  stroke-width="1.0"/>
<line x1="213.3" y1="160.0" x2="247.9" y2="140.0" stroke="rgb(0,0,0)"  stroke-width="1.0"/>
<line x1="247.9" y1="140.0" x2="247.9" y2="100.0" stroke="rgb(0,0,0)"  stroke-width="1.0"/>
<line x1="240.7" y1="134.0" x2="240.7" y2="106.0" stroke="rgb(0,0,0)"  stroke-width="1.0"/>
<line x1="421.2" y1="160.0" x2="455.8" y2="140.0" stroke="rgb(0,0,0)"  stroke-width="1.0"/>
<line x1="430.0" y1="163.2" x2="454.2" y2="149.2" stroke="rgb(0,0,0)"  stroke-width="1.0"/>
<line x1="455.8" y1="140.0" x2="490.5" y2="160.0" stroke="rgb(0,0,0)"  stroke-width="1.0"/>
<line x1="490.5" y1="160.0" x2="490.5" y2="200.0" stroke="rgb(0,0,0)"  stroke-width="1.0"/>
<line x1="483.3" y1="166.0" x2="483.3" y2="194.0" stroke="rgb(0,0,0)"  stroke-width="1.0"/>
<line x1="490.5" y1="200.0" x2="455.8" y2="220.0" stroke="rgb(0,0,0)"  stroke-width="1.0"/>
<line x1="455.8" y1="220.0" x2="421.2" y2="200.0" stroke="rgb(0,0,0)"  stroke-width="1.0"/>
<line x1="454.2" y1="210.8" x2="430.0" y2="196.8" stroke="rgb(0,0,0)"  stroke-width="1.0"/>
<line x1="421.2" y1="200.0" x2="421.2" y2="160.0" stroke="rgb(0,0,0)"  stroke-width="1.0"/>
<text x="311.166296" y="107.999526" fill="rgb(12,12,255)"  stroke="rgb(12,12,255)" stroke-width="1" font-size="16" >N</text>
<text x="380.460294" y="147.999210" fill="rgb(12,12,255)"  stroke="rgb(12,12,255)" stroke-width="1" font-size="16" >N</text>
<text x="22.000000" y="187.998894" fill="rgb(102,102,102)"  stroke="rgb(102,102,102)" stroke-width="1" font-size="16" >HC</text>
<text x="276.621114" y="48.000000" fill="rgb(178,178,0)"  stroke="rgb(178,178,0)" stroke-width="1" font-size="16" >S</text>
<text x="126.037966" y="87.999684" fill="rgb(30,239,30)"  stroke="rgb(30,239,30)" stroke-width="1" font-size="16" >Cl</text>
<text x="138.037966" y="167.999052" fill="rgb(255,12,12)"  stroke="rgb(255,12,12)" stroke-width="1" font-size="16" >O</text>
<text x="207.331964" y="207.998736" fill="rgb(255,12,12)"  stroke="rgb(255,12,12)" stroke-width="1" font-size="16" >O</text>
<text x="449.754292" y="107.999526" fill="rgb(30,239,30)"  stroke="rgb(30,239,30)" stroke-width="1" font-size="16" >Cl</text>
<text x="243.877146" y="227.998578" fill="rgb(102,102,102)"  stroke="rgb(102,102,102)" stroke-width="1" font-size="16" >CH</text>
<text x="267.877146" y="231.678578" fill="rgb(102,102,102)"  stroke="rgb(102,102,102)" stroke-width="1" font-size="13" >3</text>
<text font-size="18.000000" fill ="black" font-family="sans-serif"
x="10.000000" y="20.000000" ></text>
<title> - OBDepict</title>
</svg>
