<?xml version="1.0"?>
<svg xmlns="http://www.w3.org/2000/svg"
xmlns:xlink="http://www.w3.org/1999/xlink" xmlns:cml="http://www.xml-cml.org/schema" width="544.246" height="367.478" x="0" y="0" font-family="sans-serif" stroke="rgb(0,0,0)" stroke-width="1"  stroke-linecap="round">
<rect x="0%" y="0%" width="100%" height="100%" stroke-width="0" fill="rgb(255,255,255)"  />
<line x1="170.9" y1="237.0" x2="210.9" y2="237.0" stroke="rgb(0,0,0)"  stroke-width="1.0"/>
<line x1="451.1" y1="215.4" x2="453.8" y2="188.5" stroke="rgb(0,0,0)"  stroke-width="1.0"/>
<line x1="373.7" y1="287.7" x2="410.3" y2="271.5" stroke="rgb(0,0,0)"  stroke-width="1.0"/>
<line x1="272.5" y1="257.0" x2="304.9" y2="280.4" stroke="rgb(0,0,0)"  stroke-width="1.0"/>
<line x1="500.0" y1="79.8" x2="496.0" y2="119.6" stroke="rgb(0,0,0)"  stroke-width="1.0"/>
<line x1="351.9" y1="271.9" x2="373.7" y2="287.7" stroke="rgb(0,0,0)"  stroke-width="1.0"/>
<line x1="502.9" y1="52.9" x2="500.0" y2="79.8" stroke="rgb(0,0,0)"  stroke-width="1.0"/>
<line x1="507.0" y1="53.4" x2="504.2" y2="80.2" stroke="rgb(0,0,0)"  stroke-width="1.0"/>
<line x1="498.7" y1="52.5" x2="495.8" y2="79.4" stroke="rgb(0,0,0)"  stroke-width="1.0"/>
<line x1="428.6" y1="169.8" x2="442.5" y2="171.3" stroke="rgb(0,0,0)"  stroke-width="1.0"/>
<line x1="428.0" y1="175.8" x2="441.9" y2="177.2" stroke="rgb(0,0,0)"  stroke-width="1.0"/>
<line x1="481.7" y1="181.4" x2="467.8" y2="179.9" stroke="rgb(0,0,0)"  stroke-width="1.0"/>
<line x1="482.3" y1="175.4" x2="468.4" y2="173.9" stroke="rgb(0,0,0)"  stroke-width="1.0"/>
<line x1="458.0" y1="148.7" x2="456.5" y2="162.6" stroke="rgb(0,0,0)"  stroke-width="1.0"/>
<line x1="367.9" y1="314.2" x2="370.8" y2="287.4" stroke="rgb(0,0,0)"  stroke-width="1.0"/>
<line x1="373.9" y1="314.9" x2="376.7" y2="288.0" stroke="rgb(0,0,0)"  stroke-width="1.0"/>
<line x1="304.9" y1="280.4" x2="329.5" y2="269.5" stroke="rgb(0,0,0)"  stroke-width="1.0"/>
<line x1="496.0" y1="119.6" x2="471.3" y2="130.5" stroke="rgb(0,0,0)"  stroke-width="1.0"/>
<line x1="226.9" y1="258.8" x2="210.9" y2="237.0" stroke="rgb(0,0,0)"  stroke-width="1.0"/>
<line x1="210.9" y1="237.0" x2="234.5" y2="204.6" stroke="rgb(0,0,0)"  stroke-width="1.0"/>
<line x1="220.3" y1="236.4" x2="236.8" y2="213.7" stroke="rgb(0,0,0)"  stroke-width="1.0"/>
<line x1="234.5" y1="204.6" x2="272.5" y2="217.0" stroke="rgb(0,0,0)"  stroke-width="1.0"/>
<line x1="272.5" y1="217.0" x2="272.5" y2="257.0" stroke="rgb(0,0,0)"  stroke-width="1.0"/>
<line x1="265.3" y1="223.0" x2="265.3" y2="251.0" stroke="rgb(0,0,0)"  stroke-width="1.0"/>
<line x1="272.5" y1="257.0" x2="246.9" y2="265.3" stroke="rgb(0,0,0)"  stroke-width="1.0"/>
<line x1="170.9" y1="237.0" x2="155.1" y2="258.8" stroke="rgb(0,0,0)"  stroke-width="1.0"/>
<line x1="135.1" y1="265.3" x2="109.3" y2="257.0" stroke="rgb(0,0,0)"  stroke-width="1.0"/>
<line x1="109.3" y1="257.0" x2="109.3" y2="217.0" stroke="rgb(0,0,0)"  stroke-width="1.0"/>
<line x1="116.5" y1="251.0" x2="116.5" y2="223.0" stroke="rgb(0,0,0)"  stroke-width="1.0"/>
<line x1="109.3" y1="217.0" x2="135.1" y2="208.6" stroke="rgb(0,0,0)"  stroke-width="1.0"/>
<line x1="155.2" y1="215.3" x2="170.9" y2="237.0" stroke="rgb(0,0,0)"  stroke-width="1.0"/>
<line x1="150.6" y1="221.2" x2="161.6" y2="236.3" stroke="rgb(0,0,0)"  stroke-width="1.0"/>
<line x1="451.1" y1="215.4" x2="483.4" y2="239.0" stroke="rgb(0,0,0)"  stroke-width="1.0"/>
<line x1="451.7" y1="224.7" x2="474.3" y2="241.3" stroke="rgb(0,0,0)"  stroke-width="1.0"/>
<line x1="483.4" y1="239.0" x2="479.2" y2="278.8" stroke="rgb(0,0,0)"  stroke-width="1.0"/>
<line x1="479.2" y1="278.8" x2="442.6" y2="294.9" stroke="rgb(0,0,0)"  stroke-width="1.0"/>
<line x1="470.8" y1="274.6" x2="445.2" y2="285.9" stroke="rgb(0,0,0)"  stroke-width="1.0"/>
<line x1="442.6" y1="294.9" x2="410.3" y2="271.5" stroke="rgb(0,0,0)"  stroke-width="1.0"/>
<line x1="410.3" y1="271.5" x2="414.5" y2="231.7" stroke="rgb(0,0,0)"  stroke-width="1.0"/>
<line x1="418.1" y1="266.3" x2="421.1" y2="238.4" stroke="rgb(0,0,0)"  stroke-width="1.0"/>
<line x1="414.5" y1="231.7" x2="451.1" y2="215.4" stroke="rgb(0,0,0)"  stroke-width="1.0"/>
<line x1="74.7" y1="197.0" x2="40.0" y2="217.0" stroke="rgb(0,0,0)"  stroke-width="1.0"/>
<line x1="73.1" y1="206.2" x2="48.8" y2="220.2" stroke="rgb(0,0,0)"  stroke-width="1.0"/>
<line x1="40.0" y1="217.0" x2="40.0" y2="257.0" stroke="rgb(0,0,0)"  stroke-width="1.0"/>
<line x1="40.0" y1="257.0" x2="74.7" y2="277.0" stroke="rgb(0,0,0)"  stroke-width="1.0"/>
<line x1="48.8" y1="253.7" x2="73.1" y2="267.7" stroke="rgb(0,0,0)"  stroke-width="1.0"/>
<line x1="74.7" y1="277.0" x2="109.3" y2="257.0" stroke="rgb(0,0,0)"  stroke-width="1.0"/>
<line x1="109.3" y1="217.0" x2="74.7" y2="197.0" stroke="rgb(0,0,0)"  stroke-width="1.0"/>
<text x="449.154552" y="183.554931" fill="rgb(178,178,0)"  stroke="rgb(178,178,0)" stroke-width="1" font-size="16" >S</text>
<text x="141.472301" y="212.646053" fill="rgb(12,12,255)"  stroke="rgb(12,12,255)" stroke-width="1" font-size="16" >N</text>
<text x="141.472301" y="277.296223" fill="rgb(178,178,0)"  stroke="rgb(178,178,0)" stroke-width="1" font-size="16" >S</text>
<text x="228.546878" y="277.296223" fill="rgb(255,12,12)"  stroke="rgb(255,12,12)" stroke-width="1" font-size="16" >O</text>
<text x="335.413114" y="272.244065" fill="rgb(12,12,255)"  stroke="rgb(12,12,255)" stroke-width="1" font-size="16" >N</text>
<text x="335.413114" y="256.244065" fill="rgb(12,12,255)"  stroke="rgb(12,12,255)" stroke-width="1" font-size="16" >H</text>
<text x="498.245820" y="48.000000" fill="rgb(102,102,102)"  stroke="rgb(102,102,102)" stroke-width="1" font-size="16" >CH</text>
<text x="409.353049" y="179.516114" fill="rgb(255,12,12)"  stroke="rgb(255,12,12)" stroke-width="1" font-size="16" >O</text>
<text x="488.951207" y="187.797386" fill="rgb(255,12,12)"  stroke="rgb(255,12,12)" stroke-width="1" font-size="16" >O</text>
<text x="441.397007" y="143.758276" fill="rgb(12,12,255)"  stroke="rgb(12,12,255)" stroke-width="1" font-size="16" >HN</text>
<text x="363.495744" y="335.478467" fill="rgb(255,12,12)"  stroke="rgb(255,12,12)" stroke-width="1" font-size="16" >O</text>
<text font-size="18.000000" fill ="black" font-family="sans-serif"
x="10.000000" y="20.000000" ></text>
<title> - OBDepict</title>
</svg>
