<?xml version="1.0"?>
<svg xmlns="http://www.w3.org/2000/svg"
xmlns:xlink="http://www.w3.org/1999/xlink" xmlns:cml="http://www.xml-cml.org/schema" width="486.81" height="257.501" x="0" y="0" font-family="sans-serif" stroke="rgb(0,0,0)" stroke-width="1"  stroke-linecap="round">
<rect x="0%" y="0%" width="100%" height="100%" stroke-width="0" fill="rgb(255,255,255)"  />
<line x1="232.8" y1="142.0" x2="205.8" y2="142.0" stroke="rgb(0,0,0)"  stroke-width="1.0"/>
<line x1="232.8" y1="136.0" x2="205.8" y2="136.0" stroke="rgb(0,0,0)"  stroke-width="1.0"/>
<line x1="390.1" y1="133.7" x2="371.1" y2="114.9" stroke="rgb(0,0,0)"  stroke-width="1.0"/>
<line x1="365.2" y1="93.2" x2="371.9" y2="67.9" stroke="rgb(0,0,0)"  stroke-width="1.0"/>
<line x1="256.2" y1="100.1" x2="249.2" y2="126.4" stroke="rgb(0,0,0)"  stroke-width="1.0"/>
<line x1="233.5" y1="217.5" x2="194.6" y2="209.0" stroke="rgb(0,0,0)"  stroke-width="1.0"/>
<line x1="371.9" y1="67.9" x2="343.4" y2="40.0" stroke="rgb(0,0,0)"  stroke-width="1.0"/>
<line x1="251.5" y1="197.4" x2="233.5" y2="217.5" stroke="rgb(0,0,0)"  stroke-width="1.0"/>
<line x1="254.6" y1="200.2" x2="236.6" y2="220.3" stroke="rgb(0,0,0)"  stroke-width="1.0"/>
<line x1="248.4" y1="194.6" x2="230.4" y2="214.7" stroke="rgb(0,0,0)"  stroke-width="1.0"/>
<line x1="194.6" y1="209.0" x2="186.2" y2="183.7" stroke="rgb(0,0,0)"  stroke-width="1.0"/>
<line x1="239.0" y1="78.8" x2="258.3" y2="98.0" stroke="rgb(0,0,0)"  stroke-width="1.0"/>
<line x1="234.7" y1="83.1" x2="254.0" y2="102.2" stroke="rgb(0,0,0)"  stroke-width="1.0"/>
<line x1="402.7" y1="62.4" x2="372.7" y2="70.8" stroke="rgb(0,0,0)"  stroke-width="1.0"/>
<line x1="401.1" y1="56.6" x2="371.1" y2="65.0" stroke="rgb(0,0,0)"  stroke-width="1.0"/>
<line x1="301.4" y1="63.1" x2="294.4" y2="89.4" stroke="rgb(0,0,0)"  stroke-width="1.0"/>
<line x1="294.4" y1="89.4" x2="256.2" y2="100.1" stroke="rgb(0,0,0)"  stroke-width="1.0"/>
<line x1="343.4" y1="40.0" x2="317.3" y2="47.1" stroke="rgb(0,0,0)"  stroke-width="1.0"/>
<line x1="51.3" y1="105.5" x2="75.0" y2="118.9" stroke="rgb(0,0,0)"  stroke-width="1.0"/>
<line x1="205.8" y1="139.0" x2="189.7" y2="116.9" stroke="rgb(0,0,0)"  stroke-width="1.0"/>
<line x1="169.7" y1="110.4" x2="143.8" y2="118.9" stroke="rgb(0,0,0)"  stroke-width="1.0"/>
<line x1="143.8" y1="118.9" x2="143.8" y2="159.0" stroke="rgb(0,0,0)"  stroke-width="1.0"/>
<line x1="151.0" y1="124.9" x2="151.0" y2="153.0" stroke="rgb(0,0,0)"  stroke-width="1.0"/>
<line x1="143.8" y1="159.0" x2="169.7" y2="167.4" stroke="rgb(0,0,0)"  stroke-width="1.0"/>
<line x1="189.8" y1="160.9" x2="205.8" y2="139.0" stroke="rgb(0,0,0)"  stroke-width="1.0"/>
<line x1="390.1" y1="133.7" x2="386.1" y2="159.6" stroke="rgb(0,0,0)"  stroke-width="1.0"/>
<line x1="396.3" y1="140.8" x2="393.5" y2="158.7" stroke="rgb(0,0,0)"  stroke-width="1.0"/>
<line x1="395.7" y1="178.2" x2="419.5" y2="190.0" stroke="rgb(0,0,0)"  stroke-width="1.0"/>
<line x1="419.5" y1="190.0" x2="446.8" y2="162.3" stroke="rgb(0,0,0)"  stroke-width="1.0"/>
<line x1="418.6" y1="180.6" x2="437.5" y2="161.5" stroke="rgb(0,0,0)"  stroke-width="1.0"/>
<line x1="446.8" y1="162.3" x2="434.5" y2="138.4" stroke="rgb(0,0,0)"  stroke-width="1.0"/>
<line x1="415.8" y1="129.1" x2="390.1" y2="133.7" stroke="rgb(0,0,0)"  stroke-width="1.0"/>
<line x1="109.2" y1="178.6" x2="75.0" y2="159.0" stroke="rgb(0,0,0)"  stroke-width="1.0"/>
<line x1="107.6" y1="169.4" x2="83.8" y2="155.8" stroke="rgb(0,0,0)"  stroke-width="1.0"/>
<line x1="75.0" y1="159.0" x2="75.0" y2="118.9" stroke="rgb(0,0,0)"  stroke-width="1.0"/>
<line x1="75.0" y1="118.9" x2="109.2" y2="98.5" stroke="rgb(0,0,0)"  stroke-width="1.0"/>
<line x1="83.9" y1="122.0" x2="107.8" y2="107.8" stroke="rgb(0,0,0)"  stroke-width="1.0"/>
<line x1="109.2" y1="98.5" x2="143.8" y2="118.9" stroke="rgb(0,0,0)"  stroke-width="1.0"/>
<line x1="143.8" y1="159.0" x2="109.2" y2="178.6" stroke="rgb(0,0,0)"  stroke-width="1.0"/>
<text x="176.078977" y="179.354758" fill="rgb(12,12,255)"  stroke="rgb(12,12,255)" stroke-width="1" font-size="16" >N</text>
<text x="239.834409" y="146.974193" fill="rgb(12,12,255)"  stroke="rgb(12,12,255)" stroke-width="1" font-size="16" >N</text>
<text x="176.078977" y="114.385719" fill="rgb(178,178,0)"  stroke="rgb(178,178,0)" stroke-width="1" font-size="16" >S</text>
<text x="343.803926" y="113.781333" fill="rgb(12,12,255)"  stroke="rgb(12,12,255)" stroke-width="1" font-size="16" >HN</text>
<text x="378.069493" y="180.365291" fill="rgb(12,12,255)"  stroke="rgb(12,12,255)" stroke-width="1" font-size="16" >N</text>
<text x="422.595792" y="134.828459" fill="rgb(178,178,0)"  stroke="rgb(178,178,0)" stroke-width="1" font-size="16" >S</text>
<text x="254.204282" y="195.750531" fill="rgb(102,102,102)"  stroke="rgb(102,102,102)" stroke-width="1" font-size="16" >CH</text>
<text x="221.620643" y="79.781015" fill="rgb(255,12,12)"  stroke="rgb(255,12,12)" stroke-width="1" font-size="16" >O</text>
<text x="408.424158" y="63.994462" fill="rgb(255,12,12)"  stroke="rgb(255,12,12)" stroke-width="1" font-size="16" >O</text>
<text x="298.730581" y="58.525980" fill="rgb(178,178,0)"  stroke="rgb(178,178,0)" stroke-width="1" font-size="16" >S</text>
<text x="34.000000" y="107.104081" fill="rgb(191,191,191)"  stroke="rgb(191,191,191)" stroke-width="1" font-size="16" >H</text>
<text font-size="18.000000" fill ="black" font-family="sans-serif"
x="10.000000" y="20.000000" ></text>
<title> - OBDepict</title>
</svg>
