<?xml version="1.0"?>
<svg xmlns="http://www.w3.org/2000/svg"
xmlns:xlink="http://www.w3.org/1999/xlink" xmlns:cml="http://www.xml-cml.org/schema" width="460.28" height="349.811" x="0" y="0" font-family="sans-serif" stroke="rgb(0,0,0)" stroke-width="1"  stroke-linecap="round">
<rect x="0%" y="0%" width="100%" height="100%" stroke-width="0" fill="rgb(255,255,255)"  />
<line x1="267.3" y1="183.4" x2="240.3" y2="183.2" stroke="rgb(0,0,0)"  stroke-width="1.0"/>
<line x1="267.4" y1="177.4" x2="240.4" y2="177.2" stroke="rgb(0,0,0)"  stroke-width="1.0"/>
<line x1="300.3" y1="146.0" x2="286.8" y2="169.3" stroke="rgb(0,0,0)"  stroke-width="1.0"/>
<line x1="340.3" y1="146.0" x2="300.3" y2="146.0" stroke="rgb(0,0,0)"  stroke-width="1.0"/>
<line x1="74.5" y1="140.0" x2="109.7" y2="160.2" stroke="rgb(0,0,0)"  stroke-width="1.0"/>
<line x1="202.4" y1="280.1" x2="229.0" y2="250.4" stroke="rgb(0,0,0)"  stroke-width="1.0"/>
<line x1="184.4" y1="300.1" x2="202.4" y2="280.1" stroke="rgb(0,0,0)"  stroke-width="1.0"/>
<line x1="181.3" y1="297.3" x2="199.2" y2="277.3" stroke="rgb(0,0,0)"  stroke-width="1.0"/>
<line x1="187.5" y1="302.9" x2="205.5" y2="282.9" stroke="rgb(0,0,0)"  stroke-width="1.0"/>
<line x1="289.4" y1="121.2" x2="302.9" y2="144.5" stroke="rgb(0,0,0)"  stroke-width="1.0"/>
<line x1="284.2" y1="124.2" x2="297.7" y2="147.5" stroke="rgb(0,0,0)"  stroke-width="1.0"/>
<line x1="49.7" y1="150.8" x2="73.0" y2="137.4" stroke="rgb(0,0,0)"  stroke-width="1.0"/>
<line x1="52.8" y1="156.0" x2="76.0" y2="142.6" stroke="rgb(0,0,0)"  stroke-width="1.0"/>
<line x1="229.0" y1="250.4" x2="220.8" y2="224.7" stroke="rgb(0,0,0)"  stroke-width="1.0"/>
<line x1="74.9" y1="113.4" x2="74.5" y2="140.0" stroke="rgb(0,0,0)"  stroke-width="1.0"/>
<line x1="40.0" y1="79.8" x2="63.9" y2="93.8" stroke="rgb(0,0,0)"  stroke-width="1.0"/>
<line x1="40.3" y1="53.0" x2="40.0" y2="79.8" stroke="rgb(0,0,0)"  stroke-width="1.0"/>
<line x1="240.3" y1="180.2" x2="224.5" y2="158.4" stroke="rgb(0,0,0)"  stroke-width="1.0"/>
<line x1="204.5" y1="151.8" x2="178.7" y2="160.2" stroke="rgb(0,0,0)"  stroke-width="1.0"/>
<line x1="178.7" y1="160.2" x2="178.7" y2="200.1" stroke="rgb(0,0,0)"  stroke-width="1.0"/>
<line x1="185.9" y1="166.2" x2="185.9" y2="194.1" stroke="rgb(0,0,0)"  stroke-width="1.0"/>
<line x1="178.7" y1="200.1" x2="204.5" y2="208.3" stroke="rgb(0,0,0)"  stroke-width="1.0"/>
<line x1="224.6" y1="201.8" x2="240.3" y2="180.2" stroke="rgb(0,0,0)"  stroke-width="1.0"/>
<line x1="340.3" y1="146.0" x2="353.9" y2="169.9" stroke="rgb(0,0,0)"  stroke-width="1.0"/>
<line x1="373.3" y1="181.0" x2="399.9" y2="180.6" stroke="rgb(0,0,0)"  stroke-width="1.0"/>
<line x1="399.9" y1="180.6" x2="420.3" y2="145.6" stroke="rgb(0,0,0)"  stroke-width="1.0"/>
<line x1="420.3" y1="145.6" x2="406.5" y2="122.3" stroke="rgb(0,0,0)"  stroke-width="1.0"/>
<line x1="386.9" y1="111.1" x2="360.3" y2="111.1" stroke="rgb(0,0,0)"  stroke-width="1.0"/>
<line x1="360.3" y1="111.1" x2="340.3" y2="146.0" stroke="rgb(0,0,0)"  stroke-width="1.0"/>
<line x1="363.6" y1="119.9" x2="349.5" y2="144.4" stroke="rgb(0,0,0)"  stroke-width="1.0"/>
<line x1="144.2" y1="140.2" x2="178.7" y2="160.2" stroke="rgb(0,0,0)"  stroke-width="1.0"/>
<line x1="178.7" y1="200.1" x2="144.2" y2="220.1" stroke="rgb(0,0,0)"  stroke-width="1.0"/>
<line x1="144.2" y1="220.1" x2="109.7" y2="200.1" stroke="rgb(0,0,0)"  stroke-width="1.0"/>
<line x1="142.6" y1="210.9" x2="118.5" y2="196.9" stroke="rgb(0,0,0)"  stroke-width="1.0"/>
<line x1="109.7" y1="200.1" x2="109.7" y2="160.2" stroke="rgb(0,0,0)"  stroke-width="1.0"/>
<line x1="109.7" y1="160.2" x2="144.2" y2="140.2" stroke="rgb(0,0,0)"  stroke-width="1.0"/>
<line x1="118.5" y1="163.4" x2="142.6" y2="149.4" stroke="rgb(0,0,0)"  stroke-width="1.0"/>
<text x="274.325229" y="188.559738" fill="rgb(12,12,255)"  stroke="rgb(12,12,255)" stroke-width="1" font-size="16" >N</text>
<text x="210.913730" y="220.265488" fill="rgb(12,12,255)"  stroke="rgb(12,12,255)" stroke-width="1" font-size="16" >N</text>
<text x="210.913730" y="155.843081" fill="rgb(178,178,0)"  stroke="rgb(178,178,0)" stroke-width="1" font-size="16" >S</text>
<text x="157.713185" y="317.810851" fill="rgb(102,102,102)"  stroke="rgb(102,102,102)" stroke-width="1" font-size="16" >HC</text>
<text x="354.298207" y="189.164348" fill="rgb(255,12,12)"  stroke="rgb(255,12,12)" stroke-width="1" font-size="16" >O</text>
<text x="274.325229" y="119.489089" fill="rgb(255,12,12)"  stroke="rgb(255,12,12)" stroke-width="1" font-size="16" >O</text>
<text x="393.883234" y="119.087628" fill="rgb(255,12,12)"  stroke="rgb(255,12,12)" stroke-width="1" font-size="16" >O</text>
<text x="34.000000" y="167.959466" fill="rgb(255,12,12)"  stroke="rgb(255,12,12)" stroke-width="1" font-size="16" >O</text>
<text x="69.139935" y="108.378775" fill="rgb(255,12,12)"  stroke="rgb(255,12,12)" stroke-width="1" font-size="16" >O</text>
<text x="36.401461" y="48.000000" fill="rgb(102,102,102)"  stroke="rgb(102,102,102)" stroke-width="1" font-size="16" >CH</text>
<text x="60.401461" y="51.680000" fill="rgb(102,102,102)"  stroke="rgb(102,102,102)" stroke-width="1" font-size="13" >3</text>
<text font-size="18.000000" fill ="black" font-family="sans-serif"
x="10.000000" y="20.000000" ></text>
<title> - OBDepict</title>
</svg>
