<?xml version="1.0"?>
<svg xmlns="http://www.w3.org/2000/svg"
xmlns:xlink="http://www.w3.org/1999/xlink" xmlns:cml="http://www.xml-cml.org/schema" width="402.193" height="360.854" x="0" y="0" font-family="sans-serif" stroke="rgb(0,0,0)" stroke-width="1"  stroke-linecap="round">
<rect x="0%" y="0%" width="100%" height="100%" stroke-width="0" fill="rgb(255,255,255)"  />
<line x1="254.5" y1="210.7" x2="242.7" y2="248.8" stroke="rgb(0,0,0)"  stroke-width="1.0"/>
<line x1="243.3" y1="251.8" x2="204.3" y2="260.6" stroke="rgb(0,0,0)"  stroke-width="1.0"/>
<line x1="242.0" y1="245.9" x2="203.0" y2="254.8" stroke="rgb(0,0,0)"  stroke-width="1.0"/>
<line x1="70.8" y1="260.3" x2="103.0" y2="236.0" stroke="rgb(0,0,0)"  stroke-width="1.0"/>
<line x1="50.0" y1="277.4" x2="70.8" y2="260.3" stroke="rgb(0,0,0)"  stroke-width="1.0"/>
<line x1="47.4" y1="274.2" x2="68.2" y2="257.1" stroke="rgb(0,0,0)"  stroke-width="1.0"/>
<line x1="52.7" y1="280.7" x2="73.5" y2="263.6" stroke="rgb(0,0,0)"  stroke-width="1.0"/>
<line x1="128.4" y1="309.1" x2="146.1" y2="289.0" stroke="rgb(0,0,0)"  stroke-width="1.0"/>
<line x1="132.9" y1="313.1" x2="150.6" y2="293.0" stroke="rgb(0,0,0)"  stroke-width="1.0"/>
<line x1="179.0" y1="204.5" x2="176.8" y2="231.4" stroke="rgb(0,0,0)"  stroke-width="1.0"/>
<line x1="173.0" y1="204.1" x2="170.9" y2="230.9" stroke="rgb(0,0,0)"  stroke-width="1.0"/>
<line x1="103.0" y1="236.0" x2="127.6" y2="246.7" stroke="rgb(0,0,0)"  stroke-width="1.0"/>
<line x1="267.7" y1="78.0" x2="241.5" y2="107.8" stroke="rgb(0,0,0)"  stroke-width="1.0"/>
<line x1="241.5" y1="107.8" x2="250.0" y2="133.0" stroke="rgb(0,0,0)"  stroke-width="1.0"/>
<line x1="262.0" y1="51.4" x2="270.5" y2="77.1" stroke="rgb(0,0,0)"  stroke-width="1.0"/>
<line x1="256.3" y1="53.3" x2="264.8" y2="79.0" stroke="rgb(0,0,0)"  stroke-width="1.0"/>
<line x1="230.9" y1="178.7" x2="246.7" y2="156.0" stroke="rgb(0,0,0)"  stroke-width="1.0"/>
<line x1="266.5" y1="149.5" x2="292.0" y2="158.0" stroke="rgb(0,0,0)"  stroke-width="1.0"/>
<line x1="292.0" y1="158.0" x2="293.0" y2="197.8" stroke="rgb(0,0,0)"  stroke-width="1.0"/>
<line x1="293.0" y1="197.8" x2="254.5" y2="210.7" stroke="rgb(0,0,0)"  stroke-width="1.0"/>
<line x1="254.5" y1="210.7" x2="230.9" y2="178.7" stroke="rgb(0,0,0)"  stroke-width="1.0"/>
<line x1="256.7" y1="201.6" x2="240.2" y2="179.2" stroke="rgb(0,0,0)"  stroke-width="1.0"/>
<line x1="142.4" y1="264.5" x2="148.3" y2="291.0" stroke="rgb(0,0,0)"  stroke-width="1.0"/>
<line x1="148.3" y1="291.0" x2="174.9" y2="293.4" stroke="rgb(0,0,0)"  stroke-width="1.0"/>
<line x1="193.0" y1="282.6" x2="203.7" y2="257.7" stroke="rgb(0,0,0)"  stroke-width="1.0"/>
<line x1="203.7" y1="257.7" x2="173.8" y2="231.2" stroke="rgb(0,0,0)"  stroke-width="1.0"/>
<line x1="173.8" y1="231.2" x2="150.6" y2="245.1" stroke="rgb(0,0,0)"  stroke-width="1.0"/>
<line x1="292.0" y1="158.0" x2="326.9" y2="137.5" stroke="rgb(0,0,0)"  stroke-width="1.0"/>
<line x1="300.8" y1="161.2" x2="325.3" y2="146.8" stroke="rgb(0,0,0)"  stroke-width="1.0"/>
<line x1="326.9" y1="137.5" x2="361.5" y2="157.5" stroke="rgb(0,0,0)"  stroke-width="1.0"/>
<line x1="361.5" y1="157.5" x2="362.2" y2="197.2" stroke="rgb(0,0,0)"  stroke-width="1.0"/>
<line x1="354.4" y1="163.6" x2="354.9" y2="191.3" stroke="rgb(0,0,0)"  stroke-width="1.0"/>
<line x1="362.2" y1="197.2" x2="327.7" y2="217.7" stroke="rgb(0,0,0)"  stroke-width="1.0"/>
<line x1="327.7" y1="217.7" x2="293.0" y2="197.8" stroke="rgb(0,0,0)"  stroke-width="1.0"/>
<line x1="326.1" y1="208.5" x2="301.8" y2="194.6" stroke="rgb(0,0,0)"  stroke-width="1.0"/>
<text x="133.506013" y="259.847450" fill="rgb(12,12,255)"  stroke="rgb(12,12,255)" stroke-width="1" font-size="16" >N</text>
<text x="181.844702" y="302.519178" fill="rgb(178,178,0)"  stroke="rgb(178,178,0)" stroke-width="1" font-size="16" >S</text>
<text x="248.182044" y="153.342498" fill="rgb(12,12,255)"  stroke="rgb(12,12,255)" stroke-width="1" font-size="16" >N</text>
<text x="22.000000" y="293.689376" fill="rgb(102,102,102)"  stroke="rgb(102,102,102)" stroke-width="1" font-size="16" >HC</text>
<text x="116.006246" y="328.853592" fill="rgb(255,12,12)"  stroke="rgb(255,12,12)" stroke-width="1" font-size="16" >O</text>
<text x="171.009667" y="199.346593" fill="rgb(255,12,12)"  stroke="rgb(255,12,12)" stroke-width="1" font-size="16" >O</text>
<text x="229.015136" y="48.000000" fill="rgb(102,102,102)"  stroke="rgb(102,102,102)" stroke-width="1" font-size="16" >H</text>
<text x="241.015136" y="51.680000" fill="rgb(102,102,102)"  stroke="rgb(102,102,102)" stroke-width="1" font-size="13" >2</text>
<text x="247.515136" y="48.000000" fill="rgb(102,102,102)"  stroke="rgb(102,102,102)" stroke-width="1" font-size="16" >C</text>
<text font-size="18.000000" fill ="black" font-family="sans-serif"
x="10.000000" y="20.000000" ></text>
<title> - OBDepict</title>
</svg>
