<?xml version="1.0"?>
<svg xmlns="http://www.w3.org/2000/svg"
xmlns:xlink="http://www.w3.org/1999/xlink" xmlns:cml="http://www.xml-cml.org/schema" width="259.847" height="357.44" x="0" y="0" font-family="sans-serif" stroke="rgb(0,0,0)" stroke-width="1"  stroke-linecap="round">
<rect x="0%" y="0%" width="100%" height="100%" stroke-width="0" fill="rgb(255,255,255)"  />
<line x1="123.1" y1="75.3" x2="102.5" y2="109.4" stroke="rgb(0,0,0)"  stroke-width="1.0"/>
<line x1="109.7" y1="51.3" x2="123.1" y2="75.3" stroke="rgb(0,0,0)"  stroke-width="1.0"/>
<line x1="113.4" y1="49.3" x2="126.8" y2="73.3" stroke="rgb(0,0,0)"  stroke-width="1.0"/>
<line x1="106.0" y1="53.4" x2="119.5" y2="77.4" stroke="rgb(0,0,0)"  stroke-width="1.0"/>
<line x1="171.5" y1="239.6" x2="158.1" y2="216.0" stroke="rgb(0,0,0)"  stroke-width="1.0"/>
<line x1="176.7" y1="236.6" x2="163.3" y2="213.0" stroke="rgb(0,0,0)"  stroke-width="1.0"/>
<line x1="160.7" y1="214.5" x2="120.7" y2="213.8" stroke="rgb(0,0,0)"  stroke-width="1.0"/>
<line x1="206.9" y1="250.6" x2="193.5" y2="250.0" stroke="rgb(0,0,0)"  stroke-width="1.0"/>
<line x1="115.3" y1="155.6" x2="101.4" y2="178.7" stroke="rgb(0,0,0)"  stroke-width="1.0"/>
<line x1="102.5" y1="109.4" x2="115.7" y2="133.1" stroke="rgb(0,0,0)"  stroke-width="1.0"/>
<line x1="120.7" y1="213.8" x2="100.0" y2="248.1" stroke="rgb(0,0,0)"  stroke-width="1.0"/>
<line x1="111.4" y1="215.3" x2="97.0" y2="239.2" stroke="rgb(0,0,0)"  stroke-width="1.0"/>
<line x1="100.0" y1="248.1" x2="60.5" y2="247.4" stroke="rgb(0,0,0)"  stroke-width="1.0"/>
<line x1="60.5" y1="247.4" x2="41.1" y2="212.7" stroke="rgb(0,0,0)"  stroke-width="1.0"/>
<line x1="63.8" y1="238.7" x2="50.3" y2="214.5" stroke="rgb(0,0,0)"  stroke-width="1.0"/>
<line x1="41.1" y1="212.7" x2="61.3" y2="178.1" stroke="rgb(0,0,0)"  stroke-width="1.0"/>
<line x1="61.3" y1="178.1" x2="101.4" y2="178.7" stroke="rgb(0,0,0)"  stroke-width="1.0"/>
<line x1="67.2" y1="185.4" x2="95.2" y2="185.8" stroke="rgb(0,0,0)"  stroke-width="1.0"/>
<line x1="101.4" y1="178.7" x2="120.7" y2="213.8" stroke="rgb(0,0,0)"  stroke-width="1.0"/>
<line x1="60.5" y1="247.4" x2="40.0" y2="282.1" stroke="rgb(0,0,0)"  stroke-width="1.0"/>
<line x1="40.0" y1="282.1" x2="59.3" y2="316.8" stroke="rgb(0,0,0)"  stroke-width="1.0"/>
<line x1="49.2" y1="283.8" x2="62.7" y2="308.0" stroke="rgb(0,0,0)"  stroke-width="1.0"/>
<line x1="59.3" y1="316.8" x2="99.4" y2="317.4" stroke="rgb(0,0,0)"  stroke-width="1.0"/>
<line x1="99.4" y1="317.4" x2="120.0" y2="283.2" stroke="rgb(0,0,0)"  stroke-width="1.0"/>
<line x1="96.3" y1="308.6" x2="110.8" y2="284.6" stroke="rgb(0,0,0)"  stroke-width="1.0"/>
<line x1="120.0" y1="283.2" x2="100.0" y2="248.1" stroke="rgb(0,0,0)"  stroke-width="1.0"/>
<text x="85.359347" y="48.000000" fill="rgb(102,102,102)"  stroke="rgb(102,102,102)" stroke-width="1" font-size="16" >HC</text>
<text x="174.495629" y="257.414261" fill="rgb(12,12,255)"  stroke="rgb(12,12,255)" stroke-width="1" font-size="16" >N</text>
<text x="213.847212" y="259.194590" fill="rgb(255,12,12)"  stroke="rgb(255,12,12)" stroke-width="1" font-size="16" >OH</text>
<text x="116.030975" y="152.486408" fill="rgb(255,12,12)"  stroke="rgb(255,12,12)" stroke-width="1" font-size="16" >O</text>
<text font-size="18.000000" fill ="black" font-family="sans-serif"
x="10.000000" y="20.000000" ></text>
<title> - OBDepict</title>
</svg>
