<?xml version="1.0"?>
<svg xmlns="http://www.w3.org/2000/svg"
xmlns:xlink="http://www.w3.org/1999/xlink" xmlns:cml="http://www.xml-cml.org/schema" width="412.346" height="446.266" x="0" y="0" font-family="sans-serif" stroke="rgb(0,0,0)" stroke-width="1"  stroke-linecap="round">
<rect x="0%" y="0%" width="100%" height="100%" stroke-width="0" fill="rgb(255,255,255)"  />
<line x1="188.8" y1="209.5" x2="165.5" y2="223.3" stroke="rgb(0,0,0)"  stroke-width="1.0"/>
<line x1="185.8" y1="204.3" x2="162.4" y2="218.1" stroke="rgb(0,0,0)"  stroke-width="1.0"/>
<line x1="233.0" y1="140.1" x2="198.5" y2="160.1" stroke="rgb(0,0,0)"  stroke-width="1.0"/>
<line x1="198.5" y1="160.1" x2="198.5" y2="187.3" stroke="rgb(0,0,0)"  stroke-width="1.0"/>
<line x1="180.1" y1="327.3" x2="189.2" y2="288.2" stroke="rgb(0,0,0)"  stroke-width="1.0"/>
<line x1="174.1" y1="354.0" x2="180.1" y2="327.3" stroke="rgb(0,0,0)"  stroke-width="1.0"/>
<line x1="170.0" y1="353.1" x2="176.0" y2="326.4" stroke="rgb(0,0,0)"  stroke-width="1.0"/>
<line x1="178.2" y1="354.9" x2="184.2" y2="328.2" stroke="rgb(0,0,0)"  stroke-width="1.0"/>
<line x1="176.2" y1="144.3" x2="200.0" y2="157.5" stroke="rgb(0,0,0)"  stroke-width="1.0"/>
<line x1="173.3" y1="149.5" x2="197.0" y2="162.8" stroke="rgb(0,0,0)"  stroke-width="1.0"/>
<line x1="271.2" y1="53.0" x2="271.2" y2="80.2" stroke="rgb(0,0,0)"  stroke-width="1.0"/>
<line x1="265.2" y1="53.0" x2="265.2" y2="80.2" stroke="rgb(0,0,0)"  stroke-width="1.0"/>
<line x1="189.2" y1="288.2" x2="168.7" y2="269.1" stroke="rgb(0,0,0)"  stroke-width="1.0"/>
<line x1="112.4" y1="326.1" x2="99.6" y2="302.1" stroke="rgb(0,0,0)"  stroke-width="1.0"/>
<line x1="97.9" y1="371.7" x2="111.8" y2="348.7" stroke="rgb(0,0,0)"  stroke-width="1.0"/>
<line x1="110.4" y1="394.8" x2="97.9" y2="371.7" stroke="rgb(0,0,0)"  stroke-width="1.0"/>
<line x1="164.0" y1="220.7" x2="140.0" y2="209.5" stroke="rgb(0,0,0)"  stroke-width="1.0"/>
<line x1="119.2" y1="213.3" x2="100.4" y2="233.0" stroke="rgb(0,0,0)"  stroke-width="1.0"/>
<line x1="100.4" y1="233.0" x2="120.2" y2="268.0" stroke="rgb(0,0,0)"  stroke-width="1.0"/>
<line x1="109.6" y1="234.7" x2="123.5" y2="259.2" stroke="rgb(0,0,0)"  stroke-width="1.0"/>
<line x1="120.2" y1="268.0" x2="146.4" y2="262.8" stroke="rgb(0,0,0)"  stroke-width="1.0"/>
<line x1="160.7" y1="247.4" x2="164.0" y2="220.7" stroke="rgb(0,0,0)"  stroke-width="1.0"/>
<line x1="233.0" y1="140.1" x2="233.6" y2="100.0" stroke="rgb(0,0,0)"  stroke-width="1.0"/>
<line x1="240.3" y1="134.3" x2="240.7" y2="106.1" stroke="rgb(0,0,0)"  stroke-width="1.0"/>
<line x1="233.6" y1="100.0" x2="268.2" y2="80.2" stroke="rgb(0,0,0)"  stroke-width="1.0"/>
<line x1="268.2" y1="80.2" x2="303.1" y2="100.6" stroke="rgb(0,0,0)"  stroke-width="1.0"/>
<line x1="303.1" y1="100.6" x2="302.5" y2="140.1" stroke="rgb(0,0,0)"  stroke-width="1.0"/>
<line x1="295.8" y1="106.5" x2="295.4" y2="134.0" stroke="rgb(0,0,0)"  stroke-width="1.0"/>
<line x1="302.5" y1="140.1" x2="278.9" y2="153.4" stroke="rgb(0,0,0)"  stroke-width="1.0"/>
<line x1="256.2" y1="153.3" x2="233.0" y2="140.1" stroke="rgb(0,0,0)"  stroke-width="1.0"/>
<line x1="337.8" y1="80.6" x2="303.1" y2="100.6" stroke="rgb(0,0,0)"  stroke-width="1.0"/>
<line x1="302.5" y1="140.1" x2="337.2" y2="160.1" stroke="rgb(0,0,0)"  stroke-width="1.0"/>
<line x1="337.2" y1="160.1" x2="372.1" y2="140.6" stroke="rgb(0,0,0)"  stroke-width="1.0"/>
<line x1="338.9" y1="150.9" x2="363.4" y2="137.2" stroke="rgb(0,0,0)"  stroke-width="1.0"/>
<line x1="372.1" y1="140.6" x2="372.3" y2="100.6" stroke="rgb(0,0,0)"  stroke-width="1.0"/>
<line x1="372.3" y1="100.6" x2="337.8" y2="80.6" stroke="rgb(0,0,0)"  stroke-width="1.0"/>
<line x1="363.5" y1="103.8" x2="339.4" y2="89.8" stroke="rgb(0,0,0)"  stroke-width="1.0"/>
<line x1="99.6" y1="302.1" x2="60.0" y2="301.5" stroke="rgb(0,0,0)"  stroke-width="1.0"/>
<line x1="93.7" y1="294.8" x2="66.1" y2="294.4" stroke="rgb(0,0,0)"  stroke-width="1.0"/>
<line x1="60.0" y1="301.5" x2="40.0" y2="266.3" stroke="rgb(0,0,0)"  stroke-width="1.0"/>
<line x1="40.0" y1="266.3" x2="61.2" y2="232.2" stroke="rgb(0,0,0)"  stroke-width="1.0"/>
<line x1="49.3" y1="265.0" x2="64.1" y2="241.1" stroke="rgb(0,0,0)"  stroke-width="1.0"/>
<line x1="61.2" y1="232.2" x2="100.4" y2="233.0" stroke="rgb(0,0,0)"  stroke-width="1.0"/>
<line x1="120.2" y1="268.0" x2="99.6" y2="302.1" stroke="rgb(0,0,0)"  stroke-width="1.0"/>
<text x="192.498941" y="208.319205" fill="rgb(12,12,255)"  stroke="rgb(12,12,255)" stroke-width="1" font-size="16" >N</text>
<text x="153.127829" y="268.286005" fill="rgb(12,12,255)"  stroke="rgb(12,12,255)" stroke-width="1" font-size="16" >N</text>
<text x="122.236724" y="211.954881" fill="rgb(178,178,0)"  stroke="rgb(178,178,0)" stroke-width="1" font-size="16" >S</text>
<text x="261.552502" y="167.734584" fill="rgb(255,12,12)"  stroke="rgb(255,12,12)" stroke-width="1" font-size="16" >O</text>
<text x="153.243511" y="374.691397" fill="rgb(102,102,102)"  stroke="rgb(102,102,102)" stroke-width="1" font-size="16" >HC</text>
<text x="157.370259" y="148.551421" fill="rgb(255,12,12)"  stroke="rgb(255,12,12)" stroke-width="1" font-size="16" >O</text>
<text x="262.159257" y="48.000000" fill="rgb(255,12,12)"  stroke="rgb(255,12,12)" stroke-width="1" font-size="16" >O</text>
<text x="112.543208" y="345.615703" fill="rgb(255,12,12)"  stroke="rgb(255,12,12)" stroke-width="1" font-size="16" >O</text>
<text x="112.523927" y="414.266379" fill="rgb(102,102,102)"  stroke="rgb(102,102,102)" stroke-width="1" font-size="16" >CH</text>
<text x="136.523927" y="417.946379" fill="rgb(102,102,102)"  stroke="rgb(102,102,102)" stroke-width="1" font-size="13" >3</text>
<text font-size="18.000000" fill ="black" font-family="sans-serif"
x="10.000000" y="20.000000" ></text>
<title> - OBDepict</title>
</svg>
