<?xml version="1.0"?>
<svg xmlns="http://www.w3.org/2000/svg"
xmlns:xlink="http://www.w3.org/1999/xlink" xmlns:cml="http://www.xml-cml.org/schema" width="206.669" height="720.006" x="0" y="0" font-family="sans-serif" stroke="rgb(0,0,0)" stroke-width="1"  stroke-linecap="round">
<rect x="0%" y="0%" width="100%" height="100%" stroke-width="0" fill="rgb(255,255,255)"  />
<line x1="113.1" y1="403.6" x2="104.8" y2="378.0" stroke="rgb(0,0,0)"  stroke-width="1.0"/>
<line x1="81.6" y1="640.6" x2="72.3" y2="630.3" stroke="rgb(0,0,0)"  stroke-width="1.0"/>
<line x1="109.5" y1="356.0" x2="127.5" y2="336.0" stroke="rgb(0,0,0)"  stroke-width="1.0"/>
<line x1="127.5" y1="336.0" x2="115.2" y2="297.8" stroke="rgb(0,0,0)"  stroke-width="1.0"/>
<line x1="90.3" y1="221.8" x2="82.0" y2="196.4" stroke="rgb(0,0,0)"  stroke-width="1.0"/>
<line x1="67.6" y1="608.2" x2="76.0" y2="582.6" stroke="rgb(0,0,0)"  stroke-width="1.0"/>
<line x1="80.0" y1="78.2" x2="92.5" y2="116.2" stroke="rgb(0,0,0)"  stroke-width="1.0"/>
<line x1="71.7" y1="52.4" x2="80.0" y2="78.2" stroke="rgb(0,0,0)"  stroke-width="1.0"/>
<line x1="75.7" y1="51.1" x2="84.0" y2="76.9" stroke="rgb(0,0,0)"  stroke-width="1.0"/>
<line x1="67.7" y1="53.7" x2="76.0" y2="79.5" stroke="rgb(0,0,0)"  stroke-width="1.0"/>
<line x1="104.7" y1="178.4" x2="91.3" y2="182.8" stroke="rgb(0,0,0)"  stroke-width="1.0"/>
<line x1="102.9" y1="172.7" x2="89.4" y2="177.1" stroke="rgb(0,0,0)"  stroke-width="1.0"/>
<line x1="51.5" y1="189.4" x2="64.7" y2="185.1" stroke="rgb(0,0,0)"  stroke-width="1.0"/>
<line x1="53.3" y1="195.1" x2="66.5" y2="190.9" stroke="rgb(0,0,0)"  stroke-width="1.0"/>
<line x1="100.8" y1="506.5" x2="113.1" y2="468.5" stroke="rgb(0,0,0)"  stroke-width="1.0"/>
<line x1="68.2" y1="666.2" x2="78.7" y2="656.8" stroke="rgb(0,0,0)"  stroke-width="1.0"/>
<line x1="72.3" y1="670.7" x2="82.7" y2="661.3" stroke="rgb(0,0,0)"  stroke-width="1.0"/>
<line x1="106.2" y1="672.4" x2="96.8" y2="662.0" stroke="rgb(0,0,0)"  stroke-width="1.0"/>
<line x1="110.7" y1="668.4" x2="101.3" y2="657.9" stroke="rgb(0,0,0)"  stroke-width="1.0"/>
<line x1="69.6" y1="158.2" x2="74.0" y2="171.7" stroke="rgb(0,0,0)"  stroke-width="1.0"/>
<line x1="153.3" y1="344.5" x2="126.9" y2="338.9" stroke="rgb(0,0,0)"  stroke-width="1.0"/>
<line x1="154.6" y1="338.6" x2="128.1" y2="333.0" stroke="rgb(0,0,0)"  stroke-width="1.0"/>
<line x1="110.5" y1="632.3" x2="100.0" y2="641.7" stroke="rgb(0,0,0)"  stroke-width="1.0"/>
<line x1="92.5" y1="116.2" x2="74.4" y2="136.2" stroke="rgb(0,0,0)"  stroke-width="1.0"/>
<line x1="113.1" y1="403.6" x2="138.7" y2="412.0" stroke="rgb(0,0,0)"  stroke-width="1.0"/>
<line x1="151.1" y1="429.0" x2="151.1" y2="456.0" stroke="rgb(0,0,0)"  stroke-width="1.0"/>
<line x1="151.1" y1="456.0" x2="113.1" y2="468.5" stroke="rgb(0,0,0)"  stroke-width="1.0"/>
<line x1="143.2" y1="451.0" x2="116.6" y2="459.8" stroke="rgb(0,0,0)"  stroke-width="1.0"/>
<line x1="113.1" y1="468.5" x2="97.1" y2="446.5" stroke="rgb(0,0,0)"  stroke-width="1.0"/>
<line x1="97.3" y1="425.3" x2="113.1" y2="403.6" stroke="rgb(0,0,0)"  stroke-width="1.0"/>
<line x1="104.3" y1="427.9" x2="115.4" y2="412.7" stroke="rgb(0,0,0)"  stroke-width="1.0"/>
<line x1="100.8" y1="506.5" x2="127.5" y2="536.2" stroke="rgb(0,0,0)"  stroke-width="1.0"/>
<line x1="127.5" y1="536.2" x2="115.2" y2="574.1" stroke="rgb(0,0,0)"  stroke-width="1.0"/>
<line x1="118.8" y1="539.6" x2="110.2" y2="566.2" stroke="rgb(0,0,0)"  stroke-width="1.0"/>
<line x1="115.2" y1="574.1" x2="76.0" y2="582.6" stroke="rgb(0,0,0)"  stroke-width="1.0"/>
<line x1="76.0" y1="582.6" x2="49.3" y2="552.7" stroke="rgb(0,0,0)"  stroke-width="1.0"/>
<line x1="77.3" y1="573.4" x2="58.7" y2="552.4" stroke="rgb(0,0,0)"  stroke-width="1.0"/>
<line x1="49.3" y1="552.7" x2="61.6" y2="514.8" stroke="rgb(0,0,0)"  stroke-width="1.0"/>
<line x1="61.6" y1="514.8" x2="100.8" y2="506.5" stroke="rgb(0,0,0)"  stroke-width="1.0"/>
<line x1="69.0" y1="520.6" x2="96.4" y2="514.8" stroke="rgb(0,0,0)"  stroke-width="1.0"/>
<line x1="90.3" y1="221.8" x2="129.5" y2="230.1" stroke="rgb(0,0,0)"  stroke-width="1.0"/>
<line x1="129.5" y1="230.1" x2="141.8" y2="268.1" stroke="rgb(0,0,0)"  stroke-width="1.0"/>
<line x1="124.5" y1="238.0" x2="133.1" y2="264.6" stroke="rgb(0,0,0)"  stroke-width="1.0"/>
<line x1="141.8" y1="268.1" x2="115.2" y2="297.8" stroke="rgb(0,0,0)"  stroke-width="1.0"/>
<line x1="115.2" y1="297.8" x2="76.0" y2="289.5" stroke="rgb(0,0,0)"  stroke-width="1.0"/>
<line x1="110.8" y1="289.5" x2="83.3" y2="283.7" stroke="rgb(0,0,0)"  stroke-width="1.0"/>
<line x1="76.0" y1="289.5" x2="63.6" y2="251.5" stroke="rgb(0,0,0)"  stroke-width="1.0"/>
<line x1="63.6" y1="251.5" x2="90.3" y2="221.8" stroke="rgb(0,0,0)"  stroke-width="1.0"/>
<line x1="73.0" y1="251.9" x2="91.7" y2="231.1" stroke="rgb(0,0,0)"  stroke-width="1.0"/>
<text x="71.978453" y="192.041828" fill="rgb(178,178,0)"  stroke="rgb(178,178,0)" stroke-width="1" font-size="16" >S</text>
<text x="84.305091" y="658.306718" fill="rgb(178,178,0)"  stroke="rgb(178,178,0)" stroke-width="1" font-size="16" >S</text>
<text x="83.495595" y="443.964761" fill="rgb(12,12,255)"  stroke="rgb(12,12,255)" stroke-width="1" font-size="16" >N</text>
<text x="82.804304" y="373.659785" fill="rgb(12,12,255)"  stroke="rgb(12,12,255)" stroke-width="1" font-size="16" >HN</text>
<text x="145.109395" y="423.964876" fill="rgb(178,178,0)"  stroke="rgb(178,178,0)" stroke-width="1" font-size="16" >S</text>
<text x="45.635346" y="628.612269" fill="rgb(12,12,255)"  stroke="rgb(12,12,255)" stroke-width="1" font-size="16" >HN</text>
<text x="49.673132" y="48.000000" fill="rgb(102,102,102)"  stroke="rgb(102,102,102)" stroke-width="1" font-size="16" >HC</text>
<text x="110.160493" y="179.516452" fill="rgb(255,12,12)"  stroke="rgb(255,12,12)" stroke-width="1" font-size="16" >O</text>
<text x="34.000000" y="204.160033" fill="rgb(255,12,12)"  stroke="rgb(255,12,12)" stroke-width="1" font-size="16" >O</text>
<text x="54.605795" y="685.180048" fill="rgb(255,12,12)"  stroke="rgb(255,12,12)" stroke-width="1" font-size="16" >O</text>
<text x="111.168727" y="688.006014" fill="rgb(255,12,12)"  stroke="rgb(255,12,12)" stroke-width="1" font-size="16" >O</text>
<text x="47.651816" y="153.859789" fill="rgb(12,12,255)"  stroke="rgb(12,12,255)" stroke-width="1" font-size="16" >HN</text>
<text x="160.669170" y="352.244494" fill="rgb(255,12,12)"  stroke="rgb(255,12,12)" stroke-width="1" font-size="16" >O</text>
<text x="116.198278" y="631.641820" fill="rgb(102,102,102)"  stroke="rgb(102,102,102)" stroke-width="1" font-size="16" >CH</text>
<text x="140.198278" y="635.321820" fill="rgb(102,102,102)"  stroke="rgb(102,102,102)" stroke-width="1" font-size="13" >3</text>
<text font-size="18.000000" fill ="black" font-family="sans-serif"
x="10.000000" y="20.000000" ></text>
<title> - OBDepict</title>
</svg>
