<?xml version="1.0"?>
<svg xmlns="http://www.w3.org/2000/svg"
xmlns:xlink="http://www.w3.org/1999/xlink" xmlns:cml="http://www.xml-cml.org/schema" width="356.553" height="268.523" x="0" y="0" font-family="sans-serif" stroke="rgb(0,0,0)" stroke-width="1"  stroke-linecap="round">
<rect x="0%" y="0%" width="100%" height="100%" stroke-width="0" fill="rgb(255,255,255)"  />
<line x1="177.8" y1="159.6" x2="212.5" y2="139.6" stroke="rgb(0,0,0)"  stroke-width="1.0"/>
<line x1="247.2" y1="199.6" x2="247.2" y2="159.6" stroke="rgb(0,0,0)"  stroke-width="1.0"/>
<line x1="154.4" y1="146.1" x2="177.8" y2="159.6" stroke="rgb(0,0,0)"  stroke-width="1.0"/>
<line x1="80.0" y1="131.2" x2="108.5" y2="159.6" stroke="rgb(0,0,0)"  stroke-width="1.0"/>
<line x1="61.2" y1="112.1" x2="80.0" y2="131.2" stroke="rgb(0,0,0)"  stroke-width="1.0"/>
<line x1="64.1" y1="109.2" x2="83.0" y2="128.2" stroke="rgb(0,0,0)"  stroke-width="1.0"/>
<line x1="58.2" y1="115.1" x2="77.0" y2="134.1" stroke="rgb(0,0,0)"  stroke-width="1.0"/>
<line x1="108.5" y1="159.6" x2="131.9" y2="146.1" stroke="rgb(0,0,0)"  stroke-width="1.0"/>
<line x1="174.8" y1="186.6" x2="174.8" y2="159.6" stroke="rgb(0,0,0)"  stroke-width="1.0"/>
<line x1="180.8" y1="186.6" x2="180.8" y2="159.6" stroke="rgb(0,0,0)"  stroke-width="1.0"/>
<line x1="269.1" y1="215.7" x2="245.7" y2="202.2" stroke="rgb(0,0,0)"  stroke-width="1.0"/>
<line x1="272.1" y1="210.5" x2="248.7" y2="197.0" stroke="rgb(0,0,0)"  stroke-width="1.0"/>
<line x1="223.8" y1="213.1" x2="247.2" y2="199.6" stroke="rgb(0,0,0)"  stroke-width="1.0"/>
<line x1="305.3" y1="86.1" x2="281.9" y2="99.6" stroke="rgb(0,0,0)"  stroke-width="1.0"/>
<line x1="247.2" y1="53.0" x2="247.2" y2="79.6" stroke="rgb(0,0,0)"  stroke-width="1.0"/>
<line x1="77.8" y1="185.2" x2="108.5" y2="159.6" stroke="rgb(0,0,0)"  stroke-width="1.0"/>
<line x1="131.4" y1="192.3" x2="108.5" y2="159.6" stroke="rgb(0,0,0)"  stroke-width="1.0"/>
<line x1="52.2" y1="176.0" x2="77.8" y2="185.2" stroke="rgb(0,0,0)"  stroke-width="1.0"/>
<line x1="120.0" y1="216.7" x2="131.4" y2="192.3" stroke="rgb(0,0,0)"  stroke-width="1.0"/>
<line x1="212.5" y1="139.6" x2="247.2" y2="159.6" stroke="rgb(0,0,0)"  stroke-width="1.0"/>
<line x1="247.2" y1="159.6" x2="281.9" y2="139.6" stroke="rgb(0,0,0)"  stroke-width="1.0"/>
<line x1="281.9" y1="139.6" x2="281.9" y2="99.6" stroke="rgb(0,0,0)"  stroke-width="1.0"/>
<line x1="281.9" y1="99.6" x2="247.2" y2="79.6" stroke="rgb(0,0,0)"  stroke-width="1.0"/>
<line x1="273.1" y1="102.8" x2="248.8" y2="88.8" stroke="rgb(0,0,0)"  stroke-width="1.0"/>
<line x1="247.2" y1="79.6" x2="212.5" y2="99.6" stroke="rgb(0,0,0)"  stroke-width="1.0"/>
<line x1="212.5" y1="99.6" x2="212.5" y2="139.6" stroke="rgb(0,0,0)"  stroke-width="1.0"/>
<text x="137.152340" y="147.599881" fill="rgb(12,12,255)"  stroke="rgb(12,12,255)" stroke-width="1" font-size="16" >N</text>
<text x="137.152340" y="131.599881" fill="rgb(12,12,255)"  stroke="rgb(12,12,255)" stroke-width="1" font-size="16" >H</text>
<text x="34.006534" y="110.915405" fill="rgb(102,102,102)"  stroke="rgb(102,102,102)" stroke-width="1" font-size="16" >HC</text>
<text x="171.832491" y="207.622847" fill="rgb(255,12,12)"  stroke="rgb(255,12,12)" stroke-width="1" font-size="16" >O</text>
<text x="275.872946" y="227.627267" fill="rgb(255,12,12)"  stroke="rgb(255,12,12)" stroke-width="1" font-size="16" >O</text>
<text x="194.512643" y="227.627267" fill="rgb(255,12,12)"  stroke="rgb(255,12,12)" stroke-width="1" font-size="16" >HO</text>
<text x="312.553098" y="87.572062" fill="rgb(102,102,102)"  stroke="rgb(102,102,102)" stroke-width="1" font-size="16" >CH</text>
<text x="336.553098" y="91.252062" fill="rgb(102,102,102)"  stroke="rgb(102,102,102)" stroke-width="1" font-size="13" >3</text>
<text x="243.192795" y="48.000000" fill="rgb(102,102,102)"  stroke="rgb(102,102,102)" stroke-width="1" font-size="16" >CH</text>
<text x="267.192795" y="51.680000" fill="rgb(102,102,102)"  stroke="rgb(102,102,102)" stroke-width="1" font-size="13" >3</text>
<text x="14.000000" y="179.610835" fill="rgb(102,102,102)"  stroke="rgb(102,102,102)" stroke-width="1" font-size="16" >H</text>
<text x="26.000000" y="183.290835" fill="rgb(102,102,102)"  stroke="rgb(102,102,102)" stroke-width="1" font-size="13" >3</text>
<text x="32.500000" y="179.610835" fill="rgb(102,102,102)"  stroke="rgb(102,102,102)" stroke-width="1" font-size="16" >C</text>
<text x="88.475456" y="236.522973" fill="rgb(102,102,102)"  stroke="rgb(102,102,102)" stroke-width="1" font-size="16" >H</text>
<text x="100.475456" y="240.202973" fill="rgb(102,102,102)"  stroke="rgb(102,102,102)" stroke-width="1" font-size="13" >3</text>
<text x="106.975456" y="236.522973" fill="rgb(102,102,102)"  stroke="rgb(102,102,102)" stroke-width="1" font-size="16" >C</text>
<text font-size="18.000000" fill ="black" font-family="sans-serif"
x="10.000000" y="20.000000" ></text>
<title> - OBDepict</title>
</svg>
