<?xml version="1.0"?>
<svg xmlns="http://www.w3.org/2000/svg"
xmlns:xlink="http://www.w3.org/1999/xlink" xmlns:cml="http://www.xml-cml.org/schema" width="462.447" height="320.139" x="0" y="0" font-family="sans-serif" stroke="rgb(0,0,0)" stroke-width="1"  stroke-linecap="round">
<rect x="0%" y="0%" width="100%" height="100%" stroke-width="0" fill="rgb(255,255,255)"  />
<line x1="353.0" y1="200.0" x2="353.0" y2="172.8" stroke="rgb(0,0,0)"  stroke-width="1.0"/>
<line x1="285.0" y1="76.9" x2="320.1" y2="97.1" stroke="rgb(0,0,0)"  stroke-width="1.0"/>
<line x1="282.0" y1="82.1" x2="317.1" y2="102.3" stroke="rgb(0,0,0)"  stroke-width="1.0"/>
<line x1="249.0" y1="99.5" x2="283.5" y2="79.5" stroke="rgb(0,0,0)"  stroke-width="1.0"/>
<line x1="75.0" y1="158.3" x2="110.2" y2="139.0" stroke="rgb(0,0,0)"  stroke-width="1.0"/>
<line x1="409.7" y1="156.1" x2="386.0" y2="142.6" stroke="rgb(0,0,0)"  stroke-width="1.0"/>
<line x1="412.6" y1="150.9" x2="388.9" y2="137.4" stroke="rgb(0,0,0)"  stroke-width="1.0"/>
<line x1="51.3" y1="171.6" x2="75.0" y2="158.3" stroke="rgb(0,0,0)"  stroke-width="1.0"/>
<line x1="49.3" y1="168.0" x2="72.9" y2="154.7" stroke="rgb(0,0,0)"  stroke-width="1.0"/>
<line x1="53.4" y1="175.3" x2="77.1" y2="162.0" stroke="rgb(0,0,0)"  stroke-width="1.0"/>
<line x1="293.3" y1="151.0" x2="317.1" y2="137.4" stroke="rgb(0,0,0)"  stroke-width="1.0"/>
<line x1="296.3" y1="156.2" x2="320.1" y2="142.6" stroke="rgb(0,0,0)"  stroke-width="1.0"/>
<line x1="356.0" y1="53.0" x2="356.0" y2="79.8" stroke="rgb(0,0,0)"  stroke-width="1.0"/>
<line x1="350.0" y1="53.0" x2="350.0" y2="79.8" stroke="rgb(0,0,0)"  stroke-width="1.0"/>
<line x1="156.3" y1="85.8" x2="179.6" y2="99.5" stroke="rgb(0,0,0)"  stroke-width="1.0"/>
<line x1="214.1" y1="186.1" x2="214.1" y2="159.3" stroke="rgb(0,0,0)"  stroke-width="1.0"/>
<line x1="155.8" y1="152.9" x2="179.6" y2="139.3" stroke="rgb(0,0,0)"  stroke-width="1.0"/>
<line x1="411.3" y1="273.5" x2="387.8" y2="259.6" stroke="rgb(0,0,0)"  stroke-width="1.0"/>
<line x1="110.2" y1="139.0" x2="133.3" y2="152.7" stroke="rgb(0,0,0)"  stroke-width="1.0"/>
<line x1="341.7" y1="153.3" x2="318.6" y2="140.0" stroke="rgb(0,0,0)"  stroke-width="1.0"/>
<line x1="318.6" y1="140.0" x2="318.6" y2="99.7" stroke="rgb(0,0,0)"  stroke-width="1.0"/>
<line x1="318.6" y1="99.7" x2="353.0" y2="79.8" stroke="rgb(0,0,0)"  stroke-width="1.0"/>
<line x1="353.0" y1="79.8" x2="376.2" y2="93.2" stroke="rgb(0,0,0)"  stroke-width="1.0"/>
<line x1="387.5" y1="112.7" x2="387.5" y2="140.0" stroke="rgb(0,0,0)"  stroke-width="1.0"/>
<line x1="387.5" y1="140.0" x2="364.2" y2="153.3" stroke="rgb(0,0,0)"  stroke-width="1.0"/>
<line x1="179.6" y1="99.5" x2="179.6" y2="139.3" stroke="rgb(0,0,0)"  stroke-width="1.0"/>
<line x1="179.6" y1="139.3" x2="214.1" y2="159.3" stroke="rgb(0,0,0)"  stroke-width="1.0"/>
<line x1="188.4" y1="136.1" x2="212.6" y2="150.1" stroke="rgb(0,0,0)"  stroke-width="1.0"/>
<line x1="214.1" y1="159.3" x2="248.5" y2="139.3" stroke="rgb(0,0,0)"  stroke-width="1.0"/>
<line x1="248.5" y1="139.3" x2="249.0" y2="99.5" stroke="rgb(0,0,0)"  stroke-width="1.0"/>
<line x1="241.3" y1="133.2" x2="241.7" y2="105.4" stroke="rgb(0,0,0)"  stroke-width="1.0"/>
<line x1="249.0" y1="99.5" x2="214.5" y2="79.5" stroke="rgb(0,0,0)"  stroke-width="1.0"/>
<line x1="214.5" y1="79.5" x2="179.6" y2="99.5" stroke="rgb(0,0,0)"  stroke-width="1.0"/>
<line x1="212.9" y1="88.7" x2="188.4" y2="102.8" stroke="rgb(0,0,0)"  stroke-width="1.0"/>
<line x1="353.0" y1="200.0" x2="387.8" y2="219.8" stroke="rgb(0,0,0)"  stroke-width="1.0"/>
<line x1="387.8" y1="219.8" x2="387.8" y2="259.6" stroke="rgb(0,0,0)"  stroke-width="1.0"/>
<line x1="380.6" y1="225.8" x2="380.6" y2="253.6" stroke="rgb(0,0,0)"  stroke-width="1.0"/>
<line x1="387.8" y1="259.6" x2="353.0" y2="279.6" stroke="rgb(0,0,0)"  stroke-width="1.0"/>
<line x1="353.0" y1="279.6" x2="318.6" y2="259.6" stroke="rgb(0,0,0)"  stroke-width="1.0"/>
<line x1="351.4" y1="270.4" x2="327.4" y2="256.4" stroke="rgb(0,0,0)"  stroke-width="1.0"/>
<line x1="318.6" y1="259.6" x2="318.6" y2="219.8" stroke="rgb(0,0,0)"  stroke-width="1.0"/>
<line x1="318.6" y1="219.8" x2="353.0" y2="200.0" stroke="rgb(0,0,0)"  stroke-width="1.0"/>
<line x1="327.4" y1="223.0" x2="351.4" y2="209.2" stroke="rgb(0,0,0)"  stroke-width="1.0"/>
<text x="346.957739" y="167.820370" fill="rgb(12,12,255)"  stroke="rgb(12,12,255)" stroke-width="1" font-size="16" >N</text>
<text x="381.451043" y="107.663701" fill="rgb(12,12,255)"  stroke="rgb(12,12,255)" stroke-width="1" font-size="16" >NH</text>
<text x="416.446981" y="167.984693" fill="rgb(255,12,12)"  stroke="rgb(255,12,12)" stroke-width="1" font-size="16" >O</text>
<text x="22.000000" y="185.982881" fill="rgb(102,102,102)"  stroke="rgb(102,102,102)" stroke-width="1" font-size="16" >HC</text>
<text x="277.468497" y="167.984693" fill="rgb(255,12,12)"  stroke="rgb(255,12,12)" stroke-width="1" font-size="16" >O</text>
<text x="346.957739" y="48.000000" fill="rgb(255,12,12)"  stroke="rgb(255,12,12)" stroke-width="1" font-size="16" >O</text>
<text x="127.147305" y="87.166839" fill="rgb(165,40,40)"  stroke="rgb(165,40,40)" stroke-width="1" font-size="16" >Br</text>
<text x="208.138745" y="207.146700" fill="rgb(165,40,40)"  stroke="rgb(165,40,40)" stroke-width="1" font-size="16" >Br</text>
<text x="138.485180" y="167.322569" fill="rgb(255,12,12)"  stroke="rgb(255,12,12)" stroke-width="1" font-size="16" >O</text>
<text x="416.446981" y="288.138543" fill="rgb(127,178,255)"  stroke="rgb(127,178,255)" stroke-width="1" font-size="16" >F</text>
<text font-size="18.000000" fill ="black" font-family="sans-serif"
x="10.000000" y="20.000000" ></text>
<title> - OBDepict</title>
</svg>
