<?xml version="1.0"?>
<svg xmlns="http://www.w3.org/2000/svg"
xmlns:xlink="http://www.w3.org/1999/xlink" xmlns:cml="http://www.xml-cml.org/schema" width="362.505" height="206.041" x="0" y="0" font-family="sans-serif" stroke="rgb(0,0,0)" stroke-width="1"  stroke-linecap="round">
<rect x="0%" y="0%" width="100%" height="100%" stroke-width="0" fill="rgb(255,255,255)"  />
<line x1="123.3" y1="66.9" x2="123.1" y2="53.0" stroke="rgb(0,0,0)"  stroke-width="1.0"/>
<line x1="156.3" y1="102.8" x2="194.1" y2="89.8" stroke="rgb(0,0,0)"  stroke-width="1.0"/>
<line x1="194.1" y1="89.8" x2="214.5" y2="107.5" stroke="rgb(0,0,0)"  stroke-width="1.0"/>
<line x1="191.1" y1="89.3" x2="196.2" y2="62.8" stroke="rgb(0,0,0)"  stroke-width="1.0"/>
<line x1="197.0" y1="90.4" x2="202.1" y2="63.9" stroke="rgb(0,0,0)"  stroke-width="1.0"/>
<line x1="236.6" y1="111.8" x2="262.1" y2="102.9" stroke="rgb(0,0,0)"  stroke-width="1.0"/>
<line x1="262.1" y1="102.9" x2="292.4" y2="129.1" stroke="rgb(0,0,0)"  stroke-width="1.0"/>
<line x1="292.4" y1="129.1" x2="312.7" y2="146.8" stroke="rgb(0,0,0)"  stroke-width="1.0"/>
<line x1="295.1" y1="125.9" x2="315.5" y2="143.7" stroke="rgb(0,0,0)"  stroke-width="1.0"/>
<line x1="289.6" y1="132.3" x2="309.9" y2="150.0" stroke="rgb(0,0,0)"  stroke-width="1.0"/>
<line x1="104.7" y1="141.9" x2="91.6" y2="104.0" stroke="rgb(0,0,0)"  stroke-width="1.0"/>
<line x1="109.6" y1="133.8" x2="100.3" y2="107.3" stroke="rgb(0,0,0)"  stroke-width="1.0"/>
<line x1="91.6" y1="104.0" x2="113.2" y2="87.7" stroke="rgb(0,0,0)"  stroke-width="1.0"/>
<line x1="134.2" y1="87.4" x2="156.3" y2="102.8" stroke="rgb(0,0,0)"  stroke-width="1.0"/>
<line x1="156.3" y1="102.8" x2="144.7" y2="141.1" stroke="rgb(0,0,0)"  stroke-width="1.0"/>
<line x1="147.7" y1="106.5" x2="139.6" y2="133.3" stroke="rgb(0,0,0)"  stroke-width="1.0"/>
<line x1="144.7" y1="141.1" x2="104.7" y2="141.9" stroke="rgb(0,0,0)"  stroke-width="1.0"/>
<line x1="40.0" y1="143.0" x2="51.6" y2="104.8" stroke="rgb(0,0,0)"  stroke-width="1.0"/>
<line x1="48.6" y1="139.3" x2="56.7" y2="112.6" stroke="rgb(0,0,0)"  stroke-width="1.0"/>
<line x1="51.6" y1="104.8" x2="91.6" y2="104.0" stroke="rgb(0,0,0)"  stroke-width="1.0"/>
<line x1="104.7" y1="141.9" x2="83.2" y2="158.2" stroke="rgb(0,0,0)"  stroke-width="1.0"/>
<line x1="62.2" y1="158.6" x2="40.0" y2="143.0" stroke="rgb(0,0,0)"  stroke-width="1.0"/>
<text x="66.819440" y="174.040617" fill="rgb(178,178,0)"  stroke="rgb(178,178,0)" stroke-width="1" font-size="16" >S</text>
<text x="117.566403" y="87.899284" fill="rgb(12,12,255)"  stroke="rgb(12,12,255)" stroke-width="1" font-size="16" >N</text>
<text x="96.829324" y="48.000000" fill="rgb(102,102,102)"  stroke="rgb(102,102,102)" stroke-width="1" font-size="16" >H</text>
<text x="108.829324" y="51.680000" fill="rgb(102,102,102)"  stroke="rgb(102,102,102)" stroke-width="1" font-size="13" >3</text>
<text x="115.329324" y="48.000000" fill="rgb(102,102,102)"  stroke="rgb(102,102,102)" stroke-width="1" font-size="16" >C</text>
<text x="218.323249" y="124.030734" fill="rgb(12,12,255)"  stroke="rgb(12,12,255)" stroke-width="1" font-size="16" >N</text>
<text x="218.323249" y="140.030734" fill="rgb(12,12,255)"  stroke="rgb(12,12,255)" stroke-width="1" font-size="16" >H</text>
<text x="195.614408" y="58.576123" fill="rgb(255,12,12)"  stroke="rgb(255,12,12)" stroke-width="1" font-size="16" >O</text>
<text x="316.505166" y="163.377208" fill="rgb(102,102,102)"  stroke="rgb(102,102,102)" stroke-width="1" font-size="16" >CH</text>
<text font-size="18.000000" fill ="black" font-family="sans-serif"
x="10.000000" y="20.000000" ></text>
<title> - OBDepict</title>
</svg>
