<?xml version="1.0"?>
<svg xmlns="http://www.w3.org/2000/svg"
xmlns:xlink="http://www.w3.org/1999/xlink" xmlns:cml="http://www.xml-cml.org/schema" width="287.728" height="619.933" x="0" y="0" font-family="sans-serif" stroke="rgb(0,0,0)" stroke-width="1"  stroke-linecap="round">
<rect x="0%" y="0%" width="100%" height="100%" stroke-width="0" fill="rgb(255,255,255)"  />
<line x1="109.3" y1="539.9" x2="109.3" y2="499.9" stroke="rgb(0,0,0)"  stroke-width="1.0"/>
<line x1="109.3" y1="392.9" x2="109.3" y2="419.9" stroke="rgb(0,0,0)"  stroke-width="1.0"/>
<line x1="109.3" y1="259.9" x2="109.3" y2="286.9" stroke="rgb(0,0,0)"  stroke-width="1.0"/>
<line x1="213.2" y1="80.0" x2="213.2" y2="120.0" stroke="rgb(0,0,0)"  stroke-width="1.0"/>
<line x1="213.2" y1="53.0" x2="213.2" y2="80.0" stroke="rgb(0,0,0)"  stroke-width="1.0"/>
<line x1="217.4" y1="53.0" x2="217.4" y2="80.0" stroke="rgb(0,0,0)"  stroke-width="1.0"/>
<line x1="209.0" y1="53.0" x2="209.0" y2="80.0" stroke="rgb(0,0,0)"  stroke-width="1.0"/>
<line x1="143.9" y1="239.8" x2="109.3" y2="259.9" stroke="rgb(0,0,0)"  stroke-width="1.0"/>
<line x1="143.9" y1="212.8" x2="143.9" y2="239.8" stroke="rgb(0,0,0)"  stroke-width="1.0"/>
<line x1="87.3" y1="243.7" x2="110.8" y2="257.3" stroke="rgb(0,0,0)"  stroke-width="1.0"/>
<line x1="84.3" y1="248.9" x2="107.8" y2="262.5" stroke="rgb(0,0,0)"  stroke-width="1.0"/>
<line x1="136.3" y1="539.9" x2="109.3" y2="539.9" stroke="rgb(0,0,0)"  stroke-width="1.0"/>
<line x1="82.3" y1="539.9" x2="109.3" y2="539.9" stroke="rgb(0,0,0)"  stroke-width="1.0"/>
<line x1="109.3" y1="566.9" x2="109.3" y2="539.9" stroke="rgb(0,0,0)"  stroke-width="1.0"/>
<line x1="51.3" y1="426.4" x2="74.6" y2="439.9" stroke="rgb(0,0,0)"  stroke-width="1.0"/>
<line x1="178.4" y1="179.8" x2="155.1" y2="193.3" stroke="rgb(0,0,0)"  stroke-width="1.0"/>
<line x1="109.3" y1="419.9" x2="132.6" y2="433.4" stroke="rgb(0,0,0)"  stroke-width="1.0"/>
<line x1="143.9" y1="453.1" x2="143.9" y2="479.9" stroke="rgb(0,0,0)"  stroke-width="1.0"/>
<line x1="136.7" y1="455.1" x2="136.7" y2="473.9" stroke="rgb(0,0,0)"  stroke-width="1.0"/>
<line x1="143.9" y1="479.9" x2="109.3" y2="499.9" stroke="rgb(0,0,0)"  stroke-width="1.0"/>
<line x1="109.3" y1="499.9" x2="74.6" y2="479.9" stroke="rgb(0,0,0)"  stroke-width="1.0"/>
<line x1="107.7" y1="490.7" x2="83.3" y2="476.7" stroke="rgb(0,0,0)"  stroke-width="1.0"/>
<line x1="74.6" y1="479.9" x2="74.6" y2="439.9" stroke="rgb(0,0,0)"  stroke-width="1.0"/>
<line x1="74.6" y1="439.9" x2="109.3" y2="419.9" stroke="rgb(0,0,0)"  stroke-width="1.0"/>
<line x1="83.3" y1="443.1" x2="107.7" y2="429.1" stroke="rgb(0,0,0)"  stroke-width="1.0"/>
<line x1="98.0" y1="373.4" x2="74.6" y2="359.9" stroke="rgb(0,0,0)"  stroke-width="1.0"/>
<line x1="74.6" y1="359.9" x2="74.6" y2="319.9" stroke="rgb(0,0,0)"  stroke-width="1.0"/>
<line x1="74.6" y1="319.9" x2="98.0" y2="306.3" stroke="rgb(0,0,0)"  stroke-width="1.0"/>
<line x1="120.6" y1="306.4" x2="143.9" y2="319.9" stroke="rgb(0,0,0)"  stroke-width="1.0"/>
<line x1="143.9" y1="319.9" x2="143.9" y2="359.9" stroke="rgb(0,0,0)"  stroke-width="1.0"/>
<line x1="143.9" y1="359.9" x2="120.6" y2="373.4" stroke="rgb(0,0,0)"  stroke-width="1.0"/>
<line x1="213.2" y1="120.0" x2="247.7" y2="139.8" stroke="rgb(0,0,0)"  stroke-width="1.0"/>
<line x1="214.8" y1="129.3" x2="238.9" y2="143.1" stroke="rgb(0,0,0)"  stroke-width="1.0"/>
<line x1="247.7" y1="139.8" x2="247.7" y2="179.8" stroke="rgb(0,0,0)"  stroke-width="1.0"/>
<line x1="247.7" y1="179.8" x2="213.2" y2="199.8" stroke="rgb(0,0,0)"  stroke-width="1.0"/>
<line x1="238.9" y1="176.6" x2="214.8" y2="190.6" stroke="rgb(0,0,0)"  stroke-width="1.0"/>
<line x1="213.2" y1="199.8" x2="178.4" y2="179.8" stroke="rgb(0,0,0)"  stroke-width="1.0"/>
<line x1="178.4" y1="179.8" x2="178.4" y2="139.8" stroke="rgb(0,0,0)"  stroke-width="1.0"/>
<line x1="185.6" y1="173.8" x2="185.6" y2="145.8" stroke="rgb(0,0,0)"  stroke-width="1.0"/>
<line x1="178.4" y1="139.8" x2="213.2" y2="120.0" stroke="rgb(0,0,0)"  stroke-width="1.0"/>
<text x="137.861367" y="447.897302" fill="rgb(12,12,255)"  stroke="rgb(12,12,255)" stroke-width="1" font-size="16" >N</text>
<text x="103.307191" y="387.882153" fill="rgb(12,12,255)"  stroke="rgb(12,12,255)" stroke-width="1" font-size="16" >N</text>
<text x="103.307191" y="307.861956" fill="rgb(12,12,255)"  stroke="rgb(12,12,255)" stroke-width="1" font-size="16" >N</text>
<text x="207.173408" y="48.000000" fill="rgb(102,102,102)"  stroke="rgb(102,102,102)" stroke-width="1" font-size="16" >CH</text>
<text x="125.861367" y="207.836708" fill="rgb(12,12,255)"  stroke="rgb(12,12,255)" stroke-width="1" font-size="16" >HN</text>
<text x="68.554176" y="247.846807" fill="rgb(255,12,12)"  stroke="rgb(255,12,12)" stroke-width="1" font-size="16" >O</text>
<text x="143.317290" y="547.922549" fill="rgb(127,178,255)"  stroke="rgb(127,178,255)" stroke-width="1" font-size="16" >F</text>
<text x="63.297092" y="547.922549" fill="rgb(127,178,255)"  stroke="rgb(127,178,255)" stroke-width="1" font-size="16" >F</text>
<text x="103.307191" y="587.932648" fill="rgb(127,178,255)"  stroke="rgb(127,178,255)" stroke-width="1" font-size="16" >F</text>
<text x="22.000000" y="427.892252" fill="rgb(30,239,30)"  stroke="rgb(30,239,30)" stroke-width="1" font-size="16" >Cl</text>
<text font-size="18.000000" fill ="black" font-family="sans-serif"
x="10.000000" y="20.000000" ></text>
<title> - OBDepict</title>
</svg>
