<?xml version="1.0"?>
<svg xmlns="http://www.w3.org/2000/svg"
xmlns:xlink="http://www.w3.org/1999/xlink" xmlns:cml="http://www.xml-cml.org/schema" width="571.923" height="376.455" x="0" y="0" font-family="sans-serif" stroke="rgb(0,0,0)" stroke-width="1"  stroke-linecap="round">
<rect x="0%" y="0%" width="100%" height="100%" stroke-width="0" fill="rgb(255,255,255)"  />
<line x1="224.5" y1="145.5" x2="232.3" y2="171.7" stroke="rgb(0,0,0)"  stroke-width="1.0"/>
<line x1="492.8" y1="315.3" x2="453.6" y2="306.1" stroke="rgb(0,0,0)"  stroke-width="1.0"/>
<line x1="519.2" y1="321.3" x2="492.8" y2="315.3" stroke="rgb(0,0,0)"  stroke-width="1.0"/>
<line x1="518.3" y1="325.4" x2="491.8" y2="319.4" stroke="rgb(0,0,0)"  stroke-width="1.0"/>
<line x1="520.2" y1="317.2" x2="493.7" y2="311.2" stroke="rgb(0,0,0)"  stroke-width="1.0"/>
<line x1="281.4" y1="204.9" x2="289.2" y2="230.8" stroke="rgb(0,0,0)"  stroke-width="1.0"/>
<line x1="275.7" y1="206.6" x2="283.4" y2="232.5" stroke="rgb(0,0,0)"  stroke-width="1.0"/>
<line x1="248.6" y1="187.1" x2="262.1" y2="190.3" stroke="rgb(0,0,0)"  stroke-width="1.0"/>
<line x1="135.2" y1="88.5" x2="161.5" y2="94.9" stroke="rgb(0,0,0)"  stroke-width="1.0"/>
<line x1="177.9" y1="110.4" x2="185.6" y2="136.3" stroke="rgb(0,0,0)"  stroke-width="1.0"/>
<line x1="245.1" y1="127.9" x2="226.7" y2="147.5" stroke="rgb(0,0,0)"  stroke-width="1.0"/>
<line x1="240.7" y1="123.8" x2="222.3" y2="143.4" stroke="rgb(0,0,0)"  stroke-width="1.0"/>
<line x1="286.3" y1="231.6" x2="325.1" y2="241.1" stroke="rgb(0,0,0)"  stroke-width="1.0"/>
<line x1="185.6" y1="136.3" x2="224.5" y2="145.5" stroke="rgb(0,0,0)"  stroke-width="1.0"/>
<line x1="409.4" y1="201.0" x2="390.9" y2="220.6" stroke="rgb(0,0,0)"  stroke-width="1.0"/>
<line x1="429.3" y1="265.0" x2="402.6" y2="258.8" stroke="rgb(0,0,0)"  stroke-width="1.0"/>
<line x1="383.3" y1="314.7" x2="375.4" y2="288.3" stroke="rgb(0,0,0)"  stroke-width="1.0"/>
<line x1="453.6" y1="306.1" x2="445.7" y2="280.4" stroke="rgb(0,0,0)"  stroke-width="1.0"/>
<line x1="413.5" y1="333.4" x2="399.6" y2="330.1" stroke="rgb(0,0,0)"  stroke-width="1.0"/>
<line x1="402.6" y1="258.8" x2="390.9" y2="220.6" stroke="rgb(0,0,0)"  stroke-width="1.0"/>
<line x1="390.9" y1="220.6" x2="352.3" y2="212.0" stroke="rgb(0,0,0)"  stroke-width="1.0"/>
<line x1="383.5" y1="226.3" x2="356.6" y2="220.3" stroke="rgb(0,0,0)"  stroke-width="1.0"/>
<line x1="352.3" y1="212.0" x2="325.1" y2="241.1" stroke="rgb(0,0,0)"  stroke-width="1.0"/>
<line x1="325.1" y1="241.1" x2="336.6" y2="278.8" stroke="rgb(0,0,0)"  stroke-width="1.0"/>
<line x1="333.8" y1="244.8" x2="341.8" y2="271.0" stroke="rgb(0,0,0)"  stroke-width="1.0"/>
<line x1="336.6" y1="278.8" x2="375.4" y2="288.3" stroke="rgb(0,0,0)"  stroke-width="1.0"/>
<line x1="375.4" y1="288.3" x2="402.6" y2="258.8" stroke="rgb(0,0,0)"  stroke-width="1.0"/>
<line x1="374.2" y1="279.0" x2="393.2" y2="258.3" stroke="rgb(0,0,0)"  stroke-width="1.0"/>
<line x1="106.8" y1="117.0" x2="68.0" y2="106.6" stroke="rgb(0,0,0)"  stroke-width="1.0"/>
<line x1="68.0" y1="106.6" x2="57.7" y2="68.3" stroke="rgb(0,0,0)"  stroke-width="1.0"/>
<line x1="57.7" y1="68.3" x2="85.7" y2="40.0" stroke="rgb(0,0,0)"  stroke-width="1.0"/>
<line x1="67.0" y1="69.1" x2="86.6" y2="49.3" stroke="rgb(0,0,0)"  stroke-width="1.0"/>
<line x1="85.7" y1="40.0" x2="124.8" y2="50.7" stroke="rgb(0,0,0)"  stroke-width="1.0"/>
<line x1="124.8" y1="50.7" x2="135.2" y2="88.5" stroke="rgb(0,0,0)"  stroke-width="1.0"/>
<line x1="119.5" y1="58.3" x2="126.6" y2="84.6" stroke="rgb(0,0,0)"  stroke-width="1.0"/>
<line x1="135.2" y1="88.5" x2="106.8" y2="117.0" stroke="rgb(0,0,0)"  stroke-width="1.0"/>
<line x1="50.2" y1="173.3" x2="40.0" y2="135.1" stroke="rgb(0,0,0)"  stroke-width="1.0"/>
<line x1="40.0" y1="135.1" x2="68.0" y2="106.6" stroke="rgb(0,0,0)"  stroke-width="1.0"/>
<line x1="49.3" y1="135.9" x2="68.9" y2="116.0" stroke="rgb(0,0,0)"  stroke-width="1.0"/>
<line x1="106.8" y1="117.0" x2="113.7" y2="143.0" stroke="rgb(0,0,0)"  stroke-width="1.0"/>
<line x1="101.4" y1="124.6" x2="106.3" y2="142.9" stroke="rgb(0,0,0)"  stroke-width="1.0"/>
<line x1="108.0" y1="165.1" x2="89.2" y2="184.1" stroke="rgb(0,0,0)"  stroke-width="1.0"/>
<line x1="89.2" y1="184.1" x2="50.2" y2="173.3" stroke="rgb(0,0,0)"  stroke-width="1.0"/>
<line x1="85.3" y1="175.6" x2="57.9" y2="168.0" stroke="rgb(0,0,0)"  stroke-width="1.0"/>
<text x="525.923274" y="332.121249" fill="rgb(102,102,102)"  stroke="rgb(102,102,102)" stroke-width="1" font-size="16" >CH</text>
<text x="268.795215" y="201.306980" fill="rgb(12,12,255)"  stroke="rgb(12,12,255)" stroke-width="1" font-size="16" >N</text>
<text x="111.157311" y="163.811055" fill="rgb(12,12,255)"  stroke="rgb(12,12,255)" stroke-width="1" font-size="16" >N</text>
<text x="229.967071" y="192.141309" fill="rgb(12,12,255)"  stroke="rgb(12,12,255)" stroke-width="1" font-size="16" >N</text>
<text x="229.967071" y="208.141309" fill="rgb(12,12,255)"  stroke="rgb(12,12,255)" stroke-width="1" font-size="16" >H</text>
<text x="168.147241" y="105.987883" fill="rgb(255,12,12)"  stroke="rgb(255,12,12)" stroke-width="1" font-size="16" >O</text>
<text x="245.798684" y="124.319224" fill="rgb(255,12,12)"  stroke="rgb(255,12,12)" stroke-width="1" font-size="16" >O</text>
<text x="412.272837" y="199.475783" fill="rgb(165,40,40)"  stroke="rgb(165,40,40)" stroke-width="1" font-size="16" >Br</text>
<text x="435.937900" y="275.964562" fill="rgb(255,12,12)"  stroke="rgb(255,12,12)" stroke-width="1" font-size="16" >O</text>
<text x="380.948722" y="335.119954" fill="rgb(255,12,12)"  stroke="rgb(255,12,12)" stroke-width="1" font-size="16" >O</text>
<text x="422.106288" y="344.455180" fill="rgb(102,102,102)"  stroke="rgb(102,102,102)" stroke-width="1" font-size="16" >CH</text>
<text x="446.106288" y="348.135180" fill="rgb(102,102,102)"  stroke="rgb(102,102,102)" stroke-width="1" font-size="13" >3</text>
<text font-size="18.000000" fill ="black" font-family="sans-serif"
x="10.000000" y="20.000000" ></text>
<title> - OBDepict</title>
</svg>
