<?xml version="1.0"?>
<svg xmlns="http://www.w3.org/2000/svg"
xmlns:xlink="http://www.w3.org/1999/xlink" xmlns:cml="http://www.xml-cml.org/schema" width="356.356" height="189.289" x="0" y="0" font-family="sans-serif" stroke="rgb(0,0,0)" stroke-width="1"  stroke-linecap="round">
<rect x="0%" y="0%" width="100%" height="100%" stroke-width="0" fill="rgb(255,255,255)"  />
<line x1="179.2" y1="109.3" x2="213.5" y2="88.7" stroke="rgb(0,0,0)"  stroke-width="1.0"/>
<line x1="74.9" y1="90.9" x2="109.9" y2="110.3" stroke="rgb(0,0,0)"  stroke-width="1.0"/>
<line x1="51.3" y1="77.7" x2="74.9" y2="90.9" stroke="rgb(0,0,0)"  stroke-width="1.0"/>
<line x1="53.4" y1="74.0" x2="77.0" y2="87.2" stroke="rgb(0,0,0)"  stroke-width="1.0"/>
<line x1="49.3" y1="81.3" x2="72.9" y2="94.6" stroke="rgb(0,0,0)"  stroke-width="1.0"/>
<line x1="176.6" y1="136.3" x2="176.2" y2="109.3" stroke="rgb(0,0,0)"  stroke-width="1.0"/>
<line x1="182.6" y1="136.2" x2="182.2" y2="109.2" stroke="rgb(0,0,0)"  stroke-width="1.0"/>
<line x1="155.6" y1="96.1" x2="179.2" y2="109.3" stroke="rgb(0,0,0)"  stroke-width="1.0"/>
<line x1="256.3" y1="130.8" x2="253.2" y2="117.1" stroke="rgb(0,0,0)"  stroke-width="1.0"/>
<line x1="109.9" y1="110.3" x2="133.1" y2="96.4" stroke="rgb(0,0,0)"  stroke-width="1.0"/>
<line x1="303.4" y1="76.8" x2="276.6" y2="74.3" stroke="rgb(0,0,0)"  stroke-width="1.0"/>
<line x1="213.5" y1="88.7" x2="217.2" y2="48.9" stroke="rgb(0,0,0)"  stroke-width="1.0"/>
<line x1="221.2" y1="83.4" x2="223.8" y2="55.5" stroke="rgb(0,0,0)"  stroke-width="1.0"/>
<line x1="217.2" y1="48.9" x2="256.2" y2="40.0" stroke="rgb(0,0,0)"  stroke-width="1.0"/>
<line x1="256.2" y1="40.0" x2="276.6" y2="74.3" stroke="rgb(0,0,0)"  stroke-width="1.0"/>
<line x1="253.0" y1="48.8" x2="267.3" y2="72.9" stroke="rgb(0,0,0)"  stroke-width="1.0"/>
<line x1="276.6" y1="74.3" x2="258.8" y2="94.6" stroke="rgb(0,0,0)"  stroke-width="1.0"/>
<line x1="238.3" y1="99.3" x2="213.5" y2="88.7" stroke="rgb(0,0,0)"  stroke-width="1.0"/>
<text x="244.296629" y="112.440504" fill="rgb(12,12,255)"  stroke="rgb(12,12,255)" stroke-width="1" font-size="16" >N</text>
<text x="22.000000" y="79.314073" fill="rgb(102,102,102)"  stroke="rgb(102,102,102)" stroke-width="1" font-size="16" >HC</text>
<text x="173.793929" y="157.289118" fill="rgb(255,12,12)"  stroke="rgb(255,12,12)" stroke-width="1" font-size="16" >O</text>
<text x="138.239712" y="97.694493" fill="rgb(12,12,255)"  stroke="rgb(12,12,255)" stroke-width="1" font-size="16" >N</text>
<text x="138.239712" y="81.694493" fill="rgb(12,12,255)"  stroke="rgb(12,12,255)" stroke-width="1" font-size="16" >H</text>
<text x="255.183972" y="151.430450" fill="rgb(102,102,102)"  stroke="rgb(102,102,102)" stroke-width="1" font-size="16" >CH</text>
<text x="279.183972" y="155.110450" fill="rgb(102,102,102)"  stroke="rgb(102,102,102)" stroke-width="1" font-size="13" >3</text>
<text x="312.355657" y="85.982003" fill="rgb(102,102,102)"  stroke="rgb(102,102,102)" stroke-width="1" font-size="16" >CH</text>
<text x="336.355657" y="89.662003" fill="rgb(102,102,102)"  stroke="rgb(102,102,102)" stroke-width="1" font-size="13" >3</text>
<text font-size="18.000000" fill ="black" font-family="sans-serif"
x="10.000000" y="20.000000" ></text>
<title> - OBDepict</title>
</svg>
