<?xml version="1.0"?>
<svg xmlns="http://www.w3.org/2000/svg"
xmlns:xlink="http://www.w3.org/1999/xlink" xmlns:cml="http://www.xml-cml.org/schema" width="421.7" height="340.547" x="0" y="0" font-family="sans-serif" stroke="rgb(0,0,0)" stroke-width="1"  stroke-linecap="round">
<rect x="0%" y="0%" width="100%" height="100%" stroke-width="0" fill="rgb(255,255,255)"  />
<line x1="248.2" y1="140.1" x2="213.7" y2="160.2" stroke="rgb(0,0,0)"  stroke-width="1.0"/>
<line x1="248.2" y1="100.1" x2="213.7" y2="80.0" stroke="rgb(0,0,0)"  stroke-width="1.0"/>
<line x1="283.1" y1="80.0" x2="283.1" y2="53.0" stroke="rgb(0,0,0)"  stroke-width="1.0"/>
<line x1="213.7" y1="80.0" x2="190.3" y2="66.4" stroke="rgb(0,0,0)"  stroke-width="1.0"/>
<line x1="211.6" y1="83.6" x2="188.2" y2="70.1" stroke="rgb(0,0,0)"  stroke-width="1.0"/>
<line x1="215.8" y1="76.4" x2="192.4" y2="62.8" stroke="rgb(0,0,0)"  stroke-width="1.0"/>
<line x1="178.4" y1="220.1" x2="178.3" y2="247.2" stroke="rgb(0,0,0)"  stroke-width="1.0"/>
<line x1="143.9" y1="200.1" x2="120.3" y2="214.0" stroke="rgb(0,0,0)"  stroke-width="1.0"/>
<line x1="109.1" y1="233.6" x2="109.1" y2="260.6" stroke="rgb(0,0,0)"  stroke-width="1.0"/>
<line x1="109.1" y1="260.6" x2="74.5" y2="280.6" stroke="rgb(0,0,0)"  stroke-width="1.0"/>
<line x1="74.5" y1="280.6" x2="51.3" y2="294.0" stroke="rgb(0,0,0)"  stroke-width="1.0"/>
<line x1="76.6" y1="284.3" x2="53.4" y2="297.7" stroke="rgb(0,0,0)"  stroke-width="1.0"/>
<line x1="72.4" y1="277.0" x2="49.2" y2="290.4" stroke="rgb(0,0,0)"  stroke-width="1.0"/>
<line x1="365.6" y1="263.1" x2="338.7" y2="260.1" stroke="rgb(0,0,0)"  stroke-width="1.0"/>
<line x1="323.2" y1="246.0" x2="317.8" y2="219.6" stroke="rgb(0,0,0)"  stroke-width="1.0"/>
<line x1="317.8" y1="219.6" x2="351.9" y2="199.5" stroke="rgb(0,0,0)"  stroke-width="1.0"/>
<line x1="351.9" y1="199.5" x2="372.0" y2="217.6" stroke="rgb(0,0,0)"  stroke-width="1.0"/>
<line x1="376.5" y1="238.2" x2="365.6" y2="263.1" stroke="rgb(0,0,0)"  stroke-width="1.0"/>
<line x1="248.2" y1="140.1" x2="248.2" y2="100.1" stroke="rgb(0,0,0)"  stroke-width="1.0"/>
<line x1="248.2" y1="100.1" x2="283.1" y2="80.0" stroke="rgb(0,0,0)"  stroke-width="1.0"/>
<line x1="257.0" y1="103.3" x2="281.5" y2="89.2" stroke="rgb(0,0,0)"  stroke-width="1.0"/>
<line x1="283.1" y1="80.0" x2="306.2" y2="93.5" stroke="rgb(0,0,0)"  stroke-width="1.0"/>
<line x1="317.6" y1="113.1" x2="317.8" y2="140.1" stroke="rgb(0,0,0)"  stroke-width="1.0"/>
<line x1="317.8" y1="140.1" x2="282.8" y2="160.2" stroke="rgb(0,0,0)"  stroke-width="1.0"/>
<line x1="309.0" y1="136.8" x2="284.4" y2="150.9" stroke="rgb(0,0,0)"  stroke-width="1.0"/>
<line x1="282.8" y1="160.2" x2="248.2" y2="140.1" stroke="rgb(0,0,0)"  stroke-width="1.0"/>
<line x1="282.8" y1="160.2" x2="282.8" y2="200.0" stroke="rgb(0,0,0)"  stroke-width="1.0"/>
<line x1="282.8" y1="200.0" x2="317.8" y2="219.6" stroke="rgb(0,0,0)"  stroke-width="1.0"/>
<line x1="291.6" y1="196.6" x2="316.1" y2="210.3" stroke="rgb(0,0,0)"  stroke-width="1.0"/>
<line x1="351.9" y1="199.5" x2="351.9" y2="160.2" stroke="rgb(0,0,0)"  stroke-width="1.0"/>
<line x1="344.7" y1="193.5" x2="344.7" y2="166.2" stroke="rgb(0,0,0)"  stroke-width="1.0"/>
<line x1="351.9" y1="160.2" x2="317.8" y2="140.1" stroke="rgb(0,0,0)"  stroke-width="1.0"/>
<line x1="213.7" y1="160.2" x2="178.9" y2="140.1" stroke="rgb(0,0,0)"  stroke-width="1.0"/>
<line x1="204.9" y1="163.4" x2="180.5" y2="149.3" stroke="rgb(0,0,0)"  stroke-width="1.0"/>
<line x1="178.9" y1="140.1" x2="143.9" y2="160.2" stroke="rgb(0,0,0)"  stroke-width="1.0"/>
<line x1="143.9" y1="160.2" x2="143.9" y2="200.1" stroke="rgb(0,0,0)"  stroke-width="1.0"/>
<line x1="151.1" y1="166.2" x2="151.1" y2="194.1" stroke="rgb(0,0,0)"  stroke-width="1.0"/>
<line x1="143.9" y1="200.1" x2="178.4" y2="220.1" stroke="rgb(0,0,0)"  stroke-width="1.0"/>
<line x1="178.4" y1="220.1" x2="213.5" y2="200.1" stroke="rgb(0,0,0)"  stroke-width="1.0"/>
<line x1="180.1" y1="210.8" x2="204.8" y2="196.8" stroke="rgb(0,0,0)"  stroke-width="1.0"/>
<line x1="213.5" y1="200.1" x2="213.7" y2="160.2" stroke="rgb(0,0,0)"  stroke-width="1.0"/>
<text x="311.440453" y="108.075822" fill="rgb(255,12,12)"  stroke="rgb(255,12,12)" stroke-width="1" font-size="16" >O</text>
<text x="279.139112" y="48.000000" fill="rgb(12,12,255)"  stroke="rgb(12,12,255)" stroke-width="1" font-size="16" >NH</text>
<text x="303.139112" y="51.680000" fill="rgb(12,12,255)"  stroke="rgb(12,12,255)" stroke-width="1" font-size="13" >2</text>
<text x="173.057132" y="67.913780" fill="rgb(12,12,255)"  stroke="rgb(12,12,255)" stroke-width="1" font-size="16" >N</text>
<text x="319.807343" y="266.712253" fill="rgb(255,12,12)"  stroke="rgb(255,12,12)" stroke-width="1" font-size="16" >O</text>
<text x="160.213656" y="268.219844" fill="rgb(30,239,30)"  stroke="rgb(30,239,30)" stroke-width="1" font-size="16" >Cl</text>
<text x="375.699720" y="234.252985" fill="rgb(255,12,12)"  stroke="rgb(255,12,12)" stroke-width="1" font-size="16" >O</text>
<text x="103.106828" y="228.557101" fill="rgb(255,12,12)"  stroke="rgb(255,12,12)" stroke-width="1" font-size="16" >O</text>
<text x="22.000000" y="308.546703" fill="rgb(102,102,102)"  stroke="rgb(102,102,102)" stroke-width="1" font-size="16" >HC</text>
<text font-size="18.000000" fill ="black" font-family="sans-serif"
x="10.000000" y="20.000000" ></text>
<title> - OBDepict</title>
</svg>
