<?xml version="1.0"?>
<svg xmlns="http://www.w3.org/2000/svg"
xmlns:xlink="http://www.w3.org/1999/xlink" xmlns:cml="http://www.xml-cml.org/schema" width="530.756" height="298.465" x="0" y="0" font-family="sans-serif" stroke="rgb(0,0,0)" stroke-width="1"  stroke-linecap="round">
<rect x="0%" y="0%" width="100%" height="100%" stroke-width="0" fill="rgb(255,255,255)"  />
<line x1="246.3" y1="221.7" x2="211.5" y2="201.6" stroke="rgb(0,0,0)"  stroke-width="1.0"/>
<line x1="249.3" y1="216.5" x2="214.5" y2="196.4" stroke="rgb(0,0,0)"  stroke-width="1.0"/>
<line x1="178.5" y1="218.5" x2="213.0" y2="199.0" stroke="rgb(0,0,0)"  stroke-width="1.0"/>
<line x1="213.3" y1="159.1" x2="213.0" y2="199.0" stroke="rgb(0,0,0)"  stroke-width="1.0"/>
<line x1="282.8" y1="199.1" x2="247.8" y2="219.1" stroke="rgb(0,0,0)"  stroke-width="1.0"/>
<line x1="213.4" y1="131.8" x2="213.3" y2="159.1" stroke="rgb(0,0,0)"  stroke-width="1.0"/>
<line x1="217.6" y1="131.8" x2="217.5" y2="159.2" stroke="rgb(0,0,0)"  stroke-width="1.0"/>
<line x1="209.2" y1="131.8" x2="209.1" y2="159.1" stroke="rgb(0,0,0)"  stroke-width="1.0"/>
<line x1="456.4" y1="140.6" x2="421.8" y2="160.3" stroke="rgb(0,0,0)"  stroke-width="1.0"/>
<line x1="479.5" y1="127.2" x2="456.4" y2="140.6" stroke="rgb(0,0,0)"  stroke-width="1.0"/>
<line x1="481.6" y1="130.8" x2="458.5" y2="144.3" stroke="rgb(0,0,0)"  stroke-width="1.0"/>
<line x1="477.4" y1="123.6" x2="454.3" y2="137.0" stroke="rgb(0,0,0)"  stroke-width="1.0"/>
<line x1="175.0" y1="245.4" x2="175.5" y2="218.4" stroke="rgb(0,0,0)"  stroke-width="1.0"/>
<line x1="181.0" y1="245.5" x2="181.5" y2="218.5" stroke="rgb(0,0,0)"  stroke-width="1.0"/>
<line x1="155.2" y1="204.6" x2="178.5" y2="218.5" stroke="rgb(0,0,0)"  stroke-width="1.0"/>
<line x1="375.2" y1="214.0" x2="351.9" y2="199.8" stroke="rgb(0,0,0)"  stroke-width="1.0"/>
<line x1="376.0" y1="146.4" x2="352.3" y2="160.0" stroke="rgb(0,0,0)"  stroke-width="1.0"/>
<line x1="318.3" y1="112.8" x2="318.1" y2="139.8" stroke="rgb(0,0,0)"  stroke-width="1.0"/>
<line x1="421.8" y1="160.3" x2="398.5" y2="146.6" stroke="rgb(0,0,0)"  stroke-width="1.0"/>
<line x1="109.0" y1="217.6" x2="132.6" y2="204.3" stroke="rgb(0,0,0)"  stroke-width="1.0"/>
<line x1="353.1" y1="80.2" x2="329.8" y2="93.4" stroke="rgb(0,0,0)"  stroke-width="1.0"/>
<line x1="74.7" y1="197.3" x2="109.0" y2="217.6" stroke="rgb(0,0,0)"  stroke-width="1.0"/>
<line x1="353.3" y1="53.0" x2="353.1" y2="80.2" stroke="rgb(0,0,0)"  stroke-width="1.0"/>
<line x1="51.3" y1="210.7" x2="74.7" y2="197.3" stroke="rgb(0,0,0)"  stroke-width="1.0"/>
<line x1="351.9" y1="199.8" x2="352.3" y2="160.0" stroke="rgb(0,0,0)"  stroke-width="1.0"/>
<line x1="352.3" y1="160.0" x2="318.1" y2="139.8" stroke="rgb(0,0,0)"  stroke-width="1.0"/>
<line x1="343.5" y1="163.1" x2="319.6" y2="149.1" stroke="rgb(0,0,0)"  stroke-width="1.0"/>
<line x1="318.1" y1="139.8" x2="283.0" y2="159.3" stroke="rgb(0,0,0)"  stroke-width="1.0"/>
<line x1="283.0" y1="159.3" x2="282.8" y2="199.1" stroke="rgb(0,0,0)"  stroke-width="1.0"/>
<line x1="290.1" y1="165.3" x2="290.0" y2="193.2" stroke="rgb(0,0,0)"  stroke-width="1.0"/>
<line x1="282.8" y1="199.1" x2="317.3" y2="219.5" stroke="rgb(0,0,0)"  stroke-width="1.0"/>
<line x1="317.3" y1="219.5" x2="351.9" y2="199.8" stroke="rgb(0,0,0)"  stroke-width="1.0"/>
<line x1="319.0" y1="210.2" x2="343.2" y2="196.5" stroke="rgb(0,0,0)"  stroke-width="1.0"/>
<text x="207.469567" y="126.821229" fill="rgb(12,12,255)"  stroke="rgb(12,12,255)" stroke-width="1" font-size="16" >N</text>
<text x="484.755880" y="128.653943" fill="rgb(102,102,102)"  stroke="rgb(102,102,102)" stroke-width="1" font-size="16" >CH</text>
<text x="171.811423" y="266.465367" fill="rgb(255,12,12)"  stroke="rgb(255,12,12)" stroke-width="1" font-size="16" >O</text>
<text x="137.981159" y="205.976118" fill="rgb(12,12,255)"  stroke="rgb(12,12,255)" stroke-width="1" font-size="16" >N</text>
<text x="137.981159" y="189.976118" fill="rgb(12,12,255)"  stroke="rgb(12,12,255)" stroke-width="1" font-size="16" >H</text>
<text x="380.276649" y="228.805261" fill="rgb(30,239,30)"  stroke="rgb(30,239,30)" stroke-width="1" font-size="16" >Cl</text>
<text x="381.272795" y="147.982069" fill="rgb(255,12,12)"  stroke="rgb(255,12,12)" stroke-width="1" font-size="16" >O</text>
<text x="312.451707" y="107.821928" fill="rgb(255,12,12)"  stroke="rgb(255,12,12)" stroke-width="1" font-size="16" >O</text>
<text x="349.447365" y="48.000000" fill="rgb(102,102,102)"  stroke="rgb(102,102,102)" stroke-width="1" font-size="16" >CH</text>
<text x="373.447365" y="51.680000" fill="rgb(102,102,102)"  stroke="rgb(102,102,102)" stroke-width="1" font-size="13" >3</text>
<text x="14.000000" y="225.134996" fill="rgb(102,102,102)"  stroke="rgb(102,102,102)" stroke-width="1" font-size="16" >H</text>
<text x="26.000000" y="228.814996" fill="rgb(102,102,102)"  stroke="rgb(102,102,102)" stroke-width="1" font-size="13" >3</text>
<text x="32.500000" y="225.134996" fill="rgb(102,102,102)"  stroke="rgb(102,102,102)" stroke-width="1" font-size="16" >C</text>
<text font-size="18.000000" fill ="black" font-family="sans-serif"
x="10.000000" y="20.000000" ></text>
<title> - OBDepict</title>
</svg>
