<?xml version="1.0"?>
<svg xmlns="http://www.w3.org/2000/svg"
xmlns:xlink="http://www.w3.org/1999/xlink" xmlns:cml="http://www.xml-cml.org/schema" width="381.294" height="409.492" x="0" y="0" font-family="sans-serif" stroke="rgb(0,0,0)" stroke-width="1"  stroke-linecap="round">
<rect x="0%" y="0%" width="100%" height="100%" stroke-width="0" fill="rgb(255,255,255)"  />
<line x1="249.4" y1="289.4" x2="211.3" y2="301.7" stroke="rgb(0,0,0)"  stroke-width="1.0"/>
<line x1="247.5" y1="283.7" x2="209.5" y2="295.9" stroke="rgb(0,0,0)"  stroke-width="1.0"/>
<line x1="256.9" y1="247.2" x2="248.4" y2="286.5" stroke="rgb(0,0,0)"  stroke-width="1.0"/>
<line x1="329.4" y1="78.9" x2="320.8" y2="118.1" stroke="rgb(0,0,0)"  stroke-width="1.0"/>
<line x1="335.4" y1="52.7" x2="329.4" y2="78.9" stroke="rgb(0,0,0)"  stroke-width="1.0"/>
<line x1="339.5" y1="53.6" x2="333.5" y2="79.8" stroke="rgb(0,0,0)"  stroke-width="1.0"/>
<line x1="331.3" y1="51.7" x2="325.3" y2="77.9" stroke="rgb(0,0,0)"  stroke-width="1.0"/>
<line x1="139.4" y1="357.2" x2="155.4" y2="335.1" stroke="rgb(0,0,0)"  stroke-width="1.0"/>
<line x1="144.3" y1="360.7" x2="160.3" y2="338.6" stroke="rgb(0,0,0)"  stroke-width="1.0"/>
<line x1="180.8" y1="248.2" x2="180.8" y2="275.2" stroke="rgb(0,0,0)"  stroke-width="1.0"/>
<line x1="174.8" y1="248.2" x2="174.8" y2="275.2" stroke="rgb(0,0,0)"  stroke-width="1.0"/>
<line x1="107.7" y1="286.5" x2="133.4" y2="294.8" stroke="rgb(0,0,0)"  stroke-width="1.0"/>
<line x1="78.1" y1="313.3" x2="107.7" y2="286.5" stroke="rgb(0,0,0)"  stroke-width="1.0"/>
<line x1="53.3" y1="302.3" x2="79.0" y2="310.4" stroke="rgb(0,0,0)"  stroke-width="1.0"/>
<line x1="51.5" y1="308.0" x2="77.2" y2="316.2" stroke="rgb(0,0,0)"  stroke-width="1.0"/>
<line x1="328.9" y1="187.9" x2="302.8" y2="196.1" stroke="rgb(0,0,0)"  stroke-width="1.0"/>
<line x1="279.5" y1="142.7" x2="273.6" y2="169.3" stroke="rgb(0,0,0)"  stroke-width="1.0"/>
<line x1="215.8" y1="163.1" x2="235.8" y2="181.0" stroke="rgb(0,0,0)"  stroke-width="1.0"/>
<line x1="320.8" y1="118.1" x2="294.7" y2="126.2" stroke="rgb(0,0,0)"  stroke-width="1.0"/>
<line x1="181.1" y1="162.3" x2="193.8" y2="158.3" stroke="rgb(0,0,0)"  stroke-width="1.0"/>
<line x1="156.2" y1="291.1" x2="177.8" y2="275.2" stroke="rgb(0,0,0)"  stroke-width="1.0"/>
<line x1="177.8" y1="275.2" x2="210.4" y2="298.8" stroke="rgb(0,0,0)"  stroke-width="1.0"/>
<line x1="210.4" y1="298.8" x2="202.1" y2="324.5" stroke="rgb(0,0,0)"  stroke-width="1.0"/>
<line x1="185.1" y1="336.9" x2="157.8" y2="336.9" stroke="rgb(0,0,0)"  stroke-width="1.0"/>
<line x1="157.8" y1="336.9" x2="149.7" y2="311.2" stroke="rgb(0,0,0)"  stroke-width="1.0"/>
<line x1="302.8" y1="196.1" x2="273.6" y2="169.3" stroke="rgb(0,0,0)"  stroke-width="1.0"/>
<line x1="273.6" y1="169.3" x2="235.8" y2="181.0" stroke="rgb(0,0,0)"  stroke-width="1.0"/>
<line x1="270.0" y1="177.9" x2="243.6" y2="186.1" stroke="rgb(0,0,0)"  stroke-width="1.0"/>
<line x1="235.8" y1="181.0" x2="227.1" y2="220.3" stroke="rgb(0,0,0)"  stroke-width="1.0"/>
<line x1="227.1" y1="220.3" x2="256.9" y2="247.2" stroke="rgb(0,0,0)"  stroke-width="1.0"/>
<line x1="236.4" y1="218.9" x2="257.3" y2="237.9" stroke="rgb(0,0,0)"  stroke-width="1.0"/>
<line x1="256.9" y1="247.2" x2="294.8" y2="235.4" stroke="rgb(0,0,0)"  stroke-width="1.0"/>
<line x1="294.8" y1="235.4" x2="302.8" y2="196.1" stroke="rgb(0,0,0)"  stroke-width="1.0"/>
<line x1="288.9" y1="228.0" x2="294.6" y2="200.5" stroke="rgb(0,0,0)"  stroke-width="1.0"/>
<text x="139.737040" y="306.798546" fill="rgb(12,12,255)"  stroke="rgb(12,12,255)" stroke-width="1" font-size="16" >N</text>
<text x="192.098911" y="344.862717" fill="rgb(178,178,0)"  stroke="rgb(178,178,0)" stroke-width="1" font-size="16" >S</text>
<text x="332.273578" y="48.000000" fill="rgb(102,102,102)"  stroke="rgb(102,102,102)" stroke-width="1" font-size="16" >CH</text>
<text x="128.256216" y="377.491919" fill="rgb(255,12,12)"  stroke="rgb(255,12,12)" stroke-width="1" font-size="16" >O</text>
<text x="171.760203" y="243.154631" fill="rgb(255,12,12)"  stroke="rgb(255,12,12)" stroke-width="1" font-size="16" >O</text>
<text x="14.000000" y="309.217858" fill="rgb(102,102,102)"  stroke="rgb(102,102,102)" stroke-width="1" font-size="16" >H</text>
<text x="26.000000" y="312.897858" fill="rgb(102,102,102)"  stroke="rgb(102,102,102)" stroke-width="1" font-size="13" >2</text>
<text x="32.500000" y="309.217858" fill="rgb(102,102,102)"  stroke="rgb(102,102,102)" stroke-width="1" font-size="16" >C</text>
<text x="335.294082" y="191.999993" fill="rgb(147,0,147)"  stroke="rgb(147,0,147)" stroke-width="1" font-size="16" >I</text>
<text x="276.285163" y="138.023631" fill="rgb(255,12,12)"  stroke="rgb(255,12,12)" stroke-width="1" font-size="16" >O</text>
<text x="200.156821" y="162.396142" fill="rgb(255,12,12)"  stroke="rgb(255,12,12)" stroke-width="1" font-size="16" >O</text>
<text x="142.693842" y="174.274530" fill="rgb(102,102,102)"  stroke="rgb(102,102,102)" stroke-width="1" font-size="16" >H</text>
<text x="154.693842" y="177.954530" fill="rgb(102,102,102)"  stroke="rgb(102,102,102)" stroke-width="1" font-size="13" >3</text>
<text x="161.193842" y="174.274530" fill="rgb(102,102,102)"  stroke="rgb(102,102,102)" stroke-width="1" font-size="16" >C</text>
<text font-size="18.000000" fill ="black" font-family="sans-serif"
x="10.000000" y="20.000000" ></text>
<title> - OBDepict</title>
</svg>
