<?xml version="1.0"?>
<svg xmlns="http://www.w3.org/2000/svg"
xmlns:xlink="http://www.w3.org/1999/xlink" xmlns:cml="http://www.xml-cml.org/schema" width="223.205" height="247.657" x="0" y="0" font-family="sans-serif" stroke="rgb(0,0,0)" stroke-width="1"  stroke-linecap="round">
<rect x="0%" y="0%" width="100%" height="100%" stroke-width="0" fill="rgb(255,255,255)"  />
<line x1="109.2" y1="109.8" x2="129.5" y2="74.8" stroke="rgb(0,0,0)"  stroke-width="1.0"/>
<line x1="109.2" y1="109.8" x2="88.1" y2="92.5" stroke="rgb(0,0,0)"  stroke-width="1.0"/>
<line x1="129.5" y1="74.8" x2="142.8" y2="51.3" stroke="rgb(0,0,0)"  stroke-width="1.0"/>
<line x1="125.9" y1="72.8" x2="139.2" y2="49.2" stroke="rgb(0,0,0)"  stroke-width="1.0"/>
<line x1="133.2" y1="76.9" x2="146.5" y2="53.4" stroke="rgb(0,0,0)"  stroke-width="1.0"/>
<line x1="143.6" y1="169.6" x2="170.3" y2="167.0" stroke="rgb(0,0,0)"  stroke-width="1.0"/>
<line x1="143.6" y1="169.6" x2="159.2" y2="191.4" stroke="rgb(0,0,0)"  stroke-width="1.0"/>
<line x1="74.2" y1="169.1" x2="51.2" y2="182.7" stroke="rgb(0,0,0)"  stroke-width="1.0"/>
<line x1="74.2" y1="169.1" x2="67.2" y2="195.1" stroke="rgb(0,0,0)"  stroke-width="1.0"/>
<line x1="109.2" y1="109.8" x2="74.2" y2="129.0" stroke="rgb(0,0,0)"  stroke-width="1.0"/>
<line x1="74.2" y1="129.0" x2="74.2" y2="169.1" stroke="rgb(0,0,0)"  stroke-width="1.0"/>
<line x1="74.2" y1="169.1" x2="97.4" y2="182.8" stroke="rgb(0,0,0)"  stroke-width="1.0"/>
<line x1="119.9" y1="183.0" x2="143.6" y2="169.6" stroke="rgb(0,0,0)"  stroke-width="1.0"/>
<line x1="143.6" y1="169.6" x2="143.6" y2="129.5" stroke="rgb(0,0,0)"  stroke-width="1.0"/>
<line x1="143.6" y1="129.5" x2="109.2" y2="109.8" stroke="rgb(0,0,0)"  stroke-width="1.0"/>
<text x="60.010876" y="92.267731" fill="rgb(255,12,12)"  stroke="rgb(255,12,12)" stroke-width="1" font-size="16" >HO</text>
<text x="143.252817" y="48.000000" fill="rgb(102,102,102)"  stroke="rgb(102,102,102)" stroke-width="1" font-size="16" >CH</text>
<text x="102.636533" y="197.379982" fill="rgb(12,12,255)"  stroke="rgb(12,12,255)" stroke-width="1" font-size="16" >N</text>
<text x="102.636533" y="213.379982" fill="rgb(12,12,255)"  stroke="rgb(12,12,255)" stroke-width="1" font-size="16" >H</text>
<text x="179.205455" y="173.819922" fill="rgb(102,102,102)"  stroke="rgb(102,102,102)" stroke-width="1" font-size="16" >CH</text>
<text x="203.205455" y="177.499922" fill="rgb(102,102,102)"  stroke="rgb(102,102,102)" stroke-width="1" font-size="13" >3</text>
<text x="162.715834" y="210.048660" fill="rgb(102,102,102)"  stroke="rgb(102,102,102)" stroke-width="1" font-size="16" >CH</text>
<text x="186.715834" y="213.728660" fill="rgb(102,102,102)"  stroke="rgb(102,102,102)" stroke-width="1" font-size="13" >3</text>
<text x="14.000000" y="197.379982" fill="rgb(102,102,102)"  stroke="rgb(102,102,102)" stroke-width="1" font-size="16" >H</text>
<text x="26.000000" y="201.059982" fill="rgb(102,102,102)"  stroke="rgb(102,102,102)" stroke-width="1" font-size="13" >3</text>
<text x="32.500000" y="197.379982" fill="rgb(102,102,102)"  stroke="rgb(102,102,102)" stroke-width="1" font-size="16" >C</text>
<text x="37.879683" y="215.656584" fill="rgb(102,102,102)"  stroke="rgb(102,102,102)" stroke-width="1" font-size="16" >H</text>
<text x="49.879683" y="219.336584" fill="rgb(102,102,102)"  stroke="rgb(102,102,102)" stroke-width="1" font-size="13" >3</text>
<text x="56.379683" y="215.656584" fill="rgb(102,102,102)"  stroke="rgb(102,102,102)" stroke-width="1" font-size="16" >C</text>
<text font-size="18.000000" fill ="black" font-family="sans-serif"
x="10.000000" y="20.000000" ></text>
<title> - OBDepict</title>
</svg>
