<?xml version="1.0"?>
<svg xmlns="http://www.w3.org/2000/svg"
xmlns:xlink="http://www.w3.org/1999/xlink" xmlns:cml="http://www.xml-cml.org/schema" width="344.627" height="313.67" x="0" y="0" font-family="sans-serif" stroke="rgb(0,0,0)" stroke-width="1"  stroke-linecap="round">
<rect x="0%" y="0%" width="100%" height="100%" stroke-width="0" fill="rgb(255,255,255)"  />
<line x1="232.8" y1="198.2" x2="205.7" y2="198.2" stroke="rgb(0,0,0)"  stroke-width="1.0"/>
<line x1="232.8" y1="192.2" x2="205.7" y2="192.2" stroke="rgb(0,0,0)"  stroke-width="1.0"/>
<line x1="256.1" y1="156.3" x2="249.1" y2="182.6" stroke="rgb(0,0,0)"  stroke-width="1.0"/>
<line x1="233.4" y1="273.7" x2="194.6" y2="265.2" stroke="rgb(0,0,0)"  stroke-width="1.0"/>
<line x1="251.4" y1="253.6" x2="233.4" y2="273.7" stroke="rgb(0,0,0)"  stroke-width="1.0"/>
<line x1="254.6" y1="256.4" x2="236.5" y2="276.5" stroke="rgb(0,0,0)"  stroke-width="1.0"/>
<line x1="248.3" y1="250.8" x2="230.3" y2="270.9" stroke="rgb(0,0,0)"  stroke-width="1.0"/>
<line x1="276.1" y1="78.2" x2="295.4" y2="97.6" stroke="rgb(0,0,0)"  stroke-width="1.0"/>
<line x1="301.3" y1="119.3" x2="294.3" y2="145.6" stroke="rgb(0,0,0)"  stroke-width="1.0"/>
<line x1="194.6" y1="265.2" x2="186.1" y2="239.9" stroke="rgb(0,0,0)"  stroke-width="1.0"/>
<line x1="238.9" y1="135.0" x2="258.2" y2="154.2" stroke="rgb(0,0,0)"  stroke-width="1.0"/>
<line x1="234.7" y1="139.3" x2="254.0" y2="158.5" stroke="rgb(0,0,0)"  stroke-width="1.0"/>
<line x1="249.3" y1="82.7" x2="275.3" y2="75.4" stroke="rgb(0,0,0)"  stroke-width="1.0"/>
<line x1="251.0" y1="88.5" x2="276.9" y2="81.1" stroke="rgb(0,0,0)"  stroke-width="1.0"/>
<line x1="294.3" y1="145.6" x2="256.1" y2="156.3" stroke="rgb(0,0,0)"  stroke-width="1.0"/>
<line x1="283.0" y1="52.6" x2="276.1" y2="78.2" stroke="rgb(0,0,0)"  stroke-width="1.0"/>
<line x1="51.3" y1="161.7" x2="75.0" y2="175.1" stroke="rgb(0,0,0)"  stroke-width="1.0"/>
<line x1="205.7" y1="195.2" x2="189.7" y2="173.1" stroke="rgb(0,0,0)"  stroke-width="1.0"/>
<line x1="169.7" y1="166.7" x2="143.8" y2="175.1" stroke="rgb(0,0,0)"  stroke-width="1.0"/>
<line x1="143.8" y1="175.1" x2="143.8" y2="215.2" stroke="rgb(0,0,0)"  stroke-width="1.0"/>
<line x1="151.0" y1="181.1" x2="151.0" y2="209.2" stroke="rgb(0,0,0)"  stroke-width="1.0"/>
<line x1="143.8" y1="215.2" x2="169.7" y2="223.6" stroke="rgb(0,0,0)"  stroke-width="1.0"/>
<line x1="189.7" y1="217.1" x2="205.7" y2="195.2" stroke="rgb(0,0,0)"  stroke-width="1.0"/>
<line x1="109.2" y1="234.8" x2="75.0" y2="215.2" stroke="rgb(0,0,0)"  stroke-width="1.0"/>
<line x1="107.6" y1="225.6" x2="83.8" y2="211.9" stroke="rgb(0,0,0)"  stroke-width="1.0"/>
<line x1="75.0" y1="215.2" x2="75.0" y2="175.1" stroke="rgb(0,0,0)"  stroke-width="1.0"/>
<line x1="75.0" y1="175.1" x2="109.2" y2="154.7" stroke="rgb(0,0,0)"  stroke-width="1.0"/>
<line x1="83.8" y1="178.2" x2="107.7" y2="164.0" stroke="rgb(0,0,0)"  stroke-width="1.0"/>
<line x1="109.2" y1="154.7" x2="143.8" y2="175.1" stroke="rgb(0,0,0)"  stroke-width="1.0"/>
<line x1="143.8" y1="215.2" x2="109.2" y2="234.8" stroke="rgb(0,0,0)"  stroke-width="1.0"/>
<text x="176.021882" y="235.545815" fill="rgb(12,12,255)"  stroke="rgb(12,12,255)" stroke-width="1" font-size="16" >N</text>
<text x="239.751512" y="203.169903" fill="rgb(12,12,255)"  stroke="rgb(12,12,255)" stroke-width="1" font-size="16" >N</text>
<text x="176.021882" y="170.600210" fill="rgb(178,178,0)"  stroke="rgb(178,178,0)" stroke-width="1" font-size="16" >S</text>
<text x="254.115508" y="251.929974" fill="rgb(102,102,102)"  stroke="rgb(102,102,102)" stroke-width="1" font-size="16" >CH</text>
<text x="298.626936" y="114.762299" fill="rgb(178,178,0)"  stroke="rgb(178,178,0)" stroke-width="1" font-size="16" >S</text>
<text x="221.545815" y="136.005509" fill="rgb(255,12,12)"  stroke="rgb(255,12,12)" stroke-width="1" font-size="16" >O</text>
<text x="231.656323" y="97.162166" fill="rgb(255,12,12)"  stroke="rgb(255,12,12)" stroke-width="1" font-size="16" >O</text>
<text x="282.416394" y="48.000000" fill="rgb(102,102,102)"  stroke="rgb(102,102,102)" stroke-width="1" font-size="16" >CH</text>
<text x="306.416394" y="51.680000" fill="rgb(102,102,102)"  stroke="rgb(102,102,102)" stroke-width="1" font-size="13" >3</text>
<text x="34.000000" y="163.318900" fill="rgb(191,191,191)"  stroke="rgb(191,191,191)" stroke-width="1" font-size="16" >H</text>
<text font-size="18.000000" fill ="black" font-family="sans-serif"
x="10.000000" y="20.000000" ></text>
<title> - OBDepict</title>
</svg>
