<?xml version="1.0"?>
<svg xmlns="http://www.w3.org/2000/svg"
xmlns:xlink="http://www.w3.org/1999/xlink" xmlns:cml="http://www.xml-cml.org/schema" width="354.852" height="213.587" x="0" y="0" font-family="sans-serif" stroke="rgb(0,0,0)" stroke-width="1"  stroke-linecap="round">
<rect x="0%" y="0%" width="100%" height="100%" stroke-width="0" fill="rgb(255,255,255)"  />
<line x1="245.3" y1="100.2" x2="209.7" y2="80.7" stroke="rgb(0,0,0)"  stroke-width="1.0"/>
<line x1="209.7" y1="80.7" x2="175.9" y2="101.1" stroke="rgb(0,0,0)"  stroke-width="1.0"/>
<line x1="206.7" y1="80.7" x2="206.7" y2="53.0" stroke="rgb(0,0,0)"  stroke-width="1.0"/>
<line x1="212.7" y1="80.7" x2="212.7" y2="53.0" stroke="rgb(0,0,0)"  stroke-width="1.0"/>
<line x1="175.9" y1="101.1" x2="175.9" y2="141.2" stroke="rgb(0,0,0)"  stroke-width="1.0"/>
<line x1="175.9" y1="141.2" x2="152.7" y2="154.0" stroke="rgb(0,0,0)"  stroke-width="1.0"/>
<line x1="130.4" y1="153.2" x2="107.7" y2="138.6" stroke="rgb(0,0,0)"  stroke-width="1.0"/>
<line x1="107.7" y1="138.6" x2="73.8" y2="118.0" stroke="rgb(0,0,0)"  stroke-width="1.0"/>
<line x1="107.7" y1="138.6" x2="121.8" y2="115.7" stroke="rgb(0,0,0)"  stroke-width="1.0"/>
<line x1="107.7" y1="138.6" x2="93.5" y2="162.4" stroke="rgb(0,0,0)"  stroke-width="1.0"/>
<line x1="73.8" y1="118.0" x2="51.1" y2="104.0" stroke="rgb(0,0,0)"  stroke-width="1.0"/>
<line x1="71.6" y1="121.6" x2="48.8" y2="107.5" stroke="rgb(0,0,0)"  stroke-width="1.0"/>
<line x1="76.0" y1="114.4" x2="53.3" y2="100.4" stroke="rgb(0,0,0)"  stroke-width="1.0"/>
<line x1="245.3" y1="100.2" x2="279.4" y2="79.6" stroke="rgb(0,0,0)"  stroke-width="1.0"/>
<line x1="254.1" y1="103.3" x2="278.0" y2="88.9" stroke="rgb(0,0,0)"  stroke-width="1.0"/>
<line x1="279.4" y1="79.6" x2="313.9" y2="99.4" stroke="rgb(0,0,0)"  stroke-width="1.0"/>
<line x1="313.9" y1="99.4" x2="314.9" y2="139.7" stroke="rgb(0,0,0)"  stroke-width="1.0"/>
<line x1="314.9" y1="139.7" x2="280.5" y2="159.8" stroke="rgb(0,0,0)"  stroke-width="1.0"/>
<line x1="280.5" y1="159.8" x2="245.3" y2="139.7" stroke="rgb(0,0,0)"  stroke-width="1.0"/>
<line x1="245.3" y1="139.7" x2="245.3" y2="100.2" stroke="rgb(0,0,0)"  stroke-width="1.0"/>
<text x="203.668387" y="48.000000" fill="rgb(255,12,12)"  stroke="rgb(255,12,12)" stroke-width="1" font-size="16" >O</text>
<text x="135.339323" y="168.227856" fill="rgb(12,12,255)"  stroke="rgb(12,12,255)" stroke-width="1" font-size="16" >N</text>
<text x="135.339323" y="184.227856" fill="rgb(12,12,255)"  stroke="rgb(12,12,255)" stroke-width="1" font-size="16" >H</text>
<text x="124.594031" y="112.644085" fill="rgb(102,102,102)"  stroke="rgb(102,102,102)" stroke-width="1" font-size="16" >CH</text>
<text x="148.594031" y="116.324085" fill="rgb(102,102,102)"  stroke="rgb(102,102,102)" stroke-width="1" font-size="13" >3</text>
<text x="60.832551" y="181.586507" fill="rgb(102,102,102)"  stroke="rgb(102,102,102)" stroke-width="1" font-size="16" >H</text>
<text x="72.832551" y="185.266507" fill="rgb(102,102,102)"  stroke="rgb(102,102,102)" stroke-width="1" font-size="13" >3</text>
<text x="79.332551" y="181.586507" fill="rgb(102,102,102)"  stroke="rgb(102,102,102)" stroke-width="1" font-size="16" >C</text>
<text x="22.000000" y="105.119581" fill="rgb(102,102,102)"  stroke="rgb(102,102,102)" stroke-width="1" font-size="16" >HC</text>
<text font-size="18.000000" fill ="black" font-family="sans-serif"
x="10.000000" y="20.000000" ></text>
<title> - OBDepict</title>
</svg>
