<?xml version="1.0"?>
<svg xmlns="http://www.w3.org/2000/svg"
xmlns:xlink="http://www.w3.org/1999/xlink" xmlns:cml="http://www.xml-cml.org/schema" width="391.094" height="220.322" x="0" y="0" font-family="sans-serif" stroke="rgb(0,0,0)" stroke-width="1"  stroke-linecap="round">
<rect x="0%" y="0%" width="100%" height="100%" stroke-width="0" fill="rgb(255,255,255)"  />
<line x1="316.6" y1="160.4" x2="282.1" y2="140.4" stroke="rgb(0,0,0)"  stroke-width="1.0"/>
<line x1="339.8" y1="173.8" x2="316.6" y2="160.4" stroke="rgb(0,0,0)"  stroke-width="1.0"/>
<line x1="337.7" y1="177.4" x2="314.5" y2="164.0" stroke="rgb(0,0,0)"  stroke-width="1.0"/>
<line x1="341.9" y1="170.2" x2="318.7" y2="156.7" stroke="rgb(0,0,0)"  stroke-width="1.0"/>
<line x1="49.7" y1="151.3" x2="73.0" y2="137.8" stroke="rgb(0,0,0)"  stroke-width="1.0"/>
<line x1="52.8" y1="156.4" x2="76.0" y2="143.0" stroke="rgb(0,0,0)"  stroke-width="1.0"/>
<line x1="109.0" y1="53.0" x2="109.0" y2="79.9" stroke="rgb(0,0,0)"  stroke-width="1.0"/>
<line x1="282.1" y1="140.4" x2="258.7" y2="153.9" stroke="rgb(0,0,0)"  stroke-width="1.0"/>
<line x1="236.2" y1="153.8" x2="213.0" y2="140.4" stroke="rgb(0,0,0)"  stroke-width="1.0"/>
<line x1="143.6" y1="140.4" x2="120.2" y2="153.9" stroke="rgb(0,0,0)"  stroke-width="1.0"/>
<line x1="97.7" y1="153.8" x2="74.5" y2="140.4" stroke="rgb(0,0,0)"  stroke-width="1.0"/>
<line x1="74.5" y1="140.4" x2="74.5" y2="100.3" stroke="rgb(0,0,0)"  stroke-width="1.0"/>
<line x1="74.5" y1="100.3" x2="109.0" y2="79.9" stroke="rgb(0,0,0)"  stroke-width="1.0"/>
<line x1="83.3" y1="103.4" x2="107.4" y2="89.2" stroke="rgb(0,0,0)"  stroke-width="1.0"/>
<line x1="109.0" y1="79.9" x2="143.6" y2="100.3" stroke="rgb(0,0,0)"  stroke-width="1.0"/>
<line x1="143.6" y1="100.3" x2="143.6" y2="140.4" stroke="rgb(0,0,0)"  stroke-width="1.0"/>
<line x1="136.4" y1="106.3" x2="136.4" y2="134.4" stroke="rgb(0,0,0)"  stroke-width="1.0"/>
<line x1="143.6" y1="100.3" x2="178.1" y2="80.3" stroke="rgb(0,0,0)"  stroke-width="1.0"/>
<line x1="178.1" y1="80.3" x2="213.0" y2="99.9" stroke="rgb(0,0,0)"  stroke-width="1.0"/>
<line x1="179.8" y1="89.5" x2="204.2" y2="103.2" stroke="rgb(0,0,0)"  stroke-width="1.0"/>
<line x1="213.0" y1="99.9" x2="213.0" y2="140.4" stroke="rgb(0,0,0)"  stroke-width="1.0"/>
<line x1="213.0" y1="140.4" x2="178.1" y2="160.4" stroke="rgb(0,0,0)"  stroke-width="1.0"/>
<line x1="204.2" y1="137.1" x2="179.7" y2="151.1" stroke="rgb(0,0,0)"  stroke-width="1.0"/>
<line x1="178.1" y1="160.4" x2="143.6" y2="140.4" stroke="rgb(0,0,0)"  stroke-width="1.0"/>
<text x="102.951468" y="168.360907" fill="rgb(255,12,12)"  stroke="rgb(255,12,12)" stroke-width="1" font-size="16" >O</text>
<text x="345.093514" y="188.321691" fill="rgb(102,102,102)"  stroke="rgb(102,102,102)" stroke-width="1" font-size="16" >CH</text>
<text x="34.000000" y="168.360907" fill="rgb(255,12,12)"  stroke="rgb(255,12,12)" stroke-width="1" font-size="16" >O</text>
<text x="104.951468" y="48.000000" fill="rgb(102,102,102)"  stroke="rgb(102,102,102)" stroke-width="1" font-size="16" >CH</text>
<text x="128.951468" y="51.680000" fill="rgb(102,102,102)"  stroke="rgb(102,102,102)" stroke-width="1" font-size="13" >3</text>
<text x="241.460305" y="168.360907" fill="rgb(255,12,12)"  stroke="rgb(255,12,12)" stroke-width="1" font-size="16" >O</text>
<text font-size="18.000000" fill ="black" font-family="sans-serif"
x="10.000000" y="20.000000" ></text>
<title> - OBDepict</title>
</svg>
