<?xml version="1.0"?>
<svg xmlns="http://www.w3.org/2000/svg"
xmlns:xlink="http://www.w3.org/1999/xlink" xmlns:cml="http://www.xml-cml.org/schema" width="322.313" height="380" x="0" y="0" font-family="sans-serif" stroke="rgb(0,0,0)" stroke-width="1"  stroke-linecap="round">
<rect x="0%" y="0%" width="100%" height="100%" stroke-width="0" fill="rgb(255,255,255)"  />
<line x1="179.0" y1="260.1" x2="178.6" y2="220.1" stroke="rgb(0,0,0)"  stroke-width="1.0"/>
<line x1="144.3" y1="280.0" x2="109.6" y2="260.1" stroke="rgb(0,0,0)"  stroke-width="1.0"/>
<line x1="144.3" y1="320.1" x2="120.9" y2="333.5" stroke="rgb(0,0,0)"  stroke-width="1.0"/>
<line x1="109.6" y1="260.1" x2="86.2" y2="273.5" stroke="rgb(0,0,0)"  stroke-width="1.0"/>
<line x1="106.6" y1="260.1" x2="106.6" y2="233.1" stroke="rgb(0,0,0)"  stroke-width="1.0"/>
<line x1="112.6" y1="260.1" x2="112.6" y2="233.1" stroke="rgb(0,0,0)"  stroke-width="1.0"/>
<line x1="214.9" y1="317.5" x2="238.6" y2="331.0" stroke="rgb(0,0,0)"  stroke-width="1.0"/>
<line x1="211.9" y1="322.7" x2="235.6" y2="336.2" stroke="rgb(0,0,0)"  stroke-width="1.0"/>
<line x1="213.2" y1="160.1" x2="236.6" y2="146.5" stroke="rgb(0,0,0)"  stroke-width="1.0"/>
<line x1="63.7" y1="273.5" x2="51.3" y2="266.5" stroke="rgb(0,0,0)"  stroke-width="1.0"/>
<line x1="247.9" y1="127.0" x2="247.9" y2="100.0" stroke="rgb(0,0,0)"  stroke-width="1.0"/>
<line x1="247.9" y1="100.0" x2="282.3" y2="80.0" stroke="rgb(0,0,0)"  stroke-width="1.0"/>
<line x1="282.3" y1="80.0" x2="282.1" y2="53.0" stroke="rgb(0,0,0)"  stroke-width="1.0"/>
<line x1="278.1" y1="80.0" x2="277.9" y2="53.0" stroke="rgb(0,0,0)"  stroke-width="1.0"/>
<line x1="286.5" y1="79.9" x2="286.3" y2="53.0" stroke="rgb(0,0,0)"  stroke-width="1.0"/>
<line x1="179.0" y1="260.1" x2="202.2" y2="273.5" stroke="rgb(0,0,0)"  stroke-width="1.0"/>
<line x1="213.4" y1="293.0" x2="213.4" y2="320.1" stroke="rgb(0,0,0)"  stroke-width="1.0"/>
<line x1="213.4" y1="320.1" x2="190.2" y2="333.5" stroke="rgb(0,0,0)"  stroke-width="1.0"/>
<line x1="167.7" y1="333.5" x2="144.3" y2="320.1" stroke="rgb(0,0,0)"  stroke-width="1.0"/>
<line x1="144.3" y1="320.1" x2="144.3" y2="280.0" stroke="rgb(0,0,0)"  stroke-width="1.0"/>
<line x1="151.5" y1="314.1" x2="151.5" y2="286.0" stroke="rgb(0,0,0)"  stroke-width="1.0"/>
<line x1="144.3" y1="280.0" x2="179.0" y2="260.1" stroke="rgb(0,0,0)"  stroke-width="1.0"/>
<line x1="178.6" y1="220.1" x2="144.2" y2="200.4" stroke="rgb(0,0,0)"  stroke-width="1.0"/>
<line x1="144.2" y1="200.4" x2="143.7" y2="160.6" stroke="rgb(0,0,0)"  stroke-width="1.0"/>
<line x1="151.3" y1="194.3" x2="151.0" y2="166.5" stroke="rgb(0,0,0)"  stroke-width="1.0"/>
<line x1="143.7" y1="160.6" x2="178.3" y2="140.0" stroke="rgb(0,0,0)"  stroke-width="1.0"/>
<line x1="178.3" y1="140.0" x2="213.2" y2="160.1" stroke="rgb(0,0,0)"  stroke-width="1.0"/>
<line x1="179.9" y1="149.2" x2="204.5" y2="163.3" stroke="rgb(0,0,0)"  stroke-width="1.0"/>
<line x1="213.2" y1="160.1" x2="213.2" y2="200.0" stroke="rgb(0,0,0)"  stroke-width="1.0"/>
<line x1="213.2" y1="200.0" x2="178.6" y2="220.1" stroke="rgb(0,0,0)"  stroke-width="1.0"/>
<line x1="204.4" y1="196.8" x2="180.2" y2="210.9" stroke="rgb(0,0,0)"  stroke-width="1.0"/>
<text x="207.415354" y="287.967862" fill="rgb(12,12,255)"  stroke="rgb(12,12,255)" stroke-width="1" font-size="16" >NH</text>
<text x="172.961908" y="347.999794" fill="rgb(12,12,255)"  stroke="rgb(12,12,255)" stroke-width="1" font-size="16" >N</text>
<text x="172.961908" y="363.999794" fill="rgb(12,12,255)"  stroke="rgb(12,12,255)" stroke-width="1" font-size="16" >H</text>
<text x="83.565731" y="347.999794" fill="rgb(102,102,102)"  stroke="rgb(102,102,102)" stroke-width="1" font-size="16" >H</text>
<text x="95.565731" y="351.679794" fill="rgb(102,102,102)"  stroke="rgb(102,102,102)" stroke-width="1" font-size="13" >3</text>
<text x="102.065731" y="347.999794" fill="rgb(102,102,102)"  stroke="rgb(102,102,102)" stroke-width="1" font-size="16" >C</text>
<text x="68.952420" y="287.967862" fill="rgb(255,12,12)"  stroke="rgb(255,12,12)" stroke-width="1" font-size="16" >O</text>
<text x="103.565731" y="228.100640" fill="rgb(255,12,12)"  stroke="rgb(255,12,12)" stroke-width="1" font-size="16" >O</text>
<text x="242.367774" y="347.999794" fill="rgb(255,12,12)"  stroke="rgb(255,12,12)" stroke-width="1" font-size="16" >O</text>
<text x="241.859111" y="148.003161" fill="rgb(255,12,12)"  stroke="rgb(255,12,12)" stroke-width="1" font-size="16" >O</text>
<text x="14.000000" y="268.067025" fill="rgb(102,102,102)"  stroke="rgb(102,102,102)" stroke-width="1" font-size="16" >H</text>
<text x="26.000000" y="271.747025" fill="rgb(102,102,102)"  stroke="rgb(102,102,102)" stroke-width="1" font-size="13" >3</text>
<text x="32.500000" y="268.067025" fill="rgb(102,102,102)"  stroke="rgb(102,102,102)" stroke-width="1" font-size="16" >C</text>
<text x="263.978292" y="48.000000" fill="rgb(102,102,102)"  stroke="rgb(102,102,102)" stroke-width="1" font-size="16" >HC</text>
<text font-size="18.000000" fill ="black" font-family="sans-serif"
x="10.000000" y="20.000000" ></text>
<title> - OBDepict</title>
</svg>
