<?xml version="1.0"?>
<svg xmlns="http://www.w3.org/2000/svg"
xmlns:xlink="http://www.w3.org/1999/xlink" xmlns:cml="http://www.xml-cml.org/schema" width="357.032" height="220.518" x="0" y="0" font-family="sans-serif" stroke="rgb(0,0,0)" stroke-width="1"  stroke-linecap="round">
<rect x="0%" y="0%" width="100%" height="100%" stroke-width="0" fill="rgb(255,255,255)"  />
<line x1="74.7" y1="100.5" x2="109.4" y2="120.5" stroke="rgb(0,0,0)"  stroke-width="1.0"/>
<line x1="51.3" y1="114.0" x2="74.7" y2="100.5" stroke="rgb(0,0,0)"  stroke-width="1.0"/>
<line x1="49.2" y1="110.4" x2="72.6" y2="96.8" stroke="rgb(0,0,0)"  stroke-width="1.0"/>
<line x1="53.4" y1="117.6" x2="76.8" y2="104.1" stroke="rgb(0,0,0)"  stroke-width="1.0"/>
<line x1="154.8" y1="173.9" x2="178.3" y2="160.1" stroke="rgb(0,0,0)"  stroke-width="1.0"/>
<line x1="154.9" y1="107.0" x2="178.3" y2="120.5" stroke="rgb(0,0,0)"  stroke-width="1.0"/>
<line x1="213.0" y1="73.0" x2="213.0" y2="100.0" stroke="rgb(0,0,0)"  stroke-width="1.0"/>
<line x1="109.4" y1="120.5" x2="132.4" y2="107.0" stroke="rgb(0,0,0)"  stroke-width="1.0"/>
<line x1="305.8" y1="166.6" x2="282.3" y2="180.1" stroke="rgb(0,0,0)"  stroke-width="1.0"/>
<line x1="282.3" y1="180.1" x2="247.7" y2="160.1" stroke="rgb(0,0,0)"  stroke-width="1.0"/>
<line x1="236.2" y1="46.5" x2="224.2" y2="53.5" stroke="rgb(0,0,0)"  stroke-width="1.0"/>
<line x1="178.3" y1="120.5" x2="178.3" y2="160.1" stroke="rgb(0,0,0)"  stroke-width="1.0"/>
<line x1="185.5" y1="126.5" x2="185.5" y2="154.1" stroke="rgb(0,0,0)"  stroke-width="1.0"/>
<line x1="178.3" y1="160.1" x2="213.0" y2="180.1" stroke="rgb(0,0,0)"  stroke-width="1.0"/>
<line x1="213.0" y1="180.1" x2="247.7" y2="160.1" stroke="rgb(0,0,0)"  stroke-width="1.0"/>
<line x1="214.6" y1="170.8" x2="238.9" y2="156.8" stroke="rgb(0,0,0)"  stroke-width="1.0"/>
<line x1="247.7" y1="160.1" x2="247.7" y2="120.0" stroke="rgb(0,0,0)"  stroke-width="1.0"/>
<line x1="247.7" y1="120.0" x2="213.0" y2="100.0" stroke="rgb(0,0,0)"  stroke-width="1.0"/>
<line x1="238.9" y1="123.3" x2="214.6" y2="109.3" stroke="rgb(0,0,0)"  stroke-width="1.0"/>
<line x1="213.0" y1="100.0" x2="178.3" y2="120.5" stroke="rgb(0,0,0)"  stroke-width="1.0"/>
<text x="22.000000" y="128.488203" fill="rgb(102,102,102)"  stroke="rgb(102,102,102)" stroke-width="1" font-size="16" >HC</text>
<text x="137.606174" y="188.518239" fill="rgb(147,0,147)"  stroke="rgb(147,0,147)" stroke-width="1" font-size="16" >I</text>
<text x="137.606174" y="108.476573" fill="rgb(255,12,12)"  stroke="rgb(255,12,12)" stroke-width="1" font-size="16" >O</text>
<text x="206.974647" y="68.011630" fill="rgb(255,12,12)"  stroke="rgb(255,12,12)" stroke-width="1" font-size="16" >O</text>
<text x="311.032211" y="168.064927" fill="rgb(255,12,12)"  stroke="rgb(255,12,12)" stroke-width="1" font-size="16" >OH</text>
<text x="243.435616" y="48.000000" fill="rgb(102,102,102)"  stroke="rgb(102,102,102)" stroke-width="1" font-size="16" >CH</text>
<text x="267.435616" y="51.680000" fill="rgb(102,102,102)"  stroke="rgb(102,102,102)" stroke-width="1" font-size="13" >3</text>
<text font-size="18.000000" fill ="black" font-family="sans-serif"
x="10.000000" y="20.000000" ></text>
<title> - OBDepict</title>
</svg>
