<?xml version="1.0"?>
<svg xmlns="http://www.w3.org/2000/svg"
xmlns:xlink="http://www.w3.org/1999/xlink" xmlns:cml="http://www.xml-cml.org/schema" width="491.285" height="389.859" x="0" y="0" font-family="sans-serif" stroke="rgb(0,0,0)" stroke-width="1"  stroke-linecap="round">
<rect x="0%" y="0%" width="100%" height="100%" stroke-width="0" fill="rgb(255,255,255)"  />
<line x1="136.3" y1="154.3" x2="157.9" y2="138.5" stroke="rgb(0,0,0)"  stroke-width="1.0"/>
<line x1="269.6" y1="112.0" x2="229.6" y2="112.6" stroke="rgb(0,0,0)"  stroke-width="1.0"/>
<line x1="269.5" y1="106.0" x2="229.5" y2="106.6" stroke="rgb(0,0,0)"  stroke-width="1.0"/>
<line x1="353.2" y1="315.6" x2="332.5" y2="281.1" stroke="rgb(0,0,0)"  stroke-width="1.0"/>
<line x1="367.2" y1="338.7" x2="353.2" y2="315.6" stroke="rgb(0,0,0)"  stroke-width="1.0"/>
<line x1="363.6" y1="340.9" x2="349.6" y2="317.8" stroke="rgb(0,0,0)"  stroke-width="1.0"/>
<line x1="370.8" y1="336.6" x2="356.8" y2="313.4" stroke="rgb(0,0,0)"  stroke-width="1.0"/>
<line x1="212.7" y1="169.0" x2="204.0" y2="143.3" stroke="rgb(0,0,0)"  stroke-width="1.0"/>
<line x1="218.4" y1="167.1" x2="209.7" y2="141.4" stroke="rgb(0,0,0)"  stroke-width="1.0"/>
<line x1="216.1" y1="53.3" x2="208.4" y2="78.9" stroke="rgb(0,0,0)"  stroke-width="1.0"/>
<line x1="210.4" y1="51.6" x2="202.6" y2="77.2" stroke="rgb(0,0,0)"  stroke-width="1.0"/>
<line x1="289.8" y1="143.0" x2="269.6" y2="109.0" stroke="rgb(0,0,0)"  stroke-width="1.0"/>
<line x1="111.9" y1="245.3" x2="108.7" y2="218.4" stroke="rgb(0,0,0)"  stroke-width="1.0"/>
<line x1="377.6" y1="176.3" x2="350.5" y2="176.8" stroke="rgb(0,0,0)"  stroke-width="1.0"/>
<line x1="345.2" y1="235.1" x2="331.2" y2="211.7" stroke="rgb(0,0,0)"  stroke-width="1.0"/>
<line x1="332.5" y1="281.1" x2="345.6" y2="257.6" stroke="rgb(0,0,0)"  stroke-width="1.0"/>
<line x1="50.3" y1="218.5" x2="71.6" y2="202.4" stroke="rgb(0,0,0)"  stroke-width="1.0"/>
<line x1="411.3" y1="210.4" x2="397.3" y2="187.3" stroke="rgb(0,0,0)"  stroke-width="1.0"/>
<line x1="438.3" y1="209.9" x2="411.3" y2="210.4" stroke="rgb(0,0,0)"  stroke-width="1.0"/>
<line x1="229.5" y1="109.6" x2="205.5" y2="78.0" stroke="rgb(0,0,0)"  stroke-width="1.0"/>
<line x1="205.5" y1="78.0" x2="180.4" y2="86.5" stroke="rgb(0,0,0)"  stroke-width="1.0"/>
<line x1="168.2" y1="103.7" x2="168.3" y2="117.8" stroke="rgb(0,0,0)"  stroke-width="1.0"/>
<line x1="180.8" y1="134.5" x2="206.8" y2="142.3" stroke="rgb(0,0,0)"  stroke-width="1.0"/>
<line x1="206.8" y1="142.3" x2="229.5" y2="109.6" stroke="rgb(0,0,0)"  stroke-width="1.0"/>
<line x1="350.5" y1="176.8" x2="331.2" y2="211.7" stroke="rgb(0,0,0)"  stroke-width="1.0"/>
<line x1="341.3" y1="178.6" x2="327.8" y2="203.0" stroke="rgb(0,0,0)"  stroke-width="1.0"/>
<line x1="331.2" y1="211.7" x2="291.1" y2="212.4" stroke="rgb(0,0,0)"  stroke-width="1.0"/>
<line x1="291.1" y1="212.4" x2="270.4" y2="178.4" stroke="rgb(0,0,0)"  stroke-width="1.0"/>
<line x1="294.2" y1="203.5" x2="279.7" y2="179.7" stroke="rgb(0,0,0)"  stroke-width="1.0"/>
<line x1="270.4" y1="178.4" x2="289.8" y2="143.0" stroke="rgb(0,0,0)"  stroke-width="1.0"/>
<line x1="289.8" y1="143.0" x2="329.8" y2="142.3" stroke="rgb(0,0,0)"  stroke-width="1.0"/>
<line x1="295.9" y1="150.1" x2="324.0" y2="149.6" stroke="rgb(0,0,0)"  stroke-width="1.0"/>
<line x1="329.8" y1="142.3" x2="350.5" y2="176.8" stroke="rgb(0,0,0)"  stroke-width="1.0"/>
<line x1="136.3" y1="154.3" x2="141.0" y2="194.4" stroke="rgb(0,0,0)"  stroke-width="1.0"/>
<line x1="129.9" y1="161.1" x2="133.1" y2="189.3" stroke="rgb(0,0,0)"  stroke-width="1.0"/>
<line x1="141.0" y1="194.4" x2="108.7" y2="218.4" stroke="rgb(0,0,0)"  stroke-width="1.0"/>
<line x1="108.7" y1="218.4" x2="71.6" y2="202.4" stroke="rgb(0,0,0)"  stroke-width="1.0"/>
<line x1="106.1" y1="209.4" x2="79.9" y2="198.1" stroke="rgb(0,0,0)"  stroke-width="1.0"/>
<line x1="71.6" y1="202.4" x2="67.4" y2="162.8" stroke="rgb(0,0,0)"  stroke-width="1.0"/>
<line x1="67.4" y1="162.8" x2="99.6" y2="138.8" stroke="rgb(0,0,0)"  stroke-width="1.0"/>
<line x1="76.5" y1="165.0" x2="99.1" y2="148.1" stroke="rgb(0,0,0)"  stroke-width="1.0"/>
<line x1="99.6" y1="138.8" x2="136.3" y2="154.3" stroke="rgb(0,0,0)"  stroke-width="1.0"/>
<text x="162.345195" y="138.757070" fill="rgb(12,12,255)"  stroke="rgb(12,12,255)" stroke-width="1" font-size="16" >N</text>
<text x="150.121918" y="98.717757" fill="rgb(12,12,255)"  stroke="rgb(12,12,255)" stroke-width="1" font-size="16" >HN</text>
<text x="367.880982" y="357.859336" fill="rgb(102,102,102)"  stroke="rgb(102,102,102)" stroke-width="1" font-size="16" >CH</text>
<text x="213.732782" y="188.358445" fill="rgb(255,12,12)"  stroke="rgb(255,12,12)" stroke-width="1" font-size="16" >O</text>
<text x="211.063171" y="48.000000" fill="rgb(255,12,12)"  stroke="rgb(255,12,12)" stroke-width="1" font-size="16" >O</text>
<text x="107.404598" y="266.209159" fill="rgb(30,239,30)"  stroke="rgb(30,239,30)" stroke-width="1" font-size="16" >Cl</text>
<text x="384.563625" y="184.130752" fill="rgb(255,12,12)"  stroke="rgb(255,12,12)" stroke-width="1" font-size="16" >O</text>
<text x="345.859117" y="254.200763" fill="rgb(255,12,12)"  stroke="rgb(255,12,12)" stroke-width="1" font-size="16" >O</text>
<text x="14.000000" y="234.406810" fill="rgb(102,102,102)"  stroke="rgb(102,102,102)" stroke-width="1" font-size="16" >H</text>
<text x="26.000000" y="238.086810" fill="rgb(102,102,102)"  stroke="rgb(102,102,102)" stroke-width="1" font-size="13" >3</text>
<text x="32.500000" y="234.406810" fill="rgb(102,102,102)"  stroke="rgb(102,102,102)" stroke-width="1" font-size="16" >C</text>
<text x="447.285143" y="217.724167" fill="rgb(102,102,102)"  stroke="rgb(102,102,102)" stroke-width="1" font-size="16" >CH</text>
<text x="471.285143" y="221.404167" fill="rgb(102,102,102)"  stroke="rgb(102,102,102)" stroke-width="1" font-size="13" >3</text>
<text font-size="18.000000" fill ="black" font-family="sans-serif"
x="10.000000" y="20.000000" ></text>
<title> - OBDepict</title>
</svg>
