<?xml version="1.0"?>
<svg xmlns="http://www.w3.org/2000/svg"
xmlns:xlink="http://www.w3.org/1999/xlink" xmlns:cml="http://www.xml-cml.org/schema" width="538.874" height="478.713" x="0" y="0" font-family="sans-serif" stroke="rgb(0,0,0)" stroke-width="1"  stroke-linecap="round">
<rect x="0%" y="0%" width="100%" height="100%" stroke-width="0" fill="rgb(255,255,255)"  />
<line x1="351.3" y1="370.4" x2="324.6" y2="367.2" stroke="rgb(0,0,0)"  stroke-width="1.0"/>
<line x1="265.5" y1="280.4" x2="239.6" y2="273.9" stroke="rgb(0,0,0)"  stroke-width="1.0"/>
<line x1="221.6" y1="258.9" x2="210.6" y2="234.6" stroke="rgb(0,0,0)"  stroke-width="1.0"/>
<line x1="273.6" y1="320.2" x2="265.5" y2="280.4" stroke="rgb(0,0,0)"  stroke-width="1.0"/>
<line x1="459.9" y1="431.4" x2="421.1" y2="421.8" stroke="rgb(0,0,0)"  stroke-width="1.0"/>
<line x1="186.4" y1="158.1" x2="174.5" y2="120.3" stroke="rgb(0,0,0)"  stroke-width="1.0"/>
<line x1="486.1" y1="436.3" x2="459.9" y2="431.4" stroke="rgb(0,0,0)"  stroke-width="1.0"/>
<line x1="485.3" y1="440.5" x2="459.1" y2="435.6" stroke="rgb(0,0,0)"  stroke-width="1.0"/>
<line x1="486.9" y1="432.2" x2="460.7" y2="427.3" stroke="rgb(0,0,0)"  stroke-width="1.0"/>
<line x1="373.7" y1="346.3" x2="370.3" y2="360.0" stroke="rgb(0,0,0)"  stroke-width="1.0"/>
<line x1="367.9" y1="344.8" x2="364.4" y2="358.5" stroke="rgb(0,0,0)"  stroke-width="1.0"/>
<line x1="357.6" y1="398.6" x2="359.5" y2="384.4" stroke="rgb(0,0,0)"  stroke-width="1.0"/>
<line x1="363.5" y1="399.4" x2="365.4" y2="385.2" stroke="rgb(0,0,0)"  stroke-width="1.0"/>
<line x1="389.8" y1="381.6" x2="376.4" y2="376.5" stroke="rgb(0,0,0)"  stroke-width="1.0"/>
<line x1="285.1" y1="261.5" x2="267.8" y2="282.4" stroke="rgb(0,0,0)"  stroke-width="1.0"/>
<line x1="280.5" y1="257.6" x2="263.2" y2="278.5" stroke="rgb(0,0,0)"  stroke-width="1.0"/>
<line x1="421.1" y1="421.8" x2="408.1" y2="397.7" stroke="rgb(0,0,0)"  stroke-width="1.0"/>
<line x1="136.5" y1="95.0" x2="136.5" y2="68.1" stroke="rgb(0,0,0)"  stroke-width="1.0"/>
<line x1="136.5" y1="68.1" x2="161.9" y2="59.8" stroke="rgb(0,0,0)"  stroke-width="1.0"/>
<line x1="144.4" y1="73.1" x2="162.2" y2="67.3" stroke="rgb(0,0,0)"  stroke-width="1.0"/>
<line x1="182.1" y1="66.3" x2="190.3" y2="77.7" stroke="rgb(0,0,0)"  stroke-width="1.0"/>
<line x1="190.1" y1="98.8" x2="174.5" y2="120.3" stroke="rgb(0,0,0)"  stroke-width="1.0"/>
<line x1="183.1" y1="96.2" x2="172.2" y2="111.3" stroke="rgb(0,0,0)"  stroke-width="1.0"/>
<line x1="174.5" y1="120.3" x2="148.9" y2="112.0" stroke="rgb(0,0,0)"  stroke-width="1.0"/>
<line x1="186.4" y1="158.1" x2="225.5" y2="166.6" stroke="rgb(0,0,0)"  stroke-width="1.0"/>
<line x1="225.5" y1="166.6" x2="237.4" y2="204.9" stroke="rgb(0,0,0)"  stroke-width="1.0"/>
<line x1="220.4" y1="174.4" x2="228.8" y2="201.3" stroke="rgb(0,0,0)"  stroke-width="1.0"/>
<line x1="237.4" y1="204.9" x2="210.6" y2="234.6" stroke="rgb(0,0,0)"  stroke-width="1.0"/>
<line x1="210.6" y1="234.6" x2="171.4" y2="225.7" stroke="rgb(0,0,0)"  stroke-width="1.0"/>
<line x1="206.3" y1="226.3" x2="178.9" y2="220.0" stroke="rgb(0,0,0)"  stroke-width="1.0"/>
<line x1="171.4" y1="225.7" x2="159.3" y2="187.8" stroke="rgb(0,0,0)"  stroke-width="1.0"/>
<line x1="159.3" y1="187.8" x2="186.4" y2="158.1" stroke="rgb(0,0,0)"  stroke-width="1.0"/>
<line x1="168.7" y1="188.2" x2="187.6" y2="167.4" stroke="rgb(0,0,0)"  stroke-width="1.0"/>
<line x1="324.6" y1="367.2" x2="297.4" y2="396.5" stroke="rgb(0,0,0)"  stroke-width="1.0"/>
<line x1="315.3" y1="366.7" x2="296.2" y2="387.2" stroke="rgb(0,0,0)"  stroke-width="1.0"/>
<line x1="297.4" y1="396.5" x2="258.4" y2="387.8" stroke="rgb(0,0,0)"  stroke-width="1.0"/>
<line x1="258.4" y1="387.8" x2="246.3" y2="349.7" stroke="rgb(0,0,0)"  stroke-width="1.0"/>
<line x1="263.5" y1="379.9" x2="255.0" y2="353.2" stroke="rgb(0,0,0)"  stroke-width="1.0"/>
<line x1="246.3" y1="349.7" x2="273.6" y2="320.2" stroke="rgb(0,0,0)"  stroke-width="1.0"/>
<line x1="273.6" y1="320.2" x2="312.3" y2="328.9" stroke="rgb(0,0,0)"  stroke-width="1.0"/>
<line x1="277.9" y1="328.5" x2="304.9" y2="334.6" stroke="rgb(0,0,0)"  stroke-width="1.0"/>
<line x1="312.3" y1="328.9" x2="324.6" y2="367.2" stroke="rgb(0,0,0)"  stroke-width="1.0"/>
<line x1="127.3" y1="117.2" x2="108.0" y2="136.3" stroke="rgb(0,0,0)"  stroke-width="1.0"/>
<line x1="108.0" y1="136.3" x2="68.1" y2="136.3" stroke="rgb(0,0,0)"  stroke-width="1.0"/>
<line x1="68.1" y1="136.3" x2="40.0" y2="107.8" stroke="rgb(0,0,0)"  stroke-width="1.0"/>
<line x1="40.0" y1="107.8" x2="40.0" y2="67.9" stroke="rgb(0,0,0)"  stroke-width="1.0"/>
<line x1="40.0" y1="67.9" x2="68.3" y2="40.0" stroke="rgb(0,0,0)"  stroke-width="1.0"/>
<line x1="68.3" y1="40.0" x2="108.2" y2="40.0" stroke="rgb(0,0,0)"  stroke-width="1.0"/>
<line x1="108.2" y1="40.0" x2="136.5" y2="68.1" stroke="rgb(0,0,0)"  stroke-width="1.0"/>
<text x="130.499750" y="116.034819" fill="rgb(12,12,255)"  stroke="rgb(12,12,255)" stroke-width="1" font-size="16" >N</text>
<text x="358.219197" y="379.888981" fill="rgb(178,178,0)"  stroke="rgb(178,178,0)" stroke-width="1" font-size="16" >S</text>
<text x="191.872563" y="96.247452" fill="rgb(12,12,255)"  stroke="rgb(12,12,255)" stroke-width="1" font-size="16" >N</text>
<text x="168.451376" y="63.746558" fill="rgb(12,12,255)"  stroke="rgb(12,12,255)" stroke-width="1" font-size="16" >N</text>
<text x="220.943131" y="278.747631" fill="rgb(12,12,255)"  stroke="rgb(12,12,255)" stroke-width="1" font-size="16" >N</text>
<text x="220.943131" y="294.747631" fill="rgb(12,12,255)"  stroke="rgb(12,12,255)" stroke-width="1" font-size="16" >H</text>
<text x="492.874066" y="446.712526" fill="rgb(102,102,102)"  stroke="rgb(102,102,102)" stroke-width="1" font-size="16" >CH</text>
<text x="367.909386" y="340.924730" fill="rgb(255,12,12)"  stroke="rgb(255,12,12)" stroke-width="1" font-size="16" >O</text>
<text x="352.768465" y="419.861012" fill="rgb(255,12,12)"  stroke="rgb(255,12,12)" stroke-width="1" font-size="16" >O</text>
<text x="395.972174" y="394.220771" fill="rgb(12,12,255)"  stroke="rgb(12,12,255)" stroke-width="1" font-size="16" >N</text>
<text x="395.972174" y="378.220771" fill="rgb(12,12,255)"  stroke="rgb(12,12,255)" stroke-width="1" font-size="16" >H</text>
<text x="285.140634" y="257.550342" fill="rgb(255,12,12)"  stroke="rgb(255,12,12)" stroke-width="1" font-size="16" >O</text>
<text font-size="18.000000" fill ="black" font-family="sans-serif"
x="10.000000" y="20.000000" ></text>
<title> - OBDepict</title>
</svg>
