<?xml version="1.0"?>
<svg xmlns="http://www.w3.org/2000/svg"
xmlns:xlink="http://www.w3.org/1999/xlink" xmlns:cml="http://www.xml-cml.org/schema" width="426.282" height="420.221" x="0" y="0" font-family="sans-serif" stroke="rgb(0,0,0)" stroke-width="1"  stroke-linecap="round">
<rect x="0%" y="0%" width="100%" height="100%" stroke-width="0" fill="rgb(255,255,255)"  />
<line x1="236.4" y1="173.7" x2="213.1" y2="160.2" stroke="rgb(0,0,0)"  stroke-width="1.0"/>
<line x1="351.7" y1="240.2" x2="328.3" y2="226.7" stroke="rgb(0,0,0)"  stroke-width="1.0"/>
<line x1="386.3" y1="340.2" x2="386.3" y2="300.2" stroke="rgb(0,0,0)"  stroke-width="1.0"/>
<line x1="386.3" y1="367.2" x2="386.3" y2="340.2" stroke="rgb(0,0,0)"  stroke-width="1.0"/>
<line x1="382.1" y1="367.2" x2="382.1" y2="340.2" stroke="rgb(0,0,0)"  stroke-width="1.0"/>
<line x1="390.5" y1="367.2" x2="390.5" y2="340.2" stroke="rgb(0,0,0)"  stroke-width="1.0"/>
<line x1="119.0" y1="171.1" x2="142.3" y2="157.6" stroke="rgb(0,0,0)"  stroke-width="1.0"/>
<line x1="122.1" y1="176.3" x2="145.3" y2="162.8" stroke="rgb(0,0,0)"  stroke-width="1.0"/>
<line x1="109.3" y1="100.2" x2="132.6" y2="113.7" stroke="rgb(0,0,0)"  stroke-width="1.0"/>
<line x1="178.4" y1="207.2" x2="178.4" y2="180.2" stroke="rgb(0,0,0)"  stroke-width="1.0"/>
<line x1="376.5" y1="229.3" x2="353.2" y2="242.8" stroke="rgb(0,0,0)"  stroke-width="1.0"/>
<line x1="373.5" y1="224.1" x2="350.2" y2="237.6" stroke="rgb(0,0,0)"  stroke-width="1.0"/>
<line x1="351.7" y1="267.2" x2="351.7" y2="240.2" stroke="rgb(0,0,0)"  stroke-width="1.0"/>
<line x1="386.3" y1="300.2" x2="363.0" y2="286.7" stroke="rgb(0,0,0)"  stroke-width="1.0"/>
<line x1="109.3" y1="100.2" x2="109.3" y2="60.2" stroke="rgb(0,0,0)"  stroke-width="1.0"/>
<line x1="109.3" y1="60.2" x2="74.5" y2="40.0" stroke="rgb(0,0,0)"  stroke-width="1.0"/>
<line x1="100.5" y1="63.4" x2="76.1" y2="49.2" stroke="rgb(0,0,0)"  stroke-width="1.0"/>
<line x1="74.5" y1="40.0" x2="40.0" y2="60.2" stroke="rgb(0,0,0)"  stroke-width="1.0"/>
<line x1="40.0" y1="60.2" x2="40.0" y2="100.2" stroke="rgb(0,0,0)"  stroke-width="1.0"/>
<line x1="47.2" y1="66.2" x2="47.2" y2="94.2" stroke="rgb(0,0,0)"  stroke-width="1.0"/>
<line x1="40.0" y1="100.2" x2="74.5" y2="120.2" stroke="rgb(0,0,0)"  stroke-width="1.0"/>
<line x1="74.5" y1="120.2" x2="109.3" y2="100.2" stroke="rgb(0,0,0)"  stroke-width="1.0"/>
<line x1="76.2" y1="111.0" x2="100.5" y2="97.0" stroke="rgb(0,0,0)"  stroke-width="1.0"/>
<line x1="178.4" y1="180.2" x2="143.8" y2="160.2" stroke="rgb(0,0,0)"  stroke-width="1.0"/>
<line x1="143.8" y1="160.2" x2="143.8" y2="133.2" stroke="rgb(0,0,0)"  stroke-width="1.0"/>
<line x1="155.1" y1="113.7" x2="167.1" y2="106.7" stroke="rgb(0,0,0)"  stroke-width="1.0"/>
<line x1="189.9" y1="106.8" x2="213.1" y2="120.2" stroke="rgb(0,0,0)"  stroke-width="1.0"/>
<line x1="188.0" y1="114.0" x2="204.3" y2="123.5" stroke="rgb(0,0,0)"  stroke-width="1.0"/>
<line x1="213.1" y1="120.2" x2="213.1" y2="160.2" stroke="rgb(0,0,0)"  stroke-width="1.0"/>
<line x1="213.1" y1="160.2" x2="178.4" y2="180.2" stroke="rgb(0,0,0)"  stroke-width="1.0"/>
<line x1="204.3" y1="157.0" x2="180.0" y2="171.0" stroke="rgb(0,0,0)"  stroke-width="1.0"/>
<line x1="259.0" y1="173.7" x2="282.4" y2="160.2" stroke="rgb(0,0,0)"  stroke-width="1.0"/>
<line x1="282.4" y1="160.2" x2="317.0" y2="180.2" stroke="rgb(0,0,0)"  stroke-width="1.0"/>
<line x1="317.0" y1="180.2" x2="317.0" y2="207.2" stroke="rgb(0,0,0)"  stroke-width="1.0"/>
<line x1="305.7" y1="226.7" x2="282.4" y2="240.2" stroke="rgb(0,0,0)"  stroke-width="1.0"/>
<line x1="282.4" y1="240.2" x2="247.7" y2="220.2" stroke="rgb(0,0,0)"  stroke-width="1.0"/>
<line x1="247.7" y1="220.2" x2="247.7" y2="193.2" stroke="rgb(0,0,0)"  stroke-width="1.0"/>
<text x="137.845436" y="128.207835" fill="rgb(12,12,255)"  stroke="rgb(12,12,255)" stroke-width="1" font-size="16" >N</text>
<text x="172.392699" y="108.206788" fill="rgb(12,12,255)"  stroke="rgb(12,12,255)" stroke-width="1" font-size="16" >N</text>
<text x="241.686023" y="188.210976" fill="rgb(12,12,255)"  stroke="rgb(12,12,255)" stroke-width="1" font-size="16" >N</text>
<text x="310.984196" y="228.213070" fill="rgb(12,12,255)"  stroke="rgb(12,12,255)" stroke-width="1" font-size="16" >N</text>
<text x="380.282369" y="388.221446" fill="rgb(102,102,102)"  stroke="rgb(102,102,102)" stroke-width="1" font-size="16" >CH</text>
<text x="103.298173" y="188.210976" fill="rgb(255,12,12)"  stroke="rgb(255,12,12)" stroke-width="1" font-size="16" >O</text>
<text x="172.392699" y="228.213070" fill="rgb(30,239,30)"  stroke="rgb(30,239,30)" stroke-width="1" font-size="16" >Cl</text>
<text x="380.282369" y="228.213070" fill="rgb(255,12,12)"  stroke="rgb(255,12,12)" stroke-width="1" font-size="16" >O</text>
<text x="333.735106" y="288.216211" fill="rgb(12,12,255)"  stroke="rgb(12,12,255)" stroke-width="1" font-size="16" >HN</text>
<text font-size="18.000000" fill ="black" font-family="sans-serif"
x="10.000000" y="20.000000" ></text>
<title> - OBDepict</title>
</svg>
