<?xml version="1.0"?>
<svg xmlns="http://www.w3.org/2000/svg"
xmlns:xlink="http://www.w3.org/1999/xlink" xmlns:cml="http://www.xml-cml.org/schema" width="437.546" height="282.526" x="0" y="0" font-family="sans-serif" stroke="rgb(0,0,0)" stroke-width="1"  stroke-linecap="round">
<rect x="0%" y="0%" width="100%" height="100%" stroke-width="0" fill="rgb(255,255,255)"  />
<line x1="250.0" y1="79.9" x2="284.5" y2="99.9" stroke="rgb(0,0,0)"  stroke-width="1.0"/>
<line x1="247.0" y1="85.1" x2="281.5" y2="105.1" stroke="rgb(0,0,0)"  stroke-width="1.0"/>
<line x1="213.5" y1="102.5" x2="248.5" y2="82.5" stroke="rgb(0,0,0)"  stroke-width="1.0"/>
<line x1="74.7" y1="223.0" x2="109.3" y2="203.0" stroke="rgb(0,0,0)"  stroke-width="1.0"/>
<line x1="51.5" y1="236.1" x2="74.7" y2="223.0" stroke="rgb(0,0,0)"  stroke-width="1.0"/>
<line x1="49.4" y1="232.5" x2="72.6" y2="219.4" stroke="rgb(0,0,0)"  stroke-width="1.0"/>
<line x1="53.5" y1="239.8" x2="76.7" y2="226.7" stroke="rgb(0,0,0)"  stroke-width="1.0"/>
<line x1="264.9" y1="158.3" x2="285.2" y2="140.3" stroke="rgb(0,0,0)"  stroke-width="1.0"/>
<line x1="268.9" y1="162.8" x2="289.2" y2="144.8" stroke="rgb(0,0,0)"  stroke-width="1.0"/>
<line x1="179.0" y1="189.9" x2="179.0" y2="162.8" stroke="rgb(0,0,0)"  stroke-width="1.0"/>
<line x1="120.6" y1="156.5" x2="144.2" y2="143.0" stroke="rgb(0,0,0)"  stroke-width="1.0"/>
<line x1="120.7" y1="89.2" x2="144.2" y2="102.5" stroke="rgb(0,0,0)"  stroke-width="1.0"/>
<line x1="109.3" y1="203.0" x2="109.3" y2="176.0" stroke="rgb(0,0,0)"  stroke-width="1.0"/>
<line x1="74.5" y1="102.5" x2="98.0" y2="89.2" stroke="rgb(0,0,0)"  stroke-width="1.0"/>
<line x1="51.3" y1="89.4" x2="74.5" y2="102.5" stroke="rgb(0,0,0)"  stroke-width="1.0"/>
<line x1="287.2" y1="142.5" x2="313.5" y2="148.0" stroke="rgb(0,0,0)"  stroke-width="1.0"/>
<line x1="332.7" y1="139.4" x2="346.2" y2="115.8" stroke="rgb(0,0,0)"  stroke-width="1.0"/>
<line x1="346.2" y1="115.8" x2="319.5" y2="86.2" stroke="rgb(0,0,0)"  stroke-width="1.0"/>
<line x1="336.8" y1="116.2" x2="318.2" y2="95.4" stroke="rgb(0,0,0)"  stroke-width="1.0"/>
<line x1="319.5" y1="86.2" x2="283.0" y2="102.5" stroke="rgb(0,0,0)"  stroke-width="1.0"/>
<line x1="283.0" y1="102.5" x2="287.2" y2="142.5" stroke="rgb(0,0,0)"  stroke-width="1.0"/>
<line x1="179.0" y1="162.8" x2="144.2" y2="143.0" stroke="rgb(0,0,0)"  stroke-width="1.0"/>
<line x1="144.2" y1="143.0" x2="144.2" y2="102.5" stroke="rgb(0,0,0)"  stroke-width="1.0"/>
<line x1="151.4" y1="137.0" x2="151.4" y2="108.5" stroke="rgb(0,0,0)"  stroke-width="1.0"/>
<line x1="144.2" y1="102.5" x2="178.9" y2="82.5" stroke="rgb(0,0,0)"  stroke-width="1.0"/>
<line x1="178.9" y1="82.5" x2="213.5" y2="102.5" stroke="rgb(0,0,0)"  stroke-width="1.0"/>
<line x1="180.5" y1="91.7" x2="204.7" y2="105.7" stroke="rgb(0,0,0)"  stroke-width="1.0"/>
<line x1="213.5" y1="102.5" x2="213.5" y2="142.8" stroke="rgb(0,0,0)"  stroke-width="1.0"/>
<line x1="213.5" y1="142.8" x2="179.0" y2="162.8" stroke="rgb(0,0,0)"  stroke-width="1.0"/>
<line x1="204.7" y1="139.6" x2="180.6" y2="153.6" stroke="rgb(0,0,0)"  stroke-width="1.0"/>
<line x1="346.2" y1="115.8" x2="385.0" y2="107.7" stroke="rgb(0,0,0)"  stroke-width="1.0"/>
<line x1="385.0" y1="107.7" x2="397.5" y2="69.7" stroke="rgb(0,0,0)"  stroke-width="1.0"/>
<line x1="380.1" y1="99.7" x2="388.8" y2="73.1" stroke="rgb(0,0,0)"  stroke-width="1.0"/>
<line x1="397.5" y1="69.7" x2="370.5" y2="40.0" stroke="rgb(0,0,0)"  stroke-width="1.0"/>
<line x1="370.5" y1="40.0" x2="331.7" y2="48.5" stroke="rgb(0,0,0)"  stroke-width="1.0"/>
<line x1="366.2" y1="48.3" x2="339.1" y2="54.3" stroke="rgb(0,0,0)"  stroke-width="1.0"/>
<line x1="331.7" y1="48.5" x2="319.5" y2="86.2" stroke="rgb(0,0,0)"  stroke-width="1.0"/>
<text x="320.199624" y="158.680731" fill="rgb(12,12,255)"  stroke="rgb(12,12,255)" stroke-width="1" font-size="16" >N</text>
<text x="320.199624" y="174.680731" fill="rgb(12,12,255)"  stroke="rgb(12,12,255)" stroke-width="1" font-size="16" >H</text>
<text x="22.164884" y="250.525903" fill="rgb(102,102,102)"  stroke="rgb(102,102,102)" stroke-width="1" font-size="16" >HC</text>
<text x="251.190870" y="177.181673" fill="rgb(255,12,12)"  stroke="rgb(255,12,12)" stroke-width="1" font-size="16" >O</text>
<text x="173.016511" y="210.851931" fill="rgb(147,0,147)"  stroke="rgb(147,0,147)" stroke-width="1" font-size="16" >I</text>
<text x="103.338522" y="171.017925" fill="rgb(255,12,12)"  stroke="rgb(255,12,12)" stroke-width="1" font-size="16" >O</text>
<text x="103.338522" y="90.835863" fill="rgb(255,12,12)"  stroke="rgb(255,12,12)" stroke-width="1" font-size="16" >O</text>
<text x="14.000000" y="91.005596" fill="rgb(102,102,102)"  stroke="rgb(102,102,102)" stroke-width="1" font-size="16" >H</text>
<text x="26.000000" y="94.685596" fill="rgb(102,102,102)"  stroke="rgb(102,102,102)" stroke-width="1" font-size="13" >3</text>
<text x="32.500000" y="91.005596" fill="rgb(102,102,102)"  stroke="rgb(102,102,102)" stroke-width="1" font-size="16" >C</text>
<text font-size="18.000000" fill ="black" font-family="sans-serif"
x="10.000000" y="20.000000" ></text>
<title> - OBDepict</title>
</svg>
