<?xml version="1.0"?>
<svg xmlns="http://www.w3.org/2000/svg"
xmlns:xlink="http://www.w3.org/1999/xlink" xmlns:cml="http://www.xml-cml.org/schema" width="405.335" height="433.058" x="0" y="0" font-family="sans-serif" stroke="rgb(0,0,0)" stroke-width="1"  stroke-linecap="round">
<rect x="0%" y="0%" width="100%" height="100%" stroke-width="0" fill="rgb(255,255,255)"  />
<line x1="201.2" y1="313.2" x2="162.9" y2="325.5" stroke="rgb(0,0,0)"  stroke-width="1.0"/>
<line x1="199.3" y1="307.5" x2="161.1" y2="319.8" stroke="rgb(0,0,0)"  stroke-width="1.0"/>
<line x1="50.7" y1="271.1" x2="59.2" y2="310.3" stroke="rgb(0,0,0)"  stroke-width="1.0"/>
<line x1="43.5" y1="244.7" x2="50.7" y2="271.1" stroke="rgb(0,0,0)"  stroke-width="1.0"/>
<line x1="47.5" y1="243.6" x2="54.8" y2="269.9" stroke="rgb(0,0,0)"  stroke-width="1.0"/>
<line x1="39.4" y1="245.9" x2="46.7" y2="272.2" stroke="rgb(0,0,0)"  stroke-width="1.0"/>
<line x1="91.2" y1="380.8" x2="107.2" y2="359.1" stroke="rgb(0,0,0)"  stroke-width="1.0"/>
<line x1="96.0" y1="384.4" x2="112.0" y2="362.7" stroke="rgb(0,0,0)"  stroke-width="1.0"/>
<line x1="132.4" y1="271.9" x2="132.6" y2="298.9" stroke="rgb(0,0,0)"  stroke-width="1.0"/>
<line x1="126.4" y1="271.9" x2="126.6" y2="299.0" stroke="rgb(0,0,0)"  stroke-width="1.0"/>
<line x1="208.5" y1="270.9" x2="200.2" y2="310.3" stroke="rgb(0,0,0)"  stroke-width="1.0"/>
<line x1="281.0" y1="102.3" x2="271.9" y2="141.8" stroke="rgb(0,0,0)"  stroke-width="1.0"/>
<line x1="59.2" y1="310.3" x2="84.7" y2="318.6" stroke="rgb(0,0,0)"  stroke-width="1.0"/>
<line x1="231.4" y1="166.4" x2="225.5" y2="192.6" stroke="rgb(0,0,0)"  stroke-width="1.0"/>
<line x1="262.9" y1="82.2" x2="283.0" y2="100.1" stroke="rgb(0,0,0)"  stroke-width="1.0"/>
<line x1="258.9" y1="86.7" x2="279.0" y2="104.6" stroke="rgb(0,0,0)"  stroke-width="1.0"/>
<line x1="271.9" y1="141.8" x2="246.6" y2="149.8" stroke="rgb(0,0,0)"  stroke-width="1.0"/>
<line x1="280.5" y1="211.3" x2="254.9" y2="219.5" stroke="rgb(0,0,0)"  stroke-width="1.0"/>
<line x1="306.6" y1="94.1" x2="281.0" y2="102.3" stroke="rgb(0,0,0)"  stroke-width="1.0"/>
<line x1="327.7" y1="51.5" x2="321.9" y2="77.5" stroke="rgb(0,0,0)"  stroke-width="1.0"/>
<line x1="352.9" y1="43.8" x2="327.7" y2="51.5" stroke="rgb(0,0,0)"  stroke-width="1.0"/>
<line x1="107.6" y1="315.0" x2="129.6" y2="299.0" stroke="rgb(0,0,0)"  stroke-width="1.0"/>
<line x1="129.6" y1="299.0" x2="162.0" y2="322.6" stroke="rgb(0,0,0)"  stroke-width="1.0"/>
<line x1="162.0" y1="322.6" x2="153.6" y2="348.5" stroke="rgb(0,0,0)"  stroke-width="1.0"/>
<line x1="136.7" y1="360.9" x2="109.6" y2="360.9" stroke="rgb(0,0,0)"  stroke-width="1.0"/>
<line x1="109.6" y1="360.9" x2="101.1" y2="335.0" stroke="rgb(0,0,0)"  stroke-width="1.0"/>
<line x1="254.9" y1="219.5" x2="225.5" y2="192.6" stroke="rgb(0,0,0)"  stroke-width="1.0"/>
<line x1="225.5" y1="192.6" x2="187.3" y2="204.7" stroke="rgb(0,0,0)"  stroke-width="1.0"/>
<line x1="222.0" y1="201.2" x2="195.2" y2="209.7" stroke="rgb(0,0,0)"  stroke-width="1.0"/>
<line x1="187.3" y1="204.7" x2="178.8" y2="244.3" stroke="rgb(0,0,0)"  stroke-width="1.0"/>
<line x1="178.8" y1="244.3" x2="208.5" y2="270.9" stroke="rgb(0,0,0)"  stroke-width="1.0"/>
<line x1="188.1" y1="243.0" x2="208.8" y2="261.5" stroke="rgb(0,0,0)"  stroke-width="1.0"/>
<line x1="208.5" y1="270.9" x2="246.4" y2="258.3" stroke="rgb(0,0,0)"  stroke-width="1.0"/>
<line x1="246.4" y1="258.3" x2="254.9" y2="219.5" stroke="rgb(0,0,0)"  stroke-width="1.0"/>
<line x1="240.6" y1="250.9" x2="246.5" y2="223.8" stroke="rgb(0,0,0)"  stroke-width="1.0"/>
<text x="91.055779" y="330.648989" fill="rgb(12,12,255)"  stroke="rgb(12,12,255)" stroke-width="1" font-size="16" >N</text>
<text x="143.653846" y="368.887104" fill="rgb(178,178,0)"  stroke="rgb(178,178,0)" stroke-width="1" font-size="16" >S</text>
<text x="22.000000" y="240.211424" fill="rgb(102,102,102)"  stroke="rgb(102,102,102)" stroke-width="1" font-size="16" >HC</text>
<text x="79.923655" y="401.058455" fill="rgb(255,12,12)"  stroke="rgb(255,12,12)" stroke-width="1" font-size="16" >O</text>
<text x="123.222268" y="266.918798" fill="rgb(255,12,12)"  stroke="rgb(255,12,12)" stroke-width="1" font-size="16" >O</text>
<text x="228.228817" y="161.708078" fill="rgb(255,12,12)"  stroke="rgb(255,12,12)" stroke-width="1" font-size="16" >O</text>
<text x="245.223535" y="83.812381" fill="rgb(255,12,12)"  stroke="rgb(255,12,12)" stroke-width="1" font-size="16" >O</text>
<text x="286.903372" y="215.322135" fill="rgb(165,40,40)"  stroke="rgb(165,40,40)" stroke-width="1" font-size="16" >Br</text>
<text x="313.003097" y="98.177196" fill="rgb(255,12,12)"  stroke="rgb(255,12,12)" stroke-width="1" font-size="16" >O</text>
<text x="361.335092" y="48.000000" fill="rgb(102,102,102)"  stroke="rgb(102,102,102)" stroke-width="1" font-size="16" >CH</text>
<text x="385.335092" y="51.680000" fill="rgb(102,102,102)"  stroke="rgb(102,102,102)" stroke-width="1" font-size="13" >3</text>
<text font-size="18.000000" fill ="black" font-family="sans-serif"
x="10.000000" y="20.000000" ></text>
<title> - OBDepict</title>
</svg>
