<?xml version="1.0"?>
<svg xmlns="http://www.w3.org/2000/svg"
xmlns:xlink="http://www.w3.org/1999/xlink" xmlns:cml="http://www.xml-cml.org/schema" width="258.473" height="580.054" x="0" y="0" font-family="sans-serif" stroke="rgb(0,0,0)" stroke-width="1"  stroke-linecap="round">
<rect x="0%" y="0%" width="100%" height="100%" stroke-width="0" fill="rgb(255,255,255)"  />
<line x1="80.0" y1="340.0" x2="80.0" y2="299.9" stroke="rgb(0,0,0)"  stroke-width="1.0"/>
<line x1="80.0" y1="219.9" x2="80.0" y2="192.9" stroke="rgb(0,0,0)"  stroke-width="1.0"/>
<line x1="103.3" y1="353.4" x2="80.0" y2="340.0" stroke="rgb(0,0,0)"  stroke-width="1.0"/>
<line x1="114.6" y1="80.0" x2="114.6" y2="119.8" stroke="rgb(0,0,0)"  stroke-width="1.0"/>
<line x1="114.6" y1="53.0" x2="114.6" y2="80.0" stroke="rgb(0,0,0)"  stroke-width="1.0"/>
<line x1="118.8" y1="53.0" x2="118.8" y2="80.0" stroke="rgb(0,0,0)"  stroke-width="1.0"/>
<line x1="110.4" y1="53.0" x2="110.4" y2="80.0" stroke="rgb(0,0,0)"  stroke-width="1.0"/>
<line x1="53.0" y1="176.9" x2="67.0" y2="176.9" stroke="rgb(0,0,0)"  stroke-width="1.0"/>
<line x1="53.0" y1="182.9" x2="67.0" y2="182.9" stroke="rgb(0,0,0)"  stroke-width="1.0"/>
<line x1="107.0" y1="182.9" x2="93.0" y2="182.9" stroke="rgb(0,0,0)"  stroke-width="1.0"/>
<line x1="107.0" y1="176.9" x2="93.0" y2="176.9" stroke="rgb(0,0,0)"  stroke-width="1.0"/>
<line x1="80.0" y1="152.8" x2="80.0" y2="166.9" stroke="rgb(0,0,0)"  stroke-width="1.0"/>
<line x1="55.0" y1="350.9" x2="78.5" y2="337.4" stroke="rgb(0,0,0)"  stroke-width="1.0"/>
<line x1="58.0" y1="356.1" x2="81.5" y2="342.6" stroke="rgb(0,0,0)"  stroke-width="1.0"/>
<line x1="114.6" y1="119.8" x2="91.3" y2="133.3" stroke="rgb(0,0,0)"  stroke-width="1.0"/>
<line x1="114.6" y1="400.0" x2="114.6" y2="373.0" stroke="rgb(0,0,0)"  stroke-width="1.0"/>
<line x1="149.3" y1="460.0" x2="149.3" y2="420.0" stroke="rgb(0,0,0)"  stroke-width="1.0"/>
<line x1="149.3" y1="420.0" x2="114.6" y2="400.0" stroke="rgb(0,0,0)"  stroke-width="1.0"/>
<line x1="183.9" y1="480.0" x2="149.3" y2="460.0" stroke="rgb(0,0,0)"  stroke-width="1.0"/>
<line x1="183.9" y1="520.0" x2="183.9" y2="480.0" stroke="rgb(0,0,0)"  stroke-width="1.0"/>
<line x1="91.3" y1="413.5" x2="114.6" y2="400.0" stroke="rgb(0,0,0)"  stroke-width="1.0"/>
<line x1="207.2" y1="533.5" x2="183.9" y2="520.0" stroke="rgb(0,0,0)"  stroke-width="1.0"/>
<line x1="160.6" y1="533.5" x2="183.9" y2="520.0" stroke="rgb(0,0,0)"  stroke-width="1.0"/>
<line x1="80.0" y1="219.9" x2="114.6" y2="239.9" stroke="rgb(0,0,0)"  stroke-width="1.0"/>
<line x1="114.6" y1="239.9" x2="114.6" y2="279.9" stroke="rgb(0,0,0)"  stroke-width="1.0"/>
<line x1="107.4" y1="245.9" x2="107.4" y2="273.9" stroke="rgb(0,0,0)"  stroke-width="1.0"/>
<line x1="114.6" y1="279.9" x2="80.0" y2="299.9" stroke="rgb(0,0,0)"  stroke-width="1.0"/>
<line x1="80.0" y1="299.9" x2="45.3" y2="279.9" stroke="rgb(0,0,0)"  stroke-width="1.0"/>
<line x1="78.4" y1="290.7" x2="54.0" y2="276.7" stroke="rgb(0,0,0)"  stroke-width="1.0"/>
<line x1="45.3" y1="279.9" x2="45.3" y2="239.9" stroke="rgb(0,0,0)"  stroke-width="1.0"/>
<line x1="45.3" y1="239.9" x2="80.0" y2="219.9" stroke="rgb(0,0,0)"  stroke-width="1.0"/>
<line x1="54.0" y1="243.1" x2="78.4" y2="229.1" stroke="rgb(0,0,0)"  stroke-width="1.0"/>
<text x="74.020642" y="187.868506" fill="rgb(178,178,0)"  stroke="rgb(178,178,0)" stroke-width="1" font-size="16" >S</text>
<text x="108.583924" y="367.961394" fill="rgb(12,12,255)"  stroke="rgb(12,12,255)" stroke-width="1" font-size="16" >NH</text>
<text x="108.583924" y="48.000000" fill="rgb(102,102,102)"  stroke="rgb(102,102,102)" stroke-width="1" font-size="16" >CH</text>
<text x="34.000000" y="187.868506" fill="rgb(255,12,12)"  stroke="rgb(255,12,12)" stroke-width="1" font-size="16" >O</text>
<text x="114.041284" y="187.868506" fill="rgb(255,12,12)"  stroke="rgb(255,12,12)" stroke-width="1" font-size="16" >O</text>
<text x="62.020642" y="147.847864" fill="rgb(12,12,255)"  stroke="rgb(12,12,255)" stroke-width="1" font-size="16" >HN</text>
<text x="39.253619" y="367.961394" fill="rgb(255,12,12)"  stroke="rgb(255,12,12)" stroke-width="1" font-size="16" >O</text>
<text x="54.020642" y="427.992357" fill="rgb(102,102,102)"  stroke="rgb(102,102,102)" stroke-width="1" font-size="16" >H</text>
<text x="66.020642" y="431.672357" fill="rgb(102,102,102)"  stroke="rgb(102,102,102)" stroke-width="1" font-size="13" >3</text>
<text x="72.520642" y="427.992357" fill="rgb(102,102,102)"  stroke="rgb(102,102,102)" stroke-width="1" font-size="16" >C</text>
<text x="214.472659" y="548.054283" fill="rgb(102,102,102)"  stroke="rgb(102,102,102)" stroke-width="1" font-size="16" >CH</text>
<text x="238.472659" y="551.734283" fill="rgb(102,102,102)"  stroke="rgb(102,102,102)" stroke-width="1" font-size="13" >3</text>
<text x="123.346096" y="548.054283" fill="rgb(102,102,102)"  stroke="rgb(102,102,102)" stroke-width="1" font-size="16" >H</text>
<text x="135.346096" y="551.734283" fill="rgb(102,102,102)"  stroke="rgb(102,102,102)" stroke-width="1" font-size="13" >3</text>
<text x="141.846096" y="548.054283" fill="rgb(102,102,102)"  stroke="rgb(102,102,102)" stroke-width="1" font-size="16" >C</text>
<text font-size="18.000000" fill ="black" font-family="sans-serif"
x="10.000000" y="20.000000" ></text>
<title> - OBDepict</title>
</svg>
