<?xml version="1.0"?>
<svg xmlns="http://www.w3.org/2000/svg"
xmlns:xlink="http://www.w3.org/1999/xlink" xmlns:cml="http://www.xml-cml.org/schema" width="316.045" height="279.639" x="0" y="0" font-family="sans-serif" stroke="rgb(0,0,0)" stroke-width="1"  stroke-linecap="round">
<rect x="0%" y="0%" width="100%" height="100%" stroke-width="0" fill="rgb(255,255,255)"  />
<line x1="201.1" y1="159.8" x2="162.9" y2="172.1" stroke="rgb(0,0,0)"  stroke-width="1.0"/>
<line x1="199.3" y1="154.1" x2="161.0" y2="166.4" stroke="rgb(0,0,0)"  stroke-width="1.0"/>
<line x1="50.7" y1="117.7" x2="59.2" y2="156.9" stroke="rgb(0,0,0)"  stroke-width="1.0"/>
<line x1="208.7" y1="117.7" x2="200.2" y2="156.9" stroke="rgb(0,0,0)"  stroke-width="1.0"/>
<line x1="43.5" y1="91.4" x2="50.7" y2="117.7" stroke="rgb(0,0,0)"  stroke-width="1.0"/>
<line x1="47.5" y1="90.2" x2="54.8" y2="116.6" stroke="rgb(0,0,0)"  stroke-width="1.0"/>
<line x1="39.4" y1="92.5" x2="46.7" y2="118.8" stroke="rgb(0,0,0)"  stroke-width="1.0"/>
<line x1="91.2" y1="227.4" x2="107.2" y2="205.7" stroke="rgb(0,0,0)"  stroke-width="1.0"/>
<line x1="96.0" y1="230.9" x2="112.0" y2="209.3" stroke="rgb(0,0,0)"  stroke-width="1.0"/>
<line x1="132.3" y1="118.5" x2="132.6" y2="145.6" stroke="rgb(0,0,0)"  stroke-width="1.0"/>
<line x1="126.3" y1="118.6" x2="126.6" y2="145.6" stroke="rgb(0,0,0)"  stroke-width="1.0"/>
<line x1="59.2" y1="156.9" x2="84.7" y2="165.2" stroke="rgb(0,0,0)"  stroke-width="1.0"/>
<line x1="266.4" y1="123.5" x2="246.3" y2="105.5" stroke="rgb(0,0,0)"  stroke-width="1.0"/>
<line x1="107.6" y1="161.6" x2="129.6" y2="145.6" stroke="rgb(0,0,0)"  stroke-width="1.0"/>
<line x1="129.6" y1="145.6" x2="162.0" y2="169.2" stroke="rgb(0,0,0)"  stroke-width="1.0"/>
<line x1="162.0" y1="169.2" x2="153.6" y2="195.1" stroke="rgb(0,0,0)"  stroke-width="1.0"/>
<line x1="136.6" y1="207.5" x2="109.6" y2="207.5" stroke="rgb(0,0,0)"  stroke-width="1.0"/>
<line x1="109.6" y1="207.5" x2="101.1" y2="181.6" stroke="rgb(0,0,0)"  stroke-width="1.0"/>
<line x1="208.7" y1="117.7" x2="246.3" y2="105.5" stroke="rgb(0,0,0)"  stroke-width="1.0"/>
<line x1="246.3" y1="105.5" x2="254.8" y2="66.7" stroke="rgb(0,0,0)"  stroke-width="1.0"/>
<line x1="240.6" y1="98.1" x2="246.5" y2="71.0" stroke="rgb(0,0,0)"  stroke-width="1.0"/>
<line x1="254.8" y1="66.7" x2="225.5" y2="40.0" stroke="rgb(0,0,0)"  stroke-width="1.0"/>
<line x1="225.5" y1="40.0" x2="187.5" y2="51.9" stroke="rgb(0,0,0)"  stroke-width="1.0"/>
<line x1="221.9" y1="48.7" x2="195.3" y2="57.0" stroke="rgb(0,0,0)"  stroke-width="1.0"/>
<line x1="187.5" y1="51.9" x2="179.0" y2="91.0" stroke="rgb(0,0,0)"  stroke-width="1.0"/>
<line x1="179.0" y1="91.0" x2="208.7" y2="117.7" stroke="rgb(0,0,0)"  stroke-width="1.0"/>
<line x1="188.2" y1="89.6" x2="209.0" y2="108.3" stroke="rgb(0,0,0)"  stroke-width="1.0"/>
<text x="91.036248" y="177.248255" fill="rgb(12,12,255)"  stroke="rgb(12,12,255)" stroke-width="1" font-size="16" >N</text>
<text x="143.625848" y="215.475861" fill="rgb(178,178,0)"  stroke="rgb(178,178,0)" stroke-width="1" font-size="16" >S</text>
<text x="22.000000" y="86.833087" fill="rgb(102,102,102)"  stroke="rgb(102,102,102)" stroke-width="1" font-size="16" >HC</text>
<text x="79.909941" y="247.638977" fill="rgb(255,12,12)"  stroke="rgb(255,12,12)" stroke-width="1" font-size="16" >O</text>
<text x="123.199363" y="113.532348" fill="rgb(255,12,12)"  stroke="rgb(255,12,12)" stroke-width="1" font-size="16" >O</text>
<text x="270.045298" y="140.231609" fill="rgb(127,178,255)"  stroke="rgb(127,178,255)" stroke-width="1" font-size="16" >F</text>
<text font-size="18.000000" fill ="black" font-family="sans-serif"
x="10.000000" y="20.000000" ></text>
<title> - OBDepict</title>
</svg>
