<?xml version="1.0"?>
<svg xmlns="http://www.w3.org/2000/svg"
xmlns:xlink="http://www.w3.org/1999/xlink" xmlns:cml="http://www.xml-cml.org/schema" width="356.925" height="320.402" x="0" y="0" font-family="sans-serif" stroke="rgb(0,0,0)" stroke-width="1"  stroke-linecap="round">
<rect x="0%" y="0%" width="100%" height="100%" stroke-width="0" fill="rgb(255,255,255)"  />
<line x1="247.7" y1="200.2" x2="247.7" y2="160.1" stroke="rgb(0,0,0)"  stroke-width="1.0"/>
<line x1="175.5" y1="199.8" x2="175.5" y2="172.8" stroke="rgb(0,0,0)"  stroke-width="1.0"/>
<line x1="181.5" y1="199.8" x2="181.5" y2="172.8" stroke="rgb(0,0,0)"  stroke-width="1.0"/>
<line x1="283.9" y1="257.4" x2="307.2" y2="270.8" stroke="rgb(0,0,0)"  stroke-width="1.0"/>
<line x1="280.9" y1="262.6" x2="304.2" y2="276.0" stroke="rgb(0,0,0)"  stroke-width="1.0"/>
<line x1="282.4" y1="100.1" x2="305.7" y2="86.6" stroke="rgb(0,0,0)"  stroke-width="1.0"/>
<line x1="144.4" y1="260.3" x2="120.6" y2="273.9" stroke="rgb(0,0,0)"  stroke-width="1.0"/>
<line x1="247.6" y1="80.2" x2="247.3" y2="53.0" stroke="rgb(0,0,0)"  stroke-width="1.0"/>
<line x1="98.1" y1="273.9" x2="74.7" y2="260.3" stroke="rgb(0,0,0)"  stroke-width="1.0"/>
<line x1="74.7" y1="260.3" x2="74.7" y2="220.3" stroke="rgb(0,0,0)"  stroke-width="1.0"/>
<line x1="74.7" y1="220.3" x2="51.2" y2="206.7" stroke="rgb(0,0,0)"  stroke-width="1.0"/>
<line x1="72.6" y1="223.9" x2="49.1" y2="210.3" stroke="rgb(0,0,0)"  stroke-width="1.0"/>
<line x1="76.8" y1="216.6" x2="53.4" y2="203.0" stroke="rgb(0,0,0)"  stroke-width="1.0"/>
<line x1="247.7" y1="200.2" x2="282.4" y2="219.8" stroke="rgb(0,0,0)"  stroke-width="1.0"/>
<line x1="282.4" y1="219.8" x2="282.4" y2="260.0" stroke="rgb(0,0,0)"  stroke-width="1.0"/>
<line x1="282.4" y1="260.0" x2="259.0" y2="273.4" stroke="rgb(0,0,0)"  stroke-width="1.0"/>
<line x1="236.5" y1="273.4" x2="213.2" y2="260.0" stroke="rgb(0,0,0)"  stroke-width="1.0"/>
<line x1="213.2" y1="260.0" x2="213.2" y2="220.3" stroke="rgb(0,0,0)"  stroke-width="1.0"/>
<line x1="220.4" y1="254.0" x2="220.4" y2="226.3" stroke="rgb(0,0,0)"  stroke-width="1.0"/>
<line x1="213.2" y1="220.3" x2="247.7" y2="200.2" stroke="rgb(0,0,0)"  stroke-width="1.0"/>
<line x1="213.2" y1="220.3" x2="178.5" y2="199.8" stroke="rgb(0,0,0)"  stroke-width="1.0"/>
<line x1="178.5" y1="199.8" x2="155.5" y2="213.6" stroke="rgb(0,0,0)"  stroke-width="1.0"/>
<line x1="144.4" y1="233.3" x2="144.4" y2="260.3" stroke="rgb(0,0,0)"  stroke-width="1.0"/>
<line x1="144.4" y1="260.3" x2="167.3" y2="273.4" stroke="rgb(0,0,0)"  stroke-width="1.0"/>
<line x1="153.2" y1="257.0" x2="169.1" y2="266.2" stroke="rgb(0,0,0)"  stroke-width="1.0"/>
<line x1="189.8" y1="273.4" x2="213.2" y2="260.0" stroke="rgb(0,0,0)"  stroke-width="1.0"/>
<line x1="247.7" y1="160.1" x2="213.2" y2="140.3" stroke="rgb(0,0,0)"  stroke-width="1.0"/>
<line x1="213.2" y1="140.3" x2="212.6" y2="100.6" stroke="rgb(0,0,0)"  stroke-width="1.0"/>
<line x1="220.3" y1="134.2" x2="219.9" y2="106.5" stroke="rgb(0,0,0)"  stroke-width="1.0"/>
<line x1="212.6" y1="100.6" x2="247.6" y2="80.2" stroke="rgb(0,0,0)"  stroke-width="1.0"/>
<line x1="247.6" y1="80.2" x2="282.4" y2="100.1" stroke="rgb(0,0,0)"  stroke-width="1.0"/>
<line x1="249.2" y1="89.4" x2="273.6" y2="103.4" stroke="rgb(0,0,0)"  stroke-width="1.0"/>
<line x1="282.4" y1="100.1" x2="282.4" y2="140.3" stroke="rgb(0,0,0)"  stroke-width="1.0"/>
<line x1="282.4" y1="140.3" x2="247.7" y2="160.1" stroke="rgb(0,0,0)"  stroke-width="1.0"/>
<line x1="273.6" y1="137.1" x2="249.4" y2="150.9" stroke="rgb(0,0,0)"  stroke-width="1.0"/>
<text x="172.547413" y="287.891965" fill="rgb(12,12,255)"  stroke="rgb(12,12,255)" stroke-width="1" font-size="16" >N</text>
<text x="241.731339" y="287.891965" fill="rgb(12,12,255)"  stroke="rgb(12,12,255)" stroke-width="1" font-size="16" >N</text>
<text x="241.731339" y="303.891965" fill="rgb(12,12,255)"  stroke="rgb(12,12,255)" stroke-width="1" font-size="16" >H</text>
<text x="126.367952" y="228.253828" fill="rgb(12,12,255)"  stroke="rgb(12,12,255)" stroke-width="1" font-size="16" >HN</text>
<text x="172.547413" y="167.776128" fill="rgb(255,12,12)"  stroke="rgb(255,12,12)" stroke-width="1" font-size="16" >O</text>
<text x="310.924971" y="287.891965" fill="rgb(255,12,12)"  stroke="rgb(255,12,12)" stroke-width="1" font-size="16" >O</text>
<text x="310.924971" y="88.036994" fill="rgb(30,239,30)"  stroke="rgb(30,239,30)" stroke-width="1" font-size="16" >Cl</text>
<text x="103.358633" y="288.401526" fill="rgb(178,178,0)"  stroke="rgb(178,178,0)" stroke-width="1" font-size="16" >S</text>
<text x="229.231483" y="48.000000" fill="rgb(30,239,30)"  stroke="rgb(30,239,30)" stroke-width="1" font-size="16" >Cl</text>
<text x="22.000000" y="208.152831" fill="rgb(102,102,102)"  stroke="rgb(102,102,102)" stroke-width="1" font-size="16" >HC</text>
<text font-size="18.000000" fill ="black" font-family="sans-serif"
x="10.000000" y="20.000000" ></text>
<title> - OBDepict</title>
</svg>
