<?xml version="1.0"?>
<svg xmlns="http://www.w3.org/2000/svg"
xmlns:xlink="http://www.w3.org/1999/xlink" xmlns:cml="http://www.xml-cml.org/schema" width="435.864" height="395.852" x="0" y="0" font-family="sans-serif" stroke="rgb(0,0,0)" stroke-width="1"  stroke-linecap="round">
<rect x="0%" y="0%" width="100%" height="100%" stroke-width="0" fill="rgb(255,255,255)"  />
<line x1="247.7" y1="240.1" x2="212.8" y2="220.1" stroke="rgb(0,0,0)"  stroke-width="1.0"/>
<line x1="209.8" y1="220.1" x2="209.8" y2="180.0" stroke="rgb(0,0,0)"  stroke-width="1.0"/>
<line x1="215.8" y1="220.1" x2="215.8" y2="180.0" stroke="rgb(0,0,0)"  stroke-width="1.0"/>
<line x1="143.7" y1="100.4" x2="167.3" y2="114.0" stroke="rgb(0,0,0)"  stroke-width="1.0"/>
<line x1="374.0" y1="281.9" x2="351.0" y2="249.6" stroke="rgb(0,0,0)"  stroke-width="1.0"/>
<line x1="215.8" y1="73.0" x2="215.8" y2="100.0" stroke="rgb(0,0,0)"  stroke-width="1.0"/>
<line x1="209.8" y1="73.0" x2="209.8" y2="100.0" stroke="rgb(0,0,0)"  stroke-width="1.0"/>
<line x1="388.8" y1="304.7" x2="374.0" y2="281.9" stroke="rgb(0,0,0)"  stroke-width="1.0"/>
<line x1="385.3" y1="307.0" x2="370.5" y2="284.2" stroke="rgb(0,0,0)"  stroke-width="1.0"/>
<line x1="392.3" y1="302.4" x2="377.6" y2="279.6" stroke="rgb(0,0,0)"  stroke-width="1.0"/>
<line x1="153.5" y1="171.4" x2="177.1" y2="157.8" stroke="rgb(0,0,0)"  stroke-width="1.0"/>
<line x1="156.4" y1="176.6" x2="180.1" y2="163.0" stroke="rgb(0,0,0)"  stroke-width="1.0"/>
<line x1="269.5" y1="176.6" x2="245.8" y2="163.0" stroke="rgb(0,0,0)"  stroke-width="1.0"/>
<line x1="272.5" y1="171.4" x2="248.8" y2="157.8" stroke="rgb(0,0,0)"  stroke-width="1.0"/>
<line x1="351.0" y1="249.6" x2="323.9" y2="252.2" stroke="rgb(0,0,0)"  stroke-width="1.0"/>
<line x1="51.3" y1="113.9" x2="74.6" y2="100.4" stroke="rgb(0,0,0)"  stroke-width="1.0"/>
<line x1="51.3" y1="46.5" x2="74.6" y2="60.0" stroke="rgb(0,0,0)"  stroke-width="1.0"/>
<line x1="284.3" y1="223.7" x2="302.3" y2="243.7" stroke="rgb(0,0,0)"  stroke-width="1.0"/>
<line x1="304.5" y1="264.6" x2="291.0" y2="288.0" stroke="rgb(0,0,0)"  stroke-width="1.0"/>
<line x1="291.0" y1="288.0" x2="252.0" y2="279.9" stroke="rgb(0,0,0)"  stroke-width="1.0"/>
<line x1="252.0" y1="279.9" x2="247.7" y2="240.1" stroke="rgb(0,0,0)"  stroke-width="1.0"/>
<line x1="247.7" y1="240.1" x2="284.3" y2="223.7" stroke="rgb(0,0,0)"  stroke-width="1.0"/>
<line x1="256.2" y1="244.2" x2="281.8" y2="232.7" stroke="rgb(0,0,0)"  stroke-width="1.0"/>
<line x1="178.6" y1="133.4" x2="178.6" y2="160.4" stroke="rgb(0,0,0)"  stroke-width="1.0"/>
<line x1="178.6" y1="160.4" x2="212.8" y2="180.0" stroke="rgb(0,0,0)"  stroke-width="1.0"/>
<line x1="212.8" y1="180.0" x2="247.3" y2="160.4" stroke="rgb(0,0,0)"  stroke-width="1.0"/>
<line x1="247.3" y1="160.4" x2="247.3" y2="133.4" stroke="rgb(0,0,0)"  stroke-width="1.0"/>
<line x1="236.1" y1="113.8" x2="212.8" y2="100.0" stroke="rgb(0,0,0)"  stroke-width="1.0"/>
<line x1="212.8" y1="100.0" x2="189.8" y2="113.8" stroke="rgb(0,0,0)"  stroke-width="1.0"/>
<line x1="143.7" y1="100.4" x2="109.1" y2="120.4" stroke="rgb(0,0,0)"  stroke-width="1.0"/>
<line x1="109.1" y1="120.4" x2="74.6" y2="100.4" stroke="rgb(0,0,0)"  stroke-width="1.0"/>
<line x1="107.5" y1="111.2" x2="83.4" y2="97.2" stroke="rgb(0,0,0)"  stroke-width="1.0"/>
<line x1="74.6" y1="100.4" x2="74.6" y2="60.0" stroke="rgb(0,0,0)"  stroke-width="1.0"/>
<line x1="74.6" y1="60.0" x2="109.1" y2="40.4" stroke="rgb(0,0,0)"  stroke-width="1.0"/>
<line x1="83.3" y1="63.3" x2="107.4" y2="49.6" stroke="rgb(0,0,0)"  stroke-width="1.0"/>
<line x1="109.1" y1="40.4" x2="143.7" y2="60.0" stroke="rgb(0,0,0)"  stroke-width="1.0"/>
<line x1="143.7" y1="60.0" x2="143.7" y2="100.4" stroke="rgb(0,0,0)"  stroke-width="1.0"/>
<line x1="136.5" y1="66.0" x2="136.5" y2="94.4" stroke="rgb(0,0,0)"  stroke-width="1.0"/>
<line x1="291.0" y1="288.0" x2="303.1" y2="326.1" stroke="rgb(0,0,0)"  stroke-width="1.0"/>
<line x1="285.9" y1="295.9" x2="294.4" y2="322.6" stroke="rgb(0,0,0)"  stroke-width="1.0"/>
<line x1="303.1" y1="326.1" x2="276.4" y2="355.9" stroke="rgb(0,0,0)"  stroke-width="1.0"/>
<line x1="276.4" y1="355.9" x2="237.4" y2="347.4" stroke="rgb(0,0,0)"  stroke-width="1.0"/>
<line x1="272.1" y1="347.5" x2="244.8" y2="341.6" stroke="rgb(0,0,0)"  stroke-width="1.0"/>
<line x1="237.4" y1="347.4" x2="224.9" y2="309.6" stroke="rgb(0,0,0)"  stroke-width="1.0"/>
<line x1="224.9" y1="309.6" x2="252.0" y2="279.9" stroke="rgb(0,0,0)"  stroke-width="1.0"/>
<line x1="234.3" y1="310.0" x2="253.3" y2="289.2" stroke="rgb(0,0,0)"  stroke-width="1.0"/>
<text x="172.629432" y="128.424721" fill="rgb(12,12,255)"  stroke="rgb(12,12,255)" stroke-width="1" font-size="16" >N</text>
<text x="241.336740" y="128.424721" fill="rgb(12,12,255)"  stroke="rgb(12,12,255)" stroke-width="1" font-size="16" >NH</text>
<text x="304.991186" y="261.396303" fill="rgb(12,12,255)"  stroke="rgb(12,12,255)" stroke-width="1" font-size="16" >N</text>
<text x="206.779810" y="68.003332" fill="rgb(255,12,12)"  stroke="rgb(255,12,12)" stroke-width="1" font-size="16" >O</text>
<text x="389.863781" y="323.632656" fill="rgb(102,102,102)"  stroke="rgb(102,102,102)" stroke-width="1" font-size="16" >CH</text>
<text x="137.670790" y="188.444397" fill="rgb(255,12,12)"  stroke="rgb(255,12,12)" stroke-width="1" font-size="16" >O</text>
<text x="276.295382" y="188.444397" fill="rgb(255,12,12)"  stroke="rgb(255,12,12)" stroke-width="1" font-size="16" >O</text>
<text x="14.000000" y="128.424721" fill="rgb(102,102,102)"  stroke="rgb(102,102,102)" stroke-width="1" font-size="16" >H</text>
<text x="26.000000" y="132.104721" fill="rgb(102,102,102)"  stroke="rgb(102,102,102)" stroke-width="1" font-size="13" >3</text>
<text x="32.500000" y="128.424721" fill="rgb(102,102,102)"  stroke="rgb(102,102,102)" stroke-width="1" font-size="16" >C</text>
<text x="14.000000" y="48.000000" fill="rgb(102,102,102)"  stroke="rgb(102,102,102)" stroke-width="1" font-size="16" >H</text>
<text x="26.000000" y="51.680000" fill="rgb(102,102,102)"  stroke="rgb(102,102,102)" stroke-width="1" font-size="13" >3</text>
<text x="32.500000" y="48.000000" fill="rgb(102,102,102)"  stroke="rgb(102,102,102)" stroke-width="1" font-size="16" >C</text>
<text font-size="18.000000" fill ="black" font-family="sans-serif"
x="10.000000" y="20.000000" ></text>
<title> - OBDepict</title>
</svg>
