<?xml version="1.0"?>
<svg xmlns="http://www.w3.org/2000/svg"
xmlns:xlink="http://www.w3.org/1999/xlink" xmlns:cml="http://www.xml-cml.org/schema" width="402.828" height="333.75" x="0" y="0" font-family="sans-serif" stroke="rgb(0,0,0)" stroke-width="1"  stroke-linecap="round">
<rect x="0%" y="0%" width="100%" height="100%" stroke-width="0" fill="rgb(255,255,255)"  />
<line x1="196.8" y1="188.4" x2="180.8" y2="166.4" stroke="rgb(0,0,0)"  stroke-width="1.0"/>
<line x1="201.7" y1="184.8" x2="185.6" y2="162.9" stroke="rgb(0,0,0)"  stroke-width="1.0"/>
<line x1="246.8" y1="192.5" x2="219.9" y2="195.6" stroke="rgb(0,0,0)"  stroke-width="1.0"/>
<line x1="320.7" y1="195.7" x2="309.7" y2="220.6" stroke="rgb(0,0,0)"  stroke-width="1.0"/>
<line x1="270.2" y1="224.9" x2="246.8" y2="192.5" stroke="rgb(0,0,0)"  stroke-width="1.0"/>
<line x1="79.9" y1="193.7" x2="119.3" y2="197.3" stroke="rgb(0,0,0)"  stroke-width="1.0"/>
<line x1="52.9" y1="191.1" x2="79.9" y2="193.7" stroke="rgb(0,0,0)"  stroke-width="1.0"/>
<line x1="53.3" y1="186.9" x2="80.3" y2="189.5" stroke="rgb(0,0,0)"  stroke-width="1.0"/>
<line x1="52.5" y1="195.3" x2="79.5" y2="197.8" stroke="rgb(0,0,0)"  stroke-width="1.0"/>
<line x1="349.7" y1="197.3" x2="336.7" y2="191.7" stroke="rgb(0,0,0)"  stroke-width="1.0"/>
<line x1="352.1" y1="191.8" x2="339.1" y2="186.2" stroke="rgb(0,0,0)"  stroke-width="1.0"/>
<line x1="302.2" y1="170.1" x2="315.3" y2="175.8" stroke="rgb(0,0,0)"  stroke-width="1.0"/>
<line x1="299.8" y1="175.6" x2="312.9" y2="181.3" stroke="rgb(0,0,0)"  stroke-width="1.0"/>
<line x1="260.5" y1="169.3" x2="249.6" y2="193.7" stroke="rgb(0,0,0)"  stroke-width="1.0"/>
<line x1="255.1" y1="166.8" x2="244.1" y2="191.2" stroke="rgb(0,0,0)"  stroke-width="1.0"/>
<line x1="119.3" y1="197.3" x2="135.6" y2="175.1" stroke="rgb(0,0,0)"  stroke-width="1.0"/>
<line x1="336.9" y1="158.8" x2="331.2" y2="171.9" stroke="rgb(0,0,0)"  stroke-width="1.0"/>
<line x1="180.7" y1="47.6" x2="158.6" y2="63.6" stroke="rgb(0,0,0)"  stroke-width="1.0"/>
<line x1="65.2" y1="59.4" x2="90.1" y2="70.4" stroke="rgb(0,0,0)"  stroke-width="1.0"/>
<line x1="183.2" y1="164.7" x2="191.3" y2="139.0" stroke="rgb(0,0,0)"  stroke-width="1.0"/>
<line x1="184.8" y1="119.0" x2="162.8" y2="103.0" stroke="rgb(0,0,0)"  stroke-width="1.0"/>
<line x1="162.8" y1="103.0" x2="130.8" y2="126.6" stroke="rgb(0,0,0)"  stroke-width="1.0"/>
<line x1="162.3" y1="112.4" x2="139.9" y2="128.8" stroke="rgb(0,0,0)"  stroke-width="1.0"/>
<line x1="130.8" y1="126.6" x2="139.3" y2="152.3" stroke="rgb(0,0,0)"  stroke-width="1.0"/>
<line x1="156.3" y1="164.7" x2="183.2" y2="164.7" stroke="rgb(0,0,0)"  stroke-width="1.0"/>
<line x1="270.2" y1="224.9" x2="309.7" y2="220.6" stroke="rgb(0,0,0)"  stroke-width="1.0"/>
<line x1="309.7" y1="220.6" x2="333.2" y2="252.9" stroke="rgb(0,0,0)"  stroke-width="1.0"/>
<line x1="307.4" y1="229.7" x2="323.9" y2="252.3" stroke="rgb(0,0,0)"  stroke-width="1.0"/>
<line x1="333.2" y1="252.9" x2="316.9" y2="289.5" stroke="rgb(0,0,0)"  stroke-width="1.0"/>
<line x1="316.9" y1="289.5" x2="277.4" y2="293.7" stroke="rgb(0,0,0)"  stroke-width="1.0"/>
<line x1="310.2" y1="283.0" x2="282.6" y2="286.0" stroke="rgb(0,0,0)"  stroke-width="1.0"/>
<line x1="277.4" y1="293.7" x2="253.9" y2="261.3" stroke="rgb(0,0,0)"  stroke-width="1.0"/>
<line x1="253.9" y1="261.3" x2="270.2" y2="224.9" stroke="rgb(0,0,0)"  stroke-width="1.0"/>
<line x1="262.9" y1="258.8" x2="274.3" y2="233.3" stroke="rgb(0,0,0)"  stroke-width="1.0"/>
<line x1="158.6" y1="63.6" x2="162.8" y2="103.0" stroke="rgb(0,0,0)"  stroke-width="1.0"/>
<line x1="130.8" y1="126.6" x2="94.4" y2="110.3" stroke="rgb(0,0,0)"  stroke-width="1.0"/>
<line x1="94.4" y1="110.3" x2="90.1" y2="70.4" stroke="rgb(0,0,0)"  stroke-width="1.0"/>
<line x1="100.9" y1="103.6" x2="97.9" y2="75.6" stroke="rgb(0,0,0)"  stroke-width="1.0"/>
<line x1="90.1" y1="70.4" x2="122.4" y2="47.3" stroke="rgb(0,0,0)"  stroke-width="1.0"/>
<line x1="122.4" y1="47.3" x2="158.6" y2="63.6" stroke="rgb(0,0,0)"  stroke-width="1.0"/>
<line x1="124.9" y1="56.3" x2="150.2" y2="67.7" stroke="rgb(0,0,0)"  stroke-width="1.0"/>
<text x="200.954402" y="205.084008" fill="rgb(12,12,255)"  stroke="rgb(12,12,255)" stroke-width="1" font-size="16" >N</text>
<text x="137.312385" y="172.660320" fill="rgb(12,12,255)"  stroke="rgb(12,12,255)" stroke-width="1" font-size="16" >N</text>
<text x="189.268708" y="134.597098" fill="rgb(178,178,0)"  stroke="rgb(178,178,0)" stroke-width="1" font-size="16" >S</text>
<text x="319.975188" y="191.791167" fill="rgb(178,178,0)"  stroke="rgb(178,178,0)" stroke-width="1" font-size="16" >S</text>
<text x="22.000000" y="197.832488" fill="rgb(102,102,102)"  stroke="rgb(102,102,102)" stroke-width="1" font-size="16" >HC</text>
<text x="356.828210" y="207.702882" fill="rgb(255,12,12)"  stroke="rgb(255,12,12)" stroke-width="1" font-size="16" >O</text>
<text x="283.117326" y="175.680980" fill="rgb(255,12,12)"  stroke="rgb(255,12,12)" stroke-width="1" font-size="16" >O</text>
<text x="257.141585" y="164.203440" fill="rgb(255,12,12)"  stroke="rgb(255,12,12)" stroke-width="1" font-size="16" >O</text>
<text x="338.085376" y="154.938146" fill="rgb(102,102,102)"  stroke="rgb(102,102,102)" stroke-width="1" font-size="16" >CH</text>
<text x="362.085376" y="158.618146" fill="rgb(102,102,102)"  stroke="rgb(102,102,102)" stroke-width="1" font-size="13" >3</text>
<text x="187.246002" y="48.000000" fill="rgb(102,102,102)"  stroke="rgb(102,102,102)" stroke-width="1" font-size="16" >CH</text>
<text x="211.246002" y="51.680000" fill="rgb(102,102,102)"  stroke="rgb(102,102,102)" stroke-width="1" font-size="13" >3</text>
<text x="27.288000" y="62.101255" fill="rgb(102,102,102)"  stroke="rgb(102,102,102)" stroke-width="1" font-size="16" >H</text>
<text x="39.288000" y="65.781255" fill="rgb(102,102,102)"  stroke="rgb(102,102,102)" stroke-width="1" font-size="13" >3</text>
<text x="45.788000" y="62.101255" fill="rgb(102,102,102)"  stroke="rgb(102,102,102)" stroke-width="1" font-size="16" >C</text>
<text font-size="18.000000" fill ="black" font-family="sans-serif"
x="10.000000" y="20.000000" ></text>
<title> - OBDepict</title>
</svg>
