<?xml version="1.0"?>
<svg xmlns="http://www.w3.org/2000/svg"
xmlns:xlink="http://www.w3.org/1999/xlink" xmlns:cml="http://www.xml-cml.org/schema" width="391.537" height="379.987" x="0" y="0" font-family="sans-serif" stroke="rgb(0,0,0)" stroke-width="1"  stroke-linecap="round">
<rect x="0%" y="0%" width="100%" height="100%" stroke-width="0" fill="rgb(255,255,255)"  />
<line x1="247.5" y1="260.0" x2="247.5" y2="219.9" stroke="rgb(0,0,0)"  stroke-width="1.0"/>
<line x1="175.4" y1="259.5" x2="175.4" y2="232.5" stroke="rgb(0,0,0)"  stroke-width="1.0"/>
<line x1="181.4" y1="259.5" x2="181.4" y2="232.5" stroke="rgb(0,0,0)"  stroke-width="1.0"/>
<line x1="283.4" y1="317.0" x2="306.8" y2="330.5" stroke="rgb(0,0,0)"  stroke-width="1.0"/>
<line x1="280.4" y1="322.2" x2="303.8" y2="335.7" stroke="rgb(0,0,0)"  stroke-width="1.0"/>
<line x1="144.1" y1="320.1" x2="120.4" y2="333.6" stroke="rgb(0,0,0)"  stroke-width="1.0"/>
<line x1="281.9" y1="159.5" x2="305.3" y2="146.0" stroke="rgb(0,0,0)"  stroke-width="1.0"/>
<line x1="97.8" y1="333.5" x2="74.6" y2="320.1" stroke="rgb(0,0,0)"  stroke-width="1.0"/>
<line x1="247.5" y1="139.5" x2="247.4" y2="112.4" stroke="rgb(0,0,0)"  stroke-width="1.0"/>
<line x1="327.9" y1="145.9" x2="340.2" y2="152.9" stroke="rgb(0,0,0)"  stroke-width="1.0"/>
<line x1="74.6" y1="320.1" x2="74.6" y2="279.9" stroke="rgb(0,0,0)"  stroke-width="1.0"/>
<line x1="236.0" y1="93.0" x2="212.7" y2="79.8" stroke="rgb(0,0,0)"  stroke-width="1.0"/>
<line x1="74.6" y1="279.9" x2="51.3" y2="266.5" stroke="rgb(0,0,0)"  stroke-width="1.0"/>
<line x1="72.5" y1="283.6" x2="49.2" y2="270.1" stroke="rgb(0,0,0)"  stroke-width="1.0"/>
<line x1="76.7" y1="276.3" x2="53.4" y2="262.8" stroke="rgb(0,0,0)"  stroke-width="1.0"/>
<line x1="212.7" y1="79.8" x2="178.0" y2="100.1" stroke="rgb(0,0,0)"  stroke-width="1.0"/>
<line x1="143.1" y1="80.0" x2="143.1" y2="53.0" stroke="rgb(0,0,0)"  stroke-width="1.0"/>
<line x1="212.8" y1="279.9" x2="212.8" y2="319.6" stroke="rgb(0,0,0)"  stroke-width="1.0"/>
<line x1="220.0" y1="285.9" x2="220.0" y2="313.6" stroke="rgb(0,0,0)"  stroke-width="1.0"/>
<line x1="212.8" y1="319.6" x2="236.2" y2="333.1" stroke="rgb(0,0,0)"  stroke-width="1.0"/>
<line x1="258.7" y1="333.1" x2="281.9" y2="319.6" stroke="rgb(0,0,0)"  stroke-width="1.0"/>
<line x1="281.9" y1="319.6" x2="281.9" y2="279.6" stroke="rgb(0,0,0)"  stroke-width="1.0"/>
<line x1="281.9" y1="279.6" x2="247.5" y2="260.0" stroke="rgb(0,0,0)"  stroke-width="1.0"/>
<line x1="247.5" y1="260.0" x2="212.8" y2="279.9" stroke="rgb(0,0,0)"  stroke-width="1.0"/>
<line x1="212.8" y1="279.9" x2="178.4" y2="259.5" stroke="rgb(0,0,0)"  stroke-width="1.0"/>
<line x1="178.4" y1="259.5" x2="155.2" y2="273.3" stroke="rgb(0,0,0)"  stroke-width="1.0"/>
<line x1="144.1" y1="292.9" x2="144.1" y2="320.1" stroke="rgb(0,0,0)"  stroke-width="1.0"/>
<line x1="144.1" y1="320.1" x2="167.0" y2="333.2" stroke="rgb(0,0,0)"  stroke-width="1.0"/>
<line x1="152.8" y1="316.8" x2="168.8" y2="325.9" stroke="rgb(0,0,0)"  stroke-width="1.0"/>
<line x1="189.6" y1="333.1" x2="212.8" y2="319.6" stroke="rgb(0,0,0)"  stroke-width="1.0"/>
<line x1="247.5" y1="219.9" x2="212.8" y2="199.9" stroke="rgb(0,0,0)"  stroke-width="1.0"/>
<line x1="212.8" y1="199.9" x2="212.8" y2="159.5" stroke="rgb(0,0,0)"  stroke-width="1.0"/>
<line x1="220.0" y1="193.9" x2="220.0" y2="165.5" stroke="rgb(0,0,0)"  stroke-width="1.0"/>
<line x1="212.8" y1="159.5" x2="247.5" y2="139.5" stroke="rgb(0,0,0)"  stroke-width="1.0"/>
<line x1="247.5" y1="139.5" x2="281.9" y2="159.5" stroke="rgb(0,0,0)"  stroke-width="1.0"/>
<line x1="249.1" y1="148.8" x2="273.1" y2="162.7" stroke="rgb(0,0,0)"  stroke-width="1.0"/>
<line x1="281.9" y1="159.5" x2="281.9" y2="199.9" stroke="rgb(0,0,0)"  stroke-width="1.0"/>
<line x1="281.9" y1="199.9" x2="247.5" y2="219.9" stroke="rgb(0,0,0)"  stroke-width="1.0"/>
<line x1="273.1" y1="196.7" x2="249.1" y2="210.6" stroke="rgb(0,0,0)"  stroke-width="1.0"/>
<line x1="178.0" y1="100.1" x2="178.0" y2="140.1" stroke="rgb(0,0,0)"  stroke-width="1.0"/>
<line x1="178.0" y1="140.1" x2="143.1" y2="160.1" stroke="rgb(0,0,0)"  stroke-width="1.0"/>
<line x1="169.2" y1="136.8" x2="144.7" y2="150.9" stroke="rgb(0,0,0)"  stroke-width="1.0"/>
<line x1="143.1" y1="160.1" x2="108.6" y2="140.1" stroke="rgb(0,0,0)"  stroke-width="1.0"/>
<line x1="108.6" y1="140.1" x2="108.6" y2="100.1" stroke="rgb(0,0,0)"  stroke-width="1.0"/>
<line x1="115.8" y1="134.1" x2="115.8" y2="106.1" stroke="rgb(0,0,0)"  stroke-width="1.0"/>
<line x1="108.6" y1="100.1" x2="143.1" y2="80.0" stroke="rgb(0,0,0)"  stroke-width="1.0"/>
<line x1="143.1" y1="80.0" x2="178.0" y2="100.1" stroke="rgb(0,0,0)"  stroke-width="1.0"/>
<line x1="144.7" y1="89.2" x2="169.2" y2="103.3" stroke="rgb(0,0,0)"  stroke-width="1.0"/>
<text x="172.368595" y="347.652414" fill="rgb(12,12,255)"  stroke="rgb(12,12,255)" stroke-width="1" font-size="16" >N</text>
<text x="241.463229" y="347.652414" fill="rgb(12,12,255)"  stroke="rgb(12,12,255)" stroke-width="1" font-size="16" >N</text>
<text x="241.463229" y="363.652414" fill="rgb(12,12,255)"  stroke="rgb(12,12,255)" stroke-width="1" font-size="16" >H</text>
<text x="126.068461" y="287.921616" fill="rgb(12,12,255)"  stroke="rgb(12,12,255)" stroke-width="1" font-size="16" >HN</text>
<text x="172.368595" y="227.521972" fill="rgb(255,12,12)"  stroke="rgb(255,12,12)" stroke-width="1" font-size="16" >O</text>
<text x="310.567556" y="347.652414" fill="rgb(255,12,12)"  stroke="rgb(255,12,12)" stroke-width="1" font-size="16" >O</text>
<text x="103.099480" y="347.986837" fill="rgb(178,178,0)"  stroke="rgb(178,178,0)" stroke-width="1" font-size="16" >S</text>
<text x="310.567556" y="147.546484" fill="rgb(255,12,12)"  stroke="rgb(255,12,12)" stroke-width="1" font-size="16" >O</text>
<text x="241.298441" y="107.391529" fill="rgb(255,12,12)"  stroke="rgb(255,12,12)" stroke-width="1" font-size="16" >O</text>
<text x="347.536536" y="167.291963" fill="rgb(102,102,102)"  stroke="rgb(102,102,102)" stroke-width="1" font-size="16" >CH</text>
<text x="371.536536" y="170.971963" fill="rgb(102,102,102)"  stroke="rgb(102,102,102)" stroke-width="1" font-size="13" >3</text>
<text x="22.000000" y="268.011350" fill="rgb(102,102,102)"  stroke="rgb(102,102,102)" stroke-width="1" font-size="16" >HC</text>
<text x="139.065193" y="48.000000" fill="rgb(102,102,102)"  stroke="rgb(102,102,102)" stroke-width="1" font-size="16" >CH</text>
<text x="163.065193" y="51.680000" fill="rgb(102,102,102)"  stroke="rgb(102,102,102)" stroke-width="1" font-size="13" >3</text>
<text font-size="18.000000" fill ="black" font-family="sans-serif"
x="10.000000" y="20.000000" ></text>
<title> - OBDepict</title>
</svg>
