<?xml version="1.0"?>
<svg xmlns="http://www.w3.org/2000/svg"
xmlns:xlink="http://www.w3.org/1999/xlink" xmlns:cml="http://www.xml-cml.org/schema" width="461.526" height="427.373" x="0" y="0" font-family="sans-serif" stroke="rgb(0,0,0)" stroke-width="1"  stroke-linecap="round">
<rect x="0%" y="0%" width="100%" height="100%" stroke-width="0" fill="rgb(255,255,255)"  />
<line x1="360.1" y1="317.0" x2="333.1" y2="317.0" stroke="rgb(0,0,0)"  stroke-width="1.0"/>
<line x1="86.5" y1="189.7" x2="100.0" y2="213.0" stroke="rgb(0,0,0)"  stroke-width="1.0"/>
<line x1="293.1" y1="317.0" x2="307.1" y2="317.0" stroke="rgb(0,0,0)"  stroke-width="1.0"/>
<line x1="160.0" y1="317.0" x2="187.0" y2="317.0" stroke="rgb(0,0,0)"  stroke-width="1.0"/>
<line x1="323.1" y1="290.0" x2="323.1" y2="304.0" stroke="rgb(0,0,0)"  stroke-width="1.0"/>
<line x1="317.1" y1="290.0" x2="317.1" y2="304.0" stroke="rgb(0,0,0)"  stroke-width="1.0"/>
<line x1="317.1" y1="344.1" x2="317.1" y2="330.0" stroke="rgb(0,0,0)"  stroke-width="1.0"/>
<line x1="323.1" y1="344.1" x2="323.1" y2="330.0" stroke="rgb(0,0,0)"  stroke-width="1.0"/>
<line x1="60.0" y1="74.4" x2="80.0" y2="109.1" stroke="rgb(0,0,0)"  stroke-width="1.0"/>
<line x1="46.5" y1="51.2" x2="60.0" y2="74.4" stroke="rgb(0,0,0)"  stroke-width="1.0"/>
<line x1="50.2" y1="49.1" x2="63.6" y2="72.2" stroke="rgb(0,0,0)"  stroke-width="1.0"/>
<line x1="42.9" y1="53.3" x2="56.4" y2="76.5" stroke="rgb(0,0,0)"  stroke-width="1.0"/>
<line x1="55.0" y1="189.3" x2="67.2" y2="182.3" stroke="rgb(0,0,0)"  stroke-width="1.0"/>
<line x1="58.0" y1="194.5" x2="70.2" y2="187.5" stroke="rgb(0,0,0)"  stroke-width="1.0"/>
<line x1="104.8" y1="167.5" x2="92.8" y2="174.5" stroke="rgb(0,0,0)"  stroke-width="1.0"/>
<line x1="101.8" y1="162.3" x2="89.8" y2="169.3" stroke="rgb(0,0,0)"  stroke-width="1.0"/>
<line x1="140.0" y1="282.3" x2="160.0" y2="317.0" stroke="rgb(0,0,0)"  stroke-width="1.0"/>
<line x1="66.5" y1="154.9" x2="73.5" y2="167.2" stroke="rgb(0,0,0)"  stroke-width="1.0"/>
<line x1="143.9" y1="338.9" x2="157.4" y2="315.5" stroke="rgb(0,0,0)"  stroke-width="1.0"/>
<line x1="149.1" y1="341.9" x2="162.6" y2="318.6" stroke="rgb(0,0,0)"  stroke-width="1.0"/>
<line x1="80.0" y1="109.1" x2="66.5" y2="132.4" stroke="rgb(0,0,0)"  stroke-width="1.0"/>
<line x1="375.2" y1="258.9" x2="383.5" y2="284.5" stroke="rgb(0,0,0)"  stroke-width="1.0"/>
<line x1="375.2" y1="375.0" x2="383.5" y2="349.4" stroke="rgb(0,0,0)"  stroke-width="1.0"/>
<line x1="360.1" y1="317.0" x2="383.5" y2="284.5" stroke="rgb(0,0,0)"  stroke-width="1.0"/>
<line x1="369.4" y1="316.4" x2="385.9" y2="293.6" stroke="rgb(0,0,0)"  stroke-width="1.0"/>
<line x1="383.5" y1="284.5" x2="409.2" y2="293.0" stroke="rgb(0,0,0)"  stroke-width="1.0"/>
<line x1="421.5" y1="310.0" x2="421.5" y2="324.1" stroke="rgb(0,0,0)"  stroke-width="1.0"/>
<line x1="409.0" y1="341.1" x2="383.5" y2="349.4" stroke="rgb(0,0,0)"  stroke-width="1.0"/>
<line x1="404.9" y1="334.9" x2="387.0" y2="340.7" stroke="rgb(0,0,0)"  stroke-width="1.0"/>
<line x1="383.5" y1="349.4" x2="360.1" y2="317.0" stroke="rgb(0,0,0)"  stroke-width="1.0"/>
<line x1="140.0" y1="282.3" x2="160.0" y2="247.7" stroke="rgb(0,0,0)"  stroke-width="1.0"/>
<line x1="160.0" y1="247.7" x2="140.0" y2="213.0" stroke="rgb(0,0,0)"  stroke-width="1.0"/>
<line x1="150.8" y1="246.1" x2="136.8" y2="221.8" stroke="rgb(0,0,0)"  stroke-width="1.0"/>
<line x1="140.0" y1="213.0" x2="100.0" y2="213.0" stroke="rgb(0,0,0)"  stroke-width="1.0"/>
<line x1="100.0" y1="213.0" x2="80.0" y2="247.7" stroke="rgb(0,0,0)"  stroke-width="1.0"/>
<line x1="103.3" y1="221.8" x2="89.2" y2="246.1" stroke="rgb(0,0,0)"  stroke-width="1.0"/>
<line x1="80.0" y1="247.7" x2="100.0" y2="282.3" stroke="rgb(0,0,0)"  stroke-width="1.0"/>
<line x1="100.0" y1="282.3" x2="140.0" y2="282.3" stroke="rgb(0,0,0)"  stroke-width="1.0"/>
<line x1="106.0" y1="275.1" x2="134.0" y2="275.1" stroke="rgb(0,0,0)"  stroke-width="1.0"/>
<line x1="273.6" y1="328.3" x2="260.1" y2="351.6" stroke="rgb(0,0,0)"  stroke-width="1.0"/>
<line x1="260.1" y1="351.6" x2="220.1" y2="351.6" stroke="rgb(0,0,0)"  stroke-width="1.0"/>
<line x1="220.1" y1="351.6" x2="206.6" y2="328.3" stroke="rgb(0,0,0)"  stroke-width="1.0"/>
<line x1="206.5" y1="305.8" x2="220.1" y2="282.3" stroke="rgb(0,0,0)"  stroke-width="1.0"/>
<line x1="220.1" y1="282.3" x2="260.1" y2="282.3" stroke="rgb(0,0,0)"  stroke-width="1.0"/>
<line x1="260.1" y1="282.3" x2="273.6" y2="305.8" stroke="rgb(0,0,0)"  stroke-width="1.0"/>
<text x="314.080737" y="325.049560" fill="rgb(178,178,0)"  stroke="rgb(178,178,0)" stroke-width="1" font-size="16" >S</text>
<text x="74.011534" y="186.420507" fill="rgb(178,178,0)"  stroke="rgb(178,178,0)" stroke-width="1" font-size="16" >S</text>
<text x="274.069203" y="325.049560" fill="rgb(12,12,255)"  stroke="rgb(12,12,255)" stroke-width="1" font-size="16" >N</text>
<text x="415.525737" y="345.055327" fill="rgb(12,12,255)"  stroke="rgb(12,12,255)" stroke-width="1" font-size="16" >N</text>
<text x="194.046135" y="325.049560" fill="rgb(12,12,255)"  stroke="rgb(12,12,255)" stroke-width="1" font-size="16" >N</text>
<text x="415.525737" y="305.043793" fill="rgb(255,12,12)"  stroke="rgb(255,12,12)" stroke-width="1" font-size="16" >O</text>
<text x="314.080737" y="285.038026" fill="rgb(255,12,12)"  stroke="rgb(255,12,12)" stroke-width="1" font-size="16" >O</text>
<text x="314.080737" y="365.061094" fill="rgb(255,12,12)"  stroke="rgb(255,12,12)" stroke-width="1" font-size="16" >O</text>
<text x="22.000000" y="48.000000" fill="rgb(102,102,102)"  stroke="rgb(102,102,102)" stroke-width="1" font-size="16" >HC</text>
<text x="39.252423" y="206.426274" fill="rgb(255,12,12)"  stroke="rgb(255,12,12)" stroke-width="1" font-size="16" >O</text>
<text x="108.566949" y="166.414741" fill="rgb(255,12,12)"  stroke="rgb(255,12,12)" stroke-width="1" font-size="16" >O</text>
<text x="42.005767" y="151.666247" fill="rgb(12,12,255)"  stroke="rgb(12,12,255)" stroke-width="1" font-size="16" >HN</text>
<text x="134.028835" y="359.604975" fill="rgb(255,12,12)"  stroke="rgb(255,12,12)" stroke-width="1" font-size="16" >O</text>
<text x="345.208202" y="254.522563" fill="rgb(102,102,102)"  stroke="rgb(102,102,102)" stroke-width="1" font-size="16" >H</text>
<text x="357.208202" y="258.202563" fill="rgb(102,102,102)"  stroke="rgb(102,102,102)" stroke-width="1" font-size="13" >3</text>
<text x="363.708202" y="254.522563" fill="rgb(102,102,102)"  stroke="rgb(102,102,102)" stroke-width="1" font-size="16" >C</text>
<text x="345.208202" y="395.372862" fill="rgb(102,102,102)"  stroke="rgb(102,102,102)" stroke-width="1" font-size="16" >H</text>
<text x="357.208202" y="399.052862" fill="rgb(102,102,102)"  stroke="rgb(102,102,102)" stroke-width="1" font-size="13" >3</text>
<text x="363.708202" y="395.372862" fill="rgb(102,102,102)"  stroke="rgb(102,102,102)" stroke-width="1" font-size="16" >C</text>
<text font-size="18.000000" fill ="black" font-family="sans-serif"
x="10.000000" y="20.000000" ></text>
<title> - OBDepict</title>
</svg>
