<?xml version="1.0"?>
<svg xmlns="http://www.w3.org/2000/svg"
xmlns:xlink="http://www.w3.org/1999/xlink" xmlns:cml="http://www.xml-cml.org/schema" width="314.15" height="261.073" x="0" y="0" font-family="sans-serif" stroke="rgb(0,0,0)" stroke-width="1"  stroke-linecap="round">
<rect x="0%" y="0%" width="100%" height="100%" stroke-width="0" fill="rgb(255,255,255)"  />
<line x1="170.7" y1="120.2" x2="194.3" y2="134.0" stroke="rgb(0,0,0)"  stroke-width="1.0"/>
<line x1="170.7" y1="80.3" x2="205.3" y2="60.1" stroke="rgb(0,0,0)"  stroke-width="1.0"/>
<line x1="205.5" y1="153.6" x2="205.3" y2="180.9" stroke="rgb(0,0,0)"  stroke-width="1.0"/>
<line x1="205.3" y1="60.1" x2="228.4" y2="46.6" stroke="rgb(0,0,0)"  stroke-width="1.0"/>
<line x1="203.2" y1="56.5" x2="226.3" y2="43.0" stroke="rgb(0,0,0)"  stroke-width="1.0"/>
<line x1="207.5" y1="63.8" x2="230.5" y2="50.2" stroke="rgb(0,0,0)"  stroke-width="1.0"/>
<line x1="205.3" y1="180.9" x2="239.6" y2="200.9" stroke="rgb(0,0,0)"  stroke-width="1.0"/>
<line x1="239.6" y1="200.9" x2="262.9" y2="214.5" stroke="rgb(0,0,0)"  stroke-width="1.0"/>
<line x1="241.7" y1="197.3" x2="265.0" y2="210.9" stroke="rgb(0,0,0)"  stroke-width="1.0"/>
<line x1="237.5" y1="204.6" x2="260.8" y2="218.2" stroke="rgb(0,0,0)"  stroke-width="1.0"/>
<line x1="101.6" y1="120.2" x2="101.6" y2="79.9" stroke="rgb(0,0,0)"  stroke-width="1.0"/>
<line x1="101.6" y1="79.9" x2="65.0" y2="66.7" stroke="rgb(0,0,0)"  stroke-width="1.0"/>
<line x1="65.0" y1="66.7" x2="40.0" y2="98.7" stroke="rgb(0,0,0)"  stroke-width="1.0"/>
<line x1="40.0" y1="98.7" x2="62.7" y2="131.5" stroke="rgb(0,0,0)"  stroke-width="1.0"/>
<line x1="62.7" y1="131.5" x2="101.6" y2="120.2" stroke="rgb(0,0,0)"  stroke-width="1.0"/>
<line x1="101.6" y1="120.2" x2="124.8" y2="133.6" stroke="rgb(0,0,0)"  stroke-width="1.0"/>
<line x1="110.4" y1="117.0" x2="126.7" y2="126.4" stroke="rgb(0,0,0)"  stroke-width="1.0"/>
<line x1="147.5" y1="133.7" x2="170.7" y2="120.2" stroke="rgb(0,0,0)"  stroke-width="1.0"/>
<line x1="170.7" y1="120.2" x2="170.7" y2="80.3" stroke="rgb(0,0,0)"  stroke-width="1.0"/>
<line x1="163.5" y1="114.2" x2="163.5" y2="86.3" stroke="rgb(0,0,0)"  stroke-width="1.0"/>
<line x1="170.7" y1="80.3" x2="136.2" y2="60.1" stroke="rgb(0,0,0)"  stroke-width="1.0"/>
<line x1="136.2" y1="60.1" x2="101.6" y2="79.9" stroke="rgb(0,0,0)"  stroke-width="1.0"/>
<line x1="134.6" y1="69.4" x2="110.4" y2="83.1" stroke="rgb(0,0,0)"  stroke-width="1.0"/>
<text x="130.244689" y="148.250445" fill="rgb(12,12,255)"  stroke="rgb(12,12,255)" stroke-width="1" font-size="16" >N</text>
<text x="199.548616" y="148.550755" fill="rgb(178,178,0)"  stroke="rgb(178,178,0)" stroke-width="1" font-size="16" >S</text>
<text x="233.599958" y="48.000000" fill="rgb(12,12,255)"  stroke="rgb(12,12,255)" stroke-width="1" font-size="16" >N</text>
<text x="268.150203" y="229.072734" fill="rgb(102,102,102)"  stroke="rgb(102,102,102)" stroke-width="1" font-size="16" >CH</text>
<text font-size="18.000000" fill ="black" font-family="sans-serif"
x="10.000000" y="20.000000" ></text>
<title> - OBDepict</title>
</svg>
