<?xml version="1.0"?>
<svg xmlns="http://www.w3.org/2000/svg"
xmlns:xlink="http://www.w3.org/1999/xlink" xmlns:cml="http://www.xml-cml.org/schema" width="332.508" height="373.843" x="0" y="0" font-family="sans-serif" stroke="rgb(0,0,0)" stroke-width="1"  stroke-linecap="round">
<rect x="0%" y="0%" width="100%" height="100%" stroke-width="0" fill="rgb(255,255,255)"  />
<line x1="155.6" y1="310.0" x2="182.3" y2="280.0" stroke="rgb(0,0,0)"  stroke-width="1.0"/>
<line x1="160.1" y1="314.0" x2="186.7" y2="284.0" stroke="rgb(0,0,0)"  stroke-width="1.0"/>
<line x1="220.8" y1="184.5" x2="213.9" y2="210.1" stroke="rgb(0,0,0)"  stroke-width="1.0"/>
<line x1="253.5" y1="69.2" x2="242.0" y2="107.8" stroke="rgb(0,0,0)"  stroke-width="1.0"/>
<line x1="68.5" y1="152.2" x2="80.7" y2="190.0" stroke="rgb(0,0,0)"  stroke-width="1.0"/>
<line x1="60.1" y1="126.2" x2="68.5" y2="152.2" stroke="rgb(0,0,0)"  stroke-width="1.0"/>
<line x1="64.1" y1="124.9" x2="72.5" y2="150.9" stroke="rgb(0,0,0)"  stroke-width="1.0"/>
<line x1="56.1" y1="127.5" x2="64.5" y2="153.5" stroke="rgb(0,0,0)"  stroke-width="1.0"/>
<line x1="151.8" y1="228.8" x2="177.2" y2="240.1" stroke="rgb(0,0,0)"  stroke-width="1.0"/>
<line x1="149.3" y1="234.3" x2="174.8" y2="245.6" stroke="rgb(0,0,0)"  stroke-width="1.0"/>
<line x1="118.3" y1="303.8" x2="157.8" y2="312.0" stroke="rgb(0,0,0)"  stroke-width="1.0"/>
<line x1="237.3" y1="47.4" x2="255.7" y2="67.1" stroke="rgb(0,0,0)"  stroke-width="1.0"/>
<line x1="232.9" y1="51.5" x2="251.3" y2="71.2" stroke="rgb(0,0,0)"  stroke-width="1.0"/>
<line x1="279.9" y1="62.9" x2="253.5" y2="69.2" stroke="rgb(0,0,0)"  stroke-width="1.0"/>
<line x1="238.0" y1="309.6" x2="224.3" y2="285.8" stroke="rgb(0,0,0)"  stroke-width="1.0"/>
<line x1="80.7" y1="190.0" x2="62.7" y2="210.0" stroke="rgb(0,0,0)"  stroke-width="1.0"/>
<line x1="58.1" y1="232.0" x2="66.7" y2="258.0" stroke="rgb(0,0,0)"  stroke-width="1.0"/>
<line x1="184.5" y1="282.0" x2="176.0" y2="242.8" stroke="rgb(0,0,0)"  stroke-width="1.0"/>
<line x1="176.0" y1="242.8" x2="199.3" y2="229.2" stroke="rgb(0,0,0)"  stroke-width="1.0"/>
<line x1="220.1" y1="231.4" x2="230.7" y2="241.1" stroke="rgb(0,0,0)"  stroke-width="1.0"/>
<line x1="235.1" y1="261.7" x2="224.3" y2="285.8" stroke="rgb(0,0,0)"  stroke-width="1.0"/>
<line x1="227.6" y1="260.7" x2="220.2" y2="277.4" stroke="rgb(0,0,0)"  stroke-width="1.0"/>
<line x1="224.3" y1="285.8" x2="184.5" y2="282.0" stroke="rgb(0,0,0)"  stroke-width="1.0"/>
<line x1="220.8" y1="184.5" x2="259.2" y2="174.2" stroke="rgb(0,0,0)"  stroke-width="1.0"/>
<line x1="259.2" y1="174.2" x2="269.5" y2="135.3" stroke="rgb(0,0,0)"  stroke-width="1.0"/>
<line x1="253.8" y1="166.5" x2="261.0" y2="139.3" stroke="rgb(0,0,0)"  stroke-width="1.0"/>
<line x1="269.5" y1="135.3" x2="242.0" y2="107.8" stroke="rgb(0,0,0)"  stroke-width="1.0"/>
<line x1="242.0" y1="107.8" x2="203.0" y2="118.2" stroke="rgb(0,0,0)"  stroke-width="1.0"/>
<line x1="238.1" y1="116.3" x2="210.7" y2="123.6" stroke="rgb(0,0,0)"  stroke-width="1.0"/>
<line x1="203.0" y1="118.2" x2="192.8" y2="156.3" stroke="rgb(0,0,0)"  stroke-width="1.0"/>
<line x1="192.8" y1="156.3" x2="220.8" y2="184.5" stroke="rgb(0,0,0)"  stroke-width="1.0"/>
<line x1="202.2" y1="155.5" x2="221.7" y2="175.2" stroke="rgb(0,0,0)"  stroke-width="1.0"/>
<line x1="118.3" y1="303.8" x2="105.5" y2="265.8" stroke="rgb(0,0,0)"  stroke-width="1.0"/>
<line x1="105.5" y1="265.8" x2="66.7" y2="258.0" stroke="rgb(0,0,0)"  stroke-width="1.0"/>
<line x1="98.2" y1="271.7" x2="71.1" y2="266.3" stroke="rgb(0,0,0)"  stroke-width="1.0"/>
<line x1="66.7" y1="258.0" x2="40.0" y2="288.2" stroke="rgb(0,0,0)"  stroke-width="1.0"/>
<line x1="40.0" y1="288.2" x2="52.7" y2="326.0" stroke="rgb(0,0,0)"  stroke-width="1.0"/>
<line x1="48.7" y1="291.6" x2="57.6" y2="318.0" stroke="rgb(0,0,0)"  stroke-width="1.0"/>
<line x1="52.7" y1="326.0" x2="92.0" y2="333.8" stroke="rgb(0,0,0)"  stroke-width="1.0"/>
<line x1="92.0" y1="333.8" x2="118.3" y2="303.8" stroke="rgb(0,0,0)"  stroke-width="1.0"/>
<line x1="90.6" y1="324.6" x2="109.0" y2="303.6" stroke="rgb(0,0,0)"  stroke-width="1.0"/>
<text x="204.508611" y="230.673917" fill="rgb(12,12,255)"  stroke="rgb(12,12,255)" stroke-width="1" font-size="16" >N</text>
<text x="234.338873" y="257.836945" fill="rgb(12,12,255)"  stroke="rgb(12,12,255)" stroke-width="1" font-size="16" >N</text>
<text x="38.163727" y="121.832327" fill="rgb(102,102,102)"  stroke="rgb(102,102,102)" stroke-width="1" font-size="16" >HC</text>
<text x="132.668207" y="234.337112" fill="rgb(255,12,12)"  stroke="rgb(255,12,12)" stroke-width="1" font-size="16" >O</text>
<text x="220.171928" y="48.000000" fill="rgb(255,12,12)"  stroke="rgb(255,12,12)" stroke-width="1" font-size="16" >O</text>
<text x="286.507823" y="67.831780" fill="rgb(255,12,12)"  stroke="rgb(255,12,12)" stroke-width="1" font-size="16" >OH</text>
<text x="240.507337" y="328.841714" fill="rgb(102,102,102)"  stroke="rgb(102,102,102)" stroke-width="1" font-size="16" >CH</text>
<text x="264.507337" y="332.521714" fill="rgb(102,102,102)"  stroke="rgb(102,102,102)" stroke-width="1" font-size="13" >3</text>
<text x="48.001761" y="227.671457" fill="rgb(255,12,12)"  stroke="rgb(255,12,12)" stroke-width="1" font-size="16" >O</text>
<text font-size="18.000000" fill ="black" font-family="sans-serif"
x="10.000000" y="20.000000" ></text>
<title> - OBDepict</title>
</svg>
