<?xml version="1.0"?>
<svg xmlns="http://www.w3.org/2000/svg"
xmlns:xlink="http://www.w3.org/1999/xlink" xmlns:cml="http://www.xml-cml.org/schema" width="218.573" height="479.967" x="0" y="0" font-family="sans-serif" stroke="rgb(0,0,0)" stroke-width="1"  stroke-linecap="round">
<rect x="0%" y="0%" width="100%" height="100%" stroke-width="0" fill="rgb(255,255,255)"  />
<line x1="132.8" y1="186.5" x2="109.3" y2="200.0" stroke="rgb(0,0,0)"  stroke-width="1.0"/>
<line x1="74.7" y1="60.0" x2="109.3" y2="80.0" stroke="rgb(0,0,0)"  stroke-width="1.0"/>
<line x1="51.3" y1="46.5" x2="74.7" y2="60.0" stroke="rgb(0,0,0)"  stroke-width="1.0"/>
<line x1="53.4" y1="42.8" x2="76.8" y2="56.4" stroke="rgb(0,0,0)"  stroke-width="1.0"/>
<line x1="49.2" y1="50.1" x2="72.6" y2="63.6" stroke="rgb(0,0,0)"  stroke-width="1.0"/>
<line x1="109.3" y1="240.0" x2="109.3" y2="200.0" stroke="rgb(0,0,0)"  stroke-width="1.0"/>
<line x1="87.5" y1="183.9" x2="110.8" y2="197.4" stroke="rgb(0,0,0)"  stroke-width="1.0"/>
<line x1="84.5" y1="189.1" x2="107.8" y2="202.6" stroke="rgb(0,0,0)"  stroke-width="1.0"/>
<line x1="144.0" y1="140.0" x2="144.0" y2="167.0" stroke="rgb(0,0,0)"  stroke-width="1.0"/>
<line x1="144.0" y1="420.0" x2="144.0" y2="380.0" stroke="rgb(0,0,0)"  stroke-width="1.0"/>
<line x1="165.8" y1="436.1" x2="142.5" y2="422.6" stroke="rgb(0,0,0)"  stroke-width="1.0"/>
<line x1="168.8" y1="430.9" x2="145.5" y2="417.4" stroke="rgb(0,0,0)"  stroke-width="1.0"/>
<line x1="109.3" y1="347.0" x2="109.3" y2="320.0" stroke="rgb(0,0,0)"  stroke-width="1.0"/>
<line x1="144.0" y1="380.0" x2="120.6" y2="366.5" stroke="rgb(0,0,0)"  stroke-width="1.0"/>
<line x1="109.3" y1="240.0" x2="144.0" y2="260.0" stroke="rgb(0,0,0)"  stroke-width="1.0"/>
<line x1="144.0" y1="260.0" x2="144.0" y2="300.0" stroke="rgb(0,0,0)"  stroke-width="1.0"/>
<line x1="136.8" y1="266.0" x2="136.8" y2="294.0" stroke="rgb(0,0,0)"  stroke-width="1.0"/>
<line x1="144.0" y1="300.0" x2="109.3" y2="320.0" stroke="rgb(0,0,0)"  stroke-width="1.0"/>
<line x1="109.3" y1="320.0" x2="74.7" y2="300.0" stroke="rgb(0,0,0)"  stroke-width="1.0"/>
<line x1="107.7" y1="310.7" x2="83.5" y2="296.8" stroke="rgb(0,0,0)"  stroke-width="1.0"/>
<line x1="74.7" y1="300.0" x2="74.7" y2="260.0" stroke="rgb(0,0,0)"  stroke-width="1.0"/>
<line x1="74.7" y1="260.0" x2="109.3" y2="240.0" stroke="rgb(0,0,0)"  stroke-width="1.0"/>
<line x1="83.5" y1="263.2" x2="107.7" y2="249.2" stroke="rgb(0,0,0)"  stroke-width="1.0"/>
<line x1="144.0" y1="140.0" x2="109.3" y2="120.0" stroke="rgb(0,0,0)"  stroke-width="1.0"/>
<line x1="142.4" y1="130.8" x2="118.1" y2="116.7" stroke="rgb(0,0,0)"  stroke-width="1.0"/>
<line x1="109.3" y1="120.0" x2="109.3" y2="80.0" stroke="rgb(0,0,0)"  stroke-width="1.0"/>
<line x1="109.3" y1="80.0" x2="144.0" y2="60.0" stroke="rgb(0,0,0)"  stroke-width="1.0"/>
<line x1="118.1" y1="83.2" x2="142.4" y2="69.2" stroke="rgb(0,0,0)"  stroke-width="1.0"/>
<line x1="144.0" y1="60.0" x2="178.6" y2="80.0" stroke="rgb(0,0,0)"  stroke-width="1.0"/>
<line x1="178.6" y1="80.0" x2="178.6" y2="120.0" stroke="rgb(0,0,0)"  stroke-width="1.0"/>
<line x1="171.4" y1="86.0" x2="171.4" y2="114.0" stroke="rgb(0,0,0)"  stroke-width="1.0"/>
<line x1="178.6" y1="120.0" x2="144.0" y2="140.0" stroke="rgb(0,0,0)"  stroke-width="1.0"/>
<text x="138.030263" y="187.988529" fill="rgb(12,12,255)"  stroke="rgb(12,12,255)" stroke-width="1" font-size="16" >NH</text>
<text x="22.000000" y="48.000000" fill="rgb(102,102,102)"  stroke="rgb(102,102,102)" stroke-width="1" font-size="16" >HC</text>
<text x="68.741396" y="187.988529" fill="rgb(255,12,12)"  stroke="rgb(255,12,12)" stroke-width="1" font-size="16" >O</text>
<text x="174.572887" y="447.967225" fill="rgb(102,102,102)"  stroke="rgb(102,102,102)" stroke-width="1" font-size="16" >CH</text>
<text x="198.572887" y="451.647225" fill="rgb(102,102,102)"  stroke="rgb(102,102,102)" stroke-width="1" font-size="13" >2</text>
<text x="103.284020" y="367.973780" fill="rgb(255,12,12)"  stroke="rgb(255,12,12)" stroke-width="1" font-size="16" >O</text>
<text font-size="18.000000" fill ="black" font-family="sans-serif"
x="10.000000" y="20.000000" ></text>
<title> - OBDepict</title>
</svg>
