<?xml version="1.0"?>
<svg xmlns="http://www.w3.org/2000/svg"
xmlns:xlink="http://www.w3.org/1999/xlink" xmlns:cml="http://www.xml-cml.org/schema" width="479.464" height="391.837" x="0" y="0" font-family="sans-serif" stroke="rgb(0,0,0)" stroke-width="1"  stroke-linecap="round">
<rect x="0%" y="0%" width="100%" height="100%" stroke-width="0" fill="rgb(255,255,255)"  />
<line x1="259.2" y1="247.7" x2="279.4" y2="213.1" stroke="rgb(0,0,0)"  stroke-width="1.0"/>
<line x1="219.7" y1="247.7" x2="199.7" y2="212.5" stroke="rgb(0,0,0)"  stroke-width="1.0"/>
<line x1="199.7" y1="212.5" x2="172.9" y2="212.9" stroke="rgb(0,0,0)"  stroke-width="1.0"/>
<line x1="197.1" y1="211.0" x2="210.6" y2="187.7" stroke="rgb(0,0,0)"  stroke-width="1.0"/>
<line x1="202.3" y1="214.0" x2="215.8" y2="190.7" stroke="rgb(0,0,0)"  stroke-width="1.0"/>
<line x1="199.3" y1="282.7" x2="172.1" y2="282.8" stroke="rgb(0,0,0)"  stroke-width="1.0"/>
<line x1="261.8" y1="315.2" x2="275.5" y2="339.1" stroke="rgb(0,0,0)"  stroke-width="1.0"/>
<line x1="256.6" y1="318.2" x2="270.3" y2="342.1" stroke="rgb(0,0,0)"  stroke-width="1.0"/>
<line x1="339.4" y1="178.3" x2="367.0" y2="178.1" stroke="rgb(0,0,0)"  stroke-width="1.0"/>
<line x1="153.4" y1="201.8" x2="140.1" y2="178.3" stroke="rgb(0,0,0)"  stroke-width="1.0"/>
<line x1="319.4" y1="143.9" x2="332.9" y2="120.6" stroke="rgb(0,0,0)"  stroke-width="1.0"/>
<line x1="386.4" y1="166.6" x2="399.8" y2="142.8" stroke="rgb(0,0,0)"  stroke-width="1.0"/>
<line x1="352.4" y1="109.4" x2="379.2" y2="109.4" stroke="rgb(0,0,0)"  stroke-width="1.0"/>
<line x1="399.8" y1="142.8" x2="426.5" y2="142.8" stroke="rgb(0,0,0)"  stroke-width="1.0"/>
<line x1="379.2" y1="109.4" x2="399.2" y2="74.4" stroke="rgb(0,0,0)"  stroke-width="1.0"/>
<line x1="80.0" y1="143.9" x2="53.0" y2="143.9" stroke="rgb(0,0,0)"  stroke-width="1.0"/>
<line x1="399.2" y1="74.4" x2="412.6" y2="51.3" stroke="rgb(0,0,0)"  stroke-width="1.0"/>
<line x1="395.6" y1="72.3" x2="408.9" y2="49.2" stroke="rgb(0,0,0)"  stroke-width="1.0"/>
<line x1="402.9" y1="76.5" x2="416.2" y2="53.4" stroke="rgb(0,0,0)"  stroke-width="1.0"/>
<line x1="100.0" y1="109.0" x2="86.7" y2="85.7" stroke="rgb(0,0,0)"  stroke-width="1.0"/>
<line x1="259.2" y1="247.7" x2="272.4" y2="271.0" stroke="rgb(0,0,0)"  stroke-width="1.0"/>
<line x1="272.3" y1="293.6" x2="259.2" y2="316.7" stroke="rgb(0,0,0)"  stroke-width="1.0"/>
<line x1="259.2" y1="316.7" x2="232.7" y2="316.7" stroke="rgb(0,0,0)"  stroke-width="1.0"/>
<line x1="213.0" y1="305.5" x2="199.3" y2="282.7" stroke="rgb(0,0,0)"  stroke-width="1.0"/>
<line x1="199.3" y1="282.7" x2="219.7" y2="247.7" stroke="rgb(0,0,0)"  stroke-width="1.0"/>
<line x1="208.6" y1="281.1" x2="222.9" y2="256.5" stroke="rgb(0,0,0)"  stroke-width="1.0"/>
<line x1="219.7" y1="247.7" x2="259.2" y2="247.7" stroke="rgb(0,0,0)"  stroke-width="1.0"/>
<line x1="279.4" y1="213.1" x2="259.2" y2="178.7" stroke="rgb(0,0,0)"  stroke-width="1.0"/>
<line x1="259.2" y1="178.7" x2="279.4" y2="143.4" stroke="rgb(0,0,0)"  stroke-width="1.0"/>
<line x1="268.4" y1="177.1" x2="282.6" y2="152.1" stroke="rgb(0,0,0)"  stroke-width="1.0"/>
<line x1="279.4" y1="143.4" x2="319.4" y2="143.9" stroke="rgb(0,0,0)"  stroke-width="1.0"/>
<line x1="319.4" y1="143.9" x2="339.4" y2="178.3" stroke="rgb(0,0,0)"  stroke-width="1.0"/>
<line x1="316.2" y1="152.8" x2="330.2" y2="176.8" stroke="rgb(0,0,0)"  stroke-width="1.0"/>
<line x1="339.4" y1="178.3" x2="319.0" y2="213.1" stroke="rgb(0,0,0)"  stroke-width="1.0"/>
<line x1="319.0" y1="213.1" x2="279.4" y2="213.1" stroke="rgb(0,0,0)"  stroke-width="1.0"/>
<line x1="313.0" y1="205.9" x2="285.4" y2="205.9" stroke="rgb(0,0,0)"  stroke-width="1.0"/>
<line x1="140.1" y1="178.3" x2="159.9" y2="143.4" stroke="rgb(0,0,0)"  stroke-width="1.0"/>
<line x1="136.8" y1="169.6" x2="150.7" y2="145.0" stroke="rgb(0,0,0)"  stroke-width="1.0"/>
<line x1="159.9" y1="143.4" x2="140.1" y2="109.6" stroke="rgb(0,0,0)"  stroke-width="1.0"/>
<line x1="140.1" y1="109.6" x2="100.0" y2="109.0" stroke="rgb(0,0,0)"  stroke-width="1.0"/>
<line x1="134.0" y1="116.7" x2="105.9" y2="116.3" stroke="rgb(0,0,0)"  stroke-width="1.0"/>
<line x1="100.0" y1="109.0" x2="80.0" y2="143.9" stroke="rgb(0,0,0)"  stroke-width="1.0"/>
<line x1="80.0" y1="143.9" x2="100.0" y2="178.7" stroke="rgb(0,0,0)"  stroke-width="1.0"/>
<line x1="89.3" y1="145.6" x2="103.3" y2="169.9" stroke="rgb(0,0,0)"  stroke-width="1.0"/>
<line x1="100.0" y1="178.7" x2="140.1" y2="178.3" stroke="rgb(0,0,0)"  stroke-width="1.0"/>
<text x="272.785457" y="290.278884" fill="rgb(12,12,255)"  stroke="rgb(12,12,255)" stroke-width="1" font-size="16" >NH</text>
<text x="153.877927" y="221.113876" fill="rgb(12,12,255)"  stroke="rgb(12,12,255)" stroke-width="1" font-size="16" >N</text>
<text x="153.877927" y="237.113876" fill="rgb(12,12,255)"  stroke="rgb(12,12,255)" stroke-width="1" font-size="16" >H</text>
<text x="213.722276" y="185.946709" fill="rgb(255,12,12)"  stroke="rgb(255,12,12)" stroke-width="1" font-size="16" >O</text>
<text x="213.722276" y="324.669734" fill="rgb(12,12,255)"  stroke="rgb(12,12,255)" stroke-width="1" font-size="16" >N</text>
<text x="213.722276" y="340.669734" fill="rgb(12,12,255)"  stroke="rgb(12,12,255)" stroke-width="1" font-size="16" >H</text>
<text x="133.101609" y="290.861122" fill="rgb(102,102,102)"  stroke="rgb(102,102,102)" stroke-width="1" font-size="16" >H</text>
<text x="145.101609" y="294.541122" fill="rgb(102,102,102)"  stroke="rgb(102,102,102)" stroke-width="1" font-size="13" >3</text>
<text x="151.601609" y="290.861122" fill="rgb(102,102,102)"  stroke="rgb(102,102,102)" stroke-width="1" font-size="16" >C</text>
<text x="273.367695" y="359.836902" fill="rgb(255,12,12)"  stroke="rgb(255,12,12)" stroke-width="1" font-size="16" >O</text>
<text x="374.007511" y="185.946709" fill="rgb(255,12,12)"  stroke="rgb(255,12,12)" stroke-width="1" font-size="16" >O</text>
<text x="333.401272" y="117.359087" fill="rgb(255,12,12)"  stroke="rgb(255,12,12)" stroke-width="1" font-size="16" >O</text>
<text x="435.463702" y="150.779541" fill="rgb(102,102,102)"  stroke="rgb(102,102,102)" stroke-width="1" font-size="16" >CH</text>
<text x="459.463702" y="154.459541" fill="rgb(102,102,102)"  stroke="rgb(102,102,102)" stroke-width="1" font-size="13" >3</text>
<text x="14.000000" y="151.944017" fill="rgb(102,102,102)"  stroke="rgb(102,102,102)" stroke-width="1" font-size="16" >H</text>
<text x="26.000000" y="155.624017" fill="rgb(102,102,102)"  stroke="rgb(102,102,102)" stroke-width="1" font-size="13" >3</text>
<text x="32.500000" y="151.944017" fill="rgb(102,102,102)"  stroke="rgb(102,102,102)" stroke-width="1" font-size="16" >C</text>
<text x="413.061117" y="48.000000" fill="rgb(102,102,102)"  stroke="rgb(102,102,102)" stroke-width="1" font-size="16" >CH</text>
<text x="54.218081" y="82.385999" fill="rgb(102,102,102)"  stroke="rgb(102,102,102)" stroke-width="1" font-size="16" >H</text>
<text x="66.218081" y="86.065999" fill="rgb(102,102,102)"  stroke="rgb(102,102,102)" stroke-width="1" font-size="13" >3</text>
<text x="72.718081" y="82.385999" fill="rgb(102,102,102)"  stroke="rgb(102,102,102)" stroke-width="1" font-size="16" >C</text>
<text font-size="18.000000" fill ="black" font-family="sans-serif"
x="10.000000" y="20.000000" ></text>
<title> - OBDepict</title>
</svg>
