<?xml version="1.0"?>
<svg xmlns="http://www.w3.org/2000/svg"
xmlns:xlink="http://www.w3.org/1999/xlink" xmlns:cml="http://www.xml-cml.org/schema" width="599.553" height="319.979" x="0" y="0" font-family="sans-serif" stroke="rgb(0,0,0)" stroke-width="1"  stroke-linecap="round">
<rect x="0%" y="0%" width="100%" height="100%" stroke-width="0" fill="rgb(255,255,255)"  />
<line x1="74.5" y1="180.0" x2="109.3" y2="160.0" stroke="rgb(0,0,0)"  stroke-width="1.0"/>
<line x1="51.3" y1="193.5" x2="74.5" y2="180.0" stroke="rgb(0,0,0)"  stroke-width="1.0"/>
<line x1="49.1" y1="189.8" x2="72.4" y2="176.4" stroke="rgb(0,0,0)"  stroke-width="1.0"/>
<line x1="53.4" y1="197.1" x2="76.6" y2="183.6" stroke="rgb(0,0,0)"  stroke-width="1.0"/>
<line x1="328.4" y1="113.5" x2="351.7" y2="100.0" stroke="rgb(0,0,0)"  stroke-width="1.0"/>
<line x1="283.9" y1="97.4" x2="307.4" y2="110.9" stroke="rgb(0,0,0)"  stroke-width="1.0"/>
<line x1="280.9" y1="102.6" x2="304.4" y2="116.1" stroke="rgb(0,0,0)"  stroke-width="1.0"/>
<line x1="455.5" y1="40.0" x2="432.2" y2="53.5" stroke="rgb(0,0,0)"  stroke-width="1.0"/>
<line x1="247.9" y1="120.0" x2="282.4" y2="100.0" stroke="rgb(0,0,0)"  stroke-width="1.0"/>
<line x1="213.1" y1="207.0" x2="213.1" y2="180.0" stroke="rgb(0,0,0)"  stroke-width="1.0"/>
<line x1="155.1" y1="173.5" x2="178.6" y2="160.0" stroke="rgb(0,0,0)"  stroke-width="1.0"/>
<line x1="490.3" y1="60.0" x2="455.5" y2="40.0" stroke="rgb(0,0,0)"  stroke-width="1.0"/>
<line x1="109.3" y1="160.0" x2="132.6" y2="173.5" stroke="rgb(0,0,0)"  stroke-width="1.0"/>
<line x1="247.9" y1="240.0" x2="224.4" y2="226.5" stroke="rgb(0,0,0)"  stroke-width="1.0"/>
<line x1="247.9" y1="267.0" x2="247.9" y2="240.0" stroke="rgb(0,0,0)"  stroke-width="1.0"/>
<line x1="213.1" y1="180.0" x2="178.6" y2="160.0" stroke="rgb(0,0,0)"  stroke-width="1.0"/>
<line x1="211.5" y1="170.8" x2="187.4" y2="156.8" stroke="rgb(0,0,0)"  stroke-width="1.0"/>
<line x1="178.6" y1="160.0" x2="178.6" y2="120.0" stroke="rgb(0,0,0)"  stroke-width="1.0"/>
<line x1="178.6" y1="120.0" x2="213.1" y2="100.0" stroke="rgb(0,0,0)"  stroke-width="1.0"/>
<line x1="187.4" y1="123.2" x2="211.5" y2="109.2" stroke="rgb(0,0,0)"  stroke-width="1.0"/>
<line x1="213.1" y1="100.0" x2="247.9" y2="120.0" stroke="rgb(0,0,0)"  stroke-width="1.0"/>
<line x1="247.9" y1="120.0" x2="247.9" y2="160.0" stroke="rgb(0,0,0)"  stroke-width="1.0"/>
<line x1="240.7" y1="126.0" x2="240.7" y2="154.0" stroke="rgb(0,0,0)"  stroke-width="1.0"/>
<line x1="247.9" y1="160.0" x2="213.1" y2="180.0" stroke="rgb(0,0,0)"  stroke-width="1.0"/>
<line x1="421.0" y1="73.0" x2="421.0" y2="100.0" stroke="rgb(0,0,0)"  stroke-width="1.0"/>
<line x1="421.0" y1="100.0" x2="386.2" y2="120.0" stroke="rgb(0,0,0)"  stroke-width="1.0"/>
<line x1="386.2" y1="120.0" x2="351.7" y2="100.0" stroke="rgb(0,0,0)"  stroke-width="1.0"/>
<line x1="351.7" y1="100.0" x2="351.7" y2="60.0" stroke="rgb(0,0,0)"  stroke-width="1.0"/>
<line x1="351.7" y1="60.0" x2="386.2" y2="40.0" stroke="rgb(0,0,0)"  stroke-width="1.0"/>
<line x1="386.2" y1="40.0" x2="409.7" y2="53.5" stroke="rgb(0,0,0)"  stroke-width="1.0"/>
<line x1="490.3" y1="60.0" x2="524.8" y2="40.0" stroke="rgb(0,0,0)"  stroke-width="1.0"/>
<line x1="499.1" y1="63.2" x2="523.2" y2="49.2" stroke="rgb(0,0,0)"  stroke-width="1.0"/>
<line x1="524.8" y1="40.0" x2="559.6" y2="60.0" stroke="rgb(0,0,0)"  stroke-width="1.0"/>
<line x1="559.6" y1="60.0" x2="559.6" y2="100.0" stroke="rgb(0,0,0)"  stroke-width="1.0"/>
<line x1="552.4" y1="66.0" x2="552.4" y2="94.0" stroke="rgb(0,0,0)"  stroke-width="1.0"/>
<line x1="559.6" y1="100.0" x2="524.8" y2="120.0" stroke="rgb(0,0,0)"  stroke-width="1.0"/>
<line x1="524.8" y1="120.0" x2="490.3" y2="100.0" stroke="rgb(0,0,0)"  stroke-width="1.0"/>
<line x1="523.2" y1="110.8" x2="499.1" y2="96.8" stroke="rgb(0,0,0)"  stroke-width="1.0"/>
<line x1="490.3" y1="100.0" x2="490.3" y2="60.0" stroke="rgb(0,0,0)"  stroke-width="1.0"/>
<text x="414.980597" y="67.998282" fill="rgb(12,12,255)"  stroke="rgb(12,12,255)" stroke-width="1" font-size="16" >N</text>
<text x="22.000000" y="207.986253" fill="rgb(102,102,102)"  stroke="rgb(102,102,102)" stroke-width="1" font-size="16" >HC</text>
<text x="311.149519" y="127.993127" fill="rgb(12,12,255)"  stroke="rgb(12,12,255)" stroke-width="1" font-size="16" >N</text>
<text x="207.119670" y="227.984535" fill="rgb(255,12,12)"  stroke="rgb(255,12,12)" stroke-width="1" font-size="16" >O</text>
<text x="137.831078" y="187.987971" fill="rgb(255,12,12)"  stroke="rgb(255,12,12)" stroke-width="1" font-size="16" >O</text>
<text x="243.860927" y="287.979380" fill="rgb(102,102,102)"  stroke="rgb(102,102,102)" stroke-width="1" font-size="16" >CH</text>
<text x="267.860927" y="291.659380" fill="rgb(102,102,102)"  stroke="rgb(102,102,102)" stroke-width="1" font-size="13" >3</text>
<text font-size="18.000000" fill ="black" font-family="sans-serif"
x="10.000000" y="20.000000" ></text>
<title> - OBDepict</title>
</svg>
