<?xml version="1.0"?>
<svg xmlns="http://www.w3.org/2000/svg"
xmlns:xlink="http://www.w3.org/1999/xlink" xmlns:cml="http://www.xml-cml.org/schema" width="387.166" height="298.164" x="0" y="0" font-family="sans-serif" stroke="rgb(0,0,0)" stroke-width="1"  stroke-linecap="round">
<rect x="0%" y="0%" width="100%" height="100%" stroke-width="0" fill="rgb(255,255,255)"  />
<line x1="183.7" y1="198.5" x2="183.7" y2="225.2" stroke="rgb(0,0,0)"  stroke-width="1.0"/>
<line x1="177.7" y1="198.5" x2="177.7" y2="225.2" stroke="rgb(0,0,0)"  stroke-width="1.0"/>
<line x1="227.6" y1="184.7" x2="250.8" y2="197.8" stroke="rgb(0,0,0)"  stroke-width="1.0"/>
<line x1="216.3" y1="138.1" x2="239.5" y2="125.0" stroke="rgb(0,0,0)"  stroke-width="1.0"/>
<line x1="250.8" y1="197.8" x2="284.6" y2="177.6" stroke="rgb(0,0,0)"  stroke-width="1.0"/>
<line x1="250.8" y1="105.6" x2="250.8" y2="78.9" stroke="rgb(0,0,0)"  stroke-width="1.0"/>
<line x1="250.8" y1="78.9" x2="216.7" y2="59.3" stroke="rgb(0,0,0)"  stroke-width="1.0"/>
<line x1="216.7" y1="59.3" x2="193.9" y2="46.4" stroke="rgb(0,0,0)"  stroke-width="1.0"/>
<line x1="214.6" y1="63.0" x2="191.9" y2="50.1" stroke="rgb(0,0,0)"  stroke-width="1.0"/>
<line x1="218.8" y1="55.7" x2="196.0" y2="42.8" stroke="rgb(0,0,0)"  stroke-width="1.0"/>
<line x1="110.1" y1="199.1" x2="141.2" y2="220.0" stroke="rgb(0,0,0)"  stroke-width="1.0"/>
<line x1="141.2" y1="220.0" x2="128.6" y2="258.2" stroke="rgb(0,0,0)"  stroke-width="1.0"/>
<line x1="128.6" y1="258.2" x2="90.8" y2="258.2" stroke="rgb(0,0,0)"  stroke-width="1.0"/>
<line x1="90.8" y1="258.2" x2="76.5" y2="222.6" stroke="rgb(0,0,0)"  stroke-width="1.0"/>
<line x1="76.5" y1="222.6" x2="110.1" y2="199.1" stroke="rgb(0,0,0)"  stroke-width="1.0"/>
<line x1="284.6" y1="177.6" x2="286.4" y2="138.6" stroke="rgb(0,0,0)"  stroke-width="1.0"/>
<line x1="286.4" y1="138.6" x2="325.5" y2="129.2" stroke="rgb(0,0,0)"  stroke-width="1.0"/>
<line x1="325.5" y1="129.2" x2="347.2" y2="161.3" stroke="rgb(0,0,0)"  stroke-width="1.0"/>
<line x1="347.2" y1="161.3" x2="323.3" y2="192.2" stroke="rgb(0,0,0)"  stroke-width="1.0"/>
<line x1="323.3" y1="192.2" x2="284.6" y2="177.6" stroke="rgb(0,0,0)"  stroke-width="1.0"/>
<line x1="145.7" y1="178.3" x2="145.7" y2="138.1" stroke="rgb(0,0,0)"  stroke-width="1.0"/>
<line x1="138.5" y1="172.3" x2="138.5" y2="144.1" stroke="rgb(0,0,0)"  stroke-width="1.0"/>
<line x1="145.7" y1="138.1" x2="110.1" y2="116.6" stroke="rgb(0,0,0)"  stroke-width="1.0"/>
<line x1="110.1" y1="116.6" x2="74.9" y2="136.8" stroke="rgb(0,0,0)"  stroke-width="1.0"/>
<line x1="108.5" y1="125.9" x2="83.7" y2="140.1" stroke="rgb(0,0,0)"  stroke-width="1.0"/>
<line x1="74.9" y1="136.8" x2="74.9" y2="178.3" stroke="rgb(0,0,0)"  stroke-width="1.0"/>
<line x1="74.9" y1="178.3" x2="110.1" y2="199.1" stroke="rgb(0,0,0)"  stroke-width="1.0"/>
<line x1="110.1" y1="199.1" x2="145.7" y2="178.3" stroke="rgb(0,0,0)"  stroke-width="1.0"/>
<line x1="110.1" y1="76.5" x2="110.1" y2="116.6" stroke="rgb(0,0,0)"  stroke-width="1.0"/>
<line x1="74.9" y1="136.8" x2="40.0" y2="116.6" stroke="rgb(0,0,0)"  stroke-width="1.0"/>
<line x1="40.0" y1="116.6" x2="40.0" y2="76.5" stroke="rgb(0,0,0)"  stroke-width="1.0"/>
<line x1="47.2" y1="110.6" x2="47.2" y2="82.5" stroke="rgb(0,0,0)"  stroke-width="1.0"/>
<line x1="40.0" y1="76.5" x2="74.9" y2="56.3" stroke="rgb(0,0,0)"  stroke-width="1.0"/>
<line x1="74.9" y1="56.3" x2="110.1" y2="76.5" stroke="rgb(0,0,0)"  stroke-width="1.0"/>
<line x1="76.6" y1="65.5" x2="101.3" y2="79.7" stroke="rgb(0,0,0)"  stroke-width="1.0"/>
<line x1="145.7" y1="178.3" x2="180.7" y2="198.5" stroke="rgb(0,0,0)"  stroke-width="1.0"/>
<line x1="180.7" y1="198.5" x2="205.0" y2="184.7" stroke="rgb(0,0,0)"  stroke-width="1.0"/>
<line x1="216.3" y1="165.3" x2="216.3" y2="138.1" stroke="rgb(0,0,0)"  stroke-width="1.0"/>
<line x1="216.3" y1="138.1" x2="192.4" y2="124.6" stroke="rgb(0,0,0)"  stroke-width="1.0"/>
<line x1="207.5" y1="141.4" x2="190.5" y2="131.8" stroke="rgb(0,0,0)"  stroke-width="1.0"/>
<line x1="169.4" y1="124.4" x2="145.7" y2="138.1" stroke="rgb(0,0,0)"  stroke-width="1.0"/>
<text x="174.668898" y="125.928631" fill="rgb(12,12,255)"  stroke="rgb(12,12,255)" stroke-width="1" font-size="16" >N</text>
<text x="210.265866" y="186.277911" fill="rgb(12,12,255)"  stroke="rgb(12,12,255)" stroke-width="1" font-size="16" >N</text>
<text x="174.668898" y="246.193794" fill="rgb(255,12,12)"  stroke="rgb(255,12,12)" stroke-width="1" font-size="16" >O</text>
<text x="244.786648" y="126.586031" fill="rgb(178,178,0)"  stroke="rgb(178,178,0)" stroke-width="1" font-size="16" >S</text>
<text x="164.621618" y="48.000000" fill="rgb(102,102,102)"  stroke="rgb(102,102,102)" stroke-width="1" font-size="16" >HC</text>
<text font-size="18.000000" fill ="black" font-family="sans-serif"
x="10.000000" y="20.000000" ></text>
<title> - OBDepict</title>
</svg>
