<?xml version="1.0"?>
<svg xmlns="http://www.w3.org/2000/svg"
xmlns:xlink="http://www.w3.org/1999/xlink" xmlns:cml="http://www.xml-cml.org/schema" width="462.391" height="381.079" x="0" y="0" font-family="sans-serif" stroke="rgb(0,0,0)" stroke-width="1"  stroke-linecap="round">
<rect x="0%" y="0%" width="100%" height="100%" stroke-width="0" fill="rgb(255,255,255)"  />
<line x1="177.5" y1="198.7" x2="212.2" y2="219.1" stroke="rgb(0,0,0)"  stroke-width="1.0"/>
<line x1="188.7" y1="152.9" x2="212.0" y2="139.4" stroke="rgb(0,0,0)"  stroke-width="1.0"/>
<line x1="140.1" y1="139.6" x2="140.1" y2="112.7" stroke="rgb(0,0,0)"  stroke-width="1.0"/>
<line x1="146.1" y1="139.6" x2="146.1" y2="112.7" stroke="rgb(0,0,0)"  stroke-width="1.0"/>
<line x1="247.2" y1="279.8" x2="247.7" y2="308.0" stroke="rgb(0,0,0)"  stroke-width="1.0"/>
<line x1="282.2" y1="259.8" x2="306.2" y2="273.4" stroke="rgb(0,0,0)"  stroke-width="1.0"/>
<line x1="236.7" y1="327.5" x2="224.1" y2="334.6" stroke="rgb(0,0,0)"  stroke-width="1.0"/>
<line x1="280.6" y1="99.5" x2="303.5" y2="86.2" stroke="rgb(0,0,0)"  stroke-width="1.0"/>
<line x1="328.8" y1="273.3" x2="352.3" y2="259.8" stroke="rgb(0,0,0)"  stroke-width="1.0"/>
<line x1="314.8" y1="66.7" x2="314.8" y2="53.0" stroke="rgb(0,0,0)"  stroke-width="1.0"/>
<line x1="352.3" y1="259.8" x2="387.4" y2="279.8" stroke="rgb(0,0,0)"  stroke-width="1.0"/>
<line x1="387.4" y1="279.8" x2="411.2" y2="293.7" stroke="rgb(0,0,0)"  stroke-width="1.0"/>
<line x1="389.6" y1="276.2" x2="413.3" y2="290.0" stroke="rgb(0,0,0)"  stroke-width="1.0"/>
<line x1="385.3" y1="283.4" x2="409.0" y2="297.3" stroke="rgb(0,0,0)"  stroke-width="1.0"/>
<line x1="177.5" y1="198.7" x2="154.5" y2="212.4" stroke="rgb(0,0,0)"  stroke-width="1.0"/>
<line x1="132.0" y1="212.7" x2="108.3" y2="199.3" stroke="rgb(0,0,0)"  stroke-width="1.0"/>
<line x1="108.3" y1="199.3" x2="108.9" y2="159.4" stroke="rgb(0,0,0)"  stroke-width="1.0"/>
<line x1="108.9" y1="159.4" x2="143.1" y2="139.6" stroke="rgb(0,0,0)"  stroke-width="1.0"/>
<line x1="143.1" y1="139.6" x2="166.2" y2="152.9" stroke="rgb(0,0,0)"  stroke-width="1.0"/>
<line x1="177.5" y1="172.4" x2="177.5" y2="198.7" stroke="rgb(0,0,0)"  stroke-width="1.0"/>
<line x1="74.8" y1="219.1" x2="108.3" y2="199.3" stroke="rgb(0,0,0)"  stroke-width="1.0"/>
<line x1="76.3" y1="209.9" x2="99.5" y2="196.1" stroke="rgb(0,0,0)"  stroke-width="1.0"/>
<line x1="108.9" y1="159.4" x2="74.2" y2="139.6" stroke="rgb(0,0,0)"  stroke-width="1.0"/>
<line x1="100.2" y1="162.7" x2="75.8" y2="148.8" stroke="rgb(0,0,0)"  stroke-width="1.0"/>
<line x1="74.2" y1="139.6" x2="40.0" y2="159.6" stroke="rgb(0,0,0)"  stroke-width="1.0"/>
<line x1="40.0" y1="159.6" x2="40.0" y2="199.5" stroke="rgb(0,0,0)"  stroke-width="1.0"/>
<line x1="47.2" y1="165.6" x2="47.2" y2="193.5" stroke="rgb(0,0,0)"  stroke-width="1.0"/>
<line x1="40.0" y1="199.5" x2="74.8" y2="219.1" stroke="rgb(0,0,0)"  stroke-width="1.0"/>
<line x1="212.2" y1="219.1" x2="247.2" y2="198.7" stroke="rgb(0,0,0)"  stroke-width="1.0"/>
<line x1="247.2" y1="198.7" x2="282.6" y2="219.1" stroke="rgb(0,0,0)"  stroke-width="1.0"/>
<line x1="248.8" y1="207.9" x2="273.8" y2="222.3" stroke="rgb(0,0,0)"  stroke-width="1.0"/>
<line x1="282.6" y1="219.1" x2="282.2" y2="259.8" stroke="rgb(0,0,0)"  stroke-width="1.0"/>
<line x1="282.2" y1="259.8" x2="247.2" y2="279.8" stroke="rgb(0,0,0)"  stroke-width="1.0"/>
<line x1="273.4" y1="256.5" x2="248.8" y2="270.6" stroke="rgb(0,0,0)"  stroke-width="1.0"/>
<line x1="247.2" y1="279.8" x2="212.2" y2="259.2" stroke="rgb(0,0,0)"  stroke-width="1.0"/>
<line x1="212.2" y1="259.2" x2="212.2" y2="219.1" stroke="rgb(0,0,0)"  stroke-width="1.0"/>
<line x1="219.4" y1="253.2" x2="219.4" y2="225.1" stroke="rgb(0,0,0)"  stroke-width="1.0"/>
<line x1="212.0" y1="139.4" x2="212.0" y2="99.5" stroke="rgb(0,0,0)"  stroke-width="1.0"/>
<line x1="212.0" y1="99.5" x2="246.2" y2="79.7" stroke="rgb(0,0,0)"  stroke-width="1.0"/>
<line x1="220.8" y1="102.7" x2="244.6" y2="88.9" stroke="rgb(0,0,0)"  stroke-width="1.0"/>
<line x1="246.2" y1="79.7" x2="280.6" y2="99.5" stroke="rgb(0,0,0)"  stroke-width="1.0"/>
<line x1="280.6" y1="99.5" x2="280.6" y2="139.0" stroke="rgb(0,0,0)"  stroke-width="1.0"/>
<line x1="273.4" y1="105.5" x2="273.4" y2="133.0" stroke="rgb(0,0,0)"  stroke-width="1.0"/>
<line x1="280.6" y1="139.0" x2="246.2" y2="158.8" stroke="rgb(0,0,0)"  stroke-width="1.0"/>
<line x1="246.2" y1="158.8" x2="212.0" y2="139.4" stroke="rgb(0,0,0)"  stroke-width="1.0"/>
<line x1="244.6" y1="149.6" x2="220.8" y2="136.1" stroke="rgb(0,0,0)"  stroke-width="1.0"/>
<text x="171.478553" y="167.404416" fill="rgb(12,12,255)"  stroke="rgb(12,12,255)" stroke-width="1" font-size="16" >N</text>
<text x="137.303585" y="227.111460" fill="rgb(12,12,255)"  stroke="rgb(12,12,255)" stroke-width="1" font-size="16" >N</text>
<text x="137.303585" y="243.111460" fill="rgb(12,12,255)"  stroke="rgb(12,12,255)" stroke-width="1" font-size="16" >H</text>
<text x="137.110124" y="107.707044" fill="rgb(255,12,12)"  stroke="rgb(255,12,12)" stroke-width="1" font-size="16" >O</text>
<text x="241.985583" y="329.046305" fill="rgb(255,12,12)"  stroke="rgb(255,12,12)" stroke-width="1" font-size="16" >O</text>
<text x="311.510797" y="287.800321" fill="rgb(255,12,12)"  stroke="rgb(255,12,12)" stroke-width="1" font-size="16" >O</text>
<text x="186.833635" y="349.079240" fill="rgb(102,102,102)"  stroke="rgb(102,102,102)" stroke-width="1" font-size="16" >H</text>
<text x="198.833635" y="352.759240" fill="rgb(102,102,102)"  stroke="rgb(102,102,102)" stroke-width="1" font-size="13" >3</text>
<text x="205.333635" y="349.079240" fill="rgb(102,102,102)"  stroke="rgb(102,102,102)" stroke-width="1" font-size="16" >C</text>
<text x="308.768481" y="87.669273" fill="rgb(255,12,12)"  stroke="rgb(255,12,12)" stroke-width="1" font-size="16" >O</text>
<text x="310.768481" y="48.000000" fill="rgb(102,102,102)"  stroke="rgb(102,102,102)" stroke-width="1" font-size="16" >CH</text>
<text x="334.768481" y="51.680000" fill="rgb(102,102,102)"  stroke="rgb(102,102,102)" stroke-width="1" font-size="13" >3</text>
<text x="416.391093" y="308.225015" fill="rgb(102,102,102)"  stroke="rgb(102,102,102)" stroke-width="1" font-size="16" >CH</text>
<text font-size="18.000000" fill ="black" font-family="sans-serif"
x="10.000000" y="20.000000" ></text>
<title> - OBDepict</title>
</svg>
