<?xml version="1.0"?>
<svg xmlns="http://www.w3.org/2000/svg"
xmlns:xlink="http://www.w3.org/1999/xlink" xmlns:cml="http://www.xml-cml.org/schema" width="271.968" height="234.469" x="0" y="0" font-family="sans-serif" stroke="rgb(0,0,0)" stroke-width="1"  stroke-linecap="round">
<rect x="0%" y="0%" width="100%" height="100%" stroke-width="0" fill="rgb(255,255,255)"  />
<line x1="178.6" y1="142.9" x2="171.2" y2="111.7" stroke="rgb(0,0,0)"  stroke-width="1.0"/>
<line x1="111.5" y1="75.4" x2="151.9" y2="76.1" stroke="rgb(0,0,0)"  stroke-width="1.0"/>
<line x1="54.2" y1="168.4" x2="48.4" y2="123.0" stroke="rgb(0,0,0)"  stroke-width="1.0"/>
<line x1="46.2" y1="183.0" x2="54.2" y2="168.4" stroke="rgb(0,0,0)"  stroke-width="1.0"/>
<line x1="42.5" y1="181.0" x2="50.5" y2="166.4" stroke="rgb(0,0,0)"  stroke-width="1.0"/>
<line x1="49.9" y1="185.1" x2="57.9" y2="170.4" stroke="rgb(0,0,0)"  stroke-width="1.0"/>
<line x1="160.2" y1="155.0" x2="176.6" y2="140.6" stroke="rgb(0,0,0)"  stroke-width="1.0"/>
<line x1="164.2" y1="159.6" x2="180.6" y2="145.1" stroke="rgb(0,0,0)"  stroke-width="1.0"/>
<line x1="100.6" y1="49.9" x2="114.1" y2="74.0" stroke="rgb(0,0,0)"  stroke-width="1.0"/>
<line x1="95.3" y1="52.8" x2="108.9" y2="76.9" stroke="rgb(0,0,0)"  stroke-width="1.0"/>
<line x1="203.1" y1="151.7" x2="178.6" y2="142.9" stroke="rgb(0,0,0)"  stroke-width="1.0"/>
<line x1="96.9" y1="98.6" x2="111.5" y2="75.4" stroke="rgb(0,0,0)"  stroke-width="1.0"/>
<line x1="48.4" y1="123.0" x2="77.6" y2="113.6" stroke="rgb(0,0,0)"  stroke-width="1.0"/>
<line x1="172.4" y1="42.1" x2="169.8" y2="84.3" stroke="rgb(0,0,0)"  stroke-width="1.0"/>
<line x1="169.8" y1="84.3" x2="211.2" y2="112.6" stroke="rgb(0,0,0)"  stroke-width="1.0"/>
<line x1="211.2" y1="112.6" x2="232.0" y2="78.2" stroke="rgb(0,0,0)"  stroke-width="1.0"/>
<line x1="232.0" y1="78.2" x2="212.5" y2="42.8" stroke="rgb(0,0,0)"  stroke-width="1.0"/>
<line x1="222.8" y1="76.4" x2="209.1" y2="51.5" stroke="rgb(0,0,0)"  stroke-width="1.0"/>
<line x1="212.5" y1="42.8" x2="172.4" y2="42.1" stroke="rgb(0,0,0)"  stroke-width="1.0"/>
<line x1="172.4" y1="42.1" x2="151.9" y2="76.1" stroke="rgb(0,0,0)"  stroke-width="1.0"/>
<line x1="151.9" y1="76.1" x2="171.2" y2="111.7" stroke="rgb(0,0,0)"  stroke-width="1.0"/>
<line x1="171.2" y1="111.7" x2="211.2" y2="112.6" stroke="rgb(0,0,0)"  stroke-width="1.0"/>
<text x="22.000000" y="202.468871" fill="rgb(102,102,102)"  stroke="rgb(102,102,102)" stroke-width="1" font-size="16" >HC</text>
<text x="146.404671" y="173.874228" fill="rgb(255,12,12)"  stroke="rgb(255,12,12)" stroke-width="1" font-size="16" >O</text>
<text x="85.590849" y="48.000000" fill="rgb(255,12,12)"  stroke="rgb(255,12,12)" stroke-width="1" font-size="16" >O</text>
<text x="209.290356" y="164.136963" fill="rgb(255,12,12)"  stroke="rgb(255,12,12)" stroke-width="1" font-size="16" >OH</text>
<text x="83.935319" y="117.620463" fill="rgb(255,12,12)"  stroke="rgb(255,12,12)" stroke-width="1" font-size="16" >O</text>
<text font-size="18.000000" fill ="black" font-family="sans-serif"
x="10.000000" y="20.000000" ></text>
<title> - OBDepict</title>
</svg>
