<?xml version="1.0"?>
<svg xmlns="http://www.w3.org/2000/svg"
xmlns:xlink="http://www.w3.org/1999/xlink" xmlns:cml="http://www.xml-cml.org/schema" width="460.024" height="324.219" x="0" y="0" font-family="sans-serif" stroke="rgb(0,0,0)" stroke-width="1"  stroke-linecap="round">
<rect x="0%" y="0%" width="100%" height="100%" stroke-width="0" fill="rgb(255,255,255)"  />
<line x1="228.4" y1="53.4" x2="240.3" y2="46.5" stroke="rgb(0,0,0)"  stroke-width="1.0"/>
<line x1="408.9" y1="277.6" x2="386.2" y2="264.1" stroke="rgb(0,0,0)"  stroke-width="1.0"/>
<line x1="406.7" y1="281.2" x2="384.0" y2="267.7" stroke="rgb(0,0,0)"  stroke-width="1.0"/>
<line x1="411.0" y1="274.0" x2="388.3" y2="260.5" stroke="rgb(0,0,0)"  stroke-width="1.0"/>
<line x1="179.0" y1="155.2" x2="179.0" y2="182.1" stroke="rgb(0,0,0)"  stroke-width="1.0"/>
<line x1="282.2" y1="242.9" x2="305.4" y2="256.5" stroke="rgb(0,0,0)"  stroke-width="1.0"/>
<line x1="144.6" y1="121.6" x2="167.9" y2="135.5" stroke="rgb(0,0,0)"  stroke-width="1.0"/>
<line x1="109.5" y1="142.0" x2="144.6" y2="121.6" stroke="rgb(0,0,0)"  stroke-width="1.0"/>
<line x1="179.0" y1="182.1" x2="213.5" y2="202.6" stroke="rgb(0,0,0)"  stroke-width="1.0"/>
<line x1="307.1" y1="189.9" x2="282.8" y2="203.2" stroke="rgb(0,0,0)"  stroke-width="1.0"/>
<line x1="328.0" y1="256.7" x2="351.3" y2="243.5" stroke="rgb(0,0,0)"  stroke-width="1.0"/>
<line x1="351.3" y1="243.5" x2="386.2" y2="264.1" stroke="rgb(0,0,0)"  stroke-width="1.0"/>
<line x1="144.6" y1="95.3" x2="144.6" y2="121.6" stroke="rgb(0,0,0)"  stroke-width="1.0"/>
<line x1="341.8" y1="197.6" x2="329.6" y2="190.3" stroke="rgb(0,0,0)"  stroke-width="1.0"/>
<line x1="282.8" y1="203.2" x2="248.3" y2="182.7" stroke="rgb(0,0,0)"  stroke-width="1.0"/>
<line x1="248.3" y1="182.7" x2="213.5" y2="202.6" stroke="rgb(0,0,0)"  stroke-width="1.0"/>
<line x1="246.7" y1="191.9" x2="222.3" y2="205.9" stroke="rgb(0,0,0)"  stroke-width="1.0"/>
<line x1="213.5" y1="202.6" x2="212.9" y2="241.9" stroke="rgb(0,0,0)"  stroke-width="1.0"/>
<line x1="212.9" y1="241.9" x2="247.3" y2="262.5" stroke="rgb(0,0,0)"  stroke-width="1.0"/>
<line x1="221.7" y1="238.8" x2="245.9" y2="253.2" stroke="rgb(0,0,0)"  stroke-width="1.0"/>
<line x1="247.3" y1="262.5" x2="282.2" y2="242.9" stroke="rgb(0,0,0)"  stroke-width="1.0"/>
<line x1="282.2" y1="242.9" x2="282.8" y2="203.2" stroke="rgb(0,0,0)"  stroke-width="1.0"/>
<line x1="275.1" y1="236.8" x2="275.5" y2="209.1" stroke="rgb(0,0,0)"  stroke-width="1.0"/>
<line x1="109.5" y1="142.0" x2="75.1" y2="121.6" stroke="rgb(0,0,0)"  stroke-width="1.0"/>
<line x1="100.7" y1="145.1" x2="76.6" y2="130.9" stroke="rgb(0,0,0)"  stroke-width="1.0"/>
<line x1="75.1" y1="121.6" x2="40.6" y2="140.7" stroke="rgb(0,0,0)"  stroke-width="1.0"/>
<line x1="40.6" y1="140.7" x2="40.0" y2="181.5" stroke="rgb(0,0,0)"  stroke-width="1.0"/>
<line x1="47.7" y1="146.9" x2="47.3" y2="175.6" stroke="rgb(0,0,0)"  stroke-width="1.0"/>
<line x1="40.0" y1="181.5" x2="74.9" y2="201.8" stroke="rgb(0,0,0)"  stroke-width="1.0"/>
<line x1="74.9" y1="201.8" x2="109.5" y2="182.1" stroke="rgb(0,0,0)"  stroke-width="1.0"/>
<line x1="76.5" y1="192.6" x2="100.7" y2="178.8" stroke="rgb(0,0,0)"  stroke-width="1.0"/>
<line x1="109.5" y1="182.1" x2="109.5" y2="142.0" stroke="rgb(0,0,0)"  stroke-width="1.0"/>
<text x="245.570913" y="48.000000" fill="rgb(30,239,30)"  stroke="rgb(30,239,30)" stroke-width="1" font-size="16" >Cl</text>
<text x="211.114328" y="67.952642" fill="rgb(191,191,191)"  stroke="rgb(191,191,191)" stroke-width="1" font-size="16" >H</text>
<text x="414.023704" y="292.219365" fill="rgb(102,102,102)"  stroke="rgb(102,102,102)" stroke-width="1" font-size="16" >CH</text>
<text x="173.031758" y="150.159471" fill="rgb(12,12,255)"  stroke="rgb(12,12,255)" stroke-width="1" font-size="16" >NH</text>
<text x="312.466944" y="191.668743" fill="rgb(255,12,12)"  stroke="rgb(255,12,12)" stroke-width="1" font-size="16" >O</text>
<text x="310.653951" y="271.061301" fill="rgb(255,12,12)"  stroke="rgb(255,12,12)" stroke-width="1" font-size="16" >O</text>
<text x="140.575174" y="90.316127" fill="rgb(102,102,102)"  stroke="rgb(102,102,102)" stroke-width="1" font-size="16" >CH</text>
<text x="164.575174" y="93.996127" fill="rgb(102,102,102)"  stroke="rgb(102,102,102)" stroke-width="1" font-size="13" >3</text>
<text x="348.923528" y="212.219235" fill="rgb(102,102,102)"  stroke="rgb(102,102,102)" stroke-width="1" font-size="16" >CH</text>
<text x="372.923528" y="215.899235" fill="rgb(102,102,102)"  stroke="rgb(102,102,102)" stroke-width="1" font-size="13" >3</text>
<text font-size="18.000000" fill ="black" font-family="sans-serif"
x="10.000000" y="20.000000" ></text>
<title> - OBDepict</title>
</svg>
