<?xml version="1.0"?>
<svg xmlns="http://www.w3.org/2000/svg"
xmlns:xlink="http://www.w3.org/1999/xlink" xmlns:cml="http://www.xml-cml.org/schema" width="520.561" height="355.533" x="0" y="0" font-family="sans-serif" stroke="rgb(0,0,0)" stroke-width="1"  stroke-linecap="round">
<rect x="0%" y="0%" width="100%" height="100%" stroke-width="0" fill="rgb(255,255,255)"  />
<line x1="258.1" y1="158.9" x2="219.9" y2="170.9" stroke="rgb(0,0,0)"  stroke-width="1.0"/>
<line x1="256.3" y1="153.2" x2="218.1" y2="165.2" stroke="rgb(0,0,0)"  stroke-width="1.0"/>
<line x1="129.8" y1="155.9" x2="155.6" y2="164.3" stroke="rgb(0,0,0)"  stroke-width="1.0"/>
<line x1="127.9" y1="161.6" x2="153.7" y2="170.0" stroke="rgb(0,0,0)"  stroke-width="1.0"/>
<line x1="286.7" y1="183.2" x2="257.2" y2="156.0" stroke="rgb(0,0,0)"  stroke-width="1.0"/>
<line x1="442.7" y1="279.0" x2="412.9" y2="251.9" stroke="rgb(0,0,0)"  stroke-width="1.0"/>
<line x1="468.2" y1="271.0" x2="442.7" y2="279.0" stroke="rgb(0,0,0)"  stroke-width="1.0"/>
<line x1="469.4" y1="275.0" x2="444.0" y2="283.0" stroke="rgb(0,0,0)"  stroke-width="1.0"/>
<line x1="466.9" y1="267.0" x2="441.5" y2="275.0" stroke="rgb(0,0,0)"  stroke-width="1.0"/>
<line x1="219.7" y1="229.5" x2="203.9" y2="207.4" stroke="rgb(0,0,0)"  stroke-width="1.0"/>
<line x1="224.6" y1="226.0" x2="208.8" y2="203.9" stroke="rgb(0,0,0)"  stroke-width="1.0"/>
<line x1="143.7" y1="238.2" x2="159.3" y2="216.3" stroke="rgb(0,0,0)"  stroke-width="1.0"/>
<line x1="104.3" y1="116.5" x2="112.6" y2="142.3" stroke="rgb(0,0,0)"  stroke-width="1.0"/>
<line x1="330.3" y1="144.7" x2="324.5" y2="171.2" stroke="rgb(0,0,0)"  stroke-width="1.0"/>
<line x1="365.2" y1="255.2" x2="345.2" y2="237.2" stroke="rgb(0,0,0)"  stroke-width="1.0"/>
<line x1="301.3" y1="275.5" x2="307.0" y2="249.4" stroke="rgb(0,0,0)"  stroke-width="1.0"/>
<line x1="412.9" y1="251.9" x2="387.3" y2="259.9" stroke="rgb(0,0,0)"  stroke-width="1.0"/>
<line x1="87.9" y1="255.9" x2="103.8" y2="234.0" stroke="rgb(0,0,0)"  stroke-width="1.0"/>
<line x1="103.8" y1="234.0" x2="143.7" y2="238.2" stroke="rgb(0,0,0)"  stroke-width="1.0"/>
<line x1="318.5" y1="306.7" x2="308.1" y2="297.0" stroke="rgb(0,0,0)"  stroke-width="1.0"/>
<line x1="52.9" y1="263.4" x2="67.2" y2="265.0" stroke="rgb(0,0,0)"  stroke-width="1.0"/>
<line x1="154.7" y1="167.2" x2="176.3" y2="151.7" stroke="rgb(0,0,0)"  stroke-width="1.0"/>
<line x1="197.3" y1="151.9" x2="219.0" y2="168.0" stroke="rgb(0,0,0)"  stroke-width="1.0"/>
<line x1="219.0" y1="168.0" x2="206.4" y2="205.7" stroke="rgb(0,0,0)"  stroke-width="1.0"/>
<line x1="206.4" y1="205.7" x2="179.8" y2="205.7" stroke="rgb(0,0,0)"  stroke-width="1.0"/>
<line x1="162.9" y1="193.3" x2="154.7" y2="167.2" stroke="rgb(0,0,0)"  stroke-width="1.0"/>
<line x1="286.7" y1="183.2" x2="324.5" y2="171.2" stroke="rgb(0,0,0)"  stroke-width="1.0"/>
<line x1="324.5" y1="171.2" x2="354.0" y2="197.9" stroke="rgb(0,0,0)"  stroke-width="1.0"/>
<line x1="324.2" y1="180.5" x2="344.8" y2="199.2" stroke="rgb(0,0,0)"  stroke-width="1.0"/>
<line x1="354.0" y1="197.9" x2="345.2" y2="237.2" stroke="rgb(0,0,0)"  stroke-width="1.0"/>
<line x1="345.2" y1="237.2" x2="307.0" y2="249.4" stroke="rgb(0,0,0)"  stroke-width="1.0"/>
<line x1="337.3" y1="232.2" x2="310.6" y2="240.7" stroke="rgb(0,0,0)"  stroke-width="1.0"/>
<line x1="307.0" y1="249.4" x2="277.9" y2="222.0" stroke="rgb(0,0,0)"  stroke-width="1.0"/>
<line x1="277.9" y1="222.0" x2="286.7" y2="183.2" stroke="rgb(0,0,0)"  stroke-width="1.0"/>
<line x1="286.2" y1="217.8" x2="292.4" y2="190.6" stroke="rgb(0,0,0)"  stroke-width="1.0"/>
<line x1="104.3" y1="116.5" x2="65.3" y2="108.0" stroke="rgb(0,0,0)"  stroke-width="1.0"/>
<line x1="65.3" y1="108.0" x2="52.8" y2="70.2" stroke="rgb(0,0,0)"  stroke-width="1.0"/>
<line x1="70.3" y1="100.1" x2="61.6" y2="73.6" stroke="rgb(0,0,0)"  stroke-width="1.0"/>
<line x1="52.8" y1="70.2" x2="80.2" y2="40.0" stroke="rgb(0,0,0)"  stroke-width="1.0"/>
<line x1="80.2" y1="40.0" x2="119.0" y2="48.5" stroke="rgb(0,0,0)"  stroke-width="1.0"/>
<line x1="84.5" y1="48.3" x2="111.6" y2="54.3" stroke="rgb(0,0,0)"  stroke-width="1.0"/>
<line x1="119.0" y1="48.5" x2="131.0" y2="86.8" stroke="rgb(0,0,0)"  stroke-width="1.0"/>
<line x1="131.0" y1="86.8" x2="104.3" y2="116.5" stroke="rgb(0,0,0)"  stroke-width="1.0"/>
<line x1="121.6" y1="86.5" x2="103.0" y2="107.2" stroke="rgb(0,0,0)"  stroke-width="1.0"/>
<text x="160.848706" y="213.683008" fill="rgb(12,12,255)"  stroke="rgb(12,12,255)" stroke-width="1" font-size="16" >N</text>
<text x="180.852200" y="152.175172" fill="rgb(178,178,0)"  stroke="rgb(178,178,0)" stroke-width="1" font-size="16" >S</text>
<text x="110.510457" y="162.676037" fill="rgb(12,12,255)"  stroke="rgb(12,12,255)" stroke-width="1" font-size="16" >N</text>
<text x="474.561446" y="275.026087" fill="rgb(102,102,102)"  stroke="rgb(102,102,102)" stroke-width="1" font-size="16" >CH</text>
<text x="223.689139" y="246.358289" fill="rgb(255,12,12)"  stroke="rgb(255,12,12)" stroke-width="1" font-size="16" >O</text>
<text x="327.040524" y="140.012195" fill="rgb(165,40,40)"  stroke="rgb(165,40,40)" stroke-width="1" font-size="16" >Br</text>
<text x="368.879227" y="271.861775" fill="rgb(255,12,12)"  stroke="rgb(255,12,12)" stroke-width="1" font-size="16" >O</text>
<text x="292.538374" y="296.197421" fill="rgb(255,12,12)"  stroke="rgb(255,12,12)" stroke-width="1" font-size="16" >O</text>
<text x="74.171745" y="274.362211" fill="rgb(255,12,12)"  stroke="rgb(255,12,12)" stroke-width="1" font-size="16" >O</text>
<text x="324.039651" y="323.532621" fill="rgb(102,102,102)"  stroke="rgb(102,102,102)" stroke-width="1" font-size="16" >CH</text>
<text x="348.039651" y="327.212621" fill="rgb(102,102,102)"  stroke="rgb(102,102,102)" stroke-width="1" font-size="13" >3</text>
<text x="14.000000" y="270.030059" fill="rgb(102,102,102)"  stroke="rgb(102,102,102)" stroke-width="1" font-size="16" >H</text>
<text x="26.000000" y="273.710059" fill="rgb(102,102,102)"  stroke="rgb(102,102,102)" stroke-width="1" font-size="13" >3</text>
<text x="32.500000" y="270.030059" fill="rgb(102,102,102)"  stroke="rgb(102,102,102)" stroke-width="1" font-size="16" >C</text>
<text font-size="18.000000" fill ="black" font-family="sans-serif"
x="10.000000" y="20.000000" ></text>
<title> - OBDepict</title>
</svg>
