<?xml version="1.0"?>
<svg xmlns="http://www.w3.org/2000/svg"
xmlns:xlink="http://www.w3.org/1999/xlink" xmlns:cml="http://www.xml-cml.org/schema" width="391.754" height="360.036" x="0" y="0" font-family="sans-serif" stroke="rgb(0,0,0)" stroke-width="1"  stroke-linecap="round">
<rect x="0%" y="0%" width="100%" height="100%" stroke-width="0" fill="rgb(255,255,255)"  />
<line x1="40.0" y1="80.0" x2="40.0" y2="120.0" stroke="rgb(0,0,0)"  stroke-width="1.0"/>
<line x1="40.0" y1="53.0" x2="40.0" y2="80.0" stroke="rgb(0,0,0)"  stroke-width="1.0"/>
<line x1="44.2" y1="53.0" x2="44.2" y2="80.0" stroke="rgb(0,0,0)"  stroke-width="1.0"/>
<line x1="35.8" y1="53.0" x2="35.8" y2="80.0" stroke="rgb(0,0,0)"  stroke-width="1.0"/>
<line x1="98.0" y1="193.5" x2="74.5" y2="180.0" stroke="rgb(0,0,0)"  stroke-width="1.0"/>
<line x1="49.7" y1="190.9" x2="73.0" y2="177.4" stroke="rgb(0,0,0)"  stroke-width="1.0"/>
<line x1="52.8" y1="196.1" x2="76.1" y2="182.6" stroke="rgb(0,0,0)"  stroke-width="1.0"/>
<line x1="74.5" y1="153.0" x2="74.5" y2="180.0" stroke="rgb(0,0,0)"  stroke-width="1.0"/>
<line x1="143.8" y1="260.0" x2="109.3" y2="240.0" stroke="rgb(0,0,0)"  stroke-width="1.0"/>
<line x1="109.3" y1="240.0" x2="109.3" y2="213.0" stroke="rgb(0,0,0)"  stroke-width="1.0"/>
<line x1="40.0" y1="120.0" x2="63.3" y2="133.5" stroke="rgb(0,0,0)"  stroke-width="1.0"/>
<line x1="305.8" y1="313.5" x2="282.5" y2="300.0" stroke="rgb(0,0,0)"  stroke-width="1.0"/>
<line x1="340.5" y1="306.5" x2="328.3" y2="313.6" stroke="rgb(0,0,0)"  stroke-width="1.0"/>
<line x1="213.2" y1="260.0" x2="213.2" y2="300.0" stroke="rgb(0,0,0)"  stroke-width="1.0"/>
<line x1="206.0" y1="266.0" x2="206.0" y2="294.0" stroke="rgb(0,0,0)"  stroke-width="1.0"/>
<line x1="213.2" y1="300.0" x2="178.6" y2="320.0" stroke="rgb(0,0,0)"  stroke-width="1.0"/>
<line x1="178.6" y1="320.0" x2="143.8" y2="300.0" stroke="rgb(0,0,0)"  stroke-width="1.0"/>
<line x1="177.0" y1="310.8" x2="152.6" y2="296.8" stroke="rgb(0,0,0)"  stroke-width="1.0"/>
<line x1="143.8" y1="300.0" x2="143.8" y2="260.0" stroke="rgb(0,0,0)"  stroke-width="1.0"/>
<line x1="143.8" y1="260.0" x2="178.6" y2="240.0" stroke="rgb(0,0,0)"  stroke-width="1.0"/>
<line x1="152.6" y1="263.3" x2="177.0" y2="249.3" stroke="rgb(0,0,0)"  stroke-width="1.0"/>
<line x1="178.6" y1="240.0" x2="213.2" y2="260.0" stroke="rgb(0,0,0)"  stroke-width="1.0"/>
<line x1="247.7" y1="320.0" x2="213.2" y2="300.0" stroke="rgb(0,0,0)"  stroke-width="1.0"/>
<line x1="213.2" y1="260.0" x2="247.7" y2="240.0" stroke="rgb(0,0,0)"  stroke-width="1.0"/>
<line x1="247.7" y1="240.0" x2="282.5" y2="260.0" stroke="rgb(0,0,0)"  stroke-width="1.0"/>
<line x1="249.3" y1="249.3" x2="273.7" y2="263.3" stroke="rgb(0,0,0)"  stroke-width="1.0"/>
<line x1="282.5" y1="260.0" x2="282.5" y2="300.0" stroke="rgb(0,0,0)"  stroke-width="1.0"/>
<line x1="282.5" y1="300.0" x2="247.7" y2="320.0" stroke="rgb(0,0,0)"  stroke-width="1.0"/>
<line x1="273.7" y1="296.8" x2="249.3" y2="310.8" stroke="rgb(0,0,0)"  stroke-width="1.0"/>
<text x="34.000000" y="48.000000" fill="rgb(102,102,102)"  stroke="rgb(102,102,102)" stroke-width="1" font-size="16" >CH</text>
<text x="103.298644" y="208.020661" fill="rgb(12,12,255)"  stroke="rgb(12,12,255)" stroke-width="1" font-size="16" >NH</text>
<text x="34.000000" y="208.020661" fill="rgb(255,12,12)"  stroke="rgb(255,12,12)" stroke-width="1" font-size="16" >O</text>
<text x="68.549915" y="148.012913" fill="rgb(12,12,255)"  stroke="rgb(12,12,255)" stroke-width="1" font-size="16" >NH</text>
<text x="311.005462" y="328.036156" fill="rgb(255,12,12)"  stroke="rgb(255,12,12)" stroke-width="1" font-size="16" >O</text>
<text x="347.754191" y="308.033574" fill="rgb(102,102,102)"  stroke="rgb(102,102,102)" stroke-width="1" font-size="16" >CH</text>
<text x="371.754191" y="311.713574" fill="rgb(102,102,102)"  stroke="rgb(102,102,102)" stroke-width="1" font-size="13" >3</text>
<text font-size="18.000000" fill ="black" font-family="sans-serif"
x="10.000000" y="20.000000" ></text>
<title> - OBDepict</title>
</svg>
