<?xml version="1.0"?>
<svg xmlns="http://www.w3.org/2000/svg"
xmlns:xlink="http://www.w3.org/1999/xlink" xmlns:cml="http://www.xml-cml.org/schema" width="495.754" height="239.859" x="0" y="0" font-family="sans-serif" stroke="rgb(0,0,0)" stroke-width="1"  stroke-linecap="round">
<rect x="0%" y="0%" width="100%" height="100%" stroke-width="0" fill="rgb(255,255,255)"  />
<line x1="283.4" y1="97.2" x2="318.5" y2="117.2" stroke="rgb(0,0,0)"  stroke-width="1.0"/>
<line x1="280.4" y1="102.4" x2="315.5" y2="122.4" stroke="rgb(0,0,0)"  stroke-width="1.0"/>
<line x1="408.1" y1="176.2" x2="384.4" y2="162.6" stroke="rgb(0,0,0)"  stroke-width="1.0"/>
<line x1="411.1" y1="170.9" x2="387.3" y2="157.3" stroke="rgb(0,0,0)"  stroke-width="1.0"/>
<line x1="74.6" y1="180.0" x2="109.7" y2="160.0" stroke="rgb(0,0,0)"  stroke-width="1.0"/>
<line x1="51.3" y1="193.4" x2="74.6" y2="180.0" stroke="rgb(0,0,0)"  stroke-width="1.0"/>
<line x1="49.2" y1="189.8" x2="72.6" y2="176.4" stroke="rgb(0,0,0)"  stroke-width="1.0"/>
<line x1="53.4" y1="197.0" x2="76.7" y2="183.6" stroke="rgb(0,0,0)"  stroke-width="1.0"/>
<line x1="354.2" y1="72.5" x2="354.2" y2="99.6" stroke="rgb(0,0,0)"  stroke-width="1.0"/>
<line x1="348.2" y1="72.5" x2="348.2" y2="99.6" stroke="rgb(0,0,0)"  stroke-width="1.0"/>
<line x1="291.7" y1="170.9" x2="315.5" y2="157.3" stroke="rgb(0,0,0)"  stroke-width="1.0"/>
<line x1="294.7" y1="176.2" x2="318.5" y2="162.6" stroke="rgb(0,0,0)"  stroke-width="1.0"/>
<line x1="247.3" y1="119.8" x2="281.9" y2="99.8" stroke="rgb(0,0,0)"  stroke-width="1.0"/>
<line x1="420.9" y1="99.8" x2="397.1" y2="113.4" stroke="rgb(0,0,0)"  stroke-width="1.0"/>
<line x1="420.9" y1="59.7" x2="420.9" y2="99.8" stroke="rgb(0,0,0)"  stroke-width="1.0"/>
<line x1="445.9" y1="49.0" x2="422.4" y2="62.3" stroke="rgb(0,0,0)"  stroke-width="1.0"/>
<line x1="443.0" y1="43.8" x2="419.4" y2="57.0" stroke="rgb(0,0,0)"  stroke-width="1.0"/>
<line x1="155.2" y1="107.2" x2="178.6" y2="120.4" stroke="rgb(0,0,0)"  stroke-width="1.0"/>
<line x1="155.3" y1="173.6" x2="179.0" y2="160.4" stroke="rgb(0,0,0)"  stroke-width="1.0"/>
<line x1="109.7" y1="160.0" x2="132.7" y2="173.4" stroke="rgb(0,0,0)"  stroke-width="1.0"/>
<line x1="317.0" y1="119.8" x2="351.2" y2="99.6" stroke="rgb(0,0,0)"  stroke-width="1.0"/>
<line x1="351.2" y1="99.6" x2="374.6" y2="113.3" stroke="rgb(0,0,0)"  stroke-width="1.0"/>
<line x1="385.9" y1="132.8" x2="385.9" y2="160.0" stroke="rgb(0,0,0)"  stroke-width="1.0"/>
<line x1="385.9" y1="160.0" x2="362.5" y2="173.3" stroke="rgb(0,0,0)"  stroke-width="1.0"/>
<line x1="340.0" y1="173.3" x2="317.0" y2="160.0" stroke="rgb(0,0,0)"  stroke-width="1.0"/>
<line x1="317.0" y1="160.0" x2="317.0" y2="119.8" stroke="rgb(0,0,0)"  stroke-width="1.0"/>
<line x1="178.6" y1="120.4" x2="179.0" y2="160.4" stroke="rgb(0,0,0)"  stroke-width="1.0"/>
<line x1="179.0" y1="160.4" x2="213.2" y2="180.0" stroke="rgb(0,0,0)"  stroke-width="1.0"/>
<line x1="187.8" y1="157.1" x2="211.6" y2="170.8" stroke="rgb(0,0,0)"  stroke-width="1.0"/>
<line x1="213.2" y1="180.0" x2="247.7" y2="159.7" stroke="rgb(0,0,0)"  stroke-width="1.0"/>
<line x1="247.7" y1="159.7" x2="247.3" y2="119.8" stroke="rgb(0,0,0)"  stroke-width="1.0"/>
<line x1="240.4" y1="153.8" x2="240.1" y2="125.9" stroke="rgb(0,0,0)"  stroke-width="1.0"/>
<line x1="247.3" y1="119.8" x2="213.2" y2="100.4" stroke="rgb(0,0,0)"  stroke-width="1.0"/>
<line x1="213.2" y1="100.4" x2="178.6" y2="120.4" stroke="rgb(0,0,0)"  stroke-width="1.0"/>
<line x1="211.6" y1="109.6" x2="187.4" y2="123.7" stroke="rgb(0,0,0)"  stroke-width="1.0"/>
<text x="379.853967" y="127.832599" fill="rgb(12,12,255)"  stroke="rgb(12,12,255)" stroke-width="1" font-size="16" >N</text>
<text x="345.206978" y="187.800408" fill="rgb(12,12,255)"  stroke="rgb(12,12,255)" stroke-width="1" font-size="16" >N</text>
<text x="345.206978" y="203.800408" fill="rgb(12,12,255)"  stroke="rgb(12,12,255)" stroke-width="1" font-size="16" >H</text>
<text x="414.903490" y="188.004099" fill="rgb(178,178,0)"  stroke="rgb(178,178,0)" stroke-width="1" font-size="16" >S</text>
<text x="22.000000" y="207.859191" fill="rgb(102,102,102)"  stroke="rgb(102,102,102)" stroke-width="1" font-size="16" >HC</text>
<text x="345.206978" y="67.452558" fill="rgb(255,12,12)"  stroke="rgb(255,12,12)" stroke-width="1" font-size="16" >O</text>
<text x="275.917850" y="188.004099" fill="rgb(255,12,12)"  stroke="rgb(255,12,12)" stroke-width="1" font-size="16" >O</text>
<text x="451.754171" y="48.000000" fill="rgb(102,102,102)"  stroke="rgb(102,102,102)" stroke-width="1" font-size="16" >CH</text>
<text x="475.754171" y="51.680000" fill="rgb(102,102,102)"  stroke="rgb(102,102,102)" stroke-width="1" font-size="13" >2</text>
<text x="125.936118" y="108.782575" fill="rgb(165,40,40)"  stroke="rgb(165,40,40)" stroke-width="1" font-size="16" >Br</text>
<text x="137.936118" y="188.004099" fill="rgb(255,12,12)"  stroke="rgb(255,12,12)" stroke-width="1" font-size="16" >O</text>
<text font-size="18.000000" fill ="black" font-family="sans-serif"
x="10.000000" y="20.000000" ></text>
<title> - OBDepict</title>
</svg>
