<?xml version="1.0"?>
<svg xmlns="http://www.w3.org/2000/svg"
xmlns:xlink="http://www.w3.org/1999/xlink" xmlns:cml="http://www.xml-cml.org/schema" width="373.888" height="254.311" x="0" y="0" font-family="sans-serif" stroke="rgb(0,0,0)" stroke-width="1"  stroke-linecap="round">
<rect x="0%" y="0%" width="100%" height="100%" stroke-width="0" fill="rgb(255,255,255)"  />
<line x1="200.0" y1="141.0" x2="240.0" y2="141.0" stroke="rgb(0,0,0)"  stroke-width="1.0"/>
<line x1="200.0" y1="147.0" x2="240.0" y2="147.0" stroke="rgb(0,0,0)"  stroke-width="1.0"/>
<line x1="180.0" y1="109.3" x2="200.0" y2="144.0" stroke="rgb(0,0,0)"  stroke-width="1.0"/>
<line x1="60.0" y1="178.6" x2="80.0" y2="144.0" stroke="rgb(0,0,0)"  stroke-width="1.0"/>
<line x1="46.5" y1="202.0" x2="60.0" y2="178.6" stroke="rgb(0,0,0)"  stroke-width="1.0"/>
<line x1="42.8" y1="199.9" x2="56.4" y2="176.5" stroke="rgb(0,0,0)"  stroke-width="1.0"/>
<line x1="50.1" y1="204.1" x2="63.6" y2="180.7" stroke="rgb(0,0,0)"  stroke-width="1.0"/>
<line x1="325.2" y1="110.5" x2="303.3" y2="126.4" stroke="rgb(0,0,0)"  stroke-width="1.0"/>
<line x1="321.6" y1="105.6" x2="299.8" y2="121.6" stroke="rgb(0,0,0)"  stroke-width="1.0"/>
<line x1="252.4" y1="201.0" x2="260.7" y2="175.4" stroke="rgb(0,0,0)"  stroke-width="1.0"/>
<line x1="258.1" y1="202.9" x2="266.5" y2="177.3" stroke="rgb(0,0,0)"  stroke-width="1.0"/>
<line x1="126.5" y1="132.8" x2="140.0" y2="109.3" stroke="rgb(0,0,0)"  stroke-width="1.0"/>
<line x1="80.0" y1="144.0" x2="107.0" y2="144.0" stroke="rgb(0,0,0)"  stroke-width="1.0"/>
<line x1="289.2" y1="168.0" x2="263.6" y2="176.3" stroke="rgb(0,0,0)"  stroke-width="1.0"/>
<line x1="263.6" y1="176.3" x2="240.0" y2="144.0" stroke="rgb(0,0,0)"  stroke-width="1.0"/>
<line x1="240.0" y1="144.0" x2="255.9" y2="122.2" stroke="rgb(0,0,0)"  stroke-width="1.0"/>
<line x1="276.0" y1="115.7" x2="301.6" y2="124.0" stroke="rgb(0,0,0)"  stroke-width="1.0"/>
<line x1="301.6" y1="124.0" x2="301.6" y2="151.0" stroke="rgb(0,0,0)"  stroke-width="1.0"/>
<line x1="180.0" y1="109.3" x2="140.0" y2="109.3" stroke="rgb(0,0,0)"  stroke-width="1.0"/>
<line x1="174.0" y1="102.1" x2="146.0" y2="102.1" stroke="rgb(0,0,0)"  stroke-width="1.0"/>
<line x1="140.0" y1="109.3" x2="120.0" y2="74.7" stroke="rgb(0,0,0)"  stroke-width="1.0"/>
<line x1="120.0" y1="74.7" x2="140.0" y2="40.0" stroke="rgb(0,0,0)"  stroke-width="1.0"/>
<line x1="129.2" y1="73.1" x2="143.2" y2="48.8" stroke="rgb(0,0,0)"  stroke-width="1.0"/>
<line x1="140.0" y1="40.0" x2="180.0" y2="40.0" stroke="rgb(0,0,0)"  stroke-width="1.0"/>
<line x1="180.0" y1="40.0" x2="200.0" y2="74.7" stroke="rgb(0,0,0)"  stroke-width="1.0"/>
<line x1="176.7" y1="48.8" x2="190.7" y2="73.1" stroke="rgb(0,0,0)"  stroke-width="1.0"/>
<line x1="200.0" y1="74.7" x2="180.0" y2="109.3" stroke="rgb(0,0,0)"  stroke-width="1.0"/>
<text x="295.573525" y="172.017040" fill="rgb(12,12,255)"  stroke="rgb(12,12,255)" stroke-width="1" font-size="16" >NH</text>
<text x="257.597154" y="119.701366" fill="rgb(178,178,0)"  stroke="rgb(178,178,0)" stroke-width="1" font-size="16" >S</text>
<text x="22.000000" y="221.302943" fill="rgb(102,102,102)"  stroke="rgb(102,102,102)" stroke-width="1" font-size="16" >HC</text>
<text x="327.887858" y="108.391834" fill="rgb(178,178,0)"  stroke="rgb(178,178,0)" stroke-width="1" font-size="16" >S</text>
<text x="245.279314" y="222.311251" fill="rgb(255,12,12)"  stroke="rgb(255,12,12)" stroke-width="1" font-size="16" >O</text>
<text x="113.985974" y="152.020547" fill="rgb(255,12,12)"  stroke="rgb(255,12,12)" stroke-width="1" font-size="16" >O</text>
<text font-size="18.000000" fill ="black" font-family="sans-serif"
x="10.000000" y="20.000000" ></text>
<title> - OBDepict</title>
</svg>
