<?xml version="1.0"?>
<svg xmlns="http://www.w3.org/2000/svg"
xmlns:xlink="http://www.w3.org/1999/xlink" xmlns:cml="http://www.xml-cml.org/schema" width="446.547" height="295.249" x="0" y="0" font-family="sans-serif" stroke="rgb(0,0,0)" stroke-width="1"  stroke-linecap="round">
<rect x="0%" y="0%" width="100%" height="100%" stroke-width="0" fill="rgb(255,255,255)"  />
<line x1="280.0" y1="138.9" x2="314.5" y2="118.9" stroke="rgb(0,0,0)"  stroke-width="1.0"/>
<line x1="283.0" y1="144.1" x2="317.5" y2="124.1" stroke="rgb(0,0,0)"  stroke-width="1.0"/>
<line x1="74.5" y1="60.0" x2="109.0" y2="80.5" stroke="rgb(0,0,0)"  stroke-width="1.0"/>
<line x1="51.3" y1="46.5" x2="74.5" y2="60.0" stroke="rgb(0,0,0)"  stroke-width="1.0"/>
<line x1="53.4" y1="42.9" x2="76.6" y2="56.3" stroke="rgb(0,0,0)"  stroke-width="1.0"/>
<line x1="49.1" y1="50.1" x2="72.4" y2="63.6" stroke="rgb(0,0,0)"  stroke-width="1.0"/>
<line x1="247.0" y1="121.1" x2="281.5" y2="141.5" stroke="rgb(0,0,0)"  stroke-width="1.0"/>
<line x1="360.2" y1="176.8" x2="352.3" y2="137.4" stroke="rgb(0,0,0)"  stroke-width="1.0"/>
<line x1="302.6" y1="60.5" x2="322.6" y2="78.7" stroke="rgb(0,0,0)"  stroke-width="1.0"/>
<line x1="298.5" y1="64.9" x2="318.6" y2="83.2" stroke="rgb(0,0,0)"  stroke-width="1.0"/>
<line x1="154.6" y1="134.4" x2="178.0" y2="121.1" stroke="rgb(0,0,0)"  stroke-width="1.0"/>
<line x1="155.1" y1="67.2" x2="178.0" y2="81.0" stroke="rgb(0,0,0)"  stroke-width="1.0"/>
<line x1="109.0" y1="80.5" x2="132.6" y2="67.0" stroke="rgb(0,0,0)"  stroke-width="1.0"/>
<line x1="143.0" y1="167.4" x2="143.2" y2="153.9" stroke="rgb(0,0,0)"  stroke-width="1.0"/>
<line x1="316.0" y1="121.5" x2="320.6" y2="81.0" stroke="rgb(0,0,0)"  stroke-width="1.0"/>
<line x1="320.6" y1="81.0" x2="346.8" y2="75.7" stroke="rgb(0,0,0)"  stroke-width="1.0"/>
<line x1="365.9" y1="84.4" x2="372.9" y2="96.9" stroke="rgb(0,0,0)"  stroke-width="1.0"/>
<line x1="370.4" y1="117.8" x2="352.3" y2="137.4" stroke="rgb(0,0,0)"  stroke-width="1.0"/>
<line x1="363.7" y1="114.4" x2="351.1" y2="128.1" stroke="rgb(0,0,0)"  stroke-width="1.0"/>
<line x1="352.3" y1="137.4" x2="316.0" y2="121.5" stroke="rgb(0,0,0)"  stroke-width="1.0"/>
<line x1="178.0" y1="121.1" x2="178.0" y2="81.0" stroke="rgb(0,0,0)"  stroke-width="1.0"/>
<line x1="185.2" y1="115.1" x2="185.2" y2="87.0" stroke="rgb(0,0,0)"  stroke-width="1.0"/>
<line x1="178.0" y1="81.0" x2="212.9" y2="61.2" stroke="rgb(0,0,0)"  stroke-width="1.0"/>
<line x1="212.9" y1="61.2" x2="247.4" y2="81.6" stroke="rgb(0,0,0)"  stroke-width="1.0"/>
<line x1="214.4" y1="70.4" x2="238.6" y2="84.7" stroke="rgb(0,0,0)"  stroke-width="1.0"/>
<line x1="247.4" y1="81.6" x2="247.0" y2="121.1" stroke="rgb(0,0,0)"  stroke-width="1.0"/>
<line x1="247.0" y1="121.1" x2="212.5" y2="141.1" stroke="rgb(0,0,0)"  stroke-width="1.0"/>
<line x1="238.2" y1="117.9" x2="214.1" y2="131.8" stroke="rgb(0,0,0)"  stroke-width="1.0"/>
<line x1="212.5" y1="141.1" x2="178.0" y2="121.1" stroke="rgb(0,0,0)"  stroke-width="1.0"/>
<line x1="360.2" y1="176.8" x2="330.3" y2="203.4" stroke="rgb(0,0,0)"  stroke-width="1.0"/>
<line x1="360.5" y1="186.1" x2="339.6" y2="204.8" stroke="rgb(0,0,0)"  stroke-width="1.0"/>
<line x1="330.3" y1="203.4" x2="338.4" y2="242.5" stroke="rgb(0,0,0)"  stroke-width="1.0"/>
<line x1="338.4" y1="242.5" x2="376.5" y2="255.2" stroke="rgb(0,0,0)"  stroke-width="1.0"/>
<line x1="346.3" y1="237.6" x2="373.1" y2="246.5" stroke="rgb(0,0,0)"  stroke-width="1.0"/>
<line x1="376.5" y1="255.2" x2="406.5" y2="228.2" stroke="rgb(0,0,0)"  stroke-width="1.0"/>
<line x1="406.5" y1="228.2" x2="398.3" y2="189.3" stroke="rgb(0,0,0)"  stroke-width="1.0"/>
<line x1="398.3" y1="223.8" x2="392.5" y2="196.6" stroke="rgb(0,0,0)"  stroke-width="1.0"/>
<line x1="398.3" y1="189.3" x2="360.2" y2="176.8" stroke="rgb(0,0,0)"  stroke-width="1.0"/>
<text x="373.313479" y="116.185144" fill="rgb(12,12,255)"  stroke="rgb(12,12,255)" stroke-width="1" font-size="16" >N</text>
<text x="353.544109" y="81.084922" fill="rgb(255,12,12)"  stroke="rgb(255,12,12)" stroke-width="1" font-size="16" >O</text>
<text x="22.000000" y="48.000000" fill="rgb(102,102,102)"  stroke="rgb(102,102,102)" stroke-width="1" font-size="16" >HC</text>
<text x="284.955905" y="61.922570" fill="rgb(255,12,12)"  stroke="rgb(255,12,12)" stroke-width="1" font-size="16" >O</text>
<text x="137.285366" y="148.867005" fill="rgb(255,12,12)"  stroke="rgb(255,12,12)" stroke-width="1" font-size="16" >O</text>
<text x="137.892384" y="68.575490" fill="rgb(255,12,12)"  stroke="rgb(255,12,12)" stroke-width="1" font-size="16" >O</text>
<text x="116.887162" y="188.405745" fill="rgb(102,102,102)"  stroke="rgb(102,102,102)" stroke-width="1" font-size="16" >H</text>
<text x="128.887162" y="192.085745" fill="rgb(102,102,102)"  stroke="rgb(102,102,102)" stroke-width="1" font-size="13" >3</text>
<text x="135.387162" y="188.405745" fill="rgb(102,102,102)"  stroke="rgb(102,102,102)" stroke-width="1" font-size="16" >C</text>
<text font-size="18.000000" fill ="black" font-family="sans-serif"
x="10.000000" y="20.000000" ></text>
<title> - OBDepict</title>
</svg>
