<?xml version="1.0"?>
<svg xmlns="http://www.w3.org/2000/svg"
xmlns:xlink="http://www.w3.org/1999/xlink" xmlns:cml="http://www.xml-cml.org/schema" width="530.459" height="200.042" x="0" y="0" font-family="sans-serif" stroke="rgb(0,0,0)" stroke-width="1"  stroke-linecap="round">
<rect x="0%" y="0%" width="100%" height="100%" stroke-width="0" fill="rgb(255,255,255)"  />
<line x1="421.3" y1="100.0" x2="397.8" y2="113.5" stroke="rgb(0,0,0)"  stroke-width="1.0"/>
<line x1="74.8" y1="140.0" x2="109.3" y2="120.0" stroke="rgb(0,0,0)"  stroke-width="1.0"/>
<line x1="248.0" y1="120.0" x2="282.7" y2="140.0" stroke="rgb(0,0,0)"  stroke-width="1.0"/>
<line x1="51.3" y1="153.6" x2="74.8" y2="140.0" stroke="rgb(0,0,0)"  stroke-width="1.0"/>
<line x1="49.2" y1="149.9" x2="72.7" y2="136.4" stroke="rgb(0,0,0)"  stroke-width="1.0"/>
<line x1="53.4" y1="157.2" x2="76.9" y2="143.7" stroke="rgb(0,0,0)"  stroke-width="1.0"/>
<line x1="375.7" y1="95.2" x2="382.7" y2="107.3" stroke="rgb(0,0,0)"  stroke-width="1.0"/>
<line x1="370.5" y1="98.2" x2="377.5" y2="110.3" stroke="rgb(0,0,0)"  stroke-width="1.0"/>
<line x1="397.5" y1="144.8" x2="390.5" y2="132.8" stroke="rgb(0,0,0)"  stroke-width="1.0"/>
<line x1="402.7" y1="141.8" x2="395.7" y2="129.8" stroke="rgb(0,0,0)"  stroke-width="1.0"/>
<line x1="363.3" y1="133.5" x2="375.3" y2="126.5" stroke="rgb(0,0,0)"  stroke-width="1.0"/>
<line x1="224.6" y1="133.5" x2="248.0" y2="120.0" stroke="rgb(0,0,0)"  stroke-width="1.0"/>
<line x1="282.7" y1="140.0" x2="317.3" y2="120.0" stroke="rgb(0,0,0)"  stroke-width="1.0"/>
<line x1="178.6" y1="120.0" x2="202.1" y2="133.5" stroke="rgb(0,0,0)"  stroke-width="1.0"/>
<line x1="251.0" y1="93.0" x2="251.0" y2="120.0" stroke="rgb(0,0,0)"  stroke-width="1.0"/>
<line x1="245.0" y1="93.0" x2="245.0" y2="120.0" stroke="rgb(0,0,0)"  stroke-width="1.0"/>
<line x1="317.3" y1="120.0" x2="340.8" y2="133.5" stroke="rgb(0,0,0)"  stroke-width="1.0"/>
<line x1="455.9" y1="147.0" x2="455.9" y2="120.0" stroke="rgb(0,0,0)"  stroke-width="1.0"/>
<line x1="421.3" y1="100.0" x2="421.3" y2="60.0" stroke="rgb(0,0,0)"  stroke-width="1.0"/>
<line x1="421.3" y1="60.0" x2="455.9" y2="40.0" stroke="rgb(0,0,0)"  stroke-width="1.0"/>
<line x1="430.1" y1="63.2" x2="454.3" y2="49.2" stroke="rgb(0,0,0)"  stroke-width="1.0"/>
<line x1="455.9" y1="40.0" x2="490.5" y2="60.0" stroke="rgb(0,0,0)"  stroke-width="1.0"/>
<line x1="490.5" y1="60.0" x2="490.5" y2="100.0" stroke="rgb(0,0,0)"  stroke-width="1.0"/>
<line x1="483.3" y1="66.0" x2="483.3" y2="94.0" stroke="rgb(0,0,0)"  stroke-width="1.0"/>
<line x1="490.5" y1="100.0" x2="455.9" y2="120.0" stroke="rgb(0,0,0)"  stroke-width="1.0"/>
<line x1="455.9" y1="120.0" x2="421.3" y2="100.0" stroke="rgb(0,0,0)"  stroke-width="1.0"/>
<line x1="454.3" y1="110.8" x2="430.1" y2="96.8" stroke="rgb(0,0,0)"  stroke-width="1.0"/>
<line x1="178.6" y1="120.0" x2="144.1" y2="140.0" stroke="rgb(0,0,0)"  stroke-width="1.0"/>
<line x1="169.8" y1="116.8" x2="145.7" y2="130.8" stroke="rgb(0,0,0)"  stroke-width="1.0"/>
<line x1="144.1" y1="140.0" x2="109.3" y2="120.0" stroke="rgb(0,0,0)"  stroke-width="1.0"/>
<line x1="109.3" y1="120.0" x2="109.3" y2="80.0" stroke="rgb(0,0,0)"  stroke-width="1.0"/>
<line x1="116.5" y1="114.0" x2="116.5" y2="86.0" stroke="rgb(0,0,0)"  stroke-width="1.0"/>
<line x1="109.3" y1="80.0" x2="144.1" y2="60.0" stroke="rgb(0,0,0)"  stroke-width="1.0"/>
<line x1="144.1" y1="60.0" x2="178.6" y2="80.0" stroke="rgb(0,0,0)"  stroke-width="1.0"/>
<line x1="145.7" y1="69.2" x2="169.8" y2="83.2" stroke="rgb(0,0,0)"  stroke-width="1.0"/>
<line x1="178.6" y1="80.0" x2="178.6" y2="120.0" stroke="rgb(0,0,0)"  stroke-width="1.0"/>
<text x="380.582859" y="128.027669" fill="rgb(178,178,0)"  stroke="rgb(178,178,0)" stroke-width="1" font-size="16" >S</text>
<text x="22.000000" y="168.041504" fill="rgb(102,102,102)"  stroke="rgb(102,102,102)" stroke-width="1" font-size="16" >HC</text>
<text x="360.575942" y="93.470266" fill="rgb(255,12,12)"  stroke="rgb(255,12,12)" stroke-width="1" font-size="16" >O</text>
<text x="400.589776" y="162.585072" fill="rgb(255,12,12)"  stroke="rgb(255,12,12)" stroke-width="1" font-size="16" >O</text>
<text x="346.025456" y="148.034586" fill="rgb(12,12,255)"  stroke="rgb(12,12,255)" stroke-width="1" font-size="16" >N</text>
<text x="346.025456" y="164.034586" fill="rgb(12,12,255)"  stroke="rgb(12,12,255)" stroke-width="1" font-size="16" >H</text>
<text x="207.393283" y="148.034586" fill="rgb(12,12,255)"  stroke="rgb(12,12,255)" stroke-width="1" font-size="16" >N</text>
<text x="207.393283" y="164.034586" fill="rgb(12,12,255)"  stroke="rgb(12,12,255)" stroke-width="1" font-size="16" >H</text>
<text x="241.950685" y="88.013835" fill="rgb(255,12,12)"  stroke="rgb(255,12,12)" stroke-width="1" font-size="16" >O</text>
<text x="449.901371" y="168.041504" fill="rgb(127,178,255)"  stroke="rgb(127,178,255)" stroke-width="1" font-size="16" >F</text>
<text font-size="18.000000" fill ="black" font-family="sans-serif"
x="10.000000" y="20.000000" ></text>
<title> - OBDepict</title>
</svg>
