<?xml version="1.0"?>
<svg xmlns="http://www.w3.org/2000/svg"
xmlns:xlink="http://www.w3.org/1999/xlink" xmlns:cml="http://www.xml-cml.org/schema" width="460.548" height="349.857" x="0" y="0" font-family="sans-serif" stroke="rgb(0,0,0)" stroke-width="1"  stroke-linecap="round">
<rect x="0%" y="0%" width="100%" height="100%" stroke-width="0" fill="rgb(255,255,255)"  />
<line x1="267.3" y1="183.5" x2="240.3" y2="183.2" stroke="rgb(0,0,0)"  stroke-width="1.0"/>
<line x1="267.4" y1="177.5" x2="240.4" y2="177.2" stroke="rgb(0,0,0)"  stroke-width="1.0"/>
<line x1="300.4" y1="146.0" x2="286.9" y2="169.3" stroke="rgb(0,0,0)"  stroke-width="1.0"/>
<line x1="340.4" y1="146.0" x2="300.4" y2="146.0" stroke="rgb(0,0,0)"  stroke-width="1.0"/>
<line x1="74.5" y1="140.0" x2="109.7" y2="160.2" stroke="rgb(0,0,0)"  stroke-width="1.0"/>
<line x1="202.4" y1="280.2" x2="229.1" y2="250.5" stroke="rgb(0,0,0)"  stroke-width="1.0"/>
<line x1="184.4" y1="300.2" x2="202.4" y2="280.2" stroke="rgb(0,0,0)"  stroke-width="1.0"/>
<line x1="181.3" y1="297.4" x2="199.3" y2="277.4" stroke="rgb(0,0,0)"  stroke-width="1.0"/>
<line x1="187.5" y1="303.0" x2="205.5" y2="283.0" stroke="rgb(0,0,0)"  stroke-width="1.0"/>
<line x1="289.5" y1="121.2" x2="303.0" y2="144.5" stroke="rgb(0,0,0)"  stroke-width="1.0"/>
<line x1="284.3" y1="124.3" x2="297.8" y2="147.5" stroke="rgb(0,0,0)"  stroke-width="1.0"/>
<line x1="49.7" y1="150.9" x2="73.0" y2="137.4" stroke="rgb(0,0,0)"  stroke-width="1.0"/>
<line x1="52.8" y1="156.1" x2="76.0" y2="142.6" stroke="rgb(0,0,0)"  stroke-width="1.0"/>
<line x1="229.1" y1="250.5" x2="220.9" y2="224.7" stroke="rgb(0,0,0)"  stroke-width="1.0"/>
<line x1="74.9" y1="113.4" x2="74.5" y2="140.0" stroke="rgb(0,0,0)"  stroke-width="1.0"/>
<line x1="346.5" y1="204.1" x2="360.4" y2="180.2" stroke="rgb(0,0,0)"  stroke-width="1.0"/>
<line x1="40.0" y1="79.8" x2="63.9" y2="93.8" stroke="rgb(0,0,0)"  stroke-width="1.0"/>
<line x1="40.3" y1="53.0" x2="40.0" y2="79.8" stroke="rgb(0,0,0)"  stroke-width="1.0"/>
<line x1="240.4" y1="180.2" x2="224.6" y2="158.4" stroke="rgb(0,0,0)"  stroke-width="1.0"/>
<line x1="204.6" y1="151.9" x2="178.8" y2="160.2" stroke="rgb(0,0,0)"  stroke-width="1.0"/>
<line x1="178.8" y1="160.2" x2="178.8" y2="200.2" stroke="rgb(0,0,0)"  stroke-width="1.0"/>
<line x1="186.0" y1="166.2" x2="186.0" y2="194.2" stroke="rgb(0,0,0)"  stroke-width="1.0"/>
<line x1="178.8" y1="200.2" x2="204.6" y2="208.4" stroke="rgb(0,0,0)"  stroke-width="1.0"/>
<line x1="224.6" y1="201.8" x2="240.4" y2="180.2" stroke="rgb(0,0,0)"  stroke-width="1.0"/>
<line x1="340.4" y1="146.0" x2="360.4" y2="180.2" stroke="rgb(0,0,0)"  stroke-width="1.0"/>
<line x1="349.6" y1="147.6" x2="363.5" y2="171.4" stroke="rgb(0,0,0)"  stroke-width="1.0"/>
<line x1="360.4" y1="180.2" x2="399.9" y2="180.8" stroke="rgb(0,0,0)"  stroke-width="1.0"/>
<line x1="399.9" y1="180.8" x2="420.5" y2="146.9" stroke="rgb(0,0,0)"  stroke-width="1.0"/>
<line x1="396.9" y1="171.9" x2="411.3" y2="148.2" stroke="rgb(0,0,0)"  stroke-width="1.0"/>
<line x1="420.5" y1="146.9" x2="400.5" y2="111.5" stroke="rgb(0,0,0)"  stroke-width="1.0"/>
<line x1="400.5" y1="111.5" x2="361.0" y2="111.1" stroke="rgb(0,0,0)"  stroke-width="1.0"/>
<line x1="394.5" y1="118.6" x2="366.9" y2="118.4" stroke="rgb(0,0,0)"  stroke-width="1.0"/>
<line x1="361.0" y1="111.1" x2="340.4" y2="146.0" stroke="rgb(0,0,0)"  stroke-width="1.0"/>
<line x1="144.2" y1="140.2" x2="178.8" y2="160.2" stroke="rgb(0,0,0)"  stroke-width="1.0"/>
<line x1="178.8" y1="200.2" x2="144.2" y2="220.2" stroke="rgb(0,0,0)"  stroke-width="1.0"/>
<line x1="144.2" y1="220.2" x2="109.7" y2="200.2" stroke="rgb(0,0,0)"  stroke-width="1.0"/>
<line x1="142.6" y1="210.9" x2="118.5" y2="197.0" stroke="rgb(0,0,0)"  stroke-width="1.0"/>
<line x1="109.7" y1="200.2" x2="109.7" y2="160.2" stroke="rgb(0,0,0)"  stroke-width="1.0"/>
<line x1="109.7" y1="160.2" x2="144.2" y2="140.2" stroke="rgb(0,0,0)"  stroke-width="1.0"/>
<line x1="118.5" y1="163.4" x2="142.6" y2="149.4" stroke="rgb(0,0,0)"  stroke-width="1.0"/>
<text x="274.366056" y="188.583617" fill="rgb(12,12,255)"  stroke="rgb(12,12,255)" stroke-width="1" font-size="16" >N</text>
<text x="210.943784" y="220.294753" fill="rgb(12,12,255)"  stroke="rgb(12,12,255)" stroke-width="1" font-size="16" >N</text>
<text x="210.943784" y="155.861401" fill="rgb(178,178,0)"  stroke="rgb(178,178,0)" stroke-width="1" font-size="16" >S</text>
<text x="157.736239" y="317.856686" fill="rgb(102,102,102)"  stroke="rgb(102,102,102)" stroke-width="1" font-size="16" >HC</text>
<text x="274.366056" y="119.501234" fill="rgb(255,12,12)"  stroke="rgb(255,12,12)" stroke-width="1" font-size="16" >O</text>
<text x="34.000000" y="167.979844" fill="rgb(255,12,12)"  stroke="rgb(255,12,12)" stroke-width="1" font-size="16" >O</text>
<text x="69.145904" y="108.389033" fill="rgb(255,12,12)"  stroke="rgb(255,12,12)" stroke-width="1" font-size="16" >O</text>
<text x="321.952030" y="223.327992" fill="rgb(165,40,40)"  stroke="rgb(165,40,40)" stroke-width="1" font-size="16" >Br</text>
<text x="36.401529" y="48.000000" fill="rgb(102,102,102)"  stroke="rgb(102,102,102)" stroke-width="1" font-size="16" >CH</text>
<text x="60.401529" y="51.680000" fill="rgb(102,102,102)"  stroke="rgb(102,102,102)" stroke-width="1" font-size="13" >3</text>
<text font-size="18.000000" fill ="black" font-family="sans-serif"
x="10.000000" y="20.000000" ></text>
<title> - OBDepict</title>
</svg>
