<?xml version="1.0"?>
<svg xmlns="http://www.w3.org/2000/svg"
xmlns:xlink="http://www.w3.org/1999/xlink" xmlns:cml="http://www.xml-cml.org/schema" width="400.827" height="392.829" x="0" y="0" font-family="sans-serif" stroke="rgb(0,0,0)" stroke-width="1"  stroke-linecap="round">
<rect x="0%" y="0%" width="100%" height="100%" stroke-width="0" fill="rgb(255,255,255)"  />
<line x1="219.7" y1="155.8" x2="179.5" y2="192.5" stroke="rgb(0,0,0)"  stroke-width="1.0"/>
<line x1="265.3" y1="164.0" x2="219.7" y2="155.8" stroke="rgb(0,0,0)"  stroke-width="1.0"/>
<line x1="167.2" y1="323.0" x2="192.8" y2="293.0" stroke="rgb(0,0,0)"  stroke-width="1.0"/>
<line x1="150.1" y1="342.9" x2="167.2" y2="323.0" stroke="rgb(0,0,0)"  stroke-width="1.0"/>
<line x1="146.9" y1="340.2" x2="164.0" y2="320.3" stroke="rgb(0,0,0)"  stroke-width="1.0"/>
<line x1="153.3" y1="345.7" x2="170.4" y2="325.7" stroke="rgb(0,0,0)"  stroke-width="1.0"/>
<line x1="225.9" y1="227.8" x2="201.4" y2="225.5" stroke="rgb(0,0,0)"  stroke-width="1.0"/>
<line x1="226.5" y1="221.8" x2="201.9" y2="219.5" stroke="rgb(0,0,0)"  stroke-width="1.0"/>
<line x1="289.3" y1="133.0" x2="265.3" y2="164.0" stroke="rgb(0,0,0)"  stroke-width="1.0"/>
<line x1="270.1" y1="181.3" x2="262.6" y2="165.3" stroke="rgb(0,0,0)"  stroke-width="1.0"/>
<line x1="275.5" y1="178.8" x2="268.0" y2="162.7" stroke="rgb(0,0,0)"  stroke-width="1.0"/>
<line x1="192.8" y1="293.0" x2="183.9" y2="268.5" stroke="rgb(0,0,0)"  stroke-width="1.0"/>
<line x1="166.0" y1="162.8" x2="179.5" y2="192.5" stroke="rgb(0,0,0)"  stroke-width="1.0"/>
<line x1="211.3" y1="127.0" x2="219.7" y2="155.8" stroke="rgb(0,0,0)"  stroke-width="1.0"/>
<line x1="51.3" y1="191.7" x2="74.0" y2="204.5" stroke="rgb(0,0,0)"  stroke-width="1.0"/>
<line x1="352.9" y1="50.3" x2="337.2" y2="71.0" stroke="rgb(0,0,0)"  stroke-width="1.0"/>
<line x1="201.7" y1="222.5" x2="186.6" y2="245.5" stroke="rgb(0,0,0)"  stroke-width="1.0"/>
<line x1="167.2" y1="252.3" x2="142.2" y2="244.0" stroke="rgb(0,0,0)"  stroke-width="1.0"/>
<line x1="142.2" y1="244.0" x2="142.2" y2="204.5" stroke="rgb(0,0,0)"  stroke-width="1.0"/>
<line x1="149.4" y1="238.0" x2="149.4" y2="210.5" stroke="rgb(0,0,0)"  stroke-width="1.0"/>
<line x1="142.2" y1="204.5" x2="179.5" y2="192.5" stroke="rgb(0,0,0)"  stroke-width="1.0"/>
<line x1="179.5" y1="192.5" x2="201.7" y2="222.5" stroke="rgb(0,0,0)"  stroke-width="1.0"/>
<line x1="142.2" y1="244.0" x2="108.0" y2="263.5" stroke="rgb(0,0,0)"  stroke-width="1.0"/>
<line x1="108.0" y1="263.5" x2="74.0" y2="244.0" stroke="rgb(0,0,0)"  stroke-width="1.0"/>
<line x1="106.4" y1="254.3" x2="82.8" y2="240.7" stroke="rgb(0,0,0)"  stroke-width="1.0"/>
<line x1="74.0" y1="244.0" x2="74.0" y2="204.5" stroke="rgb(0,0,0)"  stroke-width="1.0"/>
<line x1="74.0" y1="204.5" x2="108.0" y2="185.0" stroke="rgb(0,0,0)"  stroke-width="1.0"/>
<line x1="82.8" y1="207.8" x2="106.4" y2="194.2" stroke="rgb(0,0,0)"  stroke-width="1.0"/>
<line x1="108.0" y1="185.0" x2="142.2" y2="204.5" stroke="rgb(0,0,0)"  stroke-width="1.0"/>
<line x1="289.3" y1="133.0" x2="328.2" y2="138.3" stroke="rgb(0,0,0)"  stroke-width="1.0"/>
<line x1="328.2" y1="138.3" x2="351.8" y2="107.3" stroke="rgb(0,0,0)"  stroke-width="1.0"/>
<line x1="326.1" y1="129.2" x2="342.5" y2="107.7" stroke="rgb(0,0,0)"  stroke-width="1.0"/>
<line x1="351.8" y1="107.3" x2="337.2" y2="71.0" stroke="rgb(0,0,0)"  stroke-width="1.0"/>
<line x1="337.2" y1="71.0" x2="298.3" y2="65.8" stroke="rgb(0,0,0)"  stroke-width="1.0"/>
<line x1="330.3" y1="77.3" x2="303.3" y2="73.8" stroke="rgb(0,0,0)"  stroke-width="1.0"/>
<line x1="298.3" y1="65.8" x2="274.3" y2="96.8" stroke="rgb(0,0,0)"  stroke-width="1.0"/>
<line x1="274.3" y1="96.8" x2="289.3" y2="133.0" stroke="rgb(0,0,0)"  stroke-width="1.0"/>
<line x1="283.3" y1="99.6" x2="293.7" y2="124.7" stroke="rgb(0,0,0)"  stroke-width="1.0"/>
<text x="173.499936" y="264.330395" fill="rgb(12,12,255)"  stroke="rgb(12,12,255)" stroke-width="1" font-size="16" >N</text>
<text x="123.669203" y="360.829414" fill="rgb(102,102,102)"  stroke="rgb(102,102,102)" stroke-width="1" font-size="16" >HC</text>
<text x="233.166143" y="233.998330" fill="rgb(255,12,12)"  stroke="rgb(255,12,12)" stroke-width="1" font-size="16" >O</text>
<text x="272.332190" y="199.831396" fill="rgb(255,12,12)"  stroke="rgb(255,12,12)" stroke-width="1" font-size="16" >O</text>
<text x="142.667730" y="158.997394" fill="rgb(255,12,12)"  stroke="rgb(255,12,12)" stroke-width="1" font-size="16" >HO</text>
<text x="181.665085" y="122.497223" fill="rgb(102,102,102)"  stroke="rgb(102,102,102)" stroke-width="1" font-size="16" >H</text>
<text x="193.665085" y="126.177223" fill="rgb(102,102,102)"  stroke="rgb(102,102,102)" stroke-width="1" font-size="13" >3</text>
<text x="200.165085" y="122.497223" fill="rgb(102,102,102)"  stroke="rgb(102,102,102)" stroke-width="1" font-size="16" >C</text>
<text x="22.000000" y="193.330649" fill="rgb(165,40,40)"  stroke="rgb(165,40,40)" stroke-width="1" font-size="16" >Br</text>
<text x="354.827043" y="48.000000" fill="rgb(30,239,30)"  stroke="rgb(30,239,30)" stroke-width="1" font-size="16" >Cl</text>
<text font-size="18.000000" fill ="black" font-family="sans-serif"
x="10.000000" y="20.000000" ></text>
<title> - OBDepict</title>
</svg>
