<?xml version="1.0"?>
<svg xmlns="http://www.w3.org/2000/svg"
xmlns:xlink="http://www.w3.org/1999/xlink" xmlns:cml="http://www.xml-cml.org/schema" width="666.831" height="211.908" x="0" y="0" font-family="sans-serif" stroke="rgb(0,0,0)" stroke-width="1"  stroke-linecap="round">
<rect x="0%" y="0%" width="100%" height="100%" stroke-width="0" fill="rgb(255,255,255)"  />
<line x1="268.9" y1="137.2" x2="295.7" y2="134.3" stroke="rgb(0,0,0)"  stroke-width="1.0"/>
<line x1="313.9" y1="121.0" x2="324.8" y2="96.6" stroke="rgb(0,0,0)"  stroke-width="1.0"/>
<line x1="324.8" y1="96.6" x2="364.6" y2="92.3" stroke="rgb(0,0,0)"  stroke-width="1.0"/>
<line x1="170.9" y1="103.8" x2="205.4" y2="123.8" stroke="rgb(0,0,0)"  stroke-width="1.0"/>
<line x1="444.2" y1="84.0" x2="471.1" y2="81.2" stroke="rgb(0,0,0)"  stroke-width="1.0"/>
<line x1="587.0" y1="103.8" x2="547.2" y2="107.9" stroke="rgb(0,0,0)"  stroke-width="1.0"/>
<line x1="613.9" y1="101.0" x2="587.0" y2="103.8" stroke="rgb(0,0,0)"  stroke-width="1.0"/>
<line x1="614.3" y1="105.1" x2="587.5" y2="108.0" stroke="rgb(0,0,0)"  stroke-width="1.0"/>
<line x1="613.5" y1="96.8" x2="586.6" y2="99.7" stroke="rgb(0,0,0)"  stroke-width="1.0"/>
<line x1="484.1" y1="52.6" x2="485.6" y2="66.5" stroke="rgb(0,0,0)"  stroke-width="1.0"/>
<line x1="478.2" y1="53.2" x2="479.7" y2="67.2" stroke="rgb(0,0,0)"  stroke-width="1.0"/>
<line x1="483.8" y1="107.0" x2="482.3" y2="93.0" stroke="rgb(0,0,0)"  stroke-width="1.0"/>
<line x1="489.7" y1="106.4" x2="488.3" y2="92.4" stroke="rgb(0,0,0)"  stroke-width="1.0"/>
<line x1="510.9" y1="76.9" x2="496.9" y2="78.4" stroke="rgb(0,0,0)"  stroke-width="1.0"/>
<line x1="311.4" y1="72.8" x2="327.3" y2="94.8" stroke="rgb(0,0,0)"  stroke-width="1.0"/>
<line x1="306.6" y1="76.3" x2="322.4" y2="98.3" stroke="rgb(0,0,0)"  stroke-width="1.0"/>
<line x1="547.2" y1="107.9" x2="531.4" y2="86.1" stroke="rgb(0,0,0)"  stroke-width="1.0"/>
<line x1="268.9" y1="137.2" x2="255.4" y2="160.6" stroke="rgb(0,0,0)"  stroke-width="1.0"/>
<line x1="236.2" y1="169.2" x2="209.7" y2="163.4" stroke="rgb(0,0,0)"  stroke-width="1.0"/>
<line x1="209.7" y1="163.4" x2="205.4" y2="123.8" stroke="rgb(0,0,0)"  stroke-width="1.0"/>
<line x1="216.2" y1="156.7" x2="213.2" y2="129.0" stroke="rgb(0,0,0)"  stroke-width="1.0"/>
<line x1="205.4" y1="123.8" x2="230.1" y2="112.8" stroke="rgb(0,0,0)"  stroke-width="1.0"/>
<line x1="250.9" y1="117.3" x2="268.9" y2="137.2" stroke="rgb(0,0,0)"  stroke-width="1.0"/>
<line x1="246.9" y1="123.6" x2="259.5" y2="137.5" stroke="rgb(0,0,0)"  stroke-width="1.0"/>
<line x1="40.0" y1="83.8" x2="63.6" y2="51.3" stroke="rgb(0,0,0)"  stroke-width="1.0"/>
<line x1="63.6" y1="51.3" x2="101.6" y2="63.8" stroke="rgb(0,0,0)"  stroke-width="1.0"/>
<line x1="101.6" y1="63.8" x2="101.6" y2="103.8" stroke="rgb(0,0,0)"  stroke-width="1.0"/>
<line x1="94.4" y1="69.8" x2="94.4" y2="97.8" stroke="rgb(0,0,0)"  stroke-width="1.0"/>
<line x1="101.6" y1="103.8" x2="63.6" y2="116.2" stroke="rgb(0,0,0)"  stroke-width="1.0"/>
<line x1="63.6" y1="116.2" x2="40.0" y2="83.8" stroke="rgb(0,0,0)"  stroke-width="1.0"/>
<line x1="444.2" y1="84.0" x2="427.9" y2="120.4" stroke="rgb(0,0,0)"  stroke-width="1.0"/>
<line x1="427.9" y1="120.4" x2="388.1" y2="124.6" stroke="rgb(0,0,0)"  stroke-width="1.0"/>
<line x1="421.1" y1="113.9" x2="393.3" y2="116.8" stroke="rgb(0,0,0)"  stroke-width="1.0"/>
<line x1="388.1" y1="124.6" x2="364.6" y2="92.3" stroke="rgb(0,0,0)"  stroke-width="1.0"/>
<line x1="364.6" y1="92.3" x2="381.0" y2="55.8" stroke="rgb(0,0,0)"  stroke-width="1.0"/>
<line x1="373.6" y1="89.8" x2="385.1" y2="64.2" stroke="rgb(0,0,0)"  stroke-width="1.0"/>
<line x1="381.0" y1="55.8" x2="420.6" y2="51.5" stroke="rgb(0,0,0)"  stroke-width="1.0"/>
<line x1="420.6" y1="51.5" x2="444.2" y2="84.0" stroke="rgb(0,0,0)"  stroke-width="1.0"/>
<line x1="418.3" y1="60.6" x2="434.9" y2="83.4" stroke="rgb(0,0,0)"  stroke-width="1.0"/>
<line x1="170.9" y1="103.8" x2="136.2" y2="123.8" stroke="rgb(0,0,0)"  stroke-width="1.0"/>
<line x1="162.1" y1="100.6" x2="137.8" y2="114.6" stroke="rgb(0,0,0)"  stroke-width="1.0"/>
<line x1="136.2" y1="123.8" x2="101.6" y2="103.8" stroke="rgb(0,0,0)"  stroke-width="1.0"/>
<line x1="101.6" y1="63.8" x2="136.2" y2="43.8" stroke="rgb(0,0,0)"  stroke-width="1.0"/>
<line x1="136.2" y1="43.8" x2="170.9" y2="63.8" stroke="rgb(0,0,0)"  stroke-width="1.0"/>
<line x1="137.8" y1="53.1" x2="162.1" y2="67.1" stroke="rgb(0,0,0)"  stroke-width="1.0"/>
<line x1="170.9" y1="63.8" x2="170.9" y2="103.8" stroke="rgb(0,0,0)"  stroke-width="1.0"/>
<text x="478.013347" y="87.789601" fill="rgb(178,178,0)"  stroke="rgb(178,178,0)" stroke-width="1" font-size="16" >S</text>
<text x="236.007623" y="115.471642" fill="rgb(12,12,255)"  stroke="rgb(12,12,255)" stroke-width="1" font-size="16" >N</text>
<text x="302.669508" y="140.923216" fill="rgb(12,12,255)"  stroke="rgb(12,12,255)" stroke-width="1" font-size="16" >N</text>
<text x="302.669508" y="156.923216" fill="rgb(12,12,255)"  stroke="rgb(12,12,255)" stroke-width="1" font-size="16" >H</text>
<text x="242.878433" y="179.907908" fill="rgb(178,178,0)"  stroke="rgb(178,178,0)" stroke-width="1" font-size="16" >S</text>
<text x="620.831151" y="107.592273" fill="rgb(102,102,102)"  stroke="rgb(102,102,102)" stroke-width="1" font-size="16" >CH</text>
<text x="473.770610" y="48.000000" fill="rgb(255,12,12)"  stroke="rgb(255,12,12)" stroke-width="1" font-size="16" >O</text>
<text x="482.052432" y="127.588899" fill="rgb(255,12,12)"  stroke="rgb(255,12,12)" stroke-width="1" font-size="16" >O</text>
<text x="517.807796" y="83.551712" fill="rgb(12,12,255)"  stroke="rgb(12,12,255)" stroke-width="1" font-size="16" >N</text>
<text x="517.807796" y="67.551712" fill="rgb(12,12,255)"  stroke="rgb(12,12,255)" stroke-width="1" font-size="16" >H</text>
<text x="295.396245" y="72.035712" fill="rgb(255,12,12)"  stroke="rgb(255,12,12)" stroke-width="1" font-size="16" >O</text>
<text font-size="18.000000" fill ="black" font-family="sans-serif"
x="10.000000" y="20.000000" ></text>
<title> - OBDepict</title>
</svg>
