<?xml version="1.0"?>
<svg xmlns="http://www.w3.org/2000/svg"
xmlns:xlink="http://www.w3.org/1999/xlink" xmlns:cml="http://www.xml-cml.org/schema" width="520.288" height="252.392" x="0" y="0" font-family="sans-serif" stroke="rgb(0,0,0)" stroke-width="1"  stroke-linecap="round">
<rect x="0%" y="0%" width="100%" height="100%" stroke-width="0" fill="rgb(255,255,255)"  />
<line x1="230.3" y1="120.3" x2="193.3" y2="104.1" stroke="rgb(0,0,0)"  stroke-width="1.0"/>
<line x1="402.4" y1="127.3" x2="375.6" y2="120.7" stroke="rgb(0,0,0)"  stroke-width="1.0"/>
<line x1="258.4" y1="91.3" x2="230.3" y2="120.3" stroke="rgb(0,0,0)"  stroke-width="1.0"/>
<line x1="64.9" y1="123.4" x2="89.8" y2="91.3" stroke="rgb(0,0,0)"  stroke-width="1.0"/>
<line x1="48.0" y1="145.0" x2="64.9" y2="123.4" stroke="rgb(0,0,0)"  stroke-width="1.0"/>
<line x1="44.7" y1="142.4" x2="61.6" y2="120.8" stroke="rgb(0,0,0)"  stroke-width="1.0"/>
<line x1="51.3" y1="147.6" x2="68.2" y2="126.0" stroke="rgb(0,0,0)"  stroke-width="1.0"/>
<line x1="163.8" y1="53.0" x2="163.8" y2="80.4" stroke="rgb(0,0,0)"  stroke-width="1.0"/>
<line x1="157.8" y1="53.0" x2="157.8" y2="80.4" stroke="rgb(0,0,0)"  stroke-width="1.0"/>
<line x1="297.6" y1="101.2" x2="258.4" y2="91.3" stroke="rgb(0,0,0)"  stroke-width="1.0"/>
<line x1="89.8" y1="91.3" x2="115.8" y2="100.0" stroke="rgb(0,0,0)"  stroke-width="1.0"/>
<line x1="207.0" y1="80.4" x2="193.3" y2="104.1" stroke="rgb(0,0,0)"  stroke-width="1.0"/>
<line x1="257.0" y1="75.7" x2="261.2" y2="90.5" stroke="rgb(0,0,0)"  stroke-width="1.0"/>
<line x1="251.2" y1="77.3" x2="255.5" y2="92.2" stroke="rgb(0,0,0)"  stroke-width="1.0"/>
<line x1="160.8" y1="80.4" x2="138.6" y2="96.5" stroke="rgb(0,0,0)"  stroke-width="1.0"/>
<line x1="132.1" y1="116.5" x2="140.4" y2="142.4" stroke="rgb(0,0,0)"  stroke-width="1.0"/>
<line x1="140.4" y1="142.4" x2="181.0" y2="142.4" stroke="rgb(0,0,0)"  stroke-width="1.0"/>
<line x1="146.4" y1="135.2" x2="175.0" y2="135.2" stroke="rgb(0,0,0)"  stroke-width="1.0"/>
<line x1="181.0" y1="142.4" x2="193.3" y2="104.1" stroke="rgb(0,0,0)"  stroke-width="1.0"/>
<line x1="193.3" y1="104.1" x2="160.8" y2="80.4" stroke="rgb(0,0,0)"  stroke-width="1.0"/>
<line x1="425.0" y1="122.0" x2="446.0" y2="104.6" stroke="rgb(0,0,0)"  stroke-width="1.0"/>
<line x1="446.0" y1="104.6" x2="480.3" y2="125.6" stroke="rgb(0,0,0)"  stroke-width="1.0"/>
<line x1="447.3" y1="113.8" x2="471.4" y2="128.6" stroke="rgb(0,0,0)"  stroke-width="1.0"/>
<line x1="480.3" y1="125.6" x2="470.4" y2="165.1" stroke="rgb(0,0,0)"  stroke-width="1.0"/>
<line x1="470.4" y1="165.1" x2="430.1" y2="168.0" stroke="rgb(0,0,0)"  stroke-width="1.0"/>
<line x1="463.9" y1="158.3" x2="435.5" y2="160.4" stroke="rgb(0,0,0)"  stroke-width="1.0"/>
<line x1="430.1" y1="168.0" x2="419.9" y2="142.4" stroke="rgb(0,0,0)"  stroke-width="1.0"/>
<line x1="297.6" y1="101.2" x2="308.8" y2="139.8" stroke="rgb(0,0,0)"  stroke-width="1.0"/>
<line x1="308.8" y1="139.8" x2="347.8" y2="149.8" stroke="rgb(0,0,0)"  stroke-width="1.0"/>
<line x1="316.4" y1="134.3" x2="343.8" y2="141.4" stroke="rgb(0,0,0)"  stroke-width="1.0"/>
<line x1="347.8" y1="149.8" x2="375.6" y2="120.7" stroke="rgb(0,0,0)"  stroke-width="1.0"/>
<line x1="375.6" y1="120.7" x2="364.8" y2="81.9" stroke="rgb(0,0,0)"  stroke-width="1.0"/>
<line x1="367.1" y1="116.8" x2="359.5" y2="89.6" stroke="rgb(0,0,0)"  stroke-width="1.0"/>
<line x1="364.8" y1="81.9" x2="325.6" y2="72.1" stroke="rgb(0,0,0)"  stroke-width="1.0"/>
<line x1="325.6" y1="72.1" x2="297.6" y2="101.2" stroke="rgb(0,0,0)"  stroke-width="1.0"/>
<line x1="326.6" y1="81.4" x2="306.9" y2="101.9" stroke="rgb(0,0,0)"  stroke-width="1.0"/>
<line x1="140.4" y1="142.4" x2="120.5" y2="177.4" stroke="rgb(0,0,0)"  stroke-width="1.0"/>
<line x1="120.5" y1="177.4" x2="140.4" y2="212.4" stroke="rgb(0,0,0)"  stroke-width="1.0"/>
<line x1="129.7" y1="179.1" x2="143.7" y2="203.6" stroke="rgb(0,0,0)"  stroke-width="1.0"/>
<line x1="140.4" y1="212.4" x2="181.0" y2="212.4" stroke="rgb(0,0,0)"  stroke-width="1.0"/>
<line x1="181.0" y1="212.4" x2="201.2" y2="177.4" stroke="rgb(0,0,0)"  stroke-width="1.0"/>
<line x1="177.8" y1="203.6" x2="191.9" y2="179.0" stroke="rgb(0,0,0)"  stroke-width="1.0"/>
<line x1="201.2" y1="177.4" x2="181.0" y2="142.4" stroke="rgb(0,0,0)"  stroke-width="1.0"/>
<text x="122.104553" y="112.114745" fill="rgb(12,12,255)"  stroke="rgb(12,12,255)" stroke-width="1" font-size="16" >N</text>
<text x="409.052416" y="138.345951" fill="rgb(12,12,255)"  stroke="rgb(12,12,255)" stroke-width="1" font-size="16" >N</text>
<text x="22.000000" y="163.226446" fill="rgb(102,102,102)"  stroke="rgb(102,102,102)" stroke-width="1" font-size="16" >HC</text>
<text x="154.829941" y="48.000000" fill="rgb(255,12,12)"  stroke="rgb(255,12,12)" stroke-width="1" font-size="16" >O</text>
<text x="207.517472" y="77.143066" fill="rgb(255,12,12)"  stroke="rgb(255,12,12)" stroke-width="1" font-size="16" >OH</text>
<text x="244.505430" y="71.984914" fill="rgb(255,12,12)"  stroke="rgb(255,12,12)" stroke-width="1" font-size="16" >O</text>
<text font-size="18.000000" fill ="black" font-family="sans-serif"
x="10.000000" y="20.000000" ></text>
<title> - OBDepict</title>
</svg>
