<?xml version="1.0"?>
<svg xmlns="http://www.w3.org/2000/svg"
xmlns:xlink="http://www.w3.org/1999/xlink" xmlns:cml="http://www.xml-cml.org/schema" width="459.99" height="253.329" x="0" y="0" font-family="sans-serif" stroke="rgb(0,0,0)" stroke-width="1"  stroke-linecap="round">
<rect x="0%" y="0%" width="100%" height="100%" stroke-width="0" fill="rgb(255,255,255)"  />
<line x1="80.0" y1="109.3" x2="119.6" y2="109.3" stroke="rgb(0,0,0)"  stroke-width="1.0"/>
<line x1="53.0" y1="109.3" x2="80.0" y2="109.3" stroke="rgb(0,0,0)"  stroke-width="1.0"/>
<line x1="53.0" y1="105.1" x2="80.0" y2="105.1" stroke="rgb(0,0,0)"  stroke-width="1.0"/>
<line x1="53.0" y1="113.5" x2="80.0" y2="113.5" stroke="rgb(0,0,0)"  stroke-width="1.0"/>
<line x1="313.5" y1="120.6" x2="300.0" y2="144.0" stroke="rgb(0,0,0)"  stroke-width="1.0"/>
<line x1="186.5" y1="202.1" x2="200.0" y2="178.7" stroke="rgb(0,0,0)"  stroke-width="1.0"/>
<line x1="300.0" y1="144.0" x2="260.0" y2="144.0" stroke="rgb(0,0,0)"  stroke-width="1.0"/>
<line x1="153.0" y1="144.0" x2="180.0" y2="144.0" stroke="rgb(0,0,0)"  stroke-width="1.0"/>
<line x1="186.5" y1="85.9" x2="200.0" y2="109.3" stroke="rgb(0,0,0)"  stroke-width="1.0"/>
<line x1="119.6" y1="109.3" x2="133.4" y2="132.8" stroke="rgb(0,0,0)"  stroke-width="1.0"/>
<line x1="407.0" y1="74.7" x2="380.0" y2="74.7" stroke="rgb(0,0,0)"  stroke-width="1.0"/>
<line x1="360.0" y1="109.3" x2="333.0" y2="109.3" stroke="rgb(0,0,0)"  stroke-width="1.0"/>
<line x1="380.0" y1="74.7" x2="360.0" y2="109.3" stroke="rgb(0,0,0)"  stroke-width="1.0"/>
<line x1="193.5" y1="51.3" x2="186.5" y2="63.4" stroke="rgb(0,0,0)"  stroke-width="1.0"/>
<line x1="380.0" y1="144.0" x2="360.0" y2="109.3" stroke="rgb(0,0,0)"  stroke-width="1.0"/>
<line x1="407.0" y1="144.0" x2="380.0" y2="144.0" stroke="rgb(0,0,0)"  stroke-width="1.0"/>
<line x1="180.0" y1="144.0" x2="200.0" y2="178.7" stroke="rgb(0,0,0)"  stroke-width="1.0"/>
<line x1="200.0" y1="178.7" x2="240.0" y2="178.7" stroke="rgb(0,0,0)"  stroke-width="1.0"/>
<line x1="206.0" y1="171.5" x2="234.0" y2="171.5" stroke="rgb(0,0,0)"  stroke-width="1.0"/>
<line x1="240.0" y1="178.7" x2="260.0" y2="144.0" stroke="rgb(0,0,0)"  stroke-width="1.0"/>
<line x1="260.0" y1="144.0" x2="240.0" y2="109.3" stroke="rgb(0,0,0)"  stroke-width="1.0"/>
<line x1="250.8" y1="142.4" x2="236.8" y2="118.1" stroke="rgb(0,0,0)"  stroke-width="1.0"/>
<line x1="240.0" y1="109.3" x2="200.0" y2="109.3" stroke="rgb(0,0,0)"  stroke-width="1.0"/>
<line x1="200.0" y1="109.3" x2="180.0" y2="144.0" stroke="rgb(0,0,0)"  stroke-width="1.0"/>
<line x1="203.2" y1="118.1" x2="189.2" y2="142.4" stroke="rgb(0,0,0)"  stroke-width="1.0"/>
<text x="22.000000" y="117.331669" fill="rgb(102,102,102)"  stroke="rgb(102,102,102)" stroke-width="1" font-size="16" >HC</text>
<text x="313.994773" y="117.331669" fill="rgb(12,12,255)"  stroke="rgb(12,12,255)" stroke-width="1" font-size="16" >N</text>
<text x="313.994773" y="101.331669" fill="rgb(12,12,255)"  stroke="rgb(12,12,255)" stroke-width="1" font-size="16" >H</text>
<text x="161.997387" y="221.329174" fill="rgb(165,40,40)"  stroke="rgb(165,40,40)" stroke-width="1" font-size="16" >Br</text>
<text x="133.995361" y="151.997504" fill="rgb(255,12,12)"  stroke="rgb(255,12,12)" stroke-width="1" font-size="16" >O</text>
<text x="173.997387" y="82.665835" fill="rgb(255,12,12)"  stroke="rgb(255,12,12)" stroke-width="1" font-size="16" >O</text>
<text x="413.990134" y="82.665835" fill="rgb(255,12,12)"  stroke="rgb(255,12,12)" stroke-width="1" font-size="16" >OH</text>
<text x="195.993548" y="48.000000" fill="rgb(102,102,102)"  stroke="rgb(102,102,102)" stroke-width="1" font-size="16" >CH</text>
<text x="219.993548" y="51.680000" fill="rgb(102,102,102)"  stroke="rgb(102,102,102)" stroke-width="1" font-size="13" >3</text>
<text x="415.990134" y="151.997504" fill="rgb(102,102,102)"  stroke="rgb(102,102,102)" stroke-width="1" font-size="16" >CH</text>
<text x="439.990134" y="155.677504" fill="rgb(102,102,102)"  stroke="rgb(102,102,102)" stroke-width="1" font-size="13" >3</text>
<text font-size="18.000000" fill ="black" font-family="sans-serif"
x="10.000000" y="20.000000" ></text>
<title> - OBDepict</title>
</svg>
