<?xml version="1.0"?>
<svg xmlns="http://www.w3.org/2000/svg"
xmlns:xlink="http://www.w3.org/1999/xlink" xmlns:cml="http://www.xml-cml.org/schema" width="366.53" height="271.155" x="0" y="0" font-family="sans-serif" stroke="rgb(0,0,0)" stroke-width="1"  stroke-linecap="round">
<rect x="0%" y="0%" width="100%" height="100%" stroke-width="0" fill="rgb(255,255,255)"  />
<line x1="193.2" y1="169.4" x2="186.4" y2="143.5" stroke="rgb(0,0,0)"  stroke-width="1.0"/>
<line x1="286.0" y1="40.4" x2="246.5" y2="40.0" stroke="rgb(0,0,0)"  stroke-width="1.0"/>
<line x1="313.5" y1="40.7" x2="286.0" y2="40.4" stroke="rgb(0,0,0)"  stroke-width="1.0"/>
<line x1="313.5" y1="44.9" x2="286.0" y2="44.6" stroke="rgb(0,0,0)"  stroke-width="1.0"/>
<line x1="313.6" y1="36.5" x2="286.1" y2="36.2" stroke="rgb(0,0,0)"  stroke-width="1.0"/>
<line x1="235.2" y1="192.3" x2="209.1" y2="185.3" stroke="rgb(0,0,0)"  stroke-width="1.0"/>
<line x1="150.0" y1="160.1" x2="186.4" y2="143.5" stroke="rgb(0,0,0)"  stroke-width="1.0"/>
<line x1="256.2" y1="175.3" x2="237.3" y2="194.4" stroke="rgb(0,0,0)"  stroke-width="1.0"/>
<line x1="251.9" y1="171.1" x2="233.1" y2="190.2" stroke="rgb(0,0,0)"  stroke-width="1.0"/>
<line x1="246.5" y1="40.0" x2="232.8" y2="63.1" stroke="rgb(0,0,0)"  stroke-width="1.0"/>
<line x1="242.2" y1="218.6" x2="235.2" y2="192.3" stroke="rgb(0,0,0)"  stroke-width="1.0"/>
<line x1="51.9" y1="204.0" x2="77.3" y2="193.1" stroke="rgb(0,0,0)"  stroke-width="1.0"/>
<line x1="186.4" y1="143.5" x2="166.0" y2="108.8" stroke="rgb(0,0,0)"  stroke-width="1.0"/>
<line x1="166.0" y1="108.8" x2="185.6" y2="74.0" stroke="rgb(0,0,0)"  stroke-width="1.0"/>
<line x1="185.6" y1="74.0" x2="213.1" y2="74.2" stroke="rgb(0,0,0)"  stroke-width="1.0"/>
<line x1="232.7" y1="85.4" x2="246.1" y2="108.2" stroke="rgb(0,0,0)"  stroke-width="1.0"/>
<line x1="246.1" y1="108.2" x2="226.3" y2="143.1" stroke="rgb(0,0,0)"  stroke-width="1.0"/>
<line x1="226.3" y1="143.1" x2="186.4" y2="143.5" stroke="rgb(0,0,0)"  stroke-width="1.0"/>
<line x1="150.0" y1="160.1" x2="145.9" y2="200.0" stroke="rgb(0,0,0)"  stroke-width="1.0"/>
<line x1="145.9" y1="200.0" x2="109.5" y2="216.8" stroke="rgb(0,0,0)"  stroke-width="1.0"/>
<line x1="137.4" y1="195.9" x2="111.9" y2="207.7" stroke="rgb(0,0,0)"  stroke-width="1.0"/>
<line x1="109.5" y1="216.8" x2="77.3" y2="193.1" stroke="rgb(0,0,0)"  stroke-width="1.0"/>
<line x1="77.3" y1="193.1" x2="81.1" y2="153.6" stroke="rgb(0,0,0)"  stroke-width="1.0"/>
<line x1="85.0" y1="187.8" x2="87.7" y2="160.3" stroke="rgb(0,0,0)"  stroke-width="1.0"/>
<line x1="81.1" y1="153.6" x2="117.8" y2="137.2" stroke="rgb(0,0,0)"  stroke-width="1.0"/>
<line x1="117.8" y1="137.2" x2="150.0" y2="160.1" stroke="rgb(0,0,0)"  stroke-width="1.0"/>
<line x1="118.5" y1="146.5" x2="140.9" y2="162.5" stroke="rgb(0,0,0)"  stroke-width="1.0"/>
<text x="178.529555" y="189.949012" fill="rgb(12,12,255)"  stroke="rgb(12,12,255)" stroke-width="1" font-size="16" >HN</text>
<text x="220.093766" y="82.222019" fill="rgb(12,12,255)"  stroke="rgb(12,12,255)" stroke-width="1" font-size="16" >N</text>
<text x="320.530487" y="48.811109" fill="rgb(102,102,102)"  stroke="rgb(102,102,102)" stroke-width="1" font-size="16" >CH</text>
<text x="257.147383" y="171.929754" fill="rgb(255,12,12)"  stroke="rgb(255,12,12)" stroke-width="1" font-size="16" >O</text>
<text x="241.531251" y="239.154700" fill="rgb(102,102,102)"  stroke="rgb(102,102,102)" stroke-width="1" font-size="16" >CH</text>
<text x="265.531251" y="242.834700" fill="rgb(102,102,102)"  stroke="rgb(102,102,102)" stroke-width="1" font-size="13" >3</text>
<text x="14.000000" y="217.079895" fill="rgb(102,102,102)"  stroke="rgb(102,102,102)" stroke-width="1" font-size="16" >H</text>
<text x="26.000000" y="220.759895" fill="rgb(102,102,102)"  stroke="rgb(102,102,102)" stroke-width="1" font-size="13" >3</text>
<text x="32.500000" y="217.079895" fill="rgb(102,102,102)"  stroke="rgb(102,102,102)" stroke-width="1" font-size="16" >C</text>
<text font-size="18.000000" fill ="black" font-family="sans-serif"
x="10.000000" y="20.000000" ></text>
<title> - OBDepict</title>
</svg>
