<?xml version="1.0"?>
<svg xmlns="http://www.w3.org/2000/svg"
xmlns:xlink="http://www.w3.org/1999/xlink" xmlns:cml="http://www.xml-cml.org/schema" width="595.01" height="285.601" x="0" y="0" font-family="sans-serif" stroke="rgb(0,0,0)" stroke-width="1"  stroke-linecap="round">
<rect x="0%" y="0%" width="100%" height="100%" stroke-width="0" fill="rgb(255,255,255)"  />
<line x1="469.5" y1="185.9" x2="495.7" y2="194.2" stroke="rgb(0,0,0)"  stroke-width="1.0"/>
<line x1="393.4" y1="184.8" x2="367.7" y2="193.1" stroke="rgb(0,0,0)"  stroke-width="1.0"/>
<line x1="391.6" y1="179.1" x2="365.8" y2="187.4" stroke="rgb(0,0,0)"  stroke-width="1.0"/>
<line x1="428.1" y1="205.5" x2="428.1" y2="232.6" stroke="rgb(0,0,0)"  stroke-width="1.0"/>
<line x1="422.1" y1="205.5" x2="422.1" y2="232.6" stroke="rgb(0,0,0)"  stroke-width="1.0"/>
<line x1="495.7" y1="194.2" x2="525.2" y2="167.6" stroke="rgb(0,0,0)"  stroke-width="1.0"/>
<line x1="344.8" y1="185.5" x2="334.6" y2="176.3" stroke="rgb(0,0,0)"  stroke-width="1.0"/>
<line x1="405.2" y1="74.6" x2="391.6" y2="51.2" stroke="rgb(0,0,0)"  stroke-width="1.0"/>
<line x1="525.2" y1="167.6" x2="545.3" y2="149.5" stroke="rgb(0,0,0)"  stroke-width="1.0"/>
<line x1="522.4" y1="164.4" x2="542.5" y2="146.4" stroke="rgb(0,0,0)"  stroke-width="1.0"/>
<line x1="528.0" y1="170.7" x2="548.1" y2="152.7" stroke="rgb(0,0,0)"  stroke-width="1.0"/>
<line x1="312.6" y1="171.6" x2="286.8" y2="179.9" stroke="rgb(0,0,0)"  stroke-width="1.0"/>
<line x1="286.8" y1="179.9" x2="257.0" y2="153.2" stroke="rgb(0,0,0)"  stroke-width="1.0"/>
<line x1="289.8" y1="180.5" x2="284.1" y2="206.8" stroke="rgb(0,0,0)"  stroke-width="1.0"/>
<line x1="283.9" y1="179.3" x2="278.2" y2="205.6" stroke="rgb(0,0,0)"  stroke-width="1.0"/>
<line x1="257.0" y1="153.2" x2="231.3" y2="161.5" stroke="rgb(0,0,0)"  stroke-width="1.0"/>
<line x1="154.3" y1="165.5" x2="116.2" y2="153.2" stroke="rgb(0,0,0)"  stroke-width="1.0"/>
<line x1="445.1" y1="144.0" x2="405.2" y2="144.0" stroke="rgb(0,0,0)"  stroke-width="1.0"/>
<line x1="439.1" y1="151.2" x2="411.2" y2="151.2" stroke="rgb(0,0,0)"  stroke-width="1.0"/>
<line x1="405.2" y1="144.0" x2="392.5" y2="181.9" stroke="rgb(0,0,0)"  stroke-width="1.0"/>
<line x1="392.5" y1="181.9" x2="425.1" y2="205.5" stroke="rgb(0,0,0)"  stroke-width="1.0"/>
<line x1="425.1" y1="205.5" x2="446.6" y2="189.6" stroke="rgb(0,0,0)"  stroke-width="1.0"/>
<line x1="453.2" y1="169.5" x2="445.1" y2="144.0" stroke="rgb(0,0,0)"  stroke-width="1.0"/>
<line x1="208.3" y1="158.0" x2="196.9" y2="149.7" stroke="rgb(0,0,0)"  stroke-width="1.0"/>
<line x1="175.8" y1="149.9" x2="154.3" y2="165.5" stroke="rgb(0,0,0)"  stroke-width="1.0"/>
<line x1="178.4" y1="156.9" x2="163.4" y2="167.8" stroke="rgb(0,0,0)"  stroke-width="1.0"/>
<line x1="154.3" y1="165.5" x2="162.4" y2="191.1" stroke="rgb(0,0,0)"  stroke-width="1.0"/>
<line x1="179.4" y1="203.4" x2="193.0" y2="203.4" stroke="rgb(0,0,0)"  stroke-width="1.0"/>
<line x1="181.5" y1="196.2" x2="191.0" y2="196.2" stroke="rgb(0,0,0)"  stroke-width="1.0"/>
<line x1="210.3" y1="191.1" x2="214.8" y2="177.9" stroke="rgb(0,0,0)"  stroke-width="1.0"/>
<line x1="445.1" y1="144.0" x2="465.2" y2="109.2" stroke="rgb(0,0,0)"  stroke-width="1.0"/>
<line x1="465.2" y1="109.2" x2="445.1" y2="74.6" stroke="rgb(0,0,0)"  stroke-width="1.0"/>
<line x1="455.9" y1="107.6" x2="441.9" y2="83.4" stroke="rgb(0,0,0)"  stroke-width="1.0"/>
<line x1="445.1" y1="74.6" x2="405.2" y2="74.6" stroke="rgb(0,0,0)"  stroke-width="1.0"/>
<line x1="405.2" y1="74.6" x2="385.1" y2="109.2" stroke="rgb(0,0,0)"  stroke-width="1.0"/>
<line x1="408.4" y1="83.4" x2="394.4" y2="107.6" stroke="rgb(0,0,0)"  stroke-width="1.0"/>
<line x1="385.1" y1="109.2" x2="405.2" y2="144.0" stroke="rgb(0,0,0)"  stroke-width="1.0"/>
<line x1="116.2" y1="153.2" x2="86.2" y2="179.9" stroke="rgb(0,0,0)"  stroke-width="1.0"/>
<line x1="106.9" y1="151.8" x2="85.9" y2="170.5" stroke="rgb(0,0,0)"  stroke-width="1.0"/>
<line x1="86.2" y1="179.9" x2="48.1" y2="167.6" stroke="rgb(0,0,0)"  stroke-width="1.0"/>
<line x1="48.1" y1="167.6" x2="40.0" y2="128.2" stroke="rgb(0,0,0)"  stroke-width="1.0"/>
<line x1="53.9" y1="160.2" x2="48.3" y2="132.6" stroke="rgb(0,0,0)"  stroke-width="1.0"/>
<line x1="40.0" y1="128.2" x2="69.4" y2="101.5" stroke="rgb(0,0,0)"  stroke-width="1.0"/>
<line x1="69.4" y1="101.5" x2="107.5" y2="114.2" stroke="rgb(0,0,0)"  stroke-width="1.0"/>
<line x1="72.9" y1="110.2" x2="99.6" y2="119.1" stroke="rgb(0,0,0)"  stroke-width="1.0"/>
<line x1="107.5" y1="114.2" x2="116.2" y2="153.2" stroke="rgb(0,0,0)"  stroke-width="1.0"/>
<text x="451.086497" y="189.913308" fill="rgb(12,12,255)"  stroke="rgb(12,12,255)" stroke-width="1" font-size="16" >N</text>
<text x="348.385247" y="202.248324" fill="rgb(12,12,255)"  stroke="rgb(12,12,255)" stroke-width="1" font-size="16" >N</text>
<text x="419.062993" y="253.601374" fill="rgb(255,12,12)"  stroke="rgb(255,12,12)" stroke-width="1" font-size="16" >O</text>
<text x="318.932548" y="175.560453" fill="rgb(12,12,255)"  stroke="rgb(12,12,255)" stroke-width="1" font-size="16" >N</text>
<text x="318.932548" y="159.560453" fill="rgb(12,12,255)"  stroke="rgb(12,12,255)" stroke-width="1" font-size="16" >H</text>
<text x="367.118498" y="48.000000" fill="rgb(165,40,40)"  stroke="rgb(165,40,40)" stroke-width="1" font-size="16" >Br</text>
<text x="549.009930" y="148.867732" fill="rgb(102,102,102)"  stroke="rgb(102,102,102)" stroke-width="1" font-size="16" >CH</text>
<text x="272.362166" y="226.913504" fill="rgb(255,12,12)"  stroke="rgb(255,12,12)" stroke-width="1" font-size="16" >O</text>
<text x="212.908653" y="173.532913" fill="rgb(12,12,255)"  stroke="rgb(12,12,255)" stroke-width="1" font-size="16" >N</text>
<text x="180.332183" y="150.153135" fill="rgb(12,12,255)"  stroke="rgb(12,12,255)" stroke-width="1" font-size="16" >N</text>
<text x="200.209845" y="211.449867" fill="rgb(12,12,255)"  stroke="rgb(12,12,255)" stroke-width="1" font-size="16" >N</text>
<text x="160.265350" y="211.449867" fill="rgb(12,12,255)"  stroke="rgb(12,12,255)" stroke-width="1" font-size="16" >N</text>
<text font-size="18.000000" fill ="black" font-family="sans-serif"
x="10.000000" y="20.000000" ></text>
<title> - OBDepict</title>
</svg>
