<?xml version="1.0"?>
<svg xmlns="http://www.w3.org/2000/svg"
xmlns:xlink="http://www.w3.org/1999/xlink" xmlns:cml="http://www.xml-cml.org/schema" width="253.347" height="459.827" x="0" y="0" font-family="sans-serif" stroke="rgb(0,0,0)" stroke-width="1"  stroke-linecap="round">
<rect x="0%" y="0%" width="100%" height="100%" stroke-width="0" fill="rgb(255,255,255)"  />
<line x1="178.6" y1="79.8" x2="178.6" y2="119.8" stroke="rgb(0,0,0)"  stroke-width="1.0"/>
<line x1="109.3" y1="212.8" x2="109.3" y2="239.8" stroke="rgb(0,0,0)"  stroke-width="1.0"/>
<line x1="178.6" y1="53.0" x2="178.6" y2="79.8" stroke="rgb(0,0,0)"  stroke-width="1.0"/>
<line x1="182.8" y1="53.0" x2="182.8" y2="79.8" stroke="rgb(0,0,0)"  stroke-width="1.0"/>
<line x1="174.4" y1="53.0" x2="174.4" y2="79.8" stroke="rgb(0,0,0)"  stroke-width="1.0"/>
<line x1="86.0" y1="253.3" x2="109.3" y2="239.8" stroke="rgb(0,0,0)"  stroke-width="1.0"/>
<line x1="131.3" y1="255.9" x2="107.8" y2="242.4" stroke="rgb(0,0,0)"  stroke-width="1.0"/>
<line x1="134.3" y1="250.7" x2="110.8" y2="237.2" stroke="rgb(0,0,0)"  stroke-width="1.0"/>
<line x1="144.0" y1="179.8" x2="120.6" y2="193.3" stroke="rgb(0,0,0)"  stroke-width="1.0"/>
<line x1="74.7" y1="299.8" x2="74.7" y2="272.8" stroke="rgb(0,0,0)"  stroke-width="1.0"/>
<line x1="74.7" y1="406.8" x2="74.7" y2="379.8" stroke="rgb(0,0,0)"  stroke-width="1.0"/>
<line x1="74.7" y1="299.8" x2="109.3" y2="319.8" stroke="rgb(0,0,0)"  stroke-width="1.0"/>
<line x1="109.3" y1="319.8" x2="109.3" y2="359.8" stroke="rgb(0,0,0)"  stroke-width="1.0"/>
<line x1="102.1" y1="325.8" x2="102.1" y2="353.8" stroke="rgb(0,0,0)"  stroke-width="1.0"/>
<line x1="109.3" y1="359.8" x2="74.7" y2="379.8" stroke="rgb(0,0,0)"  stroke-width="1.0"/>
<line x1="74.7" y1="379.8" x2="40.0" y2="359.8" stroke="rgb(0,0,0)"  stroke-width="1.0"/>
<line x1="73.1" y1="370.6" x2="48.8" y2="356.6" stroke="rgb(0,0,0)"  stroke-width="1.0"/>
<line x1="40.0" y1="359.8" x2="40.0" y2="319.8" stroke="rgb(0,0,0)"  stroke-width="1.0"/>
<line x1="40.0" y1="319.8" x2="74.7" y2="299.8" stroke="rgb(0,0,0)"  stroke-width="1.0"/>
<line x1="48.8" y1="323.1" x2="73.1" y2="309.1" stroke="rgb(0,0,0)"  stroke-width="1.0"/>
<line x1="144.0" y1="179.8" x2="144.0" y2="139.8" stroke="rgb(0,0,0)"  stroke-width="1.0"/>
<line x1="151.2" y1="173.8" x2="151.2" y2="145.8" stroke="rgb(0,0,0)"  stroke-width="1.0"/>
<line x1="144.0" y1="139.8" x2="178.6" y2="119.8" stroke="rgb(0,0,0)"  stroke-width="1.0"/>
<line x1="178.6" y1="119.8" x2="213.3" y2="139.8" stroke="rgb(0,0,0)"  stroke-width="1.0"/>
<line x1="180.2" y1="129.0" x2="204.6" y2="143.1" stroke="rgb(0,0,0)"  stroke-width="1.0"/>
<line x1="213.3" y1="139.8" x2="213.3" y2="179.8" stroke="rgb(0,0,0)"  stroke-width="1.0"/>
<line x1="213.3" y1="179.8" x2="178.6" y2="199.8" stroke="rgb(0,0,0)"  stroke-width="1.0"/>
<line x1="204.6" y1="176.6" x2="180.2" y2="190.6" stroke="rgb(0,0,0)"  stroke-width="1.0"/>
<line x1="178.6" y1="199.8" x2="144.0" y2="179.8" stroke="rgb(0,0,0)"  stroke-width="1.0"/>
<text x="91.295232" y="207.809128" fill="rgb(12,12,255)"  stroke="rgb(12,12,255)" stroke-width="1" font-size="16" >HN</text>
<text x="172.595313" y="48.000000" fill="rgb(102,102,102)"  stroke="rgb(102,102,102)" stroke-width="1" font-size="16" >CH</text>
<text x="56.747018" y="267.813921" fill="rgb(12,12,255)"  stroke="rgb(12,12,255)" stroke-width="1" font-size="16" >HN</text>
<text x="138.047099" y="267.813921" fill="rgb(255,12,12)"  stroke="rgb(255,12,12)" stroke-width="1" font-size="16" >O</text>
<text x="70.747018" y="427.826702" fill="rgb(102,102,102)"  stroke="rgb(102,102,102)" stroke-width="1" font-size="16" >CH</text>
<text x="94.747018" y="431.506702" fill="rgb(102,102,102)"  stroke="rgb(102,102,102)" stroke-width="1" font-size="13" >3</text>
<text font-size="18.000000" fill ="black" font-family="sans-serif"
x="10.000000" y="20.000000" ></text>
<title> - OBDepict</title>
</svg>
