<?xml version="1.0"?>
<svg xmlns="http://www.w3.org/2000/svg"
xmlns:xlink="http://www.w3.org/1999/xlink" xmlns:cml="http://www.xml-cml.org/schema" width="426.394" height="279.96" x="0" y="0" font-family="sans-serif" stroke="rgb(0,0,0)" stroke-width="1"  stroke-linecap="round">
<rect x="0%" y="0%" width="100%" height="100%" stroke-width="0" fill="rgb(255,255,255)"  />
<line x1="317.1" y1="147.0" x2="317.1" y2="120.0" stroke="rgb(0,0,0)"  stroke-width="1.0"/>
<line x1="312.9" y1="147.0" x2="312.9" y2="120.0" stroke="rgb(0,0,0)"  stroke-width="1.0"/>
<line x1="321.3" y1="147.0" x2="321.3" y2="120.0" stroke="rgb(0,0,0)"  stroke-width="1.0"/>
<line x1="375.1" y1="46.5" x2="351.7" y2="60.0" stroke="rgb(0,0,0)"  stroke-width="1.0"/>
<line x1="377.2" y1="50.1" x2="353.8" y2="63.6" stroke="rgb(0,0,0)"  stroke-width="1.0"/>
<line x1="373.0" y1="42.8" x2="349.6" y2="56.4" stroke="rgb(0,0,0)"  stroke-width="1.0"/>
<line x1="351.7" y1="60.0" x2="317.1" y2="80.0" stroke="rgb(0,0,0)"  stroke-width="1.0"/>
<line x1="317.1" y1="120.0" x2="317.1" y2="80.0" stroke="rgb(0,0,0)"  stroke-width="1.0"/>
<line x1="74.5" y1="140.0" x2="109.3" y2="120.0" stroke="rgb(0,0,0)"  stroke-width="1.0"/>
<line x1="283.9" y1="57.4" x2="318.6" y2="77.4" stroke="rgb(0,0,0)"  stroke-width="1.0"/>
<line x1="280.9" y1="62.6" x2="315.6" y2="82.6" stroke="rgb(0,0,0)"  stroke-width="1.0"/>
<line x1="51.3" y1="153.5" x2="74.5" y2="140.0" stroke="rgb(0,0,0)"  stroke-width="1.0"/>
<line x1="49.1" y1="149.8" x2="72.4" y2="136.3" stroke="rgb(0,0,0)"  stroke-width="1.0"/>
<line x1="53.4" y1="157.1" x2="76.6" y2="143.6" stroke="rgb(0,0,0)"  stroke-width="1.0"/>
<line x1="247.8" y1="80.0" x2="282.4" y2="60.0" stroke="rgb(0,0,0)"  stroke-width="1.0"/>
<line x1="213.1" y1="167.0" x2="213.1" y2="140.0" stroke="rgb(0,0,0)"  stroke-width="1.0"/>
<line x1="155.1" y1="133.5" x2="178.6" y2="120.0" stroke="rgb(0,0,0)"  stroke-width="1.0"/>
<line x1="109.3" y1="120.0" x2="132.6" y2="133.5" stroke="rgb(0,0,0)"  stroke-width="1.0"/>
<line x1="247.8" y1="200.0" x2="224.4" y2="186.5" stroke="rgb(0,0,0)"  stroke-width="1.0"/>
<line x1="247.8" y1="227.0" x2="247.8" y2="200.0" stroke="rgb(0,0,0)"  stroke-width="1.0"/>
<line x1="213.1" y1="140.0" x2="178.6" y2="120.0" stroke="rgb(0,0,0)"  stroke-width="1.0"/>
<line x1="211.5" y1="130.7" x2="187.4" y2="116.8" stroke="rgb(0,0,0)"  stroke-width="1.0"/>
<line x1="178.6" y1="120.0" x2="178.6" y2="80.0" stroke="rgb(0,0,0)"  stroke-width="1.0"/>
<line x1="178.6" y1="80.0" x2="213.1" y2="60.0" stroke="rgb(0,0,0)"  stroke-width="1.0"/>
<line x1="187.4" y1="83.2" x2="211.5" y2="69.2" stroke="rgb(0,0,0)"  stroke-width="1.0"/>
<line x1="213.1" y1="60.0" x2="247.8" y2="80.0" stroke="rgb(0,0,0)"  stroke-width="1.0"/>
<line x1="247.8" y1="80.0" x2="247.8" y2="120.0" stroke="rgb(0,0,0)"  stroke-width="1.0"/>
<line x1="240.6" y1="86.0" x2="240.6" y2="114.0" stroke="rgb(0,0,0)"  stroke-width="1.0"/>
<line x1="247.8" y1="120.0" x2="213.1" y2="140.0" stroke="rgb(0,0,0)"  stroke-width="1.0"/>
<text x="311.118406" y="167.976220" fill="rgb(12,12,255)"  stroke="rgb(12,12,255)" stroke-width="1" font-size="16" >N</text>
<text x="380.394372" y="48.000000" fill="rgb(12,12,255)"  stroke="rgb(12,12,255)" stroke-width="1" font-size="16" >N</text>
<text x="22.000000" y="167.976220" fill="rgb(102,102,102)"  stroke="rgb(102,102,102)" stroke-width="1" font-size="16" >HC</text>
<text x="207.095388" y="187.972256" fill="rgb(255,12,12)"  stroke="rgb(255,12,12)" stroke-width="1" font-size="16" >O</text>
<text x="137.819422" y="147.980183" fill="rgb(255,12,12)"  stroke="rgb(255,12,12)" stroke-width="1" font-size="16" >O</text>
<text x="243.837593" y="247.960366" fill="rgb(102,102,102)"  stroke="rgb(102,102,102)" stroke-width="1" font-size="16" >CH</text>
<text x="267.837593" y="251.640366" fill="rgb(102,102,102)"  stroke="rgb(102,102,102)" stroke-width="1" font-size="13" >3</text>
<text font-size="18.000000" fill ="black" font-family="sans-serif"
x="10.000000" y="20.000000" ></text>
<title> - OBDepict</title>
</svg>
