<?xml version="1.0"?>
<svg xmlns="http://www.w3.org/2000/svg"
xmlns:xlink="http://www.w3.org/1999/xlink" xmlns:cml="http://www.xml-cml.org/schema" width="419.403" height="391.338" x="0" y="0" font-family="sans-serif" stroke="rgb(0,0,0)" stroke-width="1"  stroke-linecap="round">
<rect x="0%" y="0%" width="100%" height="100%" stroke-width="0" fill="rgb(255,255,255)"  />
<line x1="301.8" y1="107.7" x2="321.7" y2="142.6" stroke="rgb(0,0,0)"  stroke-width="1.0"/>
<line x1="296.6" y1="110.6" x2="316.5" y2="145.5" stroke="rgb(0,0,0)"  stroke-width="1.0"/>
<line x1="298.8" y1="247.9" x2="312.2" y2="224.5" stroke="rgb(0,0,0)"  stroke-width="1.0"/>
<line x1="259.1" y1="109.2" x2="299.2" y2="109.2" stroke="rgb(0,0,0)"  stroke-width="1.0"/>
<line x1="79.9" y1="73.1" x2="120.0" y2="73.7" stroke="rgb(0,0,0)"  stroke-width="1.0"/>
<line x1="369.7" y1="238.3" x2="356.4" y2="215.1" stroke="rgb(0,0,0)"  stroke-width="1.0"/>
<line x1="374.9" y1="235.3" x2="361.6" y2="212.1" stroke="rgb(0,0,0)"  stroke-width="1.0"/>
<line x1="53.0" y1="72.7" x2="79.9" y2="73.1" stroke="rgb(0,0,0)"  stroke-width="1.0"/>
<line x1="53.1" y1="68.5" x2="80.0" y2="68.9" stroke="rgb(0,0,0)"  stroke-width="1.0"/>
<line x1="52.9" y1="76.9" x2="79.8" y2="77.3" stroke="rgb(0,0,0)"  stroke-width="1.0"/>
<line x1="271.5" y1="175.8" x2="298.6" y2="175.9" stroke="rgb(0,0,0)"  stroke-width="1.0"/>
<line x1="271.5" y1="181.8" x2="298.6" y2="181.9" stroke="rgb(0,0,0)"  stroke-width="1.0"/>
<line x1="375.4" y1="122.3" x2="361.5" y2="145.6" stroke="rgb(0,0,0)"  stroke-width="1.0"/>
<line x1="370.2" y1="119.2" x2="356.4" y2="142.5" stroke="rgb(0,0,0)"  stroke-width="1.0"/>
<line x1="186.2" y1="51.3" x2="199.6" y2="74.9" stroke="rgb(0,0,0)"  stroke-width="1.0"/>
<line x1="185.2" y1="166.6" x2="199.0" y2="143.4" stroke="rgb(0,0,0)"  stroke-width="1.0"/>
<line x1="152.4" y1="108.8" x2="179.5" y2="109.2" stroke="rgb(0,0,0)"  stroke-width="1.0"/>
<line x1="120.0" y1="73.7" x2="133.1" y2="97.2" stroke="rgb(0,0,0)"  stroke-width="1.0"/>
<line x1="238.1" y1="351.3" x2="258.3" y2="316.7" stroke="rgb(0,0,0)"  stroke-width="1.0"/>
<line x1="210.8" y1="351.3" x2="238.1" y2="351.3" stroke="rgb(0,0,0)"  stroke-width="1.0"/>
<line x1="312.1" y1="202.0" x2="298.6" y2="178.9" stroke="rgb(0,0,0)"  stroke-width="1.0"/>
<line x1="298.6" y1="178.9" x2="319.1" y2="144.0" stroke="rgb(0,0,0)"  stroke-width="1.0"/>
<line x1="319.1" y1="144.0" x2="359.0" y2="144.0" stroke="rgb(0,0,0)"  stroke-width="1.0"/>
<line x1="359.0" y1="144.0" x2="372.4" y2="167.6" stroke="rgb(0,0,0)"  stroke-width="1.0"/>
<line x1="372.3" y1="190.2" x2="359.0" y2="213.6" stroke="rgb(0,0,0)"  stroke-width="1.0"/>
<line x1="359.0" y1="213.6" x2="331.7" y2="213.3" stroke="rgb(0,0,0)"  stroke-width="1.0"/>
<line x1="199.6" y1="74.9" x2="179.5" y2="109.2" stroke="rgb(0,0,0)"  stroke-width="1.0"/>
<line x1="179.5" y1="109.2" x2="199.0" y2="143.4" stroke="rgb(0,0,0)"  stroke-width="1.0"/>
<line x1="188.8" y1="110.8" x2="202.3" y2="134.7" stroke="rgb(0,0,0)"  stroke-width="1.0"/>
<line x1="199.0" y1="143.4" x2="239.1" y2="143.8" stroke="rgb(0,0,0)"  stroke-width="1.0"/>
<line x1="239.1" y1="143.8" x2="259.1" y2="109.2" stroke="rgb(0,0,0)"  stroke-width="1.0"/>
<line x1="235.8" y1="135.0" x2="249.9" y2="110.8" stroke="rgb(0,0,0)"  stroke-width="1.0"/>
<line x1="259.1" y1="109.2" x2="239.7" y2="74.9" stroke="rgb(0,0,0)"  stroke-width="1.0"/>
<line x1="239.7" y1="74.9" x2="199.6" y2="74.9" stroke="rgb(0,0,0)"  stroke-width="1.0"/>
<line x1="233.7" y1="82.1" x2="205.6" y2="82.1" stroke="rgb(0,0,0)"  stroke-width="1.0"/>
<line x1="298.8" y1="247.9" x2="258.5" y2="247.5" stroke="rgb(0,0,0)"  stroke-width="1.0"/>
<line x1="292.7" y1="255.0" x2="264.4" y2="254.8" stroke="rgb(0,0,0)"  stroke-width="1.0"/>
<line x1="258.5" y1="247.5" x2="238.5" y2="281.8" stroke="rgb(0,0,0)"  stroke-width="1.0"/>
<line x1="238.5" y1="281.8" x2="258.3" y2="316.7" stroke="rgb(0,0,0)"  stroke-width="1.0"/>
<line x1="247.7" y1="283.4" x2="261.6" y2="307.9" stroke="rgb(0,0,0)"  stroke-width="1.0"/>
<line x1="258.3" y1="316.7" x2="298.2" y2="317.1" stroke="rgb(0,0,0)"  stroke-width="1.0"/>
<line x1="298.2" y1="317.1" x2="318.7" y2="282.4" stroke="rgb(0,0,0)"  stroke-width="1.0"/>
<line x1="295.1" y1="308.2" x2="309.4" y2="283.9" stroke="rgb(0,0,0)"  stroke-width="1.0"/>
<line x1="318.7" y1="282.4" x2="298.8" y2="247.9" stroke="rgb(0,0,0)"  stroke-width="1.0"/>
<text x="312.660607" y="221.212790" fill="rgb(12,12,255)"  stroke="rgb(12,12,255)" stroke-width="1" font-size="16" >N</text>
<text x="372.800562" y="186.931800" fill="rgb(12,12,255)"  stroke="rgb(12,12,255)" stroke-width="1" font-size="16" >NH</text>
<text x="372.800562" y="256.096393" fill="rgb(255,12,12)"  stroke="rgb(255,12,12)" stroke-width="1" font-size="16" >O</text>
<text x="22.000000" y="80.478006" fill="rgb(102,102,102)"  stroke="rgb(102,102,102)" stroke-width="1" font-size="16" >HC</text>
<text x="252.515792" y="186.727689" fill="rgb(255,12,12)"  stroke="rgb(255,12,12)" stroke-width="1" font-size="16" >O</text>
<text x="373.403176" y="117.563096" fill="rgb(255,12,12)"  stroke="rgb(255,12,12)" stroke-width="1" font-size="16" >O</text>
<text x="161.733666" y="48.000000" fill="rgb(30,239,30)"  stroke="rgb(30,239,30)" stroke-width="1" font-size="16" >Cl</text>
<text x="160.528437" y="185.726571" fill="rgb(30,239,30)"  stroke="rgb(30,239,30)" stroke-width="1" font-size="16" >Cl</text>
<text x="133.436252" y="116.561978" fill="rgb(255,12,12)"  stroke="rgb(255,12,12)" stroke-width="1" font-size="16" >O</text>
<text x="171.773223" y="359.337864" fill="rgb(102,102,102)"  stroke="rgb(102,102,102)" stroke-width="1" font-size="16" >H</text>
<text x="183.773223" y="363.017864" fill="rgb(102,102,102)"  stroke="rgb(102,102,102)" stroke-width="1" font-size="13" >3</text>
<text x="190.273223" y="359.337864" fill="rgb(102,102,102)"  stroke="rgb(102,102,102)" stroke-width="1" font-size="16" >C</text>
<text font-size="18.000000" fill ="black" font-family="sans-serif"
x="10.000000" y="20.000000" ></text>
<title> - OBDepict</title>
</svg>
