<?xml version="1.0"?>
<svg xmlns="http://www.w3.org/2000/svg"
xmlns:xlink="http://www.w3.org/1999/xlink" xmlns:cml="http://www.xml-cml.org/schema" width="431.662" height="333.589" x="0" y="0" font-family="sans-serif" stroke="rgb(0,0,0)" stroke-width="1"  stroke-linecap="round">
<rect x="0%" y="0%" width="100%" height="100%" stroke-width="0" fill="rgb(255,255,255)"  />
<line x1="235.5" y1="144.6" x2="210.0" y2="151.5" stroke="rgb(0,0,0)"  stroke-width="1.0"/>
<line x1="233.9" y1="138.8" x2="208.5" y2="145.7" stroke="rgb(0,0,0)"  stroke-width="1.0"/>
<line x1="275.4" y1="166.2" x2="256.5" y2="147.4" stroke="rgb(0,0,0)"  stroke-width="1.0"/>
<line x1="314.2" y1="155.9" x2="275.4" y2="166.2" stroke="rgb(0,0,0)"  stroke-width="1.0"/>
<line x1="209.3" y1="256.0" x2="223.8" y2="219.0" stroke="rgb(0,0,0)"  stroke-width="1.0"/>
<line x1="199.4" y1="281.5" x2="209.3" y2="256.0" stroke="rgb(0,0,0)"  stroke-width="1.0"/>
<line x1="195.5" y1="279.9" x2="205.3" y2="254.5" stroke="rgb(0,0,0)"  stroke-width="1.0"/>
<line x1="203.3" y1="283.0" x2="213.2" y2="257.5" stroke="rgb(0,0,0)"  stroke-width="1.0"/>
<line x1="265.8" y1="191.5" x2="272.5" y2="165.4" stroke="rgb(0,0,0)"  stroke-width="1.0"/>
<line x1="271.6" y1="193.0" x2="278.3" y2="166.9" stroke="rgb(0,0,0)"  stroke-width="1.0"/>
<line x1="223.8" y1="219.0" x2="207.0" y2="197.6" stroke="rgb(0,0,0)"  stroke-width="1.0"/>
<line x1="143.9" y1="246.7" x2="134.0" y2="220.8" stroke="rgb(0,0,0)"  stroke-width="1.0"/>
<line x1="52.9" y1="173.9" x2="80.0" y2="177.7" stroke="rgb(0,0,0)"  stroke-width="1.0"/>
<line x1="209.3" y1="148.6" x2="202.3" y2="174.9" stroke="rgb(0,0,0)"  stroke-width="1.0"/>
<line x1="186.0" y1="188.2" x2="158.9" y2="189.8" stroke="rgb(0,0,0)"  stroke-width="1.0"/>
<line x1="158.9" y1="189.8" x2="144.3" y2="152.6" stroke="rgb(0,0,0)"  stroke-width="1.0"/>
<line x1="163.4" y1="181.6" x2="153.2" y2="155.6" stroke="rgb(0,0,0)"  stroke-width="1.0"/>
<line x1="144.3" y1="152.6" x2="165.3" y2="135.4" stroke="rgb(0,0,0)"  stroke-width="1.0"/>
<line x1="186.3" y1="134.1" x2="209.3" y2="148.6" stroke="rgb(0,0,0)"  stroke-width="1.0"/>
<line x1="314.2" y1="155.9" x2="324.5" y2="117.5" stroke="rgb(0,0,0)"  stroke-width="1.0"/>
<line x1="324.5" y1="117.5" x2="363.4" y2="107.1" stroke="rgb(0,0,0)"  stroke-width="1.0"/>
<line x1="363.4" y1="107.1" x2="391.7" y2="135.7" stroke="rgb(0,0,0)"  stroke-width="1.0"/>
<line x1="391.7" y1="135.7" x2="381.4" y2="173.5" stroke="rgb(0,0,0)"  stroke-width="1.0"/>
<line x1="383.1" y1="139.5" x2="376.0" y2="165.8" stroke="rgb(0,0,0)"  stroke-width="1.0"/>
<line x1="381.4" y1="173.5" x2="342.1" y2="184.4" stroke="rgb(0,0,0)"  stroke-width="1.0"/>
<line x1="342.1" y1="184.4" x2="314.2" y2="155.9" stroke="rgb(0,0,0)"  stroke-width="1.0"/>
<line x1="343.1" y1="175.1" x2="323.6" y2="155.1" stroke="rgb(0,0,0)"  stroke-width="1.0"/>
<line x1="363.4" y1="107.1" x2="373.7" y2="68.5" stroke="rgb(0,0,0)"  stroke-width="1.0"/>
<line x1="357.9" y1="99.5" x2="365.2" y2="72.5" stroke="rgb(0,0,0)"  stroke-width="1.0"/>
<line x1="373.7" y1="68.5" x2="345.8" y2="40.0" stroke="rgb(0,0,0)"  stroke-width="1.0"/>
<line x1="345.8" y1="40.0" x2="306.7" y2="50.9" stroke="rgb(0,0,0)"  stroke-width="1.0"/>
<line x1="341.9" y1="48.6" x2="314.4" y2="56.2" stroke="rgb(0,0,0)"  stroke-width="1.0"/>
<line x1="306.7" y1="50.9" x2="296.4" y2="88.9" stroke="rgb(0,0,0)"  stroke-width="1.0"/>
<line x1="296.4" y1="88.9" x2="324.5" y2="117.5" stroke="rgb(0,0,0)"  stroke-width="1.0"/>
<line x1="305.8" y1="88.2" x2="325.4" y2="108.1" stroke="rgb(0,0,0)"  stroke-width="1.0"/>
<line x1="134.0" y1="220.8" x2="158.9" y2="189.8" stroke="rgb(0,0,0)"  stroke-width="1.0"/>
<line x1="144.3" y1="152.6" x2="104.9" y2="146.6" stroke="rgb(0,0,0)"  stroke-width="1.0"/>
<line x1="104.9" y1="146.6" x2="80.0" y2="177.7" stroke="rgb(0,0,0)"  stroke-width="1.0"/>
<line x1="106.8" y1="155.8" x2="89.4" y2="177.5" stroke="rgb(0,0,0)"  stroke-width="1.0"/>
<line x1="80.0" y1="177.7" x2="94.4" y2="214.7" stroke="rgb(0,0,0)"  stroke-width="1.0"/>
<line x1="94.4" y1="214.7" x2="134.0" y2="220.8" stroke="rgb(0,0,0)"  stroke-width="1.0"/>
<line x1="101.4" y1="208.5" x2="129.2" y2="212.8" stroke="rgb(0,0,0)"  stroke-width="1.0"/>
<text x="241.276334" y="146.281413" fill="rgb(12,12,255)"  stroke="rgb(12,12,255)" stroke-width="1" font-size="16" >N</text>
<text x="192.949311" y="195.422120" fill="rgb(12,12,255)"  stroke="rgb(12,12,255)" stroke-width="1" font-size="16" >N</text>
<text x="169.289509" y="135.156221" fill="rgb(178,178,0)"  stroke="rgb(178,178,0)" stroke-width="1" font-size="16" >S</text>
<text x="176.701686" y="301.588519" fill="rgb(102,102,102)"  stroke="rgb(102,102,102)" stroke-width="1" font-size="16" >HC</text>
<text x="259.477672" y="212.809774" fill="rgb(255,12,12)"  stroke="rgb(255,12,12)" stroke-width="1" font-size="16" >O</text>
<text x="142.592922" y="266.803525" fill="rgb(127,178,255)"  stroke="rgb(127,178,255)" stroke-width="1" font-size="16" >F</text>
<text x="34.000000" y="180.049303" fill="rgb(127,178,255)"  stroke="rgb(127,178,255)" stroke-width="1" font-size="16" >F</text>
<text font-size="18.000000" fill ="black" font-family="sans-serif"
x="10.000000" y="20.000000" ></text>
<title> - OBDepict</title>
</svg>
