<?xml version="1.0"?>
<svg xmlns="http://www.w3.org/2000/svg"
xmlns:xlink="http://www.w3.org/1999/xlink" xmlns:cml="http://www.xml-cml.org/schema" width="391.516" height="427.687" x="0" y="0" font-family="sans-serif" stroke="rgb(0,0,0)" stroke-width="1"  stroke-linecap="round">
<rect x="0%" y="0%" width="100%" height="100%" stroke-width="0" fill="rgb(255,255,255)"  />
<line x1="220.2" y1="189.8" x2="179.8" y2="227.0" stroke="rgb(0,0,0)"  stroke-width="1.0"/>
<line x1="167.8" y1="357.5" x2="193.0" y2="327.8" stroke="rgb(0,0,0)"  stroke-width="1.0"/>
<line x1="299.0" y1="99.5" x2="274.8" y2="130.8" stroke="rgb(0,0,0)"  stroke-width="1.0"/>
<line x1="150.7" y1="377.8" x2="167.8" y2="357.5" stroke="rgb(0,0,0)"  stroke-width="1.0"/>
<line x1="147.5" y1="375.0" x2="164.6" y2="354.8" stroke="rgb(0,0,0)"  stroke-width="1.0"/>
<line x1="153.9" y1="380.5" x2="171.0" y2="360.2" stroke="rgb(0,0,0)"  stroke-width="1.0"/>
<line x1="277.6" y1="129.7" x2="292.6" y2="165.9" stroke="rgb(0,0,0)"  stroke-width="1.0"/>
<line x1="272.1" y1="132.0" x2="287.1" y2="168.2" stroke="rgb(0,0,0)"  stroke-width="1.0"/>
<line x1="226.6" y1="262.2" x2="201.8" y2="260.2" stroke="rgb(0,0,0)"  stroke-width="1.0"/>
<line x1="227.1" y1="256.3" x2="202.3" y2="254.2" stroke="rgb(0,0,0)"  stroke-width="1.0"/>
<line x1="289.8" y1="167.0" x2="266.0" y2="198.3" stroke="rgb(0,0,0)"  stroke-width="1.0"/>
<line x1="266.0" y1="198.3" x2="220.2" y2="189.8" stroke="rgb(0,0,0)"  stroke-width="1.0"/>
<line x1="193.0" y1="327.8" x2="184.2" y2="302.9" stroke="rgb(0,0,0)"  stroke-width="1.0"/>
<line x1="166.6" y1="197.2" x2="179.8" y2="227.0" stroke="rgb(0,0,0)"  stroke-width="1.0"/>
<line x1="270.9" y1="215.4" x2="263.3" y2="199.6" stroke="rgb(0,0,0)"  stroke-width="1.0"/>
<line x1="276.3" y1="212.8" x2="268.7" y2="197.0" stroke="rgb(0,0,0)"  stroke-width="1.0"/>
<line x1="51.3" y1="225.8" x2="74.3" y2="239.0" stroke="rgb(0,0,0)"  stroke-width="1.0"/>
<line x1="202.0" y1="257.2" x2="187.0" y2="279.8" stroke="rgb(0,0,0)"  stroke-width="1.0"/>
<line x1="167.5" y1="286.7" x2="142.5" y2="278.7" stroke="rgb(0,0,0)"  stroke-width="1.0"/>
<line x1="142.5" y1="278.7" x2="142.5" y2="239.0" stroke="rgb(0,0,0)"  stroke-width="1.0"/>
<line x1="149.7" y1="272.7" x2="149.7" y2="245.0" stroke="rgb(0,0,0)"  stroke-width="1.0"/>
<line x1="142.5" y1="239.0" x2="179.8" y2="227.0" stroke="rgb(0,0,0)"  stroke-width="1.0"/>
<line x1="179.8" y1="227.0" x2="202.0" y2="257.2" stroke="rgb(0,0,0)"  stroke-width="1.0"/>
<line x1="299.0" y1="99.5" x2="325.4" y2="100.4" stroke="rgb(0,0,0)"  stroke-width="1.0"/>
<line x1="342.7" y1="88.6" x2="351.5" y2="63.8" stroke="rgb(0,0,0)"  stroke-width="1.0"/>
<line x1="351.5" y1="63.8" x2="320.5" y2="40.0" stroke="rgb(0,0,0)"  stroke-width="1.0"/>
<line x1="342.4" y1="65.9" x2="320.9" y2="49.4" stroke="rgb(0,0,0)"  stroke-width="1.0"/>
<line x1="320.5" y1="40.0" x2="287.8" y2="62.2" stroke="rgb(0,0,0)"  stroke-width="1.0"/>
<line x1="287.8" y1="62.2" x2="299.0" y2="99.5" stroke="rgb(0,0,0)"  stroke-width="1.0"/>
<line x1="296.5" y1="65.9" x2="304.2" y2="91.7" stroke="rgb(0,0,0)"  stroke-width="1.0"/>
<line x1="142.5" y1="278.7" x2="108.2" y2="298.3" stroke="rgb(0,0,0)"  stroke-width="1.0"/>
<line x1="108.2" y1="298.3" x2="74.3" y2="278.7" stroke="rgb(0,0,0)"  stroke-width="1.0"/>
<line x1="106.6" y1="289.1" x2="83.1" y2="275.5" stroke="rgb(0,0,0)"  stroke-width="1.0"/>
<line x1="74.3" y1="278.7" x2="74.3" y2="239.0" stroke="rgb(0,0,0)"  stroke-width="1.0"/>
<line x1="74.3" y1="239.0" x2="108.2" y2="219.3" stroke="rgb(0,0,0)"  stroke-width="1.0"/>
<line x1="83.1" y1="242.2" x2="106.6" y2="228.6" stroke="rgb(0,0,0)"  stroke-width="1.0"/>
<line x1="108.2" y1="219.3" x2="142.5" y2="239.0" stroke="rgb(0,0,0)"  stroke-width="1.0"/>
<text x="173.839172" y="298.679788" fill="rgb(12,12,255)"  stroke="rgb(12,12,255)" stroke-width="1" font-size="16" >N</text>
<text x="124.337174" y="395.686801" fill="rgb(102,102,102)"  stroke="rgb(102,102,102)" stroke-width="1" font-size="16" >HC</text>
<text x="233.840459" y="268.345115" fill="rgb(255,12,12)"  stroke="rgb(255,12,12)" stroke-width="1" font-size="16" >O</text>
<text x="332.345835" y="108.836362" fill="rgb(255,12,12)"  stroke="rgb(255,12,12)" stroke-width="1" font-size="16" >O</text>
<text x="143.338695" y="193.341119" fill="rgb(255,12,12)"  stroke="rgb(255,12,12)" stroke-width="1" font-size="16" >HO</text>
<text x="273.174849" y="233.844613" fill="rgb(255,12,12)"  stroke="rgb(255,12,12)" stroke-width="1" font-size="16" >O</text>
<text x="22.000000" y="227.345348" fill="rgb(165,40,40)"  stroke="rgb(165,40,40)" stroke-width="1" font-size="16" >Br</text>
<text font-size="18.000000" fill ="black" font-family="sans-serif"
x="10.000000" y="20.000000" ></text>
<title> - OBDepict</title>
</svg>
