<?xml version="1.0"?>
<svg xmlns="http://www.w3.org/2000/svg"
xmlns:xlink="http://www.w3.org/1999/xlink" xmlns:cml="http://www.xml-cml.org/schema" width="490.8" height="313.877" x="0" y="0" font-family="sans-serif" stroke="rgb(0,0,0)" stroke-width="1"  stroke-linecap="round">
<rect x="0%" y="0%" width="100%" height="100%" stroke-width="0" fill="rgb(255,255,255)"  />
<line x1="132.9" y1="244.0" x2="159.8" y2="214.3" stroke="rgb(0,0,0)"  stroke-width="1.0"/>
<line x1="114.9" y1="264.2" x2="132.9" y2="244.0" stroke="rgb(0,0,0)"  stroke-width="1.0"/>
<line x1="111.8" y1="261.4" x2="129.8" y2="241.2" stroke="rgb(0,0,0)"  stroke-width="1.0"/>
<line x1="118.0" y1="267.0" x2="136.0" y2="246.8" stroke="rgb(0,0,0)"  stroke-width="1.0"/>
<line x1="197.9" y1="144.0" x2="170.9" y2="144.0" stroke="rgb(0,0,0)"  stroke-width="1.0"/>
<line x1="159.8" y1="214.3" x2="151.5" y2="188.7" stroke="rgb(0,0,0)"  stroke-width="1.0"/>
<line x1="330.8" y1="74.7" x2="303.8" y2="74.7" stroke="rgb(0,0,0)"  stroke-width="1.0"/>
<line x1="404.3" y1="132.7" x2="390.8" y2="109.3" stroke="rgb(0,0,0)"  stroke-width="1.0"/>
<line x1="284.3" y1="86.0" x2="270.8" y2="109.3" stroke="rgb(0,0,0)"  stroke-width="1.0"/>
<line x1="230.9" y1="109.3" x2="217.3" y2="132.7" stroke="rgb(0,0,0)"  stroke-width="1.0"/>
<line x1="270.8" y1="109.3" x2="230.9" y2="109.3" stroke="rgb(0,0,0)"  stroke-width="1.0"/>
<line x1="437.8" y1="144.0" x2="423.8" y2="144.0" stroke="rgb(0,0,0)"  stroke-width="1.0"/>
<line x1="170.9" y1="144.0" x2="155.1" y2="165.8" stroke="rgb(0,0,0)"  stroke-width="1.0"/>
<line x1="135.1" y1="172.3" x2="109.3" y2="164.0" stroke="rgb(0,0,0)"  stroke-width="1.0"/>
<line x1="109.3" y1="164.0" x2="109.3" y2="124.0" stroke="rgb(0,0,0)"  stroke-width="1.0"/>
<line x1="116.5" y1="158.0" x2="116.5" y2="130.0" stroke="rgb(0,0,0)"  stroke-width="1.0"/>
<line x1="109.3" y1="124.0" x2="135.1" y2="115.7" stroke="rgb(0,0,0)"  stroke-width="1.0"/>
<line x1="155.2" y1="122.4" x2="170.9" y2="144.0" stroke="rgb(0,0,0)"  stroke-width="1.0"/>
<line x1="150.5" y1="128.2" x2="161.5" y2="143.4" stroke="rgb(0,0,0)"  stroke-width="1.0"/>
<line x1="74.7" y1="184.0" x2="109.3" y2="164.0" stroke="rgb(0,0,0)"  stroke-width="1.0"/>
<line x1="109.3" y1="124.0" x2="74.7" y2="104.0" stroke="rgb(0,0,0)"  stroke-width="1.0"/>
<line x1="74.7" y1="104.0" x2="40.0" y2="124.0" stroke="rgb(0,0,0)"  stroke-width="1.0"/>
<line x1="73.1" y1="113.3" x2="48.8" y2="127.3" stroke="rgb(0,0,0)"  stroke-width="1.0"/>
<line x1="40.0" y1="124.0" x2="40.0" y2="164.0" stroke="rgb(0,0,0)"  stroke-width="1.0"/>
<line x1="40.0" y1="164.0" x2="74.7" y2="184.0" stroke="rgb(0,0,0)"  stroke-width="1.0"/>
<line x1="48.8" y1="160.8" x2="73.1" y2="174.8" stroke="rgb(0,0,0)"  stroke-width="1.0"/>
<line x1="350.8" y1="109.3" x2="330.8" y2="74.7" stroke="rgb(0,0,0)"  stroke-width="1.0"/>
<line x1="330.8" y1="74.7" x2="350.8" y2="40.0" stroke="rgb(0,0,0)"  stroke-width="1.0"/>
<line x1="340.1" y1="73.1" x2="354.1" y2="48.8" stroke="rgb(0,0,0)"  stroke-width="1.0"/>
<line x1="350.8" y1="40.0" x2="390.8" y2="40.0" stroke="rgb(0,0,0)"  stroke-width="1.0"/>
<line x1="390.8" y1="40.0" x2="410.8" y2="74.7" stroke="rgb(0,0,0)"  stroke-width="1.0"/>
<line x1="387.6" y1="48.8" x2="401.6" y2="73.1" stroke="rgb(0,0,0)"  stroke-width="1.0"/>
<line x1="410.8" y1="74.7" x2="390.8" y2="109.3" stroke="rgb(0,0,0)"  stroke-width="1.0"/>
<line x1="390.8" y1="109.3" x2="350.8" y2="109.3" stroke="rgb(0,0,0)"  stroke-width="1.0"/>
<line x1="384.8" y1="102.1" x2="356.8" y2="102.1" stroke="rgb(0,0,0)"  stroke-width="1.0"/>
<text x="141.443058" y="119.699798" fill="rgb(12,12,255)"  stroke="rgb(12,12,255)" stroke-width="1" font-size="16" >N</text>
<text x="141.443058" y="184.327529" fill="rgb(12,12,255)"  stroke="rgb(12,12,255)" stroke-width="1" font-size="16" >N</text>
<text x="88.241849" y="281.877450" fill="rgb(102,102,102)"  stroke="rgb(102,102,102)" stroke-width="1" font-size="16" >HC</text>
<text x="204.863837" y="152.016087" fill="rgb(178,178,0)"  stroke="rgb(178,178,0)" stroke-width="1" font-size="16" >S</text>
<text x="404.810880" y="152.016087" fill="rgb(255,12,12)"  stroke="rgb(255,12,12)" stroke-width="1" font-size="16" >O</text>
<text x="284.842654" y="82.739890" fill="rgb(255,12,12)"  stroke="rgb(255,12,12)" stroke-width="1" font-size="16" >O</text>
<text x="446.800288" y="152.016087" fill="rgb(102,102,102)"  stroke="rgb(102,102,102)" stroke-width="1" font-size="16" >CH</text>
<text x="470.800288" y="155.696087" fill="rgb(102,102,102)"  stroke="rgb(102,102,102)" stroke-width="1" font-size="13" >3</text>
<text font-size="18.000000" fill ="black" font-family="sans-serif"
x="10.000000" y="20.000000" ></text>
<title> - OBDepict</title>
</svg>
