<?xml version="1.0"?>
<svg xmlns="http://www.w3.org/2000/svg"
xmlns:xlink="http://www.w3.org/1999/xlink" xmlns:cml="http://www.xml-cml.org/schema" width="368.429" height="487.394" x="0" y="0" font-family="sans-serif" stroke="rgb(0,0,0)" stroke-width="1"  stroke-linecap="round">
<rect x="0%" y="0%" width="100%" height="100%" stroke-width="0" fill="rgb(255,255,255)"  />
<line x1="200.9" y1="367.6" x2="162.7" y2="380.0" stroke="rgb(0,0,0)"  stroke-width="1.0"/>
<line x1="199.0" y1="361.9" x2="160.9" y2="374.3" stroke="rgb(0,0,0)"  stroke-width="1.0"/>
<line x1="50.7" y1="325.6" x2="59.2" y2="364.8" stroke="rgb(0,0,0)"  stroke-width="1.0"/>
<line x1="43.5" y1="299.4" x2="50.7" y2="325.6" stroke="rgb(0,0,0)"  stroke-width="1.0"/>
<line x1="47.5" y1="298.2" x2="54.8" y2="324.5" stroke="rgb(0,0,0)"  stroke-width="1.0"/>
<line x1="39.4" y1="300.5" x2="46.7" y2="326.7" stroke="rgb(0,0,0)"  stroke-width="1.0"/>
<line x1="91.1" y1="435.1" x2="107.1" y2="413.5" stroke="rgb(0,0,0)"  stroke-width="1.0"/>
<line x1="96.0" y1="438.7" x2="111.9" y2="417.1" stroke="rgb(0,0,0)"  stroke-width="1.0"/>
<line x1="132.2" y1="326.5" x2="132.5" y2="353.4" stroke="rgb(0,0,0)"  stroke-width="1.0"/>
<line x1="126.2" y1="326.5" x2="126.5" y2="353.5" stroke="rgb(0,0,0)"  stroke-width="1.0"/>
<line x1="208.2" y1="325.4" x2="200.0" y2="364.8" stroke="rgb(0,0,0)"  stroke-width="1.0"/>
<line x1="59.2" y1="364.8" x2="84.6" y2="373.1" stroke="rgb(0,0,0)"  stroke-width="1.0"/>
<line x1="231.6" y1="220.7" x2="225.4" y2="247.2" stroke="rgb(0,0,0)"  stroke-width="1.0"/>
<line x1="272.1" y1="195.9" x2="246.9" y2="204.1" stroke="rgb(0,0,0)"  stroke-width="1.0"/>
<line x1="281.2" y1="157.1" x2="272.1" y2="195.9" stroke="rgb(0,0,0)"  stroke-width="1.0"/>
<line x1="167.4" y1="241.2" x2="187.0" y2="259.6" stroke="rgb(0,0,0)"  stroke-width="1.0"/>
<line x1="304.9" y1="52.7" x2="298.7" y2="79.2" stroke="rgb(0,0,0)"  stroke-width="1.0"/>
<line x1="132.2" y1="240.5" x2="145.6" y2="236.2" stroke="rgb(0,0,0)"  stroke-width="1.0"/>
<line x1="107.5" y1="369.5" x2="129.5" y2="353.5" stroke="rgb(0,0,0)"  stroke-width="1.0"/>
<line x1="129.5" y1="353.5" x2="161.8" y2="377.1" stroke="rgb(0,0,0)"  stroke-width="1.0"/>
<line x1="161.8" y1="377.1" x2="153.5" y2="402.9" stroke="rgb(0,0,0)"  stroke-width="1.0"/>
<line x1="136.5" y1="415.3" x2="109.5" y2="415.3" stroke="rgb(0,0,0)"  stroke-width="1.0"/>
<line x1="109.5" y1="415.3" x2="101.0" y2="389.5" stroke="rgb(0,0,0)"  stroke-width="1.0"/>
<line x1="187.0" y1="259.6" x2="225.4" y2="247.2" stroke="rgb(0,0,0)"  stroke-width="1.0"/>
<line x1="195.0" y1="264.6" x2="221.9" y2="255.9" stroke="rgb(0,0,0)"  stroke-width="1.0"/>
<line x1="225.4" y1="247.2" x2="254.5" y2="274.1" stroke="rgb(0,0,0)"  stroke-width="1.0"/>
<line x1="254.5" y1="274.1" x2="246.0" y2="313.5" stroke="rgb(0,0,0)"  stroke-width="1.0"/>
<line x1="246.2" y1="278.4" x2="240.2" y2="306.1" stroke="rgb(0,0,0)"  stroke-width="1.0"/>
<line x1="246.0" y1="313.5" x2="208.2" y2="325.4" stroke="rgb(0,0,0)"  stroke-width="1.0"/>
<line x1="208.2" y1="325.4" x2="178.8" y2="298.3" stroke="rgb(0,0,0)"  stroke-width="1.0"/>
<line x1="208.7" y1="316.0" x2="188.1" y2="297.1" stroke="rgb(0,0,0)"  stroke-width="1.0"/>
<line x1="178.8" y1="298.3" x2="187.0" y2="259.6" stroke="rgb(0,0,0)"  stroke-width="1.0"/>
<line x1="281.2" y1="157.1" x2="319.3" y2="145.0" stroke="rgb(0,0,0)"  stroke-width="1.0"/>
<line x1="284.7" y1="148.5" x2="311.4" y2="140.0" stroke="rgb(0,0,0)"  stroke-width="1.0"/>
<line x1="319.3" y1="145.0" x2="328.4" y2="106.5" stroke="rgb(0,0,0)"  stroke-width="1.0"/>
<line x1="328.4" y1="106.5" x2="298.7" y2="79.2" stroke="rgb(0,0,0)"  stroke-width="1.0"/>
<line x1="319.1" y1="107.7" x2="298.3" y2="88.5" stroke="rgb(0,0,0)"  stroke-width="1.0"/>
<line x1="298.7" y1="79.2" x2="260.6" y2="91.3" stroke="rgb(0,0,0)"  stroke-width="1.0"/>
<line x1="260.6" y1="91.3" x2="251.5" y2="130.1" stroke="rgb(0,0,0)"  stroke-width="1.0"/>
<line x1="266.2" y1="98.8" x2="259.9" y2="125.9" stroke="rgb(0,0,0)"  stroke-width="1.0"/>
<line x1="251.5" y1="130.1" x2="281.2" y2="157.1" stroke="rgb(0,0,0)"  stroke-width="1.0"/>
<text x="90.960457" y="385.107064" fill="rgb(12,12,255)"  stroke="rgb(12,12,255)" stroke-width="1" font-size="16" >N</text>
<text x="143.473989" y="423.279746" fill="rgb(178,178,0)"  stroke="rgb(178,178,0)" stroke-width="1" font-size="16" >S</text>
<text x="22.000000" y="294.823793" fill="rgb(102,102,102)"  stroke="rgb(102,102,102)" stroke-width="1" font-size="16" >HC</text>
<text x="79.847998" y="455.393734" fill="rgb(255,12,12)"  stroke="rgb(255,12,12)" stroke-width="1" font-size="16" >O</text>
<text x="123.074445" y="321.481073" fill="rgb(255,12,12)"  stroke="rgb(255,12,12)" stroke-width="1" font-size="16" >O</text>
<text x="228.504450" y="216.051068" fill="rgb(255,12,12)"  stroke="rgb(255,12,12)" stroke-width="1" font-size="16" >O</text>
<text x="151.955188" y="240.285842" fill="rgb(255,12,12)"  stroke="rgb(255,12,12)" stroke-width="1" font-size="16" >O</text>
<text x="301.825322" y="48.000000" fill="rgb(30,239,30)"  stroke="rgb(30,239,30)" stroke-width="1" font-size="16" >Cl</text>
<text x="93.782507" y="252.408084" fill="rgb(102,102,102)"  stroke="rgb(102,102,102)" stroke-width="1" font-size="16" >H</text>
<text x="105.782507" y="256.088084" fill="rgb(102,102,102)"  stroke="rgb(102,102,102)" stroke-width="1" font-size="13" >3</text>
<text x="112.282507" y="252.408084" fill="rgb(102,102,102)"  stroke="rgb(102,102,102)" stroke-width="1" font-size="16" >C</text>
<text font-size="18.000000" fill ="black" font-family="sans-serif"
x="10.000000" y="20.000000" ></text>
<title> - OBDepict</title>
</svg>
