<?xml version="1.0"?>
<svg xmlns="http://www.w3.org/2000/svg"
xmlns:xlink="http://www.w3.org/1999/xlink" xmlns:cml="http://www.xml-cml.org/schema" width="359.716" height="305.376" x="0" y="0" font-family="sans-serif" stroke="rgb(0,0,0)" stroke-width="1"  stroke-linecap="round">
<rect x="0%" y="0%" width="100%" height="100%" stroke-width="0" fill="rgb(255,255,255)"  />
<line x1="222.5" y1="179.7" x2="158.8" y2="200.2" stroke="rgb(0,0,0)"  stroke-width="1.0"/>
<line x1="220.7" y1="174.0" x2="157.0" y2="194.5" stroke="rgb(0,0,0)"  stroke-width="1.0"/>
<line x1="229.4" y1="138.7" x2="221.6" y2="176.8" stroke="rgb(0,0,0)"  stroke-width="1.0"/>
<line x1="50.4" y1="147.5" x2="58.6" y2="185.4" stroke="rgb(0,0,0)"  stroke-width="1.0"/>
<line x1="43.5" y1="122.5" x2="50.4" y2="147.5" stroke="rgb(0,0,0)"  stroke-width="1.0"/>
<line x1="47.5" y1="121.4" x2="54.4" y2="146.4" stroke="rgb(0,0,0)"  stroke-width="1.0"/>
<line x1="39.4" y1="123.6" x2="46.3" y2="148.6" stroke="rgb(0,0,0)"  stroke-width="1.0"/>
<line x1="89.7" y1="253.1" x2="104.8" y2="232.5" stroke="rgb(0,0,0)"  stroke-width="1.0"/>
<line x1="94.5" y1="256.7" x2="109.7" y2="236.1" stroke="rgb(0,0,0)"  stroke-width="1.0"/>
<line x1="129.3" y1="148.7" x2="129.6" y2="174.5" stroke="rgb(0,0,0)"  stroke-width="1.0"/>
<line x1="123.3" y1="148.8" x2="123.6" y2="174.5" stroke="rgb(0,0,0)"  stroke-width="1.0"/>
<line x1="58.6" y1="185.4" x2="82.8" y2="193.3" stroke="rgb(0,0,0)"  stroke-width="1.0"/>
<line x1="176.5" y1="120.9" x2="200.7" y2="112.9" stroke="rgb(0,0,0)"  stroke-width="1.0"/>
<line x1="299.1" y1="81.7" x2="274.6" y2="89.5" stroke="rgb(0,0,0)"  stroke-width="1.0"/>
<line x1="158.8" y1="150.0" x2="161.4" y2="137.7" stroke="rgb(0,0,0)"  stroke-width="1.0"/>
<line x1="317.0" y1="52.7" x2="314.3" y2="65.0" stroke="rgb(0,0,0)"  stroke-width="1.0"/>
<line x1="99.2" y1="209.7" x2="107.2" y2="234.3" stroke="rgb(0,0,0)"  stroke-width="1.0"/>
<line x1="107.2" y1="234.3" x2="132.9" y2="234.3" stroke="rgb(0,0,0)"  stroke-width="1.0"/>
<line x1="149.9" y1="221.9" x2="157.9" y2="197.4" stroke="rgb(0,0,0)"  stroke-width="1.0"/>
<line x1="157.9" y1="197.4" x2="126.6" y2="174.5" stroke="rgb(0,0,0)"  stroke-width="1.0"/>
<line x1="126.6" y1="174.5" x2="105.6" y2="189.7" stroke="rgb(0,0,0)"  stroke-width="1.0"/>
<line x1="229.4" y1="138.7" x2="200.7" y2="112.9" stroke="rgb(0,0,0)"  stroke-width="1.0"/>
<line x1="200.7" y1="112.9" x2="208.9" y2="75.4" stroke="rgb(0,0,0)"  stroke-width="1.0"/>
<line x1="209.0" y1="108.6" x2="214.6" y2="82.8" stroke="rgb(0,0,0)"  stroke-width="1.0"/>
<line x1="208.9" y1="75.4" x2="245.8" y2="63.1" stroke="rgb(0,0,0)"  stroke-width="1.0"/>
<line x1="245.8" y1="63.1" x2="274.6" y2="89.5" stroke="rgb(0,0,0)"  stroke-width="1.0"/>
<line x1="245.4" y1="72.4" x2="265.3" y2="90.7" stroke="rgb(0,0,0)"  stroke-width="1.0"/>
<line x1="274.6" y1="89.5" x2="266.4" y2="127.0" stroke="rgb(0,0,0)"  stroke-width="1.0"/>
<line x1="266.4" y1="127.0" x2="229.4" y2="138.7" stroke="rgb(0,0,0)"  stroke-width="1.0"/>
<line x1="258.5" y1="121.9" x2="233.0" y2="130.0" stroke="rgb(0,0,0)"  stroke-width="1.0"/>
<text x="89.124722" y="205.354230" fill="rgb(12,12,255)"  stroke="rgb(12,12,255)" stroke-width="1" font-size="16" >N</text>
<text x="139.945834" y="242.296673" fill="rgb(178,178,0)"  stroke="rgb(178,178,0)" stroke-width="1" font-size="16" >S</text>
<text x="22.000000" y="117.980630" fill="rgb(102,102,102)"  stroke="rgb(102,102,102)" stroke-width="1" font-size="16" >HC</text>
<text x="78.370397" y="273.375684" fill="rgb(255,12,12)"  stroke="rgb(255,12,12)" stroke-width="1" font-size="16" >O</text>
<text x="120.203733" y="143.778793" fill="rgb(255,12,12)"  stroke="rgb(255,12,12)" stroke-width="1" font-size="16" >O</text>
<text x="158.123415" y="133.029167" fill="rgb(255,12,12)"  stroke="rgb(255,12,12)" stroke-width="1" font-size="16" >O</text>
<text x="305.507930" y="85.727053" fill="rgb(255,12,12)"  stroke="rgb(255,12,12)" stroke-width="1" font-size="16" >O</text>
<text x="130.108178" y="170.756220" fill="rgb(102,102,102)"  stroke="rgb(102,102,102)" stroke-width="1" font-size="16" >H</text>
<text x="142.108178" y="174.436220" fill="rgb(102,102,102)"  stroke="rgb(102,102,102)" stroke-width="1" font-size="13" >3</text>
<text x="148.608178" y="170.756220" fill="rgb(102,102,102)"  stroke="rgb(102,102,102)" stroke-width="1" font-size="16" >C</text>
<text x="315.715796" y="48.000000" fill="rgb(102,102,102)"  stroke="rgb(102,102,102)" stroke-width="1" font-size="16" >CH</text>
<text x="339.715796" y="51.680000" fill="rgb(102,102,102)"  stroke="rgb(102,102,102)" stroke-width="1" font-size="13" >3</text>
<text font-size="18.000000" fill ="black" font-family="sans-serif"
x="10.000000" y="20.000000" ></text>
<title> - OBDepict</title>
</svg>
