<?xml version="1.0"?>
<svg xmlns="http://www.w3.org/2000/svg"
xmlns:xlink="http://www.w3.org/1999/xlink" xmlns:cml="http://www.xml-cml.org/schema" width="578.766" height="357.569" x="0" y="0" font-family="sans-serif" stroke="rgb(0,0,0)" stroke-width="1"  stroke-linecap="round">
<rect x="0%" y="0%" width="100%" height="100%" stroke-width="0" fill="rgb(255,255,255)"  />
<line x1="423.4" y1="93.2" x2="397.7" y2="101.4" stroke="rgb(0,0,0)"  stroke-width="1.0"/>
<line x1="263.4" y1="184.2" x2="237.4" y2="192.7" stroke="rgb(0,0,0)"  stroke-width="1.0"/>
<line x1="261.5" y1="178.5" x2="235.5" y2="187.0" stroke="rgb(0,0,0)"  stroke-width="1.0"/>
<line x1="283.3" y1="138.3" x2="277.6" y2="164.6" stroke="rgb(0,0,0)"  stroke-width="1.0"/>
<line x1="462.0" y1="80.6" x2="448.1" y2="85.2" stroke="rgb(0,0,0)"  stroke-width="1.0"/>
<line x1="287.0" y1="256.3" x2="247.4" y2="260.4" stroke="rgb(0,0,0)"  stroke-width="1.0"/>
<line x1="430.1" y1="62.4" x2="434.6" y2="76.0" stroke="rgb(0,0,0)"  stroke-width="1.0"/>
<line x1="424.4" y1="64.2" x2="428.9" y2="77.9" stroke="rgb(0,0,0)"  stroke-width="1.0"/>
<line x1="441.2" y1="115.4" x2="437.0" y2="102.6" stroke="rgb(0,0,0)"  stroke-width="1.0"/>
<line x1="446.9" y1="113.5" x2="442.7" y2="100.7" stroke="rgb(0,0,0)"  stroke-width="1.0"/>
<line x1="298.3" y1="231.6" x2="287.0" y2="256.3" stroke="rgb(0,0,0)"  stroke-width="1.0"/>
<line x1="302.1" y1="233.4" x2="290.8" y2="258.1" stroke="rgb(0,0,0)"  stroke-width="1.0"/>
<line x1="294.5" y1="229.9" x2="283.1" y2="254.6" stroke="rgb(0,0,0)"  stroke-width="1.0"/>
<line x1="321.0" y1="126.0" x2="283.3" y2="138.3" stroke="rgb(0,0,0)"  stroke-width="1.0"/>
<line x1="265.1" y1="117.9" x2="285.3" y2="136.1" stroke="rgb(0,0,0)"  stroke-width="1.0"/>
<line x1="261.1" y1="122.3" x2="281.3" y2="140.6" stroke="rgb(0,0,0)"  stroke-width="1.0"/>
<line x1="247.4" y1="260.4" x2="231.7" y2="238.7" stroke="rgb(0,0,0)"  stroke-width="1.0"/>
<line x1="100.4" y1="269.7" x2="118.5" y2="249.4" stroke="rgb(0,0,0)"  stroke-width="1.0"/>
<line x1="79.5" y1="205.6" x2="105.7" y2="211.3" stroke="rgb(0,0,0)"  stroke-width="1.0"/>
<line x1="99.9" y1="305.2" x2="95.7" y2="291.8" stroke="rgb(0,0,0)"  stroke-width="1.0"/>
<line x1="48.7" y1="222.9" x2="58.1" y2="212.5" stroke="rgb(0,0,0)"  stroke-width="1.0"/>
<line x1="236.5" y1="189.8" x2="214.6" y2="173.9" stroke="rgb(0,0,0)"  stroke-width="1.0"/>
<line x1="193.6" y1="174.0" x2="171.8" y2="190.0" stroke="rgb(0,0,0)"  stroke-width="1.0"/>
<line x1="171.8" y1="190.0" x2="184.0" y2="228.2" stroke="rgb(0,0,0)"  stroke-width="1.0"/>
<line x1="180.5" y1="193.6" x2="189.0" y2="220.3" stroke="rgb(0,0,0)"  stroke-width="1.0"/>
<line x1="184.0" y1="228.2" x2="211.1" y2="228.2" stroke="rgb(0,0,0)"  stroke-width="1.0"/>
<line x1="228.1" y1="215.8" x2="236.5" y2="189.8" stroke="rgb(0,0,0)"  stroke-width="1.0"/>
<line x1="484.1" y1="85.1" x2="503.9" y2="102.5" stroke="rgb(0,0,0)"  stroke-width="1.0"/>
<line x1="503.9" y1="102.5" x2="538.8" y2="83.2" stroke="rgb(0,0,0)"  stroke-width="1.0"/>
<line x1="538.8" y1="83.2" x2="530.2" y2="44.3" stroke="rgb(0,0,0)"  stroke-width="1.0"/>
<line x1="530.2" y1="44.3" x2="490.1" y2="40.0" stroke="rgb(0,0,0)"  stroke-width="1.0"/>
<line x1="490.1" y1="40.0" x2="479.5" y2="64.6" stroke="rgb(0,0,0)"  stroke-width="1.0"/>
<line x1="321.0" y1="126.0" x2="329.5" y2="87.4" stroke="rgb(0,0,0)"  stroke-width="1.0"/>
<line x1="329.5" y1="87.4" x2="367.8" y2="74.7" stroke="rgb(0,0,0)"  stroke-width="1.0"/>
<line x1="337.5" y1="92.4" x2="364.4" y2="83.4" stroke="rgb(0,0,0)"  stroke-width="1.0"/>
<line x1="367.8" y1="74.7" x2="397.7" y2="101.4" stroke="rgb(0,0,0)"  stroke-width="1.0"/>
<line x1="397.7" y1="101.4" x2="389.1" y2="140.2" stroke="rgb(0,0,0)"  stroke-width="1.0"/>
<line x1="389.3" y1="105.7" x2="383.4" y2="132.8" stroke="rgb(0,0,0)"  stroke-width="1.0"/>
<line x1="389.1" y1="140.2" x2="351.2" y2="152.9" stroke="rgb(0,0,0)"  stroke-width="1.0"/>
<line x1="351.2" y1="152.9" x2="321.0" y2="126.0" stroke="rgb(0,0,0)"  stroke-width="1.0"/>
<line x1="351.5" y1="143.6" x2="330.3" y2="124.6" stroke="rgb(0,0,0)"  stroke-width="1.0"/>
<line x1="157.4" y1="257.6" x2="118.5" y2="249.4" stroke="rgb(0,0,0)"  stroke-width="1.0"/>
<line x1="153.0" y1="249.3" x2="125.8" y2="243.6" stroke="rgb(0,0,0)"  stroke-width="1.0"/>
<line x1="118.5" y1="249.4" x2="105.7" y2="211.3" stroke="rgb(0,0,0)"  stroke-width="1.0"/>
<line x1="105.7" y1="211.3" x2="132.5" y2="181.5" stroke="rgb(0,0,0)"  stroke-width="1.0"/>
<line x1="115.1" y1="211.7" x2="133.8" y2="190.8" stroke="rgb(0,0,0)"  stroke-width="1.0"/>
<line x1="132.5" y1="181.5" x2="171.8" y2="190.0" stroke="rgb(0,0,0)"  stroke-width="1.0"/>
<line x1="184.0" y1="228.2" x2="157.4" y2="257.6" stroke="rgb(0,0,0)"  stroke-width="1.0"/>
<text x="429.769095" y="97.272302" fill="rgb(178,178,0)"  stroke="rgb(178,178,0)" stroke-width="1" font-size="16" >S</text>
<text x="268.785428" y="185.268947" fill="rgb(12,12,255)"  stroke="rgb(12,12,255)" stroke-width="1" font-size="16" >N</text>
<text x="218.097032" y="236.156178" fill="rgb(12,12,255)"  stroke="rgb(12,12,255)" stroke-width="1" font-size="16" >N</text>
<text x="198.024389" y="174.318469" fill="rgb(178,178,0)"  stroke="rgb(178,178,0)" stroke-width="1" font-size="16" >S</text>
<text x="468.289754" y="84.498361" fill="rgb(12,12,255)"  stroke="rgb(12,12,255)" stroke-width="1" font-size="16" >N</text>
<text x="417.198839" y="58.950478" fill="rgb(255,12,12)"  stroke="rgb(255,12,12)" stroke-width="1" font-size="16" >O</text>
<text x="442.135667" y="134.784236" fill="rgb(255,12,12)"  stroke="rgb(255,12,12)" stroke-width="1" font-size="16" >O</text>
<text x="297.776552" y="227.843902" fill="rgb(102,102,102)"  stroke="rgb(102,102,102)" stroke-width="1" font-size="16" >CH</text>
<text x="247.495526" y="119.372093" fill="rgb(255,12,12)"  stroke="rgb(255,12,12)" stroke-width="1" font-size="16" >O</text>
<text x="85.701969" y="287.450778" fill="rgb(255,12,12)"  stroke="rgb(255,12,12)" stroke-width="1" font-size="16" >O</text>
<text x="60.765141" y="210.811980" fill="rgb(255,12,12)"  stroke="rgb(255,12,12)" stroke-width="1" font-size="16" >O</text>
<text x="99.869706" y="325.568917" fill="rgb(102,102,102)"  stroke="rgb(102,102,102)" stroke-width="1" font-size="16" >CH</text>
<text x="123.869706" y="329.248917" fill="rgb(102,102,102)"  stroke="rgb(102,102,102)" stroke-width="1" font-size="13" >3</text>
<text x="14.000000" y="240.617843" fill="rgb(102,102,102)"  stroke="rgb(102,102,102)" stroke-width="1" font-size="16" >H</text>
<text x="26.000000" y="244.297843" fill="rgb(102,102,102)"  stroke="rgb(102,102,102)" stroke-width="1" font-size="13" >3</text>
<text x="32.500000" y="240.617843" fill="rgb(102,102,102)"  stroke="rgb(102,102,102)" stroke-width="1" font-size="16" >C</text>
<text font-size="18.000000" fill ="black" font-family="sans-serif"
x="10.000000" y="20.000000" ></text>
<title> - OBDepict</title>
</svg>
