<?xml version="1.0"?>
<svg xmlns="http://www.w3.org/2000/svg"
xmlns:xlink="http://www.w3.org/1999/xlink" xmlns:cml="http://www.xml-cml.org/schema" width="253.288" height="459.9" x="0" y="0" font-family="sans-serif" stroke="rgb(0,0,0)" stroke-width="1"  stroke-linecap="round">
<rect x="0%" y="0%" width="100%" height="100%" stroke-width="0" fill="rgb(255,255,255)"  />
<line x1="86.0" y1="46.5" x2="109.3" y2="60.0" stroke="rgb(0,0,0)"  stroke-width="1.0"/>
<line x1="88.1" y1="42.9" x2="111.4" y2="56.4" stroke="rgb(0,0,0)"  stroke-width="1.0"/>
<line x1="83.9" y1="50.1" x2="107.2" y2="63.6" stroke="rgb(0,0,0)"  stroke-width="1.0"/>
<line x1="144.0" y1="200.0" x2="167.3" y2="186.5" stroke="rgb(0,0,0)"  stroke-width="1.0"/>
<line x1="178.5" y1="167.0" x2="178.5" y2="140.0" stroke="rgb(0,0,0)"  stroke-width="1.0"/>
<line x1="109.3" y1="299.9" x2="109.3" y2="272.9" stroke="rgb(0,0,0)"  stroke-width="1.0"/>
<line x1="120.5" y1="253.5" x2="144.0" y2="239.9" stroke="rgb(0,0,0)"  stroke-width="1.0"/>
<line x1="122.0" y1="183.8" x2="145.5" y2="197.4" stroke="rgb(0,0,0)"  stroke-width="1.0"/>
<line x1="119.0" y1="189.0" x2="142.5" y2="202.6" stroke="rgb(0,0,0)"  stroke-width="1.0"/>
<line x1="144.0" y1="80.0" x2="109.3" y2="60.0" stroke="rgb(0,0,0)"  stroke-width="1.0"/>
<line x1="144.0" y1="239.9" x2="144.0" y2="200.0" stroke="rgb(0,0,0)"  stroke-width="1.0"/>
<line x1="51.3" y1="306.4" x2="74.7" y2="319.9" stroke="rgb(0,0,0)"  stroke-width="1.0"/>
<line x1="109.3" y1="406.9" x2="109.3" y2="379.9" stroke="rgb(0,0,0)"  stroke-width="1.0"/>
<line x1="178.5" y1="140.0" x2="144.0" y2="120.0" stroke="rgb(0,0,0)"  stroke-width="1.0"/>
<line x1="177.0" y1="130.7" x2="152.8" y2="116.8" stroke="rgb(0,0,0)"  stroke-width="1.0"/>
<line x1="144.0" y1="120.0" x2="144.0" y2="80.0" stroke="rgb(0,0,0)"  stroke-width="1.0"/>
<line x1="144.0" y1="80.0" x2="178.5" y2="60.0" stroke="rgb(0,0,0)"  stroke-width="1.0"/>
<line x1="152.8" y1="83.2" x2="177.0" y2="69.2" stroke="rgb(0,0,0)"  stroke-width="1.0"/>
<line x1="178.5" y1="60.0" x2="213.3" y2="80.0" stroke="rgb(0,0,0)"  stroke-width="1.0"/>
<line x1="213.3" y1="80.0" x2="213.3" y2="120.0" stroke="rgb(0,0,0)"  stroke-width="1.0"/>
<line x1="206.1" y1="86.0" x2="206.1" y2="114.0" stroke="rgb(0,0,0)"  stroke-width="1.0"/>
<line x1="213.3" y1="120.0" x2="178.5" y2="140.0" stroke="rgb(0,0,0)"  stroke-width="1.0"/>
<line x1="74.7" y1="319.9" x2="109.3" y2="299.9" stroke="rgb(0,0,0)"  stroke-width="1.0"/>
<line x1="83.5" y1="323.2" x2="107.7" y2="309.2" stroke="rgb(0,0,0)"  stroke-width="1.0"/>
<line x1="109.3" y1="299.9" x2="144.0" y2="319.9" stroke="rgb(0,0,0)"  stroke-width="1.0"/>
<line x1="144.0" y1="319.9" x2="144.0" y2="359.9" stroke="rgb(0,0,0)"  stroke-width="1.0"/>
<line x1="136.8" y1="325.9" x2="136.8" y2="353.9" stroke="rgb(0,0,0)"  stroke-width="1.0"/>
<line x1="144.0" y1="359.9" x2="109.3" y2="379.9" stroke="rgb(0,0,0)"  stroke-width="1.0"/>
<line x1="109.3" y1="379.9" x2="74.7" y2="359.9" stroke="rgb(0,0,0)"  stroke-width="1.0"/>
<line x1="107.7" y1="370.7" x2="83.5" y2="356.7" stroke="rgb(0,0,0)"  stroke-width="1.0"/>
<line x1="74.7" y1="359.9" x2="74.7" y2="319.9" stroke="rgb(0,0,0)"  stroke-width="1.0"/>
<text x="56.739945" y="48.000000" fill="rgb(102,102,102)"  stroke="rgb(102,102,102)" stroke-width="1" font-size="16" >HC</text>
<text x="172.547769" y="187.963154" fill="rgb(12,12,255)"  stroke="rgb(12,12,255)" stroke-width="1" font-size="16" >NH</text>
<text x="103.276308" y="267.942099" fill="rgb(255,12,12)"  stroke="rgb(255,12,12)" stroke-width="1" font-size="16" >O</text>
<text x="103.276308" y="187.963154" fill="rgb(255,12,12)"  stroke="rgb(255,12,12)" stroke-width="1" font-size="16" >O</text>
<text x="22.000000" y="307.931572" fill="rgb(30,239,30)"  stroke="rgb(30,239,30)" stroke-width="1" font-size="16" >Cl</text>
<text x="103.276308" y="427.899990" fill="rgb(127,178,255)"  stroke="rgb(127,178,255)" stroke-width="1" font-size="16" >F</text>
<text font-size="18.000000" fill ="black" font-family="sans-serif"
x="10.000000" y="20.000000" ></text>
<title> - OBDepict</title>
</svg>
