<?xml version="1.0"?>
<svg xmlns="http://www.w3.org/2000/svg"
xmlns:xlink="http://www.w3.org/1999/xlink" xmlns:cml="http://www.xml-cml.org/schema" width="385.783" height="308.176" x="0" y="0" font-family="sans-serif" stroke="rgb(0,0,0)" stroke-width="1"  stroke-linecap="round">
<rect x="0%" y="0%" width="100%" height="100%" stroke-width="0" fill="rgb(255,255,255)"  />
<line x1="103.3" y1="88.1" x2="138.0" y2="108.1" stroke="rgb(0,0,0)"  stroke-width="1.0"/>
<line x1="138.0" y1="108.1" x2="161.3" y2="94.6" stroke="rgb(0,0,0)"  stroke-width="1.0"/>
<line x1="183.8" y1="94.6" x2="207.3" y2="108.1" stroke="rgb(0,0,0)"  stroke-width="1.0"/>
<line x1="311.2" y1="88.1" x2="276.7" y2="108.1" stroke="rgb(0,0,0)"  stroke-width="1.0"/>
<line x1="334.5" y1="74.6" x2="311.2" y2="88.1" stroke="rgb(0,0,0)"  stroke-width="1.0"/>
<line x1="336.6" y1="78.2" x2="313.3" y2="91.7" stroke="rgb(0,0,0)"  stroke-width="1.0"/>
<line x1="332.4" y1="71.0" x2="309.1" y2="84.5" stroke="rgb(0,0,0)"  stroke-width="1.0"/>
<line x1="138.0" y1="148.1" x2="138.0" y2="108.1" stroke="rgb(0,0,0)"  stroke-width="1.0"/>
<line x1="204.3" y1="135.1" x2="204.3" y2="108.1" stroke="rgb(0,0,0)"  stroke-width="1.0"/>
<line x1="210.3" y1="135.1" x2="210.3" y2="108.1" stroke="rgb(0,0,0)"  stroke-width="1.0"/>
<line x1="230.7" y1="94.6" x2="207.3" y2="108.1" stroke="rgb(0,0,0)"  stroke-width="1.0"/>
<line x1="276.7" y1="108.1" x2="253.2" y2="94.6" stroke="rgb(0,0,0)"  stroke-width="1.0"/>
<line x1="138.0" y1="255.2" x2="138.0" y2="228.2" stroke="rgb(0,0,0)"  stroke-width="1.0"/>
<line x1="103.3" y1="88.1" x2="78.6" y2="99.0" stroke="rgb(0,0,0)"  stroke-width="1.0"/>
<line x1="58.0" y1="94.6" x2="40.0" y2="74.6" stroke="rgb(0,0,0)"  stroke-width="1.0"/>
<line x1="40.0" y1="74.6" x2="60.0" y2="40.0" stroke="rgb(0,0,0)"  stroke-width="1.0"/>
<line x1="49.2" y1="73.0" x2="63.2" y2="48.8" stroke="rgb(0,0,0)"  stroke-width="1.0"/>
<line x1="60.0" y1="40.0" x2="99.0" y2="48.3" stroke="rgb(0,0,0)"  stroke-width="1.0"/>
<line x1="99.0" y1="48.3" x2="103.3" y2="88.1" stroke="rgb(0,0,0)"  stroke-width="1.0"/>
<line x1="92.5" y1="55.0" x2="95.5" y2="82.9" stroke="rgb(0,0,0)"  stroke-width="1.0"/>
<line x1="138.0" y1="148.1" x2="172.6" y2="168.1" stroke="rgb(0,0,0)"  stroke-width="1.0"/>
<line x1="172.6" y1="168.1" x2="172.6" y2="208.2" stroke="rgb(0,0,0)"  stroke-width="1.0"/>
<line x1="165.4" y1="174.1" x2="165.4" y2="202.2" stroke="rgb(0,0,0)"  stroke-width="1.0"/>
<line x1="172.6" y1="208.2" x2="138.0" y2="228.2" stroke="rgb(0,0,0)"  stroke-width="1.0"/>
<line x1="138.0" y1="228.2" x2="103.3" y2="208.2" stroke="rgb(0,0,0)"  stroke-width="1.0"/>
<line x1="136.4" y1="218.9" x2="112.1" y2="204.9" stroke="rgb(0,0,0)"  stroke-width="1.0"/>
<line x1="103.3" y1="208.2" x2="103.3" y2="168.1" stroke="rgb(0,0,0)"  stroke-width="1.0"/>
<line x1="103.3" y1="168.1" x2="138.0" y2="148.1" stroke="rgb(0,0,0)"  stroke-width="1.0"/>
<line x1="112.1" y1="171.4" x2="136.4" y2="157.4" stroke="rgb(0,0,0)"  stroke-width="1.0"/>
<text x="166.577948" y="96.102130" fill="rgb(12,12,255)"  stroke="rgb(12,12,255)" stroke-width="1" font-size="16" >N</text>
<text x="166.577948" y="80.102130" fill="rgb(12,12,255)"  stroke="rgb(12,12,255)" stroke-width="1" font-size="16" >H</text>
<text x="60.677595" y="112.268753" fill="rgb(178,178,0)"  stroke="rgb(178,178,0)" stroke-width="1" font-size="16" >S</text>
<text x="339.783449" y="76.093933" fill="rgb(102,102,102)"  stroke="rgb(102,102,102)" stroke-width="1" font-size="16" >CH</text>
<text x="201.341280" y="156.126719" fill="rgb(255,12,12)"  stroke="rgb(255,12,12)" stroke-width="1" font-size="16" >O</text>
<text x="235.900893" y="96.102130" fill="rgb(12,12,255)"  stroke="rgb(12,12,255)" stroke-width="1" font-size="16" >N</text>
<text x="235.900893" y="80.102130" fill="rgb(12,12,255)"  stroke="rgb(12,12,255)" stroke-width="1" font-size="16" >H</text>
<text x="134.018336" y="276.175899" fill="rgb(102,102,102)"  stroke="rgb(102,102,102)" stroke-width="1" font-size="16" >CH</text>
<text x="158.018336" y="279.855899" fill="rgb(102,102,102)"  stroke="rgb(102,102,102)" stroke-width="1" font-size="13" >3</text>
<text font-size="18.000000" fill ="black" font-family="sans-serif"
x="10.000000" y="20.000000" ></text>
<title> - OBDepict</title>
</svg>
