<?xml version="1.0"?>
<svg xmlns="http://www.w3.org/2000/svg"
xmlns:xlink="http://www.w3.org/1999/xlink" xmlns:cml="http://www.xml-cml.org/schema" width="388.351" height="397.055" x="0" y="0" font-family="sans-serif" stroke="rgb(0,0,0)" stroke-width="1"  stroke-linecap="round">
<rect x="0%" y="0%" width="100%" height="100%" stroke-width="0" fill="rgb(255,255,255)"  />
<line x1="201.2" y1="277.2" x2="162.9" y2="289.5" stroke="rgb(0,0,0)"  stroke-width="1.0"/>
<line x1="199.3" y1="271.4" x2="161.1" y2="283.8" stroke="rgb(0,0,0)"  stroke-width="1.0"/>
<line x1="208.1" y1="235.4" x2="200.2" y2="274.3" stroke="rgb(0,0,0)"  stroke-width="1.0"/>
<line x1="231.3" y1="131.0" x2="225.1" y2="157.1" stroke="rgb(0,0,0)"  stroke-width="1.0"/>
<line x1="50.7" y1="235.0" x2="59.2" y2="274.3" stroke="rgb(0,0,0)"  stroke-width="1.0"/>
<line x1="43.5" y1="208.7" x2="50.7" y2="235.0" stroke="rgb(0,0,0)"  stroke-width="1.0"/>
<line x1="47.5" y1="207.6" x2="54.8" y2="233.9" stroke="rgb(0,0,0)"  stroke-width="1.0"/>
<line x1="39.4" y1="209.8" x2="46.7" y2="236.2" stroke="rgb(0,0,0)"  stroke-width="1.0"/>
<line x1="91.2" y1="344.8" x2="107.2" y2="323.1" stroke="rgb(0,0,0)"  stroke-width="1.0"/>
<line x1="96.0" y1="348.4" x2="112.0" y2="326.7" stroke="rgb(0,0,0)"  stroke-width="1.0"/>
<line x1="132.4" y1="235.9" x2="132.6" y2="262.9" stroke="rgb(0,0,0)"  stroke-width="1.0"/>
<line x1="126.4" y1="235.9" x2="126.6" y2="263.0" stroke="rgb(0,0,0)"  stroke-width="1.0"/>
<line x1="281.0" y1="66.9" x2="271.9" y2="105.8" stroke="rgb(0,0,0)"  stroke-width="1.0"/>
<line x1="59.2" y1="274.3" x2="84.7" y2="282.6" stroke="rgb(0,0,0)"  stroke-width="1.0"/>
<line x1="262.9" y1="46.5" x2="283.0" y2="64.7" stroke="rgb(0,0,0)"  stroke-width="1.0"/>
<line x1="258.9" y1="50.9" x2="279.0" y2="69.1" stroke="rgb(0,0,0)"  stroke-width="1.0"/>
<line x1="271.9" y1="105.8" x2="246.6" y2="114.2" stroke="rgb(0,0,0)"  stroke-width="1.0"/>
<line x1="280.5" y1="175.3" x2="254.9" y2="183.5" stroke="rgb(0,0,0)"  stroke-width="1.0"/>
<line x1="167.6" y1="151.1" x2="186.9" y2="169.3" stroke="rgb(0,0,0)"  stroke-width="1.0"/>
<line x1="306.6" y1="58.7" x2="281.0" y2="66.9" stroke="rgb(0,0,0)"  stroke-width="1.0"/>
<line x1="132.5" y1="150.6" x2="145.8" y2="146.2" stroke="rgb(0,0,0)"  stroke-width="1.0"/>
<line x1="338.8" y1="73.1" x2="328.6" y2="63.6" stroke="rgb(0,0,0)"  stroke-width="1.0"/>
<line x1="107.6" y1="279.0" x2="129.6" y2="263.0" stroke="rgb(0,0,0)"  stroke-width="1.0"/>
<line x1="129.6" y1="263.0" x2="162.0" y2="286.6" stroke="rgb(0,0,0)"  stroke-width="1.0"/>
<line x1="162.0" y1="286.6" x2="153.7" y2="312.5" stroke="rgb(0,0,0)"  stroke-width="1.0"/>
<line x1="136.7" y1="324.9" x2="109.6" y2="324.9" stroke="rgb(0,0,0)"  stroke-width="1.0"/>
<line x1="109.6" y1="324.9" x2="101.1" y2="299.0" stroke="rgb(0,0,0)"  stroke-width="1.0"/>
<line x1="254.9" y1="183.5" x2="225.1" y2="157.1" stroke="rgb(0,0,0)"  stroke-width="1.0"/>
<line x1="225.1" y1="157.1" x2="186.9" y2="169.3" stroke="rgb(0,0,0)"  stroke-width="1.0"/>
<line x1="221.6" y1="165.8" x2="194.8" y2="174.3" stroke="rgb(0,0,0)"  stroke-width="1.0"/>
<line x1="186.9" y1="169.3" x2="178.8" y2="208.3" stroke="rgb(0,0,0)"  stroke-width="1.0"/>
<line x1="178.8" y1="208.3" x2="208.1" y2="235.4" stroke="rgb(0,0,0)"  stroke-width="1.0"/>
<line x1="188.1" y1="207.1" x2="208.6" y2="226.1" stroke="rgb(0,0,0)"  stroke-width="1.0"/>
<line x1="208.1" y1="235.4" x2="246.2" y2="222.9" stroke="rgb(0,0,0)"  stroke-width="1.0"/>
<line x1="246.2" y1="222.9" x2="254.9" y2="183.5" stroke="rgb(0,0,0)"  stroke-width="1.0"/>
<line x1="240.4" y1="215.5" x2="246.6" y2="187.8" stroke="rgb(0,0,0)"  stroke-width="1.0"/>
<text x="91.057174" y="294.642537" fill="rgb(12,12,255)"  stroke="rgb(12,12,255)" stroke-width="1" font-size="16" >N</text>
<text x="143.662598" y="332.882932" fill="rgb(178,178,0)"  stroke="rgb(178,178,0)" stroke-width="1" font-size="16" >S</text>
<text x="228.236156" y="126.301299" fill="rgb(255,12,12)"  stroke="rgb(255,12,12)" stroke-width="1" font-size="16" >O</text>
<text x="22.000000" y="204.199658" fill="rgb(102,102,102)"  stroke="rgb(102,102,102)" stroke-width="1" font-size="16" >HC</text>
<text x="79.925370" y="365.054964" fill="rgb(255,12,12)"  stroke="rgb(255,12,12)" stroke-width="1" font-size="16" >O</text>
<text x="123.229206" y="230.910164" fill="rgb(255,12,12)"  stroke="rgb(255,12,12)" stroke-width="1" font-size="16" >O</text>
<text x="245.232427" y="48.000000" fill="rgb(255,12,12)"  stroke="rgb(255,12,12)" stroke-width="1" font-size="16" >O</text>
<text x="286.909942" y="179.314516" fill="rgb(147,0,147)"  stroke="rgb(147,0,147)" stroke-width="1" font-size="16" >I</text>
<text x="152.158306" y="150.176665" fill="rgb(255,12,12)"  stroke="rgb(255,12,12)" stroke-width="1" font-size="16" >O</text>
<text x="313.013612" y="62.772822" fill="rgb(255,12,12)"  stroke="rgb(255,12,12)" stroke-width="1" font-size="16" >O</text>
<text x="94.121808" y="162.721185" fill="rgb(102,102,102)"  stroke="rgb(102,102,102)" stroke-width="1" font-size="16" >H</text>
<text x="106.121808" y="166.401185" fill="rgb(102,102,102)"  stroke="rgb(102,102,102)" stroke-width="1" font-size="13" >3</text>
<text x="112.621808" y="162.721185" fill="rgb(102,102,102)"  stroke="rgb(102,102,102)" stroke-width="1" font-size="16" >C</text>
<text x="344.350505" y="89.881413" fill="rgb(102,102,102)"  stroke="rgb(102,102,102)" stroke-width="1" font-size="16" >CH</text>
<text x="368.350505" y="93.561413" fill="rgb(102,102,102)"  stroke="rgb(102,102,102)" stroke-width="1" font-size="13" >3</text>
<text font-size="18.000000" fill ="black" font-family="sans-serif"
x="10.000000" y="20.000000" ></text>
<title> - OBDepict</title>
</svg>
