<?xml version="1.0"?>
<svg xmlns="http://www.w3.org/2000/svg"
xmlns:xlink="http://www.w3.org/1999/xlink" xmlns:cml="http://www.xml-cml.org/schema" width="286.847" height="409.332" x="0" y="0" font-family="sans-serif" stroke="rgb(0,0,0)" stroke-width="1"  stroke-linecap="round">
<rect x="0%" y="0%" width="100%" height="100%" stroke-width="0" fill="rgb(255,255,255)"  />
<line x1="155.9" y1="289.1" x2="117.6" y2="301.2" stroke="rgb(0,0,0)"  stroke-width="1.0"/>
<line x1="154.1" y1="283.3" x2="115.7" y2="295.5" stroke="rgb(0,0,0)"  stroke-width="1.0"/>
<line x1="162.9" y1="247.3" x2="155.0" y2="286.2" stroke="rgb(0,0,0)"  stroke-width="1.0"/>
<line x1="234.7" y1="79.5" x2="226.0" y2="118.1" stroke="rgb(0,0,0)"  stroke-width="1.0"/>
<line x1="240.5" y1="52.7" x2="234.7" y2="79.5" stroke="rgb(0,0,0)"  stroke-width="1.0"/>
<line x1="244.6" y1="53.6" x2="238.8" y2="80.4" stroke="rgb(0,0,0)"  stroke-width="1.0"/>
<line x1="236.4" y1="51.8" x2="230.6" y2="78.7" stroke="rgb(0,0,0)"  stroke-width="1.0"/>
<line x1="45.3" y1="357.1" x2="61.7" y2="334.9" stroke="rgb(0,0,0)"  stroke-width="1.0"/>
<line x1="50.1" y1="360.7" x2="66.5" y2="338.5" stroke="rgb(0,0,0)"  stroke-width="1.0"/>
<line x1="86.9" y1="247.9" x2="87.2" y2="275.0" stroke="rgb(0,0,0)"  stroke-width="1.0"/>
<line x1="80.9" y1="247.9" x2="81.2" y2="275.1" stroke="rgb(0,0,0)"  stroke-width="1.0"/>
<line x1="234.5" y1="187.7" x2="208.9" y2="195.9" stroke="rgb(0,0,0)"  stroke-width="1.0"/>
<line x1="185.1" y1="142.5" x2="179.3" y2="168.8" stroke="rgb(0,0,0)"  stroke-width="1.0"/>
<line x1="122.0" y1="163.3" x2="141.6" y2="180.9" stroke="rgb(0,0,0)"  stroke-width="1.0"/>
<line x1="226.0" y1="118.1" x2="200.3" y2="126.0" stroke="rgb(0,0,0)"  stroke-width="1.0"/>
<line x1="74.5" y1="167.0" x2="100.0" y2="158.6" stroke="rgb(0,0,0)"  stroke-width="1.0"/>
<line x1="54.5" y1="148.9" x2="74.5" y2="167.0" stroke="rgb(0,0,0)"  stroke-width="1.0"/>
<line x1="62.1" y1="290.8" x2="84.2" y2="275.0" stroke="rgb(0,0,0)"  stroke-width="1.0"/>
<line x1="84.2" y1="275.0" x2="116.7" y2="298.4" stroke="rgb(0,0,0)"  stroke-width="1.0"/>
<line x1="116.7" y1="298.4" x2="108.3" y2="324.3" stroke="rgb(0,0,0)"  stroke-width="1.0"/>
<line x1="91.3" y1="336.7" x2="64.1" y2="336.7" stroke="rgb(0,0,0)"  stroke-width="1.0"/>
<line x1="64.1" y1="336.7" x2="55.6" y2="310.7" stroke="rgb(0,0,0)"  stroke-width="1.0"/>
<line x1="208.9" y1="195.9" x2="179.3" y2="168.8" stroke="rgb(0,0,0)"  stroke-width="1.0"/>
<line x1="179.3" y1="168.8" x2="141.6" y2="180.9" stroke="rgb(0,0,0)"  stroke-width="1.0"/>
<line x1="175.8" y1="177.5" x2="149.5" y2="186.0" stroke="rgb(0,0,0)"  stroke-width="1.0"/>
<line x1="141.6" y1="180.9" x2="133.1" y2="220.3" stroke="rgb(0,0,0)"  stroke-width="1.0"/>
<line x1="133.1" y1="220.3" x2="162.9" y2="247.3" stroke="rgb(0,0,0)"  stroke-width="1.0"/>
<line x1="142.4" y1="219.0" x2="163.3" y2="237.9" stroke="rgb(0,0,0)"  stroke-width="1.0"/>
<line x1="162.9" y1="247.3" x2="200.6" y2="234.9" stroke="rgb(0,0,0)"  stroke-width="1.0"/>
<line x1="200.6" y1="234.9" x2="208.9" y2="195.9" stroke="rgb(0,0,0)"  stroke-width="1.0"/>
<line x1="194.8" y1="227.5" x2="200.6" y2="200.3" stroke="rgb(0,0,0)"  stroke-width="1.0"/>
<text x="33.561728" y="306.358854" fill="rgb(12,12,255)"  stroke="rgb(12,12,255)" stroke-width="1" font-size="16" >HN</text>
<text x="98.284565" y="344.686443" fill="rgb(12,12,255)"  stroke="rgb(12,12,255)" stroke-width="1" font-size="16" >N</text>
<text x="98.284565" y="360.686443" fill="rgb(12,12,255)"  stroke="rgb(12,12,255)" stroke-width="1" font-size="16" >H</text>
<text x="237.194831" y="48.000000" fill="rgb(102,102,102)"  stroke="rgb(102,102,102)" stroke-width="1" font-size="16" >CH</text>
<text x="34.000000" y="377.332463" fill="rgb(255,12,12)"  stroke="rgb(255,12,12)" stroke-width="1" font-size="16" >O</text>
<text x="77.805727" y="242.883174" fill="rgb(255,12,12)"  stroke="rgb(255,12,12)" stroke-width="1" font-size="16" >O</text>
<text x="240.846923" y="191.778107" fill="rgb(165,40,40)"  stroke="rgb(165,40,40)" stroke-width="1" font-size="16" >Br</text>
<text x="181.837063" y="137.839521" fill="rgb(255,12,12)"  stroke="rgb(255,12,12)" stroke-width="1" font-size="16" >O</text>
<text x="106.397634" y="162.580747" fill="rgb(255,12,12)"  stroke="rgb(255,12,12)" stroke-width="1" font-size="16" >O</text>
<text x="18.867841" y="148.180656" fill="rgb(102,102,102)"  stroke="rgb(102,102,102)" stroke-width="1" font-size="16" >H</text>
<text x="30.867841" y="151.860656" fill="rgb(102,102,102)"  stroke="rgb(102,102,102)" stroke-width="1" font-size="13" >3</text>
<text x="37.367841" y="148.180656" fill="rgb(102,102,102)"  stroke="rgb(102,102,102)" stroke-width="1" font-size="16" >C</text>
<text font-size="18.000000" fill ="black" font-family="sans-serif"
x="10.000000" y="20.000000" ></text>
<title> - OBDepict</title>
</svg>
