<?xml version="1.0"?>
<svg xmlns="http://www.w3.org/2000/svg"
xmlns:xlink="http://www.w3.org/1999/xlink" xmlns:cml="http://www.xml-cml.org/schema" width="347.868" height="559.776" x="0" y="0" font-family="sans-serif" stroke="rgb(0,0,0)" stroke-width="1"  stroke-linecap="round">
<rect x="0%" y="0%" width="100%" height="100%" stroke-width="0" fill="rgb(255,255,255)"  />
<line x1="109.3" y1="199.8" x2="132.8" y2="213.3" stroke="rgb(0,0,0)"  stroke-width="1.0"/>
<line x1="144.0" y1="259.8" x2="144.0" y2="232.8" stroke="rgb(0,0,0)"  stroke-width="1.0"/>
<line x1="178.6" y1="279.8" x2="144.0" y2="259.8" stroke="rgb(0,0,0)"  stroke-width="1.0"/>
<line x1="247.9" y1="479.8" x2="247.9" y2="439.8" stroke="rgb(0,0,0)"  stroke-width="1.0"/>
<line x1="247.9" y1="506.8" x2="247.9" y2="479.8" stroke="rgb(0,0,0)"  stroke-width="1.0"/>
<line x1="243.7" y1="506.8" x2="243.7" y2="479.8" stroke="rgb(0,0,0)"  stroke-width="1.0"/>
<line x1="252.1" y1="506.8" x2="252.1" y2="479.8" stroke="rgb(0,0,0)"  stroke-width="1.0"/>
<line x1="213.3" y1="379.8" x2="213.3" y2="339.8" stroke="rgb(0,0,0)"  stroke-width="1.0"/>
<line x1="109.3" y1="159.8" x2="109.3" y2="199.8" stroke="rgb(0,0,0)"  stroke-width="1.0"/>
<line x1="236.6" y1="393.3" x2="213.3" y2="379.8" stroke="rgb(0,0,0)"  stroke-width="1.0"/>
<line x1="247.9" y1="439.8" x2="247.9" y2="412.8" stroke="rgb(0,0,0)"  stroke-width="1.0"/>
<line x1="178.6" y1="306.8" x2="178.6" y2="279.8" stroke="rgb(0,0,0)"  stroke-width="1.0"/>
<line x1="84.5" y1="210.7" x2="107.8" y2="197.2" stroke="rgb(0,0,0)"  stroke-width="1.0"/>
<line x1="87.5" y1="215.9" x2="110.8" y2="202.4" stroke="rgb(0,0,0)"  stroke-width="1.0"/>
<line x1="203.6" y1="268.9" x2="180.1" y2="282.4" stroke="rgb(0,0,0)"  stroke-width="1.0"/>
<line x1="200.6" y1="263.7" x2="177.1" y2="277.2" stroke="rgb(0,0,0)"  stroke-width="1.0"/>
<line x1="188.4" y1="390.7" x2="211.8" y2="377.2" stroke="rgb(0,0,0)"  stroke-width="1.0"/>
<line x1="191.3" y1="395.9" x2="214.8" y2="382.4" stroke="rgb(0,0,0)"  stroke-width="1.0"/>
<line x1="213.3" y1="339.8" x2="189.9" y2="326.3" stroke="rgb(0,0,0)"  stroke-width="1.0"/>
<line x1="109.3" y1="279.8" x2="144.0" y2="259.8" stroke="rgb(0,0,0)"  stroke-width="1.0"/>
<line x1="109.3" y1="53.0" x2="109.3" y2="80.0" stroke="rgb(0,0,0)"  stroke-width="1.0"/>
<line x1="287.9" y1="439.8" x2="247.9" y2="439.8" stroke="rgb(0,0,0)"  stroke-width="1.0"/>
<line x1="207.9" y1="439.8" x2="247.9" y2="439.8" stroke="rgb(0,0,0)"  stroke-width="1.0"/>
<line x1="74.7" y1="259.8" x2="109.3" y2="279.8" stroke="rgb(0,0,0)"  stroke-width="1.0"/>
<line x1="109.3" y1="306.8" x2="109.3" y2="279.8" stroke="rgb(0,0,0)"  stroke-width="1.0"/>
<line x1="301.4" y1="463.3" x2="287.9" y2="439.8" stroke="rgb(0,0,0)"  stroke-width="1.0"/>
<line x1="194.4" y1="416.5" x2="207.9" y2="439.8" stroke="rgb(0,0,0)"  stroke-width="1.0"/>
<line x1="51.3" y1="273.3" x2="74.7" y2="259.8" stroke="rgb(0,0,0)"  stroke-width="1.0"/>
<line x1="109.3" y1="159.8" x2="74.7" y2="139.8" stroke="rgb(0,0,0)"  stroke-width="1.0"/>
<line x1="107.7" y1="150.6" x2="83.5" y2="136.6" stroke="rgb(0,0,0)"  stroke-width="1.0"/>
<line x1="74.7" y1="139.8" x2="74.7" y2="99.8" stroke="rgb(0,0,0)"  stroke-width="1.0"/>
<line x1="74.7" y1="99.8" x2="109.3" y2="80.0" stroke="rgb(0,0,0)"  stroke-width="1.0"/>
<line x1="83.5" y1="103.1" x2="107.7" y2="89.2" stroke="rgb(0,0,0)"  stroke-width="1.0"/>
<line x1="109.3" y1="80.0" x2="144.0" y2="99.8" stroke="rgb(0,0,0)"  stroke-width="1.0"/>
<line x1="144.0" y1="99.8" x2="144.0" y2="139.8" stroke="rgb(0,0,0)"  stroke-width="1.0"/>
<line x1="136.8" y1="105.8" x2="136.8" y2="133.8" stroke="rgb(0,0,0)"  stroke-width="1.0"/>
<line x1="144.0" y1="139.8" x2="109.3" y2="159.8" stroke="rgb(0,0,0)"  stroke-width="1.0"/>
<text x="138.039319" y="227.788902" fill="rgb(12,12,255)"  stroke="rgb(12,12,255)" stroke-width="1" font-size="16" >NH</text>
<text x="241.870161" y="527.776453" fill="rgb(102,102,102)"  stroke="rgb(102,102,102)" stroke-width="1" font-size="16" >CH</text>
<text x="241.870161" y="407.781433" fill="rgb(12,12,255)"  stroke="rgb(12,12,255)" stroke-width="1" font-size="16" >NH</text>
<text x="172.583340" y="327.784753" fill="rgb(255,12,12)"  stroke="rgb(255,12,12)" stroke-width="1" font-size="16" >O</text>
<text x="68.747649" y="227.788902" fill="rgb(255,12,12)"  stroke="rgb(255,12,12)" stroke-width="1" font-size="16" >O</text>
<text x="207.326140" y="267.787243" fill="rgb(255,12,12)"  stroke="rgb(255,12,12)" stroke-width="1" font-size="16" >O</text>
<text x="172.583340" y="407.781433" fill="rgb(255,12,12)"  stroke="rgb(255,12,12)" stroke-width="1" font-size="16" >O</text>
<text x="103.291670" y="48.000000" fill="rgb(30,239,30)"  stroke="rgb(30,239,30)" stroke-width="1" font-size="16" >Cl</text>
<text x="105.291670" y="327.784753" fill="rgb(102,102,102)"  stroke="rgb(102,102,102)" stroke-width="1" font-size="16" >CH</text>
<text x="129.291670" y="331.464753" fill="rgb(102,102,102)"  stroke="rgb(102,102,102)" stroke-width="1" font-size="13" >3</text>
<text x="303.867672" y="482.527422" fill="rgb(102,102,102)"  stroke="rgb(102,102,102)" stroke-width="1" font-size="16" >CH</text>
<text x="327.867672" y="486.207422" fill="rgb(102,102,102)"  stroke="rgb(102,102,102)" stroke-width="1" font-size="13" >3</text>
<text x="161.872651" y="413.235752" fill="rgb(102,102,102)"  stroke="rgb(102,102,102)" stroke-width="1" font-size="16" >H</text>
<text x="173.872651" y="416.915752" fill="rgb(102,102,102)"  stroke="rgb(102,102,102)" stroke-width="1" font-size="13" >3</text>
<text x="180.372651" y="413.235752" fill="rgb(102,102,102)"  stroke="rgb(102,102,102)" stroke-width="1" font-size="16" >C</text>
<text x="14.000000" y="287.786413" fill="rgb(102,102,102)"  stroke="rgb(102,102,102)" stroke-width="1" font-size="16" >H</text>
<text x="26.000000" y="291.466413" fill="rgb(102,102,102)"  stroke="rgb(102,102,102)" stroke-width="1" font-size="13" >3</text>
<text x="32.500000" y="287.786413" fill="rgb(102,102,102)"  stroke="rgb(102,102,102)" stroke-width="1" font-size="16" >C</text>
<text font-size="18.000000" fill ="black" font-family="sans-serif"
x="10.000000" y="20.000000" ></text>
<title> - OBDepict</title>
</svg>
