<?xml version="1.0"?>
<svg xmlns="http://www.w3.org/2000/svg"
xmlns:xlink="http://www.w3.org/1999/xlink" xmlns:cml="http://www.xml-cml.org/schema" width="476.341" height="365.407" x="0" y="0" font-family="sans-serif" stroke="rgb(0,0,0)" stroke-width="1"  stroke-linecap="round">
<rect x="0%" y="0%" width="100%" height="100%" stroke-width="0" fill="rgb(255,255,255)"  />
<line x1="195.4" y1="98.6" x2="234.7" y2="104.8" stroke="rgb(0,0,0)"  stroke-width="1.0"/>
<line x1="194.4" y1="104.5" x2="233.8" y2="110.7" stroke="rgb(0,0,0)"  stroke-width="1.0"/>
<line x1="334.1" y1="79.9" x2="310.0" y2="92.0" stroke="rgb(0,0,0)"  stroke-width="1.0"/>
<line x1="308.9" y1="158.7" x2="290.2" y2="139.5" stroke="rgb(0,0,0)"  stroke-width="1.0"/>
<line x1="313.2" y1="154.5" x2="294.5" y2="135.3" stroke="rgb(0,0,0)"  stroke-width="1.0"/>
<line x1="83.4" y1="294.5" x2="108.4" y2="263.3" stroke="rgb(0,0,0)"  stroke-width="1.0"/>
<line x1="66.4" y1="315.3" x2="83.4" y2="294.5" stroke="rgb(0,0,0)"  stroke-width="1.0"/>
<line x1="63.1" y1="312.7" x2="80.1" y2="291.9" stroke="rgb(0,0,0)"  stroke-width="1.0"/>
<line x1="69.6" y1="318.0" x2="86.6" y2="297.2" stroke="rgb(0,0,0)"  stroke-width="1.0"/>
<line x1="261.6" y1="52.4" x2="265.6" y2="78.9" stroke="rgb(0,0,0)"  stroke-width="1.0"/>
<line x1="255.6" y1="53.3" x2="259.7" y2="79.8" stroke="rgb(0,0,0)"  stroke-width="1.0"/>
<line x1="169.9" y1="132.6" x2="194.9" y2="101.5" stroke="rgb(0,0,0)"  stroke-width="1.0"/>
<line x1="367.8" y1="101.7" x2="334.1" y2="79.9" stroke="rgb(0,0,0)"  stroke-width="1.0"/>
<line x1="78.3" y1="153.2" x2="104.7" y2="157.4" stroke="rgb(0,0,0)"  stroke-width="1.0"/>
<line x1="102.1" y1="215.7" x2="119.3" y2="194.9" stroke="rgb(0,0,0)"  stroke-width="1.0"/>
<line x1="108.4" y1="263.3" x2="98.5" y2="237.9" stroke="rgb(0,0,0)"  stroke-width="1.0"/>
<line x1="48.2" y1="172.1" x2="57.2" y2="161.2" stroke="rgb(0,0,0)"  stroke-width="1.0"/>
<line x1="296.4" y1="110.7" x2="292.3" y2="137.4" stroke="rgb(0,0,0)"  stroke-width="1.0"/>
<line x1="292.3" y1="137.4" x2="265.2" y2="141.5" stroke="rgb(0,0,0)"  stroke-width="1.0"/>
<line x1="246.5" y1="131.9" x2="234.2" y2="107.8" stroke="rgb(0,0,0)"  stroke-width="1.0"/>
<line x1="234.2" y1="107.8" x2="262.7" y2="79.3" stroke="rgb(0,0,0)"  stroke-width="1.0"/>
<line x1="262.7" y1="79.3" x2="286.8" y2="91.9" stroke="rgb(0,0,0)"  stroke-width="1.0"/>
<line x1="104.7" y1="157.4" x2="119.3" y2="194.9" stroke="rgb(0,0,0)"  stroke-width="1.0"/>
<line x1="113.6" y1="160.4" x2="123.8" y2="186.7" stroke="rgb(0,0,0)"  stroke-width="1.0"/>
<line x1="119.3" y1="194.9" x2="158.6" y2="201.0" stroke="rgb(0,0,0)"  stroke-width="1.0"/>
<line x1="158.6" y1="201.0" x2="184.0" y2="170.1" stroke="rgb(0,0,0)"  stroke-width="1.0"/>
<line x1="156.9" y1="191.7" x2="174.6" y2="170.1" stroke="rgb(0,0,0)"  stroke-width="1.0"/>
<line x1="184.0" y1="170.1" x2="169.9" y2="132.6" stroke="rgb(0,0,0)"  stroke-width="1.0"/>
<line x1="169.9" y1="132.6" x2="130.2" y2="126.3" stroke="rgb(0,0,0)"  stroke-width="1.0"/>
<line x1="162.8" y1="138.8" x2="135.0" y2="134.4" stroke="rgb(0,0,0)"  stroke-width="1.0"/>
<line x1="130.2" y1="126.3" x2="104.7" y2="157.4" stroke="rgb(0,0,0)"  stroke-width="1.0"/>
<line x1="435.7" y1="118.3" x2="434.3" y2="145.3" stroke="rgb(0,0,0)"  stroke-width="1.0"/>
<line x1="434.3" y1="145.3" x2="398.2" y2="163.4" stroke="rgb(0,0,0)"  stroke-width="1.0"/>
<line x1="425.7" y1="141.5" x2="400.3" y2="154.3" stroke="rgb(0,0,0)"  stroke-width="1.0"/>
<line x1="398.2" y1="163.4" x2="365.3" y2="141.5" stroke="rgb(0,0,0)"  stroke-width="1.0"/>
<line x1="365.3" y1="141.5" x2="367.8" y2="101.7" stroke="rgb(0,0,0)"  stroke-width="1.0"/>
<line x1="372.9" y1="135.9" x2="374.6" y2="108.1" stroke="rgb(0,0,0)"  stroke-width="1.0"/>
<line x1="367.8" y1="101.7" x2="403.1" y2="83.6" stroke="rgb(0,0,0)"  stroke-width="1.0"/>
<line x1="403.1" y1="83.6" x2="425.4" y2="98.2" stroke="rgb(0,0,0)"  stroke-width="1.0"/>
<line x1="404.1" y1="92.9" x2="419.7" y2="103.1" stroke="rgb(0,0,0)"  stroke-width="1.0"/>
<text x="292.375333" y="105.883132" fill="rgb(12,12,255)"  stroke="rgb(12,12,255)" stroke-width="1" font-size="16" >N</text>
<text x="246.391639" y="151.469370" fill="rgb(178,178,0)"  stroke="rgb(178,178,0)" stroke-width="1" font-size="16" >S</text>
<text x="314.162695" y="173.862610" fill="rgb(178,178,0)"  stroke="rgb(178,178,0)" stroke-width="1" font-size="16" >S</text>
<text x="40.152096" y="333.407173" fill="rgb(102,102,102)"  stroke="rgb(102,102,102)" stroke-width="1" font-size="16" >HC</text>
<text x="250.623089" y="48.000000" fill="rgb(255,12,12)"  stroke="rgb(255,12,12)" stroke-width="1" font-size="16" >O</text>
<text x="430.340956" y="113.347545" fill="rgb(12,12,255)"  stroke="rgb(12,12,255)" stroke-width="1" font-size="16" >N</text>
<text x="59.412934" y="159.132511" fill="rgb(255,12,12)"  stroke="rgb(255,12,12)" stroke-width="1" font-size="16" >O</text>
<text x="87.850410" y="233.766950" fill="rgb(255,12,12)"  stroke="rgb(255,12,12)" stroke-width="1" font-size="16" >O</text>
<text x="14.000000" y="190.197073" fill="rgb(102,102,102)"  stroke="rgb(102,102,102)" stroke-width="1" font-size="16" >H</text>
<text x="26.000000" y="193.877073" fill="rgb(102,102,102)"  stroke="rgb(102,102,102)" stroke-width="1" font-size="13" >3</text>
<text x="32.500000" y="190.197073" fill="rgb(102,102,102)"  stroke="rgb(102,102,102)" stroke-width="1" font-size="16" >C</text>
<text font-size="18.000000" fill ="black" font-family="sans-serif"
x="10.000000" y="20.000000" ></text>
<title> - OBDepict</title>
</svg>
