<?xml version="1.0"?>
<svg xmlns="http://www.w3.org/2000/svg"
xmlns:xlink="http://www.w3.org/1999/xlink" xmlns:cml="http://www.xml-cml.org/schema" width="412.827" height="252.369" x="0" y="0" font-family="sans-serif" stroke="rgb(0,0,0)" stroke-width="1"  stroke-linecap="round">
<rect x="0%" y="0%" width="100%" height="100%" stroke-width="0" fill="rgb(255,255,255)"  />
<line x1="339.4" y1="141.6" x2="312.6" y2="141.8" stroke="rgb(0,0,0)"  stroke-width="1.0"/>
<line x1="218.2" y1="99.0" x2="240.2" y2="114.7" stroke="rgb(0,0,0)"  stroke-width="1.0"/>
<line x1="181.9" y1="115.6" x2="218.2" y2="99.0" stroke="rgb(0,0,0)"  stroke-width="1.0"/>
<line x1="76.4" y1="125.5" x2="112.8" y2="108.9" stroke="rgb(0,0,0)"  stroke-width="1.0"/>
<line x1="51.8" y1="136.7" x2="76.4" y2="125.5" stroke="rgb(0,0,0)"  stroke-width="1.0"/>
<line x1="50.1" y1="132.8" x2="74.6" y2="121.7" stroke="rgb(0,0,0)"  stroke-width="1.0"/>
<line x1="53.6" y1="140.5" x2="78.1" y2="129.3" stroke="rgb(0,0,0)"  stroke-width="1.0"/>
<line x1="366.2" y1="164.8" x2="359.0" y2="152.6" stroke="rgb(0,0,0)"  stroke-width="1.0"/>
<line x1="159.9" y1="99.9" x2="181.9" y2="115.6" stroke="rgb(0,0,0)"  stroke-width="1.0"/>
<line x1="368.4" y1="119.5" x2="361.5" y2="131.6" stroke="rgb(0,0,0)"  stroke-width="1.0"/>
<line x1="363.2" y1="116.5" x2="356.2" y2="128.7" stroke="rgb(0,0,0)"  stroke-width="1.0"/>
<line x1="112.8" y1="108.9" x2="137.5" y2="97.7" stroke="rgb(0,0,0)"  stroke-width="1.0"/>
<line x1="176.3" y1="142.2" x2="178.9" y2="115.3" stroke="rgb(0,0,0)"  stroke-width="1.0"/>
<line x1="182.3" y1="142.7" x2="184.8" y2="115.9" stroke="rgb(0,0,0)"  stroke-width="1.0"/>
<line x1="296.8" y1="83.9" x2="288.8" y2="109.5" stroke="rgb(0,0,0)"  stroke-width="1.0"/>
<line x1="297.8" y1="200.0" x2="289.2" y2="174.4" stroke="rgb(0,0,0)"  stroke-width="1.0"/>
<line x1="129.3" y1="145.3" x2="112.8" y2="108.9" stroke="rgb(0,0,0)"  stroke-width="1.0"/>
<line x1="96.2" y1="72.5" x2="112.8" y2="108.9" stroke="rgb(0,0,0)"  stroke-width="1.0"/>
<line x1="113.6" y1="167.2" x2="129.3" y2="145.3" stroke="rgb(0,0,0)"  stroke-width="1.0"/>
<line x1="111.9" y1="50.6" x2="96.2" y2="72.5" stroke="rgb(0,0,0)"  stroke-width="1.0"/>
<line x1="312.6" y1="141.8" x2="289.2" y2="174.4" stroke="rgb(0,0,0)"  stroke-width="1.0"/>
<line x1="289.2" y1="174.4" x2="263.7" y2="166.3" stroke="rgb(0,0,0)"  stroke-width="1.0"/>
<line x1="285.6" y1="165.7" x2="267.8" y2="160.0" stroke="rgb(0,0,0)"  stroke-width="1.0"/>
<line x1="251.0" y1="149.3" x2="250.9" y2="135.2" stroke="rgb(0,0,0)"  stroke-width="1.0"/>
<line x1="263.1" y1="118.1" x2="288.8" y2="109.5" stroke="rgb(0,0,0)"  stroke-width="1.0"/>
<line x1="288.8" y1="109.5" x2="312.6" y2="141.8" stroke="rgb(0,0,0)"  stroke-width="1.0"/>
<line x1="286.5" y1="118.6" x2="303.3" y2="141.3" stroke="rgb(0,0,0)"  stroke-width="1.0"/>
<text x="244.768044" y="130.244798" fill="rgb(12,12,255)"  stroke="rgb(12,12,255)" stroke-width="1" font-size="16" >N</text>
<text x="245.170255" y="170.257483" fill="rgb(12,12,255)"  stroke="rgb(12,12,255)" stroke-width="1" font-size="16" >N</text>
<text x="357.211023" y="137.407451" fill="rgb(12,12,255)"  stroke="rgb(12,12,255)" stroke-width="1" font-size="16" >+</text>
<text x="346.411023" y="149.439451" fill="rgb(12,12,255)"  stroke="rgb(12,12,255)" stroke-width="1" font-size="16" >N</text>
<text x="22.000000" y="150.045189" fill="rgb(102,102,102)"  stroke="rgb(102,102,102)" stroke-width="1" font-size="16" >HC</text>
<text x="377.626845" y="161.883641" fill="rgb(255,12,12)"  stroke="rgb(255,12,12)" stroke-width="1" font-size="16" >_</text>
<text x="366.826845" y="183.995641" fill="rgb(255,12,12)"  stroke="rgb(255,12,12)" stroke-width="1" font-size="16" >O</text>
<text x="143.323748" y="100.335837" fill="rgb(12,12,255)"  stroke="rgb(12,12,255)" stroke-width="1" font-size="16" >N</text>
<text x="143.323748" y="84.335837" fill="rgb(12,12,255)"  stroke="rgb(12,12,255)" stroke-width="1" font-size="16" >H</text>
<text x="366.221106" y="114.684578" fill="rgb(255,12,12)"  stroke="rgb(255,12,12)" stroke-width="1" font-size="16" >O</text>
<text x="172.021231" y="163.385982" fill="rgb(255,12,12)"  stroke="rgb(255,12,12)" stroke-width="1" font-size="16" >O</text>
<text x="296.685771" y="79.522650" fill="rgb(102,102,102)"  stroke="rgb(102,102,102)" stroke-width="1" font-size="16" >CH</text>
<text x="320.685771" y="83.202650" fill="rgb(102,102,102)"  stroke="rgb(102,102,102)" stroke-width="1" font-size="13" >3</text>
<text x="297.897249" y="220.369047" fill="rgb(102,102,102)"  stroke="rgb(102,102,102)" stroke-width="1" font-size="16" >CH</text>
<text x="321.897249" y="224.049047" fill="rgb(102,102,102)"  stroke="rgb(102,102,102)" stroke-width="1" font-size="13" >3</text>
<text x="80.083685" y="185.812857" fill="rgb(102,102,102)"  stroke="rgb(102,102,102)" stroke-width="1" font-size="16" >H</text>
<text x="92.083685" y="189.492857" fill="rgb(102,102,102)"  stroke="rgb(102,102,102)" stroke-width="1" font-size="13" >3</text>
<text x="98.583685" y="185.812857" fill="rgb(102,102,102)"  stroke="rgb(102,102,102)" stroke-width="1" font-size="16" >C</text>
<text x="115.419632" y="48.000000" fill="rgb(102,102,102)"  stroke="rgb(102,102,102)" stroke-width="1" font-size="16" >CH</text>
<text x="139.419632" y="51.680000" fill="rgb(102,102,102)"  stroke="rgb(102,102,102)" stroke-width="1" font-size="13" >3</text>
<text font-size="18.000000" fill ="black" font-family="sans-serif"
x="10.000000" y="20.000000" ></text>
<title> - OBDepict</title>
</svg>
