<?xml version="1.0"?>
<svg xmlns="http://www.w3.org/2000/svg"
xmlns:xlink="http://www.w3.org/1999/xlink" xmlns:cml="http://www.xml-cml.org/schema" width="460.119" height="312.601" x="0" y="0" font-family="sans-serif" stroke="rgb(0,0,0)" stroke-width="1"  stroke-linecap="round">
<rect x="0%" y="0%" width="100%" height="100%" stroke-width="0" fill="rgb(255,255,255)"  />
<line x1="266.8" y1="146.1" x2="239.8" y2="145.9" stroke="rgb(0,0,0)"  stroke-width="1.0"/>
<line x1="266.9" y1="140.1" x2="239.9" y2="139.9" stroke="rgb(0,0,0)"  stroke-width="1.0"/>
<line x1="85.2" y1="109.1" x2="109.1" y2="122.9" stroke="rgb(0,0,0)"  stroke-width="1.0"/>
<line x1="299.9" y1="108.7" x2="286.4" y2="132.0" stroke="rgb(0,0,0)"  stroke-width="1.0"/>
<line x1="339.9" y1="108.7" x2="299.9" y2="108.7" stroke="rgb(0,0,0)"  stroke-width="1.0"/>
<line x1="201.9" y1="242.9" x2="228.5" y2="213.2" stroke="rgb(0,0,0)"  stroke-width="1.0"/>
<line x1="183.9" y1="262.9" x2="201.9" y2="242.9" stroke="rgb(0,0,0)"  stroke-width="1.0"/>
<line x1="180.8" y1="260.1" x2="198.7" y2="240.1" stroke="rgb(0,0,0)"  stroke-width="1.0"/>
<line x1="187.0" y1="265.7" x2="205.0" y2="245.7" stroke="rgb(0,0,0)"  stroke-width="1.0"/>
<line x1="57.0" y1="124.2" x2="64.5" y2="112.1" stroke="rgb(0,0,0)"  stroke-width="1.0"/>
<line x1="62.1" y1="127.3" x2="69.6" y2="115.3" stroke="rgb(0,0,0)"  stroke-width="1.0"/>
<line x1="90.8" y1="81.5" x2="83.4" y2="93.2" stroke="rgb(0,0,0)"  stroke-width="1.0"/>
<line x1="85.7" y1="78.3" x2="78.3" y2="90.0" stroke="rgb(0,0,0)"  stroke-width="1.0"/>
<line x1="289.0" y1="83.9" x2="302.5" y2="107.2" stroke="rgb(0,0,0)"  stroke-width="1.0"/>
<line x1="283.8" y1="86.9" x2="297.3" y2="110.2" stroke="rgb(0,0,0)"  stroke-width="1.0"/>
<line x1="51.1" y1="88.5" x2="62.9" y2="95.8" stroke="rgb(0,0,0)"  stroke-width="1.0"/>
<line x1="228.5" y1="213.2" x2="220.4" y2="187.4" stroke="rgb(0,0,0)"  stroke-width="1.0"/>
<line x1="345.9" y1="51.2" x2="359.5" y2="74.4" stroke="rgb(0,0,0)"  stroke-width="1.0"/>
<line x1="239.9" y1="142.9" x2="224.0" y2="121.1" stroke="rgb(0,0,0)"  stroke-width="1.0"/>
<line x1="204.0" y1="114.5" x2="178.2" y2="122.9" stroke="rgb(0,0,0)"  stroke-width="1.0"/>
<line x1="178.2" y1="122.9" x2="178.2" y2="162.9" stroke="rgb(0,0,0)"  stroke-width="1.0"/>
<line x1="185.4" y1="128.9" x2="185.4" y2="156.9" stroke="rgb(0,0,0)"  stroke-width="1.0"/>
<line x1="178.2" y1="162.9" x2="204.0" y2="171.1" stroke="rgb(0,0,0)"  stroke-width="1.0"/>
<line x1="224.1" y1="164.5" x2="239.9" y2="142.9" stroke="rgb(0,0,0)"  stroke-width="1.0"/>
<line x1="339.9" y1="108.7" x2="359.5" y2="74.4" stroke="rgb(0,0,0)"  stroke-width="1.0"/>
<line x1="359.5" y1="74.4" x2="399.5" y2="73.7" stroke="rgb(0,0,0)"  stroke-width="1.0"/>
<line x1="365.6" y1="81.5" x2="393.6" y2="81.0" stroke="rgb(0,0,0)"  stroke-width="1.0"/>
<line x1="399.5" y1="73.7" x2="420.1" y2="108.3" stroke="rgb(0,0,0)"  stroke-width="1.0"/>
<line x1="420.1" y1="108.3" x2="399.5" y2="143.3" stroke="rgb(0,0,0)"  stroke-width="1.0"/>
<line x1="410.9" y1="109.8" x2="396.4" y2="134.4" stroke="rgb(0,0,0)"  stroke-width="1.0"/>
<line x1="399.5" y1="143.3" x2="359.9" y2="143.5" stroke="rgb(0,0,0)"  stroke-width="1.0"/>
<line x1="359.9" y1="143.5" x2="339.9" y2="108.7" stroke="rgb(0,0,0)"  stroke-width="1.0"/>
<line x1="363.1" y1="134.7" x2="349.1" y2="110.3" stroke="rgb(0,0,0)"  stroke-width="1.0"/>
<line x1="109.1" y1="122.9" x2="143.7" y2="102.9" stroke="rgb(0,0,0)"  stroke-width="1.0"/>
<line x1="117.9" y1="126.1" x2="142.1" y2="112.1" stroke="rgb(0,0,0)"  stroke-width="1.0"/>
<line x1="143.7" y1="102.9" x2="178.2" y2="122.9" stroke="rgb(0,0,0)"  stroke-width="1.0"/>
<line x1="178.2" y1="162.9" x2="143.7" y2="182.9" stroke="rgb(0,0,0)"  stroke-width="1.0"/>
<line x1="143.7" y1="182.9" x2="109.1" y2="162.9" stroke="rgb(0,0,0)"  stroke-width="1.0"/>
<line x1="142.1" y1="173.6" x2="117.9" y2="159.6" stroke="rgb(0,0,0)"  stroke-width="1.0"/>
<line x1="109.1" y1="162.9" x2="109.1" y2="122.9" stroke="rgb(0,0,0)"  stroke-width="1.0"/>
<text x="273.870589" y="151.266321" fill="rgb(12,12,255)"  stroke="rgb(12,12,255)" stroke-width="1" font-size="16" >N</text>
<text x="67.947787" y="110.644169" fill="rgb(178,178,0)"  stroke="rgb(178,178,0)" stroke-width="1" font-size="16" >S</text>
<text x="210.418139" y="182.992546" fill="rgb(12,12,255)"  stroke="rgb(12,12,255)" stroke-width="1" font-size="16" >N</text>
<text x="210.418139" y="118.528536" fill="rgb(178,178,0)"  stroke="rgb(178,178,0)" stroke-width="1" font-size="16" >S</text>
<text x="157.190987" y="280.600903" fill="rgb(102,102,102)"  stroke="rgb(102,102,102)" stroke-width="1" font-size="16" >HC</text>
<text x="46.729210" y="144.800076" fill="rgb(255,12,12)"  stroke="rgb(255,12,12)" stroke-width="1" font-size="16" >O</text>
<text x="89.166363" y="76.899663" fill="rgb(255,12,12)"  stroke="rgb(255,12,12)" stroke-width="1" font-size="16" >O</text>
<text x="273.870589" y="82.151067" fill="rgb(255,12,12)"  stroke="rgb(255,12,12)" stroke-width="1" font-size="16" >O</text>
<text x="14.000000" y="89.628873" fill="rgb(12,12,255)"  stroke="rgb(12,12,255)" stroke-width="1" font-size="16" >H</text>
<text x="26.000000" y="93.308873" fill="rgb(12,12,255)"  stroke="rgb(12,12,255)" stroke-width="1" font-size="13" >2</text>
<text x="32.500000" y="89.628873" fill="rgb(12,12,255)"  stroke="rgb(12,12,255)" stroke-width="1" font-size="16" >N</text>
<text x="313.281636" y="48.000000" fill="rgb(102,102,102)"  stroke="rgb(102,102,102)" stroke-width="1" font-size="16" >H</text>
<text x="325.281636" y="51.680000" fill="rgb(102,102,102)"  stroke="rgb(102,102,102)" stroke-width="1" font-size="13" >3</text>
<text x="331.781636" y="48.000000" fill="rgb(102,102,102)"  stroke="rgb(102,102,102)" stroke-width="1" font-size="16" >C</text>
<text font-size="18.000000" fill ="black" font-family="sans-serif"
x="10.000000" y="20.000000" ></text>
<title> - OBDepict</title>
</svg>
