<?xml version="1.0"?>
<svg xmlns="http://www.w3.org/2000/svg"
xmlns:xlink="http://www.w3.org/1999/xlink" xmlns:cml="http://www.xml-cml.org/schema" width="460.01" height="283.752" x="0" y="0" font-family="sans-serif" stroke="rgb(0,0,0)" stroke-width="1"  stroke-linecap="round">
<rect x="0%" y="0%" width="100%" height="100%" stroke-width="0" fill="rgb(255,255,255)"  />
<line x1="266.9" y1="117.3" x2="239.9" y2="117.0" stroke="rgb(0,0,0)"  stroke-width="1.0"/>
<line x1="267.0" y1="111.3" x2="239.9" y2="111.0" stroke="rgb(0,0,0)"  stroke-width="1.0"/>
<line x1="85.2" y1="80.2" x2="109.1" y2="94.0" stroke="rgb(0,0,0)"  stroke-width="1.0"/>
<line x1="299.9" y1="79.8" x2="286.4" y2="103.1" stroke="rgb(0,0,0)"  stroke-width="1.0"/>
<line x1="201.9" y1="214.0" x2="228.6" y2="184.3" stroke="rgb(0,0,0)"  stroke-width="1.0"/>
<line x1="183.9" y1="234.1" x2="201.9" y2="214.0" stroke="rgb(0,0,0)"  stroke-width="1.0"/>
<line x1="180.8" y1="231.3" x2="198.8" y2="211.2" stroke="rgb(0,0,0)"  stroke-width="1.0"/>
<line x1="187.0" y1="236.9" x2="205.0" y2="216.8" stroke="rgb(0,0,0)"  stroke-width="1.0"/>
<line x1="90.8" y1="52.6" x2="83.4" y2="64.3" stroke="rgb(0,0,0)"  stroke-width="1.0"/>
<line x1="85.7" y1="49.4" x2="78.3" y2="61.2" stroke="rgb(0,0,0)"  stroke-width="1.0"/>
<line x1="57.0" y1="95.3" x2="64.5" y2="83.2" stroke="rgb(0,0,0)"  stroke-width="1.0"/>
<line x1="62.1" y1="98.5" x2="69.6" y2="86.4" stroke="rgb(0,0,0)"  stroke-width="1.0"/>
<line x1="289.0" y1="55.0" x2="302.5" y2="78.3" stroke="rgb(0,0,0)"  stroke-width="1.0"/>
<line x1="283.8" y1="58.0" x2="297.3" y2="81.3" stroke="rgb(0,0,0)"  stroke-width="1.0"/>
<line x1="340.0" y1="79.8" x2="299.9" y2="79.8" stroke="rgb(0,0,0)"  stroke-width="1.0"/>
<line x1="228.6" y1="184.3" x2="220.4" y2="158.5" stroke="rgb(0,0,0)"  stroke-width="1.0"/>
<line x1="51.1" y1="59.6" x2="62.9" y2="66.9" stroke="rgb(0,0,0)"  stroke-width="1.0"/>
<line x1="239.9" y1="114.0" x2="224.1" y2="92.2" stroke="rgb(0,0,0)"  stroke-width="1.0"/>
<line x1="204.1" y1="85.6" x2="178.3" y2="94.0" stroke="rgb(0,0,0)"  stroke-width="1.0"/>
<line x1="178.3" y1="94.0" x2="178.3" y2="134.0" stroke="rgb(0,0,0)"  stroke-width="1.0"/>
<line x1="185.5" y1="100.0" x2="185.5" y2="128.0" stroke="rgb(0,0,0)"  stroke-width="1.0"/>
<line x1="178.3" y1="134.0" x2="204.1" y2="142.2" stroke="rgb(0,0,0)"  stroke-width="1.0"/>
<line x1="224.1" y1="135.6" x2="239.9" y2="114.0" stroke="rgb(0,0,0)"  stroke-width="1.0"/>
<line x1="340.0" y1="79.8" x2="360.0" y2="45.3" stroke="rgb(0,0,0)"  stroke-width="1.0"/>
<line x1="360.0" y1="45.3" x2="399.6" y2="45.3" stroke="rgb(0,0,0)"  stroke-width="1.0"/>
<line x1="366.0" y1="52.5" x2="393.6" y2="52.5" stroke="rgb(0,0,0)"  stroke-width="1.0"/>
<line x1="399.6" y1="45.3" x2="420.0" y2="79.8" stroke="rgb(0,0,0)"  stroke-width="1.0"/>
<line x1="420.0" y1="79.8" x2="399.6" y2="114.6" stroke="rgb(0,0,0)"  stroke-width="1.0"/>
<line x1="410.8" y1="81.3" x2="396.4" y2="105.8" stroke="rgb(0,0,0)"  stroke-width="1.0"/>
<line x1="399.6" y1="114.6" x2="360.0" y2="114.6" stroke="rgb(0,0,0)"  stroke-width="1.0"/>
<line x1="360.0" y1="114.6" x2="340.0" y2="79.8" stroke="rgb(0,0,0)"  stroke-width="1.0"/>
<line x1="363.2" y1="105.8" x2="349.2" y2="81.4" stroke="rgb(0,0,0)"  stroke-width="1.0"/>
<line x1="109.1" y1="94.0" x2="143.7" y2="74.0" stroke="rgb(0,0,0)"  stroke-width="1.0"/>
<line x1="117.9" y1="97.2" x2="142.1" y2="83.2" stroke="rgb(0,0,0)"  stroke-width="1.0"/>
<line x1="143.7" y1="74.0" x2="178.3" y2="94.0" stroke="rgb(0,0,0)"  stroke-width="1.0"/>
<line x1="178.3" y1="134.0" x2="143.7" y2="154.0" stroke="rgb(0,0,0)"  stroke-width="1.0"/>
<line x1="143.7" y1="154.0" x2="109.1" y2="134.0" stroke="rgb(0,0,0)"  stroke-width="1.0"/>
<line x1="142.1" y1="144.8" x2="117.9" y2="130.8" stroke="rgb(0,0,0)"  stroke-width="1.0"/>
<line x1="109.1" y1="134.0" x2="109.1" y2="94.0" stroke="rgb(0,0,0)"  stroke-width="1.0"/>
<text x="273.929967" y="122.385067" fill="rgb(12,12,255)"  stroke="rgb(12,12,255)" stroke-width="1" font-size="16" >N</text>
<text x="210.461810" y="154.119146" fill="rgb(12,12,255)"  stroke="rgb(12,12,255)" stroke-width="1" font-size="16" >N</text>
<text x="210.461810" y="89.639178" fill="rgb(178,178,0)"  stroke="rgb(178,178,0)" stroke-width="1" font-size="16" >S</text>
<text x="67.956190" y="81.752860" fill="rgb(178,178,0)"  stroke="rgb(178,178,0)" stroke-width="1" font-size="16" >S</text>
<text x="157.224452" y="251.751665" fill="rgb(102,102,102)"  stroke="rgb(102,102,102)" stroke-width="1" font-size="16" >HC</text>
<text x="89.180019" y="48.000000" fill="rgb(255,12,12)"  stroke="rgb(255,12,12)" stroke-width="1" font-size="16" >O</text>
<text x="46.732361" y="115.917222" fill="rgb(255,12,12)"  stroke="rgb(255,12,12)" stroke-width="1" font-size="16" >O</text>
<text x="273.929967" y="53.252704" fill="rgb(255,12,12)"  stroke="rgb(255,12,12)" stroke-width="1" font-size="16" >O</text>
<text x="14.000000" y="60.732361" fill="rgb(102,102,102)"  stroke="rgb(102,102,102)" stroke-width="1" font-size="16" >H</text>
<text x="26.000000" y="64.412361" fill="rgb(102,102,102)"  stroke="rgb(102,102,102)" stroke-width="1" font-size="13" >3</text>
<text x="32.500000" y="60.732361" fill="rgb(102,102,102)"  stroke="rgb(102,102,102)" stroke-width="1" font-size="16" >C</text>
<text font-size="18.000000" fill ="black" font-family="sans-serif"
x="10.000000" y="20.000000" ></text>
<title> - OBDepict</title>
</svg>
