<?xml version="1.0"?>
<svg xmlns="http://www.w3.org/2000/svg"
xmlns:xlink="http://www.w3.org/1999/xlink" xmlns:cml="http://www.xml-cml.org/schema" width="189.296" height="559.831" x="0" y="0" font-family="sans-serif" stroke="rgb(0,0,0)" stroke-width="1"  stroke-linecap="round">
<rect x="0%" y="0%" width="100%" height="100%" stroke-width="0" fill="rgb(255,255,255)"  />
<line x1="109.3" y1="339.8" x2="109.3" y2="299.8" stroke="rgb(0,0,0)"  stroke-width="1.0"/>
<line x1="86.0" y1="353.3" x2="109.3" y2="339.8" stroke="rgb(0,0,0)"  stroke-width="1.0"/>
<line x1="109.3" y1="219.8" x2="109.3" y2="192.8" stroke="rgb(0,0,0)"  stroke-width="1.0"/>
<line x1="74.7" y1="399.8" x2="74.7" y2="372.8" stroke="rgb(0,0,0)"  stroke-width="1.0"/>
<line x1="144.0" y1="80.0" x2="144.0" y2="119.8" stroke="rgb(0,0,0)"  stroke-width="1.0"/>
<line x1="144.0" y1="53.0" x2="144.0" y2="80.0" stroke="rgb(0,0,0)"  stroke-width="1.0"/>
<line x1="148.2" y1="53.0" x2="148.2" y2="80.0" stroke="rgb(0,0,0)"  stroke-width="1.0"/>
<line x1="139.8" y1="53.0" x2="139.8" y2="80.0" stroke="rgb(0,0,0)"  stroke-width="1.0"/>
<line x1="136.3" y1="182.8" x2="122.3" y2="182.8" stroke="rgb(0,0,0)"  stroke-width="1.0"/>
<line x1="136.3" y1="176.8" x2="122.3" y2="176.8" stroke="rgb(0,0,0)"  stroke-width="1.0"/>
<line x1="82.3" y1="176.8" x2="96.3" y2="176.8" stroke="rgb(0,0,0)"  stroke-width="1.0"/>
<line x1="82.3" y1="182.8" x2="96.3" y2="182.8" stroke="rgb(0,0,0)"  stroke-width="1.0"/>
<line x1="109.3" y1="152.8" x2="109.3" y2="166.8" stroke="rgb(0,0,0)"  stroke-width="1.0"/>
<line x1="131.3" y1="355.9" x2="107.8" y2="342.4" stroke="rgb(0,0,0)"  stroke-width="1.0"/>
<line x1="134.3" y1="350.7" x2="110.8" y2="337.2" stroke="rgb(0,0,0)"  stroke-width="1.0"/>
<line x1="144.0" y1="119.8" x2="120.6" y2="133.3" stroke="rgb(0,0,0)"  stroke-width="1.0"/>
<line x1="74.7" y1="506.8" x2="74.7" y2="479.8" stroke="rgb(0,0,0)"  stroke-width="1.0"/>
<line x1="109.3" y1="219.8" x2="144.0" y2="239.8" stroke="rgb(0,0,0)"  stroke-width="1.0"/>
<line x1="144.0" y1="239.8" x2="144.0" y2="279.8" stroke="rgb(0,0,0)"  stroke-width="1.0"/>
<line x1="136.8" y1="245.8" x2="136.8" y2="273.8" stroke="rgb(0,0,0)"  stroke-width="1.0"/>
<line x1="144.0" y1="279.8" x2="109.3" y2="299.8" stroke="rgb(0,0,0)"  stroke-width="1.0"/>
<line x1="109.3" y1="299.8" x2="74.7" y2="279.8" stroke="rgb(0,0,0)"  stroke-width="1.0"/>
<line x1="107.7" y1="290.6" x2="83.5" y2="276.6" stroke="rgb(0,0,0)"  stroke-width="1.0"/>
<line x1="74.7" y1="279.8" x2="74.7" y2="239.8" stroke="rgb(0,0,0)"  stroke-width="1.0"/>
<line x1="74.7" y1="239.8" x2="109.3" y2="219.8" stroke="rgb(0,0,0)"  stroke-width="1.0"/>
<line x1="83.5" y1="243.0" x2="107.7" y2="229.0" stroke="rgb(0,0,0)"  stroke-width="1.0"/>
<line x1="74.7" y1="399.8" x2="109.3" y2="419.8" stroke="rgb(0,0,0)"  stroke-width="1.0"/>
<line x1="109.3" y1="419.8" x2="109.3" y2="459.8" stroke="rgb(0,0,0)"  stroke-width="1.0"/>
<line x1="102.1" y1="425.8" x2="102.1" y2="453.8" stroke="rgb(0,0,0)"  stroke-width="1.0"/>
<line x1="109.3" y1="459.8" x2="74.7" y2="479.8" stroke="rgb(0,0,0)"  stroke-width="1.0"/>
<line x1="74.7" y1="479.8" x2="40.0" y2="459.8" stroke="rgb(0,0,0)"  stroke-width="1.0"/>
<line x1="73.1" y1="470.6" x2="48.8" y2="456.6" stroke="rgb(0,0,0)"  stroke-width="1.0"/>
<line x1="40.0" y1="459.8" x2="40.0" y2="432.8" stroke="rgb(0,0,0)"  stroke-width="1.0"/>
<line x1="51.5" y1="413.2" x2="74.7" y2="399.8" stroke="rgb(0,0,0)"  stroke-width="1.0"/>
<line x1="56.8" y1="418.5" x2="73.1" y2="409.1" stroke="rgb(0,0,0)"  stroke-width="1.0"/>
<text x="103.293959" y="187.809812" fill="rgb(178,178,0)"  stroke="rgb(178,178,0)" stroke-width="1" font-size="16" >S</text>
<text x="56.746380" y="367.820885" fill="rgb(12,12,255)"  stroke="rgb(12,12,255)" stroke-width="1" font-size="16" >HN</text>
<text x="34.000000" y="427.824576" fill="rgb(12,12,255)"  stroke="rgb(12,12,255)" stroke-width="1" font-size="16" >N</text>
<text x="138.045188" y="48.000000" fill="rgb(102,102,102)"  stroke="rgb(102,102,102)" stroke-width="1" font-size="16" >CH</text>
<text x="143.296420" y="187.809812" fill="rgb(255,12,12)"  stroke="rgb(255,12,12)" stroke-width="1" font-size="16" >O</text>
<text x="63.291499" y="187.809812" fill="rgb(255,12,12)"  stroke="rgb(255,12,12)" stroke-width="1" font-size="16" >O</text>
<text x="91.293959" y="147.807351" fill="rgb(12,12,255)"  stroke="rgb(12,12,255)" stroke-width="1" font-size="16" >HN</text>
<text x="138.045188" y="367.820885" fill="rgb(255,12,12)"  stroke="rgb(255,12,12)" stroke-width="1" font-size="16" >O</text>
<text x="70.746380" y="527.830728" fill="rgb(102,102,102)"  stroke="rgb(102,102,102)" stroke-width="1" font-size="16" >CH</text>
<text x="94.746380" y="531.510728" fill="rgb(102,102,102)"  stroke="rgb(102,102,102)" stroke-width="1" font-size="13" >3</text>
<text font-size="18.000000" fill ="black" font-family="sans-serif"
x="10.000000" y="20.000000" ></text>
<title> - OBDepict</title>
</svg>
