<?xml version="1.0"?>
<svg xmlns="http://www.w3.org/2000/svg"
xmlns:xlink="http://www.w3.org/1999/xlink" xmlns:cml="http://www.xml-cml.org/schema" width="391.802" height="292.811" x="0" y="0" font-family="sans-serif" stroke="rgb(0,0,0)" stroke-width="1"  stroke-linecap="round">
<rect x="0%" y="0%" width="100%" height="100%" stroke-width="0" fill="rgb(255,255,255)"  />
<line x1="191.4" y1="144.1" x2="214.7" y2="157.6" stroke="rgb(0,0,0)"  stroke-width="1.0"/>
<line x1="188.4" y1="149.3" x2="211.6" y2="162.7" stroke="rgb(0,0,0)"  stroke-width="1.0"/>
<line x1="109.3" y1="100.2" x2="144.0" y2="80.2" stroke="rgb(0,0,0)"  stroke-width="1.0"/>
<line x1="144.0" y1="80.2" x2="167.4" y2="93.7" stroke="rgb(0,0,0)"  stroke-width="1.0"/>
<line x1="178.7" y1="113.2" x2="178.7" y2="127.2" stroke="rgb(0,0,0)"  stroke-width="1.0"/>
<line x1="312.3" y1="248.8" x2="272.5" y2="244.8" stroke="rgb(0,0,0)"  stroke-width="1.0"/>
<line x1="338.9" y1="251.5" x2="312.3" y2="248.8" stroke="rgb(0,0,0)"  stroke-width="1.0"/>
<line x1="338.4" y1="255.7" x2="311.9" y2="253.0" stroke="rgb(0,0,0)"  stroke-width="1.0"/>
<line x1="339.3" y1="247.3" x2="312.7" y2="244.6" stroke="rgb(0,0,0)"  stroke-width="1.0"/>
<line x1="195.0" y1="215.7" x2="215.2" y2="197.7" stroke="rgb(0,0,0)"  stroke-width="1.0"/>
<line x1="199.0" y1="220.2" x2="219.2" y2="202.2" stroke="rgb(0,0,0)"  stroke-width="1.0"/>
<line x1="272.5" y1="244.8" x2="261.6" y2="220.0" stroke="rgb(0,0,0)"  stroke-width="1.0"/>
<line x1="147.0" y1="53.2" x2="147.0" y2="80.2" stroke="rgb(0,0,0)"  stroke-width="1.0"/>
<line x1="141.0" y1="53.2" x2="141.0" y2="80.2" stroke="rgb(0,0,0)"  stroke-width="1.0"/>
<line x1="74.3" y1="53.0" x2="74.3" y2="80.0" stroke="rgb(0,0,0)"  stroke-width="1.0"/>
<line x1="309.6" y1="71.8" x2="301.1" y2="97.5" stroke="rgb(0,0,0)"  stroke-width="1.0"/>
<line x1="217.2" y1="200.0" x2="243.6" y2="205.5" stroke="rgb(0,0,0)"  stroke-width="1.0"/>
<line x1="262.8" y1="196.9" x2="276.3" y2="173.5" stroke="rgb(0,0,0)"  stroke-width="1.0"/>
<line x1="276.3" y1="173.5" x2="249.6" y2="144.0" stroke="rgb(0,0,0)"  stroke-width="1.0"/>
<line x1="266.9" y1="173.9" x2="248.3" y2="153.3" stroke="rgb(0,0,0)"  stroke-width="1.0"/>
<line x1="249.6" y1="144.0" x2="213.2" y2="160.2" stroke="rgb(0,0,0)"  stroke-width="1.0"/>
<line x1="213.2" y1="160.2" x2="217.2" y2="200.0" stroke="rgb(0,0,0)"  stroke-width="1.0"/>
<line x1="276.3" y1="173.5" x2="315.6" y2="165.5" stroke="rgb(0,0,0)"  stroke-width="1.0"/>
<line x1="315.6" y1="165.5" x2="327.8" y2="127.3" stroke="rgb(0,0,0)"  stroke-width="1.0"/>
<line x1="310.6" y1="157.6" x2="319.1" y2="130.9" stroke="rgb(0,0,0)"  stroke-width="1.0"/>
<line x1="327.8" y1="127.3" x2="301.1" y2="97.5" stroke="rgb(0,0,0)"  stroke-width="1.0"/>
<line x1="301.1" y1="97.5" x2="261.8" y2="106.0" stroke="rgb(0,0,0)"  stroke-width="1.0"/>
<line x1="296.8" y1="105.8" x2="269.2" y2="111.8" stroke="rgb(0,0,0)"  stroke-width="1.0"/>
<line x1="261.8" y1="106.0" x2="249.6" y2="144.0" stroke="rgb(0,0,0)"  stroke-width="1.0"/>
<line x1="109.3" y1="100.2" x2="74.3" y2="80.0" stroke="rgb(0,0,0)"  stroke-width="1.0"/>
<line x1="74.3" y1="80.0" x2="40.0" y2="100.2" stroke="rgb(0,0,0)"  stroke-width="1.0"/>
<line x1="72.8" y1="89.2" x2="48.8" y2="103.3" stroke="rgb(0,0,0)"  stroke-width="1.0"/>
<line x1="40.0" y1="100.2" x2="40.0" y2="140.2" stroke="rgb(0,0,0)"  stroke-width="1.0"/>
<line x1="40.0" y1="140.2" x2="74.3" y2="160.2" stroke="rgb(0,0,0)"  stroke-width="1.0"/>
<line x1="48.8" y1="137.0" x2="72.8" y2="150.9" stroke="rgb(0,0,0)"  stroke-width="1.0"/>
<line x1="74.3" y1="160.2" x2="109.3" y2="140.2" stroke="rgb(0,0,0)"  stroke-width="1.0"/>
<line x1="109.3" y1="140.2" x2="109.3" y2="100.2" stroke="rgb(0,0,0)"  stroke-width="1.0"/>
<line x1="102.1" y1="134.2" x2="102.1" y2="106.2" stroke="rgb(0,0,0)"  stroke-width="1.0"/>
<text x="250.312093" y="216.147907" fill="rgb(12,12,255)"  stroke="rgb(12,12,255)" stroke-width="1" font-size="16" >N</text>
<text x="172.653889" y="148.154546" fill="rgb(12,12,255)"  stroke="rgb(12,12,255)" stroke-width="1" font-size="16" >N</text>
<text x="172.653889" y="108.161589" fill="rgb(12,12,255)"  stroke="rgb(12,12,255)" stroke-width="1" font-size="16" >NH</text>
<text x="345.801522" y="260.810831" fill="rgb(102,102,102)"  stroke="rgb(102,102,102)" stroke-width="1" font-size="16" >CH</text>
<text x="181.319757" y="234.648347" fill="rgb(255,12,12)"  stroke="rgb(255,12,12)" stroke-width="1" font-size="16" >O</text>
<text x="137.990417" y="48.164879" fill="rgb(255,12,12)"  stroke="rgb(255,12,12)" stroke-width="1" font-size="16" >O</text>
<text x="68.328864" y="48.000000" fill="rgb(30,239,30)"  stroke="rgb(30,239,30)" stroke-width="1" font-size="16" >Cl</text>
<text x="307.641636" y="67.494566" fill="rgb(165,40,40)"  stroke="rgb(165,40,40)" stroke-width="1" font-size="16" >Br</text>
<text font-size="18.000000" fill ="black" font-family="sans-serif"
x="10.000000" y="20.000000" ></text>
<title> - OBDepict</title>
</svg>
