<?xml version="1.0"?>
<svg xmlns="http://www.w3.org/2000/svg"
xmlns:xlink="http://www.w3.org/1999/xlink" xmlns:cml="http://www.xml-cml.org/schema" width="344.429" height="279.38" x="0" y="0" font-family="sans-serif" stroke="rgb(0,0,0)" stroke-width="1"  stroke-linecap="round">
<rect x="0%" y="0%" width="100%" height="100%" stroke-width="0" fill="rgb(255,255,255)"  />
<line x1="235.2" y1="119.5" x2="211.8" y2="106.0" stroke="rgb(0,0,0)"  stroke-width="1.0"/>
<line x1="189.3" y1="106.0" x2="165.9" y2="119.5" stroke="rgb(0,0,0)"  stroke-width="1.0"/>
<line x1="68.6" y1="91.5" x2="96.6" y2="119.5" stroke="rgb(0,0,0)"  stroke-width="1.0"/>
<line x1="142.5" y1="106.0" x2="165.9" y2="119.5" stroke="rgb(0,0,0)"  stroke-width="1.0"/>
<line x1="49.2" y1="72.1" x2="68.6" y2="91.5" stroke="rgb(0,0,0)"  stroke-width="1.0"/>
<line x1="52.2" y1="69.1" x2="71.6" y2="88.5" stroke="rgb(0,0,0)"  stroke-width="1.0"/>
<line x1="46.2" y1="75.0" x2="65.7" y2="94.5" stroke="rgb(0,0,0)"  stroke-width="1.0"/>
<line x1="96.6" y1="119.5" x2="120.0" y2="106.0" stroke="rgb(0,0,0)"  stroke-width="1.0"/>
<line x1="162.9" y1="146.5" x2="162.9" y2="119.5" stroke="rgb(0,0,0)"  stroke-width="1.0"/>
<line x1="168.9" y1="146.5" x2="168.9" y2="119.5" stroke="rgb(0,0,0)"  stroke-width="1.0"/>
<line x1="269.8" y1="72.5" x2="269.8" y2="99.5" stroke="rgb(0,0,0)"  stroke-width="1.0"/>
<line x1="269.8" y1="206.4" x2="269.8" y2="179.4" stroke="rgb(0,0,0)"  stroke-width="1.0"/>
<line x1="66.0" y1="145.5" x2="96.6" y2="119.5" stroke="rgb(0,0,0)"  stroke-width="1.0"/>
<line x1="119.7" y1="152.6" x2="96.6" y2="119.5" stroke="rgb(0,0,0)"  stroke-width="1.0"/>
<line x1="293.1" y1="46.4" x2="281.1" y2="53.2" stroke="rgb(0,0,0)"  stroke-width="1.0"/>
<line x1="293.2" y1="232.9" x2="281.1" y2="225.9" stroke="rgb(0,0,0)"  stroke-width="1.0"/>
<line x1="108.2" y1="177.0" x2="119.7" y2="152.6" stroke="rgb(0,0,0)"  stroke-width="1.0"/>
<line x1="70.8" y1="172.0" x2="66.0" y2="145.5" stroke="rgb(0,0,0)"  stroke-width="1.0"/>
<line x1="235.2" y1="119.5" x2="235.2" y2="159.5" stroke="rgb(0,0,0)"  stroke-width="1.0"/>
<line x1="235.2" y1="159.5" x2="269.8" y2="179.4" stroke="rgb(0,0,0)"  stroke-width="1.0"/>
<line x1="244.0" y1="156.2" x2="268.2" y2="170.2" stroke="rgb(0,0,0)"  stroke-width="1.0"/>
<line x1="269.8" y1="179.4" x2="304.4" y2="159.5" stroke="rgb(0,0,0)"  stroke-width="1.0"/>
<line x1="304.4" y1="159.5" x2="304.4" y2="119.5" stroke="rgb(0,0,0)"  stroke-width="1.0"/>
<line x1="297.2" y1="153.5" x2="297.2" y2="125.5" stroke="rgb(0,0,0)"  stroke-width="1.0"/>
<line x1="304.4" y1="119.5" x2="269.8" y2="99.5" stroke="rgb(0,0,0)"  stroke-width="1.0"/>
<line x1="269.8" y1="99.5" x2="235.2" y2="119.5" stroke="rgb(0,0,0)"  stroke-width="1.0"/>
<line x1="268.2" y1="108.7" x2="244.0" y2="122.7" stroke="rgb(0,0,0)"  stroke-width="1.0"/>
<text x="194.522679" y="107.504723" fill="rgb(12,12,255)"  stroke="rgb(12,12,255)" stroke-width="1" font-size="16" >N</text>
<text x="194.522679" y="91.504723" fill="rgb(12,12,255)"  stroke="rgb(12,12,255)" stroke-width="1" font-size="16" >H</text>
<text x="125.251562" y="107.504723" fill="rgb(12,12,255)"  stroke="rgb(12,12,255)" stroke-width="1" font-size="16" >N</text>
<text x="125.251562" y="91.504723" fill="rgb(12,12,255)"  stroke="rgb(12,12,255)" stroke-width="1" font-size="16" >H</text>
<text x="22.000000" y="70.872264" fill="rgb(102,102,102)"  stroke="rgb(102,102,102)" stroke-width="1" font-size="16" >HC</text>
<text x="159.887120" y="167.450509" fill="rgb(255,12,12)"  stroke="rgb(255,12,12)" stroke-width="1" font-size="16" >O</text>
<text x="263.793796" y="67.537635" fill="rgb(255,12,12)"  stroke="rgb(255,12,12)" stroke-width="1" font-size="16" >O</text>
<text x="263.793796" y="227.396295" fill="rgb(255,12,12)"  stroke="rgb(255,12,12)" stroke-width="1" font-size="16" >O</text>
<text x="300.429354" y="48.000000" fill="rgb(102,102,102)"  stroke="rgb(102,102,102)" stroke-width="1" font-size="16" >CH</text>
<text x="324.429354" y="51.680000" fill="rgb(102,102,102)"  stroke="rgb(102,102,102)" stroke-width="1" font-size="13" >3</text>
<text x="300.429354" y="247.379840" fill="rgb(102,102,102)"  stroke="rgb(102,102,102)" stroke-width="1" font-size="16" >CH</text>
<text x="324.429354" y="251.059840" fill="rgb(102,102,102)"  stroke="rgb(102,102,102)" stroke-width="1" font-size="13" >3</text>
<text x="76.611551" y="196.759385" fill="rgb(102,102,102)"  stroke="rgb(102,102,102)" stroke-width="1" font-size="16" >H</text>
<text x="88.611551" y="200.439385" fill="rgb(102,102,102)"  stroke="rgb(102,102,102)" stroke-width="1" font-size="13" >3</text>
<text x="95.111551" y="196.759385" fill="rgb(102,102,102)"  stroke="rgb(102,102,102)" stroke-width="1" font-size="16" >C</text>
<text x="69.079721" y="192.760737" fill="rgb(102,102,102)"  stroke="rgb(102,102,102)" stroke-width="1" font-size="16" >CH</text>
<text x="93.079721" y="196.440737" fill="rgb(102,102,102)"  stroke="rgb(102,102,102)" stroke-width="1" font-size="13" >3</text>
<text font-size="18.000000" fill ="black" font-family="sans-serif"
x="10.000000" y="20.000000" ></text>
<title> - OBDepict</title>
</svg>
