<?xml version="1.0"?>
<svg xmlns="http://www.w3.org/2000/svg"
xmlns:xlink="http://www.w3.org/1999/xlink" xmlns:cml="http://www.xml-cml.org/schema" width="389.956" height="457.442" x="0" y="0" font-family="sans-serif" stroke="rgb(0,0,0)" stroke-width="1"  stroke-linecap="round">
<rect x="0%" y="0%" width="100%" height="100%" stroke-width="0" fill="rgb(255,255,255)"  />
<line x1="257.2" y1="387.7" x2="283.9" y2="358.0" stroke="rgb(0,0,0)"  stroke-width="1.0"/>
<line x1="298.4" y1="290.1" x2="290.1" y2="264.5" stroke="rgb(0,0,0)"  stroke-width="1.0"/>
<line x1="144.1" y1="179.8" x2="167.4" y2="193.3" stroke="rgb(0,0,0)"  stroke-width="1.0"/>
<line x1="74.8" y1="59.8" x2="109.3" y2="79.8" stroke="rgb(0,0,0)"  stroke-width="1.0"/>
<line x1="51.3" y1="46.4" x2="74.8" y2="59.8" stroke="rgb(0,0,0)"  stroke-width="1.0"/>
<line x1="53.4" y1="42.8" x2="76.8" y2="56.2" stroke="rgb(0,0,0)"  stroke-width="1.0"/>
<line x1="49.2" y1="50.1" x2="72.7" y2="63.5" stroke="rgb(0,0,0)"  stroke-width="1.0"/>
<line x1="144.1" y1="139.8" x2="144.1" y2="179.8" stroke="rgb(0,0,0)"  stroke-width="1.0"/>
<line x1="216.4" y1="152.8" x2="216.4" y2="179.8" stroke="rgb(0,0,0)"  stroke-width="1.0"/>
<line x1="210.4" y1="152.8" x2="210.4" y2="179.8" stroke="rgb(0,0,0)"  stroke-width="1.0"/>
<line x1="168.9" y1="128.9" x2="145.6" y2="142.4" stroke="rgb(0,0,0)"  stroke-width="1.0"/>
<line x1="165.9" y1="123.7" x2="142.6" y2="137.2" stroke="rgb(0,0,0)"  stroke-width="1.0"/>
<line x1="277.3" y1="405.9" x2="257.2" y2="387.7" stroke="rgb(0,0,0)"  stroke-width="1.0"/>
<line x1="237.2" y1="369.8" x2="257.2" y2="387.7" stroke="rgb(0,0,0)"  stroke-width="1.0"/>
<line x1="239.2" y1="407.8" x2="257.2" y2="387.7" stroke="rgb(0,0,0)"  stroke-width="1.0"/>
<line x1="120.6" y1="126.3" x2="144.1" y2="139.8" stroke="rgb(0,0,0)"  stroke-width="1.0"/>
<line x1="109.3" y1="79.8" x2="109.3" y2="106.8" stroke="rgb(0,0,0)"  stroke-width="1.0"/>
<line x1="247.9" y1="239.8" x2="247.9" y2="199.8" stroke="rgb(0,0,0)"  stroke-width="1.0"/>
<line x1="255.1" y1="233.8" x2="255.1" y2="205.8" stroke="rgb(0,0,0)"  stroke-width="1.0"/>
<line x1="247.9" y1="199.8" x2="286.1" y2="187.5" stroke="rgb(0,0,0)"  stroke-width="1.0"/>
<line x1="286.1" y1="187.5" x2="301.8" y2="209.2" stroke="rgb(0,0,0)"  stroke-width="1.0"/>
<line x1="283.8" y1="196.6" x2="294.8" y2="211.8" stroke="rgb(0,0,0)"  stroke-width="1.0"/>
<line x1="301.9" y1="230.4" x2="293.7" y2="241.6" stroke="rgb(0,0,0)"  stroke-width="1.0"/>
<line x1="273.7" y1="248.2" x2="247.9" y2="239.8" stroke="rgb(0,0,0)"  stroke-width="1.0"/>
<line x1="247.9" y1="239.8" x2="224.6" y2="253.3" stroke="rgb(0,0,0)"  stroke-width="1.0"/>
<line x1="201.9" y1="253.2" x2="178.6" y2="239.8" stroke="rgb(0,0,0)"  stroke-width="1.0"/>
<line x1="203.8" y1="246.0" x2="187.4" y2="236.6" stroke="rgb(0,0,0)"  stroke-width="1.0"/>
<line x1="178.6" y1="239.8" x2="178.6" y2="212.8" stroke="rgb(0,0,0)"  stroke-width="1.0"/>
<line x1="189.9" y1="193.3" x2="213.4" y2="179.8" stroke="rgb(0,0,0)"  stroke-width="1.0"/>
<line x1="213.4" y1="179.8" x2="247.9" y2="199.8" stroke="rgb(0,0,0)"  stroke-width="1.0"/>
<line x1="298.4" y1="290.1" x2="337.4" y2="298.6" stroke="rgb(0,0,0)"  stroke-width="1.0"/>
<line x1="302.8" y1="298.5" x2="330.0" y2="304.4" stroke="rgb(0,0,0)"  stroke-width="1.0"/>
<line x1="337.4" y1="298.6" x2="350.0" y2="336.6" stroke="rgb(0,0,0)"  stroke-width="1.0"/>
<line x1="350.0" y1="336.6" x2="323.1" y2="366.3" stroke="rgb(0,0,0)"  stroke-width="1.0"/>
<line x1="340.6" y1="336.2" x2="321.8" y2="357.0" stroke="rgb(0,0,0)"  stroke-width="1.0"/>
<line x1="323.1" y1="366.3" x2="283.9" y2="358.0" stroke="rgb(0,0,0)"  stroke-width="1.0"/>
<line x1="283.9" y1="358.0" x2="271.6" y2="320.1" stroke="rgb(0,0,0)"  stroke-width="1.0"/>
<line x1="288.9" y1="350.1" x2="280.3" y2="323.5" stroke="rgb(0,0,0)"  stroke-width="1.0"/>
<line x1="271.6" y1="320.1" x2="298.4" y2="290.1" stroke="rgb(0,0,0)"  stroke-width="1.0"/>
<text x="280.102346" y="260.163214" fill="rgb(12,12,255)"  stroke="rgb(12,12,255)" stroke-width="1" font-size="16" >N</text>
<text x="207.365937" y="267.838306" fill="rgb(12,12,255)"  stroke="rgb(12,12,255)" stroke-width="1" font-size="16" >N</text>
<text x="172.612265" y="207.829071" fill="rgb(12,12,255)"  stroke="rgb(12,12,255)" stroke-width="1" font-size="16" >N</text>
<text x="303.544590" y="227.828917" fill="rgb(12,12,255)"  stroke="rgb(12,12,255)" stroke-width="1" font-size="16" >N</text>
<text x="22.000000" y="48.000000" fill="rgb(102,102,102)"  stroke="rgb(102,102,102)" stroke-width="1" font-size="16" >HC</text>
<text x="207.365937" y="147.814988" fill="rgb(255,12,12)"  stroke="rgb(255,12,12)" stroke-width="1" font-size="16" >O</text>
<text x="172.612265" y="127.810294" fill="rgb(255,12,12)"  stroke="rgb(255,12,12)" stroke-width="1" font-size="16" >O</text>
<text x="280.912037" y="422.615295" fill="rgb(127,178,255)"  stroke="rgb(127,178,255)" stroke-width="1" font-size="16" >F</text>
<text x="221.508858" y="369.069041" fill="rgb(127,178,255)"  stroke="rgb(127,178,255)" stroke-width="1" font-size="16" >F</text>
<text x="224.539138" y="425.441940" fill="rgb(127,178,255)"  stroke="rgb(127,178,255)" stroke-width="1" font-size="16" >F</text>
<text x="91.308557" y="127.810294" fill="rgb(12,12,255)"  stroke="rgb(12,12,255)" stroke-width="1" font-size="16" >HN</text>
<text font-size="18.000000" fill ="black" font-family="sans-serif"
x="10.000000" y="20.000000" ></text>
<title> - OBDepict</title>
</svg>
