<?xml version="1.0"?>
<svg xmlns="http://www.w3.org/2000/svg"
xmlns:xlink="http://www.w3.org/1999/xlink" xmlns:cml="http://www.xml-cml.org/schema" width="487.796" height="279.959" x="0" y="0" font-family="sans-serif" stroke="rgb(0,0,0)" stroke-width="1"  stroke-linecap="round">
<rect x="0%" y="0%" width="100%" height="100%" stroke-width="0" fill="rgb(255,255,255)"  />
<line x1="170.9" y1="180.0" x2="205.4" y2="200.0" stroke="rgb(0,0,0)"  stroke-width="1.0"/>
<line x1="413.3" y1="53.0" x2="413.3" y2="80.0" stroke="rgb(0,0,0)"  stroke-width="1.0"/>
<line x1="417.5" y1="53.0" x2="417.5" y2="80.0" stroke="rgb(0,0,0)"  stroke-width="1.0"/>
<line x1="409.1" y1="53.0" x2="409.1" y2="80.0" stroke="rgb(0,0,0)"  stroke-width="1.0"/>
<line x1="309.4" y1="180.0" x2="332.7" y2="193.5" stroke="rgb(0,0,0)"  stroke-width="1.0"/>
<line x1="205.4" y1="200.0" x2="240.2" y2="180.0" stroke="rgb(0,0,0)"  stroke-width="1.0"/>
<line x1="355.2" y1="193.5" x2="378.5" y2="180.0" stroke="rgb(0,0,0)"  stroke-width="1.0"/>
<line x1="312.4" y1="153.0" x2="312.4" y2="180.0" stroke="rgb(0,0,0)"  stroke-width="1.0"/>
<line x1="306.4" y1="153.0" x2="306.4" y2="180.0" stroke="rgb(0,0,0)"  stroke-width="1.0"/>
<line x1="202.4" y1="227.0" x2="202.4" y2="200.0" stroke="rgb(0,0,0)"  stroke-width="1.0"/>
<line x1="208.4" y1="227.0" x2="208.4" y2="200.0" stroke="rgb(0,0,0)"  stroke-width="1.0"/>
<line x1="240.2" y1="180.0" x2="274.7" y2="200.0" stroke="rgb(0,0,0)"  stroke-width="1.0"/>
<line x1="413.3" y1="120.0" x2="413.3" y2="80.0" stroke="rgb(0,0,0)"  stroke-width="1.0"/>
<line x1="274.7" y1="200.0" x2="309.4" y2="180.0" stroke="rgb(0,0,0)"  stroke-width="1.0"/>
<line x1="40.0" y1="160.0" x2="63.4" y2="127.7" stroke="rgb(0,0,0)"  stroke-width="1.0"/>
<line x1="63.4" y1="127.7" x2="101.6" y2="140.0" stroke="rgb(0,0,0)"  stroke-width="1.0"/>
<line x1="101.6" y1="140.0" x2="101.6" y2="180.0" stroke="rgb(0,0,0)"  stroke-width="1.0"/>
<line x1="94.4" y1="146.0" x2="94.4" y2="174.0" stroke="rgb(0,0,0)"  stroke-width="1.0"/>
<line x1="101.6" y1="180.0" x2="63.4" y2="192.5" stroke="rgb(0,0,0)"  stroke-width="1.0"/>
<line x1="63.4" y1="192.5" x2="40.0" y2="160.0" stroke="rgb(0,0,0)"  stroke-width="1.0"/>
<line x1="378.5" y1="180.0" x2="378.5" y2="140.0" stroke="rgb(0,0,0)"  stroke-width="1.0"/>
<line x1="385.7" y1="174.0" x2="385.7" y2="146.0" stroke="rgb(0,0,0)"  stroke-width="1.0"/>
<line x1="378.5" y1="140.0" x2="413.3" y2="120.0" stroke="rgb(0,0,0)"  stroke-width="1.0"/>
<line x1="413.3" y1="120.0" x2="447.8" y2="140.0" stroke="rgb(0,0,0)"  stroke-width="1.0"/>
<line x1="414.8" y1="129.2" x2="439.0" y2="143.2" stroke="rgb(0,0,0)"  stroke-width="1.0"/>
<line x1="447.8" y1="140.0" x2="447.8" y2="180.0" stroke="rgb(0,0,0)"  stroke-width="1.0"/>
<line x1="447.8" y1="180.0" x2="413.3" y2="200.0" stroke="rgb(0,0,0)"  stroke-width="1.0"/>
<line x1="439.0" y1="176.7" x2="414.8" y2="190.7" stroke="rgb(0,0,0)"  stroke-width="1.0"/>
<line x1="413.3" y1="200.0" x2="378.5" y2="180.0" stroke="rgb(0,0,0)"  stroke-width="1.0"/>
<line x1="170.9" y1="180.0" x2="136.1" y2="200.0" stroke="rgb(0,0,0)"  stroke-width="1.0"/>
<line x1="162.1" y1="176.7" x2="137.7" y2="190.7" stroke="rgb(0,0,0)"  stroke-width="1.0"/>
<line x1="136.1" y1="200.0" x2="101.6" y2="180.0" stroke="rgb(0,0,0)"  stroke-width="1.0"/>
<line x1="101.6" y1="140.0" x2="136.1" y2="120.0" stroke="rgb(0,0,0)"  stroke-width="1.0"/>
<line x1="136.1" y1="120.0" x2="170.9" y2="140.0" stroke="rgb(0,0,0)"  stroke-width="1.0"/>
<line x1="137.7" y1="129.2" x2="162.1" y2="143.2" stroke="rgb(0,0,0)"  stroke-width="1.0"/>
<line x1="170.9" y1="140.0" x2="170.9" y2="180.0" stroke="rgb(0,0,0)"  stroke-width="1.0"/>
<text x="407.257460" y="48.000000" fill="rgb(102,102,102)"  stroke="rgb(102,102,102)" stroke-width="1" font-size="16" >CH</text>
<text x="337.976997" y="207.967483" fill="rgb(12,12,255)"  stroke="rgb(12,12,255)" stroke-width="1" font-size="16" >N</text>
<text x="337.976997" y="223.967483" fill="rgb(12,12,255)"  stroke="rgb(12,12,255)" stroke-width="1" font-size="16" >H</text>
<text x="303.438563" y="147.979677" fill="rgb(255,12,12)"  stroke="rgb(255,12,12)" stroke-width="1" font-size="16" >O</text>
<text x="199.420920" y="247.959353" fill="rgb(255,12,12)"  stroke="rgb(255,12,12)" stroke-width="1" font-size="16" >O</text>
<text font-size="18.000000" fill ="black" font-family="sans-serif"
x="10.000000" y="20.000000" ></text>
<title> - OBDepict</title>
</svg>
