<?xml version="1.0"?>
<svg xmlns="http://www.w3.org/2000/svg"
xmlns:xlink="http://www.w3.org/1999/xlink" xmlns:cml="http://www.xml-cml.org/schema" width="543.714" height="359.769" x="0" y="0" font-family="sans-serif" stroke="rgb(0,0,0)" stroke-width="1"  stroke-linecap="round">
<rect x="0%" y="0%" width="100%" height="100%" stroke-width="0" fill="rgb(255,255,255)"  />
<line x1="423.3" y1="95.6" x2="397.4" y2="103.8" stroke="rgb(0,0,0)"  stroke-width="1.0"/>
<line x1="263.2" y1="186.5" x2="237.2" y2="195.0" stroke="rgb(0,0,0)"  stroke-width="1.0"/>
<line x1="261.3" y1="180.8" x2="235.4" y2="189.3" stroke="rgb(0,0,0)"  stroke-width="1.0"/>
<line x1="283.1" y1="140.7" x2="277.4" y2="166.9" stroke="rgb(0,0,0)"  stroke-width="1.0"/>
<line x1="461.5" y1="83.4" x2="448.0" y2="87.7" stroke="rgb(0,0,0)"  stroke-width="1.0"/>
<line x1="286.7" y1="258.6" x2="247.2" y2="262.6" stroke="rgb(0,0,0)"  stroke-width="1.0"/>
<line x1="430.3" y1="64.9" x2="434.6" y2="78.4" stroke="rgb(0,0,0)"  stroke-width="1.0"/>
<line x1="424.6" y1="66.7" x2="428.9" y2="80.2" stroke="rgb(0,0,0)"  stroke-width="1.0"/>
<line x1="440.9" y1="117.7" x2="436.8" y2="104.9" stroke="rgb(0,0,0)"  stroke-width="1.0"/>
<line x1="446.6" y1="115.8" x2="442.5" y2="103.1" stroke="rgb(0,0,0)"  stroke-width="1.0"/>
<line x1="298.1" y1="233.9" x2="286.7" y2="258.6" stroke="rgb(0,0,0)"  stroke-width="1.0"/>
<line x1="301.9" y1="235.7" x2="290.6" y2="260.3" stroke="rgb(0,0,0)"  stroke-width="1.0"/>
<line x1="294.3" y1="232.2" x2="282.9" y2="256.8" stroke="rgb(0,0,0)"  stroke-width="1.0"/>
<line x1="320.8" y1="128.3" x2="283.1" y2="140.7" stroke="rgb(0,0,0)"  stroke-width="1.0"/>
<line x1="265.0" y1="120.2" x2="285.1" y2="138.5" stroke="rgb(0,0,0)"  stroke-width="1.0"/>
<line x1="260.9" y1="124.7" x2="281.1" y2="142.9" stroke="rgb(0,0,0)"  stroke-width="1.0"/>
<line x1="247.2" y1="262.6" x2="231.6" y2="241.0" stroke="rgb(0,0,0)"  stroke-width="1.0"/>
<line x1="100.3" y1="272.0" x2="118.4" y2="251.7" stroke="rgb(0,0,0)"  stroke-width="1.0"/>
<line x1="79.4" y1="207.9" x2="105.6" y2="213.6" stroke="rgb(0,0,0)"  stroke-width="1.0"/>
<line x1="494.0" y1="97.2" x2="483.7" y2="88.1" stroke="rgb(0,0,0)"  stroke-width="1.0"/>
<line x1="479.7" y1="52.7" x2="476.7" y2="66.8" stroke="rgb(0,0,0)"  stroke-width="1.0"/>
<line x1="99.9" y1="307.4" x2="95.6" y2="294.1" stroke="rgb(0,0,0)"  stroke-width="1.0"/>
<line x1="48.7" y1="225.2" x2="58.1" y2="214.8" stroke="rgb(0,0,0)"  stroke-width="1.0"/>
<line x1="236.3" y1="192.1" x2="214.4" y2="176.3" stroke="rgb(0,0,0)"  stroke-width="1.0"/>
<line x1="193.4" y1="176.3" x2="171.7" y2="192.3" stroke="rgb(0,0,0)"  stroke-width="1.0"/>
<line x1="171.7" y1="192.3" x2="183.8" y2="230.4" stroke="rgb(0,0,0)"  stroke-width="1.0"/>
<line x1="180.4" y1="195.9" x2="188.9" y2="222.5" stroke="rgb(0,0,0)"  stroke-width="1.0"/>
<line x1="183.8" y1="230.4" x2="210.9" y2="230.4" stroke="rgb(0,0,0)"  stroke-width="1.0"/>
<line x1="227.9" y1="218.1" x2="236.3" y2="192.1" stroke="rgb(0,0,0)"  stroke-width="1.0"/>
<line x1="320.8" y1="128.3" x2="329.3" y2="89.2" stroke="rgb(0,0,0)"  stroke-width="1.0"/>
<line x1="329.3" y1="89.2" x2="367.4" y2="77.1" stroke="rgb(0,0,0)"  stroke-width="1.0"/>
<line x1="337.2" y1="94.3" x2="363.8" y2="85.8" stroke="rgb(0,0,0)"  stroke-width="1.0"/>
<line x1="367.4" y1="77.1" x2="397.4" y2="103.8" stroke="rgb(0,0,0)"  stroke-width="1.0"/>
<line x1="397.4" y1="103.8" x2="388.9" y2="142.5" stroke="rgb(0,0,0)"  stroke-width="1.0"/>
<line x1="389.0" y1="108.1" x2="383.1" y2="135.1" stroke="rgb(0,0,0)"  stroke-width="1.0"/>
<line x1="388.9" y1="142.5" x2="350.6" y2="155.3" stroke="rgb(0,0,0)"  stroke-width="1.0"/>
<line x1="350.6" y1="155.3" x2="320.8" y2="128.3" stroke="rgb(0,0,0)"  stroke-width="1.0"/>
<line x1="350.9" y1="145.9" x2="330.1" y2="127.0" stroke="rgb(0,0,0)"  stroke-width="1.0"/>
<line x1="157.3" y1="259.8" x2="118.4" y2="251.7" stroke="rgb(0,0,0)"  stroke-width="1.0"/>
<line x1="152.9" y1="251.5" x2="125.7" y2="245.9" stroke="rgb(0,0,0)"  stroke-width="1.0"/>
<line x1="118.4" y1="251.7" x2="105.6" y2="213.6" stroke="rgb(0,0,0)"  stroke-width="1.0"/>
<line x1="105.6" y1="213.6" x2="132.4" y2="183.8" stroke="rgb(0,0,0)"  stroke-width="1.0"/>
<line x1="115.0" y1="214.0" x2="133.7" y2="193.1" stroke="rgb(0,0,0)"  stroke-width="1.0"/>
<line x1="132.4" y1="183.8" x2="171.7" y2="192.3" stroke="rgb(0,0,0)"  stroke-width="1.0"/>
<line x1="183.8" y1="230.4" x2="157.3" y2="259.8" stroke="rgb(0,0,0)"  stroke-width="1.0"/>
<text x="429.646870" y="99.656942" fill="rgb(178,178,0)"  stroke="rgb(178,178,0)" stroke-width="1" font-size="16" >S</text>
<text x="268.593049" y="187.583859" fill="rgb(12,12,255)"  stroke="rgb(12,12,255)" stroke-width="1" font-size="16" >N</text>
<text x="217.945089" y="238.430705" fill="rgb(12,12,255)"  stroke="rgb(12,12,255)" stroke-width="1" font-size="16" >N</text>
<text x="197.886730" y="176.645141" fill="rgb(178,178,0)"  stroke="rgb(178,178,0)" stroke-width="1" font-size="16" >S</text>
<text x="467.934808" y="87.505506" fill="rgb(12,12,255)"  stroke="rgb(12,12,255)" stroke-width="1" font-size="16" >N</text>
<text x="417.490584" y="61.369005" fill="rgb(255,12,12)"  stroke="rgb(255,12,12)" stroke-width="1" font-size="16" >O</text>
<text x="441.798306" y="137.139635" fill="rgb(255,12,12)"  stroke="rgb(255,12,12)" stroke-width="1" font-size="16" >O</text>
<text x="297.557610" y="230.126011" fill="rgb(102,102,102)"  stroke="rgb(102,102,102)" stroke-width="1" font-size="16" >CH</text>
<text x="247.321973" y="121.742965" fill="rgb(255,12,12)"  stroke="rgb(255,12,12)" stroke-width="1" font-size="16" >O</text>
<text x="85.656942" y="289.685025" fill="rgb(255,12,12)"  stroke="rgb(255,12,12)" stroke-width="1" font-size="16" >O</text>
<text x="60.738010" y="213.109150" fill="rgb(255,12,12)"  stroke="rgb(255,12,12)" stroke-width="1" font-size="16" >O</text>
<text x="499.714314" y="113.840894" fill="rgb(102,102,102)"  stroke="rgb(102,102,102)" stroke-width="1" font-size="16" >CH</text>
<text x="523.714314" y="117.520894" fill="rgb(102,102,102)"  stroke="rgb(102,102,102)" stroke-width="1" font-size="13" >3</text>
<text x="478.443238" y="48.000000" fill="rgb(102,102,102)"  stroke="rgb(102,102,102)" stroke-width="1" font-size="16" >CH</text>
<text x="502.443238" y="51.680000" fill="rgb(102,102,102)"  stroke="rgb(102,102,102)" stroke-width="1" font-size="13" >3</text>
<text x="99.813229" y="327.769226" fill="rgb(102,102,102)"  stroke="rgb(102,102,102)" stroke-width="1" font-size="16" >CH</text>
<text x="123.813229" y="331.449226" fill="rgb(102,102,102)"  stroke="rgb(102,102,102)" stroke-width="1" font-size="13" >3</text>
<text x="14.000000" y="242.888657" fill="rgb(102,102,102)"  stroke="rgb(102,102,102)" stroke-width="1" font-size="16" >H</text>
<text x="26.000000" y="246.568657" fill="rgb(102,102,102)"  stroke="rgb(102,102,102)" stroke-width="1" font-size="13" >3</text>
<text x="32.500000" y="242.888657" fill="rgb(102,102,102)"  stroke="rgb(102,102,102)" stroke-width="1" font-size="16" >C</text>
<text font-size="18.000000" fill ="black" font-family="sans-serif"
x="10.000000" y="20.000000" ></text>
<title> - OBDepict</title>
</svg>
