<?xml version="1.0"?>
<svg xmlns="http://www.w3.org/2000/svg"
xmlns:xlink="http://www.w3.org/1999/xlink" xmlns:cml="http://www.xml-cml.org/schema" width="449.809" height="408.981" x="0" y="0" font-family="sans-serif" stroke="rgb(0,0,0)" stroke-width="1"  stroke-linecap="round">
<rect x="0%" y="0%" width="100%" height="100%" stroke-width="0" fill="rgb(255,255,255)"  />
<line x1="321.9" y1="288.5" x2="283.6" y2="301.2" stroke="rgb(0,0,0)"  stroke-width="1.0"/>
<line x1="320.0" y1="282.8" x2="281.7" y2="295.5" stroke="rgb(0,0,0)"  stroke-width="1.0"/>
<line x1="179.8" y1="285.7" x2="205.7" y2="294.2" stroke="rgb(0,0,0)"  stroke-width="1.0"/>
<line x1="171.3" y1="246.8" x2="179.8" y2="285.7" stroke="rgb(0,0,0)"  stroke-width="1.0"/>
<line x1="401.0" y1="78.7" x2="392.1" y2="117.7" stroke="rgb(0,0,0)"  stroke-width="1.0"/>
<line x1="406.9" y1="52.7" x2="401.0" y2="78.7" stroke="rgb(0,0,0)"  stroke-width="1.0"/>
<line x1="411.0" y1="53.6" x2="405.1" y2="79.6" stroke="rgb(0,0,0)"  stroke-width="1.0"/>
<line x1="402.8" y1="51.7" x2="396.9" y2="77.7" stroke="rgb(0,0,0)"  stroke-width="1.0"/>
<line x1="211.9" y1="356.7" x2="227.7" y2="334.9" stroke="rgb(0,0,0)"  stroke-width="1.0"/>
<line x1="216.7" y1="360.2" x2="232.6" y2="338.4" stroke="rgb(0,0,0)"  stroke-width="1.0"/>
<line x1="145.9" y1="238.5" x2="171.3" y2="246.8" stroke="rgb(0,0,0)"  stroke-width="1.0"/>
<line x1="253.3" y1="247.7" x2="253.3" y2="274.8" stroke="rgb(0,0,0)"  stroke-width="1.0"/>
<line x1="247.3" y1="247.7" x2="247.3" y2="274.8" stroke="rgb(0,0,0)"  stroke-width="1.0"/>
<line x1="329.3" y1="246.8" x2="321.0" y2="285.7" stroke="rgb(0,0,0)"  stroke-width="1.0"/>
<line x1="193.5" y1="230.8" x2="173.3" y2="249.0" stroke="rgb(0,0,0)"  stroke-width="1.0"/>
<line x1="189.5" y1="226.3" x2="169.3" y2="244.6" stroke="rgb(0,0,0)"  stroke-width="1.0"/>
<line x1="125.0" y1="195.2" x2="130.7" y2="221.8" stroke="rgb(0,0,0)"  stroke-width="1.0"/>
<line x1="288.4" y1="163.1" x2="307.7" y2="180.8" stroke="rgb(0,0,0)"  stroke-width="1.0"/>
<line x1="351.6" y1="142.5" x2="345.7" y2="169.0" stroke="rgb(0,0,0)"  stroke-width="1.0"/>
<line x1="392.1" y1="117.7" x2="366.9" y2="125.8" stroke="rgb(0,0,0)"  stroke-width="1.0"/>
<line x1="52.4" y1="135.8" x2="78.3" y2="144.0" stroke="rgb(0,0,0)"  stroke-width="1.0"/>
<line x1="253.1" y1="162.4" x2="266.4" y2="158.2" stroke="rgb(0,0,0)"  stroke-width="1.0"/>
<line x1="221.9" y1="310.7" x2="230.2" y2="336.6" stroke="rgb(0,0,0)"  stroke-width="1.0"/>
<line x1="230.2" y1="336.6" x2="257.3" y2="336.6" stroke="rgb(0,0,0)"  stroke-width="1.0"/>
<line x1="274.3" y1="324.3" x2="282.7" y2="298.3" stroke="rgb(0,0,0)"  stroke-width="1.0"/>
<line x1="282.7" y1="298.3" x2="250.3" y2="274.8" stroke="rgb(0,0,0)"  stroke-width="1.0"/>
<line x1="250.3" y1="274.8" x2="228.5" y2="290.7" stroke="rgb(0,0,0)"  stroke-width="1.0"/>
<line x1="307.7" y1="180.8" x2="345.7" y2="169.0" stroke="rgb(0,0,0)"  stroke-width="1.0"/>
<line x1="315.5" y1="185.9" x2="342.1" y2="177.7" stroke="rgb(0,0,0)"  stroke-width="1.0"/>
<line x1="345.7" y1="169.0" x2="375.1" y2="195.5" stroke="rgb(0,0,0)"  stroke-width="1.0"/>
<line x1="375.1" y1="195.5" x2="366.6" y2="234.7" stroke="rgb(0,0,0)"  stroke-width="1.0"/>
<line x1="366.8" y1="199.8" x2="360.9" y2="227.3" stroke="rgb(0,0,0)"  stroke-width="1.0"/>
<line x1="366.6" y1="234.7" x2="329.3" y2="246.8" stroke="rgb(0,0,0)"  stroke-width="1.0"/>
<line x1="329.3" y1="246.8" x2="299.5" y2="220.0" stroke="rgb(0,0,0)"  stroke-width="1.0"/>
<line x1="329.7" y1="237.5" x2="308.8" y2="218.6" stroke="rgb(0,0,0)"  stroke-width="1.0"/>
<line x1="299.5" y1="220.0" x2="307.7" y2="180.8" stroke="rgb(0,0,0)"  stroke-width="1.0"/>
<line x1="125.0" y1="195.2" x2="86.8" y2="183.0" stroke="rgb(0,0,0)"  stroke-width="1.0"/>
<line x1="86.8" y1="183.0" x2="78.3" y2="144.0" stroke="rgb(0,0,0)"  stroke-width="1.0"/>
<line x1="92.6" y1="175.6" x2="86.6" y2="148.3" stroke="rgb(0,0,0)"  stroke-width="1.0"/>
<line x1="78.3" y1="144.0" x2="108.2" y2="116.7" stroke="rgb(0,0,0)"  stroke-width="1.0"/>
<line x1="108.2" y1="116.7" x2="146.5" y2="128.8" stroke="rgb(0,0,0)"  stroke-width="1.0"/>
<line x1="111.7" y1="125.3" x2="138.6" y2="133.9" stroke="rgb(0,0,0)"  stroke-width="1.0"/>
<line x1="146.5" y1="128.8" x2="155.0" y2="168.3" stroke="rgb(0,0,0)"  stroke-width="1.0"/>
<line x1="155.0" y1="168.3" x2="125.0" y2="195.2" stroke="rgb(0,0,0)"  stroke-width="1.0"/>
<line x1="145.7" y1="167.0" x2="124.7" y2="185.8" stroke="rgb(0,0,0)"  stroke-width="1.0"/>
<text x="211.991548" y="306.318823" fill="rgb(12,12,255)"  stroke="rgb(12,12,255)" stroke-width="1" font-size="16" >N</text>
<text x="264.317755" y="344.649347" fill="rgb(12,12,255)"  stroke="rgb(12,12,255)" stroke-width="1" font-size="16" >N</text>
<text x="264.317755" y="360.649347" fill="rgb(12,12,255)"  stroke="rgb(12,12,255)" stroke-width="1" font-size="16" >H</text>
<text x="403.809047" y="48.000000" fill="rgb(102,102,102)"  stroke="rgb(102,102,102)" stroke-width="1" font-size="16" >CH</text>
<text x="200.658244" y="376.981027" fill="rgb(255,12,12)"  stroke="rgb(255,12,12)" stroke-width="1" font-size="16" >O</text>
<text x="115.493694" y="242.489579" fill="rgb(12,12,255)"  stroke="rgb(12,12,255)" stroke-width="1" font-size="16" >HN</text>
<text x="244.318378" y="242.659312" fill="rgb(255,12,12)"  stroke="rgb(255,12,12)" stroke-width="1" font-size="16" >O</text>
<text x="195.158900" y="227.819813" fill="rgb(255,12,12)"  stroke="rgb(255,12,12)" stroke-width="1" font-size="16" >O</text>
<text x="272.818946" y="162.327187" fill="rgb(255,12,12)"  stroke="rgb(255,12,12)" stroke-width="1" font-size="16" >O</text>
<text x="348.480993" y="137.827465" fill="rgb(255,12,12)"  stroke="rgb(255,12,12)" stroke-width="1" font-size="16" >O</text>
<text x="14.000000" y="139.825463" fill="rgb(102,102,102)"  stroke="rgb(102,102,102)" stroke-width="1" font-size="16" >H</text>
<text x="26.000000" y="143.505463" fill="rgb(102,102,102)"  stroke="rgb(102,102,102)" stroke-width="1" font-size="13" >3</text>
<text x="32.500000" y="139.825463" fill="rgb(102,102,102)"  stroke="rgb(102,102,102)" stroke-width="1" font-size="16" >C</text>
<text x="214.658155" y="174.324873" fill="rgb(102,102,102)"  stroke="rgb(102,102,102)" stroke-width="1" font-size="16" >H</text>
<text x="226.658155" y="178.004873" fill="rgb(102,102,102)"  stroke="rgb(102,102,102)" stroke-width="1" font-size="13" >3</text>
<text x="233.158155" y="174.324873" fill="rgb(102,102,102)"  stroke="rgb(102,102,102)" stroke-width="1" font-size="16" >C</text>
<text font-size="18.000000" fill ="black" font-family="sans-serif"
x="10.000000" y="20.000000" ></text>
<title> - OBDepict</title>
</svg>
