<?xml version="1.0"?>
<svg xmlns="http://www.w3.org/2000/svg"
xmlns:xlink="http://www.w3.org/1999/xlink" xmlns:cml="http://www.xml-cml.org/schema" width="362.462" height="500.056" x="0" y="0" font-family="sans-serif" stroke="rgb(0,0,0)" stroke-width="1"  stroke-linecap="round">
<rect x="0%" y="0%" width="100%" height="100%" stroke-width="0" fill="rgb(255,255,255)"  />
<line x1="282.5" y1="307.0" x2="282.5" y2="293.0" stroke="rgb(0,0,0)"  stroke-width="1.0"/>
<line x1="213.2" y1="160.0" x2="247.7" y2="180.0" stroke="rgb(0,0,0)"  stroke-width="1.0"/>
<line x1="282.5" y1="240.0" x2="282.5" y2="267.0" stroke="rgb(0,0,0)"  stroke-width="1.0"/>
<line x1="213.2" y1="133.0" x2="213.2" y2="160.0" stroke="rgb(0,0,0)"  stroke-width="1.0"/>
<line x1="74.6" y1="120.0" x2="109.3" y2="100.0" stroke="rgb(0,0,0)"  stroke-width="1.0"/>
<line x1="255.5" y1="277.0" x2="269.5" y2="277.0" stroke="rgb(0,0,0)"  stroke-width="1.0"/>
<line x1="255.5" y1="283.0" x2="269.5" y2="283.0" stroke="rgb(0,0,0)"  stroke-width="1.0"/>
<line x1="309.5" y1="283.0" x2="295.5" y2="283.0" stroke="rgb(0,0,0)"  stroke-width="1.0"/>
<line x1="309.5" y1="277.0" x2="295.5" y2="277.0" stroke="rgb(0,0,0)"  stroke-width="1.0"/>
<line x1="51.3" y1="133.5" x2="74.6" y2="120.0" stroke="rgb(0,0,0)"  stroke-width="1.0"/>
<line x1="49.1" y1="129.9" x2="72.4" y2="116.4" stroke="rgb(0,0,0)"  stroke-width="1.0"/>
<line x1="53.4" y1="137.1" x2="76.7" y2="123.6" stroke="rgb(0,0,0)"  stroke-width="1.0"/>
<line x1="247.7" y1="340.0" x2="271.2" y2="326.5" stroke="rgb(0,0,0)"  stroke-width="1.0"/>
<line x1="188.2" y1="170.9" x2="211.7" y2="157.4" stroke="rgb(0,0,0)"  stroke-width="1.0"/>
<line x1="191.2" y1="176.1" x2="214.6" y2="162.6" stroke="rgb(0,0,0)"  stroke-width="1.0"/>
<line x1="178.4" y1="100.0" x2="201.9" y2="113.5" stroke="rgb(0,0,0)"  stroke-width="1.0"/>
<line x1="247.7" y1="380.0" x2="247.7" y2="340.0" stroke="rgb(0,0,0)"  stroke-width="1.0"/>
<line x1="224.4" y1="326.6" x2="247.7" y2="340.0" stroke="rgb(0,0,0)"  stroke-width="1.0"/>
<line x1="247.7" y1="380.0" x2="213.2" y2="400.0" stroke="rgb(0,0,0)"  stroke-width="1.0"/>
<line x1="213.2" y1="400.0" x2="213.2" y2="440.1" stroke="rgb(0,0,0)"  stroke-width="1.0"/>
<line x1="220.4" y1="406.0" x2="220.4" y2="434.1" stroke="rgb(0,0,0)"  stroke-width="1.0"/>
<line x1="213.2" y1="440.1" x2="247.7" y2="460.1" stroke="rgb(0,0,0)"  stroke-width="1.0"/>
<line x1="247.7" y1="460.1" x2="282.5" y2="440.1" stroke="rgb(0,0,0)"  stroke-width="1.0"/>
<line x1="249.3" y1="450.8" x2="273.7" y2="436.8" stroke="rgb(0,0,0)"  stroke-width="1.0"/>
<line x1="282.5" y1="440.1" x2="282.5" y2="400.0" stroke="rgb(0,0,0)"  stroke-width="1.0"/>
<line x1="282.5" y1="400.0" x2="247.7" y2="380.0" stroke="rgb(0,0,0)"  stroke-width="1.0"/>
<line x1="273.7" y1="403.3" x2="249.3" y2="389.3" stroke="rgb(0,0,0)"  stroke-width="1.0"/>
<line x1="282.5" y1="240.0" x2="247.7" y2="220.0" stroke="rgb(0,0,0)"  stroke-width="1.0"/>
<line x1="280.8" y1="230.8" x2="256.5" y2="216.8" stroke="rgb(0,0,0)"  stroke-width="1.0"/>
<line x1="247.7" y1="220.0" x2="247.7" y2="180.0" stroke="rgb(0,0,0)"  stroke-width="1.0"/>
<line x1="247.7" y1="180.0" x2="282.5" y2="160.0" stroke="rgb(0,0,0)"  stroke-width="1.0"/>
<line x1="256.5" y1="183.3" x2="280.8" y2="169.2" stroke="rgb(0,0,0)"  stroke-width="1.0"/>
<line x1="282.5" y1="160.0" x2="317.0" y2="180.0" stroke="rgb(0,0,0)"  stroke-width="1.0"/>
<line x1="317.0" y1="180.0" x2="317.0" y2="220.0" stroke="rgb(0,0,0)"  stroke-width="1.0"/>
<line x1="309.8" y1="186.0" x2="309.8" y2="214.0" stroke="rgb(0,0,0)"  stroke-width="1.0"/>
<line x1="317.0" y1="220.0" x2="282.5" y2="240.0" stroke="rgb(0,0,0)"  stroke-width="1.0"/>
<line x1="178.4" y1="100.0" x2="143.8" y2="120.0" stroke="rgb(0,0,0)"  stroke-width="1.0"/>
<line x1="169.6" y1="96.8" x2="145.4" y2="110.8" stroke="rgb(0,0,0)"  stroke-width="1.0"/>
<line x1="143.8" y1="120.0" x2="109.3" y2="100.0" stroke="rgb(0,0,0)"  stroke-width="1.0"/>
<line x1="109.3" y1="100.0" x2="109.3" y2="60.0" stroke="rgb(0,0,0)"  stroke-width="1.0"/>
<line x1="116.5" y1="94.0" x2="116.5" y2="66.0" stroke="rgb(0,0,0)"  stroke-width="1.0"/>
<line x1="109.3" y1="60.0" x2="143.8" y2="40.0" stroke="rgb(0,0,0)"  stroke-width="1.0"/>
<line x1="143.8" y1="40.0" x2="178.4" y2="60.0" stroke="rgb(0,0,0)"  stroke-width="1.0"/>
<line x1="145.4" y1="49.2" x2="169.6" y2="63.2" stroke="rgb(0,0,0)"  stroke-width="1.0"/>
<line x1="178.4" y1="60.0" x2="178.4" y2="100.0" stroke="rgb(0,0,0)"  stroke-width="1.0"/>
<text x="276.456540" y="288.031974" fill="rgb(178,178,0)"  stroke="rgb(178,178,0)" stroke-width="1" font-size="16" >S</text>
<text x="276.456540" y="328.037303" fill="rgb(12,12,255)"  stroke="rgb(12,12,255)" stroke-width="1" font-size="16" >NH</text>
<text x="207.152762" y="128.010658" fill="rgb(12,12,255)"  stroke="rgb(12,12,255)" stroke-width="1" font-size="16" >NH</text>
<text x="236.451211" y="288.031974" fill="rgb(255,12,12)"  stroke="rgb(255,12,12)" stroke-width="1" font-size="16" >O</text>
<text x="316.461869" y="288.031974" fill="rgb(255,12,12)"  stroke="rgb(255,12,12)" stroke-width="1" font-size="16" >O</text>
<text x="22.000000" y="148.013323" fill="rgb(102,102,102)"  stroke="rgb(102,102,102)" stroke-width="1" font-size="16" >HC</text>
<text x="172.399042" y="188.018652" fill="rgb(255,12,12)"  stroke="rgb(255,12,12)" stroke-width="1" font-size="16" >O</text>
<text x="187.152762" y="328.037303" fill="rgb(102,102,102)"  stroke="rgb(102,102,102)" stroke-width="1" font-size="16" >H</text>
<text x="199.152762" y="331.717303" fill="rgb(102,102,102)"  stroke="rgb(102,102,102)" stroke-width="1" font-size="13" >3</text>
<text x="205.652762" y="328.037303" fill="rgb(102,102,102)"  stroke="rgb(102,102,102)" stroke-width="1" font-size="16" >C</text>
<text font-size="18.000000" fill ="black" font-family="sans-serif"
x="10.000000" y="20.000000" ></text>
<title> - OBDepict</title>
</svg>
