<?xml version="1.0"?>
<svg xmlns="http://www.w3.org/2000/svg"
xmlns:xlink="http://www.w3.org/1999/xlink" xmlns:cml="http://www.xml-cml.org/schema" width="421.231" height="296.967" x="0" y="0" font-family="sans-serif" stroke="rgb(0,0,0)" stroke-width="1"  stroke-linecap="round">
<rect x="0%" y="0%" width="100%" height="100%" stroke-width="0" fill="rgb(255,255,255)"  />
<line x1="192.1" y1="206.3" x2="212.3" y2="188.2" stroke="rgb(0,0,0)"  stroke-width="1.0"/>
<line x1="148.5" y1="60.0" x2="183.2" y2="79.6" stroke="rgb(0,0,0)"  stroke-width="1.0"/>
<line x1="368.2" y1="190.6" x2="341.2" y2="190.6" stroke="rgb(0,0,0)"  stroke-width="1.0"/>
<line x1="368.2" y1="184.6" x2="341.2" y2="184.6" stroke="rgb(0,0,0)"  stroke-width="1.0"/>
<line x1="265.1" y1="244.2" x2="278.6" y2="220.8" stroke="rgb(0,0,0)"  stroke-width="1.0"/>
<line x1="270.3" y1="247.2" x2="283.8" y2="223.8" stroke="rgb(0,0,0)"  stroke-width="1.0"/>
<line x1="125.1" y1="46.5" x2="148.5" y2="60.0" stroke="rgb(0,0,0)"  stroke-width="1.0"/>
<line x1="127.2" y1="42.9" x2="150.6" y2="56.4" stroke="rgb(0,0,0)"  stroke-width="1.0"/>
<line x1="123.0" y1="50.1" x2="146.4" y2="63.6" stroke="rgb(0,0,0)"  stroke-width="1.0"/>
<line x1="194.4" y1="126.1" x2="217.8" y2="139.6" stroke="rgb(0,0,0)"  stroke-width="1.0"/>
<line x1="334.7" y1="129.5" x2="327.7" y2="141.7" stroke="rgb(0,0,0)"  stroke-width="1.0"/>
<line x1="334.7" y1="245.7" x2="327.7" y2="233.5" stroke="rgb(0,0,0)"  stroke-width="1.0"/>
<line x1="154.0" y1="194.1" x2="192.1" y2="206.3" stroke="rgb(0,0,0)"  stroke-width="1.0"/>
<line x1="52.4" y1="161.0" x2="78.0" y2="169.4" stroke="rgb(0,0,0)"  stroke-width="1.0"/>
<line x1="183.2" y1="79.6" x2="183.2" y2="106.6" stroke="rgb(0,0,0)"  stroke-width="1.0"/>
<line x1="217.8" y1="139.6" x2="220.7" y2="166.7" stroke="rgb(0,0,0)"  stroke-width="1.0"/>
<line x1="234.8" y1="182.2" x2="261.2" y2="187.6" stroke="rgb(0,0,0)"  stroke-width="1.0"/>
<line x1="261.2" y1="187.6" x2="281.2" y2="152.9" stroke="rgb(0,0,0)"  stroke-width="1.0"/>
<line x1="257.9" y1="178.8" x2="272.0" y2="154.5" stroke="rgb(0,0,0)"  stroke-width="1.0"/>
<line x1="281.2" y1="152.9" x2="262.9" y2="133.1" stroke="rgb(0,0,0)"  stroke-width="1.0"/>
<line x1="242.1" y1="128.9" x2="217.8" y2="139.6" stroke="rgb(0,0,0)"  stroke-width="1.0"/>
<line x1="243.2" y1="136.3" x2="226.2" y2="143.8" stroke="rgb(0,0,0)"  stroke-width="1.0"/>
<line x1="261.2" y1="187.6" x2="281.2" y2="222.3" stroke="rgb(0,0,0)"  stroke-width="1.0"/>
<line x1="281.2" y1="222.3" x2="308.2" y2="222.3" stroke="rgb(0,0,0)"  stroke-width="1.0"/>
<line x1="327.7" y1="211.0" x2="341.2" y2="187.6" stroke="rgb(0,0,0)"  stroke-width="1.0"/>
<line x1="341.2" y1="187.6" x2="327.7" y2="164.2" stroke="rgb(0,0,0)"  stroke-width="1.0"/>
<line x1="308.2" y1="152.9" x2="281.2" y2="152.9" stroke="rgb(0,0,0)"  stroke-width="1.0"/>
<line x1="154.0" y1="194.1" x2="124.5" y2="220.7" stroke="rgb(0,0,0)"  stroke-width="1.0"/>
<line x1="124.5" y1="220.7" x2="86.5" y2="208.3" stroke="rgb(0,0,0)"  stroke-width="1.0"/>
<line x1="121.0" y1="212.0" x2="94.4" y2="203.3" stroke="rgb(0,0,0)"  stroke-width="1.0"/>
<line x1="86.5" y1="208.3" x2="78.0" y2="169.4" stroke="rgb(0,0,0)"  stroke-width="1.0"/>
<line x1="78.0" y1="169.4" x2="107.8" y2="142.3" stroke="rgb(0,0,0)"  stroke-width="1.0"/>
<line x1="87.3" y1="170.7" x2="108.2" y2="151.6" stroke="rgb(0,0,0)"  stroke-width="1.0"/>
<line x1="107.8" y1="142.3" x2="145.8" y2="154.9" stroke="rgb(0,0,0)"  stroke-width="1.0"/>
<line x1="145.8" y1="154.9" x2="154.0" y2="194.1" stroke="rgb(0,0,0)"  stroke-width="1.0"/>
<line x1="140.0" y1="162.3" x2="145.8" y2="189.7" stroke="rgb(0,0,0)"  stroke-width="1.0"/>
<text x="248.076355" y="131.584698" fill="rgb(12,12,255)"  stroke="rgb(12,12,255)" stroke-width="1" font-size="16" >N</text>
<text x="315.208938" y="160.928830" fill="rgb(12,12,255)"  stroke="rgb(12,12,255)" stroke-width="1" font-size="16" >N</text>
<text x="315.208938" y="230.287687" fill="rgb(12,12,255)"  stroke="rgb(12,12,255)" stroke-width="1" font-size="16" >N</text>
<text x="216.064575" y="187.605314" fill="rgb(12,12,255)"  stroke="rgb(12,12,255)" stroke-width="1" font-size="16" >N</text>
<text x="375.231026" y="195.608259" fill="rgb(255,12,12)"  stroke="rgb(255,12,12)" stroke-width="1" font-size="16" >O</text>
<text x="255.186850" y="264.967116" fill="rgb(255,12,12)"  stroke="rgb(255,12,12)" stroke-width="1" font-size="16" >O</text>
<text x="95.801704" y="48.000000" fill="rgb(102,102,102)"  stroke="rgb(102,102,102)" stroke-width="1" font-size="16" >HC</text>
<text x="177.160561" y="127.583226" fill="rgb(255,12,12)"  stroke="rgb(255,12,12)" stroke-width="1" font-size="16" >O</text>
<text x="337.216301" y="126.249402" fill="rgb(102,102,102)"  stroke="rgb(102,102,102)" stroke-width="1" font-size="16" >CH</text>
<text x="361.216301" y="129.929402" fill="rgb(102,102,102)"  stroke="rgb(102,102,102)" stroke-width="1" font-size="13" >3</text>
<text x="337.216301" y="264.967116" fill="rgb(102,102,102)"  stroke="rgb(102,102,102)" stroke-width="1" font-size="16" >CH</text>
<text x="361.216301" y="268.647116" fill="rgb(102,102,102)"  stroke="rgb(102,102,102)" stroke-width="1" font-size="13" >3</text>
<text x="34.000000" y="164.930303" fill="rgb(127,178,255)"  stroke="rgb(127,178,255)" stroke-width="1" font-size="16" >F</text>
<text font-size="18.000000" fill ="black" font-family="sans-serif"
x="10.000000" y="20.000000" ></text>
<title> - OBDepict</title>
</svg>
