<?xml version="1.0"?>
<svg xmlns="http://www.w3.org/2000/svg"
xmlns:xlink="http://www.w3.org/1999/xlink" xmlns:cml="http://www.xml-cml.org/schema" width="414.118" height="361.393" x="0" y="0" font-family="sans-serif" stroke="rgb(0,0,0)" stroke-width="1"  stroke-linecap="round">
<rect x="0%" y="0%" width="100%" height="100%" stroke-width="0" fill="rgb(255,255,255)"  />
<line x1="278.6" y1="101.2" x2="262.5" y2="122.9" stroke="rgb(0,0,0)"  stroke-width="1.0"/>
<line x1="238.6" y1="155.0" x2="247.0" y2="143.8" stroke="rgb(0,0,0)"  stroke-width="1.0"/>
<line x1="246.9" y1="202.2" x2="236.1" y2="177.4" stroke="rgb(0,0,0)"  stroke-width="1.0"/>
<line x1="191.1" y1="161.0" x2="218.0" y2="164.0" stroke="rgb(0,0,0)"  stroke-width="1.0"/>
<line x1="286.4" y1="206.9" x2="246.9" y2="202.2" stroke="rgb(0,0,0)"  stroke-width="1.0"/>
<line x1="175.1" y1="124.2" x2="191.1" y2="161.0" stroke="rgb(0,0,0)"  stroke-width="1.0"/>
<line x1="234.8" y1="114.8" x2="246.1" y2="123.2" stroke="rgb(0,0,0)"  stroke-width="1.0"/>
<line x1="231.3" y1="119.6" x2="242.5" y2="128.0" stroke="rgb(0,0,0)"  stroke-width="1.0"/>
<line x1="274.6" y1="151.8" x2="263.4" y2="143.5" stroke="rgb(0,0,0)"  stroke-width="1.0"/>
<line x1="278.2" y1="147.0" x2="267.0" y2="138.7" stroke="rgb(0,0,0)"  stroke-width="1.0"/>
<line x1="358.2" y1="284.6" x2="342.2" y2="248.1" stroke="rgb(0,0,0)"  stroke-width="1.0"/>
<line x1="79.8" y1="78.6" x2="119.6" y2="83.0" stroke="rgb(0,0,0)"  stroke-width="1.0"/>
<line x1="368.9" y1="309.5" x2="358.2" y2="284.6" stroke="rgb(0,0,0)"  stroke-width="1.0"/>
<line x1="365.1" y1="311.1" x2="354.3" y2="286.3" stroke="rgb(0,0,0)"  stroke-width="1.0"/>
<line x1="372.8" y1="307.8" x2="362.0" y2="283.0" stroke="rgb(0,0,0)"  stroke-width="1.0"/>
<line x1="52.9" y1="75.4" x2="79.8" y2="78.6" stroke="rgb(0,0,0)"  stroke-width="1.0"/>
<line x1="53.4" y1="71.3" x2="80.3" y2="74.4" stroke="rgb(0,0,0)"  stroke-width="1.0"/>
<line x1="52.4" y1="79.6" x2="79.3" y2="82.8" stroke="rgb(0,0,0)"  stroke-width="1.0"/>
<line x1="304.9" y1="187.0" x2="288.9" y2="208.6" stroke="rgb(0,0,0)"  stroke-width="1.0"/>
<line x1="300.1" y1="183.4" x2="284.0" y2="205.1" stroke="rgb(0,0,0)"  stroke-width="1.0"/>
<line x1="193.6" y1="104.3" x2="177.6" y2="126.0" stroke="rgb(0,0,0)"  stroke-width="1.0"/>
<line x1="188.8" y1="100.8" x2="172.7" y2="122.4" stroke="rgb(0,0,0)"  stroke-width="1.0"/>
<line x1="357.1" y1="55.6" x2="331.3" y2="63.6" stroke="rgb(0,0,0)"  stroke-width="1.0"/>
<line x1="297.2" y1="231.5" x2="286.4" y2="206.9" stroke="rgb(0,0,0)"  stroke-width="1.0"/>
<line x1="148.5" y1="121.2" x2="175.1" y2="124.2" stroke="rgb(0,0,0)"  stroke-width="1.0"/>
<line x1="342.2" y1="248.1" x2="315.3" y2="244.9" stroke="rgb(0,0,0)"  stroke-width="1.0"/>
<line x1="119.6" y1="83.0" x2="130.4" y2="107.9" stroke="rgb(0,0,0)"  stroke-width="1.0"/>
<line x1="278.6" y1="101.2" x2="266.4" y2="63.0" stroke="rgb(0,0,0)"  stroke-width="1.0"/>
<line x1="283.6" y1="93.3" x2="275.1" y2="66.6" stroke="rgb(0,0,0)"  stroke-width="1.0"/>
<line x1="266.4" y1="63.0" x2="299.2" y2="40.0" stroke="rgb(0,0,0)"  stroke-width="1.0"/>
<line x1="299.2" y1="40.0" x2="331.3" y2="63.6" stroke="rgb(0,0,0)"  stroke-width="1.0"/>
<line x1="299.7" y1="49.4" x2="322.2" y2="65.9" stroke="rgb(0,0,0)"  stroke-width="1.0"/>
<line x1="331.3" y1="63.6" x2="322.7" y2="89.3" stroke="rgb(0,0,0)"  stroke-width="1.0"/>
<line x1="305.6" y1="101.5" x2="278.6" y2="101.2" stroke="rgb(0,0,0)"  stroke-width="1.0"/>
<text x="248.733836" y="141.327113" fill="rgb(178,178,0)"  stroke="rgb(178,178,0)" stroke-width="1" font-size="16" >S</text>
<text x="224.892841" y="173.446500" fill="rgb(12,12,255)"  stroke="rgb(12,12,255)" stroke-width="1" font-size="16" >N</text>
<text x="312.565236" y="109.610250" fill="rgb(178,178,0)"  stroke="rgb(178,178,0)" stroke-width="1" font-size="16" >S</text>
<text x="216.614449" y="117.486119" fill="rgb(255,12,12)"  stroke="rgb(255,12,12)" stroke-width="1" font-size="16" >O</text>
<text x="280.853222" y="165.163258" fill="rgb(255,12,12)"  stroke="rgb(255,12,12)" stroke-width="1" font-size="16" >O</text>
<text x="368.118244" y="329.392595" fill="rgb(102,102,102)"  stroke="rgb(102,102,102)" stroke-width="1" font-size="16" >CH</text>
<text x="22.000000" y="81.933164" fill="rgb(102,102,102)"  stroke="rgb(102,102,102)" stroke-width="1" font-size="16" >HC</text>
<text x="304.281994" y="182.738474" fill="rgb(255,12,12)"  stroke="rgb(255,12,12)" stroke-width="1" font-size="16" >O</text>
<text x="192.977141" y="100.114590" fill="rgb(255,12,12)"  stroke="rgb(255,12,12)" stroke-width="1" font-size="16" >O</text>
<text x="363.472257" y="59.716811" fill="rgb(165,40,40)"  stroke="rgb(165,40,40)" stroke-width="1" font-size="16" >Br</text>
<text x="296.406124" y="251.414698" fill="rgb(12,12,255)"  stroke="rgb(12,12,255)" stroke-width="1" font-size="16" >N</text>
<text x="296.406124" y="267.414698" fill="rgb(12,12,255)"  stroke="rgb(12,12,255)" stroke-width="1" font-size="16" >H</text>
<text x="129.548264" y="127.786826" fill="rgb(12,12,255)"  stroke="rgb(12,12,255)" stroke-width="1" font-size="16" >N</text>
<text x="129.548264" y="143.786826" fill="rgb(12,12,255)"  stroke="rgb(12,12,255)" stroke-width="1" font-size="16" >H</text>
<text font-size="18.000000" fill ="black" font-family="sans-serif"
x="10.000000" y="20.000000" ></text>
<title> - OBDepict</title>
</svg>
