<?xml version="1.0"?>
<svg xmlns="http://www.w3.org/2000/svg"
xmlns:xlink="http://www.w3.org/1999/xlink" xmlns:cml="http://www.xml-cml.org/schema" width="388.955" height="250.236" x="0" y="0" font-family="sans-serif" stroke="rgb(0,0,0)" stroke-width="1"  stroke-linecap="round">
<rect x="0%" y="0%" width="100%" height="100%" stroke-width="0" fill="rgb(255,255,255)"  />
<line x1="177.1" y1="212.9" x2="141.9" y2="193.7" stroke="rgb(0,0,0)"  stroke-width="1.0"/>
<line x1="180.0" y1="207.6" x2="144.8" y2="188.4" stroke="rgb(0,0,0)"  stroke-width="1.0"/>
<line x1="338.0" y1="114.0" x2="315.4" y2="128.2" stroke="rgb(0,0,0)"  stroke-width="1.0"/>
<line x1="340.2" y1="117.5" x2="317.7" y2="131.8" stroke="rgb(0,0,0)"  stroke-width="1.0"/>
<line x1="335.7" y1="110.4" x2="313.2" y2="124.7" stroke="rgb(0,0,0)"  stroke-width="1.0"/>
<line x1="104.7" y1="74.3" x2="81.9" y2="107.5" stroke="rgb(0,0,0)"  stroke-width="1.0"/>
<line x1="118.7" y1="51.1" x2="104.7" y2="74.3" stroke="rgb(0,0,0)"  stroke-width="1.0"/>
<line x1="122.3" y1="53.3" x2="108.3" y2="76.5" stroke="rgb(0,0,0)"  stroke-width="1.0"/>
<line x1="115.1" y1="49.0" x2="101.1" y2="72.2" stroke="rgb(0,0,0)"  stroke-width="1.0"/>
<line x1="315.4" y1="128.2" x2="281.3" y2="148.5" stroke="rgb(0,0,0)"  stroke-width="1.0"/>
<line x1="52.6" y1="179.3" x2="79.2" y2="176.2" stroke="rgb(0,0,0)"  stroke-width="1.0"/>
<line x1="53.3" y1="185.2" x2="79.9" y2="182.2" stroke="rgb(0,0,0)"  stroke-width="1.0"/>
<line x1="159.8" y1="134.6" x2="140.6" y2="153.2" stroke="rgb(0,0,0)"  stroke-width="1.0"/>
<line x1="155.6" y1="130.3" x2="136.5" y2="148.9" stroke="rgb(0,0,0)"  stroke-width="1.0"/>
<line x1="81.9" y1="107.5" x2="93.3" y2="132.1" stroke="rgb(0,0,0)"  stroke-width="1.0"/>
<line x1="212.7" y1="189.7" x2="178.6" y2="210.2" stroke="rgb(0,0,0)"  stroke-width="1.0"/>
<line x1="92.6" y1="155.3" x2="79.5" y2="179.2" stroke="rgb(0,0,0)"  stroke-width="1.0"/>
<line x1="79.5" y1="179.2" x2="98.1" y2="198.8" stroke="rgb(0,0,0)"  stroke-width="1.0"/>
<line x1="118.8" y1="202.7" x2="143.4" y2="191.1" stroke="rgb(0,0,0)"  stroke-width="1.0"/>
<line x1="143.4" y1="191.1" x2="138.5" y2="151.0" stroke="rgb(0,0,0)"  stroke-width="1.0"/>
<line x1="138.5" y1="151.0" x2="111.7" y2="146.2" stroke="rgb(0,0,0)"  stroke-width="1.0"/>
<line x1="212.7" y1="189.7" x2="247.3" y2="209.1" stroke="rgb(0,0,0)"  stroke-width="1.0"/>
<line x1="221.5" y1="186.4" x2="245.5" y2="199.9" stroke="rgb(0,0,0)"  stroke-width="1.0"/>
<line x1="247.3" y1="209.1" x2="281.3" y2="188.6" stroke="rgb(0,0,0)"  stroke-width="1.0"/>
<line x1="281.3" y1="188.6" x2="281.3" y2="148.5" stroke="rgb(0,0,0)"  stroke-width="1.0"/>
<line x1="274.1" y1="182.6" x2="274.1" y2="154.5" stroke="rgb(0,0,0)"  stroke-width="1.0"/>
<line x1="281.3" y1="148.5" x2="246.3" y2="129.2" stroke="rgb(0,0,0)"  stroke-width="1.0"/>
<line x1="246.3" y1="129.2" x2="211.6" y2="149.9" stroke="rgb(0,0,0)"  stroke-width="1.0"/>
<line x1="244.8" y1="138.5" x2="220.4" y2="153.0" stroke="rgb(0,0,0)"  stroke-width="1.0"/>
<line x1="211.6" y1="149.9" x2="212.7" y2="189.7" stroke="rgb(0,0,0)"  stroke-width="1.0"/>
<text x="92.858034" y="151.875676" fill="rgb(12,12,255)"  stroke="rgb(12,12,255)" stroke-width="1" font-size="16" >N</text>
<text x="101.029393" y="216.233010" fill="rgb(178,178,0)"  stroke="rgb(178,178,0)" stroke-width="1" font-size="16" >S</text>
<text x="342.954969" y="115.024543" fill="rgb(12,12,255)"  stroke="rgb(12,12,255)" stroke-width="1" font-size="16" >N</text>
<text x="119.365244" y="48.000000" fill="rgb(102,102,102)"  stroke="rgb(102,102,102)" stroke-width="1" font-size="16" >CH</text>
<text x="34.000000" y="191.723782" fill="rgb(255,12,12)"  stroke="rgb(255,12,12)" stroke-width="1" font-size="16" >O</text>
<text x="161.051299" y="131.367262" fill="rgb(255,12,12)"  stroke="rgb(255,12,12)" stroke-width="1" font-size="16" >O</text>
<text font-size="18.000000" fill ="black" font-family="sans-serif"
x="10.000000" y="20.000000" ></text>
<title> - OBDepict</title>
</svg>
