<?xml version="1.0"?>
<svg xmlns="http://www.w3.org/2000/svg"
xmlns:xlink="http://www.w3.org/1999/xlink" xmlns:cml="http://www.xml-cml.org/schema" width="384.386" height="274.694" x="0" y="0" font-family="sans-serif" stroke="rgb(0,0,0)" stroke-width="1"  stroke-linecap="round">
<rect x="0%" y="0%" width="100%" height="100%" stroke-width="0" fill="rgb(255,255,255)"  />
<line x1="173.8" y1="177.1" x2="211.2" y2="163.8" stroke="rgb(0,0,0)"  stroke-width="1.0"/>
<line x1="175.8" y1="182.8" x2="213.2" y2="169.4" stroke="rgb(0,0,0)"  stroke-width="1.0"/>
<line x1="144.1" y1="154.6" x2="174.8" y2="180.0" stroke="rgb(0,0,0)"  stroke-width="1.0"/>
<line x1="212.2" y1="166.6" x2="226.0" y2="129.0" stroke="rgb(0,0,0)"  stroke-width="1.0"/>
<line x1="279.0" y1="83.8" x2="305.5" y2="79.3" stroke="rgb(0,0,0)"  stroke-width="1.0"/>
<line x1="242.9" y1="192.4" x2="212.2" y2="166.6" stroke="rgb(0,0,0)"  stroke-width="1.0"/>
<line x1="263.6" y1="209.7" x2="242.9" y2="192.4" stroke="rgb(0,0,0)"  stroke-width="1.0"/>
<line x1="261.0" y1="212.9" x2="240.2" y2="195.6" stroke="rgb(0,0,0)"  stroke-width="1.0"/>
<line x1="266.3" y1="206.5" x2="245.6" y2="189.2" stroke="rgb(0,0,0)"  stroke-width="1.0"/>
<line x1="132.1" y1="48.2" x2="171.5" y2="55.4" stroke="rgb(0,0,0)"  stroke-width="1.0"/>
<line x1="105.5" y1="43.6" x2="132.1" y2="48.2" stroke="rgb(0,0,0)"  stroke-width="1.0"/>
<line x1="106.3" y1="39.4" x2="132.8" y2="44.1" stroke="rgb(0,0,0)"  stroke-width="1.0"/>
<line x1="104.8" y1="47.7" x2="131.4" y2="52.4" stroke="rgb(0,0,0)"  stroke-width="1.0"/>
<line x1="327.8" y1="52.2" x2="322.9" y2="65.0" stroke="rgb(0,0,0)"  stroke-width="1.0"/>
<line x1="333.7" y1="99.9" x2="324.5" y2="89.0" stroke="rgb(0,0,0)"  stroke-width="1.0"/>
<line x1="338.3" y1="96.0" x2="329.0" y2="85.1" stroke="rgb(0,0,0)"  stroke-width="1.0"/>
<line x1="167.6" y1="101.0" x2="144.1" y2="114.5" stroke="rgb(0,0,0)"  stroke-width="1.0"/>
<line x1="171.5" y1="55.4" x2="176.4" y2="81.7" stroke="rgb(0,0,0)"  stroke-width="1.0"/>
<line x1="144.1" y1="154.6" x2="109.4" y2="174.6" stroke="rgb(0,0,0)"  stroke-width="1.0"/>
<line x1="109.4" y1="174.6" x2="74.7" y2="154.6" stroke="rgb(0,0,0)"  stroke-width="1.0"/>
<line x1="74.7" y1="154.6" x2="74.7" y2="114.5" stroke="rgb(0,0,0)"  stroke-width="1.0"/>
<line x1="74.7" y1="114.5" x2="109.4" y2="94.5" stroke="rgb(0,0,0)"  stroke-width="1.0"/>
<line x1="83.5" y1="117.8" x2="107.8" y2="103.8" stroke="rgb(0,0,0)"  stroke-width="1.0"/>
<line x1="109.4" y1="94.5" x2="144.1" y2="114.5" stroke="rgb(0,0,0)"  stroke-width="1.0"/>
<line x1="144.1" y1="114.5" x2="144.1" y2="154.6" stroke="rgb(0,0,0)"  stroke-width="1.0"/>
<line x1="136.9" y1="120.5" x2="136.9" y2="148.6" stroke="rgb(0,0,0)"  stroke-width="1.0"/>
<line x1="279.0" y1="83.8" x2="265.6" y2="121.9" stroke="rgb(0,0,0)"  stroke-width="1.0"/>
<line x1="265.6" y1="121.9" x2="226.0" y2="129.0" stroke="rgb(0,0,0)"  stroke-width="1.0"/>
<line x1="258.4" y1="115.9" x2="230.6" y2="120.9" stroke="rgb(0,0,0)"  stroke-width="1.0"/>
<line x1="226.0" y1="129.0" x2="200.2" y2="98.3" stroke="rgb(0,0,0)"  stroke-width="1.0"/>
<line x1="200.2" y1="98.3" x2="214.0" y2="60.9" stroke="rgb(0,0,0)"  stroke-width="1.0"/>
<line x1="209.0" y1="95.2" x2="218.7" y2="69.0" stroke="rgb(0,0,0)"  stroke-width="1.0"/>
<line x1="214.0" y1="60.9" x2="253.4" y2="54.0" stroke="rgb(0,0,0)"  stroke-width="1.0"/>
<line x1="253.4" y1="54.0" x2="279.0" y2="83.8" stroke="rgb(0,0,0)"  stroke-width="1.0"/>
<line x1="251.8" y1="63.3" x2="269.6" y2="84.0" stroke="rgb(0,0,0)"  stroke-width="1.0"/>
<line x1="74.7" y1="154.6" x2="40.0" y2="174.6" stroke="rgb(0,0,0)"  stroke-width="1.0"/>
<line x1="73.1" y1="163.8" x2="48.8" y2="177.9" stroke="rgb(0,0,0)"  stroke-width="1.0"/>
<line x1="40.0" y1="174.6" x2="40.0" y2="214.7" stroke="rgb(0,0,0)"  stroke-width="1.0"/>
<line x1="40.0" y1="214.7" x2="74.7" y2="234.7" stroke="rgb(0,0,0)"  stroke-width="1.0"/>
<line x1="48.8" y1="211.4" x2="73.1" y2="225.5" stroke="rgb(0,0,0)"  stroke-width="1.0"/>
<line x1="74.7" y1="234.7" x2="109.4" y2="214.7" stroke="rgb(0,0,0)"  stroke-width="1.0"/>
<line x1="109.4" y1="214.7" x2="109.4" y2="174.6" stroke="rgb(0,0,0)"  stroke-width="1.0"/>
<line x1="102.2" y1="208.7" x2="102.2" y2="180.6" stroke="rgb(0,0,0)"  stroke-width="1.0"/>
<text x="323.152645" y="73.128942" fill="rgb(12,12,255)"  stroke="rgb(12,12,255)" stroke-width="1" font-size="16" >+</text>
<text x="312.352645" y="85.160942" fill="rgb(12,12,255)"  stroke="rgb(12,12,255)" stroke-width="1" font-size="16" >N</text>
<text x="267.627456" y="226.007420" fill="rgb(12,12,255)"  stroke="rgb(12,12,255)" stroke-width="1" font-size="16" >N</text>
<text x="74.736106" y="49.335153" fill="rgb(102,102,102)"  stroke="rgb(102,102,102)" stroke-width="1" font-size="16" >HC</text>
<text x="337.169322" y="25.888000" fill="rgb(255,12,12)"  stroke="rgb(255,12,12)" stroke-width="1" font-size="16" >_</text>
<text x="326.369322" y="48.000000" fill="rgb(255,12,12)"  stroke="rgb(255,12,12)" stroke-width="1" font-size="16" >O</text>
<text x="338.385696" y="115.869456" fill="rgb(255,12,12)"  stroke="rgb(255,12,12)" stroke-width="1" font-size="16" >O</text>
<text x="172.841321" y="102.517928" fill="rgb(255,12,12)"  stroke="rgb(255,12,12)" stroke-width="1" font-size="16" >O</text>
<text font-size="18.000000" fill ="black" font-family="sans-serif"
x="10.000000" y="20.000000" ></text>
<title> - OBDepict</title>
</svg>
