<?xml version="1.0"?>
<svg xmlns="http://www.w3.org/2000/svg"
xmlns:xlink="http://www.w3.org/1999/xlink" xmlns:cml="http://www.xml-cml.org/schema" width="356.103" height="347.636" x="0" y="0" font-family="sans-serif" stroke="rgb(0,0,0)" stroke-width="1"  stroke-linecap="round">
<rect x="0%" y="0%" width="100%" height="100%" stroke-width="0" fill="rgb(255,255,255)"  />
<line x1="174.2" y1="79.8" x2="141.9" y2="103.4" stroke="rgb(0,0,0)"  stroke-width="1.0"/>
<line x1="279.6" y1="88.8" x2="243.0" y2="72.5" stroke="rgb(0,0,0)"  stroke-width="1.0"/>
<line x1="304.2" y1="99.7" x2="279.6" y2="88.8" stroke="rgb(0,0,0)"  stroke-width="1.0"/>
<line x1="302.5" y1="103.6" x2="277.9" y2="92.7" stroke="rgb(0,0,0)"  stroke-width="1.0"/>
<line x1="305.9" y1="95.9" x2="281.3" y2="85.0" stroke="rgb(0,0,0)"  stroke-width="1.0"/>
<line x1="91.5" y1="193.6" x2="103.8" y2="155.7" stroke="rgb(0,0,0)"  stroke-width="1.0"/>
<line x1="174.3" y1="52.6" x2="177.2" y2="79.4" stroke="rgb(0,0,0)"  stroke-width="1.0"/>
<line x1="168.4" y1="53.2" x2="171.2" y2="80.1" stroke="rgb(0,0,0)"  stroke-width="1.0"/>
<line x1="198.9" y1="90.8" x2="174.2" y2="79.8" stroke="rgb(0,0,0)"  stroke-width="1.0"/>
<line x1="243.0" y1="72.5" x2="221.2" y2="88.4" stroke="rgb(0,0,0)"  stroke-width="1.0"/>
<line x1="58.5" y1="295.3" x2="66.8" y2="269.7" stroke="rgb(0,0,0)"  stroke-width="1.0"/>
<line x1="141.9" y1="103.4" x2="103.8" y2="90.9" stroke="rgb(0,0,0)"  stroke-width="1.0"/>
<line x1="134.0" y1="108.3" x2="107.2" y2="99.6" stroke="rgb(0,0,0)"  stroke-width="1.0"/>
<line x1="103.8" y1="90.9" x2="88.0" y2="112.8" stroke="rgb(0,0,0)"  stroke-width="1.0"/>
<line x1="88.0" y1="133.9" x2="103.8" y2="155.7" stroke="rgb(0,0,0)"  stroke-width="1.0"/>
<line x1="103.8" y1="155.7" x2="129.3" y2="147.4" stroke="rgb(0,0,0)"  stroke-width="1.0"/>
<line x1="107.3" y1="147.0" x2="125.2" y2="141.2" stroke="rgb(0,0,0)"  stroke-width="1.0"/>
<line x1="141.9" y1="130.3" x2="141.9" y2="103.4" stroke="rgb(0,0,0)"  stroke-width="1.0"/>
<line x1="91.5" y1="193.6" x2="118.3" y2="223.3" stroke="rgb(0,0,0)"  stroke-width="1.0"/>
<line x1="118.3" y1="223.3" x2="106.0" y2="261.4" stroke="rgb(0,0,0)"  stroke-width="1.0"/>
<line x1="109.6" y1="226.8" x2="101.0" y2="253.5" stroke="rgb(0,0,0)"  stroke-width="1.0"/>
<line x1="106.0" y1="261.4" x2="66.8" y2="269.7" stroke="rgb(0,0,0)"  stroke-width="1.0"/>
<line x1="66.8" y1="269.7" x2="40.0" y2="240.0" stroke="rgb(0,0,0)"  stroke-width="1.0"/>
<line x1="68.2" y1="260.4" x2="49.4" y2="239.6" stroke="rgb(0,0,0)"  stroke-width="1.0"/>
<line x1="40.0" y1="240.0" x2="52.5" y2="201.9" stroke="rgb(0,0,0)"  stroke-width="1.0"/>
<line x1="52.5" y1="201.9" x2="91.5" y2="193.6" stroke="rgb(0,0,0)"  stroke-width="1.0"/>
<line x1="59.9" y1="207.7" x2="87.1" y2="201.9" stroke="rgb(0,0,0)"  stroke-width="1.0"/>
<text x="135.924475" y="151.340564" fill="rgb(12,12,255)"  stroke="rgb(12,12,255)" stroke-width="1" font-size="16" >N</text>
<text x="74.363392" y="131.360127" fill="rgb(178,178,0)"  stroke="rgb(178,178,0)" stroke-width="1" font-size="16" >S</text>
<text x="310.103446" y="112.989765" fill="rgb(102,102,102)"  stroke="rgb(102,102,102)" stroke-width="1" font-size="16" >CH</text>
<text x="163.974680" y="48.000000" fill="rgb(255,12,12)"  stroke="rgb(255,12,12)" stroke-width="1" font-size="16" >O</text>
<text x="204.750290" y="104.110110" fill="rgb(12,12,255)"  stroke="rgb(12,12,255)" stroke-width="1" font-size="16" >N</text>
<text x="204.750290" y="120.110110" fill="rgb(12,12,255)"  stroke="rgb(12,12,255)" stroke-width="1" font-size="16" >H</text>
<text x="28.529463" y="315.636009" fill="rgb(102,102,102)"  stroke="rgb(102,102,102)" stroke-width="1" font-size="16" >H</text>
<text x="40.529463" y="319.316009" fill="rgb(102,102,102)"  stroke="rgb(102,102,102)" stroke-width="1" font-size="13" >3</text>
<text x="47.029463" y="315.636009" fill="rgb(102,102,102)"  stroke="rgb(102,102,102)" stroke-width="1" font-size="16" >C</text>
<text font-size="18.000000" fill ="black" font-family="sans-serif"
x="10.000000" y="20.000000" ></text>
<title> - OBDepict</title>
</svg>
