<?xml version="1.0"?>
<svg xmlns="http://www.w3.org/2000/svg"
xmlns:xlink="http://www.w3.org/1999/xlink" xmlns:cml="http://www.xml-cml.org/schema" width="357.098" height="459.897" x="0" y="0" font-family="sans-serif" stroke="rgb(0,0,0)" stroke-width="1"  stroke-linecap="round">
<rect x="0%" y="0%" width="100%" height="100%" stroke-width="0" fill="rgb(255,255,255)"  />
<line x1="143.8" y1="187.0" x2="143.8" y2="160.0" stroke="rgb(0,0,0)"  stroke-width="1.0"/>
<line x1="109.3" y1="220.0" x2="132.6" y2="206.5" stroke="rgb(0,0,0)"  stroke-width="1.0"/>
<line x1="213.1" y1="80.0" x2="189.8" y2="93.5" stroke="rgb(0,0,0)"  stroke-width="1.0"/>
<line x1="143.8" y1="399.9" x2="109.3" y2="379.9" stroke="rgb(0,0,0)"  stroke-width="1.0"/>
<line x1="167.3" y1="413.4" x2="143.8" y2="399.9" stroke="rgb(0,0,0)"  stroke-width="1.0"/>
<line x1="165.2" y1="417.1" x2="141.7" y2="403.5" stroke="rgb(0,0,0)"  stroke-width="1.0"/>
<line x1="169.4" y1="409.8" x2="145.9" y2="396.3" stroke="rgb(0,0,0)"  stroke-width="1.0"/>
<line x1="146.8" y1="53.0" x2="146.8" y2="80.0" stroke="rgb(0,0,0)"  stroke-width="1.0"/>
<line x1="140.8" y1="53.0" x2="140.8" y2="80.0" stroke="rgb(0,0,0)"  stroke-width="1.0"/>
<line x1="84.3" y1="150.9" x2="107.8" y2="137.4" stroke="rgb(0,0,0)"  stroke-width="1.0"/>
<line x1="87.3" y1="156.1" x2="110.8" y2="142.6" stroke="rgb(0,0,0)"  stroke-width="1.0"/>
<line x1="178.5" y1="220.0" x2="155.1" y2="206.4" stroke="rgb(0,0,0)"  stroke-width="1.0"/>
<line x1="201.8" y1="153.5" x2="178.5" y2="140.0" stroke="rgb(0,0,0)"  stroke-width="1.0"/>
<line x1="109.3" y1="259.9" x2="109.3" y2="220.0" stroke="rgb(0,0,0)"  stroke-width="1.0"/>
<line x1="87.3" y1="203.8" x2="110.8" y2="217.4" stroke="rgb(0,0,0)"  stroke-width="1.0"/>
<line x1="84.3" y1="209.0" x2="107.8" y2="222.6" stroke="rgb(0,0,0)"  stroke-width="1.0"/>
<line x1="85.8" y1="273.5" x2="109.3" y2="259.9" stroke="rgb(0,0,0)"  stroke-width="1.0"/>
<line x1="74.5" y1="319.9" x2="74.5" y2="292.9" stroke="rgb(0,0,0)"  stroke-width="1.0"/>
<line x1="247.8" y1="100.0" x2="213.1" y2="80.0" stroke="rgb(0,0,0)"  stroke-width="1.0"/>
<line x1="213.1" y1="200.0" x2="178.5" y2="220.0" stroke="rgb(0,0,0)"  stroke-width="1.0"/>
<line x1="236.6" y1="213.5" x2="213.1" y2="200.0" stroke="rgb(0,0,0)"  stroke-width="1.0"/>
<line x1="226.6" y1="176.5" x2="213.1" y2="200.0" stroke="rgb(0,0,0)"  stroke-width="1.0"/>
<line x1="178.5" y1="113.0" x2="178.5" y2="140.0" stroke="rgb(0,0,0)"  stroke-width="1.0"/>
<line x1="178.5" y1="140.0" x2="143.8" y2="160.0" stroke="rgb(0,0,0)"  stroke-width="1.0"/>
<line x1="169.8" y1="136.7" x2="145.4" y2="150.7" stroke="rgb(0,0,0)"  stroke-width="1.0"/>
<line x1="143.8" y1="160.0" x2="109.3" y2="140.0" stroke="rgb(0,0,0)"  stroke-width="1.0"/>
<line x1="109.3" y1="140.0" x2="109.3" y2="113.0" stroke="rgb(0,0,0)"  stroke-width="1.0"/>
<line x1="120.5" y1="93.5" x2="143.8" y2="80.0" stroke="rgb(0,0,0)"  stroke-width="1.0"/>
<line x1="143.8" y1="80.0" x2="167.3" y2="93.5" stroke="rgb(0,0,0)"  stroke-width="1.0"/>
<line x1="247.8" y1="100.0" x2="282.4" y2="80.0" stroke="rgb(0,0,0)"  stroke-width="1.0"/>
<line x1="256.6" y1="103.2" x2="280.8" y2="89.2" stroke="rgb(0,0,0)"  stroke-width="1.0"/>
<line x1="282.4" y1="80.0" x2="317.1" y2="100.0" stroke="rgb(0,0,0)"  stroke-width="1.0"/>
<line x1="317.1" y1="100.0" x2="317.1" y2="140.0" stroke="rgb(0,0,0)"  stroke-width="1.0"/>
<line x1="309.9" y1="106.0" x2="309.9" y2="134.0" stroke="rgb(0,0,0)"  stroke-width="1.0"/>
<line x1="317.1" y1="140.0" x2="282.4" y2="160.0" stroke="rgb(0,0,0)"  stroke-width="1.0"/>
<line x1="282.4" y1="160.0" x2="247.8" y2="140.0" stroke="rgb(0,0,0)"  stroke-width="1.0"/>
<line x1="280.8" y1="150.7" x2="256.6" y2="136.7" stroke="rgb(0,0,0)"  stroke-width="1.0"/>
<line x1="247.8" y1="140.0" x2="247.8" y2="100.0" stroke="rgb(0,0,0)"  stroke-width="1.0"/>
<line x1="109.3" y1="379.9" x2="74.5" y2="399.9" stroke="rgb(0,0,0)"  stroke-width="1.0"/>
<line x1="100.5" y1="376.7" x2="76.1" y2="390.7" stroke="rgb(0,0,0)"  stroke-width="1.0"/>
<line x1="74.5" y1="399.9" x2="40.0" y2="379.9" stroke="rgb(0,0,0)"  stroke-width="1.0"/>
<line x1="40.0" y1="379.9" x2="40.0" y2="339.9" stroke="rgb(0,0,0)"  stroke-width="1.0"/>
<line x1="47.2" y1="373.9" x2="47.2" y2="345.9" stroke="rgb(0,0,0)"  stroke-width="1.0"/>
<line x1="40.0" y1="339.9" x2="74.5" y2="319.9" stroke="rgb(0,0,0)"  stroke-width="1.0"/>
<line x1="74.5" y1="319.9" x2="109.3" y2="339.9" stroke="rgb(0,0,0)"  stroke-width="1.0"/>
<line x1="76.1" y1="329.2" x2="100.5" y2="343.2" stroke="rgb(0,0,0)"  stroke-width="1.0"/>
<line x1="109.3" y1="339.9" x2="109.3" y2="379.9" stroke="rgb(0,0,0)"  stroke-width="1.0"/>
<text x="172.546656" y="107.983727" fill="rgb(12,12,255)"  stroke="rgb(12,12,255)" stroke-width="1" font-size="16" >N</text>
<text x="91.275752" y="107.983727" fill="rgb(12,12,255)"  stroke="rgb(12,12,255)" stroke-width="1" font-size="16" >HN</text>
<text x="137.811837" y="207.956606" fill="rgb(12,12,255)"  stroke="rgb(12,12,255)" stroke-width="1" font-size="16" >N</text>
<text x="172.546656" y="427.896938" fill="rgb(102,102,102)"  stroke="rgb(102,102,102)" stroke-width="1" font-size="16" >CH</text>
<text x="137.811837" y="48.000000" fill="rgb(255,12,12)"  stroke="rgb(255,12,12)" stroke-width="1" font-size="16" >O</text>
<text x="68.536085" y="167.967454" fill="rgb(255,12,12)"  stroke="rgb(255,12,12)" stroke-width="1" font-size="16" >O</text>
<text x="209.082742" y="167.967454" fill="rgb(12,12,255)"  stroke="rgb(12,12,255)" stroke-width="1" font-size="16" >NH</text>
<text x="233.082742" y="171.647454" fill="rgb(12,12,255)"  stroke="rgb(12,12,255)" stroke-width="1" font-size="13" >2</text>
<text x="68.536085" y="207.956606" fill="rgb(255,12,12)"  stroke="rgb(255,12,12)" stroke-width="1" font-size="16" >O</text>
<text x="56.536085" y="287.934908" fill="rgb(12,12,255)"  stroke="rgb(12,12,255)" stroke-width="1" font-size="16" >HN</text>
<text x="243.822408" y="227.951181" fill="rgb(102,102,102)"  stroke="rgb(102,102,102)" stroke-width="1" font-size="16" >CH</text>
<text x="267.822408" y="231.631181" fill="rgb(102,102,102)"  stroke="rgb(102,102,102)" stroke-width="1" font-size="13" >3</text>
<text x="229.077317" y="173.221786" fill="rgb(102,102,102)"  stroke="rgb(102,102,102)" stroke-width="1" font-size="16" >CH</text>
<text x="253.077317" y="176.901786" fill="rgb(102,102,102)"  stroke="rgb(102,102,102)" stroke-width="1" font-size="13" >3</text>
<text font-size="18.000000" fill ="black" font-family="sans-serif"
x="10.000000" y="20.000000" ></text>
<title> - OBDepict</title>
</svg>
