<?xml version="1.0"?>
<svg xmlns="http://www.w3.org/2000/svg"
xmlns:xlink="http://www.w3.org/1999/xlink" xmlns:cml="http://www.xml-cml.org/schema" width="537.051" height="439.908" x="0" y="0" font-family="sans-serif" stroke="rgb(0,0,0)" stroke-width="1"  stroke-linecap="round">
<rect x="0%" y="0%" width="100%" height="100%" stroke-width="0" fill="rgb(255,255,255)"  />
<line x1="100.0" y1="192.7" x2="80.0" y2="227.2" stroke="rgb(0,0,0)"  stroke-width="1.0"/>
<line x1="497.1" y1="180.0" x2="497.1" y2="220.0" stroke="rgb(0,0,0)"  stroke-width="1.0"/>
<line x1="497.1" y1="153.0" x2="497.1" y2="180.0" stroke="rgb(0,0,0)"  stroke-width="1.0"/>
<line x1="501.3" y1="153.0" x2="501.3" y2="180.0" stroke="rgb(0,0,0)"  stroke-width="1.0"/>
<line x1="492.9" y1="153.0" x2="492.9" y2="180.0" stroke="rgb(0,0,0)"  stroke-width="1.0"/>
<line x1="393.0" y1="279.9" x2="427.8" y2="299.9" stroke="rgb(0,0,0)"  stroke-width="1.0"/>
<line x1="393.0" y1="252.9" x2="393.0" y2="279.9" stroke="rgb(0,0,0)"  stroke-width="1.0"/>
<line x1="127.0" y1="195.7" x2="100.0" y2="195.7" stroke="rgb(0,0,0)"  stroke-width="1.0"/>
<line x1="127.0" y1="189.7" x2="100.0" y2="189.7" stroke="rgb(0,0,0)"  stroke-width="1.0"/>
<line x1="90.9" y1="252.2" x2="77.4" y2="228.7" stroke="rgb(0,0,0)"  stroke-width="1.0"/>
<line x1="96.1" y1="249.2" x2="82.6" y2="225.7" stroke="rgb(0,0,0)"  stroke-width="1.0"/>
<line x1="254.5" y1="160.0" x2="278.0" y2="173.5" stroke="rgb(0,0,0)"  stroke-width="1.0"/>
<line x1="358.5" y1="220.0" x2="381.8" y2="233.4" stroke="rgb(0,0,0)"  stroke-width="1.0"/>
<line x1="86.5" y1="169.2" x2="100.0" y2="192.7" stroke="rgb(0,0,0)"  stroke-width="1.0"/>
<line x1="53.0" y1="227.2" x2="80.0" y2="227.2" stroke="rgb(0,0,0)"  stroke-width="1.0"/>
<line x1="462.3" y1="386.9" x2="462.3" y2="359.9" stroke="rgb(0,0,0)"  stroke-width="1.0"/>
<line x1="462.3" y1="252.9" x2="462.3" y2="279.9" stroke="rgb(0,0,0)"  stroke-width="1.0"/>
<line x1="254.5" y1="120.0" x2="254.5" y2="160.0" stroke="rgb(0,0,0)"  stroke-width="1.0"/>
<line x1="497.1" y1="220.0" x2="473.6" y2="233.5" stroke="rgb(0,0,0)"  stroke-width="1.0"/>
<line x1="427.8" y1="299.9" x2="462.3" y2="279.9" stroke="rgb(0,0,0)"  stroke-width="1.0"/>
<line x1="436.6" y1="303.2" x2="460.7" y2="289.2" stroke="rgb(0,0,0)"  stroke-width="1.0"/>
<line x1="462.3" y1="279.9" x2="497.1" y2="299.9" stroke="rgb(0,0,0)"  stroke-width="1.0"/>
<line x1="497.1" y1="299.9" x2="497.1" y2="339.9" stroke="rgb(0,0,0)"  stroke-width="1.0"/>
<line x1="489.9" y1="305.9" x2="489.9" y2="333.9" stroke="rgb(0,0,0)"  stroke-width="1.0"/>
<line x1="497.1" y1="339.9" x2="462.3" y2="359.9" stroke="rgb(0,0,0)"  stroke-width="1.0"/>
<line x1="462.3" y1="359.9" x2="427.8" y2="339.9" stroke="rgb(0,0,0)"  stroke-width="1.0"/>
<line x1="460.7" y1="350.7" x2="436.6" y2="336.7" stroke="rgb(0,0,0)"  stroke-width="1.0"/>
<line x1="427.8" y1="339.9" x2="427.8" y2="299.9" stroke="rgb(0,0,0)"  stroke-width="1.0"/>
<line x1="323.8" y1="239.9" x2="289.2" y2="220.0" stroke="rgb(0,0,0)"  stroke-width="1.0"/>
<line x1="289.2" y1="220.0" x2="289.2" y2="193.0" stroke="rgb(0,0,0)"  stroke-width="1.0"/>
<line x1="300.5" y1="173.5" x2="323.8" y2="160.0" stroke="rgb(0,0,0)"  stroke-width="1.0"/>
<line x1="323.8" y1="160.0" x2="358.5" y2="180.0" stroke="rgb(0,0,0)"  stroke-width="1.0"/>
<line x1="358.5" y1="180.0" x2="358.5" y2="220.0" stroke="rgb(0,0,0)"  stroke-width="1.0"/>
<line x1="358.5" y1="220.0" x2="323.8" y2="239.9" stroke="rgb(0,0,0)"  stroke-width="1.0"/>
<line x1="254.5" y1="120.0" x2="220.0" y2="100.0" stroke="rgb(0,0,0)"  stroke-width="1.0"/>
<line x1="252.9" y1="110.7" x2="228.8" y2="96.8" stroke="rgb(0,0,0)"  stroke-width="1.0"/>
<line x1="220.0" y1="100.0" x2="220.0" y2="60.0" stroke="rgb(0,0,0)"  stroke-width="1.0"/>
<line x1="220.0" y1="60.0" x2="254.5" y2="40.0" stroke="rgb(0,0,0)"  stroke-width="1.0"/>
<line x1="228.8" y1="63.2" x2="252.9" y2="49.2" stroke="rgb(0,0,0)"  stroke-width="1.0"/>
<line x1="254.5" y1="40.0" x2="289.2" y2="60.0" stroke="rgb(0,0,0)"  stroke-width="1.0"/>
<line x1="289.2" y1="60.0" x2="289.2" y2="100.0" stroke="rgb(0,0,0)"  stroke-width="1.0"/>
<line x1="282.0" y1="66.0" x2="282.0" y2="94.0" stroke="rgb(0,0,0)"  stroke-width="1.0"/>
<line x1="289.2" y1="100.0" x2="254.5" y2="120.0" stroke="rgb(0,0,0)"  stroke-width="1.0"/>
<text x="283.225749" y="187.964087" fill="rgb(12,12,255)"  stroke="rgb(12,12,255)" stroke-width="1" font-size="16" >N</text>
<text x="491.051211" y="147.974348" fill="rgb(102,102,102)"  stroke="rgb(102,102,102)" stroke-width="1" font-size="16" >CH</text>
<text x="387.039112" y="247.948696" fill="rgb(12,12,255)"  stroke="rgb(12,12,255)" stroke-width="1" font-size="16" >NH</text>
<text x="133.974348" y="200.688095" fill="rgb(255,12,12)"  stroke="rgb(255,12,12)" stroke-width="1" font-size="16" >O</text>
<text x="93.984609" y="269.960018" fill="rgb(255,12,12)"  stroke="rgb(255,12,12)" stroke-width="1" font-size="16" >O</text>
<text x="61.989739" y="165.947918" fill="rgb(255,12,12)"  stroke="rgb(255,12,12)" stroke-width="1" font-size="16" >HO</text>
<text x="22.000000" y="235.224688" fill="rgb(255,12,12)"  stroke="rgb(255,12,12)" stroke-width="1" font-size="16" >HO</text>
<text x="456.315882" y="407.907652" fill="rgb(165,40,40)"  stroke="rgb(165,40,40)" stroke-width="1" font-size="16" >Br</text>
<text x="456.315882" y="247.948696" fill="rgb(255,12,12)"  stroke="rgb(255,12,12)" stroke-width="1" font-size="16" >O</text>
<text font-size="18.000000" fill ="black" font-family="sans-serif"
x="10.000000" y="20.000000" ></text>
<title> - OBDepict</title>
</svg>
