<?xml version="1.0"?>
<svg xmlns="http://www.w3.org/2000/svg"
xmlns:xlink="http://www.w3.org/1999/xlink" xmlns:cml="http://www.xml-cml.org/schema" width="399.544" height="308.863" x="0" y="0" font-family="sans-serif" stroke="rgb(0,0,0)" stroke-width="1"  stroke-linecap="round">
<rect x="0%" y="0%" width="100%" height="100%" stroke-width="0" fill="rgb(255,255,255)"  />
<line x1="222.5" y1="100.0" x2="242.5" y2="118.0" stroke="rgb(0,0,0)"  stroke-width="1.0"/>
<line x1="218.5" y1="104.4" x2="238.5" y2="122.4" stroke="rgb(0,0,0)"  stroke-width="1.0"/>
<line x1="143.0" y1="79.0" x2="162.9" y2="97.0" stroke="rgb(0,0,0)"  stroke-width="1.0"/>
<line x1="105.0" y1="91.5" x2="143.0" y2="79.0" stroke="rgb(0,0,0)"  stroke-width="1.0"/>
<line x1="184.9" y1="101.7" x2="198.5" y2="97.4" stroke="rgb(0,0,0)"  stroke-width="1.0"/>
<line x1="251.5" y1="242.0" x2="281.0" y2="215.4" stroke="rgb(0,0,0)"  stroke-width="1.0"/>
<line x1="231.2" y1="260.2" x2="251.5" y2="242.0" stroke="rgb(0,0,0)"  stroke-width="1.0"/>
<line x1="228.4" y1="257.1" x2="248.7" y2="238.9" stroke="rgb(0,0,0)"  stroke-width="1.0"/>
<line x1="234.0" y1="263.3" x2="254.3" y2="245.2" stroke="rgb(0,0,0)"  stroke-width="1.0"/>
<line x1="211.3" y1="170.8" x2="234.9" y2="157.4" stroke="rgb(0,0,0)"  stroke-width="1.0"/>
<line x1="214.3" y1="176.0" x2="237.8" y2="162.6" stroke="rgb(0,0,0)"  stroke-width="1.0"/>
<line x1="151.6" y1="53.3" x2="145.9" y2="79.6" stroke="rgb(0,0,0)"  stroke-width="1.0"/>
<line x1="145.7" y1="52.1" x2="140.1" y2="78.4" stroke="rgb(0,0,0)"  stroke-width="1.0"/>
<line x1="281.0" y1="215.4" x2="275.5" y2="188.9" stroke="rgb(0,0,0)"  stroke-width="1.0"/>
<line x1="236.4" y1="160.0" x2="261.0" y2="170.9" stroke="rgb(0,0,0)"  stroke-width="1.0"/>
<line x1="281.6" y1="166.5" x2="299.5" y2="146.5" stroke="rgb(0,0,0)"  stroke-width="1.0"/>
<line x1="299.5" y1="146.5" x2="279.5" y2="112.0" stroke="rgb(0,0,0)"  stroke-width="1.0"/>
<line x1="290.3" y1="144.9" x2="276.3" y2="120.8" stroke="rgb(0,0,0)"  stroke-width="1.0"/>
<line x1="279.5" y1="112.0" x2="240.5" y2="120.2" stroke="rgb(0,0,0)"  stroke-width="1.0"/>
<line x1="240.5" y1="120.2" x2="236.4" y2="160.0" stroke="rgb(0,0,0)"  stroke-width="1.0"/>
<line x1="105.0" y1="91.5" x2="96.6" y2="117.2" stroke="rgb(0,0,0)"  stroke-width="1.0"/>
<line x1="79.5" y1="129.5" x2="52.5" y2="129.5" stroke="rgb(0,0,0)"  stroke-width="1.0"/>
<line x1="52.5" y1="129.5" x2="40.0" y2="91.5" stroke="rgb(0,0,0)"  stroke-width="1.0"/>
<line x1="57.5" y1="121.6" x2="48.7" y2="95.0" stroke="rgb(0,0,0)"  stroke-width="1.0"/>
<line x1="40.0" y1="91.5" x2="72.5" y2="68.0" stroke="rgb(0,0,0)"  stroke-width="1.0"/>
<line x1="72.5" y1="68.0" x2="105.0" y2="91.5" stroke="rgb(0,0,0)"  stroke-width="1.0"/>
<line x1="73.1" y1="77.4" x2="95.9" y2="93.8" stroke="rgb(0,0,0)"  stroke-width="1.0"/>
<line x1="299.5" y1="146.5" x2="339.5" y2="146.5" stroke="rgb(0,0,0)"  stroke-width="1.0"/>
<line x1="339.5" y1="146.5" x2="359.5" y2="112.0" stroke="rgb(0,0,0)"  stroke-width="1.0"/>
<line x1="336.3" y1="137.7" x2="350.3" y2="113.6" stroke="rgb(0,0,0)"  stroke-width="1.0"/>
<line x1="359.5" y1="112.0" x2="339.5" y2="77.2" stroke="rgb(0,0,0)"  stroke-width="1.0"/>
<line x1="339.5" y1="77.2" x2="299.5" y2="77.2" stroke="rgb(0,0,0)"  stroke-width="1.0"/>
<line x1="333.5" y1="84.4" x2="305.5" y2="84.4" stroke="rgb(0,0,0)"  stroke-width="1.0"/>
<line x1="299.5" y1="77.2" x2="279.5" y2="112.0" stroke="rgb(0,0,0)"  stroke-width="1.0"/>
<text x="266.863697" y="184.188746" fill="rgb(12,12,255)"  stroke="rgb(12,12,255)" stroke-width="1" font-size="16" >N</text>
<text x="204.857882" y="101.509476" fill="rgb(12,12,255)"  stroke="rgb(12,12,255)" stroke-width="1" font-size="16" >N</text>
<text x="166.517668" y="113.676893" fill="rgb(12,12,255)"  stroke="rgb(12,12,255)" stroke-width="1" font-size="16" >N</text>
<text x="166.517668" y="129.676893" fill="rgb(12,12,255)"  stroke="rgb(12,12,255)" stroke-width="1" font-size="16" >H</text>
<text x="86.510478" y="137.512227" fill="rgb(178,178,0)"  stroke="rgb(178,178,0)" stroke-width="1" font-size="16" >S</text>
<text x="203.526801" y="276.862853" fill="rgb(102,102,102)"  stroke="rgb(102,102,102)" stroke-width="1" font-size="16" >HC</text>
<text x="195.522578" y="187.850125" fill="rgb(255,12,12)"  stroke="rgb(255,12,12)" stroke-width="1" font-size="16" >O</text>
<text x="145.349564" y="48.000000" fill="rgb(255,12,12)"  stroke="rgb(255,12,12)" stroke-width="1" font-size="16" >O</text>
<text font-size="18.000000" fill ="black" font-family="sans-serif"
x="10.000000" y="20.000000" ></text>
<title> - OBDepict</title>
</svg>
