<?xml version="1.0"?>
<svg xmlns="http://www.w3.org/2000/svg"
xmlns:xlink="http://www.w3.org/1999/xlink" xmlns:cml="http://www.xml-cml.org/schema" width="278.156" height="364.611" x="0" y="0" font-family="sans-serif" stroke="rgb(0,0,0)" stroke-width="1"  stroke-linecap="round">
<rect x="0%" y="0%" width="100%" height="100%" stroke-width="0" fill="rgb(255,255,255)"  />
<line x1="155.3" y1="183.8" x2="167.7" y2="222.0" stroke="rgb(0,0,0)"  stroke-width="1.0"/>
<line x1="173.3" y1="163.8" x2="155.3" y2="183.8" stroke="rgb(0,0,0)"  stroke-width="1.0"/>
<line x1="79.2" y1="61.4" x2="118.2" y2="69.7" stroke="rgb(0,0,0)"  stroke-width="1.0"/>
<line x1="52.7" y1="55.8" x2="79.2" y2="61.4" stroke="rgb(0,0,0)"  stroke-width="1.0"/>
<line x1="53.6" y1="51.7" x2="80.1" y2="57.3" stroke="rgb(0,0,0)"  stroke-width="1.0"/>
<line x1="51.9" y1="59.9" x2="78.3" y2="65.5" stroke="rgb(0,0,0)"  stroke-width="1.0"/>
<line x1="129.5" y1="175.3" x2="156.0" y2="180.9" stroke="rgb(0,0,0)"  stroke-width="1.0"/>
<line x1="128.2" y1="181.2" x2="154.7" y2="186.8" stroke="rgb(0,0,0)"  stroke-width="1.0"/>
<line x1="169.7" y1="116.2" x2="178.0" y2="141.8" stroke="rgb(0,0,0)"  stroke-width="1.0"/>
<line x1="227.6" y1="218.3" x2="205.6" y2="234.3" stroke="rgb(0,0,0)"  stroke-width="1.0"/>
<line x1="159.4" y1="312.2" x2="167.7" y2="286.6" stroke="rgb(0,0,0)"  stroke-width="1.0"/>
<line x1="167.7" y1="222.0" x2="205.6" y2="234.3" stroke="rgb(0,0,0)"  stroke-width="1.0"/>
<line x1="171.1" y1="230.7" x2="197.7" y2="239.3" stroke="rgb(0,0,0)"  stroke-width="1.0"/>
<line x1="205.6" y1="234.3" x2="205.6" y2="261.3" stroke="rgb(0,0,0)"  stroke-width="1.0"/>
<line x1="193.1" y1="278.4" x2="167.7" y2="286.6" stroke="rgb(0,0,0)"  stroke-width="1.0"/>
<line x1="189.0" y1="272.1" x2="171.1" y2="277.9" stroke="rgb(0,0,0)"  stroke-width="1.0"/>
<line x1="167.7" y1="286.6" x2="151.9" y2="264.8" stroke="rgb(0,0,0)"  stroke-width="1.0"/>
<line x1="151.9" y1="243.8" x2="167.7" y2="222.0" stroke="rgb(0,0,0)"  stroke-width="1.0"/>
<line x1="169.7" y1="116.2" x2="130.7" y2="107.9" stroke="rgb(0,0,0)"  stroke-width="1.0"/>
<line x1="165.3" y1="107.9" x2="138.1" y2="102.1" stroke="rgb(0,0,0)"  stroke-width="1.0"/>
<line x1="130.7" y1="107.9" x2="118.2" y2="69.7" stroke="rgb(0,0,0)"  stroke-width="1.0"/>
<line x1="118.2" y1="69.7" x2="145.0" y2="40.0" stroke="rgb(0,0,0)"  stroke-width="1.0"/>
<line x1="127.5" y1="70.1" x2="146.4" y2="49.3" stroke="rgb(0,0,0)"  stroke-width="1.0"/>
<line x1="145.0" y1="40.0" x2="184.2" y2="48.3" stroke="rgb(0,0,0)"  stroke-width="1.0"/>
<line x1="184.2" y1="48.3" x2="196.5" y2="86.5" stroke="rgb(0,0,0)"  stroke-width="1.0"/>
<line x1="179.2" y1="56.2" x2="187.9" y2="83.0" stroke="rgb(0,0,0)"  stroke-width="1.0"/>
<line x1="196.5" y1="86.5" x2="169.7" y2="116.2" stroke="rgb(0,0,0)"  stroke-width="1.0"/>
<text x="199.635204" y="282.311321" fill="rgb(12,12,255)"  stroke="rgb(12,12,255)" stroke-width="1" font-size="16" >N</text>
<text x="138.230048" y="262.318606" fill="rgb(178,178,0)"  stroke="rgb(178,178,0)" stroke-width="1" font-size="16" >S</text>
<text x="176.002155" y="162.126903" fill="rgb(12,12,255)"  stroke="rgb(12,12,255)" stroke-width="1" font-size="16" >NH</text>
<text x="22.000000" y="61.129472" fill="rgb(102,102,102)"  stroke="rgb(102,102,102)" stroke-width="1" font-size="16" >HC</text>
<text x="110.150937" y="183.536921" fill="rgb(255,12,12)"  stroke="rgb(255,12,12)" stroke-width="1" font-size="16" >O</text>
<text x="234.155523" y="218.687988" fill="rgb(102,102,102)"  stroke="rgb(102,102,102)" stroke-width="1" font-size="16" >CH</text>
<text x="258.155523" y="222.367988" fill="rgb(102,102,102)"  stroke="rgb(102,102,102)" stroke-width="1" font-size="13" >3</text>
<text x="129.340347" y="332.611032" fill="rgb(102,102,102)"  stroke="rgb(102,102,102)" stroke-width="1" font-size="16" >H</text>
<text x="141.340347" y="336.291032" fill="rgb(102,102,102)"  stroke="rgb(102,102,102)" stroke-width="1" font-size="13" >3</text>
<text x="147.840347" y="332.611032" fill="rgb(102,102,102)"  stroke="rgb(102,102,102)" stroke-width="1" font-size="16" >C</text>
<text font-size="18.000000" fill ="black" font-family="sans-serif"
x="10.000000" y="20.000000" ></text>
<title> - OBDepict</title>
</svg>
