<?xml version="1.0"?>
<svg xmlns="http://www.w3.org/2000/svg"
xmlns:xlink="http://www.w3.org/1999/xlink" xmlns:cml="http://www.xml-cml.org/schema" width="357.291" height="160.111" x="0" y="0" font-family="sans-serif" stroke="rgb(0,0,0)" stroke-width="1"  stroke-linecap="round">
<rect x="0%" y="0%" width="100%" height="100%" stroke-width="0" fill="rgb(255,255,255)"  />
<line x1="51.3" y1="54.0" x2="74.7" y2="40.4" stroke="rgb(0,0,0)"  stroke-width="1.0"/>
<line x1="49.2" y1="50.3" x2="72.6" y2="36.8" stroke="rgb(0,0,0)"  stroke-width="1.0"/>
<line x1="53.4" y1="57.6" x2="76.8" y2="44.1" stroke="rgb(0,0,0)"  stroke-width="1.0"/>
<line x1="178.4" y1="60.5" x2="155.0" y2="46.9" stroke="rgb(0,0,0)"  stroke-width="1.0"/>
<line x1="155.4" y1="113.6" x2="178.4" y2="100.1" stroke="rgb(0,0,0)"  stroke-width="1.0"/>
<line x1="132.5" y1="47.0" x2="109.4" y2="60.5" stroke="rgb(0,0,0)"  stroke-width="1.0"/>
<line x1="109.4" y1="60.5" x2="74.7" y2="40.4" stroke="rgb(0,0,0)"  stroke-width="1.0"/>
<line x1="306.0" y1="106.6" x2="282.6" y2="120.1" stroke="rgb(0,0,0)"  stroke-width="1.0"/>
<line x1="282.6" y1="120.1" x2="247.9" y2="100.1" stroke="rgb(0,0,0)"  stroke-width="1.0"/>
<line x1="178.4" y1="100.1" x2="213.1" y2="120.1" stroke="rgb(0,0,0)"  stroke-width="1.0"/>
<line x1="213.1" y1="120.1" x2="247.9" y2="100.1" stroke="rgb(0,0,0)"  stroke-width="1.0"/>
<line x1="214.7" y1="110.9" x2="239.1" y2="96.8" stroke="rgb(0,0,0)"  stroke-width="1.0"/>
<line x1="247.9" y1="100.1" x2="247.9" y2="60.0" stroke="rgb(0,0,0)"  stroke-width="1.0"/>
<line x1="247.9" y1="60.0" x2="213.1" y2="40.0" stroke="rgb(0,0,0)"  stroke-width="1.0"/>
<line x1="239.1" y1="63.3" x2="214.7" y2="49.2" stroke="rgb(0,0,0)"  stroke-width="1.0"/>
<line x1="213.1" y1="40.0" x2="178.4" y2="60.5" stroke="rgb(0,0,0)"  stroke-width="1.0"/>
<line x1="178.4" y1="60.5" x2="178.4" y2="100.1" stroke="rgb(0,0,0)"  stroke-width="1.0"/>
<line x1="185.6" y1="66.5" x2="185.6" y2="94.1" stroke="rgb(0,0,0)"  stroke-width="1.0"/>
<text x="22.000000" y="68.472385" fill="rgb(102,102,102)"  stroke="rgb(102,102,102)" stroke-width="1" font-size="16" >HC</text>
<text x="126.149734" y="128.111443" fill="rgb(165,40,40)"  stroke="rgb(165,40,40)" stroke-width="1" font-size="16" >Br</text>
<text x="137.702781" y="48.442095" fill="rgb(255,12,12)"  stroke="rgb(255,12,12)" stroke-width="1" font-size="16" >O</text>
<text x="311.290529" y="108.086011" fill="rgb(255,12,12)"  stroke="rgb(255,12,12)" stroke-width="1" font-size="16" >OH</text>
<text font-size="18.000000" fill ="black" font-family="sans-serif"
x="10.000000" y="20.000000" ></text>
<title> - OBDepict</title>
</svg>
