<?xml version="1.0"?>
<svg xmlns="http://www.w3.org/2000/svg"
xmlns:xlink="http://www.w3.org/1999/xlink" xmlns:cml="http://www.xml-cml.org/schema" width="258.592" height="520.007" x="0" y="0" font-family="sans-serif" stroke="rgb(0,0,0)" stroke-width="1"  stroke-linecap="round">
<rect x="0%" y="0%" width="100%" height="100%" stroke-width="0" fill="rgb(255,255,255)"  />
<line x1="178.6" y1="180.0" x2="178.6" y2="220.0" stroke="rgb(0,0,0)"  stroke-width="1.0"/>
<line x1="155.3" y1="166.5" x2="178.6" y2="180.0" stroke="rgb(0,0,0)"  stroke-width="1.0"/>
<line x1="144.0" y1="120.0" x2="144.0" y2="147.0" stroke="rgb(0,0,0)"  stroke-width="1.0"/>
<line x1="178.6" y1="300.0" x2="178.6" y2="327.0" stroke="rgb(0,0,0)"  stroke-width="1.0"/>
<line x1="144.0" y1="440.0" x2="144.0" y2="400.0" stroke="rgb(0,0,0)"  stroke-width="1.0"/>
<line x1="144.0" y1="467.0" x2="144.0" y2="440.0" stroke="rgb(0,0,0)"  stroke-width="1.0"/>
<line x1="139.8" y1="467.0" x2="139.8" y2="440.0" stroke="rgb(0,0,0)"  stroke-width="1.0"/>
<line x1="148.2" y1="467.0" x2="148.2" y2="440.0" stroke="rgb(0,0,0)"  stroke-width="1.0"/>
<line x1="205.6" y1="343.0" x2="191.6" y2="343.0" stroke="rgb(0,0,0)"  stroke-width="1.0"/>
<line x1="205.6" y1="337.0" x2="191.6" y2="337.0" stroke="rgb(0,0,0)"  stroke-width="1.0"/>
<line x1="151.6" y1="337.0" x2="165.6" y2="337.0" stroke="rgb(0,0,0)"  stroke-width="1.0"/>
<line x1="151.6" y1="343.0" x2="165.6" y2="343.0" stroke="rgb(0,0,0)"  stroke-width="1.0"/>
<line x1="178.6" y1="367.0" x2="178.6" y2="353.0" stroke="rgb(0,0,0)"  stroke-width="1.0"/>
<line x1="203.6" y1="169.1" x2="180.1" y2="182.6" stroke="rgb(0,0,0)"  stroke-width="1.0"/>
<line x1="200.6" y1="163.9" x2="177.1" y2="177.4" stroke="rgb(0,0,0)"  stroke-width="1.0"/>
<line x1="144.0" y1="400.0" x2="167.3" y2="386.5" stroke="rgb(0,0,0)"  stroke-width="1.0"/>
<line x1="178.6" y1="300.0" x2="144.0" y2="280.0" stroke="rgb(0,0,0)"  stroke-width="1.0"/>
<line x1="144.0" y1="280.0" x2="144.0" y2="240.0" stroke="rgb(0,0,0)"  stroke-width="1.0"/>
<line x1="151.2" y1="274.0" x2="151.2" y2="246.0" stroke="rgb(0,0,0)"  stroke-width="1.0"/>
<line x1="144.0" y1="240.0" x2="178.6" y2="220.0" stroke="rgb(0,0,0)"  stroke-width="1.0"/>
<line x1="178.6" y1="220.0" x2="213.3" y2="240.0" stroke="rgb(0,0,0)"  stroke-width="1.0"/>
<line x1="180.2" y1="229.2" x2="204.5" y2="243.3" stroke="rgb(0,0,0)"  stroke-width="1.0"/>
<line x1="213.3" y1="240.0" x2="213.3" y2="280.0" stroke="rgb(0,0,0)"  stroke-width="1.0"/>
<line x1="213.3" y1="280.0" x2="178.6" y2="300.0" stroke="rgb(0,0,0)"  stroke-width="1.0"/>
<line x1="204.5" y1="276.8" x2="180.2" y2="290.8" stroke="rgb(0,0,0)"  stroke-width="1.0"/>
<line x1="144.0" y1="120.0" x2="109.3" y2="100.0" stroke="rgb(0,0,0)"  stroke-width="1.0"/>
<line x1="142.4" y1="110.8" x2="118.1" y2="96.8" stroke="rgb(0,0,0)"  stroke-width="1.0"/>
<line x1="109.3" y1="100.0" x2="109.3" y2="60.0" stroke="rgb(0,0,0)"  stroke-width="1.0"/>
<line x1="109.3" y1="60.0" x2="144.0" y2="40.0" stroke="rgb(0,0,0)"  stroke-width="1.0"/>
<line x1="118.1" y1="63.2" x2="142.4" y2="49.2" stroke="rgb(0,0,0)"  stroke-width="1.0"/>
<line x1="144.0" y1="40.0" x2="178.6" y2="60.0" stroke="rgb(0,0,0)"  stroke-width="1.0"/>
<line x1="178.6" y1="60.0" x2="178.6" y2="100.0" stroke="rgb(0,0,0)"  stroke-width="1.0"/>
<line x1="171.4" y1="66.0" x2="171.4" y2="94.0" stroke="rgb(0,0,0)"  stroke-width="1.0"/>
<line x1="178.6" y1="100.0" x2="144.0" y2="120.0" stroke="rgb(0,0,0)"  stroke-width="1.0"/>
<line x1="109.3" y1="100.0" x2="74.7" y2="120.0" stroke="rgb(0,0,0)"  stroke-width="1.0"/>
<line x1="74.7" y1="120.0" x2="40.0" y2="100.0" stroke="rgb(0,0,0)"  stroke-width="1.0"/>
<line x1="40.0" y1="100.0" x2="40.0" y2="60.0" stroke="rgb(0,0,0)"  stroke-width="1.0"/>
<line x1="40.0" y1="60.0" x2="74.7" y2="40.0" stroke="rgb(0,0,0)"  stroke-width="1.0"/>
<line x1="74.7" y1="40.0" x2="109.3" y2="60.0" stroke="rgb(0,0,0)"  stroke-width="1.0"/>
<text x="172.591445" y="348.005096" fill="rgb(178,178,0)"  stroke="rgb(178,178,0)" stroke-width="1" font-size="16" >S</text>
<text x="126.045404" y="168.002038" fill="rgb(12,12,255)"  stroke="rgb(12,12,255)" stroke-width="1" font-size="16" >HN</text>
<text x="138.045404" y="488.007474" fill="rgb(102,102,102)"  stroke="rgb(102,102,102)" stroke-width="1" font-size="16" >CH</text>
<text x="212.592124" y="348.005096" fill="rgb(255,12,12)"  stroke="rgb(255,12,12)" stroke-width="1" font-size="16" >O</text>
<text x="132.590766" y="348.005096" fill="rgb(255,12,12)"  stroke="rgb(255,12,12)" stroke-width="1" font-size="16" >O</text>
<text x="172.591445" y="388.005775" fill="rgb(12,12,255)"  stroke="rgb(12,12,255)" stroke-width="1" font-size="16" >NH</text>
<text x="207.336278" y="168.002038" fill="rgb(255,12,12)"  stroke="rgb(255,12,12)" stroke-width="1" font-size="16" >O</text>
<text font-size="18.000000" fill ="black" font-family="sans-serif"
x="10.000000" y="20.000000" ></text>
<title> - OBDepict</title>
</svg>
