<?xml version="1.0"?>
<svg xmlns="http://www.w3.org/2000/svg"
xmlns:xlink="http://www.w3.org/1999/xlink" xmlns:cml="http://www.xml-cml.org/schema" width="357.799" height="409.863" x="0" y="0" font-family="sans-serif" stroke="rgb(0,0,0)" stroke-width="1"  stroke-linecap="round">
<rect x="0%" y="0%" width="100%" height="100%" stroke-width="0" fill="rgb(255,255,255)"  />
<line x1="228.3" y1="289.9" x2="189.9" y2="302.2" stroke="rgb(0,0,0)"  stroke-width="1.0"/>
<line x1="226.4" y1="284.2" x2="188.0" y2="296.4" stroke="rgb(0,0,0)"  stroke-width="1.0"/>
<line x1="86.4" y1="287.0" x2="112.1" y2="295.3" stroke="rgb(0,0,0)"  stroke-width="1.0"/>
<line x1="235.8" y1="247.4" x2="227.3" y2="287.0" stroke="rgb(0,0,0)"  stroke-width="1.0"/>
<line x1="78.0" y1="248.0" x2="86.4" y2="287.0" stroke="rgb(0,0,0)"  stroke-width="1.0"/>
<line x1="309.4" y1="79.2" x2="300.3" y2="118.4" stroke="rgb(0,0,0)"  stroke-width="1.0"/>
<line x1="315.1" y1="52.7" x2="309.4" y2="79.2" stroke="rgb(0,0,0)"  stroke-width="1.0"/>
<line x1="319.2" y1="53.6" x2="313.5" y2="80.1" stroke="rgb(0,0,0)"  stroke-width="1.0"/>
<line x1="311.0" y1="51.8" x2="305.3" y2="78.3" stroke="rgb(0,0,0)"  stroke-width="1.0"/>
<line x1="118.2" y1="357.6" x2="134.5" y2="335.5" stroke="rgb(0,0,0)"  stroke-width="1.0"/>
<line x1="123.1" y1="361.2" x2="139.3" y2="339.1" stroke="rgb(0,0,0)"  stroke-width="1.0"/>
<line x1="159.5" y1="248.8" x2="159.8" y2="275.8" stroke="rgb(0,0,0)"  stroke-width="1.0"/>
<line x1="153.5" y1="248.8" x2="153.8" y2="275.8" stroke="rgb(0,0,0)"  stroke-width="1.0"/>
<line x1="53.3" y1="237.1" x2="78.9" y2="245.2" stroke="rgb(0,0,0)"  stroke-width="1.0"/>
<line x1="51.5" y1="242.8" x2="77.1" y2="250.9" stroke="rgb(0,0,0)"  stroke-width="1.0"/>
<line x1="293.7" y1="253.8" x2="273.8" y2="236.0" stroke="rgb(0,0,0)"  stroke-width="1.0"/>
<line x1="97.9" y1="230.2" x2="78.0" y2="248.0" stroke="rgb(0,0,0)"  stroke-width="1.0"/>
<line x1="259.0" y1="142.9" x2="252.9" y2="169.7" stroke="rgb(0,0,0)"  stroke-width="1.0"/>
<line x1="195.0" y1="163.3" x2="214.7" y2="181.1" stroke="rgb(0,0,0)"  stroke-width="1.0"/>
<line x1="300.3" y1="118.4" x2="274.3" y2="126.4" stroke="rgb(0,0,0)"  stroke-width="1.0"/>
<line x1="66.5" y1="305.1" x2="86.4" y2="287.0" stroke="rgb(0,0,0)"  stroke-width="1.0"/>
<line x1="101.8" y1="195.0" x2="104.8" y2="208.8" stroke="rgb(0,0,0)"  stroke-width="1.0"/>
<line x1="160.2" y1="162.2" x2="172.9" y2="158.4" stroke="rgb(0,0,0)"  stroke-width="1.0"/>
<line x1="134.9" y1="291.7" x2="156.8" y2="275.8" stroke="rgb(0,0,0)"  stroke-width="1.0"/>
<line x1="156.8" y1="275.8" x2="188.9" y2="299.3" stroke="rgb(0,0,0)"  stroke-width="1.0"/>
<line x1="188.9" y1="299.3" x2="180.7" y2="324.9" stroke="rgb(0,0,0)"  stroke-width="1.0"/>
<line x1="163.7" y1="337.3" x2="136.9" y2="337.3" stroke="rgb(0,0,0)"  stroke-width="1.0"/>
<line x1="136.9" y1="337.3" x2="128.5" y2="311.7" stroke="rgb(0,0,0)"  stroke-width="1.0"/>
<line x1="235.8" y1="247.4" x2="273.8" y2="236.0" stroke="rgb(0,0,0)"  stroke-width="1.0"/>
<line x1="273.8" y1="236.0" x2="282.2" y2="196.6" stroke="rgb(0,0,0)"  stroke-width="1.0"/>
<line x1="268.0" y1="228.6" x2="273.9" y2="200.9" stroke="rgb(0,0,0)"  stroke-width="1.0"/>
<line x1="282.2" y1="196.6" x2="252.9" y2="169.7" stroke="rgb(0,0,0)"  stroke-width="1.0"/>
<line x1="252.9" y1="169.7" x2="214.7" y2="181.1" stroke="rgb(0,0,0)"  stroke-width="1.0"/>
<line x1="249.2" y1="178.3" x2="222.5" y2="186.3" stroke="rgb(0,0,0)"  stroke-width="1.0"/>
<line x1="214.7" y1="181.1" x2="205.8" y2="220.7" stroke="rgb(0,0,0)"  stroke-width="1.0"/>
<line x1="205.8" y1="220.7" x2="235.8" y2="247.4" stroke="rgb(0,0,0)"  stroke-width="1.0"/>
<line x1="215.1" y1="219.3" x2="236.1" y2="238.1" stroke="rgb(0,0,0)"  stroke-width="1.0"/>
<text x="118.422356" y="307.304164" fill="rgb(12,12,255)"  stroke="rgb(12,12,255)" stroke-width="1" font-size="16" >N</text>
<text x="170.685662" y="345.296648" fill="rgb(178,178,0)"  stroke="rgb(178,178,0)" stroke-width="1" font-size="16" >S</text>
<text x="311.798527" y="48.000000" fill="rgb(102,102,102)"  stroke="rgb(102,102,102)" stroke-width="1" font-size="16" >CH</text>
<text x="106.968846" y="377.863021" fill="rgb(255,12,12)"  stroke="rgb(255,12,12)" stroke-width="1" font-size="16" >O</text>
<text x="150.387443" y="243.786160" fill="rgb(255,12,12)"  stroke="rgb(255,12,12)" stroke-width="1" font-size="16" >O</text>
<text x="34.000000" y="243.984972" fill="rgb(255,12,12)"  stroke="rgb(255,12,12)" stroke-width="1" font-size="16" >O</text>
<text x="297.324045" y="270.519098" fill="rgb(165,40,40)"  stroke="rgb(165,40,40)" stroke-width="1" font-size="16" >Br</text>
<text x="101.537885" y="229.515339" fill="rgb(255,12,12)"  stroke="rgb(255,12,12)" stroke-width="1" font-size="16" >O</text>
<text x="255.917813" y="138.250941" fill="rgb(255,12,12)"  stroke="rgb(255,12,12)" stroke-width="1" font-size="16" >O</text>
<text x="179.331558" y="162.578739" fill="rgb(255,12,12)"  stroke="rgb(255,12,12)" stroke-width="1" font-size="16" >O</text>
<text x="30.884471" y="321.778646" fill="rgb(102,102,102)"  stroke="rgb(102,102,102)" stroke-width="1" font-size="16" >H</text>
<text x="42.884471" y="325.458646" fill="rgb(102,102,102)"  stroke="rgb(102,102,102)" stroke-width="1" font-size="13" >3</text>
<text x="49.384471" y="321.778646" fill="rgb(102,102,102)"  stroke="rgb(102,102,102)" stroke-width="1" font-size="16" >C</text>
<text x="73.095649" y="190.315435" fill="rgb(102,102,102)"  stroke="rgb(102,102,102)" stroke-width="1" font-size="16" >H</text>
<text x="85.095649" y="193.995435" fill="rgb(102,102,102)"  stroke="rgb(102,102,102)" stroke-width="1" font-size="13" >3</text>
<text x="91.595649" y="190.315435" fill="rgb(102,102,102)"  stroke="rgb(102,102,102)" stroke-width="1" font-size="16" >C</text>
<text x="121.741547" y="174.037098" fill="rgb(102,102,102)"  stroke="rgb(102,102,102)" stroke-width="1" font-size="16" >H</text>
<text x="133.741547" y="177.717098" fill="rgb(102,102,102)"  stroke="rgb(102,102,102)" stroke-width="1" font-size="13" >3</text>
<text x="140.241547" y="174.037098" fill="rgb(102,102,102)"  stroke="rgb(102,102,102)" stroke-width="1" font-size="16" >C</text>
<text font-size="18.000000" fill ="black" font-family="sans-serif"
x="10.000000" y="20.000000" ></text>
<title> - OBDepict</title>
</svg>
