<?xml version="1.0"?>
<svg xmlns="http://www.w3.org/2000/svg"
xmlns:xlink="http://www.w3.org/1999/xlink" xmlns:cml="http://www.xml-cml.org/schema" width="478.546" height="418.199" x="0" y="0" font-family="sans-serif" stroke="rgb(0,0,0)" stroke-width="1"  stroke-linecap="round">
<rect x="0%" y="0%" width="100%" height="100%" stroke-width="0" fill="rgb(255,255,255)"  />
<line x1="82.1" y1="317.9" x2="108.0" y2="326.6" stroke="rgb(0,0,0)"  stroke-width="1.0"/>
<line x1="347.7" y1="288.5" x2="309.5" y2="300.9" stroke="rgb(0,0,0)"  stroke-width="1.0"/>
<line x1="345.9" y1="282.8" x2="307.6" y2="295.2" stroke="rgb(0,0,0)"  stroke-width="1.0"/>
<line x1="205.9" y1="285.6" x2="231.6" y2="294.0" stroke="rgb(0,0,0)"  stroke-width="1.0"/>
<line x1="355.1" y1="246.4" x2="346.8" y2="285.6" stroke="rgb(0,0,0)"  stroke-width="1.0"/>
<line x1="426.8" y1="78.5" x2="417.9" y2="117.6" stroke="rgb(0,0,0)"  stroke-width="1.0"/>
<line x1="432.5" y1="52.7" x2="426.8" y2="78.5" stroke="rgb(0,0,0)"  stroke-width="1.0"/>
<line x1="436.6" y1="53.6" x2="430.9" y2="79.4" stroke="rgb(0,0,0)"  stroke-width="1.0"/>
<line x1="428.4" y1="51.8" x2="422.7" y2="77.6" stroke="rgb(0,0,0)"  stroke-width="1.0"/>
<line x1="64.3" y1="287.4" x2="67.1" y2="301.1" stroke="rgb(0,0,0)"  stroke-width="1.0"/>
<line x1="237.8" y1="356.2" x2="253.7" y2="334.5" stroke="rgb(0,0,0)"  stroke-width="1.0"/>
<line x1="242.7" y1="359.7" x2="258.5" y2="338.0" stroke="rgb(0,0,0)"  stroke-width="1.0"/>
<line x1="47.7" y1="329.6" x2="58.1" y2="320.3" stroke="rgb(0,0,0)"  stroke-width="1.0"/>
<line x1="51.7" y1="334.1" x2="62.1" y2="324.7" stroke="rgb(0,0,0)"  stroke-width="1.0"/>
<line x1="279.1" y1="247.2" x2="279.1" y2="274.3" stroke="rgb(0,0,0)"  stroke-width="1.0"/>
<line x1="273.1" y1="247.2" x2="273.1" y2="274.3" stroke="rgb(0,0,0)"  stroke-width="1.0"/>
<line x1="175.9" y1="312.6" x2="205.9" y2="285.6" stroke="rgb(0,0,0)"  stroke-width="1.0"/>
<line x1="426.2" y1="186.9" x2="400.7" y2="195.1" stroke="rgb(0,0,0)"  stroke-width="1.0"/>
<line x1="313.8" y1="162.3" x2="333.4" y2="180.7" stroke="rgb(0,0,0)"  stroke-width="1.0"/>
<line x1="376.9" y1="141.8" x2="371.1" y2="168.6" stroke="rgb(0,0,0)"  stroke-width="1.0"/>
<line x1="417.9" y1="117.6" x2="392.1" y2="125.4" stroke="rgb(0,0,0)"  stroke-width="1.0"/>
<line x1="254.4" y1="290.3" x2="276.1" y2="274.3" stroke="rgb(0,0,0)"  stroke-width="1.0"/>
<line x1="276.1" y1="274.3" x2="308.5" y2="298.0" stroke="rgb(0,0,0)"  stroke-width="1.0"/>
<line x1="308.5" y1="298.0" x2="300.2" y2="323.9" stroke="rgb(0,0,0)"  stroke-width="1.0"/>
<line x1="283.2" y1="336.3" x2="256.1" y2="336.3" stroke="rgb(0,0,0)"  stroke-width="1.0"/>
<line x1="256.1" y1="336.3" x2="247.9" y2="310.4" stroke="rgb(0,0,0)"  stroke-width="1.0"/>
<line x1="333.4" y1="180.7" x2="371.1" y2="168.6" stroke="rgb(0,0,0)"  stroke-width="1.0"/>
<line x1="341.4" y1="185.8" x2="367.6" y2="177.3" stroke="rgb(0,0,0)"  stroke-width="1.0"/>
<line x1="371.1" y1="168.6" x2="400.7" y2="195.1" stroke="rgb(0,0,0)"  stroke-width="1.0"/>
<line x1="400.7" y1="195.1" x2="392.4" y2="234.2" stroke="rgb(0,0,0)"  stroke-width="1.0"/>
<line x1="392.4" y1="199.5" x2="386.6" y2="226.8" stroke="rgb(0,0,0)"  stroke-width="1.0"/>
<line x1="392.4" y1="234.2" x2="355.1" y2="246.4" stroke="rgb(0,0,0)"  stroke-width="1.0"/>
<line x1="355.1" y1="246.4" x2="324.9" y2="219.6" stroke="rgb(0,0,0)"  stroke-width="1.0"/>
<line x1="355.4" y1="237.0" x2="334.2" y2="218.2" stroke="rgb(0,0,0)"  stroke-width="1.0"/>
<line x1="324.9" y1="219.6" x2="333.4" y2="180.7" stroke="rgb(0,0,0)"  stroke-width="1.0"/>
<line x1="108.0" y1="326.6" x2="115.9" y2="365.4" stroke="rgb(0,0,0)"  stroke-width="1.0"/>
<line x1="116.3" y1="331.0" x2="121.8" y2="358.1" stroke="rgb(0,0,0)"  stroke-width="1.0"/>
<line x1="115.9" y1="365.4" x2="154.2" y2="378.2" stroke="rgb(0,0,0)"  stroke-width="1.0"/>
<line x1="154.2" y1="378.2" x2="184.4" y2="351.5" stroke="rgb(0,0,0)"  stroke-width="1.0"/>
<line x1="153.9" y1="368.8" x2="175.1" y2="350.1" stroke="rgb(0,0,0)"  stroke-width="1.0"/>
<line x1="184.4" y1="351.5" x2="175.9" y2="312.6" stroke="rgb(0,0,0)"  stroke-width="1.0"/>
<line x1="175.9" y1="312.6" x2="137.8" y2="299.8" stroke="rgb(0,0,0)"  stroke-width="1.0"/>
<line x1="167.9" y1="317.5" x2="141.2" y2="308.6" stroke="rgb(0,0,0)"  stroke-width="1.0"/>
<line x1="137.8" y1="299.8" x2="108.0" y2="326.6" stroke="rgb(0,0,0)"  stroke-width="1.0"/>
<text x="237.927167" y="306.007327" fill="rgb(12,12,255)"  stroke="rgb(12,12,255)" stroke-width="1" font-size="16" >N</text>
<text x="290.178623" y="344.279141" fill="rgb(178,178,0)"  stroke="rgb(178,178,0)" stroke-width="1" font-size="16" >S</text>
<text x="74.568584" y="309.769120" fill="rgb(12,12,255)"  stroke="rgb(12,12,255)" stroke-width="1" font-size="16" >+</text>
<text x="63.768584" y="321.801120" fill="rgb(12,12,255)"  stroke="rgb(12,12,255)" stroke-width="1" font-size="16" >N</text>
<text x="429.305642" y="48.000000" fill="rgb(102,102,102)"  stroke="rgb(102,102,102)" stroke-width="1" font-size="16" >CH</text>
<text x="66.467959" y="260.602392" fill="rgb(255,12,12)"  stroke="rgb(255,12,12)" stroke-width="1" font-size="16" >_</text>
<text x="55.667959" y="282.714392" fill="rgb(255,12,12)"  stroke="rgb(255,12,12)" stroke-width="1" font-size="16" >O</text>
<text x="226.591143" y="376.477912" fill="rgb(255,12,12)"  stroke="rgb(255,12,12)" stroke-width="1" font-size="16" >O</text>
<text x="34.000000" y="348.533182" fill="rgb(255,12,12)"  stroke="rgb(255,12,12)" stroke-width="1" font-size="16" >O</text>
<text x="270.130789" y="242.211268" fill="rgb(255,12,12)"  stroke="rgb(255,12,12)" stroke-width="1" font-size="16" >O</text>
<text x="432.545892" y="190.973603" fill="rgb(30,239,30)"  stroke="rgb(30,239,30)" stroke-width="1" font-size="16" >Cl</text>
<text x="286.279248" y="161.408748" fill="rgb(30,239,30)"  stroke="rgb(30,239,30)" stroke-width="1" font-size="16" >Cl</text>
<text x="373.615059" y="137.106873" fill="rgb(255,12,12)"  stroke="rgb(255,12,12)" stroke-width="1" font-size="16" >O</text>
<text font-size="18.000000" fill ="black" font-family="sans-serif"
x="10.000000" y="20.000000" ></text>
<title> - OBDepict</title>
</svg>
