<?xml version="1.0"?>
<svg xmlns="http://www.w3.org/2000/svg"
xmlns:xlink="http://www.w3.org/1999/xlink" xmlns:cml="http://www.xml-cml.org/schema" width="460.64" height="252.234" x="0" y="0" font-family="sans-serif" stroke="rgb(0,0,0)" stroke-width="1"  stroke-linecap="round">
<rect x="0%" y="0%" width="100%" height="100%" stroke-width="0" fill="rgb(255,255,255)"  />
<line x1="175.7" y1="214.0" x2="141.0" y2="193.6" stroke="rgb(0,0,0)"  stroke-width="1.0"/>
<line x1="178.7" y1="208.8" x2="144.1" y2="188.5" stroke="rgb(0,0,0)"  stroke-width="1.0"/>
<line x1="107.7" y1="73.5" x2="84.2" y2="105.7" stroke="rgb(0,0,0)"  stroke-width="1.0"/>
<line x1="122.7" y1="50.8" x2="107.7" y2="73.5" stroke="rgb(0,0,0)"  stroke-width="1.0"/>
<line x1="126.2" y1="53.2" x2="111.2" y2="75.8" stroke="rgb(0,0,0)"  stroke-width="1.0"/>
<line x1="119.2" y1="48.5" x2="104.2" y2="71.2" stroke="rgb(0,0,0)"  stroke-width="1.0"/>
<line x1="52.7" y1="176.0" x2="79.1" y2="173.9" stroke="rgb(0,0,0)"  stroke-width="1.0"/>
<line x1="53.2" y1="182.0" x2="79.6" y2="179.9" stroke="rgb(0,0,0)"  stroke-width="1.0"/>
<line x1="161.2" y1="135.3" x2="141.0" y2="153.3" stroke="rgb(0,0,0)"  stroke-width="1.0"/>
<line x1="157.2" y1="130.8" x2="137.0" y2="148.8" stroke="rgb(0,0,0)"  stroke-width="1.0"/>
<line x1="84.2" y1="105.7" x2="94.7" y2="130.4" stroke="rgb(0,0,0)"  stroke-width="1.0"/>
<line x1="211.9" y1="192.1" x2="177.2" y2="211.4" stroke="rgb(0,0,0)"  stroke-width="1.0"/>
<line x1="305.9" y1="139.1" x2="281.9" y2="152.2" stroke="rgb(0,0,0)"  stroke-width="1.0"/>
<line x1="351.4" y1="153.2" x2="328.4" y2="139.5" stroke="rgb(0,0,0)"  stroke-width="1.0"/>
<line x1="386.6" y1="133.5" x2="351.4" y2="153.2" stroke="rgb(0,0,0)"  stroke-width="1.0"/>
<line x1="351.2" y1="179.7" x2="351.4" y2="153.2" stroke="rgb(0,0,0)"  stroke-width="1.0"/>
<line x1="409.5" y1="147.3" x2="386.6" y2="133.5" stroke="rgb(0,0,0)"  stroke-width="1.0"/>
<line x1="93.2" y1="153.6" x2="79.3" y2="176.9" stroke="rgb(0,0,0)"  stroke-width="1.0"/>
<line x1="79.3" y1="176.9" x2="97.2" y2="197.0" stroke="rgb(0,0,0)"  stroke-width="1.0"/>
<line x1="117.8" y1="201.6" x2="142.5" y2="191.1" stroke="rgb(0,0,0)"  stroke-width="1.0"/>
<line x1="142.5" y1="191.1" x2="139.0" y2="151.0" stroke="rgb(0,0,0)"  stroke-width="1.0"/>
<line x1="139.0" y1="151.0" x2="112.5" y2="145.2" stroke="rgb(0,0,0)"  stroke-width="1.0"/>
<line x1="211.9" y1="192.1" x2="212.9" y2="151.4" stroke="rgb(0,0,0)"  stroke-width="1.0"/>
<line x1="219.2" y1="186.2" x2="219.9" y2="157.6" stroke="rgb(0,0,0)"  stroke-width="1.0"/>
<line x1="212.9" y1="151.4" x2="247.6" y2="132.0" stroke="rgb(0,0,0)"  stroke-width="1.0"/>
<line x1="247.6" y1="132.0" x2="281.9" y2="152.2" stroke="rgb(0,0,0)"  stroke-width="1.0"/>
<line x1="249.1" y1="141.3" x2="273.1" y2="155.4" stroke="rgb(0,0,0)"  stroke-width="1.0"/>
<line x1="281.9" y1="152.2" x2="281.4" y2="192.7" stroke="rgb(0,0,0)"  stroke-width="1.0"/>
<line x1="281.4" y1="192.7" x2="246.7" y2="212.2" stroke="rgb(0,0,0)"  stroke-width="1.0"/>
<line x1="272.7" y1="189.4" x2="248.4" y2="203.0" stroke="rgb(0,0,0)"  stroke-width="1.0"/>
<line x1="246.7" y1="212.2" x2="211.9" y2="192.1" stroke="rgb(0,0,0)"  stroke-width="1.0"/>
<text x="93.856288" y="150.376461" fill="rgb(12,12,255)"  stroke="rgb(12,12,255)" stroke-width="1" font-size="16" >N</text>
<text x="99.855948" y="214.732494" fill="rgb(178,178,0)"  stroke="rgb(178,178,0)" stroke-width="1" font-size="16" >S</text>
<text x="123.864266" y="48.000000" fill="rgb(102,102,102)"  stroke="rgb(102,102,102)" stroke-width="1" font-size="16" >CH</text>
<text x="34.000000" y="188.053360" fill="rgb(255,12,12)"  stroke="rgb(255,12,12)" stroke-width="1" font-size="16" >O</text>
<text x="162.881412" y="132.367803" fill="rgb(255,12,12)"  stroke="rgb(255,12,12)" stroke-width="1" font-size="16" >O</text>
<text x="311.266558" y="140.873773" fill="rgb(255,12,12)"  stroke="rgb(255,12,12)" stroke-width="1" font-size="16" >O</text>
<text x="325.116254" y="200.725223" fill="rgb(102,102,102)"  stroke="rgb(102,102,102)" stroke-width="1" font-size="16" >H</text>
<text x="337.116254" y="204.405223" fill="rgb(102,102,102)"  stroke="rgb(102,102,102)" stroke-width="1" font-size="13" >3</text>
<text x="343.616254" y="200.725223" fill="rgb(102,102,102)"  stroke="rgb(102,102,102)" stroke-width="1" font-size="16" >C</text>
<text x="416.639736" y="162.041929" fill="rgb(102,102,102)"  stroke="rgb(102,102,102)" stroke-width="1" font-size="16" >CH</text>
<text x="440.639736" y="165.721929" fill="rgb(102,102,102)"  stroke="rgb(102,102,102)" stroke-width="1" font-size="13" >3</text>
<text font-size="18.000000" fill ="black" font-family="sans-serif"
x="10.000000" y="20.000000" ></text>
<title> - OBDepict</title>
</svg>
