<?xml version="1.0"?>
<svg xmlns="http://www.w3.org/2000/svg"
xmlns:xlink="http://www.w3.org/1999/xlink" xmlns:cml="http://www.xml-cml.org/schema" width="432.324" height="313.735" x="0" y="0" font-family="sans-serif" stroke="rgb(0,0,0)" stroke-width="1"  stroke-linecap="round">
<rect x="0%" y="0%" width="100%" height="100%" stroke-width="0" fill="rgb(255,255,255)"  />
<line x1="330.9" y1="74.5" x2="290.9" y2="74.5" stroke="rgb(0,0,0)"  stroke-width="1.0"/>
<line x1="290.9" y1="74.5" x2="277.4" y2="98.0" stroke="rgb(0,0,0)"  stroke-width="1.0"/>
<line x1="132.9" y1="244.0" x2="159.8" y2="214.3" stroke="rgb(0,0,0)"  stroke-width="1.0"/>
<line x1="114.9" y1="264.1" x2="132.9" y2="244.0" stroke="rgb(0,0,0)"  stroke-width="1.0"/>
<line x1="111.8" y1="261.3" x2="129.8" y2="241.2" stroke="rgb(0,0,0)"  stroke-width="1.0"/>
<line x1="118.1" y1="266.9" x2="136.1" y2="246.8" stroke="rgb(0,0,0)"  stroke-width="1.0"/>
<line x1="210.9" y1="143.8" x2="170.9" y2="143.8" stroke="rgb(0,0,0)"  stroke-width="1.0"/>
<line x1="280.0" y1="49.7" x2="293.5" y2="73.0" stroke="rgb(0,0,0)"  stroke-width="1.0"/>
<line x1="274.8" y1="52.8" x2="288.3" y2="76.0" stroke="rgb(0,0,0)"  stroke-width="1.0"/>
<line x1="159.8" y1="214.3" x2="151.3" y2="188.7" stroke="rgb(0,0,0)"  stroke-width="1.0"/>
<line x1="257.9" y1="109.3" x2="230.9" y2="109.3" stroke="rgb(0,0,0)"  stroke-width="1.0"/>
<line x1="230.9" y1="109.3" x2="210.9" y2="143.8" stroke="rgb(0,0,0)"  stroke-width="1.0"/>
<line x1="170.9" y1="143.8" x2="154.9" y2="165.8" stroke="rgb(0,0,0)"  stroke-width="1.0"/>
<line x1="134.9" y1="172.3" x2="109.3" y2="163.8" stroke="rgb(0,0,0)"  stroke-width="1.0"/>
<line x1="109.3" y1="163.8" x2="109.3" y2="123.8" stroke="rgb(0,0,0)"  stroke-width="1.0"/>
<line x1="116.5" y1="157.8" x2="116.5" y2="129.8" stroke="rgb(0,0,0)"  stroke-width="1.0"/>
<line x1="109.3" y1="123.8" x2="134.9" y2="115.5" stroke="rgb(0,0,0)"  stroke-width="1.0"/>
<line x1="155.1" y1="122.2" x2="170.9" y2="143.8" stroke="rgb(0,0,0)"  stroke-width="1.0"/>
<line x1="150.4" y1="128.0" x2="161.6" y2="143.2" stroke="rgb(0,0,0)"  stroke-width="1.0"/>
<line x1="330.9" y1="74.5" x2="346.7" y2="52.7" stroke="rgb(0,0,0)"  stroke-width="1.0"/>
<line x1="366.7" y1="46.2" x2="392.3" y2="54.5" stroke="rgb(0,0,0)"  stroke-width="1.0"/>
<line x1="392.3" y1="54.5" x2="392.3" y2="94.5" stroke="rgb(0,0,0)"  stroke-width="1.0"/>
<line x1="385.1" y1="60.5" x2="385.1" y2="88.5" stroke="rgb(0,0,0)"  stroke-width="1.0"/>
<line x1="392.3" y1="94.5" x2="354.3" y2="107.1" stroke="rgb(0,0,0)"  stroke-width="1.0"/>
<line x1="354.3" y1="107.1" x2="330.9" y2="74.5" stroke="rgb(0,0,0)"  stroke-width="1.0"/>
<line x1="356.7" y1="98.0" x2="340.3" y2="75.2" stroke="rgb(0,0,0)"  stroke-width="1.0"/>
<line x1="74.7" y1="183.8" x2="109.3" y2="163.8" stroke="rgb(0,0,0)"  stroke-width="1.0"/>
<line x1="109.3" y1="123.8" x2="74.7" y2="103.8" stroke="rgb(0,0,0)"  stroke-width="1.0"/>
<line x1="74.7" y1="103.8" x2="40.0" y2="123.8" stroke="rgb(0,0,0)"  stroke-width="1.0"/>
<line x1="73.1" y1="113.1" x2="48.8" y2="127.1" stroke="rgb(0,0,0)"  stroke-width="1.0"/>
<line x1="40.0" y1="123.8" x2="40.0" y2="163.8" stroke="rgb(0,0,0)"  stroke-width="1.0"/>
<line x1="40.0" y1="163.8" x2="74.7" y2="183.8" stroke="rgb(0,0,0)"  stroke-width="1.0"/>
<line x1="48.8" y1="160.6" x2="73.1" y2="174.6" stroke="rgb(0,0,0)"  stroke-width="1.0"/>
<text x="141.272326" y="119.514884" fill="rgb(12,12,255)"  stroke="rgb(12,12,255)" stroke-width="1" font-size="16" >N</text>
<text x="141.272326" y="184.363126" fill="rgb(12,12,255)"  stroke="rgb(12,12,255)" stroke-width="1" font-size="16" >N</text>
<text x="88.263994" y="281.734883" fill="rgb(102,102,102)"  stroke="rgb(102,102,102)" stroke-width="1" font-size="16" >HC</text>
<text x="348.340642" y="50.220598" fill="rgb(255,12,12)"  stroke="rgb(255,12,12)" stroke-width="1" font-size="16" >O</text>
<text x="264.908227" y="48.000000" fill="rgb(255,12,12)"  stroke="rgb(255,12,12)" stroke-width="1" font-size="16" >O</text>
<text x="264.908227" y="117.294286" fill="rgb(12,12,255)"  stroke="rgb(12,12,255)" stroke-width="1" font-size="16" >N</text>
<text x="264.908227" y="133.294286" fill="rgb(12,12,255)"  stroke="rgb(12,12,255)" stroke-width="1" font-size="16" >H</text>
<text font-size="18.000000" fill ="black" font-family="sans-serif"
x="10.000000" y="20.000000" ></text>
<title> - OBDepict</title>
</svg>
