<?xml version="1.0"?>
<svg xmlns="http://www.w3.org/2000/svg"
xmlns:xlink="http://www.w3.org/1999/xlink" xmlns:cml="http://www.xml-cml.org/schema" width="380.631" height="208.397" x="0" y="0" font-family="sans-serif" stroke="rgb(0,0,0)" stroke-width="1"  stroke-linecap="round">
<rect x="0%" y="0%" width="100%" height="100%" stroke-width="0" fill="rgb(255,255,255)"  />
<line x1="154.4" y1="79.6" x2="146.7" y2="53.3" stroke="rgb(0,0,0)"  stroke-width="1.0"/>
<line x1="160.1" y1="77.9" x2="152.5" y2="51.6" stroke="rgb(0,0,0)"  stroke-width="1.0"/>
<line x1="90.7" y1="107.3" x2="74.5" y2="85.6" stroke="rgb(0,0,0)"  stroke-width="1.0"/>
<line x1="204.6" y1="77.7" x2="214.0" y2="67.0" stroke="rgb(0,0,0)"  stroke-width="1.0"/>
<line x1="78.8" y1="145.2" x2="52.3" y2="154.0" stroke="rgb(0,0,0)"  stroke-width="1.0"/>
<line x1="209.0" y1="125.3" x2="235.8" y2="131.2" stroke="rgb(0,0,0)"  stroke-width="1.0"/>
<line x1="257.1" y1="124.1" x2="274.9" y2="103.8" stroke="rgb(0,0,0)"  stroke-width="1.0"/>
<line x1="274.9" y1="103.8" x2="314.8" y2="111.6" stroke="rgb(0,0,0)"  stroke-width="1.0"/>
<line x1="314.8" y1="111.6" x2="332.2" y2="91.3" stroke="rgb(0,0,0)"  stroke-width="1.0"/>
<line x1="311.6" y1="108.9" x2="329.0" y2="88.6" stroke="rgb(0,0,0)"  stroke-width="1.0"/>
<line x1="318.0" y1="114.4" x2="335.4" y2="94.1" stroke="rgb(0,0,0)"  stroke-width="1.0"/>
<line x1="130.5" y1="108.1" x2="142.4" y2="146.1" stroke="rgb(0,0,0)"  stroke-width="1.0"/>
<line x1="125.4" y1="115.9" x2="133.7" y2="142.5" stroke="rgb(0,0,0)"  stroke-width="1.0"/>
<line x1="142.4" y1="146.1" x2="120.6" y2="161.1" stroke="rgb(0,0,0)"  stroke-width="1.0"/>
<line x1="99.4" y1="160.6" x2="78.8" y2="145.2" stroke="rgb(0,0,0)"  stroke-width="1.0"/>
<line x1="78.8" y1="145.2" x2="90.7" y2="107.3" stroke="rgb(0,0,0)"  stroke-width="1.0"/>
<line x1="87.4" y1="141.6" x2="95.7" y2="115.2" stroke="rgb(0,0,0)"  stroke-width="1.0"/>
<line x1="90.7" y1="107.3" x2="130.5" y2="108.1" stroke="rgb(0,0,0)"  stroke-width="1.0"/>
<line x1="130.5" y1="108.1" x2="157.3" y2="78.8" stroke="rgb(0,0,0)"  stroke-width="1.0"/>
<line x1="157.3" y1="78.8" x2="183.3" y2="84.6" stroke="rgb(0,0,0)"  stroke-width="1.0"/>
<line x1="200.2" y1="99.7" x2="209.0" y2="125.3" stroke="rgb(0,0,0)"  stroke-width="1.0"/>
<line x1="209.0" y1="125.3" x2="191.0" y2="145.0" stroke="rgb(0,0,0)"  stroke-width="1.0"/>
<line x1="199.6" y1="124.9" x2="187.1" y2="138.7" stroke="rgb(0,0,0)"  stroke-width="1.0"/>
<line x1="169.5" y1="152.0" x2="142.4" y2="146.1" stroke="rgb(0,0,0)"  stroke-width="1.0"/>
<text x="176.215264" y="162.724017" fill="rgb(12,12,255)"  stroke="rgb(12,12,255)" stroke-width="1" font-size="16" >N</text>
<text x="103.844194" y="176.397168" fill="rgb(178,178,0)"  stroke="rgb(178,178,0)" stroke-width="1" font-size="16" >S</text>
<text x="190.038192" y="95.406699" fill="rgb(12,12,255)"  stroke="rgb(12,12,255)" stroke-width="1" font-size="16" >N</text>
<text x="139.954841" y="48.000000" fill="rgb(255,12,12)"  stroke="rgb(255,12,12)" stroke-width="1" font-size="16" >O</text>
<text x="40.747196" y="83.221650" fill="rgb(102,102,102)"  stroke="rgb(102,102,102)" stroke-width="1" font-size="16" >H</text>
<text x="52.747196" y="86.901650" fill="rgb(102,102,102)"  stroke="rgb(102,102,102)" stroke-width="1" font-size="13" >3</text>
<text x="59.247196" y="83.221650" fill="rgb(102,102,102)"  stroke="rgb(102,102,102)" stroke-width="1" font-size="16" >C</text>
<text x="218.635611" y="65.238800" fill="rgb(102,102,102)"  stroke="rgb(102,102,102)" stroke-width="1" font-size="16" >CH</text>
<text x="242.635611" y="68.918800" fill="rgb(102,102,102)"  stroke="rgb(102,102,102)" stroke-width="1" font-size="13" >3</text>
<text x="14.000000" y="166.144721" fill="rgb(102,102,102)"  stroke="rgb(102,102,102)" stroke-width="1" font-size="16" >H</text>
<text x="26.000000" y="169.824721" fill="rgb(102,102,102)"  stroke="rgb(102,102,102)" stroke-width="1" font-size="13" >3</text>
<text x="32.500000" y="166.144721" fill="rgb(102,102,102)"  stroke="rgb(102,102,102)" stroke-width="1" font-size="16" >C</text>
<text x="242.493810" y="141.919569" fill="rgb(178,178,0)"  stroke="rgb(178,178,0)" stroke-width="1" font-size="16" >S</text>
<text x="334.630556" y="89.463951" fill="rgb(102,102,102)"  stroke="rgb(102,102,102)" stroke-width="1" font-size="16" >CH</text>
<text font-size="18.000000" fill ="black" font-family="sans-serif"
x="10.000000" y="20.000000" ></text>
<title> - OBDepict</title>
</svg>
