<?xml version="1.0"?>
<svg xmlns="http://www.w3.org/2000/svg"
xmlns:xlink="http://www.w3.org/1999/xlink" xmlns:cml="http://www.xml-cml.org/schema" width="450.871" height="313.712" x="0" y="0" font-family="sans-serif" stroke="rgb(0,0,0)" stroke-width="1"  stroke-linecap="round">
<rect x="0%" y="0%" width="100%" height="100%" stroke-width="0" fill="rgb(255,255,255)"  />
<line x1="132.9" y1="244.0" x2="159.6" y2="214.3" stroke="rgb(0,0,0)"  stroke-width="1.0"/>
<line x1="114.8" y1="264.1" x2="132.9" y2="244.0" stroke="rgb(0,0,0)"  stroke-width="1.0"/>
<line x1="111.7" y1="261.3" x2="129.8" y2="241.2" stroke="rgb(0,0,0)"  stroke-width="1.0"/>
<line x1="117.9" y1="266.9" x2="136.0" y2="246.8" stroke="rgb(0,0,0)"  stroke-width="1.0"/>
<line x1="197.9" y1="144.0" x2="170.9" y2="144.0" stroke="rgb(0,0,0)"  stroke-width="1.0"/>
<line x1="159.6" y1="214.3" x2="151.3" y2="188.7" stroke="rgb(0,0,0)"  stroke-width="1.0"/>
<line x1="330.9" y1="74.7" x2="303.9" y2="74.7" stroke="rgb(0,0,0)"  stroke-width="1.0"/>
<line x1="284.4" y1="86.0" x2="270.9" y2="109.3" stroke="rgb(0,0,0)"  stroke-width="1.0"/>
<line x1="230.9" y1="109.3" x2="217.4" y2="132.8" stroke="rgb(0,0,0)"  stroke-width="1.0"/>
<line x1="270.9" y1="109.3" x2="230.9" y2="109.3" stroke="rgb(0,0,0)"  stroke-width="1.0"/>
<line x1="170.9" y1="144.0" x2="154.9" y2="165.9" stroke="rgb(0,0,0)"  stroke-width="1.0"/>
<line x1="134.9" y1="172.3" x2="109.3" y2="164.0" stroke="rgb(0,0,0)"  stroke-width="1.0"/>
<line x1="109.3" y1="164.0" x2="109.3" y2="124.0" stroke="rgb(0,0,0)"  stroke-width="1.0"/>
<line x1="116.5" y1="158.0" x2="116.5" y2="130.0" stroke="rgb(0,0,0)"  stroke-width="1.0"/>
<line x1="109.3" y1="124.0" x2="134.9" y2="115.6" stroke="rgb(0,0,0)"  stroke-width="1.0"/>
<line x1="155.1" y1="122.2" x2="170.9" y2="144.0" stroke="rgb(0,0,0)"  stroke-width="1.0"/>
<line x1="150.4" y1="128.1" x2="161.5" y2="143.4" stroke="rgb(0,0,0)"  stroke-width="1.0"/>
<line x1="74.5" y1="184.0" x2="109.3" y2="164.0" stroke="rgb(0,0,0)"  stroke-width="1.0"/>
<line x1="109.3" y1="124.0" x2="74.5" y2="104.0" stroke="rgb(0,0,0)"  stroke-width="1.0"/>
<line x1="74.5" y1="104.0" x2="40.0" y2="124.0" stroke="rgb(0,0,0)"  stroke-width="1.0"/>
<line x1="73.0" y1="113.3" x2="48.8" y2="127.3" stroke="rgb(0,0,0)"  stroke-width="1.0"/>
<line x1="40.0" y1="124.0" x2="40.0" y2="164.0" stroke="rgb(0,0,0)"  stroke-width="1.0"/>
<line x1="40.0" y1="164.0" x2="74.5" y2="184.0" stroke="rgb(0,0,0)"  stroke-width="1.0"/>
<line x1="48.8" y1="160.8" x2="73.0" y2="174.8" stroke="rgb(0,0,0)"  stroke-width="1.0"/>
<line x1="330.9" y1="74.7" x2="350.9" y2="40.0" stroke="rgb(0,0,0)"  stroke-width="1.0"/>
<line x1="340.1" y1="73.1" x2="354.1" y2="48.8" stroke="rgb(0,0,0)"  stroke-width="1.0"/>
<line x1="350.9" y1="40.0" x2="390.9" y2="40.0" stroke="rgb(0,0,0)"  stroke-width="1.0"/>
<line x1="390.9" y1="40.0" x2="410.9" y2="74.7" stroke="rgb(0,0,0)"  stroke-width="1.0"/>
<line x1="387.6" y1="48.8" x2="401.6" y2="73.1" stroke="rgb(0,0,0)"  stroke-width="1.0"/>
<line x1="410.9" y1="74.7" x2="390.9" y2="109.3" stroke="rgb(0,0,0)"  stroke-width="1.0"/>
<line x1="390.9" y1="109.3" x2="350.9" y2="109.3" stroke="rgb(0,0,0)"  stroke-width="1.0"/>
<line x1="384.9" y1="102.1" x2="356.9" y2="102.1" stroke="rgb(0,0,0)"  stroke-width="1.0"/>
<line x1="350.9" y1="109.3" x2="330.9" y2="74.7" stroke="rgb(0,0,0)"  stroke-width="1.0"/>
<text x="141.261605" y="119.507737" fill="rgb(12,12,255)"  stroke="rgb(12,12,255)" stroke-width="1" font-size="16" >N</text>
<text x="141.261605" y="184.349498" fill="rgb(12,12,255)"  stroke="rgb(12,12,255)" stroke-width="1" font-size="16" >N</text>
<text x="88.053757" y="281.711524" fill="rgb(102,102,102)"  stroke="rgb(102,102,102)" stroke-width="1" font-size="16" >HC</text>
<text x="204.891371" y="152.028001" fill="rgb(178,178,0)"  stroke="rgb(178,178,0)" stroke-width="1" font-size="16" >S</text>
<text x="284.883077" y="82.740640" fill="rgb(255,12,12)"  stroke="rgb(255,12,12)" stroke-width="1" font-size="16" >O</text>
<text font-size="18.000000" fill ="black" font-family="sans-serif"
x="10.000000" y="20.000000" ></text>
<title> - OBDepict</title>
</svg>
