<?xml version="1.0"?>
<svg xmlns="http://www.w3.org/2000/svg"
xmlns:xlink="http://www.w3.org/1999/xlink" xmlns:cml="http://www.xml-cml.org/schema" width="384.431" height="429.999" x="0" y="0" font-family="sans-serif" stroke="rgb(0,0,0)" stroke-width="1"  stroke-linecap="round">
<rect x="0%" y="0%" width="100%" height="100%" stroke-width="0" fill="rgb(255,255,255)"  />
<line x1="296.1" y1="325.9" x2="324.4" y2="297.4" stroke="rgb(0,0,0)"  stroke-width="1.0"/>
<line x1="300.3" y1="330.1" x2="328.6" y2="301.6" stroke="rgb(0,0,0)"  stroke-width="1.0"/>
<line x1="326.5" y1="299.5" x2="316.3" y2="261.0" stroke="rgb(0,0,0)"  stroke-width="1.0"/>
<line x1="305.6" y1="364.9" x2="329.9" y2="377.2" stroke="rgb(0,0,0)"  stroke-width="1.0"/>
<line x1="302.9" y1="370.2" x2="327.1" y2="382.6" stroke="rgb(0,0,0)"  stroke-width="1.0"/>
<line x1="240.4" y1="360.2" x2="213.2" y2="360.2" stroke="rgb(0,0,0)"  stroke-width="1.0"/>
<line x1="240.4" y1="354.2" x2="213.2" y2="354.2" stroke="rgb(0,0,0)"  stroke-width="1.0"/>
<line x1="187.2" y1="356.8" x2="160.3" y2="356.0" stroke="rgb(0,0,0)"  stroke-width="1.0"/>
<line x1="295.8" y1="183.9" x2="289.3" y2="158.0" stroke="rgb(0,0,0)"  stroke-width="1.0"/>
<line x1="295.4" y1="136.3" x2="314.6" y2="117.6" stroke="rgb(0,0,0)"  stroke-width="1.0"/>
<line x1="80.2" y1="353.3" x2="53.0" y2="352.3" stroke="rgb(0,0,0)"  stroke-width="1.0"/>
<line x1="314.6" y1="117.6" x2="304.9" y2="78.7" stroke="rgb(0,0,0)"  stroke-width="1.0"/>
<line x1="304.9" y1="78.7" x2="298.2" y2="52.6" stroke="rgb(0,0,0)"  stroke-width="1.0"/>
<line x1="300.8" y1="79.7" x2="294.1" y2="53.6" stroke="rgb(0,0,0)"  stroke-width="1.0"/>
<line x1="309.0" y1="77.7" x2="302.3" y2="51.6" stroke="rgb(0,0,0)"  stroke-width="1.0"/>
<line x1="298.2" y1="328.0" x2="271.3" y2="323.8" stroke="rgb(0,0,0)"  stroke-width="1.0"/>
<line x1="252.6" y1="333.4" x2="240.4" y2="357.2" stroke="rgb(0,0,0)"  stroke-width="1.0"/>
<line x1="240.4" y1="357.2" x2="259.3" y2="376.5" stroke="rgb(0,0,0)"  stroke-width="1.0"/>
<line x1="279.9" y1="379.9" x2="304.2" y2="367.5" stroke="rgb(0,0,0)"  stroke-width="1.0"/>
<line x1="304.2" y1="367.5" x2="298.2" y2="328.0" stroke="rgb(0,0,0)"  stroke-width="1.0"/>
<line x1="316.3" y1="261.0" x2="277.6" y2="250.3" stroke="rgb(0,0,0)"  stroke-width="1.0"/>
<line x1="312.4" y1="252.4" x2="285.3" y2="244.9" stroke="rgb(0,0,0)"  stroke-width="1.0"/>
<line x1="277.6" y1="250.3" x2="267.7" y2="211.6" stroke="rgb(0,0,0)"  stroke-width="1.0"/>
<line x1="267.7" y1="211.6" x2="295.8" y2="183.9" stroke="rgb(0,0,0)"  stroke-width="1.0"/>
<line x1="277.0" y1="212.5" x2="296.6" y2="193.3" stroke="rgb(0,0,0)"  stroke-width="1.0"/>
<line x1="295.8" y1="183.9" x2="334.4" y2="194.1" stroke="rgb(0,0,0)"  stroke-width="1.0"/>
<line x1="334.4" y1="194.1" x2="344.4" y2="232.8" stroke="rgb(0,0,0)"  stroke-width="1.0"/>
<line x1="328.9" y1="201.8" x2="336.0" y2="228.8" stroke="rgb(0,0,0)"  stroke-width="1.0"/>
<line x1="344.4" y1="232.8" x2="316.3" y2="261.0" stroke="rgb(0,0,0)"  stroke-width="1.0"/>
<line x1="160.3" y1="356.0" x2="141.5" y2="320.8" stroke="rgb(0,0,0)"  stroke-width="1.0"/>
<line x1="141.5" y1="320.8" x2="101.5" y2="319.3" stroke="rgb(0,0,0)"  stroke-width="1.0"/>
<line x1="135.3" y1="327.8" x2="107.2" y2="326.7" stroke="rgb(0,0,0)"  stroke-width="1.0"/>
<line x1="101.5" y1="319.3" x2="80.2" y2="353.3" stroke="rgb(0,0,0)"  stroke-width="1.0"/>
<line x1="80.2" y1="353.3" x2="99.0" y2="388.8" stroke="rgb(0,0,0)"  stroke-width="1.0"/>
<line x1="89.4" y1="355.2" x2="102.5" y2="380.2" stroke="rgb(0,0,0)"  stroke-width="1.0"/>
<line x1="99.0" y1="388.8" x2="139.0" y2="390.0" stroke="rgb(0,0,0)"  stroke-width="1.0"/>
<line x1="139.0" y1="390.0" x2="160.3" y2="356.0" stroke="rgb(0,0,0)"  stroke-width="1.0"/>
<line x1="136.1" y1="381.1" x2="151.0" y2="357.3" stroke="rgb(0,0,0)"  stroke-width="1.0"/>
<text x="252.476354" y="329.811615" fill="rgb(178,178,0)"  stroke="rgb(178,178,0)" stroke-width="1" font-size="16" >S</text>
<text x="262.365671" y="393.811012" fill="rgb(12,12,255)"  stroke="rgb(12,12,255)" stroke-width="1" font-size="16" >N</text>
<text x="262.365671" y="409.811012" fill="rgb(12,12,255)"  stroke="rgb(12,12,255)" stroke-width="1" font-size="16" >H</text>
<text x="334.072919" y="393.811012" fill="rgb(255,12,12)"  stroke="rgb(255,12,12)" stroke-width="1" font-size="16" >O</text>
<text x="194.173010" y="365.165925" fill="rgb(12,12,255)"  stroke="rgb(12,12,255)" stroke-width="1" font-size="16" >N</text>
<text x="280.122813" y="153.379404" fill="rgb(255,12,12)"  stroke="rgb(255,12,12)" stroke-width="1" font-size="16" >O</text>
<text x="34.000000" y="359.799516" fill="rgb(127,178,255)"  stroke="rgb(127,178,255)" stroke-width="1" font-size="16" >F</text>
<text x="276.998961" y="48.000000" fill="rgb(102,102,102)"  stroke="rgb(102,102,102)" stroke-width="1" font-size="16" >HC</text>
<text font-size="18.000000" fill ="black" font-family="sans-serif"
x="10.000000" y="20.000000" ></text>
<title> - OBDepict</title>
</svg>
