<?xml version="1.0"?>
<svg xmlns="http://www.w3.org/2000/svg"
xmlns:xlink="http://www.w3.org/1999/xlink" xmlns:cml="http://www.xml-cml.org/schema" width="322.445" height="240.014" x="0" y="0" font-family="sans-serif" stroke="rgb(0,0,0)" stroke-width="1"  stroke-linecap="round">
<rect x="0%" y="0%" width="100%" height="100%" stroke-width="0" fill="rgb(255,255,255)"  />
<line x1="178.6" y1="160.0" x2="213.1" y2="140.0" stroke="rgb(0,0,0)"  stroke-width="1.0"/>
<line x1="74.8" y1="140.0" x2="109.3" y2="160.0" stroke="rgb(0,0,0)"  stroke-width="1.0"/>
<line x1="51.3" y1="126.5" x2="74.8" y2="140.0" stroke="rgb(0,0,0)"  stroke-width="1.0"/>
<line x1="53.4" y1="122.9" x2="76.8" y2="136.4" stroke="rgb(0,0,0)"  stroke-width="1.0"/>
<line x1="49.2" y1="130.1" x2="72.7" y2="143.6" stroke="rgb(0,0,0)"  stroke-width="1.0"/>
<line x1="175.6" y1="187.0" x2="175.6" y2="160.0" stroke="rgb(0,0,0)"  stroke-width="1.0"/>
<line x1="181.6" y1="187.0" x2="181.6" y2="160.0" stroke="rgb(0,0,0)"  stroke-width="1.0"/>
<line x1="155.3" y1="146.5" x2="178.6" y2="160.0" stroke="rgb(0,0,0)"  stroke-width="1.0"/>
<line x1="247.9" y1="187.0" x2="247.9" y2="160.0" stroke="rgb(0,0,0)"  stroke-width="1.0"/>
<line x1="247.9" y1="53.0" x2="247.9" y2="80.0" stroke="rgb(0,0,0)"  stroke-width="1.0"/>
<line x1="109.3" y1="160.0" x2="132.8" y2="146.5" stroke="rgb(0,0,0)"  stroke-width="1.0"/>
<line x1="213.1" y1="140.0" x2="213.1" y2="100.0" stroke="rgb(0,0,0)"  stroke-width="1.0"/>
<line x1="213.1" y1="100.0" x2="247.9" y2="80.0" stroke="rgb(0,0,0)"  stroke-width="1.0"/>
<line x1="221.9" y1="103.3" x2="246.3" y2="89.2" stroke="rgb(0,0,0)"  stroke-width="1.0"/>
<line x1="247.9" y1="80.0" x2="282.4" y2="100.0" stroke="rgb(0,0,0)"  stroke-width="1.0"/>
<line x1="282.4" y1="100.0" x2="282.4" y2="140.0" stroke="rgb(0,0,0)"  stroke-width="1.0"/>
<line x1="275.2" y1="106.0" x2="275.2" y2="134.0" stroke="rgb(0,0,0)"  stroke-width="1.0"/>
<line x1="282.4" y1="140.0" x2="247.9" y2="160.0" stroke="rgb(0,0,0)"  stroke-width="1.0"/>
<line x1="247.9" y1="160.0" x2="213.1" y2="140.0" stroke="rgb(0,0,0)"  stroke-width="1.0"/>
<line x1="246.3" y1="150.8" x2="221.9" y2="136.8" stroke="rgb(0,0,0)"  stroke-width="1.0"/>
<text x="22.000000" y="128.006790" fill="rgb(102,102,102)"  stroke="rgb(102,102,102)" stroke-width="1" font-size="16" >HC</text>
<text x="172.600854" y="208.013580" fill="rgb(255,12,12)"  stroke="rgb(255,12,12)" stroke-width="1" font-size="16" >O</text>
<text x="138.052467" y="148.008488" fill="rgb(12,12,255)"  stroke="rgb(12,12,255)" stroke-width="1" font-size="16" >N</text>
<text x="138.052467" y="132.008488" fill="rgb(12,12,255)"  stroke="rgb(12,12,255)" stroke-width="1" font-size="16" >H</text>
<text x="241.896432" y="208.013580" fill="rgb(255,12,12)"  stroke="rgb(255,12,12)" stroke-width="1" font-size="16" >OH</text>
<text x="241.896432" y="48.000000" fill="rgb(30,239,30)"  stroke="rgb(30,239,30)" stroke-width="1" font-size="16" >Cl</text>
<text font-size="18.000000" fill ="black" font-family="sans-serif"
x="10.000000" y="20.000000" ></text>
<title> - OBDepict</title>
</svg>
