<?xml version="1.0"?>
<svg xmlns="http://www.w3.org/2000/svg"
xmlns:xlink="http://www.w3.org/1999/xlink" xmlns:cml="http://www.xml-cml.org/schema" width="442.881" height="257.2" x="0" y="0" font-family="sans-serif" stroke="rgb(0,0,0)" stroke-width="1"  stroke-linecap="round">
<rect x="0%" y="0%" width="100%" height="100%" stroke-width="0" fill="rgb(255,255,255)"  />
<line x1="200.0" y1="146.7" x2="240.0" y2="146.7" stroke="rgb(0,0,0)"  stroke-width="1.0"/>
<line x1="186.5" y1="123.4" x2="200.0" y2="146.7" stroke="rgb(0,0,0)"  stroke-width="1.0"/>
<line x1="60.0" y1="181.4" x2="80.0" y2="146.7" stroke="rgb(0,0,0)"  stroke-width="1.0"/>
<line x1="46.5" y1="204.7" x2="60.0" y2="181.4" stroke="rgb(0,0,0)"  stroke-width="1.0"/>
<line x1="42.9" y1="202.6" x2="56.4" y2="179.3" stroke="rgb(0,0,0)"  stroke-width="1.0"/>
<line x1="50.1" y1="206.8" x2="63.6" y2="183.5" stroke="rgb(0,0,0)"  stroke-width="1.0"/>
<line x1="334.0" y1="103.2" x2="312.2" y2="119.0" stroke="rgb(0,0,0)"  stroke-width="1.0"/>
<line x1="183.9" y1="168.7" x2="197.4" y2="145.2" stroke="rgb(0,0,0)"  stroke-width="1.0"/>
<line x1="189.1" y1="171.7" x2="202.6" y2="148.2" stroke="rgb(0,0,0)"  stroke-width="1.0"/>
<line x1="140.0" y1="112.1" x2="167.0" y2="112.1" stroke="rgb(0,0,0)"  stroke-width="1.0"/>
<line x1="255.3" y1="204.8" x2="263.7" y2="179.0" stroke="rgb(0,0,0)"  stroke-width="1.0"/>
<line x1="276.0" y1="118.4" x2="289.3" y2="122.7" stroke="rgb(0,0,0)"  stroke-width="1.0"/>
<line x1="301.7" y1="139.7" x2="301.7" y2="153.7" stroke="rgb(0,0,0)"  stroke-width="1.0"/>
<line x1="289.1" y1="170.8" x2="263.7" y2="179.0" stroke="rgb(0,0,0)"  stroke-width="1.0"/>
<line x1="285.0" y1="164.5" x2="267.2" y2="170.3" stroke="rgb(0,0,0)"  stroke-width="1.0"/>
<line x1="263.7" y1="179.0" x2="240.0" y2="146.7" stroke="rgb(0,0,0)"  stroke-width="1.0"/>
<line x1="240.0" y1="146.7" x2="255.9" y2="125.0" stroke="rgb(0,0,0)"  stroke-width="1.0"/>
<line x1="249.4" y1="146.1" x2="260.5" y2="130.9" stroke="rgb(0,0,0)"  stroke-width="1.0"/>
<line x1="334.0" y1="103.2" x2="370.6" y2="119.4" stroke="rgb(0,0,0)"  stroke-width="1.0"/>
<line x1="370.6" y1="119.4" x2="402.9" y2="96.0" stroke="rgb(0,0,0)"  stroke-width="1.0"/>
<line x1="371.2" y1="110.1" x2="393.8" y2="93.7" stroke="rgb(0,0,0)"  stroke-width="1.0"/>
<line x1="402.9" y1="96.0" x2="398.8" y2="56.2" stroke="rgb(0,0,0)"  stroke-width="1.0"/>
<line x1="398.8" y1="56.2" x2="362.3" y2="40.0" stroke="rgb(0,0,0)"  stroke-width="1.0"/>
<line x1="390.4" y1="60.3" x2="364.8" y2="49.0" stroke="rgb(0,0,0)"  stroke-width="1.0"/>
<line x1="362.3" y1="40.0" x2="329.9" y2="63.4" stroke="rgb(0,0,0)"  stroke-width="1.0"/>
<line x1="329.9" y1="63.4" x2="334.0" y2="103.2" stroke="rgb(0,0,0)"  stroke-width="1.0"/>
<line x1="337.7" y1="68.7" x2="340.5" y2="96.5" stroke="rgb(0,0,0)"  stroke-width="1.0"/>
<line x1="140.0" y1="112.1" x2="120.0" y2="146.7" stroke="rgb(0,0,0)"  stroke-width="1.0"/>
<line x1="130.8" y1="113.7" x2="116.8" y2="137.9" stroke="rgb(0,0,0)"  stroke-width="1.0"/>
<line x1="120.0" y1="146.7" x2="80.0" y2="146.7" stroke="rgb(0,0,0)"  stroke-width="1.0"/>
<line x1="80.0" y1="146.7" x2="60.0" y2="112.1" stroke="rgb(0,0,0)"  stroke-width="1.0"/>
<line x1="83.2" y1="137.9" x2="69.2" y2="113.7" stroke="rgb(0,0,0)"  stroke-width="1.0"/>
<line x1="60.0" y1="112.1" x2="80.0" y2="77.4" stroke="rgb(0,0,0)"  stroke-width="1.0"/>
<line x1="80.0" y1="77.4" x2="120.0" y2="77.4" stroke="rgb(0,0,0)"  stroke-width="1.0"/>
<line x1="86.0" y1="84.6" x2="114.0" y2="84.6" stroke="rgb(0,0,0)"  stroke-width="1.0"/>
<line x1="120.0" y1="77.4" x2="140.0" y2="112.1" stroke="rgb(0,0,0)"  stroke-width="1.0"/>
<text x="257.669918" y="122.352972" fill="rgb(12,12,255)"  stroke="rgb(12,12,255)" stroke-width="1" font-size="16" >N</text>
<text x="295.653798" y="134.679670" fill="rgb(12,12,255)"  stroke="rgb(12,12,255)" stroke-width="1" font-size="16" >N</text>
<text x="295.653798" y="174.685672" fill="rgb(12,12,255)"  stroke="rgb(12,12,255)" stroke-width="1" font-size="16" >N</text>
<text x="174.021006" y="120.132033" fill="rgb(12,12,255)"  stroke="rgb(12,12,255)" stroke-width="1" font-size="16" >N</text>
<text x="174.021006" y="104.132033" fill="rgb(12,12,255)"  stroke="rgb(12,12,255)" stroke-width="1" font-size="16" >H</text>
<text x="22.000000" y="223.987613" fill="rgb(102,102,102)"  stroke="rgb(102,102,102)" stroke-width="1" font-size="16" >HC</text>
<text x="174.021006" y="189.436976" fill="rgb(255,12,12)"  stroke="rgb(255,12,12)" stroke-width="1" font-size="16" >O</text>
<text x="225.343220" y="225.199916" fill="rgb(102,102,102)"  stroke="rgb(102,102,102)" stroke-width="1" font-size="16" >H</text>
<text x="237.343220" y="228.879916" fill="rgb(102,102,102)"  stroke="rgb(102,102,102)" stroke-width="1" font-size="13" >3</text>
<text x="243.843220" y="225.199916" fill="rgb(102,102,102)"  stroke="rgb(102,102,102)" stroke-width="1" font-size="16" >C</text>
<text font-size="18.000000" fill ="black" font-family="sans-serif"
x="10.000000" y="20.000000" ></text>
<title> - OBDepict</title>
</svg>
