<?xml version="1.0"?>
<svg xmlns="http://www.w3.org/2000/svg"
xmlns:xlink="http://www.w3.org/1999/xlink" xmlns:cml="http://www.xml-cml.org/schema" width="471.08" height="279.121" x="0" y="0" font-family="sans-serif" stroke="rgb(0,0,0)" stroke-width="1"  stroke-linecap="round">
<rect x="0%" y="0%" width="100%" height="100%" stroke-width="0" fill="rgb(255,255,255)"  />
<line x1="227.0" y1="58.4" x2="188.0" y2="68.4" stroke="rgb(0,0,0)"  stroke-width="1.0"/>
<line x1="225.5" y1="52.6" x2="186.6" y2="62.6" stroke="rgb(0,0,0)"  stroke-width="1.0"/>
<line x1="403.1" y1="189.1" x2="375.6" y2="160.1" stroke="rgb(0,0,0)"  stroke-width="1.0"/>
<line x1="106.0" y1="129.6" x2="124.2" y2="109.7" stroke="rgb(0,0,0)"  stroke-width="1.0"/>
<line x1="422.0" y1="208.6" x2="403.1" y2="189.1" stroke="rgb(0,0,0)"  stroke-width="1.0"/>
<line x1="419.0" y1="211.6" x2="400.1" y2="192.1" stroke="rgb(0,0,0)"  stroke-width="1.0"/>
<line x1="425.0" y1="205.7" x2="406.1" y2="186.2" stroke="rgb(0,0,0)"  stroke-width="1.0"/>
<line x1="98.7" y1="48.1" x2="124.1" y2="58.4" stroke="rgb(0,0,0)"  stroke-width="1.0"/>
<line x1="96.4" y1="53.7" x2="121.9" y2="63.9" stroke="rgb(0,0,0)"  stroke-width="1.0"/>
<line x1="184.8" y1="127.8" x2="169.8" y2="104.1" stroke="rgb(0,0,0)"  stroke-width="1.0"/>
<line x1="189.9" y1="124.6" x2="174.8" y2="100.9" stroke="rgb(0,0,0)"  stroke-width="1.0"/>
<line x1="254.1" y1="84.3" x2="226.3" y2="55.5" stroke="rgb(0,0,0)"  stroke-width="1.0"/>
<line x1="263.8" y1="177.7" x2="270.8" y2="151.1" stroke="rgb(0,0,0)"  stroke-width="1.0"/>
<line x1="327.9" y1="160.6" x2="309.4" y2="141.3" stroke="rgb(0,0,0)"  stroke-width="1.0"/>
<line x1="375.6" y1="160.1" x2="349.5" y2="166.8" stroke="rgb(0,0,0)"  stroke-width="1.0"/>
<line x1="221.6" y1="200.6" x2="247.9" y2="193.6" stroke="rgb(0,0,0)"  stroke-width="1.0"/>
<line x1="214.5" y1="226.6" x2="221.6" y2="200.6" stroke="rgb(0,0,0)"  stroke-width="1.0"/>
<line x1="146.0" y1="100.9" x2="172.3" y2="102.5" stroke="rgb(0,0,0)"  stroke-width="1.0"/>
<line x1="172.3" y1="102.5" x2="187.3" y2="65.5" stroke="rgb(0,0,0)"  stroke-width="1.0"/>
<line x1="187.3" y1="65.5" x2="166.6" y2="48.3" stroke="rgb(0,0,0)"  stroke-width="1.0"/>
<line x1="145.6" y1="46.9" x2="123.0" y2="61.2" stroke="rgb(0,0,0)"  stroke-width="1.0"/>
<line x1="123.0" y1="61.2" x2="129.7" y2="87.6" stroke="rgb(0,0,0)"  stroke-width="1.0"/>
<line x1="270.8" y1="151.1" x2="309.4" y2="141.3" stroke="rgb(0,0,0)"  stroke-width="1.0"/>
<line x1="274.8" y1="142.7" x2="301.8" y2="135.8" stroke="rgb(0,0,0)"  stroke-width="1.0"/>
<line x1="309.4" y1="141.3" x2="320.3" y2="103.2" stroke="rgb(0,0,0)"  stroke-width="1.0"/>
<line x1="320.3" y1="103.2" x2="292.6" y2="74.7" stroke="rgb(0,0,0)"  stroke-width="1.0"/>
<line x1="310.9" y1="103.9" x2="291.6" y2="84.0" stroke="rgb(0,0,0)"  stroke-width="1.0"/>
<line x1="292.6" y1="74.7" x2="254.1" y2="84.3" stroke="rgb(0,0,0)"  stroke-width="1.0"/>
<line x1="254.1" y1="84.3" x2="242.8" y2="122.5" stroke="rgb(0,0,0)"  stroke-width="1.0"/>
<line x1="259.3" y1="92.1" x2="251.4" y2="118.8" stroke="rgb(0,0,0)"  stroke-width="1.0"/>
<line x1="242.8" y1="122.5" x2="270.8" y2="151.1" stroke="rgb(0,0,0)"  stroke-width="1.0"/>
<line x1="106.0" y1="129.6" x2="66.7" y2="121.1" stroke="rgb(0,0,0)"  stroke-width="1.0"/>
<line x1="98.6" y1="135.4" x2="71.0" y2="129.5" stroke="rgb(0,0,0)"  stroke-width="1.0"/>
<line x1="66.7" y1="121.1" x2="40.0" y2="151.0" stroke="rgb(0,0,0)"  stroke-width="1.0"/>
<line x1="40.0" y1="151.0" x2="52.5" y2="188.8" stroke="rgb(0,0,0)"  stroke-width="1.0"/>
<line x1="48.7" y1="154.4" x2="57.5" y2="180.8" stroke="rgb(0,0,0)"  stroke-width="1.0"/>
<line x1="52.5" y1="188.8" x2="91.5" y2="197.3" stroke="rgb(0,0,0)"  stroke-width="1.0"/>
<line x1="91.5" y1="197.3" x2="118.3" y2="167.5" stroke="rgb(0,0,0)"  stroke-width="1.0"/>
<line x1="90.1" y1="188.0" x2="109.0" y2="167.1" stroke="rgb(0,0,0)"  stroke-width="1.0"/>
<line x1="118.3" y1="167.5" x2="106.0" y2="129.6" stroke="rgb(0,0,0)"  stroke-width="1.0"/>
<text x="126.977770" y="108.154687" fill="rgb(12,12,255)"  stroke="rgb(12,12,255)" stroke-width="1" font-size="16" >N</text>
<text x="150.641936" y="48.000000" fill="rgb(12,12,255)"  stroke="rgb(12,12,255)" stroke-width="1" font-size="16" >N</text>
<text x="150.641936" y="32.000000" fill="rgb(12,12,255)"  stroke="rgb(12,12,255)" stroke-width="1" font-size="16" >H</text>
<text x="425.080457" y="225.957816" fill="rgb(102,102,102)"  stroke="rgb(102,102,102)" stroke-width="1" font-size="16" >CH</text>
<text x="79.489774" y="53.999502" fill="rgb(255,12,12)"  stroke="rgb(255,12,12)" stroke-width="1" font-size="16" >O</text>
<text x="188.298489" y="145.143553" fill="rgb(255,12,12)"  stroke="rgb(255,12,12)" stroke-width="1" font-size="16" >O</text>
<text x="254.447840" y="198.302046" fill="rgb(255,12,12)"  stroke="rgb(255,12,12)" stroke-width="1" font-size="16" >O</text>
<text x="330.931817" y="177.971475" fill="rgb(255,12,12)"  stroke="rgb(255,12,12)" stroke-width="1" font-size="16" >O</text>
<text x="185.126125" y="247.120577" fill="rgb(102,102,102)"  stroke="rgb(102,102,102)" stroke-width="1" font-size="16" >H</text>
<text x="197.126125" y="250.800577" fill="rgb(102,102,102)"  stroke="rgb(102,102,102)" stroke-width="1" font-size="13" >3</text>
<text x="203.626125" y="247.120577" fill="rgb(102,102,102)"  stroke="rgb(102,102,102)" stroke-width="1" font-size="16" >C</text>
<text font-size="18.000000" fill ="black" font-family="sans-serif"
x="10.000000" y="20.000000" ></text>
<title> - OBDepict</title>
</svg>
