<?xml version="1.0"?>
<svg xmlns="http://www.w3.org/2000/svg"
xmlns:xlink="http://www.w3.org/1999/xlink" xmlns:cml="http://www.xml-cml.org/schema" width="465.293" height="379.206" x="0" y="0" font-family="sans-serif" stroke="rgb(0,0,0)" stroke-width="1"  stroke-linecap="round">
<rect x="0%" y="0%" width="100%" height="100%" stroke-width="0" fill="rgb(255,255,255)"  />
<line x1="106.4" y1="144.8" x2="125.4" y2="164.2" stroke="rgb(0,0,0)"  stroke-width="1.0"/>
<line x1="166.7" y1="271.0" x2="160.7" y2="231.3" stroke="rgb(0,0,0)"  stroke-width="1.0"/>
<line x1="172.6" y1="270.1" x2="166.6" y2="230.4" stroke="rgb(0,0,0)"  stroke-width="1.0"/>
<line x1="388.2" y1="317.5" x2="350.6" y2="303.1" stroke="rgb(0,0,0)"  stroke-width="1.0"/>
<line x1="413.2" y1="327.1" x2="388.2" y2="317.5" stroke="rgb(0,0,0)"  stroke-width="1.0"/>
<line x1="411.7" y1="331.0" x2="386.7" y2="321.5" stroke="rgb(0,0,0)"  stroke-width="1.0"/>
<line x1="414.7" y1="323.2" x2="389.7" y2="313.6" stroke="rgb(0,0,0)"  stroke-width="1.0"/>
<line x1="189.1" y1="144.4" x2="176.5" y2="168.4" stroke="rgb(0,0,0)"  stroke-width="1.0"/>
<line x1="183.8" y1="141.6" x2="171.2" y2="165.6" stroke="rgb(0,0,0)"  stroke-width="1.0"/>
<line x1="102.8" y1="222.3" x2="126.7" y2="210.1" stroke="rgb(0,0,0)"  stroke-width="1.0"/>
<line x1="105.5" y1="227.6" x2="129.5" y2="215.5" stroke="rgb(0,0,0)"  stroke-width="1.0"/>
<line x1="207.0" y1="285.0" x2="169.6" y2="270.6" stroke="rgb(0,0,0)"  stroke-width="1.0"/>
<line x1="296.5" y1="257.6" x2="275.6" y2="274.2" stroke="rgb(0,0,0)"  stroke-width="1.0"/>
<line x1="96.7" y1="52.5" x2="89.4" y2="78.3" stroke="rgb(0,0,0)"  stroke-width="1.0"/>
<line x1="307.4" y1="323.5" x2="282.2" y2="313.9" stroke="rgb(0,0,0)"  stroke-width="1.0"/>
<line x1="350.6" y1="303.1" x2="329.7" y2="320.0" stroke="rgb(0,0,0)"  stroke-width="1.0"/>
<line x1="300.3" y1="209.8" x2="304.6" y2="236.7" stroke="rgb(0,0,0)"  stroke-width="1.0"/>
<line x1="321.5" y1="192.7" x2="300.3" y2="209.8" stroke="rgb(0,0,0)"  stroke-width="1.0"/>
<line x1="147.3" y1="171.4" x2="173.9" y2="167.0" stroke="rgb(0,0,0)"  stroke-width="1.0"/>
<line x1="173.9" y1="167.0" x2="186.1" y2="191.3" stroke="rgb(0,0,0)"  stroke-width="1.0"/>
<line x1="182.7" y1="212.1" x2="163.6" y2="230.8" stroke="rgb(0,0,0)"  stroke-width="1.0"/>
<line x1="163.6" y1="230.8" x2="128.1" y2="212.8" stroke="rgb(0,0,0)"  stroke-width="1.0"/>
<line x1="128.1" y1="212.8" x2="132.4" y2="186.3" stroke="rgb(0,0,0)"  stroke-width="1.0"/>
<line x1="275.6" y1="274.2" x2="282.2" y2="313.9" stroke="rgb(0,0,0)"  stroke-width="1.0"/>
<line x1="282.2" y1="313.9" x2="250.7" y2="339.2" stroke="rgb(0,0,0)"  stroke-width="1.0"/>
<line x1="273.0" y1="312.1" x2="250.9" y2="329.8" stroke="rgb(0,0,0)"  stroke-width="1.0"/>
<line x1="250.7" y1="339.2" x2="213.4" y2="324.8" stroke="rgb(0,0,0)"  stroke-width="1.0"/>
<line x1="213.4" y1="324.8" x2="207.0" y2="285.0" stroke="rgb(0,0,0)"  stroke-width="1.0"/>
<line x1="219.5" y1="317.7" x2="215.0" y2="289.8" stroke="rgb(0,0,0)"  stroke-width="1.0"/>
<line x1="207.0" y1="285.0" x2="238.3" y2="260.1" stroke="rgb(0,0,0)"  stroke-width="1.0"/>
<line x1="238.3" y1="260.1" x2="275.6" y2="274.2" stroke="rgb(0,0,0)"  stroke-width="1.0"/>
<line x1="241.3" y1="269.0" x2="267.4" y2="278.8" stroke="rgb(0,0,0)"  stroke-width="1.0"/>
<line x1="106.4" y1="144.8" x2="117.3" y2="106.6" stroke="rgb(0,0,0)"  stroke-width="1.0"/>
<line x1="101.1" y1="137.0" x2="108.7" y2="110.4" stroke="rgb(0,0,0)"  stroke-width="1.0"/>
<line x1="117.3" y1="106.6" x2="89.4" y2="78.3" stroke="rgb(0,0,0)"  stroke-width="1.0"/>
<line x1="89.4" y1="78.3" x2="50.4" y2="88.2" stroke="rgb(0,0,0)"  stroke-width="1.0"/>
<line x1="85.3" y1="86.8" x2="58.0" y2="93.7" stroke="rgb(0,0,0)"  stroke-width="1.0"/>
<line x1="50.4" y1="88.2" x2="40.0" y2="126.7" stroke="rgb(0,0,0)"  stroke-width="1.0"/>
<line x1="40.0" y1="126.7" x2="67.9" y2="155.4" stroke="rgb(0,0,0)"  stroke-width="1.0"/>
<line x1="49.3" y1="126.0" x2="68.9" y2="146.1" stroke="rgb(0,0,0)"  stroke-width="1.0"/>
<line x1="67.9" y1="155.4" x2="106.4" y2="144.8" stroke="rgb(0,0,0)"  stroke-width="1.0"/>
<text x="128.517652" y="181.445246" fill="rgb(12,12,255)"  stroke="rgb(12,12,255)" stroke-width="1" font-size="16" >N</text>
<text x="185.912205" y="210.947753" fill="rgb(178,178,0)"  stroke="rgb(178,178,0)" stroke-width="1" font-size="16" >S</text>
<text x="419.293435" y="339.779897" fill="rgb(102,102,102)"  stroke="rgb(102,102,102)" stroke-width="1" font-size="16" >CH</text>
<text x="186.513703" y="139.510162" fill="rgb(255,12,12)"  stroke="rgb(255,12,12)" stroke-width="1" font-size="16" >O</text>
<text x="86.577718" y="238.839798" fill="rgb(255,12,12)"  stroke="rgb(255,12,12)" stroke-width="1" font-size="16" >O</text>
<text x="300.696459" y="257.505640" fill="rgb(255,12,12)"  stroke="rgb(255,12,12)" stroke-width="1" font-size="16" >O</text>
<text x="94.203160" y="48.000000" fill="rgb(30,239,30)"  stroke="rgb(30,239,30)" stroke-width="1" font-size="16" >Cl</text>
<text x="313.541353" y="336.166058" fill="rgb(255,12,12)"  stroke="rgb(255,12,12)" stroke-width="1" font-size="16" >O</text>
<text x="327.581014" y="192.485645" fill="rgb(102,102,102)"  stroke="rgb(102,102,102)" stroke-width="1" font-size="16" >CH</text>
<text x="351.581014" y="196.165645" fill="rgb(102,102,102)"  stroke="rgb(102,102,102)" stroke-width="1" font-size="13" >3</text>
<text font-size="18.000000" fill ="black" font-family="sans-serif"
x="10.000000" y="20.000000" ></text>
<title> - OBDepict</title>
</svg>
