<?xml version="1.0"?>
<svg xmlns="http://www.w3.org/2000/svg"
xmlns:xlink="http://www.w3.org/1999/xlink" xmlns:cml="http://www.xml-cml.org/schema" width="450.506" height="257.557" x="0" y="0" font-family="sans-serif" stroke="rgb(0,0,0)" stroke-width="1"  stroke-linecap="round">
<rect x="0%" y="0%" width="100%" height="100%" stroke-width="0" fill="rgb(255,255,255)"  />
<line x1="232.9" y1="142.0" x2="205.8" y2="142.0" stroke="rgb(0,0,0)"  stroke-width="1.0"/>
<line x1="232.9" y1="136.0" x2="205.8" y2="136.0" stroke="rgb(0,0,0)"  stroke-width="1.0"/>
<line x1="365.2" y1="93.8" x2="372.0" y2="67.9" stroke="rgb(0,0,0)"  stroke-width="1.0"/>
<line x1="372.0" y1="67.9" x2="343.5" y2="40.0" stroke="rgb(0,0,0)"  stroke-width="1.0"/>
<line x1="256.2" y1="100.1" x2="249.2" y2="126.4" stroke="rgb(0,0,0)"  stroke-width="1.0"/>
<line x1="233.6" y1="217.6" x2="194.7" y2="209.1" stroke="rgb(0,0,0)"  stroke-width="1.0"/>
<line x1="251.6" y1="197.5" x2="233.6" y2="217.6" stroke="rgb(0,0,0)"  stroke-width="1.0"/>
<line x1="254.7" y1="200.3" x2="236.7" y2="220.4" stroke="rgb(0,0,0)"  stroke-width="1.0"/>
<line x1="248.5" y1="194.7" x2="230.4" y2="214.8" stroke="rgb(0,0,0)"  stroke-width="1.0"/>
<line x1="398.8" y1="63.6" x2="372.8" y2="70.8" stroke="rgb(0,0,0)"  stroke-width="1.0"/>
<line x1="397.2" y1="57.8" x2="371.2" y2="65.0" stroke="rgb(0,0,0)"  stroke-width="1.0"/>
<line x1="194.7" y1="209.1" x2="186.2" y2="183.7" stroke="rgb(0,0,0)"  stroke-width="1.0"/>
<line x1="239.0" y1="78.8" x2="258.3" y2="98.0" stroke="rgb(0,0,0)"  stroke-width="1.0"/>
<line x1="234.8" y1="83.1" x2="254.1" y2="102.3" stroke="rgb(0,0,0)"  stroke-width="1.0"/>
<line x1="301.5" y1="63.1" x2="294.5" y2="89.4" stroke="rgb(0,0,0)"  stroke-width="1.0"/>
<line x1="343.5" y1="40.0" x2="317.4" y2="47.1" stroke="rgb(0,0,0)"  stroke-width="1.0"/>
<line x1="294.5" y1="89.4" x2="256.2" y2="100.1" stroke="rgb(0,0,0)"  stroke-width="1.0"/>
<line x1="51.3" y1="105.5" x2="75.0" y2="119.0" stroke="rgb(0,0,0)"  stroke-width="1.0"/>
<line x1="205.8" y1="139.0" x2="189.8" y2="116.9" stroke="rgb(0,0,0)"  stroke-width="1.0"/>
<line x1="169.8" y1="110.5" x2="143.9" y2="119.0" stroke="rgb(0,0,0)"  stroke-width="1.0"/>
<line x1="143.9" y1="119.0" x2="143.9" y2="159.0" stroke="rgb(0,0,0)"  stroke-width="1.0"/>
<line x1="151.1" y1="125.0" x2="151.1" y2="153.0" stroke="rgb(0,0,0)"  stroke-width="1.0"/>
<line x1="143.9" y1="159.0" x2="169.8" y2="167.4" stroke="rgb(0,0,0)"  stroke-width="1.0"/>
<line x1="189.8" y1="160.9" x2="205.8" y2="139.0" stroke="rgb(0,0,0)"  stroke-width="1.0"/>
<line x1="349.3" y1="109.7" x2="323.0" y2="116.7" stroke="rgb(0,0,0)"  stroke-width="1.0"/>
<line x1="323.0" y1="116.7" x2="313.1" y2="155.0" stroke="rgb(0,0,0)"  stroke-width="1.0"/>
<line x1="313.1" y1="155.0" x2="331.6" y2="174.2" stroke="rgb(0,0,0)"  stroke-width="1.0"/>
<line x1="353.2" y1="180.1" x2="379.5" y2="173.0" stroke="rgb(0,0,0)"  stroke-width="1.0"/>
<line x1="379.5" y1="173.0" x2="390.3" y2="134.3" stroke="rgb(0,0,0)"  stroke-width="1.0"/>
<line x1="390.3" y1="134.3" x2="371.2" y2="115.5" stroke="rgb(0,0,0)"  stroke-width="1.0"/>
<line x1="109.2" y1="178.7" x2="75.0" y2="159.0" stroke="rgb(0,0,0)"  stroke-width="1.0"/>
<line x1="107.6" y1="169.5" x2="83.8" y2="155.8" stroke="rgb(0,0,0)"  stroke-width="1.0"/>
<line x1="75.0" y1="159.0" x2="75.0" y2="119.0" stroke="rgb(0,0,0)"  stroke-width="1.0"/>
<line x1="75.0" y1="119.0" x2="109.2" y2="98.5" stroke="rgb(0,0,0)"  stroke-width="1.0"/>
<line x1="83.9" y1="122.1" x2="107.8" y2="107.8" stroke="rgb(0,0,0)"  stroke-width="1.0"/>
<line x1="109.2" y1="98.5" x2="143.9" y2="119.0" stroke="rgb(0,0,0)"  stroke-width="1.0"/>
<line x1="143.9" y1="159.0" x2="109.2" y2="178.7" stroke="rgb(0,0,0)"  stroke-width="1.0"/>
<text x="176.129939" y="179.395751" fill="rgb(12,12,255)"  stroke="rgb(12,12,255)" stroke-width="1" font-size="16" >N</text>
<text x="239.905635" y="147.004360" fill="rgb(12,12,255)"  stroke="rgb(12,12,255)" stroke-width="1" font-size="16" >N</text>
<text x="176.129939" y="114.409615" fill="rgb(178,178,0)"  stroke="rgb(178,178,0)" stroke-width="1" font-size="16" >S</text>
<text x="355.914264" y="114.409615" fill="rgb(12,12,255)"  stroke="rgb(12,12,255)" stroke-width="1" font-size="16" >N</text>
<text x="254.275986" y="195.794801" fill="rgb(102,102,102)"  stroke="rgb(102,102,102)" stroke-width="1" font-size="16" >CH</text>
<text x="404.506193" y="65.207624" fill="rgb(255,12,12)"  stroke="rgb(255,12,12)" stroke-width="1" font-size="16" >O</text>
<text x="221.681240" y="79.786171" fill="rgb(255,12,12)"  stroke="rgb(255,12,12)" stroke-width="1" font-size="16" >O</text>
<text x="334.654085" y="191.543733" fill="rgb(255,12,12)"  stroke="rgb(255,12,12)" stroke-width="1" font-size="16" >O</text>
<text x="298.820201" y="58.525992" fill="rgb(178,178,0)"  stroke="rgb(178,178,0)" stroke-width="1" font-size="16" >S</text>
<text x="34.000000" y="107.117920" fill="rgb(191,191,191)"  stroke="rgb(191,191,191)" stroke-width="1" font-size="16" >H</text>
<text font-size="18.000000" fill ="black" font-family="sans-serif"
x="10.000000" y="20.000000" ></text>
<title> - OBDepict</title>
</svg>
