<?xml version="1.0"?>
<svg xmlns="http://www.w3.org/2000/svg"
xmlns:xlink="http://www.w3.org/1999/xlink" xmlns:cml="http://www.xml-cml.org/schema" width="322.432" height="360.009" x="0" y="0" font-family="sans-serif" stroke="rgb(0,0,0)" stroke-width="1"  stroke-linecap="round">
<rect x="0%" y="0%" width="100%" height="100%" stroke-width="0" fill="rgb(255,255,255)"  />
<line x1="155.1" y1="186.5" x2="167.3" y2="193.5" stroke="rgb(0,0,0)"  stroke-width="1.0"/>
<line x1="213.1" y1="220.0" x2="189.8" y2="206.5" stroke="rgb(0,0,0)"  stroke-width="1.0"/>
<line x1="194.7" y1="178.2" x2="187.7" y2="190.3" stroke="rgb(0,0,0)"  stroke-width="1.0"/>
<line x1="189.5" y1="175.2" x2="182.5" y2="187.3" stroke="rgb(0,0,0)"  stroke-width="1.0"/>
<line x1="162.5" y1="222.0" x2="169.5" y2="209.8" stroke="rgb(0,0,0)"  stroke-width="1.0"/>
<line x1="167.7" y1="225.0" x2="174.7" y2="212.8" stroke="rgb(0,0,0)"  stroke-width="1.0"/>
<line x1="40.0" y1="80.0" x2="40.0" y2="120.0" stroke="rgb(0,0,0)"  stroke-width="1.0"/>
<line x1="40.0" y1="53.0" x2="40.0" y2="80.0" stroke="rgb(0,0,0)"  stroke-width="1.0"/>
<line x1="44.2" y1="53.0" x2="44.2" y2="80.0" stroke="rgb(0,0,0)"  stroke-width="1.0"/>
<line x1="35.8" y1="53.0" x2="35.8" y2="80.0" stroke="rgb(0,0,0)"  stroke-width="1.0"/>
<line x1="40.0" y1="120.0" x2="63.3" y2="133.5" stroke="rgb(0,0,0)"  stroke-width="1.0"/>
<line x1="247.9" y1="307.0" x2="247.9" y2="280.0" stroke="rgb(0,0,0)"  stroke-width="1.0"/>
<line x1="143.8" y1="167.0" x2="143.8" y2="140.0" stroke="rgb(0,0,0)"  stroke-width="1.0"/>
<line x1="143.8" y1="140.0" x2="109.3" y2="120.0" stroke="rgb(0,0,0)"  stroke-width="1.0"/>
<line x1="109.3" y1="120.0" x2="85.8" y2="133.5" stroke="rgb(0,0,0)"  stroke-width="1.0"/>
<line x1="74.5" y1="153.0" x2="74.5" y2="180.0" stroke="rgb(0,0,0)"  stroke-width="1.0"/>
<line x1="74.5" y1="180.0" x2="109.3" y2="200.0" stroke="rgb(0,0,0)"  stroke-width="1.0"/>
<line x1="109.3" y1="200.0" x2="132.6" y2="186.5" stroke="rgb(0,0,0)"  stroke-width="1.0"/>
<line x1="213.1" y1="220.0" x2="247.9" y2="200.0" stroke="rgb(0,0,0)"  stroke-width="1.0"/>
<line x1="221.9" y1="223.3" x2="246.3" y2="209.2" stroke="rgb(0,0,0)"  stroke-width="1.0"/>
<line x1="247.9" y1="200.0" x2="282.4" y2="220.0" stroke="rgb(0,0,0)"  stroke-width="1.0"/>
<line x1="282.4" y1="220.0" x2="282.4" y2="260.0" stroke="rgb(0,0,0)"  stroke-width="1.0"/>
<line x1="275.2" y1="226.0" x2="275.2" y2="254.0" stroke="rgb(0,0,0)"  stroke-width="1.0"/>
<line x1="282.4" y1="260.0" x2="247.9" y2="280.0" stroke="rgb(0,0,0)"  stroke-width="1.0"/>
<line x1="247.9" y1="280.0" x2="213.1" y2="260.0" stroke="rgb(0,0,0)"  stroke-width="1.0"/>
<line x1="246.3" y1="270.8" x2="221.9" y2="256.8" stroke="rgb(0,0,0)"  stroke-width="1.0"/>
<line x1="213.1" y1="260.0" x2="213.1" y2="220.0" stroke="rgb(0,0,0)"  stroke-width="1.0"/>
<text x="172.588699" y="208.005145" fill="rgb(178,178,0)"  stroke="rgb(178,178,0)" stroke-width="1" font-size="16" >S</text>
<text x="137.838490" y="188.004502" fill="rgb(12,12,255)"  stroke="rgb(12,12,255)" stroke-width="1" font-size="16" >N</text>
<text x="192.589342" y="173.458580" fill="rgb(255,12,12)"  stroke="rgb(255,12,12)" stroke-width="1" font-size="16" >O</text>
<text x="152.588056" y="242.755353" fill="rgb(255,12,12)"  stroke="rgb(255,12,12)" stroke-width="1" font-size="16" >O</text>
<text x="68.546565" y="148.003216" fill="rgb(12,12,255)"  stroke="rgb(12,12,255)" stroke-width="1" font-size="16" >N</text>
<text x="34.000000" y="48.000000" fill="rgb(102,102,102)"  stroke="rgb(102,102,102)" stroke-width="1" font-size="16" >CH</text>
<text x="241.885472" y="328.009004" fill="rgb(127,178,255)"  stroke="rgb(127,178,255)" stroke-width="1" font-size="16" >F</text>
<text font-size="18.000000" fill ="black" font-family="sans-serif"
x="10.000000" y="20.000000" ></text>
<title> - OBDepict</title>
</svg>
