<?xml version="1.0"?>
<svg xmlns="http://www.w3.org/2000/svg"
xmlns:xlink="http://www.w3.org/1999/xlink" xmlns:cml="http://www.xml-cml.org/schema" width="371.298" height="284.65" x="0" y="0" font-family="sans-serif" stroke="rgb(0,0,0)" stroke-width="1"  stroke-linecap="round">
<rect x="0%" y="0%" width="100%" height="100%" stroke-width="0" fill="rgb(255,255,255)"  />
<line x1="283.0" y1="188.8" x2="291.5" y2="214.3" stroke="rgb(0,0,0)"  stroke-width="1.0"/>
<line x1="278.9" y1="111.6" x2="287.5" y2="85.2" stroke="rgb(0,0,0)"  stroke-width="1.0"/>
<line x1="291.5" y1="214.3" x2="274.0" y2="234.8" stroke="rgb(0,0,0)"  stroke-width="1.0"/>
<line x1="292.2" y1="211.4" x2="319.2" y2="217.1" stroke="rgb(0,0,0)"  stroke-width="1.0"/>
<line x1="290.9" y1="217.3" x2="318.0" y2="223.0" stroke="rgb(0,0,0)"  stroke-width="1.0"/>
<line x1="179.8" y1="144.4" x2="140.0" y2="144.4" stroke="rgb(0,0,0)"  stroke-width="1.0"/>
<line x1="140.0" y1="144.4" x2="126.5" y2="121.2" stroke="rgb(0,0,0)"  stroke-width="1.0"/>
<line x1="107.0" y1="110.0" x2="80.3" y2="110.0" stroke="rgb(0,0,0)"  stroke-width="1.0"/>
<line x1="80.3" y1="110.0" x2="60.0" y2="75.4" stroke="rgb(0,0,0)"  stroke-width="1.0"/>
<line x1="60.0" y1="75.4" x2="46.4" y2="51.3" stroke="rgb(0,0,0)"  stroke-width="1.0"/>
<line x1="56.4" y1="77.5" x2="42.7" y2="53.4" stroke="rgb(0,0,0)"  stroke-width="1.0"/>
<line x1="63.7" y1="73.3" x2="50.1" y2="49.2" stroke="rgb(0,0,0)"  stroke-width="1.0"/>
<line x1="241.0" y1="163.8" x2="241.0" y2="124.2" stroke="rgb(0,0,0)"  stroke-width="1.0"/>
<line x1="233.8" y1="157.8" x2="233.8" y2="130.2" stroke="rgb(0,0,0)"  stroke-width="1.0"/>
<line x1="241.0" y1="124.2" x2="203.1" y2="111.6" stroke="rgb(0,0,0)"  stroke-width="1.0"/>
<line x1="203.1" y1="111.6" x2="179.8" y2="144.4" stroke="rgb(0,0,0)"  stroke-width="1.0"/>
<line x1="179.8" y1="144.4" x2="195.5" y2="165.9" stroke="rgb(0,0,0)"  stroke-width="1.0"/>
<line x1="215.5" y1="172.3" x2="241.0" y2="163.8" stroke="rgb(0,0,0)"  stroke-width="1.0"/>
<line x1="294.3" y1="133.5" x2="278.9" y2="111.6" stroke="rgb(0,0,0)"  stroke-width="1.0"/>
<line x1="287.2" y1="136.0" x2="276.4" y2="120.6" stroke="rgb(0,0,0)"  stroke-width="1.0"/>
<line x1="278.9" y1="111.6" x2="241.0" y2="124.2" stroke="rgb(0,0,0)"  stroke-width="1.0"/>
<line x1="241.0" y1="163.8" x2="266.6" y2="172.3" stroke="rgb(0,0,0)"  stroke-width="1.0"/>
<line x1="286.5" y1="165.9" x2="294.3" y2="154.9" stroke="rgb(0,0,0)"  stroke-width="1.0"/>
<text x="272.903352" y="184.433227" fill="rgb(12,12,255)"  stroke="rgb(12,12,255)" stroke-width="1" font-size="16" >N</text>
<text x="197.140995" y="184.433227" fill="rgb(255,12,12)"  stroke="rgb(255,12,12)" stroke-width="1" font-size="16" >O</text>
<text x="295.835828" y="152.357770" fill="rgb(12,12,255)"  stroke="rgb(12,12,255)" stroke-width="1" font-size="16" >N</text>
<text x="287.531218" y="80.801475" fill="rgb(102,102,102)"  stroke="rgb(102,102,102)" stroke-width="1" font-size="16" >CH</text>
<text x="311.531218" y="84.481475" fill="rgb(102,102,102)"  stroke="rgb(102,102,102)" stroke-width="1" font-size="13" >3</text>
<text x="239.549468" y="252.649841" fill="rgb(12,12,255)"  stroke="rgb(12,12,255)" stroke-width="1" font-size="16" >H</text>
<text x="251.549468" y="256.329841" fill="rgb(12,12,255)"  stroke="rgb(12,12,255)" stroke-width="1" font-size="13" >2</text>
<text x="258.049468" y="252.649841" fill="rgb(12,12,255)"  stroke="rgb(12,12,255)" stroke-width="1" font-size="16" >N</text>
<text x="325.297622" y="230.733790" fill="rgb(178,178,0)"  stroke="rgb(178,178,0)" stroke-width="1" font-size="16" >S</text>
<text x="113.973259" y="117.959056" fill="rgb(255,12,12)"  stroke="rgb(255,12,12)" stroke-width="1" font-size="16" >O</text>
<text x="22.000000" y="48.000000" fill="rgb(102,102,102)"  stroke="rgb(102,102,102)" stroke-width="1" font-size="16" >HC</text>
<text font-size="18.000000" fill ="black" font-family="sans-serif"
x="10.000000" y="20.000000" ></text>
<title> - OBDepict</title>
</svg>
