<?xml version="1.0"?>
<svg xmlns="http://www.w3.org/2000/svg"
xmlns:xlink="http://www.w3.org/1999/xlink" xmlns:cml="http://www.xml-cml.org/schema" width="499.741" height="336.115" x="0" y="0" font-family="sans-serif" stroke="rgb(0,0,0)" stroke-width="1"  stroke-linecap="round">
<rect x="0%" y="0%" width="100%" height="100%" stroke-width="0" fill="rgb(255,255,255)"  />
<line x1="135.5" y1="92.7" x2="161.5" y2="100.0" stroke="rgb(0,0,0)"  stroke-width="1.0"/>
<line x1="278.0" y1="95.0" x2="239.5" y2="107.0" stroke="rgb(0,0,0)"  stroke-width="1.0"/>
<line x1="276.2" y1="89.3" x2="237.7" y2="101.3" stroke="rgb(0,0,0)"  stroke-width="1.0"/>
<line x1="413.6" y1="268.0" x2="384.8" y2="240.3" stroke="rgb(0,0,0)"  stroke-width="1.0"/>
<line x1="432.6" y1="286.9" x2="413.6" y2="268.0" stroke="rgb(0,0,0)"  stroke-width="1.0"/>
<line x1="429.6" y1="289.9" x2="410.6" y2="270.9" stroke="rgb(0,0,0)"  stroke-width="1.0"/>
<line x1="435.5" y1="284.0" x2="416.6" y2="265.0" stroke="rgb(0,0,0)"  stroke-width="1.0"/>
<line x1="167.8" y1="161.9" x2="183.7" y2="140.2" stroke="rgb(0,0,0)"  stroke-width="1.0"/>
<line x1="172.6" y1="165.4" x2="188.6" y2="143.8" stroke="rgb(0,0,0)"  stroke-width="1.0"/>
<line x1="209.8" y1="53.0" x2="209.5" y2="80.2" stroke="rgb(0,0,0)"  stroke-width="1.0"/>
<line x1="203.8" y1="53.0" x2="203.5" y2="80.1" stroke="rgb(0,0,0)"  stroke-width="1.0"/>
<line x1="306.4" y1="119.5" x2="277.1" y2="92.2" stroke="rgb(0,0,0)"  stroke-width="1.0"/>
<line x1="400.0" y1="126.9" x2="373.8" y2="134.7" stroke="rgb(0,0,0)"  stroke-width="1.0"/>
<line x1="49.2" y1="128.3" x2="68.7" y2="109.2" stroke="rgb(0,0,0)"  stroke-width="1.0"/>
<line x1="384.5" y1="192.5" x2="365.1" y2="174.0" stroke="rgb(0,0,0)"  stroke-width="1.0"/>
<line x1="384.8" y1="240.3" x2="390.9" y2="214.1" stroke="rgb(0,0,0)"  stroke-width="1.0"/>
<line x1="421.6" y1="84.2" x2="415.4" y2="110.5" stroke="rgb(0,0,0)"  stroke-width="1.0"/>
<line x1="447.3" y1="76.1" x2="421.6" y2="84.2" stroke="rgb(0,0,0)"  stroke-width="1.0"/>
<line x1="177.9" y1="115.9" x2="186.1" y2="142.0" stroke="rgb(0,0,0)"  stroke-width="1.0"/>
<line x1="186.1" y1="142.0" x2="213.5" y2="142.0" stroke="rgb(0,0,0)"  stroke-width="1.0"/>
<line x1="230.4" y1="129.6" x2="238.6" y2="104.2" stroke="rgb(0,0,0)"  stroke-width="1.0"/>
<line x1="238.6" y1="104.2" x2="206.5" y2="80.2" stroke="rgb(0,0,0)"  stroke-width="1.0"/>
<line x1="206.5" y1="80.2" x2="184.5" y2="95.9" stroke="rgb(0,0,0)"  stroke-width="1.0"/>
<line x1="373.8" y1="134.7" x2="365.1" y2="174.0" stroke="rgb(0,0,0)"  stroke-width="1.0"/>
<line x1="365.4" y1="139.0" x2="359.4" y2="166.6" stroke="rgb(0,0,0)"  stroke-width="1.0"/>
<line x1="365.1" y1="174.0" x2="327.1" y2="185.6" stroke="rgb(0,0,0)"  stroke-width="1.0"/>
<line x1="327.1" y1="185.6" x2="297.8" y2="158.3" stroke="rgb(0,0,0)"  stroke-width="1.0"/>
<line x1="327.6" y1="176.3" x2="307.1" y2="157.1" stroke="rgb(0,0,0)"  stroke-width="1.0"/>
<line x1="297.8" y1="158.3" x2="306.4" y2="119.5" stroke="rgb(0,0,0)"  stroke-width="1.0"/>
<line x1="306.4" y1="119.5" x2="344.8" y2="107.3" stroke="rgb(0,0,0)"  stroke-width="1.0"/>
<line x1="314.3" y1="124.5" x2="341.2" y2="116.0" stroke="rgb(0,0,0)"  stroke-width="1.0"/>
<line x1="344.8" y1="107.3" x2="373.8" y2="134.7" stroke="rgb(0,0,0)"  stroke-width="1.0"/>
<line x1="135.5" y1="92.7" x2="107.0" y2="120.2" stroke="rgb(0,0,0)"  stroke-width="1.0"/>
<line x1="107.0" y1="120.2" x2="68.7" y2="109.2" stroke="rgb(0,0,0)"  stroke-width="1.0"/>
<line x1="103.2" y1="111.6" x2="76.4" y2="103.9" stroke="rgb(0,0,0)"  stroke-width="1.0"/>
<line x1="68.7" y1="109.2" x2="58.8" y2="70.8" stroke="rgb(0,0,0)"  stroke-width="1.0"/>
<line x1="58.8" y1="70.8" x2="87.5" y2="42.8" stroke="rgb(0,0,0)"  stroke-width="1.0"/>
<line x1="68.2" y1="71.8" x2="88.2" y2="52.2" stroke="rgb(0,0,0)"  stroke-width="1.0"/>
<line x1="87.5" y1="42.8" x2="125.6" y2="53.8" stroke="rgb(0,0,0)"  stroke-width="1.0"/>
<line x1="125.6" y1="53.8" x2="135.5" y2="92.7" stroke="rgb(0,0,0)"  stroke-width="1.0"/>
<line x1="120.1" y1="61.4" x2="127.0" y2="88.6" stroke="rgb(0,0,0)"  stroke-width="1.0"/>
<text x="167.969951" y="111.487009" fill="rgb(12,12,255)"  stroke="rgb(12,12,255)" stroke-width="1" font-size="16" >N</text>
<text x="220.461272" y="149.981614" fill="rgb(12,12,255)"  stroke="rgb(12,12,255)" stroke-width="1" font-size="16" >N</text>
<text x="220.461272" y="165.981614" fill="rgb(12,12,255)"  stroke="rgb(12,12,255)" stroke-width="1" font-size="16" >H</text>
<text x="435.745016" y="304.115175" fill="rgb(102,102,102)"  stroke="rgb(102,102,102)" stroke-width="1" font-size="16" >CH</text>
<text x="156.474900" y="182.139638" fill="rgb(255,12,12)"  stroke="rgb(255,12,12)" stroke-width="1" font-size="16" >O</text>
<text x="200.966712" y="48.000000" fill="rgb(255,12,12)"  stroke="rgb(255,12,12)" stroke-width="1" font-size="16" >O</text>
<text x="406.418333" y="131.151255" fill="rgb(255,12,12)"  stroke="rgb(255,12,12)" stroke-width="1" font-size="16" >O</text>
<text x="22.000000" y="145.482496" fill="rgb(30,239,30)"  stroke="rgb(30,239,30)" stroke-width="1" font-size="16" >Cl</text>
<text x="387.922499" y="209.468868" fill="rgb(255,12,12)"  stroke="rgb(255,12,12)" stroke-width="1" font-size="16" >O</text>
<text x="455.741486" y="80.162873" fill="rgb(102,102,102)"  stroke="rgb(102,102,102)" stroke-width="1" font-size="16" >CH</text>
<text x="479.741486" y="83.842873" fill="rgb(102,102,102)"  stroke="rgb(102,102,102)" stroke-width="1" font-size="13" >3</text>
<text font-size="18.000000" fill ="black" font-family="sans-serif"
x="10.000000" y="20.000000" ></text>
<title> - OBDepict</title>
</svg>
