<?xml version="1.0"?>
<svg xmlns="http://www.w3.org/2000/svg"
xmlns:xlink="http://www.w3.org/1999/xlink" xmlns:cml="http://www.xml-cml.org/schema" width="214.572" height="559.896" x="0" y="0" font-family="sans-serif" stroke="rgb(0,0,0)" stroke-width="1"  stroke-linecap="round">
<rect x="0%" y="0%" width="100%" height="100%" stroke-width="0" fill="rgb(255,255,255)"  />
<line x1="80.0" y1="246.8" x2="80.0" y2="232.8" stroke="rgb(0,0,0)"  stroke-width="1.0"/>
<line x1="80.0" y1="379.9" x2="80.0" y2="339.9" stroke="rgb(0,0,0)"  stroke-width="1.0"/>
<line x1="80.0" y1="179.8" x2="80.0" y2="206.8" stroke="rgb(0,0,0)"  stroke-width="1.0"/>
<line x1="103.3" y1="393.4" x2="80.0" y2="379.9" stroke="rgb(0,0,0)"  stroke-width="1.0"/>
<line x1="114.6" y1="479.9" x2="114.6" y2="439.9" stroke="rgb(0,0,0)"  stroke-width="1.0"/>
<line x1="53.0" y1="216.8" x2="67.0" y2="216.8" stroke="rgb(0,0,0)"  stroke-width="1.0"/>
<line x1="53.0" y1="222.8" x2="67.0" y2="222.8" stroke="rgb(0,0,0)"  stroke-width="1.0"/>
<line x1="107.0" y1="222.8" x2="93.0" y2="222.8" stroke="rgb(0,0,0)"  stroke-width="1.0"/>
<line x1="107.0" y1="216.8" x2="93.0" y2="216.8" stroke="rgb(0,0,0)"  stroke-width="1.0"/>
<line x1="114.6" y1="506.9" x2="114.6" y2="479.9" stroke="rgb(0,0,0)"  stroke-width="1.0"/>
<line x1="110.4" y1="506.9" x2="110.4" y2="479.9" stroke="rgb(0,0,0)"  stroke-width="1.0"/>
<line x1="118.8" y1="506.9" x2="118.8" y2="479.9" stroke="rgb(0,0,0)"  stroke-width="1.0"/>
<line x1="114.6" y1="439.9" x2="114.6" y2="412.9" stroke="rgb(0,0,0)"  stroke-width="1.0"/>
<line x1="55.0" y1="390.8" x2="78.5" y2="377.3" stroke="rgb(0,0,0)"  stroke-width="1.0"/>
<line x1="58.0" y1="396.0" x2="81.5" y2="382.5" stroke="rgb(0,0,0)"  stroke-width="1.0"/>
<line x1="80.0" y1="73.0" x2="80.0" y2="99.8" stroke="rgb(0,0,0)"  stroke-width="1.0"/>
<line x1="74.6" y1="439.9" x2="114.6" y2="439.9" stroke="rgb(0,0,0)"  stroke-width="1.0"/>
<line x1="154.6" y1="439.9" x2="114.6" y2="439.9" stroke="rgb(0,0,0)"  stroke-width="1.0"/>
<line x1="103.3" y1="46.5" x2="91.3" y2="53.5" stroke="rgb(0,0,0)"  stroke-width="1.0"/>
<line x1="168.1" y1="463.4" x2="154.6" y2="439.9" stroke="rgb(0,0,0)"  stroke-width="1.0"/>
<line x1="61.1" y1="416.6" x2="74.6" y2="439.9" stroke="rgb(0,0,0)"  stroke-width="1.0"/>
<line x1="91.3" y1="266.4" x2="114.6" y2="279.8" stroke="rgb(0,0,0)"  stroke-width="1.0"/>
<line x1="114.6" y1="279.8" x2="114.6" y2="319.9" stroke="rgb(0,0,0)"  stroke-width="1.0"/>
<line x1="114.6" y1="319.9" x2="80.0" y2="339.9" stroke="rgb(0,0,0)"  stroke-width="1.0"/>
<line x1="80.0" y1="339.9" x2="45.3" y2="319.9" stroke="rgb(0,0,0)"  stroke-width="1.0"/>
<line x1="45.3" y1="319.9" x2="45.3" y2="279.8" stroke="rgb(0,0,0)"  stroke-width="1.0"/>
<line x1="45.3" y1="279.8" x2="68.7" y2="266.3" stroke="rgb(0,0,0)"  stroke-width="1.0"/>
<line x1="80.0" y1="179.8" x2="114.6" y2="159.8" stroke="rgb(0,0,0)"  stroke-width="1.0"/>
<line x1="114.6" y1="159.8" x2="114.6" y2="119.8" stroke="rgb(0,0,0)"  stroke-width="1.0"/>
<line x1="107.4" y1="153.8" x2="107.4" y2="125.8" stroke="rgb(0,0,0)"  stroke-width="1.0"/>
<line x1="114.6" y1="119.8" x2="80.0" y2="99.8" stroke="rgb(0,0,0)"  stroke-width="1.0"/>
<line x1="80.0" y1="99.8" x2="45.3" y2="119.8" stroke="rgb(0,0,0)"  stroke-width="1.0"/>
<line x1="78.4" y1="109.0" x2="54.0" y2="123.1" stroke="rgb(0,0,0)"  stroke-width="1.0"/>
<line x1="45.3" y1="119.8" x2="45.3" y2="159.8" stroke="rgb(0,0,0)"  stroke-width="1.0"/>
<line x1="45.3" y1="159.8" x2="80.0" y2="179.8" stroke="rgb(0,0,0)"  stroke-width="1.0"/>
<line x1="54.0" y1="156.6" x2="78.4" y2="170.6" stroke="rgb(0,0,0)"  stroke-width="1.0"/>
<text x="74.007870" y="227.836587" fill="rgb(178,178,0)"  stroke="rgb(178,178,0)" stroke-width="1" font-size="16" >S</text>
<text x="74.007870" y="267.844457" fill="rgb(12,12,255)"  stroke="rgb(12,12,255)" stroke-width="1" font-size="16" >N</text>
<text x="108.560121" y="407.872001" fill="rgb(12,12,255)"  stroke="rgb(12,12,255)" stroke-width="1" font-size="16" >NH</text>
<text x="34.000000" y="227.836587" fill="rgb(255,12,12)"  stroke="rgb(255,12,12)" stroke-width="1" font-size="16" >O</text>
<text x="114.015740" y="227.836587" fill="rgb(255,12,12)"  stroke="rgb(255,12,12)" stroke-width="1" font-size="16" >O</text>
<text x="108.560121" y="527.895610" fill="rgb(102,102,102)"  stroke="rgb(102,102,102)" stroke-width="1" font-size="16" >CH</text>
<text x="39.251942" y="407.872001" fill="rgb(255,12,12)"  stroke="rgb(255,12,12)" stroke-width="1" font-size="16" >O</text>
<text x="74.007870" y="68.003935" fill="rgb(255,12,12)"  stroke="rgb(255,12,12)" stroke-width="1" font-size="16" >O</text>
<text x="110.560121" y="48.000000" fill="rgb(102,102,102)"  stroke="rgb(102,102,102)" stroke-width="1" font-size="16" >CH</text>
<text x="134.560121" y="51.680000" fill="rgb(102,102,102)"  stroke="rgb(102,102,102)" stroke-width="1" font-size="13" >3</text>
<text x="170.571926" y="482.630949" fill="rgb(102,102,102)"  stroke="rgb(102,102,102)" stroke-width="1" font-size="16" >CH</text>
<text x="194.571926" y="486.310949" fill="rgb(102,102,102)"  stroke="rgb(102,102,102)" stroke-width="1" font-size="13" >3</text>
<text x="28.548316" y="413.327619" fill="rgb(102,102,102)"  stroke="rgb(102,102,102)" stroke-width="1" font-size="16" >H</text>
<text x="40.548316" y="417.007619" fill="rgb(102,102,102)"  stroke="rgb(102,102,102)" stroke-width="1" font-size="13" >3</text>
<text x="47.048316" y="413.327619" fill="rgb(102,102,102)"  stroke="rgb(102,102,102)" stroke-width="1" font-size="16" >C</text>
<text font-size="18.000000" fill ="black" font-family="sans-serif"
x="10.000000" y="20.000000" ></text>
<title> - OBDepict</title>
</svg>
