<?xml version="1.0"?>
<svg xmlns="http://www.w3.org/2000/svg"
xmlns:xlink="http://www.w3.org/1999/xlink" xmlns:cml="http://www.xml-cml.org/schema" width="253.3" height="419.934" x="0" y="0" font-family="sans-serif" stroke="rgb(0,0,0)" stroke-width="1"  stroke-linecap="round">
<rect x="0%" y="0%" width="100%" height="100%" stroke-width="0" fill="rgb(255,255,255)"  />
<line x1="109.3" y1="280.0" x2="109.3" y2="240.0" stroke="rgb(0,0,0)"  stroke-width="1.0"/>
<line x1="178.6" y1="359.9" x2="144.0" y2="339.9" stroke="rgb(0,0,0)"  stroke-width="1.0"/>
<line x1="202.0" y1="373.4" x2="178.6" y2="359.9" stroke="rgb(0,0,0)"  stroke-width="1.0"/>
<line x1="199.9" y1="377.1" x2="176.5" y2="363.6" stroke="rgb(0,0,0)"  stroke-width="1.0"/>
<line x1="204.1" y1="369.8" x2="180.7" y2="356.3" stroke="rgb(0,0,0)"  stroke-width="1.0"/>
<line x1="109.3" y1="160.0" x2="109.3" y2="133.0" stroke="rgb(0,0,0)"  stroke-width="1.0"/>
<line x1="49.8" y1="110.9" x2="73.2" y2="97.4" stroke="rgb(0,0,0)"  stroke-width="1.0"/>
<line x1="52.8" y1="116.1" x2="76.2" y2="102.6" stroke="rgb(0,0,0)"  stroke-width="1.0"/>
<line x1="84.5" y1="290.8" x2="107.8" y2="277.4" stroke="rgb(0,0,0)"  stroke-width="1.0"/>
<line x1="87.5" y1="296.0" x2="110.8" y2="282.5" stroke="rgb(0,0,0)"  stroke-width="1.0"/>
<line x1="132.8" y1="293.5" x2="109.3" y2="280.0" stroke="rgb(0,0,0)"  stroke-width="1.0"/>
<line x1="144.0" y1="339.9" x2="144.0" y2="312.9" stroke="rgb(0,0,0)"  stroke-width="1.0"/>
<line x1="98.0" y1="113.5" x2="74.7" y2="100.0" stroke="rgb(0,0,0)"  stroke-width="1.0"/>
<line x1="74.7" y1="100.0" x2="74.7" y2="60.0" stroke="rgb(0,0,0)"  stroke-width="1.0"/>
<line x1="74.7" y1="60.0" x2="109.3" y2="40.0" stroke="rgb(0,0,0)"  stroke-width="1.0"/>
<line x1="109.3" y1="40.0" x2="144.0" y2="60.0" stroke="rgb(0,0,0)"  stroke-width="1.0"/>
<line x1="144.0" y1="60.0" x2="144.0" y2="100.0" stroke="rgb(0,0,0)"  stroke-width="1.0"/>
<line x1="144.0" y1="100.0" x2="120.5" y2="113.5" stroke="rgb(0,0,0)"  stroke-width="1.0"/>
<line x1="109.3" y1="160.0" x2="144.0" y2="180.0" stroke="rgb(0,0,0)"  stroke-width="1.0"/>
<line x1="144.0" y1="180.0" x2="144.0" y2="220.0" stroke="rgb(0,0,0)"  stroke-width="1.0"/>
<line x1="136.8" y1="186.0" x2="136.8" y2="214.0" stroke="rgb(0,0,0)"  stroke-width="1.0"/>
<line x1="144.0" y1="220.0" x2="109.3" y2="240.0" stroke="rgb(0,0,0)"  stroke-width="1.0"/>
<line x1="109.3" y1="240.0" x2="74.7" y2="220.0" stroke="rgb(0,0,0)"  stroke-width="1.0"/>
<line x1="107.7" y1="230.7" x2="83.5" y2="216.7" stroke="rgb(0,0,0)"  stroke-width="1.0"/>
<line x1="74.7" y1="220.0" x2="74.7" y2="180.0" stroke="rgb(0,0,0)"  stroke-width="1.0"/>
<line x1="74.7" y1="180.0" x2="109.3" y2="160.0" stroke="rgb(0,0,0)"  stroke-width="1.0"/>
<line x1="83.5" y1="183.2" x2="107.7" y2="169.2" stroke="rgb(0,0,0)"  stroke-width="1.0"/>
<text x="103.276289" y="127.984519" fill="rgb(12,12,255)"  stroke="rgb(12,12,255)" stroke-width="1" font-size="16" >N</text>
<text x="207.299791" y="387.934206" fill="rgb(102,102,102)"  stroke="rgb(102,102,102)" stroke-width="1" font-size="16" >CH</text>
<text x="34.000000" y="127.984519" fill="rgb(255,12,12)"  stroke="rgb(255,12,12)" stroke-width="1" font-size="16" >O</text>
<text x="68.737519" y="307.949687" fill="rgb(255,12,12)"  stroke="rgb(255,12,12)" stroke-width="1" font-size="16" >O</text>
<text x="138.018655" y="307.949687" fill="rgb(12,12,255)"  stroke="rgb(12,12,255)" stroke-width="1" font-size="16" >NH</text>
<text font-size="18.000000" fill ="black" font-family="sans-serif"
x="10.000000" y="20.000000" ></text>
<title> - OBDepict</title>
</svg>
