<?xml version="1.0"?>
<svg xmlns="http://www.w3.org/2000/svg"
xmlns:xlink="http://www.w3.org/1999/xlink" xmlns:cml="http://www.xml-cml.org/schema" width="450.773" height="294.316" x="0" y="0" font-family="sans-serif" stroke="rgb(0,0,0)" stroke-width="1"  stroke-linecap="round">
<rect x="0%" y="0%" width="100%" height="100%" stroke-width="0" fill="rgb(255,255,255)"  />
<line x1="200.6" y1="174.7" x2="162.5" y2="187.0" stroke="rgb(0,0,0)"  stroke-width="1.0"/>
<line x1="198.8" y1="169.0" x2="160.7" y2="181.3" stroke="rgb(0,0,0)"  stroke-width="1.0"/>
<line x1="207.9" y1="132.7" x2="199.7" y2="171.9" stroke="rgb(0,0,0)"  stroke-width="1.0"/>
<line x1="50.7" y1="132.7" x2="59.2" y2="171.9" stroke="rgb(0,0,0)"  stroke-width="1.0"/>
<line x1="43.5" y1="106.6" x2="50.7" y2="132.7" stroke="rgb(0,0,0)"  stroke-width="1.0"/>
<line x1="47.5" y1="105.4" x2="54.7" y2="131.6" stroke="rgb(0,0,0)"  stroke-width="1.0"/>
<line x1="39.4" y1="107.7" x2="46.6" y2="133.9" stroke="rgb(0,0,0)"  stroke-width="1.0"/>
<line x1="91.1" y1="242.1" x2="106.9" y2="220.5" stroke="rgb(0,0,0)"  stroke-width="1.0"/>
<line x1="95.9" y1="245.6" x2="111.8" y2="224.0" stroke="rgb(0,0,0)"  stroke-width="1.0"/>
<line x1="343.4" y1="161.6" x2="313.4" y2="135.0" stroke="rgb(0,0,0)"  stroke-width="1.0"/>
<line x1="132.0" y1="133.6" x2="132.3" y2="160.5" stroke="rgb(0,0,0)"  stroke-width="1.0"/>
<line x1="126.0" y1="133.7" x2="126.3" y2="160.6" stroke="rgb(0,0,0)"  stroke-width="1.0"/>
<line x1="265.6" y1="138.5" x2="245.6" y2="120.4" stroke="rgb(0,0,0)"  stroke-width="1.0"/>
<line x1="59.2" y1="171.9" x2="84.5" y2="180.1" stroke="rgb(0,0,0)"  stroke-width="1.0"/>
<line x1="313.4" y1="135.0" x2="287.7" y2="143.3" stroke="rgb(0,0,0)"  stroke-width="1.0"/>
<line x1="386.9" y1="122.5" x2="381.1" y2="149.1" stroke="rgb(0,0,0)"  stroke-width="1.0"/>
<line x1="166.7" y1="48.8" x2="186.4" y2="66.8" stroke="rgb(0,0,0)"  stroke-width="1.0"/>
<line x1="107.4" y1="176.5" x2="129.3" y2="160.6" stroke="rgb(0,0,0)"  stroke-width="1.0"/>
<line x1="129.3" y1="160.6" x2="161.6" y2="184.2" stroke="rgb(0,0,0)"  stroke-width="1.0"/>
<line x1="161.6" y1="184.2" x2="153.3" y2="209.9" stroke="rgb(0,0,0)"  stroke-width="1.0"/>
<line x1="136.3" y1="222.3" x2="109.4" y2="222.3" stroke="rgb(0,0,0)"  stroke-width="1.0"/>
<line x1="109.4" y1="222.3" x2="100.9" y2="196.5" stroke="rgb(0,0,0)"  stroke-width="1.0"/>
<line x1="207.9" y1="132.7" x2="245.6" y2="120.4" stroke="rgb(0,0,0)"  stroke-width="1.0"/>
<line x1="245.6" y1="120.4" x2="254.1" y2="81.1" stroke="rgb(0,0,0)"  stroke-width="1.0"/>
<line x1="239.9" y1="113.1" x2="245.8" y2="85.5" stroke="rgb(0,0,0)"  stroke-width="1.0"/>
<line x1="254.1" y1="81.1" x2="224.5" y2="54.5" stroke="rgb(0,0,0)"  stroke-width="1.0"/>
<line x1="224.5" y1="54.5" x2="186.4" y2="66.8" stroke="rgb(0,0,0)"  stroke-width="1.0"/>
<line x1="221.0" y1="63.2" x2="194.3" y2="71.8" stroke="rgb(0,0,0)"  stroke-width="1.0"/>
<line x1="186.4" y1="66.8" x2="177.9" y2="106.1" stroke="rgb(0,0,0)"  stroke-width="1.0"/>
<line x1="177.9" y1="106.1" x2="207.9" y2="132.7" stroke="rgb(0,0,0)"  stroke-width="1.0"/>
<line x1="187.2" y1="104.7" x2="208.2" y2="123.4" stroke="rgb(0,0,0)"  stroke-width="1.0"/>
<line x1="343.4" y1="161.6" x2="381.1" y2="149.1" stroke="rgb(0,0,0)"  stroke-width="1.0"/>
<line x1="381.1" y1="149.1" x2="410.8" y2="176.1" stroke="rgb(0,0,0)"  stroke-width="1.0"/>
<line x1="380.7" y1="158.4" x2="401.5" y2="177.4" stroke="rgb(0,0,0)"  stroke-width="1.0"/>
<line x1="410.8" y1="176.1" x2="402.3" y2="215.4" stroke="rgb(0,0,0)"  stroke-width="1.0"/>
<line x1="402.3" y1="215.4" x2="364.6" y2="227.7" stroke="rgb(0,0,0)"  stroke-width="1.0"/>
<line x1="394.4" y1="210.4" x2="368.1" y2="219.0" stroke="rgb(0,0,0)"  stroke-width="1.0"/>
<line x1="364.6" y1="227.7" x2="334.6" y2="200.5" stroke="rgb(0,0,0)"  stroke-width="1.0"/>
<line x1="334.6" y1="200.5" x2="343.4" y2="161.6" stroke="rgb(0,0,0)"  stroke-width="1.0"/>
<line x1="342.9" y1="196.2" x2="349.1" y2="169.0" stroke="rgb(0,0,0)"  stroke-width="1.0"/>
<text x="90.853811" y="192.153581" fill="rgb(12,12,255)"  stroke="rgb(12,12,255)" stroke-width="1" font-size="16" >N</text>
<text x="143.276384" y="230.258351" fill="rgb(178,178,0)"  stroke="rgb(178,178,0)" stroke-width="1" font-size="16" >S</text>
<text x="22.000000" y="102.033932" fill="rgb(102,102,102)"  stroke="rgb(102,102,102)" stroke-width="1" font-size="16" >HC</text>
<text x="79.763581" y="262.315669" fill="rgb(255,12,12)"  stroke="rgb(255,12,12)" stroke-width="1" font-size="16" >O</text>
<text x="122.911129" y="128.645632" fill="rgb(255,12,12)"  stroke="rgb(255,12,12)" stroke-width="1" font-size="16" >O</text>
<text x="269.287610" y="155.257331" fill="rgb(255,12,12)"  stroke="rgb(255,12,12)" stroke-width="1" font-size="16" >O</text>
<text x="383.601919" y="117.759248" fill="rgb(30,239,30)"  stroke="rgb(30,239,30)" stroke-width="1" font-size="16" >Cl</text>
<text x="139.139042" y="48.000000" fill="rgb(165,40,40)"  stroke="rgb(165,40,40)" stroke-width="1" font-size="16" >Br</text>
<text font-size="18.000000" fill ="black" font-family="sans-serif"
x="10.000000" y="20.000000" ></text>
<title> - OBDepict</title>
</svg>
