<?xml version="1.0"?>
<svg xmlns="http://www.w3.org/2000/svg"
xmlns:xlink="http://www.w3.org/1999/xlink" xmlns:cml="http://www.xml-cml.org/schema" width="514.928" height="378.898" x="0" y="0" font-family="sans-serif" stroke="rgb(0,0,0)" stroke-width="1"  stroke-linecap="round">
<rect x="0%" y="0%" width="100%" height="100%" stroke-width="0" fill="rgb(255,255,255)"  />
<line x1="249.9" y1="210.6" x2="213.2" y2="226.0" stroke="rgb(0,0,0)"  stroke-width="1.0"/>
<line x1="247.6" y1="205.1" x2="210.9" y2="220.4" stroke="rgb(0,0,0)"  stroke-width="1.0"/>
<line x1="117.7" y1="219.3" x2="147.1" y2="224.8" stroke="rgb(0,0,0)"  stroke-width="1.0"/>
<line x1="116.6" y1="225.2" x2="146.0" y2="230.7" stroke="rgb(0,0,0)"  stroke-width="1.0"/>
<line x1="280.6" y1="232.5" x2="248.7" y2="207.9" stroke="rgb(0,0,0)"  stroke-width="1.0"/>
<line x1="443.4" y1="314.9" x2="412.2" y2="290.6" stroke="rgb(0,0,0)"  stroke-width="1.0"/>
<line x1="464.6" y1="331.0" x2="443.4" y2="314.9" stroke="rgb(0,0,0)"  stroke-width="1.0"/>
<line x1="462.0" y1="334.4" x2="440.9" y2="318.2" stroke="rgb(0,0,0)"  stroke-width="1.0"/>
<line x1="467.1" y1="327.7" x2="446.0" y2="311.5" stroke="rgb(0,0,0)"  stroke-width="1.0"/>
<line x1="217.0" y1="284.2" x2="202.4" y2="263.1" stroke="rgb(0,0,0)"  stroke-width="1.0"/>
<line x1="222.0" y1="280.8" x2="207.3" y2="259.7" stroke="rgb(0,0,0)"  stroke-width="1.0"/>
<line x1="91.7" y1="182.4" x2="100.2" y2="207.6" stroke="rgb(0,0,0)"  stroke-width="1.0"/>
<line x1="373.9" y1="231.3" x2="349.2" y2="241.5" stroke="rgb(0,0,0)"  stroke-width="1.0"/>
<line x1="303.0" y1="323.0" x2="306.9" y2="296.6" stroke="rgb(0,0,0)"  stroke-width="1.0"/>
<line x1="364.8" y1="297.8" x2="343.7" y2="281.6" stroke="rgb(0,0,0)"  stroke-width="1.0"/>
<line x1="412.2" y1="290.6" x2="387.1" y2="300.8" stroke="rgb(0,0,0)"  stroke-width="1.0"/>
<line x1="57.0" y1="82.3" x2="65.8" y2="107.3" stroke="rgb(0,0,0)"  stroke-width="1.0"/>
<line x1="70.0" y1="49.9" x2="61.2" y2="60.2" stroke="rgb(0,0,0)"  stroke-width="1.0"/>
<line x1="146.5" y1="227.7" x2="168.8" y2="208.5" stroke="rgb(0,0,0)"  stroke-width="1.0"/>
<line x1="189.4" y1="207.5" x2="212.0" y2="223.2" stroke="rgb(0,0,0)"  stroke-width="1.0"/>
<line x1="212.0" y1="223.2" x2="204.9" y2="261.4" stroke="rgb(0,0,0)"  stroke-width="1.0"/>
<line x1="204.9" y1="261.4" x2="177.3" y2="263.8" stroke="rgb(0,0,0)"  stroke-width="1.0"/>
<line x1="158.7" y1="253.2" x2="146.5" y2="227.7" stroke="rgb(0,0,0)"  stroke-width="1.0"/>
<line x1="306.9" y1="296.6" x2="343.7" y2="281.6" stroke="rgb(0,0,0)"  stroke-width="1.0"/>
<line x1="309.7" y1="287.6" x2="335.5" y2="277.1" stroke="rgb(0,0,0)"  stroke-width="1.0"/>
<line x1="343.7" y1="281.6" x2="349.2" y2="241.5" stroke="rgb(0,0,0)"  stroke-width="1.0"/>
<line x1="349.2" y1="241.5" x2="317.7" y2="217.2" stroke="rgb(0,0,0)"  stroke-width="1.0"/>
<line x1="340.1" y1="243.6" x2="318.1" y2="226.6" stroke="rgb(0,0,0)"  stroke-width="1.0"/>
<line x1="317.7" y1="217.2" x2="280.6" y2="232.5" stroke="rgb(0,0,0)"  stroke-width="1.0"/>
<line x1="280.6" y1="232.5" x2="275.2" y2="272.2" stroke="rgb(0,0,0)"  stroke-width="1.0"/>
<line x1="286.9" y1="239.4" x2="283.2" y2="267.2" stroke="rgb(0,0,0)"  stroke-width="1.0"/>
<line x1="275.2" y1="272.2" x2="306.9" y2="296.6" stroke="rgb(0,0,0)"  stroke-width="1.0"/>
<line x1="91.7" y1="182.4" x2="117.3" y2="152.5" stroke="rgb(0,0,0)"  stroke-width="1.0"/>
<line x1="90.1" y1="173.1" x2="108.0" y2="152.4" stroke="rgb(0,0,0)"  stroke-width="1.0"/>
<line x1="117.3" y1="152.5" x2="104.3" y2="114.5" stroke="rgb(0,0,0)"  stroke-width="1.0"/>
<line x1="104.3" y1="114.5" x2="65.8" y2="107.3" stroke="rgb(0,0,0)"  stroke-width="1.0"/>
<line x1="97.1" y1="120.5" x2="70.4" y2="115.5" stroke="rgb(0,0,0)"  stroke-width="1.0"/>
<line x1="65.8" y1="107.3" x2="40.0" y2="138.0" stroke="rgb(0,0,0)"  stroke-width="1.0"/>
<line x1="40.0" y1="138.0" x2="53.2" y2="175.0" stroke="rgb(0,0,0)"  stroke-width="1.0"/>
<line x1="48.8" y1="141.3" x2="57.9" y2="167.0" stroke="rgb(0,0,0)"  stroke-width="1.0"/>
<line x1="53.2" y1="175.0" x2="91.7" y2="182.4" stroke="rgb(0,0,0)"  stroke-width="1.0"/>
<text x="158.355364" y="272.880249" fill="rgb(12,12,255)"  stroke="rgb(12,12,255)" stroke-width="1" font-size="16" >N</text>
<text x="158.355364" y="288.880249" fill="rgb(12,12,255)"  stroke="rgb(12,12,255)" stroke-width="1" font-size="16" >H</text>
<text x="172.696085" y="208.033573" fill="rgb(178,178,0)"  stroke="rgb(178,178,0)" stroke-width="1" font-size="16" >S</text>
<text x="98.345185" y="227.871409" fill="rgb(12,12,255)"  stroke="rgb(12,12,255)" stroke-width="1" font-size="16" >N</text>
<text x="468.927930" y="346.898428" fill="rgb(102,102,102)"  stroke="rgb(102,102,102)" stroke-width="1" font-size="16" >CH</text>
<text x="220.872999" y="301.224149" fill="rgb(255,12,12)"  stroke="rgb(255,12,12)" stroke-width="1" font-size="16" >O</text>
<text x="379.908411" y="234.371507" fill="rgb(147,0,147)"  stroke="rgb(147,0,147)" stroke-width="1" font-size="16" >I</text>
<text x="295.055127" y="343.894303" fill="rgb(147,0,147)"  stroke="rgb(147,0,147)" stroke-width="1" font-size="16" >I</text>
<text x="369.073307" y="313.722853" fill="rgb(255,12,12)"  stroke="rgb(255,12,12)" stroke-width="1" font-size="16" >O</text>
<text x="46.667476" y="78.002678" fill="rgb(255,12,12)"  stroke="rgb(255,12,12)" stroke-width="1" font-size="16" >O</text>
<text x="74.508741" y="48.000000" fill="rgb(102,102,102)"  stroke="rgb(102,102,102)" stroke-width="1" font-size="16" >CH</text>
<text x="98.508741" y="51.680000" fill="rgb(102,102,102)"  stroke="rgb(102,102,102)" stroke-width="1" font-size="13" >3</text>
<text font-size="18.000000" fill ="black" font-family="sans-serif"
x="10.000000" y="20.000000" ></text>
<title> - OBDepict</title>
</svg>
