<?xml version="1.0"?>
<svg xmlns="http://www.w3.org/2000/svg"
xmlns:xlink="http://www.w3.org/1999/xlink" xmlns:cml="http://www.xml-cml.org/schema" width="607.263" height="257.578" x="0" y="0" font-family="sans-serif" stroke="rgb(0,0,0)" stroke-width="1"  stroke-linecap="round">
<rect x="0%" y="0%" width="100%" height="100%" stroke-width="0" fill="rgb(255,255,255)"  />
<line x1="232.9" y1="142.0" x2="205.8" y2="142.0" stroke="rgb(0,0,0)"  stroke-width="1.0"/>
<line x1="232.9" y1="136.0" x2="205.8" y2="136.0" stroke="rgb(0,0,0)"  stroke-width="1.0"/>
<line x1="390.3" y1="135.0" x2="371.2" y2="116.0" stroke="rgb(0,0,0)"  stroke-width="1.0"/>
<line x1="365.2" y1="94.2" x2="372.1" y2="67.9" stroke="rgb(0,0,0)"  stroke-width="1.0"/>
<line x1="256.3" y1="100.1" x2="249.3" y2="126.4" stroke="rgb(0,0,0)"  stroke-width="1.0"/>
<line x1="233.6" y1="217.6" x2="194.7" y2="209.1" stroke="rgb(0,0,0)"  stroke-width="1.0"/>
<line x1="372.1" y1="67.9" x2="343.5" y2="40.0" stroke="rgb(0,0,0)"  stroke-width="1.0"/>
<line x1="251.6" y1="197.5" x2="233.6" y2="217.6" stroke="rgb(0,0,0)"  stroke-width="1.0"/>
<line x1="254.7" y1="200.3" x2="236.7" y2="220.4" stroke="rgb(0,0,0)"  stroke-width="1.0"/>
<line x1="248.5" y1="194.7" x2="230.4" y2="214.8" stroke="rgb(0,0,0)"  stroke-width="1.0"/>
<line x1="487.7" y1="170.2" x2="448.2" y2="164.5" stroke="rgb(0,0,0)"  stroke-width="1.0"/>
<line x1="194.7" y1="209.1" x2="186.3" y2="183.7" stroke="rgb(0,0,0)"  stroke-width="1.0"/>
<line x1="239.0" y1="78.8" x2="258.4" y2="98.0" stroke="rgb(0,0,0)"  stroke-width="1.0"/>
<line x1="234.8" y1="83.1" x2="254.1" y2="102.3" stroke="rgb(0,0,0)"  stroke-width="1.0"/>
<line x1="399.2" y1="63.6" x2="372.9" y2="70.8" stroke="rgb(0,0,0)"  stroke-width="1.0"/>
<line x1="397.6" y1="57.8" x2="371.3" y2="65.1" stroke="rgb(0,0,0)"  stroke-width="1.0"/>
<line x1="301.5" y1="63.1" x2="294.5" y2="89.4" stroke="rgb(0,0,0)"  stroke-width="1.0"/>
<line x1="294.5" y1="89.4" x2="256.3" y2="100.1" stroke="rgb(0,0,0)"  stroke-width="1.0"/>
<line x1="343.5" y1="40.0" x2="317.4" y2="47.1" stroke="rgb(0,0,0)"  stroke-width="1.0"/>
<line x1="51.3" y1="105.5" x2="75.0" y2="119.0" stroke="rgb(0,0,0)"  stroke-width="1.0"/>
<line x1="205.8" y1="139.0" x2="189.8" y2="116.9" stroke="rgb(0,0,0)"  stroke-width="1.0"/>
<line x1="169.8" y1="110.5" x2="143.9" y2="119.0" stroke="rgb(0,0,0)"  stroke-width="1.0"/>
<line x1="143.9" y1="119.0" x2="143.9" y2="159.1" stroke="rgb(0,0,0)"  stroke-width="1.0"/>
<line x1="151.1" y1="125.0" x2="151.1" y2="153.1" stroke="rgb(0,0,0)"  stroke-width="1.0"/>
<line x1="143.9" y1="159.1" x2="169.8" y2="167.4" stroke="rgb(0,0,0)"  stroke-width="1.0"/>
<line x1="189.8" y1="160.9" x2="205.8" y2="139.0" stroke="rgb(0,0,0)"  stroke-width="1.0"/>
<line x1="390.3" y1="135.0" x2="386.2" y2="161.6" stroke="rgb(0,0,0)"  stroke-width="1.0"/>
<line x1="395.8" y1="180.4" x2="419.7" y2="192.7" stroke="rgb(0,0,0)"  stroke-width="1.0"/>
<line x1="419.7" y1="192.7" x2="448.2" y2="164.5" stroke="rgb(0,0,0)"  stroke-width="1.0"/>
<line x1="418.9" y1="183.3" x2="438.9" y2="163.6" stroke="rgb(0,0,0)"  stroke-width="1.0"/>
<line x1="448.2" y1="164.5" x2="436.8" y2="143.4" stroke="rgb(0,0,0)"  stroke-width="1.0"/>
<line x1="417.3" y1="132.9" x2="390.3" y2="135.0" stroke="rgb(0,0,0)"  stroke-width="1.0"/>
<line x1="415.9" y1="140.3" x2="396.8" y2="141.7" stroke="rgb(0,0,0)"  stroke-width="1.0"/>
<line x1="487.7" y1="170.2" x2="513.2" y2="139.2" stroke="rgb(0,0,0)"  stroke-width="1.0"/>
<line x1="513.2" y1="139.2" x2="553.1" y2="145.3" stroke="rgb(0,0,0)"  stroke-width="1.0"/>
<line x1="518.0" y1="147.2" x2="546.1" y2="151.5" stroke="rgb(0,0,0)"  stroke-width="1.0"/>
<line x1="553.1" y1="145.3" x2="567.3" y2="183.0" stroke="rgb(0,0,0)"  stroke-width="1.0"/>
<line x1="567.3" y1="183.0" x2="541.7" y2="214.3" stroke="rgb(0,0,0)"  stroke-width="1.0"/>
<line x1="557.9" y1="183.1" x2="539.9" y2="205.1" stroke="rgb(0,0,0)"  stroke-width="1.0"/>
<line x1="541.7" y1="214.3" x2="502.3" y2="207.9" stroke="rgb(0,0,0)"  stroke-width="1.0"/>
<line x1="502.3" y1="207.9" x2="487.7" y2="170.2" stroke="rgb(0,0,0)"  stroke-width="1.0"/>
<line x1="506.8" y1="199.7" x2="496.6" y2="173.2" stroke="rgb(0,0,0)"  stroke-width="1.0"/>
<line x1="109.2" y1="178.7" x2="75.0" y2="159.1" stroke="rgb(0,0,0)"  stroke-width="1.0"/>
<line x1="107.6" y1="169.5" x2="83.8" y2="155.8" stroke="rgb(0,0,0)"  stroke-width="1.0"/>
<line x1="75.0" y1="159.1" x2="75.0" y2="119.0" stroke="rgb(0,0,0)"  stroke-width="1.0"/>
<line x1="75.0" y1="119.0" x2="109.2" y2="98.5" stroke="rgb(0,0,0)"  stroke-width="1.0"/>
<line x1="83.9" y1="122.1" x2="107.8" y2="107.8" stroke="rgb(0,0,0)"  stroke-width="1.0"/>
<line x1="109.2" y1="98.5" x2="143.9" y2="119.0" stroke="rgb(0,0,0)"  stroke-width="1.0"/>
<line x1="143.9" y1="159.1" x2="109.2" y2="178.7" stroke="rgb(0,0,0)"  stroke-width="1.0"/>
<text x="176.142243" y="179.412326" fill="rgb(12,12,255)"  stroke="rgb(12,12,255)" stroke-width="1" font-size="16" >N</text>
<text x="239.924018" y="147.013613" fill="rgb(12,12,255)"  stroke="rgb(12,12,255)" stroke-width="1" font-size="16" >N</text>
<text x="176.142243" y="114.415659" fill="rgb(178,178,0)"  stroke="rgb(178,178,0)" stroke-width="1" font-size="16" >S</text>
<text x="424.587444" y="139.928369" fill="rgb(12,12,255)"  stroke="rgb(12,12,255)" stroke-width="1" font-size="16" >N</text>
<text x="343.946105" y="114.819003" fill="rgb(12,12,255)"  stroke="rgb(12,12,255)" stroke-width="1" font-size="16" >HN</text>
<text x="378.217486" y="182.449553" fill="rgb(178,178,0)"  stroke="rgb(178,178,0)" stroke-width="1" font-size="16" >S</text>
<text x="254.298608" y="195.813354" fill="rgb(102,102,102)"  stroke="rgb(102,102,102)" stroke-width="1" font-size="16" >CH</text>
<text x="221.700654" y="79.791267" fill="rgb(255,12,12)"  stroke="rgb(255,12,12)" stroke-width="1" font-size="16" >O</text>
<text x="404.945087" y="65.212575" fill="rgb(255,12,12)"  stroke="rgb(255,12,12)" stroke-width="1" font-size="16" >O</text>
<text x="298.846230" y="58.530675" fill="rgb(178,178,0)"  stroke="rgb(178,178,0)" stroke-width="1" font-size="16" >S</text>
<text x="34.000000" y="107.126313" fill="rgb(191,191,191)"  stroke="rgb(191,191,191)" stroke-width="1" font-size="16" >H</text>
<text font-size="18.000000" fill ="black" font-family="sans-serif"
x="10.000000" y="20.000000" ></text>
<title> - OBDepict</title>
</svg>
