<?xml version="1.0"?>
<svg xmlns="http://www.w3.org/2000/svg"
xmlns:xlink="http://www.w3.org/1999/xlink" xmlns:cml="http://www.xml-cml.org/schema" width="287.885" height="520.012" x="0" y="0" font-family="sans-serif" stroke="rgb(0,0,0)" stroke-width="1"  stroke-linecap="round">
<rect x="0%" y="0%" width="100%" height="100%" stroke-width="0" fill="rgb(255,255,255)"  />
<line x1="213.3" y1="79.8" x2="213.3" y2="120.0" stroke="rgb(0,0,0)"  stroke-width="1.0"/>
<line x1="213.3" y1="53.0" x2="213.3" y2="79.8" stroke="rgb(0,0,0)"  stroke-width="1.0"/>
<line x1="217.5" y1="53.0" x2="217.5" y2="79.8" stroke="rgb(0,0,0)"  stroke-width="1.0"/>
<line x1="209.1" y1="53.0" x2="209.1" y2="79.8" stroke="rgb(0,0,0)"  stroke-width="1.0"/>
<line x1="98.0" y1="306.5" x2="74.8" y2="320.0" stroke="rgb(0,0,0)"  stroke-width="1.0"/>
<line x1="144.0" y1="240.0" x2="109.3" y2="260.0" stroke="rgb(0,0,0)"  stroke-width="1.0"/>
<line x1="144.0" y1="213.0" x2="144.0" y2="240.0" stroke="rgb(0,0,0)"  stroke-width="1.0"/>
<line x1="74.8" y1="360.0" x2="74.8" y2="320.0" stroke="rgb(0,0,0)"  stroke-width="1.0"/>
<line x1="52.8" y1="303.9" x2="76.2" y2="317.4" stroke="rgb(0,0,0)"  stroke-width="1.0"/>
<line x1="49.8" y1="309.1" x2="73.3" y2="322.6" stroke="rgb(0,0,0)"  stroke-width="1.0"/>
<line x1="178.6" y1="180.0" x2="155.3" y2="193.5" stroke="rgb(0,0,0)"  stroke-width="1.0"/>
<line x1="165.8" y1="256.1" x2="142.5" y2="242.6" stroke="rgb(0,0,0)"  stroke-width="1.0"/>
<line x1="168.8" y1="250.9" x2="145.5" y2="237.4" stroke="rgb(0,0,0)"  stroke-width="1.0"/>
<line x1="109.3" y1="260.0" x2="109.3" y2="287.0" stroke="rgb(0,0,0)"  stroke-width="1.0"/>
<line x1="74.8" y1="467.0" x2="74.8" y2="440.0" stroke="rgb(0,0,0)"  stroke-width="1.0"/>
<line x1="74.8" y1="360.0" x2="109.3" y2="380.0" stroke="rgb(0,0,0)"  stroke-width="1.0"/>
<line x1="109.3" y1="380.0" x2="109.3" y2="420.0" stroke="rgb(0,0,0)"  stroke-width="1.0"/>
<line x1="102.1" y1="386.0" x2="102.1" y2="414.0" stroke="rgb(0,0,0)"  stroke-width="1.0"/>
<line x1="109.3" y1="420.0" x2="74.8" y2="440.0" stroke="rgb(0,0,0)"  stroke-width="1.0"/>
<line x1="74.8" y1="440.0" x2="40.0" y2="420.0" stroke="rgb(0,0,0)"  stroke-width="1.0"/>
<line x1="73.1" y1="430.8" x2="48.8" y2="416.8" stroke="rgb(0,0,0)"  stroke-width="1.0"/>
<line x1="40.0" y1="420.0" x2="40.0" y2="380.0" stroke="rgb(0,0,0)"  stroke-width="1.0"/>
<line x1="40.0" y1="380.0" x2="74.8" y2="360.0" stroke="rgb(0,0,0)"  stroke-width="1.0"/>
<line x1="48.8" y1="383.3" x2="73.1" y2="369.2" stroke="rgb(0,0,0)"  stroke-width="1.0"/>
<line x1="178.6" y1="180.0" x2="178.6" y2="140.0" stroke="rgb(0,0,0)"  stroke-width="1.0"/>
<line x1="185.8" y1="174.0" x2="185.8" y2="146.0" stroke="rgb(0,0,0)"  stroke-width="1.0"/>
<line x1="178.6" y1="140.0" x2="213.3" y2="120.0" stroke="rgb(0,0,0)"  stroke-width="1.0"/>
<line x1="213.3" y1="120.0" x2="247.9" y2="140.0" stroke="rgb(0,0,0)"  stroke-width="1.0"/>
<line x1="214.9" y1="129.2" x2="239.1" y2="143.2" stroke="rgb(0,0,0)"  stroke-width="1.0"/>
<line x1="247.9" y1="140.0" x2="247.9" y2="180.0" stroke="rgb(0,0,0)"  stroke-width="1.0"/>
<line x1="247.9" y1="180.0" x2="213.3" y2="200.0" stroke="rgb(0,0,0)"  stroke-width="1.0"/>
<line x1="239.1" y1="176.8" x2="214.9" y2="190.8" stroke="rgb(0,0,0)"  stroke-width="1.0"/>
<line x1="213.3" y1="200.0" x2="178.6" y2="180.0" stroke="rgb(0,0,0)"  stroke-width="1.0"/>
<text x="207.338180" y="48.000000" fill="rgb(102,102,102)"  stroke="rgb(102,102,102)" stroke-width="1" font-size="16" >CH</text>
<text x="103.296483" y="308.007270" fill="rgb(12,12,255)"  stroke="rgb(12,12,255)" stroke-width="1" font-size="16" >NH</text>
<text x="126.046546" y="208.004474" fill="rgb(12,12,255)"  stroke="rgb(12,12,255)" stroke-width="1" font-size="16" >HN</text>
<text x="34.000000" y="308.007270" fill="rgb(255,12,12)"  stroke="rgb(255,12,12)" stroke-width="1" font-size="16" >O</text>
<text x="172.592966" y="268.006152" fill="rgb(255,12,12)"  stroke="rgb(255,12,12)" stroke-width="1" font-size="16" >O</text>
<text x="70.750063" y="488.012303" fill="rgb(102,102,102)"  stroke="rgb(102,102,102)" stroke-width="1" font-size="16" >CH</text>
<text x="94.750063" y="491.692303" fill="rgb(102,102,102)"  stroke="rgb(102,102,102)" stroke-width="1" font-size="13" >3</text>
<text font-size="18.000000" fill ="black" font-family="sans-serif"
x="10.000000" y="20.000000" ></text>
<title> - OBDepict</title>
</svg>
