<?xml version="1.0"?>
<svg xmlns="http://www.w3.org/2000/svg"
xmlns:xlink="http://www.w3.org/1999/xlink" xmlns:cml="http://www.xml-cml.org/schema" width="447.133" height="426.143" x="0" y="0" font-family="sans-serif" stroke="rgb(0,0,0)" stroke-width="1"  stroke-linecap="round">
<rect x="0%" y="0%" width="100%" height="100%" stroke-width="0" fill="rgb(255,255,255)"  />
<line x1="326.5" y1="106.7" x2="303.0" y2="120.5" stroke="rgb(0,0,0)"  stroke-width="1.0"/>
<line x1="189.1" y1="228.7" x2="164.8" y2="242.8" stroke="rgb(0,0,0)"  stroke-width="1.0"/>
<line x1="186.1" y1="223.6" x2="161.8" y2="237.6" stroke="rgb(0,0,0)"  stroke-width="1.0"/>
<line x1="198.4" y1="180.1" x2="198.7" y2="206.6" stroke="rgb(0,0,0)"  stroke-width="1.0"/>
<line x1="361.5" y1="86.9" x2="349.1" y2="93.8" stroke="rgb(0,0,0)"  stroke-width="1.0"/>
<line x1="179.1" y1="346.8" x2="188.1" y2="307.8" stroke="rgb(0,0,0)"  stroke-width="1.0"/>
<line x1="348.6" y1="125.3" x2="341.6" y2="112.9" stroke="rgb(0,0,0)"  stroke-width="1.0"/>
<line x1="353.8" y1="122.3" x2="346.8" y2="109.9" stroke="rgb(0,0,0)"  stroke-width="1.0"/>
<line x1="326.8" y1="75.2" x2="333.8" y2="87.4" stroke="rgb(0,0,0)"  stroke-width="1.0"/>
<line x1="321.6" y1="78.2" x2="328.6" y2="90.4" stroke="rgb(0,0,0)"  stroke-width="1.0"/>
<line x1="172.9" y1="373.5" x2="179.1" y2="346.8" stroke="rgb(0,0,0)"  stroke-width="1.0"/>
<line x1="168.8" y1="372.5" x2="175.0" y2="345.8" stroke="rgb(0,0,0)"  stroke-width="1.0"/>
<line x1="177.0" y1="374.4" x2="183.2" y2="347.7" stroke="rgb(0,0,0)"  stroke-width="1.0"/>
<line x1="233.0" y1="160.1" x2="198.4" y2="180.1" stroke="rgb(0,0,0)"  stroke-width="1.0"/>
<line x1="176.7" y1="164.0" x2="199.9" y2="177.5" stroke="rgb(0,0,0)"  stroke-width="1.0"/>
<line x1="173.7" y1="169.2" x2="196.9" y2="182.7" stroke="rgb(0,0,0)"  stroke-width="1.0"/>
<line x1="188.1" y1="307.8" x2="168.3" y2="289.1" stroke="rgb(0,0,0)"  stroke-width="1.0"/>
<line x1="372.7" y1="53.0" x2="372.8" y2="67.6" stroke="rgb(0,0,0)"  stroke-width="1.0"/>
<line x1="395.8" y1="93.6" x2="384.1" y2="87.0" stroke="rgb(0,0,0)"  stroke-width="1.0"/>
<line x1="111.8" y1="345.4" x2="98.9" y2="321.4" stroke="rgb(0,0,0)"  stroke-width="1.0"/>
<line x1="163.3" y1="240.2" x2="140.0" y2="229.2" stroke="rgb(0,0,0)"  stroke-width="1.0"/>
<line x1="119.1" y1="233.0" x2="100.4" y2="252.3" stroke="rgb(0,0,0)"  stroke-width="1.0"/>
<line x1="100.4" y1="252.3" x2="119.7" y2="287.5" stroke="rgb(0,0,0)"  stroke-width="1.0"/>
<line x1="109.6" y1="254.1" x2="123.1" y2="278.7" stroke="rgb(0,0,0)"  stroke-width="1.0"/>
<line x1="119.7" y1="287.5" x2="146.1" y2="282.6" stroke="rgb(0,0,0)"  stroke-width="1.0"/>
<line x1="160.3" y1="267.3" x2="163.3" y2="240.2" stroke="rgb(0,0,0)"  stroke-width="1.0"/>
<line x1="233.0" y1="160.1" x2="267.9" y2="179.7" stroke="rgb(0,0,0)"  stroke-width="1.0"/>
<line x1="241.7" y1="156.7" x2="266.2" y2="170.5" stroke="rgb(0,0,0)"  stroke-width="1.0"/>
<line x1="267.9" y1="179.7" x2="302.4" y2="160.5" stroke="rgb(0,0,0)"  stroke-width="1.0"/>
<line x1="302.4" y1="160.5" x2="303.0" y2="120.5" stroke="rgb(0,0,0)"  stroke-width="1.0"/>
<line x1="295.3" y1="154.4" x2="295.7" y2="126.4" stroke="rgb(0,0,0)"  stroke-width="1.0"/>
<line x1="303.0" y1="120.5" x2="267.9" y2="100.1" stroke="rgb(0,0,0)"  stroke-width="1.0"/>
<line x1="267.9" y1="100.1" x2="233.4" y2="119.9" stroke="rgb(0,0,0)"  stroke-width="1.0"/>
<line x1="266.2" y1="109.4" x2="242.1" y2="123.2" stroke="rgb(0,0,0)"  stroke-width="1.0"/>
<line x1="233.4" y1="119.9" x2="233.0" y2="160.1" stroke="rgb(0,0,0)"  stroke-width="1.0"/>
<line x1="98.9" y1="321.4" x2="60.0" y2="320.8" stroke="rgb(0,0,0)"  stroke-width="1.0"/>
<line x1="93.0" y1="314.1" x2="66.1" y2="313.6" stroke="rgb(0,0,0)"  stroke-width="1.0"/>
<line x1="60.0" y1="320.8" x2="40.0" y2="285.4" stroke="rgb(0,0,0)"  stroke-width="1.0"/>
<line x1="40.0" y1="285.4" x2="60.8" y2="251.1" stroke="rgb(0,0,0)"  stroke-width="1.0"/>
<line x1="49.3" y1="284.0" x2="63.8" y2="260.0" stroke="rgb(0,0,0)"  stroke-width="1.0"/>
<line x1="60.8" y1="251.1" x2="100.4" y2="252.3" stroke="rgb(0,0,0)"  stroke-width="1.0"/>
<line x1="119.7" y1="287.5" x2="98.9" y2="321.4" stroke="rgb(0,0,0)"  stroke-width="1.0"/>
<text x="331.703863" y="108.147292" fill="rgb(178,178,0)"  stroke="rgb(178,178,0)" stroke-width="1" font-size="16" >S</text>
<text x="192.840089" y="227.631566" fill="rgb(12,12,255)"  stroke="rgb(12,12,255)" stroke-width="1" font-size="16" >N</text>
<text x="152.877755" y="288.181586" fill="rgb(12,12,255)"  stroke="rgb(12,12,255)" stroke-width="1" font-size="16" >N</text>
<text x="122.202442" y="231.668557" fill="rgb(178,178,0)"  stroke="rgb(178,178,0)" stroke-width="1" font-size="16" >S</text>
<text x="366.823748" y="88.568853" fill="rgb(12,12,255)"  stroke="rgb(12,12,255)" stroke-width="1" font-size="16" >N</text>
<text x="351.685030" y="143.063387" fill="rgb(255,12,12)"  stroke="rgb(255,12,12)" stroke-width="1" font-size="16" >O</text>
<text x="311.722696" y="73.430135" fill="rgb(255,12,12)"  stroke="rgb(255,12,12)" stroke-width="1" font-size="16" >O</text>
<text x="151.979481" y="394.142909" fill="rgb(102,102,102)"  stroke="rgb(102,102,102)" stroke-width="1" font-size="16" >HC</text>
<text x="157.923994" y="168.090793" fill="rgb(255,12,12)"  stroke="rgb(255,12,12)" stroke-width="1" font-size="16" >O</text>
<text x="346.619958" y="48.000000" fill="rgb(102,102,102)"  stroke="rgb(102,102,102)" stroke-width="1" font-size="16" >H</text>
<text x="358.619958" y="51.680000" fill="rgb(102,102,102)"  stroke="rgb(102,102,102)" stroke-width="1" font-size="13" >3</text>
<text x="365.119958" y="48.000000" fill="rgb(102,102,102)"  stroke="rgb(102,102,102)" stroke-width="1" font-size="16" >C</text>
<text x="403.133324" y="107.943501" fill="rgb(102,102,102)"  stroke="rgb(102,102,102)" stroke-width="1" font-size="16" >CH</text>
<text x="427.133324" y="111.623501" fill="rgb(102,102,102)"  stroke="rgb(102,102,102)" stroke-width="1" font-size="13" >3</text>
<text x="113.906173" y="364.879573" fill="rgb(102,102,102)"  stroke="rgb(102,102,102)" stroke-width="1" font-size="16" >CH</text>
<text x="137.906173" y="368.559573" fill="rgb(102,102,102)"  stroke="rgb(102,102,102)" stroke-width="1" font-size="13" >3</text>
<text font-size="18.000000" fill ="black" font-family="sans-serif"
x="10.000000" y="20.000000" ></text>
<title> - OBDepict</title>
</svg>
