<?xml version="1.0"?>
<svg xmlns="http://www.w3.org/2000/svg"
xmlns:xlink="http://www.w3.org/1999/xlink" xmlns:cml="http://www.xml-cml.org/schema" width="253.153" height="460.05" x="0" y="0" font-family="sans-serif" stroke="rgb(0,0,0)" stroke-width="1"  stroke-linecap="round">
<rect x="0%" y="0%" width="100%" height="100%" stroke-width="0" fill="rgb(255,255,255)"  />
<line x1="112.3" y1="200.0" x2="112.3" y2="240.0" stroke="rgb(0,0,0)"  stroke-width="1.0"/>
<line x1="106.3" y1="200.0" x2="106.3" y2="240.0" stroke="rgb(0,0,0)"  stroke-width="1.0"/>
<line x1="74.6" y1="60.0" x2="109.3" y2="80.0" stroke="rgb(0,0,0)"  stroke-width="1.0"/>
<line x1="51.3" y1="46.5" x2="74.6" y2="60.0" stroke="rgb(0,0,0)"  stroke-width="1.0"/>
<line x1="53.4" y1="42.9" x2="76.7" y2="56.4" stroke="rgb(0,0,0)"  stroke-width="1.0"/>
<line x1="49.1" y1="50.1" x2="72.4" y2="63.6" stroke="rgb(0,0,0)"  stroke-width="1.0"/>
<line x1="74.6" y1="260.0" x2="109.3" y2="240.0" stroke="rgb(0,0,0)"  stroke-width="1.0"/>
<line x1="74.6" y1="300.0" x2="74.6" y2="260.0" stroke="rgb(0,0,0)"  stroke-width="1.0"/>
<line x1="143.8" y1="180.0" x2="109.3" y2="200.0" stroke="rgb(0,0,0)"  stroke-width="1.0"/>
<line x1="52.8" y1="243.9" x2="76.1" y2="257.4" stroke="rgb(0,0,0)"  stroke-width="1.0"/>
<line x1="49.7" y1="249.1" x2="73.0" y2="262.6" stroke="rgb(0,0,0)"  stroke-width="1.0"/>
<line x1="74.6" y1="407.1" x2="74.6" y2="380.0" stroke="rgb(0,0,0)"  stroke-width="1.0"/>
<line x1="120.5" y1="126.5" x2="143.8" y2="140.0" stroke="rgb(0,0,0)"  stroke-width="1.0"/>
<line x1="109.3" y1="80.0" x2="109.3" y2="107.0" stroke="rgb(0,0,0)"  stroke-width="1.0"/>
<line x1="74.6" y1="300.0" x2="109.3" y2="320.0" stroke="rgb(0,0,0)"  stroke-width="1.0"/>
<line x1="109.3" y1="320.0" x2="109.3" y2="360.0" stroke="rgb(0,0,0)"  stroke-width="1.0"/>
<line x1="102.1" y1="326.0" x2="102.1" y2="354.0" stroke="rgb(0,0,0)"  stroke-width="1.0"/>
<line x1="109.3" y1="360.0" x2="74.6" y2="380.0" stroke="rgb(0,0,0)"  stroke-width="1.0"/>
<line x1="74.6" y1="380.0" x2="40.0" y2="360.0" stroke="rgb(0,0,0)"  stroke-width="1.0"/>
<line x1="73.0" y1="370.8" x2="48.8" y2="356.8" stroke="rgb(0,0,0)"  stroke-width="1.0"/>
<line x1="40.0" y1="360.0" x2="40.0" y2="320.0" stroke="rgb(0,0,0)"  stroke-width="1.0"/>
<line x1="40.0" y1="320.0" x2="74.6" y2="300.0" stroke="rgb(0,0,0)"  stroke-width="1.0"/>
<line x1="48.8" y1="323.3" x2="73.0" y2="309.3" stroke="rgb(0,0,0)"  stroke-width="1.0"/>
<line x1="143.8" y1="180.0" x2="143.8" y2="140.0" stroke="rgb(0,0,0)"  stroke-width="1.0"/>
<line x1="151.0" y1="174.0" x2="151.0" y2="146.0" stroke="rgb(0,0,0)"  stroke-width="1.0"/>
<line x1="143.8" y1="140.0" x2="178.6" y2="120.0" stroke="rgb(0,0,0)"  stroke-width="1.0"/>
<line x1="178.6" y1="120.0" x2="213.2" y2="140.0" stroke="rgb(0,0,0)"  stroke-width="1.0"/>
<line x1="180.2" y1="129.2" x2="204.4" y2="143.2" stroke="rgb(0,0,0)"  stroke-width="1.0"/>
<line x1="213.2" y1="140.0" x2="213.2" y2="180.0" stroke="rgb(0,0,0)"  stroke-width="1.0"/>
<line x1="213.2" y1="180.0" x2="178.6" y2="200.0" stroke="rgb(0,0,0)"  stroke-width="1.0"/>
<line x1="204.4" y1="176.8" x2="180.2" y2="190.8" stroke="rgb(0,0,0)"  stroke-width="1.0"/>
<line x1="178.6" y1="200.0" x2="143.8" y2="180.0" stroke="rgb(0,0,0)"  stroke-width="1.0"/>
<text x="22.000000" y="48.000000" fill="rgb(102,102,102)"  stroke="rgb(102,102,102)" stroke-width="1" font-size="16" >HC</text>
<text x="34.000000" y="248.026562" fill="rgb(255,12,12)"  stroke="rgb(255,12,12)" stroke-width="1" font-size="16" >O</text>
<text x="68.550043" y="428.050468" fill="rgb(127,178,255)"  stroke="rgb(127,178,255)" stroke-width="1" font-size="16" >F</text>
<text x="103.298899" y="128.010625" fill="rgb(255,12,12)"  stroke="rgb(255,12,12)" stroke-width="1" font-size="16" >O</text>
<text font-size="18.000000" fill ="black" font-family="sans-serif"
x="10.000000" y="20.000000" ></text>
<title> - OBDepict</title>
</svg>
