<?xml version="1.0"?>
<svg xmlns="http://www.w3.org/2000/svg"
xmlns:xlink="http://www.w3.org/1999/xlink" xmlns:cml="http://www.xml-cml.org/schema" width="420.189" height="323.065" x="0" y="0" font-family="sans-serif" stroke="rgb(0,0,0)" stroke-width="1"  stroke-linecap="round">
<rect x="0%" y="0%" width="100%" height="100%" stroke-width="0" fill="rgb(255,255,255)"  />
<line x1="299.7" y1="144.0" x2="259.6" y2="144.0" stroke="rgb(0,0,0)"  stroke-width="1.0"/>
<line x1="319.6" y1="109.8" x2="299.8" y2="74.7" stroke="rgb(0,0,0)"  stroke-width="1.0"/>
<line x1="359.4" y1="110.0" x2="373.3" y2="86.4" stroke="rgb(0,0,0)"  stroke-width="1.0"/>
<line x1="299.8" y1="74.7" x2="286.7" y2="51.3" stroke="rgb(0,0,0)"  stroke-width="1.0"/>
<line x1="296.2" y1="76.8" x2="283.1" y2="53.4" stroke="rgb(0,0,0)"  stroke-width="1.0"/>
<line x1="303.5" y1="72.7" x2="290.4" y2="49.3" stroke="rgb(0,0,0)"  stroke-width="1.0"/>
<line x1="359.9" y1="248.0" x2="373.7" y2="271.8" stroke="rgb(0,0,0)"  stroke-width="1.0"/>
<line x1="179.2" y1="143.3" x2="152.3" y2="143.3" stroke="rgb(0,0,0)"  stroke-width="1.0"/>
<line x1="132.8" y1="154.6" x2="119.7" y2="177.4" stroke="rgb(0,0,0)"  stroke-width="1.0"/>
<line x1="119.7" y1="177.4" x2="79.8" y2="177.9" stroke="rgb(0,0,0)"  stroke-width="1.0"/>
<line x1="79.8" y1="177.9" x2="53.0" y2="177.5" stroke="rgb(0,0,0)"  stroke-width="1.0"/>
<line x1="79.7" y1="182.1" x2="52.9" y2="181.7" stroke="rgb(0,0,0)"  stroke-width="1.0"/>
<line x1="79.8" y1="173.7" x2="53.1" y2="173.3" stroke="rgb(0,0,0)"  stroke-width="1.0"/>
<line x1="299.7" y1="144.0" x2="319.6" y2="109.8" stroke="rgb(0,0,0)"  stroke-width="1.0"/>
<line x1="319.6" y1="109.8" x2="359.4" y2="110.0" stroke="rgb(0,0,0)"  stroke-width="1.0"/>
<line x1="325.6" y1="117.0" x2="353.4" y2="117.1" stroke="rgb(0,0,0)"  stroke-width="1.0"/>
<line x1="359.4" y1="110.0" x2="373.0" y2="133.3" stroke="rgb(0,0,0)"  stroke-width="1.0"/>
<line x1="372.9" y1="155.7" x2="359.4" y2="178.6" stroke="rgb(0,0,0)"  stroke-width="1.0"/>
<line x1="359.4" y1="178.6" x2="319.3" y2="178.6" stroke="rgb(0,0,0)"  stroke-width="1.0"/>
<line x1="353.4" y1="171.4" x2="325.3" y2="171.4" stroke="rgb(0,0,0)"  stroke-width="1.0"/>
<line x1="319.3" y1="178.6" x2="299.7" y2="144.0" stroke="rgb(0,0,0)"  stroke-width="1.0"/>
<line x1="319.3" y1="178.6" x2="299.2" y2="213.3" stroke="rgb(0,0,0)"  stroke-width="1.0"/>
<line x1="299.2" y1="213.3" x2="319.3" y2="248.3" stroke="rgb(0,0,0)"  stroke-width="1.0"/>
<line x1="308.4" y1="214.9" x2="322.6" y2="239.6" stroke="rgb(0,0,0)"  stroke-width="1.0"/>
<line x1="319.3" y1="248.3" x2="359.9" y2="248.0" stroke="rgb(0,0,0)"  stroke-width="1.0"/>
<line x1="359.9" y1="248.0" x2="379.5" y2="213.3" stroke="rgb(0,0,0)"  stroke-width="1.0"/>
<line x1="356.6" y1="239.2" x2="370.3" y2="215.0" stroke="rgb(0,0,0)"  stroke-width="1.0"/>
<line x1="379.5" y1="213.3" x2="359.4" y2="178.6" stroke="rgb(0,0,0)"  stroke-width="1.0"/>
<line x1="259.6" y1="144.0" x2="239.6" y2="108.8" stroke="rgb(0,0,0)"  stroke-width="1.0"/>
<line x1="250.4" y1="142.3" x2="236.3" y2="117.5" stroke="rgb(0,0,0)"  stroke-width="1.0"/>
<line x1="239.6" y1="108.8" x2="199.9" y2="108.8" stroke="rgb(0,0,0)"  stroke-width="1.0"/>
<line x1="199.9" y1="108.8" x2="179.2" y2="143.3" stroke="rgb(0,0,0)"  stroke-width="1.0"/>
<line x1="203.0" y1="117.6" x2="188.5" y2="141.9" stroke="rgb(0,0,0)"  stroke-width="1.0"/>
<line x1="179.2" y1="143.3" x2="199.5" y2="178.1" stroke="rgb(0,0,0)"  stroke-width="1.0"/>
<line x1="199.5" y1="178.1" x2="239.5" y2="178.1" stroke="rgb(0,0,0)"  stroke-width="1.0"/>
<line x1="205.5" y1="170.9" x2="233.5" y2="170.9" stroke="rgb(0,0,0)"  stroke-width="1.0"/>
<line x1="239.5" y1="178.1" x2="259.6" y2="144.0" stroke="rgb(0,0,0)"  stroke-width="1.0"/>
<text x="373.518511" y="152.505361" fill="rgb(255,12,12)"  stroke="rgb(255,12,12)" stroke-width="1" font-size="16" >O</text>
<text x="375.853806" y="83.225489" fill="rgb(12,12,255)"  stroke="rgb(12,12,255)" stroke-width="1" font-size="16" >NH</text>
<text x="399.853806" y="86.905489" fill="rgb(12,12,255)"  stroke="rgb(12,12,255)" stroke-width="1" font-size="13" >2</text>
<text x="274.382740" y="48.000000" fill="rgb(12,12,255)"  stroke="rgb(12,12,255)" stroke-width="1" font-size="16" >N</text>
<text x="374.189102" y="291.065106" fill="rgb(255,12,12)"  stroke="rgb(255,12,12)" stroke-width="1" font-size="16" >OH</text>
<text x="133.305848" y="151.334256" fill="rgb(255,12,12)"  stroke="rgb(255,12,12)" stroke-width="1" font-size="16" >O</text>
<text x="22.000000" y="185.383780" fill="rgb(102,102,102)"  stroke="rgb(102,102,102)" stroke-width="1" font-size="16" >HC</text>
<text font-size="18.000000" fill ="black" font-family="sans-serif"
x="10.000000" y="20.000000" ></text>
<title> - OBDepict</title>
</svg>
