<?xml version="1.0"?>
<svg xmlns="http://www.w3.org/2000/svg"
xmlns:xlink="http://www.w3.org/1999/xlink" xmlns:cml="http://www.xml-cml.org/schema" width="544.753" height="228.653" x="0" y="0" font-family="sans-serif" stroke="rgb(0,0,0)" stroke-width="1"  stroke-linecap="round">
<rect x="0%" y="0%" width="100%" height="100%" stroke-width="0" fill="rgb(255,255,255)"  />
<line x1="160.0" y1="74.7" x2="187.0" y2="74.7" stroke="rgb(0,0,0)"  stroke-width="1.0"/>
<line x1="211.3" y1="145.0" x2="223.6" y2="107.1" stroke="rgb(0,0,0)"  stroke-width="1.0"/>
<line x1="293.9" y1="118.2" x2="261.6" y2="94.7" stroke="rgb(0,0,0)"  stroke-width="1.0"/>
<line x1="318.6" y1="107.1" x2="293.9" y2="118.2" stroke="rgb(0,0,0)"  stroke-width="1.0"/>
<line x1="468.2" y1="116.3" x2="431.6" y2="132.7" stroke="rgb(0,0,0)"  stroke-width="1.0"/>
<line x1="492.9" y1="105.4" x2="468.2" y2="116.3" stroke="rgb(0,0,0)"  stroke-width="1.0"/>
<line x1="494.6" y1="109.3" x2="469.9" y2="120.2" stroke="rgb(0,0,0)"  stroke-width="1.0"/>
<line x1="491.2" y1="101.6" x2="466.5" y2="112.5" stroke="rgb(0,0,0)"  stroke-width="1.0"/>
<line x1="288.2" y1="144.7" x2="290.9" y2="117.9" stroke="rgb(0,0,0)"  stroke-width="1.0"/>
<line x1="294.1" y1="145.3" x2="296.9" y2="118.5" stroke="rgb(0,0,0)"  stroke-width="1.0"/>
<line x1="362.8" y1="125.4" x2="340.9" y2="109.5" stroke="rgb(0,0,0)"  stroke-width="1.0"/>
<line x1="53.0" y1="71.7" x2="80.0" y2="71.7" stroke="rgb(0,0,0)"  stroke-width="1.0"/>
<line x1="53.0" y1="77.7" x2="80.0" y2="77.7" stroke="rgb(0,0,0)"  stroke-width="1.0"/>
<line x1="236.9" y1="153.3" x2="211.3" y2="145.0" stroke="rgb(0,0,0)"  stroke-width="1.0"/>
<line x1="185.5" y1="136.7" x2="211.3" y2="145.0" stroke="rgb(0,0,0)"  stroke-width="1.0"/>
<line x1="202.8" y1="170.7" x2="211.3" y2="145.0" stroke="rgb(0,0,0)"  stroke-width="1.0"/>
<line x1="223.6" y1="107.1" x2="207.6" y2="85.2" stroke="rgb(0,0,0)"  stroke-width="1.0"/>
<line x1="207.6" y1="64.2" x2="216.0" y2="52.7" stroke="rgb(0,0,0)"  stroke-width="1.0"/>
<line x1="236.1" y1="46.4" x2="261.6" y2="54.7" stroke="rgb(0,0,0)"  stroke-width="1.0"/>
<line x1="235.8" y1="53.8" x2="253.6" y2="59.7" stroke="rgb(0,0,0)"  stroke-width="1.0"/>
<line x1="261.6" y1="54.7" x2="261.6" y2="94.7" stroke="rgb(0,0,0)"  stroke-width="1.0"/>
<line x1="261.6" y1="94.7" x2="223.6" y2="107.1" stroke="rgb(0,0,0)"  stroke-width="1.0"/>
<line x1="253.6" y1="89.7" x2="227.1" y2="98.4" stroke="rgb(0,0,0)"  stroke-width="1.0"/>
<line x1="160.0" y1="74.7" x2="146.6" y2="97.9" stroke="rgb(0,0,0)"  stroke-width="1.0"/>
<line x1="150.7" y1="76.3" x2="141.4" y2="92.5" stroke="rgb(0,0,0)"  stroke-width="1.0"/>
<line x1="127.0" y1="109.3" x2="113.0" y2="109.3" stroke="rgb(0,0,0)"  stroke-width="1.0"/>
<line x1="93.5" y1="98.0" x2="80.0" y2="74.7" stroke="rgb(0,0,0)"  stroke-width="1.0"/>
<line x1="80.0" y1="74.7" x2="100.0" y2="40.0" stroke="rgb(0,0,0)"  stroke-width="1.0"/>
<line x1="100.0" y1="40.0" x2="140.0" y2="40.0" stroke="rgb(0,0,0)"  stroke-width="1.0"/>
<line x1="106.0" y1="47.2" x2="134.0" y2="47.2" stroke="rgb(0,0,0)"  stroke-width="1.0"/>
<line x1="140.0" y1="40.0" x2="160.0" y2="74.7" stroke="rgb(0,0,0)"  stroke-width="1.0"/>
<line x1="362.8" y1="125.4" x2="399.3" y2="109.1" stroke="rgb(0,0,0)"  stroke-width="1.0"/>
<line x1="371.2" y1="129.6" x2="396.8" y2="118.1" stroke="rgb(0,0,0)"  stroke-width="1.0"/>
<line x1="399.3" y1="109.1" x2="431.6" y2="132.7" stroke="rgb(0,0,0)"  stroke-width="1.0"/>
<line x1="431.6" y1="132.7" x2="427.6" y2="172.5" stroke="rgb(0,0,0)"  stroke-width="1.0"/>
<line x1="423.9" y1="138.0" x2="421.0" y2="165.8" stroke="rgb(0,0,0)"  stroke-width="1.0"/>
<line x1="427.6" y1="172.5" x2="391.0" y2="188.7" stroke="rgb(0,0,0)"  stroke-width="1.0"/>
<line x1="391.0" y1="188.7" x2="358.7" y2="165.2" stroke="rgb(0,0,0)"  stroke-width="1.0"/>
<line x1="390.4" y1="179.3" x2="367.8" y2="162.9" stroke="rgb(0,0,0)"  stroke-width="1.0"/>
<line x1="358.7" y1="165.2" x2="362.8" y2="125.4" stroke="rgb(0,0,0)"  stroke-width="1.0"/>
<text x="193.967273" y="82.737136" fill="rgb(12,12,255)"  stroke="rgb(12,12,255)" stroke-width="1" font-size="16" >N</text>
<text x="217.598802" y="50.220152" fill="rgb(12,12,255)"  stroke="rgb(12,12,255)" stroke-width="1" font-size="16" >N</text>
<text x="133.979546" y="117.275524" fill="rgb(12,12,255)"  stroke="rgb(12,12,255)" stroke-width="1" font-size="16" >N</text>
<text x="93.987727" y="117.275524" fill="rgb(12,12,255)"  stroke="rgb(12,12,255)" stroke-width="1" font-size="16" >N</text>
<text x="93.987727" y="133.275524" fill="rgb(12,12,255)"  stroke="rgb(12,12,255)" stroke-width="1" font-size="16" >H</text>
<text x="324.447245" y="109.805537" fill="rgb(12,12,255)"  stroke="rgb(12,12,255)" stroke-width="1" font-size="16" >N</text>
<text x="324.447245" y="93.805537" fill="rgb(12,12,255)"  stroke="rgb(12,12,255)" stroke-width="1" font-size="16" >H</text>
<text x="498.753403" y="108.186475" fill="rgb(102,102,102)"  stroke="rgb(102,102,102)" stroke-width="1" font-size="16" >CH</text>
<text x="283.849491" y="165.954050" fill="rgb(255,12,12)"  stroke="rgb(255,12,12)" stroke-width="1" font-size="16" >O</text>
<text x="34.000000" y="82.737136" fill="rgb(255,12,12)"  stroke="rgb(255,12,12)" stroke-width="1" font-size="16" >O</text>
<text x="243.251736" y="165.348114" fill="rgb(127,178,255)"  stroke="rgb(127,178,255)" stroke-width="1" font-size="16" >F</text>
<text x="167.107314" y="140.708306" fill="rgb(127,178,255)"  stroke="rgb(127,178,255)" stroke-width="1" font-size="16" >F</text>
<text x="192.755400" y="191.001047" fill="rgb(127,178,255)"  stroke="rgb(127,178,255)" stroke-width="1" font-size="16" >F</text>
<text font-size="18.000000" fill ="black" font-family="sans-serif"
x="10.000000" y="20.000000" ></text>
<title> - OBDepict</title>
</svg>
