<?xml version="1.0"?>
<svg xmlns="http://www.w3.org/2000/svg"
xmlns:xlink="http://www.w3.org/1999/xlink" xmlns:cml="http://www.xml-cml.org/schema" width="243.88" height="460.093" x="0" y="0" font-family="sans-serif" stroke="rgb(0,0,0)" stroke-width="1"  stroke-linecap="round">
<rect x="0%" y="0%" width="100%" height="100%" stroke-width="0" fill="rgb(255,255,255)"  />
<line x1="143.9" y1="380.1" x2="143.9" y2="340.1" stroke="rgb(0,0,0)"  stroke-width="1.0"/>
<line x1="74.8" y1="100.0" x2="74.8" y2="73.0" stroke="rgb(0,0,0)"  stroke-width="1.0"/>
<line x1="143.9" y1="407.1" x2="143.9" y2="380.1" stroke="rgb(0,0,0)"  stroke-width="1.0"/>
<line x1="139.7" y1="407.1" x2="139.7" y2="380.1" stroke="rgb(0,0,0)"  stroke-width="1.0"/>
<line x1="148.1" y1="407.1" x2="148.1" y2="380.1" stroke="rgb(0,0,0)"  stroke-width="1.0"/>
<line x1="109.3" y1="280.1" x2="109.3" y2="240.0" stroke="rgb(0,0,0)"  stroke-width="1.0"/>
<line x1="98.1" y1="46.5" x2="86.0" y2="53.5" stroke="rgb(0,0,0)"  stroke-width="1.0"/>
<line x1="132.6" y1="293.5" x2="109.3" y2="280.1" stroke="rgb(0,0,0)"  stroke-width="1.0"/>
<line x1="52.8" y1="43.9" x2="65.0" y2="50.9" stroke="rgb(0,0,0)"  stroke-width="1.0"/>
<line x1="49.8" y1="49.1" x2="62.0" y2="56.1" stroke="rgb(0,0,0)"  stroke-width="1.0"/>
<line x1="143.9" y1="340.1" x2="143.9" y2="313.1" stroke="rgb(0,0,0)"  stroke-width="1.0"/>
<line x1="74.8" y1="207.0" x2="74.8" y2="180.0" stroke="rgb(0,0,0)"  stroke-width="1.0"/>
<line x1="84.5" y1="291.0" x2="107.8" y2="277.5" stroke="rgb(0,0,0)"  stroke-width="1.0"/>
<line x1="87.5" y1="296.1" x2="110.8" y2="282.7" stroke="rgb(0,0,0)"  stroke-width="1.0"/>
<line x1="109.3" y1="240.0" x2="86.0" y2="226.6" stroke="rgb(0,0,0)"  stroke-width="1.0"/>
<line x1="183.9" y1="340.1" x2="143.9" y2="340.1" stroke="rgb(0,0,0)"  stroke-width="1.0"/>
<line x1="103.9" y1="340.1" x2="143.9" y2="340.1" stroke="rgb(0,0,0)"  stroke-width="1.0"/>
<line x1="197.4" y1="363.6" x2="183.9" y2="340.1" stroke="rgb(0,0,0)"  stroke-width="1.0"/>
<line x1="90.4" y1="316.8" x2="103.9" y2="340.1" stroke="rgb(0,0,0)"  stroke-width="1.0"/>
<line x1="74.8" y1="100.0" x2="109.3" y2="120.0" stroke="rgb(0,0,0)"  stroke-width="1.0"/>
<line x1="109.3" y1="120.0" x2="109.3" y2="160.0" stroke="rgb(0,0,0)"  stroke-width="1.0"/>
<line x1="102.1" y1="126.0" x2="102.1" y2="154.0" stroke="rgb(0,0,0)"  stroke-width="1.0"/>
<line x1="109.3" y1="160.0" x2="74.8" y2="180.0" stroke="rgb(0,0,0)"  stroke-width="1.0"/>
<line x1="74.8" y1="180.0" x2="40.0" y2="160.0" stroke="rgb(0,0,0)"  stroke-width="1.0"/>
<line x1="73.1" y1="170.8" x2="48.8" y2="156.8" stroke="rgb(0,0,0)"  stroke-width="1.0"/>
<line x1="40.0" y1="160.0" x2="40.0" y2="120.0" stroke="rgb(0,0,0)"  stroke-width="1.0"/>
<line x1="40.0" y1="120.0" x2="74.8" y2="100.0" stroke="rgb(0,0,0)"  stroke-width="1.0"/>
<line x1="48.8" y1="123.3" x2="73.1" y2="109.2" stroke="rgb(0,0,0)"  stroke-width="1.0"/>
<text x="79.557556" y="55.972872" fill="rgb(12,12,255)"  stroke="rgb(12,12,255)" stroke-width="1" font-size="16" >+</text>
<text x="68.757556" y="68.004872" fill="rgb(12,12,255)"  stroke="rgb(12,12,255)" stroke-width="1" font-size="16" >N</text>
<text x="137.865297" y="428.092572" fill="rgb(102,102,102)"  stroke="rgb(102,102,102)" stroke-width="1" font-size="16" >CH</text>
<text x="114.111426" y="25.888000" fill="rgb(255,12,12)"  stroke="rgb(255,12,12)" stroke-width="1" font-size="16" >_</text>
<text x="103.311426" y="48.000000" fill="rgb(255,12,12)"  stroke="rgb(255,12,12)" stroke-width="1" font-size="16" >O</text>
<text x="137.865297" y="308.063339" fill="rgb(12,12,255)"  stroke="rgb(12,12,255)" stroke-width="1" font-size="16" >NH</text>
<text x="34.000000" y="48.000000" fill="rgb(255,12,12)"  stroke="rgb(255,12,12)" stroke-width="1" font-size="16" >O</text>
<text x="68.757556" y="228.043850" fill="rgb(178,178,0)"  stroke="rgb(178,178,0)" stroke-width="1" font-size="16" >S</text>
<text x="68.757556" y="308.063339" fill="rgb(255,12,12)"  stroke="rgb(255,12,12)" stroke-width="1" font-size="16" >O</text>
<text x="199.879913" y="382.830640" fill="rgb(102,102,102)"  stroke="rgb(102,102,102)" stroke-width="1" font-size="16" >CH</text>
<text x="223.879913" y="386.510640" fill="rgb(102,102,102)"  stroke="rgb(102,102,102)" stroke-width="1" font-size="13" >3</text>
<text x="57.850680" y="313.519213" fill="rgb(102,102,102)"  stroke="rgb(102,102,102)" stroke-width="1" font-size="16" >H</text>
<text x="69.850680" y="317.199213" fill="rgb(102,102,102)"  stroke="rgb(102,102,102)" stroke-width="1" font-size="13" >3</text>
<text x="76.350680" y="313.519213" fill="rgb(102,102,102)"  stroke="rgb(102,102,102)" stroke-width="1" font-size="16" >C</text>
<text font-size="18.000000" fill ="black" font-family="sans-serif"
x="10.000000" y="20.000000" ></text>
<title> - OBDepict</title>
</svg>
