<?xml version="1.0"?>
<svg xmlns="http://www.w3.org/2000/svg"
xmlns:xlink="http://www.w3.org/1999/xlink" xmlns:cml="http://www.xml-cml.org/schema" width="284.339" height="585.181" x="0" y="0" font-family="sans-serif" stroke="rgb(0,0,0)" stroke-width="1"  stroke-linecap="round">
<rect x="0%" y="0%" width="100%" height="100%" stroke-width="0" fill="rgb(255,255,255)"  />
<line x1="87.2" y1="397.7" x2="83.3" y2="425.0" stroke="rgb(0,0,0)"  stroke-width="1.0"/>
<line x1="141.1" y1="303.9" x2="140.6" y2="262.7" stroke="rgb(0,0,0)"  stroke-width="1.0"/>
<line x1="78.0" y1="322.3" x2="53.7" y2="308.5" stroke="rgb(0,0,0)"  stroke-width="1.0"/>
<line x1="200.1" y1="365.3" x2="221.6" y2="381.9" stroke="rgb(0,0,0)"  stroke-width="1.0"/>
<line x1="196.4" y1="370.0" x2="217.9" y2="386.7" stroke="rgb(0,0,0)"  stroke-width="1.0"/>
<line x1="205.6" y1="328.5" x2="231.9" y2="320.6" stroke="rgb(0,0,0)"  stroke-width="1.0"/>
<line x1="71.8" y1="505.1" x2="68.0" y2="532.3" stroke="rgb(0,0,0)"  stroke-width="1.0"/>
<line x1="140.6" y1="182.4" x2="140.1" y2="154.3" stroke="rgb(0,0,0)"  stroke-width="1.0"/>
<line x1="151.2" y1="134.8" x2="174.8" y2="121.0" stroke="rgb(0,0,0)"  stroke-width="1.0"/>
<line x1="174.8" y1="121.0" x2="174.8" y2="80.6" stroke="rgb(0,0,0)"  stroke-width="1.0"/>
<line x1="174.8" y1="80.6" x2="174.5" y2="53.0" stroke="rgb(0,0,0)"  stroke-width="1.0"/>
<line x1="170.6" y1="80.6" x2="170.3" y2="53.1" stroke="rgb(0,0,0)"  stroke-width="1.0"/>
<line x1="179.0" y1="80.5" x2="178.7" y2="52.9" stroke="rgb(0,0,0)"  stroke-width="1.0"/>
<line x1="123.4" y1="366.5" x2="117.2" y2="327.8" stroke="rgb(0,0,0)"  stroke-width="1.0"/>
<line x1="115.4" y1="361.7" x2="111.1" y2="334.8" stroke="rgb(0,0,0)"  stroke-width="1.0"/>
<line x1="117.2" y1="327.8" x2="78.0" y2="322.3" stroke="rgb(0,0,0)"  stroke-width="1.0"/>
<line x1="78.0" y1="322.3" x2="66.5" y2="346.1" stroke="rgb(0,0,0)"  stroke-width="1.0"/>
<line x1="81.9" y1="330.8" x2="73.9" y2="347.4" stroke="rgb(0,0,0)"  stroke-width="1.0"/>
<line x1="70.2" y1="366.9" x2="79.6" y2="375.9" stroke="rgb(0,0,0)"  stroke-width="1.0"/>
<line x1="100.5" y1="378.7" x2="123.4" y2="366.5" stroke="rgb(0,0,0)"  stroke-width="1.0"/>
<line x1="83.3" y1="425.0" x2="114.8" y2="449.5" stroke="rgb(0,0,0)"  stroke-width="1.0"/>
<line x1="114.8" y1="449.5" x2="109.3" y2="489.8" stroke="rgb(0,0,0)"  stroke-width="1.0"/>
<line x1="106.9" y1="454.5" x2="103.0" y2="482.9" stroke="rgb(0,0,0)"  stroke-width="1.0"/>
<line x1="109.3" y1="489.8" x2="71.8" y2="505.1" stroke="rgb(0,0,0)"  stroke-width="1.0"/>
<line x1="71.8" y1="505.1" x2="40.0" y2="480.2" stroke="rgb(0,0,0)"  stroke-width="1.0"/>
<line x1="71.5" y1="495.7" x2="49.2" y2="478.2" stroke="rgb(0,0,0)"  stroke-width="1.0"/>
<line x1="40.0" y1="480.2" x2="45.5" y2="440.1" stroke="rgb(0,0,0)"  stroke-width="1.0"/>
<line x1="45.5" y1="440.1" x2="83.3" y2="425.0" stroke="rgb(0,0,0)"  stroke-width="1.0"/>
<line x1="53.7" y1="444.5" x2="80.4" y2="433.9" stroke="rgb(0,0,0)"  stroke-width="1.0"/>
<line x1="140.6" y1="262.7" x2="175.5" y2="242.6" stroke="rgb(0,0,0)"  stroke-width="1.0"/>
<line x1="142.2" y1="253.5" x2="166.7" y2="239.4" stroke="rgb(0,0,0)"  stroke-width="1.0"/>
<line x1="175.5" y1="242.6" x2="175.5" y2="202.0" stroke="rgb(0,0,0)"  stroke-width="1.0"/>
<line x1="175.5" y1="202.0" x2="140.6" y2="182.4" stroke="rgb(0,0,0)"  stroke-width="1.0"/>
<line x1="166.8" y1="205.4" x2="142.3" y2="191.6" stroke="rgb(0,0,0)"  stroke-width="1.0"/>
<line x1="140.6" y1="182.4" x2="105.0" y2="202.7" stroke="rgb(0,0,0)"  stroke-width="1.0"/>
<line x1="105.0" y1="202.7" x2="105.5" y2="243.1" stroke="rgb(0,0,0)"  stroke-width="1.0"/>
<line x1="112.3" y1="208.6" x2="112.7" y2="237.0" stroke="rgb(0,0,0)"  stroke-width="1.0"/>
<line x1="105.5" y1="243.1" x2="140.6" y2="262.7" stroke="rgb(0,0,0)"  stroke-width="1.0"/>
<line x1="205.6" y1="328.5" x2="190.1" y2="312.6" stroke="rgb(0,0,0)"  stroke-width="1.0"/>
<line x1="168.0" y1="303.5" x2="141.1" y2="303.9" stroke="rgb(0,0,0)"  stroke-width="1.0"/>
<line x1="141.1" y1="303.9" x2="117.2" y2="327.8" stroke="rgb(0,0,0)"  stroke-width="1.0"/>
<line x1="123.4" y1="366.5" x2="148.7" y2="379.6" stroke="rgb(0,0,0)"  stroke-width="1.0"/>
<line x1="172.0" y1="380.0" x2="198.2" y2="367.7" stroke="rgb(0,0,0)"  stroke-width="1.0"/>
<line x1="198.2" y1="367.7" x2="205.6" y2="328.5" stroke="rgb(0,0,0)"  stroke-width="1.0"/>
<text x="83.018290" y="392.872382" fill="rgb(12,12,255)"  stroke="rgb(12,12,255)" stroke-width="1" font-size="16" >N</text>
<text x="154.228087" y="393.558364" fill="rgb(12,12,255)"  stroke="rgb(12,12,255)" stroke-width="1" font-size="16" >N</text>
<text x="154.228087" y="409.558364" fill="rgb(12,12,255)"  stroke="rgb(12,12,255)" stroke-width="1" font-size="16" >H</text>
<text x="54.809744" y="365.864304" fill="rgb(12,12,255)"  stroke="rgb(12,12,255)" stroke-width="1" font-size="16" >N</text>
<text x="175.037830" y="311.338562" fill="rgb(178,178,0)"  stroke="rgb(178,178,0)" stroke-width="1" font-size="16" >S</text>
<text x="16.405836" y="310.138094" fill="rgb(102,102,102)"  stroke="rgb(102,102,102)" stroke-width="1" font-size="16" >H</text>
<text x="28.405836" y="313.818094" fill="rgb(102,102,102)"  stroke="rgb(102,102,102)" stroke-width="1" font-size="13" >3</text>
<text x="34.905836" y="310.138094" fill="rgb(102,102,102)"  stroke="rgb(102,102,102)" stroke-width="1" font-size="16" >C</text>
<text x="224.061020" y="400.266285" fill="rgb(255,12,12)"  stroke="rgb(255,12,12)" stroke-width="1" font-size="16" >O</text>
<text x="240.339238" y="324.930798" fill="rgb(102,102,102)"  stroke="rgb(102,102,102)" stroke-width="1" font-size="16" >CH</text>
<text x="264.339238" y="328.610798" fill="rgb(102,102,102)"  stroke="rgb(102,102,102)" stroke-width="1" font-size="13" >3</text>
<text x="40.140801" y="553.181398" fill="rgb(102,102,102)"  stroke="rgb(102,102,102)" stroke-width="1" font-size="16" >H</text>
<text x="52.140801" y="556.861398" fill="rgb(102,102,102)"  stroke="rgb(102,102,102)" stroke-width="1" font-size="13" >3</text>
<text x="58.640801" y="553.181398" fill="rgb(102,102,102)"  stroke="rgb(102,102,102)" stroke-width="1" font-size="16" >C</text>
<text x="133.932829" y="149.314592" fill="rgb(255,12,12)"  stroke="rgb(255,12,12)" stroke-width="1" font-size="16" >O</text>
<text x="156.334810" y="48.000000" fill="rgb(102,102,102)"  stroke="rgb(102,102,102)" stroke-width="1" font-size="16" >HC</text>
<text font-size="18.000000" fill ="black" font-family="sans-serif"
x="10.000000" y="20.000000" ></text>
<title> - OBDepict</title>
</svg>
