<?xml version="1.0"?>
<svg xmlns="http://www.w3.org/2000/svg"
xmlns:xlink="http://www.w3.org/1999/xlink" xmlns:cml="http://www.xml-cml.org/schema" width="435.546" height="412.04" x="0" y="0" font-family="sans-serif" stroke="rgb(0,0,0)" stroke-width="1"  stroke-linecap="round">
<rect x="0%" y="0%" width="100%" height="100%" stroke-width="0" fill="rgb(255,255,255)"  />
<line x1="129.8" y1="158.4" x2="155.5" y2="167.0" stroke="rgb(0,0,0)"  stroke-width="1.0"/>
<line x1="127.9" y1="164.1" x2="153.6" y2="172.7" stroke="rgb(0,0,0)"  stroke-width="1.0"/>
<line x1="258.1" y1="161.7" x2="219.9" y2="173.4" stroke="rgb(0,0,0)"  stroke-width="1.0"/>
<line x1="256.3" y1="156.0" x2="218.1" y2="167.6" stroke="rgb(0,0,0)"  stroke-width="1.0"/>
<line x1="286.7" y1="185.7" x2="257.2" y2="158.8" stroke="rgb(0,0,0)"  stroke-width="1.0"/>
<line x1="395.5" y1="333.0" x2="366.2" y2="305.9" stroke="rgb(0,0,0)"  stroke-width="1.0"/>
<line x1="389.8" y1="359.3" x2="395.5" y2="333.0" stroke="rgb(0,0,0)"  stroke-width="1.0"/>
<line x1="385.7" y1="358.4" x2="391.4" y2="332.1" stroke="rgb(0,0,0)"  stroke-width="1.0"/>
<line x1="393.9" y1="360.2" x2="399.6" y2="333.9" stroke="rgb(0,0,0)"  stroke-width="1.0"/>
<line x1="219.6" y1="232.1" x2="203.8" y2="210.3" stroke="rgb(0,0,0)"  stroke-width="1.0"/>
<line x1="224.5" y1="228.6" x2="208.6" y2="206.8" stroke="rgb(0,0,0)"  stroke-width="1.0"/>
<line x1="143.2" y1="240.9" x2="159.2" y2="219.0" stroke="rgb(0,0,0)"  stroke-width="1.0"/>
<line x1="108.3" y1="118.2" x2="113.8" y2="144.5" stroke="rgb(0,0,0)"  stroke-width="1.0"/>
<line x1="301.1" y1="278.3" x2="307.0" y2="251.9" stroke="rgb(0,0,0)"  stroke-width="1.0"/>
<line x1="380.0" y1="192.6" x2="354.2" y2="200.7" stroke="rgb(0,0,0)"  stroke-width="1.0"/>
<line x1="365.4" y1="258.1" x2="345.2" y2="239.7" stroke="rgb(0,0,0)"  stroke-width="1.0"/>
<line x1="366.2" y1="305.9" x2="372.2" y2="279.5" stroke="rgb(0,0,0)"  stroke-width="1.0"/>
<line x1="87.5" y1="258.4" x2="103.5" y2="236.7" stroke="rgb(0,0,0)"  stroke-width="1.0"/>
<line x1="103.5" y1="236.7" x2="143.2" y2="240.9" stroke="rgb(0,0,0)"  stroke-width="1.0"/>
<line x1="52.9" y1="265.9" x2="66.9" y2="267.5" stroke="rgb(0,0,0)"  stroke-width="1.0"/>
<line x1="154.5" y1="169.8" x2="162.9" y2="196.1" stroke="rgb(0,0,0)"  stroke-width="1.0"/>
<line x1="179.8" y1="208.5" x2="206.2" y2="208.5" stroke="rgb(0,0,0)"  stroke-width="1.0"/>
<line x1="206.2" y1="208.5" x2="219.0" y2="170.5" stroke="rgb(0,0,0)"  stroke-width="1.0"/>
<line x1="219.0" y1="170.5" x2="197.3" y2="154.5" stroke="rgb(0,0,0)"  stroke-width="1.0"/>
<line x1="176.3" y1="154.4" x2="154.5" y2="169.8" stroke="rgb(0,0,0)"  stroke-width="1.0"/>
<line x1="307.0" y1="251.9" x2="345.2" y2="239.7" stroke="rgb(0,0,0)"  stroke-width="1.0"/>
<line x1="310.6" y1="243.2" x2="337.3" y2="234.7" stroke="rgb(0,0,0)"  stroke-width="1.0"/>
<line x1="345.2" y1="239.7" x2="354.2" y2="200.7" stroke="rgb(0,0,0)"  stroke-width="1.0"/>
<line x1="354.2" y1="200.7" x2="324.5" y2="173.5" stroke="rgb(0,0,0)"  stroke-width="1.0"/>
<line x1="344.9" y1="201.9" x2="324.1" y2="182.9" stroke="rgb(0,0,0)"  stroke-width="1.0"/>
<line x1="324.5" y1="173.5" x2="286.7" y2="185.7" stroke="rgb(0,0,0)"  stroke-width="1.0"/>
<line x1="286.7" y1="185.7" x2="277.9" y2="225.0" stroke="rgb(0,0,0)"  stroke-width="1.0"/>
<line x1="292.4" y1="193.1" x2="286.2" y2="220.7" stroke="rgb(0,0,0)"  stroke-width="1.0"/>
<line x1="277.9" y1="225.0" x2="307.0" y2="251.9" stroke="rgb(0,0,0)"  stroke-width="1.0"/>
<line x1="108.3" y1="118.2" x2="70.3" y2="105.7" stroke="rgb(0,0,0)"  stroke-width="1.0"/>
<line x1="70.3" y1="105.7" x2="62.2" y2="66.8" stroke="rgb(0,0,0)"  stroke-width="1.0"/>
<line x1="76.1" y1="98.3" x2="70.4" y2="71.2" stroke="rgb(0,0,0)"  stroke-width="1.0"/>
<line x1="62.2" y1="66.8" x2="92.2" y2="40.0" stroke="rgb(0,0,0)"  stroke-width="1.0"/>
<line x1="92.2" y1="40.0" x2="130.2" y2="52.2" stroke="rgb(0,0,0)"  stroke-width="1.0"/>
<line x1="95.7" y1="48.7" x2="122.3" y2="57.2" stroke="rgb(0,0,0)"  stroke-width="1.0"/>
<line x1="130.2" y1="52.2" x2="138.3" y2="91.7" stroke="rgb(0,0,0)"  stroke-width="1.0"/>
<line x1="138.3" y1="91.7" x2="108.3" y2="118.2" stroke="rgb(0,0,0)"  stroke-width="1.0"/>
<line x1="129.1" y1="90.3" x2="108.1" y2="108.8" stroke="rgb(0,0,0)"  stroke-width="1.0"/>
<text x="160.848314" y="216.521782" fill="rgb(12,12,255)"  stroke="rgb(12,12,255)" stroke-width="1" font-size="16" >N</text>
<text x="180.853518" y="154.843110" fill="rgb(178,178,0)"  stroke="rgb(178,178,0)" stroke-width="1" font-size="16" >S</text>
<text x="110.510450" y="165.180264" fill="rgb(12,12,255)"  stroke="rgb(12,12,255)" stroke-width="1" font-size="16" >N</text>
<text x="369.046166" y="380.039839" fill="rgb(102,102,102)"  stroke="rgb(102,102,102)" stroke-width="1" font-size="16" >HC</text>
<text x="223.690643" y="248.856902" fill="rgb(255,12,12)"  stroke="rgb(255,12,12)" stroke-width="1" font-size="16" >O</text>
<text x="280.196103" y="299.029915" fill="rgb(165,40,40)"  stroke="rgb(165,40,40)" stroke-width="1" font-size="16" >Br</text>
<text x="386.374746" y="196.686278" fill="rgb(165,40,40)"  stroke="rgb(165,40,40)" stroke-width="1" font-size="16" >Br</text>
<text x="369.041104" y="274.859788" fill="rgb(255,12,12)"  stroke="rgb(255,12,12)" stroke-width="1" font-size="16" >O</text>
<text x="73.835859" y="276.857400" fill="rgb(255,12,12)"  stroke="rgb(255,12,12)" stroke-width="1" font-size="16" >O</text>
<text x="14.000000" y="272.527626" fill="rgb(102,102,102)"  stroke="rgb(102,102,102)" stroke-width="1" font-size="16" >H</text>
<text x="26.000000" y="276.207626" fill="rgb(102,102,102)"  stroke="rgb(102,102,102)" stroke-width="1" font-size="13" >3</text>
<text x="32.500000" y="272.527626" fill="rgb(102,102,102)"  stroke="rgb(102,102,102)" stroke-width="1" font-size="16" >C</text>
<text font-size="18.000000" fill ="black" font-family="sans-serif"
x="10.000000" y="20.000000" ></text>
<title> - OBDepict</title>
</svg>
