<?xml version="1.0"?>
<svg xmlns="http://www.w3.org/2000/svg"
xmlns:xlink="http://www.w3.org/1999/xlink" xmlns:cml="http://www.xml-cml.org/schema" width="425.344" height="465.198" x="0" y="0" font-family="sans-serif" stroke="rgb(0,0,0)" stroke-width="1"  stroke-linecap="round">
<rect x="0%" y="0%" width="100%" height="100%" stroke-width="0" fill="rgb(255,255,255)"  />
<line x1="349.3" y1="82.8" x2="338.5" y2="107.7" stroke="rgb(0,0,0)"  stroke-width="1.0"/>
<line x1="211.6" y1="282.9" x2="246.3" y2="262.7" stroke="rgb(0,0,0)"  stroke-width="1.0"/>
<line x1="214.6" y1="288.0" x2="249.3" y2="267.9" stroke="rgb(0,0,0)"  stroke-width="1.0"/>
<line x1="306.0" y1="180.6" x2="295.7" y2="204.9" stroke="rgb(0,0,0)"  stroke-width="1.0"/>
<line x1="74.9" y1="405.2" x2="109.0" y2="385.3" stroke="rgb(0,0,0)"  stroke-width="1.0"/>
<line x1="51.3" y1="418.7" x2="74.9" y2="405.2" stroke="rgb(0,0,0)"  stroke-width="1.0"/>
<line x1="49.2" y1="415.1" x2="72.8" y2="401.5" stroke="rgb(0,0,0)"  stroke-width="1.0"/>
<line x1="53.4" y1="422.4" x2="76.9" y2="408.8" stroke="rgb(0,0,0)"  stroke-width="1.0"/>
<line x1="373.3" y1="89.9" x2="362.7" y2="81.3" stroke="rgb(0,0,0)"  stroke-width="1.0"/>
<line x1="377.1" y1="85.2" x2="366.5" y2="76.7" stroke="rgb(0,0,0)"  stroke-width="1.0"/>
<line x1="335.0" y1="51.4" x2="346.2" y2="60.4" stroke="rgb(0,0,0)"  stroke-width="1.0"/>
<line x1="331.3" y1="56.1" x2="342.5" y2="65.1" stroke="rgb(0,0,0)"  stroke-width="1.0"/>
<line x1="233.5" y1="205.6" x2="253.3" y2="223.2" stroke="rgb(0,0,0)"  stroke-width="1.0"/>
<line x1="229.5" y1="210.1" x2="249.3" y2="227.7" stroke="rgb(0,0,0)"  stroke-width="1.0"/>
<line x1="371.5" y1="50.1" x2="362.7" y2="60.8" stroke="rgb(0,0,0)"  stroke-width="1.0"/>
<line x1="213.1" y1="325.3" x2="213.1" y2="285.5" stroke="rgb(0,0,0)"  stroke-width="1.0"/>
<line x1="289.8" y1="308.3" x2="284.1" y2="281.6" stroke="rgb(0,0,0)"  stroke-width="1.0"/>
<line x1="109.0" y1="385.3" x2="132.4" y2="399.2" stroke="rgb(0,0,0)"  stroke-width="1.0"/>
<line x1="154.8" y1="399.3" x2="178.6" y2="385.3" stroke="rgb(0,0,0)"  stroke-width="1.0"/>
<line x1="247.8" y1="265.3" x2="284.1" y2="281.6" stroke="rgb(0,0,0)"  stroke-width="1.0"/>
<line x1="284.1" y1="281.6" x2="302.0" y2="261.4" stroke="rgb(0,0,0)"  stroke-width="1.0"/>
<line x1="282.7" y1="272.4" x2="295.3" y2="258.1" stroke="rgb(0,0,0)"  stroke-width="1.0"/>
<line x1="304.2" y1="240.2" x2="297.2" y2="228.1" stroke="rgb(0,0,0)"  stroke-width="1.0"/>
<line x1="277.9" y1="219.7" x2="251.3" y2="225.4" stroke="rgb(0,0,0)"  stroke-width="1.0"/>
<line x1="251.3" y1="225.4" x2="247.8" y2="265.3" stroke="rgb(0,0,0)"  stroke-width="1.0"/>
<line x1="306.0" y1="180.6" x2="346.3" y2="176.4" stroke="rgb(0,0,0)"  stroke-width="1.0"/>
<line x1="311.2" y1="172.8" x2="339.6" y2="169.9" stroke="rgb(0,0,0)"  stroke-width="1.0"/>
<line x1="346.3" y1="176.4" x2="361.7" y2="139.4" stroke="rgb(0,0,0)"  stroke-width="1.0"/>
<line x1="361.7" y1="139.4" x2="338.5" y2="107.7" stroke="rgb(0,0,0)"  stroke-width="1.0"/>
<line x1="352.3" y1="138.8" x2="336.2" y2="116.8" stroke="rgb(0,0,0)"  stroke-width="1.0"/>
<line x1="338.5" y1="107.7" x2="298.8" y2="111.5" stroke="rgb(0,0,0)"  stroke-width="1.0"/>
<line x1="298.8" y1="111.5" x2="282.8" y2="148.9" stroke="rgb(0,0,0)"  stroke-width="1.0"/>
<line x1="303.1" y1="119.9" x2="291.8" y2="146.2" stroke="rgb(0,0,0)"  stroke-width="1.0"/>
<line x1="282.8" y1="148.9" x2="306.0" y2="180.6" stroke="rgb(0,0,0)"  stroke-width="1.0"/>
<line x1="213.1" y1="325.3" x2="178.6" y2="345.5" stroke="rgb(0,0,0)"  stroke-width="1.0"/>
<line x1="178.6" y1="345.5" x2="178.6" y2="385.3" stroke="rgb(0,0,0)"  stroke-width="1.0"/>
<line x1="185.8" y1="351.5" x2="185.8" y2="379.3" stroke="rgb(0,0,0)"  stroke-width="1.0"/>
<line x1="178.6" y1="385.3" x2="213.1" y2="405.9" stroke="rgb(0,0,0)"  stroke-width="1.0"/>
<line x1="213.1" y1="405.9" x2="247.8" y2="385.3" stroke="rgb(0,0,0)"  stroke-width="1.0"/>
<line x1="214.6" y1="396.6" x2="238.9" y2="382.2" stroke="rgb(0,0,0)"  stroke-width="1.0"/>
<line x1="247.8" y1="385.3" x2="247.8" y2="345.2" stroke="rgb(0,0,0)"  stroke-width="1.0"/>
<line x1="247.8" y1="345.2" x2="213.1" y2="325.3" stroke="rgb(0,0,0)"  stroke-width="1.0"/>
<line x1="239.0" y1="348.4" x2="214.7" y2="334.5" stroke="rgb(0,0,0)"  stroke-width="1.0"/>
<text x="284.625324" y="224.925116" fill="rgb(12,12,255)"  stroke="rgb(12,12,255)" stroke-width="1" font-size="16" >N</text>
<text x="304.804739" y="259.440111" fill="rgb(12,12,255)"  stroke="rgb(12,12,255)" stroke-width="1" font-size="16" >N</text>
<text x="348.495281" y="78.848656" fill="rgb(178,178,0)"  stroke="rgb(178,178,0)" stroke-width="1" font-size="16" >S</text>
<text x="22.000000" y="433.198403" fill="rgb(102,102,102)"  stroke="rgb(102,102,102)" stroke-width="1" font-size="16" >HC</text>
<text x="379.343937" y="103.698288" fill="rgb(255,12,12)"  stroke="rgb(255,12,12)" stroke-width="1" font-size="16" >O</text>
<text x="316.977373" y="53.674096" fill="rgb(255,12,12)"  stroke="rgb(255,12,12)" stroke-width="1" font-size="16" >O</text>
<text x="215.760222" y="207.248123" fill="rgb(255,12,12)"  stroke="rgb(255,12,12)" stroke-width="1" font-size="16" >O</text>
<text x="375.669841" y="48.000000" fill="rgb(12,12,255)"  stroke="rgb(12,12,255)" stroke-width="1" font-size="16" >NH</text>
<text x="399.669841" y="51.680000" fill="rgb(12,12,255)"  stroke="rgb(12,12,255)" stroke-width="1" font-size="13" >2</text>
<text x="288.463343" y="328.974466" fill="rgb(102,102,102)"  stroke="rgb(102,102,102)" stroke-width="1" font-size="16" >CH</text>
<text x="312.463343" y="332.654466" fill="rgb(102,102,102)"  stroke="rgb(102,102,102)" stroke-width="1" font-size="13" >3</text>
<text x="137.549835" y="413.853128" fill="rgb(255,12,12)"  stroke="rgb(255,12,12)" stroke-width="1" font-size="16" >O</text>
<text font-size="18.000000" fill ="black" font-family="sans-serif"
x="10.000000" y="20.000000" ></text>
<title> - OBDepict</title>
</svg>
