<?xml version="1.0"?>
<svg xmlns="http://www.w3.org/2000/svg"
xmlns:xlink="http://www.w3.org/1999/xlink" xmlns:cml="http://www.xml-cml.org/schema" width="327.871" height="519.782" x="0" y="0" font-family="sans-serif" stroke="rgb(0,0,0)" stroke-width="1"  stroke-linecap="round">
<rect x="0%" y="0%" width="100%" height="100%" stroke-width="0" fill="rgb(255,255,255)"  />
<line x1="247.9" y1="439.8" x2="247.9" y2="399.8" stroke="rgb(0,0,0)"  stroke-width="1.0"/>
<line x1="213.3" y1="339.8" x2="189.8" y2="326.3" stroke="rgb(0,0,0)"  stroke-width="1.0"/>
<line x1="40.0" y1="80.0" x2="40.0" y2="119.8" stroke="rgb(0,0,0)"  stroke-width="1.0"/>
<line x1="40.0" y1="53.0" x2="40.0" y2="80.0" stroke="rgb(0,0,0)"  stroke-width="1.0"/>
<line x1="44.2" y1="53.0" x2="44.2" y2="80.0" stroke="rgb(0,0,0)"  stroke-width="1.0"/>
<line x1="35.8" y1="53.0" x2="35.8" y2="80.0" stroke="rgb(0,0,0)"  stroke-width="1.0"/>
<line x1="162.5" y1="341.6" x2="169.5" y2="329.5" stroke="rgb(0,0,0)"  stroke-width="1.0"/>
<line x1="167.7" y1="344.6" x2="174.7" y2="332.5" stroke="rgb(0,0,0)"  stroke-width="1.0"/>
<line x1="194.7" y1="297.8" x2="187.7" y2="310.0" stroke="rgb(0,0,0)"  stroke-width="1.0"/>
<line x1="189.5" y1="294.8" x2="182.5" y2="307.0" stroke="rgb(0,0,0)"  stroke-width="1.0"/>
<line x1="155.3" y1="306.3" x2="167.3" y2="313.3" stroke="rgb(0,0,0)"  stroke-width="1.0"/>
<line x1="74.7" y1="179.8" x2="109.3" y2="199.8" stroke="rgb(0,0,0)"  stroke-width="1.0"/>
<line x1="49.8" y1="190.7" x2="73.3" y2="177.2" stroke="rgb(0,0,0)"  stroke-width="1.0"/>
<line x1="52.8" y1="195.9" x2="76.2" y2="182.4" stroke="rgb(0,0,0)"  stroke-width="1.0"/>
<line x1="247.9" y1="466.8" x2="247.9" y2="439.8" stroke="rgb(0,0,0)"  stroke-width="1.0"/>
<line x1="274.9" y1="439.8" x2="247.9" y2="439.8" stroke="rgb(0,0,0)"  stroke-width="1.0"/>
<line x1="220.9" y1="439.8" x2="247.9" y2="439.8" stroke="rgb(0,0,0)"  stroke-width="1.0"/>
<line x1="74.7" y1="152.8" x2="74.7" y2="179.8" stroke="rgb(0,0,0)"  stroke-width="1.0"/>
<line x1="40.0" y1="119.8" x2="63.5" y2="133.3" stroke="rgb(0,0,0)"  stroke-width="1.0"/>
<line x1="109.3" y1="199.8" x2="109.3" y2="239.8" stroke="rgb(0,0,0)"  stroke-width="1.0"/>
<line x1="144.0" y1="259.8" x2="144.0" y2="286.8" stroke="rgb(0,0,0)"  stroke-width="1.0"/>
<line x1="109.3" y1="239.8" x2="144.0" y2="259.8" stroke="rgb(0,0,0)"  stroke-width="1.0"/>
<line x1="213.3" y1="339.8" x2="247.9" y2="319.8" stroke="rgb(0,0,0)"  stroke-width="1.0"/>
<line x1="222.1" y1="343.0" x2="246.3" y2="329.0" stroke="rgb(0,0,0)"  stroke-width="1.0"/>
<line x1="247.9" y1="319.8" x2="282.6" y2="339.8" stroke="rgb(0,0,0)"  stroke-width="1.0"/>
<line x1="282.6" y1="339.8" x2="282.6" y2="379.8" stroke="rgb(0,0,0)"  stroke-width="1.0"/>
<line x1="275.4" y1="345.8" x2="275.4" y2="373.8" stroke="rgb(0,0,0)"  stroke-width="1.0"/>
<line x1="282.6" y1="379.8" x2="247.9" y2="399.8" stroke="rgb(0,0,0)"  stroke-width="1.0"/>
<line x1="247.9" y1="399.8" x2="213.3" y2="379.8" stroke="rgb(0,0,0)"  stroke-width="1.0"/>
<line x1="246.3" y1="390.5" x2="222.1" y2="376.6" stroke="rgb(0,0,0)"  stroke-width="1.0"/>
<line x1="213.3" y1="379.8" x2="213.3" y2="339.8" stroke="rgb(0,0,0)"  stroke-width="1.0"/>
<text x="172.579764" y="327.787322" fill="rgb(178,178,0)"  stroke="rgb(178,178,0)" stroke-width="1" font-size="16" >S</text>
<text x="34.000000" y="48.000000" fill="rgb(102,102,102)"  stroke="rgb(102,102,102)" stroke-width="1" font-size="16" >CH</text>
<text x="152.580410" y="362.331660" fill="rgb(255,12,12)"  stroke="rgb(255,12,12)" stroke-width="1" font-size="16" >O</text>
<text x="192.579118" y="293.044202" fill="rgb(255,12,12)"  stroke="rgb(255,12,12)" stroke-width="1" font-size="16" >O</text>
<text x="126.035426" y="307.787968" fill="rgb(12,12,255)"  stroke="rgb(12,12,255)" stroke-width="1" font-size="16" >HN</text>
<text x="34.000000" y="207.791200" fill="rgb(255,12,12)"  stroke="rgb(255,12,12)" stroke-width="1" font-size="16" >O</text>
<text x="241.872070" y="487.782151" fill="rgb(127,178,255)"  stroke="rgb(127,178,255)" stroke-width="1" font-size="16" >F</text>
<text x="281.870777" y="447.783444" fill="rgb(127,178,255)"  stroke="rgb(127,178,255)" stroke-width="1" font-size="16" >F</text>
<text x="201.873363" y="447.783444" fill="rgb(127,178,255)"  stroke="rgb(127,178,255)" stroke-width="1" font-size="16" >F</text>
<text x="68.747968" y="147.793139" fill="rgb(12,12,255)"  stroke="rgb(12,12,255)" stroke-width="1" font-size="16" >NH</text>
<text font-size="18.000000" fill ="black" font-family="sans-serif"
x="10.000000" y="20.000000" ></text>
<title> - OBDepict</title>
</svg>
