<?xml version="1.0"?>
<svg xmlns="http://www.w3.org/2000/svg"
xmlns:xlink="http://www.w3.org/1999/xlink" xmlns:cml="http://www.xml-cml.org/schema" width="432.944" height="312.189" x="0" y="0" font-family="sans-serif" stroke="rgb(0,0,0)" stroke-width="1"  stroke-linecap="round">
<rect x="0%" y="0%" width="100%" height="100%" stroke-width="0" fill="rgb(255,255,255)"  />
<line x1="171.7" y1="158.3" x2="150.1" y2="174.3" stroke="rgb(0,0,0)"  stroke-width="1.0"/>
<line x1="283.5" y1="133.9" x2="299.2" y2="111.9" stroke="rgb(0,0,0)"  stroke-width="1.0"/>
<line x1="150.1" y1="174.3" x2="113.4" y2="158.5" stroke="rgb(0,0,0)"  stroke-width="1.0"/>
<line x1="276.8" y1="202.7" x2="293.5" y2="239.2" stroke="rgb(0,0,0)"  stroke-width="1.0"/>
<line x1="319.6" y1="102.5" x2="346.4" y2="105.1" stroke="rgb(0,0,0)"  stroke-width="1.0"/>
<line x1="293.5" y1="239.2" x2="316.9" y2="225.9" stroke="rgb(0,0,0)"  stroke-width="1.0"/>
<line x1="293.5" y1="239.2" x2="272.6" y2="256.4" stroke="rgb(0,0,0)"  stroke-width="1.0"/>
<line x1="293.5" y1="239.2" x2="308.8" y2="261.5" stroke="rgb(0,0,0)"  stroke-width="1.0"/>
<line x1="346.4" y1="105.1" x2="369.7" y2="72.5" stroke="rgb(0,0,0)"  stroke-width="1.0"/>
<line x1="369.7" y1="72.5" x2="385.4" y2="50.6" stroke="rgb(0,0,0)"  stroke-width="1.0"/>
<line x1="366.3" y1="70.1" x2="382.0" y2="48.1" stroke="rgb(0,0,0)"  stroke-width="1.0"/>
<line x1="373.2" y1="75.0" x2="388.8" y2="53.0" stroke="rgb(0,0,0)"  stroke-width="1.0"/>
<line x1="220.4" y1="162.5" x2="243.6" y2="130.0" stroke="rgb(0,0,0)"  stroke-width="1.0"/>
<line x1="243.6" y1="130.0" x2="227.6" y2="108.3" stroke="rgb(0,0,0)"  stroke-width="1.0"/>
<line x1="207.3" y1="102.1" x2="194.4" y2="106.4" stroke="rgb(0,0,0)"  stroke-width="1.0"/>
<line x1="207.7" y1="109.6" x2="198.6" y2="112.6" stroke="rgb(0,0,0)"  stroke-width="1.0"/>
<line x1="182.0" y1="123.6" x2="182.1" y2="137.5" stroke="rgb(0,0,0)"  stroke-width="1.0"/>
<line x1="194.6" y1="154.4" x2="220.4" y2="162.5" stroke="rgb(0,0,0)"  stroke-width="1.0"/>
<line x1="220.4" y1="162.5" x2="231.5" y2="186.9" stroke="rgb(0,0,0)"  stroke-width="1.0"/>
<line x1="229.5" y1="165.0" x2="237.3" y2="182.1" stroke="rgb(0,0,0)"  stroke-width="1.0"/>
<line x1="249.9" y1="200.2" x2="276.8" y2="202.7" stroke="rgb(0,0,0)"  stroke-width="1.0"/>
<line x1="276.8" y1="202.7" x2="292.4" y2="181.0" stroke="rgb(0,0,0)"  stroke-width="1.0"/>
<line x1="274.4" y1="193.6" x2="285.3" y2="178.4" stroke="rgb(0,0,0)"  stroke-width="1.0"/>
<line x1="294.7" y1="158.4" x2="283.5" y2="133.9" stroke="rgb(0,0,0)"  stroke-width="1.0"/>
<line x1="283.5" y1="133.9" x2="243.6" y2="130.0" stroke="rgb(0,0,0)"  stroke-width="1.0"/>
<line x1="276.8" y1="140.5" x2="248.9" y2="137.8" stroke="rgb(0,0,0)"  stroke-width="1.0"/>
<line x1="113.4" y1="158.5" x2="81.1" y2="182.3" stroke="rgb(0,0,0)"  stroke-width="1.0"/>
<line x1="81.1" y1="182.3" x2="44.5" y2="166.2" stroke="rgb(0,0,0)"  stroke-width="1.0"/>
<line x1="78.5" y1="173.3" x2="52.8" y2="162.0" stroke="rgb(0,0,0)"  stroke-width="1.0"/>
<line x1="44.5" y1="166.2" x2="40.0" y2="126.5" stroke="rgb(0,0,0)"  stroke-width="1.0"/>
<line x1="40.0" y1="126.5" x2="72.1" y2="102.7" stroke="rgb(0,0,0)"  stroke-width="1.0"/>
<line x1="49.1" y1="128.7" x2="71.6" y2="112.0" stroke="rgb(0,0,0)"  stroke-width="1.0"/>
<line x1="72.1" y1="102.7" x2="108.8" y2="118.7" stroke="rgb(0,0,0)"  stroke-width="1.0"/>
<line x1="108.8" y1="118.7" x2="113.4" y2="158.5" stroke="rgb(0,0,0)"  stroke-width="1.0"/>
<line x1="102.3" y1="125.5" x2="105.5" y2="153.3" stroke="rgb(0,0,0)"  stroke-width="1.0"/>
<text x="176.166296" y="158.545221" fill="rgb(12,12,255)"  stroke="rgb(12,12,255)" stroke-width="1" font-size="16" >N</text>
<text x="230.992651" y="206.925126" fill="rgb(12,12,255)"  stroke="rgb(12,12,255)" stroke-width="1" font-size="16" >N</text>
<text x="213.845772" y="105.901637" fill="rgb(12,12,255)"  stroke="rgb(12,12,255)" stroke-width="1" font-size="16" >N</text>
<text x="175.870409" y="118.590812" fill="rgb(12,12,255)"  stroke="rgb(12,12,255)" stroke-width="1" font-size="16" >N</text>
<text x="294.045627" y="178.272619" fill="rgb(12,12,255)"  stroke="rgb(12,12,255)" stroke-width="1" font-size="16" >N</text>
<text x="300.690951" y="109.267955" fill="rgb(12,12,255)"  stroke="rgb(12,12,255)" stroke-width="1" font-size="16" >N</text>
<text x="300.690951" y="93.267955" fill="rgb(12,12,255)"  stroke="rgb(12,12,255)" stroke-width="1" font-size="16" >H</text>
<text x="324.203372" y="227.545035" fill="rgb(102,102,102)"  stroke="rgb(102,102,102)" stroke-width="1" font-size="16" >CH</text>
<text x="348.203372" y="231.225035" fill="rgb(102,102,102)"  stroke="rgb(102,102,102)" stroke-width="1" font-size="13" >3</text>
<text x="236.574726" y="272.655634" fill="rgb(102,102,102)"  stroke="rgb(102,102,102)" stroke-width="1" font-size="16" >H</text>
<text x="248.574726" y="276.335634" fill="rgb(102,102,102)"  stroke="rgb(102,102,102)" stroke-width="1" font-size="13" >3</text>
<text x="255.074726" y="272.655634" fill="rgb(102,102,102)"  stroke="rgb(102,102,102)" stroke-width="1" font-size="16" >C</text>
<text x="312.105970" y="280.188619" fill="rgb(102,102,102)"  stroke="rgb(102,102,102)" stroke-width="1" font-size="16" >CH</text>
<text x="336.105970" y="283.868619" fill="rgb(102,102,102)"  stroke="rgb(102,102,102)" stroke-width="1" font-size="13" >3</text>
<text x="386.944357" y="48.000000" fill="rgb(102,102,102)"  stroke="rgb(102,102,102)" stroke-width="1" font-size="16" >CH</text>
<text font-size="18.000000" fill ="black" font-family="sans-serif"
x="10.000000" y="20.000000" ></text>
<title> - OBDepict</title>
</svg>
