<?xml version="1.0"?>
<svg xmlns="http://www.w3.org/2000/svg"
xmlns:xlink="http://www.w3.org/1999/xlink" xmlns:cml="http://www.xml-cml.org/schema" width="311.175" height="291.508" x="0" y="0" font-family="sans-serif" stroke="rgb(0,0,0)" stroke-width="1"  stroke-linecap="round">
<rect x="0%" y="0%" width="100%" height="100%" stroke-width="0" fill="rgb(255,255,255)"  />
<line x1="109.5" y1="192.3" x2="169.5" y2="156.3" stroke="rgb(0,0,0)"  stroke-width="1.0"/>
<line x1="40.0" y1="76.3" x2="40.7" y2="115.3" stroke="rgb(0,0,0)"  stroke-width="1.0"/>
<line x1="62.1" y1="62.9" x2="40.0" y2="76.3" stroke="rgb(0,0,0)"  stroke-width="1.0"/>
<line x1="64.2" y1="66.5" x2="42.2" y2="79.9" stroke="rgb(0,0,0)"  stroke-width="1.0"/>
<line x1="59.9" y1="59.3" x2="37.8" y2="72.7" stroke="rgb(0,0,0)"  stroke-width="1.0"/>
<line x1="179.5" y1="224.9" x2="202.1" y2="211.4" stroke="rgb(0,0,0)"  stroke-width="1.0"/>
<line x1="182.5" y1="230.1" x2="205.2" y2="216.6" stroke="rgb(0,0,0)"  stroke-width="1.0"/>
<line x1="110.8" y1="109.3" x2="133.5" y2="95.9" stroke="rgb(0,0,0)"  stroke-width="1.0"/>
<line x1="113.9" y1="114.5" x2="136.5" y2="101.1" stroke="rgb(0,0,0)"  stroke-width="1.0"/>
<line x1="74.8" y1="147.2" x2="75.0" y2="173.2" stroke="rgb(0,0,0)"  stroke-width="1.0"/>
<line x1="40.7" y1="115.3" x2="63.3" y2="127.9" stroke="rgb(0,0,0)"  stroke-width="1.0"/>
<line x1="169.2" y1="117.7" x2="169.5" y2="156.3" stroke="rgb(0,0,0)"  stroke-width="1.0"/>
<line x1="169.5" y1="156.3" x2="203.7" y2="175.5" stroke="rgb(0,0,0)"  stroke-width="1.0"/>
<line x1="203.7" y1="175.5" x2="236.8" y2="155.7" stroke="rgb(0,0,0)"  stroke-width="1.0"/>
<line x1="205.1" y1="166.2" x2="228.0" y2="152.6" stroke="rgb(0,0,0)"  stroke-width="1.0"/>
<line x1="236.8" y1="155.7" x2="236.4" y2="129.7" stroke="rgb(0,0,0)"  stroke-width="1.0"/>
<line x1="224.8" y1="110.3" x2="202.3" y2="97.8" stroke="rgb(0,0,0)"  stroke-width="1.0"/>
<line x1="202.3" y1="97.8" x2="169.2" y2="117.7" stroke="rgb(0,0,0)"  stroke-width="1.0"/>
<line x1="200.9" y1="107.1" x2="178.0" y2="120.8" stroke="rgb(0,0,0)"  stroke-width="1.0"/>
<line x1="270.5" y1="174.5" x2="236.8" y2="155.7" stroke="rgb(0,0,0)"  stroke-width="1.0"/>
<line x1="203.7" y1="175.5" x2="203.7" y2="214.0" stroke="rgb(0,0,0)"  stroke-width="1.0"/>
<line x1="203.7" y1="214.0" x2="238.0" y2="233.3" stroke="rgb(0,0,0)"  stroke-width="1.0"/>
<line x1="238.0" y1="233.3" x2="271.2" y2="213.3" stroke="rgb(0,0,0)"  stroke-width="1.0"/>
<line x1="271.2" y1="213.3" x2="270.5" y2="174.5" stroke="rgb(0,0,0)"  stroke-width="1.0"/>
<line x1="202.3" y1="97.8" x2="201.7" y2="58.8" stroke="rgb(0,0,0)"  stroke-width="1.0"/>
<line x1="201.7" y1="58.8" x2="168.0" y2="40.0" stroke="rgb(0,0,0)"  stroke-width="1.0"/>
<line x1="168.0" y1="40.0" x2="134.8" y2="59.8" stroke="rgb(0,0,0)"  stroke-width="1.0"/>
<line x1="134.8" y1="59.8" x2="135.0" y2="98.5" stroke="rgb(0,0,0)"  stroke-width="1.0"/>
<line x1="135.0" y1="98.5" x2="169.2" y2="117.7" stroke="rgb(0,0,0)"  stroke-width="1.0"/>
<line x1="109.5" y1="192.3" x2="75.0" y2="173.2" stroke="rgb(0,0,0)"  stroke-width="1.0"/>
<line x1="75.0" y1="173.2" x2="41.5" y2="193.3" stroke="rgb(0,0,0)"  stroke-width="1.0"/>
<line x1="73.6" y1="182.4" x2="50.4" y2="196.4" stroke="rgb(0,0,0)"  stroke-width="1.0"/>
<line x1="41.5" y1="193.3" x2="42.2" y2="232.2" stroke="rgb(0,0,0)"  stroke-width="1.0"/>
<line x1="42.2" y1="232.2" x2="76.3" y2="251.5" stroke="rgb(0,0,0)"  stroke-width="1.0"/>
<line x1="50.9" y1="228.9" x2="74.7" y2="242.3" stroke="rgb(0,0,0)"  stroke-width="1.0"/>
<line x1="76.3" y1="251.5" x2="109.7" y2="231.3" stroke="rgb(0,0,0)"  stroke-width="1.0"/>
<line x1="109.7" y1="231.3" x2="109.5" y2="192.3" stroke="rgb(0,0,0)"  stroke-width="1.0"/>
<line x1="102.4" y1="225.4" x2="102.3" y2="198.4" stroke="rgb(0,0,0)"  stroke-width="1.0"/>
<text x="230.174174" y="124.665932" fill="rgb(255,12,12)"  stroke="rgb(255,12,12)" stroke-width="1" font-size="16" >O</text>
<text x="67.169000" y="64.167710" fill="rgb(102,102,102)"  stroke="rgb(102,102,102)" stroke-width="1" font-size="16" >CH</text>
<text x="163.836174" y="242.172637" fill="rgb(255,12,12)"  stroke="rgb(255,12,12)" stroke-width="1" font-size="16" >O</text>
<text x="95.166971" y="126.502636" fill="rgb(255,12,12)"  stroke="rgb(255,12,12)" stroke-width="1" font-size="16" >O</text>
<text x="68.666621" y="142.166429" fill="rgb(255,12,12)"  stroke="rgb(255,12,12)" stroke-width="1" font-size="16" >O</text>
<text font-size="18.000000" fill ="black" font-family="sans-serif"
x="10.000000" y="20.000000" ></text>
<title> - OBDepict</title>
</svg>
