<?xml version="1.0"?>
<svg xmlns="http://www.w3.org/2000/svg"
xmlns:xlink="http://www.w3.org/1999/xlink" xmlns:cml="http://www.xml-cml.org/schema" width="330.915" height="255.873" x="0" y="0" font-family="sans-serif" stroke="rgb(0,0,0)" stroke-width="1"  stroke-linecap="round">
<rect x="0%" y="0%" width="100%" height="100%" stroke-width="0" fill="rgb(255,255,255)"  />
<line x1="171.1" y1="79.6" x2="211.2" y2="79.1" stroke="rgb(0,0,0)"  stroke-width="1.0"/>
<line x1="154.2" y1="123.4" x2="167.8" y2="146.5" stroke="rgb(0,0,0)"  stroke-width="1.0"/>
<line x1="167.8" y1="146.5" x2="147.8" y2="181.3" stroke="rgb(0,0,0)"  stroke-width="1.0"/>
<line x1="231.5" y1="113.7" x2="218.3" y2="137.2" stroke="rgb(0,0,0)"  stroke-width="1.0"/>
<line x1="147.8" y1="181.3" x2="161.3" y2="204.6" stroke="rgb(0,0,0)"  stroke-width="1.0"/>
<line x1="151.5" y1="179.2" x2="164.9" y2="202.5" stroke="rgb(0,0,0)"  stroke-width="1.0"/>
<line x1="144.2" y1="183.4" x2="157.7" y2="206.7" stroke="rgb(0,0,0)"  stroke-width="1.0"/>
<line x1="171.1" y1="79.6" x2="155.3" y2="101.7" stroke="rgb(0,0,0)"  stroke-width="1.0"/>
<line x1="135.3" y1="108.3" x2="109.4" y2="100.2" stroke="rgb(0,0,0)"  stroke-width="1.0"/>
<line x1="109.4" y1="100.2" x2="109.1" y2="60.1" stroke="rgb(0,0,0)"  stroke-width="1.0"/>
<line x1="109.1" y1="60.1" x2="134.7" y2="51.4" stroke="rgb(0,0,0)"  stroke-width="1.0"/>
<line x1="155.0" y1="57.9" x2="171.1" y2="79.6" stroke="rgb(0,0,0)"  stroke-width="1.0"/>
<line x1="150.3" y1="63.7" x2="161.8" y2="79.1" stroke="rgb(0,0,0)"  stroke-width="1.0"/>
<line x1="74.6" y1="120.2" x2="109.4" y2="100.2" stroke="rgb(0,0,0)"  stroke-width="1.0"/>
<line x1="76.2" y1="111.0" x2="100.6" y2="97.0" stroke="rgb(0,0,0)"  stroke-width="1.0"/>
<line x1="109.1" y1="60.1" x2="74.6" y2="40.0" stroke="rgb(0,0,0)"  stroke-width="1.0"/>
<line x1="100.2" y1="63.3" x2="76.2" y2="49.2" stroke="rgb(0,0,0)"  stroke-width="1.0"/>
<line x1="74.6" y1="40.0" x2="40.0" y2="60.1" stroke="rgb(0,0,0)"  stroke-width="1.0"/>
<line x1="40.0" y1="60.1" x2="40.0" y2="100.1" stroke="rgb(0,0,0)"  stroke-width="1.0"/>
<line x1="47.2" y1="66.1" x2="47.2" y2="94.1" stroke="rgb(0,0,0)"  stroke-width="1.0"/>
<line x1="40.0" y1="100.1" x2="74.6" y2="120.2" stroke="rgb(0,0,0)"  stroke-width="1.0"/>
<line x1="211.2" y1="79.1" x2="230.7" y2="44.7" stroke="rgb(0,0,0)"  stroke-width="1.0"/>
<line x1="230.7" y1="44.7" x2="270.6" y2="44.2" stroke="rgb(0,0,0)"  stroke-width="1.0"/>
<line x1="236.8" y1="51.8" x2="264.7" y2="51.4" stroke="rgb(0,0,0)"  stroke-width="1.0"/>
<line x1="270.6" y1="44.2" x2="290.9" y2="78.8" stroke="rgb(0,0,0)"  stroke-width="1.0"/>
<line x1="290.9" y1="78.8" x2="271.5" y2="113.2" stroke="rgb(0,0,0)"  stroke-width="1.0"/>
<line x1="281.7" y1="80.5" x2="268.1" y2="104.4" stroke="rgb(0,0,0)"  stroke-width="1.0"/>
<line x1="271.5" y1="113.2" x2="231.5" y2="113.7" stroke="rgb(0,0,0)"  stroke-width="1.0"/>
<line x1="231.5" y1="113.7" x2="211.2" y2="79.1" stroke="rgb(0,0,0)"  stroke-width="1.0"/>
<line x1="234.7" y1="104.9" x2="220.5" y2="80.6" stroke="rgb(0,0,0)"  stroke-width="1.0"/>
<text x="141.659120" y="120.212812" fill="rgb(12,12,255)"  stroke="rgb(12,12,255)" stroke-width="1" font-size="16" >N</text>
<text x="140.994168" y="55.154301" fill="rgb(12,12,255)"  stroke="rgb(12,12,255)" stroke-width="1" font-size="16" >N</text>
<text x="193.882801" y="156.484243" fill="rgb(30,239,30)"  stroke="rgb(30,239,30)" stroke-width="1" font-size="16" >Cl</text>
<text x="161.787264" y="223.872513" fill="rgb(102,102,102)"  stroke="rgb(102,102,102)" stroke-width="1" font-size="16" >CH</text>
<text font-size="18.000000" fill ="black" font-family="sans-serif"
x="10.000000" y="20.000000" ></text>
<title> - OBDepict</title>
</svg>
