<?xml version="1.0"?>
<svg xmlns="http://www.w3.org/2000/svg"
xmlns:xlink="http://www.w3.org/1999/xlink" xmlns:cml="http://www.xml-cml.org/schema" width="352.447" height="332.474" x="0" y="0" font-family="sans-serif" stroke="rgb(0,0,0)" stroke-width="1"  stroke-linecap="round">
<rect x="0%" y="0%" width="100%" height="100%" stroke-width="0" fill="rgb(255,255,255)"  />
<line x1="179.7" y1="129.5" x2="152.5" y2="133.4" stroke="rgb(0,0,0)"  stroke-width="1.0"/>
<line x1="200.5" y1="137.9" x2="217.4" y2="159.6" stroke="rgb(0,0,0)"  stroke-width="1.0"/>
<line x1="197.5" y1="115.6" x2="207.7" y2="90.3" stroke="rgb(0,0,0)"  stroke-width="1.0"/>
<line x1="152.5" y1="133.4" x2="127.5" y2="101.3" stroke="rgb(0,0,0)"  stroke-width="1.0"/>
<line x1="152.5" y1="133.4" x2="137.3" y2="170.7" stroke="rgb(0,0,0)"  stroke-width="1.0"/>
<line x1="207.7" y1="90.3" x2="247.7" y2="84.6" stroke="rgb(0,0,0)"  stroke-width="1.0"/>
<line x1="205.4" y1="92.1" x2="188.4" y2="70.4" stroke="rgb(0,0,0)"  stroke-width="1.0"/>
<line x1="210.1" y1="88.4" x2="193.2" y2="66.7" stroke="rgb(0,0,0)"  stroke-width="1.0"/>
<line x1="137.3" y1="170.7" x2="110.1" y2="174.7" stroke="rgb(0,0,0)"  stroke-width="1.0"/>
<line x1="139.6" y1="168.9" x2="149.1" y2="180.8" stroke="rgb(0,0,0)"  stroke-width="1.0"/>
<line x1="134.9" y1="172.6" x2="144.3" y2="184.5" stroke="rgb(0,0,0)"  stroke-width="1.0"/>
<line x1="257.4" y1="153.9" x2="267.7" y2="128.5" stroke="rgb(0,0,0)"  stroke-width="1.0"/>
<line x1="247.7" y1="84.6" x2="274.7" y2="80.9" stroke="rgb(0,0,0)"  stroke-width="1.0"/>
<line x1="247.1" y1="80.4" x2="274.1" y2="76.7" stroke="rgb(0,0,0)"  stroke-width="1.0"/>
<line x1="248.3" y1="88.8" x2="275.2" y2="85.1" stroke="rgb(0,0,0)"  stroke-width="1.0"/>
<line x1="92.3" y1="188.5" x2="82.1" y2="213.7" stroke="rgb(0,0,0)"  stroke-width="1.0"/>
<line x1="285.5" y1="114.7" x2="299.6" y2="112.7" stroke="rgb(0,0,0)"  stroke-width="1.0"/>
<line x1="267.0" y1="223.2" x2="283.9" y2="244.8" stroke="rgb(0,0,0)"  stroke-width="1.0"/>
<line x1="287.0" y1="267.1" x2="281.6" y2="280.4" stroke="rgb(0,0,0)"  stroke-width="1.0"/>
<line x1="127.5" y1="101.3" x2="138.7" y2="62.6" stroke="rgb(0,0,0)"  stroke-width="1.0"/>
<line x1="122.3" y1="93.6" x2="130.1" y2="66.4" stroke="rgb(0,0,0)"  stroke-width="1.0"/>
<line x1="138.7" y1="62.6" x2="105.3" y2="40.0" stroke="rgb(0,0,0)"  stroke-width="1.0"/>
<line x1="105.3" y1="40.0" x2="73.4" y2="65.0" stroke="rgb(0,0,0)"  stroke-width="1.0"/>
<line x1="105.0" y1="49.4" x2="82.5" y2="67.0" stroke="rgb(0,0,0)"  stroke-width="1.0"/>
<line x1="73.4" y1="65.0" x2="82.7" y2="90.8" stroke="rgb(0,0,0)"  stroke-width="1.0"/>
<line x1="100.1" y1="102.5" x2="127.5" y2="101.3" stroke="rgb(0,0,0)"  stroke-width="1.0"/>
<line x1="82.1" y1="213.7" x2="103.6" y2="248.0" stroke="rgb(0,0,0)"  stroke-width="1.0"/>
<line x1="103.6" y1="248.0" x2="77.6" y2="279.0" stroke="rgb(0,0,0)"  stroke-width="1.0"/>
<line x1="77.6" y1="279.0" x2="40.0" y2="263.6" stroke="rgb(0,0,0)"  stroke-width="1.0"/>
<line x1="40.0" y1="263.6" x2="42.9" y2="223.4" stroke="rgb(0,0,0)"  stroke-width="1.0"/>
<line x1="42.9" y1="223.4" x2="82.1" y2="213.7" stroke="rgb(0,0,0)"  stroke-width="1.0"/>
<line x1="217.4" y1="159.6" x2="202.2" y2="196.9" stroke="rgb(0,0,0)"  stroke-width="1.0"/>
<line x1="202.2" y1="196.9" x2="227.1" y2="228.8" stroke="rgb(0,0,0)"  stroke-width="1.0"/>
<line x1="211.6" y1="197.2" x2="229.1" y2="219.7" stroke="rgb(0,0,0)"  stroke-width="1.0"/>
<line x1="227.1" y1="228.8" x2="267.0" y2="223.2" stroke="rgb(0,0,0)"  stroke-width="1.0"/>
<line x1="267.0" y1="223.2" x2="282.2" y2="185.9" stroke="rgb(0,0,0)"  stroke-width="1.0"/>
<line x1="262.6" y1="214.9" x2="273.2" y2="188.7" stroke="rgb(0,0,0)"  stroke-width="1.0"/>
<line x1="282.2" y1="185.9" x2="257.4" y2="153.9" stroke="rgb(0,0,0)"  stroke-width="1.0"/>
<line x1="257.4" y1="153.9" x2="217.4" y2="159.6" stroke="rgb(0,0,0)"  stroke-width="1.0"/>
<line x1="252.5" y1="161.9" x2="224.3" y2="165.9" stroke="rgb(0,0,0)"  stroke-width="1.0"/>
<text x="186.579541" y="135.625608" fill="rgb(12,12,255)"  stroke="rgb(12,12,255)" stroke-width="1" font-size="16" >N</text>
<text x="176.818329" y="66.307782" fill="rgb(255,12,12)"  stroke="rgb(255,12,12)" stroke-width="1" font-size="16" >O</text>
<text x="81.111437" y="111.004629" fill="rgb(178,178,0)"  stroke="rgb(178,178,0)" stroke-width="1" font-size="16" >S</text>
<text x="91.235082" y="184.505132" fill="rgb(12,12,255)"  stroke="rgb(12,12,255)" stroke-width="1" font-size="16" >N</text>
<text x="91.235082" y="168.505132" fill="rgb(12,12,255)"  stroke="rgb(12,12,255)" stroke-width="1" font-size="16" >H</text>
<text x="148.759131" y="200.858712" fill="rgb(255,12,12)"  stroke="rgb(255,12,12)" stroke-width="1" font-size="16" >O</text>
<text x="266.584253" y="124.478334" fill="rgb(255,12,12)"  stroke="rgb(255,12,12)" stroke-width="1" font-size="16" >O</text>
<text x="281.541975" y="87.123210" fill="rgb(102,102,102)"  stroke="rgb(102,102,102)" stroke-width="1" font-size="16" >CH</text>
<text x="308.447023" y="118.904697" fill="rgb(102,102,102)"  stroke="rgb(102,102,102)" stroke-width="1" font-size="16" >CH</text>
<text x="332.447023" y="122.584697" fill="rgb(102,102,102)"  stroke="rgb(102,102,102)" stroke-width="1" font-size="13" >3</text>
<text x="285.910766" y="263.025827" fill="rgb(255,12,12)"  stroke="rgb(255,12,12)" stroke-width="1" font-size="16" >O</text>
<text x="250.766930" y="300.474007" fill="rgb(102,102,102)"  stroke="rgb(102,102,102)" stroke-width="1" font-size="16" >H</text>
<text x="262.766930" y="304.154007" fill="rgb(102,102,102)"  stroke="rgb(102,102,102)" stroke-width="1" font-size="13" >3</text>
<text x="269.266930" y="300.474007" fill="rgb(102,102,102)"  stroke="rgb(102,102,102)" stroke-width="1" font-size="16" >C</text>
<text font-size="18.000000" fill ="black" font-family="sans-serif"
x="10.000000" y="20.000000" ></text>
<title> - OBDepict</title>
</svg>
