<?xml version="1.0"?>
<svg xmlns="http://www.w3.org/2000/svg"
xmlns:xlink="http://www.w3.org/1999/xlink" xmlns:cml="http://www.xml-cml.org/schema" width="495.808" height="319.89" x="0" y="0" font-family="sans-serif" stroke="rgb(0,0,0)" stroke-width="1"  stroke-linecap="round">
<rect x="0%" y="0%" width="100%" height="100%" stroke-width="0" fill="rgb(255,255,255)"  />
<line x1="167.3" y1="206.4" x2="144.0" y2="219.8" stroke="rgb(0,0,0)"  stroke-width="1.0"/>
<line x1="216.3" y1="219.8" x2="216.3" y2="246.8" stroke="rgb(0,0,0)"  stroke-width="1.0"/>
<line x1="210.3" y1="219.8" x2="210.3" y2="246.8" stroke="rgb(0,0,0)"  stroke-width="1.0"/>
<line x1="177.1" y1="162.5" x2="153.8" y2="148.9" stroke="rgb(0,0,0)"  stroke-width="1.0"/>
<line x1="180.1" y1="157.3" x2="156.8" y2="143.7" stroke="rgb(0,0,0)"  stroke-width="1.0"/>
<line x1="249.4" y1="197.3" x2="284.1" y2="217.2" stroke="rgb(0,0,0)"  stroke-width="1.0"/>
<line x1="246.4" y1="202.5" x2="281.2" y2="222.4" stroke="rgb(0,0,0)"  stroke-width="1.0"/>
<line x1="282.6" y1="219.8" x2="317.2" y2="199.9" stroke="rgb(0,0,0)"  stroke-width="1.0"/>
<line x1="246.4" y1="157.3" x2="269.9" y2="143.7" stroke="rgb(0,0,0)"  stroke-width="1.0"/>
<line x1="249.4" y1="162.5" x2="272.9" y2="148.9" stroke="rgb(0,0,0)"  stroke-width="1.0"/>
<line x1="74.7" y1="259.8" x2="51.3" y2="273.4" stroke="rgb(0,0,0)"  stroke-width="1.0"/>
<line x1="386.5" y1="159.9" x2="410.0" y2="146.3" stroke="rgb(0,0,0)"  stroke-width="1.0"/>
<line x1="421.2" y1="126.8" x2="421.2" y2="99.9" stroke="rgb(0,0,0)"  stroke-width="1.0"/>
<line x1="421.2" y1="99.9" x2="455.8" y2="79.9" stroke="rgb(0,0,0)"  stroke-width="1.0"/>
<line x1="455.8" y1="79.9" x2="455.8" y2="53.0" stroke="rgb(0,0,0)"  stroke-width="1.0"/>
<line x1="451.6" y1="79.9" x2="451.6" y2="53.0" stroke="rgb(0,0,0)"  stroke-width="1.0"/>
<line x1="460.0" y1="79.9" x2="460.0" y2="53.0" stroke="rgb(0,0,0)"  stroke-width="1.0"/>
<line x1="178.6" y1="186.9" x2="178.6" y2="159.9" stroke="rgb(0,0,0)"  stroke-width="1.0"/>
<line x1="178.6" y1="159.9" x2="202.1" y2="146.3" stroke="rgb(0,0,0)"  stroke-width="1.0"/>
<line x1="224.6" y1="146.3" x2="247.9" y2="159.9" stroke="rgb(0,0,0)"  stroke-width="1.0"/>
<line x1="247.9" y1="159.9" x2="247.9" y2="199.9" stroke="rgb(0,0,0)"  stroke-width="1.0"/>
<line x1="247.9" y1="199.9" x2="213.3" y2="219.8" stroke="rgb(0,0,0)"  stroke-width="1.0"/>
<line x1="213.3" y1="219.8" x2="189.9" y2="206.4" stroke="rgb(0,0,0)"  stroke-width="1.0"/>
<line x1="144.0" y1="219.8" x2="109.3" y2="199.9" stroke="rgb(0,0,0)"  stroke-width="1.0"/>
<line x1="109.3" y1="199.9" x2="74.7" y2="219.8" stroke="rgb(0,0,0)"  stroke-width="1.0"/>
<line x1="107.7" y1="209.2" x2="83.5" y2="223.0" stroke="rgb(0,0,0)"  stroke-width="1.0"/>
<line x1="74.7" y1="219.8" x2="74.7" y2="259.8" stroke="rgb(0,0,0)"  stroke-width="1.0"/>
<line x1="74.7" y1="259.8" x2="109.3" y2="279.9" stroke="rgb(0,0,0)"  stroke-width="1.0"/>
<line x1="83.5" y1="256.6" x2="107.7" y2="270.7" stroke="rgb(0,0,0)"  stroke-width="1.0"/>
<line x1="109.3" y1="279.9" x2="144.0" y2="259.8" stroke="rgb(0,0,0)"  stroke-width="1.0"/>
<line x1="144.0" y1="259.8" x2="144.0" y2="219.8" stroke="rgb(0,0,0)"  stroke-width="1.0"/>
<line x1="136.8" y1="253.8" x2="136.8" y2="225.8" stroke="rgb(0,0,0)"  stroke-width="1.0"/>
<line x1="317.2" y1="199.9" x2="351.9" y2="219.8" stroke="rgb(0,0,0)"  stroke-width="1.0"/>
<line x1="351.9" y1="219.8" x2="386.5" y2="199.9" stroke="rgb(0,0,0)"  stroke-width="1.0"/>
<line x1="353.6" y1="210.5" x2="377.7" y2="196.7" stroke="rgb(0,0,0)"  stroke-width="1.0"/>
<line x1="386.5" y1="199.9" x2="386.5" y2="159.9" stroke="rgb(0,0,0)"  stroke-width="1.0"/>
<line x1="386.5" y1="159.9" x2="351.9" y2="139.8" stroke="rgb(0,0,0)"  stroke-width="1.0"/>
<line x1="377.7" y1="163.1" x2="353.5" y2="149.1" stroke="rgb(0,0,0)"  stroke-width="1.0"/>
<line x1="351.9" y1="139.8" x2="317.2" y2="159.9" stroke="rgb(0,0,0)"  stroke-width="1.0"/>
<line x1="317.2" y1="159.9" x2="317.2" y2="199.9" stroke="rgb(0,0,0)"  stroke-width="1.0"/>
<line x1="324.4" y1="165.9" x2="324.4" y2="193.9" stroke="rgb(0,0,0)"  stroke-width="1.0"/>
<text x="172.600970" y="207.926807" fill="rgb(12,12,255)"  stroke="rgb(12,12,255)" stroke-width="1" font-size="16" >N</text>
<text x="207.342151" y="267.849646" fill="rgb(255,12,12)"  stroke="rgb(255,12,12)" stroke-width="1" font-size="16" >O</text>
<text x="207.342151" y="147.814814" fill="rgb(12,12,255)"  stroke="rgb(12,12,255)" stroke-width="1" font-size="16" >N</text>
<text x="207.342151" y="131.814814" fill="rgb(12,12,255)"  stroke="rgb(12,12,255)" stroke-width="1" font-size="16" >H</text>
<text x="138.044091" y="147.814814" fill="rgb(255,12,12)"  stroke="rgb(255,12,12)" stroke-width="1" font-size="16" >O</text>
<text x="276.645061" y="147.814814" fill="rgb(255,12,12)"  stroke="rgb(255,12,12)" stroke-width="1" font-size="16" >O</text>
<text x="22.000000" y="287.890211" fill="rgb(255,12,12)"  stroke="rgb(255,12,12)" stroke-width="1" font-size="16" >HO</text>
<text x="415.246030" y="147.814814" fill="rgb(255,12,12)"  stroke="rgb(255,12,12)" stroke-width="1" font-size="16" >O</text>
<text x="449.807759" y="48.000000" fill="rgb(102,102,102)"  stroke="rgb(102,102,102)" stroke-width="1" font-size="16" >CH</text>
<text font-size="18.000000" fill ="black" font-family="sans-serif"
x="10.000000" y="20.000000" ></text>
<title> - OBDepict</title>
</svg>
