<?xml version="1.0"?>
<svg xmlns="http://www.w3.org/2000/svg"
xmlns:xlink="http://www.w3.org/1999/xlink" xmlns:cml="http://www.xml-cml.org/schema" width="584.305" height="369.811" x="0" y="0" font-family="sans-serif" stroke="rgb(0,0,0)" stroke-width="1"  stroke-linecap="round">
<rect x="0%" y="0%" width="100%" height="100%" stroke-width="0" fill="rgb(255,255,255)"  />
<line x1="178.0" y1="150.0" x2="212.8" y2="130.0" stroke="rgb(0,0,0)"  stroke-width="1.0"/>
<line x1="383.0" y1="112.7" x2="343.2" y2="112.7" stroke="rgb(0,0,0)"  stroke-width="1.0"/>
<line x1="383.0" y1="106.7" x2="343.2" y2="106.7" stroke="rgb(0,0,0)"  stroke-width="1.0"/>
<line x1="154.7" y1="136.1" x2="178.0" y2="150.0" stroke="rgb(0,0,0)"  stroke-width="1.0"/>
<line x1="403.0" y1="144.2" x2="383.0" y2="109.7" stroke="rgb(0,0,0)"  stroke-width="1.0"/>
<line x1="524.0" y1="75.2" x2="504.0" y2="109.7" stroke="rgb(0,0,0)"  stroke-width="1.0"/>
<line x1="247.5" y1="190.0" x2="247.5" y2="150.0" stroke="rgb(0,0,0)"  stroke-width="1.0"/>
<line x1="537.8" y1="51.3" x2="524.0" y2="75.2" stroke="rgb(0,0,0)"  stroke-width="1.0"/>
<line x1="541.4" y1="53.4" x2="527.6" y2="77.3" stroke="rgb(0,0,0)"  stroke-width="1.0"/>
<line x1="534.2" y1="49.2" x2="520.3" y2="73.1" stroke="rgb(0,0,0)"  stroke-width="1.0"/>
<line x1="325.3" y1="168.9" x2="317.0" y2="143.3" stroke="rgb(0,0,0)"  stroke-width="1.0"/>
<line x1="331.0" y1="167.0" x2="322.7" y2="141.4" stroke="rgb(0,0,0)"  stroke-width="1.0"/>
<line x1="174.9" y1="176.8" x2="175.0" y2="150.0" stroke="rgb(0,0,0)"  stroke-width="1.0"/>
<line x1="180.9" y1="176.8" x2="181.0" y2="150.0" stroke="rgb(0,0,0)"  stroke-width="1.0"/>
<line x1="109.0" y1="149.5" x2="132.2" y2="136.0" stroke="rgb(0,0,0)"  stroke-width="1.0"/>
<line x1="189.2" y1="76.2" x2="212.8" y2="90.0" stroke="rgb(0,0,0)"  stroke-width="1.0"/>
<line x1="457.3" y1="120.2" x2="443.3" y2="144.2" stroke="rgb(0,0,0)"  stroke-width="1.0"/>
<line x1="504.0" y1="109.7" x2="476.8" y2="109.2" stroke="rgb(0,0,0)"  stroke-width="1.0"/>
<line x1="247.5" y1="296.8" x2="247.5" y2="269.8" stroke="rgb(0,0,0)"  stroke-width="1.0"/>
<line x1="224.2" y1="323.3" x2="236.2" y2="316.3" stroke="rgb(0,0,0)"  stroke-width="1.0"/>
<line x1="343.2" y1="109.7" x2="327.5" y2="88.0" stroke="rgb(0,0,0)"  stroke-width="1.0"/>
<line x1="307.5" y1="81.6" x2="282.0" y2="90.0" stroke="rgb(0,0,0)"  stroke-width="1.0"/>
<line x1="282.0" y1="90.0" x2="282.0" y2="117.0" stroke="rgb(0,0,0)"  stroke-width="1.0"/>
<line x1="294.3" y1="134.0" x2="319.8" y2="142.3" stroke="rgb(0,0,0)"  stroke-width="1.0"/>
<line x1="319.8" y1="142.3" x2="343.2" y2="109.7" stroke="rgb(0,0,0)"  stroke-width="1.0"/>
<line x1="282.0" y1="90.0" x2="258.9" y2="76.7" stroke="rgb(0,0,0)"  stroke-width="1.0"/>
<line x1="273.2" y1="93.2" x2="257.0" y2="84.0" stroke="rgb(0,0,0)"  stroke-width="1.0"/>
<line x1="236.2" y1="76.6" x2="212.8" y2="90.0" stroke="rgb(0,0,0)"  stroke-width="1.0"/>
<line x1="212.8" y1="90.0" x2="212.8" y2="130.0" stroke="rgb(0,0,0)"  stroke-width="1.0"/>
<line x1="220.0" y1="96.0" x2="220.0" y2="124.0" stroke="rgb(0,0,0)"  stroke-width="1.0"/>
<line x1="212.8" y1="130.0" x2="247.5" y2="150.0" stroke="rgb(0,0,0)"  stroke-width="1.0"/>
<line x1="247.5" y1="150.0" x2="270.7" y2="136.5" stroke="rgb(0,0,0)"  stroke-width="1.0"/>
<line x1="247.5" y1="190.0" x2="212.8" y2="210.0" stroke="rgb(0,0,0)"  stroke-width="1.0"/>
<line x1="245.9" y1="199.2" x2="221.6" y2="213.2" stroke="rgb(0,0,0)"  stroke-width="1.0"/>
<line x1="212.8" y1="210.0" x2="212.8" y2="250.0" stroke="rgb(0,0,0)"  stroke-width="1.0"/>
<line x1="212.8" y1="250.0" x2="247.5" y2="269.8" stroke="rgb(0,0,0)"  stroke-width="1.0"/>
<line x1="221.6" y1="246.7" x2="245.9" y2="260.6" stroke="rgb(0,0,0)"  stroke-width="1.0"/>
<line x1="247.5" y1="269.8" x2="282.0" y2="250.0" stroke="rgb(0,0,0)"  stroke-width="1.0"/>
<line x1="282.0" y1="250.0" x2="282.0" y2="210.0" stroke="rgb(0,0,0)"  stroke-width="1.0"/>
<line x1="274.8" y1="244.0" x2="274.8" y2="216.0" stroke="rgb(0,0,0)"  stroke-width="1.0"/>
<line x1="282.0" y1="210.0" x2="247.5" y2="190.0" stroke="rgb(0,0,0)"  stroke-width="1.0"/>
<line x1="403.0" y1="144.2" x2="443.3" y2="144.2" stroke="rgb(0,0,0)"  stroke-width="1.0"/>
<line x1="409.0" y1="151.4" x2="437.3" y2="151.4" stroke="rgb(0,0,0)"  stroke-width="1.0"/>
<line x1="443.3" y1="144.2" x2="463.3" y2="178.5" stroke="rgb(0,0,0)"  stroke-width="1.0"/>
<line x1="463.3" y1="178.5" x2="443.3" y2="213.0" stroke="rgb(0,0,0)"  stroke-width="1.0"/>
<line x1="454.1" y1="180.1" x2="440.1" y2="204.2" stroke="rgb(0,0,0)"  stroke-width="1.0"/>
<line x1="443.3" y1="213.0" x2="403.0" y2="213.0" stroke="rgb(0,0,0)"  stroke-width="1.0"/>
<line x1="403.0" y1="213.0" x2="383.0" y2="178.5" stroke="rgb(0,0,0)"  stroke-width="1.0"/>
<line x1="406.2" y1="204.2" x2="392.2" y2="180.1" stroke="rgb(0,0,0)"  stroke-width="1.0"/>
<line x1="383.0" y1="178.5" x2="403.0" y2="144.2" stroke="rgb(0,0,0)"  stroke-width="1.0"/>
<line x1="109.0" y1="149.5" x2="74.5" y2="129.5" stroke="rgb(0,0,0)"  stroke-width="1.0"/>
<line x1="100.2" y1="152.7" x2="76.1" y2="138.7" stroke="rgb(0,0,0)"  stroke-width="1.0"/>
<line x1="74.5" y1="129.5" x2="40.0" y2="149.5" stroke="rgb(0,0,0)"  stroke-width="1.0"/>
<line x1="40.0" y1="149.5" x2="40.0" y2="189.8" stroke="rgb(0,0,0)"  stroke-width="1.0"/>
<line x1="47.2" y1="155.5" x2="47.2" y2="183.8" stroke="rgb(0,0,0)"  stroke-width="1.0"/>
<line x1="40.0" y1="189.8" x2="74.5" y2="209.8" stroke="rgb(0,0,0)"  stroke-width="1.0"/>
<line x1="74.5" y1="209.8" x2="109.0" y2="189.8" stroke="rgb(0,0,0)"  stroke-width="1.0"/>
<line x1="76.1" y1="200.6" x2="100.2" y2="186.6" stroke="rgb(0,0,0)"  stroke-width="1.0"/>
<line x1="109.0" y1="189.8" x2="109.0" y2="149.5" stroke="rgb(0,0,0)"  stroke-width="1.0"/>
<text x="275.987622" y="137.993276" fill="rgb(12,12,255)"  stroke="rgb(12,12,255)" stroke-width="1" font-size="16" >N</text>
<text x="241.489876" y="78.165560" fill="rgb(12,12,255)"  stroke="rgb(12,12,255)" stroke-width="1" font-size="16" >N</text>
<text x="313.820423" y="85.498812" fill="rgb(178,178,0)"  stroke="rgb(178,178,0)" stroke-width="1" font-size="16" >S</text>
<text x="137.493236" y="137.494712" fill="rgb(12,12,255)"  stroke="rgb(12,12,255)" stroke-width="1" font-size="16" >N</text>
<text x="137.493236" y="121.494712" fill="rgb(12,12,255)"  stroke="rgb(12,12,255)" stroke-width="1" font-size="16" >H</text>
<text x="538.305050" y="48.000000" fill="rgb(102,102,102)"  stroke="rgb(102,102,102)" stroke-width="1" font-size="16" >CH</text>
<text x="326.148999" y="188.324068" fill="rgb(255,12,12)"  stroke="rgb(255,12,12)" stroke-width="1" font-size="16" >O</text>
<text x="171.826407" y="197.820992" fill="rgb(255,12,12)"  stroke="rgb(255,12,12)" stroke-width="1" font-size="16" >O</text>
<text x="151.990981" y="77.666996" fill="rgb(102,102,102)"  stroke="rgb(102,102,102)" stroke-width="1" font-size="16" >H</text>
<text x="163.990981" y="81.346996" fill="rgb(102,102,102)"  stroke="rgb(102,102,102)" stroke-width="1" font-size="13" >3</text>
<text x="170.490981" y="77.666996" fill="rgb(102,102,102)"  stroke="rgb(102,102,102)" stroke-width="1" font-size="16" >C</text>
<text x="457.808697" y="116.995491" fill="rgb(255,12,12)"  stroke="rgb(255,12,12)" stroke-width="1" font-size="16" >O</text>
<text x="241.489876" y="317.815254" fill="rgb(255,12,12)"  stroke="rgb(255,12,12)" stroke-width="1" font-size="16" >O</text>
<text x="186.992131" y="337.811071" fill="rgb(102,102,102)"  stroke="rgb(102,102,102)" stroke-width="1" font-size="16" >H</text>
<text x="198.992131" y="341.491071" fill="rgb(102,102,102)"  stroke="rgb(102,102,102)" stroke-width="1" font-size="13" >3</text>
<text x="205.492131" y="337.811071" fill="rgb(102,102,102)"  stroke="rgb(102,102,102)" stroke-width="1" font-size="16" >C</text>
<text font-size="18.000000" fill ="black" font-family="sans-serif"
x="10.000000" y="20.000000" ></text>
<title> - OBDepict</title>
</svg>
