<?xml version="1.0"?>
<svg xmlns="http://www.w3.org/2000/svg"
xmlns:xlink="http://www.w3.org/1999/xlink" xmlns:cml="http://www.xml-cml.org/schema" width="503.887" height="404.816" x="0" y="0" font-family="sans-serif" stroke="rgb(0,0,0)" stroke-width="1"  stroke-linecap="round">
<rect x="0%" y="0%" width="100%" height="100%" stroke-width="0" fill="rgb(255,255,255)"  />
<line x1="207.3" y1="242.8" x2="199.5" y2="282.5" stroke="rgb(0,0,0)"  stroke-width="1.0"/>
<line x1="200.4" y1="285.3" x2="162.4" y2="297.6" stroke="rgb(0,0,0)"  stroke-width="1.0"/>
<line x1="198.6" y1="279.6" x2="160.5" y2="291.9" stroke="rgb(0,0,0)"  stroke-width="1.0"/>
<line x1="357.8" y1="78.9" x2="328.0" y2="106.1" stroke="rgb(0,0,0)"  stroke-width="1.0"/>
<line x1="269.4" y1="159.8" x2="249.4" y2="177.9" stroke="rgb(0,0,0)"  stroke-width="1.0"/>
<line x1="50.7" y1="243.4" x2="59.1" y2="282.5" stroke="rgb(0,0,0)"  stroke-width="1.0"/>
<line x1="43.5" y1="217.3" x2="50.7" y2="243.4" stroke="rgb(0,0,0)"  stroke-width="1.0"/>
<line x1="47.5" y1="216.1" x2="54.7" y2="242.3" stroke="rgb(0,0,0)"  stroke-width="1.0"/>
<line x1="39.4" y1="218.4" x2="46.6" y2="244.5" stroke="rgb(0,0,0)"  stroke-width="1.0"/>
<line x1="91.0" y1="352.6" x2="106.9" y2="331.0" stroke="rgb(0,0,0)"  stroke-width="1.0"/>
<line x1="95.8" y1="356.1" x2="111.7" y2="334.6" stroke="rgb(0,0,0)"  stroke-width="1.0"/>
<line x1="131.9" y1="244.3" x2="132.2" y2="271.1" stroke="rgb(0,0,0)"  stroke-width="1.0"/>
<line x1="125.9" y1="244.3" x2="126.2" y2="271.2" stroke="rgb(0,0,0)"  stroke-width="1.0"/>
<line x1="59.1" y1="282.5" x2="84.4" y2="290.7" stroke="rgb(0,0,0)"  stroke-width="1.0"/>
<line x1="355.3" y1="52.1" x2="360.7" y2="78.3" stroke="rgb(0,0,0)"  stroke-width="1.0"/>
<line x1="349.4" y1="53.3" x2="354.8" y2="79.5" stroke="rgb(0,0,0)"  stroke-width="1.0"/>
<line x1="189.2" y1="154.3" x2="200.5" y2="178.8" stroke="rgb(0,0,0)"  stroke-width="1.0"/>
<line x1="383.8" y1="87.2" x2="357.8" y2="78.9" stroke="rgb(0,0,0)"  stroke-width="1.0"/>
<line x1="267.3" y1="239.8" x2="244.0" y2="226.5" stroke="rgb(0,0,0)"  stroke-width="1.0"/>
<line x1="426.0" y1="64.6" x2="405.9" y2="82.5" stroke="rgb(0,0,0)"  stroke-width="1.0"/>
<line x1="451.5" y1="73.0" x2="426.0" y2="64.6" stroke="rgb(0,0,0)"  stroke-width="1.0"/>
<line x1="107.3" y1="287.1" x2="129.2" y2="271.2" stroke="rgb(0,0,0)"  stroke-width="1.0"/>
<line x1="129.2" y1="271.2" x2="161.4" y2="294.7" stroke="rgb(0,0,0)"  stroke-width="1.0"/>
<line x1="161.4" y1="294.7" x2="153.1" y2="320.4" stroke="rgb(0,0,0)"  stroke-width="1.0"/>
<line x1="136.1" y1="332.8" x2="109.3" y2="332.8" stroke="rgb(0,0,0)"  stroke-width="1.0"/>
<line x1="109.3" y1="332.8" x2="100.8" y2="307.1" stroke="rgb(0,0,0)"  stroke-width="1.0"/>
<line x1="207.3" y1="242.8" x2="244.0" y2="226.5" stroke="rgb(0,0,0)"  stroke-width="1.0"/>
<line x1="209.9" y1="233.8" x2="235.6" y2="222.3" stroke="rgb(0,0,0)"  stroke-width="1.0"/>
<line x1="244.0" y1="226.5" x2="241.1" y2="199.5" stroke="rgb(0,0,0)"  stroke-width="1.0"/>
<line x1="227.0" y1="184.1" x2="200.5" y2="178.8" stroke="rgb(0,0,0)"  stroke-width="1.0"/>
<line x1="200.5" y1="178.8" x2="180.2" y2="213.8" stroke="rgb(0,0,0)"  stroke-width="1.0"/>
<line x1="203.7" y1="187.6" x2="189.4" y2="212.2" stroke="rgb(0,0,0)"  stroke-width="1.0"/>
<line x1="180.2" y1="213.8" x2="207.3" y2="242.8" stroke="rgb(0,0,0)"  stroke-width="1.0"/>
<line x1="269.4" y1="159.8" x2="260.5" y2="120.5" stroke="rgb(0,0,0)"  stroke-width="1.0"/>
<line x1="260.5" y1="120.5" x2="290.1" y2="93.6" stroke="rgb(0,0,0)"  stroke-width="1.0"/>
<line x1="269.8" y1="121.8" x2="290.5" y2="102.9" stroke="rgb(0,0,0)"  stroke-width="1.0"/>
<line x1="290.1" y1="93.6" x2="328.0" y2="106.1" stroke="rgb(0,0,0)"  stroke-width="1.0"/>
<line x1="328.0" y1="106.1" x2="336.6" y2="144.9" stroke="rgb(0,0,0)"  stroke-width="1.0"/>
<line x1="322.2" y1="113.5" x2="328.3" y2="140.6" stroke="rgb(0,0,0)"  stroke-width="1.0"/>
<line x1="336.6" y1="144.9" x2="307.6" y2="172.1" stroke="rgb(0,0,0)"  stroke-width="1.0"/>
<line x1="307.6" y1="172.1" x2="269.4" y2="159.8" stroke="rgb(0,0,0)"  stroke-width="1.0"/>
<line x1="304.1" y1="163.4" x2="277.3" y2="154.8" stroke="rgb(0,0,0)"  stroke-width="1.0"/>
<text x="90.790878" y="302.740179" fill="rgb(12,12,255)"  stroke="rgb(12,12,255)" stroke-width="1" font-size="16" >N</text>
<text x="233.761260" y="194.603990" fill="rgb(12,12,255)"  stroke="rgb(12,12,255)" stroke-width="1" font-size="16" >N</text>
<text x="143.143909" y="340.801017" fill="rgb(178,178,0)"  stroke="rgb(178,178,0)" stroke-width="1" font-size="16" >S</text>
<text x="22.000000" y="212.728429" fill="rgb(102,102,102)"  stroke="rgb(102,102,102)" stroke-width="1" font-size="16" >HC</text>
<text x="79.710795" y="372.815530" fill="rgb(255,12,12)"  stroke="rgb(255,12,12)" stroke-width="1" font-size="16" >O</text>
<text x="122.805391" y="239.307064" fill="rgb(255,12,12)"  stroke="rgb(255,12,12)" stroke-width="1" font-size="16" >O</text>
<text x="343.709408" y="48.000000" fill="rgb(255,12,12)"  stroke="rgb(255,12,12)" stroke-width="1" font-size="16" >O</text>
<text x="157.779465" y="150.501673" fill="rgb(102,102,102)"  stroke="rgb(102,102,102)" stroke-width="1" font-size="16" >H</text>
<text x="169.779465" y="154.181673" fill="rgb(102,102,102)"  stroke="rgb(102,102,102)" stroke-width="1" font-size="13" >3</text>
<text x="176.279465" y="150.501673" fill="rgb(102,102,102)"  stroke="rgb(102,102,102)" stroke-width="1" font-size="16" >C</text>
<text x="390.229286" y="99.151518" fill="rgb(255,12,12)"  stroke="rgb(255,12,12)" stroke-width="1" font-size="16" >O</text>
<text x="274.626336" y="254.209704" fill="rgb(102,102,102)"  stroke="rgb(102,102,102)" stroke-width="1" font-size="16" >CH</text>
<text x="298.626336" y="257.889704" fill="rgb(102,102,102)"  stroke="rgb(102,102,102)" stroke-width="1" font-size="13" >3</text>
<text x="459.887076" y="85.053117" fill="rgb(102,102,102)"  stroke="rgb(102,102,102)" stroke-width="1" font-size="16" >CH</text>
<text x="483.887076" y="88.733117" fill="rgb(102,102,102)"  stroke="rgb(102,102,102)" stroke-width="1" font-size="13" >3</text>
<text font-size="18.000000" fill ="black" font-family="sans-serif"
x="10.000000" y="20.000000" ></text>
<title> - OBDepict</title>
</svg>
