<?xml version="1.0"?>
<svg xmlns="http://www.w3.org/2000/svg"
xmlns:xlink="http://www.w3.org/1999/xlink" xmlns:cml="http://www.xml-cml.org/schema" width="253.153" height="499.857" x="0" y="0" font-family="sans-serif" stroke="rgb(0,0,0)" stroke-width="1"  stroke-linecap="round">
<rect x="0%" y="0%" width="100%" height="100%" stroke-width="0" fill="rgb(255,255,255)"  />
<line x1="109.3" y1="339.8" x2="109.3" y2="312.8" stroke="rgb(0,0,0)"  stroke-width="1.0"/>
<line x1="109.3" y1="272.8" x2="109.3" y2="286.8" stroke="rgb(0,0,0)"  stroke-width="1.0"/>
<line x1="143.8" y1="239.8" x2="120.5" y2="253.3" stroke="rgb(0,0,0)"  stroke-width="1.0"/>
<line x1="109.3" y1="179.8" x2="143.8" y2="199.8" stroke="rgb(0,0,0)"  stroke-width="1.0"/>
<line x1="82.3" y1="296.8" x2="96.3" y2="296.8" stroke="rgb(0,0,0)"  stroke-width="1.0"/>
<line x1="82.3" y1="302.8" x2="96.3" y2="302.8" stroke="rgb(0,0,0)"  stroke-width="1.0"/>
<line x1="136.3" y1="302.8" x2="122.3" y2="302.8" stroke="rgb(0,0,0)"  stroke-width="1.0"/>
<line x1="136.3" y1="296.8" x2="122.3" y2="296.8" stroke="rgb(0,0,0)"  stroke-width="1.0"/>
<line x1="74.6" y1="79.8" x2="74.6" y2="119.8" stroke="rgb(0,0,0)"  stroke-width="1.0"/>
<line x1="74.6" y1="53.0" x2="74.6" y2="79.8" stroke="rgb(0,0,0)"  stroke-width="1.0"/>
<line x1="78.8" y1="53.0" x2="78.8" y2="79.8" stroke="rgb(0,0,0)"  stroke-width="1.0"/>
<line x1="70.4" y1="53.0" x2="70.4" y2="79.8" stroke="rgb(0,0,0)"  stroke-width="1.0"/>
<line x1="84.3" y1="190.7" x2="107.8" y2="177.2" stroke="rgb(0,0,0)"  stroke-width="1.0"/>
<line x1="87.3" y1="195.9" x2="110.8" y2="182.4" stroke="rgb(0,0,0)"  stroke-width="1.0"/>
<line x1="109.3" y1="152.8" x2="109.3" y2="179.8" stroke="rgb(0,0,0)"  stroke-width="1.0"/>
<line x1="74.6" y1="119.8" x2="98.0" y2="133.3" stroke="rgb(0,0,0)"  stroke-width="1.0"/>
<line x1="167.3" y1="346.3" x2="143.8" y2="359.8" stroke="rgb(0,0,0)"  stroke-width="1.0"/>
<line x1="51.3" y1="346.4" x2="74.6" y2="359.8" stroke="rgb(0,0,0)"  stroke-width="1.0"/>
<line x1="109.3" y1="446.9" x2="109.3" y2="419.9" stroke="rgb(0,0,0)"  stroke-width="1.0"/>
<line x1="143.8" y1="199.8" x2="178.6" y2="179.8" stroke="rgb(0,0,0)"  stroke-width="1.0"/>
<line x1="178.6" y1="179.8" x2="213.2" y2="199.8" stroke="rgb(0,0,0)"  stroke-width="1.0"/>
<line x1="180.2" y1="189.1" x2="204.4" y2="203.0" stroke="rgb(0,0,0)"  stroke-width="1.0"/>
<line x1="213.2" y1="199.8" x2="213.2" y2="239.8" stroke="rgb(0,0,0)"  stroke-width="1.0"/>
<line x1="213.2" y1="239.8" x2="178.6" y2="259.8" stroke="rgb(0,0,0)"  stroke-width="1.0"/>
<line x1="204.4" y1="236.6" x2="180.2" y2="250.6" stroke="rgb(0,0,0)"  stroke-width="1.0"/>
<line x1="178.6" y1="259.8" x2="143.8" y2="239.8" stroke="rgb(0,0,0)"  stroke-width="1.0"/>
<line x1="143.8" y1="239.8" x2="143.8" y2="199.8" stroke="rgb(0,0,0)"  stroke-width="1.0"/>
<line x1="151.0" y1="233.8" x2="151.0" y2="205.8" stroke="rgb(0,0,0)"  stroke-width="1.0"/>
<line x1="109.3" y1="339.8" x2="143.8" y2="359.8" stroke="rgb(0,0,0)"  stroke-width="1.0"/>
<line x1="143.8" y1="359.8" x2="143.8" y2="399.8" stroke="rgb(0,0,0)"  stroke-width="1.0"/>
<line x1="136.6" y1="365.8" x2="136.6" y2="393.8" stroke="rgb(0,0,0)"  stroke-width="1.0"/>
<line x1="143.8" y1="399.8" x2="109.3" y2="419.9" stroke="rgb(0,0,0)"  stroke-width="1.0"/>
<line x1="109.3" y1="419.9" x2="74.6" y2="399.8" stroke="rgb(0,0,0)"  stroke-width="1.0"/>
<line x1="107.7" y1="410.6" x2="83.3" y2="396.6" stroke="rgb(0,0,0)"  stroke-width="1.0"/>
<line x1="74.6" y1="399.8" x2="74.6" y2="359.8" stroke="rgb(0,0,0)"  stroke-width="1.0"/>
<line x1="74.6" y1="359.8" x2="109.3" y2="339.8" stroke="rgb(0,0,0)"  stroke-width="1.0"/>
<line x1="83.3" y1="363.1" x2="107.7" y2="349.1" stroke="rgb(0,0,0)"  stroke-width="1.0"/>
<text x="103.298978" y="307.836011" fill="rgb(178,178,0)"  stroke="rgb(178,178,0)" stroke-width="1" font-size="16" >S</text>
<text x="91.298978" y="267.830653" fill="rgb(12,12,255)"  stroke="rgb(12,12,255)" stroke-width="1" font-size="16" >HN</text>
<text x="63.293620" y="307.836011" fill="rgb(255,12,12)"  stroke="rgb(255,12,12)" stroke-width="1" font-size="16" >O</text>
<text x="143.304336" y="307.836011" fill="rgb(255,12,12)"  stroke="rgb(255,12,12)" stroke-width="1" font-size="16" >O</text>
<text x="68.550082" y="48.000000" fill="rgb(102,102,102)"  stroke="rgb(102,102,102)" stroke-width="1" font-size="16" >CH</text>
<text x="68.550082" y="207.822617" fill="rgb(255,12,12)"  stroke="rgb(255,12,12)" stroke-width="1" font-size="16" >O</text>
<text x="103.298978" y="147.814580" fill="rgb(12,12,255)"  stroke="rgb(12,12,255)" stroke-width="1" font-size="16" >NH</text>
<text x="174.602805" y="347.841369" fill="rgb(102,102,102)"  stroke="rgb(102,102,102)" stroke-width="1" font-size="16" >CH</text>
<text x="198.602805" y="351.521369" fill="rgb(102,102,102)"  stroke="rgb(102,102,102)" stroke-width="1" font-size="13" >3</text>
<text x="14.000000" y="347.841369" fill="rgb(102,102,102)"  stroke="rgb(102,102,102)" stroke-width="1" font-size="16" >H</text>
<text x="26.000000" y="351.521369" fill="rgb(102,102,102)"  stroke="rgb(102,102,102)" stroke-width="1" font-size="13" >3</text>
<text x="32.500000" y="347.841369" fill="rgb(102,102,102)"  stroke="rgb(102,102,102)" stroke-width="1" font-size="16" >C</text>
<text x="105.298978" y="467.857442" fill="rgb(102,102,102)"  stroke="rgb(102,102,102)" stroke-width="1" font-size="16" >CH</text>
<text x="129.298978" y="471.537442" fill="rgb(102,102,102)"  stroke="rgb(102,102,102)" stroke-width="1" font-size="13" >3</text>
<text font-size="18.000000" fill ="black" font-family="sans-serif"
x="10.000000" y="20.000000" ></text>
<title> - OBDepict</title>
</svg>
