<?xml version="1.0"?>
<svg xmlns="http://www.w3.org/2000/svg"
xmlns:xlink="http://www.w3.org/1999/xlink" xmlns:cml="http://www.xml-cml.org/schema" width="484.78" height="323.469" x="0" y="0" font-family="sans-serif" stroke="rgb(0,0,0)" stroke-width="1"  stroke-linecap="round">
<rect x="0%" y="0%" width="100%" height="100%" stroke-width="0" fill="rgb(255,255,255)"  />
<line x1="240.1" y1="175.8" x2="279.8" y2="175.8" stroke="rgb(0,0,0)"  stroke-width="1.0"/>
<line x1="240.1" y1="181.8" x2="279.8" y2="181.8" stroke="rgb(0,0,0)"  stroke-width="1.0"/>
<line x1="410.6" y1="152.3" x2="374.3" y2="136.0" stroke="rgb(0,0,0)"  stroke-width="1.0"/>
<line x1="100.2" y1="144.3" x2="120.0" y2="178.8" stroke="rgb(0,0,0)"  stroke-width="1.0"/>
<line x1="220.0" y1="213.8" x2="240.1" y2="178.8" stroke="rgb(0,0,0)"  stroke-width="1.0"/>
<line x1="433.6" y1="166.0" x2="410.6" y2="152.3" stroke="rgb(0,0,0)"  stroke-width="1.0"/>
<line x1="431.5" y1="169.6" x2="408.5" y2="155.9" stroke="rgb(0,0,0)"  stroke-width="1.0"/>
<line x1="435.8" y1="162.4" x2="412.8" y2="148.7" stroke="rgb(0,0,0)"  stroke-width="1.0"/>
<line x1="361.6" y1="217.5" x2="340.2" y2="201.6" stroke="rgb(0,0,0)"  stroke-width="1.0"/>
<line x1="365.1" y1="212.6" x2="343.8" y2="196.7" stroke="rgb(0,0,0)"  stroke-width="1.0"/>
<line x1="298.5" y1="120.1" x2="306.8" y2="145.9" stroke="rgb(0,0,0)"  stroke-width="1.0"/>
<line x1="292.8" y1="121.9" x2="301.1" y2="147.7" stroke="rgb(0,0,0)"  stroke-width="1.0"/>
<line x1="374.3" y1="136.0" x2="352.5" y2="151.8" stroke="rgb(0,0,0)"  stroke-width="1.0"/>
<line x1="166.2" y1="190.1" x2="179.6" y2="213.6" stroke="rgb(0,0,0)"  stroke-width="1.0"/>
<line x1="120.0" y1="178.8" x2="146.8" y2="178.8" stroke="rgb(0,0,0)"  stroke-width="1.0"/>
<line x1="46.6" y1="167.6" x2="60.3" y2="144.3" stroke="rgb(0,0,0)"  stroke-width="1.0"/>
<line x1="47.4" y1="51.3" x2="60.5" y2="74.5" stroke="rgb(0,0,0)"  stroke-width="1.0"/>
<line x1="342.0" y1="172.5" x2="342.0" y2="199.1" stroke="rgb(0,0,0)"  stroke-width="1.0"/>
<line x1="342.0" y1="199.1" x2="316.2" y2="207.4" stroke="rgb(0,0,0)"  stroke-width="1.0"/>
<line x1="296.1" y1="200.9" x2="279.8" y2="178.8" stroke="rgb(0,0,0)"  stroke-width="1.0"/>
<line x1="279.8" y1="178.8" x2="304.0" y2="146.8" stroke="rgb(0,0,0)"  stroke-width="1.0"/>
<line x1="304.0" y1="146.8" x2="329.6" y2="155.4" stroke="rgb(0,0,0)"  stroke-width="1.0"/>
<line x1="60.3" y1="144.3" x2="40.7" y2="109.3" stroke="rgb(0,0,0)"  stroke-width="1.0"/>
<line x1="63.7" y1="135.6" x2="49.9" y2="111.0" stroke="rgb(0,0,0)"  stroke-width="1.0"/>
<line x1="40.7" y1="109.3" x2="60.5" y2="74.5" stroke="rgb(0,0,0)"  stroke-width="1.0"/>
<line x1="60.5" y1="74.5" x2="100.7" y2="75.2" stroke="rgb(0,0,0)"  stroke-width="1.0"/>
<line x1="66.4" y1="81.8" x2="94.5" y2="82.3" stroke="rgb(0,0,0)"  stroke-width="1.0"/>
<line x1="100.7" y1="75.2" x2="120.2" y2="109.5" stroke="rgb(0,0,0)"  stroke-width="1.0"/>
<line x1="120.2" y1="109.5" x2="100.2" y2="144.3" stroke="rgb(0,0,0)"  stroke-width="1.0"/>
<line x1="110.9" y1="111.1" x2="96.9" y2="135.5" stroke="rgb(0,0,0)"  stroke-width="1.0"/>
<line x1="100.2" y1="144.3" x2="60.3" y2="144.3" stroke="rgb(0,0,0)"  stroke-width="1.0"/>
<line x1="220.0" y1="213.8" x2="179.6" y2="213.6" stroke="rgb(0,0,0)"  stroke-width="1.0"/>
<line x1="213.9" y1="221.0" x2="185.6" y2="220.9" stroke="rgb(0,0,0)"  stroke-width="1.0"/>
<line x1="179.6" y1="213.6" x2="159.3" y2="248.1" stroke="rgb(0,0,0)"  stroke-width="1.0"/>
<line x1="159.3" y1="248.1" x2="179.6" y2="283.5" stroke="rgb(0,0,0)"  stroke-width="1.0"/>
<line x1="168.6" y1="249.7" x2="182.9" y2="274.7" stroke="rgb(0,0,0)"  stroke-width="1.0"/>
<line x1="179.6" y1="283.5" x2="219.6" y2="283.1" stroke="rgb(0,0,0)"  stroke-width="1.0"/>
<line x1="219.6" y1="283.1" x2="239.8" y2="248.5" stroke="rgb(0,0,0)"  stroke-width="1.0"/>
<line x1="216.4" y1="274.3" x2="230.6" y2="250.0" stroke="rgb(0,0,0)"  stroke-width="1.0"/>
<line x1="239.8" y1="248.5" x2="220.0" y2="213.8" stroke="rgb(0,0,0)"  stroke-width="1.0"/>
<text x="335.965106" y="167.487205" fill="rgb(12,12,255)"  stroke="rgb(12,12,255)" stroke-width="1" font-size="16" >N</text>
<text x="297.800840" y="219.309648" fill="rgb(178,178,0)"  stroke="rgb(178,178,0)" stroke-width="1" font-size="16" >S</text>
<text x="438.780016" y="180.645456" fill="rgb(102,102,102)"  stroke="rgb(102,102,102)" stroke-width="1" font-size="16" >CH</text>
<text x="367.790502" y="230.807949" fill="rgb(255,12,12)"  stroke="rgb(255,12,12)" stroke-width="1" font-size="16" >O</text>
<text x="285.637588" y="116.654908" fill="rgb(255,12,12)"  stroke="rgb(255,12,12)" stroke-width="1" font-size="16" >O</text>
<text x="153.817253" y="186.814447" fill="rgb(255,12,12)"  stroke="rgb(255,12,12)" stroke-width="1" font-size="16" >O</text>
<text x="22.000000" y="186.814447" fill="rgb(30,239,30)"  stroke="rgb(30,239,30)" stroke-width="1" font-size="16" >Cl</text>
<text x="22.999852" y="48.000000" fill="rgb(30,239,30)"  stroke="rgb(30,239,30)" stroke-width="1" font-size="16" >Cl</text>
<text font-size="18.000000" fill ="black" font-family="sans-serif"
x="10.000000" y="20.000000" ></text>
<title> - OBDepict</title>
</svg>
