<?xml version="1.0"?>
<svg xmlns="http://www.w3.org/2000/svg"
xmlns:xlink="http://www.w3.org/1999/xlink" xmlns:cml="http://www.xml-cml.org/schema" width="321.99" height="398.989" x="0" y="0" font-family="sans-serif" stroke="rgb(0,0,0)" stroke-width="1"  stroke-linecap="round">
<rect x="0%" y="0%" width="100%" height="100%" stroke-width="0" fill="rgb(255,255,255)"  />
<line x1="143.6" y1="199.5" x2="143.6" y2="159.0" stroke="rgb(0,0,0)"  stroke-width="1.0"/>
<line x1="178.6" y1="218.7" x2="213.2" y2="198.7" stroke="rgb(0,0,0)"  stroke-width="1.0"/>
<line x1="108.8" y1="218.7" x2="74.7" y2="198.7" stroke="rgb(0,0,0)"  stroke-width="1.0"/>
<line x1="178.6" y1="259.2" x2="201.9" y2="272.8" stroke="rgb(0,0,0)"  stroke-width="1.0"/>
<line x1="213.2" y1="198.7" x2="236.2" y2="185.2" stroke="rgb(0,0,0)"  stroke-width="1.0"/>
<line x1="211.0" y1="195.1" x2="234.1" y2="181.6" stroke="rgb(0,0,0)"  stroke-width="1.0"/>
<line x1="215.3" y1="202.3" x2="238.3" y2="188.8" stroke="rgb(0,0,0)"  stroke-width="1.0"/>
<line x1="108.8" y1="259.2" x2="85.9" y2="272.7" stroke="rgb(0,0,0)"  stroke-width="1.0"/>
<line x1="74.7" y1="198.7" x2="51.2" y2="185.1" stroke="rgb(0,0,0)"  stroke-width="1.0"/>
<line x1="72.6" y1="202.3" x2="49.1" y2="188.7" stroke="rgb(0,0,0)"  stroke-width="1.0"/>
<line x1="76.8" y1="195.1" x2="53.4" y2="181.5" stroke="rgb(0,0,0)"  stroke-width="1.0"/>
<line x1="213.2" y1="292.3" x2="213.2" y2="319.4" stroke="rgb(0,0,0)"  stroke-width="1.0"/>
<line x1="213.2" y1="319.4" x2="247.4" y2="339.0" stroke="rgb(0,0,0)"  stroke-width="1.0"/>
<line x1="143.6" y1="80.2" x2="143.6" y2="53.0" stroke="rgb(0,0,0)"  stroke-width="1.0"/>
<line x1="247.4" y1="339.0" x2="270.7" y2="352.5" stroke="rgb(0,0,0)"  stroke-width="1.0"/>
<line x1="249.5" y1="335.4" x2="272.8" y2="348.9" stroke="rgb(0,0,0)"  stroke-width="1.0"/>
<line x1="245.3" y1="342.7" x2="268.6" y2="356.1" stroke="rgb(0,0,0)"  stroke-width="1.0"/>
<line x1="143.6" y1="199.5" x2="108.8" y2="218.7" stroke="rgb(0,0,0)"  stroke-width="1.0"/>
<line x1="141.8" y1="208.7" x2="117.6" y2="222.1" stroke="rgb(0,0,0)"  stroke-width="1.0"/>
<line x1="108.8" y1="218.7" x2="108.8" y2="259.2" stroke="rgb(0,0,0)"  stroke-width="1.0"/>
<line x1="108.8" y1="259.2" x2="132.1" y2="272.7" stroke="rgb(0,0,0)"  stroke-width="1.0"/>
<line x1="117.6" y1="256.0" x2="134.0" y2="265.5" stroke="rgb(0,0,0)"  stroke-width="1.0"/>
<line x1="154.8" y1="272.8" x2="178.6" y2="259.2" stroke="rgb(0,0,0)"  stroke-width="1.0"/>
<line x1="178.6" y1="259.2" x2="178.6" y2="218.7" stroke="rgb(0,0,0)"  stroke-width="1.0"/>
<line x1="171.4" y1="253.2" x2="171.4" y2="224.7" stroke="rgb(0,0,0)"  stroke-width="1.0"/>
<line x1="178.6" y1="218.7" x2="143.6" y2="199.5" stroke="rgb(0,0,0)"  stroke-width="1.0"/>
<line x1="143.6" y1="159.0" x2="178.6" y2="139.8" stroke="rgb(0,0,0)"  stroke-width="1.0"/>
<line x1="145.4" y1="149.8" x2="169.9" y2="136.3" stroke="rgb(0,0,0)"  stroke-width="1.0"/>
<line x1="178.6" y1="139.8" x2="178.6" y2="99.7" stroke="rgb(0,0,0)"  stroke-width="1.0"/>
<line x1="178.6" y1="99.7" x2="143.6" y2="80.2" stroke="rgb(0,0,0)"  stroke-width="1.0"/>
<line x1="169.9" y1="103.1" x2="145.3" y2="89.4" stroke="rgb(0,0,0)"  stroke-width="1.0"/>
<line x1="143.6" y1="80.2" x2="108.8" y2="99.7" stroke="rgb(0,0,0)"  stroke-width="1.0"/>
<line x1="108.8" y1="99.7" x2="108.8" y2="139.8" stroke="rgb(0,0,0)"  stroke-width="1.0"/>
<line x1="116.0" y1="105.7" x2="116.0" y2="133.8" stroke="rgb(0,0,0)"  stroke-width="1.0"/>
<line x1="108.8" y1="139.8" x2="143.6" y2="159.0" stroke="rgb(0,0,0)"  stroke-width="1.0"/>
<text x="137.555188" y="287.317646" fill="rgb(12,12,255)"  stroke="rgb(12,12,255)" stroke-width="1" font-size="16" >N</text>
<text x="207.164919" y="287.317646" fill="rgb(178,178,0)"  stroke="rgb(178,178,0)" stroke-width="1" font-size="16" >S</text>
<text x="241.420247" y="186.594878" fill="rgb(12,12,255)"  stroke="rgb(12,12,255)" stroke-width="1" font-size="16" >N</text>
<text x="48.729819" y="287.317646" fill="rgb(12,12,255)"  stroke="rgb(12,12,255)" stroke-width="1" font-size="16" >H</text>
<text x="60.729819" y="290.997646" fill="rgb(12,12,255)"  stroke="rgb(12,12,255)" stroke-width="1" font-size="13" >2</text>
<text x="67.229819" y="287.317646" fill="rgb(12,12,255)"  stroke="rgb(12,12,255)" stroke-width="1" font-size="16" >N</text>
<text x="34.000000" y="186.594878" fill="rgb(12,12,255)"  stroke="rgb(12,12,255)" stroke-width="1" font-size="16" >N</text>
<text x="137.555188" y="48.000000" fill="rgb(255,12,12)"  stroke="rgb(255,12,12)" stroke-width="1" font-size="16" >OH</text>
<text x="275.990288" y="366.988518" fill="rgb(102,102,102)"  stroke="rgb(102,102,102)" stroke-width="1" font-size="16" >CH</text>
<text font-size="18.000000" fill ="black" font-family="sans-serif"
x="10.000000" y="20.000000" ></text>
<title> - OBDepict</title>
</svg>
