<?xml version="1.0"?>
<svg xmlns="http://www.w3.org/2000/svg"
xmlns:xlink="http://www.w3.org/1999/xlink" xmlns:cml="http://www.xml-cml.org/schema" width="284.35" height="583.928" x="0" y="0" font-family="sans-serif" stroke="rgb(0,0,0)" stroke-width="1"  stroke-linecap="round">
<rect x="0%" y="0%" width="100%" height="100%" stroke-width="0" fill="rgb(255,255,255)"  />
<line x1="87.3" y1="397.6" x2="83.4" y2="424.9" stroke="rgb(0,0,0)"  stroke-width="1.0"/>
<line x1="141.2" y1="303.7" x2="140.7" y2="262.7" stroke="rgb(0,0,0)"  stroke-width="1.0"/>
<line x1="78.1" y1="322.2" x2="53.9" y2="308.4" stroke="rgb(0,0,0)"  stroke-width="1.0"/>
<line x1="200.2" y1="365.2" x2="221.8" y2="381.8" stroke="rgb(0,0,0)"  stroke-width="1.0"/>
<line x1="196.5" y1="369.9" x2="218.1" y2="386.5" stroke="rgb(0,0,0)"  stroke-width="1.0"/>
<line x1="205.7" y1="328.3" x2="231.9" y2="320.6" stroke="rgb(0,0,0)"  stroke-width="1.0"/>
<line x1="71.9" y1="505.0" x2="64.7" y2="531.4" stroke="rgb(0,0,0)"  stroke-width="1.0"/>
<line x1="140.7" y1="182.2" x2="140.2" y2="154.2" stroke="rgb(0,0,0)"  stroke-width="1.0"/>
<line x1="151.3" y1="134.7" x2="175.0" y2="121.0" stroke="rgb(0,0,0)"  stroke-width="1.0"/>
<line x1="175.0" y1="121.0" x2="175.0" y2="80.5" stroke="rgb(0,0,0)"  stroke-width="1.0"/>
<line x1="175.0" y1="80.5" x2="174.6" y2="53.0" stroke="rgb(0,0,0)"  stroke-width="1.0"/>
<line x1="170.8" y1="80.6" x2="170.4" y2="53.1" stroke="rgb(0,0,0)"  stroke-width="1.0"/>
<line x1="179.2" y1="80.4" x2="178.8" y2="52.9" stroke="rgb(0,0,0)"  stroke-width="1.0"/>
<line x1="123.6" y1="366.3" x2="117.4" y2="327.7" stroke="rgb(0,0,0)"  stroke-width="1.0"/>
<line x1="115.5" y1="361.6" x2="111.2" y2="334.8" stroke="rgb(0,0,0)"  stroke-width="1.0"/>
<line x1="117.4" y1="327.7" x2="78.1" y2="322.2" stroke="rgb(0,0,0)"  stroke-width="1.0"/>
<line x1="78.1" y1="322.2" x2="66.6" y2="346.0" stroke="rgb(0,0,0)"  stroke-width="1.0"/>
<line x1="82.0" y1="330.8" x2="74.0" y2="347.3" stroke="rgb(0,0,0)"  stroke-width="1.0"/>
<line x1="70.3" y1="366.8" x2="79.7" y2="375.7" stroke="rgb(0,0,0)"  stroke-width="1.0"/>
<line x1="100.5" y1="378.6" x2="123.6" y2="366.3" stroke="rgb(0,0,0)"  stroke-width="1.0"/>
<line x1="83.4" y1="424.9" x2="115.0" y2="449.4" stroke="rgb(0,0,0)"  stroke-width="1.0"/>
<line x1="115.0" y1="449.4" x2="109.3" y2="489.7" stroke="rgb(0,0,0)"  stroke-width="1.0"/>
<line x1="107.0" y1="454.3" x2="103.0" y2="482.8" stroke="rgb(0,0,0)"  stroke-width="1.0"/>
<line x1="109.3" y1="489.7" x2="71.9" y2="505.0" stroke="rgb(0,0,0)"  stroke-width="1.0"/>
<line x1="71.9" y1="505.0" x2="40.0" y2="480.1" stroke="rgb(0,0,0)"  stroke-width="1.0"/>
<line x1="71.6" y1="495.6" x2="49.2" y2="478.1" stroke="rgb(0,0,0)"  stroke-width="1.0"/>
<line x1="40.0" y1="480.1" x2="45.5" y2="440.0" stroke="rgb(0,0,0)"  stroke-width="1.0"/>
<line x1="45.5" y1="440.0" x2="83.4" y2="424.9" stroke="rgb(0,0,0)"  stroke-width="1.0"/>
<line x1="53.7" y1="444.4" x2="80.5" y2="433.8" stroke="rgb(0,0,0)"  stroke-width="1.0"/>
<line x1="140.7" y1="262.7" x2="175.7" y2="242.5" stroke="rgb(0,0,0)"  stroke-width="1.0"/>
<line x1="142.3" y1="253.5" x2="166.9" y2="239.2" stroke="rgb(0,0,0)"  stroke-width="1.0"/>
<line x1="175.7" y1="242.5" x2="175.7" y2="202.0" stroke="rgb(0,0,0)"  stroke-width="1.0"/>
<line x1="175.7" y1="202.0" x2="140.7" y2="182.2" stroke="rgb(0,0,0)"  stroke-width="1.0"/>
<line x1="167.0" y1="205.3" x2="142.4" y2="191.5" stroke="rgb(0,0,0)"  stroke-width="1.0"/>
<line x1="140.7" y1="182.2" x2="105.0" y2="202.5" stroke="rgb(0,0,0)"  stroke-width="1.0"/>
<line x1="105.0" y1="202.5" x2="105.7" y2="243.0" stroke="rgb(0,0,0)"  stroke-width="1.0"/>
<line x1="112.3" y1="208.4" x2="112.8" y2="236.9" stroke="rgb(0,0,0)"  stroke-width="1.0"/>
<line x1="105.7" y1="243.0" x2="140.7" y2="262.7" stroke="rgb(0,0,0)"  stroke-width="1.0"/>
<line x1="205.7" y1="328.3" x2="190.3" y2="312.5" stroke="rgb(0,0,0)"  stroke-width="1.0"/>
<line x1="168.2" y1="303.4" x2="141.2" y2="303.7" stroke="rgb(0,0,0)"  stroke-width="1.0"/>
<line x1="141.2" y1="303.7" x2="117.4" y2="327.7" stroke="rgb(0,0,0)"  stroke-width="1.0"/>
<line x1="123.6" y1="366.3" x2="148.7" y2="379.4" stroke="rgb(0,0,0)"  stroke-width="1.0"/>
<line x1="172.0" y1="379.9" x2="198.4" y2="367.5" stroke="rgb(0,0,0)"  stroke-width="1.0"/>
<line x1="198.4" y1="367.5" x2="205.7" y2="328.3" stroke="rgb(0,0,0)"  stroke-width="1.0"/>
<text x="83.072352" y="392.702869" fill="rgb(12,12,255)"  stroke="rgb(12,12,255)" stroke-width="1" font-size="16" >N</text>
<text x="154.273352" y="393.389333" fill="rgb(12,12,255)"  stroke="rgb(12,12,255)" stroke-width="1" font-size="16" >N</text>
<text x="154.273352" y="409.389333" fill="rgb(12,12,255)"  stroke="rgb(12,12,255)" stroke-width="1" font-size="16" >H</text>
<text x="54.932241" y="365.764070" fill="rgb(12,12,255)"  stroke="rgb(12,12,255)" stroke-width="1" font-size="16" >N</text>
<text x="175.205593" y="311.200008" fill="rgb(178,178,0)"  stroke="rgb(178,178,0)" stroke-width="1" font-size="16" >S</text>
<text x="16.569336" y="310.003600" fill="rgb(102,102,102)"  stroke="rgb(102,102,102)" stroke-width="1" font-size="16" >H</text>
<text x="28.569336" y="313.683600" fill="rgb(102,102,102)"  stroke="rgb(102,102,102)" stroke-width="1" font-size="13" >3</text>
<text x="35.069336" y="310.003600" fill="rgb(102,102,102)"  stroke="rgb(102,102,102)" stroke-width="1" font-size="16" >C</text>
<text x="224.277945" y="400.077451" fill="rgb(255,12,12)"  stroke="rgb(255,12,12)" stroke-width="1" font-size="16" >O</text>
<text x="240.350452" y="324.929283" fill="rgb(102,102,102)"  stroke="rgb(102,102,102)" stroke-width="1" font-size="16" >CH</text>
<text x="264.350452" y="328.609283" fill="rgb(102,102,102)"  stroke="rgb(102,102,102)" stroke-width="1" font-size="13" >3</text>
<text x="55.275473" y="551.928136" fill="rgb(127,178,255)"  stroke="rgb(127,178,255)" stroke-width="1" font-size="16" >F</text>
<text x="134.032478" y="149.233790" fill="rgb(255,12,12)"  stroke="rgb(255,12,12)" stroke-width="1" font-size="16" >O</text>
<text x="156.345859" y="48.000000" fill="rgb(102,102,102)"  stroke="rgb(102,102,102)" stroke-width="1" font-size="16" >HC</text>
<text font-size="18.000000" fill ="black" font-family="sans-serif"
x="10.000000" y="20.000000" ></text>
<title> - OBDepict</title>
</svg>
