<?xml version="1.0"?>
<svg xmlns="http://www.w3.org/2000/svg"
xmlns:xlink="http://www.w3.org/1999/xlink" xmlns:cml="http://www.xml-cml.org/schema" width="426.043" height="320.331" x="0" y="0" font-family="sans-serif" stroke="rgb(0,0,0)" stroke-width="1"  stroke-linecap="round">
<rect x="0%" y="0%" width="100%" height="100%" stroke-width="0" fill="rgb(255,255,255)"  />
<line x1="143.9" y1="179.9" x2="178.8" y2="200.2" stroke="rgb(0,0,0)"  stroke-width="1.0"/>
<line x1="180.1" y1="117.0" x2="203.5" y2="130.9" stroke="rgb(0,0,0)"  stroke-width="1.0"/>
<line x1="177.1" y1="122.2" x2="200.5" y2="136.0" stroke="rgb(0,0,0)"  stroke-width="1.0"/>
<line x1="109.5" y1="199.9" x2="109.3" y2="240.1" stroke="rgb(0,0,0)"  stroke-width="1.0"/>
<line x1="74.6" y1="179.9" x2="51.3" y2="193.4" stroke="rgb(0,0,0)"  stroke-width="1.0"/>
<line x1="109.3" y1="240.1" x2="109.4" y2="267.3" stroke="rgb(0,0,0)"  stroke-width="1.0"/>
<line x1="113.5" y1="240.1" x2="113.6" y2="267.3" stroke="rgb(0,0,0)"  stroke-width="1.0"/>
<line x1="105.1" y1="240.1" x2="105.2" y2="267.3" stroke="rgb(0,0,0)"  stroke-width="1.0"/>
<line x1="143.2" y1="59.8" x2="167.0" y2="46.4" stroke="rgb(0,0,0)"  stroke-width="1.0"/>
<line x1="143.2" y1="59.8" x2="119.6" y2="46.4" stroke="rgb(0,0,0)"  stroke-width="1.0"/>
<line x1="248.1" y1="240.1" x2="271.2" y2="253.5" stroke="rgb(0,0,0)"  stroke-width="1.0"/>
<line x1="293.7" y1="253.5" x2="316.7" y2="240.1" stroke="rgb(0,0,0)"  stroke-width="1.0"/>
<line x1="316.7" y1="240.1" x2="351.8" y2="259.9" stroke="rgb(0,0,0)"  stroke-width="1.0"/>
<line x1="351.8" y1="259.9" x2="374.8" y2="273.3" stroke="rgb(0,0,0)"  stroke-width="1.0"/>
<line x1="353.9" y1="256.3" x2="376.9" y2="269.7" stroke="rgb(0,0,0)"  stroke-width="1.0"/>
<line x1="349.7" y1="263.5" x2="372.7" y2="276.9" stroke="rgb(0,0,0)"  stroke-width="1.0"/>
<line x1="143.9" y1="140.1" x2="109.0" y2="120.1" stroke="rgb(0,0,0)"  stroke-width="1.0"/>
<line x1="135.1" y1="143.3" x2="110.6" y2="129.3" stroke="rgb(0,0,0)"  stroke-width="1.0"/>
<line x1="109.0" y1="120.1" x2="85.8" y2="133.7" stroke="rgb(0,0,0)"  stroke-width="1.0"/>
<line x1="74.6" y1="153.2" x2="74.6" y2="179.9" stroke="rgb(0,0,0)"  stroke-width="1.0"/>
<line x1="74.6" y1="179.9" x2="109.5" y2="199.9" stroke="rgb(0,0,0)"  stroke-width="1.0"/>
<line x1="83.4" y1="176.7" x2="107.8" y2="190.7" stroke="rgb(0,0,0)"  stroke-width="1.0"/>
<line x1="109.5" y1="199.9" x2="143.9" y2="179.9" stroke="rgb(0,0,0)"  stroke-width="1.0"/>
<line x1="143.9" y1="179.9" x2="143.9" y2="140.1" stroke="rgb(0,0,0)"  stroke-width="1.0"/>
<line x1="143.9" y1="140.1" x2="178.6" y2="119.6" stroke="rgb(0,0,0)"  stroke-width="1.0"/>
<line x1="178.6" y1="119.6" x2="178.3" y2="79.9" stroke="rgb(0,0,0)"  stroke-width="1.0"/>
<line x1="178.3" y1="79.9" x2="143.2" y2="59.8" stroke="rgb(0,0,0)"  stroke-width="1.0"/>
<line x1="143.2" y1="59.8" x2="109.0" y2="79.9" stroke="rgb(0,0,0)"  stroke-width="1.0"/>
<line x1="109.0" y1="79.9" x2="109.0" y2="120.1" stroke="rgb(0,0,0)"  stroke-width="1.0"/>
<line x1="178.8" y1="200.2" x2="178.6" y2="240.1" stroke="rgb(0,0,0)"  stroke-width="1.0"/>
<line x1="186.0" y1="206.3" x2="185.8" y2="234.1" stroke="rgb(0,0,0)"  stroke-width="1.0"/>
<line x1="178.6" y1="240.1" x2="213.0" y2="260.1" stroke="rgb(0,0,0)"  stroke-width="1.0"/>
<line x1="213.0" y1="260.1" x2="248.1" y2="240.1" stroke="rgb(0,0,0)"  stroke-width="1.0"/>
<line x1="214.7" y1="250.8" x2="239.3" y2="236.8" stroke="rgb(0,0,0)"  stroke-width="1.0"/>
<line x1="248.1" y1="240.1" x2="247.6" y2="200.2" stroke="rgb(0,0,0)"  stroke-width="1.0"/>
<line x1="247.6" y1="200.2" x2="213.2" y2="180.3" stroke="rgb(0,0,0)"  stroke-width="1.0"/>
<line x1="238.8" y1="203.4" x2="214.8" y2="189.5" stroke="rgb(0,0,0)"  stroke-width="1.0"/>
<line x1="213.2" y1="180.3" x2="178.8" y2="200.2" stroke="rgb(0,0,0)"  stroke-width="1.0"/>
<text x="68.572726" y="148.221513" fill="rgb(255,12,12)"  stroke="rgb(255,12,12)" stroke-width="1" font-size="16" >O</text>
<text x="207.189466" y="148.056163" fill="rgb(255,12,12)"  stroke="rgb(255,12,12)" stroke-width="1" font-size="16" >O</text>
<text x="14.000000" y="207.893386" fill="rgb(12,12,255)"  stroke="rgb(12,12,255)" stroke-width="1" font-size="16" >H</text>
<text x="26.000000" y="211.573386" fill="rgb(12,12,255)"  stroke="rgb(12,12,255)" stroke-width="1" font-size="13" >2</text>
<text x="32.500000" y="207.893386" fill="rgb(12,12,255)"  stroke="rgb(12,12,255)" stroke-width="1" font-size="16" >N</text>
<text x="103.476152" y="288.331265" fill="rgb(12,12,255)"  stroke="rgb(12,12,255)" stroke-width="1" font-size="16" >N</text>
<text x="174.286040" y="48.000000" fill="rgb(102,102,102)"  stroke="rgb(102,102,102)" stroke-width="1" font-size="16" >CH</text>
<text x="198.286040" y="51.680000" fill="rgb(102,102,102)"  stroke="rgb(102,102,102)" stroke-width="1" font-size="13" >3</text>
<text x="82.308976" y="48.000000" fill="rgb(102,102,102)"  stroke="rgb(102,102,102)" stroke-width="1" font-size="16" >H</text>
<text x="94.308976" y="51.680000" fill="rgb(102,102,102)"  stroke="rgb(102,102,102)" stroke-width="1" font-size="13" >3</text>
<text x="100.808976" y="48.000000" fill="rgb(102,102,102)"  stroke="rgb(102,102,102)" stroke-width="1" font-size="16" >C</text>
<text x="276.495404" y="268.056445" fill="rgb(255,12,12)"  stroke="rgb(255,12,12)" stroke-width="1" font-size="16" >O</text>
<text x="380.043368" y="287.835215" fill="rgb(102,102,102)"  stroke="rgb(102,102,102)" stroke-width="1" font-size="16" >CH</text>
<text font-size="18.000000" fill ="black" font-family="sans-serif"
x="10.000000" y="20.000000" ></text>
<title> - OBDepict</title>
</svg>
