<?xml version="1.0"?>
<svg xmlns="http://www.w3.org/2000/svg"
xmlns:xlink="http://www.w3.org/1999/xlink" xmlns:cml="http://www.xml-cml.org/schema" width="629.819" height="328.24" x="0" y="0" font-family="sans-serif" stroke="rgb(0,0,0)" stroke-width="1"  stroke-linecap="round">
<rect x="0%" y="0%" width="100%" height="100%" stroke-width="0" fill="rgb(255,255,255)"  />
<line x1="210.6" y1="248.2" x2="170.5" y2="248.2" stroke="rgb(0,0,0)"  stroke-width="1.0"/>
<line x1="437.3" y1="178.7" x2="410.3" y2="178.7" stroke="rgb(0,0,0)"  stroke-width="1.0"/>
<line x1="509.3" y1="74.7" x2="529.5" y2="109.0" stroke="rgb(0,0,0)"  stroke-width="1.0"/>
<line x1="495.5" y1="51.2" x2="509.3" y2="74.7" stroke="rgb(0,0,0)"  stroke-width="1.0"/>
<line x1="499.2" y1="49.1" x2="512.9" y2="72.6" stroke="rgb(0,0,0)"  stroke-width="1.0"/>
<line x1="491.9" y1="53.3" x2="505.7" y2="76.8" stroke="rgb(0,0,0)"  stroke-width="1.0"/>
<line x1="258.1" y1="213.4" x2="243.6" y2="213.4" stroke="rgb(0,0,0)"  stroke-width="1.0"/>
<line x1="224.1" y1="224.7" x2="210.6" y2="248.2" stroke="rgb(0,0,0)"  stroke-width="1.0"/>
<line x1="221.5" y1="273.1" x2="208.0" y2="249.7" stroke="rgb(0,0,0)"  stroke-width="1.0"/>
<line x1="226.7" y1="270.1" x2="213.1" y2="246.7" stroke="rgb(0,0,0)"  stroke-width="1.0"/>
<line x1="330.4" y1="178.9" x2="290.4" y2="178.9" stroke="rgb(0,0,0)"  stroke-width="1.0"/>
<line x1="470.0" y1="143.7" x2="456.6" y2="167.4" stroke="rgb(0,0,0)"  stroke-width="1.0"/>
<line x1="510.0" y1="143.7" x2="470.0" y2="143.7" stroke="rgb(0,0,0)"  stroke-width="1.0"/>
<line x1="293.0" y1="180.3" x2="280.0" y2="203.5" stroke="rgb(0,0,0)"  stroke-width="1.0"/>
<line x1="287.8" y1="177.4" x2="274.8" y2="200.6" stroke="rgb(0,0,0)"  stroke-width="1.0"/>
<line x1="403.7" y1="236.7" x2="390.3" y2="213.4" stroke="rgb(0,0,0)"  stroke-width="1.0"/>
<line x1="403.2" y1="120.5" x2="389.8" y2="144.2" stroke="rgb(0,0,0)"  stroke-width="1.0"/>
<line x1="396.2" y1="86.0" x2="403.1" y2="97.9" stroke="rgb(0,0,0)"  stroke-width="1.0"/>
<line x1="170.5" y1="248.2" x2="155.0" y2="270.3" stroke="rgb(0,0,0)"  stroke-width="1.0"/>
<line x1="135.2" y1="276.8" x2="109.5" y2="268.2" stroke="rgb(0,0,0)"  stroke-width="1.0"/>
<line x1="109.5" y1="268.2" x2="109.5" y2="228.2" stroke="rgb(0,0,0)"  stroke-width="1.0"/>
<line x1="116.7" y1="262.2" x2="116.7" y2="234.2" stroke="rgb(0,0,0)"  stroke-width="1.0"/>
<line x1="109.5" y1="228.2" x2="147.0" y2="215.6" stroke="rgb(0,0,0)"  stroke-width="1.0"/>
<line x1="147.0" y1="215.6" x2="170.5" y2="248.2" stroke="rgb(0,0,0)"  stroke-width="1.0"/>
<line x1="144.7" y1="224.6" x2="161.2" y2="247.6" stroke="rgb(0,0,0)"  stroke-width="1.0"/>
<line x1="390.3" y1="213.4" x2="410.3" y2="178.7" stroke="rgb(0,0,0)"  stroke-width="1.0"/>
<line x1="387.0" y1="204.6" x2="401.0" y2="180.3" stroke="rgb(0,0,0)"  stroke-width="1.0"/>
<line x1="410.3" y1="178.7" x2="389.8" y2="144.2" stroke="rgb(0,0,0)"  stroke-width="1.0"/>
<line x1="389.8" y1="144.2" x2="349.8" y2="144.4" stroke="rgb(0,0,0)"  stroke-width="1.0"/>
<line x1="383.8" y1="151.4" x2="355.8" y2="151.5" stroke="rgb(0,0,0)"  stroke-width="1.0"/>
<line x1="349.8" y1="144.4" x2="330.4" y2="178.9" stroke="rgb(0,0,0)"  stroke-width="1.0"/>
<line x1="330.4" y1="178.9" x2="350.4" y2="213.4" stroke="rgb(0,0,0)"  stroke-width="1.0"/>
<line x1="339.7" y1="180.5" x2="353.6" y2="204.6" stroke="rgb(0,0,0)"  stroke-width="1.0"/>
<line x1="350.4" y1="213.4" x2="390.3" y2="213.4" stroke="rgb(0,0,0)"  stroke-width="1.0"/>
<line x1="529.5" y1="109.0" x2="569.5" y2="108.7" stroke="rgb(0,0,0)"  stroke-width="1.0"/>
<line x1="535.5" y1="116.2" x2="563.5" y2="115.9" stroke="rgb(0,0,0)"  stroke-width="1.0"/>
<line x1="569.5" y1="108.7" x2="589.8" y2="143.5" stroke="rgb(0,0,0)"  stroke-width="1.0"/>
<line x1="589.8" y1="143.5" x2="569.8" y2="178.2" stroke="rgb(0,0,0)"  stroke-width="1.0"/>
<line x1="580.6" y1="145.1" x2="566.6" y2="169.4" stroke="rgb(0,0,0)"  stroke-width="1.0"/>
<line x1="569.8" y1="178.2" x2="530.0" y2="178.2" stroke="rgb(0,0,0)"  stroke-width="1.0"/>
<line x1="530.0" y1="178.2" x2="510.0" y2="143.7" stroke="rgb(0,0,0)"  stroke-width="1.0"/>
<line x1="533.2" y1="169.4" x2="519.2" y2="145.3" stroke="rgb(0,0,0)"  stroke-width="1.0"/>
<line x1="510.0" y1="143.7" x2="529.5" y2="109.0" stroke="rgb(0,0,0)"  stroke-width="1.0"/>
<line x1="75.0" y1="288.2" x2="109.5" y2="268.2" stroke="rgb(0,0,0)"  stroke-width="1.0"/>
<line x1="109.5" y1="228.2" x2="74.5" y2="208.4" stroke="rgb(0,0,0)"  stroke-width="1.0"/>
<line x1="74.5" y1="208.4" x2="40.0" y2="228.2" stroke="rgb(0,0,0)"  stroke-width="1.0"/>
<line x1="72.9" y1="217.6" x2="48.8" y2="231.5" stroke="rgb(0,0,0)"  stroke-width="1.0"/>
<line x1="40.0" y1="228.2" x2="40.0" y2="268.2" stroke="rgb(0,0,0)"  stroke-width="1.0"/>
<line x1="40.0" y1="268.2" x2="75.0" y2="288.2" stroke="rgb(0,0,0)"  stroke-width="1.0"/>
<line x1="48.8" y1="265.0" x2="73.4" y2="279.0" stroke="rgb(0,0,0)"  stroke-width="1.0"/>
<text x="141.531068" y="288.907034" fill="rgb(255,12,12)"  stroke="rgb(255,12,12)" stroke-width="1" font-size="16" >O</text>
<text x="444.278652" y="186.710810" fill="rgb(255,12,12)"  stroke="rgb(255,12,12)" stroke-width="1" font-size="16" >O</text>
<text x="470.956275" y="48.000000" fill="rgb(102,102,102)"  stroke="rgb(102,102,102)" stroke-width="1" font-size="16" >HC</text>
<text x="265.066671" y="221.387300" fill="rgb(12,12,255)"  stroke="rgb(12,12,255)" stroke-width="1" font-size="16" >N</text>
<text x="224.555800" y="221.387300" fill="rgb(12,12,255)"  stroke="rgb(12,12,255)" stroke-width="1" font-size="16" >N</text>
<text x="224.555800" y="205.387300" fill="rgb(12,12,255)"  stroke="rgb(12,12,255)" stroke-width="1" font-size="16" >H</text>
<text x="224.555800" y="290.905176" fill="rgb(255,12,12)"  stroke="rgb(255,12,12)" stroke-width="1" font-size="16" >O</text>
<text x="404.267317" y="255.898895" fill="rgb(30,239,30)"  stroke="rgb(30,239,30)" stroke-width="1" font-size="16" >Cl</text>
<text x="403.602886" y="117.188085" fill="rgb(255,12,12)"  stroke="rgb(255,12,12)" stroke-width="1" font-size="16" >O</text>
<text x="363.762114" y="82.681340" fill="rgb(102,102,102)"  stroke="rgb(102,102,102)" stroke-width="1" font-size="16" >H</text>
<text x="375.762114" y="86.361340" fill="rgb(102,102,102)"  stroke="rgb(102,102,102)" stroke-width="1" font-size="13" >3</text>
<text x="382.262114" y="82.681340" fill="rgb(102,102,102)"  stroke="rgb(102,102,102)" stroke-width="1" font-size="16" >C</text>
<text font-size="18.000000" fill ="black" font-family="sans-serif"
x="10.000000" y="20.000000" ></text>
<title> - OBDepict</title>
</svg>
