<?xml version="1.0"?>
<svg xmlns="http://www.w3.org/2000/svg"
xmlns:xlink="http://www.w3.org/1999/xlink" xmlns:cml="http://www.xml-cml.org/schema" width="273.019" height="491.062" x="0" y="0" font-family="sans-serif" stroke="rgb(0,0,0)" stroke-width="1"  stroke-linecap="round">
<rect x="0%" y="0%" width="100%" height="100%" stroke-width="0" fill="rgb(255,255,255)"  />
<line x1="189.2" y1="288.8" x2="164.9" y2="302.8" stroke="rgb(0,0,0)"  stroke-width="1.0"/>
<line x1="186.1" y1="283.6" x2="161.9" y2="297.7" stroke="rgb(0,0,0)"  stroke-width="1.0"/>
<line x1="198.5" y1="240.1" x2="198.8" y2="266.7" stroke="rgb(0,0,0)"  stroke-width="1.0"/>
<line x1="179.7" y1="406.8" x2="188.8" y2="367.9" stroke="rgb(0,0,0)"  stroke-width="1.0"/>
<line x1="173.6" y1="433.6" x2="179.7" y2="406.8" stroke="rgb(0,0,0)"  stroke-width="1.0"/>
<line x1="169.5" y1="432.6" x2="175.6" y2="405.9" stroke="rgb(0,0,0)"  stroke-width="1.0"/>
<line x1="177.6" y1="434.5" x2="183.8" y2="407.8" stroke="rgb(0,0,0)"  stroke-width="1.0"/>
<line x1="233.0" y1="220.1" x2="198.5" y2="240.1" stroke="rgb(0,0,0)"  stroke-width="1.0"/>
<line x1="188.8" y1="367.9" x2="168.6" y2="349.1" stroke="rgb(0,0,0)"  stroke-width="1.0"/>
<line x1="176.7" y1="223.9" x2="200.0" y2="237.5" stroke="rgb(0,0,0)"  stroke-width="1.0"/>
<line x1="173.7" y1="229.0" x2="197.0" y2="242.7" stroke="rgb(0,0,0)"  stroke-width="1.0"/>
<line x1="233.0" y1="179.3" x2="233.0" y2="220.1" stroke="rgb(0,0,0)"  stroke-width="1.0"/>
<line x1="112.3" y1="405.7" x2="99.2" y2="381.4" stroke="rgb(0,0,0)"  stroke-width="1.0"/>
<line x1="209.8" y1="166.3" x2="233.0" y2="179.3" stroke="rgb(0,0,0)"  stroke-width="1.0"/>
<line x1="198.5" y1="120.0" x2="198.5" y2="146.9" stroke="rgb(0,0,0)"  stroke-width="1.0"/>
<line x1="104.2" y1="440.0" x2="111.7" y2="428.2" stroke="rgb(0,0,0)"  stroke-width="1.0"/>
<line x1="163.4" y1="300.2" x2="140.0" y2="289.4" stroke="rgb(0,0,0)"  stroke-width="1.0"/>
<line x1="119.2" y1="293.2" x2="100.4" y2="312.8" stroke="rgb(0,0,0)"  stroke-width="1.0"/>
<line x1="100.4" y1="312.8" x2="120.2" y2="347.5" stroke="rgb(0,0,0)"  stroke-width="1.0"/>
<line x1="109.6" y1="314.4" x2="123.4" y2="338.7" stroke="rgb(0,0,0)"  stroke-width="1.0"/>
<line x1="120.2" y1="347.5" x2="146.3" y2="342.6" stroke="rgb(0,0,0)"  stroke-width="1.0"/>
<line x1="160.5" y1="327.3" x2="163.4" y2="300.2" stroke="rgb(0,0,0)"  stroke-width="1.0"/>
<line x1="198.5" y1="120.0" x2="233.0" y2="99.4" stroke="rgb(0,0,0)"  stroke-width="1.0"/>
<line x1="200.0" y1="110.7" x2="224.2" y2="96.2" stroke="rgb(0,0,0)"  stroke-width="1.0"/>
<line x1="233.0" y1="99.4" x2="232.8" y2="59.6" stroke="rgb(0,0,0)"  stroke-width="1.0"/>
<line x1="232.8" y1="59.6" x2="197.9" y2="40.0" stroke="rgb(0,0,0)"  stroke-width="1.0"/>
<line x1="224.1" y1="62.9" x2="199.6" y2="49.2" stroke="rgb(0,0,0)"  stroke-width="1.0"/>
<line x1="197.9" y1="40.0" x2="163.4" y2="60.2" stroke="rgb(0,0,0)"  stroke-width="1.0"/>
<line x1="163.4" y1="60.2" x2="164.0" y2="100.2" stroke="rgb(0,0,0)"  stroke-width="1.0"/>
<line x1="170.7" y1="66.1" x2="171.1" y2="94.1" stroke="rgb(0,0,0)"  stroke-width="1.0"/>
<line x1="164.0" y1="100.2" x2="198.5" y2="120.0" stroke="rgb(0,0,0)"  stroke-width="1.0"/>
<line x1="99.2" y1="381.4" x2="60.0" y2="381.2" stroke="rgb(0,0,0)"  stroke-width="1.0"/>
<line x1="93.2" y1="374.2" x2="66.0" y2="374.0" stroke="rgb(0,0,0)"  stroke-width="1.0"/>
<line x1="60.0" y1="381.2" x2="40.0" y2="345.7" stroke="rgb(0,0,0)"  stroke-width="1.0"/>
<line x1="40.0" y1="345.7" x2="61.2" y2="311.8" stroke="rgb(0,0,0)"  stroke-width="1.0"/>
<line x1="49.3" y1="344.4" x2="64.1" y2="320.7" stroke="rgb(0,0,0)"  stroke-width="1.0"/>
<line x1="61.2" y1="311.8" x2="100.4" y2="312.8" stroke="rgb(0,0,0)"  stroke-width="1.0"/>
<line x1="120.2" y1="347.5" x2="99.2" y2="381.4" stroke="rgb(0,0,0)"  stroke-width="1.0"/>
<text x="153.122282" y="348.224801" fill="rgb(12,12,255)"  stroke="rgb(12,12,255)" stroke-width="1" font-size="16" >N</text>
<text x="192.894348" y="287.655299" fill="rgb(12,12,255)"  stroke="rgb(12,12,255)" stroke-width="1" font-size="16" >N</text>
<text x="122.231545" y="291.892353" fill="rgb(178,178,0)"  stroke="rgb(178,178,0)" stroke-width="1" font-size="16" >S</text>
<text x="152.631166" y="454.219005" fill="rgb(102,102,102)"  stroke="rgb(102,102,102)" stroke-width="1" font-size="16" >HC</text>
<text x="157.970169" y="227.890547" fill="rgb(255,12,12)"  stroke="rgb(255,12,12)" stroke-width="1" font-size="16" >O</text>
<text x="112.540619" y="425.146226" fill="rgb(255,12,12)"  stroke="rgb(255,12,12)" stroke-width="1" font-size="16" >O</text>
<text x="192.491973" y="167.927031" fill="rgb(255,12,12)"  stroke="rgb(255,12,12)" stroke-width="1" font-size="16" >O</text>
<text x="71.340809" y="459.062044" fill="rgb(102,102,102)"  stroke="rgb(102,102,102)" stroke-width="1" font-size="16" >H</text>
<text x="83.340809" y="462.742044" fill="rgb(102,102,102)"  stroke="rgb(102,102,102)" stroke-width="1" font-size="13" >3</text>
<text x="89.840809" y="459.062044" fill="rgb(102,102,102)"  stroke="rgb(102,102,102)" stroke-width="1" font-size="16" >C</text>
<text font-size="18.000000" fill ="black" font-family="sans-serif"
x="10.000000" y="20.000000" ></text>
<title> - OBDepict</title>
</svg>
