<?xml version="1.0"?>
<svg xmlns="http://www.w3.org/2000/svg"
xmlns:xlink="http://www.w3.org/1999/xlink" xmlns:cml="http://www.xml-cml.org/schema" width="390.72" height="236.467" x="0" y="0" font-family="sans-serif" stroke="rgb(0,0,0)" stroke-width="1"  stroke-linecap="round">
<rect x="0%" y="0%" width="100%" height="100%" stroke-width="0" fill="rgb(255,255,255)"  />
<line x1="197.6" y1="129.8" x2="170.6" y2="129.8" stroke="rgb(0,0,0)"  stroke-width="1.0"/>
<line x1="197.6" y1="123.8" x2="170.6" y2="123.8" stroke="rgb(0,0,0)"  stroke-width="1.0"/>
<line x1="230.7" y1="161.4" x2="217.2" y2="138.1" stroke="rgb(0,0,0)"  stroke-width="1.0"/>
<line x1="270.8" y1="161.4" x2="230.7" y2="161.4" stroke="rgb(0,0,0)"  stroke-width="1.0"/>
<line x1="198.5" y1="48.5" x2="159.4" y2="56.4" stroke="rgb(0,0,0)"  stroke-width="1.0"/>
<line x1="224.7" y1="42.8" x2="198.5" y2="48.5" stroke="rgb(0,0,0)"  stroke-width="1.0"/>
<line x1="225.6" y1="46.9" x2="199.4" y2="52.6" stroke="rgb(0,0,0)"  stroke-width="1.0"/>
<line x1="223.8" y1="38.7" x2="197.6" y2="44.4" stroke="rgb(0,0,0)"  stroke-width="1.0"/>
<line x1="214.8" y1="183.7" x2="228.1" y2="160.0" stroke="rgb(0,0,0)"  stroke-width="1.0"/>
<line x1="220.0" y1="186.6" x2="233.3" y2="162.9" stroke="rgb(0,0,0)"  stroke-width="1.0"/>
<line x1="159.4" y1="56.4" x2="151.2" y2="82.3" stroke="rgb(0,0,0)"  stroke-width="1.0"/>
<line x1="74.4" y1="60.1" x2="74.4" y2="86.8" stroke="rgb(0,0,0)"  stroke-width="1.0"/>
<line x1="276.8" y1="103.4" x2="290.6" y2="126.8" stroke="rgb(0,0,0)"  stroke-width="1.0"/>
<line x1="274.6" y1="66.2" x2="272.4" y2="79.4" stroke="rgb(0,0,0)"  stroke-width="1.0"/>
<line x1="170.6" y1="126.8" x2="154.8" y2="149.0" stroke="rgb(0,0,0)"  stroke-width="1.0"/>
<line x1="134.9" y1="155.7" x2="109.2" y2="147.5" stroke="rgb(0,0,0)"  stroke-width="1.0"/>
<line x1="109.2" y1="147.5" x2="109.0" y2="107.4" stroke="rgb(0,0,0)"  stroke-width="1.0"/>
<line x1="116.4" y1="141.4" x2="116.3" y2="113.4" stroke="rgb(0,0,0)"  stroke-width="1.0"/>
<line x1="109.0" y1="107.4" x2="135.0" y2="98.8" stroke="rgb(0,0,0)"  stroke-width="1.0"/>
<line x1="154.9" y1="105.2" x2="170.6" y2="126.8" stroke="rgb(0,0,0)"  stroke-width="1.0"/>
<line x1="270.8" y1="161.4" x2="290.6" y2="126.8" stroke="rgb(0,0,0)"  stroke-width="1.0"/>
<line x1="290.6" y1="126.8" x2="330.3" y2="126.6" stroke="rgb(0,0,0)"  stroke-width="1.0"/>
<line x1="296.6" y1="134.0" x2="324.3" y2="133.9" stroke="rgb(0,0,0)"  stroke-width="1.0"/>
<line x1="330.3" y1="126.6" x2="350.7" y2="161.2" stroke="rgb(0,0,0)"  stroke-width="1.0"/>
<line x1="350.7" y1="161.2" x2="330.7" y2="196.5" stroke="rgb(0,0,0)"  stroke-width="1.0"/>
<line x1="341.5" y1="162.9" x2="327.4" y2="187.7" stroke="rgb(0,0,0)"  stroke-width="1.0"/>
<line x1="330.7" y1="196.5" x2="290.8" y2="195.9" stroke="rgb(0,0,0)"  stroke-width="1.0"/>
<line x1="290.8" y1="195.9" x2="270.8" y2="161.4" stroke="rgb(0,0,0)"  stroke-width="1.0"/>
<line x1="294.0" y1="187.1" x2="280.0" y2="163.0" stroke="rgb(0,0,0)"  stroke-width="1.0"/>
<line x1="74.4" y1="86.8" x2="40.0" y2="107.4" stroke="rgb(0,0,0)"  stroke-width="1.0"/>
<line x1="73.0" y1="96.0" x2="48.8" y2="110.5" stroke="rgb(0,0,0)"  stroke-width="1.0"/>
<line x1="40.0" y1="107.4" x2="40.0" y2="147.5" stroke="rgb(0,0,0)"  stroke-width="1.0"/>
<line x1="40.0" y1="147.5" x2="74.4" y2="167.3" stroke="rgb(0,0,0)"  stroke-width="1.0"/>
<line x1="48.8" y1="144.2" x2="72.8" y2="158.1" stroke="rgb(0,0,0)"  stroke-width="1.0"/>
<line x1="74.4" y1="167.3" x2="109.2" y2="147.5" stroke="rgb(0,0,0)"  stroke-width="1.0"/>
<line x1="109.0" y1="107.4" x2="74.4" y2="86.8" stroke="rgb(0,0,0)"  stroke-width="1.0"/>
<text x="204.644348" y="134.835073" fill="rgb(12,12,255)"  stroke="rgb(12,12,255)" stroke-width="1" font-size="16" >N</text>
<text x="141.287140" y="102.653788" fill="rgb(12,12,255)"  stroke="rgb(12,12,255)" stroke-width="1" font-size="16" >N</text>
<text x="141.287140" y="167.628318" fill="rgb(178,178,0)"  stroke="rgb(178,178,0)" stroke-width="1" font-size="16" >S</text>
<text x="231.366569" y="48.000000" fill="rgb(102,102,102)"  stroke="rgb(102,102,102)" stroke-width="1" font-size="16" >CH</text>
<text x="205.047464" y="204.467293" fill="rgb(255,12,12)"  stroke="rgb(255,12,12)" stroke-width="1" font-size="16" >O</text>
<text x="68.415422" y="55.081243" fill="rgb(127,178,255)"  stroke="rgb(127,178,255)" stroke-width="1" font-size="16" >F</text>
<text x="264.154956" y="100.225379" fill="rgb(255,12,12)"  stroke="rgb(255,12,12)" stroke-width="1" font-size="16" >O</text>
<text x="272.837940" y="61.356253" fill="rgb(102,102,102)"  stroke="rgb(102,102,102)" stroke-width="1" font-size="16" >CH</text>
<text x="296.837940" y="65.036253" fill="rgb(102,102,102)"  stroke="rgb(102,102,102)" stroke-width="1" font-size="13" >3</text>
<text font-size="18.000000" fill ="black" font-family="sans-serif"
x="10.000000" y="20.000000" ></text>
<title> - OBDepict</title>
</svg>
