<?xml version="1.0"?>
<svg xmlns="http://www.w3.org/2000/svg"
xmlns:xlink="http://www.w3.org/1999/xlink" xmlns:cml="http://www.xml-cml.org/schema" width="525.389" height="365.443" x="0" y="0" font-family="sans-serif" stroke="rgb(0,0,0)" stroke-width="1"  stroke-linecap="round">
<rect x="0%" y="0%" width="100%" height="100%" stroke-width="0" fill="rgb(255,255,255)"  />
<line x1="178.3" y1="98.3" x2="217.8" y2="104.7" stroke="rgb(0,0,0)"  stroke-width="1.0"/>
<line x1="177.3" y1="104.2" x2="216.8" y2="110.6" stroke="rgb(0,0,0)"  stroke-width="1.0"/>
<line x1="316.8" y1="79.5" x2="292.9" y2="91.7" stroke="rgb(0,0,0)"  stroke-width="1.0"/>
<line x1="291.8" y1="158.6" x2="272.6" y2="139.4" stroke="rgb(0,0,0)"  stroke-width="1.0"/>
<line x1="296.0" y1="154.4" x2="276.8" y2="135.2" stroke="rgb(0,0,0)"  stroke-width="1.0"/>
<line x1="65.0" y1="294.6" x2="90.2" y2="263.2" stroke="rgb(0,0,0)"  stroke-width="1.0"/>
<line x1="48.2" y1="315.3" x2="65.0" y2="294.6" stroke="rgb(0,0,0)"  stroke-width="1.0"/>
<line x1="44.9" y1="312.7" x2="61.7" y2="292.0" stroke="rgb(0,0,0)"  stroke-width="1.0"/>
<line x1="51.4" y1="318.0" x2="68.2" y2="297.3" stroke="rgb(0,0,0)"  stroke-width="1.0"/>
<line x1="244.4" y1="52.4" x2="248.6" y2="79.0" stroke="rgb(0,0,0)"  stroke-width="1.0"/>
<line x1="238.5" y1="53.3" x2="242.7" y2="80.0" stroke="rgb(0,0,0)"  stroke-width="1.0"/>
<line x1="152.4" y1="132.7" x2="177.8" y2="101.2" stroke="rgb(0,0,0)"  stroke-width="1.0"/>
<line x1="350.2" y1="101.6" x2="316.8" y2="79.5" stroke="rgb(0,0,0)"  stroke-width="1.0"/>
<line x1="90.2" y1="263.2" x2="80.5" y2="238.3" stroke="rgb(0,0,0)"  stroke-width="1.0"/>
<line x1="84.1" y1="216.0" x2="101.2" y2="194.9" stroke="rgb(0,0,0)"  stroke-width="1.0"/>
<line x1="438.9" y1="160.0" x2="416.7" y2="145.4" stroke="rgb(0,0,0)"  stroke-width="1.0"/>
<line x1="473.7" y1="155.2" x2="461.4" y2="161.3" stroke="rgb(0,0,0)"  stroke-width="1.0"/>
<line x1="279.2" y1="110.4" x2="274.7" y2="137.3" stroke="rgb(0,0,0)"  stroke-width="1.0"/>
<line x1="274.7" y1="137.3" x2="248.2" y2="141.5" stroke="rgb(0,0,0)"  stroke-width="1.0"/>
<line x1="229.5" y1="131.9" x2="217.3" y2="107.7" stroke="rgb(0,0,0)"  stroke-width="1.0"/>
<line x1="217.3" y1="107.7" x2="245.7" y2="79.5" stroke="rgb(0,0,0)"  stroke-width="1.0"/>
<line x1="245.7" y1="79.5" x2="269.7" y2="91.7" stroke="rgb(0,0,0)"  stroke-width="1.0"/>
<line x1="350.2" y1="101.6" x2="385.7" y2="83.5" stroke="rgb(0,0,0)"  stroke-width="1.0"/>
<line x1="385.7" y1="83.5" x2="419.1" y2="105.5" stroke="rgb(0,0,0)"  stroke-width="1.0"/>
<line x1="386.7" y1="92.8" x2="410.1" y2="108.2" stroke="rgb(0,0,0)"  stroke-width="1.0"/>
<line x1="419.1" y1="105.5" x2="416.7" y2="145.4" stroke="rgb(0,0,0)"  stroke-width="1.0"/>
<line x1="416.7" y1="145.4" x2="381.0" y2="162.9" stroke="rgb(0,0,0)"  stroke-width="1.0"/>
<line x1="408.1" y1="141.5" x2="383.3" y2="153.8" stroke="rgb(0,0,0)"  stroke-width="1.0"/>
<line x1="381.0" y1="162.9" x2="347.8" y2="141.1" stroke="rgb(0,0,0)"  stroke-width="1.0"/>
<line x1="347.8" y1="141.1" x2="350.2" y2="101.6" stroke="rgb(0,0,0)"  stroke-width="1.0"/>
<line x1="355.4" y1="135.6" x2="357.0" y2="108.1" stroke="rgb(0,0,0)"  stroke-width="1.0"/>
<line x1="152.4" y1="132.7" x2="166.5" y2="169.9" stroke="rgb(0,0,0)"  stroke-width="1.0"/>
<line x1="166.5" y1="169.9" x2="141.1" y2="201.0" stroke="rgb(0,0,0)"  stroke-width="1.0"/>
<line x1="157.1" y1="170.0" x2="139.4" y2="191.8" stroke="rgb(0,0,0)"  stroke-width="1.0"/>
<line x1="141.1" y1="201.0" x2="101.2" y2="194.9" stroke="rgb(0,0,0)"  stroke-width="1.0"/>
<line x1="101.2" y1="194.9" x2="87.1" y2="156.8" stroke="rgb(0,0,0)"  stroke-width="1.0"/>
<line x1="105.9" y1="186.8" x2="96.0" y2="160.0" stroke="rgb(0,0,0)"  stroke-width="1.0"/>
<line x1="87.1" y1="156.8" x2="112.5" y2="126.0" stroke="rgb(0,0,0)"  stroke-width="1.0"/>
<line x1="112.5" y1="126.0" x2="152.4" y2="132.7" stroke="rgb(0,0,0)"  stroke-width="1.0"/>
<line x1="117.3" y1="134.1" x2="145.3" y2="138.8" stroke="rgb(0,0,0)"  stroke-width="1.0"/>
<text x="275.329967" y="105.613305" fill="rgb(12,12,255)"  stroke="rgb(12,12,255)" stroke-width="1" font-size="16" >N</text>
<text x="229.403226" y="151.540046" fill="rgb(178,178,0)"  stroke="rgb(178,178,0)" stroke-width="1" font-size="16" >S</text>
<text x="297.083463" y="173.700874" fill="rgb(178,178,0)"  stroke="rgb(178,178,0)" stroke-width="1" font-size="16" >S</text>
<text x="22.000000" y="333.443108" fill="rgb(102,102,102)"  stroke="rgb(102,102,102)" stroke-width="1" font-size="16" >HC</text>
<text x="233.428059" y="48.000000" fill="rgb(255,12,12)"  stroke="rgb(255,12,12)" stroke-width="1" font-size="16" >O</text>
<text x="69.859809" y="234.131562" fill="rgb(255,12,12)"  stroke="rgb(255,12,12)" stroke-width="1" font-size="16" >O</text>
<text x="443.732866" y="175.111990" fill="rgb(255,12,12)"  stroke="rgb(255,12,12)" stroke-width="1" font-size="16" >O</text>
<text x="481.389009" y="157.383328" fill="rgb(102,102,102)"  stroke="rgb(102,102,102)" stroke-width="1" font-size="16" >CH</text>
<text x="505.389009" y="161.063328" fill="rgb(102,102,102)"  stroke="rgb(102,102,102)" stroke-width="1" font-size="13" >3</text>
<text font-size="18.000000" fill ="black" font-family="sans-serif"
x="10.000000" y="20.000000" ></text>
<title> - OBDepict</title>
</svg>
