<?xml version="1.0"?>
<svg xmlns="http://www.w3.org/2000/svg"
xmlns:xlink="http://www.w3.org/1999/xlink" xmlns:cml="http://www.xml-cml.org/schema" width="374.322" height="451.318" x="0" y="0" font-family="sans-serif" stroke="rgb(0,0,0)" stroke-width="1"  stroke-linecap="round">
<rect x="0%" y="0%" width="100%" height="100%" stroke-width="0" fill="rgb(255,255,255)"  />
<line x1="173.4" y1="145.7" x2="165.0" y2="171.5" stroke="rgb(0,0,0)"  stroke-width="1.0"/>
<line x1="167.7" y1="143.9" x2="159.3" y2="169.6" stroke="rgb(0,0,0)"  stroke-width="1.0"/>
<line x1="210.5" y1="130.2" x2="242.7" y2="153.6" stroke="rgb(0,0,0)"  stroke-width="1.0"/>
<line x1="206.9" y1="135.1" x2="239.2" y2="158.5" stroke="rgb(0,0,0)"  stroke-width="1.0"/>
<line x1="240.9" y1="156.0" x2="236.9" y2="195.6" stroke="rgb(0,0,0)"  stroke-width="1.0"/>
<line x1="265.6" y1="259.4" x2="287.2" y2="275.1" stroke="rgb(0,0,0)"  stroke-width="1.0"/>
<line x1="196.2" y1="252.4" x2="171.9" y2="263.4" stroke="rgb(0,0,0)"  stroke-width="1.0"/>
<line x1="229.0" y1="275.8" x2="226.2" y2="302.6" stroke="rgb(0,0,0)"  stroke-width="1.0"/>
<line x1="309.5" y1="277.5" x2="322.5" y2="271.7" stroke="rgb(0,0,0)"  stroke-width="1.0"/>
<line x1="213.0" y1="320.8" x2="188.1" y2="331.7" stroke="rgb(0,0,0)"  stroke-width="1.0"/>
<line x1="188.1" y1="331.7" x2="184.2" y2="371.5" stroke="rgb(0,0,0)"  stroke-width="1.0"/>
<line x1="184.2" y1="371.5" x2="181.4" y2="398.4" stroke="rgb(0,0,0)"  stroke-width="1.0"/>
<line x1="188.4" y1="372.0" x2="185.5" y2="398.8" stroke="rgb(0,0,0)"  stroke-width="1.0"/>
<line x1="180.0" y1="371.1" x2="177.2" y2="397.9" stroke="rgb(0,0,0)"  stroke-width="1.0"/>
<line x1="134.4" y1="108.3" x2="108.7" y2="100.0" stroke="rgb(0,0,0)"  stroke-width="1.0"/>
<line x1="108.7" y1="100.0" x2="108.7" y2="60.4" stroke="rgb(0,0,0)"  stroke-width="1.0"/>
<line x1="115.9" y1="94.0" x2="115.9" y2="66.4" stroke="rgb(0,0,0)"  stroke-width="1.0"/>
<line x1="108.7" y1="60.4" x2="134.5" y2="52.1" stroke="rgb(0,0,0)"  stroke-width="1.0"/>
<line x1="154.7" y1="58.7" x2="170.6" y2="80.2" stroke="rgb(0,0,0)"  stroke-width="1.0"/>
<line x1="150.1" y1="64.6" x2="161.2" y2="79.6" stroke="rgb(0,0,0)"  stroke-width="1.0"/>
<line x1="170.6" y1="80.2" x2="154.6" y2="101.8" stroke="rgb(0,0,0)"  stroke-width="1.0"/>
<line x1="208.7" y1="132.6" x2="170.6" y2="144.8" stroke="rgb(0,0,0)"  stroke-width="1.0"/>
<line x1="170.6" y1="144.8" x2="154.5" y2="122.7" stroke="rgb(0,0,0)"  stroke-width="1.0"/>
<line x1="170.6" y1="80.2" x2="196.3" y2="88.5" stroke="rgb(0,0,0)"  stroke-width="1.0"/>
<line x1="208.7" y1="105.5" x2="208.7" y2="132.6" stroke="rgb(0,0,0)"  stroke-width="1.0"/>
<line x1="74.4" y1="40.0" x2="108.7" y2="60.4" stroke="rgb(0,0,0)"  stroke-width="1.0"/>
<line x1="108.7" y1="100.0" x2="74.4" y2="120.1" stroke="rgb(0,0,0)"  stroke-width="1.0"/>
<line x1="74.4" y1="120.1" x2="40.0" y2="100.0" stroke="rgb(0,0,0)"  stroke-width="1.0"/>
<line x1="72.9" y1="110.9" x2="48.8" y2="96.8" stroke="rgb(0,0,0)"  stroke-width="1.0"/>
<line x1="40.0" y1="100.0" x2="40.0" y2="60.4" stroke="rgb(0,0,0)"  stroke-width="1.0"/>
<line x1="40.0" y1="60.4" x2="74.4" y2="40.0" stroke="rgb(0,0,0)"  stroke-width="1.0"/>
<line x1="48.8" y1="63.6" x2="73.0" y2="49.3" stroke="rgb(0,0,0)"  stroke-width="1.0"/>
<line x1="236.9" y1="195.6" x2="200.6" y2="212.2" stroke="rgb(0,0,0)"  stroke-width="1.0"/>
<line x1="234.4" y1="204.7" x2="209.1" y2="216.3" stroke="rgb(0,0,0)"  stroke-width="1.0"/>
<line x1="200.6" y1="212.2" x2="196.2" y2="252.4" stroke="rgb(0,0,0)"  stroke-width="1.0"/>
<line x1="196.2" y1="252.4" x2="229.0" y2="275.8" stroke="rgb(0,0,0)"  stroke-width="1.0"/>
<line x1="205.2" y1="250.0" x2="228.3" y2="266.4" stroke="rgb(0,0,0)"  stroke-width="1.0"/>
<line x1="229.0" y1="275.8" x2="265.6" y2="259.4" stroke="rgb(0,0,0)"  stroke-width="1.0"/>
<line x1="265.6" y1="259.4" x2="269.7" y2="219.4" stroke="rgb(0,0,0)"  stroke-width="1.0"/>
<line x1="259.1" y1="252.7" x2="261.9" y2="224.6" stroke="rgb(0,0,0)"  stroke-width="1.0"/>
<line x1="269.7" y1="219.4" x2="236.9" y2="195.6" stroke="rgb(0,0,0)"  stroke-width="1.0"/>
<text x="140.828461" y="120.206286" fill="rgb(12,12,255)"  stroke="rgb(12,12,255)" stroke-width="1" font-size="16" >N</text>
<text x="140.828461" y="56.110179" fill="rgb(12,12,255)"  stroke="rgb(12,12,255)" stroke-width="1" font-size="16" >N</text>
<text x="202.709176" y="100.495594" fill="rgb(178,178,0)"  stroke="rgb(178,178,0)" stroke-width="1" font-size="16" >S</text>
<text x="152.060550" y="190.929181" fill="rgb(255,12,12)"  stroke="rgb(255,12,12)" stroke-width="1" font-size="16" >O</text>
<text x="291.669066" y="290.757583" fill="rgb(255,12,12)"  stroke="rgb(255,12,12)" stroke-width="1" font-size="16" >O</text>
<text x="154.082036" y="276.757465" fill="rgb(147,0,147)"  stroke="rgb(147,0,147)" stroke-width="1" font-size="16" >I</text>
<text x="218.914991" y="323.542485" fill="rgb(255,12,12)"  stroke="rgb(255,12,12)" stroke-width="1" font-size="16" >O</text>
<text x="330.322422" y="274.367556" fill="rgb(102,102,102)"  stroke="rgb(102,102,102)" stroke-width="1" font-size="16" >CH</text>
<text x="354.322422" y="278.047556" fill="rgb(102,102,102)"  stroke="rgb(102,102,102)" stroke-width="1" font-size="13" >3</text>
<text x="161.981788" y="419.318222" fill="rgb(102,102,102)"  stroke="rgb(102,102,102)" stroke-width="1" font-size="16" >HC</text>
<text font-size="18.000000" fill ="black" font-family="sans-serif"
x="10.000000" y="20.000000" ></text>
<title> - OBDepict</title>
</svg>
