<?xml version="1.0"?>
<svg xmlns="http://www.w3.org/2000/svg"
xmlns:xlink="http://www.w3.org/1999/xlink" xmlns:cml="http://www.xml-cml.org/schema" width="351.769" height="446.944" x="0" y="0" font-family="sans-serif" stroke="rgb(0,0,0)" stroke-width="1"  stroke-linecap="round">
<rect x="0%" y="0%" width="100%" height="100%" stroke-width="0" fill="rgb(255,255,255)"  />
<line x1="268.1" y1="195.6" x2="271.0" y2="222.5" stroke="rgb(0,0,0)"  stroke-width="1.0"/>
<line x1="163.5" y1="300.6" x2="141.4" y2="316.6" stroke="rgb(0,0,0)"  stroke-width="1.0"/>
<line x1="210.5" y1="309.3" x2="185.8" y2="298.3" stroke="rgb(0,0,0)"  stroke-width="1.0"/>
<line x1="242.9" y1="285.7" x2="210.5" y2="309.3" stroke="rgb(0,0,0)"  stroke-width="1.0"/>
<line x1="290.8" y1="79.6" x2="295.0" y2="119.4" stroke="rgb(0,0,0)"  stroke-width="1.0"/>
<line x1="288.0" y1="52.9" x2="290.8" y2="79.6" stroke="rgb(0,0,0)"  stroke-width="1.0"/>
<line x1="292.2" y1="52.5" x2="294.9" y2="79.2" stroke="rgb(0,0,0)"  stroke-width="1.0"/>
<line x1="283.9" y1="53.4" x2="286.6" y2="80.0" stroke="rgb(0,0,0)"  stroke-width="1.0"/>
<line x1="239.7" y1="182.5" x2="253.5" y2="181.1" stroke="rgb(0,0,0)"  stroke-width="1.0"/>
<line x1="240.4" y1="188.5" x2="254.1" y2="187.0" stroke="rgb(0,0,0)"  stroke-width="1.0"/>
<line x1="293.9" y1="182.8" x2="280.0" y2="184.3" stroke="rgb(0,0,0)"  stroke-width="1.0"/>
<line x1="293.3" y1="176.8" x2="279.3" y2="178.3" stroke="rgb(0,0,0)"  stroke-width="1.0"/>
<line x1="264.0" y1="155.8" x2="265.4" y2="169.7" stroke="rgb(0,0,0)"  stroke-width="1.0"/>
<line x1="210.3" y1="336.5" x2="207.6" y2="309.7" stroke="rgb(0,0,0)"  stroke-width="1.0"/>
<line x1="216.3" y1="335.9" x2="213.5" y2="309.0" stroke="rgb(0,0,0)"  stroke-width="1.0"/>
<line x1="295.0" y1="119.4" x2="273.2" y2="135.2" stroke="rgb(0,0,0)"  stroke-width="1.0"/>
<line x1="95.1" y1="394.6" x2="103.4" y2="369.0" stroke="rgb(0,0,0)"  stroke-width="1.0"/>
<line x1="53.0" y1="336.6" x2="80.0" y2="336.6" stroke="rgb(0,0,0)"  stroke-width="1.0"/>
<line x1="141.4" y1="316.6" x2="115.8" y2="308.2" stroke="rgb(0,0,0)"  stroke-width="1.0"/>
<line x1="95.8" y1="314.6" x2="80.0" y2="336.6" stroke="rgb(0,0,0)"  stroke-width="1.0"/>
<line x1="80.0" y1="336.6" x2="103.4" y2="369.0" stroke="rgb(0,0,0)"  stroke-width="1.0"/>
<line x1="89.4" y1="337.3" x2="105.8" y2="359.9" stroke="rgb(0,0,0)"  stroke-width="1.0"/>
<line x1="103.4" y1="369.0" x2="129.1" y2="360.6" stroke="rgb(0,0,0)"  stroke-width="1.0"/>
<line x1="141.4" y1="343.4" x2="141.4" y2="316.6" stroke="rgb(0,0,0)"  stroke-width="1.0"/>
<line x1="134.2" y1="341.4" x2="134.2" y2="322.6" stroke="rgb(0,0,0)"  stroke-width="1.0"/>
<line x1="271.0" y1="222.5" x2="307.5" y2="238.8" stroke="rgb(0,0,0)"  stroke-width="1.0"/>
<line x1="273.5" y1="231.5" x2="299.1" y2="242.9" stroke="rgb(0,0,0)"  stroke-width="1.0"/>
<line x1="307.5" y1="238.8" x2="311.8" y2="278.6" stroke="rgb(0,0,0)"  stroke-width="1.0"/>
<line x1="311.8" y1="278.6" x2="279.4" y2="302.1" stroke="rgb(0,0,0)"  stroke-width="1.0"/>
<line x1="302.7" y1="276.3" x2="280.1" y2="292.7" stroke="rgb(0,0,0)"  stroke-width="1.0"/>
<line x1="279.4" y1="302.1" x2="242.9" y2="285.7" stroke="rgb(0,0,0)"  stroke-width="1.0"/>
<line x1="242.9" y1="285.7" x2="238.6" y2="245.9" stroke="rgb(0,0,0)"  stroke-width="1.0"/>
<line x1="249.4" y1="279.0" x2="246.4" y2="251.1" stroke="rgb(0,0,0)"  stroke-width="1.0"/>
<line x1="238.6" y1="245.9" x2="271.0" y2="222.5" stroke="rgb(0,0,0)"  stroke-width="1.0"/>
<text x="260.713491" y="190.655000" fill="rgb(178,178,0)"  stroke="rgb(178,178,0)" stroke-width="1" font-size="16" >S</text>
<text x="135.430838" y="364.630664" fill="rgb(12,12,255)"  stroke="rgb(12,12,255)" stroke-width="1" font-size="16" >N</text>
<text x="167.968827" y="300.980557" fill="rgb(12,12,255)"  stroke="rgb(12,12,255)" stroke-width="1" font-size="16" >N</text>
<text x="167.968827" y="284.980557" fill="rgb(12,12,255)"  stroke="rgb(12,12,255)" stroke-width="1" font-size="16" >H</text>
<text x="97.446410" y="312.091682" fill="rgb(178,178,0)"  stroke="rgb(178,178,0)" stroke-width="1" font-size="16" >S</text>
<text x="268.719335" y="48.000000" fill="rgb(102,102,102)"  stroke="rgb(102,102,102)" stroke-width="1" font-size="16" >HC</text>
<text x="221.109196" y="194.898664" fill="rgb(255,12,12)"  stroke="rgb(255,12,12)" stroke-width="1" font-size="16" >O</text>
<text x="300.516632" y="186.411336" fill="rgb(255,12,12)"  stroke="rgb(255,12,12)" stroke-width="1" font-size="16" >O</text>
<text x="244.668674" y="150.847009" fill="rgb(12,12,255)"  stroke="rgb(12,12,255)" stroke-width="1" font-size="16" >HN</text>
<text x="208.581901" y="357.152116" fill="rgb(255,12,12)"  stroke="rgb(255,12,12)" stroke-width="1" font-size="16" >O</text>
<text x="65.117961" y="414.943541" fill="rgb(102,102,102)"  stroke="rgb(102,102,102)" stroke-width="1" font-size="16" >H</text>
<text x="77.117961" y="418.623541" fill="rgb(102,102,102)"  stroke="rgb(102,102,102)" stroke-width="1" font-size="13" >3</text>
<text x="83.617961" y="414.943541" fill="rgb(102,102,102)"  stroke="rgb(102,102,102)" stroke-width="1" font-size="16" >C</text>
<text x="14.000000" y="344.624820" fill="rgb(102,102,102)"  stroke="rgb(102,102,102)" stroke-width="1" font-size="16" >H</text>
<text x="26.000000" y="348.304820" fill="rgb(102,102,102)"  stroke="rgb(102,102,102)" stroke-width="1" font-size="13" >3</text>
<text x="32.500000" y="344.624820" fill="rgb(102,102,102)"  stroke="rgb(102,102,102)" stroke-width="1" font-size="16" >C</text>
<text font-size="18.000000" fill ="black" font-family="sans-serif"
x="10.000000" y="20.000000" ></text>
<title> - OBDepict</title>
</svg>
