<?xml version="1.0"?>
<svg xmlns="http://www.w3.org/2000/svg"
xmlns:xlink="http://www.w3.org/1999/xlink" xmlns:cml="http://www.xml-cml.org/schema" width="460.441" height="321.311" x="0" y="0" font-family="sans-serif" stroke="rgb(0,0,0)" stroke-width="1"  stroke-linecap="round">
<rect x="0%" y="0%" width="100%" height="100%" stroke-width="0" fill="rgb(255,255,255)"  />
<line x1="40.0" y1="201.3" x2="74.5" y2="221.1" stroke="rgb(0,0,0)"  stroke-width="1.0"/>
<line x1="351.0" y1="100.2" x2="374.3" y2="86.7" stroke="rgb(0,0,0)"  stroke-width="1.0"/>
<line x1="40.0" y1="174.4" x2="40.0" y2="201.3" stroke="rgb(0,0,0)"  stroke-width="1.0"/>
<line x1="44.2" y1="174.4" x2="44.2" y2="201.3" stroke="rgb(0,0,0)"  stroke-width="1.0"/>
<line x1="35.8" y1="174.4" x2="35.8" y2="201.3" stroke="rgb(0,0,0)"  stroke-width="1.0"/>
<line x1="178.1" y1="160.8" x2="212.7" y2="140.8" stroke="rgb(0,0,0)"  stroke-width="1.0"/>
<line x1="409.1" y1="93.3" x2="396.9" y2="86.5" stroke="rgb(0,0,0)"  stroke-width="1.0"/>
<line x1="178.3" y1="187.7" x2="178.1" y2="160.8" stroke="rgb(0,0,0)"  stroke-width="1.0"/>
<line x1="388.5" y1="53.0" x2="388.5" y2="67.2" stroke="rgb(0,0,0)"  stroke-width="1.0"/>
<line x1="382.5" y1="53.0" x2="382.5" y2="67.2" stroke="rgb(0,0,0)"  stroke-width="1.0"/>
<line x1="143.8" y1="221.1" x2="167.1" y2="207.4" stroke="rgb(0,0,0)"  stroke-width="1.0"/>
<line x1="156.0" y1="144.6" x2="179.6" y2="158.2" stroke="rgb(0,0,0)"  stroke-width="1.0"/>
<line x1="153.0" y1="149.8" x2="176.6" y2="163.4" stroke="rgb(0,0,0)"  stroke-width="1.0"/>
<line x1="258.6" y1="154.0" x2="281.9" y2="140.6" stroke="rgb(0,0,0)"  stroke-width="1.0"/>
<line x1="212.7" y1="140.8" x2="236.1" y2="154.1" stroke="rgb(0,0,0)"  stroke-width="1.0"/>
<line x1="351.0" y1="100.2" x2="315.8" y2="80.2" stroke="rgb(0,0,0)"  stroke-width="1.0"/>
<line x1="315.8" y1="80.2" x2="281.7" y2="100.6" stroke="rgb(0,0,0)"  stroke-width="1.0"/>
<line x1="314.4" y1="89.4" x2="290.6" y2="103.7" stroke="rgb(0,0,0)"  stroke-width="1.0"/>
<line x1="281.7" y1="100.6" x2="281.9" y2="140.6" stroke="rgb(0,0,0)"  stroke-width="1.0"/>
<line x1="281.9" y1="140.6" x2="316.4" y2="160.2" stroke="rgb(0,0,0)"  stroke-width="1.0"/>
<line x1="290.7" y1="137.3" x2="314.8" y2="150.9" stroke="rgb(0,0,0)"  stroke-width="1.0"/>
<line x1="316.4" y1="160.2" x2="351.0" y2="140.2" stroke="rgb(0,0,0)"  stroke-width="1.0"/>
<line x1="351.0" y1="140.2" x2="351.0" y2="100.2" stroke="rgb(0,0,0)"  stroke-width="1.0"/>
<line x1="343.8" y1="134.2" x2="343.8" y2="106.2" stroke="rgb(0,0,0)"  stroke-width="1.0"/>
<line x1="143.8" y1="221.1" x2="109.1" y2="201.1" stroke="rgb(0,0,0)"  stroke-width="1.0"/>
<line x1="135.0" y1="224.4" x2="110.7" y2="210.4" stroke="rgb(0,0,0)"  stroke-width="1.0"/>
<line x1="109.1" y1="201.1" x2="74.5" y2="221.1" stroke="rgb(0,0,0)"  stroke-width="1.0"/>
<line x1="74.5" y1="221.1" x2="74.5" y2="261.3" stroke="rgb(0,0,0)"  stroke-width="1.0"/>
<line x1="81.7" y1="227.1" x2="81.7" y2="255.3" stroke="rgb(0,0,0)"  stroke-width="1.0"/>
<line x1="74.5" y1="261.3" x2="109.1" y2="281.3" stroke="rgb(0,0,0)"  stroke-width="1.0"/>
<line x1="109.1" y1="281.3" x2="143.8" y2="261.3" stroke="rgb(0,0,0)"  stroke-width="1.0"/>
<line x1="110.7" y1="272.1" x2="135.0" y2="258.1" stroke="rgb(0,0,0)"  stroke-width="1.0"/>
<line x1="143.8" y1="261.3" x2="143.8" y2="221.1" stroke="rgb(0,0,0)"  stroke-width="1.0"/>
<text x="390.307833" y="76.154149" fill="rgb(12,12,255)"  stroke="rgb(12,12,255)" stroke-width="1" font-size="16" >+</text>
<text x="379.507833" y="88.186149" fill="rgb(12,12,255)"  stroke="rgb(12,12,255)" stroke-width="1" font-size="16" >N</text>
<text x="34.000000" y="169.362946" fill="rgb(102,102,102)"  stroke="rgb(102,102,102)" stroke-width="1" font-size="16" >CH</text>
<text x="425.240511" y="85.459653" fill="rgb(255,12,12)"  stroke="rgb(255,12,12)" stroke-width="1" font-size="16" >_</text>
<text x="414.440511" y="107.571653" fill="rgb(255,12,12)"  stroke="rgb(255,12,12)" stroke-width="1" font-size="16" >O</text>
<text x="172.325262" y="208.739751" fill="rgb(12,12,255)"  stroke="rgb(12,12,255)" stroke-width="1" font-size="16" >NH</text>
<text x="379.507833" y="48.000000" fill="rgb(255,12,12)"  stroke="rgb(255,12,12)" stroke-width="1" font-size="16" >O</text>
<text x="137.189036" y="148.765848" fill="rgb(255,12,12)"  stroke="rgb(255,12,12)" stroke-width="1" font-size="16" >O</text>
<text x="241.386119" y="168.553601" fill="rgb(255,12,12)"  stroke="rgb(255,12,12)" stroke-width="1" font-size="16" >O</text>
<text font-size="18.000000" fill ="black" font-family="sans-serif"
x="10.000000" y="20.000000" ></text>
<title> - OBDepict</title>
</svg>
