<?xml version="1.0"?>
<svg xmlns="http://www.w3.org/2000/svg"
xmlns:xlink="http://www.w3.org/1999/xlink" xmlns:cml="http://www.xml-cml.org/schema" width="426.221" height="309.598" x="0" y="0" font-family="sans-serif" stroke="rgb(0,0,0)" stroke-width="1"  stroke-linecap="round">
<rect x="0%" y="0%" width="100%" height="100%" stroke-width="0" fill="rgb(255,255,255)"  />
<line x1="263.5" y1="136.1" x2="237.5" y2="144.7" stroke="rgb(0,0,0)"  stroke-width="1.0"/>
<line x1="261.6" y1="130.4" x2="235.6" y2="139.0" stroke="rgb(0,0,0)"  stroke-width="1.0"/>
<line x1="283.4" y1="90.3" x2="277.6" y2="116.5" stroke="rgb(0,0,0)"  stroke-width="1.0"/>
<line x1="321.1" y1="77.9" x2="283.4" y2="90.3" stroke="rgb(0,0,0)"  stroke-width="1.0"/>
<line x1="287.0" y1="208.3" x2="247.5" y2="212.4" stroke="rgb(0,0,0)"  stroke-width="1.0"/>
<line x1="298.4" y1="183.6" x2="287.0" y2="208.3" stroke="rgb(0,0,0)"  stroke-width="1.0"/>
<line x1="302.2" y1="185.4" x2="290.9" y2="210.1" stroke="rgb(0,0,0)"  stroke-width="1.0"/>
<line x1="294.6" y1="181.9" x2="283.2" y2="206.6" stroke="rgb(0,0,0)"  stroke-width="1.0"/>
<line x1="265.2" y1="69.8" x2="285.4" y2="88.1" stroke="rgb(0,0,0)"  stroke-width="1.0"/>
<line x1="261.2" y1="74.3" x2="281.4" y2="92.5" stroke="rgb(0,0,0)"  stroke-width="1.0"/>
<line x1="247.5" y1="212.4" x2="231.8" y2="190.7" stroke="rgb(0,0,0)"  stroke-width="1.0"/>
<line x1="100.4" y1="221.8" x2="118.5" y2="201.4" stroke="rgb(0,0,0)"  stroke-width="1.0"/>
<line x1="79.5" y1="157.6" x2="105.7" y2="163.3" stroke="rgb(0,0,0)"  stroke-width="1.0"/>
<line x1="48.7" y1="174.9" x2="58.1" y2="164.5" stroke="rgb(0,0,0)"  stroke-width="1.0"/>
<line x1="99.9" y1="257.2" x2="95.7" y2="243.8" stroke="rgb(0,0,0)"  stroke-width="1.0"/>
<line x1="236.5" y1="141.8" x2="214.6" y2="125.9" stroke="rgb(0,0,0)"  stroke-width="1.0"/>
<line x1="193.6" y1="126.0" x2="171.8" y2="142.0" stroke="rgb(0,0,0)"  stroke-width="1.0"/>
<line x1="171.8" y1="142.0" x2="184.0" y2="180.2" stroke="rgb(0,0,0)"  stroke-width="1.0"/>
<line x1="180.5" y1="145.5" x2="189.0" y2="172.2" stroke="rgb(0,0,0)"  stroke-width="1.0"/>
<line x1="184.0" y1="180.2" x2="211.2" y2="180.2" stroke="rgb(0,0,0)"  stroke-width="1.0"/>
<line x1="228.2" y1="167.8" x2="236.5" y2="141.8" stroke="rgb(0,0,0)"  stroke-width="1.0"/>
<line x1="321.1" y1="77.9" x2="342.8" y2="93.6" stroke="rgb(0,0,0)"  stroke-width="1.0"/>
<line x1="363.9" y1="93.6" x2="386.2" y2="77.5" stroke="rgb(0,0,0)"  stroke-width="1.0"/>
<line x1="386.2" y1="77.5" x2="374.1" y2="40.6" stroke="rgb(0,0,0)"  stroke-width="1.0"/>
<line x1="377.5" y1="74.1" x2="369.1" y2="48.6" stroke="rgb(0,0,0)"  stroke-width="1.0"/>
<line x1="374.1" y1="40.6" x2="333.9" y2="40.0" stroke="rgb(0,0,0)"  stroke-width="1.0"/>
<line x1="333.9" y1="40.0" x2="321.1" y2="77.9" stroke="rgb(0,0,0)"  stroke-width="1.0"/>
<line x1="338.8" y1="48.0" x2="329.9" y2="74.5" stroke="rgb(0,0,0)"  stroke-width="1.0"/>
<line x1="157.4" y1="209.6" x2="118.5" y2="201.4" stroke="rgb(0,0,0)"  stroke-width="1.0"/>
<line x1="153.0" y1="201.3" x2="125.8" y2="195.6" stroke="rgb(0,0,0)"  stroke-width="1.0"/>
<line x1="118.5" y1="201.4" x2="105.7" y2="163.3" stroke="rgb(0,0,0)"  stroke-width="1.0"/>
<line x1="105.7" y1="163.3" x2="132.5" y2="133.5" stroke="rgb(0,0,0)"  stroke-width="1.0"/>
<line x1="115.1" y1="163.7" x2="133.8" y2="142.8" stroke="rgb(0,0,0)"  stroke-width="1.0"/>
<line x1="132.5" y1="133.5" x2="171.8" y2="142.0" stroke="rgb(0,0,0)"  stroke-width="1.0"/>
<line x1="184.0" y1="180.2" x2="157.4" y2="209.6" stroke="rgb(0,0,0)"  stroke-width="1.0"/>
<text x="268.871110" y="137.246462" fill="rgb(12,12,255)"  stroke="rgb(12,12,255)" stroke-width="1" font-size="16" >N</text>
<text x="218.164216" y="188.152263" fill="rgb(12,12,255)"  stroke="rgb(12,12,255)" stroke-width="1" font-size="16" >N</text>
<text x="198.084248" y="126.291987" fill="rgb(178,178,0)"  stroke="rgb(178,178,0)" stroke-width="1" font-size="16" >S</text>
<text x="297.872814" y="179.836953" fill="rgb(102,102,102)"  stroke="rgb(102,102,102)" stroke-width="1" font-size="16" >CH</text>
<text x="347.366856" y="109.253850" fill="rgb(255,12,12)"  stroke="rgb(255,12,12)" stroke-width="1" font-size="16" >O</text>
<text x="247.573439" y="71.325559" fill="rgb(255,12,12)"  stroke="rgb(255,12,12)" stroke-width="1" font-size="16" >O</text>
<text x="85.720837" y="239.465582" fill="rgb(255,12,12)"  stroke="rgb(255,12,12)" stroke-width="1" font-size="16" >O</text>
<text x="60.774909" y="162.798816" fill="rgb(255,12,12)"  stroke="rgb(255,12,12)" stroke-width="1" font-size="16" >O</text>
<text x="14.000000" y="192.615556" fill="rgb(102,102,102)"  stroke="rgb(102,102,102)" stroke-width="1" font-size="16" >H</text>
<text x="26.000000" y="196.295556" fill="rgb(102,102,102)"  stroke="rgb(102,102,102)" stroke-width="1" font-size="13" >3</text>
<text x="32.500000" y="192.615556" fill="rgb(102,102,102)"  stroke="rgb(102,102,102)" stroke-width="1" font-size="16" >C</text>
<text x="99.893015" y="277.597632" fill="rgb(102,102,102)"  stroke="rgb(102,102,102)" stroke-width="1" font-size="16" >CH</text>
<text x="123.893015" y="281.277632" fill="rgb(102,102,102)"  stroke="rgb(102,102,102)" stroke-width="1" font-size="13" >3</text>
<text font-size="18.000000" fill ="black" font-family="sans-serif"
x="10.000000" y="20.000000" ></text>
<title> - OBDepict</title>
</svg>
