<?xml version="1.0"?>
<svg xmlns="http://www.w3.org/2000/svg"
xmlns:xlink="http://www.w3.org/1999/xlink" xmlns:cml="http://www.xml-cml.org/schema" width="568.099" height="242.52" x="0" y="0" font-family="sans-serif" stroke="rgb(0,0,0)" stroke-width="1"  stroke-linecap="round">
<rect x="0%" y="0%" width="100%" height="100%" stroke-width="0" fill="rgb(255,255,255)"  />
<line x1="207.9" y1="165.9" x2="199.8" y2="191.1" stroke="rgb(0,0,0)"  stroke-width="1.0"/>
<line x1="202.2" y1="164.0" x2="194.1" y2="189.2" stroke="rgb(0,0,0)"  stroke-width="1.0"/>
<line x1="245.4" y1="150.1" x2="277.6" y2="173.4" stroke="rgb(0,0,0)"  stroke-width="1.0"/>
<line x1="241.9" y1="155.0" x2="274.1" y2="178.2" stroke="rgb(0,0,0)"  stroke-width="1.0"/>
<line x1="74.8" y1="120.2" x2="51.3" y2="133.7" stroke="rgb(0,0,0)"  stroke-width="1.0"/>
<line x1="275.9" y1="175.8" x2="312.3" y2="159.6" stroke="rgb(0,0,0)"  stroke-width="1.0"/>
<line x1="74.8" y1="80.2" x2="51.3" y2="66.7" stroke="rgb(0,0,0)"  stroke-width="1.0"/>
<line x1="353.2" y1="103.0" x2="356.0" y2="76.3" stroke="rgb(0,0,0)"  stroke-width="1.0"/>
<line x1="381.4" y1="166.6" x2="403.3" y2="182.4" stroke="rgb(0,0,0)"  stroke-width="1.0"/>
<line x1="385.9" y1="127.0" x2="410.3" y2="115.8" stroke="rgb(0,0,0)"  stroke-width="1.0"/>
<line x1="346.8" y1="55.7" x2="335.7" y2="47.7" stroke="rgb(0,0,0)"  stroke-width="1.0"/>
<line x1="432.6" y1="118.1" x2="454.6" y2="134.2" stroke="rgb(0,0,0)"  stroke-width="1.0"/>
<line x1="454.6" y1="134.2" x2="491.4" y2="117.8" stroke="rgb(0,0,0)"  stroke-width="1.0"/>
<line x1="491.4" y1="117.8" x2="516.2" y2="106.9" stroke="rgb(0,0,0)"  stroke-width="1.0"/>
<line x1="489.8" y1="113.9" x2="514.5" y2="103.1" stroke="rgb(0,0,0)"  stroke-width="1.0"/>
<line x1="493.1" y1="121.6" x2="517.9" y2="110.8" stroke="rgb(0,0,0)"  stroke-width="1.0"/>
<line x1="169.3" y1="128.5" x2="143.6" y2="120.2" stroke="rgb(0,0,0)"  stroke-width="1.0"/>
<line x1="143.6" y1="120.2" x2="143.6" y2="80.2" stroke="rgb(0,0,0)"  stroke-width="1.0"/>
<line x1="150.8" y1="114.2" x2="150.8" y2="86.2" stroke="rgb(0,0,0)"  stroke-width="1.0"/>
<line x1="143.6" y1="80.2" x2="169.3" y2="72.1" stroke="rgb(0,0,0)"  stroke-width="1.0"/>
<line x1="189.4" y1="78.8" x2="205.1" y2="100.3" stroke="rgb(0,0,0)"  stroke-width="1.0"/>
<line x1="184.8" y1="84.7" x2="195.7" y2="99.7" stroke="rgb(0,0,0)"  stroke-width="1.0"/>
<line x1="205.1" y1="100.3" x2="189.3" y2="122.0" stroke="rgb(0,0,0)"  stroke-width="1.0"/>
<line x1="243.6" y1="152.6" x2="205.1" y2="164.9" stroke="rgb(0,0,0)"  stroke-width="1.0"/>
<line x1="205.1" y1="164.9" x2="189.3" y2="143.0" stroke="rgb(0,0,0)"  stroke-width="1.0"/>
<line x1="205.1" y1="100.3" x2="231.2" y2="108.5" stroke="rgb(0,0,0)"  stroke-width="1.0"/>
<line x1="243.6" y1="125.4" x2="243.6" y2="152.6" stroke="rgb(0,0,0)"  stroke-width="1.0"/>
<line x1="108.9" y1="60.3" x2="143.6" y2="80.2" stroke="rgb(0,0,0)"  stroke-width="1.0"/>
<line x1="143.6" y1="120.2" x2="108.9" y2="140.2" stroke="rgb(0,0,0)"  stroke-width="1.0"/>
<line x1="108.9" y1="140.2" x2="74.8" y2="120.2" stroke="rgb(0,0,0)"  stroke-width="1.0"/>
<line x1="107.4" y1="131.0" x2="83.6" y2="117.0" stroke="rgb(0,0,0)"  stroke-width="1.0"/>
<line x1="74.8" y1="120.2" x2="74.8" y2="80.2" stroke="rgb(0,0,0)"  stroke-width="1.0"/>
<line x1="74.8" y1="80.2" x2="108.9" y2="60.3" stroke="rgb(0,0,0)"  stroke-width="1.0"/>
<line x1="83.6" y1="83.4" x2="107.4" y2="69.5" stroke="rgb(0,0,0)"  stroke-width="1.0"/>
<line x1="312.3" y1="159.6" x2="344.6" y2="183.0" stroke="rgb(0,0,0)"  stroke-width="1.0"/>
<line x1="321.4" y1="157.3" x2="344.0" y2="173.6" stroke="rgb(0,0,0)"  stroke-width="1.0"/>
<line x1="344.6" y1="183.0" x2="381.4" y2="166.6" stroke="rgb(0,0,0)"  stroke-width="1.0"/>
<line x1="381.4" y1="166.6" x2="385.9" y2="127.0" stroke="rgb(0,0,0)"  stroke-width="1.0"/>
<line x1="374.9" y1="159.8" x2="378.0" y2="132.1" stroke="rgb(0,0,0)"  stroke-width="1.0"/>
<line x1="385.9" y1="127.0" x2="353.2" y2="103.0" stroke="rgb(0,0,0)"  stroke-width="1.0"/>
<line x1="353.2" y1="103.0" x2="316.6" y2="119.6" stroke="rgb(0,0,0)"  stroke-width="1.0"/>
<line x1="350.7" y1="112.0" x2="325.0" y2="123.7" stroke="rgb(0,0,0)"  stroke-width="1.0"/>
<line x1="316.6" y1="119.6" x2="312.3" y2="159.6" stroke="rgb(0,0,0)"  stroke-width="1.0"/>
<text x="175.696274" y="140.496179" fill="rgb(12,12,255)"  stroke="rgb(12,12,255)" stroke-width="1" font-size="16" >N</text>
<text x="175.696274" y="76.191897" fill="rgb(12,12,255)"  stroke="rgb(12,12,255)" stroke-width="1" font-size="16" >N</text>
<text x="237.605990" y="120.418662" fill="rgb(178,178,0)"  stroke="rgb(178,178,0)" stroke-width="1" font-size="16" >S</text>
<text x="186.932316" y="210.520275" fill="rgb(255,12,12)"  stroke="rgb(255,12,12)" stroke-width="1" font-size="16" >O</text>
<text x="14.000000" y="148.242164" fill="rgb(102,102,102)"  stroke="rgb(102,102,102)" stroke-width="1" font-size="16" >H</text>
<text x="26.000000" y="151.922164" fill="rgb(102,102,102)"  stroke="rgb(102,102,102)" stroke-width="1" font-size="13" >3</text>
<text x="32.500000" y="148.242164" fill="rgb(102,102,102)"  stroke="rgb(102,102,102)" stroke-width="1" font-size="16" >C</text>
<text x="14.000000" y="68.266561" fill="rgb(102,102,102)"  stroke="rgb(102,102,102)" stroke-width="1" font-size="16" >H</text>
<text x="26.000000" y="71.946561" fill="rgb(102,102,102)"  stroke="rgb(102,102,102)" stroke-width="1" font-size="13" >3</text>
<text x="32.500000" y="68.266561" fill="rgb(102,102,102)"  stroke="rgb(102,102,102)" stroke-width="1" font-size="16" >C</text>
<text x="351.294564" y="71.397917" fill="rgb(255,12,12)"  stroke="rgb(255,12,12)" stroke-width="1" font-size="16" >O</text>
<text x="407.857708" y="197.990004" fill="rgb(147,0,147)"  stroke="rgb(147,0,147)" stroke-width="1" font-size="16" >I</text>
<text x="416.151439" y="118.392491" fill="rgb(255,12,12)"  stroke="rgb(255,12,12)" stroke-width="1" font-size="16" >O</text>
<text x="299.234522" y="48.000000" fill="rgb(102,102,102)"  stroke="rgb(102,102,102)" stroke-width="1" font-size="16" >H</text>
<text x="311.234522" y="51.680000" fill="rgb(102,102,102)"  stroke="rgb(102,102,102)" stroke-width="1" font-size="13" >3</text>
<text x="317.734522" y="48.000000" fill="rgb(102,102,102)"  stroke="rgb(102,102,102)" stroke-width="1" font-size="16" >C</text>
<text x="522.098875" y="109.730366" fill="rgb(102,102,102)"  stroke="rgb(102,102,102)" stroke-width="1" font-size="16" >CH</text>
<text font-size="18.000000" fill ="black" font-family="sans-serif"
x="10.000000" y="20.000000" ></text>
<title> - OBDepict</title>
</svg>
