<?xml version="1.0"?>
<svg xmlns="http://www.w3.org/2000/svg"
xmlns:xlink="http://www.w3.org/1999/xlink" xmlns:cml="http://www.xml-cml.org/schema" width="380.318" height="211.657" x="0" y="0" font-family="sans-serif" stroke="rgb(0,0,0)" stroke-width="1"  stroke-linecap="round">
<rect x="0%" y="0%" width="100%" height="100%" stroke-width="0" fill="rgb(255,255,255)"  />
<line x1="86.9" y1="85.3" x2="94.7" y2="98.2" stroke="rgb(0,0,0)"  stroke-width="1.0"/>
<line x1="114.4" y1="106.3" x2="142.0" y2="106.3" stroke="rgb(0,0,0)"  stroke-width="1.0"/>
<line x1="114.4" y1="112.3" x2="142.0" y2="112.3" stroke="rgb(0,0,0)"  stroke-width="1.0"/>
<line x1="306.5" y1="151.6" x2="272.1" y2="131.3" stroke="rgb(0,0,0)"  stroke-width="1.0"/>
<line x1="305.9" y1="68.7" x2="272.1" y2="89.0" stroke="rgb(0,0,0)"  stroke-width="1.0"/>
<line x1="328.6" y1="55.1" x2="305.9" y2="68.7" stroke="rgb(0,0,0)"  stroke-width="1.0"/>
<line x1="330.8" y1="58.7" x2="308.1" y2="72.3" stroke="rgb(0,0,0)"  stroke-width="1.0"/>
<line x1="326.4" y1="51.5" x2="303.8" y2="65.1" stroke="rgb(0,0,0)"  stroke-width="1.0"/>
<line x1="329.1" y1="165.0" x2="306.5" y2="151.6" stroke="rgb(0,0,0)"  stroke-width="1.0"/>
<line x1="327.0" y1="168.6" x2="304.4" y2="155.2" stroke="rgb(0,0,0)"  stroke-width="1.0"/>
<line x1="331.3" y1="161.4" x2="308.7" y2="148.0" stroke="rgb(0,0,0)"  stroke-width="1.0"/>
<line x1="94.6" y1="51.0" x2="87.1" y2="63.1" stroke="rgb(0,0,0)"  stroke-width="1.0"/>
<line x1="53.0" y1="71.2" x2="67.2" y2="71.2" stroke="rgb(0,0,0)"  stroke-width="1.0"/>
<line x1="53.0" y1="77.2" x2="67.2" y2="77.2" stroke="rgb(0,0,0)"  stroke-width="1.0"/>
<line x1="226.1" y1="144.3" x2="203.0" y2="131.1" stroke="rgb(0,0,0)"  stroke-width="1.0"/>
<line x1="226.1" y1="76.2" x2="203.0" y2="89.6" stroke="rgb(0,0,0)"  stroke-width="1.0"/>
<line x1="272.1" y1="89.0" x2="248.8" y2="76.0" stroke="rgb(0,0,0)"  stroke-width="1.0"/>
<line x1="272.1" y1="131.3" x2="248.7" y2="144.4" stroke="rgb(0,0,0)"  stroke-width="1.0"/>
<line x1="142.0" y1="109.3" x2="157.2" y2="131.8" stroke="rgb(0,0,0)"  stroke-width="1.0"/>
<line x1="177.0" y1="138.8" x2="203.0" y2="131.1" stroke="rgb(0,0,0)"  stroke-width="1.0"/>
<line x1="203.0" y1="131.1" x2="203.0" y2="89.6" stroke="rgb(0,0,0)"  stroke-width="1.0"/>
<line x1="203.0" y1="89.6" x2="176.9" y2="81.6" stroke="rgb(0,0,0)"  stroke-width="1.0"/>
<line x1="157.0" y1="88.3" x2="142.0" y2="109.3" stroke="rgb(0,0,0)"  stroke-width="1.0"/>
<text x="158.519766" y="150.547961" fill="rgb(12,12,255)"  stroke="rgb(12,12,255)" stroke-width="1" font-size="16" >N</text>
<text x="158.519766" y="166.547961" fill="rgb(12,12,255)"  stroke="rgb(12,12,255)" stroke-width="1" font-size="16" >H</text>
<text x="158.519766" y="85.747301" fill="rgb(12,12,255)"  stroke="rgb(12,12,255)" stroke-width="1" font-size="16" >N</text>
<text x="158.519766" y="69.747301" fill="rgb(12,12,255)"  stroke="rgb(12,12,255)" stroke-width="1" font-size="16" >H</text>
<text x="84.993975" y="70.149045" fill="rgb(12,12,255)"  stroke="rgb(12,12,255)" stroke-width="1" font-size="16" >+</text>
<text x="74.193975" y="82.181045" fill="rgb(12,12,255)"  stroke="rgb(12,12,255)" stroke-width="1" font-size="16" >N</text>
<text x="95.412957" y="117.303118" fill="rgb(12,12,255)"  stroke="rgb(12,12,255)" stroke-width="1" font-size="16" >N</text>
<text x="333.753721" y="56.449952" fill="rgb(102,102,102)"  stroke="rgb(102,102,102)" stroke-width="1" font-size="16" >CH</text>
<text x="334.318338" y="179.657104" fill="rgb(102,102,102)"  stroke="rgb(102,102,102)" stroke-width="1" font-size="16" >CH</text>
<text x="106.212957" y="25.888000" fill="rgb(255,12,12)"  stroke="rgb(255,12,12)" stroke-width="1" font-size="16" >_</text>
<text x="95.412957" y="48.000000" fill="rgb(255,12,12)"  stroke="rgb(255,12,12)" stroke-width="1" font-size="16" >O</text>
<text x="34.000000" y="82.181045" fill="rgb(255,12,12)"  stroke="rgb(255,12,12)" stroke-width="1" font-size="16" >O</text>
<text x="231.393966" y="158.809707" fill="rgb(255,12,12)"  stroke="rgb(255,12,12)" stroke-width="1" font-size="16" >O</text>
<text x="231.393966" y="77.673760" fill="rgb(255,12,12)"  stroke="rgb(255,12,12)" stroke-width="1" font-size="16" >O</text>
<text font-size="18.000000" fill ="black" font-family="sans-serif"
x="10.000000" y="20.000000" ></text>
<title> - OBDepict</title>
</svg>
