<?xml version="1.0"?>
<svg xmlns="http://www.w3.org/2000/svg"
xmlns:xlink="http://www.w3.org/1999/xlink" xmlns:cml="http://www.xml-cml.org/schema" width="407.808" height="445.601" x="0" y="0" font-family="sans-serif" stroke="rgb(0,0,0)" stroke-width="1"  stroke-linecap="round">
<rect x="0%" y="0%" width="100%" height="100%" stroke-width="0" fill="rgb(255,255,255)"  />
<line x1="225.9" y1="79.8" x2="193.4" y2="103.5" stroke="rgb(0,0,0)"  stroke-width="1.0"/>
<line x1="331.4" y1="88.9" x2="294.8" y2="72.7" stroke="rgb(0,0,0)"  stroke-width="1.0"/>
<line x1="356.0" y1="99.9" x2="331.4" y2="88.9" stroke="rgb(0,0,0)"  stroke-width="1.0"/>
<line x1="354.2" y1="103.8" x2="329.7" y2="92.7" stroke="rgb(0,0,0)"  stroke-width="1.0"/>
<line x1="357.7" y1="96.1" x2="333.2" y2="85.1" stroke="rgb(0,0,0)"  stroke-width="1.0"/>
<line x1="143.1" y1="193.8" x2="151.4" y2="168.2" stroke="rgb(0,0,0)"  stroke-width="1.0"/>
<line x1="104.9" y1="120.5" x2="132.0" y2="120.5" stroke="rgb(0,0,0)"  stroke-width="1.0"/>
<line x1="104.9" y1="126.5" x2="132.0" y2="126.5" stroke="rgb(0,0,0)"  stroke-width="1.0"/>
<line x1="226.0" y1="52.6" x2="228.9" y2="79.5" stroke="rgb(0,0,0)"  stroke-width="1.0"/>
<line x1="220.1" y1="53.2" x2="223.0" y2="80.1" stroke="rgb(0,0,0)"  stroke-width="1.0"/>
<line x1="250.5" y1="90.9" x2="225.9" y2="79.8" stroke="rgb(0,0,0)"  stroke-width="1.0"/>
<line x1="157.4" y1="261.7" x2="169.7" y2="223.5" stroke="rgb(0,0,0)"  stroke-width="1.0"/>
<line x1="169.7" y1="223.5" x2="143.1" y2="193.8" stroke="rgb(0,0,0)"  stroke-width="1.0"/>
<line x1="79.6" y1="313.6" x2="105.9" y2="308.0" stroke="rgb(0,0,0)"  stroke-width="1.0"/>
<line x1="294.8" y1="72.7" x2="272.9" y2="88.6" stroke="rgb(0,0,0)"  stroke-width="1.0"/>
<line x1="124.4" y1="363.5" x2="132.8" y2="337.7" stroke="rgb(0,0,0)"  stroke-width="1.0"/>
<line x1="48.7" y1="296.2" x2="58.2" y2="306.6" stroke="rgb(0,0,0)"  stroke-width="1.0"/>
<line x1="138.4" y1="395.9" x2="129.1" y2="385.6" stroke="rgb(0,0,0)"  stroke-width="1.0"/>
<line x1="147.8" y1="145.3" x2="132.0" y2="123.5" stroke="rgb(0,0,0)"  stroke-width="1.0"/>
<line x1="132.0" y1="123.5" x2="155.4" y2="91.1" stroke="rgb(0,0,0)"  stroke-width="1.0"/>
<line x1="155.4" y1="91.1" x2="193.4" y2="103.5" stroke="rgb(0,0,0)"  stroke-width="1.0"/>
<line x1="193.4" y1="103.5" x2="193.4" y2="143.5" stroke="rgb(0,0,0)"  stroke-width="1.0"/>
<line x1="193.4" y1="143.5" x2="167.8" y2="151.8" stroke="rgb(0,0,0)"  stroke-width="1.0"/>
<line x1="105.9" y1="308.0" x2="118.2" y2="270.0" stroke="rgb(0,0,0)"  stroke-width="1.0"/>
<line x1="118.2" y1="270.0" x2="157.4" y2="261.7" stroke="rgb(0,0,0)"  stroke-width="1.0"/>
<line x1="125.6" y1="275.8" x2="153.0" y2="270.0" stroke="rgb(0,0,0)"  stroke-width="1.0"/>
<line x1="157.4" y1="261.7" x2="184.3" y2="291.4" stroke="rgb(0,0,0)"  stroke-width="1.0"/>
<line x1="184.3" y1="291.4" x2="171.8" y2="329.4" stroke="rgb(0,0,0)"  stroke-width="1.0"/>
<line x1="175.6" y1="294.9" x2="166.8" y2="321.5" stroke="rgb(0,0,0)"  stroke-width="1.0"/>
<line x1="171.8" y1="329.4" x2="132.8" y2="337.7" stroke="rgb(0,0,0)"  stroke-width="1.0"/>
<line x1="132.8" y1="337.7" x2="105.9" y2="308.0" stroke="rgb(0,0,0)"  stroke-width="1.0"/>
<line x1="134.1" y1="328.4" x2="115.3" y2="307.6" stroke="rgb(0,0,0)"  stroke-width="1.0"/>
<text x="149.398483" y="163.805704" fill="rgb(12,12,255)"  stroke="rgb(12,12,255)" stroke-width="1" font-size="16" >N</text>
<text x="361.807513" y="113.281296" fill="rgb(102,102,102)"  stroke="rgb(102,102,102)" stroke-width="1" font-size="16" >CH</text>
<text x="85.939983" y="131.470471" fill="rgb(255,12,12)"  stroke="rgb(255,12,12)" stroke-width="1" font-size="16" >O</text>
<text x="215.688135" y="48.000000" fill="rgb(255,12,12)"  stroke="rgb(255,12,12)" stroke-width="1" font-size="16" >O</text>
<text x="256.313210" y="104.186709" fill="rgb(12,12,255)"  stroke="rgb(12,12,255)" stroke-width="1" font-size="16" >N</text>
<text x="256.313210" y="120.186709" fill="rgb(12,12,255)"  stroke="rgb(12,12,255)" stroke-width="1" font-size="16" >H</text>
<text x="60.876541" y="324.274751" fill="rgb(255,12,12)"  stroke="rgb(255,12,12)" stroke-width="1" font-size="16" >O</text>
<text x="114.435710" y="383.893745" fill="rgb(255,12,12)"  stroke="rgb(255,12,12)" stroke-width="1" font-size="16" >O</text>
<text x="14.000000" y="294.562210" fill="rgb(102,102,102)"  stroke="rgb(102,102,102)" stroke-width="1" font-size="16" >H</text>
<text x="26.000000" y="298.242210" fill="rgb(102,102,102)"  stroke="rgb(102,102,102)" stroke-width="1" font-size="13" >3</text>
<text x="32.500000" y="294.562210" fill="rgb(102,102,102)"  stroke="rgb(102,102,102)" stroke-width="1" font-size="16" >C</text>
<text x="143.113489" y="413.601437" fill="rgb(102,102,102)"  stroke="rgb(102,102,102)" stroke-width="1" font-size="16" >CH</text>
<text x="167.113489" y="417.281437" fill="rgb(102,102,102)"  stroke="rgb(102,102,102)" stroke-width="1" font-size="13" >3</text>
<text font-size="18.000000" fill ="black" font-family="sans-serif"
x="10.000000" y="20.000000" ></text>
<title> - OBDepict</title>
</svg>
