<?xml version="1.0"?>
<svg xmlns="http://www.w3.org/2000/svg"
xmlns:xlink="http://www.w3.org/1999/xlink" xmlns:cml="http://www.xml-cml.org/schema" width="357.125" height="439.937" x="0" y="0" font-family="sans-serif" stroke="rgb(0,0,0)" stroke-width="1"  stroke-linecap="round">
<rect x="0%" y="0%" width="100%" height="100%" stroke-width="0" fill="rgb(255,255,255)"  />
<line x1="74.5" y1="60.0" x2="109.3" y2="80.0" stroke="rgb(0,0,0)"  stroke-width="1.0"/>
<line x1="51.3" y1="46.5" x2="74.5" y2="60.0" stroke="rgb(0,0,0)"  stroke-width="1.0"/>
<line x1="53.4" y1="42.9" x2="76.6" y2="56.4" stroke="rgb(0,0,0)"  stroke-width="1.0"/>
<line x1="49.1" y1="50.1" x2="72.4" y2="63.6" stroke="rgb(0,0,0)"  stroke-width="1.0"/>
<line x1="282.4" y1="379.9" x2="305.9" y2="393.5" stroke="rgb(0,0,0)"  stroke-width="1.0"/>
<line x1="284.5" y1="376.3" x2="308.0" y2="389.8" stroke="rgb(0,0,0)"  stroke-width="1.0"/>
<line x1="280.3" y1="383.6" x2="303.8" y2="397.1" stroke="rgb(0,0,0)"  stroke-width="1.0"/>
<line x1="178.6" y1="240.0" x2="201.8" y2="253.4" stroke="rgb(0,0,0)"  stroke-width="1.0"/>
<line x1="213.1" y1="273.0" x2="213.1" y2="300.0" stroke="rgb(0,0,0)"  stroke-width="1.0"/>
<line x1="155.1" y1="186.5" x2="178.6" y2="200.0" stroke="rgb(0,0,0)"  stroke-width="1.0"/>
<line x1="153.6" y1="250.9" x2="177.1" y2="237.4" stroke="rgb(0,0,0)"  stroke-width="1.0"/>
<line x1="156.6" y1="256.1" x2="180.1" y2="242.6" stroke="rgb(0,0,0)"  stroke-width="1.0"/>
<line x1="178.6" y1="200.0" x2="178.6" y2="240.0" stroke="rgb(0,0,0)"  stroke-width="1.0"/>
<line x1="247.8" y1="359.9" x2="282.4" y2="379.9" stroke="rgb(0,0,0)"  stroke-width="1.0"/>
<line x1="143.8" y1="140.0" x2="143.8" y2="167.0" stroke="rgb(0,0,0)"  stroke-width="1.0"/>
<line x1="213.1" y1="300.0" x2="247.8" y2="320.0" stroke="rgb(0,0,0)"  stroke-width="1.0"/>
<line x1="214.7" y1="309.2" x2="239.1" y2="323.2" stroke="rgb(0,0,0)"  stroke-width="1.0"/>
<line x1="247.8" y1="320.0" x2="247.8" y2="359.9" stroke="rgb(0,0,0)"  stroke-width="1.0"/>
<line x1="247.8" y1="359.9" x2="213.1" y2="379.9" stroke="rgb(0,0,0)"  stroke-width="1.0"/>
<line x1="239.1" y1="356.7" x2="214.7" y2="370.7" stroke="rgb(0,0,0)"  stroke-width="1.0"/>
<line x1="213.1" y1="379.9" x2="178.6" y2="359.9" stroke="rgb(0,0,0)"  stroke-width="1.0"/>
<line x1="178.6" y1="359.9" x2="178.6" y2="320.0" stroke="rgb(0,0,0)"  stroke-width="1.0"/>
<line x1="185.8" y1="353.9" x2="185.8" y2="326.0" stroke="rgb(0,0,0)"  stroke-width="1.0"/>
<line x1="178.6" y1="320.0" x2="213.1" y2="300.0" stroke="rgb(0,0,0)"  stroke-width="1.0"/>
<line x1="109.3" y1="80.0" x2="143.8" y2="60.0" stroke="rgb(0,0,0)"  stroke-width="1.0"/>
<line x1="118.1" y1="83.2" x2="142.2" y2="69.2" stroke="rgb(0,0,0)"  stroke-width="1.0"/>
<line x1="143.8" y1="60.0" x2="178.6" y2="80.0" stroke="rgb(0,0,0)"  stroke-width="1.0"/>
<line x1="178.6" y1="80.0" x2="178.6" y2="120.0" stroke="rgb(0,0,0)"  stroke-width="1.0"/>
<line x1="171.4" y1="86.0" x2="171.4" y2="114.0" stroke="rgb(0,0,0)"  stroke-width="1.0"/>
<line x1="178.6" y1="120.0" x2="143.8" y2="140.0" stroke="rgb(0,0,0)"  stroke-width="1.0"/>
<line x1="143.8" y1="140.0" x2="109.3" y2="120.0" stroke="rgb(0,0,0)"  stroke-width="1.0"/>
<line x1="142.2" y1="130.7" x2="118.1" y2="116.8" stroke="rgb(0,0,0)"  stroke-width="1.0"/>
<line x1="109.3" y1="120.0" x2="109.3" y2="80.0" stroke="rgb(0,0,0)"  stroke-width="1.0"/>
<text x="311.125109" y="407.937365" fill="rgb(12,12,255)"  stroke="rgb(12,12,255)" stroke-width="1" font-size="16" >N</text>
<text x="22.000000" y="48.000000" fill="rgb(102,102,102)"  stroke="rgb(102,102,102)" stroke-width="1" font-size="16" >HC</text>
<text x="207.099575" y="267.961723" fill="rgb(12,12,255)"  stroke="rgb(12,12,255)" stroke-width="1" font-size="16" >NH</text>
<text x="125.821933" y="187.975642" fill="rgb(12,12,255)"  stroke="rgb(12,12,255)" stroke-width="1" font-size="16" >HN</text>
<text x="137.821933" y="267.961723" fill="rgb(255,12,12)"  stroke="rgb(255,12,12)" stroke-width="1" font-size="16" >O</text>
<text font-size="18.000000" fill ="black" font-family="sans-serif"
x="10.000000" y="20.000000" ></text>
<title> - OBDepict</title>
</svg>
