<?xml version="1.0"?>
<svg xmlns="http://www.w3.org/2000/svg"
xmlns:xlink="http://www.w3.org/1999/xlink" xmlns:cml="http://www.xml-cml.org/schema" width="322.496" height="239.832" x="0" y="0" font-family="sans-serif" stroke="rgb(0,0,0)" stroke-width="1"  stroke-linecap="round">
<rect x="0%" y="0%" width="100%" height="100%" stroke-width="0" fill="rgb(255,255,255)"  />
<line x1="74.5" y1="180.2" x2="109.5" y2="160.2" stroke="rgb(0,0,0)"  stroke-width="1.0"/>
<line x1="51.3" y1="193.4" x2="74.5" y2="180.2" stroke="rgb(0,0,0)"  stroke-width="1.0"/>
<line x1="49.2" y1="189.7" x2="72.4" y2="176.5" stroke="rgb(0,0,0)"  stroke-width="1.0"/>
<line x1="53.4" y1="197.0" x2="76.6" y2="183.8" stroke="rgb(0,0,0)"  stroke-width="1.0"/>
<line x1="155.5" y1="106.1" x2="179.0" y2="120.0" stroke="rgb(0,0,0)"  stroke-width="1.0"/>
<line x1="155.4" y1="173.7" x2="179.0" y2="160.2" stroke="rgb(0,0,0)"  stroke-width="1.0"/>
<line x1="109.5" y1="160.2" x2="132.9" y2="173.7" stroke="rgb(0,0,0)"  stroke-width="1.0"/>
<line x1="179.0" y1="120.0" x2="213.5" y2="99.5" stroke="rgb(0,0,0)"  stroke-width="1.0"/>
<line x1="213.5" y1="99.5" x2="248.2" y2="119.7" stroke="rgb(0,0,0)"  stroke-width="1.0"/>
<line x1="248.2" y1="119.7" x2="248.2" y2="160.2" stroke="rgb(0,0,0)"  stroke-width="1.0"/>
<line x1="248.2" y1="160.2" x2="213.5" y2="180.2" stroke="rgb(0,0,0)"  stroke-width="1.0"/>
<line x1="239.4" y1="156.9" x2="215.1" y2="170.9" stroke="rgb(0,0,0)"  stroke-width="1.0"/>
<line x1="213.5" y1="180.2" x2="179.0" y2="160.2" stroke="rgb(0,0,0)"  stroke-width="1.0"/>
<line x1="179.0" y1="160.2" x2="179.0" y2="120.0" stroke="rgb(0,0,0)"  stroke-width="1.0"/>
<line x1="186.2" y1="154.2" x2="186.2" y2="126.0" stroke="rgb(0,0,0)"  stroke-width="1.0"/>
<line x1="248.2" y1="119.7" x2="282.5" y2="99.5" stroke="rgb(0,0,0)"  stroke-width="1.0"/>
<line x1="249.7" y1="110.4" x2="273.7" y2="96.3" stroke="rgb(0,0,0)"  stroke-width="1.0"/>
<line x1="282.5" y1="99.5" x2="282.5" y2="59.8" stroke="rgb(0,0,0)"  stroke-width="1.0"/>
<line x1="282.5" y1="59.8" x2="247.5" y2="40.0" stroke="rgb(0,0,0)"  stroke-width="1.0"/>
<line x1="273.7" y1="63.1" x2="249.2" y2="49.2" stroke="rgb(0,0,0)"  stroke-width="1.0"/>
<line x1="247.5" y1="40.0" x2="213.3" y2="60.2" stroke="rgb(0,0,0)"  stroke-width="1.0"/>
<line x1="213.3" y1="60.2" x2="213.5" y2="99.5" stroke="rgb(0,0,0)"  stroke-width="1.0"/>
<line x1="220.6" y1="66.1" x2="220.7" y2="93.5" stroke="rgb(0,0,0)"  stroke-width="1.0"/>
<text x="22.000000" y="207.832006" fill="rgb(102,102,102)"  stroke="rgb(102,102,102)" stroke-width="1" font-size="16" >HC</text>
<text x="126.328112" y="107.501029" fill="rgb(165,40,40)"  stroke="rgb(165,40,40)" stroke-width="1" font-size="16" >Br</text>
<text x="138.163182" y="188.166494" fill="rgb(255,12,12)"  stroke="rgb(255,12,12)" stroke-width="1" font-size="16" >O</text>
<text font-size="18.000000" fill ="black" font-family="sans-serif"
x="10.000000" y="20.000000" ></text>
<title> - OBDepict</title>
</svg>
