<?xml version="1.0"?>
<svg xmlns="http://www.w3.org/2000/svg"
xmlns:xlink="http://www.w3.org/1999/xlink" xmlns:cml="http://www.xml-cml.org/schema" width="426.673" height="340.008" x="0" y="0" font-family="sans-serif" stroke="rgb(0,0,0)" stroke-width="1"  stroke-linecap="round">
<rect x="0%" y="0%" width="100%" height="100%" stroke-width="0" fill="rgb(255,255,255)"  />
<line x1="247.4" y1="140.3" x2="212.8" y2="160.1" stroke="rgb(0,0,0)"  stroke-width="1.0"/>
<line x1="283.9" y1="202.4" x2="260.5" y2="216.4" stroke="rgb(0,0,0)"  stroke-width="1.0"/>
<line x1="280.8" y1="197.3" x2="257.4" y2="211.3" stroke="rgb(0,0,0)"  stroke-width="1.0"/>
<line x1="247.4" y1="100.2" x2="212.8" y2="79.9" stroke="rgb(0,0,0)"  stroke-width="1.0"/>
<line x1="282.4" y1="79.9" x2="282.4" y2="53.0" stroke="rgb(0,0,0)"  stroke-width="1.0"/>
<line x1="212.8" y1="79.9" x2="189.3" y2="66.4" stroke="rgb(0,0,0)"  stroke-width="1.0"/>
<line x1="210.8" y1="83.6" x2="187.3" y2="70.1" stroke="rgb(0,0,0)"  stroke-width="1.0"/>
<line x1="214.9" y1="76.3" x2="191.4" y2="62.8" stroke="rgb(0,0,0)"  stroke-width="1.0"/>
<line x1="352.2" y1="199.7" x2="352.2" y2="226.8" stroke="rgb(0,0,0)"  stroke-width="1.0"/>
<line x1="352.2" y1="199.7" x2="375.5" y2="186.0" stroke="rgb(0,0,0)"  stroke-width="1.0"/>
<line x1="143.8" y1="159.9" x2="120.6" y2="146.5" stroke="rgb(0,0,0)"  stroke-width="1.0"/>
<line x1="178.1" y1="219.8" x2="178.1" y2="246.6" stroke="rgb(0,0,0)"  stroke-width="1.0"/>
<line x1="143.5" y1="200.5" x2="120.0" y2="214.0" stroke="rgb(0,0,0)"  stroke-width="1.0"/>
<line x1="108.7" y1="233.5" x2="108.7" y2="260.1" stroke="rgb(0,0,0)"  stroke-width="1.0"/>
<line x1="108.7" y1="260.1" x2="74.4" y2="280.2" stroke="rgb(0,0,0)"  stroke-width="1.0"/>
<line x1="74.4" y1="280.2" x2="51.3" y2="293.5" stroke="rgb(0,0,0)"  stroke-width="1.0"/>
<line x1="76.5" y1="283.8" x2="53.4" y2="297.2" stroke="rgb(0,0,0)"  stroke-width="1.0"/>
<line x1="72.3" y1="276.6" x2="49.2" y2="289.9" stroke="rgb(0,0,0)"  stroke-width="1.0"/>
<line x1="282.4" y1="160.1" x2="317.1" y2="140.0" stroke="rgb(0,0,0)"  stroke-width="1.0"/>
<line x1="284.0" y1="150.9" x2="308.3" y2="136.7" stroke="rgb(0,0,0)"  stroke-width="1.0"/>
<line x1="317.1" y1="140.0" x2="316.9" y2="112.9" stroke="rgb(0,0,0)"  stroke-width="1.0"/>
<line x1="305.6" y1="93.4" x2="282.4" y2="79.9" stroke="rgb(0,0,0)"  stroke-width="1.0"/>
<line x1="282.4" y1="79.9" x2="247.4" y2="100.2" stroke="rgb(0,0,0)"  stroke-width="1.0"/>
<line x1="280.8" y1="89.2" x2="256.2" y2="103.4" stroke="rgb(0,0,0)"  stroke-width="1.0"/>
<line x1="247.4" y1="100.2" x2="247.4" y2="140.3" stroke="rgb(0,0,0)"  stroke-width="1.0"/>
<line x1="247.4" y1="140.3" x2="282.4" y2="160.1" stroke="rgb(0,0,0)"  stroke-width="1.0"/>
<line x1="282.4" y1="160.1" x2="282.4" y2="199.9" stroke="rgb(0,0,0)"  stroke-width="1.0"/>
<line x1="282.4" y1="199.9" x2="317.5" y2="220.2" stroke="rgb(0,0,0)"  stroke-width="1.0"/>
<line x1="317.5" y1="220.2" x2="352.2" y2="199.7" stroke="rgb(0,0,0)"  stroke-width="1.0"/>
<line x1="352.2" y1="199.7" x2="351.7" y2="159.9" stroke="rgb(0,0,0)"  stroke-width="1.0"/>
<line x1="351.7" y1="159.9" x2="317.1" y2="140.0" stroke="rgb(0,0,0)"  stroke-width="1.0"/>
<line x1="212.8" y1="160.1" x2="212.8" y2="199.9" stroke="rgb(0,0,0)"  stroke-width="1.0"/>
<line x1="212.8" y1="199.9" x2="178.1" y2="219.8" stroke="rgb(0,0,0)"  stroke-width="1.0"/>
<line x1="204.1" y1="196.6" x2="179.7" y2="210.6" stroke="rgb(0,0,0)"  stroke-width="1.0"/>
<line x1="178.1" y1="219.8" x2="143.5" y2="200.5" stroke="rgb(0,0,0)"  stroke-width="1.0"/>
<line x1="143.5" y1="200.5" x2="143.8" y2="159.9" stroke="rgb(0,0,0)"  stroke-width="1.0"/>
<line x1="150.7" y1="194.6" x2="151.0" y2="166.0" stroke="rgb(0,0,0)"  stroke-width="1.0"/>
<line x1="143.8" y1="159.9" x2="178.1" y2="140.0" stroke="rgb(0,0,0)"  stroke-width="1.0"/>
<line x1="178.1" y1="140.0" x2="212.8" y2="160.1" stroke="rgb(0,0,0)"  stroke-width="1.0"/>
<line x1="179.7" y1="149.2" x2="204.0" y2="163.3" stroke="rgb(0,0,0)"  stroke-width="1.0"/>
<text x="310.811273" y="107.885232" fill="rgb(255,12,12)"  stroke="rgb(255,12,12)" stroke-width="1" font-size="16" >O</text>
<text x="241.771239" y="228.491485" fill="rgb(255,12,12)"  stroke="rgb(255,12,12)" stroke-width="1" font-size="16" >O</text>
<text x="278.378722" y="48.000000" fill="rgb(12,12,255)"  stroke="rgb(12,12,255)" stroke-width="1" font-size="16" >NH</text>
<text x="302.378722" y="51.680000" fill="rgb(12,12,255)"  stroke="rgb(12,12,255)" stroke-width="1" font-size="13" >2</text>
<text x="172.075208" y="67.961744" fill="rgb(12,12,255)"  stroke="rgb(12,12,255)" stroke-width="1" font-size="16" >N</text>
<text x="348.239967" y="247.787513" fill="rgb(102,102,102)"  stroke="rgb(102,102,102)" stroke-width="1" font-size="16" >CH</text>
<text x="372.239967" y="251.467513" fill="rgb(102,102,102)"  stroke="rgb(102,102,102)" stroke-width="1" font-size="13" >3</text>
<text x="382.672518" y="187.401780" fill="rgb(102,102,102)"  stroke="rgb(102,102,102)" stroke-width="1" font-size="16" >CH</text>
<text x="406.672518" y="191.081780" fill="rgb(102,102,102)"  stroke="rgb(102,102,102)" stroke-width="1" font-size="13" >3</text>
<text x="91.375321" y="147.973934" fill="rgb(30,239,30)"  stroke="rgb(30,239,30)" stroke-width="1" font-size="16" >Cl</text>
<text x="172.075208" y="267.584043" fill="rgb(30,239,30)"  stroke="rgb(30,239,30)" stroke-width="1" font-size="16" >Cl</text>
<text x="102.709606" y="228.491485" fill="rgb(255,12,12)"  stroke="rgb(255,12,12)" stroke-width="1" font-size="16" >O</text>
<text x="22.000000" y="308.008033" fill="rgb(102,102,102)"  stroke="rgb(102,102,102)" stroke-width="1" font-size="16" >HC</text>
<text font-size="18.000000" fill ="black" font-family="sans-serif"
x="10.000000" y="20.000000" ></text>
<title> - OBDepict</title>
</svg>
