<?xml version="1.0"?>
<svg xmlns="http://www.w3.org/2000/svg"
xmlns:xlink="http://www.w3.org/1999/xlink" xmlns:cml="http://www.xml-cml.org/schema" width="500.058" height="253.098" x="0" y="0" font-family="sans-serif" stroke="rgb(0,0,0)" stroke-width="1"  stroke-linecap="round">
<rect x="0%" y="0%" width="100%" height="100%" stroke-width="0" fill="rgb(255,255,255)"  />
<line x1="80.1" y1="178.4" x2="120.1" y2="178.4" stroke="rgb(0,0,0)"  stroke-width="1.0"/>
<line x1="53.0" y1="178.4" x2="80.1" y2="178.4" stroke="rgb(0,0,0)"  stroke-width="1.0"/>
<line x1="53.0" y1="174.2" x2="80.1" y2="174.2" stroke="rgb(0,0,0)"  stroke-width="1.0"/>
<line x1="53.0" y1="182.6" x2="80.1" y2="182.6" stroke="rgb(0,0,0)"  stroke-width="1.0"/>
<line x1="313.8" y1="120.7" x2="300.3" y2="143.9" stroke="rgb(0,0,0)"  stroke-width="1.0"/>
<line x1="253.8" y1="201.8" x2="240.2" y2="178.4" stroke="rgb(0,0,0)"  stroke-width="1.0"/>
<line x1="153.1" y1="143.9" x2="180.2" y2="143.9" stroke="rgb(0,0,0)"  stroke-width="1.0"/>
<line x1="300.3" y1="143.9" x2="260.3" y2="143.9" stroke="rgb(0,0,0)"  stroke-width="1.0"/>
<line x1="186.7" y1="86.0" x2="200.2" y2="109.4" stroke="rgb(0,0,0)"  stroke-width="1.0"/>
<line x1="120.1" y1="178.4" x2="133.6" y2="155.1" stroke="rgb(0,0,0)"  stroke-width="1.0"/>
<line x1="360.4" y1="109.4" x2="333.3" y2="109.4" stroke="rgb(0,0,0)"  stroke-width="1.0"/>
<line x1="380.4" y1="74.7" x2="360.4" y2="109.4" stroke="rgb(0,0,0)"  stroke-width="1.0"/>
<line x1="193.7" y1="51.3" x2="186.7" y2="63.4" stroke="rgb(0,0,0)"  stroke-width="1.0"/>
<line x1="407.5" y1="74.7" x2="380.4" y2="74.7" stroke="rgb(0,0,0)"  stroke-width="1.0"/>
<line x1="366.9" y1="51.3" x2="380.4" y2="74.7" stroke="rgb(0,0,0)"  stroke-width="1.0"/>
<line x1="200.2" y1="178.4" x2="240.2" y2="178.4" stroke="rgb(0,0,0)"  stroke-width="1.0"/>
<line x1="206.2" y1="171.2" x2="234.2" y2="171.2" stroke="rgb(0,0,0)"  stroke-width="1.0"/>
<line x1="240.2" y1="178.4" x2="260.3" y2="143.9" stroke="rgb(0,0,0)"  stroke-width="1.0"/>
<line x1="260.3" y1="143.9" x2="240.2" y2="109.4" stroke="rgb(0,0,0)"  stroke-width="1.0"/>
<line x1="251.0" y1="142.3" x2="237.0" y2="118.2" stroke="rgb(0,0,0)"  stroke-width="1.0"/>
<line x1="240.2" y1="109.4" x2="200.2" y2="109.4" stroke="rgb(0,0,0)"  stroke-width="1.0"/>
<line x1="200.2" y1="109.4" x2="180.2" y2="143.9" stroke="rgb(0,0,0)"  stroke-width="1.0"/>
<line x1="203.4" y1="118.2" x2="189.4" y2="142.3" stroke="rgb(0,0,0)"  stroke-width="1.0"/>
<line x1="180.2" y1="143.9" x2="200.2" y2="178.4" stroke="rgb(0,0,0)"  stroke-width="1.0"/>
<text x="22.000000" y="186.390000" fill="rgb(102,102,102)"  stroke="rgb(102,102,102)" stroke-width="1" font-size="16" >HC</text>
<text x="314.338169" y="117.415868" fill="rgb(12,12,255)"  stroke="rgb(12,12,255)" stroke-width="1" font-size="16" >N</text>
<text x="314.338169" y="101.415868" fill="rgb(12,12,255)"  stroke="rgb(12,12,255)" stroke-width="1" font-size="16" >H</text>
<text x="254.261890" y="221.097934" fill="rgb(165,40,40)"  stroke="rgb(165,40,40)" stroke-width="1" font-size="16" >Br</text>
<text x="134.119041" y="151.905361" fill="rgb(255,12,12)"  stroke="rgb(255,12,12)" stroke-width="1" font-size="16" >O</text>
<text x="174.166658" y="82.707934" fill="rgb(255,12,12)"  stroke="rgb(255,12,12)" stroke-width="1" font-size="16" >O</text>
<text x="196.190466" y="48.000000" fill="rgb(102,102,102)"  stroke="rgb(102,102,102)" stroke-width="1" font-size="16" >CH</text>
<text x="220.190466" y="51.680000" fill="rgb(102,102,102)"  stroke="rgb(102,102,102)" stroke-width="1" font-size="13" >3</text>
<text x="416.452356" y="82.707934" fill="rgb(102,102,102)"  stroke="rgb(102,102,102)" stroke-width="1" font-size="16" >CH</text>
<text x="440.452356" y="86.387934" fill="rgb(102,102,102)"  stroke="rgb(102,102,102)" stroke-width="1" font-size="13" >3</text>
<text x="334.380931" y="48.000000" fill="rgb(102,102,102)"  stroke="rgb(102,102,102)" stroke-width="1" font-size="16" >H</text>
<text x="346.380931" y="51.680000" fill="rgb(102,102,102)"  stroke="rgb(102,102,102)" stroke-width="1" font-size="13" >3</text>
<text x="352.880931" y="48.000000" fill="rgb(102,102,102)"  stroke="rgb(102,102,102)" stroke-width="1" font-size="16" >C</text>
<text x="454.058235" y="221.097934" fill="rgb(30,239,30)"  stroke="rgb(30,239,30)" stroke-width="1" font-size="16" >ClH</text>
<text font-size="18.000000" fill ="black" font-family="sans-serif"
x="10.000000" y="20.000000" ></text>
<title> - OBDepict</title>
</svg>
