<?xml version="1.0"?>
<svg xmlns="http://www.w3.org/2000/svg"
xmlns:xlink="http://www.w3.org/1999/xlink" xmlns:cml="http://www.xml-cml.org/schema" width="365.082" height="240.211" x="0" y="0" font-family="sans-serif" stroke="rgb(0,0,0)" stroke-width="1"  stroke-linecap="round">
<rect x="0%" y="0%" width="100%" height="100%" stroke-width="0" fill="rgb(255,255,255)"  />
<line x1="146.2" y1="77.7" x2="180.7" y2="97.6" stroke="rgb(0,0,0)"  stroke-width="1.0"/>
<line x1="143.2" y1="82.9" x2="177.7" y2="102.8" stroke="rgb(0,0,0)"  stroke-width="1.0"/>
<line x1="109.9" y1="100.7" x2="144.7" y2="80.3" stroke="rgb(0,0,0)"  stroke-width="1.0"/>
<line x1="305.6" y1="142.4" x2="282.2" y2="110.2" stroke="rgb(0,0,0)"  stroke-width="1.0"/>
<line x1="318.7" y1="165.7" x2="305.6" y2="142.4" stroke="rgb(0,0,0)"  stroke-width="1.0"/>
<line x1="315.0" y1="167.8" x2="301.9" y2="144.4" stroke="rgb(0,0,0)"  stroke-width="1.0"/>
<line x1="322.4" y1="163.6" x2="309.2" y2="140.3" stroke="rgb(0,0,0)"  stroke-width="1.0"/>
<line x1="230.4" y1="174.8" x2="219.8" y2="150.0" stroke="rgb(0,0,0)"  stroke-width="1.0"/>
<line x1="235.9" y1="172.4" x2="225.3" y2="147.7" stroke="rgb(0,0,0)"  stroke-width="1.0"/>
<line x1="224.6" y1="58.8" x2="219.0" y2="85.1" stroke="rgb(0,0,0)"  stroke-width="1.0"/>
<line x1="218.7" y1="57.6" x2="213.1" y2="83.9" stroke="rgb(0,0,0)"  stroke-width="1.0"/>
<line x1="282.2" y1="110.2" x2="255.5" y2="113.1" stroke="rgb(0,0,0)"  stroke-width="1.0"/>
<line x1="74.7" y1="187.2" x2="75.0" y2="160.2" stroke="rgb(0,0,0)"  stroke-width="1.0"/>
<line x1="75.0" y1="53.0" x2="75.0" y2="80.2" stroke="rgb(0,0,0)"  stroke-width="1.0"/>
<line x1="236.0" y1="125.8" x2="222.6" y2="148.9" stroke="rgb(0,0,0)"  stroke-width="1.0"/>
<line x1="222.6" y1="148.9" x2="196.2" y2="142.9" stroke="rgb(0,0,0)"  stroke-width="1.0"/>
<line x1="182.1" y1="127.1" x2="179.2" y2="100.2" stroke="rgb(0,0,0)"  stroke-width="1.0"/>
<line x1="179.2" y1="100.2" x2="216.1" y2="84.5" stroke="rgb(0,0,0)"  stroke-width="1.0"/>
<line x1="216.1" y1="84.5" x2="234.0" y2="104.8" stroke="rgb(0,0,0)"  stroke-width="1.0"/>
<line x1="109.9" y1="100.7" x2="75.0" y2="80.2" stroke="rgb(0,0,0)"  stroke-width="1.0"/>
<line x1="101.0" y1="103.8" x2="76.5" y2="89.4" stroke="rgb(0,0,0)"  stroke-width="1.0"/>
<line x1="75.0" y1="80.2" x2="40.2" y2="100.0" stroke="rgb(0,0,0)"  stroke-width="1.0"/>
<line x1="40.2" y1="100.0" x2="40.0" y2="140.5" stroke="rgb(0,0,0)"  stroke-width="1.0"/>
<line x1="47.3" y1="106.0" x2="47.2" y2="134.6" stroke="rgb(0,0,0)"  stroke-width="1.0"/>
<line x1="40.0" y1="140.5" x2="75.0" y2="160.2" stroke="rgb(0,0,0)"  stroke-width="1.0"/>
<line x1="75.0" y1="160.2" x2="109.4" y2="140.4" stroke="rgb(0,0,0)"  stroke-width="1.0"/>
<line x1="76.6" y1="151.0" x2="100.6" y2="137.1" stroke="rgb(0,0,0)"  stroke-width="1.0"/>
<line x1="109.4" y1="140.4" x2="109.9" y2="100.7" stroke="rgb(0,0,0)"  stroke-width="1.0"/>
<text x="236.557592" y="122.522015" fill="rgb(12,12,255)"  stroke="rgb(12,12,255)" stroke-width="1" font-size="16" >N</text>
<text x="177.540776" y="148.029159" fill="rgb(178,178,0)"  stroke="rgb(178,178,0)" stroke-width="1" font-size="16" >S</text>
<text x="319.082134" y="185.037813" fill="rgb(102,102,102)"  stroke="rgb(102,102,102)" stroke-width="1" font-size="16" >CH</text>
<text x="232.223901" y="193.540195" fill="rgb(255,12,12)"  stroke="rgb(255,12,12)" stroke-width="1" font-size="16" >O</text>
<text x="218.383266" y="53.503254" fill="rgb(255,12,12)"  stroke="rgb(255,12,12)" stroke-width="1" font-size="16" >O</text>
<text x="56.509381" y="208.210685" fill="rgb(30,239,30)"  stroke="rgb(30,239,30)" stroke-width="1" font-size="16" >Cl</text>
<text x="69.014088" y="48.000000" fill="rgb(255,12,12)"  stroke="rgb(255,12,12)" stroke-width="1" font-size="16" >OH</text>
<text font-size="18.000000" fill ="black" font-family="sans-serif"
x="10.000000" y="20.000000" ></text>
<title> - OBDepict</title>
</svg>
