<?xml version="1.0"?>
<svg xmlns="http://www.w3.org/2000/svg"
xmlns:xlink="http://www.w3.org/1999/xlink" xmlns:cml="http://www.xml-cml.org/schema" width="389.799" height="420.584" x="0" y="0" font-family="sans-serif" stroke="rgb(0,0,0)" stroke-width="1"  stroke-linecap="round">
<rect x="0%" y="0%" width="100%" height="100%" stroke-width="0" fill="rgb(255,255,255)"  />
<line x1="211.7" y1="220.8" x2="211.7" y2="193.6" stroke="rgb(0,0,0)"  stroke-width="1.0"/>
<line x1="222.9" y1="174.2" x2="247.1" y2="160.4" stroke="rgb(0,0,0)"  stroke-width="1.0"/>
<line x1="177.7" y1="280.1" x2="153.8" y2="294.7" stroke="rgb(0,0,0)"  stroke-width="1.0"/>
<line x1="247.1" y1="280.1" x2="270.8" y2="294.7" stroke="rgb(0,0,0)"  stroke-width="1.0"/>
<line x1="131.4" y1="295.1" x2="107.7" y2="281.6" stroke="rgb(0,0,0)"  stroke-width="1.0"/>
<line x1="281.8" y1="314.5" x2="281.8" y2="341.4" stroke="rgb(0,0,0)"  stroke-width="1.0"/>
<line x1="281.3" y1="99.6" x2="281.3" y2="73.2" stroke="rgb(0,0,0)"  stroke-width="1.0"/>
<line x1="107.7" y1="281.6" x2="73.2" y2="301.5" stroke="rgb(0,0,0)"  stroke-width="1.0"/>
<line x1="281.8" y1="341.4" x2="316.1" y2="361.4" stroke="rgb(0,0,0)"  stroke-width="1.0"/>
<line x1="268.6" y1="56.2" x2="256.8" y2="49.2" stroke="rgb(0,0,0)"  stroke-width="1.0"/>
<line x1="271.7" y1="51.0" x2="259.8" y2="44.0" stroke="rgb(0,0,0)"  stroke-width="1.0"/>
<line x1="292.6" y1="53.7" x2="304.8" y2="46.5" stroke="rgb(0,0,0)"  stroke-width="1.0"/>
<line x1="73.2" y1="301.5" x2="51.3" y2="314.2" stroke="rgb(0,0,0)"  stroke-width="1.0"/>
<line x1="75.3" y1="305.2" x2="53.4" y2="317.9" stroke="rgb(0,0,0)"  stroke-width="1.0"/>
<line x1="71.1" y1="297.9" x2="49.2" y2="310.6" stroke="rgb(0,0,0)"  stroke-width="1.0"/>
<line x1="316.1" y1="361.4" x2="338.5" y2="374.2" stroke="rgb(0,0,0)"  stroke-width="1.0"/>
<line x1="318.1" y1="357.7" x2="340.6" y2="370.5" stroke="rgb(0,0,0)"  stroke-width="1.0"/>
<line x1="314.0" y1="365.0" x2="336.4" y2="377.8" stroke="rgb(0,0,0)"  stroke-width="1.0"/>
<line x1="211.7" y1="220.8" x2="235.4" y2="234.1" stroke="rgb(0,0,0)"  stroke-width="1.0"/>
<line x1="213.4" y1="230.0" x2="230.2" y2="239.5" stroke="rgb(0,0,0)"  stroke-width="1.0"/>
<line x1="247.1" y1="253.7" x2="247.1" y2="280.1" stroke="rgb(0,0,0)"  stroke-width="1.0"/>
<line x1="247.1" y1="280.1" x2="223.4" y2="294.5" stroke="rgb(0,0,0)"  stroke-width="1.0"/>
<line x1="238.3" y1="277.1" x2="221.2" y2="287.3" stroke="rgb(0,0,0)"  stroke-width="1.0"/>
<line x1="200.7" y1="294.6" x2="177.7" y2="280.1" stroke="rgb(0,0,0)"  stroke-width="1.0"/>
<line x1="177.7" y1="280.1" x2="177.7" y2="253.7" stroke="rgb(0,0,0)"  stroke-width="1.0"/>
<line x1="184.9" y1="274.1" x2="184.9" y2="255.8" stroke="rgb(0,0,0)"  stroke-width="1.0"/>
<line x1="188.9" y1="234.1" x2="211.7" y2="220.8" stroke="rgb(0,0,0)"  stroke-width="1.0"/>
<line x1="247.1" y1="160.4" x2="281.3" y2="180.6" stroke="rgb(0,0,0)"  stroke-width="1.0"/>
<line x1="281.3" y1="180.6" x2="316.1" y2="160.4" stroke="rgb(0,0,0)"  stroke-width="1.0"/>
<line x1="282.9" y1="171.4" x2="307.3" y2="157.2" stroke="rgb(0,0,0)"  stroke-width="1.0"/>
<line x1="316.1" y1="160.4" x2="316.1" y2="120.3" stroke="rgb(0,0,0)"  stroke-width="1.0"/>
<line x1="316.1" y1="120.3" x2="281.3" y2="99.6" stroke="rgb(0,0,0)"  stroke-width="1.0"/>
<line x1="307.2" y1="123.4" x2="282.8" y2="108.9" stroke="rgb(0,0,0)"  stroke-width="1.0"/>
<line x1="281.3" y1="99.6" x2="247.1" y2="120.3" stroke="rgb(0,0,0)"  stroke-width="1.0"/>
<line x1="247.1" y1="120.3" x2="247.1" y2="160.4" stroke="rgb(0,0,0)"  stroke-width="1.0"/>
<line x1="254.3" y1="126.3" x2="254.3" y2="154.4" stroke="rgb(0,0,0)"  stroke-width="1.0"/>
<text x="193.651937" y="188.619230" fill="rgb(12,12,255)"  stroke="rgb(12,12,255)" stroke-width="1" font-size="16" >HN</text>
<text x="171.666735" y="248.711467" fill="rgb(12,12,255)"  stroke="rgb(12,12,255)" stroke-width="1" font-size="16" >N</text>
<text x="241.110963" y="248.711467" fill="rgb(12,12,255)"  stroke="rgb(12,12,255)" stroke-width="1" font-size="16" >N</text>
<text x="205.651937" y="309.535768" fill="rgb(12,12,255)"  stroke="rgb(12,12,255)" stroke-width="1" font-size="16" >N</text>
<text x="136.692519" y="309.535768" fill="rgb(255,12,12)"  stroke="rgb(255,12,12)" stroke-width="1" font-size="16" >O</text>
<text x="275.833078" y="309.535768" fill="rgb(255,12,12)"  stroke="rgb(255,12,12)" stroke-width="1" font-size="16" >O</text>
<text x="286.138571" y="56.165197" fill="rgb(12,12,255)"  stroke="rgb(12,12,255)" stroke-width="1" font-size="16" >+</text>
<text x="275.338571" y="68.197197" fill="rgb(12,12,255)"  stroke="rgb(12,12,255)" stroke-width="1" font-size="16" >N</text>
<text x="241.110963" y="48.000000" fill="rgb(255,12,12)"  stroke="rgb(255,12,12)" stroke-width="1" font-size="16" >O</text>
<text x="320.865533" y="25.888000" fill="rgb(255,12,12)"  stroke="rgb(255,12,12)" stroke-width="1" font-size="16" >_</text>
<text x="310.065533" y="48.000000" fill="rgb(255,12,12)"  stroke="rgb(255,12,12)" stroke-width="1" font-size="16" >O</text>
<text x="22.000000" y="328.743953" fill="rgb(102,102,102)"  stroke="rgb(102,102,102)" stroke-width="1" font-size="16" >HC</text>
<text x="343.798635" y="388.584089" fill="rgb(102,102,102)"  stroke="rgb(102,102,102)" stroke-width="1" font-size="16" >CH</text>
<text font-size="18.000000" fill ="black" font-family="sans-serif"
x="10.000000" y="20.000000" ></text>
<title> - OBDepict</title>
</svg>
