<?xml version="1.0"?>
<svg xmlns="http://www.w3.org/2000/svg"
xmlns:xlink="http://www.w3.org/1999/xlink" xmlns:cml="http://www.xml-cml.org/schema" width="189.328" height="499.924" x="0" y="0" font-family="sans-serif" stroke="rgb(0,0,0)" stroke-width="1"  stroke-linecap="round">
<rect x="0%" y="0%" width="100%" height="100%" stroke-width="0" fill="rgb(255,255,255)"  />
<line x1="80.0" y1="339.9" x2="80.0" y2="299.9" stroke="rgb(0,0,0)"  stroke-width="1.0"/>
<line x1="80.0" y1="219.9" x2="80.0" y2="192.8" stroke="rgb(0,0,0)"  stroke-width="1.0"/>
<line x1="103.3" y1="353.4" x2="80.0" y2="339.9" stroke="rgb(0,0,0)"  stroke-width="1.0"/>
<line x1="114.6" y1="79.8" x2="114.6" y2="119.8" stroke="rgb(0,0,0)"  stroke-width="1.0"/>
<line x1="114.6" y1="53.0" x2="114.6" y2="79.8" stroke="rgb(0,0,0)"  stroke-width="1.0"/>
<line x1="118.8" y1="53.0" x2="118.8" y2="79.8" stroke="rgb(0,0,0)"  stroke-width="1.0"/>
<line x1="110.4" y1="53.0" x2="110.4" y2="79.8" stroke="rgb(0,0,0)"  stroke-width="1.0"/>
<line x1="53.0" y1="176.8" x2="67.0" y2="176.8" stroke="rgb(0,0,0)"  stroke-width="1.0"/>
<line x1="53.0" y1="182.8" x2="67.0" y2="182.8" stroke="rgb(0,0,0)"  stroke-width="1.0"/>
<line x1="107.0" y1="182.8" x2="93.0" y2="182.8" stroke="rgb(0,0,0)"  stroke-width="1.0"/>
<line x1="107.0" y1="176.8" x2="93.0" y2="176.8" stroke="rgb(0,0,0)"  stroke-width="1.0"/>
<line x1="80.0" y1="152.8" x2="80.0" y2="166.8" stroke="rgb(0,0,0)"  stroke-width="1.0"/>
<line x1="55.0" y1="350.8" x2="78.5" y2="337.3" stroke="rgb(0,0,0)"  stroke-width="1.0"/>
<line x1="58.0" y1="356.0" x2="81.5" y2="342.5" stroke="rgb(0,0,0)"  stroke-width="1.0"/>
<line x1="114.6" y1="119.8" x2="91.3" y2="133.3" stroke="rgb(0,0,0)"  stroke-width="1.0"/>
<line x1="114.6" y1="399.9" x2="114.6" y2="372.9" stroke="rgb(0,0,0)"  stroke-width="1.0"/>
<line x1="149.3" y1="419.9" x2="114.6" y2="399.9" stroke="rgb(0,0,0)"  stroke-width="1.0"/>
<line x1="91.3" y1="413.4" x2="114.6" y2="399.9" stroke="rgb(0,0,0)"  stroke-width="1.0"/>
<line x1="149.3" y1="446.9" x2="149.3" y2="419.9" stroke="rgb(0,0,0)"  stroke-width="1.0"/>
<line x1="80.0" y1="219.9" x2="114.6" y2="239.9" stroke="rgb(0,0,0)"  stroke-width="1.0"/>
<line x1="114.6" y1="239.9" x2="114.6" y2="279.9" stroke="rgb(0,0,0)"  stroke-width="1.0"/>
<line x1="107.4" y1="245.9" x2="107.4" y2="273.9" stroke="rgb(0,0,0)"  stroke-width="1.0"/>
<line x1="114.6" y1="279.9" x2="80.0" y2="299.9" stroke="rgb(0,0,0)"  stroke-width="1.0"/>
<line x1="80.0" y1="299.9" x2="45.3" y2="279.9" stroke="rgb(0,0,0)"  stroke-width="1.0"/>
<line x1="78.4" y1="290.6" x2="54.0" y2="276.6" stroke="rgb(0,0,0)"  stroke-width="1.0"/>
<line x1="45.3" y1="279.9" x2="45.3" y2="239.9" stroke="rgb(0,0,0)"  stroke-width="1.0"/>
<line x1="45.3" y1="239.9" x2="80.0" y2="219.9" stroke="rgb(0,0,0)"  stroke-width="1.0"/>
<line x1="54.0" y1="243.1" x2="78.4" y2="229.1" stroke="rgb(0,0,0)"  stroke-width="1.0"/>
<text x="74.012142" y="187.838798" fill="rgb(178,178,0)"  stroke="rgb(178,178,0)" stroke-width="1" font-size="16" >S</text>
<text x="108.568082" y="367.893435" fill="rgb(12,12,255)"  stroke="rgb(12,12,255)" stroke-width="1" font-size="16" >NH</text>
<text x="108.568082" y="48.000000" fill="rgb(102,102,102)"  stroke="rgb(102,102,102)" stroke-width="1" font-size="16" >CH</text>
<text x="34.000000" y="187.838798" fill="rgb(255,12,12)"  stroke="rgb(255,12,12)" stroke-width="1" font-size="16" >O</text>
<text x="114.024283" y="187.838798" fill="rgb(255,12,12)"  stroke="rgb(255,12,12)" stroke-width="1" font-size="16" >O</text>
<text x="62.012142" y="147.826656" fill="rgb(12,12,255)"  stroke="rgb(12,12,255)" stroke-width="1" font-size="16" >HN</text>
<text x="39.252503" y="367.893435" fill="rgb(255,12,12)"  stroke="rgb(255,12,12)" stroke-width="1" font-size="16" >O</text>
<text x="54.012142" y="427.911648" fill="rgb(102,102,102)"  stroke="rgb(102,102,102)" stroke-width="1" font-size="16" >H</text>
<text x="66.012142" y="431.591648" fill="rgb(102,102,102)"  stroke="rgb(102,102,102)" stroke-width="1" font-size="13" >3</text>
<text x="72.512142" y="427.911648" fill="rgb(102,102,102)"  stroke="rgb(102,102,102)" stroke-width="1" font-size="16" >C</text>
<text x="145.327721" y="467.923789" fill="rgb(102,102,102)"  stroke="rgb(102,102,102)" stroke-width="1" font-size="16" >CH</text>
<text x="169.327721" y="471.603789" fill="rgb(102,102,102)"  stroke="rgb(102,102,102)" stroke-width="1" font-size="13" >3</text>
<text font-size="18.000000" fill ="black" font-family="sans-serif"
x="10.000000" y="20.000000" ></text>
<title> - OBDepict</title>
</svg>
