<?xml version="1.0"?>
<svg xmlns="http://www.w3.org/2000/svg"
xmlns:xlink="http://www.w3.org/1999/xlink" xmlns:cml="http://www.xml-cml.org/schema" width="218.462" height="340.144" x="0" y="0" font-family="sans-serif" stroke="rgb(0,0,0)" stroke-width="1"  stroke-linecap="round">
<rect x="0%" y="0%" width="100%" height="100%" stroke-width="0" fill="rgb(255,255,255)"  />
<line x1="74.6" y1="180.1" x2="109.1" y2="200.1" stroke="rgb(0,0,0)"  stroke-width="1.0"/>
<line x1="40.0" y1="80.0" x2="40.0" y2="120.0" stroke="rgb(0,0,0)"  stroke-width="1.0"/>
<line x1="40.0" y1="53.0" x2="40.0" y2="80.0" stroke="rgb(0,0,0)"  stroke-width="1.0"/>
<line x1="44.2" y1="53.0" x2="44.2" y2="80.0" stroke="rgb(0,0,0)"  stroke-width="1.0"/>
<line x1="35.8" y1="53.0" x2="35.8" y2="80.0" stroke="rgb(0,0,0)"  stroke-width="1.0"/>
<line x1="49.7" y1="191.0" x2="73.1" y2="177.5" stroke="rgb(0,0,0)"  stroke-width="1.0"/>
<line x1="52.8" y1="196.2" x2="76.1" y2="182.7" stroke="rgb(0,0,0)"  stroke-width="1.0"/>
<line x1="74.6" y1="153.1" x2="74.6" y2="180.1" stroke="rgb(0,0,0)"  stroke-width="1.0"/>
<line x1="40.0" y1="120.0" x2="63.3" y2="133.5" stroke="rgb(0,0,0)"  stroke-width="1.0"/>
<line x1="85.8" y1="253.6" x2="109.1" y2="240.1" stroke="rgb(0,0,0)"  stroke-width="1.0"/>
<line x1="143.9" y1="287.1" x2="143.9" y2="260.1" stroke="rgb(0,0,0)"  stroke-width="1.0"/>
<line x1="109.1" y1="200.1" x2="143.9" y2="180.1" stroke="rgb(0,0,0)"  stroke-width="1.0"/>
<line x1="117.9" y1="203.3" x2="142.3" y2="189.3" stroke="rgb(0,0,0)"  stroke-width="1.0"/>
<line x1="143.9" y1="180.1" x2="178.5" y2="200.1" stroke="rgb(0,0,0)"  stroke-width="1.0"/>
<line x1="178.5" y1="200.1" x2="178.5" y2="240.1" stroke="rgb(0,0,0)"  stroke-width="1.0"/>
<line x1="171.3" y1="206.1" x2="171.3" y2="234.1" stroke="rgb(0,0,0)"  stroke-width="1.0"/>
<line x1="178.5" y1="240.1" x2="143.9" y2="260.1" stroke="rgb(0,0,0)"  stroke-width="1.0"/>
<line x1="143.9" y1="260.1" x2="109.1" y2="240.1" stroke="rgb(0,0,0)"  stroke-width="1.0"/>
<line x1="142.3" y1="250.9" x2="117.9" y2="236.9" stroke="rgb(0,0,0)"  stroke-width="1.0"/>
<line x1="109.1" y1="240.1" x2="109.1" y2="200.1" stroke="rgb(0,0,0)"  stroke-width="1.0"/>
<text x="34.000000" y="48.000000" fill="rgb(102,102,102)"  stroke="rgb(102,102,102)" stroke-width="1" font-size="16" >CH</text>
<text x="34.000000" y="208.088368" fill="rgb(255,12,12)"  stroke="rgb(255,12,12)" stroke-width="1" font-size="16" >O</text>
<text x="68.564534" y="148.055230" fill="rgb(12,12,255)"  stroke="rgb(12,12,255)" stroke-width="1" font-size="16" >NH</text>
<text x="48.564534" y="268.121506" fill="rgb(102,102,102)"  stroke="rgb(102,102,102)" stroke-width="1" font-size="16" >H</text>
<text x="60.564534" y="271.801506" fill="rgb(102,102,102)"  stroke="rgb(102,102,102)" stroke-width="1" font-size="13" >3</text>
<text x="67.064534" y="268.121506" fill="rgb(102,102,102)"  stroke="rgb(102,102,102)" stroke-width="1" font-size="16" >C</text>
<text x="139.897351" y="308.143598" fill="rgb(102,102,102)"  stroke="rgb(102,102,102)" stroke-width="1" font-size="16" >CH</text>
<text x="163.897351" y="311.823598" fill="rgb(102,102,102)"  stroke="rgb(102,102,102)" stroke-width="1" font-size="13" >3</text>
<text font-size="18.000000" fill ="black" font-family="sans-serif"
x="10.000000" y="20.000000" ></text>
<title> - OBDepict</title>
</svg>
