<?xml version="1.0"?>
<svg xmlns="http://www.w3.org/2000/svg"
xmlns:xlink="http://www.w3.org/1999/xlink" xmlns:cml="http://www.xml-cml.org/schema" width="378.571" height="239.945" x="0" y="0" font-family="sans-serif" stroke="rgb(0,0,0)" stroke-width="1"  stroke-linecap="round">
<rect x="0%" y="0%" width="100%" height="100%" stroke-width="0" fill="rgb(255,255,255)"  />
<line x1="310.6" y1="72.0" x2="282.4" y2="100.0" stroke="rgb(0,0,0)"  stroke-width="1.0"/>
<line x1="236.4" y1="86.5" x2="213.1" y2="100.0" stroke="rgb(0,0,0)"  stroke-width="1.0"/>
<line x1="189.7" y1="86.5" x2="213.1" y2="100.0" stroke="rgb(0,0,0)"  stroke-width="1.0"/>
<line x1="329.5" y1="52.6" x2="310.6" y2="72.0" stroke="rgb(0,0,0)"  stroke-width="1.0"/>
<line x1="332.5" y1="55.6" x2="313.6" y2="74.9" stroke="rgb(0,0,0)"  stroke-width="1.0"/>
<line x1="326.5" y1="49.7" x2="307.6" y2="69.1" stroke="rgb(0,0,0)"  stroke-width="1.0"/>
<line x1="282.4" y1="100.0" x2="259.0" y2="86.5" stroke="rgb(0,0,0)"  stroke-width="1.0"/>
<line x1="143.7" y1="100.0" x2="167.1" y2="86.5" stroke="rgb(0,0,0)"  stroke-width="1.0"/>
<line x1="210.1" y1="127.0" x2="210.1" y2="100.0" stroke="rgb(0,0,0)"  stroke-width="1.0"/>
<line x1="216.1" y1="127.0" x2="216.1" y2="100.0" stroke="rgb(0,0,0)"  stroke-width="1.0"/>
<line x1="51.3" y1="86.5" x2="74.7" y2="100.0" stroke="rgb(0,0,0)"  stroke-width="1.0"/>
<line x1="51.3" y1="153.5" x2="74.7" y2="140.0" stroke="rgb(0,0,0)"  stroke-width="1.0"/>
<line x1="259.3" y1="133.1" x2="282.4" y2="100.0" stroke="rgb(0,0,0)"  stroke-width="1.0"/>
<line x1="313.0" y1="126.0" x2="282.4" y2="100.0" stroke="rgb(0,0,0)"  stroke-width="1.0"/>
<line x1="40.0" y1="53.0" x2="40.0" y2="67.0" stroke="rgb(0,0,0)"  stroke-width="1.0"/>
<line x1="40.0" y1="186.9" x2="40.0" y2="173.0" stroke="rgb(0,0,0)"  stroke-width="1.0"/>
<line x1="308.2" y1="152.5" x2="313.0" y2="126.0" stroke="rgb(0,0,0)"  stroke-width="1.0"/>
<line x1="270.8" y1="157.5" x2="259.3" y2="133.1" stroke="rgb(0,0,0)"  stroke-width="1.0"/>
<line x1="109.1" y1="80.0" x2="74.7" y2="100.0" stroke="rgb(0,0,0)"  stroke-width="1.0"/>
<line x1="74.7" y1="100.0" x2="74.7" y2="140.0" stroke="rgb(0,0,0)"  stroke-width="1.0"/>
<line x1="81.9" y1="106.0" x2="81.9" y2="134.0" stroke="rgb(0,0,0)"  stroke-width="1.0"/>
<line x1="74.7" y1="140.0" x2="109.1" y2="160.0" stroke="rgb(0,0,0)"  stroke-width="1.0"/>
<line x1="109.1" y1="160.0" x2="143.7" y2="140.0" stroke="rgb(0,0,0)"  stroke-width="1.0"/>
<line x1="110.7" y1="150.7" x2="134.9" y2="136.7" stroke="rgb(0,0,0)"  stroke-width="1.0"/>
<line x1="143.7" y1="140.0" x2="143.7" y2="100.0" stroke="rgb(0,0,0)"  stroke-width="1.0"/>
<line x1="143.7" y1="100.0" x2="109.1" y2="80.0" stroke="rgb(0,0,0)"  stroke-width="1.0"/>
<line x1="134.9" y1="103.2" x2="110.7" y2="89.2" stroke="rgb(0,0,0)"  stroke-width="1.0"/>
<text x="241.708744" y="87.985024" fill="rgb(12,12,255)"  stroke="rgb(12,12,255)" stroke-width="1" font-size="16" >N</text>
<text x="241.708744" y="71.985024" fill="rgb(12,12,255)"  stroke="rgb(12,12,255)" stroke-width="1" font-size="16" >H</text>
<text x="172.398135" y="87.985024" fill="rgb(12,12,255)"  stroke="rgb(12,12,255)" stroke-width="1" font-size="16" >N</text>
<text x="172.398135" y="71.985024" fill="rgb(12,12,255)"  stroke="rgb(12,12,255)" stroke-width="1" font-size="16" >H</text>
<text x="332.571014" y="51.331681" fill="rgb(102,102,102)"  stroke="rgb(102,102,102)" stroke-width="1" font-size="16" >CH</text>
<text x="207.053440" y="147.964986" fill="rgb(255,12,12)"  stroke="rgb(255,12,12)" stroke-width="1" font-size="16" >O</text>
<text x="34.000000" y="87.985024" fill="rgb(255,12,12)"  stroke="rgb(255,12,12)" stroke-width="1" font-size="16" >O</text>
<text x="34.000000" y="167.959923" fill="rgb(255,12,12)"  stroke="rgb(255,12,12)" stroke-width="1" font-size="16" >O</text>
<text x="36.000000" y="48.000000" fill="rgb(102,102,102)"  stroke="rgb(102,102,102)" stroke-width="1" font-size="16" >CH</text>
<text x="60.000000" y="51.680000" fill="rgb(102,102,102)"  stroke="rgb(102,102,102)" stroke-width="1" font-size="13" >3</text>
<text x="36.000000" y="207.944947" fill="rgb(102,102,102)"  stroke="rgb(102,102,102)" stroke-width="1" font-size="16" >CH</text>
<text x="60.000000" y="211.624947" fill="rgb(102,102,102)"  stroke="rgb(102,102,102)" stroke-width="1" font-size="13" >3</text>
<text x="279.913748" y="173.289643" fill="rgb(102,102,102)"  stroke="rgb(102,102,102)" stroke-width="1" font-size="16" >H</text>
<text x="291.913748" y="176.969643" fill="rgb(102,102,102)"  stroke="rgb(102,102,102)" stroke-width="1" font-size="13" >3</text>
<text x="298.413748" y="173.289643" fill="rgb(102,102,102)"  stroke="rgb(102,102,102)" stroke-width="1" font-size="16" >C</text>
<text x="272.365082" y="177.290570" fill="rgb(102,102,102)"  stroke="rgb(102,102,102)" stroke-width="1" font-size="16" >CH</text>
<text x="296.365082" y="180.970570" fill="rgb(102,102,102)"  stroke="rgb(102,102,102)" stroke-width="1" font-size="13" >3</text>
<text font-size="18.000000" fill ="black" font-family="sans-serif"
x="10.000000" y="20.000000" ></text>
<title> - OBDepict</title>
</svg>
