<?xml version="1.0"?>
<svg xmlns="http://www.w3.org/2000/svg"
xmlns:xlink="http://www.w3.org/1999/xlink" xmlns:cml="http://www.xml-cml.org/schema" width="461.07" height="319.437" x="0" y="0" font-family="sans-serif" stroke="rgb(0,0,0)" stroke-width="1"  stroke-linecap="round">
<rect x="0%" y="0%" width="100%" height="100%" stroke-width="0" fill="rgb(255,255,255)"  />
<line x1="176.3" y1="222.4" x2="141.5" y2="202.4" stroke="rgb(0,0,0)"  stroke-width="1.0"/>
<line x1="179.3" y1="217.2" x2="144.5" y2="197.2" stroke="rgb(0,0,0)"  stroke-width="1.0"/>
<line x1="212.3" y1="199.8" x2="177.8" y2="219.8" stroke="rgb(0,0,0)"  stroke-width="1.0"/>
<line x1="107.0" y1="83.0" x2="83.7" y2="115.5" stroke="rgb(0,0,0)"  stroke-width="1.0"/>
<line x1="386.1" y1="141.5" x2="351.4" y2="160.8" stroke="rgb(0,0,0)"  stroke-width="1.0"/>
<line x1="121.4" y1="60.2" x2="107.0" y2="83.0" stroke="rgb(0,0,0)"  stroke-width="1.0"/>
<line x1="124.9" y1="62.4" x2="110.5" y2="85.2" stroke="rgb(0,0,0)"  stroke-width="1.0"/>
<line x1="117.8" y1="57.9" x2="103.4" y2="80.8" stroke="rgb(0,0,0)"  stroke-width="1.0"/>
<line x1="409.8" y1="127.9" x2="386.1" y2="141.5" stroke="rgb(0,0,0)"  stroke-width="1.0"/>
<line x1="411.9" y1="131.6" x2="388.2" y2="145.1" stroke="rgb(0,0,0)"  stroke-width="1.0"/>
<line x1="407.7" y1="124.3" x2="384.0" y2="137.8" stroke="rgb(0,0,0)"  stroke-width="1.0"/>
<line x1="52.6" y1="186.2" x2="79.5" y2="183.5" stroke="rgb(0,0,0)"  stroke-width="1.0"/>
<line x1="53.2" y1="192.1" x2="80.1" y2="189.4" stroke="rgb(0,0,0)"  stroke-width="1.0"/>
<line x1="160.7" y1="143.9" x2="140.7" y2="162.0" stroke="rgb(0,0,0)"  stroke-width="1.0"/>
<line x1="156.6" y1="139.5" x2="136.6" y2="157.6" stroke="rgb(0,0,0)"  stroke-width="1.0"/>
<line x1="83.7" y1="115.5" x2="94.5" y2="139.9" stroke="rgb(0,0,0)"  stroke-width="1.0"/>
<line x1="316.6" y1="259.6" x2="316.3" y2="219.1" stroke="rgb(0,0,0)"  stroke-width="1.0"/>
<line x1="338.3" y1="275.6" x2="315.1" y2="262.2" stroke="rgb(0,0,0)"  stroke-width="1.0"/>
<line x1="341.3" y1="270.4" x2="318.1" y2="257.0" stroke="rgb(0,0,0)"  stroke-width="1.0"/>
<line x1="247.4" y1="113.0" x2="246.9" y2="139.6" stroke="rgb(0,0,0)"  stroke-width="1.0"/>
<line x1="305.3" y1="146.2" x2="281.4" y2="159.8" stroke="rgb(0,0,0)"  stroke-width="1.0"/>
<line x1="316.3" y1="219.1" x2="281.4" y2="199.8" stroke="rgb(0,0,0)"  stroke-width="1.0"/>
<line x1="351.4" y1="160.8" x2="327.7" y2="146.5" stroke="rgb(0,0,0)"  stroke-width="1.0"/>
<line x1="213.5" y1="80.0" x2="236.4" y2="93.4" stroke="rgb(0,0,0)"  stroke-width="1.0"/>
<line x1="213.6" y1="53.0" x2="213.5" y2="80.0" stroke="rgb(0,0,0)"  stroke-width="1.0"/>
<line x1="93.3" y1="163.1" x2="79.8" y2="186.5" stroke="rgb(0,0,0)"  stroke-width="1.0"/>
<line x1="79.8" y1="186.5" x2="97.9" y2="206.5" stroke="rgb(0,0,0)"  stroke-width="1.0"/>
<line x1="118.5" y1="210.8" x2="143.0" y2="199.8" stroke="rgb(0,0,0)"  stroke-width="1.0"/>
<line x1="143.0" y1="199.8" x2="138.6" y2="159.8" stroke="rgb(0,0,0)"  stroke-width="1.0"/>
<line x1="138.6" y1="159.8" x2="112.6" y2="154.4" stroke="rgb(0,0,0)"  stroke-width="1.0"/>
<line x1="212.3" y1="199.8" x2="212.5" y2="159.1" stroke="rgb(0,0,0)"  stroke-width="1.0"/>
<line x1="219.5" y1="193.8" x2="219.6" y2="165.2" stroke="rgb(0,0,0)"  stroke-width="1.0"/>
<line x1="212.5" y1="159.1" x2="246.9" y2="139.6" stroke="rgb(0,0,0)"  stroke-width="1.0"/>
<line x1="246.9" y1="139.6" x2="281.4" y2="159.8" stroke="rgb(0,0,0)"  stroke-width="1.0"/>
<line x1="248.5" y1="148.9" x2="272.6" y2="163.0" stroke="rgb(0,0,0)"  stroke-width="1.0"/>
<line x1="281.4" y1="159.8" x2="281.4" y2="199.8" stroke="rgb(0,0,0)"  stroke-width="1.0"/>
<line x1="281.4" y1="199.8" x2="246.8" y2="219.8" stroke="rgb(0,0,0)"  stroke-width="1.0"/>
<line x1="272.6" y1="196.6" x2="248.4" y2="210.6" stroke="rgb(0,0,0)"  stroke-width="1.0"/>
<line x1="246.8" y1="219.8" x2="212.3" y2="199.8" stroke="rgb(0,0,0)"  stroke-width="1.0"/>
<text x="93.820428" y="159.802785" fill="rgb(12,12,255)"  stroke="rgb(12,12,255)" stroke-width="1" font-size="16" >N</text>
<text x="100.650262" y="224.116653" fill="rgb(178,178,0)"  stroke="rgb(178,178,0)" stroke-width="1" font-size="16" >S</text>
<text x="122.312809" y="57.161381" fill="rgb(102,102,102)"  stroke="rgb(102,102,102)" stroke-width="1" font-size="16" >CH</text>
<text x="415.069844" y="129.478128" fill="rgb(102,102,102)"  stroke="rgb(102,102,102)" stroke-width="1" font-size="16" >CH</text>
<text x="34.000000" y="198.459937" fill="rgb(255,12,12)"  stroke="rgb(255,12,12)" stroke-width="1" font-size="16" >O</text>
<text x="162.302966" y="140.975904" fill="rgb(255,12,12)"  stroke="rgb(255,12,12)" stroke-width="1" font-size="16" >O</text>
<text x="347.089492" y="287.436825" fill="rgb(102,102,102)"  stroke="rgb(102,102,102)" stroke-width="1" font-size="16" >CH</text>
<text x="371.089492" y="291.116825" fill="rgb(102,102,102)"  stroke="rgb(102,102,102)" stroke-width="1" font-size="13" >2</text>
<text x="241.614355" y="107.985236" fill="rgb(255,12,12)"  stroke="rgb(255,12,12)" stroke-width="1" font-size="16" >O</text>
<text x="310.596164" y="147.805738" fill="rgb(255,12,12)"  stroke="rgb(255,12,12)" stroke-width="1" font-size="16" >O</text>
<text x="209.625145" y="48.000000" fill="rgb(102,102,102)"  stroke="rgb(102,102,102)" stroke-width="1" font-size="16" >CH</text>
<text x="233.625145" y="51.680000" fill="rgb(102,102,102)"  stroke="rgb(102,102,102)" stroke-width="1" font-size="13" >3</text>
<text font-size="18.000000" fill ="black" font-family="sans-serif"
x="10.000000" y="20.000000" ></text>
<title> - OBDepict</title>
</svg>
