<?xml version="1.0"?>
<svg xmlns="http://www.w3.org/2000/svg"
xmlns:xlink="http://www.w3.org/1999/xlink" xmlns:cml="http://www.xml-cml.org/schema" width="459.276" height="381.347" x="0" y="0" font-family="sans-serif" stroke="rgb(0,0,0)" stroke-width="1"  stroke-linecap="round">
<rect x="0%" y="0%" width="100%" height="100%" stroke-width="0" fill="rgb(255,255,255)"  />
<line x1="248.9" y1="221.1" x2="283.7" y2="201.0" stroke="rgb(0,0,0)"  stroke-width="1.0"/>
<line x1="280.7" y1="201.0" x2="280.7" y2="161.1" stroke="rgb(0,0,0)"  stroke-width="1.0"/>
<line x1="286.7" y1="201.0" x2="286.7" y2="161.1" stroke="rgb(0,0,0)"  stroke-width="1.0"/>
<line x1="213.8" y1="281.3" x2="213.8" y2="308.3" stroke="rgb(0,0,0)"  stroke-width="1.0"/>
<line x1="283.7" y1="161.1" x2="318.3" y2="141.0" stroke="rgb(0,0,0)"  stroke-width="1.0"/>
<line x1="283.7" y1="161.1" x2="248.9" y2="141.0" stroke="rgb(0,0,0)"  stroke-width="1.0"/>
<line x1="179.1" y1="220.6" x2="155.9" y2="207.2" stroke="rgb(0,0,0)"  stroke-width="1.0"/>
<line x1="179.1" y1="260.6" x2="155.5" y2="274.2" stroke="rgb(0,0,0)"  stroke-width="1.0"/>
<line x1="202.5" y1="327.8" x2="190.1" y2="334.9" stroke="rgb(0,0,0)"  stroke-width="1.0"/>
<line x1="318.3" y1="141.0" x2="341.5" y2="154.5" stroke="rgb(0,0,0)"  stroke-width="1.0"/>
<line x1="315.3" y1="141.0" x2="315.3" y2="114.0" stroke="rgb(0,0,0)"  stroke-width="1.0"/>
<line x1="321.3" y1="141.0" x2="321.3" y2="114.0" stroke="rgb(0,0,0)"  stroke-width="1.0"/>
<line x1="248.9" y1="141.0" x2="225.7" y2="127.6" stroke="rgb(0,0,0)"  stroke-width="1.0"/>
<line x1="246.8" y1="144.6" x2="223.6" y2="131.3" stroke="rgb(0,0,0)"  stroke-width="1.0"/>
<line x1="251.0" y1="137.4" x2="227.8" y2="124.0" stroke="rgb(0,0,0)"  stroke-width="1.0"/>
<line x1="133.0" y1="274.1" x2="109.7" y2="260.6" stroke="rgb(0,0,0)"  stroke-width="1.0"/>
<line x1="364.0" y1="154.6" x2="387.3" y2="141.0" stroke="rgb(0,0,0)"  stroke-width="1.0"/>
<line x1="109.7" y1="260.6" x2="74.5" y2="280.5" stroke="rgb(0,0,0)"  stroke-width="1.0"/>
<line x1="387.3" y1="141.0" x2="387.3" y2="101.2" stroke="rgb(0,0,0)"  stroke-width="1.0"/>
<line x1="74.5" y1="280.5" x2="51.2" y2="294.0" stroke="rgb(0,0,0)"  stroke-width="1.0"/>
<line x1="76.6" y1="284.1" x2="53.3" y2="297.6" stroke="rgb(0,0,0)"  stroke-width="1.0"/>
<line x1="72.3" y1="276.8" x2="49.1" y2="290.4" stroke="rgb(0,0,0)"  stroke-width="1.0"/>
<line x1="387.3" y1="101.2" x2="355.1" y2="78.0" stroke="rgb(0,0,0)"  stroke-width="1.0"/>
<line x1="355.1" y1="78.0" x2="367.1" y2="40.0" stroke="rgb(0,0,0)"  stroke-width="1.0"/>
<line x1="367.1" y1="40.0" x2="406.7" y2="40.0" stroke="rgb(0,0,0)"  stroke-width="1.0"/>
<line x1="406.7" y1="40.0" x2="415.2" y2="65.3" stroke="rgb(0,0,0)"  stroke-width="1.0"/>
<line x1="408.8" y1="85.3" x2="387.3" y2="101.2" stroke="rgb(0,0,0)"  stroke-width="1.0"/>
<line x1="248.9" y1="221.1" x2="213.9" y2="200.7" stroke="rgb(0,0,0)"  stroke-width="1.0"/>
<line x1="213.9" y1="200.7" x2="179.1" y2="220.6" stroke="rgb(0,0,0)"  stroke-width="1.0"/>
<line x1="212.3" y1="209.9" x2="187.9" y2="223.9" stroke="rgb(0,0,0)"  stroke-width="1.0"/>
<line x1="179.1" y1="220.6" x2="179.1" y2="260.6" stroke="rgb(0,0,0)"  stroke-width="1.0"/>
<line x1="179.1" y1="260.6" x2="213.8" y2="281.3" stroke="rgb(0,0,0)"  stroke-width="1.0"/>
<line x1="188.0" y1="257.5" x2="212.3" y2="272.1" stroke="rgb(0,0,0)"  stroke-width="1.0"/>
<line x1="213.8" y1="281.3" x2="248.5" y2="261.1" stroke="rgb(0,0,0)"  stroke-width="1.0"/>
<line x1="248.5" y1="261.1" x2="248.9" y2="221.1" stroke="rgb(0,0,0)"  stroke-width="1.0"/>
<line x1="241.4" y1="255.0" x2="241.6" y2="227.0" stroke="rgb(0,0,0)"  stroke-width="1.0"/>
<text x="207.755774" y="329.278727" fill="rgb(255,12,12)"  stroke="rgb(255,12,12)" stroke-width="1" font-size="16" >O</text>
<text x="126.683711" y="208.707860" fill="rgb(165,40,40)"  stroke="rgb(165,40,40)" stroke-width="1" font-size="16" >Br</text>
<text x="138.184664" y="288.647531" fill="rgb(255,12,12)"  stroke="rgb(255,12,12)" stroke-width="1" font-size="16" >O</text>
<text x="152.803062" y="349.347223" fill="rgb(102,102,102)"  stroke="rgb(102,102,102)" stroke-width="1" font-size="16" >H</text>
<text x="164.803062" y="353.027223" fill="rgb(102,102,102)"  stroke="rgb(102,102,102)" stroke-width="1" font-size="13" >3</text>
<text x="171.303062" y="349.347223" fill="rgb(102,102,102)"  stroke="rgb(102,102,102)" stroke-width="1" font-size="16" >C</text>
<text x="346.723570" y="169.074760" fill="rgb(12,12,255)"  stroke="rgb(12,12,255)" stroke-width="1" font-size="16" >N</text>
<text x="346.723570" y="185.074760" fill="rgb(12,12,255)"  stroke="rgb(12,12,255)" stroke-width="1" font-size="16" >H</text>
<text x="312.274751" y="109.043695" fill="rgb(255,12,12)"  stroke="rgb(255,12,12)" stroke-width="1" font-size="16" >O</text>
<text x="208.424401" y="129.112191" fill="rgb(12,12,255)"  stroke="rgb(12,12,255)" stroke-width="1" font-size="16" >N</text>
<text x="22.000000" y="308.546448" fill="rgb(102,102,102)"  stroke="rgb(102,102,102)" stroke-width="1" font-size="16" >HC</text>
<text x="413.276169" y="85.627219" fill="rgb(255,12,12)"  stroke="rgb(255,12,12)" stroke-width="1" font-size="16" >O</text>
<text font-size="18.000000" fill ="black" font-family="sans-serif"
x="10.000000" y="20.000000" ></text>
<title> - OBDepict</title>
</svg>
