<?xml version="1.0"?>
<svg xmlns="http://www.w3.org/2000/svg"
xmlns:xlink="http://www.w3.org/1999/xlink" xmlns:cml="http://www.xml-cml.org/schema" width="471.32" height="291.517" x="0" y="0" font-family="sans-serif" stroke="rgb(0,0,0)" stroke-width="1"  stroke-linecap="round">
<rect x="0%" y="0%" width="100%" height="100%" stroke-width="0" fill="rgb(255,255,255)"  />
<line x1="260.4" y1="158.8" x2="221.2" y2="150.5" stroke="rgb(0,0,0)"  stroke-width="1.0"/>
<line x1="404.4" y1="153.9" x2="377.8" y2="183.6" stroke="rgb(0,0,0)"  stroke-width="1.0"/>
<line x1="221.2" y1="150.5" x2="208.9" y2="112.3" stroke="rgb(0,0,0)"  stroke-width="1.0"/>
<line x1="422.6" y1="133.9" x2="404.4" y2="153.9" stroke="rgb(0,0,0)"  stroke-width="1.0"/>
<line x1="425.7" y1="136.7" x2="407.6" y2="156.8" stroke="rgb(0,0,0)"  stroke-width="1.0"/>
<line x1="419.5" y1="131.1" x2="401.3" y2="151.1" stroke="rgb(0,0,0)"  stroke-width="1.0"/>
<line x1="268.7" y1="184.4" x2="260.4" y2="158.8" stroke="rgb(0,0,0)"  stroke-width="1.0"/>
<line x1="280.6" y1="140.8" x2="262.6" y2="160.8" stroke="rgb(0,0,0)"  stroke-width="1.0"/>
<line x1="276.2" y1="136.8" x2="258.2" y2="156.8" stroke="rgb(0,0,0)"  stroke-width="1.0"/>
<line x1="311.9" y1="205.1" x2="285.4" y2="199.5" stroke="rgb(0,0,0)"  stroke-width="1.0"/>
<line x1="208.9" y1="112.3" x2="170.9" y2="100.0" stroke="rgb(0,0,0)"  stroke-width="1.0"/>
<line x1="170.9" y1="100.0" x2="170.9" y2="60.0" stroke="rgb(0,0,0)"  stroke-width="1.0"/>
<line x1="178.1" y1="94.0" x2="178.1" y2="66.0" stroke="rgb(0,0,0)"  stroke-width="1.0"/>
<line x1="170.9" y1="60.0" x2="196.5" y2="51.7" stroke="rgb(0,0,0)"  stroke-width="1.0"/>
<line x1="216.5" y1="58.2" x2="232.3" y2="80.0" stroke="rgb(0,0,0)"  stroke-width="1.0"/>
<line x1="232.3" y1="80.0" x2="208.9" y2="112.3" stroke="rgb(0,0,0)"  stroke-width="1.0"/>
<line x1="223.0" y1="80.6" x2="206.6" y2="103.2" stroke="rgb(0,0,0)"  stroke-width="1.0"/>
<line x1="40.0" y1="80.0" x2="63.4" y2="47.7" stroke="rgb(0,0,0)"  stroke-width="1.0"/>
<line x1="63.4" y1="47.7" x2="101.6" y2="60.0" stroke="rgb(0,0,0)"  stroke-width="1.0"/>
<line x1="101.6" y1="60.0" x2="101.6" y2="100.0" stroke="rgb(0,0,0)"  stroke-width="1.0"/>
<line x1="101.6" y1="100.0" x2="63.4" y2="112.3" stroke="rgb(0,0,0)"  stroke-width="1.0"/>
<line x1="63.4" y1="112.3" x2="40.0" y2="80.0" stroke="rgb(0,0,0)"  stroke-width="1.0"/>
<line x1="136.2" y1="40.0" x2="170.9" y2="60.0" stroke="rgb(0,0,0)"  stroke-width="1.0"/>
<line x1="170.9" y1="100.0" x2="136.2" y2="120.0" stroke="rgb(0,0,0)"  stroke-width="1.0"/>
<line x1="136.2" y1="120.0" x2="101.6" y2="100.0" stroke="rgb(0,0,0)"  stroke-width="1.0"/>
<line x1="134.6" y1="110.8" x2="110.4" y2="96.8" stroke="rgb(0,0,0)"  stroke-width="1.0"/>
<line x1="101.6" y1="60.0" x2="136.2" y2="40.0" stroke="rgb(0,0,0)"  stroke-width="1.0"/>
<line x1="110.4" y1="63.2" x2="134.6" y2="49.2" stroke="rgb(0,0,0)"  stroke-width="1.0"/>
<line x1="311.9" y1="205.1" x2="338.6" y2="175.4" stroke="rgb(0,0,0)"  stroke-width="1.0"/>
<line x1="321.3" y1="205.4" x2="339.9" y2="184.6" stroke="rgb(0,0,0)"  stroke-width="1.0"/>
<line x1="338.6" y1="175.4" x2="377.8" y2="183.6" stroke="rgb(0,0,0)"  stroke-width="1.0"/>
<line x1="377.8" y1="183.6" x2="390.1" y2="221.8" stroke="rgb(0,0,0)"  stroke-width="1.0"/>
<line x1="372.8" y1="191.6" x2="381.4" y2="218.3" stroke="rgb(0,0,0)"  stroke-width="1.0"/>
<line x1="390.1" y1="221.8" x2="363.2" y2="251.5" stroke="rgb(0,0,0)"  stroke-width="1.0"/>
<line x1="363.2" y1="251.5" x2="324.2" y2="243.2" stroke="rgb(0,0,0)"  stroke-width="1.0"/>
<line x1="358.9" y1="243.2" x2="331.6" y2="237.4" stroke="rgb(0,0,0)"  stroke-width="1.0"/>
<line x1="324.2" y1="243.2" x2="311.9" y2="205.1" stroke="rgb(0,0,0)"  stroke-width="1.0"/>
<text x="202.893623" y="55.675220" fill="rgb(255,12,12)"  stroke="rgb(255,12,12)" stroke-width="1" font-size="16" >O</text>
<text x="425.319844" y="132.243173" fill="rgb(102,102,102)"  stroke="rgb(102,102,102)" stroke-width="1" font-size="16" >CH</text>
<text x="266.729342" y="204.767455" fill="rgb(12,12,255)"  stroke="rgb(12,12,255)" stroke-width="1" font-size="16" >N</text>
<text x="266.729342" y="220.767455" fill="rgb(12,12,255)"  stroke="rgb(12,12,255)" stroke-width="1" font-size="16" >H</text>
<text x="281.076137" y="137.091701" fill="rgb(255,12,12)"  stroke="rgb(255,12,12)" stroke-width="1" font-size="16" >O</text>
<text font-size="18.000000" fill ="black" font-family="sans-serif"
x="10.000000" y="20.000000" ></text>
<title> - OBDepict</title>
</svg>
