<?xml version="1.0"?>
<svg xmlns="http://www.w3.org/2000/svg"
xmlns:xlink="http://www.w3.org/1999/xlink" xmlns:cml="http://www.xml-cml.org/schema" width="435.844" height="395.433" x="0" y="0" font-family="sans-serif" stroke="rgb(0,0,0)" stroke-width="1"  stroke-linecap="round">
<rect x="0%" y="0%" width="100%" height="100%" stroke-width="0" fill="rgb(255,255,255)"  />
<line x1="247.7" y1="239.6" x2="212.8" y2="219.6" stroke="rgb(0,0,0)"  stroke-width="1.0"/>
<line x1="209.8" y1="219.6" x2="209.8" y2="179.6" stroke="rgb(0,0,0)"  stroke-width="1.0"/>
<line x1="215.8" y1="219.6" x2="215.8" y2="179.6" stroke="rgb(0,0,0)"  stroke-width="1.0"/>
<line x1="143.7" y1="100.0" x2="167.3" y2="113.6" stroke="rgb(0,0,0)"  stroke-width="1.0"/>
<line x1="374.0" y1="281.5" x2="351.0" y2="249.1" stroke="rgb(0,0,0)"  stroke-width="1.0"/>
<line x1="215.8" y1="72.6" x2="215.8" y2="99.6" stroke="rgb(0,0,0)"  stroke-width="1.0"/>
<line x1="209.8" y1="72.6" x2="209.8" y2="99.6" stroke="rgb(0,0,0)"  stroke-width="1.0"/>
<line x1="388.8" y1="304.3" x2="374.0" y2="281.5" stroke="rgb(0,0,0)"  stroke-width="1.0"/>
<line x1="385.3" y1="306.6" x2="370.5" y2="283.8" stroke="rgb(0,0,0)"  stroke-width="1.0"/>
<line x1="392.3" y1="302.0" x2="377.5" y2="279.2" stroke="rgb(0,0,0)"  stroke-width="1.0"/>
<line x1="153.5" y1="171.0" x2="177.1" y2="157.4" stroke="rgb(0,0,0)"  stroke-width="1.0"/>
<line x1="156.4" y1="176.2" x2="180.1" y2="162.6" stroke="rgb(0,0,0)"  stroke-width="1.0"/>
<line x1="269.5" y1="176.2" x2="245.8" y2="162.6" stroke="rgb(0,0,0)"  stroke-width="1.0"/>
<line x1="272.5" y1="171.0" x2="248.8" y2="157.4" stroke="rgb(0,0,0)"  stroke-width="1.0"/>
<line x1="351.0" y1="249.1" x2="323.9" y2="251.7" stroke="rgb(0,0,0)"  stroke-width="1.0"/>
<line x1="51.3" y1="113.5" x2="74.6" y2="100.0" stroke="rgb(0,0,0)"  stroke-width="1.0"/>
<line x1="284.3" y1="223.3" x2="302.3" y2="243.3" stroke="rgb(0,0,0)"  stroke-width="1.0"/>
<line x1="304.5" y1="264.2" x2="291.0" y2="287.5" stroke="rgb(0,0,0)"  stroke-width="1.0"/>
<line x1="291.0" y1="287.5" x2="252.0" y2="279.5" stroke="rgb(0,0,0)"  stroke-width="1.0"/>
<line x1="252.0" y1="279.5" x2="247.7" y2="239.6" stroke="rgb(0,0,0)"  stroke-width="1.0"/>
<line x1="247.7" y1="239.6" x2="284.3" y2="223.3" stroke="rgb(0,0,0)"  stroke-width="1.0"/>
<line x1="256.1" y1="243.8" x2="281.8" y2="232.3" stroke="rgb(0,0,0)"  stroke-width="1.0"/>
<line x1="178.6" y1="133.0" x2="178.6" y2="160.0" stroke="rgb(0,0,0)"  stroke-width="1.0"/>
<line x1="178.6" y1="160.0" x2="212.8" y2="179.6" stroke="rgb(0,0,0)"  stroke-width="1.0"/>
<line x1="212.8" y1="179.6" x2="247.3" y2="160.0" stroke="rgb(0,0,0)"  stroke-width="1.0"/>
<line x1="247.3" y1="160.0" x2="247.3" y2="133.0" stroke="rgb(0,0,0)"  stroke-width="1.0"/>
<line x1="236.1" y1="113.4" x2="212.8" y2="99.6" stroke="rgb(0,0,0)"  stroke-width="1.0"/>
<line x1="212.8" y1="99.6" x2="189.8" y2="113.3" stroke="rgb(0,0,0)"  stroke-width="1.0"/>
<line x1="143.7" y1="100.0" x2="109.1" y2="120.0" stroke="rgb(0,0,0)"  stroke-width="1.0"/>
<line x1="109.1" y1="120.0" x2="74.6" y2="100.0" stroke="rgb(0,0,0)"  stroke-width="1.0"/>
<line x1="107.5" y1="110.8" x2="83.4" y2="96.8" stroke="rgb(0,0,0)"  stroke-width="1.0"/>
<line x1="74.6" y1="100.0" x2="74.6" y2="59.6" stroke="rgb(0,0,0)"  stroke-width="1.0"/>
<line x1="74.6" y1="59.6" x2="109.1" y2="40.0" stroke="rgb(0,0,0)"  stroke-width="1.0"/>
<line x1="83.3" y1="62.9" x2="107.4" y2="49.2" stroke="rgb(0,0,0)"  stroke-width="1.0"/>
<line x1="109.1" y1="40.0" x2="143.7" y2="59.6" stroke="rgb(0,0,0)"  stroke-width="1.0"/>
<line x1="143.7" y1="59.6" x2="143.7" y2="100.0" stroke="rgb(0,0,0)"  stroke-width="1.0"/>
<line x1="136.5" y1="65.6" x2="136.5" y2="94.0" stroke="rgb(0,0,0)"  stroke-width="1.0"/>
<line x1="291.0" y1="287.5" x2="303.1" y2="325.7" stroke="rgb(0,0,0)"  stroke-width="1.0"/>
<line x1="285.9" y1="295.4" x2="294.4" y2="322.2" stroke="rgb(0,0,0)"  stroke-width="1.0"/>
<line x1="303.1" y1="325.7" x2="276.4" y2="355.4" stroke="rgb(0,0,0)"  stroke-width="1.0"/>
<line x1="276.4" y1="355.4" x2="237.4" y2="346.9" stroke="rgb(0,0,0)"  stroke-width="1.0"/>
<line x1="272.1" y1="347.1" x2="244.8" y2="341.2" stroke="rgb(0,0,0)"  stroke-width="1.0"/>
<line x1="237.4" y1="346.9" x2="224.9" y2="309.2" stroke="rgb(0,0,0)"  stroke-width="1.0"/>
<line x1="224.9" y1="309.2" x2="252.0" y2="279.5" stroke="rgb(0,0,0)"  stroke-width="1.0"/>
<line x1="234.3" y1="309.6" x2="253.3" y2="288.7" stroke="rgb(0,0,0)"  stroke-width="1.0"/>
<text x="172.621729" y="128.018562" fill="rgb(12,12,255)"  stroke="rgb(12,12,255)" stroke-width="1" font-size="16" >N</text>
<text x="241.325219" y="128.018562" fill="rgb(12,12,255)"  stroke="rgb(12,12,255)" stroke-width="1" font-size="16" >NH</text>
<text x="304.976128" y="260.982755" fill="rgb(12,12,255)"  stroke="rgb(12,12,255)" stroke-width="1" font-size="16" >N</text>
<text x="206.770209" y="67.600531" fill="rgb(255,12,12)"  stroke="rgb(255,12,12)" stroke-width="1" font-size="16" >O</text>
<text x="389.844006" y="323.215650" fill="rgb(102,102,102)"  stroke="rgb(102,102,102)" stroke-width="1" font-size="16" >CH</text>
<text x="137.665029" y="188.034903" fill="rgb(255,12,12)"  stroke="rgb(255,12,12)" stroke-width="1" font-size="16" >O</text>
<text x="276.281919" y="188.034903" fill="rgb(255,12,12)"  stroke="rgb(255,12,12)" stroke-width="1" font-size="16" >O</text>
<text x="22.000000" y="128.018562" fill="rgb(165,40,40)"  stroke="rgb(165,40,40)" stroke-width="1" font-size="16" >Br</text>
<text font-size="18.000000" fill ="black" font-family="sans-serif"
x="10.000000" y="20.000000" ></text>
<title> - OBDepict</title>
</svg>
