<?xml version="1.0"?>
<svg xmlns="http://www.w3.org/2000/svg"
xmlns:xlink="http://www.w3.org/1999/xlink" xmlns:cml="http://www.xml-cml.org/schema" width="400.384" height="487.338" x="0" y="0" font-family="sans-serif" stroke="rgb(0,0,0)" stroke-width="1"  stroke-linecap="round">
<rect x="0%" y="0%" width="100%" height="100%" stroke-width="0" fill="rgb(255,255,255)"  />
<line x1="201.8" y1="367.1" x2="163.4" y2="379.5" stroke="rgb(0,0,0)"  stroke-width="1.0"/>
<line x1="200.0" y1="361.4" x2="161.6" y2="373.8" stroke="rgb(0,0,0)"  stroke-width="1.0"/>
<line x1="208.8" y1="325.2" x2="200.9" y2="364.2" stroke="rgb(0,0,0)"  stroke-width="1.0"/>
<line x1="231.0" y1="220.5" x2="225.3" y2="246.8" stroke="rgb(0,0,0)"  stroke-width="1.0"/>
<line x1="50.8" y1="324.8" x2="59.3" y2="364.2" stroke="rgb(0,0,0)"  stroke-width="1.0"/>
<line x1="43.5" y1="298.4" x2="50.8" y2="324.8" stroke="rgb(0,0,0)"  stroke-width="1.0"/>
<line x1="47.5" y1="297.2" x2="54.8" y2="323.7" stroke="rgb(0,0,0)"  stroke-width="1.0"/>
<line x1="39.4" y1="299.5" x2="46.7" y2="326.0" stroke="rgb(0,0,0)"  stroke-width="1.0"/>
<line x1="91.4" y1="435.1" x2="107.5" y2="413.3" stroke="rgb(0,0,0)"  stroke-width="1.0"/>
<line x1="96.2" y1="438.6" x2="112.3" y2="416.8" stroke="rgb(0,0,0)"  stroke-width="1.0"/>
<line x1="132.7" y1="325.6" x2="133.0" y2="352.8" stroke="rgb(0,0,0)"  stroke-width="1.0"/>
<line x1="126.7" y1="325.7" x2="127.0" y2="352.9" stroke="rgb(0,0,0)"  stroke-width="1.0"/>
<line x1="59.3" y1="364.2" x2="84.9" y2="372.6" stroke="rgb(0,0,0)"  stroke-width="1.0"/>
<line x1="322.6" y1="287.5" x2="292.7" y2="260.8" stroke="rgb(0,0,0)"  stroke-width="1.0"/>
<line x1="349.0" y1="281.8" x2="323.5" y2="290.3" stroke="rgb(0,0,0)"  stroke-width="1.0"/>
<line x1="347.1" y1="276.1" x2="321.6" y2="284.6" stroke="rgb(0,0,0)"  stroke-width="1.0"/>
<line x1="272.0" y1="195.6" x2="246.2" y2="203.9" stroke="rgb(0,0,0)"  stroke-width="1.0"/>
<line x1="167.8" y1="241.0" x2="187.5" y2="259.0" stroke="rgb(0,0,0)"  stroke-width="1.0"/>
<line x1="280.7" y1="156.6" x2="272.0" y2="195.6" stroke="rgb(0,0,0)"  stroke-width="1.0"/>
<line x1="292.7" y1="260.8" x2="254.5" y2="273.6" stroke="rgb(0,0,0)"  stroke-width="1.0"/>
<line x1="304.0" y1="52.7" x2="297.8" y2="78.8" stroke="rgb(0,0,0)"  stroke-width="1.0"/>
<line x1="120.5" y1="244.4" x2="145.9" y2="236.2" stroke="rgb(0,0,0)"  stroke-width="1.0"/>
<line x1="100.3" y1="226.2" x2="120.5" y2="244.4" stroke="rgb(0,0,0)"  stroke-width="1.0"/>
<line x1="107.8" y1="369.0" x2="130.0" y2="352.9" stroke="rgb(0,0,0)"  stroke-width="1.0"/>
<line x1="130.0" y1="352.9" x2="162.5" y2="376.6" stroke="rgb(0,0,0)"  stroke-width="1.0"/>
<line x1="162.5" y1="376.6" x2="154.1" y2="402.7" stroke="rgb(0,0,0)"  stroke-width="1.0"/>
<line x1="137.1" y1="415.0" x2="109.9" y2="415.0" stroke="rgb(0,0,0)"  stroke-width="1.0"/>
<line x1="109.9" y1="415.0" x2="101.3" y2="389.0" stroke="rgb(0,0,0)"  stroke-width="1.0"/>
<line x1="187.5" y1="259.0" x2="225.3" y2="246.8" stroke="rgb(0,0,0)"  stroke-width="1.0"/>
<line x1="195.4" y1="264.0" x2="221.8" y2="255.5" stroke="rgb(0,0,0)"  stroke-width="1.0"/>
<line x1="225.3" y1="246.8" x2="254.5" y2="273.6" stroke="rgb(0,0,0)"  stroke-width="1.0"/>
<line x1="254.5" y1="273.6" x2="246.6" y2="312.6" stroke="rgb(0,0,0)"  stroke-width="1.0"/>
<line x1="246.3" y1="278.1" x2="240.8" y2="305.3" stroke="rgb(0,0,0)"  stroke-width="1.0"/>
<line x1="246.6" y1="312.6" x2="208.8" y2="325.2" stroke="rgb(0,0,0)"  stroke-width="1.0"/>
<line x1="208.8" y1="325.2" x2="179.0" y2="298.0" stroke="rgb(0,0,0)"  stroke-width="1.0"/>
<line x1="209.2" y1="315.9" x2="188.2" y2="296.7" stroke="rgb(0,0,0)"  stroke-width="1.0"/>
<line x1="179.0" y1="298.0" x2="187.5" y2="259.0" stroke="rgb(0,0,0)"  stroke-width="1.0"/>
<line x1="280.7" y1="156.6" x2="318.5" y2="144.8" stroke="rgb(0,0,0)"  stroke-width="1.0"/>
<line x1="284.3" y1="148.0" x2="310.7" y2="139.7" stroke="rgb(0,0,0)"  stroke-width="1.0"/>
<line x1="318.5" y1="144.8" x2="327.1" y2="106.2" stroke="rgb(0,0,0)"  stroke-width="1.0"/>
<line x1="327.1" y1="106.2" x2="297.8" y2="78.8" stroke="rgb(0,0,0)"  stroke-width="1.0"/>
<line x1="317.8" y1="107.4" x2="297.3" y2="88.2" stroke="rgb(0,0,0)"  stroke-width="1.0"/>
<line x1="297.8" y1="78.8" x2="260.0" y2="91.6" stroke="rgb(0,0,0)"  stroke-width="1.0"/>
<line x1="260.0" y1="91.6" x2="251.3" y2="130.0" stroke="rgb(0,0,0)"  stroke-width="1.0"/>
<line x1="265.7" y1="99.0" x2="259.6" y2="125.7" stroke="rgb(0,0,0)"  stroke-width="1.0"/>
<line x1="251.3" y1="130.0" x2="280.7" y2="156.6" stroke="rgb(0,0,0)"  stroke-width="1.0"/>
<text x="91.290167" y="384.640835" fill="rgb(12,12,255)"  stroke="rgb(12,12,255)" stroke-width="1" font-size="16" >N</text>
<text x="144.113085" y="423.035943" fill="rgb(178,178,0)"  stroke="rgb(178,178,0)" stroke-width="1" font-size="16" >S</text>
<text x="227.814711" y="215.809806" fill="rgb(255,12,12)"  stroke="rgb(255,12,12)" stroke-width="1" font-size="16" >O</text>
<text x="22.000000" y="293.824522" fill="rgb(102,102,102)"  stroke="rgb(102,102,102)" stroke-width="1" font-size="16" >HC</text>
<text x="80.114785" y="455.337589" fill="rgb(255,12,12)"  stroke="rgb(255,12,12)" stroke-width="1" font-size="16" >O</text>
<text x="123.596652" y="320.642535" fill="rgb(255,12,12)"  stroke="rgb(255,12,12)" stroke-width="1" font-size="16" >O</text>
<text x="356.383534" y="282.857257" fill="rgb(102,102,102)"  stroke="rgb(102,102,102)" stroke-width="1" font-size="16" >CH</text>
<text x="380.383534" y="286.537257" fill="rgb(102,102,102)"  stroke="rgb(102,102,102)" stroke-width="1" font-size="13" >2</text>
<text x="152.239316" y="240.193337" fill="rgb(255,12,12)"  stroke="rgb(255,12,12)" stroke-width="1" font-size="16" >O</text>
<text x="300.955626" y="48.000000" fill="rgb(127,178,255)"  stroke="rgb(127,178,255)" stroke-width="1" font-size="16" >F</text>
<text x="64.586874" y="225.562250" fill="rgb(102,102,102)"  stroke="rgb(102,102,102)" stroke-width="1" font-size="16" >H</text>
<text x="76.586874" y="229.242250" fill="rgb(102,102,102)"  stroke="rgb(102,102,102)" stroke-width="1" font-size="13" >3</text>
<text x="83.086874" y="225.562250" fill="rgb(102,102,102)"  stroke="rgb(102,102,102)" stroke-width="1" font-size="16" >C</text>
<text font-size="18.000000" fill ="black" font-family="sans-serif"
x="10.000000" y="20.000000" ></text>
<title> - OBDepict</title>
</svg>
