<?xml version="1.0"?>
<svg xmlns="http://www.w3.org/2000/svg"
xmlns:xlink="http://www.w3.org/1999/xlink" xmlns:cml="http://www.xml-cml.org/schema" width="388.083" height="225.209" x="0" y="0" font-family="sans-serif" stroke="rgb(0,0,0)" stroke-width="1"  stroke-linecap="round">
<rect x="0%" y="0%" width="100%" height="100%" stroke-width="0" fill="rgb(255,255,255)"  />
<line x1="150.1" y1="146.4" x2="158.6" y2="171.9" stroke="rgb(0,0,0)"  stroke-width="1.0"/>
<line x1="144.5" y1="148.2" x2="152.9" y2="173.8" stroke="rgb(0,0,0)"  stroke-width="1.0"/>
<line x1="144.4" y1="81.6" x2="152.9" y2="55.5" stroke="rgb(0,0,0)"  stroke-width="1.0"/>
<line x1="150.2" y1="83.4" x2="158.6" y2="57.3" stroke="rgb(0,0,0)"  stroke-width="1.0"/>
<line x1="183.7" y1="114.7" x2="211.2" y2="114.7" stroke="rgb(0,0,0)"  stroke-width="1.0"/>
<line x1="211.2" y1="114.7" x2="230.7" y2="79.9" stroke="rgb(0,0,0)"  stroke-width="1.0"/>
<line x1="230.7" y1="79.9" x2="257.1" y2="79.6" stroke="rgb(0,0,0)"  stroke-width="1.0"/>
<line x1="283.1" y1="79.4" x2="309.4" y2="79.4" stroke="rgb(0,0,0)"  stroke-width="1.0"/>
<line x1="270.1" y1="92.4" x2="270.1" y2="106.3" stroke="rgb(0,0,0)"  stroke-width="1.0"/>
<line x1="270.1" y1="66.4" x2="270.1" y2="53.0" stroke="rgb(0,0,0)"  stroke-width="1.0"/>
<line x1="309.4" y1="79.4" x2="328.8" y2="113.4" stroke="rgb(0,0,0)"  stroke-width="1.0"/>
<line x1="328.8" y1="113.4" x2="341.6" y2="136.0" stroke="rgb(0,0,0)"  stroke-width="1.0"/>
<line x1="332.4" y1="111.4" x2="345.3" y2="133.9" stroke="rgb(0,0,0)"  stroke-width="1.0"/>
<line x1="325.1" y1="115.5" x2="338.0" y2="138.1" stroke="rgb(0,0,0)"  stroke-width="1.0"/>
<line x1="109.4" y1="134.8" x2="109.4" y2="94.8" stroke="rgb(0,0,0)"  stroke-width="1.0"/>
<line x1="109.4" y1="94.8" x2="74.6" y2="74.8" stroke="rgb(0,0,0)"  stroke-width="1.0"/>
<line x1="74.6" y1="74.8" x2="63.4" y2="110.9" stroke="rgb(0,0,0)"  stroke-width="1.0"/>
<line x1="63.4" y1="110.9" x2="74.6" y2="154.8" stroke="rgb(0,0,0)"  stroke-width="1.0"/>
<line x1="74.6" y1="154.8" x2="109.4" y2="134.8" stroke="rgb(0,0,0)"  stroke-width="1.0"/>
<line x1="40.0" y1="134.8" x2="40.0" y2="94.8" stroke="rgb(0,0,0)"  stroke-width="1.0"/>
<line x1="47.2" y1="128.8" x2="47.2" y2="100.8" stroke="rgb(0,0,0)"  stroke-width="1.0"/>
<line x1="40.0" y1="94.8" x2="74.6" y2="74.8" stroke="rgb(0,0,0)"  stroke-width="1.0"/>
<line x1="74.6" y1="154.8" x2="40.0" y2="134.8" stroke="rgb(0,0,0)"  stroke-width="1.0"/>
<line x1="163.0" y1="104.2" x2="147.3" y2="82.5" stroke="rgb(0,0,0)"  stroke-width="1.0"/>
<line x1="147.3" y1="82.5" x2="109.4" y2="94.8" stroke="rgb(0,0,0)"  stroke-width="1.0"/>
<line x1="109.4" y1="134.8" x2="147.3" y2="147.3" stroke="rgb(0,0,0)"  stroke-width="1.0"/>
<line x1="147.3" y1="147.3" x2="163.1" y2="125.3" stroke="rgb(0,0,0)"  stroke-width="1.0"/>
<text x="164.667003" y="122.720109" fill="rgb(12,12,255)"  stroke="rgb(12,12,255)" stroke-width="1" font-size="16" >N</text>
<text x="153.813587" y="193.209226" fill="rgb(255,12,12)"  stroke="rgb(255,12,12)" stroke-width="1" font-size="16" >O</text>
<text x="153.813587" y="52.051878" fill="rgb(255,12,12)"  stroke="rgb(255,12,12)" stroke-width="1" font-size="16" >O</text>
<text x="274.851768" y="75.358835" fill="rgb(12,12,255)"  stroke="rgb(12,12,255)" stroke-width="1" font-size="16" >+</text>
<text x="264.051768" y="87.390835" fill="rgb(12,12,255)"  stroke="rgb(12,12,255)" stroke-width="1" font-size="16" >N</text>
<text x="266.051768" y="127.323856" fill="rgb(102,102,102)"  stroke="rgb(102,102,102)" stroke-width="1" font-size="16" >CH</text>
<text x="290.051768" y="131.003856" fill="rgb(102,102,102)"  stroke="rgb(102,102,102)" stroke-width="1" font-size="13" >3</text>
<text x="266.051768" y="48.000000" fill="rgb(102,102,102)"  stroke="rgb(102,102,102)" stroke-width="1" font-size="16" >CH</text>
<text x="290.051768" y="51.680000" fill="rgb(102,102,102)"  stroke="rgb(102,102,102)" stroke-width="1" font-size="13" >3</text>
<text x="342.083089" y="155.299723" fill="rgb(102,102,102)"  stroke="rgb(102,102,102)" stroke-width="1" font-size="16" >CH</text>
<text font-size="18.000000" fill ="black" font-family="sans-serif"
x="10.000000" y="20.000000" ></text>
<title> - OBDepict</title>
</svg>
