<?xml version="1.0"?>
<svg xmlns="http://www.w3.org/2000/svg"
xmlns:xlink="http://www.w3.org/1999/xlink" xmlns:cml="http://www.xml-cml.org/schema" width="427.06" height="381.946" x="0" y="0" font-family="sans-serif" stroke="rgb(0,0,0)" stroke-width="1"  stroke-linecap="round">
<rect x="0%" y="0%" width="100%" height="100%" stroke-width="0" fill="rgb(255,255,255)"  />
<line x1="304.0" y1="197.7" x2="314.4" y2="236.2" stroke="rgb(0,0,0)"  stroke-width="1.0"/>
<line x1="258.6" y1="135.3" x2="237.3" y2="118.4" stroke="rgb(0,0,0)"  stroke-width="1.0"/>
<line x1="316.5" y1="238.3" x2="288.4" y2="266.7" stroke="rgb(0,0,0)"  stroke-width="1.0"/>
<line x1="312.2" y1="234.1" x2="284.2" y2="262.5" stroke="rgb(0,0,0)"  stroke-width="1.0"/>
<line x1="237.3" y1="118.4" x2="244.0" y2="78.9" stroke="rgb(0,0,0)"  stroke-width="1.0"/>
<line x1="286.3" y1="264.6" x2="247.7" y2="254.7" stroke="rgb(0,0,0)"  stroke-width="1.0"/>
<line x1="286.3" y1="264.6" x2="296.7" y2="303.3" stroke="rgb(0,0,0)"  stroke-width="1.0"/>
<line x1="244.0" y1="78.9" x2="249.8" y2="52.7" stroke="rgb(0,0,0)"  stroke-width="1.0"/>
<line x1="239.9" y1="78.0" x2="245.7" y2="51.8" stroke="rgb(0,0,0)"  stroke-width="1.0"/>
<line x1="248.1" y1="79.8" x2="253.9" y2="53.6" stroke="rgb(0,0,0)"  stroke-width="1.0"/>
<line x1="247.7" y1="254.7" x2="228.5" y2="273.9" stroke="rgb(0,0,0)"  stroke-width="1.0"/>
<line x1="244.8" y1="255.5" x2="237.5" y2="229.4" stroke="rgb(0,0,0)"  stroke-width="1.0"/>
<line x1="250.6" y1="253.9" x2="243.3" y2="227.8" stroke="rgb(0,0,0)"  stroke-width="1.0"/>
<line x1="296.7" y1="303.3" x2="303.5" y2="329.4" stroke="rgb(0,0,0)"  stroke-width="1.0"/>
<line x1="300.7" y1="302.3" x2="307.6" y2="328.3" stroke="rgb(0,0,0)"  stroke-width="1.0"/>
<line x1="292.6" y1="304.4" x2="299.5" y2="330.4" stroke="rgb(0,0,0)"  stroke-width="1.0"/>
<line x1="206.3" y1="283.0" x2="179.2" y2="282.8" stroke="rgb(0,0,0)"  stroke-width="1.0"/>
<line x1="119.4" y1="247.5" x2="106.4" y2="224.4" stroke="rgb(0,0,0)"  stroke-width="1.0"/>
<line x1="87.0" y1="212.9" x2="59.9" y2="212.4" stroke="rgb(0,0,0)"  stroke-width="1.0"/>
<line x1="59.9" y1="212.4" x2="46.5" y2="189.3" stroke="rgb(0,0,0)"  stroke-width="1.0"/>
<line x1="328.9" y1="166.5" x2="307.0" y2="133.1" stroke="rgb(0,0,0)"  stroke-width="1.0"/>
<line x1="307.0" y1="133.1" x2="281.3" y2="140.0" stroke="rgb(0,0,0)"  stroke-width="1.0"/>
<line x1="268.0" y1="156.4" x2="266.4" y2="183.4" stroke="rgb(0,0,0)"  stroke-width="1.0"/>
<line x1="266.4" y1="183.4" x2="304.0" y2="197.7" stroke="rgb(0,0,0)"  stroke-width="1.0"/>
<line x1="274.6" y1="178.8" x2="301.0" y2="188.9" stroke="rgb(0,0,0)"  stroke-width="1.0"/>
<line x1="304.0" y1="197.7" x2="328.9" y2="166.5" stroke="rgb(0,0,0)"  stroke-width="1.0"/>
<line x1="328.9" y1="166.5" x2="368.9" y2="164.7" stroke="rgb(0,0,0)"  stroke-width="1.0"/>
<line x1="334.6" y1="159.0" x2="362.5" y2="157.7" stroke="rgb(0,0,0)"  stroke-width="1.0"/>
<line x1="368.9" y1="164.7" x2="387.1" y2="128.9" stroke="rgb(0,0,0)"  stroke-width="1.0"/>
<line x1="387.1" y1="128.9" x2="365.2" y2="95.6" stroke="rgb(0,0,0)"  stroke-width="1.0"/>
<line x1="377.7" y1="127.8" x2="362.5" y2="104.6" stroke="rgb(0,0,0)"  stroke-width="1.0"/>
<line x1="365.2" y1="95.6" x2="325.2" y2="97.8" stroke="rgb(0,0,0)"  stroke-width="1.0"/>
<line x1="325.2" y1="97.8" x2="307.0" y2="133.1" stroke="rgb(0,0,0)"  stroke-width="1.0"/>
<line x1="328.9" y1="106.5" x2="316.2" y2="131.0" stroke="rgb(0,0,0)"  stroke-width="1.0"/>
<line x1="179.2" y1="282.8" x2="159.3" y2="317.7" stroke="rgb(0,0,0)"  stroke-width="1.0"/>
<line x1="170.0" y1="284.4" x2="156.0" y2="308.9" stroke="rgb(0,0,0)"  stroke-width="1.0"/>
<line x1="159.3" y1="317.7" x2="118.7" y2="317.2" stroke="rgb(0,0,0)"  stroke-width="1.0"/>
<line x1="118.7" y1="317.2" x2="99.2" y2="282.1" stroke="rgb(0,0,0)"  stroke-width="1.0"/>
<line x1="122.1" y1="308.5" x2="108.4" y2="283.9" stroke="rgb(0,0,0)"  stroke-width="1.0"/>
<line x1="99.2" y1="282.1" x2="119.4" y2="247.5" stroke="rgb(0,0,0)"  stroke-width="1.0"/>
<line x1="119.4" y1="247.5" x2="159.6" y2="248.0" stroke="rgb(0,0,0)"  stroke-width="1.0"/>
<line x1="125.3" y1="254.8" x2="153.5" y2="255.2" stroke="rgb(0,0,0)"  stroke-width="1.0"/>
<line x1="159.6" y1="248.0" x2="179.2" y2="282.8" stroke="rgb(0,0,0)"  stroke-width="1.0"/>
<text x="262.757872" y="151.428818" fill="rgb(12,12,255)"  stroke="rgb(12,12,255)" stroke-width="1" font-size="16" >N</text>
<text x="246.551989" y="48.000000" fill="rgb(102,102,102)"  stroke="rgb(102,102,102)" stroke-width="1" font-size="16" >CH</text>
<text x="213.296973" y="291.127024" fill="rgb(12,12,255)"  stroke="rgb(12,12,255)" stroke-width="1" font-size="16" >N</text>
<text x="213.296973" y="307.127024" fill="rgb(12,12,255)"  stroke="rgb(12,12,255)" stroke-width="1" font-size="16" >H</text>
<text x="230.840423" y="224.117828" fill="rgb(255,12,12)"  stroke="rgb(255,12,12)" stroke-width="1" font-size="16" >O</text>
<text x="300.859145" y="349.946046" fill="rgb(12,12,255)"  stroke="rgb(12,12,255)" stroke-width="1" font-size="16" >N</text>
<text x="93.986970" y="221.113149" fill="rgb(255,12,12)"  stroke="rgb(255,12,12)" stroke-width="1" font-size="16" >O</text>
<text x="14.000000" y="186.016555" fill="rgb(102,102,102)"  stroke="rgb(102,102,102)" stroke-width="1" font-size="16" >H</text>
<text x="26.000000" y="189.696555" fill="rgb(102,102,102)"  stroke="rgb(102,102,102)" stroke-width="1" font-size="13" >3</text>
<text x="32.500000" y="186.016555" fill="rgb(102,102,102)"  stroke="rgb(102,102,102)" stroke-width="1" font-size="16" >C</text>
<text font-size="18.000000" fill ="black" font-family="sans-serif"
x="10.000000" y="20.000000" ></text>
<title> - OBDepict</title>
</svg>
