<?xml version="1.0"?>
<svg xmlns="http://www.w3.org/2000/svg"
xmlns:xlink="http://www.w3.org/1999/xlink" xmlns:cml="http://www.xml-cml.org/schema" width="412.3" height="431.483" x="0" y="0" font-family="sans-serif" stroke="rgb(0,0,0)" stroke-width="1"  stroke-linecap="round">
<rect x="0%" y="0%" width="100%" height="100%" stroke-width="0" fill="rgb(255,255,255)"  />
<line x1="189.1" y1="229.2" x2="164.9" y2="243.3" stroke="rgb(0,0,0)"  stroke-width="1.0"/>
<line x1="186.1" y1="224.0" x2="161.8" y2="238.1" stroke="rgb(0,0,0)"  stroke-width="1.0"/>
<line x1="198.5" y1="180.5" x2="198.8" y2="207.1" stroke="rgb(0,0,0)"  stroke-width="1.0"/>
<line x1="338.2" y1="100.6" x2="302.7" y2="120.3" stroke="rgb(0,0,0)"  stroke-width="1.0"/>
<line x1="179.7" y1="347.3" x2="188.8" y2="308.3" stroke="rgb(0,0,0)"  stroke-width="1.0"/>
<line x1="173.5" y1="374.0" x2="179.7" y2="347.3" stroke="rgb(0,0,0)"  stroke-width="1.0"/>
<line x1="169.5" y1="373.0" x2="175.6" y2="346.3" stroke="rgb(0,0,0)"  stroke-width="1.0"/>
<line x1="177.6" y1="374.9" x2="183.8" y2="348.2" stroke="rgb(0,0,0)"  stroke-width="1.0"/>
<line x1="233.0" y1="160.5" x2="198.5" y2="180.5" stroke="rgb(0,0,0)"  stroke-width="1.0"/>
<line x1="176.7" y1="164.3" x2="200.0" y2="177.9" stroke="rgb(0,0,0)"  stroke-width="1.0"/>
<line x1="173.7" y1="169.5" x2="197.0" y2="183.1" stroke="rgb(0,0,0)"  stroke-width="1.0"/>
<line x1="359.6" y1="117.0" x2="336.6" y2="103.1" stroke="rgb(0,0,0)"  stroke-width="1.0"/>
<line x1="362.7" y1="111.9" x2="339.7" y2="98.0" stroke="rgb(0,0,0)"  stroke-width="1.0"/>
<line x1="188.8" y1="308.3" x2="168.6" y2="289.5" stroke="rgb(0,0,0)"  stroke-width="1.0"/>
<line x1="337.9" y1="74.0" x2="338.2" y2="100.6" stroke="rgb(0,0,0)"  stroke-width="1.0"/>
<line x1="112.3" y1="346.1" x2="99.2" y2="321.8" stroke="rgb(0,0,0)"  stroke-width="1.0"/>
<line x1="314.4" y1="46.8" x2="326.7" y2="54.2" stroke="rgb(0,0,0)"  stroke-width="1.0"/>
<line x1="104.2" y1="380.5" x2="111.6" y2="368.6" stroke="rgb(0,0,0)"  stroke-width="1.0"/>
<line x1="163.4" y1="240.7" x2="140.0" y2="229.8" stroke="rgb(0,0,0)"  stroke-width="1.0"/>
<line x1="119.2" y1="233.7" x2="100.4" y2="253.2" stroke="rgb(0,0,0)"  stroke-width="1.0"/>
<line x1="100.4" y1="253.2" x2="120.1" y2="287.9" stroke="rgb(0,0,0)"  stroke-width="1.0"/>
<line x1="109.6" y1="254.8" x2="123.4" y2="279.1" stroke="rgb(0,0,0)"  stroke-width="1.0"/>
<line x1="120.1" y1="287.9" x2="146.3" y2="283.0" stroke="rgb(0,0,0)"  stroke-width="1.0"/>
<line x1="160.5" y1="267.7" x2="163.4" y2="240.7" stroke="rgb(0,0,0)"  stroke-width="1.0"/>
<line x1="233.0" y1="160.5" x2="233.0" y2="121.0" stroke="rgb(0,0,0)"  stroke-width="1.0"/>
<line x1="233.0" y1="121.0" x2="268.1" y2="101.0" stroke="rgb(0,0,0)"  stroke-width="1.0"/>
<line x1="241.8" y1="124.2" x2="266.5" y2="110.2" stroke="rgb(0,0,0)"  stroke-width="1.0"/>
<line x1="268.1" y1="101.0" x2="302.7" y2="120.3" stroke="rgb(0,0,0)"  stroke-width="1.0"/>
<line x1="302.7" y1="120.3" x2="302.4" y2="160.9" stroke="rgb(0,0,0)"  stroke-width="1.0"/>
<line x1="295.4" y1="126.3" x2="295.3" y2="154.9" stroke="rgb(0,0,0)"  stroke-width="1.0"/>
<line x1="302.4" y1="160.9" x2="267.5" y2="180.1" stroke="rgb(0,0,0)"  stroke-width="1.0"/>
<line x1="267.5" y1="180.1" x2="233.0" y2="160.5" stroke="rgb(0,0,0)"  stroke-width="1.0"/>
<line x1="265.9" y1="170.9" x2="241.8" y2="157.2" stroke="rgb(0,0,0)"  stroke-width="1.0"/>
<line x1="99.2" y1="321.8" x2="60.0" y2="321.6" stroke="rgb(0,0,0)"  stroke-width="1.0"/>
<line x1="93.2" y1="314.6" x2="66.0" y2="314.5" stroke="rgb(0,0,0)"  stroke-width="1.0"/>
<line x1="60.0" y1="321.6" x2="40.0" y2="286.1" stroke="rgb(0,0,0)"  stroke-width="1.0"/>
<line x1="40.0" y1="286.1" x2="61.2" y2="252.2" stroke="rgb(0,0,0)"  stroke-width="1.0"/>
<line x1="49.3" y1="284.8" x2="64.1" y2="261.1" stroke="rgb(0,0,0)"  stroke-width="1.0"/>
<line x1="61.2" y1="252.2" x2="100.4" y2="253.2" stroke="rgb(0,0,0)"  stroke-width="1.0"/>
<line x1="120.1" y1="287.9" x2="99.2" y2="321.8" stroke="rgb(0,0,0)"  stroke-width="1.0"/>
<text x="192.883545" y="228.082227" fill="rgb(12,12,255)"  stroke="rgb(12,12,255)" stroke-width="1" font-size="16" >N</text>
<text x="153.111793" y="288.650584" fill="rgb(12,12,255)"  stroke="rgb(12,12,255)" stroke-width="1" font-size="16" >N</text>
<text x="122.224499" y="232.325839" fill="rgb(178,178,0)"  stroke="rgb(178,178,0)" stroke-width="1" font-size="16" >S</text>
<text x="152.621864" y="394.639153" fill="rgb(102,102,102)"  stroke="rgb(102,102,102)" stroke-width="1" font-size="16" >HC</text>
<text x="157.956099" y="168.322870" fill="rgb(255,12,12)"  stroke="rgb(255,12,12)" stroke-width="1" font-size="16" >O</text>
<text x="366.300007" y="129.161501" fill="rgb(255,12,12)"  stroke="rgb(255,12,12)" stroke-width="1" font-size="16" >O</text>
<text x="331.779483" y="68.995222" fill="rgb(255,12,12)"  stroke="rgb(255,12,12)" stroke-width="1" font-size="16" >O</text>
<text x="112.535887" y="365.568473" fill="rgb(255,12,12)"  stroke="rgb(255,12,12)" stroke-width="1" font-size="16" >O</text>
<text x="277.258959" y="48.000000" fill="rgb(102,102,102)"  stroke="rgb(102,102,102)" stroke-width="1" font-size="16" >H</text>
<text x="289.258959" y="51.680000" fill="rgb(102,102,102)"  stroke="rgb(102,102,102)" stroke-width="1" font-size="13" >3</text>
<text x="295.758959" y="48.000000" fill="rgb(102,102,102)"  stroke="rgb(102,102,102)" stroke-width="1" font-size="16" >C</text>
<text x="71.337205" y="399.483458" fill="rgb(102,102,102)"  stroke="rgb(102,102,102)" stroke-width="1" font-size="16" >H</text>
<text x="83.337205" y="403.163458" fill="rgb(102,102,102)"  stroke="rgb(102,102,102)" stroke-width="1" font-size="13" >3</text>
<text x="89.837205" y="399.483458" fill="rgb(102,102,102)"  stroke="rgb(102,102,102)" stroke-width="1" font-size="16" >C</text>
<text font-size="18.000000" fill ="black" font-family="sans-serif"
x="10.000000" y="20.000000" ></text>
<title> - OBDepict</title>
</svg>
