<?xml version="1.0"?>
<svg xmlns="http://www.w3.org/2000/svg"
xmlns:xlink="http://www.w3.org/1999/xlink" xmlns:cml="http://www.xml-cml.org/schema" width="323.232" height="218.541" x="0" y="0" font-family="sans-serif" stroke="rgb(0,0,0)" stroke-width="1"  stroke-linecap="round">
<rect x="0%" y="0%" width="100%" height="100%" stroke-width="0" fill="rgb(255,255,255)"  />
<line x1="243.7" y1="75.7" x2="202.9" y2="75.7" stroke="rgb(0,0,0)"  stroke-width="1.0"/>
<line x1="243.7" y1="79.9" x2="202.9" y2="79.9" stroke="rgb(0,0,0)"  stroke-width="1.0"/>
<line x1="243.7" y1="71.5" x2="202.9" y2="71.5" stroke="rgb(0,0,0)"  stroke-width="1.0"/>
<line x1="202.9" y1="75.7" x2="162.0" y2="75.7" stroke="rgb(0,0,0)"  stroke-width="1.0"/>
<line x1="101.9" y1="109.4" x2="80.3" y2="143.0" stroke="rgb(0,0,0)"  stroke-width="1.0"/>
<line x1="90.4" y1="168.5" x2="77.7" y2="144.4" stroke="rgb(0,0,0)"  stroke-width="1.0"/>
<line x1="95.7" y1="165.7" x2="83.0" y2="141.6" stroke="rgb(0,0,0)"  stroke-width="1.0"/>
<line x1="270.2" y1="75.7" x2="243.7" y2="75.7" stroke="rgb(0,0,0)"  stroke-width="1.0"/>
<line x1="53.0" y1="142.7" x2="80.3" y2="143.0" stroke="rgb(0,0,0)"  stroke-width="1.0"/>
<line x1="101.9" y1="109.4" x2="141.2" y2="109.4" stroke="rgb(0,0,0)"  stroke-width="1.0"/>
<line x1="141.2" y1="109.4" x2="162.0" y2="75.7" stroke="rgb(0,0,0)"  stroke-width="1.0"/>
<line x1="138.2" y1="100.5" x2="152.8" y2="77.0" stroke="rgb(0,0,0)"  stroke-width="1.0"/>
<line x1="162.0" y1="75.7" x2="141.9" y2="40.0" stroke="rgb(0,0,0)"  stroke-width="1.0"/>
<line x1="141.9" y1="40.0" x2="103.7" y2="40.0" stroke="rgb(0,0,0)"  stroke-width="1.0"/>
<line x1="135.9" y1="47.2" x2="109.7" y2="47.2" stroke="rgb(0,0,0)"  stroke-width="1.0"/>
<line x1="103.7" y1="40.0" x2="82.7" y2="73.7" stroke="rgb(0,0,0)"  stroke-width="1.0"/>
<line x1="82.7" y1="73.7" x2="101.9" y2="109.4" stroke="rgb(0,0,0)"  stroke-width="1.0"/>
<line x1="91.9" y1="75.6" x2="105.4" y2="100.7" stroke="rgb(0,0,0)"  stroke-width="1.0"/>
<text x="93.181784" y="186.541269" fill="rgb(255,12,12)"  stroke="rgb(255,12,12)" stroke-width="1" font-size="16" >O</text>
<text x="277.231855" y="83.676653" fill="rgb(165,40,40)"  stroke="rgb(165,40,40)" stroke-width="1" font-size="16" >Br</text>
<text x="22.000000" y="150.530419" fill="rgb(255,12,12)"  stroke="rgb(255,12,12)" stroke-width="1" font-size="16" >HO</text>
<text font-size="18.000000" fill ="black" font-family="sans-serif"
x="10.000000" y="20.000000" ></text>
<title> - OBDepict</title>
</svg>
