<?xml version="1.0"?>
<svg xmlns="http://www.w3.org/2000/svg"
xmlns:xlink="http://www.w3.org/1999/xlink" xmlns:cml="http://www.xml-cml.org/schema" width="494.952" height="417.542" x="0" y="0" font-family="sans-serif" stroke="rgb(0,0,0)" stroke-width="1"  stroke-linecap="round">
<rect x="0%" y="0%" width="100%" height="100%" stroke-width="0" fill="rgb(255,255,255)"  />
<line x1="301.6" y1="251.1" x2="274.6" y2="250.8" stroke="rgb(0,0,0)"  stroke-width="1.0"/>
<line x1="301.7" y1="245.1" x2="274.7" y2="244.8" stroke="rgb(0,0,0)"  stroke-width="1.0"/>
<line x1="334.7" y1="213.6" x2="321.2" y2="236.9" stroke="rgb(0,0,0)"  stroke-width="1.0"/>
<line x1="236.7" y1="347.8" x2="263.3" y2="318.1" stroke="rgb(0,0,0)"  stroke-width="1.0"/>
<line x1="218.7" y1="367.9" x2="236.7" y2="347.8" stroke="rgb(0,0,0)"  stroke-width="1.0"/>
<line x1="215.5" y1="365.1" x2="233.5" y2="345.0" stroke="rgb(0,0,0)"  stroke-width="1.0"/>
<line x1="221.8" y1="370.7" x2="239.8" y2="350.6" stroke="rgb(0,0,0)"  stroke-width="1.0"/>
<line x1="74.6" y1="227.6" x2="97.5" y2="214.1" stroke="rgb(0,0,0)"  stroke-width="1.0"/>
<line x1="120.0" y1="214.0" x2="143.9" y2="227.8" stroke="rgb(0,0,0)"  stroke-width="1.0"/>
<line x1="374.7" y1="213.6" x2="334.7" y2="213.6" stroke="rgb(0,0,0)"  stroke-width="1.0"/>
<line x1="263.3" y1="318.1" x2="255.1" y2="292.3" stroke="rgb(0,0,0)"  stroke-width="1.0"/>
<line x1="323.8" y1="188.8" x2="337.3" y2="212.1" stroke="rgb(0,0,0)"  stroke-width="1.0"/>
<line x1="318.6" y1="191.8" x2="332.1" y2="215.1" stroke="rgb(0,0,0)"  stroke-width="1.0"/>
<line x1="52.8" y1="211.5" x2="76.1" y2="225.0" stroke="rgb(0,0,0)"  stroke-width="1.0"/>
<line x1="49.7" y1="216.7" x2="73.1" y2="230.2" stroke="rgb(0,0,0)"  stroke-width="1.0"/>
<line x1="395.3" y1="178.1" x2="374.7" y2="213.6" stroke="rgb(0,0,0)"  stroke-width="1.0"/>
<line x1="381.6" y1="155.4" x2="395.3" y2="178.1" stroke="rgb(0,0,0)"  stroke-width="1.0"/>
<line x1="394.9" y1="109.7" x2="381.4" y2="133.0" stroke="rgb(0,0,0)"  stroke-width="1.0"/>
<line x1="74.3" y1="254.6" x2="74.6" y2="227.6" stroke="rgb(0,0,0)"  stroke-width="1.0"/>
<line x1="274.7" y1="247.8" x2="258.8" y2="226.0" stroke="rgb(0,0,0)"  stroke-width="1.0"/>
<line x1="238.8" y1="219.4" x2="213.0" y2="227.8" stroke="rgb(0,0,0)"  stroke-width="1.0"/>
<line x1="213.0" y1="227.8" x2="213.0" y2="267.8" stroke="rgb(0,0,0)"  stroke-width="1.0"/>
<line x1="220.2" y1="233.8" x2="220.2" y2="261.8" stroke="rgb(0,0,0)"  stroke-width="1.0"/>
<line x1="213.0" y1="267.8" x2="238.8" y2="276.0" stroke="rgb(0,0,0)"  stroke-width="1.0"/>
<line x1="258.9" y1="269.4" x2="274.7" y2="247.8" stroke="rgb(0,0,0)"  stroke-width="1.0"/>
<line x1="394.9" y1="109.7" x2="374.9" y2="75.2" stroke="rgb(0,0,0)"  stroke-width="1.0"/>
<line x1="374.9" y1="75.2" x2="394.3" y2="40.6" stroke="rgb(0,0,0)"  stroke-width="1.0"/>
<line x1="384.1" y1="73.5" x2="397.7" y2="49.4" stroke="rgb(0,0,0)"  stroke-width="1.0"/>
<line x1="394.3" y1="40.6" x2="434.3" y2="40.0" stroke="rgb(0,0,0)"  stroke-width="1.0"/>
<line x1="434.3" y1="40.0" x2="455.0" y2="74.6" stroke="rgb(0,0,0)"  stroke-width="1.0"/>
<line x1="431.2" y1="48.8" x2="445.7" y2="73.1" stroke="rgb(0,0,0)"  stroke-width="1.0"/>
<line x1="455.0" y1="74.6" x2="434.9" y2="109.1" stroke="rgb(0,0,0)"  stroke-width="1.0"/>
<line x1="434.9" y1="109.1" x2="394.9" y2="109.7" stroke="rgb(0,0,0)"  stroke-width="1.0"/>
<line x1="428.8" y1="102.0" x2="400.8" y2="102.4" stroke="rgb(0,0,0)"  stroke-width="1.0"/>
<line x1="178.5" y1="207.8" x2="213.0" y2="227.8" stroke="rgb(0,0,0)"  stroke-width="1.0"/>
<line x1="213.0" y1="267.8" x2="178.5" y2="287.8" stroke="rgb(0,0,0)"  stroke-width="1.0"/>
<line x1="178.5" y1="287.8" x2="143.9" y2="267.8" stroke="rgb(0,0,0)"  stroke-width="1.0"/>
<line x1="176.9" y1="278.6" x2="152.7" y2="264.6" stroke="rgb(0,0,0)"  stroke-width="1.0"/>
<line x1="143.9" y1="267.8" x2="143.9" y2="227.8" stroke="rgb(0,0,0)"  stroke-width="1.0"/>
<line x1="143.9" y1="227.8" x2="178.5" y2="207.8" stroke="rgb(0,0,0)"  stroke-width="1.0"/>
<line x1="152.7" y1="231.0" x2="176.9" y2="217.0" stroke="rgb(0,0,0)"  stroke-width="1.0"/>
<text x="245.215435" y="287.916763" fill="rgb(12,12,255)"  stroke="rgb(12,12,255)" stroke-width="1" font-size="16" >N</text>
<text x="308.678819" y="256.185071" fill="rgb(12,12,255)"  stroke="rgb(12,12,255)" stroke-width="1" font-size="16" >N</text>
<text x="245.215435" y="223.441644" fill="rgb(178,178,0)"  stroke="rgb(178,178,0)" stroke-width="1" font-size="16" >S</text>
<text x="191.981179" y="385.541939" fill="rgb(102,102,102)"  stroke="rgb(102,102,102)" stroke-width="1" font-size="16" >HC</text>
<text x="102.720534" y="215.555919" fill="rgb(12,12,255)"  stroke="rgb(12,12,255)" stroke-width="1" font-size="16" >N</text>
<text x="102.720534" y="199.555919" fill="rgb(12,12,255)"  stroke="rgb(12,12,255)" stroke-width="1" font-size="16" >H</text>
<text x="308.678819" y="187.057907" fill="rgb(255,12,12)"  stroke="rgb(255,12,12)" stroke-width="1" font-size="16" >O</text>
<text x="34.000000" y="215.555919" fill="rgb(255,12,12)"  stroke="rgb(255,12,12)" stroke-width="1" font-size="16" >O</text>
<text x="368.913364" y="152.291010" fill="rgb(255,12,12)"  stroke="rgb(255,12,12)" stroke-width="1" font-size="16" >O</text>
<text x="48.156952" y="275.587149" fill="rgb(102,102,102)"  stroke="rgb(102,102,102)" stroke-width="1" font-size="16" >H</text>
<text x="60.156952" y="279.267149" fill="rgb(102,102,102)"  stroke="rgb(102,102,102)" stroke-width="1" font-size="13" >3</text>
<text x="66.656952" y="275.587149" fill="rgb(102,102,102)"  stroke="rgb(102,102,102)" stroke-width="1" font-size="16" >C</text>
<text font-size="18.000000" fill ="black" font-family="sans-serif"
x="10.000000" y="20.000000" ></text>
<title> - OBDepict</title>
</svg>
