<?xml version="1.0"?>
<svg xmlns="http://www.w3.org/2000/svg"
xmlns:xlink="http://www.w3.org/1999/xlink" xmlns:cml="http://www.xml-cml.org/schema" width="314.523" height="422.596" x="0" y="0" font-family="sans-serif" stroke="rgb(0,0,0)" stroke-width="1"  stroke-linecap="round">
<rect x="0%" y="0%" width="100%" height="100%" stroke-width="0" fill="rgb(255,255,255)"  />
<line x1="201.8" y1="191.1" x2="207.8" y2="164.8" stroke="rgb(0,0,0)"  stroke-width="1.0"/>
<line x1="60.4" y1="343.6" x2="69.3" y2="304.6" stroke="rgb(0,0,0)"  stroke-width="1.0"/>
<line x1="54.4" y1="369.9" x2="60.4" y2="343.6" stroke="rgb(0,0,0)"  stroke-width="1.0"/>
<line x1="50.3" y1="369.0" x2="56.3" y2="342.7" stroke="rgb(0,0,0)"  stroke-width="1.0"/>
<line x1="58.5" y1="370.9" x2="64.5" y2="344.5" stroke="rgb(0,0,0)"  stroke-width="1.0"/>
<line x1="163.4" y1="203.0" x2="201.8" y2="191.1" stroke="rgb(0,0,0)"  stroke-width="1.0"/>
<line x1="268.8" y1="52.0" x2="252.0" y2="73.2" stroke="rgb(0,0,0)"  stroke-width="1.0"/>
<line x1="264.1" y1="48.3" x2="247.3" y2="69.4" stroke="rgb(0,0,0)"  stroke-width="1.0"/>
<line x1="219.5" y1="211.7" x2="199.8" y2="193.3" stroke="rgb(0,0,0)"  stroke-width="1.0"/>
<line x1="223.6" y1="207.3" x2="203.8" y2="188.9" stroke="rgb(0,0,0)"  stroke-width="1.0"/>
<line x1="157.4" y1="229.3" x2="163.4" y2="203.0" stroke="rgb(0,0,0)"  stroke-width="1.0"/>
<line x1="116.4" y1="253.7" x2="142.1" y2="245.8" stroke="rgb(0,0,0)"  stroke-width="1.0"/>
<line x1="266.4" y1="164.3" x2="249.7" y2="143.2" stroke="rgb(0,0,0)"  stroke-width="1.0"/>
<line x1="179.4" y1="127.3" x2="144.6" y2="147.3" stroke="rgb(0,0,0)"  stroke-width="1.0"/>
<line x1="144.6" y1="147.3" x2="110.1" y2="127.3" stroke="rgb(0,0,0)"  stroke-width="1.0"/>
<line x1="143.1" y1="138.0" x2="118.9" y2="124.0" stroke="rgb(0,0,0)"  stroke-width="1.0"/>
<line x1="110.1" y1="127.3" x2="110.1" y2="87.3" stroke="rgb(0,0,0)"  stroke-width="1.0"/>
<line x1="110.1" y1="87.3" x2="144.6" y2="67.3" stroke="rgb(0,0,0)"  stroke-width="1.0"/>
<line x1="118.9" y1="90.5" x2="143.1" y2="76.5" stroke="rgb(0,0,0)"  stroke-width="1.0"/>
<line x1="144.6" y1="67.3" x2="179.4" y2="87.3" stroke="rgb(0,0,0)"  stroke-width="1.0"/>
<line x1="179.4" y1="87.3" x2="179.4" y2="127.3" stroke="rgb(0,0,0)"  stroke-width="1.0"/>
<line x1="172.2" y1="93.3" x2="172.2" y2="121.3" stroke="rgb(0,0,0)"  stroke-width="1.0"/>
<line x1="69.3" y1="304.6" x2="40.0" y2="277.4" stroke="rgb(0,0,0)"  stroke-width="1.0"/>
<line x1="69.8" y1="295.3" x2="49.3" y2="276.2" stroke="rgb(0,0,0)"  stroke-width="1.0"/>
<line x1="40.0" y1="277.4" x2="48.9" y2="238.4" stroke="rgb(0,0,0)"  stroke-width="1.0"/>
<line x1="48.9" y1="238.4" x2="87.1" y2="226.4" stroke="rgb(0,0,0)"  stroke-width="1.0"/>
<line x1="56.8" y1="243.4" x2="83.5" y2="235.1" stroke="rgb(0,0,0)"  stroke-width="1.0"/>
<line x1="87.1" y1="226.4" x2="116.4" y2="253.7" stroke="rgb(0,0,0)"  stroke-width="1.0"/>
<line x1="116.4" y1="253.7" x2="107.5" y2="292.7" stroke="rgb(0,0,0)"  stroke-width="1.0"/>
<line x1="108.0" y1="258.0" x2="101.8" y2="285.3" stroke="rgb(0,0,0)"  stroke-width="1.0"/>
<line x1="107.5" y1="292.7" x2="69.3" y2="304.6" stroke="rgb(0,0,0)"  stroke-width="1.0"/>
<line x1="200.5" y1="144.0" x2="179.4" y2="127.3" stroke="rgb(0,0,0)"  stroke-width="1.0"/>
<line x1="179.4" y1="87.3" x2="200.5" y2="70.3" stroke="rgb(0,0,0)"  stroke-width="1.0"/>
<line x1="223.4" y1="65.2" x2="249.7" y2="71.3" stroke="rgb(0,0,0)"  stroke-width="1.0"/>
<line x1="249.7" y1="71.3" x2="267.0" y2="107.3" stroke="rgb(0,0,0)"  stroke-width="1.0"/>
<line x1="267.0" y1="107.3" x2="249.7" y2="143.2" stroke="rgb(0,0,0)"  stroke-width="1.0"/>
<line x1="249.7" y1="143.2" x2="223.4" y2="149.2" stroke="rgb(0,0,0)"  stroke-width="1.0"/>
<text x="204.689878" y="160.111268" fill="rgb(12,12,255)"  stroke="rgb(12,12,255)" stroke-width="1" font-size="16" >N</text>
<text x="204.689878" y="70.214793" fill="rgb(12,12,255)"  stroke="rgb(12,12,255)" stroke-width="1" font-size="16" >N</text>
<text x="204.689878" y="54.214793" fill="rgb(12,12,255)"  stroke="rgb(12,12,255)" stroke-width="1" font-size="16" >H</text>
<text x="33.512139" y="390.596408" fill="rgb(102,102,102)"  stroke="rgb(102,102,102)" stroke-width="1" font-size="16" >HC</text>
<text x="268.522871" y="48.000000" fill="rgb(255,12,12)"  stroke="rgb(255,12,12)" stroke-width="1" font-size="16" >O</text>
<text x="225.096660" y="226.363022" fill="rgb(255,12,12)"  stroke="rgb(255,12,12)" stroke-width="1" font-size="16" >O</text>
<text x="148.534876" y="249.998049" fill="rgb(12,12,255)"  stroke="rgb(12,12,255)" stroke-width="1" font-size="16" >NH</text>
<text x="270.522871" y="182.534491" fill="rgb(102,102,102)"  stroke="rgb(102,102,102)" stroke-width="1" font-size="16" >CH</text>
<text x="294.522871" y="186.214491" fill="rgb(102,102,102)"  stroke="rgb(102,102,102)" stroke-width="1" font-size="13" >3</text>
<text font-size="18.000000" fill ="black" font-family="sans-serif"
x="10.000000" y="20.000000" ></text>
<title> - OBDepict</title>
</svg>
