<?xml version="1.0"?>
<svg xmlns="http://www.w3.org/2000/svg"
xmlns:xlink="http://www.w3.org/1999/xlink" xmlns:cml="http://www.xml-cml.org/schema" width="488.67" height="220.402" x="0" y="0" font-family="sans-serif" stroke="rgb(0,0,0)" stroke-width="1"  stroke-linecap="round">
<rect x="0%" y="0%" width="100%" height="100%" stroke-width="0" fill="rgb(255,255,255)"  />
<line x1="248.3" y1="139.8" x2="282.6" y2="119.4" stroke="rgb(0,0,0)"  stroke-width="1.0"/>
<line x1="74.9" y1="121.6" x2="109.7" y2="141.2" stroke="rgb(0,0,0)"  stroke-width="1.0"/>
<line x1="51.3" y1="108.4" x2="74.9" y2="121.6" stroke="rgb(0,0,0)"  stroke-width="1.0"/>
<line x1="53.4" y1="104.7" x2="77.0" y2="118.0" stroke="rgb(0,0,0)"  stroke-width="1.0"/>
<line x1="49.3" y1="112.0" x2="72.9" y2="125.3" stroke="rgb(0,0,0)"  stroke-width="1.0"/>
<line x1="385.6" y1="108.9" x2="358.8" y2="106.4" stroke="rgb(0,0,0)"  stroke-width="1.0"/>
<line x1="179.0" y1="140.4" x2="213.3" y2="120.2" stroke="rgb(0,0,0)"  stroke-width="1.0"/>
<line x1="176.3" y1="167.4" x2="176.0" y2="140.4" stroke="rgb(0,0,0)"  stroke-width="1.0"/>
<line x1="182.3" y1="167.4" x2="182.0" y2="140.4" stroke="rgb(0,0,0)"  stroke-width="1.0"/>
<line x1="213.3" y1="120.2" x2="248.3" y2="139.8" stroke="rgb(0,0,0)"  stroke-width="1.0"/>
<line x1="155.6" y1="127.2" x2="179.0" y2="140.4" stroke="rgb(0,0,0)"  stroke-width="1.0"/>
<line x1="325.3" y1="161.7" x2="319.4" y2="135.1" stroke="rgb(0,0,0)"  stroke-width="1.0"/>
<line x1="109.7" y1="141.2" x2="133.0" y2="127.4" stroke="rgb(0,0,0)"  stroke-width="1.0"/>
<line x1="266.1" y1="61.7" x2="286.5" y2="79.6" stroke="rgb(0,0,0)"  stroke-width="1.0"/>
<line x1="408.9" y1="76.4" x2="385.6" y2="108.9" stroke="rgb(0,0,0)"  stroke-width="1.0"/>
<line x1="397.6" y1="51.8" x2="408.9" y2="76.4" stroke="rgb(0,0,0)"  stroke-width="1.0"/>
<line x1="435.7" y1="78.8" x2="408.9" y2="76.4" stroke="rgb(0,0,0)"  stroke-width="1.0"/>
<line x1="337.2" y1="115.0" x2="319.4" y2="135.1" stroke="rgb(0,0,0)"  stroke-width="1.0"/>
<line x1="319.4" y1="135.1" x2="282.6" y2="119.4" stroke="rgb(0,0,0)"  stroke-width="1.0"/>
<line x1="316.7" y1="126.2" x2="291.0" y2="115.1" stroke="rgb(0,0,0)"  stroke-width="1.0"/>
<line x1="282.6" y1="119.4" x2="286.5" y2="79.6" stroke="rgb(0,0,0)"  stroke-width="1.0"/>
<line x1="286.5" y1="79.6" x2="312.6" y2="73.6" stroke="rgb(0,0,0)"  stroke-width="1.0"/>
<line x1="293.9" y1="85.3" x2="312.2" y2="81.1" stroke="rgb(0,0,0)"  stroke-width="1.0"/>
<line x1="332.1" y1="81.9" x2="339.2" y2="94.1" stroke="rgb(0,0,0)"  stroke-width="1.0"/>
<text x="339.849117" y="113.254145" fill="rgb(12,12,255)"  stroke="rgb(12,12,255)" stroke-width="1" font-size="16" >N</text>
<text x="319.446896" y="78.707548" fill="rgb(12,12,255)"  stroke="rgb(12,12,255)" stroke-width="1" font-size="16" >N</text>
<text x="22.000000" y="110.021007" fill="rgb(102,102,102)"  stroke="rgb(102,102,102)" stroke-width="1" font-size="16" >HC</text>
<text x="173.388516" y="188.401599" fill="rgb(255,12,12)"  stroke="rgb(255,12,12)" stroke-width="1" font-size="16" >O</text>
<text x="138.240856" y="128.804234" fill="rgb(12,12,255)"  stroke="rgb(12,12,255)" stroke-width="1" font-size="16" >N</text>
<text x="138.240856" y="112.804234" fill="rgb(12,12,255)"  stroke="rgb(12,12,255)" stroke-width="1" font-size="16" >H</text>
<text x="324.069277" y="182.342493" fill="rgb(102,102,102)"  stroke="rgb(102,102,102)" stroke-width="1" font-size="16" >CH</text>
<text x="348.069277" y="186.022493" fill="rgb(102,102,102)"  stroke="rgb(102,102,102)" stroke-width="1" font-size="13" >3</text>
<text x="230.358549" y="61.131294" fill="rgb(102,102,102)"  stroke="rgb(102,102,102)" stroke-width="1" font-size="16" >H</text>
<text x="242.358549" y="64.811294" fill="rgb(102,102,102)"  stroke="rgb(102,102,102)" stroke-width="1" font-size="13" >3</text>
<text x="248.858549" y="61.131294" fill="rgb(102,102,102)"  stroke="rgb(102,102,102)" stroke-width="1" font-size="16" >C</text>
<text x="366.111602" y="48.000000" fill="rgb(102,102,102)"  stroke="rgb(102,102,102)" stroke-width="1" font-size="16" >H</text>
<text x="378.111602" y="51.680000" fill="rgb(102,102,102)"  stroke="rgb(102,102,102)" stroke-width="1" font-size="13" >3</text>
<text x="384.611602" y="48.000000" fill="rgb(102,102,102)"  stroke="rgb(102,102,102)" stroke-width="1" font-size="16" >C</text>
<text x="444.669718" y="87.999793" fill="rgb(102,102,102)"  stroke="rgb(102,102,102)" stroke-width="1" font-size="16" >CH</text>
<text x="468.669718" y="91.679793" fill="rgb(102,102,102)"  stroke="rgb(102,102,102)" stroke-width="1" font-size="13" >3</text>
<text font-size="18.000000" fill ="black" font-family="sans-serif"
x="10.000000" y="20.000000" ></text>
<title> - OBDepict</title>
</svg>
