<?xml version="1.0"?>
<svg xmlns="http://www.w3.org/2000/svg"
xmlns:xlink="http://www.w3.org/1999/xlink" xmlns:cml="http://www.xml-cml.org/schema" width="287.93" height="259.916" x="0" y="0" font-family="sans-serif" stroke="rgb(0,0,0)" stroke-width="1"  stroke-linecap="round">
<rect x="0%" y="0%" width="100%" height="100%" stroke-width="0" fill="rgb(255,255,255)"  />
<line x1="40.0" y1="179.9" x2="74.7" y2="159.9" stroke="rgb(0,0,0)"  stroke-width="1.0"/>
<line x1="40.0" y1="206.9" x2="40.0" y2="179.9" stroke="rgb(0,0,0)"  stroke-width="1.0"/>
<line x1="35.8" y1="206.9" x2="35.8" y2="179.9" stroke="rgb(0,0,0)"  stroke-width="1.0"/>
<line x1="44.2" y1="206.9" x2="44.2" y2="179.9" stroke="rgb(0,0,0)"  stroke-width="1.0"/>
<line x1="235.2" y1="56.1" x2="211.8" y2="42.6" stroke="rgb(0,0,0)"  stroke-width="1.0"/>
<line x1="238.2" y1="50.9" x2="214.8" y2="37.4" stroke="rgb(0,0,0)"  stroke-width="1.0"/>
<line x1="144.2" y1="147.1" x2="144.2" y2="120.0" stroke="rgb(0,0,0)"  stroke-width="1.0"/>
<line x1="86.3" y1="46.5" x2="109.7" y2="60.0" stroke="rgb(0,0,0)"  stroke-width="1.0"/>
<line x1="213.3" y1="40.0" x2="178.9" y2="60.0" stroke="rgb(0,0,0)"  stroke-width="1.0"/>
<line x1="86.0" y1="113.6" x2="109.5" y2="100.0" stroke="rgb(0,0,0)"  stroke-width="1.0"/>
<line x1="74.7" y1="159.9" x2="74.7" y2="133.0" stroke="rgb(0,0,0)"  stroke-width="1.0"/>
<line x1="109.5" y1="100.0" x2="144.2" y2="120.0" stroke="rgb(0,0,0)"  stroke-width="1.0"/>
<line x1="118.3" y1="96.8" x2="142.6" y2="110.8" stroke="rgb(0,0,0)"  stroke-width="1.0"/>
<line x1="144.2" y1="120.0" x2="178.9" y2="100.0" stroke="rgb(0,0,0)"  stroke-width="1.0"/>
<line x1="178.9" y1="100.0" x2="178.9" y2="60.0" stroke="rgb(0,0,0)"  stroke-width="1.0"/>
<line x1="171.7" y1="94.0" x2="171.7" y2="66.0" stroke="rgb(0,0,0)"  stroke-width="1.0"/>
<line x1="178.9" y1="60.0" x2="144.4" y2="40.0" stroke="rgb(0,0,0)"  stroke-width="1.0"/>
<line x1="144.4" y1="40.0" x2="109.7" y2="60.0" stroke="rgb(0,0,0)"  stroke-width="1.0"/>
<line x1="142.8" y1="49.2" x2="118.5" y2="63.2" stroke="rgb(0,0,0)"  stroke-width="1.0"/>
<line x1="109.7" y1="60.0" x2="109.5" y2="100.0" stroke="rgb(0,0,0)"  stroke-width="1.0"/>
<text x="34.000000" y="227.916312" fill="rgb(102,102,102)"  stroke="rgb(102,102,102)" stroke-width="1" font-size="16" >CH</text>
<text x="241.929704" y="68.009566" fill="rgb(255,12,12)"  stroke="rgb(255,12,12)" stroke-width="1" font-size="16" >O</text>
<text x="138.219519" y="168.052543" fill="rgb(165,40,40)"  stroke="rgb(165,40,40)" stroke-width="1" font-size="16" >Br</text>
<text x="57.017952" y="48.000000" fill="rgb(165,40,40)"  stroke="rgb(165,40,40)" stroke-width="1" font-size="16" >Br</text>
<text x="68.683247" y="128.038262" fill="rgb(255,12,12)"  stroke="rgb(255,12,12)" stroke-width="1" font-size="16" >O</text>
<text font-size="18.000000" fill ="black" font-family="sans-serif"
x="10.000000" y="20.000000" ></text>
<title> - OBDepict</title>
</svg>
