<?xml version="1.0"?>
<svg xmlns="http://www.w3.org/2000/svg"
xmlns:xlink="http://www.w3.org/1999/xlink" xmlns:cml="http://www.xml-cml.org/schema" width="391.925" height="420.064" x="0" y="0" font-family="sans-serif" stroke="rgb(0,0,0)" stroke-width="1"  stroke-linecap="round">
<rect x="0%" y="0%" width="100%" height="100%" stroke-width="0" fill="rgb(255,255,255)"  />
<line x1="213.4" y1="219.7" x2="178.7" y2="199.6" stroke="rgb(0,0,0)"  stroke-width="1.0"/>
<line x1="177.2" y1="282.2" x2="153.6" y2="268.5" stroke="rgb(0,0,0)"  stroke-width="1.0"/>
<line x1="180.2" y1="277.1" x2="156.7" y2="263.4" stroke="rgb(0,0,0)"  stroke-width="1.0"/>
<line x1="246.3" y1="162.7" x2="222.9" y2="148.9" stroke="rgb(0,0,0)"  stroke-width="1.0"/>
<line x1="249.3" y1="157.5" x2="226.0" y2="143.7" stroke="rgb(0,0,0)"  stroke-width="1.0"/>
<line x1="109.3" y1="199.6" x2="86.0" y2="213.2" stroke="rgb(0,0,0)"  stroke-width="1.0"/>
<line x1="144.1" y1="139.7" x2="144.1" y2="112.6" stroke="rgb(0,0,0)"  stroke-width="1.0"/>
<line x1="213.3" y1="339.6" x2="213.3" y2="367.1" stroke="rgb(0,0,0)"  stroke-width="1.0"/>
<line x1="213.3" y1="339.6" x2="185.8" y2="339.6" stroke="rgb(0,0,0)"  stroke-width="1.0"/>
<line x1="316.8" y1="160.3" x2="303.1" y2="136.6" stroke="rgb(0,0,0)"  stroke-width="1.0"/>
<line x1="316.8" y1="160.3" x2="340.7" y2="146.3" stroke="rgb(0,0,0)"  stroke-width="1.0"/>
<line x1="109.3" y1="159.5" x2="86.1" y2="146.4" stroke="rgb(0,0,0)"  stroke-width="1.0"/>
<line x1="63.5" y1="213.2" x2="51.3" y2="206.1" stroke="rgb(0,0,0)"  stroke-width="1.0"/>
<line x1="74.8" y1="127.1" x2="74.8" y2="100.0" stroke="rgb(0,0,0)"  stroke-width="1.0"/>
<line x1="74.8" y1="100.0" x2="109.3" y2="80.1" stroke="rgb(0,0,0)"  stroke-width="1.0"/>
<line x1="109.3" y1="80.1" x2="109.3" y2="53.0" stroke="rgb(0,0,0)"  stroke-width="1.0"/>
<line x1="105.1" y1="80.1" x2="105.1" y2="53.0" stroke="rgb(0,0,0)"  stroke-width="1.0"/>
<line x1="113.5" y1="80.1" x2="113.5" y2="53.0" stroke="rgb(0,0,0)"  stroke-width="1.0"/>
<line x1="213.4" y1="219.7" x2="247.8" y2="200.0" stroke="rgb(0,0,0)"  stroke-width="1.0"/>
<line x1="247.8" y1="200.0" x2="282.0" y2="220.1" stroke="rgb(0,0,0)"  stroke-width="1.0"/>
<line x1="249.4" y1="209.3" x2="273.2" y2="223.2" stroke="rgb(0,0,0)"  stroke-width="1.0"/>
<line x1="282.0" y1="220.1" x2="282.0" y2="246.6" stroke="rgb(0,0,0)"  stroke-width="1.0"/>
<line x1="270.8" y1="266.2" x2="247.8" y2="279.6" stroke="rgb(0,0,0)"  stroke-width="1.0"/>
<line x1="247.8" y1="279.6" x2="213.4" y2="259.6" stroke="rgb(0,0,0)"  stroke-width="1.0"/>
<line x1="246.3" y1="270.4" x2="222.2" y2="256.4" stroke="rgb(0,0,0)"  stroke-width="1.0"/>
<line x1="213.4" y1="259.6" x2="213.4" y2="219.7" stroke="rgb(0,0,0)"  stroke-width="1.0"/>
<line x1="316.8" y1="199.6" x2="282.0" y2="220.1" stroke="rgb(0,0,0)"  stroke-width="1.0"/>
<line x1="247.8" y1="200.0" x2="247.8" y2="160.1" stroke="rgb(0,0,0)"  stroke-width="1.0"/>
<line x1="247.8" y1="160.1" x2="282.0" y2="140.2" stroke="rgb(0,0,0)"  stroke-width="1.0"/>
<line x1="282.0" y1="140.2" x2="316.8" y2="160.3" stroke="rgb(0,0,0)"  stroke-width="1.0"/>
<line x1="316.8" y1="160.3" x2="316.8" y2="199.6" stroke="rgb(0,0,0)"  stroke-width="1.0"/>
<line x1="213.4" y1="259.6" x2="178.7" y2="279.6" stroke="rgb(0,0,0)"  stroke-width="1.0"/>
<line x1="178.7" y1="279.6" x2="178.7" y2="319.6" stroke="rgb(0,0,0)"  stroke-width="1.0"/>
<line x1="178.7" y1="319.6" x2="213.3" y2="339.6" stroke="rgb(0,0,0)"  stroke-width="1.0"/>
<line x1="213.3" y1="339.6" x2="247.8" y2="319.6" stroke="rgb(0,0,0)"  stroke-width="1.0"/>
<line x1="247.8" y1="319.6" x2="247.8" y2="279.6" stroke="rgb(0,0,0)"  stroke-width="1.0"/>
<line x1="178.7" y1="199.6" x2="178.7" y2="159.5" stroke="rgb(0,0,0)"  stroke-width="1.0"/>
<line x1="171.5" y1="193.6" x2="171.5" y2="165.5" stroke="rgb(0,0,0)"  stroke-width="1.0"/>
<line x1="178.7" y1="159.5" x2="144.1" y2="139.7" stroke="rgb(0,0,0)"  stroke-width="1.0"/>
<line x1="144.1" y1="139.7" x2="109.3" y2="159.5" stroke="rgb(0,0,0)"  stroke-width="1.0"/>
<line x1="142.5" y1="148.9" x2="118.1" y2="162.8" stroke="rgb(0,0,0)"  stroke-width="1.0"/>
<line x1="109.3" y1="159.5" x2="109.3" y2="199.6" stroke="rgb(0,0,0)"  stroke-width="1.0"/>
<line x1="109.3" y1="199.6" x2="144.1" y2="219.7" stroke="rgb(0,0,0)"  stroke-width="1.0"/>
<line x1="118.1" y1="196.4" x2="142.5" y2="210.5" stroke="rgb(0,0,0)"  stroke-width="1.0"/>
<line x1="144.1" y1="219.7" x2="178.7" y2="199.6" stroke="rgb(0,0,0)"  stroke-width="1.0"/>
<text x="276.033287" y="267.601714" fill="rgb(12,12,255)"  stroke="rgb(12,12,255)" stroke-width="1" font-size="16" >NH</text>
<text x="137.916808" y="267.412765" fill="rgb(255,12,12)"  stroke="rgb(255,12,12)" stroke-width="1" font-size="16" >O</text>
<text x="207.251203" y="147.682425" fill="rgb(255,12,12)"  stroke="rgb(255,12,12)" stroke-width="1" font-size="16" >O</text>
<text x="68.761672" y="227.689985" fill="rgb(255,12,12)"  stroke="rgb(255,12,12)" stroke-width="1" font-size="16" >O</text>
<text x="138.096067" y="107.591437" fill="rgb(30,239,30)"  stroke="rgb(30,239,30)" stroke-width="1" font-size="16" >Cl</text>
<text x="209.251203" y="388.063624" fill="rgb(102,102,102)"  stroke="rgb(102,102,102)" stroke-width="1" font-size="16" >CH</text>
<text x="233.251203" y="391.743624" fill="rgb(102,102,102)"  stroke="rgb(102,102,102)" stroke-width="1" font-size="13" >3</text>
<text x="146.787164" y="347.604430" fill="rgb(102,102,102)"  stroke="rgb(102,102,102)" stroke-width="1" font-size="16" >H</text>
<text x="158.787164" y="351.284430" fill="rgb(102,102,102)"  stroke="rgb(102,102,102)" stroke-width="1" font-size="13" >3</text>
<text x="165.287164" y="347.604430" fill="rgb(102,102,102)"  stroke="rgb(102,102,102)" stroke-width="1" font-size="16" >C</text>
<text x="270.562939" y="133.336876" fill="rgb(102,102,102)"  stroke="rgb(102,102,102)" stroke-width="1" font-size="16" >H</text>
<text x="282.562939" y="137.016876" fill="rgb(102,102,102)"  stroke="rgb(102,102,102)" stroke-width="1" font-size="13" >3</text>
<text x="289.062939" y="133.336876" fill="rgb(102,102,102)"  stroke="rgb(102,102,102)" stroke-width="1" font-size="16" >C</text>
<text x="347.924838" y="147.682425" fill="rgb(102,102,102)"  stroke="rgb(102,102,102)" stroke-width="1" font-size="16" >CH</text>
<text x="371.924838" y="151.362425" fill="rgb(102,102,102)"  stroke="rgb(102,102,102)" stroke-width="1" font-size="13" >3</text>
<text x="68.761672" y="148.050632" fill="rgb(255,12,12)"  stroke="rgb(255,12,12)" stroke-width="1" font-size="16" >O</text>
<text x="14.000000" y="207.637224" fill="rgb(102,102,102)"  stroke="rgb(102,102,102)" stroke-width="1" font-size="16" >H</text>
<text x="26.000000" y="211.317224" fill="rgb(102,102,102)"  stroke="rgb(102,102,102)" stroke-width="1" font-size="13" >3</text>
<text x="32.500000" y="207.637224" fill="rgb(102,102,102)"  stroke="rgb(102,102,102)" stroke-width="1" font-size="16" >C</text>
<text x="103.339240" y="48.000000" fill="rgb(102,102,102)"  stroke="rgb(102,102,102)" stroke-width="1" font-size="16" >CH</text>
<text font-size="18.000000" fill ="black" font-family="sans-serif"
x="10.000000" y="20.000000" ></text>
<title> - OBDepict</title>
</svg>
