<?xml version="1.0"?>
<svg xmlns="http://www.w3.org/2000/svg"
xmlns:xlink="http://www.w3.org/1999/xlink" xmlns:cml="http://www.xml-cml.org/schema" width="356.541" height="327.359" x="0" y="0" font-family="sans-serif" stroke="rgb(0,0,0)" stroke-width="1"  stroke-linecap="round">
<rect x="0%" y="0%" width="100%" height="100%" stroke-width="0" fill="rgb(255,255,255)"  />
<line x1="217.5" y1="182.3" x2="177.7" y2="182.3" stroke="rgb(0,0,0)"  stroke-width="1.0"/>
<line x1="213.1" y1="246.9" x2="178.5" y2="226.8" stroke="rgb(0,0,0)"  stroke-width="1.0"/>
<line x1="230.8" y1="159.0" x2="217.5" y2="182.3" stroke="rgb(0,0,0)"  stroke-width="1.0"/>
<line x1="236.3" y1="260.3" x2="213.1" y2="246.9" stroke="rgb(0,0,0)"  stroke-width="1.0"/>
<line x1="234.1" y1="263.9" x2="211.0" y2="250.5" stroke="rgb(0,0,0)"  stroke-width="1.0"/>
<line x1="238.4" y1="256.7" x2="215.2" y2="243.3" stroke="rgb(0,0,0)"  stroke-width="1.0"/>
<line x1="116.9" y1="76.4" x2="100.6" y2="112.7" stroke="rgb(0,0,0)"  stroke-width="1.0"/>
<line x1="127.9" y1="51.9" x2="116.9" y2="76.4" stroke="rgb(0,0,0)"  stroke-width="1.0"/>
<line x1="131.7" y1="53.6" x2="120.7" y2="78.1" stroke="rgb(0,0,0)"  stroke-width="1.0"/>
<line x1="124.0" y1="50.2" x2="113.0" y2="74.7" stroke="rgb(0,0,0)"  stroke-width="1.0"/>
<line x1="84.4" y1="180.4" x2="111.6" y2="180.1" stroke="rgb(0,0,0)"  stroke-width="1.0"/>
<line x1="84.4" y1="186.4" x2="111.7" y2="186.1" stroke="rgb(0,0,0)"  stroke-width="1.0"/>
<line x1="228.2" y1="206.9" x2="214.9" y2="183.8" stroke="rgb(0,0,0)"  stroke-width="1.0"/>
<line x1="233.4" y1="203.9" x2="220.1" y2="180.8" stroke="rgb(0,0,0)"  stroke-width="1.0"/>
<line x1="100.6" y1="112.7" x2="116.3" y2="134.5" stroke="rgb(0,0,0)"  stroke-width="1.0"/>
<line x1="202.6" y1="280.5" x2="178.9" y2="266.8" stroke="rgb(0,0,0)"  stroke-width="1.0"/>
<line x1="277.1" y1="147.3" x2="250.2" y2="147.5" stroke="rgb(0,0,0)"  stroke-width="1.0"/>
<line x1="179.3" y1="122.9" x2="164.0" y2="144.9" stroke="rgb(0,0,0)"  stroke-width="1.0"/>
<line x1="303.5" y1="147.3" x2="277.1" y2="147.3" stroke="rgb(0,0,0)"  stroke-width="1.0"/>
<line x1="276.8" y1="120.4" x2="277.1" y2="147.3" stroke="rgb(0,0,0)"  stroke-width="1.0"/>
<line x1="276.8" y1="174.1" x2="277.1" y2="147.3" stroke="rgb(0,0,0)"  stroke-width="1.0"/>
<line x1="177.7" y1="182.3" x2="143.9" y2="206.6" stroke="rgb(0,0,0)"  stroke-width="1.0"/>
<line x1="143.9" y1="206.6" x2="111.6" y2="183.1" stroke="rgb(0,0,0)"  stroke-width="1.0"/>
<line x1="111.6" y1="183.1" x2="119.9" y2="157.4" stroke="rgb(0,0,0)"  stroke-width="1.0"/>
<line x1="136.9" y1="145.0" x2="164.0" y2="144.9" stroke="rgb(0,0,0)"  stroke-width="1.0"/>
<line x1="164.0" y1="144.9" x2="177.7" y2="182.3" stroke="rgb(0,0,0)"  stroke-width="1.0"/>
<line x1="159.3" y1="153.0" x2="168.8" y2="179.1" stroke="rgb(0,0,0)"  stroke-width="1.0"/>
<line x1="143.9" y1="206.6" x2="178.5" y2="226.8" stroke="rgb(0,0,0)"  stroke-width="1.0"/>
<line x1="178.5" y1="226.8" x2="178.9" y2="266.8" stroke="rgb(0,0,0)"  stroke-width="1.0"/>
<line x1="171.3" y1="232.8" x2="171.6" y2="260.9" stroke="rgb(0,0,0)"  stroke-width="1.0"/>
<line x1="178.9" y1="266.8" x2="155.3" y2="280.3" stroke="rgb(0,0,0)"  stroke-width="1.0"/>
<line x1="132.7" y1="280.4" x2="109.4" y2="267.2" stroke="rgb(0,0,0)"  stroke-width="1.0"/>
<line x1="109.4" y1="267.2" x2="109.2" y2="227.2" stroke="rgb(0,0,0)"  stroke-width="1.0"/>
<line x1="109.2" y1="227.2" x2="143.9" y2="206.6" stroke="rgb(0,0,0)"  stroke-width="1.0"/>
<line x1="75.2" y1="287.4" x2="40.2" y2="267.4" stroke="rgb(0,0,0)"  stroke-width="1.0"/>
<line x1="40.2" y1="267.4" x2="40.0" y2="227.6" stroke="rgb(0,0,0)"  stroke-width="1.0"/>
<line x1="47.4" y1="261.4" x2="47.2" y2="233.5" stroke="rgb(0,0,0)"  stroke-width="1.0"/>
<line x1="40.0" y1="227.6" x2="74.6" y2="207.1" stroke="rgb(0,0,0)"  stroke-width="1.0"/>
<line x1="74.6" y1="207.1" x2="109.2" y2="227.2" stroke="rgb(0,0,0)"  stroke-width="1.0"/>
<line x1="76.2" y1="216.3" x2="100.4" y2="230.4" stroke="rgb(0,0,0)"  stroke-width="1.0"/>
<line x1="109.4" y1="267.2" x2="75.2" y2="287.4" stroke="rgb(0,0,0)"  stroke-width="1.0"/>
<line x1="100.6" y1="264.1" x2="76.7" y2="278.1" stroke="rgb(0,0,0)"  stroke-width="1.0"/>
<text x="117.926956" y="153.058668" fill="rgb(12,12,255)"  stroke="rgb(12,12,255)" stroke-width="1" font-size="16" >N</text>
<text x="138.052396" y="294.754345" fill="rgb(255,12,12)"  stroke="rgb(255,12,12)" stroke-width="1" font-size="16" >O</text>
<text x="231.238990" y="155.675943" fill="rgb(255,12,12)"  stroke="rgb(255,12,12)" stroke-width="1" font-size="16" >O</text>
<text x="241.504899" y="274.827257" fill="rgb(12,12,255)"  stroke="rgb(12,12,255)" stroke-width="1" font-size="16" >N</text>
<text x="127.181756" y="48.000000" fill="rgb(102,102,102)"  stroke="rgb(102,102,102)" stroke-width="1" font-size="16" >CH</text>
<text x="65.397622" y="191.505032" fill="rgb(255,12,12)"  stroke="rgb(255,12,12)" stroke-width="1" font-size="16" >O</text>
<text x="231.238990" y="224.712008" fill="rgb(255,12,12)"  stroke="rgb(255,12,12)" stroke-width="1" font-size="16" >O</text>
<text x="209.891544" y="294.952697" fill="rgb(12,12,255)"  stroke="rgb(12,12,255)" stroke-width="1" font-size="16" >NH</text>
<text x="233.891544" y="298.632697" fill="rgb(12,12,255)"  stroke="rgb(12,12,255)" stroke-width="1" font-size="13" >2</text>
<text x="182.722200" y="120.258071" fill="rgb(102,102,102)"  stroke="rgb(102,102,102)" stroke-width="1" font-size="16" >CH</text>
<text x="206.722200" y="123.938071" fill="rgb(102,102,102)"  stroke="rgb(102,102,102)" stroke-width="1" font-size="13" >3</text>
<text x="312.540964" y="155.274402" fill="rgb(102,102,102)"  stroke="rgb(102,102,102)" stroke-width="1" font-size="16" >CH</text>
<text x="336.540964" y="158.954402" fill="rgb(102,102,102)"  stroke="rgb(102,102,102)" stroke-width="1" font-size="13" >3</text>
<text x="250.686787" y="115.425062" fill="rgb(102,102,102)"  stroke="rgb(102,102,102)" stroke-width="1" font-size="16" >H</text>
<text x="262.686787" y="119.105062" fill="rgb(102,102,102)"  stroke="rgb(102,102,102)" stroke-width="1" font-size="13" >3</text>
<text x="269.186787" y="115.425062" fill="rgb(102,102,102)"  stroke="rgb(102,102,102)" stroke-width="1" font-size="16" >C</text>
<text x="250.686787" y="195.128579" fill="rgb(102,102,102)"  stroke="rgb(102,102,102)" stroke-width="1" font-size="16" >H</text>
<text x="262.686787" y="198.808579" fill="rgb(102,102,102)"  stroke="rgb(102,102,102)" stroke-width="1" font-size="13" >3</text>
<text x="269.186787" y="195.128579" fill="rgb(102,102,102)"  stroke="rgb(102,102,102)" stroke-width="1" font-size="16" >C</text>
<text font-size="18.000000" fill ="black" font-family="sans-serif"
x="10.000000" y="20.000000" ></text>
<title> - OBDepict</title>
</svg>
