<?xml version="1.0"?>
<svg xmlns="http://www.w3.org/2000/svg"
xmlns:xlink="http://www.w3.org/1999/xlink" xmlns:cml="http://www.xml-cml.org/schema" width="495.612" height="260.023" x="0" y="0" font-family="sans-serif" stroke="rgb(0,0,0)" stroke-width="1"  stroke-linecap="round">
<rect x="0%" y="0%" width="100%" height="100%" stroke-width="0" fill="rgb(255,255,255)"  />
<line x1="109.1" y1="100.0" x2="132.6" y2="113.5" stroke="rgb(0,0,0)"  stroke-width="1.0"/>
<line x1="317.0" y1="180.0" x2="282.5" y2="160.0" stroke="rgb(0,0,0)"  stroke-width="1.0"/>
<line x1="340.5" y1="166.5" x2="317.0" y2="180.0" stroke="rgb(0,0,0)"  stroke-width="1.0"/>
<line x1="421.1" y1="200.0" x2="386.3" y2="180.0" stroke="rgb(0,0,0)"  stroke-width="1.0"/>
<line x1="118.9" y1="170.9" x2="142.4" y2="157.4" stroke="rgb(0,0,0)"  stroke-width="1.0"/>
<line x1="121.9" y1="176.1" x2="145.3" y2="162.6" stroke="rgb(0,0,0)"  stroke-width="1.0"/>
<line x1="444.4" y1="213.5" x2="421.1" y2="200.0" stroke="rgb(0,0,0)"  stroke-width="1.0"/>
<line x1="442.3" y1="217.1" x2="419.0" y2="203.7" stroke="rgb(0,0,0)"  stroke-width="1.0"/>
<line x1="446.5" y1="209.9" x2="423.2" y2="196.4" stroke="rgb(0,0,0)"  stroke-width="1.0"/>
<line x1="181.4" y1="73.0" x2="181.4" y2="100.0" stroke="rgb(0,0,0)"  stroke-width="1.0"/>
<line x1="175.4" y1="73.0" x2="175.4" y2="100.0" stroke="rgb(0,0,0)"  stroke-width="1.0"/>
<line x1="386.3" y1="180.0" x2="363.0" y2="166.5" stroke="rgb(0,0,0)"  stroke-width="1.0"/>
<line x1="314.0" y1="207.0" x2="314.0" y2="180.0" stroke="rgb(0,0,0)"  stroke-width="1.0"/>
<line x1="320.0" y1="207.0" x2="320.0" y2="180.0" stroke="rgb(0,0,0)"  stroke-width="1.0"/>
<line x1="74.5" y1="147.0" x2="74.5" y2="120.0" stroke="rgb(0,0,0)"  stroke-width="1.0"/>
<line x1="366.3" y1="214.8" x2="386.3" y2="180.0" stroke="rgb(0,0,0)"  stroke-width="1.0"/>
<line x1="406.3" y1="145.5" x2="386.3" y2="180.0" stroke="rgb(0,0,0)"  stroke-width="1.0"/>
<line x1="433.3" y1="145.5" x2="406.3" y2="145.5" stroke="rgb(0,0,0)"  stroke-width="1.0"/>
<line x1="339.3" y1="214.8" x2="366.3" y2="214.8" stroke="rgb(0,0,0)"  stroke-width="1.0"/>
<line x1="143.9" y1="133.0" x2="143.9" y2="160.0" stroke="rgb(0,0,0)"  stroke-width="1.0"/>
<line x1="143.9" y1="160.0" x2="167.2" y2="173.5" stroke="rgb(0,0,0)"  stroke-width="1.0"/>
<line x1="189.7" y1="173.5" x2="213.2" y2="160.0" stroke="rgb(0,0,0)"  stroke-width="1.0"/>
<line x1="213.2" y1="160.0" x2="213.2" y2="120.0" stroke="rgb(0,0,0)"  stroke-width="1.0"/>
<line x1="206.0" y1="154.0" x2="206.0" y2="126.0" stroke="rgb(0,0,0)"  stroke-width="1.0"/>
<line x1="213.2" y1="120.0" x2="178.4" y2="100.0" stroke="rgb(0,0,0)"  stroke-width="1.0"/>
<line x1="178.4" y1="100.0" x2="155.1" y2="113.5" stroke="rgb(0,0,0)"  stroke-width="1.0"/>
<line x1="282.5" y1="160.0" x2="247.7" y2="180.0" stroke="rgb(0,0,0)"  stroke-width="1.0"/>
<line x1="273.7" y1="156.8" x2="249.3" y2="170.8" stroke="rgb(0,0,0)"  stroke-width="1.0"/>
<line x1="247.7" y1="180.0" x2="213.2" y2="160.0" stroke="rgb(0,0,0)"  stroke-width="1.0"/>
<line x1="213.2" y1="120.0" x2="247.7" y2="100.0" stroke="rgb(0,0,0)"  stroke-width="1.0"/>
<line x1="247.7" y1="100.0" x2="282.5" y2="120.0" stroke="rgb(0,0,0)"  stroke-width="1.0"/>
<line x1="249.3" y1="109.2" x2="273.7" y2="123.3" stroke="rgb(0,0,0)"  stroke-width="1.0"/>
<line x1="282.5" y1="120.0" x2="282.5" y2="160.0" stroke="rgb(0,0,0)"  stroke-width="1.0"/>
<line x1="109.1" y1="100.0" x2="74.5" y2="120.0" stroke="rgb(0,0,0)"  stroke-width="1.0"/>
<line x1="100.3" y1="96.8" x2="76.1" y2="110.8" stroke="rgb(0,0,0)"  stroke-width="1.0"/>
<line x1="74.5" y1="120.0" x2="40.0" y2="100.0" stroke="rgb(0,0,0)"  stroke-width="1.0"/>
<line x1="40.0" y1="100.0" x2="40.0" y2="60.0" stroke="rgb(0,0,0)"  stroke-width="1.0"/>
<line x1="47.2" y1="94.0" x2="47.2" y2="66.0" stroke="rgb(0,0,0)"  stroke-width="1.0"/>
<line x1="40.0" y1="60.0" x2="74.5" y2="40.0" stroke="rgb(0,0,0)"  stroke-width="1.0"/>
<line x1="74.5" y1="40.0" x2="109.1" y2="60.0" stroke="rgb(0,0,0)"  stroke-width="1.0"/>
<line x1="76.1" y1="49.2" x2="100.3" y2="63.2" stroke="rgb(0,0,0)"  stroke-width="1.0"/>
<line x1="109.1" y1="60.0" x2="109.1" y2="100.0" stroke="rgb(0,0,0)"  stroke-width="1.0"/>
<text x="137.853273" y="128.010226" fill="rgb(12,12,255)"  stroke="rgb(12,12,255)" stroke-width="1" font-size="16" >N</text>
<text x="172.403143" y="188.017895" fill="rgb(12,12,255)"  stroke="rgb(12,12,255)" stroke-width="1" font-size="16" >N</text>
<text x="172.403143" y="204.017895" fill="rgb(12,12,255)"  stroke="rgb(12,12,255)" stroke-width="1" font-size="16" >H</text>
<text x="345.758632" y="168.015339" fill="rgb(12,12,255)"  stroke="rgb(12,12,255)" stroke-width="1" font-size="16" >N</text>
<text x="345.758632" y="152.015339" fill="rgb(12,12,255)"  stroke="rgb(12,12,255)" stroke-width="1" font-size="16" >H</text>
<text x="103.099740" y="188.017895" fill="rgb(178,178,0)"  stroke="rgb(178,178,0)" stroke-width="1" font-size="16" >S</text>
<text x="449.611906" y="228.023008" fill="rgb(102,102,102)"  stroke="rgb(102,102,102)" stroke-width="1" font-size="16" >CH</text>
<text x="172.403143" y="68.002556" fill="rgb(255,12,12)"  stroke="rgb(255,12,12)" stroke-width="1" font-size="16" >O</text>
<text x="311.005100" y="228.023008" fill="rgb(255,12,12)"  stroke="rgb(255,12,12)" stroke-width="1" font-size="16" >O</text>
<text x="68.549870" y="168.015339" fill="rgb(127,178,255)"  stroke="rgb(127,178,255)" stroke-width="1" font-size="16" >F</text>
<text x="442.316172" y="153.468025" fill="rgb(102,102,102)"  stroke="rgb(102,102,102)" stroke-width="1" font-size="16" >CH</text>
<text x="466.316172" y="157.148025" fill="rgb(102,102,102)"  stroke="rgb(102,102,102)" stroke-width="1" font-size="13" >3</text>
<text x="300.300833" y="222.771428" fill="rgb(102,102,102)"  stroke="rgb(102,102,102)" stroke-width="1" font-size="16" >H</text>
<text x="312.300833" y="226.451428" fill="rgb(102,102,102)"  stroke="rgb(102,102,102)" stroke-width="1" font-size="13" >3</text>
<text x="318.800833" y="222.771428" fill="rgb(102,102,102)"  stroke="rgb(102,102,102)" stroke-width="1" font-size="16" >C</text>
<text font-size="18.000000" fill ="black" font-family="sans-serif"
x="10.000000" y="20.000000" ></text>
<title> - OBDepict</title>
</svg>
