<?xml version="1.0"?>
<svg xmlns="http://www.w3.org/2000/svg"
xmlns:xlink="http://www.w3.org/1999/xlink" xmlns:cml="http://www.xml-cml.org/schema" width="482.159" height="429.696" x="0" y="0" font-family="sans-serif" stroke="rgb(0,0,0)" stroke-width="1"  stroke-linecap="round">
<rect x="0%" y="0%" width="100%" height="100%" stroke-width="0" fill="rgb(255,255,255)"  />
<line x1="81.7" y1="251.1" x2="103.4" y2="235.4" stroke="rgb(0,0,0)"  stroke-width="1.0"/>
<line x1="252.5" y1="75.6" x2="239.9" y2="113.6" stroke="rgb(0,0,0)"  stroke-width="1.0"/>
<line x1="302.8" y1="149.3" x2="262.7" y2="149.0" stroke="rgb(0,0,0)"  stroke-width="1.0"/>
<line x1="302.8" y1="143.3" x2="262.8" y2="143.0" stroke="rgb(0,0,0)"  stroke-width="1.0"/>
<line x1="168.7" y1="188.9" x2="190.8" y2="173.2" stroke="rgb(0,0,0)"  stroke-width="1.0"/>
<line x1="381.5" y1="355.0" x2="361.5" y2="320.1" stroke="rgb(0,0,0)"  stroke-width="1.0"/>
<line x1="394.8" y1="378.4" x2="381.5" y2="355.0" stroke="rgb(0,0,0)"  stroke-width="1.0"/>
<line x1="391.2" y1="380.5" x2="377.8" y2="357.1" stroke="rgb(0,0,0)"  stroke-width="1.0"/>
<line x1="398.5" y1="376.3" x2="385.1" y2="352.9" stroke="rgb(0,0,0)"  stroke-width="1.0"/>
<line x1="85.5" y1="282.5" x2="76.6" y2="270.9" stroke="rgb(0,0,0)"  stroke-width="1.0"/>
<line x1="90.3" y1="278.8" x2="81.4" y2="267.3" stroke="rgb(0,0,0)"  stroke-width="1.0"/>
<line x1="57.1" y1="234.2" x2="66.0" y2="246.4" stroke="rgb(0,0,0)"  stroke-width="1.0"/>
<line x1="52.3" y1="237.7" x2="61.1" y2="250.0" stroke="rgb(0,0,0)"  stroke-width="1.0"/>
<line x1="244.6" y1="204.8" x2="236.3" y2="179.2" stroke="rgb(0,0,0)"  stroke-width="1.0"/>
<line x1="250.3" y1="203.0" x2="242.0" y2="177.4" stroke="rgb(0,0,0)"  stroke-width="1.0"/>
<line x1="322.8" y1="180.9" x2="302.8" y2="146.3" stroke="rgb(0,0,0)"  stroke-width="1.0"/>
<line x1="50.6" y1="273.4" x2="60.5" y2="266.3" stroke="rgb(0,0,0)"  stroke-width="1.0"/>
<line x1="279.1" y1="65.5" x2="252.5" y2="75.6" stroke="rgb(0,0,0)"  stroke-width="1.0"/>
<line x1="237.0" y1="51.0" x2="252.5" y2="75.6" stroke="rgb(0,0,0)"  stroke-width="1.0"/>
<line x1="260.0" y1="53.2" x2="252.5" y2="75.6" stroke="rgb(0,0,0)"  stroke-width="1.0"/>
<line x1="409.6" y1="216.6" x2="382.6" y2="216.3" stroke="rgb(0,0,0)"  stroke-width="1.0"/>
<line x1="375.5" y1="274.4" x2="362.1" y2="251.0" stroke="rgb(0,0,0)"  stroke-width="1.0"/>
<line x1="361.5" y1="320.1" x2="375.3" y2="296.8" stroke="rgb(0,0,0)"  stroke-width="1.0"/>
<line x1="435.8" y1="240.1" x2="429.0" y2="228.1" stroke="rgb(0,0,0)"  stroke-width="1.0"/>
<line x1="262.8" y1="146.0" x2="239.9" y2="113.6" stroke="rgb(0,0,0)"  stroke-width="1.0"/>
<line x1="239.9" y1="113.6" x2="214.1" y2="121.6" stroke="rgb(0,0,0)"  stroke-width="1.0"/>
<line x1="236.3" y1="122.2" x2="218.1" y2="127.9" stroke="rgb(0,0,0)"  stroke-width="1.0"/>
<line x1="201.4" y1="138.6" x2="201.4" y2="152.6" stroke="rgb(0,0,0)"  stroke-width="1.0"/>
<line x1="213.7" y1="169.7" x2="239.2" y2="178.3" stroke="rgb(0,0,0)"  stroke-width="1.0"/>
<line x1="239.2" y1="178.3" x2="262.8" y2="146.0" stroke="rgb(0,0,0)"  stroke-width="1.0"/>
<line x1="168.7" y1="188.9" x2="132.0" y2="172.3" stroke="rgb(0,0,0)"  stroke-width="1.0"/>
<line x1="132.0" y1="172.3" x2="99.8" y2="195.6" stroke="rgb(0,0,0)"  stroke-width="1.0"/>
<line x1="131.4" y1="181.6" x2="108.9" y2="197.9" stroke="rgb(0,0,0)"  stroke-width="1.0"/>
<line x1="99.8" y1="195.6" x2="103.4" y2="235.4" stroke="rgb(0,0,0)"  stroke-width="1.0"/>
<line x1="103.4" y1="235.4" x2="140.0" y2="251.6" stroke="rgb(0,0,0)"  stroke-width="1.0"/>
<line x1="111.8" y1="231.3" x2="137.5" y2="242.6" stroke="rgb(0,0,0)"  stroke-width="1.0"/>
<line x1="140.0" y1="251.6" x2="172.7" y2="228.7" stroke="rgb(0,0,0)"  stroke-width="1.0"/>
<line x1="172.7" y1="228.7" x2="168.7" y2="188.9" stroke="rgb(0,0,0)"  stroke-width="1.0"/>
<line x1="165.0" y1="223.5" x2="162.2" y2="195.6" stroke="rgb(0,0,0)"  stroke-width="1.0"/>
<line x1="382.6" y1="216.3" x2="362.1" y2="251.0" stroke="rgb(0,0,0)"  stroke-width="1.0"/>
<line x1="373.3" y1="217.8" x2="359.0" y2="242.1" stroke="rgb(0,0,0)"  stroke-width="1.0"/>
<line x1="362.1" y1="251.0" x2="322.1" y2="250.3" stroke="rgb(0,0,0)"  stroke-width="1.0"/>
<line x1="322.1" y1="250.3" x2="302.5" y2="215.6" stroke="rgb(0,0,0)"  stroke-width="1.0"/>
<line x1="325.4" y1="241.5" x2="311.8" y2="217.3" stroke="rgb(0,0,0)"  stroke-width="1.0"/>
<line x1="302.5" y1="215.6" x2="322.8" y2="180.9" stroke="rgb(0,0,0)"  stroke-width="1.0"/>
<line x1="322.8" y1="180.9" x2="362.8" y2="181.6" stroke="rgb(0,0,0)"  stroke-width="1.0"/>
<line x1="328.7" y1="188.2" x2="356.7" y2="188.7" stroke="rgb(0,0,0)"  stroke-width="1.0"/>
<line x1="362.8" y1="181.6" x2="382.6" y2="216.3" stroke="rgb(0,0,0)"  stroke-width="1.0"/>
<text x="195.395142" y="133.591713" fill="rgb(12,12,255)"  stroke="rgb(12,12,255)" stroke-width="1" font-size="16" >N</text>
<text x="195.395142" y="173.608240" fill="rgb(12,12,255)"  stroke="rgb(12,12,255)" stroke-width="1" font-size="16" >N</text>
<text x="65.120732" y="266.752164" fill="rgb(178,178,0)"  stroke="rgb(178,178,0)" stroke-width="1" font-size="16" >S</text>
<text x="395.249804" y="397.695941" fill="rgb(102,102,102)"  stroke="rgb(102,102,102)" stroke-width="1" font-size="16" >CH</text>
<text x="89.795165" y="298.988508" fill="rgb(255,12,12)"  stroke="rgb(255,12,12)" stroke-width="1" font-size="16" >O</text>
<text x="41.110816" y="233.405058" fill="rgb(255,12,12)"  stroke="rgb(255,12,12)" stroke-width="1" font-size="16" >O</text>
<text x="245.418226" y="224.290991" fill="rgb(255,12,12)"  stroke="rgb(255,12,12)" stroke-width="1" font-size="16" >O</text>
<text x="14.000000" y="288.986801" fill="rgb(12,12,255)"  stroke="rgb(12,12,255)" stroke-width="1" font-size="16" >H</text>
<text x="26.000000" y="292.666801" fill="rgb(12,12,255)"  stroke="rgb(12,12,255)" stroke-width="1" font-size="13" >2</text>
<text x="32.500000" y="288.986801" fill="rgb(12,12,255)"  stroke="rgb(12,12,255)" stroke-width="1" font-size="16" >N</text>
<text x="285.206780" y="68.895903" fill="rgb(127,178,255)"  stroke="rgb(127,178,255)" stroke-width="1" font-size="16" >F</text>
<text x="224.076078" y="48.000000" fill="rgb(127,178,255)"  stroke="rgb(127,178,255)" stroke-width="1" font-size="16" >F</text>
<text x="258.087701" y="48.892490" fill="rgb(127,178,255)"  stroke="rgb(127,178,255)" stroke-width="1" font-size="16" >F</text>
<text x="416.591951" y="224.737236" fill="rgb(255,12,12)"  stroke="rgb(255,12,12)" stroke-width="1" font-size="16" >O</text>
<text x="375.910907" y="293.652971" fill="rgb(255,12,12)"  stroke="rgb(255,12,12)" stroke-width="1" font-size="16" >O</text>
<text x="438.158820" y="259.418226" fill="rgb(102,102,102)"  stroke="rgb(102,102,102)" stroke-width="1" font-size="16" >CH</text>
<text x="462.158820" y="263.098226" fill="rgb(102,102,102)"  stroke="rgb(102,102,102)" stroke-width="1" font-size="13" >3</text>
<text font-size="18.000000" fill ="black" font-family="sans-serif"
x="10.000000" y="20.000000" ></text>
<title> - OBDepict</title>
</svg>
