<?xml version="1.0"?>
<svg xmlns="http://www.w3.org/2000/svg"
xmlns:xlink="http://www.w3.org/1999/xlink" xmlns:cml="http://www.xml-cml.org/schema" width="460.947" height="479.935" x="0" y="0" font-family="sans-serif" stroke="rgb(0,0,0)" stroke-width="1"  stroke-linecap="round">
<rect x="0%" y="0%" width="100%" height="100%" stroke-width="0" fill="rgb(255,255,255)"  />
<line x1="317.1" y1="320.0" x2="317.1" y2="293.0" stroke="rgb(0,0,0)"  stroke-width="1.0"/>
<line x1="282.4" y1="220.0" x2="247.8" y2="200.0" stroke="rgb(0,0,0)"  stroke-width="1.0"/>
<line x1="178.6" y1="160.0" x2="155.1" y2="146.5" stroke="rgb(0,0,0)"  stroke-width="1.0"/>
<line x1="305.9" y1="273.5" x2="293.7" y2="266.4" stroke="rgb(0,0,0)"  stroke-width="1.0"/>
<line x1="282.4" y1="247.0" x2="282.4" y2="220.0" stroke="rgb(0,0,0)"  stroke-width="1.0"/>
<line x1="74.5" y1="60.0" x2="109.3" y2="80.0" stroke="rgb(0,0,0)"  stroke-width="1.0"/>
<line x1="51.3" y1="46.5" x2="74.5" y2="60.0" stroke="rgb(0,0,0)"  stroke-width="1.0"/>
<line x1="53.4" y1="42.9" x2="76.6" y2="56.4" stroke="rgb(0,0,0)"  stroke-width="1.0"/>
<line x1="49.1" y1="50.1" x2="72.4" y2="63.6" stroke="rgb(0,0,0)"  stroke-width="1.0"/>
<line x1="351.7" y1="340.0" x2="317.1" y2="320.0" stroke="rgb(0,0,0)"  stroke-width="1.0"/>
<line x1="127.7" y1="162.0" x2="134.7" y2="149.8" stroke="rgb(0,0,0)"  stroke-width="1.0"/>
<line x1="132.9" y1="165.0" x2="139.9" y2="152.7" stroke="rgb(0,0,0)"  stroke-width="1.0"/>
<line x1="159.9" y1="118.2" x2="152.9" y2="130.2" stroke="rgb(0,0,0)"  stroke-width="1.0"/>
<line x1="154.7" y1="115.2" x2="147.7" y2="127.2" stroke="rgb(0,0,0)"  stroke-width="1.0"/>
<line x1="120.5" y1="126.5" x2="132.6" y2="133.5" stroke="rgb(0,0,0)"  stroke-width="1.0"/>
<line x1="292.2" y1="330.9" x2="315.6" y2="317.4" stroke="rgb(0,0,0)"  stroke-width="1.0"/>
<line x1="295.1" y1="336.1" x2="318.6" y2="322.6" stroke="rgb(0,0,0)"  stroke-width="1.0"/>
<line x1="307.4" y1="209.1" x2="283.9" y2="222.6" stroke="rgb(0,0,0)"  stroke-width="1.0"/>
<line x1="304.4" y1="203.9" x2="280.9" y2="217.4" stroke="rgb(0,0,0)"  stroke-width="1.0"/>
<line x1="109.3" y1="80.0" x2="109.3" y2="107.0" stroke="rgb(0,0,0)"  stroke-width="1.0"/>
<line x1="386.4" y1="426.9" x2="386.4" y2="399.9" stroke="rgb(0,0,0)"  stroke-width="1.0"/>
<line x1="178.6" y1="160.0" x2="213.1" y2="140.0" stroke="rgb(0,0,0)"  stroke-width="1.0"/>
<line x1="213.1" y1="140.0" x2="247.8" y2="160.0" stroke="rgb(0,0,0)"  stroke-width="1.0"/>
<line x1="214.7" y1="149.2" x2="239.1" y2="163.2" stroke="rgb(0,0,0)"  stroke-width="1.0"/>
<line x1="247.8" y1="160.0" x2="247.8" y2="200.0" stroke="rgb(0,0,0)"  stroke-width="1.0"/>
<line x1="247.8" y1="200.0" x2="213.1" y2="220.0" stroke="rgb(0,0,0)"  stroke-width="1.0"/>
<line x1="239.1" y1="196.7" x2="214.7" y2="210.7" stroke="rgb(0,0,0)"  stroke-width="1.0"/>
<line x1="213.1" y1="220.0" x2="178.6" y2="200.0" stroke="rgb(0,0,0)"  stroke-width="1.0"/>
<line x1="178.6" y1="200.0" x2="178.6" y2="160.0" stroke="rgb(0,0,0)"  stroke-width="1.0"/>
<line x1="185.8" y1="194.0" x2="185.8" y2="166.0" stroke="rgb(0,0,0)"  stroke-width="1.0"/>
<line x1="351.7" y1="340.0" x2="386.4" y2="320.0" stroke="rgb(0,0,0)"  stroke-width="1.0"/>
<line x1="360.5" y1="343.2" x2="384.8" y2="329.2" stroke="rgb(0,0,0)"  stroke-width="1.0"/>
<line x1="386.4" y1="320.0" x2="420.9" y2="340.0" stroke="rgb(0,0,0)"  stroke-width="1.0"/>
<line x1="420.9" y1="340.0" x2="420.9" y2="379.9" stroke="rgb(0,0,0)"  stroke-width="1.0"/>
<line x1="413.7" y1="346.0" x2="413.7" y2="373.9" stroke="rgb(0,0,0)"  stroke-width="1.0"/>
<line x1="420.9" y1="379.9" x2="386.4" y2="399.9" stroke="rgb(0,0,0)"  stroke-width="1.0"/>
<line x1="386.4" y1="399.9" x2="351.7" y2="379.9" stroke="rgb(0,0,0)"  stroke-width="1.0"/>
<line x1="384.8" y1="390.7" x2="360.5" y2="376.7" stroke="rgb(0,0,0)"  stroke-width="1.0"/>
<line x1="351.7" y1="379.9" x2="351.7" y2="340.0" stroke="rgb(0,0,0)"  stroke-width="1.0"/>
<text x="137.818335" y="147.983805" fill="rgb(178,178,0)"  stroke="rgb(178,178,0)" stroke-width="1" font-size="16" >S</text>
<text x="311.123596" y="287.961131" fill="rgb(12,12,255)"  stroke="rgb(12,12,255)" stroke-width="1" font-size="16" >NH</text>
<text x="264.384981" y="267.964370" fill="rgb(12,12,255)"  stroke="rgb(12,12,255)" stroke-width="1" font-size="16" >HN</text>
<text x="22.000000" y="48.000000" fill="rgb(102,102,102)"  stroke="rgb(102,102,102)" stroke-width="1" font-size="16" >HC</text>
<text x="117.821574" y="182.727268" fill="rgb(255,12,12)"  stroke="rgb(255,12,12)" stroke-width="1" font-size="16" >O</text>
<text x="157.815096" y="113.443945" fill="rgb(255,12,12)"  stroke="rgb(255,12,12)" stroke-width="1" font-size="16" >O</text>
<text x="91.278475" y="127.987044" fill="rgb(12,12,255)"  stroke="rgb(12,12,255)" stroke-width="1" font-size="16" >HN</text>
<text x="276.384981" y="347.951414" fill="rgb(255,12,12)"  stroke="rgb(255,12,12)" stroke-width="1" font-size="16" >O</text>
<text x="311.123596" y="207.974087" fill="rgb(255,12,12)"  stroke="rgb(255,12,12)" stroke-width="1" font-size="16" >O</text>
<text x="380.406919" y="447.935218" fill="rgb(255,12,12)"  stroke="rgb(255,12,12)" stroke-width="1" font-size="16" >OH</text>
<text font-size="18.000000" fill ="black" font-family="sans-serif"
x="10.000000" y="20.000000" ></text>
<title> - OBDepict</title>
</svg>
