<?xml version="1.0"?>
<svg xmlns="http://www.w3.org/2000/svg"
xmlns:xlink="http://www.w3.org/1999/xlink" xmlns:cml="http://www.xml-cml.org/schema" width="424.078" height="420.034" x="0" y="0" font-family="sans-serif" stroke="rgb(0,0,0)" stroke-width="1"  stroke-linecap="round">
<rect x="0%" y="0%" width="100%" height="100%" stroke-width="0" fill="rgb(255,255,255)"  />
<line x1="189.9" y1="246.3" x2="213.2" y2="259.8" stroke="rgb(0,0,0)"  stroke-width="1.0"/>
<line x1="178.6" y1="319.8" x2="201.9" y2="306.3" stroke="rgb(0,0,0)"  stroke-width="1.0"/>
<line x1="109.3" y1="79.8" x2="109.3" y2="119.8" stroke="rgb(0,0,0)"  stroke-width="1.0"/>
<line x1="109.3" y1="53.0" x2="109.3" y2="79.8" stroke="rgb(0,0,0)"  stroke-width="1.0"/>
<line x1="113.5" y1="53.0" x2="113.5" y2="79.8" stroke="rgb(0,0,0)"  stroke-width="1.0"/>
<line x1="105.1" y1="53.0" x2="105.1" y2="79.8" stroke="rgb(0,0,0)"  stroke-width="1.0"/>
<line x1="244.9" y1="346.8" x2="244.9" y2="319.8" stroke="rgb(0,0,0)"  stroke-width="1.0"/>
<line x1="250.9" y1="346.8" x2="250.9" y2="319.8" stroke="rgb(0,0,0)"  stroke-width="1.0"/>
<line x1="143.9" y1="179.8" x2="178.6" y2="199.8" stroke="rgb(0,0,0)"  stroke-width="1.0"/>
<line x1="119.0" y1="190.7" x2="142.3" y2="177.2" stroke="rgb(0,0,0)"  stroke-width="1.0"/>
<line x1="122.1" y1="195.9" x2="145.4" y2="182.4" stroke="rgb(0,0,0)"  stroke-width="1.0"/>
<line x1="178.6" y1="199.8" x2="178.6" y2="226.8" stroke="rgb(0,0,0)"  stroke-width="1.0"/>
<line x1="143.9" y1="152.8" x2="143.9" y2="179.8" stroke="rgb(0,0,0)"  stroke-width="1.0"/>
<line x1="333.0" y1="350.3" x2="320.6" y2="312.1" stroke="rgb(0,0,0)"  stroke-width="1.0"/>
<line x1="371.1" y1="279.8" x2="344.1" y2="279.8" stroke="rgb(0,0,0)"  stroke-width="1.0"/>
<line x1="109.3" y1="119.8" x2="132.6" y2="133.3" stroke="rgb(0,0,0)"  stroke-width="1.0"/>
<line x1="85.8" y1="373.3" x2="109.3" y2="359.8" stroke="rgb(0,0,0)"  stroke-width="1.0"/>
<line x1="51.3" y1="366.3" x2="63.3" y2="373.3" stroke="rgb(0,0,0)"  stroke-width="1.0"/>
<line x1="314.8" y1="370.4" x2="333.0" y2="350.3" stroke="rgb(0,0,0)"  stroke-width="1.0"/>
<line x1="282.4" y1="299.8" x2="282.4" y2="259.8" stroke="rgb(0,0,0)"  stroke-width="1.0"/>
<line x1="289.6" y1="293.8" x2="289.6" y2="265.8" stroke="rgb(0,0,0)"  stroke-width="1.0"/>
<line x1="282.4" y1="259.8" x2="308.3" y2="251.5" stroke="rgb(0,0,0)"  stroke-width="1.0"/>
<line x1="328.3" y1="258.0" x2="344.1" y2="279.8" stroke="rgb(0,0,0)"  stroke-width="1.0"/>
<line x1="344.1" y1="279.8" x2="320.6" y2="312.1" stroke="rgb(0,0,0)"  stroke-width="1.0"/>
<line x1="334.7" y1="280.5" x2="318.3" y2="303.1" stroke="rgb(0,0,0)"  stroke-width="1.0"/>
<line x1="320.6" y1="312.1" x2="282.4" y2="299.8" stroke="rgb(0,0,0)"  stroke-width="1.0"/>
<line x1="213.2" y1="286.8" x2="213.2" y2="259.8" stroke="rgb(0,0,0)"  stroke-width="1.0"/>
<line x1="213.2" y1="259.8" x2="236.4" y2="246.4" stroke="rgb(0,0,0)"  stroke-width="1.0"/>
<line x1="221.9" y1="263.1" x2="238.3" y2="253.7" stroke="rgb(0,0,0)"  stroke-width="1.0"/>
<line x1="259.2" y1="246.3" x2="282.4" y2="259.8" stroke="rgb(0,0,0)"  stroke-width="1.0"/>
<line x1="282.4" y1="299.8" x2="247.9" y2="319.8" stroke="rgb(0,0,0)"  stroke-width="1.0"/>
<line x1="247.9" y1="319.8" x2="224.4" y2="306.3" stroke="rgb(0,0,0)"  stroke-width="1.0"/>
<line x1="178.6" y1="319.8" x2="178.6" y2="359.8" stroke="rgb(0,0,0)"  stroke-width="1.0"/>
<line x1="171.4" y1="325.8" x2="171.4" y2="353.8" stroke="rgb(0,0,0)"  stroke-width="1.0"/>
<line x1="178.6" y1="359.8" x2="143.9" y2="379.8" stroke="rgb(0,0,0)"  stroke-width="1.0"/>
<line x1="143.9" y1="379.8" x2="109.3" y2="359.8" stroke="rgb(0,0,0)"  stroke-width="1.0"/>
<line x1="142.3" y1="370.6" x2="118.1" y2="356.6" stroke="rgb(0,0,0)"  stroke-width="1.0"/>
<line x1="109.3" y1="359.8" x2="109.3" y2="319.8" stroke="rgb(0,0,0)"  stroke-width="1.0"/>
<line x1="109.3" y1="319.8" x2="143.9" y2="299.8" stroke="rgb(0,0,0)"  stroke-width="1.0"/>
<line x1="118.1" y1="323.0" x2="142.3" y2="309.1" stroke="rgb(0,0,0)"  stroke-width="1.0"/>
<line x1="143.9" y1="299.8" x2="178.6" y2="319.8" stroke="rgb(0,0,0)"  stroke-width="1.0"/>
<text x="207.152051" y="307.822631" fill="rgb(12,12,255)"  stroke="rgb(12,12,255)" stroke-width="1" font-size="16" >N</text>
<text x="241.899806" y="247.816565" fill="rgb(12,12,255)"  stroke="rgb(12,12,255)" stroke-width="1" font-size="16" >N</text>
<text x="314.634432" y="255.492492" fill="rgb(178,178,0)"  stroke="rgb(178,178,0)" stroke-width="1" font-size="16" >S</text>
<text x="172.603103" y="247.816565" fill="rgb(178,178,0)"  stroke="rgb(178,178,0)" stroke-width="1" font-size="16" >S</text>
<text x="103.301552" y="48.000000" fill="rgb(102,102,102)"  stroke="rgb(102,102,102)" stroke-width="1" font-size="16" >CH</text>
<text x="241.899806" y="367.828697" fill="rgb(255,12,12)"  stroke="rgb(255,12,12)" stroke-width="1" font-size="16" >O</text>
<text x="103.301552" y="207.812520" fill="rgb(255,12,12)"  stroke="rgb(255,12,12)" stroke-width="1" font-size="16" >O</text>
<text x="137.850499" y="147.806454" fill="rgb(12,12,255)"  stroke="rgb(12,12,255)" stroke-width="1" font-size="16" >NH</text>
<text x="380.078422" y="287.820609" fill="rgb(102,102,102)"  stroke="rgb(102,102,102)" stroke-width="1" font-size="16" >CH</text>
<text x="404.078422" y="291.500609" fill="rgb(102,102,102)"  stroke="rgb(102,102,102)" stroke-width="1" font-size="13" >3</text>
<text x="68.548947" y="387.830720" fill="rgb(255,12,12)"  stroke="rgb(255,12,12)" stroke-width="1" font-size="16" >O</text>
<text x="14.000000" y="367.828697" fill="rgb(102,102,102)"  stroke="rgb(102,102,102)" stroke-width="1" font-size="16" >H</text>
<text x="26.000000" y="371.508697" fill="rgb(102,102,102)"  stroke="rgb(102,102,102)" stroke-width="1" font-size="13" >3</text>
<text x="32.500000" y="367.828697" fill="rgb(102,102,102)"  stroke="rgb(102,102,102)" stroke-width="1" font-size="16" >C</text>
<text x="280.087507" y="388.034377" fill="rgb(102,102,102)"  stroke="rgb(102,102,102)" stroke-width="1" font-size="16" >H</text>
<text x="292.087507" y="391.714377" fill="rgb(102,102,102)"  stroke="rgb(102,102,102)" stroke-width="1" font-size="13" >3</text>
<text x="298.587507" y="388.034377" fill="rgb(102,102,102)"  stroke="rgb(102,102,102)" stroke-width="1" font-size="16" >C</text>
<text font-size="18.000000" fill ="black" font-family="sans-serif"
x="10.000000" y="20.000000" ></text>
<title> - OBDepict</title>
</svg>
