<?xml version="1.0"?>
<svg xmlns="http://www.w3.org/2000/svg"
xmlns:xlink="http://www.w3.org/1999/xlink" xmlns:cml="http://www.xml-cml.org/schema" width="342.706" height="370.796" x="0" y="0" font-family="sans-serif" stroke="rgb(0,0,0)" stroke-width="1"  stroke-linecap="round">
<rect x="0%" y="0%" width="100%" height="100%" stroke-width="0" fill="rgb(255,255,255)"  />
<line x1="189.3" y1="168.3" x2="165.0" y2="182.4" stroke="rgb(0,0,0)"  stroke-width="1.0"/>
<line x1="186.3" y1="163.2" x2="162.0" y2="177.2" stroke="rgb(0,0,0)"  stroke-width="1.0"/>
<line x1="198.6" y1="119.6" x2="198.9" y2="146.2" stroke="rgb(0,0,0)"  stroke-width="1.0"/>
<line x1="233.2" y1="99.6" x2="198.6" y2="119.6" stroke="rgb(0,0,0)"  stroke-width="1.0"/>
<line x1="179.8" y1="286.5" x2="188.9" y2="247.5" stroke="rgb(0,0,0)"  stroke-width="1.0"/>
<line x1="173.7" y1="313.3" x2="179.8" y2="286.5" stroke="rgb(0,0,0)"  stroke-width="1.0"/>
<line x1="169.6" y1="312.3" x2="175.7" y2="285.6" stroke="rgb(0,0,0)"  stroke-width="1.0"/>
<line x1="177.8" y1="314.2" x2="183.9" y2="287.5" stroke="rgb(0,0,0)"  stroke-width="1.0"/>
<line x1="176.8" y1="103.4" x2="200.2" y2="117.0" stroke="rgb(0,0,0)"  stroke-width="1.0"/>
<line x1="173.8" y1="108.6" x2="197.1" y2="122.2" stroke="rgb(0,0,0)"  stroke-width="1.0"/>
<line x1="188.9" y1="247.5" x2="168.7" y2="228.7" stroke="rgb(0,0,0)"  stroke-width="1.0"/>
<line x1="267.9" y1="146.2" x2="268.1" y2="119.8" stroke="rgb(0,0,0)"  stroke-width="1.0"/>
<line x1="209.7" y1="46.6" x2="233.2" y2="60.0" stroke="rgb(0,0,0)"  stroke-width="1.0"/>
<line x1="112.4" y1="285.4" x2="99.2" y2="261.1" stroke="rgb(0,0,0)"  stroke-width="1.0"/>
<line x1="104.3" y1="319.8" x2="111.7" y2="307.9" stroke="rgb(0,0,0)"  stroke-width="1.0"/>
<line x1="163.5" y1="179.8" x2="140.1" y2="169.0" stroke="rgb(0,0,0)"  stroke-width="1.0"/>
<line x1="119.3" y1="172.8" x2="100.4" y2="192.4" stroke="rgb(0,0,0)"  stroke-width="1.0"/>
<line x1="100.4" y1="192.4" x2="120.2" y2="227.1" stroke="rgb(0,0,0)"  stroke-width="1.0"/>
<line x1="109.6" y1="194.0" x2="123.5" y2="218.4" stroke="rgb(0,0,0)"  stroke-width="1.0"/>
<line x1="120.2" y1="227.1" x2="146.4" y2="222.2" stroke="rgb(0,0,0)"  stroke-width="1.0"/>
<line x1="160.6" y1="206.9" x2="163.5" y2="179.8" stroke="rgb(0,0,0)"  stroke-width="1.0"/>
<line x1="233.2" y1="99.6" x2="268.1" y2="119.8" stroke="rgb(0,0,0)"  stroke-width="1.0"/>
<line x1="242.0" y1="96.4" x2="266.6" y2="110.6" stroke="rgb(0,0,0)"  stroke-width="1.0"/>
<line x1="268.1" y1="119.8" x2="302.7" y2="100.0" stroke="rgb(0,0,0)"  stroke-width="1.0"/>
<line x1="302.7" y1="100.0" x2="302.7" y2="60.0" stroke="rgb(0,0,0)"  stroke-width="1.0"/>
<line x1="295.5" y1="94.0" x2="295.5" y2="66.0" stroke="rgb(0,0,0)"  stroke-width="1.0"/>
<line x1="302.7" y1="60.0" x2="267.7" y2="40.0" stroke="rgb(0,0,0)"  stroke-width="1.0"/>
<line x1="267.7" y1="40.0" x2="233.2" y2="60.0" stroke="rgb(0,0,0)"  stroke-width="1.0"/>
<line x1="266.2" y1="49.2" x2="242.0" y2="63.2" stroke="rgb(0,0,0)"  stroke-width="1.0"/>
<line x1="233.2" y1="60.0" x2="233.2" y2="99.6" stroke="rgb(0,0,0)"  stroke-width="1.0"/>
<line x1="99.2" y1="261.1" x2="60.0" y2="260.9" stroke="rgb(0,0,0)"  stroke-width="1.0"/>
<line x1="93.2" y1="253.8" x2="66.0" y2="253.7" stroke="rgb(0,0,0)"  stroke-width="1.0"/>
<line x1="60.0" y1="260.9" x2="40.0" y2="225.3" stroke="rgb(0,0,0)"  stroke-width="1.0"/>
<line x1="40.0" y1="225.3" x2="61.2" y2="191.4" stroke="rgb(0,0,0)"  stroke-width="1.0"/>
<line x1="49.3" y1="224.0" x2="64.1" y2="200.3" stroke="rgb(0,0,0)"  stroke-width="1.0"/>
<line x1="61.2" y1="191.4" x2="100.4" y2="192.4" stroke="rgb(0,0,0)"  stroke-width="1.0"/>
<line x1="120.2" y1="227.1" x2="99.2" y2="261.1" stroke="rgb(0,0,0)"  stroke-width="1.0"/>
<text x="193.038412" y="167.227894" fill="rgb(12,12,255)"  stroke="rgb(12,12,255)" stroke-width="1" font-size="16" >N</text>
<text x="153.227894" y="227.855288" fill="rgb(12,12,255)"  stroke="rgb(12,12,255)" stroke-width="1" font-size="16" >N</text>
<text x="122.310493" y="171.475642" fill="rgb(178,178,0)"  stroke="rgb(178,178,0)" stroke-width="1" font-size="16" >S</text>
<text x="152.749184" y="333.947166" fill="rgb(102,102,102)"  stroke="rgb(102,102,102)" stroke-width="1" font-size="16" >HC</text>
<text x="158.076922" y="107.410288" fill="rgb(255,12,12)"  stroke="rgb(255,12,12)" stroke-width="1" font-size="16" >O</text>
<text x="261.744286" y="167.227894" fill="rgb(127,178,255)"  stroke="rgb(127,178,255)" stroke-width="1" font-size="16" >F</text>
<text x="192.432283" y="48.203659" fill="rgb(127,178,255)"  stroke="rgb(127,178,255)" stroke-width="1" font-size="16" >F</text>
<text x="112.612438" y="304.848150" fill="rgb(255,12,12)"  stroke="rgb(255,12,12)" stroke-width="1" font-size="16" >O</text>
<text x="71.393092" y="338.796194" fill="rgb(102,102,102)"  stroke="rgb(102,102,102)" stroke-width="1" font-size="16" >H</text>
<text x="83.393092" y="342.476194" fill="rgb(102,102,102)"  stroke="rgb(102,102,102)" stroke-width="1" font-size="13" >3</text>
<text x="89.893092" y="338.796194" fill="rgb(102,102,102)"  stroke="rgb(102,102,102)" stroke-width="1" font-size="16" >C</text>
<text font-size="18.000000" fill ="black" font-family="sans-serif"
x="10.000000" y="20.000000" ></text>
<title> - OBDepict</title>
</svg>
