<?xml version="1.0"?>
<svg xmlns="http://www.w3.org/2000/svg"
xmlns:xlink="http://www.w3.org/1999/xlink" xmlns:cml="http://www.xml-cml.org/schema" width="378.173" height="291.526" x="0" y="0" font-family="sans-serif" stroke="rgb(0,0,0)" stroke-width="1"  stroke-linecap="round">
<rect x="0%" y="0%" width="100%" height="100%" stroke-width="0" fill="rgb(255,255,255)"  />
<line x1="203.8" y1="156.4" x2="143.3" y2="192.5" stroke="rgb(0,0,0)"  stroke-width="1.0"/>
<line x1="239.6" y1="216.4" x2="217.0" y2="230.3" stroke="rgb(0,0,0)"  stroke-width="1.0"/>
<line x1="236.5" y1="211.3" x2="213.9" y2="225.1" stroke="rgb(0,0,0)"  stroke-width="1.0"/>
<line x1="170.9" y1="101.1" x2="148.4" y2="114.2" stroke="rgb(0,0,0)"  stroke-width="1.0"/>
<line x1="167.8" y1="95.9" x2="145.3" y2="109.1" stroke="rgb(0,0,0)"  stroke-width="1.0"/>
<line x1="109.3" y1="173.3" x2="109.0" y2="147.4" stroke="rgb(0,0,0)"  stroke-width="1.0"/>
<line x1="281.7" y1="110.1" x2="304.1" y2="96.7" stroke="rgb(0,0,0)"  stroke-width="1.0"/>
<line x1="97.6" y1="128.0" x2="74.4" y2="115.0" stroke="rgb(0,0,0)"  stroke-width="1.0"/>
<line x1="304.1" y1="96.7" x2="326.8" y2="109.4" stroke="rgb(0,0,0)"  stroke-width="1.0"/>
<line x1="74.4" y1="115.0" x2="73.7" y2="76.1" stroke="rgb(0,0,0)"  stroke-width="1.0"/>
<line x1="73.7" y1="76.1" x2="51.4" y2="63.6" stroke="rgb(0,0,0)"  stroke-width="1.0"/>
<line x1="71.7" y1="79.7" x2="49.3" y2="67.2" stroke="rgb(0,0,0)"  stroke-width="1.0"/>
<line x1="75.8" y1="72.4" x2="53.4" y2="59.9" stroke="rgb(0,0,0)"  stroke-width="1.0"/>
<line x1="203.8" y1="156.4" x2="203.3" y2="117.7" stroke="rgb(0,0,0)"  stroke-width="1.0"/>
<line x1="203.3" y1="117.7" x2="236.5" y2="98.0" stroke="rgb(0,0,0)"  stroke-width="1.0"/>
<line x1="212.1" y1="120.8" x2="235.0" y2="107.2" stroke="rgb(0,0,0)"  stroke-width="1.0"/>
<line x1="236.5" y1="98.0" x2="259.2" y2="110.5" stroke="rgb(0,0,0)"  stroke-width="1.0"/>
<line x1="270.8" y1="129.8" x2="271.2" y2="155.4" stroke="rgb(0,0,0)"  stroke-width="1.0"/>
<line x1="271.2" y1="155.4" x2="237.7" y2="175.5" stroke="rgb(0,0,0)"  stroke-width="1.0"/>
<line x1="262.4" y1="152.3" x2="239.2" y2="166.2" stroke="rgb(0,0,0)"  stroke-width="1.0"/>
<line x1="237.7" y1="175.5" x2="203.8" y2="156.4" stroke="rgb(0,0,0)"  stroke-width="1.0"/>
<line x1="236.1" y1="58.5" x2="236.5" y2="98.0" stroke="rgb(0,0,0)"  stroke-width="1.0"/>
<line x1="203.3" y1="117.7" x2="169.4" y2="98.5" stroke="rgb(0,0,0)"  stroke-width="1.0"/>
<line x1="169.4" y1="98.5" x2="168.8" y2="59.7" stroke="rgb(0,0,0)"  stroke-width="1.0"/>
<line x1="168.8" y1="59.7" x2="201.8" y2="40.0" stroke="rgb(0,0,0)"  stroke-width="1.0"/>
<line x1="201.8" y1="40.0" x2="236.1" y2="58.5" stroke="rgb(0,0,0)"  stroke-width="1.0"/>
<line x1="237.7" y1="175.5" x2="238.1" y2="213.8" stroke="rgb(0,0,0)"  stroke-width="1.0"/>
<line x1="238.1" y1="213.8" x2="272.2" y2="233.4" stroke="rgb(0,0,0)"  stroke-width="1.0"/>
<line x1="272.2" y1="233.4" x2="305.7" y2="213.7" stroke="rgb(0,0,0)"  stroke-width="1.0"/>
<line x1="305.7" y1="213.7" x2="305.3" y2="174.7" stroke="rgb(0,0,0)"  stroke-width="1.0"/>
<line x1="305.3" y1="174.7" x2="271.2" y2="155.4" stroke="rgb(0,0,0)"  stroke-width="1.0"/>
<line x1="143.3" y1="192.5" x2="144.1" y2="231.4" stroke="rgb(0,0,0)"  stroke-width="1.0"/>
<line x1="136.2" y1="198.6" x2="136.7" y2="225.6" stroke="rgb(0,0,0)"  stroke-width="1.0"/>
<line x1="144.1" y1="231.4" x2="110.7" y2="251.5" stroke="rgb(0,0,0)"  stroke-width="1.0"/>
<line x1="110.7" y1="251.5" x2="76.4" y2="232.5" stroke="rgb(0,0,0)"  stroke-width="1.0"/>
<line x1="108.9" y1="242.3" x2="85.2" y2="229.1" stroke="rgb(0,0,0)"  stroke-width="1.0"/>
<line x1="76.4" y1="232.5" x2="75.7" y2="193.0" stroke="rgb(0,0,0)"  stroke-width="1.0"/>
<line x1="75.7" y1="193.0" x2="109.3" y2="173.3" stroke="rgb(0,0,0)"  stroke-width="1.0"/>
<line x1="84.5" y1="196.2" x2="107.7" y2="182.5" stroke="rgb(0,0,0)"  stroke-width="1.0"/>
<line x1="109.3" y1="173.3" x2="143.3" y2="192.5" stroke="rgb(0,0,0)"  stroke-width="1.0"/>
<text x="264.537178" y="124.787514" fill="rgb(12,12,255)"  stroke="rgb(12,12,255)" stroke-width="1" font-size="16" >N</text>
<text x="198.336325" y="242.482115" fill="rgb(255,12,12)"  stroke="rgb(255,12,12)" stroke-width="1" font-size="16" >O</text>
<text x="129.624503" y="126.222354" fill="rgb(255,12,12)"  stroke="rgb(255,12,12)" stroke-width="1" font-size="16" >O</text>
<text x="102.895897" y="142.369018" fill="rgb(255,12,12)"  stroke="rgb(255,12,12)" stroke-width="1" font-size="16" >O</text>
<text x="334.172870" y="123.711385" fill="rgb(102,102,102)"  stroke="rgb(102,102,102)" stroke-width="1" font-size="16" >CH</text>
<text x="358.172870" y="127.391385" fill="rgb(102,102,102)"  stroke="rgb(102,102,102)" stroke-width="1" font-size="13" >3</text>
<text x="22.000000" y="65.227514" fill="rgb(102,102,102)"  stroke="rgb(102,102,102)" stroke-width="1" font-size="16" >HC</text>
<text font-size="18.000000" fill ="black" font-family="sans-serif"
x="10.000000" y="20.000000" ></text>
<title> - OBDepict</title>
</svg>
