<?xml version="1.0"?>
<svg xmlns="http://www.w3.org/2000/svg"
xmlns:xlink="http://www.w3.org/1999/xlink" xmlns:cml="http://www.xml-cml.org/schema" width="258.615" height="639.897" x="0" y="0" font-family="sans-serif" stroke="rgb(0,0,0)" stroke-width="1"  stroke-linecap="round">
<rect x="0%" y="0%" width="100%" height="100%" stroke-width="0" fill="rgb(255,255,255)"  />
<line x1="178.6" y1="299.8" x2="178.6" y2="339.9" stroke="rgb(0,0,0)"  stroke-width="1.0"/>
<line x1="155.1" y1="286.3" x2="178.6" y2="299.8" stroke="rgb(0,0,0)"  stroke-width="1.0"/>
<line x1="143.9" y1="239.8" x2="143.9" y2="266.8" stroke="rgb(0,0,0)"  stroke-width="1.0"/>
<line x1="143.9" y1="132.8" x2="143.9" y2="159.8" stroke="rgb(0,0,0)"  stroke-width="1.0"/>
<line x1="178.6" y1="419.9" x2="178.6" y2="446.9" stroke="rgb(0,0,0)"  stroke-width="1.0"/>
<line x1="143.9" y1="559.9" x2="143.9" y2="519.9" stroke="rgb(0,0,0)"  stroke-width="1.0"/>
<line x1="143.9" y1="586.9" x2="143.9" y2="559.9" stroke="rgb(0,0,0)"  stroke-width="1.0"/>
<line x1="139.7" y1="586.9" x2="139.7" y2="559.9" stroke="rgb(0,0,0)"  stroke-width="1.0"/>
<line x1="148.1" y1="586.9" x2="148.1" y2="559.9" stroke="rgb(0,0,0)"  stroke-width="1.0"/>
<line x1="205.6" y1="462.9" x2="191.6" y2="462.9" stroke="rgb(0,0,0)"  stroke-width="1.0"/>
<line x1="205.6" y1="456.9" x2="191.6" y2="456.9" stroke="rgb(0,0,0)"  stroke-width="1.0"/>
<line x1="151.6" y1="456.9" x2="165.6" y2="456.9" stroke="rgb(0,0,0)"  stroke-width="1.0"/>
<line x1="151.6" y1="462.9" x2="165.6" y2="462.9" stroke="rgb(0,0,0)"  stroke-width="1.0"/>
<line x1="178.6" y1="486.9" x2="178.6" y2="472.9" stroke="rgb(0,0,0)"  stroke-width="1.0"/>
<line x1="203.4" y1="289.0" x2="180.1" y2="302.4" stroke="rgb(0,0,0)"  stroke-width="1.0"/>
<line x1="200.4" y1="283.8" x2="177.1" y2="297.2" stroke="rgb(0,0,0)"  stroke-width="1.0"/>
<line x1="143.9" y1="519.9" x2="167.3" y2="506.4" stroke="rgb(0,0,0)"  stroke-width="1.0"/>
<line x1="178.6" y1="419.9" x2="143.9" y2="399.9" stroke="rgb(0,0,0)"  stroke-width="1.0"/>
<line x1="143.9" y1="399.9" x2="143.9" y2="359.9" stroke="rgb(0,0,0)"  stroke-width="1.0"/>
<line x1="151.1" y1="393.9" x2="151.1" y2="365.9" stroke="rgb(0,0,0)"  stroke-width="1.0"/>
<line x1="143.9" y1="359.9" x2="178.6" y2="339.9" stroke="rgb(0,0,0)"  stroke-width="1.0"/>
<line x1="178.6" y1="339.9" x2="213.2" y2="359.9" stroke="rgb(0,0,0)"  stroke-width="1.0"/>
<line x1="180.2" y1="349.1" x2="204.4" y2="363.1" stroke="rgb(0,0,0)"  stroke-width="1.0"/>
<line x1="213.2" y1="359.9" x2="213.2" y2="399.9" stroke="rgb(0,0,0)"  stroke-width="1.0"/>
<line x1="213.2" y1="399.9" x2="178.6" y2="419.9" stroke="rgb(0,0,0)"  stroke-width="1.0"/>
<line x1="204.4" y1="396.6" x2="180.2" y2="410.6" stroke="rgb(0,0,0)"  stroke-width="1.0"/>
<line x1="109.3" y1="219.8" x2="109.3" y2="179.8" stroke="rgb(0,0,0)"  stroke-width="1.0"/>
<line x1="109.3" y1="179.8" x2="143.9" y2="159.8" stroke="rgb(0,0,0)"  stroke-width="1.0"/>
<line x1="118.1" y1="183.0" x2="142.3" y2="169.1" stroke="rgb(0,0,0)"  stroke-width="1.0"/>
<line x1="143.9" y1="159.8" x2="178.6" y2="179.8" stroke="rgb(0,0,0)"  stroke-width="1.0"/>
<line x1="178.6" y1="179.8" x2="178.6" y2="219.8" stroke="rgb(0,0,0)"  stroke-width="1.0"/>
<line x1="171.4" y1="185.8" x2="171.4" y2="213.8" stroke="rgb(0,0,0)"  stroke-width="1.0"/>
<line x1="178.6" y1="219.8" x2="143.9" y2="239.8" stroke="rgb(0,0,0)"  stroke-width="1.0"/>
<line x1="143.9" y1="239.8" x2="109.3" y2="219.8" stroke="rgb(0,0,0)"  stroke-width="1.0"/>
<line x1="142.3" y1="230.6" x2="118.1" y2="216.6" stroke="rgb(0,0,0)"  stroke-width="1.0"/>
<line x1="40.0" y1="179.8" x2="74.6" y2="159.8" stroke="rgb(0,0,0)"  stroke-width="1.0"/>
<line x1="48.8" y1="183.0" x2="73.0" y2="169.1" stroke="rgb(0,0,0)"  stroke-width="1.0"/>
<line x1="74.6" y1="159.8" x2="109.3" y2="179.8" stroke="rgb(0,0,0)"  stroke-width="1.0"/>
<line x1="109.3" y1="219.8" x2="74.6" y2="239.8" stroke="rgb(0,0,0)"  stroke-width="1.0"/>
<line x1="74.6" y1="239.8" x2="51.4" y2="226.4" stroke="rgb(0,0,0)"  stroke-width="1.0"/>
<line x1="73.0" y1="230.6" x2="56.7" y2="221.2" stroke="rgb(0,0,0)"  stroke-width="1.0"/>
<line x1="40.0" y1="206.8" x2="40.0" y2="179.8" stroke="rgb(0,0,0)"  stroke-width="1.0"/>
<line x1="132.6" y1="113.3" x2="109.3" y2="99.8" stroke="rgb(0,0,0)"  stroke-width="1.0"/>
<line x1="109.3" y1="99.8" x2="109.3" y2="60.0" stroke="rgb(0,0,0)"  stroke-width="1.0"/>
<line x1="109.3" y1="60.0" x2="143.9" y2="40.0" stroke="rgb(0,0,0)"  stroke-width="1.0"/>
<line x1="143.9" y1="40.0" x2="178.6" y2="60.0" stroke="rgb(0,0,0)"  stroke-width="1.0"/>
<line x1="178.6" y1="60.0" x2="178.6" y2="99.8" stroke="rgb(0,0,0)"  stroke-width="1.0"/>
<line x1="178.6" y1="99.8" x2="155.1" y2="113.3" stroke="rgb(0,0,0)"  stroke-width="1.0"/>
<text x="172.607949" y="467.873024" fill="rgb(178,178,0)"  stroke="rgb(178,178,0)" stroke-width="1" font-size="16" >S</text>
<text x="125.857763" y="287.842233" fill="rgb(12,12,255)"  stroke="rgb(12,12,255)" stroke-width="1" font-size="16" >HN</text>
<text x="137.857763" y="127.814863" fill="rgb(12,12,255)"  stroke="rgb(12,12,255)" stroke-width="1" font-size="16" >N</text>
<text x="137.857763" y="607.896973" fill="rgb(102,102,102)"  stroke="rgb(102,102,102)" stroke-width="1" font-size="16" >CH</text>
<text x="212.614791" y="467.873024" fill="rgb(255,12,12)"  stroke="rgb(255,12,12)" stroke-width="1" font-size="16" >O</text>
<text x="132.601106" y="467.873024" fill="rgb(255,12,12)"  stroke="rgb(255,12,12)" stroke-width="1" font-size="16" >O</text>
<text x="172.607949" y="507.879866" fill="rgb(12,12,255)"  stroke="rgb(12,12,255)" stroke-width="1" font-size="16" >NH</text>
<text x="207.159313" y="287.842233" fill="rgb(255,12,12)"  stroke="rgb(255,12,12)" stroke-width="1" font-size="16" >O</text>
<text x="34.000000" y="227.831969" fill="rgb(12,12,255)"  stroke="rgb(12,12,255)" stroke-width="1" font-size="16" >N</text>
<text font-size="18.000000" fill ="black" font-family="sans-serif"
x="10.000000" y="20.000000" ></text>
<title> - OBDepict</title>
</svg>
