<?xml version="1.0"?>
<svg xmlns="http://www.w3.org/2000/svg"
xmlns:xlink="http://www.w3.org/1999/xlink" xmlns:cml="http://www.xml-cml.org/schema" width="308.056" height="360.166" x="0" y="0" font-family="sans-serif" stroke="rgb(0,0,0)" stroke-width="1"  stroke-linecap="round">
<rect x="0%" y="0%" width="100%" height="100%" stroke-width="0" fill="rgb(255,255,255)"  />
<line x1="228.9" y1="290.3" x2="220.6" y2="264.7" stroke="rgb(0,0,0)"  stroke-width="1.0"/>
<line x1="74.5" y1="180.0" x2="109.1" y2="200.0" stroke="rgb(0,0,0)"  stroke-width="1.0"/>
<line x1="40.0" y1="80.0" x2="40.0" y2="120.0" stroke="rgb(0,0,0)"  stroke-width="1.0"/>
<line x1="40.0" y1="53.0" x2="40.0" y2="80.0" stroke="rgb(0,0,0)"  stroke-width="1.0"/>
<line x1="44.2" y1="53.0" x2="44.2" y2="80.0" stroke="rgb(0,0,0)"  stroke-width="1.0"/>
<line x1="35.8" y1="53.0" x2="35.8" y2="80.0" stroke="rgb(0,0,0)"  stroke-width="1.0"/>
<line x1="254.7" y1="298.9" x2="228.2" y2="293.2" stroke="rgb(0,0,0)"  stroke-width="1.0"/>
<line x1="256.0" y1="293.1" x2="229.5" y2="287.3" stroke="rgb(0,0,0)"  stroke-width="1.0"/>
<line x1="49.7" y1="190.9" x2="73.0" y2="177.4" stroke="rgb(0,0,0)"  stroke-width="1.0"/>
<line x1="52.8" y1="196.1" x2="76.0" y2="182.6" stroke="rgb(0,0,0)"  stroke-width="1.0"/>
<line x1="74.5" y1="153.0" x2="74.5" y2="180.0" stroke="rgb(0,0,0)"  stroke-width="1.0"/>
<line x1="40.0" y1="120.0" x2="63.3" y2="133.5" stroke="rgb(0,0,0)"  stroke-width="1.0"/>
<line x1="210.7" y1="310.5" x2="228.9" y2="290.3" stroke="rgb(0,0,0)"  stroke-width="1.0"/>
<line x1="204.2" y1="248.3" x2="178.4" y2="240.0" stroke="rgb(0,0,0)"  stroke-width="1.0"/>
<line x1="178.4" y1="240.0" x2="178.4" y2="200.0" stroke="rgb(0,0,0)"  stroke-width="1.0"/>
<line x1="185.6" y1="234.0" x2="185.6" y2="206.0" stroke="rgb(0,0,0)"  stroke-width="1.0"/>
<line x1="178.4" y1="200.0" x2="216.5" y2="187.7" stroke="rgb(0,0,0)"  stroke-width="1.0"/>
<line x1="216.5" y1="187.7" x2="240.0" y2="220.0" stroke="rgb(0,0,0)"  stroke-width="1.0"/>
<line x1="240.0" y1="220.0" x2="224.2" y2="241.8" stroke="rgb(0,0,0)"  stroke-width="1.0"/>
<line x1="109.1" y1="200.0" x2="143.8" y2="180.0" stroke="rgb(0,0,0)"  stroke-width="1.0"/>
<line x1="117.9" y1="203.2" x2="142.2" y2="189.2" stroke="rgb(0,0,0)"  stroke-width="1.0"/>
<line x1="143.8" y1="180.0" x2="178.4" y2="200.0" stroke="rgb(0,0,0)"  stroke-width="1.0"/>
<line x1="178.4" y1="240.0" x2="143.8" y2="260.0" stroke="rgb(0,0,0)"  stroke-width="1.0"/>
<line x1="143.8" y1="260.0" x2="109.1" y2="240.0" stroke="rgb(0,0,0)"  stroke-width="1.0"/>
<line x1="142.2" y1="250.7" x2="117.9" y2="236.7" stroke="rgb(0,0,0)"  stroke-width="1.0"/>
<line x1="109.1" y1="240.0" x2="109.1" y2="200.0" stroke="rgb(0,0,0)"  stroke-width="1.0"/>
<text x="210.546657" y="260.295209" fill="rgb(12,12,255)"  stroke="rgb(12,12,255)" stroke-width="1" font-size="16" >N</text>
<text x="34.000000" y="48.000000" fill="rgb(102,102,102)"  stroke="rgb(102,102,102)" stroke-width="1" font-size="16" >CH</text>
<text x="262.055793" y="306.757663" fill="rgb(255,12,12)"  stroke="rgb(255,12,12)" stroke-width="1" font-size="16" >O</text>
<text x="34.000000" y="207.981318" fill="rgb(255,12,12)"  stroke="rgb(255,12,12)" stroke-width="1" font-size="16" >O</text>
<text x="68.541421" y="147.988324" fill="rgb(12,12,255)"  stroke="rgb(12,12,255)" stroke-width="1" font-size="16" >NH</text>
<text x="176.002900" y="328.166072" fill="rgb(102,102,102)"  stroke="rgb(102,102,102)" stroke-width="1" font-size="16" >H</text>
<text x="188.002900" y="331.846072" fill="rgb(102,102,102)"  stroke="rgb(102,102,102)" stroke-width="1" font-size="13" >3</text>
<text x="194.502900" y="328.166072" fill="rgb(102,102,102)"  stroke="rgb(102,102,102)" stroke-width="1" font-size="16" >C</text>
<text font-size="18.000000" fill ="black" font-family="sans-serif"
x="10.000000" y="20.000000" ></text>
<title> - OBDepict</title>
</svg>
