<?xml version="1.0"?>
<svg xmlns="http://www.w3.org/2000/svg"
xmlns:xlink="http://www.w3.org/1999/xlink" xmlns:cml="http://www.xml-cml.org/schema" width="453.197" height="399.473" x="0" y="0" font-family="sans-serif" stroke="rgb(0,0,0)" stroke-width="1"  stroke-linecap="round">
<rect x="0%" y="0%" width="100%" height="100%" stroke-width="0" fill="rgb(255,255,255)"  />
<line x1="174.1" y1="131.5" x2="152.3" y2="147.4" stroke="rgb(0,0,0)"  stroke-width="1.0"/>
<line x1="91.5" y1="104.6" x2="103.8" y2="142.6" stroke="rgb(0,0,0)"  stroke-width="1.0"/>
<line x1="380.9" y1="109.9" x2="348.4" y2="133.3" stroke="rgb(0,0,0)"  stroke-width="1.0"/>
<line x1="402.7" y1="93.9" x2="380.9" y2="109.9" stroke="rgb(0,0,0)"  stroke-width="1.0"/>
<line x1="405.2" y1="97.3" x2="383.4" y2="113.3" stroke="rgb(0,0,0)"  stroke-width="1.0"/>
<line x1="400.2" y1="90.5" x2="378.4" y2="106.5" stroke="rgb(0,0,0)"  stroke-width="1.0"/>
<line x1="91.5" y1="245.4" x2="103.8" y2="207.4" stroke="rgb(0,0,0)"  stroke-width="1.0"/>
<line x1="210.6" y1="147.8" x2="174.1" y2="131.5" stroke="rgb(0,0,0)"  stroke-width="1.0"/>
<line x1="174.4" y1="104.3" x2="177.1" y2="131.2" stroke="rgb(0,0,0)"  stroke-width="1.0"/>
<line x1="168.4" y1="104.9" x2="171.1" y2="131.8" stroke="rgb(0,0,0)"  stroke-width="1.0"/>
<line x1="232.5" y1="131.9" x2="210.6" y2="147.8" stroke="rgb(0,0,0)"  stroke-width="1.0"/>
<line x1="279.5" y1="140.6" x2="254.8" y2="129.5" stroke="rgb(0,0,0)"  stroke-width="1.0"/>
<line x1="58.4" y1="347.1" x2="66.7" y2="321.5" stroke="rgb(0,0,0)"  stroke-width="1.0"/>
<line x1="129.4" y1="151.0" x2="103.8" y2="142.6" stroke="rgb(0,0,0)"  stroke-width="1.0"/>
<line x1="103.8" y1="142.6" x2="80.2" y2="175.1" stroke="rgb(0,0,0)"  stroke-width="1.0"/>
<line x1="80.2" y1="175.1" x2="103.8" y2="207.4" stroke="rgb(0,0,0)"  stroke-width="1.0"/>
<line x1="103.8" y1="207.4" x2="129.2" y2="199.2" stroke="rgb(0,0,0)"  stroke-width="1.0"/>
<line x1="107.3" y1="198.7" x2="125.1" y2="192.9" stroke="rgb(0,0,0)"  stroke-width="1.0"/>
<line x1="141.8" y1="182.1" x2="141.8" y2="168.1" stroke="rgb(0,0,0)"  stroke-width="1.0"/>
<line x1="91.5" y1="104.6" x2="65.7" y2="96.3" stroke="rgb(0,0,0)"  stroke-width="1.0"/>
<line x1="53.3" y1="79.3" x2="53.3" y2="52.3" stroke="rgb(0,0,0)"  stroke-width="1.0"/>
<line x1="53.3" y1="52.3" x2="91.5" y2="40.0" stroke="rgb(0,0,0)"  stroke-width="1.0"/>
<line x1="61.2" y1="57.3" x2="88.0" y2="48.7" stroke="rgb(0,0,0)"  stroke-width="1.0"/>
<line x1="91.5" y1="40.0" x2="114.9" y2="72.3" stroke="rgb(0,0,0)"  stroke-width="1.0"/>
<line x1="114.9" y1="72.3" x2="91.5" y2="104.6" stroke="rgb(0,0,0)"  stroke-width="1.0"/>
<line x1="105.6" y1="72.9" x2="89.2" y2="95.5" stroke="rgb(0,0,0)"  stroke-width="1.0"/>
<line x1="91.5" y1="245.4" x2="118.2" y2="275.1" stroke="rgb(0,0,0)"  stroke-width="1.0"/>
<line x1="118.2" y1="275.1" x2="105.8" y2="313.0" stroke="rgb(0,0,0)"  stroke-width="1.0"/>
<line x1="109.5" y1="278.5" x2="100.8" y2="305.1" stroke="rgb(0,0,0)"  stroke-width="1.0"/>
<line x1="105.8" y1="313.0" x2="66.7" y2="321.5" stroke="rgb(0,0,0)"  stroke-width="1.0"/>
<line x1="66.7" y1="321.5" x2="40.0" y2="291.8" stroke="rgb(0,0,0)"  stroke-width="1.0"/>
<line x1="68.0" y1="312.2" x2="49.4" y2="291.5" stroke="rgb(0,0,0)"  stroke-width="1.0"/>
<line x1="40.0" y1="291.8" x2="52.3" y2="253.7" stroke="rgb(0,0,0)"  stroke-width="1.0"/>
<line x1="52.3" y1="253.7" x2="91.5" y2="245.4" stroke="rgb(0,0,0)"  stroke-width="1.0"/>
<line x1="59.7" y1="259.5" x2="87.1" y2="253.7" stroke="rgb(0,0,0)"  stroke-width="1.0"/>
<line x1="348.4" y1="133.3" x2="352.6" y2="173.1" stroke="rgb(0,0,0)"  stroke-width="1.0"/>
<line x1="341.8" y1="140.0" x2="344.8" y2="167.9" stroke="rgb(0,0,0)"  stroke-width="1.0"/>
<line x1="352.6" y1="173.1" x2="320.3" y2="196.5" stroke="rgb(0,0,0)"  stroke-width="1.0"/>
<line x1="320.3" y1="196.5" x2="283.7" y2="180.3" stroke="rgb(0,0,0)"  stroke-width="1.0"/>
<line x1="317.7" y1="187.5" x2="292.1" y2="176.2" stroke="rgb(0,0,0)"  stroke-width="1.0"/>
<line x1="283.7" y1="180.3" x2="279.5" y2="140.6" stroke="rgb(0,0,0)"  stroke-width="1.0"/>
<line x1="279.5" y1="140.6" x2="311.8" y2="116.9" stroke="rgb(0,0,0)"  stroke-width="1.0"/>
<line x1="288.6" y1="142.8" x2="311.2" y2="126.3" stroke="rgb(0,0,0)"  stroke-width="1.0"/>
<line x1="311.8" y1="116.9" x2="348.4" y2="133.3" stroke="rgb(0,0,0)"  stroke-width="1.0"/>
<text x="135.775339" y="163.107103" fill="rgb(12,12,255)"  stroke="rgb(12,12,255)" stroke-width="1" font-size="16" >N</text>
<text x="135.775339" y="203.092697" fill="rgb(12,12,255)"  stroke="rgb(12,12,255)" stroke-width="1" font-size="16" >N</text>
<text x="407.197258" y="94.236828" fill="rgb(102,102,102)"  stroke="rgb(102,102,102)" stroke-width="1" font-size="16" >CH</text>
<text x="47.326915" y="100.298926" fill="rgb(255,12,12)"  stroke="rgb(255,12,12)" stroke-width="1" font-size="16" >O</text>
<text x="164.053810" y="99.692716" fill="rgb(255,12,12)"  stroke="rgb(255,12,12)" stroke-width="1" font-size="16" >O</text>
<text x="236.954167" y="132.209806" fill="rgb(12,12,255)"  stroke="rgb(12,12,255)" stroke-width="1" font-size="16" >N</text>
<text x="236.954167" y="116.209806" fill="rgb(12,12,255)"  stroke="rgb(12,12,255)" stroke-width="1" font-size="16" >H</text>
<text x="36.340497" y="367.472527" fill="rgb(30,239,30)"  stroke="rgb(30,239,30)" stroke-width="1" font-size="16" >Cl</text>
<text font-size="18.000000" fill ="black" font-family="sans-serif"
x="10.000000" y="20.000000" ></text>
<title> - OBDepict</title>
</svg>
