<?xml version="1.0"?>
<svg xmlns="http://www.w3.org/2000/svg"
xmlns:xlink="http://www.w3.org/1999/xlink" xmlns:cml="http://www.xml-cml.org/schema" width="293.379" height="490.368" x="0" y="0" font-family="sans-serif" stroke="rgb(0,0,0)" stroke-width="1"  stroke-linecap="round">
<rect x="0%" y="0%" width="100%" height="100%" stroke-width="0" fill="rgb(255,255,255)"  />
<line x1="178.3" y1="230.3" x2="212.7" y2="250.4" stroke="rgb(0,0,0)"  stroke-width="1.0"/>
<line x1="119.8" y1="179.1" x2="100.4" y2="159.8" stroke="rgb(0,0,0)"  stroke-width="1.0"/>
<line x1="124.1" y1="174.8" x2="104.7" y2="155.6" stroke="rgb(0,0,0)"  stroke-width="1.0"/>
<line x1="72.5" y1="212.4" x2="53.3" y2="193.1" stroke="rgb(0,0,0)"  stroke-width="1.0"/>
<line x1="76.7" y1="208.1" x2="57.5" y2="188.9" stroke="rgb(0,0,0)"  stroke-width="1.0"/>
<line x1="178.3" y1="270.3" x2="201.3" y2="284.2" stroke="rgb(0,0,0)"  stroke-width="1.0"/>
<line x1="212.7" y1="250.4" x2="236.1" y2="263.8" stroke="rgb(0,0,0)"  stroke-width="1.0"/>
<line x1="214.8" y1="246.7" x2="238.2" y2="260.1" stroke="rgb(0,0,0)"  stroke-width="1.0"/>
<line x1="210.6" y1="254.0" x2="234.0" y2="267.4" stroke="rgb(0,0,0)"  stroke-width="1.0"/>
<line x1="143.2" y1="133.0" x2="136.0" y2="107.1" stroke="rgb(0,0,0)"  stroke-width="1.0"/>
<line x1="143.3" y1="303.3" x2="143.2" y2="330.3" stroke="rgb(0,0,0)"  stroke-width="1.0"/>
<line x1="136.0" y1="107.1" x2="163.9" y2="78.6" stroke="rgb(0,0,0)"  stroke-width="1.0"/>
<line x1="163.9" y1="78.6" x2="156.9" y2="52.6" stroke="rgb(0,0,0)"  stroke-width="1.0"/>
<line x1="159.9" y1="79.7" x2="152.9" y2="53.6" stroke="rgb(0,0,0)"  stroke-width="1.0"/>
<line x1="168.0" y1="77.5" x2="161.0" y2="51.5" stroke="rgb(0,0,0)"  stroke-width="1.0"/>
<line x1="177.6" y1="350.4" x2="203.5" y2="357.2" stroke="rgb(0,0,0)"  stroke-width="1.0"/>
<line x1="142.5" y1="410.4" x2="142.2" y2="437.4" stroke="rgb(0,0,0)"  stroke-width="1.0"/>
<line x1="143.7" y1="210.2" x2="182.1" y2="200.0" stroke="rgb(0,0,0)"  stroke-width="1.0"/>
<line x1="182.1" y1="200.0" x2="184.3" y2="160.1" stroke="rgb(0,0,0)"  stroke-width="1.0"/>
<line x1="175.3" y1="193.7" x2="176.8" y2="165.7" stroke="rgb(0,0,0)"  stroke-width="1.0"/>
<line x1="184.3" y1="160.1" x2="158.8" y2="150.2" stroke="rgb(0,0,0)"  stroke-width="1.0"/>
<line x1="138.6" y1="155.7" x2="121.9" y2="177.0" stroke="rgb(0,0,0)"  stroke-width="1.0"/>
<line x1="121.9" y1="177.0" x2="143.7" y2="210.2" stroke="rgb(0,0,0)"  stroke-width="1.0"/>
<line x1="219.6" y1="141.2" x2="184.3" y2="160.1" stroke="rgb(0,0,0)"  stroke-width="1.0"/>
<line x1="182.1" y1="200.0" x2="215.9" y2="221.3" stroke="rgb(0,0,0)"  stroke-width="1.0"/>
<line x1="215.9" y1="221.3" x2="251.5" y2="203.0" stroke="rgb(0,0,0)"  stroke-width="1.0"/>
<line x1="218.0" y1="212.1" x2="242.9" y2="199.4" stroke="rgb(0,0,0)"  stroke-width="1.0"/>
<line x1="251.5" y1="203.0" x2="253.4" y2="163.1" stroke="rgb(0,0,0)"  stroke-width="1.0"/>
<line x1="253.4" y1="163.1" x2="219.6" y2="141.2" stroke="rgb(0,0,0)"  stroke-width="1.0"/>
<line x1="244.4" y1="165.9" x2="220.7" y2="150.5" stroke="rgb(0,0,0)"  stroke-width="1.0"/>
<line x1="143.7" y1="210.2" x2="178.3" y2="230.3" stroke="rgb(0,0,0)"  stroke-width="1.0"/>
<line x1="178.3" y1="230.3" x2="178.3" y2="270.3" stroke="rgb(0,0,0)"  stroke-width="1.0"/>
<line x1="171.1" y1="236.3" x2="171.1" y2="264.3" stroke="rgb(0,0,0)"  stroke-width="1.0"/>
<line x1="178.3" y1="270.3" x2="154.6" y2="283.9" stroke="rgb(0,0,0)"  stroke-width="1.0"/>
<line x1="132.1" y1="283.8" x2="108.7" y2="270.3" stroke="rgb(0,0,0)"  stroke-width="1.0"/>
<line x1="108.7" y1="270.3" x2="109.2" y2="230.3" stroke="rgb(0,0,0)"  stroke-width="1.0"/>
<line x1="116.0" y1="264.4" x2="116.4" y2="236.4" stroke="rgb(0,0,0)"  stroke-width="1.0"/>
<line x1="109.2" y1="230.3" x2="143.7" y2="210.2" stroke="rgb(0,0,0)"  stroke-width="1.0"/>
<line x1="109.2" y1="230.3" x2="74.6" y2="210.2" stroke="rgb(0,0,0)"  stroke-width="1.0"/>
<line x1="74.6" y1="210.2" x2="40.0" y2="230.3" stroke="rgb(0,0,0)"  stroke-width="1.0"/>
<line x1="40.0" y1="230.3" x2="40.0" y2="270.3" stroke="rgb(0,0,0)"  stroke-width="1.0"/>
<line x1="40.0" y1="270.3" x2="74.6" y2="290.3" stroke="rgb(0,0,0)"  stroke-width="1.0"/>
<line x1="74.6" y1="290.3" x2="108.7" y2="270.3" stroke="rgb(0,0,0)"  stroke-width="1.0"/>
<line x1="143.2" y1="330.3" x2="108.1" y2="349.7" stroke="rgb(0,0,0)"  stroke-width="1.0"/>
<line x1="141.4" y1="339.5" x2="116.8" y2="353.1" stroke="rgb(0,0,0)"  stroke-width="1.0"/>
<line x1="108.1" y1="349.7" x2="107.9" y2="389.7" stroke="rgb(0,0,0)"  stroke-width="1.0"/>
<line x1="107.9" y1="389.7" x2="142.5" y2="410.4" stroke="rgb(0,0,0)"  stroke-width="1.0"/>
<line x1="116.7" y1="386.6" x2="141.1" y2="401.1" stroke="rgb(0,0,0)"  stroke-width="1.0"/>
<line x1="142.5" y1="410.4" x2="177.3" y2="390.3" stroke="rgb(0,0,0)"  stroke-width="1.0"/>
<line x1="177.3" y1="390.3" x2="177.6" y2="350.4" stroke="rgb(0,0,0)"  stroke-width="1.0"/>
<line x1="170.1" y1="384.3" x2="170.4" y2="356.3" stroke="rgb(0,0,0)"  stroke-width="1.0"/>
<line x1="177.6" y1="350.4" x2="143.2" y2="330.3" stroke="rgb(0,0,0)"  stroke-width="1.0"/>
<text x="140.687078" y="153.514266" fill="rgb(12,12,255)"  stroke="rgb(12,12,255)" stroke-width="1" font-size="16" >N</text>
<text x="87.343539" y="156.528683" fill="rgb(255,12,12)"  stroke="rgb(255,12,12)" stroke-width="1" font-size="16" >O</text>
<text x="137.347958" y="298.332258" fill="rgb(12,12,255)"  stroke="rgb(12,12,255)" stroke-width="1" font-size="16" >N</text>
<text x="40.188762" y="189.803575" fill="rgb(255,12,12)"  stroke="rgb(255,12,12)" stroke-width="1" font-size="16" >O</text>
<text x="208.408140" y="299.001051" fill="rgb(12,12,255)"  stroke="rgb(12,12,255)" stroke-width="1" font-size="16" >NH</text>
<text x="232.408140" y="302.681051" fill="rgb(12,12,255)"  stroke="rgb(12,12,255)" stroke-width="1" font-size="13" >2</text>
<text x="241.359862" y="278.268457" fill="rgb(12,12,255)"  stroke="rgb(12,12,255)" stroke-width="1" font-size="16" >N</text>
<text x="135.544633" y="48.000000" fill="rgb(102,102,102)"  stroke="rgb(102,102,102)" stroke-width="1" font-size="16" >HC</text>
<text x="210.091350" y="368.570098" fill="rgb(127,178,255)"  stroke="rgb(127,178,255)" stroke-width="1" font-size="16" >F</text>
<text x="136.010371" y="458.367721" fill="rgb(127,178,255)"  stroke="rgb(127,178,255)" stroke-width="1" font-size="16" >F</text>
<text font-size="18.000000" fill ="black" font-family="sans-serif"
x="10.000000" y="20.000000" ></text>
<title> - OBDepict</title>
</svg>
