<?xml version="1.0"?>
<svg xmlns="http://www.w3.org/2000/svg"
xmlns:xlink="http://www.w3.org/1999/xlink" xmlns:cml="http://www.xml-cml.org/schema" width="377.875" height="350.224" x="0" y="0" font-family="sans-serif" stroke="rgb(0,0,0)" stroke-width="1"  stroke-linecap="round">
<rect x="0%" y="0%" width="100%" height="100%" stroke-width="0" fill="rgb(255,255,255)"  />
<line x1="200.8" y1="230.5" x2="162.6" y2="242.9" stroke="rgb(0,0,0)"  stroke-width="1.0"/>
<line x1="198.9" y1="224.8" x2="160.8" y2="237.1" stroke="rgb(0,0,0)"  stroke-width="1.0"/>
<line x1="208.1" y1="188.5" x2="199.8" y2="227.7" stroke="rgb(0,0,0)"  stroke-width="1.0"/>
<line x1="50.7" y1="188.5" x2="59.2" y2="227.7" stroke="rgb(0,0,0)"  stroke-width="1.0"/>
<line x1="43.5" y1="162.3" x2="50.7" y2="188.5" stroke="rgb(0,0,0)"  stroke-width="1.0"/>
<line x1="47.5" y1="161.2" x2="54.7" y2="187.4" stroke="rgb(0,0,0)"  stroke-width="1.0"/>
<line x1="39.4" y1="163.4" x2="46.6" y2="189.7" stroke="rgb(0,0,0)"  stroke-width="1.0"/>
<line x1="91.1" y1="298.0" x2="107.0" y2="276.4" stroke="rgb(0,0,0)"  stroke-width="1.0"/>
<line x1="95.9" y1="301.5" x2="111.8" y2="279.9" stroke="rgb(0,0,0)"  stroke-width="1.0"/>
<line x1="132.1" y1="189.4" x2="132.4" y2="216.4" stroke="rgb(0,0,0)"  stroke-width="1.0"/>
<line x1="126.1" y1="189.5" x2="126.4" y2="216.4" stroke="rgb(0,0,0)"  stroke-width="1.0"/>
<line x1="59.2" y1="227.7" x2="84.6" y2="236.0" stroke="rgb(0,0,0)"  stroke-width="1.0"/>
<line x1="270.1" y1="105.6" x2="240.4" y2="132.6" stroke="rgb(0,0,0)"  stroke-width="1.0"/>
<line x1="101.0" y1="252.3" x2="109.4" y2="278.1" stroke="rgb(0,0,0)"  stroke-width="1.0"/>
<line x1="109.4" y1="278.1" x2="136.4" y2="278.1" stroke="rgb(0,0,0)"  stroke-width="1.0"/>
<line x1="153.4" y1="265.8" x2="161.7" y2="240.0" stroke="rgb(0,0,0)"  stroke-width="1.0"/>
<line x1="161.7" y1="240.0" x2="129.4" y2="216.4" stroke="rgb(0,0,0)"  stroke-width="1.0"/>
<line x1="129.4" y1="216.4" x2="107.4" y2="232.4" stroke="rgb(0,0,0)"  stroke-width="1.0"/>
<line x1="243.3" y1="159.3" x2="240.4" y2="132.6" stroke="rgb(0,0,0)"  stroke-width="1.0"/>
<line x1="240.4" y1="132.6" x2="201.4" y2="124.4" stroke="rgb(0,0,0)"  stroke-width="1.0"/>
<line x1="233.0" y1="138.4" x2="205.8" y2="132.7" stroke="rgb(0,0,0)"  stroke-width="1.0"/>
<line x1="201.4" y1="124.4" x2="181.5" y2="158.9" stroke="rgb(0,0,0)"  stroke-width="1.0"/>
<line x1="181.5" y1="158.9" x2="208.1" y2="188.5" stroke="rgb(0,0,0)"  stroke-width="1.0"/>
<line x1="190.8" y1="158.5" x2="209.5" y2="179.3" stroke="rgb(0,0,0)"  stroke-width="1.0"/>
<line x1="208.1" y1="188.5" x2="232.8" y2="177.5" stroke="rgb(0,0,0)"  stroke-width="1.0"/>
<line x1="270.1" y1="105.6" x2="261.6" y2="66.8" stroke="rgb(0,0,0)"  stroke-width="1.0"/>
<line x1="261.6" y1="66.8" x2="291.7" y2="40.0" stroke="rgb(0,0,0)"  stroke-width="1.0"/>
<line x1="270.9" y1="68.2" x2="292.0" y2="49.4" stroke="rgb(0,0,0)"  stroke-width="1.0"/>
<line x1="291.7" y1="40.0" x2="329.8" y2="52.3" stroke="rgb(0,0,0)"  stroke-width="1.0"/>
<line x1="329.8" y1="52.3" x2="337.9" y2="91.7" stroke="rgb(0,0,0)"  stroke-width="1.0"/>
<line x1="324.0" y1="59.6" x2="329.6" y2="87.2" stroke="rgb(0,0,0)"  stroke-width="1.0"/>
<line x1="337.9" y1="91.7" x2="308.2" y2="118.3" stroke="rgb(0,0,0)"  stroke-width="1.0"/>
<line x1="308.2" y1="118.3" x2="270.1" y2="105.6" stroke="rgb(0,0,0)"  stroke-width="1.0"/>
<line x1="304.8" y1="109.6" x2="278.0" y2="100.7" stroke="rgb(0,0,0)"  stroke-width="1.0"/>
<text x="90.914273" y="247.996231" fill="rgb(12,12,255)"  stroke="rgb(12,12,255)" stroke-width="1" font-size="16" >N</text>
<text x="143.381057" y="286.139768" fill="rgb(178,178,0)"  stroke="rgb(178,178,0)" stroke-width="1" font-size="16" >S</text>
<text x="238.637935" y="180.186580" fill="rgb(255,12,12)"  stroke="rgb(255,12,12)" stroke-width="1" font-size="16" >O</text>
<text x="22.000000" y="157.788905" fill="rgb(102,102,102)"  stroke="rgb(102,102,102)" stroke-width="1" font-size="16" >HC</text>
<text x="79.810115" y="318.223842" fill="rgb(255,12,12)"  stroke="rgb(255,12,12)" stroke-width="1" font-size="16" >O</text>
<text x="122.998347" y="184.425290" fill="rgb(255,12,12)"  stroke="rgb(255,12,12)" stroke-width="1" font-size="16" >O</text>
<text font-size="18.000000" fill ="black" font-family="sans-serif"
x="10.000000" y="20.000000" ></text>
<title> - OBDepict</title>
</svg>
