<?xml version="1.0"?>
<svg xmlns="http://www.w3.org/2000/svg"
xmlns:xlink="http://www.w3.org/1999/xlink" xmlns:cml="http://www.xml-cml.org/schema" width="428.703" height="323.252" x="0" y="0" font-family="sans-serif" stroke="rgb(0,0,0)" stroke-width="1"  stroke-linecap="round">
<rect x="0%" y="0%" width="100%" height="100%" stroke-width="0" fill="rgb(255,255,255)"  />
<line x1="269.2" y1="199.8" x2="217.7" y2="216.4" stroke="rgb(0,0,0)"  stroke-width="1.0"/>
<line x1="267.4" y1="194.1" x2="215.8" y2="210.7" stroke="rgb(0,0,0)"  stroke-width="1.0"/>
<line x1="276.7" y1="158.0" x2="268.3" y2="197.0" stroke="rgb(0,0,0)"  stroke-width="1.0"/>
<line x1="115.5" y1="201.2" x2="140.7" y2="209.5" stroke="rgb(0,0,0)"  stroke-width="1.0"/>
<line x1="188.6" y1="78.7" x2="180.2" y2="117.3" stroke="rgb(0,0,0)"  stroke-width="1.0"/>
<line x1="194.2" y1="52.7" x2="188.6" y2="78.7" stroke="rgb(0,0,0)"  stroke-width="1.0"/>
<line x1="198.3" y1="53.6" x2="192.7" y2="79.6" stroke="rgb(0,0,0)"  stroke-width="1.0"/>
<line x1="190.1" y1="51.8" x2="184.5" y2="77.9" stroke="rgb(0,0,0)"  stroke-width="1.0"/>
<line x1="85.9" y1="227.9" x2="115.5" y2="201.2" stroke="rgb(0,0,0)"  stroke-width="1.0"/>
<line x1="147.1" y1="271.0" x2="162.6" y2="249.5" stroke="rgb(0,0,0)"  stroke-width="1.0"/>
<line x1="151.9" y1="274.5" x2="167.4" y2="253.1" stroke="rgb(0,0,0)"  stroke-width="1.0"/>
<line x1="187.8" y1="163.8" x2="187.8" y2="190.4" stroke="rgb(0,0,0)"  stroke-width="1.0"/>
<line x1="181.8" y1="163.8" x2="181.8" y2="190.4" stroke="rgb(0,0,0)"  stroke-width="1.0"/>
<line x1="88.6" y1="254.4" x2="83.0" y2="228.6" stroke="rgb(0,0,0)"  stroke-width="1.0"/>
<line x1="94.5" y1="253.1" x2="88.9" y2="227.3" stroke="rgb(0,0,0)"  stroke-width="1.0"/>
<line x1="60.7" y1="219.6" x2="85.9" y2="227.9" stroke="rgb(0,0,0)"  stroke-width="1.0"/>
<line x1="221.9" y1="139.7" x2="247.3" y2="131.7" stroke="rgb(0,0,0)"  stroke-width="1.0"/>
<line x1="180.2" y1="117.3" x2="199.9" y2="135.0" stroke="rgb(0,0,0)"  stroke-width="1.0"/>
<line x1="42.8" y1="189.9" x2="45.6" y2="202.8" stroke="rgb(0,0,0)"  stroke-width="1.0"/>
<line x1="157.0" y1="225.9" x2="165.0" y2="251.3" stroke="rgb(0,0,0)"  stroke-width="1.0"/>
<line x1="165.0" y1="251.3" x2="191.6" y2="251.3" stroke="rgb(0,0,0)"  stroke-width="1.0"/>
<line x1="208.6" y1="238.9" x2="216.7" y2="213.5" stroke="rgb(0,0,0)"  stroke-width="1.0"/>
<line x1="216.7" y1="213.5" x2="184.8" y2="190.4" stroke="rgb(0,0,0)"  stroke-width="1.0"/>
<line x1="184.8" y1="190.4" x2="163.5" y2="205.9" stroke="rgb(0,0,0)"  stroke-width="1.0"/>
<line x1="276.7" y1="158.0" x2="313.8" y2="146.0" stroke="rgb(0,0,0)"  stroke-width="1.0"/>
<line x1="313.8" y1="146.0" x2="322.2" y2="107.7" stroke="rgb(0,0,0)"  stroke-width="1.0"/>
<line x1="322.2" y1="107.7" x2="292.8" y2="80.7" stroke="rgb(0,0,0)"  stroke-width="1.0"/>
<line x1="292.8" y1="80.7" x2="255.5" y2="93.1" stroke="rgb(0,0,0)"  stroke-width="1.0"/>
<line x1="289.4" y1="89.5" x2="263.4" y2="98.1" stroke="rgb(0,0,0)"  stroke-width="1.0"/>
<line x1="255.5" y1="93.1" x2="247.3" y2="131.7" stroke="rgb(0,0,0)"  stroke-width="1.0"/>
<line x1="247.3" y1="131.7" x2="276.7" y2="158.0" stroke="rgb(0,0,0)"  stroke-width="1.0"/>
<line x1="256.6" y1="130.3" x2="277.0" y2="148.7" stroke="rgb(0,0,0)"  stroke-width="1.0"/>
<line x1="322.2" y1="107.7" x2="359.3" y2="95.1" stroke="rgb(0,0,0)"  stroke-width="1.0"/>
<line x1="330.2" y1="112.6" x2="356.0" y2="103.9" stroke="rgb(0,0,0)"  stroke-width="1.0"/>
<line x1="359.3" y1="95.1" x2="388.7" y2="121.5" stroke="rgb(0,0,0)"  stroke-width="1.0"/>
<line x1="388.7" y1="121.5" x2="380.7" y2="159.8" stroke="rgb(0,0,0)"  stroke-width="1.0"/>
<line x1="380.4" y1="125.9" x2="374.9" y2="152.5" stroke="rgb(0,0,0)"  stroke-width="1.0"/>
<line x1="380.7" y1="159.8" x2="343.2" y2="172.8" stroke="rgb(0,0,0)"  stroke-width="1.0"/>
<line x1="343.2" y1="172.8" x2="313.8" y2="146.0" stroke="rgb(0,0,0)"  stroke-width="1.0"/>
<line x1="343.6" y1="163.4" x2="323.1" y2="144.8" stroke="rgb(0,0,0)"  stroke-width="1.0"/>
<text x="147.037271" y="221.547681" fill="rgb(12,12,255)"  stroke="rgb(12,12,255)" stroke-width="1" font-size="16" >N</text>
<text x="198.559613" y="259.293739" fill="rgb(178,178,0)"  stroke="rgb(178,178,0)" stroke-width="1" font-size="16" >S</text>
<text x="190.973090" y="48.000000" fill="rgb(102,102,102)"  stroke="rgb(102,102,102)" stroke-width="1" font-size="16" >CH</text>
<text x="135.853608" y="291.251846" fill="rgb(255,12,12)"  stroke="rgb(255,12,12)" stroke-width="1" font-size="16" >O</text>
<text x="178.789690" y="158.841676" fill="rgb(255,12,12)"  stroke="rgb(255,12,12)" stroke-width="1" font-size="16" >O</text>
<text x="88.320649" y="274.476351" fill="rgb(255,12,12)"  stroke="rgb(255,12,12)" stroke-width="1" font-size="16" >O</text>
<text x="42.385356" y="223.547155" fill="rgb(255,12,12)"  stroke="rgb(255,12,12)" stroke-width="1" font-size="16" >O</text>
<text x="203.558299" y="151.652179" fill="rgb(255,12,12)"  stroke="rgb(255,12,12)" stroke-width="1" font-size="16" >O</text>
<text x="14.000000" y="185.203168" fill="rgb(102,102,102)"  stroke="rgb(102,102,102)" stroke-width="1" font-size="16" >H</text>
<text x="26.000000" y="188.883168" fill="rgb(102,102,102)"  stroke="rgb(102,102,102)" stroke-width="1" font-size="13" >3</text>
<text x="32.500000" y="185.203168" fill="rgb(102,102,102)"  stroke="rgb(102,102,102)" stroke-width="1" font-size="16" >C</text>
<text font-size="18.000000" fill ="black" font-family="sans-serif"
x="10.000000" y="20.000000" ></text>
<title> - OBDepict</title>
</svg>
