<?xml version="1.0"?>
<svg xmlns="http://www.w3.org/2000/svg"
xmlns:xlink="http://www.w3.org/1999/xlink" xmlns:cml="http://www.xml-cml.org/schema" width="389.415" height="399.92" x="0" y="0" font-family="sans-serif" stroke="rgb(0,0,0)" stroke-width="1"  stroke-linecap="round">
<rect x="0%" y="0%" width="100%" height="100%" stroke-width="0" fill="rgb(255,255,255)"  />
<line x1="155.1" y1="246.4" x2="178.4" y2="259.9" stroke="rgb(0,0,0)"  stroke-width="1.0"/>
<line x1="143.9" y1="319.9" x2="167.2" y2="306.4" stroke="rgb(0,0,0)"  stroke-width="1.0"/>
<line x1="74.6" y1="79.8" x2="74.6" y2="119.8" stroke="rgb(0,0,0)"  stroke-width="1.0"/>
<line x1="210.2" y1="346.9" x2="210.2" y2="319.9" stroke="rgb(0,0,0)"  stroke-width="1.0"/>
<line x1="216.2" y1="346.9" x2="216.2" y2="319.9" stroke="rgb(0,0,0)"  stroke-width="1.0"/>
<line x1="74.6" y1="53.0" x2="74.6" y2="79.8" stroke="rgb(0,0,0)"  stroke-width="1.0"/>
<line x1="78.8" y1="53.0" x2="78.8" y2="79.8" stroke="rgb(0,0,0)"  stroke-width="1.0"/>
<line x1="70.4" y1="53.0" x2="70.4" y2="79.8" stroke="rgb(0,0,0)"  stroke-width="1.0"/>
<line x1="109.1" y1="179.9" x2="143.9" y2="199.9" stroke="rgb(0,0,0)"  stroke-width="1.0"/>
<line x1="84.3" y1="190.7" x2="107.6" y2="177.3" stroke="rgb(0,0,0)"  stroke-width="1.0"/>
<line x1="87.3" y1="195.9" x2="110.6" y2="182.4" stroke="rgb(0,0,0)"  stroke-width="1.0"/>
<line x1="143.9" y1="199.9" x2="143.9" y2="226.9" stroke="rgb(0,0,0)"  stroke-width="1.0"/>
<line x1="109.1" y1="152.8" x2="109.1" y2="179.9" stroke="rgb(0,0,0)"  stroke-width="1.0"/>
<line x1="109.1" y1="299.9" x2="143.9" y2="319.9" stroke="rgb(0,0,0)"  stroke-width="1.0"/>
<line x1="294.3" y1="338.1" x2="286.0" y2="312.2" stroke="rgb(0,0,0)"  stroke-width="1.0"/>
<line x1="336.4" y1="279.9" x2="309.4" y2="279.9" stroke="rgb(0,0,0)"  stroke-width="1.0"/>
<line x1="74.6" y1="119.8" x2="97.9" y2="133.3" stroke="rgb(0,0,0)"  stroke-width="1.0"/>
<line x1="293.6" y1="258.1" x2="309.4" y2="279.9" stroke="rgb(0,0,0)"  stroke-width="1.0"/>
<line x1="309.4" y1="279.9" x2="286.0" y2="312.2" stroke="rgb(0,0,0)"  stroke-width="1.0"/>
<line x1="300.0" y1="280.5" x2="283.6" y2="303.1" stroke="rgb(0,0,0)"  stroke-width="1.0"/>
<line x1="286.0" y1="312.2" x2="247.8" y2="299.9" stroke="rgb(0,0,0)"  stroke-width="1.0"/>
<line x1="247.8" y1="299.9" x2="247.8" y2="259.9" stroke="rgb(0,0,0)"  stroke-width="1.0"/>
<line x1="255.0" y1="293.9" x2="255.0" y2="265.9" stroke="rgb(0,0,0)"  stroke-width="1.0"/>
<line x1="247.8" y1="259.9" x2="273.6" y2="251.5" stroke="rgb(0,0,0)"  stroke-width="1.0"/>
<line x1="178.4" y1="286.9" x2="178.4" y2="259.9" stroke="rgb(0,0,0)"  stroke-width="1.0"/>
<line x1="178.4" y1="259.9" x2="201.7" y2="246.5" stroke="rgb(0,0,0)"  stroke-width="1.0"/>
<line x1="187.2" y1="263.1" x2="203.6" y2="253.7" stroke="rgb(0,0,0)"  stroke-width="1.0"/>
<line x1="224.4" y1="246.4" x2="247.8" y2="259.9" stroke="rgb(0,0,0)"  stroke-width="1.0"/>
<line x1="247.8" y1="299.9" x2="213.2" y2="319.9" stroke="rgb(0,0,0)"  stroke-width="1.0"/>
<line x1="213.2" y1="319.9" x2="189.7" y2="306.4" stroke="rgb(0,0,0)"  stroke-width="1.0"/>
<line x1="109.1" y1="299.9" x2="74.6" y2="319.9" stroke="rgb(0,0,0)"  stroke-width="1.0"/>
<line x1="100.3" y1="296.7" x2="76.1" y2="310.7" stroke="rgb(0,0,0)"  stroke-width="1.0"/>
<line x1="74.6" y1="319.9" x2="40.0" y2="299.9" stroke="rgb(0,0,0)"  stroke-width="1.0"/>
<line x1="40.0" y1="299.9" x2="40.0" y2="259.9" stroke="rgb(0,0,0)"  stroke-width="1.0"/>
<line x1="47.2" y1="293.9" x2="47.2" y2="265.9" stroke="rgb(0,0,0)"  stroke-width="1.0"/>
<line x1="40.0" y1="259.9" x2="74.6" y2="239.9" stroke="rgb(0,0,0)"  stroke-width="1.0"/>
<line x1="74.6" y1="239.9" x2="109.1" y2="259.9" stroke="rgb(0,0,0)"  stroke-width="1.0"/>
<line x1="76.1" y1="249.1" x2="100.3" y2="263.1" stroke="rgb(0,0,0)"  stroke-width="1.0"/>
<line x1="109.1" y1="259.9" x2="109.1" y2="299.9" stroke="rgb(0,0,0)"  stroke-width="1.0"/>
<text x="172.439133" y="307.897136" fill="rgb(12,12,255)"  stroke="rgb(12,12,255)" stroke-width="1" font-size="16" >N</text>
<text x="207.196852" y="247.873863" fill="rgb(12,12,255)"  stroke="rgb(12,12,255)" stroke-width="1" font-size="16" >N</text>
<text x="279.952335" y="255.556842" fill="rgb(178,178,0)"  stroke="rgb(178,178,0)" stroke-width="1" font-size="16" >S</text>
<text x="137.880279" y="247.873863" fill="rgb(178,178,0)"  stroke="rgb(178,178,0)" stroke-width="1" font-size="16" >S</text>
<text x="207.196852" y="367.920410" fill="rgb(255,12,12)"  stroke="rgb(255,12,12)" stroke-width="1" font-size="16" >O</text>
<text x="68.558854" y="48.000000" fill="rgb(102,102,102)"  stroke="rgb(102,102,102)" stroke-width="1" font-size="16" >CH</text>
<text x="68.558854" y="207.858347" fill="rgb(255,12,12)"  stroke="rgb(255,12,12)" stroke-width="1" font-size="16" >O</text>
<text x="103.117709" y="147.835074" fill="rgb(12,12,255)"  stroke="rgb(12,12,255)" stroke-width="1" font-size="16" >NH</text>
<text x="294.281964" y="358.423394" fill="rgb(102,102,102)"  stroke="rgb(102,102,102)" stroke-width="1" font-size="16" >CH</text>
<text x="318.281964" y="362.103394" fill="rgb(102,102,102)"  stroke="rgb(102,102,102)" stroke-width="1" font-size="13" >3</text>
<text x="345.414518" y="287.889378" fill="rgb(102,102,102)"  stroke="rgb(102,102,102)" stroke-width="1" font-size="16" >CH</text>
<text x="369.414518" y="291.569378" fill="rgb(102,102,102)"  stroke="rgb(102,102,102)" stroke-width="1" font-size="13" >3</text>
<text font-size="18.000000" fill ="black" font-family="sans-serif"
x="10.000000" y="20.000000" ></text>
<title> - OBDepict</title>
</svg>
