<?xml version="1.0"?>
<svg xmlns="http://www.w3.org/2000/svg"
xmlns:xlink="http://www.w3.org/1999/xlink" xmlns:cml="http://www.xml-cml.org/schema" width="486.462" height="379.999" x="0" y="0" font-family="sans-serif" stroke="rgb(0,0,0)" stroke-width="1"  stroke-linecap="round">
<rect x="0%" y="0%" width="100%" height="100%" stroke-width="0" fill="rgb(255,255,255)"  />
<line x1="213.1" y1="300.0" x2="178.6" y2="280.0" stroke="rgb(0,0,0)"  stroke-width="1.0"/>
<line x1="351.7" y1="180.0" x2="351.7" y2="220.0" stroke="rgb(0,0,0)"  stroke-width="1.0"/>
<line x1="386.5" y1="80.0" x2="386.5" y2="120.0" stroke="rgb(0,0,0)"  stroke-width="1.0"/>
<line x1="386.5" y1="53.0" x2="386.5" y2="80.0" stroke="rgb(0,0,0)"  stroke-width="1.0"/>
<line x1="390.7" y1="53.0" x2="390.7" y2="80.0" stroke="rgb(0,0,0)"  stroke-width="1.0"/>
<line x1="382.3" y1="53.0" x2="382.3" y2="80.0" stroke="rgb(0,0,0)"  stroke-width="1.0"/>
<line x1="375.2" y1="166.5" x2="351.7" y2="180.0" stroke="rgb(0,0,0)"  stroke-width="1.0"/>
<line x1="386.5" y1="120.0" x2="386.5" y2="147.0" stroke="rgb(0,0,0)"  stroke-width="1.0"/>
<line x1="247.9" y1="280.0" x2="213.1" y2="300.0" stroke="rgb(0,0,0)"  stroke-width="1.0"/>
<line x1="351.7" y1="220.0" x2="328.4" y2="233.5" stroke="rgb(0,0,0)"  stroke-width="1.0"/>
<line x1="210.1" y1="327.0" x2="210.1" y2="300.0" stroke="rgb(0,0,0)"  stroke-width="1.0"/>
<line x1="216.1" y1="327.0" x2="216.1" y2="300.0" stroke="rgb(0,0,0)"  stroke-width="1.0"/>
<line x1="329.9" y1="163.9" x2="353.2" y2="177.4" stroke="rgb(0,0,0)"  stroke-width="1.0"/>
<line x1="326.9" y1="169.1" x2="350.2" y2="182.6" stroke="rgb(0,0,0)"  stroke-width="1.0"/>
<line x1="346.5" y1="120.0" x2="386.5" y2="120.0" stroke="rgb(0,0,0)"  stroke-width="1.0"/>
<line x1="426.5" y1="120.0" x2="386.5" y2="120.0" stroke="rgb(0,0,0)"  stroke-width="1.0"/>
<line x1="333.0" y1="96.7" x2="346.5" y2="120.0" stroke="rgb(0,0,0)"  stroke-width="1.0"/>
<line x1="440.0" y1="143.5" x2="426.5" y2="120.0" stroke="rgb(0,0,0)"  stroke-width="1.0"/>
<line x1="247.9" y1="280.0" x2="247.9" y2="240.0" stroke="rgb(0,0,0)"  stroke-width="1.0"/>
<line x1="247.9" y1="240.0" x2="282.4" y2="220.0" stroke="rgb(0,0,0)"  stroke-width="1.0"/>
<line x1="282.4" y1="220.0" x2="305.9" y2="233.5" stroke="rgb(0,0,0)"  stroke-width="1.0"/>
<line x1="317.2" y1="253.0" x2="317.2" y2="280.0" stroke="rgb(0,0,0)"  stroke-width="1.0"/>
<line x1="317.2" y1="280.0" x2="282.4" y2="300.0" stroke="rgb(0,0,0)"  stroke-width="1.0"/>
<line x1="282.4" y1="300.0" x2="247.9" y2="280.0" stroke="rgb(0,0,0)"  stroke-width="1.0"/>
<line x1="178.6" y1="280.0" x2="143.8" y2="300.0" stroke="rgb(0,0,0)"  stroke-width="1.0"/>
<line x1="169.8" y1="276.8" x2="145.4" y2="290.8" stroke="rgb(0,0,0)"  stroke-width="1.0"/>
<line x1="143.8" y1="300.0" x2="109.3" y2="280.0" stroke="rgb(0,0,0)"  stroke-width="1.0"/>
<line x1="109.3" y1="280.0" x2="109.3" y2="240.0" stroke="rgb(0,0,0)"  stroke-width="1.0"/>
<line x1="116.5" y1="274.0" x2="116.5" y2="246.0" stroke="rgb(0,0,0)"  stroke-width="1.0"/>
<line x1="109.3" y1="240.0" x2="143.8" y2="220.0" stroke="rgb(0,0,0)"  stroke-width="1.0"/>
<line x1="143.8" y1="220.0" x2="178.6" y2="240.0" stroke="rgb(0,0,0)"  stroke-width="1.0"/>
<line x1="145.4" y1="229.2" x2="169.8" y2="243.2" stroke="rgb(0,0,0)"  stroke-width="1.0"/>
<line x1="178.6" y1="240.0" x2="178.6" y2="280.0" stroke="rgb(0,0,0)"  stroke-width="1.0"/>
<line x1="85.8" y1="226.5" x2="109.3" y2="240.0" stroke="rgb(0,0,0)"  stroke-width="1.0"/>
<line x1="109.3" y1="280.0" x2="85.8" y2="293.5" stroke="rgb(0,0,0)"  stroke-width="1.0"/>
<line x1="63.3" y1="293.5" x2="40.0" y2="280.0" stroke="rgb(0,0,0)"  stroke-width="1.0"/>
<line x1="40.0" y1="280.0" x2="40.0" y2="240.0" stroke="rgb(0,0,0)"  stroke-width="1.0"/>
<line x1="40.0" y1="240.0" x2="63.3" y2="226.5" stroke="rgb(0,0,0)"  stroke-width="1.0"/>
<text x="311.172712" y="247.999552" fill="rgb(12,12,255)"  stroke="rgb(12,12,255)" stroke-width="1" font-size="16" >N</text>
<text x="380.462254" y="48.000000" fill="rgb(102,102,102)"  stroke="rgb(102,102,102)" stroke-width="1" font-size="16" >CH</text>
<text x="380.462254" y="167.999731" fill="rgb(12,12,255)"  stroke="rgb(12,12,255)" stroke-width="1" font-size="16" >NH</text>
<text x="68.545377" y="307.999417" fill="rgb(255,12,12)"  stroke="rgb(255,12,12)" stroke-width="1" font-size="16" >O</text>
<text x="68.545377" y="227.999597" fill="rgb(255,12,12)"  stroke="rgb(255,12,12)" stroke-width="1" font-size="16" >O</text>
<text x="207.129309" y="347.999328" fill="rgb(255,12,12)"  stroke="rgb(255,12,12)" stroke-width="1" font-size="16" >O</text>
<text x="311.172712" y="167.999731" fill="rgb(255,12,12)"  stroke="rgb(255,12,12)" stroke-width="1" font-size="16" >O</text>
<text x="300.462388" y="93.454444" fill="rgb(102,102,102)"  stroke="rgb(102,102,102)" stroke-width="1" font-size="16" >H</text>
<text x="312.462388" y="97.134444" fill="rgb(102,102,102)"  stroke="rgb(102,102,102)" stroke-width="1" font-size="13" >3</text>
<text x="318.962388" y="93.454444" fill="rgb(102,102,102)"  stroke="rgb(102,102,102)" stroke-width="1" font-size="16" >C</text>
<text x="442.462119" y="162.748834" fill="rgb(102,102,102)"  stroke="rgb(102,102,102)" stroke-width="1" font-size="16" >CH</text>
<text x="466.462119" y="166.428834" fill="rgb(102,102,102)"  stroke="rgb(102,102,102)" stroke-width="1" font-size="13" >3</text>
<text font-size="18.000000" fill ="black" font-family="sans-serif"
x="10.000000" y="20.000000" ></text>
<title> - OBDepict</title>
</svg>
