<?xml version="1.0"?>
<svg xmlns="http://www.w3.org/2000/svg"
xmlns:xlink="http://www.w3.org/1999/xlink" xmlns:cml="http://www.xml-cml.org/schema" width="519.548" height="287.677" x="0" y="0" font-family="sans-serif" stroke="rgb(0,0,0)" stroke-width="1"  stroke-linecap="round">
<rect x="0%" y="0%" width="100%" height="100%" stroke-width="0" fill="rgb(255,255,255)"  />
<line x1="79.6" y1="74.5" x2="119.9" y2="74.5" stroke="rgb(0,0,0)"  stroke-width="1.0"/>
<line x1="53.0" y1="74.5" x2="79.6" y2="74.5" stroke="rgb(0,0,0)"  stroke-width="1.0"/>
<line x1="53.0" y1="70.3" x2="79.6" y2="70.3" stroke="rgb(0,0,0)"  stroke-width="1.0"/>
<line x1="53.0" y1="78.7" x2="79.6" y2="78.7" stroke="rgb(0,0,0)"  stroke-width="1.0"/>
<line x1="297.2" y1="107.8" x2="317.0" y2="73.0" stroke="rgb(0,0,0)"  stroke-width="1.0"/>
<line x1="302.4" y1="110.8" x2="322.3" y2="76.0" stroke="rgb(0,0,0)"  stroke-width="1.0"/>
<line x1="319.6" y1="74.5" x2="359.8" y2="74.5" stroke="rgb(0,0,0)"  stroke-width="1.0"/>
<line x1="259.6" y1="109.3" x2="299.8" y2="109.3" stroke="rgb(0,0,0)"  stroke-width="1.0"/>
<line x1="186.5" y1="166.7" x2="199.9" y2="143.9" stroke="rgb(0,0,0)"  stroke-width="1.0"/>
<line x1="466.5" y1="74.5" x2="452.7" y2="74.5" stroke="rgb(0,0,0)"  stroke-width="1.0"/>
<line x1="152.9" y1="109.3" x2="179.9" y2="109.3" stroke="rgb(0,0,0)"  stroke-width="1.0"/>
<line x1="119.9" y1="74.5" x2="133.4" y2="98.0" stroke="rgb(0,0,0)"  stroke-width="1.0"/>
<line x1="199.9" y1="212.9" x2="186.4" y2="189.2" stroke="rgb(0,0,0)"  stroke-width="1.0"/>
<line x1="186.4" y1="236.4" x2="199.9" y2="212.9" stroke="rgb(0,0,0)"  stroke-width="1.0"/>
<line x1="199.9" y1="143.9" x2="179.9" y2="109.3" stroke="rgb(0,0,0)"  stroke-width="1.0"/>
<line x1="203.1" y1="135.1" x2="189.1" y2="110.9" stroke="rgb(0,0,0)"  stroke-width="1.0"/>
<line x1="179.9" y1="109.3" x2="199.9" y2="74.5" stroke="rgb(0,0,0)"  stroke-width="1.0"/>
<line x1="199.9" y1="74.5" x2="239.8" y2="74.5" stroke="rgb(0,0,0)"  stroke-width="1.0"/>
<line x1="205.9" y1="81.7" x2="233.8" y2="81.7" stroke="rgb(0,0,0)"  stroke-width="1.0"/>
<line x1="239.8" y1="74.5" x2="259.6" y2="109.3" stroke="rgb(0,0,0)"  stroke-width="1.0"/>
<line x1="259.6" y1="109.3" x2="239.8" y2="143.9" stroke="rgb(0,0,0)"  stroke-width="1.0"/>
<line x1="250.4" y1="110.9" x2="236.5" y2="135.1" stroke="rgb(0,0,0)"  stroke-width="1.0"/>
<line x1="239.8" y1="143.9" x2="199.9" y2="143.9" stroke="rgb(0,0,0)"  stroke-width="1.0"/>
<line x1="433.2" y1="63.2" x2="419.8" y2="40.0" stroke="rgb(0,0,0)"  stroke-width="1.0"/>
<line x1="419.8" y1="40.0" x2="379.7" y2="40.0" stroke="rgb(0,0,0)"  stroke-width="1.0"/>
<line x1="413.8" y1="47.2" x2="385.7" y2="47.2" stroke="rgb(0,0,0)"  stroke-width="1.0"/>
<line x1="379.7" y1="40.0" x2="359.8" y2="74.5" stroke="rgb(0,0,0)"  stroke-width="1.0"/>
<line x1="359.8" y1="74.5" x2="379.7" y2="109.3" stroke="rgb(0,0,0)"  stroke-width="1.0"/>
<line x1="369.0" y1="76.1" x2="382.9" y2="100.5" stroke="rgb(0,0,0)"  stroke-width="1.0"/>
<line x1="379.7" y1="109.3" x2="419.8" y2="109.3" stroke="rgb(0,0,0)"  stroke-width="1.0"/>
<line x1="419.8" y1="109.3" x2="433.1" y2="86.0" stroke="rgb(0,0,0)"  stroke-width="1.0"/>
<line x1="416.5" y1="100.5" x2="425.9" y2="84.1" stroke="rgb(0,0,0)"  stroke-width="1.0"/>
<text x="444.482082" y="70.454660" fill="rgb(12,12,255)"  stroke="rgb(12,12,255)" stroke-width="1" font-size="16" >+</text>
<text x="433.682082" y="82.486660" fill="rgb(12,12,255)"  stroke="rgb(12,12,255)" stroke-width="1" font-size="16" >N</text>
<text x="22.000000" y="82.486660" fill="rgb(102,102,102)"  stroke="rgb(102,102,102)" stroke-width="1" font-size="16" >HC</text>
<text x="173.898439" y="185.951494" fill="rgb(255,12,12)"  stroke="rgb(255,12,12)" stroke-width="1" font-size="16" >O</text>
<text x="475.548330" y="82.486660" fill="rgb(102,102,102)"  stroke="rgb(102,102,102)" stroke-width="1" font-size="16" >CH</text>
<text x="499.548330" y="86.166660" fill="rgb(102,102,102)"  stroke="rgb(102,102,102)" stroke-width="1" font-size="13" >3</text>
<text x="133.881679" y="117.274343" fill="rgb(255,12,12)"  stroke="rgb(255,12,12)" stroke-width="1" font-size="16" >O</text>
<text x="153.898439" y="255.677373" fill="rgb(102,102,102)"  stroke="rgb(102,102,102)" stroke-width="1" font-size="16" >H</text>
<text x="165.898439" y="259.357373" fill="rgb(102,102,102)"  stroke="rgb(102,102,102)" stroke-width="1" font-size="13" >3</text>
<text x="172.398439" y="255.677373" fill="rgb(102,102,102)"  stroke="rgb(102,102,102)" stroke-width="1" font-size="16" >C</text>
<text font-size="18.000000" fill ="black" font-family="sans-serif"
x="10.000000" y="20.000000" ></text>
<title> - OBDepict</title>
</svg>
