<?xml version="1.0"?>
<svg xmlns="http://www.w3.org/2000/svg"
xmlns:xlink="http://www.w3.org/1999/xlink" xmlns:cml="http://www.xml-cml.org/schema" width="356.826" height="340.254" x="0" y="0" font-family="sans-serif" stroke="rgb(0,0,0)" stroke-width="1"  stroke-linecap="round">
<rect x="0%" y="0%" width="100%" height="100%" stroke-width="0" fill="rgb(255,255,255)"  />
<line x1="247.7" y1="220.0" x2="247.7" y2="180.0" stroke="rgb(0,0,0)"  stroke-width="1.0"/>
<line x1="175.5" y1="219.7" x2="175.5" y2="192.5" stroke="rgb(0,0,0)"  stroke-width="1.0"/>
<line x1="181.5" y1="219.7" x2="181.5" y2="192.5" stroke="rgb(0,0,0)"  stroke-width="1.0"/>
<line x1="283.7" y1="277.1" x2="307.1" y2="290.6" stroke="rgb(0,0,0)"  stroke-width="1.0"/>
<line x1="280.7" y1="282.2" x2="304.1" y2="295.8" stroke="rgb(0,0,0)"  stroke-width="1.0"/>
<line x1="282.0" y1="119.9" x2="305.6" y2="106.3" stroke="rgb(0,0,0)"  stroke-width="1.0"/>
<line x1="212.5" y1="120.6" x2="189.1" y2="107.0" stroke="rgb(0,0,0)"  stroke-width="1.0"/>
<line x1="144.2" y1="280.2" x2="120.4" y2="293.8" stroke="rgb(0,0,0)"  stroke-width="1.0"/>
<line x1="247.5" y1="100.0" x2="247.2" y2="72.9" stroke="rgb(0,0,0)"  stroke-width="1.0"/>
<line x1="316.6" y1="86.8" x2="316.4" y2="72.4" stroke="rgb(0,0,0)"  stroke-width="1.0"/>
<line x1="166.6" y1="107.0" x2="154.4" y2="114.0" stroke="rgb(0,0,0)"  stroke-width="1.0"/>
<line x1="97.9" y1="293.7" x2="74.7" y2="280.2" stroke="rgb(0,0,0)"  stroke-width="1.0"/>
<line x1="235.7" y1="53.4" x2="223.7" y2="46.5" stroke="rgb(0,0,0)"  stroke-width="1.0"/>
<line x1="74.7" y1="280.2" x2="74.7" y2="240.1" stroke="rgb(0,0,0)"  stroke-width="1.0"/>
<line x1="74.7" y1="240.1" x2="51.2" y2="226.6" stroke="rgb(0,0,0)"  stroke-width="1.0"/>
<line x1="72.6" y1="243.8" x2="49.1" y2="230.2" stroke="rgb(0,0,0)"  stroke-width="1.0"/>
<line x1="76.8" y1="236.5" x2="53.4" y2="222.9" stroke="rgb(0,0,0)"  stroke-width="1.0"/>
<line x1="247.7" y1="220.0" x2="282.2" y2="239.6" stroke="rgb(0,0,0)"  stroke-width="1.0"/>
<line x1="282.2" y1="239.6" x2="282.2" y2="279.7" stroke="rgb(0,0,0)"  stroke-width="1.0"/>
<line x1="282.2" y1="279.7" x2="258.9" y2="293.2" stroke="rgb(0,0,0)"  stroke-width="1.0"/>
<line x1="236.4" y1="293.2" x2="213.0" y2="279.7" stroke="rgb(0,0,0)"  stroke-width="1.0"/>
<line x1="213.0" y1="279.7" x2="213.0" y2="240.1" stroke="rgb(0,0,0)"  stroke-width="1.0"/>
<line x1="220.2" y1="273.7" x2="220.2" y2="246.1" stroke="rgb(0,0,0)"  stroke-width="1.0"/>
<line x1="213.0" y1="240.1" x2="247.7" y2="220.0" stroke="rgb(0,0,0)"  stroke-width="1.0"/>
<line x1="213.0" y1="240.1" x2="178.5" y2="219.7" stroke="rgb(0,0,0)"  stroke-width="1.0"/>
<line x1="178.5" y1="219.7" x2="155.3" y2="233.5" stroke="rgb(0,0,0)"  stroke-width="1.0"/>
<line x1="144.2" y1="253.1" x2="144.2" y2="280.2" stroke="rgb(0,0,0)"  stroke-width="1.0"/>
<line x1="144.2" y1="280.2" x2="167.2" y2="293.3" stroke="rgb(0,0,0)"  stroke-width="1.0"/>
<line x1="152.9" y1="276.9" x2="169.0" y2="286.0" stroke="rgb(0,0,0)"  stroke-width="1.0"/>
<line x1="189.7" y1="293.2" x2="213.0" y2="279.7" stroke="rgb(0,0,0)"  stroke-width="1.0"/>
<line x1="247.7" y1="180.0" x2="213.0" y2="160.1" stroke="rgb(0,0,0)"  stroke-width="1.0"/>
<line x1="213.0" y1="160.1" x2="212.5" y2="120.6" stroke="rgb(0,0,0)"  stroke-width="1.0"/>
<line x1="220.1" y1="154.0" x2="219.8" y2="126.5" stroke="rgb(0,0,0)"  stroke-width="1.0"/>
<line x1="212.5" y1="120.6" x2="247.5" y2="100.0" stroke="rgb(0,0,0)"  stroke-width="1.0"/>
<line x1="247.5" y1="100.0" x2="282.0" y2="119.9" stroke="rgb(0,0,0)"  stroke-width="1.0"/>
<line x1="249.1" y1="109.2" x2="273.2" y2="123.1" stroke="rgb(0,0,0)"  stroke-width="1.0"/>
<line x1="282.0" y1="119.9" x2="282.2" y2="159.9" stroke="rgb(0,0,0)"  stroke-width="1.0"/>
<line x1="282.2" y1="159.9" x2="247.7" y2="180.0" stroke="rgb(0,0,0)"  stroke-width="1.0"/>
<line x1="273.4" y1="156.7" x2="249.2" y2="170.8" stroke="rgb(0,0,0)"  stroke-width="1.0"/>
<text x="172.495674" y="307.749732" fill="rgb(12,12,255)"  stroke="rgb(12,12,255)" stroke-width="1" font-size="16" >N</text>
<text x="241.661038" y="307.749732" fill="rgb(12,12,255)"  stroke="rgb(12,12,255)" stroke-width="1" font-size="16" >N</text>
<text x="241.661038" y="323.749732" fill="rgb(12,12,255)"  stroke="rgb(12,12,255)" stroke-width="1" font-size="16" >H</text>
<text x="126.167686" y="248.126928" fill="rgb(12,12,255)"  stroke="rgb(12,12,255)" stroke-width="1" font-size="16" >HN</text>
<text x="172.495674" y="187.509601" fill="rgb(255,12,12)"  stroke="rgb(255,12,12)" stroke-width="1" font-size="16" >O</text>
<text x="310.826402" y="307.749732" fill="rgb(255,12,12)"  stroke="rgb(255,12,12)" stroke-width="1" font-size="16" >O</text>
<text x="310.826402" y="107.792601" fill="rgb(255,12,12)"  stroke="rgb(255,12,12)" stroke-width="1" font-size="16" >O</text>
<text x="171.826191" y="108.462084" fill="rgb(255,12,12)"  stroke="rgb(255,12,12)" stroke-width="1" font-size="16" >O</text>
<text x="103.165364" y="308.254270" fill="rgb(178,178,0)"  stroke="rgb(178,178,0)" stroke-width="1" font-size="16" >S</text>
<text x="240.991555" y="67.934101" fill="rgb(255,12,12)"  stroke="rgb(255,12,12)" stroke-width="1" font-size="16" >O</text>
<text x="290.156919" y="67.429563" fill="rgb(102,102,102)"  stroke="rgb(102,102,102)" stroke-width="1" font-size="16" >H</text>
<text x="302.156919" y="71.109563" fill="rgb(102,102,102)"  stroke="rgb(102,102,102)" stroke-width="1" font-size="13" >3</text>
<text x="308.656919" y="67.429563" fill="rgb(102,102,102)"  stroke="rgb(102,102,102)" stroke-width="1" font-size="16" >C</text>
<text x="117.158610" y="128.556279" fill="rgb(102,102,102)"  stroke="rgb(102,102,102)" stroke-width="1" font-size="16" >H</text>
<text x="129.158610" y="132.236279" fill="rgb(102,102,102)"  stroke="rgb(102,102,102)" stroke-width="1" font-size="13" >3</text>
<text x="135.658610" y="128.556279" fill="rgb(102,102,102)"  stroke="rgb(102,102,102)" stroke-width="1" font-size="16" >C</text>
<text x="186.493771" y="48.000000" fill="rgb(102,102,102)"  stroke="rgb(102,102,102)" stroke-width="1" font-size="16" >H</text>
<text x="198.493771" y="51.680000" fill="rgb(102,102,102)"  stroke="rgb(102,102,102)" stroke-width="1" font-size="13" >3</text>
<text x="204.993771" y="48.000000" fill="rgb(102,102,102)"  stroke="rgb(102,102,102)" stroke-width="1" font-size="16" >C</text>
<text x="22.000000" y="228.032733" fill="rgb(102,102,102)"  stroke="rgb(102,102,102)" stroke-width="1" font-size="16" >HC</text>
<text font-size="18.000000" fill ="black" font-family="sans-serif"
x="10.000000" y="20.000000" ></text>
<title> - OBDepict</title>
</svg>
