<?xml version="1.0"?>
<svg xmlns="http://www.w3.org/2000/svg"
xmlns:xlink="http://www.w3.org/1999/xlink" xmlns:cml="http://www.xml-cml.org/schema" width="437.633" height="357.124" x="0" y="0" font-family="sans-serif" stroke="rgb(0,0,0)" stroke-width="1"  stroke-linecap="round">
<rect x="0%" y="0%" width="100%" height="100%" stroke-width="0" fill="rgb(255,255,255)"  />
<line x1="260.2" y1="248.0" x2="280.2" y2="213.3" stroke="rgb(0,0,0)"  stroke-width="1.0"/>
<line x1="220.2" y1="245.0" x2="260.2" y2="245.0" stroke="rgb(0,0,0)"  stroke-width="1.0"/>
<line x1="220.2" y1="251.0" x2="260.2" y2="251.0" stroke="rgb(0,0,0)"  stroke-width="1.0"/>
<line x1="280.2" y1="282.7" x2="260.2" y2="248.0" stroke="rgb(0,0,0)"  stroke-width="1.0"/>
<line x1="200.1" y1="213.3" x2="220.2" y2="248.0" stroke="rgb(0,0,0)"  stroke-width="1.0"/>
<line x1="293.7" y1="305.9" x2="280.2" y2="282.7" stroke="rgb(0,0,0)"  stroke-width="1.0"/>
<line x1="290.1" y1="308.0" x2="276.6" y2="284.8" stroke="rgb(0,0,0)"  stroke-width="1.0"/>
<line x1="297.3" y1="303.8" x2="283.8" y2="280.5" stroke="rgb(0,0,0)"  stroke-width="1.0"/>
<line x1="80.0" y1="74.7" x2="100.1" y2="109.2" stroke="rgb(0,0,0)"  stroke-width="1.0"/>
<line x1="66.5" y1="51.3" x2="80.0" y2="74.7" stroke="rgb(0,0,0)"  stroke-width="1.0"/>
<line x1="70.2" y1="49.2" x2="83.7" y2="72.6" stroke="rgb(0,0,0)"  stroke-width="1.0"/>
<line x1="62.9" y1="53.4" x2="76.4" y2="76.8" stroke="rgb(0,0,0)"  stroke-width="1.0"/>
<line x1="80.0" y1="213.3" x2="100.1" y2="178.6" stroke="rgb(0,0,0)"  stroke-width="1.0"/>
<line x1="53.0" y1="210.3" x2="80.0" y2="210.3" stroke="rgb(0,0,0)"  stroke-width="1.0"/>
<line x1="53.0" y1="216.3" x2="80.0" y2="216.3" stroke="rgb(0,0,0)"  stroke-width="1.0"/>
<line x1="213.7" y1="120.4" x2="200.1" y2="143.9" stroke="rgb(0,0,0)"  stroke-width="1.0"/>
<line x1="146.6" y1="120.4" x2="160.1" y2="143.9" stroke="rgb(0,0,0)"  stroke-width="1.0"/>
<line x1="100.1" y1="178.6" x2="140.1" y2="178.6" stroke="rgb(0,0,0)"  stroke-width="1.0"/>
<line x1="100.1" y1="109.2" x2="127.1" y2="109.2" stroke="rgb(0,0,0)"  stroke-width="1.0"/>
<line x1="260.2" y1="109.2" x2="233.2" y2="109.2" stroke="rgb(0,0,0)"  stroke-width="1.0"/>
<line x1="386.3" y1="96.5" x2="362.9" y2="109.8" stroke="rgb(0,0,0)"  stroke-width="1.0"/>
<line x1="273.7" y1="85.9" x2="260.2" y2="109.2" stroke="rgb(0,0,0)"  stroke-width="1.0"/>
<line x1="280.2" y1="213.3" x2="307.0" y2="210.1" stroke="rgb(0,0,0)"  stroke-width="1.0"/>
<line x1="285.3" y1="205.4" x2="304.2" y2="203.2" stroke="rgb(0,0,0)"  stroke-width="1.0"/>
<line x1="322.9" y1="195.9" x2="328.2" y2="169.9" stroke="rgb(0,0,0)"  stroke-width="1.0"/>
<line x1="328.2" y1="169.9" x2="293.5" y2="149.9" stroke="rgb(0,0,0)"  stroke-width="1.0"/>
<line x1="293.5" y1="149.9" x2="273.8" y2="167.8" stroke="rgb(0,0,0)"  stroke-width="1.0"/>
<line x1="269.4" y1="188.5" x2="280.2" y2="213.3" stroke="rgb(0,0,0)"  stroke-width="1.0"/>
<line x1="200.1" y1="143.9" x2="160.1" y2="143.9" stroke="rgb(0,0,0)"  stroke-width="1.0"/>
<line x1="194.1" y1="151.1" x2="166.1" y2="151.1" stroke="rgb(0,0,0)"  stroke-width="1.0"/>
<line x1="160.1" y1="143.9" x2="140.1" y2="178.6" stroke="rgb(0,0,0)"  stroke-width="1.0"/>
<line x1="140.1" y1="178.6" x2="160.1" y2="213.3" stroke="rgb(0,0,0)"  stroke-width="1.0"/>
<line x1="149.3" y1="180.2" x2="163.3" y2="204.5" stroke="rgb(0,0,0)"  stroke-width="1.0"/>
<line x1="160.1" y1="213.3" x2="200.1" y2="213.3" stroke="rgb(0,0,0)"  stroke-width="1.0"/>
<line x1="200.1" y1="213.3" x2="220.2" y2="178.6" stroke="rgb(0,0,0)"  stroke-width="1.0"/>
<line x1="196.9" y1="204.5" x2="210.9" y2="180.2" stroke="rgb(0,0,0)"  stroke-width="1.0"/>
<line x1="220.2" y1="178.6" x2="200.1" y2="143.9" stroke="rgb(0,0,0)"  stroke-width="1.0"/>
<line x1="362.9" y1="149.9" x2="328.2" y2="169.9" stroke="rgb(0,0,0)"  stroke-width="1.0"/>
<line x1="354.1" y1="146.6" x2="329.8" y2="160.7" stroke="rgb(0,0,0)"  stroke-width="1.0"/>
<line x1="293.5" y1="149.9" x2="293.5" y2="109.8" stroke="rgb(0,0,0)"  stroke-width="1.0"/>
<line x1="300.7" y1="143.9" x2="300.7" y2="115.8" stroke="rgb(0,0,0)"  stroke-width="1.0"/>
<line x1="293.5" y1="109.8" x2="328.2" y2="90.0" stroke="rgb(0,0,0)"  stroke-width="1.0"/>
<line x1="328.2" y1="90.0" x2="362.9" y2="109.8" stroke="rgb(0,0,0)"  stroke-width="1.0"/>
<line x1="329.9" y1="99.3" x2="354.2" y2="113.1" stroke="rgb(0,0,0)"  stroke-width="1.0"/>
<line x1="362.9" y1="109.8" x2="362.9" y2="149.9" stroke="rgb(0,0,0)"  stroke-width="1.0"/>
<text x="314.234600" y="216.592047" fill="rgb(12,12,255)"  stroke="rgb(12,12,255)" stroke-width="1" font-size="16" >N</text>
<text x="246.187680" y="184.565236" fill="rgb(12,12,255)"  stroke="rgb(12,12,255)" stroke-width="1" font-size="16" >HN</text>
<text x="294.217843" y="325.124118" fill="rgb(12,12,255)"  stroke="rgb(12,12,255)" stroke-width="1" font-size="16" >N</text>
<text x="42.016757" y="48.000000" fill="rgb(102,102,102)"  stroke="rgb(102,102,102)" stroke-width="1" font-size="16" >HC</text>
<text x="14.000000" y="221.260198" fill="rgb(102,102,102)"  stroke="rgb(102,102,102)" stroke-width="1" font-size="16" >H</text>
<text x="26.000000" y="224.940198" fill="rgb(102,102,102)"  stroke="rgb(102,102,102)" stroke-width="1" font-size="13" >2</text>
<text x="32.500000" y="221.260198" fill="rgb(102,102,102)"  stroke="rgb(102,102,102)" stroke-width="1" font-size="16" >C</text>
<text x="214.150815" y="117.173060" fill="rgb(255,12,12)"  stroke="rgb(255,12,12)" stroke-width="1" font-size="16" >O</text>
<text x="134.083786" y="117.173060" fill="rgb(255,12,12)"  stroke="rgb(255,12,12)" stroke-width="1" font-size="16" >O</text>
<text x="393.632728" y="98.044319" fill="rgb(102,102,102)"  stroke="rgb(102,102,102)" stroke-width="1" font-size="16" >CH</text>
<text x="417.632728" y="101.724319" fill="rgb(102,102,102)"  stroke="rgb(102,102,102)" stroke-width="1" font-size="13" >3</text>
<text x="276.201086" y="82.695712" fill="rgb(102,102,102)"  stroke="rgb(102,102,102)" stroke-width="1" font-size="16" >CH</text>
<text x="300.201086" y="86.375712" fill="rgb(102,102,102)"  stroke="rgb(102,102,102)" stroke-width="1" font-size="13" >3</text>
<text font-size="18.000000" fill ="black" font-family="sans-serif"
x="10.000000" y="20.000000" ></text>
<title> - OBDepict</title>
</svg>
