<?xml version="1.0"?>
<svg xmlns="http://www.w3.org/2000/svg"
xmlns:xlink="http://www.w3.org/1999/xlink" xmlns:cml="http://www.xml-cml.org/schema" width="510.824" height="313.694" x="0" y="0" font-family="sans-serif" stroke="rgb(0,0,0)" stroke-width="1"  stroke-linecap="round">
<rect x="0%" y="0%" width="100%" height="100%" stroke-width="0" fill="rgb(255,255,255)"  />
<line x1="132.9" y1="244.0" x2="159.6" y2="214.3" stroke="rgb(0,0,0)"  stroke-width="1.0"/>
<line x1="114.8" y1="264.1" x2="132.9" y2="244.0" stroke="rgb(0,0,0)"  stroke-width="1.0"/>
<line x1="111.7" y1="261.2" x2="129.8" y2="241.2" stroke="rgb(0,0,0)"  stroke-width="1.0"/>
<line x1="117.9" y1="266.9" x2="136.0" y2="246.8" stroke="rgb(0,0,0)"  stroke-width="1.0"/>
<line x1="197.9" y1="144.0" x2="170.9" y2="144.0" stroke="rgb(0,0,0)"  stroke-width="1.0"/>
<line x1="159.6" y1="214.3" x2="151.3" y2="188.7" stroke="rgb(0,0,0)"  stroke-width="1.0"/>
<line x1="330.9" y1="74.7" x2="303.9" y2="74.7" stroke="rgb(0,0,0)"  stroke-width="1.0"/>
<line x1="437.8" y1="74.7" x2="410.8" y2="74.7" stroke="rgb(0,0,0)"  stroke-width="1.0"/>
<line x1="284.3" y1="86.0" x2="270.9" y2="109.3" stroke="rgb(0,0,0)"  stroke-width="1.0"/>
<line x1="230.9" y1="109.3" x2="217.4" y2="132.8" stroke="rgb(0,0,0)"  stroke-width="1.0"/>
<line x1="270.9" y1="109.3" x2="230.9" y2="109.3" stroke="rgb(0,0,0)"  stroke-width="1.0"/>
<line x1="464.3" y1="51.3" x2="457.3" y2="63.5" stroke="rgb(0,0,0)"  stroke-width="1.0"/>
<line x1="170.9" y1="144.0" x2="154.9" y2="165.8" stroke="rgb(0,0,0)"  stroke-width="1.0"/>
<line x1="134.9" y1="172.3" x2="109.3" y2="164.0" stroke="rgb(0,0,0)"  stroke-width="1.0"/>
<line x1="109.3" y1="164.0" x2="109.3" y2="124.0" stroke="rgb(0,0,0)"  stroke-width="1.0"/>
<line x1="116.5" y1="158.0" x2="116.5" y2="130.0" stroke="rgb(0,0,0)"  stroke-width="1.0"/>
<line x1="109.3" y1="124.0" x2="134.9" y2="115.6" stroke="rgb(0,0,0)"  stroke-width="1.0"/>
<line x1="155.0" y1="122.2" x2="170.9" y2="144.0" stroke="rgb(0,0,0)"  stroke-width="1.0"/>
<line x1="150.4" y1="128.1" x2="161.5" y2="143.4" stroke="rgb(0,0,0)"  stroke-width="1.0"/>
<line x1="330.9" y1="74.7" x2="350.8" y2="40.0" stroke="rgb(0,0,0)"  stroke-width="1.0"/>
<line x1="350.8" y1="40.0" x2="390.8" y2="40.0" stroke="rgb(0,0,0)"  stroke-width="1.0"/>
<line x1="356.8" y1="47.2" x2="384.8" y2="47.2" stroke="rgb(0,0,0)"  stroke-width="1.0"/>
<line x1="390.8" y1="40.0" x2="410.8" y2="74.7" stroke="rgb(0,0,0)"  stroke-width="1.0"/>
<line x1="410.8" y1="74.7" x2="390.8" y2="109.3" stroke="rgb(0,0,0)"  stroke-width="1.0"/>
<line x1="401.6" y1="76.3" x2="387.6" y2="100.5" stroke="rgb(0,0,0)"  stroke-width="1.0"/>
<line x1="390.8" y1="109.3" x2="350.8" y2="109.3" stroke="rgb(0,0,0)"  stroke-width="1.0"/>
<line x1="350.8" y1="109.3" x2="330.9" y2="74.7" stroke="rgb(0,0,0)"  stroke-width="1.0"/>
<line x1="354.1" y1="100.5" x2="340.1" y2="76.3" stroke="rgb(0,0,0)"  stroke-width="1.0"/>
<line x1="74.5" y1="184.0" x2="109.3" y2="164.0" stroke="rgb(0,0,0)"  stroke-width="1.0"/>
<line x1="109.3" y1="124.0" x2="74.5" y2="104.0" stroke="rgb(0,0,0)"  stroke-width="1.0"/>
<line x1="74.5" y1="104.0" x2="40.0" y2="124.0" stroke="rgb(0,0,0)"  stroke-width="1.0"/>
<line x1="73.0" y1="113.3" x2="48.8" y2="127.3" stroke="rgb(0,0,0)"  stroke-width="1.0"/>
<line x1="40.0" y1="124.0" x2="40.0" y2="164.0" stroke="rgb(0,0,0)"  stroke-width="1.0"/>
<line x1="40.0" y1="164.0" x2="74.5" y2="184.0" stroke="rgb(0,0,0)"  stroke-width="1.0"/>
<line x1="48.8" y1="160.8" x2="73.0" y2="174.8" stroke="rgb(0,0,0)"  stroke-width="1.0"/>
<text x="141.251461" y="119.500974" fill="rgb(12,12,255)"  stroke="rgb(12,12,255)" stroke-width="1" font-size="16" >N</text>
<text x="141.251461" y="184.336602" fill="rgb(12,12,255)"  stroke="rgb(12,12,255)" stroke-width="1" font-size="16" >N</text>
<text x="88.047510" y="281.694267" fill="rgb(102,102,102)"  stroke="rgb(102,102,102)" stroke-width="1" font-size="16" >HC</text>
<text x="204.875208" y="152.023010" fill="rgb(178,178,0)"  stroke="rgb(178,178,0)" stroke-width="1" font-size="16" >S</text>
<text x="444.827628" y="82.742202" fill="rgb(255,12,12)"  stroke="rgb(255,12,12)" stroke-width="1" font-size="16" >O</text>
<text x="284.859348" y="82.742202" fill="rgb(255,12,12)"  stroke="rgb(255,12,12)" stroke-width="1" font-size="16" >O</text>
<text x="466.823663" y="48.000000" fill="rgb(102,102,102)"  stroke="rgb(102,102,102)" stroke-width="1" font-size="16" >CH</text>
<text x="490.823663" y="51.680000" fill="rgb(102,102,102)"  stroke="rgb(102,102,102)" stroke-width="1" font-size="13" >3</text>
<text font-size="18.000000" fill ="black" font-family="sans-serif"
x="10.000000" y="20.000000" ></text>
<title> - OBDepict</title>
</svg>
