<?xml version="1.0"?>
<svg xmlns="http://www.w3.org/2000/svg"
xmlns:xlink="http://www.w3.org/1999/xlink" xmlns:cml="http://www.xml-cml.org/schema" width="483.868" height="291.236" x="0" y="0" font-family="sans-serif" stroke="rgb(0,0,0)" stroke-width="1"  stroke-linecap="round">
<rect x="0%" y="0%" width="100%" height="100%" stroke-width="0" fill="rgb(255,255,255)"  />
<line x1="189.7" y1="77.8" x2="155.5" y2="97.6" stroke="rgb(0,0,0)"  stroke-width="1.0"/>
<line x1="186.7" y1="72.6" x2="152.5" y2="92.4" stroke="rgb(0,0,0)"  stroke-width="1.0"/>
<line x1="238.0" y1="84.8" x2="188.2" y2="75.2" stroke="rgb(0,0,0)"  stroke-width="1.0"/>
<line x1="409.7" y1="144.2" x2="375.5" y2="124.4" stroke="rgb(0,0,0)"  stroke-width="1.0"/>
<line x1="432.6" y1="130.9" x2="409.7" y2="144.2" stroke="rgb(0,0,0)"  stroke-width="1.0"/>
<line x1="434.7" y1="134.6" x2="411.8" y2="147.9" stroke="rgb(0,0,0)"  stroke-width="1.0"/>
<line x1="430.5" y1="127.3" x2="407.6" y2="140.6" stroke="rgb(0,0,0)"  stroke-width="1.0"/>
<line x1="95.2" y1="178.6" x2="106.1" y2="154.3" stroke="rgb(0,0,0)"  stroke-width="1.0"/>
<line x1="167.5" y1="154.2" x2="147.8" y2="136.4" stroke="rgb(0,0,0)"  stroke-width="1.0"/>
<line x1="171.6" y1="149.7" x2="151.8" y2="132.0" stroke="rgb(0,0,0)"  stroke-width="1.0"/>
<line x1="115.3" y1="52.1" x2="120.9" y2="78.2" stroke="rgb(0,0,0)"  stroke-width="1.0"/>
<line x1="109.4" y1="53.3" x2="115.1" y2="79.4" stroke="rgb(0,0,0)"  stroke-width="1.0"/>
<line x1="329.4" y1="71.1" x2="306.4" y2="84.4" stroke="rgb(0,0,0)"  stroke-width="1.0"/>
<line x1="329.8" y1="137.8" x2="306.4" y2="124.4" stroke="rgb(0,0,0)"  stroke-width="1.0"/>
<line x1="272.1" y1="171.0" x2="272.2" y2="144.2" stroke="rgb(0,0,0)"  stroke-width="1.0"/>
<line x1="375.5" y1="124.4" x2="352.3" y2="137.7" stroke="rgb(0,0,0)"  stroke-width="1.0"/>
<line x1="248.7" y1="197.2" x2="260.7" y2="190.4" stroke="rgb(0,0,0)"  stroke-width="1.0"/>
<line x1="154.0" y1="95.0" x2="118.0" y2="78.8" stroke="rgb(0,0,0)"  stroke-width="1.0"/>
<line x1="118.0" y1="78.8" x2="100.3" y2="98.5" stroke="rgb(0,0,0)"  stroke-width="1.0"/>
<line x1="98.1" y1="119.5" x2="104.9" y2="131.2" stroke="rgb(0,0,0)"  stroke-width="1.0"/>
<line x1="124.1" y1="139.7" x2="149.8" y2="134.2" stroke="rgb(0,0,0)"  stroke-width="1.0"/>
<line x1="149.8" y1="134.2" x2="154.0" y2="95.0" stroke="rgb(0,0,0)"  stroke-width="1.0"/>
<line x1="306.4" y1="84.4" x2="306.4" y2="124.4" stroke="rgb(0,0,0)"  stroke-width="1.0"/>
<line x1="306.4" y1="124.4" x2="272.2" y2="144.2" stroke="rgb(0,0,0)"  stroke-width="1.0"/>
<line x1="297.6" y1="121.2" x2="273.8" y2="135.0" stroke="rgb(0,0,0)"  stroke-width="1.0"/>
<line x1="272.2" y1="144.2" x2="238.0" y2="124.4" stroke="rgb(0,0,0)"  stroke-width="1.0"/>
<line x1="238.0" y1="124.4" x2="238.0" y2="84.8" stroke="rgb(0,0,0)"  stroke-width="1.0"/>
<line x1="245.2" y1="118.4" x2="245.2" y2="90.8" stroke="rgb(0,0,0)"  stroke-width="1.0"/>
<line x1="238.0" y1="84.8" x2="272.2" y2="64.6" stroke="rgb(0,0,0)"  stroke-width="1.0"/>
<line x1="272.2" y1="64.6" x2="306.4" y2="84.4" stroke="rgb(0,0,0)"  stroke-width="1.0"/>
<line x1="273.8" y1="73.8" x2="297.6" y2="87.6" stroke="rgb(0,0,0)"  stroke-width="1.0"/>
<line x1="95.2" y1="178.6" x2="119.0" y2="211.0" stroke="rgb(0,0,0)"  stroke-width="1.0"/>
<line x1="119.0" y1="211.0" x2="102.4" y2="247.0" stroke="rgb(0,0,0)"  stroke-width="1.0"/>
<line x1="110.0" y1="213.5" x2="98.4" y2="238.6" stroke="rgb(0,0,0)"  stroke-width="1.0"/>
<line x1="102.4" y1="247.0" x2="63.2" y2="251.2" stroke="rgb(0,0,0)"  stroke-width="1.0"/>
<line x1="63.2" y1="251.2" x2="40.0" y2="218.8" stroke="rgb(0,0,0)"  stroke-width="1.0"/>
<line x1="65.6" y1="242.2" x2="49.3" y2="219.5" stroke="rgb(0,0,0)"  stroke-width="1.0"/>
<line x1="40.0" y1="218.8" x2="56.0" y2="182.8" stroke="rgb(0,0,0)"  stroke-width="1.0"/>
<line x1="56.0" y1="182.8" x2="95.2" y2="178.6" stroke="rgb(0,0,0)"  stroke-width="1.0"/>
<line x1="62.7" y1="189.3" x2="90.0" y2="186.4" stroke="rgb(0,0,0)"  stroke-width="1.0"/>
<text x="105.413222" y="150.415165" fill="rgb(12,12,255)"  stroke="rgb(12,12,255)" stroke-width="1" font-size="16" >N</text>
<text x="73.607623" y="116.208107" fill="rgb(12,12,255)"  stroke="rgb(12,12,255)" stroke-width="1" font-size="16" >HN</text>
<text x="437.868457" y="132.410946" fill="rgb(102,102,102)"  stroke="rgb(102,102,102)" stroke-width="1" font-size="16" >CH</text>
<text x="173.223684" y="168.620602" fill="rgb(255,12,12)"  stroke="rgb(255,12,12)" stroke-width="1" font-size="16" >O</text>
<text x="103.611842" y="48.000000" fill="rgb(255,12,12)"  stroke="rgb(255,12,12)" stroke-width="1" font-size="16" >O</text>
<text x="334.653211" y="72.601295" fill="rgb(147,0,147)"  stroke="rgb(147,0,147)" stroke-width="1" font-size="16" >I</text>
<text x="335.050856" y="152.216545" fill="rgb(255,12,12)"  stroke="rgb(255,12,12)" stroke-width="1" font-size="16" >O</text>
<text x="266.037877" y="192.024171" fill="rgb(255,12,12)"  stroke="rgb(255,12,12)" stroke-width="1" font-size="16" >O</text>
<text x="211.433174" y="211.623761" fill="rgb(102,102,102)"  stroke="rgb(102,102,102)" stroke-width="1" font-size="16" >H</text>
<text x="223.433174" y="215.303761" fill="rgb(102,102,102)"  stroke="rgb(102,102,102)" stroke-width="1" font-size="13" >3</text>
<text x="229.933174" y="211.623761" fill="rgb(102,102,102)"  stroke="rgb(102,102,102)" stroke-width="1" font-size="16" >C</text>
<text font-size="18.000000" fill ="black" font-family="sans-serif"
x="10.000000" y="20.000000" ></text>
<title> - OBDepict</title>
</svg>
