<?xml version="1.0"?>
<svg xmlns="http://www.w3.org/2000/svg"
xmlns:xlink="http://www.w3.org/1999/xlink" xmlns:cml="http://www.xml-cml.org/schema" width="412.745" height="542.69" x="0" y="0" font-family="sans-serif" stroke="rgb(0,0,0)" stroke-width="1"  stroke-linecap="round">
<rect x="0%" y="0%" width="100%" height="100%" stroke-width="0" fill="rgb(255,255,255)"  />
<line x1="282.0" y1="288.8" x2="243.7" y2="301.3" stroke="rgb(0,0,0)"  stroke-width="1.0"/>
<line x1="280.1" y1="283.1" x2="241.9" y2="295.6" stroke="rgb(0,0,0)"  stroke-width="1.0"/>
<line x1="166.5" y1="369.1" x2="182.5" y2="347.2" stroke="rgb(0,0,0)"  stroke-width="1.0"/>
<line x1="182.9" y1="405.5" x2="166.5" y2="369.1" stroke="rgb(0,0,0)"  stroke-width="1.0"/>
<line x1="166.9" y1="427.6" x2="182.9" y2="405.5" stroke="rgb(0,0,0)"  stroke-width="1.0"/>
<line x1="360.8" y1="78.9" x2="352.1" y2="118.1" stroke="rgb(0,0,0)"  stroke-width="1.0"/>
<line x1="366.5" y1="52.7" x2="360.8" y2="78.9" stroke="rgb(0,0,0)"  stroke-width="1.0"/>
<line x1="370.6" y1="53.6" x2="364.9" y2="79.8" stroke="rgb(0,0,0)"  stroke-width="1.0"/>
<line x1="362.4" y1="51.8" x2="356.7" y2="78.0" stroke="rgb(0,0,0)"  stroke-width="1.0"/>
<line x1="119.5" y1="433.9" x2="146.3" y2="436.7" stroke="rgb(0,0,0)"  stroke-width="1.0"/>
<line x1="153.1" y1="287.1" x2="179.0" y2="295.6" stroke="rgb(0,0,0)"  stroke-width="1.0"/>
<line x1="151.2" y1="292.8" x2="177.1" y2="301.3" stroke="rgb(0,0,0)"  stroke-width="1.0"/>
<line x1="243.8" y1="360.4" x2="227.8" y2="338.5" stroke="rgb(0,0,0)"  stroke-width="1.0"/>
<line x1="248.7" y1="356.8" x2="232.7" y2="335.0" stroke="rgb(0,0,0)"  stroke-width="1.0"/>
<line x1="289.2" y1="247.1" x2="281.1" y2="285.9" stroke="rgb(0,0,0)"  stroke-width="1.0"/>
<line x1="209.5" y1="411.4" x2="182.6" y2="408.5" stroke="rgb(0,0,0)"  stroke-width="1.0"/>
<line x1="210.2" y1="405.4" x2="183.2" y2="402.6" stroke="rgb(0,0,0)"  stroke-width="1.0"/>
<line x1="360.4" y1="187.7" x2="334.7" y2="195.9" stroke="rgb(0,0,0)"  stroke-width="1.0"/>
<line x1="107.0" y1="490.8" x2="96.1" y2="466.3" stroke="rgb(0,0,0)"  stroke-width="1.0"/>
<line x1="311.2" y1="142.6" x2="305.3" y2="169.1" stroke="rgb(0,0,0)"  stroke-width="1.0"/>
<line x1="352.1" y1="118.1" x2="326.5" y2="126.0" stroke="rgb(0,0,0)"  stroke-width="1.0"/>
<line x1="186.3" y1="324.3" x2="178.0" y2="298.5" stroke="rgb(0,0,0)"  stroke-width="1.0"/>
<line x1="178.0" y1="298.5" x2="199.7" y2="282.6" stroke="rgb(0,0,0)"  stroke-width="1.0"/>
<line x1="220.8" y1="282.6" x2="242.8" y2="298.5" stroke="rgb(0,0,0)"  stroke-width="1.0"/>
<line x1="242.8" y1="298.5" x2="230.3" y2="336.7" stroke="rgb(0,0,0)"  stroke-width="1.0"/>
<line x1="230.3" y1="336.7" x2="203.2" y2="336.7" stroke="rgb(0,0,0)"  stroke-width="1.0"/>
<line x1="334.7" y1="195.9" x2="305.3" y2="169.1" stroke="rgb(0,0,0)"  stroke-width="1.0"/>
<line x1="305.3" y1="169.1" x2="267.7" y2="181.3" stroke="rgb(0,0,0)"  stroke-width="1.0"/>
<line x1="301.8" y1="177.8" x2="275.6" y2="186.3" stroke="rgb(0,0,0)"  stroke-width="1.0"/>
<line x1="267.7" y1="181.3" x2="259.4" y2="220.3" stroke="rgb(0,0,0)"  stroke-width="1.0"/>
<line x1="259.4" y1="220.3" x2="289.2" y2="247.1" stroke="rgb(0,0,0)"  stroke-width="1.0"/>
<line x1="268.7" y1="219.0" x2="289.5" y2="237.7" stroke="rgb(0,0,0)"  stroke-width="1.0"/>
<line x1="289.2" y1="247.1" x2="326.6" y2="234.9" stroke="rgb(0,0,0)"  stroke-width="1.0"/>
<line x1="326.6" y1="234.9" x2="334.7" y2="195.9" stroke="rgb(0,0,0)"  stroke-width="1.0"/>
<line x1="320.8" y1="227.6" x2="326.4" y2="200.3" stroke="rgb(0,0,0)"  stroke-width="1.0"/>
<line x1="119.5" y1="433.9" x2="96.1" y2="466.3" stroke="rgb(0,0,0)"  stroke-width="1.0"/>
<line x1="96.1" y1="466.3" x2="56.0" y2="461.8" stroke="rgb(0,0,0)"  stroke-width="1.0"/>
<line x1="90.9" y1="458.4" x2="62.8" y2="455.3" stroke="rgb(0,0,0)"  stroke-width="1.0"/>
<line x1="56.0" y1="461.8" x2="40.0" y2="425.0" stroke="rgb(0,0,0)"  stroke-width="1.0"/>
<line x1="40.0" y1="425.0" x2="63.7" y2="392.8" stroke="rgb(0,0,0)"  stroke-width="1.0"/>
<line x1="49.4" y1="424.4" x2="65.9" y2="401.9" stroke="rgb(0,0,0)"  stroke-width="1.0"/>
<line x1="63.7" y1="392.8" x2="103.4" y2="397.0" stroke="rgb(0,0,0)"  stroke-width="1.0"/>
<line x1="103.4" y1="397.0" x2="119.5" y2="433.9" stroke="rgb(0,0,0)"  stroke-width="1.0"/>
<line x1="99.2" y1="405.4" x2="110.5" y2="431.3" stroke="rgb(0,0,0)"  stroke-width="1.0"/>
<text x="184.184482" y="344.722111" fill="rgb(12,12,255)"  stroke="rgb(12,12,255)" stroke-width="1" font-size="16" >N</text>
<text x="204.220380" y="282.987135" fill="rgb(178,178,0)"  stroke="rgb(178,178,0)" stroke-width="1" font-size="16" >S</text>
<text x="153.212868" y="446.122063" fill="rgb(12,12,255)"  stroke="rgb(12,12,255)" stroke-width="1" font-size="16" >N</text>
<text x="153.212868" y="462.122063" fill="rgb(12,12,255)"  stroke="rgb(12,12,255)" stroke-width="1" font-size="16" >H</text>
<text x="363.306477" y="48.000000" fill="rgb(102,102,102)"  stroke="rgb(102,102,102)" stroke-width="1" font-size="16" >CH</text>
<text x="133.782357" y="293.918009" fill="rgb(255,12,12)"  stroke="rgb(255,12,12)" stroke-width="1" font-size="16" >O</text>
<text x="247.939030" y="377.107910" fill="rgb(255,12,12)"  stroke="rgb(255,12,12)" stroke-width="1" font-size="16" >O</text>
<text x="216.768848" y="417.789937" fill="rgb(255,12,12)"  stroke="rgb(255,12,12)" stroke-width="1" font-size="16" >O</text>
<text x="366.745077" y="191.704416" fill="rgb(165,40,40)"  stroke="rgb(165,40,40)" stroke-width="1" font-size="16" >Br</text>
<text x="106.254185" y="510.690251" fill="rgb(127,178,255)"  stroke="rgb(127,178,255)" stroke-width="1" font-size="16" >F</text>
<text x="308.051567" y="137.868534" fill="rgb(255,12,12)"  stroke="rgb(255,12,12)" stroke-width="1" font-size="16" >O</text>
<text font-size="18.000000" fill ="black" font-family="sans-serif"
x="10.000000" y="20.000000" ></text>
<title> - OBDepict</title>
</svg>
