<?xml version="1.0"?>
<svg xmlns="http://www.w3.org/2000/svg"
xmlns:xlink="http://www.w3.org/1999/xlink" xmlns:cml="http://www.xml-cml.org/schema" width="333.26" height="318.541" x="0" y="0" font-family="sans-serif" stroke="rgb(0,0,0)" stroke-width="1"  stroke-linecap="round">
<rect x="0%" y="0%" width="100%" height="100%" stroke-width="0" fill="rgb(255,255,255)"  />
<line x1="200.6" y1="198.9" x2="162.5" y2="211.2" stroke="rgb(0,0,0)"  stroke-width="1.0"/>
<line x1="198.8" y1="193.2" x2="160.7" y2="205.5" stroke="rgb(0,0,0)"  stroke-width="1.0"/>
<line x1="50.7" y1="157.0" x2="59.2" y2="196.1" stroke="rgb(0,0,0)"  stroke-width="1.0"/>
<line x1="43.5" y1="130.8" x2="50.7" y2="157.0" stroke="rgb(0,0,0)"  stroke-width="1.0"/>
<line x1="47.5" y1="129.7" x2="54.7" y2="155.8" stroke="rgb(0,0,0)"  stroke-width="1.0"/>
<line x1="39.4" y1="131.9" x2="46.6" y2="158.1" stroke="rgb(0,0,0)"  stroke-width="1.0"/>
<line x1="91.1" y1="266.3" x2="106.9" y2="244.7" stroke="rgb(0,0,0)"  stroke-width="1.0"/>
<line x1="95.9" y1="269.8" x2="111.8" y2="248.3" stroke="rgb(0,0,0)"  stroke-width="1.0"/>
<line x1="132.1" y1="157.8" x2="132.3" y2="184.8" stroke="rgb(0,0,0)"  stroke-width="1.0"/>
<line x1="126.1" y1="157.9" x2="126.3" y2="184.8" stroke="rgb(0,0,0)"  stroke-width="1.0"/>
<line x1="208.0" y1="157.0" x2="199.7" y2="196.1" stroke="rgb(0,0,0)"  stroke-width="1.0"/>
<line x1="59.2" y1="196.1" x2="84.5" y2="204.3" stroke="rgb(0,0,0)"  stroke-width="1.0"/>
<line x1="280.9" y1="97.9" x2="254.8" y2="106.1" stroke="rgb(0,0,0)"  stroke-width="1.0"/>
<line x1="231.2" y1="52.7" x2="225.1" y2="78.9" stroke="rgb(0,0,0)"  stroke-width="1.0"/>
<line x1="107.4" y1="200.7" x2="129.3" y2="184.8" stroke="rgb(0,0,0)"  stroke-width="1.0"/>
<line x1="129.3" y1="184.8" x2="161.6" y2="208.4" stroke="rgb(0,0,0)"  stroke-width="1.0"/>
<line x1="161.6" y1="208.4" x2="153.3" y2="234.1" stroke="rgb(0,0,0)"  stroke-width="1.0"/>
<line x1="136.3" y1="246.5" x2="109.4" y2="246.5" stroke="rgb(0,0,0)"  stroke-width="1.0"/>
<line x1="109.4" y1="246.5" x2="100.9" y2="220.7" stroke="rgb(0,0,0)"  stroke-width="1.0"/>
<line x1="254.8" y1="106.1" x2="225.1" y2="78.9" stroke="rgb(0,0,0)"  stroke-width="1.0"/>
<line x1="225.1" y1="78.9" x2="187.0" y2="91.0" stroke="rgb(0,0,0)"  stroke-width="1.0"/>
<line x1="221.6" y1="87.6" x2="194.9" y2="96.1" stroke="rgb(0,0,0)"  stroke-width="1.0"/>
<line x1="187.0" y1="91.0" x2="178.5" y2="130.1" stroke="rgb(0,0,0)"  stroke-width="1.0"/>
<line x1="178.5" y1="130.1" x2="208.0" y2="157.0" stroke="rgb(0,0,0)"  stroke-width="1.0"/>
<line x1="187.8" y1="128.9" x2="208.4" y2="147.6" stroke="rgb(0,0,0)"  stroke-width="1.0"/>
<line x1="208.0" y1="157.0" x2="246.3" y2="144.9" stroke="rgb(0,0,0)"  stroke-width="1.0"/>
<line x1="246.3" y1="144.9" x2="254.8" y2="106.1" stroke="rgb(0,0,0)"  stroke-width="1.0"/>
<line x1="240.5" y1="137.5" x2="246.4" y2="110.5" stroke="rgb(0,0,0)"  stroke-width="1.0"/>
<text x="90.866383" y="216.372424" fill="rgb(12,12,255)"  stroke="rgb(12,12,255)" stroke-width="1" font-size="16" >N</text>
<text x="143.289019" y="254.483865" fill="rgb(178,178,0)"  stroke="rgb(178,178,0)" stroke-width="1" font-size="16" >S</text>
<text x="22.000000" y="126.241002" fill="rgb(102,102,102)"  stroke="rgb(102,102,102)" stroke-width="1" font-size="16" >HC</text>
<text x="79.771568" y="286.540942" fill="rgb(255,12,12)"  stroke="rgb(255,12,12)" stroke-width="1" font-size="16" >O</text>
<text x="122.923460" y="152.854974" fill="rgb(255,12,12)"  stroke="rgb(255,12,12)" stroke-width="1" font-size="16" >O</text>
<text x="287.259642" y="102.042954" fill="rgb(147,0,147)"  stroke="rgb(147,0,147)" stroke-width="1" font-size="16" >I</text>
<text x="228.181088" y="48.000000" fill="rgb(255,12,12)"  stroke="rgb(255,12,12)" stroke-width="1" font-size="16" >OH</text>
<text font-size="18.000000" fill ="black" font-family="sans-serif"
x="10.000000" y="20.000000" ></text>
<title> - OBDepict</title>
</svg>
