<?xml version="1.0"?>
<svg xmlns="http://www.w3.org/2000/svg"
xmlns:xlink="http://www.w3.org/1999/xlink" xmlns:cml="http://www.xml-cml.org/schema" width="437.57" height="291.542" x="0" y="0" font-family="sans-serif" stroke="rgb(0,0,0)" stroke-width="1"  stroke-linecap="round">
<rect x="0%" y="0%" width="100%" height="100%" stroke-width="0" fill="rgb(255,255,255)"  />
<line x1="260.6" y1="86.2" x2="284.0" y2="99.6" stroke="rgb(0,0,0)"  stroke-width="1.0"/>
<line x1="257.7" y1="91.4" x2="281.1" y2="104.8" stroke="rgb(0,0,0)"  stroke-width="1.0"/>
<line x1="144.0" y1="102.2" x2="178.5" y2="82.3" stroke="rgb(0,0,0)"  stroke-width="1.0"/>
<line x1="178.5" y1="82.3" x2="201.9" y2="95.7" stroke="rgb(0,0,0)"  stroke-width="1.0"/>
<line x1="224.5" y1="95.7" x2="236.6" y2="88.8" stroke="rgb(0,0,0)"  stroke-width="1.0"/>
<line x1="318.6" y1="219.5" x2="342.2" y2="186.9" stroke="rgb(0,0,0)"  stroke-width="1.0"/>
<line x1="302.9" y1="241.0" x2="318.6" y2="219.5" stroke="rgb(0,0,0)"  stroke-width="1.0"/>
<line x1="299.5" y1="238.6" x2="315.2" y2="217.1" stroke="rgb(0,0,0)"  stroke-width="1.0"/>
<line x1="306.3" y1="243.5" x2="321.9" y2="222.0" stroke="rgb(0,0,0)"  stroke-width="1.0"/>
<line x1="264.8" y1="157.9" x2="284.5" y2="140.0" stroke="rgb(0,0,0)"  stroke-width="1.0"/>
<line x1="268.8" y1="162.3" x2="288.6" y2="144.4" stroke="rgb(0,0,0)"  stroke-width="1.0"/>
<line x1="342.2" y1="186.9" x2="331.2" y2="162.5" stroke="rgb(0,0,0)"  stroke-width="1.0"/>
<line x1="181.5" y1="55.3" x2="181.5" y2="82.3" stroke="rgb(0,0,0)"  stroke-width="1.0"/>
<line x1="175.5" y1="55.3" x2="175.5" y2="82.3" stroke="rgb(0,0,0)"  stroke-width="1.0"/>
<line x1="167.3" y1="156.2" x2="144.0" y2="142.7" stroke="rgb(0,0,0)"  stroke-width="1.0"/>
<line x1="51.3" y1="156.2" x2="74.7" y2="142.7" stroke="rgb(0,0,0)"  stroke-width="1.0"/>
<line x1="286.5" y1="142.2" x2="313.2" y2="147.9" stroke="rgb(0,0,0)"  stroke-width="1.0"/>
<line x1="332.3" y1="139.4" x2="345.7" y2="116.0" stroke="rgb(0,0,0)"  stroke-width="1.0"/>
<line x1="345.7" y1="116.0" x2="319.2" y2="86.3" stroke="rgb(0,0,0)"  stroke-width="1.0"/>
<line x1="336.4" y1="116.3" x2="317.8" y2="95.6" stroke="rgb(0,0,0)"  stroke-width="1.0"/>
<line x1="319.2" y1="86.3" x2="282.5" y2="102.2" stroke="rgb(0,0,0)"  stroke-width="1.0"/>
<line x1="282.5" y1="102.2" x2="286.5" y2="142.2" stroke="rgb(0,0,0)"  stroke-width="1.0"/>
<line x1="144.0" y1="102.2" x2="144.0" y2="142.7" stroke="rgb(0,0,0)"  stroke-width="1.0"/>
<line x1="136.8" y1="108.2" x2="136.8" y2="136.7" stroke="rgb(0,0,0)"  stroke-width="1.0"/>
<line x1="144.0" y1="142.7" x2="109.3" y2="162.7" stroke="rgb(0,0,0)"  stroke-width="1.0"/>
<line x1="109.3" y1="162.7" x2="74.7" y2="142.7" stroke="rgb(0,0,0)"  stroke-width="1.0"/>
<line x1="107.7" y1="153.5" x2="83.5" y2="139.4" stroke="rgb(0,0,0)"  stroke-width="1.0"/>
<line x1="74.7" y1="142.7" x2="74.7" y2="102.2" stroke="rgb(0,0,0)"  stroke-width="1.0"/>
<line x1="74.7" y1="102.2" x2="109.3" y2="82.3" stroke="rgb(0,0,0)"  stroke-width="1.0"/>
<line x1="83.5" y1="105.4" x2="107.7" y2="91.6" stroke="rgb(0,0,0)"  stroke-width="1.0"/>
<line x1="109.3" y1="82.3" x2="144.0" y2="102.2" stroke="rgb(0,0,0)"  stroke-width="1.0"/>
<line x1="345.7" y1="116.0" x2="385.1" y2="107.5" stroke="rgb(0,0,0)"  stroke-width="1.0"/>
<line x1="385.1" y1="107.5" x2="397.6" y2="69.7" stroke="rgb(0,0,0)"  stroke-width="1.0"/>
<line x1="380.1" y1="99.6" x2="388.9" y2="73.1" stroke="rgb(0,0,0)"  stroke-width="1.0"/>
<line x1="397.6" y1="69.7" x2="370.4" y2="40.0" stroke="rgb(0,0,0)"  stroke-width="1.0"/>
<line x1="370.4" y1="40.0" x2="331.6" y2="48.3" stroke="rgb(0,0,0)"  stroke-width="1.0"/>
<line x1="366.0" y1="48.3" x2="338.9" y2="54.1" stroke="rgb(0,0,0)"  stroke-width="1.0"/>
<line x1="331.6" y1="48.3" x2="319.2" y2="86.3" stroke="rgb(0,0,0)"  stroke-width="1.0"/>
<text x="319.890410" y="158.684284" fill="rgb(12,12,255)"  stroke="rgb(12,12,255)" stroke-width="1" font-size="16" >N</text>
<text x="241.871429" y="90.336557" fill="rgb(12,12,255)"  stroke="rgb(12,12,255)" stroke-width="1" font-size="16" >N</text>
<text x="207.196326" y="110.173040" fill="rgb(12,12,255)"  stroke="rgb(12,12,255)" stroke-width="1" font-size="16" >N</text>
<text x="207.196326" y="126.173040" fill="rgb(12,12,255)"  stroke="rgb(12,12,255)" stroke-width="1" font-size="16" >H</text>
<text x="277.215535" y="259.542340" fill="rgb(102,102,102)"  stroke="rgb(102,102,102)" stroke-width="1" font-size="16" >HC</text>
<text x="251.208523" y="176.854812" fill="rgb(255,12,12)"  stroke="rgb(255,12,12)" stroke-width="1" font-size="16" >O</text>
<text x="172.526066" y="50.329431" fill="rgb(255,12,12)"  stroke="rgb(255,12,12)" stroke-width="1" font-size="16" >O</text>
<text x="172.526066" y="170.684969" fill="rgb(30,239,30)"  stroke="rgb(30,239,30)" stroke-width="1" font-size="16" >Cl</text>
<text x="22.000000" y="170.684969" fill="rgb(30,239,30)"  stroke="rgb(30,239,30)" stroke-width="1" font-size="16" >Cl</text>
<text font-size="18.000000" fill ="black" font-family="sans-serif"
x="10.000000" y="20.000000" ></text>
<title> - OBDepict</title>
</svg>
