<?xml version="1.0"?>
<svg xmlns="http://www.w3.org/2000/svg"
xmlns:xlink="http://www.w3.org/1999/xlink" xmlns:cml="http://www.xml-cml.org/schema" width="331.496" height="255.727" x="0" y="0" font-family="sans-serif" stroke="rgb(0,0,0)" stroke-width="1"  stroke-linecap="round">
<rect x="0%" y="0%" width="100%" height="100%" stroke-width="0" fill="rgb(255,255,255)"  />
<line x1="171.3" y1="79.5" x2="211.2" y2="79.2" stroke="rgb(0,0,0)"  stroke-width="1.0"/>
<line x1="154.4" y1="123.6" x2="167.7" y2="146.8" stroke="rgb(0,0,0)"  stroke-width="1.0"/>
<line x1="211.2" y1="79.2" x2="231.4" y2="113.8" stroke="rgb(0,0,0)"  stroke-width="1.0"/>
<line x1="167.7" y1="146.8" x2="148.1" y2="181.4" stroke="rgb(0,0,0)"  stroke-width="1.0"/>
<line x1="148.1" y1="181.4" x2="161.6" y2="204.5" stroke="rgb(0,0,0)"  stroke-width="1.0"/>
<line x1="151.8" y1="179.2" x2="165.3" y2="202.4" stroke="rgb(0,0,0)"  stroke-width="1.0"/>
<line x1="144.5" y1="183.5" x2="158.0" y2="206.6" stroke="rgb(0,0,0)"  stroke-width="1.0"/>
<line x1="171.3" y1="79.5" x2="155.5" y2="101.7" stroke="rgb(0,0,0)"  stroke-width="1.0"/>
<line x1="135.6" y1="108.4" x2="109.4" y2="100.2" stroke="rgb(0,0,0)"  stroke-width="1.0"/>
<line x1="109.4" y1="100.2" x2="109.3" y2="59.9" stroke="rgb(0,0,0)"  stroke-width="1.0"/>
<line x1="109.3" y1="59.9" x2="135.0" y2="51.2" stroke="rgb(0,0,0)"  stroke-width="1.0"/>
<line x1="155.2" y1="57.7" x2="171.3" y2="79.5" stroke="rgb(0,0,0)"  stroke-width="1.0"/>
<line x1="150.6" y1="63.6" x2="162.0" y2="79.0" stroke="rgb(0,0,0)"  stroke-width="1.0"/>
<line x1="74.5" y1="119.9" x2="109.4" y2="100.2" stroke="rgb(0,0,0)"  stroke-width="1.0"/>
<line x1="76.2" y1="110.7" x2="100.7" y2="96.9" stroke="rgb(0,0,0)"  stroke-width="1.0"/>
<line x1="109.3" y1="59.9" x2="74.5" y2="40.0" stroke="rgb(0,0,0)"  stroke-width="1.0"/>
<line x1="100.5" y1="63.1" x2="76.2" y2="49.2" stroke="rgb(0,0,0)"  stroke-width="1.0"/>
<line x1="74.5" y1="40.0" x2="40.0" y2="59.9" stroke="rgb(0,0,0)"  stroke-width="1.0"/>
<line x1="40.0" y1="59.9" x2="40.0" y2="100.1" stroke="rgb(0,0,0)"  stroke-width="1.0"/>
<line x1="47.2" y1="65.9" x2="47.2" y2="94.1" stroke="rgb(0,0,0)"  stroke-width="1.0"/>
<line x1="40.0" y1="100.1" x2="74.5" y2="119.9" stroke="rgb(0,0,0)"  stroke-width="1.0"/>
<line x1="231.4" y1="113.8" x2="271.1" y2="113.6" stroke="rgb(0,0,0)"  stroke-width="1.0"/>
<line x1="271.1" y1="113.6" x2="291.5" y2="147.6" stroke="rgb(0,0,0)"  stroke-width="1.0"/>
<line x1="268.0" y1="122.4" x2="282.2" y2="146.2" stroke="rgb(0,0,0)"  stroke-width="1.0"/>
<line x1="291.5" y1="147.6" x2="271.8" y2="182.7" stroke="rgb(0,0,0)"  stroke-width="1.0"/>
<line x1="271.8" y1="182.7" x2="231.8" y2="182.8" stroke="rgb(0,0,0)"  stroke-width="1.0"/>
<line x1="265.8" y1="175.5" x2="237.7" y2="175.6" stroke="rgb(0,0,0)"  stroke-width="1.0"/>
<line x1="231.8" y1="182.8" x2="211.7" y2="148.6" stroke="rgb(0,0,0)"  stroke-width="1.0"/>
<line x1="211.7" y1="148.6" x2="231.4" y2="113.8" stroke="rgb(0,0,0)"  stroke-width="1.0"/>
<line x1="220.9" y1="147.0" x2="234.7" y2="122.5" stroke="rgb(0,0,0)"  stroke-width="1.0"/>
<text x="141.973891" y="120.260494" fill="rgb(12,12,255)"  stroke="rgb(12,12,255)" stroke-width="1" font-size="16" >N</text>
<text x="141.304992" y="55.004052" fill="rgb(12,12,255)"  stroke="rgb(12,12,255)" stroke-width="1" font-size="16" >N</text>
<text x="162.171737" y="223.726587" fill="rgb(102,102,102)"  stroke="rgb(102,102,102)" stroke-width="1" font-size="16" >CH</text>
<text font-size="18.000000" fill ="black" font-family="sans-serif"
x="10.000000" y="20.000000" ></text>
<title> - OBDepict</title>
</svg>
