<?xml version="1.0"?>
<svg xmlns="http://www.w3.org/2000/svg"
xmlns:xlink="http://www.w3.org/1999/xlink" xmlns:cml="http://www.xml-cml.org/schema" width="342.737" height="443.102" x="0" y="0" font-family="sans-serif" stroke="rgb(0,0,0)" stroke-width="1"  stroke-linecap="round">
<rect x="0%" y="0%" width="100%" height="100%" stroke-width="0" fill="rgb(255,255,255)"  />
<line x1="188.9" y1="206.3" x2="165.5" y2="220.1" stroke="rgb(0,0,0)"  stroke-width="1.0"/>
<line x1="185.8" y1="201.1" x2="162.5" y2="214.9" stroke="rgb(0,0,0)"  stroke-width="1.0"/>
<line x1="198.5" y1="156.9" x2="198.5" y2="184.1" stroke="rgb(0,0,0)"  stroke-width="1.0"/>
<line x1="233.1" y1="136.9" x2="198.5" y2="156.9" stroke="rgb(0,0,0)"  stroke-width="1.0"/>
<line x1="180.2" y1="324.1" x2="189.2" y2="285.0" stroke="rgb(0,0,0)"  stroke-width="1.0"/>
<line x1="174.1" y1="350.8" x2="180.2" y2="324.1" stroke="rgb(0,0,0)"  stroke-width="1.0"/>
<line x1="170.0" y1="349.9" x2="176.1" y2="323.2" stroke="rgb(0,0,0)"  stroke-width="1.0"/>
<line x1="178.2" y1="351.8" x2="184.3" y2="325.1" stroke="rgb(0,0,0)"  stroke-width="1.0"/>
<line x1="176.2" y1="141.0" x2="200.0" y2="154.3" stroke="rgb(0,0,0)"  stroke-width="1.0"/>
<line x1="173.3" y1="146.3" x2="197.1" y2="159.5" stroke="rgb(0,0,0)"  stroke-width="1.0"/>
<line x1="189.2" y1="285.0" x2="168.7" y2="265.9" stroke="rgb(0,0,0)"  stroke-width="1.0"/>
<line x1="209.6" y1="83.9" x2="233.1" y2="97.6" stroke="rgb(0,0,0)"  stroke-width="1.0"/>
<line x1="112.4" y1="323.0" x2="99.6" y2="298.9" stroke="rgb(0,0,0)"  stroke-width="1.0"/>
<line x1="98.0" y1="368.6" x2="111.8" y2="345.6" stroke="rgb(0,0,0)"  stroke-width="1.0"/>
<line x1="189.1" y1="52.2" x2="193.8" y2="65.2" stroke="rgb(0,0,0)"  stroke-width="1.0"/>
<line x1="110.4" y1="391.7" x2="98.0" y2="368.6" stroke="rgb(0,0,0)"  stroke-width="1.0"/>
<line x1="164.0" y1="217.5" x2="140.0" y2="206.3" stroke="rgb(0,0,0)"  stroke-width="1.0"/>
<line x1="119.3" y1="210.1" x2="100.4" y2="229.8" stroke="rgb(0,0,0)"  stroke-width="1.0"/>
<line x1="100.4" y1="229.8" x2="120.2" y2="264.8" stroke="rgb(0,0,0)"  stroke-width="1.0"/>
<line x1="109.6" y1="231.5" x2="123.5" y2="256.0" stroke="rgb(0,0,0)"  stroke-width="1.0"/>
<line x1="120.2" y1="264.8" x2="146.4" y2="259.6" stroke="rgb(0,0,0)"  stroke-width="1.0"/>
<line x1="160.7" y1="244.2" x2="164.0" y2="217.5" stroke="rgb(0,0,0)"  stroke-width="1.0"/>
<line x1="233.1" y1="136.9" x2="233.1" y2="97.6" stroke="rgb(0,0,0)"  stroke-width="1.0"/>
<line x1="233.1" y1="97.6" x2="267.6" y2="77.4" stroke="rgb(0,0,0)"  stroke-width="1.0"/>
<line x1="241.9" y1="100.7" x2="266.1" y2="86.6" stroke="rgb(0,0,0)"  stroke-width="1.0"/>
<line x1="267.6" y1="77.4" x2="302.5" y2="97.4" stroke="rgb(0,0,0)"  stroke-width="1.0"/>
<line x1="302.5" y1="97.4" x2="302.7" y2="137.5" stroke="rgb(0,0,0)"  stroke-width="1.0"/>
<line x1="295.4" y1="103.4" x2="295.5" y2="131.6" stroke="rgb(0,0,0)"  stroke-width="1.0"/>
<line x1="302.7" y1="137.5" x2="268.0" y2="156.9" stroke="rgb(0,0,0)"  stroke-width="1.0"/>
<line x1="268.0" y1="156.9" x2="233.1" y2="136.9" stroke="rgb(0,0,0)"  stroke-width="1.0"/>
<line x1="266.4" y1="147.7" x2="241.8" y2="133.7" stroke="rgb(0,0,0)"  stroke-width="1.0"/>
<line x1="99.6" y1="298.9" x2="60.0" y2="298.3" stroke="rgb(0,0,0)"  stroke-width="1.0"/>
<line x1="93.7" y1="291.6" x2="66.1" y2="291.2" stroke="rgb(0,0,0)"  stroke-width="1.0"/>
<line x1="60.0" y1="298.3" x2="40.0" y2="263.2" stroke="rgb(0,0,0)"  stroke-width="1.0"/>
<line x1="40.0" y1="263.2" x2="61.2" y2="229.0" stroke="rgb(0,0,0)"  stroke-width="1.0"/>
<line x1="49.3" y1="261.9" x2="64.2" y2="237.9" stroke="rgb(0,0,0)"  stroke-width="1.0"/>
<line x1="61.2" y1="229.0" x2="100.4" y2="229.8" stroke="rgb(0,0,0)"  stroke-width="1.0"/>
<line x1="120.2" y1="264.8" x2="99.6" y2="298.9" stroke="rgb(0,0,0)"  stroke-width="1.0"/>
<text x="192.534473" y="205.119030" fill="rgb(12,12,255)"  stroke="rgb(12,12,255)" stroke-width="1" font-size="16" >N</text>
<text x="153.155002" y="265.097817" fill="rgb(12,12,255)"  stroke="rgb(12,12,255)" stroke-width="1" font-size="16" >N</text>
<text x="122.253597" y="208.752487" fill="rgb(178,178,0)"  stroke="rgb(178,178,0)" stroke-width="1" font-size="16" >S</text>
<text x="153.271388" y="371.523560" fill="rgb(102,102,102)"  stroke="rgb(102,102,102)" stroke-width="1" font-size="16" >HC</text>
<text x="157.396467" y="145.339670" fill="rgb(255,12,12)"  stroke="rgb(255,12,12)" stroke-width="1" font-size="16" >O</text>
<text x="192.330182" y="85.360884" fill="rgb(255,12,12)"  stroke="rgb(255,12,12)" stroke-width="1" font-size="16" >O</text>
<text x="112.559515" y="342.441315" fill="rgb(255,12,12)"  stroke="rgb(255,12,12)" stroke-width="1" font-size="16" >O</text>
<text x="158.598927" y="48.000000" fill="rgb(102,102,102)"  stroke="rgb(102,102,102)" stroke-width="1" font-size="16" >H</text>
<text x="170.598927" y="51.680000" fill="rgb(102,102,102)"  stroke="rgb(102,102,102)" stroke-width="1" font-size="13" >3</text>
<text x="177.098927" y="48.000000" fill="rgb(102,102,102)"  stroke="rgb(102,102,102)" stroke-width="1" font-size="16" >C</text>
<text x="112.540928" y="411.102458" fill="rgb(102,102,102)"  stroke="rgb(102,102,102)" stroke-width="1" font-size="16" >CH</text>
<text x="136.540928" y="414.782458" fill="rgb(102,102,102)"  stroke="rgb(102,102,102)" stroke-width="1" font-size="13" >3</text>
<text font-size="18.000000" fill ="black" font-family="sans-serif"
x="10.000000" y="20.000000" ></text>
<title> - OBDepict</title>
</svg>
