<?xml version="1.0"?>
<svg xmlns="http://www.w3.org/2000/svg"
xmlns:xlink="http://www.w3.org/1999/xlink" xmlns:cml="http://www.xml-cml.org/schema" width="454.203" height="389.385" x="0" y="0" font-family="sans-serif" stroke="rgb(0,0,0)" stroke-width="1"  stroke-linecap="round">
<rect x="0%" y="0%" width="100%" height="100%" stroke-width="0" fill="rgb(255,255,255)"  />
<line x1="308.4" y1="204.0" x2="300.3" y2="242.8" stroke="rgb(0,0,0)"  stroke-width="1.0"/>
<line x1="301.2" y1="245.6" x2="263.1" y2="258.1" stroke="rgb(0,0,0)"  stroke-width="1.0"/>
<line x1="299.4" y1="239.9" x2="261.2" y2="252.4" stroke="rgb(0,0,0)"  stroke-width="1.0"/>
<line x1="159.1" y1="242.8" x2="185.2" y2="251.2" stroke="rgb(0,0,0)"  stroke-width="1.0"/>
<line x1="310.2" y1="70.5" x2="286.4" y2="103.0" stroke="rgb(0,0,0)"  stroke-width="1.0"/>
<line x1="327.3" y1="50.0" x2="310.2" y2="70.5" stroke="rgb(0,0,0)"  stroke-width="1.0"/>
<line x1="330.5" y1="52.7" x2="313.4" y2="73.2" stroke="rgb(0,0,0)"  stroke-width="1.0"/>
<line x1="324.1" y1="47.3" x2="307.0" y2="67.8" stroke="rgb(0,0,0)"  stroke-width="1.0"/>
<line x1="191.3" y1="313.5" x2="207.2" y2="291.7" stroke="rgb(0,0,0)"  stroke-width="1.0"/>
<line x1="196.1" y1="317.0" x2="212.1" y2="295.2" stroke="rgb(0,0,0)"  stroke-width="1.0"/>
<line x1="232.6" y1="204.9" x2="232.6" y2="231.9" stroke="rgb(0,0,0)"  stroke-width="1.0"/>
<line x1="226.6" y1="204.9" x2="226.6" y2="231.9" stroke="rgb(0,0,0)"  stroke-width="1.0"/>
<line x1="286.4" y1="103.0" x2="297.1" y2="127.3" stroke="rgb(0,0,0)"  stroke-width="1.0"/>
<line x1="129.5" y1="269.4" x2="159.1" y2="242.8" stroke="rgb(0,0,0)"  stroke-width="1.0"/>
<line x1="49.7" y1="340.7" x2="69.7" y2="322.7" stroke="rgb(0,0,0)"  stroke-width="1.0"/>
<line x1="282.1" y1="173.7" x2="295.8" y2="150.4" stroke="rgb(0,0,0)"  stroke-width="1.0"/>
<line x1="315.0" y1="141.9" x2="341.5" y2="147.6" stroke="rgb(0,0,0)"  stroke-width="1.0"/>
<line x1="341.5" y1="147.6" x2="345.3" y2="187.6" stroke="rgb(0,0,0)"  stroke-width="1.0"/>
<line x1="345.3" y1="187.6" x2="308.4" y2="204.0" stroke="rgb(0,0,0)"  stroke-width="1.0"/>
<line x1="308.4" y1="204.0" x2="282.1" y2="173.7" stroke="rgb(0,0,0)"  stroke-width="1.0"/>
<line x1="309.9" y1="194.7" x2="291.5" y2="173.5" stroke="rgb(0,0,0)"  stroke-width="1.0"/>
<line x1="201.5" y1="267.7" x2="209.6" y2="293.4" stroke="rgb(0,0,0)"  stroke-width="1.0"/>
<line x1="209.6" y1="293.4" x2="236.6" y2="293.4" stroke="rgb(0,0,0)"  stroke-width="1.0"/>
<line x1="253.7" y1="281.1" x2="262.1" y2="255.3" stroke="rgb(0,0,0)"  stroke-width="1.0"/>
<line x1="262.1" y1="255.3" x2="229.6" y2="231.9" stroke="rgb(0,0,0)"  stroke-width="1.0"/>
<line x1="229.6" y1="231.9" x2="208.0" y2="247.6" stroke="rgb(0,0,0)"  stroke-width="1.0"/>
<line x1="129.5" y1="269.4" x2="91.3" y2="257.3" stroke="rgb(0,0,0)"  stroke-width="1.0"/>
<line x1="121.6" y1="274.5" x2="94.8" y2="266.0" stroke="rgb(0,0,0)"  stroke-width="1.0"/>
<line x1="91.3" y1="257.3" x2="61.8" y2="283.8" stroke="rgb(0,0,0)"  stroke-width="1.0"/>
<line x1="61.8" y1="283.8" x2="69.7" y2="322.7" stroke="rgb(0,0,0)"  stroke-width="1.0"/>
<line x1="70.1" y1="288.2" x2="75.6" y2="315.4" stroke="rgb(0,0,0)"  stroke-width="1.0"/>
<line x1="69.7" y1="322.7" x2="107.9" y2="335.4" stroke="rgb(0,0,0)"  stroke-width="1.0"/>
<line x1="107.9" y1="335.4" x2="137.5" y2="308.8" stroke="rgb(0,0,0)"  stroke-width="1.0"/>
<line x1="107.5" y1="326.1" x2="128.3" y2="307.4" stroke="rgb(0,0,0)"  stroke-width="1.0"/>
<line x1="137.5" y1="308.8" x2="129.5" y2="269.4" stroke="rgb(0,0,0)"  stroke-width="1.0"/>
<line x1="341.5" y1="147.6" x2="373.8" y2="124.6" stroke="rgb(0,0,0)"  stroke-width="1.0"/>
<line x1="350.6" y1="150.0" x2="373.1" y2="134.0" stroke="rgb(0,0,0)"  stroke-width="1.0"/>
<line x1="373.8" y1="124.6" x2="410.2" y2="141.0" stroke="rgb(0,0,0)"  stroke-width="1.0"/>
<line x1="410.2" y1="141.0" x2="414.2" y2="180.8" stroke="rgb(0,0,0)"  stroke-width="1.0"/>
<line x1="403.6" y1="147.7" x2="406.4" y2="175.5" stroke="rgb(0,0,0)"  stroke-width="1.0"/>
<line x1="414.2" y1="180.8" x2="382.1" y2="204.6" stroke="rgb(0,0,0)"  stroke-width="1.0"/>
<line x1="382.1" y1="204.6" x2="345.3" y2="187.6" stroke="rgb(0,0,0)"  stroke-width="1.0"/>
<line x1="379.7" y1="195.5" x2="353.8" y2="183.6" stroke="rgb(0,0,0)"  stroke-width="1.0"/>
<text x="191.517125" y="263.279224" fill="rgb(12,12,255)"  stroke="rgb(12,12,255)" stroke-width="1" font-size="16" >N</text>
<text x="243.620361" y="301.446238" fill="rgb(12,12,255)"  stroke="rgb(12,12,255)" stroke-width="1" font-size="16" >N</text>
<text x="243.620361" y="317.446238" fill="rgb(12,12,255)"  stroke="rgb(12,12,255)" stroke-width="1" font-size="16" >H</text>
<text x="296.324882" y="147.158592" fill="rgb(12,12,255)"  stroke="rgb(12,12,255)" stroke-width="1" font-size="16" >N</text>
<text x="329.647677" y="48.000000" fill="rgb(102,102,102)"  stroke="rgb(102,102,102)" stroke-width="1" font-size="16" >CH</text>
<text x="180.005438" y="333.755578" fill="rgb(255,12,12)"  stroke="rgb(255,12,12)" stroke-width="1" font-size="16" >O</text>
<text x="223.627654" y="199.867961" fill="rgb(255,12,12)"  stroke="rgb(255,12,12)" stroke-width="1" font-size="16" >O</text>
<text x="22.000000" y="357.385087" fill="rgb(165,40,40)"  stroke="rgb(165,40,40)" stroke-width="1" font-size="16" >Br</text>
<text font-size="18.000000" fill ="black" font-family="sans-serif"
x="10.000000" y="20.000000" ></text>
<title> - OBDepict</title>
</svg>
