<?xml version="1.0"?>
<svg xmlns="http://www.w3.org/2000/svg"
xmlns:xlink="http://www.w3.org/1999/xlink" xmlns:cml="http://www.xml-cml.org/schema" width="316.59" height="189.303" x="0" y="0" font-family="sans-serif" stroke="rgb(0,0,0)" stroke-width="1"  stroke-linecap="round">
<rect x="0%" y="0%" width="100%" height="100%" stroke-width="0" fill="rgb(255,255,255)"  />
<line x1="179.2" y1="109.3" x2="213.6" y2="88.9" stroke="rgb(0,0,0)"  stroke-width="1.0"/>
<line x1="75.0" y1="90.9" x2="109.9" y2="110.3" stroke="rgb(0,0,0)"  stroke-width="1.0"/>
<line x1="51.3" y1="77.7" x2="75.0" y2="90.9" stroke="rgb(0,0,0)"  stroke-width="1.0"/>
<line x1="53.4" y1="74.0" x2="77.0" y2="87.3" stroke="rgb(0,0,0)"  stroke-width="1.0"/>
<line x1="49.3" y1="81.3" x2="72.9" y2="94.6" stroke="rgb(0,0,0)"  stroke-width="1.0"/>
<line x1="176.5" y1="136.3" x2="176.2" y2="109.3" stroke="rgb(0,0,0)"  stroke-width="1.0"/>
<line x1="182.5" y1="136.3" x2="182.2" y2="109.3" stroke="rgb(0,0,0)"  stroke-width="1.0"/>
<line x1="155.6" y1="96.2" x2="179.2" y2="109.3" stroke="rgb(0,0,0)"  stroke-width="1.0"/>
<line x1="109.9" y1="110.3" x2="133.1" y2="96.5" stroke="rgb(0,0,0)"  stroke-width="1.0"/>
<line x1="256.3" y1="130.8" x2="250.3" y2="104.5" stroke="rgb(0,0,0)"  stroke-width="1.0"/>
<line x1="213.6" y1="88.9" x2="217.0" y2="48.9" stroke="rgb(0,0,0)"  stroke-width="1.0"/>
<line x1="217.0" y1="48.9" x2="256.0" y2="40.0" stroke="rgb(0,0,0)"  stroke-width="1.0"/>
<line x1="224.4" y1="54.6" x2="251.7" y2="48.4" stroke="rgb(0,0,0)"  stroke-width="1.0"/>
<line x1="256.0" y1="40.0" x2="269.9" y2="63.2" stroke="rgb(0,0,0)"  stroke-width="1.0"/>
<line x1="268.0" y1="84.1" x2="250.3" y2="104.5" stroke="rgb(0,0,0)"  stroke-width="1.0"/>
<line x1="250.3" y1="104.5" x2="213.6" y2="88.9" stroke="rgb(0,0,0)"  stroke-width="1.0"/>
<line x1="247.6" y1="95.5" x2="221.9" y2="84.6" stroke="rgb(0,0,0)"  stroke-width="1.0"/>
<text x="22.000000" y="79.320105" fill="rgb(102,102,102)"  stroke="rgb(102,102,102)" stroke-width="1" font-size="16" >HC</text>
<text x="270.590163" y="82.349832" fill="rgb(255,12,12)"  stroke="rgb(255,12,12)" stroke-width="1" font-size="16" >O</text>
<text x="173.609816" y="157.302852" fill="rgb(255,12,12)"  stroke="rgb(255,12,12)" stroke-width="1" font-size="16" >O</text>
<text x="138.256539" y="97.905662" fill="rgb(12,12,255)"  stroke="rgb(12,12,255)" stroke-width="1" font-size="16" >N</text>
<text x="138.256539" y="81.905662" fill="rgb(12,12,255)"  stroke="rgb(12,12,255)" stroke-width="1" font-size="16" >H</text>
<text x="255.216497" y="151.446996" fill="rgb(102,102,102)"  stroke="rgb(102,102,102)" stroke-width="1" font-size="16" >CH</text>
<text x="279.216497" y="155.126996" fill="rgb(102,102,102)"  stroke="rgb(102,102,102)" stroke-width="1" font-size="13" >3</text>
<text font-size="18.000000" fill ="black" font-family="sans-serif"
x="10.000000" y="20.000000" ></text>
<title> - OBDepict</title>
</svg>
