<?xml version="1.0"?>
<svg xmlns="http://www.w3.org/2000/svg"
xmlns:xlink="http://www.w3.org/1999/xlink" xmlns:cml="http://www.xml-cml.org/schema" width="348.867" height="576.022" x="0" y="0" font-family="sans-serif" stroke="rgb(0,0,0)" stroke-width="1"  stroke-linecap="round">
<rect x="0%" y="0%" width="100%" height="100%" stroke-width="0" fill="rgb(255,255,255)"  />
<line x1="194.1" y1="167.6" x2="159.2" y2="187.2" stroke="rgb(0,0,0)"  stroke-width="1.0"/>
<line x1="191.2" y1="162.4" x2="156.2" y2="182.0" stroke="rgb(0,0,0)"  stroke-width="1.0"/>
<line x1="157.7" y1="184.6" x2="157.7" y2="225.1" stroke="rgb(0,0,0)"  stroke-width="1.0"/>
<line x1="195.1" y1="127.5" x2="174.9" y2="109.5" stroke="rgb(0,0,0)"  stroke-width="1.0"/>
<line x1="199.1" y1="123.1" x2="178.9" y2="105.0" stroke="rgb(0,0,0)"  stroke-width="1.0"/>
<line x1="241.4" y1="105.0" x2="252.5" y2="80.4" stroke="rgb(0,0,0)"  stroke-width="1.0"/>
<line x1="256.5" y1="148.3" x2="283.4" y2="151.2" stroke="rgb(0,0,0)"  stroke-width="1.0"/>
<line x1="255.9" y1="154.3" x2="282.8" y2="157.1" stroke="rgb(0,0,0)"  stroke-width="1.0"/>
<line x1="252.5" y1="80.4" x2="292.5" y2="76.3" stroke="rgb(0,0,0)"  stroke-width="1.0"/>
<line x1="292.5" y1="76.3" x2="303.5" y2="51.9" stroke="rgb(0,0,0)"  stroke-width="1.0"/>
<line x1="288.7" y1="74.6" x2="299.7" y2="50.1" stroke="rgb(0,0,0)"  stroke-width="1.0"/>
<line x1="296.3" y1="78.0" x2="307.4" y2="53.6" stroke="rgb(0,0,0)"  stroke-width="1.0"/>
<line x1="157.7" y1="305.3" x2="157.7" y2="332.3" stroke="rgb(0,0,0)"  stroke-width="1.0"/>
<line x1="146.4" y1="351.8" x2="123.1" y2="365.3" stroke="rgb(0,0,0)"  stroke-width="1.0"/>
<line x1="123.1" y1="365.3" x2="123.1" y2="405.5" stroke="rgb(0,0,0)"  stroke-width="1.0"/>
<line x1="103.2" y1="466.9" x2="79.9" y2="499.2" stroke="rgb(0,0,0)"  stroke-width="1.0"/>
<line x1="79.9" y1="499.2" x2="52.9" y2="496.6" stroke="rgb(0,0,0)"  stroke-width="1.0"/>
<line x1="82.6" y1="498.0" x2="93.3" y2="522.9" stroke="rgb(0,0,0)"  stroke-width="1.0"/>
<line x1="77.1" y1="500.4" x2="87.8" y2="525.3" stroke="rgb(0,0,0)"  stroke-width="1.0"/>
<line x1="192.7" y1="165.0" x2="197.1" y2="125.3" stroke="rgb(0,0,0)"  stroke-width="1.0"/>
<line x1="197.1" y1="125.3" x2="223.4" y2="119.6" stroke="rgb(0,0,0)"  stroke-width="1.0"/>
<line x1="242.6" y1="128.1" x2="256.2" y2="151.3" stroke="rgb(0,0,0)"  stroke-width="1.0"/>
<line x1="256.2" y1="151.3" x2="238.0" y2="171.4" stroke="rgb(0,0,0)"  stroke-width="1.0"/>
<line x1="217.4" y1="175.8" x2="192.7" y2="165.0" stroke="rgb(0,0,0)"  stroke-width="1.0"/>
<line x1="123.1" y1="405.5" x2="101.5" y2="421.1" stroke="rgb(0,0,0)"  stroke-width="1.0"/>
<line x1="94.9" y1="441.2" x2="103.2" y2="466.9" stroke="rgb(0,0,0)"  stroke-width="1.0"/>
<line x1="103.2" y1="466.9" x2="143.2" y2="466.9" stroke="rgb(0,0,0)"  stroke-width="1.0"/>
<line x1="109.2" y1="459.7" x2="137.2" y2="459.7" stroke="rgb(0,0,0)"  stroke-width="1.0"/>
<line x1="143.2" y1="466.9" x2="155.7" y2="428.8" stroke="rgb(0,0,0)"  stroke-width="1.0"/>
<line x1="155.7" y1="428.8" x2="123.1" y2="405.5" stroke="rgb(0,0,0)"  stroke-width="1.0"/>
<line x1="146.6" y1="431.1" x2="123.8" y2="414.8" stroke="rgb(0,0,0)"  stroke-width="1.0"/>
<line x1="157.7" y1="225.1" x2="123.6" y2="245.4" stroke="rgb(0,0,0)"  stroke-width="1.0"/>
<line x1="123.6" y1="245.4" x2="123.6" y2="285.4" stroke="rgb(0,0,0)"  stroke-width="1.0"/>
<line x1="130.8" y1="251.4" x2="130.8" y2="279.4" stroke="rgb(0,0,0)"  stroke-width="1.0"/>
<line x1="123.6" y1="285.4" x2="157.7" y2="305.3" stroke="rgb(0,0,0)"  stroke-width="1.0"/>
<line x1="157.7" y1="305.3" x2="192.3" y2="285.4" stroke="rgb(0,0,0)"  stroke-width="1.0"/>
<line x1="159.3" y1="296.1" x2="183.5" y2="282.1" stroke="rgb(0,0,0)"  stroke-width="1.0"/>
<line x1="192.3" y1="285.4" x2="192.3" y2="245.4" stroke="rgb(0,0,0)"  stroke-width="1.0"/>
<line x1="192.3" y1="245.4" x2="157.7" y2="225.1" stroke="rgb(0,0,0)"  stroke-width="1.0"/>
<line x1="183.5" y1="248.5" x2="159.3" y2="234.3" stroke="rgb(0,0,0)"  stroke-width="1.0"/>
<text x="223.324061" y="189.027503" fill="rgb(178,178,0)"  stroke="rgb(178,178,0)" stroke-width="1" font-size="16" >S</text>
<text x="230.078010" y="124.845579" fill="rgb(12,12,255)"  stroke="rgb(12,12,255)" stroke-width="1" font-size="16" >N</text>
<text x="161.175114" y="106.607005" fill="rgb(255,12,12)"  stroke="rgb(255,12,12)" stroke-width="1" font-size="16" >O</text>
<text x="290.029012" y="163.525523" fill="rgb(255,12,12)"  stroke="rgb(255,12,12)" stroke-width="1" font-size="16" >O</text>
<text x="302.867338" y="48.000000" fill="rgb(102,102,102)"  stroke="rgb(102,102,102)" stroke-width="1" font-size="16" >CH</text>
<text x="151.713763" y="353.349337" fill="rgb(255,12,12)"  stroke="rgb(255,12,12)" stroke-width="1" font-size="16" >O</text>
<text x="85.003960" y="436.779046" fill="rgb(255,12,12)"  stroke="rgb(255,12,12)" stroke-width="1" font-size="16" >O</text>
<text x="22.000000" y="503.319030" fill="rgb(255,12,12)"  stroke="rgb(255,12,12)" stroke-width="1" font-size="16" >HO</text>
<text x="89.734636" y="544.022247" fill="rgb(255,12,12)"  stroke="rgb(255,12,12)" stroke-width="1" font-size="16" >O</text>
<text font-size="18.000000" fill ="black" font-family="sans-serif"
x="10.000000" y="20.000000" ></text>
<title> - OBDepict</title>
</svg>
