<?xml version="1.0"?>
<svg xmlns="http://www.w3.org/2000/svg"
xmlns:xlink="http://www.w3.org/1999/xlink" xmlns:cml="http://www.xml-cml.org/schema" width="425.181" height="298.843" x="0" y="0" font-family="sans-serif" stroke="rgb(0,0,0)" stroke-width="1"  stroke-linecap="round">
<rect x="0%" y="0%" width="100%" height="100%" stroke-width="0" fill="rgb(255,255,255)"  />
<line x1="176.6" y1="223.1" x2="141.6" y2="203.8" stroke="rgb(0,0,0)"  stroke-width="1.0"/>
<line x1="179.5" y1="217.9" x2="144.5" y2="198.6" stroke="rgb(0,0,0)"  stroke-width="1.0"/>
<line x1="212.3" y1="199.5" x2="178.0" y2="220.5" stroke="rgb(0,0,0)"  stroke-width="1.0"/>
<line x1="104.5" y1="84.8" x2="81.8" y2="117.7" stroke="rgb(0,0,0)"  stroke-width="1.0"/>
<line x1="118.6" y1="61.6" x2="104.5" y2="84.8" stroke="rgb(0,0,0)"  stroke-width="1.0"/>
<line x1="122.2" y1="63.8" x2="108.1" y2="87.0" stroke="rgb(0,0,0)"  stroke-width="1.0"/>
<line x1="115.0" y1="59.4" x2="100.9" y2="82.7" stroke="rgb(0,0,0)"  stroke-width="1.0"/>
<line x1="52.5" y1="189.3" x2="79.0" y2="186.0" stroke="rgb(0,0,0)"  stroke-width="1.0"/>
<line x1="53.3" y1="195.2" x2="79.7" y2="192.0" stroke="rgb(0,0,0)"  stroke-width="1.0"/>
<line x1="159.9" y1="144.7" x2="140.3" y2="163.5" stroke="rgb(0,0,0)"  stroke-width="1.0"/>
<line x1="155.7" y1="140.3" x2="136.1" y2="159.2" stroke="rgb(0,0,0)"  stroke-width="1.0"/>
<line x1="81.8" y1="117.7" x2="93.2" y2="142.1" stroke="rgb(0,0,0)"  stroke-width="1.0"/>
<line x1="247.6" y1="245.8" x2="247.5" y2="218.8" stroke="rgb(0,0,0)"  stroke-width="1.0"/>
<line x1="304.8" y1="144.9" x2="281.5" y2="158.3" stroke="rgb(0,0,0)"  stroke-width="1.0"/>
<line x1="245.8" y1="112.3" x2="245.8" y2="139.0" stroke="rgb(0,0,0)"  stroke-width="1.0"/>
<line x1="211.2" y1="79.5" x2="234.6" y2="92.9" stroke="rgb(0,0,0)"  stroke-width="1.0"/>
<line x1="350.7" y1="158.2" x2="327.3" y2="144.8" stroke="rgb(0,0,0)"  stroke-width="1.0"/>
<line x1="210.5" y1="53.0" x2="211.2" y2="79.5" stroke="rgb(0,0,0)"  stroke-width="1.0"/>
<line x1="373.9" y1="144.7" x2="350.7" y2="158.2" stroke="rgb(0,0,0)"  stroke-width="1.0"/>
<line x1="92.4" y1="165.2" x2="79.3" y2="189.0" stroke="rgb(0,0,0)"  stroke-width="1.0"/>
<line x1="79.3" y1="189.0" x2="97.8" y2="208.8" stroke="rgb(0,0,0)"  stroke-width="1.0"/>
<line x1="118.4" y1="212.8" x2="143.0" y2="201.2" stroke="rgb(0,0,0)"  stroke-width="1.0"/>
<line x1="143.0" y1="201.2" x2="138.2" y2="161.3" stroke="rgb(0,0,0)"  stroke-width="1.0"/>
<line x1="138.2" y1="161.3" x2="111.4" y2="156.3" stroke="rgb(0,0,0)"  stroke-width="1.0"/>
<line x1="212.3" y1="199.5" x2="247.5" y2="218.8" stroke="rgb(0,0,0)"  stroke-width="1.0"/>
<line x1="247.5" y1="218.8" x2="282.0" y2="198.3" stroke="rgb(0,0,0)"  stroke-width="1.0"/>
<line x1="249.0" y1="209.6" x2="273.2" y2="195.2" stroke="rgb(0,0,0)"  stroke-width="1.0"/>
<line x1="282.0" y1="198.3" x2="281.5" y2="158.3" stroke="rgb(0,0,0)"  stroke-width="1.0"/>
<line x1="281.5" y1="158.3" x2="245.8" y2="139.0" stroke="rgb(0,0,0)"  stroke-width="1.0"/>
<line x1="272.8" y1="161.8" x2="247.7" y2="148.2" stroke="rgb(0,0,0)"  stroke-width="1.0"/>
<line x1="245.8" y1="139.0" x2="212.0" y2="159.5" stroke="rgb(0,0,0)"  stroke-width="1.0"/>
<line x1="212.0" y1="159.5" x2="212.3" y2="199.5" stroke="rgb(0,0,0)"  stroke-width="1.0"/>
<line x1="219.3" y1="165.4" x2="219.5" y2="193.4" stroke="rgb(0,0,0)"  stroke-width="1.0"/>
<text x="92.668888" y="161.836748" fill="rgb(12,12,255)"  stroke="rgb(12,12,255)" stroke-width="1" font-size="16" >N</text>
<text x="100.669852" y="226.339066" fill="rgb(178,178,0)"  stroke="rgb(178,178,0)" stroke-width="1" font-size="16" >S</text>
<text x="119.338768" y="58.503084" fill="rgb(102,102,102)"  stroke="rgb(102,102,102)" stroke-width="1" font-size="16" >CH</text>
<text x="34.000000" y="201.841569" fill="rgb(255,12,12)"  stroke="rgb(255,12,12)" stroke-width="1" font-size="16" >O</text>
<text x="161.171688" y="141.504601" fill="rgb(255,12,12)"  stroke="rgb(255,12,12)" stroke-width="1" font-size="16" >O</text>
<text x="241.675935" y="266.843341" fill="rgb(165,40,40)"  stroke="rgb(165,40,40)" stroke-width="1" font-size="16" >Br</text>
<text x="310.013866" y="146.339123" fill="rgb(255,12,12)"  stroke="rgb(255,12,12)" stroke-width="1" font-size="16" >O</text>
<text x="239.842986" y="107.338059" fill="rgb(255,12,12)"  stroke="rgb(255,12,12)" stroke-width="1" font-size="16" >O</text>
<text x="184.173234" y="48.000000" fill="rgb(102,102,102)"  stroke="rgb(102,102,102)" stroke-width="1" font-size="16" >H</text>
<text x="196.173234" y="51.680000" fill="rgb(102,102,102)"  stroke="rgb(102,102,102)" stroke-width="1" font-size="13" >3</text>
<text x="202.673234" y="48.000000" fill="rgb(102,102,102)"  stroke="rgb(102,102,102)" stroke-width="1" font-size="16" >C</text>
<text x="381.180989" y="146.174254" fill="rgb(102,102,102)"  stroke="rgb(102,102,102)" stroke-width="1" font-size="16" >CH</text>
<text x="405.180989" y="149.854254" fill="rgb(102,102,102)"  stroke="rgb(102,102,102)" stroke-width="1" font-size="13" >3</text>
<text font-size="18.000000" fill ="black" font-family="sans-serif"
x="10.000000" y="20.000000" ></text>
<title> - OBDepict</title>
</svg>
