<?xml version="1.0"?>
<svg xmlns="http://www.w3.org/2000/svg"
xmlns:xlink="http://www.w3.org/1999/xlink" xmlns:cml="http://www.xml-cml.org/schema" width="429.169" height="323.831" x="0" y="0" font-family="sans-serif" stroke="rgb(0,0,0)" stroke-width="1"  stroke-linecap="round">
<rect x="0%" y="0%" width="100%" height="100%" stroke-width="0" fill="rgb(255,255,255)"  />
<line x1="283.6" y1="108.3" x2="303.4" y2="143.0" stroke="rgb(0,0,0)"  stroke-width="1.0"/>
<line x1="278.4" y1="111.3" x2="298.2" y2="146.0" stroke="rgb(0,0,0)"  stroke-width="1.0"/>
<line x1="240.5" y1="109.8" x2="281.0" y2="109.8" stroke="rgb(0,0,0)"  stroke-width="1.0"/>
<line x1="389.2" y1="244.2" x2="385.2" y2="204.3" stroke="rgb(0,0,0)"  stroke-width="1.0"/>
<line x1="388.8" y1="270.8" x2="389.2" y2="244.2" stroke="rgb(0,0,0)"  stroke-width="1.0"/>
<line x1="384.6" y1="270.8" x2="385.0" y2="244.1" stroke="rgb(0,0,0)"  stroke-width="1.0"/>
<line x1="393.0" y1="270.9" x2="393.4" y2="244.2" stroke="rgb(0,0,0)"  stroke-width="1.0"/>
<line x1="308.1" y1="234.4" x2="311.0" y2="207.7" stroke="rgb(0,0,0)"  stroke-width="1.0"/>
<line x1="314.1" y1="235.1" x2="317.0" y2="208.3" stroke="rgb(0,0,0)"  stroke-width="1.0"/>
<line x1="360.9" y1="131.1" x2="342.7" y2="151.0" stroke="rgb(0,0,0)"  stroke-width="1.0"/>
<line x1="356.5" y1="127.1" x2="338.3" y2="147.0" stroke="rgb(0,0,0)"  stroke-width="1.0"/>
<line x1="385.2" y1="204.3" x2="360.2" y2="193.4" stroke="rgb(0,0,0)"  stroke-width="1.0"/>
<line x1="59.8" y1="144.2" x2="100.0" y2="144.0" stroke="rgb(0,0,0)"  stroke-width="1.0"/>
<line x1="43.9" y1="165.7" x2="57.2" y2="142.7" stroke="rgb(0,0,0)"  stroke-width="1.0"/>
<line x1="49.1" y1="168.7" x2="62.4" y2="145.7" stroke="rgb(0,0,0)"  stroke-width="1.0"/>
<line x1="167.4" y1="51.2" x2="180.8" y2="74.3" stroke="rgb(0,0,0)"  stroke-width="1.0"/>
<line x1="133.2" y1="109.3" x2="159.8" y2="109.7" stroke="rgb(0,0,0)"  stroke-width="1.0"/>
<line x1="167.0" y1="167.2" x2="180.3" y2="144.2" stroke="rgb(0,0,0)"  stroke-width="1.0"/>
<line x1="100.0" y1="144.0" x2="113.7" y2="120.4" stroke="rgb(0,0,0)"  stroke-width="1.0"/>
<line x1="180.3" y1="213.3" x2="166.9" y2="189.8" stroke="rgb(0,0,0)"  stroke-width="1.0"/>
<line x1="166.9" y1="236.4" x2="180.3" y2="213.3" stroke="rgb(0,0,0)"  stroke-width="1.0"/>
<line x1="337.1" y1="194.7" x2="314.0" y2="208.0" stroke="rgb(0,0,0)"  stroke-width="1.0"/>
<line x1="314.0" y1="208.0" x2="294.1" y2="189.6" stroke="rgb(0,0,0)"  stroke-width="1.0"/>
<line x1="289.8" y1="169.0" x2="300.8" y2="144.5" stroke="rgb(0,0,0)"  stroke-width="1.0"/>
<line x1="300.8" y1="144.5" x2="340.5" y2="149.0" stroke="rgb(0,0,0)"  stroke-width="1.0"/>
<line x1="340.5" y1="149.0" x2="345.8" y2="175.4" stroke="rgb(0,0,0)"  stroke-width="1.0"/>
<line x1="180.8" y1="74.3" x2="159.8" y2="109.7" stroke="rgb(0,0,0)"  stroke-width="1.0"/>
<line x1="184.0" y1="83.2" x2="169.1" y2="108.2" stroke="rgb(0,0,0)"  stroke-width="1.0"/>
<line x1="159.8" y1="109.7" x2="180.3" y2="144.2" stroke="rgb(0,0,0)"  stroke-width="1.0"/>
<line x1="180.3" y1="144.2" x2="220.5" y2="144.2" stroke="rgb(0,0,0)"  stroke-width="1.0"/>
<line x1="186.3" y1="137.0" x2="214.5" y2="137.0" stroke="rgb(0,0,0)"  stroke-width="1.0"/>
<line x1="220.5" y1="144.2" x2="240.5" y2="109.8" stroke="rgb(0,0,0)"  stroke-width="1.0"/>
<line x1="240.5" y1="109.8" x2="220.7" y2="74.7" stroke="rgb(0,0,0)"  stroke-width="1.0"/>
<line x1="231.3" y1="108.1" x2="217.3" y2="83.4" stroke="rgb(0,0,0)"  stroke-width="1.0"/>
<line x1="220.7" y1="74.7" x2="180.8" y2="74.3" stroke="rgb(0,0,0)"  stroke-width="1.0"/>
<text x="342.335562" y="196.166652" fill="rgb(12,12,255)"  stroke="rgb(12,12,255)" stroke-width="1" font-size="16" >N</text>
<text x="278.499425" y="188.831669" fill="rgb(178,178,0)"  stroke="rgb(178,178,0)" stroke-width="1" font-size="16" >S</text>
<text x="370.670705" y="291.831288" fill="rgb(102,102,102)"  stroke="rgb(102,102,102)" stroke-width="1" font-size="16" >HC</text>
<text x="303.670762" y="255.664740" fill="rgb(255,12,12)"  stroke="rgb(255,12,12)" stroke-width="1" font-size="16" >O</text>
<text x="361.503349" y="127.498625" fill="rgb(255,12,12)"  stroke="rgb(255,12,12)" stroke-width="1" font-size="16" >O</text>
<text x="14.000000" y="186.498031" fill="rgb(102,102,102)"  stroke="rgb(102,102,102)" stroke-width="1" font-size="16" >H</text>
<text x="26.000000" y="190.178031" fill="rgb(102,102,102)"  stroke="rgb(102,102,102)" stroke-width="1" font-size="13" >2</text>
<text x="32.500000" y="186.498031" fill="rgb(102,102,102)"  stroke="rgb(102,102,102)" stroke-width="1" font-size="16" >C</text>
<text x="154.835973" y="48.000000" fill="rgb(147,0,147)"  stroke="rgb(147,0,147)" stroke-width="1" font-size="16" >I</text>
<text x="114.171604" y="117.166709" fill="rgb(255,12,12)"  stroke="rgb(255,12,12)" stroke-width="1" font-size="16" >O</text>
<text x="154.501905" y="186.498031" fill="rgb(255,12,12)"  stroke="rgb(255,12,12)" stroke-width="1" font-size="16" >O</text>
<text x="134.337291" y="255.664740" fill="rgb(102,102,102)"  stroke="rgb(102,102,102)" stroke-width="1" font-size="16" >H</text>
<text x="146.337291" y="259.344740" fill="rgb(102,102,102)"  stroke="rgb(102,102,102)" stroke-width="1" font-size="13" >3</text>
<text x="152.837291" y="255.664740" fill="rgb(102,102,102)"  stroke="rgb(102,102,102)" stroke-width="1" font-size="16" >C</text>
<text font-size="18.000000" fill ="black" font-family="sans-serif"
x="10.000000" y="20.000000" ></text>
<title> - OBDepict</title>
</svg>
