<?xml version="1.0"?>
<svg xmlns="http://www.w3.org/2000/svg"
xmlns:xlink="http://www.w3.org/1999/xlink" xmlns:cml="http://www.xml-cml.org/schema" width="478.878" height="234.803" x="0" y="0" font-family="sans-serif" stroke="rgb(0,0,0)" stroke-width="1"  stroke-linecap="round">
<rect x="0%" y="0%" width="100%" height="100%" stroke-width="0" fill="rgb(255,255,255)"  />
<line x1="232.2" y1="111.1" x2="205.2" y2="111.0" stroke="rgb(0,0,0)"  stroke-width="1.0"/>
<line x1="232.2" y1="105.1" x2="205.3" y2="105.0" stroke="rgb(0,0,0)"  stroke-width="1.0"/>
<line x1="393.1" y1="101.6" x2="369.1" y2="88.2" stroke="rgb(0,0,0)"  stroke-width="1.0"/>
<line x1="265.6" y1="74.2" x2="251.9" y2="97.0" stroke="rgb(0,0,0)"  stroke-width="1.0"/>
<line x1="305.8" y1="74.9" x2="265.6" y2="74.2" stroke="rgb(0,0,0)"  stroke-width="1.0"/>
<line x1="233.7" y1="186.6" x2="194.6" y2="178.1" stroke="rgb(0,0,0)"  stroke-width="1.0"/>
<line x1="259.8" y1="192.1" x2="233.7" y2="186.6" stroke="rgb(0,0,0)"  stroke-width="1.0"/>
<line x1="258.9" y1="196.2" x2="232.8" y2="190.7" stroke="rgb(0,0,0)"  stroke-width="1.0"/>
<line x1="260.7" y1="188.0" x2="234.5" y2="182.5" stroke="rgb(0,0,0)"  stroke-width="1.0"/>
<line x1="404.5" y1="135.2" x2="404.5" y2="121.0" stroke="rgb(0,0,0)"  stroke-width="1.0"/>
<line x1="429.1" y1="97.1" x2="417.2" y2="104.0" stroke="rgb(0,0,0)"  stroke-width="1.0"/>
<line x1="426.1" y1="91.9" x2="414.2" y2="98.8" stroke="rgb(0,0,0)"  stroke-width="1.0"/>
<line x1="254.8" y1="49.7" x2="268.2" y2="72.7" stroke="rgb(0,0,0)"  stroke-width="1.0"/>
<line x1="249.6" y1="52.7" x2="263.1" y2="75.7" stroke="rgb(0,0,0)"  stroke-width="1.0"/>
<line x1="194.6" y1="178.1" x2="186.0" y2="151.9" stroke="rgb(0,0,0)"  stroke-width="1.0"/>
<line x1="109.3" y1="174.5" x2="109.3" y2="147.5" stroke="rgb(0,0,0)"  stroke-width="1.0"/>
<line x1="51.2" y1="73.5" x2="74.6" y2="87.5" stroke="rgb(0,0,0)"  stroke-width="1.0"/>
<line x1="205.2" y1="108.0" x2="189.6" y2="129.0" stroke="rgb(0,0,0)"  stroke-width="1.0"/>
<line x1="169.5" y1="135.6" x2="143.9" y2="127.5" stroke="rgb(0,0,0)"  stroke-width="1.0"/>
<line x1="143.9" y1="127.5" x2="143.9" y2="87.5" stroke="rgb(0,0,0)"  stroke-width="1.0"/>
<line x1="151.1" y1="121.5" x2="151.1" y2="93.5" stroke="rgb(0,0,0)"  stroke-width="1.0"/>
<line x1="143.9" y1="87.5" x2="169.6" y2="79.0" stroke="rgb(0,0,0)"  stroke-width="1.0"/>
<line x1="189.4" y1="85.5" x2="205.2" y2="108.0" stroke="rgb(0,0,0)"  stroke-width="1.0"/>
<line x1="344.4" y1="99.3" x2="369.1" y2="88.2" stroke="rgb(0,0,0)"  stroke-width="1.0"/>
<line x1="369.1" y1="88.2" x2="365.1" y2="48.9" stroke="rgb(0,0,0)"  stroke-width="1.0"/>
<line x1="361.4" y1="83.0" x2="358.6" y2="55.6" stroke="rgb(0,0,0)"  stroke-width="1.0"/>
<line x1="365.1" y1="48.9" x2="325.8" y2="40.2" stroke="rgb(0,0,0)"  stroke-width="1.0"/>
<line x1="325.8" y1="40.2" x2="305.8" y2="74.9" stroke="rgb(0,0,0)"  stroke-width="1.0"/>
<line x1="329.1" y1="49.0" x2="315.1" y2="73.3" stroke="rgb(0,0,0)"  stroke-width="1.0"/>
<line x1="305.8" y1="74.9" x2="323.8" y2="94.9" stroke="rgb(0,0,0)"  stroke-width="1.0"/>
<line x1="109.3" y1="147.5" x2="143.9" y2="127.5" stroke="rgb(0,0,0)"  stroke-width="1.0"/>
<line x1="143.9" y1="87.5" x2="109.3" y2="67.5" stroke="rgb(0,0,0)"  stroke-width="1.0"/>
<line x1="109.3" y1="67.5" x2="74.6" y2="87.5" stroke="rgb(0,0,0)"  stroke-width="1.0"/>
<line x1="107.7" y1="76.8" x2="83.4" y2="90.8" stroke="rgb(0,0,0)"  stroke-width="1.0"/>
<line x1="74.6" y1="87.5" x2="74.6" y2="127.5" stroke="rgb(0,0,0)"  stroke-width="1.0"/>
<line x1="74.6" y1="127.5" x2="109.3" y2="147.5" stroke="rgb(0,0,0)"  stroke-width="1.0"/>
<line x1="83.4" y1="124.3" x2="107.7" y2="138.3" stroke="rgb(0,0,0)"  stroke-width="1.0"/>
<text x="239.215648" y="116.187041" fill="rgb(12,12,255)"  stroke="rgb(12,12,255)" stroke-width="1" font-size="16" >N</text>
<text x="175.915733" y="147.502463" fill="rgb(12,12,255)"  stroke="rgb(12,12,255)" stroke-width="1" font-size="16" >N</text>
<text x="175.915733" y="82.874103" fill="rgb(178,178,0)"  stroke="rgb(178,178,0)" stroke-width="1" font-size="16" >S</text>
<text x="409.254497" y="103.932017" fill="rgb(12,12,255)"  stroke="rgb(12,12,255)" stroke-width="1" font-size="16" >+</text>
<text x="398.454497" y="115.964017" fill="rgb(12,12,255)"  stroke="rgb(12,12,255)" stroke-width="1" font-size="16" >N</text>
<text x="326.495448" y="112.633208" fill="rgb(255,12,12)"  stroke="rgb(255,12,12)" stroke-width="1" font-size="16" >O</text>
<text x="266.531191" y="202.802619" fill="rgb(102,102,102)"  stroke="rgb(102,102,102)" stroke-width="1" font-size="16" >CH</text>
<text x="409.254497" y="134.049597" fill="rgb(255,12,12)"  stroke="rgb(255,12,12)" stroke-width="1" font-size="16" >_</text>
<text x="398.454497" y="156.161597" fill="rgb(255,12,12)"  stroke="rgb(255,12,12)" stroke-width="1" font-size="16" >O</text>
<text x="432.877705" y="95.974315" fill="rgb(255,12,12)"  stroke="rgb(255,12,12)" stroke-width="1" font-size="16" >O</text>
<text x="239.656847" y="48.000000" fill="rgb(255,12,12)"  stroke="rgb(255,12,12)" stroke-width="1" font-size="16" >O</text>
<text x="103.292462" y="195.471930" fill="rgb(127,178,255)"  stroke="rgb(127,178,255)" stroke-width="1" font-size="16" >F</text>
<text x="34.000000" y="74.879192" fill="rgb(127,178,255)"  stroke="rgb(127,178,255)" stroke-width="1" font-size="16" >F</text>
<text font-size="18.000000" fill ="black" font-family="sans-serif"
x="10.000000" y="20.000000" ></text>
<title> - OBDepict</title>
</svg>
