<?xml version="1.0"?>
<svg xmlns="http://www.w3.org/2000/svg"
xmlns:xlink="http://www.w3.org/1999/xlink" xmlns:cml="http://www.xml-cml.org/schema" width="216.624" height="551.708" x="0" y="0" font-family="sans-serif" stroke="rgb(0,0,0)" stroke-width="1"  stroke-linecap="round">
<rect x="0%" y="0%" width="100%" height="100%" stroke-width="0" fill="rgb(255,255,255)"  />
<line x1="142.1" y1="124.9" x2="109.1" y2="147.3" stroke="rgb(0,0,0)"  stroke-width="1.0"/>
<line x1="79.0" y1="210.0" x2="82.0" y2="249.8" stroke="rgb(0,0,0)"  stroke-width="1.0"/>
<line x1="88.3" y1="329.6" x2="90.4" y2="356.5" stroke="rgb(0,0,0)"  stroke-width="1.0"/>
<line x1="101.4" y1="194.7" x2="79.0" y2="210.0" stroke="rgb(0,0,0)"  stroke-width="1.0"/>
<line x1="64.5" y1="471.9" x2="61.2" y2="431.9" stroke="rgb(0,0,0)"  stroke-width="1.0"/>
<line x1="66.5" y1="498.7" x2="64.5" y2="471.9" stroke="rgb(0,0,0)"  stroke-width="1.0"/>
<line x1="62.3" y1="499.1" x2="60.3" y2="472.2" stroke="rgb(0,0,0)"  stroke-width="1.0"/>
<line x1="70.7" y1="498.4" x2="68.6" y2="471.6" stroke="rgb(0,0,0)"  stroke-width="1.0"/>
<line x1="118.4" y1="370.4" x2="104.5" y2="371.4" stroke="rgb(0,0,0)"  stroke-width="1.0"/>
<line x1="118.0" y1="364.4" x2="104.1" y2="365.5" stroke="rgb(0,0,0)"  stroke-width="1.0"/>
<line x1="64.1" y1="368.5" x2="78.1" y2="367.4" stroke="rgb(0,0,0)"  stroke-width="1.0"/>
<line x1="64.5" y1="374.5" x2="78.6" y2="373.4" stroke="rgb(0,0,0)"  stroke-width="1.0"/>
<line x1="109.1" y1="147.3" x2="111.2" y2="174.4" stroke="rgb(0,0,0)"  stroke-width="1.0"/>
<line x1="93.4" y1="396.5" x2="92.3" y2="382.4" stroke="rgb(0,0,0)"  stroke-width="1.0"/>
<line x1="109.1" y1="102.3" x2="142.1" y2="124.9" stroke="rgb(0,0,0)"  stroke-width="1.0"/>
<line x1="56.0" y1="195.5" x2="80.3" y2="207.3" stroke="rgb(0,0,0)"  stroke-width="1.0"/>
<line x1="53.4" y1="200.9" x2="77.7" y2="212.7" stroke="rgb(0,0,0)"  stroke-width="1.0"/>
<line x1="61.2" y1="431.9" x2="83.6" y2="416.7" stroke="rgb(0,0,0)"  stroke-width="1.0"/>
<line x1="142.1" y1="124.9" x2="176.6" y2="104.9" stroke="rgb(0,0,0)"  stroke-width="1.0"/>
<line x1="176.6" y1="104.9" x2="176.6" y2="144.9" stroke="rgb(0,0,0)"  stroke-width="1.0"/>
<line x1="176.6" y1="144.9" x2="142.1" y2="124.9" stroke="rgb(0,0,0)"  stroke-width="1.0"/>
<line x1="88.3" y1="329.6" x2="52.1" y2="312.2" stroke="rgb(0,0,0)"  stroke-width="1.0"/>
<line x1="52.1" y1="312.2" x2="49.1" y2="272.4" stroke="rgb(0,0,0)"  stroke-width="1.0"/>
<line x1="58.9" y1="305.7" x2="56.7" y2="277.9" stroke="rgb(0,0,0)"  stroke-width="1.0"/>
<line x1="49.1" y1="272.4" x2="82.0" y2="249.8" stroke="rgb(0,0,0)"  stroke-width="1.0"/>
<line x1="82.0" y1="249.8" x2="118.2" y2="267.2" stroke="rgb(0,0,0)"  stroke-width="1.0"/>
<line x1="84.3" y1="258.9" x2="109.7" y2="271.1" stroke="rgb(0,0,0)"  stroke-width="1.0"/>
<line x1="118.2" y1="267.2" x2="121.2" y2="307.0" stroke="rgb(0,0,0)"  stroke-width="1.0"/>
<line x1="121.2" y1="307.0" x2="88.3" y2="329.6" stroke="rgb(0,0,0)"  stroke-width="1.0"/>
<line x1="112.2" y1="304.4" x2="89.2" y2="320.3" stroke="rgb(0,0,0)"  stroke-width="1.0"/>
<line x1="109.1" y1="102.3" x2="72.9" y2="119.4" stroke="rgb(0,0,0)"  stroke-width="1.0"/>
<line x1="100.6" y1="98.3" x2="75.3" y2="110.4" stroke="rgb(0,0,0)"  stroke-width="1.0"/>
<line x1="72.9" y1="119.4" x2="40.0" y2="97.0" stroke="rgb(0,0,0)"  stroke-width="1.0"/>
<line x1="40.0" y1="97.0" x2="43.0" y2="57.0" stroke="rgb(0,0,0)"  stroke-width="1.0"/>
<line x1="47.6" y1="91.6" x2="49.8" y2="63.5" stroke="rgb(0,0,0)"  stroke-width="1.0"/>
<line x1="43.0" y1="57.0" x2="79.0" y2="40.0" stroke="rgb(0,0,0)"  stroke-width="1.0"/>
<line x1="79.0" y1="40.0" x2="112.2" y2="62.2" stroke="rgb(0,0,0)"  stroke-width="1.0"/>
<line x1="80.0" y1="49.3" x2="103.2" y2="64.9" stroke="rgb(0,0,0)"  stroke-width="1.0"/>
<line x1="112.2" y1="62.2" x2="109.1" y2="102.3" stroke="rgb(0,0,0)"  stroke-width="1.0"/>
<text x="85.338620" y="377.430483" fill="rgb(178,178,0)"  stroke="rgb(178,178,0)" stroke-width="1" font-size="16" >S</text>
<text x="106.151181" y="195.335106" fill="rgb(12,12,255)"  stroke="rgb(12,12,255)" stroke-width="1" font-size="16" >NH</text>
<text x="61.488471" y="519.707787" fill="rgb(102,102,102)"  stroke="rgb(102,102,102)" stroke-width="1" font-size="16" >CH</text>
<text x="125.151848" y="374.397740" fill="rgb(255,12,12)"  stroke="rgb(255,12,12)" stroke-width="1" font-size="16" >O</text>
<text x="45.321917" y="380.463226" fill="rgb(255,12,12)"  stroke="rgb(255,12,12)" stroke-width="1" font-size="16" >O</text>
<text x="88.371363" y="417.447186" fill="rgb(12,12,255)"  stroke="rgb(12,12,255)" stroke-width="1" font-size="16" >NH</text>
<text x="37.032743" y="200.591537" fill="rgb(255,12,12)"  stroke="rgb(255,12,12)" stroke-width="1" font-size="16" >O</text>
<text font-size="18.000000" fill ="black" font-family="sans-serif"
x="10.000000" y="20.000000" ></text>
<title> - OBDepict</title>
</svg>
