<?xml version="1.0"?>
<svg xmlns="http://www.w3.org/2000/svg"
xmlns:xlink="http://www.w3.org/1999/xlink" xmlns:cml="http://www.xml-cml.org/schema" width="459.987" height="379.793" x="0" y="0" font-family="sans-serif" stroke="rgb(0,0,0)" stroke-width="1"  stroke-linecap="round">
<rect x="0%" y="0%" width="100%" height="100%" stroke-width="0" fill="rgb(255,255,255)"  />
<line x1="177.9" y1="240.0" x2="212.4" y2="220.0" stroke="rgb(0,0,0)"  stroke-width="1.0"/>
<line x1="143.3" y1="220.0" x2="143.3" y2="179.4" stroke="rgb(0,0,0)"  stroke-width="1.0"/>
<line x1="143.3" y1="179.4" x2="120.3" y2="166.5" stroke="rgb(0,0,0)"  stroke-width="1.0"/>
<line x1="141.8" y1="176.8" x2="165.8" y2="163.3" stroke="rgb(0,0,0)"  stroke-width="1.0"/>
<line x1="144.8" y1="182.0" x2="168.8" y2="168.6" stroke="rgb(0,0,0)"  stroke-width="1.0"/>
<line x1="108.7" y1="240.0" x2="85.1" y2="226.6" stroke="rgb(0,0,0)"  stroke-width="1.0"/>
<line x1="146.1" y1="299.6" x2="146.1" y2="326.8" stroke="rgb(0,0,0)"  stroke-width="1.0"/>
<line x1="140.1" y1="299.6" x2="140.1" y2="326.8" stroke="rgb(0,0,0)"  stroke-width="1.0"/>
<line x1="281.7" y1="219.6" x2="305.8" y2="233.2" stroke="rgb(0,0,0)"  stroke-width="1.0"/>
<line x1="109.1" y1="147.2" x2="109.3" y2="120.0" stroke="rgb(0,0,0)"  stroke-width="1.0"/>
<line x1="281.7" y1="179.8" x2="305.1" y2="166.2" stroke="rgb(0,0,0)"  stroke-width="1.0"/>
<line x1="328.3" y1="233.1" x2="351.6" y2="219.6" stroke="rgb(0,0,0)"  stroke-width="1.0"/>
<line x1="327.5" y1="166.2" x2="350.9" y2="179.8" stroke="rgb(0,0,0)"  stroke-width="1.0"/>
<line x1="351.6" y1="219.6" x2="374.9" y2="232.8" stroke="rgb(0,0,0)"  stroke-width="1.0"/>
<line x1="74.4" y1="100.4" x2="51.3" y2="113.7" stroke="rgb(0,0,0)"  stroke-width="1.0"/>
<line x1="350.9" y1="179.8" x2="385.4" y2="159.6" stroke="rgb(0,0,0)"  stroke-width="1.0"/>
<line x1="385.4" y1="159.6" x2="408.7" y2="146.3" stroke="rgb(0,0,0)"  stroke-width="1.0"/>
<line x1="383.3" y1="156.0" x2="406.6" y2="142.6" stroke="rgb(0,0,0)"  stroke-width="1.0"/>
<line x1="387.5" y1="163.3" x2="410.8" y2="149.9" stroke="rgb(0,0,0)"  stroke-width="1.0"/>
<line x1="177.9" y1="240.0" x2="177.9" y2="266.4" stroke="rgb(0,0,0)"  stroke-width="1.0"/>
<line x1="166.6" y1="285.9" x2="143.1" y2="299.6" stroke="rgb(0,0,0)"  stroke-width="1.0"/>
<line x1="143.1" y1="299.6" x2="120.1" y2="286.0" stroke="rgb(0,0,0)"  stroke-width="1.0"/>
<line x1="108.9" y1="266.4" x2="108.7" y2="240.0" stroke="rgb(0,0,0)"  stroke-width="1.0"/>
<line x1="108.7" y1="240.0" x2="143.3" y2="220.0" stroke="rgb(0,0,0)"  stroke-width="1.0"/>
<line x1="117.5" y1="243.2" x2="141.7" y2="229.2" stroke="rgb(0,0,0)"  stroke-width="1.0"/>
<line x1="143.3" y1="220.0" x2="177.9" y2="240.0" stroke="rgb(0,0,0)"  stroke-width="1.0"/>
<line x1="212.4" y1="220.0" x2="212.0" y2="179.8" stroke="rgb(0,0,0)"  stroke-width="1.0"/>
<line x1="212.0" y1="179.8" x2="246.8" y2="159.6" stroke="rgb(0,0,0)"  stroke-width="1.0"/>
<line x1="220.8" y1="183.0" x2="245.2" y2="168.8" stroke="rgb(0,0,0)"  stroke-width="1.0"/>
<line x1="246.8" y1="159.6" x2="281.7" y2="179.8" stroke="rgb(0,0,0)"  stroke-width="1.0"/>
<line x1="281.7" y1="179.8" x2="281.7" y2="219.6" stroke="rgb(0,0,0)"  stroke-width="1.0"/>
<line x1="274.5" y1="185.8" x2="274.5" y2="213.6" stroke="rgb(0,0,0)"  stroke-width="1.0"/>
<line x1="281.7" y1="219.6" x2="246.8" y2="239.6" stroke="rgb(0,0,0)"  stroke-width="1.0"/>
<line x1="246.8" y1="239.6" x2="212.4" y2="220.0" stroke="rgb(0,0,0)"  stroke-width="1.0"/>
<line x1="245.1" y1="230.4" x2="221.2" y2="216.7" stroke="rgb(0,0,0)"  stroke-width="1.0"/>
<line x1="109.3" y1="120.0" x2="143.9" y2="99.8" stroke="rgb(0,0,0)"  stroke-width="1.0"/>
<line x1="110.9" y1="110.8" x2="135.1" y2="96.6" stroke="rgb(0,0,0)"  stroke-width="1.0"/>
<line x1="143.9" y1="99.8" x2="143.9" y2="60.4" stroke="rgb(0,0,0)"  stroke-width="1.0"/>
<line x1="143.9" y1="60.4" x2="109.3" y2="40.0" stroke="rgb(0,0,0)"  stroke-width="1.0"/>
<line x1="135.1" y1="63.5" x2="110.8" y2="49.2" stroke="rgb(0,0,0)"  stroke-width="1.0"/>
<line x1="109.3" y1="40.0" x2="74.4" y2="60.2" stroke="rgb(0,0,0)"  stroke-width="1.0"/>
<line x1="74.4" y1="60.2" x2="74.4" y2="100.4" stroke="rgb(0,0,0)"  stroke-width="1.0"/>
<line x1="81.6" y1="66.2" x2="81.6" y2="94.4" stroke="rgb(0,0,0)"  stroke-width="1.0"/>
<line x1="74.4" y1="100.4" x2="109.3" y2="120.0" stroke="rgb(0,0,0)"  stroke-width="1.0"/>
<text x="171.858073" y="287.406549" fill="rgb(12,12,255)"  stroke="rgb(12,12,255)" stroke-width="1" font-size="16" >NH</text>
<text x="90.931463" y="168.190929" fill="rgb(12,12,255)"  stroke="rgb(12,12,255)" stroke-width="1" font-size="16" >HN</text>
<text x="172.634438" y="167.608655" fill="rgb(255,12,12)"  stroke="rgb(255,12,12)" stroke-width="1" font-size="16" >O</text>
<text x="90.931463" y="287.406549" fill="rgb(12,12,255)"  stroke="rgb(12,12,255)" stroke-width="1" font-size="16" >HN</text>
<text x="47.781560" y="228.189347" fill="rgb(102,102,102)"  stroke="rgb(102,102,102)" stroke-width="1" font-size="16" >H</text>
<text x="59.781560" y="231.869347" fill="rgb(102,102,102)"  stroke="rgb(102,102,102)" stroke-width="1" font-size="13" >3</text>
<text x="66.281560" y="228.189347" fill="rgb(102,102,102)"  stroke="rgb(102,102,102)" stroke-width="1" font-size="16" >C</text>
<text x="137.106057" y="347.793151" fill="rgb(255,12,12)"  stroke="rgb(255,12,12)" stroke-width="1" font-size="16" >O</text>
<text x="311.074784" y="247.603312" fill="rgb(255,12,12)"  stroke="rgb(255,12,12)" stroke-width="1" font-size="16" >O</text>
<text x="310.298420" y="167.608655" fill="rgb(255,12,12)"  stroke="rgb(255,12,12)" stroke-width="1" font-size="16" >O</text>
<text x="382.200338" y="247.215130" fill="rgb(102,102,102)"  stroke="rgb(102,102,102)" stroke-width="1" font-size="16" >CH</text>
<text x="406.200338" y="250.895130" fill="rgb(102,102,102)"  stroke="rgb(102,102,102)" stroke-width="1" font-size="13" >3</text>
<text x="14.000000" y="128.188748" fill="rgb(102,102,102)"  stroke="rgb(102,102,102)" stroke-width="1" font-size="16" >H</text>
<text x="26.000000" y="131.868748" fill="rgb(102,102,102)"  stroke="rgb(102,102,102)" stroke-width="1" font-size="13" >3</text>
<text x="32.500000" y="128.188748" fill="rgb(102,102,102)"  stroke="rgb(102,102,102)" stroke-width="1" font-size="16" >C</text>
<text x="413.986751" y="147.801656" fill="rgb(102,102,102)"  stroke="rgb(102,102,102)" stroke-width="1" font-size="16" >CH</text>
<text font-size="18.000000" fill ="black" font-family="sans-serif"
x="10.000000" y="20.000000" ></text>
<title> - OBDepict</title>
</svg>
