<?xml version="1.0"?>
<svg xmlns="http://www.w3.org/2000/svg"
xmlns:xlink="http://www.w3.org/1999/xlink" xmlns:cml="http://www.xml-cml.org/schema" width="521.055" height="425.068" x="0" y="0" font-family="sans-serif" stroke="rgb(0,0,0)" stroke-width="1"  stroke-linecap="round">
<rect x="0%" y="0%" width="100%" height="100%" stroke-width="0" fill="rgb(255,255,255)"  />
<line x1="80.8" y1="254.7" x2="102.0" y2="238.4" stroke="rgb(0,0,0)"  stroke-width="1.0"/>
<line x1="246.6" y1="74.7" x2="235.1" y2="113.1" stroke="rgb(0,0,0)"  stroke-width="1.0"/>
<line x1="299.4" y1="147.4" x2="259.4" y2="148.1" stroke="rgb(0,0,0)"  stroke-width="1.0"/>
<line x1="299.3" y1="141.4" x2="259.3" y2="142.1" stroke="rgb(0,0,0)"  stroke-width="1.0"/>
<line x1="166.0" y1="190.4" x2="187.7" y2="173.9" stroke="rgb(0,0,0)"  stroke-width="1.0"/>
<line x1="382.6" y1="350.6" x2="362.4" y2="316.4" stroke="rgb(0,0,0)"  stroke-width="1.0"/>
<line x1="396.6" y1="373.9" x2="382.6" y2="350.6" stroke="rgb(0,0,0)"  stroke-width="1.0"/>
<line x1="393.0" y1="376.1" x2="379.0" y2="352.8" stroke="rgb(0,0,0)"  stroke-width="1.0"/>
<line x1="400.2" y1="371.8" x2="386.2" y2="348.5" stroke="rgb(0,0,0)"  stroke-width="1.0"/>
<line x1="85.3" y1="285.7" x2="76.3" y2="274.6" stroke="rgb(0,0,0)"  stroke-width="1.0"/>
<line x1="89.9" y1="282.0" x2="80.9" y2="270.9" stroke="rgb(0,0,0)"  stroke-width="1.0"/>
<line x1="55.6" y1="238.3" x2="64.9" y2="250.5" stroke="rgb(0,0,0)"  stroke-width="1.0"/>
<line x1="50.8" y1="241.9" x2="60.2" y2="254.1" stroke="rgb(0,0,0)"  stroke-width="1.0"/>
<line x1="242.3" y1="204.4" x2="233.6" y2="179.0" stroke="rgb(0,0,0)"  stroke-width="1.0"/>
<line x1="247.9" y1="202.5" x2="239.3" y2="177.0" stroke="rgb(0,0,0)"  stroke-width="1.0"/>
<line x1="319.7" y1="178.6" x2="299.3" y2="144.4" stroke="rgb(0,0,0)"  stroke-width="1.0"/>
<line x1="50.3" y1="278.1" x2="60.1" y2="270.5" stroke="rgb(0,0,0)"  stroke-width="1.0"/>
<line x1="273.0" y1="64.1" x2="246.6" y2="74.7" stroke="rgb(0,0,0)"  stroke-width="1.0"/>
<line x1="230.6" y1="50.8" x2="246.6" y2="74.7" stroke="rgb(0,0,0)"  stroke-width="1.0"/>
<line x1="253.8" y1="52.4" x2="246.6" y2="74.7" stroke="rgb(0,0,0)"  stroke-width="1.0"/>
<line x1="407.4" y1="211.5" x2="380.4" y2="212.0" stroke="rgb(0,0,0)"  stroke-width="1.0"/>
<line x1="375.0" y1="270.2" x2="361.1" y2="247.3" stroke="rgb(0,0,0)"  stroke-width="1.0"/>
<line x1="362.4" y1="316.4" x2="375.5" y2="292.7" stroke="rgb(0,0,0)"  stroke-width="1.0"/>
<line x1="441.1" y1="245.8" x2="427.1" y2="222.5" stroke="rgb(0,0,0)"  stroke-width="1.0"/>
<line x1="468.1" y1="245.3" x2="441.1" y2="245.8" stroke="rgb(0,0,0)"  stroke-width="1.0"/>
<line x1="259.3" y1="145.1" x2="235.1" y2="113.1" stroke="rgb(0,0,0)"  stroke-width="1.0"/>
<line x1="235.1" y1="113.1" x2="209.8" y2="121.7" stroke="rgb(0,0,0)"  stroke-width="1.0"/>
<line x1="231.7" y1="121.9" x2="214.0" y2="127.9" stroke="rgb(0,0,0)"  stroke-width="1.0"/>
<line x1="197.5" y1="139.0" x2="197.8" y2="153.0" stroke="rgb(0,0,0)"  stroke-width="1.0"/>
<line x1="210.4" y1="169.9" x2="236.4" y2="178.0" stroke="rgb(0,0,0)"  stroke-width="1.0"/>
<line x1="236.4" y1="178.0" x2="259.3" y2="145.1" stroke="rgb(0,0,0)"  stroke-width="1.0"/>
<line x1="166.0" y1="190.4" x2="171.1" y2="230.0" stroke="rgb(0,0,0)"  stroke-width="1.0"/>
<line x1="159.6" y1="197.3" x2="163.2" y2="225.0" stroke="rgb(0,0,0)"  stroke-width="1.0"/>
<line x1="171.1" y1="230.0" x2="139.1" y2="254.0" stroke="rgb(0,0,0)"  stroke-width="1.0"/>
<line x1="139.1" y1="254.0" x2="102.0" y2="238.4" stroke="rgb(0,0,0)"  stroke-width="1.0"/>
<line x1="136.3" y1="245.0" x2="110.3" y2="234.1" stroke="rgb(0,0,0)"  stroke-width="1.0"/>
<line x1="102.0" y1="238.4" x2="97.3" y2="198.7" stroke="rgb(0,0,0)"  stroke-width="1.0"/>
<line x1="97.3" y1="198.7" x2="129.3" y2="174.7" stroke="rgb(0,0,0)"  stroke-width="1.0"/>
<line x1="106.4" y1="200.8" x2="128.8" y2="184.0" stroke="rgb(0,0,0)"  stroke-width="1.0"/>
<line x1="129.3" y1="174.7" x2="166.0" y2="190.4" stroke="rgb(0,0,0)"  stroke-width="1.0"/>
<line x1="380.4" y1="212.0" x2="361.1" y2="247.3" stroke="rgb(0,0,0)"  stroke-width="1.0"/>
<line x1="371.2" y1="213.8" x2="357.6" y2="238.6" stroke="rgb(0,0,0)"  stroke-width="1.0"/>
<line x1="361.1" y1="247.3" x2="321.1" y2="248.0" stroke="rgb(0,0,0)"  stroke-width="1.0"/>
<line x1="321.1" y1="248.0" x2="300.4" y2="213.3" stroke="rgb(0,0,0)"  stroke-width="1.0"/>
<line x1="324.2" y1="239.1" x2="309.7" y2="214.8" stroke="rgb(0,0,0)"  stroke-width="1.0"/>
<line x1="300.4" y1="213.3" x2="319.7" y2="178.6" stroke="rgb(0,0,0)"  stroke-width="1.0"/>
<line x1="319.7" y1="178.6" x2="359.7" y2="178.0" stroke="rgb(0,0,0)"  stroke-width="1.0"/>
<line x1="325.9" y1="185.7" x2="353.9" y2="185.3" stroke="rgb(0,0,0)"  stroke-width="1.0"/>
<line x1="359.7" y1="178.0" x2="380.4" y2="212.0" stroke="rgb(0,0,0)"  stroke-width="1.0"/>
<text x="191.316739" y="133.989409" fill="rgb(12,12,255)"  stroke="rgb(12,12,255)" stroke-width="1" font-size="16" >N</text>
<text x="191.980993" y="173.985272" fill="rgb(12,12,255)"  stroke="rgb(12,12,255)" stroke-width="1" font-size="16" >N</text>
<text x="64.439329" y="270.641537" fill="rgb(178,178,0)"  stroke="rgb(178,178,0)" stroke-width="1" font-size="16" >S</text>
<text x="397.288888" y="393.067958" fill="rgb(102,102,102)"  stroke="rgb(102,102,102)" stroke-width="1" font-size="16" >CH</text>
<text x="89.768265" y="301.973004" fill="rgb(255,12,12)"  stroke="rgb(255,12,12)" stroke-width="1" font-size="16" >O</text>
<text x="39.333428" y="237.753679" fill="rgb(255,12,12)"  stroke="rgb(255,12,12)" stroke-width="1" font-size="16" >O</text>
<text x="243.307967" y="223.755854" fill="rgb(255,12,12)"  stroke="rgb(255,12,12)" stroke-width="1" font-size="16" >O</text>
<text x="14.000000" y="293.972861" fill="rgb(12,12,255)"  stroke="rgb(12,12,255)" stroke-width="1" font-size="16" >H</text>
<text x="26.000000" y="297.652861" fill="rgb(12,12,255)"  stroke="rgb(12,12,255)" stroke-width="1" font-size="13" >2</text>
<text x="32.500000" y="293.972861" fill="rgb(12,12,255)"  stroke="rgb(12,12,255)" stroke-width="1" font-size="16" >N</text>
<text x="279.080724" y="67.331253" fill="rgb(127,178,255)"  stroke="rgb(127,178,255)" stroke-width="1" font-size="16" >F</text>
<text x="217.309928" y="48.000000" fill="rgb(127,178,255)"  stroke="rgb(127,178,255)" stroke-width="1" font-size="16" >F</text>
<text x="251.749329" y="48.000000" fill="rgb(127,178,255)"  stroke="rgb(127,178,255)" stroke-width="1" font-size="16" >F</text>
<text x="414.399496" y="219.314563" fill="rgb(255,12,12)"  stroke="rgb(255,12,12)" stroke-width="1" font-size="16" >O</text>
<text x="375.736990" y="289.308536" fill="rgb(255,12,12)"  stroke="rgb(255,12,12)" stroke-width="1" font-size="16" >O</text>
<text x="477.055120" y="253.084861" fill="rgb(102,102,102)"  stroke="rgb(102,102,102)" stroke-width="1" font-size="16" >CH</text>
<text x="501.055120" y="256.764861" fill="rgb(102,102,102)"  stroke="rgb(102,102,102)" stroke-width="1" font-size="13" >3</text>
<text font-size="18.000000" fill ="black" font-family="sans-serif"
x="10.000000" y="20.000000" ></text>
<title> - OBDepict</title>
</svg>
