<?xml version="1.0"?>
<svg xmlns="http://www.w3.org/2000/svg"
xmlns:xlink="http://www.w3.org/1999/xlink" xmlns:cml="http://www.xml-cml.org/schema" width="218.597" height="440.02" x="0" y="0" font-family="sans-serif" stroke="rgb(0,0,0)" stroke-width="1"  stroke-linecap="round">
<rect x="0%" y="0%" width="100%" height="100%" stroke-width="0" fill="rgb(255,255,255)"  />
<line x1="109.3" y1="360.0" x2="109.3" y2="320.0" stroke="rgb(0,0,0)"  stroke-width="1.0"/>
<line x1="74.8" y1="140.0" x2="74.8" y2="180.0" stroke="rgb(0,0,0)"  stroke-width="1.0"/>
<line x1="144.0" y1="60.0" x2="109.3" y2="80.0" stroke="rgb(0,0,0)"  stroke-width="1.0"/>
<line x1="167.3" y1="46.5" x2="144.0" y2="60.0" stroke="rgb(0,0,0)"  stroke-width="1.0"/>
<line x1="169.5" y1="50.1" x2="146.2" y2="63.6" stroke="rgb(0,0,0)"  stroke-width="1.0"/>
<line x1="165.2" y1="42.9" x2="141.9" y2="56.4" stroke="rgb(0,0,0)"  stroke-width="1.0"/>
<line x1="52.8" y1="123.9" x2="76.2" y2="137.4" stroke="rgb(0,0,0)"  stroke-width="1.0"/>
<line x1="49.8" y1="129.1" x2="73.3" y2="142.6" stroke="rgb(0,0,0)"  stroke-width="1.0"/>
<line x1="74.8" y1="287.0" x2="74.8" y2="260.0" stroke="rgb(0,0,0)"  stroke-width="1.0"/>
<line x1="109.3" y1="320.0" x2="86.0" y2="306.5" stroke="rgb(0,0,0)"  stroke-width="1.0"/>
<line x1="98.0" y1="126.5" x2="74.8" y2="140.0" stroke="rgb(0,0,0)"  stroke-width="1.0"/>
<line x1="136.3" y1="360.0" x2="109.3" y2="360.0" stroke="rgb(0,0,0)"  stroke-width="1.0"/>
<line x1="82.3" y1="360.0" x2="109.3" y2="360.0" stroke="rgb(0,0,0)"  stroke-width="1.0"/>
<line x1="109.3" y1="387.0" x2="109.3" y2="360.0" stroke="rgb(0,0,0)"  stroke-width="1.0"/>
<line x1="109.3" y1="80.0" x2="109.3" y2="107.0" stroke="rgb(0,0,0)"  stroke-width="1.0"/>
<line x1="74.8" y1="180.0" x2="109.3" y2="200.0" stroke="rgb(0,0,0)"  stroke-width="1.0"/>
<line x1="109.3" y1="200.0" x2="109.3" y2="240.0" stroke="rgb(0,0,0)"  stroke-width="1.0"/>
<line x1="102.1" y1="206.0" x2="102.1" y2="234.0" stroke="rgb(0,0,0)"  stroke-width="1.0"/>
<line x1="109.3" y1="240.0" x2="74.8" y2="260.0" stroke="rgb(0,0,0)"  stroke-width="1.0"/>
<line x1="74.8" y1="260.0" x2="51.5" y2="246.6" stroke="rgb(0,0,0)"  stroke-width="1.0"/>
<line x1="73.1" y1="250.8" x2="56.8" y2="241.4" stroke="rgb(0,0,0)"  stroke-width="1.0"/>
<line x1="40.0" y1="227.0" x2="40.0" y2="200.0" stroke="rgb(0,0,0)"  stroke-width="1.0"/>
<line x1="40.0" y1="200.0" x2="74.8" y2="180.0" stroke="rgb(0,0,0)"  stroke-width="1.0"/>
<line x1="48.8" y1="203.3" x2="73.1" y2="189.2" stroke="rgb(0,0,0)"  stroke-width="1.0"/>
<text x="34.000000" y="248.010868" fill="rgb(12,12,255)"  stroke="rgb(12,12,255)" stroke-width="1" font-size="16" >N</text>
<text x="172.596622" y="48.000000" fill="rgb(102,102,102)"  stroke="rgb(102,102,102)" stroke-width="1" font-size="16" >CH</text>
<text x="34.000000" y="128.004347" fill="rgb(255,12,12)"  stroke="rgb(255,12,12)" stroke-width="1" font-size="16" >O</text>
<text x="68.750979" y="308.014129" fill="rgb(255,12,12)"  stroke="rgb(255,12,12)" stroke-width="1" font-size="16" >O</text>
<text x="103.298311" y="128.004347" fill="rgb(12,12,255)"  stroke="rgb(12,12,255)" stroke-width="1" font-size="16" >NH</text>
<text x="143.300485" y="368.017389" fill="rgb(127,178,255)"  stroke="rgb(127,178,255)" stroke-width="1" font-size="16" >F</text>
<text x="63.296137" y="368.017389" fill="rgb(127,178,255)"  stroke="rgb(127,178,255)" stroke-width="1" font-size="16" >F</text>
<text x="103.298311" y="408.019563" fill="rgb(127,178,255)"  stroke="rgb(127,178,255)" stroke-width="1" font-size="16" >F</text>
<text font-size="18.000000" fill ="black" font-family="sans-serif"
x="10.000000" y="20.000000" ></text>
<title> - OBDepict</title>
</svg>
