<?xml version="1.0"?>
<svg xmlns="http://www.w3.org/2000/svg"
xmlns:xlink="http://www.w3.org/1999/xlink" xmlns:cml="http://www.xml-cml.org/schema" width="464.933" height="352.761" x="0" y="0" font-family="sans-serif" stroke="rgb(0,0,0)" stroke-width="1"  stroke-linecap="round">
<rect x="0%" y="0%" width="100%" height="100%" stroke-width="0" fill="rgb(255,255,255)"  />
<line x1="154.5" y1="192.0" x2="185.3" y2="217.2" stroke="rgb(0,0,0)"  stroke-width="1.0"/>
<line x1="150.7" y1="196.7" x2="181.5" y2="221.9" stroke="rgb(0,0,0)"  stroke-width="1.0"/>
<line x1="114.8" y1="208.9" x2="152.6" y2="194.3" stroke="rgb(0,0,0)"  stroke-width="1.0"/>
<line x1="283.9" y1="245.2" x2="256.9" y2="243.5" stroke="rgb(0,0,0)"  stroke-width="1.0"/>
<line x1="222.6" y1="301.0" x2="215.6" y2="275.0" stroke="rgb(0,0,0)"  stroke-width="1.0"/>
<line x1="228.4" y1="299.4" x2="221.4" y2="273.5" stroke="rgb(0,0,0)"  stroke-width="1.0"/>
<line x1="65.4" y1="79.3" x2="59.2" y2="118.7" stroke="rgb(0,0,0)"  stroke-width="1.0"/>
<line x1="69.5" y1="52.8" x2="65.4" y2="79.3" stroke="rgb(0,0,0)"  stroke-width="1.0"/>
<line x1="73.6" y1="53.5" x2="69.6" y2="80.0" stroke="rgb(0,0,0)"  stroke-width="1.0"/>
<line x1="65.3" y1="52.2" x2="61.3" y2="78.7" stroke="rgb(0,0,0)"  stroke-width="1.0"/>
<line x1="234.8" y1="185.1" x2="225.0" y2="210.4" stroke="rgb(0,0,0)"  stroke-width="1.0"/>
<line x1="229.2" y1="183.0" x2="219.4" y2="208.2" stroke="rgb(0,0,0)"  stroke-width="1.0"/>
<line x1="305.7" y1="211.9" x2="283.9" y2="245.2" stroke="rgb(0,0,0)"  stroke-width="1.0"/>
<line x1="66.8" y1="289.2" x2="70.9" y2="262.7" stroke="rgb(0,0,0)"  stroke-width="1.0"/>
<line x1="87.9" y1="156.9" x2="83.6" y2="183.4" stroke="rgb(0,0,0)"  stroke-width="1.0"/>
<line x1="345.6" y1="214.1" x2="305.7" y2="211.9" stroke="rgb(0,0,0)"  stroke-width="1.0"/>
<line x1="59.2" y1="118.7" x2="80.0" y2="135.8" stroke="rgb(0,0,0)"  stroke-width="1.0"/>
<line x1="235.8" y1="252.9" x2="218.5" y2="274.2" stroke="rgb(0,0,0)"  stroke-width="1.0"/>
<line x1="218.5" y1="274.2" x2="193.1" y2="264.4" stroke="rgb(0,0,0)"  stroke-width="1.0"/>
<line x1="181.8" y1="246.7" x2="183.4" y2="219.6" stroke="rgb(0,0,0)"  stroke-width="1.0"/>
<line x1="183.4" y1="219.6" x2="222.2" y2="209.3" stroke="rgb(0,0,0)"  stroke-width="1.0"/>
<line x1="222.2" y1="209.3" x2="236.9" y2="231.9" stroke="rgb(0,0,0)"  stroke-width="1.0"/>
<line x1="114.8" y1="208.9" x2="83.6" y2="183.4" stroke="rgb(0,0,0)"  stroke-width="1.0"/>
<line x1="105.6" y1="210.7" x2="83.7" y2="192.8" stroke="rgb(0,0,0)"  stroke-width="1.0"/>
<line x1="83.6" y1="183.4" x2="46.5" y2="197.8" stroke="rgb(0,0,0)"  stroke-width="1.0"/>
<line x1="46.5" y1="197.8" x2="40.0" y2="237.3" stroke="rgb(0,0,0)"  stroke-width="1.0"/>
<line x1="52.6" y1="204.8" x2="48.1" y2="232.5" stroke="rgb(0,0,0)"  stroke-width="1.0"/>
<line x1="40.0" y1="237.3" x2="70.9" y2="262.7" stroke="rgb(0,0,0)"  stroke-width="1.0"/>
<line x1="70.9" y1="262.7" x2="108.4" y2="248.2" stroke="rgb(0,0,0)"  stroke-width="1.0"/>
<line x1="73.9" y1="253.8" x2="100.2" y2="243.7" stroke="rgb(0,0,0)"  stroke-width="1.0"/>
<line x1="108.4" y1="248.2" x2="114.8" y2="208.9" stroke="rgb(0,0,0)"  stroke-width="1.0"/>
<line x1="345.6" y1="214.1" x2="363.2" y2="249.8" stroke="rgb(0,0,0)"  stroke-width="1.0"/>
<line x1="354.8" y1="216.3" x2="367.0" y2="241.3" stroke="rgb(0,0,0)"  stroke-width="1.0"/>
<line x1="363.2" y1="249.8" x2="403.1" y2="251.8" stroke="rgb(0,0,0)"  stroke-width="1.0"/>
<line x1="403.1" y1="251.8" x2="424.9" y2="218.5" stroke="rgb(0,0,0)"  stroke-width="1.0"/>
<line x1="400.4" y1="242.9" x2="415.6" y2="219.6" stroke="rgb(0,0,0)"  stroke-width="1.0"/>
<line x1="424.9" y1="218.5" x2="407.2" y2="182.8" stroke="rgb(0,0,0)"  stroke-width="1.0"/>
<line x1="407.2" y1="182.8" x2="367.2" y2="180.4" stroke="rgb(0,0,0)"  stroke-width="1.0"/>
<line x1="400.7" y1="189.7" x2="372.8" y2="188.0" stroke="rgb(0,0,0)"  stroke-width="1.0"/>
<line x1="367.2" y1="180.4" x2="345.6" y2="214.1" stroke="rgb(0,0,0)"  stroke-width="1.0"/>
<text x="237.963339" y="250.756456" fill="rgb(12,12,255)"  stroke="rgb(12,12,255)" stroke-width="1" font-size="16" >N</text>
<text x="175.021206" y="267.701296" fill="rgb(178,178,0)"  stroke="rgb(178,178,0)" stroke-width="1" font-size="16" >S</text>
<text x="222.831248" y="320.760555" fill="rgb(178,178,0)"  stroke="rgb(178,178,0)" stroke-width="1" font-size="16" >S</text>
<text x="65.471067" y="48.000000" fill="rgb(102,102,102)"  stroke="rgb(102,102,102)" stroke-width="1" font-size="16" >CH</text>
<text x="230.702650" y="179.942920" fill="rgb(255,12,12)"  stroke="rgb(255,12,12)" stroke-width="1" font-size="16" >O</text>
<text x="46.811396" y="310.068244" fill="rgb(165,40,40)"  stroke="rgb(165,40,40)" stroke-width="1" font-size="16" >Br</text>
<text x="84.029932" y="152.102198" fill="rgb(255,12,12)"  stroke="rgb(255,12,12)" stroke-width="1" font-size="16" >O</text>
<text font-size="18.000000" fill ="black" font-family="sans-serif"
x="10.000000" y="20.000000" ></text>
<title> - OBDepict</title>
</svg>
