<?xml version="1.0"?>
<svg xmlns="http://www.w3.org/2000/svg"
xmlns:xlink="http://www.w3.org/1999/xlink" xmlns:cml="http://www.xml-cml.org/schema" width="411.915" height="366.257" x="0" y="0" font-family="sans-serif" stroke="rgb(0,0,0)" stroke-width="1"  stroke-linecap="round">
<rect x="0%" y="0%" width="100%" height="100%" stroke-width="0" fill="rgb(255,255,255)"  />
<line x1="188.3" y1="169.4" x2="165.0" y2="183.2" stroke="rgb(0,0,0)"  stroke-width="1.0"/>
<line x1="185.3" y1="164.2" x2="161.9" y2="178.0" stroke="rgb(0,0,0)"  stroke-width="1.0"/>
<line x1="326.4" y1="113.3" x2="302.2" y2="100.0" stroke="rgb(0,0,0)"  stroke-width="1.0"/>
<line x1="198.0" y1="120.0" x2="198.0" y2="147.2" stroke="rgb(0,0,0)"  stroke-width="1.0"/>
<line x1="232.5" y1="100.0" x2="198.0" y2="120.0" stroke="rgb(0,0,0)"  stroke-width="1.0"/>
<line x1="179.8" y1="287.3" x2="188.9" y2="248.1" stroke="rgb(0,0,0)"  stroke-width="1.0"/>
<line x1="174.1" y1="313.6" x2="179.8" y2="287.3" stroke="rgb(0,0,0)"  stroke-width="1.0"/>
<line x1="170.0" y1="312.7" x2="175.7" y2="286.4" stroke="rgb(0,0,0)"  stroke-width="1.0"/>
<line x1="178.2" y1="314.4" x2="183.9" y2="288.2" stroke="rgb(0,0,0)"  stroke-width="1.0"/>
<line x1="337.5" y1="146.6" x2="337.6" y2="132.6" stroke="rgb(0,0,0)"  stroke-width="1.0"/>
<line x1="362.2" y1="108.9" x2="350.5" y2="115.7" stroke="rgb(0,0,0)"  stroke-width="1.0"/>
<line x1="359.2" y1="103.7" x2="347.5" y2="110.5" stroke="rgb(0,0,0)"  stroke-width="1.0"/>
<line x1="175.6" y1="103.8" x2="199.5" y2="117.4" stroke="rgb(0,0,0)"  stroke-width="1.0"/>
<line x1="172.6" y1="109.0" x2="196.5" y2="122.6" stroke="rgb(0,0,0)"  stroke-width="1.0"/>
<line x1="188.9" y1="248.1" x2="168.5" y2="229.1" stroke="rgb(0,0,0)"  stroke-width="1.0"/>
<line x1="112.3" y1="285.8" x2="99.2" y2="262.0" stroke="rgb(0,0,0)"  stroke-width="1.0"/>
<line x1="163.4" y1="180.6" x2="139.5" y2="169.4" stroke="rgb(0,0,0)"  stroke-width="1.0"/>
<line x1="118.8" y1="173.3" x2="100.4" y2="192.9" stroke="rgb(0,0,0)"  stroke-width="1.0"/>
<line x1="100.4" y1="192.9" x2="119.8" y2="228.1" stroke="rgb(0,0,0)"  stroke-width="1.0"/>
<line x1="109.6" y1="194.7" x2="123.2" y2="219.3" stroke="rgb(0,0,0)"  stroke-width="1.0"/>
<line x1="119.8" y1="228.1" x2="146.2" y2="222.8" stroke="rgb(0,0,0)"  stroke-width="1.0"/>
<line x1="160.4" y1="207.3" x2="163.4" y2="180.6" stroke="rgb(0,0,0)"  stroke-width="1.0"/>
<line x1="302.2" y1="100.0" x2="302.2" y2="60.4" stroke="rgb(0,0,0)"  stroke-width="1.0"/>
<line x1="295.0" y1="94.0" x2="295.0" y2="66.4" stroke="rgb(0,0,0)"  stroke-width="1.0"/>
<line x1="302.2" y1="60.4" x2="267.7" y2="40.0" stroke="rgb(0,0,0)"  stroke-width="1.0"/>
<line x1="267.7" y1="40.0" x2="232.9" y2="60.4" stroke="rgb(0,0,0)"  stroke-width="1.0"/>
<line x1="266.1" y1="49.2" x2="241.7" y2="63.6" stroke="rgb(0,0,0)"  stroke-width="1.0"/>
<line x1="232.9" y1="60.4" x2="232.5" y2="100.0" stroke="rgb(0,0,0)"  stroke-width="1.0"/>
<line x1="232.5" y1="100.0" x2="267.5" y2="119.6" stroke="rgb(0,0,0)"  stroke-width="1.0"/>
<line x1="241.3" y1="96.7" x2="265.8" y2="110.4" stroke="rgb(0,0,0)"  stroke-width="1.0"/>
<line x1="267.5" y1="119.6" x2="302.2" y2="100.0" stroke="rgb(0,0,0)"  stroke-width="1.0"/>
<line x1="99.2" y1="262.0" x2="60.0" y2="261.8" stroke="rgb(0,0,0)"  stroke-width="1.0"/>
<line x1="93.2" y1="254.8" x2="66.0" y2="254.6" stroke="rgb(0,0,0)"  stroke-width="1.0"/>
<line x1="60.0" y1="261.8" x2="40.0" y2="226.7" stroke="rgb(0,0,0)"  stroke-width="1.0"/>
<line x1="40.0" y1="226.7" x2="60.6" y2="192.3" stroke="rgb(0,0,0)"  stroke-width="1.0"/>
<line x1="49.3" y1="225.2" x2="63.7" y2="201.2" stroke="rgb(0,0,0)"  stroke-width="1.0"/>
<line x1="60.6" y1="192.3" x2="100.4" y2="192.9" stroke="rgb(0,0,0)"  stroke-width="1.0"/>
<line x1="119.8" y1="228.1" x2="99.2" y2="262.0" stroke="rgb(0,0,0)"  stroke-width="1.0"/>
<text x="191.982877" y="168.202363" fill="rgb(12,12,255)"  stroke="rgb(12,12,255)" stroke-width="1" font-size="16" >N</text>
<text x="152.991914" y="228.201867" fill="rgb(12,12,255)"  stroke="rgb(12,12,255)" stroke-width="1" font-size="16" >N</text>
<text x="121.680037" y="171.838550" fill="rgb(178,178,0)"  stroke="rgb(178,178,0)" stroke-width="1" font-size="16" >S</text>
<text x="342.575136" y="115.562242" fill="rgb(12,12,255)"  stroke="rgb(12,12,255)" stroke-width="1" font-size="16" >+</text>
<text x="331.775136" y="127.594242" fill="rgb(12,12,255)"  stroke="rgb(12,12,255)" stroke-width="1" font-size="16" >N</text>
<text x="153.314279" y="334.256509" fill="rgb(102,102,102)"  stroke="rgb(102,102,102)" stroke-width="1" font-size="16" >HC</text>
<text x="342.173267" y="145.485139" fill="rgb(255,12,12)"  stroke="rgb(255,12,12)" stroke-width="1" font-size="16" >_</text>
<text x="331.373267" y="167.597139" fill="rgb(255,12,12)"  stroke="rgb(255,12,12)" stroke-width="1" font-size="16" >O</text>
<text x="365.914621" y="107.796148" fill="rgb(255,12,12)"  stroke="rgb(255,12,12)" stroke-width="1" font-size="16" >O</text>
<text x="156.831457" y="107.999504" fill="rgb(255,12,12)"  stroke="rgb(255,12,12)" stroke-width="1" font-size="16" >O</text>
<text x="112.587149" y="305.167014" fill="rgb(30,239,30)"  stroke="rgb(30,239,30)" stroke-width="1" font-size="16" >Cl</text>
<text font-size="18.000000" fill ="black" font-family="sans-serif"
x="10.000000" y="20.000000" ></text>
<title> - OBDepict</title>
</svg>
