<?xml version="1.0"?>
<svg xmlns="http://www.w3.org/2000/svg"
xmlns:xlink="http://www.w3.org/1999/xlink" xmlns:cml="http://www.xml-cml.org/schema" width="441.868" height="284.403" x="0" y="0" font-family="sans-serif" stroke="rgb(0,0,0)" stroke-width="1"  stroke-linecap="round">
<rect x="0%" y="0%" width="100%" height="100%" stroke-width="0" fill="rgb(255,255,255)"  />
<line x1="197.6" y1="129.8" x2="170.5" y2="129.8" stroke="rgb(0,0,0)"  stroke-width="1.0"/>
<line x1="197.6" y1="123.8" x2="170.5" y2="123.8" stroke="rgb(0,0,0)"  stroke-width="1.0"/>
<line x1="355.1" y1="196.6" x2="332.7" y2="181.3" stroke="rgb(0,0,0)"  stroke-width="1.0"/>
<line x1="230.7" y1="161.4" x2="217.1" y2="138.1" stroke="rgb(0,0,0)"  stroke-width="1.0"/>
<line x1="270.7" y1="161.4" x2="230.7" y2="161.4" stroke="rgb(0,0,0)"  stroke-width="1.0"/>
<line x1="198.5" y1="48.5" x2="159.4" y2="56.4" stroke="rgb(0,0,0)"  stroke-width="1.0"/>
<line x1="224.6" y1="42.8" x2="198.5" y2="48.5" stroke="rgb(0,0,0)"  stroke-width="1.0"/>
<line x1="225.5" y1="46.9" x2="199.4" y2="52.6" stroke="rgb(0,0,0)"  stroke-width="1.0"/>
<line x1="223.7" y1="38.7" x2="197.6" y2="44.4" stroke="rgb(0,0,0)"  stroke-width="1.0"/>
<line x1="363.4" y1="231.5" x2="364.7" y2="216.9" stroke="rgb(0,0,0)"  stroke-width="1.0"/>
<line x1="391.3" y1="195.5" x2="378.9" y2="201.2" stroke="rgb(0,0,0)"  stroke-width="1.0"/>
<line x1="388.8" y1="190.0" x2="376.4" y2="195.8" stroke="rgb(0,0,0)"  stroke-width="1.0"/>
<line x1="214.8" y1="183.6" x2="228.0" y2="160.0" stroke="rgb(0,0,0)"  stroke-width="1.0"/>
<line x1="220.0" y1="186.6" x2="233.3" y2="162.9" stroke="rgb(0,0,0)"  stroke-width="1.0"/>
<line x1="159.4" y1="56.4" x2="151.2" y2="82.3" stroke="rgb(0,0,0)"  stroke-width="1.0"/>
<line x1="74.4" y1="60.1" x2="74.4" y2="86.7" stroke="rgb(0,0,0)"  stroke-width="1.0"/>
<line x1="170.5" y1="126.8" x2="154.8" y2="149.0" stroke="rgb(0,0,0)"  stroke-width="1.0"/>
<line x1="134.9" y1="155.7" x2="109.2" y2="147.5" stroke="rgb(0,0,0)"  stroke-width="1.0"/>
<line x1="109.2" y1="147.5" x2="109.0" y2="107.4" stroke="rgb(0,0,0)"  stroke-width="1.0"/>
<line x1="116.4" y1="141.4" x2="116.2" y2="113.4" stroke="rgb(0,0,0)"  stroke-width="1.0"/>
<line x1="109.0" y1="107.4" x2="134.9" y2="98.8" stroke="rgb(0,0,0)"  stroke-width="1.0"/>
<line x1="154.9" y1="105.2" x2="170.5" y2="126.8" stroke="rgb(0,0,0)"  stroke-width="1.0"/>
<line x1="306.7" y1="189.9" x2="332.7" y2="181.3" stroke="rgb(0,0,0)"  stroke-width="1.0"/>
<line x1="332.7" y1="181.3" x2="331.4" y2="141.4" stroke="rgb(0,0,0)"  stroke-width="1.0"/>
<line x1="325.3" y1="175.5" x2="324.4" y2="147.6" stroke="rgb(0,0,0)"  stroke-width="1.0"/>
<line x1="331.4" y1="141.4" x2="293.6" y2="129.7" stroke="rgb(0,0,0)"  stroke-width="1.0"/>
<line x1="293.6" y1="129.7" x2="270.7" y2="161.4" stroke="rgb(0,0,0)"  stroke-width="1.0"/>
<line x1="295.9" y1="138.7" x2="280.1" y2="160.8" stroke="rgb(0,0,0)"  stroke-width="1.0"/>
<line x1="270.7" y1="161.4" x2="286.8" y2="183.5" stroke="rgb(0,0,0)"  stroke-width="1.0"/>
<line x1="74.4" y1="86.7" x2="40.0" y2="107.4" stroke="rgb(0,0,0)"  stroke-width="1.0"/>
<line x1="73.0" y1="96.0" x2="48.8" y2="110.5" stroke="rgb(0,0,0)"  stroke-width="1.0"/>
<line x1="40.0" y1="107.4" x2="40.0" y2="147.5" stroke="rgb(0,0,0)"  stroke-width="1.0"/>
<line x1="40.0" y1="147.5" x2="74.4" y2="167.3" stroke="rgb(0,0,0)"  stroke-width="1.0"/>
<line x1="48.8" y1="144.2" x2="72.8" y2="158.1" stroke="rgb(0,0,0)"  stroke-width="1.0"/>
<line x1="74.4" y1="167.3" x2="109.2" y2="147.5" stroke="rgb(0,0,0)"  stroke-width="1.0"/>
<line x1="109.0" y1="107.4" x2="74.4" y2="86.7" stroke="rgb(0,0,0)"  stroke-width="1.0"/>
<text x="204.615006" y="134.820142" fill="rgb(12,12,255)"  stroke="rgb(12,12,255)" stroke-width="1" font-size="16" >N</text>
<text x="141.268691" y="102.644390" fill="rgb(12,12,255)"  stroke="rgb(12,12,255)" stroke-width="1" font-size="16" >N</text>
<text x="141.268691" y="167.607747" fill="rgb(178,178,0)"  stroke="rgb(178,178,0)" stroke-width="1" font-size="16" >S</text>
<text x="370.646253" y="199.901171" fill="rgb(12,12,255)"  stroke="rgb(12,12,255)" stroke-width="1" font-size="16" >+</text>
<text x="359.846253" y="211.933171" fill="rgb(12,12,255)"  stroke="rgb(12,12,255)" stroke-width="1" font-size="16" >N</text>
<text x="288.405013" y="202.012396" fill="rgb(255,12,12)"  stroke="rgb(255,12,12)" stroke-width="1" font-size="16" >O</text>
<text x="231.332631" y="48.000000" fill="rgb(102,102,102)"  stroke="rgb(102,102,102)" stroke-width="1" font-size="16" >CH</text>
<text x="367.004265" y="230.290944" fill="rgb(255,12,12)"  stroke="rgb(255,12,12)" stroke-width="1" font-size="16" >_</text>
<text x="356.204265" y="252.402944" fill="rgb(255,12,12)"  stroke="rgb(255,12,12)" stroke-width="1" font-size="16" >O</text>
<text x="395.867944" y="195.330561" fill="rgb(255,12,12)"  stroke="rgb(255,12,12)" stroke-width="1" font-size="16" >O</text>
<text x="205.018052" y="204.440388" fill="rgb(255,12,12)"  stroke="rgb(255,12,12)" stroke-width="1" font-size="16" >O</text>
<text x="68.409504" y="55.080025" fill="rgb(127,178,255)"  stroke="rgb(127,178,255)" stroke-width="1" font-size="16" >F</text>
<text font-size="18.000000" fill ="black" font-family="sans-serif"
x="10.000000" y="20.000000" ></text>
<title> - OBDepict</title>
</svg>
