<?xml version="1.0"?>
<svg xmlns="http://www.w3.org/2000/svg"
xmlns:xlink="http://www.w3.org/1999/xlink" xmlns:cml="http://www.xml-cml.org/schema" width="235.333" height="447.725" x="0" y="0" font-family="sans-serif" stroke="rgb(0,0,0)" stroke-width="1"  stroke-linecap="round">
<rect x="0%" y="0%" width="100%" height="100%" stroke-width="0" fill="rgb(255,255,255)"  />
<line x1="147.8" y1="305.6" x2="148.1" y2="345.8" stroke="rgb(0,0,0)"  stroke-width="1.0"/>
<line x1="128.6" y1="245.4" x2="106.6" y2="211.5" stroke="rgb(0,0,0)"  stroke-width="1.0"/>
<line x1="133.6" y1="242.1" x2="111.6" y2="208.2" stroke="rgb(0,0,0)"  stroke-width="1.0"/>
<line x1="168.1" y1="243.7" x2="185.0" y2="222.1" stroke="rgb(0,0,0)"  stroke-width="1.0"/>
<line x1="172.8" y1="247.4" x2="189.7" y2="225.8" stroke="rgb(0,0,0)"  stroke-width="1.0"/>
<line x1="109.1" y1="209.8" x2="127.6" y2="174.1" stroke="rgb(0,0,0)"  stroke-width="1.0"/>
<line x1="105.4" y1="140.3" x2="78.8" y2="141.6" stroke="rgb(0,0,0)"  stroke-width="1.0"/>
<line x1="58.7" y1="131.4" x2="44.0" y2="109.1" stroke="rgb(0,0,0)"  stroke-width="1.0"/>
<line x1="44.0" y1="109.1" x2="61.9" y2="73.4" stroke="rgb(0,0,0)"  stroke-width="1.0"/>
<line x1="61.9" y1="73.4" x2="47.1" y2="50.9" stroke="rgb(0,0,0)"  stroke-width="1.0"/>
<line x1="58.3" y1="75.7" x2="43.6" y2="53.2" stroke="rgb(0,0,0)"  stroke-width="1.0"/>
<line x1="65.4" y1="71.1" x2="50.6" y2="48.6" stroke="rgb(0,0,0)"  stroke-width="1.0"/>
<line x1="147.8" y1="305.6" x2="127.1" y2="289.3" stroke="rgb(0,0,0)"  stroke-width="1.0"/>
<line x1="147.5" y1="296.2" x2="133.2" y2="284.9" stroke="rgb(0,0,0)"  stroke-width="1.0"/>
<line x1="121.5" y1="269.1" x2="131.1" y2="243.7" stroke="rgb(0,0,0)"  stroke-width="1.0"/>
<line x1="131.1" y1="243.7" x2="170.5" y2="245.6" stroke="rgb(0,0,0)"  stroke-width="1.0"/>
<line x1="170.5" y1="245.6" x2="177.5" y2="271.2" stroke="rgb(0,0,0)"  stroke-width="1.0"/>
<line x1="170.1" y1="290.9" x2="147.8" y2="305.6" stroke="rgb(0,0,0)"  stroke-width="1.0"/>
<line x1="148.1" y1="345.8" x2="115.6" y2="369.7" stroke="rgb(0,0,0)"  stroke-width="1.0"/>
<line x1="147.5" y1="355.2" x2="124.7" y2="371.9" stroke="rgb(0,0,0)"  stroke-width="1.0"/>
<line x1="115.6" y1="369.7" x2="128.4" y2="407.7" stroke="rgb(0,0,0)"  stroke-width="1.0"/>
<line x1="128.4" y1="407.7" x2="168.3" y2="407.4" stroke="rgb(0,0,0)"  stroke-width="1.0"/>
<line x1="134.4" y1="400.5" x2="162.2" y2="400.2" stroke="rgb(0,0,0)"  stroke-width="1.0"/>
<line x1="168.3" y1="407.4" x2="176.8" y2="381.4" stroke="rgb(0,0,0)"  stroke-width="1.0"/>
<line x1="170.2" y1="361.5" x2="148.1" y2="345.8" stroke="rgb(0,0,0)"  stroke-width="1.0"/>
<line x1="127.6" y1="174.1" x2="167.1" y2="171.6" stroke="rgb(0,0,0)"  stroke-width="1.0"/>
<line x1="133.1" y1="166.6" x2="160.7" y2="164.8" stroke="rgb(0,0,0)"  stroke-width="1.0"/>
<line x1="167.1" y1="171.6" x2="185.7" y2="136.3" stroke="rgb(0,0,0)"  stroke-width="1.0"/>
<line x1="185.7" y1="136.3" x2="163.5" y2="102.4" stroke="rgb(0,0,0)"  stroke-width="1.0"/>
<line x1="176.3" y1="135.2" x2="160.7" y2="111.4" stroke="rgb(0,0,0)"  stroke-width="1.0"/>
<line x1="163.5" y1="102.4" x2="123.6" y2="104.6" stroke="rgb(0,0,0)"  stroke-width="1.0"/>
<line x1="123.6" y1="104.6" x2="105.4" y2="140.3" stroke="rgb(0,0,0)"  stroke-width="1.0"/>
<line x1="127.3" y1="113.2" x2="114.5" y2="138.2" stroke="rgb(0,0,0)"  stroke-width="1.0"/>
<line x1="105.4" y1="140.3" x2="127.6" y2="174.1" stroke="rgb(0,0,0)"  stroke-width="1.0"/>
<text x="110.918408" y="289.255135" fill="rgb(12,12,255)"  stroke="rgb(12,12,255)" stroke-width="1" font-size="16" >N</text>
<text x="174.981466" y="291.761127" fill="rgb(255,12,12)"  stroke="rgb(255,12,12)" stroke-width="1" font-size="16" >O</text>
<text x="174.816343" y="377.018271" fill="rgb(178,178,0)"  stroke="rgb(178,178,0)" stroke-width="1" font-size="16" >S</text>
<text x="189.332640" y="221.685631" fill="rgb(255,12,12)"  stroke="rgb(255,12,12)" stroke-width="1" font-size="16" >O</text>
<text x="59.861253" y="150.274577" fill="rgb(255,12,12)"  stroke="rgb(255,12,12)" stroke-width="1" font-size="16" >O</text>
<text x="22.000000" y="48.000000" fill="rgb(102,102,102)"  stroke="rgb(102,102,102)" stroke-width="1" font-size="16" >HC</text>
<text font-size="18.000000" fill ="black" font-family="sans-serif"
x="10.000000" y="20.000000" ></text>
<title> - OBDepict</title>
</svg>
