<?xml version="1.0"?>
<svg xmlns="http://www.w3.org/2000/svg"
xmlns:xlink="http://www.w3.org/1999/xlink" xmlns:cml="http://www.xml-cml.org/schema" width="463.844" height="383.444" x="0" y="0" font-family="sans-serif" stroke="rgb(0,0,0)" stroke-width="1"  stroke-linecap="round">
<rect x="0%" y="0%" width="100%" height="100%" stroke-width="0" fill="rgb(255,255,255)"  />
<line x1="178.3" y1="116.6" x2="217.6" y2="122.9" stroke="rgb(0,0,0)"  stroke-width="1.0"/>
<line x1="177.4" y1="122.5" x2="216.6" y2="128.8" stroke="rgb(0,0,0)"  stroke-width="1.0"/>
<line x1="316.8" y1="97.8" x2="292.8" y2="110.1" stroke="rgb(0,0,0)"  stroke-width="1.0"/>
<line x1="152.2" y1="150.6" x2="177.8" y2="119.6" stroke="rgb(0,0,0)"  stroke-width="1.0"/>
<line x1="291.7" y1="176.5" x2="272.8" y2="157.6" stroke="rgb(0,0,0)"  stroke-width="1.0"/>
<line x1="295.9" y1="172.3" x2="277.1" y2="153.3" stroke="rgb(0,0,0)"  stroke-width="1.0"/>
<line x1="65.2" y1="312.6" x2="90.2" y2="281.2" stroke="rgb(0,0,0)"  stroke-width="1.0"/>
<line x1="48.2" y1="333.4" x2="65.2" y2="312.6" stroke="rgb(0,0,0)"  stroke-width="1.0"/>
<line x1="45.0" y1="330.7" x2="61.9" y2="310.0" stroke="rgb(0,0,0)"  stroke-width="1.0"/>
<line x1="51.5" y1="336.0" x2="68.4" y2="315.3" stroke="rgb(0,0,0)"  stroke-width="1.0"/>
<line x1="244.4" y1="70.5" x2="248.5" y2="97.0" stroke="rgb(0,0,0)"  stroke-width="1.0"/>
<line x1="238.5" y1="71.4" x2="242.6" y2="97.9" stroke="rgb(0,0,0)"  stroke-width="1.0"/>
<line x1="60.7" y1="170.7" x2="87.1" y2="174.8" stroke="rgb(0,0,0)"  stroke-width="1.0"/>
<line x1="84.3" y1="234.1" x2="101.5" y2="213.3" stroke="rgb(0,0,0)"  stroke-width="1.0"/>
<line x1="150.6" y1="244.3" x2="140.9" y2="218.9" stroke="rgb(0,0,0)"  stroke-width="1.0"/>
<line x1="412.2" y1="50.0" x2="388.0" y2="62.2" stroke="rgb(0,0,0)"  stroke-width="1.0"/>
<line x1="90.2" y1="281.2" x2="80.7" y2="256.3" stroke="rgb(0,0,0)"  stroke-width="1.0"/>
<line x1="181.9" y1="260.9" x2="168.1" y2="258.6" stroke="rgb(0,0,0)"  stroke-width="1.0"/>
<line x1="279.2" y1="128.8" x2="274.9" y2="155.5" stroke="rgb(0,0,0)"  stroke-width="1.0"/>
<line x1="274.9" y1="155.5" x2="248.1" y2="159.5" stroke="rgb(0,0,0)"  stroke-width="1.0"/>
<line x1="229.4" y1="149.9" x2="217.1" y2="125.8" stroke="rgb(0,0,0)"  stroke-width="1.0"/>
<line x1="217.1" y1="125.8" x2="245.5" y2="97.4" stroke="rgb(0,0,0)"  stroke-width="1.0"/>
<line x1="245.5" y1="97.4" x2="269.7" y2="110.0" stroke="rgb(0,0,0)"  stroke-width="1.0"/>
<line x1="87.1" y1="174.8" x2="101.5" y2="213.3" stroke="rgb(0,0,0)"  stroke-width="1.0"/>
<line x1="96.0" y1="177.9" x2="106.1" y2="205.1" stroke="rgb(0,0,0)"  stroke-width="1.0"/>
<line x1="101.5" y1="213.3" x2="140.9" y2="218.9" stroke="rgb(0,0,0)"  stroke-width="1.0"/>
<line x1="140.9" y1="218.9" x2="166.3" y2="188.1" stroke="rgb(0,0,0)"  stroke-width="1.0"/>
<line x1="139.2" y1="209.7" x2="157.0" y2="188.2" stroke="rgb(0,0,0)"  stroke-width="1.0"/>
<line x1="166.3" y1="188.1" x2="152.2" y2="150.6" stroke="rgb(0,0,0)"  stroke-width="1.0"/>
<line x1="152.2" y1="150.6" x2="112.5" y2="144.0" stroke="rgb(0,0,0)"  stroke-width="1.0"/>
<line x1="145.1" y1="156.7" x2="117.3" y2="152.1" stroke="rgb(0,0,0)"  stroke-width="1.0"/>
<line x1="112.5" y1="144.0" x2="87.1" y2="174.8" stroke="rgb(0,0,0)"  stroke-width="1.0"/>
<line x1="316.8" y1="97.8" x2="318.7" y2="58.1" stroke="rgb(0,0,0)"  stroke-width="1.0"/>
<line x1="318.7" y1="58.1" x2="354.3" y2="40.0" stroke="rgb(0,0,0)"  stroke-width="1.0"/>
<line x1="327.3" y1="61.8" x2="352.2" y2="49.1" stroke="rgb(0,0,0)"  stroke-width="1.0"/>
<line x1="354.3" y1="40.0" x2="388.0" y2="62.2" stroke="rgb(0,0,0)"  stroke-width="1.0"/>
<line x1="388.0" y1="62.2" x2="385.6" y2="101.7" stroke="rgb(0,0,0)"  stroke-width="1.0"/>
<line x1="380.4" y1="67.7" x2="378.7" y2="95.2" stroke="rgb(0,0,0)"  stroke-width="1.0"/>
<line x1="385.6" y1="101.7" x2="350.1" y2="119.8" stroke="rgb(0,0,0)"  stroke-width="1.0"/>
<line x1="350.1" y1="119.8" x2="316.8" y2="97.8" stroke="rgb(0,0,0)"  stroke-width="1.0"/>
<line x1="349.1" y1="110.5" x2="325.8" y2="95.1" stroke="rgb(0,0,0)"  stroke-width="1.0"/>
<text x="275.186407" y="123.961326" fill="rgb(12,12,255)"  stroke="rgb(12,12,255)" stroke-width="1" font-size="16" >N</text>
<text x="229.247522" y="169.498427" fill="rgb(12,12,255)"  stroke="rgb(12,12,255)" stroke-width="1" font-size="16" >N</text>
<text x="229.247522" y="185.498427" fill="rgb(12,12,255)"  stroke="rgb(12,12,255)" stroke-width="1" font-size="16" >H</text>
<text x="296.945658" y="191.659462" fill="rgb(178,178,0)"  stroke="rgb(178,178,0)" stroke-width="1" font-size="16" >S</text>
<text x="22.000000" y="351.443520" fill="rgb(102,102,102)"  stroke="rgb(102,102,102)" stroke-width="1" font-size="16" >HC</text>
<text x="233.478353" y="66.133516" fill="rgb(255,12,12)"  stroke="rgb(255,12,12)" stroke-width="1" font-size="16" >O</text>
<text x="29.861407" y="176.754738" fill="rgb(30,239,30)"  stroke="rgb(30,239,30)" stroke-width="1" font-size="16" >Cl</text>
<text x="70.068560" y="252.110968" fill="rgb(255,12,12)"  stroke="rgb(255,12,12)" stroke-width="1" font-size="16" >O</text>
<text x="149.253837" y="264.401677" fill="rgb(255,12,12)"  stroke="rgb(255,12,12)" stroke-width="1" font-size="16" >O</text>
<text x="417.843830" y="52.230831" fill="rgb(165,40,40)"  stroke="rgb(165,40,40)" stroke-width="1" font-size="16" >Br</text>
<text x="190.744820" y="271.052892" fill="rgb(102,102,102)"  stroke="rgb(102,102,102)" stroke-width="1" font-size="16" >CH</text>
<text x="214.744820" y="274.732892" fill="rgb(102,102,102)"  stroke="rgb(102,102,102)" stroke-width="1" font-size="13" >3</text>
<text font-size="18.000000" fill ="black" font-family="sans-serif"
x="10.000000" y="20.000000" ></text>
<title> - OBDepict</title>
</svg>
