<?xml version="1.0"?>
<svg xmlns="http://www.w3.org/2000/svg"
xmlns:xlink="http://www.w3.org/1999/xlink" xmlns:cml="http://www.xml-cml.org/schema" width="606.383" height="339.958" x="0" y="0" font-family="sans-serif" stroke="rgb(0,0,0)" stroke-width="1"  stroke-linecap="round">
<rect x="0%" y="0%" width="100%" height="100%" stroke-width="0" fill="rgb(255,255,255)"  />
<line x1="506.4" y1="180.2" x2="526.4" y2="145.6" stroke="rgb(0,0,0)"  stroke-width="1.0"/>
<line x1="74.5" y1="120.0" x2="109.3" y2="100.0" stroke="rgb(0,0,0)"  stroke-width="1.0"/>
<line x1="51.3" y1="133.5" x2="74.5" y2="120.0" stroke="rgb(0,0,0)"  stroke-width="1.0"/>
<line x1="49.1" y1="129.8" x2="72.4" y2="116.4" stroke="rgb(0,0,0)"  stroke-width="1.0"/>
<line x1="53.4" y1="137.1" x2="76.6" y2="123.6" stroke="rgb(0,0,0)"  stroke-width="1.0"/>
<line x1="553.4" y1="148.6" x2="526.4" y2="148.6" stroke="rgb(0,0,0)"  stroke-width="1.0"/>
<line x1="553.4" y1="142.6" x2="526.4" y2="142.6" stroke="rgb(0,0,0)"  stroke-width="1.0"/>
<line x1="517.3" y1="205.1" x2="503.8" y2="181.7" stroke="rgb(0,0,0)"  stroke-width="1.0"/>
<line x1="522.5" y1="202.2" x2="509.0" y2="178.7" stroke="rgb(0,0,0)"  stroke-width="1.0"/>
<line x1="236.6" y1="173.5" x2="213.1" y2="160.0" stroke="rgb(0,0,0)"  stroke-width="1.0"/>
<line x1="512.9" y1="122.2" x2="526.4" y2="145.6" stroke="rgb(0,0,0)"  stroke-width="1.0"/>
<line x1="479.4" y1="180.2" x2="506.4" y2="180.2" stroke="rgb(0,0,0)"  stroke-width="1.0"/>
<line x1="213.1" y1="160.0" x2="213.1" y2="120.0" stroke="rgb(0,0,0)"  stroke-width="1.0"/>
<line x1="282.4" y1="240.0" x2="247.8" y2="220.0" stroke="rgb(0,0,0)"  stroke-width="1.0"/>
<line x1="271.1" y1="46.5" x2="247.8" y2="60.0" stroke="rgb(0,0,0)"  stroke-width="1.0"/>
<line x1="155.1" y1="113.5" x2="178.6" y2="100.0" stroke="rgb(0,0,0)"  stroke-width="1.0"/>
<line x1="109.3" y1="100.0" x2="132.6" y2="113.5" stroke="rgb(0,0,0)"  stroke-width="1.0"/>
<line x1="247.8" y1="220.0" x2="247.8" y2="193.0" stroke="rgb(0,0,0)"  stroke-width="1.0"/>
<line x1="375.1" y1="293.5" x2="351.7" y2="280.0" stroke="rgb(0,0,0)"  stroke-width="1.0"/>
<line x1="282.4" y1="240.0" x2="282.4" y2="280.0" stroke="rgb(0,0,0)"  stroke-width="1.0"/>
<line x1="289.6" y1="246.0" x2="289.6" y2="274.0" stroke="rgb(0,0,0)"  stroke-width="1.0"/>
<line x1="282.4" y1="280.0" x2="317.1" y2="300.0" stroke="rgb(0,0,0)"  stroke-width="1.0"/>
<line x1="317.1" y1="300.0" x2="351.7" y2="280.0" stroke="rgb(0,0,0)"  stroke-width="1.0"/>
<line x1="318.7" y1="290.7" x2="342.9" y2="276.7" stroke="rgb(0,0,0)"  stroke-width="1.0"/>
<line x1="351.7" y1="280.0" x2="351.7" y2="240.0" stroke="rgb(0,0,0)"  stroke-width="1.0"/>
<line x1="351.7" y1="240.0" x2="317.1" y2="220.0" stroke="rgb(0,0,0)"  stroke-width="1.0"/>
<line x1="342.9" y1="243.2" x2="318.7" y2="229.2" stroke="rgb(0,0,0)"  stroke-width="1.0"/>
<line x1="317.1" y1="220.0" x2="282.4" y2="240.0" stroke="rgb(0,0,0)"  stroke-width="1.0"/>
<line x1="213.1" y1="120.0" x2="178.6" y2="100.0" stroke="rgb(0,0,0)"  stroke-width="1.0"/>
<line x1="211.5" y1="110.7" x2="187.4" y2="96.8" stroke="rgb(0,0,0)"  stroke-width="1.0"/>
<line x1="178.6" y1="100.0" x2="178.6" y2="60.0" stroke="rgb(0,0,0)"  stroke-width="1.0"/>
<line x1="178.6" y1="60.0" x2="213.1" y2="40.0" stroke="rgb(0,0,0)"  stroke-width="1.0"/>
<line x1="187.4" y1="63.2" x2="211.5" y2="49.2" stroke="rgb(0,0,0)"  stroke-width="1.0"/>
<line x1="213.1" y1="40.0" x2="247.8" y2="60.0" stroke="rgb(0,0,0)"  stroke-width="1.0"/>
<line x1="247.8" y1="60.0" x2="247.8" y2="100.0" stroke="rgb(0,0,0)"  stroke-width="1.0"/>
<line x1="240.6" y1="66.0" x2="240.6" y2="94.0" stroke="rgb(0,0,0)"  stroke-width="1.0"/>
<line x1="247.8" y1="100.0" x2="213.1" y2="120.0" stroke="rgb(0,0,0)"  stroke-width="1.0"/>
<text x="22.000000" y="147.983805" fill="rgb(102,102,102)"  stroke="rgb(102,102,102)" stroke-width="1" font-size="16" >HC</text>
<text x="560.382615" y="153.641070" fill="rgb(255,12,12)"  stroke="rgb(255,12,12)" stroke-width="1" font-size="16" >O</text>
<text x="520.389093" y="222.919545" fill="rgb(255,12,12)"  stroke="rgb(255,12,12)" stroke-width="1" font-size="16" >O</text>
<text x="241.845121" y="187.977326" fill="rgb(12,12,255)"  stroke="rgb(12,12,255)" stroke-width="1" font-size="16" >NH</text>
<text x="488.392332" y="118.897607" fill="rgb(255,12,12)"  stroke="rgb(255,12,12)" stroke-width="1" font-size="16" >HO</text>
<text x="448.398810" y="188.180930" fill="rgb(255,12,12)"  stroke="rgb(255,12,12)" stroke-width="1" font-size="16" >HO</text>
<text x="276.384981" y="48.000000" fill="rgb(165,40,40)"  stroke="rgb(165,40,40)" stroke-width="1" font-size="16" >Br</text>
<text x="137.823183" y="127.987044" fill="rgb(255,12,12)"  stroke="rgb(255,12,12)" stroke-width="1" font-size="16" >O</text>
<text x="382.411767" y="307.957892" fill="rgb(102,102,102)"  stroke="rgb(102,102,102)" stroke-width="1" font-size="16" >CH</text>
<text x="406.411767" y="311.637892" fill="rgb(102,102,102)"  stroke="rgb(102,102,102)" stroke-width="1" font-size="13" >3</text>
<text font-size="18.000000" fill ="black" font-family="sans-serif"
x="10.000000" y="20.000000" ></text>
<title> - OBDepict</title>
</svg>
