<?xml version="1.0"?>
<svg xmlns="http://www.w3.org/2000/svg"
xmlns:xlink="http://www.w3.org/1999/xlink" xmlns:cml="http://www.xml-cml.org/schema" width="489.038" height="383.512" x="0" y="0" font-family="sans-serif" stroke="rgb(0,0,0)" stroke-width="1"  stroke-linecap="round">
<rect x="0%" y="0%" width="100%" height="100%" stroke-width="0" fill="rgb(255,255,255)"  />
<line x1="323.0" y1="102.4" x2="299.9" y2="70.2" stroke="rgb(0,0,0)"  stroke-width="1.0"/>
<line x1="327.9" y1="98.9" x2="304.7" y2="66.7" stroke="rgb(0,0,0)"  stroke-width="1.0"/>
<line x1="302.3" y1="68.5" x2="262.3" y2="72.2" stroke="rgb(0,0,0)"  stroke-width="1.0"/>
<line x1="363.0" y1="99.3" x2="379.4" y2="77.4" stroke="rgb(0,0,0)"  stroke-width="1.0"/>
<line x1="367.9" y1="102.9" x2="384.2" y2="81.0" stroke="rgb(0,0,0)"  stroke-width="1.0"/>
<line x1="348.4" y1="162.6" x2="348.2" y2="189.7" stroke="rgb(0,0,0)"  stroke-width="1.0"/>
<line x1="342.4" y1="162.6" x2="342.2" y2="189.6" stroke="rgb(0,0,0)"  stroke-width="1.0"/>
<line x1="390.4" y1="143.4" x2="403.5" y2="147.7" stroke="rgb(0,0,0)"  stroke-width="1.0"/>
<line x1="356.4" y1="209.2" x2="379.9" y2="223.1" stroke="rgb(0,0,0)"  stroke-width="1.0"/>
<line x1="205.7" y1="112.5" x2="194.7" y2="136.8" stroke="rgb(0,0,0)"  stroke-width="1.0"/>
<line x1="182.7" y1="80.0" x2="156.0" y2="82.5" stroke="rgb(0,0,0)"  stroke-width="1.0"/>
<line x1="197.0" y1="159.3" x2="204.8" y2="170.3" stroke="rgb(0,0,0)"  stroke-width="1.0"/>
<line x1="413.9" y1="283.4" x2="413.4" y2="323.6" stroke="rgb(0,0,0)"  stroke-width="1.0"/>
<line x1="135.5" y1="73.1" x2="119.6" y2="50.9" stroke="rgb(0,0,0)"  stroke-width="1.0"/>
<line x1="413.4" y1="323.6" x2="389.9" y2="336.7" stroke="rgb(0,0,0)"  stroke-width="1.0"/>
<line x1="414.9" y1="321.0" x2="438.3" y2="334.4" stroke="rgb(0,0,0)"  stroke-width="1.0"/>
<line x1="411.9" y1="326.2" x2="435.3" y2="339.6" stroke="rgb(0,0,0)"  stroke-width="1.0"/>
<line x1="119.6" y1="50.9" x2="80.0" y2="54.6" stroke="rgb(0,0,0)"  stroke-width="1.0"/>
<line x1="80.0" y1="54.6" x2="53.0" y2="57.0" stroke="rgb(0,0,0)"  stroke-width="1.0"/>
<line x1="80.4" y1="58.8" x2="53.3" y2="61.1" stroke="rgb(0,0,0)"  stroke-width="1.0"/>
<line x1="79.7" y1="50.4" x2="52.6" y2="52.8" stroke="rgb(0,0,0)"  stroke-width="1.0"/>
<line x1="325.4" y1="100.6" x2="317.0" y2="126.6" stroke="rgb(0,0,0)"  stroke-width="1.0"/>
<line x1="323.5" y1="146.7" x2="345.4" y2="162.6" stroke="rgb(0,0,0)"  stroke-width="1.0"/>
<line x1="345.4" y1="162.6" x2="367.4" y2="146.9" stroke="rgb(0,0,0)"  stroke-width="1.0"/>
<line x1="374.0" y1="127.0" x2="365.5" y2="101.1" stroke="rgb(0,0,0)"  stroke-width="1.0"/>
<line x1="365.5" y1="101.1" x2="325.4" y2="100.6" stroke="rgb(0,0,0)"  stroke-width="1.0"/>
<line x1="262.3" y1="72.2" x2="239.2" y2="40.0" stroke="rgb(0,0,0)"  stroke-width="1.0"/>
<line x1="239.2" y1="40.0" x2="199.5" y2="43.5" stroke="rgb(0,0,0)"  stroke-width="1.0"/>
<line x1="233.8" y1="47.7" x2="206.1" y2="50.2" stroke="rgb(0,0,0)"  stroke-width="1.0"/>
<line x1="199.5" y1="43.5" x2="182.7" y2="80.0" stroke="rgb(0,0,0)"  stroke-width="1.0"/>
<line x1="182.7" y1="80.0" x2="205.7" y2="112.5" stroke="rgb(0,0,0)"  stroke-width="1.0"/>
<line x1="192.1" y1="80.8" x2="208.1" y2="103.5" stroke="rgb(0,0,0)"  stroke-width="1.0"/>
<line x1="205.7" y1="112.5" x2="245.5" y2="108.5" stroke="rgb(0,0,0)"  stroke-width="1.0"/>
<line x1="245.5" y1="108.5" x2="262.3" y2="72.2" stroke="rgb(0,0,0)"  stroke-width="1.0"/>
<line x1="241.5" y1="100.0" x2="253.2" y2="74.6" stroke="rgb(0,0,0)"  stroke-width="1.0"/>
<line x1="379.9" y1="223.1" x2="414.4" y2="203.1" stroke="rgb(0,0,0)"  stroke-width="1.0"/>
<line x1="414.4" y1="203.1" x2="449.0" y2="223.2" stroke="rgb(0,0,0)"  stroke-width="1.0"/>
<line x1="415.9" y1="212.4" x2="440.2" y2="226.5" stroke="rgb(0,0,0)"  stroke-width="1.0"/>
<line x1="449.0" y1="223.2" x2="448.5" y2="263.4" stroke="rgb(0,0,0)"  stroke-width="1.0"/>
<line x1="448.5" y1="263.4" x2="413.9" y2="283.4" stroke="rgb(0,0,0)"  stroke-width="1.0"/>
<line x1="439.7" y1="260.2" x2="415.5" y2="274.1" stroke="rgb(0,0,0)"  stroke-width="1.0"/>
<line x1="413.9" y1="283.4" x2="379.4" y2="263.1" stroke="rgb(0,0,0)"  stroke-width="1.0"/>
<line x1="379.4" y1="263.1" x2="379.9" y2="223.1" stroke="rgb(0,0,0)"  stroke-width="1.0"/>
<line x1="386.6" y1="257.2" x2="387.0" y2="229.2" stroke="rgb(0,0,0)"  stroke-width="1.0"/>
<text x="307.028176" y="146.993580" fill="rgb(178,178,0)"  stroke="rgb(178,178,0)" stroke-width="1" font-size="16" >S</text>
<text x="372.019403" y="147.328411" fill="rgb(12,12,255)"  stroke="rgb(12,12,255)" stroke-width="1" font-size="16" >N</text>
<text x="383.578359" y="76.810043" fill="rgb(255,12,12)"  stroke="rgb(255,12,12)" stroke-width="1" font-size="16" >O</text>
<text x="339.186532" y="210.645482" fill="rgb(12,12,255)"  stroke="rgb(12,12,255)" stroke-width="1" font-size="16" >N</text>
<text x="411.874742" y="159.722019" fill="rgb(102,102,102)"  stroke="rgb(102,102,102)" stroke-width="1" font-size="16" >CH</text>
<text x="435.874742" y="163.402019" fill="rgb(102,102,102)"  stroke="rgb(102,102,102)" stroke-width="1" font-size="13" >3</text>
<text x="183.412369" y="156.708538" fill="rgb(255,12,12)"  stroke="rgb(255,12,12)" stroke-width="1" font-size="16" >O</text>
<text x="137.011555" y="91.717312" fill="rgb(255,12,12)"  stroke="rgb(255,12,12)" stroke-width="1" font-size="16" >O</text>
<text x="208.360440" y="188.866894" fill="rgb(102,102,102)"  stroke="rgb(102,102,102)" stroke-width="1" font-size="16" >CH</text>
<text x="232.360440" y="192.546894" fill="rgb(102,102,102)"  stroke="rgb(102,102,102)" stroke-width="1" font-size="13" >3</text>
<text x="360.519223" y="351.007703" fill="rgb(255,12,12)"  stroke="rgb(255,12,12)" stroke-width="1" font-size="16" >HO</text>
<text x="442.033098" y="351.512376" fill="rgb(255,12,12)"  stroke="rgb(255,12,12)" stroke-width="1" font-size="16" >O</text>
<text x="22.000000" y="66.090592" fill="rgb(102,102,102)"  stroke="rgb(102,102,102)" stroke-width="1" font-size="16" >HC</text>
<text font-size="18.000000" fill ="black" font-family="sans-serif"
x="10.000000" y="20.000000" ></text>
<title> - OBDepict</title>
</svg>
