<?xml version="1.0"?>
<svg xmlns="http://www.w3.org/2000/svg"
xmlns:xlink="http://www.w3.org/1999/xlink" xmlns:cml="http://www.xml-cml.org/schema" width="563.092" height="283.462" x="0" y="0" font-family="sans-serif" stroke="rgb(0,0,0)" stroke-width="1"  stroke-linecap="round">
<rect x="0%" y="0%" width="100%" height="100%" stroke-width="0" fill="rgb(255,255,255)"  />
<line x1="301.9" y1="176.6" x2="281.0" y2="141.8" stroke="rgb(0,0,0)"  stroke-width="1.0"/>
<line x1="260.8" y1="106.8" x2="281.0" y2="141.8" stroke="rgb(0,0,0)"  stroke-width="1.0"/>
<line x1="316.3" y1="121.1" x2="281.0" y2="141.8" stroke="rgb(0,0,0)"  stroke-width="1.0"/>
<line x1="246.4" y1="162.3" x2="281.0" y2="141.8" stroke="rgb(0,0,0)"  stroke-width="1.0"/>
<line x1="488.7" y1="60.7" x2="454.1" y2="80.0" stroke="rgb(0,0,0)"  stroke-width="1.0"/>
<line x1="74.4" y1="223.0" x2="108.6" y2="203.3" stroke="rgb(0,0,0)"  stroke-width="1.0"/>
<line x1="512.0" y1="46.7" x2="488.7" y2="60.7" stroke="rgb(0,0,0)"  stroke-width="1.0"/>
<line x1="514.1" y1="50.3" x2="490.9" y2="64.3" stroke="rgb(0,0,0)"  stroke-width="1.0"/>
<line x1="509.8" y1="43.1" x2="486.5" y2="57.1" stroke="rgb(0,0,0)"  stroke-width="1.0"/>
<line x1="51.2" y1="236.8" x2="74.4" y2="223.0" stroke="rgb(0,0,0)"  stroke-width="1.0"/>
<line x1="49.0" y1="233.2" x2="72.3" y2="219.4" stroke="rgb(0,0,0)"  stroke-width="1.0"/>
<line x1="53.3" y1="240.4" x2="76.6" y2="226.6" stroke="rgb(0,0,0)"  stroke-width="1.0"/>
<line x1="315.9" y1="200.1" x2="301.9" y2="176.6" stroke="rgb(0,0,0)"  stroke-width="1.0"/>
<line x1="278.4" y1="190.4" x2="301.9" y2="176.6" stroke="rgb(0,0,0)"  stroke-width="1.0"/>
<line x1="237.3" y1="120.8" x2="260.8" y2="106.8" stroke="rgb(0,0,0)"  stroke-width="1.0"/>
<line x1="247.0" y1="83.3" x2="260.8" y2="106.8" stroke="rgb(0,0,0)"  stroke-width="1.0"/>
<line x1="284.5" y1="92.9" x2="260.8" y2="106.8" stroke="rgb(0,0,0)"  stroke-width="1.0"/>
<line x1="325.7" y1="162.7" x2="301.9" y2="176.6" stroke="rgb(0,0,0)"  stroke-width="1.0"/>
<line x1="108.6" y1="203.3" x2="131.7" y2="216.5" stroke="rgb(0,0,0)"  stroke-width="1.0"/>
<line x1="454.1" y1="80.0" x2="430.8" y2="67.0" stroke="rgb(0,0,0)"  stroke-width="1.0"/>
<line x1="154.2" y1="216.3" x2="177.8" y2="202.3" stroke="rgb(0,0,0)"  stroke-width="1.0"/>
<line x1="408.3" y1="67.3" x2="384.9" y2="81.2" stroke="rgb(0,0,0)"  stroke-width="1.0"/>
<line x1="246.4" y1="162.3" x2="246.4" y2="202.3" stroke="rgb(0,0,0)"  stroke-width="1.0"/>
<line x1="239.2" y1="168.3" x2="239.2" y2="196.3" stroke="rgb(0,0,0)"  stroke-width="1.0"/>
<line x1="246.4" y1="202.3" x2="212.2" y2="222.0" stroke="rgb(0,0,0)"  stroke-width="1.0"/>
<line x1="212.2" y1="222.0" x2="177.8" y2="202.3" stroke="rgb(0,0,0)"  stroke-width="1.0"/>
<line x1="210.6" y1="212.8" x2="186.6" y2="199.0" stroke="rgb(0,0,0)"  stroke-width="1.0"/>
<line x1="177.8" y1="202.3" x2="177.8" y2="162.3" stroke="rgb(0,0,0)"  stroke-width="1.0"/>
<line x1="177.8" y1="162.3" x2="212.2" y2="142.6" stroke="rgb(0,0,0)"  stroke-width="1.0"/>
<line x1="186.6" y1="165.6" x2="210.6" y2="151.9" stroke="rgb(0,0,0)"  stroke-width="1.0"/>
<line x1="212.2" y1="142.6" x2="246.4" y2="162.3" stroke="rgb(0,0,0)"  stroke-width="1.0"/>
<line x1="316.3" y1="121.1" x2="350.7" y2="140.8" stroke="rgb(0,0,0)"  stroke-width="1.0"/>
<line x1="350.7" y1="140.8" x2="384.9" y2="121.1" stroke="rgb(0,0,0)"  stroke-width="1.0"/>
<line x1="352.3" y1="131.6" x2="376.1" y2="117.9" stroke="rgb(0,0,0)"  stroke-width="1.0"/>
<line x1="384.9" y1="121.1" x2="384.9" y2="81.2" stroke="rgb(0,0,0)"  stroke-width="1.0"/>
<line x1="384.9" y1="81.2" x2="350.7" y2="61.5" stroke="rgb(0,0,0)"  stroke-width="1.0"/>
<line x1="376.1" y1="84.4" x2="352.3" y2="70.7" stroke="rgb(0,0,0)"  stroke-width="1.0"/>
<line x1="350.7" y1="61.5" x2="316.3" y2="81.2" stroke="rgb(0,0,0)"  stroke-width="1.0"/>
<line x1="316.3" y1="81.2" x2="316.3" y2="121.1" stroke="rgb(0,0,0)"  stroke-width="1.0"/>
<line x1="323.5" y1="87.2" x2="323.5" y2="115.1" stroke="rgb(0,0,0)"  stroke-width="1.0"/>
<text x="517.092062" y="48.000000" fill="rgb(102,102,102)"  stroke="rgb(102,102,102)" stroke-width="1" font-size="16" >CH</text>
<text x="22.000000" y="251.462016" fill="rgb(102,102,102)"  stroke="rgb(102,102,102)" stroke-width="1" font-size="16" >HC</text>
<text x="316.614937" y="219.243603" fill="rgb(127,178,255)"  stroke="rgb(127,178,255)" stroke-width="1" font-size="16" >F</text>
<text x="261.127940" y="204.924846" fill="rgb(127,178,255)"  stroke="rgb(127,178,255)" stroke-width="1" font-size="16" >F</text>
<text x="220.158368" y="135.511586" fill="rgb(127,178,255)"  stroke="rgb(127,178,255)" stroke-width="1" font-size="16" >F</text>
<text x="234.477124" y="80.019743" fill="rgb(127,178,255)"  stroke="rgb(127,178,255)" stroke-width="1" font-size="16" >F</text>
<text x="289.765452" y="94.343345" fill="rgb(127,178,255)"  stroke="rgb(127,178,255)" stroke-width="1" font-size="16" >F</text>
<text x="330.933694" y="164.149099" fill="rgb(127,178,255)"  stroke="rgb(127,178,255)" stroke-width="1" font-size="16" >F</text>
<text x="137.022361" y="230.974807" fill="rgb(255,12,12)"  stroke="rgb(255,12,12)" stroke-width="1" font-size="16" >O</text>
<text x="413.473692" y="68.685878" fill="rgb(255,12,12)"  stroke="rgb(255,12,12)" stroke-width="1" font-size="16" >O</text>
<text font-size="18.000000" fill ="black" font-family="sans-serif"
x="10.000000" y="20.000000" ></text>
<title> - OBDepict</title>
</svg>
