<?xml version="1.0"?>
<svg xmlns="http://www.w3.org/2000/svg"
xmlns:xlink="http://www.w3.org/1999/xlink" xmlns:cml="http://www.xml-cml.org/schema" width="532.743" height="239.124" x="0" y="0" font-family="sans-serif" stroke="rgb(0,0,0)" stroke-width="1"  stroke-linecap="round">
<rect x="0%" y="0%" width="100%" height="100%" stroke-width="0" fill="rgb(255,255,255)"  />
<line x1="253.9" y1="85.2" x2="221.5" y2="108.7" stroke="rgb(0,0,0)"  stroke-width="1.0"/>
<line x1="460.4" y1="63.6" x2="428.1" y2="87.0" stroke="rgb(0,0,0)"  stroke-width="1.0"/>
<line x1="482.2" y1="47.7" x2="460.4" y2="63.6" stroke="rgb(0,0,0)"  stroke-width="1.0"/>
<line x1="484.7" y1="51.1" x2="462.9" y2="67.0" stroke="rgb(0,0,0)"  stroke-width="1.0"/>
<line x1="479.8" y1="44.3" x2="458.0" y2="60.2" stroke="rgb(0,0,0)"  stroke-width="1.0"/>
<line x1="120.0" y1="128.6" x2="147.0" y2="128.6" stroke="rgb(0,0,0)"  stroke-width="1.0"/>
<line x1="359.3" y1="94.3" x2="322.7" y2="78.0" stroke="rgb(0,0,0)"  stroke-width="1.0"/>
<line x1="278.5" y1="96.3" x2="253.9" y2="85.2" stroke="rgb(0,0,0)"  stroke-width="1.0"/>
<line x1="254.0" y1="58.1" x2="256.8" y2="84.9" stroke="rgb(0,0,0)"  stroke-width="1.0"/>
<line x1="248.0" y1="58.7" x2="250.9" y2="85.6" stroke="rgb(0,0,0)"  stroke-width="1.0"/>
<line x1="359.1" y1="121.5" x2="356.3" y2="94.6" stroke="rgb(0,0,0)"  stroke-width="1.0"/>
<line x1="365.1" y1="120.9" x2="362.2" y2="94.0" stroke="rgb(0,0,0)"  stroke-width="1.0"/>
<line x1="322.7" y1="78.0" x2="300.9" y2="93.9" stroke="rgb(0,0,0)"  stroke-width="1.0"/>
<line x1="381.1" y1="78.4" x2="359.3" y2="94.3" stroke="rgb(0,0,0)"  stroke-width="1.0"/>
<line x1="175.1" y1="70.7" x2="183.4" y2="96.3" stroke="rgb(0,0,0)"  stroke-width="1.0"/>
<line x1="175.1" y1="186.8" x2="183.4" y2="161.2" stroke="rgb(0,0,0)"  stroke-width="1.0"/>
<line x1="428.1" y1="87.0" x2="403.4" y2="76.0" stroke="rgb(0,0,0)"  stroke-width="1.0"/>
<line x1="221.5" y1="108.7" x2="183.4" y2="96.3" stroke="rgb(0,0,0)"  stroke-width="1.0"/>
<line x1="213.6" y1="113.7" x2="186.9" y2="105.0" stroke="rgb(0,0,0)"  stroke-width="1.0"/>
<line x1="183.4" y1="96.3" x2="167.6" y2="118.1" stroke="rgb(0,0,0)"  stroke-width="1.0"/>
<line x1="167.5" y1="139.2" x2="183.4" y2="161.2" stroke="rgb(0,0,0)"  stroke-width="1.0"/>
<line x1="183.4" y1="161.2" x2="221.5" y2="148.6" stroke="rgb(0,0,0)"  stroke-width="1.0"/>
<line x1="186.8" y1="152.5" x2="213.6" y2="143.7" stroke="rgb(0,0,0)"  stroke-width="1.0"/>
<line x1="221.5" y1="148.6" x2="221.5" y2="108.7" stroke="rgb(0,0,0)"  stroke-width="1.0"/>
<line x1="120.0" y1="128.6" x2="100.0" y2="163.4" stroke="rgb(0,0,0)"  stroke-width="1.0"/>
<line x1="110.7" y1="130.3" x2="96.7" y2="154.6" stroke="rgb(0,0,0)"  stroke-width="1.0"/>
<line x1="100.0" y1="163.4" x2="73.0" y2="163.4" stroke="rgb(0,0,0)"  stroke-width="1.0"/>
<line x1="53.4" y1="151.9" x2="40.0" y2="128.6" stroke="rgb(0,0,0)"  stroke-width="1.0"/>
<line x1="58.6" y1="146.6" x2="49.2" y2="130.3" stroke="rgb(0,0,0)"  stroke-width="1.0"/>
<line x1="40.0" y1="128.6" x2="60.0" y2="94.1" stroke="rgb(0,0,0)"  stroke-width="1.0"/>
<line x1="60.0" y1="94.1" x2="100.0" y2="94.1" stroke="rgb(0,0,0)"  stroke-width="1.0"/>
<line x1="66.0" y1="101.3" x2="94.0" y2="101.3" stroke="rgb(0,0,0)"  stroke-width="1.0"/>
<line x1="100.0" y1="94.1" x2="120.0" y2="128.6" stroke="rgb(0,0,0)"  stroke-width="1.0"/>
<text x="153.950166" y="136.646807" fill="rgb(12,12,255)"  stroke="rgb(12,12,255)" stroke-width="1" font-size="16" >N</text>
<text x="486.742813" y="48.000000" fill="rgb(102,102,102)"  stroke="rgb(102,102,102)" stroke-width="1" font-size="16" >CH</text>
<text x="284.402635" y="109.588958" fill="rgb(255,12,12)"  stroke="rgb(255,12,12)" stroke-width="1" font-size="16" >O</text>
<text x="243.609885" y="53.452280" fill="rgb(255,12,12)"  stroke="rgb(255,12,12)" stroke-width="1" font-size="16" >O</text>
<text x="53.991694" y="171.381467" fill="rgb(12,12,255)"  stroke="rgb(12,12,255)" stroke-width="1" font-size="16" >N</text>
<text x="357.501962" y="142.099088" fill="rgb(255,12,12)"  stroke="rgb(255,12,12)" stroke-width="1" font-size="16" >O</text>
<text x="385.572724" y="78.692703" fill="rgb(12,12,255)"  stroke="rgb(12,12,255)" stroke-width="1" font-size="16" >N</text>
<text x="385.572724" y="62.692703" fill="rgb(12,12,255)"  stroke="rgb(12,12,255)" stroke-width="1" font-size="16" >H</text>
<text x="145.058278" y="66.372973" fill="rgb(102,102,102)"  stroke="rgb(102,102,102)" stroke-width="1" font-size="16" >H</text>
<text x="157.058278" y="70.052973" fill="rgb(102,102,102)"  stroke="rgb(102,102,102)" stroke-width="1" font-size="13" >3</text>
<text x="163.558278" y="66.372973" fill="rgb(102,102,102)"  stroke="rgb(102,102,102)" stroke-width="1" font-size="16" >C</text>
<text x="145.058278" y="207.124194" fill="rgb(102,102,102)"  stroke="rgb(102,102,102)" stroke-width="1" font-size="16" >H</text>
<text x="157.058278" y="210.804194" fill="rgb(102,102,102)"  stroke="rgb(102,102,102)" stroke-width="1" font-size="13" >3</text>
<text x="163.558278" y="207.124194" fill="rgb(102,102,102)"  stroke="rgb(102,102,102)" stroke-width="1" font-size="16" >C</text>
<text font-size="18.000000" fill ="black" font-family="sans-serif"
x="10.000000" y="20.000000" ></text>
<title> - OBDepict</title>
</svg>
