<?xml version="1.0"?>
<svg xmlns="http://www.w3.org/2000/svg"
xmlns:xlink="http://www.w3.org/1999/xlink" xmlns:cml="http://www.xml-cml.org/schema" width="184.018" height="359.932" x="0" y="0" font-family="sans-serif" stroke="rgb(0,0,0)" stroke-width="1"  stroke-linecap="round">
<rect x="0%" y="0%" width="100%" height="100%" stroke-width="0" fill="rgb(255,255,255)"  />
<line x1="144.0" y1="279.9" x2="144.0" y2="240.0" stroke="rgb(0,0,0)"  stroke-width="1.0"/>
<line x1="144.0" y1="306.9" x2="144.0" y2="279.9" stroke="rgb(0,0,0)"  stroke-width="1.0"/>
<line x1="139.8" y1="306.9" x2="139.8" y2="279.9" stroke="rgb(0,0,0)"  stroke-width="1.0"/>
<line x1="148.2" y1="306.9" x2="148.2" y2="279.9" stroke="rgb(0,0,0)"  stroke-width="1.0"/>
<line x1="86.0" y1="166.5" x2="109.3" y2="180.0" stroke="rgb(0,0,0)"  stroke-width="1.0"/>
<line x1="134.2" y1="169.1" x2="110.8" y2="182.6" stroke="rgb(0,0,0)"  stroke-width="1.0"/>
<line x1="131.3" y1="163.9" x2="107.8" y2="177.4" stroke="rgb(0,0,0)"  stroke-width="1.0"/>
<line x1="109.3" y1="207.0" x2="109.3" y2="180.0" stroke="rgb(0,0,0)"  stroke-width="1.0"/>
<line x1="74.7" y1="120.0" x2="74.7" y2="147.0" stroke="rgb(0,0,0)"  stroke-width="1.0"/>
<line x1="144.0" y1="240.0" x2="120.5" y2="226.4" stroke="rgb(0,0,0)"  stroke-width="1.0"/>
<line x1="74.7" y1="120.0" x2="109.3" y2="100.0" stroke="rgb(0,0,0)"  stroke-width="1.0"/>
<line x1="109.3" y1="100.0" x2="109.3" y2="60.0" stroke="rgb(0,0,0)"  stroke-width="1.0"/>
<line x1="102.1" y1="94.0" x2="102.1" y2="66.0" stroke="rgb(0,0,0)"  stroke-width="1.0"/>
<line x1="109.3" y1="60.0" x2="74.7" y2="40.0" stroke="rgb(0,0,0)"  stroke-width="1.0"/>
<line x1="74.7" y1="40.0" x2="40.0" y2="60.0" stroke="rgb(0,0,0)"  stroke-width="1.0"/>
<line x1="73.1" y1="49.2" x2="48.8" y2="63.2" stroke="rgb(0,0,0)"  stroke-width="1.0"/>
<line x1="40.0" y1="60.0" x2="40.0" y2="100.0" stroke="rgb(0,0,0)"  stroke-width="1.0"/>
<line x1="40.0" y1="100.0" x2="74.7" y2="120.0" stroke="rgb(0,0,0)"  stroke-width="1.0"/>
<line x1="48.8" y1="96.7" x2="73.1" y2="110.7" stroke="rgb(0,0,0)"  stroke-width="1.0"/>
<text x="138.018364" y="327.931989" fill="rgb(102,102,102)"  stroke="rgb(102,102,102)" stroke-width="1" font-size="16" >CH</text>
<text x="56.740650" y="167.970852" fill="rgb(12,12,255)"  stroke="rgb(12,12,255)" stroke-width="1" font-size="16" >HN</text>
<text x="138.018364" y="167.970852" fill="rgb(255,12,12)"  stroke="rgb(255,12,12)" stroke-width="1" font-size="16" >O</text>
<text x="91.277714" y="227.956279" fill="rgb(12,12,255)"  stroke="rgb(12,12,255)" stroke-width="1" font-size="16" >HN</text>
<text font-size="18.000000" fill ="black" font-family="sans-serif"
x="10.000000" y="20.000000" ></text>
<title> - OBDepict</title>
</svg>
