<?xml version="1.0"?>
<svg xmlns="http://www.w3.org/2000/svg"
xmlns:xlink="http://www.w3.org/1999/xlink" xmlns:cml="http://www.xml-cml.org/schema" width="423.758" height="303.261" x="0" y="0" font-family="sans-serif" stroke="rgb(0,0,0)" stroke-width="1"  stroke-linecap="round">
<rect x="0%" y="0%" width="100%" height="100%" stroke-width="0" fill="rgb(255,255,255)"  />
<line x1="232.9" y1="80.2" x2="269.1" y2="96.5" stroke="rgb(0,0,0)"  stroke-width="1.0"/>
<line x1="230.4" y1="85.7" x2="266.7" y2="102.0" stroke="rgb(0,0,0)"  stroke-width="1.0"/>
<line x1="326.5" y1="167.7" x2="313.1" y2="144.3" stroke="rgb(0,0,0)"  stroke-width="1.0"/>
<line x1="331.7" y1="164.7" x2="318.3" y2="141.3" stroke="rgb(0,0,0)"  stroke-width="1.0"/>
<line x1="72.4" y1="240.1" x2="104.7" y2="216.1" stroke="rgb(0,0,0)"  stroke-width="1.0"/>
<line x1="50.6" y1="255.7" x2="72.4" y2="240.1" stroke="rgb(0,0,0)"  stroke-width="1.0"/>
<line x1="48.1" y1="252.3" x2="70.0" y2="236.7" stroke="rgb(0,0,0)"  stroke-width="1.0"/>
<line x1="53.0" y1="259.1" x2="74.9" y2="243.5" stroke="rgb(0,0,0)"  stroke-width="1.0"/>
<line x1="308.6" y1="53.2" x2="305.7" y2="79.8" stroke="rgb(0,0,0)"  stroke-width="1.0"/>
<line x1="302.6" y1="52.6" x2="299.8" y2="79.2" stroke="rgb(0,0,0)"  stroke-width="1.0"/>
<line x1="198.8" y1="106.5" x2="231.6" y2="82.9" stroke="rgb(0,0,0)"  stroke-width="1.0"/>
<line x1="371.3" y1="98.2" x2="344.7" y2="103.8" stroke="rgb(0,0,0)"  stroke-width="1.0"/>
<line x1="104.7" y1="216.1" x2="102.1" y2="189.6" stroke="rgb(0,0,0)"  stroke-width="1.0"/>
<line x1="111.4" y1="169.0" x2="133.1" y2="153.2" stroke="rgb(0,0,0)"  stroke-width="1.0"/>
<line x1="379.7" y1="72.5" x2="371.3" y2="98.2" stroke="rgb(0,0,0)"  stroke-width="1.0"/>
<line x1="326.6" y1="118.3" x2="315.7" y2="142.8" stroke="rgb(0,0,0)"  stroke-width="1.0"/>
<line x1="315.7" y1="142.8" x2="289.1" y2="139.6" stroke="rgb(0,0,0)"  stroke-width="1.0"/>
<line x1="273.5" y1="125.4" x2="267.9" y2="99.2" stroke="rgb(0,0,0)"  stroke-width="1.0"/>
<line x1="267.9" y1="99.2" x2="302.8" y2="79.5" stroke="rgb(0,0,0)"  stroke-width="1.0"/>
<line x1="302.8" y1="79.5" x2="322.4" y2="97.7" stroke="rgb(0,0,0)"  stroke-width="1.0"/>
<line x1="198.8" y1="106.5" x2="202.6" y2="146.0" stroke="rgb(0,0,0)"  stroke-width="1.0"/>
<line x1="202.6" y1="146.0" x2="170.0" y2="169.4" stroke="rgb(0,0,0)"  stroke-width="1.0"/>
<line x1="193.5" y1="143.6" x2="170.7" y2="160.0" stroke="rgb(0,0,0)"  stroke-width="1.0"/>
<line x1="170.0" y1="169.4" x2="133.1" y2="153.2" stroke="rgb(0,0,0)"  stroke-width="1.0"/>
<line x1="133.1" y1="153.2" x2="129.5" y2="112.7" stroke="rgb(0,0,0)"  stroke-width="1.0"/>
<line x1="139.7" y1="146.6" x2="137.2" y2="118.1" stroke="rgb(0,0,0)"  stroke-width="1.0"/>
<line x1="129.5" y1="112.7" x2="162.1" y2="89.6" stroke="rgb(0,0,0)"  stroke-width="1.0"/>
<line x1="162.1" y1="89.6" x2="198.8" y2="106.5" stroke="rgb(0,0,0)"  stroke-width="1.0"/>
<line x1="164.5" y1="98.6" x2="190.3" y2="110.5" stroke="rgb(0,0,0)"  stroke-width="1.0"/>
<text x="325.974904" y="114.493519" fill="rgb(12,12,255)"  stroke="rgb(12,12,255)" stroke-width="1" font-size="16" >N</text>
<text x="270.159602" y="146.129802" fill="rgb(12,12,255)"  stroke="rgb(12,12,255)" stroke-width="1" font-size="16" >N</text>
<text x="270.159602" y="162.129802" fill="rgb(12,12,255)"  stroke="rgb(12,12,255)" stroke-width="1" font-size="16" >H</text>
<text x="329.603943" y="185.422531" fill="rgb(178,178,0)"  stroke="rgb(178,178,0)" stroke-width="1" font-size="16" >S</text>
<text x="22.000000" y="271.261210" fill="rgb(102,102,102)"  stroke="rgb(102,102,102)" stroke-width="1" font-size="16" >HC</text>
<text x="300.989431" y="48.000000" fill="rgb(255,12,12)"  stroke="rgb(255,12,12)" stroke-width="1" font-size="16" >O</text>
<text x="94.853205" y="184.616078" fill="rgb(255,12,12)"  stroke="rgb(255,12,12)" stroke-width="1" font-size="16" >O</text>
<text x="379.757941" y="68.151612" fill="rgb(102,102,102)"  stroke="rgb(102,102,102)" stroke-width="1" font-size="16" >CH</text>
<text x="403.757941" y="71.831612" fill="rgb(102,102,102)"  stroke="rgb(102,102,102)" stroke-width="1" font-size="13" >3</text>
<text font-size="18.000000" fill ="black" font-family="sans-serif"
x="10.000000" y="20.000000" ></text>
<title> - OBDepict</title>
</svg>
