<?xml version="1.0"?>
<svg xmlns="http://www.w3.org/2000/svg"
xmlns:xlink="http://www.w3.org/1999/xlink" xmlns:cml="http://www.xml-cml.org/schema" width="390.834" height="422.608" x="0" y="0" font-family="sans-serif" stroke="rgb(0,0,0)" stroke-width="1"  stroke-linecap="round">
<rect x="0%" y="0%" width="100%" height="100%" stroke-width="0" fill="rgb(255,255,255)"  />
<line x1="40.0" y1="342.6" x2="74.2" y2="322.2" stroke="rgb(0,0,0)"  stroke-width="1.0"/>
<line x1="176.9" y1="220.2" x2="211.3" y2="200.0" stroke="rgb(0,0,0)"  stroke-width="1.0"/>
<line x1="40.4" y1="369.6" x2="40.0" y2="342.6" stroke="rgb(0,0,0)"  stroke-width="1.0"/>
<line x1="36.2" y1="369.7" x2="35.8" y2="342.7" stroke="rgb(0,0,0)"  stroke-width="1.0"/>
<line x1="44.6" y1="369.5" x2="44.2" y2="342.5" stroke="rgb(0,0,0)"  stroke-width="1.0"/>
<line x1="221.1" y1="270.6" x2="244.6" y2="256.3" stroke="rgb(0,0,0)"  stroke-width="1.0"/>
<line x1="224.2" y1="275.8" x2="247.7" y2="261.4" stroke="rgb(0,0,0)"  stroke-width="1.0"/>
<line x1="151.0" y1="151.7" x2="174.5" y2="138.1" stroke="rgb(0,0,0)"  stroke-width="1.0"/>
<line x1="154.1" y1="156.9" x2="177.5" y2="143.2" stroke="rgb(0,0,0)"  stroke-width="1.0"/>
<line x1="74.2" y1="322.2" x2="73.8" y2="295.0" stroke="rgb(0,0,0)"  stroke-width="1.0"/>
<line x1="84.7" y1="275.4" x2="108.2" y2="261.5" stroke="rgb(0,0,0)"  stroke-width="1.0"/>
<line x1="302.2" y1="282.6" x2="315.5" y2="258.6" stroke="rgb(0,0,0)"  stroke-width="1.0"/>
<line x1="209.1" y1="53.0" x2="209.5" y2="80.7" stroke="rgb(0,0,0)"  stroke-width="1.0"/>
<line x1="182.3" y1="81.1" x2="209.5" y2="80.7" stroke="rgb(0,0,0)"  stroke-width="1.0"/>
<line x1="339.5" y1="271.9" x2="315.5" y2="258.6" stroke="rgb(0,0,0)"  stroke-width="1.0"/>
<line x1="246.2" y1="219.5" x2="280.2" y2="198.9" stroke="rgb(0,0,0)"  stroke-width="1.0"/>
<line x1="247.6" y1="210.3" x2="271.3" y2="195.8" stroke="rgb(0,0,0)"  stroke-width="1.0"/>
<line x1="280.2" y1="198.9" x2="279.7" y2="172.3" stroke="rgb(0,0,0)"  stroke-width="1.0"/>
<line x1="268.2" y1="153.0" x2="244.9" y2="140.0" stroke="rgb(0,0,0)"  stroke-width="1.0"/>
<line x1="244.9" y1="140.0" x2="210.9" y2="160.2" stroke="rgb(0,0,0)"  stroke-width="1.0"/>
<line x1="243.4" y1="149.2" x2="219.7" y2="163.3" stroke="rgb(0,0,0)"  stroke-width="1.0"/>
<line x1="210.9" y1="160.2" x2="211.3" y2="200.0" stroke="rgb(0,0,0)"  stroke-width="1.0"/>
<line x1="211.3" y1="200.0" x2="246.2" y2="219.5" stroke="rgb(0,0,0)"  stroke-width="1.0"/>
<line x1="176.0" y1="140.7" x2="175.5" y2="100.9" stroke="rgb(0,0,0)"  stroke-width="1.0"/>
<line x1="175.5" y1="100.9" x2="209.5" y2="80.7" stroke="rgb(0,0,0)"  stroke-width="1.0"/>
<line x1="209.5" y1="80.7" x2="244.2" y2="99.6" stroke="rgb(0,0,0)"  stroke-width="1.0"/>
<line x1="244.2" y1="99.6" x2="244.9" y2="140.0" stroke="rgb(0,0,0)"  stroke-width="1.0"/>
<line x1="210.9" y1="160.2" x2="176.0" y2="140.7" stroke="rgb(0,0,0)"  stroke-width="1.0"/>
<line x1="280.2" y1="198.9" x2="315.3" y2="218.6" stroke="rgb(0,0,0)"  stroke-width="1.0"/>
<line x1="315.3" y1="218.6" x2="315.5" y2="258.6" stroke="rgb(0,0,0)"  stroke-width="1.0"/>
<line x1="315.5" y1="258.6" x2="281.5" y2="278.9" stroke="rgb(0,0,0)"  stroke-width="1.0"/>
<line x1="281.5" y1="278.9" x2="246.2" y2="258.9" stroke="rgb(0,0,0)"  stroke-width="1.0"/>
<line x1="246.2" y1="258.9" x2="246.2" y2="219.5" stroke="rgb(0,0,0)"  stroke-width="1.0"/>
<line x1="176.9" y1="220.2" x2="177.5" y2="260.2" stroke="rgb(0,0,0)"  stroke-width="1.0"/>
<line x1="169.8" y1="226.3" x2="170.2" y2="254.3" stroke="rgb(0,0,0)"  stroke-width="1.0"/>
<line x1="177.5" y1="260.2" x2="142.9" y2="280.8" stroke="rgb(0,0,0)"  stroke-width="1.0"/>
<line x1="142.9" y1="280.8" x2="108.2" y2="261.5" stroke="rgb(0,0,0)"  stroke-width="1.0"/>
<line x1="141.1" y1="271.6" x2="117.0" y2="258.2" stroke="rgb(0,0,0)"  stroke-width="1.0"/>
<line x1="108.2" y1="261.5" x2="107.5" y2="221.5" stroke="rgb(0,0,0)"  stroke-width="1.0"/>
<line x1="107.5" y1="221.5" x2="142.0" y2="200.9" stroke="rgb(0,0,0)"  stroke-width="1.0"/>
<line x1="116.4" y1="224.6" x2="140.5" y2="210.1" stroke="rgb(0,0,0)"  stroke-width="1.0"/>
<line x1="142.0" y1="200.9" x2="176.9" y2="220.2" stroke="rgb(0,0,0)"  stroke-width="1.0"/>
<text x="273.514154" y="167.313541" fill="rgb(255,12,12)"  stroke="rgb(255,12,12)" stroke-width="1" font-size="16" >O</text>
<text x="34.664092" y="390.608344" fill="rgb(102,102,102)"  stroke="rgb(102,102,102)" stroke-width="1" font-size="16" >CH</text>
<text x="205.524728" y="287.960113" fill="rgb(255,12,12)"  stroke="rgb(255,12,12)" stroke-width="1" font-size="16" >O</text>
<text x="135.315200" y="168.869552" fill="rgb(255,12,12)"  stroke="rgb(255,12,12)" stroke-width="1" font-size="16" >O</text>
<text x="67.548753" y="289.957236" fill="rgb(255,12,12)"  stroke="rgb(255,12,12)" stroke-width="1" font-size="16" >O</text>
<text x="269.951637" y="301.954515" fill="rgb(102,102,102)"  stroke="rgb(102,102,102)" stroke-width="1" font-size="16" >H</text>
<text x="281.951637" y="305.634515" fill="rgb(102,102,102)"  stroke="rgb(102,102,102)" stroke-width="1" font-size="13" >3</text>
<text x="288.451637" y="301.954515" fill="rgb(102,102,102)"  stroke="rgb(102,102,102)" stroke-width="1" font-size="16" >C</text>
<text x="182.858666" y="48.000000" fill="rgb(102,102,102)"  stroke="rgb(102,102,102)" stroke-width="1" font-size="16" >H</text>
<text x="194.858666" y="51.680000" fill="rgb(102,102,102)"  stroke="rgb(102,102,102)" stroke-width="1" font-size="13" >3</text>
<text x="201.358666" y="48.000000" fill="rgb(102,102,102)"  stroke="rgb(102,102,102)" stroke-width="1" font-size="16" >C</text>
<text x="143.308850" y="89.328807" fill="rgb(102,102,102)"  stroke="rgb(102,102,102)" stroke-width="1" font-size="16" >H</text>
<text x="155.308850" y="93.008807" fill="rgb(102,102,102)"  stroke="rgb(102,102,102)" stroke-width="1" font-size="13" >3</text>
<text x="161.808850" y="89.328807" fill="rgb(102,102,102)"  stroke="rgb(102,102,102)" stroke-width="1" font-size="16" >C</text>
<text x="346.833733" y="286.181123" fill="rgb(102,102,102)"  stroke="rgb(102,102,102)" stroke-width="1" font-size="16" >CH</text>
<text x="370.833733" y="289.861123" fill="rgb(102,102,102)"  stroke="rgb(102,102,102)" stroke-width="1" font-size="13" >3</text>
<text font-size="18.000000" fill ="black" font-family="sans-serif"
x="10.000000" y="20.000000" ></text>
<title> - OBDepict</title>
</svg>
