<?xml version="1.0"?>
<svg xmlns="http://www.w3.org/2000/svg"
xmlns:xlink="http://www.w3.org/1999/xlink" xmlns:cml="http://www.xml-cml.org/schema" width="406.551" height="327.31" x="0" y="0" font-family="sans-serif" stroke="rgb(0,0,0)" stroke-width="1"  stroke-linecap="round">
<rect x="0%" y="0%" width="100%" height="100%" stroke-width="0" fill="rgb(255,255,255)"  />
<line x1="151.6" y1="135.2" x2="196.1" y2="104.9" stroke="rgb(0,0,0)"  stroke-width="1.0"/>
<line x1="151.6" y1="135.2" x2="142.6" y2="102.8" stroke="rgb(0,0,0)"  stroke-width="1.0"/>
<line x1="170.5" y1="166.9" x2="196.7" y2="170.4" stroke="rgb(0,0,0)"  stroke-width="1.0"/>
<line x1="169.7" y1="172.9" x2="195.9" y2="176.4" stroke="rgb(0,0,0)"  stroke-width="1.0"/>
<line x1="196.1" y1="104.9" x2="233.6" y2="124.7" stroke="rgb(0,0,0)"  stroke-width="1.0"/>
<line x1="144.9" y1="210.9" x2="149.5" y2="236.8" stroke="rgb(0,0,0)"  stroke-width="1.0"/>
<line x1="233.6" y1="124.7" x2="267.1" y2="103.7" stroke="rgb(0,0,0)"  stroke-width="1.0"/>
<line x1="236.6" y1="124.5" x2="237.7" y2="144.3" stroke="rgb(0,0,0)"  stroke-width="1.0"/>
<line x1="230.6" y1="124.8" x2="231.7" y2="144.6" stroke="rgb(0,0,0)"  stroke-width="1.0"/>
<line x1="149.5" y1="236.8" x2="119.2" y2="262.2" stroke="rgb(0,0,0)"  stroke-width="1.0"/>
<line x1="119.2" y1="262.2" x2="99.2" y2="279.0" stroke="rgb(0,0,0)"  stroke-width="1.0"/>
<line x1="121.9" y1="265.4" x2="101.9" y2="282.2" stroke="rgb(0,0,0)"  stroke-width="1.0"/>
<line x1="116.5" y1="258.9" x2="96.5" y2="275.7" stroke="rgb(0,0,0)"  stroke-width="1.0"/>
<line x1="301.8" y1="121.8" x2="302.8" y2="147.7" stroke="rgb(0,0,0)"  stroke-width="1.0"/>
<line x1="265.1" y1="64.4" x2="241.8" y2="52.1" stroke="rgb(0,0,0)"  stroke-width="1.0"/>
<line x1="333.3" y1="61.0" x2="355.6" y2="46.9" stroke="rgb(0,0,0)"  stroke-width="1.0"/>
<line x1="112.9" y1="141.7" x2="151.6" y2="135.2" stroke="rgb(0,0,0)"  stroke-width="1.0"/>
<line x1="151.6" y1="135.2" x2="170.1" y2="169.9" stroke="rgb(0,0,0)"  stroke-width="1.0"/>
<line x1="170.1" y1="169.9" x2="151.7" y2="188.8" stroke="rgb(0,0,0)"  stroke-width="1.0"/>
<line x1="130.9" y1="192.4" x2="107.5" y2="180.9" stroke="rgb(0,0,0)"  stroke-width="1.0"/>
<line x1="107.5" y1="180.9" x2="112.9" y2="141.7" stroke="rgb(0,0,0)"  stroke-width="1.0"/>
<line x1="115.4" y1="176.0" x2="119.2" y2="148.6" stroke="rgb(0,0,0)"  stroke-width="1.0"/>
<line x1="112.9" y1="141.7" x2="82.2" y2="117.4" stroke="rgb(0,0,0)"  stroke-width="1.0"/>
<line x1="82.2" y1="117.4" x2="45.4" y2="131.9" stroke="rgb(0,0,0)"  stroke-width="1.0"/>
<line x1="79.2" y1="126.3" x2="53.7" y2="136.4" stroke="rgb(0,0,0)"  stroke-width="1.0"/>
<line x1="45.4" y1="131.9" x2="40.0" y2="171.2" stroke="rgb(0,0,0)"  stroke-width="1.0"/>
<line x1="40.0" y1="171.2" x2="70.9" y2="195.6" stroke="rgb(0,0,0)"  stroke-width="1.0"/>
<line x1="49.2" y1="169.2" x2="70.7" y2="186.2" stroke="rgb(0,0,0)"  stroke-width="1.0"/>
<line x1="70.9" y1="195.6" x2="107.5" y2="180.9" stroke="rgb(0,0,0)"  stroke-width="1.0"/>
<line x1="267.1" y1="103.7" x2="265.1" y2="64.4" stroke="rgb(0,0,0)"  stroke-width="1.0"/>
<line x1="273.9" y1="97.3" x2="272.6" y2="70.0" stroke="rgb(0,0,0)"  stroke-width="1.0"/>
<line x1="265.1" y1="64.4" x2="298.3" y2="43.1" stroke="rgb(0,0,0)"  stroke-width="1.0"/>
<line x1="298.3" y1="43.1" x2="333.3" y2="61.0" stroke="rgb(0,0,0)"  stroke-width="1.0"/>
<line x1="300.4" y1="52.2" x2="324.6" y2="64.7" stroke="rgb(0,0,0)"  stroke-width="1.0"/>
<line x1="333.3" y1="61.0" x2="335.1" y2="100.4" stroke="rgb(0,0,0)"  stroke-width="1.0"/>
<line x1="335.1" y1="100.4" x2="301.8" y2="121.8" stroke="rgb(0,0,0)"  stroke-width="1.0"/>
<line x1="326.1" y1="97.6" x2="303.0" y2="112.5" stroke="rgb(0,0,0)"  stroke-width="1.0"/>
<line x1="301.8" y1="121.8" x2="267.1" y2="103.7" stroke="rgb(0,0,0)"  stroke-width="1.0"/>
<text x="121.144659" y="98.290838" fill="rgb(255,12,12)"  stroke="rgb(255,12,12)" stroke-width="1" font-size="16" >HO</text>
<text x="136.582043" y="206.119665" fill="rgb(12,12,255)"  stroke="rgb(12,12,255)" stroke-width="1" font-size="16" >N</text>
<text x="203.157488" y="183.146482" fill="rgb(255,12,12)"  stroke="rgb(255,12,12)" stroke-width="1" font-size="16" >O</text>
<text x="229.386637" y="165.410535" fill="rgb(255,12,12)"  stroke="rgb(255,12,12)" stroke-width="1" font-size="16" >O</text>
<text x="71.207107" y="295.310233" fill="rgb(102,102,102)"  stroke="rgb(102,102,102)" stroke-width="1" font-size="16" >HC</text>
<text x="299.232005" y="168.671276" fill="rgb(102,102,102)"  stroke="rgb(102,102,102)" stroke-width="1" font-size="16" >CH</text>
<text x="323.232005" y="172.351276" fill="rgb(102,102,102)"  stroke="rgb(102,102,102)" stroke-width="1" font-size="13" >3</text>
<text x="204.326044" y="53.967681" fill="rgb(102,102,102)"  stroke="rgb(102,102,102)" stroke-width="1" font-size="16" >H</text>
<text x="216.326044" y="57.647681" fill="rgb(102,102,102)"  stroke="rgb(102,102,102)" stroke-width="1" font-size="13" >3</text>
<text x="222.826044" y="53.967681" fill="rgb(102,102,102)"  stroke="rgb(102,102,102)" stroke-width="1" font-size="16" >C</text>
<text x="362.551483" y="48.000000" fill="rgb(102,102,102)"  stroke="rgb(102,102,102)" stroke-width="1" font-size="16" >CH</text>
<text x="386.551483" y="51.680000" fill="rgb(102,102,102)"  stroke="rgb(102,102,102)" stroke-width="1" font-size="13" >3</text>
<text font-size="18.000000" fill ="black" font-family="sans-serif"
x="10.000000" y="20.000000" ></text>
<title> - OBDepict</title>
</svg>
