<?xml version="1.0"?>
<svg xmlns="http://www.w3.org/2000/svg"
xmlns:xlink="http://www.w3.org/1999/xlink" xmlns:cml="http://www.xml-cml.org/schema" width="357.23" height="279.926" x="0" y="0" font-family="sans-serif" stroke="rgb(0,0,0)" stroke-width="1"  stroke-linecap="round">
<rect x="0%" y="0%" width="100%" height="100%" stroke-width="0" fill="rgb(255,255,255)"  />
<line x1="180.1" y1="157.4" x2="214.8" y2="177.4" stroke="rgb(0,0,0)"  stroke-width="1.0"/>
<line x1="177.1" y1="162.6" x2="211.8" y2="182.5" stroke="rgb(0,0,0)"  stroke-width="1.0"/>
<line x1="144.0" y1="179.9" x2="178.6" y2="160.0" stroke="rgb(0,0,0)"  stroke-width="1.0"/>
<line x1="74.7" y1="60.0" x2="74.7" y2="100.0" stroke="rgb(0,0,0)"  stroke-width="1.0"/>
<line x1="51.3" y1="46.5" x2="74.7" y2="60.0" stroke="rgb(0,0,0)"  stroke-width="1.0"/>
<line x1="53.4" y1="42.9" x2="76.8" y2="56.4" stroke="rgb(0,0,0)"  stroke-width="1.0"/>
<line x1="49.2" y1="50.1" x2="72.6" y2="63.6" stroke="rgb(0,0,0)"  stroke-width="1.0"/>
<line x1="304.5" y1="236.0" x2="281.1" y2="222.5" stroke="rgb(0,0,0)"  stroke-width="1.0"/>
<line x1="307.5" y1="230.8" x2="284.1" y2="217.3" stroke="rgb(0,0,0)"  stroke-width="1.0"/>
<line x1="188.4" y1="230.8" x2="211.8" y2="217.3" stroke="rgb(0,0,0)"  stroke-width="1.0"/>
<line x1="191.4" y1="236.0" x2="214.8" y2="222.5" stroke="rgb(0,0,0)"  stroke-width="1.0"/>
<line x1="250.9" y1="133.0" x2="250.9" y2="160.0" stroke="rgb(0,0,0)"  stroke-width="1.0"/>
<line x1="244.9" y1="133.0" x2="244.9" y2="160.0" stroke="rgb(0,0,0)"  stroke-width="1.0"/>
<line x1="109.3" y1="133.0" x2="109.3" y2="160.0" stroke="rgb(0,0,0)"  stroke-width="1.0"/>
<line x1="74.7" y1="100.0" x2="98.0" y2="113.5" stroke="rgb(0,0,0)"  stroke-width="1.0"/>
<line x1="213.3" y1="179.9" x2="247.9" y2="160.0" stroke="rgb(0,0,0)"  stroke-width="1.0"/>
<line x1="247.9" y1="160.0" x2="271.3" y2="173.5" stroke="rgb(0,0,0)"  stroke-width="1.0"/>
<line x1="282.6" y1="192.9" x2="282.6" y2="219.9" stroke="rgb(0,0,0)"  stroke-width="1.0"/>
<line x1="282.6" y1="219.9" x2="259.2" y2="233.4" stroke="rgb(0,0,0)"  stroke-width="1.0"/>
<line x1="236.7" y1="233.4" x2="213.3" y2="219.9" stroke="rgb(0,0,0)"  stroke-width="1.0"/>
<line x1="213.3" y1="219.9" x2="213.3" y2="179.9" stroke="rgb(0,0,0)"  stroke-width="1.0"/>
<line x1="144.0" y1="179.9" x2="109.3" y2="160.0" stroke="rgb(0,0,0)"  stroke-width="1.0"/>
<line x1="109.3" y1="160.0" x2="74.7" y2="179.9" stroke="rgb(0,0,0)"  stroke-width="1.0"/>
<line x1="107.7" y1="169.2" x2="83.4" y2="183.2" stroke="rgb(0,0,0)"  stroke-width="1.0"/>
<line x1="74.7" y1="179.9" x2="74.7" y2="219.9" stroke="rgb(0,0,0)"  stroke-width="1.0"/>
<line x1="74.7" y1="219.9" x2="109.3" y2="239.9" stroke="rgb(0,0,0)"  stroke-width="1.0"/>
<line x1="83.4" y1="216.7" x2="107.7" y2="230.7" stroke="rgb(0,0,0)"  stroke-width="1.0"/>
<line x1="109.3" y1="239.9" x2="144.0" y2="219.9" stroke="rgb(0,0,0)"  stroke-width="1.0"/>
<line x1="144.0" y1="219.9" x2="144.0" y2="179.9" stroke="rgb(0,0,0)"  stroke-width="1.0"/>
<line x1="136.8" y1="213.9" x2="136.8" y2="185.9" stroke="rgb(0,0,0)"  stroke-width="1.0"/>
<text x="276.576201" y="187.948554" fill="rgb(12,12,255)"  stroke="rgb(12,12,255)" stroke-width="1" font-size="16" >NH</text>
<text x="241.922458" y="247.925813" fill="rgb(12,12,255)"  stroke="rgb(12,12,255)" stroke-width="1" font-size="16" >N</text>
<text x="241.922458" y="263.925813" fill="rgb(12,12,255)"  stroke="rgb(12,12,255)" stroke-width="1" font-size="16" >H</text>
<text x="22.000000" y="48.000000" fill="rgb(102,102,102)"  stroke="rgb(102,102,102)" stroke-width="1" font-size="16" >HC</text>
<text x="311.229944" y="247.925813" fill="rgb(178,178,0)"  stroke="rgb(178,178,0)" stroke-width="1" font-size="16" >S</text>
<text x="172.614972" y="247.925813" fill="rgb(255,12,12)"  stroke="rgb(255,12,12)" stroke-width="1" font-size="16" >O</text>
<text x="241.922458" y="127.971295" fill="rgb(255,12,12)"  stroke="rgb(255,12,12)" stroke-width="1" font-size="16" >O</text>
<text x="103.307486" y="127.971295" fill="rgb(255,12,12)"  stroke="rgb(255,12,12)" stroke-width="1" font-size="16" >O</text>
<text font-size="18.000000" fill ="black" font-family="sans-serif"
x="10.000000" y="20.000000" ></text>
<title> - OBDepict</title>
</svg>
