<?xml version="1.0"?>
<svg xmlns="http://www.w3.org/2000/svg"
xmlns:xlink="http://www.w3.org/1999/xlink" xmlns:cml="http://www.xml-cml.org/schema" width="460.506" height="252.775" x="0" y="0" font-family="sans-serif" stroke="rgb(0,0,0)" stroke-width="1"  stroke-linecap="round">
<rect x="0%" y="0%" width="100%" height="100%" stroke-width="0" fill="rgb(255,255,255)"  />
<line x1="166.6" y1="97.9" x2="180.4" y2="74.6" stroke="rgb(0,0,0)"  stroke-width="1.0"/>
<line x1="40.0" y1="178.2" x2="60.0" y2="143.7" stroke="rgb(0,0,0)"  stroke-width="1.0"/>
<line x1="53.3" y1="201.5" x2="40.0" y2="178.2" stroke="rgb(0,0,0)"  stroke-width="1.0"/>
<line x1="49.7" y1="203.6" x2="36.4" y2="180.3" stroke="rgb(0,0,0)"  stroke-width="1.0"/>
<line x1="57.0" y1="199.4" x2="43.6" y2="176.1" stroke="rgb(0,0,0)"  stroke-width="1.0"/>
<line x1="220.5" y1="74.6" x2="180.4" y2="74.6" stroke="rgb(0,0,0)"  stroke-width="1.0"/>
<line x1="169.2" y1="49.7" x2="183.0" y2="73.0" stroke="rgb(0,0,0)"  stroke-width="1.0"/>
<line x1="164.1" y1="52.7" x2="177.9" y2="76.1" stroke="rgb(0,0,0)"  stroke-width="1.0"/>
<line x1="120.0" y1="109.1" x2="147.0" y2="109.1" stroke="rgb(0,0,0)"  stroke-width="1.0"/>
<line x1="340.7" y1="75.0" x2="300.7" y2="74.6" stroke="rgb(0,0,0)"  stroke-width="1.0"/>
<line x1="220.5" y1="74.6" x2="240.5" y2="109.1" stroke="rgb(0,0,0)"  stroke-width="1.0"/>
<line x1="240.5" y1="109.1" x2="280.7" y2="109.1" stroke="rgb(0,0,0)"  stroke-width="1.0"/>
<line x1="246.5" y1="101.9" x2="274.7" y2="101.9" stroke="rgb(0,0,0)"  stroke-width="1.0"/>
<line x1="280.7" y1="109.1" x2="300.7" y2="74.6" stroke="rgb(0,0,0)"  stroke-width="1.0"/>
<line x1="300.7" y1="74.6" x2="280.7" y2="40.0" stroke="rgb(0,0,0)"  stroke-width="1.0"/>
<line x1="291.4" y1="73.0" x2="277.4" y2="48.8" stroke="rgb(0,0,0)"  stroke-width="1.0"/>
<line x1="280.7" y1="40.0" x2="240.5" y2="40.0" stroke="rgb(0,0,0)"  stroke-width="1.0"/>
<line x1="240.5" y1="40.0" x2="220.5" y2="74.6" stroke="rgb(0,0,0)"  stroke-width="1.0"/>
<line x1="243.7" y1="48.8" x2="229.7" y2="73.0" stroke="rgb(0,0,0)"  stroke-width="1.0"/>
<line x1="120.0" y1="109.1" x2="100.0" y2="143.7" stroke="rgb(0,0,0)"  stroke-width="1.0"/>
<line x1="100.0" y1="143.7" x2="60.0" y2="143.7" stroke="rgb(0,0,0)"  stroke-width="1.0"/>
<line x1="94.0" y1="136.5" x2="66.0" y2="136.5" stroke="rgb(0,0,0)"  stroke-width="1.0"/>
<line x1="60.0" y1="143.7" x2="40.0" y2="109.1" stroke="rgb(0,0,0)"  stroke-width="1.0"/>
<line x1="40.0" y1="109.1" x2="60.0" y2="74.6" stroke="rgb(0,0,0)"  stroke-width="1.0"/>
<line x1="49.2" y1="107.5" x2="63.2" y2="83.4" stroke="rgb(0,0,0)"  stroke-width="1.0"/>
<line x1="60.0" y1="74.6" x2="100.0" y2="74.3" stroke="rgb(0,0,0)"  stroke-width="1.0"/>
<line x1="100.0" y1="74.3" x2="120.0" y2="109.1" stroke="rgb(0,0,0)"  stroke-width="1.0"/>
<line x1="96.8" y1="83.1" x2="110.8" y2="107.5" stroke="rgb(0,0,0)"  stroke-width="1.0"/>
<line x1="340.7" y1="75.0" x2="360.5" y2="109.7" stroke="rgb(0,0,0)"  stroke-width="1.0"/>
<line x1="349.9" y1="76.6" x2="363.8" y2="100.9" stroke="rgb(0,0,0)"  stroke-width="1.0"/>
<line x1="360.5" y1="109.7" x2="400.5" y2="109.7" stroke="rgb(0,0,0)"  stroke-width="1.0"/>
<line x1="400.5" y1="109.7" x2="420.5" y2="75.2" stroke="rgb(0,0,0)"  stroke-width="1.0"/>
<line x1="397.3" y1="100.9" x2="411.3" y2="76.7" stroke="rgb(0,0,0)"  stroke-width="1.0"/>
<line x1="420.5" y1="75.2" x2="400.5" y2="40.4" stroke="rgb(0,0,0)"  stroke-width="1.0"/>
<line x1="400.5" y1="40.4" x2="360.5" y2="40.4" stroke="rgb(0,0,0)"  stroke-width="1.0"/>
<line x1="394.5" y1="47.6" x2="366.5" y2="47.6" stroke="rgb(0,0,0)"  stroke-width="1.0"/>
<line x1="360.5" y1="40.4" x2="340.7" y2="75.0" stroke="rgb(0,0,0)"  stroke-width="1.0"/>
<text x="154.033890" y="117.111009" fill="rgb(12,12,255)"  stroke="rgb(12,12,255)" stroke-width="1" font-size="16" >N</text>
<text x="154.033890" y="133.111009" fill="rgb(12,12,255)"  stroke="rgb(12,12,255)" stroke-width="1" font-size="16" >H</text>
<text x="53.802804" y="220.775098" fill="rgb(102,102,102)"  stroke="rgb(102,102,102)" stroke-width="1" font-size="16" >CH</text>
<text x="154.033890" y="48.000000" fill="rgb(255,12,12)"  stroke="rgb(255,12,12)" stroke-width="1" font-size="16" >O</text>
<text font-size="18.000000" fill ="black" font-family="sans-serif"
x="10.000000" y="20.000000" ></text>
<title> - OBDepict</title>
</svg>
