<?xml version="1.0"?>
<svg xmlns="http://www.w3.org/2000/svg"
xmlns:xlink="http://www.w3.org/1999/xlink" xmlns:cml="http://www.xml-cml.org/schema" width="424.042" height="440.003" x="0" y="0" font-family="sans-serif" stroke="rgb(0,0,0)" stroke-width="1"  stroke-linecap="round">
<rect x="0%" y="0%" width="100%" height="100%" stroke-width="0" fill="rgb(255,255,255)"  />
<line x1="210.9" y1="100.0" x2="234.2" y2="113.5" stroke="rgb(0,0,0)"  stroke-width="1.0"/>
<line x1="268.8" y1="133.5" x2="256.7" y2="126.5" stroke="rgb(0,0,0)"  stroke-width="1.0"/>
<line x1="280.0" y1="300.0" x2="280.0" y2="260.0" stroke="rgb(0,0,0)"  stroke-width="1.0"/>
<line x1="349.3" y1="380.0" x2="314.8" y2="360.0" stroke="rgb(0,0,0)"  stroke-width="1.0"/>
<line x1="229.4" y1="141.8" x2="236.3" y2="129.7" stroke="rgb(0,0,0)"  stroke-width="1.0"/>
<line x1="234.6" y1="144.8" x2="241.5" y2="132.8" stroke="rgb(0,0,0)"  stroke-width="1.0"/>
<line x1="261.6" y1="98.0" x2="254.5" y2="110.2" stroke="rgb(0,0,0)"  stroke-width="1.0"/>
<line x1="256.4" y1="95.0" x2="249.3" y2="107.2" stroke="rgb(0,0,0)"  stroke-width="1.0"/>
<line x1="372.8" y1="393.5" x2="349.3" y2="380.0" stroke="rgb(0,0,0)"  stroke-width="1.0"/>
<line x1="370.7" y1="397.2" x2="347.2" y2="383.6" stroke="rgb(0,0,0)"  stroke-width="1.0"/>
<line x1="374.9" y1="389.9" x2="351.4" y2="376.4" stroke="rgb(0,0,0)"  stroke-width="1.0"/>
<line x1="53.0" y1="77.0" x2="80.0" y2="77.0" stroke="rgb(0,0,0)"  stroke-width="1.0"/>
<line x1="53.0" y1="83.0" x2="80.0" y2="83.0" stroke="rgb(0,0,0)"  stroke-width="1.0"/>
<line x1="255.2" y1="310.9" x2="278.5" y2="297.4" stroke="rgb(0,0,0)"  stroke-width="1.0"/>
<line x1="258.2" y1="316.1" x2="281.5" y2="302.6" stroke="rgb(0,0,0)"  stroke-width="1.0"/>
<line x1="280.0" y1="180.0" x2="280.0" y2="153.0" stroke="rgb(0,0,0)"  stroke-width="1.0"/>
<line x1="303.5" y1="313.5" x2="280.0" y2="300.0" stroke="rgb(0,0,0)"  stroke-width="1.0"/>
<line x1="314.8" y1="360.0" x2="314.8" y2="333.0" stroke="rgb(0,0,0)"  stroke-width="1.0"/>
<line x1="80.0" y1="80.0" x2="95.8" y2="58.2" stroke="rgb(0,0,0)"  stroke-width="1.0"/>
<line x1="115.8" y1="51.7" x2="141.6" y2="60.0" stroke="rgb(0,0,0)"  stroke-width="1.0"/>
<line x1="141.6" y1="60.0" x2="141.6" y2="100.0" stroke="rgb(0,0,0)"  stroke-width="1.0"/>
<line x1="134.4" y1="66.0" x2="134.4" y2="94.0" stroke="rgb(0,0,0)"  stroke-width="1.0"/>
<line x1="141.6" y1="100.0" x2="115.8" y2="108.3" stroke="rgb(0,0,0)"  stroke-width="1.0"/>
<line x1="95.8" y1="101.8" x2="80.0" y2="80.0" stroke="rgb(0,0,0)"  stroke-width="1.0"/>
<line x1="141.6" y1="60.0" x2="176.2" y2="40.0" stroke="rgb(0,0,0)"  stroke-width="1.0"/>
<line x1="176.2" y1="40.0" x2="210.9" y2="60.0" stroke="rgb(0,0,0)"  stroke-width="1.0"/>
<line x1="177.8" y1="49.2" x2="202.1" y2="63.2" stroke="rgb(0,0,0)"  stroke-width="1.0"/>
<line x1="210.9" y1="60.0" x2="210.9" y2="100.0" stroke="rgb(0,0,0)"  stroke-width="1.0"/>
<line x1="210.9" y1="100.0" x2="176.2" y2="120.0" stroke="rgb(0,0,0)"  stroke-width="1.0"/>
<line x1="202.1" y1="96.8" x2="177.8" y2="110.8" stroke="rgb(0,0,0)"  stroke-width="1.0"/>
<line x1="176.2" y1="120.0" x2="141.6" y2="100.0" stroke="rgb(0,0,0)"  stroke-width="1.0"/>
<line x1="280.0" y1="180.0" x2="314.8" y2="200.0" stroke="rgb(0,0,0)"  stroke-width="1.0"/>
<line x1="314.8" y1="200.0" x2="314.8" y2="240.0" stroke="rgb(0,0,0)"  stroke-width="1.0"/>
<line x1="307.6" y1="206.0" x2="307.6" y2="234.0" stroke="rgb(0,0,0)"  stroke-width="1.0"/>
<line x1="314.8" y1="240.0" x2="280.0" y2="260.0" stroke="rgb(0,0,0)"  stroke-width="1.0"/>
<line x1="280.0" y1="260.0" x2="245.5" y2="240.0" stroke="rgb(0,0,0)"  stroke-width="1.0"/>
<line x1="278.4" y1="250.8" x2="254.3" y2="236.8" stroke="rgb(0,0,0)"  stroke-width="1.0"/>
<line x1="245.5" y1="240.0" x2="245.5" y2="200.0" stroke="rgb(0,0,0)"  stroke-width="1.0"/>
<line x1="245.5" y1="200.0" x2="280.0" y2="180.0" stroke="rgb(0,0,0)"  stroke-width="1.0"/>
<line x1="254.3" y1="203.2" x2="278.4" y2="189.2" stroke="rgb(0,0,0)"  stroke-width="1.0"/>
<text x="239.456368" y="128.000710" fill="rgb(178,178,0)"  stroke="rgb(178,178,0)" stroke-width="1" font-size="16" >S</text>
<text x="97.433290" y="120.325490" fill="rgb(12,12,255)"  stroke="rgb(12,12,255)" stroke-width="1" font-size="16" >N</text>
<text x="97.433290" y="136.325490" fill="rgb(12,12,255)"  stroke="rgb(12,12,255)" stroke-width="1" font-size="16" >H</text>
<text x="97.433290" y="55.680068" fill="rgb(12,12,255)"  stroke="rgb(12,12,255)" stroke-width="1" font-size="16" >N</text>
<text x="97.433290" y="39.680068" fill="rgb(12,12,255)"  stroke="rgb(12,12,255)" stroke-width="1" font-size="16" >H</text>
<text x="274.002129" y="148.000887" fill="rgb(12,12,255)"  stroke="rgb(12,12,255)" stroke-width="1" font-size="16" >NH</text>
<text x="219.456191" y="162.546471" fill="rgb(255,12,12)"  stroke="rgb(255,12,12)" stroke-width="1" font-size="16" >O</text>
<text x="259.456546" y="93.256159" fill="rgb(255,12,12)"  stroke="rgb(255,12,12)" stroke-width="1" font-size="16" >O</text>
<text x="378.041840" y="408.003194" fill="rgb(102,102,102)"  stroke="rgb(102,102,102)" stroke-width="1" font-size="16" >CH</text>
<text x="34.000000" y="88.000355" fill="rgb(255,12,12)"  stroke="rgb(255,12,12)" stroke-width="1" font-size="16" >O</text>
<text x="239.456368" y="328.002484" fill="rgb(255,12,12)"  stroke="rgb(255,12,12)" stroke-width="1" font-size="16" >O</text>
<text x="308.751529" y="328.002484" fill="rgb(12,12,255)"  stroke="rgb(12,12,255)" stroke-width="1" font-size="16" >NH</text>
<text font-size="18.000000" fill ="black" font-family="sans-serif"
x="10.000000" y="20.000000" ></text>
<title> - OBDepict</title>
</svg>
