<?xml version="1.0"?>
<svg xmlns="http://www.w3.org/2000/svg"
xmlns:xlink="http://www.w3.org/1999/xlink" xmlns:cml="http://www.xml-cml.org/schema" width="460.29" height="289.568" x="0" y="0" font-family="sans-serif" stroke="rgb(0,0,0)" stroke-width="1"  stroke-linecap="round">
<rect x="0%" y="0%" width="100%" height="100%" stroke-width="0" fill="rgb(255,255,255)"  />
<line x1="176.6" y1="213.2" x2="141.4" y2="193.5" stroke="rgb(0,0,0)"  stroke-width="1.0"/>
<line x1="179.5" y1="207.9" x2="144.3" y2="188.3" stroke="rgb(0,0,0)"  stroke-width="1.0"/>
<line x1="212.6" y1="190.0" x2="178.0" y2="210.6" stroke="rgb(0,0,0)"  stroke-width="1.0"/>
<line x1="105.9" y1="74.5" x2="82.7" y2="107.2" stroke="rgb(0,0,0)"  stroke-width="1.0"/>
<line x1="386.4" y1="129.4" x2="351.3" y2="149.5" stroke="rgb(0,0,0)"  stroke-width="1.0"/>
<line x1="409.1" y1="116.1" x2="386.4" y2="129.4" stroke="rgb(0,0,0)"  stroke-width="1.0"/>
<line x1="411.2" y1="119.7" x2="388.6" y2="133.0" stroke="rgb(0,0,0)"  stroke-width="1.0"/>
<line x1="407.0" y1="112.5" x2="384.3" y2="125.7" stroke="rgb(0,0,0)"  stroke-width="1.0"/>
<line x1="120.2" y1="51.1" x2="105.9" y2="74.5" stroke="rgb(0,0,0)"  stroke-width="1.0"/>
<line x1="123.8" y1="53.3" x2="109.4" y2="76.7" stroke="rgb(0,0,0)"  stroke-width="1.0"/>
<line x1="116.7" y1="48.9" x2="102.3" y2="72.3" stroke="rgb(0,0,0)"  stroke-width="1.0"/>
<line x1="52.6" y1="178.4" x2="79.4" y2="175.6" stroke="rgb(0,0,0)"  stroke-width="1.0"/>
<line x1="53.2" y1="184.3" x2="80.0" y2="181.5" stroke="rgb(0,0,0)"  stroke-width="1.0"/>
<line x1="160.4" y1="134.7" x2="140.8" y2="153.4" stroke="rgb(0,0,0)"  stroke-width="1.0"/>
<line x1="156.2" y1="130.3" x2="136.6" y2="149.0" stroke="rgb(0,0,0)"  stroke-width="1.0"/>
<line x1="82.7" y1="107.2" x2="93.9" y2="131.6" stroke="rgb(0,0,0)"  stroke-width="1.0"/>
<line x1="247.4" y1="236.6" x2="247.1" y2="210.1" stroke="rgb(0,0,0)"  stroke-width="1.0"/>
<line x1="305.3" y1="136.1" x2="281.6" y2="149.4" stroke="rgb(0,0,0)"  stroke-width="1.0"/>
<line x1="247.0" y1="102.7" x2="247.1" y2="129.4" stroke="rgb(0,0,0)"  stroke-width="1.0"/>
<line x1="351.3" y1="149.5" x2="327.9" y2="136.1" stroke="rgb(0,0,0)"  stroke-width="1.0"/>
<line x1="223.7" y1="76.7" x2="235.6" y2="83.3" stroke="rgb(0,0,0)"  stroke-width="1.0"/>
<line x1="93.0" y1="154.7" x2="79.7" y2="178.5" stroke="rgb(0,0,0)"  stroke-width="1.0"/>
<line x1="79.7" y1="178.5" x2="97.7" y2="198.2" stroke="rgb(0,0,0)"  stroke-width="1.0"/>
<line x1="118.3" y1="202.3" x2="142.9" y2="190.9" stroke="rgb(0,0,0)"  stroke-width="1.0"/>
<line x1="142.9" y1="190.9" x2="138.7" y2="151.2" stroke="rgb(0,0,0)"  stroke-width="1.0"/>
<line x1="138.7" y1="151.2" x2="112.1" y2="145.9" stroke="rgb(0,0,0)"  stroke-width="1.0"/>
<line x1="212.6" y1="190.0" x2="247.1" y2="210.1" stroke="rgb(0,0,0)"  stroke-width="1.0"/>
<line x1="247.1" y1="210.1" x2="281.6" y2="189.0" stroke="rgb(0,0,0)"  stroke-width="1.0"/>
<line x1="248.4" y1="200.8" x2="272.7" y2="186.0" stroke="rgb(0,0,0)"  stroke-width="1.0"/>
<line x1="281.6" y1="189.0" x2="281.6" y2="149.4" stroke="rgb(0,0,0)"  stroke-width="1.0"/>
<line x1="281.6" y1="149.4" x2="247.1" y2="129.4" stroke="rgb(0,0,0)"  stroke-width="1.0"/>
<line x1="272.8" y1="152.6" x2="248.6" y2="138.6" stroke="rgb(0,0,0)"  stroke-width="1.0"/>
<line x1="247.1" y1="129.4" x2="212.4" y2="149.5" stroke="rgb(0,0,0)"  stroke-width="1.0"/>
<line x1="212.4" y1="149.5" x2="212.6" y2="190.0" stroke="rgb(0,0,0)"  stroke-width="1.0"/>
<line x1="219.6" y1="155.5" x2="219.7" y2="184.0" stroke="rgb(0,0,0)"  stroke-width="1.0"/>
<text x="93.355448" y="151.365626" fill="rgb(12,12,255)"  stroke="rgb(12,12,255)" stroke-width="1" font-size="16" >N</text>
<text x="100.520461" y="215.719582" fill="rgb(178,178,0)"  stroke="rgb(178,178,0)" stroke-width="1" font-size="16" >S</text>
<text x="414.289712" y="117.522480" fill="rgb(102,102,102)"  stroke="rgb(102,102,102)" stroke-width="1" font-size="16" >CH</text>
<text x="121.029398" y="48.000000" fill="rgb(102,102,102)"  stroke="rgb(102,102,102)" stroke-width="1" font-size="16" >CH</text>
<text x="34.000000" y="190.712474" fill="rgb(255,12,12)"  stroke="rgb(255,12,12)" stroke-width="1" font-size="16" >O</text>
<text x="161.707238" y="131.527043" fill="rgb(255,12,12)"  stroke="rgb(255,12,12)" stroke-width="1" font-size="16" >O</text>
<text x="241.566766" y="257.568112" fill="rgb(165,40,40)"  stroke="rgb(165,40,40)" stroke-width="1" font-size="16" >Br</text>
<text x="310.588909" y="137.691382" fill="rgb(255,12,12)"  stroke="rgb(255,12,12)" stroke-width="1" font-size="16" >O</text>
<text x="240.901270" y="97.679039" fill="rgb(255,12,12)"  stroke="rgb(255,12,12)" stroke-width="1" font-size="16" >O</text>
<text x="186.392627" y="78.340791" fill="rgb(102,102,102)"  stroke="rgb(102,102,102)" stroke-width="1" font-size="16" >H</text>
<text x="198.392627" y="82.020791" fill="rgb(102,102,102)"  stroke="rgb(102,102,102)" stroke-width="1" font-size="13" >3</text>
<text x="204.892627" y="78.340791" fill="rgb(102,102,102)"  stroke="rgb(102,102,102)" stroke-width="1" font-size="16" >C</text>
<text font-size="18.000000" fill ="black" font-family="sans-serif"
x="10.000000" y="20.000000" ></text>
<title> - OBDepict</title>
</svg>
