<?xml version="1.0"?>
<svg xmlns="http://www.w3.org/2000/svg"
xmlns:xlink="http://www.w3.org/1999/xlink" xmlns:cml="http://www.xml-cml.org/schema" width="442.964" height="288.972" x="0" y="0" font-family="sans-serif" stroke="rgb(0,0,0)" stroke-width="1"  stroke-linecap="round">
<rect x="0%" y="0%" width="100%" height="100%" stroke-width="0" fill="rgb(255,255,255)"  />
<line x1="200.1" y1="178.4" x2="240.1" y2="178.4" stroke="rgb(0,0,0)"  stroke-width="1.0"/>
<line x1="60.0" y1="74.6" x2="80.0" y2="109.1" stroke="rgb(0,0,0)"  stroke-width="1.0"/>
<line x1="46.5" y1="51.3" x2="60.0" y2="74.6" stroke="rgb(0,0,0)"  stroke-width="1.0"/>
<line x1="50.1" y1="49.1" x2="63.6" y2="72.5" stroke="rgb(0,0,0)"  stroke-width="1.0"/>
<line x1="42.9" y1="53.4" x2="56.4" y2="76.7" stroke="rgb(0,0,0)"  stroke-width="1.0"/>
<line x1="333.8" y1="135.0" x2="312.0" y2="150.8" stroke="rgb(0,0,0)"  stroke-width="1.0"/>
<line x1="140.0" y1="143.9" x2="180.1" y2="143.9" stroke="rgb(0,0,0)"  stroke-width="1.0"/>
<line x1="123.9" y1="165.7" x2="137.4" y2="142.4" stroke="rgb(0,0,0)"  stroke-width="1.0"/>
<line x1="129.1" y1="168.7" x2="142.6" y2="145.4" stroke="rgb(0,0,0)"  stroke-width="1.0"/>
<line x1="180.1" y1="143.9" x2="200.1" y2="178.4" stroke="rgb(0,0,0)"  stroke-width="1.0"/>
<line x1="126.5" y1="120.4" x2="140.0" y2="143.9" stroke="rgb(0,0,0)"  stroke-width="1.0"/>
<line x1="255.2" y1="120.5" x2="263.5" y2="146.1" stroke="rgb(0,0,0)"  stroke-width="1.0"/>
<line x1="80.0" y1="109.1" x2="107.0" y2="109.1" stroke="rgb(0,0,0)"  stroke-width="1.0"/>
<line x1="255.2" y1="236.6" x2="263.5" y2="211.0" stroke="rgb(0,0,0)"  stroke-width="1.0"/>
<line x1="289.1" y1="154.4" x2="263.5" y2="146.1" stroke="rgb(0,0,0)"  stroke-width="1.0"/>
<line x1="263.5" y1="146.1" x2="240.1" y2="178.4" stroke="rgb(0,0,0)"  stroke-width="1.0"/>
<line x1="265.8" y1="155.2" x2="249.4" y2="177.8" stroke="rgb(0,0,0)"  stroke-width="1.0"/>
<line x1="240.1" y1="178.4" x2="263.5" y2="211.0" stroke="rgb(0,0,0)"  stroke-width="1.0"/>
<line x1="263.5" y1="211.0" x2="289.0" y2="202.6" stroke="rgb(0,0,0)"  stroke-width="1.0"/>
<line x1="267.0" y1="202.3" x2="284.8" y2="196.4" stroke="rgb(0,0,0)"  stroke-width="1.0"/>
<line x1="301.5" y1="185.4" x2="301.5" y2="171.4" stroke="rgb(0,0,0)"  stroke-width="1.0"/>
<line x1="333.8" y1="135.0" x2="370.4" y2="151.4" stroke="rgb(0,0,0)"  stroke-width="1.0"/>
<line x1="370.4" y1="151.4" x2="403.0" y2="127.7" stroke="rgb(0,0,0)"  stroke-width="1.0"/>
<line x1="371.0" y1="142.0" x2="393.9" y2="125.4" stroke="rgb(0,0,0)"  stroke-width="1.0"/>
<line x1="403.0" y1="127.7" x2="398.7" y2="87.9" stroke="rgb(0,0,0)"  stroke-width="1.0"/>
<line x1="398.7" y1="87.9" x2="362.1" y2="71.7" stroke="rgb(0,0,0)"  stroke-width="1.0"/>
<line x1="390.3" y1="92.1" x2="364.7" y2="80.7" stroke="rgb(0,0,0)"  stroke-width="1.0"/>
<line x1="362.1" y1="71.7" x2="329.8" y2="95.2" stroke="rgb(0,0,0)"  stroke-width="1.0"/>
<line x1="329.8" y1="95.2" x2="333.8" y2="135.0" stroke="rgb(0,0,0)"  stroke-width="1.0"/>
<line x1="337.6" y1="100.4" x2="340.4" y2="128.3" stroke="rgb(0,0,0)"  stroke-width="1.0"/>
<text x="295.508282" y="166.429730" fill="rgb(12,12,255)"  stroke="rgb(12,12,255)" stroke-width="1" font-size="16" >N</text>
<text x="295.508282" y="206.442854" fill="rgb(12,12,255)"  stroke="rgb(12,12,255)" stroke-width="1" font-size="16" >N</text>
<text x="22.000000" y="48.000000" fill="rgb(102,102,102)"  stroke="rgb(102,102,102)" stroke-width="1" font-size="16" >HC</text>
<text x="114.031095" y="186.433868" fill="rgb(255,12,12)"  stroke="rgb(255,12,12)" stroke-width="1" font-size="16" >O</text>
<text x="114.031095" y="117.117543" fill="rgb(12,12,255)"  stroke="rgb(12,12,255)" stroke-width="1" font-size="16" >N</text>
<text x="114.031095" y="101.117543" fill="rgb(12,12,255)"  stroke="rgb(12,12,255)" stroke-width="1" font-size="16" >H</text>
<text x="225.187646" y="116.104246" fill="rgb(102,102,102)"  stroke="rgb(102,102,102)" stroke-width="1" font-size="16" >H</text>
<text x="237.187646" y="119.784246" fill="rgb(102,102,102)"  stroke="rgb(102,102,102)" stroke-width="1" font-size="13" >3</text>
<text x="243.687646" y="116.104246" fill="rgb(102,102,102)"  stroke="rgb(102,102,102)" stroke-width="1" font-size="16" >C</text>
<text x="225.187646" y="256.971967" fill="rgb(102,102,102)"  stroke="rgb(102,102,102)" stroke-width="1" font-size="16" >H</text>
<text x="237.187646" y="260.651967" fill="rgb(102,102,102)"  stroke="rgb(102,102,102)" stroke-width="1" font-size="13" >3</text>
<text x="243.687646" y="256.971967" fill="rgb(102,102,102)"  stroke="rgb(102,102,102)" stroke-width="1" font-size="16" >C</text>
<text font-size="18.000000" fill ="black" font-family="sans-serif"
x="10.000000" y="20.000000" ></text>
<title> - OBDepict</title>
</svg>
