<?xml version="1.0"?>
<svg xmlns="http://www.w3.org/2000/svg"
xmlns:xlink="http://www.w3.org/1999/xlink" xmlns:cml="http://www.xml-cml.org/schema" width="331.741" height="379.423" x="0" y="0" font-family="sans-serif" stroke="rgb(0,0,0)" stroke-width="1"  stroke-linecap="round">
<rect x="0%" y="0%" width="100%" height="100%" stroke-width="0" fill="rgb(255,255,255)"  />
<line x1="208.9" y1="218.8" x2="217.2" y2="193.2" stroke="rgb(0,0,0)"  stroke-width="1.0"/>
<line x1="169.9" y1="227.1" x2="208.9" y2="218.8" stroke="rgb(0,0,0)"  stroke-width="1.0"/>
<line x1="79.2" y1="281.8" x2="118.4" y2="273.6" stroke="rgb(0,0,0)"  stroke-width="1.0"/>
<line x1="52.7" y1="287.4" x2="79.2" y2="281.8" stroke="rgb(0,0,0)"  stroke-width="1.0"/>
<line x1="51.9" y1="283.3" x2="78.3" y2="277.7" stroke="rgb(0,0,0)"  stroke-width="1.0"/>
<line x1="53.6" y1="291.5" x2="80.1" y2="286.0" stroke="rgb(0,0,0)"  stroke-width="1.0"/>
<line x1="161.4" y1="252.9" x2="169.9" y2="227.1" stroke="rgb(0,0,0)"  stroke-width="1.0"/>
<line x1="279.5" y1="186.7" x2="257.7" y2="170.9" stroke="rgb(0,0,0)"  stroke-width="1.0"/>
<line x1="283.0" y1="181.9" x2="261.2" y2="166.1" stroke="rgb(0,0,0)"  stroke-width="1.0"/>
<line x1="170.8" y1="145.5" x2="197.8" y2="145.5" stroke="rgb(0,0,0)"  stroke-width="1.0"/>
<line x1="170.8" y1="151.5" x2="197.8" y2="151.5" stroke="rgb(0,0,0)"  stroke-width="1.0"/>
<line x1="118.4" y1="273.6" x2="144.7" y2="268.0" stroke="rgb(0,0,0)"  stroke-width="1.0"/>
<line x1="154.0" y1="205.0" x2="172.1" y2="225.1" stroke="rgb(0,0,0)"  stroke-width="1.0"/>
<line x1="149.5" y1="209.0" x2="167.7" y2="229.1" stroke="rgb(0,0,0)"  stroke-width="1.0"/>
<line x1="110.1" y1="234.4" x2="118.4" y2="273.6" stroke="rgb(0,0,0)"  stroke-width="1.0"/>
<line x1="126.7" y1="312.6" x2="118.4" y2="273.6" stroke="rgb(0,0,0)"  stroke-width="1.0"/>
<line x1="164.1" y1="127.7" x2="182.2" y2="107.7" stroke="rgb(0,0,0)"  stroke-width="1.0"/>
<line x1="106.6" y1="330.7" x2="126.7" y2="312.6" stroke="rgb(0,0,0)"  stroke-width="1.0"/>
<line x1="130.1" y1="216.4" x2="110.1" y2="234.4" stroke="rgb(0,0,0)"  stroke-width="1.0"/>
<line x1="213.6" y1="170.3" x2="197.8" y2="148.5" stroke="rgb(0,0,0)"  stroke-width="1.0"/>
<line x1="197.8" y1="148.5" x2="221.2" y2="116.0" stroke="rgb(0,0,0)"  stroke-width="1.0"/>
<line x1="221.2" y1="116.0" x2="247.1" y2="124.4" stroke="rgb(0,0,0)"  stroke-width="1.0"/>
<line x1="259.4" y1="141.5" x2="259.4" y2="168.5" stroke="rgb(0,0,0)"  stroke-width="1.0"/>
<line x1="259.4" y1="168.5" x2="233.6" y2="176.8" stroke="rgb(0,0,0)"  stroke-width="1.0"/>
<line x1="221.2" y1="116.0" x2="182.2" y2="107.7" stroke="rgb(0,0,0)"  stroke-width="1.0"/>
<line x1="182.2" y1="107.7" x2="169.9" y2="69.7" stroke="rgb(0,0,0)"  stroke-width="1.0"/>
<line x1="169.9" y1="69.7" x2="196.6" y2="40.0" stroke="rgb(0,0,0)"  stroke-width="1.0"/>
<line x1="196.6" y1="40.0" x2="235.8" y2="48.3" stroke="rgb(0,0,0)"  stroke-width="1.0"/>
<line x1="235.8" y1="48.3" x2="248.1" y2="86.3" stroke="rgb(0,0,0)"  stroke-width="1.0"/>
<line x1="248.1" y1="86.3" x2="221.2" y2="116.0" stroke="rgb(0,0,0)"  stroke-width="1.0"/>
<text x="215.229340" y="188.825081" fill="rgb(12,12,255)"  stroke="rgb(12,12,255)" stroke-width="1" font-size="16" >N</text>
<text x="253.415078" y="136.493240" fill="rgb(12,12,255)"  stroke="rgb(12,12,255)" stroke-width="1" font-size="16" >NH</text>
<text x="22.000000" y="298.124839" fill="rgb(102,102,102)"  stroke="rgb(102,102,102)" stroke-width="1" font-size="16" >HC</text>
<text x="151.382552" y="273.274496" fill="rgb(12,12,255)"  stroke="rgb(12,12,255)" stroke-width="1" font-size="16" >N</text>
<text x="151.382552" y="289.274496" fill="rgb(12,12,255)"  stroke="rgb(12,12,255)" stroke-width="1" font-size="16" >H</text>
<text x="285.741398" y="199.932247" fill="rgb(255,12,12)"  stroke="rgb(255,12,12)" stroke-width="1" font-size="16" >O</text>
<text x="151.790333" y="156.493906" fill="rgb(255,12,12)"  stroke="rgb(255,12,12)" stroke-width="1" font-size="16" >O</text>
<text x="137.037414" y="205.388739" fill="rgb(255,12,12)"  stroke="rgb(255,12,12)" stroke-width="1" font-size="16" >O</text>
<text x="129.367922" y="145.381886" fill="rgb(102,102,102)"  stroke="rgb(102,102,102)" stroke-width="1" font-size="16" >H</text>
<text x="141.367922" y="149.061886" fill="rgb(102,102,102)"  stroke="rgb(102,102,102)" stroke-width="1" font-size="13" >3</text>
<text x="147.867922" y="145.381886" fill="rgb(102,102,102)"  stroke="rgb(102,102,102)" stroke-width="1" font-size="16" >C</text>
<text x="70.972772" y="347.422598" fill="rgb(102,102,102)"  stroke="rgb(102,102,102)" stroke-width="1" font-size="16" >H</text>
<text x="82.972772" y="351.102598" fill="rgb(102,102,102)"  stroke="rgb(102,102,102)" stroke-width="1" font-size="13" >3</text>
<text x="89.472772" y="347.422598" fill="rgb(102,102,102)"  stroke="rgb(102,102,102)" stroke-width="1" font-size="16" >C</text>
<text x="135.804296" y="215.690053" fill="rgb(102,102,102)"  stroke="rgb(102,102,102)" stroke-width="1" font-size="16" >CH</text>
<text x="159.804296" y="219.370053" fill="rgb(102,102,102)"  stroke="rgb(102,102,102)" stroke-width="1" font-size="13" >3</text>
<text font-size="18.000000" fill ="black" font-family="sans-serif"
x="10.000000" y="20.000000" ></text>
<title> - OBDepict</title>
</svg>
