<?xml version="1.0"?>
<svg xmlns="http://www.w3.org/2000/svg"
xmlns:xlink="http://www.w3.org/1999/xlink" xmlns:cml="http://www.xml-cml.org/schema" width="497.051" height="200.585" x="0" y="0" font-family="sans-serif" stroke="rgb(0,0,0)" stroke-width="1"  stroke-linecap="round">
<rect x="0%" y="0%" width="100%" height="100%" stroke-width="0" fill="rgb(255,255,255)"  />
<line x1="445.7" y1="113.7" x2="422.0" y2="100.4" stroke="rgb(0,0,0)"  stroke-width="1.0"/>
<line x1="443.7" y1="117.3" x2="419.9" y2="104.1" stroke="rgb(0,0,0)"  stroke-width="1.0"/>
<line x1="447.7" y1="110.0" x2="424.0" y2="96.7" stroke="rgb(0,0,0)"  stroke-width="1.0"/>
<line x1="214.1" y1="100.4" x2="249.0" y2="80.6" stroke="rgb(0,0,0)"  stroke-width="1.0"/>
<line x1="318.4" y1="80.6" x2="341.3" y2="93.9" stroke="rgb(0,0,0)"  stroke-width="1.0"/>
<line x1="189.8" y1="86.9" x2="214.1" y2="100.4" stroke="rgb(0,0,0)"  stroke-width="1.0"/>
<line x1="211.1" y1="127.6" x2="211.1" y2="100.4" stroke="rgb(0,0,0)"  stroke-width="1.0"/>
<line x1="217.1" y1="127.6" x2="217.1" y2="100.4" stroke="rgb(0,0,0)"  stroke-width="1.0"/>
<line x1="321.4" y1="53.0" x2="321.4" y2="80.6" stroke="rgb(0,0,0)"  stroke-width="1.0"/>
<line x1="315.4" y1="53.0" x2="315.4" y2="80.6" stroke="rgb(0,0,0)"  stroke-width="1.0"/>
<line x1="143.5" y1="100.4" x2="167.1" y2="87.0" stroke="rgb(0,0,0)"  stroke-width="1.0"/>
<line x1="249.0" y1="80.6" x2="283.7" y2="100.4" stroke="rgb(0,0,0)"  stroke-width="1.0"/>
<line x1="283.7" y1="100.4" x2="318.4" y2="80.6" stroke="rgb(0,0,0)"  stroke-width="1.0"/>
<line x1="363.7" y1="93.7" x2="387.2" y2="79.4" stroke="rgb(0,0,0)"  stroke-width="1.0"/>
<line x1="51.6" y1="151.7" x2="74.9" y2="139.8" stroke="rgb(0,0,0)"  stroke-width="1.0"/>
<line x1="387.2" y1="79.4" x2="422.0" y2="100.4" stroke="rgb(0,0,0)"  stroke-width="1.0"/>
<line x1="143.5" y1="100.4" x2="143.5" y2="140.6" stroke="rgb(0,0,0)"  stroke-width="1.0"/>
<line x1="136.3" y1="106.4" x2="136.3" y2="134.6" stroke="rgb(0,0,0)"  stroke-width="1.0"/>
<line x1="143.5" y1="140.6" x2="109.6" y2="160.6" stroke="rgb(0,0,0)"  stroke-width="1.0"/>
<line x1="109.6" y1="160.6" x2="74.9" y2="139.8" stroke="rgb(0,0,0)"  stroke-width="1.0"/>
<line x1="108.2" y1="151.3" x2="83.8" y2="136.7" stroke="rgb(0,0,0)"  stroke-width="1.0"/>
<line x1="74.9" y1="139.8" x2="74.9" y2="101.2" stroke="rgb(0,0,0)"  stroke-width="1.0"/>
<line x1="74.9" y1="101.2" x2="109.6" y2="80.6" stroke="rgb(0,0,0)"  stroke-width="1.0"/>
<line x1="83.7" y1="104.3" x2="108.1" y2="89.8" stroke="rgb(0,0,0)"  stroke-width="1.0"/>
<line x1="109.6" y1="80.6" x2="143.5" y2="100.4" stroke="rgb(0,0,0)"  stroke-width="1.0"/>
<text x="451.050927" y="127.994630" fill="rgb(102,102,102)"  stroke="rgb(102,102,102)" stroke-width="1" font-size="16" >CH</text>
<text x="172.431665" y="88.585868" fill="rgb(12,12,255)"  stroke="rgb(12,12,255)" stroke-width="1" font-size="16" >N</text>
<text x="172.431665" y="72.585868" fill="rgb(12,12,255)"  stroke="rgb(12,12,255)" stroke-width="1" font-size="16" >H</text>
<text x="208.114542" y="148.584273" fill="rgb(255,12,12)"  stroke="rgb(255,12,12)" stroke-width="1" font-size="16" >O</text>
<text x="312.424699" y="48.000000" fill="rgb(255,12,12)"  stroke="rgb(255,12,12)" stroke-width="1" font-size="16" >O</text>
<text x="346.541343" y="108.387531" fill="rgb(255,12,12)"  stroke="rgb(255,12,12)" stroke-width="1" font-size="16" >O</text>
<text x="34.000000" y="165.642595" fill="rgb(147,0,147)"  stroke="rgb(147,0,147)" stroke-width="1" font-size="16" >I</text>
<text font-size="18.000000" fill ="black" font-family="sans-serif"
x="10.000000" y="20.000000" ></text>
<title> - OBDepict</title>
</svg>
