<?xml version="1.0"?>
<svg xmlns="http://www.w3.org/2000/svg"
xmlns:xlink="http://www.w3.org/1999/xlink" xmlns:cml="http://www.xml-cml.org/schema" width="411.22" height="358.212" x="0" y="0" font-family="sans-serif" stroke="rgb(0,0,0)" stroke-width="1"  stroke-linecap="round">
<rect x="0%" y="0%" width="100%" height="100%" stroke-width="0" fill="rgb(255,255,255)"  />
<line x1="210.5" y1="114.0" x2="170.4" y2="114.0" stroke="rgb(0,0,0)"  stroke-width="1.0"/>
<line x1="210.5" y1="108.0" x2="170.4" y2="108.0" stroke="rgb(0,0,0)"  stroke-width="1.0"/>
<line x1="230.7" y1="145.5" x2="210.5" y2="111.0" stroke="rgb(0,0,0)"  stroke-width="1.0"/>
<line x1="350.9" y1="283.9" x2="330.7" y2="249.2" stroke="rgb(0,0,0)"  stroke-width="1.0"/>
<line x1="364.6" y1="307.0" x2="350.9" y2="283.9" stroke="rgb(0,0,0)"  stroke-width="1.0"/>
<line x1="361.0" y1="309.2" x2="347.3" y2="286.0" stroke="rgb(0,0,0)"  stroke-width="1.0"/>
<line x1="368.2" y1="304.9" x2="354.5" y2="281.7" stroke="rgb(0,0,0)"  stroke-width="1.0"/>
<line x1="152.6" y1="170.0" x2="144.2" y2="144.5" stroke="rgb(0,0,0)"  stroke-width="1.0"/>
<line x1="158.3" y1="168.1" x2="149.9" y2="142.6" stroke="rgb(0,0,0)"  stroke-width="1.0"/>
<line x1="157.4" y1="53.3" x2="149.2" y2="79.1" stroke="rgb(0,0,0)"  stroke-width="1.0"/>
<line x1="151.7" y1="51.5" x2="143.5" y2="77.3" stroke="rgb(0,0,0)"  stroke-width="1.0"/>
<line x1="317.7" y1="179.6" x2="290.5" y2="179.9" stroke="rgb(0,0,0)"  stroke-width="1.0"/>
<line x1="217.0" y1="238.4" x2="230.7" y2="214.7" stroke="rgb(0,0,0)"  stroke-width="1.0"/>
<line x1="284.2" y1="238.0" x2="270.7" y2="214.7" stroke="rgb(0,0,0)"  stroke-width="1.0"/>
<line x1="330.7" y1="249.2" x2="303.7" y2="249.2" stroke="rgb(0,0,0)"  stroke-width="1.0"/>
<line x1="170.4" y1="111.0" x2="147.0" y2="143.5" stroke="rgb(0,0,0)"  stroke-width="1.0"/>
<line x1="147.0" y1="143.5" x2="109.2" y2="131.0" stroke="rgb(0,0,0)"  stroke-width="1.0"/>
<line x1="109.2" y1="131.0" x2="109.2" y2="91.0" stroke="rgb(0,0,0)"  stroke-width="1.0"/>
<line x1="116.4" y1="125.0" x2="116.4" y2="97.0" stroke="rgb(0,0,0)"  stroke-width="1.0"/>
<line x1="109.2" y1="91.0" x2="146.4" y2="78.2" stroke="rgb(0,0,0)"  stroke-width="1.0"/>
<line x1="146.4" y1="78.2" x2="170.4" y2="111.0" stroke="rgb(0,0,0)"  stroke-width="1.0"/>
<line x1="230.7" y1="214.7" x2="270.7" y2="214.7" stroke="rgb(0,0,0)"  stroke-width="1.0"/>
<line x1="236.7" y1="207.5" x2="264.7" y2="207.5" stroke="rgb(0,0,0)"  stroke-width="1.0"/>
<line x1="270.7" y1="214.7" x2="290.5" y2="179.9" stroke="rgb(0,0,0)"  stroke-width="1.0"/>
<line x1="290.5" y1="179.9" x2="270.5" y2="145.4" stroke="rgb(0,0,0)"  stroke-width="1.0"/>
<line x1="281.3" y1="178.3" x2="267.3" y2="154.2" stroke="rgb(0,0,0)"  stroke-width="1.0"/>
<line x1="270.5" y1="145.4" x2="230.7" y2="145.5" stroke="rgb(0,0,0)"  stroke-width="1.0"/>
<line x1="230.7" y1="145.5" x2="210.5" y2="180.2" stroke="rgb(0,0,0)"  stroke-width="1.0"/>
<line x1="233.9" y1="154.3" x2="219.8" y2="178.6" stroke="rgb(0,0,0)"  stroke-width="1.0"/>
<line x1="210.5" y1="180.2" x2="230.7" y2="214.7" stroke="rgb(0,0,0)"  stroke-width="1.0"/>
<line x1="74.8" y1="150.9" x2="109.2" y2="131.0" stroke="rgb(0,0,0)"  stroke-width="1.0"/>
<line x1="109.2" y1="91.0" x2="74.7" y2="71.0" stroke="rgb(0,0,0)"  stroke-width="1.0"/>
<line x1="74.7" y1="71.0" x2="40.0" y2="91.0" stroke="rgb(0,0,0)"  stroke-width="1.0"/>
<line x1="73.1" y1="80.2" x2="48.8" y2="94.2" stroke="rgb(0,0,0)"  stroke-width="1.0"/>
<line x1="40.0" y1="91.0" x2="40.0" y2="131.0" stroke="rgb(0,0,0)"  stroke-width="1.0"/>
<line x1="40.0" y1="131.0" x2="74.8" y2="150.9" stroke="rgb(0,0,0)"  stroke-width="1.0"/>
<line x1="48.8" y1="127.7" x2="73.2" y2="141.6" stroke="rgb(0,0,0)"  stroke-width="1.0"/>
<text x="365.219540" y="326.212194" fill="rgb(102,102,102)"  stroke="rgb(102,102,102)" stroke-width="1" font-size="16" >CH</text>
<text x="153.519904" y="189.356157" fill="rgb(255,12,12)"  stroke="rgb(255,12,12)" stroke-width="1" font-size="16" >O</text>
<text x="152.520955" y="48.000000" fill="rgb(255,12,12)"  stroke="rgb(255,12,12)" stroke-width="1" font-size="16" >O</text>
<text x="324.713606" y="187.518285" fill="rgb(165,40,40)"  stroke="rgb(165,40,40)" stroke-width="1" font-size="16" >Br</text>
<text x="192.529352" y="257.701738" fill="rgb(30,239,30)"  stroke="rgb(30,239,30)" stroke-width="1" font-size="16" >Cl</text>
<text x="284.707147" y="257.202263" fill="rgb(255,12,12)"  stroke="rgb(255,12,12)" stroke-width="1" font-size="16" >O</text>
<text font-size="18.000000" fill ="black" font-family="sans-serif"
x="10.000000" y="20.000000" ></text>
<title> - OBDepict</title>
</svg>
