<?xml version="1.0"?>
<svg xmlns="http://www.w3.org/2000/svg"
xmlns:xlink="http://www.w3.org/1999/xlink" xmlns:cml="http://www.xml-cml.org/schema" width="411.16" height="328.826" x="0" y="0" font-family="sans-serif" stroke="rgb(0,0,0)" stroke-width="1"  stroke-linecap="round">
<rect x="0%" y="0%" width="100%" height="100%" stroke-width="0" fill="rgb(255,255,255)"  />
<line x1="155.5" y1="95.2" x2="190.2" y2="75.2" stroke="rgb(0,0,0)"  stroke-width="1.0"/>
<line x1="191.7" y1="72.6" x2="226.2" y2="92.9" stroke="rgb(0,0,0)"  stroke-width="1.0"/>
<line x1="188.6" y1="77.8" x2="223.1" y2="98.1" stroke="rgb(0,0,0)"  stroke-width="1.0"/>
<line x1="96.2" y1="179.7" x2="106.8" y2="155.2" stroke="rgb(0,0,0)"  stroke-width="1.0"/>
<line x1="351.5" y1="137.5" x2="328.2" y2="105.3" stroke="rgb(0,0,0)"  stroke-width="1.0"/>
<line x1="364.8" y1="161.3" x2="351.5" y2="137.5" stroke="rgb(0,0,0)"  stroke-width="1.0"/>
<line x1="361.1" y1="163.4" x2="347.8" y2="139.5" stroke="rgb(0,0,0)"  stroke-width="1.0"/>
<line x1="368.5" y1="159.3" x2="355.2" y2="135.4" stroke="rgb(0,0,0)"  stroke-width="1.0"/>
<line x1="276.4" y1="170.1" x2="265.4" y2="145.2" stroke="rgb(0,0,0)"  stroke-width="1.0"/>
<line x1="281.9" y1="167.7" x2="270.9" y2="142.8" stroke="rgb(0,0,0)"  stroke-width="1.0"/>
<line x1="270.2" y1="53.3" x2="264.4" y2="80.0" stroke="rgb(0,0,0)"  stroke-width="1.0"/>
<line x1="264.3" y1="52.1" x2="258.6" y2="78.7" stroke="rgb(0,0,0)"  stroke-width="1.0"/>
<line x1="328.2" y1="105.3" x2="301.1" y2="108.3" stroke="rgb(0,0,0)"  stroke-width="1.0"/>
<line x1="65.8" y1="105.6" x2="92.2" y2="108.5" stroke="rgb(0,0,0)"  stroke-width="1.0"/>
<line x1="171.2" y1="152.9" x2="151.3" y2="135.0" stroke="rgb(0,0,0)"  stroke-width="1.0"/>
<line x1="52.5" y1="277.0" x2="63.5" y2="252.3" stroke="rgb(0,0,0)"  stroke-width="1.0"/>
<line x1="281.6" y1="120.9" x2="268.2" y2="144.0" stroke="rgb(0,0,0)"  stroke-width="1.0"/>
<line x1="268.2" y1="144.0" x2="241.5" y2="138.2" stroke="rgb(0,0,0)"  stroke-width="1.0"/>
<line x1="227.5" y1="122.6" x2="224.7" y2="95.5" stroke="rgb(0,0,0)"  stroke-width="1.0"/>
<line x1="224.7" y1="95.5" x2="261.5" y2="79.3" stroke="rgb(0,0,0)"  stroke-width="1.0"/>
<line x1="261.5" y1="79.3" x2="279.6" y2="99.9" stroke="rgb(0,0,0)"  stroke-width="1.0"/>
<line x1="155.5" y1="95.2" x2="119.2" y2="78.8" stroke="rgb(0,0,0)"  stroke-width="1.0"/>
<line x1="119.2" y1="78.8" x2="92.2" y2="108.5" stroke="rgb(0,0,0)"  stroke-width="1.0"/>
<line x1="120.4" y1="88.1" x2="101.5" y2="108.9" stroke="rgb(0,0,0)"  stroke-width="1.0"/>
<line x1="92.2" y1="108.5" x2="105.6" y2="132.0" stroke="rgb(0,0,0)"  stroke-width="1.0"/>
<line x1="124.7" y1="140.6" x2="151.3" y2="135.0" stroke="rgb(0,0,0)"  stroke-width="1.0"/>
<line x1="151.3" y1="135.0" x2="155.5" y2="95.2" stroke="rgb(0,0,0)"  stroke-width="1.0"/>
<line x1="144.8" y1="128.3" x2="147.7" y2="100.4" stroke="rgb(0,0,0)"  stroke-width="1.0"/>
<line x1="96.2" y1="179.7" x2="56.3" y2="183.5" stroke="rgb(0,0,0)"  stroke-width="1.0"/>
<line x1="90.9" y1="187.4" x2="63.0" y2="190.1" stroke="rgb(0,0,0)"  stroke-width="1.0"/>
<line x1="56.3" y1="183.5" x2="40.0" y2="219.8" stroke="rgb(0,0,0)"  stroke-width="1.0"/>
<line x1="40.0" y1="219.8" x2="63.5" y2="252.3" stroke="rgb(0,0,0)"  stroke-width="1.0"/>
<line x1="49.4" y1="220.5" x2="65.8" y2="243.2" stroke="rgb(0,0,0)"  stroke-width="1.0"/>
<line x1="63.5" y1="252.3" x2="103.0" y2="248.2" stroke="rgb(0,0,0)"  stroke-width="1.0"/>
<line x1="103.0" y1="248.2" x2="119.3" y2="211.7" stroke="rgb(0,0,0)"  stroke-width="1.0"/>
<line x1="98.9" y1="239.7" x2="110.3" y2="214.2" stroke="rgb(0,0,0)"  stroke-width="1.0"/>
<line x1="119.3" y1="211.7" x2="96.2" y2="179.7" stroke="rgb(0,0,0)"  stroke-width="1.0"/>
<text x="282.161432" y="117.665051" fill="rgb(12,12,255)"  stroke="rgb(12,12,255)" stroke-width="1" font-size="16" >N</text>
<text x="105.998051" y="151.331076" fill="rgb(12,12,255)"  stroke="rgb(12,12,255)" stroke-width="1" font-size="16" >N</text>
<text x="222.832400" y="143.497820" fill="rgb(178,178,0)"  stroke="rgb(178,178,0)" stroke-width="1" font-size="16" >S</text>
<text x="365.159995" y="180.665771" fill="rgb(102,102,102)"  stroke="rgb(102,102,102)" stroke-width="1" font-size="16" >CH</text>
<text x="278.329685" y="188.828848" fill="rgb(255,12,12)"  stroke="rgb(255,12,12)" stroke-width="1" font-size="16" >O</text>
<text x="263.992159" y="48.000000" fill="rgb(255,12,12)"  stroke="rgb(255,12,12)" stroke-width="1" font-size="16" >O</text>
<text x="26.833929" y="112.164795" fill="rgb(102,102,102)"  stroke="rgb(102,102,102)" stroke-width="1" font-size="16" >H</text>
<text x="38.833929" y="115.844795" fill="rgb(102,102,102)"  stroke="rgb(102,102,102)" stroke-width="1" font-size="13" >3</text>
<text x="45.333929" y="112.164795" fill="rgb(102,102,102)"  stroke="rgb(102,102,102)" stroke-width="1" font-size="16" >C</text>
<text x="176.828848" y="169.665260" fill="rgb(102,102,102)"  stroke="rgb(102,102,102)" stroke-width="1" font-size="16" >CH</text>
<text x="200.828848" y="173.345260" fill="rgb(102,102,102)"  stroke="rgb(102,102,102)" stroke-width="1" font-size="13" >3</text>
<text x="21.163913" y="296.825925" fill="rgb(102,102,102)"  stroke="rgb(102,102,102)" stroke-width="1" font-size="16" >H</text>
<text x="33.163913" y="300.505925" fill="rgb(102,102,102)"  stroke="rgb(102,102,102)" stroke-width="1" font-size="13" >3</text>
<text x="39.663913" y="296.825925" fill="rgb(102,102,102)"  stroke="rgb(102,102,102)" stroke-width="1" font-size="16" >C</text>
<text font-size="18.000000" fill ="black" font-family="sans-serif"
x="10.000000" y="20.000000" ></text>
<title> - OBDepict</title>
</svg>
