<?xml version="1.0"?>
<svg xmlns="http://www.w3.org/2000/svg"
xmlns:xlink="http://www.w3.org/1999/xlink" xmlns:cml="http://www.xml-cml.org/schema" width="376.839" height="293.836" x="0" y="0" font-family="sans-serif" stroke="rgb(0,0,0)" stroke-width="1"  stroke-linecap="round">
<rect x="0%" y="0%" width="100%" height="100%" stroke-width="0" fill="rgb(255,255,255)"  />
<line x1="203.3" y1="78.2" x2="237.7" y2="97.9" stroke="rgb(0,0,0)"  stroke-width="1.0"/>
<line x1="200.3" y1="83.4" x2="234.7" y2="103.1" stroke="rgb(0,0,0)"  stroke-width="1.0"/>
<line x1="140.7" y1="117.2" x2="201.8" y2="80.8" stroke="rgb(0,0,0)"  stroke-width="1.0"/>
<line x1="324.1" y1="154.8" x2="301.7" y2="141.6" stroke="rgb(0,0,0)"  stroke-width="1.0"/>
<line x1="327.2" y1="149.6" x2="304.7" y2="136.4" stroke="rgb(0,0,0)"  stroke-width="1.0"/>
<line x1="208.5" y1="233.8" x2="174.0" y2="214.0" stroke="rgb(0,0,0)"  stroke-width="1.0"/>
<line x1="231.6" y1="247.3" x2="208.5" y2="233.8" stroke="rgb(0,0,0)"  stroke-width="1.0"/>
<line x1="229.5" y1="250.9" x2="206.4" y2="237.5" stroke="rgb(0,0,0)"  stroke-width="1.0"/>
<line x1="233.7" y1="243.7" x2="210.6" y2="230.2" stroke="rgb(0,0,0)"  stroke-width="1.0"/>
<line x1="272.8" y1="54.7" x2="272.8" y2="80.5" stroke="rgb(0,0,0)"  stroke-width="1.0"/>
<line x1="266.8" y1="54.7" x2="266.8" y2="80.5" stroke="rgb(0,0,0)"  stroke-width="1.0"/>
<line x1="212.5" y1="149.6" x2="234.6" y2="136.4" stroke="rgb(0,0,0)"  stroke-width="1.0"/>
<line x1="215.5" y1="154.8" x2="237.7" y2="141.6" stroke="rgb(0,0,0)"  stroke-width="1.0"/>
<line x1="269.8" y1="184.0" x2="269.8" y2="171.3" stroke="rgb(0,0,0)"  stroke-width="1.0"/>
<line x1="325.6" y1="87.6" x2="314.4" y2="94.0" stroke="rgb(0,0,0)"  stroke-width="1.0"/>
<line x1="162.8" y1="168.8" x2="140.7" y2="156.0" stroke="rgb(0,0,0)"  stroke-width="1.0"/>
<line x1="174.0" y1="214.0" x2="174.0" y2="188.3" stroke="rgb(0,0,0)"  stroke-width="1.0"/>
<line x1="236.2" y1="100.5" x2="236.2" y2="139.0" stroke="rgb(0,0,0)"  stroke-width="1.0"/>
<line x1="236.2" y1="139.0" x2="258.6" y2="151.9" stroke="rgb(0,0,0)"  stroke-width="1.0"/>
<line x1="281.1" y1="151.8" x2="303.2" y2="139.0" stroke="rgb(0,0,0)"  stroke-width="1.0"/>
<line x1="303.2" y1="139.0" x2="303.2" y2="113.5" stroke="rgb(0,0,0)"  stroke-width="1.0"/>
<line x1="292.0" y1="93.8" x2="269.8" y2="80.5" stroke="rgb(0,0,0)"  stroke-width="1.0"/>
<line x1="269.8" y1="80.5" x2="236.2" y2="100.5" stroke="rgb(0,0,0)"  stroke-width="1.0"/>
<line x1="140.7" y1="117.2" x2="107.0" y2="97.8" stroke="rgb(0,0,0)"  stroke-width="1.0"/>
<line x1="107.0" y1="97.8" x2="73.5" y2="117.2" stroke="rgb(0,0,0)"  stroke-width="1.0"/>
<line x1="73.5" y1="117.2" x2="73.5" y2="156.0" stroke="rgb(0,0,0)"  stroke-width="1.0"/>
<line x1="73.5" y1="156.0" x2="107.0" y2="175.3" stroke="rgb(0,0,0)"  stroke-width="1.0"/>
<line x1="82.3" y1="152.8" x2="105.4" y2="166.1" stroke="rgb(0,0,0)"  stroke-width="1.0"/>
<line x1="107.0" y1="175.3" x2="140.7" y2="156.0" stroke="rgb(0,0,0)"  stroke-width="1.0"/>
<line x1="140.7" y1="156.0" x2="140.7" y2="117.2" stroke="rgb(0,0,0)"  stroke-width="1.0"/>
<line x1="133.5" y1="150.0" x2="133.5" y2="123.2" stroke="rgb(0,0,0)"  stroke-width="1.0"/>
<line x1="73.5" y1="117.2" x2="40.0" y2="98.3" stroke="rgb(0,0,0)"  stroke-width="1.0"/>
<line x1="71.8" y1="108.0" x2="48.8" y2="95.0" stroke="rgb(0,0,0)"  stroke-width="1.0"/>
<line x1="40.0" y1="98.3" x2="40.0" y2="59.8" stroke="rgb(0,0,0)"  stroke-width="1.0"/>
<line x1="40.0" y1="59.8" x2="73.0" y2="40.0" stroke="rgb(0,0,0)"  stroke-width="1.0"/>
<line x1="48.9" y1="62.9" x2="71.6" y2="49.3" stroke="rgb(0,0,0)"  stroke-width="1.0"/>
<line x1="73.0" y1="40.0" x2="107.0" y2="58.8" stroke="rgb(0,0,0)"  stroke-width="1.0"/>
<line x1="107.0" y1="58.8" x2="107.0" y2="97.8" stroke="rgb(0,0,0)"  stroke-width="1.0"/>
<line x1="99.8" y1="64.8" x2="99.8" y2="91.8" stroke="rgb(0,0,0)"  stroke-width="1.0"/>
<text x="263.836800" y="166.332750" fill="rgb(12,12,255)"  stroke="rgb(12,12,255)" stroke-width="1" font-size="16" >N</text>
<text x="297.175536" y="108.498230" fill="rgb(12,12,255)"  stroke="rgb(12,12,255)" stroke-width="1" font-size="16" >N</text>
<text x="330.839001" y="166.831607" fill="rgb(178,178,0)"  stroke="rgb(178,178,0)" stroke-width="1" font-size="16" >S</text>
<text x="236.837317" y="261.835712" fill="rgb(102,102,102)"  stroke="rgb(102,102,102)" stroke-width="1" font-size="16" >CH</text>
<text x="263.836800" y="49.665996" fill="rgb(255,12,12)"  stroke="rgb(255,12,12)" stroke-width="1" font-size="16" >O</text>
<text x="196.834598" y="166.831607" fill="rgb(255,12,12)"  stroke="rgb(255,12,12)" stroke-width="1" font-size="16" >O</text>
<text x="265.836800" y="204.998907" fill="rgb(102,102,102)"  stroke="rgb(102,102,102)" stroke-width="1" font-size="16" >CH</text>
<text x="289.836800" y="208.678907" fill="rgb(102,102,102)"  stroke="rgb(102,102,102)" stroke-width="1" font-size="13" >3</text>
<text x="332.839001" y="89.165151" fill="rgb(102,102,102)"  stroke="rgb(102,102,102)" stroke-width="1" font-size="16" >CH</text>
<text x="356.839001" y="92.845151" fill="rgb(102,102,102)"  stroke="rgb(102,102,102)" stroke-width="1" font-size="13" >3</text>
<text x="168.004403" y="183.331552" fill="rgb(255,12,12)"  stroke="rgb(255,12,12)" stroke-width="1" font-size="16" >O</text>
<text font-size="18.000000" fill ="black" font-family="sans-serif"
x="10.000000" y="20.000000" ></text>
<title> - OBDepict</title>
</svg>
