<?xml version="1.0"?>
<svg xmlns="http://www.w3.org/2000/svg"
xmlns:xlink="http://www.w3.org/1999/xlink" xmlns:cml="http://www.xml-cml.org/schema" width="564.367" height="259.181" x="0" y="0" font-family="sans-serif" stroke="rgb(0,0,0)" stroke-width="1"  stroke-linecap="round">
<rect x="0%" y="0%" width="100%" height="100%" stroke-width="0" fill="rgb(255,255,255)"  />
<line x1="177.0" y1="221.8" x2="141.9" y2="202.0" stroke="rgb(0,0,0)"  stroke-width="1.0"/>
<line x1="180.0" y1="216.6" x2="144.8" y2="196.7" stroke="rgb(0,0,0)"  stroke-width="1.0"/>
<line x1="489.2" y1="80.0" x2="455.2" y2="99.8" stroke="rgb(0,0,0)"  stroke-width="1.0"/>
<line x1="104.7" y1="82.5" x2="82.0" y2="115.7" stroke="rgb(0,0,0)"  stroke-width="1.0"/>
<line x1="119.0" y1="59.4" x2="104.7" y2="82.5" stroke="rgb(0,0,0)"  stroke-width="1.0"/>
<line x1="122.6" y1="61.6" x2="108.2" y2="84.7" stroke="rgb(0,0,0)"  stroke-width="1.0"/>
<line x1="115.4" y1="57.2" x2="101.1" y2="80.3" stroke="rgb(0,0,0)"  stroke-width="1.0"/>
<line x1="52.5" y1="187.5" x2="79.3" y2="184.2" stroke="rgb(0,0,0)"  stroke-width="1.0"/>
<line x1="53.3" y1="193.4" x2="80.0" y2="190.2" stroke="rgb(0,0,0)"  stroke-width="1.0"/>
<line x1="160.0" y1="143.0" x2="140.4" y2="161.5" stroke="rgb(0,0,0)"  stroke-width="1.0"/>
<line x1="155.8" y1="138.6" x2="136.3" y2="157.2" stroke="rgb(0,0,0)"  stroke-width="1.0"/>
<line x1="212.8" y1="198.7" x2="178.5" y2="219.2" stroke="rgb(0,0,0)"  stroke-width="1.0"/>
<line x1="82.0" y1="115.7" x2="93.1" y2="140.3" stroke="rgb(0,0,0)"  stroke-width="1.0"/>
<line x1="305.7" y1="145.3" x2="282.2" y2="158.8" stroke="rgb(0,0,0)"  stroke-width="1.0"/>
<line x1="492.9" y1="53.1" x2="492.2" y2="80.1" stroke="rgb(0,0,0)"  stroke-width="1.0"/>
<line x1="486.9" y1="52.9" x2="486.2" y2="79.9" stroke="rgb(0,0,0)"  stroke-width="1.0"/>
<line x1="513.1" y1="93.8" x2="489.2" y2="80.0" stroke="rgb(0,0,0)"  stroke-width="1.0"/>
<line x1="350.9" y1="158.8" x2="328.2" y2="145.5" stroke="rgb(0,0,0)"  stroke-width="1.0"/>
<line x1="386.0" y1="138.8" x2="350.9" y2="158.8" stroke="rgb(0,0,0)"  stroke-width="1.0"/>
<line x1="247.4" y1="112.3" x2="247.4" y2="138.8" stroke="rgb(0,0,0)"  stroke-width="1.0"/>
<line x1="223.8" y1="85.8" x2="236.1" y2="92.9" stroke="rgb(0,0,0)"  stroke-width="1.0"/>
<line x1="92.3" y1="163.6" x2="79.7" y2="187.2" stroke="rgb(0,0,0)"  stroke-width="1.0"/>
<line x1="79.7" y1="187.2" x2="98.2" y2="207.1" stroke="rgb(0,0,0)"  stroke-width="1.0"/>
<line x1="118.7" y1="211.1" x2="143.3" y2="199.4" stroke="rgb(0,0,0)"  stroke-width="1.0"/>
<line x1="143.3" y1="199.4" x2="138.3" y2="159.3" stroke="rgb(0,0,0)"  stroke-width="1.0"/>
<line x1="138.3" y1="159.3" x2="111.3" y2="154.5" stroke="rgb(0,0,0)"  stroke-width="1.0"/>
<line x1="420.5" y1="79.3" x2="455.2" y2="99.8" stroke="rgb(0,0,0)"  stroke-width="1.0"/>
<line x1="455.2" y1="99.8" x2="454.5" y2="140.0" stroke="rgb(0,0,0)"  stroke-width="1.0"/>
<line x1="447.9" y1="105.7" x2="447.4" y2="133.9" stroke="rgb(0,0,0)"  stroke-width="1.0"/>
<line x1="454.5" y1="140.0" x2="420.2" y2="159.2" stroke="rgb(0,0,0)"  stroke-width="1.0"/>
<line x1="420.2" y1="159.2" x2="386.0" y2="138.8" stroke="rgb(0,0,0)"  stroke-width="1.0"/>
<line x1="418.7" y1="149.9" x2="394.9" y2="135.7" stroke="rgb(0,0,0)"  stroke-width="1.0"/>
<line x1="386.0" y1="138.8" x2="385.5" y2="98.8" stroke="rgb(0,0,0)"  stroke-width="1.0"/>
<line x1="385.5" y1="98.8" x2="420.5" y2="79.3" stroke="rgb(0,0,0)"  stroke-width="1.0"/>
<line x1="394.3" y1="102.2" x2="418.8" y2="88.5" stroke="rgb(0,0,0)"  stroke-width="1.0"/>
<line x1="247.4" y1="138.8" x2="282.2" y2="158.8" stroke="rgb(0,0,0)"  stroke-width="1.0"/>
<line x1="249.0" y1="148.1" x2="273.4" y2="162.1" stroke="rgb(0,0,0)"  stroke-width="1.0"/>
<line x1="282.2" y1="158.8" x2="281.9" y2="198.5" stroke="rgb(0,0,0)"  stroke-width="1.0"/>
<line x1="281.9" y1="198.5" x2="247.0" y2="218.2" stroke="rgb(0,0,0)"  stroke-width="1.0"/>
<line x1="273.1" y1="195.2" x2="248.7" y2="209.0" stroke="rgb(0,0,0)"  stroke-width="1.0"/>
<line x1="247.0" y1="218.2" x2="212.8" y2="198.7" stroke="rgb(0,0,0)"  stroke-width="1.0"/>
<line x1="212.8" y1="198.7" x2="212.5" y2="159.2" stroke="rgb(0,0,0)"  stroke-width="1.0"/>
<line x1="220.0" y1="192.6" x2="219.8" y2="165.1" stroke="rgb(0,0,0)"  stroke-width="1.0"/>
<line x1="212.5" y1="159.2" x2="247.4" y2="138.8" stroke="rgb(0,0,0)"  stroke-width="1.0"/>
<text x="92.499905" y="160.177029" fill="rgb(12,12,255)"  stroke="rgb(12,12,255)" stroke-width="1" font-size="16" >N</text>
<text x="101.004126" y="224.679913" fill="rgb(178,178,0)"  stroke="rgb(178,178,0)" stroke-width="1" font-size="16" >S</text>
<text x="119.838715" y="56.339090" fill="rgb(102,102,102)"  stroke="rgb(102,102,102)" stroke-width="1" font-size="16" >CH</text>
<text x="34.000000" y="200.012332" fill="rgb(255,12,12)"  stroke="rgb(255,12,12)" stroke-width="1" font-size="16" >O</text>
<text x="161.344750" y="139.841695" fill="rgb(255,12,12)"  stroke="rgb(255,12,12)" stroke-width="1" font-size="16" >O</text>
<text x="311.016115" y="146.845170" fill="rgb(255,12,12)"  stroke="rgb(255,12,12)" stroke-width="1" font-size="16" >O</text>
<text x="484.199147" y="48.000000" fill="rgb(255,12,12)"  stroke="rgb(255,12,12)" stroke-width="1" font-size="16" >O</text>
<text x="518.366589" y="108.340625" fill="rgb(255,12,12)"  stroke="rgb(255,12,12)" stroke-width="1" font-size="16" >OH</text>
<text x="241.350474" y="107.340128" fill="rgb(255,12,12)"  stroke="rgb(255,12,12)" stroke-width="1" font-size="16" >O</text>
<text x="186.507940" y="87.339911" fill="rgb(102,102,102)"  stroke="rgb(102,102,102)" stroke-width="1" font-size="16" >H</text>
<text x="198.507940" y="91.019911" fill="rgb(102,102,102)"  stroke="rgb(102,102,102)" stroke-width="1" font-size="13" >3</text>
<text x="205.007940" y="87.339911" fill="rgb(102,102,102)"  stroke="rgb(102,102,102)" stroke-width="1" font-size="16" >C</text>
<text font-size="18.000000" fill ="black" font-family="sans-serif"
x="10.000000" y="20.000000" ></text>
<title> - OBDepict</title>
</svg>
