<?xml version="1.0"?>
<svg xmlns="http://www.w3.org/2000/svg"
xmlns:xlink="http://www.w3.org/1999/xlink" xmlns:cml="http://www.xml-cml.org/schema" width="391.635" height="320.057" x="0" y="0" font-family="sans-serif" stroke="rgb(0,0,0)" stroke-width="1"  stroke-linecap="round">
<rect x="0%" y="0%" width="100%" height="100%" stroke-width="0" fill="rgb(255,255,255)"  />
<line x1="282.3" y1="200.0" x2="282.3" y2="173.0" stroke="rgb(0,0,0)"  stroke-width="1.0"/>
<line x1="214.9" y1="77.4" x2="249.1" y2="97.4" stroke="rgb(0,0,0)"  stroke-width="1.0"/>
<line x1="211.9" y1="82.6" x2="246.1" y2="102.6" stroke="rgb(0,0,0)"  stroke-width="1.0"/>
<line x1="178.7" y1="100.0" x2="213.4" y2="80.0" stroke="rgb(0,0,0)"  stroke-width="1.0"/>
<line x1="40.0" y1="220.0" x2="74.7" y2="200.0" stroke="rgb(0,0,0)"  stroke-width="1.0"/>
<line x1="338.9" y1="156.1" x2="315.5" y2="142.6" stroke="rgb(0,0,0)"  stroke-width="1.0"/>
<line x1="341.9" y1="150.9" x2="318.5" y2="137.4" stroke="rgb(0,0,0)"  stroke-width="1.0"/>
<line x1="223.1" y1="150.9" x2="246.1" y2="137.4" stroke="rgb(0,0,0)"  stroke-width="1.0"/>
<line x1="226.1" y1="156.1" x2="249.1" y2="142.6" stroke="rgb(0,0,0)"  stroke-width="1.0"/>
<line x1="40.0" y1="247.1" x2="40.0" y2="220.0" stroke="rgb(0,0,0)"  stroke-width="1.0"/>
<line x1="35.8" y1="247.1" x2="35.8" y2="220.0" stroke="rgb(0,0,0)"  stroke-width="1.0"/>
<line x1="44.2" y1="247.1" x2="44.2" y2="220.0" stroke="rgb(0,0,0)"  stroke-width="1.0"/>
<line x1="285.3" y1="53.0" x2="285.3" y2="80.0" stroke="rgb(0,0,0)"  stroke-width="1.0"/>
<line x1="279.3" y1="53.0" x2="279.3" y2="80.0" stroke="rgb(0,0,0)"  stroke-width="1.0"/>
<line x1="144.0" y1="187.0" x2="144.0" y2="160.0" stroke="rgb(0,0,0)"  stroke-width="1.0"/>
<line x1="85.9" y1="153.5" x2="109.4" y2="140.0" stroke="rgb(0,0,0)"  stroke-width="1.0"/>
<line x1="85.9" y1="86.5" x2="109.4" y2="100.0" stroke="rgb(0,0,0)"  stroke-width="1.0"/>
<line x1="340.4" y1="206.5" x2="317.0" y2="220.0" stroke="rgb(0,0,0)"  stroke-width="1.0"/>
<line x1="74.7" y1="200.0" x2="74.7" y2="173.0" stroke="rgb(0,0,0)"  stroke-width="1.0"/>
<line x1="74.7" y1="53.0" x2="74.7" y2="67.0" stroke="rgb(0,0,0)"  stroke-width="1.0"/>
<line x1="271.0" y1="153.5" x2="247.6" y2="140.0" stroke="rgb(0,0,0)"  stroke-width="1.0"/>
<line x1="247.6" y1="140.0" x2="247.6" y2="100.0" stroke="rgb(0,0,0)"  stroke-width="1.0"/>
<line x1="247.6" y1="100.0" x2="282.3" y2="80.0" stroke="rgb(0,0,0)"  stroke-width="1.0"/>
<line x1="282.3" y1="80.0" x2="305.7" y2="93.5" stroke="rgb(0,0,0)"  stroke-width="1.0"/>
<line x1="317.0" y1="113.0" x2="317.0" y2="140.0" stroke="rgb(0,0,0)"  stroke-width="1.0"/>
<line x1="317.0" y1="140.0" x2="293.5" y2="153.5" stroke="rgb(0,0,0)"  stroke-width="1.0"/>
<line x1="144.0" y1="160.0" x2="109.4" y2="140.0" stroke="rgb(0,0,0)"  stroke-width="1.0"/>
<line x1="142.4" y1="150.8" x2="118.1" y2="136.8" stroke="rgb(0,0,0)"  stroke-width="1.0"/>
<line x1="109.4" y1="140.0" x2="109.4" y2="100.0" stroke="rgb(0,0,0)"  stroke-width="1.0"/>
<line x1="109.4" y1="100.0" x2="144.0" y2="80.0" stroke="rgb(0,0,0)"  stroke-width="1.0"/>
<line x1="118.1" y1="103.3" x2="142.4" y2="89.2" stroke="rgb(0,0,0)"  stroke-width="1.0"/>
<line x1="144.0" y1="80.0" x2="178.7" y2="100.0" stroke="rgb(0,0,0)"  stroke-width="1.0"/>
<line x1="178.7" y1="100.0" x2="178.7" y2="140.0" stroke="rgb(0,0,0)"  stroke-width="1.0"/>
<line x1="171.5" y1="106.0" x2="171.5" y2="134.0" stroke="rgb(0,0,0)"  stroke-width="1.0"/>
<line x1="178.7" y1="140.0" x2="144.0" y2="160.0" stroke="rgb(0,0,0)"  stroke-width="1.0"/>
<line x1="282.3" y1="200.0" x2="317.0" y2="220.0" stroke="rgb(0,0,0)"  stroke-width="1.0"/>
<line x1="283.9" y1="209.3" x2="308.2" y2="223.3" stroke="rgb(0,0,0)"  stroke-width="1.0"/>
<line x1="317.0" y1="220.0" x2="317.0" y2="260.1" stroke="rgb(0,0,0)"  stroke-width="1.0"/>
<line x1="317.0" y1="260.1" x2="282.3" y2="280.1" stroke="rgb(0,0,0)"  stroke-width="1.0"/>
<line x1="308.2" y1="256.8" x2="283.9" y2="270.8" stroke="rgb(0,0,0)"  stroke-width="1.0"/>
<line x1="282.3" y1="280.1" x2="247.6" y2="260.1" stroke="rgb(0,0,0)"  stroke-width="1.0"/>
<line x1="247.6" y1="260.1" x2="247.6" y2="220.0" stroke="rgb(0,0,0)"  stroke-width="1.0"/>
<line x1="254.8" y1="254.1" x2="254.8" y2="226.0" stroke="rgb(0,0,0)"  stroke-width="1.0"/>
<line x1="247.6" y1="220.0" x2="282.3" y2="200.0" stroke="rgb(0,0,0)"  stroke-width="1.0"/>
<text x="276.284620" y="168.028687" fill="rgb(12,12,255)"  stroke="rgb(12,12,255)" stroke-width="1" font-size="16" >N</text>
<text x="310.959790" y="108.014343" fill="rgb(12,12,255)"  stroke="rgb(12,12,255)" stroke-width="1" font-size="16" >NH</text>
<text x="345.634960" y="168.028687" fill="rgb(255,12,12)"  stroke="rgb(255,12,12)" stroke-width="1" font-size="16" >O</text>
<text x="207.380701" y="168.028687" fill="rgb(255,12,12)"  stroke="rgb(255,12,12)" stroke-width="1" font-size="16" >O</text>
<text x="34.000000" y="268.055828" fill="rgb(102,102,102)"  stroke="rgb(102,102,102)" stroke-width="1" font-size="16" >CH</text>
<text x="276.284620" y="48.000000" fill="rgb(255,12,12)"  stroke="rgb(255,12,12)" stroke-width="1" font-size="16" >O</text>
<text x="138.025509" y="208.041484" fill="rgb(165,40,40)"  stroke="rgb(165,40,40)" stroke-width="1" font-size="16" >Br</text>
<text x="68.675170" y="168.028687" fill="rgb(255,12,12)"  stroke="rgb(255,12,12)" stroke-width="1" font-size="16" >O</text>
<text x="68.675170" y="88.007945" fill="rgb(255,12,12)"  stroke="rgb(255,12,12)" stroke-width="1" font-size="16" >O</text>
<text x="345.634960" y="208.041484" fill="rgb(127,178,255)"  stroke="rgb(127,178,255)" stroke-width="1" font-size="16" >F</text>
<text x="70.675170" y="48.000000" fill="rgb(102,102,102)"  stroke="rgb(102,102,102)" stroke-width="1" font-size="16" >CH</text>
<text x="94.675170" y="51.680000" fill="rgb(102,102,102)"  stroke="rgb(102,102,102)" stroke-width="1" font-size="13" >3</text>
<text font-size="18.000000" fill ="black" font-family="sans-serif"
x="10.000000" y="20.000000" ></text>
<title> - OBDepict</title>
</svg>
