<?xml version="1.0"?>
<svg xmlns="http://www.w3.org/2000/svg"
xmlns:xlink="http://www.w3.org/1999/xlink" xmlns:cml="http://www.xml-cml.org/schema" width="316.491" height="347.991" x="0" y="0" font-family="sans-serif" stroke="rgb(0,0,0)" stroke-width="1"  stroke-linecap="round">
<rect x="0%" y="0%" width="100%" height="100%" stroke-width="0" fill="rgb(255,255,255)"  />
<line x1="172.7" y1="208.0" x2="172.7" y2="168.0" stroke="rgb(0,0,0)"  stroke-width="1.0"/>
<line x1="138.0" y1="108.1" x2="114.7" y2="94.6" stroke="rgb(0,0,0)"  stroke-width="1.0"/>
<line x1="242.0" y1="288.0" x2="207.2" y2="268.0" stroke="rgb(0,0,0)"  stroke-width="1.0"/>
<line x1="265.2" y1="301.5" x2="242.0" y2="288.0" stroke="rgb(0,0,0)"  stroke-width="1.0"/>
<line x1="263.1" y1="305.1" x2="239.9" y2="291.6" stroke="rgb(0,0,0)"  stroke-width="1.0"/>
<line x1="267.3" y1="297.8" x2="244.1" y2="284.4" stroke="rgb(0,0,0)"  stroke-width="1.0"/>
<line x1="147.7" y1="218.9" x2="171.2" y2="205.4" stroke="rgb(0,0,0)"  stroke-width="1.0"/>
<line x1="150.7" y1="224.1" x2="174.2" y2="210.6" stroke="rgb(0,0,0)"  stroke-width="1.0"/>
<line x1="196.0" y1="221.5" x2="172.7" y2="208.0" stroke="rgb(0,0,0)"  stroke-width="1.0"/>
<line x1="207.2" y1="268.0" x2="207.2" y2="241.0" stroke="rgb(0,0,0)"  stroke-width="1.0"/>
<line x1="91.5" y1="93.4" x2="66.9" y2="104.4" stroke="rgb(0,0,0)"  stroke-width="1.0"/>
<line x1="66.9" y1="104.4" x2="40.0" y2="74.7" stroke="rgb(0,0,0)"  stroke-width="1.0"/>
<line x1="68.2" y1="95.1" x2="49.4" y2="74.4" stroke="rgb(0,0,0)"  stroke-width="1.0"/>
<line x1="40.0" y1="74.7" x2="60.0" y2="40.0" stroke="rgb(0,0,0)"  stroke-width="1.0"/>
<line x1="60.0" y1="40.0" x2="99.2" y2="48.3" stroke="rgb(0,0,0)"  stroke-width="1.0"/>
<line x1="64.4" y1="48.3" x2="91.8" y2="54.1" stroke="rgb(0,0,0)"  stroke-width="1.0"/>
<line x1="99.2" y1="48.3" x2="102.0" y2="75.1" stroke="rgb(0,0,0)"  stroke-width="1.0"/>
<line x1="138.0" y1="108.1" x2="172.7" y2="88.1" stroke="rgb(0,0,0)"  stroke-width="1.0"/>
<line x1="146.7" y1="111.3" x2="171.1" y2="97.3" stroke="rgb(0,0,0)"  stroke-width="1.0"/>
<line x1="172.7" y1="88.1" x2="207.2" y2="108.1" stroke="rgb(0,0,0)"  stroke-width="1.0"/>
<line x1="207.2" y1="108.1" x2="207.2" y2="148.0" stroke="rgb(0,0,0)"  stroke-width="1.0"/>
<line x1="200.0" y1="114.1" x2="200.0" y2="142.0" stroke="rgb(0,0,0)"  stroke-width="1.0"/>
<line x1="207.2" y1="148.0" x2="172.7" y2="168.0" stroke="rgb(0,0,0)"  stroke-width="1.0"/>
<line x1="172.7" y1="168.0" x2="138.0" y2="148.0" stroke="rgb(0,0,0)"  stroke-width="1.0"/>
<line x1="171.1" y1="158.8" x2="146.7" y2="144.8" stroke="rgb(0,0,0)"  stroke-width="1.0"/>
<line x1="138.0" y1="148.0" x2="138.0" y2="108.1" stroke="rgb(0,0,0)"  stroke-width="1.0"/>
<text x="97.416032" y="96.061401" fill="rgb(12,12,255)"  stroke="rgb(12,12,255)" stroke-width="1" font-size="16" >N</text>
<text x="270.491376" y="315.990914" fill="rgb(102,102,102)"  stroke="rgb(102,102,102)" stroke-width="1" font-size="16" >CH</text>
<text x="131.950618" y="236.017868" fill="rgb(255,12,12)"  stroke="rgb(255,12,12)" stroke-width="1" font-size="16" >O</text>
<text x="201.218573" y="236.017868" fill="rgb(12,12,255)"  stroke="rgb(12,12,255)" stroke-width="1" font-size="16" >NH</text>
<text font-size="18.000000" fill ="black" font-family="sans-serif"
x="10.000000" y="20.000000" ></text>
<title> - OBDepict</title>
</svg>
