<?xml version="1.0"?>
<svg xmlns="http://www.w3.org/2000/svg"
xmlns:xlink="http://www.w3.org/1999/xlink" xmlns:cml="http://www.xml-cml.org/schema" width="391.207" height="320.003" x="0" y="0" font-family="sans-serif" stroke="rgb(0,0,0)" stroke-width="1"  stroke-linecap="round">
<rect x="0%" y="0%" width="100%" height="100%" stroke-width="0" fill="rgb(255,255,255)"  />
<line x1="178.6" y1="199.8" x2="178.2" y2="160.0" stroke="rgb(0,0,0)"  stroke-width="1.0"/>
<line x1="144.1" y1="219.8" x2="109.0" y2="199.9" stroke="rgb(0,0,0)"  stroke-width="1.0"/>
<line x1="212.7" y1="139.9" x2="236.0" y2="153.4" stroke="rgb(0,0,0)"  stroke-width="1.0"/>
<line x1="144.1" y1="259.9" x2="120.3" y2="273.6" stroke="rgb(0,0,0)"  stroke-width="1.0"/>
<line x1="109.0" y1="199.9" x2="85.8" y2="213.5" stroke="rgb(0,0,0)"  stroke-width="1.0"/>
<line x1="106.0" y1="199.9" x2="106.0" y2="173.0" stroke="rgb(0,0,0)"  stroke-width="1.0"/>
<line x1="112.0" y1="199.9" x2="112.0" y2="173.0" stroke="rgb(0,0,0)"  stroke-width="1.0"/>
<line x1="214.8" y1="257.4" x2="238.2" y2="270.9" stroke="rgb(0,0,0)"  stroke-width="1.0"/>
<line x1="211.8" y1="262.5" x2="235.2" y2="276.1" stroke="rgb(0,0,0)"  stroke-width="1.0"/>
<line x1="212.7" y1="100.0" x2="236.0" y2="86.5" stroke="rgb(0,0,0)"  stroke-width="1.0"/>
<line x1="258.4" y1="153.2" x2="281.8" y2="139.4" stroke="rgb(0,0,0)"  stroke-width="1.0"/>
<line x1="63.4" y1="213.5" x2="51.2" y2="206.5" stroke="rgb(0,0,0)"  stroke-width="1.0"/>
<line x1="247.3" y1="66.9" x2="247.3" y2="53.0" stroke="rgb(0,0,0)"  stroke-width="1.0"/>
<line x1="281.8" y1="139.4" x2="316.8" y2="159.3" stroke="rgb(0,0,0)"  stroke-width="1.0"/>
<line x1="316.8" y1="159.3" x2="340.0" y2="145.9" stroke="rgb(0,0,0)"  stroke-width="1.0"/>
<line x1="314.7" y1="155.7" x2="337.8" y2="142.3" stroke="rgb(0,0,0)"  stroke-width="1.0"/>
<line x1="318.9" y1="163.0" x2="342.1" y2="149.6" stroke="rgb(0,0,0)"  stroke-width="1.0"/>
<line x1="178.6" y1="199.8" x2="202.1" y2="213.3" stroke="rgb(0,0,0)"  stroke-width="1.0"/>
<line x1="213.3" y1="232.8" x2="213.3" y2="259.9" stroke="rgb(0,0,0)"  stroke-width="1.0"/>
<line x1="213.3" y1="259.9" x2="189.8" y2="273.5" stroke="rgb(0,0,0)"  stroke-width="1.0"/>
<line x1="167.3" y1="273.5" x2="144.1" y2="259.9" stroke="rgb(0,0,0)"  stroke-width="1.0"/>
<line x1="144.1" y1="259.9" x2="144.1" y2="219.8" stroke="rgb(0,0,0)"  stroke-width="1.0"/>
<line x1="151.3" y1="253.9" x2="151.3" y2="225.8" stroke="rgb(0,0,0)"  stroke-width="1.0"/>
<line x1="144.1" y1="219.8" x2="178.6" y2="199.8" stroke="rgb(0,0,0)"  stroke-width="1.0"/>
<line x1="178.2" y1="160.0" x2="143.6" y2="139.9" stroke="rgb(0,0,0)"  stroke-width="1.0"/>
<line x1="143.6" y1="139.9" x2="143.5" y2="100.3" stroke="rgb(0,0,0)"  stroke-width="1.0"/>
<line x1="150.8" y1="133.9" x2="150.7" y2="106.3" stroke="rgb(0,0,0)"  stroke-width="1.0"/>
<line x1="143.5" y1="100.3" x2="178.2" y2="79.9" stroke="rgb(0,0,0)"  stroke-width="1.0"/>
<line x1="178.2" y1="79.9" x2="212.7" y2="100.0" stroke="rgb(0,0,0)"  stroke-width="1.0"/>
<line x1="179.8" y1="89.2" x2="203.8" y2="103.2" stroke="rgb(0,0,0)"  stroke-width="1.0"/>
<line x1="212.7" y1="100.0" x2="212.7" y2="139.9" stroke="rgb(0,0,0)"  stroke-width="1.0"/>
<line x1="212.7" y1="139.9" x2="178.2" y2="160.0" stroke="rgb(0,0,0)"  stroke-width="1.0"/>
<line x1="203.8" y1="136.7" x2="179.8" y2="150.8" stroke="rgb(0,0,0)"  stroke-width="1.0"/>
<text x="207.321134" y="227.833872" fill="rgb(12,12,255)"  stroke="rgb(12,12,255)" stroke-width="1" font-size="16" >NH</text>
<text x="241.250318" y="167.834370" fill="rgb(255,12,12)"  stroke="rgb(255,12,12)" stroke-width="1" font-size="16" >O</text>
<text x="172.559095" y="288.002851" fill="rgb(12,12,255)"  stroke="rgb(12,12,255)" stroke-width="1" font-size="16" >N</text>
<text x="172.559095" y="304.002851" fill="rgb(12,12,255)"  stroke="rgb(12,12,255)" stroke-width="1" font-size="16" >H</text>
<text x="83.030175" y="288.002851" fill="rgb(102,102,102)"  stroke="rgb(102,102,102)" stroke-width="1" font-size="16" >H</text>
<text x="95.030175" y="291.682851" fill="rgb(102,102,102)"  stroke="rgb(102,102,102)" stroke-width="1" font-size="13" >3</text>
<text x="101.530175" y="288.002851" fill="rgb(102,102,102)"  stroke="rgb(102,102,102)" stroke-width="1" font-size="16" >C</text>
<text x="68.597405" y="228.003348" fill="rgb(255,12,12)"  stroke="rgb(255,12,12)" stroke-width="1" font-size="16" >O</text>
<text x="103.030175" y="168.003846" fill="rgb(255,12,12)"  stroke="rgb(255,12,12)" stroke-width="1" font-size="16" >O</text>
<text x="241.918539" y="288.002851" fill="rgb(255,12,12)"  stroke="rgb(255,12,12)" stroke-width="1" font-size="16" >O</text>
<text x="241.250318" y="87.943176" fill="rgb(255,12,12)"  stroke="rgb(255,12,12)" stroke-width="1" font-size="16" >O</text>
<text x="14.000000" y="207.947022" fill="rgb(102,102,102)"  stroke="rgb(102,102,102)" stroke-width="1" font-size="16" >H</text>
<text x="26.000000" y="211.627022" fill="rgb(102,102,102)"  stroke="rgb(102,102,102)" stroke-width="1" font-size="13" >3</text>
<text x="32.500000" y="207.947022" fill="rgb(102,102,102)"  stroke="rgb(102,102,102)" stroke-width="1" font-size="16" >C</text>
<text x="243.250318" y="48.000000" fill="rgb(102,102,102)"  stroke="rgb(102,102,102)" stroke-width="1" font-size="16" >CH</text>
<text x="267.250318" y="51.680000" fill="rgb(102,102,102)"  stroke="rgb(102,102,102)" stroke-width="1" font-size="13" >3</text>
<text x="345.207166" y="147.443933" fill="rgb(102,102,102)"  stroke="rgb(102,102,102)" stroke-width="1" font-size="16" >CH</text>
<text font-size="18.000000" fill ="black" font-family="sans-serif"
x="10.000000" y="20.000000" ></text>
<title> - OBDepict</title>
</svg>
