<?xml version="1.0"?>
<svg xmlns="http://www.w3.org/2000/svg"
xmlns:xlink="http://www.w3.org/1999/xlink" xmlns:cml="http://www.xml-cml.org/schema" width="252.5" height="360.205" x="0" y="0" font-family="sans-serif" stroke="rgb(0,0,0)" stroke-width="1"  stroke-linecap="round">
<rect x="0%" y="0%" width="100%" height="100%" stroke-width="0" fill="rgb(255,255,255)"  />
<line x1="179.1" y1="80.1" x2="178.5" y2="120.0" stroke="rgb(0,0,0)"  stroke-width="1.0"/>
<line x1="179.1" y1="53.0" x2="179.1" y2="80.1" stroke="rgb(0,0,0)"  stroke-width="1.0"/>
<line x1="183.3" y1="53.0" x2="183.3" y2="80.1" stroke="rgb(0,0,0)"  stroke-width="1.0"/>
<line x1="174.9" y1="53.0" x2="174.9" y2="80.1" stroke="rgb(0,0,0)"  stroke-width="1.0"/>
<line x1="118.4" y1="311.1" x2="141.8" y2="297.6" stroke="rgb(0,0,0)"  stroke-width="1.0"/>
<line x1="121.4" y1="316.3" x2="144.8" y2="302.8" stroke="rgb(0,0,0)"  stroke-width="1.0"/>
<line x1="201.1" y1="186.4" x2="177.7" y2="199.5" stroke="rgb(0,0,0)"  stroke-width="1.0"/>
<line x1="143.3" y1="300.2" x2="143.3" y2="259.7" stroke="rgb(0,0,0)"  stroke-width="1.0"/>
<line x1="143.5" y1="152.8" x2="143.3" y2="179.9" stroke="rgb(0,0,0)"  stroke-width="1.0"/>
<line x1="85.6" y1="186.1" x2="108.6" y2="199.5" stroke="rgb(0,0,0)"  stroke-width="1.0"/>
<line x1="178.5" y1="120.0" x2="155.0" y2="133.4" stroke="rgb(0,0,0)"  stroke-width="1.0"/>
<line x1="51.3" y1="192.8" x2="63.2" y2="186.0" stroke="rgb(0,0,0)"  stroke-width="1.0"/>
<line x1="143.3" y1="179.9" x2="177.7" y2="199.5" stroke="rgb(0,0,0)"  stroke-width="1.0"/>
<line x1="177.7" y1="199.5" x2="177.9" y2="240.2" stroke="rgb(0,0,0)"  stroke-width="1.0"/>
<line x1="170.5" y1="205.6" x2="170.6" y2="234.3" stroke="rgb(0,0,0)"  stroke-width="1.0"/>
<line x1="177.9" y1="240.2" x2="143.3" y2="259.7" stroke="rgb(0,0,0)"  stroke-width="1.0"/>
<line x1="143.3" y1="259.7" x2="108.4" y2="239.6" stroke="rgb(0,0,0)"  stroke-width="1.0"/>
<line x1="141.6" y1="250.4" x2="117.2" y2="236.4" stroke="rgb(0,0,0)"  stroke-width="1.0"/>
<line x1="108.4" y1="239.6" x2="108.6" y2="199.5" stroke="rgb(0,0,0)"  stroke-width="1.0"/>
<line x1="108.6" y1="199.5" x2="143.3" y2="179.9" stroke="rgb(0,0,0)"  stroke-width="1.0"/>
<line x1="117.4" y1="202.8" x2="141.6" y2="189.1" stroke="rgb(0,0,0)"  stroke-width="1.0"/>
<text x="173.092103" y="48.000000" fill="rgb(102,102,102)"  stroke="rgb(102,102,102)" stroke-width="1" font-size="16" >CH</text>
<text x="102.637493" y="328.205386" fill="rgb(255,12,12)"  stroke="rgb(255,12,12)" stroke-width="1" font-size="16" >O</text>
<text x="206.499862" y="188.107552" fill="rgb(30,239,30)"  stroke="rgb(30,239,30)" stroke-width="1" font-size="16" >Cl</text>
<text x="137.658307" y="147.815152" fill="rgb(255,12,12)"  stroke="rgb(255,12,12)" stroke-width="1" font-size="16" >O</text>
<text x="68.418348" y="187.500226" fill="rgb(255,12,12)"  stroke="rgb(255,12,12)" stroke-width="1" font-size="16" >O</text>
<text x="14.000000" y="207.337905" fill="rgb(102,102,102)"  stroke="rgb(102,102,102)" stroke-width="1" font-size="16" >H</text>
<text x="26.000000" y="211.017905" fill="rgb(102,102,102)"  stroke="rgb(102,102,102)" stroke-width="1" font-size="13" >3</text>
<text x="32.500000" y="207.337905" fill="rgb(102,102,102)"  stroke="rgb(102,102,102)" stroke-width="1" font-size="16" >C</text>
<text font-size="18.000000" fill ="black" font-family="sans-serif"
x="10.000000" y="20.000000" ></text>
<title> - OBDepict</title>
</svg>
