<?xml version="1.0"?>
<svg xmlns="http://www.w3.org/2000/svg"
xmlns:xlink="http://www.w3.org/1999/xlink" xmlns:cml="http://www.xml-cml.org/schema" width="345.856" height="463.027" x="0" y="0" font-family="sans-serif" stroke="rgb(0,0,0)" stroke-width="1"  stroke-linecap="round">
<rect x="0%" y="0%" width="100%" height="100%" stroke-width="0" fill="rgb(255,255,255)"  />
<line x1="223.0" y1="213.3" x2="231.3" y2="238.9" stroke="rgb(0,0,0)"  stroke-width="1.0"/>
<line x1="203.6" y1="340.4" x2="235.4" y2="316.2" stroke="rgb(0,0,0)"  stroke-width="1.0"/>
<line x1="251.9" y1="78.0" x2="264.2" y2="115.8" stroke="rgb(0,0,0)"  stroke-width="1.0"/>
<line x1="243.5" y1="52.3" x2="251.9" y2="78.0" stroke="rgb(0,0,0)"  stroke-width="1.0"/>
<line x1="247.5" y1="51.0" x2="255.9" y2="76.7" stroke="rgb(0,0,0)"  stroke-width="1.0"/>
<line x1="239.5" y1="53.7" x2="247.9" y2="79.3" stroke="rgb(0,0,0)"  stroke-width="1.0"/>
<line x1="249.9" y1="183.6" x2="223.0" y2="213.3" stroke="rgb(0,0,0)"  stroke-width="1.0"/>
<line x1="297.1" y1="250.3" x2="275.3" y2="266.1" stroke="rgb(0,0,0)"  stroke-width="1.0"/>
<line x1="293.6" y1="245.4" x2="271.8" y2="261.2" stroke="rgb(0,0,0)"  stroke-width="1.0"/>
<line x1="184.9" y1="280.6" x2="211.9" y2="280.6" stroke="rgb(0,0,0)"  stroke-width="1.0"/>
<line x1="184.9" y1="286.6" x2="211.9" y2="286.6" stroke="rgb(0,0,0)"  stroke-width="1.0"/>
<line x1="71.7" y1="398.6" x2="96.7" y2="408.8" stroke="rgb(0,0,0)"  stroke-width="1.0"/>
<line x1="119.0" y1="405.8" x2="140.4" y2="389.3" stroke="rgb(0,0,0)"  stroke-width="1.0"/>
<line x1="275.5" y1="192.2" x2="249.3" y2="186.6" stroke="rgb(0,0,0)"  stroke-width="1.0"/>
<line x1="276.8" y1="186.3" x2="250.5" y2="180.7" stroke="rgb(0,0,0)"  stroke-width="1.0"/>
<line x1="241.4" y1="157.8" x2="249.9" y2="183.6" stroke="rgb(0,0,0)"  stroke-width="1.0"/>
<line x1="50.3" y1="415.1" x2="71.7" y2="398.6" stroke="rgb(0,0,0)"  stroke-width="1.0"/>
<line x1="68.2" y1="371.7" x2="71.7" y2="398.6" stroke="rgb(0,0,0)"  stroke-width="1.0"/>
<line x1="243.0" y1="341.9" x2="235.4" y2="316.2" stroke="rgb(0,0,0)"  stroke-width="1.0"/>
<line x1="264.2" y1="115.8" x2="246.1" y2="135.8" stroke="rgb(0,0,0)"  stroke-width="1.0"/>
<line x1="247.7" y1="255.3" x2="273.5" y2="263.6" stroke="rgb(0,0,0)"  stroke-width="1.0"/>
<line x1="273.5" y1="263.6" x2="273.5" y2="290.6" stroke="rgb(0,0,0)"  stroke-width="1.0"/>
<line x1="261.2" y1="307.7" x2="235.4" y2="316.2" stroke="rgb(0,0,0)"  stroke-width="1.0"/>
<line x1="235.4" y1="316.2" x2="211.9" y2="283.6" stroke="rgb(0,0,0)"  stroke-width="1.0"/>
<line x1="211.9" y1="283.6" x2="227.7" y2="261.8" stroke="rgb(0,0,0)"  stroke-width="1.0"/>
<line x1="203.6" y1="340.4" x2="166.7" y2="325.3" stroke="rgb(0,0,0)"  stroke-width="1.0"/>
<line x1="166.7" y1="325.3" x2="135.2" y2="349.7" stroke="rgb(0,0,0)"  stroke-width="1.0"/>
<line x1="166.3" y1="334.6" x2="144.3" y2="351.7" stroke="rgb(0,0,0)"  stroke-width="1.0"/>
<line x1="135.2" y1="349.7" x2="140.4" y2="389.3" stroke="rgb(0,0,0)"  stroke-width="1.0"/>
<line x1="140.4" y1="389.3" x2="177.4" y2="404.6" stroke="rgb(0,0,0)"  stroke-width="1.0"/>
<line x1="148.7" y1="384.9" x2="174.6" y2="395.7" stroke="rgb(0,0,0)"  stroke-width="1.0"/>
<line x1="177.4" y1="404.6" x2="209.1" y2="380.2" stroke="rgb(0,0,0)"  stroke-width="1.0"/>
<line x1="209.1" y1="380.2" x2="203.6" y2="340.4" stroke="rgb(0,0,0)"  stroke-width="1.0"/>
<line x1="201.1" y1="375.2" x2="197.3" y2="347.3" stroke="rgb(0,0,0)"  stroke-width="1.0"/>
<text x="229.355308" y="259.314156" fill="rgb(12,12,255)"  stroke="rgb(12,12,255)" stroke-width="1" font-size="16" >N</text>
<text x="267.536319" y="311.636103" fill="rgb(12,12,255)"  stroke="rgb(12,12,255)" stroke-width="1" font-size="16" >NH</text>
<text x="221.393497" y="48.000000" fill="rgb(102,102,102)"  stroke="rgb(102,102,102)" stroke-width="1" font-size="16" >HC</text>
<text x="299.856381" y="248.203074" fill="rgb(255,12,12)"  stroke="rgb(255,12,12)" stroke-width="1" font-size="16" >O</text>
<text x="165.917431" y="291.634217" fill="rgb(255,12,12)"  stroke="rgb(255,12,12)" stroke-width="1" font-size="16" >O</text>
<text x="102.688008" y="421.738584" fill="rgb(255,12,12)"  stroke="rgb(255,12,12)" stroke-width="1" font-size="16" >O</text>
<text x="282.889197" y="199.919317" fill="rgb(255,12,12)"  stroke="rgb(255,12,12)" stroke-width="1" font-size="16" >O</text>
<text x="219.371979" y="153.453472" fill="rgb(12,12,255)"  stroke="rgb(12,12,255)" stroke-width="1" font-size="16" >HN</text>
<text x="34.000000" y="431.026905" fill="rgb(127,178,255)"  stroke="rgb(127,178,255)" stroke-width="1" font-size="16" >F</text>
<text x="60.463959" y="366.784299" fill="rgb(127,178,255)"  stroke="rgb(127,178,255)" stroke-width="1" font-size="16" >F</text>
<text x="242.665148" y="362.343744" fill="rgb(102,102,102)"  stroke="rgb(102,102,102)" stroke-width="1" font-size="16" >CH</text>
<text x="266.665148" y="366.023744" fill="rgb(102,102,102)"  stroke="rgb(102,102,102)" stroke-width="1" font-size="13" >3</text>
<text font-size="18.000000" fill ="black" font-family="sans-serif"
x="10.000000" y="20.000000" ></text>
<title> - OBDepict</title>
</svg>
