<?xml version="1.0"?>
<svg xmlns="http://www.w3.org/2000/svg"
xmlns:xlink="http://www.w3.org/1999/xlink" xmlns:cml="http://www.xml-cml.org/schema" width="400.144" height="396.275" x="0" y="0" font-family="sans-serif" stroke="rgb(0,0,0)" stroke-width="1"  stroke-linecap="round">
<rect x="0%" y="0%" width="100%" height="100%" stroke-width="0" fill="rgb(255,255,255)"  />
<line x1="120.0" y1="150.6" x2="139.2" y2="116.2" stroke="rgb(0,0,0)"  stroke-width="1.0"/>
<line x1="139.1" y1="113.2" x2="177.9" y2="112.4" stroke="rgb(0,0,0)"  stroke-width="1.0"/>
<line x1="139.2" y1="119.2" x2="178.0" y2="118.4" stroke="rgb(0,0,0)"  stroke-width="1.0"/>
<line x1="139.2" y1="116.2" x2="116.0" y2="78.1" stroke="rgb(0,0,0)"  stroke-width="1.0"/>
<line x1="178.0" y1="115.4" x2="198.8" y2="150.0" stroke="rgb(0,0,0)"  stroke-width="1.0"/>
<line x1="116.0" y1="78.1" x2="99.4" y2="51.1" stroke="rgb(0,0,0)"  stroke-width="1.0"/>
<line x1="112.4" y1="80.3" x2="95.8" y2="53.3" stroke="rgb(0,0,0)"  stroke-width="1.0"/>
<line x1="119.6" y1="75.9" x2="103.0" y2="48.9" stroke="rgb(0,0,0)"  stroke-width="1.0"/>
<line x1="259.3" y1="183.5" x2="286.4" y2="183.1" stroke="rgb(0,0,0)"  stroke-width="1.0"/>
<line x1="240.0" y1="218.7" x2="254.0" y2="241.8" stroke="rgb(0,0,0)"  stroke-width="1.0"/>
<line x1="306.2" y1="194.1" x2="320.0" y2="216.8" stroke="rgb(0,0,0)"  stroke-width="1.0"/>
<line x1="254.5" y1="264.3" x2="241.5" y2="288.0" stroke="rgb(0,0,0)"  stroke-width="1.0"/>
<line x1="320.0" y1="216.8" x2="347.1" y2="216.4" stroke="rgb(0,0,0)"  stroke-width="1.0"/>
<line x1="241.5" y1="288.0" x2="261.9" y2="322.2" stroke="rgb(0,0,0)"  stroke-width="1.0"/>
<line x1="261.9" y1="322.2" x2="275.8" y2="345.2" stroke="rgb(0,0,0)"  stroke-width="1.0"/>
<line x1="265.5" y1="320.1" x2="279.4" y2="343.0" stroke="rgb(0,0,0)"  stroke-width="1.0"/>
<line x1="258.3" y1="324.4" x2="272.2" y2="347.3" stroke="rgb(0,0,0)"  stroke-width="1.0"/>
<line x1="120.0" y1="150.6" x2="93.9" y2="153.9" stroke="rgb(0,0,0)"  stroke-width="1.0"/>
<line x1="78.6" y1="168.3" x2="73.7" y2="194.0" stroke="rgb(0,0,0)"  stroke-width="1.0"/>
<line x1="73.7" y1="194.0" x2="108.1" y2="212.9" stroke="rgb(0,0,0)"  stroke-width="1.0"/>
<line x1="82.4" y1="190.6" x2="106.3" y2="203.7" stroke="rgb(0,0,0)"  stroke-width="1.0"/>
<line x1="108.1" y1="212.9" x2="127.1" y2="195.2" stroke="rgb(0,0,0)"  stroke-width="1.0"/>
<line x1="131.1" y1="174.5" x2="120.0" y2="150.6" stroke="rgb(0,0,0)"  stroke-width="1.0"/>
<line x1="123.7" y1="175.6" x2="116.0" y2="159.0" stroke="rgb(0,0,0)"  stroke-width="1.0"/>
<line x1="40.0" y1="214.2" x2="73.7" y2="194.0" stroke="rgb(0,0,0)"  stroke-width="1.0"/>
<line x1="108.1" y1="212.9" x2="108.6" y2="252.3" stroke="rgb(0,0,0)"  stroke-width="1.0"/>
<line x1="108.6" y1="252.3" x2="74.6" y2="272.2" stroke="rgb(0,0,0)"  stroke-width="1.0"/>
<line x1="99.8" y1="249.1" x2="76.1" y2="263.0" stroke="rgb(0,0,0)"  stroke-width="1.0"/>
<line x1="74.6" y1="272.2" x2="40.6" y2="253.6" stroke="rgb(0,0,0)"  stroke-width="1.0"/>
<line x1="40.6" y1="253.6" x2="40.0" y2="214.2" stroke="rgb(0,0,0)"  stroke-width="1.0"/>
<line x1="47.7" y1="247.5" x2="47.3" y2="220.1" stroke="rgb(0,0,0)"  stroke-width="1.0"/>
<line x1="198.8" y1="150.0" x2="179.3" y2="184.8" stroke="rgb(0,0,0)"  stroke-width="1.0"/>
<line x1="179.3" y1="184.8" x2="200.1" y2="219.4" stroke="rgb(0,0,0)"  stroke-width="1.0"/>
<line x1="188.5" y1="186.2" x2="203.2" y2="210.5" stroke="rgb(0,0,0)"  stroke-width="1.0"/>
<line x1="200.1" y1="219.4" x2="240.0" y2="218.7" stroke="rgb(0,0,0)"  stroke-width="1.0"/>
<line x1="240.0" y1="218.7" x2="259.3" y2="183.5" stroke="rgb(0,0,0)"  stroke-width="1.0"/>
<line x1="236.6" y1="209.9" x2="250.1" y2="185.3" stroke="rgb(0,0,0)"  stroke-width="1.0"/>
<line x1="259.3" y1="183.5" x2="238.7" y2="149.3" stroke="rgb(0,0,0)"  stroke-width="1.0"/>
<line x1="238.7" y1="149.3" x2="198.8" y2="150.0" stroke="rgb(0,0,0)"  stroke-width="1.0"/>
<line x1="232.8" y1="156.6" x2="204.9" y2="157.1" stroke="rgb(0,0,0)"  stroke-width="1.0"/>
<text x="75.028777" y="163.541365" fill="rgb(12,12,255)"  stroke="rgb(12,12,255)" stroke-width="1" font-size="16" >N</text>
<text x="75.028777" y="147.541365" fill="rgb(12,12,255)"  stroke="rgb(12,12,255)" stroke-width="1" font-size="16" >H</text>
<text x="130.592001" y="194.271890" fill="rgb(12,12,255)"  stroke="rgb(12,12,255)" stroke-width="1" font-size="16" >N</text>
<text x="86.621556" y="48.000000" fill="rgb(12,12,255)"  stroke="rgb(12,12,255)" stroke-width="1" font-size="16" >N</text>
<text x="293.422244" y="190.958287" fill="rgb(255,12,12)"  stroke="rgb(255,12,12)" stroke-width="1" font-size="16" >O</text>
<text x="254.784477" y="260.872405" fill="rgb(255,12,12)"  stroke="rgb(255,12,12)" stroke-width="1" font-size="16" >O</text>
<text x="356.144254" y="224.258545" fill="rgb(102,102,102)"  stroke="rgb(102,102,102)" stroke-width="1" font-size="16" >CH</text>
<text x="380.144254" y="227.938545" fill="rgb(102,102,102)"  stroke="rgb(102,102,102)" stroke-width="1" font-size="13" >3</text>
<text x="276.496786" y="364.275164" fill="rgb(102,102,102)"  stroke="rgb(102,102,102)" stroke-width="1" font-size="16" >CH</text>
<text font-size="18.000000" fill ="black" font-family="sans-serif"
x="10.000000" y="20.000000" ></text>
<title> - OBDepict</title>
</svg>
