<?xml version="1.0"?>
<svg xmlns="http://www.w3.org/2000/svg"
xmlns:xlink="http://www.w3.org/1999/xlink" xmlns:cml="http://www.xml-cml.org/schema" width="382.597" height="495.473" x="0" y="0" font-family="sans-serif" stroke="rgb(0,0,0)" stroke-width="1"  stroke-linecap="round">
<rect x="0%" y="0%" width="100%" height="100%" stroke-width="0" fill="rgb(255,255,255)"  />
<line x1="249.7" y1="203.9" x2="254.1" y2="243.9" stroke="rgb(0,0,0)"  stroke-width="1.0"/>
<line x1="255.8" y1="246.3" x2="223.7" y2="270.0" stroke="rgb(0,0,0)"  stroke-width="1.0"/>
<line x1="252.3" y1="241.5" x2="220.1" y2="265.2" stroke="rgb(0,0,0)"  stroke-width="1.0"/>
<line x1="133.7" y1="285.6" x2="160.7" y2="285.2" stroke="rgb(0,0,0)"  stroke-width="1.0"/>
<line x1="133.7" y1="291.6" x2="160.7" y2="291.2" stroke="rgb(0,0,0)"  stroke-width="1.0"/>
<line x1="208.4" y1="77.5" x2="196.2" y2="114.9" stroke="rgb(0,0,0)"  stroke-width="1.0"/>
<line x1="218.2" y1="52.1" x2="208.4" y2="77.5" stroke="rgb(0,0,0)"  stroke-width="1.0"/>
<line x1="222.1" y1="53.6" x2="212.3" y2="79.0" stroke="rgb(0,0,0)"  stroke-width="1.0"/>
<line x1="214.3" y1="50.6" x2="204.5" y2="76.0" stroke="rgb(0,0,0)"  stroke-width="1.0"/>
<line x1="242.8" y1="325.8" x2="220.8" y2="310.0" stroke="rgb(0,0,0)"  stroke-width="1.0"/>
<line x1="246.3" y1="320.9" x2="224.3" y2="305.2" stroke="rgb(0,0,0)"  stroke-width="1.0"/>
<line x1="196.2" y1="114.9" x2="214.3" y2="134.9" stroke="rgb(0,0,0)"  stroke-width="1.0"/>
<line x1="172.9" y1="358.4" x2="180.9" y2="332.7" stroke="rgb(0,0,0)"  stroke-width="1.0"/>
<line x1="100.0" y1="254.2" x2="114.0" y2="277.6" stroke="rgb(0,0,0)"  stroke-width="1.0"/>
<line x1="191.9" y1="413.7" x2="199.9" y2="388.0" stroke="rgb(0,0,0)"  stroke-width="1.0"/>
<line x1="199.9" y1="388.0" x2="172.9" y2="358.4" stroke="rgb(0,0,0)"  stroke-width="1.0"/>
<line x1="206.3" y1="445.9" x2="196.9" y2="435.7" stroke="rgb(0,0,0)"  stroke-width="1.0"/>
<line x1="215.1" y1="183.9" x2="220.5" y2="157.3" stroke="rgb(0,0,0)"  stroke-width="1.0"/>
<line x1="236.0" y1="143.1" x2="262.9" y2="140.2" stroke="rgb(0,0,0)"  stroke-width="1.0"/>
<line x1="262.9" y1="140.2" x2="279.6" y2="177.0" stroke="rgb(0,0,0)"  stroke-width="1.0"/>
<line x1="279.6" y1="177.0" x2="249.7" y2="203.9" stroke="rgb(0,0,0)"  stroke-width="1.0"/>
<line x1="249.7" y1="203.9" x2="215.1" y2="183.9" stroke="rgb(0,0,0)"  stroke-width="1.0"/>
<line x1="248.1" y1="194.7" x2="223.9" y2="180.6" stroke="rgb(0,0,0)"  stroke-width="1.0"/>
<line x1="160.7" y1="288.2" x2="176.2" y2="266.5" stroke="rgb(0,0,0)"  stroke-width="1.0"/>
<line x1="196.1" y1="259.7" x2="221.9" y2="267.6" stroke="rgb(0,0,0)"  stroke-width="1.0"/>
<line x1="221.9" y1="267.6" x2="222.6" y2="307.6" stroke="rgb(0,0,0)"  stroke-width="1.0"/>
<line x1="222.6" y1="307.6" x2="197.0" y2="316.1" stroke="rgb(0,0,0)"  stroke-width="1.0"/>
<line x1="176.9" y1="309.9" x2="160.7" y2="288.2" stroke="rgb(0,0,0)"  stroke-width="1.0"/>
<line x1="262.9" y1="140.2" x2="286.2" y2="107.5" stroke="rgb(0,0,0)"  stroke-width="1.0"/>
<line x1="272.3" y1="139.5" x2="288.6" y2="116.6" stroke="rgb(0,0,0)"  stroke-width="1.0"/>
<line x1="286.2" y1="107.5" x2="325.9" y2="111.7" stroke="rgb(0,0,0)"  stroke-width="1.0"/>
<line x1="325.9" y1="111.7" x2="342.6" y2="148.2" stroke="rgb(0,0,0)"  stroke-width="1.0"/>
<line x1="321.9" y1="120.1" x2="333.6" y2="145.7" stroke="rgb(0,0,0)"  stroke-width="1.0"/>
<line x1="342.6" y1="148.2" x2="319.6" y2="181.2" stroke="rgb(0,0,0)"  stroke-width="1.0"/>
<line x1="319.6" y1="181.2" x2="279.6" y2="177.0" stroke="rgb(0,0,0)"  stroke-width="1.0"/>
<line x1="314.4" y1="173.4" x2="286.3" y2="170.5" stroke="rgb(0,0,0)"  stroke-width="1.0"/>
<line x1="100.0" y1="254.2" x2="120.0" y2="220.1" stroke="rgb(0,0,0)"  stroke-width="1.0"/>
<line x1="96.8" y1="245.4" x2="110.8" y2="221.6" stroke="rgb(0,0,0)"  stroke-width="1.0"/>
<line x1="120.0" y1="220.1" x2="100.0" y2="185.6" stroke="rgb(0,0,0)"  stroke-width="1.0"/>
<line x1="100.0" y1="185.6" x2="60.0" y2="185.7" stroke="rgb(0,0,0)"  stroke-width="1.0"/>
<line x1="94.0" y1="192.8" x2="66.0" y2="192.9" stroke="rgb(0,0,0)"  stroke-width="1.0"/>
<line x1="60.0" y1="185.7" x2="40.0" y2="220.2" stroke="rgb(0,0,0)"  stroke-width="1.0"/>
<line x1="40.0" y1="220.2" x2="60.7" y2="254.9" stroke="rgb(0,0,0)"  stroke-width="1.0"/>
<line x1="49.3" y1="221.7" x2="63.8" y2="246.1" stroke="rgb(0,0,0)"  stroke-width="1.0"/>
<line x1="60.7" y1="254.9" x2="100.0" y2="254.2" stroke="rgb(0,0,0)"  stroke-width="1.0"/>
<text x="178.711090" y="328.259199" fill="rgb(12,12,255)"  stroke="rgb(12,12,255)" stroke-width="1" font-size="16" >N</text>
<text x="177.711845" y="263.904892" fill="rgb(178,178,0)"  stroke="rgb(178,178,0)" stroke-width="1" font-size="16" >S</text>
<text x="217.060766" y="152.537549" fill="rgb(12,12,255)"  stroke="rgb(12,12,255)" stroke-width="1" font-size="16" >N</text>
<text x="114.691482" y="296.749017" fill="rgb(12,12,255)"  stroke="rgb(12,12,255)" stroke-width="1" font-size="16" >N</text>
<text x="216.890992" y="48.000000" fill="rgb(102,102,102)"  stroke="rgb(102,102,102)" stroke-width="1" font-size="16" >CH</text>
<text x="249.070570" y="338.930750" fill="rgb(255,12,12)"  stroke="rgb(255,12,12)" stroke-width="1" font-size="16" >O</text>
<text x="182.048376" y="434.125841" fill="rgb(255,12,12)"  stroke="rgb(255,12,12)" stroke-width="1" font-size="16" >O</text>
<text x="211.057103" y="463.472608" fill="rgb(102,102,102)"  stroke="rgb(102,102,102)" stroke-width="1" font-size="16" >CH</text>
<text x="235.057103" y="467.152608" fill="rgb(102,102,102)"  stroke="rgb(102,102,102)" stroke-width="1" font-size="13" >3</text>
<text font-size="18.000000" fill ="black" font-family="sans-serif"
x="10.000000" y="20.000000" ></text>
<title> - OBDepict</title>
</svg>
