<?xml version="1.0"?>
<svg xmlns="http://www.w3.org/2000/svg"
xmlns:xlink="http://www.w3.org/1999/xlink" xmlns:cml="http://www.xml-cml.org/schema" width="467.595" height="341.368" x="0" y="0" font-family="sans-serif" stroke="rgb(0,0,0)" stroke-width="1"  stroke-linecap="round">
<rect x="0%" y="0%" width="100%" height="100%" stroke-width="0" fill="rgb(255,255,255)"  />
<line x1="354.5" y1="113.6" x2="340.8" y2="137.3" stroke="rgb(0,0,0)"  stroke-width="1.0"/>
<line x1="267.7" y1="174.8" x2="240.6" y2="174.5" stroke="rgb(0,0,0)"  stroke-width="1.0"/>
<line x1="267.8" y1="168.8" x2="240.7" y2="168.5" stroke="rgb(0,0,0)"  stroke-width="1.0"/>
<line x1="85.9" y1="137.7" x2="109.8" y2="151.5" stroke="rgb(0,0,0)"  stroke-width="1.0"/>
<line x1="300.8" y1="137.3" x2="287.2" y2="160.7" stroke="rgb(0,0,0)"  stroke-width="1.0"/>
<line x1="340.8" y1="137.3" x2="300.8" y2="137.3" stroke="rgb(0,0,0)"  stroke-width="1.0"/>
<line x1="202.6" y1="271.6" x2="229.3" y2="241.9" stroke="rgb(0,0,0)"  stroke-width="1.0"/>
<line x1="184.6" y1="291.7" x2="202.6" y2="271.6" stroke="rgb(0,0,0)"  stroke-width="1.0"/>
<line x1="181.5" y1="288.9" x2="199.5" y2="268.8" stroke="rgb(0,0,0)"  stroke-width="1.0"/>
<line x1="187.8" y1="294.5" x2="205.8" y2="274.4" stroke="rgb(0,0,0)"  stroke-width="1.0"/>
<line x1="74.6" y1="104.6" x2="74.6" y2="118.2" stroke="rgb(0,0,0)"  stroke-width="1.0"/>
<line x1="49.7" y1="142.2" x2="61.8" y2="135.2" stroke="rgb(0,0,0)"  stroke-width="1.0"/>
<line x1="52.8" y1="147.3" x2="64.8" y2="140.3" stroke="rgb(0,0,0)"  stroke-width="1.0"/>
<line x1="319.2" y1="57.6" x2="345.3" y2="63.8" stroke="rgb(0,0,0)"  stroke-width="1.0"/>
<line x1="317.8" y1="63.5" x2="344.0" y2="69.6" stroke="rgb(0,0,0)"  stroke-width="1.0"/>
<line x1="416.6" y1="120.8" x2="398.3" y2="100.7" stroke="rgb(0,0,0)"  stroke-width="1.0"/>
<line x1="421.1" y1="116.8" x2="402.7" y2="96.7" stroke="rgb(0,0,0)"  stroke-width="1.0"/>
<line x1="289.8" y1="112.5" x2="303.4" y2="135.8" stroke="rgb(0,0,0)"  stroke-width="1.0"/>
<line x1="284.6" y1="115.5" x2="298.2" y2="138.8" stroke="rgb(0,0,0)"  stroke-width="1.0"/>
<line x1="229.3" y1="241.9" x2="221.1" y2="216.1" stroke="rgb(0,0,0)"  stroke-width="1.0"/>
<line x1="240.7" y1="171.5" x2="224.8" y2="149.7" stroke="rgb(0,0,0)"  stroke-width="1.0"/>
<line x1="204.8" y1="143.1" x2="179.0" y2="151.5" stroke="rgb(0,0,0)"  stroke-width="1.0"/>
<line x1="179.0" y1="151.5" x2="179.0" y2="191.5" stroke="rgb(0,0,0)"  stroke-width="1.0"/>
<line x1="186.2" y1="157.5" x2="186.2" y2="185.5" stroke="rgb(0,0,0)"  stroke-width="1.0"/>
<line x1="179.0" y1="191.5" x2="204.8" y2="199.7" stroke="rgb(0,0,0)"  stroke-width="1.0"/>
<line x1="224.9" y1="193.2" x2="240.7" y2="171.5" stroke="rgb(0,0,0)"  stroke-width="1.0"/>
<line x1="355.6" y1="90.5" x2="344.7" y2="66.7" stroke="rgb(0,0,0)"  stroke-width="1.0"/>
<line x1="344.7" y1="66.7" x2="374.4" y2="40.0" stroke="rgb(0,0,0)"  stroke-width="1.0"/>
<line x1="374.4" y1="40.0" x2="409.4" y2="59.4" stroke="rgb(0,0,0)"  stroke-width="1.0"/>
<line x1="409.4" y1="59.4" x2="400.5" y2="98.7" stroke="rgb(0,0,0)"  stroke-width="1.0"/>
<line x1="400.5" y1="98.7" x2="374.0" y2="101.1" stroke="rgb(0,0,0)"  stroke-width="1.0"/>
<line x1="144.4" y1="131.4" x2="179.0" y2="151.5" stroke="rgb(0,0,0)"  stroke-width="1.0"/>
<line x1="179.0" y1="191.5" x2="144.4" y2="211.6" stroke="rgb(0,0,0)"  stroke-width="1.0"/>
<line x1="144.4" y1="211.6" x2="109.8" y2="191.5" stroke="rgb(0,0,0)"  stroke-width="1.0"/>
<line x1="142.8" y1="202.3" x2="118.6" y2="188.3" stroke="rgb(0,0,0)"  stroke-width="1.0"/>
<line x1="109.8" y1="191.5" x2="109.8" y2="151.5" stroke="rgb(0,0,0)"  stroke-width="1.0"/>
<line x1="109.8" y1="151.5" x2="144.4" y2="131.4" stroke="rgb(0,0,0)"  stroke-width="1.0"/>
<line x1="118.6" y1="154.7" x2="142.8" y2="140.7" stroke="rgb(0,0,0)"  stroke-width="1.0"/>
<text x="355.039529" y="110.311572" fill="rgb(12,12,255)"  stroke="rgb(12,12,255)" stroke-width="1" font-size="16" >N</text>
<text x="211.210797" y="211.659326" fill="rgb(12,12,255)"  stroke="rgb(12,12,255)" stroke-width="1" font-size="16" >N</text>
<text x="274.728774" y="179.900337" fill="rgb(12,12,255)"  stroke="rgb(12,12,255)" stroke-width="1" font-size="16" >N</text>
<text x="211.210797" y="147.128743" fill="rgb(178,178,0)"  stroke="rgb(178,178,0)" stroke-width="1" font-size="16" >S</text>
<text x="79.393315" y="127.204234" fill="rgb(12,12,255)"  stroke="rgb(12,12,255)" stroke-width="1" font-size="16" >+</text>
<text x="68.593315" y="139.236234" fill="rgb(12,12,255)"  stroke="rgb(12,12,255)" stroke-width="1" font-size="16" >N</text>
<text x="157.941069" y="309.368483" fill="rgb(102,102,102)"  stroke="rgb(102,102,102)" stroke-width="1" font-size="16" >HC</text>
<text x="79.393315" y="77.472737" fill="rgb(255,12,12)"  stroke="rgb(255,12,12)" stroke-width="1" font-size="16" >_</text>
<text x="68.593315" y="99.584737" fill="rgb(255,12,12)"  stroke="rgb(255,12,12)" stroke-width="1" font-size="16" >O</text>
<text x="34.000000" y="159.265473" fill="rgb(255,12,12)"  stroke="rgb(255,12,12)" stroke-width="1" font-size="16" >O</text>
<text x="299.816195" y="65.601893" fill="rgb(255,12,12)"  stroke="rgb(255,12,12)" stroke-width="1" font-size="16" >O</text>
<text x="421.595323" y="136.406753" fill="rgb(255,12,12)"  stroke="rgb(255,12,12)" stroke-width="1" font-size="16" >O</text>
<text x="274.728774" y="110.713707" fill="rgb(255,12,12)"  stroke="rgb(255,12,12)" stroke-width="1" font-size="16" >O</text>
<text font-size="18.000000" fill ="black" font-family="sans-serif"
x="10.000000" y="20.000000" ></text>
<title> - OBDepict</title>
</svg>
