<?xml version="1.0"?>
<svg xmlns="http://www.w3.org/2000/svg"
xmlns:xlink="http://www.w3.org/1999/xlink" xmlns:cml="http://www.xml-cml.org/schema" width="439.439" height="336.752" x="0" y="0" font-family="sans-serif" stroke="rgb(0,0,0)" stroke-width="1"  stroke-linecap="round">
<rect x="0%" y="0%" width="100%" height="100%" stroke-width="0" fill="rgb(255,255,255)"  />
<line x1="168.0" y1="136.9" x2="145.0" y2="151.0" stroke="rgb(0,0,0)"  stroke-width="1.0"/>
<line x1="281.4" y1="123.0" x2="299.2" y2="102.6" stroke="rgb(0,0,0)"  stroke-width="1.0"/>
<line x1="145.0" y1="151.0" x2="110.0" y2="131.5" stroke="rgb(0,0,0)"  stroke-width="1.0"/>
<line x1="268.4" y1="191.0" x2="281.4" y2="228.6" stroke="rgb(0,0,0)"  stroke-width="1.0"/>
<line x1="320.5" y1="95.3" x2="346.9" y2="100.4" stroke="rgb(0,0,0)"  stroke-width="1.0"/>
<line x1="281.4" y1="228.6" x2="255.4" y2="258.9" stroke="rgb(0,0,0)"  stroke-width="1.0"/>
<line x1="346.9" y1="100.4" x2="373.1" y2="70.1" stroke="rgb(0,0,0)"  stroke-width="1.0"/>
<line x1="75.7" y1="152.1" x2="76.2" y2="179.4" stroke="rgb(0,0,0)"  stroke-width="1.0"/>
<line x1="255.4" y1="258.9" x2="264.2" y2="284.5" stroke="rgb(0,0,0)"  stroke-width="1.0"/>
<line x1="373.1" y1="70.1" x2="390.9" y2="49.8" stroke="rgb(0,0,0)"  stroke-width="1.0"/>
<line x1="369.9" y1="67.3" x2="387.7" y2="47.0" stroke="rgb(0,0,0)"  stroke-width="1.0"/>
<line x1="376.2" y1="72.9" x2="394.0" y2="52.5" stroke="rgb(0,0,0)"  stroke-width="1.0"/>
<line x1="216.1" y1="145.7" x2="242.3" y2="115.4" stroke="rgb(0,0,0)"  stroke-width="1.0"/>
<line x1="242.3" y1="115.4" x2="228.4" y2="92.2" stroke="rgb(0,0,0)"  stroke-width="1.0"/>
<line x1="208.8" y1="84.2" x2="195.5" y2="87.3" stroke="rgb(0,0,0)"  stroke-width="1.0"/>
<line x1="208.5" y1="91.6" x2="199.1" y2="93.9" stroke="rgb(0,0,0)"  stroke-width="1.0"/>
<line x1="181.5" y1="103.3" x2="180.3" y2="117.2" stroke="rgb(0,0,0)"  stroke-width="1.0"/>
<line x1="191.1" y1="135.2" x2="216.1" y2="145.7" stroke="rgb(0,0,0)"  stroke-width="1.0"/>
<line x1="216.1" y1="145.7" x2="224.8" y2="171.0" stroke="rgb(0,0,0)"  stroke-width="1.0"/>
<line x1="224.8" y1="149.0" x2="231.0" y2="166.8" stroke="rgb(0,0,0)"  stroke-width="1.0"/>
<line x1="241.9" y1="185.9" x2="268.4" y2="191.0" stroke="rgb(0,0,0)"  stroke-width="1.0"/>
<line x1="268.4" y1="191.0" x2="286.0" y2="171.0" stroke="rgb(0,0,0)"  stroke-width="1.0"/>
<line x1="266.9" y1="181.8" x2="279.2" y2="167.7" stroke="rgb(0,0,0)"  stroke-width="1.0"/>
<line x1="290.4" y1="148.8" x2="281.4" y2="123.0" stroke="rgb(0,0,0)"  stroke-width="1.0"/>
<line x1="281.4" y1="123.0" x2="242.3" y2="115.4" stroke="rgb(0,0,0)"  stroke-width="1.0"/>
<line x1="274.2" y1="128.9" x2="246.9" y2="123.6" stroke="rgb(0,0,0)"  stroke-width="1.0"/>
<line x1="110.0" y1="131.5" x2="109.1" y2="91.7" stroke="rgb(0,0,0)"  stroke-width="1.0"/>
<line x1="109.1" y1="91.7" x2="74.1" y2="72.1" stroke="rgb(0,0,0)"  stroke-width="1.0"/>
<line x1="100.3" y1="95.0" x2="75.8" y2="81.3" stroke="rgb(0,0,0)"  stroke-width="1.0"/>
<line x1="74.1" y1="72.1" x2="40.0" y2="92.8" stroke="rgb(0,0,0)"  stroke-width="1.0"/>
<line x1="40.0" y1="92.8" x2="40.6" y2="132.8" stroke="rgb(0,0,0)"  stroke-width="1.0"/>
<line x1="47.3" y1="98.7" x2="47.7" y2="126.7" stroke="rgb(0,0,0)"  stroke-width="1.0"/>
<line x1="40.6" y1="132.8" x2="75.7" y2="152.1" stroke="rgb(0,0,0)"  stroke-width="1.0"/>
<line x1="75.7" y1="152.1" x2="110.0" y2="131.5" stroke="rgb(0,0,0)"  stroke-width="1.0"/>
<line x1="77.2" y1="142.8" x2="101.1" y2="128.4" stroke="rgb(0,0,0)"  stroke-width="1.0"/>
<text x="173.133976" y="138.159049" fill="rgb(12,12,255)"  stroke="rgb(12,12,255)" stroke-width="1" font-size="16" >N</text>
<text x="223.112448" y="191.472975" fill="rgb(12,12,255)"  stroke="rgb(12,12,255)" stroke-width="1" font-size="16" >N</text>
<text x="215.641614" y="89.092010" fill="rgb(12,12,255)"  stroke="rgb(12,12,255)" stroke-width="1" font-size="16" >N</text>
<text x="176.668199" y="98.380859" fill="rgb(12,12,255)"  stroke="rgb(12,12,255)" stroke-width="1" font-size="16" >N</text>
<text x="288.638593" y="169.055625" fill="rgb(12,12,255)"  stroke="rgb(12,12,255)" stroke-width="1" font-size="16" >N</text>
<text x="301.762244" y="100.804881" fill="rgb(12,12,255)"  stroke="rgb(12,12,255)" stroke-width="1" font-size="16" >N</text>
<text x="301.762244" y="84.804881" fill="rgb(12,12,255)"  stroke="rgb(12,12,255)" stroke-width="1" font-size="16" >H</text>
<text x="70.452433" y="200.354589" fill="rgb(127,178,255)"  stroke="rgb(127,178,255)" stroke-width="1" font-size="16" >F</text>
<text x="264.386442" y="304.752339" fill="rgb(102,102,102)"  stroke="rgb(102,102,102)" stroke-width="1" font-size="16" >CH</text>
<text x="288.386442" y="308.432339" fill="rgb(102,102,102)"  stroke="rgb(102,102,102)" stroke-width="1" font-size="13" >3</text>
<text x="393.438731" y="48.000000" fill="rgb(102,102,102)"  stroke="rgb(102,102,102)" stroke-width="1" font-size="16" >CH</text>
<text font-size="18.000000" fill ="black" font-family="sans-serif"
x="10.000000" y="20.000000" ></text>
<title> - OBDepict</title>
</svg>
