<?xml version="1.0"?>
<svg xmlns="http://www.w3.org/2000/svg"
xmlns:xlink="http://www.w3.org/1999/xlink" xmlns:cml="http://www.xml-cml.org/schema" width="376.462" height="243.024" x="0" y="0" font-family="sans-serif" stroke="rgb(0,0,0)" stroke-width="1"  stroke-linecap="round">
<rect x="0%" y="0%" width="100%" height="100%" stroke-width="0" fill="rgb(255,255,255)"  />
<line x1="178.3" y1="142.8" x2="213.0" y2="122.7" stroke="rgb(0,0,0)"  stroke-width="1.0"/>
<line x1="296.2" y1="190.3" x2="258.2" y2="178.3" stroke="rgb(0,0,0)"  stroke-width="1.0"/>
<line x1="321.9" y1="198.9" x2="296.2" y2="190.3" stroke="rgb(0,0,0)"  stroke-width="1.0"/>
<line x1="320.6" y1="202.9" x2="294.9" y2="194.3" stroke="rgb(0,0,0)"  stroke-width="1.0"/>
<line x1="323.2" y1="194.9" x2="297.5" y2="186.4" stroke="rgb(0,0,0)"  stroke-width="1.0"/>
<line x1="145.1" y1="120.1" x2="179.8" y2="140.2" stroke="rgb(0,0,0)"  stroke-width="1.0"/>
<line x1="142.1" y1="125.3" x2="176.8" y2="145.4" stroke="rgb(0,0,0)"  stroke-width="1.0"/>
<line x1="258.2" y1="178.3" x2="252.5" y2="151.7" stroke="rgb(0,0,0)"  stroke-width="1.0"/>
<line x1="108.9" y1="142.8" x2="143.6" y2="122.7" stroke="rgb(0,0,0)"  stroke-width="1.0"/>
<line x1="213.0" y1="122.7" x2="216.0" y2="96.1" stroke="rgb(0,0,0)"  stroke-width="1.0"/>
<line x1="220.9" y1="117.6" x2="222.9" y2="98.8" stroke="rgb(0,0,0)"  stroke-width="1.0"/>
<line x1="230.2" y1="80.2" x2="256.4" y2="74.7" stroke="rgb(0,0,0)"  stroke-width="1.0"/>
<line x1="256.4" y1="74.7" x2="276.4" y2="109.4" stroke="rgb(0,0,0)"  stroke-width="1.0"/>
<line x1="276.4" y1="109.4" x2="258.4" y2="129.3" stroke="rgb(0,0,0)"  stroke-width="1.0"/>
<line x1="237.8" y1="133.7" x2="213.0" y2="122.7" stroke="rgb(0,0,0)"  stroke-width="1.0"/>
<line x1="108.9" y1="142.8" x2="74.2" y2="122.7" stroke="rgb(0,0,0)"  stroke-width="1.0"/>
<line x1="100.1" y1="146.0" x2="75.8" y2="132.0" stroke="rgb(0,0,0)"  stroke-width="1.0"/>
<line x1="74.2" y1="122.7" x2="40.0" y2="142.8" stroke="rgb(0,0,0)"  stroke-width="1.0"/>
<line x1="40.0" y1="142.8" x2="40.0" y2="182.8" stroke="rgb(0,0,0)"  stroke-width="1.0"/>
<line x1="47.2" y1="148.8" x2="47.2" y2="176.8" stroke="rgb(0,0,0)"  stroke-width="1.0"/>
<line x1="40.0" y1="182.8" x2="74.2" y2="202.8" stroke="rgb(0,0,0)"  stroke-width="1.0"/>
<line x1="74.2" y1="202.8" x2="108.9" y2="182.8" stroke="rgb(0,0,0)"  stroke-width="1.0"/>
<line x1="75.8" y1="193.6" x2="100.1" y2="179.5" stroke="rgb(0,0,0)"  stroke-width="1.0"/>
<line x1="108.9" y1="182.8" x2="108.9" y2="142.8" stroke="rgb(0,0,0)"  stroke-width="1.0"/>
<line x1="316.4" y1="109.4" x2="336.5" y2="74.7" stroke="rgb(0,0,0)"  stroke-width="1.0"/>
<line x1="336.5" y1="74.7" x2="316.4" y2="40.0" stroke="rgb(0,0,0)"  stroke-width="1.0"/>
<line x1="327.2" y1="73.1" x2="313.2" y2="48.8" stroke="rgb(0,0,0)"  stroke-width="1.0"/>
<line x1="316.4" y1="40.0" x2="276.4" y2="40.0" stroke="rgb(0,0,0)"  stroke-width="1.0"/>
<line x1="276.4" y1="40.0" x2="256.4" y2="74.7" stroke="rgb(0,0,0)"  stroke-width="1.0"/>
<line x1="279.7" y1="48.8" x2="265.6" y2="73.1" stroke="rgb(0,0,0)"  stroke-width="1.0"/>
<line x1="276.4" y1="109.4" x2="316.4" y2="109.4" stroke="rgb(0,0,0)"  stroke-width="1.0"/>
<line x1="282.4" y1="102.2" x2="310.4" y2="102.2" stroke="rgb(0,0,0)"  stroke-width="1.0"/>
<text x="211.473065" y="90.928731" fill="rgb(12,12,255)"  stroke="rgb(12,12,255)" stroke-width="1" font-size="16" >N</text>
<text x="243.725447" y="146.971068" fill="rgb(12,12,255)"  stroke="rgb(12,12,255)" stroke-width="1" font-size="16" >N</text>
<text x="328.238048" y="211.024308" fill="rgb(102,102,102)"  stroke="rgb(102,102,102)" stroke-width="1" font-size="16" >CH</text>
<text font-size="18.000000" fill ="black" font-family="sans-serif"
x="10.000000" y="20.000000" ></text>
<title> - OBDepict</title>
</svg>
