<?xml version="1.0"?>
<svg xmlns="http://www.w3.org/2000/svg"
xmlns:xlink="http://www.w3.org/1999/xlink" xmlns:cml="http://www.xml-cml.org/schema" width="540.765" height="253.18" x="0" y="0" font-family="sans-serif" stroke="rgb(0,0,0)" stroke-width="1"  stroke-linecap="round">
<rect x="0%" y="0%" width="100%" height="100%" stroke-width="0" fill="rgb(255,255,255)"  />
<line x1="226.9" y1="155.4" x2="240.3" y2="178.5" stroke="rgb(0,0,0)"  stroke-width="1.0"/>
<line x1="180.2" y1="144.2" x2="207.3" y2="144.2" stroke="rgb(0,0,0)"  stroke-width="1.0"/>
<line x1="460.7" y1="213.2" x2="420.6" y2="213.2" stroke="rgb(0,0,0)"  stroke-width="1.0"/>
<line x1="487.8" y1="213.2" x2="460.7" y2="213.2" stroke="rgb(0,0,0)"  stroke-width="1.0"/>
<line x1="487.8" y1="217.4" x2="460.7" y2="217.4" stroke="rgb(0,0,0)"  stroke-width="1.0"/>
<line x1="487.8" y1="209.0" x2="460.7" y2="209.0" stroke="rgb(0,0,0)"  stroke-width="1.0"/>
<line x1="280.4" y1="178.5" x2="240.3" y2="178.5" stroke="rgb(0,0,0)"  stroke-width="1.0"/>
<line x1="224.2" y1="200.4" x2="237.7" y2="177.0" stroke="rgb(0,0,0)"  stroke-width="1.0"/>
<line x1="229.4" y1="203.4" x2="242.9" y2="180.0" stroke="rgb(0,0,0)"  stroke-width="1.0"/>
<line x1="173.7" y1="85.9" x2="160.2" y2="109.0" stroke="rgb(0,0,0)"  stroke-width="1.0"/>
<line x1="420.6" y1="213.2" x2="407.1" y2="189.7" stroke="rgb(0,0,0)"  stroke-width="1.0"/>
<line x1="387.6" y1="178.5" x2="360.5" y2="178.5" stroke="rgb(0,0,0)"  stroke-width="1.0"/>
<line x1="73.0" y1="144.2" x2="100.1" y2="144.2" stroke="rgb(0,0,0)"  stroke-width="1.0"/>
<line x1="166.7" y1="51.3" x2="173.7" y2="63.5" stroke="rgb(0,0,0)"  stroke-width="1.0"/>
<line x1="46.6" y1="167.2" x2="53.5" y2="155.4" stroke="rgb(0,0,0)"  stroke-width="1.0"/>
<line x1="180.2" y1="144.2" x2="160.2" y2="109.0" stroke="rgb(0,0,0)"  stroke-width="1.0"/>
<line x1="160.2" y1="109.0" x2="120.1" y2="109.0" stroke="rgb(0,0,0)"  stroke-width="1.0"/>
<line x1="154.2" y1="116.2" x2="126.1" y2="116.2" stroke="rgb(0,0,0)"  stroke-width="1.0"/>
<line x1="120.1" y1="109.0" x2="100.1" y2="144.2" stroke="rgb(0,0,0)"  stroke-width="1.0"/>
<line x1="100.1" y1="144.2" x2="120.1" y2="178.5" stroke="rgb(0,0,0)"  stroke-width="1.0"/>
<line x1="109.3" y1="145.7" x2="123.3" y2="169.6" stroke="rgb(0,0,0)"  stroke-width="1.0"/>
<line x1="120.1" y1="178.5" x2="160.2" y2="178.5" stroke="rgb(0,0,0)"  stroke-width="1.0"/>
<line x1="160.2" y1="178.5" x2="180.2" y2="144.2" stroke="rgb(0,0,0)"  stroke-width="1.0"/>
<line x1="157.0" y1="169.6" x2="171.0" y2="145.7" stroke="rgb(0,0,0)"  stroke-width="1.0"/>
<line x1="280.4" y1="178.5" x2="300.4" y2="213.2" stroke="rgb(0,0,0)"  stroke-width="1.0"/>
<line x1="289.6" y1="180.1" x2="303.7" y2="204.4" stroke="rgb(0,0,0)"  stroke-width="1.0"/>
<line x1="300.4" y1="213.2" x2="340.5" y2="213.2" stroke="rgb(0,0,0)"  stroke-width="1.0"/>
<line x1="340.5" y1="213.2" x2="360.5" y2="178.5" stroke="rgb(0,0,0)"  stroke-width="1.0"/>
<line x1="337.3" y1="204.4" x2="351.3" y2="180.1" stroke="rgb(0,0,0)"  stroke-width="1.0"/>
<line x1="360.5" y1="178.5" x2="340.5" y2="144.2" stroke="rgb(0,0,0)"  stroke-width="1.0"/>
<line x1="340.5" y1="144.2" x2="300.4" y2="144.2" stroke="rgb(0,0,0)"  stroke-width="1.0"/>
<line x1="334.5" y1="151.4" x2="306.4" y2="151.4" stroke="rgb(0,0,0)"  stroke-width="1.0"/>
<line x1="300.4" y1="144.2" x2="280.4" y2="178.5" stroke="rgb(0,0,0)"  stroke-width="1.0"/>
<text x="214.299436" y="152.173007" fill="rgb(12,12,255)"  stroke="rgb(12,12,255)" stroke-width="1" font-size="16" >N</text>
<text x="214.299436" y="136.173007" fill="rgb(12,12,255)"  stroke="rgb(12,12,255)" stroke-width="1" font-size="16" >H</text>
<text x="494.765224" y="221.179733" fill="rgb(102,102,102)"  stroke="rgb(102,102,102)" stroke-width="1" font-size="16" >CH</text>
<text x="214.299436" y="221.179733" fill="rgb(255,12,12)"  stroke="rgb(255,12,12)" stroke-width="1" font-size="16" >O</text>
<text x="174.232894" y="82.724336" fill="rgb(255,12,12)"  stroke="rgb(255,12,12)" stroke-width="1" font-size="16" >O</text>
<text x="394.598871" y="186.455397" fill="rgb(255,12,12)"  stroke="rgb(255,12,12)" stroke-width="1" font-size="16" >O</text>
<text x="54.033271" y="152.173007" fill="rgb(255,12,12)"  stroke="rgb(255,12,12)" stroke-width="1" font-size="16" >O</text>
<text x="134.199624" y="48.000000" fill="rgb(102,102,102)"  stroke="rgb(102,102,102)" stroke-width="1" font-size="16" >H</text>
<text x="146.199624" y="51.680000" fill="rgb(102,102,102)"  stroke="rgb(102,102,102)" stroke-width="1" font-size="13" >3</text>
<text x="152.699624" y="48.000000" fill="rgb(102,102,102)"  stroke="rgb(102,102,102)" stroke-width="1" font-size="16" >C</text>
<text x="14.000000" y="186.455397" fill="rgb(102,102,102)"  stroke="rgb(102,102,102)" stroke-width="1" font-size="16" >H</text>
<text x="26.000000" y="190.135397" fill="rgb(102,102,102)"  stroke="rgb(102,102,102)" stroke-width="1" font-size="13" >3</text>
<text x="32.500000" y="186.455397" fill="rgb(102,102,102)"  stroke="rgb(102,102,102)" stroke-width="1" font-size="16" >C</text>
<text font-size="18.000000" fill ="black" font-family="sans-serif"
x="10.000000" y="20.000000" ></text>
<title> - OBDepict</title>
</svg>
