<?xml version="1.0"?>
<svg xmlns="http://www.w3.org/2000/svg"
xmlns:xlink="http://www.w3.org/1999/xlink" xmlns:cml="http://www.xml-cml.org/schema" width="220.984" height="292.217" x="0" y="0" font-family="sans-serif" stroke="rgb(0,0,0)" stroke-width="1"  stroke-linecap="round">
<rect x="0%" y="0%" width="100%" height="100%" stroke-width="0" fill="rgb(255,255,255)"  />
<line x1="108.5" y1="133.1" x2="90.1" y2="114.4" stroke="rgb(0,0,0)"  stroke-width="1.0"/>
<line x1="108.5" y1="133.1" x2="145.2" y2="111.8" stroke="rgb(0,0,0)"  stroke-width="1.0"/>
<line x1="74.5" y1="153.1" x2="51.2" y2="139.2" stroke="rgb(0,0,0)"  stroke-width="1.0"/>
<line x1="143.5" y1="153.1" x2="167.6" y2="139.1" stroke="rgb(0,0,0)"  stroke-width="1.0"/>
<line x1="84.3" y1="92.6" x2="91.0" y2="67.9" stroke="rgb(0,0,0)"  stroke-width="1.0"/>
<line x1="145.2" y1="111.8" x2="169.9" y2="96.7" stroke="rgb(0,0,0)"  stroke-width="1.0"/>
<line x1="143.0" y1="108.2" x2="167.7" y2="93.1" stroke="rgb(0,0,0)"  stroke-width="1.0"/>
<line x1="147.4" y1="115.4" x2="172.1" y2="100.3" stroke="rgb(0,0,0)"  stroke-width="1.0"/>
<line x1="91.0" y1="67.9" x2="116.7" y2="60.7" stroke="rgb(0,0,0)"  stroke-width="1.0"/>
<line x1="88.9" y1="70.0" x2="70.2" y2="51.3" stroke="rgb(0,0,0)"  stroke-width="1.0"/>
<line x1="93.2" y1="65.8" x2="74.4" y2="47.1" stroke="rgb(0,0,0)"  stroke-width="1.0"/>
<line x1="109.6" y1="225.4" x2="109.6" y2="239.2" stroke="rgb(0,0,0)"  stroke-width="1.0"/>
<line x1="108.5" y1="133.1" x2="143.5" y2="153.1" stroke="rgb(0,0,0)"  stroke-width="1.0"/>
<line x1="143.5" y1="153.1" x2="143.5" y2="192.7" stroke="rgb(0,0,0)"  stroke-width="1.0"/>
<line x1="143.5" y1="192.7" x2="120.8" y2="205.9" stroke="rgb(0,0,0)"  stroke-width="1.0"/>
<line x1="98.3" y1="205.9" x2="75.2" y2="192.7" stroke="rgb(0,0,0)"  stroke-width="1.0"/>
<line x1="75.2" y1="192.7" x2="74.5" y2="153.1" stroke="rgb(0,0,0)"  stroke-width="1.0"/>
<line x1="74.5" y1="153.1" x2="108.5" y2="133.1" stroke="rgb(0,0,0)"  stroke-width="1.0"/>
<text x="74.936290" y="113.167529" fill="rgb(255,12,12)"  stroke="rgb(255,12,12)" stroke-width="1" font-size="16" >O</text>
<text x="14.000000" y="140.521027" fill="rgb(102,102,102)"  stroke="rgb(102,102,102)" stroke-width="1" font-size="16" >H</text>
<text x="26.000000" y="144.201027" fill="rgb(102,102,102)"  stroke="rgb(102,102,102)" stroke-width="1" font-size="13" >3</text>
<text x="32.500000" y="140.521027" fill="rgb(102,102,102)"  stroke="rgb(102,102,102)" stroke-width="1" font-size="16" >C</text>
<text x="174.786359" y="140.521027" fill="rgb(102,102,102)"  stroke="rgb(102,102,102)" stroke-width="1" font-size="16" >CH</text>
<text x="198.786359" y="144.201027" fill="rgb(102,102,102)"  stroke="rgb(102,102,102)" stroke-width="1" font-size="13" >3</text>
<text x="174.983504" y="97.932059" fill="rgb(102,102,102)"  stroke="rgb(102,102,102)" stroke-width="1" font-size="16" >CH</text>
<text x="103.576275" y="220.379557" fill="rgb(12,12,255)"  stroke="rgb(12,12,255)" stroke-width="1" font-size="16" >N</text>
<text x="125.215672" y="65.254338" fill="rgb(102,102,102)"  stroke="rgb(102,102,102)" stroke-width="1" font-size="16" >CH</text>
<text x="149.215672" y="68.934338" fill="rgb(102,102,102)"  stroke="rgb(102,102,102)" stroke-width="1" font-size="13" >3</text>
<text x="57.132666" y="48.000000" fill="rgb(255,12,12)"  stroke="rgb(255,12,12)" stroke-width="1" font-size="16" >O</text>
<text x="105.576275" y="260.217275" fill="rgb(102,102,102)"  stroke="rgb(102,102,102)" stroke-width="1" font-size="16" >CH</text>
<text x="129.576275" y="263.897275" fill="rgb(102,102,102)"  stroke="rgb(102,102,102)" stroke-width="1" font-size="13" >3</text>
<text font-size="18.000000" fill ="black" font-family="sans-serif"
x="10.000000" y="20.000000" ></text>
<title> - OBDepict</title>
</svg>
