<?xml version="1.0"?>
<svg xmlns="http://www.w3.org/2000/svg"
xmlns:xlink="http://www.w3.org/1999/xlink" xmlns:cml="http://www.xml-cml.org/schema" width="242.546" height="618.541" x="0" y="0" font-family="sans-serif" stroke="rgb(0,0,0)" stroke-width="1"  stroke-linecap="round">
<rect x="0%" y="0%" width="100%" height="100%" stroke-width="0" fill="rgb(255,255,255)"  />
<line x1="91.5" y1="370.2" x2="103.8" y2="408.1" stroke="rgb(0,0,0)"  stroke-width="1.0"/>
<line x1="118.3" y1="340.5" x2="91.5" y2="370.2" stroke="rgb(0,0,0)"  stroke-width="1.0"/>
<line x1="134.7" y1="167.0" x2="147.0" y2="205.0" stroke="rgb(0,0,0)"  stroke-width="1.0"/>
<line x1="95.5" y1="498.5" x2="103.8" y2="472.9" stroke="rgb(0,0,0)"  stroke-width="1.0"/>
<line x1="175.9" y1="69.7" x2="149.0" y2="99.4" stroke="rgb(0,0,0)"  stroke-width="1.0"/>
<line x1="193.9" y1="49.7" x2="175.9" y2="69.7" stroke="rgb(0,0,0)"  stroke-width="1.0"/>
<line x1="197.0" y1="52.5" x2="179.0" y2="72.5" stroke="rgb(0,0,0)"  stroke-width="1.0"/>
<line x1="190.7" y1="46.9" x2="172.8" y2="66.9" stroke="rgb(0,0,0)"  stroke-width="1.0"/>
<line x1="109.9" y1="314.9" x2="118.3" y2="340.5" stroke="rgb(0,0,0)"  stroke-width="1.0"/>
<line x1="165.6" y1="407.1" x2="143.7" y2="423.1" stroke="rgb(0,0,0)"  stroke-width="1.0"/>
<line x1="162.0" y1="402.3" x2="140.2" y2="418.2" stroke="rgb(0,0,0)"  stroke-width="1.0"/>
<line x1="132.7" y1="272.6" x2="114.5" y2="292.8" stroke="rgb(0,0,0)"  stroke-width="1.0"/>
<line x1="144.0" y1="349.0" x2="117.7" y2="343.4" stroke="rgb(0,0,0)"  stroke-width="1.0"/>
<line x1="145.2" y1="343.1" x2="119.0" y2="337.5" stroke="rgb(0,0,0)"  stroke-width="1.0"/>
<line x1="108.9" y1="158.5" x2="135.3" y2="164.1" stroke="rgb(0,0,0)"  stroke-width="1.0"/>
<line x1="107.6" y1="164.4" x2="134.1" y2="169.9" stroke="rgb(0,0,0)"  stroke-width="1.0"/>
<line x1="152.8" y1="147.0" x2="134.7" y2="167.0" stroke="rgb(0,0,0)"  stroke-width="1.0"/>
<line x1="149.0" y1="99.4" x2="157.5" y2="125.0" stroke="rgb(0,0,0)"  stroke-width="1.0"/>
<line x1="118.3" y1="540.6" x2="100.2" y2="520.5" stroke="rgb(0,0,0)"  stroke-width="1.0"/>
<line x1="52.3" y1="519.2" x2="78.8" y2="513.6" stroke="rgb(0,0,0)"  stroke-width="1.0"/>
<line x1="44.0" y1="545.0" x2="52.3" y2="519.2" stroke="rgb(0,0,0)"  stroke-width="1.0"/>
<line x1="109.9" y1="566.2" x2="118.3" y2="540.6" stroke="rgb(0,0,0)"  stroke-width="1.0"/>
<line x1="129.4" y1="464.7" x2="103.8" y2="472.9" stroke="rgb(0,0,0)"  stroke-width="1.0"/>
<line x1="125.3" y1="458.4" x2="107.3" y2="464.2" stroke="rgb(0,0,0)"  stroke-width="1.0"/>
<line x1="103.8" y1="472.9" x2="88.0" y2="451.2" stroke="rgb(0,0,0)"  stroke-width="1.0"/>
<line x1="88.0" y1="430.1" x2="103.8" y2="408.1" stroke="rgb(0,0,0)"  stroke-width="1.0"/>
<line x1="103.8" y1="408.1" x2="142.0" y2="420.6" stroke="rgb(0,0,0)"  stroke-width="1.0"/>
<line x1="142.0" y1="420.6" x2="142.0" y2="447.6" stroke="rgb(0,0,0)"  stroke-width="1.0"/>
<line x1="147.0" y1="205.0" x2="186.2" y2="213.3" stroke="rgb(0,0,0)"  stroke-width="1.0"/>
<line x1="151.4" y1="213.3" x2="178.8" y2="219.1" stroke="rgb(0,0,0)"  stroke-width="1.0"/>
<line x1="186.2" y1="213.3" x2="198.5" y2="251.2" stroke="rgb(0,0,0)"  stroke-width="1.0"/>
<line x1="198.5" y1="251.2" x2="171.9" y2="281.1" stroke="rgb(0,0,0)"  stroke-width="1.0"/>
<line x1="189.1" y1="250.9" x2="170.5" y2="271.8" stroke="rgb(0,0,0)"  stroke-width="1.0"/>
<line x1="171.9" y1="281.1" x2="132.7" y2="272.6" stroke="rgb(0,0,0)"  stroke-width="1.0"/>
<line x1="132.7" y1="272.6" x2="120.4" y2="234.7" stroke="rgb(0,0,0)"  stroke-width="1.0"/>
<line x1="137.7" y1="264.7" x2="129.1" y2="238.1" stroke="rgb(0,0,0)"  stroke-width="1.0"/>
<line x1="120.4" y1="234.7" x2="147.0" y2="205.0" stroke="rgb(0,0,0)"  stroke-width="1.0"/>
<text x="135.969790" y="468.619318" fill="rgb(12,12,255)"  stroke="rgb(12,12,255)" stroke-width="1" font-size="16" >N</text>
<text x="74.384267" y="448.626098" fill="rgb(178,178,0)"  stroke="rgb(178,178,0)" stroke-width="1" font-size="16" >S</text>
<text x="85.484604" y="518.895887" fill="rgb(12,12,255)"  stroke="rgb(12,12,255)" stroke-width="1" font-size="16" >N</text>
<text x="196.546191" y="48.000000" fill="rgb(102,102,102)"  stroke="rgb(102,102,102)" stroke-width="1" font-size="16" >CH</text>
<text x="87.830625" y="310.512292" fill="rgb(12,12,255)"  stroke="rgb(12,12,255)" stroke-width="1" font-size="16" >HN</text>
<text x="168.281085" y="405.010701" fill="rgb(255,12,12)"  stroke="rgb(255,12,12)" stroke-width="1" font-size="16" >O</text>
<text x="151.315229" y="356.742672" fill="rgb(255,12,12)"  stroke="rgb(255,12,12)" stroke-width="1" font-size="16" >O</text>
<text x="89.525942" y="166.731880" fill="rgb(255,12,12)"  stroke="rgb(255,12,12)" stroke-width="1" font-size="16" >O</text>
<text x="155.560332" y="145.331712" fill="rgb(12,12,255)"  stroke="rgb(12,12,255)" stroke-width="1" font-size="16" >NH</text>
<text x="14.000000" y="565.339735" fill="rgb(102,102,102)"  stroke="rgb(102,102,102)" stroke-width="1" font-size="16" >H</text>
<text x="26.000000" y="569.019735" fill="rgb(102,102,102)"  stroke="rgb(102,102,102)" stroke-width="1" font-size="13" >3</text>
<text x="32.500000" y="565.339735" fill="rgb(102,102,102)"  stroke="rgb(102,102,102)" stroke-width="1" font-size="16" >C</text>
<text x="79.830625" y="586.540990" fill="rgb(102,102,102)"  stroke="rgb(102,102,102)" stroke-width="1" font-size="16" >H</text>
<text x="91.830625" y="590.220990" fill="rgb(102,102,102)"  stroke="rgb(102,102,102)" stroke-width="1" font-size="13" >3</text>
<text x="98.330625" y="586.540990" fill="rgb(102,102,102)"  stroke="rgb(102,102,102)" stroke-width="1" font-size="16" >C</text>
<text font-size="18.000000" fill ="black" font-family="sans-serif"
x="10.000000" y="20.000000" ></text>
<title> - OBDepict</title>
</svg>
