<?xml version="1.0"?>
<svg xmlns="http://www.w3.org/2000/svg"
xmlns:xlink="http://www.w3.org/1999/xlink" xmlns:cml="http://www.xml-cml.org/schema" width="505.874" height="348.526" x="0" y="0" font-family="sans-serif" stroke="rgb(0,0,0)" stroke-width="1"  stroke-linecap="round">
<rect x="0%" y="0%" width="100%" height="100%" stroke-width="0" fill="rgb(255,255,255)"  />
<line x1="167.9" y1="144.8" x2="147.8" y2="179.8" stroke="rgb(0,0,0)"  stroke-width="1.0"/>
<line x1="162.7" y1="141.8" x2="142.6" y2="176.8" stroke="rgb(0,0,0)"  stroke-width="1.0"/>
<line x1="47.8" y1="269.0" x2="55.8" y2="229.7" stroke="rgb(0,0,0)"  stroke-width="1.0"/>
<line x1="42.5" y1="295.8" x2="47.8" y2="269.0" stroke="rgb(0,0,0)"  stroke-width="1.0"/>
<line x1="38.4" y1="295.0" x2="43.7" y2="268.2" stroke="rgb(0,0,0)"  stroke-width="1.0"/>
<line x1="46.6" y1="296.6" x2="52.0" y2="269.8" stroke="rgb(0,0,0)"  stroke-width="1.0"/>
<line x1="122.3" y1="267.5" x2="122.7" y2="240.0" stroke="rgb(0,0,0)"  stroke-width="1.0"/>
<line x1="128.3" y1="267.6" x2="128.7" y2="240.1" stroke="rgb(0,0,0)"  stroke-width="1.0"/>
<line x1="92.5" y1="154.7" x2="108.3" y2="176.9" stroke="rgb(0,0,0)"  stroke-width="1.0"/>
<line x1="87.6" y1="158.2" x2="103.4" y2="180.4" stroke="rgb(0,0,0)"  stroke-width="1.0"/>
<line x1="205.3" y1="143.3" x2="165.3" y2="143.3" stroke="rgb(0,0,0)"  stroke-width="1.0"/>
<line x1="55.8" y1="229.7" x2="81.4" y2="220.9" stroke="rgb(0,0,0)"  stroke-width="1.0"/>
<line x1="313.0" y1="143.2" x2="285.5" y2="143.3" stroke="rgb(0,0,0)"  stroke-width="1.0"/>
<line x1="346.2" y1="178.0" x2="332.5" y2="154.4" stroke="rgb(0,0,0)"  stroke-width="1.0"/>
<line x1="279.0" y1="85.4" x2="265.5" y2="108.8" stroke="rgb(0,0,0)"  stroke-width="1.0"/>
<line x1="386.4" y1="177.8" x2="346.2" y2="178.0" stroke="rgb(0,0,0)"  stroke-width="1.0"/>
<line x1="272.1" y1="51.2" x2="279.0" y2="62.9" stroke="rgb(0,0,0)"  stroke-width="1.0"/>
<line x1="104.2" y1="224.3" x2="125.7" y2="240.0" stroke="rgb(0,0,0)"  stroke-width="1.0"/>
<line x1="125.7" y1="240.0" x2="147.5" y2="223.9" stroke="rgb(0,0,0)"  stroke-width="1.0"/>
<line x1="153.8" y1="203.9" x2="145.2" y2="178.3" stroke="rgb(0,0,0)"  stroke-width="1.0"/>
<line x1="145.2" y1="178.3" x2="105.8" y2="178.7" stroke="rgb(0,0,0)"  stroke-width="1.0"/>
<line x1="105.8" y1="178.7" x2="97.6" y2="204.3" stroke="rgb(0,0,0)"  stroke-width="1.0"/>
<line x1="265.5" y1="108.8" x2="285.5" y2="143.3" stroke="rgb(0,0,0)"  stroke-width="1.0"/>
<line x1="262.3" y1="117.6" x2="276.3" y2="141.8" stroke="rgb(0,0,0)"  stroke-width="1.0"/>
<line x1="285.5" y1="143.3" x2="265.9" y2="178.0" stroke="rgb(0,0,0)"  stroke-width="1.0"/>
<line x1="265.9" y1="178.0" x2="226.4" y2="178.3" stroke="rgb(0,0,0)"  stroke-width="1.0"/>
<line x1="259.8" y1="170.9" x2="232.3" y2="171.1" stroke="rgb(0,0,0)"  stroke-width="1.0"/>
<line x1="226.4" y1="178.3" x2="205.3" y2="143.3" stroke="rgb(0,0,0)"  stroke-width="1.0"/>
<line x1="205.3" y1="143.3" x2="225.3" y2="108.8" stroke="rgb(0,0,0)"  stroke-width="1.0"/>
<line x1="214.6" y1="141.8" x2="228.6" y2="117.6" stroke="rgb(0,0,0)"  stroke-width="1.0"/>
<line x1="225.3" y1="108.8" x2="265.5" y2="108.8" stroke="rgb(0,0,0)"  stroke-width="1.0"/>
<line x1="386.4" y1="177.8" x2="406.4" y2="212.0" stroke="rgb(0,0,0)"  stroke-width="1.0"/>
<line x1="395.6" y1="179.4" x2="409.6" y2="203.2" stroke="rgb(0,0,0)"  stroke-width="1.0"/>
<line x1="406.4" y1="212.0" x2="446.5" y2="211.8" stroke="rgb(0,0,0)"  stroke-width="1.0"/>
<line x1="446.5" y1="211.8" x2="465.9" y2="177.8" stroke="rgb(0,0,0)"  stroke-width="1.0"/>
<line x1="443.2" y1="203.1" x2="456.6" y2="179.5" stroke="rgb(0,0,0)"  stroke-width="1.0"/>
<line x1="465.9" y1="177.8" x2="445.7" y2="142.8" stroke="rgb(0,0,0)"  stroke-width="1.0"/>
<line x1="445.7" y1="142.8" x2="406.2" y2="143.2" stroke="rgb(0,0,0)"  stroke-width="1.0"/>
<line x1="439.8" y1="150.1" x2="412.3" y2="150.3" stroke="rgb(0,0,0)"  stroke-width="1.0"/>
<line x1="406.2" y1="143.2" x2="386.4" y2="177.8" stroke="rgb(0,0,0)"  stroke-width="1.0"/>
<text x="87.673097" y="224.681421" fill="rgb(12,12,255)"  stroke="rgb(12,12,255)" stroke-width="1" font-size="16" >N</text>
<text x="152.009050" y="224.181978" fill="rgb(178,178,0)"  stroke="rgb(178,178,0)" stroke-width="1" font-size="16" >S</text>
<text x="22.000000" y="316.525502" fill="rgb(102,102,102)"  stroke="rgb(102,102,102)" stroke-width="1" font-size="16" >HC</text>
<text x="119.176766" y="288.522779" fill="rgb(255,12,12)"  stroke="rgb(255,12,12)" stroke-width="1" font-size="16" >O</text>
<text x="76.501102" y="153.843018" fill="rgb(255,12,12)"  stroke="rgb(255,12,12)" stroke-width="1" font-size="16" >O</text>
<text x="320.025385" y="151.176092" fill="rgb(255,12,12)"  stroke="rgb(255,12,12)" stroke-width="1" font-size="16" >O</text>
<text x="279.522053" y="82.165746" fill="rgb(255,12,12)"  stroke="rgb(255,12,12)" stroke-width="1" font-size="16" >O</text>
<text x="239.520109" y="48.000000" fill="rgb(102,102,102)"  stroke="rgb(102,102,102)" stroke-width="1" font-size="16" >H</text>
<text x="251.520109" y="51.680000" fill="rgb(102,102,102)"  stroke="rgb(102,102,102)" stroke-width="1" font-size="13" >3</text>
<text x="258.020109" y="48.000000" fill="rgb(102,102,102)"  stroke="rgb(102,102,102)" stroke-width="1" font-size="16" >C</text>
<text font-size="18.000000" fill ="black" font-family="sans-serif"
x="10.000000" y="20.000000" ></text>
<title> - OBDepict</title>
</svg>
