<?xml version="1.0"?>
<svg xmlns="http://www.w3.org/2000/svg"
xmlns:xlink="http://www.w3.org/1999/xlink" xmlns:cml="http://www.xml-cml.org/schema" width="332.323" height="319.172" x="0" y="0" font-family="sans-serif" stroke="rgb(0,0,0)" stroke-width="1"  stroke-linecap="round">
<rect x="0%" y="0%" width="100%" height="100%" stroke-width="0" fill="rgb(255,255,255)"  />
<line x1="201.2" y1="199.3" x2="162.9" y2="211.6" stroke="rgb(0,0,0)"  stroke-width="1.0"/>
<line x1="199.3" y1="193.6" x2="161.1" y2="205.9" stroke="rgb(0,0,0)"  stroke-width="1.0"/>
<line x1="50.7" y1="157.2" x2="59.2" y2="196.4" stroke="rgb(0,0,0)"  stroke-width="1.0"/>
<line x1="43.5" y1="130.8" x2="50.7" y2="157.2" stroke="rgb(0,0,0)"  stroke-width="1.0"/>
<line x1="47.5" y1="129.7" x2="54.8" y2="156.0" stroke="rgb(0,0,0)"  stroke-width="1.0"/>
<line x1="39.4" y1="132.0" x2="46.7" y2="158.3" stroke="rgb(0,0,0)"  stroke-width="1.0"/>
<line x1="91.2" y1="266.9" x2="107.2" y2="245.2" stroke="rgb(0,0,0)"  stroke-width="1.0"/>
<line x1="96.0" y1="270.5" x2="112.0" y2="248.8" stroke="rgb(0,0,0)"  stroke-width="1.0"/>
<line x1="132.4" y1="158.0" x2="132.6" y2="185.0" stroke="rgb(0,0,0)"  stroke-width="1.0"/>
<line x1="126.4" y1="158.0" x2="126.6" y2="185.1" stroke="rgb(0,0,0)"  stroke-width="1.0"/>
<line x1="208.6" y1="157.6" x2="200.3" y2="196.4" stroke="rgb(0,0,0)"  stroke-width="1.0"/>
<line x1="59.2" y1="196.4" x2="84.7" y2="204.7" stroke="rgb(0,0,0)"  stroke-width="1.0"/>
<line x1="279.9" y1="97.7" x2="254.3" y2="105.6" stroke="rgb(0,0,0)"  stroke-width="1.0"/>
<line x1="230.7" y1="52.7" x2="225.1" y2="78.9" stroke="rgb(0,0,0)"  stroke-width="1.0"/>
<line x1="107.6" y1="201.1" x2="129.6" y2="185.1" stroke="rgb(0,0,0)"  stroke-width="1.0"/>
<line x1="129.6" y1="185.1" x2="162.0" y2="208.8" stroke="rgb(0,0,0)"  stroke-width="1.0"/>
<line x1="162.0" y1="208.8" x2="153.7" y2="234.6" stroke="rgb(0,0,0)"  stroke-width="1.0"/>
<line x1="136.7" y1="247.0" x2="109.6" y2="247.0" stroke="rgb(0,0,0)"  stroke-width="1.0"/>
<line x1="109.6" y1="247.0" x2="101.1" y2="221.1" stroke="rgb(0,0,0)"  stroke-width="1.0"/>
<line x1="254.3" y1="105.6" x2="225.1" y2="78.9" stroke="rgb(0,0,0)"  stroke-width="1.0"/>
<line x1="245.0" y1="106.8" x2="224.7" y2="88.2" stroke="rgb(0,0,0)"  stroke-width="1.0"/>
<line x1="225.1" y1="78.9" x2="186.9" y2="91.4" stroke="rgb(0,0,0)"  stroke-width="1.0"/>
<line x1="186.9" y1="91.4" x2="178.8" y2="130.2" stroke="rgb(0,0,0)"  stroke-width="1.0"/>
<line x1="192.7" y1="98.7" x2="187.1" y2="125.8" stroke="rgb(0,0,0)"  stroke-width="1.0"/>
<line x1="178.8" y1="130.2" x2="208.6" y2="157.6" stroke="rgb(0,0,0)"  stroke-width="1.0"/>
<line x1="208.6" y1="157.6" x2="246.2" y2="144.4" stroke="rgb(0,0,0)"  stroke-width="1.0"/>
<line x1="211.8" y1="148.8" x2="238.1" y2="139.6" stroke="rgb(0,0,0)"  stroke-width="1.0"/>
<line x1="246.2" y1="144.4" x2="254.3" y2="105.6" stroke="rgb(0,0,0)"  stroke-width="1.0"/>
<text x="91.062028" y="216.755223" fill="rgb(12,12,255)"  stroke="rgb(12,12,255)" stroke-width="1" font-size="16" >N</text>
<text x="143.665857" y="254.997526" fill="rgb(178,178,0)"  stroke="rgb(178,178,0)" stroke-width="1" font-size="16" >S</text>
<text x="22.000000" y="126.307752" fill="rgb(102,102,102)"  stroke="rgb(102,102,102)" stroke-width="1" font-size="16" >HC</text>
<text x="79.928685" y="287.172401" fill="rgb(255,12,12)"  stroke="rgb(255,12,12)" stroke-width="1" font-size="16" >O</text>
<text x="123.232041" y="153.018051" fill="rgb(255,12,12)"  stroke="rgb(255,12,12)" stroke-width="1" font-size="16" >O</text>
<text x="286.323358" y="101.819260" fill="rgb(165,40,40)"  stroke="rgb(165,40,40)" stroke-width="1" font-size="16" >Br</text>
<text x="227.438184" y="48.000000" fill="rgb(255,12,12)"  stroke="rgb(255,12,12)" stroke-width="1" font-size="16" >OH</text>
<text font-size="18.000000" fill ="black" font-family="sans-serif"
x="10.000000" y="20.000000" ></text>
<title> - OBDepict</title>
</svg>
