<?xml version="1.0"?>
<svg xmlns="http://www.w3.org/2000/svg"
xmlns:xlink="http://www.w3.org/1999/xlink" xmlns:cml="http://www.xml-cml.org/schema" width="330.869" height="279.055" x="0" y="0" font-family="sans-serif" stroke="rgb(0,0,0)" stroke-width="1"  stroke-linecap="round">
<rect x="0%" y="0%" width="100%" height="100%" stroke-width="0" fill="rgb(255,255,255)"  />
<line x1="210.8" y1="169.7" x2="170.8" y2="169.7" stroke="rgb(0,0,0)"  stroke-width="1.0"/>
<line x1="132.7" y1="69.6" x2="159.4" y2="99.2" stroke="rgb(0,0,0)"  stroke-width="1.0"/>
<line x1="114.8" y1="49.7" x2="132.7" y2="69.6" stroke="rgb(0,0,0)"  stroke-width="1.0"/>
<line x1="117.9" y1="46.8" x2="135.9" y2="66.8" stroke="rgb(0,0,0)"  stroke-width="1.0"/>
<line x1="111.6" y1="52.5" x2="129.6" y2="72.4" stroke="rgb(0,0,0)"  stroke-width="1.0"/>
<line x1="159.4" y1="99.2" x2="151.3" y2="124.8" stroke="rgb(0,0,0)"  stroke-width="1.0"/>
<line x1="217.3" y1="227.8" x2="230.8" y2="204.4" stroke="rgb(0,0,0)"  stroke-width="1.0"/>
<line x1="170.8" y1="169.7" x2="155.1" y2="191.3" stroke="rgb(0,0,0)"  stroke-width="1.0"/>
<line x1="161.4" y1="170.3" x2="150.5" y2="185.4" stroke="rgb(0,0,0)"  stroke-width="1.0"/>
<line x1="135.0" y1="197.9" x2="109.4" y2="189.7" stroke="rgb(0,0,0)"  stroke-width="1.0"/>
<line x1="109.4" y1="189.7" x2="109.4" y2="149.6" stroke="rgb(0,0,0)"  stroke-width="1.0"/>
<line x1="109.4" y1="149.6" x2="135.1" y2="141.2" stroke="rgb(0,0,0)"  stroke-width="1.0"/>
<line x1="155.0" y1="147.8" x2="170.8" y2="169.7" stroke="rgb(0,0,0)"  stroke-width="1.0"/>
<line x1="210.8" y1="169.7" x2="230.8" y2="204.4" stroke="rgb(0,0,0)"  stroke-width="1.0"/>
<line x1="220.0" y1="171.3" x2="234.1" y2="195.6" stroke="rgb(0,0,0)"  stroke-width="1.0"/>
<line x1="230.8" y1="204.4" x2="270.9" y2="204.4" stroke="rgb(0,0,0)"  stroke-width="1.0"/>
<line x1="270.9" y1="204.4" x2="290.9" y2="169.7" stroke="rgb(0,0,0)"  stroke-width="1.0"/>
<line x1="267.6" y1="195.6" x2="281.6" y2="171.3" stroke="rgb(0,0,0)"  stroke-width="1.0"/>
<line x1="290.9" y1="169.7" x2="270.9" y2="135.0" stroke="rgb(0,0,0)"  stroke-width="1.0"/>
<line x1="270.9" y1="135.0" x2="230.8" y2="135.0" stroke="rgb(0,0,0)"  stroke-width="1.0"/>
<line x1="264.9" y1="142.2" x2="236.8" y2="142.2" stroke="rgb(0,0,0)"  stroke-width="1.0"/>
<line x1="230.8" y1="135.0" x2="210.8" y2="169.7" stroke="rgb(0,0,0)"  stroke-width="1.0"/>
<line x1="74.7" y1="129.6" x2="40.0" y2="149.6" stroke="rgb(0,0,0)"  stroke-width="1.0"/>
<line x1="40.0" y1="149.6" x2="40.0" y2="189.7" stroke="rgb(0,0,0)"  stroke-width="1.0"/>
<line x1="47.2" y1="155.6" x2="47.2" y2="183.7" stroke="rgb(0,0,0)"  stroke-width="1.0"/>
<line x1="40.0" y1="189.7" x2="74.7" y2="209.7" stroke="rgb(0,0,0)"  stroke-width="1.0"/>
<line x1="74.7" y1="209.7" x2="109.4" y2="189.7" stroke="rgb(0,0,0)"  stroke-width="1.0"/>
<line x1="76.3" y1="200.5" x2="100.6" y2="186.4" stroke="rgb(0,0,0)"  stroke-width="1.0"/>
<line x1="109.4" y1="149.6" x2="74.7" y2="129.6" stroke="rgb(0,0,0)"  stroke-width="1.0"/>
<line x1="100.6" y1="152.9" x2="76.3" y2="138.9" stroke="rgb(0,0,0)"  stroke-width="1.0"/>
<text x="141.419676" y="209.913405" fill="rgb(12,12,255)"  stroke="rgb(12,12,255)" stroke-width="1" font-size="16" >N</text>
<text x="141.419676" y="145.197552" fill="rgb(12,12,255)"  stroke="rgb(12,12,255)" stroke-width="1" font-size="16" >N</text>
<text x="88.050651" y="48.000000" fill="rgb(102,102,102)"  stroke="rgb(102,102,102)" stroke-width="1" font-size="16" >HC</text>
<text x="192.805585" y="247.054762" fill="rgb(165,40,40)"  stroke="rgb(165,40,40)" stroke-width="1" font-size="16" >Br</text>
<text font-size="18.000000" fill ="black" font-family="sans-serif"
x="10.000000" y="20.000000" ></text>
<title> - OBDepict</title>
</svg>
