<?xml version="1.0"?>
<svg xmlns="http://www.w3.org/2000/svg"
xmlns:xlink="http://www.w3.org/1999/xlink" xmlns:cml="http://www.xml-cml.org/schema" width="413.386" height="359.486" x="0" y="0" font-family="sans-serif" stroke="rgb(0,0,0)" stroke-width="1"  stroke-linecap="round">
<rect x="0%" y="0%" width="100%" height="100%" stroke-width="0" fill="rgb(255,255,255)"  />
<line x1="108.9" y1="167.8" x2="129.2" y2="185.7" stroke="rgb(0,0,0)"  stroke-width="1.0"/>
<line x1="129.2" y1="185.7" x2="166.9" y2="173.5" stroke="rgb(0,0,0)"  stroke-width="1.0"/>
<line x1="194.4" y1="239.6" x2="195.7" y2="213.1" stroke="rgb(0,0,0)"  stroke-width="1.0"/>
<line x1="336.8" y1="189.5" x2="300.2" y2="173.1" stroke="rgb(0,0,0)"  stroke-width="1.0"/>
<line x1="361.5" y1="200.4" x2="336.8" y2="189.5" stroke="rgb(0,0,0)"  stroke-width="1.0"/>
<line x1="359.8" y1="204.3" x2="335.1" y2="193.3" stroke="rgb(0,0,0)"  stroke-width="1.0"/>
<line x1="363.2" y1="196.6" x2="338.5" y2="185.7" stroke="rgb(0,0,0)"  stroke-width="1.0"/>
<line x1="46.4" y1="191.2" x2="57.2" y2="166.6" stroke="rgb(0,0,0)"  stroke-width="1.0"/>
<line x1="51.9" y1="193.6" x2="62.7" y2="169.0" stroke="rgb(0,0,0)"  stroke-width="1.0"/>
<line x1="255.7" y1="191.1" x2="231.0" y2="180.2" stroke="rgb(0,0,0)"  stroke-width="1.0"/>
<line x1="300.2" y1="173.1" x2="278.2" y2="188.8" stroke="rgb(0,0,0)"  stroke-width="1.0"/>
<line x1="251.8" y1="248.9" x2="227.7" y2="261.4" stroke="rgb(0,0,0)"  stroke-width="1.0"/>
<line x1="60.0" y1="167.8" x2="46.5" y2="144.4" stroke="rgb(0,0,0)"  stroke-width="1.0"/>
<line x1="48.8" y1="123.6" x2="67.3" y2="103.2" stroke="rgb(0,0,0)"  stroke-width="1.0"/>
<line x1="67.3" y1="103.2" x2="103.7" y2="119.6" stroke="rgb(0,0,0)"  stroke-width="1.0"/>
<line x1="69.8" y1="112.2" x2="95.2" y2="123.7" stroke="rgb(0,0,0)"  stroke-width="1.0"/>
<line x1="103.7" y1="119.6" x2="100.7" y2="146.2" stroke="rgb(0,0,0)"  stroke-width="1.0"/>
<line x1="86.5" y1="161.9" x2="60.0" y2="167.8" stroke="rgb(0,0,0)"  stroke-width="1.0"/>
<line x1="207.6" y1="193.7" x2="231.0" y2="180.2" stroke="rgb(0,0,0)"  stroke-width="1.0"/>
<line x1="231.0" y1="180.2" x2="225.5" y2="154.0" stroke="rgb(0,0,0)"  stroke-width="1.0"/>
<line x1="222.7" y1="175.8" x2="218.9" y2="157.5" stroke="rgb(0,0,0)"  stroke-width="1.0"/>
<line x1="209.8" y1="139.8" x2="196.0" y2="138.5" stroke="rgb(0,0,0)"  stroke-width="1.0"/>
<line x1="177.7" y1="149.2" x2="166.9" y2="173.5" stroke="rgb(0,0,0)"  stroke-width="1.0"/>
<line x1="183.5" y1="153.9" x2="175.9" y2="171.0" stroke="rgb(0,0,0)"  stroke-width="1.0"/>
<line x1="166.9" y1="173.5" x2="186.7" y2="191.4" stroke="rgb(0,0,0)"  stroke-width="1.0"/>
<line x1="67.3" y1="103.2" x2="63.1" y2="63.3" stroke="rgb(0,0,0)"  stroke-width="1.0"/>
<line x1="63.1" y1="63.3" x2="95.2" y2="40.0" stroke="rgb(0,0,0)"  stroke-width="1.0"/>
<line x1="72.2" y1="65.6" x2="94.6" y2="49.4" stroke="rgb(0,0,0)"  stroke-width="1.0"/>
<line x1="95.2" y1="40.0" x2="132.3" y2="56.0" stroke="rgb(0,0,0)"  stroke-width="1.0"/>
<line x1="132.3" y1="56.0" x2="136.3" y2="95.9" stroke="rgb(0,0,0)"  stroke-width="1.0"/>
<line x1="125.7" y1="62.7" x2="128.5" y2="90.6" stroke="rgb(0,0,0)"  stroke-width="1.0"/>
<line x1="136.3" y1="95.9" x2="103.7" y2="119.6" stroke="rgb(0,0,0)"  stroke-width="1.0"/>
<line x1="194.4" y1="239.6" x2="227.7" y2="261.4" stroke="rgb(0,0,0)"  stroke-width="1.0"/>
<line x1="227.7" y1="261.4" x2="225.7" y2="301.3" stroke="rgb(0,0,0)"  stroke-width="1.0"/>
<line x1="220.2" y1="267.0" x2="218.8" y2="294.9" stroke="rgb(0,0,0)"  stroke-width="1.0"/>
<line x1="225.7" y1="301.3" x2="190.4" y2="319.5" stroke="rgb(0,0,0)"  stroke-width="1.0"/>
<line x1="190.4" y1="319.5" x2="156.5" y2="298.0" stroke="rgb(0,0,0)"  stroke-width="1.0"/>
<line x1="189.2" y1="310.2" x2="165.4" y2="295.1" stroke="rgb(0,0,0)"  stroke-width="1.0"/>
<line x1="156.5" y1="298.0" x2="158.4" y2="257.6" stroke="rgb(0,0,0)"  stroke-width="1.0"/>
<line x1="158.4" y1="257.6" x2="194.4" y2="239.6" stroke="rgb(0,0,0)"  stroke-width="1.0"/>
<line x1="167.0" y1="261.4" x2="192.2" y2="248.8" stroke="rgb(0,0,0)"  stroke-width="1.0"/>
<text x="190.379755" y="208.148528" fill="rgb(12,12,255)"  stroke="rgb(12,12,255)" stroke-width="1" font-size="16" >N</text>
<text x="93.227029" y="167.114565" fill="rgb(12,12,255)"  stroke="rgb(12,12,255)" stroke-width="1" font-size="16" >N</text>
<text x="177.072493" y="145.157583" fill="rgb(12,12,255)"  stroke="rgb(12,12,255)" stroke-width="1" font-size="16" >N</text>
<text x="216.775730" y="149.149761" fill="rgb(12,12,255)"  stroke="rgb(12,12,255)" stroke-width="1" font-size="16" >N</text>
<text x="34.000000" y="141.165404" fill="rgb(178,178,0)"  stroke="rgb(178,178,0)" stroke-width="1" font-size="16" >S</text>
<text x="367.385767" y="213.694839" fill="rgb(102,102,102)"  stroke="rgb(102,102,102)" stroke-width="1" font-size="16" >CH</text>
<text x="37.992179" y="212.364113" fill="rgb(255,12,12)"  stroke="rgb(255,12,12)" stroke-width="1" font-size="16" >O</text>
<text x="261.583321" y="204.379755" fill="rgb(178,178,0)"  stroke="rgb(178,178,0)" stroke-width="1" font-size="16" >S</text>
<text x="259.367735" y="250.960029" fill="rgb(102,102,102)"  stroke="rgb(102,102,102)" stroke-width="1" font-size="16" >CH</text>
<text x="283.367735" y="254.640029" fill="rgb(102,102,102)"  stroke="rgb(102,102,102)" stroke-width="1" font-size="13" >3</text>
<text font-size="18.000000" fill ="black" font-family="sans-serif"
x="10.000000" y="20.000000" ></text>
<title> - OBDepict</title>
</svg>
