<?xml version="1.0"?>
<svg xmlns="http://www.w3.org/2000/svg"
xmlns:xlink="http://www.w3.org/1999/xlink" xmlns:cml="http://www.xml-cml.org/schema" width="406.386" height="327.052" x="0" y="0" font-family="sans-serif" stroke="rgb(0,0,0)" stroke-width="1"  stroke-linecap="round">
<rect x="0%" y="0%" width="100%" height="100%" stroke-width="0" fill="rgb(255,255,255)"  />
<line x1="151.7" y1="135.1" x2="196.0" y2="104.9" stroke="rgb(0,0,0)"  stroke-width="1.0"/>
<line x1="151.7" y1="135.1" x2="142.7" y2="102.8" stroke="rgb(0,0,0)"  stroke-width="1.0"/>
<line x1="144.8" y1="210.7" x2="149.5" y2="236.6" stroke="rgb(0,0,0)"  stroke-width="1.0"/>
<line x1="170.3" y1="166.8" x2="196.7" y2="170.3" stroke="rgb(0,0,0)"  stroke-width="1.0"/>
<line x1="169.5" y1="172.7" x2="195.9" y2="176.3" stroke="rgb(0,0,0)"  stroke-width="1.0"/>
<line x1="196.0" y1="104.9" x2="233.6" y2="124.6" stroke="rgb(0,0,0)"  stroke-width="1.0"/>
<line x1="149.5" y1="236.6" x2="119.3" y2="261.9" stroke="rgb(0,0,0)"  stroke-width="1.0"/>
<line x1="233.6" y1="124.6" x2="267.0" y2="103.6" stroke="rgb(0,0,0)"  stroke-width="1.0"/>
<line x1="236.6" y1="124.4" x2="237.6" y2="144.2" stroke="rgb(0,0,0)"  stroke-width="1.0"/>
<line x1="230.6" y1="124.7" x2="231.6" y2="144.5" stroke="rgb(0,0,0)"  stroke-width="1.0"/>
<line x1="119.3" y1="261.9" x2="99.1" y2="278.7" stroke="rgb(0,0,0)"  stroke-width="1.0"/>
<line x1="122.0" y1="265.2" x2="101.8" y2="282.0" stroke="rgb(0,0,0)"  stroke-width="1.0"/>
<line x1="116.7" y1="258.7" x2="96.5" y2="275.5" stroke="rgb(0,0,0)"  stroke-width="1.0"/>
<line x1="265.0" y1="64.2" x2="241.8" y2="52.0" stroke="rgb(0,0,0)"  stroke-width="1.0"/>
<line x1="333.1" y1="61.0" x2="355.4" y2="46.9" stroke="rgb(0,0,0)"  stroke-width="1.0"/>
<line x1="113.0" y1="141.6" x2="107.6" y2="180.6" stroke="rgb(0,0,0)"  stroke-width="1.0"/>
<line x1="119.3" y1="148.5" x2="115.5" y2="175.7" stroke="rgb(0,0,0)"  stroke-width="1.0"/>
<line x1="107.6" y1="180.6" x2="130.8" y2="192.2" stroke="rgb(0,0,0)"  stroke-width="1.0"/>
<line x1="151.5" y1="188.6" x2="169.9" y2="169.8" stroke="rgb(0,0,0)"  stroke-width="1.0"/>
<line x1="169.9" y1="169.8" x2="151.7" y2="135.1" stroke="rgb(0,0,0)"  stroke-width="1.0"/>
<line x1="151.7" y1="135.1" x2="113.0" y2="141.6" stroke="rgb(0,0,0)"  stroke-width="1.0"/>
<line x1="113.0" y1="141.6" x2="82.3" y2="117.4" stroke="rgb(0,0,0)"  stroke-width="1.0"/>
<line x1="82.3" y1="117.4" x2="45.6" y2="131.8" stroke="rgb(0,0,0)"  stroke-width="1.0"/>
<line x1="79.3" y1="126.3" x2="53.8" y2="136.3" stroke="rgb(0,0,0)"  stroke-width="1.0"/>
<line x1="45.6" y1="131.8" x2="40.0" y2="171.0" stroke="rgb(0,0,0)"  stroke-width="1.0"/>
<line x1="40.0" y1="171.0" x2="71.1" y2="195.2" stroke="rgb(0,0,0)"  stroke-width="1.0"/>
<line x1="49.2" y1="169.0" x2="70.8" y2="185.9" stroke="rgb(0,0,0)"  stroke-width="1.0"/>
<line x1="71.1" y1="195.2" x2="107.6" y2="180.6" stroke="rgb(0,0,0)"  stroke-width="1.0"/>
<line x1="267.0" y1="103.6" x2="301.7" y2="121.7" stroke="rgb(0,0,0)"  stroke-width="1.0"/>
<line x1="301.7" y1="121.7" x2="334.9" y2="100.4" stroke="rgb(0,0,0)"  stroke-width="1.0"/>
<line x1="302.9" y1="112.4" x2="326.0" y2="97.5" stroke="rgb(0,0,0)"  stroke-width="1.0"/>
<line x1="334.9" y1="100.4" x2="333.1" y2="61.0" stroke="rgb(0,0,0)"  stroke-width="1.0"/>
<line x1="333.1" y1="61.0" x2="298.3" y2="43.1" stroke="rgb(0,0,0)"  stroke-width="1.0"/>
<line x1="324.5" y1="64.6" x2="300.3" y2="52.2" stroke="rgb(0,0,0)"  stroke-width="1.0"/>
<line x1="298.3" y1="43.1" x2="265.0" y2="64.2" stroke="rgb(0,0,0)"  stroke-width="1.0"/>
<line x1="265.0" y1="64.2" x2="267.0" y2="103.6" stroke="rgb(0,0,0)"  stroke-width="1.0"/>
<line x1="272.5" y1="69.8" x2="273.9" y2="97.3" stroke="rgb(0,0,0)"  stroke-width="1.0"/>
<text x="136.468651" y="205.955986" fill="rgb(12,12,255)"  stroke="rgb(12,12,255)" stroke-width="1" font-size="16" >N</text>
<text x="121.216208" y="98.248085" fill="rgb(255,12,12)"  stroke="rgb(255,12,12)" stroke-width="1" font-size="16" >HO</text>
<text x="203.155659" y="183.007402" fill="rgb(255,12,12)"  stroke="rgb(255,12,12)" stroke-width="1" font-size="16" >O</text>
<text x="229.356685" y="165.298068" fill="rgb(255,12,12)"  stroke="rgb(255,12,12)" stroke-width="1" font-size="16" >O</text>
<text x="71.154386" y="295.051893" fill="rgb(102,102,102)"  stroke="rgb(102,102,102)" stroke-width="1" font-size="16" >HC</text>
<text x="204.298923" y="53.965199" fill="rgb(102,102,102)"  stroke="rgb(102,102,102)" stroke-width="1" font-size="16" >H</text>
<text x="216.298923" y="57.645199" fill="rgb(102,102,102)"  stroke="rgb(102,102,102)" stroke-width="1" font-size="13" >3</text>
<text x="222.798923" y="53.965199" fill="rgb(102,102,102)"  stroke="rgb(102,102,102)" stroke-width="1" font-size="16" >C</text>
<text x="362.385696" y="48.000000" fill="rgb(102,102,102)"  stroke="rgb(102,102,102)" stroke-width="1" font-size="16" >CH</text>
<text x="386.385696" y="51.680000" fill="rgb(102,102,102)"  stroke="rgb(102,102,102)" stroke-width="1" font-size="13" >3</text>
<text font-size="18.000000" fill ="black" font-family="sans-serif"
x="10.000000" y="20.000000" ></text>
<title> - OBDepict</title>
</svg>
