<?xml version="1.0"?>
<svg xmlns="http://www.w3.org/2000/svg"
xmlns:xlink="http://www.w3.org/1999/xlink" xmlns:cml="http://www.xml-cml.org/schema" width="529.475" height="288.822" x="0" y="0" font-family="sans-serif" stroke="rgb(0,0,0)" stroke-width="1"  stroke-linecap="round">
<rect x="0%" y="0%" width="100%" height="100%" stroke-width="0" fill="rgb(255,255,255)"  />
<line x1="295.0" y1="177.4" x2="322.0" y2="175.8" stroke="rgb(0,0,0)"  stroke-width="1.0"/>
<line x1="295.3" y1="183.4" x2="322.3" y2="181.8" stroke="rgb(0,0,0)"  stroke-width="1.0"/>
<line x1="212.8" y1="181.2" x2="236.2" y2="167.7" stroke="rgb(0,0,0)"  stroke-width="1.0"/>
<line x1="258.7" y1="167.7" x2="270.9" y2="174.7" stroke="rgb(0,0,0)"  stroke-width="1.0"/>
<line x1="454.0" y1="199.5" x2="418.1" y2="217.5" stroke="rgb(0,0,0)"  stroke-width="1.0"/>
<line x1="477.9" y1="187.1" x2="454.0" y2="199.5" stroke="rgb(0,0,0)"  stroke-width="1.0"/>
<line x1="479.9" y1="190.9" x2="455.9" y2="203.2" stroke="rgb(0,0,0)"  stroke-width="1.0"/>
<line x1="476.0" y1="183.4" x2="452.0" y2="195.8" stroke="rgb(0,0,0)"  stroke-width="1.0"/>
<line x1="337.3" y1="235.5" x2="344.4" y2="209.4" stroke="rgb(0,0,0)"  stroke-width="1.0"/>
<line x1="343.1" y1="237.1" x2="350.2" y2="210.9" stroke="rgb(0,0,0)"  stroke-width="1.0"/>
<line x1="418.1" y1="217.5" x2="395.6" y2="202.9" stroke="rgb(0,0,0)"  stroke-width="1.0"/>
<line x1="209.8" y1="208.2" x2="209.8" y2="181.2" stroke="rgb(0,0,0)"  stroke-width="1.0"/>
<line x1="215.8" y1="208.2" x2="215.8" y2="181.2" stroke="rgb(0,0,0)"  stroke-width="1.0"/>
<line x1="178.2" y1="161.2" x2="212.8" y2="181.2" stroke="rgb(0,0,0)"  stroke-width="1.0"/>
<line x1="178.2" y1="134.2" x2="178.2" y2="161.2" stroke="rgb(0,0,0)"  stroke-width="1.0"/>
<line x1="143.5" y1="101.2" x2="166.9" y2="114.7" stroke="rgb(0,0,0)"  stroke-width="1.0"/>
<line x1="354.6" y1="52.6" x2="361.5" y2="78.5" stroke="rgb(0,0,0)"  stroke-width="1.0"/>
<line x1="51.3" y1="114.2" x2="74.2" y2="101.2" stroke="rgb(0,0,0)"  stroke-width="1.0"/>
<line x1="347.3" y1="210.2" x2="372.5" y2="200.5" stroke="rgb(0,0,0)"  stroke-width="1.0"/>
<line x1="384.0" y1="182.8" x2="382.6" y2="155.8" stroke="rgb(0,0,0)"  stroke-width="1.0"/>
<line x1="382.6" y1="155.8" x2="344.0" y2="145.5" stroke="rgb(0,0,0)"  stroke-width="1.0"/>
<line x1="375.0" y1="161.2" x2="347.9" y2="154.0" stroke="rgb(0,0,0)"  stroke-width="1.0"/>
<line x1="344.0" y1="145.5" x2="322.1" y2="178.8" stroke="rgb(0,0,0)"  stroke-width="1.0"/>
<line x1="322.1" y1="178.8" x2="347.3" y2="210.2" stroke="rgb(0,0,0)"  stroke-width="1.0"/>
<line x1="382.6" y1="155.8" x2="410.8" y2="127.5" stroke="rgb(0,0,0)"  stroke-width="1.0"/>
<line x1="410.8" y1="127.5" x2="400.1" y2="88.7" stroke="rgb(0,0,0)"  stroke-width="1.0"/>
<line x1="402.3" y1="123.6" x2="394.8" y2="96.4" stroke="rgb(0,0,0)"  stroke-width="1.0"/>
<line x1="400.1" y1="88.7" x2="361.5" y2="78.5" stroke="rgb(0,0,0)"  stroke-width="1.0"/>
<line x1="361.5" y1="78.5" x2="333.5" y2="106.8" stroke="rgb(0,0,0)"  stroke-width="1.0"/>
<line x1="362.4" y1="87.8" x2="342.8" y2="107.6" stroke="rgb(0,0,0)"  stroke-width="1.0"/>
<line x1="333.5" y1="106.8" x2="344.0" y2="145.5" stroke="rgb(0,0,0)"  stroke-width="1.0"/>
<line x1="108.8" y1="121.2" x2="74.2" y2="101.2" stroke="rgb(0,0,0)"  stroke-width="1.0"/>
<line x1="74.2" y1="101.2" x2="74.2" y2="61.2" stroke="rgb(0,0,0)"  stroke-width="1.0"/>
<line x1="81.4" y1="95.2" x2="81.4" y2="67.2" stroke="rgb(0,0,0)"  stroke-width="1.0"/>
<line x1="74.2" y1="61.2" x2="109.3" y2="41.2" stroke="rgb(0,0,0)"  stroke-width="1.0"/>
<line x1="109.3" y1="41.2" x2="144.0" y2="61.2" stroke="rgb(0,0,0)"  stroke-width="1.0"/>
<line x1="110.9" y1="50.4" x2="135.2" y2="64.4" stroke="rgb(0,0,0)"  stroke-width="1.0"/>
<line x1="144.0" y1="61.2" x2="143.5" y2="101.2" stroke="rgb(0,0,0)"  stroke-width="1.0"/>
<line x1="143.5" y1="101.2" x2="108.8" y2="121.2" stroke="rgb(0,0,0)"  stroke-width="1.0"/>
<line x1="134.7" y1="97.9" x2="110.4" y2="111.9" stroke="rgb(0,0,0)"  stroke-width="1.0"/>
<text x="378.646723" y="203.820601" fill="rgb(12,12,255)"  stroke="rgb(12,12,255)" stroke-width="1" font-size="16" >N</text>
<text x="276.152063" y="189.161182" fill="rgb(12,12,255)"  stroke="rgb(12,12,255)" stroke-width="1" font-size="16" >N</text>
<text x="241.487534" y="169.160922" fill="rgb(12,12,255)"  stroke="rgb(12,12,255)" stroke-width="1" font-size="16" >N</text>
<text x="241.487534" y="153.160922" fill="rgb(12,12,255)"  stroke="rgb(12,12,255)" stroke-width="1" font-size="16" >H</text>
<text x="483.474666" y="189.161182" fill="rgb(102,102,102)"  stroke="rgb(102,102,102)" stroke-width="1" font-size="16" >CH</text>
<text x="330.816852" y="256.821531" fill="rgb(255,12,12)"  stroke="rgb(255,12,12)" stroke-width="1" font-size="16" >O</text>
<text x="206.823004" y="229.156850" fill="rgb(255,12,12)"  stroke="rgb(255,12,12)" stroke-width="1" font-size="16" >O</text>
<text x="172.158475" y="129.160403" fill="rgb(255,12,12)"  stroke="rgb(255,12,12)" stroke-width="1" font-size="16" >O</text>
<text x="333.316191" y="48.000000" fill="rgb(165,40,40)"  stroke="rgb(165,40,40)" stroke-width="1" font-size="16" >Br</text>
<text x="22.000000" y="128.660761" fill="rgb(30,239,30)"  stroke="rgb(30,239,30)" stroke-width="1" font-size="16" >Cl</text>
<text font-size="18.000000" fill ="black" font-family="sans-serif"
x="10.000000" y="20.000000" ></text>
<title> - OBDepict</title>
</svg>
