<?xml version="1.0"?>
<svg xmlns="http://www.w3.org/2000/svg"
xmlns:xlink="http://www.w3.org/1999/xlink" xmlns:cml="http://www.xml-cml.org/schema" width="406.539" height="350.867" x="0" y="0" font-family="sans-serif" stroke="rgb(0,0,0)" stroke-width="1"  stroke-linecap="round">
<rect x="0%" y="0%" width="100%" height="100%" stroke-width="0" fill="rgb(255,255,255)"  />
<line x1="147.0" y1="202.4" x2="109.0" y2="189.7" stroke="rgb(0,0,0)"  stroke-width="1.0"/>
<line x1="106.1" y1="190.3" x2="98.2" y2="150.9" stroke="rgb(0,0,0)"  stroke-width="1.0"/>
<line x1="112.0" y1="189.1" x2="104.1" y2="149.8" stroke="rgb(0,0,0)"  stroke-width="1.0"/>
<line x1="250.2" y1="192.2" x2="224.5" y2="199.9" stroke="rgb(0,0,0)"  stroke-width="1.0"/>
<line x1="279.4" y1="219.4" x2="250.2" y2="192.2" stroke="rgb(0,0,0)"  stroke-width="1.0"/>
<line x1="165.3" y1="46.0" x2="125.5" y2="50.2" stroke="rgb(0,0,0)"  stroke-width="1.0"/>
<line x1="192.0" y1="42.0" x2="165.3" y2="46.0" stroke="rgb(0,0,0)"  stroke-width="1.0"/>
<line x1="192.6" y1="46.1" x2="166.0" y2="50.2" stroke="rgb(0,0,0)"  stroke-width="1.0"/>
<line x1="191.4" y1="37.8" x2="164.7" y2="41.8" stroke="rgb(0,0,0)"  stroke-width="1.0"/>
<line x1="51.6" y1="73.3" x2="71.5" y2="91.8" stroke="rgb(0,0,0)"  stroke-width="1.0"/>
<line x1="47.5" y1="77.7" x2="67.5" y2="96.2" stroke="rgb(0,0,0)"  stroke-width="1.0"/>
<line x1="154.9" y1="127.1" x2="128.2" y2="124.2" stroke="rgb(0,0,0)"  stroke-width="1.0"/>
<line x1="155.6" y1="121.1" x2="128.8" y2="118.2" stroke="rgb(0,0,0)"  stroke-width="1.0"/>
<line x1="125.5" y1="50.2" x2="114.3" y2="74.4" stroke="rgb(0,0,0)"  stroke-width="1.0"/>
<line x1="323.6" y1="181.5" x2="317.5" y2="207.2" stroke="rgb(0,0,0)"  stroke-width="1.0"/>
<line x1="357.0" y1="292.7" x2="337.5" y2="274.5" stroke="rgb(0,0,0)"  stroke-width="1.0"/>
<line x1="179.3" y1="179.7" x2="201.5" y2="196.0" stroke="rgb(0,0,0)"  stroke-width="1.0"/>
<line x1="207.7" y1="216.0" x2="198.7" y2="241.7" stroke="rgb(0,0,0)"  stroke-width="1.0"/>
<line x1="198.7" y1="241.7" x2="159.2" y2="241.2" stroke="rgb(0,0,0)"  stroke-width="1.0"/>
<line x1="159.2" y1="241.2" x2="147.0" y2="202.4" stroke="rgb(0,0,0)"  stroke-width="1.0"/>
<line x1="147.0" y1="202.4" x2="179.3" y2="179.7" stroke="rgb(0,0,0)"  stroke-width="1.0"/>
<line x1="156.1" y1="204.8" x2="178.6" y2="189.0" stroke="rgb(0,0,0)"  stroke-width="1.0"/>
<line x1="96.1" y1="88.7" x2="69.5" y2="94.0" stroke="rgb(0,0,0)"  stroke-width="1.0"/>
<line x1="69.5" y1="94.0" x2="66.3" y2="121.1" stroke="rgb(0,0,0)"  stroke-width="1.0"/>
<line x1="76.7" y1="139.3" x2="101.2" y2="150.3" stroke="rgb(0,0,0)"  stroke-width="1.0"/>
<line x1="101.2" y1="150.3" x2="128.5" y2="121.2" stroke="rgb(0,0,0)"  stroke-width="1.0"/>
<line x1="128.5" y1="121.2" x2="115.2" y2="97.5" stroke="rgb(0,0,0)"  stroke-width="1.0"/>
<line x1="279.4" y1="219.4" x2="317.5" y2="207.2" stroke="rgb(0,0,0)"  stroke-width="1.0"/>
<line x1="317.5" y1="207.2" x2="346.0" y2="235.2" stroke="rgb(0,0,0)"  stroke-width="1.0"/>
<line x1="316.8" y1="216.5" x2="336.7" y2="236.1" stroke="rgb(0,0,0)"  stroke-width="1.0"/>
<line x1="346.0" y1="235.2" x2="337.5" y2="274.5" stroke="rgb(0,0,0)"  stroke-width="1.0"/>
<line x1="337.5" y1="274.5" x2="299.7" y2="285.9" stroke="rgb(0,0,0)"  stroke-width="1.0"/>
<line x1="329.7" y1="269.4" x2="303.4" y2="277.2" stroke="rgb(0,0,0)"  stroke-width="1.0"/>
<line x1="299.7" y1="285.9" x2="270.2" y2="258.7" stroke="rgb(0,0,0)"  stroke-width="1.0"/>
<line x1="270.2" y1="258.7" x2="279.4" y2="219.4" stroke="rgb(0,0,0)"  stroke-width="1.0"/>
<line x1="278.6" y1="254.5" x2="285.0" y2="226.8" stroke="rgb(0,0,0)"  stroke-width="1.0"/>
<line x1="198.7" y1="241.7" x2="218.0" y2="276.7" stroke="rgb(0,0,0)"  stroke-width="1.0"/>
<line x1="195.3" y1="250.4" x2="208.8" y2="274.9" stroke="rgb(0,0,0)"  stroke-width="1.0"/>
<line x1="218.0" y1="276.7" x2="197.9" y2="310.9" stroke="rgb(0,0,0)"  stroke-width="1.0"/>
<line x1="197.9" y1="310.9" x2="157.5" y2="310.2" stroke="rgb(0,0,0)"  stroke-width="1.0"/>
<line x1="192.0" y1="303.6" x2="163.6" y2="303.1" stroke="rgb(0,0,0)"  stroke-width="1.0"/>
<line x1="157.5" y1="310.2" x2="138.0" y2="275.2" stroke="rgb(0,0,0)"  stroke-width="1.0"/>
<line x1="138.0" y1="275.2" x2="159.2" y2="241.2" stroke="rgb(0,0,0)"  stroke-width="1.0"/>
<line x1="147.3" y1="273.9" x2="162.1" y2="250.1" stroke="rgb(0,0,0)"  stroke-width="1.0"/>
<text x="102.839361" y="94.176117" fill="rgb(12,12,255)"  stroke="rgb(12,12,255)" stroke-width="1" font-size="16" >N</text>
<text x="206.023149" y="211.691931" fill="rgb(12,12,255)"  stroke="rgb(12,12,255)" stroke-width="1" font-size="16" >N</text>
<text x="58.833439" y="142.012651" fill="rgb(178,178,0)"  stroke="rgb(178,178,0)" stroke-width="1" font-size="16" >S</text>
<text x="198.852281" y="48.000000" fill="rgb(102,102,102)"  stroke="rgb(102,102,102)" stroke-width="1" font-size="16" >CH</text>
<text x="34.000000" y="74.673492" fill="rgb(255,12,12)"  stroke="rgb(255,12,12)" stroke-width="1" font-size="16" >O</text>
<text x="162.182298" y="133.511507" fill="rgb(255,12,12)"  stroke="rgb(255,12,12)" stroke-width="1" font-size="16" >O</text>
<text x="320.533704" y="176.847436" fill="rgb(30,239,30)"  stroke="rgb(30,239,30)" stroke-width="1" font-size="16" >Cl</text>
<text x="360.539087" y="309.535194" fill="rgb(30,239,30)"  stroke="rgb(30,239,30)" stroke-width="1" font-size="16" >Cl</text>
<text font-size="18.000000" fill ="black" font-family="sans-serif"
x="10.000000" y="20.000000" ></text>
<title> - OBDepict</title>
</svg>
