<?xml version="1.0"?>
<svg xmlns="http://www.w3.org/2000/svg"
xmlns:xlink="http://www.w3.org/1999/xlink" xmlns:cml="http://www.xml-cml.org/schema" width="481.615" height="486.054" x="0" y="0" font-family="sans-serif" stroke="rgb(0,0,0)" stroke-width="1"  stroke-linecap="round">
<rect x="0%" y="0%" width="100%" height="100%" stroke-width="0" fill="rgb(255,255,255)"  />
<line x1="326.2" y1="127.0" x2="302.6" y2="140.5" stroke="rgb(0,0,0)"  stroke-width="1.0"/>
<line x1="188.8" y1="249.4" x2="165.4" y2="263.2" stroke="rgb(0,0,0)"  stroke-width="1.0"/>
<line x1="185.7" y1="244.2" x2="162.4" y2="258.0" stroke="rgb(0,0,0)"  stroke-width="1.0"/>
<line x1="198.4" y1="200.0" x2="198.4" y2="227.2" stroke="rgb(0,0,0)"  stroke-width="1.0"/>
<line x1="360.9" y1="107.0" x2="348.7" y2="114.0" stroke="rgb(0,0,0)"  stroke-width="1.0"/>
<line x1="180.1" y1="367.1" x2="189.1" y2="328.0" stroke="rgb(0,0,0)"  stroke-width="1.0"/>
<line x1="348.3" y1="145.3" x2="341.4" y2="133.3" stroke="rgb(0,0,0)"  stroke-width="1.0"/>
<line x1="353.5" y1="142.3" x2="346.6" y2="130.3" stroke="rgb(0,0,0)"  stroke-width="1.0"/>
<line x1="326.5" y1="95.2" x2="333.7" y2="107.7" stroke="rgb(0,0,0)"  stroke-width="1.0"/>
<line x1="321.3" y1="98.2" x2="328.4" y2="110.7" stroke="rgb(0,0,0)"  stroke-width="1.0"/>
<line x1="174.0" y1="393.8" x2="180.1" y2="367.1" stroke="rgb(0,0,0)"  stroke-width="1.0"/>
<line x1="169.9" y1="392.9" x2="176.0" y2="366.2" stroke="rgb(0,0,0)"  stroke-width="1.0"/>
<line x1="178.1" y1="394.7" x2="184.2" y2="368.1" stroke="rgb(0,0,0)"  stroke-width="1.0"/>
<line x1="232.9" y1="180.1" x2="198.4" y2="200.0" stroke="rgb(0,0,0)"  stroke-width="1.0"/>
<line x1="176.1" y1="184.2" x2="199.9" y2="197.4" stroke="rgb(0,0,0)"  stroke-width="1.0"/>
<line x1="173.2" y1="189.4" x2="197.0" y2="202.7" stroke="rgb(0,0,0)"  stroke-width="1.0"/>
<line x1="189.1" y1="328.0" x2="168.6" y2="309.0" stroke="rgb(0,0,0)"  stroke-width="1.0"/>
<line x1="112.4" y1="366.0" x2="99.5" y2="341.9" stroke="rgb(0,0,0)"  stroke-width="1.0"/>
<line x1="372.2" y1="60.0" x2="372.2" y2="87.5" stroke="rgb(0,0,0)"  stroke-width="1.0"/>
<line x1="406.7" y1="120.1" x2="383.5" y2="107.0" stroke="rgb(0,0,0)"  stroke-width="1.0"/>
<line x1="97.9" y1="411.5" x2="111.8" y2="388.6" stroke="rgb(0,0,0)"  stroke-width="1.0"/>
<line x1="430.3" y1="106.9" x2="406.7" y2="120.1" stroke="rgb(0,0,0)"  stroke-width="1.0"/>
<line x1="348.9" y1="46.5" x2="372.2" y2="60.0" stroke="rgb(0,0,0)"  stroke-width="1.0"/>
<line x1="110.3" y1="434.6" x2="97.9" y2="411.5" stroke="rgb(0,0,0)"  stroke-width="1.0"/>
<line x1="163.9" y1="260.6" x2="140.0" y2="249.4" stroke="rgb(0,0,0)"  stroke-width="1.0"/>
<line x1="119.2" y1="253.2" x2="100.3" y2="272.9" stroke="rgb(0,0,0)"  stroke-width="1.0"/>
<line x1="100.3" y1="272.9" x2="120.1" y2="307.8" stroke="rgb(0,0,0)"  stroke-width="1.0"/>
<line x1="109.6" y1="274.6" x2="123.4" y2="299.0" stroke="rgb(0,0,0)"  stroke-width="1.0"/>
<line x1="120.1" y1="307.8" x2="146.3" y2="302.7" stroke="rgb(0,0,0)"  stroke-width="1.0"/>
<line x1="160.7" y1="287.2" x2="163.9" y2="260.6" stroke="rgb(0,0,0)"  stroke-width="1.0"/>
<line x1="232.9" y1="180.1" x2="267.8" y2="199.6" stroke="rgb(0,0,0)"  stroke-width="1.0"/>
<line x1="241.7" y1="176.7" x2="266.1" y2="190.4" stroke="rgb(0,0,0)"  stroke-width="1.0"/>
<line x1="267.8" y1="199.6" x2="302.4" y2="180.5" stroke="rgb(0,0,0)"  stroke-width="1.0"/>
<line x1="302.4" y1="180.5" x2="302.6" y2="140.5" stroke="rgb(0,0,0)"  stroke-width="1.0"/>
<line x1="295.2" y1="174.4" x2="295.3" y2="146.5" stroke="rgb(0,0,0)"  stroke-width="1.0"/>
<line x1="302.6" y1="140.5" x2="267.8" y2="120.1" stroke="rgb(0,0,0)"  stroke-width="1.0"/>
<line x1="267.8" y1="120.1" x2="233.3" y2="139.9" stroke="rgb(0,0,0)"  stroke-width="1.0"/>
<line x1="266.2" y1="129.4" x2="242.1" y2="143.2" stroke="rgb(0,0,0)"  stroke-width="1.0"/>
<line x1="233.3" y1="139.9" x2="232.9" y2="180.1" stroke="rgb(0,0,0)"  stroke-width="1.0"/>
<line x1="99.5" y1="341.9" x2="60.0" y2="341.3" stroke="rgb(0,0,0)"  stroke-width="1.0"/>
<line x1="93.6" y1="334.6" x2="66.1" y2="334.2" stroke="rgb(0,0,0)"  stroke-width="1.0"/>
<line x1="60.0" y1="341.3" x2="40.0" y2="306.2" stroke="rgb(0,0,0)"  stroke-width="1.0"/>
<line x1="40.0" y1="306.2" x2="61.2" y2="272.1" stroke="rgb(0,0,0)"  stroke-width="1.0"/>
<line x1="49.3" y1="304.9" x2="64.1" y2="281.0" stroke="rgb(0,0,0)"  stroke-width="1.0"/>
<line x1="61.2" y1="272.1" x2="100.3" y2="272.9" stroke="rgb(0,0,0)"  stroke-width="1.0"/>
<line x1="120.1" y1="307.8" x2="99.5" y2="341.9" stroke="rgb(0,0,0)"  stroke-width="1.0"/>
<text x="331.476385" y="128.524775" fill="rgb(178,178,0)"  stroke="rgb(178,178,0)" stroke-width="1" font-size="16" >S</text>
<text x="192.424745" y="248.203310" fill="rgb(12,12,255)"  stroke="rgb(12,12,255)" stroke-width="1" font-size="16" >N</text>
<text x="153.072064" y="308.142038" fill="rgb(12,12,255)"  stroke="rgb(12,12,255)" stroke-width="1" font-size="16" >N</text>
<text x="122.195419" y="251.837283" fill="rgb(178,178,0)"  stroke="rgb(178,178,0)" stroke-width="1" font-size="16" >S</text>
<text x="366.190777" y="108.545199" fill="rgb(12,12,255)"  stroke="rgb(12,12,255)" stroke-width="1" font-size="16" >N</text>
<text x="351.455961" y="163.035393" fill="rgb(255,12,12)"  stroke="rgb(255,12,12)" stroke-width="1" font-size="16" >O</text>
<text x="311.496808" y="93.407687" fill="rgb(255,12,12)"  stroke="rgb(255,12,12)" stroke-width="1" font-size="16" >O</text>
<text x="153.182074" y="414.497621" fill="rgb(102,102,102)"  stroke="rgb(102,102,102)" stroke-width="1" font-size="16" >HC</text>
<text x="157.312508" y="188.463504" fill="rgb(255,12,12)"  stroke="rgb(255,12,12)" stroke-width="1" font-size="16" >O</text>
<text x="112.506440" y="385.435537" fill="rgb(255,12,12)"  stroke="rgb(255,12,12)" stroke-width="1" font-size="16" >O</text>
<text x="437.614710" y="108.545199" fill="rgb(102,102,102)"  stroke="rgb(102,102,102)" stroke-width="1" font-size="16" >CH</text>
<text x="461.614710" y="112.225199" fill="rgb(102,102,102)"  stroke="rgb(102,102,102)" stroke-width="1" font-size="13" >3</text>
<text x="311.680159" y="48.000000" fill="rgb(102,102,102)"  stroke="rgb(102,102,102)" stroke-width="1" font-size="16" >H</text>
<text x="323.680159" y="51.680000" fill="rgb(102,102,102)"  stroke="rgb(102,102,102)" stroke-width="1" font-size="13" >3</text>
<text x="330.180159" y="48.000000" fill="rgb(102,102,102)"  stroke="rgb(102,102,102)" stroke-width="1" font-size="16" >C</text>
<text x="112.488105" y="454.054076" fill="rgb(102,102,102)"  stroke="rgb(102,102,102)" stroke-width="1" font-size="16" >CH</text>
<text x="136.488105" y="457.734076" fill="rgb(102,102,102)"  stroke="rgb(102,102,102)" stroke-width="1" font-size="13" >3</text>
<text font-size="18.000000" fill ="black" font-family="sans-serif"
x="10.000000" y="20.000000" ></text>
<title> - OBDepict</title>
</svg>
