<?xml version="1.0"?>
<svg xmlns="http://www.w3.org/2000/svg"
xmlns:xlink="http://www.w3.org/1999/xlink" xmlns:cml="http://www.xml-cml.org/schema" width="380.285" height="331.255" x="0" y="0" font-family="sans-serif" stroke="rgb(0,0,0)" stroke-width="1"  stroke-linecap="round">
<rect x="0%" y="0%" width="100%" height="100%" stroke-width="0" fill="rgb(255,255,255)"  />
<line x1="204.0" y1="196.3" x2="143.6" y2="232.0" stroke="rgb(0,0,0)"  stroke-width="1.0"/>
<line x1="239.7" y1="256.5" x2="217.0" y2="270.2" stroke="rgb(0,0,0)"  stroke-width="1.0"/>
<line x1="236.5" y1="251.3" x2="213.9" y2="265.1" stroke="rgb(0,0,0)"  stroke-width="1.0"/>
<line x1="171.0" y1="140.8" x2="148.4" y2="154.2" stroke="rgb(0,0,0)"  stroke-width="1.0"/>
<line x1="168.0" y1="135.7" x2="145.4" y2="149.0" stroke="rgb(0,0,0)"  stroke-width="1.0"/>
<line x1="109.1" y1="213.1" x2="108.8" y2="187.0" stroke="rgb(0,0,0)"  stroke-width="1.0"/>
<line x1="281.8" y1="149.9" x2="293.4" y2="142.9" stroke="rgb(0,0,0)"  stroke-width="1.0"/>
<line x1="97.3" y1="167.6" x2="74.7" y2="154.9" stroke="rgb(0,0,0)"  stroke-width="1.0"/>
<line x1="305.8" y1="253.5" x2="328.9" y2="266.4" stroke="rgb(0,0,0)"  stroke-width="1.0"/>
<line x1="305.8" y1="253.5" x2="293.0" y2="276.6" stroke="rgb(0,0,0)"  stroke-width="1.0"/>
<line x1="202.4" y1="79.7" x2="201.9" y2="53.0" stroke="rgb(0,0,0)"  stroke-width="1.0"/>
<line x1="202.4" y1="79.7" x2="176.0" y2="80.1" stroke="rgb(0,0,0)"  stroke-width="1.0"/>
<line x1="74.7" y1="154.9" x2="74.1" y2="116.0" stroke="rgb(0,0,0)"  stroke-width="1.0"/>
<line x1="74.1" y1="116.0" x2="51.3" y2="103.0" stroke="rgb(0,0,0)"  stroke-width="1.0"/>
<line x1="72.0" y1="119.6" x2="49.2" y2="106.6" stroke="rgb(0,0,0)"  stroke-width="1.0"/>
<line x1="76.2" y1="112.3" x2="53.4" y2="99.3" stroke="rgb(0,0,0)"  stroke-width="1.0"/>
<line x1="204.0" y1="196.3" x2="203.6" y2="157.1" stroke="rgb(0,0,0)"  stroke-width="1.0"/>
<line x1="203.6" y1="157.1" x2="236.8" y2="137.5" stroke="rgb(0,0,0)"  stroke-width="1.0"/>
<line x1="212.4" y1="160.3" x2="235.3" y2="146.8" stroke="rgb(0,0,0)"  stroke-width="1.0"/>
<line x1="236.8" y1="137.5" x2="259.3" y2="150.2" stroke="rgb(0,0,0)"  stroke-width="1.0"/>
<line x1="270.8" y1="169.6" x2="271.3" y2="195.4" stroke="rgb(0,0,0)"  stroke-width="1.0"/>
<line x1="271.3" y1="195.4" x2="238.1" y2="215.1" stroke="rgb(0,0,0)"  stroke-width="1.0"/>
<line x1="262.5" y1="192.2" x2="239.6" y2="205.9" stroke="rgb(0,0,0)"  stroke-width="1.0"/>
<line x1="238.1" y1="215.1" x2="204.0" y2="196.3" stroke="rgb(0,0,0)"  stroke-width="1.0"/>
<line x1="236.1" y1="97.8" x2="236.8" y2="137.5" stroke="rgb(0,0,0)"  stroke-width="1.0"/>
<line x1="203.6" y1="157.1" x2="169.5" y2="138.2" stroke="rgb(0,0,0)"  stroke-width="1.0"/>
<line x1="169.5" y1="138.2" x2="169.1" y2="99.3" stroke="rgb(0,0,0)"  stroke-width="1.0"/>
<line x1="169.1" y1="99.3" x2="202.4" y2="79.7" stroke="rgb(0,0,0)"  stroke-width="1.0"/>
<line x1="202.4" y1="79.7" x2="236.1" y2="97.8" stroke="rgb(0,0,0)"  stroke-width="1.0"/>
<line x1="238.1" y1="215.1" x2="238.1" y2="253.9" stroke="rgb(0,0,0)"  stroke-width="1.0"/>
<line x1="238.1" y1="253.9" x2="272.6" y2="272.9" stroke="rgb(0,0,0)"  stroke-width="1.0"/>
<line x1="272.6" y1="272.9" x2="305.8" y2="253.5" stroke="rgb(0,0,0)"  stroke-width="1.0"/>
<line x1="305.8" y1="253.5" x2="305.6" y2="214.2" stroke="rgb(0,0,0)"  stroke-width="1.0"/>
<line x1="305.6" y1="214.2" x2="271.3" y2="195.4" stroke="rgb(0,0,0)"  stroke-width="1.0"/>
<line x1="143.6" y1="232.0" x2="144.2" y2="271.1" stroke="rgb(0,0,0)"  stroke-width="1.0"/>
<line x1="136.5" y1="238.1" x2="136.9" y2="265.2" stroke="rgb(0,0,0)"  stroke-width="1.0"/>
<line x1="144.2" y1="271.1" x2="110.6" y2="291.3" stroke="rgb(0,0,0)"  stroke-width="1.0"/>
<line x1="110.6" y1="291.3" x2="76.5" y2="272.4" stroke="rgb(0,0,0)"  stroke-width="1.0"/>
<line x1="108.8" y1="282.1" x2="85.2" y2="269.0" stroke="rgb(0,0,0)"  stroke-width="1.0"/>
<line x1="76.5" y1="272.4" x2="75.7" y2="233.1" stroke="rgb(0,0,0)"  stroke-width="1.0"/>
<line x1="75.7" y1="233.1" x2="109.1" y2="213.1" stroke="rgb(0,0,0)"  stroke-width="1.0"/>
<line x1="84.6" y1="236.2" x2="107.7" y2="222.4" stroke="rgb(0,0,0)"  stroke-width="1.0"/>
<line x1="109.1" y1="213.1" x2="143.6" y2="232.0" stroke="rgb(0,0,0)"  stroke-width="1.0"/>
<text x="264.600317" y="164.555201" fill="rgb(12,12,255)"  stroke="rgb(12,12,255)" stroke-width="1" font-size="16" >N</text>
<text x="198.332204" y="282.372561" fill="rgb(255,12,12)"  stroke="rgb(255,12,12)" stroke-width="1" font-size="16" >O</text>
<text x="129.724826" y="166.177977" fill="rgb(255,12,12)"  stroke="rgb(255,12,12)" stroke-width="1" font-size="16" >O</text>
<text x="102.607378" y="181.978694" fill="rgb(255,12,12)"  stroke="rgb(255,12,12)" stroke-width="1" font-size="16" >O</text>
<text x="300.545762" y="144.265751" fill="rgb(102,102,102)"  stroke="rgb(102,102,102)" stroke-width="1" font-size="16" >CH</text>
<text x="324.545762" y="147.945751" fill="rgb(102,102,102)"  stroke="rgb(102,102,102)" stroke-width="1" font-size="13" >3</text>
<text x="336.284802" y="280.759274" fill="rgb(102,102,102)"  stroke="rgb(102,102,102)" stroke-width="1" font-size="16" >CH</text>
<text x="360.284802" y="284.439274" fill="rgb(102,102,102)"  stroke="rgb(102,102,102)" stroke-width="1" font-size="13" >3</text>
<text x="260.766396" y="296.023811" fill="rgb(102,102,102)"  stroke="rgb(102,102,102)" stroke-width="1" font-size="16" >H</text>
<text x="272.766396" y="299.703811" fill="rgb(102,102,102)"  stroke="rgb(102,102,102)" stroke-width="1" font-size="13" >3</text>
<text x="279.266396" y="296.023811" fill="rgb(102,102,102)"  stroke="rgb(102,102,102)" stroke-width="1" font-size="16" >C</text>
<text x="175.637067" y="48.000000" fill="rgb(102,102,102)"  stroke="rgb(102,102,102)" stroke-width="1" font-size="16" >H</text>
<text x="187.637067" y="51.680000" fill="rgb(102,102,102)"  stroke="rgb(102,102,102)" stroke-width="1" font-size="13" >3</text>
<text x="194.137067" y="48.000000" fill="rgb(102,102,102)"  stroke="rgb(102,102,102)" stroke-width="1" font-size="16" >C</text>
<text x="137.022581" y="88.227772" fill="rgb(102,102,102)"  stroke="rgb(102,102,102)" stroke-width="1" font-size="16" >H</text>
<text x="149.022581" y="91.907772" fill="rgb(102,102,102)"  stroke="rgb(102,102,102)" stroke-width="1" font-size="13" >3</text>
<text x="155.522581" y="88.227772" fill="rgb(102,102,102)"  stroke="rgb(102,102,102)" stroke-width="1" font-size="16" >C</text>
<text x="22.000000" y="104.574160" fill="rgb(102,102,102)"  stroke="rgb(102,102,102)" stroke-width="1" font-size="16" >HC</text>
<text font-size="18.000000" fill ="black" font-family="sans-serif"
x="10.000000" y="20.000000" ></text>
<title> - OBDepict</title>
</svg>
