<?xml version="1.0"?>
<svg xmlns="http://www.w3.org/2000/svg"
xmlns:xlink="http://www.w3.org/1999/xlink" xmlns:cml="http://www.xml-cml.org/schema" width="509.451" height="286.741" x="0" y="0" font-family="sans-serif" stroke="rgb(0,0,0)" stroke-width="1"  stroke-linecap="round">
<rect x="0%" y="0%" width="100%" height="100%" stroke-width="0" fill="rgb(255,255,255)"  />
<line x1="374.7" y1="82.8" x2="334.7" y2="82.8" stroke="rgb(0,0,0)"  stroke-width="1.0"/>
<line x1="301.6" y1="120.3" x2="274.6" y2="120.0" stroke="rgb(0,0,0)"  stroke-width="1.0"/>
<line x1="301.7" y1="114.3" x2="274.7" y2="114.0" stroke="rgb(0,0,0)"  stroke-width="1.0"/>
<line x1="334.7" y1="82.8" x2="321.2" y2="106.2" stroke="rgb(0,0,0)"  stroke-width="1.0"/>
<line x1="236.6" y1="217.0" x2="263.3" y2="187.3" stroke="rgb(0,0,0)"  stroke-width="1.0"/>
<line x1="218.6" y1="237.1" x2="236.6" y2="217.0" stroke="rgb(0,0,0)"  stroke-width="1.0"/>
<line x1="215.5" y1="234.3" x2="233.5" y2="214.2" stroke="rgb(0,0,0)"  stroke-width="1.0"/>
<line x1="221.8" y1="239.9" x2="239.8" y2="219.8" stroke="rgb(0,0,0)"  stroke-width="1.0"/>
<line x1="74.6" y1="96.8" x2="97.5" y2="83.3" stroke="rgb(0,0,0)"  stroke-width="1.0"/>
<line x1="120.0" y1="83.3" x2="143.9" y2="97.0" stroke="rgb(0,0,0)"  stroke-width="1.0"/>
<line x1="323.8" y1="58.0" x2="337.3" y2="81.3" stroke="rgb(0,0,0)"  stroke-width="1.0"/>
<line x1="318.6" y1="61.0" x2="332.1" y2="84.3" stroke="rgb(0,0,0)"  stroke-width="1.0"/>
<line x1="390.1" y1="141.4" x2="398.5" y2="115.2" stroke="rgb(0,0,0)"  stroke-width="1.0"/>
<line x1="263.3" y1="187.3" x2="255.1" y2="161.5" stroke="rgb(0,0,0)"  stroke-width="1.0"/>
<line x1="52.8" y1="80.7" x2="76.1" y2="94.2" stroke="rgb(0,0,0)"  stroke-width="1.0"/>
<line x1="49.7" y1="85.9" x2="73.1" y2="99.4" stroke="rgb(0,0,0)"  stroke-width="1.0"/>
<line x1="458.9" y1="47.5" x2="436.5" y2="63.4" stroke="rgb(0,0,0)"  stroke-width="1.0"/>
<line x1="74.3" y1="123.8" x2="74.6" y2="96.8" stroke="rgb(0,0,0)"  stroke-width="1.0"/>
<line x1="274.6" y1="117.0" x2="258.8" y2="95.2" stroke="rgb(0,0,0)"  stroke-width="1.0"/>
<line x1="238.8" y1="88.7" x2="213.0" y2="97.0" stroke="rgb(0,0,0)"  stroke-width="1.0"/>
<line x1="213.0" y1="97.0" x2="213.0" y2="137.0" stroke="rgb(0,0,0)"  stroke-width="1.0"/>
<line x1="220.2" y1="103.0" x2="220.2" y2="131.0" stroke="rgb(0,0,0)"  stroke-width="1.0"/>
<line x1="213.0" y1="137.0" x2="238.8" y2="145.2" stroke="rgb(0,0,0)"  stroke-width="1.0"/>
<line x1="258.9" y1="138.6" x2="274.6" y2="117.0" stroke="rgb(0,0,0)"  stroke-width="1.0"/>
<line x1="374.7" y1="82.8" x2="398.5" y2="115.2" stroke="rgb(0,0,0)"  stroke-width="1.0"/>
<line x1="384.0" y1="83.4" x2="400.8" y2="106.1" stroke="rgb(0,0,0)"  stroke-width="1.0"/>
<line x1="398.5" y1="115.2" x2="423.7" y2="107.0" stroke="rgb(0,0,0)"  stroke-width="1.0"/>
<line x1="436.2" y1="90.1" x2="436.5" y2="63.4" stroke="rgb(0,0,0)"  stroke-width="1.0"/>
<line x1="436.5" y1="63.4" x2="398.3" y2="50.7" stroke="rgb(0,0,0)"  stroke-width="1.0"/>
<line x1="428.5" y1="68.4" x2="401.7" y2="59.4" stroke="rgb(0,0,0)"  stroke-width="1.0"/>
<line x1="398.3" y1="50.7" x2="374.7" y2="82.8" stroke="rgb(0,0,0)"  stroke-width="1.0"/>
<line x1="178.4" y1="77.0" x2="213.0" y2="97.0" stroke="rgb(0,0,0)"  stroke-width="1.0"/>
<line x1="213.0" y1="137.0" x2="178.4" y2="157.0" stroke="rgb(0,0,0)"  stroke-width="1.0"/>
<line x1="178.4" y1="157.0" x2="143.9" y2="137.0" stroke="rgb(0,0,0)"  stroke-width="1.0"/>
<line x1="176.9" y1="147.8" x2="152.7" y2="133.8" stroke="rgb(0,0,0)"  stroke-width="1.0"/>
<line x1="143.9" y1="137.0" x2="143.9" y2="97.0" stroke="rgb(0,0,0)"  stroke-width="1.0"/>
<line x1="143.9" y1="97.0" x2="178.4" y2="77.0" stroke="rgb(0,0,0)"  stroke-width="1.0"/>
<line x1="152.7" y1="100.2" x2="176.9" y2="86.2" stroke="rgb(0,0,0)"  stroke-width="1.0"/>
<text x="308.645151" y="125.400349" fill="rgb(12,12,255)"  stroke="rgb(12,12,255)" stroke-width="1" font-size="16" >N</text>
<text x="245.189546" y="157.128151" fill="rgb(12,12,255)"  stroke="rgb(12,12,255)" stroke-width="1" font-size="16" >N</text>
<text x="245.189546" y="92.660936" fill="rgb(178,178,0)"  stroke="rgb(178,178,0)" stroke-width="1" font-size="16" >S</text>
<text x="430.106245" y="111.053864" fill="rgb(178,178,0)"  stroke="rgb(178,178,0)" stroke-width="1" font-size="16" >S</text>
<text x="191.960344" y="254.741361" fill="rgb(102,102,102)"  stroke="rgb(102,102,102)" stroke-width="1" font-size="16" >HC</text>
<text x="102.712110" y="84.776177" fill="rgb(12,12,255)"  stroke="rgb(12,12,255)" stroke-width="1" font-size="16" >N</text>
<text x="102.712110" y="68.776177" fill="rgb(12,12,255)"  stroke="rgb(12,12,255)" stroke-width="1" font-size="16" >H</text>
<text x="308.645151" y="56.281658" fill="rgb(255,12,12)"  stroke="rgb(255,12,12)" stroke-width="1" font-size="16" >O</text>
<text x="368.188804" y="161.774786" fill="rgb(30,239,30)"  stroke="rgb(30,239,30)" stroke-width="1" font-size="16" >Cl</text>
<text x="34.000000" y="84.776177" fill="rgb(255,12,12)"  stroke="rgb(255,12,12)" stroke-width="1" font-size="16" >O</text>
<text x="463.450689" y="48.000000" fill="rgb(30,239,30)"  stroke="rgb(30,239,30)" stroke-width="1" font-size="16" >Cl</text>
<text x="48.152765" y="144.800049" fill="rgb(102,102,102)"  stroke="rgb(102,102,102)" stroke-width="1" font-size="16" >H</text>
<text x="60.152765" y="148.480049" fill="rgb(102,102,102)"  stroke="rgb(102,102,102)" stroke-width="1" font-size="13" >3</text>
<text x="66.652765" y="144.800049" fill="rgb(102,102,102)"  stroke="rgb(102,102,102)" stroke-width="1" font-size="16" >C</text>
<text font-size="18.000000" fill ="black" font-family="sans-serif"
x="10.000000" y="20.000000" ></text>
<title> - OBDepict</title>
</svg>
