<?xml version="1.0"?>
<svg xmlns="http://www.w3.org/2000/svg"
xmlns:xlink="http://www.w3.org/1999/xlink" xmlns:cml="http://www.xml-cml.org/schema" width="363.6" height="409.724" x="0" y="0" font-family="sans-serif" stroke="rgb(0,0,0)" stroke-width="1"  stroke-linecap="round">
<rect x="0%" y="0%" width="100%" height="100%" stroke-width="0" fill="rgb(255,255,255)"  />
<line x1="157.6" y1="261.8" x2="142.1" y2="239.3" stroke="rgb(0,0,0)"  stroke-width="1.0"/>
<line x1="162.6" y1="258.4" x2="147.0" y2="235.9" stroke="rgb(0,0,0)"  stroke-width="1.0"/>
<line x1="207.6" y1="267.8" x2="180.5" y2="269.8" stroke="rgb(0,0,0)"  stroke-width="1.0"/>
<line x1="281.7" y1="273.5" x2="269.8" y2="298.0" stroke="rgb(0,0,0)"  stroke-width="1.0"/>
<line x1="81.3" y1="93.2" x2="84.3" y2="120.2" stroke="rgb(0,0,0)"  stroke-width="1.0"/>
<line x1="229.9" y1="300.8" x2="207.6" y2="267.8" stroke="rgb(0,0,0)"  stroke-width="1.0"/>
<line x1="98.6" y1="306.9" x2="81.9" y2="270.2" stroke="rgb(0,0,0)"  stroke-width="1.0"/>
<line x1="109.8" y1="331.5" x2="98.6" y2="306.9" stroke="rgb(0,0,0)"  stroke-width="1.0"/>
<line x1="105.9" y1="333.2" x2="94.8" y2="308.6" stroke="rgb(0,0,0)"  stroke-width="1.0"/>
<line x1="113.6" y1="329.8" x2="102.4" y2="305.1" stroke="rgb(0,0,0)"  stroke-width="1.0"/>
<line x1="310.6" y1="276.6" x2="297.7" y2="270.2" stroke="rgb(0,0,0)"  stroke-width="1.0"/>
<line x1="313.3" y1="271.2" x2="300.3" y2="264.8" stroke="rgb(0,0,0)"  stroke-width="1.0"/>
<line x1="264.5" y1="247.3" x2="277.0" y2="253.4" stroke="rgb(0,0,0)"  stroke-width="1.0"/>
<line x1="261.9" y1="252.6" x2="274.3" y2="258.8" stroke="rgb(0,0,0)"  stroke-width="1.0"/>
<line x1="52.6" y1="80.2" x2="66.6" y2="78.7" stroke="rgb(0,0,0)"  stroke-width="1.0"/>
<line x1="53.2" y1="86.1" x2="67.3" y2="84.6" stroke="rgb(0,0,0)"  stroke-width="1.0"/>
<line x1="79.7" y1="52.6" x2="81.4" y2="67.0" stroke="rgb(0,0,0)"  stroke-width="1.0"/>
<line x1="73.8" y1="53.3" x2="75.4" y2="67.7" stroke="rgb(0,0,0)"  stroke-width="1.0"/>
<line x1="222.0" y1="245.0" x2="210.3" y2="269.1" stroke="rgb(0,0,0)"  stroke-width="1.0"/>
<line x1="216.5" y1="242.4" x2="204.9" y2="266.5" stroke="rgb(0,0,0)"  stroke-width="1.0"/>
<line x1="81.9" y1="270.2" x2="97.7" y2="248.2" stroke="rgb(0,0,0)"  stroke-width="1.0"/>
<line x1="299.5" y1="237.5" x2="293.2" y2="250.1" stroke="rgb(0,0,0)"  stroke-width="1.0"/>
<line x1="106.4" y1="77.4" x2="92.8" y2="78.9" stroke="rgb(0,0,0)"  stroke-width="1.0"/>
<line x1="144.5" y1="237.6" x2="118.3" y2="237.6" stroke="rgb(0,0,0)"  stroke-width="1.0"/>
<line x1="101.2" y1="225.2" x2="92.8" y2="199.5" stroke="rgb(0,0,0)"  stroke-width="1.0"/>
<line x1="92.8" y1="199.5" x2="124.8" y2="176.0" stroke="rgb(0,0,0)"  stroke-width="1.0"/>
<line x1="101.9" y1="201.8" x2="124.2" y2="185.3" stroke="rgb(0,0,0)"  stroke-width="1.0"/>
<line x1="124.8" y1="176.0" x2="146.7" y2="191.9" stroke="rgb(0,0,0)"  stroke-width="1.0"/>
<line x1="153.1" y1="211.9" x2="144.5" y2="237.6" stroke="rgb(0,0,0)"  stroke-width="1.0"/>
<line x1="229.9" y1="300.8" x2="269.8" y2="298.0" stroke="rgb(0,0,0)"  stroke-width="1.0"/>
<line x1="269.8" y1="298.0" x2="292.2" y2="331.0" stroke="rgb(0,0,0)"  stroke-width="1.0"/>
<line x1="267.2" y1="307.0" x2="282.9" y2="330.1" stroke="rgb(0,0,0)"  stroke-width="1.0"/>
<line x1="292.2" y1="331.0" x2="274.7" y2="366.9" stroke="rgb(0,0,0)"  stroke-width="1.0"/>
<line x1="274.7" y1="366.9" x2="234.8" y2="369.7" stroke="rgb(0,0,0)"  stroke-width="1.0"/>
<line x1="268.2" y1="360.1" x2="240.3" y2="362.1" stroke="rgb(0,0,0)"  stroke-width="1.0"/>
<line x1="234.8" y1="369.7" x2="212.4" y2="336.7" stroke="rgb(0,0,0)"  stroke-width="1.0"/>
<line x1="212.4" y1="336.7" x2="229.9" y2="300.8" stroke="rgb(0,0,0)"  stroke-width="1.0"/>
<line x1="221.5" y1="334.5" x2="233.8" y2="309.4" stroke="rgb(0,0,0)"  stroke-width="1.0"/>
<line x1="84.3" y1="120.2" x2="52.1" y2="143.3" stroke="rgb(0,0,0)"  stroke-width="1.0"/>
<line x1="52.1" y1="143.3" x2="56.3" y2="183.2" stroke="rgb(0,0,0)"  stroke-width="1.0"/>
<line x1="59.9" y1="148.5" x2="62.8" y2="176.5" stroke="rgb(0,0,0)"  stroke-width="1.0"/>
<line x1="56.3" y1="183.2" x2="92.8" y2="199.5" stroke="rgb(0,0,0)"  stroke-width="1.0"/>
<line x1="124.8" y1="176.0" x2="120.6" y2="136.5" stroke="rgb(0,0,0)"  stroke-width="1.0"/>
<line x1="120.6" y1="136.5" x2="84.3" y2="120.2" stroke="rgb(0,0,0)"  stroke-width="1.0"/>
<line x1="112.1" y1="140.6" x2="86.8" y2="129.2" stroke="rgb(0,0,0)"  stroke-width="1.0"/>
<text x="161.501090" y="278.825442" fill="rgb(12,12,255)"  stroke="rgb(12,12,255)" stroke-width="1" font-size="16" >N</text>
<text x="99.259777" y="245.593312" fill="rgb(12,12,255)"  stroke="rgb(12,12,255)" stroke-width="1" font-size="16" >N</text>
<text x="151.226702" y="207.523899" fill="rgb(178,178,0)"  stroke="rgb(178,178,0)" stroke-width="1" font-size="16" >S</text>
<text x="281.344761" y="269.765212" fill="rgb(178,178,0)"  stroke="rgb(178,178,0)" stroke-width="1" font-size="16" >S</text>
<text x="73.878556" y="88.280051" fill="rgb(178,178,0)"  stroke="rgb(178,178,0)" stroke-width="1" font-size="16" >S</text>
<text x="109.132670" y="351.341142" fill="rgb(102,102,102)"  stroke="rgb(102,102,102)" stroke-width="1" font-size="16" >CH</text>
<text x="317.600193" y="287.687343" fill="rgb(255,12,12)"  stroke="rgb(255,12,12)" stroke-width="1" font-size="16" >O</text>
<text x="245.490824" y="252.239738" fill="rgb(255,12,12)"  stroke="rgb(255,12,12)" stroke-width="1" font-size="16" >O</text>
<text x="34.000000" y="92.512673" fill="rgb(255,12,12)"  stroke="rgb(255,12,12)" stroke-width="1" font-size="16" >O</text>
<text x="69.249277" y="48.000000" fill="rgb(255,12,12)"  stroke="rgb(255,12,12)" stroke-width="1" font-size="16" >O</text>
<text x="218.905120" y="239.953040" fill="rgb(255,12,12)"  stroke="rgb(255,12,12)" stroke-width="1" font-size="16" >O</text>
<text x="301.271730" y="233.911275" fill="rgb(102,102,102)"  stroke="rgb(102,102,102)" stroke-width="1" font-size="16" >CH</text>
<text x="325.271730" y="237.591275" fill="rgb(102,102,102)"  stroke="rgb(102,102,102)" stroke-width="1" font-size="13" >3</text>
<text x="115.360455" y="84.052266" fill="rgb(102,102,102)"  stroke="rgb(102,102,102)" stroke-width="1" font-size="16" >CH</text>
<text x="139.360455" y="87.732266" fill="rgb(102,102,102)"  stroke="rgb(102,102,102)" stroke-width="1" font-size="13" >3</text>
<text font-size="18.000000" fill ="black" font-family="sans-serif"
x="10.000000" y="20.000000" ></text>
<title> - OBDepict</title>
</svg>
