<?xml version="1.0"?>
<svg xmlns="http://www.w3.org/2000/svg"
xmlns:xlink="http://www.w3.org/1999/xlink" xmlns:cml="http://www.xml-cml.org/schema" width="352.86" height="213.505" x="0" y="0" font-family="sans-serif" stroke="rgb(0,0,0)" stroke-width="1"  stroke-linecap="round">
<rect x="0%" y="0%" width="100%" height="100%" stroke-width="0" fill="rgb(255,255,255)"  />
<line x1="247.2" y1="120.0" x2="222.9" y2="131.8" stroke="rgb(0,0,0)"  stroke-width="1.0"/>
<line x1="187.0" y1="149.3" x2="199.6" y2="143.2" stroke="rgb(0,0,0)"  stroke-width="1.0"/>
<line x1="142.2" y1="132.5" x2="164.6" y2="147.6" stroke="rgb(0,0,0)"  stroke-width="1.0"/>
<line x1="145.0" y1="92.7" x2="142.2" y2="132.5" stroke="rgb(0,0,0)"  stroke-width="1.0"/>
<line x1="73.1" y1="127.7" x2="106.2" y2="150.1" stroke="rgb(0,0,0)"  stroke-width="1.0"/>
<line x1="202.3" y1="112.0" x2="208.3" y2="124.5" stroke="rgb(0,0,0)"  stroke-width="1.0"/>
<line x1="196.9" y1="114.6" x2="202.9" y2="127.2" stroke="rgb(0,0,0)"  stroke-width="1.0"/>
<line x1="220.4" y1="163.1" x2="214.3" y2="150.6" stroke="rgb(0,0,0)"  stroke-width="1.0"/>
<line x1="225.8" y1="160.5" x2="219.7" y2="147.9" stroke="rgb(0,0,0)"  stroke-width="1.0"/>
<line x1="50.8" y1="112.5" x2="73.1" y2="127.7" stroke="rgb(0,0,0)"  stroke-width="1.0"/>
<line x1="53.1" y1="109.1" x2="75.5" y2="124.2" stroke="rgb(0,0,0)"  stroke-width="1.0"/>
<line x1="48.4" y1="116.0" x2="70.8" y2="131.1" stroke="rgb(0,0,0)"  stroke-width="1.0"/>
<line x1="124.5" y1="75.1" x2="146.7" y2="90.2" stroke="rgb(0,0,0)"  stroke-width="1.0"/>
<line x1="121.2" y1="80.1" x2="143.3" y2="95.2" stroke="rgb(0,0,0)"  stroke-width="1.0"/>
<line x1="306.7" y1="51.4" x2="293.9" y2="75.1" stroke="rgb(0,0,0)"  stroke-width="1.0"/>
<line x1="106.2" y1="150.1" x2="142.2" y2="132.5" stroke="rgb(0,0,0)"  stroke-width="1.0"/>
<line x1="169.5" y1="80.8" x2="145.0" y2="92.7" stroke="rgb(0,0,0)"  stroke-width="1.0"/>
<line x1="247.2" y1="120.0" x2="252.0" y2="93.4" stroke="rgb(0,0,0)"  stroke-width="1.0"/>
<line x1="267.2" y1="78.8" x2="293.9" y2="75.1" stroke="rgb(0,0,0)"  stroke-width="1.0"/>
<line x1="293.9" y1="75.1" x2="311.4" y2="111.1" stroke="rgb(0,0,0)"  stroke-width="1.0"/>
<line x1="290.0" y1="83.7" x2="302.3" y2="108.9" stroke="rgb(0,0,0)"  stroke-width="1.0"/>
<line x1="311.4" y1="111.1" x2="282.6" y2="139.0" stroke="rgb(0,0,0)"  stroke-width="1.0"/>
<line x1="282.6" y1="139.0" x2="247.2" y2="120.0" stroke="rgb(0,0,0)"  stroke-width="1.0"/>
<line x1="280.7" y1="129.8" x2="255.9" y2="116.5" stroke="rgb(0,0,0)"  stroke-width="1.0"/>
<text x="205.270027" y="145.554701" fill="rgb(178,178,0)"  stroke="rgb(178,178,0)" stroke-width="1" font-size="16" >S</text>
<text x="248.287610" y="88.597268" fill="rgb(178,178,0)"  stroke="rgb(178,178,0)" stroke-width="1" font-size="16" >S</text>
<text x="169.319376" y="162.923735" fill="rgb(12,12,255)"  stroke="rgb(12,12,255)" stroke-width="1" font-size="16" >N</text>
<text x="169.319376" y="178.923735" fill="rgb(12,12,255)"  stroke="rgb(12,12,255)" stroke-width="1" font-size="16" >H</text>
<text x="187.900993" y="109.604050" fill="rgb(255,12,12)"  stroke="rgb(255,12,12)" stroke-width="1" font-size="16" >O</text>
<text x="222.842775" y="181.505352" fill="rgb(255,12,12)"  stroke="rgb(255,12,12)" stroke-width="1" font-size="16" >O</text>
<text x="22.000000" y="113.241798" fill="rgb(102,102,102)"  stroke="rgb(102,102,102)" stroke-width="1" font-size="16" >HC</text>
<text x="106.105016" y="78.295165" fill="rgb(255,12,12)"  stroke="rgb(255,12,12)" stroke-width="1" font-size="16" >O</text>
<text x="306.860203" y="48.000000" fill="rgb(30,239,30)"  stroke="rgb(30,239,30)" stroke-width="1" font-size="16" >Cl</text>
<text x="175.178575" y="83.145496" fill="rgb(255,12,12)"  stroke="rgb(255,12,12)" stroke-width="1" font-size="16" >OH</text>
<text font-size="18.000000" fill ="black" font-family="sans-serif"
x="10.000000" y="20.000000" ></text>
<title> - OBDepict</title>
</svg>
