<?xml version="1.0"?>
<svg xmlns="http://www.w3.org/2000/svg"
xmlns:xlink="http://www.w3.org/1999/xlink" xmlns:cml="http://www.xml-cml.org/schema" width="332.197" height="450.44" x="0" y="0" font-family="sans-serif" stroke="rgb(0,0,0)" stroke-width="1"  stroke-linecap="round">
<rect x="0%" y="0%" width="100%" height="100%" stroke-width="0" fill="rgb(255,255,255)"  />
<line x1="217.1" y1="230.8" x2="251.6" y2="250.9" stroke="rgb(0,0,0)"  stroke-width="1.0"/>
<line x1="158.6" y1="179.3" x2="139.2" y2="159.9" stroke="rgb(0,0,0)"  stroke-width="1.0"/>
<line x1="162.9" y1="175.0" x2="143.5" y2="155.6" stroke="rgb(0,0,0)"  stroke-width="1.0"/>
<line x1="111.3" y1="212.5" x2="91.9" y2="193.3" stroke="rgb(0,0,0)"  stroke-width="1.0"/>
<line x1="115.5" y1="208.3" x2="96.2" y2="189.0" stroke="rgb(0,0,0)"  stroke-width="1.0"/>
<line x1="217.1" y1="270.8" x2="240.0" y2="284.4" stroke="rgb(0,0,0)"  stroke-width="1.0"/>
<line x1="251.6" y1="250.9" x2="274.9" y2="264.3" stroke="rgb(0,0,0)"  stroke-width="1.0"/>
<line x1="253.7" y1="247.2" x2="277.0" y2="260.7" stroke="rgb(0,0,0)"  stroke-width="1.0"/>
<line x1="249.5" y1="254.5" x2="272.8" y2="268.0" stroke="rgb(0,0,0)"  stroke-width="1.0"/>
<line x1="182.2" y1="133.3" x2="175.3" y2="107.1" stroke="rgb(0,0,0)"  stroke-width="1.0"/>
<line x1="182.0" y1="303.9" x2="181.8" y2="330.5" stroke="rgb(0,0,0)"  stroke-width="1.0"/>
<line x1="175.3" y1="107.1" x2="203.4" y2="78.8" stroke="rgb(0,0,0)"  stroke-width="1.0"/>
<line x1="78.8" y1="270.8" x2="65.4" y2="294.1" stroke="rgb(0,0,0)"  stroke-width="1.0"/>
<line x1="78.8" y1="270.8" x2="52.5" y2="263.5" stroke="rgb(0,0,0)"  stroke-width="1.0"/>
<line x1="203.4" y1="78.8" x2="196.4" y2="52.6" stroke="rgb(0,0,0)"  stroke-width="1.0"/>
<line x1="199.3" y1="79.9" x2="192.3" y2="53.6" stroke="rgb(0,0,0)"  stroke-width="1.0"/>
<line x1="207.5" y1="77.7" x2="200.4" y2="51.5" stroke="rgb(0,0,0)"  stroke-width="1.0"/>
<line x1="216.1" y1="390.5" x2="239.3" y2="403.9" stroke="rgb(0,0,0)"  stroke-width="1.0"/>
<line x1="182.5" y1="210.4" x2="221.0" y2="200.0" stroke="rgb(0,0,0)"  stroke-width="1.0"/>
<line x1="221.0" y1="200.0" x2="223.1" y2="160.1" stroke="rgb(0,0,0)"  stroke-width="1.0"/>
<line x1="214.1" y1="193.7" x2="215.6" y2="165.7" stroke="rgb(0,0,0)"  stroke-width="1.0"/>
<line x1="223.1" y1="160.1" x2="197.7" y2="150.5" stroke="rgb(0,0,0)"  stroke-width="1.0"/>
<line x1="177.4" y1="156.1" x2="160.7" y2="177.1" stroke="rgb(0,0,0)"  stroke-width="1.0"/>
<line x1="160.7" y1="177.1" x2="182.5" y2="210.4" stroke="rgb(0,0,0)"  stroke-width="1.0"/>
<line x1="258.4" y1="141.7" x2="223.1" y2="160.1" stroke="rgb(0,0,0)"  stroke-width="1.0"/>
<line x1="221.0" y1="200.0" x2="254.6" y2="221.8" stroke="rgb(0,0,0)"  stroke-width="1.0"/>
<line x1="254.6" y1="221.8" x2="290.4" y2="203.6" stroke="rgb(0,0,0)"  stroke-width="1.0"/>
<line x1="256.7" y1="212.6" x2="281.7" y2="199.9" stroke="rgb(0,0,0)"  stroke-width="1.0"/>
<line x1="290.4" y1="203.6" x2="292.2" y2="163.6" stroke="rgb(0,0,0)"  stroke-width="1.0"/>
<line x1="292.2" y1="163.6" x2="258.4" y2="141.7" stroke="rgb(0,0,0)"  stroke-width="1.0"/>
<line x1="283.2" y1="166.4" x2="259.5" y2="151.0" stroke="rgb(0,0,0)"  stroke-width="1.0"/>
<line x1="182.5" y1="210.4" x2="217.1" y2="230.8" stroke="rgb(0,0,0)"  stroke-width="1.0"/>
<line x1="217.1" y1="230.8" x2="217.1" y2="270.8" stroke="rgb(0,0,0)"  stroke-width="1.0"/>
<line x1="209.9" y1="236.8" x2="209.9" y2="264.8" stroke="rgb(0,0,0)"  stroke-width="1.0"/>
<line x1="217.1" y1="270.8" x2="193.4" y2="284.4" stroke="rgb(0,0,0)"  stroke-width="1.0"/>
<line x1="170.9" y1="284.3" x2="147.5" y2="270.8" stroke="rgb(0,0,0)"  stroke-width="1.0"/>
<line x1="147.5" y1="270.8" x2="147.9" y2="230.8" stroke="rgb(0,0,0)"  stroke-width="1.0"/>
<line x1="154.8" y1="264.9" x2="155.0" y2="236.9" stroke="rgb(0,0,0)"  stroke-width="1.0"/>
<line x1="147.9" y1="230.8" x2="182.5" y2="210.4" stroke="rgb(0,0,0)"  stroke-width="1.0"/>
<line x1="147.9" y1="230.8" x2="113.4" y2="210.4" stroke="rgb(0,0,0)"  stroke-width="1.0"/>
<line x1="113.4" y1="210.4" x2="78.8" y2="230.8" stroke="rgb(0,0,0)"  stroke-width="1.0"/>
<line x1="78.8" y1="230.8" x2="78.8" y2="270.8" stroke="rgb(0,0,0)"  stroke-width="1.0"/>
<line x1="78.8" y1="270.8" x2="113.4" y2="290.4" stroke="rgb(0,0,0)"  stroke-width="1.0"/>
<line x1="113.4" y1="290.4" x2="147.5" y2="270.8" stroke="rgb(0,0,0)"  stroke-width="1.0"/>
<line x1="181.8" y1="330.5" x2="146.9" y2="350.2" stroke="rgb(0,0,0)"  stroke-width="1.0"/>
<line x1="180.1" y1="339.7" x2="155.6" y2="353.6" stroke="rgb(0,0,0)"  stroke-width="1.0"/>
<line x1="146.9" y1="350.2" x2="146.7" y2="390.2" stroke="rgb(0,0,0)"  stroke-width="1.0"/>
<line x1="146.7" y1="390.2" x2="181.3" y2="410.4" stroke="rgb(0,0,0)"  stroke-width="1.0"/>
<line x1="155.5" y1="387.0" x2="179.8" y2="401.2" stroke="rgb(0,0,0)"  stroke-width="1.0"/>
<line x1="181.3" y1="410.4" x2="216.1" y2="390.5" stroke="rgb(0,0,0)"  stroke-width="1.0"/>
<line x1="216.1" y1="390.5" x2="216.4" y2="350.9" stroke="rgb(0,0,0)"  stroke-width="1.0"/>
<line x1="209.0" y1="384.5" x2="209.2" y2="356.8" stroke="rgb(0,0,0)"  stroke-width="1.0"/>
<line x1="216.4" y1="350.9" x2="181.8" y2="330.5" stroke="rgb(0,0,0)"  stroke-width="1.0"/>
<text x="179.497446" y="153.864828" fill="rgb(12,12,255)"  stroke="rgb(12,12,255)" stroke-width="1" font-size="16" >N</text>
<text x="126.147897" y="156.542249" fill="rgb(255,12,12)"  stroke="rgb(255,12,12)" stroke-width="1" font-size="16" >O</text>
<text x="176.155520" y="298.862683" fill="rgb(12,12,255)"  stroke="rgb(12,12,255)" stroke-width="1" font-size="16" >N</text>
<text x="78.822546" y="189.985756" fill="rgb(255,12,12)"  stroke="rgb(255,12,12)" stroke-width="1" font-size="16" >O</text>
<text x="247.225215" y="299.027597" fill="rgb(12,12,255)"  stroke="rgb(12,12,255)" stroke-width="1" font-size="16" >NH</text>
<text x="271.225215" y="302.707597" fill="rgb(12,12,255)"  stroke="rgb(12,12,255)" stroke-width="1" font-size="13" >2</text>
<text x="280.177197" y="278.791728" fill="rgb(12,12,255)"  stroke="rgb(12,12,255)" stroke-width="1" font-size="16" >N</text>
<text x="32.897158" y="313.413883" fill="rgb(102,102,102)"  stroke="rgb(102,102,102)" stroke-width="1" font-size="16" >H</text>
<text x="44.897158" y="317.093883" fill="rgb(102,102,102)"  stroke="rgb(102,102,102)" stroke-width="1" font-size="13" >3</text>
<text x="51.397158" y="313.413883" fill="rgb(102,102,102)"  stroke="rgb(102,102,102)" stroke-width="1" font-size="16" >C</text>
<text x="14.000000" y="268.091746" fill="rgb(102,102,102)"  stroke="rgb(102,102,102)" stroke-width="1" font-size="16" >H</text>
<text x="26.000000" y="271.771746" fill="rgb(102,102,102)"  stroke="rgb(102,102,102)" stroke-width="1" font-size="13" >3</text>
<text x="32.500000" y="268.091746" fill="rgb(102,102,102)"  stroke="rgb(102,102,102)" stroke-width="1" font-size="16" >C</text>
<text x="175.025267" y="48.000000" fill="rgb(102,102,102)"  stroke="rgb(102,102,102)" stroke-width="1" font-size="16" >HC</text>
<text x="246.555860" y="418.439592" fill="rgb(102,102,102)"  stroke="rgb(102,102,102)" stroke-width="1" font-size="16" >CH</text>
<text x="270.555860" y="422.119592" fill="rgb(102,102,102)"  stroke="rgb(102,102,102)" stroke-width="1" font-size="13" >3</text>
<text font-size="18.000000" fill ="black" font-family="sans-serif"
x="10.000000" y="20.000000" ></text>
<title> - OBDepict</title>
</svg>
