<?xml version="1.0"?>
<svg xmlns="http://www.w3.org/2000/svg"
xmlns:xlink="http://www.w3.org/1999/xlink" xmlns:cml="http://www.xml-cml.org/schema" width="599.607" height="261.618" x="0" y="0" font-family="sans-serif" stroke="rgb(0,0,0)" stroke-width="1"  stroke-linecap="round">
<rect x="0%" y="0%" width="100%" height="100%" stroke-width="0" fill="rgb(255,255,255)"  />
<line x1="409.8" y1="108.1" x2="386.5" y2="121.6" stroke="rgb(0,0,0)"  stroke-width="1.0"/>
<line x1="282.4" y1="181.6" x2="259.1" y2="168.1" stroke="rgb(0,0,0)"  stroke-width="1.0"/>
<line x1="525.1" y1="81.6" x2="490.3" y2="101.6" stroke="rgb(0,0,0)"  stroke-width="1.0"/>
<line x1="317.2" y1="161.6" x2="282.4" y2="181.6" stroke="rgb(0,0,0)"  stroke-width="1.0"/>
<line x1="548.4" y1="68.1" x2="525.1" y2="81.6" stroke="rgb(0,0,0)"  stroke-width="1.0"/>
<line x1="550.5" y1="71.8" x2="527.2" y2="85.3" stroke="rgb(0,0,0)"  stroke-width="1.0"/>
<line x1="546.3" y1="64.5" x2="523.0" y2="78.0" stroke="rgb(0,0,0)"  stroke-width="1.0"/>
<line x1="410.1" y1="76.6" x2="417.1" y2="88.9" stroke="rgb(0,0,0)"  stroke-width="1.0"/>
<line x1="404.9" y1="79.6" x2="411.9" y2="91.8" stroke="rgb(0,0,0)"  stroke-width="1.0"/>
<line x1="431.9" y1="126.4" x2="424.9" y2="114.4" stroke="rgb(0,0,0)"  stroke-width="1.0"/>
<line x1="437.1" y1="123.4" x2="430.1" y2="111.4" stroke="rgb(0,0,0)"  stroke-width="1.0"/>
<line x1="444.5" y1="88.1" x2="432.3" y2="95.1" stroke="rgb(0,0,0)"  stroke-width="1.0"/>
<line x1="279.4" y1="208.6" x2="279.4" y2="181.6" stroke="rgb(0,0,0)"  stroke-width="1.0"/>
<line x1="285.4" y1="208.6" x2="285.4" y2="181.6" stroke="rgb(0,0,0)"  stroke-width="1.0"/>
<line x1="490.3" y1="101.6" x2="467.0" y2="88.1" stroke="rgb(0,0,0)"  stroke-width="1.0"/>
<line x1="213.1" y1="208.6" x2="213.1" y2="181.6" stroke="rgb(0,0,0)"  stroke-width="1.0"/>
<line x1="213.1" y1="101.6" x2="180.8" y2="78.0" stroke="rgb(0,0,0)"  stroke-width="1.0"/>
<line x1="180.8" y1="78.0" x2="193.1" y2="40.0" stroke="rgb(0,0,0)"  stroke-width="1.0"/>
<line x1="193.1" y1="40.0" x2="233.1" y2="40.0" stroke="rgb(0,0,0)"  stroke-width="1.0"/>
<line x1="233.1" y1="40.0" x2="245.5" y2="78.0" stroke="rgb(0,0,0)"  stroke-width="1.0"/>
<line x1="245.5" y1="78.0" x2="213.1" y2="101.6" stroke="rgb(0,0,0)"  stroke-width="1.0"/>
<line x1="236.6" y1="168.1" x2="213.1" y2="181.6" stroke="rgb(0,0,0)"  stroke-width="1.0"/>
<line x1="213.1" y1="181.6" x2="178.6" y2="161.6" stroke="rgb(0,0,0)"  stroke-width="1.0"/>
<line x1="178.6" y1="161.6" x2="178.6" y2="121.6" stroke="rgb(0,0,0)"  stroke-width="1.0"/>
<line x1="185.8" y1="155.6" x2="185.8" y2="127.6" stroke="rgb(0,0,0)"  stroke-width="1.0"/>
<line x1="178.6" y1="121.6" x2="213.1" y2="101.6" stroke="rgb(0,0,0)"  stroke-width="1.0"/>
<line x1="213.1" y1="101.6" x2="247.9" y2="121.6" stroke="rgb(0,0,0)"  stroke-width="1.0"/>
<line x1="247.9" y1="121.6" x2="247.9" y2="148.6" stroke="rgb(0,0,0)"  stroke-width="1.0"/>
<line x1="143.8" y1="101.6" x2="178.6" y2="121.6" stroke="rgb(0,0,0)"  stroke-width="1.0"/>
<line x1="178.6" y1="161.6" x2="143.8" y2="181.6" stroke="rgb(0,0,0)"  stroke-width="1.0"/>
<line x1="143.8" y1="181.6" x2="109.3" y2="161.6" stroke="rgb(0,0,0)"  stroke-width="1.0"/>
<line x1="142.3" y1="172.4" x2="118.1" y2="158.4" stroke="rgb(0,0,0)"  stroke-width="1.0"/>
<line x1="109.3" y1="161.6" x2="109.3" y2="121.6" stroke="rgb(0,0,0)"  stroke-width="1.0"/>
<line x1="109.3" y1="121.6" x2="143.8" y2="101.6" stroke="rgb(0,0,0)"  stroke-width="1.0"/>
<line x1="118.1" y1="124.8" x2="142.3" y2="110.9" stroke="rgb(0,0,0)"  stroke-width="1.0"/>
<line x1="85.8" y1="108.1" x2="109.3" y2="121.6" stroke="rgb(0,0,0)"  stroke-width="1.0"/>
<line x1="109.3" y1="161.6" x2="85.8" y2="175.1" stroke="rgb(0,0,0)"  stroke-width="1.0"/>
<line x1="63.3" y1="175.1" x2="40.0" y2="161.6" stroke="rgb(0,0,0)"  stroke-width="1.0"/>
<line x1="40.0" y1="161.6" x2="40.0" y2="121.6" stroke="rgb(0,0,0)"  stroke-width="1.0"/>
<line x1="40.0" y1="121.6" x2="63.3" y2="108.1" stroke="rgb(0,0,0)"  stroke-width="1.0"/>
<line x1="317.2" y1="161.6" x2="351.7" y2="181.6" stroke="rgb(0,0,0)"  stroke-width="1.0"/>
<line x1="351.7" y1="181.6" x2="386.5" y2="161.6" stroke="rgb(0,0,0)"  stroke-width="1.0"/>
<line x1="353.3" y1="172.4" x2="377.7" y2="158.4" stroke="rgb(0,0,0)"  stroke-width="1.0"/>
<line x1="386.5" y1="161.6" x2="386.5" y2="121.6" stroke="rgb(0,0,0)"  stroke-width="1.0"/>
<line x1="386.5" y1="121.6" x2="351.7" y2="101.6" stroke="rgb(0,0,0)"  stroke-width="1.0"/>
<line x1="377.7" y1="124.9" x2="353.3" y2="110.8" stroke="rgb(0,0,0)"  stroke-width="1.0"/>
<line x1="351.7" y1="101.6" x2="317.2" y2="121.6" stroke="rgb(0,0,0)"  stroke-width="1.0"/>
<line x1="317.2" y1="121.6" x2="317.2" y2="161.6" stroke="rgb(0,0,0)"  stroke-width="1.0"/>
<line x1="324.4" y1="127.6" x2="324.4" y2="155.6" stroke="rgb(0,0,0)"  stroke-width="1.0"/>
<text x="241.882736" y="169.616855" fill="rgb(12,12,255)"  stroke="rgb(12,12,255)" stroke-width="1" font-size="16" >N</text>
<text x="415.020569" y="109.615716" fill="rgb(178,178,0)"  stroke="rgb(178,178,0)" stroke-width="1" font-size="16" >S</text>
<text x="553.607443" y="69.614956" fill="rgb(102,102,102)"  stroke="rgb(102,102,102)" stroke-width="1" font-size="16" >CH</text>
<text x="395.020189" y="74.870813" fill="rgb(255,12,12)"  stroke="rgb(255,12,12)" stroke-width="1" font-size="16" >O</text>
<text x="435.020949" y="144.161826" fill="rgb(255,12,12)"  stroke="rgb(255,12,12)" stroke-width="1" font-size="16" >O</text>
<text x="449.765471" y="89.615336" fill="rgb(12,12,255)"  stroke="rgb(12,12,255)" stroke-width="1" font-size="16" >N</text>
<text x="449.765471" y="73.615336" fill="rgb(12,12,255)"  stroke="rgb(12,12,255)" stroke-width="1" font-size="16" >H</text>
<text x="276.428846" y="229.617994" fill="rgb(255,12,12)"  stroke="rgb(255,12,12)" stroke-width="1" font-size="16" >O</text>
<text x="68.546111" y="189.617235" fill="rgb(255,12,12)"  stroke="rgb(255,12,12)" stroke-width="1" font-size="16" >O</text>
<text x="68.546111" y="109.615716" fill="rgb(255,12,12)"  stroke="rgb(255,12,12)" stroke-width="1" font-size="16" >O</text>
<text x="209.137833" y="229.617994" fill="rgb(102,102,102)"  stroke="rgb(102,102,102)" stroke-width="1" font-size="16" >CH</text>
<text x="233.137833" y="233.297994" fill="rgb(102,102,102)"  stroke="rgb(102,102,102)" stroke-width="1" font-size="13" >3</text>
<text font-size="18.000000" fill ="black" font-family="sans-serif"
x="10.000000" y="20.000000" ></text>
<title> - OBDepict</title>
</svg>
