<?xml version="1.0"?>
<svg xmlns="http://www.w3.org/2000/svg"
xmlns:xlink="http://www.w3.org/1999/xlink" xmlns:cml="http://www.xml-cml.org/schema" width="313.389" height="440.085" x="0" y="0" font-family="sans-serif" stroke="rgb(0,0,0)" stroke-width="1"  stroke-linecap="round">
<rect x="0%" y="0%" width="100%" height="100%" stroke-width="0" fill="rgb(255,255,255)"  />
<line x1="109.3" y1="100.0" x2="86.0" y2="86.5" stroke="rgb(0,0,0)"  stroke-width="1.0"/>
<line x1="213.4" y1="360.1" x2="213.4" y2="320.1" stroke="rgb(0,0,0)"  stroke-width="1.0"/>
<line x1="178.6" y1="260.1" x2="178.6" y2="220.0" stroke="rgb(0,0,0)"  stroke-width="1.0"/>
<line x1="213.4" y1="387.1" x2="213.4" y2="360.1" stroke="rgb(0,0,0)"  stroke-width="1.0"/>
<line x1="209.2" y1="387.1" x2="209.2" y2="360.1" stroke="rgb(0,0,0)"  stroke-width="1.0"/>
<line x1="217.6" y1="387.1" x2="217.6" y2="360.1" stroke="rgb(0,0,0)"  stroke-width="1.0"/>
<line x1="74.8" y1="53.0" x2="74.8" y2="67.0" stroke="rgb(0,0,0)"  stroke-width="1.0"/>
<line x1="177.1" y1="222.6" x2="142.6" y2="202.6" stroke="rgb(0,0,0)"  stroke-width="1.0"/>
<line x1="180.1" y1="217.4" x2="145.6" y2="197.4" stroke="rgb(0,0,0)"  stroke-width="1.0"/>
<line x1="202.1" y1="273.6" x2="178.6" y2="260.1" stroke="rgb(0,0,0)"  stroke-width="1.0"/>
<line x1="49.8" y1="90.9" x2="62.0" y2="83.9" stroke="rgb(0,0,0)"  stroke-width="1.0"/>
<line x1="52.8" y1="96.1" x2="65.0" y2="89.1" stroke="rgb(0,0,0)"  stroke-width="1.0"/>
<line x1="144.1" y1="200.0" x2="144.1" y2="160.0" stroke="rgb(0,0,0)"  stroke-width="1.0"/>
<line x1="213.4" y1="320.1" x2="213.4" y2="293.1" stroke="rgb(0,0,0)"  stroke-width="1.0"/>
<line x1="153.8" y1="270.9" x2="177.1" y2="257.5" stroke="rgb(0,0,0)"  stroke-width="1.0"/>
<line x1="156.8" y1="276.1" x2="180.1" y2="262.6" stroke="rgb(0,0,0)"  stroke-width="1.0"/>
<line x1="144.1" y1="53.0" x2="144.1" y2="80.0" stroke="rgb(0,0,0)"  stroke-width="1.0"/>
<line x1="173.4" y1="320.1" x2="213.4" y2="320.1" stroke="rgb(0,0,0)"  stroke-width="1.0"/>
<line x1="253.4" y1="320.1" x2="213.4" y2="320.1" stroke="rgb(0,0,0)"  stroke-width="1.0"/>
<line x1="159.9" y1="296.8" x2="173.4" y2="320.1" stroke="rgb(0,0,0)"  stroke-width="1.0"/>
<line x1="266.9" y1="343.4" x2="253.4" y2="320.1" stroke="rgb(0,0,0)"  stroke-width="1.0"/>
<line x1="109.3" y1="100.0" x2="144.1" y2="80.0" stroke="rgb(0,0,0)"  stroke-width="1.0"/>
<line x1="118.1" y1="103.3" x2="142.5" y2="89.2" stroke="rgb(0,0,0)"  stroke-width="1.0"/>
<line x1="144.1" y1="80.0" x2="178.6" y2="100.0" stroke="rgb(0,0,0)"  stroke-width="1.0"/>
<line x1="178.6" y1="100.0" x2="178.6" y2="140.0" stroke="rgb(0,0,0)"  stroke-width="1.0"/>
<line x1="171.4" y1="106.0" x2="171.4" y2="134.0" stroke="rgb(0,0,0)"  stroke-width="1.0"/>
<line x1="178.6" y1="140.0" x2="144.1" y2="160.0" stroke="rgb(0,0,0)"  stroke-width="1.0"/>
<line x1="144.1" y1="160.0" x2="109.3" y2="140.0" stroke="rgb(0,0,0)"  stroke-width="1.0"/>
<line x1="142.5" y1="150.8" x2="118.1" y2="136.8" stroke="rgb(0,0,0)"  stroke-width="1.0"/>
<line x1="109.3" y1="140.0" x2="109.3" y2="100.0" stroke="rgb(0,0,0)"  stroke-width="1.0"/>
<text x="79.557337" y="75.977493" fill="rgb(12,12,255)"  stroke="rgb(12,12,255)" stroke-width="1" font-size="16" >+</text>
<text x="68.757337" y="88.009493" fill="rgb(12,12,255)"  stroke="rgb(12,12,255)" stroke-width="1" font-size="16" >N</text>
<text x="207.374468" y="408.085433" fill="rgb(102,102,102)"  stroke="rgb(102,102,102)" stroke-width="1" font-size="16" >CH</text>
<text x="79.557337" y="25.888000" fill="rgb(255,12,12)"  stroke="rgb(255,12,12)" stroke-width="1" font-size="16" >_</text>
<text x="68.757337" y="48.000000" fill="rgb(255,12,12)"  stroke="rgb(255,12,12)" stroke-width="1" font-size="16" >O</text>
<text x="207.374468" y="288.056955" fill="rgb(12,12,255)"  stroke="rgb(12,12,255)" stroke-width="1" font-size="16" >NH</text>
<text x="34.000000" y="108.014239" fill="rgb(255,12,12)"  stroke="rgb(255,12,12)" stroke-width="1" font-size="16" >O</text>
<text x="138.068327" y="288.056955" fill="rgb(255,12,12)"  stroke="rgb(255,12,12)" stroke-width="1" font-size="16" >O</text>
<text x="138.068327" y="48.000000" fill="rgb(30,239,30)"  stroke="rgb(30,239,30)" stroke-width="1" font-size="16" >Cl</text>
<text x="127.360229" y="293.512795" fill="rgb(102,102,102)"  stroke="rgb(102,102,102)" stroke-width="1" font-size="16" >H</text>
<text x="139.360229" y="297.192795" fill="rgb(102,102,102)"  stroke="rgb(102,102,102)" stroke-width="1" font-size="13" >3</text>
<text x="145.860229" y="293.512795" fill="rgb(102,102,102)"  stroke="rgb(102,102,102)" stroke-width="1" font-size="16" >C</text>
<text x="269.388706" y="362.620100" fill="rgb(102,102,102)"  stroke="rgb(102,102,102)" stroke-width="1" font-size="16" >CH</text>
<text x="293.388706" y="366.300100" fill="rgb(102,102,102)"  stroke="rgb(102,102,102)" stroke-width="1" font-size="13" >3</text>
<text font-size="18.000000" fill ="black" font-family="sans-serif"
x="10.000000" y="20.000000" ></text>
<title> - OBDepict</title>
</svg>
