<?xml version="1.0"?>
<svg xmlns="http://www.w3.org/2000/svg"
xmlns:xlink="http://www.w3.org/1999/xlink" xmlns:cml="http://www.xml-cml.org/schema" width="253.184" height="240.74" x="0" y="0" font-family="sans-serif" stroke="rgb(0,0,0)" stroke-width="1"  stroke-linecap="round">
<rect x="0%" y="0%" width="100%" height="100%" stroke-width="0" fill="rgb(255,255,255)"  />
<line x1="143.4" y1="120.3" x2="143.4" y2="80.0" stroke="rgb(0,0,0)"  stroke-width="1.0"/>
<line x1="143.4" y1="120.3" x2="166.9" y2="106.7" stroke="rgb(0,0,0)"  stroke-width="1.0"/>
<line x1="143.4" y1="80.0" x2="143.4" y2="53.0" stroke="rgb(0,0,0)"  stroke-width="1.0"/>
<line x1="139.2" y1="80.0" x2="139.2" y2="53.0" stroke="rgb(0,0,0)"  stroke-width="1.0"/>
<line x1="147.6" y1="80.0" x2="147.6" y2="53.0" stroke="rgb(0,0,0)"  stroke-width="1.0"/>
<line x1="178.2" y1="180.4" x2="201.9" y2="194.2" stroke="rgb(0,0,0)"  stroke-width="1.0"/>
<line x1="108.9" y1="140.6" x2="108.9" y2="180.4" stroke="rgb(0,0,0)"  stroke-width="1.0"/>
<line x1="108.9" y1="180.4" x2="132.2" y2="193.8" stroke="rgb(0,0,0)"  stroke-width="1.0"/>
<line x1="154.7" y1="193.8" x2="178.2" y2="180.4" stroke="rgb(0,0,0)"  stroke-width="1.0"/>
<line x1="178.2" y1="180.4" x2="178.2" y2="140.6" stroke="rgb(0,0,0)"  stroke-width="1.0"/>
<line x1="178.2" y1="140.6" x2="143.4" y2="120.3" stroke="rgb(0,0,0)"  stroke-width="1.0"/>
<line x1="143.4" y1="120.3" x2="108.9" y2="140.6" stroke="rgb(0,0,0)"  stroke-width="1.0"/>
<line x1="108.9" y1="140.6" x2="74.8" y2="120.3" stroke="rgb(0,0,0)"  stroke-width="1.0"/>
<line x1="74.8" y1="120.3" x2="40.0" y2="140.6" stroke="rgb(0,0,0)"  stroke-width="1.0"/>
<line x1="40.0" y1="140.6" x2="40.0" y2="180.4" stroke="rgb(0,0,0)"  stroke-width="1.0"/>
<line x1="40.0" y1="180.4" x2="74.8" y2="200.2" stroke="rgb(0,0,0)"  stroke-width="1.0"/>
<line x1="74.8" y1="200.2" x2="108.9" y2="180.4" stroke="rgb(0,0,0)"  stroke-width="1.0"/>
<text x="172.183714" y="108.131958" fill="rgb(255,12,12)"  stroke="rgb(255,12,12)" stroke-width="1" font-size="16" >OH</text>
<text x="137.430459" y="208.240343" fill="rgb(12,12,255)"  stroke="rgb(12,12,255)" stroke-width="1" font-size="16" >N</text>
<text x="137.430459" y="224.240343" fill="rgb(12,12,255)"  stroke="rgb(12,12,255)" stroke-width="1" font-size="16" >H</text>
<text x="137.430459" y="48.000000" fill="rgb(102,102,102)"  stroke="rgb(102,102,102)" stroke-width="1" font-size="16" >CH</text>
<text x="209.184306" y="208.739867" fill="rgb(102,102,102)"  stroke="rgb(102,102,102)" stroke-width="1" font-size="16" >CH</text>
<text x="233.184306" y="212.419867" fill="rgb(102,102,102)"  stroke="rgb(102,102,102)" stroke-width="1" font-size="13" >3</text>
<text font-size="18.000000" fill ="black" font-family="sans-serif"
x="10.000000" y="20.000000" ></text>
<title> - OBDepict</title>
</svg>
