<?xml version="1.0"?>
<svg xmlns="http://www.w3.org/2000/svg"
xmlns:xlink="http://www.w3.org/1999/xlink" xmlns:cml="http://www.xml-cml.org/schema" width="421.627" height="283.574" x="0" y="0" font-family="sans-serif" stroke="rgb(0,0,0)" stroke-width="1"  stroke-linecap="round">
<rect x="0%" y="0%" width="100%" height="100%" stroke-width="0" fill="rgb(255,255,255)"  />
<line x1="293.7" y1="186.9" x2="316.9" y2="200.4" stroke="rgb(0,0,0)"  stroke-width="1.0"/>
<line x1="248.1" y1="200.4" x2="271.2" y2="186.9" stroke="rgb(0,0,0)"  stroke-width="1.0"/>
<line x1="74.8" y1="60.0" x2="109.4" y2="80.0" stroke="rgb(0,0,0)"  stroke-width="1.0"/>
<line x1="51.3" y1="46.5" x2="74.8" y2="60.0" stroke="rgb(0,0,0)"  stroke-width="1.0"/>
<line x1="53.4" y1="42.8" x2="76.9" y2="56.4" stroke="rgb(0,0,0)"  stroke-width="1.0"/>
<line x1="49.2" y1="50.1" x2="72.8" y2="63.6" stroke="rgb(0,0,0)"  stroke-width="1.0"/>
<line x1="212.9" y1="180.4" x2="248.1" y2="200.4" stroke="rgb(0,0,0)"  stroke-width="1.0"/>
<line x1="245.1" y1="227.6" x2="245.1" y2="200.4" stroke="rgb(0,0,0)"  stroke-width="1.0"/>
<line x1="251.1" y1="227.6" x2="251.1" y2="200.4" stroke="rgb(0,0,0)"  stroke-width="1.0"/>
<line x1="109.4" y1="80.0" x2="109.1" y2="106.9" stroke="rgb(0,0,0)"  stroke-width="1.0"/>
<line x1="120.2" y1="126.5" x2="144.0" y2="140.5" stroke="rgb(0,0,0)"  stroke-width="1.0"/>
<line x1="316.9" y1="200.4" x2="322.7" y2="226.9" stroke="rgb(0,0,0)"  stroke-width="1.0"/>
<line x1="338.4" y1="240.9" x2="365.1" y2="243.6" stroke="rgb(0,0,0)"  stroke-width="1.0"/>
<line x1="365.1" y1="243.6" x2="376.2" y2="219.4" stroke="rgb(0,0,0)"  stroke-width="1.0"/>
<line x1="361.1" y1="235.1" x2="368.8" y2="218.3" stroke="rgb(0,0,0)"  stroke-width="1.0"/>
<line x1="372.0" y1="198.8" x2="361.4" y2="189.1" stroke="rgb(0,0,0)"  stroke-width="1.0"/>
<line x1="340.3" y1="187.0" x2="316.9" y2="200.4" stroke="rgb(0,0,0)"  stroke-width="1.0"/>
<line x1="342.1" y1="194.2" x2="325.7" y2="203.6" stroke="rgb(0,0,0)"  stroke-width="1.0"/>
<line x1="212.9" y1="180.4" x2="178.6" y2="200.4" stroke="rgb(0,0,0)"  stroke-width="1.0"/>
<line x1="178.6" y1="200.4" x2="144.0" y2="180.4" stroke="rgb(0,0,0)"  stroke-width="1.0"/>
<line x1="177.0" y1="191.2" x2="152.8" y2="177.2" stroke="rgb(0,0,0)"  stroke-width="1.0"/>
<line x1="144.0" y1="180.4" x2="144.0" y2="140.5" stroke="rgb(0,0,0)"  stroke-width="1.0"/>
<line x1="144.0" y1="140.5" x2="178.6" y2="120.5" stroke="rgb(0,0,0)"  stroke-width="1.0"/>
<line x1="152.8" y1="143.8" x2="177.0" y2="129.8" stroke="rgb(0,0,0)"  stroke-width="1.0"/>
<line x1="178.6" y1="120.5" x2="212.9" y2="140.5" stroke="rgb(0,0,0)"  stroke-width="1.0"/>
<line x1="212.9" y1="140.5" x2="212.9" y2="180.4" stroke="rgb(0,0,0)"  stroke-width="1.0"/>
<line x1="205.7" y1="146.5" x2="205.7" y2="174.4" stroke="rgb(0,0,0)"  stroke-width="1.0"/>
<text x="276.422085" y="188.383731" fill="rgb(12,12,255)"  stroke="rgb(12,12,255)" stroke-width="1" font-size="16" >N</text>
<text x="276.422085" y="172.383731" fill="rgb(12,12,255)"  stroke="rgb(12,12,255)" stroke-width="1" font-size="16" >H</text>
<text x="319.438538" y="247.574873" fill="rgb(12,12,255)"  stroke="rgb(12,12,255)" stroke-width="1" font-size="16" >N</text>
<text x="319.438538" y="263.574873" fill="rgb(12,12,255)"  stroke="rgb(12,12,255)" stroke-width="1" font-size="16" >H</text>
<text x="345.782247" y="188.383731" fill="rgb(12,12,255)"  stroke="rgb(12,12,255)" stroke-width="1" font-size="16" >N</text>
<text x="375.626846" y="215.559143" fill="rgb(12,12,255)"  stroke="rgb(12,12,255)" stroke-width="1" font-size="16" >N</text>
<text x="22.000000" y="48.000000" fill="rgb(102,102,102)"  stroke="rgb(102,102,102)" stroke-width="1" font-size="16" >HC</text>
<text x="242.075652" y="248.575818" fill="rgb(255,12,12)"  stroke="rgb(255,12,12)" stroke-width="1" font-size="16" >O</text>
<text x="103.026514" y="127.862831" fill="rgb(255,12,12)"  stroke="rgb(255,12,12)" stroke-width="1" font-size="16" >O</text>
<text font-size="18.000000" fill ="black" font-family="sans-serif"
x="10.000000" y="20.000000" ></text>
<title> - OBDepict</title>
</svg>
