<?xml version="1.0"?>
<svg xmlns="http://www.w3.org/2000/svg"
xmlns:xlink="http://www.w3.org/1999/xlink" xmlns:cml="http://www.xml-cml.org/schema" width="338.551" height="287.653" x="0" y="0" font-family="sans-serif" stroke="rgb(0,0,0)" stroke-width="1"  stroke-linecap="round">
<rect x="0%" y="0%" width="100%" height="100%" stroke-width="0" fill="rgb(255,255,255)"  />
<line x1="218.6" y1="178.4" x2="178.6" y2="178.4" stroke="rgb(0,0,0)"  stroke-width="1.0"/>
<line x1="241.2" y1="145.3" x2="221.2" y2="179.9" stroke="rgb(0,0,0)"  stroke-width="1.0"/>
<line x1="236.0" y1="142.3" x2="216.0" y2="176.9" stroke="rgb(0,0,0)"  stroke-width="1.0"/>
<line x1="218.6" y1="109.1" x2="238.6" y2="143.8" stroke="rgb(0,0,0)"  stroke-width="1.0"/>
<line x1="74.5" y1="129.1" x2="109.3" y2="109.1" stroke="rgb(0,0,0)"  stroke-width="1.0"/>
<line x1="51.3" y1="142.6" x2="74.5" y2="129.1" stroke="rgb(0,0,0)"  stroke-width="1.0"/>
<line x1="49.1" y1="138.9" x2="72.4" y2="125.4" stroke="rgb(0,0,0)"  stroke-width="1.0"/>
<line x1="53.4" y1="146.2" x2="76.6" y2="132.7" stroke="rgb(0,0,0)"  stroke-width="1.0"/>
<line x1="238.6" y1="213.1" x2="218.6" y2="178.4" stroke="rgb(0,0,0)"  stroke-width="1.0"/>
<line x1="278.6" y1="213.1" x2="238.6" y2="213.1" stroke="rgb(0,0,0)"  stroke-width="1.0"/>
<line x1="289.4" y1="237.9" x2="276.0" y2="214.6" stroke="rgb(0,0,0)"  stroke-width="1.0"/>
<line x1="294.6" y1="234.9" x2="281.1" y2="211.6" stroke="rgb(0,0,0)"  stroke-width="1.0"/>
<line x1="292.1" y1="189.6" x2="278.6" y2="213.1" stroke="rgb(0,0,0)"  stroke-width="1.0"/>
<line x1="155.1" y1="122.6" x2="178.6" y2="109.1" stroke="rgb(0,0,0)"  stroke-width="1.0"/>
<line x1="109.3" y1="109.1" x2="132.6" y2="122.6" stroke="rgb(0,0,0)"  stroke-width="1.0"/>
<line x1="178.6" y1="178.4" x2="162.7" y2="200.3" stroke="rgb(0,0,0)"  stroke-width="1.0"/>
<line x1="142.8" y1="206.8" x2="117.0" y2="198.4" stroke="rgb(0,0,0)"  stroke-width="1.0"/>
<line x1="117.0" y1="198.4" x2="117.0" y2="158.4" stroke="rgb(0,0,0)"  stroke-width="1.0"/>
<line x1="124.2" y1="192.4" x2="124.2" y2="164.4" stroke="rgb(0,0,0)"  stroke-width="1.0"/>
<line x1="117.0" y1="158.4" x2="142.8" y2="150.0" stroke="rgb(0,0,0)"  stroke-width="1.0"/>
<line x1="162.9" y1="156.7" x2="178.6" y2="178.4" stroke="rgb(0,0,0)"  stroke-width="1.0"/>
<line x1="158.2" y1="162.6" x2="169.2" y2="177.7" stroke="rgb(0,0,0)"  stroke-width="1.0"/>
<line x1="82.4" y1="138.4" x2="47.7" y2="158.4" stroke="rgb(0,0,0)"  stroke-width="1.0"/>
<line x1="80.8" y1="147.6" x2="56.5" y2="161.6" stroke="rgb(0,0,0)"  stroke-width="1.0"/>
<line x1="47.7" y1="158.4" x2="47.7" y2="198.4" stroke="rgb(0,0,0)"  stroke-width="1.0"/>
<line x1="47.7" y1="198.4" x2="82.4" y2="218.4" stroke="rgb(0,0,0)"  stroke-width="1.0"/>
<line x1="56.5" y1="195.1" x2="80.8" y2="209.1" stroke="rgb(0,0,0)"  stroke-width="1.0"/>
<line x1="82.4" y1="218.4" x2="117.0" y2="198.4" stroke="rgb(0,0,0)"  stroke-width="1.0"/>
<line x1="117.0" y1="158.4" x2="82.4" y2="138.4" stroke="rgb(0,0,0)"  stroke-width="1.0"/>
<line x1="218.6" y1="109.1" x2="178.6" y2="109.1" stroke="rgb(0,0,0)"  stroke-width="1.0"/>
<line x1="212.6" y1="101.9" x2="184.6" y2="101.9" stroke="rgb(0,0,0)"  stroke-width="1.0"/>
<line x1="178.6" y1="109.1" x2="158.6" y2="74.5" stroke="rgb(0,0,0)"  stroke-width="1.0"/>
<line x1="158.6" y1="74.5" x2="178.6" y2="40.0" stroke="rgb(0,0,0)"  stroke-width="1.0"/>
<line x1="167.8" y1="73.0" x2="181.8" y2="48.8" stroke="rgb(0,0,0)"  stroke-width="1.0"/>
<line x1="178.6" y1="40.0" x2="218.6" y2="40.0" stroke="rgb(0,0,0)"  stroke-width="1.0"/>
<line x1="218.6" y1="40.0" x2="238.6" y2="74.5" stroke="rgb(0,0,0)"  stroke-width="1.0"/>
<line x1="215.3" y1="48.8" x2="229.3" y2="73.0" stroke="rgb(0,0,0)"  stroke-width="1.0"/>
<line x1="238.6" y1="74.5" x2="218.6" y2="109.1" stroke="rgb(0,0,0)"  stroke-width="1.0"/>
<text x="149.136635" y="154.046901" fill="rgb(12,12,255)"  stroke="rgb(12,12,255)" stroke-width="1" font-size="16" >N</text>
<text x="149.136635" y="218.887006" fill="rgb(178,178,0)"  stroke="rgb(178,178,0)" stroke-width="1" font-size="16" >S</text>
<text x="22.000000" y="157.076812" fill="rgb(102,102,102)"  stroke="rgb(102,102,102)" stroke-width="1" font-size="16" >HC</text>
<text x="292.550828" y="255.653163" fill="rgb(255,12,12)"  stroke="rgb(255,12,12)" stroke-width="1" font-size="16" >O</text>
<text x="292.550828" y="186.367572" fill="rgb(255,12,12)"  stroke="rgb(255,12,12)" stroke-width="1" font-size="16" >OH</text>
<text x="137.821734" y="137.079397" fill="rgb(255,12,12)"  stroke="rgb(255,12,12)" stroke-width="1" font-size="16" >O</text>
<text font-size="18.000000" fill ="black" font-family="sans-serif"
x="10.000000" y="20.000000" ></text>
<title> - OBDepict</title>
</svg>
