<?xml version="1.0"?>
<svg xmlns="http://www.w3.org/2000/svg"
xmlns:xlink="http://www.w3.org/1999/xlink" xmlns:cml="http://www.xml-cml.org/schema" width="364.439" height="355.77" x="0" y="0" font-family="sans-serif" stroke="rgb(0,0,0)" stroke-width="1"  stroke-linecap="round">
<rect x="0%" y="0%" width="100%" height="100%" stroke-width="0" fill="rgb(255,255,255)"  />
<line x1="99.9" y1="171.1" x2="106.5" y2="132.1" stroke="rgb(0,0,0)"  stroke-width="1.0"/>
<line x1="105.8" y1="172.1" x2="112.4" y2="133.2" stroke="rgb(0,0,0)"  stroke-width="1.0"/>
<line x1="133.8" y1="197.6" x2="102.8" y2="171.6" stroke="rgb(0,0,0)"  stroke-width="1.0"/>
<line x1="293.9" y1="286.6" x2="263.3" y2="260.8" stroke="rgb(0,0,0)"  stroke-width="1.0"/>
<line x1="314.5" y1="303.9" x2="293.9" y2="286.6" stroke="rgb(0,0,0)"  stroke-width="1.0"/>
<line x1="311.8" y1="307.1" x2="291.2" y2="289.8" stroke="rgb(0,0,0)"  stroke-width="1.0"/>
<line x1="317.2" y1="300.7" x2="296.7" y2="283.4" stroke="rgb(0,0,0)"  stroke-width="1.0"/>
<line x1="151.9" y1="52.1" x2="135.2" y2="74.0" stroke="rgb(0,0,0)"  stroke-width="1.0"/>
<line x1="147.2" y1="48.5" x2="130.4" y2="70.3" stroke="rgb(0,0,0)"  stroke-width="1.0"/>
<line x1="51.9" y1="110.9" x2="78.1" y2="104.4" stroke="rgb(0,0,0)"  stroke-width="1.0"/>
<line x1="53.3" y1="116.8" x2="79.5" y2="110.2" stroke="rgb(0,0,0)"  stroke-width="1.0"/>
<line x1="227.4" y1="199.7" x2="201.8" y2="209.3" stroke="rgb(0,0,0)"  stroke-width="1.0"/>
<line x1="215.7" y1="266.4" x2="194.6" y2="248.6" stroke="rgb(0,0,0)"  stroke-width="1.0"/>
<line x1="152.6" y1="289.3" x2="157.5" y2="262.6" stroke="rgb(0,0,0)"  stroke-width="1.0"/>
<line x1="263.3" y1="260.8" x2="237.8" y2="270.3" stroke="rgb(0,0,0)"  stroke-width="1.0"/>
<line x1="125.3" y1="311.3" x2="138.1" y2="306.6" stroke="rgb(0,0,0)"  stroke-width="1.0"/>
<line x1="88.6" y1="82.4" x2="78.8" y2="107.3" stroke="rgb(0,0,0)"  stroke-width="1.0"/>
<line x1="78.8" y1="107.3" x2="109.5" y2="132.6" stroke="rgb(0,0,0)"  stroke-width="1.0"/>
<line x1="109.5" y1="132.6" x2="132.2" y2="118.0" stroke="rgb(0,0,0)"  stroke-width="1.0"/>
<line x1="139.8" y1="98.4" x2="132.8" y2="72.2" stroke="rgb(0,0,0)"  stroke-width="1.0"/>
<line x1="132.8" y1="72.2" x2="106.3" y2="70.9" stroke="rgb(0,0,0)"  stroke-width="1.0"/>
<line x1="201.8" y1="209.3" x2="194.6" y2="248.6" stroke="rgb(0,0,0)"  stroke-width="1.0"/>
<line x1="193.6" y1="213.9" x2="188.6" y2="241.4" stroke="rgb(0,0,0)"  stroke-width="1.0"/>
<line x1="194.6" y1="248.6" x2="157.5" y2="262.6" stroke="rgb(0,0,0)"  stroke-width="1.0"/>
<line x1="157.5" y1="262.6" x2="126.6" y2="237.0" stroke="rgb(0,0,0)"  stroke-width="1.0"/>
<line x1="157.5" y1="253.2" x2="135.9" y2="235.3" stroke="rgb(0,0,0)"  stroke-width="1.0"/>
<line x1="126.6" y1="237.0" x2="133.8" y2="197.6" stroke="rgb(0,0,0)"  stroke-width="1.0"/>
<line x1="133.8" y1="197.6" x2="171.0" y2="183.8" stroke="rgb(0,0,0)"  stroke-width="1.0"/>
<line x1="141.9" y1="202.3" x2="167.9" y2="192.6" stroke="rgb(0,0,0)"  stroke-width="1.0"/>
<line x1="171.0" y1="183.8" x2="201.8" y2="209.3" stroke="rgb(0,0,0)"  stroke-width="1.0"/>
<text x="87.319555" y="78.322953" fill="rgb(12,12,255)"  stroke="rgb(12,12,255)" stroke-width="1" font-size="16" >N</text>
<text x="87.319555" y="62.322953" fill="rgb(12,12,255)"  stroke="rgb(12,12,255)" stroke-width="1" font-size="16" >H</text>
<text x="137.140681" y="118.986140" fill="rgb(178,178,0)"  stroke="rgb(178,178,0)" stroke-width="1" font-size="16" >S</text>
<text x="318.438799" y="320.271823" fill="rgb(102,102,102)"  stroke="rgb(102,102,102)" stroke-width="1" font-size="16" >CH</text>
<text x="151.473582" y="48.000000" fill="rgb(255,12,12)"  stroke="rgb(255,12,12)" stroke-width="1" font-size="16" >O</text>
<text x="34.000000" y="124.984832" fill="rgb(255,12,12)"  stroke="rgb(255,12,12)" stroke-width="1" font-size="16" >O</text>
<text x="233.623686" y="203.132578" fill="rgb(147,0,147)"  stroke="rgb(147,0,147)" stroke-width="1" font-size="16" >I</text>
<text x="219.625122" y="282.782419" fill="rgb(255,12,12)"  stroke="rgb(255,12,12)" stroke-width="1" font-size="16" >O</text>
<text x="144.307132" y="310.110871" fill="rgb(255,12,12)"  stroke="rgb(255,12,12)" stroke-width="1" font-size="16" >O</text>
<text x="87.147220" y="323.770252" fill="rgb(102,102,102)"  stroke="rgb(102,102,102)" stroke-width="1" font-size="16" >H</text>
<text x="99.147220" y="327.450252" fill="rgb(102,102,102)"  stroke="rgb(102,102,102)" stroke-width="1" font-size="13" >3</text>
<text x="105.647220" y="323.770252" fill="rgb(102,102,102)"  stroke="rgb(102,102,102)" stroke-width="1" font-size="16" >C</text>
<text font-size="18.000000" fill ="black" font-family="sans-serif"
x="10.000000" y="20.000000" ></text>
<title> - OBDepict</title>
</svg>
