<?xml version="1.0"?>
<svg xmlns="http://www.w3.org/2000/svg"
xmlns:xlink="http://www.w3.org/1999/xlink" xmlns:cml="http://www.xml-cml.org/schema" width="483.03" height="296.265" x="0" y="0" font-family="sans-serif" stroke="rgb(0,0,0)" stroke-width="1"  stroke-linecap="round">
<rect x="0%" y="0%" width="100%" height="100%" stroke-width="0" fill="rgb(255,255,255)"  />
<line x1="274.7" y1="105.1" x2="290.0" y2="127.5" stroke="rgb(0,0,0)"  stroke-width="1.0"/>
<line x1="234.1" y1="109.2" x2="274.7" y2="105.1" stroke="rgb(0,0,0)"  stroke-width="1.0"/>
<line x1="420.3" y1="73.2" x2="398.3" y2="106.8" stroke="rgb(0,0,0)"  stroke-width="1.0"/>
<line x1="435.7" y1="50.7" x2="420.3" y2="73.2" stroke="rgb(0,0,0)"  stroke-width="1.0"/>
<line x1="439.2" y1="53.1" x2="423.8" y2="75.6" stroke="rgb(0,0,0)"  stroke-width="1.0"/>
<line x1="432.2" y1="48.4" x2="416.9" y2="70.9" stroke="rgb(0,0,0)"  stroke-width="1.0"/>
<line x1="214.2" y1="143.6" x2="231.3" y2="107.9" stroke="rgb(0,0,0)"  stroke-width="1.0"/>
<line x1="219.6" y1="146.2" x2="236.8" y2="110.4" stroke="rgb(0,0,0)"  stroke-width="1.0"/>
<line x1="351.2" y1="115.1" x2="336.4" y2="137.6" stroke="rgb(0,0,0)"  stroke-width="1.0"/>
<line x1="288.8" y1="82.2" x2="277.4" y2="106.4" stroke="rgb(0,0,0)"  stroke-width="1.0"/>
<line x1="283.4" y1="79.6" x2="272.0" y2="103.8" stroke="rgb(0,0,0)"  stroke-width="1.0"/>
<line x1="177.1" y1="148.3" x2="216.9" y2="144.9" stroke="rgb(0,0,0)"  stroke-width="1.0"/>
<line x1="108.6" y1="211.3" x2="120.2" y2="187.1" stroke="rgb(0,0,0)"  stroke-width="1.0"/>
<line x1="398.3" y1="106.8" x2="371.3" y2="105.1" stroke="rgb(0,0,0)"  stroke-width="1.0"/>
<line x1="71.3" y1="155.6" x2="98.0" y2="153.9" stroke="rgb(0,0,0)"  stroke-width="1.0"/>
<line x1="75.8" y1="225.2" x2="90.1" y2="224.1" stroke="rgb(0,0,0)"  stroke-width="1.0"/>
<line x1="45.9" y1="180.6" x2="52.4" y2="168.0" stroke="rgb(0,0,0)"  stroke-width="1.0"/>
<line x1="336.4" y1="137.6" x2="345.2" y2="163.3" stroke="rgb(0,0,0)"  stroke-width="1.0"/>
<line x1="331.5" y1="145.6" x2="337.7" y2="163.8" stroke="rgb(0,0,0)"  stroke-width="1.0"/>
<line x1="338.9" y1="183.5" x2="316.9" y2="199.3" stroke="rgb(0,0,0)"  stroke-width="1.0"/>
<line x1="316.9" y1="199.3" x2="285.1" y2="176.8" stroke="rgb(0,0,0)"  stroke-width="1.0"/>
<line x1="285.1" y1="176.8" x2="293.3" y2="150.7" stroke="rgb(0,0,0)"  stroke-width="1.0"/>
<line x1="310.3" y1="138.1" x2="336.4" y2="137.6" stroke="rgb(0,0,0)"  stroke-width="1.0"/>
<line x1="120.2" y1="187.1" x2="98.0" y2="153.9" stroke="rgb(0,0,0)"  stroke-width="1.0"/>
<line x1="98.0" y1="153.9" x2="115.2" y2="118.0" stroke="rgb(0,0,0)"  stroke-width="1.0"/>
<line x1="107.1" y1="151.6" x2="119.1" y2="126.5" stroke="rgb(0,0,0)"  stroke-width="1.0"/>
<line x1="115.2" y1="118.0" x2="154.9" y2="114.9" stroke="rgb(0,0,0)"  stroke-width="1.0"/>
<line x1="154.9" y1="114.9" x2="177.1" y2="148.3" stroke="rgb(0,0,0)"  stroke-width="1.0"/>
<line x1="152.2" y1="123.9" x2="167.8" y2="147.3" stroke="rgb(0,0,0)"  stroke-width="1.0"/>
<line x1="177.1" y1="148.3" x2="160.0" y2="184.1" stroke="rgb(0,0,0)"  stroke-width="1.0"/>
<line x1="160.0" y1="184.1" x2="120.2" y2="187.1" stroke="rgb(0,0,0)"  stroke-width="1.0"/>
<line x1="153.5" y1="177.3" x2="125.6" y2="179.5" stroke="rgb(0,0,0)"  stroke-width="1.0"/>
<line x1="316.9" y1="199.3" x2="312.9" y2="239.3" stroke="rgb(0,0,0)"  stroke-width="1.0"/>
<line x1="309.2" y1="204.6" x2="306.3" y2="232.6" stroke="rgb(0,0,0)"  stroke-width="1.0"/>
<line x1="312.9" y1="239.3" x2="276.9" y2="256.3" stroke="rgb(0,0,0)"  stroke-width="1.0"/>
<line x1="276.9" y1="256.3" x2="243.7" y2="231.9" stroke="rgb(0,0,0)"  stroke-width="1.0"/>
<line x1="276.4" y1="246.9" x2="252.8" y2="229.6" stroke="rgb(0,0,0)"  stroke-width="1.0"/>
<line x1="243.7" y1="231.9" x2="247.8" y2="193.0" stroke="rgb(0,0,0)"  stroke-width="1.0"/>
<line x1="247.8" y1="193.0" x2="285.1" y2="176.8" stroke="rgb(0,0,0)"  stroke-width="1.0"/>
<line x1="256.2" y1="197.2" x2="282.5" y2="185.8" stroke="rgb(0,0,0)"  stroke-width="1.0"/>
<text x="291.276516" y="146.305763" fill="rgb(12,12,255)"  stroke="rgb(12,12,255)" stroke-width="1" font-size="16" >N</text>
<text x="343.475724" y="183.927162" fill="rgb(12,12,255)"  stroke="rgb(12,12,255)" stroke-width="1" font-size="16" >N</text>
<text x="437.030380" y="48.000000" fill="rgb(102,102,102)"  stroke="rgb(102,102,102)" stroke-width="1" font-size="16" >CH</text>
<text x="352.290212" y="112.239218" fill="rgb(178,178,0)"  stroke="rgb(178,178,0)" stroke-width="1" font-size="16" >S</text>
<text x="285.682706" y="77.155616" fill="rgb(255,12,12)"  stroke="rgb(255,12,12)" stroke-width="1" font-size="16" >O</text>
<text x="97.047809" y="231.045931" fill="rgb(255,12,12)"  stroke="rgb(255,12,12)" stroke-width="1" font-size="16" >O</text>
<text x="52.302172" y="164.438425" fill="rgb(255,12,12)"  stroke="rgb(255,12,12)" stroke-width="1" font-size="16" >O</text>
<text x="36.878925" y="234.266609" fill="rgb(102,102,102)"  stroke="rgb(102,102,102)" stroke-width="1" font-size="16" >H</text>
<text x="48.878925" y="237.946609" fill="rgb(102,102,102)"  stroke="rgb(102,102,102)" stroke-width="1" font-size="13" >3</text>
<text x="55.378925" y="234.266609" fill="rgb(102,102,102)"  stroke="rgb(102,102,102)" stroke-width="1" font-size="16" >C</text>
<text x="14.000000" y="200.200064" fill="rgb(102,102,102)"  stroke="rgb(102,102,102)" stroke-width="1" font-size="16" >H</text>
<text x="26.000000" y="203.880064" fill="rgb(102,102,102)"  stroke="rgb(102,102,102)" stroke-width="1" font-size="13" >3</text>
<text x="32.500000" y="200.200064" fill="rgb(102,102,102)"  stroke="rgb(102,102,102)" stroke-width="1" font-size="16" >C</text>
<text font-size="18.000000" fill ="black" font-family="sans-serif"
x="10.000000" y="20.000000" ></text>
<title> - OBDepict</title>
</svg>
