<?xml version="1.0"?>
<svg xmlns="http://www.w3.org/2000/svg"
xmlns:xlink="http://www.w3.org/1999/xlink" xmlns:cml="http://www.xml-cml.org/schema" width="287.842" height="459.932" x="0" y="0" font-family="sans-serif" stroke="rgb(0,0,0)" stroke-width="1"  stroke-linecap="round">
<rect x="0%" y="0%" width="100%" height="100%" stroke-width="0" fill="rgb(255,255,255)"  />
<line x1="109.3" y1="240.0" x2="85.8" y2="253.5" stroke="rgb(0,0,0)"  stroke-width="1.0"/>
<line x1="143.8" y1="140.0" x2="143.8" y2="180.0" stroke="rgb(0,0,0)"  stroke-width="1.0"/>
<line x1="213.1" y1="60.0" x2="178.6" y2="80.0" stroke="rgb(0,0,0)"  stroke-width="1.0"/>
<line x1="236.6" y1="46.5" x2="213.1" y2="60.0" stroke="rgb(0,0,0)"  stroke-width="1.0"/>
<line x1="238.7" y1="50.1" x2="215.2" y2="63.6" stroke="rgb(0,0,0)"  stroke-width="1.0"/>
<line x1="234.5" y1="42.8" x2="211.0" y2="56.4" stroke="rgb(0,0,0)"  stroke-width="1.0"/>
<line x1="51.3" y1="246.5" x2="63.3" y2="253.4" stroke="rgb(0,0,0)"  stroke-width="1.0"/>
<line x1="71.5" y1="287.0" x2="71.5" y2="273.0" stroke="rgb(0,0,0)"  stroke-width="1.0"/>
<line x1="77.5" y1="287.0" x2="77.5" y2="273.0" stroke="rgb(0,0,0)"  stroke-width="1.0"/>
<line x1="122.0" y1="123.9" x2="145.3" y2="137.4" stroke="rgb(0,0,0)"  stroke-width="1.0"/>
<line x1="119.0" y1="129.1" x2="142.3" y2="142.6" stroke="rgb(0,0,0)"  stroke-width="1.0"/>
<line x1="167.3" y1="126.5" x2="143.8" y2="140.0" stroke="rgb(0,0,0)"  stroke-width="1.0"/>
<line x1="143.8" y1="287.0" x2="143.8" y2="260.0" stroke="rgb(0,0,0)"  stroke-width="1.0"/>
<line x1="178.6" y1="80.0" x2="178.6" y2="107.0" stroke="rgb(0,0,0)"  stroke-width="1.0"/>
<line x1="178.6" y1="319.9" x2="155.1" y2="306.4" stroke="rgb(0,0,0)"  stroke-width="1.0"/>
<line x1="178.6" y1="359.9" x2="178.6" y2="319.9" stroke="rgb(0,0,0)"  stroke-width="1.0"/>
<line x1="213.1" y1="379.9" x2="178.6" y2="359.9" stroke="rgb(0,0,0)"  stroke-width="1.0"/>
<line x1="236.6" y1="366.4" x2="213.1" y2="379.9" stroke="rgb(0,0,0)"  stroke-width="1.0"/>
<line x1="213.1" y1="406.9" x2="213.1" y2="379.9" stroke="rgb(0,0,0)"  stroke-width="1.0"/>
<line x1="109.3" y1="240.0" x2="109.3" y2="200.0" stroke="rgb(0,0,0)"  stroke-width="1.0"/>
<line x1="109.3" y1="200.0" x2="143.8" y2="180.0" stroke="rgb(0,0,0)"  stroke-width="1.0"/>
<line x1="118.1" y1="203.2" x2="142.2" y2="189.2" stroke="rgb(0,0,0)"  stroke-width="1.0"/>
<line x1="143.8" y1="180.0" x2="178.6" y2="200.0" stroke="rgb(0,0,0)"  stroke-width="1.0"/>
<line x1="178.6" y1="200.0" x2="178.6" y2="240.0" stroke="rgb(0,0,0)"  stroke-width="1.0"/>
<line x1="171.4" y1="206.0" x2="171.4" y2="234.0" stroke="rgb(0,0,0)"  stroke-width="1.0"/>
<line x1="178.6" y1="240.0" x2="143.8" y2="260.0" stroke="rgb(0,0,0)"  stroke-width="1.0"/>
<line x1="143.8" y1="260.0" x2="109.3" y2="240.0" stroke="rgb(0,0,0)"  stroke-width="1.0"/>
<line x1="142.2" y1="250.7" x2="118.1" y2="236.7" stroke="rgb(0,0,0)"  stroke-width="1.0"/>
<text x="79.339261" y="255.928554" fill="rgb(12,12,255)"  stroke="rgb(12,12,255)" stroke-width="1" font-size="16" >+</text>
<text x="68.539261" y="267.960554" fill="rgb(12,12,255)"  stroke="rgb(12,12,255)" stroke-width="1" font-size="16" >N</text>
<text x="241.841515" y="48.000000" fill="rgb(102,102,102)"  stroke="rgb(102,102,102)" stroke-width="1" font-size="16" >CH</text>
<text x="44.800000" y="225.852140" fill="rgb(255,12,12)"  stroke="rgb(255,12,12)" stroke-width="1" font-size="16" >_</text>
<text x="34.000000" y="247.964140" fill="rgb(255,12,12)"  stroke="rgb(255,12,12)" stroke-width="1" font-size="16" >O</text>
<text x="68.539261" y="307.953382" fill="rgb(255,12,12)"  stroke="rgb(255,12,12)" stroke-width="1" font-size="16" >O</text>
<text x="103.282121" y="127.985656" fill="rgb(255,12,12)"  stroke="rgb(255,12,12)" stroke-width="1" font-size="16" >O</text>
<text x="172.564242" y="127.985656" fill="rgb(12,12,255)"  stroke="rgb(12,12,255)" stroke-width="1" font-size="16" >NH</text>
<text x="137.821382" y="307.953382" fill="rgb(178,178,0)"  stroke="rgb(178,178,0)" stroke-width="1" font-size="16" >S</text>
<text x="243.841515" y="367.942624" fill="rgb(102,102,102)"  stroke="rgb(102,102,102)" stroke-width="1" font-size="16" >CH</text>
<text x="267.841515" y="371.622624" fill="rgb(102,102,102)"  stroke="rgb(102,102,102)" stroke-width="1" font-size="13" >3</text>
<text x="209.103503" y="427.931866" fill="rgb(102,102,102)"  stroke="rgb(102,102,102)" stroke-width="1" font-size="16" >CH</text>
<text x="233.103503" y="431.611866" fill="rgb(102,102,102)"  stroke="rgb(102,102,102)" stroke-width="1" font-size="13" >3</text>
<text font-size="18.000000" fill ="black" font-family="sans-serif"
x="10.000000" y="20.000000" ></text>
<title> - OBDepict</title>
</svg>
