<?xml version="1.0"?>
<svg xmlns="http://www.w3.org/2000/svg"
xmlns:xlink="http://www.w3.org/1999/xlink" xmlns:cml="http://www.xml-cml.org/schema" width="253.292" height="320.603" x="0" y="0" font-family="sans-serif" stroke="rgb(0,0,0)" stroke-width="1"  stroke-linecap="round">
<rect x="0%" y="0%" width="100%" height="100%" stroke-width="0" fill="rgb(255,255,255)"  />
<line x1="213.1" y1="80.0" x2="178.6" y2="100.6" stroke="rgb(0,0,0)"  stroke-width="1.0"/>
<line x1="212.8" y1="53.0" x2="213.1" y2="80.0" stroke="rgb(0,0,0)"  stroke-width="1.0"/>
<line x1="217.0" y1="53.0" x2="217.3" y2="79.9" stroke="rgb(0,0,0)"  stroke-width="1.0"/>
<line x1="208.6" y1="53.0" x2="208.9" y2="80.0" stroke="rgb(0,0,0)"  stroke-width="1.0"/>
<line x1="178.6" y1="220.6" x2="144.0" y2="200.6" stroke="rgb(0,0,0)"  stroke-width="1.0"/>
<line x1="167.4" y1="147.1" x2="144.0" y2="160.6" stroke="rgb(0,0,0)"  stroke-width="1.0"/>
<line x1="178.6" y1="100.6" x2="178.6" y2="127.6" stroke="rgb(0,0,0)"  stroke-width="1.0"/>
<line x1="202.0" y1="207.1" x2="178.6" y2="220.6" stroke="rgb(0,0,0)"  stroke-width="1.0"/>
<line x1="144.0" y1="200.6" x2="109.3" y2="220.6" stroke="rgb(0,0,0)"  stroke-width="1.0"/>
<line x1="135.2" y1="197.4" x2="110.9" y2="211.4" stroke="rgb(0,0,0)"  stroke-width="1.0"/>
<line x1="109.3" y1="220.6" x2="74.7" y2="200.6" stroke="rgb(0,0,0)"  stroke-width="1.0"/>
<line x1="74.7" y1="200.6" x2="74.7" y2="161.1" stroke="rgb(0,0,0)"  stroke-width="1.0"/>
<line x1="81.9" y1="194.6" x2="81.9" y2="167.1" stroke="rgb(0,0,0)"  stroke-width="1.0"/>
<line x1="74.7" y1="161.1" x2="109.3" y2="140.6" stroke="rgb(0,0,0)"  stroke-width="1.0"/>
<line x1="109.3" y1="140.6" x2="144.0" y2="160.6" stroke="rgb(0,0,0)"  stroke-width="1.0"/>
<line x1="110.9" y1="149.9" x2="135.2" y2="163.9" stroke="rgb(0,0,0)"  stroke-width="1.0"/>
<line x1="144.0" y1="160.6" x2="144.0" y2="200.6" stroke="rgb(0,0,0)"  stroke-width="1.0"/>
<line x1="74.7" y1="200.6" x2="40.0" y2="221.1" stroke="rgb(0,0,0)"  stroke-width="1.0"/>
<line x1="40.0" y1="221.1" x2="40.4" y2="261.0" stroke="rgb(0,0,0)"  stroke-width="1.0"/>
<line x1="47.3" y1="227.0" x2="47.6" y2="255.0" stroke="rgb(0,0,0)"  stroke-width="1.0"/>
<line x1="40.4" y1="261.0" x2="75.1" y2="280.6" stroke="rgb(0,0,0)"  stroke-width="1.0"/>
<line x1="75.1" y1="280.6" x2="109.8" y2="260.6" stroke="rgb(0,0,0)"  stroke-width="1.0"/>
<line x1="76.7" y1="271.4" x2="101.0" y2="257.4" stroke="rgb(0,0,0)"  stroke-width="1.0"/>
<line x1="109.8" y1="260.6" x2="109.3" y2="220.6" stroke="rgb(0,0,0)"  stroke-width="1.0"/>
<text x="194.622412" y="48.000000" fill="rgb(102,102,102)"  stroke="rgb(102,102,102)" stroke-width="1" font-size="16" >HC</text>
<text x="172.634328" y="148.640229" fill="rgb(255,12,12)"  stroke="rgb(255,12,12)" stroke-width="1" font-size="16" >O</text>
<text x="207.291698" y="208.623765" fill="rgb(255,12,12)"  stroke="rgb(255,12,12)" stroke-width="1" font-size="16" >OH</text>
<text font-size="18.000000" fill ="black" font-family="sans-serif"
x="10.000000" y="20.000000" ></text>
<title> - OBDepict</title>
</svg>
