<?xml version="1.0"?>
<svg xmlns="http://www.w3.org/2000/svg"
xmlns:xlink="http://www.w3.org/1999/xlink" xmlns:cml="http://www.xml-cml.org/schema" width="266.492" height="508.342" x="0" y="0" font-family="sans-serif" stroke="rgb(0,0,0)" stroke-width="1"  stroke-linecap="round">
<rect x="0%" y="0%" width="100%" height="100%" stroke-width="0" fill="rgb(255,255,255)"  />
<line x1="151.3" y1="116.0" x2="163.7" y2="154.0" stroke="rgb(0,0,0)"  stroke-width="1.0"/>
<line x1="167.7" y1="430.4" x2="180.0" y2="392.4" stroke="rgb(0,0,0)"  stroke-width="1.0"/>
<line x1="155.3" y1="244.4" x2="163.7" y2="218.8" stroke="rgb(0,0,0)"  stroke-width="1.0"/>
<line x1="159.4" y1="456.0" x2="167.7" y2="430.4" stroke="rgb(0,0,0)"  stroke-width="1.0"/>
<line x1="155.4" y1="454.7" x2="163.7" y2="429.1" stroke="rgb(0,0,0)"  stroke-width="1.0"/>
<line x1="163.4" y1="457.3" x2="171.7" y2="431.6" stroke="rgb(0,0,0)"  stroke-width="1.0"/>
<line x1="165.7" y1="324.5" x2="178.0" y2="286.5" stroke="rgb(0,0,0)"  stroke-width="1.0"/>
<line x1="183.7" y1="344.5" x2="165.7" y2="324.5" stroke="rgb(0,0,0)"  stroke-width="1.0"/>
<line x1="180.0" y1="392.4" x2="188.4" y2="366.6" stroke="rgb(0,0,0)"  stroke-width="1.0"/>
<line x1="100.0" y1="186.3" x2="127.0" y2="186.3" stroke="rgb(0,0,0)"  stroke-width="1.0"/>
<line x1="138.5" y1="327.3" x2="165.0" y2="321.6" stroke="rgb(0,0,0)"  stroke-width="1.0"/>
<line x1="139.8" y1="333.2" x2="166.3" y2="327.4" stroke="rgb(0,0,0)"  stroke-width="1.0"/>
<line x1="178.0" y1="286.5" x2="160.0" y2="266.5" stroke="rgb(0,0,0)"  stroke-width="1.0"/>
<line x1="80.0" y1="151.7" x2="100.0" y2="186.3" stroke="rgb(0,0,0)"  stroke-width="1.0"/>
<line x1="53.0" y1="148.7" x2="80.0" y2="148.7" stroke="rgb(0,0,0)"  stroke-width="1.0"/>
<line x1="53.0" y1="154.7" x2="80.0" y2="154.7" stroke="rgb(0,0,0)"  stroke-width="1.0"/>
<line x1="94.0" y1="127.7" x2="112.1" y2="107.7" stroke="rgb(0,0,0)"  stroke-width="1.0"/>
<line x1="142.0" y1="380.0" x2="180.0" y2="392.4" stroke="rgb(0,0,0)"  stroke-width="1.0"/>
<line x1="218.2" y1="404.7" x2="180.0" y2="392.4" stroke="rgb(0,0,0)"  stroke-width="1.0"/>
<line x1="59.0" y1="131.8" x2="72.5" y2="134.7" stroke="rgb(0,0,0)"  stroke-width="1.0"/>
<line x1="223.8" y1="431.2" x2="218.2" y2="404.7" stroke="rgb(0,0,0)"  stroke-width="1.0"/>
<line x1="136.4" y1="353.6" x2="142.0" y2="380.0" stroke="rgb(0,0,0)"  stroke-width="1.0"/>
<line x1="163.7" y1="154.0" x2="189.1" y2="162.2" stroke="rgb(0,0,0)"  stroke-width="1.0"/>
<line x1="167.1" y1="162.7" x2="185.0" y2="168.4" stroke="rgb(0,0,0)"  stroke-width="1.0"/>
<line x1="201.6" y1="179.3" x2="201.6" y2="193.3" stroke="rgb(0,0,0)"  stroke-width="1.0"/>
<line x1="189.1" y1="210.4" x2="163.7" y2="218.8" stroke="rgb(0,0,0)"  stroke-width="1.0"/>
<line x1="185.0" y1="204.2" x2="167.1" y2="210.1" stroke="rgb(0,0,0)"  stroke-width="1.0"/>
<line x1="163.7" y1="218.8" x2="147.7" y2="196.8" stroke="rgb(0,0,0)"  stroke-width="1.0"/>
<line x1="147.7" y1="175.8" x2="163.7" y2="154.0" stroke="rgb(0,0,0)"  stroke-width="1.0"/>
<line x1="151.3" y1="116.0" x2="112.1" y2="107.7" stroke="rgb(0,0,0)"  stroke-width="1.0"/>
<line x1="146.9" y1="107.7" x2="119.5" y2="101.9" stroke="rgb(0,0,0)"  stroke-width="1.0"/>
<line x1="112.1" y1="107.7" x2="99.8" y2="69.5" stroke="rgb(0,0,0)"  stroke-width="1.0"/>
<line x1="99.8" y1="69.5" x2="126.5" y2="40.0" stroke="rgb(0,0,0)"  stroke-width="1.0"/>
<line x1="109.2" y1="69.9" x2="127.8" y2="49.3" stroke="rgb(0,0,0)"  stroke-width="1.0"/>
<line x1="126.5" y1="40.0" x2="165.7" y2="48.1" stroke="rgb(0,0,0)"  stroke-width="1.0"/>
<line x1="165.7" y1="48.1" x2="178.0" y2="86.3" stroke="rgb(0,0,0)"  stroke-width="1.0"/>
<line x1="160.7" y1="56.0" x2="169.3" y2="82.8" stroke="rgb(0,0,0)"  stroke-width="1.0"/>
<line x1="178.0" y1="86.3" x2="151.3" y2="116.0" stroke="rgb(0,0,0)"  stroke-width="1.0"/>
<text x="134.012983" y="194.283232" fill="rgb(12,12,255)"  stroke="rgb(12,12,255)" stroke-width="1" font-size="16" >N</text>
<text x="195.640377" y="174.280635" fill="rgb(12,12,255)"  stroke="rgb(12,12,255)" stroke-width="1" font-size="16" >N</text>
<text x="195.640377" y="214.285828" fill="rgb(12,12,255)"  stroke="rgb(12,12,255)" stroke-width="1" font-size="16" >N</text>
<text x="145.330816" y="264.799052" fill="rgb(178,178,0)"  stroke="rgb(178,178,0)" stroke-width="1" font-size="16" >S</text>
<text x="137.370128" y="476.341664" fill="rgb(102,102,102)"  stroke="rgb(102,102,102)" stroke-width="1" font-size="16" >HC</text>
<text x="186.344624" y="362.183815" fill="rgb(12,12,255)"  stroke="rgb(12,12,255)" stroke-width="1" font-size="16" >NH</text>
<text x="120.479105" y="340.968940" fill="rgb(255,12,12)"  stroke="rgb(255,12,12)" stroke-width="1" font-size="16" >O</text>
<text x="14.000000" y="159.733292" fill="rgb(102,102,102)"  stroke="rgb(102,102,102)" stroke-width="1" font-size="16" >H</text>
<text x="26.000000" y="163.413292" fill="rgb(102,102,102)"  stroke="rgb(102,102,102)" stroke-width="1" font-size="13" >2</text>
<text x="32.500000" y="159.733292" fill="rgb(102,102,102)"  stroke="rgb(102,102,102)" stroke-width="1" font-size="16" >C</text>
<text x="79.261633" y="145.389612" fill="rgb(255,12,12)"  stroke="rgb(255,12,12)" stroke-width="1" font-size="16" >O</text>
<text x="20.265056" y="137.102476" fill="rgb(102,102,102)"  stroke="rgb(102,102,102)" stroke-width="1" font-size="16" >H</text>
<text x="32.265056" y="140.782476" fill="rgb(102,102,102)"  stroke="rgb(102,102,102)" stroke-width="1" font-size="13" >3</text>
<text x="38.765056" y="137.102476" fill="rgb(102,102,102)"  stroke="rgb(102,102,102)" stroke-width="1" font-size="16" >C</text>
<text x="222.492087" y="451.892429" fill="rgb(102,102,102)"  stroke="rgb(102,102,102)" stroke-width="1" font-size="16" >CH</text>
<text x="246.492087" y="455.572429" fill="rgb(102,102,102)"  stroke="rgb(102,102,102)" stroke-width="1" font-size="13" >3</text>
<text x="107.752776" y="348.848750" fill="rgb(102,102,102)"  stroke="rgb(102,102,102)" stroke-width="1" font-size="16" >H</text>
<text x="119.752776" y="352.528750" fill="rgb(102,102,102)"  stroke="rgb(102,102,102)" stroke-width="1" font-size="13" >3</text>
<text x="126.252776" y="348.848750" fill="rgb(102,102,102)"  stroke="rgb(102,102,102)" stroke-width="1" font-size="16" >C</text>
<text font-size="18.000000" fill ="black" font-family="sans-serif"
x="10.000000" y="20.000000" ></text>
<title> - OBDepict</title>
</svg>
