<?xml version="1.0"?>
<svg xmlns="http://www.w3.org/2000/svg"
xmlns:xlink="http://www.w3.org/1999/xlink" xmlns:cml="http://www.xml-cml.org/schema" width="293.49" height="216.397" x="0" y="0" font-family="sans-serif" stroke="rgb(0,0,0)" stroke-width="1"  stroke-linecap="round">
<rect x="0%" y="0%" width="100%" height="100%" stroke-width="0" fill="rgb(255,255,255)"  />
<line x1="114.8" y1="118.7" x2="87.3" y2="106.0" stroke="rgb(0,0,0)"  stroke-width="1.0"/>
<line x1="114.8" y1="118.7" x2="115.0" y2="142.6" stroke="rgb(0,0,0)"  stroke-width="1.0"/>
<line x1="126.3" y1="162.2" x2="150.4" y2="176.4" stroke="rgb(0,0,0)"  stroke-width="1.0"/>
<line x1="216.9" y1="118.7" x2="242.0" y2="105.2" stroke="rgb(0,0,0)"  stroke-width="1.0"/>
<line x1="150.4" y1="176.4" x2="187.7" y2="156.5" stroke="rgb(0,0,0)"  stroke-width="1.0"/>
<line x1="187.7" y1="156.5" x2="209.1" y2="144.8" stroke="rgb(0,0,0)"  stroke-width="1.0"/>
<line x1="185.7" y1="152.8" x2="207.1" y2="141.1" stroke="rgb(0,0,0)"  stroke-width="1.0"/>
<line x1="189.7" y1="160.1" x2="211.1" y2="148.5" stroke="rgb(0,0,0)"  stroke-width="1.0"/>
<line x1="114.8" y1="118.7" x2="167.7" y2="94.9" stroke="rgb(0,0,0)"  stroke-width="1.0"/>
<line x1="167.7" y1="94.9" x2="216.9" y2="118.7" stroke="rgb(0,0,0)"  stroke-width="1.0"/>
<line x1="216.9" y1="118.7" x2="154.1" y2="106.0" stroke="rgb(0,0,0)"  stroke-width="1.0"/>
<line x1="154.1" y1="106.0" x2="114.8" y2="118.7" stroke="rgb(0,0,0)"  stroke-width="1.0"/>
<line x1="167.7" y1="54.3" x2="167.7" y2="94.9" stroke="rgb(0,0,0)"  stroke-width="1.0"/>
<line x1="154.1" y1="106.0" x2="154.1" y2="66.0" stroke="rgb(0,0,0)"  stroke-width="1.0"/>
<line x1="154.1" y1="66.0" x2="111.9" y2="40.0" stroke="rgb(0,0,0)"  stroke-width="1.0"/>
<line x1="111.9" y1="40.0" x2="167.7" y2="54.3" stroke="rgb(0,0,0)"  stroke-width="1.0"/>
<line x1="87.3" y1="106.0" x2="87.3" y2="78.9" stroke="rgb(0,0,0)"  stroke-width="1.0"/>
<line x1="80.1" y1="100.0" x2="80.1" y2="84.9" stroke="rgb(0,0,0)"  stroke-width="1.0"/>
<line x1="87.3" y1="78.9" x2="63.2" y2="64.1" stroke="rgb(0,0,0)"  stroke-width="1.0"/>
<line x1="63.2" y1="64.1" x2="40.0" y2="78.9" stroke="rgb(0,0,0)"  stroke-width="1.0"/>
<line x1="62.0" y1="73.4" x2="48.9" y2="81.8" stroke="rgb(0,0,0)"  stroke-width="1.0"/>
<line x1="40.0" y1="78.9" x2="40.0" y2="106.8" stroke="rgb(0,0,0)"  stroke-width="1.0"/>
<line x1="40.0" y1="106.8" x2="63.2" y2="119.6" stroke="rgb(0,0,0)"  stroke-width="1.0"/>
<line x1="48.7" y1="103.4" x2="61.4" y2="110.4" stroke="rgb(0,0,0)"  stroke-width="1.0"/>
<line x1="63.2" y1="119.6" x2="87.3" y2="106.0" stroke="rgb(0,0,0)"  stroke-width="1.0"/>
<text x="109.077135" y="163.558431" fill="rgb(255,12,12)"  stroke="rgb(255,12,12)" stroke-width="1" font-size="16" >O</text>
<text x="247.489551" y="107.014435" fill="rgb(147,0,147)"  stroke="rgb(147,0,147)" stroke-width="1" font-size="16" >I</text>
<text x="214.550360" y="146.604436" fill="rgb(102,102,102)"  stroke="rgb(102,102,102)" stroke-width="1" font-size="16" >CH</text>
<text font-size="18.000000" fill ="black" font-family="sans-serif"
x="10.000000" y="20.000000" ></text>
<title> - OBDepict</title>
</svg>
