<?xml version="1.0"?>
<svg xmlns="http://www.w3.org/2000/svg"
xmlns:xlink="http://www.w3.org/1999/xlink" xmlns:cml="http://www.xml-cml.org/schema" width="328.82" height="339.123" x="0" y="0" font-family="sans-serif" stroke="rgb(0,0,0)" stroke-width="1"  stroke-linecap="round">
<rect x="0%" y="0%" width="100%" height="100%" stroke-width="0" fill="rgb(255,255,255)"  />
<line x1="227.0" y1="60.1" x2="190.1" y2="40.0" stroke="rgb(0,0,0)"  stroke-width="1.0"/>
<line x1="49.8" y1="236.3" x2="68.0" y2="225.8" stroke="rgb(0,0,0)"  stroke-width="1.0"/>
<line x1="52.8" y1="241.5" x2="71.0" y2="231.0" stroke="rgb(0,0,0)"  stroke-width="1.0"/>
<line x1="252.3" y1="73.8" x2="227.0" y2="60.1" stroke="rgb(0,0,0)"  stroke-width="1.0"/>
<line x1="250.3" y1="77.5" x2="225.0" y2="63.8" stroke="rgb(0,0,0)"  stroke-width="1.0"/>
<line x1="254.3" y1="70.1" x2="229.0" y2="56.4" stroke="rgb(0,0,0)"  stroke-width="1.0"/>
<line x1="101.7" y1="156.0" x2="101.7" y2="177.0" stroke="rgb(0,0,0)"  stroke-width="1.0"/>
<line x1="95.7" y1="156.0" x2="95.7" y2="177.0" stroke="rgb(0,0,0)"  stroke-width="1.0"/>
<line x1="154.8" y1="75.0" x2="157.1" y2="177.4" stroke="rgb(0,0,0)"  stroke-width="1.0"/>
<line x1="222.9" y1="249.0" x2="186.8" y2="228.0" stroke="rgb(0,0,0)"  stroke-width="1.0"/>
<line x1="51.3" y1="183.9" x2="58.3" y2="187.9" stroke="rgb(0,0,0)"  stroke-width="1.0"/>
<line x1="98.8" y1="266.0" x2="98.8" y2="258.0" stroke="rgb(0,0,0)"  stroke-width="1.0"/>
<line x1="190.1" y1="40.0" x2="165.6" y2="55.1" stroke="rgb(0,0,0)"  stroke-width="1.0"/>
<line x1="222.9" y1="249.0" x2="261.0" y2="232.0" stroke="rgb(0,0,0)"  stroke-width="1.0"/>
<line x1="261.0" y1="232.0" x2="288.8" y2="262.9" stroke="rgb(0,0,0)"  stroke-width="1.0"/>
<line x1="288.8" y1="262.9" x2="268.2" y2="299.1" stroke="rgb(0,0,0)"  stroke-width="1.0"/>
<line x1="268.2" y1="299.1" x2="227.2" y2="290.4" stroke="rgb(0,0,0)"  stroke-width="1.0"/>
<line x1="227.2" y1="290.4" x2="222.9" y2="249.0" stroke="rgb(0,0,0)"  stroke-width="1.0"/>
<line x1="69.5" y1="207.4" x2="69.5" y2="228.4" stroke="rgb(0,0,0)"  stroke-width="1.0"/>
<line x1="69.5" y1="228.4" x2="87.4" y2="238.6" stroke="rgb(0,0,0)"  stroke-width="1.0"/>
<line x1="110.0" y1="238.5" x2="128.1" y2="228.0" stroke="rgb(0,0,0)"  stroke-width="1.0"/>
<line x1="128.1" y1="228.0" x2="128.1" y2="194.4" stroke="rgb(0,0,0)"  stroke-width="1.0"/>
<line x1="120.9" y1="222.0" x2="120.9" y2="200.4" stroke="rgb(0,0,0)"  stroke-width="1.0"/>
<line x1="128.1" y1="194.4" x2="98.7" y2="177.0" stroke="rgb(0,0,0)"  stroke-width="1.0"/>
<line x1="98.7" y1="177.0" x2="80.7" y2="187.7" stroke="rgb(0,0,0)"  stroke-width="1.0"/>
<line x1="146.2" y1="238.5" x2="128.1" y2="228.0" stroke="rgb(0,0,0)"  stroke-width="1.0"/>
<line x1="128.1" y1="194.4" x2="157.1" y2="177.4" stroke="rgb(0,0,0)"  stroke-width="1.0"/>
<line x1="157.1" y1="177.4" x2="176.8" y2="188.5" stroke="rgb(0,0,0)"  stroke-width="1.0"/>
<line x1="158.8" y1="186.6" x2="171.0" y2="193.5" stroke="rgb(0,0,0)"  stroke-width="1.0"/>
<line x1="186.6" y1="207.0" x2="186.8" y2="228.0" stroke="rgb(0,0,0)"  stroke-width="1.0"/>
<line x1="186.8" y1="228.0" x2="167.1" y2="239.4" stroke="rgb(0,0,0)"  stroke-width="1.0"/>
<line x1="178.0" y1="224.8" x2="165.8" y2="231.9" stroke="rgb(0,0,0)"  stroke-width="1.0"/>
<text x="63.539021" y="202.377570" fill="rgb(12,12,255)"  stroke="rgb(12,12,255)" stroke-width="1" font-size="16" >N</text>
<text x="92.730049" y="253.033182" fill="rgb(12,12,255)"  stroke="rgb(12,12,255)" stroke-width="1" font-size="16" >N</text>
<text x="151.455054" y="253.033182" fill="rgb(12,12,255)"  stroke="rgb(12,12,255)" stroke-width="1" font-size="16" >N</text>
<text x="180.479651" y="202.034620" fill="rgb(12,12,255)"  stroke="rgb(12,12,255)" stroke-width="1" font-size="16" >N</text>
<text x="34.000000" y="253.376132" fill="rgb(255,12,12)"  stroke="rgb(255,12,12)" stroke-width="1" font-size="16" >O</text>
<text x="257.749130" y="88.009058" fill="rgb(102,102,102)"  stroke="rgb(102,102,102)" stroke-width="1" font-size="16" >CH</text>
<text x="92.730049" y="151.031015" fill="rgb(255,12,12)"  stroke="rgb(255,12,12)" stroke-width="1" font-size="16" >O</text>
<text x="148.539986" y="69.979008" fill="rgb(178,178,0)"  stroke="rgb(178,178,0)" stroke-width="1" font-size="16" >S</text>
<text x="14.000000" y="185.376368" fill="rgb(102,102,102)"  stroke="rgb(102,102,102)" stroke-width="1" font-size="16" >H</text>
<text x="26.000000" y="189.056368" fill="rgb(102,102,102)"  stroke="rgb(102,102,102)" stroke-width="1" font-size="13" >3</text>
<text x="32.500000" y="185.376368" fill="rgb(102,102,102)"  stroke="rgb(102,102,102)" stroke-width="1" font-size="16" >C</text>
<text x="94.901524" y="287.035586" fill="rgb(102,102,102)"  stroke="rgb(102,102,102)" stroke-width="1" font-size="16" >CH</text>
<text x="118.901524" y="290.715586" fill="rgb(102,102,102)"  stroke="rgb(102,102,102)" stroke-width="1" font-size="13" >3</text>
<text font-size="18.000000" fill ="black" font-family="sans-serif"
x="10.000000" y="20.000000" ></text>
<title> - OBDepict</title>
</svg>
