<?xml version="1.0"?>
<svg xmlns="http://www.w3.org/2000/svg"
xmlns:xlink="http://www.w3.org/1999/xlink" xmlns:cml="http://www.xml-cml.org/schema" width="323.515" height="266.182" x="0" y="0" font-family="sans-serif" stroke="rgb(0,0,0)" stroke-width="1"  stroke-linecap="round">
<rect x="0%" y="0%" width="100%" height="100%" stroke-width="0" fill="rgb(255,255,255)"  />
<line x1="239.8" y1="146.5" x2="201.6" y2="158.7" stroke="rgb(0,0,0)"  stroke-width="1.0"/>
<line x1="237.9" y1="140.8" x2="199.8" y2="153.0" stroke="rgb(0,0,0)"  stroke-width="1.0"/>
<line x1="247.2" y1="104.5" x2="238.8" y2="143.7" stroke="rgb(0,0,0)"  stroke-width="1.0"/>
<line x1="68.3" y1="170.5" x2="98.3" y2="143.7" stroke="rgb(0,0,0)"  stroke-width="1.0"/>
<line x1="49.2" y1="189.5" x2="68.3" y2="170.5" stroke="rgb(0,0,0)"  stroke-width="1.0"/>
<line x1="46.3" y1="186.5" x2="65.4" y2="167.5" stroke="rgb(0,0,0)"  stroke-width="1.0"/>
<line x1="52.2" y1="192.5" x2="71.3" y2="173.5" stroke="rgb(0,0,0)"  stroke-width="1.0"/>
<line x1="130.1" y1="213.9" x2="145.9" y2="192.2" stroke="rgb(0,0,0)"  stroke-width="1.0"/>
<line x1="134.9" y1="217.5" x2="150.8" y2="195.8" stroke="rgb(0,0,0)"  stroke-width="1.0"/>
<line x1="171.3" y1="105.3" x2="171.3" y2="132.3" stroke="rgb(0,0,0)"  stroke-width="1.0"/>
<line x1="165.3" y1="105.3" x2="165.3" y2="132.3" stroke="rgb(0,0,0)"  stroke-width="1.0"/>
<line x1="98.3" y1="143.7" x2="123.8" y2="151.9" stroke="rgb(0,0,0)"  stroke-width="1.0"/>
<line x1="140.1" y1="168.2" x2="148.3" y2="194.0" stroke="rgb(0,0,0)"  stroke-width="1.0"/>
<line x1="148.3" y1="194.0" x2="175.3" y2="194.0" stroke="rgb(0,0,0)"  stroke-width="1.0"/>
<line x1="192.3" y1="181.6" x2="200.7" y2="155.8" stroke="rgb(0,0,0)"  stroke-width="1.0"/>
<line x1="200.7" y1="155.8" x2="168.3" y2="132.3" stroke="rgb(0,0,0)"  stroke-width="1.0"/>
<line x1="168.3" y1="132.3" x2="146.7" y2="148.2" stroke="rgb(0,0,0)"  stroke-width="1.0"/>
<line x1="247.2" y1="104.5" x2="220.0" y2="74.8" stroke="rgb(0,0,0)"  stroke-width="1.0"/>
<line x1="220.0" y1="74.8" x2="240.3" y2="40.0" stroke="rgb(0,0,0)"  stroke-width="1.0"/>
<line x1="229.3" y1="73.3" x2="243.5" y2="48.8" stroke="rgb(0,0,0)"  stroke-width="1.0"/>
<line x1="240.3" y1="40.0" x2="266.6" y2="45.7" stroke="rgb(0,0,0)"  stroke-width="1.0"/>
<line x1="280.7" y1="61.4" x2="283.5" y2="88.0" stroke="rgb(0,0,0)"  stroke-width="1.0"/>
<line x1="283.5" y1="88.0" x2="247.2" y2="104.5" stroke="rgb(0,0,0)"  stroke-width="1.0"/>
<line x1="275.1" y1="83.9" x2="249.7" y2="95.5" stroke="rgb(0,0,0)"  stroke-width="1.0"/>
<text x="130.171172" y="163.845196" fill="rgb(12,12,255)"  stroke="rgb(12,12,255)" stroke-width="1" font-size="16" >N</text>
<text x="182.343984" y="202.013676" fill="rgb(178,178,0)"  stroke="rgb(178,178,0)" stroke-width="1" font-size="16" >S</text>
<text x="22.000000" y="206.678550" fill="rgb(102,102,102)"  stroke="rgb(102,102,102)" stroke-width="1" font-size="16" >HC</text>
<text x="273.350300" y="56.504537" fill="rgb(178,178,0)"  stroke="rgb(178,178,0)" stroke-width="1" font-size="16" >S</text>
<text x="118.836643" y="234.182379" fill="rgb(255,12,12)"  stroke="rgb(255,12,12)" stroke-width="1" font-size="16" >O</text>
<text x="162.339876" y="100.342709" fill="rgb(255,12,12)"  stroke="rgb(255,12,12)" stroke-width="1" font-size="16" >O</text>
<text font-size="18.000000" fill ="black" font-family="sans-serif"
x="10.000000" y="20.000000" ></text>
<title> - OBDepict</title>
</svg>
