<?xml version="1.0"?>
<svg xmlns="http://www.w3.org/2000/svg"
xmlns:xlink="http://www.w3.org/1999/xlink" xmlns:cml="http://www.xml-cml.org/schema" width="603.686" height="330.327" x="0" y="0" font-family="sans-serif" stroke="rgb(0,0,0)" stroke-width="1"  stroke-linecap="round">
<rect x="0%" y="0%" width="100%" height="100%" stroke-width="0" fill="rgb(255,255,255)"  />
<line x1="191.1" y1="214.4" x2="203.7" y2="176.2" stroke="rgb(0,0,0)"  stroke-width="1.0"/>
<line x1="503.7" y1="178.8" x2="523.7" y2="144.3" stroke="rgb(0,0,0)"  stroke-width="1.0"/>
<line x1="60.0" y1="74.5" x2="80.0" y2="109.3" stroke="rgb(0,0,0)"  stroke-width="1.0"/>
<line x1="46.5" y1="51.3" x2="60.0" y2="74.5" stroke="rgb(0,0,0)"  stroke-width="1.0"/>
<line x1="50.1" y1="49.1" x2="63.6" y2="72.4" stroke="rgb(0,0,0)"  stroke-width="1.0"/>
<line x1="42.9" y1="53.4" x2="56.4" y2="76.7" stroke="rgb(0,0,0)"  stroke-width="1.0"/>
<line x1="274.0" y1="100.4" x2="252.2" y2="116.2" stroke="rgb(0,0,0)"  stroke-width="1.0"/>
<line x1="550.7" y1="147.3" x2="523.7" y2="147.3" stroke="rgb(0,0,0)"  stroke-width="1.0"/>
<line x1="550.7" y1="141.3" x2="523.7" y2="141.3" stroke="rgb(0,0,0)"  stroke-width="1.0"/>
<line x1="514.6" y1="203.8" x2="501.1" y2="180.3" stroke="rgb(0,0,0)"  stroke-width="1.0"/>
<line x1="519.8" y1="200.8" x2="506.3" y2="177.3" stroke="rgb(0,0,0)"  stroke-width="1.0"/>
<line x1="140.0" y1="143.8" x2="180.0" y2="143.8" stroke="rgb(0,0,0)"  stroke-width="1.0"/>
<line x1="510.2" y1="120.8" x2="523.7" y2="144.3" stroke="rgb(0,0,0)"  stroke-width="1.0"/>
<line x1="476.7" y1="178.8" x2="503.7" y2="178.8" stroke="rgb(0,0,0)"  stroke-width="1.0"/>
<line x1="126.5" y1="120.5" x2="140.0" y2="143.8" stroke="rgb(0,0,0)"  stroke-width="1.0"/>
<line x1="310.5" y1="116.6" x2="274.0" y2="100.4" stroke="rgb(0,0,0)"  stroke-width="1.0"/>
<line x1="80.0" y1="109.3" x2="107.0" y2="109.3" stroke="rgb(0,0,0)"  stroke-width="1.0"/>
<line x1="113.3" y1="266.2" x2="139.6" y2="260.6" stroke="rgb(0,0,0)"  stroke-width="1.0"/>
<line x1="180.0" y1="143.8" x2="203.7" y2="111.5" stroke="rgb(0,0,0)"  stroke-width="1.0"/>
<line x1="189.4" y1="143.3" x2="205.9" y2="120.6" stroke="rgb(0,0,0)"  stroke-width="1.0"/>
<line x1="203.7" y1="111.5" x2="229.3" y2="119.8" stroke="rgb(0,0,0)"  stroke-width="1.0"/>
<line x1="241.6" y1="136.8" x2="241.6" y2="150.8" stroke="rgb(0,0,0)"  stroke-width="1.0"/>
<line x1="229.1" y1="167.9" x2="203.7" y2="176.2" stroke="rgb(0,0,0)"  stroke-width="1.0"/>
<line x1="225.0" y1="161.7" x2="207.1" y2="167.5" stroke="rgb(0,0,0)"  stroke-width="1.0"/>
<line x1="203.7" y1="176.2" x2="180.0" y2="143.8" stroke="rgb(0,0,0)"  stroke-width="1.0"/>
<line x1="191.1" y1="214.4" x2="218.0" y2="244.1" stroke="rgb(0,0,0)"  stroke-width="1.0"/>
<line x1="189.8" y1="223.6" x2="208.6" y2="244.4" stroke="rgb(0,0,0)"  stroke-width="1.0"/>
<line x1="218.0" y1="244.1" x2="205.7" y2="282.0" stroke="rgb(0,0,0)"  stroke-width="1.0"/>
<line x1="205.7" y1="282.0" x2="166.5" y2="290.3" stroke="rgb(0,0,0)"  stroke-width="1.0"/>
<line x1="198.3" y1="276.2" x2="170.9" y2="282.0" stroke="rgb(0,0,0)"  stroke-width="1.0"/>
<line x1="166.5" y1="290.3" x2="139.6" y2="260.6" stroke="rgb(0,0,0)"  stroke-width="1.0"/>
<line x1="139.6" y1="260.6" x2="152.1" y2="222.6" stroke="rgb(0,0,0)"  stroke-width="1.0"/>
<line x1="148.3" y1="257.2" x2="157.1" y2="230.6" stroke="rgb(0,0,0)"  stroke-width="1.0"/>
<line x1="152.1" y1="222.6" x2="191.1" y2="214.4" stroke="rgb(0,0,0)"  stroke-width="1.0"/>
<line x1="310.5" y1="116.6" x2="342.9" y2="93.1" stroke="rgb(0,0,0)"  stroke-width="1.0"/>
<line x1="319.6" y1="118.9" x2="342.2" y2="102.5" stroke="rgb(0,0,0)"  stroke-width="1.0"/>
<line x1="342.9" y1="93.1" x2="379.4" y2="109.3" stroke="rgb(0,0,0)"  stroke-width="1.0"/>
<line x1="379.4" y1="109.3" x2="383.7" y2="149.1" stroke="rgb(0,0,0)"  stroke-width="1.0"/>
<line x1="372.9" y1="116.0" x2="375.9" y2="143.9" stroke="rgb(0,0,0)"  stroke-width="1.0"/>
<line x1="383.7" y1="149.1" x2="351.1" y2="172.7" stroke="rgb(0,0,0)"  stroke-width="1.0"/>
<line x1="351.1" y1="172.7" x2="314.8" y2="156.4" stroke="rgb(0,0,0)"  stroke-width="1.0"/>
<line x1="348.6" y1="163.7" x2="323.2" y2="152.3" stroke="rgb(0,0,0)"  stroke-width="1.0"/>
<line x1="314.8" y1="156.4" x2="310.5" y2="116.6" stroke="rgb(0,0,0)"  stroke-width="1.0"/>
<text x="235.633771" y="171.846960" fill="rgb(12,12,255)"  stroke="rgb(12,12,255)" stroke-width="1" font-size="16" >N</text>
<text x="235.633771" y="131.843146" fill="rgb(12,12,255)"  stroke="rgb(12,12,255)" stroke-width="1" font-size="16" >N</text>
<text x="22.000000" y="48.000000" fill="rgb(102,102,102)"  stroke="rgb(102,102,102)" stroke-width="1" font-size="16" >HC</text>
<text x="557.686296" y="152.252364" fill="rgb(255,12,12)"  stroke="rgb(255,12,12)" stroke-width="1" font-size="16" >O</text>
<text x="517.682482" y="221.548669" fill="rgb(255,12,12)"  stroke="rgb(255,12,12)" stroke-width="1" font-size="16" >O</text>
<text x="485.680575" y="117.499960" fill="rgb(255,12,12)"  stroke="rgb(255,12,12)" stroke-width="1" font-size="16" >HO</text>
<text x="445.676760" y="186.801113" fill="rgb(255,12,12)"  stroke="rgb(255,12,12)" stroke-width="1" font-size="16" >HO</text>
<text x="114.007629" y="117.296304" fill="rgb(12,12,255)"  stroke="rgb(12,12,255)" stroke-width="1" font-size="16" >N</text>
<text x="114.007629" y="101.296304" fill="rgb(12,12,255)"  stroke="rgb(12,12,255)" stroke-width="1" font-size="16" >H</text>
<text x="74.611840" y="276.909099" fill="rgb(102,102,102)"  stroke="rgb(102,102,102)" stroke-width="1" font-size="16" >H</text>
<text x="86.611840" y="280.589099" fill="rgb(102,102,102)"  stroke="rgb(102,102,102)" stroke-width="1" font-size="13" >3</text>
<text x="93.111840" y="276.909099" fill="rgb(102,102,102)"  stroke="rgb(102,102,102)" stroke-width="1" font-size="16" >C</text>
<text font-size="18.000000" fill ="black" font-family="sans-serif"
x="10.000000" y="20.000000" ></text>
<title> - OBDepict</title>
</svg>
