<?xml version="1.0"?>
<svg xmlns="http://www.w3.org/2000/svg"
xmlns:xlink="http://www.w3.org/1999/xlink" xmlns:cml="http://www.xml-cml.org/schema" width="420.445" height="323.249" x="0" y="0" font-family="sans-serif" stroke="rgb(0,0,0)" stroke-width="1"  stroke-linecap="round">
<rect x="0%" y="0%" width="100%" height="100%" stroke-width="0" fill="rgb(255,255,255)"  />
<line x1="299.9" y1="144.1" x2="259.7" y2="144.1" stroke="rgb(0,0,0)"  stroke-width="1.0"/>
<line x1="320.0" y1="109.8" x2="300.0" y2="74.7" stroke="rgb(0,0,0)"  stroke-width="1.0"/>
<line x1="359.8" y1="110.0" x2="373.7" y2="86.6" stroke="rgb(0,0,0)"  stroke-width="1.0"/>
<line x1="300.0" y1="74.7" x2="286.9" y2="51.3" stroke="rgb(0,0,0)"  stroke-width="1.0"/>
<line x1="296.4" y1="76.8" x2="283.3" y2="53.4" stroke="rgb(0,0,0)"  stroke-width="1.0"/>
<line x1="303.7" y1="72.7" x2="290.6" y2="49.3" stroke="rgb(0,0,0)"  stroke-width="1.0"/>
<line x1="199.6" y1="178.2" x2="186.2" y2="201.0" stroke="rgb(0,0,0)"  stroke-width="1.0"/>
<line x1="360.1" y1="248.2" x2="373.9" y2="272.0" stroke="rgb(0,0,0)"  stroke-width="1.0"/>
<line x1="179.3" y1="143.6" x2="152.4" y2="143.6" stroke="rgb(0,0,0)"  stroke-width="1.0"/>
<line x1="186.1" y1="223.5" x2="199.5" y2="247.0" stroke="rgb(0,0,0)"  stroke-width="1.0"/>
<line x1="132.9" y1="154.8" x2="119.7" y2="177.7" stroke="rgb(0,0,0)"  stroke-width="1.0"/>
<line x1="199.5" y1="247.0" x2="185.9" y2="270.2" stroke="rgb(0,0,0)"  stroke-width="1.0"/>
<line x1="119.7" y1="177.7" x2="79.8" y2="178.0" stroke="rgb(0,0,0)"  stroke-width="1.0"/>
<line x1="79.8" y1="178.0" x2="53.0" y2="177.8" stroke="rgb(0,0,0)"  stroke-width="1.0"/>
<line x1="79.7" y1="182.2" x2="53.0" y2="182.0" stroke="rgb(0,0,0)"  stroke-width="1.0"/>
<line x1="79.8" y1="173.8" x2="53.0" y2="173.6" stroke="rgb(0,0,0)"  stroke-width="1.0"/>
<line x1="299.9" y1="144.1" x2="320.0" y2="109.8" stroke="rgb(0,0,0)"  stroke-width="1.0"/>
<line x1="320.0" y1="109.8" x2="359.8" y2="110.0" stroke="rgb(0,0,0)"  stroke-width="1.0"/>
<line x1="326.0" y1="117.1" x2="353.8" y2="117.2" stroke="rgb(0,0,0)"  stroke-width="1.0"/>
<line x1="359.8" y1="110.0" x2="373.3" y2="133.5" stroke="rgb(0,0,0)"  stroke-width="1.0"/>
<line x1="373.2" y1="156.0" x2="359.8" y2="178.8" stroke="rgb(0,0,0)"  stroke-width="1.0"/>
<line x1="359.8" y1="178.8" x2="319.5" y2="178.8" stroke="rgb(0,0,0)"  stroke-width="1.0"/>
<line x1="353.8" y1="171.6" x2="325.5" y2="171.6" stroke="rgb(0,0,0)"  stroke-width="1.0"/>
<line x1="319.5" y1="178.8" x2="299.9" y2="144.1" stroke="rgb(0,0,0)"  stroke-width="1.0"/>
<line x1="319.5" y1="178.8" x2="299.5" y2="213.6" stroke="rgb(0,0,0)"  stroke-width="1.0"/>
<line x1="299.5" y1="213.6" x2="319.5" y2="248.7" stroke="rgb(0,0,0)"  stroke-width="1.0"/>
<line x1="308.8" y1="215.2" x2="322.8" y2="239.9" stroke="rgb(0,0,0)"  stroke-width="1.0"/>
<line x1="319.5" y1="248.7" x2="360.1" y2="248.2" stroke="rgb(0,0,0)"  stroke-width="1.0"/>
<line x1="360.1" y1="248.2" x2="379.8" y2="213.6" stroke="rgb(0,0,0)"  stroke-width="1.0"/>
<line x1="356.8" y1="239.4" x2="370.5" y2="215.2" stroke="rgb(0,0,0)"  stroke-width="1.0"/>
<line x1="379.8" y1="213.6" x2="359.8" y2="178.8" stroke="rgb(0,0,0)"  stroke-width="1.0"/>
<line x1="259.7" y1="144.1" x2="239.8" y2="108.8" stroke="rgb(0,0,0)"  stroke-width="1.0"/>
<line x1="250.5" y1="142.4" x2="236.5" y2="117.6" stroke="rgb(0,0,0)"  stroke-width="1.0"/>
<line x1="239.8" y1="108.8" x2="200.2" y2="108.8" stroke="rgb(0,0,0)"  stroke-width="1.0"/>
<line x1="200.2" y1="108.8" x2="179.3" y2="143.6" stroke="rgb(0,0,0)"  stroke-width="1.0"/>
<line x1="203.2" y1="117.7" x2="188.6" y2="142.1" stroke="rgb(0,0,0)"  stroke-width="1.0"/>
<line x1="179.3" y1="143.6" x2="199.6" y2="178.2" stroke="rgb(0,0,0)"  stroke-width="1.0"/>
<line x1="199.6" y1="178.2" x2="239.6" y2="178.2" stroke="rgb(0,0,0)"  stroke-width="1.0"/>
<line x1="205.6" y1="171.0" x2="233.6" y2="171.0" stroke="rgb(0,0,0)"  stroke-width="1.0"/>
<line x1="239.6" y1="178.2" x2="259.7" y2="144.1" stroke="rgb(0,0,0)"  stroke-width="1.0"/>
<text x="373.772088" y="152.751276" fill="rgb(255,12,12)"  stroke="rgb(255,12,12)" stroke-width="1" font-size="16" >O</text>
<text x="376.280613" y="83.422388" fill="rgb(12,12,255)"  stroke="rgb(12,12,255)" stroke-width="1" font-size="16" >NH</text>
<text x="400.280613" y="87.102388" fill="rgb(12,12,255)"  stroke="rgb(12,12,255)" stroke-width="1" font-size="13" >2</text>
<text x="274.561312" y="48.000000" fill="rgb(12,12,255)"  stroke="rgb(12,12,255)" stroke-width="1" font-size="16" >N</text>
<text x="173.669982" y="220.234945" fill="rgb(255,12,12)"  stroke="rgb(255,12,12)" stroke-width="1" font-size="16" >O</text>
<text x="374.445278" y="291.249229" fill="rgb(255,12,12)"  stroke="rgb(255,12,12)" stroke-width="1" font-size="16" >OH</text>
<text x="133.380285" y="151.579247" fill="rgb(255,12,12)"  stroke="rgb(255,12,12)" stroke-width="1" font-size="16" >O</text>
<text x="153.335808" y="289.399167" fill="rgb(102,102,102)"  stroke="rgb(102,102,102)" stroke-width="1" font-size="16" >H</text>
<text x="165.335808" y="293.079167" fill="rgb(102,102,102)"  stroke="rgb(102,102,102)" stroke-width="1" font-size="13" >3</text>
<text x="171.835808" y="289.399167" fill="rgb(102,102,102)"  stroke="rgb(102,102,102)" stroke-width="1" font-size="16" >C</text>
<text x="22.000000" y="185.655255" fill="rgb(102,102,102)"  stroke="rgb(102,102,102)" stroke-width="1" font-size="16" >HC</text>
<text font-size="18.000000" fill ="black" font-family="sans-serif"
x="10.000000" y="20.000000" ></text>
<title> - OBDepict</title>
</svg>
