<?xml version="1.0"?>
<svg xmlns="http://www.w3.org/2000/svg"
xmlns:xlink="http://www.w3.org/1999/xlink" xmlns:cml="http://www.xml-cml.org/schema" width="460.32" height="278.847" x="0" y="0" font-family="sans-serif" stroke="rgb(0,0,0)" stroke-width="1"  stroke-linecap="round">
<rect x="0%" y="0%" width="100%" height="100%" stroke-width="0" fill="rgb(255,255,255)"  />
<line x1="267.0" y1="112.4" x2="240.0" y2="112.1" stroke="rgb(0,0,0)"  stroke-width="1.0"/>
<line x1="267.1" y1="106.4" x2="240.1" y2="106.1" stroke="rgb(0,0,0)"  stroke-width="1.0"/>
<line x1="300.1" y1="75.0" x2="286.6" y2="98.3" stroke="rgb(0,0,0)"  stroke-width="1.0"/>
<line x1="340.1" y1="75.0" x2="300.1" y2="75.0" stroke="rgb(0,0,0)"  stroke-width="1.0"/>
<line x1="202.1" y1="209.1" x2="228.7" y2="179.4" stroke="rgb(0,0,0)"  stroke-width="1.0"/>
<line x1="184.1" y1="229.2" x2="202.1" y2="209.1" stroke="rgb(0,0,0)"  stroke-width="1.0"/>
<line x1="181.0" y1="226.4" x2="198.9" y2="206.3" stroke="rgb(0,0,0)"  stroke-width="1.0"/>
<line x1="187.2" y1="232.0" x2="205.2" y2="211.9" stroke="rgb(0,0,0)"  stroke-width="1.0"/>
<line x1="289.2" y1="50.1" x2="302.7" y2="73.5" stroke="rgb(0,0,0)"  stroke-width="1.0"/>
<line x1="284.0" y1="53.2" x2="297.5" y2="76.5" stroke="rgb(0,0,0)"  stroke-width="1.0"/>
<line x1="228.7" y1="179.4" x2="220.6" y2="153.6" stroke="rgb(0,0,0)"  stroke-width="1.0"/>
<line x1="346.2" y1="133.0" x2="360.1" y2="109.1" stroke="rgb(0,0,0)"  stroke-width="1.0"/>
<line x1="85.4" y1="75.4" x2="109.3" y2="89.1" stroke="rgb(0,0,0)"  stroke-width="1.0"/>
<line x1="51.2" y1="82.3" x2="62.9" y2="75.5" stroke="rgb(0,0,0)"  stroke-width="1.0"/>
<line x1="240.1" y1="109.1" x2="224.3" y2="87.3" stroke="rgb(0,0,0)"  stroke-width="1.0"/>
<line x1="204.3" y1="80.8" x2="178.4" y2="89.1" stroke="rgb(0,0,0)"  stroke-width="1.0"/>
<line x1="178.4" y1="89.1" x2="178.4" y2="129.1" stroke="rgb(0,0,0)"  stroke-width="1.0"/>
<line x1="185.6" y1="95.1" x2="185.6" y2="123.1" stroke="rgb(0,0,0)"  stroke-width="1.0"/>
<line x1="178.4" y1="129.1" x2="204.2" y2="137.3" stroke="rgb(0,0,0)"  stroke-width="1.0"/>
<line x1="224.3" y1="130.7" x2="240.1" y2="109.1" stroke="rgb(0,0,0)"  stroke-width="1.0"/>
<line x1="340.1" y1="75.0" x2="360.1" y2="109.1" stroke="rgb(0,0,0)"  stroke-width="1.0"/>
<line x1="349.3" y1="76.5" x2="363.3" y2="100.3" stroke="rgb(0,0,0)"  stroke-width="1.0"/>
<line x1="360.1" y1="109.1" x2="399.7" y2="109.7" stroke="rgb(0,0,0)"  stroke-width="1.0"/>
<line x1="399.7" y1="109.7" x2="420.3" y2="75.8" stroke="rgb(0,0,0)"  stroke-width="1.0"/>
<line x1="396.7" y1="100.9" x2="411.1" y2="77.2" stroke="rgb(0,0,0)"  stroke-width="1.0"/>
<line x1="420.3" y1="75.8" x2="400.3" y2="40.4" stroke="rgb(0,0,0)"  stroke-width="1.0"/>
<line x1="400.3" y1="40.4" x2="360.7" y2="40.0" stroke="rgb(0,0,0)"  stroke-width="1.0"/>
<line x1="394.2" y1="47.5" x2="366.6" y2="47.3" stroke="rgb(0,0,0)"  stroke-width="1.0"/>
<line x1="360.7" y1="40.0" x2="340.1" y2="75.0" stroke="rgb(0,0,0)"  stroke-width="1.0"/>
<line x1="143.9" y1="69.1" x2="178.4" y2="89.1" stroke="rgb(0,0,0)"  stroke-width="1.0"/>
<line x1="178.4" y1="129.1" x2="143.9" y2="149.1" stroke="rgb(0,0,0)"  stroke-width="1.0"/>
<line x1="143.9" y1="149.1" x2="109.3" y2="129.1" stroke="rgb(0,0,0)"  stroke-width="1.0"/>
<line x1="142.3" y1="139.9" x2="118.1" y2="125.9" stroke="rgb(0,0,0)"  stroke-width="1.0"/>
<line x1="109.3" y1="129.1" x2="109.3" y2="89.1" stroke="rgb(0,0,0)"  stroke-width="1.0"/>
<line x1="109.3" y1="89.1" x2="143.9" y2="69.1" stroke="rgb(0,0,0)"  stroke-width="1.0"/>
<line x1="118.1" y1="92.3" x2="142.3" y2="78.3" stroke="rgb(0,0,0)"  stroke-width="1.0"/>
<text x="274.073726" y="117.515532" fill="rgb(12,12,255)"  stroke="rgb(12,12,255)" stroke-width="1" font-size="16" >N</text>
<text x="210.622593" y="149.241098" fill="rgb(12,12,255)"  stroke="rgb(12,12,255)" stroke-width="1" font-size="16" >N</text>
<text x="210.622593" y="84.778426" fill="rgb(178,178,0)"  stroke="rgb(178,178,0)" stroke-width="1" font-size="16" >S</text>
<text x="157.396296" y="246.847429" fill="rgb(102,102,102)"  stroke="rgb(102,102,102)" stroke-width="1" font-size="16" >HC</text>
<text x="274.073726" y="48.401712" fill="rgb(255,12,12)"  stroke="rgb(255,12,12)" stroke-width="1" font-size="16" >O</text>
<text x="321.686816" y="152.275718" fill="rgb(165,40,40)"  stroke="rgb(165,40,40)" stroke-width="1" font-size="16" >Br</text>
<text x="68.155198" y="76.894223" fill="rgb(255,12,12)"  stroke="rgb(255,12,12)" stroke-width="1" font-size="16" >O</text>
<text x="14.000000" y="96.902384" fill="rgb(102,102,102)"  stroke="rgb(102,102,102)" stroke-width="1" font-size="16" >H</text>
<text x="26.000000" y="100.582384" fill="rgb(102,102,102)"  stroke="rgb(102,102,102)" stroke-width="1" font-size="13" >3</text>
<text x="32.500000" y="96.902384" fill="rgb(102,102,102)"  stroke="rgb(102,102,102)" stroke-width="1" font-size="16" >C</text>
<text font-size="18.000000" fill ="black" font-family="sans-serif"
x="10.000000" y="20.000000" ></text>
<title> - OBDepict</title>
</svg>
