<?xml version="1.0"?>
<svg xmlns="http://www.w3.org/2000/svg"
xmlns:xlink="http://www.w3.org/1999/xlink" xmlns:cml="http://www.xml-cml.org/schema" width="309.703" height="159.866" x="0" y="0" font-family="sans-serif" stroke="rgb(0,0,0)" stroke-width="1"  stroke-linecap="round">
<rect x="0%" y="0%" width="100%" height="100%" stroke-width="0" fill="rgb(255,255,255)"  />
<line x1="260.1" y1="48.8" x2="240.2" y2="67.1" stroke="rgb(0,0,0)"  stroke-width="1.0"/>
<line x1="263.0" y1="51.9" x2="243.0" y2="70.2" stroke="rgb(0,0,0)"  stroke-width="1.0"/>
<line x1="257.3" y1="45.7" x2="237.3" y2="64.0" stroke="rgb(0,0,0)"  stroke-width="1.0"/>
<line x1="105.3" y1="96.4" x2="143.5" y2="108.5" stroke="rgb(0,0,0)"  stroke-width="1.0"/>
<line x1="185.2" y1="85.8" x2="211.1" y2="94.0" stroke="rgb(0,0,0)"  stroke-width="1.0"/>
<line x1="211.1" y1="94.0" x2="240.2" y2="67.1" stroke="rgb(0,0,0)"  stroke-width="1.0"/>
<line x1="143.5" y1="108.5" x2="163.2" y2="90.6" stroke="rgb(0,0,0)"  stroke-width="1.0"/>
<line x1="105.3" y1="96.4" x2="83.3" y2="112.3" stroke="rgb(0,0,0)"  stroke-width="1.0"/>
<line x1="62.3" y1="112.2" x2="40.0" y2="95.8" stroke="rgb(0,0,0)"  stroke-width="1.0"/>
<line x1="40.0" y1="95.8" x2="53.1" y2="58.2" stroke="rgb(0,0,0)"  stroke-width="1.0"/>
<line x1="48.8" y1="92.5" x2="58.0" y2="66.2" stroke="rgb(0,0,0)"  stroke-width="1.0"/>
<line x1="53.1" y1="58.2" x2="92.8" y2="58.2" stroke="rgb(0,0,0)"  stroke-width="1.0"/>
<line x1="92.8" y1="58.2" x2="105.3" y2="96.4" stroke="rgb(0,0,0)"  stroke-width="1.0"/>
<line x1="87.8" y1="66.1" x2="96.6" y2="93.0" stroke="rgb(0,0,0)"  stroke-width="1.0"/>
<text x="263.703167" y="48.000000" fill="rgb(102,102,102)"  stroke="rgb(102,102,102)" stroke-width="1" font-size="16" >CH</text>
<text x="66.759232" y="127.865501" fill="rgb(255,12,12)"  stroke="rgb(255,12,12)" stroke-width="1" font-size="16" >O</text>
<text x="166.848519" y="89.856050" fill="rgb(12,12,255)"  stroke="rgb(12,12,255)" stroke-width="1" font-size="16" >N</text>
<text x="166.848519" y="73.856050" fill="rgb(12,12,255)"  stroke="rgb(12,12,255)" stroke-width="1" font-size="16" >H</text>
<text font-size="18.000000" fill ="black" font-family="sans-serif"
x="10.000000" y="20.000000" ></text>
<title> - OBDepict</title>
</svg>
