<?xml version="1.0"?>
<svg xmlns="http://www.w3.org/2000/svg"
xmlns:xlink="http://www.w3.org/1999/xlink" xmlns:cml="http://www.xml-cml.org/schema" width="461.496" height="378.721" x="0" y="0" font-family="sans-serif" stroke="rgb(0,0,0)" stroke-width="1"  stroke-linecap="round">
<rect x="0%" y="0%" width="100%" height="100%" stroke-width="0" fill="rgb(255,255,255)"  />
<line x1="284.4" y1="96.3" x2="319.2" y2="116.3" stroke="rgb(0,0,0)"  stroke-width="1.0"/>
<line x1="281.4" y1="101.5" x2="316.2" y2="121.5" stroke="rgb(0,0,0)"  stroke-width="1.0"/>
<line x1="352.1" y1="218.9" x2="352.1" y2="191.8" stroke="rgb(0,0,0)"  stroke-width="1.0"/>
<line x1="248.3" y1="118.9" x2="282.9" y2="98.9" stroke="rgb(0,0,0)"  stroke-width="1.0"/>
<line x1="408.7" y1="175.2" x2="385.2" y2="161.6" stroke="rgb(0,0,0)"  stroke-width="1.0"/>
<line x1="411.7" y1="170.0" x2="388.2" y2="156.4" stroke="rgb(0,0,0)"  stroke-width="1.0"/>
<line x1="74.8" y1="178.4" x2="109.4" y2="159.0" stroke="rgb(0,0,0)"  stroke-width="1.0"/>
<line x1="51.3" y1="192.0" x2="74.8" y2="178.4" stroke="rgb(0,0,0)"  stroke-width="1.0"/>
<line x1="49.2" y1="188.3" x2="72.7" y2="174.8" stroke="rgb(0,0,0)"  stroke-width="1.0"/>
<line x1="53.4" y1="195.6" x2="76.9" y2="182.1" stroke="rgb(0,0,0)"  stroke-width="1.0"/>
<line x1="292.6" y1="170.0" x2="316.2" y2="156.4" stroke="rgb(0,0,0)"  stroke-width="1.0"/>
<line x1="295.6" y1="175.2" x2="319.2" y2="161.6" stroke="rgb(0,0,0)"  stroke-width="1.0"/>
<line x1="355.1" y1="71.6" x2="355.1" y2="98.7" stroke="rgb(0,0,0)"  stroke-width="1.0"/>
<line x1="349.1" y1="71.6" x2="349.1" y2="98.7" stroke="rgb(0,0,0)"  stroke-width="1.0"/>
<line x1="143.8" y1="59.8" x2="144.0" y2="99.5" stroke="rgb(0,0,0)"  stroke-width="1.0"/>
<line x1="121.6" y1="43.8" x2="145.3" y2="57.2" stroke="rgb(0,0,0)"  stroke-width="1.0"/>
<line x1="118.6" y1="49.0" x2="142.3" y2="62.4" stroke="rgb(0,0,0)"  stroke-width="1.0"/>
<line x1="213.4" y1="205.5" x2="213.6" y2="179.0" stroke="rgb(0,0,0)"  stroke-width="1.0"/>
<line x1="155.3" y1="172.4" x2="179.0" y2="159.0" stroke="rgb(0,0,0)"  stroke-width="1.0"/>
<line x1="144.0" y1="99.5" x2="179.0" y2="118.9" stroke="rgb(0,0,0)"  stroke-width="1.0"/>
<line x1="351.3" y1="325.7" x2="351.7" y2="298.6" stroke="rgb(0,0,0)"  stroke-width="1.0"/>
<line x1="109.4" y1="159.0" x2="132.7" y2="172.4" stroke="rgb(0,0,0)"  stroke-width="1.0"/>
<line x1="236.6" y1="232.0" x2="224.5" y2="225.0" stroke="rgb(0,0,0)"  stroke-width="1.0"/>
<line x1="363.4" y1="172.4" x2="386.7" y2="159.0" stroke="rgb(0,0,0)"  stroke-width="1.0"/>
<line x1="386.7" y1="159.0" x2="386.7" y2="131.9" stroke="rgb(0,0,0)"  stroke-width="1.0"/>
<line x1="375.5" y1="112.4" x2="352.1" y2="98.7" stroke="rgb(0,0,0)"  stroke-width="1.0"/>
<line x1="352.1" y1="98.7" x2="317.7" y2="118.9" stroke="rgb(0,0,0)"  stroke-width="1.0"/>
<line x1="317.7" y1="118.9" x2="317.7" y2="159.0" stroke="rgb(0,0,0)"  stroke-width="1.0"/>
<line x1="317.7" y1="159.0" x2="340.8" y2="172.3" stroke="rgb(0,0,0)"  stroke-width="1.0"/>
<line x1="248.3" y1="118.9" x2="248.3" y2="159.0" stroke="rgb(0,0,0)"  stroke-width="1.0"/>
<line x1="241.1" y1="124.9" x2="241.1" y2="153.0" stroke="rgb(0,0,0)"  stroke-width="1.0"/>
<line x1="248.3" y1="159.0" x2="213.6" y2="179.0" stroke="rgb(0,0,0)"  stroke-width="1.0"/>
<line x1="213.6" y1="179.0" x2="179.0" y2="159.0" stroke="rgb(0,0,0)"  stroke-width="1.0"/>
<line x1="212.1" y1="169.8" x2="187.8" y2="155.8" stroke="rgb(0,0,0)"  stroke-width="1.0"/>
<line x1="179.0" y1="159.0" x2="179.0" y2="118.9" stroke="rgb(0,0,0)"  stroke-width="1.0"/>
<line x1="179.0" y1="118.9" x2="213.2" y2="98.9" stroke="rgb(0,0,0)"  stroke-width="1.0"/>
<line x1="187.9" y1="122.1" x2="211.7" y2="108.1" stroke="rgb(0,0,0)"  stroke-width="1.0"/>
<line x1="213.2" y1="98.9" x2="248.3" y2="118.9" stroke="rgb(0,0,0)"  stroke-width="1.0"/>
<line x1="352.1" y1="218.9" x2="386.7" y2="238.5" stroke="rgb(0,0,0)"  stroke-width="1.0"/>
<line x1="386.7" y1="238.5" x2="386.3" y2="278.6" stroke="rgb(0,0,0)"  stroke-width="1.0"/>
<line x1="379.4" y1="244.5" x2="379.1" y2="272.5" stroke="rgb(0,0,0)"  stroke-width="1.0"/>
<line x1="386.3" y1="278.6" x2="351.7" y2="298.6" stroke="rgb(0,0,0)"  stroke-width="1.0"/>
<line x1="351.7" y1="298.6" x2="317.1" y2="278.6" stroke="rgb(0,0,0)"  stroke-width="1.0"/>
<line x1="350.1" y1="289.4" x2="325.9" y2="275.4" stroke="rgb(0,0,0)"  stroke-width="1.0"/>
<line x1="317.1" y1="278.6" x2="317.1" y2="238.5" stroke="rgb(0,0,0)"  stroke-width="1.0"/>
<line x1="317.1" y1="238.5" x2="352.1" y2="218.9" stroke="rgb(0,0,0)"  stroke-width="1.0"/>
<line x1="325.8" y1="241.9" x2="350.4" y2="228.1" stroke="rgb(0,0,0)"  stroke-width="1.0"/>
<text x="346.077806" y="186.836063" fill="rgb(12,12,255)"  stroke="rgb(12,12,255)" stroke-width="1" font-size="16" >N</text>
<text x="380.687327" y="126.930675" fill="rgb(12,12,255)"  stroke="rgb(12,12,255)" stroke-width="1" font-size="16" >NH</text>
<text x="415.495837" y="187.039906" fill="rgb(178,178,0)"  stroke="rgb(178,178,0)" stroke-width="1" font-size="16" >S</text>
<text x="22.000000" y="206.468024" fill="rgb(102,102,102)"  stroke="rgb(102,102,102)" stroke-width="1" font-size="16" >HC</text>
<text x="276.863616" y="187.039906" fill="rgb(255,12,12)"  stroke="rgb(255,12,12)" stroke-width="1" font-size="16" >O</text>
<text x="346.077806" y="66.617603" fill="rgb(255,12,12)"  stroke="rgb(255,12,12)" stroke-width="1" font-size="16" >O</text>
<text x="82.811358" y="48.000000" fill="rgb(102,102,102)"  stroke="rgb(102,102,102)" stroke-width="1" font-size="16" >H</text>
<text x="94.811358" y="51.680000" fill="rgb(102,102,102)"  stroke="rgb(102,102,102)" stroke-width="1" font-size="13" >2</text>
<text x="101.311358" y="48.000000" fill="rgb(102,102,102)"  stroke="rgb(102,102,102)" stroke-width="1" font-size="16" >C</text>
<text x="207.241742" y="226.502817" fill="rgb(255,12,12)"  stroke="rgb(255,12,12)" stroke-width="1" font-size="16" >O</text>
<text x="138.027553" y="186.836063" fill="rgb(255,12,12)"  stroke="rgb(255,12,12)" stroke-width="1" font-size="16" >O</text>
<text x="345.068301" y="346.721277" fill="rgb(127,178,255)"  stroke="rgb(127,178,255)" stroke-width="1" font-size="16" >F</text>
<text x="243.851264" y="246.542462" fill="rgb(102,102,102)"  stroke="rgb(102,102,102)" stroke-width="1" font-size="16" >CH</text>
<text x="267.851264" y="250.222462" fill="rgb(102,102,102)"  stroke="rgb(102,102,102)" stroke-width="1" font-size="13" >3</text>
<text font-size="18.000000" fill ="black" font-family="sans-serif"
x="10.000000" y="20.000000" ></text>
<title> - OBDepict</title>
</svg>
