<?xml version="1.0"?>
<svg xmlns="http://www.w3.org/2000/svg"
xmlns:xlink="http://www.w3.org/1999/xlink" xmlns:cml="http://www.xml-cml.org/schema" width="391.869" height="439.944" x="0" y="0" font-family="sans-serif" stroke="rgb(0,0,0)" stroke-width="1"  stroke-linecap="round">
<rect x="0%" y="0%" width="100%" height="100%" stroke-width="0" fill="rgb(255,255,255)"  />
<line x1="74.7" y1="320.0" x2="74.7" y2="293.0" stroke="rgb(0,0,0)"  stroke-width="1.0"/>
<line x1="74.7" y1="160.0" x2="109.3" y2="140.0" stroke="rgb(0,0,0)"  stroke-width="1.0"/>
<line x1="74.7" y1="187.0" x2="74.7" y2="160.0" stroke="rgb(0,0,0)"  stroke-width="1.0"/>
<line x1="98.0" y1="333.4" x2="74.7" y2="320.0" stroke="rgb(0,0,0)"  stroke-width="1.0"/>
<line x1="178.6" y1="100.0" x2="202.0" y2="86.5" stroke="rgb(0,0,0)"  stroke-width="1.0"/>
<line x1="317.1" y1="60.0" x2="282.6" y2="80.0" stroke="rgb(0,0,0)"  stroke-width="1.0"/>
<line x1="340.6" y1="46.5" x2="317.1" y2="60.0" stroke="rgb(0,0,0)"  stroke-width="1.0"/>
<line x1="342.7" y1="50.1" x2="319.2" y2="63.6" stroke="rgb(0,0,0)"  stroke-width="1.0"/>
<line x1="338.5" y1="42.8" x2="315.0" y2="56.4" stroke="rgb(0,0,0)"  stroke-width="1.0"/>
<line x1="202.4" y1="55.2" x2="209.4" y2="67.2" stroke="rgb(0,0,0)"  stroke-width="1.0"/>
<line x1="197.2" y1="58.2" x2="204.2" y2="70.2" stroke="rgb(0,0,0)"  stroke-width="1.0"/>
<line x1="224.2" y1="105.0" x2="217.2" y2="92.8" stroke="rgb(0,0,0)"  stroke-width="1.0"/>
<line x1="229.4" y1="102.0" x2="222.4" y2="89.8" stroke="rgb(0,0,0)"  stroke-width="1.0"/>
<line x1="49.8" y1="330.9" x2="73.2" y2="317.4" stroke="rgb(0,0,0)"  stroke-width="1.0"/>
<line x1="52.8" y1="336.1" x2="76.2" y2="322.6" stroke="rgb(0,0,0)"  stroke-width="1.0"/>
<line x1="236.6" y1="66.5" x2="224.6" y2="73.5" stroke="rgb(0,0,0)"  stroke-width="1.0"/>
<line x1="52.8" y1="143.9" x2="76.2" y2="157.4" stroke="rgb(0,0,0)"  stroke-width="1.0"/>
<line x1="49.8" y1="149.1" x2="73.2" y2="162.6" stroke="rgb(0,0,0)"  stroke-width="1.0"/>
<line x1="282.6" y1="80.0" x2="259.1" y2="66.5" stroke="rgb(0,0,0)"  stroke-width="1.0"/>
<line x1="86.0" y1="206.5" x2="109.3" y2="220.0" stroke="rgb(0,0,0)"  stroke-width="1.0"/>
<line x1="109.3" y1="220.0" x2="109.3" y2="260.0" stroke="rgb(0,0,0)"  stroke-width="1.0"/>
<line x1="109.3" y1="260.0" x2="86.0" y2="273.4" stroke="rgb(0,0,0)"  stroke-width="1.0"/>
<line x1="63.5" y1="273.5" x2="40.0" y2="260.0" stroke="rgb(0,0,0)"  stroke-width="1.0"/>
<line x1="40.0" y1="260.0" x2="40.0" y2="220.0" stroke="rgb(0,0,0)"  stroke-width="1.0"/>
<line x1="40.0" y1="220.0" x2="63.5" y2="206.5" stroke="rgb(0,0,0)"  stroke-width="1.0"/>
<line x1="178.6" y1="100.0" x2="178.6" y2="140.0" stroke="rgb(0,0,0)"  stroke-width="1.0"/>
<line x1="178.6" y1="140.0" x2="144.0" y2="160.0" stroke="rgb(0,0,0)"  stroke-width="1.0"/>
<line x1="169.8" y1="136.8" x2="145.6" y2="150.7" stroke="rgb(0,0,0)"  stroke-width="1.0"/>
<line x1="144.0" y1="160.0" x2="109.3" y2="140.0" stroke="rgb(0,0,0)"  stroke-width="1.0"/>
<line x1="109.3" y1="140.0" x2="109.3" y2="100.0" stroke="rgb(0,0,0)"  stroke-width="1.0"/>
<line x1="116.5" y1="134.0" x2="116.5" y2="106.0" stroke="rgb(0,0,0)"  stroke-width="1.0"/>
<line x1="109.3" y1="100.0" x2="144.0" y2="80.0" stroke="rgb(0,0,0)"  stroke-width="1.0"/>
<line x1="144.0" y1="80.0" x2="178.6" y2="100.0" stroke="rgb(0,0,0)"  stroke-width="1.0"/>
<line x1="145.6" y1="89.2" x2="169.8" y2="103.2" stroke="rgb(0,0,0)"  stroke-width="1.0"/>
<line x1="120.5" y1="333.5" x2="144.0" y2="320.0" stroke="rgb(0,0,0)"  stroke-width="1.0"/>
<line x1="144.0" y1="320.0" x2="178.6" y2="340.0" stroke="rgb(0,0,0)"  stroke-width="1.0"/>
<line x1="178.6" y1="340.0" x2="178.6" y2="379.9" stroke="rgb(0,0,0)"  stroke-width="1.0"/>
<line x1="178.6" y1="379.9" x2="144.0" y2="399.9" stroke="rgb(0,0,0)"  stroke-width="1.0"/>
<line x1="144.0" y1="399.9" x2="109.3" y2="379.9" stroke="rgb(0,0,0)"  stroke-width="1.0"/>
<line x1="109.3" y1="379.9" x2="109.3" y2="353.0" stroke="rgb(0,0,0)"  stroke-width="1.0"/>
<text x="207.306423" y="87.993790" fill="rgb(178,178,0)"  stroke="rgb(178,178,0)" stroke-width="1" font-size="16" >S</text>
<text x="68.738848" y="287.962740" fill="rgb(12,12,255)"  stroke="rgb(12,12,255)" stroke-width="1" font-size="16" >N</text>
<text x="68.738848" y="207.975160" fill="rgb(12,12,255)"  stroke="rgb(12,12,255)" stroke-width="1" font-size="16" >N</text>
<text x="103.278940" y="347.953425" fill="rgb(12,12,255)"  stroke="rgb(12,12,255)" stroke-width="1" font-size="16" >N</text>
<text x="345.869150" y="48.000000" fill="rgb(102,102,102)"  stroke="rgb(102,102,102)" stroke-width="1" font-size="16" >CH</text>
<text x="187.309528" y="53.453699" fill="rgb(255,12,12)"  stroke="rgb(255,12,12)" stroke-width="1" font-size="16" >O</text>
<text x="227.303318" y="122.737486" fill="rgb(255,12,12)"  stroke="rgb(255,12,12)" stroke-width="1" font-size="16" >O</text>
<text x="34.000000" y="347.953425" fill="rgb(255,12,12)"  stroke="rgb(255,12,12)" stroke-width="1" font-size="16" >O</text>
<text x="241.846515" y="67.996895" fill="rgb(12,12,255)"  stroke="rgb(12,12,255)" stroke-width="1" font-size="16" >N</text>
<text x="241.846515" y="51.996895" fill="rgb(12,12,255)"  stroke="rgb(12,12,255)" stroke-width="1" font-size="16" >H</text>
<text x="34.000000" y="147.984475" fill="rgb(255,12,12)"  stroke="rgb(255,12,12)" stroke-width="1" font-size="16" >O</text>
<text font-size="18.000000" fill ="black" font-family="sans-serif"
x="10.000000" y="20.000000" ></text>
<title> - OBDepict</title>
</svg>
