<?xml version="1.0"?>
<svg xmlns="http://www.w3.org/2000/svg"
xmlns:xlink="http://www.w3.org/1999/xlink" xmlns:cml="http://www.xml-cml.org/schema" width="413.813" height="205.655" x="0" y="0" font-family="sans-serif" stroke="rgb(0,0,0)" stroke-width="1"  stroke-linecap="round">
<rect x="0%" y="0%" width="100%" height="100%" stroke-width="0" fill="rgb(255,255,255)"  />
<line x1="345.8" y1="137.4" x2="317.1" y2="108.9" stroke="rgb(0,0,0)"  stroke-width="1.0"/>
<line x1="271.6" y1="122.5" x2="248.2" y2="108.9" stroke="rgb(0,0,0)"  stroke-width="1.0"/>
<line x1="364.7" y1="156.4" x2="345.8" y2="137.4" stroke="rgb(0,0,0)"  stroke-width="1.0"/>
<line x1="361.7" y1="159.4" x2="342.8" y2="140.4" stroke="rgb(0,0,0)"  stroke-width="1.0"/>
<line x1="367.6" y1="153.5" x2="348.8" y2="134.5" stroke="rgb(0,0,0)"  stroke-width="1.0"/>
<line x1="224.7" y1="122.5" x2="248.2" y2="108.9" stroke="rgb(0,0,0)"  stroke-width="1.0"/>
<line x1="317.1" y1="108.9" x2="294.1" y2="122.4" stroke="rgb(0,0,0)"  stroke-width="1.0"/>
<line x1="251.2" y1="81.9" x2="251.2" y2="108.9" stroke="rgb(0,0,0)"  stroke-width="1.0"/>
<line x1="245.2" y1="81.9" x2="245.2" y2="108.9" stroke="rgb(0,0,0)"  stroke-width="1.0"/>
<line x1="178.8" y1="108.9" x2="202.2" y2="122.5" stroke="rgb(0,0,0)"  stroke-width="1.0"/>
<line x1="347.8" y1="83.4" x2="317.1" y2="108.9" stroke="rgb(0,0,0)"  stroke-width="1.0"/>
<line x1="294.4" y1="76.3" x2="317.1" y2="108.9" stroke="rgb(0,0,0)"  stroke-width="1.0"/>
<line x1="74.7" y1="48.9" x2="109.4" y2="68.9" stroke="rgb(0,0,0)"  stroke-width="1.0"/>
<line x1="305.7" y1="51.8" x2="294.4" y2="76.3" stroke="rgb(0,0,0)"  stroke-width="1.0"/>
<line x1="343.3" y1="56.8" x2="347.8" y2="83.4" stroke="rgb(0,0,0)"  stroke-width="1.0"/>
<line x1="51.3" y1="62.4" x2="74.7" y2="48.9" stroke="rgb(0,0,0)"  stroke-width="1.0"/>
<line x1="178.8" y1="108.9" x2="144.1" y2="129.0" stroke="rgb(0,0,0)"  stroke-width="1.0"/>
<line x1="170.0" y1="105.7" x2="145.7" y2="119.7" stroke="rgb(0,0,0)"  stroke-width="1.0"/>
<line x1="144.1" y1="129.0" x2="109.4" y2="108.9" stroke="rgb(0,0,0)"  stroke-width="1.0"/>
<line x1="109.4" y1="108.9" x2="109.4" y2="68.9" stroke="rgb(0,0,0)"  stroke-width="1.0"/>
<line x1="116.6" y1="102.9" x2="116.6" y2="74.9" stroke="rgb(0,0,0)"  stroke-width="1.0"/>
<line x1="109.4" y1="68.9" x2="144.1" y2="48.9" stroke="rgb(0,0,0)"  stroke-width="1.0"/>
<line x1="144.1" y1="48.9" x2="178.8" y2="68.9" stroke="rgb(0,0,0)"  stroke-width="1.0"/>
<line x1="145.7" y1="58.1" x2="170.0" y2="72.1" stroke="rgb(0,0,0)"  stroke-width="1.0"/>
<line x1="178.8" y1="68.9" x2="178.8" y2="108.9" stroke="rgb(0,0,0)"  stroke-width="1.0"/>
<text x="276.851779" y="136.956322" fill="rgb(12,12,255)"  stroke="rgb(12,12,255)" stroke-width="1" font-size="16" >N</text>
<text x="276.851779" y="152.956322" fill="rgb(12,12,255)"  stroke="rgb(12,12,255)" stroke-width="1" font-size="16" >H</text>
<text x="367.813174" y="173.654507" fill="rgb(102,102,102)"  stroke="rgb(102,102,102)" stroke-width="1" font-size="16" >CH</text>
<text x="207.465556" y="136.956322" fill="rgb(12,12,255)"  stroke="rgb(12,12,255)" stroke-width="1" font-size="16" >N</text>
<text x="207.465556" y="152.956322" fill="rgb(12,12,255)"  stroke="rgb(12,12,255)" stroke-width="1" font-size="16" >H</text>
<text x="242.158667" y="76.910926" fill="rgb(255,12,12)"  stroke="rgb(255,12,12)" stroke-width="1" font-size="16" >O</text>
<text x="307.097583" y="48.000000" fill="rgb(102,102,102)"  stroke="rgb(102,102,102)" stroke-width="1" font-size="16" >CH</text>
<text x="331.097583" y="51.680000" fill="rgb(102,102,102)"  stroke="rgb(102,102,102)" stroke-width="1" font-size="13" >3</text>
<text x="315.120281" y="52.000437" fill="rgb(102,102,102)"  stroke="rgb(102,102,102)" stroke-width="1" font-size="16" >H</text>
<text x="327.120281" y="55.680437" fill="rgb(102,102,102)"  stroke="rgb(102,102,102)" stroke-width="1" font-size="13" >3</text>
<text x="333.620281" y="52.000437" fill="rgb(102,102,102)"  stroke="rgb(102,102,102)" stroke-width="1" font-size="16" >C</text>
<text x="14.000000" y="76.910926" fill="rgb(102,102,102)"  stroke="rgb(102,102,102)" stroke-width="1" font-size="16" >H</text>
<text x="26.000000" y="80.590926" fill="rgb(102,102,102)"  stroke="rgb(102,102,102)" stroke-width="1" font-size="13" >3</text>
<text x="32.500000" y="76.910926" fill="rgb(102,102,102)"  stroke="rgb(102,102,102)" stroke-width="1" font-size="16" >C</text>
<text font-size="18.000000" fill ="black" font-family="sans-serif"
x="10.000000" y="20.000000" ></text>
<title> - OBDepict</title>
</svg>
