<?xml version="1.0"?>
<svg xmlns="http://www.w3.org/2000/svg"
xmlns:xlink="http://www.w3.org/1999/xlink" xmlns:cml="http://www.xml-cml.org/schema" width="497.399" height="201.665" x="0" y="0" font-family="sans-serif" stroke="rgb(0,0,0)" stroke-width="1"  stroke-linecap="round">
<rect x="0%" y="0%" width="100%" height="100%" stroke-width="0" fill="rgb(255,255,255)"  />
<line x1="167.2" y1="87.0" x2="143.6" y2="100.4" stroke="rgb(0,0,0)"  stroke-width="1.0"/>
<line x1="422.3" y1="100.4" x2="387.5" y2="79.4" stroke="rgb(0,0,0)"  stroke-width="1.0"/>
<line x1="214.3" y1="100.4" x2="189.9" y2="86.9" stroke="rgb(0,0,0)"  stroke-width="1.0"/>
<line x1="446.1" y1="113.7" x2="422.3" y2="100.4" stroke="rgb(0,0,0)"  stroke-width="1.0"/>
<line x1="444.0" y1="117.4" x2="420.2" y2="104.1" stroke="rgb(0,0,0)"  stroke-width="1.0"/>
<line x1="448.1" y1="110.1" x2="424.3" y2="96.8" stroke="rgb(0,0,0)"  stroke-width="1.0"/>
<line x1="318.7" y1="80.6" x2="283.9" y2="100.4" stroke="rgb(0,0,0)"  stroke-width="1.0"/>
<line x1="211.3" y1="127.7" x2="211.3" y2="100.4" stroke="rgb(0,0,0)"  stroke-width="1.0"/>
<line x1="217.3" y1="127.7" x2="217.3" y2="100.4" stroke="rgb(0,0,0)"  stroke-width="1.0"/>
<line x1="321.7" y1="53.0" x2="321.7" y2="80.6" stroke="rgb(0,0,0)"  stroke-width="1.0"/>
<line x1="315.7" y1="53.0" x2="315.7" y2="80.6" stroke="rgb(0,0,0)"  stroke-width="1.0"/>
<line x1="110.1" y1="54.0" x2="109.7" y2="80.6" stroke="rgb(0,0,0)"  stroke-width="1.0"/>
<line x1="166.3" y1="154.8" x2="143.6" y2="140.7" stroke="rgb(0,0,0)"  stroke-width="1.0"/>
<line x1="249.2" y1="80.6" x2="214.3" y2="100.4" stroke="rgb(0,0,0)"  stroke-width="1.0"/>
<line x1="283.9" y1="100.4" x2="249.2" y2="80.6" stroke="rgb(0,0,0)"  stroke-width="1.0"/>
<line x1="51.6" y1="151.8" x2="74.9" y2="139.9" stroke="rgb(0,0,0)"  stroke-width="1.0"/>
<line x1="341.6" y1="93.9" x2="318.7" y2="80.6" stroke="rgb(0,0,0)"  stroke-width="1.0"/>
<line x1="387.5" y1="79.4" x2="363.9" y2="93.7" stroke="rgb(0,0,0)"  stroke-width="1.0"/>
<line x1="143.6" y1="100.4" x2="109.7" y2="80.6" stroke="rgb(0,0,0)"  stroke-width="1.0"/>
<line x1="109.7" y1="80.6" x2="74.9" y2="101.2" stroke="rgb(0,0,0)"  stroke-width="1.0"/>
<line x1="108.2" y1="89.9" x2="83.8" y2="104.4" stroke="rgb(0,0,0)"  stroke-width="1.0"/>
<line x1="74.9" y1="101.2" x2="74.9" y2="139.9" stroke="rgb(0,0,0)"  stroke-width="1.0"/>
<line x1="74.9" y1="139.9" x2="109.7" y2="160.7" stroke="rgb(0,0,0)"  stroke-width="1.0"/>
<line x1="83.8" y1="136.8" x2="108.2" y2="151.4" stroke="rgb(0,0,0)"  stroke-width="1.0"/>
<line x1="109.7" y1="160.7" x2="143.6" y2="140.7" stroke="rgb(0,0,0)"  stroke-width="1.0"/>
<line x1="143.6" y1="140.7" x2="143.6" y2="100.4" stroke="rgb(0,0,0)"  stroke-width="1.0"/>
<line x1="136.4" y1="134.7" x2="136.4" y2="106.4" stroke="rgb(0,0,0)"  stroke-width="1.0"/>
<text x="172.547307" y="88.619773" fill="rgb(12,12,255)"  stroke="rgb(12,12,255)" stroke-width="1" font-size="16" >N</text>
<text x="172.547307" y="72.619773" fill="rgb(12,12,255)"  stroke="rgb(12,12,255)" stroke-width="1" font-size="16" >H</text>
<text x="451.399321" y="128.061455" fill="rgb(102,102,102)"  stroke="rgb(102,102,102)" stroke-width="1" font-size="16" >CH</text>
<text x="208.259993" y="148.668298" fill="rgb(255,12,12)"  stroke="rgb(255,12,12)" stroke-width="1" font-size="16" >O</text>
<text x="312.657288" y="48.000000" fill="rgb(255,12,12)"  stroke="rgb(255,12,12)" stroke-width="1" font-size="16" >O</text>
<text x="104.257018" y="48.978496" fill="rgb(30,239,30)"  stroke="rgb(30,239,30)" stroke-width="1" font-size="16" >Cl</text>
<text x="171.369217" y="169.664593" fill="rgb(30,239,30)"  stroke="rgb(30,239,30)" stroke-width="1" font-size="16" >Cl</text>
<text x="22.000000" y="165.740871" fill="rgb(30,239,30)"  stroke="rgb(30,239,30)" stroke-width="1" font-size="16" >Cl</text>
<text x="346.802433" y="108.437977" fill="rgb(255,12,12)"  stroke="rgb(255,12,12)" stroke-width="1" font-size="16" >O</text>
<text font-size="18.000000" fill ="black" font-family="sans-serif"
x="10.000000" y="20.000000" ></text>
<title> - OBDepict</title>
</svg>
