<?xml version="1.0"?>
<svg xmlns="http://www.w3.org/2000/svg"
xmlns:xlink="http://www.w3.org/1999/xlink" xmlns:cml="http://www.xml-cml.org/schema" width="473.995" height="384.027" x="0" y="0" font-family="sans-serif" stroke="rgb(0,0,0)" stroke-width="1"  stroke-linecap="round">
<rect x="0%" y="0%" width="100%" height="100%" stroke-width="0" fill="rgb(255,255,255)"  />
<line x1="112.4" y1="146.1" x2="127.3" y2="109.3" stroke="rgb(0,0,0)"  stroke-width="1.0"/>
<line x1="146.8" y1="180.5" x2="173.0" y2="182.2" stroke="rgb(0,0,0)"  stroke-width="1.0"/>
<line x1="173.0" y1="182.2" x2="190.6" y2="217.6" stroke="rgb(0,0,0)"  stroke-width="1.0"/>
<line x1="103.7" y1="54.7" x2="79.1" y2="44.8" stroke="rgb(0,0,0)"  stroke-width="1.0"/>
<line x1="190.6" y1="217.6" x2="217.1" y2="219.3" stroke="rgb(0,0,0)"  stroke-width="1.0"/>
<line x1="193.1" y1="219.3" x2="178.5" y2="241.2" stroke="rgb(0,0,0)"  stroke-width="1.0"/>
<line x1="188.1" y1="215.9" x2="173.5" y2="237.9" stroke="rgb(0,0,0)"  stroke-width="1.0"/>
<line x1="237.3" y1="209.3" x2="244.7" y2="198.1" stroke="rgb(0,0,0)"  stroke-width="1.0"/>
<line x1="264.8" y1="184.2" x2="291.9" y2="183.9" stroke="rgb(0,0,0)"  stroke-width="1.0"/>
<line x1="264.9" y1="190.2" x2="292.0" y2="189.9" stroke="rgb(0,0,0)"  stroke-width="1.0"/>
<line x1="292.0" y1="186.9" x2="313.6" y2="239.5" stroke="rgb(0,0,0)"  stroke-width="1.0"/>
<line x1="352.9" y1="232.8" x2="362.3" y2="208.2" stroke="rgb(0,0,0)"  stroke-width="1.0"/>
<line x1="377.8" y1="263.5" x2="403.8" y2="259.2" stroke="rgb(0,0,0)"  stroke-width="1.0"/>
<line x1="379.7" y1="194.0" x2="405.7" y2="189.8" stroke="rgb(0,0,0)"  stroke-width="1.0"/>
<line x1="324.8" y1="307.2" x2="315.6" y2="331.9" stroke="rgb(0,0,0)"  stroke-width="1.0"/>
<line x1="405.7" y1="189.8" x2="419.8" y2="153.0" stroke="rgb(0,0,0)"  stroke-width="1.0"/>
<line x1="419.8" y1="153.0" x2="429.3" y2="128.3" stroke="rgb(0,0,0)"  stroke-width="1.0"/>
<line x1="415.9" y1="151.5" x2="425.4" y2="126.8" stroke="rgb(0,0,0)"  stroke-width="1.0"/>
<line x1="423.8" y1="154.5" x2="433.3" y2="129.8" stroke="rgb(0,0,0)"  stroke-width="1.0"/>
<line x1="112.4" y1="146.1" x2="126.8" y2="168.7" stroke="rgb(0,0,0)"  stroke-width="1.0"/>
<line x1="125.4" y1="189.6" x2="108.4" y2="209.8" stroke="rgb(0,0,0)"  stroke-width="1.0"/>
<line x1="108.4" y1="209.8" x2="71.6" y2="195.5" stroke="rgb(0,0,0)"  stroke-width="1.0"/>
<line x1="105.4" y1="200.9" x2="79.8" y2="190.9" stroke="rgb(0,0,0)"  stroke-width="1.0"/>
<line x1="71.6" y1="195.5" x2="73.4" y2="168.9" stroke="rgb(0,0,0)"  stroke-width="1.0"/>
<line x1="86.9" y1="152.7" x2="112.4" y2="146.1" stroke="rgb(0,0,0)"  stroke-width="1.0"/>
<line x1="90.6" y1="159.1" x2="108.4" y2="154.6" stroke="rgb(0,0,0)"  stroke-width="1.0"/>
<line x1="127.3" y1="109.3" x2="103.7" y2="54.7" stroke="rgb(0,0,0)"  stroke-width="1.0"/>
<line x1="103.7" y1="54.7" x2="124.9" y2="45.5" stroke="rgb(0,0,0)"  stroke-width="1.0"/>
<line x1="112.0" y1="58.9" x2="125.5" y2="53.1" stroke="rgb(0,0,0)"  stroke-width="1.0"/>
<line x1="145.8" y1="48.8" x2="152.5" y2="53.9" stroke="rgb(0,0,0)"  stroke-width="1.0"/>
<line x1="160.6" y1="74.6" x2="158.7" y2="85.1" stroke="rgb(0,0,0)"  stroke-width="1.0"/>
<line x1="146.8" y1="101.6" x2="127.3" y2="109.3" stroke="rgb(0,0,0)"  stroke-width="1.0"/>
<line x1="141.5" y1="96.0" x2="130.2" y2="100.4" stroke="rgb(0,0,0)"  stroke-width="1.0"/>
<line x1="114.2" y1="249.3" x2="108.4" y2="209.8" stroke="rgb(0,0,0)"  stroke-width="1.0"/>
<line x1="71.6" y1="195.5" x2="40.0" y2="219.8" stroke="rgb(0,0,0)"  stroke-width="1.0"/>
<line x1="40.0" y1="219.8" x2="46.0" y2="259.1" stroke="rgb(0,0,0)"  stroke-width="1.0"/>
<line x1="48.0" y1="224.6" x2="52.2" y2="252.1" stroke="rgb(0,0,0)"  stroke-width="1.0"/>
<line x1="46.0" y1="259.1" x2="82.8" y2="273.6" stroke="rgb(0,0,0)"  stroke-width="1.0"/>
<line x1="82.8" y1="273.6" x2="114.2" y2="249.3" stroke="rgb(0,0,0)"  stroke-width="1.0"/>
<line x1="83.1" y1="264.3" x2="105.0" y2="247.3" stroke="rgb(0,0,0)"  stroke-width="1.0"/>
<line x1="313.6" y1="239.5" x2="299.8" y2="276.4" stroke="rgb(0,0,0)"  stroke-width="1.0"/>
<line x1="318.2" y1="247.7" x2="308.6" y2="273.3" stroke="rgb(0,0,0)"  stroke-width="1.0"/>
<line x1="299.8" y1="276.4" x2="324.8" y2="307.2" stroke="rgb(0,0,0)"  stroke-width="1.0"/>
<line x1="324.8" y1="307.2" x2="363.6" y2="300.3" stroke="rgb(0,0,0)"  stroke-width="1.0"/>
<line x1="329.4" y1="299.1" x2="356.5" y2="294.3" stroke="rgb(0,0,0)"  stroke-width="1.0"/>
<line x1="363.6" y1="300.3" x2="377.8" y2="263.5" stroke="rgb(0,0,0)"  stroke-width="1.0"/>
<line x1="377.8" y1="263.5" x2="352.9" y2="232.8" stroke="rgb(0,0,0)"  stroke-width="1.0"/>
<line x1="368.4" y1="263.4" x2="351.1" y2="242.0" stroke="rgb(0,0,0)"  stroke-width="1.0"/>
<line x1="352.9" y1="232.8" x2="313.6" y2="239.5" stroke="rgb(0,0,0)"  stroke-width="1.0"/>
<text x="127.779739" y="187.678169" fill="rgb(12,12,255)"  stroke="rgb(12,12,255)" stroke-width="1" font-size="16" >N</text>
<text x="68.283727" y="163.917122" fill="rgb(12,12,255)"  stroke="rgb(12,12,255)" stroke-width="1" font-size="16" >N</text>
<text x="150.453554" y="105.867559" fill="rgb(12,12,255)"  stroke="rgb(12,12,255)" stroke-width="1" font-size="16" >N</text>
<text x="129.412982" y="48.910018" fill="rgb(12,12,255)"  stroke="rgb(12,12,255)" stroke-width="1" font-size="16" >N</text>
<text x="41.022742" y="48.000000" fill="rgb(12,12,255)"  stroke="rgb(12,12,255)" stroke-width="1" font-size="16" >H</text>
<text x="53.022742" y="51.680000" fill="rgb(12,12,255)"  stroke="rgb(12,12,255)" stroke-width="1" font-size="13" >2</text>
<text x="59.522742" y="48.000000" fill="rgb(12,12,255)"  stroke="rgb(12,12,255)" stroke-width="1" font-size="16" >N</text>
<text x="156.804521" y="69.768586" fill="rgb(255,12,12)"  stroke="rgb(255,12,12)" stroke-width="1" font-size="16" >O</text>
<text x="224.102739" y="228.135649" fill="rgb(12,12,255)"  stroke="rgb(12,12,255)" stroke-width="1" font-size="16" >N</text>
<text x="224.102739" y="244.135649" fill="rgb(12,12,255)"  stroke="rgb(12,12,255)" stroke-width="1" font-size="16" >H</text>
<text x="162.791481" y="258.424876" fill="rgb(255,12,12)"  stroke="rgb(255,12,12)" stroke-width="1" font-size="16" >O</text>
<text x="245.871325" y="195.298371" fill="rgb(12,12,255)"  stroke="rgb(12,12,255)" stroke-width="1" font-size="16" >N</text>
<text x="360.878430" y="204.001016" fill="rgb(255,12,12)"  stroke="rgb(255,12,12)" stroke-width="1" font-size="16" >O</text>
<text x="410.584565" y="265.135061" fill="rgb(147,0,147)"  stroke="rgb(147,0,147)" stroke-width="1" font-size="16" >I</text>
<text x="305.008120" y="352.027401" fill="rgb(147,0,147)"  stroke="rgb(147,0,147)" stroke-width="1" font-size="16" >I</text>
<text x="427.994645" y="124.187657" fill="rgb(102,102,102)"  stroke="rgb(102,102,102)" stroke-width="1" font-size="16" >CH</text>
<text font-size="18.000000" fill ="black" font-family="sans-serif"
x="10.000000" y="20.000000" ></text>
<title> - OBDepict</title>
</svg>
