<?xml version="1.0"?>
<svg xmlns="http://www.w3.org/2000/svg"
xmlns:xlink="http://www.w3.org/1999/xlink" xmlns:cml="http://www.xml-cml.org/schema" width="424.46" height="461.678" x="0" y="0" font-family="sans-serif" stroke="rgb(0,0,0)" stroke-width="1"  stroke-linecap="round">
<rect x="0%" y="0%" width="100%" height="100%" stroke-width="0" fill="rgb(255,255,255)"  />
<line x1="109.2" y1="140.5" x2="132.9" y2="154.1" stroke="rgb(0,0,0)"  stroke-width="1.0"/>
<line x1="175.4" y1="260.3" x2="175.4" y2="220.2" stroke="rgb(0,0,0)"  stroke-width="1.0"/>
<line x1="181.4" y1="260.3" x2="181.4" y2="220.2" stroke="rgb(0,0,0)"  stroke-width="1.0"/>
<line x1="181.4" y1="113.1" x2="181.4" y2="140.1" stroke="rgb(0,0,0)"  stroke-width="1.0"/>
<line x1="175.4" y1="113.1" x2="175.4" y2="140.1" stroke="rgb(0,0,0)"  stroke-width="1.0"/>
<line x1="350.1" y1="401.5" x2="315.9" y2="380.8" stroke="rgb(0,0,0)"  stroke-width="1.0"/>
<line x1="119.0" y1="211.6" x2="142.7" y2="198.0" stroke="rgb(0,0,0)"  stroke-width="1.0"/>
<line x1="121.9" y1="216.8" x2="145.7" y2="203.2" stroke="rgb(0,0,0)"  stroke-width="1.0"/>
<line x1="373.3" y1="415.1" x2="350.1" y2="401.5" stroke="rgb(0,0,0)"  stroke-width="1.0"/>
<line x1="371.1" y1="418.7" x2="347.9" y2="405.1" stroke="rgb(0,0,0)"  stroke-width="1.0"/>
<line x1="375.4" y1="411.5" x2="352.2" y2="397.8" stroke="rgb(0,0,0)"  stroke-width="1.0"/>
<line x1="235.2" y1="216.8" x2="211.4" y2="203.2" stroke="rgb(0,0,0)"  stroke-width="1.0"/>
<line x1="238.1" y1="211.6" x2="214.4" y2="198.0" stroke="rgb(0,0,0)"  stroke-width="1.0"/>
<line x1="212.9" y1="280.3" x2="178.4" y2="260.3" stroke="rgb(0,0,0)"  stroke-width="1.0"/>
<line x1="132.9" y1="86.5" x2="109.2" y2="100.1" stroke="rgb(0,0,0)"  stroke-width="1.0"/>
<line x1="74.6" y1="53.0" x2="74.6" y2="80.5" stroke="rgb(0,0,0)"  stroke-width="1.0"/>
<line x1="315.9" y1="380.8" x2="316.0" y2="354.0" stroke="rgb(0,0,0)"  stroke-width="1.0"/>
<line x1="305.0" y1="334.3" x2="281.9" y2="320.3" stroke="rgb(0,0,0)"  stroke-width="1.0"/>
<line x1="155.3" y1="153.9" x2="178.4" y2="140.1" stroke="rgb(0,0,0)"  stroke-width="1.0"/>
<line x1="178.4" y1="140.1" x2="201.7" y2="153.9" stroke="rgb(0,0,0)"  stroke-width="1.0"/>
<line x1="212.9" y1="173.5" x2="212.9" y2="200.6" stroke="rgb(0,0,0)"  stroke-width="1.0"/>
<line x1="212.9" y1="200.6" x2="178.4" y2="220.2" stroke="rgb(0,0,0)"  stroke-width="1.0"/>
<line x1="178.4" y1="220.2" x2="144.2" y2="200.6" stroke="rgb(0,0,0)"  stroke-width="1.0"/>
<line x1="144.2" y1="200.6" x2="144.2" y2="173.5" stroke="rgb(0,0,0)"  stroke-width="1.0"/>
<line x1="212.9" y1="280.3" x2="212.9" y2="320.1" stroke="rgb(0,0,0)"  stroke-width="1.0"/>
<line x1="212.9" y1="320.1" x2="247.5" y2="340.4" stroke="rgb(0,0,0)"  stroke-width="1.0"/>
<line x1="221.8" y1="317.0" x2="246.0" y2="331.1" stroke="rgb(0,0,0)"  stroke-width="1.0"/>
<line x1="247.5" y1="340.4" x2="281.9" y2="320.3" stroke="rgb(0,0,0)"  stroke-width="1.0"/>
<line x1="281.9" y1="320.3" x2="282.1" y2="280.9" stroke="rgb(0,0,0)"  stroke-width="1.0"/>
<line x1="274.7" y1="314.3" x2="274.9" y2="286.9" stroke="rgb(0,0,0)"  stroke-width="1.0"/>
<line x1="282.1" y1="280.9" x2="247.9" y2="260.7" stroke="rgb(0,0,0)"  stroke-width="1.0"/>
<line x1="247.9" y1="260.7" x2="212.9" y2="280.3" stroke="rgb(0,0,0)"  stroke-width="1.0"/>
<line x1="246.2" y1="269.9" x2="221.7" y2="283.6" stroke="rgb(0,0,0)"  stroke-width="1.0"/>
<line x1="109.2" y1="140.5" x2="109.2" y2="100.1" stroke="rgb(0,0,0)"  stroke-width="1.0"/>
<line x1="102.0" y1="134.5" x2="102.0" y2="106.1" stroke="rgb(0,0,0)"  stroke-width="1.0"/>
<line x1="109.2" y1="100.1" x2="74.6" y2="80.5" stroke="rgb(0,0,0)"  stroke-width="1.0"/>
<line x1="74.6" y1="80.5" x2="40.0" y2="100.1" stroke="rgb(0,0,0)"  stroke-width="1.0"/>
<line x1="72.9" y1="89.7" x2="48.8" y2="103.4" stroke="rgb(0,0,0)"  stroke-width="1.0"/>
<line x1="40.0" y1="100.1" x2="40.0" y2="140.5" stroke="rgb(0,0,0)"  stroke-width="1.0"/>
<line x1="40.0" y1="140.5" x2="74.6" y2="160.5" stroke="rgb(0,0,0)"  stroke-width="1.0"/>
<line x1="48.8" y1="137.3" x2="73.0" y2="151.3" stroke="rgb(0,0,0)"  stroke-width="1.0"/>
<line x1="74.6" y1="160.5" x2="109.2" y2="140.5" stroke="rgb(0,0,0)"  stroke-width="1.0"/>
<text x="138.166151" y="168.548738" fill="rgb(12,12,255)"  stroke="rgb(12,12,255)" stroke-width="1" font-size="16" >N</text>
<text x="206.939138" y="168.548738" fill="rgb(12,12,255)"  stroke="rgb(12,12,255)" stroke-width="1" font-size="16" >NH</text>
<text x="172.354214" y="108.075939" fill="rgb(178,178,0)"  stroke="rgb(178,178,0)" stroke-width="1" font-size="16" >S</text>
<text x="103.174687" y="228.624677" fill="rgb(255,12,12)"  stroke="rgb(255,12,12)" stroke-width="1" font-size="16" >O</text>
<text x="378.460227" y="429.677980" fill="rgb(102,102,102)"  stroke="rgb(102,102,102)" stroke-width="1" font-size="16" >CH</text>
<text x="241.930602" y="228.624677" fill="rgb(255,12,12)"  stroke="rgb(255,12,12)" stroke-width="1" font-size="16" >O</text>
<text x="138.166151" y="88.049013" fill="rgb(30,239,30)"  stroke="rgb(30,239,30)" stroke-width="1" font-size="16" >Cl</text>
<text x="68.589764" y="48.000000" fill="rgb(30,239,30)"  stroke="rgb(30,239,30)" stroke-width="1" font-size="16" >Cl</text>
<text x="310.098619" y="348.974984" fill="rgb(255,12,12)"  stroke="rgb(255,12,12)" stroke-width="1" font-size="16" >O</text>
<text font-size="18.000000" fill ="black" font-family="sans-serif"
x="10.000000" y="20.000000" ></text>
<title> - OBDepict</title>
</svg>
