<?xml version="1.0"?>
<svg xmlns="http://www.w3.org/2000/svg"
xmlns:xlink="http://www.w3.org/1999/xlink" xmlns:cml="http://www.xml-cml.org/schema" width="519.178" height="287.171" x="0" y="0" font-family="sans-serif" stroke="rgb(0,0,0)" stroke-width="1"  stroke-linecap="round">
<rect x="0%" y="0%" width="100%" height="100%" stroke-width="0" fill="rgb(255,255,255)"  />
<line x1="359.4" y1="142.9" x2="332.5" y2="142.9" stroke="rgb(0,0,0)"  stroke-width="1.0"/>
<line x1="313.0" y1="154.2" x2="299.5" y2="178.0" stroke="rgb(0,0,0)"  stroke-width="1.0"/>
<line x1="79.9" y1="142.9" x2="119.8" y2="142.9" stroke="rgb(0,0,0)"  stroke-width="1.0"/>
<line x1="53.0" y1="142.9" x2="79.9" y2="142.9" stroke="rgb(0,0,0)"  stroke-width="1.0"/>
<line x1="53.0" y1="138.7" x2="79.9" y2="138.7" stroke="rgb(0,0,0)"  stroke-width="1.0"/>
<line x1="53.0" y1="147.1" x2="79.9" y2="147.1" stroke="rgb(0,0,0)"  stroke-width="1.0"/>
<line x1="259.6" y1="178.0" x2="299.5" y2="178.0" stroke="rgb(0,0,0)"  stroke-width="1.0"/>
<line x1="310.4" y1="202.8" x2="296.9" y2="179.5" stroke="rgb(0,0,0)"  stroke-width="1.0"/>
<line x1="315.6" y1="199.8" x2="302.1" y2="176.5" stroke="rgb(0,0,0)"  stroke-width="1.0"/>
<line x1="466.2" y1="142.9" x2="439.3" y2="142.9" stroke="rgb(0,0,0)"  stroke-width="1.0"/>
<line x1="366.0" y1="85.4" x2="379.4" y2="108.3" stroke="rgb(0,0,0)"  stroke-width="1.0"/>
<line x1="432.8" y1="201.3" x2="419.3" y2="178.0" stroke="rgb(0,0,0)"  stroke-width="1.0"/>
<line x1="119.8" y1="142.9" x2="133.4" y2="166.7" stroke="rgb(0,0,0)"  stroke-width="1.0"/>
<line x1="152.8" y1="178.0" x2="179.7" y2="178.0" stroke="rgb(0,0,0)"  stroke-width="1.0"/>
<line x1="372.8" y1="51.2" x2="366.0" y2="62.9" stroke="rgb(0,0,0)"  stroke-width="1.0"/>
<line x1="425.8" y1="235.9" x2="432.8" y2="223.8" stroke="rgb(0,0,0)"  stroke-width="1.0"/>
<line x1="359.4" y1="142.9" x2="379.4" y2="178.0" stroke="rgb(0,0,0)"  stroke-width="1.0"/>
<line x1="379.4" y1="178.0" x2="419.3" y2="178.0" stroke="rgb(0,0,0)"  stroke-width="1.0"/>
<line x1="385.4" y1="170.8" x2="413.3" y2="170.8" stroke="rgb(0,0,0)"  stroke-width="1.0"/>
<line x1="419.3" y1="178.0" x2="439.3" y2="142.9" stroke="rgb(0,0,0)"  stroke-width="1.0"/>
<line x1="439.3" y1="142.9" x2="419.3" y2="108.3" stroke="rgb(0,0,0)"  stroke-width="1.0"/>
<line x1="430.0" y1="141.3" x2="416.1" y2="117.1" stroke="rgb(0,0,0)"  stroke-width="1.0"/>
<line x1="419.3" y1="108.3" x2="379.4" y2="108.3" stroke="rgb(0,0,0)"  stroke-width="1.0"/>
<line x1="379.4" y1="108.3" x2="359.4" y2="142.9" stroke="rgb(0,0,0)"  stroke-width="1.0"/>
<line x1="382.6" y1="117.1" x2="368.6" y2="141.3" stroke="rgb(0,0,0)"  stroke-width="1.0"/>
<line x1="259.6" y1="178.0" x2="239.6" y2="142.9" stroke="rgb(0,0,0)"  stroke-width="1.0"/>
<line x1="250.4" y1="176.3" x2="236.3" y2="151.7" stroke="rgb(0,0,0)"  stroke-width="1.0"/>
<line x1="239.6" y1="142.9" x2="199.7" y2="142.9" stroke="rgb(0,0,0)"  stroke-width="1.0"/>
<line x1="199.7" y1="142.9" x2="179.7" y2="178.0" stroke="rgb(0,0,0)"  stroke-width="1.0"/>
<line x1="203.0" y1="151.7" x2="189.0" y2="176.3" stroke="rgb(0,0,0)"  stroke-width="1.0"/>
<line x1="179.7" y1="178.0" x2="199.7" y2="212.6" stroke="rgb(0,0,0)"  stroke-width="1.0"/>
<line x1="199.7" y1="212.6" x2="239.6" y2="212.6" stroke="rgb(0,0,0)"  stroke-width="1.0"/>
<line x1="205.7" y1="205.4" x2="233.6" y2="205.4" stroke="rgb(0,0,0)"  stroke-width="1.0"/>
<line x1="239.6" y1="212.6" x2="259.6" y2="178.0" stroke="rgb(0,0,0)"  stroke-width="1.0"/>
<text x="313.478900" y="150.924625" fill="rgb(12,12,255)"  stroke="rgb(12,12,255)" stroke-width="1" font-size="16" >N</text>
<text x="313.478900" y="134.924625" fill="rgb(12,12,255)"  stroke="rgb(12,12,255)" stroke-width="1" font-size="16" >H</text>
<text x="22.000000" y="150.924625" fill="rgb(102,102,102)"  stroke="rgb(102,102,102)" stroke-width="1" font-size="16" >HC</text>
<text x="313.478900" y="220.569190" fill="rgb(255,12,12)"  stroke="rgb(255,12,12)" stroke-width="1" font-size="16" >O</text>
<text x="473.177671" y="150.924625" fill="rgb(30,239,30)"  stroke="rgb(30,239,30)" stroke-width="1" font-size="16" >Cl</text>
<text x="353.402382" y="82.161330" fill="rgb(255,12,12)"  stroke="rgb(255,12,12)" stroke-width="1" font-size="16" >O</text>
<text x="433.254189" y="220.569190" fill="rgb(255,12,12)"  stroke="rgb(255,12,12)" stroke-width="1" font-size="16" >O</text>
<text x="133.811126" y="185.967225" fill="rgb(255,12,12)"  stroke="rgb(255,12,12)" stroke-width="1" font-size="16" >O</text>
<text x="375.366545" y="48.000000" fill="rgb(102,102,102)"  stroke="rgb(102,102,102)" stroke-width="1" font-size="16" >CH</text>
<text x="399.366545" y="51.680000" fill="rgb(102,102,102)"  stroke="rgb(102,102,102)" stroke-width="1" font-size="13" >3</text>
<text x="393.290027" y="255.171156" fill="rgb(102,102,102)"  stroke="rgb(102,102,102)" stroke-width="1" font-size="16" >H</text>
<text x="405.290027" y="258.851156" fill="rgb(102,102,102)"  stroke="rgb(102,102,102)" stroke-width="1" font-size="13" >3</text>
<text x="411.790027" y="255.171156" fill="rgb(102,102,102)"  stroke="rgb(102,102,102)" stroke-width="1" font-size="16" >C</text>
<text font-size="18.000000" fill ="black" font-family="sans-serif"
x="10.000000" y="20.000000" ></text>
<title> - OBDepict</title>
</svg>
