<?xml version="1.0"?>
<svg xmlns="http://www.w3.org/2000/svg"
xmlns:xlink="http://www.w3.org/1999/xlink" xmlns:cml="http://www.xml-cml.org/schema" width="287.438" height="327.282" x="0" y="0" font-family="sans-serif" stroke="rgb(0,0,0)" stroke-width="1"  stroke-linecap="round">
<rect x="0%" y="0%" width="100%" height="100%" stroke-width="0" fill="rgb(255,255,255)"  />
<line x1="213.0" y1="246.8" x2="178.4" y2="226.7" stroke="rgb(0,0,0)"  stroke-width="1.0"/>
<line x1="236.2" y1="260.2" x2="213.0" y2="246.8" stroke="rgb(0,0,0)"  stroke-width="1.0"/>
<line x1="234.1" y1="263.9" x2="210.9" y2="250.5" stroke="rgb(0,0,0)"  stroke-width="1.0"/>
<line x1="238.3" y1="256.6" x2="215.1" y2="243.2" stroke="rgb(0,0,0)"  stroke-width="1.0"/>
<line x1="116.9" y1="76.4" x2="100.6" y2="112.6" stroke="rgb(0,0,0)"  stroke-width="1.0"/>
<line x1="127.8" y1="51.9" x2="116.9" y2="76.4" stroke="rgb(0,0,0)"  stroke-width="1.0"/>
<line x1="131.7" y1="53.6" x2="120.7" y2="78.1" stroke="rgb(0,0,0)"  stroke-width="1.0"/>
<line x1="124.0" y1="50.2" x2="113.0" y2="74.7" stroke="rgb(0,0,0)"  stroke-width="1.0"/>
<line x1="84.4" y1="180.3" x2="111.6" y2="180.1" stroke="rgb(0,0,0)"  stroke-width="1.0"/>
<line x1="84.4" y1="186.3" x2="111.7" y2="186.1" stroke="rgb(0,0,0)"  stroke-width="1.0"/>
<line x1="100.6" y1="112.6" x2="116.3" y2="134.5" stroke="rgb(0,0,0)"  stroke-width="1.0"/>
<line x1="202.6" y1="280.4" x2="178.8" y2="266.8" stroke="rgb(0,0,0)"  stroke-width="1.0"/>
<line x1="233.9" y1="209.5" x2="214.4" y2="191.1" stroke="rgb(0,0,0)"  stroke-width="1.0"/>
<line x1="238.0" y1="205.1" x2="218.5" y2="186.7" stroke="rgb(0,0,0)"  stroke-width="1.0"/>
<line x1="143.8" y1="206.6" x2="111.6" y2="183.1" stroke="rgb(0,0,0)"  stroke-width="1.0"/>
<line x1="111.6" y1="183.1" x2="119.9" y2="157.4" stroke="rgb(0,0,0)"  stroke-width="1.0"/>
<line x1="136.9" y1="145.0" x2="163.9" y2="144.8" stroke="rgb(0,0,0)"  stroke-width="1.0"/>
<line x1="163.9" y1="144.8" x2="177.6" y2="182.3" stroke="rgb(0,0,0)"  stroke-width="1.0"/>
<line x1="159.2" y1="152.9" x2="168.8" y2="179.1" stroke="rgb(0,0,0)"  stroke-width="1.0"/>
<line x1="177.6" y1="182.3" x2="143.8" y2="206.6" stroke="rgb(0,0,0)"  stroke-width="1.0"/>
<line x1="143.8" y1="206.6" x2="178.4" y2="226.7" stroke="rgb(0,0,0)"  stroke-width="1.0"/>
<line x1="178.4" y1="226.7" x2="178.8" y2="266.8" stroke="rgb(0,0,0)"  stroke-width="1.0"/>
<line x1="171.3" y1="232.8" x2="171.6" y2="260.8" stroke="rgb(0,0,0)"  stroke-width="1.0"/>
<line x1="178.8" y1="266.8" x2="155.3" y2="280.2" stroke="rgb(0,0,0)"  stroke-width="1.0"/>
<line x1="132.7" y1="280.3" x2="109.4" y2="267.2" stroke="rgb(0,0,0)"  stroke-width="1.0"/>
<line x1="109.4" y1="267.2" x2="109.2" y2="227.1" stroke="rgb(0,0,0)"  stroke-width="1.0"/>
<line x1="109.2" y1="227.1" x2="143.8" y2="206.6" stroke="rgb(0,0,0)"  stroke-width="1.0"/>
<line x1="75.2" y1="287.3" x2="40.2" y2="267.4" stroke="rgb(0,0,0)"  stroke-width="1.0"/>
<line x1="40.2" y1="267.4" x2="40.0" y2="227.5" stroke="rgb(0,0,0)"  stroke-width="1.0"/>
<line x1="47.4" y1="261.3" x2="47.2" y2="233.5" stroke="rgb(0,0,0)"  stroke-width="1.0"/>
<line x1="40.0" y1="227.5" x2="74.6" y2="207.0" stroke="rgb(0,0,0)"  stroke-width="1.0"/>
<line x1="74.6" y1="207.0" x2="109.2" y2="227.1" stroke="rgb(0,0,0)"  stroke-width="1.0"/>
<line x1="76.2" y1="216.2" x2="100.4" y2="230.3" stroke="rgb(0,0,0)"  stroke-width="1.0"/>
<line x1="109.4" y1="267.2" x2="75.2" y2="287.3" stroke="rgb(0,0,0)"  stroke-width="1.0"/>
<line x1="100.6" y1="264.0" x2="76.7" y2="278.0" stroke="rgb(0,0,0)"  stroke-width="1.0"/>
<line x1="189.1" y1="114.2" x2="228.3" y2="121.1" stroke="rgb(0,0,0)"  stroke-width="1.0"/>
<line x1="228.3" y1="121.1" x2="242.2" y2="158.5" stroke="rgb(0,0,0)"  stroke-width="1.0"/>
<line x1="242.2" y1="158.5" x2="216.5" y2="188.9" stroke="rgb(0,0,0)"  stroke-width="1.0"/>
<line x1="216.5" y1="188.9" x2="177.6" y2="182.3" stroke="rgb(0,0,0)"  stroke-width="1.0"/>
<line x1="163.9" y1="144.8" x2="189.1" y2="114.2" stroke="rgb(0,0,0)"  stroke-width="1.0"/>
<text x="117.901272" y="153.025368" fill="rgb(12,12,255)"  stroke="rgb(12,12,255)" stroke-width="1" font-size="16" >N</text>
<text x="138.023836" y="294.676803" fill="rgb(255,12,12)"  stroke="rgb(255,12,12)" stroke-width="1" font-size="16" >O</text>
<text x="241.438045" y="274.757448" fill="rgb(12,12,255)"  stroke="rgb(12,12,255)" stroke-width="1" font-size="16" >N</text>
<text x="127.156974" y="48.000000" fill="rgb(102,102,102)"  stroke="rgb(102,102,102)" stroke-width="1" font-size="16" >CH</text>
<text x="65.386169" y="191.460966" fill="rgb(255,12,12)"  stroke="rgb(255,12,12)" stroke-width="1" font-size="16" >O</text>
<text x="209.840765" y="294.875175" fill="rgb(12,12,255)"  stroke="rgb(12,12,255)" stroke-width="1" font-size="16" >NH</text>
<text x="233.840765" y="298.555175" fill="rgb(12,12,255)"  stroke="rgb(12,12,255)" stroke-width="1" font-size="13" >2</text>
<text x="239.430143" y="224.255085" fill="rgb(255,12,12)"  stroke="rgb(255,12,12)" stroke-width="1" font-size="16" >O</text>
<text font-size="18.000000" fill ="black" font-family="sans-serif"
x="10.000000" y="20.000000" ></text>
<title> - OBDepict</title>
</svg>
