<?xml version="1.0"?>
<svg xmlns="http://www.w3.org/2000/svg"
xmlns:xlink="http://www.w3.org/1999/xlink" xmlns:cml="http://www.xml-cml.org/schema" width="461.573" height="339.722" x="0" y="0" font-family="sans-serif" stroke="rgb(0,0,0)" stroke-width="1"  stroke-linecap="round">
<rect x="0%" y="0%" width="100%" height="100%" stroke-width="0" fill="rgb(255,255,255)"  />
<line x1="282.8" y1="199.7" x2="282.8" y2="159.6" stroke="rgb(0,0,0)"  stroke-width="1.0"/>
<line x1="213.4" y1="159.6" x2="248.1" y2="139.6" stroke="rgb(0,0,0)"  stroke-width="1.0"/>
<line x1="74.7" y1="279.7" x2="109.4" y2="259.7" stroke="rgb(0,0,0)"  stroke-width="1.0"/>
<line x1="51.3" y1="293.2" x2="74.7" y2="279.7" stroke="rgb(0,0,0)"  stroke-width="1.0"/>
<line x1="49.2" y1="289.6" x2="72.6" y2="276.1" stroke="rgb(0,0,0)"  stroke-width="1.0"/>
<line x1="53.4" y1="296.9" x2="76.8" y2="283.3" stroke="rgb(0,0,0)"  stroke-width="1.0"/>
<line x1="285.8" y1="53.0" x2="285.8" y2="80.0" stroke="rgb(0,0,0)"  stroke-width="1.0"/>
<line x1="279.8" y1="53.0" x2="279.8" y2="80.0" stroke="rgb(0,0,0)"  stroke-width="1.0"/>
<line x1="352.2" y1="159.6" x2="317.5" y2="139.6" stroke="rgb(0,0,0)"  stroke-width="1.0"/>
<line x1="304.7" y1="215.8" x2="281.3" y2="202.3" stroke="rgb(0,0,0)"  stroke-width="1.0"/>
<line x1="307.7" y1="210.6" x2="284.3" y2="197.1" stroke="rgb(0,0,0)"  stroke-width="1.0"/>
<line x1="259.4" y1="213.2" x2="282.8" y2="199.7" stroke="rgb(0,0,0)"  stroke-width="1.0"/>
<line x1="120.6" y1="146.1" x2="144.1" y2="159.6" stroke="rgb(0,0,0)"  stroke-width="1.0"/>
<line x1="120.6" y1="213.2" x2="144.1" y2="199.7" stroke="rgb(0,0,0)"  stroke-width="1.0"/>
<line x1="109.4" y1="259.7" x2="109.4" y2="232.7" stroke="rgb(0,0,0)"  stroke-width="1.0"/>
<line x1="248.1" y1="259.7" x2="248.1" y2="232.7" stroke="rgb(0,0,0)"  stroke-width="1.0"/>
<line x1="109.4" y1="100.0" x2="109.4" y2="126.6" stroke="rgb(0,0,0)"  stroke-width="1.0"/>
<line x1="85.9" y1="86.5" x2="109.4" y2="100.0" stroke="rgb(0,0,0)"  stroke-width="1.0"/>
<line x1="224.7" y1="273.2" x2="248.1" y2="259.7" stroke="rgb(0,0,0)"  stroke-width="1.0"/>
<line x1="282.8" y1="159.6" x2="317.5" y2="139.6" stroke="rgb(0,0,0)"  stroke-width="1.0"/>
<line x1="284.4" y1="150.4" x2="308.7" y2="136.4" stroke="rgb(0,0,0)"  stroke-width="1.0"/>
<line x1="317.5" y1="139.6" x2="317.5" y2="113.0" stroke="rgb(0,0,0)"  stroke-width="1.0"/>
<line x1="306.2" y1="93.5" x2="282.8" y2="80.0" stroke="rgb(0,0,0)"  stroke-width="1.0"/>
<line x1="282.8" y1="80.0" x2="259.4" y2="93.5" stroke="rgb(0,0,0)"  stroke-width="1.0"/>
<line x1="248.1" y1="113.0" x2="248.1" y2="139.6" stroke="rgb(0,0,0)"  stroke-width="1.0"/>
<line x1="248.1" y1="139.6" x2="282.8" y2="159.6" stroke="rgb(0,0,0)"  stroke-width="1.0"/>
<line x1="213.4" y1="159.6" x2="178.8" y2="139.6" stroke="rgb(0,0,0)"  stroke-width="1.0"/>
<line x1="204.6" y1="162.9" x2="180.4" y2="148.9" stroke="rgb(0,0,0)"  stroke-width="1.0"/>
<line x1="178.8" y1="139.6" x2="144.1" y2="159.6" stroke="rgb(0,0,0)"  stroke-width="1.0"/>
<line x1="144.1" y1="159.6" x2="144.1" y2="199.7" stroke="rgb(0,0,0)"  stroke-width="1.0"/>
<line x1="151.3" y1="165.6" x2="151.3" y2="193.7" stroke="rgb(0,0,0)"  stroke-width="1.0"/>
<line x1="144.1" y1="199.7" x2="178.8" y2="219.7" stroke="rgb(0,0,0)"  stroke-width="1.0"/>
<line x1="178.8" y1="219.7" x2="213.4" y2="199.7" stroke="rgb(0,0,0)"  stroke-width="1.0"/>
<line x1="180.4" y1="210.4" x2="204.6" y2="196.4" stroke="rgb(0,0,0)"  stroke-width="1.0"/>
<line x1="213.4" y1="199.7" x2="213.4" y2="159.6" stroke="rgb(0,0,0)"  stroke-width="1.0"/>
<line x1="352.2" y1="159.6" x2="352.2" y2="199.7" stroke="rgb(0,0,0)"  stroke-width="1.0"/>
<line x1="352.2" y1="199.7" x2="386.9" y2="219.7" stroke="rgb(0,0,0)"  stroke-width="1.0"/>
<line x1="361.0" y1="196.4" x2="385.3" y2="210.4" stroke="rgb(0,0,0)"  stroke-width="1.0"/>
<line x1="386.9" y1="219.7" x2="421.6" y2="199.7" stroke="rgb(0,0,0)"  stroke-width="1.0"/>
<line x1="421.6" y1="199.7" x2="421.6" y2="159.6" stroke="rgb(0,0,0)"  stroke-width="1.0"/>
<line x1="414.4" y1="193.7" x2="414.4" y2="165.6" stroke="rgb(0,0,0)"  stroke-width="1.0"/>
<line x1="421.6" y1="159.6" x2="386.9" y2="139.6" stroke="rgb(0,0,0)"  stroke-width="1.0"/>
<line x1="386.9" y1="139.6" x2="352.2" y2="159.6" stroke="rgb(0,0,0)"  stroke-width="1.0"/>
<line x1="385.3" y1="148.9" x2="361.0" y2="162.9" stroke="rgb(0,0,0)"  stroke-width="1.0"/>
<text x="311.507831" y="108.037378" fill="rgb(12,12,255)"  stroke="rgb(12,12,255)" stroke-width="1" font-size="16" >NH</text>
<text x="230.130873" y="108.037378" fill="rgb(12,12,255)"  stroke="rgb(12,12,255)" stroke-width="1" font-size="16" >HN</text>
<text x="22.000000" y="307.721854" fill="rgb(102,102,102)"  stroke="rgb(102,102,102)" stroke-width="1" font-size="16" >HC</text>
<text x="276.819352" y="48.000000" fill="rgb(178,178,0)"  stroke="rgb(178,178,0)" stroke-width="1" font-size="16" >S</text>
<text x="311.507831" y="227.670398" fill="rgb(255,12,12)"  stroke="rgb(255,12,12)" stroke-width="1" font-size="16" >O</text>
<text x="242.130873" y="227.670398" fill="rgb(255,12,12)"  stroke="rgb(255,12,12)" stroke-width="1" font-size="16" >O</text>
<text x="103.376958" y="147.618942" fill="rgb(255,12,12)"  stroke="rgb(255,12,12)" stroke-width="1" font-size="16" >O</text>
<text x="103.376958" y="227.670398" fill="rgb(255,12,12)"  stroke="rgb(255,12,12)" stroke-width="1" font-size="16" >O</text>
<text x="48.688479" y="88.028155" fill="rgb(102,102,102)"  stroke="rgb(102,102,102)" stroke-width="1" font-size="16" >H</text>
<text x="60.688479" y="91.708155" fill="rgb(102,102,102)"  stroke="rgb(102,102,102)" stroke-width="1" font-size="13" >3</text>
<text x="67.188479" y="88.028155" fill="rgb(102,102,102)"  stroke="rgb(102,102,102)" stroke-width="1" font-size="16" >C</text>
<text x="187.442394" y="287.707777" fill="rgb(102,102,102)"  stroke="rgb(102,102,102)" stroke-width="1" font-size="16" >H</text>
<text x="199.442394" y="291.387777" fill="rgb(102,102,102)"  stroke="rgb(102,102,102)" stroke-width="1" font-size="13" >3</text>
<text x="205.942394" y="287.707777" fill="rgb(102,102,102)"  stroke="rgb(102,102,102)" stroke-width="1" font-size="16" >C</text>
<text font-size="18.000000" fill ="black" font-family="sans-serif"
x="10.000000" y="20.000000" ></text>
<title> - OBDepict</title>
</svg>
