<?xml version="1.0"?>
<svg xmlns="http://www.w3.org/2000/svg"
xmlns:xlink="http://www.w3.org/1999/xlink" xmlns:cml="http://www.xml-cml.org/schema" width="481.695" height="450.828" x="0" y="0" font-family="sans-serif" stroke="rgb(0,0,0)" stroke-width="1"  stroke-linecap="round">
<rect x="0%" y="0%" width="100%" height="100%" stroke-width="0" fill="rgb(255,255,255)"  />
<line x1="326.2" y1="126.7" x2="302.5" y2="140.5" stroke="rgb(0,0,0)"  stroke-width="1.0"/>
<line x1="189.0" y1="248.7" x2="164.8" y2="262.7" stroke="rgb(0,0,0)"  stroke-width="1.0"/>
<line x1="186.0" y1="243.5" x2="161.8" y2="257.5" stroke="rgb(0,0,0)"  stroke-width="1.0"/>
<line x1="360.8" y1="106.9" x2="348.7" y2="113.7" stroke="rgb(0,0,0)"  stroke-width="1.0"/>
<line x1="198.4" y1="200.0" x2="198.6" y2="226.5" stroke="rgb(0,0,0)"  stroke-width="1.0"/>
<line x1="179.6" y1="366.6" x2="188.7" y2="327.7" stroke="rgb(0,0,0)"  stroke-width="1.0"/>
<line x1="348.3" y1="145.2" x2="341.2" y2="132.9" stroke="rgb(0,0,0)"  stroke-width="1.0"/>
<line x1="353.5" y1="142.2" x2="346.4" y2="129.9" stroke="rgb(0,0,0)"  stroke-width="1.0"/>
<line x1="326.5" y1="95.2" x2="333.5" y2="107.3" stroke="rgb(0,0,0)"  stroke-width="1.0"/>
<line x1="321.3" y1="98.2" x2="328.3" y2="110.3" stroke="rgb(0,0,0)"  stroke-width="1.0"/>
<line x1="173.5" y1="393.3" x2="179.6" y2="366.6" stroke="rgb(0,0,0)"  stroke-width="1.0"/>
<line x1="169.4" y1="392.4" x2="175.5" y2="365.7" stroke="rgb(0,0,0)"  stroke-width="1.0"/>
<line x1="177.6" y1="394.3" x2="183.7" y2="367.6" stroke="rgb(0,0,0)"  stroke-width="1.0"/>
<line x1="232.9" y1="180.0" x2="198.4" y2="200.0" stroke="rgb(0,0,0)"  stroke-width="1.0"/>
<line x1="176.6" y1="183.8" x2="199.9" y2="197.4" stroke="rgb(0,0,0)"  stroke-width="1.0"/>
<line x1="173.6" y1="189.0" x2="196.9" y2="202.6" stroke="rgb(0,0,0)"  stroke-width="1.0"/>
<line x1="188.7" y1="327.7" x2="168.5" y2="308.9" stroke="rgb(0,0,0)"  stroke-width="1.0"/>
<line x1="112.3" y1="365.5" x2="99.1" y2="341.2" stroke="rgb(0,0,0)"  stroke-width="1.0"/>
<line x1="104.2" y1="399.8" x2="111.6" y2="388.0" stroke="rgb(0,0,0)"  stroke-width="1.0"/>
<line x1="163.3" y1="260.1" x2="140.0" y2="249.3" stroke="rgb(0,0,0)"  stroke-width="1.0"/>
<line x1="119.1" y1="253.1" x2="100.3" y2="272.6" stroke="rgb(0,0,0)"  stroke-width="1.0"/>
<line x1="100.3" y1="272.6" x2="120.1" y2="307.3" stroke="rgb(0,0,0)"  stroke-width="1.0"/>
<line x1="109.6" y1="274.3" x2="123.4" y2="298.5" stroke="rgb(0,0,0)"  stroke-width="1.0"/>
<line x1="120.1" y1="307.3" x2="146.3" y2="302.4" stroke="rgb(0,0,0)"  stroke-width="1.0"/>
<line x1="160.4" y1="287.1" x2="163.3" y2="260.1" stroke="rgb(0,0,0)"  stroke-width="1.0"/>
<line x1="232.9" y1="180.0" x2="267.8" y2="199.6" stroke="rgb(0,0,0)"  stroke-width="1.0"/>
<line x1="241.6" y1="176.7" x2="266.1" y2="190.4" stroke="rgb(0,0,0)"  stroke-width="1.0"/>
<line x1="267.8" y1="199.6" x2="302.3" y2="180.4" stroke="rgb(0,0,0)"  stroke-width="1.0"/>
<line x1="302.3" y1="180.4" x2="302.5" y2="140.5" stroke="rgb(0,0,0)"  stroke-width="1.0"/>
<line x1="295.1" y1="174.4" x2="295.3" y2="146.4" stroke="rgb(0,0,0)"  stroke-width="1.0"/>
<line x1="302.5" y1="140.5" x2="267.8" y2="120.1" stroke="rgb(0,0,0)"  stroke-width="1.0"/>
<line x1="267.8" y1="120.1" x2="232.9" y2="140.5" stroke="rgb(0,0,0)"  stroke-width="1.0"/>
<line x1="266.2" y1="129.3" x2="241.7" y2="143.7" stroke="rgb(0,0,0)"  stroke-width="1.0"/>
<line x1="232.9" y1="140.5" x2="232.9" y2="180.0" stroke="rgb(0,0,0)"  stroke-width="1.0"/>
<line x1="372.1" y1="87.5" x2="372.1" y2="60.0" stroke="rgb(0,0,0)"  stroke-width="1.0"/>
<line x1="372.1" y1="60.0" x2="407.0" y2="40.0" stroke="rgb(0,0,0)"  stroke-width="1.0"/>
<line x1="407.0" y1="40.0" x2="430.4" y2="53.5" stroke="rgb(0,0,0)"  stroke-width="1.0"/>
<line x1="441.6" y1="73.0" x2="441.5" y2="99.9" stroke="rgb(0,0,0)"  stroke-width="1.0"/>
<line x1="441.5" y1="99.9" x2="406.6" y2="119.9" stroke="rgb(0,0,0)"  stroke-width="1.0"/>
<line x1="406.6" y1="119.9" x2="383.4" y2="106.9" stroke="rgb(0,0,0)"  stroke-width="1.0"/>
<line x1="99.1" y1="341.2" x2="60.0" y2="341.0" stroke="rgb(0,0,0)"  stroke-width="1.0"/>
<line x1="93.2" y1="334.0" x2="66.0" y2="333.8" stroke="rgb(0,0,0)"  stroke-width="1.0"/>
<line x1="60.0" y1="341.0" x2="40.0" y2="305.5" stroke="rgb(0,0,0)"  stroke-width="1.0"/>
<line x1="40.0" y1="305.5" x2="61.2" y2="271.6" stroke="rgb(0,0,0)"  stroke-width="1.0"/>
<line x1="49.3" y1="304.2" x2="64.1" y2="280.5" stroke="rgb(0,0,0)"  stroke-width="1.0"/>
<line x1="61.2" y1="271.6" x2="100.3" y2="272.6" stroke="rgb(0,0,0)"  stroke-width="1.0"/>
<line x1="120.1" y1="307.3" x2="99.1" y2="341.2" stroke="rgb(0,0,0)"  stroke-width="1.0"/>
<text x="331.388930" y="128.095692" fill="rgb(178,178,0)"  stroke="rgb(178,178,0)" stroke-width="1" font-size="16" >S</text>
<text x="192.781522" y="247.536722" fill="rgb(12,12,255)"  stroke="rgb(12,12,255)" stroke-width="1" font-size="16" >N</text>
<text x="153.038904" y="308.063911" fill="rgb(12,12,255)"  stroke="rgb(12,12,255)" stroke-width="1" font-size="16" >N</text>
<text x="122.172121" y="251.775999" fill="rgb(178,178,0)"  stroke="rgb(178,178,0)" stroke-width="1" font-size="16" >S</text>
<text x="366.092864" y="108.527189" fill="rgb(12,12,255)"  stroke="rgb(12,12,255)" stroke-width="1" font-size="16" >N</text>
<text x="351.359559" y="162.998267" fill="rgb(255,12,12)"  stroke="rgb(255,12,12)" stroke-width="1" font-size="16" >O</text>
<text x="311.413455" y="93.391758" fill="rgb(255,12,12)"  stroke="rgb(255,12,12)" stroke-width="1" font-size="16" >O</text>
<text x="152.535824" y="413.982857" fill="rgb(102,102,102)"  stroke="rgb(102,102,102)" stroke-width="1" font-size="16" >HC</text>
<text x="157.878947" y="187.813785" fill="rgb(255,12,12)"  stroke="rgb(255,12,12)" stroke-width="1" font-size="16" >O</text>
<text x="435.694529" y="67.970629" fill="rgb(255,12,12)"  stroke="rgb(255,12,12)" stroke-width="1" font-size="16" >O</text>
<text x="112.487189" y="384.932907" fill="rgb(255,12,12)"  stroke="rgb(255,12,12)" stroke-width="1" font-size="16" >O</text>
<text x="71.300493" y="418.827746" fill="rgb(102,102,102)"  stroke="rgb(102,102,102)" stroke-width="1" font-size="16" >H</text>
<text x="83.300493" y="422.507746" fill="rgb(102,102,102)"  stroke="rgb(102,102,102)" stroke-width="1" font-size="13" >3</text>
<text x="89.800493" y="418.827746" fill="rgb(102,102,102)"  stroke="rgb(102,102,102)" stroke-width="1" font-size="16" >C</text>
<text font-size="18.000000" fill ="black" font-family="sans-serif"
x="10.000000" y="20.000000" ></text>
<title> - OBDepict</title>
</svg>
