<?xml version="1.0"?>
<svg xmlns="http://www.w3.org/2000/svg"
xmlns:xlink="http://www.w3.org/1999/xlink" xmlns:cml="http://www.xml-cml.org/schema" width="650.813" height="287.111" x="0" y="0" font-family="sans-serif" stroke="rgb(0,0,0)" stroke-width="1"  stroke-linecap="round">
<rect x="0%" y="0%" width="100%" height="100%" stroke-width="0" fill="rgb(255,255,255)"  />
<line x1="513.7" y1="173.5" x2="501.6" y2="166.5" stroke="rgb(0,0,0)"  stroke-width="1.0"/>
<line x1="455.6" y1="140.0" x2="479.1" y2="153.5" stroke="rgb(0,0,0)"  stroke-width="1.0"/>
<line x1="317.0" y1="100.0" x2="351.8" y2="80.0" stroke="rgb(0,0,0)"  stroke-width="1.0"/>
<line x1="474.3" y1="182.0" x2="481.3" y2="169.8" stroke="rgb(0,0,0)"  stroke-width="1.0"/>
<line x1="479.5" y1="185.0" x2="486.5" y2="172.8" stroke="rgb(0,0,0)"  stroke-width="1.0"/>
<line x1="506.5" y1="138.2" x2="499.5" y2="150.3" stroke="rgb(0,0,0)"  stroke-width="1.0"/>
<line x1="501.3" y1="135.2" x2="494.3" y2="147.3" stroke="rgb(0,0,0)"  stroke-width="1.0"/>
<line x1="74.6" y1="160.0" x2="109.1" y2="140.0" stroke="rgb(0,0,0)"  stroke-width="1.0"/>
<line x1="51.3" y1="173.5" x2="74.6" y2="160.0" stroke="rgb(0,0,0)"  stroke-width="1.0"/>
<line x1="49.1" y1="169.9" x2="72.4" y2="156.4" stroke="rgb(0,0,0)"  stroke-width="1.0"/>
<line x1="53.4" y1="177.1" x2="76.7" y2="163.7" stroke="rgb(0,0,0)"  stroke-width="1.0"/>
<line x1="351.8" y1="80.0" x2="386.3" y2="100.0" stroke="rgb(0,0,0)"  stroke-width="1.0"/>
<line x1="284.0" y1="77.4" x2="318.5" y2="97.4" stroke="rgb(0,0,0)"  stroke-width="1.0"/>
<line x1="281.0" y1="82.6" x2="315.5" y2="102.6" stroke="rgb(0,0,0)"  stroke-width="1.0"/>
<line x1="247.7" y1="100.0" x2="282.5" y2="80.0" stroke="rgb(0,0,0)"  stroke-width="1.0"/>
<line x1="354.8" y1="53.0" x2="354.8" y2="80.0" stroke="rgb(0,0,0)"  stroke-width="1.0"/>
<line x1="348.8" y1="53.0" x2="348.8" y2="80.0" stroke="rgb(0,0,0)"  stroke-width="1.0"/>
<line x1="155.1" y1="86.5" x2="178.4" y2="100.0" stroke="rgb(0,0,0)"  stroke-width="1.0"/>
<line x1="155.1" y1="153.5" x2="178.4" y2="140.0" stroke="rgb(0,0,0)"  stroke-width="1.0"/>
<line x1="213.2" y1="187.0" x2="213.2" y2="160.0" stroke="rgb(0,0,0)"  stroke-width="1.0"/>
<line x1="109.1" y1="140.0" x2="132.6" y2="153.5" stroke="rgb(0,0,0)"  stroke-width="1.0"/>
<line x1="236.5" y1="213.5" x2="224.4" y2="206.5" stroke="rgb(0,0,0)"  stroke-width="1.0"/>
<line x1="455.6" y1="140.0" x2="421.1" y2="160.0" stroke="rgb(0,0,0)"  stroke-width="1.0"/>
<line x1="421.1" y1="160.0" x2="386.3" y2="140.0" stroke="rgb(0,0,0)"  stroke-width="1.0"/>
<line x1="419.5" y1="150.8" x2="395.1" y2="136.8" stroke="rgb(0,0,0)"  stroke-width="1.0"/>
<line x1="386.3" y1="140.0" x2="386.3" y2="100.0" stroke="rgb(0,0,0)"  stroke-width="1.0"/>
<line x1="386.3" y1="100.0" x2="421.1" y2="80.0" stroke="rgb(0,0,0)"  stroke-width="1.0"/>
<line x1="395.1" y1="103.3" x2="419.5" y2="89.2" stroke="rgb(0,0,0)"  stroke-width="1.0"/>
<line x1="421.1" y1="80.0" x2="455.6" y2="100.0" stroke="rgb(0,0,0)"  stroke-width="1.0"/>
<line x1="455.6" y1="100.0" x2="455.6" y2="140.0" stroke="rgb(0,0,0)"  stroke-width="1.0"/>
<line x1="448.4" y1="106.0" x2="448.4" y2="134.0" stroke="rgb(0,0,0)"  stroke-width="1.0"/>
<line x1="178.4" y1="100.0" x2="178.4" y2="140.0" stroke="rgb(0,0,0)"  stroke-width="1.0"/>
<line x1="178.4" y1="140.0" x2="213.2" y2="160.0" stroke="rgb(0,0,0)"  stroke-width="1.0"/>
<line x1="187.2" y1="136.8" x2="211.6" y2="150.8" stroke="rgb(0,0,0)"  stroke-width="1.0"/>
<line x1="213.2" y1="160.0" x2="247.7" y2="140.0" stroke="rgb(0,0,0)"  stroke-width="1.0"/>
<line x1="247.7" y1="140.0" x2="247.7" y2="100.0" stroke="rgb(0,0,0)"  stroke-width="1.0"/>
<line x1="240.5" y1="134.0" x2="240.5" y2="106.0" stroke="rgb(0,0,0)"  stroke-width="1.0"/>
<line x1="247.7" y1="100.0" x2="213.2" y2="80.0" stroke="rgb(0,0,0)"  stroke-width="1.0"/>
<line x1="213.2" y1="80.0" x2="178.4" y2="100.0" stroke="rgb(0,0,0)"  stroke-width="1.0"/>
<line x1="211.6" y1="89.2" x2="187.2" y2="103.3" stroke="rgb(0,0,0)"  stroke-width="1.0"/>
<line x1="535.7" y1="172.7" x2="558.1" y2="157.6" stroke="rgb(0,0,0)"  stroke-width="1.0"/>
<line x1="558.1" y1="157.6" x2="596.3" y2="169.3" stroke="rgb(0,0,0)"  stroke-width="1.0"/>
<line x1="596.3" y1="169.3" x2="610.8" y2="206.5" stroke="rgb(0,0,0)"  stroke-width="1.0"/>
<line x1="610.8" y1="206.5" x2="590.8" y2="241.2" stroke="rgb(0,0,0)"  stroke-width="1.0"/>
<line x1="590.8" y1="241.2" x2="551.2" y2="247.1" stroke="rgb(0,0,0)"  stroke-width="1.0"/>
<line x1="551.2" y1="247.1" x2="521.9" y2="220.0" stroke="rgb(0,0,0)"  stroke-width="1.0"/>
<line x1="521.9" y1="220.0" x2="524.0" y2="193.0" stroke="rgb(0,0,0)"  stroke-width="1.0"/>
<text x="484.384043" y="168.021589" fill="rgb(178,178,0)"  stroke="rgb(178,178,0)" stroke-width="1" font-size="16" >S</text>
<text x="518.935712" y="188.025187" fill="rgb(12,12,255)"  stroke="rgb(12,12,255)" stroke-width="1" font-size="16" >N</text>
<text x="464.380445" y="202.776931" fill="rgb(255,12,12)"  stroke="rgb(255,12,12)" stroke-width="1" font-size="16" >O</text>
<text x="504.387641" y="133.469919" fill="rgb(255,12,12)"  stroke="rgb(255,12,12)" stroke-width="1" font-size="16" >O</text>
<text x="22.000000" y="188.025187" fill="rgb(102,102,102)"  stroke="rgb(102,102,102)" stroke-width="1" font-size="16" >HC</text>
<text x="345.774868" y="48.000000" fill="rgb(255,12,12)"  stroke="rgb(255,12,12)" stroke-width="1" font-size="16" >O</text>
<text x="125.858681" y="88.007196" fill="rgb(30,239,30)"  stroke="rgb(30,239,30)" stroke-width="1" font-size="16" >Cl</text>
<text x="137.858681" y="168.021589" fill="rgb(255,12,12)"  stroke="rgb(255,12,12)" stroke-width="1" font-size="16" >O</text>
<text x="207.165693" y="208.028785" fill="rgb(255,12,12)"  stroke="rgb(255,12,12)" stroke-width="1" font-size="16" >O</text>
<text x="243.717363" y="228.032383" fill="rgb(102,102,102)"  stroke="rgb(102,102,102)" stroke-width="1" font-size="16" >CH</text>
<text x="267.717363" y="231.712383" fill="rgb(102,102,102)"  stroke="rgb(102,102,102)" stroke-width="1" font-size="13" >3</text>
<text font-size="18.000000" fill ="black" font-family="sans-serif"
x="10.000000" y="20.000000" ></text>
<title> - OBDepict</title>
</svg>
