<?xml version="1.0"?>
<svg xmlns="http://www.w3.org/2000/svg"
xmlns:xlink="http://www.w3.org/1999/xlink" xmlns:cml="http://www.xml-cml.org/schema" width="461.082" height="218.406" x="0" y="0" font-family="sans-serif" stroke="rgb(0,0,0)" stroke-width="1"  stroke-linecap="round">
<rect x="0%" y="0%" width="100%" height="100%" stroke-width="0" fill="rgb(255,255,255)"  />
<line x1="282.7" y1="109.1" x2="247.9" y2="129.1" stroke="rgb(0,0,0)"  stroke-width="1.0"/>
<line x1="247.9" y1="129.1" x2="224.6" y2="115.6" stroke="rgb(0,0,0)"  stroke-width="1.0"/>
<line x1="386.5" y1="89.1" x2="351.8" y2="109.1" stroke="rgb(0,0,0)"  stroke-width="1.0"/>
<line x1="409.8" y1="75.6" x2="386.5" y2="89.1" stroke="rgb(0,0,0)"  stroke-width="1.0"/>
<line x1="411.9" y1="79.2" x2="388.6" y2="92.7" stroke="rgb(0,0,0)"  stroke-width="1.0"/>
<line x1="407.7" y1="72.0" x2="384.4" y2="85.5" stroke="rgb(0,0,0)"  stroke-width="1.0"/>
<line x1="306.0" y1="122.6" x2="282.7" y2="109.1" stroke="rgb(0,0,0)"  stroke-width="1.0"/>
<line x1="175.6" y1="156.1" x2="175.6" y2="129.1" stroke="rgb(0,0,0)"  stroke-width="1.0"/>
<line x1="181.6" y1="156.1" x2="181.6" y2="129.1" stroke="rgb(0,0,0)"  stroke-width="1.0"/>
<line x1="351.8" y1="109.1" x2="328.5" y2="122.6" stroke="rgb(0,0,0)"  stroke-width="1.0"/>
<line x1="285.7" y1="82.1" x2="285.7" y2="109.1" stroke="rgb(0,0,0)"  stroke-width="1.0"/>
<line x1="279.7" y1="82.1" x2="279.7" y2="109.1" stroke="rgb(0,0,0)"  stroke-width="1.0"/>
<line x1="51.3" y1="55.6" x2="74.8" y2="69.1" stroke="rgb(0,0,0)"  stroke-width="1.0"/>
<line x1="331.8" y1="74.6" x2="351.8" y2="109.1" stroke="rgb(0,0,0)"  stroke-width="1.0"/>
<line x1="371.8" y1="143.9" x2="351.8" y2="109.1" stroke="rgb(0,0,0)"  stroke-width="1.0"/>
<line x1="345.3" y1="51.3" x2="331.8" y2="74.6" stroke="rgb(0,0,0)"  stroke-width="1.0"/>
<line x1="358.3" y1="167.2" x2="371.8" y2="143.9" stroke="rgb(0,0,0)"  stroke-width="1.0"/>
<line x1="202.1" y1="115.6" x2="178.6" y2="129.1" stroke="rgb(0,0,0)"  stroke-width="1.0"/>
<line x1="178.6" y1="129.1" x2="144.1" y2="109.1" stroke="rgb(0,0,0)"  stroke-width="1.0"/>
<line x1="144.1" y1="109.1" x2="144.1" y2="69.1" stroke="rgb(0,0,0)"  stroke-width="1.0"/>
<line x1="151.3" y1="103.1" x2="151.3" y2="75.1" stroke="rgb(0,0,0)"  stroke-width="1.0"/>
<line x1="144.1" y1="69.1" x2="167.4" y2="55.6" stroke="rgb(0,0,0)"  stroke-width="1.0"/>
<line x1="190.1" y1="55.7" x2="213.4" y2="69.1" stroke="rgb(0,0,0)"  stroke-width="1.0"/>
<line x1="188.2" y1="62.9" x2="204.6" y2="72.3" stroke="rgb(0,0,0)"  stroke-width="1.0"/>
<line x1="213.4" y1="69.1" x2="213.4" y2="96.1" stroke="rgb(0,0,0)"  stroke-width="1.0"/>
<line x1="109.3" y1="49.1" x2="144.1" y2="69.1" stroke="rgb(0,0,0)"  stroke-width="1.0"/>
<line x1="144.1" y1="109.1" x2="109.3" y2="129.1" stroke="rgb(0,0,0)"  stroke-width="1.0"/>
<line x1="109.3" y1="129.1" x2="74.8" y2="109.1" stroke="rgb(0,0,0)"  stroke-width="1.0"/>
<line x1="107.7" y1="119.9" x2="83.6" y2="105.9" stroke="rgb(0,0,0)"  stroke-width="1.0"/>
<line x1="74.8" y1="109.1" x2="74.8" y2="69.1" stroke="rgb(0,0,0)"  stroke-width="1.0"/>
<line x1="74.8" y1="69.1" x2="109.3" y2="49.1" stroke="rgb(0,0,0)"  stroke-width="1.0"/>
<line x1="83.6" y1="72.3" x2="107.7" y2="58.3" stroke="rgb(0,0,0)"  stroke-width="1.0"/>
<text x="207.364680" y="117.103404" fill="rgb(12,12,255)"  stroke="rgb(12,12,255)" stroke-width="1" font-size="16" >N</text>
<text x="172.614155" y="57.092553" fill="rgb(12,12,255)"  stroke="rgb(12,12,255)" stroke-width="1" font-size="16" >N</text>
<text x="415.082239" y="77.096170" fill="rgb(102,102,102)"  stroke="rgb(102,102,102)" stroke-width="1" font-size="16" >CH</text>
<text x="311.223460" y="137.107021" fill="rgb(12,12,255)"  stroke="rgb(12,12,255)" stroke-width="1" font-size="16" >N</text>
<text x="311.223460" y="153.107021" fill="rgb(12,12,255)"  stroke="rgb(12,12,255)" stroke-width="1" font-size="16" >H</text>
<text x="172.614155" y="177.114255" fill="rgb(255,12,12)"  stroke="rgb(255,12,12)" stroke-width="1" font-size="16" >O</text>
<text x="276.671758" y="77.096170" fill="rgb(255,12,12)"  stroke="rgb(255,12,12)" stroke-width="1" font-size="16" >O</text>
<text x="34.000000" y="57.092553" fill="rgb(127,178,255)"  stroke="rgb(127,178,255)" stroke-width="1" font-size="16" >F</text>
<text x="347.775162" y="48.000000" fill="rgb(102,102,102)"  stroke="rgb(102,102,102)" stroke-width="1" font-size="16" >CH</text>
<text x="371.775162" y="51.680000" fill="rgb(102,102,102)"  stroke="rgb(102,102,102)" stroke-width="1" font-size="13" >3</text>
<text x="325.775162" y="186.405632" fill="rgb(102,102,102)"  stroke="rgb(102,102,102)" stroke-width="1" font-size="16" >H</text>
<text x="337.775162" y="190.085632" fill="rgb(102,102,102)"  stroke="rgb(102,102,102)" stroke-width="1" font-size="13" >3</text>
<text x="344.275162" y="186.405632" fill="rgb(102,102,102)"  stroke="rgb(102,102,102)" stroke-width="1" font-size="16" >C</text>
<text font-size="18.000000" fill ="black" font-family="sans-serif"
x="10.000000" y="20.000000" ></text>
<title> - OBDepict</title>
</svg>
