<?xml version="1.0"?>
<svg xmlns="http://www.w3.org/2000/svg"
xmlns:xlink="http://www.w3.org/1999/xlink" xmlns:cml="http://www.xml-cml.org/schema" width="218.827" height="400.152" x="0" y="0" font-family="sans-serif" stroke="rgb(0,0,0)" stroke-width="1"  stroke-linecap="round">
<rect x="0%" y="0%" width="100%" height="100%" stroke-width="0" fill="rgb(255,255,255)"  />
<line x1="144.1" y1="320.1" x2="144.6" y2="280.3" stroke="rgb(0,0,0)"  stroke-width="1.0"/>
<line x1="144.1" y1="347.2" x2="144.1" y2="320.1" stroke="rgb(0,0,0)"  stroke-width="1.0"/>
<line x1="139.9" y1="347.2" x2="139.9" y2="320.1" stroke="rgb(0,0,0)"  stroke-width="1.0"/>
<line x1="148.3" y1="347.2" x2="148.3" y2="320.1" stroke="rgb(0,0,0)"  stroke-width="1.0"/>
<line x1="52.8" y1="143.9" x2="76.6" y2="157.5" stroke="rgb(0,0,0)"  stroke-width="1.0"/>
<line x1="49.8" y1="149.2" x2="73.7" y2="162.7" stroke="rgb(0,0,0)"  stroke-width="1.0"/>
<line x1="109.9" y1="247.3" x2="109.9" y2="220.2" stroke="rgb(0,0,0)"  stroke-width="1.0"/>
<line x1="144.6" y1="280.3" x2="121.1" y2="266.8" stroke="rgb(0,0,0)"  stroke-width="1.0"/>
<line x1="144.1" y1="53.0" x2="144.1" y2="80.0" stroke="rgb(0,0,0)"  stroke-width="1.0"/>
<line x1="98.6" y1="146.6" x2="75.2" y2="160.1" stroke="rgb(0,0,0)"  stroke-width="1.0"/>
<line x1="75.2" y1="160.1" x2="75.2" y2="187.2" stroke="rgb(0,0,0)"  stroke-width="1.0"/>
<line x1="86.6" y1="206.8" x2="109.9" y2="220.2" stroke="rgb(0,0,0)"  stroke-width="1.0"/>
<line x1="91.9" y1="201.6" x2="108.3" y2="211.0" stroke="rgb(0,0,0)"  stroke-width="1.0"/>
<line x1="109.9" y1="220.2" x2="132.9" y2="206.7" stroke="rgb(0,0,0)"  stroke-width="1.0"/>
<line x1="144.1" y1="187.0" x2="144.1" y2="160.1" stroke="rgb(0,0,0)"  stroke-width="1.0"/>
<line x1="136.9" y1="185.0" x2="136.9" y2="166.1" stroke="rgb(0,0,0)"  stroke-width="1.0"/>
<line x1="144.1" y1="160.1" x2="121.1" y2="146.7" stroke="rgb(0,0,0)"  stroke-width="1.0"/>
<line x1="144.1" y1="160.1" x2="178.8" y2="140.1" stroke="rgb(0,0,0)"  stroke-width="1.0"/>
<line x1="178.8" y1="140.1" x2="178.8" y2="100.1" stroke="rgb(0,0,0)"  stroke-width="1.0"/>
<line x1="171.6" y1="134.1" x2="171.6" y2="106.1" stroke="rgb(0,0,0)"  stroke-width="1.0"/>
<line x1="178.8" y1="100.1" x2="144.1" y2="80.0" stroke="rgb(0,0,0)"  stroke-width="1.0"/>
<line x1="144.1" y1="80.0" x2="109.9" y2="100.1" stroke="rgb(0,0,0)"  stroke-width="1.0"/>
<line x1="142.6" y1="89.3" x2="118.7" y2="103.3" stroke="rgb(0,0,0)"  stroke-width="1.0"/>
<line x1="109.9" y1="100.1" x2="109.9" y2="127.1" stroke="rgb(0,0,0)"  stroke-width="1.0"/>
<text x="103.860142" y="148.115720" fill="rgb(12,12,255)"  stroke="rgb(12,12,255)" stroke-width="1" font-size="16" >N</text>
<text x="69.153360" y="208.185151" fill="rgb(12,12,255)"  stroke="rgb(12,12,255)" stroke-width="1" font-size="16" >N</text>
<text x="138.120348" y="208.185151" fill="rgb(12,12,255)"  stroke="rgb(12,12,255)" stroke-width="1" font-size="16" >N</text>
<text x="138.120348" y="368.151869" fill="rgb(102,102,102)"  stroke="rgb(102,102,102)" stroke-width="1" font-size="16" >CH</text>
<text x="34.000000" y="148.115720" fill="rgb(255,12,12)"  stroke="rgb(255,12,12)" stroke-width="1" font-size="16" >O</text>
<text x="103.860142" y="268.254583" fill="rgb(178,178,0)"  stroke="rgb(178,178,0)" stroke-width="1" font-size="16" >S</text>
<text x="140.120348" y="48.000000" fill="rgb(102,102,102)"  stroke="rgb(102,102,102)" stroke-width="1" font-size="16" >CH</text>
<text x="164.120348" y="51.680000" fill="rgb(102,102,102)"  stroke="rgb(102,102,102)" stroke-width="1" font-size="13" >3</text>
<text font-size="18.000000" fill ="black" font-family="sans-serif"
x="10.000000" y="20.000000" ></text>
<title> - OBDepict</title>
</svg>
