<?xml version="1.0"?>
<svg xmlns="http://www.w3.org/2000/svg"
xmlns:xlink="http://www.w3.org/1999/xlink" xmlns:cml="http://www.xml-cml.org/schema" width="327.972" height="360.309" x="0" y="0" font-family="sans-serif" stroke="rgb(0,0,0)" stroke-width="1"  stroke-linecap="round">
<rect x="0%" y="0%" width="100%" height="100%" stroke-width="0" fill="rgb(255,255,255)"  />
<line x1="248.0" y1="200.1" x2="248.0" y2="173.2" stroke="rgb(0,0,0)"  stroke-width="1.0"/>
<line x1="248.0" y1="133.2" x2="248.0" y2="147.2" stroke="rgb(0,0,0)"  stroke-width="1.0"/>
<line x1="178.6" y1="280.3" x2="213.4" y2="260.3" stroke="rgb(0,0,0)"  stroke-width="1.0"/>
<line x1="275.0" y1="163.2" x2="261.0" y2="163.2" stroke="rgb(0,0,0)"  stroke-width="1.0"/>
<line x1="275.0" y1="157.2" x2="261.0" y2="157.2" stroke="rgb(0,0,0)"  stroke-width="1.0"/>
<line x1="220.9" y1="157.2" x2="235.0" y2="157.2" stroke="rgb(0,0,0)"  stroke-width="1.0"/>
<line x1="220.9" y1="163.2" x2="235.0" y2="163.2" stroke="rgb(0,0,0)"  stroke-width="1.0"/>
<line x1="74.8" y1="260.3" x2="109.3" y2="280.3" stroke="rgb(0,0,0)"  stroke-width="1.0"/>
<line x1="51.3" y1="246.8" x2="74.8" y2="260.3" stroke="rgb(0,0,0)"  stroke-width="1.0"/>
<line x1="53.4" y1="243.1" x2="76.9" y2="256.6" stroke="rgb(0,0,0)"  stroke-width="1.0"/>
<line x1="49.2" y1="250.4" x2="72.7" y2="263.9" stroke="rgb(0,0,0)"  stroke-width="1.0"/>
<line x1="175.6" y1="307.3" x2="175.6" y2="280.3" stroke="rgb(0,0,0)"  stroke-width="1.0"/>
<line x1="181.6" y1="307.3" x2="181.6" y2="280.3" stroke="rgb(0,0,0)"  stroke-width="1.0"/>
<line x1="155.3" y1="266.8" x2="178.6" y2="280.3" stroke="rgb(0,0,0)"  stroke-width="1.0"/>
<line x1="109.3" y1="280.3" x2="132.8" y2="266.8" stroke="rgb(0,0,0)"  stroke-width="1.0"/>
<line x1="248.0" y1="307.3" x2="248.0" y2="280.3" stroke="rgb(0,0,0)"  stroke-width="1.0"/>
<line x1="259.2" y1="113.7" x2="282.5" y2="100.2" stroke="rgb(0,0,0)"  stroke-width="1.0"/>
<line x1="282.5" y1="100.2" x2="282.5" y2="60.2" stroke="rgb(0,0,0)"  stroke-width="1.0"/>
<line x1="282.5" y1="60.2" x2="248.0" y2="40.0" stroke="rgb(0,0,0)"  stroke-width="1.0"/>
<line x1="248.0" y1="40.0" x2="213.4" y2="60.2" stroke="rgb(0,0,0)"  stroke-width="1.0"/>
<line x1="213.4" y1="60.2" x2="213.4" y2="100.2" stroke="rgb(0,0,0)"  stroke-width="1.0"/>
<line x1="213.4" y1="100.2" x2="236.7" y2="113.7" stroke="rgb(0,0,0)"  stroke-width="1.0"/>
<line x1="248.0" y1="200.1" x2="282.5" y2="220.3" stroke="rgb(0,0,0)"  stroke-width="1.0"/>
<line x1="282.5" y1="220.3" x2="282.5" y2="260.3" stroke="rgb(0,0,0)"  stroke-width="1.0"/>
<line x1="275.3" y1="226.3" x2="275.3" y2="254.3" stroke="rgb(0,0,0)"  stroke-width="1.0"/>
<line x1="282.5" y1="260.3" x2="248.0" y2="280.3" stroke="rgb(0,0,0)"  stroke-width="1.0"/>
<line x1="248.0" y1="280.3" x2="213.4" y2="260.3" stroke="rgb(0,0,0)"  stroke-width="1.0"/>
<line x1="246.4" y1="271.1" x2="222.2" y2="257.1" stroke="rgb(0,0,0)"  stroke-width="1.0"/>
<line x1="213.4" y1="260.3" x2="213.4" y2="220.3" stroke="rgb(0,0,0)"  stroke-width="1.0"/>
<line x1="213.4" y1="220.3" x2="248.0" y2="200.1" stroke="rgb(0,0,0)"  stroke-width="1.0"/>
<line x1="222.2" y1="223.5" x2="246.4" y2="209.3" stroke="rgb(0,0,0)"  stroke-width="1.0"/>
<text x="241.956676" y="168.248674" fill="rgb(178,178,0)"  stroke="rgb(178,178,0)" stroke-width="1" font-size="16" >S</text>
<text x="241.956676" y="128.233687" fill="rgb(12,12,255)"  stroke="rgb(12,12,255)" stroke-width="1" font-size="16" >N</text>
<text x="281.971663" y="168.248674" fill="rgb(255,12,12)"  stroke="rgb(255,12,12)" stroke-width="1" font-size="16" >O</text>
<text x="201.941689" y="168.248674" fill="rgb(255,12,12)"  stroke="rgb(255,12,12)" stroke-width="1" font-size="16" >O</text>
<text x="22.000000" y="248.278648" fill="rgb(102,102,102)"  stroke="rgb(102,102,102)" stroke-width="1" font-size="16" >HC</text>
<text x="172.636167" y="328.308623" fill="rgb(255,12,12)"  stroke="rgb(255,12,12)" stroke-width="1" font-size="16" >O</text>
<text x="138.077769" y="268.286142" fill="rgb(12,12,255)"  stroke="rgb(12,12,255)" stroke-width="1" font-size="16" >N</text>
<text x="138.077769" y="252.286142" fill="rgb(12,12,255)"  stroke="rgb(12,12,255)" stroke-width="1" font-size="16" >H</text>
<text x="243.956676" y="328.308623" fill="rgb(102,102,102)"  stroke="rgb(102,102,102)" stroke-width="1" font-size="16" >CH</text>
<text x="267.956676" y="331.988623" fill="rgb(102,102,102)"  stroke="rgb(102,102,102)" stroke-width="1" font-size="13" >3</text>
<text font-size="18.000000" fill ="black" font-family="sans-serif"
x="10.000000" y="20.000000" ></text>
<title> - OBDepict</title>
</svg>
