<?xml version="1.0"?>
<svg xmlns="http://www.w3.org/2000/svg"
xmlns:xlink="http://www.w3.org/1999/xlink" xmlns:cml="http://www.xml-cml.org/schema" width="565.479" height="241.552" x="0" y="0" font-family="sans-serif" stroke="rgb(0,0,0)" stroke-width="1"  stroke-linecap="round">
<rect x="0%" y="0%" width="100%" height="100%" stroke-width="0" fill="rgb(255,255,255)"  />
<line x1="109.4" y1="141.4" x2="86.0" y2="155.1" stroke="rgb(0,0,0)"  stroke-width="1.0"/>
<line x1="491.0" y1="160.4" x2="456.1" y2="140.5" stroke="rgb(0,0,0)"  stroke-width="1.0"/>
<line x1="514.3" y1="174.0" x2="491.0" y2="160.4" stroke="rgb(0,0,0)"  stroke-width="1.0"/>
<line x1="512.1" y1="177.6" x2="488.9" y2="164.0" stroke="rgb(0,0,0)"  stroke-width="1.0"/>
<line x1="516.4" y1="170.4" x2="493.1" y2="156.7" stroke="rgb(0,0,0)"  stroke-width="1.0"/>
<line x1="236.8" y1="94.4" x2="224.4" y2="87.4" stroke="rgb(0,0,0)"  stroke-width="1.0"/>
<line x1="51.3" y1="148.3" x2="63.5" y2="155.3" stroke="rgb(0,0,0)"  stroke-width="1.0"/>
<line x1="72.2" y1="188.6" x2="72.0" y2="174.7" stroke="rgb(0,0,0)"  stroke-width="1.0"/>
<line x1="78.2" y1="188.5" x2="78.0" y2="174.7" stroke="rgb(0,0,0)"  stroke-width="1.0"/>
<line x1="201.9" y1="87.6" x2="178.5" y2="101.4" stroke="rgb(0,0,0)"  stroke-width="1.0"/>
<line x1="283.9" y1="83.4" x2="260.8" y2="96.9" stroke="rgb(0,0,0)"  stroke-width="1.0"/>
<line x1="280.9" y1="78.3" x2="257.8" y2="91.7" stroke="rgb(0,0,0)"  stroke-width="1.0"/>
<line x1="317.3" y1="100.4" x2="282.4" y2="80.8" stroke="rgb(0,0,0)"  stroke-width="1.0"/>
<line x1="409.8" y1="86.5" x2="386.3" y2="100.4" stroke="rgb(0,0,0)"  stroke-width="1.0"/>
<line x1="410.3" y1="154.1" x2="386.6" y2="140.5" stroke="rgb(0,0,0)"  stroke-width="1.0"/>
<line x1="456.1" y1="140.5" x2="432.9" y2="154.0" stroke="rgb(0,0,0)"  stroke-width="1.0"/>
<line x1="420.7" y1="53.0" x2="420.8" y2="66.8" stroke="rgb(0,0,0)"  stroke-width="1.0"/>
<line x1="386.3" y1="100.4" x2="386.6" y2="140.5" stroke="rgb(0,0,0)"  stroke-width="1.0"/>
<line x1="379.1" y1="106.4" x2="379.4" y2="134.6" stroke="rgb(0,0,0)"  stroke-width="1.0"/>
<line x1="386.6" y1="140.5" x2="351.8" y2="160.4" stroke="rgb(0,0,0)"  stroke-width="1.0"/>
<line x1="351.8" y1="160.4" x2="317.4" y2="140.5" stroke="rgb(0,0,0)"  stroke-width="1.0"/>
<line x1="350.2" y1="151.1" x2="326.2" y2="137.3" stroke="rgb(0,0,0)"  stroke-width="1.0"/>
<line x1="317.4" y1="140.5" x2="317.3" y2="100.4" stroke="rgb(0,0,0)"  stroke-width="1.0"/>
<line x1="317.3" y1="100.4" x2="351.6" y2="80.3" stroke="rgb(0,0,0)"  stroke-width="1.0"/>
<line x1="326.1" y1="103.6" x2="350.0" y2="89.6" stroke="rgb(0,0,0)"  stroke-width="1.0"/>
<line x1="351.6" y1="80.3" x2="386.3" y2="100.4" stroke="rgb(0,0,0)"  stroke-width="1.0"/>
<line x1="109.4" y1="141.4" x2="109.4" y2="101.4" stroke="rgb(0,0,0)"  stroke-width="1.0"/>
<line x1="109.4" y1="101.4" x2="143.7" y2="81.3" stroke="rgb(0,0,0)"  stroke-width="1.0"/>
<line x1="118.2" y1="104.6" x2="142.1" y2="90.6" stroke="rgb(0,0,0)"  stroke-width="1.0"/>
<line x1="143.7" y1="81.3" x2="178.5" y2="101.4" stroke="rgb(0,0,0)"  stroke-width="1.0"/>
<line x1="178.5" y1="101.4" x2="178.5" y2="141.4" stroke="rgb(0,0,0)"  stroke-width="1.0"/>
<line x1="171.3" y1="107.4" x2="171.3" y2="135.4" stroke="rgb(0,0,0)"  stroke-width="1.0"/>
<line x1="178.5" y1="141.4" x2="143.7" y2="161.2" stroke="rgb(0,0,0)"  stroke-width="1.0"/>
<line x1="143.7" y1="161.2" x2="109.4" y2="141.4" stroke="rgb(0,0,0)"  stroke-width="1.0"/>
<line x1="142.1" y1="152.0" x2="118.2" y2="138.1" stroke="rgb(0,0,0)"  stroke-width="1.0"/>
<text x="79.646845" y="157.672486" fill="rgb(12,12,255)"  stroke="rgb(12,12,255)" stroke-width="1" font-size="16" >+</text>
<text x="68.846845" y="169.704486" fill="rgb(12,12,255)"  stroke="rgb(12,12,255)" stroke-width="1" font-size="16" >N</text>
<text x="519.479361" y="188.546518" fill="rgb(102,102,102)"  stroke="rgb(102,102,102)" stroke-width="1" font-size="16" >CH</text>
<text x="242.062583" y="108.852243" fill="rgb(12,12,255)"  stroke="rgb(12,12,255)" stroke-width="1" font-size="16" >N</text>
<text x="44.800000" y="127.751367" fill="rgb(255,12,12)"  stroke="rgb(255,12,12)" stroke-width="1" font-size="16" >_</text>
<text x="34.000000" y="149.863367" fill="rgb(255,12,12)"  stroke="rgb(255,12,12)" stroke-width="1" font-size="16" >O</text>
<text x="69.346389" y="209.551624" fill="rgb(255,12,12)"  stroke="rgb(255,12,12)" stroke-width="1" font-size="16" >O</text>
<text x="207.050840" y="89.015974" fill="rgb(12,12,255)"  stroke="rgb(12,12,255)" stroke-width="1" font-size="16" >N</text>
<text x="207.050840" y="73.015974" fill="rgb(12,12,255)"  stroke="rgb(12,12,255)" stroke-width="1" font-size="16" >H</text>
<text x="414.948525" y="87.847137" fill="rgb(255,12,12)"  stroke="rgb(255,12,12)" stroke-width="1" font-size="16" >O</text>
<text x="415.612968" y="168.540500" fill="rgb(255,12,12)"  stroke="rgb(255,12,12)" stroke-width="1" font-size="16" >O</text>
<text x="394.613879" y="48.000000" fill="rgb(102,102,102)"  stroke="rgb(102,102,102)" stroke-width="1" font-size="16" >H</text>
<text x="406.613879" y="51.680000" fill="rgb(102,102,102)"  stroke="rgb(102,102,102)" stroke-width="1" font-size="13" >3</text>
<text x="413.113879" y="48.000000" fill="rgb(102,102,102)"  stroke="rgb(102,102,102)" stroke-width="1" font-size="16" >C</text>
<text font-size="18.000000" fill ="black" font-family="sans-serif"
x="10.000000" y="20.000000" ></text>
<title> - OBDepict</title>
</svg>
