<?xml version="1.0"?>
<svg xmlns="http://www.w3.org/2000/svg"
xmlns:xlink="http://www.w3.org/1999/xlink" xmlns:cml="http://www.xml-cml.org/schema" width="437.223" height="349.207" x="0" y="0" font-family="sans-serif" stroke="rgb(0,0,0)" stroke-width="1"  stroke-linecap="round">
<rect x="0%" y="0%" width="100%" height="100%" stroke-width="0" fill="rgb(255,255,255)"  />
<line x1="260.6" y1="143.9" x2="283.9" y2="157.4" stroke="rgb(0,0,0)"  stroke-width="1.0"/>
<line x1="257.6" y1="149.1" x2="280.9" y2="162.6" stroke="rgb(0,0,0)"  stroke-width="1.0"/>
<line x1="213.2" y1="80.0" x2="236.6" y2="93.5" stroke="rgb(0,0,0)"  stroke-width="1.0"/>
<line x1="247.9" y1="113.0" x2="247.9" y2="127.0" stroke="rgb(0,0,0)"  stroke-width="1.0"/>
<line x1="318.4" y1="277.2" x2="341.9" y2="244.5" stroke="rgb(0,0,0)"  stroke-width="1.0"/>
<line x1="302.3" y1="298.8" x2="318.4" y2="277.2" stroke="rgb(0,0,0)"  stroke-width="1.0"/>
<line x1="298.9" y1="296.3" x2="315.0" y2="274.7" stroke="rgb(0,0,0)"  stroke-width="1.0"/>
<line x1="305.7" y1="301.3" x2="321.7" y2="279.7" stroke="rgb(0,0,0)"  stroke-width="1.0"/>
<line x1="264.3" y1="215.7" x2="284.5" y2="197.6" stroke="rgb(0,0,0)"  stroke-width="1.0"/>
<line x1="268.2" y1="220.1" x2="288.5" y2="202.1" stroke="rgb(0,0,0)"  stroke-width="1.0"/>
<line x1="109.3" y1="100.0" x2="132.8" y2="86.5" stroke="rgb(0,0,0)"  stroke-width="1.0"/>
<line x1="155.3" y1="86.5" x2="178.7" y2="100.0" stroke="rgb(0,0,0)"  stroke-width="1.0"/>
<line x1="341.9" y1="244.5" x2="331.0" y2="220.2" stroke="rgb(0,0,0)"  stroke-width="1.0"/>
<line x1="216.2" y1="53.0" x2="216.2" y2="80.0" stroke="rgb(0,0,0)"  stroke-width="1.0"/>
<line x1="210.2" y1="53.0" x2="210.2" y2="80.0" stroke="rgb(0,0,0)"  stroke-width="1.0"/>
<line x1="178.7" y1="100.0" x2="213.2" y2="80.0" stroke="rgb(0,0,0)"  stroke-width="1.0"/>
<line x1="132.8" y1="153.9" x2="109.3" y2="140.4" stroke="rgb(0,0,0)"  stroke-width="1.0"/>
<line x1="74.5" y1="186.9" x2="74.5" y2="160.4" stroke="rgb(0,0,0)"  stroke-width="1.0"/>
<line x1="286.5" y1="199.9" x2="313.0" y2="205.6" stroke="rgb(0,0,0)"  stroke-width="1.0"/>
<line x1="332.2" y1="197.1" x2="345.7" y2="173.7" stroke="rgb(0,0,0)"  stroke-width="1.0"/>
<line x1="345.7" y1="173.7" x2="319.0" y2="144.0" stroke="rgb(0,0,0)"  stroke-width="1.0"/>
<line x1="336.3" y1="174.0" x2="317.7" y2="153.3" stroke="rgb(0,0,0)"  stroke-width="1.0"/>
<line x1="319.0" y1="144.0" x2="282.4" y2="160.0" stroke="rgb(0,0,0)"  stroke-width="1.0"/>
<line x1="282.4" y1="160.0" x2="286.5" y2="199.9" stroke="rgb(0,0,0)"  stroke-width="1.0"/>
<line x1="109.3" y1="140.4" x2="74.5" y2="160.4" stroke="rgb(0,0,0)"  stroke-width="1.0"/>
<line x1="74.5" y1="160.4" x2="40.0" y2="140.4" stroke="rgb(0,0,0)"  stroke-width="1.0"/>
<line x1="72.9" y1="151.1" x2="48.8" y2="137.1" stroke="rgb(0,0,0)"  stroke-width="1.0"/>
<line x1="40.0" y1="140.4" x2="40.0" y2="100.0" stroke="rgb(0,0,0)"  stroke-width="1.0"/>
<line x1="40.0" y1="100.0" x2="74.5" y2="80.0" stroke="rgb(0,0,0)"  stroke-width="1.0"/>
<line x1="48.8" y1="103.2" x2="72.9" y2="89.2" stroke="rgb(0,0,0)"  stroke-width="1.0"/>
<line x1="74.5" y1="80.0" x2="109.3" y2="100.0" stroke="rgb(0,0,0)"  stroke-width="1.0"/>
<line x1="109.3" y1="100.0" x2="109.3" y2="140.4" stroke="rgb(0,0,0)"  stroke-width="1.0"/>
<line x1="102.1" y1="106.0" x2="102.1" y2="134.4" stroke="rgb(0,0,0)"  stroke-width="1.0"/>
<line x1="345.7" y1="173.7" x2="384.6" y2="165.4" stroke="rgb(0,0,0)"  stroke-width="1.0"/>
<line x1="384.6" y1="165.4" x2="397.2" y2="127.4" stroke="rgb(0,0,0)"  stroke-width="1.0"/>
<line x1="379.6" y1="157.4" x2="388.5" y2="130.8" stroke="rgb(0,0,0)"  stroke-width="1.0"/>
<line x1="397.2" y1="127.4" x2="370.6" y2="97.7" stroke="rgb(0,0,0)"  stroke-width="1.0"/>
<line x1="370.6" y1="97.7" x2="331.2" y2="106.0" stroke="rgb(0,0,0)"  stroke-width="1.0"/>
<line x1="366.2" y1="106.0" x2="338.6" y2="111.8" stroke="rgb(0,0,0)"  stroke-width="1.0"/>
<line x1="331.2" y1="106.0" x2="319.0" y2="144.0" stroke="rgb(0,0,0)"  stroke-width="1.0"/>
<text x="319.710442" y="216.359366" fill="rgb(12,12,255)"  stroke="rgb(12,12,255)" stroke-width="1" font-size="16" >N</text>
<text x="241.864361" y="148.013689" fill="rgb(12,12,255)"  stroke="rgb(12,12,255)" stroke-width="1" font-size="16" >N</text>
<text x="241.864361" y="108.009183" fill="rgb(12,12,255)"  stroke="rgb(12,12,255)" stroke-width="1" font-size="16" >NH</text>
<text x="276.537092" y="317.207189" fill="rgb(102,102,102)"  stroke="rgb(102,102,102)" stroke-width="1" font-size="16" >HC</text>
<text x="250.530630" y="234.530888" fill="rgb(255,12,12)"  stroke="rgb(255,12,12)" stroke-width="1" font-size="16" >O</text>
<text x="138.014624" y="88.004506" fill="rgb(255,12,12)"  stroke="rgb(255,12,12)" stroke-width="1" font-size="16" >O</text>
<text x="207.194436" y="48.000000" fill="rgb(255,12,12)"  stroke="rgb(255,12,12)" stroke-width="1" font-size="16" >O</text>
<text x="140.014624" y="168.352990" fill="rgb(102,102,102)"  stroke="rgb(102,102,102)" stroke-width="1" font-size="16" >CH</text>
<text x="164.014624" y="172.032990" fill="rgb(102,102,102)"  stroke="rgb(102,102,102)" stroke-width="1" font-size="13" >3</text>
<text x="70.505038" y="207.857985" fill="rgb(102,102,102)"  stroke="rgb(102,102,102)" stroke-width="1" font-size="16" >CH</text>
<text x="94.505038" y="211.537985" fill="rgb(102,102,102)"  stroke="rgb(102,102,102)" stroke-width="1" font-size="13" >3</text>
<text font-size="18.000000" fill ="black" font-family="sans-serif"
x="10.000000" y="20.000000" ></text>
<title> - OBDepict</title>
</svg>
