<?xml version="1.0"?>
<svg xmlns="http://www.w3.org/2000/svg"
xmlns:xlink="http://www.w3.org/1999/xlink" xmlns:cml="http://www.xml-cml.org/schema" width="356.79" height="280.894" x="0" y="0" font-family="sans-serif" stroke="rgb(0,0,0)" stroke-width="1"  stroke-linecap="round">
<rect x="0%" y="0%" width="100%" height="100%" stroke-width="0" fill="rgb(255,255,255)"  />
<line x1="212.3" y1="160.5" x2="212.7" y2="120.4" stroke="rgb(0,0,0)"  stroke-width="1.0"/>
<line x1="142.9" y1="120.2" x2="178.2" y2="100.3" stroke="rgb(0,0,0)"  stroke-width="1.0"/>
<line x1="119.5" y1="133.3" x2="142.9" y2="120.2" stroke="rgb(0,0,0)"  stroke-width="1.0"/>
<line x1="117.5" y1="129.6" x2="140.8" y2="116.5" stroke="rgb(0,0,0)"  stroke-width="1.0"/>
<line x1="121.6" y1="136.9" x2="144.9" y2="123.8" stroke="rgb(0,0,0)"  stroke-width="1.0"/>
<line x1="74.5" y1="159.9" x2="108.8" y2="180.0" stroke="rgb(0,0,0)"  stroke-width="1.0"/>
<line x1="51.2" y1="146.4" x2="74.5" y2="159.9" stroke="rgb(0,0,0)"  stroke-width="1.0"/>
<line x1="53.3" y1="142.7" x2="76.6" y2="156.3" stroke="rgb(0,0,0)"  stroke-width="1.0"/>
<line x1="49.1" y1="150.0" x2="72.4" y2="163.6" stroke="rgb(0,0,0)"  stroke-width="1.0"/>
<line x1="155.1" y1="46.5" x2="178.6" y2="60.1" stroke="rgb(0,0,0)"  stroke-width="1.0"/>
<line x1="278.8" y1="147.5" x2="279.1" y2="120.3" stroke="rgb(0,0,0)"  stroke-width="1.0"/>
<line x1="284.8" y1="147.6" x2="285.1" y2="120.4" stroke="rgb(0,0,0)"  stroke-width="1.0"/>
<line x1="269.9" y1="234.3" x2="246.8" y2="220.8" stroke="rgb(0,0,0)"  stroke-width="1.0"/>
<line x1="154.5" y1="166.9" x2="177.6" y2="180.4" stroke="rgb(0,0,0)"  stroke-width="1.0"/>
<line x1="108.8" y1="180.0" x2="132.0" y2="166.8" stroke="rgb(0,0,0)"  stroke-width="1.0"/>
<line x1="178.2" y1="100.3" x2="212.7" y2="120.4" stroke="rgb(0,0,0)"  stroke-width="1.0"/>
<line x1="212.7" y1="120.4" x2="247.4" y2="100.3" stroke="rgb(0,0,0)"  stroke-width="1.0"/>
<line x1="247.4" y1="100.3" x2="247.6" y2="60.1" stroke="rgb(0,0,0)"  stroke-width="1.0"/>
<line x1="240.2" y1="94.2" x2="240.4" y2="66.1" stroke="rgb(0,0,0)"  stroke-width="1.0"/>
<line x1="247.6" y1="60.1" x2="224.2" y2="46.8" stroke="rgb(0,0,0)"  stroke-width="1.0"/>
<line x1="201.6" y1="46.9" x2="178.6" y2="60.1" stroke="rgb(0,0,0)"  stroke-width="1.0"/>
<line x1="178.6" y1="60.1" x2="178.2" y2="100.3" stroke="rgb(0,0,0)"  stroke-width="1.0"/>
<line x1="185.7" y1="66.2" x2="185.5" y2="94.3" stroke="rgb(0,0,0)"  stroke-width="1.0"/>
<line x1="282.1" y1="40.4" x2="247.6" y2="60.1" stroke="rgb(0,0,0)"  stroke-width="1.0"/>
<line x1="247.4" y1="100.3" x2="282.1" y2="120.4" stroke="rgb(0,0,0)"  stroke-width="1.0"/>
<line x1="282.1" y1="120.4" x2="316.8" y2="100.7" stroke="rgb(0,0,0)"  stroke-width="1.0"/>
<line x1="316.8" y1="100.7" x2="316.8" y2="60.1" stroke="rgb(0,0,0)"  stroke-width="1.0"/>
<line x1="316.8" y1="60.1" x2="282.1" y2="40.4" stroke="rgb(0,0,0)"  stroke-width="1.0"/>
<line x1="212.3" y1="160.5" x2="177.6" y2="180.4" stroke="rgb(0,0,0)"  stroke-width="1.0"/>
<line x1="210.7" y1="169.8" x2="186.4" y2="183.7" stroke="rgb(0,0,0)"  stroke-width="1.0"/>
<line x1="177.6" y1="180.4" x2="177.4" y2="220.2" stroke="rgb(0,0,0)"  stroke-width="1.0"/>
<line x1="177.4" y1="220.2" x2="212.1" y2="240.7" stroke="rgb(0,0,0)"  stroke-width="1.0"/>
<line x1="186.2" y1="217.0" x2="210.6" y2="231.4" stroke="rgb(0,0,0)"  stroke-width="1.0"/>
<line x1="212.1" y1="240.7" x2="246.8" y2="220.8" stroke="rgb(0,0,0)"  stroke-width="1.0"/>
<line x1="246.8" y1="220.8" x2="247.0" y2="180.6" stroke="rgb(0,0,0)"  stroke-width="1.0"/>
<line x1="239.6" y1="214.8" x2="239.8" y2="186.6" stroke="rgb(0,0,0)"  stroke-width="1.0"/>
<line x1="247.0" y1="180.6" x2="212.3" y2="160.5" stroke="rgb(0,0,0)"  stroke-width="1.0"/>
<text x="206.892107" y="48.402876" fill="rgb(255,12,12)"  stroke="rgb(255,12,12)" stroke-width="1" font-size="16" >O</text>
<text x="102.183145" y="147.631752" fill="rgb(12,12,255)"  stroke="rgb(12,12,255)" stroke-width="1" font-size="16" >N</text>
<text x="22.000000" y="147.835617" fill="rgb(102,102,102)"  stroke="rgb(102,102,102)" stroke-width="1" font-size="16" >HC</text>
<text x="117.898356" y="48.000000" fill="rgb(12,12,255)"  stroke="rgb(12,12,255)" stroke-width="1" font-size="16" >H</text>
<text x="129.898356" y="51.680000" fill="rgb(12,12,255)"  stroke="rgb(12,12,255)" stroke-width="1" font-size="13" >2</text>
<text x="136.398356" y="48.000000" fill="rgb(12,12,255)"  stroke="rgb(12,12,255)" stroke-width="1" font-size="16" >N</text>
<text x="275.686847" y="168.537626" fill="rgb(255,12,12)"  stroke="rgb(255,12,12)" stroke-width="1" font-size="16" >O</text>
<text x="275.075252" y="248.894425" fill="rgb(165,40,40)"  stroke="rgb(165,40,40)" stroke-width="1" font-size="16" >Br</text>
<text x="137.286761" y="168.328907" fill="rgb(255,12,12)"  stroke="rgb(255,12,12)" stroke-width="1" font-size="16" >O</text>
<text font-size="18.000000" fill ="black" font-family="sans-serif"
x="10.000000" y="20.000000" ></text>
<title> - OBDepict</title>
</svg>
