<?xml version="1.0"?>
<svg xmlns="http://www.w3.org/2000/svg"
xmlns:xlink="http://www.w3.org/1999/xlink" xmlns:cml="http://www.xml-cml.org/schema" width="342.727" height="503.395" x="0" y="0" font-family="sans-serif" stroke="rgb(0,0,0)" stroke-width="1"  stroke-linecap="round">
<rect x="0%" y="0%" width="100%" height="100%" stroke-width="0" fill="rgb(255,255,255)"  />
<line x1="174.4" y1="161.3" x2="200.1" y2="169.7" stroke="rgb(0,0,0)"  stroke-width="1.0"/>
<line x1="273.4" y1="242.0" x2="249.8" y2="209.7" stroke="rgb(0,0,0)"  stroke-width="1.0"/>
<line x1="278.3" y1="238.5" x2="254.6" y2="206.2" stroke="rgb(0,0,0)"  stroke-width="1.0"/>
<line x1="153.6" y1="118.4" x2="159.3" y2="144.5" stroke="rgb(0,0,0)"  stroke-width="1.0"/>
<line x1="259.5" y1="276.7" x2="275.8" y2="240.3" stroke="rgb(0,0,0)"  stroke-width="1.0"/>
<line x1="153.6" y1="427.0" x2="169.9" y2="390.4" stroke="rgb(0,0,0)"  stroke-width="1.0"/>
<line x1="142.5" y1="451.5" x2="153.6" y2="427.0" stroke="rgb(0,0,0)"  stroke-width="1.0"/>
<line x1="138.7" y1="449.8" x2="149.7" y2="425.3" stroke="rgb(0,0,0)"  stroke-width="1.0"/>
<line x1="146.4" y1="453.3" x2="157.4" y2="428.7" stroke="rgb(0,0,0)"  stroke-width="1.0"/>
<line x1="291.3" y1="164.1" x2="265.5" y2="172.6" stroke="rgb(0,0,0)"  stroke-width="1.0"/>
<line x1="289.4" y1="158.4" x2="263.6" y2="166.9" stroke="rgb(0,0,0)"  stroke-width="1.0"/>
<line x1="176.0" y1="320.0" x2="203.1" y2="317.3" stroke="rgb(0,0,0)"  stroke-width="1.0"/>
<line x1="215.3" y1="374.5" x2="226.3" y2="350.0" stroke="rgb(0,0,0)"  stroke-width="1.0"/>
<line x1="282.2" y1="367.9" x2="266.4" y2="345.8" stroke="rgb(0,0,0)"  stroke-width="1.0"/>
<line x1="169.9" y1="390.4" x2="197.0" y2="387.7" stroke="rgb(0,0,0)"  stroke-width="1.0"/>
<line x1="278.8" y1="403.0" x2="284.5" y2="390.4" stroke="rgb(0,0,0)"  stroke-width="1.0"/>
<line x1="221.6" y1="154.0" x2="200.1" y2="169.7" stroke="rgb(0,0,0)"  stroke-width="1.0"/>
<line x1="224.2" y1="161.0" x2="209.2" y2="172.0" stroke="rgb(0,0,0)"  stroke-width="1.0"/>
<line x1="200.1" y1="169.7" x2="208.3" y2="195.6" stroke="rgb(0,0,0)"  stroke-width="1.0"/>
<line x1="225.2" y1="207.9" x2="252.2" y2="207.9" stroke="rgb(0,0,0)"  stroke-width="1.0"/>
<line x1="252.2" y1="207.9" x2="264.5" y2="169.7" stroke="rgb(0,0,0)"  stroke-width="1.0"/>
<line x1="264.5" y1="169.7" x2="242.7" y2="153.9" stroke="rgb(0,0,0)"  stroke-width="1.0"/>
<line x1="203.1" y1="317.3" x2="226.3" y2="350.0" stroke="rgb(0,0,0)"  stroke-width="1.0"/>
<line x1="226.3" y1="350.0" x2="266.4" y2="345.8" stroke="rgb(0,0,0)"  stroke-width="1.0"/>
<line x1="231.5" y1="342.2" x2="259.6" y2="339.2" stroke="rgb(0,0,0)"  stroke-width="1.0"/>
<line x1="266.4" y1="345.8" x2="282.7" y2="309.2" stroke="rgb(0,0,0)"  stroke-width="1.0"/>
<line x1="282.7" y1="309.2" x2="259.5" y2="276.7" stroke="rgb(0,0,0)"  stroke-width="1.0"/>
<line x1="273.4" y1="308.5" x2="257.1" y2="285.7" stroke="rgb(0,0,0)"  stroke-width="1.0"/>
<line x1="259.5" y1="276.7" x2="219.7" y2="280.9" stroke="rgb(0,0,0)"  stroke-width="1.0"/>
<line x1="219.7" y1="280.9" x2="203.1" y2="317.3" stroke="rgb(0,0,0)"  stroke-width="1.0"/>
<line x1="223.7" y1="289.3" x2="212.1" y2="314.8" stroke="rgb(0,0,0)"  stroke-width="1.0"/>
<line x1="153.6" y1="118.4" x2="115.8" y2="106.1" stroke="rgb(0,0,0)"  stroke-width="1.0"/>
<line x1="115.8" y1="106.1" x2="107.5" y2="66.9" stroke="rgb(0,0,0)"  stroke-width="1.0"/>
<line x1="107.5" y1="66.9" x2="137.0" y2="40.0" stroke="rgb(0,0,0)"  stroke-width="1.0"/>
<line x1="137.0" y1="40.0" x2="175.2" y2="52.3" stroke="rgb(0,0,0)"  stroke-width="1.0"/>
<line x1="140.5" y1="48.7" x2="167.3" y2="57.3" stroke="rgb(0,0,0)"  stroke-width="1.0"/>
<line x1="175.2" y1="52.3" x2="183.3" y2="91.5" stroke="rgb(0,0,0)"  stroke-width="1.0"/>
<line x1="183.3" y1="91.5" x2="153.6" y2="118.4" stroke="rgb(0,0,0)"  stroke-width="1.0"/>
<line x1="174.0" y1="90.2" x2="153.2" y2="109.1" stroke="rgb(0,0,0)"  stroke-width="1.0"/>
<line x1="107.5" y1="66.9" x2="69.3" y2="54.8" stroke="rgb(0,0,0)"  stroke-width="1.0"/>
<line x1="99.6" y1="71.9" x2="72.8" y2="63.4" stroke="rgb(0,0,0)"  stroke-width="1.0"/>
<line x1="69.3" y1="54.8" x2="40.0" y2="81.4" stroke="rgb(0,0,0)"  stroke-width="1.0"/>
<line x1="40.0" y1="81.4" x2="48.5" y2="120.6" stroke="rgb(0,0,0)"  stroke-width="1.0"/>
<line x1="48.3" y1="85.8" x2="54.3" y2="113.2" stroke="rgb(0,0,0)"  stroke-width="1.0"/>
<line x1="48.5" y1="120.6" x2="86.3" y2="132.8" stroke="rgb(0,0,0)"  stroke-width="1.0"/>
<line x1="86.3" y1="132.8" x2="115.8" y2="106.1" stroke="rgb(0,0,0)"  stroke-width="1.0"/>
<line x1="85.9" y1="123.4" x2="106.5" y2="104.8" stroke="rgb(0,0,0)"  stroke-width="1.0"/>
<text x="226.193279" y="154.304920" fill="rgb(12,12,255)"  stroke="rgb(12,12,255)" stroke-width="1" font-size="16" >N</text>
<text x="206.189221" y="215.942848" fill="rgb(178,178,0)"  stroke="rgb(178,178,0)" stroke-width="1" font-size="16" >S</text>
<text x="144.067458" y="165.219313" fill="rgb(12,12,255)"  stroke="rgb(12,12,255)" stroke-width="1" font-size="16" >HN</text>
<text x="119.210402" y="471.394955" fill="rgb(102,102,102)"  stroke="rgb(102,102,102)" stroke-width="1" font-size="16" >HC</text>
<text x="296.726751" y="165.219313" fill="rgb(255,12,12)"  stroke="rgb(255,12,12)" stroke-width="1" font-size="16" >O</text>
<text x="145.076881" y="329.318586" fill="rgb(165,40,40)"  stroke="rgb(165,40,40)" stroke-width="1" font-size="16" >Br</text>
<text x="203.966548" y="394.397289" fill="rgb(255,12,12)"  stroke="rgb(255,12,12)" stroke-width="1" font-size="16" >O</text>
<text x="283.793511" y="386.516020" fill="rgb(255,12,12)"  stroke="rgb(255,12,12)" stroke-width="1" font-size="16" >O</text>
<text x="247.424349" y="422.894093" fill="rgb(102,102,102)"  stroke="rgb(102,102,102)" stroke-width="1" font-size="16" >H</text>
<text x="259.424349" y="426.574093" fill="rgb(102,102,102)"  stroke="rgb(102,102,102)" stroke-width="1" font-size="13" >3</text>
<text x="265.924349" y="422.894093" fill="rgb(102,102,102)"  stroke="rgb(102,102,102)" stroke-width="1" font-size="16" >C</text>
<text font-size="18.000000" fill ="black" font-family="sans-serif"
x="10.000000" y="20.000000" ></text>
<title> - OBDepict</title>
</svg>
