<?xml version="1.0"?>
<svg xmlns="http://www.w3.org/2000/svg"
xmlns:xlink="http://www.w3.org/1999/xlink" xmlns:cml="http://www.xml-cml.org/schema" width="415.247" height="273.543" x="0" y="0" font-family="sans-serif" stroke="rgb(0,0,0)" stroke-width="1"  stroke-linecap="round">
<rect x="0%" y="0%" width="100%" height="100%" stroke-width="0" fill="rgb(255,255,255)"  />
<line x1="296.9" y1="227.2" x2="274.6" y2="214.7" stroke="rgb(0,0,0)"  stroke-width="1.0"/>
<line x1="175.7" y1="153.6" x2="209.2" y2="172.9" stroke="rgb(0,0,0)"  stroke-width="1.0"/>
<line x1="172.7" y1="158.8" x2="206.2" y2="178.1" stroke="rgb(0,0,0)"  stroke-width="1.0"/>
<line x1="341.7" y1="214.2" x2="319.5" y2="227.0" stroke="rgb(0,0,0)"  stroke-width="1.0"/>
<line x1="140.7" y1="175.5" x2="174.2" y2="156.2" stroke="rgb(0,0,0)"  stroke-width="1.0"/>
<line x1="73.5" y1="59.3" x2="73.5" y2="98.0" stroke="rgb(0,0,0)"  stroke-width="1.0"/>
<line x1="51.3" y1="46.5" x2="73.5" y2="59.3" stroke="rgb(0,0,0)"  stroke-width="1.0"/>
<line x1="53.4" y1="42.9" x2="75.6" y2="55.7" stroke="rgb(0,0,0)"  stroke-width="1.0"/>
<line x1="49.2" y1="50.1" x2="71.4" y2="63.0" stroke="rgb(0,0,0)"  stroke-width="1.0"/>
<line x1="244.0" y1="130.3" x2="244.0" y2="156.2" stroke="rgb(0,0,0)"  stroke-width="1.0"/>
<line x1="238.0" y1="130.3" x2="238.0" y2="156.2" stroke="rgb(0,0,0)"  stroke-width="1.0"/>
<line x1="344.4" y1="188.5" x2="344.7" y2="214.2" stroke="rgb(0,0,0)"  stroke-width="1.0"/>
<line x1="338.4" y1="188.6" x2="338.7" y2="214.2" stroke="rgb(0,0,0)"  stroke-width="1.0"/>
<line x1="107.0" y1="130.3" x2="107.0" y2="156.2" stroke="rgb(0,0,0)"  stroke-width="1.0"/>
<line x1="73.5" y1="98.0" x2="95.8" y2="110.9" stroke="rgb(0,0,0)"  stroke-width="1.0"/>
<line x1="364.0" y1="226.9" x2="341.7" y2="214.2" stroke="rgb(0,0,0)"  stroke-width="1.0"/>
<line x1="274.6" y1="188.5" x2="274.6" y2="214.7" stroke="rgb(0,0,0)"  stroke-width="1.0"/>
<line x1="267.4" y1="190.5" x2="267.4" y2="208.7" stroke="rgb(0,0,0)"  stroke-width="1.0"/>
<line x1="274.6" y1="214.7" x2="220.7" y2="214.3" stroke="rgb(0,0,0)"  stroke-width="1.0"/>
<line x1="207.7" y1="201.2" x2="207.7" y2="175.5" stroke="rgb(0,0,0)"  stroke-width="1.0"/>
<line x1="207.7" y1="175.5" x2="241.0" y2="156.2" stroke="rgb(0,0,0)"  stroke-width="1.0"/>
<line x1="241.0" y1="156.2" x2="263.3" y2="169.0" stroke="rgb(0,0,0)"  stroke-width="1.0"/>
<line x1="140.7" y1="175.5" x2="107.0" y2="156.2" stroke="rgb(0,0,0)"  stroke-width="1.0"/>
<line x1="107.0" y1="156.2" x2="73.5" y2="175.5" stroke="rgb(0,0,0)"  stroke-width="1.0"/>
<line x1="105.4" y1="165.4" x2="82.3" y2="178.8" stroke="rgb(0,0,0)"  stroke-width="1.0"/>
<line x1="73.5" y1="175.5" x2="73.5" y2="214.2" stroke="rgb(0,0,0)"  stroke-width="1.0"/>
<line x1="73.5" y1="214.2" x2="107.0" y2="233.5" stroke="rgb(0,0,0)"  stroke-width="1.0"/>
<line x1="82.3" y1="211.0" x2="105.4" y2="224.3" stroke="rgb(0,0,0)"  stroke-width="1.0"/>
<line x1="107.0" y1="233.5" x2="140.7" y2="214.2" stroke="rgb(0,0,0)"  stroke-width="1.0"/>
<line x1="140.7" y1="214.2" x2="140.7" y2="175.5" stroke="rgb(0,0,0)"  stroke-width="1.0"/>
<line x1="133.5" y1="208.2" x2="133.5" y2="181.5" stroke="rgb(0,0,0)"  stroke-width="1.0"/>
<text x="268.557473" y="183.528140" fill="rgb(12,12,255)"  stroke="rgb(12,12,255)" stroke-width="1" font-size="16" >N</text>
<text x="201.707867" y="222.202900" fill="rgb(178,178,0)"  stroke="rgb(178,178,0)" stroke-width="1" font-size="16" >S</text>
<text x="302.233168" y="241.542625" fill="rgb(12,12,255)"  stroke="rgb(12,12,255)" stroke-width="1" font-size="16" >N</text>
<text x="302.233168" y="257.542625" fill="rgb(12,12,255)"  stroke="rgb(12,12,255)" stroke-width="1" font-size="16" >H</text>
<text x="22.000000" y="48.000000" fill="rgb(102,102,102)"  stroke="rgb(102,102,102)" stroke-width="1" font-size="16" >HC</text>
<text x="235.045913" y="125.349520" fill="rgb(255,12,12)"  stroke="rgb(255,12,12)" stroke-width="1" font-size="16" >O</text>
<text x="335.238256" y="183.528140" fill="rgb(255,12,12)"  stroke="rgb(255,12,12)" stroke-width="1" font-size="16" >O</text>
<text x="101.018431" y="125.349520" fill="rgb(255,12,12)"  stroke="rgb(255,12,12)" stroke-width="1" font-size="16" >O</text>
<text x="371.246909" y="241.373801" fill="rgb(102,102,102)"  stroke="rgb(102,102,102)" stroke-width="1" font-size="16" >CH</text>
<text x="395.246909" y="245.053801" fill="rgb(102,102,102)"  stroke="rgb(102,102,102)" stroke-width="1" font-size="13" >3</text>
<text font-size="18.000000" fill ="black" font-family="sans-serif"
x="10.000000" y="20.000000" ></text>
<title> - OBDepict</title>
</svg>
