<?xml version="1.0"?>
<svg xmlns="http://www.w3.org/2000/svg"
xmlns:xlink="http://www.w3.org/1999/xlink" xmlns:cml="http://www.xml-cml.org/schema" width="322.477" height="360.061" x="0" y="0" font-family="sans-serif" stroke="rgb(0,0,0)" stroke-width="1"  stroke-linecap="round">
<rect x="0%" y="0%" width="100%" height="100%" stroke-width="0" fill="rgb(255,255,255)"  />
<line x1="143.9" y1="220.0" x2="143.9" y2="180.0" stroke="rgb(0,0,0)"  stroke-width="1.0"/>
<line x1="213.2" y1="300.1" x2="178.6" y2="280.1" stroke="rgb(0,0,0)"  stroke-width="1.0"/>
<line x1="236.7" y1="313.6" x2="213.2" y2="300.1" stroke="rgb(0,0,0)"  stroke-width="1.0"/>
<line x1="234.6" y1="317.2" x2="211.1" y2="303.7" stroke="rgb(0,0,0)"  stroke-width="1.0"/>
<line x1="238.8" y1="309.9" x2="215.3" y2="296.4" stroke="rgb(0,0,0)"  stroke-width="1.0"/>
<line x1="119.1" y1="230.9" x2="142.4" y2="217.4" stroke="rgb(0,0,0)"  stroke-width="1.0"/>
<line x1="122.1" y1="236.1" x2="145.4" y2="222.6" stroke="rgb(0,0,0)"  stroke-width="1.0"/>
<line x1="213.2" y1="100.0" x2="178.6" y2="120.0" stroke="rgb(0,0,0)"  stroke-width="1.0"/>
<line x1="167.3" y1="233.6" x2="143.9" y2="220.0" stroke="rgb(0,0,0)"  stroke-width="1.0"/>
<line x1="178.6" y1="280.1" x2="178.6" y2="253.0" stroke="rgb(0,0,0)"  stroke-width="1.0"/>
<line x1="143.9" y1="180.0" x2="178.6" y2="159.8" stroke="rgb(0,0,0)"  stroke-width="1.0"/>
<line x1="178.6" y1="159.8" x2="178.6" y2="120.0" stroke="rgb(0,0,0)"  stroke-width="1.0"/>
<line x1="171.4" y1="153.8" x2="171.4" y2="126.0" stroke="rgb(0,0,0)"  stroke-width="1.0"/>
<line x1="178.6" y1="120.0" x2="155.1" y2="106.5" stroke="rgb(0,0,0)"  stroke-width="1.0"/>
<line x1="132.5" y1="106.6" x2="109.3" y2="120.0" stroke="rgb(0,0,0)"  stroke-width="1.0"/>
<line x1="134.3" y1="113.9" x2="118.1" y2="123.2" stroke="rgb(0,0,0)"  stroke-width="1.0"/>
<line x1="109.3" y1="120.0" x2="109.3" y2="159.8" stroke="rgb(0,0,0)"  stroke-width="1.0"/>
<line x1="109.3" y1="159.8" x2="143.9" y2="180.0" stroke="rgb(0,0,0)"  stroke-width="1.0"/>
<line x1="118.1" y1="156.6" x2="142.3" y2="170.8" stroke="rgb(0,0,0)"  stroke-width="1.0"/>
<line x1="74.6" y1="100.0" x2="40.0" y2="120.0" stroke="rgb(0,0,0)"  stroke-width="1.0"/>
<line x1="73.0" y1="109.3" x2="48.8" y2="123.2" stroke="rgb(0,0,0)"  stroke-width="1.0"/>
<line x1="40.0" y1="120.0" x2="40.0" y2="159.8" stroke="rgb(0,0,0)"  stroke-width="1.0"/>
<line x1="40.0" y1="159.8" x2="74.6" y2="180.0" stroke="rgb(0,0,0)"  stroke-width="1.0"/>
<line x1="48.8" y1="156.6" x2="73.0" y2="170.8" stroke="rgb(0,0,0)"  stroke-width="1.0"/>
<line x1="74.6" y1="180.0" x2="109.3" y2="159.8" stroke="rgb(0,0,0)"  stroke-width="1.0"/>
<line x1="109.3" y1="120.0" x2="74.6" y2="100.0" stroke="rgb(0,0,0)"  stroke-width="1.0"/>
<line x1="213.2" y1="100.0" x2="247.9" y2="120.0" stroke="rgb(0,0,0)"  stroke-width="1.0"/>
<line x1="247.9" y1="120.0" x2="282.5" y2="100.0" stroke="rgb(0,0,0)"  stroke-width="1.0"/>
<line x1="249.5" y1="110.8" x2="273.7" y2="96.8" stroke="rgb(0,0,0)"  stroke-width="1.0"/>
<line x1="282.5" y1="100.0" x2="282.5" y2="73.0" stroke="rgb(0,0,0)"  stroke-width="1.0"/>
<line x1="271.1" y1="53.4" x2="247.9" y2="40.0" stroke="rgb(0,0,0)"  stroke-width="1.0"/>
<line x1="265.7" y1="58.6" x2="249.5" y2="49.2" stroke="rgb(0,0,0)"  stroke-width="1.0"/>
<line x1="247.9" y1="40.0" x2="213.2" y2="60.0" stroke="rgb(0,0,0)"  stroke-width="1.0"/>
<line x1="213.2" y1="60.0" x2="213.2" y2="100.0" stroke="rgb(0,0,0)"  stroke-width="1.0"/>
<line x1="220.4" y1="66.0" x2="220.4" y2="94.0" stroke="rgb(0,0,0)"  stroke-width="1.0"/>
<text x="137.862747" y="108.013144" fill="rgb(12,12,255)"  stroke="rgb(12,12,255)" stroke-width="1" font-size="16" >N</text>
<text x="241.924326" y="328.061337" fill="rgb(102,102,102)"  stroke="rgb(102,102,102)" stroke-width="1" font-size="16" >CH</text>
<text x="103.309725" y="248.043812" fill="rgb(255,12,12)"  stroke="rgb(255,12,12)" stroke-width="1" font-size="16" >O</text>
<text x="276.477348" y="68.004381" fill="rgb(12,12,255)"  stroke="rgb(12,12,255)" stroke-width="1" font-size="16" >N</text>
<text x="172.614601" y="248.043812" fill="rgb(12,12,255)"  stroke="rgb(12,12,255)" stroke-width="1" font-size="16" >NH</text>
<text font-size="18.000000" fill ="black" font-family="sans-serif"
x="10.000000" y="20.000000" ></text>
<title> - OBDepict</title>
</svg>
