<?xml version="1.0"?>
<svg xmlns="http://www.w3.org/2000/svg"
xmlns:xlink="http://www.w3.org/1999/xlink" xmlns:cml="http://www.xml-cml.org/schema" width="580.137" height="253.158" x="0" y="0" font-family="sans-serif" stroke="rgb(0,0,0)" stroke-width="1"  stroke-linecap="round">
<rect x="0%" y="0%" width="100%" height="100%" stroke-width="0" fill="rgb(255,255,255)"  />
<line x1="53.0" y1="40.0" x2="80.0" y2="40.0" stroke="rgb(0,0,0)"  stroke-width="1.0"/>
<line x1="53.0" y1="35.8" x2="80.0" y2="35.8" stroke="rgb(0,0,0)"  stroke-width="1.0"/>
<line x1="53.0" y1="44.2" x2="80.0" y2="44.2" stroke="rgb(0,0,0)"  stroke-width="1.0"/>
<line x1="180.0" y1="74.0" x2="153.0" y2="74.0" stroke="rgb(0,0,0)"  stroke-width="1.0"/>
<line x1="186.5" y1="132.5" x2="200.0" y2="109.1" stroke="rgb(0,0,0)"  stroke-width="1.0"/>
<line x1="313.6" y1="97.8" x2="300.1" y2="74.0" stroke="rgb(0,0,0)"  stroke-width="1.0"/>
<line x1="133.4" y1="62.8" x2="120.0" y2="40.0" stroke="rgb(0,0,0)"  stroke-width="1.0"/>
<line x1="120.0" y1="40.0" x2="80.0" y2="40.0" stroke="rgb(0,0,0)"  stroke-width="1.0"/>
<line x1="420.1" y1="143.8" x2="380.1" y2="143.8" stroke="rgb(0,0,0)"  stroke-width="1.0"/>
<line x1="300.1" y1="74.0" x2="260.1" y2="74.0" stroke="rgb(0,0,0)"  stroke-width="1.0"/>
<line x1="360.1" y1="109.1" x2="333.1" y2="109.1" stroke="rgb(0,0,0)"  stroke-width="1.0"/>
<line x1="380.1" y1="143.8" x2="360.1" y2="109.1" stroke="rgb(0,0,0)"  stroke-width="1.0"/>
<line x1="200.0" y1="178.5" x2="186.5" y2="155.1" stroke="rgb(0,0,0)"  stroke-width="1.0"/>
<line x1="186.5" y1="201.9" x2="200.0" y2="178.5" stroke="rgb(0,0,0)"  stroke-width="1.0"/>
<line x1="200.0" y1="109.1" x2="240.1" y2="109.1" stroke="rgb(0,0,0)"  stroke-width="1.0"/>
<line x1="240.1" y1="109.1" x2="260.1" y2="74.0" stroke="rgb(0,0,0)"  stroke-width="1.0"/>
<line x1="236.8" y1="100.4" x2="250.8" y2="75.7" stroke="rgb(0,0,0)"  stroke-width="1.0"/>
<line x1="260.1" y1="74.0" x2="240.1" y2="40.0" stroke="rgb(0,0,0)"  stroke-width="1.0"/>
<line x1="240.1" y1="40.0" x2="200.0" y2="40.0" stroke="rgb(0,0,0)"  stroke-width="1.0"/>
<line x1="234.1" y1="47.2" x2="206.0" y2="47.2" stroke="rgb(0,0,0)"  stroke-width="1.0"/>
<line x1="200.0" y1="40.0" x2="180.0" y2="74.0" stroke="rgb(0,0,0)"  stroke-width="1.0"/>
<line x1="180.0" y1="74.0" x2="200.0" y2="109.1" stroke="rgb(0,0,0)"  stroke-width="1.0"/>
<line x1="189.3" y1="75.7" x2="203.3" y2="100.4" stroke="rgb(0,0,0)"  stroke-width="1.0"/>
<line x1="420.1" y1="143.8" x2="440.1" y2="178.5" stroke="rgb(0,0,0)"  stroke-width="1.0"/>
<line x1="440.1" y1="178.5" x2="480.1" y2="178.5" stroke="rgb(0,0,0)"  stroke-width="1.0"/>
<line x1="446.1" y1="171.3" x2="474.1" y2="171.3" stroke="rgb(0,0,0)"  stroke-width="1.0"/>
<line x1="480.1" y1="178.5" x2="500.1" y2="143.8" stroke="rgb(0,0,0)"  stroke-width="1.0"/>
<line x1="500.1" y1="143.8" x2="480.1" y2="109.1" stroke="rgb(0,0,0)"  stroke-width="1.0"/>
<line x1="490.9" y1="142.2" x2="476.9" y2="117.9" stroke="rgb(0,0,0)"  stroke-width="1.0"/>
<line x1="480.1" y1="109.1" x2="440.1" y2="109.1" stroke="rgb(0,0,0)"  stroke-width="1.0"/>
<line x1="440.1" y1="109.1" x2="420.1" y2="143.8" stroke="rgb(0,0,0)"  stroke-width="1.0"/>
<line x1="443.3" y1="117.9" x2="429.3" y2="142.2" stroke="rgb(0,0,0)"  stroke-width="1.0"/>
<text x="22.000000" y="48.000000" fill="rgb(102,102,102)"  stroke="rgb(102,102,102)" stroke-width="1" font-size="16" >HC</text>
<text x="174.038282" y="151.805347" fill="rgb(255,12,12)"  stroke="rgb(255,12,12)" stroke-width="1" font-size="16" >O</text>
<text x="314.076565" y="117.129201" fill="rgb(12,12,255)"  stroke="rgb(12,12,255)" stroke-width="1" font-size="16" >N</text>
<text x="314.076565" y="133.129201" fill="rgb(12,12,255)"  stroke="rgb(12,12,255)" stroke-width="1" font-size="16" >H</text>
<text x="134.027345" y="82.006872" fill="rgb(255,12,12)"  stroke="rgb(255,12,12)" stroke-width="1" font-size="16" >O</text>
<text x="154.038282" y="221.157639" fill="rgb(102,102,102)"  stroke="rgb(102,102,102)" stroke-width="1" font-size="16" >H</text>
<text x="166.038282" y="224.837639" fill="rgb(102,102,102)"  stroke="rgb(102,102,102)" stroke-width="1" font-size="13" >3</text>
<text x="172.538282" y="221.157639" fill="rgb(102,102,102)"  stroke="rgb(102,102,102)" stroke-width="1" font-size="16" >C</text>
<text x="534.136723" y="221.157639" fill="rgb(30,239,30)"  stroke="rgb(30,239,30)" stroke-width="1" font-size="16" >ClH</text>
<text font-size="18.000000" fill ="black" font-family="sans-serif"
x="10.000000" y="20.000000" ></text>
<title> - OBDepict</title>
</svg>
