<?xml version="1.0"?>
<svg xmlns="http://www.w3.org/2000/svg"
xmlns:xlink="http://www.w3.org/1999/xlink" xmlns:cml="http://www.xml-cml.org/schema" width="318.765" height="397.01" x="0" y="0" font-family="sans-serif" stroke="rgb(0,0,0)" stroke-width="1"  stroke-linecap="round">
<rect x="0%" y="0%" width="100%" height="100%" stroke-width="0" fill="rgb(255,255,255)"  />
<line x1="201.0" y1="277.2" x2="162.8" y2="289.5" stroke="rgb(0,0,0)"  stroke-width="1.0"/>
<line x1="199.2" y1="271.5" x2="161.0" y2="283.8" stroke="rgb(0,0,0)"  stroke-width="1.0"/>
<line x1="229.7" y1="130.6" x2="224.4" y2="156.9" stroke="rgb(0,0,0)"  stroke-width="1.0"/>
<line x1="208.0" y1="235.1" x2="200.1" y2="274.3" stroke="rgb(0,0,0)"  stroke-width="1.0"/>
<line x1="50.7" y1="235.1" x2="59.2" y2="274.3" stroke="rgb(0,0,0)"  stroke-width="1.0"/>
<line x1="43.5" y1="208.8" x2="50.7" y2="235.1" stroke="rgb(0,0,0)"  stroke-width="1.0"/>
<line x1="47.5" y1="207.7" x2="54.8" y2="234.0" stroke="rgb(0,0,0)"  stroke-width="1.0"/>
<line x1="39.4" y1="209.9" x2="46.7" y2="236.2" stroke="rgb(0,0,0)"  stroke-width="1.0"/>
<line x1="91.2" y1="344.8" x2="107.1" y2="323.1" stroke="rgb(0,0,0)"  stroke-width="1.0"/>
<line x1="96.0" y1="348.3" x2="112.0" y2="326.6" stroke="rgb(0,0,0)"  stroke-width="1.0"/>
<line x1="132.3" y1="235.9" x2="132.6" y2="263.0" stroke="rgb(0,0,0)"  stroke-width="1.0"/>
<line x1="126.3" y1="236.0" x2="126.6" y2="263.0" stroke="rgb(0,0,0)"  stroke-width="1.0"/>
<line x1="59.2" y1="274.3" x2="84.7" y2="282.6" stroke="rgb(0,0,0)"  stroke-width="1.0"/>
<line x1="266.3" y1="240.8" x2="246.2" y2="222.8" stroke="rgb(0,0,0)"  stroke-width="1.0"/>
<line x1="107.5" y1="279.0" x2="129.6" y2="263.0" stroke="rgb(0,0,0)"  stroke-width="1.0"/>
<line x1="129.6" y1="263.0" x2="161.9" y2="286.7" stroke="rgb(0,0,0)"  stroke-width="1.0"/>
<line x1="161.9" y1="286.7" x2="153.6" y2="312.5" stroke="rgb(0,0,0)"  stroke-width="1.0"/>
<line x1="136.6" y1="324.9" x2="109.5" y2="324.9" stroke="rgb(0,0,0)"  stroke-width="1.0"/>
<line x1="109.5" y1="324.9" x2="101.1" y2="299.0" stroke="rgb(0,0,0)"  stroke-width="1.0"/>
<line x1="208.0" y1="235.1" x2="246.2" y2="222.8" stroke="rgb(0,0,0)"  stroke-width="1.0"/>
<line x1="211.5" y1="226.4" x2="238.3" y2="217.8" stroke="rgb(0,0,0)"  stroke-width="1.0"/>
<line x1="246.2" y1="222.8" x2="254.1" y2="183.5" stroke="rgb(0,0,0)"  stroke-width="1.0"/>
<line x1="254.1" y1="183.5" x2="224.4" y2="156.9" stroke="rgb(0,0,0)"  stroke-width="1.0"/>
<line x1="244.8" y1="184.9" x2="224.0" y2="166.2" stroke="rgb(0,0,0)"  stroke-width="1.0"/>
<line x1="224.4" y1="156.9" x2="186.6" y2="169.6" stroke="rgb(0,0,0)"  stroke-width="1.0"/>
<line x1="186.6" y1="169.6" x2="178.3" y2="208.4" stroke="rgb(0,0,0)"  stroke-width="1.0"/>
<line x1="192.4" y1="177.0" x2="186.6" y2="204.0" stroke="rgb(0,0,0)"  stroke-width="1.0"/>
<line x1="178.3" y1="208.4" x2="208.0" y2="235.1" stroke="rgb(0,0,0)"  stroke-width="1.0"/>
<line x1="222.6" y1="109.2" x2="202.5" y2="91.4" stroke="rgb(0,0,0)"  stroke-width="1.0"/>
<line x1="202.5" y1="91.4" x2="210.4" y2="52.3" stroke="rgb(0,0,0)"  stroke-width="1.0"/>
<line x1="210.4" y1="52.3" x2="248.6" y2="40.0" stroke="rgb(0,0,0)"  stroke-width="1.0"/>
<line x1="248.6" y1="40.0" x2="278.8" y2="66.5" stroke="rgb(0,0,0)"  stroke-width="1.0"/>
<line x1="278.8" y1="66.5" x2="270.3" y2="105.3" stroke="rgb(0,0,0)"  stroke-width="1.0"/>
<line x1="270.3" y1="105.3" x2="244.6" y2="113.8" stroke="rgb(0,0,0)"  stroke-width="1.0"/>
<text x="91.010939" y="294.654627" fill="rgb(12,12,255)"  stroke="rgb(12,12,255)" stroke-width="1" font-size="16" >N</text>
<text x="143.575249" y="332.865582" fill="rgb(178,178,0)"  stroke="rgb(178,178,0)" stroke-width="1" font-size="16" >S</text>
<text x="226.267054" y="125.837850" fill="rgb(12,12,255)"  stroke="rgb(12,12,255)" stroke-width="1" font-size="16" >N</text>
<text x="22.000000" y="204.281838" fill="rgb(102,102,102)"  stroke="rgb(102,102,102)" stroke-width="1" font-size="16" >HC</text>
<text x="79.891939" y="365.010306" fill="rgb(255,12,12)"  stroke="rgb(255,12,12)" stroke-width="1" font-size="16" >O</text>
<text x="123.155663" y="230.971317" fill="rgb(255,12,12)"  stroke="rgb(255,12,12)" stroke-width="1" font-size="16" >O</text>
<text x="271.938102" y="257.452285" fill="rgb(102,102,102)"  stroke="rgb(102,102,102)" stroke-width="1" font-size="16" >CH</text>
<text x="295.938102" y="261.132285" fill="rgb(102,102,102)"  stroke="rgb(102,102,102)" stroke-width="1" font-size="13" >3</text>
<text font-size="18.000000" fill ="black" font-family="sans-serif"
x="10.000000" y="20.000000" ></text>
<title> - OBDepict</title>
</svg>
