<?xml version="1.0"?>
<svg xmlns="http://www.w3.org/2000/svg"
xmlns:xlink="http://www.w3.org/1999/xlink" xmlns:cml="http://www.xml-cml.org/schema" width="340.849" height="370.657" x="0" y="0" font-family="sans-serif" stroke="rgb(0,0,0)" stroke-width="1"  stroke-linecap="round">
<rect x="0%" y="0%" width="100%" height="100%" stroke-width="0" fill="rgb(255,255,255)"  />
<line x1="200.5" y1="251.1" x2="162.4" y2="263.4" stroke="rgb(0,0,0)"  stroke-width="1.0"/>
<line x1="198.6" y1="245.4" x2="160.5" y2="257.7" stroke="rgb(0,0,0)"  stroke-width="1.0"/>
<line x1="50.7" y1="209.2" x2="59.1" y2="248.3" stroke="rgb(0,0,0)"  stroke-width="1.0"/>
<line x1="43.5" y1="183.1" x2="50.7" y2="209.2" stroke="rgb(0,0,0)"  stroke-width="1.0"/>
<line x1="47.5" y1="181.9" x2="54.7" y2="208.1" stroke="rgb(0,0,0)"  stroke-width="1.0"/>
<line x1="39.4" y1="184.2" x2="46.6" y2="210.3" stroke="rgb(0,0,0)"  stroke-width="1.0"/>
<line x1="91.0" y1="318.4" x2="106.9" y2="296.9" stroke="rgb(0,0,0)"  stroke-width="1.0"/>
<line x1="95.8" y1="322.0" x2="111.7" y2="300.4" stroke="rgb(0,0,0)"  stroke-width="1.0"/>
<line x1="132.0" y1="210.1" x2="132.2" y2="237.0" stroke="rgb(0,0,0)"  stroke-width="1.0"/>
<line x1="126.0" y1="210.1" x2="126.2" y2="237.0" stroke="rgb(0,0,0)"  stroke-width="1.0"/>
<line x1="207.8" y1="209.2" x2="199.5" y2="248.3" stroke="rgb(0,0,0)"  stroke-width="1.0"/>
<line x1="230.2" y1="104.5" x2="224.9" y2="130.4" stroke="rgb(0,0,0)"  stroke-width="1.0"/>
<line x1="59.1" y1="248.3" x2="84.4" y2="256.5" stroke="rgb(0,0,0)"  stroke-width="1.0"/>
<line x1="166.6" y1="124.9" x2="186.6" y2="143.1" stroke="rgb(0,0,0)"  stroke-width="1.0"/>
<line x1="270.8" y1="79.3" x2="245.1" y2="87.7" stroke="rgb(0,0,0)"  stroke-width="1.0"/>
<line x1="291.1" y1="97.2" x2="270.8" y2="79.3" stroke="rgb(0,0,0)"  stroke-width="1.0"/>
<line x1="276.6" y1="52.7" x2="270.8" y2="79.3" stroke="rgb(0,0,0)"  stroke-width="1.0"/>
<line x1="107.3" y1="252.9" x2="129.2" y2="237.0" stroke="rgb(0,0,0)"  stroke-width="1.0"/>
<line x1="129.2" y1="237.0" x2="161.5" y2="260.6" stroke="rgb(0,0,0)"  stroke-width="1.0"/>
<line x1="161.5" y1="260.6" x2="153.2" y2="286.3" stroke="rgb(0,0,0)"  stroke-width="1.0"/>
<line x1="136.2" y1="298.6" x2="109.3" y2="298.6" stroke="rgb(0,0,0)"  stroke-width="1.0"/>
<line x1="109.3" y1="298.6" x2="100.9" y2="272.9" stroke="rgb(0,0,0)"  stroke-width="1.0"/>
<line x1="186.6" y1="143.1" x2="224.9" y2="130.4" stroke="rgb(0,0,0)"  stroke-width="1.0"/>
<line x1="194.6" y1="148.1" x2="221.5" y2="139.2" stroke="rgb(0,0,0)"  stroke-width="1.0"/>
<line x1="224.9" y1="130.4" x2="254.5" y2="157.2" stroke="rgb(0,0,0)"  stroke-width="1.0"/>
<line x1="254.5" y1="157.2" x2="246.1" y2="196.5" stroke="rgb(0,0,0)"  stroke-width="1.0"/>
<line x1="246.2" y1="161.6" x2="240.3" y2="189.1" stroke="rgb(0,0,0)"  stroke-width="1.0"/>
<line x1="246.1" y1="196.5" x2="207.8" y2="209.2" stroke="rgb(0,0,0)"  stroke-width="1.0"/>
<line x1="207.8" y1="209.2" x2="178.2" y2="182.4" stroke="rgb(0,0,0)"  stroke-width="1.0"/>
<line x1="208.2" y1="199.8" x2="187.5" y2="181.1" stroke="rgb(0,0,0)"  stroke-width="1.0"/>
<line x1="178.2" y1="182.4" x2="186.6" y2="143.1" stroke="rgb(0,0,0)"  stroke-width="1.0"/>
<text x="90.804716" y="268.560808" fill="rgb(12,12,255)"  stroke="rgb(12,12,255)" stroke-width="1" font-size="16" >N</text>
<text x="143.170728" y="306.629728" fill="rgb(178,178,0)"  stroke="rgb(178,178,0)" stroke-width="1" font-size="16" >S</text>
<text x="22.000000" y="178.524095" fill="rgb(102,102,102)"  stroke="rgb(102,102,102)" stroke-width="1" font-size="16" >HC</text>
<text x="79.722527" y="338.657351" fill="rgb(255,12,12)"  stroke="rgb(255,12,12)" stroke-width="1" font-size="16" >O</text>
<text x="122.832338" y="205.112606" fill="rgb(255,12,12)"  stroke="rgb(255,12,12)" stroke-width="1" font-size="16" >O</text>
<text x="226.767922" y="99.763825" fill="rgb(255,12,12)"  stroke="rgb(255,12,12)" stroke-width="1" font-size="16" >O</text>
<text x="139.028301" y="124.137841" fill="rgb(165,40,40)"  stroke="rgb(165,40,40)" stroke-width="1" font-size="16" >Br</text>
<text x="296.849080" y="113.866663" fill="rgb(102,102,102)"  stroke="rgb(102,102,102)" stroke-width="1" font-size="16" >CH</text>
<text x="320.849080" y="117.546663" fill="rgb(102,102,102)"  stroke="rgb(102,102,102)" stroke-width="1" font-size="13" >3</text>
<text x="275.296603" y="48.000000" fill="rgb(102,102,102)"  stroke="rgb(102,102,102)" stroke-width="1" font-size="16" >CH</text>
<text x="299.296603" y="51.680000" fill="rgb(102,102,102)"  stroke="rgb(102,102,102)" stroke-width="1" font-size="13" >3</text>
<text font-size="18.000000" fill ="black" font-family="sans-serif"
x="10.000000" y="20.000000" ></text>
<title> - OBDepict</title>
</svg>
