<?xml version="1.0"?>
<svg xmlns="http://www.w3.org/2000/svg"
xmlns:xlink="http://www.w3.org/1999/xlink" xmlns:cml="http://www.xml-cml.org/schema" width="359.853" height="379.438" x="0" y="0" font-family="sans-serif" stroke="rgb(0,0,0)" stroke-width="1"  stroke-linecap="round">
<rect x="0%" y="0%" width="100%" height="100%" stroke-width="0" fill="rgb(255,255,255)"  />
<line x1="242.4" y1="233.9" x2="242.4" y2="190.8" stroke="rgb(0,0,0)"  stroke-width="1.0"/>
<line x1="248.4" y1="233.9" x2="248.4" y2="190.8" stroke="rgb(0,0,0)"  stroke-width="1.0"/>
<line x1="282.2" y1="83.1" x2="245.4" y2="104.6" stroke="rgb(0,0,0)"  stroke-width="1.0"/>
<line x1="74.4" y1="339.4" x2="102.0" y2="315.9" stroke="rgb(0,0,0)"  stroke-width="1.0"/>
<line x1="52.3" y1="331.9" x2="74.4" y2="339.4" stroke="rgb(0,0,0)"  stroke-width="1.0"/>
<line x1="53.7" y1="327.9" x2="75.7" y2="335.5" stroke="rgb(0,0,0)"  stroke-width="1.0"/>
<line x1="50.9" y1="335.9" x2="73.0" y2="343.4" stroke="rgb(0,0,0)"  stroke-width="1.0"/>
<line x1="180.3" y1="181.7" x2="206.3" y2="166.7" stroke="rgb(0,0,0)"  stroke-width="1.0"/>
<line x1="183.3" y1="186.9" x2="209.3" y2="171.9" stroke="rgb(0,0,0)"  stroke-width="1.0"/>
<line x1="307.1" y1="186.9" x2="281.1" y2="171.9" stroke="rgb(0,0,0)"  stroke-width="1.0"/>
<line x1="310.1" y1="181.7" x2="284.1" y2="166.7" stroke="rgb(0,0,0)"  stroke-width="1.0"/>
<line x1="218.2" y1="257.4" x2="245.4" y2="233.9" stroke="rgb(0,0,0)"  stroke-width="1.0"/>
<line x1="219.1" y1="89.5" x2="245.4" y2="104.6" stroke="rgb(0,0,0)"  stroke-width="1.0"/>
<line x1="102.0" y1="315.9" x2="124.1" y2="323.6" stroke="rgb(0,0,0)"  stroke-width="1.0"/>
<line x1="146.3" y1="319.4" x2="163.8" y2="304.4" stroke="rgb(0,0,0)"  stroke-width="1.0"/>
<line x1="253.0" y1="75.3" x2="282.2" y2="83.1" stroke="rgb(0,0,0)"  stroke-width="1.0"/>
<line x1="282.1" y1="53.0" x2="282.2" y2="83.1" stroke="rgb(0,0,0)"  stroke-width="1.0"/>
<line x1="308.5" y1="97.7" x2="282.2" y2="83.1" stroke="rgb(0,0,0)"  stroke-width="1.0"/>
<line x1="245.4" y1="190.8" x2="207.8" y2="169.3" stroke="rgb(0,0,0)"  stroke-width="1.0"/>
<line x1="207.8" y1="169.3" x2="207.8" y2="139.2" stroke="rgb(0,0,0)"  stroke-width="1.0"/>
<line x1="219.1" y1="119.7" x2="245.4" y2="104.6" stroke="rgb(0,0,0)"  stroke-width="1.0"/>
<line x1="245.4" y1="104.6" x2="271.4" y2="119.7" stroke="rgb(0,0,0)"  stroke-width="1.0"/>
<line x1="282.6" y1="139.2" x2="282.6" y2="169.3" stroke="rgb(0,0,0)"  stroke-width="1.0"/>
<line x1="282.6" y1="169.3" x2="245.4" y2="190.8" stroke="rgb(0,0,0)"  stroke-width="1.0"/>
<line x1="218.2" y1="257.4" x2="184.3" y2="245.4" stroke="rgb(0,0,0)"  stroke-width="1.0"/>
<line x1="210.2" y1="262.2" x2="187.5" y2="254.2" stroke="rgb(0,0,0)"  stroke-width="1.0"/>
<line x1="184.3" y1="245.4" x2="156.9" y2="268.9" stroke="rgb(0,0,0)"  stroke-width="1.0"/>
<line x1="156.9" y1="268.9" x2="163.8" y2="304.4" stroke="rgb(0,0,0)"  stroke-width="1.0"/>
<line x1="165.1" y1="273.4" x2="169.7" y2="297.1" stroke="rgb(0,0,0)"  stroke-width="1.0"/>
<line x1="163.8" y1="304.4" x2="197.8" y2="315.9" stroke="rgb(0,0,0)"  stroke-width="1.0"/>
<line x1="197.8" y1="315.9" x2="224.8" y2="292.4" stroke="rgb(0,0,0)"  stroke-width="1.0"/>
<line x1="197.6" y1="306.6" x2="215.5" y2="290.9" stroke="rgb(0,0,0)"  stroke-width="1.0"/>
<line x1="224.8" y1="292.4" x2="218.2" y2="257.4" stroke="rgb(0,0,0)"  stroke-width="1.0"/>
<text x="276.637016" y="134.176422" fill="rgb(255,12,12)"  stroke="rgb(255,12,12)" stroke-width="1" font-size="16" >O</text>
<text x="201.778673" y="134.176422" fill="rgb(255,12,12)"  stroke="rgb(255,12,12)" stroke-width="1" font-size="16" >O</text>
<text x="22.000000" y="335.689007" fill="rgb(102,102,102)"  stroke="rgb(102,102,102)" stroke-width="1" font-size="16" >HC</text>
<text x="164.567434" y="198.808739" fill="rgb(255,12,12)"  stroke="rgb(255,12,12)" stroke-width="1" font-size="16" >O</text>
<text x="313.853046" y="198.808739" fill="rgb(255,12,12)"  stroke="rgb(255,12,12)" stroke-width="1" font-size="16" >O</text>
<text x="181.778673" y="91.088211" fill="rgb(102,102,102)"  stroke="rgb(102,102,102)" stroke-width="1" font-size="16" >H</text>
<text x="193.778673" y="94.768211" fill="rgb(102,102,102)"  stroke="rgb(102,102,102)" stroke-width="1" font-size="13" >3</text>
<text x="200.278673" y="91.088211" fill="rgb(102,102,102)"  stroke="rgb(102,102,102)" stroke-width="1" font-size="16" >C</text>
<text x="130.402448" y="335.909334" fill="rgb(255,12,12)"  stroke="rgb(255,12,12)" stroke-width="1" font-size="16" >O</text>
<text x="214.425322" y="79.990458" fill="rgb(102,102,102)"  stroke="rgb(102,102,102)" stroke-width="1" font-size="16" >H</text>
<text x="226.425322" y="83.670458" fill="rgb(102,102,102)"  stroke="rgb(102,102,102)" stroke-width="1" font-size="13" >3</text>
<text x="232.925322" y="79.990458" fill="rgb(102,102,102)"  stroke="rgb(102,102,102)" stroke-width="1" font-size="16" >C</text>
<text x="255.985616" y="48.000000" fill="rgb(102,102,102)"  stroke="rgb(102,102,102)" stroke-width="1" font-size="16" >H</text>
<text x="267.985616" y="51.680000" fill="rgb(102,102,102)"  stroke="rgb(102,102,102)" stroke-width="1" font-size="13" >3</text>
<text x="274.485616" y="48.000000" fill="rgb(102,102,102)"  stroke="rgb(102,102,102)" stroke-width="1" font-size="16" >C</text>
<text x="315.853046" y="111.980916" fill="rgb(102,102,102)"  stroke="rgb(102,102,102)" stroke-width="1" font-size="16" >CH</text>
<text x="339.853046" y="115.660916" fill="rgb(102,102,102)"  stroke="rgb(102,102,102)" stroke-width="1" font-size="13" >3</text>
<text font-size="18.000000" fill ="black" font-family="sans-serif"
x="10.000000" y="20.000000" ></text>
<title> - OBDepict</title>
</svg>
