<?xml version="1.0"?>
<svg xmlns="http://www.w3.org/2000/svg"
xmlns:xlink="http://www.w3.org/1999/xlink" xmlns:cml="http://www.xml-cml.org/schema" width="431.413" height="286.322" x="0" y="0" font-family="sans-serif" stroke="rgb(0,0,0)" stroke-width="1"  stroke-linecap="round">
<rect x="0%" y="0%" width="100%" height="100%" stroke-width="0" fill="rgb(255,255,255)"  />
<line x1="322.1" y1="120.0" x2="322.1" y2="147.0" stroke="rgb(0,0,0)"  stroke-width="1.0"/>
<line x1="263.9" y1="175.2" x2="289.8" y2="183.7" stroke="rgb(0,0,0)"  stroke-width="1.0"/>
<line x1="78.0" y1="187.7" x2="116.2" y2="200.0" stroke="rgb(0,0,0)"  stroke-width="1.0"/>
<line x1="52.4" y1="179.4" x2="78.0" y2="187.7" stroke="rgb(0,0,0)"  stroke-width="1.0"/>
<line x1="53.7" y1="175.4" x2="79.3" y2="183.7" stroke="rgb(0,0,0)"  stroke-width="1.0"/>
<line x1="51.1" y1="183.4" x2="76.7" y2="191.7" stroke="rgb(0,0,0)"  stroke-width="1.0"/>
<line x1="183.9" y1="185.7" x2="221.9" y2="198.0" stroke="rgb(0,0,0)"  stroke-width="1.0"/>
<line x1="163.8" y1="203.7" x2="183.9" y2="185.7" stroke="rgb(0,0,0)"  stroke-width="1.0"/>
<line x1="116.2" y1="200.0" x2="141.8" y2="208.4" stroke="rgb(0,0,0)"  stroke-width="1.0"/>
<line x1="181.2" y1="158.6" x2="186.8" y2="185.1" stroke="rgb(0,0,0)"  stroke-width="1.0"/>
<line x1="175.3" y1="159.8" x2="180.9" y2="186.3" stroke="rgb(0,0,0)"  stroke-width="1.0"/>
<line x1="221.9" y1="198.0" x2="241.9" y2="179.9" stroke="rgb(0,0,0)"  stroke-width="1.0"/>
<line x1="103.7" y1="238.0" x2="116.2" y2="200.0" stroke="rgb(0,0,0)"  stroke-width="1.0"/>
<line x1="128.5" y1="162.1" x2="116.2" y2="200.0" stroke="rgb(0,0,0)"  stroke-width="1.0"/>
<line x1="380.1" y1="113.5" x2="356.7" y2="100.0" stroke="rgb(0,0,0)"  stroke-width="1.0"/>
<line x1="264.0" y1="113.5" x2="287.3" y2="100.0" stroke="rgb(0,0,0)"  stroke-width="1.0"/>
<line x1="77.4" y1="243.6" x2="103.7" y2="238.0" stroke="rgb(0,0,0)"  stroke-width="1.0"/>
<line x1="154.8" y1="156.5" x2="128.5" y2="162.1" stroke="rgb(0,0,0)"  stroke-width="1.0"/>
<line x1="332.6" y1="167.7" x2="343.9" y2="176.0" stroke="rgb(0,0,0)"  stroke-width="1.0"/>
<line x1="350.4" y1="196.2" x2="346.2" y2="209.1" stroke="rgb(0,0,0)"  stroke-width="1.0"/>
<line x1="342.9" y1="195.9" x2="339.9" y2="205.0" stroke="rgb(0,0,0)"  stroke-width="1.0"/>
<line x1="329.1" y1="221.7" x2="315.1" y2="221.7" stroke="rgb(0,0,0)"  stroke-width="1.0"/>
<line x1="298.0" y1="209.1" x2="289.8" y2="183.7" stroke="rgb(0,0,0)"  stroke-width="1.0"/>
<line x1="304.3" y1="205.0" x2="298.5" y2="187.2" stroke="rgb(0,0,0)"  stroke-width="1.0"/>
<line x1="289.8" y1="183.7" x2="311.6" y2="167.7" stroke="rgb(0,0,0)"  stroke-width="1.0"/>
<line x1="322.1" y1="120.0" x2="356.7" y2="100.0" stroke="rgb(0,0,0)"  stroke-width="1.0"/>
<line x1="356.7" y1="100.0" x2="356.7" y2="60.0" stroke="rgb(0,0,0)"  stroke-width="1.0"/>
<line x1="349.5" y1="94.0" x2="349.5" y2="66.0" stroke="rgb(0,0,0)"  stroke-width="1.0"/>
<line x1="356.7" y1="60.0" x2="322.1" y2="40.0" stroke="rgb(0,0,0)"  stroke-width="1.0"/>
<line x1="322.1" y1="40.0" x2="287.3" y2="60.0" stroke="rgb(0,0,0)"  stroke-width="1.0"/>
<line x1="320.5" y1="49.2" x2="296.1" y2="63.3" stroke="rgb(0,0,0)"  stroke-width="1.0"/>
<line x1="287.3" y1="60.0" x2="287.3" y2="100.0" stroke="rgb(0,0,0)"  stroke-width="1.0"/>
<line x1="287.3" y1="100.0" x2="322.1" y2="120.0" stroke="rgb(0,0,0)"  stroke-width="1.0"/>
<line x1="296.1" y1="96.8" x2="320.5" y2="110.8" stroke="rgb(0,0,0)"  stroke-width="1.0"/>
<text x="316.096441" y="168.031150" fill="rgb(12,12,255)"  stroke="rgb(12,12,255)" stroke-width="1" font-size="16" >N</text>
<text x="296.091250" y="229.663795" fill="rgb(12,12,255)"  stroke="rgb(12,12,255)" stroke-width="1" font-size="16" >N</text>
<text x="348.428162" y="191.677170" fill="rgb(12,12,255)"  stroke="rgb(12,12,255)" stroke-width="1" font-size="16" >N</text>
<text x="336.101633" y="229.663795" fill="rgb(12,12,255)"  stroke="rgb(12,12,255)" stroke-width="1" font-size="16" >N</text>
<text x="245.574752" y="179.147297" fill="rgb(178,178,0)"  stroke="rgb(178,178,0)" stroke-width="1" font-size="16" >S</text>
<text x="22.000000" y="183.393316" fill="rgb(102,102,102)"  stroke="rgb(102,102,102)" stroke-width="1" font-size="16" >HC</text>
<text x="148.168060" y="220.372904" fill="rgb(12,12,255)"  stroke="rgb(12,12,255)" stroke-width="1" font-size="16" >N</text>
<text x="148.168060" y="236.372904" fill="rgb(12,12,255)"  stroke="rgb(12,12,255)" stroke-width="1" font-size="16" >H</text>
<text x="169.591819" y="154.494239" fill="rgb(255,12,12)"  stroke="rgb(255,12,12)" stroke-width="1" font-size="16" >O</text>
<text x="387.412590" y="128.020766" fill="rgb(102,102,102)"  stroke="rgb(102,102,102)" stroke-width="1" font-size="16" >CH</text>
<text x="411.412590" y="131.700766" fill="rgb(102,102,102)"  stroke="rgb(102,102,102)" stroke-width="1" font-size="13" >3</text>
<text x="226.785134" y="128.020766" fill="rgb(102,102,102)"  stroke="rgb(102,102,102)" stroke-width="1" font-size="16" >H</text>
<text x="238.785134" y="131.700766" fill="rgb(102,102,102)"  stroke="rgb(102,102,102)" stroke-width="1" font-size="13" >3</text>
<text x="245.285134" y="128.020766" fill="rgb(102,102,102)"  stroke="rgb(102,102,102)" stroke-width="1" font-size="16" >C</text>
<text x="38.648216" y="254.321694" fill="rgb(102,102,102)"  stroke="rgb(102,102,102)" stroke-width="1" font-size="16" >H</text>
<text x="50.648216" y="258.001694" fill="rgb(102,102,102)"  stroke="rgb(102,102,102)" stroke-width="1" font-size="13" >3</text>
<text x="57.148216" y="254.321694" fill="rgb(102,102,102)"  stroke="rgb(102,102,102)" stroke-width="1" font-size="16" >C</text>
<text x="163.506468" y="161.766213" fill="rgb(102,102,102)"  stroke="rgb(102,102,102)" stroke-width="1" font-size="16" >CH</text>
<text x="187.506468" y="165.446213" fill="rgb(102,102,102)"  stroke="rgb(102,102,102)" stroke-width="1" font-size="13" >3</text>
<text font-size="18.000000" fill ="black" font-family="sans-serif"
x="10.000000" y="20.000000" ></text>
<title> - OBDepict</title>
</svg>
