<?xml version="1.0"?>
<svg xmlns="http://www.w3.org/2000/svg"
xmlns:xlink="http://www.w3.org/1999/xlink" xmlns:cml="http://www.xml-cml.org/schema" width="772.914" height="224.816" x="0" y="0" font-family="sans-serif" stroke="rgb(0,0,0)" stroke-width="1"  stroke-linecap="round">
<rect x="0%" y="0%" width="100%" height="100%" stroke-width="0" fill="rgb(255,255,255)"  />
<line x1="247.8" y1="120.4" x2="281.8" y2="101.2" stroke="rgb(0,0,0)"  stroke-width="1.0"/>
<line x1="224.3" y1="106.6" x2="247.8" y2="120.4" stroke="rgb(0,0,0)"  stroke-width="1.0"/>
<line x1="532.1" y1="118.1" x2="555.8" y2="106.4" stroke="rgb(0,0,0)"  stroke-width="1.0"/>
<line x1="693.9" y1="105.6" x2="660.4" y2="128.0" stroke="rgb(0,0,0)"  stroke-width="1.0"/>
<line x1="75.0" y1="97.4" x2="109.9" y2="117.5" stroke="rgb(0,0,0)"  stroke-width="1.0"/>
<line x1="589.0" y1="124.5" x2="555.8" y2="106.4" stroke="rgb(0,0,0)"  stroke-width="1.0"/>
<line x1="721.8" y1="122.2" x2="693.9" y2="105.6" stroke="rgb(0,0,0)"  stroke-width="1.0"/>
<line x1="719.6" y1="125.8" x2="691.7" y2="109.2" stroke="rgb(0,0,0)"  stroke-width="1.0"/>
<line x1="723.9" y1="118.6" x2="696.0" y2="102.0" stroke="rgb(0,0,0)"  stroke-width="1.0"/>
<line x1="51.1" y1="111.7" x2="75.0" y2="97.4" stroke="rgb(0,0,0)"  stroke-width="1.0"/>
<line x1="49.0" y1="108.1" x2="72.8" y2="93.8" stroke="rgb(0,0,0)"  stroke-width="1.0"/>
<line x1="53.3" y1="115.3" x2="77.1" y2="101.0" stroke="rgb(0,0,0)"  stroke-width="1.0"/>
<line x1="558.8" y1="79.2" x2="558.8" y2="106.4" stroke="rgb(0,0,0)"  stroke-width="1.0"/>
<line x1="552.8" y1="79.2" x2="552.8" y2="106.4" stroke="rgb(0,0,0)"  stroke-width="1.0"/>
<line x1="244.8" y1="147.3" x2="244.8" y2="120.4" stroke="rgb(0,0,0)"  stroke-width="1.0"/>
<line x1="250.8" y1="147.3" x2="250.8" y2="120.4" stroke="rgb(0,0,0)"  stroke-width="1.0"/>
<line x1="179.0" y1="118.7" x2="201.7" y2="106.3" stroke="rgb(0,0,0)"  stroke-width="1.0"/>
<line x1="396.9" y1="47.3" x2="420.3" y2="58.9" stroke="rgb(0,0,0)"  stroke-width="1.0"/>
<line x1="488.1" y1="101.2" x2="509.9" y2="116.4" stroke="rgb(0,0,0)"  stroke-width="1.0"/>
<line x1="351.2" y1="61.0" x2="374.0" y2="47.9" stroke="rgb(0,0,0)"  stroke-width="1.0"/>
<line x1="281.8" y1="61.0" x2="281.8" y2="101.2" stroke="rgb(0,0,0)"  stroke-width="1.0"/>
<line x1="281.8" y1="101.2" x2="316.8" y2="121.0" stroke="rgb(0,0,0)"  stroke-width="1.0"/>
<line x1="290.6" y1="97.9" x2="315.1" y2="111.8" stroke="rgb(0,0,0)"  stroke-width="1.0"/>
<line x1="316.8" y1="121.0" x2="351.2" y2="101.2" stroke="rgb(0,0,0)"  stroke-width="1.0"/>
<line x1="351.2" y1="101.2" x2="351.2" y2="61.0" stroke="rgb(0,0,0)"  stroke-width="1.0"/>
<line x1="344.0" y1="95.2" x2="344.0" y2="67.0" stroke="rgb(0,0,0)"  stroke-width="1.0"/>
<line x1="351.2" y1="61.0" x2="316.8" y2="40.0" stroke="rgb(0,0,0)"  stroke-width="1.0"/>
<line x1="316.8" y1="40.0" x2="281.8" y2="61.0" stroke="rgb(0,0,0)"  stroke-width="1.0"/>
<line x1="315.4" y1="49.3" x2="290.7" y2="64.1" stroke="rgb(0,0,0)"  stroke-width="1.0"/>
<line x1="488.1" y1="101.2" x2="488.1" y2="60.1" stroke="rgb(0,0,0)"  stroke-width="1.0"/>
<line x1="480.9" y1="95.2" x2="480.9" y2="66.1" stroke="rgb(0,0,0)"  stroke-width="1.0"/>
<line x1="488.1" y1="60.1" x2="454.1" y2="40.0" stroke="rgb(0,0,0)"  stroke-width="1.0"/>
<line x1="454.1" y1="40.0" x2="420.3" y2="58.9" stroke="rgb(0,0,0)"  stroke-width="1.0"/>
<line x1="452.3" y1="49.2" x2="429.0" y2="62.3" stroke="rgb(0,0,0)"  stroke-width="1.0"/>
<line x1="420.3" y1="58.9" x2="420.3" y2="97.4" stroke="rgb(0,0,0)"  stroke-width="1.0"/>
<line x1="420.3" y1="97.4" x2="452.6" y2="118.7" stroke="rgb(0,0,0)"  stroke-width="1.0"/>
<line x1="429.2" y1="94.7" x2="451.5" y2="109.4" stroke="rgb(0,0,0)"  stroke-width="1.0"/>
<line x1="452.6" y1="118.7" x2="488.1" y2="101.2" stroke="rgb(0,0,0)"  stroke-width="1.0"/>
<line x1="589.0" y1="124.5" x2="624.5" y2="103.5" stroke="rgb(0,0,0)"  stroke-width="1.0"/>
<line x1="597.8" y1="127.7" x2="623.0" y2="112.8" stroke="rgb(0,0,0)"  stroke-width="1.0"/>
<line x1="624.5" y1="103.5" x2="660.4" y2="128.0" stroke="rgb(0,0,0)"  stroke-width="1.0"/>
<line x1="660.4" y1="128.0" x2="660.4" y2="166.5" stroke="rgb(0,0,0)"  stroke-width="1.0"/>
<line x1="653.2" y1="134.0" x2="653.2" y2="160.5" stroke="rgb(0,0,0)"  stroke-width="1.0"/>
<line x1="660.4" y1="166.5" x2="624.5" y2="184.8" stroke="rgb(0,0,0)"  stroke-width="1.0"/>
<line x1="624.5" y1="184.8" x2="589.0" y2="163.8" stroke="rgb(0,0,0)"  stroke-width="1.0"/>
<line x1="623.0" y1="175.6" x2="597.8" y2="160.7" stroke="rgb(0,0,0)"  stroke-width="1.0"/>
<line x1="589.0" y1="163.8" x2="589.0" y2="124.5" stroke="rgb(0,0,0)"  stroke-width="1.0"/>
<line x1="179.0" y1="118.7" x2="145.5" y2="98.6" stroke="rgb(0,0,0)"  stroke-width="1.0"/>
<line x1="170.1" y1="121.8" x2="146.9" y2="107.8" stroke="rgb(0,0,0)"  stroke-width="1.0"/>
<line x1="145.5" y1="98.6" x2="109.9" y2="117.5" stroke="rgb(0,0,0)"  stroke-width="1.0"/>
<line x1="109.9" y1="117.5" x2="109.9" y2="158.0" stroke="rgb(0,0,0)"  stroke-width="1.0"/>
<line x1="117.1" y1="123.5" x2="117.1" y2="152.0" stroke="rgb(0,0,0)"  stroke-width="1.0"/>
<line x1="109.9" y1="158.0" x2="144.0" y2="177.8" stroke="rgb(0,0,0)"  stroke-width="1.0"/>
<line x1="144.0" y1="177.8" x2="178.1" y2="158.0" stroke="rgb(0,0,0)"  stroke-width="1.0"/>
<line x1="145.6" y1="168.6" x2="169.3" y2="154.8" stroke="rgb(0,0,0)"  stroke-width="1.0"/>
<line x1="178.1" y1="158.0" x2="179.0" y2="118.7" stroke="rgb(0,0,0)"  stroke-width="1.0"/>
<text x="207.084850" y="108.025091" fill="rgb(12,12,255)"  stroke="rgb(12,12,255)" stroke-width="1" font-size="16" >N</text>
<text x="207.084850" y="92.025091" fill="rgb(12,12,255)"  stroke="rgb(12,12,255)" stroke-width="1" font-size="16" >H</text>
<text x="514.493014" y="131.919189" fill="rgb(12,12,255)"  stroke="rgb(12,12,255)" stroke-width="1" font-size="16" >N</text>
<text x="514.493014" y="147.919189" fill="rgb(12,12,255)"  stroke="rgb(12,12,255)" stroke-width="1" font-size="16" >H</text>
<text x="726.914223" y="136.873378" fill="rgb(102,102,102)"  stroke="rgb(102,102,102)" stroke-width="1" font-size="16" >CH</text>
<text x="22.000000" y="126.380435" fill="rgb(102,102,102)"  stroke="rgb(102,102,102)" stroke-width="1" font-size="16" >HC</text>
<text x="549.752032" y="74.227487" fill="rgb(255,12,12)"  stroke="rgb(255,12,12)" stroke-width="1" font-size="16" >O</text>
<text x="241.754431" y="168.342465" fill="rgb(255,12,12)"  stroke="rgb(255,12,12)" stroke-width="1" font-size="16" >O</text>
<text x="379.292853" y="49.456541" fill="rgb(255,12,12)"  stroke="rgb(255,12,12)" stroke-width="1" font-size="16" >O</text>
<text font-size="18.000000" fill ="black" font-family="sans-serif"
x="10.000000" y="20.000000" ></text>
<title> - OBDepict</title>
</svg>
