<?xml version="1.0"?>
<svg xmlns="http://www.w3.org/2000/svg"
xmlns:xlink="http://www.w3.org/1999/xlink" xmlns:cml="http://www.xml-cml.org/schema" width="441.763" height="366.586" x="0" y="0" font-family="sans-serif" stroke="rgb(0,0,0)" stroke-width="1"  stroke-linecap="round">
<rect x="0%" y="0%" width="100%" height="100%" stroke-width="0" fill="rgb(255,255,255)"  />
<line x1="151.6" y1="174.2" x2="196.3" y2="144.5" stroke="rgb(0,0,0)"  stroke-width="1.0"/>
<line x1="151.6" y1="174.2" x2="142.6" y2="142.2" stroke="rgb(0,0,0)"  stroke-width="1.0"/>
<line x1="170.9" y1="206.0" x2="197.0" y2="209.9" stroke="rgb(0,0,0)"  stroke-width="1.0"/>
<line x1="170.0" y1="212.0" x2="196.1" y2="215.9" stroke="rgb(0,0,0)"  stroke-width="1.0"/>
<line x1="196.3" y1="144.5" x2="234.2" y2="164.3" stroke="rgb(0,0,0)"  stroke-width="1.0"/>
<line x1="145.1" y1="250.1" x2="149.6" y2="276.0" stroke="rgb(0,0,0)"  stroke-width="1.0"/>
<line x1="234.2" y1="164.3" x2="267.2" y2="142.7" stroke="rgb(0,0,0)"  stroke-width="1.0"/>
<line x1="237.2" y1="164.1" x2="238.1" y2="183.9" stroke="rgb(0,0,0)"  stroke-width="1.0"/>
<line x1="231.2" y1="164.4" x2="232.1" y2="184.2" stroke="rgb(0,0,0)"  stroke-width="1.0"/>
<line x1="149.6" y1="276.0" x2="119.5" y2="301.6" stroke="rgb(0,0,0)"  stroke-width="1.0"/>
<line x1="119.5" y1="301.6" x2="99.3" y2="318.3" stroke="rgb(0,0,0)"  stroke-width="1.0"/>
<line x1="122.2" y1="304.8" x2="102.0" y2="321.5" stroke="rgb(0,0,0)"  stroke-width="1.0"/>
<line x1="116.9" y1="298.4" x2="96.6" y2="315.1" stroke="rgb(0,0,0)"  stroke-width="1.0"/>
<line x1="333.5" y1="100.5" x2="367.0" y2="79.1" stroke="rgb(0,0,0)"  stroke-width="1.0"/>
<line x1="367.0" y1="79.1" x2="343.6" y2="67.3" stroke="rgb(0,0,0)"  stroke-width="1.0"/>
<line x1="367.0" y1="79.1" x2="365.7" y2="53.0" stroke="rgb(0,0,0)"  stroke-width="1.0"/>
<line x1="367.0" y1="79.1" x2="390.3" y2="91.4" stroke="rgb(0,0,0)"  stroke-width="1.0"/>
<line x1="112.8" y1="181.3" x2="151.6" y2="174.2" stroke="rgb(0,0,0)"  stroke-width="1.0"/>
<line x1="151.6" y1="174.2" x2="170.4" y2="209.0" stroke="rgb(0,0,0)"  stroke-width="1.0"/>
<line x1="170.4" y1="209.0" x2="152.0" y2="228.0" stroke="rgb(0,0,0)"  stroke-width="1.0"/>
<line x1="131.2" y1="231.6" x2="107.6" y2="220.2" stroke="rgb(0,0,0)"  stroke-width="1.0"/>
<line x1="107.6" y1="220.2" x2="112.8" y2="181.3" stroke="rgb(0,0,0)"  stroke-width="1.0"/>
<line x1="115.5" y1="215.3" x2="119.2" y2="188.2" stroke="rgb(0,0,0)"  stroke-width="1.0"/>
<line x1="112.8" y1="181.3" x2="82.0" y2="156.5" stroke="rgb(0,0,0)"  stroke-width="1.0"/>
<line x1="82.0" y1="156.5" x2="45.6" y2="171.3" stroke="rgb(0,0,0)"  stroke-width="1.0"/>
<line x1="79.2" y1="165.4" x2="53.9" y2="175.7" stroke="rgb(0,0,0)"  stroke-width="1.0"/>
<line x1="45.6" y1="171.3" x2="40.0" y2="210.5" stroke="rgb(0,0,0)"  stroke-width="1.0"/>
<line x1="40.0" y1="210.5" x2="70.8" y2="234.7" stroke="rgb(0,0,0)"  stroke-width="1.0"/>
<line x1="49.2" y1="208.5" x2="70.5" y2="225.4" stroke="rgb(0,0,0)"  stroke-width="1.0"/>
<line x1="70.8" y1="234.7" x2="107.6" y2="220.2" stroke="rgb(0,0,0)"  stroke-width="1.0"/>
<line x1="267.2" y1="142.7" x2="301.9" y2="161.2" stroke="rgb(0,0,0)"  stroke-width="1.0"/>
<line x1="301.9" y1="161.2" x2="335.5" y2="139.8" stroke="rgb(0,0,0)"  stroke-width="1.0"/>
<line x1="303.1" y1="151.9" x2="326.5" y2="137.0" stroke="rgb(0,0,0)"  stroke-width="1.0"/>
<line x1="335.5" y1="139.8" x2="333.5" y2="100.5" stroke="rgb(0,0,0)"  stroke-width="1.0"/>
<line x1="333.5" y1="100.5" x2="298.7" y2="82.4" stroke="rgb(0,0,0)"  stroke-width="1.0"/>
<line x1="324.8" y1="104.1" x2="300.7" y2="91.5" stroke="rgb(0,0,0)"  stroke-width="1.0"/>
<line x1="298.7" y1="82.4" x2="265.7" y2="103.4" stroke="rgb(0,0,0)"  stroke-width="1.0"/>
<line x1="265.7" y1="103.4" x2="267.2" y2="142.7" stroke="rgb(0,0,0)"  stroke-width="1.0"/>
<line x1="273.1" y1="109.1" x2="274.1" y2="136.5" stroke="rgb(0,0,0)"  stroke-width="1.0"/>
<text x="121.089798" y="137.675862" fill="rgb(255,12,12)"  stroke="rgb(255,12,12)" stroke-width="1" font-size="16" >HO</text>
<text x="136.899292" y="245.277348" fill="rgb(12,12,255)"  stroke="rgb(12,12,255)" stroke-width="1" font-size="16" >N</text>
<text x="203.379252" y="222.816612" fill="rgb(255,12,12)"  stroke="rgb(255,12,12)" stroke-width="1" font-size="16" >O</text>
<text x="229.649482" y="205.058070" fill="rgb(255,12,12)"  stroke="rgb(255,12,12)" stroke-width="1" font-size="16" >O</text>
<text x="71.275179" y="334.585627" fill="rgb(102,102,102)"  stroke="rgb(102,102,102)" stroke-width="1" font-size="16" >HC</text>
<text x="306.022987" y="69.377083" fill="rgb(102,102,102)"  stroke="rgb(102,102,102)" stroke-width="1" font-size="16" >H</text>
<text x="318.022987" y="73.057083" fill="rgb(102,102,102)"  stroke="rgb(102,102,102)" stroke-width="1" font-size="13" >3</text>
<text x="324.522987" y="69.377083" fill="rgb(102,102,102)"  stroke="rgb(102,102,102)" stroke-width="1" font-size="16" >C</text>
<text x="338.990861" y="48.000000" fill="rgb(102,102,102)"  stroke="rgb(102,102,102)" stroke-width="1" font-size="16" >H</text>
<text x="350.990861" y="51.680000" fill="rgb(102,102,102)"  stroke="rgb(102,102,102)" stroke-width="1" font-size="13" >3</text>
<text x="357.490861" y="48.000000" fill="rgb(102,102,102)"  stroke="rgb(102,102,102)" stroke-width="1" font-size="16" >C</text>
<text x="397.763454" y="105.428832" fill="rgb(102,102,102)"  stroke="rgb(102,102,102)" stroke-width="1" font-size="16" >CH</text>
<text x="421.763454" y="109.108832" fill="rgb(102,102,102)"  stroke="rgb(102,102,102)" stroke-width="1" font-size="13" >3</text>
<text font-size="18.000000" fill ="black" font-family="sans-serif"
x="10.000000" y="20.000000" ></text>
<title> - OBDepict</title>
</svg>
