<?xml version="1.0"?>
<svg xmlns="http://www.w3.org/2000/svg"
xmlns:xlink="http://www.w3.org/1999/xlink" xmlns:cml="http://www.xml-cml.org/schema" width="342.87" height="365.904" x="0" y="0" font-family="sans-serif" stroke="rgb(0,0,0)" stroke-width="1"  stroke-linecap="round">
<rect x="0%" y="0%" width="100%" height="100%" stroke-width="0" fill="rgb(255,255,255)"  />
<line x1="189.3" y1="168.3" x2="165.0" y2="182.4" stroke="rgb(0,0,0)"  stroke-width="1.0"/>
<line x1="186.3" y1="163.1" x2="162.0" y2="177.2" stroke="rgb(0,0,0)"  stroke-width="1.0"/>
<line x1="198.6" y1="119.6" x2="198.9" y2="146.2" stroke="rgb(0,0,0)"  stroke-width="1.0"/>
<line x1="179.2" y1="286.5" x2="188.3" y2="247.5" stroke="rgb(0,0,0)"  stroke-width="1.0"/>
<line x1="173.0" y1="313.2" x2="179.2" y2="286.5" stroke="rgb(0,0,0)"  stroke-width="1.0"/>
<line x1="169.0" y1="312.3" x2="175.1" y2="285.6" stroke="rgb(0,0,0)"  stroke-width="1.0"/>
<line x1="177.1" y1="314.2" x2="183.3" y2="287.4" stroke="rgb(0,0,0)"  stroke-width="1.0"/>
<line x1="176.8" y1="103.5" x2="200.1" y2="117.0" stroke="rgb(0,0,0)"  stroke-width="1.0"/>
<line x1="173.8" y1="108.7" x2="197.1" y2="122.2" stroke="rgb(0,0,0)"  stroke-width="1.0"/>
<line x1="233.2" y1="99.6" x2="198.6" y2="119.6" stroke="rgb(0,0,0)"  stroke-width="1.0"/>
<line x1="188.3" y1="247.5" x2="168.5" y2="228.8" stroke="rgb(0,0,0)"  stroke-width="1.0"/>
<line x1="111.9" y1="285.1" x2="99.0" y2="261.0" stroke="rgb(0,0,0)"  stroke-width="1.0"/>
<line x1="163.5" y1="179.8" x2="140.1" y2="168.8" stroke="rgb(0,0,0)"  stroke-width="1.0"/>
<line x1="119.2" y1="172.6" x2="100.4" y2="191.9" stroke="rgb(0,0,0)"  stroke-width="1.0"/>
<line x1="100.4" y1="191.9" x2="119.8" y2="227.1" stroke="rgb(0,0,0)"  stroke-width="1.0"/>
<line x1="109.6" y1="193.7" x2="123.2" y2="218.4" stroke="rgb(0,0,0)"  stroke-width="1.0"/>
<line x1="119.8" y1="227.1" x2="146.2" y2="222.2" stroke="rgb(0,0,0)"  stroke-width="1.0"/>
<line x1="160.4" y1="206.9" x2="163.5" y2="179.8" stroke="rgb(0,0,0)"  stroke-width="1.0"/>
<line x1="233.2" y1="99.6" x2="233.2" y2="60.0" stroke="rgb(0,0,0)"  stroke-width="1.0"/>
<line x1="233.2" y1="60.0" x2="268.1" y2="40.0" stroke="rgb(0,0,0)"  stroke-width="1.0"/>
<line x1="241.9" y1="63.3" x2="266.5" y2="49.2" stroke="rgb(0,0,0)"  stroke-width="1.0"/>
<line x1="268.1" y1="40.0" x2="302.7" y2="60.0" stroke="rgb(0,0,0)"  stroke-width="1.0"/>
<line x1="302.7" y1="60.0" x2="302.9" y2="100.0" stroke="rgb(0,0,0)"  stroke-width="1.0"/>
<line x1="295.5" y1="66.0" x2="295.6" y2="94.0" stroke="rgb(0,0,0)"  stroke-width="1.0"/>
<line x1="302.9" y1="100.0" x2="268.1" y2="119.6" stroke="rgb(0,0,0)"  stroke-width="1.0"/>
<line x1="268.1" y1="119.6" x2="233.2" y2="99.6" stroke="rgb(0,0,0)"  stroke-width="1.0"/>
<line x1="266.5" y1="110.4" x2="241.9" y2="96.3" stroke="rgb(0,0,0)"  stroke-width="1.0"/>
<line x1="99.0" y1="261.0" x2="60.0" y2="260.4" stroke="rgb(0,0,0)"  stroke-width="1.0"/>
<line x1="93.1" y1="253.8" x2="66.1" y2="253.3" stroke="rgb(0,0,0)"  stroke-width="1.0"/>
<line x1="60.0" y1="260.4" x2="40.0" y2="225.1" stroke="rgb(0,0,0)"  stroke-width="1.0"/>
<line x1="40.0" y1="225.1" x2="60.8" y2="190.7" stroke="rgb(0,0,0)"  stroke-width="1.0"/>
<line x1="49.3" y1="223.7" x2="63.9" y2="199.6" stroke="rgb(0,0,0)"  stroke-width="1.0"/>
<line x1="60.8" y1="190.7" x2="100.4" y2="191.9" stroke="rgb(0,0,0)"  stroke-width="1.0"/>
<line x1="119.8" y1="227.1" x2="99.0" y2="261.0" stroke="rgb(0,0,0)"  stroke-width="1.0"/>
<text x="193.014965" y="167.212732" fill="rgb(12,12,255)"  stroke="rgb(12,12,255)" stroke-width="1" font-size="16" >N</text>
<text x="153.009065" y="227.827731" fill="rgb(12,12,255)"  stroke="rgb(12,12,255)" stroke-width="1" font-size="16" >N</text>
<text x="122.299082" y="171.252115" fill="rgb(178,178,0)"  stroke="rgb(178,178,0)" stroke-width="1" font-size="16" >S</text>
<text x="152.123432" y="333.903980" fill="rgb(102,102,102)"  stroke="rgb(102,102,102)" stroke-width="1" font-size="16" >HC</text>
<text x="158.061932" y="107.606366" fill="rgb(255,12,12)"  stroke="rgb(255,12,12)" stroke-width="1" font-size="16" >O</text>
<text x="113.994532" y="304.605114" fill="rgb(102,102,102)"  stroke="rgb(102,102,102)" stroke-width="1" font-size="16" >CH</text>
<text x="137.994532" y="308.285114" fill="rgb(102,102,102)"  stroke="rgb(102,102,102)" stroke-width="1" font-size="13" >3</text>
<text font-size="18.000000" fill ="black" font-family="sans-serif"
x="10.000000" y="20.000000" ></text>
<title> - OBDepict</title>
</svg>
