<?xml version="1.0"?>
<svg xmlns="http://www.w3.org/2000/svg"
xmlns:xlink="http://www.w3.org/1999/xlink" xmlns:cml="http://www.xml-cml.org/schema" width="357.807" height="305.254" x="0" y="0" font-family="sans-serif" stroke="rgb(0,0,0)" stroke-width="1"  stroke-linecap="round">
<rect x="0%" y="0%" width="100%" height="100%" stroke-width="0" fill="rgb(255,255,255)"  />
<line x1="181.1" y1="200.2" x2="181.1" y2="227.9" stroke="rgb(0,0,0)"  stroke-width="1.0"/>
<line x1="175.1" y1="200.2" x2="175.1" y2="227.9" stroke="rgb(0,0,0)"  stroke-width="1.0"/>
<line x1="223.7" y1="187.0" x2="246.9" y2="200.2" stroke="rgb(0,0,0)"  stroke-width="1.0"/>
<line x1="212.3" y1="140.1" x2="235.7" y2="126.4" stroke="rgb(0,0,0)"  stroke-width="1.0"/>
<line x1="246.9" y1="106.9" x2="246.9" y2="80.7" stroke="rgb(0,0,0)"  stroke-width="1.0"/>
<line x1="246.9" y1="80.7" x2="281.9" y2="61.2" stroke="rgb(0,0,0)"  stroke-width="1.0"/>
<line x1="281.9" y1="61.2" x2="306.6" y2="46.6" stroke="rgb(0,0,0)"  stroke-width="1.0"/>
<line x1="279.8" y1="57.6" x2="304.5" y2="43.0" stroke="rgb(0,0,0)"  stroke-width="1.0"/>
<line x1="284.0" y1="64.8" x2="308.8" y2="50.2" stroke="rgb(0,0,0)"  stroke-width="1.0"/>
<line x1="109.3" y1="200.2" x2="148.5" y2="209.2" stroke="rgb(0,0,0)"  stroke-width="1.0"/>
<line x1="148.5" y1="209.2" x2="151.6" y2="248.8" stroke="rgb(0,0,0)"  stroke-width="1.0"/>
<line x1="151.6" y1="248.8" x2="115.4" y2="265.3" stroke="rgb(0,0,0)"  stroke-width="1.0"/>
<line x1="115.4" y1="265.3" x2="89.1" y2="235.7" stroke="rgb(0,0,0)"  stroke-width="1.0"/>
<line x1="89.1" y1="235.7" x2="109.3" y2="200.2" stroke="rgb(0,0,0)"  stroke-width="1.0"/>
<line x1="246.9" y1="200.2" x2="246.9" y2="240.9" stroke="rgb(0,0,0)"  stroke-width="1.0"/>
<line x1="246.9" y1="240.9" x2="285.5" y2="253.6" stroke="rgb(0,0,0)"  stroke-width="1.0"/>
<line x1="285.5" y1="253.6" x2="307.9" y2="220.2" stroke="rgb(0,0,0)"  stroke-width="1.0"/>
<line x1="307.9" y1="220.2" x2="285.5" y2="187.8" stroke="rgb(0,0,0)"  stroke-width="1.0"/>
<line x1="285.5" y1="187.8" x2="246.9" y2="200.2" stroke="rgb(0,0,0)"  stroke-width="1.0"/>
<line x1="109.3" y1="200.2" x2="74.6" y2="180.6" stroke="rgb(0,0,0)"  stroke-width="1.0"/>
<line x1="74.6" y1="180.6" x2="74.6" y2="140.1" stroke="rgb(0,0,0)"  stroke-width="1.0"/>
<line x1="74.6" y1="140.1" x2="109.3" y2="121.5" stroke="rgb(0,0,0)"  stroke-width="1.0"/>
<line x1="109.3" y1="121.5" x2="143.3" y2="140.1" stroke="rgb(0,0,0)"  stroke-width="1.0"/>
<line x1="143.3" y1="140.1" x2="143.3" y2="180.6" stroke="rgb(0,0,0)"  stroke-width="1.0"/>
<line x1="136.1" y1="146.1" x2="136.1" y2="174.6" stroke="rgb(0,0,0)"  stroke-width="1.0"/>
<line x1="143.3" y1="180.6" x2="109.3" y2="200.2" stroke="rgb(0,0,0)"  stroke-width="1.0"/>
<line x1="40.0" y1="121.5" x2="74.6" y2="140.1" stroke="rgb(0,0,0)"  stroke-width="1.0"/>
<line x1="48.7" y1="118.0" x2="72.7" y2="130.9" stroke="rgb(0,0,0)"  stroke-width="1.0"/>
<line x1="109.3" y1="121.5" x2="109.3" y2="80.7" stroke="rgb(0,0,0)"  stroke-width="1.0"/>
<line x1="102.1" y1="115.5" x2="102.1" y2="86.7" stroke="rgb(0,0,0)"  stroke-width="1.0"/>
<line x1="109.3" y1="80.7" x2="74.6" y2="61.2" stroke="rgb(0,0,0)"  stroke-width="1.0"/>
<line x1="74.6" y1="61.2" x2="40.0" y2="80.7" stroke="rgb(0,0,0)"  stroke-width="1.0"/>
<line x1="72.9" y1="70.4" x2="48.8" y2="84.1" stroke="rgb(0,0,0)"  stroke-width="1.0"/>
<line x1="40.0" y1="80.7" x2="40.0" y2="121.5" stroke="rgb(0,0,0)"  stroke-width="1.0"/>
<line x1="143.3" y1="180.6" x2="178.1" y2="200.2" stroke="rgb(0,0,0)"  stroke-width="1.0"/>
<line x1="178.1" y1="200.2" x2="201.0" y2="187.1" stroke="rgb(0,0,0)"  stroke-width="1.0"/>
<line x1="212.3" y1="167.6" x2="212.3" y2="140.1" stroke="rgb(0,0,0)"  stroke-width="1.0"/>
<line x1="212.3" y1="140.1" x2="189.4" y2="127.6" stroke="rgb(0,0,0)"  stroke-width="1.0"/>
<line x1="203.6" y1="143.6" x2="187.8" y2="134.9" stroke="rgb(0,0,0)"  stroke-width="1.0"/>
<line x1="166.6" y1="127.6" x2="143.3" y2="140.1" stroke="rgb(0,0,0)"  stroke-width="1.0"/>
<text x="172.055857" y="129.469570" fill="rgb(12,12,255)"  stroke="rgb(12,12,255)" stroke-width="1" font-size="16" >N</text>
<text x="206.342819" y="188.649476" fill="rgb(12,12,255)"  stroke="rgb(12,12,255)" stroke-width="1" font-size="16" >N</text>
<text x="172.055857" y="248.901604" fill="rgb(255,12,12)"  stroke="rgb(255,12,12)" stroke-width="1" font-size="16" >O</text>
<text x="240.900252" y="127.856407" fill="rgb(178,178,0)"  stroke="rgb(178,178,0)" stroke-width="1" font-size="16" >S</text>
<text x="311.806985" y="48.000000" fill="rgb(102,102,102)"  stroke="rgb(102,102,102)" stroke-width="1" font-size="16" >CH</text>
<text font-size="18.000000" fill ="black" font-family="sans-serif"
x="10.000000" y="20.000000" ></text>
<title> - OBDepict</title>
</svg>
