<?xml version="1.0"?>
<svg xmlns="http://www.w3.org/2000/svg"
xmlns:xlink="http://www.w3.org/1999/xlink" xmlns:cml="http://www.xml-cml.org/schema" width="342.937" height="370.827" x="0" y="0" font-family="sans-serif" stroke="rgb(0,0,0)" stroke-width="1"  stroke-linecap="round">
<rect x="0%" y="0%" width="100%" height="100%" stroke-width="0" fill="rgb(255,255,255)"  />
<line x1="189.3" y1="168.4" x2="165.0" y2="182.5" stroke="rgb(0,0,0)"  stroke-width="1.0"/>
<line x1="186.3" y1="163.2" x2="162.0" y2="177.3" stroke="rgb(0,0,0)"  stroke-width="1.0"/>
<line x1="198.7" y1="119.6" x2="198.9" y2="146.2" stroke="rgb(0,0,0)"  stroke-width="1.0"/>
<line x1="233.2" y1="99.6" x2="198.7" y2="119.6" stroke="rgb(0,0,0)"  stroke-width="1.0"/>
<line x1="179.9" y1="286.6" x2="189.0" y2="247.6" stroke="rgb(0,0,0)"  stroke-width="1.0"/>
<line x1="173.7" y1="313.3" x2="179.9" y2="286.6" stroke="rgb(0,0,0)"  stroke-width="1.0"/>
<line x1="169.6" y1="312.4" x2="175.8" y2="285.6" stroke="rgb(0,0,0)"  stroke-width="1.0"/>
<line x1="177.8" y1="314.3" x2="184.0" y2="287.5" stroke="rgb(0,0,0)"  stroke-width="1.0"/>
<line x1="176.8" y1="103.4" x2="200.2" y2="117.0" stroke="rgb(0,0,0)"  stroke-width="1.0"/>
<line x1="173.8" y1="108.6" x2="197.1" y2="122.2" stroke="rgb(0,0,0)"  stroke-width="1.0"/>
<line x1="189.0" y1="247.6" x2="168.8" y2="228.7" stroke="rgb(0,0,0)"  stroke-width="1.0"/>
<line x1="267.4" y1="146.9" x2="267.8" y2="119.2" stroke="rgb(0,0,0)"  stroke-width="1.0"/>
<line x1="112.4" y1="285.4" x2="99.2" y2="261.1" stroke="rgb(0,0,0)"  stroke-width="1.0"/>
<line x1="104.3" y1="319.8" x2="111.7" y2="307.9" stroke="rgb(0,0,0)"  stroke-width="1.0"/>
<line x1="163.5" y1="179.9" x2="140.1" y2="169.0" stroke="rgb(0,0,0)"  stroke-width="1.0"/>
<line x1="119.3" y1="172.8" x2="100.4" y2="192.4" stroke="rgb(0,0,0)"  stroke-width="1.0"/>
<line x1="100.4" y1="192.4" x2="120.2" y2="227.2" stroke="rgb(0,0,0)"  stroke-width="1.0"/>
<line x1="109.7" y1="194.0" x2="123.5" y2="218.4" stroke="rgb(0,0,0)"  stroke-width="1.0"/>
<line x1="120.2" y1="227.2" x2="146.5" y2="222.3" stroke="rgb(0,0,0)"  stroke-width="1.0"/>
<line x1="160.6" y1="206.9" x2="163.5" y2="179.9" stroke="rgb(0,0,0)"  stroke-width="1.0"/>
<line x1="233.2" y1="99.6" x2="267.8" y2="119.2" stroke="rgb(0,0,0)"  stroke-width="1.0"/>
<line x1="242.0" y1="96.3" x2="266.1" y2="110.0" stroke="rgb(0,0,0)"  stroke-width="1.0"/>
<line x1="267.8" y1="119.2" x2="302.3" y2="99.6" stroke="rgb(0,0,0)"  stroke-width="1.0"/>
<line x1="302.3" y1="99.6" x2="302.9" y2="60.0" stroke="rgb(0,0,0)"  stroke-width="1.0"/>
<line x1="295.2" y1="93.5" x2="295.6" y2="65.9" stroke="rgb(0,0,0)"  stroke-width="1.0"/>
<line x1="302.9" y1="60.0" x2="268.4" y2="40.0" stroke="rgb(0,0,0)"  stroke-width="1.0"/>
<line x1="268.4" y1="40.0" x2="233.6" y2="60.0" stroke="rgb(0,0,0)"  stroke-width="1.0"/>
<line x1="266.8" y1="49.2" x2="242.4" y2="63.3" stroke="rgb(0,0,0)"  stroke-width="1.0"/>
<line x1="233.6" y1="60.0" x2="233.2" y2="99.6" stroke="rgb(0,0,0)"  stroke-width="1.0"/>
<line x1="99.2" y1="261.1" x2="60.0" y2="260.9" stroke="rgb(0,0,0)"  stroke-width="1.0"/>
<line x1="93.3" y1="253.9" x2="66.0" y2="253.7" stroke="rgb(0,0,0)"  stroke-width="1.0"/>
<line x1="60.0" y1="260.9" x2="40.0" y2="225.3" stroke="rgb(0,0,0)"  stroke-width="1.0"/>
<line x1="40.0" y1="225.3" x2="61.2" y2="191.4" stroke="rgb(0,0,0)"  stroke-width="1.0"/>
<line x1="49.3" y1="224.1" x2="64.1" y2="200.3" stroke="rgb(0,0,0)"  stroke-width="1.0"/>
<line x1="61.2" y1="191.4" x2="100.4" y2="192.4" stroke="rgb(0,0,0)"  stroke-width="1.0"/>
<line x1="120.2" y1="227.2" x2="99.2" y2="261.1" stroke="rgb(0,0,0)"  stroke-width="1.0"/>
<text x="193.056316" y="167.243833" fill="rgb(12,12,255)"  stroke="rgb(12,12,255)" stroke-width="1" font-size="16" >N</text>
<text x="153.243833" y="227.874978" fill="rgb(12,12,255)"  stroke="rgb(12,12,255)" stroke-width="1" font-size="16" >N</text>
<text x="122.323208" y="171.488884" fill="rgb(178,178,0)"  stroke="rgb(178,178,0)" stroke-width="1" font-size="16" >S</text>
<text x="152.764041" y="333.977061" fill="rgb(102,102,102)"  stroke="rgb(102,102,102)" stroke-width="1" font-size="16" >HC</text>
<text x="158.093937" y="107.421039" fill="rgb(255,12,12)"  stroke="rgb(255,12,12)" stroke-width="1" font-size="16" >O</text>
<text x="249.165915" y="167.848886" fill="rgb(30,239,30)"  stroke="rgb(30,239,30)" stroke-width="1" font-size="16" >Cl</text>
<text x="112.622999" y="304.876435" fill="rgb(255,12,12)"  stroke="rgb(255,12,12)" stroke-width="1" font-size="16" >O</text>
<text x="71.402582" y="338.827165" fill="rgb(102,102,102)"  stroke="rgb(102,102,102)" stroke-width="1" font-size="16" >H</text>
<text x="83.402582" y="342.507165" fill="rgb(102,102,102)"  stroke="rgb(102,102,102)" stroke-width="1" font-size="13" >3</text>
<text x="89.902582" y="338.827165" fill="rgb(102,102,102)"  stroke="rgb(102,102,102)" stroke-width="1" font-size="16" >C</text>
<text font-size="18.000000" fill ="black" font-family="sans-serif"
x="10.000000" y="20.000000" ></text>
<title> - OBDepict</title>
</svg>
