<?xml version="1.0"?>
<svg xmlns="http://www.w3.org/2000/svg"
xmlns:xlink="http://www.w3.org/1999/xlink" xmlns:cml="http://www.xml-cml.org/schema" width="458.705" height="199.974" x="0" y="0" font-family="sans-serif" stroke="rgb(0,0,0)" stroke-width="1"  stroke-linecap="round">
<rect x="0%" y="0%" width="100%" height="100%" stroke-width="0" fill="rgb(255,255,255)"  />
<line x1="213.3" y1="120.0" x2="236.6" y2="106.5" stroke="rgb(0,0,0)"  stroke-width="1.0"/>
<line x1="74.7" y1="120.0" x2="109.3" y2="100.0" stroke="rgb(0,0,0)"  stroke-width="1.0"/>
<line x1="51.3" y1="133.5" x2="74.7" y2="120.0" stroke="rgb(0,0,0)"  stroke-width="1.0"/>
<line x1="49.2" y1="129.9" x2="72.6" y2="116.3" stroke="rgb(0,0,0)"  stroke-width="1.0"/>
<line x1="53.4" y1="137.1" x2="76.8" y2="123.6" stroke="rgb(0,0,0)"  stroke-width="1.0"/>
<line x1="178.6" y1="100.0" x2="213.3" y2="120.0" stroke="rgb(0,0,0)"  stroke-width="1.0"/>
<line x1="279.6" y1="147.0" x2="279.6" y2="120.0" stroke="rgb(0,0,0)"  stroke-width="1.0"/>
<line x1="285.6" y1="147.0" x2="285.6" y2="120.0" stroke="rgb(0,0,0)"  stroke-width="1.0"/>
<line x1="181.6" y1="73.0" x2="181.6" y2="100.0" stroke="rgb(0,0,0)"  stroke-width="1.0"/>
<line x1="175.6" y1="73.0" x2="175.6" y2="100.0" stroke="rgb(0,0,0)"  stroke-width="1.0"/>
<line x1="155.3" y1="113.5" x2="178.6" y2="100.0" stroke="rgb(0,0,0)"  stroke-width="1.0"/>
<line x1="363.6" y1="138.1" x2="355.1" y2="112.3" stroke="rgb(0,0,0)"  stroke-width="1.0"/>
<line x1="405.7" y1="80.0" x2="378.7" y2="80.0" stroke="rgb(0,0,0)"  stroke-width="1.0"/>
<line x1="109.3" y1="100.0" x2="132.8" y2="113.5" stroke="rgb(0,0,0)"  stroke-width="1.0"/>
<line x1="317.1" y1="100.0" x2="317.1" y2="60.0" stroke="rgb(0,0,0)"  stroke-width="1.0"/>
<line x1="324.3" y1="94.0" x2="324.3" y2="66.0" stroke="rgb(0,0,0)"  stroke-width="1.0"/>
<line x1="317.1" y1="60.0" x2="342.7" y2="51.7" stroke="rgb(0,0,0)"  stroke-width="1.0"/>
<line x1="362.8" y1="58.2" x2="378.7" y2="80.0" stroke="rgb(0,0,0)"  stroke-width="1.0"/>
<line x1="378.7" y1="80.0" x2="355.1" y2="112.3" stroke="rgb(0,0,0)"  stroke-width="1.0"/>
<line x1="369.4" y1="80.6" x2="352.8" y2="103.2" stroke="rgb(0,0,0)"  stroke-width="1.0"/>
<line x1="355.1" y1="112.3" x2="317.1" y2="100.0" stroke="rgb(0,0,0)"  stroke-width="1.0"/>
<line x1="247.8" y1="60.0" x2="271.1" y2="46.6" stroke="rgb(0,0,0)"  stroke-width="1.0"/>
<line x1="256.6" y1="63.2" x2="273.0" y2="53.8" stroke="rgb(0,0,0)"  stroke-width="1.0"/>
<line x1="293.8" y1="46.5" x2="317.1" y2="60.0" stroke="rgb(0,0,0)"  stroke-width="1.0"/>
<line x1="317.1" y1="100.0" x2="282.6" y2="120.0" stroke="rgb(0,0,0)"  stroke-width="1.0"/>
<line x1="282.6" y1="120.0" x2="259.1" y2="106.5" stroke="rgb(0,0,0)"  stroke-width="1.0"/>
<line x1="247.8" y1="87.0" x2="247.8" y2="60.0" stroke="rgb(0,0,0)"  stroke-width="1.0"/>
<text x="241.833348" y="107.986885" fill="rgb(12,12,255)"  stroke="rgb(12,12,255)" stroke-width="1" font-size="16" >N</text>
<text x="276.574843" y="48.000000" fill="rgb(12,12,255)"  stroke="rgb(12,12,255)" stroke-width="1" font-size="16" >N</text>
<text x="349.082626" y="55.673474" fill="rgb(178,178,0)"  stroke="rgb(178,178,0)" stroke-width="1" font-size="16" >S</text>
<text x="22.000000" y="147.978141" fill="rgb(102,102,102)"  stroke="rgb(102,102,102)" stroke-width="1" font-size="16" >HC</text>
<text x="276.574843" y="167.973769" fill="rgb(255,12,12)"  stroke="rgb(255,12,12)" stroke-width="1" font-size="16" >O</text>
<text x="172.558797" y="67.995628" fill="rgb(255,12,12)"  stroke="rgb(255,12,12)" stroke-width="1" font-size="16" >O</text>
<text x="138.020893" y="127.982513" fill="rgb(12,12,255)"  stroke="rgb(12,12,255)" stroke-width="1" font-size="16" >N</text>
<text x="138.020893" y="143.982513" fill="rgb(12,12,255)"  stroke="rgb(12,12,255)" stroke-width="1" font-size="16" >H</text>
<text x="363.608373" y="158.477664" fill="rgb(102,102,102)"  stroke="rgb(102,102,102)" stroke-width="1" font-size="16" >CH</text>
<text x="387.608373" y="162.157664" fill="rgb(102,102,102)"  stroke="rgb(102,102,102)" stroke-width="1" font-size="13" >3</text>
<text x="414.705080" y="87.991256" fill="rgb(102,102,102)"  stroke="rgb(102,102,102)" stroke-width="1" font-size="16" >CH</text>
<text x="438.705080" y="91.671256" fill="rgb(102,102,102)"  stroke="rgb(102,102,102)" stroke-width="1" font-size="13" >3</text>
<text font-size="18.000000" fill ="black" font-family="sans-serif"
x="10.000000" y="20.000000" ></text>
<title> - OBDepict</title>
</svg>
