<?xml version="1.0"?>
<svg xmlns="http://www.w3.org/2000/svg"
xmlns:xlink="http://www.w3.org/1999/xlink" xmlns:cml="http://www.xml-cml.org/schema" width="549.95" height="505.569" x="0" y="0" font-family="sans-serif" stroke="rgb(0,0,0)" stroke-width="1"  stroke-linecap="round">
<rect x="0%" y="0%" width="100%" height="100%" stroke-width="0" fill="rgb(255,255,255)"  />
<line x1="325.7" y1="186.4" x2="302.2" y2="200.1" stroke="rgb(0,0,0)"  stroke-width="1.0"/>
<line x1="188.1" y1="309.0" x2="164.8" y2="322.7" stroke="rgb(0,0,0)"  stroke-width="1.0"/>
<line x1="185.0" y1="303.8" x2="161.7" y2="317.6" stroke="rgb(0,0,0)"  stroke-width="1.0"/>
<line x1="197.7" y1="259.6" x2="197.7" y2="286.8" stroke="rgb(0,0,0)"  stroke-width="1.0"/>
<line x1="359.9" y1="166.6" x2="348.2" y2="173.3" stroke="rgb(0,0,0)"  stroke-width="1.0"/>
<line x1="179.6" y1="426.6" x2="188.7" y2="387.3" stroke="rgb(0,0,0)"  stroke-width="1.0"/>
<line x1="325.5" y1="154.4" x2="332.9" y2="167.0" stroke="rgb(0,0,0)"  stroke-width="1.0"/>
<line x1="320.3" y1="157.4" x2="327.7" y2="170.1" stroke="rgb(0,0,0)"  stroke-width="1.0"/>
<line x1="347.8" y1="204.9" x2="340.7" y2="192.5" stroke="rgb(0,0,0)"  stroke-width="1.0"/>
<line x1="353.0" y1="201.9" x2="346.0" y2="189.6" stroke="rgb(0,0,0)"  stroke-width="1.0"/>
<line x1="173.9" y1="452.9" x2="179.6" y2="426.6" stroke="rgb(0,0,0)"  stroke-width="1.0"/>
<line x1="169.8" y1="452.0" x2="175.5" y2="425.7" stroke="rgb(0,0,0)"  stroke-width="1.0"/>
<line x1="178.0" y1="453.8" x2="183.7" y2="427.5" stroke="rgb(0,0,0)"  stroke-width="1.0"/>
<line x1="232.2" y1="239.7" x2="197.7" y2="259.6" stroke="rgb(0,0,0)"  stroke-width="1.0"/>
<line x1="175.4" y1="243.5" x2="199.2" y2="257.0" stroke="rgb(0,0,0)"  stroke-width="1.0"/>
<line x1="172.4" y1="248.7" x2="196.2" y2="262.3" stroke="rgb(0,0,0)"  stroke-width="1.0"/>
<line x1="188.7" y1="387.3" x2="168.3" y2="368.5" stroke="rgb(0,0,0)"  stroke-width="1.0"/>
<line x1="371.4" y1="119.7" x2="371.2" y2="147.2" stroke="rgb(0,0,0)"  stroke-width="1.0"/>
<line x1="405.9" y1="179.6" x2="382.5" y2="166.5" stroke="rgb(0,0,0)"  stroke-width="1.0"/>
<line x1="47.5" y1="308.1" x2="60.6" y2="331.8" stroke="rgb(0,0,0)"  stroke-width="1.0"/>
<line x1="336.8" y1="72.8" x2="336.7" y2="99.7" stroke="rgb(0,0,0)"  stroke-width="1.0"/>
<line x1="464.0" y1="173.0" x2="441.0" y2="159.6" stroke="rgb(0,0,0)"  stroke-width="1.0"/>
<line x1="336.7" y1="99.7" x2="371.4" y2="119.7" stroke="rgb(0,0,0)"  stroke-width="1.0"/>
<line x1="441.0" y1="159.6" x2="405.9" y2="179.6" stroke="rgb(0,0,0)"  stroke-width="1.0"/>
<line x1="46.9" y1="424.5" x2="60.0" y2="400.8" stroke="rgb(0,0,0)"  stroke-width="1.0"/>
<line x1="498.7" y1="166.1" x2="486.5" y2="173.1" stroke="rgb(0,0,0)"  stroke-width="1.0"/>
<line x1="314.1" y1="46.5" x2="325.6" y2="53.2" stroke="rgb(0,0,0)"  stroke-width="1.0"/>
<line x1="163.2" y1="320.2" x2="139.3" y2="308.9" stroke="rgb(0,0,0)"  stroke-width="1.0"/>
<line x1="118.6" y1="312.9" x2="100.3" y2="332.5" stroke="rgb(0,0,0)"  stroke-width="1.0"/>
<line x1="100.3" y1="332.5" x2="119.7" y2="367.6" stroke="rgb(0,0,0)"  stroke-width="1.0"/>
<line x1="109.5" y1="334.2" x2="123.1" y2="358.8" stroke="rgb(0,0,0)"  stroke-width="1.0"/>
<line x1="119.7" y1="367.6" x2="146.1" y2="362.2" stroke="rgb(0,0,0)"  stroke-width="1.0"/>
<line x1="160.3" y1="346.8" x2="163.2" y2="320.2" stroke="rgb(0,0,0)"  stroke-width="1.0"/>
<line x1="232.2" y1="239.7" x2="232.2" y2="200.1" stroke="rgb(0,0,0)"  stroke-width="1.0"/>
<line x1="232.2" y1="200.1" x2="267.1" y2="179.8" stroke="rgb(0,0,0)"  stroke-width="1.0"/>
<line x1="241.0" y1="203.3" x2="265.6" y2="189.0" stroke="rgb(0,0,0)"  stroke-width="1.0"/>
<line x1="267.1" y1="179.8" x2="302.2" y2="200.1" stroke="rgb(0,0,0)"  stroke-width="1.0"/>
<line x1="302.2" y1="200.1" x2="301.8" y2="240.1" stroke="rgb(0,0,0)"  stroke-width="1.0"/>
<line x1="294.9" y1="206.1" x2="294.7" y2="234.0" stroke="rgb(0,0,0)"  stroke-width="1.0"/>
<line x1="301.8" y1="240.1" x2="267.1" y2="259.8" stroke="rgb(0,0,0)"  stroke-width="1.0"/>
<line x1="267.1" y1="259.8" x2="232.2" y2="239.7" stroke="rgb(0,0,0)"  stroke-width="1.0"/>
<line x1="265.5" y1="250.6" x2="241.0" y2="236.4" stroke="rgb(0,0,0)"  stroke-width="1.0"/>
<line x1="60.6" y1="331.8" x2="100.3" y2="332.5" stroke="rgb(0,0,0)"  stroke-width="1.0"/>
<line x1="119.7" y1="367.6" x2="99.1" y2="401.4" stroke="rgb(0,0,0)"  stroke-width="1.0"/>
<line x1="99.1" y1="401.4" x2="60.0" y2="400.8" stroke="rgb(0,0,0)"  stroke-width="1.0"/>
<line x1="93.2" y1="394.1" x2="66.1" y2="393.7" stroke="rgb(0,0,0)"  stroke-width="1.0"/>
<line x1="60.0" y1="400.8" x2="40.0" y2="366.1" stroke="rgb(0,0,0)"  stroke-width="1.0"/>
<line x1="40.0" y1="366.1" x2="60.6" y2="331.8" stroke="rgb(0,0,0)"  stroke-width="1.0"/>
<line x1="49.3" y1="364.7" x2="63.7" y2="340.7" stroke="rgb(0,0,0)"  stroke-width="1.0"/>
<text x="330.895584" y="187.770082" fill="rgb(178,178,0)"  stroke="rgb(178,178,0)" stroke-width="1" font-size="16" >S</text>
<text x="191.727144" y="307.778178" fill="rgb(12,12,255)"  stroke="rgb(12,12,255)" stroke-width="1" font-size="16" >N</text>
<text x="152.799961" y="367.680335" fill="rgb(12,12,255)"  stroke="rgb(12,12,255)" stroke-width="1" font-size="16" >N</text>
<text x="121.538856" y="311.412287" fill="rgb(178,178,0)"  stroke="rgb(178,178,0)" stroke-width="1" font-size="16" >S</text>
<text x="365.184305" y="168.207026" fill="rgb(12,12,255)"  stroke="rgb(12,12,255)" stroke-width="1" font-size="16" >N</text>
<text x="310.323322" y="152.675938" fill="rgb(255,12,12)"  stroke="rgb(255,12,12)" stroke-width="1" font-size="16" >O</text>
<text x="350.866205" y="222.660444" fill="rgb(255,12,12)"  stroke="rgb(255,12,12)" stroke-width="1" font-size="16" >O</text>
<text x="153.104502" y="473.569260" fill="rgb(102,102,102)"  stroke="rgb(102,102,102)" stroke-width="1" font-size="16" >HC</text>
<text x="156.633000" y="247.672239" fill="rgb(255,12,12)"  stroke="rgb(255,12,12)" stroke-width="1" font-size="16" >O</text>
<text x="15.212987" y="304.755414" fill="rgb(102,102,102)"  stroke="rgb(102,102,102)" stroke-width="1" font-size="16" >H</text>
<text x="27.212987" y="308.435414" fill="rgb(102,102,102)"  stroke="rgb(102,102,102)" stroke-width="1" font-size="13" >3</text>
<text x="33.712987" y="304.755414" fill="rgb(102,102,102)"  stroke="rgb(102,102,102)" stroke-width="1" font-size="16" >C</text>
<text x="330.895584" y="67.761986" fill="rgb(255,12,12)"  stroke="rgb(255,12,12)" stroke-width="1" font-size="16" >O</text>
<text x="469.258602" y="187.566300" fill="rgb(255,12,12)"  stroke="rgb(255,12,12)" stroke-width="1" font-size="16" >O</text>
<text x="14.606494" y="443.923855" fill="rgb(102,102,102)"  stroke="rgb(102,102,102)" stroke-width="1" font-size="16" >H</text>
<text x="26.606494" y="447.603855" fill="rgb(102,102,102)"  stroke="rgb(102,102,102)" stroke-width="1" font-size="13" >3</text>
<text x="33.106494" y="443.923855" fill="rgb(102,102,102)"  stroke="rgb(102,102,102)" stroke-width="1" font-size="16" >C</text>
<text x="505.950034" y="167.600532" fill="rgb(102,102,102)"  stroke="rgb(102,102,102)" stroke-width="1" font-size="16" >CH</text>
<text x="529.950034" y="171.280532" fill="rgb(102,102,102)"  stroke="rgb(102,102,102)" stroke-width="1" font-size="13" >3</text>
<text x="276.810646" y="48.000000" fill="rgb(102,102,102)"  stroke="rgb(102,102,102)" stroke-width="1" font-size="16" >H</text>
<text x="288.810646" y="51.680000" fill="rgb(102,102,102)"  stroke="rgb(102,102,102)" stroke-width="1" font-size="13" >3</text>
<text x="295.310646" y="48.000000" fill="rgb(102,102,102)"  stroke="rgb(102,102,102)" stroke-width="1" font-size="16" >C</text>
<text font-size="18.000000" fill ="black" font-family="sans-serif"
x="10.000000" y="20.000000" ></text>
<title> - OBDepict</title>
</svg>
