<?xml version="1.0"?>
<svg xmlns="http://www.w3.org/2000/svg"
xmlns:xlink="http://www.w3.org/1999/xlink" xmlns:cml="http://www.xml-cml.org/schema" width="327.936" height="559.911" x="0" y="0" font-family="sans-serif" stroke="rgb(0,0,0)" stroke-width="1"  stroke-linecap="round">
<rect x="0%" y="0%" width="100%" height="100%" stroke-width="0" fill="rgb(255,255,255)"  />
<line x1="178.6" y1="419.9" x2="213.2" y2="399.9" stroke="rgb(0,0,0)"  stroke-width="1.0"/>
<line x1="247.9" y1="339.9" x2="247.9" y2="299.9" stroke="rgb(0,0,0)"  stroke-width="1.0"/>
<line x1="224.4" y1="353.4" x2="247.9" y2="339.9" stroke="rgb(0,0,0)"  stroke-width="1.0"/>
<line x1="247.9" y1="219.8" x2="247.9" y2="192.8" stroke="rgb(0,0,0)"  stroke-width="1.0"/>
<line x1="213.2" y1="399.9" x2="213.2" y2="372.9" stroke="rgb(0,0,0)"  stroke-width="1.0"/>
<line x1="282.5" y1="80.0" x2="282.5" y2="120.0" stroke="rgb(0,0,0)"  stroke-width="1.0"/>
<line x1="282.5" y1="53.0" x2="282.5" y2="80.0" stroke="rgb(0,0,0)"  stroke-width="1.0"/>
<line x1="286.7" y1="53.0" x2="286.7" y2="80.0" stroke="rgb(0,0,0)"  stroke-width="1.0"/>
<line x1="278.3" y1="53.0" x2="278.3" y2="80.0" stroke="rgb(0,0,0)"  stroke-width="1.0"/>
<line x1="220.9" y1="176.8" x2="234.9" y2="176.8" stroke="rgb(0,0,0)"  stroke-width="1.0"/>
<line x1="220.9" y1="182.8" x2="234.9" y2="182.8" stroke="rgb(0,0,0)"  stroke-width="1.0"/>
<line x1="274.9" y1="182.8" x2="260.9" y2="182.8" stroke="rgb(0,0,0)"  stroke-width="1.0"/>
<line x1="274.9" y1="176.8" x2="260.9" y2="176.8" stroke="rgb(0,0,0)"  stroke-width="1.0"/>
<line x1="247.9" y1="152.8" x2="247.9" y2="166.8" stroke="rgb(0,0,0)"  stroke-width="1.0"/>
<line x1="140.9" y1="506.9" x2="140.9" y2="479.9" stroke="rgb(0,0,0)"  stroke-width="1.0"/>
<line x1="146.9" y1="506.9" x2="146.9" y2="479.9" stroke="rgb(0,0,0)"  stroke-width="1.0"/>
<line x1="269.7" y1="356.0" x2="246.4" y2="342.5" stroke="rgb(0,0,0)"  stroke-width="1.0"/>
<line x1="272.7" y1="350.8" x2="249.4" y2="337.3" stroke="rgb(0,0,0)"  stroke-width="1.0"/>
<line x1="282.5" y1="120.0" x2="259.2" y2="133.4" stroke="rgb(0,0,0)"  stroke-width="1.0"/>
<line x1="189.9" y1="346.4" x2="201.9" y2="353.4" stroke="rgb(0,0,0)"  stroke-width="1.0"/>
<line x1="247.9" y1="219.8" x2="282.5" y2="239.8" stroke="rgb(0,0,0)"  stroke-width="1.0"/>
<line x1="282.5" y1="239.8" x2="282.5" y2="279.9" stroke="rgb(0,0,0)"  stroke-width="1.0"/>
<line x1="275.3" y1="245.8" x2="275.3" y2="273.9" stroke="rgb(0,0,0)"  stroke-width="1.0"/>
<line x1="282.5" y1="279.9" x2="247.9" y2="299.9" stroke="rgb(0,0,0)"  stroke-width="1.0"/>
<line x1="247.9" y1="299.9" x2="213.2" y2="279.9" stroke="rgb(0,0,0)"  stroke-width="1.0"/>
<line x1="246.3" y1="290.6" x2="222.0" y2="276.6" stroke="rgb(0,0,0)"  stroke-width="1.0"/>
<line x1="213.2" y1="279.9" x2="213.2" y2="239.8" stroke="rgb(0,0,0)"  stroke-width="1.0"/>
<line x1="213.2" y1="239.8" x2="247.9" y2="219.8" stroke="rgb(0,0,0)"  stroke-width="1.0"/>
<line x1="222.0" y1="243.1" x2="246.3" y2="229.1" stroke="rgb(0,0,0)"  stroke-width="1.0"/>
<line x1="143.9" y1="479.9" x2="109.3" y2="459.9" stroke="rgb(0,0,0)"  stroke-width="1.0"/>
<line x1="109.3" y1="459.9" x2="109.3" y2="419.9" stroke="rgb(0,0,0)"  stroke-width="1.0"/>
<line x1="116.5" y1="453.9" x2="116.5" y2="425.9" stroke="rgb(0,0,0)"  stroke-width="1.0"/>
<line x1="109.3" y1="419.9" x2="132.6" y2="406.4" stroke="rgb(0,0,0)"  stroke-width="1.0"/>
<line x1="155.3" y1="406.5" x2="178.6" y2="419.9" stroke="rgb(0,0,0)"  stroke-width="1.0"/>
<line x1="153.5" y1="413.7" x2="169.8" y2="423.1" stroke="rgb(0,0,0)"  stroke-width="1.0"/>
<line x1="178.6" y1="419.9" x2="178.6" y2="446.9" stroke="rgb(0,0,0)"  stroke-width="1.0"/>
<line x1="167.4" y1="466.4" x2="143.9" y2="479.9" stroke="rgb(0,0,0)"  stroke-width="1.0"/>
<line x1="74.6" y1="479.9" x2="109.3" y2="459.9" stroke="rgb(0,0,0)"  stroke-width="1.0"/>
<line x1="109.3" y1="419.9" x2="74.6" y2="399.9" stroke="rgb(0,0,0)"  stroke-width="1.0"/>
<line x1="74.6" y1="399.9" x2="40.0" y2="419.9" stroke="rgb(0,0,0)"  stroke-width="1.0"/>
<line x1="73.0" y1="409.1" x2="48.8" y2="423.1" stroke="rgb(0,0,0)"  stroke-width="1.0"/>
<line x1="40.0" y1="419.9" x2="40.0" y2="459.9" stroke="rgb(0,0,0)"  stroke-width="1.0"/>
<line x1="40.0" y1="459.9" x2="74.6" y2="479.9" stroke="rgb(0,0,0)"  stroke-width="1.0"/>
<line x1="48.8" y1="456.7" x2="73.0" y2="470.7" stroke="rgb(0,0,0)"  stroke-width="1.0"/>
<text x="241.926362" y="187.833206" fill="rgb(178,178,0)"  stroke="rgb(178,178,0)" stroke-width="1" font-size="16" >S</text>
<text x="172.620807" y="467.897285" fill="rgb(12,12,255)"  stroke="rgb(12,12,255)" stroke-width="1" font-size="16" >NH</text>
<text x="137.863764" y="407.883554" fill="rgb(12,12,255)"  stroke="rgb(12,12,255)" stroke-width="1" font-size="16" >N</text>
<text x="207.174168" y="367.874400" fill="rgb(12,12,255)"  stroke="rgb(12,12,255)" stroke-width="1" font-size="16" >N</text>
<text x="276.479722" y="48.000000" fill="rgb(102,102,102)"  stroke="rgb(102,102,102)" stroke-width="1" font-size="16" >CH</text>
<text x="201.917207" y="187.833206" fill="rgb(255,12,12)"  stroke="rgb(255,12,12)" stroke-width="1" font-size="16" >O</text>
<text x="281.935516" y="187.833206" fill="rgb(255,12,12)"  stroke="rgb(255,12,12)" stroke-width="1" font-size="16" >O</text>
<text x="229.926362" y="147.824052" fill="rgb(12,12,255)"  stroke="rgb(12,12,255)" stroke-width="1" font-size="16" >HN</text>
<text x="137.863764" y="527.911016" fill="rgb(255,12,12)"  stroke="rgb(255,12,12)" stroke-width="1" font-size="16" >O</text>
<text x="276.479722" y="367.874400" fill="rgb(255,12,12)"  stroke="rgb(255,12,12)" stroke-width="1" font-size="16" >O</text>
<text x="152.620807" y="347.869823" fill="rgb(102,102,102)"  stroke="rgb(102,102,102)" stroke-width="1" font-size="16" >H</text>
<text x="164.620807" y="351.549823" fill="rgb(102,102,102)"  stroke="rgb(102,102,102)" stroke-width="1" font-size="13" >3</text>
<text x="171.120807" y="347.869823" fill="rgb(102,102,102)"  stroke="rgb(102,102,102)" stroke-width="1" font-size="16" >C</text>
<text font-size="18.000000" fill ="black" font-family="sans-serif"
x="10.000000" y="20.000000" ></text>
<title> - OBDepict</title>
</svg>
