<?xml version="1.0"?>
<svg xmlns="http://www.w3.org/2000/svg"
xmlns:xlink="http://www.w3.org/1999/xlink" xmlns:cml="http://www.xml-cml.org/schema" width="391.658" height="374.27" x="0" y="0" font-family="sans-serif" stroke="rgb(0,0,0)" stroke-width="1"  stroke-linecap="round">
<rect x="0%" y="0%" width="100%" height="100%" stroke-width="0" fill="rgb(255,255,255)"  />
<line x1="316.0" y1="73.7" x2="315.5" y2="100.9" stroke="rgb(0,0,0)"  stroke-width="1.0"/>
<line x1="244.0" y1="217.9" x2="209.2" y2="237.3" stroke="rgb(0,0,0)"  stroke-width="1.0"/>
<line x1="176.7" y1="214.0" x2="210.8" y2="234.7" stroke="rgb(0,0,0)"  stroke-width="1.0"/>
<line x1="173.5" y1="219.1" x2="207.6" y2="239.9" stroke="rgb(0,0,0)"  stroke-width="1.0"/>
<line x1="140.3" y1="235.7" x2="175.1" y2="216.6" stroke="rgb(0,0,0)"  stroke-width="1.0"/>
<line x1="208.3" y1="276.8" x2="209.2" y2="237.3" stroke="rgb(0,0,0)"  stroke-width="1.0"/>
<line x1="244.4" y1="191.4" x2="244.0" y2="217.9" stroke="rgb(0,0,0)"  stroke-width="1.0"/>
<line x1="207.4" y1="309.2" x2="208.3" y2="276.8" stroke="rgb(0,0,0)"  stroke-width="1.0"/>
<line x1="203.2" y1="309.1" x2="204.1" y2="276.6" stroke="rgb(0,0,0)"  stroke-width="1.0"/>
<line x1="211.6" y1="309.4" x2="212.5" y2="276.9" stroke="rgb(0,0,0)"  stroke-width="1.0"/>
<line x1="73.9" y1="114.2" x2="72.8" y2="154.4" stroke="rgb(0,0,0)"  stroke-width="1.0"/>
<line x1="51.2" y1="100.8" x2="73.9" y2="114.2" stroke="rgb(0,0,0)"  stroke-width="1.0"/>
<line x1="53.3" y1="97.2" x2="76.0" y2="110.6" stroke="rgb(0,0,0)"  stroke-width="1.0"/>
<line x1="49.0" y1="104.4" x2="71.7" y2="117.8" stroke="rgb(0,0,0)"  stroke-width="1.0"/>
<line x1="340.3" y1="47.6" x2="327.6" y2="54.5" stroke="rgb(0,0,0)"  stroke-width="1.0"/>
<line x1="294.8" y1="44.2" x2="306.7" y2="51.4" stroke="rgb(0,0,0)"  stroke-width="1.0"/>
<line x1="291.7" y1="49.3" x2="303.5" y2="56.5" stroke="rgb(0,0,0)"  stroke-width="1.0"/>
<line x1="279.4" y1="159.5" x2="256.1" y2="172.2" stroke="rgb(0,0,0)"  stroke-width="1.0"/>
<line x1="265.2" y1="234.4" x2="242.4" y2="220.5" stroke="rgb(0,0,0)"  stroke-width="1.0"/>
<line x1="268.3" y1="229.3" x2="245.5" y2="215.3" stroke="rgb(0,0,0)"  stroke-width="1.0"/>
<line x1="103.8" y1="321.3" x2="104.2" y2="294.6" stroke="rgb(0,0,0)"  stroke-width="1.0"/>
<line x1="106.7" y1="188.1" x2="106.2" y2="215.0" stroke="rgb(0,0,0)"  stroke-width="1.0"/>
<line x1="72.8" y1="154.4" x2="95.8" y2="168.3" stroke="rgb(0,0,0)"  stroke-width="1.0"/>
<line x1="140.3" y1="235.7" x2="106.2" y2="215.0" stroke="rgb(0,0,0)"  stroke-width="1.0"/>
<line x1="106.2" y1="215.0" x2="71.2" y2="233.9" stroke="rgb(0,0,0)"  stroke-width="1.0"/>
<line x1="104.4" y1="224.2" x2="79.9" y2="237.4" stroke="rgb(0,0,0)"  stroke-width="1.0"/>
<line x1="71.2" y1="233.9" x2="70.5" y2="274.1" stroke="rgb(0,0,0)"  stroke-width="1.0"/>
<line x1="70.5" y1="274.1" x2="104.2" y2="294.6" stroke="rgb(0,0,0)"  stroke-width="1.0"/>
<line x1="79.4" y1="271.1" x2="102.8" y2="285.3" stroke="rgb(0,0,0)"  stroke-width="1.0"/>
<line x1="104.2" y1="294.6" x2="139.4" y2="275.4" stroke="rgb(0,0,0)"  stroke-width="1.0"/>
<line x1="139.4" y1="275.4" x2="140.3" y2="235.7" stroke="rgb(0,0,0)"  stroke-width="1.0"/>
<line x1="132.4" y1="269.3" x2="133.0" y2="241.6" stroke="rgb(0,0,0)"  stroke-width="1.0"/>
<line x1="315.5" y1="100.9" x2="349.4" y2="121.6" stroke="rgb(0,0,0)"  stroke-width="1.0"/>
<line x1="316.9" y1="110.1" x2="340.5" y2="124.6" stroke="rgb(0,0,0)"  stroke-width="1.0"/>
<line x1="349.4" y1="121.6" x2="348.3" y2="161.1" stroke="rgb(0,0,0)"  stroke-width="1.0"/>
<line x1="348.3" y1="161.1" x2="313.5" y2="180.2" stroke="rgb(0,0,0)"  stroke-width="1.0"/>
<line x1="339.6" y1="157.6" x2="315.3" y2="171.0" stroke="rgb(0,0,0)"  stroke-width="1.0"/>
<line x1="313.5" y1="180.2" x2="279.4" y2="159.5" stroke="rgb(0,0,0)"  stroke-width="1.0"/>
<line x1="279.4" y1="159.5" x2="280.8" y2="119.6" stroke="rgb(0,0,0)"  stroke-width="1.0"/>
<line x1="286.8" y1="153.7" x2="287.8" y2="125.8" stroke="rgb(0,0,0)"  stroke-width="1.0"/>
<line x1="280.8" y1="119.6" x2="315.5" y2="100.9" stroke="rgb(0,0,0)"  stroke-width="1.0"/>
<text x="321.011777" y="56.699201" fill="rgb(12,12,255)"  stroke="rgb(12,12,255)" stroke-width="1" font-size="16" >+</text>
<text x="310.211777" y="68.731201" fill="rgb(12,12,255)"  stroke="rgb(12,12,255)" stroke-width="1" font-size="16" >N</text>
<text x="226.653672" y="186.441197" fill="rgb(12,12,255)"  stroke="rgb(12,12,255)" stroke-width="1" font-size="16" >HN</text>
<text x="200.973737" y="330.228023" fill="rgb(12,12,255)"  stroke="rgb(12,12,255)" stroke-width="1" font-size="16" >N</text>
<text x="22.000000" y="102.170335" fill="rgb(102,102,102)"  stroke="rgb(102,102,102)" stroke-width="1" font-size="16" >HC</text>
<text x="356.457934" y="27.224407" fill="rgb(255,12,12)"  stroke="rgb(255,12,12)" stroke-width="1" font-size="16" >_</text>
<text x="345.657934" y="49.336407" fill="rgb(255,12,12)"  stroke="rgb(255,12,12)" stroke-width="1" font-size="16" >O</text>
<text x="276.102028" y="48.000000" fill="rgb(255,12,12)"  stroke="rgb(255,12,12)" stroke-width="1" font-size="16" >O</text>
<text x="271.866051" y="246.632602" fill="rgb(255,12,12)"  stroke="rgb(255,12,12)" stroke-width="1" font-size="16" >O</text>
<text x="85.534836" y="342.270164" fill="rgb(165,40,40)"  stroke="rgb(165,40,40)" stroke-width="1" font-size="16" >Br</text>
<text x="100.878267" y="183.097766" fill="rgb(255,12,12)"  stroke="rgb(255,12,12)" stroke-width="1" font-size="16" >O</text>
<text font-size="18.000000" fill ="black" font-family="sans-serif"
x="10.000000" y="20.000000" ></text>
<title> - OBDepict</title>
</svg>
