<?xml version="1.0"?>
<svg xmlns="http://www.w3.org/2000/svg"
xmlns:xlink="http://www.w3.org/1999/xlink" xmlns:cml="http://www.xml-cml.org/schema" width="391.889" height="299.923" x="0" y="0" font-family="sans-serif" stroke="rgb(0,0,0)" stroke-width="1"  stroke-linecap="round">
<rect x="0%" y="0%" width="100%" height="100%" stroke-width="0" fill="rgb(255,255,255)"  />
<line x1="214.8" y1="77.4" x2="249.4" y2="97.4" stroke="rgb(0,0,0)"  stroke-width="1.0"/>
<line x1="211.8" y1="82.6" x2="246.4" y2="102.6" stroke="rgb(0,0,0)"  stroke-width="1.0"/>
<line x1="178.6" y1="100.0" x2="213.3" y2="80.0" stroke="rgb(0,0,0)"  stroke-width="1.0"/>
<line x1="40.0" y1="219.9" x2="74.7" y2="199.9" stroke="rgb(0,0,0)"  stroke-width="1.0"/>
<line x1="40.0" y1="246.9" x2="40.0" y2="219.9" stroke="rgb(0,0,0)"  stroke-width="1.0"/>
<line x1="35.8" y1="246.9" x2="35.8" y2="219.9" stroke="rgb(0,0,0)"  stroke-width="1.0"/>
<line x1="44.2" y1="246.9" x2="44.2" y2="219.9" stroke="rgb(0,0,0)"  stroke-width="1.0"/>
<line x1="339.1" y1="156.1" x2="315.7" y2="142.6" stroke="rgb(0,0,0)"  stroke-width="1.0"/>
<line x1="342.1" y1="150.9" x2="318.7" y2="137.4" stroke="rgb(0,0,0)"  stroke-width="1.0"/>
<line x1="285.6" y1="53.0" x2="285.6" y2="80.0" stroke="rgb(0,0,0)"  stroke-width="1.0"/>
<line x1="279.6" y1="53.0" x2="279.6" y2="80.0" stroke="rgb(0,0,0)"  stroke-width="1.0"/>
<line x1="223.0" y1="150.9" x2="246.4" y2="137.4" stroke="rgb(0,0,0)"  stroke-width="1.0"/>
<line x1="226.0" y1="156.1" x2="249.4" y2="142.6" stroke="rgb(0,0,0)"  stroke-width="1.0"/>
<line x1="144.0" y1="186.9" x2="144.0" y2="160.0" stroke="rgb(0,0,0)"  stroke-width="1.0"/>
<line x1="85.9" y1="153.5" x2="109.3" y2="140.0" stroke="rgb(0,0,0)"  stroke-width="1.0"/>
<line x1="85.9" y1="86.5" x2="109.3" y2="100.0" stroke="rgb(0,0,0)"  stroke-width="1.0"/>
<line x1="74.7" y1="199.9" x2="74.7" y2="173.0" stroke="rgb(0,0,0)"  stroke-width="1.0"/>
<line x1="74.7" y1="53.0" x2="74.7" y2="67.0" stroke="rgb(0,0,0)"  stroke-width="1.0"/>
<line x1="247.9" y1="100.0" x2="282.6" y2="80.0" stroke="rgb(0,0,0)"  stroke-width="1.0"/>
<line x1="282.6" y1="80.0" x2="306.0" y2="93.5" stroke="rgb(0,0,0)"  stroke-width="1.0"/>
<line x1="317.2" y1="113.0" x2="317.2" y2="140.0" stroke="rgb(0,0,0)"  stroke-width="1.0"/>
<line x1="317.2" y1="140.0" x2="293.8" y2="153.5" stroke="rgb(0,0,0)"  stroke-width="1.0"/>
<line x1="271.3" y1="153.5" x2="247.9" y2="140.0" stroke="rgb(0,0,0)"  stroke-width="1.0"/>
<line x1="247.9" y1="140.0" x2="247.9" y2="100.0" stroke="rgb(0,0,0)"  stroke-width="1.0"/>
<line x1="144.0" y1="160.0" x2="109.3" y2="140.0" stroke="rgb(0,0,0)"  stroke-width="1.0"/>
<line x1="142.4" y1="150.7" x2="118.1" y2="136.7" stroke="rgb(0,0,0)"  stroke-width="1.0"/>
<line x1="109.3" y1="140.0" x2="109.3" y2="100.0" stroke="rgb(0,0,0)"  stroke-width="1.0"/>
<line x1="109.3" y1="100.0" x2="144.0" y2="80.0" stroke="rgb(0,0,0)"  stroke-width="1.0"/>
<line x1="118.1" y1="103.2" x2="142.4" y2="89.2" stroke="rgb(0,0,0)"  stroke-width="1.0"/>
<line x1="144.0" y1="80.0" x2="178.6" y2="100.0" stroke="rgb(0,0,0)"  stroke-width="1.0"/>
<line x1="178.6" y1="100.0" x2="178.6" y2="140.0" stroke="rgb(0,0,0)"  stroke-width="1.0"/>
<line x1="171.4" y1="106.0" x2="171.4" y2="134.0" stroke="rgb(0,0,0)"  stroke-width="1.0"/>
<line x1="178.6" y1="140.0" x2="144.0" y2="160.0" stroke="rgb(0,0,0)"  stroke-width="1.0"/>
<text x="311.234510" y="107.978247" fill="rgb(12,12,255)"  stroke="rgb(12,12,255)" stroke-width="1" font-size="16" >NH</text>
<text x="276.580196" y="167.956494" fill="rgb(12,12,255)"  stroke="rgb(12,12,255)" stroke-width="1" font-size="16" >N</text>
<text x="276.580196" y="183.956494" fill="rgb(12,12,255)"  stroke="rgb(12,12,255)" stroke-width="1" font-size="16" >H</text>
<text x="34.000000" y="267.923472" fill="rgb(102,102,102)"  stroke="rgb(102,102,102)" stroke-width="1" font-size="16" >CH</text>
<text x="345.888824" y="167.956494" fill="rgb(178,178,0)"  stroke="rgb(178,178,0)" stroke-width="1" font-size="16" >S</text>
<text x="276.580196" y="48.000000" fill="rgb(255,12,12)"  stroke="rgb(255,12,12)" stroke-width="1" font-size="16" >O</text>
<text x="207.271569" y="167.956494" fill="rgb(255,12,12)"  stroke="rgb(255,12,12)" stroke-width="1" font-size="16" >O</text>
<text x="137.962941" y="207.945225" fill="rgb(30,239,30)"  stroke="rgb(30,239,30)" stroke-width="1" font-size="16" >Cl</text>
<text x="68.654314" y="167.956494" fill="rgb(255,12,12)"  stroke="rgb(255,12,12)" stroke-width="1" font-size="16" >O</text>
<text x="68.654314" y="87.983881" fill="rgb(255,12,12)"  stroke="rgb(255,12,12)" stroke-width="1" font-size="16" >O</text>
<text x="70.654314" y="48.000000" fill="rgb(102,102,102)"  stroke="rgb(102,102,102)" stroke-width="1" font-size="16" >CH</text>
<text x="94.654314" y="51.680000" fill="rgb(102,102,102)"  stroke="rgb(102,102,102)" stroke-width="1" font-size="13" >3</text>
<text font-size="18.000000" fill ="black" font-family="sans-serif"
x="10.000000" y="20.000000" ></text>
<title> - OBDepict</title>
</svg>
