<?xml version="1.0"?>
<svg xmlns="http://www.w3.org/2000/svg"
xmlns:xlink="http://www.w3.org/1999/xlink" xmlns:cml="http://www.xml-cml.org/schema" width="442.211" height="250.256" x="0" y="0" font-family="sans-serif" stroke="rgb(0,0,0)" stroke-width="1"  stroke-linecap="round">
<rect x="0%" y="0%" width="100%" height="100%" stroke-width="0" fill="rgb(255,255,255)"  />
<line x1="310.5" y1="93.9" x2="310.5" y2="67.2" stroke="rgb(0,0,0)"  stroke-width="1.0"/>
<line x1="209.1" y1="151.7" x2="208.8" y2="125.6" stroke="rgb(0,0,0)"  stroke-width="1.0"/>
<line x1="343.9" y1="74.4" x2="363.0" y2="40.5" stroke="rgb(0,0,0)"  stroke-width="1.0"/>
<line x1="343.9" y1="74.4" x2="330.6" y2="51.7" stroke="rgb(0,0,0)"  stroke-width="1.0"/>
<line x1="363.0" y1="40.5" x2="389.2" y2="40.2" stroke="rgb(0,0,0)"  stroke-width="1.0"/>
<line x1="363.0" y1="36.3" x2="389.2" y2="36.0" stroke="rgb(0,0,0)"  stroke-width="1.0"/>
<line x1="363.1" y1="44.7" x2="389.3" y2="44.4" stroke="rgb(0,0,0)"  stroke-width="1.0"/>
<line x1="141.9" y1="190.8" x2="119.2" y2="203.8" stroke="rgb(0,0,0)"  stroke-width="1.0"/>
<line x1="96.6" y1="203.8" x2="74.1" y2="190.8" stroke="rgb(0,0,0)"  stroke-width="1.0"/>
<line x1="74.1" y1="190.8" x2="51.3" y2="203.8" stroke="rgb(0,0,0)"  stroke-width="1.0"/>
<line x1="71.1" y1="190.9" x2="70.9" y2="164.7" stroke="rgb(0,0,0)"  stroke-width="1.0"/>
<line x1="77.1" y1="190.8" x2="76.9" y2="164.6" stroke="rgb(0,0,0)"  stroke-width="1.0"/>
<line x1="377.2" y1="93.9" x2="377.2" y2="132.9" stroke="rgb(0,0,0)"  stroke-width="1.0"/>
<line x1="377.2" y1="132.9" x2="310.5" y2="132.7" stroke="rgb(0,0,0)"  stroke-width="1.0"/>
<line x1="310.5" y1="132.7" x2="310.5" y2="93.9" stroke="rgb(0,0,0)"  stroke-width="1.0"/>
<line x1="310.5" y1="93.9" x2="343.9" y2="74.4" stroke="rgb(0,0,0)"  stroke-width="1.0"/>
<line x1="343.9" y1="74.4" x2="377.2" y2="93.9" stroke="rgb(0,0,0)"  stroke-width="1.0"/>
<line x1="276.5" y1="151.7" x2="242.7" y2="131.7" stroke="rgb(0,0,0)"  stroke-width="1.0"/>
<line x1="242.7" y1="131.7" x2="242.7" y2="92.7" stroke="rgb(0,0,0)"  stroke-width="1.0"/>
<line x1="242.7" y1="92.7" x2="276.7" y2="73.1" stroke="rgb(0,0,0)"  stroke-width="1.0"/>
<line x1="276.7" y1="73.1" x2="310.5" y2="93.9" stroke="rgb(0,0,0)"  stroke-width="1.0"/>
<line x1="310.5" y1="132.7" x2="276.5" y2="151.7" stroke="rgb(0,0,0)"  stroke-width="1.0"/>
<line x1="276.5" y1="151.7" x2="276.7" y2="190.3" stroke="rgb(0,0,0)"  stroke-width="1.0"/>
<line x1="276.7" y1="190.3" x2="242.7" y2="209.9" stroke="rgb(0,0,0)"  stroke-width="1.0"/>
<line x1="242.7" y1="209.9" x2="209.3" y2="190.8" stroke="rgb(0,0,0)"  stroke-width="1.0"/>
<line x1="241.1" y1="200.7" x2="218.1" y2="187.5" stroke="rgb(0,0,0)"  stroke-width="1.0"/>
<line x1="209.3" y1="190.8" x2="209.1" y2="151.7" stroke="rgb(0,0,0)"  stroke-width="1.0"/>
<line x1="209.1" y1="151.7" x2="242.7" y2="131.7" stroke="rgb(0,0,0)"  stroke-width="1.0"/>
<line x1="175.3" y1="209.9" x2="141.9" y2="190.8" stroke="rgb(0,0,0)"  stroke-width="1.0"/>
<line x1="141.9" y1="190.8" x2="141.9" y2="151.7" stroke="rgb(0,0,0)"  stroke-width="1.0"/>
<line x1="141.9" y1="151.7" x2="175.3" y2="131.7" stroke="rgb(0,0,0)"  stroke-width="1.0"/>
<line x1="175.3" y1="131.7" x2="209.1" y2="151.7" stroke="rgb(0,0,0)"  stroke-width="1.0"/>
<line x1="209.3" y1="190.8" x2="175.3" y2="209.9" stroke="rgb(0,0,0)"  stroke-width="1.0"/>
<text x="306.473423" y="62.202586" fill="rgb(102,102,102)"  stroke="rgb(102,102,102)" stroke-width="1" font-size="16" >CH</text>
<text x="330.473423" y="65.882586" fill="rgb(102,102,102)"  stroke="rgb(102,102,102)" stroke-width="1" font-size="13" >3</text>
<text x="182.619646" y="120.639866" fill="rgb(102,102,102)"  stroke="rgb(102,102,102)" stroke-width="1" font-size="16" >H</text>
<text x="194.619646" y="124.319866" fill="rgb(102,102,102)"  stroke="rgb(102,102,102)" stroke-width="1" font-size="13" >3</text>
<text x="201.119646" y="120.639866" fill="rgb(102,102,102)"  stroke="rgb(102,102,102)" stroke-width="1" font-size="16" >C</text>
<text x="306.023342" y="48.496594" fill="rgb(255,12,12)"  stroke="rgb(255,12,12)" stroke-width="1" font-size="16" >HO</text>
<text x="396.210872" y="48.000000" fill="rgb(102,102,102)"  stroke="rgb(102,102,102)" stroke-width="1" font-size="16" >CH</text>
<text x="101.905671" y="218.256041" fill="rgb(255,12,12)"  stroke="rgb(255,12,12)" stroke-width="1" font-size="16" >O</text>
<text x="14.000000" y="218.256041" fill="rgb(102,102,102)"  stroke="rgb(102,102,102)" stroke-width="1" font-size="16" >H</text>
<text x="26.000000" y="221.936041" fill="rgb(102,102,102)"  stroke="rgb(102,102,102)" stroke-width="1" font-size="13" >3</text>
<text x="32.500000" y="218.256041" fill="rgb(102,102,102)"  stroke="rgb(102,102,102)" stroke-width="1" font-size="16" >C</text>
<text x="67.792034" y="159.657959" fill="rgb(255,12,12)"  stroke="rgb(255,12,12)" stroke-width="1" font-size="16" >O</text>
<text font-size="18.000000" fill ="black" font-family="sans-serif"
x="10.000000" y="20.000000" ></text>
<title> - OBDepict</title>
</svg>
