<?xml version="1.0"?>
<svg xmlns="http://www.w3.org/2000/svg"
xmlns:xlink="http://www.w3.org/1999/xlink" xmlns:cml="http://www.xml-cml.org/schema" width="488.807" height="289.315" x="0" y="0" font-family="sans-serif" stroke="rgb(0,0,0)" stroke-width="1"  stroke-linecap="round">
<rect x="0%" y="0%" width="100%" height="100%" stroke-width="0" fill="rgb(255,255,255)"  />
<line x1="343.3" y1="74.0" x2="363.2" y2="108.7" stroke="rgb(0,0,0)"  stroke-width="1.0"/>
<line x1="338.1" y1="77.0" x2="358.0" y2="111.7" stroke="rgb(0,0,0)"  stroke-width="1.0"/>
<line x1="448.8" y1="209.6" x2="444.8" y2="169.9" stroke="rgb(0,0,0)"  stroke-width="1.0"/>
<line x1="448.5" y1="236.3" x2="448.8" y2="209.6" stroke="rgb(0,0,0)"  stroke-width="1.0"/>
<line x1="444.3" y1="236.3" x2="444.6" y2="209.6" stroke="rgb(0,0,0)"  stroke-width="1.0"/>
<line x1="452.7" y1="236.4" x2="453.0" y2="209.7" stroke="rgb(0,0,0)"  stroke-width="1.0"/>
<line x1="367.9" y1="200.0" x2="370.8" y2="173.2" stroke="rgb(0,0,0)"  stroke-width="1.0"/>
<line x1="373.8" y1="200.6" x2="376.8" y2="173.9" stroke="rgb(0,0,0)"  stroke-width="1.0"/>
<line x1="420.6" y1="96.7" x2="402.5" y2="116.6" stroke="rgb(0,0,0)"  stroke-width="1.0"/>
<line x1="416.2" y1="92.7" x2="398.1" y2="112.6" stroke="rgb(0,0,0)"  stroke-width="1.0"/>
<line x1="300.4" y1="75.5" x2="340.7" y2="75.5" stroke="rgb(0,0,0)"  stroke-width="1.0"/>
<line x1="444.8" y1="169.9" x2="420.0" y2="158.9" stroke="rgb(0,0,0)"  stroke-width="1.0"/>
<line x1="193.1" y1="75.0" x2="219.8" y2="75.3" stroke="rgb(0,0,0)"  stroke-width="1.0"/>
<line x1="226.8" y1="132.8" x2="240.3" y2="109.8" stroke="rgb(0,0,0)"  stroke-width="1.0"/>
<line x1="160.1" y1="109.6" x2="173.6" y2="86.1" stroke="rgb(0,0,0)"  stroke-width="1.0"/>
<line x1="120.0" y1="109.8" x2="160.1" y2="109.6" stroke="rgb(0,0,0)"  stroke-width="1.0"/>
<line x1="47.0" y1="51.3" x2="60.5" y2="74.9" stroke="rgb(0,0,0)"  stroke-width="1.0"/>
<line x1="396.9" y1="160.2" x2="373.8" y2="173.5" stroke="rgb(0,0,0)"  stroke-width="1.0"/>
<line x1="373.8" y1="173.5" x2="353.9" y2="155.3" stroke="rgb(0,0,0)"  stroke-width="1.0"/>
<line x1="349.7" y1="134.6" x2="360.6" y2="110.2" stroke="rgb(0,0,0)"  stroke-width="1.0"/>
<line x1="360.6" y1="110.2" x2="400.3" y2="114.6" stroke="rgb(0,0,0)"  stroke-width="1.0"/>
<line x1="400.3" y1="114.6" x2="405.6" y2="140.9" stroke="rgb(0,0,0)"  stroke-width="1.0"/>
<line x1="240.3" y1="109.8" x2="219.8" y2="75.3" stroke="rgb(0,0,0)"  stroke-width="1.0"/>
<line x1="219.8" y1="75.3" x2="240.7" y2="40.0" stroke="rgb(0,0,0)"  stroke-width="1.0"/>
<line x1="229.1" y1="73.8" x2="243.8" y2="48.8" stroke="rgb(0,0,0)"  stroke-width="1.0"/>
<line x1="240.7" y1="40.0" x2="280.6" y2="40.4" stroke="rgb(0,0,0)"  stroke-width="1.0"/>
<line x1="280.6" y1="40.4" x2="300.4" y2="75.5" stroke="rgb(0,0,0)"  stroke-width="1.0"/>
<line x1="277.3" y1="49.2" x2="291.2" y2="73.8" stroke="rgb(0,0,0)"  stroke-width="1.0"/>
<line x1="300.4" y1="75.5" x2="280.4" y2="109.8" stroke="rgb(0,0,0)"  stroke-width="1.0"/>
<line x1="280.4" y1="109.8" x2="240.3" y2="109.8" stroke="rgb(0,0,0)"  stroke-width="1.0"/>
<line x1="274.4" y1="102.6" x2="246.3" y2="102.6" stroke="rgb(0,0,0)"  stroke-width="1.0"/>
<line x1="100.1" y1="74.9" x2="60.5" y2="74.9" stroke="rgb(0,0,0)"  stroke-width="1.0"/>
<line x1="60.5" y1="74.9" x2="40.0" y2="109.2" stroke="rgb(0,0,0)"  stroke-width="1.0"/>
<line x1="63.6" y1="83.7" x2="49.3" y2="107.7" stroke="rgb(0,0,0)"  stroke-width="1.0"/>
<line x1="40.0" y1="109.2" x2="59.8" y2="144.1" stroke="rgb(0,0,0)"  stroke-width="1.0"/>
<line x1="59.8" y1="144.1" x2="100.1" y2="144.5" stroke="rgb(0,0,0)"  stroke-width="1.0"/>
<line x1="65.9" y1="136.9" x2="94.2" y2="137.2" stroke="rgb(0,0,0)"  stroke-width="1.0"/>
<line x1="100.1" y1="144.5" x2="120.0" y2="109.8" stroke="rgb(0,0,0)"  stroke-width="1.0"/>
<line x1="120.0" y1="109.8" x2="100.1" y2="74.9" stroke="rgb(0,0,0)"  stroke-width="1.0"/>
<line x1="110.8" y1="108.1" x2="96.9" y2="83.7" stroke="rgb(0,0,0)"  stroke-width="1.0"/>
<text x="402.108837" y="161.681952" fill="rgb(12,12,255)"  stroke="rgb(12,12,255)" stroke-width="1" font-size="16" >N</text>
<text x="338.353165" y="154.464512" fill="rgb(178,178,0)"  stroke="rgb(178,178,0)" stroke-width="1" font-size="16" >S</text>
<text x="430.410249" y="257.315460" fill="rgb(102,102,102)"  stroke="rgb(102,102,102)" stroke-width="1" font-size="16" >HC</text>
<text x="363.410762" y="221.228258" fill="rgb(255,12,12)"  stroke="rgb(255,12,12)" stroke-width="1" font-size="16" >O</text>
<text x="421.155130" y="93.111425" fill="rgb(255,12,12)"  stroke="rgb(255,12,12)" stroke-width="1" font-size="16" >O</text>
<text x="174.144286" y="82.885910" fill="rgb(255,12,12)"  stroke="rgb(255,12,12)" stroke-width="1" font-size="16" >O</text>
<text x="202.242254" y="152.057084" fill="rgb(30,239,30)"  stroke="rgb(30,239,30)" stroke-width="1" font-size="16" >Cl</text>
<text x="34.600646" y="48.000000" fill="rgb(127,178,255)"  stroke="rgb(127,178,255)" stroke-width="1" font-size="16" >F</text>
<text font-size="18.000000" fill ="black" font-family="sans-serif"
x="10.000000" y="20.000000" ></text>
<title> - OBDepict</title>
</svg>
