<?xml version="1.0"?>
<svg xmlns="http://www.w3.org/2000/svg"
xmlns:xlink="http://www.w3.org/1999/xlink" xmlns:cml="http://www.xml-cml.org/schema" width="253.169" height="461.491" x="0" y="0" font-family="sans-serif" stroke="rgb(0,0,0)" stroke-width="1"  stroke-linecap="round">
<rect x="0%" y="0%" width="100%" height="100%" stroke-width="0" fill="rgb(255,255,255)"  />
<line x1="74.6" y1="141.4" x2="74.6" y2="114.4" stroke="rgb(0,0,0)"  stroke-width="1.0"/>
<line x1="109.3" y1="321.5" x2="109.3" y2="294.5" stroke="rgb(0,0,0)"  stroke-width="1.0"/>
<line x1="178.6" y1="401.5" x2="143.9" y2="381.5" stroke="rgb(0,0,0)"  stroke-width="1.0"/>
<line x1="201.9" y1="415.0" x2="178.6" y2="401.5" stroke="rgb(0,0,0)"  stroke-width="1.0"/>
<line x1="199.8" y1="418.6" x2="176.5" y2="405.1" stroke="rgb(0,0,0)"  stroke-width="1.0"/>
<line x1="204.0" y1="411.3" x2="180.7" y2="397.9" stroke="rgb(0,0,0)"  stroke-width="1.0"/>
<line x1="98.0" y1="275.0" x2="74.6" y2="261.5" stroke="rgb(0,0,0)"  stroke-width="1.0"/>
<line x1="84.3" y1="332.4" x2="107.8" y2="318.9" stroke="rgb(0,0,0)"  stroke-width="1.0"/>
<line x1="87.3" y1="337.6" x2="110.8" y2="324.1" stroke="rgb(0,0,0)"  stroke-width="1.0"/>
<line x1="132.6" y1="335.0" x2="109.3" y2="321.5" stroke="rgb(0,0,0)"  stroke-width="1.0"/>
<line x1="74.6" y1="261.5" x2="74.6" y2="221.5" stroke="rgb(0,0,0)"  stroke-width="1.0"/>
<line x1="143.9" y1="381.5" x2="143.9" y2="354.5" stroke="rgb(0,0,0)"  stroke-width="1.0"/>
<line x1="64.0" y1="93.8" x2="52.7" y2="85.6" stroke="rgb(0,0,0)"  stroke-width="1.0"/>
<line x1="46.3" y1="65.5" x2="54.5" y2="40.0" stroke="rgb(0,0,0)"  stroke-width="1.0"/>
<line x1="53.8" y1="65.8" x2="59.5" y2="47.9" stroke="rgb(0,0,0)"  stroke-width="1.0"/>
<line x1="54.5" y1="40.0" x2="94.6" y2="40.0" stroke="rgb(0,0,0)"  stroke-width="1.0"/>
<line x1="94.6" y1="40.0" x2="106.9" y2="78.0" stroke="rgb(0,0,0)"  stroke-width="1.0"/>
<line x1="89.6" y1="47.9" x2="98.2" y2="74.5" stroke="rgb(0,0,0)"  stroke-width="1.0"/>
<line x1="106.9" y1="78.0" x2="85.1" y2="93.8" stroke="rgb(0,0,0)"  stroke-width="1.0"/>
<line x1="74.6" y1="141.4" x2="109.3" y2="161.4" stroke="rgb(0,0,0)"  stroke-width="1.0"/>
<line x1="109.3" y1="161.4" x2="109.3" y2="201.4" stroke="rgb(0,0,0)"  stroke-width="1.0"/>
<line x1="102.1" y1="167.4" x2="102.1" y2="195.4" stroke="rgb(0,0,0)"  stroke-width="1.0"/>
<line x1="109.3" y1="201.4" x2="74.6" y2="221.5" stroke="rgb(0,0,0)"  stroke-width="1.0"/>
<line x1="74.6" y1="221.5" x2="40.0" y2="201.4" stroke="rgb(0,0,0)"  stroke-width="1.0"/>
<line x1="73.0" y1="212.2" x2="48.8" y2="198.2" stroke="rgb(0,0,0)"  stroke-width="1.0"/>
<line x1="40.0" y1="201.4" x2="40.0" y2="174.4" stroke="rgb(0,0,0)"  stroke-width="1.0"/>
<line x1="51.4" y1="154.8" x2="74.6" y2="141.4" stroke="rgb(0,0,0)"  stroke-width="1.0"/>
<line x1="56.7" y1="160.1" x2="73.0" y2="150.7" stroke="rgb(0,0,0)"  stroke-width="1.0"/>
<text x="68.552233" y="109.427808" fill="rgb(12,12,255)"  stroke="rgb(12,12,255)" stroke-width="1" font-size="16" >N</text>
<text x="36.225891" y="85.985634" fill="rgb(12,12,255)"  stroke="rgb(12,12,255)" stroke-width="1" font-size="16" >N</text>
<text x="34.000000" y="169.439582" fill="rgb(12,12,255)"  stroke="rgb(12,12,255)" stroke-width="1" font-size="16" >N</text>
<text x="207.168518" y="429.490598" fill="rgb(102,102,102)"  stroke="rgb(102,102,102)" stroke-width="1" font-size="16" >CH</text>
<text x="103.308142" y="289.463128" fill="rgb(12,12,255)"  stroke="rgb(12,12,255)" stroke-width="1" font-size="16" >NH</text>
<text x="68.552233" y="349.474901" fill="rgb(255,12,12)"  stroke="rgb(255,12,12)" stroke-width="1" font-size="16" >O</text>
<text x="137.860375" y="349.474901" fill="rgb(12,12,255)"  stroke="rgb(12,12,255)" stroke-width="1" font-size="16" >NH</text>
<text font-size="18.000000" fill ="black" font-family="sans-serif"
x="10.000000" y="20.000000" ></text>
<title> - OBDepict</title>
</svg>
