<?xml version="1.0"?>
<svg xmlns="http://www.w3.org/2000/svg"
xmlns:xlink="http://www.w3.org/1999/xlink" xmlns:cml="http://www.xml-cml.org/schema" width="368.152" height="327.82" x="0" y="0" font-family="sans-serif" stroke="rgb(0,0,0)" stroke-width="1"  stroke-linecap="round">
<rect x="0%" y="0%" width="100%" height="100%" stroke-width="0" fill="rgb(255,255,255)"  />
<line x1="266.7" y1="104.7" x2="233.3" y2="125.7" stroke="rgb(0,0,0)"  stroke-width="1.0"/>
<line x1="233.3" y1="125.7" x2="195.8" y2="106.2" stroke="rgb(0,0,0)"  stroke-width="1.0"/>
<line x1="195.8" y1="106.2" x2="151.5" y2="136.0" stroke="rgb(0,0,0)"  stroke-width="1.0"/>
<line x1="119.2" y1="262.5" x2="149.3" y2="237.5" stroke="rgb(0,0,0)"  stroke-width="1.0"/>
<line x1="99.1" y1="279.4" x2="119.2" y2="262.5" stroke="rgb(0,0,0)"  stroke-width="1.0"/>
<line x1="96.4" y1="276.2" x2="116.5" y2="259.3" stroke="rgb(0,0,0)"  stroke-width="1.0"/>
<line x1="101.8" y1="282.6" x2="121.9" y2="265.7" stroke="rgb(0,0,0)"  stroke-width="1.0"/>
<line x1="195.5" y1="177.3" x2="169.4" y2="173.6" stroke="rgb(0,0,0)"  stroke-width="1.0"/>
<line x1="196.4" y1="171.4" x2="170.2" y2="167.7" stroke="rgb(0,0,0)"  stroke-width="1.0"/>
<line x1="231.3" y1="145.7" x2="230.3" y2="125.8" stroke="rgb(0,0,0)"  stroke-width="1.0"/>
<line x1="237.3" y1="145.4" x2="236.3" y2="125.5" stroke="rgb(0,0,0)"  stroke-width="1.0"/>
<line x1="149.3" y1="237.5" x2="144.6" y2="211.6" stroke="rgb(0,0,0)"  stroke-width="1.0"/>
<line x1="142.5" y1="103.5" x2="151.5" y2="136.0" stroke="rgb(0,0,0)"  stroke-width="1.0"/>
<line x1="248.9" y1="48.4" x2="269.0" y2="65.3" stroke="rgb(0,0,0)"  stroke-width="1.0"/>
<line x1="309.9" y1="144.4" x2="303.3" y2="119.0" stroke="rgb(0,0,0)"  stroke-width="1.0"/>
<line x1="169.8" y1="170.7" x2="151.4" y2="189.5" stroke="rgb(0,0,0)"  stroke-width="1.0"/>
<line x1="130.7" y1="193.0" x2="107.3" y2="181.3" stroke="rgb(0,0,0)"  stroke-width="1.0"/>
<line x1="107.3" y1="181.3" x2="112.8" y2="142.8" stroke="rgb(0,0,0)"  stroke-width="1.0"/>
<line x1="115.3" y1="176.4" x2="119.1" y2="149.8" stroke="rgb(0,0,0)"  stroke-width="1.0"/>
<line x1="112.8" y1="142.8" x2="151.5" y2="136.0" stroke="rgb(0,0,0)"  stroke-width="1.0"/>
<line x1="151.5" y1="136.0" x2="169.8" y2="170.7" stroke="rgb(0,0,0)"  stroke-width="1.0"/>
<line x1="266.7" y1="104.7" x2="303.3" y2="119.0" stroke="rgb(0,0,0)"  stroke-width="1.0"/>
<line x1="303.3" y1="119.0" x2="320.0" y2="98.6" stroke="rgb(0,0,0)"  stroke-width="1.0"/>
<line x1="301.5" y1="109.8" x2="313.1" y2="95.6" stroke="rgb(0,0,0)"  stroke-width="1.0"/>
<line x1="321.2" y1="77.5" x2="314.1" y2="66.0" stroke="rgb(0,0,0)"  stroke-width="1.0"/>
<line x1="294.6" y1="58.4" x2="269.0" y2="65.3" stroke="rgb(0,0,0)"  stroke-width="1.0"/>
<line x1="269.0" y1="65.3" x2="266.7" y2="104.7" stroke="rgb(0,0,0)"  stroke-width="1.0"/>
<line x1="275.8" y1="71.7" x2="274.2" y2="99.1" stroke="rgb(0,0,0)"  stroke-width="1.0"/>
<line x1="107.3" y1="181.3" x2="71.0" y2="196.2" stroke="rgb(0,0,0)"  stroke-width="1.0"/>
<line x1="71.0" y1="196.2" x2="40.0" y2="172.0" stroke="rgb(0,0,0)"  stroke-width="1.0"/>
<line x1="70.7" y1="186.8" x2="49.2" y2="170.0" stroke="rgb(0,0,0)"  stroke-width="1.0"/>
<line x1="40.0" y1="172.0" x2="45.5" y2="133.0" stroke="rgb(0,0,0)"  stroke-width="1.0"/>
<line x1="45.5" y1="133.0" x2="82.2" y2="118.3" stroke="rgb(0,0,0)"  stroke-width="1.0"/>
<line x1="53.7" y1="137.5" x2="79.3" y2="127.2" stroke="rgb(0,0,0)"  stroke-width="1.0"/>
<line x1="82.2" y1="118.3" x2="112.8" y2="142.8" stroke="rgb(0,0,0)"  stroke-width="1.0"/>
<text x="136.331392" y="206.824417" fill="rgb(12,12,255)"  stroke="rgb(12,12,255)" stroke-width="1" font-size="16" >N</text>
<text x="322.152055" y="96.496078" fill="rgb(12,12,255)"  stroke="rgb(12,12,255)" stroke-width="1" font-size="16" >N</text>
<text x="301.152329" y="62.998443" fill="rgb(12,12,255)"  stroke="rgb(12,12,255)" stroke-width="1" font-size="16" >N</text>
<text x="301.152329" y="46.998443" fill="rgb(12,12,255)"  stroke="rgb(12,12,255)" stroke-width="1" font-size="16" >H</text>
<text x="71.162887" y="295.819627" fill="rgb(102,102,102)"  stroke="rgb(102,102,102)" stroke-width="1" font-size="16" >HC</text>
<text x="202.826555" y="184.162432" fill="rgb(255,12,12)"  stroke="rgb(255,12,12)" stroke-width="1" font-size="16" >O</text>
<text x="228.989289" y="166.491989" fill="rgb(255,12,12)"  stroke="rgb(255,12,12)" stroke-width="1" font-size="16" >O</text>
<text x="120.992584" y="98.996612" fill="rgb(255,12,12)"  stroke="rgb(255,12,12)" stroke-width="1" font-size="16" >HO</text>
<text x="212.990144" y="48.000000" fill="rgb(102,102,102)"  stroke="rgb(102,102,102)" stroke-width="1" font-size="16" >H</text>
<text x="224.990144" y="51.680000" fill="rgb(102,102,102)"  stroke="rgb(102,102,102)" stroke-width="1" font-size="13" >3</text>
<text x="231.490144" y="48.000000" fill="rgb(102,102,102)"  stroke="rgb(102,102,102)" stroke-width="1" font-size="16" >C</text>
<text x="309.153612" y="164.991668" fill="rgb(102,102,102)"  stroke="rgb(102,102,102)" stroke-width="1" font-size="16" >CH</text>
<text x="333.153612" y="168.671668" fill="rgb(102,102,102)"  stroke="rgb(102,102,102)" stroke-width="1" font-size="13" >3</text>
<text font-size="18.000000" fill ="black" font-family="sans-serif"
x="10.000000" y="20.000000" ></text>
<title> - OBDepict</title>
</svg>
