<?xml version="1.0"?>
<svg xmlns="http://www.w3.org/2000/svg"
xmlns:xlink="http://www.w3.org/1999/xlink" xmlns:cml="http://www.xml-cml.org/schema" width="391.752" height="420.042" x="0" y="0" font-family="sans-serif" stroke="rgb(0,0,0)" stroke-width="1"  stroke-linecap="round">
<rect x="0%" y="0%" width="100%" height="100%" stroke-width="0" fill="rgb(255,255,255)"  />
<line x1="178.4" y1="240.0" x2="178.4" y2="200.0" stroke="rgb(0,0,0)"  stroke-width="1.0"/>
<line x1="213.2" y1="140.0" x2="236.5" y2="126.5" stroke="rgb(0,0,0)"  stroke-width="1.0"/>
<line x1="271.2" y1="106.5" x2="259.0" y2="113.5" stroke="rgb(0,0,0)"  stroke-width="1.0"/>
<line x1="120.4" y1="193.5" x2="143.8" y2="180.0" stroke="rgb(0,0,0)"  stroke-width="1.0"/>
<line x1="201.9" y1="253.5" x2="178.4" y2="240.0" stroke="rgb(0,0,0)"  stroke-width="1.0"/>
<line x1="213.2" y1="340.0" x2="213.2" y2="300.0" stroke="rgb(0,0,0)"  stroke-width="1.0"/>
<line x1="236.8" y1="95.2" x2="243.8" y2="107.3" stroke="rgb(0,0,0)"  stroke-width="1.0"/>
<line x1="231.6" y1="98.2" x2="238.6" y2="110.3" stroke="rgb(0,0,0)"  stroke-width="1.0"/>
<line x1="258.6" y1="145.0" x2="251.6" y2="132.8" stroke="rgb(0,0,0)"  stroke-width="1.0"/>
<line x1="263.8" y1="142.0" x2="256.8" y2="129.8" stroke="rgb(0,0,0)"  stroke-width="1.0"/>
<line x1="213.2" y1="367.0" x2="213.2" y2="340.0" stroke="rgb(0,0,0)"  stroke-width="1.0"/>
<line x1="209.0" y1="367.0" x2="209.0" y2="340.0" stroke="rgb(0,0,0)"  stroke-width="1.0"/>
<line x1="217.4" y1="367.0" x2="217.4" y2="340.0" stroke="rgb(0,0,0)"  stroke-width="1.0"/>
<line x1="213.2" y1="300.0" x2="213.2" y2="273.0" stroke="rgb(0,0,0)"  stroke-width="1.0"/>
<line x1="153.6" y1="250.9" x2="176.9" y2="237.4" stroke="rgb(0,0,0)"  stroke-width="1.0"/>
<line x1="156.6" y1="256.1" x2="179.9" y2="242.6" stroke="rgb(0,0,0)"  stroke-width="1.0"/>
<line x1="173.1" y1="300.0" x2="213.2" y2="300.0" stroke="rgb(0,0,0)"  stroke-width="1.0"/>
<line x1="253.2" y1="300.0" x2="213.2" y2="300.0" stroke="rgb(0,0,0)"  stroke-width="1.0"/>
<line x1="159.7" y1="276.7" x2="173.1" y2="300.0" stroke="rgb(0,0,0)"  stroke-width="1.0"/>
<line x1="266.7" y1="323.5" x2="253.2" y2="300.0" stroke="rgb(0,0,0)"  stroke-width="1.0"/>
<line x1="178.4" y1="200.0" x2="143.8" y2="180.0" stroke="rgb(0,0,0)"  stroke-width="1.0"/>
<line x1="176.8" y1="190.8" x2="152.6" y2="176.8" stroke="rgb(0,0,0)"  stroke-width="1.0"/>
<line x1="143.8" y1="180.0" x2="143.8" y2="140.0" stroke="rgb(0,0,0)"  stroke-width="1.0"/>
<line x1="143.8" y1="140.0" x2="178.4" y2="120.0" stroke="rgb(0,0,0)"  stroke-width="1.0"/>
<line x1="152.6" y1="143.2" x2="176.8" y2="129.2" stroke="rgb(0,0,0)"  stroke-width="1.0"/>
<line x1="178.4" y1="120.0" x2="213.2" y2="140.0" stroke="rgb(0,0,0)"  stroke-width="1.0"/>
<line x1="213.2" y1="140.0" x2="213.2" y2="180.0" stroke="rgb(0,0,0)"  stroke-width="1.0"/>
<line x1="206.0" y1="146.0" x2="206.0" y2="174.0" stroke="rgb(0,0,0)"  stroke-width="1.0"/>
<line x1="213.2" y1="180.0" x2="178.4" y2="200.0" stroke="rgb(0,0,0)"  stroke-width="1.0"/>
<line x1="97.8" y1="193.5" x2="74.5" y2="180.0" stroke="rgb(0,0,0)"  stroke-width="1.0"/>
<line x1="74.5" y1="180.0" x2="40.0" y2="200.0" stroke="rgb(0,0,0)"  stroke-width="1.0"/>
<line x1="40.0" y1="200.0" x2="40.0" y2="227.0" stroke="rgb(0,0,0)"  stroke-width="1.0"/>
<line x1="51.3" y1="246.5" x2="74.5" y2="260.0" stroke="rgb(0,0,0)"  stroke-width="1.0"/>
<line x1="74.5" y1="260.0" x2="109.1" y2="240.0" stroke="rgb(0,0,0)"  stroke-width="1.0"/>
<line x1="109.1" y1="240.0" x2="109.1" y2="213.0" stroke="rgb(0,0,0)"  stroke-width="1.0"/>
<line x1="293.7" y1="106.5" x2="317.0" y2="120.0" stroke="rgb(0,0,0)"  stroke-width="1.0"/>
<line x1="317.0" y1="120.0" x2="351.8" y2="100.0" stroke="rgb(0,0,0)"  stroke-width="1.0"/>
<line x1="351.8" y1="100.0" x2="351.8" y2="60.0" stroke="rgb(0,0,0)"  stroke-width="1.0"/>
<line x1="351.8" y1="60.0" x2="317.0" y2="40.0" stroke="rgb(0,0,0)"  stroke-width="1.0"/>
<line x1="317.0" y1="40.0" x2="282.5" y2="60.0" stroke="rgb(0,0,0)"  stroke-width="1.0"/>
<line x1="282.5" y1="60.0" x2="282.5" y2="87.0" stroke="rgb(0,0,0)"  stroke-width="1.0"/>
<text x="241.700749" y="128.009861" fill="rgb(178,178,0)"  stroke="rgb(178,178,0)" stroke-width="1" font-size="16" >S</text>
<text x="276.454123" y="108.007396" fill="rgb(12,12,255)"  stroke="rgb(12,12,255)" stroke-width="1" font-size="16" >N</text>
<text x="103.099425" y="208.019721" fill="rgb(12,12,255)"  stroke="rgb(12,12,255)" stroke-width="1" font-size="16" >N</text>
<text x="207.151037" y="268.027117" fill="rgb(12,12,255)"  stroke="rgb(12,12,255)" stroke-width="1" font-size="16" >NH</text>
<text x="221.698284" y="93.460148" fill="rgb(255,12,12)"  stroke="rgb(255,12,12)" stroke-width="1" font-size="16" >O</text>
<text x="261.703214" y="162.763235" fill="rgb(255,12,12)"  stroke="rgb(255,12,12)" stroke-width="1" font-size="16" >O</text>
<text x="207.151037" y="388.041908" fill="rgb(102,102,102)"  stroke="rgb(102,102,102)" stroke-width="1" font-size="16" >CH</text>
<text x="137.847950" y="268.027117" fill="rgb(255,12,12)"  stroke="rgb(255,12,12)" stroke-width="1" font-size="16" >O</text>
<text x="34.000000" y="248.024652" fill="rgb(255,12,12)"  stroke="rgb(255,12,12)" stroke-width="1" font-size="16" >O</text>
<text x="127.143641" y="273.482335" fill="rgb(102,102,102)"  stroke="rgb(102,102,102)" stroke-width="1" font-size="16" >H</text>
<text x="139.143641" y="277.162335" fill="rgb(102,102,102)"  stroke="rgb(102,102,102)" stroke-width="1" font-size="13" >3</text>
<text x="145.643641" y="273.482335" fill="rgb(102,102,102)"  stroke="rgb(102,102,102)" stroke-width="1" font-size="16" >C</text>
<text x="269.158432" y="342.785421" fill="rgb(102,102,102)"  stroke="rgb(102,102,102)" stroke-width="1" font-size="16" >CH</text>
<text x="293.158432" y="346.465421" fill="rgb(102,102,102)"  stroke="rgb(102,102,102)" stroke-width="1" font-size="13" >3</text>
<text font-size="18.000000" fill ="black" font-family="sans-serif"
x="10.000000" y="20.000000" ></text>
<title> - OBDepict</title>
</svg>
