<?xml version="1.0"?>
<svg xmlns="http://www.w3.org/2000/svg"
xmlns:xlink="http://www.w3.org/1999/xlink" xmlns:cml="http://www.xml-cml.org/schema" width="462.881" height="260.974" x="0" y="0" font-family="sans-serif" stroke="rgb(0,0,0)" stroke-width="1"  stroke-linecap="round">
<rect x="0%" y="0%" width="100%" height="100%" stroke-width="0" fill="rgb(255,255,255)"  />
<line x1="353.8" y1="161.6" x2="353.8" y2="121.6" stroke="rgb(0,0,0)"  stroke-width="1.0"/>
<line x1="353.8" y1="189.1" x2="353.8" y2="161.6" stroke="rgb(0,0,0)"  stroke-width="1.0"/>
<line x1="349.6" y1="189.1" x2="349.6" y2="161.6" stroke="rgb(0,0,0)"  stroke-width="1.0"/>
<line x1="358.0" y1="189.1" x2="358.0" y2="161.6" stroke="rgb(0,0,0)"  stroke-width="1.0"/>
<line x1="250.5" y1="60.1" x2="228.0" y2="46.7" stroke="rgb(0,0,0)"  stroke-width="1.0"/>
<line x1="111.4" y1="98.8" x2="74.8" y2="120.5" stroke="rgb(0,0,0)"  stroke-width="1.0"/>
<line x1="205.4" y1="46.3" x2="180.4" y2="60.1" stroke="rgb(0,0,0)"  stroke-width="1.0"/>
<line x1="388.6" y1="61.2" x2="353.8" y2="41.3" stroke="rgb(0,0,0)"  stroke-width="1.0"/>
<line x1="53.8" y1="104.5" x2="76.3" y2="118.0" stroke="rgb(0,0,0)"  stroke-width="1.0"/>
<line x1="50.7" y1="109.7" x2="73.2" y2="123.1" stroke="rgb(0,0,0)"  stroke-width="1.0"/>
<line x1="247.5" y1="87.4" x2="247.5" y2="60.1" stroke="rgb(0,0,0)"  stroke-width="1.0"/>
<line x1="253.5" y1="87.4" x2="253.5" y2="60.1" stroke="rgb(0,0,0)"  stroke-width="1.0"/>
<line x1="412.9" y1="51.2" x2="390.1" y2="63.8" stroke="rgb(0,0,0)"  stroke-width="1.0"/>
<line x1="410.0" y1="46.0" x2="387.2" y2="58.6" stroke="rgb(0,0,0)"  stroke-width="1.0"/>
<line x1="74.8" y1="147.6" x2="74.8" y2="120.5" stroke="rgb(0,0,0)"  stroke-width="1.0"/>
<line x1="387.9" y1="88.7" x2="388.6" y2="61.2" stroke="rgb(0,0,0)"  stroke-width="1.0"/>
<line x1="353.8" y1="121.6" x2="376.4" y2="108.3" stroke="rgb(0,0,0)"  stroke-width="1.0"/>
<line x1="285.8" y1="41.3" x2="250.5" y2="60.1" stroke="rgb(0,0,0)"  stroke-width="1.0"/>
<line x1="353.8" y1="41.3" x2="319.6" y2="61.2" stroke="rgb(0,0,0)"  stroke-width="1.0"/>
<line x1="319.6" y1="61.2" x2="285.8" y2="41.3" stroke="rgb(0,0,0)"  stroke-width="1.0"/>
<line x1="40.0" y1="180.4" x2="63.5" y2="167.0" stroke="rgb(0,0,0)"  stroke-width="1.0"/>
<line x1="40.0" y1="208.0" x2="40.0" y2="180.4" stroke="rgb(0,0,0)"  stroke-width="1.0"/>
<line x1="111.4" y1="98.8" x2="146.7" y2="119.2" stroke="rgb(0,0,0)"  stroke-width="1.0"/>
<line x1="146.7" y1="119.2" x2="180.4" y2="98.8" stroke="rgb(0,0,0)"  stroke-width="1.0"/>
<line x1="148.1" y1="110.0" x2="171.6" y2="95.8" stroke="rgb(0,0,0)"  stroke-width="1.0"/>
<line x1="180.4" y1="98.8" x2="180.4" y2="60.1" stroke="rgb(0,0,0)"  stroke-width="1.0"/>
<line x1="180.4" y1="60.1" x2="146.7" y2="40.0" stroke="rgb(0,0,0)"  stroke-width="1.0"/>
<line x1="171.6" y1="63.2" x2="148.2" y2="49.3" stroke="rgb(0,0,0)"  stroke-width="1.0"/>
<line x1="146.7" y1="40.0" x2="111.4" y2="58.8" stroke="rgb(0,0,0)"  stroke-width="1.0"/>
<line x1="111.4" y1="58.8" x2="111.4" y2="98.8" stroke="rgb(0,0,0)"  stroke-width="1.0"/>
<line x1="118.6" y1="64.8" x2="118.6" y2="92.8" stroke="rgb(0,0,0)"  stroke-width="1.0"/>
<text x="347.833875" y="210.145401" fill="rgb(102,102,102)"  stroke="rgb(102,102,102)" stroke-width="1" font-size="16" >CH</text>
<text x="210.797707" y="48.000000" fill="rgb(12,12,255)"  stroke="rgb(12,12,255)" stroke-width="1" font-size="16" >N</text>
<text x="210.797707" y="32.000000" fill="rgb(12,12,255)"  stroke="rgb(12,12,255)" stroke-width="1" font-size="16" >H</text>
<text x="35.052483" y="108.413482" fill="rgb(255,12,12)"  stroke="rgb(255,12,12)" stroke-width="1" font-size="16" >O</text>
<text x="244.535358" y="108.413482" fill="rgb(255,12,12)"  stroke="rgb(255,12,12)" stroke-width="1" font-size="16" >O</text>
<text x="416.880626" y="50.352323" fill="rgb(255,12,12)"  stroke="rgb(255,12,12)" stroke-width="1" font-size="16" >O</text>
<text x="68.785283" y="168.560205" fill="rgb(255,12,12)"  stroke="rgb(255,12,12)" stroke-width="1" font-size="16" >O</text>
<text x="381.571526" y="109.718172" fill="rgb(255,12,12)"  stroke="rgb(255,12,12)" stroke-width="1" font-size="16" >O</text>
<text x="36.000000" y="228.973687" fill="rgb(102,102,102)"  stroke="rgb(102,102,102)" stroke-width="1" font-size="16" >CH</text>
<text x="60.000000" y="232.653687" fill="rgb(102,102,102)"  stroke="rgb(102,102,102)" stroke-width="1" font-size="13" >3</text>
<text font-size="18.000000" fill ="black" font-family="sans-serif"
x="10.000000" y="20.000000" ></text>
<title> - OBDepict</title>
</svg>
