<?xml version="1.0"?>
<svg xmlns="http://www.w3.org/2000/svg"
xmlns:xlink="http://www.w3.org/1999/xlink" xmlns:cml="http://www.xml-cml.org/schema" width="325.661" height="280.348" x="0" y="0" font-family="sans-serif" stroke="rgb(0,0,0)" stroke-width="1"  stroke-linecap="round">
<rect x="0%" y="0%" width="100%" height="100%" stroke-width="0" fill="rgb(255,255,255)"  />
<line x1="211.9" y1="157.3" x2="160.8" y2="174.0" stroke="rgb(0,0,0)"  stroke-width="1.0"/>
<line x1="210.0" y1="151.6" x2="158.9" y2="168.3" stroke="rgb(0,0,0)"  stroke-width="1.0"/>
<line x1="219.3" y1="116.3" x2="210.9" y2="154.5" stroke="rgb(0,0,0)"  stroke-width="1.0"/>
<line x1="50.5" y1="120.5" x2="58.9" y2="159.1" stroke="rgb(0,0,0)"  stroke-width="1.0"/>
<line x1="43.5" y1="94.9" x2="50.5" y2="120.5" stroke="rgb(0,0,0)"  stroke-width="1.0"/>
<line x1="47.5" y1="93.7" x2="54.6" y2="119.4" stroke="rgb(0,0,0)"  stroke-width="1.0"/>
<line x1="39.4" y1="96.0" x2="46.5" y2="121.6" stroke="rgb(0,0,0)"  stroke-width="1.0"/>
<line x1="90.4" y1="228.1" x2="106.0" y2="207.0" stroke="rgb(0,0,0)"  stroke-width="1.0"/>
<line x1="95.2" y1="231.7" x2="110.8" y2="210.5" stroke="rgb(0,0,0)"  stroke-width="1.0"/>
<line x1="130.8" y1="121.5" x2="131.0" y2="147.9" stroke="rgb(0,0,0)"  stroke-width="1.0"/>
<line x1="124.8" y1="121.6" x2="125.0" y2="148.0" stroke="rgb(0,0,0)"  stroke-width="1.0"/>
<line x1="58.9" y1="159.1" x2="83.7" y2="167.1" stroke="rgb(0,0,0)"  stroke-width="1.0"/>
<line x1="276.0" y1="121.9" x2="256.4" y2="104.4" stroke="rgb(0,0,0)"  stroke-width="1.0"/>
<line x1="165.1" y1="97.9" x2="190.3" y2="90.1" stroke="rgb(0,0,0)"  stroke-width="1.0"/>
<line x1="100.1" y1="183.5" x2="108.4" y2="208.7" stroke="rgb(0,0,0)"  stroke-width="1.0"/>
<line x1="108.4" y1="208.7" x2="134.7" y2="208.7" stroke="rgb(0,0,0)"  stroke-width="1.0"/>
<line x1="151.7" y1="196.4" x2="159.9" y2="171.2" stroke="rgb(0,0,0)"  stroke-width="1.0"/>
<line x1="159.9" y1="171.2" x2="128.0" y2="147.9" stroke="rgb(0,0,0)"  stroke-width="1.0"/>
<line x1="128.0" y1="147.9" x2="106.6" y2="163.5" stroke="rgb(0,0,0)"  stroke-width="1.0"/>
<line x1="219.3" y1="116.3" x2="256.4" y2="104.4" stroke="rgb(0,0,0)"  stroke-width="1.0"/>
<line x1="256.4" y1="104.4" x2="264.8" y2="66.2" stroke="rgb(0,0,0)"  stroke-width="1.0"/>
<line x1="250.7" y1="97.0" x2="256.5" y2="70.6" stroke="rgb(0,0,0)"  stroke-width="1.0"/>
<line x1="264.8" y1="66.2" x2="235.6" y2="40.0" stroke="rgb(0,0,0)"  stroke-width="1.0"/>
<line x1="235.6" y1="40.0" x2="198.6" y2="51.7" stroke="rgb(0,0,0)"  stroke-width="1.0"/>
<line x1="232.0" y1="48.7" x2="206.5" y2="56.8" stroke="rgb(0,0,0)"  stroke-width="1.0"/>
<line x1="198.6" y1="51.7" x2="190.3" y2="90.1" stroke="rgb(0,0,0)"  stroke-width="1.0"/>
<line x1="190.3" y1="90.1" x2="219.3" y2="116.3" stroke="rgb(0,0,0)"  stroke-width="1.0"/>
<line x1="199.5" y1="88.8" x2="219.7" y2="107.0" stroke="rgb(0,0,0)"  stroke-width="1.0"/>
<text x="90.046279" y="179.179232" fill="rgb(12,12,255)"  stroke="rgb(12,12,255)" stroke-width="1" font-size="16" >N</text>
<text x="141.723091" y="216.743328" fill="rgb(178,178,0)"  stroke="rgb(178,178,0)" stroke-width="1" font-size="16" >S</text>
<text x="22.000000" y="90.333385" fill="rgb(102,102,102)"  stroke="rgb(102,102,102)" stroke-width="1" font-size="16" >HC</text>
<text x="79.113090" y="248.348194" fill="rgb(255,12,12)"  stroke="rgb(255,12,12)" stroke-width="1" font-size="16" >O</text>
<text x="121.651145" y="116.569231" fill="rgb(255,12,12)"  stroke="rgb(255,12,12)" stroke-width="1" font-size="16" >O</text>
<text x="279.661194" y="138.630760" fill="rgb(30,239,30)"  stroke="rgb(30,239,30)" stroke-width="1" font-size="16" >Cl</text>
<text x="146.692289" y="109.810359" fill="rgb(127,178,255)"  stroke="rgb(127,178,255)" stroke-width="1" font-size="16" >F</text>
<text font-size="18.000000" fill ="black" font-family="sans-serif"
x="10.000000" y="20.000000" ></text>
<title> - OBDepict</title>
</svg>
