<?xml version="1.0"?>
<svg xmlns="http://www.w3.org/2000/svg"
xmlns:xlink="http://www.w3.org/1999/xlink" xmlns:cml="http://www.xml-cml.org/schema" width="393.054" height="222.439" x="0" y="0" font-family="sans-serif" stroke="rgb(0,0,0)" stroke-width="1"  stroke-linecap="round">
<rect x="0%" y="0%" width="100%" height="100%" stroke-width="0" fill="rgb(255,255,255)"  />
<line x1="329.7" y1="121.5" x2="291.0" y2="124.8" stroke="rgb(0,0,0)"  stroke-width="1.0"/>
<line x1="345.5" y1="143.7" x2="329.7" y2="121.5" stroke="rgb(0,0,0)"  stroke-width="1.0"/>
<line x1="342.1" y1="146.1" x2="326.3" y2="123.9" stroke="rgb(0,0,0)"  stroke-width="1.0"/>
<line x1="348.9" y1="141.2" x2="333.1" y2="119.0" stroke="rgb(0,0,0)"  stroke-width="1.0"/>
<line x1="143.1" y1="50.0" x2="161.0" y2="71.5" stroke="rgb(0,0,0)"  stroke-width="1.0"/>
<line x1="253.9" y1="94.1" x2="226.1" y2="97.7" stroke="rgb(0,0,0)"  stroke-width="1.0"/>
<line x1="291.0" y1="124.8" x2="274.6" y2="102.8" stroke="rgb(0,0,0)"  stroke-width="1.0"/>
<line x1="110.8" y1="161.5" x2="109.5" y2="122.8" stroke="rgb(0,0,0)"  stroke-width="1.0"/>
<line x1="117.8" y1="155.2" x2="116.9" y2="128.6" stroke="rgb(0,0,0)"  stroke-width="1.0"/>
<line x1="109.5" y1="122.8" x2="146.2" y2="109.0" stroke="rgb(0,0,0)"  stroke-width="1.0"/>
<line x1="146.2" y1="109.0" x2="171.5" y2="140.5" stroke="rgb(0,0,0)"  stroke-width="1.0"/>
<line x1="144.3" y1="118.2" x2="162.1" y2="140.3" stroke="rgb(0,0,0)"  stroke-width="1.0"/>
<line x1="171.5" y1="140.5" x2="156.7" y2="162.3" stroke="rgb(0,0,0)"  stroke-width="1.0"/>
<line x1="137.0" y1="169.3" x2="110.8" y2="161.5" stroke="rgb(0,0,0)"  stroke-width="1.0"/>
<line x1="146.2" y1="109.0" x2="161.0" y2="71.5" stroke="rgb(0,0,0)"  stroke-width="1.0"/>
<line x1="161.0" y1="71.5" x2="187.1" y2="67.2" stroke="rgb(0,0,0)"  stroke-width="1.0"/>
<line x1="168.1" y1="77.6" x2="186.2" y2="74.7" stroke="rgb(0,0,0)"  stroke-width="1.0"/>
<line x1="208.1" y1="75.3" x2="226.1" y2="97.7" stroke="rgb(0,0,0)"  stroke-width="1.0"/>
<line x1="226.1" y1="97.7" x2="216.3" y2="122.3" stroke="rgb(0,0,0)"  stroke-width="1.0"/>
<line x1="217.2" y1="100.6" x2="210.4" y2="117.7" stroke="rgb(0,0,0)"  stroke-width="1.0"/>
<line x1="198.6" y1="136.3" x2="171.5" y2="140.5" stroke="rgb(0,0,0)"  stroke-width="1.0"/>
<line x1="74.1" y1="103.8" x2="40.0" y2="124.8" stroke="rgb(0,0,0)"  stroke-width="1.0"/>
<line x1="40.0" y1="124.8" x2="41.3" y2="163.4" stroke="rgb(0,0,0)"  stroke-width="1.0"/>
<line x1="41.3" y1="163.4" x2="77.1" y2="182.4" stroke="rgb(0,0,0)"  stroke-width="1.0"/>
<line x1="77.1" y1="182.4" x2="110.8" y2="161.5" stroke="rgb(0,0,0)"  stroke-width="1.0"/>
<line x1="109.5" y1="122.8" x2="74.1" y2="103.8" stroke="rgb(0,0,0)"  stroke-width="1.0"/>
<text x="205.493142" y="142.375553" fill="rgb(12,12,255)"  stroke="rgb(12,12,255)" stroke-width="1" font-size="16" >N</text>
<text x="193.915075" y="73.125423" fill="rgb(12,12,255)"  stroke="rgb(12,12,255)" stroke-width="1" font-size="16" >N</text>
<text x="143.450807" y="181.043483" fill="rgb(178,178,0)"  stroke="rgb(178,178,0)" stroke-width="1" font-size="16" >S</text>
<text x="347.054046" y="162.257621" fill="rgb(102,102,102)"  stroke="rgb(102,102,102)" stroke-width="1" font-size="16" >CH</text>
<text x="108.812095" y="48.000000" fill="rgb(12,12,255)"  stroke="rgb(12,12,255)" stroke-width="1" font-size="16" >H</text>
<text x="120.812095" y="51.680000" fill="rgb(12,12,255)"  stroke="rgb(12,12,255)" stroke-width="1" font-size="13" >2</text>
<text x="127.312095" y="48.000000" fill="rgb(12,12,255)"  stroke="rgb(12,12,255)" stroke-width="1" font-size="16" >N</text>
<text x="260.764223" y="100.433558" fill="rgb(178,178,0)"  stroke="rgb(178,178,0)" stroke-width="1" font-size="16" >S</text>
<text font-size="18.000000" fill ="black" font-family="sans-serif"
x="10.000000" y="20.000000" ></text>
<title> - OBDepict</title>
</svg>
