<?xml version="1.0"?>
<svg xmlns="http://www.w3.org/2000/svg"
xmlns:xlink="http://www.w3.org/1999/xlink" xmlns:cml="http://www.xml-cml.org/schema" width="383.331" height="334.862" x="0" y="0" font-family="sans-serif" stroke="rgb(0,0,0)" stroke-width="1"  stroke-linecap="round">
<rect x="0%" y="0%" width="100%" height="100%" stroke-width="0" fill="rgb(255,255,255)"  />
<line x1="140.0" y1="224.4" x2="180.0" y2="224.4" stroke="rgb(0,0,0)"  stroke-width="1.0"/>
<line x1="291.8" y1="154.1" x2="283.5" y2="179.7" stroke="rgb(0,0,0)"  stroke-width="1.0"/>
<line x1="60.0" y1="155.1" x2="80.0" y2="189.8" stroke="rgb(0,0,0)"  stroke-width="1.0"/>
<line x1="46.5" y1="131.8" x2="60.0" y2="155.1" stroke="rgb(0,0,0)"  stroke-width="1.0"/>
<line x1="50.1" y1="129.7" x2="63.6" y2="153.0" stroke="rgb(0,0,0)"  stroke-width="1.0"/>
<line x1="42.9" y1="133.9" x2="56.4" y2="157.2" stroke="rgb(0,0,0)"  stroke-width="1.0"/>
<line x1="123.9" y1="246.4" x2="137.4" y2="222.9" stroke="rgb(0,0,0)"  stroke-width="1.0"/>
<line x1="129.1" y1="249.3" x2="142.6" y2="225.9" stroke="rgb(0,0,0)"  stroke-width="1.0"/>
<line x1="126.5" y1="201.1" x2="140.0" y2="224.4" stroke="rgb(0,0,0)"  stroke-width="1.0"/>
<line x1="325.0" y1="52.4" x2="316.7" y2="78.0" stroke="rgb(0,0,0)"  stroke-width="1.0"/>
<line x1="80.0" y1="189.8" x2="107.0" y2="189.8" stroke="rgb(0,0,0)"  stroke-width="1.0"/>
<line x1="287.8" y1="282.5" x2="279.5" y2="256.9" stroke="rgb(0,0,0)"  stroke-width="1.0"/>
<line x1="241.5" y1="204.4" x2="267.1" y2="196.1" stroke="rgb(0,0,0)"  stroke-width="1.0"/>
<line x1="287.2" y1="202.6" x2="295.5" y2="213.9" stroke="rgb(0,0,0)"  stroke-width="1.0"/>
<line x1="295.3" y1="235.1" x2="279.5" y2="256.9" stroke="rgb(0,0,0)"  stroke-width="1.0"/>
<line x1="288.4" y1="232.5" x2="277.2" y2="247.8" stroke="rgb(0,0,0)"  stroke-width="1.0"/>
<line x1="279.5" y1="256.9" x2="241.5" y2="244.4" stroke="rgb(0,0,0)"  stroke-width="1.0"/>
<line x1="241.5" y1="244.4" x2="241.5" y2="204.4" stroke="rgb(0,0,0)"  stroke-width="1.0"/>
<line x1="248.7" y1="238.4" x2="248.7" y2="210.4" stroke="rgb(0,0,0)"  stroke-width="1.0"/>
<line x1="180.0" y1="224.4" x2="195.9" y2="202.6" stroke="rgb(0,0,0)"  stroke-width="1.0"/>
<line x1="215.9" y1="196.1" x2="241.5" y2="204.4" stroke="rgb(0,0,0)"  stroke-width="1.0"/>
<line x1="241.5" y1="244.4" x2="203.6" y2="256.9" stroke="rgb(0,0,0)"  stroke-width="1.0"/>
<line x1="203.6" y1="256.9" x2="180.0" y2="224.4" stroke="rgb(0,0,0)"  stroke-width="1.0"/>
<line x1="205.9" y1="247.8" x2="189.3" y2="225.0" stroke="rgb(0,0,0)"  stroke-width="1.0"/>
<line x1="291.8" y1="154.1" x2="331.0" y2="145.8" stroke="rgb(0,0,0)"  stroke-width="1.0"/>
<line x1="331.0" y1="145.8" x2="343.3" y2="107.7" stroke="rgb(0,0,0)"  stroke-width="1.0"/>
<line x1="326.0" y1="137.9" x2="334.6" y2="111.2" stroke="rgb(0,0,0)"  stroke-width="1.0"/>
<line x1="343.3" y1="107.7" x2="316.7" y2="78.0" stroke="rgb(0,0,0)"  stroke-width="1.0"/>
<line x1="316.7" y1="78.0" x2="277.5" y2="86.2" stroke="rgb(0,0,0)"  stroke-width="1.0"/>
<line x1="312.3" y1="86.3" x2="284.9" y2="92.0" stroke="rgb(0,0,0)"  stroke-width="1.0"/>
<line x1="277.5" y1="86.2" x2="265.2" y2="124.4" stroke="rgb(0,0,0)"  stroke-width="1.0"/>
<line x1="265.2" y1="124.4" x2="291.8" y2="154.1" stroke="rgb(0,0,0)"  stroke-width="1.0"/>
<line x1="274.5" y1="124.1" x2="293.2" y2="144.8" stroke="rgb(0,0,0)"  stroke-width="1.0"/>
<text x="273.512433" y="200.070232" fill="rgb(12,12,255)"  stroke="rgb(12,12,255)" stroke-width="1" font-size="16" >N</text>
<text x="297.140876" y="232.379401" fill="rgb(12,12,255)"  stroke="rgb(12,12,255)" stroke-width="1" font-size="16" >N</text>
<text x="197.581525" y="200.070232" fill="rgb(178,178,0)"  stroke="rgb(178,178,0)" stroke-width="1" font-size="16" >S</text>
<text x="22.000000" y="128.579047" fill="rgb(102,102,102)"  stroke="rgb(102,102,102)" stroke-width="1" font-size="16" >HC</text>
<text x="113.973190" y="267.116847" fill="rgb(255,12,12)"  stroke="rgb(255,12,12)" stroke-width="1" font-size="16" >O</text>
<text x="113.973190" y="197.845524" fill="rgb(12,12,255)"  stroke="rgb(12,12,255)" stroke-width="1" font-size="16" >N</text>
<text x="113.973190" y="181.845524" fill="rgb(12,12,255)"  stroke="rgb(12,12,255)" stroke-width="1" font-size="16" >H</text>
<text x="322.994027" y="48.000000" fill="rgb(30,239,30)"  stroke="rgb(30,239,30)" stroke-width="1" font-size="16" >Cl</text>
<text x="287.833152" y="302.862439" fill="rgb(102,102,102)"  stroke="rgb(102,102,102)" stroke-width="1" font-size="16" >CH</text>
<text x="311.833152" y="306.542439" fill="rgb(102,102,102)"  stroke="rgb(102,102,102)" stroke-width="1" font-size="13" >3</text>
<text font-size="18.000000" fill ="black" font-family="sans-serif"
x="10.000000" y="20.000000" ></text>
<title> - OBDepict</title>
</svg>
