<?xml version="1.0"?>
<svg xmlns="http://www.w3.org/2000/svg"
xmlns:xlink="http://www.w3.org/1999/xlink" xmlns:cml="http://www.xml-cml.org/schema" width="422.869" height="422.316" x="0" y="0" font-family="sans-serif" stroke="rgb(0,0,0)" stroke-width="1"  stroke-linecap="round">
<rect x="0%" y="0%" width="100%" height="100%" stroke-width="0" fill="rgb(255,255,255)"  />
<line x1="211.1" y1="199.9" x2="176.9" y2="220.3" stroke="rgb(0,0,0)"  stroke-width="1.0"/>
<line x1="247.9" y1="261.4" x2="224.5" y2="275.6" stroke="rgb(0,0,0)"  stroke-width="1.0"/>
<line x1="244.8" y1="256.3" x2="221.4" y2="270.5" stroke="rgb(0,0,0)"  stroke-width="1.0"/>
<line x1="177.3" y1="143.1" x2="154.0" y2="156.9" stroke="rgb(0,0,0)"  stroke-width="1.0"/>
<line x1="174.3" y1="137.9" x2="150.9" y2="151.7" stroke="rgb(0,0,0)"  stroke-width="1.0"/>
<line x1="290.9" y1="152.5" x2="314.1" y2="138.5" stroke="rgb(0,0,0)"  stroke-width="1.0"/>
<line x1="107.6" y1="221.2" x2="83.9" y2="208.1" stroke="rgb(0,0,0)"  stroke-width="1.0"/>
<line x1="314.1" y1="138.5" x2="349.1" y2="157.8" stroke="rgb(0,0,0)"  stroke-width="1.0"/>
<line x1="315.6" y1="258.5" x2="302.1" y2="282.4" stroke="rgb(0,0,0)"  stroke-width="1.0"/>
<line x1="315.6" y1="258.5" x2="339.4" y2="271.8" stroke="rgb(0,0,0)"  stroke-width="1.0"/>
<line x1="209.6" y1="80.6" x2="209.2" y2="53.0" stroke="rgb(0,0,0)"  stroke-width="1.0"/>
<line x1="209.6" y1="80.6" x2="182.2" y2="81.1" stroke="rgb(0,0,0)"  stroke-width="1.0"/>
<line x1="108.4" y1="261.0" x2="85.0" y2="275.1" stroke="rgb(0,0,0)"  stroke-width="1.0"/>
<line x1="72.3" y1="188.9" x2="72.1" y2="174.8" stroke="rgb(0,0,0)"  stroke-width="1.0"/>
<line x1="349.1" y1="157.8" x2="371.8" y2="144.0" stroke="rgb(0,0,0)"  stroke-width="1.0"/>
<line x1="352.1" y1="157.7" x2="352.4" y2="184.8" stroke="rgb(0,0,0)"  stroke-width="1.0"/>
<line x1="346.1" y1="157.8" x2="346.4" y2="184.9" stroke="rgb(0,0,0)"  stroke-width="1.0"/>
<line x1="74.0" y1="294.8" x2="74.5" y2="321.7" stroke="rgb(0,0,0)"  stroke-width="1.0"/>
<line x1="74.5" y1="321.7" x2="40.0" y2="342.5" stroke="rgb(0,0,0)"  stroke-width="1.0"/>
<line x1="40.0" y1="342.5" x2="40.4" y2="369.3" stroke="rgb(0,0,0)"  stroke-width="1.0"/>
<line x1="44.2" y1="342.4" x2="44.6" y2="369.3" stroke="rgb(0,0,0)"  stroke-width="1.0"/>
<line x1="35.8" y1="342.5" x2="36.2" y2="369.4" stroke="rgb(0,0,0)"  stroke-width="1.0"/>
<line x1="211.1" y1="199.9" x2="210.9" y2="159.8" stroke="rgb(0,0,0)"  stroke-width="1.0"/>
<line x1="210.9" y1="159.8" x2="245.1" y2="140.0" stroke="rgb(0,0,0)"  stroke-width="1.0"/>
<line x1="219.7" y1="163.0" x2="243.5" y2="149.2" stroke="rgb(0,0,0)"  stroke-width="1.0"/>
<line x1="245.1" y1="140.0" x2="268.4" y2="152.9" stroke="rgb(0,0,0)"  stroke-width="1.0"/>
<line x1="280.0" y1="172.3" x2="280.3" y2="198.9" stroke="rgb(0,0,0)"  stroke-width="1.0"/>
<line x1="280.3" y1="198.9" x2="246.2" y2="219.2" stroke="rgb(0,0,0)"  stroke-width="1.0"/>
<line x1="271.5" y1="195.8" x2="247.7" y2="209.9" stroke="rgb(0,0,0)"  stroke-width="1.0"/>
<line x1="246.2" y1="219.2" x2="211.1" y2="199.9" stroke="rgb(0,0,0)"  stroke-width="1.0"/>
<line x1="244.3" y1="99.7" x2="245.1" y2="140.0" stroke="rgb(0,0,0)"  stroke-width="1.0"/>
<line x1="210.9" y1="159.8" x2="175.8" y2="140.5" stroke="rgb(0,0,0)"  stroke-width="1.0"/>
<line x1="175.8" y1="140.5" x2="175.6" y2="100.6" stroke="rgb(0,0,0)"  stroke-width="1.0"/>
<line x1="175.6" y1="100.6" x2="209.6" y2="80.6" stroke="rgb(0,0,0)"  stroke-width="1.0"/>
<line x1="209.6" y1="80.6" x2="244.3" y2="99.7" stroke="rgb(0,0,0)"  stroke-width="1.0"/>
<line x1="246.2" y1="219.2" x2="246.3" y2="258.8" stroke="rgb(0,0,0)"  stroke-width="1.0"/>
<line x1="246.3" y1="258.8" x2="281.4" y2="278.5" stroke="rgb(0,0,0)"  stroke-width="1.0"/>
<line x1="281.4" y1="278.5" x2="315.6" y2="258.5" stroke="rgb(0,0,0)"  stroke-width="1.0"/>
<line x1="315.6" y1="258.5" x2="315.1" y2="218.2" stroke="rgb(0,0,0)"  stroke-width="1.0"/>
<line x1="315.1" y1="218.2" x2="280.3" y2="198.9" stroke="rgb(0,0,0)"  stroke-width="1.0"/>
<line x1="176.9" y1="220.3" x2="177.6" y2="259.9" stroke="rgb(0,0,0)"  stroke-width="1.0"/>
<line x1="169.8" y1="226.4" x2="170.3" y2="254.1" stroke="rgb(0,0,0)"  stroke-width="1.0"/>
<line x1="177.6" y1="259.9" x2="143.1" y2="280.9" stroke="rgb(0,0,0)"  stroke-width="1.0"/>
<line x1="143.1" y1="280.9" x2="108.4" y2="261.0" stroke="rgb(0,0,0)"  stroke-width="1.0"/>
<line x1="141.4" y1="271.7" x2="117.1" y2="257.8" stroke="rgb(0,0,0)"  stroke-width="1.0"/>
<line x1="108.4" y1="261.0" x2="107.6" y2="221.2" stroke="rgb(0,0,0)"  stroke-width="1.0"/>
<line x1="107.6" y1="221.2" x2="141.8" y2="200.4" stroke="rgb(0,0,0)"  stroke-width="1.0"/>
<line x1="116.5" y1="224.2" x2="140.4" y2="209.7" stroke="rgb(0,0,0)"  stroke-width="1.0"/>
<line x1="141.8" y1="200.4" x2="176.9" y2="220.3" stroke="rgb(0,0,0)"  stroke-width="1.0"/>
<text x="273.784837" y="167.252475" fill="rgb(12,12,255)"  stroke="rgb(12,12,255)" stroke-width="1" font-size="16" >N</text>
<text x="205.805400" y="287.789685" fill="rgb(255,12,12)"  stroke="rgb(255,12,12)" stroke-width="1" font-size="16" >O</text>
<text x="135.241948" y="168.910510" fill="rgb(255,12,12)"  stroke="rgb(255,12,12)" stroke-width="1" font-size="16" >O</text>
<text x="66.525606" y="209.881429" fill="rgb(255,12,12)"  stroke="rgb(255,12,12)" stroke-width="1" font-size="16" >O</text>
<text x="269.773725" y="301.756934" fill="rgb(102,102,102)"  stroke="rgb(102,102,102)" stroke-width="1" font-size="16" >H</text>
<text x="281.773725" y="305.436934" fill="rgb(102,102,102)"  stroke="rgb(102,102,102)" stroke-width="1" font-size="13" >3</text>
<text x="288.273725" y="301.756934" fill="rgb(102,102,102)"  stroke="rgb(102,102,102)" stroke-width="1" font-size="16" >C</text>
<text x="346.711893" y="286.136498" fill="rgb(102,102,102)"  stroke="rgb(102,102,102)" stroke-width="1" font-size="16" >CH</text>
<text x="370.711893" y="289.816498" fill="rgb(102,102,102)"  stroke="rgb(102,102,102)" stroke-width="1" font-size="13" >3</text>
<text x="183.042008" y="48.000000" fill="rgb(102,102,102)"  stroke="rgb(102,102,102)" stroke-width="1" font-size="16" >H</text>
<text x="195.042008" y="51.680000" fill="rgb(102,102,102)"  stroke="rgb(102,102,102)" stroke-width="1" font-size="13" >3</text>
<text x="201.542008" y="48.000000" fill="rgb(102,102,102)"  stroke="rgb(102,102,102)" stroke-width="1" font-size="16" >C</text>
<text x="143.176445" y="89.349067" fill="rgb(102,102,102)"  stroke="rgb(102,102,102)" stroke-width="1" font-size="16" >H</text>
<text x="155.176445" y="93.029067" fill="rgb(102,102,102)"  stroke="rgb(102,102,102)" stroke-width="1" font-size="13" >3</text>
<text x="161.676445" y="89.349067" fill="rgb(102,102,102)"  stroke="rgb(102,102,102)" stroke-width="1" font-size="16" >C</text>
<text x="67.810341" y="289.811325" fill="rgb(255,12,12)"  stroke="rgb(255,12,12)" stroke-width="1" font-size="16" >O</text>
<text x="45.968080" y="169.826793" fill="rgb(102,102,102)"  stroke="rgb(102,102,102)" stroke-width="1" font-size="16" >H</text>
<text x="57.968080" y="173.506793" fill="rgb(102,102,102)"  stroke="rgb(102,102,102)" stroke-width="1" font-size="13" >3</text>
<text x="64.468080" y="169.826793" fill="rgb(102,102,102)"  stroke="rgb(102,102,102)" stroke-width="1" font-size="16" >C</text>
<text x="376.869047" y="145.203518" fill="rgb(255,12,12)"  stroke="rgb(255,12,12)" stroke-width="1" font-size="16" >OH</text>
<text x="343.611384" y="205.842999" fill="rgb(255,12,12)"  stroke="rgb(255,12,12)" stroke-width="1" font-size="16" >O</text>
<text x="34.552678" y="390.316368" fill="rgb(102,102,102)"  stroke="rgb(102,102,102)" stroke-width="1" font-size="16" >CH</text>
<text font-size="18.000000" fill ="black" font-family="sans-serif"
x="10.000000" y="20.000000" ></text>
<title> - OBDepict</title>
</svg>
