<?xml version="1.0"?>
<svg xmlns="http://www.w3.org/2000/svg"
xmlns:xlink="http://www.w3.org/1999/xlink" xmlns:cml="http://www.xml-cml.org/schema" width="310.725" height="460.024" x="0" y="0" font-family="sans-serif" stroke="rgb(0,0,0)" stroke-width="1"  stroke-linecap="round">
<rect x="0%" y="0%" width="100%" height="100%" stroke-width="0" fill="rgb(255,255,255)"  />
<line x1="176.2" y1="147.0" x2="176.2" y2="120.0" stroke="rgb(0,0,0)"  stroke-width="1.0"/>
<line x1="176.2" y1="280.0" x2="176.2" y2="240.0" stroke="rgb(0,0,0)"  stroke-width="1.0"/>
<line x1="199.5" y1="293.5" x2="176.2" y2="280.0" stroke="rgb(0,0,0)"  stroke-width="1.0"/>
<line x1="210.7" y1="380.0" x2="210.7" y2="340.0" stroke="rgb(0,0,0)"  stroke-width="1.0"/>
<line x1="210.7" y1="407.0" x2="210.7" y2="380.0" stroke="rgb(0,0,0)"  stroke-width="1.0"/>
<line x1="206.5" y1="407.0" x2="206.5" y2="380.0" stroke="rgb(0,0,0)"  stroke-width="1.0"/>
<line x1="214.9" y1="407.0" x2="214.9" y2="380.0" stroke="rgb(0,0,0)"  stroke-width="1.0"/>
<line x1="210.7" y1="340.0" x2="210.7" y2="313.0" stroke="rgb(0,0,0)"  stroke-width="1.0"/>
<line x1="151.2" y1="290.9" x2="174.7" y2="277.4" stroke="rgb(0,0,0)"  stroke-width="1.0"/>
<line x1="154.2" y1="296.1" x2="177.7" y2="282.6" stroke="rgb(0,0,0)"  stroke-width="1.0"/>
<line x1="95.1" y1="137.9" x2="103.4" y2="112.3" stroke="rgb(0,0,0)"  stroke-width="1.0"/>
<line x1="53.0" y1="80.0" x2="80.0" y2="80.0" stroke="rgb(0,0,0)"  stroke-width="1.0"/>
<line x1="250.7" y1="340.0" x2="210.7" y2="340.0" stroke="rgb(0,0,0)"  stroke-width="1.0"/>
<line x1="170.7" y1="340.0" x2="210.7" y2="340.0" stroke="rgb(0,0,0)"  stroke-width="1.0"/>
<line x1="264.2" y1="363.3" x2="250.7" y2="340.0" stroke="rgb(0,0,0)"  stroke-width="1.0"/>
<line x1="157.2" y1="316.5" x2="170.7" y2="340.0" stroke="rgb(0,0,0)"  stroke-width="1.0"/>
<line x1="141.4" y1="100.0" x2="103.4" y2="112.3" stroke="rgb(0,0,0)"  stroke-width="1.0"/>
<line x1="103.4" y1="112.3" x2="80.0" y2="80.0" stroke="rgb(0,0,0)"  stroke-width="1.0"/>
<line x1="105.7" y1="103.2" x2="89.4" y2="80.6" stroke="rgb(0,0,0)"  stroke-width="1.0"/>
<line x1="80.0" y1="80.0" x2="95.8" y2="58.0" stroke="rgb(0,0,0)"  stroke-width="1.0"/>
<line x1="115.8" y1="51.5" x2="141.4" y2="60.0" stroke="rgb(0,0,0)"  stroke-width="1.0"/>
<line x1="141.4" y1="60.0" x2="141.4" y2="100.0" stroke="rgb(0,0,0)"  stroke-width="1.0"/>
<line x1="141.4" y1="60.0" x2="164.7" y2="46.6" stroke="rgb(0,0,0)"  stroke-width="1.0"/>
<line x1="150.2" y1="63.2" x2="166.6" y2="53.8" stroke="rgb(0,0,0)"  stroke-width="1.0"/>
<line x1="187.4" y1="46.5" x2="210.7" y2="60.0" stroke="rgb(0,0,0)"  stroke-width="1.0"/>
<line x1="210.7" y1="60.0" x2="210.7" y2="86.8" stroke="rgb(0,0,0)"  stroke-width="1.0"/>
<line x1="203.5" y1="66.0" x2="203.5" y2="84.8" stroke="rgb(0,0,0)"  stroke-width="1.0"/>
<line x1="199.5" y1="106.5" x2="176.2" y2="120.0" stroke="rgb(0,0,0)"  stroke-width="1.0"/>
<line x1="176.2" y1="120.0" x2="141.4" y2="100.0" stroke="rgb(0,0,0)"  stroke-width="1.0"/>
<line x1="174.6" y1="110.8" x2="150.2" y2="96.8" stroke="rgb(0,0,0)"  stroke-width="1.0"/>
<line x1="187.4" y1="166.5" x2="210.7" y2="180.0" stroke="rgb(0,0,0)"  stroke-width="1.0"/>
<line x1="210.7" y1="180.0" x2="210.7" y2="220.0" stroke="rgb(0,0,0)"  stroke-width="1.0"/>
<line x1="210.7" y1="220.0" x2="176.2" y2="240.0" stroke="rgb(0,0,0)"  stroke-width="1.0"/>
<line x1="176.2" y1="240.0" x2="141.4" y2="220.0" stroke="rgb(0,0,0)"  stroke-width="1.0"/>
<line x1="141.4" y1="220.0" x2="141.4" y2="180.0" stroke="rgb(0,0,0)"  stroke-width="1.0"/>
<line x1="141.4" y1="180.0" x2="164.9" y2="166.5" stroke="rgb(0,0,0)"  stroke-width="1.0"/>
<text x="97.441538" y="55.476831" fill="rgb(178,178,0)"  stroke="rgb(178,178,0)" stroke-width="1" font-size="16" >S</text>
<text x="170.173353" y="168.007495" fill="rgb(12,12,255)"  stroke="rgb(12,12,255)" stroke-width="1" font-size="16" >N</text>
<text x="170.173353" y="48.000000" fill="rgb(12,12,255)"  stroke="rgb(12,12,255)" stroke-width="1" font-size="16" >N</text>
<text x="204.720966" y="108.003748" fill="rgb(12,12,255)"  stroke="rgb(12,12,255)" stroke-width="1" font-size="16" >N</text>
<text x="204.720966" y="308.016240" fill="rgb(12,12,255)"  stroke="rgb(12,12,255)" stroke-width="1" font-size="16" >NH</text>
<text x="204.720966" y="428.023735" fill="rgb(102,102,102)"  stroke="rgb(102,102,102)" stroke-width="1" font-size="16" >CH</text>
<text x="135.422092" y="308.016240" fill="rgb(255,12,12)"  stroke="rgb(255,12,12)" stroke-width="1" font-size="16" >O</text>
<text x="65.115920" y="158.309920" fill="rgb(102,102,102)"  stroke="rgb(102,102,102)" stroke-width="1" font-size="16" >H</text>
<text x="77.115920" y="161.989920" fill="rgb(102,102,102)"  stroke="rgb(102,102,102)" stroke-width="1" font-size="13" >3</text>
<text x="83.615920" y="158.309920" fill="rgb(102,102,102)"  stroke="rgb(102,102,102)" stroke-width="1" font-size="16" >C</text>
<text x="14.000000" y="88.002498" fill="rgb(102,102,102)"  stroke="rgb(102,102,102)" stroke-width="1" font-size="16" >H</text>
<text x="26.000000" y="91.682498" fill="rgb(102,102,102)"  stroke="rgb(102,102,102)" stroke-width="1" font-size="13" >3</text>
<text x="32.500000" y="88.002498" fill="rgb(102,102,102)"  stroke="rgb(102,102,102)" stroke-width="1" font-size="16" >C</text>
<text x="266.724713" y="382.566350" fill="rgb(102,102,102)"  stroke="rgb(102,102,102)" stroke-width="1" font-size="16" >CH</text>
<text x="290.724713" y="386.246350" fill="rgb(102,102,102)"  stroke="rgb(102,102,102)" stroke-width="1" font-size="13" >3</text>
<text x="124.717218" y="313.267477" fill="rgb(102,102,102)"  stroke="rgb(102,102,102)" stroke-width="1" font-size="16" >H</text>
<text x="136.717218" y="316.947477" fill="rgb(102,102,102)"  stroke="rgb(102,102,102)" stroke-width="1" font-size="13" >3</text>
<text x="143.217218" y="313.267477" fill="rgb(102,102,102)"  stroke="rgb(102,102,102)" stroke-width="1" font-size="16" >C</text>
<text font-size="18.000000" fill ="black" font-family="sans-serif"
x="10.000000" y="20.000000" ></text>
<title> - OBDepict</title>
</svg>
