<?xml version="1.0"?>
<svg xmlns="http://www.w3.org/2000/svg"
xmlns:xlink="http://www.w3.org/1999/xlink" xmlns:cml="http://www.xml-cml.org/schema" width="345.143" height="291.252" x="0" y="0" font-family="sans-serif" stroke="rgb(0,0,0)" stroke-width="1"  stroke-linecap="round">
<rect x="0%" y="0%" width="100%" height="100%" stroke-width="0" fill="rgb(255,255,255)"  />
<line x1="203.5" y1="156.2" x2="143.1" y2="192.2" stroke="rgb(0,0,0)"  stroke-width="1.0"/>
<line x1="239.2" y1="216.0" x2="216.6" y2="229.8" stroke="rgb(0,0,0)"  stroke-width="1.0"/>
<line x1="236.1" y1="210.9" x2="213.5" y2="224.7" stroke="rgb(0,0,0)"  stroke-width="1.0"/>
<line x1="170.6" y1="101.1" x2="148.2" y2="114.3" stroke="rgb(0,0,0)"  stroke-width="1.0"/>
<line x1="167.6" y1="96.0" x2="145.1" y2="109.1" stroke="rgb(0,0,0)"  stroke-width="1.0"/>
<line x1="109.3" y1="173.0" x2="108.9" y2="147.2" stroke="rgb(0,0,0)"  stroke-width="1.0"/>
<line x1="97.4" y1="127.8" x2="74.4" y2="114.8" stroke="rgb(0,0,0)"  stroke-width="1.0"/>
<line x1="74.4" y1="114.8" x2="73.7" y2="76.0" stroke="rgb(0,0,0)"  stroke-width="1.0"/>
<line x1="73.7" y1="76.0" x2="51.3" y2="63.5" stroke="rgb(0,0,0)"  stroke-width="1.0"/>
<line x1="71.6" y1="79.7" x2="49.3" y2="67.2" stroke="rgb(0,0,0)"  stroke-width="1.0"/>
<line x1="75.7" y1="72.3" x2="53.4" y2="59.9" stroke="rgb(0,0,0)"  stroke-width="1.0"/>
<line x1="203.5" y1="156.2" x2="202.9" y2="117.5" stroke="rgb(0,0,0)"  stroke-width="1.0"/>
<line x1="202.9" y1="117.5" x2="236.0" y2="97.8" stroke="rgb(0,0,0)"  stroke-width="1.0"/>
<line x1="211.8" y1="120.6" x2="234.6" y2="107.1" stroke="rgb(0,0,0)"  stroke-width="1.0"/>
<line x1="236.0" y1="97.8" x2="258.8" y2="110.4" stroke="rgb(0,0,0)"  stroke-width="1.0"/>
<line x1="270.4" y1="129.6" x2="270.8" y2="155.1" stroke="rgb(0,0,0)"  stroke-width="1.0"/>
<line x1="270.8" y1="155.1" x2="237.3" y2="175.3" stroke="rgb(0,0,0)"  stroke-width="1.0"/>
<line x1="261.9" y1="152.1" x2="238.7" y2="166.1" stroke="rgb(0,0,0)"  stroke-width="1.0"/>
<line x1="237.3" y1="175.3" x2="203.5" y2="156.2" stroke="rgb(0,0,0)"  stroke-width="1.0"/>
<line x1="235.9" y1="58.4" x2="236.0" y2="97.8" stroke="rgb(0,0,0)"  stroke-width="1.0"/>
<line x1="202.9" y1="117.5" x2="169.1" y2="98.5" stroke="rgb(0,0,0)"  stroke-width="1.0"/>
<line x1="169.1" y1="98.5" x2="168.5" y2="59.7" stroke="rgb(0,0,0)"  stroke-width="1.0"/>
<line x1="168.5" y1="59.7" x2="201.7" y2="40.0" stroke="rgb(0,0,0)"  stroke-width="1.0"/>
<line x1="201.7" y1="40.0" x2="235.9" y2="58.4" stroke="rgb(0,0,0)"  stroke-width="1.0"/>
<line x1="237.3" y1="175.3" x2="237.6" y2="213.5" stroke="rgb(0,0,0)"  stroke-width="1.0"/>
<line x1="237.6" y1="213.5" x2="271.7" y2="233.0" stroke="rgb(0,0,0)"  stroke-width="1.0"/>
<line x1="271.7" y1="233.0" x2="305.1" y2="213.3" stroke="rgb(0,0,0)"  stroke-width="1.0"/>
<line x1="305.1" y1="213.3" x2="304.8" y2="174.4" stroke="rgb(0,0,0)"  stroke-width="1.0"/>
<line x1="304.8" y1="174.4" x2="270.8" y2="155.1" stroke="rgb(0,0,0)"  stroke-width="1.0"/>
<line x1="143.1" y1="192.2" x2="143.8" y2="231.0" stroke="rgb(0,0,0)"  stroke-width="1.0"/>
<line x1="136.0" y1="198.3" x2="136.5" y2="225.2" stroke="rgb(0,0,0)"  stroke-width="1.0"/>
<line x1="143.8" y1="231.0" x2="110.5" y2="251.3" stroke="rgb(0,0,0)"  stroke-width="1.0"/>
<line x1="110.5" y1="251.3" x2="76.3" y2="232.1" stroke="rgb(0,0,0)"  stroke-width="1.0"/>
<line x1="108.8" y1="242.0" x2="85.1" y2="228.7" stroke="rgb(0,0,0)"  stroke-width="1.0"/>
<line x1="76.3" y1="232.1" x2="75.6" y2="192.7" stroke="rgb(0,0,0)"  stroke-width="1.0"/>
<line x1="75.6" y1="192.7" x2="109.3" y2="173.0" stroke="rgb(0,0,0)"  stroke-width="1.0"/>
<line x1="84.4" y1="195.9" x2="107.7" y2="182.3" stroke="rgb(0,0,0)"  stroke-width="1.0"/>
<line x1="109.3" y1="173.0" x2="143.1" y2="192.2" stroke="rgb(0,0,0)"  stroke-width="1.0"/>
<text x="264.232813" y="124.621812" fill="rgb(12,12,255)"  stroke="rgb(12,12,255)" stroke-width="1" font-size="16" >NH</text>
<text x="197.991778" y="242.064944" fill="rgb(255,12,12)"  stroke="rgb(255,12,12)" stroke-width="1" font-size="16" >O</text>
<text x="129.419307" y="126.232622" fill="rgb(255,12,12)"  stroke="rgb(255,12,12)" stroke-width="1" font-size="16" >O</text>
<text x="102.746740" y="142.166455" fill="rgb(255,12,12)"  stroke="rgb(255,12,12)" stroke-width="1" font-size="16" >O</text>
<text x="22.000000" y="65.181975" fill="rgb(102,102,102)"  stroke="rgb(102,102,102)" stroke-width="1" font-size="16" >HC</text>
<text font-size="18.000000" fill ="black" font-family="sans-serif"
x="10.000000" y="20.000000" ></text>
<title> - OBDepict</title>
</svg>
