<?xml version="1.0"?>
<svg xmlns="http://www.w3.org/2000/svg"
xmlns:xlink="http://www.w3.org/1999/xlink" xmlns:cml="http://www.xml-cml.org/schema" width="495.636" height="499.879" x="0" y="0" font-family="sans-serif" stroke="rgb(0,0,0)" stroke-width="1"  stroke-linecap="round">
<rect x="0%" y="0%" width="100%" height="100%" stroke-width="0" fill="rgb(255,255,255)"  />
<line x1="213.2" y1="259.8" x2="213.2" y2="219.8" stroke="rgb(0,0,0)"  stroke-width="1.0"/>
<line x1="236.7" y1="273.4" x2="213.2" y2="259.8" stroke="rgb(0,0,0)"  stroke-width="1.0"/>
<line x1="178.6" y1="159.8" x2="155.1" y2="146.3" stroke="rgb(0,0,0)"  stroke-width="1.0"/>
<line x1="74.6" y1="60.0" x2="109.3" y2="79.8" stroke="rgb(0,0,0)"  stroke-width="1.0"/>
<line x1="51.3" y1="46.5" x2="74.6" y2="60.0" stroke="rgb(0,0,0)"  stroke-width="1.0"/>
<line x1="53.4" y1="42.9" x2="76.7" y2="56.4" stroke="rgb(0,0,0)"  stroke-width="1.0"/>
<line x1="49.1" y1="50.1" x2="72.4" y2="63.6" stroke="rgb(0,0,0)"  stroke-width="1.0"/>
<line x1="127.7" y1="161.8" x2="134.8" y2="149.6" stroke="rgb(0,0,0)"  stroke-width="1.0"/>
<line x1="132.9" y1="164.8" x2="140.0" y2="152.6" stroke="rgb(0,0,0)"  stroke-width="1.0"/>
<line x1="159.9" y1="118.0" x2="153.0" y2="130.1" stroke="rgb(0,0,0)"  stroke-width="1.0"/>
<line x1="154.7" y1="115.0" x2="147.8" y2="127.1" stroke="rgb(0,0,0)"  stroke-width="1.0"/>
<line x1="120.6" y1="126.3" x2="132.6" y2="133.3" stroke="rgb(0,0,0)"  stroke-width="1.0"/>
<line x1="247.9" y1="319.9" x2="247.9" y2="292.8" stroke="rgb(0,0,0)"  stroke-width="1.0"/>
<line x1="282.5" y1="339.9" x2="247.9" y2="319.9" stroke="rgb(0,0,0)"  stroke-width="1.0"/>
<line x1="188.4" y1="270.7" x2="211.7" y2="257.2" stroke="rgb(0,0,0)"  stroke-width="1.0"/>
<line x1="191.4" y1="275.9" x2="214.7" y2="262.4" stroke="rgb(0,0,0)"  stroke-width="1.0"/>
<line x1="386.5" y1="399.9" x2="351.8" y2="379.9" stroke="rgb(0,0,0)"  stroke-width="1.0"/>
<line x1="109.3" y1="79.8" x2="109.3" y2="106.8" stroke="rgb(0,0,0)"  stroke-width="1.0"/>
<line x1="224.4" y1="333.4" x2="247.9" y2="319.9" stroke="rgb(0,0,0)"  stroke-width="1.0"/>
<line x1="282.5" y1="339.9" x2="282.5" y2="379.9" stroke="rgb(0,0,0)"  stroke-width="1.0"/>
<line x1="282.5" y1="379.9" x2="317.2" y2="399.9" stroke="rgb(0,0,0)"  stroke-width="1.0"/>
<line x1="291.3" y1="376.6" x2="315.6" y2="390.6" stroke="rgb(0,0,0)"  stroke-width="1.0"/>
<line x1="317.2" y1="399.9" x2="351.8" y2="379.9" stroke="rgb(0,0,0)"  stroke-width="1.0"/>
<line x1="351.8" y1="379.9" x2="351.8" y2="339.9" stroke="rgb(0,0,0)"  stroke-width="1.0"/>
<line x1="344.6" y1="373.9" x2="344.6" y2="345.9" stroke="rgb(0,0,0)"  stroke-width="1.0"/>
<line x1="351.8" y1="339.9" x2="317.2" y2="319.9" stroke="rgb(0,0,0)"  stroke-width="1.0"/>
<line x1="317.2" y1="319.9" x2="282.5" y2="339.9" stroke="rgb(0,0,0)"  stroke-width="1.0"/>
<line x1="315.6" y1="329.1" x2="291.3" y2="343.1" stroke="rgb(0,0,0)"  stroke-width="1.0"/>
<line x1="386.5" y1="399.9" x2="386.5" y2="439.9" stroke="rgb(0,0,0)"  stroke-width="1.0"/>
<line x1="386.5" y1="439.9" x2="421.1" y2="459.9" stroke="rgb(0,0,0)"  stroke-width="1.0"/>
<line x1="395.3" y1="436.7" x2="419.5" y2="450.6" stroke="rgb(0,0,0)"  stroke-width="1.0"/>
<line x1="421.1" y1="459.9" x2="455.6" y2="439.9" stroke="rgb(0,0,0)"  stroke-width="1.0"/>
<line x1="455.6" y1="439.9" x2="455.6" y2="399.9" stroke="rgb(0,0,0)"  stroke-width="1.0"/>
<line x1="448.4" y1="433.9" x2="448.4" y2="405.9" stroke="rgb(0,0,0)"  stroke-width="1.0"/>
<line x1="455.6" y1="399.9" x2="421.1" y2="379.9" stroke="rgb(0,0,0)"  stroke-width="1.0"/>
<line x1="421.1" y1="379.9" x2="386.5" y2="399.9" stroke="rgb(0,0,0)"  stroke-width="1.0"/>
<line x1="419.5" y1="389.1" x2="395.3" y2="403.1" stroke="rgb(0,0,0)"  stroke-width="1.0"/>
<line x1="178.6" y1="159.8" x2="213.2" y2="139.8" stroke="rgb(0,0,0)"  stroke-width="1.0"/>
<line x1="187.4" y1="163.0" x2="211.6" y2="149.1" stroke="rgb(0,0,0)"  stroke-width="1.0"/>
<line x1="213.2" y1="139.8" x2="247.9" y2="159.8" stroke="rgb(0,0,0)"  stroke-width="1.0"/>
<line x1="247.9" y1="159.8" x2="247.9" y2="199.8" stroke="rgb(0,0,0)"  stroke-width="1.0"/>
<line x1="240.7" y1="165.8" x2="240.7" y2="193.8" stroke="rgb(0,0,0)"  stroke-width="1.0"/>
<line x1="247.9" y1="199.8" x2="213.2" y2="219.8" stroke="rgb(0,0,0)"  stroke-width="1.0"/>
<line x1="213.2" y1="219.8" x2="178.6" y2="199.8" stroke="rgb(0,0,0)"  stroke-width="1.0"/>
<line x1="211.6" y1="210.6" x2="187.4" y2="196.6" stroke="rgb(0,0,0)"  stroke-width="1.0"/>
<line x1="178.6" y1="199.8" x2="178.6" y2="159.8" stroke="rgb(0,0,0)"  stroke-width="1.0"/>
<text x="137.855678" y="147.816091" fill="rgb(178,178,0)"  stroke="rgb(178,178,0)" stroke-width="1" font-size="16" >S</text>
<text x="241.919881" y="287.843767" fill="rgb(12,12,255)"  stroke="rgb(12,12,255)" stroke-width="1" font-size="16" >NH</text>
<text x="22.000000" y="48.000000" fill="rgb(102,102,102)"  stroke="rgb(102,102,102)" stroke-width="1" font-size="16" >HC</text>
<text x="117.851724" y="182.572052" fill="rgb(255,12,12)"  stroke="rgb(255,12,12)" stroke-width="1" font-size="16" >O</text>
<text x="157.859631" y="113.263808" fill="rgb(255,12,12)"  stroke="rgb(255,12,12)" stroke-width="1" font-size="16" >O</text>
<text x="91.303394" y="127.812138" fill="rgb(12,12,255)"  stroke="rgb(12,12,255)" stroke-width="1" font-size="16" >HN</text>
<text x="172.611638" y="287.843767" fill="rgb(255,12,12)"  stroke="rgb(255,12,12)" stroke-width="1" font-size="16" >O</text>
<text x="187.163921" y="347.855628" fill="rgb(102,102,102)"  stroke="rgb(102,102,102)" stroke-width="1" font-size="16" >H</text>
<text x="199.163921" y="351.535628" fill="rgb(102,102,102)"  stroke="rgb(102,102,102)" stroke-width="1" font-size="13" >3</text>
<text x="205.663921" y="347.855628" fill="rgb(102,102,102)"  stroke="rgb(102,102,102)" stroke-width="1" font-size="16" >C</text>
<text font-size="18.000000" fill ="black" font-family="sans-serif"
x="10.000000" y="20.000000" ></text>
<title> - OBDepict</title>
</svg>
