<?xml version="1.0"?>
<svg xmlns="http://www.w3.org/2000/svg"
xmlns:xlink="http://www.w3.org/1999/xlink" xmlns:cml="http://www.xml-cml.org/schema" width="331.108" height="413.584" x="0" y="0" font-family="sans-serif" stroke="rgb(0,0,0)" stroke-width="1"  stroke-linecap="round">
<rect x="0%" y="0%" width="100%" height="100%" stroke-width="0" fill="rgb(255,255,255)"  />
<line x1="133.8" y1="307.4" x2="185.0" y2="282.4" stroke="rgb(0,0,0)"  stroke-width="1.0"/>
<line x1="136.5" y1="312.8" x2="187.6" y2="287.8" stroke="rgb(0,0,0)"  stroke-width="1.0"/>
<line x1="186.3" y1="285.1" x2="193.3" y2="236.8" stroke="rgb(0,0,0)"  stroke-width="1.0"/>
<line x1="156.3" y1="142.0" x2="169.4" y2="164.6" stroke="rgb(0,0,0)"  stroke-width="1.0"/>
<line x1="175.5" y1="108.1" x2="156.3" y2="142.0" stroke="rgb(0,0,0)"  stroke-width="1.0"/>
<line x1="40.2" y1="249.8" x2="40.2" y2="289.1" stroke="rgb(0,0,0)"  stroke-width="1.0"/>
<line x1="40.1" y1="223.6" x2="40.2" y2="249.8" stroke="rgb(0,0,0)"  stroke-width="1.0"/>
<line x1="44.3" y1="223.6" x2="44.4" y2="249.8" stroke="rgb(0,0,0)"  stroke-width="1.0"/>
<line x1="35.9" y1="223.6" x2="36.0" y2="249.8" stroke="rgb(0,0,0)"  stroke-width="1.0"/>
<line x1="65.5" y1="362.3" x2="84.2" y2="343.9" stroke="rgb(0,0,0)"  stroke-width="1.0"/>
<line x1="69.7" y1="366.6" x2="88.4" y2="348.2" stroke="rgb(0,0,0)"  stroke-width="1.0"/>
<line x1="112.9" y1="259.8" x2="108.8" y2="286.1" stroke="rgb(0,0,0)"  stroke-width="1.0"/>
<line x1="107.0" y1="258.8" x2="102.9" y2="285.1" stroke="rgb(0,0,0)"  stroke-width="1.0"/>
<line x1="40.2" y1="289.1" x2="63.0" y2="302.2" stroke="rgb(0,0,0)"  stroke-width="1.0"/>
<line x1="137.0" y1="219.4" x2="162.5" y2="212.6" stroke="rgb(0,0,0)"  stroke-width="1.0"/>
<line x1="130.3" y1="73.7" x2="156.5" y2="73.7" stroke="rgb(0,0,0)"  stroke-width="1.0"/>
<line x1="162.5" y1="212.6" x2="193.3" y2="236.8" stroke="rgb(0,0,0)"  stroke-width="1.0"/>
<line x1="171.6" y1="210.7" x2="193.0" y2="227.4" stroke="rgb(0,0,0)"  stroke-width="1.0"/>
<line x1="193.3" y1="236.8" x2="226.0" y2="214.8" stroke="rgb(0,0,0)"  stroke-width="1.0"/>
<line x1="226.0" y1="214.8" x2="215.1" y2="177.0" stroke="rgb(0,0,0)"  stroke-width="1.0"/>
<line x1="215.1" y1="177.0" x2="189.0" y2="176.2" stroke="rgb(0,0,0)"  stroke-width="1.0"/>
<line x1="171.5" y1="188.0" x2="162.5" y2="212.6" stroke="rgb(0,0,0)"  stroke-width="1.0"/>
<line x1="135.1" y1="310.1" x2="128.6" y2="333.6" stroke="rgb(0,0,0)"  stroke-width="1.0"/>
<line x1="112.1" y1="346.1" x2="86.3" y2="346.1" stroke="rgb(0,0,0)"  stroke-width="1.0"/>
<line x1="86.3" y1="346.1" x2="78.3" y2="321.0" stroke="rgb(0,0,0)"  stroke-width="1.0"/>
<line x1="84.8" y1="300.9" x2="105.8" y2="285.6" stroke="rgb(0,0,0)"  stroke-width="1.0"/>
<line x1="105.8" y1="285.6" x2="135.1" y2="310.1" stroke="rgb(0,0,0)"  stroke-width="1.0"/>
<line x1="226.0" y1="214.8" x2="263.9" y2="224.3" stroke="rgb(0,0,0)"  stroke-width="1.0"/>
<line x1="233.5" y1="209.3" x2="259.9" y2="215.8" stroke="rgb(0,0,0)"  stroke-width="1.0"/>
<line x1="263.9" y1="224.3" x2="291.1" y2="196.0" stroke="rgb(0,0,0)"  stroke-width="1.0"/>
<line x1="291.1" y1="196.0" x2="280.1" y2="158.0" stroke="rgb(0,0,0)"  stroke-width="1.0"/>
<line x1="282.5" y1="192.2" x2="274.9" y2="165.7" stroke="rgb(0,0,0)"  stroke-width="1.0"/>
<line x1="280.1" y1="158.0" x2="242.5" y2="148.5" stroke="rgb(0,0,0)"  stroke-width="1.0"/>
<line x1="242.5" y1="148.5" x2="215.1" y2="177.0" stroke="rgb(0,0,0)"  stroke-width="1.0"/>
<line x1="243.5" y1="157.8" x2="224.5" y2="177.6" stroke="rgb(0,0,0)"  stroke-width="1.0"/>
<line x1="175.5" y1="108.1" x2="156.5" y2="73.7" stroke="rgb(0,0,0)"  stroke-width="1.0"/>
<line x1="156.5" y1="73.7" x2="176.8" y2="40.0" stroke="rgb(0,0,0)"  stroke-width="1.0"/>
<line x1="165.7" y1="72.2" x2="179.9" y2="48.9" stroke="rgb(0,0,0)"  stroke-width="1.0"/>
<line x1="176.8" y1="40.0" x2="216.0" y2="40.7" stroke="rgb(0,0,0)"  stroke-width="1.0"/>
<line x1="216.0" y1="40.7" x2="234.9" y2="74.8" stroke="rgb(0,0,0)"  stroke-width="1.0"/>
<line x1="212.6" y1="49.4" x2="225.7" y2="73.1" stroke="rgb(0,0,0)"  stroke-width="1.0"/>
<line x1="234.9" y1="74.8" x2="214.8" y2="108.8" stroke="rgb(0,0,0)"  stroke-width="1.0"/>
<line x1="214.8" y1="108.8" x2="175.5" y2="108.1" stroke="rgb(0,0,0)"  stroke-width="1.0"/>
<line x1="208.9" y1="101.5" x2="181.6" y2="101.1" stroke="rgb(0,0,0)"  stroke-width="1.0"/>
<text x="169.965168" y="183.798357" fill="rgb(12,12,255)"  stroke="rgb(12,12,255)" stroke-width="1" font-size="16" >N</text>
<text x="68.329680" y="316.598884" fill="rgb(12,12,255)"  stroke="rgb(12,12,255)" stroke-width="1" font-size="16" >N</text>
<text x="119.145041" y="354.088438" fill="rgb(178,178,0)"  stroke="rgb(178,178,0)" stroke-width="1" font-size="16" >S</text>
<text x="22.000000" y="218.623703" fill="rgb(102,102,102)"  stroke="rgb(102,102,102)" stroke-width="1" font-size="16" >HC</text>
<text x="52.330133" y="381.583638" fill="rgb(255,12,12)"  stroke="rgb(255,12,12)" stroke-width="1" font-size="16" >O</text>
<text x="105.981279" y="254.449915" fill="rgb(255,12,12)"  stroke="rgb(255,12,12)" stroke-width="1" font-size="16" >O</text>
<text x="98.477797" y="230.786600" fill="rgb(102,102,102)"  stroke="rgb(102,102,102)" stroke-width="1" font-size="16" >H</text>
<text x="110.477797" y="234.466600" fill="rgb(102,102,102)"  stroke="rgb(102,102,102)" stroke-width="1" font-size="13" >3</text>
<text x="116.977797" y="230.786600" fill="rgb(102,102,102)"  stroke="rgb(102,102,102)" stroke-width="1" font-size="16" >C</text>
<text x="111.319227" y="81.657670" fill="rgb(127,178,255)"  stroke="rgb(127,178,255)" stroke-width="1" font-size="16" >F</text>
<text font-size="18.000000" fill ="black" font-family="sans-serif"
x="10.000000" y="20.000000" ></text>
<title> - OBDepict</title>
</svg>
