<?xml version="1.0"?>
<svg xmlns="http://www.w3.org/2000/svg"
xmlns:xlink="http://www.w3.org/1999/xlink" xmlns:cml="http://www.xml-cml.org/schema" width="385.484" height="307.601" x="0" y="0" font-family="sans-serif" stroke="rgb(0,0,0)" stroke-width="1"  stroke-linecap="round">
<rect x="0%" y="0%" width="100%" height="100%" stroke-width="0" fill="rgb(255,255,255)"  />
<line x1="258.9" y1="101.5" x2="270.9" y2="94.5" stroke="rgb(0,0,0)"  stroke-width="1.0"/>
<line x1="74.5" y1="247.8" x2="109.4" y2="227.9" stroke="rgb(0,0,0)"  stroke-width="1.0"/>
<line x1="51.3" y1="261.1" x2="74.5" y2="247.8" stroke="rgb(0,0,0)"  stroke-width="1.0"/>
<line x1="49.2" y1="257.5" x2="72.4" y2="244.2" stroke="rgb(0,0,0)"  stroke-width="1.0"/>
<line x1="53.4" y1="264.8" x2="76.6" y2="251.5" stroke="rgb(0,0,0)"  stroke-width="1.0"/>
<line x1="211.4" y1="125.4" x2="234.9" y2="111.9" stroke="rgb(0,0,0)"  stroke-width="1.0"/>
<line x1="214.4" y1="130.6" x2="237.9" y2="117.1" stroke="rgb(0,0,0)"  stroke-width="1.0"/>
<line x1="213.1" y1="167.9" x2="212.9" y2="128.0" stroke="rgb(0,0,0)"  stroke-width="1.0"/>
<line x1="109.4" y1="227.9" x2="132.7" y2="241.6" stroke="rgb(0,0,0)"  stroke-width="1.0"/>
<line x1="155.2" y1="241.7" x2="178.6" y2="228.3" stroke="rgb(0,0,0)"  stroke-width="1.0"/>
<line x1="294.0" y1="93.3" x2="318.8" y2="104.4" stroke="rgb(0,0,0)"  stroke-width="1.0"/>
<line x1="318.8" y1="104.4" x2="336.7" y2="84.5" stroke="rgb(0,0,0)"  stroke-width="1.0"/>
<line x1="317.5" y1="95.1" x2="330.0" y2="81.2" stroke="rgb(0,0,0)"  stroke-width="1.0"/>
<line x1="338.9" y1="63.5" x2="331.7" y2="51.2" stroke="rgb(0,0,0)"  stroke-width="1.0"/>
<line x1="312.3" y1="42.7" x2="286.4" y2="48.1" stroke="rgb(0,0,0)"  stroke-width="1.0"/>
<line x1="311.8" y1="50.1" x2="293.7" y2="53.9" stroke="rgb(0,0,0)"  stroke-width="1.0"/>
<line x1="286.4" y1="48.1" x2="283.5" y2="75.1" stroke="rgb(0,0,0)"  stroke-width="1.0"/>
<line x1="213.1" y1="167.9" x2="178.6" y2="188.3" stroke="rgb(0,0,0)"  stroke-width="1.0"/>
<line x1="178.6" y1="188.3" x2="178.6" y2="228.3" stroke="rgb(0,0,0)"  stroke-width="1.0"/>
<line x1="185.8" y1="194.3" x2="185.8" y2="222.3" stroke="rgb(0,0,0)"  stroke-width="1.0"/>
<line x1="178.6" y1="228.3" x2="213.1" y2="248.2" stroke="rgb(0,0,0)"  stroke-width="1.0"/>
<line x1="213.1" y1="248.2" x2="247.6" y2="228.3" stroke="rgb(0,0,0)"  stroke-width="1.0"/>
<line x1="214.7" y1="239.0" x2="238.8" y2="225.0" stroke="rgb(0,0,0)"  stroke-width="1.0"/>
<line x1="247.6" y1="228.3" x2="247.6" y2="187.9" stroke="rgb(0,0,0)"  stroke-width="1.0"/>
<line x1="247.6" y1="187.9" x2="213.1" y2="167.9" stroke="rgb(0,0,0)"  stroke-width="1.0"/>
<line x1="238.8" y1="191.1" x2="214.7" y2="177.2" stroke="rgb(0,0,0)"  stroke-width="1.0"/>
<text x="276.128691" y="96.023805" fill="rgb(12,12,255)"  stroke="rgb(12,12,255)" stroke-width="1" font-size="16" >N</text>
<text x="339.484085" y="82.706727" fill="rgb(12,12,255)"  stroke="rgb(12,12,255)" stroke-width="1" font-size="16" >N</text>
<text x="319.106534" y="48.000000" fill="rgb(12,12,255)"  stroke="rgb(12,12,255)" stroke-width="1" font-size="16" >N</text>
<text x="241.625353" y="115.999422" fill="rgb(12,12,255)"  stroke="rgb(12,12,255)" stroke-width="1" font-size="16" >N</text>
<text x="22.000000" y="275.600970" fill="rgb(102,102,102)"  stroke="rgb(102,102,102)" stroke-width="1" font-size="16" >HC</text>
<text x="137.911949" y="256.230675" fill="rgb(255,12,12)"  stroke="rgb(255,12,12)" stroke-width="1" font-size="16" >O</text>
<text font-size="18.000000" fill ="black" font-family="sans-serif"
x="10.000000" y="20.000000" ></text>
<title> - OBDepict</title>
</svg>
