<?xml version="1.0"?>
<svg xmlns="http://www.w3.org/2000/svg"
xmlns:xlink="http://www.w3.org/1999/xlink" xmlns:cml="http://www.xml-cml.org/schema" width="357.062" height="419.869" x="0" y="0" font-family="sans-serif" stroke="rgb(0,0,0)" stroke-width="1"  stroke-linecap="round">
<rect x="0%" y="0%" width="100%" height="100%" stroke-width="0" fill="rgb(255,255,255)"  />
<line x1="144.0" y1="299.9" x2="120.5" y2="313.4" stroke="rgb(0,0,0)"  stroke-width="1.0"/>
<line x1="86.0" y1="333.4" x2="98.0" y2="326.4" stroke="rgb(0,0,0)"  stroke-width="1.0"/>
<line x1="98.4" y1="294.9" x2="105.4" y2="307.1" stroke="rgb(0,0,0)"  stroke-width="1.0"/>
<line x1="93.2" y1="297.9" x2="100.2" y2="310.1" stroke="rgb(0,0,0)"  stroke-width="1.0"/>
<line x1="120.1" y1="344.7" x2="113.2" y2="332.6" stroke="rgb(0,0,0)"  stroke-width="1.0"/>
<line x1="125.3" y1="341.7" x2="118.4" y2="329.6" stroke="rgb(0,0,0)"  stroke-width="1.0"/>
<line x1="282.5" y1="59.8" x2="247.8" y2="80.0" stroke="rgb(0,0,0)"  stroke-width="1.0"/>
<line x1="305.8" y1="46.5" x2="282.5" y2="59.8" stroke="rgb(0,0,0)"  stroke-width="1.0"/>
<line x1="307.9" y1="50.1" x2="284.6" y2="63.4" stroke="rgb(0,0,0)"  stroke-width="1.0"/>
<line x1="303.7" y1="42.8" x2="280.4" y2="56.1" stroke="rgb(0,0,0)"  stroke-width="1.0"/>
<line x1="213.3" y1="139.8" x2="213.3" y2="179.9" stroke="rgb(0,0,0)"  stroke-width="1.0"/>
<line x1="214.8" y1="182.5" x2="180.0" y2="202.5" stroke="rgb(0,0,0)"  stroke-width="1.0"/>
<line x1="211.8" y1="177.3" x2="177.0" y2="197.3" stroke="rgb(0,0,0)"  stroke-width="1.0"/>
<line x1="178.5" y1="199.9" x2="178.5" y2="239.9" stroke="rgb(0,0,0)"  stroke-width="1.0"/>
<line x1="191.3" y1="123.8" x2="214.8" y2="137.2" stroke="rgb(0,0,0)"  stroke-width="1.0"/>
<line x1="188.3" y1="129.0" x2="211.8" y2="142.4" stroke="rgb(0,0,0)"  stroke-width="1.0"/>
<line x1="236.5" y1="126.4" x2="213.3" y2="139.8" stroke="rgb(0,0,0)"  stroke-width="1.0"/>
<line x1="247.8" y1="80.0" x2="247.8" y2="107.0" stroke="rgb(0,0,0)"  stroke-width="1.0"/>
<line x1="178.5" y1="346.9" x2="178.5" y2="319.9" stroke="rgb(0,0,0)"  stroke-width="1.0"/>
<line x1="74.7" y1="366.9" x2="74.7" y2="352.9" stroke="rgb(0,0,0)"  stroke-width="1.0"/>
<line x1="51.3" y1="326.4" x2="63.5" y2="333.4" stroke="rgb(0,0,0)"  stroke-width="1.0"/>
<line x1="202.0" y1="373.4" x2="189.8" y2="366.4" stroke="rgb(0,0,0)"  stroke-width="1.0"/>
<line x1="144.0" y1="299.9" x2="144.0" y2="259.9" stroke="rgb(0,0,0)"  stroke-width="1.0"/>
<line x1="144.0" y1="259.9" x2="178.5" y2="239.9" stroke="rgb(0,0,0)"  stroke-width="1.0"/>
<line x1="152.8" y1="263.1" x2="176.9" y2="249.2" stroke="rgb(0,0,0)"  stroke-width="1.0"/>
<line x1="178.5" y1="239.9" x2="213.3" y2="259.9" stroke="rgb(0,0,0)"  stroke-width="1.0"/>
<line x1="213.3" y1="259.9" x2="213.3" y2="299.9" stroke="rgb(0,0,0)"  stroke-width="1.0"/>
<line x1="206.1" y1="265.9" x2="206.1" y2="293.9" stroke="rgb(0,0,0)"  stroke-width="1.0"/>
<line x1="213.3" y1="299.9" x2="178.5" y2="319.9" stroke="rgb(0,0,0)"  stroke-width="1.0"/>
<line x1="178.5" y1="319.9" x2="144.0" y2="299.9" stroke="rgb(0,0,0)"  stroke-width="1.0"/>
<line x1="176.9" y1="310.7" x2="152.8" y2="296.7" stroke="rgb(0,0,0)"  stroke-width="1.0"/>
<text x="103.263011" y="327.892163" fill="rgb(178,178,0)"  stroke="rgb(178,178,0)" stroke-width="1" font-size="16" >S</text>
<text x="68.730861" y="347.884460" fill="rgb(12,12,255)"  stroke="rgb(12,12,255)" stroke-width="1" font-size="16" >N</text>
<text x="83.270714" y="293.156455" fill="rgb(255,12,12)"  stroke="rgb(255,12,12)" stroke-width="1" font-size="16" >O</text>
<text x="123.255309" y="362.424313" fill="rgb(255,12,12)"  stroke="rgb(255,12,12)" stroke-width="1" font-size="16" >O</text>
<text x="311.061738" y="48.000000" fill="rgb(102,102,102)"  stroke="rgb(102,102,102)" stroke-width="1" font-size="16" >CH</text>
<text x="172.530869" y="127.969189" fill="rgb(255,12,12)"  stroke="rgb(255,12,12)" stroke-width="1" font-size="16" >O</text>
<text x="241.798727" y="127.969189" fill="rgb(12,12,255)"  stroke="rgb(12,12,255)" stroke-width="1" font-size="16" >NH</text>
<text x="172.530869" y="367.876758" fill="rgb(255,12,12)"  stroke="rgb(255,12,12)" stroke-width="1" font-size="16" >O</text>
<text x="70.730861" y="387.869055" fill="rgb(102,102,102)"  stroke="rgb(102,102,102)" stroke-width="1" font-size="16" >CH</text>
<text x="94.730861" y="391.549055" fill="rgb(102,102,102)"  stroke="rgb(102,102,102)" stroke-width="1" font-size="13" >3</text>
<text x="14.000000" y="327.892163" fill="rgb(102,102,102)"  stroke="rgb(102,102,102)" stroke-width="1" font-size="16" >H</text>
<text x="26.000000" y="331.572163" fill="rgb(102,102,102)"  stroke="rgb(102,102,102)" stroke-width="1" font-size="13" >3</text>
<text x="32.500000" y="327.892163" fill="rgb(102,102,102)"  stroke="rgb(102,102,102)" stroke-width="1" font-size="16" >C</text>
<text x="209.266577" y="387.869055" fill="rgb(102,102,102)"  stroke="rgb(102,102,102)" stroke-width="1" font-size="16" >CH</text>
<text x="233.266577" y="391.549055" fill="rgb(102,102,102)"  stroke="rgb(102,102,102)" stroke-width="1" font-size="13" >3</text>
<text font-size="18.000000" fill ="black" font-family="sans-serif"
x="10.000000" y="20.000000" ></text>
<title> - OBDepict</title>
</svg>
