<?xml version="1.0"?>
<svg xmlns="http://www.w3.org/2000/svg"
xmlns:xlink="http://www.w3.org/1999/xlink" xmlns:cml="http://www.xml-cml.org/schema" width="473.323" height="399.224" x="0" y="0" font-family="sans-serif" stroke="rgb(0,0,0)" stroke-width="1"  stroke-linecap="round">
<rect x="0%" y="0%" width="100%" height="100%" stroke-width="0" fill="rgb(255,255,255)"  />
<line x1="230.8" y1="174.8" x2="267.4" y2="191.1" stroke="rgb(0,0,0)"  stroke-width="1.0"/>
<line x1="228.4" y1="180.2" x2="264.9" y2="196.6" stroke="rgb(0,0,0)"  stroke-width="1.0"/>
<line x1="369.7" y1="192.0" x2="343.5" y2="197.8" stroke="rgb(0,0,0)"  stroke-width="1.0"/>
<line x1="72.3" y1="335.6" x2="104.4" y2="312.0" stroke="rgb(0,0,0)"  stroke-width="1.0"/>
<line x1="50.5" y1="351.6" x2="72.3" y2="335.6" stroke="rgb(0,0,0)"  stroke-width="1.0"/>
<line x1="48.0" y1="348.2" x2="69.8" y2="332.2" stroke="rgb(0,0,0)"  stroke-width="1.0"/>
<line x1="53.0" y1="354.9" x2="74.8" y2="339.0" stroke="rgb(0,0,0)"  stroke-width="1.0"/>
<line x1="325.3" y1="261.6" x2="311.8" y2="238.4" stroke="rgb(0,0,0)"  stroke-width="1.0"/>
<line x1="330.5" y1="258.6" x2="317.0" y2="235.4" stroke="rgb(0,0,0)"  stroke-width="1.0"/>
<line x1="306.5" y1="147.1" x2="303.7" y2="174.0" stroke="rgb(0,0,0)"  stroke-width="1.0"/>
<line x1="300.5" y1="146.5" x2="297.7" y2="173.3" stroke="rgb(0,0,0)"  stroke-width="1.0"/>
<line x1="197.1" y1="201.1" x2="229.6" y2="177.5" stroke="rgb(0,0,0)"  stroke-width="1.0"/>
<line x1="381.8" y1="153.9" x2="369.7" y2="192.0" stroke="rgb(0,0,0)"  stroke-width="1.0"/>
<line x1="415.3" y1="52.3" x2="406.7" y2="78.2" stroke="rgb(0,0,0)"  stroke-width="1.0"/>
<line x1="104.4" y1="312.0" x2="101.6" y2="285.3" stroke="rgb(0,0,0)"  stroke-width="1.0"/>
<line x1="110.6" y1="264.6" x2="132.3" y2="248.4" stroke="rgb(0,0,0)"  stroke-width="1.0"/>
<line x1="325.4" y1="212.4" x2="314.4" y2="236.9" stroke="rgb(0,0,0)"  stroke-width="1.0"/>
<line x1="314.4" y1="236.9" x2="287.6" y2="234.3" stroke="rgb(0,0,0)"  stroke-width="1.0"/>
<line x1="271.9" y1="220.3" x2="266.1" y2="193.9" stroke="rgb(0,0,0)"  stroke-width="1.0"/>
<line x1="266.1" y1="193.9" x2="300.7" y2="173.7" stroke="rgb(0,0,0)"  stroke-width="1.0"/>
<line x1="300.7" y1="173.7" x2="321.1" y2="191.9" stroke="rgb(0,0,0)"  stroke-width="1.0"/>
<line x1="381.8" y1="153.9" x2="421.2" y2="145.8" stroke="rgb(0,0,0)"  stroke-width="1.0"/>
<line x1="386.3" y1="145.6" x2="413.9" y2="140.0" stroke="rgb(0,0,0)"  stroke-width="1.0"/>
<line x1="421.2" y1="145.8" x2="433.3" y2="107.8" stroke="rgb(0,0,0)"  stroke-width="1.0"/>
<line x1="433.3" y1="107.8" x2="406.7" y2="78.2" stroke="rgb(0,0,0)"  stroke-width="1.0"/>
<line x1="424.0" y1="108.2" x2="405.3" y2="87.4" stroke="rgb(0,0,0)"  stroke-width="1.0"/>
<line x1="406.7" y1="78.2" x2="367.7" y2="86.4" stroke="rgb(0,0,0)"  stroke-width="1.0"/>
<line x1="367.7" y1="86.4" x2="355.2" y2="124.6" stroke="rgb(0,0,0)"  stroke-width="1.0"/>
<line x1="372.7" y1="94.4" x2="363.9" y2="121.1" stroke="rgb(0,0,0)"  stroke-width="1.0"/>
<line x1="355.2" y1="124.6" x2="381.8" y2="153.9" stroke="rgb(0,0,0)"  stroke-width="1.0"/>
<line x1="197.1" y1="201.1" x2="201.3" y2="240.9" stroke="rgb(0,0,0)"  stroke-width="1.0"/>
<line x1="201.3" y1="240.9" x2="169.2" y2="264.1" stroke="rgb(0,0,0)"  stroke-width="1.0"/>
<line x1="192.2" y1="238.6" x2="169.9" y2="254.8" stroke="rgb(0,0,0)"  stroke-width="1.0"/>
<line x1="169.2" y1="264.1" x2="132.3" y2="248.4" stroke="rgb(0,0,0)"  stroke-width="1.0"/>
<line x1="132.3" y1="248.4" x2="128.0" y2="208.4" stroke="rgb(0,0,0)"  stroke-width="1.0"/>
<line x1="138.8" y1="241.6" x2="135.8" y2="213.6" stroke="rgb(0,0,0)"  stroke-width="1.0"/>
<line x1="128.0" y1="208.4" x2="160.5" y2="184.8" stroke="rgb(0,0,0)"  stroke-width="1.0"/>
<line x1="160.5" y1="184.8" x2="197.1" y2="201.1" stroke="rgb(0,0,0)"  stroke-width="1.0"/>
<line x1="163.1" y1="193.8" x2="188.7" y2="205.2" stroke="rgb(0,0,0)"  stroke-width="1.0"/>
<text x="324.752190" y="208.519388" fill="rgb(12,12,255)"  stroke="rgb(12,12,255)" stroke-width="1" font-size="16" >N</text>
<text x="268.622798" y="241.027863" fill="rgb(178,178,0)"  stroke="rgb(178,178,0)" stroke-width="1" font-size="16" >S</text>
<text x="22.000000" y="367.224394" fill="rgb(102,102,102)"  stroke="rgb(102,102,102)" stroke-width="1" font-size="16" >HC</text>
<text x="328.385804" y="279.391841" fill="rgb(255,12,12)"  stroke="rgb(255,12,12)" stroke-width="1" font-size="16" >O</text>
<text x="298.909384" y="141.891811" fill="rgb(255,12,12)"  stroke="rgb(255,12,12)" stroke-width="1" font-size="16" >O</text>
<text x="413.390057" y="48.000000" fill="rgb(127,178,255)"  stroke="rgb(127,178,255)" stroke-width="1" font-size="16" >F</text>
<text x="94.170514" y="280.400909" fill="rgb(255,12,12)"  stroke="rgb(255,12,12)" stroke-width="1" font-size="16" >O</text>
<text font-size="18.000000" fill ="black" font-family="sans-serif"
x="10.000000" y="20.000000" ></text>
<title> - OBDepict</title>
</svg>
