<?xml version="1.0"?>
<svg xmlns="http://www.w3.org/2000/svg"
xmlns:xlink="http://www.w3.org/1999/xlink" xmlns:cml="http://www.xml-cml.org/schema" width="322.471" height="200.023" x="0" y="0" font-family="sans-serif" stroke="rgb(0,0,0)" stroke-width="1"  stroke-linecap="round">
<rect x="0%" y="0%" width="100%" height="100%" stroke-width="0" fill="rgb(255,255,255)"  />
<line x1="213.2" y1="100.0" x2="189.9" y2="113.5" stroke="rgb(0,0,0)"  stroke-width="1.0"/>
<line x1="74.6" y1="140.0" x2="109.3" y2="120.0" stroke="rgb(0,0,0)"  stroke-width="1.0"/>
<line x1="51.3" y1="153.5" x2="74.6" y2="140.0" stroke="rgb(0,0,0)"  stroke-width="1.0"/>
<line x1="49.1" y1="149.9" x2="72.4" y2="136.4" stroke="rgb(0,0,0)"  stroke-width="1.0"/>
<line x1="53.4" y1="157.1" x2="76.7" y2="143.7" stroke="rgb(0,0,0)"  stroke-width="1.0"/>
<line x1="189.5" y1="144.8" x2="182.5" y2="132.8" stroke="rgb(0,0,0)"  stroke-width="1.0"/>
<line x1="194.7" y1="141.8" x2="187.7" y2="129.8" stroke="rgb(0,0,0)"  stroke-width="1.0"/>
<line x1="167.7" y1="95.0" x2="174.7" y2="107.3" stroke="rgb(0,0,0)"  stroke-width="1.0"/>
<line x1="162.5" y1="98.0" x2="169.5" y2="110.2" stroke="rgb(0,0,0)"  stroke-width="1.0"/>
<line x1="155.1" y1="133.5" x2="167.3" y2="126.5" stroke="rgb(0,0,0)"  stroke-width="1.0"/>
<line x1="189.9" y1="46.5" x2="213.2" y2="60.0" stroke="rgb(0,0,0)"  stroke-width="1.0"/>
<line x1="247.9" y1="147.0" x2="247.9" y2="120.0" stroke="rgb(0,0,0)"  stroke-width="1.0"/>
<line x1="109.3" y1="120.0" x2="132.6" y2="133.5" stroke="rgb(0,0,0)"  stroke-width="1.0"/>
<line x1="213.2" y1="100.0" x2="213.2" y2="60.0" stroke="rgb(0,0,0)"  stroke-width="1.0"/>
<line x1="213.2" y1="60.0" x2="247.9" y2="40.0" stroke="rgb(0,0,0)"  stroke-width="1.0"/>
<line x1="222.0" y1="63.3" x2="246.3" y2="49.2" stroke="rgb(0,0,0)"  stroke-width="1.0"/>
<line x1="247.9" y1="40.0" x2="282.5" y2="60.0" stroke="rgb(0,0,0)"  stroke-width="1.0"/>
<line x1="282.5" y1="60.0" x2="282.5" y2="100.0" stroke="rgb(0,0,0)"  stroke-width="1.0"/>
<line x1="275.3" y1="66.0" x2="275.3" y2="94.0" stroke="rgb(0,0,0)"  stroke-width="1.0"/>
<line x1="282.5" y1="100.0" x2="247.9" y2="120.0" stroke="rgb(0,0,0)"  stroke-width="1.0"/>
<line x1="247.9" y1="120.0" x2="213.2" y2="100.0" stroke="rgb(0,0,0)"  stroke-width="1.0"/>
<line x1="246.3" y1="110.8" x2="222.0" y2="96.8" stroke="rgb(0,0,0)"  stroke-width="1.0"/>
<text x="172.610845" y="128.015357" fill="rgb(178,178,0)"  stroke="rgb(178,178,0)" stroke-width="1" font-size="16" >S</text>
<text x="22.000000" y="168.023035" fill="rgb(102,102,102)"  stroke="rgb(102,102,102)" stroke-width="1" font-size="16" >HC</text>
<text x="192.614684" y="162.567443" fill="rgb(255,12,12)"  stroke="rgb(255,12,12)" stroke-width="1" font-size="16" >O</text>
<text x="152.607006" y="93.259595" fill="rgb(255,12,12)"  stroke="rgb(255,12,12)" stroke-width="1" font-size="16" >O</text>
<text x="137.859933" y="148.019196" fill="rgb(12,12,255)"  stroke="rgb(12,12,255)" stroke-width="1" font-size="16" >N</text>
<text x="137.859933" y="164.019196" fill="rgb(12,12,255)"  stroke="rgb(12,12,255)" stroke-width="1" font-size="16" >H</text>
<text x="160.610845" y="48.000000" fill="rgb(30,239,30)"  stroke="rgb(30,239,30)" stroke-width="1" font-size="16" >Cl</text>
<text x="241.918692" y="168.023035" fill="rgb(30,239,30)"  stroke="rgb(30,239,30)" stroke-width="1" font-size="16" >Cl</text>
<text font-size="18.000000" fill ="black" font-family="sans-serif"
x="10.000000" y="20.000000" ></text>
<title> - OBDepict</title>
</svg>
