<?xml version="1.0"?>
<svg xmlns="http://www.w3.org/2000/svg"
xmlns:xlink="http://www.w3.org/1999/xlink" xmlns:cml="http://www.xml-cml.org/schema" width="356.821" height="331.034" x="0" y="0" font-family="sans-serif" stroke="rgb(0,0,0)" stroke-width="1"  stroke-linecap="round">
<rect x="0%" y="0%" width="100%" height="100%" stroke-width="0" fill="rgb(255,255,255)"  />
<line x1="268.7" y1="176.5" x2="248.5" y2="157.2" stroke="rgb(0,0,0)"  stroke-width="1.0"/>
<line x1="210.4" y1="167.7" x2="202.0" y2="207.4" stroke="rgb(0,0,0)"  stroke-width="1.0"/>
<line x1="203.0" y1="210.2" x2="164.3" y2="222.7" stroke="rgb(0,0,0)"  stroke-width="1.0"/>
<line x1="201.1" y1="204.5" x2="162.5" y2="217.0" stroke="rgb(0,0,0)"  stroke-width="1.0"/>
<line x1="50.8" y1="167.7" x2="59.4" y2="207.4" stroke="rgb(0,0,0)"  stroke-width="1.0"/>
<line x1="43.5" y1="140.9" x2="50.8" y2="167.7" stroke="rgb(0,0,0)"  stroke-width="1.0"/>
<line x1="47.5" y1="139.8" x2="54.9" y2="166.5" stroke="rgb(0,0,0)"  stroke-width="1.0"/>
<line x1="39.4" y1="142.0" x2="46.8" y2="168.8" stroke="rgb(0,0,0)"  stroke-width="1.0"/>
<line x1="271.8" y1="212.1" x2="275.1" y2="198.1" stroke="rgb(0,0,0)"  stroke-width="1.0"/>
<line x1="91.7" y1="278.8" x2="108.0" y2="256.7" stroke="rgb(0,0,0)"  stroke-width="1.0"/>
<line x1="96.6" y1="282.3" x2="112.8" y2="260.3" stroke="rgb(0,0,0)"  stroke-width="1.0"/>
<line x1="305.2" y1="180.4" x2="291.5" y2="184.6" stroke="rgb(0,0,0)"  stroke-width="1.0"/>
<line x1="303.5" y1="174.7" x2="289.7" y2="178.8" stroke="rgb(0,0,0)"  stroke-width="1.0"/>
<line x1="133.4" y1="168.4" x2="133.6" y2="195.9" stroke="rgb(0,0,0)"  stroke-width="1.0"/>
<line x1="127.4" y1="168.4" x2="127.6" y2="195.9" stroke="rgb(0,0,0)"  stroke-width="1.0"/>
<line x1="59.4" y1="207.4" x2="85.3" y2="215.8" stroke="rgb(0,0,0)"  stroke-width="1.0"/>
<line x1="231.6" y1="69.9" x2="225.8" y2="97.1" stroke="rgb(0,0,0)"  stroke-width="1.0"/>
<line x1="167.9" y1="88.6" x2="187.7" y2="107.5" stroke="rgb(0,0,0)"  stroke-width="1.0"/>
<line x1="164.7" y1="52.7" x2="161.4" y2="67.0" stroke="rgb(0,0,0)"  stroke-width="1.0"/>
<line x1="260.2" y1="49.2" x2="246.8" y2="53.3" stroke="rgb(0,0,0)"  stroke-width="1.0"/>
<line x1="101.7" y1="232.2" x2="110.4" y2="258.5" stroke="rgb(0,0,0)"  stroke-width="1.0"/>
<line x1="110.4" y1="258.5" x2="137.9" y2="258.5" stroke="rgb(0,0,0)"  stroke-width="1.0"/>
<line x1="154.9" y1="246.1" x2="163.4" y2="219.8" stroke="rgb(0,0,0)"  stroke-width="1.0"/>
<line x1="163.4" y1="219.8" x2="130.6" y2="195.9" stroke="rgb(0,0,0)"  stroke-width="1.0"/>
<line x1="130.6" y1="195.9" x2="108.2" y2="212.2" stroke="rgb(0,0,0)"  stroke-width="1.0"/>
<line x1="248.5" y1="157.2" x2="256.1" y2="122.2" stroke="rgb(0,0,0)"  stroke-width="1.0"/>
<line x1="242.7" y1="149.8" x2="247.7" y2="126.6" stroke="rgb(0,0,0)"  stroke-width="1.0"/>
<line x1="256.1" y1="122.2" x2="225.8" y2="97.1" stroke="rgb(0,0,0)"  stroke-width="1.0"/>
<line x1="225.8" y1="97.1" x2="187.7" y2="107.5" stroke="rgb(0,0,0)"  stroke-width="1.0"/>
<line x1="221.9" y1="105.6" x2="195.4" y2="112.9" stroke="rgb(0,0,0)"  stroke-width="1.0"/>
<line x1="187.7" y1="107.5" x2="179.9" y2="142.5" stroke="rgb(0,0,0)"  stroke-width="1.0"/>
<line x1="179.9" y1="142.5" x2="210.4" y2="167.7" stroke="rgb(0,0,0)"  stroke-width="1.0"/>
<line x1="189.2" y1="140.8" x2="210.4" y2="158.3" stroke="rgb(0,0,0)"  stroke-width="1.0"/>
<line x1="210.4" y1="167.7" x2="248.5" y2="157.2" stroke="rgb(0,0,0)"  stroke-width="1.0"/>
<text x="91.698590" y="227.837472" fill="rgb(12,12,255)"  stroke="rgb(12,12,255)" stroke-width="1" font-size="16" >N</text>
<text x="144.892920" y="266.505564" fill="rgb(178,178,0)"  stroke="rgb(178,178,0)" stroke-width="1" font-size="16" >S</text>
<text x="282.952950" y="181.431115" fill="rgb(12,12,255)"  stroke="rgb(12,12,255)" stroke-width="1" font-size="16" >+</text>
<text x="272.152950" y="193.463115" fill="rgb(12,12,255)"  stroke="rgb(12,12,255)" stroke-width="1" font-size="16" >N</text>
<text x="22.000000" y="136.381413" fill="rgb(102,102,102)"  stroke="rgb(102,102,102)" stroke-width="1" font-size="16" >HC</text>
<text x="273.538068" y="210.636095" fill="rgb(255,12,12)"  stroke="rgb(255,12,12)" stroke-width="1" font-size="16" >_</text>
<text x="262.738068" y="232.748095" fill="rgb(255,12,12)"  stroke="rgb(255,12,12)" stroke-width="1" font-size="16" >O</text>
<text x="80.442836" y="299.034154" fill="rgb(255,12,12)"  stroke="rgb(255,12,12)" stroke-width="1" font-size="16" >O</text>
<text x="310.821042" y="181.800999" fill="rgb(255,12,12)"  stroke="rgb(255,12,12)" stroke-width="1" font-size="16" >O</text>
<text x="124.227180" y="163.387388" fill="rgb(255,12,12)"  stroke="rgb(255,12,12)" stroke-width="1" font-size="16" >O</text>
<text x="228.363710" y="65.184731" fill="rgb(255,12,12)"  stroke="rgb(255,12,12)" stroke-width="1" font-size="16" >O</text>
<text x="152.462035" y="87.686446" fill="rgb(255,12,12)"  stroke="rgb(255,12,12)" stroke-width="1" font-size="16" >O</text>
<text x="163.671288" y="48.000000" fill="rgb(102,102,102)"  stroke="rgb(102,102,102)" stroke-width="1" font-size="16" >CH</text>
<text x="187.671288" y="51.680000" fill="rgb(102,102,102)"  stroke="rgb(102,102,102)" stroke-width="1" font-size="13" >3</text>
<text x="268.625440" y="53.316985" fill="rgb(102,102,102)"  stroke="rgb(102,102,102)" stroke-width="1" font-size="16" >CH</text>
<text x="292.625440" y="56.996985" fill="rgb(102,102,102)"  stroke="rgb(102,102,102)" stroke-width="1" font-size="13" >3</text>
<text font-size="18.000000" fill ="black" font-family="sans-serif"
x="10.000000" y="20.000000" ></text>
<title> - OBDepict</title>
</svg>
