<?xml version="1.0"?>
<svg xmlns="http://www.w3.org/2000/svg"
xmlns:xlink="http://www.w3.org/1999/xlink" xmlns:cml="http://www.xml-cml.org/schema" width="419.857" height="323.266" x="0" y="0" font-family="sans-serif" stroke="rgb(0,0,0)" stroke-width="1"  stroke-linecap="round">
<rect x="0%" y="0%" width="100%" height="100%" stroke-width="0" fill="rgb(255,255,255)"  />
<line x1="260.3" y1="199.7" x2="209.1" y2="216.4" stroke="rgb(0,0,0)"  stroke-width="1.0"/>
<line x1="258.5" y1="194.0" x2="207.2" y2="210.7" stroke="rgb(0,0,0)"  stroke-width="1.0"/>
<line x1="267.8" y1="158.1" x2="259.4" y2="196.8" stroke="rgb(0,0,0)"  stroke-width="1.0"/>
<line x1="180.1" y1="78.8" x2="171.8" y2="117.3" stroke="rgb(0,0,0)"  stroke-width="1.0"/>
<line x1="185.7" y1="52.7" x2="180.1" y2="78.8" stroke="rgb(0,0,0)"  stroke-width="1.0"/>
<line x1="189.8" y1="53.6" x2="184.2" y2="79.6" stroke="rgb(0,0,0)"  stroke-width="1.0"/>
<line x1="181.6" y1="51.8" x2="176.0" y2="77.9" stroke="rgb(0,0,0)"  stroke-width="1.0"/>
<line x1="138.2" y1="271.0" x2="153.8" y2="249.3" stroke="rgb(0,0,0)"  stroke-width="1.0"/>
<line x1="143.1" y1="274.5" x2="158.7" y2="252.8" stroke="rgb(0,0,0)"  stroke-width="1.0"/>
<line x1="178.9" y1="163.7" x2="178.9" y2="190.3" stroke="rgb(0,0,0)"  stroke-width="1.0"/>
<line x1="172.9" y1="163.7" x2="172.9" y2="190.3" stroke="rgb(0,0,0)"  stroke-width="1.0"/>
<line x1="106.8" y1="201.4" x2="132.0" y2="209.5" stroke="rgb(0,0,0)"  stroke-width="1.0"/>
<line x1="77.6" y1="227.8" x2="106.8" y2="201.4" stroke="rgb(0,0,0)"  stroke-width="1.0"/>
<line x1="53.3" y1="217.0" x2="78.5" y2="225.0" stroke="rgb(0,0,0)"  stroke-width="1.0"/>
<line x1="51.5" y1="222.7" x2="76.7" y2="230.7" stroke="rgb(0,0,0)"  stroke-width="1.0"/>
<line x1="213.4" y1="139.8" x2="238.5" y2="131.8" stroke="rgb(0,0,0)"  stroke-width="1.0"/>
<line x1="171.8" y1="117.3" x2="191.3" y2="135.0" stroke="rgb(0,0,0)"  stroke-width="1.0"/>
<line x1="154.8" y1="205.8" x2="175.9" y2="190.3" stroke="rgb(0,0,0)"  stroke-width="1.0"/>
<line x1="175.9" y1="190.3" x2="208.1" y2="213.5" stroke="rgb(0,0,0)"  stroke-width="1.0"/>
<line x1="208.1" y1="213.5" x2="200.0" y2="238.7" stroke="rgb(0,0,0)"  stroke-width="1.0"/>
<line x1="183.0" y1="251.1" x2="156.3" y2="251.1" stroke="rgb(0,0,0)"  stroke-width="1.0"/>
<line x1="156.3" y1="251.1" x2="148.3" y2="225.9" stroke="rgb(0,0,0)"  stroke-width="1.0"/>
<line x1="267.8" y1="158.1" x2="305.3" y2="146.1" stroke="rgb(0,0,0)"  stroke-width="1.0"/>
<line x1="305.3" y1="146.1" x2="313.7" y2="107.8" stroke="rgb(0,0,0)"  stroke-width="1.0"/>
<line x1="313.7" y1="107.8" x2="284.5" y2="81.1" stroke="rgb(0,0,0)"  stroke-width="1.0"/>
<line x1="284.5" y1="81.1" x2="246.7" y2="93.1" stroke="rgb(0,0,0)"  stroke-width="1.0"/>
<line x1="280.9" y1="89.8" x2="254.6" y2="98.1" stroke="rgb(0,0,0)"  stroke-width="1.0"/>
<line x1="246.7" y1="93.1" x2="238.5" y2="131.8" stroke="rgb(0,0,0)"  stroke-width="1.0"/>
<line x1="238.5" y1="131.8" x2="267.8" y2="158.1" stroke="rgb(0,0,0)"  stroke-width="1.0"/>
<line x1="247.8" y1="130.5" x2="268.1" y2="148.7" stroke="rgb(0,0,0)"  stroke-width="1.0"/>
<line x1="313.7" y1="107.8" x2="350.6" y2="95.5" stroke="rgb(0,0,0)"  stroke-width="1.0"/>
<line x1="321.6" y1="112.7" x2="347.2" y2="104.2" stroke="rgb(0,0,0)"  stroke-width="1.0"/>
<line x1="350.6" y1="95.5" x2="379.9" y2="121.7" stroke="rgb(0,0,0)"  stroke-width="1.0"/>
<line x1="379.9" y1="121.7" x2="371.9" y2="160.2" stroke="rgb(0,0,0)"  stroke-width="1.0"/>
<line x1="371.6" y1="126.1" x2="366.1" y2="152.9" stroke="rgb(0,0,0)"  stroke-width="1.0"/>
<line x1="371.9" y1="160.2" x2="334.5" y2="173.0" stroke="rgb(0,0,0)"  stroke-width="1.0"/>
<line x1="334.5" y1="173.0" x2="305.3" y2="146.1" stroke="rgb(0,0,0)"  stroke-width="1.0"/>
<line x1="335.0" y1="163.6" x2="314.6" y2="144.9" stroke="rgb(0,0,0)"  stroke-width="1.0"/>
<text x="138.340964" y="221.504527" fill="rgb(12,12,255)"  stroke="rgb(12,12,255)" stroke-width="1" font-size="16" >N</text>
<text x="190.013901" y="259.069188" fill="rgb(178,178,0)"  stroke="rgb(178,178,0)" stroke-width="1" font-size="16" >S</text>
<text x="182.464609" y="48.000000" fill="rgb(102,102,102)"  stroke="rgb(102,102,102)" stroke-width="1" font-size="16" >CH</text>
<text x="127.012243" y="291.266101" fill="rgb(255,12,12)"  stroke="rgb(255,12,12)" stroke-width="1" font-size="16" >O</text>
<text x="169.944651" y="158.699017" fill="rgb(255,12,12)"  stroke="rgb(255,12,12)" stroke-width="1" font-size="16" >O</text>
<text x="14.000000" y="223.891787" fill="rgb(102,102,102)"  stroke="rgb(102,102,102)" stroke-width="1" font-size="16" >H</text>
<text x="26.000000" y="227.571787" fill="rgb(102,102,102)"  stroke="rgb(102,102,102)" stroke-width="1" font-size="13" >2</text>
<text x="32.500000" y="223.891787" fill="rgb(102,102,102)"  stroke="rgb(102,102,102)" stroke-width="1" font-size="16" >C</text>
<text x="194.984568" y="151.747737" fill="rgb(255,12,12)"  stroke="rgb(255,12,12)" stroke-width="1" font-size="16" >O</text>
<text font-size="18.000000" fill ="black" font-family="sans-serif"
x="10.000000" y="20.000000" ></text>
<title> - OBDepict</title>
</svg>
