<?xml version="1.0"?>
<svg xmlns="http://www.w3.org/2000/svg"
xmlns:xlink="http://www.w3.org/1999/xlink" xmlns:cml="http://www.xml-cml.org/schema" width="391.574" height="329.592" x="0" y="0" font-family="sans-serif" stroke="rgb(0,0,0)" stroke-width="1"  stroke-linecap="round">
<rect x="0%" y="0%" width="100%" height="100%" stroke-width="0" fill="rgb(255,255,255)"  />
<line x1="247.7" y1="209.4" x2="247.7" y2="169.3" stroke="rgb(0,0,0)"  stroke-width="1.0"/>
<line x1="175.5" y1="209.0" x2="175.5" y2="182.0" stroke="rgb(0,0,0)"  stroke-width="1.0"/>
<line x1="181.5" y1="209.0" x2="181.5" y2="182.0" stroke="rgb(0,0,0)"  stroke-width="1.0"/>
<line x1="282.4" y1="149.4" x2="305.7" y2="135.8" stroke="rgb(0,0,0)"  stroke-width="1.0"/>
<line x1="283.9" y1="266.6" x2="307.2" y2="280.1" stroke="rgb(0,0,0)"  stroke-width="1.0"/>
<line x1="280.9" y1="271.7" x2="304.2" y2="285.3" stroke="rgb(0,0,0)"  stroke-width="1.0"/>
<line x1="144.4" y1="269.5" x2="120.6" y2="283.1" stroke="rgb(0,0,0)"  stroke-width="1.0"/>
<line x1="328.1" y1="135.8" x2="340.3" y2="142.9" stroke="rgb(0,0,0)"  stroke-width="1.0"/>
<line x1="98.1" y1="283.1" x2="74.7" y2="269.5" stroke="rgb(0,0,0)"  stroke-width="1.0"/>
<line x1="247.5" y1="89.4" x2="254.6" y2="63.1" stroke="rgb(0,0,0)"  stroke-width="1.0"/>
<line x1="74.7" y1="269.5" x2="74.7" y2="229.5" stroke="rgb(0,0,0)"  stroke-width="1.0"/>
<line x1="270.5" y1="47.1" x2="283.8" y2="43.4" stroke="rgb(0,0,0)"  stroke-width="1.0"/>
<line x1="74.7" y1="229.5" x2="51.2" y2="215.9" stroke="rgb(0,0,0)"  stroke-width="1.0"/>
<line x1="72.6" y1="233.1" x2="49.1" y2="219.5" stroke="rgb(0,0,0)"  stroke-width="1.0"/>
<line x1="76.8" y1="225.8" x2="53.4" y2="212.2" stroke="rgb(0,0,0)"  stroke-width="1.0"/>
<line x1="213.2" y1="229.5" x2="213.2" y2="269.2" stroke="rgb(0,0,0)"  stroke-width="1.0"/>
<line x1="220.4" y1="235.5" x2="220.4" y2="263.2" stroke="rgb(0,0,0)"  stroke-width="1.0"/>
<line x1="213.2" y1="269.2" x2="236.5" y2="282.7" stroke="rgb(0,0,0)"  stroke-width="1.0"/>
<line x1="259.0" y1="282.7" x2="282.4" y2="269.2" stroke="rgb(0,0,0)"  stroke-width="1.0"/>
<line x1="282.4" y1="269.2" x2="282.4" y2="229.1" stroke="rgb(0,0,0)"  stroke-width="1.0"/>
<line x1="282.4" y1="229.1" x2="247.7" y2="209.4" stroke="rgb(0,0,0)"  stroke-width="1.0"/>
<line x1="247.7" y1="209.4" x2="213.2" y2="229.5" stroke="rgb(0,0,0)"  stroke-width="1.0"/>
<line x1="213.2" y1="229.5" x2="178.5" y2="209.0" stroke="rgb(0,0,0)"  stroke-width="1.0"/>
<line x1="178.5" y1="209.0" x2="155.5" y2="222.8" stroke="rgb(0,0,0)"  stroke-width="1.0"/>
<line x1="144.4" y1="242.5" x2="144.4" y2="269.5" stroke="rgb(0,0,0)"  stroke-width="1.0"/>
<line x1="144.4" y1="269.5" x2="167.3" y2="282.7" stroke="rgb(0,0,0)"  stroke-width="1.0"/>
<line x1="153.2" y1="266.3" x2="169.1" y2="275.5" stroke="rgb(0,0,0)"  stroke-width="1.0"/>
<line x1="189.8" y1="282.7" x2="213.2" y2="269.2" stroke="rgb(0,0,0)"  stroke-width="1.0"/>
<line x1="247.7" y1="169.3" x2="213.2" y2="149.6" stroke="rgb(0,0,0)"  stroke-width="1.0"/>
<line x1="213.2" y1="149.6" x2="212.5" y2="109.9" stroke="rgb(0,0,0)"  stroke-width="1.0"/>
<line x1="220.3" y1="143.4" x2="219.8" y2="115.7" stroke="rgb(0,0,0)"  stroke-width="1.0"/>
<line x1="212.5" y1="109.9" x2="247.5" y2="89.4" stroke="rgb(0,0,0)"  stroke-width="1.0"/>
<line x1="247.5" y1="89.4" x2="282.2" y2="109.2" stroke="rgb(0,0,0)"  stroke-width="1.0"/>
<line x1="249.2" y1="98.6" x2="273.4" y2="112.5" stroke="rgb(0,0,0)"  stroke-width="1.0"/>
<line x1="282.2" y1="109.2" x2="282.4" y2="149.4" stroke="rgb(0,0,0)"  stroke-width="1.0"/>
<line x1="282.4" y1="149.4" x2="247.7" y2="169.3" stroke="rgb(0,0,0)"  stroke-width="1.0"/>
<line x1="273.6" y1="146.1" x2="249.3" y2="160.1" stroke="rgb(0,0,0)"  stroke-width="1.0"/>
<text x="172.531358" y="297.257452" fill="rgb(12,12,255)"  stroke="rgb(12,12,255)" stroke-width="1" font-size="16" >N</text>
<text x="241.714543" y="297.257452" fill="rgb(12,12,255)"  stroke="rgb(12,12,255)" stroke-width="1" font-size="16" >N</text>
<text x="241.714543" y="313.257452" fill="rgb(12,12,255)"  stroke="rgb(12,12,255)" stroke-width="1" font-size="16" >H</text>
<text x="126.359513" y="237.459150" fill="rgb(12,12,255)"  stroke="rgb(12,12,255)" stroke-width="1" font-size="16" >HN</text>
<text x="172.531358" y="176.981487" fill="rgb(255,12,12)"  stroke="rgb(255,12,12)" stroke-width="1" font-size="16" >O</text>
<text x="310.902581" y="137.282558" fill="rgb(255,12,12)"  stroke="rgb(255,12,12)" stroke-width="1" font-size="16" >O</text>
<text x="310.902581" y="297.257452" fill="rgb(255,12,12)"  stroke="rgb(255,12,12)" stroke-width="1" font-size="16" >O</text>
<text x="103.353025" y="297.592279" fill="rgb(178,178,0)"  stroke="rgb(178,178,0)" stroke-width="1" font-size="16" >S</text>
<text x="347.574241" y="157.386783" fill="rgb(102,102,102)"  stroke="rgb(102,102,102)" stroke-width="1" font-size="16" >CH</text>
<text x="371.574241" y="161.066783" fill="rgb(102,102,102)"  stroke="rgb(102,102,102)" stroke-width="1" font-size="13" >3</text>
<text x="251.934069" y="58.549502" fill="rgb(255,12,12)"  stroke="rgb(255,12,12)" stroke-width="1" font-size="16" >O</text>
<text x="292.293688" y="48.000000" fill="rgb(102,102,102)"  stroke="rgb(102,102,102)" stroke-width="1" font-size="16" >CH</text>
<text x="316.293688" y="51.680000" fill="rgb(102,102,102)"  stroke="rgb(102,102,102)" stroke-width="1" font-size="13" >3</text>
<text x="22.000000" y="217.354925" fill="rgb(102,102,102)"  stroke="rgb(102,102,102)" stroke-width="1" font-size="16" >HC</text>
<text font-size="18.000000" fill ="black" font-family="sans-serif"
x="10.000000" y="20.000000" ></text>
<title> - OBDepict</title>
</svg>
