<?xml version="1.0"?>
<svg xmlns="http://www.w3.org/2000/svg"
xmlns:xlink="http://www.w3.org/1999/xlink" xmlns:cml="http://www.xml-cml.org/schema" width="439.057" height="402.167" x="0" y="0" font-family="sans-serif" stroke="rgb(0,0,0)" stroke-width="1"  stroke-linecap="round">
<rect x="0%" y="0%" width="100%" height="100%" stroke-width="0" fill="rgb(255,255,255)"  />
<line x1="351.5" y1="87.2" x2="330.9" y2="105.7" stroke="rgb(0,0,0)"  stroke-width="1.0"/>
<line x1="200.6" y1="282.6" x2="162.5" y2="294.9" stroke="rgb(0,0,0)"  stroke-width="1.0"/>
<line x1="198.7" y1="276.9" x2="160.6" y2="289.2" stroke="rgb(0,0,0)"  stroke-width="1.0"/>
<line x1="271.0" y1="158.3" x2="241.2" y2="185.4" stroke="rgb(0,0,0)"  stroke-width="1.0"/>
<line x1="208.5" y1="240.6" x2="199.7" y2="279.7" stroke="rgb(0,0,0)"  stroke-width="1.0"/>
<line x1="50.7" y1="240.6" x2="59.2" y2="279.7" stroke="rgb(0,0,0)"  stroke-width="1.0"/>
<line x1="43.5" y1="214.4" x2="50.7" y2="240.6" stroke="rgb(0,0,0)"  stroke-width="1.0"/>
<line x1="47.5" y1="213.3" x2="54.7" y2="239.5" stroke="rgb(0,0,0)"  stroke-width="1.0"/>
<line x1="39.4" y1="215.5" x2="46.6" y2="241.7" stroke="rgb(0,0,0)"  stroke-width="1.0"/>
<line x1="386.7" y1="87.1" x2="373.5" y2="82.6" stroke="rgb(0,0,0)"  stroke-width="1.0"/>
<line x1="91.1" y1="349.9" x2="106.9" y2="328.3" stroke="rgb(0,0,0)"  stroke-width="1.0"/>
<line x1="95.9" y1="353.5" x2="111.8" y2="331.9" stroke="rgb(0,0,0)"  stroke-width="1.0"/>
<line x1="358.7" y1="52.1" x2="361.4" y2="65.2" stroke="rgb(0,0,0)"  stroke-width="1.0"/>
<line x1="352.8" y1="53.3" x2="355.6" y2="66.4" stroke="rgb(0,0,0)"  stroke-width="1.0"/>
<line x1="132.0" y1="241.5" x2="132.3" y2="268.4" stroke="rgb(0,0,0)"  stroke-width="1.0"/>
<line x1="126.0" y1="241.5" x2="126.3" y2="268.5" stroke="rgb(0,0,0)"  stroke-width="1.0"/>
<line x1="59.2" y1="279.7" x2="84.5" y2="288.0" stroke="rgb(0,0,0)"  stroke-width="1.0"/>
<line x1="314.7" y1="197.6" x2="309.1" y2="171.0" stroke="rgb(0,0,0)"  stroke-width="1.0"/>
<line x1="342.8" y1="218.9" x2="329.7" y2="214.5" stroke="rgb(0,0,0)"  stroke-width="1.0"/>
<line x1="100.9" y1="304.4" x2="109.4" y2="330.1" stroke="rgb(0,0,0)"  stroke-width="1.0"/>
<line x1="109.4" y1="330.1" x2="136.3" y2="330.1" stroke="rgb(0,0,0)"  stroke-width="1.0"/>
<line x1="153.3" y1="317.7" x2="161.6" y2="292.0" stroke="rgb(0,0,0)"  stroke-width="1.0"/>
<line x1="161.6" y1="292.0" x2="129.3" y2="268.4" stroke="rgb(0,0,0)"  stroke-width="1.0"/>
<line x1="129.3" y1="268.4" x2="107.4" y2="284.4" stroke="rgb(0,0,0)"  stroke-width="1.0"/>
<line x1="233.1" y1="230.0" x2="208.5" y2="240.6" stroke="rgb(0,0,0)"  stroke-width="1.0"/>
<line x1="208.5" y1="240.6" x2="181.5" y2="211.0" stroke="rgb(0,0,0)"  stroke-width="1.0"/>
<line x1="209.8" y1="231.3" x2="190.9" y2="210.5" stroke="rgb(0,0,0)"  stroke-width="1.0"/>
<line x1="181.5" y1="211.0" x2="201.5" y2="176.5" stroke="rgb(0,0,0)"  stroke-width="1.0"/>
<line x1="201.5" y1="176.5" x2="241.2" y2="185.4" stroke="rgb(0,0,0)"  stroke-width="1.0"/>
<line x1="205.8" y1="184.8" x2="233.8" y2="191.1" stroke="rgb(0,0,0)"  stroke-width="1.0"/>
<line x1="241.2" y1="185.4" x2="243.8" y2="211.9" stroke="rgb(0,0,0)"  stroke-width="1.0"/>
<line x1="271.0" y1="158.3" x2="309.1" y2="171.0" stroke="rgb(0,0,0)"  stroke-width="1.0"/>
<line x1="279.0" y1="153.4" x2="305.7" y2="162.3" stroke="rgb(0,0,0)"  stroke-width="1.0"/>
<line x1="309.1" y1="171.0" x2="339.2" y2="144.8" stroke="rgb(0,0,0)"  stroke-width="1.0"/>
<line x1="339.2" y1="144.8" x2="330.9" y2="105.7" stroke="rgb(0,0,0)"  stroke-width="1.0"/>
<line x1="330.9" y1="140.5" x2="325.1" y2="113.1" stroke="rgb(0,0,0)"  stroke-width="1.0"/>
<line x1="330.9" y1="105.7" x2="292.8" y2="92.8" stroke="rgb(0,0,0)"  stroke-width="1.0"/>
<line x1="292.8" y1="92.8" x2="263.0" y2="119.6" stroke="rgb(0,0,0)"  stroke-width="1.0"/>
<line x1="293.2" y1="102.2" x2="272.2" y2="121.0" stroke="rgb(0,0,0)"  stroke-width="1.0"/>
<line x1="263.0" y1="119.6" x2="271.0" y2="158.3" stroke="rgb(0,0,0)"  stroke-width="1.0"/>
<text x="90.850765" y="300.008947" fill="rgb(12,12,255)"  stroke="rgb(12,12,255)" stroke-width="1" font-size="16" >N</text>
<text x="143.270528" y="338.111675" fill="rgb(178,178,0)"  stroke="rgb(178,178,0)" stroke-width="1" font-size="16" >S</text>
<text x="365.957803" y="74.478399" fill="rgb(12,12,255)"  stroke="rgb(12,12,255)" stroke-width="1" font-size="16" >+</text>
<text x="355.157803" y="86.510399" fill="rgb(12,12,255)"  stroke="rgb(12,12,255)" stroke-width="1" font-size="16" >N</text>
<text x="239.034510" y="232.874183" fill="rgb(255,12,12)"  stroke="rgb(255,12,12)" stroke-width="1" font-size="16" >O</text>
<text x="22.000000" y="209.894127" fill="rgb(102,102,102)"  stroke="rgb(102,102,102)" stroke-width="1" font-size="16" >HC</text>
<text x="403.856695" y="77.099309" fill="rgb(255,12,12)"  stroke="rgb(255,12,12)" stroke-width="1" font-size="16" >_</text>
<text x="393.056695" y="99.211309" fill="rgb(255,12,12)"  stroke="rgb(255,12,12)" stroke-width="1" font-size="16" >O</text>
<text x="79.761129" y="370.167275" fill="rgb(255,12,12)"  stroke="rgb(255,12,12)" stroke-width="1" font-size="16" >O</text>
<text x="347.091730" y="48.000000" fill="rgb(255,12,12)"  stroke="rgb(255,12,12)" stroke-width="1" font-size="16" >O</text>
<text x="122.906365" y="236.504401" fill="rgb(255,12,12)"  stroke="rgb(255,12,12)" stroke-width="1" font-size="16" >O</text>
<text x="311.405912" y="218.358165" fill="rgb(255,12,12)"  stroke="rgb(255,12,12)" stroke-width="1" font-size="16" >O</text>
<text x="351.110675" y="231.059074" fill="rgb(102,102,102)"  stroke="rgb(102,102,102)" stroke-width="1" font-size="16" >CH</text>
<text x="375.110675" y="234.739074" fill="rgb(102,102,102)"  stroke="rgb(102,102,102)" stroke-width="1" font-size="13" >3</text>
<text font-size="18.000000" fill ="black" font-family="sans-serif"
x="10.000000" y="20.000000" ></text>
<title> - OBDepict</title>
</svg>
