<?xml version="1.0"?>
<svg xmlns="http://www.w3.org/2000/svg"
xmlns:xlink="http://www.w3.org/1999/xlink" xmlns:cml="http://www.xml-cml.org/schema" width="274.517" height="364.601" x="0" y="0" font-family="sans-serif" stroke="rgb(0,0,0)" stroke-width="1"  stroke-linecap="round">
<rect x="0%" y="0%" width="100%" height="100%" stroke-width="0" fill="rgb(255,255,255)"  />
<line x1="196.5" y1="222.0" x2="184.0" y2="183.8" stroke="rgb(0,0,0)"  stroke-width="1.0"/>
<line x1="213.1" y1="156.1" x2="186.2" y2="185.8" stroke="rgb(0,0,0)"  stroke-width="1.0"/>
<line x1="208.7" y1="152.1" x2="181.8" y2="181.8" stroke="rgb(0,0,0)"  stroke-width="1.0"/>
<line x1="145.0" y1="175.5" x2="184.0" y2="183.8" stroke="rgb(0,0,0)"  stroke-width="1.0"/>
<line x1="118.6" y1="169.9" x2="145.0" y2="175.5" stroke="rgb(0,0,0)"  stroke-width="1.0"/>
<line x1="119.4" y1="165.8" x2="145.9" y2="171.4" stroke="rgb(0,0,0)"  stroke-width="1.0"/>
<line x1="117.7" y1="174.0" x2="144.2" y2="179.6" stroke="rgb(0,0,0)"  stroke-width="1.0"/>
<line x1="198.6" y1="116.2" x2="210.9" y2="154.1" stroke="rgb(0,0,0)"  stroke-width="1.0"/>
<line x1="66.7" y1="159.0" x2="93.5" y2="129.3" stroke="rgb(0,0,0)"  stroke-width="1.0"/>
<line x1="48.7" y1="179.0" x2="66.7" y2="159.0" stroke="rgb(0,0,0)"  stroke-width="1.0"/>
<line x1="45.6" y1="176.2" x2="63.5" y2="156.2" stroke="rgb(0,0,0)"  stroke-width="1.0"/>
<line x1="51.8" y1="181.8" x2="69.8" y2="161.8" stroke="rgb(0,0,0)"  stroke-width="1.0"/>
<line x1="141.4" y1="127.9" x2="159.4" y2="107.9" stroke="rgb(0,0,0)"  stroke-width="1.0"/>
<line x1="93.5" y1="129.3" x2="120.0" y2="134.9" stroke="rgb(0,0,0)"  stroke-width="1.0"/>
<line x1="188.1" y1="312.3" x2="196.5" y2="286.6" stroke="rgb(0,0,0)"  stroke-width="1.0"/>
<line x1="196.5" y1="222.0" x2="222.2" y2="230.3" stroke="rgb(0,0,0)"  stroke-width="1.0"/>
<line x1="234.5" y1="247.3" x2="234.5" y2="274.3" stroke="rgb(0,0,0)"  stroke-width="1.0"/>
<line x1="234.5" y1="274.3" x2="196.5" y2="286.6" stroke="rgb(0,0,0)"  stroke-width="1.0"/>
<line x1="226.6" y1="269.3" x2="200.0" y2="277.9" stroke="rgb(0,0,0)"  stroke-width="1.0"/>
<line x1="196.5" y1="286.6" x2="180.6" y2="264.8" stroke="rgb(0,0,0)"  stroke-width="1.0"/>
<line x1="180.7" y1="243.6" x2="196.5" y2="222.0" stroke="rgb(0,0,0)"  stroke-width="1.0"/>
<line x1="187.7" y1="246.3" x2="198.8" y2="231.1" stroke="rgb(0,0,0)"  stroke-width="1.0"/>
<line x1="198.6" y1="116.2" x2="159.4" y2="107.9" stroke="rgb(0,0,0)"  stroke-width="1.0"/>
<line x1="194.2" y1="107.9" x2="166.7" y2="102.1" stroke="rgb(0,0,0)"  stroke-width="1.0"/>
<line x1="159.4" y1="107.9" x2="147.1" y2="69.7" stroke="rgb(0,0,0)"  stroke-width="1.0"/>
<line x1="147.1" y1="69.7" x2="173.7" y2="40.0" stroke="rgb(0,0,0)"  stroke-width="1.0"/>
<line x1="156.4" y1="70.0" x2="175.1" y2="49.3" stroke="rgb(0,0,0)"  stroke-width="1.0"/>
<line x1="173.7" y1="40.0" x2="212.9" y2="48.3" stroke="rgb(0,0,0)"  stroke-width="1.0"/>
<line x1="212.9" y1="48.3" x2="225.2" y2="86.5" stroke="rgb(0,0,0)"  stroke-width="1.0"/>
<line x1="207.9" y1="56.2" x2="216.5" y2="83.0" stroke="rgb(0,0,0)"  stroke-width="1.0"/>
<line x1="225.2" y1="86.5" x2="198.6" y2="116.2" stroke="rgb(0,0,0)"  stroke-width="1.0"/>
<text x="166.908192" y="262.310760" fill="rgb(12,12,255)"  stroke="rgb(12,12,255)" stroke-width="1" font-size="16" >N</text>
<text x="228.516955" y="242.313145" fill="rgb(178,178,0)"  stroke="rgb(178,178,0)" stroke-width="1" font-size="16" >S</text>
<text x="99.849946" y="175.250046" fill="rgb(12,12,255)"  stroke="rgb(12,12,255)" stroke-width="1" font-size="16" >N</text>
<text x="22.000000" y="196.664623" fill="rgb(102,102,102)"  stroke="rgb(102,102,102)" stroke-width="1" font-size="16" >HC</text>
<text x="126.714006" y="145.556913" fill="rgb(255,12,12)"  stroke="rgb(255,12,12)" stroke-width="1" font-size="16" >O</text>
<text x="158.015821" y="332.600845" fill="rgb(102,102,102)"  stroke="rgb(102,102,102)" stroke-width="1" font-size="16" >H</text>
<text x="170.015821" y="336.280845" fill="rgb(102,102,102)"  stroke="rgb(102,102,102)" stroke-width="1" font-size="13" >3</text>
<text x="176.515821" y="332.600845" fill="rgb(102,102,102)"  stroke="rgb(102,102,102)" stroke-width="1" font-size="16" >C</text>
<text font-size="18.000000" fill ="black" font-family="sans-serif"
x="10.000000" y="20.000000" ></text>
<title> - OBDepict</title>
</svg>
