<?xml version="1.0"?>
<svg xmlns="http://www.w3.org/2000/svg"
xmlns:xlink="http://www.w3.org/1999/xlink" xmlns:cml="http://www.xml-cml.org/schema" width="362.973" height="384.597" x="0" y="0" font-family="sans-serif" stroke="rgb(0,0,0)" stroke-width="1"  stroke-linecap="round">
<rect x="0%" y="0%" width="100%" height="100%" stroke-width="0" fill="rgb(255,255,255)"  />
<line x1="171.2" y1="217.5" x2="183.5" y2="179.3" stroke="rgb(0,0,0)"  stroke-width="1.0"/>
<line x1="212.4" y1="314.9" x2="185.5" y2="285.2" stroke="rgb(0,0,0)"  stroke-width="1.0"/>
<line x1="230.4" y1="334.9" x2="212.4" y2="314.9" stroke="rgb(0,0,0)"  stroke-width="1.0"/>
<line x1="227.3" y1="337.7" x2="209.3" y2="317.7" stroke="rgb(0,0,0)"  stroke-width="1.0"/>
<line x1="233.5" y1="332.1" x2="215.5" y2="312.1" stroke="rgb(0,0,0)"  stroke-width="1.0"/>
<line x1="254.0" y1="103.5" x2="232.1" y2="119.3" stroke="rgb(0,0,0)"  stroke-width="1.0"/>
<line x1="120.0" y1="146.9" x2="160.1" y2="146.9" stroke="rgb(0,0,0)"  stroke-width="1.0"/>
<line x1="144.1" y1="220.1" x2="170.6" y2="214.5" stroke="rgb(0,0,0)"  stroke-width="1.0"/>
<line x1="145.3" y1="226.0" x2="171.8" y2="220.4" stroke="rgb(0,0,0)"  stroke-width="1.0"/>
<line x1="189.2" y1="237.5" x2="171.2" y2="217.5" stroke="rgb(0,0,0)"  stroke-width="1.0"/>
<line x1="185.5" y1="285.2" x2="193.8" y2="259.5" stroke="rgb(0,0,0)"  stroke-width="1.0"/>
<line x1="183.5" y1="179.3" x2="160.1" y2="146.9" stroke="rgb(0,0,0)"  stroke-width="1.0"/>
<line x1="160.1" y1="146.9" x2="175.8" y2="125.3" stroke="rgb(0,0,0)"  stroke-width="1.0"/>
<line x1="169.4" y1="146.3" x2="180.4" y2="131.1" stroke="rgb(0,0,0)"  stroke-width="1.0"/>
<line x1="195.9" y1="118.6" x2="209.1" y2="122.9" stroke="rgb(0,0,0)"  stroke-width="1.0"/>
<line x1="221.5" y1="139.9" x2="221.5" y2="166.9" stroke="rgb(0,0,0)"  stroke-width="1.0"/>
<line x1="221.5" y1="166.9" x2="183.5" y2="179.3" stroke="rgb(0,0,0)"  stroke-width="1.0"/>
<line x1="213.6" y1="161.9" x2="187.0" y2="170.6" stroke="rgb(0,0,0)"  stroke-width="1.0"/>
<line x1="254.0" y1="103.5" x2="290.6" y2="119.6" stroke="rgb(0,0,0)"  stroke-width="1.0"/>
<line x1="290.6" y1="119.6" x2="323.0" y2="96.2" stroke="rgb(0,0,0)"  stroke-width="1.0"/>
<line x1="291.3" y1="110.3" x2="313.9" y2="93.9" stroke="rgb(0,0,0)"  stroke-width="1.0"/>
<line x1="323.0" y1="96.2" x2="318.7" y2="56.4" stroke="rgb(0,0,0)"  stroke-width="1.0"/>
<line x1="318.7" y1="56.4" x2="282.1" y2="40.0" stroke="rgb(0,0,0)"  stroke-width="1.0"/>
<line x1="310.3" y1="60.5" x2="284.7" y2="49.0" stroke="rgb(0,0,0)"  stroke-width="1.0"/>
<line x1="282.1" y1="40.0" x2="249.8" y2="63.6" stroke="rgb(0,0,0)"  stroke-width="1.0"/>
<line x1="249.8" y1="63.6" x2="254.0" y2="103.5" stroke="rgb(0,0,0)"  stroke-width="1.0"/>
<line x1="257.6" y1="68.8" x2="260.6" y2="96.7" stroke="rgb(0,0,0)"  stroke-width="1.0"/>
<line x1="120.0" y1="146.9" x2="100.0" y2="181.5" stroke="rgb(0,0,0)"  stroke-width="1.0"/>
<line x1="110.8" y1="148.5" x2="96.8" y2="172.7" stroke="rgb(0,0,0)"  stroke-width="1.0"/>
<line x1="100.0" y1="181.5" x2="60.0" y2="181.5" stroke="rgb(0,0,0)"  stroke-width="1.0"/>
<line x1="60.0" y1="181.5" x2="40.0" y2="146.9" stroke="rgb(0,0,0)"  stroke-width="1.0"/>
<line x1="63.2" y1="172.7" x2="49.2" y2="148.5" stroke="rgb(0,0,0)"  stroke-width="1.0"/>
<line x1="40.0" y1="146.9" x2="60.0" y2="112.4" stroke="rgb(0,0,0)"  stroke-width="1.0"/>
<line x1="60.0" y1="112.4" x2="100.0" y2="112.4" stroke="rgb(0,0,0)"  stroke-width="1.0"/>
<line x1="66.0" y1="119.6" x2="94.0" y2="119.6" stroke="rgb(0,0,0)"  stroke-width="1.0"/>
<line x1="100.0" y1="112.4" x2="120.0" y2="146.9" stroke="rgb(0,0,0)"  stroke-width="1.0"/>
<text x="177.508358" y="122.583232" fill="rgb(12,12,255)"  stroke="rgb(12,12,255)" stroke-width="1" font-size="16" >N</text>
<text x="215.510268" y="134.907913" fill="rgb(12,12,255)"  stroke="rgb(12,12,255)" stroke-width="1" font-size="16" >N</text>
<text x="233.095484" y="352.597085" fill="rgb(102,102,102)"  stroke="rgb(102,102,102)" stroke-width="1" font-size="16" >CH</text>
<text x="125.964814" y="233.747786" fill="rgb(255,12,12)"  stroke="rgb(255,12,12)" stroke-width="1" font-size="16" >O</text>
<text x="191.859679" y="255.172950" fill="rgb(12,12,255)"  stroke="rgb(12,12,255)" stroke-width="1" font-size="16" >NH</text>
<text font-size="18.000000" fill ="black" font-family="sans-serif"
x="10.000000" y="20.000000" ></text>
<title> - OBDepict</title>
</svg>
