<?xml version="1.0"?>
<svg xmlns="http://www.w3.org/2000/svg"
xmlns:xlink="http://www.w3.org/1999/xlink" xmlns:cml="http://www.xml-cml.org/schema" width="417.881" height="280.169" x="0" y="0" font-family="sans-serif" stroke="rgb(0,0,0)" stroke-width="1"  stroke-linecap="round">
<rect x="0%" y="0%" width="100%" height="100%" stroke-width="0" fill="rgb(255,255,255)"  />
<line x1="335.8" y1="123.9" x2="329.4" y2="150.5" stroke="rgb(0,0,0)"  stroke-width="1.0"/>
<line x1="222.2" y1="144.5" x2="198.6" y2="111.9" stroke="rgb(0,0,0)"  stroke-width="1.0"/>
<line x1="261.3" y1="133.5" x2="222.2" y2="144.5" stroke="rgb(0,0,0)"  stroke-width="1.0"/>
<line x1="290.3" y1="161.3" x2="261.3" y2="133.5" stroke="rgb(0,0,0)"  stroke-width="1.0"/>
<line x1="77.3" y1="64.3" x2="115.0" y2="49.2" stroke="rgb(0,0,0)"  stroke-width="1.0"/>
<line x1="52.0" y1="74.6" x2="77.3" y2="64.3" stroke="rgb(0,0,0)"  stroke-width="1.0"/>
<line x1="50.4" y1="70.7" x2="75.7" y2="60.4" stroke="rgb(0,0,0)"  stroke-width="1.0"/>
<line x1="53.6" y1="78.5" x2="78.9" y2="68.2" stroke="rgb(0,0,0)"  stroke-width="1.0"/>
<line x1="365.4" y1="103.6" x2="351.3" y2="107.6" stroke="rgb(0,0,0)"  stroke-width="1.0"/>
<line x1="198.5" y1="52.8" x2="184.8" y2="76.5" stroke="rgb(0,0,0)"  stroke-width="1.0"/>
<line x1="193.3" y1="49.8" x2="179.6" y2="73.5" stroke="rgb(0,0,0)"  stroke-width="1.0"/>
<line x1="321.2" y1="90.0" x2="331.5" y2="100.0" stroke="rgb(0,0,0)"  stroke-width="1.0"/>
<line x1="317.1" y1="94.3" x2="327.4" y2="104.3" stroke="rgb(0,0,0)"  stroke-width="1.0"/>
<line x1="267.8" y1="119.4" x2="264.2" y2="134.2" stroke="rgb(0,0,0)"  stroke-width="1.0"/>
<line x1="262.0" y1="118.0" x2="258.4" y2="132.7" stroke="rgb(0,0,0)"  stroke-width="1.0"/>
<line x1="115.0" y1="49.2" x2="133.3" y2="69.4" stroke="rgb(0,0,0)"  stroke-width="1.0"/>
<line x1="222.4" y1="98.2" x2="198.6" y2="111.9" stroke="rgb(0,0,0)"  stroke-width="1.0"/>
<line x1="133.5" y1="227.2" x2="133.5" y2="199.7" stroke="rgb(0,0,0)"  stroke-width="1.0"/>
<line x1="182.2" y1="75.0" x2="154.9" y2="77.8" stroke="rgb(0,0,0)"  stroke-width="1.0"/>
<line x1="139.3" y1="91.8" x2="133.5" y2="118.9" stroke="rgb(0,0,0)"  stroke-width="1.0"/>
<line x1="133.5" y1="118.9" x2="168.3" y2="139.1" stroke="rgb(0,0,0)"  stroke-width="1.0"/>
<line x1="142.3" y1="115.6" x2="166.7" y2="129.8" stroke="rgb(0,0,0)"  stroke-width="1.0"/>
<line x1="168.3" y1="139.1" x2="198.6" y2="111.9" stroke="rgb(0,0,0)"  stroke-width="1.0"/>
<line x1="198.6" y1="111.9" x2="182.2" y2="75.0" stroke="rgb(0,0,0)"  stroke-width="1.0"/>
<line x1="133.5" y1="118.9" x2="98.6" y2="139.1" stroke="rgb(0,0,0)"  stroke-width="1.0"/>
<line x1="98.6" y1="139.1" x2="98.6" y2="179.5" stroke="rgb(0,0,0)"  stroke-width="1.0"/>
<line x1="105.8" y1="145.1" x2="105.8" y2="173.5" stroke="rgb(0,0,0)"  stroke-width="1.0"/>
<line x1="98.6" y1="179.5" x2="133.5" y2="199.7" stroke="rgb(0,0,0)"  stroke-width="1.0"/>
<line x1="133.5" y1="199.7" x2="168.3" y2="179.5" stroke="rgb(0,0,0)"  stroke-width="1.0"/>
<line x1="135.0" y1="190.5" x2="159.5" y2="176.3" stroke="rgb(0,0,0)"  stroke-width="1.0"/>
<line x1="168.3" y1="179.5" x2="168.3" y2="139.1" stroke="rgb(0,0,0)"  stroke-width="1.0"/>
<line x1="290.3" y1="161.3" x2="329.4" y2="150.5" stroke="rgb(0,0,0)"  stroke-width="1.0"/>
<line x1="298.0" y1="166.7" x2="325.5" y2="159.1" stroke="rgb(0,0,0)"  stroke-width="1.0"/>
<line x1="329.4" y1="150.5" x2="358.3" y2="178.6" stroke="rgb(0,0,0)"  stroke-width="1.0"/>
<line x1="358.3" y1="178.6" x2="348.7" y2="217.7" stroke="rgb(0,0,0)"  stroke-width="1.0"/>
<line x1="349.9" y1="182.7" x2="343.1" y2="210.1" stroke="rgb(0,0,0)"  stroke-width="1.0"/>
<line x1="348.7" y1="217.7" x2="309.6" y2="228.7" stroke="rgb(0,0,0)"  stroke-width="1.0"/>
<line x1="309.6" y1="228.7" x2="280.6" y2="200.8" stroke="rgb(0,0,0)"  stroke-width="1.0"/>
<line x1="310.2" y1="219.4" x2="289.9" y2="199.8" stroke="rgb(0,0,0)"  stroke-width="1.0"/>
<line x1="280.6" y1="200.8" x2="290.3" y2="161.3" stroke="rgb(0,0,0)"  stroke-width="1.0"/>
<text x="135.996770" y="87.090691" fill="rgb(12,12,255)"  stroke="rgb(12,12,255)" stroke-width="1" font-size="16" >N</text>
<text x="343.590422" y="107.179383" fill="rgb(12,12,255)"  stroke="rgb(12,12,255)" stroke-width="1" font-size="16" >+</text>
<text x="332.790422" y="119.211383" fill="rgb(12,12,255)"  stroke="rgb(12,12,255)" stroke-width="1" font-size="16" >N</text>
<text x="22.000000" y="87.535793" fill="rgb(102,102,102)"  stroke="rgb(102,102,102)" stroke-width="1" font-size="16" >HC</text>
<text x="382.681113" y="85.869124" fill="rgb(255,12,12)"  stroke="rgb(255,12,12)" stroke-width="1" font-size="16" >_</text>
<text x="371.881113" y="107.981124" fill="rgb(255,12,12)"  stroke="rgb(255,12,12)" stroke-width="1" font-size="16" >O</text>
<text x="196.422996" y="48.000000" fill="rgb(255,12,12)"  stroke="rgb(255,12,12)" stroke-width="1" font-size="16" >O</text>
<text x="303.809898" y="91.135736" fill="rgb(255,12,12)"  stroke="rgb(255,12,12)" stroke-width="1" font-size="16" >O</text>
<text x="262.024141" y="114.046247" fill="rgb(255,12,12)"  stroke="rgb(255,12,12)" stroke-width="1" font-size="16" >O</text>
<text x="227.653484" y="99.670929" fill="rgb(255,12,12)"  stroke="rgb(255,12,12)" stroke-width="1" font-size="16" >OH</text>
<text x="127.456686" y="248.168599" fill="rgb(165,40,40)"  stroke="rgb(165,40,40)" stroke-width="1" font-size="16" >Br</text>
<text font-size="18.000000" fill ="black" font-family="sans-serif"
x="10.000000" y="20.000000" ></text>
<title> - OBDepict</title>
</svg>
