<?xml version="1.0"?>
<svg xmlns="http://www.w3.org/2000/svg"
xmlns:xlink="http://www.w3.org/1999/xlink" xmlns:cml="http://www.xml-cml.org/schema" width="642.432" height="366.179" x="0" y="0" font-family="sans-serif" stroke="rgb(0,0,0)" stroke-width="1"  stroke-linecap="round">
<rect x="0%" y="0%" width="100%" height="100%" stroke-width="0" fill="rgb(255,255,255)"  />
<line x1="482.0" y1="139.9" x2="455.8" y2="139.9" stroke="rgb(0,0,0)"  stroke-width="1.0"/>
<line x1="151.9" y1="257.5" x2="136.2" y2="236.7" stroke="rgb(0,0,0)"  stroke-width="1.0"/>
<line x1="275.2" y1="100.7" x2="310.6" y2="120.5" stroke="rgb(0,0,0)"  stroke-width="1.0"/>
<line x1="72.3" y1="62.0" x2="93.8" y2="50.2" stroke="rgb(0,0,0)"  stroke-width="1.0"/>
<line x1="72.3" y1="108.0" x2="72.3" y2="62.0" stroke="rgb(0,0,0)"  stroke-width="1.0"/>
<line x1="563.5" y1="70.2" x2="541.5" y2="105.2" stroke="rgb(0,0,0)"  stroke-width="1.0"/>
<line x1="253.7" y1="291.5" x2="214.3" y2="291.5" stroke="rgb(0,0,0)"  stroke-width="1.0"/>
<line x1="589.4" y1="70.2" x2="563.5" y2="70.2" stroke="rgb(0,0,0)"  stroke-width="1.0"/>
<line x1="589.4" y1="74.4" x2="563.5" y2="74.4" stroke="rgb(0,0,0)"  stroke-width="1.0"/>
<line x1="589.4" y1="66.0" x2="563.5" y2="66.0" stroke="rgb(0,0,0)"  stroke-width="1.0"/>
<line x1="265.1" y1="262.9" x2="253.7" y2="291.5" stroke="rgb(0,0,0)"  stroke-width="1.0"/>
<line x1="269.0" y1="264.5" x2="257.6" y2="293.0" stroke="rgb(0,0,0)"  stroke-width="1.0"/>
<line x1="261.2" y1="261.4" x2="249.8" y2="289.9" stroke="rgb(0,0,0)"  stroke-width="1.0"/>
<line x1="167.3" y1="184.5" x2="141.5" y2="192.3" stroke="rgb(0,0,0)"  stroke-width="1.0"/>
<line x1="165.5" y1="178.8" x2="139.7" y2="186.6" stroke="rgb(0,0,0)"  stroke-width="1.0"/>
<line x1="431.9" y1="83.7" x2="421.8" y2="109.8" stroke="rgb(0,0,0)"  stroke-width="1.0"/>
<line x1="426.3" y1="81.5" x2="416.2" y2="107.6" stroke="rgb(0,0,0)"  stroke-width="1.0"/>
<line x1="116.2" y1="50.9" x2="138.5" y2="64.8" stroke="rgb(0,0,0)"  stroke-width="1.0"/>
<line x1="252.2" y1="115.2" x2="275.2" y2="100.7" stroke="rgb(0,0,0)"  stroke-width="1.0"/>
<line x1="65.8" y1="243.4" x2="81.4" y2="224.4" stroke="rgb(0,0,0)"  stroke-width="1.0"/>
<line x1="70.4" y1="247.2" x2="86.0" y2="228.2" stroke="rgb(0,0,0)"  stroke-width="1.0"/>
<line x1="426.2" y1="198.1" x2="416.2" y2="173.4" stroke="rgb(0,0,0)"  stroke-width="1.0"/>
<line x1="431.8" y1="195.9" x2="421.8" y2="171.1" stroke="rgb(0,0,0)"  stroke-width="1.0"/>
<line x1="52.4" y1="44.8" x2="74.0" y2="59.5" stroke="rgb(0,0,0)"  stroke-width="1.0"/>
<line x1="49.1" y1="49.8" x2="70.7" y2="64.4" stroke="rgb(0,0,0)"  stroke-width="1.0"/>
<line x1="278.2" y1="73.5" x2="278.2" y2="100.7" stroke="rgb(0,0,0)"  stroke-width="1.0"/>
<line x1="272.2" y1="73.5" x2="272.2" y2="100.7" stroke="rgb(0,0,0)"  stroke-width="1.0"/>
<line x1="207.6" y1="103.5" x2="229.8" y2="115.9" stroke="rgb(0,0,0)"  stroke-width="1.0"/>
<line x1="115.3" y1="226.3" x2="83.7" y2="226.3" stroke="rgb(0,0,0)"  stroke-width="1.0"/>
<line x1="83.7" y1="226.3" x2="74.0" y2="185.7" stroke="rgb(0,0,0)"  stroke-width="1.0"/>
<line x1="74.0" y1="185.7" x2="108.0" y2="164.7" stroke="rgb(0,0,0)"  stroke-width="1.0"/>
<line x1="82.9" y1="188.7" x2="106.7" y2="174.0" stroke="rgb(0,0,0)"  stroke-width="1.0"/>
<line x1="108.0" y1="164.7" x2="140.6" y2="189.5" stroke="rgb(0,0,0)"  stroke-width="1.0"/>
<line x1="140.6" y1="189.5" x2="132.4" y2="214.0" stroke="rgb(0,0,0)"  stroke-width="1.0"/>
<line x1="435.1" y1="150.3" x2="419.0" y2="172.2" stroke="rgb(0,0,0)"  stroke-width="1.0"/>
<line x1="419.0" y1="172.2" x2="380.5" y2="160.9" stroke="rgb(0,0,0)"  stroke-width="1.0"/>
<line x1="380.5" y1="160.9" x2="380.5" y2="120.5" stroke="rgb(0,0,0)"  stroke-width="1.0"/>
<line x1="380.5" y1="120.5" x2="419.0" y2="108.7" stroke="rgb(0,0,0)"  stroke-width="1.0"/>
<line x1="419.0" y1="108.7" x2="434.9" y2="129.6" stroke="rgb(0,0,0)"  stroke-width="1.0"/>
<line x1="74.0" y1="185.7" x2="40.5" y2="167.5" stroke="rgb(0,0,0)"  stroke-width="1.0"/>
<line x1="40.5" y1="167.5" x2="40.5" y2="126.9" stroke="rgb(0,0,0)"  stroke-width="1.0"/>
<line x1="47.7" y1="161.5" x2="47.7" y2="132.9" stroke="rgb(0,0,0)"  stroke-width="1.0"/>
<line x1="40.5" y1="126.9" x2="72.3" y2="108.0" stroke="rgb(0,0,0)"  stroke-width="1.0"/>
<line x1="72.3" y1="108.0" x2="108.0" y2="126.9" stroke="rgb(0,0,0)"  stroke-width="1.0"/>
<line x1="74.3" y1="117.2" x2="99.3" y2="130.4" stroke="rgb(0,0,0)"  stroke-width="1.0"/>
<line x1="108.0" y1="126.9" x2="108.0" y2="164.7" stroke="rgb(0,0,0)"  stroke-width="1.0"/>
<line x1="207.6" y1="103.5" x2="173.6" y2="122.9" stroke="rgb(0,0,0)"  stroke-width="1.0"/>
<line x1="198.9" y1="100.2" x2="175.3" y2="113.7" stroke="rgb(0,0,0)"  stroke-width="1.0"/>
<line x1="173.6" y1="122.9" x2="138.5" y2="104.5" stroke="rgb(0,0,0)"  stroke-width="1.0"/>
<line x1="138.5" y1="104.5" x2="138.5" y2="64.8" stroke="rgb(0,0,0)"  stroke-width="1.0"/>
<line x1="145.7" y1="98.5" x2="145.7" y2="70.8" stroke="rgb(0,0,0)"  stroke-width="1.0"/>
<line x1="138.5" y1="64.8" x2="170.3" y2="45.7" stroke="rgb(0,0,0)"  stroke-width="1.0"/>
<line x1="170.3" y1="45.7" x2="207.6" y2="66.7" stroke="rgb(0,0,0)"  stroke-width="1.0"/>
<line x1="172.0" y1="54.9" x2="198.9" y2="70.0" stroke="rgb(0,0,0)"  stroke-width="1.0"/>
<line x1="207.6" y1="66.7" x2="207.6" y2="103.5" stroke="rgb(0,0,0)"  stroke-width="1.0"/>
<line x1="482.0" y1="139.9" x2="502.3" y2="105.2" stroke="rgb(0,0,0)"  stroke-width="1.0"/>
<line x1="502.3" y1="105.2" x2="541.5" y2="105.2" stroke="rgb(0,0,0)"  stroke-width="1.0"/>
<line x1="508.3" y1="112.4" x2="535.5" y2="112.4" stroke="rgb(0,0,0)"  stroke-width="1.0"/>
<line x1="541.5" y1="105.2" x2="563.5" y2="139.9" stroke="rgb(0,0,0)"  stroke-width="1.0"/>
<line x1="563.5" y1="139.9" x2="541.5" y2="174.4" stroke="rgb(0,0,0)"  stroke-width="1.0"/>
<line x1="554.2" y1="141.1" x2="538.7" y2="165.4" stroke="rgb(0,0,0)"  stroke-width="1.0"/>
<line x1="541.5" y1="174.4" x2="502.3" y2="174.4" stroke="rgb(0,0,0)"  stroke-width="1.0"/>
<line x1="502.3" y1="174.4" x2="482.0" y2="139.9" stroke="rgb(0,0,0)"  stroke-width="1.0"/>
<line x1="505.5" y1="165.5" x2="491.3" y2="141.4" stroke="rgb(0,0,0)"  stroke-width="1.0"/>
<line x1="151.9" y1="257.5" x2="193.0" y2="257.5" stroke="rgb(0,0,0)"  stroke-width="1.0"/>
<line x1="157.9" y1="264.7" x2="187.0" y2="264.7" stroke="rgb(0,0,0)"  stroke-width="1.0"/>
<line x1="193.0" y1="257.5" x2="214.3" y2="291.5" stroke="rgb(0,0,0)"  stroke-width="1.0"/>
<line x1="214.3" y1="291.5" x2="196.3" y2="326.2" stroke="rgb(0,0,0)"  stroke-width="1.0"/>
<line x1="205.1" y1="293.5" x2="192.7" y2="317.5" stroke="rgb(0,0,0)"  stroke-width="1.0"/>
<line x1="196.3" y1="326.2" x2="151.9" y2="326.2" stroke="rgb(0,0,0)"  stroke-width="1.0"/>
<line x1="151.9" y1="326.2" x2="134.7" y2="294.1" stroke="rgb(0,0,0)"  stroke-width="1.0"/>
<line x1="155.4" y1="317.5" x2="143.9" y2="295.9" stroke="rgb(0,0,0)"  stroke-width="1.0"/>
<line x1="134.7" y1="294.1" x2="151.9" y2="257.5" stroke="rgb(0,0,0)"  stroke-width="1.0"/>
<line x1="346.0" y1="99.5" x2="310.6" y2="120.5" stroke="rgb(0,0,0)"  stroke-width="1.0"/>
<line x1="310.6" y1="120.5" x2="310.6" y2="160.9" stroke="rgb(0,0,0)"  stroke-width="1.0"/>
<line x1="317.8" y1="126.5" x2="317.8" y2="154.9" stroke="rgb(0,0,0)"  stroke-width="1.0"/>
<line x1="310.6" y1="160.9" x2="346.0" y2="179.5" stroke="rgb(0,0,0)"  stroke-width="1.0"/>
<line x1="346.0" y1="179.5" x2="380.5" y2="160.9" stroke="rgb(0,0,0)"  stroke-width="1.0"/>
<line x1="347.9" y1="170.4" x2="371.8" y2="157.4" stroke="rgb(0,0,0)"  stroke-width="1.0"/>
<line x1="380.5" y1="120.5" x2="346.0" y2="99.5" stroke="rgb(0,0,0)"  stroke-width="1.0"/>
<line x1="371.6" y1="123.5" x2="347.4" y2="108.8" stroke="rgb(0,0,0)"  stroke-width="1.0"/>
<text x="436.814367" y="147.880455" fill="rgb(12,12,255)"  stroke="rgb(12,12,255)" stroke-width="1" font-size="16" >N</text>
<text x="122.305469" y="234.298909" fill="rgb(12,12,255)"  stroke="rgb(12,12,255)" stroke-width="1" font-size="16" >N</text>
<text x="596.432448" y="78.221412" fill="rgb(102,102,102)"  stroke="rgb(102,102,102)" stroke-width="1" font-size="16" >CH</text>
<text x="263.977458" y="258.854415" fill="rgb(102,102,102)"  stroke="rgb(102,102,102)" stroke-width="1" font-size="16" >CH</text>
<text x="172.836604" y="185.893097" fill="rgb(255,12,12)"  stroke="rgb(255,12,12)" stroke-width="1" font-size="16" >O</text>
<text x="427.846185" y="78.459721" fill="rgb(255,12,12)"  stroke="rgb(255,12,12)" stroke-width="1" font-size="16" >O</text>
<text x="99.165224" y="52.012337" fill="rgb(255,12,12)"  stroke="rgb(255,12,12)" stroke-width="1" font-size="16" >O</text>
<text x="235.171307" y="130.172672" fill="rgb(255,12,12)"  stroke="rgb(255,12,12)" stroke-width="1" font-size="16" >O</text>
<text x="53.833106" y="263.343369" fill="rgb(255,12,12)"  stroke="rgb(255,12,12)" stroke-width="1" font-size="16" >O</text>
<text x="427.846185" y="217.062880" fill="rgb(255,12,12)"  stroke="rgb(255,12,12)" stroke-width="1" font-size="16" >O</text>
<text x="34.000000" y="48.000000" fill="rgb(255,12,12)"  stroke="rgb(255,12,12)" stroke-width="1" font-size="16" >O</text>
<text x="269.171612" y="68.543168" fill="rgb(255,12,12)"  stroke="rgb(255,12,12)" stroke-width="1" font-size="16" >O</text>
<text font-size="18.000000" fill ="black" font-family="sans-serif"
x="10.000000" y="20.000000" ></text>
<title> - OBDepict</title>
</svg>
