<?xml version="1.0"?>
<svg xmlns="http://www.w3.org/2000/svg"
xmlns:xlink="http://www.w3.org/1999/xlink" xmlns:cml="http://www.xml-cml.org/schema" width="471.014" height="221.087" x="0" y="0" font-family="sans-serif" stroke="rgb(0,0,0)" stroke-width="1"  stroke-linecap="round">
<rect x="0%" y="0%" width="100%" height="100%" stroke-width="0" fill="rgb(255,255,255)"  />
<line x1="176.6" y1="126.1" x2="155.4" y2="108.3" stroke="rgb(0,0,0)"  stroke-width="1.0"/>
<line x1="134.2" y1="106.5" x2="110.3" y2="120.2" stroke="rgb(0,0,0)"  stroke-width="1.0"/>
<line x1="75.2" y1="59.4" x2="75.2" y2="100.0" stroke="rgb(0,0,0)"  stroke-width="1.0"/>
<line x1="393.2" y1="87.8" x2="355.1" y2="101.3" stroke="rgb(0,0,0)"  stroke-width="1.0"/>
<line x1="418.8" y1="78.5" x2="393.2" y2="87.8" stroke="rgb(0,0,0)"  stroke-width="1.0"/>
<line x1="420.2" y1="82.4" x2="394.6" y2="91.7" stroke="rgb(0,0,0)"  stroke-width="1.0"/>
<line x1="417.4" y1="74.5" x2="391.7" y2="83.8" stroke="rgb(0,0,0)"  stroke-width="1.0"/>
<line x1="214.7" y1="112.1" x2="176.6" y2="126.1" stroke="rgb(0,0,0)"  stroke-width="1.0"/>
<line x1="168.7" y1="152.9" x2="173.6" y2="125.6" stroke="rgb(0,0,0)"  stroke-width="1.0"/>
<line x1="174.6" y1="153.9" x2="179.5" y2="126.6" stroke="rgb(0,0,0)"  stroke-width="1.0"/>
<line x1="52.8" y1="43.7" x2="76.6" y2="56.8" stroke="rgb(0,0,0)"  stroke-width="1.0"/>
<line x1="49.9" y1="48.9" x2="73.7" y2="62.0" stroke="rgb(0,0,0)"  stroke-width="1.0"/>
<line x1="88.5" y1="51.7" x2="75.2" y2="59.4" stroke="rgb(0,0,0)"  stroke-width="1.0"/>
<line x1="355.1" y1="101.3" x2="337.4" y2="80.5" stroke="rgb(0,0,0)"  stroke-width="1.0"/>
<line x1="316.7" y1="75.1" x2="290.8" y2="84.4" stroke="rgb(0,0,0)"  stroke-width="1.0"/>
<line x1="214.7" y1="112.1" x2="245.8" y2="138.5" stroke="rgb(0,0,0)"  stroke-width="1.0"/>
<line x1="223.9" y1="110.5" x2="245.8" y2="129.1" stroke="rgb(0,0,0)"  stroke-width="1.0"/>
<line x1="245.8" y1="138.5" x2="283.6" y2="124.3" stroke="rgb(0,0,0)"  stroke-width="1.0"/>
<line x1="283.6" y1="124.3" x2="290.8" y2="84.4" stroke="rgb(0,0,0)"  stroke-width="1.0"/>
<line x1="277.6" y1="117.1" x2="282.7" y2="89.0" stroke="rgb(0,0,0)"  stroke-width="1.0"/>
<line x1="290.8" y1="84.4" x2="259.7" y2="58.5" stroke="rgb(0,0,0)"  stroke-width="1.0"/>
<line x1="259.7" y1="58.5" x2="221.4" y2="72.2" stroke="rgb(0,0,0)"  stroke-width="1.0"/>
<line x1="256.5" y1="67.3" x2="229.5" y2="77.0" stroke="rgb(0,0,0)"  stroke-width="1.0"/>
<line x1="221.4" y1="72.2" x2="214.7" y2="112.1" stroke="rgb(0,0,0)"  stroke-width="1.0"/>
<line x1="75.2" y1="100.0" x2="110.3" y2="120.2" stroke="rgb(0,0,0)"  stroke-width="1.0"/>
<line x1="110.3" y1="120.2" x2="110.3" y2="160.8" stroke="rgb(0,0,0)"  stroke-width="1.0"/>
<line x1="103.1" y1="126.2" x2="103.1" y2="154.8" stroke="rgb(0,0,0)"  stroke-width="1.0"/>
<line x1="110.3" y1="160.8" x2="75.2" y2="181.1" stroke="rgb(0,0,0)"  stroke-width="1.0"/>
<line x1="75.2" y1="181.1" x2="40.0" y2="160.8" stroke="rgb(0,0,0)"  stroke-width="1.0"/>
<line x1="73.6" y1="171.9" x2="48.8" y2="157.6" stroke="rgb(0,0,0)"  stroke-width="1.0"/>
<line x1="40.0" y1="160.8" x2="40.0" y2="120.2" stroke="rgb(0,0,0)"  stroke-width="1.0"/>
<line x1="40.0" y1="120.2" x2="75.2" y2="100.0" stroke="rgb(0,0,0)"  stroke-width="1.0"/>
<line x1="48.8" y1="123.5" x2="73.6" y2="109.2" stroke="rgb(0,0,0)"  stroke-width="1.0"/>
<text x="139.472206" y="107.954434" fill="rgb(12,12,255)"  stroke="rgb(12,12,255)" stroke-width="1" font-size="16" >N</text>
<text x="139.472206" y="91.954434" fill="rgb(12,12,255)"  stroke="rgb(12,12,255)" stroke-width="1" font-size="16" >H</text>
<text x="425.014233" y="82.031382" fill="rgb(102,102,102)"  stroke="rgb(102,102,102)" stroke-width="1" font-size="16" >CH</text>
<text x="163.359571" y="174.212615" fill="rgb(255,12,12)"  stroke="rgb(255,12,12)" stroke-width="1" font-size="16" >O</text>
<text x="34.000000" y="48.000000" fill="rgb(255,12,12)"  stroke="rgb(255,12,12)" stroke-width="1" font-size="16" >O</text>
<text x="95.723329" y="53.187561" fill="rgb(12,12,255)"  stroke="rgb(12,12,255)" stroke-width="1" font-size="16" >NH</text>
<text x="119.723329" y="56.867561" fill="rgb(12,12,255)"  stroke="rgb(12,12,255)" stroke-width="1" font-size="13" >2</text>
<text x="322.920088" y="78.653321" fill="rgb(255,12,12)"  stroke="rgb(255,12,12)" stroke-width="1" font-size="16" >O</text>
<text font-size="18.000000" fill ="black" font-family="sans-serif"
x="10.000000" y="20.000000" ></text>
<title> - OBDepict</title>
</svg>
