<?xml version="1.0"?>
<svg xmlns="http://www.w3.org/2000/svg"
xmlns:xlink="http://www.w3.org/1999/xlink" xmlns:cml="http://www.xml-cml.org/schema" width="357.15" height="419.971" x="0" y="0" font-family="sans-serif" stroke="rgb(0,0,0)" stroke-width="1"  stroke-linecap="round">
<rect x="0%" y="0%" width="100%" height="100%" stroke-width="0" fill="rgb(255,255,255)"  />
<line x1="282.4" y1="360.0" x2="247.9" y2="340.0" stroke="rgb(0,0,0)"  stroke-width="1.0"/>
<line x1="305.9" y1="373.5" x2="282.4" y2="360.0" stroke="rgb(0,0,0)"  stroke-width="1.0"/>
<line x1="303.8" y1="377.1" x2="280.3" y2="363.6" stroke="rgb(0,0,0)"  stroke-width="1.0"/>
<line x1="308.0" y1="369.8" x2="284.5" y2="356.3" stroke="rgb(0,0,0)"  stroke-width="1.0"/>
<line x1="213.1" y1="240.0" x2="213.1" y2="280.0" stroke="rgb(0,0,0)"  stroke-width="1.0"/>
<line x1="188.3" y1="290.9" x2="211.6" y2="277.4" stroke="rgb(0,0,0)"  stroke-width="1.0"/>
<line x1="191.3" y1="296.1" x2="214.6" y2="282.6" stroke="rgb(0,0,0)"  stroke-width="1.0"/>
<line x1="236.6" y1="293.5" x2="213.1" y2="280.0" stroke="rgb(0,0,0)"  stroke-width="1.0"/>
<line x1="155.1" y1="166.5" x2="178.6" y2="180.0" stroke="rgb(0,0,0)"  stroke-width="1.0"/>
<line x1="143.8" y1="120.0" x2="143.8" y2="147.0" stroke="rgb(0,0,0)"  stroke-width="1.0"/>
<line x1="247.9" y1="340.0" x2="247.9" y2="313.0" stroke="rgb(0,0,0)"  stroke-width="1.0"/>
<line x1="109.3" y1="100.0" x2="143.8" y2="120.0" stroke="rgb(0,0,0)"  stroke-width="1.0"/>
<line x1="213.1" y1="240.0" x2="178.6" y2="220.0" stroke="rgb(0,0,0)"  stroke-width="1.0"/>
<line x1="211.5" y1="230.7" x2="187.4" y2="216.8" stroke="rgb(0,0,0)"  stroke-width="1.0"/>
<line x1="178.6" y1="220.0" x2="178.6" y2="180.0" stroke="rgb(0,0,0)"  stroke-width="1.0"/>
<line x1="178.6" y1="180.0" x2="213.1" y2="160.0" stroke="rgb(0,0,0)"  stroke-width="1.0"/>
<line x1="187.4" y1="183.2" x2="211.5" y2="169.2" stroke="rgb(0,0,0)"  stroke-width="1.0"/>
<line x1="213.1" y1="160.0" x2="247.9" y2="180.0" stroke="rgb(0,0,0)"  stroke-width="1.0"/>
<line x1="247.9" y1="180.0" x2="247.9" y2="220.0" stroke="rgb(0,0,0)"  stroke-width="1.0"/>
<line x1="240.7" y1="186.0" x2="240.7" y2="214.0" stroke="rgb(0,0,0)"  stroke-width="1.0"/>
<line x1="247.9" y1="220.0" x2="213.1" y2="240.0" stroke="rgb(0,0,0)"  stroke-width="1.0"/>
<line x1="109.3" y1="100.0" x2="74.5" y2="120.0" stroke="rgb(0,0,0)"  stroke-width="1.0"/>
<line x1="100.5" y1="96.7" x2="76.2" y2="110.8" stroke="rgb(0,0,0)"  stroke-width="1.0"/>
<line x1="74.5" y1="120.0" x2="40.0" y2="100.0" stroke="rgb(0,0,0)"  stroke-width="1.0"/>
<line x1="40.0" y1="100.0" x2="40.0" y2="60.0" stroke="rgb(0,0,0)"  stroke-width="1.0"/>
<line x1="47.2" y1="94.0" x2="47.2" y2="66.0" stroke="rgb(0,0,0)"  stroke-width="1.0"/>
<line x1="40.0" y1="60.0" x2="74.5" y2="40.0" stroke="rgb(0,0,0)"  stroke-width="1.0"/>
<line x1="74.5" y1="40.0" x2="109.3" y2="60.0" stroke="rgb(0,0,0)"  stroke-width="1.0"/>
<line x1="76.2" y1="49.2" x2="100.5" y2="63.2" stroke="rgb(0,0,0)"  stroke-width="1.0"/>
<line x1="109.3" y1="60.0" x2="109.3" y2="100.0" stroke="rgb(0,0,0)"  stroke-width="1.0"/>
<text x="311.149541" y="387.970815" fill="rgb(102,102,102)"  stroke="rgb(102,102,102)" stroke-width="1" font-size="16" >CH</text>
<text x="172.572347" y="307.977682" fill="rgb(255,12,12)"  stroke="rgb(255,12,12)" stroke-width="1" font-size="16" >O</text>
<text x="241.860944" y="307.977682" fill="rgb(12,12,255)"  stroke="rgb(12,12,255)" stroke-width="1" font-size="16" >NH</text>
<text x="137.831087" y="167.989699" fill="rgb(255,12,12)"  stroke="rgb(255,12,12)" stroke-width="1" font-size="16" >O</text>
<text font-size="18.000000" fill ="black" font-family="sans-serif"
x="10.000000" y="20.000000" ></text>
<title> - OBDepict</title>
</svg>
