<?xml version="1.0"?>
<svg xmlns="http://www.w3.org/2000/svg"
xmlns:xlink="http://www.w3.org/1999/xlink" xmlns:cml="http://www.xml-cml.org/schema" width="435.978" height="327.487" x="0" y="0" font-family="sans-serif" stroke="rgb(0,0,0)" stroke-width="1"  stroke-linecap="round">
<rect x="0%" y="0%" width="100%" height="100%" stroke-width="0" fill="rgb(255,255,255)"  />
<line x1="80.6" y1="248.3" x2="119.6" y2="240.0" stroke="rgb(0,0,0)"  stroke-width="1.0"/>
<line x1="254.0" y1="79.8" x2="221.6" y2="103.2" stroke="rgb(0,0,0)"  stroke-width="1.0"/>
<line x1="171.1" y1="193.7" x2="179.4" y2="167.9" stroke="rgb(0,0,0)"  stroke-width="1.0"/>
<line x1="359.4" y1="88.7" x2="322.8" y2="72.5" stroke="rgb(0,0,0)"  stroke-width="1.0"/>
<line x1="384.1" y1="99.7" x2="359.4" y2="88.7" stroke="rgb(0,0,0)"  stroke-width="1.0"/>
<line x1="382.4" y1="103.6" x2="357.7" y2="92.5" stroke="rgb(0,0,0)"  stroke-width="1.0"/>
<line x1="385.8" y1="95.9" x2="361.1" y2="84.9" stroke="rgb(0,0,0)"  stroke-width="1.0"/>
<line x1="120.0" y1="123.2" x2="160.0" y2="123.2" stroke="rgb(0,0,0)"  stroke-width="1.0"/>
<line x1="254.1" y1="52.6" x2="256.9" y2="79.5" stroke="rgb(0,0,0)"  stroke-width="1.0"/>
<line x1="248.1" y1="53.2" x2="251.0" y2="80.1" stroke="rgb(0,0,0)"  stroke-width="1.0"/>
<line x1="74.9" y1="222.0" x2="80.6" y2="248.3" stroke="rgb(0,0,0)"  stroke-width="1.0"/>
<line x1="54.1" y1="253.9" x2="80.6" y2="248.3" stroke="rgb(0,0,0)"  stroke-width="1.0"/>
<line x1="86.2" y1="274.8" x2="80.6" y2="248.3" stroke="rgb(0,0,0)"  stroke-width="1.0"/>
<line x1="278.6" y1="90.7" x2="254.0" y2="79.8" stroke="rgb(0,0,0)"  stroke-width="1.0"/>
<line x1="322.8" y1="72.5" x2="301.0" y2="88.3" stroke="rgb(0,0,0)"  stroke-width="1.0"/>
<line x1="221.6" y1="103.2" x2="195.8" y2="94.9" stroke="rgb(0,0,0)"  stroke-width="1.0"/>
<line x1="175.7" y1="101.6" x2="160.0" y2="123.2" stroke="rgb(0,0,0)"  stroke-width="1.0"/>
<line x1="180.4" y1="107.4" x2="169.4" y2="122.6" stroke="rgb(0,0,0)"  stroke-width="1.0"/>
<line x1="160.0" y1="123.2" x2="175.8" y2="145.0" stroke="rgb(0,0,0)"  stroke-width="1.0"/>
<line x1="195.8" y1="151.6" x2="209.3" y2="147.2" stroke="rgb(0,0,0)"  stroke-width="1.0"/>
<line x1="221.6" y1="130.0" x2="221.6" y2="103.2" stroke="rgb(0,0,0)"  stroke-width="1.0"/>
<line x1="214.4" y1="128.0" x2="214.4" y2="109.2" stroke="rgb(0,0,0)"  stroke-width="1.0"/>
<line x1="120.0" y1="123.2" x2="100.0" y2="88.7" stroke="rgb(0,0,0)"  stroke-width="1.0"/>
<line x1="100.0" y1="88.7" x2="60.0" y2="88.7" stroke="rgb(0,0,0)"  stroke-width="1.0"/>
<line x1="94.0" y1="95.9" x2="66.0" y2="95.9" stroke="rgb(0,0,0)"  stroke-width="1.0"/>
<line x1="60.0" y1="88.7" x2="40.0" y2="123.2" stroke="rgb(0,0,0)"  stroke-width="1.0"/>
<line x1="40.0" y1="123.2" x2="60.0" y2="158.0" stroke="rgb(0,0,0)"  stroke-width="1.0"/>
<line x1="49.2" y1="124.8" x2="63.2" y2="149.2" stroke="rgb(0,0,0)"  stroke-width="1.0"/>
<line x1="60.0" y1="158.0" x2="100.0" y2="158.0" stroke="rgb(0,0,0)"  stroke-width="1.0"/>
<line x1="100.0" y1="158.0" x2="120.0" y2="123.2" stroke="rgb(0,0,0)"  stroke-width="1.0"/>
<line x1="96.8" y1="149.2" x2="110.8" y2="124.8" stroke="rgb(0,0,0)"  stroke-width="1.0"/>
<line x1="171.1" y1="193.7" x2="198.0" y2="223.4" stroke="rgb(0,0,0)"  stroke-width="1.0"/>
<line x1="169.8" y1="203.0" x2="188.6" y2="223.8" stroke="rgb(0,0,0)"  stroke-width="1.0"/>
<line x1="198.0" y1="223.4" x2="185.5" y2="261.4" stroke="rgb(0,0,0)"  stroke-width="1.0"/>
<line x1="185.5" y1="261.4" x2="146.5" y2="269.7" stroke="rgb(0,0,0)"  stroke-width="1.0"/>
<line x1="178.1" y1="255.6" x2="150.8" y2="261.4" stroke="rgb(0,0,0)"  stroke-width="1.0"/>
<line x1="146.5" y1="269.7" x2="119.6" y2="240.0" stroke="rgb(0,0,0)"  stroke-width="1.0"/>
<line x1="119.6" y1="240.0" x2="131.9" y2="202.0" stroke="rgb(0,0,0)"  stroke-width="1.0"/>
<line x1="128.3" y1="236.5" x2="136.9" y2="210.0" stroke="rgb(0,0,0)"  stroke-width="1.0"/>
<line x1="131.9" y1="202.0" x2="171.1" y2="193.7" stroke="rgb(0,0,0)"  stroke-width="1.0"/>
<text x="177.441623" y="98.912248" fill="rgb(12,12,255)"  stroke="rgb(12,12,255)" stroke-width="1" font-size="16" >N</text>
<text x="177.441623" y="163.561106" fill="rgb(12,12,255)"  stroke="rgb(12,12,255)" stroke-width="1" font-size="16" >N</text>
<text x="215.625810" y="151.235494" fill="rgb(12,12,255)"  stroke="rgb(12,12,255)" stroke-width="1" font-size="16" >N</text>
<text x="389.978441" y="113.051307" fill="rgb(102,102,102)"  stroke="rgb(102,102,102)" stroke-width="1" font-size="16" >CH</text>
<text x="243.709976" y="48.000000" fill="rgb(255,12,12)"  stroke="rgb(255,12,12)" stroke-width="1" font-size="16" >O</text>
<text x="66.123204" y="217.300197" fill="rgb(127,178,255)"  stroke="rgb(127,178,255)" stroke-width="1" font-size="16" >F</text>
<text x="35.410997" y="264.575856" fill="rgb(127,178,255)"  stroke="rgb(127,178,255)" stroke-width="1" font-size="16" >F</text>
<text x="82.890305" y="295.486864" fill="rgb(127,178,255)"  stroke="rgb(127,178,255)" stroke-width="1" font-size="16" >F</text>
<text x="284.517355" y="103.959834" fill="rgb(12,12,255)"  stroke="rgb(12,12,255)" stroke-width="1" font-size="16" >N</text>
<text x="284.517355" y="119.959834" fill="rgb(12,12,255)"  stroke="rgb(12,12,255)" stroke-width="1" font-size="16" >H</text>
<text font-size="18.000000" fill ="black" font-family="sans-serif"
x="10.000000" y="20.000000" ></text>
<title> - OBDepict</title>
</svg>
