<?xml version="1.0"?>
<svg xmlns="http://www.w3.org/2000/svg"
xmlns:xlink="http://www.w3.org/1999/xlink" xmlns:cml="http://www.xml-cml.org/schema" width="291.192" height="425.865" x="0" y="0" font-family="sans-serif" stroke="rgb(0,0,0)" stroke-width="1"  stroke-linecap="round">
<rect x="0%" y="0%" width="100%" height="100%" stroke-width="0" fill="rgb(255,255,255)"  />
<line x1="211.2" y1="316.8" x2="171.2" y2="316.8" stroke="rgb(0,0,0)"  stroke-width="1.0"/>
<line x1="233.8" y1="283.8" x2="213.8" y2="318.3" stroke="rgb(0,0,0)"  stroke-width="1.0"/>
<line x1="228.6" y1="280.8" x2="208.6" y2="315.3" stroke="rgb(0,0,0)"  stroke-width="1.0"/>
<line x1="231.2" y1="351.5" x2="211.2" y2="316.8" stroke="rgb(0,0,0)"  stroke-width="1.0"/>
<line x1="210.8" y1="247.4" x2="231.2" y2="282.3" stroke="rgb(0,0,0)"  stroke-width="1.0"/>
<line x1="244.6" y1="374.6" x2="231.2" y2="351.5" stroke="rgb(0,0,0)"  stroke-width="1.0"/>
<line x1="241.0" y1="376.7" x2="227.6" y2="353.7" stroke="rgb(0,0,0)"  stroke-width="1.0"/>
<line x1="248.3" y1="372.5" x2="234.8" y2="349.4" stroke="rgb(0,0,0)"  stroke-width="1.0"/>
<line x1="152.1" y1="74.1" x2="171.8" y2="109.3" stroke="rgb(0,0,0)"  stroke-width="1.0"/>
<line x1="138.6" y1="51.2" x2="152.1" y2="74.1" stroke="rgb(0,0,0)"  stroke-width="1.0"/>
<line x1="142.3" y1="49.1" x2="155.7" y2="72.0" stroke="rgb(0,0,0)"  stroke-width="1.0"/>
<line x1="135.0" y1="53.3" x2="148.4" y2="76.2" stroke="rgb(0,0,0)"  stroke-width="1.0"/>
<line x1="224.3" y1="155.1" x2="210.8" y2="178.7" stroke="rgb(0,0,0)"  stroke-width="1.0"/>
<line x1="157.8" y1="155.1" x2="170.8" y2="178.7" stroke="rgb(0,0,0)"  stroke-width="1.0"/>
<line x1="124.5" y1="212.7" x2="150.8" y2="212.8" stroke="rgb(0,0,0)"  stroke-width="1.0"/>
<line x1="171.8" y1="109.3" x2="158.1" y2="132.6" stroke="rgb(0,0,0)"  stroke-width="1.0"/>
<line x1="98.1" y1="235.5" x2="104.9" y2="223.8" stroke="rgb(0,0,0)"  stroke-width="1.0"/>
<line x1="171.2" y1="316.8" x2="155.4" y2="294.9" stroke="rgb(0,0,0)"  stroke-width="1.0"/>
<line x1="135.4" y1="288.3" x2="109.1" y2="296.8" stroke="rgb(0,0,0)"  stroke-width="1.0"/>
<line x1="109.1" y1="296.8" x2="109.1" y2="337.0" stroke="rgb(0,0,0)"  stroke-width="1.0"/>
<line x1="109.1" y1="337.0" x2="135.2" y2="345.5" stroke="rgb(0,0,0)"  stroke-width="1.0"/>
<line x1="155.4" y1="338.7" x2="171.2" y2="316.8" stroke="rgb(0,0,0)"  stroke-width="1.0"/>
<line x1="150.7" y1="332.9" x2="161.9" y2="317.5" stroke="rgb(0,0,0)"  stroke-width="1.0"/>
<line x1="210.8" y1="178.7" x2="170.8" y2="178.7" stroke="rgb(0,0,0)"  stroke-width="1.0"/>
<line x1="170.8" y1="178.7" x2="150.8" y2="212.8" stroke="rgb(0,0,0)"  stroke-width="1.0"/>
<line x1="174.0" y1="187.5" x2="160.1" y2="211.3" stroke="rgb(0,0,0)"  stroke-width="1.0"/>
<line x1="150.8" y1="212.8" x2="170.8" y2="247.8" stroke="rgb(0,0,0)"  stroke-width="1.0"/>
<line x1="170.8" y1="247.8" x2="210.8" y2="247.4" stroke="rgb(0,0,0)"  stroke-width="1.0"/>
<line x1="176.8" y1="240.5" x2="204.7" y2="240.2" stroke="rgb(0,0,0)"  stroke-width="1.0"/>
<line x1="210.8" y1="247.4" x2="230.8" y2="213.4" stroke="rgb(0,0,0)"  stroke-width="1.0"/>
<line x1="230.8" y1="213.4" x2="210.8" y2="178.7" stroke="rgb(0,0,0)"  stroke-width="1.0"/>
<line x1="221.6" y1="211.8" x2="207.6" y2="187.5" stroke="rgb(0,0,0)"  stroke-width="1.0"/>
<line x1="74.5" y1="357.0" x2="40.0" y2="337.0" stroke="rgb(0,0,0)"  stroke-width="1.0"/>
<line x1="40.0" y1="337.0" x2="40.0" y2="296.8" stroke="rgb(0,0,0)"  stroke-width="1.0"/>
<line x1="47.2" y1="331.0" x2="47.2" y2="302.8" stroke="rgb(0,0,0)"  stroke-width="1.0"/>
<line x1="40.0" y1="296.8" x2="74.5" y2="276.8" stroke="rgb(0,0,0)"  stroke-width="1.0"/>
<line x1="74.5" y1="276.8" x2="109.1" y2="296.8" stroke="rgb(0,0,0)"  stroke-width="1.0"/>
<line x1="76.1" y1="286.1" x2="100.3" y2="300.0" stroke="rgb(0,0,0)"  stroke-width="1.0"/>
<line x1="109.1" y1="337.0" x2="74.5" y2="357.0" stroke="rgb(0,0,0)"  stroke-width="1.0"/>
<line x1="100.3" y1="333.8" x2="76.1" y2="347.8" stroke="rgb(0,0,0)"  stroke-width="1.0"/>
<text x="141.614283" y="357.521900" fill="rgb(12,12,255)"  stroke="rgb(12,12,255)" stroke-width="1" font-size="16" >N</text>
<text x="141.817805" y="292.307877" fill="rgb(12,12,255)"  stroke="rgb(12,12,255)" stroke-width="1" font-size="16" >N</text>
<text x="141.817805" y="276.307877" fill="rgb(12,12,255)"  stroke="rgb(12,12,255)" stroke-width="1" font-size="16" >H</text>
<text x="245.192062" y="393.864980" fill="rgb(12,12,255)"  stroke="rgb(12,12,255)" stroke-width="1" font-size="16" >N</text>
<text x="114.069137" y="48.000000" fill="rgb(102,102,102)"  stroke="rgb(102,102,102)" stroke-width="1" font-size="16" >HC</text>
<text x="224.801171" y="151.781300" fill="rgb(165,40,40)"  stroke="rgb(165,40,40)" stroke-width="1" font-size="16" >Br</text>
<text x="145.452113" y="151.781300" fill="rgb(255,12,12)"  stroke="rgb(255,12,12)" stroke-width="1" font-size="16" >O</text>
<text x="105.474724" y="220.629631" fill="rgb(255,12,12)"  stroke="rgb(255,12,12)" stroke-width="1" font-size="16" >O</text>
<text x="65.486030" y="254.753361" fill="rgb(102,102,102)"  stroke="rgb(102,102,102)" stroke-width="1" font-size="16" >H</text>
<text x="77.486030" y="258.433361" fill="rgb(102,102,102)"  stroke="rgb(102,102,102)" stroke-width="1" font-size="13" >3</text>
<text x="83.986030" y="254.753361" fill="rgb(102,102,102)"  stroke="rgb(102,102,102)" stroke-width="1" font-size="16" >C</text>
<text font-size="18.000000" fill ="black" font-family="sans-serif"
x="10.000000" y="20.000000" ></text>
<title> - OBDepict</title>
</svg>
