<?xml version="1.0"?>
<svg xmlns="http://www.w3.org/2000/svg"
xmlns:xlink="http://www.w3.org/1999/xlink" xmlns:cml="http://www.xml-cml.org/schema" width="443.551" height="438.381" x="0" y="0" font-family="sans-serif" stroke="rgb(0,0,0)" stroke-width="1"  stroke-linecap="round">
<rect x="0%" y="0%" width="100%" height="100%" stroke-width="0" fill="rgb(255,255,255)"  />
<line x1="107.5" y1="197.8" x2="133.1" y2="206.3" stroke="rgb(0,0,0)"  stroke-width="1.0"/>
<line x1="105.6" y1="203.5" x2="131.2" y2="212.0" stroke="rgb(0,0,0)"  stroke-width="1.0"/>
<line x1="236.1" y1="199.4" x2="197.6" y2="212.0" stroke="rgb(0,0,0)"  stroke-width="1.0"/>
<line x1="234.3" y1="193.7" x2="195.7" y2="206.3" stroke="rgb(0,0,0)"  stroke-width="1.0"/>
<line x1="375.2" y1="370.2" x2="345.5" y2="343.2" stroke="rgb(0,0,0)"  stroke-width="1.0"/>
<line x1="394.3" y1="389.2" x2="375.2" y2="370.2" stroke="rgb(0,0,0)"  stroke-width="1.0"/>
<line x1="391.4" y1="392.2" x2="372.2" y2="373.2" stroke="rgb(0,0,0)"  stroke-width="1.0"/>
<line x1="397.3" y1="386.2" x2="378.2" y2="367.2" stroke="rgb(0,0,0)"  stroke-width="1.0"/>
<line x1="198.1" y1="271.1" x2="182.1" y2="249.0" stroke="rgb(0,0,0)"  stroke-width="1.0"/>
<line x1="203.0" y1="267.6" x2="186.9" y2="245.4" stroke="rgb(0,0,0)"  stroke-width="1.0"/>
<line x1="264.7" y1="223.7" x2="235.2" y2="196.5" stroke="rgb(0,0,0)"  stroke-width="1.0"/>
<line x1="85.8" y1="157.8" x2="91.4" y2="183.8" stroke="rgb(0,0,0)"  stroke-width="1.0"/>
<line x1="345.5" y1="343.2" x2="351.0" y2="316.6" stroke="rgb(0,0,0)"  stroke-width="1.0"/>
<line x1="343.9" y1="295.2" x2="324.0" y2="277.2" stroke="rgb(0,0,0)"  stroke-width="1.0"/>
<line x1="64.3" y1="52.7" x2="69.8" y2="79.0" stroke="rgb(0,0,0)"  stroke-width="1.0"/>
<line x1="132.2" y1="209.2" x2="140.6" y2="234.8" stroke="rgb(0,0,0)"  stroke-width="1.0"/>
<line x1="157.7" y1="247.2" x2="184.5" y2="247.2" stroke="rgb(0,0,0)"  stroke-width="1.0"/>
<line x1="184.5" y1="247.2" x2="196.7" y2="209.2" stroke="rgb(0,0,0)"  stroke-width="1.0"/>
<line x1="196.7" y1="209.2" x2="175.0" y2="193.4" stroke="rgb(0,0,0)"  stroke-width="1.0"/>
<line x1="154.0" y1="193.3" x2="132.2" y2="209.2" stroke="rgb(0,0,0)"  stroke-width="1.0"/>
<line x1="264.7" y1="223.7" x2="302.9" y2="211.7" stroke="rgb(0,0,0)"  stroke-width="1.0"/>
<line x1="272.6" y1="228.8" x2="299.3" y2="220.4" stroke="rgb(0,0,0)"  stroke-width="1.0"/>
<line x1="302.9" y1="211.7" x2="332.4" y2="238.2" stroke="rgb(0,0,0)"  stroke-width="1.0"/>
<line x1="332.4" y1="238.2" x2="324.0" y2="277.2" stroke="rgb(0,0,0)"  stroke-width="1.0"/>
<line x1="324.1" y1="242.6" x2="318.3" y2="269.8" stroke="rgb(0,0,0)"  stroke-width="1.0"/>
<line x1="324.0" y1="277.2" x2="286.4" y2="289.9" stroke="rgb(0,0,0)"  stroke-width="1.0"/>
<line x1="286.4" y1="289.9" x2="256.5" y2="262.9" stroke="rgb(0,0,0)"  stroke-width="1.0"/>
<line x1="286.8" y1="280.5" x2="265.8" y2="261.6" stroke="rgb(0,0,0)"  stroke-width="1.0"/>
<line x1="256.5" y1="262.9" x2="264.7" y2="223.7" stroke="rgb(0,0,0)"  stroke-width="1.0"/>
<line x1="85.8" y1="157.8" x2="48.2" y2="145.3" stroke="rgb(0,0,0)"  stroke-width="1.0"/>
<line x1="48.2" y1="145.3" x2="40.0" y2="106.2" stroke="rgb(0,0,0)"  stroke-width="1.0"/>
<line x1="54.0" y1="138.0" x2="48.3" y2="110.6" stroke="rgb(0,0,0)"  stroke-width="1.0"/>
<line x1="40.0" y1="106.2" x2="69.8" y2="79.0" stroke="rgb(0,0,0)"  stroke-width="1.0"/>
<line x1="69.8" y1="79.0" x2="107.8" y2="92.0" stroke="rgb(0,0,0)"  stroke-width="1.0"/>
<line x1="73.2" y1="87.8" x2="99.8" y2="96.9" stroke="rgb(0,0,0)"  stroke-width="1.0"/>
<line x1="107.8" y1="92.0" x2="116.0" y2="130.8" stroke="rgb(0,0,0)"  stroke-width="1.0"/>
<line x1="116.0" y1="130.8" x2="85.8" y2="157.8" stroke="rgb(0,0,0)"  stroke-width="1.0"/>
<line x1="106.7" y1="129.5" x2="85.5" y2="148.5" stroke="rgb(0,0,0)"  stroke-width="1.0"/>
<text x="138.679627" y="255.196010" fill="rgb(12,12,255)"  stroke="rgb(12,12,255)" stroke-width="1" font-size="16" >N</text>
<text x="138.679627" y="271.196010" fill="rgb(12,12,255)"  stroke="rgb(12,12,255)" stroke-width="1" font-size="16" >H</text>
<text x="158.517439" y="193.684240" fill="rgb(178,178,0)"  stroke="rgb(178,178,0)" stroke-width="1" font-size="16" >S</text>
<text x="88.173235" y="204.519857" fill="rgb(12,12,255)"  stroke="rgb(12,12,255)" stroke-width="1" font-size="16" >N</text>
<text x="397.550956" y="406.380514" fill="rgb(102,102,102)"  stroke="rgb(102,102,102)" stroke-width="1" font-size="16" >CH</text>
<text x="202.189729" y="287.867772" fill="rgb(255,12,12)"  stroke="rgb(255,12,12)" stroke-width="1" font-size="16" >O</text>
<text x="347.544147" y="311.872010" fill="rgb(255,12,12)"  stroke="rgb(255,12,12)" stroke-width="1" font-size="16" >O</text>
<text x="35.666384" y="48.000000" fill="rgb(102,102,102)"  stroke="rgb(102,102,102)" stroke-width="1" font-size="16" >H</text>
<text x="47.666384" y="51.680000" fill="rgb(102,102,102)"  stroke="rgb(102,102,102)" stroke-width="1" font-size="13" >3</text>
<text x="54.166384" y="48.000000" fill="rgb(102,102,102)"  stroke="rgb(102,102,102)" stroke-width="1" font-size="16" >C</text>
<text font-size="18.000000" fill ="black" font-family="sans-serif"
x="10.000000" y="20.000000" ></text>
<title> - OBDepict</title>
</svg>
