<?xml version="1.0"?>
<svg xmlns="http://www.w3.org/2000/svg"
xmlns:xlink="http://www.w3.org/1999/xlink" xmlns:cml="http://www.xml-cml.org/schema" width="357.128" height="319.961" x="0" y="0" font-family="sans-serif" stroke="rgb(0,0,0)" stroke-width="1"  stroke-linecap="round">
<rect x="0%" y="0%" width="100%" height="100%" stroke-width="0" fill="rgb(255,255,255)"  />
<line x1="74.5" y1="140.0" x2="109.3" y2="160.0" stroke="rgb(0,0,0)"  stroke-width="1.0"/>
<line x1="51.3" y1="126.5" x2="74.5" y2="140.0" stroke="rgb(0,0,0)"  stroke-width="1.0"/>
<line x1="53.4" y1="122.9" x2="76.6" y2="136.3" stroke="rgb(0,0,0)"  stroke-width="1.0"/>
<line x1="49.1" y1="130.1" x2="72.4" y2="143.6" stroke="rgb(0,0,0)"  stroke-width="1.0"/>
<line x1="178.6" y1="200.0" x2="178.6" y2="160.0" stroke="rgb(0,0,0)"  stroke-width="1.0"/>
<line x1="109.3" y1="160.0" x2="132.6" y2="146.5" stroke="rgb(0,0,0)"  stroke-width="1.0"/>
<line x1="305.9" y1="153.5" x2="282.4" y2="140.0" stroke="rgb(0,0,0)"  stroke-width="1.0"/>
<line x1="305.9" y1="86.5" x2="282.4" y2="100.0" stroke="rgb(0,0,0)"  stroke-width="1.0"/>
<line x1="317.1" y1="53.0" x2="317.1" y2="67.0" stroke="rgb(0,0,0)"  stroke-width="1.0"/>
<line x1="317.1" y1="187.0" x2="317.1" y2="173.0" stroke="rgb(0,0,0)"  stroke-width="1.0"/>
<line x1="213.1" y1="140.0" x2="213.1" y2="100.0" stroke="rgb(0,0,0)"  stroke-width="1.0"/>
<line x1="213.1" y1="100.0" x2="247.8" y2="80.0" stroke="rgb(0,0,0)"  stroke-width="1.0"/>
<line x1="221.9" y1="103.2" x2="246.2" y2="89.2" stroke="rgb(0,0,0)"  stroke-width="1.0"/>
<line x1="247.8" y1="80.0" x2="282.4" y2="100.0" stroke="rgb(0,0,0)"  stroke-width="1.0"/>
<line x1="282.4" y1="100.0" x2="282.4" y2="140.0" stroke="rgb(0,0,0)"  stroke-width="1.0"/>
<line x1="275.2" y1="106.0" x2="275.2" y2="134.0" stroke="rgb(0,0,0)"  stroke-width="1.0"/>
<line x1="282.4" y1="140.0" x2="247.8" y2="160.0" stroke="rgb(0,0,0)"  stroke-width="1.0"/>
<line x1="247.8" y1="160.0" x2="213.1" y2="140.0" stroke="rgb(0,0,0)"  stroke-width="1.0"/>
<line x1="246.2" y1="150.7" x2="221.9" y2="136.7" stroke="rgb(0,0,0)"  stroke-width="1.0"/>
<line x1="143.8" y1="100.0" x2="178.6" y2="80.0" stroke="rgb(0,0,0)"  stroke-width="1.0"/>
<line x1="178.6" y1="80.0" x2="213.1" y2="100.0" stroke="rgb(0,0,0)"  stroke-width="1.0"/>
<line x1="213.1" y1="140.0" x2="178.6" y2="160.0" stroke="rgb(0,0,0)"  stroke-width="1.0"/>
<line x1="178.6" y1="160.0" x2="155.1" y2="146.5" stroke="rgb(0,0,0)"  stroke-width="1.0"/>
<line x1="143.8" y1="127.0" x2="143.8" y2="100.0" stroke="rgb(0,0,0)"  stroke-width="1.0"/>
<line x1="178.6" y1="200.0" x2="143.8" y2="220.0" stroke="rgb(0,0,0)"  stroke-width="1.0"/>
<line x1="143.8" y1="220.0" x2="143.8" y2="260.0" stroke="rgb(0,0,0)"  stroke-width="1.0"/>
<line x1="151.0" y1="226.0" x2="151.0" y2="254.0" stroke="rgb(0,0,0)"  stroke-width="1.0"/>
<line x1="143.8" y1="260.0" x2="178.6" y2="280.0" stroke="rgb(0,0,0)"  stroke-width="1.0"/>
<line x1="178.6" y1="280.0" x2="213.1" y2="260.0" stroke="rgb(0,0,0)"  stroke-width="1.0"/>
<line x1="180.1" y1="270.7" x2="204.3" y2="256.7" stroke="rgb(0,0,0)"  stroke-width="1.0"/>
<line x1="213.1" y1="260.0" x2="213.1" y2="220.0" stroke="rgb(0,0,0)"  stroke-width="1.0"/>
<line x1="213.1" y1="220.0" x2="178.6" y2="200.0" stroke="rgb(0,0,0)"  stroke-width="1.0"/>
<line x1="204.3" y1="223.2" x2="180.1" y2="209.2" stroke="rgb(0,0,0)"  stroke-width="1.0"/>
<text x="137.822969" y="147.983599" fill="rgb(12,12,255)"  stroke="rgb(12,12,255)" stroke-width="1" font-size="16" >N</text>
<text x="22.000000" y="127.986879" fill="rgb(102,102,102)"  stroke="rgb(102,102,102)" stroke-width="1" font-size="16" >HC</text>
<text x="311.127874" y="167.980319" fill="rgb(255,12,12)"  stroke="rgb(255,12,12)" stroke-width="1" font-size="16" >O</text>
<text x="311.127874" y="87.993440" fill="rgb(255,12,12)"  stroke="rgb(255,12,12)" stroke-width="1" font-size="16" >O</text>
<text x="313.127874" y="48.000000" fill="rgb(102,102,102)"  stroke="rgb(102,102,102)" stroke-width="1" font-size="16" >CH</text>
<text x="337.127874" y="51.680000" fill="rgb(102,102,102)"  stroke="rgb(102,102,102)" stroke-width="1" font-size="13" >3</text>
<text x="313.127874" y="207.973758" fill="rgb(102,102,102)"  stroke="rgb(102,102,102)" stroke-width="1" font-size="16" >CH</text>
<text x="337.127874" y="211.653758" fill="rgb(102,102,102)"  stroke="rgb(102,102,102)" stroke-width="1" font-size="13" >3</text>
<text font-size="18.000000" fill ="black" font-family="sans-serif"
x="10.000000" y="20.000000" ></text>
<title> - OBDepict</title>
</svg>
