<?xml version="1.0"?>
<svg xmlns="http://www.w3.org/2000/svg"
xmlns:xlink="http://www.w3.org/1999/xlink" xmlns:cml="http://www.xml-cml.org/schema" width="435.908" height="214.726" x="0" y="0" font-family="sans-serif" stroke="rgb(0,0,0)" stroke-width="1"  stroke-linecap="round">
<rect x="0%" y="0%" width="100%" height="100%" stroke-width="0" fill="rgb(255,255,255)"  />
<line x1="253.9" y1="118.2" x2="221.6" y2="94.7" stroke="rgb(0,0,0)"  stroke-width="1.0"/>
<line x1="120.0" y1="74.7" x2="147.0" y2="74.7" stroke="rgb(0,0,0)"  stroke-width="1.0"/>
<line x1="359.4" y1="109.1" x2="322.8" y2="125.4" stroke="rgb(0,0,0)"  stroke-width="1.0"/>
<line x1="384.0" y1="98.2" x2="359.4" y2="109.1" stroke="rgb(0,0,0)"  stroke-width="1.0"/>
<line x1="385.7" y1="102.0" x2="361.0" y2="112.9" stroke="rgb(0,0,0)"  stroke-width="1.0"/>
<line x1="382.3" y1="94.3" x2="357.7" y2="105.2" stroke="rgb(0,0,0)"  stroke-width="1.0"/>
<line x1="248.1" y1="144.7" x2="250.9" y2="117.9" stroke="rgb(0,0,0)"  stroke-width="1.0"/>
<line x1="254.0" y1="145.4" x2="256.9" y2="118.5" stroke="rgb(0,0,0)"  stroke-width="1.0"/>
<line x1="171.1" y1="145.0" x2="183.4" y2="107.1" stroke="rgb(0,0,0)"  stroke-width="1.0"/>
<line x1="278.6" y1="107.3" x2="253.9" y2="118.2" stroke="rgb(0,0,0)"  stroke-width="1.0"/>
<line x1="46.5" y1="132.8" x2="60.0" y2="109.3" stroke="rgb(0,0,0)"  stroke-width="1.0"/>
<line x1="322.8" y1="125.4" x2="301.0" y2="109.6" stroke="rgb(0,0,0)"  stroke-width="1.0"/>
<line x1="144.6" y1="150.6" x2="171.1" y2="145.0" stroke="rgb(0,0,0)"  stroke-width="1.0"/>
<line x1="189.2" y1="165.1" x2="171.1" y2="145.0" stroke="rgb(0,0,0)"  stroke-width="1.0"/>
<line x1="221.6" y1="94.7" x2="183.4" y2="107.1" stroke="rgb(0,0,0)"  stroke-width="1.0"/>
<line x1="213.7" y1="89.7" x2="186.9" y2="98.4" stroke="rgb(0,0,0)"  stroke-width="1.0"/>
<line x1="183.4" y1="107.1" x2="167.6" y2="85.3" stroke="rgb(0,0,0)"  stroke-width="1.0"/>
<line x1="167.6" y1="64.2" x2="175.8" y2="52.9" stroke="rgb(0,0,0)"  stroke-width="1.0"/>
<line x1="196.0" y1="46.5" x2="221.6" y2="54.7" stroke="rgb(0,0,0)"  stroke-width="1.0"/>
<line x1="195.7" y1="54.0" x2="213.7" y2="59.8" stroke="rgb(0,0,0)"  stroke-width="1.0"/>
<line x1="221.6" y1="54.7" x2="221.6" y2="94.7" stroke="rgb(0,0,0)"  stroke-width="1.0"/>
<line x1="120.0" y1="74.7" x2="100.0" y2="109.3" stroke="rgb(0,0,0)"  stroke-width="1.0"/>
<line x1="110.8" y1="76.3" x2="96.8" y2="100.5" stroke="rgb(0,0,0)"  stroke-width="1.0"/>
<line x1="100.0" y1="109.3" x2="60.0" y2="109.3" stroke="rgb(0,0,0)"  stroke-width="1.0"/>
<line x1="60.0" y1="109.3" x2="40.0" y2="74.7" stroke="rgb(0,0,0)"  stroke-width="1.0"/>
<line x1="63.2" y1="100.5" x2="49.2" y2="76.3" stroke="rgb(0,0,0)"  stroke-width="1.0"/>
<line x1="40.0" y1="74.7" x2="60.0" y2="40.0" stroke="rgb(0,0,0)"  stroke-width="1.0"/>
<line x1="60.0" y1="40.0" x2="100.0" y2="40.0" stroke="rgb(0,0,0)"  stroke-width="1.0"/>
<line x1="66.0" y1="47.2" x2="94.0" y2="47.2" stroke="rgb(0,0,0)"  stroke-width="1.0"/>
<line x1="100.0" y1="40.0" x2="120.0" y2="74.7" stroke="rgb(0,0,0)"  stroke-width="1.0"/>
<text x="153.983653" y="82.739509" fill="rgb(12,12,255)"  stroke="rgb(12,12,255)" stroke-width="1" font-size="16" >N</text>
<text x="177.413188" y="50.423912" fill="rgb(12,12,255)"  stroke="rgb(12,12,255)" stroke-width="1" font-size="16" >N</text>
<text x="389.907872" y="100.918851" fill="rgb(102,102,102)"  stroke="rgb(102,102,102)" stroke-width="1" font-size="16" >CH</text>
<text x="243.668403" y="165.962110" fill="rgb(255,12,12)"  stroke="rgb(255,12,12)" stroke-width="1" font-size="16" >O</text>
<text x="284.467693" y="110.008521" fill="rgb(12,12,255)"  stroke="rgb(12,12,255)" stroke-width="1" font-size="16" >N</text>
<text x="284.467693" y="94.008521" fill="rgb(12,12,255)"  stroke="rgb(12,12,255)" stroke-width="1" font-size="16" >H</text>
<text x="22.000000" y="152.024615" fill="rgb(30,239,30)"  stroke="rgb(30,239,30)" stroke-width="1" font-size="16" >Cl</text>
<text x="105.905054" y="161.317894" fill="rgb(102,102,102)"  stroke="rgb(102,102,102)" stroke-width="1" font-size="16" >H</text>
<text x="117.905054" y="164.997894" fill="rgb(102,102,102)"  stroke="rgb(102,102,102)" stroke-width="1" font-size="13" >3</text>
<text x="124.405054" y="161.317894" fill="rgb(102,102,102)"  stroke="rgb(102,102,102)" stroke-width="1" font-size="16" >C</text>
<text x="193.956661" y="182.725886" fill="rgb(102,102,102)"  stroke="rgb(102,102,102)" stroke-width="1" font-size="16" >CH</text>
<text x="217.956661" y="186.405886" fill="rgb(102,102,102)"  stroke="rgb(102,102,102)" stroke-width="1" font-size="13" >3</text>
<text font-size="18.000000" fill ="black" font-family="sans-serif"
x="10.000000" y="20.000000" ></text>
<title> - OBDepict</title>
</svg>
