<?xml version="1.0"?>
<svg xmlns="http://www.w3.org/2000/svg"
xmlns:xlink="http://www.w3.org/1999/xlink" xmlns:cml="http://www.xml-cml.org/schema" width="391.88" height="419.87" x="0" y="0" font-family="sans-serif" stroke="rgb(0,0,0)" stroke-width="1"  stroke-linecap="round">
<rect x="0%" y="0%" width="100%" height="100%" stroke-width="0" fill="rgb(255,255,255)"  />
<line x1="178.6" y1="199.5" x2="213.3" y2="219.5" stroke="rgb(0,0,0)"  stroke-width="1.0"/>
<line x1="109.3" y1="80.0" x2="74.7" y2="100.0" stroke="rgb(0,0,0)"  stroke-width="1.0"/>
<line x1="109.3" y1="53.0" x2="109.3" y2="80.0" stroke="rgb(0,0,0)"  stroke-width="1.0"/>
<line x1="113.5" y1="53.0" x2="113.5" y2="80.0" stroke="rgb(0,0,0)"  stroke-width="1.0"/>
<line x1="105.1" y1="53.0" x2="105.1" y2="80.0" stroke="rgb(0,0,0)"  stroke-width="1.0"/>
<line x1="156.5" y1="263.2" x2="180.1" y2="276.9" stroke="rgb(0,0,0)"  stroke-width="1.0"/>
<line x1="153.5" y1="268.4" x2="177.1" y2="282.1" stroke="rgb(0,0,0)"  stroke-width="1.0"/>
<line x1="225.8" y1="143.5" x2="249.2" y2="157.4" stroke="rgb(0,0,0)"  stroke-width="1.0"/>
<line x1="222.7" y1="148.7" x2="246.2" y2="162.5" stroke="rgb(0,0,0)"  stroke-width="1.0"/>
<line x1="144.0" y1="112.5" x2="144.0" y2="139.5" stroke="rgb(0,0,0)"  stroke-width="1.0"/>
<line x1="305.7" y1="273.0" x2="293.6" y2="266.0" stroke="rgb(0,0,0)"  stroke-width="1.0"/>
<line x1="86.0" y1="146.4" x2="109.3" y2="159.5" stroke="rgb(0,0,0)"  stroke-width="1.0"/>
<line x1="85.9" y1="213.0" x2="109.3" y2="199.5" stroke="rgb(0,0,0)"  stroke-width="1.0"/>
<line x1="74.7" y1="100.0" x2="74.7" y2="127.0" stroke="rgb(0,0,0)"  stroke-width="1.0"/>
<line x1="302.9" y1="136.5" x2="316.6" y2="160.2" stroke="rgb(0,0,0)"  stroke-width="1.0"/>
<line x1="213.0" y1="366.9" x2="213.0" y2="339.4" stroke="rgb(0,0,0)"  stroke-width="1.0"/>
<line x1="185.6" y1="339.4" x2="213.0" y2="339.4" stroke="rgb(0,0,0)"  stroke-width="1.0"/>
<line x1="340.7" y1="146.1" x2="316.6" y2="160.2" stroke="rgb(0,0,0)"  stroke-width="1.0"/>
<line x1="40.0" y1="199.5" x2="63.4" y2="213.0" stroke="rgb(0,0,0)"  stroke-width="1.0"/>
<line x1="40.0" y1="172.5" x2="40.0" y2="199.5" stroke="rgb(0,0,0)"  stroke-width="1.0"/>
<line x1="213.3" y1="259.5" x2="247.7" y2="279.5" stroke="rgb(0,0,0)"  stroke-width="1.0"/>
<line x1="222.1" y1="256.3" x2="246.1" y2="270.2" stroke="rgb(0,0,0)"  stroke-width="1.0"/>
<line x1="247.7" y1="279.5" x2="271.1" y2="266.0" stroke="rgb(0,0,0)"  stroke-width="1.0"/>
<line x1="282.2" y1="246.5" x2="281.9" y2="219.9" stroke="rgb(0,0,0)"  stroke-width="1.0"/>
<line x1="281.9" y1="219.9" x2="247.7" y2="199.9" stroke="rgb(0,0,0)"  stroke-width="1.0"/>
<line x1="273.1" y1="223.1" x2="249.2" y2="209.2" stroke="rgb(0,0,0)"  stroke-width="1.0"/>
<line x1="247.7" y1="199.9" x2="213.3" y2="219.5" stroke="rgb(0,0,0)"  stroke-width="1.0"/>
<line x1="213.3" y1="219.5" x2="213.3" y2="259.5" stroke="rgb(0,0,0)"  stroke-width="1.0"/>
<line x1="247.7" y1="160.0" x2="281.9" y2="140.2" stroke="rgb(0,0,0)"  stroke-width="1.0"/>
<line x1="281.9" y1="140.2" x2="316.6" y2="160.2" stroke="rgb(0,0,0)"  stroke-width="1.0"/>
<line x1="316.6" y1="160.2" x2="316.6" y2="199.5" stroke="rgb(0,0,0)"  stroke-width="1.0"/>
<line x1="316.6" y1="199.5" x2="281.9" y2="219.9" stroke="rgb(0,0,0)"  stroke-width="1.0"/>
<line x1="247.7" y1="199.9" x2="247.7" y2="160.0" stroke="rgb(0,0,0)"  stroke-width="1.0"/>
<line x1="178.6" y1="199.5" x2="178.6" y2="159.5" stroke="rgb(0,0,0)"  stroke-width="1.0"/>
<line x1="171.4" y1="193.5" x2="171.4" y2="165.5" stroke="rgb(0,0,0)"  stroke-width="1.0"/>
<line x1="178.6" y1="159.5" x2="144.0" y2="139.5" stroke="rgb(0,0,0)"  stroke-width="1.0"/>
<line x1="144.0" y1="139.5" x2="109.3" y2="159.5" stroke="rgb(0,0,0)"  stroke-width="1.0"/>
<line x1="142.4" y1="148.8" x2="118.1" y2="162.8" stroke="rgb(0,0,0)"  stroke-width="1.0"/>
<line x1="109.3" y1="159.5" x2="109.3" y2="199.5" stroke="rgb(0,0,0)"  stroke-width="1.0"/>
<line x1="109.3" y1="199.5" x2="144.0" y2="219.5" stroke="rgb(0,0,0)"  stroke-width="1.0"/>
<line x1="118.1" y1="196.3" x2="142.4" y2="210.3" stroke="rgb(0,0,0)"  stroke-width="1.0"/>
<line x1="144.0" y1="219.5" x2="178.6" y2="199.5" stroke="rgb(0,0,0)"  stroke-width="1.0"/>
<line x1="247.7" y1="279.5" x2="247.9" y2="319.5" stroke="rgb(0,0,0)"  stroke-width="1.0"/>
<line x1="247.9" y1="319.5" x2="213.0" y2="339.4" stroke="rgb(0,0,0)"  stroke-width="1.0"/>
<line x1="213.0" y1="339.4" x2="178.6" y2="319.5" stroke="rgb(0,0,0)"  stroke-width="1.0"/>
<line x1="178.6" y1="319.5" x2="178.6" y2="279.5" stroke="rgb(0,0,0)"  stroke-width="1.0"/>
<line x1="178.6" y1="279.5" x2="213.3" y2="259.5" stroke="rgb(0,0,0)"  stroke-width="1.0"/>
<text x="276.350365" y="267.476052" fill="rgb(12,12,255)"  stroke="rgb(12,12,255)" stroke-width="1" font-size="16" >N</text>
<text x="103.306696" y="48.000000" fill="rgb(102,102,102)"  stroke="rgb(102,102,102)" stroke-width="1" font-size="16" >CH</text>
<text x="137.736974" y="267.252983" fill="rgb(255,12,12)"  stroke="rgb(255,12,12)" stroke-width="1" font-size="16" >O</text>
<text x="207.043670" y="147.522902" fill="rgb(255,12,12)"  stroke="rgb(255,12,12)" stroke-width="1" font-size="16" >O</text>
<text x="137.960044" y="107.535286" fill="rgb(30,239,30)"  stroke="rgb(30,239,30)" stroke-width="1" font-size="16" >Cl</text>
<text x="313.003713" y="287.465011" fill="rgb(102,102,102)"  stroke="rgb(102,102,102)" stroke-width="1" font-size="16" >CH</text>
<text x="337.003713" y="291.145011" fill="rgb(102,102,102)"  stroke="rgb(102,102,102)" stroke-width="1" font-size="13" >3</text>
<text x="68.653348" y="147.964191" fill="rgb(255,12,12)"  stroke="rgb(255,12,12)" stroke-width="1" font-size="16" >O</text>
<text x="68.653348" y="227.488436" fill="rgb(255,12,12)"  stroke="rgb(255,12,12)" stroke-width="1" font-size="16" >O</text>
<text x="270.345546" y="133.299802" fill="rgb(102,102,102)"  stroke="rgb(102,102,102)" stroke-width="1" font-size="16" >H</text>
<text x="282.345546" y="136.979802" fill="rgb(102,102,102)"  stroke="rgb(102,102,102)" stroke-width="1" font-size="13" >3</text>
<text x="288.845546" y="133.299802" fill="rgb(102,102,102)"  stroke="rgb(102,102,102)" stroke-width="1" font-size="16" >C</text>
<text x="209.043670" y="387.870492" fill="rgb(102,102,102)"  stroke="rgb(102,102,102)" stroke-width="1" font-size="16" >CH</text>
<text x="233.043670" y="391.550492" fill="rgb(102,102,102)"  stroke="rgb(102,102,102)" stroke-width="1" font-size="13" >3</text>
<text x="146.614764" y="347.446436" fill="rgb(102,102,102)"  stroke="rgb(102,102,102)" stroke-width="1" font-size="16" >H</text>
<text x="158.614764" y="351.126436" fill="rgb(102,102,102)"  stroke="rgb(102,102,102)" stroke-width="1" font-size="13" >3</text>
<text x="165.114764" y="347.446436" fill="rgb(102,102,102)"  stroke="rgb(102,102,102)" stroke-width="1" font-size="16" >C</text>
<text x="347.880131" y="147.522902" fill="rgb(102,102,102)"  stroke="rgb(102,102,102)" stroke-width="1" font-size="16" >CH</text>
<text x="371.880131" y="151.202902" fill="rgb(102,102,102)"  stroke="rgb(102,102,102)" stroke-width="1" font-size="13" >3</text>
<text x="36.000000" y="167.511861" fill="rgb(102,102,102)"  stroke="rgb(102,102,102)" stroke-width="1" font-size="16" >CH</text>
<text x="60.000000" y="171.191861" fill="rgb(102,102,102)"  stroke="rgb(102,102,102)" stroke-width="1" font-size="13" >3</text>
<text font-size="18.000000" fill ="black" font-family="sans-serif"
x="10.000000" y="20.000000" ></text>
<title> - OBDepict</title>
</svg>
