<?xml version="1.0"?>
<svg xmlns="http://www.w3.org/2000/svg"
xmlns:xlink="http://www.w3.org/1999/xlink" xmlns:cml="http://www.xml-cml.org/schema" width="342.836" height="405.873" x="0" y="0" font-family="sans-serif" stroke="rgb(0,0,0)" stroke-width="1"  stroke-linecap="round">
<rect x="0%" y="0%" width="100%" height="100%" stroke-width="0" fill="rgb(255,255,255)"  />
<line x1="189.3" y1="208.3" x2="164.9" y2="222.4" stroke="rgb(0,0,0)"  stroke-width="1.0"/>
<line x1="186.2" y1="203.1" x2="161.9" y2="217.2" stroke="rgb(0,0,0)"  stroke-width="1.0"/>
<line x1="198.6" y1="159.6" x2="198.9" y2="186.2" stroke="rgb(0,0,0)"  stroke-width="1.0"/>
<line x1="209.9" y1="86.5" x2="233.5" y2="100.0" stroke="rgb(0,0,0)"  stroke-width="1.0"/>
<line x1="233.1" y1="139.6" x2="198.6" y2="159.6" stroke="rgb(0,0,0)"  stroke-width="1.0"/>
<line x1="179.2" y1="326.5" x2="188.3" y2="287.5" stroke="rgb(0,0,0)"  stroke-width="1.0"/>
<line x1="173.0" y1="353.2" x2="179.2" y2="326.5" stroke="rgb(0,0,0)"  stroke-width="1.0"/>
<line x1="168.9" y1="352.3" x2="175.1" y2="325.5" stroke="rgb(0,0,0)"  stroke-width="1.0"/>
<line x1="177.1" y1="354.1" x2="183.3" y2="327.4" stroke="rgb(0,0,0)"  stroke-width="1.0"/>
<line x1="198.5" y1="53.0" x2="198.5" y2="67.0" stroke="rgb(0,0,0)"  stroke-width="1.0"/>
<line x1="173.8" y1="91.1" x2="185.9" y2="84.0" stroke="rgb(0,0,0)"  stroke-width="1.0"/>
<line x1="176.8" y1="96.2" x2="188.9" y2="89.2" stroke="rgb(0,0,0)"  stroke-width="1.0"/>
<line x1="176.8" y1="143.5" x2="200.1" y2="157.0" stroke="rgb(0,0,0)"  stroke-width="1.0"/>
<line x1="173.8" y1="148.7" x2="197.1" y2="162.2" stroke="rgb(0,0,0)"  stroke-width="1.0"/>
<line x1="188.3" y1="287.5" x2="168.4" y2="268.7" stroke="rgb(0,0,0)"  stroke-width="1.0"/>
<line x1="111.9" y1="325.1" x2="99.0" y2="301.0" stroke="rgb(0,0,0)"  stroke-width="1.0"/>
<line x1="163.4" y1="219.8" x2="140.0" y2="208.8" stroke="rgb(0,0,0)"  stroke-width="1.0"/>
<line x1="119.2" y1="212.6" x2="100.4" y2="231.9" stroke="rgb(0,0,0)"  stroke-width="1.0"/>
<line x1="100.4" y1="231.9" x2="119.8" y2="267.1" stroke="rgb(0,0,0)"  stroke-width="1.0"/>
<line x1="109.6" y1="233.7" x2="123.2" y2="258.3" stroke="rgb(0,0,0)"  stroke-width="1.0"/>
<line x1="119.8" y1="267.1" x2="146.2" y2="262.2" stroke="rgb(0,0,0)"  stroke-width="1.0"/>
<line x1="160.4" y1="246.9" x2="163.4" y2="219.8" stroke="rgb(0,0,0)"  stroke-width="1.0"/>
<line x1="233.1" y1="139.6" x2="233.5" y2="100.0" stroke="rgb(0,0,0)"  stroke-width="1.0"/>
<line x1="233.5" y1="100.0" x2="268.1" y2="80.0" stroke="rgb(0,0,0)"  stroke-width="1.0"/>
<line x1="242.3" y1="103.2" x2="266.5" y2="89.2" stroke="rgb(0,0,0)"  stroke-width="1.0"/>
<line x1="268.1" y1="80.0" x2="302.8" y2="100.0" stroke="rgb(0,0,0)"  stroke-width="1.0"/>
<line x1="302.8" y1="100.0" x2="302.8" y2="140.0" stroke="rgb(0,0,0)"  stroke-width="1.0"/>
<line x1="295.6" y1="106.0" x2="295.6" y2="134.0" stroke="rgb(0,0,0)"  stroke-width="1.0"/>
<line x1="302.8" y1="140.0" x2="268.3" y2="159.6" stroke="rgb(0,0,0)"  stroke-width="1.0"/>
<line x1="268.3" y1="159.6" x2="233.1" y2="139.6" stroke="rgb(0,0,0)"  stroke-width="1.0"/>
<line x1="266.6" y1="150.4" x2="241.9" y2="136.3" stroke="rgb(0,0,0)"  stroke-width="1.0"/>
<line x1="99.0" y1="301.0" x2="60.0" y2="300.4" stroke="rgb(0,0,0)"  stroke-width="1.0"/>
<line x1="93.1" y1="293.7" x2="66.1" y2="293.3" stroke="rgb(0,0,0)"  stroke-width="1.0"/>
<line x1="60.0" y1="300.4" x2="40.0" y2="265.1" stroke="rgb(0,0,0)"  stroke-width="1.0"/>
<line x1="40.0" y1="265.1" x2="60.8" y2="230.7" stroke="rgb(0,0,0)"  stroke-width="1.0"/>
<line x1="49.3" y1="263.7" x2="63.9" y2="239.6" stroke="rgb(0,0,0)"  stroke-width="1.0"/>
<line x1="60.8" y1="230.7" x2="100.4" y2="231.9" stroke="rgb(0,0,0)"  stroke-width="1.0"/>
<line x1="119.8" y1="267.1" x2="99.0" y2="301.0" stroke="rgb(0,0,0)"  stroke-width="1.0"/>
<text x="192.994289" y="207.197948" fill="rgb(12,12,255)"  stroke="rgb(12,12,255)" stroke-width="1" font-size="16" >N</text>
<text x="152.994781" y="267.805762" fill="rgb(12,12,255)"  stroke="rgb(12,12,255)" stroke-width="1" font-size="16" >N</text>
<text x="122.285981" y="211.237176" fill="rgb(178,178,0)"  stroke="rgb(178,178,0)" stroke-width="1" font-size="16" >S</text>
<text x="203.391821" y="75.967509" fill="rgb(12,12,255)"  stroke="rgb(12,12,255)" stroke-width="1" font-size="16" >+</text>
<text x="192.591821" y="87.999509" fill="rgb(12,12,255)"  stroke="rgb(12,12,255)" stroke-width="1" font-size="16" >N</text>
<text x="152.108718" y="373.873074" fill="rgb(102,102,102)"  stroke="rgb(102,102,102)" stroke-width="1" font-size="16" >HC</text>
<text x="203.188163" y="25.888000" fill="rgb(255,12,12)"  stroke="rgb(255,12,12)" stroke-width="1" font-size="16" >_</text>
<text x="192.388163" y="48.000000" fill="rgb(255,12,12)"  stroke="rgb(255,12,12)" stroke-width="1" font-size="16" >O</text>
<text x="158.047452" y="108.205346" fill="rgb(255,12,12)"  stroke="rgb(255,12,12)" stroke-width="1" font-size="16" >O</text>
<text x="158.047452" y="147.598728" fill="rgb(255,12,12)"  stroke="rgb(255,12,12)" stroke-width="1" font-size="16" >O</text>
<text x="113.981828" y="344.575337" fill="rgb(102,102,102)"  stroke="rgb(102,102,102)" stroke-width="1" font-size="16" >CH</text>
<text x="137.981828" y="348.255337" fill="rgb(102,102,102)"  stroke="rgb(102,102,102)" stroke-width="1" font-size="13" >3</text>
<text font-size="18.000000" fill ="black" font-family="sans-serif"
x="10.000000" y="20.000000" ></text>
<title> - OBDepict</title>
</svg>
