<?xml version="1.0"?>
<svg xmlns="http://www.w3.org/2000/svg"
xmlns:xlink="http://www.w3.org/1999/xlink" xmlns:cml="http://www.xml-cml.org/schema" width="525.492" height="328.484" x="0" y="0" font-family="sans-serif" stroke="rgb(0,0,0)" stroke-width="1"  stroke-linecap="round">
<rect x="0%" y="0%" width="100%" height="100%" stroke-width="0" fill="rgb(255,255,255)"  />
<line x1="145.7" y1="170.0" x2="121.2" y2="159.3" stroke="rgb(0,0,0)"  stroke-width="1.0"/>
<line x1="168.1" y1="216.6" x2="150.1" y2="236.7" stroke="rgb(0,0,0)"  stroke-width="1.0"/>
<line x1="163.7" y1="212.6" x2="145.7" y2="232.7" stroke="rgb(0,0,0)"  stroke-width="1.0"/>
<line x1="208.2" y1="217.5" x2="228.2" y2="252.1" stroke="rgb(0,0,0)"  stroke-width="1.0"/>
<line x1="203.0" y1="220.5" x2="223.0" y2="255.1" stroke="rgb(0,0,0)"  stroke-width="1.0"/>
<line x1="221.9" y1="182.4" x2="248.6" y2="176.7" stroke="rgb(0,0,0)"  stroke-width="1.0"/>
<line x1="80.6" y1="103.0" x2="76.6" y2="63.3" stroke="rgb(0,0,0)"  stroke-width="1.0"/>
<line x1="225.6" y1="253.6" x2="265.7" y2="253.6" stroke="rgb(0,0,0)"  stroke-width="1.0"/>
<line x1="76.6" y1="63.3" x2="98.5" y2="47.6" stroke="rgb(0,0,0)"  stroke-width="1.0"/>
<line x1="75.3" y1="66.1" x2="50.6" y2="54.8" stroke="rgb(0,0,0)"  stroke-width="1.0"/>
<line x1="77.8" y1="60.6" x2="53.1" y2="49.3" stroke="rgb(0,0,0)"  stroke-width="1.0"/>
<line x1="325.6" y1="219.2" x2="339.3" y2="195.9" stroke="rgb(0,0,0)"  stroke-width="1.0"/>
<line x1="345.6" y1="253.9" x2="372.5" y2="253.9" stroke="rgb(0,0,0)"  stroke-width="1.0"/>
<line x1="358.8" y1="184.6" x2="372.7" y2="184.6" stroke="rgb(0,0,0)"  stroke-width="1.0"/>
<line x1="392.0" y1="265.2" x2="405.5" y2="288.5" stroke="rgb(0,0,0)"  stroke-width="1.0"/>
<line x1="405.5" y1="288.5" x2="445.4" y2="288.5" stroke="rgb(0,0,0)"  stroke-width="1.0"/>
<line x1="445.4" y1="288.5" x2="472.5" y2="288.5" stroke="rgb(0,0,0)"  stroke-width="1.0"/>
<line x1="445.4" y1="284.3" x2="472.5" y2="284.3" stroke="rgb(0,0,0)"  stroke-width="1.0"/>
<line x1="445.4" y1="292.7" x2="472.5" y2="292.7" stroke="rgb(0,0,0)"  stroke-width="1.0"/>
<line x1="160.3" y1="188.0" x2="165.9" y2="214.6" stroke="rgb(0,0,0)"  stroke-width="1.0"/>
<line x1="165.9" y1="214.6" x2="205.6" y2="219.0" stroke="rgb(0,0,0)"  stroke-width="1.0"/>
<line x1="205.6" y1="219.0" x2="221.9" y2="182.4" stroke="rgb(0,0,0)"  stroke-width="1.0"/>
<line x1="221.9" y1="182.4" x2="202.1" y2="164.6" stroke="rgb(0,0,0)"  stroke-width="1.0"/>
<line x1="212.7" y1="183.8" x2="198.8" y2="171.3" stroke="rgb(0,0,0)"  stroke-width="1.0"/>
<line x1="181.0" y1="162.2" x2="169.0" y2="168.9" stroke="rgb(0,0,0)"  stroke-width="1.0"/>
<line x1="121.2" y1="159.3" x2="88.7" y2="182.6" stroke="rgb(0,0,0)"  stroke-width="1.0"/>
<line x1="112.2" y1="156.9" x2="89.4" y2="173.3" stroke="rgb(0,0,0)"  stroke-width="1.0"/>
<line x1="88.7" y1="182.6" x2="52.5" y2="166.5" stroke="rgb(0,0,0)"  stroke-width="1.0"/>
<line x1="52.5" y1="166.5" x2="48.1" y2="126.6" stroke="rgb(0,0,0)"  stroke-width="1.0"/>
<line x1="59.0" y1="159.7" x2="55.9" y2="131.7" stroke="rgb(0,0,0)"  stroke-width="1.0"/>
<line x1="48.1" y1="126.6" x2="80.6" y2="103.0" stroke="rgb(0,0,0)"  stroke-width="1.0"/>
<line x1="80.6" y1="103.0" x2="117.4" y2="119.2" stroke="rgb(0,0,0)"  stroke-width="1.0"/>
<line x1="83.2" y1="112.1" x2="109.0" y2="123.4" stroke="rgb(0,0,0)"  stroke-width="1.0"/>
<line x1="117.4" y1="119.2" x2="121.2" y2="159.3" stroke="rgb(0,0,0)"  stroke-width="1.0"/>
<line x1="265.7" y1="253.6" x2="285.5" y2="288.3" stroke="rgb(0,0,0)"  stroke-width="1.0"/>
<line x1="285.5" y1="288.3" x2="325.6" y2="288.5" stroke="rgb(0,0,0)"  stroke-width="1.0"/>
<line x1="291.6" y1="281.1" x2="319.6" y2="281.3" stroke="rgb(0,0,0)"  stroke-width="1.0"/>
<line x1="325.6" y1="288.5" x2="345.6" y2="253.9" stroke="rgb(0,0,0)"  stroke-width="1.0"/>
<line x1="345.6" y1="253.9" x2="325.6" y2="219.2" stroke="rgb(0,0,0)"  stroke-width="1.0"/>
<line x1="336.4" y1="252.3" x2="322.4" y2="228.0" stroke="rgb(0,0,0)"  stroke-width="1.0"/>
<line x1="325.6" y1="219.2" x2="285.5" y2="219.0" stroke="rgb(0,0,0)"  stroke-width="1.0"/>
<line x1="285.5" y1="219.0" x2="265.7" y2="253.6" stroke="rgb(0,0,0)"  stroke-width="1.0"/>
<line x1="288.8" y1="227.8" x2="274.9" y2="251.9" stroke="rgb(0,0,0)"  stroke-width="1.0"/>
<text x="151.622882" y="183.270443" fill="rgb(12,12,255)"  stroke="rgb(12,12,255)" stroke-width="1" font-size="16" >N</text>
<text x="186.354679" y="163.792082" fill="rgb(12,12,255)"  stroke="rgb(12,12,255)" stroke-width="1" font-size="16" >N</text>
<text x="133.242031" y="252.374675" fill="rgb(255,12,12)"  stroke="rgb(255,12,12)" stroke-width="1" font-size="16" >O</text>
<text x="257.274375" y="181.983540" fill="rgb(102,102,102)"  stroke="rgb(102,102,102)" stroke-width="1" font-size="16" >CH</text>
<text x="281.274375" y="185.663540" fill="rgb(102,102,102)"  stroke="rgb(102,102,102)" stroke-width="1" font-size="13" >3</text>
<text x="103.104233" y="48.000000" fill="rgb(255,12,12)"  stroke="rgb(255,12,12)" stroke-width="1" font-size="16" >OH</text>
<text x="34.000000" y="54.623905" fill="rgb(255,12,12)"  stroke="rgb(255,12,12)" stroke-width="1" font-size="16" >O</text>
<text x="339.816580" y="192.642977" fill="rgb(255,12,12)"  stroke="rgb(255,12,12)" stroke-width="1" font-size="16" >O</text>
<text x="379.516306" y="261.926891" fill="rgb(255,12,12)"  stroke="rgb(255,12,12)" stroke-width="1" font-size="16" >O</text>
<text x="381.695987" y="192.642977" fill="rgb(102,102,102)"  stroke="rgb(102,102,102)" stroke-width="1" font-size="16" >CH</text>
<text x="405.695987" y="196.322977" fill="rgb(102,102,102)"  stroke="rgb(102,102,102)" stroke-width="1" font-size="13" >3</text>
<text x="479.491629" y="296.483863" fill="rgb(102,102,102)"  stroke="rgb(102,102,102)" stroke-width="1" font-size="16" >CH</text>
<text font-size="18.000000" fill ="black" font-family="sans-serif"
x="10.000000" y="20.000000" ></text>
<title> - OBDepict</title>
</svg>
