<?xml version="1.0"?>
<svg xmlns="http://www.w3.org/2000/svg"
xmlns:xlink="http://www.w3.org/1999/xlink" xmlns:cml="http://www.xml-cml.org/schema" width="495.627" height="199.962" x="0" y="0" font-family="sans-serif" stroke="rgb(0,0,0)" stroke-width="1"  stroke-linecap="round">
<rect x="0%" y="0%" width="100%" height="100%" stroke-width="0" fill="rgb(255,255,255)"  />
<line x1="178.3" y1="99.8" x2="201.7" y2="86.4" stroke="rgb(0,0,0)"  stroke-width="1.0"/>
<line x1="224.3" y1="86.4" x2="247.6" y2="99.8" stroke="rgb(0,0,0)"  stroke-width="1.0"/>
<line x1="74.2" y1="79.9" x2="108.9" y2="99.8" stroke="rgb(0,0,0)"  stroke-width="1.0"/>
<line x1="51.2" y1="66.6" x2="74.2" y2="79.9" stroke="rgb(0,0,0)"  stroke-width="1.0"/>
<line x1="53.3" y1="63.0" x2="76.3" y2="76.3" stroke="rgb(0,0,0)"  stroke-width="1.0"/>
<line x1="49.1" y1="70.2" x2="72.0" y2="83.6" stroke="rgb(0,0,0)"  stroke-width="1.0"/>
<line x1="175.3" y1="127.1" x2="175.3" y2="99.8" stroke="rgb(0,0,0)"  stroke-width="1.0"/>
<line x1="181.3" y1="127.1" x2="181.3" y2="99.8" stroke="rgb(0,0,0)"  stroke-width="1.0"/>
<line x1="154.9" y1="86.4" x2="178.3" y2="99.8" stroke="rgb(0,0,0)"  stroke-width="1.0"/>
<line x1="282.0" y1="53.0" x2="282.0" y2="79.9" stroke="rgb(0,0,0)"  stroke-width="1.0"/>
<line x1="108.9" y1="99.8" x2="132.3" y2="86.4" stroke="rgb(0,0,0)"  stroke-width="1.0"/>
<line x1="409.6" y1="86.4" x2="386.2" y2="99.8" stroke="rgb(0,0,0)"  stroke-width="1.0"/>
<line x1="444.3" y1="93.4" x2="432.2" y2="86.4" stroke="rgb(0,0,0)"  stroke-width="1.0"/>
<line x1="316.8" y1="99.8" x2="282.0" y2="79.9" stroke="rgb(0,0,0)"  stroke-width="1.0"/>
<line x1="282.0" y1="79.9" x2="247.6" y2="99.8" stroke="rgb(0,0,0)"  stroke-width="1.0"/>
<line x1="280.4" y1="89.2" x2="256.4" y2="103.1" stroke="rgb(0,0,0)"  stroke-width="1.0"/>
<line x1="247.6" y1="99.8" x2="247.6" y2="140.1" stroke="rgb(0,0,0)"  stroke-width="1.0"/>
<line x1="247.6" y1="140.1" x2="270.7" y2="153.4" stroke="rgb(0,0,0)"  stroke-width="1.0"/>
<line x1="256.4" y1="136.8" x2="272.5" y2="146.1" stroke="rgb(0,0,0)"  stroke-width="1.0"/>
<line x1="293.3" y1="153.5" x2="316.8" y2="140.1" stroke="rgb(0,0,0)"  stroke-width="1.0"/>
<line x1="316.8" y1="140.1" x2="316.8" y2="99.8" stroke="rgb(0,0,0)"  stroke-width="1.0"/>
<line x1="316.8" y1="140.1" x2="351.5" y2="160.0" stroke="rgb(0,0,0)"  stroke-width="1.0"/>
<line x1="325.5" y1="136.8" x2="349.8" y2="150.7" stroke="rgb(0,0,0)"  stroke-width="1.0"/>
<line x1="351.5" y1="160.0" x2="386.2" y2="140.1" stroke="rgb(0,0,0)"  stroke-width="1.0"/>
<line x1="386.2" y1="140.1" x2="386.2" y2="99.8" stroke="rgb(0,0,0)"  stroke-width="1.0"/>
<line x1="379.0" y1="134.1" x2="379.0" y2="105.8" stroke="rgb(0,0,0)"  stroke-width="1.0"/>
<line x1="386.2" y1="99.8" x2="351.5" y2="79.9" stroke="rgb(0,0,0)"  stroke-width="1.0"/>
<line x1="351.5" y1="79.9" x2="316.8" y2="99.8" stroke="rgb(0,0,0)"  stroke-width="1.0"/>
<line x1="349.8" y1="89.2" x2="325.5" y2="103.1" stroke="rgb(0,0,0)"  stroke-width="1.0"/>
<text x="207.026090" y="87.938799" fill="rgb(12,12,255)"  stroke="rgb(12,12,255)" stroke-width="1" font-size="16" >N</text>
<text x="207.026090" y="71.938799" fill="rgb(12,12,255)"  stroke="rgb(12,12,255)" stroke-width="1" font-size="16" >H</text>
<text x="276.038626" y="167.961910" fill="rgb(12,12,255)"  stroke="rgb(12,12,255)" stroke-width="1" font-size="16" >N</text>
<text x="22.000000" y="68.042156" fill="rgb(102,102,102)"  stroke="rgb(102,102,102)" stroke-width="1" font-size="16" >HC</text>
<text x="172.306400" y="148.060417" fill="rgb(255,12,12)"  stroke="rgb(255,12,12)" stroke-width="1" font-size="16" >O</text>
<text x="137.591562" y="87.938799" fill="rgb(12,12,255)"  stroke="rgb(12,12,255)" stroke-width="1" font-size="16" >N</text>
<text x="137.591562" y="71.938799" fill="rgb(12,12,255)"  stroke="rgb(12,12,255)" stroke-width="1" font-size="16" >H</text>
<text x="276.038626" y="48.000000" fill="rgb(255,12,12)"  stroke="rgb(255,12,12)" stroke-width="1" font-size="16" >OH</text>
<text x="414.912532" y="87.938799" fill="rgb(255,12,12)"  stroke="rgb(255,12,12)" stroke-width="1" font-size="16" >O</text>
<text x="451.627371" y="107.840291" fill="rgb(102,102,102)"  stroke="rgb(102,102,102)" stroke-width="1" font-size="16" >CH</text>
<text x="475.627371" y="111.520291" fill="rgb(102,102,102)"  stroke="rgb(102,102,102)" stroke-width="1" font-size="13" >3</text>
<text font-size="18.000000" fill ="black" font-family="sans-serif"
x="10.000000" y="20.000000" ></text>
<title> - OBDepict</title>
</svg>
