<?xml version="1.0"?>
<svg xmlns="http://www.w3.org/2000/svg"
xmlns:xlink="http://www.w3.org/1999/xlink" xmlns:cml="http://www.xml-cml.org/schema" width="253.302" height="359.949" x="0" y="0" font-family="sans-serif" stroke="rgb(0,0,0)" stroke-width="1"  stroke-linecap="round">
<rect x="0%" y="0%" width="100%" height="100%" stroke-width="0" fill="rgb(255,255,255)"  />
<line x1="74.7" y1="220.0" x2="74.7" y2="180.0" stroke="rgb(0,0,0)"  stroke-width="1.0"/>
<line x1="144.0" y1="300.0" x2="109.3" y2="280.0" stroke="rgb(0,0,0)"  stroke-width="1.0"/>
<line x1="167.3" y1="313.4" x2="144.0" y2="300.0" stroke="rgb(0,0,0)"  stroke-width="1.0"/>
<line x1="165.2" y1="317.1" x2="141.9" y2="303.6" stroke="rgb(0,0,0)"  stroke-width="1.0"/>
<line x1="169.4" y1="309.8" x2="146.1" y2="296.3" stroke="rgb(0,0,0)"  stroke-width="1.0"/>
<line x1="144.0" y1="100.0" x2="120.5" y2="113.5" stroke="rgb(0,0,0)"  stroke-width="1.0"/>
<line x1="77.7" y1="73.0" x2="77.7" y2="100.0" stroke="rgb(0,0,0)"  stroke-width="1.0"/>
<line x1="71.7" y1="73.0" x2="71.7" y2="100.0" stroke="rgb(0,0,0)"  stroke-width="1.0"/>
<line x1="49.8" y1="230.9" x2="73.2" y2="217.4" stroke="rgb(0,0,0)"  stroke-width="1.0"/>
<line x1="52.8" y1="236.1" x2="76.2" y2="222.6" stroke="rgb(0,0,0)"  stroke-width="1.0"/>
<line x1="98.0" y1="233.4" x2="74.7" y2="220.0" stroke="rgb(0,0,0)"  stroke-width="1.0"/>
<line x1="109.3" y1="280.0" x2="109.3" y2="253.0" stroke="rgb(0,0,0)"  stroke-width="1.0"/>
<line x1="144.0" y1="100.0" x2="178.6" y2="120.0" stroke="rgb(0,0,0)"  stroke-width="1.0"/>
<line x1="178.6" y1="120.0" x2="213.3" y2="100.0" stroke="rgb(0,0,0)"  stroke-width="1.0"/>
<line x1="180.2" y1="110.8" x2="204.5" y2="96.7" stroke="rgb(0,0,0)"  stroke-width="1.0"/>
<line x1="213.3" y1="100.0" x2="213.3" y2="60.0" stroke="rgb(0,0,0)"  stroke-width="1.0"/>
<line x1="213.3" y1="60.0" x2="178.6" y2="40.0" stroke="rgb(0,0,0)"  stroke-width="1.0"/>
<line x1="204.5" y1="63.2" x2="180.2" y2="49.2" stroke="rgb(0,0,0)"  stroke-width="1.0"/>
<line x1="178.6" y1="40.0" x2="144.0" y2="60.0" stroke="rgb(0,0,0)"  stroke-width="1.0"/>
<line x1="144.0" y1="60.0" x2="144.0" y2="100.0" stroke="rgb(0,0,0)"  stroke-width="1.0"/>
<line x1="151.2" y1="66.0" x2="151.2" y2="94.0" stroke="rgb(0,0,0)"  stroke-width="1.0"/>
<line x1="97.9" y1="166.6" x2="74.7" y2="180.0" stroke="rgb(0,0,0)"  stroke-width="1.0"/>
<line x1="92.5" y1="161.4" x2="76.3" y2="170.7" stroke="rgb(0,0,0)"  stroke-width="1.0"/>
<line x1="74.7" y1="180.0" x2="40.0" y2="160.0" stroke="rgb(0,0,0)"  stroke-width="1.0"/>
<line x1="40.0" y1="160.0" x2="40.0" y2="120.0" stroke="rgb(0,0,0)"  stroke-width="1.0"/>
<line x1="40.0" y1="120.0" x2="74.7" y2="100.0" stroke="rgb(0,0,0)"  stroke-width="1.0"/>
<line x1="74.7" y1="100.0" x2="98.0" y2="113.5" stroke="rgb(0,0,0)"  stroke-width="1.0"/>
<line x1="109.3" y1="133.0" x2="109.3" y2="147.0" stroke="rgb(0,0,0)"  stroke-width="1.0"/>
<text x="103.277016" y="167.978039" fill="rgb(12,12,255)"  stroke="rgb(12,12,255)" stroke-width="1" font-size="16" >N</text>
<text x="103.277016" y="127.985359" fill="rgb(12,12,255)"  stroke="rgb(12,12,255)" stroke-width="1" font-size="16" >N</text>
<text x="172.558880" y="327.948757" fill="rgb(102,102,102)"  stroke="rgb(102,102,102)" stroke-width="1" font-size="16" >CH</text>
<text x="68.737884" y="67.996340" fill="rgb(255,12,12)"  stroke="rgb(255,12,12)" stroke-width="1" font-size="16" >O</text>
<text x="34.000000" y="247.963398" fill="rgb(255,12,12)"  stroke="rgb(255,12,12)" stroke-width="1" font-size="16" >O</text>
<text x="103.277016" y="247.963398" fill="rgb(12,12,255)"  stroke="rgb(12,12,255)" stroke-width="1" font-size="16" >NH</text>
<text font-size="18.000000" fill ="black" font-family="sans-serif"
x="10.000000" y="20.000000" ></text>
<title> - OBDepict</title>
</svg>
