<?xml version="1.0"?>
<svg xmlns="http://www.w3.org/2000/svg"
xmlns:xlink="http://www.w3.org/1999/xlink" xmlns:cml="http://www.xml-cml.org/schema" width="481.753" height="446.225" x="0" y="0" font-family="sans-serif" stroke="rgb(0,0,0)" stroke-width="1"  stroke-linecap="round">
<rect x="0%" y="0%" width="100%" height="100%" stroke-width="0" fill="rgb(255,255,255)"  />
<line x1="326.3" y1="127.0" x2="302.7" y2="140.5" stroke="rgb(0,0,0)"  stroke-width="1.0"/>
<line x1="189.1" y1="248.8" x2="164.9" y2="262.9" stroke="rgb(0,0,0)"  stroke-width="1.0"/>
<line x1="186.1" y1="243.6" x2="161.8" y2="257.7" stroke="rgb(0,0,0)"  stroke-width="1.0"/>
<line x1="198.5" y1="200.1" x2="198.8" y2="226.7" stroke="rgb(0,0,0)"  stroke-width="1.0"/>
<line x1="361.0" y1="107.1" x2="348.8" y2="114.1" stroke="rgb(0,0,0)"  stroke-width="1.0"/>
<line x1="179.1" y1="366.9" x2="188.2" y2="327.9" stroke="rgb(0,0,0)"  stroke-width="1.0"/>
<line x1="348.5" y1="145.3" x2="341.5" y2="133.3" stroke="rgb(0,0,0)"  stroke-width="1.0"/>
<line x1="353.7" y1="142.3" x2="346.7" y2="130.3" stroke="rgb(0,0,0)"  stroke-width="1.0"/>
<line x1="326.6" y1="95.2" x2="333.8" y2="107.8" stroke="rgb(0,0,0)"  stroke-width="1.0"/>
<line x1="321.4" y1="98.2" x2="328.5" y2="110.7" stroke="rgb(0,0,0)"  stroke-width="1.0"/>
<line x1="172.9" y1="393.6" x2="179.1" y2="366.9" stroke="rgb(0,0,0)"  stroke-width="1.0"/>
<line x1="168.8" y1="392.6" x2="175.0" y2="365.9" stroke="rgb(0,0,0)"  stroke-width="1.0"/>
<line x1="177.0" y1="394.5" x2="183.2" y2="367.8" stroke="rgb(0,0,0)"  stroke-width="1.0"/>
<line x1="233.0" y1="180.1" x2="198.5" y2="200.1" stroke="rgb(0,0,0)"  stroke-width="1.0"/>
<line x1="176.7" y1="184.0" x2="200.0" y2="197.5" stroke="rgb(0,0,0)"  stroke-width="1.0"/>
<line x1="173.7" y1="189.2" x2="197.0" y2="202.7" stroke="rgb(0,0,0)"  stroke-width="1.0"/>
<line x1="188.2" y1="327.9" x2="168.4" y2="309.2" stroke="rgb(0,0,0)"  stroke-width="1.0"/>
<line x1="406.8" y1="120.1" x2="383.6" y2="107.0" stroke="rgb(0,0,0)"  stroke-width="1.0"/>
<line x1="372.3" y1="60.0" x2="372.3" y2="87.6" stroke="rgb(0,0,0)"  stroke-width="1.0"/>
<line x1="111.8" y1="365.5" x2="99.0" y2="341.4" stroke="rgb(0,0,0)"  stroke-width="1.0"/>
<line x1="349.0" y1="46.5" x2="372.3" y2="60.0" stroke="rgb(0,0,0)"  stroke-width="1.0"/>
<line x1="430.4" y1="106.9" x2="406.8" y2="120.1" stroke="rgb(0,0,0)"  stroke-width="1.0"/>
<line x1="163.4" y1="260.3" x2="140.0" y2="249.2" stroke="rgb(0,0,0)"  stroke-width="1.0"/>
<line x1="119.2" y1="253.0" x2="100.4" y2="272.4" stroke="rgb(0,0,0)"  stroke-width="1.0"/>
<line x1="100.4" y1="272.4" x2="119.7" y2="307.5" stroke="rgb(0,0,0)"  stroke-width="1.0"/>
<line x1="109.6" y1="274.1" x2="123.2" y2="298.8" stroke="rgb(0,0,0)"  stroke-width="1.0"/>
<line x1="119.7" y1="307.5" x2="146.1" y2="302.6" stroke="rgb(0,0,0)"  stroke-width="1.0"/>
<line x1="160.3" y1="287.3" x2="163.4" y2="260.3" stroke="rgb(0,0,0)"  stroke-width="1.0"/>
<line x1="233.0" y1="180.1" x2="267.9" y2="199.7" stroke="rgb(0,0,0)"  stroke-width="1.0"/>
<line x1="241.8" y1="176.8" x2="266.2" y2="190.5" stroke="rgb(0,0,0)"  stroke-width="1.0"/>
<line x1="267.9" y1="199.7" x2="302.5" y2="180.5" stroke="rgb(0,0,0)"  stroke-width="1.0"/>
<line x1="302.5" y1="180.5" x2="302.7" y2="140.5" stroke="rgb(0,0,0)"  stroke-width="1.0"/>
<line x1="295.3" y1="174.5" x2="295.4" y2="146.5" stroke="rgb(0,0,0)"  stroke-width="1.0"/>
<line x1="302.7" y1="140.5" x2="267.9" y2="120.1" stroke="rgb(0,0,0)"  stroke-width="1.0"/>
<line x1="267.9" y1="120.1" x2="233.4" y2="139.9" stroke="rgb(0,0,0)"  stroke-width="1.0"/>
<line x1="266.3" y1="129.4" x2="242.2" y2="143.2" stroke="rgb(0,0,0)"  stroke-width="1.0"/>
<line x1="233.4" y1="139.9" x2="233.0" y2="180.1" stroke="rgb(0,0,0)"  stroke-width="1.0"/>
<line x1="99.0" y1="341.4" x2="60.0" y2="340.8" stroke="rgb(0,0,0)"  stroke-width="1.0"/>
<line x1="93.1" y1="334.1" x2="66.1" y2="333.7" stroke="rgb(0,0,0)"  stroke-width="1.0"/>
<line x1="60.0" y1="340.8" x2="40.0" y2="305.5" stroke="rgb(0,0,0)"  stroke-width="1.0"/>
<line x1="40.0" y1="305.5" x2="60.8" y2="271.2" stroke="rgb(0,0,0)"  stroke-width="1.0"/>
<line x1="49.3" y1="304.1" x2="63.8" y2="280.0" stroke="rgb(0,0,0)"  stroke-width="1.0"/>
<line x1="60.8" y1="271.2" x2="100.4" y2="272.4" stroke="rgb(0,0,0)"  stroke-width="1.0"/>
<line x1="119.7" y1="307.5" x2="99.0" y2="341.4" stroke="rgb(0,0,0)"  stroke-width="1.0"/>
<text x="331.579356" y="128.551553" fill="rgb(178,178,0)"  stroke="rgb(178,178,0)" stroke-width="1" font-size="16" >S</text>
<text x="192.885913" y="247.668684" fill="rgb(12,12,255)"  stroke="rgb(12,12,255)" stroke-width="1" font-size="16" >N</text>
<text x="152.908511" y="308.236388" fill="rgb(12,12,255)"  stroke="rgb(12,12,255)" stroke-width="1" font-size="16" >N</text>
<text x="122.226826" y="251.705237" fill="rgb(178,178,0)"  stroke="rgb(178,178,0)" stroke-width="1" font-size="16" >S</text>
<text x="366.307298" y="108.567704" fill="rgb(12,12,255)"  stroke="rgb(12,12,255)" stroke-width="1" font-size="16" >N</text>
<text x="351.568057" y="163.075726" fill="rgb(255,12,12)"  stroke="rgb(255,12,12)" stroke-width="1" font-size="16" >O</text>
<text x="311.595507" y="93.425778" fill="rgb(255,12,12)"  stroke="rgb(255,12,12)" stroke-width="1" font-size="16" >O</text>
<text x="152.013884" y="414.225018" fill="rgb(102,102,102)"  stroke="rgb(102,102,102)" stroke-width="1" font-size="16" >HC</text>
<text x="157.959054" y="188.110119" fill="rgb(255,12,12)"  stroke="rgb(255,12,12)" stroke-width="1" font-size="16" >O</text>
<text x="113.926823" y="384.950305" fill="rgb(102,102,102)"  stroke="rgb(102,102,102)" stroke-width="1" font-size="16" >CH</text>
<text x="137.926823" y="388.630305" fill="rgb(102,102,102)"  stroke="rgb(102,102,102)" stroke-width="1" font-size="13" >3</text>
<text x="311.783125" y="48.000000" fill="rgb(102,102,102)"  stroke="rgb(102,102,102)" stroke-width="1" font-size="16" >H</text>
<text x="323.783125" y="51.680000" fill="rgb(102,102,102)"  stroke="rgb(102,102,102)" stroke-width="1" font-size="13" >3</text>
<text x="330.283125" y="48.000000" fill="rgb(102,102,102)"  stroke="rgb(102,102,102)" stroke-width="1" font-size="16" >C</text>
<text x="437.753478" y="108.567704" fill="rgb(102,102,102)"  stroke="rgb(102,102,102)" stroke-width="1" font-size="16" >CH</text>
<text x="461.753478" y="112.247704" fill="rgb(102,102,102)"  stroke="rgb(102,102,102)" stroke-width="1" font-size="13" >3</text>
<text font-size="18.000000" fill ="black" font-family="sans-serif"
x="10.000000" y="20.000000" ></text>
<title> - OBDepict</title>
</svg>
