<?xml version="1.0"?>
<svg xmlns="http://www.w3.org/2000/svg"
xmlns:xlink="http://www.w3.org/1999/xlink" xmlns:cml="http://www.xml-cml.org/schema" width="413.856" height="320.517" x="0" y="0" font-family="sans-serif" stroke="rgb(0,0,0)" stroke-width="1"  stroke-linecap="round">
<rect x="0%" y="0%" width="100%" height="100%" stroke-width="0" fill="rgb(255,255,255)"  />
<line x1="202.4" y1="207.5" x2="190.5" y2="209.7" stroke="rgb(0,0,0)"  stroke-width="1.0"/>
<line x1="278.2" y1="213.2" x2="243.7" y2="233.3" stroke="rgb(0,0,0)"  stroke-width="1.0"/>
<line x1="241.6" y1="235.5" x2="222.3" y2="216.4" stroke="rgb(0,0,0)"  stroke-width="1.0"/>
<line x1="245.8" y1="231.2" x2="226.5" y2="212.2" stroke="rgb(0,0,0)"  stroke-width="1.0"/>
<line x1="241.8" y1="78.7" x2="270.4" y2="107.2" stroke="rgb(0,0,0)"  stroke-width="1.0"/>
<line x1="248.8" y1="52.6" x2="241.8" y2="78.7" stroke="rgb(0,0,0)"  stroke-width="1.0"/>
<line x1="252.9" y1="53.6" x2="245.9" y2="79.8" stroke="rgb(0,0,0)"  stroke-width="1.0"/>
<line x1="244.8" y1="51.5" x2="237.8" y2="77.6" stroke="rgb(0,0,0)"  stroke-width="1.0"/>
<line x1="170.7" y1="270.5" x2="158.7" y2="248.1" stroke="rgb(0,0,0)"  stroke-width="1.0"/>
<line x1="176.0" y1="267.6" x2="164.0" y2="245.3" stroke="rgb(0,0,0)"  stroke-width="1.0"/>
<line x1="155.9" y1="161.5" x2="152.7" y2="186.4" stroke="rgb(0,0,0)"  stroke-width="1.0"/>
<line x1="150.0" y1="160.7" x2="146.7" y2="185.6" stroke="rgb(0,0,0)"  stroke-width="1.0"/>
<line x1="364.7" y1="250.1" x2="345.5" y2="230.8" stroke="rgb(0,0,0)"  stroke-width="1.0"/>
<line x1="269.2" y1="155.2" x2="288.5" y2="174.3" stroke="rgb(0,0,0)"  stroke-width="1.0"/>
<line x1="270.4" y1="107.2" x2="263.4" y2="133.4" stroke="rgb(0,0,0)"  stroke-width="1.0"/>
<line x1="168.2" y1="203.2" x2="149.7" y2="186.0" stroke="rgb(0,0,0)"  stroke-width="1.0"/>
<line x1="149.7" y1="186.0" x2="115.8" y2="204.8" stroke="rgb(0,0,0)"  stroke-width="1.0"/>
<line x1="115.8" y1="204.8" x2="123.5" y2="242.2" stroke="rgb(0,0,0)"  stroke-width="1.0"/>
<line x1="123.5" y1="242.2" x2="161.3" y2="246.7" stroke="rgb(0,0,0)"  stroke-width="1.0"/>
<line x1="161.3" y1="246.7" x2="172.1" y2="223.8" stroke="rgb(0,0,0)"  stroke-width="1.0"/>
<line x1="278.2" y1="213.2" x2="288.5" y2="174.3" stroke="rgb(0,0,0)"  stroke-width="1.0"/>
<line x1="286.7" y1="209.2" x2="293.9" y2="182.0" stroke="rgb(0,0,0)"  stroke-width="1.0"/>
<line x1="288.5" y1="174.3" x2="327.4" y2="163.7" stroke="rgb(0,0,0)"  stroke-width="1.0"/>
<line x1="327.4" y1="163.7" x2="355.9" y2="192.0" stroke="rgb(0,0,0)"  stroke-width="1.0"/>
<line x1="326.5" y1="173.0" x2="346.5" y2="192.9" stroke="rgb(0,0,0)"  stroke-width="1.0"/>
<line x1="355.9" y1="192.0" x2="345.5" y2="230.8" stroke="rgb(0,0,0)"  stroke-width="1.0"/>
<line x1="345.5" y1="230.8" x2="306.5" y2="241.2" stroke="rgb(0,0,0)"  stroke-width="1.0"/>
<line x1="337.9" y1="225.4" x2="310.5" y2="232.7" stroke="rgb(0,0,0)"  stroke-width="1.0"/>
<line x1="306.5" y1="241.2" x2="278.2" y2="213.2" stroke="rgb(0,0,0)"  stroke-width="1.0"/>
<line x1="40.0" y1="206.0" x2="79.5" y2="188.5" stroke="rgb(0,0,0)"  stroke-width="1.0"/>
<line x1="79.5" y1="188.5" x2="115.8" y2="204.8" stroke="rgb(0,0,0)"  stroke-width="1.0"/>
<line x1="123.5" y1="242.2" x2="86.7" y2="225.2" stroke="rgb(0,0,0)"  stroke-width="1.0"/>
<line x1="86.7" y1="225.2" x2="45.5" y2="242.3" stroke="rgb(0,0,0)"  stroke-width="1.0"/>
<line x1="45.5" y1="242.3" x2="40.0" y2="206.0" stroke="rgb(0,0,0)"  stroke-width="1.0"/>
<line x1="51.7" y1="235.3" x2="48.0" y2="210.9" stroke="rgb(0,0,0)"  stroke-width="1.0"/>
<line x1="81.2" y1="144.8" x2="79.5" y2="188.5" stroke="rgb(0,0,0)"  stroke-width="1.0"/>
<line x1="86.7" y1="225.2" x2="93.3" y2="174.3" stroke="rgb(0,0,0)"  stroke-width="1.0"/>
<line x1="93.3" y1="174.3" x2="81.2" y2="144.8" stroke="rgb(0,0,0)"  stroke-width="1.0"/>
<text x="171.679700" y="220.010729" fill="rgb(12,12,255)"  stroke="rgb(12,12,255)" stroke-width="1" font-size="16" >N</text>
<text x="209.181771" y="213.171801" fill="rgb(12,12,255)"  stroke="rgb(12,12,255)" stroke-width="1" font-size="16" >N</text>
<text x="246.182125" y="48.000000" fill="rgb(102,102,102)"  stroke="rgb(102,102,102)" stroke-width="1" font-size="16" >CH</text>
<text x="173.511208" y="288.516914" fill="rgb(255,12,12)"  stroke="rgb(255,12,12)" stroke-width="1" font-size="16" >O</text>
<text x="148.678691" y="156.170993" fill="rgb(255,12,12)"  stroke="rgb(255,12,12)" stroke-width="1" font-size="16" >O</text>
<text x="367.855616" y="267.347412" fill="rgb(165,40,40)"  stroke="rgb(165,40,40)" stroke-width="1" font-size="16" >Br</text>
<text x="254.014743" y="154.003384" fill="rgb(255,12,12)"  stroke="rgb(255,12,12)" stroke-width="1" font-size="16" >O</text>
<text font-size="18.000000" fill ="black" font-family="sans-serif"
x="10.000000" y="20.000000" ></text>
<title> - OBDepict</title>
</svg>
