<?xml version="1.0"?>
<svg xmlns="http://www.w3.org/2000/svg"
xmlns:xlink="http://www.w3.org/1999/xlink" xmlns:cml="http://www.xml-cml.org/schema" width="183.879" height="419.925" x="0" y="0" font-family="sans-serif" stroke="rgb(0,0,0)" stroke-width="1"  stroke-linecap="round">
<rect x="0%" y="0%" width="100%" height="100%" stroke-width="0" fill="rgb(255,255,255)"  />
<line x1="74.6" y1="319.9" x2="74.6" y2="346.9" stroke="rgb(0,0,0)"  stroke-width="1.0"/>
<line x1="143.9" y1="79.8" x2="143.9" y2="119.8" stroke="rgb(0,0,0)"  stroke-width="1.0"/>
<line x1="143.9" y1="53.0" x2="143.9" y2="79.8" stroke="rgb(0,0,0)"  stroke-width="1.0"/>
<line x1="148.1" y1="53.0" x2="148.1" y2="79.8" stroke="rgb(0,0,0)"  stroke-width="1.0"/>
<line x1="139.7" y1="53.0" x2="139.7" y2="79.8" stroke="rgb(0,0,0)"  stroke-width="1.0"/>
<line x1="51.3" y1="373.4" x2="63.3" y2="366.4" stroke="rgb(0,0,0)"  stroke-width="1.0"/>
<line x1="109.3" y1="179.8" x2="74.6" y2="199.9" stroke="rgb(0,0,0)"  stroke-width="1.0"/>
<line x1="96.6" y1="376.0" x2="84.3" y2="369.0" stroke="rgb(0,0,0)"  stroke-width="1.0"/>
<line x1="99.6" y1="370.8" x2="87.3" y2="363.8" stroke="rgb(0,0,0)"  stroke-width="1.0"/>
<line x1="131.1" y1="195.9" x2="107.8" y2="182.4" stroke="rgb(0,0,0)"  stroke-width="1.0"/>
<line x1="134.1" y1="190.7" x2="110.8" y2="177.3" stroke="rgb(0,0,0)"  stroke-width="1.0"/>
<line x1="109.3" y1="152.8" x2="109.3" y2="179.8" stroke="rgb(0,0,0)"  stroke-width="1.0"/>
<line x1="74.6" y1="199.9" x2="74.6" y2="239.9" stroke="rgb(0,0,0)"  stroke-width="1.0"/>
<line x1="143.9" y1="119.8" x2="120.6" y2="133.3" stroke="rgb(0,0,0)"  stroke-width="1.0"/>
<line x1="74.6" y1="319.9" x2="109.3" y2="299.9" stroke="rgb(0,0,0)"  stroke-width="1.0"/>
<line x1="109.3" y1="299.9" x2="109.3" y2="259.9" stroke="rgb(0,0,0)"  stroke-width="1.0"/>
<line x1="102.1" y1="293.9" x2="102.1" y2="265.9" stroke="rgb(0,0,0)"  stroke-width="1.0"/>
<line x1="109.3" y1="259.9" x2="74.6" y2="239.9" stroke="rgb(0,0,0)"  stroke-width="1.0"/>
<line x1="74.6" y1="239.9" x2="40.0" y2="259.9" stroke="rgb(0,0,0)"  stroke-width="1.0"/>
<line x1="73.0" y1="249.1" x2="48.8" y2="263.1" stroke="rgb(0,0,0)"  stroke-width="1.0"/>
<line x1="40.0" y1="259.9" x2="40.0" y2="299.9" stroke="rgb(0,0,0)"  stroke-width="1.0"/>
<line x1="40.0" y1="299.9" x2="74.6" y2="319.9" stroke="rgb(0,0,0)"  stroke-width="1.0"/>
<line x1="48.8" y1="296.7" x2="73.0" y2="310.7" stroke="rgb(0,0,0)"  stroke-width="1.0"/>
<text x="79.358563" y="355.885712" fill="rgb(12,12,255)"  stroke="rgb(12,12,255)" stroke-width="1" font-size="16" >+</text>
<text x="68.558563" y="367.917712" fill="rgb(12,12,255)"  stroke="rgb(12,12,255)" stroke-width="1" font-size="16" >N</text>
<text x="137.879403" y="48.000000" fill="rgb(102,102,102)"  stroke="rgb(102,102,102)" stroke-width="1" font-size="16" >CH</text>
<text x="44.800000" y="365.813301" fill="rgb(255,12,12)"  stroke="rgb(255,12,12)" stroke-width="1" font-size="16" >_</text>
<text x="34.000000" y="387.925301" fill="rgb(255,12,12)"  stroke="rgb(255,12,12)" stroke-width="1" font-size="16" >O</text>
<text x="103.320840" y="387.925301" fill="rgb(255,12,12)"  stroke="rgb(255,12,12)" stroke-width="1" font-size="16" >O</text>
<text x="137.879403" y="207.856999" fill="rgb(255,12,12)"  stroke="rgb(255,12,12)" stroke-width="1" font-size="16" >O</text>
<text x="91.320840" y="147.834232" fill="rgb(12,12,255)"  stroke="rgb(12,12,255)" stroke-width="1" font-size="16" >HN</text>
<text font-size="18.000000" fill ="black" font-family="sans-serif"
x="10.000000" y="20.000000" ></text>
<title> - OBDepict</title>
</svg>
