<?xml version="1.0"?>
<svg xmlns="http://www.w3.org/2000/svg"
xmlns:xlink="http://www.w3.org/1999/xlink" xmlns:cml="http://www.xml-cml.org/schema" width="224.034" height="519.785" x="0" y="0" font-family="sans-serif" stroke="rgb(0,0,0)" stroke-width="1"  stroke-linecap="round">
<rect x="0%" y="0%" width="100%" height="100%" stroke-width="0" fill="rgb(255,255,255)"  />
<line x1="80.0" y1="272.8" x2="80.0" y2="286.8" stroke="rgb(0,0,0)"  stroke-width="1.0"/>
<line x1="80.0" y1="139.8" x2="80.0" y2="166.8" stroke="rgb(0,0,0)"  stroke-width="1.0"/>
<line x1="80.0" y1="339.8" x2="80.0" y2="312.8" stroke="rgb(0,0,0)"  stroke-width="1.0"/>
<line x1="107.0" y1="302.8" x2="93.0" y2="302.8" stroke="rgb(0,0,0)"  stroke-width="1.0"/>
<line x1="107.0" y1="296.8" x2="93.0" y2="296.8" stroke="rgb(0,0,0)"  stroke-width="1.0"/>
<line x1="53.0" y1="296.8" x2="67.0" y2="296.8" stroke="rgb(0,0,0)"  stroke-width="1.0"/>
<line x1="53.0" y1="302.8" x2="67.0" y2="302.8" stroke="rgb(0,0,0)"  stroke-width="1.0"/>
<line x1="149.3" y1="60.0" x2="114.7" y2="79.8" stroke="rgb(0,0,0)"  stroke-width="1.0"/>
<line x1="172.8" y1="46.5" x2="149.3" y2="60.0" stroke="rgb(0,0,0)"  stroke-width="1.0"/>
<line x1="174.9" y1="50.1" x2="151.4" y2="63.6" stroke="rgb(0,0,0)"  stroke-width="1.0"/>
<line x1="170.7" y1="42.8" x2="147.2" y2="56.4" stroke="rgb(0,0,0)"  stroke-width="1.0"/>
<line x1="58.2" y1="123.7" x2="81.5" y2="137.2" stroke="rgb(0,0,0)"  stroke-width="1.0"/>
<line x1="55.2" y1="128.9" x2="78.5" y2="142.4" stroke="rgb(0,0,0)"  stroke-width="1.0"/>
<line x1="103.5" y1="126.3" x2="80.0" y2="139.8" stroke="rgb(0,0,0)"  stroke-width="1.0"/>
<line x1="114.7" y1="79.8" x2="114.7" y2="106.8" stroke="rgb(0,0,0)"  stroke-width="1.0"/>
<line x1="80.0" y1="446.8" x2="80.0" y2="419.8" stroke="rgb(0,0,0)"  stroke-width="1.0"/>
<line x1="103.5" y1="473.3" x2="91.3" y2="466.3" stroke="rgb(0,0,0)"  stroke-width="1.0"/>
<line x1="80.0" y1="339.8" x2="114.7" y2="359.8" stroke="rgb(0,0,0)"  stroke-width="1.0"/>
<line x1="114.7" y1="359.8" x2="114.7" y2="399.8" stroke="rgb(0,0,0)"  stroke-width="1.0"/>
<line x1="107.5" y1="365.8" x2="107.5" y2="393.8" stroke="rgb(0,0,0)"  stroke-width="1.0"/>
<line x1="114.7" y1="399.8" x2="80.0" y2="419.8" stroke="rgb(0,0,0)"  stroke-width="1.0"/>
<line x1="80.0" y1="419.8" x2="45.5" y2="399.8" stroke="rgb(0,0,0)"  stroke-width="1.0"/>
<line x1="78.4" y1="410.6" x2="54.3" y2="396.6" stroke="rgb(0,0,0)"  stroke-width="1.0"/>
<line x1="45.5" y1="399.8" x2="45.5" y2="359.8" stroke="rgb(0,0,0)"  stroke-width="1.0"/>
<line x1="45.5" y1="359.8" x2="80.0" y2="339.8" stroke="rgb(0,0,0)"  stroke-width="1.0"/>
<line x1="54.3" y1="363.0" x2="78.4" y2="349.0" stroke="rgb(0,0,0)"  stroke-width="1.0"/>
<line x1="68.7" y1="253.3" x2="45.5" y2="239.8" stroke="rgb(0,0,0)"  stroke-width="1.0"/>
<line x1="45.5" y1="239.8" x2="45.5" y2="199.8" stroke="rgb(0,0,0)"  stroke-width="1.0"/>
<line x1="45.5" y1="199.8" x2="68.7" y2="186.3" stroke="rgb(0,0,0)"  stroke-width="1.0"/>
<line x1="91.3" y1="186.3" x2="114.7" y2="199.8" stroke="rgb(0,0,0)"  stroke-width="1.0"/>
<line x1="114.7" y1="199.8" x2="114.7" y2="239.8" stroke="rgb(0,0,0)"  stroke-width="1.0"/>
<line x1="114.7" y1="239.8" x2="91.3" y2="253.3" stroke="rgb(0,0,0)"  stroke-width="1.0"/>
<text x="73.998558" y="307.791848" fill="rgb(178,178,0)"  stroke="rgb(178,178,0)" stroke-width="1" font-size="16" >S</text>
<text x="73.998558" y="267.793290" fill="rgb(12,12,255)"  stroke="rgb(12,12,255)" stroke-width="1" font-size="16" >N</text>
<text x="73.998558" y="187.796173" fill="rgb(12,12,255)"  stroke="rgb(12,12,255)" stroke-width="1" font-size="16" >N</text>
<text x="113.997117" y="307.791848" fill="rgb(255,12,12)"  stroke="rgb(255,12,12)" stroke-width="1" font-size="16" >O</text>
<text x="34.000000" y="307.791848" fill="rgb(255,12,12)"  stroke="rgb(255,12,12)" stroke-width="1" font-size="16" >O</text>
<text x="178.033596" y="48.000000" fill="rgb(102,102,102)"  stroke="rgb(102,102,102)" stroke-width="1" font-size="16" >CH</text>
<text x="39.454349" y="127.798336" fill="rgb(255,12,12)"  stroke="rgb(255,12,12)" stroke-width="1" font-size="16" >O</text>
<text x="108.741549" y="127.798336" fill="rgb(12,12,255)"  stroke="rgb(12,12,255)" stroke-width="1" font-size="16" >NH</text>
<text x="73.998558" y="467.786082" fill="rgb(255,12,12)"  stroke="rgb(255,12,12)" stroke-width="1" font-size="16" >O</text>
<text x="110.741549" y="487.785361" fill="rgb(102,102,102)"  stroke="rgb(102,102,102)" stroke-width="1" font-size="16" >CH</text>
<text x="134.741549" y="491.465361" fill="rgb(102,102,102)"  stroke="rgb(102,102,102)" stroke-width="1" font-size="13" >3</text>
<text font-size="18.000000" fill ="black" font-family="sans-serif"
x="10.000000" y="20.000000" ></text>
<title> - OBDepict</title>
</svg>
