<?xml version="1.0"?>
<svg xmlns="http://www.w3.org/2000/svg"
xmlns:xlink="http://www.w3.org/1999/xlink" xmlns:cml="http://www.xml-cml.org/schema" width="579.721" height="288.317" x="0" y="0" font-family="sans-serif" stroke="rgb(0,0,0)" stroke-width="1"  stroke-linecap="round">
<rect x="0%" y="0%" width="100%" height="100%" stroke-width="0" fill="rgb(255,255,255)"  />
<line x1="302.1" y1="107.8" x2="322.0" y2="142.7" stroke="rgb(0,0,0)"  stroke-width="1.0"/>
<line x1="296.9" y1="110.7" x2="316.8" y2="145.6" stroke="rgb(0,0,0)"  stroke-width="1.0"/>
<line x1="419.7" y1="179.1" x2="392.6" y2="179.1" stroke="rgb(0,0,0)"  stroke-width="1.0"/>
<line x1="80.1" y1="73.1" x2="120.1" y2="73.7" stroke="rgb(0,0,0)"  stroke-width="1.0"/>
<line x1="370.5" y1="238.5" x2="356.9" y2="214.9" stroke="rgb(0,0,0)"  stroke-width="1.0"/>
<line x1="375.7" y1="235.6" x2="362.1" y2="211.9" stroke="rgb(0,0,0)"  stroke-width="1.0"/>
<line x1="53.0" y1="72.7" x2="80.1" y2="73.1" stroke="rgb(0,0,0)"  stroke-width="1.0"/>
<line x1="53.1" y1="68.5" x2="80.2" y2="68.9" stroke="rgb(0,0,0)"  stroke-width="1.0"/>
<line x1="52.9" y1="76.9" x2="80.1" y2="77.3" stroke="rgb(0,0,0)"  stroke-width="1.0"/>
<line x1="375.6" y1="122.4" x2="362.1" y2="145.7" stroke="rgb(0,0,0)"  stroke-width="1.0"/>
<line x1="370.4" y1="119.4" x2="356.9" y2="142.7" stroke="rgb(0,0,0)"  stroke-width="1.0"/>
<line x1="272.5" y1="176.0" x2="299.5" y2="175.9" stroke="rgb(0,0,0)"  stroke-width="1.0"/>
<line x1="272.6" y1="182.0" x2="299.5" y2="181.9" stroke="rgb(0,0,0)"  stroke-width="1.0"/>
<line x1="259.6" y1="109.2" x2="299.5" y2="109.2" stroke="rgb(0,0,0)"  stroke-width="1.0"/>
<line x1="186.7" y1="51.3" x2="199.9" y2="74.7" stroke="rgb(0,0,0)"  stroke-width="1.0"/>
<line x1="152.7" y1="108.6" x2="179.7" y2="109.0" stroke="rgb(0,0,0)"  stroke-width="1.0"/>
<line x1="120.1" y1="73.7" x2="133.3" y2="97.1" stroke="rgb(0,0,0)"  stroke-width="1.0"/>
<line x1="526.7" y1="179.3" x2="499.8" y2="179.1" stroke="rgb(0,0,0)"  stroke-width="1.0"/>
<line x1="373.1" y1="167.8" x2="359.5" y2="144.2" stroke="rgb(0,0,0)"  stroke-width="1.0"/>
<line x1="359.5" y1="144.2" x2="319.4" y2="144.2" stroke="rgb(0,0,0)"  stroke-width="1.0"/>
<line x1="319.4" y1="144.2" x2="299.5" y2="178.9" stroke="rgb(0,0,0)"  stroke-width="1.0"/>
<line x1="299.5" y1="178.9" x2="313.2" y2="202.2" stroke="rgb(0,0,0)"  stroke-width="1.0"/>
<line x1="332.8" y1="213.4" x2="359.5" y2="213.4" stroke="rgb(0,0,0)"  stroke-width="1.0"/>
<line x1="359.5" y1="213.4" x2="373.0" y2="190.3" stroke="rgb(0,0,0)"  stroke-width="1.0"/>
<line x1="199.9" y1="74.7" x2="179.7" y2="109.0" stroke="rgb(0,0,0)"  stroke-width="1.0"/>
<line x1="179.7" y1="109.0" x2="199.3" y2="143.6" stroke="rgb(0,0,0)"  stroke-width="1.0"/>
<line x1="188.9" y1="110.7" x2="202.6" y2="134.8" stroke="rgb(0,0,0)"  stroke-width="1.0"/>
<line x1="199.3" y1="143.6" x2="239.3" y2="144.0" stroke="rgb(0,0,0)"  stroke-width="1.0"/>
<line x1="239.3" y1="144.0" x2="259.6" y2="109.2" stroke="rgb(0,0,0)"  stroke-width="1.0"/>
<line x1="236.1" y1="135.1" x2="250.3" y2="110.8" stroke="rgb(0,0,0)"  stroke-width="1.0"/>
<line x1="259.6" y1="109.2" x2="239.9" y2="74.9" stroke="rgb(0,0,0)"  stroke-width="1.0"/>
<line x1="239.9" y1="74.9" x2="199.9" y2="74.7" stroke="rgb(0,0,0)"  stroke-width="1.0"/>
<line x1="233.9" y1="82.1" x2="205.9" y2="81.9" stroke="rgb(0,0,0)"  stroke-width="1.0"/>
<line x1="419.7" y1="179.1" x2="439.6" y2="213.8" stroke="rgb(0,0,0)"  stroke-width="1.0"/>
<line x1="428.9" y1="180.7" x2="442.8" y2="205.0" stroke="rgb(0,0,0)"  stroke-width="1.0"/>
<line x1="439.6" y1="213.8" x2="479.5" y2="214.0" stroke="rgb(0,0,0)"  stroke-width="1.0"/>
<line x1="479.5" y1="214.0" x2="499.8" y2="179.1" stroke="rgb(0,0,0)"  stroke-width="1.0"/>
<line x1="476.3" y1="205.2" x2="490.5" y2="180.7" stroke="rgb(0,0,0)"  stroke-width="1.0"/>
<line x1="499.8" y1="179.1" x2="479.9" y2="144.6" stroke="rgb(0,0,0)"  stroke-width="1.0"/>
<line x1="479.9" y1="144.6" x2="439.6" y2="144.2" stroke="rgb(0,0,0)"  stroke-width="1.0"/>
<line x1="473.8" y1="151.7" x2="445.5" y2="151.4" stroke="rgb(0,0,0)"  stroke-width="1.0"/>
<line x1="439.6" y1="144.2" x2="419.7" y2="179.1" stroke="rgb(0,0,0)"  stroke-width="1.0"/>
<text x="373.569287" y="187.076464" fill="rgb(12,12,255)"  stroke="rgb(12,12,255)" stroke-width="1" font-size="16" >N</text>
<text x="313.760356" y="221.394095" fill="rgb(12,12,255)"  stroke="rgb(12,12,255)" stroke-width="1" font-size="16" >N</text>
<text x="313.760356" y="237.394095" fill="rgb(12,12,255)"  stroke="rgb(12,12,255)" stroke-width="1" font-size="16" >H</text>
<text x="373.569287" y="256.316934" fill="rgb(255,12,12)"  stroke="rgb(255,12,12)" stroke-width="1" font-size="16" >O</text>
<text x="22.000000" y="80.511695" fill="rgb(102,102,102)"  stroke="rgb(102,102,102)" stroke-width="1" font-size="16" >HC</text>
<text x="373.569287" y="117.637486" fill="rgb(255,12,12)"  stroke="rgb(255,12,12)" stroke-width="1" font-size="16" >O</text>
<text x="253.554409" y="187.076464" fill="rgb(255,12,12)"  stroke="rgb(255,12,12)" stroke-width="1" font-size="16" >O</text>
<text x="162.282035" y="48.000000" fill="rgb(165,40,40)"  stroke="rgb(165,40,40)" stroke-width="1" font-size="16" >Br</text>
<text x="133.742880" y="116.431914" fill="rgb(255,12,12)"  stroke="rgb(255,12,12)" stroke-width="1" font-size="16" >O</text>
<text x="535.721464" y="187.478321" fill="rgb(102,102,102)"  stroke="rgb(102,102,102)" stroke-width="1" font-size="16" >CH</text>
<text x="559.721464" y="191.158321" fill="rgb(102,102,102)"  stroke="rgb(102,102,102)" stroke-width="1" font-size="13" >3</text>
<text font-size="18.000000" fill ="black" font-family="sans-serif"
x="10.000000" y="20.000000" ></text>
<title> - OBDepict</title>
</svg>
