<?xml version="1.0"?>
<svg xmlns="http://www.w3.org/2000/svg"
xmlns:xlink="http://www.w3.org/1999/xlink" xmlns:cml="http://www.xml-cml.org/schema" width="381.474" height="322.104" x="0" y="0" font-family="sans-serif" stroke="rgb(0,0,0)" stroke-width="1"  stroke-linecap="round">
<rect x="0%" y="0%" width="100%" height="100%" stroke-width="0" fill="rgb(255,255,255)"  />
<line x1="279.9" y1="144.0" x2="252.9" y2="144.0" stroke="rgb(0,0,0)"  stroke-width="1.0"/>
<line x1="212.9" y1="144.0" x2="226.9" y2="144.0" stroke="rgb(0,0,0)"  stroke-width="1.0"/>
<line x1="291.0" y1="214.3" x2="303.3" y2="176.3" stroke="rgb(0,0,0)"  stroke-width="1.0"/>
<line x1="242.9" y1="117.0" x2="242.9" y2="131.0" stroke="rgb(0,0,0)"  stroke-width="1.0"/>
<line x1="236.9" y1="117.0" x2="236.9" y2="131.0" stroke="rgb(0,0,0)"  stroke-width="1.0"/>
<line x1="236.9" y1="171.0" x2="236.9" y2="157.0" stroke="rgb(0,0,0)"  stroke-width="1.0"/>
<line x1="242.9" y1="171.0" x2="242.9" y2="157.0" stroke="rgb(0,0,0)"  stroke-width="1.0"/>
<line x1="80.0" y1="74.7" x2="120.0" y2="74.7" stroke="rgb(0,0,0)"  stroke-width="1.0"/>
<line x1="53.0" y1="74.7" x2="80.0" y2="74.7" stroke="rgb(0,0,0)"  stroke-width="1.0"/>
<line x1="53.0" y1="70.5" x2="80.0" y2="70.5" stroke="rgb(0,0,0)"  stroke-width="1.0"/>
<line x1="53.0" y1="78.9" x2="80.0" y2="78.9" stroke="rgb(0,0,0)"  stroke-width="1.0"/>
<line x1="179.9" y1="109.3" x2="193.4" y2="132.7" stroke="rgb(0,0,0)"  stroke-width="1.0"/>
<line x1="263.9" y1="216.9" x2="290.4" y2="211.3" stroke="rgb(0,0,0)"  stroke-width="1.0"/>
<line x1="265.2" y1="222.8" x2="291.6" y2="217.2" stroke="rgb(0,0,0)"  stroke-width="1.0"/>
<line x1="309.1" y1="234.3" x2="291.0" y2="214.3" stroke="rgb(0,0,0)"  stroke-width="1.0"/>
<line x1="309.4" y1="269.8" x2="313.8" y2="256.3" stroke="rgb(0,0,0)"  stroke-width="1.0"/>
<line x1="279.9" y1="144.0" x2="303.3" y2="111.7" stroke="rgb(0,0,0)"  stroke-width="1.0"/>
<line x1="303.3" y1="111.7" x2="341.5" y2="124.0" stroke="rgb(0,0,0)"  stroke-width="1.0"/>
<line x1="306.8" y1="120.4" x2="333.6" y2="129.0" stroke="rgb(0,0,0)"  stroke-width="1.0"/>
<line x1="341.5" y1="124.0" x2="341.5" y2="151.0" stroke="rgb(0,0,0)"  stroke-width="1.0"/>
<line x1="329.1" y1="168.0" x2="303.3" y2="176.3" stroke="rgb(0,0,0)"  stroke-width="1.0"/>
<line x1="303.3" y1="176.3" x2="279.9" y2="144.0" stroke="rgb(0,0,0)"  stroke-width="1.0"/>
<line x1="305.6" y1="167.2" x2="289.2" y2="144.6" stroke="rgb(0,0,0)"  stroke-width="1.0"/>
<line x1="179.9" y1="109.3" x2="140.0" y2="109.3" stroke="rgb(0,0,0)"  stroke-width="1.0"/>
<line x1="173.9" y1="102.1" x2="146.0" y2="102.1" stroke="rgb(0,0,0)"  stroke-width="1.0"/>
<line x1="140.0" y1="109.3" x2="120.0" y2="74.7" stroke="rgb(0,0,0)"  stroke-width="1.0"/>
<line x1="120.0" y1="74.7" x2="140.0" y2="40.0" stroke="rgb(0,0,0)"  stroke-width="1.0"/>
<line x1="129.2" y1="73.1" x2="143.2" y2="48.8" stroke="rgb(0,0,0)"  stroke-width="1.0"/>
<line x1="140.0" y1="40.0" x2="179.9" y2="40.0" stroke="rgb(0,0,0)"  stroke-width="1.0"/>
<line x1="179.9" y1="40.0" x2="199.9" y2="74.7" stroke="rgb(0,0,0)"  stroke-width="1.0"/>
<line x1="176.7" y1="48.8" x2="190.7" y2="73.1" stroke="rgb(0,0,0)"  stroke-width="1.0"/>
<line x1="199.9" y1="74.7" x2="179.9" y2="109.3" stroke="rgb(0,0,0)"  stroke-width="1.0"/>
<text x="233.903866" y="151.988780" fill="rgb(178,178,0)"  stroke="rgb(178,178,0)" stroke-width="1" font-size="16" >S</text>
<text x="193.923093" y="151.988780" fill="rgb(12,12,255)"  stroke="rgb(12,12,255)" stroke-width="1" font-size="16" >N</text>
<text x="193.923093" y="167.988780" fill="rgb(12,12,255)"  stroke="rgb(12,12,255)" stroke-width="1" font-size="16" >H</text>
<text x="335.474415" y="171.979166" fill="rgb(178,178,0)"  stroke="rgb(178,178,0)" stroke-width="1" font-size="16" >S</text>
<text x="233.903866" y="112.008007" fill="rgb(255,12,12)"  stroke="rgb(255,12,12)" stroke-width="1" font-size="16" >O</text>
<text x="233.903866" y="191.969553" fill="rgb(255,12,12)"  stroke="rgb(255,12,12)" stroke-width="1" font-size="16" >O</text>
<text x="22.000000" y="82.727542" fill="rgb(102,102,102)"  stroke="rgb(102,102,102)" stroke-width="1" font-size="16" >HC</text>
<text x="245.820560" y="230.535249" fill="rgb(255,12,12)"  stroke="rgb(255,12,12)" stroke-width="1" font-size="16" >O</text>
<text x="311.849413" y="251.940713" fill="rgb(255,12,12)"  stroke="rgb(255,12,12)" stroke-width="1" font-size="16" >O</text>
<text x="279.326950" y="290.104178" fill="rgb(102,102,102)"  stroke="rgb(102,102,102)" stroke-width="1" font-size="16" >H</text>
<text x="291.326950" y="293.784178" fill="rgb(102,102,102)"  stroke="rgb(102,102,102)" stroke-width="1" font-size="13" >3</text>
<text x="297.826950" y="290.104178" fill="rgb(102,102,102)"  stroke="rgb(102,102,102)" stroke-width="1" font-size="16" >C</text>
<text font-size="18.000000" fill ="black" font-family="sans-serif"
x="10.000000" y="20.000000" ></text>
<title> - OBDepict</title>
</svg>
