<?xml version="1.0"?>
<svg xmlns="http://www.w3.org/2000/svg"
xmlns:xlink="http://www.w3.org/1999/xlink" xmlns:cml="http://www.xml-cml.org/schema" width="441.096" height="327.183" x="0" y="0" font-family="sans-serif" stroke="rgb(0,0,0)" stroke-width="1"  stroke-linecap="round">
<rect x="0%" y="0%" width="100%" height="100%" stroke-width="0" fill="rgb(255,255,255)"  />
<line x1="151.4" y1="135.1" x2="196.0" y2="105.3" stroke="rgb(0,0,0)"  stroke-width="1.0"/>
<line x1="151.4" y1="135.1" x2="142.4" y2="102.6" stroke="rgb(0,0,0)"  stroke-width="1.0"/>
<line x1="170.6" y1="166.9" x2="196.6" y2="170.5" stroke="rgb(0,0,0)"  stroke-width="1.0"/>
<line x1="169.8" y1="172.8" x2="195.8" y2="176.4" stroke="rgb(0,0,0)"  stroke-width="1.0"/>
<line x1="196.0" y1="105.3" x2="233.8" y2="124.8" stroke="rgb(0,0,0)"  stroke-width="1.0"/>
<line x1="144.9" y1="210.8" x2="149.4" y2="236.7" stroke="rgb(0,0,0)"  stroke-width="1.0"/>
<line x1="233.8" y1="124.8" x2="266.7" y2="103.3" stroke="rgb(0,0,0)"  stroke-width="1.0"/>
<line x1="236.8" y1="124.7" x2="237.7" y2="144.6" stroke="rgb(0,0,0)"  stroke-width="1.0"/>
<line x1="230.8" y1="124.9" x2="231.7" y2="144.9" stroke="rgb(0,0,0)"  stroke-width="1.0"/>
<line x1="149.4" y1="236.7" x2="119.2" y2="261.9" stroke="rgb(0,0,0)"  stroke-width="1.0"/>
<line x1="119.2" y1="261.9" x2="99.1" y2="278.8" stroke="rgb(0,0,0)"  stroke-width="1.0"/>
<line x1="121.9" y1="265.1" x2="101.8" y2="282.0" stroke="rgb(0,0,0)"  stroke-width="1.0"/>
<line x1="116.5" y1="258.7" x2="96.4" y2="275.6" stroke="rgb(0,0,0)"  stroke-width="1.0"/>
<line x1="332.9" y1="61.3" x2="366.4" y2="40.0" stroke="rgb(0,0,0)"  stroke-width="1.0"/>
<line x1="366.4" y1="40.0" x2="389.6" y2="52.1" stroke="rgb(0,0,0)"  stroke-width="1.0"/>
<line x1="151.4" y1="135.1" x2="112.7" y2="142.0" stroke="rgb(0,0,0)"  stroke-width="1.0"/>
<line x1="112.7" y1="142.0" x2="107.4" y2="180.5" stroke="rgb(0,0,0)"  stroke-width="1.0"/>
<line x1="119.0" y1="148.9" x2="115.4" y2="175.5" stroke="rgb(0,0,0)"  stroke-width="1.0"/>
<line x1="107.4" y1="180.5" x2="131.1" y2="192.2" stroke="rgb(0,0,0)"  stroke-width="1.0"/>
<line x1="151.8" y1="188.7" x2="170.2" y2="169.8" stroke="rgb(0,0,0)"  stroke-width="1.0"/>
<line x1="170.2" y1="169.8" x2="151.4" y2="135.1" stroke="rgb(0,0,0)"  stroke-width="1.0"/>
<line x1="70.7" y1="195.5" x2="107.4" y2="180.5" stroke="rgb(0,0,0)"  stroke-width="1.0"/>
<line x1="112.7" y1="142.0" x2="81.9" y2="117.4" stroke="rgb(0,0,0)"  stroke-width="1.0"/>
<line x1="81.9" y1="117.4" x2="45.6" y2="132.0" stroke="rgb(0,0,0)"  stroke-width="1.0"/>
<line x1="79.1" y1="126.3" x2="53.9" y2="136.5" stroke="rgb(0,0,0)"  stroke-width="1.0"/>
<line x1="45.6" y1="132.0" x2="40.0" y2="171.1" stroke="rgb(0,0,0)"  stroke-width="1.0"/>
<line x1="40.0" y1="171.1" x2="70.7" y2="195.5" stroke="rgb(0,0,0)"  stroke-width="1.0"/>
<line x1="49.2" y1="169.2" x2="70.5" y2="186.1" stroke="rgb(0,0,0)"  stroke-width="1.0"/>
<line x1="266.7" y1="103.3" x2="301.5" y2="121.6" stroke="rgb(0,0,0)"  stroke-width="1.0"/>
<line x1="301.5" y1="121.6" x2="334.9" y2="100.6" stroke="rgb(0,0,0)"  stroke-width="1.0"/>
<line x1="302.7" y1="112.3" x2="326.0" y2="97.7" stroke="rgb(0,0,0)"  stroke-width="1.0"/>
<line x1="334.9" y1="100.6" x2="332.9" y2="61.3" stroke="rgb(0,0,0)"  stroke-width="1.0"/>
<line x1="332.9" y1="61.3" x2="298.2" y2="42.9" stroke="rgb(0,0,0)"  stroke-width="1.0"/>
<line x1="324.3" y1="64.9" x2="300.1" y2="52.1" stroke="rgb(0,0,0)"  stroke-width="1.0"/>
<line x1="298.2" y1="42.9" x2="265.3" y2="64.4" stroke="rgb(0,0,0)"  stroke-width="1.0"/>
<line x1="265.3" y1="64.4" x2="266.7" y2="103.3" stroke="rgb(0,0,0)"  stroke-width="1.0"/>
<line x1="272.7" y1="70.1" x2="273.7" y2="97.0" stroke="rgb(0,0,0)"  stroke-width="1.0"/>
<text x="120.907525" y="98.087541" fill="rgb(255,12,12)"  stroke="rgb(255,12,12)" stroke-width="1" font-size="16" >HO</text>
<text x="136.705429" y="206.034745" fill="rgb(12,12,255)"  stroke="rgb(12,12,255)" stroke-width="1" font-size="16" >N</text>
<text x="203.061533" y="183.252085" fill="rgb(255,12,12)"  stroke="rgb(255,12,12)" stroke-width="1" font-size="16" >O</text>
<text x="229.284702" y="165.711201" fill="rgb(255,12,12)"  stroke="rgb(255,12,12)" stroke-width="1" font-size="16" >O</text>
<text x="71.182143" y="295.183038" fill="rgb(102,102,102)"  stroke="rgb(102,102,102)" stroke-width="1" font-size="16" >HC</text>
<text x="397.096335" y="66.079358" fill="rgb(102,102,102)"  stroke="rgb(102,102,102)" stroke-width="1" font-size="16" >CH</text>
<text x="421.096335" y="69.759358" fill="rgb(102,102,102)"  stroke="rgb(102,102,102)" stroke-width="1" font-size="13" >3</text>
<text font-size="18.000000" fill ="black" font-family="sans-serif"
x="10.000000" y="20.000000" ></text>
<title> - OBDepict</title>
</svg>
