<?xml version="1.0"?>
<svg xmlns="http://www.w3.org/2000/svg"
xmlns:xlink="http://www.w3.org/1999/xlink" xmlns:cml="http://www.xml-cml.org/schema" width="391.999" height="260.43" x="0" y="0" font-family="sans-serif" stroke="rgb(0,0,0)" stroke-width="1"  stroke-linecap="round">
<rect x="0%" y="0%" width="100%" height="100%" stroke-width="0" fill="rgb(255,255,255)"  />
<line x1="155.0" y1="145.9" x2="178.5" y2="159.1" stroke="rgb(0,0,0)"  stroke-width="1.0"/>
<line x1="141.6" y1="97.0" x2="164.8" y2="83.2" stroke="rgb(0,0,0)"  stroke-width="1.0"/>
<line x1="144.7" y1="102.2" x2="167.9" y2="88.3" stroke="rgb(0,0,0)"  stroke-width="1.0"/>
<line x1="178.5" y1="159.1" x2="213.0" y2="138.6" stroke="rgb(0,0,0)"  stroke-width="1.0"/>
<line x1="108.2" y1="80.0" x2="107.9" y2="53.0" stroke="rgb(0,0,0)"  stroke-width="1.0"/>
<line x1="213.0" y1="138.6" x2="236.5" y2="151.9" stroke="rgb(0,0,0)"  stroke-width="1.0"/>
<line x1="210.0" y1="138.7" x2="209.7" y2="111.7" stroke="rgb(0,0,0)"  stroke-width="1.0"/>
<line x1="216.0" y1="138.6" x2="215.7" y2="111.7" stroke="rgb(0,0,0)"  stroke-width="1.0"/>
<line x1="259.0" y1="151.6" x2="282.3" y2="137.8" stroke="rgb(0,0,0)"  stroke-width="1.0"/>
<line x1="282.3" y1="137.8" x2="317.1" y2="157.4" stroke="rgb(0,0,0)"  stroke-width="1.0"/>
<line x1="317.1" y1="157.4" x2="340.7" y2="170.6" stroke="rgb(0,0,0)"  stroke-width="1.0"/>
<line x1="319.2" y1="153.7" x2="342.7" y2="167.0" stroke="rgb(0,0,0)"  stroke-width="1.0"/>
<line x1="315.1" y1="161.1" x2="338.6" y2="174.3" stroke="rgb(0,0,0)"  stroke-width="1.0"/>
<line x1="109.2" y1="160.0" x2="74.3" y2="140.4" stroke="rgb(0,0,0)"  stroke-width="1.0"/>
<line x1="74.3" y1="140.4" x2="74.0" y2="113.4" stroke="rgb(0,0,0)"  stroke-width="1.0"/>
<line x1="85.0" y1="93.8" x2="108.2" y2="80.0" stroke="rgb(0,0,0)"  stroke-width="1.0"/>
<line x1="108.2" y1="80.0" x2="143.1" y2="99.6" stroke="rgb(0,0,0)"  stroke-width="1.0"/>
<line x1="143.1" y1="99.6" x2="143.5" y2="126.6" stroke="rgb(0,0,0)"  stroke-width="1.0"/>
<line x1="132.5" y1="146.2" x2="109.2" y2="160.0" stroke="rgb(0,0,0)"  stroke-width="1.0"/>
<line x1="109.2" y1="160.0" x2="109.6" y2="200.0" stroke="rgb(0,0,0)"  stroke-width="1.0"/>
<line x1="102.1" y1="166.1" x2="102.4" y2="194.1" stroke="rgb(0,0,0)"  stroke-width="1.0"/>
<line x1="109.6" y1="200.0" x2="75.3" y2="220.4" stroke="rgb(0,0,0)"  stroke-width="1.0"/>
<line x1="75.3" y1="220.4" x2="40.4" y2="200.7" stroke="rgb(0,0,0)"  stroke-width="1.0"/>
<line x1="73.6" y1="211.2" x2="49.1" y2="197.4" stroke="rgb(0,0,0)"  stroke-width="1.0"/>
<line x1="40.4" y1="200.7" x2="40.0" y2="160.7" stroke="rgb(0,0,0)"  stroke-width="1.0"/>
<line x1="40.0" y1="160.7" x2="74.3" y2="140.4" stroke="rgb(0,0,0)"  stroke-width="1.0"/>
<line x1="48.8" y1="163.9" x2="72.8" y2="149.6" stroke="rgb(0,0,0)"  stroke-width="1.0"/>
<text x="137.692465" y="147.554081" fill="rgb(12,12,255)"  stroke="rgb(12,12,255)" stroke-width="1" font-size="16" >N</text>
<text x="67.854210" y="108.450480" fill="rgb(255,12,12)"  stroke="rgb(255,12,12)" stroke-width="1" font-size="16" >O</text>
<text x="171.546675" y="87.103601" fill="rgb(255,12,12)"  stroke="rgb(255,12,12)" stroke-width="1" font-size="16" >O</text>
<text x="81.805450" y="48.000000" fill="rgb(102,102,102)"  stroke="rgb(102,102,102)" stroke-width="1" font-size="16" >H</text>
<text x="93.805450" y="51.680000" fill="rgb(102,102,102)"  stroke="rgb(102,102,102)" stroke-width="1" font-size="13" >3</text>
<text x="100.305450" y="48.000000" fill="rgb(102,102,102)"  stroke="rgb(102,102,102)" stroke-width="1" font-size="16" >C</text>
<text x="241.845829" y="166.232601" fill="rgb(12,12,255)"  stroke="rgb(12,12,255)" stroke-width="1" font-size="16" >N</text>
<text x="241.845829" y="182.232601" fill="rgb(12,12,255)"  stroke="rgb(12,12,255)" stroke-width="1" font-size="16" >H</text>
<text x="206.511892" y="106.703917" fill="rgb(255,12,12)"  stroke="rgb(255,12,12)" stroke-width="1" font-size="16" >O</text>
<text x="345.999192" y="184.998448" fill="rgb(102,102,102)"  stroke="rgb(102,102,102)" stroke-width="1" font-size="16" >CH</text>
<text font-size="18.000000" fill ="black" font-family="sans-serif"
x="10.000000" y="20.000000" ></text>
<title> - OBDepict</title>
</svg>
