<?xml version="1.0"?>
<svg xmlns="http://www.w3.org/2000/svg"
xmlns:xlink="http://www.w3.org/1999/xlink" xmlns:cml="http://www.xml-cml.org/schema" width="391.442" height="204.355" x="0" y="0" font-family="sans-serif" stroke="rgb(0,0,0)" stroke-width="1"  stroke-linecap="round">
<rect x="0%" y="0%" width="100%" height="100%" stroke-width="0" fill="rgb(255,255,255)"  />
<line x1="76.3" y1="146.1" x2="52.8" y2="159.4" stroke="rgb(0,0,0)"  stroke-width="1.0"/>
<line x1="73.4" y1="140.8" x2="49.8" y2="154.2" stroke="rgb(0,0,0)"  stroke-width="1.0"/>
<line x1="213.1" y1="144.0" x2="236.7" y2="157.7" stroke="rgb(0,0,0)"  stroke-width="1.0"/>
<line x1="259.2" y1="157.7" x2="282.5" y2="144.2" stroke="rgb(0,0,0)"  stroke-width="1.0"/>
<line x1="282.5" y1="144.2" x2="317.0" y2="164.4" stroke="rgb(0,0,0)"  stroke-width="1.0"/>
<line x1="317.0" y1="164.4" x2="340.2" y2="150.9" stroke="rgb(0,0,0)"  stroke-width="1.0"/>
<line x1="314.8" y1="160.7" x2="338.1" y2="147.2" stroke="rgb(0,0,0)"  stroke-width="1.0"/>
<line x1="319.1" y1="168.0" x2="342.3" y2="154.5" stroke="rgb(0,0,0)"  stroke-width="1.0"/>
<line x1="62.0" y1="40.0" x2="45.3" y2="76.5" stroke="rgb(0,0,0)"  stroke-width="1.0"/>
<line x1="45.3" y1="76.5" x2="75.0" y2="103.8" stroke="rgb(0,0,0)"  stroke-width="1.0"/>
<line x1="75.0" y1="103.8" x2="109.9" y2="83.8" stroke="rgb(0,0,0)"  stroke-width="1.0"/>
<line x1="76.7" y1="94.6" x2="101.1" y2="80.6" stroke="rgb(0,0,0)"  stroke-width="1.0"/>
<line x1="109.9" y1="83.8" x2="102.0" y2="44.4" stroke="rgb(0,0,0)"  stroke-width="1.0"/>
<line x1="102.0" y1="44.4" x2="62.0" y2="40.0" stroke="rgb(0,0,0)"  stroke-width="1.0"/>
<line x1="75.0" y1="103.8" x2="74.8" y2="143.4" stroke="rgb(0,0,0)"  stroke-width="1.0"/>
<line x1="74.8" y1="143.4" x2="98.3" y2="157.1" stroke="rgb(0,0,0)"  stroke-width="1.0"/>
<line x1="120.8" y1="157.2" x2="144.0" y2="144.0" stroke="rgb(0,0,0)"  stroke-width="1.0"/>
<line x1="144.0" y1="144.0" x2="144.2" y2="103.8" stroke="rgb(0,0,0)"  stroke-width="1.0"/>
<line x1="136.8" y1="138.0" x2="136.9" y2="109.8" stroke="rgb(0,0,0)"  stroke-width="1.0"/>
<line x1="144.2" y1="103.8" x2="109.9" y2="83.8" stroke="rgb(0,0,0)"  stroke-width="1.0"/>
<line x1="144.2" y1="103.8" x2="178.3" y2="83.8" stroke="rgb(0,0,0)"  stroke-width="1.0"/>
<line x1="178.3" y1="83.8" x2="213.1" y2="103.8" stroke="rgb(0,0,0)"  stroke-width="1.0"/>
<line x1="179.9" y1="93.1" x2="204.4" y2="107.1" stroke="rgb(0,0,0)"  stroke-width="1.0"/>
<line x1="213.1" y1="103.8" x2="213.1" y2="144.0" stroke="rgb(0,0,0)"  stroke-width="1.0"/>
<line x1="213.1" y1="144.0" x2="178.3" y2="163.8" stroke="rgb(0,0,0)"  stroke-width="1.0"/>
<line x1="204.4" y1="140.7" x2="180.0" y2="154.6" stroke="rgb(0,0,0)"  stroke-width="1.0"/>
<line x1="178.3" y1="163.8" x2="144.0" y2="144.0" stroke="rgb(0,0,0)"  stroke-width="1.0"/>
<text x="103.513748" y="171.620537" fill="rgb(255,12,12)"  stroke="rgb(255,12,12)" stroke-width="1" font-size="16" >O</text>
<text x="34.000000" y="171.255674" fill="rgb(255,12,12)"  stroke="rgb(255,12,12)" stroke-width="1" font-size="16" >O</text>
<text x="241.991517" y="172.170264" fill="rgb(255,12,12)"  stroke="rgb(255,12,12)" stroke-width="1" font-size="16" >O</text>
<text x="345.442413" y="152.360622" fill="rgb(102,102,102)"  stroke="rgb(102,102,102)" stroke-width="1" font-size="16" >CH</text>
<text font-size="18.000000" fill ="black" font-family="sans-serif"
x="10.000000" y="20.000000" ></text>
<title> - OBDepict</title>
</svg>
