<?xml version="1.0"?>
<svg xmlns="http://www.w3.org/2000/svg"
xmlns:xlink="http://www.w3.org/1999/xlink" xmlns:cml="http://www.xml-cml.org/schema" width="354.722" height="409.186" x="0" y="0" font-family="sans-serif" stroke="rgb(0,0,0)" stroke-width="1"  stroke-linecap="round">
<rect x="0%" y="0%" width="100%" height="100%" stroke-width="0" fill="rgb(255,255,255)"  />
<line x1="155.3" y1="289.3" x2="117.2" y2="301.4" stroke="rgb(0,0,0)"  stroke-width="1.0"/>
<line x1="153.5" y1="283.6" x2="115.3" y2="295.7" stroke="rgb(0,0,0)"  stroke-width="1.0"/>
<line x1="162.6" y1="247.2" x2="154.4" y2="286.5" stroke="rgb(0,0,0)"  stroke-width="1.0"/>
<line x1="235.9" y1="79.3" x2="227.0" y2="118.5" stroke="rgb(0,0,0)"  stroke-width="1.0"/>
<line x1="241.6" y1="52.7" x2="235.9" y2="79.3" stroke="rgb(0,0,0)"  stroke-width="1.0"/>
<line x1="245.7" y1="53.6" x2="240.0" y2="80.2" stroke="rgb(0,0,0)"  stroke-width="1.0"/>
<line x1="237.5" y1="51.8" x2="231.7" y2="78.4" stroke="rgb(0,0,0)"  stroke-width="1.0"/>
<line x1="45.3" y1="356.9" x2="61.6" y2="334.9" stroke="rgb(0,0,0)"  stroke-width="1.0"/>
<line x1="50.1" y1="360.5" x2="66.4" y2="338.5" stroke="rgb(0,0,0)"  stroke-width="1.0"/>
<line x1="86.7" y1="248.4" x2="87.0" y2="275.4" stroke="rgb(0,0,0)"  stroke-width="1.0"/>
<line x1="80.7" y1="248.5" x2="81.0" y2="275.4" stroke="rgb(0,0,0)"  stroke-width="1.0"/>
<line x1="277.0" y1="210.2" x2="246.9" y2="183.4" stroke="rgb(0,0,0)"  stroke-width="1.0"/>
<line x1="303.3" y1="204.8" x2="277.9" y2="213.1" stroke="rgb(0,0,0)"  stroke-width="1.0"/>
<line x1="301.4" y1="199.1" x2="276.1" y2="207.4" stroke="rgb(0,0,0)"  stroke-width="1.0"/>
<line x1="121.9" y1="162.9" x2="141.5" y2="181.2" stroke="rgb(0,0,0)"  stroke-width="1.0"/>
<line x1="185.7" y1="142.8" x2="179.6" y2="169.1" stroke="rgb(0,0,0)"  stroke-width="1.0"/>
<line x1="246.9" y1="183.4" x2="209.2" y2="196.3" stroke="rgb(0,0,0)"  stroke-width="1.0"/>
<line x1="227.0" y1="118.5" x2="201.1" y2="126.4" stroke="rgb(0,0,0)"  stroke-width="1.0"/>
<line x1="74.5" y1="166.5" x2="100.1" y2="158.0" stroke="rgb(0,0,0)"  stroke-width="1.0"/>
<line x1="54.8" y1="148.3" x2="74.5" y2="166.5" stroke="rgb(0,0,0)"  stroke-width="1.0"/>
<line x1="55.5" y1="310.9" x2="64.0" y2="336.7" stroke="rgb(0,0,0)"  stroke-width="1.0"/>
<line x1="64.0" y1="336.7" x2="90.9" y2="336.7" stroke="rgb(0,0,0)"  stroke-width="1.0"/>
<line x1="107.9" y1="324.3" x2="116.2" y2="298.6" stroke="rgb(0,0,0)"  stroke-width="1.0"/>
<line x1="116.2" y1="298.6" x2="84.0" y2="275.4" stroke="rgb(0,0,0)"  stroke-width="1.0"/>
<line x1="84.0" y1="275.4" x2="62.1" y2="291.0" stroke="rgb(0,0,0)"  stroke-width="1.0"/>
<line x1="141.5" y1="181.2" x2="179.6" y2="169.1" stroke="rgb(0,0,0)"  stroke-width="1.0"/>
<line x1="149.3" y1="186.2" x2="176.0" y2="177.8" stroke="rgb(0,0,0)"  stroke-width="1.0"/>
<line x1="179.6" y1="169.1" x2="209.2" y2="196.3" stroke="rgb(0,0,0)"  stroke-width="1.0"/>
<line x1="209.2" y1="196.3" x2="200.8" y2="235.1" stroke="rgb(0,0,0)"  stroke-width="1.0"/>
<line x1="200.9" y1="200.6" x2="195.0" y2="227.7" stroke="rgb(0,0,0)"  stroke-width="1.0"/>
<line x1="200.8" y1="235.1" x2="162.6" y2="247.2" stroke="rgb(0,0,0)"  stroke-width="1.0"/>
<line x1="162.6" y1="247.2" x2="133.0" y2="220.3" stroke="rgb(0,0,0)"  stroke-width="1.0"/>
<line x1="163.0" y1="237.8" x2="142.3" y2="219.0" stroke="rgb(0,0,0)"  stroke-width="1.0"/>
<line x1="133.0" y1="220.3" x2="141.5" y2="181.2" stroke="rgb(0,0,0)"  stroke-width="1.0"/>
<text x="33.495013" y="306.586879" fill="rgb(12,12,255)"  stroke="rgb(12,12,255)" stroke-width="1" font-size="16" >HN</text>
<text x="97.937675" y="344.712893" fill="rgb(12,12,255)"  stroke="rgb(12,12,255)" stroke-width="1" font-size="16" >N</text>
<text x="97.937675" y="360.712893" fill="rgb(12,12,255)"  stroke="rgb(12,12,255)" stroke-width="1" font-size="16" >H</text>
<text x="238.326153" y="48.000000" fill="rgb(102,102,102)"  stroke="rgb(102,102,102)" stroke-width="1" font-size="16" >CH</text>
<text x="34.000000" y="377.185940" fill="rgb(255,12,12)"  stroke="rgb(255,12,12)" stroke-width="1" font-size="16" >O</text>
<text x="77.565662" y="243.454000" fill="rgb(255,12,12)"  stroke="rgb(255,12,12)" stroke-width="1" font-size="16" >O</text>
<text x="310.721591" y="205.934008" fill="rgb(102,102,102)"  stroke="rgb(102,102,102)" stroke-width="1" font-size="16" >CH</text>
<text x="334.721591" y="209.614008" fill="rgb(102,102,102)"  stroke="rgb(102,102,102)" stroke-width="1" font-size="13" >2</text>
<text x="106.407429" y="161.965948" fill="rgb(255,12,12)"  stroke="rgb(255,12,12)" stroke-width="1" font-size="16" >O</text>
<text x="182.654609" y="138.161430" fill="rgb(255,12,12)"  stroke="rgb(255,12,12)" stroke-width="1" font-size="16" >O</text>
<text x="19.240872" y="147.440829" fill="rgb(102,102,102)"  stroke="rgb(102,102,102)" stroke-width="1" font-size="16" >H</text>
<text x="31.240872" y="151.120829" fill="rgb(102,102,102)"  stroke="rgb(102,102,102)" stroke-width="1" font-size="13" >3</text>
<text x="37.740872" y="147.440829" fill="rgb(102,102,102)"  stroke="rgb(102,102,102)" stroke-width="1" font-size="16" >C</text>
<text font-size="18.000000" fill ="black" font-family="sans-serif"
x="10.000000" y="20.000000" ></text>
<title> - OBDepict</title>
</svg>
