<?xml version="1.0"?>
<svg xmlns="http://www.w3.org/2000/svg"
xmlns:xlink="http://www.w3.org/1999/xlink" xmlns:cml="http://www.xml-cml.org/schema" width="285.396" height="210.087" x="0" y="0" font-family="sans-serif" stroke="rgb(0,0,0)" stroke-width="1"  stroke-linecap="round">
<rect x="0%" y="0%" width="100%" height="100%" stroke-width="0" fill="rgb(255,255,255)"  />
<line x1="208.7" y1="131.3" x2="179.8" y2="147.1" stroke="rgb(0,0,0)"  stroke-width="1.0"/>
<line x1="232.4" y1="131.3" x2="208.7" y2="131.3" stroke="rgb(0,0,0)"  stroke-width="1.0"/>
<line x1="232.4" y1="135.5" x2="208.7" y2="135.5" stroke="rgb(0,0,0)"  stroke-width="1.0"/>
<line x1="232.4" y1="127.1" x2="208.7" y2="127.1" stroke="rgb(0,0,0)"  stroke-width="1.0"/>
<line x1="179.8" y1="147.1" x2="159.5" y2="135.7" stroke="rgb(0,0,0)"  stroke-width="1.0"/>
<line x1="167.9" y1="91.1" x2="148.1" y2="99.5" stroke="rgb(0,0,0)"  stroke-width="1.0"/>
<line x1="40.0" y1="77.3" x2="65.9" y2="94.3" stroke="rgb(0,0,0)"  stroke-width="1.0"/>
<line x1="87.6" y1="94.3" x2="113.2" y2="77.3" stroke="rgb(0,0,0)"  stroke-width="1.0"/>
<line x1="113.2" y1="77.3" x2="113.2" y2="40.0" stroke="rgb(0,0,0)"  stroke-width="1.0"/>
<line x1="106.0" y1="71.3" x2="106.0" y2="46.0" stroke="rgb(0,0,0)"  stroke-width="1.0"/>
<line x1="113.2" y1="40.0" x2="40.0" y2="40.0" stroke="rgb(0,0,0)"  stroke-width="1.0"/>
<line x1="40.0" y1="40.0" x2="40.0" y2="77.3" stroke="rgb(0,0,0)"  stroke-width="1.0"/>
<line x1="47.2" y1="46.0" x2="47.2" y2="71.3" stroke="rgb(0,0,0)"  stroke-width="1.0"/>
<line x1="148.1" y1="119.6" x2="148.1" y2="99.5" stroke="rgb(0,0,0)"  stroke-width="1.0"/>
<line x1="140.9" y1="116.5" x2="140.9" y2="105.5" stroke="rgb(0,0,0)"  stroke-width="1.0"/>
<line x1="148.1" y1="99.5" x2="113.2" y2="77.3" stroke="rgb(0,0,0)"  stroke-width="1.0"/>
<line x1="76.4" y1="114.4" x2="76.1" y2="129.4" stroke="rgb(0,0,0)"  stroke-width="1.0"/>
<line x1="76.1" y1="129.4" x2="110.1" y2="151.8" stroke="rgb(0,0,0)"  stroke-width="1.0"/>
<line x1="85.1" y1="126.7" x2="109.1" y2="142.5" stroke="rgb(0,0,0)"  stroke-width="1.0"/>
<line x1="110.1" y1="151.8" x2="136.9" y2="136.0" stroke="rgb(0,0,0)"  stroke-width="1.0"/>
<text x="152.891694" y="125.387294" fill="rgb(12,12,255)"  stroke="rgb(12,12,255)" stroke-width="1" font-size="16" >+</text>
<text x="142.091694" y="137.419294" fill="rgb(12,12,255)"  stroke="rgb(12,12,255)" stroke-width="1" font-size="16" >N</text>
<text x="70.724650" y="109.408431" fill="rgb(12,12,255)"  stroke="rgb(12,12,255)" stroke-width="1" font-size="16" >N</text>
<text x="239.396400" y="139.284271" fill="rgb(102,102,102)"  stroke="rgb(102,102,102)" stroke-width="1" font-size="16" >CH</text>
<text x="175.837038" y="94.058587" fill="rgb(102,102,102)"  stroke="rgb(102,102,102)" stroke-width="1" font-size="16" >CH</text>
<text x="199.837038" y="97.738587" fill="rgb(102,102,102)"  stroke="rgb(102,102,102)" stroke-width="1" font-size="13" >3</text>
<text x="149.502041" y="158.620650" fill="rgb(165,40,40)"  stroke="rgb(165,40,40)" stroke-width="1" font-size="13" >_</text>
<text x="139.602041" y="178.086650" fill="rgb(165,40,40)"  stroke="rgb(165,40,40)" stroke-width="1" font-size="16" >Br</text>
<text font-size="18.000000" fill ="black" font-family="sans-serif"
x="10.000000" y="20.000000" ></text>
<title> - OBDepict</title>
</svg>
