<?xml version="1.0"?>
<svg xmlns="http://www.w3.org/2000/svg"
xmlns:xlink="http://www.w3.org/1999/xlink" xmlns:cml="http://www.xml-cml.org/schema" width="350.678" height="300.787" x="0" y="0" font-family="sans-serif" stroke="rgb(0,0,0)" stroke-width="1"  stroke-linecap="round">
<rect x="0%" y="0%" width="100%" height="100%" stroke-width="0" fill="rgb(255,255,255)"  />
<line x1="210.7" y1="144.0" x2="170.7" y2="144.0" stroke="rgb(0,0,0)"  stroke-width="1.0"/>
<line x1="290.7" y1="74.7" x2="270.7" y2="109.3" stroke="rgb(0,0,0)"  stroke-width="1.0"/>
<line x1="304.2" y1="51.3" x2="290.7" y2="74.7" stroke="rgb(0,0,0)"  stroke-width="1.0"/>
<line x1="307.8" y1="53.4" x2="294.3" y2="76.8" stroke="rgb(0,0,0)"  stroke-width="1.0"/>
<line x1="300.6" y1="49.2" x2="287.0" y2="72.7" stroke="rgb(0,0,0)"  stroke-width="1.0"/>
<line x1="221.6" y1="168.8" x2="208.1" y2="145.5" stroke="rgb(0,0,0)"  stroke-width="1.0"/>
<line x1="226.8" y1="165.8" x2="213.3" y2="142.5" stroke="rgb(0,0,0)"  stroke-width="1.0"/>
<line x1="224.2" y1="120.6" x2="210.7" y2="144.0" stroke="rgb(0,0,0)"  stroke-width="1.0"/>
<line x1="159.6" y1="214.3" x2="147.3" y2="176.3" stroke="rgb(0,0,0)"  stroke-width="1.0"/>
<line x1="270.7" y1="109.3" x2="243.7" y2="109.3" stroke="rgb(0,0,0)"  stroke-width="1.0"/>
<line x1="186.1" y1="219.9" x2="159.6" y2="214.3" stroke="rgb(0,0,0)"  stroke-width="1.0"/>
<line x1="207.1" y1="248.4" x2="202.8" y2="235.0" stroke="rgb(0,0,0)"  stroke-width="1.0"/>
<line x1="170.7" y1="144.0" x2="147.3" y2="176.3" stroke="rgb(0,0,0)"  stroke-width="1.0"/>
<line x1="161.3" y1="144.7" x2="145.0" y2="167.3" stroke="rgb(0,0,0)"  stroke-width="1.0"/>
<line x1="147.3" y1="176.3" x2="109.3" y2="164.0" stroke="rgb(0,0,0)"  stroke-width="1.0"/>
<line x1="109.3" y1="164.0" x2="109.3" y2="124.0" stroke="rgb(0,0,0)"  stroke-width="1.0"/>
<line x1="116.5" y1="158.0" x2="116.5" y2="130.0" stroke="rgb(0,0,0)"  stroke-width="1.0"/>
<line x1="109.3" y1="124.0" x2="134.9" y2="115.6" stroke="rgb(0,0,0)"  stroke-width="1.0"/>
<line x1="154.9" y1="122.1" x2="170.7" y2="144.0" stroke="rgb(0,0,0)"  stroke-width="1.0"/>
<line x1="74.5" y1="184.0" x2="109.3" y2="164.0" stroke="rgb(0,0,0)"  stroke-width="1.0"/>
<line x1="109.3" y1="124.0" x2="74.5" y2="104.0" stroke="rgb(0,0,0)"  stroke-width="1.0"/>
<line x1="74.5" y1="104.0" x2="40.0" y2="124.0" stroke="rgb(0,0,0)"  stroke-width="1.0"/>
<line x1="73.0" y1="113.3" x2="48.8" y2="127.3" stroke="rgb(0,0,0)"  stroke-width="1.0"/>
<line x1="40.0" y1="124.0" x2="40.0" y2="164.0" stroke="rgb(0,0,0)"  stroke-width="1.0"/>
<line x1="40.0" y1="164.0" x2="74.5" y2="184.0" stroke="rgb(0,0,0)"  stroke-width="1.0"/>
<line x1="48.8" y1="160.8" x2="73.0" y2="174.8" stroke="rgb(0,0,0)"  stroke-width="1.0"/>
<text x="141.261880" y="119.507920" fill="rgb(255,12,12)"  stroke="rgb(255,12,12)" stroke-width="1" font-size="16" >O</text>
<text x="304.678082" y="48.000000" fill="rgb(102,102,102)"  stroke="rgb(102,102,102)" stroke-width="1" font-size="16" >CH</text>
<text x="224.686171" y="186.570229" fill="rgb(255,12,12)"  stroke="rgb(255,12,12)" stroke-width="1" font-size="16" >O</text>
<text x="224.686171" y="117.287539" fill="rgb(12,12,255)"  stroke="rgb(12,12,255)" stroke-width="1" font-size="16" >N</text>
<text x="224.686171" y="101.287539" fill="rgb(12,12,255)"  stroke="rgb(12,12,255)" stroke-width="1" font-size="16" >H</text>
<text x="192.771823" y="230.609412" fill="rgb(255,12,12)"  stroke="rgb(255,12,12)" stroke-width="1" font-size="16" >O</text>
<text x="207.090577" y="268.787369" fill="rgb(102,102,102)"  stroke="rgb(102,102,102)" stroke-width="1" font-size="16" >CH</text>
<text x="231.090577" y="272.467369" fill="rgb(102,102,102)"  stroke="rgb(102,102,102)" stroke-width="1" font-size="13" >3</text>
<text font-size="18.000000" fill ="black" font-family="sans-serif"
x="10.000000" y="20.000000" ></text>
<title> - OBDepict</title>
</svg>
