<?xml version="1.0"?>
<svg xmlns="http://www.w3.org/2000/svg"
xmlns:xlink="http://www.w3.org/1999/xlink" xmlns:cml="http://www.xml-cml.org/schema" width="413.798" height="199.927" x="0" y="0" font-family="sans-serif" stroke="rgb(0,0,0)" stroke-width="1"  stroke-linecap="round">
<rect x="0%" y="0%" width="100%" height="100%" stroke-width="0" fill="rgb(255,255,255)"  />
<line x1="165.9" y1="100.0" x2="189.3" y2="86.5" stroke="rgb(0,0,0)"  stroke-width="1.0"/>
<line x1="304.5" y1="100.0" x2="327.9" y2="86.5" stroke="rgb(0,0,0)"  stroke-width="1.0"/>
<line x1="68.6" y1="71.8" x2="96.6" y2="100.0" stroke="rgb(0,0,0)"  stroke-width="1.0"/>
<line x1="211.8" y1="86.5" x2="235.2" y2="100.0" stroke="rgb(0,0,0)"  stroke-width="1.0"/>
<line x1="49.2" y1="52.5" x2="68.6" y2="71.8" stroke="rgb(0,0,0)"  stroke-width="1.0"/>
<line x1="52.2" y1="49.5" x2="71.6" y2="68.8" stroke="rgb(0,0,0)"  stroke-width="1.0"/>
<line x1="46.3" y1="55.5" x2="65.7" y2="74.7" stroke="rgb(0,0,0)"  stroke-width="1.0"/>
<line x1="362.5" y1="93.5" x2="350.4" y2="86.5" stroke="rgb(0,0,0)"  stroke-width="1.0"/>
<line x1="342.2" y1="53.0" x2="342.2" y2="67.0" stroke="rgb(0,0,0)"  stroke-width="1.0"/>
<line x1="336.2" y1="53.0" x2="336.2" y2="67.0" stroke="rgb(0,0,0)"  stroke-width="1.0"/>
<line x1="142.5" y1="86.5" x2="165.9" y2="100.0" stroke="rgb(0,0,0)"  stroke-width="1.0"/>
<line x1="96.6" y1="100.0" x2="120.0" y2="86.5" stroke="rgb(0,0,0)"  stroke-width="1.0"/>
<line x1="162.9" y1="126.9" x2="162.9" y2="100.0" stroke="rgb(0,0,0)"  stroke-width="1.0"/>
<line x1="168.9" y1="126.9" x2="168.9" y2="100.0" stroke="rgb(0,0,0)"  stroke-width="1.0"/>
<line x1="75.9" y1="117.4" x2="96.6" y2="100.0" stroke="rgb(0,0,0)"  stroke-width="1.0"/>
<line x1="112.2" y1="122.0" x2="96.6" y2="100.0" stroke="rgb(0,0,0)"  stroke-width="1.0"/>
<line x1="304.5" y1="100.0" x2="269.9" y2="80.0" stroke="rgb(0,0,0)"  stroke-width="1.0"/>
<line x1="269.9" y1="80.0" x2="235.2" y2="100.0" stroke="rgb(0,0,0)"  stroke-width="1.0"/>
<line x1="268.3" y1="89.2" x2="244.0" y2="103.2" stroke="rgb(0,0,0)"  stroke-width="1.0"/>
<line x1="235.2" y1="100.0" x2="235.2" y2="139.9" stroke="rgb(0,0,0)"  stroke-width="1.0"/>
<line x1="235.2" y1="139.9" x2="269.9" y2="159.9" stroke="rgb(0,0,0)"  stroke-width="1.0"/>
<line x1="244.0" y1="136.7" x2="268.3" y2="150.7" stroke="rgb(0,0,0)"  stroke-width="1.0"/>
<line x1="269.9" y1="159.9" x2="304.5" y2="139.9" stroke="rgb(0,0,0)"  stroke-width="1.0"/>
<line x1="304.5" y1="139.9" x2="304.5" y2="100.0" stroke="rgb(0,0,0)"  stroke-width="1.0"/>
<line x1="297.3" y1="133.9" x2="297.3" y2="106.0" stroke="rgb(0,0,0)"  stroke-width="1.0"/>
<text x="343.952320" y="75.941922" fill="rgb(12,12,255)"  stroke="rgb(12,12,255)" stroke-width="1" font-size="16" >+</text>
<text x="333.152320" y="87.973922" fill="rgb(12,12,255)"  stroke="rgb(12,12,255)" stroke-width="1" font-size="16" >N</text>
<text x="194.569595" y="87.973922" fill="rgb(12,12,255)"  stroke="rgb(12,12,255)" stroke-width="1" font-size="16" >N</text>
<text x="194.569595" y="71.973922" fill="rgb(12,12,255)"  stroke="rgb(12,12,255)" stroke-width="1" font-size="16" >H</text>
<text x="22.000000" y="51.330756" fill="rgb(102,102,102)"  stroke="rgb(102,102,102)" stroke-width="1" font-size="16" >HC</text>
<text x="378.598002" y="85.851306" fill="rgb(255,12,12)"  stroke="rgb(255,12,12)" stroke-width="1" font-size="16" >_</text>
<text x="367.798002" y="107.963306" fill="rgb(255,12,12)"  stroke="rgb(255,12,12)" stroke-width="1" font-size="16" >O</text>
<text x="333.152320" y="48.000000" fill="rgb(255,12,12)"  stroke="rgb(255,12,12)" stroke-width="1" font-size="16" >O</text>
<text x="125.278232" y="87.973922" fill="rgb(255,12,12)"  stroke="rgb(255,12,12)" stroke-width="1" font-size="16" >O</text>
<text x="159.923913" y="147.937228" fill="rgb(255,12,12)"  stroke="rgb(255,12,12)" stroke-width="1" font-size="16" >O</text>
<text x="39.986685" y="133.722123" fill="rgb(102,102,102)"  stroke="rgb(102,102,102)" stroke-width="1" font-size="16" >H</text>
<text x="51.986685" y="137.402123" fill="rgb(102,102,102)"  stroke="rgb(102,102,102)" stroke-width="1" font-size="13" >3</text>
<text x="58.486685" y="133.722123" fill="rgb(102,102,102)"  stroke="rgb(102,102,102)" stroke-width="1" font-size="16" >C</text>
<text x="115.729671" y="140.611504" fill="rgb(102,102,102)"  stroke="rgb(102,102,102)" stroke-width="1" font-size="16" >CH</text>
<text x="139.729671" y="144.291504" fill="rgb(102,102,102)"  stroke="rgb(102,102,102)" stroke-width="1" font-size="13" >3</text>
<text font-size="18.000000" fill ="black" font-family="sans-serif"
x="10.000000" y="20.000000" ></text>
<title> - OBDepict</title>
</svg>
