<?xml version="1.0"?>
<svg xmlns="http://www.w3.org/2000/svg"
xmlns:xlink="http://www.w3.org/1999/xlink" xmlns:cml="http://www.xml-cml.org/schema" width="417.418" height="237.993" x="0" y="0" font-family="sans-serif" stroke="rgb(0,0,0)" stroke-width="1"  stroke-linecap="round">
<rect x="0%" y="0%" width="100%" height="100%" stroke-width="0" fill="rgb(255,255,255)"  />
<line x1="204.0" y1="100.2" x2="204.0" y2="73.1" stroke="rgb(0,0,0)"  stroke-width="1.0"/>
<line x1="210.0" y1="100.2" x2="210.0" y2="73.1" stroke="rgb(0,0,0)"  stroke-width="1.0"/>
<line x1="250.7" y1="112.4" x2="271.8" y2="100.2" stroke="rgb(0,0,0)"  stroke-width="1.0"/>
<line x1="239.4" y1="157.5" x2="262.8" y2="171.0" stroke="rgb(0,0,0)"  stroke-width="1.0"/>
<line x1="285.3" y1="171.1" x2="308.4" y2="157.8" stroke="rgb(0,0,0)"  stroke-width="1.0"/>
<line x1="308.4" y1="157.8" x2="342.7" y2="177.9" stroke="rgb(0,0,0)"  stroke-width="1.0"/>
<line x1="342.7" y1="177.9" x2="366.2" y2="191.5" stroke="rgb(0,0,0)"  stroke-width="1.0"/>
<line x1="344.8" y1="174.3" x2="368.3" y2="187.8" stroke="rgb(0,0,0)"  stroke-width="1.0"/>
<line x1="340.6" y1="181.5" x2="364.1" y2="195.1" stroke="rgb(0,0,0)"  stroke-width="1.0"/>
<line x1="173.4" y1="118.9" x2="106.3" y2="118.9" stroke="rgb(0,0,0)"  stroke-width="1.0"/>
<line x1="106.3" y1="118.9" x2="106.3" y2="157.5" stroke="rgb(0,0,0)"  stroke-width="1.0"/>
<line x1="113.5" y1="124.9" x2="113.5" y2="151.5" stroke="rgb(0,0,0)"  stroke-width="1.0"/>
<line x1="106.3" y1="157.5" x2="128.4" y2="169.9" stroke="rgb(0,0,0)"  stroke-width="1.0"/>
<line x1="151.1" y1="170.0" x2="173.4" y2="157.5" stroke="rgb(0,0,0)"  stroke-width="1.0"/>
<line x1="173.4" y1="157.5" x2="173.4" y2="118.9" stroke="rgb(0,0,0)"  stroke-width="1.0"/>
<line x1="166.2" y1="151.5" x2="166.2" y2="124.9" stroke="rgb(0,0,0)"  stroke-width="1.0"/>
<line x1="73.3" y1="176.3" x2="106.3" y2="157.5" stroke="rgb(0,0,0)"  stroke-width="1.0"/>
<line x1="106.3" y1="118.9" x2="73.3" y2="100.2" stroke="rgb(0,0,0)"  stroke-width="1.0"/>
<line x1="73.3" y1="100.2" x2="40.0" y2="118.9" stroke="rgb(0,0,0)"  stroke-width="1.0"/>
<line x1="40.0" y1="118.9" x2="40.0" y2="157.5" stroke="rgb(0,0,0)"  stroke-width="1.0"/>
<line x1="40.0" y1="157.5" x2="73.3" y2="176.3" stroke="rgb(0,0,0)"  stroke-width="1.0"/>
<line x1="173.4" y1="118.9" x2="207.0" y2="100.2" stroke="rgb(0,0,0)"  stroke-width="1.0"/>
<line x1="207.0" y1="100.2" x2="228.2" y2="112.4" stroke="rgb(0,0,0)"  stroke-width="1.0"/>
<line x1="239.4" y1="131.9" x2="239.4" y2="157.5" stroke="rgb(0,0,0)"  stroke-width="1.0"/>
<line x1="239.4" y1="157.5" x2="217.7" y2="170.1" stroke="rgb(0,0,0)"  stroke-width="1.0"/>
<line x1="230.6" y1="154.3" x2="216.0" y2="162.7" stroke="rgb(0,0,0)"  stroke-width="1.0"/>
<line x1="195.7" y1="170.0" x2="173.4" y2="157.5" stroke="rgb(0,0,0)"  stroke-width="1.0"/>
<line x1="271.8" y1="100.2" x2="306.4" y2="120.3" stroke="rgb(0,0,0)"  stroke-width="1.0"/>
<line x1="280.6" y1="97.0" x2="304.8" y2="111.0" stroke="rgb(0,0,0)"  stroke-width="1.0"/>
<line x1="306.4" y1="120.3" x2="341.1" y2="100.2" stroke="rgb(0,0,0)"  stroke-width="1.0"/>
<line x1="341.1" y1="100.2" x2="341.1" y2="60.1" stroke="rgb(0,0,0)"  stroke-width="1.0"/>
<line x1="333.9" y1="94.2" x2="333.9" y2="66.1" stroke="rgb(0,0,0)"  stroke-width="1.0"/>
<line x1="341.1" y1="60.1" x2="306.4" y2="40.0" stroke="rgb(0,0,0)"  stroke-width="1.0"/>
<line x1="306.4" y1="40.0" x2="271.8" y2="60.3" stroke="rgb(0,0,0)"  stroke-width="1.0"/>
<line x1="304.9" y1="49.2" x2="280.6" y2="63.5" stroke="rgb(0,0,0)"  stroke-width="1.0"/>
<line x1="271.8" y1="60.3" x2="271.8" y2="100.2" stroke="rgb(0,0,0)"  stroke-width="1.0"/>
<text x="201.033674" y="184.329129" fill="rgb(12,12,255)"  stroke="rgb(12,12,255)" stroke-width="1" font-size="16" >N</text>
<text x="133.706722" y="184.329129" fill="rgb(178,178,0)"  stroke="rgb(178,178,0)" stroke-width="1" font-size="16" >S</text>
<text x="233.413444" y="126.939630" fill="rgb(12,12,255)"  stroke="rgb(12,12,255)" stroke-width="1" font-size="16" >N</text>
<text x="201.033674" y="68.097952" fill="rgb(255,12,12)"  stroke="rgb(255,12,12)" stroke-width="1" font-size="16" >O</text>
<text x="268.028429" y="185.558260" fill="rgb(178,178,0)"  stroke="rgb(178,178,0)" stroke-width="1" font-size="16" >S</text>
<text x="371.417798" y="205.993155" fill="rgb(102,102,102)"  stroke="rgb(102,102,102)" stroke-width="1" font-size="16" >CH</text>
<text font-size="18.000000" fill ="black" font-family="sans-serif"
x="10.000000" y="20.000000" ></text>
<title> - OBDepict</title>
</svg>
