<?xml version="1.0"?>
<svg xmlns="http://www.w3.org/2000/svg"
xmlns:xlink="http://www.w3.org/1999/xlink" xmlns:cml="http://www.xml-cml.org/schema" width="560.908" height="313.284" x="0" y="0" font-family="sans-serif" stroke="rgb(0,0,0)" stroke-width="1"  stroke-linecap="round">
<rect x="0%" y="0%" width="100%" height="100%" stroke-width="0" fill="rgb(255,255,255)"  />
<line x1="85.2" y1="109.8" x2="109.1" y2="123.5" stroke="rgb(0,0,0)"  stroke-width="1.0"/>
<line x1="266.9" y1="146.8" x2="239.9" y2="146.5" stroke="rgb(0,0,0)"  stroke-width="1.0"/>
<line x1="267.0" y1="140.8" x2="240.0" y2="140.5" stroke="rgb(0,0,0)"  stroke-width="1.0"/>
<line x1="300.0" y1="109.3" x2="286.5" y2="132.7" stroke="rgb(0,0,0)"  stroke-width="1.0"/>
<line x1="201.9" y1="243.6" x2="228.6" y2="213.9" stroke="rgb(0,0,0)"  stroke-width="1.0"/>
<line x1="183.9" y1="263.6" x2="201.9" y2="243.6" stroke="rgb(0,0,0)"  stroke-width="1.0"/>
<line x1="180.8" y1="260.8" x2="198.8" y2="240.8" stroke="rgb(0,0,0)"  stroke-width="1.0"/>
<line x1="187.0" y1="266.4" x2="205.0" y2="246.4" stroke="rgb(0,0,0)"  stroke-width="1.0"/>
<line x1="90.8" y1="82.1" x2="83.4" y2="93.9" stroke="rgb(0,0,0)"  stroke-width="1.0"/>
<line x1="85.7" y1="78.9" x2="78.3" y2="90.7" stroke="rgb(0,0,0)"  stroke-width="1.0"/>
<line x1="57.0" y1="124.8" x2="64.6" y2="112.7" stroke="rgb(0,0,0)"  stroke-width="1.0"/>
<line x1="62.1" y1="128.0" x2="69.6" y2="115.9" stroke="rgb(0,0,0)"  stroke-width="1.0"/>
<line x1="51.1" y1="89.1" x2="62.9" y2="96.4" stroke="rgb(0,0,0)"  stroke-width="1.0"/>
<line x1="228.6" y1="213.9" x2="220.4" y2="188.0" stroke="rgb(0,0,0)"  stroke-width="1.0"/>
<line x1="289.1" y1="84.5" x2="302.6" y2="107.8" stroke="rgb(0,0,0)"  stroke-width="1.0"/>
<line x1="283.9" y1="87.5" x2="297.4" y2="110.8" stroke="rgb(0,0,0)"  stroke-width="1.0"/>
<line x1="353.7" y1="85.6" x2="340.0" y2="109.3" stroke="rgb(0,0,0)"  stroke-width="1.0"/>
<line x1="340.0" y1="109.3" x2="300.0" y2="109.3" stroke="rgb(0,0,0)"  stroke-width="1.0"/>
<line x1="400.2" y1="74.2" x2="373.2" y2="74.3" stroke="rgb(0,0,0)"  stroke-width="1.0"/>
<line x1="507.9" y1="73.9" x2="480.9" y2="74.2" stroke="rgb(0,0,0)"  stroke-width="1.0"/>
<line x1="239.9" y1="143.5" x2="224.1" y2="121.7" stroke="rgb(0,0,0)"  stroke-width="1.0"/>
<line x1="204.1" y1="115.2" x2="178.3" y2="123.5" stroke="rgb(0,0,0)"  stroke-width="1.0"/>
<line x1="178.3" y1="123.5" x2="178.3" y2="163.5" stroke="rgb(0,0,0)"  stroke-width="1.0"/>
<line x1="185.5" y1="129.5" x2="185.5" y2="157.5" stroke="rgb(0,0,0)"  stroke-width="1.0"/>
<line x1="178.3" y1="163.5" x2="204.1" y2="171.7" stroke="rgb(0,0,0)"  stroke-width="1.0"/>
<line x1="224.1" y1="165.1" x2="239.9" y2="143.5" stroke="rgb(0,0,0)"  stroke-width="1.0"/>
<line x1="400.2" y1="74.2" x2="419.6" y2="40.0" stroke="rgb(0,0,0)"  stroke-width="1.0"/>
<line x1="419.6" y1="40.0" x2="460.1" y2="40.0" stroke="rgb(0,0,0)"  stroke-width="1.0"/>
<line x1="425.6" y1="47.2" x2="454.1" y2="47.2" stroke="rgb(0,0,0)"  stroke-width="1.0"/>
<line x1="460.1" y1="40.0" x2="480.9" y2="74.2" stroke="rgb(0,0,0)"  stroke-width="1.0"/>
<line x1="480.9" y1="74.2" x2="460.7" y2="108.3" stroke="rgb(0,0,0)"  stroke-width="1.0"/>
<line x1="471.6" y1="75.7" x2="457.5" y2="99.5" stroke="rgb(0,0,0)"  stroke-width="1.0"/>
<line x1="460.7" y1="108.3" x2="420.6" y2="108.3" stroke="rgb(0,0,0)"  stroke-width="1.0"/>
<line x1="420.6" y1="108.3" x2="400.2" y2="74.2" stroke="rgb(0,0,0)"  stroke-width="1.0"/>
<line x1="423.7" y1="99.5" x2="409.5" y2="75.6" stroke="rgb(0,0,0)"  stroke-width="1.0"/>
<line x1="109.1" y1="123.5" x2="143.7" y2="103.5" stroke="rgb(0,0,0)"  stroke-width="1.0"/>
<line x1="117.9" y1="126.7" x2="142.1" y2="112.7" stroke="rgb(0,0,0)"  stroke-width="1.0"/>
<line x1="143.7" y1="103.5" x2="178.3" y2="123.5" stroke="rgb(0,0,0)"  stroke-width="1.0"/>
<line x1="178.3" y1="163.5" x2="143.7" y2="183.5" stroke="rgb(0,0,0)"  stroke-width="1.0"/>
<line x1="143.7" y1="183.5" x2="109.1" y2="163.5" stroke="rgb(0,0,0)"  stroke-width="1.0"/>
<line x1="142.1" y1="174.3" x2="117.9" y2="160.3" stroke="rgb(0,0,0)"  stroke-width="1.0"/>
<line x1="109.1" y1="163.5" x2="109.1" y2="123.5" stroke="rgb(0,0,0)"  stroke-width="1.0"/>
<text x="67.958435" y="111.273851" fill="rgb(178,178,0)"  stroke="rgb(178,178,0)" stroke-width="1" font-size="16" >S</text>
<text x="210.473477" y="183.644922" fill="rgb(12,12,255)"  stroke="rgb(12,12,255)" stroke-width="1" font-size="16" >N</text>
<text x="273.945830" y="151.908745" fill="rgb(12,12,255)"  stroke="rgb(12,12,255)" stroke-width="1" font-size="16" >N</text>
<text x="210.473477" y="119.160690" fill="rgb(178,178,0)"  stroke="rgb(178,178,0)" stroke-width="1" font-size="16" >S</text>
<text x="157.233392" y="281.283896" fill="rgb(102,102,102)"  stroke="rgb(102,102,102)" stroke-width="1" font-size="16" >HC</text>
<text x="89.183668" y="77.518760" fill="rgb(255,12,12)"  stroke="rgb(255,12,12)" stroke-width="1" font-size="16" >O</text>
<text x="46.733203" y="145.440472" fill="rgb(255,12,12)"  stroke="rgb(255,12,12)" stroke-width="1" font-size="16" >O</text>
<text x="14.000000" y="90.251962" fill="rgb(12,12,255)"  stroke="rgb(12,12,255)" stroke-width="1" font-size="16" >H</text>
<text x="26.000000" y="93.931962" fill="rgb(12,12,255)"  stroke="rgb(12,12,255)" stroke-width="1" font-size="13" >2</text>
<text x="32.500000" y="90.251962" fill="rgb(12,12,255)"  stroke="rgb(12,12,255)" stroke-width="1" font-size="16" >N</text>
<text x="273.945830" y="82.771811" fill="rgb(255,12,12)"  stroke="rgb(255,12,12)" stroke-width="1" font-size="16" >O</text>
<text x="354.198899" y="82.369965" fill="rgb(255,12,12)"  stroke="rgb(255,12,12)" stroke-width="1" font-size="16" >O</text>
<text x="514.908380" y="81.764774" fill="rgb(30,239,30)"  stroke="rgb(30,239,30)" stroke-width="1" font-size="16" >Cl</text>
<text font-size="18.000000" fill ="black" font-family="sans-serif"
x="10.000000" y="20.000000" ></text>
<title> - OBDepict</title>
</svg>
