<?xml version="1.0"?>
<svg xmlns="http://www.w3.org/2000/svg"
xmlns:xlink="http://www.w3.org/1999/xlink" xmlns:cml="http://www.xml-cml.org/schema" width="399.826" height="364.089" x="0" y="0" font-family="sans-serif" stroke="rgb(0,0,0)" stroke-width="1"  stroke-linecap="round">
<rect x="0%" y="0%" width="100%" height="100%" stroke-width="0" fill="rgb(255,255,255)"  />
<line x1="207.8" y1="202.3" x2="199.9" y2="241.5" stroke="rgb(0,0,0)"  stroke-width="1.0"/>
<line x1="200.8" y1="244.4" x2="162.7" y2="256.7" stroke="rgb(0,0,0)"  stroke-width="1.0"/>
<line x1="199.0" y1="238.6" x2="160.8" y2="251.0" stroke="rgb(0,0,0)"  stroke-width="1.0"/>
<line x1="270.6" y1="119.3" x2="250.2" y2="137.4" stroke="rgb(0,0,0)"  stroke-width="1.0"/>
<line x1="50.7" y1="202.3" x2="59.2" y2="241.5" stroke="rgb(0,0,0)"  stroke-width="1.0"/>
<line x1="43.5" y1="176.1" x2="50.7" y2="202.3" stroke="rgb(0,0,0)"  stroke-width="1.0"/>
<line x1="47.5" y1="175.0" x2="54.7" y2="201.2" stroke="rgb(0,0,0)"  stroke-width="1.0"/>
<line x1="39.4" y1="177.2" x2="46.6" y2="203.5" stroke="rgb(0,0,0)"  stroke-width="1.0"/>
<line x1="91.1" y1="311.8" x2="107.0" y2="290.2" stroke="rgb(0,0,0)"  stroke-width="1.0"/>
<line x1="95.9" y1="315.4" x2="111.9" y2="293.8" stroke="rgb(0,0,0)"  stroke-width="1.0"/>
<line x1="132.2" y1="203.2" x2="132.4" y2="230.2" stroke="rgb(0,0,0)"  stroke-width="1.0"/>
<line x1="126.2" y1="203.2" x2="126.4" y2="230.2" stroke="rgb(0,0,0)"  stroke-width="1.0"/>
<line x1="59.2" y1="241.5" x2="84.6" y2="249.8" stroke="rgb(0,0,0)"  stroke-width="1.0"/>
<line x1="190.3" y1="113.1" x2="201.1" y2="137.9" stroke="rgb(0,0,0)"  stroke-width="1.0"/>
<line x1="268.0" y1="199.5" x2="244.7" y2="186.0" stroke="rgb(0,0,0)"  stroke-width="1.0"/>
<line x1="350.2" y1="48.7" x2="330.1" y2="66.7" stroke="rgb(0,0,0)"  stroke-width="1.0"/>
<line x1="107.5" y1="246.2" x2="129.4" y2="230.2" stroke="rgb(0,0,0)"  stroke-width="1.0"/>
<line x1="129.4" y1="230.2" x2="161.7" y2="253.8" stroke="rgb(0,0,0)"  stroke-width="1.0"/>
<line x1="161.7" y1="253.8" x2="153.4" y2="279.6" stroke="rgb(0,0,0)"  stroke-width="1.0"/>
<line x1="136.4" y1="292.0" x2="109.5" y2="292.0" stroke="rgb(0,0,0)"  stroke-width="1.0"/>
<line x1="109.5" y1="292.0" x2="101.0" y2="266.2" stroke="rgb(0,0,0)"  stroke-width="1.0"/>
<line x1="207.8" y1="202.3" x2="244.7" y2="186.0" stroke="rgb(0,0,0)"  stroke-width="1.0"/>
<line x1="210.4" y1="193.3" x2="236.3" y2="181.8" stroke="rgb(0,0,0)"  stroke-width="1.0"/>
<line x1="244.7" y1="186.0" x2="241.9" y2="158.9" stroke="rgb(0,0,0)"  stroke-width="1.0"/>
<line x1="227.8" y1="143.4" x2="201.1" y2="137.9" stroke="rgb(0,0,0)"  stroke-width="1.0"/>
<line x1="201.1" y1="137.9" x2="181.1" y2="172.7" stroke="rgb(0,0,0)"  stroke-width="1.0"/>
<line x1="204.4" y1="146.7" x2="190.4" y2="171.0" stroke="rgb(0,0,0)"  stroke-width="1.0"/>
<line x1="181.1" y1="172.7" x2="207.8" y2="202.3" stroke="rgb(0,0,0)"  stroke-width="1.0"/>
<line x1="270.6" y1="119.3" x2="308.3" y2="132.1" stroke="rgb(0,0,0)"  stroke-width="1.0"/>
<line x1="278.6" y1="114.4" x2="305.0" y2="123.3" stroke="rgb(0,0,0)"  stroke-width="1.0"/>
<line x1="308.3" y1="132.1" x2="338.0" y2="105.8" stroke="rgb(0,0,0)"  stroke-width="1.0"/>
<line x1="338.0" y1="105.8" x2="330.1" y2="66.7" stroke="rgb(0,0,0)"  stroke-width="1.0"/>
<line x1="329.8" y1="101.4" x2="324.3" y2="74.0" stroke="rgb(0,0,0)"  stroke-width="1.0"/>
<line x1="330.1" y1="66.7" x2="292.0" y2="54.3" stroke="rgb(0,0,0)"  stroke-width="1.0"/>
<line x1="292.0" y1="54.3" x2="262.1" y2="81.0" stroke="rgb(0,0,0)"  stroke-width="1.0"/>
<line x1="292.3" y1="63.7" x2="271.4" y2="82.4" stroke="rgb(0,0,0)"  stroke-width="1.0"/>
<line x1="262.1" y1="81.0" x2="270.6" y2="119.3" stroke="rgb(0,0,0)"  stroke-width="1.0"/>
<text x="90.938116" y="261.822500" fill="rgb(12,12,255)"  stroke="rgb(12,12,255)" stroke-width="1" font-size="16" >N</text>
<text x="234.494389" y="154.003618" fill="rgb(12,12,255)"  stroke="rgb(12,12,255)" stroke-width="1" font-size="16" >N</text>
<text x="143.430292" y="299.981861" fill="rgb(178,178,0)"  stroke="rgb(178,178,0)" stroke-width="1" font-size="16" >S</text>
<text x="22.000000" y="171.568961" fill="rgb(102,102,102)"  stroke="rgb(102,102,102)" stroke-width="1" font-size="16" >HC</text>
<text x="79.828121" y="332.088726" fill="rgb(255,12,12)"  stroke="rgb(255,12,12)" stroke-width="1" font-size="16" >O</text>
<text x="123.040127" y="198.220329" fill="rgb(255,12,12)"  stroke="rgb(255,12,12)" stroke-width="1" font-size="16" >O</text>
<text x="159.172538" y="109.180202" fill="rgb(102,102,102)"  stroke="rgb(102,102,102)" stroke-width="1" font-size="16" >H</text>
<text x="171.172538" y="112.860202" fill="rgb(102,102,102)"  stroke="rgb(102,102,102)" stroke-width="1" font-size="13" >3</text>
<text x="177.672538" y="109.180202" fill="rgb(102,102,102)"  stroke="rgb(102,102,102)" stroke-width="1" font-size="16" >C</text>
<text x="275.260456" y="213.970409" fill="rgb(102,102,102)"  stroke="rgb(102,102,102)" stroke-width="1" font-size="16" >CH</text>
<text x="299.260456" y="217.650409" fill="rgb(102,102,102)"  stroke="rgb(102,102,102)" stroke-width="1" font-size="13" >3</text>
<text x="353.826118" y="48.000000" fill="rgb(255,12,12)"  stroke="rgb(255,12,12)" stroke-width="1" font-size="16" >OH</text>
<text font-size="18.000000" fill ="black" font-family="sans-serif"
x="10.000000" y="20.000000" ></text>
<title> - OBDepict</title>
</svg>
