<?xml version="1.0"?>
<svg xmlns="http://www.w3.org/2000/svg"
xmlns:xlink="http://www.w3.org/1999/xlink" xmlns:cml="http://www.xml-cml.org/schema" width="377.988" height="349.725" x="0" y="0" font-family="sans-serif" stroke="rgb(0,0,0)" stroke-width="1"  stroke-linecap="round">
<rect x="0%" y="0%" width="100%" height="100%" stroke-width="0" fill="rgb(255,255,255)"  />
<line x1="160.8" y1="236.6" x2="199.0" y2="224.3" stroke="rgb(0,0,0)"  stroke-width="1.0"/>
<line x1="162.7" y1="242.3" x2="200.8" y2="230.0" stroke="rgb(0,0,0)"  stroke-width="1.0"/>
<line x1="199.9" y1="227.2" x2="207.8" y2="188.0" stroke="rgb(0,0,0)"  stroke-width="1.0"/>
<line x1="270.6" y1="105.0" x2="250.2" y2="123.0" stroke="rgb(0,0,0)"  stroke-width="1.0"/>
<line x1="50.7" y1="188.0" x2="59.2" y2="227.2" stroke="rgb(0,0,0)"  stroke-width="1.0"/>
<line x1="43.5" y1="161.8" x2="50.7" y2="188.0" stroke="rgb(0,0,0)"  stroke-width="1.0"/>
<line x1="47.5" y1="160.6" x2="54.7" y2="186.9" stroke="rgb(0,0,0)"  stroke-width="1.0"/>
<line x1="39.4" y1="162.9" x2="46.6" y2="189.1" stroke="rgb(0,0,0)"  stroke-width="1.0"/>
<line x1="91.1" y1="297.5" x2="107.0" y2="275.8" stroke="rgb(0,0,0)"  stroke-width="1.0"/>
<line x1="95.9" y1="301.0" x2="111.9" y2="279.4" stroke="rgb(0,0,0)"  stroke-width="1.0"/>
<line x1="132.2" y1="188.8" x2="132.4" y2="215.8" stroke="rgb(0,0,0)"  stroke-width="1.0"/>
<line x1="126.2" y1="188.9" x2="126.4" y2="215.9" stroke="rgb(0,0,0)"  stroke-width="1.0"/>
<line x1="59.2" y1="227.2" x2="84.6" y2="235.4" stroke="rgb(0,0,0)"  stroke-width="1.0"/>
<line x1="190.3" y1="98.8" x2="201.1" y2="123.6" stroke="rgb(0,0,0)"  stroke-width="1.0"/>
<line x1="268.0" y1="185.1" x2="244.7" y2="171.6" stroke="rgb(0,0,0)"  stroke-width="1.0"/>
<line x1="236.5" y1="58.2" x2="262.1" y2="66.6" stroke="rgb(0,0,0)"  stroke-width="1.0"/>
<line x1="313.9" y1="144.2" x2="308.3" y2="117.7" stroke="rgb(0,0,0)"  stroke-width="1.0"/>
<line x1="227.7" y1="129.0" x2="201.1" y2="123.6" stroke="rgb(0,0,0)"  stroke-width="1.0"/>
<line x1="201.1" y1="123.6" x2="181.1" y2="158.3" stroke="rgb(0,0,0)"  stroke-width="1.0"/>
<line x1="204.4" y1="132.4" x2="190.4" y2="156.7" stroke="rgb(0,0,0)"  stroke-width="1.0"/>
<line x1="181.1" y1="158.3" x2="207.8" y2="188.0" stroke="rgb(0,0,0)"  stroke-width="1.0"/>
<line x1="207.8" y1="188.0" x2="244.7" y2="171.6" stroke="rgb(0,0,0)"  stroke-width="1.0"/>
<line x1="210.3" y1="179.0" x2="236.3" y2="167.5" stroke="rgb(0,0,0)"  stroke-width="1.0"/>
<line x1="244.7" y1="171.6" x2="241.8" y2="144.6" stroke="rgb(0,0,0)"  stroke-width="1.0"/>
<line x1="161.7" y1="239.5" x2="153.4" y2="265.3" stroke="rgb(0,0,0)"  stroke-width="1.0"/>
<line x1="136.4" y1="277.6" x2="109.4" y2="277.6" stroke="rgb(0,0,0)"  stroke-width="1.0"/>
<line x1="109.4" y1="277.6" x2="101.0" y2="251.8" stroke="rgb(0,0,0)"  stroke-width="1.0"/>
<line x1="107.4" y1="231.8" x2="129.4" y2="215.8" stroke="rgb(0,0,0)"  stroke-width="1.0"/>
<line x1="129.4" y1="215.8" x2="161.7" y2="239.5" stroke="rgb(0,0,0)"  stroke-width="1.0"/>
<line x1="270.6" y1="105.0" x2="308.3" y2="117.7" stroke="rgb(0,0,0)"  stroke-width="1.0"/>
<line x1="278.5" y1="100.1" x2="304.9" y2="109.0" stroke="rgb(0,0,0)"  stroke-width="1.0"/>
<line x1="308.3" y1="117.7" x2="338.0" y2="91.5" stroke="rgb(0,0,0)"  stroke-width="1.0"/>
<line x1="338.0" y1="91.5" x2="330.1" y2="52.3" stroke="rgb(0,0,0)"  stroke-width="1.0"/>
<line x1="329.7" y1="87.0" x2="324.2" y2="59.6" stroke="rgb(0,0,0)"  stroke-width="1.0"/>
<line x1="330.1" y1="52.3" x2="292.0" y2="40.0" stroke="rgb(0,0,0)"  stroke-width="1.0"/>
<line x1="292.0" y1="40.0" x2="262.1" y2="66.6" stroke="rgb(0,0,0)"  stroke-width="1.0"/>
<line x1="292.3" y1="49.4" x2="271.3" y2="68.0" stroke="rgb(0,0,0)"  stroke-width="1.0"/>
<line x1="262.1" y1="66.6" x2="270.6" y2="105.0" stroke="rgb(0,0,0)"  stroke-width="1.0"/>
<text x="234.475177" y="139.661461" fill="rgb(12,12,255)"  stroke="rgb(12,12,255)" stroke-width="1" font-size="16" >N</text>
<text x="90.929962" y="247.470788" fill="rgb(12,12,255)"  stroke="rgb(12,12,255)" stroke-width="1" font-size="16" >N</text>
<text x="143.420232" y="285.627885" fill="rgb(178,178,0)"  stroke="rgb(178,178,0)" stroke-width="1" font-size="16" >S</text>
<text x="22.000000" y="157.226147" fill="rgb(102,102,102)"  stroke="rgb(102,102,102)" stroke-width="1" font-size="16" >HC</text>
<text x="79.823452" y="317.724681" fill="rgb(255,12,12)"  stroke="rgb(255,12,12)" stroke-width="1" font-size="16" >O</text>
<text x="123.031610" y="183.874008" fill="rgb(255,12,12)"  stroke="rgb(255,12,12)" stroke-width="1" font-size="16" >O</text>
<text x="159.156120" y="94.837546" fill="rgb(102,102,102)"  stroke="rgb(102,102,102)" stroke-width="1" font-size="16" >H</text>
<text x="171.156120" y="98.517546" fill="rgb(102,102,102)"  stroke="rgb(102,102,102)" stroke-width="1" font-size="13" >3</text>
<text x="177.656120" y="94.837546" fill="rgb(102,102,102)"  stroke="rgb(102,102,102)" stroke-width="1" font-size="16" >C</text>
<text x="275.238790" y="199.619148" fill="rgb(102,102,102)"  stroke="rgb(102,102,102)" stroke-width="1" font-size="16" >CH</text>
<text x="299.238790" y="203.299148" fill="rgb(102,102,102)"  stroke="rgb(102,102,102)" stroke-width="1" font-size="13" >3</text>
<text x="198.123522" y="62.134235" fill="rgb(102,102,102)"  stroke="rgb(102,102,102)" stroke-width="1" font-size="16" >H</text>
<text x="210.123522" y="65.814235" fill="rgb(102,102,102)"  stroke="rgb(102,102,102)" stroke-width="1" font-size="13" >3</text>
<text x="216.623522" y="62.134235" fill="rgb(102,102,102)"  stroke="rgb(102,102,102)" stroke-width="1" font-size="16" >C</text>
<text x="312.585583" y="164.892502" fill="rgb(102,102,102)"  stroke="rgb(102,102,102)" stroke-width="1" font-size="16" >CH</text>
<text x="336.585583" y="168.572502" fill="rgb(102,102,102)"  stroke="rgb(102,102,102)" stroke-width="1" font-size="13" >3</text>
<text font-size="18.000000" fill ="black" font-family="sans-serif"
x="10.000000" y="20.000000" ></text>
<title> - OBDepict</title>
</svg>
