<?xml version="1.0"?>
<svg xmlns="http://www.w3.org/2000/svg"
xmlns:xlink="http://www.w3.org/1999/xlink" xmlns:cml="http://www.xml-cml.org/schema" width="528.736" height="324.116" x="0" y="0" font-family="sans-serif" stroke="rgb(0,0,0)" stroke-width="1"  stroke-linecap="round">
<rect x="0%" y="0%" width="100%" height="100%" stroke-width="0" fill="rgb(255,255,255)"  />
<line x1="213.5" y1="85.4" x2="179.0" y2="105.4" stroke="rgb(0,0,0)"  stroke-width="1.0"/>
<line x1="210.5" y1="80.2" x2="176.0" y2="100.2" stroke="rgb(0,0,0)"  stroke-width="1.0"/>
<line x1="58.3" y1="75.7" x2="74.5" y2="111.8" stroke="rgb(0,0,0)"  stroke-width="1.0"/>
<line x1="45.9" y1="51.6" x2="58.3" y2="75.7" stroke="rgb(0,0,0)"  stroke-width="1.0"/>
<line x1="49.7" y1="49.6" x2="62.1" y2="73.7" stroke="rgb(0,0,0)"  stroke-width="1.0"/>
<line x1="42.2" y1="53.5" x2="54.6" y2="77.6" stroke="rgb(0,0,0)"  stroke-width="1.0"/>
<line x1="120.3" y1="174.4" x2="131.6" y2="149.4" stroke="rgb(0,0,0)"  stroke-width="1.0"/>
<line x1="125.7" y1="176.9" x2="137.0" y2="151.9" stroke="rgb(0,0,0)"  stroke-width="1.0"/>
<line x1="138.1" y1="59.9" x2="143.6" y2="86.4" stroke="rgb(0,0,0)"  stroke-width="1.0"/>
<line x1="132.2" y1="61.2" x2="137.7" y2="87.6" stroke="rgb(0,0,0)"  stroke-width="1.0"/>
<line x1="246.3" y1="102.8" x2="212.0" y2="82.8" stroke="rgb(0,0,0)"  stroke-width="1.0"/>
<line x1="74.5" y1="111.8" x2="101.1" y2="114.7" stroke="rgb(0,0,0)"  stroke-width="1.0"/>
<line x1="338.9" y1="157.2" x2="315.3" y2="143.3" stroke="rgb(0,0,0)"  stroke-width="1.0"/>
<line x1="384.1" y1="224.1" x2="349.6" y2="204.1" stroke="rgb(0,0,0)"  stroke-width="1.0"/>
<line x1="349.6" y1="204.1" x2="349.9" y2="176.8" stroke="rgb(0,0,0)"  stroke-width="1.0"/>
<line x1="339.6" y1="90.4" x2="315.8" y2="103.8" stroke="rgb(0,0,0)"  stroke-width="1.0"/>
<line x1="120.6" y1="127.3" x2="134.3" y2="150.6" stroke="rgb(0,0,0)"  stroke-width="1.0"/>
<line x1="134.3" y1="150.6" x2="160.4" y2="145.4" stroke="rgb(0,0,0)"  stroke-width="1.0"/>
<line x1="174.5" y1="129.9" x2="177.5" y2="102.8" stroke="rgb(0,0,0)"  stroke-width="1.0"/>
<line x1="177.5" y1="102.8" x2="140.6" y2="87.0" stroke="rgb(0,0,0)"  stroke-width="1.0"/>
<line x1="140.6" y1="87.0" x2="122.8" y2="106.6" stroke="rgb(0,0,0)"  stroke-width="1.0"/>
<line x1="315.8" y1="103.8" x2="315.3" y2="143.3" stroke="rgb(0,0,0)"  stroke-width="1.0"/>
<line x1="308.5" y1="109.7" x2="308.1" y2="137.2" stroke="rgb(0,0,0)"  stroke-width="1.0"/>
<line x1="315.3" y1="143.3" x2="280.8" y2="163.6" stroke="rgb(0,0,0)"  stroke-width="1.0"/>
<line x1="280.8" y1="163.6" x2="246.3" y2="143.3" stroke="rgb(0,0,0)"  stroke-width="1.0"/>
<line x1="279.3" y1="154.4" x2="255.1" y2="140.2" stroke="rgb(0,0,0)"  stroke-width="1.0"/>
<line x1="246.3" y1="143.3" x2="246.3" y2="102.8" stroke="rgb(0,0,0)"  stroke-width="1.0"/>
<line x1="246.3" y1="102.8" x2="281.4" y2="83.5" stroke="rgb(0,0,0)"  stroke-width="1.0"/>
<line x1="255.0" y1="106.2" x2="279.7" y2="92.7" stroke="rgb(0,0,0)"  stroke-width="1.0"/>
<line x1="281.4" y1="83.5" x2="315.8" y2="103.8" stroke="rgb(0,0,0)"  stroke-width="1.0"/>
<line x1="419.3" y1="204.3" x2="453.1" y2="225.0" stroke="rgb(0,0,0)"  stroke-width="1.0"/>
<line x1="453.1" y1="225.0" x2="453.1" y2="264.8" stroke="rgb(0,0,0)"  stroke-width="1.0"/>
<line x1="453.1" y1="264.8" x2="417.9" y2="284.1" stroke="rgb(0,0,0)"  stroke-width="1.0"/>
<line x1="444.4" y1="261.4" x2="419.7" y2="274.9" stroke="rgb(0,0,0)"  stroke-width="1.0"/>
<line x1="417.9" y1="284.1" x2="383.4" y2="264.1" stroke="rgb(0,0,0)"  stroke-width="1.0"/>
<line x1="383.4" y1="264.1" x2="384.1" y2="224.1" stroke="rgb(0,0,0)"  stroke-width="1.0"/>
<line x1="390.7" y1="258.2" x2="391.2" y2="230.2" stroke="rgb(0,0,0)"  stroke-width="1.0"/>
<line x1="384.1" y1="224.1" x2="419.3" y2="204.3" stroke="rgb(0,0,0)"  stroke-width="1.0"/>
<line x1="453.1" y1="225.0" x2="488.1" y2="205.3" stroke="rgb(0,0,0)"  stroke-width="1.0"/>
<line x1="454.8" y1="215.7" x2="479.3" y2="202.0" stroke="rgb(0,0,0)"  stroke-width="1.0"/>
<line x1="488.1" y1="205.3" x2="488.7" y2="165.1" stroke="rgb(0,0,0)"  stroke-width="1.0"/>
<line x1="488.7" y1="165.1" x2="454.2" y2="145.0" stroke="rgb(0,0,0)"  stroke-width="1.0"/>
<line x1="479.9" y1="168.3" x2="455.8" y2="154.2" stroke="rgb(0,0,0)"  stroke-width="1.0"/>
<line x1="454.2" y1="145.0" x2="419.3" y2="164.3" stroke="rgb(0,0,0)"  stroke-width="1.0"/>
<line x1="419.3" y1="164.3" x2="419.3" y2="204.3" stroke="rgb(0,0,0)"  stroke-width="1.0"/>
<line x1="426.5" y1="170.3" x2="426.5" y2="198.3" stroke="rgb(0,0,0)"  stroke-width="1.0"/>
<text x="107.987079" y="124.149197" fill="rgb(12,12,255)"  stroke="rgb(12,12,255)" stroke-width="1" font-size="16" >N</text>
<text x="167.139900" y="150.812081" fill="rgb(178,178,0)"  stroke="rgb(178,178,0)" stroke-width="1" font-size="16" >S</text>
<text x="22.000000" y="48.000000" fill="rgb(102,102,102)"  stroke="rgb(102,102,102)" stroke-width="1" font-size="16" >HC</text>
<text x="111.652014" y="195.465140" fill="rgb(255,12,12)"  stroke="rgb(255,12,12)" stroke-width="1" font-size="16" >O</text>
<text x="126.481425" y="55.834040" fill="rgb(255,12,12)"  stroke="rgb(255,12,12)" stroke-width="1" font-size="16" >O</text>
<text x="344.103885" y="171.807890" fill="rgb(255,12,12)"  stroke="rgb(255,12,12)" stroke-width="1" font-size="16" >O</text>
<text x="344.932858" y="91.988911" fill="rgb(147,0,147)"  stroke="rgb(147,0,147)" stroke-width="1" font-size="16" >I</text>
<text font-size="18.000000" fill ="black" font-family="sans-serif"
x="10.000000" y="20.000000" ></text>
<title> - OBDepict</title>
</svg>
