<?xml version="1.0"?>
<svg xmlns="http://www.w3.org/2000/svg"
xmlns:xlink="http://www.w3.org/1999/xlink" xmlns:cml="http://www.xml-cml.org/schema" width="377.34" height="320.178" x="0" y="0" font-family="sans-serif" stroke="rgb(0,0,0)" stroke-width="1"  stroke-linecap="round">
<rect x="0%" y="0%" width="100%" height="100%" stroke-width="0" fill="rgb(255,255,255)"  />
<line x1="178.6" y1="160.0" x2="155.1" y2="146.5" stroke="rgb(0,0,0)"  stroke-width="1.0"/>
<line x1="298.2" y1="250.5" x2="289.8" y2="224.7" stroke="rgb(0,0,0)"  stroke-width="1.0"/>
<line x1="74.7" y1="60.0" x2="109.3" y2="80.0" stroke="rgb(0,0,0)"  stroke-width="1.0"/>
<line x1="51.3" y1="46.5" x2="74.7" y2="60.0" stroke="rgb(0,0,0)"  stroke-width="1.0"/>
<line x1="53.4" y1="42.8" x2="76.8" y2="56.4" stroke="rgb(0,0,0)"  stroke-width="1.0"/>
<line x1="49.2" y1="50.1" x2="72.7" y2="63.6" stroke="rgb(0,0,0)"  stroke-width="1.0"/>
<line x1="127.7" y1="162.0" x2="134.7" y2="149.8" stroke="rgb(0,0,0)"  stroke-width="1.0"/>
<line x1="132.9" y1="165.0" x2="139.9" y2="152.8" stroke="rgb(0,0,0)"  stroke-width="1.0"/>
<line x1="159.9" y1="118.2" x2="152.9" y2="130.2" stroke="rgb(0,0,0)"  stroke-width="1.0"/>
<line x1="154.7" y1="115.2" x2="147.7" y2="127.2" stroke="rgb(0,0,0)"  stroke-width="1.0"/>
<line x1="120.5" y1="126.5" x2="132.6" y2="133.5" stroke="rgb(0,0,0)"  stroke-width="1.0"/>
<line x1="324.0" y1="259.0" x2="297.5" y2="253.4" stroke="rgb(0,0,0)"  stroke-width="1.0"/>
<line x1="325.2" y1="253.1" x2="298.8" y2="247.5" stroke="rgb(0,0,0)"  stroke-width="1.0"/>
<line x1="109.3" y1="80.0" x2="109.3" y2="107.0" stroke="rgb(0,0,0)"  stroke-width="1.0"/>
<line x1="280.2" y1="270.5" x2="298.2" y2="250.5" stroke="rgb(0,0,0)"  stroke-width="1.0"/>
<line x1="273.5" y1="208.3" x2="247.9" y2="200.0" stroke="rgb(0,0,0)"  stroke-width="1.0"/>
<line x1="247.9" y1="200.0" x2="247.9" y2="160.0" stroke="rgb(0,0,0)"  stroke-width="1.0"/>
<line x1="255.1" y1="194.0" x2="255.1" y2="166.0" stroke="rgb(0,0,0)"  stroke-width="1.0"/>
<line x1="247.9" y1="160.0" x2="285.8" y2="147.7" stroke="rgb(0,0,0)"  stroke-width="1.0"/>
<line x1="285.8" y1="147.7" x2="309.5" y2="180.0" stroke="rgb(0,0,0)"  stroke-width="1.0"/>
<line x1="309.5" y1="180.0" x2="293.5" y2="201.8" stroke="rgb(0,0,0)"  stroke-width="1.0"/>
<line x1="178.6" y1="160.0" x2="213.1" y2="140.0" stroke="rgb(0,0,0)"  stroke-width="1.0"/>
<line x1="187.4" y1="163.2" x2="211.5" y2="149.2" stroke="rgb(0,0,0)"  stroke-width="1.0"/>
<line x1="213.1" y1="140.0" x2="247.9" y2="160.0" stroke="rgb(0,0,0)"  stroke-width="1.0"/>
<line x1="247.9" y1="200.0" x2="213.1" y2="220.0" stroke="rgb(0,0,0)"  stroke-width="1.0"/>
<line x1="213.1" y1="220.0" x2="178.6" y2="200.0" stroke="rgb(0,0,0)"  stroke-width="1.0"/>
<line x1="211.5" y1="210.7" x2="187.4" y2="196.8" stroke="rgb(0,0,0)"  stroke-width="1.0"/>
<line x1="178.6" y1="200.0" x2="178.6" y2="160.0" stroke="rgb(0,0,0)"  stroke-width="1.0"/>
<text x="137.828883" y="147.989294" fill="rgb(178,178,0)"  stroke="rgb(178,178,0)" stroke-width="1" font-size="16" >S</text>
<text x="279.830648" y="220.306399" fill="rgb(12,12,255)"  stroke="rgb(12,12,255)" stroke-width="1" font-size="16" >N</text>
<text x="22.000000" y="48.000000" fill="rgb(102,102,102)"  stroke="rgb(102,102,102)" stroke-width="1" font-size="16" >HC</text>
<text x="117.831024" y="182.734665" fill="rgb(255,12,12)"  stroke="rgb(255,12,12)" stroke-width="1" font-size="16" >O</text>
<text x="157.826742" y="113.447538" fill="rgb(255,12,12)"  stroke="rgb(255,12,12)" stroke-width="1" font-size="16" >O</text>
<text x="91.287127" y="127.991435" fill="rgb(12,12,255)"  stroke="rgb(12,12,255)" stroke-width="1" font-size="16" >HN</text>
<text x="331.340284" y="266.764455" fill="rgb(255,12,12)"  stroke="rgb(255,12,12)" stroke-width="1" font-size="16" >O</text>
<text x="245.490365" y="288.177920" fill="rgb(102,102,102)"  stroke="rgb(102,102,102)" stroke-width="1" font-size="16" >H</text>
<text x="257.490365" y="291.857920" fill="rgb(102,102,102)"  stroke="rgb(102,102,102)" stroke-width="1" font-size="13" >3</text>
<text x="263.990365" y="288.177920" fill="rgb(102,102,102)"  stroke="rgb(102,102,102)" stroke-width="1" font-size="16" >C</text>
<text font-size="18.000000" fill ="black" font-family="sans-serif"
x="10.000000" y="20.000000" ></text>
<title> - OBDepict</title>
</svg>
