<?xml version="1.0"?>
<svg xmlns="http://www.w3.org/2000/svg"
xmlns:xlink="http://www.w3.org/1999/xlink" xmlns:cml="http://www.xml-cml.org/schema" width="426.38" height="240.059" x="0" y="0" font-family="sans-serif" stroke="rgb(0,0,0)" stroke-width="1"  stroke-linecap="round">
<rect x="0%" y="0%" width="100%" height="100%" stroke-width="0" fill="rgb(255,255,255)"  />
<line x1="213.2" y1="160.0" x2="189.7" y2="146.5" stroke="rgb(0,0,0)"  stroke-width="1.0"/>
<line x1="247.7" y1="140.0" x2="213.2" y2="160.0" stroke="rgb(0,0,0)"  stroke-width="1.0"/>
<line x1="351.8" y1="160.0" x2="317.1" y2="140.0" stroke="rgb(0,0,0)"  stroke-width="1.0"/>
<line x1="375.1" y1="173.5" x2="351.8" y2="160.0" stroke="rgb(0,0,0)"  stroke-width="1.0"/>
<line x1="373.0" y1="177.2" x2="349.7" y2="163.7" stroke="rgb(0,0,0)"  stroke-width="1.0"/>
<line x1="377.2" y1="169.9" x2="353.9" y2="156.4" stroke="rgb(0,0,0)"  stroke-width="1.0"/>
<line x1="140.9" y1="187.1" x2="140.9" y2="160.0" stroke="rgb(0,0,0)"  stroke-width="1.0"/>
<line x1="146.9" y1="187.1" x2="146.9" y2="160.0" stroke="rgb(0,0,0)"  stroke-width="1.0"/>
<line x1="146.9" y1="53.0" x2="146.9" y2="80.0" stroke="rgb(0,0,0)"  stroke-width="1.0"/>
<line x1="140.9" y1="53.0" x2="140.9" y2="80.0" stroke="rgb(0,0,0)"  stroke-width="1.0"/>
<line x1="250.7" y1="113.0" x2="250.7" y2="140.0" stroke="rgb(0,0,0)"  stroke-width="1.0"/>
<line x1="244.7" y1="113.0" x2="244.7" y2="140.0" stroke="rgb(0,0,0)"  stroke-width="1.0"/>
<line x1="271.2" y1="153.6" x2="247.7" y2="140.0" stroke="rgb(0,0,0)"  stroke-width="1.0"/>
<line x1="317.1" y1="140.0" x2="293.8" y2="153.5" stroke="rgb(0,0,0)"  stroke-width="1.0"/>
<line x1="167.2" y1="146.6" x2="143.9" y2="160.0" stroke="rgb(0,0,0)"  stroke-width="1.0"/>
<line x1="143.9" y1="160.0" x2="109.3" y2="140.0" stroke="rgb(0,0,0)"  stroke-width="1.0"/>
<line x1="109.3" y1="140.0" x2="109.3" y2="100.0" stroke="rgb(0,0,0)"  stroke-width="1.0"/>
<line x1="116.5" y1="134.0" x2="116.5" y2="106.0" stroke="rgb(0,0,0)"  stroke-width="1.0"/>
<line x1="109.3" y1="100.0" x2="143.9" y2="80.0" stroke="rgb(0,0,0)"  stroke-width="1.0"/>
<line x1="143.9" y1="80.0" x2="167.2" y2="93.5" stroke="rgb(0,0,0)"  stroke-width="1.0"/>
<line x1="178.4" y1="113.0" x2="178.4" y2="127.0" stroke="rgb(0,0,0)"  stroke-width="1.0"/>
<line x1="74.6" y1="80.0" x2="109.3" y2="100.0" stroke="rgb(0,0,0)"  stroke-width="1.0"/>
<line x1="109.3" y1="140.0" x2="74.6" y2="160.0" stroke="rgb(0,0,0)"  stroke-width="1.0"/>
<line x1="74.6" y1="160.0" x2="40.0" y2="140.0" stroke="rgb(0,0,0)"  stroke-width="1.0"/>
<line x1="73.0" y1="150.8" x2="48.8" y2="136.8" stroke="rgb(0,0,0)"  stroke-width="1.0"/>
<line x1="40.0" y1="140.0" x2="40.0" y2="100.0" stroke="rgb(0,0,0)"  stroke-width="1.0"/>
<line x1="40.0" y1="100.0" x2="74.6" y2="80.0" stroke="rgb(0,0,0)"  stroke-width="1.0"/>
<line x1="48.8" y1="103.2" x2="73.0" y2="89.3" stroke="rgb(0,0,0)"  stroke-width="1.0"/>
<text x="172.428269" y="148.036205" fill="rgb(12,12,255)"  stroke="rgb(12,12,255)" stroke-width="1" font-size="16" >N</text>
<text x="172.428269" y="108.022691" fill="rgb(12,12,255)"  stroke="rgb(12,12,255)" stroke-width="1" font-size="16" >NH</text>
<text x="380.380441" y="188.049719" fill="rgb(102,102,102)"  stroke="rgb(102,102,102)" stroke-width="1" font-size="16" >CH</text>
<text x="137.869603" y="208.058896" fill="rgb(255,12,12)"  stroke="rgb(255,12,12)" stroke-width="1" font-size="16" >O</text>
<text x="137.869603" y="48.000000" fill="rgb(255,12,12)"  stroke="rgb(255,12,12)" stroke-width="1" font-size="16" >O</text>
<text x="241.748886" y="108.022691" fill="rgb(255,12,12)"  stroke="rgb(255,12,12)" stroke-width="1" font-size="16" >O</text>
<text x="276.510838" y="168.045382" fill="rgb(12,12,255)"  stroke="rgb(12,12,255)" stroke-width="1" font-size="16" >N</text>
<text x="276.510838" y="184.045382" fill="rgb(12,12,255)"  stroke="rgb(12,12,255)" stroke-width="1" font-size="16" >H</text>
<text font-size="18.000000" fill ="black" font-family="sans-serif"
x="10.000000" y="20.000000" ></text>
<title> - OBDepict</title>
</svg>
