<?xml version="1.0"?>
<svg xmlns="http://www.w3.org/2000/svg"
xmlns:xlink="http://www.w3.org/1999/xlink" xmlns:cml="http://www.xml-cml.org/schema" width="453.381" height="200.015" x="0" y="0" font-family="sans-serif" stroke="rgb(0,0,0)" stroke-width="1"  stroke-linecap="round">
<rect x="0%" y="0%" width="100%" height="100%" stroke-width="0" fill="rgb(255,255,255)"  />
<line x1="402.1" y1="86.5" x2="378.8" y2="100.0" stroke="rgb(0,0,0)"  stroke-width="1.0"/>
<line x1="404.2" y1="90.2" x2="380.9" y2="103.6" stroke="rgb(0,0,0)"  stroke-width="1.0"/>
<line x1="400.0" y1="82.9" x2="376.7" y2="96.4" stroke="rgb(0,0,0)"  stroke-width="1.0"/>
<line x1="274.8" y1="120.0" x2="298.3" y2="106.5" stroke="rgb(0,0,0)"  stroke-width="1.0"/>
<line x1="271.8" y1="147.0" x2="271.8" y2="120.0" stroke="rgb(0,0,0)"  stroke-width="1.0"/>
<line x1="277.8" y1="147.0" x2="277.8" y2="120.0" stroke="rgb(0,0,0)"  stroke-width="1.0"/>
<line x1="320.8" y1="106.5" x2="344.1" y2="120.0" stroke="rgb(0,0,0)"  stroke-width="1.0"/>
<line x1="170.9" y1="100.0" x2="194.2" y2="113.5" stroke="rgb(0,0,0)"  stroke-width="1.0"/>
<line x1="216.7" y1="113.5" x2="240.2" y2="100.0" stroke="rgb(0,0,0)"  stroke-width="1.0"/>
<line x1="240.2" y1="100.0" x2="274.8" y2="120.0" stroke="rgb(0,0,0)"  stroke-width="1.0"/>
<line x1="344.1" y1="120.0" x2="378.8" y2="100.0" stroke="rgb(0,0,0)"  stroke-width="1.0"/>
<line x1="40.0" y1="80.0" x2="63.6" y2="47.7" stroke="rgb(0,0,0)"  stroke-width="1.0"/>
<line x1="63.6" y1="47.7" x2="101.6" y2="60.0" stroke="rgb(0,0,0)"  stroke-width="1.0"/>
<line x1="101.6" y1="60.0" x2="101.6" y2="100.0" stroke="rgb(0,0,0)"  stroke-width="1.0"/>
<line x1="94.4" y1="66.0" x2="94.4" y2="94.0" stroke="rgb(0,0,0)"  stroke-width="1.0"/>
<line x1="101.6" y1="100.0" x2="63.6" y2="112.3" stroke="rgb(0,0,0)"  stroke-width="1.0"/>
<line x1="63.6" y1="112.3" x2="40.0" y2="80.0" stroke="rgb(0,0,0)"  stroke-width="1.0"/>
<line x1="101.6" y1="60.0" x2="136.2" y2="40.0" stroke="rgb(0,0,0)"  stroke-width="1.0"/>
<line x1="136.2" y1="40.0" x2="170.9" y2="60.0" stroke="rgb(0,0,0)"  stroke-width="1.0"/>
<line x1="137.8" y1="49.2" x2="162.1" y2="63.2" stroke="rgb(0,0,0)"  stroke-width="1.0"/>
<line x1="170.9" y1="60.0" x2="170.9" y2="100.0" stroke="rgb(0,0,0)"  stroke-width="1.0"/>
<line x1="170.9" y1="100.0" x2="136.2" y2="120.0" stroke="rgb(0,0,0)"  stroke-width="1.0"/>
<line x1="162.1" y1="96.8" x2="137.8" y2="110.8" stroke="rgb(0,0,0)"  stroke-width="1.0"/>
<line x1="136.2" y1="120.0" x2="101.6" y2="100.0" stroke="rgb(0,0,0)"  stroke-width="1.0"/>
<text x="407.381339" y="88.005143" fill="rgb(102,102,102)"  stroke="rgb(102,102,102)" stroke-width="1" font-size="16" >CH</text>
<text x="268.774427" y="168.015430" fill="rgb(255,12,12)"  stroke="rgb(255,12,12)" stroke-width="1" font-size="16" >O</text>
<text x="303.527987" y="108.007715" fill="rgb(12,12,255)"  stroke="rgb(12,12,255)" stroke-width="1" font-size="16" >N</text>
<text x="303.527987" y="92.007715" fill="rgb(12,12,255)"  stroke="rgb(12,12,255)" stroke-width="1" font-size="16" >H</text>
<text x="199.475821" y="128.010287" fill="rgb(255,12,12)"  stroke="rgb(255,12,12)" stroke-width="1" font-size="16" >O</text>
<text font-size="18.000000" fill ="black" font-family="sans-serif"
x="10.000000" y="20.000000" ></text>
<title> - OBDepict</title>
</svg>
