<?xml version="1.0"?>
<svg xmlns="http://www.w3.org/2000/svg"
xmlns:xlink="http://www.w3.org/1999/xlink" xmlns:cml="http://www.xml-cml.org/schema" width="287.974" height="479.979" x="0" y="0" font-family="sans-serif" stroke="rgb(0,0,0)" stroke-width="1"  stroke-linecap="round">
<rect x="0%" y="0%" width="100%" height="100%" stroke-width="0" fill="rgb(255,255,255)"  />
<line x1="145.6" y1="297.3" x2="180.2" y2="317.3" stroke="rgb(0,0,0)"  stroke-width="1.0"/>
<line x1="142.6" y1="302.5" x2="177.1" y2="322.5" stroke="rgb(0,0,0)"  stroke-width="1.0"/>
<line x1="178.6" y1="359.9" x2="178.6" y2="319.9" stroke="rgb(0,0,0)"  stroke-width="1.0"/>
<line x1="213.4" y1="299.9" x2="178.6" y2="319.9" stroke="rgb(0,0,0)"  stroke-width="1.0"/>
<line x1="236.7" y1="286.4" x2="213.4" y2="299.9" stroke="rgb(0,0,0)"  stroke-width="1.0"/>
<line x1="238.8" y1="290.1" x2="215.5" y2="303.5" stroke="rgb(0,0,0)"  stroke-width="1.0"/>
<line x1="234.6" y1="282.8" x2="211.3" y2="296.3" stroke="rgb(0,0,0)"  stroke-width="1.0"/>
<line x1="178.6" y1="79.8" x2="178.6" y2="119.6" stroke="rgb(0,0,0)"  stroke-width="1.0"/>
<line x1="178.6" y1="53.0" x2="178.6" y2="79.8" stroke="rgb(0,0,0)"  stroke-width="1.0"/>
<line x1="182.8" y1="53.0" x2="182.8" y2="79.8" stroke="rgb(0,0,0)"  stroke-width="1.0"/>
<line x1="174.4" y1="53.0" x2="174.4" y2="79.8" stroke="rgb(0,0,0)"  stroke-width="1.0"/>
<line x1="144.1" y1="259.9" x2="144.1" y2="299.9" stroke="rgb(0,0,0)"  stroke-width="1.0"/>
<line x1="153.8" y1="370.8" x2="177.1" y2="357.3" stroke="rgb(0,0,0)"  stroke-width="1.0"/>
<line x1="156.8" y1="376.0" x2="180.2" y2="362.5" stroke="rgb(0,0,0)"  stroke-width="1.0"/>
<line x1="202.1" y1="373.5" x2="178.6" y2="359.9" stroke="rgb(0,0,0)"  stroke-width="1.0"/>
<line x1="86.0" y1="186.4" x2="109.3" y2="199.9" stroke="rgb(0,0,0)"  stroke-width="1.0"/>
<line x1="144.1" y1="152.8" x2="144.1" y2="179.9" stroke="rgb(0,0,0)"  stroke-width="1.0"/>
<line x1="178.6" y1="119.6" x2="155.3" y2="133.3" stroke="rgb(0,0,0)"  stroke-width="1.0"/>
<line x1="213.4" y1="420.0" x2="213.4" y2="393.0" stroke="rgb(0,0,0)"  stroke-width="1.0"/>
<line x1="74.8" y1="139.8" x2="74.8" y2="166.9" stroke="rgb(0,0,0)"  stroke-width="1.0"/>
<line x1="51.2" y1="126.2" x2="74.8" y2="139.8" stroke="rgb(0,0,0)"  stroke-width="1.0"/>
<line x1="236.7" y1="433.5" x2="213.4" y2="420.0" stroke="rgb(0,0,0)"  stroke-width="1.0"/>
<line x1="109.3" y1="199.9" x2="144.1" y2="179.9" stroke="rgb(0,0,0)"  stroke-width="1.0"/>
<line x1="118.1" y1="203.1" x2="142.5" y2="189.1" stroke="rgb(0,0,0)"  stroke-width="1.0"/>
<line x1="144.1" y1="179.9" x2="178.6" y2="199.9" stroke="rgb(0,0,0)"  stroke-width="1.0"/>
<line x1="178.6" y1="199.9" x2="178.6" y2="239.9" stroke="rgb(0,0,0)"  stroke-width="1.0"/>
<line x1="171.4" y1="205.9" x2="171.4" y2="233.9" stroke="rgb(0,0,0)"  stroke-width="1.0"/>
<line x1="178.6" y1="239.9" x2="144.1" y2="259.9" stroke="rgb(0,0,0)"  stroke-width="1.0"/>
<line x1="144.1" y1="259.9" x2="109.3" y2="239.9" stroke="rgb(0,0,0)"  stroke-width="1.0"/>
<line x1="142.5" y1="250.7" x2="118.1" y2="236.6" stroke="rgb(0,0,0)"  stroke-width="1.0"/>
<line x1="109.3" y1="239.9" x2="109.3" y2="199.9" stroke="rgb(0,0,0)"  stroke-width="1.0"/>
<text x="241.973501" y="287.905619" fill="rgb(12,12,255)"  stroke="rgb(12,12,255)" stroke-width="1" font-size="16" >N</text>
<text x="172.647384" y="48.000000" fill="rgb(102,102,102)"  stroke="rgb(102,102,102)" stroke-width="1" font-size="16" >CH</text>
<text x="138.086190" y="387.951181" fill="rgb(255,12,12)"  stroke="rgb(255,12,12)" stroke-width="1" font-size="16" >O</text>
<text x="207.412307" y="387.951181" fill="rgb(255,12,12)"  stroke="rgb(255,12,12)" stroke-width="1" font-size="16" >O</text>
<text x="68.760073" y="187.860057" fill="rgb(255,12,12)"  stroke="rgb(255,12,12)" stroke-width="1" font-size="16" >O</text>
<text x="138.086190" y="147.841833" fill="rgb(255,12,12)"  stroke="rgb(255,12,12)" stroke-width="1" font-size="16" >O</text>
<text x="14.000000" y="127.628991" fill="rgb(102,102,102)"  stroke="rgb(102,102,102)" stroke-width="1" font-size="16" >H</text>
<text x="26.000000" y="131.308991" fill="rgb(102,102,102)"  stroke="rgb(102,102,102)" stroke-width="1" font-size="13" >3</text>
<text x="32.500000" y="127.628991" fill="rgb(102,102,102)"  stroke="rgb(102,102,102)" stroke-width="1" font-size="16" >C</text>
<text x="243.973501" y="447.978518" fill="rgb(102,102,102)"  stroke="rgb(102,102,102)" stroke-width="1" font-size="16" >CH</text>
<text x="267.973501" y="451.658518" fill="rgb(102,102,102)"  stroke="rgb(102,102,102)" stroke-width="1" font-size="13" >3</text>
<text font-size="18.000000" fill ="black" font-family="sans-serif"
x="10.000000" y="20.000000" ></text>
<title> - OBDepict</title>
</svg>
