<?xml version="1.0"?>
<svg xmlns="http://www.w3.org/2000/svg"
xmlns:xlink="http://www.w3.org/1999/xlink" xmlns:cml="http://www.xml-cml.org/schema" width="391.695" height="439.973" x="0" y="0" font-family="sans-serif" stroke="rgb(0,0,0)" stroke-width="1"  stroke-linecap="round">
<rect x="0%" y="0%" width="100%" height="100%" stroke-width="0" fill="rgb(255,255,255)"  />
<line x1="145.3" y1="157.4" x2="180.1" y2="177.4" stroke="rgb(0,0,0)"  stroke-width="1.0"/>
<line x1="142.3" y1="162.6" x2="177.1" y2="182.6" stroke="rgb(0,0,0)"  stroke-width="1.0"/>
<line x1="340.4" y1="393.5" x2="317.2" y2="380.0" stroke="rgb(0,0,0)"  stroke-width="1.0"/>
<line x1="338.3" y1="397.1" x2="315.0" y2="383.6" stroke="rgb(0,0,0)"  stroke-width="1.0"/>
<line x1="342.5" y1="389.8" x2="319.3" y2="376.3" stroke="rgb(0,0,0)"  stroke-width="1.0"/>
<line x1="178.6" y1="220.0" x2="201.9" y2="233.5" stroke="rgb(0,0,0)"  stroke-width="1.0"/>
<line x1="178.6" y1="180.0" x2="178.6" y2="220.0" stroke="rgb(0,0,0)"  stroke-width="1.0"/>
<line x1="247.9" y1="300.0" x2="247.9" y2="327.0" stroke="rgb(0,0,0)"  stroke-width="1.0"/>
<line x1="259.1" y1="346.5" x2="282.4" y2="360.0" stroke="rgb(0,0,0)"  stroke-width="1.0"/>
<line x1="282.4" y1="360.0" x2="317.2" y2="380.0" stroke="rgb(0,0,0)"  stroke-width="1.0"/>
<line x1="143.8" y1="120.0" x2="143.8" y2="160.0" stroke="rgb(0,0,0)"  stroke-width="1.0"/>
<line x1="153.6" y1="230.9" x2="177.1" y2="217.4" stroke="rgb(0,0,0)"  stroke-width="1.0"/>
<line x1="156.6" y1="236.1" x2="180.1" y2="222.6" stroke="rgb(0,0,0)"  stroke-width="1.0"/>
<line x1="272.7" y1="289.1" x2="249.4" y2="302.6" stroke="rgb(0,0,0)"  stroke-width="1.0"/>
<line x1="269.7" y1="283.9" x2="246.4" y2="297.4" stroke="rgb(0,0,0)"  stroke-width="1.0"/>
<line x1="213.1" y1="253.0" x2="213.1" y2="280.0" stroke="rgb(0,0,0)"  stroke-width="1.0"/>
<line x1="213.1" y1="280.0" x2="247.9" y2="300.0" stroke="rgb(0,0,0)"  stroke-width="1.0"/>
<line x1="302.4" y1="325.2" x2="282.4" y2="360.0" stroke="rgb(0,0,0)"  stroke-width="1.0"/>
<line x1="262.4" y1="394.5" x2="282.4" y2="360.0" stroke="rgb(0,0,0)"  stroke-width="1.0"/>
<line x1="235.4" y1="394.5" x2="262.4" y2="394.5" stroke="rgb(0,0,0)"  stroke-width="1.0"/>
<line x1="329.4" y1="325.2" x2="302.4" y2="325.2" stroke="rgb(0,0,0)"  stroke-width="1.0"/>
<line x1="109.3" y1="100.0" x2="86.0" y2="113.5" stroke="rgb(0,0,0)"  stroke-width="1.0"/>
<line x1="63.3" y1="113.4" x2="40.0" y2="100.0" stroke="rgb(0,0,0)"  stroke-width="1.0"/>
<line x1="65.1" y1="106.2" x2="48.8" y2="96.7" stroke="rgb(0,0,0)"  stroke-width="1.0"/>
<line x1="40.0" y1="100.0" x2="40.0" y2="60.0" stroke="rgb(0,0,0)"  stroke-width="1.0"/>
<line x1="40.0" y1="60.0" x2="74.7" y2="40.0" stroke="rgb(0,0,0)"  stroke-width="1.0"/>
<line x1="48.8" y1="63.2" x2="73.1" y2="49.2" stroke="rgb(0,0,0)"  stroke-width="1.0"/>
<line x1="74.7" y1="40.0" x2="109.3" y2="60.0" stroke="rgb(0,0,0)"  stroke-width="1.0"/>
<line x1="109.3" y1="60.0" x2="109.3" y2="100.0" stroke="rgb(0,0,0)"  stroke-width="1.0"/>
<line x1="178.6" y1="60.0" x2="178.6" y2="100.0" stroke="rgb(0,0,0)"  stroke-width="1.0"/>
<line x1="171.4" y1="66.0" x2="171.4" y2="94.0" stroke="rgb(0,0,0)"  stroke-width="1.0"/>
<line x1="178.6" y1="100.0" x2="143.8" y2="120.0" stroke="rgb(0,0,0)"  stroke-width="1.0"/>
<line x1="143.8" y1="120.0" x2="109.3" y2="100.0" stroke="rgb(0,0,0)"  stroke-width="1.0"/>
<line x1="142.2" y1="110.8" x2="118.1" y2="96.8" stroke="rgb(0,0,0)"  stroke-width="1.0"/>
<line x1="109.3" y1="60.0" x2="143.8" y2="40.0" stroke="rgb(0,0,0)"  stroke-width="1.0"/>
<line x1="118.1" y1="63.2" x2="142.2" y2="49.2" stroke="rgb(0,0,0)"  stroke-width="1.0"/>
<line x1="143.8" y1="40.0" x2="178.6" y2="60.0" stroke="rgb(0,0,0)"  stroke-width="1.0"/>
<text x="345.695322" y="407.972900" fill="rgb(102,102,102)"  stroke="rgb(102,102,102)" stroke-width="1" font-size="16" >CH</text>
<text x="229.863139" y="347.977416" fill="rgb(12,12,255)"  stroke="rgb(12,12,255)" stroke-width="1" font-size="16" >HN</text>
<text x="68.746475" y="127.993978" fill="rgb(12,12,255)"  stroke="rgb(12,12,255)" stroke-width="1" font-size="16" >N</text>
<text x="137.832183" y="247.984944" fill="rgb(255,12,12)"  stroke="rgb(255,12,12)" stroke-width="1" font-size="16" >O</text>
<text x="276.405993" y="287.981933" fill="rgb(255,12,12)"  stroke="rgb(255,12,12)" stroke-width="1" font-size="16" >O</text>
<text x="207.116664" y="247.984944" fill="rgb(255,12,12)"  stroke="rgb(255,12,12)" stroke-width="1" font-size="16" >O</text>
<text x="196.410510" y="402.518765" fill="rgb(102,102,102)"  stroke="rgb(102,102,102)" stroke-width="1" font-size="16" >H</text>
<text x="208.410510" y="406.198765" fill="rgb(102,102,102)"  stroke="rgb(102,102,102)" stroke-width="1" font-size="13" >3</text>
<text x="214.910510" y="402.518765" fill="rgb(102,102,102)"  stroke="rgb(102,102,102)" stroke-width="1" font-size="16" >C</text>
<text x="338.401476" y="333.229436" fill="rgb(102,102,102)"  stroke="rgb(102,102,102)" stroke-width="1" font-size="16" >CH</text>
<text x="362.401476" y="336.909436" fill="rgb(102,102,102)"  stroke="rgb(102,102,102)" stroke-width="1" font-size="13" >3</text>
<text font-size="18.000000" fill ="black" font-family="sans-serif"
x="10.000000" y="20.000000" ></text>
<title> - OBDepict</title>
</svg>
