<?xml version="1.0"?>
<svg xmlns="http://www.w3.org/2000/svg"
xmlns:xlink="http://www.w3.org/1999/xlink" xmlns:cml="http://www.xml-cml.org/schema" width="513.077" height="373.696" x="0" y="0" font-family="sans-serif" stroke="rgb(0,0,0)" stroke-width="1"  stroke-linecap="round">
<rect x="0%" y="0%" width="100%" height="100%" stroke-width="0" fill="rgb(255,255,255)"  />
<line x1="266.4" y1="207.5" x2="239.5" y2="207.2" stroke="rgb(0,0,0)"  stroke-width="1.0"/>
<line x1="266.5" y1="201.5" x2="239.5" y2="201.2" stroke="rgb(0,0,0)"  stroke-width="1.0"/>
<line x1="85.2" y1="170.5" x2="109.0" y2="184.2" stroke="rgb(0,0,0)"  stroke-width="1.0"/>
<line x1="299.4" y1="170.1" x2="285.9" y2="193.3" stroke="rgb(0,0,0)"  stroke-width="1.0"/>
<line x1="339.3" y1="170.1" x2="299.4" y2="170.1" stroke="rgb(0,0,0)"  stroke-width="1.0"/>
<line x1="420.0" y1="100.9" x2="399.9" y2="135.2" stroke="rgb(0,0,0)"  stroke-width="1.0"/>
<line x1="201.6" y1="304.0" x2="228.2" y2="274.4" stroke="rgb(0,0,0)"  stroke-width="1.0"/>
<line x1="183.6" y1="324.0" x2="201.6" y2="304.0" stroke="rgb(0,0,0)"  stroke-width="1.0"/>
<line x1="180.5" y1="321.2" x2="198.4" y2="301.2" stroke="rgb(0,0,0)"  stroke-width="1.0"/>
<line x1="186.8" y1="326.8" x2="204.7" y2="306.9" stroke="rgb(0,0,0)"  stroke-width="1.0"/>
<line x1="90.7" y1="143.0" x2="83.3" y2="154.6" stroke="rgb(0,0,0)"  stroke-width="1.0"/>
<line x1="85.6" y1="139.8" x2="78.3" y2="151.5" stroke="rgb(0,0,0)"  stroke-width="1.0"/>
<line x1="57.0" y1="185.5" x2="64.5" y2="173.5" stroke="rgb(0,0,0)"  stroke-width="1.0"/>
<line x1="62.1" y1="188.7" x2="69.6" y2="176.7" stroke="rgb(0,0,0)"  stroke-width="1.0"/>
<line x1="288.5" y1="145.4" x2="302.0" y2="168.6" stroke="rgb(0,0,0)"  stroke-width="1.0"/>
<line x1="283.3" y1="148.4" x2="296.8" y2="171.6" stroke="rgb(0,0,0)"  stroke-width="1.0"/>
<line x1="51.1" y1="149.9" x2="62.8" y2="157.2" stroke="rgb(0,0,0)"  stroke-width="1.0"/>
<line x1="228.2" y1="274.4" x2="220.0" y2="248.7" stroke="rgb(0,0,0)"  stroke-width="1.0"/>
<line x1="239.5" y1="204.2" x2="223.7" y2="182.4" stroke="rgb(0,0,0)"  stroke-width="1.0"/>
<line x1="203.7" y1="175.9" x2="178.0" y2="184.2" stroke="rgb(0,0,0)"  stroke-width="1.0"/>
<line x1="178.0" y1="184.2" x2="178.0" y2="224.2" stroke="rgb(0,0,0)"  stroke-width="1.0"/>
<line x1="185.2" y1="190.2" x2="185.2" y2="218.2" stroke="rgb(0,0,0)"  stroke-width="1.0"/>
<line x1="178.0" y1="224.2" x2="203.7" y2="232.3" stroke="rgb(0,0,0)"  stroke-width="1.0"/>
<line x1="223.8" y1="225.8" x2="239.5" y2="204.2" stroke="rgb(0,0,0)"  stroke-width="1.0"/>
<line x1="420.0" y1="100.9" x2="447.0" y2="101.1" stroke="rgb(0,0,0)"  stroke-width="1.0"/>
<line x1="464.2" y1="88.8" x2="473.1" y2="63.4" stroke="rgb(0,0,0)"  stroke-width="1.0"/>
<line x1="473.1" y1="63.4" x2="440.6" y2="40.0" stroke="rgb(0,0,0)"  stroke-width="1.0"/>
<line x1="464.0" y1="65.7" x2="441.3" y2="49.3" stroke="rgb(0,0,0)"  stroke-width="1.0"/>
<line x1="440.6" y1="40.0" x2="407.9" y2="62.8" stroke="rgb(0,0,0)"  stroke-width="1.0"/>
<line x1="407.9" y1="62.8" x2="420.0" y2="100.9" stroke="rgb(0,0,0)"  stroke-width="1.0"/>
<line x1="416.6" y1="66.3" x2="425.1" y2="93.0" stroke="rgb(0,0,0)"  stroke-width="1.0"/>
<line x1="339.3" y1="170.1" x2="359.9" y2="135.2" stroke="rgb(0,0,0)"  stroke-width="1.0"/>
<line x1="348.6" y1="168.6" x2="363.1" y2="144.0" stroke="rgb(0,0,0)"  stroke-width="1.0"/>
<line x1="359.9" y1="135.2" x2="399.9" y2="135.2" stroke="rgb(0,0,0)"  stroke-width="1.0"/>
<line x1="399.9" y1="135.2" x2="413.2" y2="158.7" stroke="rgb(0,0,0)"  stroke-width="1.0"/>
<line x1="396.6" y1="144.0" x2="406.0" y2="160.6" stroke="rgb(0,0,0)"  stroke-width="1.0"/>
<line x1="413.2" y1="181.5" x2="399.5" y2="204.8" stroke="rgb(0,0,0)"  stroke-width="1.0"/>
<line x1="399.5" y1="204.8" x2="359.5" y2="204.8" stroke="rgb(0,0,0)"  stroke-width="1.0"/>
<line x1="393.5" y1="197.6" x2="365.5" y2="197.6" stroke="rgb(0,0,0)"  stroke-width="1.0"/>
<line x1="359.5" y1="204.8" x2="339.3" y2="170.1" stroke="rgb(0,0,0)"  stroke-width="1.0"/>
<line x1="419.4" y1="239.7" x2="399.5" y2="274.4" stroke="rgb(0,0,0)"  stroke-width="1.0"/>
<line x1="410.2" y1="241.3" x2="396.2" y2="265.6" stroke="rgb(0,0,0)"  stroke-width="1.0"/>
<line x1="399.5" y1="274.4" x2="359.5" y2="274.4" stroke="rgb(0,0,0)"  stroke-width="1.0"/>
<line x1="359.5" y1="274.4" x2="338.9" y2="239.3" stroke="rgb(0,0,0)"  stroke-width="1.0"/>
<line x1="362.7" y1="265.6" x2="348.2" y2="240.8" stroke="rgb(0,0,0)"  stroke-width="1.0"/>
<line x1="338.9" y1="239.3" x2="359.5" y2="204.8" stroke="rgb(0,0,0)"  stroke-width="1.0"/>
<line x1="399.5" y1="204.8" x2="419.4" y2="239.7" stroke="rgb(0,0,0)"  stroke-width="1.0"/>
<line x1="109.0" y1="184.2" x2="143.5" y2="164.3" stroke="rgb(0,0,0)"  stroke-width="1.0"/>
<line x1="117.8" y1="187.5" x2="141.9" y2="173.5" stroke="rgb(0,0,0)"  stroke-width="1.0"/>
<line x1="143.5" y1="164.3" x2="178.0" y2="184.2" stroke="rgb(0,0,0)"  stroke-width="1.0"/>
<line x1="178.0" y1="224.2" x2="143.5" y2="244.1" stroke="rgb(0,0,0)"  stroke-width="1.0"/>
<line x1="143.5" y1="244.1" x2="109.0" y2="224.2" stroke="rgb(0,0,0)"  stroke-width="1.0"/>
<line x1="141.9" y1="234.9" x2="117.8" y2="220.9" stroke="rgb(0,0,0)"  stroke-width="1.0"/>
<line x1="109.0" y1="224.2" x2="109.0" y2="184.2" stroke="rgb(0,0,0)"  stroke-width="1.0"/>
<text x="273.431922" y="212.597948" fill="rgb(12,12,255)"  stroke="rgb(12,12,255)" stroke-width="1" font-size="16" >N</text>
<text x="67.887813" y="172.053601" fill="rgb(178,178,0)"  stroke="rgb(178,178,0)" stroke-width="1" font-size="16" >S</text>
<text x="210.095599" y="244.268530" fill="rgb(12,12,255)"  stroke="rgb(12,12,255)" stroke-width="1" font-size="16" >N</text>
<text x="210.095599" y="179.920415" fill="rgb(178,178,0)"  stroke="rgb(178,178,0)" stroke-width="1" font-size="16" >S</text>
<text x="413.824289" y="178.308323" fill="rgb(12,12,255)"  stroke="rgb(12,12,255)" stroke-width="1" font-size="16" >N</text>
<text x="453.966824" y="109.119091" fill="rgb(178,178,0)"  stroke="rgb(178,178,0)" stroke-width="1" font-size="16" >S</text>
<text x="156.946112" y="341.695992" fill="rgb(102,102,102)"  stroke="rgb(102,102,102)" stroke-width="1" font-size="16" >HC</text>
<text x="89.067696" y="138.369115" fill="rgb(255,12,12)"  stroke="rgb(255,12,12)" stroke-width="1" font-size="16" >O</text>
<text x="46.707930" y="206.144741" fill="rgb(255,12,12)"  stroke="rgb(255,12,12)" stroke-width="1" font-size="16" >O</text>
<text x="273.431922" y="143.612044" fill="rgb(255,12,12)"  stroke="rgb(255,12,12)" stroke-width="1" font-size="16" >O</text>
<text x="14.000000" y="151.077045" fill="rgb(12,12,255)"  stroke="rgb(12,12,255)" stroke-width="1" font-size="16" >H</text>
<text x="26.000000" y="154.757045" fill="rgb(12,12,255)"  stroke="rgb(12,12,255)" stroke-width="1" font-size="13" >2</text>
<text x="32.500000" y="151.077045" fill="rgb(12,12,255)"  stroke="rgb(12,12,255)" stroke-width="1" font-size="16" >N</text>
<text font-size="18.000000" fill ="black" font-family="sans-serif"
x="10.000000" y="20.000000" ></text>
<title> - OBDepict</title>
</svg>
