<?xml version="1.0"?>
<svg xmlns="http://www.w3.org/2000/svg"
xmlns:xlink="http://www.w3.org/1999/xlink" xmlns:cml="http://www.xml-cml.org/schema" width="402.231" height="394.229" x="0" y="0" font-family="sans-serif" stroke="rgb(0,0,0)" stroke-width="1"  stroke-linecap="round">
<rect x="0%" y="0%" width="100%" height="100%" stroke-width="0" fill="rgb(255,255,255)"  />
<line x1="220.4" y1="156.2" x2="179.9" y2="193.4" stroke="rgb(0,0,0)"  stroke-width="1.0"/>
<line x1="266.2" y1="164.7" x2="220.4" y2="156.2" stroke="rgb(0,0,0)"  stroke-width="1.0"/>
<line x1="290.1" y1="133.2" x2="266.2" y2="164.7" stroke="rgb(0,0,0)"  stroke-width="1.0"/>
<line x1="167.9" y1="324.1" x2="193.0" y2="294.2" stroke="rgb(0,0,0)"  stroke-width="1.0"/>
<line x1="150.8" y1="344.3" x2="167.9" y2="324.1" stroke="rgb(0,0,0)"  stroke-width="1.0"/>
<line x1="147.5" y1="341.6" x2="164.7" y2="321.3" stroke="rgb(0,0,0)"  stroke-width="1.0"/>
<line x1="154.0" y1="347.0" x2="171.1" y2="326.8" stroke="rgb(0,0,0)"  stroke-width="1.0"/>
<line x1="226.8" y1="228.6" x2="202.0" y2="226.5" stroke="rgb(0,0,0)"  stroke-width="1.0"/>
<line x1="227.3" y1="222.6" x2="202.5" y2="220.5" stroke="rgb(0,0,0)"  stroke-width="1.0"/>
<line x1="271.1" y1="181.8" x2="263.5" y2="166.0" stroke="rgb(0,0,0)"  stroke-width="1.0"/>
<line x1="276.5" y1="179.2" x2="268.9" y2="163.4" stroke="rgb(0,0,0)"  stroke-width="1.0"/>
<line x1="193.0" y1="294.2" x2="184.2" y2="269.5" stroke="rgb(0,0,0)"  stroke-width="1.0"/>
<line x1="166.6" y1="163.4" x2="179.9" y2="193.4" stroke="rgb(0,0,0)"  stroke-width="1.0"/>
<line x1="51.3" y1="192.2" x2="74.3" y2="205.4" stroke="rgb(0,0,0)"  stroke-width="1.0"/>
<line x1="249.3" y1="93.6" x2="275.0" y2="97.2" stroke="rgb(0,0,0)"  stroke-width="1.0"/>
<line x1="339.3" y1="163.2" x2="329.2" y2="138.4" stroke="rgb(0,0,0)"  stroke-width="1.0"/>
<line x1="354.3" y1="50.3" x2="338.4" y2="70.8" stroke="rgb(0,0,0)"  stroke-width="1.0"/>
<line x1="202.2" y1="223.5" x2="187.1" y2="246.4" stroke="rgb(0,0,0)"  stroke-width="1.0"/>
<line x1="167.5" y1="253.2" x2="142.5" y2="245.0" stroke="rgb(0,0,0)"  stroke-width="1.0"/>
<line x1="142.5" y1="245.0" x2="142.5" y2="205.4" stroke="rgb(0,0,0)"  stroke-width="1.0"/>
<line x1="149.7" y1="239.0" x2="149.7" y2="211.4" stroke="rgb(0,0,0)"  stroke-width="1.0"/>
<line x1="142.5" y1="205.4" x2="179.9" y2="193.4" stroke="rgb(0,0,0)"  stroke-width="1.0"/>
<line x1="179.9" y1="193.4" x2="202.2" y2="223.5" stroke="rgb(0,0,0)"  stroke-width="1.0"/>
<line x1="290.1" y1="133.2" x2="329.2" y2="138.4" stroke="rgb(0,0,0)"  stroke-width="1.0"/>
<line x1="329.2" y1="138.4" x2="353.1" y2="107.7" stroke="rgb(0,0,0)"  stroke-width="1.0"/>
<line x1="327.2" y1="129.2" x2="343.7" y2="108.0" stroke="rgb(0,0,0)"  stroke-width="1.0"/>
<line x1="353.1" y1="107.7" x2="338.4" y2="70.8" stroke="rgb(0,0,0)"  stroke-width="1.0"/>
<line x1="338.4" y1="70.8" x2="299.2" y2="65.7" stroke="rgb(0,0,0)"  stroke-width="1.0"/>
<line x1="331.5" y1="77.2" x2="304.2" y2="73.6" stroke="rgb(0,0,0)"  stroke-width="1.0"/>
<line x1="299.2" y1="65.7" x2="275.0" y2="97.2" stroke="rgb(0,0,0)"  stroke-width="1.0"/>
<line x1="275.0" y1="97.2" x2="290.1" y2="133.2" stroke="rgb(0,0,0)"  stroke-width="1.0"/>
<line x1="284.0" y1="99.9" x2="294.4" y2="124.9" stroke="rgb(0,0,0)"  stroke-width="1.0"/>
<line x1="142.5" y1="245.0" x2="108.2" y2="264.7" stroke="rgb(0,0,0)"  stroke-width="1.0"/>
<line x1="108.2" y1="264.7" x2="74.3" y2="245.0" stroke="rgb(0,0,0)"  stroke-width="1.0"/>
<line x1="106.6" y1="255.5" x2="83.2" y2="241.8" stroke="rgb(0,0,0)"  stroke-width="1.0"/>
<line x1="74.3" y1="245.0" x2="74.3" y2="205.4" stroke="rgb(0,0,0)"  stroke-width="1.0"/>
<line x1="74.3" y1="205.4" x2="108.2" y2="185.7" stroke="rgb(0,0,0)"  stroke-width="1.0"/>
<line x1="83.2" y1="208.6" x2="106.6" y2="194.9" stroke="rgb(0,0,0)"  stroke-width="1.0"/>
<line x1="108.2" y1="185.7" x2="142.5" y2="205.4" stroke="rgb(0,0,0)"  stroke-width="1.0"/>
<text x="173.866842" y="265.208809" fill="rgb(12,12,255)"  stroke="rgb(12,12,255)" stroke-width="1" font-size="16" >N</text>
<text x="124.359579" y="362.228679" fill="rgb(102,102,102)"  stroke="rgb(102,102,102)" stroke-width="1" font-size="16" >HC</text>
<text x="234.040329" y="234.703030" fill="rgb(255,12,12)"  stroke="rgb(255,12,12)" stroke-width="1" font-size="16" >O</text>
<text x="273.386558" y="200.198456" fill="rgb(255,12,12)"  stroke="rgb(255,12,12)" stroke-width="1" font-size="16" >O</text>
<text x="143.362237" y="159.520891" fill="rgb(255,12,12)"  stroke="rgb(255,12,12)" stroke-width="1" font-size="16" >HO</text>
<text x="22.000000" y="193.695026" fill="rgb(165,40,40)"  stroke="rgb(165,40,40)" stroke-width="1" font-size="16" >Br</text>
<text x="210.376762" y="99.845457" fill="rgb(102,102,102)"  stroke="rgb(102,102,102)" stroke-width="1" font-size="16" >H</text>
<text x="222.376762" y="103.525457" fill="rgb(102,102,102)"  stroke="rgb(102,102,102)" stroke-width="1" font-size="13" >3</text>
<text x="228.876762" y="99.845457" fill="rgb(102,102,102)"  stroke="rgb(102,102,102)" stroke-width="1" font-size="16" >C</text>
<text x="340.229297" y="183.192801" fill="rgb(102,102,102)"  stroke="rgb(102,102,102)" stroke-width="1" font-size="16" >CH</text>
<text x="364.229297" y="186.872801" fill="rgb(102,102,102)"  stroke="rgb(102,102,102)" stroke-width="1" font-size="13" >3</text>
<text x="358.231059" y="48.000000" fill="rgb(102,102,102)"  stroke="rgb(102,102,102)" stroke-width="1" font-size="16" >CH</text>
<text x="382.231059" y="51.680000" fill="rgb(102,102,102)"  stroke="rgb(102,102,102)" stroke-width="1" font-size="13" >3</text>
<text font-size="18.000000" fill ="black" font-family="sans-serif"
x="10.000000" y="20.000000" ></text>
<title> - OBDepict</title>
</svg>
