<?xml version="1.0"?>
<svg xmlns="http://www.w3.org/2000/svg"
xmlns:xlink="http://www.w3.org/1999/xlink" xmlns:cml="http://www.xml-cml.org/schema" width="412.307" height="500.374" x="0" y="0" font-family="sans-serif" stroke="rgb(0,0,0)" stroke-width="1"  stroke-linecap="round">
<rect x="0%" y="0%" width="100%" height="100%" stroke-width="0" fill="rgb(255,255,255)"  />
<line x1="200.5" y1="380.8" x2="162.4" y2="393.1" stroke="rgb(0,0,0)"  stroke-width="1.0"/>
<line x1="198.7" y1="375.1" x2="160.6" y2="387.4" stroke="rgb(0,0,0)"  stroke-width="1.0"/>
<line x1="50.7" y1="338.9" x2="59.1" y2="377.9" stroke="rgb(0,0,0)"  stroke-width="1.0"/>
<line x1="43.5" y1="312.7" x2="50.7" y2="338.9" stroke="rgb(0,0,0)"  stroke-width="1.0"/>
<line x1="47.5" y1="311.6" x2="54.7" y2="337.7" stroke="rgb(0,0,0)"  stroke-width="1.0"/>
<line x1="39.4" y1="313.8" x2="46.6" y2="340.0" stroke="rgb(0,0,0)"  stroke-width="1.0"/>
<line x1="279.4" y1="169.6" x2="270.9" y2="208.9" stroke="rgb(0,0,0)"  stroke-width="1.0"/>
<line x1="91.0" y1="448.1" x2="106.9" y2="426.6" stroke="rgb(0,0,0)"  stroke-width="1.0"/>
<line x1="95.9" y1="451.7" x2="111.7" y2="430.1" stroke="rgb(0,0,0)"  stroke-width="1.0"/>
<line x1="132.0" y1="339.7" x2="132.3" y2="366.6" stroke="rgb(0,0,0)"  stroke-width="1.0"/>
<line x1="126.0" y1="339.8" x2="126.3" y2="366.7" stroke="rgb(0,0,0)"  stroke-width="1.0"/>
<line x1="208.1" y1="338.7" x2="199.6" y2="377.9" stroke="rgb(0,0,0)"  stroke-width="1.0"/>
<line x1="304.9" y1="161.4" x2="279.4" y2="169.6" stroke="rgb(0,0,0)"  stroke-width="1.0"/>
<line x1="59.1" y1="377.9" x2="84.5" y2="386.2" stroke="rgb(0,0,0)"  stroke-width="1.0"/>
<line x1="230.6" y1="233.7" x2="225.0" y2="260.3" stroke="rgb(0,0,0)"  stroke-width="1.0"/>
<line x1="261.5" y1="149.6" x2="281.4" y2="167.3" stroke="rgb(0,0,0)"  stroke-width="1.0"/>
<line x1="257.5" y1="154.1" x2="277.4" y2="171.8" stroke="rgb(0,0,0)"  stroke-width="1.0"/>
<line x1="270.9" y1="208.9" x2="245.6" y2="217.0" stroke="rgb(0,0,0)"  stroke-width="1.0"/>
<line x1="325.8" y1="119.0" x2="320.1" y2="144.8" stroke="rgb(0,0,0)"  stroke-width="1.0"/>
<line x1="166.8" y1="254.8" x2="186.7" y2="272.8" stroke="rgb(0,0,0)"  stroke-width="1.0"/>
<line x1="131.6" y1="254.4" x2="144.7" y2="250.2" stroke="rgb(0,0,0)"  stroke-width="1.0"/>
<line x1="100.9" y1="402.6" x2="109.3" y2="428.3" stroke="rgb(0,0,0)"  stroke-width="1.0"/>
<line x1="109.3" y1="428.3" x2="136.2" y2="428.3" stroke="rgb(0,0,0)"  stroke-width="1.0"/>
<line x1="153.2" y1="416.0" x2="161.5" y2="390.2" stroke="rgb(0,0,0)"  stroke-width="1.0"/>
<line x1="161.5" y1="390.2" x2="129.3" y2="366.7" stroke="rgb(0,0,0)"  stroke-width="1.0"/>
<line x1="129.3" y1="366.7" x2="107.3" y2="382.6" stroke="rgb(0,0,0)"  stroke-width="1.0"/>
<line x1="186.7" y1="272.8" x2="225.0" y2="260.3" stroke="rgb(0,0,0)"  stroke-width="1.0"/>
<line x1="194.6" y1="277.7" x2="221.5" y2="269.0" stroke="rgb(0,0,0)"  stroke-width="1.0"/>
<line x1="225.0" y1="260.3" x2="254.6" y2="286.9" stroke="rgb(0,0,0)"  stroke-width="1.0"/>
<line x1="254.6" y1="286.9" x2="246.2" y2="326.2" stroke="rgb(0,0,0)"  stroke-width="1.0"/>
<line x1="246.3" y1="291.2" x2="240.4" y2="318.8" stroke="rgb(0,0,0)"  stroke-width="1.0"/>
<line x1="246.2" y1="326.2" x2="208.1" y2="338.7" stroke="rgb(0,0,0)"  stroke-width="1.0"/>
<line x1="208.1" y1="338.7" x2="178.2" y2="311.7" stroke="rgb(0,0,0)"  stroke-width="1.0"/>
<line x1="208.5" y1="329.3" x2="187.5" y2="310.3" stroke="rgb(0,0,0)"  stroke-width="1.0"/>
<line x1="178.2" y1="311.7" x2="186.7" y2="272.8" stroke="rgb(0,0,0)"  stroke-width="1.0"/>
<line x1="325.8" y1="119.0" x2="295.7" y2="91.8" stroke="rgb(0,0,0)"  stroke-width="1.0"/>
<line x1="326.1" y1="109.6" x2="305.0" y2="90.5" stroke="rgb(0,0,0)"  stroke-width="1.0"/>
<line x1="295.7" y1="91.8" x2="304.2" y2="52.5" stroke="rgb(0,0,0)"  stroke-width="1.0"/>
<line x1="304.2" y1="52.5" x2="342.3" y2="40.0" stroke="rgb(0,0,0)"  stroke-width="1.0"/>
<line x1="312.1" y1="57.5" x2="338.8" y2="48.7" stroke="rgb(0,0,0)"  stroke-width="1.0"/>
<line x1="342.3" y1="40.0" x2="372.3" y2="67.0" stroke="rgb(0,0,0)"  stroke-width="1.0"/>
<line x1="372.3" y1="67.0" x2="364.0" y2="105.9" stroke="rgb(0,0,0)"  stroke-width="1.0"/>
<line x1="364.0" y1="71.4" x2="358.3" y2="98.5" stroke="rgb(0,0,0)"  stroke-width="1.0"/>
<line x1="364.0" y1="105.9" x2="325.8" y2="119.0" stroke="rgb(0,0,0)"  stroke-width="1.0"/>
<text x="90.831488" y="398.244631" fill="rgb(12,12,255)"  stroke="rgb(12,12,255)" stroke-width="1" font-size="16" >N</text>
<text x="143.222180" y="436.331494" fill="rgb(178,178,0)"  stroke="rgb(178,178,0)" stroke-width="1" font-size="16" >S</text>
<text x="22.000000" y="308.165484" fill="rgb(102,102,102)"  stroke="rgb(102,102,102)" stroke-width="1" font-size="16" >HC</text>
<text x="79.744076" y="468.374211" fill="rgb(255,12,12)"  stroke="rgb(255,12,12)" stroke-width="1" font-size="16" >O</text>
<text x="122.869346" y="334.766527" fill="rgb(255,12,12)"  stroke="rgb(255,12,12)" stroke-width="1" font-size="16" >O</text>
<text x="311.292183" y="165.486723" fill="rgb(12,12,255)"  stroke="rgb(12,12,255)" stroke-width="1" font-size="16" >NH</text>
<text x="227.257182" y="228.964828" fill="rgb(255,12,12)"  stroke="rgb(255,12,12)" stroke-width="1" font-size="16" >O</text>
<text x="243.781409" y="151.178035" fill="rgb(255,12,12)"  stroke="rgb(255,12,12)" stroke-width="1" font-size="16" >O</text>
<text x="151.083456" y="254.156865" fill="rgb(255,12,12)"  stroke="rgb(255,12,12)" stroke-width="1" font-size="16" >O</text>
<text x="93.195798" y="266.449219" fill="rgb(102,102,102)"  stroke="rgb(102,102,102)" stroke-width="1" font-size="16" >H</text>
<text x="105.195798" y="270.129219" fill="rgb(102,102,102)"  stroke="rgb(102,102,102)" stroke-width="1" font-size="13" >3</text>
<text x="111.695798" y="266.449219" fill="rgb(102,102,102)"  stroke="rgb(102,102,102)" stroke-width="1" font-size="16" >C</text>
<text font-size="18.000000" fill ="black" font-family="sans-serif"
x="10.000000" y="20.000000" ></text>
<title> - OBDepict</title>
</svg>
