<?xml version="1.0"?>
<svg xmlns="http://www.w3.org/2000/svg"
xmlns:xlink="http://www.w3.org/1999/xlink" xmlns:cml="http://www.xml-cml.org/schema" width="471.78" height="446.928" x="0" y="0" font-family="sans-serif" stroke="rgb(0,0,0)" stroke-width="1"  stroke-linecap="round">
<rect x="0%" y="0%" width="100%" height="100%" stroke-width="0" fill="rgb(255,255,255)"  />
<line x1="388.1" y1="195.6" x2="391.0" y2="222.5" stroke="rgb(0,0,0)"  stroke-width="1.0"/>
<line x1="283.3" y1="300.6" x2="261.4" y2="316.6" stroke="rgb(0,0,0)"  stroke-width="1.0"/>
<line x1="330.3" y1="309.3" x2="305.6" y2="298.3" stroke="rgb(0,0,0)"  stroke-width="1.0"/>
<line x1="160.0" y1="336.6" x2="200.0" y2="336.6" stroke="rgb(0,0,0)"  stroke-width="1.0"/>
<line x1="362.9" y1="285.9" x2="330.3" y2="309.3" stroke="rgb(0,0,0)"  stroke-width="1.0"/>
<line x1="410.8" y1="79.8" x2="415.0" y2="119.4" stroke="rgb(0,0,0)"  stroke-width="1.0"/>
<line x1="407.9" y1="52.9" x2="410.8" y2="79.8" stroke="rgb(0,0,0)"  stroke-width="1.0"/>
<line x1="412.1" y1="52.5" x2="414.9" y2="79.4" stroke="rgb(0,0,0)"  stroke-width="1.0"/>
<line x1="403.7" y1="53.4" x2="406.6" y2="80.2" stroke="rgb(0,0,0)"  stroke-width="1.0"/>
<line x1="413.9" y1="182.9" x2="400.0" y2="184.3" stroke="rgb(0,0,0)"  stroke-width="1.0"/>
<line x1="413.3" y1="176.9" x2="399.3" y2="178.4" stroke="rgb(0,0,0)"  stroke-width="1.0"/>
<line x1="359.5" y1="182.5" x2="373.5" y2="181.0" stroke="rgb(0,0,0)"  stroke-width="1.0"/>
<line x1="360.2" y1="188.5" x2="374.1" y2="187.0" stroke="rgb(0,0,0)"  stroke-width="1.0"/>
<line x1="384.0" y1="155.8" x2="385.4" y2="169.7" stroke="rgb(0,0,0)"  stroke-width="1.0"/>
<line x1="330.2" y1="336.5" x2="327.4" y2="309.7" stroke="rgb(0,0,0)"  stroke-width="1.0"/>
<line x1="336.2" y1="335.9" x2="333.3" y2="309.0" stroke="rgb(0,0,0)"  stroke-width="1.0"/>
<line x1="86.5" y1="394.6" x2="100.0" y2="371.2" stroke="rgb(0,0,0)"  stroke-width="1.0"/>
<line x1="53.0" y1="336.6" x2="80.0" y2="336.6" stroke="rgb(0,0,0)"  stroke-width="1.0"/>
<line x1="415.0" y1="119.4" x2="393.2" y2="135.2" stroke="rgb(0,0,0)"  stroke-width="1.0"/>
<line x1="215.2" y1="394.6" x2="223.5" y2="368.9" stroke="rgb(0,0,0)"  stroke-width="1.0"/>
<line x1="261.4" y1="316.6" x2="236.0" y2="308.4" stroke="rgb(0,0,0)"  stroke-width="1.0"/>
<line x1="253.5" y1="321.6" x2="235.7" y2="315.8" stroke="rgb(0,0,0)"  stroke-width="1.0"/>
<line x1="215.8" y1="314.8" x2="200.0" y2="336.6" stroke="rgb(0,0,0)"  stroke-width="1.0"/>
<line x1="200.0" y1="336.6" x2="223.5" y2="368.9" stroke="rgb(0,0,0)"  stroke-width="1.0"/>
<line x1="209.4" y1="337.2" x2="225.8" y2="359.9" stroke="rgb(0,0,0)"  stroke-width="1.0"/>
<line x1="223.5" y1="368.9" x2="249.1" y2="360.6" stroke="rgb(0,0,0)"  stroke-width="1.0"/>
<line x1="261.4" y1="343.6" x2="261.4" y2="316.6" stroke="rgb(0,0,0)"  stroke-width="1.0"/>
<line x1="160.0" y1="336.6" x2="140.0" y2="371.2" stroke="rgb(0,0,0)"  stroke-width="1.0"/>
<line x1="150.8" y1="338.2" x2="136.8" y2="362.4" stroke="rgb(0,0,0)"  stroke-width="1.0"/>
<line x1="140.0" y1="371.2" x2="100.0" y2="371.2" stroke="rgb(0,0,0)"  stroke-width="1.0"/>
<line x1="100.0" y1="371.2" x2="80.0" y2="336.6" stroke="rgb(0,0,0)"  stroke-width="1.0"/>
<line x1="103.2" y1="362.4" x2="89.2" y2="338.2" stroke="rgb(0,0,0)"  stroke-width="1.0"/>
<line x1="80.0" y1="336.6" x2="100.0" y2="301.9" stroke="rgb(0,0,0)"  stroke-width="1.0"/>
<line x1="100.0" y1="301.9" x2="140.0" y2="301.9" stroke="rgb(0,0,0)"  stroke-width="1.0"/>
<line x1="106.0" y1="309.1" x2="134.0" y2="309.1" stroke="rgb(0,0,0)"  stroke-width="1.0"/>
<line x1="140.0" y1="301.9" x2="160.0" y2="336.6" stroke="rgb(0,0,0)"  stroke-width="1.0"/>
<line x1="391.0" y1="222.5" x2="427.5" y2="238.8" stroke="rgb(0,0,0)"  stroke-width="1.0"/>
<line x1="393.5" y1="231.5" x2="419.1" y2="242.9" stroke="rgb(0,0,0)"  stroke-width="1.0"/>
<line x1="427.5" y1="238.8" x2="431.8" y2="278.6" stroke="rgb(0,0,0)"  stroke-width="1.0"/>
<line x1="431.8" y1="278.6" x2="399.2" y2="302.1" stroke="rgb(0,0,0)"  stroke-width="1.0"/>
<line x1="422.7" y1="276.3" x2="399.9" y2="292.7" stroke="rgb(0,0,0)"  stroke-width="1.0"/>
<line x1="399.2" y1="302.1" x2="362.9" y2="285.9" stroke="rgb(0,0,0)"  stroke-width="1.0"/>
<line x1="362.9" y1="285.9" x2="358.6" y2="246.1" stroke="rgb(0,0,0)"  stroke-width="1.0"/>
<line x1="369.4" y1="279.2" x2="366.4" y2="251.3" stroke="rgb(0,0,0)"  stroke-width="1.0"/>
<line x1="358.6" y1="246.1" x2="391.0" y2="222.5" stroke="rgb(0,0,0)"  stroke-width="1.0"/>
<text x="380.718660" y="190.651820" fill="rgb(178,178,0)"  stroke="rgb(178,178,0)" stroke-width="1" font-size="16" >S</text>
<text x="217.464218" y="312.288771" fill="rgb(12,12,255)"  stroke="rgb(12,12,255)" stroke-width="1" font-size="16" >N</text>
<text x="287.778911" y="300.973818" fill="rgb(12,12,255)"  stroke="rgb(12,12,255)" stroke-width="1" font-size="16" >N</text>
<text x="287.778911" y="284.973818" fill="rgb(12,12,255)"  stroke="rgb(12,12,255)" stroke-width="1" font-size="16" >H</text>
<text x="255.449090" y="364.619819" fill="rgb(178,178,0)"  stroke="rgb(178,178,0)" stroke-width="1" font-size="16" >S</text>
<text x="388.521039" y="48.000000" fill="rgb(102,102,102)"  stroke="rgb(102,102,102)" stroke-width="1" font-size="16" >HC</text>
<text x="420.522266" y="186.606955" fill="rgb(255,12,12)"  stroke="rgb(255,12,12)" stroke-width="1" font-size="16" >O</text>
<text x="340.919903" y="194.895533" fill="rgb(255,12,12)"  stroke="rgb(255,12,12)" stroke-width="1" font-size="16" >O</text>
<text x="364.678644" y="150.843363" fill="rgb(12,12,255)"  stroke="rgb(12,12,255)" stroke-width="1" font-size="16" >HN</text>
<text x="328.591309" y="357.141184" fill="rgb(255,12,12)"  stroke="rgb(255,12,12)" stroke-width="1" font-size="16" >O</text>
<text x="74.012155" y="413.914794" fill="rgb(127,178,255)"  stroke="rgb(127,178,255)" stroke-width="1" font-size="16" >F</text>
<text x="34.000000" y="344.613742" fill="rgb(127,178,255)"  stroke="rgb(127,178,255)" stroke-width="1" font-size="16" >F</text>
<text x="185.140474" y="414.928435" fill="rgb(102,102,102)"  stroke="rgb(102,102,102)" stroke-width="1" font-size="16" >H</text>
<text x="197.140474" y="418.608435" fill="rgb(102,102,102)"  stroke="rgb(102,102,102)" stroke-width="1" font-size="13" >3</text>
<text x="203.640474" y="414.928435" fill="rgb(102,102,102)"  stroke="rgb(102,102,102)" stroke-width="1" font-size="16" >C</text>
<text font-size="18.000000" fill ="black" font-family="sans-serif"
x="10.000000" y="20.000000" ></text>
<title> - OBDepict</title>
</svg>
