<?xml version="1.0"?>
<svg xmlns="http://www.w3.org/2000/svg"
xmlns:xlink="http://www.w3.org/1999/xlink" xmlns:cml="http://www.xml-cml.org/schema" width="355.968" height="382.209" x="0" y="0" font-family="sans-serif" stroke="rgb(0,0,0)" stroke-width="1"  stroke-linecap="round">
<rect x="0%" y="0%" width="100%" height="100%" stroke-width="0" fill="rgb(255,255,255)"  />
<line x1="176.8" y1="179.7" x2="211.5" y2="159.4" stroke="rgb(0,0,0)"  stroke-width="1.0"/>
<line x1="40.0" y1="302.2" x2="74.5" y2="281.7" stroke="rgb(0,0,0)"  stroke-width="1.0"/>
<line x1="40.4" y1="329.2" x2="40.0" y2="302.2" stroke="rgb(0,0,0)"  stroke-width="1.0"/>
<line x1="36.2" y1="329.3" x2="35.8" y2="302.3" stroke="rgb(0,0,0)"  stroke-width="1.0"/>
<line x1="44.6" y1="329.1" x2="44.2" y2="302.1" stroke="rgb(0,0,0)"  stroke-width="1.0"/>
<line x1="151.1" y1="111.1" x2="174.6" y2="97.4" stroke="rgb(0,0,0)"  stroke-width="1.0"/>
<line x1="154.1" y1="116.3" x2="177.6" y2="102.6" stroke="rgb(0,0,0)"  stroke-width="1.0"/>
<line x1="221.4" y1="230.1" x2="245.0" y2="215.8" stroke="rgb(0,0,0)"  stroke-width="1.0"/>
<line x1="224.6" y1="235.3" x2="248.1" y2="220.9" stroke="rgb(0,0,0)"  stroke-width="1.0"/>
<line x1="143.6" y1="267.4" x2="143.2" y2="240.4" stroke="rgb(0,0,0)"  stroke-width="1.0"/>
<line x1="85.0" y1="234.8" x2="108.0" y2="221.0" stroke="rgb(0,0,0)"  stroke-width="1.0"/>
<line x1="74.5" y1="281.7" x2="74.0" y2="254.5" stroke="rgb(0,0,0)"  stroke-width="1.0"/>
<line x1="246.1" y1="179.0" x2="211.5" y2="159.4" stroke="rgb(0,0,0)"  stroke-width="1.0"/>
<line x1="211.5" y1="159.4" x2="210.8" y2="119.6" stroke="rgb(0,0,0)"  stroke-width="1.0"/>
<line x1="210.8" y1="119.6" x2="244.8" y2="99.4" stroke="rgb(0,0,0)"  stroke-width="1.0"/>
<line x1="219.6" y1="122.7" x2="243.3" y2="108.6" stroke="rgb(0,0,0)"  stroke-width="1.0"/>
<line x1="244.8" y1="99.4" x2="268.6" y2="112.4" stroke="rgb(0,0,0)"  stroke-width="1.0"/>
<line x1="280.2" y1="131.7" x2="280.6" y2="158.3" stroke="rgb(0,0,0)"  stroke-width="1.0"/>
<line x1="280.6" y1="158.3" x2="246.1" y2="179.0" stroke="rgb(0,0,0)"  stroke-width="1.0"/>
<line x1="271.8" y1="155.2" x2="247.6" y2="169.7" stroke="rgb(0,0,0)"  stroke-width="1.0"/>
<line x1="244.6" y1="58.9" x2="244.8" y2="99.4" stroke="rgb(0,0,0)"  stroke-width="1.0"/>
<line x1="210.8" y1="119.6" x2="176.1" y2="100.0" stroke="rgb(0,0,0)"  stroke-width="1.0"/>
<line x1="176.1" y1="100.0" x2="175.4" y2="60.2" stroke="rgb(0,0,0)"  stroke-width="1.0"/>
<line x1="175.4" y1="60.2" x2="209.4" y2="40.0" stroke="rgb(0,0,0)"  stroke-width="1.0"/>
<line x1="209.4" y1="40.0" x2="244.6" y2="58.9" stroke="rgb(0,0,0)"  stroke-width="1.0"/>
<line x1="176.8" y1="179.7" x2="177.4" y2="219.7" stroke="rgb(0,0,0)"  stroke-width="1.0"/>
<line x1="169.7" y1="185.8" x2="170.1" y2="213.8" stroke="rgb(0,0,0)"  stroke-width="1.0"/>
<line x1="177.4" y1="219.7" x2="143.2" y2="240.4" stroke="rgb(0,0,0)"  stroke-width="1.0"/>
<line x1="143.2" y1="240.4" x2="108.0" y2="221.0" stroke="rgb(0,0,0)"  stroke-width="1.0"/>
<line x1="141.4" y1="231.2" x2="116.8" y2="217.6" stroke="rgb(0,0,0)"  stroke-width="1.0"/>
<line x1="108.0" y1="221.0" x2="107.4" y2="181.0" stroke="rgb(0,0,0)"  stroke-width="1.0"/>
<line x1="107.4" y1="181.0" x2="142.1" y2="160.3" stroke="rgb(0,0,0)"  stroke-width="1.0"/>
<line x1="116.2" y1="184.1" x2="140.6" y2="169.6" stroke="rgb(0,0,0)"  stroke-width="1.0"/>
<line x1="142.1" y1="160.3" x2="176.8" y2="179.7" stroke="rgb(0,0,0)"  stroke-width="1.0"/>
<line x1="280.6" y1="158.3" x2="315.5" y2="178.1" stroke="rgb(0,0,0)"  stroke-width="1.0"/>
<line x1="315.5" y1="178.1" x2="316.0" y2="218.1" stroke="rgb(0,0,0)"  stroke-width="1.0"/>
<line x1="316.0" y1="218.1" x2="281.5" y2="238.4" stroke="rgb(0,0,0)"  stroke-width="1.0"/>
<line x1="281.5" y1="238.4" x2="246.6" y2="218.3" stroke="rgb(0,0,0)"  stroke-width="1.0"/>
<line x1="246.6" y1="218.3" x2="246.1" y2="179.0" stroke="rgb(0,0,0)"  stroke-width="1.0"/>
<text x="273.940908" y="126.721967" fill="rgb(255,12,12)"  stroke="rgb(255,12,12)" stroke-width="1" font-size="16" >O</text>
<text x="34.664750" y="350.209091" fill="rgb(102,102,102)"  stroke="rgb(102,102,102)" stroke-width="1" font-size="16" >CH</text>
<text x="135.401114" y="128.279521" fill="rgb(255,12,12)"  stroke="rgb(255,12,12)" stroke-width="1" font-size="16" >O</text>
<text x="205.893763" y="247.473624" fill="rgb(255,12,12)"  stroke="rgb(255,12,12)" stroke-width="1" font-size="16" >O</text>
<text x="137.846619" y="288.392162" fill="rgb(165,40,40)"  stroke="rgb(165,40,40)" stroke-width="1" font-size="16" >Br</text>
<text x="67.795519" y="249.472727" fill="rgb(255,12,12)"  stroke="rgb(255,12,12)" stroke-width="1" font-size="16" >O</text>
<text font-size="18.000000" fill ="black" font-family="sans-serif"
x="10.000000" y="20.000000" ></text>
<title> - OBDepict</title>
</svg>
