<?xml version="1.0"?>
<svg xmlns="http://www.w3.org/2000/svg"
xmlns:xlink="http://www.w3.org/1999/xlink" xmlns:cml="http://www.xml-cml.org/schema" width="476.314" height="278.261" x="0" y="0" font-family="sans-serif" stroke="rgb(0,0,0)" stroke-width="1"  stroke-linecap="round">
<rect x="0%" y="0%" width="100%" height="100%" stroke-width="0" fill="rgb(255,255,255)"  />
<line x1="301.3" y1="111.9" x2="274.4" y2="111.6" stroke="rgb(0,0,0)"  stroke-width="1.0"/>
<line x1="301.4" y1="105.9" x2="274.4" y2="105.6" stroke="rgb(0,0,0)"  stroke-width="1.0"/>
<line x1="334.4" y1="74.5" x2="320.9" y2="97.8" stroke="rgb(0,0,0)"  stroke-width="1.0"/>
<line x1="374.3" y1="74.5" x2="334.4" y2="74.5" stroke="rgb(0,0,0)"  stroke-width="1.0"/>
<line x1="236.4" y1="208.6" x2="263.1" y2="178.9" stroke="rgb(0,0,0)"  stroke-width="1.0"/>
<line x1="218.5" y1="228.6" x2="236.4" y2="208.6" stroke="rgb(0,0,0)"  stroke-width="1.0"/>
<line x1="215.4" y1="225.8" x2="233.3" y2="205.8" stroke="rgb(0,0,0)"  stroke-width="1.0"/>
<line x1="221.6" y1="231.4" x2="239.6" y2="211.4" stroke="rgb(0,0,0)"  stroke-width="1.0"/>
<line x1="74.5" y1="88.5" x2="97.4" y2="75.0" stroke="rgb(0,0,0)"  stroke-width="1.0"/>
<line x1="119.9" y1="74.9" x2="143.8" y2="88.7" stroke="rgb(0,0,0)"  stroke-width="1.0"/>
<line x1="323.5" y1="49.7" x2="337.0" y2="73.0" stroke="rgb(0,0,0)"  stroke-width="1.0"/>
<line x1="318.3" y1="52.8" x2="331.8" y2="76.0" stroke="rgb(0,0,0)"  stroke-width="1.0"/>
<line x1="263.1" y1="178.9" x2="254.9" y2="153.1" stroke="rgb(0,0,0)"  stroke-width="1.0"/>
<line x1="52.8" y1="72.4" x2="76.0" y2="85.9" stroke="rgb(0,0,0)"  stroke-width="1.0"/>
<line x1="49.7" y1="77.6" x2="73.0" y2="91.1" stroke="rgb(0,0,0)"  stroke-width="1.0"/>
<line x1="74.2" y1="115.4" x2="74.5" y2="88.5" stroke="rgb(0,0,0)"  stroke-width="1.0"/>
<line x1="274.4" y1="108.6" x2="258.6" y2="86.9" stroke="rgb(0,0,0)"  stroke-width="1.0"/>
<line x1="238.6" y1="80.3" x2="212.8" y2="88.7" stroke="rgb(0,0,0)"  stroke-width="1.0"/>
<line x1="212.8" y1="88.7" x2="212.8" y2="128.6" stroke="rgb(0,0,0)"  stroke-width="1.0"/>
<line x1="220.0" y1="94.7" x2="220.0" y2="122.6" stroke="rgb(0,0,0)"  stroke-width="1.0"/>
<line x1="212.8" y1="128.6" x2="238.6" y2="136.8" stroke="rgb(0,0,0)"  stroke-width="1.0"/>
<line x1="258.6" y1="130.2" x2="274.4" y2="108.6" stroke="rgb(0,0,0)"  stroke-width="1.0"/>
<line x1="374.3" y1="74.5" x2="390.0" y2="96.3" stroke="rgb(0,0,0)"  stroke-width="1.0"/>
<line x1="409.9" y1="102.9" x2="436.3" y2="94.5" stroke="rgb(0,0,0)"  stroke-width="1.0"/>
<line x1="436.3" y1="94.5" x2="436.1" y2="54.7" stroke="rgb(0,0,0)"  stroke-width="1.0"/>
<line x1="429.1" y1="88.6" x2="428.9" y2="60.8" stroke="rgb(0,0,0)"  stroke-width="1.0"/>
<line x1="436.1" y1="54.7" x2="398.2" y2="41.4" stroke="rgb(0,0,0)"  stroke-width="1.0"/>
<line x1="398.2" y1="41.4" x2="374.3" y2="74.5" stroke="rgb(0,0,0)"  stroke-width="1.0"/>
<line x1="400.5" y1="50.5" x2="383.7" y2="73.9" stroke="rgb(0,0,0)"  stroke-width="1.0"/>
<line x1="178.3" y1="68.7" x2="212.8" y2="88.7" stroke="rgb(0,0,0)"  stroke-width="1.0"/>
<line x1="212.8" y1="128.6" x2="178.3" y2="148.6" stroke="rgb(0,0,0)"  stroke-width="1.0"/>
<line x1="178.3" y1="148.6" x2="143.8" y2="128.6" stroke="rgb(0,0,0)"  stroke-width="1.0"/>
<line x1="176.7" y1="139.4" x2="152.6" y2="125.4" stroke="rgb(0,0,0)"  stroke-width="1.0"/>
<line x1="143.8" y1="128.6" x2="143.8" y2="88.7" stroke="rgb(0,0,0)"  stroke-width="1.0"/>
<line x1="143.8" y1="88.7" x2="178.3" y2="68.7" stroke="rgb(0,0,0)"  stroke-width="1.0"/>
<line x1="152.6" y1="91.9" x2="176.7" y2="77.9" stroke="rgb(0,0,0)"  stroke-width="1.0"/>
<text x="308.369806" y="117.049396" fill="rgb(12,12,255)"  stroke="rgb(12,12,255)" stroke-width="1" font-size="16" >N</text>
<text x="244.977818" y="148.745390" fill="rgb(12,12,255)"  stroke="rgb(12,12,255)" stroke-width="1" font-size="16" >N</text>
<text x="244.977818" y="84.342805" fill="rgb(178,178,0)"  stroke="rgb(178,178,0)" stroke-width="1" font-size="16" >S</text>
<text x="191.789950" y="246.260738" fill="rgb(102,102,102)"  stroke="rgb(102,102,102)" stroke-width="1" font-size="16" >HC</text>
<text x="391.553052" y="114.829951" fill="rgb(255,12,12)"  stroke="rgb(255,12,12)" stroke-width="1" font-size="16" >O</text>
<text x="102.643223" y="76.465952" fill="rgb(12,12,255)"  stroke="rgb(12,12,255)" stroke-width="1" font-size="16" >N</text>
<text x="102.643223" y="60.465952" fill="rgb(12,12,255)"  stroke="rgb(12,12,255)" stroke-width="1" font-size="16" >H</text>
<text x="308.369806" y="48.000000" fill="rgb(255,12,12)"  stroke="rgb(255,12,12)" stroke-width="1" font-size="16" >O</text>
<text x="34.000000" y="76.465952" fill="rgb(255,12,12)"  stroke="rgb(255,12,12)" stroke-width="1" font-size="16" >O</text>
<text x="48.118525" y="136.429647" fill="rgb(102,102,102)"  stroke="rgb(102,102,102)" stroke-width="1" font-size="16" >H</text>
<text x="60.118525" y="140.109647" fill="rgb(102,102,102)"  stroke="rgb(102,102,102)" stroke-width="1" font-size="13" >3</text>
<text x="66.618525" y="136.429647" fill="rgb(102,102,102)"  stroke="rgb(102,102,102)" stroke-width="1" font-size="16" >C</text>
<text font-size="18.000000" fill ="black" font-family="sans-serif"
x="10.000000" y="20.000000" ></text>
<title> - OBDepict</title>
</svg>
