<?xml version="1.0"?>
<svg xmlns="http://www.w3.org/2000/svg"
xmlns:xlink="http://www.w3.org/1999/xlink" xmlns:cml="http://www.xml-cml.org/schema" width="495.719" height="219.987" x="0" y="0" font-family="sans-serif" stroke="rgb(0,0,0)" stroke-width="1"  stroke-linecap="round">
<rect x="0%" y="0%" width="100%" height="100%" stroke-width="0" fill="rgb(255,255,255)"  />
<line x1="247.9" y1="120.0" x2="213.3" y2="100.0" stroke="rgb(0,0,0)"  stroke-width="1.0"/>
<line x1="271.3" y1="106.5" x2="247.9" y2="120.0" stroke="rgb(0,0,0)"  stroke-width="1.0"/>
<line x1="421.2" y1="100.0" x2="386.4" y2="120.0" stroke="rgb(0,0,0)"  stroke-width="1.0"/>
<line x1="444.5" y1="86.5" x2="421.2" y2="100.0" stroke="rgb(0,0,0)"  stroke-width="1.0"/>
<line x1="446.6" y1="90.1" x2="423.3" y2="103.6" stroke="rgb(0,0,0)"  stroke-width="1.0"/>
<line x1="442.4" y1="82.9" x2="419.1" y2="96.4" stroke="rgb(0,0,0)"  stroke-width="1.0"/>
<line x1="244.9" y1="147.0" x2="244.9" y2="120.0" stroke="rgb(0,0,0)"  stroke-width="1.0"/>
<line x1="250.9" y1="147.0" x2="250.9" y2="120.0" stroke="rgb(0,0,0)"  stroke-width="1.0"/>
<line x1="317.1" y1="120.0" x2="293.9" y2="106.5" stroke="rgb(0,0,0)"  stroke-width="1.0"/>
<line x1="52.8" y1="43.9" x2="76.2" y2="57.4" stroke="rgb(0,0,0)"  stroke-width="1.0"/>
<line x1="49.8" y1="49.1" x2="73.2" y2="62.6" stroke="rgb(0,0,0)"  stroke-width="1.0"/>
<line x1="120.6" y1="46.5" x2="144.0" y2="60.0" stroke="rgb(0,0,0)"  stroke-width="1.0"/>
<line x1="144.0" y1="60.0" x2="144.0" y2="100.0" stroke="rgb(0,0,0)"  stroke-width="1.0"/>
<line x1="136.8" y1="66.0" x2="136.8" y2="94.0" stroke="rgb(0,0,0)"  stroke-width="1.0"/>
<line x1="144.0" y1="100.0" x2="120.6" y2="113.5" stroke="rgb(0,0,0)"  stroke-width="1.0"/>
<line x1="98.0" y1="113.5" x2="74.7" y2="100.0" stroke="rgb(0,0,0)"  stroke-width="1.0"/>
<line x1="74.7" y1="100.0" x2="74.7" y2="60.0" stroke="rgb(0,0,0)"  stroke-width="1.0"/>
<line x1="74.7" y1="60.0" x2="98.0" y2="46.5" stroke="rgb(0,0,0)"  stroke-width="1.0"/>
<line x1="213.3" y1="60.0" x2="213.3" y2="100.0" stroke="rgb(0,0,0)"  stroke-width="1.0"/>
<line x1="213.3" y1="100.0" x2="178.6" y2="120.0" stroke="rgb(0,0,0)"  stroke-width="1.0"/>
<line x1="204.5" y1="96.7" x2="180.2" y2="110.8" stroke="rgb(0,0,0)"  stroke-width="1.0"/>
<line x1="178.6" y1="120.0" x2="144.0" y2="100.0" stroke="rgb(0,0,0)"  stroke-width="1.0"/>
<line x1="144.0" y1="60.0" x2="178.6" y2="40.0" stroke="rgb(0,0,0)"  stroke-width="1.0"/>
<line x1="178.6" y1="40.0" x2="213.3" y2="60.0" stroke="rgb(0,0,0)"  stroke-width="1.0"/>
<line x1="180.2" y1="49.2" x2="204.5" y2="63.2" stroke="rgb(0,0,0)"  stroke-width="1.0"/>
<line x1="317.1" y1="120.0" x2="351.9" y2="100.0" stroke="rgb(0,0,0)"  stroke-width="1.0"/>
<line x1="325.9" y1="123.2" x2="350.3" y2="109.2" stroke="rgb(0,0,0)"  stroke-width="1.0"/>
<line x1="351.9" y1="100.0" x2="386.4" y2="120.0" stroke="rgb(0,0,0)"  stroke-width="1.0"/>
<line x1="386.4" y1="120.0" x2="386.4" y2="160.0" stroke="rgb(0,0,0)"  stroke-width="1.0"/>
<line x1="379.2" y1="126.0" x2="379.2" y2="154.0" stroke="rgb(0,0,0)"  stroke-width="1.0"/>
<line x1="386.4" y1="160.0" x2="351.9" y2="180.0" stroke="rgb(0,0,0)"  stroke-width="1.0"/>
<line x1="351.9" y1="180.0" x2="317.1" y2="160.0" stroke="rgb(0,0,0)"  stroke-width="1.0"/>
<line x1="350.3" y1="170.8" x2="325.9" y2="156.7" stroke="rgb(0,0,0)"  stroke-width="1.0"/>
<line x1="317.1" y1="160.0" x2="317.1" y2="120.0" stroke="rgb(0,0,0)"  stroke-width="1.0"/>
<text x="103.283223" y="48.000000" fill="rgb(12,12,255)"  stroke="rgb(12,12,255)" stroke-width="1" font-size="16" >N</text>
<text x="103.283223" y="32.000000" fill="rgb(12,12,255)"  stroke="rgb(12,12,255)" stroke-width="1" font-size="16" >H</text>
<text x="103.283223" y="127.992525" fill="rgb(255,12,12)"  stroke="rgb(255,12,12)" stroke-width="1" font-size="16" >O</text>
<text x="276.600359" y="107.994394" fill="rgb(12,12,255)"  stroke="rgb(12,12,255)" stroke-width="1" font-size="16" >N</text>
<text x="276.600359" y="91.994394" fill="rgb(12,12,255)"  stroke="rgb(12,12,255)" stroke-width="1" font-size="16" >H</text>
<text x="449.718727" y="87.996262" fill="rgb(102,102,102)"  stroke="rgb(102,102,102)" stroke-width="1" font-size="16" >CH</text>
<text x="241.859364" y="167.988787" fill="rgb(255,12,12)"  stroke="rgb(255,12,12)" stroke-width="1" font-size="16" >O</text>
<text x="34.000000" y="48.000000" fill="rgb(255,12,12)"  stroke="rgb(255,12,12)" stroke-width="1" font-size="16" >O</text>
<text font-size="18.000000" fill ="black" font-family="sans-serif"
x="10.000000" y="20.000000" ></text>
<title> - OBDepict</title>
</svg>
