<?xml version="1.0"?>
<svg xmlns="http://www.w3.org/2000/svg"
xmlns:xlink="http://www.w3.org/1999/xlink" xmlns:cml="http://www.xml-cml.org/schema" width="413.414" height="340.102" x="0" y="0" font-family="sans-serif" stroke="rgb(0,0,0)" stroke-width="1"  stroke-linecap="round">
<rect x="0%" y="0%" width="100%" height="100%" stroke-width="0" fill="rgb(255,255,255)"  />
<line x1="174.1" y1="177.8" x2="134.3" y2="177.5" stroke="rgb(0,0,0)"  stroke-width="1.0"/>
<line x1="193.8" y1="212.5" x2="174.1" y2="177.8" stroke="rgb(0,0,0)"  stroke-width="1.0"/>
<line x1="233.8" y1="212.5" x2="193.8" y2="212.5" stroke="rgb(0,0,0)"  stroke-width="1.0"/>
<line x1="44.2" y1="260.3" x2="40.0" y2="220.8" stroke="rgb(0,0,0)"  stroke-width="1.0"/>
<line x1="46.3" y1="287.1" x2="44.2" y2="260.3" stroke="rgb(0,0,0)"  stroke-width="1.0"/>
<line x1="42.1" y1="287.5" x2="40.0" y2="260.6" stroke="rgb(0,0,0)"  stroke-width="1.0"/>
<line x1="50.5" y1="286.8" x2="48.4" y2="259.9" stroke="rgb(0,0,0)"  stroke-width="1.0"/>
<line x1="116.0" y1="236.6" x2="107.8" y2="210.9" stroke="rgb(0,0,0)"  stroke-width="1.0"/>
<line x1="121.7" y1="234.8" x2="113.5" y2="209.0" stroke="rgb(0,0,0)"  stroke-width="1.0"/>
<line x1="40.0" y1="220.8" x2="61.9" y2="205.0" stroke="rgb(0,0,0)"  stroke-width="1.0"/>
<line x1="147.0" y1="153.2" x2="134.3" y2="177.5" stroke="rgb(0,0,0)"  stroke-width="1.0"/>
<line x1="177.7" y1="234.4" x2="191.2" y2="211.0" stroke="rgb(0,0,0)"  stroke-width="1.0"/>
<line x1="182.9" y1="237.4" x2="196.4" y2="214.0" stroke="rgb(0,0,0)"  stroke-width="1.0"/>
<line x1="95.6" y1="52.7" x2="89.7" y2="79.3" stroke="rgb(0,0,0)"  stroke-width="1.0"/>
<line x1="110.6" y1="210.0" x2="84.8" y2="201.5" stroke="rgb(0,0,0)"  stroke-width="1.0"/>
<line x1="72.5" y1="184.5" x2="72.7" y2="157.5" stroke="rgb(0,0,0)"  stroke-width="1.0"/>
<line x1="72.7" y1="157.5" x2="110.8" y2="145.1" stroke="rgb(0,0,0)"  stroke-width="1.0"/>
<line x1="110.8" y1="145.1" x2="134.3" y2="177.5" stroke="rgb(0,0,0)"  stroke-width="1.0"/>
<line x1="134.3" y1="177.5" x2="110.6" y2="210.0" stroke="rgb(0,0,0)"  stroke-width="1.0"/>
<line x1="233.8" y1="212.5" x2="253.8" y2="247.4" stroke="rgb(0,0,0)"  stroke-width="1.0"/>
<line x1="243.0" y1="214.1" x2="257.1" y2="238.7" stroke="rgb(0,0,0)"  stroke-width="1.0"/>
<line x1="253.8" y1="247.4" x2="293.8" y2="247.4" stroke="rgb(0,0,0)"  stroke-width="1.0"/>
<line x1="293.8" y1="247.4" x2="313.6" y2="213.0" stroke="rgb(0,0,0)"  stroke-width="1.0"/>
<line x1="313.6" y1="213.0" x2="293.8" y2="178.0" stroke="rgb(0,0,0)"  stroke-width="1.0"/>
<line x1="293.8" y1="178.0" x2="253.8" y2="178.0" stroke="rgb(0,0,0)"  stroke-width="1.0"/>
<line x1="287.8" y1="185.2" x2="259.8" y2="185.2" stroke="rgb(0,0,0)"  stroke-width="1.0"/>
<line x1="253.8" y1="178.0" x2="233.8" y2="212.5" stroke="rgb(0,0,0)"  stroke-width="1.0"/>
<line x1="353.4" y1="213.1" x2="313.6" y2="213.0" stroke="rgb(0,0,0)"  stroke-width="1.0"/>
<line x1="347.4" y1="220.3" x2="319.6" y2="220.2" stroke="rgb(0,0,0)"  stroke-width="1.0"/>
<line x1="293.8" y1="247.4" x2="313.4" y2="281.9" stroke="rgb(0,0,0)"  stroke-width="1.0"/>
<line x1="303.0" y1="249.1" x2="316.7" y2="273.2" stroke="rgb(0,0,0)"  stroke-width="1.0"/>
<line x1="313.4" y1="281.9" x2="353.4" y2="282.1" stroke="rgb(0,0,0)"  stroke-width="1.0"/>
<line x1="353.4" y1="282.1" x2="373.4" y2="247.4" stroke="rgb(0,0,0)"  stroke-width="1.0"/>
<line x1="350.2" y1="273.3" x2="364.2" y2="249.0" stroke="rgb(0,0,0)"  stroke-width="1.0"/>
<line x1="373.4" y1="247.4" x2="353.4" y2="213.1" stroke="rgb(0,0,0)"  stroke-width="1.0"/>
<line x1="72.7" y1="157.5" x2="43.0" y2="130.1" stroke="rgb(0,0,0)"  stroke-width="1.0"/>
<line x1="73.1" y1="148.1" x2="52.3" y2="128.9" stroke="rgb(0,0,0)"  stroke-width="1.0"/>
<line x1="43.0" y1="130.1" x2="51.5" y2="91.2" stroke="rgb(0,0,0)"  stroke-width="1.0"/>
<line x1="51.5" y1="91.2" x2="89.7" y2="79.3" stroke="rgb(0,0,0)"  stroke-width="1.0"/>
<line x1="59.4" y1="96.3" x2="86.1" y2="88.0" stroke="rgb(0,0,0)"  stroke-width="1.0"/>
<line x1="89.7" y1="79.3" x2="119.3" y2="106.0" stroke="rgb(0,0,0)"  stroke-width="1.0"/>
<line x1="119.3" y1="106.0" x2="110.8" y2="145.1" stroke="rgb(0,0,0)"  stroke-width="1.0"/>
<line x1="111.0" y1="110.3" x2="105.1" y2="137.7" stroke="rgb(0,0,0)"  stroke-width="1.0"/>
<text x="66.490897" y="205.455883" fill="rgb(12,12,255)"  stroke="rgb(12,12,255)" stroke-width="1" font-size="16" >N</text>
<text x="41.333217" y="308.101542" fill="rgb(102,102,102)"  stroke="rgb(102,102,102)" stroke-width="1" font-size="16" >CH</text>
<text x="116.811100" y="256.115139" fill="rgb(255,12,12)"  stroke="rgb(255,12,12)" stroke-width="1" font-size="16" >O</text>
<text x="146.972223" y="149.638189" fill="rgb(255,12,12)"  stroke="rgb(255,12,12)" stroke-width="1" font-size="16" >OH</text>
<text x="167.799721" y="255.112513" fill="rgb(255,12,12)"  stroke="rgb(255,12,12)" stroke-width="1" font-size="16" >O</text>
<text x="92.486520" y="48.000000" fill="rgb(165,40,40)"  stroke="rgb(165,40,40)" stroke-width="1" font-size="16" >Br</text>
<text font-size="18.000000" fill ="black" font-family="sans-serif"
x="10.000000" y="20.000000" ></text>
<title> - OBDepict</title>
</svg>
