<?xml version="1.0"?>
<svg xmlns="http://www.w3.org/2000/svg"
xmlns:xlink="http://www.w3.org/1999/xlink" xmlns:cml="http://www.xml-cml.org/schema" width="322.459" height="579.868" x="0" y="0" font-family="sans-serif" stroke="rgb(0,0,0)" stroke-width="1"  stroke-linecap="round">
<rect x="0%" y="0%" width="100%" height="100%" stroke-width="0" fill="rgb(255,255,255)"  />
<line x1="247.9" y1="80.0" x2="247.9" y2="119.8" stroke="rgb(0,0,0)"  stroke-width="1.0"/>
<line x1="247.9" y1="53.0" x2="247.9" y2="80.0" stroke="rgb(0,0,0)"  stroke-width="1.0"/>
<line x1="252.1" y1="53.0" x2="252.1" y2="80.0" stroke="rgb(0,0,0)"  stroke-width="1.0"/>
<line x1="243.7" y1="53.0" x2="243.7" y2="80.0" stroke="rgb(0,0,0)"  stroke-width="1.0"/>
<line x1="178.6" y1="239.8" x2="143.9" y2="259.8" stroke="rgb(0,0,0)"  stroke-width="1.0"/>
<line x1="178.6" y1="212.8" x2="178.6" y2="239.8" stroke="rgb(0,0,0)"  stroke-width="1.0"/>
<line x1="132.6" y1="306.3" x2="109.3" y2="319.8" stroke="rgb(0,0,0)"  stroke-width="1.0"/>
<line x1="109.3" y1="346.8" x2="109.3" y2="319.8" stroke="rgb(0,0,0)"  stroke-width="1.0"/>
<line x1="87.3" y1="303.7" x2="110.8" y2="317.2" stroke="rgb(0,0,0)"  stroke-width="1.0"/>
<line x1="84.3" y1="308.9" x2="107.8" y2="322.4" stroke="rgb(0,0,0)"  stroke-width="1.0"/>
<line x1="213.2" y1="179.8" x2="189.9" y2="193.3" stroke="rgb(0,0,0)"  stroke-width="1.0"/>
<line x1="200.4" y1="255.9" x2="177.1" y2="242.4" stroke="rgb(0,0,0)"  stroke-width="1.0"/>
<line x1="203.4" y1="250.7" x2="180.1" y2="237.2" stroke="rgb(0,0,0)"  stroke-width="1.0"/>
<line x1="143.9" y1="259.8" x2="143.9" y2="286.8" stroke="rgb(0,0,0)"  stroke-width="1.0"/>
<line x1="74.6" y1="379.8" x2="98.0" y2="366.3" stroke="rgb(0,0,0)"  stroke-width="1.0"/>
<line x1="74.6" y1="419.9" x2="74.6" y2="379.8" stroke="rgb(0,0,0)"  stroke-width="1.0"/>
<line x1="74.6" y1="526.9" x2="74.6" y2="499.9" stroke="rgb(0,0,0)"  stroke-width="1.0"/>
<line x1="74.6" y1="419.9" x2="109.3" y2="439.9" stroke="rgb(0,0,0)"  stroke-width="1.0"/>
<line x1="109.3" y1="439.9" x2="109.3" y2="479.9" stroke="rgb(0,0,0)"  stroke-width="1.0"/>
<line x1="102.1" y1="445.9" x2="102.1" y2="473.9" stroke="rgb(0,0,0)"  stroke-width="1.0"/>
<line x1="109.3" y1="479.9" x2="74.6" y2="499.9" stroke="rgb(0,0,0)"  stroke-width="1.0"/>
<line x1="74.6" y1="499.9" x2="40.0" y2="479.9" stroke="rgb(0,0,0)"  stroke-width="1.0"/>
<line x1="73.0" y1="490.6" x2="48.8" y2="476.6" stroke="rgb(0,0,0)"  stroke-width="1.0"/>
<line x1="40.0" y1="479.9" x2="40.0" y2="439.9" stroke="rgb(0,0,0)"  stroke-width="1.0"/>
<line x1="40.0" y1="439.9" x2="74.6" y2="419.9" stroke="rgb(0,0,0)"  stroke-width="1.0"/>
<line x1="48.8" y1="443.1" x2="73.0" y2="429.1" stroke="rgb(0,0,0)"  stroke-width="1.0"/>
<line x1="213.2" y1="179.8" x2="213.2" y2="139.8" stroke="rgb(0,0,0)"  stroke-width="1.0"/>
<line x1="220.4" y1="173.8" x2="220.4" y2="145.8" stroke="rgb(0,0,0)"  stroke-width="1.0"/>
<line x1="213.2" y1="139.8" x2="247.9" y2="119.8" stroke="rgb(0,0,0)"  stroke-width="1.0"/>
<line x1="247.9" y1="119.8" x2="282.5" y2="139.8" stroke="rgb(0,0,0)"  stroke-width="1.0"/>
<line x1="249.5" y1="129.0" x2="273.7" y2="143.0" stroke="rgb(0,0,0)"  stroke-width="1.0"/>
<line x1="282.5" y1="139.8" x2="282.5" y2="179.8" stroke="rgb(0,0,0)"  stroke-width="1.0"/>
<line x1="282.5" y1="179.8" x2="247.9" y2="199.8" stroke="rgb(0,0,0)"  stroke-width="1.0"/>
<line x1="273.7" y1="176.6" x2="249.5" y2="190.6" stroke="rgb(0,0,0)"  stroke-width="1.0"/>
<line x1="247.9" y1="199.8" x2="213.2" y2="179.8" stroke="rgb(0,0,0)"  stroke-width="1.0"/>
<text x="241.908754" y="48.000000" fill="rgb(102,102,102)"  stroke="rgb(102,102,102)" stroke-width="1" font-size="16" >CH</text>
<text x="160.604220" y="207.819399" fill="rgb(12,12,255)"  stroke="rgb(12,12,255)" stroke-width="1" font-size="16" >HN</text>
<text x="137.850120" y="307.833814" fill="rgb(12,12,255)"  stroke="rgb(12,12,255)" stroke-width="1" font-size="16" >NH</text>
<text x="103.299685" y="367.842463" fill="rgb(12,12,255)"  stroke="rgb(12,12,255)" stroke-width="1" font-size="16" >NH</text>
<text x="68.550434" y="307.833814" fill="rgb(255,12,12)"  stroke="rgb(255,12,12)" stroke-width="1" font-size="16" >O</text>
<text x="207.154654" y="267.828048" fill="rgb(255,12,12)"  stroke="rgb(255,12,12)" stroke-width="1" font-size="16" >O</text>
<text x="70.550434" y="547.868411" fill="rgb(102,102,102)"  stroke="rgb(102,102,102)" stroke-width="1" font-size="16" >CH</text>
<text x="94.550434" y="551.548411" fill="rgb(102,102,102)"  stroke="rgb(102,102,102)" stroke-width="1" font-size="13" >3</text>
<text font-size="18.000000" fill ="black" font-family="sans-serif"
x="10.000000" y="20.000000" ></text>
<title> - OBDepict</title>
</svg>
