<?xml version="1.0"?>
<svg xmlns="http://www.w3.org/2000/svg"
xmlns:xlink="http://www.w3.org/1999/xlink" xmlns:cml="http://www.xml-cml.org/schema" width="497.228" height="249.857" x="0" y="0" font-family="sans-serif" stroke="rgb(0,0,0)" stroke-width="1"  stroke-linecap="round">
<rect x="0%" y="0%" width="100%" height="100%" stroke-width="0" fill="rgb(255,255,255)"  />
<line x1="179.9" y1="119.5" x2="214.4" y2="99.7" stroke="rgb(0,0,0)"  stroke-width="1.0"/>
<line x1="215.8" y1="97.1" x2="250.8" y2="116.9" stroke="rgb(0,0,0)"  stroke-width="1.0"/>
<line x1="212.9" y1="102.3" x2="247.9" y2="122.1" stroke="rgb(0,0,0)"  stroke-width="1.0"/>
<line x1="352.9" y1="99.7" x2="329.2" y2="113.1" stroke="rgb(0,0,0)"  stroke-width="1.0"/>
<line x1="80.0" y1="208.4" x2="119.8" y2="204.4" stroke="rgb(0,0,0)"  stroke-width="1.0"/>
<line x1="340.1" y1="175.7" x2="316.4" y2="162.1" stroke="rgb(0,0,0)"  stroke-width="1.0"/>
<line x1="343.1" y1="170.5" x2="319.4" y2="156.9" stroke="rgb(0,0,0)"  stroke-width="1.0"/>
<line x1="53.0" y1="209.4" x2="80.0" y2="208.4" stroke="rgb(0,0,0)"  stroke-width="1.0"/>
<line x1="52.8" y1="205.2" x2="79.8" y2="204.2" stroke="rgb(0,0,0)"  stroke-width="1.0"/>
<line x1="53.1" y1="213.6" x2="80.2" y2="212.6" stroke="rgb(0,0,0)"  stroke-width="1.0"/>
<line x1="286.4" y1="72.5" x2="286.4" y2="99.3" stroke="rgb(0,0,0)"  stroke-width="1.0"/>
<line x1="280.4" y1="72.5" x2="280.4" y2="99.3" stroke="rgb(0,0,0)"  stroke-width="1.0"/>
<line x1="224.2" y1="170.5" x2="247.9" y2="156.9" stroke="rgb(0,0,0)"  stroke-width="1.0"/>
<line x1="227.1" y1="175.7" x2="250.9" y2="162.1" stroke="rgb(0,0,0)"  stroke-width="1.0"/>
<line x1="119.8" y1="204.4" x2="131.0" y2="179.7" stroke="rgb(0,0,0)"  stroke-width="1.0"/>
<line x1="445.9" y1="47.0" x2="422.1" y2="60.2" stroke="rgb(0,0,0)"  stroke-width="1.0"/>
<line x1="175.7" y1="159.3" x2="149.1" y2="165.1" stroke="rgb(0,0,0)"  stroke-width="1.0"/>
<line x1="129.9" y1="156.6" x2="116.4" y2="132.8" stroke="rgb(0,0,0)"  stroke-width="1.0"/>
<line x1="116.4" y1="132.8" x2="143.0" y2="103.2" stroke="rgb(0,0,0)"  stroke-width="1.0"/>
<line x1="143.0" y1="103.2" x2="179.9" y2="119.5" stroke="rgb(0,0,0)"  stroke-width="1.0"/>
<line x1="179.9" y1="119.5" x2="175.7" y2="159.3" stroke="rgb(0,0,0)"  stroke-width="1.0"/>
<line x1="172.1" y1="124.7" x2="169.2" y2="152.6" stroke="rgb(0,0,0)"  stroke-width="1.0"/>
<line x1="306.7" y1="113.0" x2="283.4" y2="99.3" stroke="rgb(0,0,0)"  stroke-width="1.0"/>
<line x1="283.4" y1="99.3" x2="249.4" y2="119.5" stroke="rgb(0,0,0)"  stroke-width="1.0"/>
<line x1="249.4" y1="119.5" x2="249.4" y2="159.5" stroke="rgb(0,0,0)"  stroke-width="1.0"/>
<line x1="249.4" y1="159.5" x2="272.1" y2="172.8" stroke="rgb(0,0,0)"  stroke-width="1.0"/>
<line x1="294.6" y1="172.9" x2="317.9" y2="159.5" stroke="rgb(0,0,0)"  stroke-width="1.0"/>
<line x1="317.9" y1="159.5" x2="317.9" y2="132.5" stroke="rgb(0,0,0)"  stroke-width="1.0"/>
<line x1="352.9" y1="99.7" x2="352.9" y2="59.7" stroke="rgb(0,0,0)"  stroke-width="1.0"/>
<line x1="352.9" y1="59.7" x2="387.6" y2="40.0" stroke="rgb(0,0,0)"  stroke-width="1.0"/>
<line x1="361.7" y1="63.0" x2="385.9" y2="49.2" stroke="rgb(0,0,0)"  stroke-width="1.0"/>
<line x1="387.6" y1="40.0" x2="422.1" y2="60.2" stroke="rgb(0,0,0)"  stroke-width="1.0"/>
<line x1="422.1" y1="60.2" x2="422.1" y2="100.2" stroke="rgb(0,0,0)"  stroke-width="1.0"/>
<line x1="414.9" y1="66.2" x2="414.9" y2="94.2" stroke="rgb(0,0,0)"  stroke-width="1.0"/>
<line x1="422.1" y1="100.2" x2="387.4" y2="120.0" stroke="rgb(0,0,0)"  stroke-width="1.0"/>
<line x1="387.4" y1="120.0" x2="352.9" y2="99.7" stroke="rgb(0,0,0)"  stroke-width="1.0"/>
<line x1="385.9" y1="110.8" x2="361.7" y2="96.5" stroke="rgb(0,0,0)"  stroke-width="1.0"/>
<line x1="116.4" y1="132.8" x2="77.3" y2="124.3" stroke="rgb(0,0,0)"  stroke-width="1.0"/>
<line x1="112.0" y1="124.5" x2="84.7" y2="118.6" stroke="rgb(0,0,0)"  stroke-width="1.0"/>
<line x1="77.3" y1="124.3" x2="64.8" y2="86.8" stroke="rgb(0,0,0)"  stroke-width="1.0"/>
<line x1="64.8" y1="86.8" x2="91.8" y2="57.0" stroke="rgb(0,0,0)"  stroke-width="1.0"/>
<line x1="74.2" y1="87.2" x2="93.2" y2="66.3" stroke="rgb(0,0,0)"  stroke-width="1.0"/>
<line x1="91.8" y1="57.0" x2="130.8" y2="65.0" stroke="rgb(0,0,0)"  stroke-width="1.0"/>
<line x1="130.8" y1="65.0" x2="143.0" y2="103.2" stroke="rgb(0,0,0)"  stroke-width="1.0"/>
<line x1="125.8" y1="72.9" x2="134.3" y2="99.6" stroke="rgb(0,0,0)"  stroke-width="1.0"/>
<text x="311.877499" y="127.512030" fill="rgb(12,12,255)"  stroke="rgb(12,12,255)" stroke-width="1" font-size="16" >N</text>
<text x="277.370723" y="187.350930" fill="rgb(12,12,255)"  stroke="rgb(12,12,255)" stroke-width="1" font-size="16" >N</text>
<text x="277.370723" y="203.350930" fill="rgb(12,12,255)"  stroke="rgb(12,12,255)" stroke-width="1" font-size="16" >H</text>
<text x="130.353237" y="175.848671" fill="rgb(12,12,255)"  stroke="rgb(12,12,255)" stroke-width="1" font-size="16" >N</text>
<text x="346.883741" y="187.520651" fill="rgb(255,12,12)"  stroke="rgb(255,12,12)" stroke-width="1" font-size="16" >O</text>
<text x="22.000000" y="217.857131" fill="rgb(102,102,102)"  stroke="rgb(102,102,102)" stroke-width="1" font-size="16" >HC</text>
<text x="277.370723" y="67.503408" fill="rgb(255,12,12)"  stroke="rgb(255,12,12)" stroke-width="1" font-size="16" >O</text>
<text x="208.362021" y="187.520651" fill="rgb(255,12,12)"  stroke="rgb(255,12,12)" stroke-width="1" font-size="16" >O</text>
<text x="451.228429" y="48.669187" fill="rgb(127,178,255)"  stroke="rgb(127,178,255)" stroke-width="1" font-size="16" >F</text>
<text font-size="18.000000" fill ="black" font-family="sans-serif"
x="10.000000" y="20.000000" ></text>
<title> - OBDepict</title>
</svg>
