<?xml version="1.0"?>
<svg xmlns="http://www.w3.org/2000/svg"
xmlns:xlink="http://www.w3.org/1999/xlink" xmlns:cml="http://www.xml-cml.org/schema" width="626.105" height="283.829" x="0" y="0" font-family="sans-serif" stroke="rgb(0,0,0)" stroke-width="1"  stroke-linecap="round">
<rect x="0%" y="0%" width="100%" height="100%" stroke-width="0" fill="rgb(255,255,255)"  />
<line x1="239.6" y1="111.3" x2="266.6" y2="111.4" stroke="rgb(0,0,0)"  stroke-width="1.0"/>
<line x1="239.6" y1="117.3" x2="266.5" y2="117.4" stroke="rgb(0,0,0)"  stroke-width="1.0"/>
<line x1="487.1" y1="80.0" x2="473.0" y2="80.0" stroke="rgb(0,0,0)"  stroke-width="1.0"/>
<line x1="286.1" y1="103.2" x2="299.5" y2="80.0" stroke="rgb(0,0,0)"  stroke-width="1.0"/>
<line x1="85.6" y1="80.4" x2="109.0" y2="93.9" stroke="rgb(0,0,0)"  stroke-width="1.0"/>
<line x1="299.5" y1="80.0" x2="339.5" y2="80.0" stroke="rgb(0,0,0)"  stroke-width="1.0"/>
<line x1="419.6" y1="80.0" x2="447.0" y2="80.0" stroke="rgb(0,0,0)"  stroke-width="1.0"/>
<line x1="457.0" y1="107.3" x2="457.0" y2="93.0" stroke="rgb(0,0,0)"  stroke-width="1.0"/>
<line x1="463.0" y1="107.3" x2="463.0" y2="93.0" stroke="rgb(0,0,0)"  stroke-width="1.0"/>
<line x1="463.1" y1="53.0" x2="463.0" y2="67.0" stroke="rgb(0,0,0)"  stroke-width="1.0"/>
<line x1="457.1" y1="53.0" x2="457.0" y2="66.9" stroke="rgb(0,0,0)"  stroke-width="1.0"/>
<line x1="201.7" y1="214.2" x2="228.3" y2="184.5" stroke="rgb(0,0,0)"  stroke-width="1.0"/>
<line x1="183.7" y1="234.2" x2="201.7" y2="214.2" stroke="rgb(0,0,0)"  stroke-width="1.0"/>
<line x1="180.6" y1="231.4" x2="198.5" y2="211.4" stroke="rgb(0,0,0)"  stroke-width="1.0"/>
<line x1="186.8" y1="237.0" x2="204.8" y2="217.0" stroke="rgb(0,0,0)"  stroke-width="1.0"/>
<line x1="57.4" y1="95.6" x2="64.9" y2="83.4" stroke="rgb(0,0,0)"  stroke-width="1.0"/>
<line x1="62.5" y1="98.7" x2="70.0" y2="86.5" stroke="rgb(0,0,0)"  stroke-width="1.0"/>
<line x1="90.8" y1="53.0" x2="83.7" y2="64.4" stroke="rgb(0,0,0)"  stroke-width="1.0"/>
<line x1="85.7" y1="49.9" x2="78.6" y2="61.3" stroke="rgb(0,0,0)"  stroke-width="1.0"/>
<line x1="51.1" y1="59.9" x2="63.2" y2="67.2" stroke="rgb(0,0,0)"  stroke-width="1.0"/>
<line x1="288.7" y1="55.2" x2="302.1" y2="78.5" stroke="rgb(0,0,0)"  stroke-width="1.0"/>
<line x1="283.5" y1="58.2" x2="296.9" y2="81.5" stroke="rgb(0,0,0)"  stroke-width="1.0"/>
<line x1="228.3" y1="184.5" x2="220.1" y2="158.7" stroke="rgb(0,0,0)"  stroke-width="1.0"/>
<line x1="527.2" y1="50.3" x2="563.7" y2="66.6" stroke="rgb(0,0,0)"  stroke-width="1.0"/>
<line x1="563.7" y1="66.6" x2="559.5" y2="106.0" stroke="rgb(0,0,0)"  stroke-width="1.0"/>
<line x1="559.5" y1="106.0" x2="520.1" y2="114.5" stroke="rgb(0,0,0)"  stroke-width="1.0"/>
<line x1="552.1" y1="100.2" x2="524.5" y2="106.2" stroke="rgb(0,0,0)"  stroke-width="1.0"/>
<line x1="520.1" y1="114.5" x2="506.6" y2="91.2" stroke="rgb(0,0,0)"  stroke-width="1.0"/>
<line x1="508.9" y1="70.4" x2="527.2" y2="50.3" stroke="rgb(0,0,0)"  stroke-width="1.0"/>
<line x1="239.6" y1="114.3" x2="223.8" y2="92.3" stroke="rgb(0,0,0)"  stroke-width="1.0"/>
<line x1="203.8" y1="85.7" x2="178.0" y2="93.9" stroke="rgb(0,0,0)"  stroke-width="1.0"/>
<line x1="178.0" y1="93.9" x2="178.0" y2="133.8" stroke="rgb(0,0,0)"  stroke-width="1.0"/>
<line x1="185.2" y1="99.9" x2="185.2" y2="127.8" stroke="rgb(0,0,0)"  stroke-width="1.0"/>
<line x1="178.0" y1="133.8" x2="203.8" y2="142.3" stroke="rgb(0,0,0)"  stroke-width="1.0"/>
<line x1="223.8" y1="135.9" x2="239.6" y2="114.3" stroke="rgb(0,0,0)"  stroke-width="1.0"/>
<line x1="419.6" y1="80.0" x2="399.6" y2="114.9" stroke="rgb(0,0,0)"  stroke-width="1.0"/>
<line x1="410.4" y1="81.6" x2="396.4" y2="106.1" stroke="rgb(0,0,0)"  stroke-width="1.0"/>
<line x1="399.6" y1="114.9" x2="359.7" y2="114.5" stroke="rgb(0,0,0)"  stroke-width="1.0"/>
<line x1="359.7" y1="114.5" x2="339.5" y2="80.0" stroke="rgb(0,0,0)"  stroke-width="1.0"/>
<line x1="362.9" y1="105.7" x2="348.7" y2="81.5" stroke="rgb(0,0,0)"  stroke-width="1.0"/>
<line x1="339.5" y1="80.0" x2="359.7" y2="45.2" stroke="rgb(0,0,0)"  stroke-width="1.0"/>
<line x1="359.7" y1="45.2" x2="399.6" y2="45.4" stroke="rgb(0,0,0)"  stroke-width="1.0"/>
<line x1="365.6" y1="52.5" x2="393.6" y2="52.6" stroke="rgb(0,0,0)"  stroke-width="1.0"/>
<line x1="399.6" y1="45.4" x2="419.6" y2="80.0" stroke="rgb(0,0,0)"  stroke-width="1.0"/>
<line x1="559.5" y1="106.0" x2="586.1" y2="136.1" stroke="rgb(0,0,0)"  stroke-width="1.0"/>
<line x1="586.1" y1="136.1" x2="573.8" y2="173.8" stroke="rgb(0,0,0)"  stroke-width="1.0"/>
<line x1="577.4" y1="139.5" x2="568.8" y2="165.9" stroke="rgb(0,0,0)"  stroke-width="1.0"/>
<line x1="573.8" y1="173.8" x2="534.4" y2="182.3" stroke="rgb(0,0,0)"  stroke-width="1.0"/>
<line x1="534.4" y1="182.3" x2="507.4" y2="152.4" stroke="rgb(0,0,0)"  stroke-width="1.0"/>
<line x1="535.8" y1="173.0" x2="516.8" y2="152.0" stroke="rgb(0,0,0)"  stroke-width="1.0"/>
<line x1="507.4" y1="152.4" x2="520.1" y2="114.5" stroke="rgb(0,0,0)"  stroke-width="1.0"/>
<line x1="109.0" y1="93.9" x2="143.5" y2="73.9" stroke="rgb(0,0,0)"  stroke-width="1.0"/>
<line x1="117.8" y1="97.1" x2="141.9" y2="83.1" stroke="rgb(0,0,0)"  stroke-width="1.0"/>
<line x1="143.5" y1="73.9" x2="178.0" y2="93.9" stroke="rgb(0,0,0)"  stroke-width="1.0"/>
<line x1="178.0" y1="133.8" x2="143.5" y2="153.8" stroke="rgb(0,0,0)"  stroke-width="1.0"/>
<line x1="143.5" y1="153.8" x2="109.0" y2="133.8" stroke="rgb(0,0,0)"  stroke-width="1.0"/>
<line x1="141.9" y1="144.6" x2="117.8" y2="130.6" stroke="rgb(0,0,0)"  stroke-width="1.0"/>
<line x1="109.0" y1="133.8" x2="109.0" y2="93.9" stroke="rgb(0,0,0)"  stroke-width="1.0"/>
<text x="453.970363" y="87.958891" fill="rgb(178,178,0)"  stroke="rgb(178,178,0)" stroke-width="1" font-size="16" >S</text>
<text x="494.132681" y="87.958891" fill="rgb(12,12,255)"  stroke="rgb(12,12,255)" stroke-width="1" font-size="16" >N</text>
<text x="273.549917" y="122.468842" fill="rgb(12,12,255)"  stroke="rgb(12,12,255)" stroke-width="1" font-size="16" >N</text>
<text x="68.306524" y="81.904513" fill="rgb(178,178,0)"  stroke="rgb(178,178,0)" stroke-width="1" font-size="16" >S</text>
<text x="210.182382" y="154.353615" fill="rgb(12,12,255)"  stroke="rgb(12,12,255)" stroke-width="1" font-size="16" >N</text>
<text x="210.182382" y="89.775204" fill="rgb(178,178,0)"  stroke="rgb(178,178,0)" stroke-width="1" font-size="16" >S</text>
<text x="453.970363" y="128.319792" fill="rgb(255,12,12)"  stroke="rgb(255,12,12)" stroke-width="1" font-size="16" >O</text>
<text x="454.173790" y="48.000000" fill="rgb(255,12,12)"  stroke="rgb(255,12,12)" stroke-width="1" font-size="16" >O</text>
<text x="157.012616" y="251.829091" fill="rgb(102,102,102)"  stroke="rgb(102,102,102)" stroke-width="1" font-size="16" >HC</text>
<text x="47.116203" y="116.211037" fill="rgb(255,12,12)"  stroke="rgb(255,12,12)" stroke-width="1" font-size="16" >O</text>
<text x="89.094834" y="48.402011" fill="rgb(255,12,12)"  stroke="rgb(255,12,12)" stroke-width="1" font-size="16" >O</text>
<text x="14.000000" y="61.116203" fill="rgb(12,12,255)"  stroke="rgb(12,12,255)" stroke-width="1" font-size="16" >H</text>
<text x="26.000000" y="64.796203" fill="rgb(12,12,255)"  stroke="rgb(12,12,255)" stroke-width="1" font-size="13" >2</text>
<text x="32.500000" y="61.116203" fill="rgb(12,12,255)"  stroke="rgb(12,12,255)" stroke-width="1" font-size="16" >N</text>
<text x="273.549917" y="53.448940" fill="rgb(255,12,12)"  stroke="rgb(255,12,12)" stroke-width="1" font-size="16" >O</text>
<text font-size="18.000000" fill ="black" font-family="sans-serif"
x="10.000000" y="20.000000" ></text>
<title> - OBDepict</title>
</svg>
