<?xml version="1.0"?>
<svg xmlns="http://www.w3.org/2000/svg"
xmlns:xlink="http://www.w3.org/1999/xlink" xmlns:cml="http://www.xml-cml.org/schema" width="423.481" height="305.696" x="0" y="0" font-family="sans-serif" stroke="rgb(0,0,0)" stroke-width="1"  stroke-linecap="round">
<rect x="0%" y="0%" width="100%" height="100%" stroke-width="0" fill="rgb(255,255,255)"  />
<line x1="232.7" y1="80.2" x2="269.0" y2="96.9" stroke="rgb(0,0,0)"  stroke-width="1.0"/>
<line x1="230.2" y1="85.6" x2="266.5" y2="102.3" stroke="rgb(0,0,0)"  stroke-width="1.0"/>
<line x1="326.3" y1="167.7" x2="312.8" y2="144.2" stroke="rgb(0,0,0)"  stroke-width="1.0"/>
<line x1="331.5" y1="164.7" x2="318.0" y2="141.2" stroke="rgb(0,0,0)"  stroke-width="1.0"/>
<line x1="72.4" y1="239.9" x2="104.6" y2="216.4" stroke="rgb(0,0,0)"  stroke-width="1.0"/>
<line x1="50.5" y1="255.8" x2="72.4" y2="239.9" stroke="rgb(0,0,0)"  stroke-width="1.0"/>
<line x1="48.0" y1="252.4" x2="69.9" y2="236.5" stroke="rgb(0,0,0)"  stroke-width="1.0"/>
<line x1="53.0" y1="259.2" x2="74.9" y2="243.3" stroke="rgb(0,0,0)"  stroke-width="1.0"/>
<line x1="308.4" y1="53.2" x2="305.5" y2="80.2" stroke="rgb(0,0,0)"  stroke-width="1.0"/>
<line x1="302.4" y1="52.6" x2="299.6" y2="79.5" stroke="rgb(0,0,0)"  stroke-width="1.0"/>
<line x1="198.7" y1="106.4" x2="231.5" y2="82.9" stroke="rgb(0,0,0)"  stroke-width="1.0"/>
<line x1="371.0" y1="98.6" x2="344.5" y2="103.9" stroke="rgb(0,0,0)"  stroke-width="1.0"/>
<line x1="172.6" y1="196.2" x2="169.9" y2="169.7" stroke="rgb(0,0,0)"  stroke-width="1.0"/>
<line x1="111.3" y1="169.3" x2="133.0" y2="153.6" stroke="rgb(0,0,0)"  stroke-width="1.0"/>
<line x1="104.6" y1="216.4" x2="102.1" y2="189.8" stroke="rgb(0,0,0)"  stroke-width="1.0"/>
<line x1="210.3" y1="226.0" x2="185.7" y2="214.6" stroke="rgb(0,0,0)"  stroke-width="1.0"/>
<line x1="379.4" y1="72.9" x2="371.0" y2="98.6" stroke="rgb(0,0,0)"  stroke-width="1.0"/>
<line x1="213.0" y1="252.8" x2="210.3" y2="226.0" stroke="rgb(0,0,0)"  stroke-width="1.0"/>
<line x1="326.4" y1="118.3" x2="315.4" y2="142.7" stroke="rgb(0,0,0)"  stroke-width="1.0"/>
<line x1="315.4" y1="142.7" x2="288.9" y2="139.8" stroke="rgb(0,0,0)"  stroke-width="1.0"/>
<line x1="273.3" y1="125.7" x2="267.7" y2="99.6" stroke="rgb(0,0,0)"  stroke-width="1.0"/>
<line x1="267.7" y1="99.6" x2="302.5" y2="79.9" stroke="rgb(0,0,0)"  stroke-width="1.0"/>
<line x1="302.5" y1="79.9" x2="322.1" y2="97.7" stroke="rgb(0,0,0)"  stroke-width="1.0"/>
<line x1="169.9" y1="169.7" x2="133.0" y2="153.6" stroke="rgb(0,0,0)"  stroke-width="1.0"/>
<line x1="133.0" y1="153.6" x2="129.4" y2="113.1" stroke="rgb(0,0,0)"  stroke-width="1.0"/>
<line x1="139.7" y1="146.9" x2="137.1" y2="118.4" stroke="rgb(0,0,0)"  stroke-width="1.0"/>
<line x1="129.4" y1="113.1" x2="162.0" y2="89.5" stroke="rgb(0,0,0)"  stroke-width="1.0"/>
<line x1="162.0" y1="89.5" x2="198.7" y2="106.4" stroke="rgb(0,0,0)"  stroke-width="1.0"/>
<line x1="164.4" y1="98.6" x2="190.2" y2="110.5" stroke="rgb(0,0,0)"  stroke-width="1.0"/>
<line x1="198.7" y1="106.4" x2="202.5" y2="146.3" stroke="rgb(0,0,0)"  stroke-width="1.0"/>
<line x1="202.5" y1="146.3" x2="169.9" y2="169.7" stroke="rgb(0,0,0)"  stroke-width="1.0"/>
<line x1="193.4" y1="143.9" x2="170.5" y2="160.3" stroke="rgb(0,0,0)"  stroke-width="1.0"/>
<text x="325.738765" y="114.440847" fill="rgb(12,12,255)"  stroke="rgb(12,12,255)" stroke-width="1" font-size="16" >N</text>
<text x="269.967676" y="146.454977" fill="rgb(12,12,255)"  stroke="rgb(12,12,255)" stroke-width="1" font-size="16" >N</text>
<text x="269.967676" y="162.454977" fill="rgb(12,12,255)"  stroke="rgb(12,12,255)" stroke-width="1" font-size="16" >H</text>
<text x="329.364930" y="185.512700" fill="rgb(178,178,0)"  stroke="rgb(178,178,0)" stroke-width="1" font-size="16" >S</text>
<text x="22.000000" y="271.482409" fill="rgb(102,102,102)"  stroke="rgb(102,102,102)" stroke-width="1" font-size="16" >HC</text>
<text x="300.773084" y="48.000000" fill="rgb(255,12,12)"  stroke="rgb(255,12,12)" stroke-width="1" font-size="16" >O</text>
<text x="167.886535" y="217.123922" fill="rgb(255,12,12)"  stroke="rgb(255,12,12)" stroke-width="1" font-size="16" >O</text>
<text x="94.805001" y="184.905912" fill="rgb(255,12,12)"  stroke="rgb(255,12,12)" stroke-width="1" font-size="16" >O</text>
<text x="379.480783" y="68.533702" fill="rgb(102,102,102)"  stroke="rgb(102,102,102)" stroke-width="1" font-size="16" >CH</text>
<text x="403.480783" y="72.213702" fill="rgb(102,102,102)"  stroke="rgb(102,102,102)" stroke-width="1" font-size="13" >3</text>
<text x="210.356861" y="273.695971" fill="rgb(102,102,102)"  stroke="rgb(102,102,102)" stroke-width="1" font-size="16" >CH</text>
<text x="234.356861" y="277.375971" fill="rgb(102,102,102)"  stroke="rgb(102,102,102)" stroke-width="1" font-size="13" >3</text>
<text font-size="18.000000" fill ="black" font-family="sans-serif"
x="10.000000" y="20.000000" ></text>
<title> - OBDepict</title>
</svg>
