<?xml version="1.0"?>
<svg xmlns="http://www.w3.org/2000/svg"
xmlns:xlink="http://www.w3.org/1999/xlink" xmlns:cml="http://www.xml-cml.org/schema" width="514.099" height="364.823" x="0" y="0" font-family="sans-serif" stroke="rgb(0,0,0)" stroke-width="1"  stroke-linecap="round">
<rect x="0%" y="0%" width="100%" height="100%" stroke-width="0" fill="rgb(255,255,255)"  />
<line x1="255.0" y1="138.3" x2="242.9" y2="131.4" stroke="rgb(0,0,0)"  stroke-width="1.0"/>
<line x1="266.2" y1="184.8" x2="266.2" y2="157.8" stroke="rgb(0,0,0)"  stroke-width="1.0"/>
<line x1="301.0" y1="204.8" x2="266.2" y2="184.8" stroke="rgb(0,0,0)"  stroke-width="1.0"/>
<line x1="197.0" y1="104.8" x2="220.4" y2="118.4" stroke="rgb(0,0,0)"  stroke-width="1.0"/>
<line x1="301.0" y1="231.8" x2="301.0" y2="204.8" stroke="rgb(0,0,0)"  stroke-width="1.0"/>
<line x1="439.4" y1="244.8" x2="404.8" y2="264.8" stroke="rgb(0,0,0)"  stroke-width="1.0"/>
<line x1="247.8" y1="103.1" x2="240.8" y2="115.1" stroke="rgb(0,0,0)"  stroke-width="1.0"/>
<line x1="242.6" y1="100.0" x2="235.6" y2="112.1" stroke="rgb(0,0,0)"  stroke-width="1.0"/>
<line x1="215.6" y1="146.8" x2="222.6" y2="134.6" stroke="rgb(0,0,0)"  stroke-width="1.0"/>
<line x1="220.8" y1="149.8" x2="227.8" y2="137.6" stroke="rgb(0,0,0)"  stroke-width="1.0"/>
<line x1="462.8" y1="231.3" x2="439.4" y2="244.8" stroke="rgb(0,0,0)"  stroke-width="1.0"/>
<line x1="464.9" y1="235.0" x2="441.5" y2="248.5" stroke="rgb(0,0,0)"  stroke-width="1.0"/>
<line x1="460.7" y1="227.7" x2="437.3" y2="241.2" stroke="rgb(0,0,0)"  stroke-width="1.0"/>
<line x1="325.8" y1="193.9" x2="302.5" y2="207.4" stroke="rgb(0,0,0)"  stroke-width="1.0"/>
<line x1="322.8" y1="188.8" x2="299.5" y2="202.2" stroke="rgb(0,0,0)"  stroke-width="1.0"/>
<line x1="335.5" y1="264.8" x2="312.2" y2="251.3" stroke="rgb(0,0,0)"  stroke-width="1.0"/>
<line x1="231.7" y1="204.8" x2="266.2" y2="184.8" stroke="rgb(0,0,0)"  stroke-width="1.0"/>
<line x1="231.7" y1="231.8" x2="231.7" y2="204.8" stroke="rgb(0,0,0)"  stroke-width="1.0"/>
<line x1="208.2" y1="191.3" x2="231.7" y2="204.8" stroke="rgb(0,0,0)"  stroke-width="1.0"/>
<line x1="197.0" y1="104.8" x2="162.4" y2="124.8" stroke="rgb(0,0,0)"  stroke-width="1.0"/>
<line x1="188.2" y1="101.6" x2="164.0" y2="115.6" stroke="rgb(0,0,0)"  stroke-width="1.0"/>
<line x1="162.4" y1="124.8" x2="127.7" y2="104.8" stroke="rgb(0,0,0)"  stroke-width="1.0"/>
<line x1="127.7" y1="104.8" x2="127.7" y2="64.8" stroke="rgb(0,0,0)"  stroke-width="1.0"/>
<line x1="134.9" y1="98.8" x2="134.9" y2="70.8" stroke="rgb(0,0,0)"  stroke-width="1.0"/>
<line x1="127.7" y1="64.8" x2="162.4" y2="44.8" stroke="rgb(0,0,0)"  stroke-width="1.0"/>
<line x1="162.4" y1="44.8" x2="197.0" y2="64.8" stroke="rgb(0,0,0)"  stroke-width="1.0"/>
<line x1="164.0" y1="54.1" x2="188.2" y2="68.1" stroke="rgb(0,0,0)"  stroke-width="1.0"/>
<line x1="197.0" y1="64.8" x2="197.0" y2="104.8" stroke="rgb(0,0,0)"  stroke-width="1.0"/>
<line x1="335.5" y1="264.8" x2="370.1" y2="244.8" stroke="rgb(0,0,0)"  stroke-width="1.0"/>
<line x1="344.3" y1="268.1" x2="368.5" y2="254.1" stroke="rgb(0,0,0)"  stroke-width="1.0"/>
<line x1="370.1" y1="244.8" x2="404.8" y2="264.8" stroke="rgb(0,0,0)"  stroke-width="1.0"/>
<line x1="404.8" y1="264.8" x2="404.8" y2="304.8" stroke="rgb(0,0,0)"  stroke-width="1.0"/>
<line x1="397.6" y1="270.8" x2="397.6" y2="298.8" stroke="rgb(0,0,0)"  stroke-width="1.0"/>
<line x1="404.8" y1="304.8" x2="370.1" y2="324.8" stroke="rgb(0,0,0)"  stroke-width="1.0"/>
<line x1="370.1" y1="324.8" x2="335.5" y2="304.8" stroke="rgb(0,0,0)"  stroke-width="1.0"/>
<line x1="368.5" y1="315.6" x2="344.3" y2="301.6" stroke="rgb(0,0,0)"  stroke-width="1.0"/>
<line x1="335.5" y1="304.8" x2="335.5" y2="264.8" stroke="rgb(0,0,0)"  stroke-width="1.0"/>
<line x1="106.5" y1="48.1" x2="127.7" y2="64.8" stroke="rgb(0,0,0)"  stroke-width="1.0"/>
<line x1="127.7" y1="104.8" x2="106.5" y2="121.8" stroke="rgb(0,0,0)"  stroke-width="1.0"/>
<line x1="83.7" y1="127.0" x2="57.4" y2="121.0" stroke="rgb(0,0,0)"  stroke-width="1.0"/>
<line x1="57.4" y1="121.0" x2="40.0" y2="84.8" stroke="rgb(0,0,0)"  stroke-width="1.0"/>
<line x1="40.0" y1="84.8" x2="57.4" y2="48.9" stroke="rgb(0,0,0)"  stroke-width="1.0"/>
<line x1="57.4" y1="48.9" x2="83.7" y2="42.9" stroke="rgb(0,0,0)"  stroke-width="1.0"/>
<text x="225.696834" y="132.840914" fill="rgb(178,178,0)"  stroke="rgb(178,178,0)" stroke-width="1" font-size="16" >S</text>
<text x="260.239206" y="152.839130" fill="rgb(12,12,255)"  stroke="rgb(12,12,255)" stroke-width="1" font-size="16" >NH</text>
<text x="282.985196" y="252.830207" fill="rgb(12,12,255)"  stroke="rgb(12,12,255)" stroke-width="1" font-size="16" >HN</text>
<text x="245.695049" y="98.298542" fill="rgb(255,12,12)"  stroke="rgb(255,12,12)" stroke-width="1" font-size="16" >O</text>
<text x="205.698618" y="167.586905" fill="rgb(255,12,12)"  stroke="rgb(255,12,12)" stroke-width="1" font-size="16" >O</text>
<text x="468.099446" y="232.831992" fill="rgb(102,102,102)"  stroke="rgb(102,102,102)" stroke-width="1" font-size="16" >CH</text>
<text x="329.527569" y="192.835561" fill="rgb(255,12,12)"  stroke="rgb(255,12,12)" stroke-width="1" font-size="16" >O</text>
<text x="90.358607" y="137.892585" fill="rgb(255,12,12)"  stroke="rgb(255,12,12)" stroke-width="1" font-size="16" >O</text>
<text x="90.358607" y="48.000000" fill="rgb(255,12,12)"  stroke="rgb(255,12,12)" stroke-width="1" font-size="16" >O</text>
<text x="227.696834" y="252.830207" fill="rgb(102,102,102)"  stroke="rgb(102,102,102)" stroke-width="1" font-size="16" >CH</text>
<text x="251.696834" y="256.510207" fill="rgb(102,102,102)"  stroke="rgb(102,102,102)" stroke-width="1" font-size="13" >3</text>
<text x="170.955691" y="192.835561" fill="rgb(102,102,102)"  stroke="rgb(102,102,102)" stroke-width="1" font-size="16" >H</text>
<text x="182.955691" y="196.515561" fill="rgb(102,102,102)"  stroke="rgb(102,102,102)" stroke-width="1" font-size="13" >3</text>
<text x="189.455691" y="192.835561" fill="rgb(102,102,102)"  stroke="rgb(102,102,102)" stroke-width="1" font-size="16" >C</text>
<text font-size="18.000000" fill ="black" font-family="sans-serif"
x="10.000000" y="20.000000" ></text>
<title> - OBDepict</title>
</svg>
