<?xml version="1.0"?>
<svg xmlns="http://www.w3.org/2000/svg"
xmlns:xlink="http://www.w3.org/1999/xlink" xmlns:cml="http://www.xml-cml.org/schema" width="401.895" height="417.06" x="0" y="0" font-family="sans-serif" stroke="rgb(0,0,0)" stroke-width="1"  stroke-linecap="round">
<rect x="0%" y="0%" width="100%" height="100%" stroke-width="0" fill="rgb(255,255,255)"  />
<line x1="221.4" y1="289.4" x2="244.9" y2="275.1" stroke="rgb(0,0,0)"  stroke-width="1.0"/>
<line x1="224.5" y1="294.5" x2="248.0" y2="280.2" stroke="rgb(0,0,0)"  stroke-width="1.0"/>
<line x1="257.6" y1="257.9" x2="257.6" y2="231.3" stroke="rgb(0,0,0)"  stroke-width="1.0"/>
<line x1="257.6" y1="231.3" x2="292.1" y2="211.3" stroke="rgb(0,0,0)"  stroke-width="1.0"/>
<line x1="292.1" y1="211.3" x2="292.1" y2="183.4" stroke="rgb(0,0,0)"  stroke-width="1.0"/>
<line x1="288.3" y1="344.7" x2="250.3" y2="357.6" stroke="rgb(0,0,0)"  stroke-width="1.0"/>
<line x1="313.7" y1="335.4" x2="288.3" y2="344.7" stroke="rgb(0,0,0)"  stroke-width="1.0"/>
<line x1="315.1" y1="339.4" x2="289.7" y2="348.7" stroke="rgb(0,0,0)"  stroke-width="1.0"/>
<line x1="312.3" y1="331.5" x2="286.9" y2="340.8" stroke="rgb(0,0,0)"  stroke-width="1.0"/>
<line x1="348.6" y1="158.8" x2="323.3" y2="150.2" stroke="rgb(0,0,0)"  stroke-width="1.0"/>
<line x1="350.5" y1="153.1" x2="325.2" y2="144.5" stroke="rgb(0,0,0)"  stroke-width="1.0"/>
<line x1="233.1" y1="152.8" x2="259.5" y2="144.5" stroke="rgb(0,0,0)"  stroke-width="1.0"/>
<line x1="234.9" y1="158.5" x2="261.3" y2="150.2" stroke="rgb(0,0,0)"  stroke-width="1.0"/>
<line x1="235.8" y1="215.5" x2="259.0" y2="228.7" stroke="rgb(0,0,0)"  stroke-width="1.0"/>
<line x1="232.8" y1="220.7" x2="256.1" y2="233.9" stroke="rgb(0,0,0)"  stroke-width="1.0"/>
<line x1="250.3" y1="357.6" x2="229.3" y2="339.8" stroke="rgb(0,0,0)"  stroke-width="1.0"/>
<line x1="302.7" y1="162.8" x2="324.3" y2="147.4" stroke="rgb(0,0,0)"  stroke-width="1.0"/>
<line x1="324.3" y1="147.4" x2="312.6" y2="109.4" stroke="rgb(0,0,0)"  stroke-width="1.0"/>
<line x1="312.6" y1="109.4" x2="272.5" y2="109.2" stroke="rgb(0,0,0)"  stroke-width="1.0"/>
<line x1="306.5" y1="116.5" x2="278.5" y2="116.4" stroke="rgb(0,0,0)"  stroke-width="1.0"/>
<line x1="272.5" y1="109.2" x2="260.4" y2="147.4" stroke="rgb(0,0,0)"  stroke-width="1.0"/>
<line x1="260.4" y1="147.4" x2="281.6" y2="162.8" stroke="rgb(0,0,0)"  stroke-width="1.0"/>
<line x1="223.0" y1="291.9" x2="197.8" y2="281.4" stroke="rgb(0,0,0)"  stroke-width="1.0"/>
<line x1="177.3" y1="286.3" x2="159.9" y2="306.7" stroke="rgb(0,0,0)"  stroke-width="1.0"/>
<line x1="159.9" y1="306.7" x2="180.5" y2="340.7" stroke="rgb(0,0,0)"  stroke-width="1.0"/>
<line x1="169.2" y1="308.1" x2="183.6" y2="331.8" stroke="rgb(0,0,0)"  stroke-width="1.0"/>
<line x1="180.5" y1="340.7" x2="206.7" y2="334.4" stroke="rgb(0,0,0)"  stroke-width="1.0"/>
<line x1="220.5" y1="318.4" x2="223.0" y2="291.9" stroke="rgb(0,0,0)"  stroke-width="1.0"/>
<line x1="120.1" y1="307.3" x2="100.7" y2="342.5" stroke="rgb(0,0,0)"  stroke-width="1.0"/>
<line x1="100.7" y1="342.5" x2="61.2" y2="343.7" stroke="rgb(0,0,0)"  stroke-width="1.0"/>
<line x1="94.4" y1="335.5" x2="67.0" y2="336.3" stroke="rgb(0,0,0)"  stroke-width="1.0"/>
<line x1="61.2" y1="343.7" x2="40.0" y2="309.5" stroke="rgb(0,0,0)"  stroke-width="1.0"/>
<line x1="40.0" y1="309.5" x2="58.8" y2="274.3" stroke="rgb(0,0,0)"  stroke-width="1.0"/>
<line x1="49.2" y1="307.6" x2="62.3" y2="283.0" stroke="rgb(0,0,0)"  stroke-width="1.0"/>
<line x1="58.8" y1="274.3" x2="98.8" y2="273.3" stroke="rgb(0,0,0)"  stroke-width="1.0"/>
<line x1="98.8" y1="273.3" x2="120.1" y2="307.3" stroke="rgb(0,0,0)"  stroke-width="1.0"/>
<line x1="95.9" y1="282.2" x2="110.8" y2="306.0" stroke="rgb(0,0,0)"  stroke-width="1.0"/>
<line x1="161.7" y1="375.8" x2="121.9" y2="377.1" stroke="rgb(0,0,0)"  stroke-width="1.0"/>
<line x1="155.5" y1="368.8" x2="127.7" y2="369.7" stroke="rgb(0,0,0)"  stroke-width="1.0"/>
<line x1="121.9" y1="377.1" x2="100.7" y2="342.5" stroke="rgb(0,0,0)"  stroke-width="1.0"/>
<line x1="120.1" y1="307.3" x2="159.9" y2="306.7" stroke="rgb(0,0,0)"  stroke-width="1.0"/>
<line x1="180.5" y1="340.7" x2="161.7" y2="375.8" stroke="rgb(0,0,0)"  stroke-width="1.0"/>
<line x1="252.7" y1="74.6" x2="273.1" y2="40.0" stroke="rgb(0,0,0)"  stroke-width="1.0"/>
<line x1="262.0" y1="73.1" x2="276.3" y2="48.8" stroke="rgb(0,0,0)"  stroke-width="1.0"/>
<line x1="273.1" y1="40.0" x2="313.2" y2="40.0" stroke="rgb(0,0,0)"  stroke-width="1.0"/>
<line x1="313.2" y1="40.0" x2="332.8" y2="74.6" stroke="rgb(0,0,0)"  stroke-width="1.0"/>
<line x1="309.9" y1="48.8" x2="323.6" y2="72.9" stroke="rgb(0,0,0)"  stroke-width="1.0"/>
<line x1="332.8" y1="74.6" x2="312.6" y2="109.4" stroke="rgb(0,0,0)"  stroke-width="1.0"/>
<line x1="272.5" y1="109.2" x2="252.7" y2="74.6" stroke="rgb(0,0,0)"  stroke-width="1.0"/>
<text x="286.138348" y="178.414713" fill="rgb(12,12,255)"  stroke="rgb(12,12,255)" stroke-width="1" font-size="16" >N</text>
<text x="179.783026" y="284.367266" fill="rgb(178,178,0)"  stroke="rgb(178,178,0)" stroke-width="1" font-size="16" >S</text>
<text x="213.348740" y="339.362241" fill="rgb(12,12,255)"  stroke="rgb(12,12,255)" stroke-width="1" font-size="16" >N</text>
<text x="251.563284" y="278.908045" fill="rgb(12,12,255)"  stroke="rgb(12,12,255)" stroke-width="1" font-size="16" >N</text>
<text x="319.903020" y="338.959472" fill="rgb(102,102,102)"  stroke="rgb(102,102,102)" stroke-width="1" font-size="16" >CH</text>
<text x="355.895055" y="168.102852" fill="rgb(255,12,12)"  stroke="rgb(255,12,12)" stroke-width="1" font-size="16" >O</text>
<text x="215.571249" y="167.496272" fill="rgb(255,12,12)"  stroke="rgb(255,12,12)" stroke-width="1" font-size="16" >O</text>
<text x="216.988220" y="219.662158" fill="rgb(255,12,12)"  stroke="rgb(255,12,12)" stroke-width="1" font-size="16" >O</text>
<text font-size="18.000000" fill ="black" font-family="sans-serif"
x="10.000000" y="20.000000" ></text>
<title> - OBDepict</title>
</svg>
