<?xml version="1.0"?>
<svg xmlns="http://www.w3.org/2000/svg"
xmlns:xlink="http://www.w3.org/1999/xlink" xmlns:cml="http://www.xml-cml.org/schema" width="338.108" height="390.416" x="0" y="0" font-family="sans-serif" stroke="rgb(0,0,0)" stroke-width="1"  stroke-linecap="round">
<rect x="0%" y="0%" width="100%" height="100%" stroke-width="0" fill="rgb(255,255,255)"  />
<line x1="190.4" y1="192.5" x2="158.1" y2="216.1" stroke="rgb(0,0,0)"  stroke-width="1.0"/>
<line x1="186.9" y1="187.6" x2="154.6" y2="211.3" stroke="rgb(0,0,0)"  stroke-width="1.0"/>
<line x1="105.8" y1="304.0" x2="114.1" y2="278.4" stroke="rgb(0,0,0)"  stroke-width="1.0"/>
<line x1="67.7" y1="230.7" x2="94.7" y2="230.7" stroke="rgb(0,0,0)"  stroke-width="1.0"/>
<line x1="67.7" y1="236.7" x2="94.7" y2="236.7" stroke="rgb(0,0,0)"  stroke-width="1.0"/>
<line x1="225.2" y1="206.4" x2="188.6" y2="190.1" stroke="rgb(0,0,0)"  stroke-width="1.0"/>
<line x1="281.5" y1="79.8" x2="285.6" y2="119.6" stroke="rgb(0,0,0)"  stroke-width="1.0"/>
<line x1="278.7" y1="52.9" x2="281.5" y2="79.8" stroke="rgb(0,0,0)"  stroke-width="1.0"/>
<line x1="282.9" y1="52.5" x2="285.7" y2="79.3" stroke="rgb(0,0,0)"  stroke-width="1.0"/>
<line x1="274.5" y1="53.4" x2="277.4" y2="80.2" stroke="rgb(0,0,0)"  stroke-width="1.0"/>
<line x1="66.7" y1="312.2" x2="105.8" y2="304.0" stroke="rgb(0,0,0)"  stroke-width="1.0"/>
<line x1="176.4" y1="271.9" x2="154.6" y2="256.1" stroke="rgb(0,0,0)"  stroke-width="1.0"/>
<line x1="179.9" y1="267.0" x2="158.1" y2="251.2" stroke="rgb(0,0,0)"  stroke-width="1.0"/>
<line x1="55.5" y1="337.1" x2="63.8" y2="311.3" stroke="rgb(0,0,0)"  stroke-width="1.0"/>
<line x1="61.2" y1="339.0" x2="69.5" y2="313.2" stroke="rgb(0,0,0)"  stroke-width="1.0"/>
<line x1="48.7" y1="292.2" x2="66.7" y2="312.2" stroke="rgb(0,0,0)"  stroke-width="1.0"/>
<line x1="254.7" y1="156.1" x2="257.5" y2="182.8" stroke="rgb(0,0,0)"  stroke-width="1.0"/>
<line x1="285.6" y1="119.6" x2="263.8" y2="135.5" stroke="rgb(0,0,0)"  stroke-width="1.0"/>
<line x1="110.5" y1="255.5" x2="94.7" y2="233.7" stroke="rgb(0,0,0)"  stroke-width="1.0"/>
<line x1="94.7" y1="233.7" x2="110.6" y2="211.7" stroke="rgb(0,0,0)"  stroke-width="1.0"/>
<line x1="130.5" y1="205.2" x2="156.3" y2="213.7" stroke="rgb(0,0,0)"  stroke-width="1.0"/>
<line x1="156.3" y1="213.7" x2="156.3" y2="253.7" stroke="rgb(0,0,0)"  stroke-width="1.0"/>
<line x1="156.3" y1="253.7" x2="130.5" y2="262.0" stroke="rgb(0,0,0)"  stroke-width="1.0"/>
<line x1="225.2" y1="206.4" x2="257.5" y2="182.8" stroke="rgb(0,0,0)"  stroke-width="1.0"/>
<line x1="234.3" y1="208.7" x2="256.9" y2="192.1" stroke="rgb(0,0,0)"  stroke-width="1.0"/>
<line x1="257.5" y1="182.8" x2="294.1" y2="199.1" stroke="rgb(0,0,0)"  stroke-width="1.0"/>
<line x1="294.1" y1="199.1" x2="298.1" y2="238.9" stroke="rgb(0,0,0)"  stroke-width="1.0"/>
<line x1="287.5" y1="205.8" x2="290.3" y2="233.7" stroke="rgb(0,0,0)"  stroke-width="1.0"/>
<line x1="298.1" y1="238.9" x2="265.8" y2="262.4" stroke="rgb(0,0,0)"  stroke-width="1.0"/>
<line x1="265.8" y1="262.4" x2="229.2" y2="246.2" stroke="rgb(0,0,0)"  stroke-width="1.0"/>
<line x1="263.2" y1="253.3" x2="237.6" y2="242.0" stroke="rgb(0,0,0)"  stroke-width="1.0"/>
<line x1="229.2" y1="246.2" x2="225.2" y2="206.4" stroke="rgb(0,0,0)"  stroke-width="1.0"/>
<text x="112.161623" y="273.996312" fill="rgb(12,12,255)"  stroke="rgb(12,12,255)" stroke-width="1" font-size="16" >N</text>
<text x="112.161623" y="209.166232" fill="rgb(178,178,0)"  stroke="rgb(178,178,0)" stroke-width="1" font-size="16" >S</text>
<text x="48.747110" y="241.680653" fill="rgb(178,178,0)"  stroke="rgb(178,178,0)" stroke-width="1" font-size="16" >S</text>
<text x="259.306309" y="48.000000" fill="rgb(102,102,102)"  stroke="rgb(102,102,102)" stroke-width="1" font-size="16" >HC</text>
<text x="182.649125" y="285.102700" fill="rgb(255,12,12)"  stroke="rgb(255,12,12)" stroke-width="1" font-size="16" >O</text>
<text x="48.339892" y="358.416489" fill="rgb(255,12,12)"  stroke="rgb(255,12,12)" stroke-width="1" font-size="16" >O</text>
<text x="22.000000" y="290.556512" fill="rgb(255,12,12)"  stroke="rgb(255,12,12)" stroke-width="1" font-size="16" >HO</text>
<text x="247.275597" y="151.200684" fill="rgb(255,12,12)"  stroke="rgb(255,12,12)" stroke-width="1" font-size="16" >O</text>
<text font-size="18.000000" fill ="black" font-family="sans-serif"
x="10.000000" y="20.000000" ></text>
<title> - OBDepict</title>
</svg>
