<?xml version="1.0"?>
<svg xmlns="http://www.w3.org/2000/svg"
xmlns:xlink="http://www.w3.org/1999/xlink" xmlns:cml="http://www.xml-cml.org/schema" width="357.003" height="280.25" x="0" y="0" font-family="sans-serif" stroke="rgb(0,0,0)" stroke-width="1"  stroke-linecap="round">
<rect x="0%" y="0%" width="100%" height="100%" stroke-width="0" fill="rgb(255,255,255)"  />
<line x1="247.6" y1="160.0" x2="247.6" y2="119.9" stroke="rgb(0,0,0)"  stroke-width="1.0"/>
<line x1="175.4" y1="159.7" x2="175.4" y2="132.6" stroke="rgb(0,0,0)"  stroke-width="1.0"/>
<line x1="181.4" y1="159.7" x2="181.4" y2="132.6" stroke="rgb(0,0,0)"  stroke-width="1.0"/>
<line x1="282.3" y1="100.2" x2="305.7" y2="113.6" stroke="rgb(0,0,0)"  stroke-width="1.0"/>
<line x1="283.8" y1="217.2" x2="307.2" y2="230.7" stroke="rgb(0,0,0)"  stroke-width="1.0"/>
<line x1="280.8" y1="222.4" x2="304.2" y2="235.9" stroke="rgb(0,0,0)"  stroke-width="1.0"/>
<line x1="212.4" y1="60.4" x2="189.2" y2="47.0" stroke="rgb(0,0,0)"  stroke-width="1.0"/>
<line x1="144.2" y1="220.1" x2="120.5" y2="233.8" stroke="rgb(0,0,0)"  stroke-width="1.0"/>
<line x1="98.0" y1="233.7" x2="74.5" y2="220.1" stroke="rgb(0,0,0)"  stroke-width="1.0"/>
<line x1="74.5" y1="220.1" x2="74.5" y2="180.1" stroke="rgb(0,0,0)"  stroke-width="1.0"/>
<line x1="74.5" y1="180.1" x2="51.2" y2="166.5" stroke="rgb(0,0,0)"  stroke-width="1.0"/>
<line x1="72.4" y1="183.7" x2="49.1" y2="170.2" stroke="rgb(0,0,0)"  stroke-width="1.0"/>
<line x1="76.6" y1="176.5" x2="53.3" y2="162.9" stroke="rgb(0,0,0)"  stroke-width="1.0"/>
<line x1="247.6" y1="160.0" x2="282.3" y2="179.6" stroke="rgb(0,0,0)"  stroke-width="1.0"/>
<line x1="282.3" y1="179.6" x2="282.3" y2="219.8" stroke="rgb(0,0,0)"  stroke-width="1.0"/>
<line x1="282.3" y1="219.8" x2="258.9" y2="233.3" stroke="rgb(0,0,0)"  stroke-width="1.0"/>
<line x1="236.4" y1="233.2" x2="213.1" y2="219.8" stroke="rgb(0,0,0)"  stroke-width="1.0"/>
<line x1="213.1" y1="219.8" x2="213.1" y2="180.1" stroke="rgb(0,0,0)"  stroke-width="1.0"/>
<line x1="220.3" y1="213.8" x2="220.3" y2="186.1" stroke="rgb(0,0,0)"  stroke-width="1.0"/>
<line x1="213.1" y1="180.1" x2="247.6" y2="160.0" stroke="rgb(0,0,0)"  stroke-width="1.0"/>
<line x1="213.1" y1="180.1" x2="178.4" y2="159.7" stroke="rgb(0,0,0)"  stroke-width="1.0"/>
<line x1="178.4" y1="159.7" x2="155.4" y2="173.4" stroke="rgb(0,0,0)"  stroke-width="1.0"/>
<line x1="144.2" y1="193.1" x2="144.2" y2="220.1" stroke="rgb(0,0,0)"  stroke-width="1.0"/>
<line x1="144.2" y1="220.1" x2="167.1" y2="233.3" stroke="rgb(0,0,0)"  stroke-width="1.0"/>
<line x1="153.0" y1="216.9" x2="168.9" y2="226.0" stroke="rgb(0,0,0)"  stroke-width="1.0"/>
<line x1="189.7" y1="233.3" x2="213.1" y2="219.8" stroke="rgb(0,0,0)"  stroke-width="1.0"/>
<line x1="247.6" y1="119.9" x2="213.1" y2="100.2" stroke="rgb(0,0,0)"  stroke-width="1.0"/>
<line x1="213.1" y1="100.2" x2="212.4" y2="60.4" stroke="rgb(0,0,0)"  stroke-width="1.0"/>
<line x1="220.2" y1="94.0" x2="219.7" y2="66.3" stroke="rgb(0,0,0)"  stroke-width="1.0"/>
<line x1="212.4" y1="60.4" x2="247.5" y2="40.0" stroke="rgb(0,0,0)"  stroke-width="1.0"/>
<line x1="247.5" y1="40.0" x2="282.3" y2="59.9" stroke="rgb(0,0,0)"  stroke-width="1.0"/>
<line x1="249.1" y1="49.2" x2="273.5" y2="63.2" stroke="rgb(0,0,0)"  stroke-width="1.0"/>
<line x1="282.3" y1="59.9" x2="282.3" y2="100.2" stroke="rgb(0,0,0)"  stroke-width="1.0"/>
<line x1="282.3" y1="100.2" x2="247.6" y2="119.9" stroke="rgb(0,0,0)"  stroke-width="1.0"/>
<line x1="273.5" y1="96.9" x2="249.3" y2="110.7" stroke="rgb(0,0,0)"  stroke-width="1.0"/>
<text x="172.416552" y="247.750717" fill="rgb(12,12,255)"  stroke="rgb(12,12,255)" stroke-width="1" font-size="16" >N</text>
<text x="241.632104" y="247.750717" fill="rgb(12,12,255)"  stroke="rgb(12,12,255)" stroke-width="1" font-size="16" >N</text>
<text x="241.632104" y="263.750717" fill="rgb(12,12,255)"  stroke="rgb(12,12,255)" stroke-width="1" font-size="16" >H</text>
<text x="126.233159" y="188.094682" fill="rgb(12,12,255)"  stroke="rgb(12,12,255)" stroke-width="1" font-size="16" >HN</text>
<text x="172.416552" y="127.594731" fill="rgb(255,12,12)"  stroke="rgb(255,12,12)" stroke-width="1" font-size="16" >O</text>
<text x="311.002858" y="128.099140" fill="rgb(127,178,255)"  stroke="rgb(127,178,255)" stroke-width="1" font-size="16" >F</text>
<text x="311.002858" y="247.750717" fill="rgb(255,12,12)"  stroke="rgb(255,12,12)" stroke-width="1" font-size="16" >O</text>
<text x="159.916994" y="48.504409" fill="rgb(165,40,40)"  stroke="rgb(165,40,40)" stroke-width="1" font-size="16" >Br</text>
<text x="103.210701" y="248.250276" fill="rgb(178,178,0)"  stroke="rgb(178,178,0)" stroke-width="1" font-size="16" >S</text>
<text x="22.000000" y="167.986233" fill="rgb(102,102,102)"  stroke="rgb(102,102,102)" stroke-width="1" font-size="16" >HC</text>
<text font-size="18.000000" fill ="black" font-family="sans-serif"
x="10.000000" y="20.000000" ></text>
<title> - OBDepict</title>
</svg>
