<?xml version="1.0"?>
<svg xmlns="http://www.w3.org/2000/svg"
xmlns:xlink="http://www.w3.org/1999/xlink" xmlns:cml="http://www.xml-cml.org/schema" width="429.424" height="292.198" x="0" y="0" font-family="sans-serif" stroke="rgb(0,0,0)" stroke-width="1"  stroke-linecap="round">
<rect x="0%" y="0%" width="100%" height="100%" stroke-width="0" fill="rgb(255,255,255)"  />
<line x1="204.1" y1="130.3" x2="195.6" y2="104.7" stroke="rgb(0,0,0)"  stroke-width="1.0"/>
<line x1="350.2" y1="243.9" x2="311.0" y2="235.4" stroke="rgb(0,0,0)"  stroke-width="1.0"/>
<line x1="376.7" y1="249.5" x2="350.2" y2="243.9" stroke="rgb(0,0,0)"  stroke-width="1.0"/>
<line x1="375.8" y1="253.6" x2="349.4" y2="248.0" stroke="rgb(0,0,0)"  stroke-width="1.0"/>
<line x1="377.6" y1="245.4" x2="351.1" y2="239.8" stroke="rgb(0,0,0)"  stroke-width="1.0"/>
<line x1="259.7" y1="189.1" x2="247.2" y2="151.1" stroke="rgb(0,0,0)"  stroke-width="1.0"/>
<line x1="239.3" y1="207.2" x2="257.5" y2="187.1" stroke="rgb(0,0,0)"  stroke-width="1.0"/>
<line x1="243.7" y1="211.2" x2="261.9" y2="191.2" stroke="rgb(0,0,0)"  stroke-width="1.0"/>
<line x1="247.2" y1="151.1" x2="220.8" y2="145.4" stroke="rgb(0,0,0)"  stroke-width="1.0"/>
<line x1="286.0" y1="194.7" x2="259.7" y2="189.1" stroke="rgb(0,0,0)"  stroke-width="1.0"/>
<line x1="311.0" y1="235.4" x2="302.7" y2="209.8" stroke="rgb(0,0,0)"  stroke-width="1.0"/>
<line x1="157.6" y1="79.3" x2="157.6" y2="52.3" stroke="rgb(0,0,0)"  stroke-width="1.0"/>
<line x1="157.6" y1="52.3" x2="183.2" y2="44.0" stroke="rgb(0,0,0)"  stroke-width="1.0"/>
<line x1="203.3" y1="50.5" x2="211.6" y2="61.8" stroke="rgb(0,0,0)"  stroke-width="1.0"/>
<line x1="211.5" y1="83.0" x2="195.6" y2="104.7" stroke="rgb(0,0,0)"  stroke-width="1.0"/>
<line x1="204.5" y1="80.4" x2="193.3" y2="95.6" stroke="rgb(0,0,0)"  stroke-width="1.0"/>
<line x1="195.6" y1="104.7" x2="170.0" y2="96.4" stroke="rgb(0,0,0)"  stroke-width="1.0"/>
<line x1="96.0" y1="72.3" x2="112.0" y2="50.5" stroke="rgb(0,0,0)"  stroke-width="1.0"/>
<line x1="132.2" y1="44.1" x2="157.6" y2="52.3" stroke="rgb(0,0,0)"  stroke-width="1.0"/>
<line x1="131.9" y1="51.5" x2="149.7" y2="57.3" stroke="rgb(0,0,0)"  stroke-width="1.0"/>
<line x1="145.3" y1="96.4" x2="119.6" y2="104.7" stroke="rgb(0,0,0)"  stroke-width="1.0"/>
<line x1="119.6" y1="104.7" x2="96.0" y2="72.3" stroke="rgb(0,0,0)"  stroke-width="1.0"/>
<line x1="121.9" y1="95.6" x2="105.3" y2="72.9" stroke="rgb(0,0,0)"  stroke-width="1.0"/>
<line x1="56.4" y1="76.6" x2="96.0" y2="72.3" stroke="rgb(0,0,0)"  stroke-width="1.0"/>
<line x1="119.6" y1="104.7" x2="103.3" y2="141.2" stroke="rgb(0,0,0)"  stroke-width="1.0"/>
<line x1="103.3" y1="141.2" x2="63.4" y2="145.5" stroke="rgb(0,0,0)"  stroke-width="1.0"/>
<line x1="96.5" y1="134.7" x2="68.6" y2="137.7" stroke="rgb(0,0,0)"  stroke-width="1.0"/>
<line x1="63.4" y1="145.5" x2="40.0" y2="113.2" stroke="rgb(0,0,0)"  stroke-width="1.0"/>
<line x1="40.0" y1="113.2" x2="56.4" y2="76.6" stroke="rgb(0,0,0)"  stroke-width="1.0"/>
<line x1="49.0" y1="110.6" x2="60.5" y2="85.0" stroke="rgb(0,0,0)"  stroke-width="1.0"/>
<text x="151.618318" y="100.342214" fill="rgb(12,12,255)"  stroke="rgb(12,12,255)" stroke-width="1" font-size="16" >N</text>
<text x="113.627140" y="48.000000" fill="rgb(12,12,255)"  stroke="rgb(12,12,255)" stroke-width="1" font-size="16" >N</text>
<text x="213.264196" y="80.332298" fill="rgb(12,12,255)"  stroke="rgb(12,12,255)" stroke-width="1" font-size="16" >N</text>
<text x="189.614349" y="48.000000" fill="rgb(12,12,255)"  stroke="rgb(12,12,255)" stroke-width="1" font-size="16" >N</text>
<text x="189.614349" y="32.000000" fill="rgb(12,12,255)"  stroke="rgb(12,12,255)" stroke-width="1" font-size="16" >H</text>
<text x="202.145419" y="150.660626" fill="rgb(178,178,0)"  stroke="rgb(178,178,0)" stroke-width="1" font-size="16" >S</text>
<text x="383.423711" y="260.198296" fill="rgb(102,102,102)"  stroke="rgb(102,102,102)" stroke-width="1" font-size="16" >CH</text>
<text x="226.795035" y="226.851671" fill="rgb(255,12,12)"  stroke="rgb(255,12,12)" stroke-width="1" font-size="16" >O</text>
<text x="292.687500" y="205.429461" fill="rgb(12,12,255)"  stroke="rgb(12,12,255)" stroke-width="1" font-size="16" >N</text>
<text x="292.687500" y="189.429461" fill="rgb(12,12,255)"  stroke="rgb(12,12,255)" stroke-width="1" font-size="16" >H</text>
<text font-size="18.000000" fill ="black" font-family="sans-serif"
x="10.000000" y="20.000000" ></text>
<title> - OBDepict</title>
</svg>
