<?xml version="1.0"?>
<svg xmlns="http://www.w3.org/2000/svg"
xmlns:xlink="http://www.w3.org/1999/xlink" xmlns:cml="http://www.xml-cml.org/schema" width="366.861" height="448.266" x="0" y="0" font-family="sans-serif" stroke="rgb(0,0,0)" stroke-width="1"  stroke-linecap="round">
<rect x="0%" y="0%" width="100%" height="100%" stroke-width="0" fill="rgb(255,255,255)"  />
<line x1="201.7" y1="328.1" x2="163.3" y2="340.5" stroke="rgb(0,0,0)"  stroke-width="1.0"/>
<line x1="199.9" y1="322.4" x2="161.5" y2="334.8" stroke="rgb(0,0,0)"  stroke-width="1.0"/>
<line x1="230.9" y1="181.0" x2="225.1" y2="207.3" stroke="rgb(0,0,0)"  stroke-width="1.0"/>
<line x1="208.7" y1="285.9" x2="200.8" y2="325.2" stroke="rgb(0,0,0)"  stroke-width="1.0"/>
<line x1="50.8" y1="285.9" x2="59.3" y2="325.2" stroke="rgb(0,0,0)"  stroke-width="1.0"/>
<line x1="43.5" y1="259.4" x2="50.8" y2="285.9" stroke="rgb(0,0,0)"  stroke-width="1.0"/>
<line x1="47.5" y1="258.3" x2="54.8" y2="284.7" stroke="rgb(0,0,0)"  stroke-width="1.0"/>
<line x1="39.4" y1="260.5" x2="46.7" y2="287.0" stroke="rgb(0,0,0)"  stroke-width="1.0"/>
<line x1="91.4" y1="396.0" x2="107.4" y2="374.2" stroke="rgb(0,0,0)"  stroke-width="1.0"/>
<line x1="96.2" y1="399.6" x2="112.3" y2="377.8" stroke="rgb(0,0,0)"  stroke-width="1.0"/>
<line x1="280.6" y1="117.1" x2="271.8" y2="156.7" stroke="rgb(0,0,0)"  stroke-width="1.0"/>
<line x1="132.7" y1="286.6" x2="132.9" y2="313.8" stroke="rgb(0,0,0)"  stroke-width="1.0"/>
<line x1="126.7" y1="286.7" x2="126.9" y2="313.9" stroke="rgb(0,0,0)"  stroke-width="1.0"/>
<line x1="59.3" y1="325.2" x2="84.9" y2="333.6" stroke="rgb(0,0,0)"  stroke-width="1.0"/>
<line x1="271.8" y1="156.7" x2="246.1" y2="164.5" stroke="rgb(0,0,0)"  stroke-width="1.0"/>
<line x1="280.3" y1="226.3" x2="254.4" y2="234.1" stroke="rgb(0,0,0)"  stroke-width="1.0"/>
<line x1="167.6" y1="202.0" x2="187.4" y2="220.1" stroke="rgb(0,0,0)"  stroke-width="1.0"/>
<line x1="225.4" y1="99.2" x2="251.1" y2="91.2" stroke="rgb(0,0,0)"  stroke-width="1.0"/>
<line x1="132.6" y1="201.5" x2="145.6" y2="197.3" stroke="rgb(0,0,0)"  stroke-width="1.0"/>
<line x1="107.8" y1="330.0" x2="129.9" y2="313.9" stroke="rgb(0,0,0)"  stroke-width="1.0"/>
<line x1="129.9" y1="313.9" x2="162.4" y2="337.6" stroke="rgb(0,0,0)"  stroke-width="1.0"/>
<line x1="162.4" y1="337.6" x2="154.0" y2="363.6" stroke="rgb(0,0,0)"  stroke-width="1.0"/>
<line x1="137.0" y1="376.0" x2="109.8" y2="376.0" stroke="rgb(0,0,0)"  stroke-width="1.0"/>
<line x1="109.8" y1="376.0" x2="101.3" y2="350.0" stroke="rgb(0,0,0)"  stroke-width="1.0"/>
<line x1="254.4" y1="234.1" x2="225.1" y2="207.3" stroke="rgb(0,0,0)"  stroke-width="1.0"/>
<line x1="225.1" y1="207.3" x2="187.4" y2="220.1" stroke="rgb(0,0,0)"  stroke-width="1.0"/>
<line x1="221.8" y1="216.0" x2="195.4" y2="225.0" stroke="rgb(0,0,0)"  stroke-width="1.0"/>
<line x1="187.4" y1="220.1" x2="178.7" y2="259.1" stroke="rgb(0,0,0)"  stroke-width="1.0"/>
<line x1="178.7" y1="259.1" x2="208.7" y2="285.9" stroke="rgb(0,0,0)"  stroke-width="1.0"/>
<line x1="187.9" y1="257.7" x2="209.0" y2="276.5" stroke="rgb(0,0,0)"  stroke-width="1.0"/>
<line x1="208.7" y1="285.9" x2="246.5" y2="273.5" stroke="rgb(0,0,0)"  stroke-width="1.0"/>
<line x1="246.5" y1="273.5" x2="254.4" y2="234.1" stroke="rgb(0,0,0)"  stroke-width="1.0"/>
<line x1="240.6" y1="266.2" x2="246.1" y2="238.5" stroke="rgb(0,0,0)"  stroke-width="1.0"/>
<line x1="280.6" y1="117.1" x2="251.1" y2="91.2" stroke="rgb(0,0,0)"  stroke-width="1.0"/>
<line x1="251.1" y1="91.2" x2="259.9" y2="52.2" stroke="rgb(0,0,0)"  stroke-width="1.0"/>
<line x1="259.5" y1="86.9" x2="265.6" y2="59.6" stroke="rgb(0,0,0)"  stroke-width="1.0"/>
<line x1="259.9" y1="52.2" x2="298.0" y2="40.0" stroke="rgb(0,0,0)"  stroke-width="1.0"/>
<line x1="298.0" y1="40.0" x2="326.9" y2="67.4" stroke="rgb(0,0,0)"  stroke-width="1.0"/>
<line x1="297.4" y1="49.4" x2="317.6" y2="68.5" stroke="rgb(0,0,0)"  stroke-width="1.0"/>
<line x1="326.9" y1="67.4" x2="318.1" y2="105.6" stroke="rgb(0,0,0)"  stroke-width="1.0"/>
<line x1="318.1" y1="105.6" x2="280.6" y2="117.1" stroke="rgb(0,0,0)"  stroke-width="1.0"/>
<line x1="310.3" y1="100.5" x2="284.2" y2="108.5" stroke="rgb(0,0,0)"  stroke-width="1.0"/>
<text x="91.251795" y="345.621927" fill="rgb(12,12,255)"  stroke="rgb(12,12,255)" stroke-width="1" font-size="16" >N</text>
<text x="144.031249" y="383.988885" fill="rgb(178,178,0)"  stroke="rgb(178,178,0)" stroke-width="1" font-size="16" >S</text>
<text x="227.675199" y="176.304235" fill="rgb(255,12,12)"  stroke="rgb(255,12,12)" stroke-width="1" font-size="16" >O</text>
<text x="22.000000" y="254.873704" fill="rgb(102,102,102)"  stroke="rgb(102,102,102)" stroke-width="1" font-size="16" >HC</text>
<text x="80.083082" y="416.266466" fill="rgb(255,12,12)"  stroke="rgb(255,12,12)" stroke-width="1" font-size="16" >O</text>
<text x="123.529376" y="281.668904" fill="rgb(255,12,12)"  stroke="rgb(255,12,12)" stroke-width="1" font-size="16" >O</text>
<text x="286.752836" y="230.511341" fill="rgb(30,239,30)"  stroke="rgb(30,239,30)" stroke-width="1" font-size="16" >Cl</text>
<text x="151.951323" y="201.278449" fill="rgb(255,12,12)"  stroke="rgb(255,12,12)" stroke-width="1" font-size="16" >O</text>
<text x="194.969376" y="111.137221" fill="rgb(30,239,30)"  stroke="rgb(30,239,30)" stroke-width="1" font-size="16" >Cl</text>
<text x="94.191361" y="213.457202" fill="rgb(102,102,102)"  stroke="rgb(102,102,102)" stroke-width="1" font-size="16" >H</text>
<text x="106.191361" y="217.137202" fill="rgb(102,102,102)"  stroke="rgb(102,102,102)" stroke-width="1" font-size="13" >3</text>
<text x="112.691361" y="213.457202" fill="rgb(102,102,102)"  stroke="rgb(102,102,102)" stroke-width="1" font-size="16" >C</text>
<text font-size="18.000000" fill ="black" font-family="sans-serif"
x="10.000000" y="20.000000" ></text>
<title> - OBDepict</title>
</svg>
