<?xml version="1.0"?>
<svg xmlns="http://www.w3.org/2000/svg"
xmlns:xlink="http://www.w3.org/1999/xlink" xmlns:cml="http://www.xml-cml.org/schema" width="391.892" height="299.926" x="0" y="0" font-family="sans-serif" stroke="rgb(0,0,0)" stroke-width="1"  stroke-linecap="round">
<rect x="0%" y="0%" width="100%" height="100%" stroke-width="0" fill="rgb(255,255,255)"  />
<line x1="177.1" y1="222.5" x2="142.5" y2="202.5" stroke="rgb(0,0,0)"  stroke-width="1.0"/>
<line x1="180.1" y1="217.3" x2="145.5" y2="197.3" stroke="rgb(0,0,0)"  stroke-width="1.0"/>
<line x1="213.3" y1="199.9" x2="178.6" y2="219.9" stroke="rgb(0,0,0)"  stroke-width="1.0"/>
<line x1="351.9" y1="80.0" x2="317.2" y2="100.0" stroke="rgb(0,0,0)"  stroke-width="1.0"/>
<line x1="351.9" y1="53.0" x2="351.9" y2="80.0" stroke="rgb(0,0,0)"  stroke-width="1.0"/>
<line x1="356.1" y1="53.0" x2="356.1" y2="80.0" stroke="rgb(0,0,0)"  stroke-width="1.0"/>
<line x1="347.7" y1="53.0" x2="347.7" y2="80.0" stroke="rgb(0,0,0)"  stroke-width="1.0"/>
<line x1="168.9" y1="149.1" x2="145.5" y2="162.6" stroke="rgb(0,0,0)"  stroke-width="1.0"/>
<line x1="165.9" y1="143.9" x2="142.5" y2="157.4" stroke="rgb(0,0,0)"  stroke-width="1.0"/>
<line x1="106.3" y1="246.9" x2="106.3" y2="219.9" stroke="rgb(0,0,0)"  stroke-width="1.0"/>
<line x1="112.3" y1="246.9" x2="112.3" y2="219.9" stroke="rgb(0,0,0)"  stroke-width="1.0"/>
<line x1="52.8" y1="143.9" x2="76.2" y2="157.4" stroke="rgb(0,0,0)"  stroke-width="1.0"/>
<line x1="49.8" y1="149.1" x2="73.2" y2="162.6" stroke="rgb(0,0,0)"  stroke-width="1.0"/>
<line x1="247.9" y1="113.0" x2="247.9" y2="140.0" stroke="rgb(0,0,0)"  stroke-width="1.0"/>
<line x1="306.0" y1="146.5" x2="282.6" y2="160.0" stroke="rgb(0,0,0)"  stroke-width="1.0"/>
<line x1="306.0" y1="213.4" x2="282.6" y2="199.9" stroke="rgb(0,0,0)"  stroke-width="1.0"/>
<line x1="317.2" y1="100.0" x2="317.2" y2="127.0" stroke="rgb(0,0,0)"  stroke-width="1.0"/>
<line x1="317.2" y1="246.9" x2="317.2" y2="232.9" stroke="rgb(0,0,0)"  stroke-width="1.0"/>
<line x1="144.0" y1="199.9" x2="144.0" y2="160.0" stroke="rgb(0,0,0)"  stroke-width="1.0"/>
<line x1="144.0" y1="160.0" x2="120.6" y2="146.5" stroke="rgb(0,0,0)"  stroke-width="1.0"/>
<line x1="98.0" y1="146.5" x2="74.7" y2="160.0" stroke="rgb(0,0,0)"  stroke-width="1.0"/>
<line x1="74.7" y1="160.0" x2="74.7" y2="186.9" stroke="rgb(0,0,0)"  stroke-width="1.0"/>
<line x1="85.9" y1="206.4" x2="109.3" y2="219.9" stroke="rgb(0,0,0)"  stroke-width="1.0"/>
<line x1="109.3" y1="219.9" x2="144.0" y2="199.9" stroke="rgb(0,0,0)"  stroke-width="1.0"/>
<line x1="247.9" y1="140.0" x2="282.6" y2="160.0" stroke="rgb(0,0,0)"  stroke-width="1.0"/>
<line x1="249.5" y1="149.2" x2="273.8" y2="163.2" stroke="rgb(0,0,0)"  stroke-width="1.0"/>
<line x1="282.6" y1="160.0" x2="282.6" y2="199.9" stroke="rgb(0,0,0)"  stroke-width="1.0"/>
<line x1="282.6" y1="199.9" x2="247.9" y2="219.9" stroke="rgb(0,0,0)"  stroke-width="1.0"/>
<line x1="273.8" y1="196.7" x2="249.5" y2="210.7" stroke="rgb(0,0,0)"  stroke-width="1.0"/>
<line x1="247.9" y1="219.9" x2="213.3" y2="199.9" stroke="rgb(0,0,0)"  stroke-width="1.0"/>
<line x1="213.3" y1="199.9" x2="213.3" y2="160.0" stroke="rgb(0,0,0)"  stroke-width="1.0"/>
<line x1="220.5" y1="193.9" x2="220.5" y2="166.0" stroke="rgb(0,0,0)"  stroke-width="1.0"/>
<line x1="213.3" y1="160.0" x2="247.9" y2="140.0" stroke="rgb(0,0,0)"  stroke-width="1.0"/>
<text x="103.309329" y="147.967989" fill="rgb(12,12,255)"  stroke="rgb(12,12,255)" stroke-width="1" font-size="16" >N</text>
<text x="103.309329" y="131.967989" fill="rgb(12,12,255)"  stroke="rgb(12,12,255)" stroke-width="1" font-size="16" >H</text>
<text x="56.654664" y="207.946843" fill="rgb(12,12,255)"  stroke="rgb(12,12,255)" stroke-width="1" font-size="16" >HN</text>
<text x="345.891979" y="48.000000" fill="rgb(102,102,102)"  stroke="rgb(102,102,102)" stroke-width="1" font-size="16" >CH</text>
<text x="172.618657" y="147.967989" fill="rgb(255,12,12)"  stroke="rgb(255,12,12)" stroke-width="1" font-size="16" >O</text>
<text x="103.309329" y="267.925696" fill="rgb(255,12,12)"  stroke="rgb(255,12,12)" stroke-width="1" font-size="16" >O</text>
<text x="34.000000" y="147.967989" fill="rgb(255,12,12)"  stroke="rgb(255,12,12)" stroke-width="1" font-size="16" >O</text>
<text x="241.927986" y="107.983703" fill="rgb(30,239,30)"  stroke="rgb(30,239,30)" stroke-width="1" font-size="16" >Cl</text>
<text x="311.237314" y="147.967989" fill="rgb(255,12,12)"  stroke="rgb(255,12,12)" stroke-width="1" font-size="16" >O</text>
<text x="311.237314" y="227.941410" fill="rgb(255,12,12)"  stroke="rgb(255,12,12)" stroke-width="1" font-size="16" >O</text>
<text x="313.237314" y="267.925696" fill="rgb(102,102,102)"  stroke="rgb(102,102,102)" stroke-width="1" font-size="16" >CH</text>
<text x="337.237314" y="271.605696" fill="rgb(102,102,102)"  stroke="rgb(102,102,102)" stroke-width="1" font-size="13" >3</text>
<text font-size="18.000000" fill ="black" font-family="sans-serif"
x="10.000000" y="20.000000" ></text>
<title> - OBDepict</title>
</svg>
