<?xml version="1.0"?>
<svg xmlns="http://www.w3.org/2000/svg"
xmlns:xlink="http://www.w3.org/1999/xlink" xmlns:cml="http://www.xml-cml.org/schema" width="287.863" height="339.98" x="0" y="0" font-family="sans-serif" stroke="rgb(0,0,0)" stroke-width="1"  stroke-linecap="round">
<rect x="0%" y="0%" width="100%" height="100%" stroke-width="0" fill="rgb(255,255,255)"  />
<line x1="213.1" y1="160.0" x2="178.6" y2="140.0" stroke="rgb(0,0,0)"  stroke-width="1.0"/>
<line x1="247.9" y1="260.0" x2="247.9" y2="220.0" stroke="rgb(0,0,0)"  stroke-width="1.0"/>
<line x1="247.9" y1="287.0" x2="247.9" y2="260.0" stroke="rgb(0,0,0)"  stroke-width="1.0"/>
<line x1="243.7" y1="287.0" x2="243.7" y2="260.0" stroke="rgb(0,0,0)"  stroke-width="1.0"/>
<line x1="252.1" y1="287.0" x2="252.1" y2="260.0" stroke="rgb(0,0,0)"  stroke-width="1.0"/>
<line x1="238.1" y1="149.1" x2="214.6" y2="162.6" stroke="rgb(0,0,0)"  stroke-width="1.0"/>
<line x1="235.1" y1="143.9" x2="211.6" y2="157.4" stroke="rgb(0,0,0)"  stroke-width="1.0"/>
<line x1="213.1" y1="187.0" x2="213.1" y2="160.0" stroke="rgb(0,0,0)"  stroke-width="1.0"/>
<line x1="201.9" y1="86.5" x2="178.6" y2="100.0" stroke="rgb(0,0,0)"  stroke-width="1.0"/>
<line x1="247.9" y1="220.0" x2="224.4" y2="206.5" stroke="rgb(0,0,0)"  stroke-width="1.0"/>
<line x1="213.1" y1="53.0" x2="213.1" y2="67.0" stroke="rgb(0,0,0)"  stroke-width="1.0"/>
<line x1="178.6" y1="140.0" x2="143.8" y2="160.0" stroke="rgb(0,0,0)"  stroke-width="1.0"/>
<line x1="143.8" y1="160.0" x2="109.3" y2="140.0" stroke="rgb(0,0,0)"  stroke-width="1.0"/>
<line x1="142.2" y1="150.8" x2="118.1" y2="136.8" stroke="rgb(0,0,0)"  stroke-width="1.0"/>
<line x1="109.3" y1="140.0" x2="109.3" y2="100.0" stroke="rgb(0,0,0)"  stroke-width="1.0"/>
<line x1="109.3" y1="100.0" x2="143.8" y2="80.0" stroke="rgb(0,0,0)"  stroke-width="1.0"/>
<line x1="118.1" y1="103.2" x2="142.2" y2="89.2" stroke="rgb(0,0,0)"  stroke-width="1.0"/>
<line x1="143.8" y1="80.0" x2="178.6" y2="100.0" stroke="rgb(0,0,0)"  stroke-width="1.0"/>
<line x1="178.6" y1="100.0" x2="178.6" y2="140.0" stroke="rgb(0,0,0)"  stroke-width="1.0"/>
<line x1="171.4" y1="106.0" x2="171.4" y2="134.0" stroke="rgb(0,0,0)"  stroke-width="1.0"/>
<line x1="74.5" y1="80.0" x2="109.3" y2="100.0" stroke="rgb(0,0,0)"  stroke-width="1.0"/>
<line x1="109.3" y1="140.0" x2="74.5" y2="160.0" stroke="rgb(0,0,0)"  stroke-width="1.0"/>
<line x1="74.5" y1="160.0" x2="40.0" y2="140.0" stroke="rgb(0,0,0)"  stroke-width="1.0"/>
<line x1="73.0" y1="150.8" x2="48.8" y2="136.8" stroke="rgb(0,0,0)"  stroke-width="1.0"/>
<line x1="40.0" y1="140.0" x2="40.0" y2="100.0" stroke="rgb(0,0,0)"  stroke-width="1.0"/>
<line x1="40.0" y1="100.0" x2="74.5" y2="80.0" stroke="rgb(0,0,0)"  stroke-width="1.0"/>
<line x1="48.8" y1="103.2" x2="73.0" y2="89.2" stroke="rgb(0,0,0)"  stroke-width="1.0"/>
<text x="241.863196" y="307.980499" fill="rgb(102,102,102)"  stroke="rgb(102,102,102)" stroke-width="1" font-size="16" >CH</text>
<text x="241.863196" y="147.992500" fill="rgb(255,12,12)"  stroke="rgb(255,12,12)" stroke-width="1" font-size="16" >O</text>
<text x="195.121560" y="207.988000" fill="rgb(12,12,255)"  stroke="rgb(12,12,255)" stroke-width="1" font-size="16" >HN</text>
<text x="207.121560" y="87.997000" fill="rgb(255,12,12)"  stroke="rgb(255,12,12)" stroke-width="1" font-size="16" >O</text>
<text x="209.121560" y="48.000000" fill="rgb(102,102,102)"  stroke="rgb(102,102,102)" stroke-width="1" font-size="16" >CH</text>
<text x="233.121560" y="51.680000" fill="rgb(102,102,102)"  stroke="rgb(102,102,102)" stroke-width="1" font-size="13" >3</text>
<text font-size="18.000000" fill ="black" font-family="sans-serif"
x="10.000000" y="20.000000" ></text>
<title> - OBDepict</title>
</svg>
