<?xml version="1.0"?>
<svg xmlns="http://www.w3.org/2000/svg"
xmlns:xlink="http://www.w3.org/1999/xlink" xmlns:cml="http://www.xml-cml.org/schema" width="253.087" height="454.646" x="0" y="0" font-family="sans-serif" stroke="rgb(0,0,0)" stroke-width="1"  stroke-linecap="round">
<rect x="0%" y="0%" width="100%" height="100%" stroke-width="0" fill="rgb(255,255,255)"  />
<line x1="178.6" y1="332.9" x2="178.6" y2="359.9" stroke="rgb(0,0,0)"  stroke-width="1.0"/>
<line x1="178.6" y1="200.0" x2="178.6" y2="239.9" stroke="rgb(0,0,0)"  stroke-width="1.0"/>
<line x1="143.8" y1="379.9" x2="178.6" y2="359.9" stroke="rgb(0,0,0)"  stroke-width="1.0"/>
<line x1="155.1" y1="186.4" x2="178.6" y2="200.0" stroke="rgb(0,0,0)"  stroke-width="1.0"/>
<line x1="74.7" y1="60.0" x2="109.3" y2="80.0" stroke="rgb(0,0,0)"  stroke-width="1.0"/>
<line x1="51.3" y1="46.5" x2="74.7" y2="60.0" stroke="rgb(0,0,0)"  stroke-width="1.0"/>
<line x1="53.4" y1="42.8" x2="76.8" y2="56.4" stroke="rgb(0,0,0)"  stroke-width="1.0"/>
<line x1="49.2" y1="50.1" x2="72.6" y2="63.6" stroke="rgb(0,0,0)"  stroke-width="1.0"/>
<line x1="200.3" y1="376.0" x2="177.0" y2="362.5" stroke="rgb(0,0,0)"  stroke-width="1.0"/>
<line x1="203.3" y1="370.8" x2="180.1" y2="357.3" stroke="rgb(0,0,0)"  stroke-width="1.0"/>
<line x1="203.3" y1="189.1" x2="180.1" y2="202.6" stroke="rgb(0,0,0)"  stroke-width="1.0"/>
<line x1="200.3" y1="183.9" x2="177.0" y2="197.4" stroke="rgb(0,0,0)"  stroke-width="1.0"/>
<line x1="143.8" y1="140.0" x2="143.8" y2="167.0" stroke="rgb(0,0,0)"  stroke-width="1.0"/>
<line x1="143.8" y1="379.9" x2="123.8" y2="414.6" stroke="rgb(0,0,0)"  stroke-width="1.0"/>
<line x1="123.8" y1="414.6" x2="103.8" y2="379.9" stroke="rgb(0,0,0)"  stroke-width="1.0"/>
<line x1="103.8" y1="379.9" x2="143.8" y2="379.9" stroke="rgb(0,0,0)"  stroke-width="1.0"/>
<line x1="167.3" y1="313.4" x2="143.8" y2="299.9" stroke="rgb(0,0,0)"  stroke-width="1.0"/>
<line x1="143.8" y1="299.9" x2="143.8" y2="259.9" stroke="rgb(0,0,0)"  stroke-width="1.0"/>
<line x1="143.8" y1="259.9" x2="178.6" y2="239.9" stroke="rgb(0,0,0)"  stroke-width="1.0"/>
<line x1="178.6" y1="239.9" x2="213.1" y2="259.9" stroke="rgb(0,0,0)"  stroke-width="1.0"/>
<line x1="213.1" y1="259.9" x2="213.1" y2="299.9" stroke="rgb(0,0,0)"  stroke-width="1.0"/>
<line x1="213.1" y1="299.9" x2="189.8" y2="313.4" stroke="rgb(0,0,0)"  stroke-width="1.0"/>
<line x1="143.8" y1="140.0" x2="109.3" y2="120.0" stroke="rgb(0,0,0)"  stroke-width="1.0"/>
<line x1="142.2" y1="130.7" x2="118.1" y2="116.8" stroke="rgb(0,0,0)"  stroke-width="1.0"/>
<line x1="109.3" y1="120.0" x2="109.3" y2="80.0" stroke="rgb(0,0,0)"  stroke-width="1.0"/>
<line x1="109.3" y1="80.0" x2="143.8" y2="60.0" stroke="rgb(0,0,0)"  stroke-width="1.0"/>
<line x1="118.1" y1="83.2" x2="142.2" y2="69.2" stroke="rgb(0,0,0)"  stroke-width="1.0"/>
<line x1="143.8" y1="60.0" x2="178.6" y2="80.0" stroke="rgb(0,0,0)"  stroke-width="1.0"/>
<line x1="178.6" y1="80.0" x2="178.6" y2="120.0" stroke="rgb(0,0,0)"  stroke-width="1.0"/>
<line x1="171.4" y1="86.0" x2="171.4" y2="114.0" stroke="rgb(0,0,0)"  stroke-width="1.0"/>
<line x1="178.6" y1="120.0" x2="143.8" y2="140.0" stroke="rgb(0,0,0)"  stroke-width="1.0"/>
<text x="172.551051" y="327.923145" fill="rgb(12,12,255)"  stroke="rgb(12,12,255)" stroke-width="1" font-size="16" >N</text>
<text x="125.811498" y="187.961572" fill="rgb(12,12,255)"  stroke="rgb(12,12,255)" stroke-width="1" font-size="16" >HN</text>
<text x="22.000000" y="48.000000" fill="rgb(102,102,102)"  stroke="rgb(102,102,102)" stroke-width="1" font-size="16" >HC</text>
<text x="207.087023" y="387.906676" fill="rgb(255,12,12)"  stroke="rgb(255,12,12)" stroke-width="1" font-size="16" >O</text>
<text x="207.087023" y="187.961572" fill="rgb(255,12,12)"  stroke="rgb(255,12,12)" stroke-width="1" font-size="16" >O</text>
<text font-size="18.000000" fill ="black" font-family="sans-serif"
x="10.000000" y="20.000000" ></text>
<title> - OBDepict</title>
</svg>
