<?xml version="1.0"?>
<svg xmlns="http://www.w3.org/2000/svg"
xmlns:xlink="http://www.w3.org/1999/xlink" xmlns:cml="http://www.xml-cml.org/schema" width="355.889" height="382.398" x="0" y="0" font-family="sans-serif" stroke="rgb(0,0,0)" stroke-width="1"  stroke-linecap="round">
<rect x="0%" y="0%" width="100%" height="100%" stroke-width="0" fill="rgb(255,255,255)"  />
<line x1="211.3" y1="159.3" x2="176.7" y2="179.5" stroke="rgb(0,0,0)"  stroke-width="1.0"/>
<line x1="248.1" y1="220.9" x2="224.6" y2="235.2" stroke="rgb(0,0,0)"  stroke-width="1.0"/>
<line x1="244.9" y1="215.8" x2="221.5" y2="230.0" stroke="rgb(0,0,0)"  stroke-width="1.0"/>
<line x1="177.5" y1="102.6" x2="154.1" y2="116.3" stroke="rgb(0,0,0)"  stroke-width="1.0"/>
<line x1="174.5" y1="97.4" x2="151.1" y2="111.1" stroke="rgb(0,0,0)"  stroke-width="1.0"/>
<line x1="291.1" y1="111.9" x2="303.1" y2="104.7" stroke="rgb(0,0,0)"  stroke-width="1.0"/>
<line x1="108.1" y1="220.9" x2="84.8" y2="235.0" stroke="rgb(0,0,0)"  stroke-width="1.0"/>
<line x1="73.9" y1="254.7" x2="74.4" y2="281.7" stroke="rgb(0,0,0)"  stroke-width="1.0"/>
<line x1="74.4" y1="281.7" x2="40.0" y2="302.1" stroke="rgb(0,0,0)"  stroke-width="1.0"/>
<line x1="40.0" y1="302.1" x2="40.4" y2="329.4" stroke="rgb(0,0,0)"  stroke-width="1.0"/>
<line x1="44.2" y1="302.0" x2="44.6" y2="329.3" stroke="rgb(0,0,0)"  stroke-width="1.0"/>
<line x1="35.8" y1="302.2" x2="36.2" y2="329.5" stroke="rgb(0,0,0)"  stroke-width="1.0"/>
<line x1="211.3" y1="159.3" x2="210.8" y2="119.5" stroke="rgb(0,0,0)"  stroke-width="1.0"/>
<line x1="210.8" y1="119.5" x2="244.8" y2="99.3" stroke="rgb(0,0,0)"  stroke-width="1.0"/>
<line x1="219.6" y1="122.6" x2="243.4" y2="108.5" stroke="rgb(0,0,0)"  stroke-width="1.0"/>
<line x1="244.8" y1="99.3" x2="268.6" y2="112.3" stroke="rgb(0,0,0)"  stroke-width="1.0"/>
<line x1="280.2" y1="131.6" x2="280.6" y2="158.2" stroke="rgb(0,0,0)"  stroke-width="1.0"/>
<line x1="280.6" y1="158.2" x2="246.1" y2="179.0" stroke="rgb(0,0,0)"  stroke-width="1.0"/>
<line x1="271.7" y1="155.1" x2="247.5" y2="169.7" stroke="rgb(0,0,0)"  stroke-width="1.0"/>
<line x1="246.1" y1="179.0" x2="211.3" y2="159.3" stroke="rgb(0,0,0)"  stroke-width="1.0"/>
<line x1="244.5" y1="58.8" x2="244.8" y2="99.3" stroke="rgb(0,0,0)"  stroke-width="1.0"/>
<line x1="210.8" y1="119.5" x2="176.0" y2="100.0" stroke="rgb(0,0,0)"  stroke-width="1.0"/>
<line x1="176.0" y1="100.0" x2="175.5" y2="60.2" stroke="rgb(0,0,0)"  stroke-width="1.0"/>
<line x1="175.5" y1="60.2" x2="209.5" y2="40.0" stroke="rgb(0,0,0)"  stroke-width="1.0"/>
<line x1="209.5" y1="40.0" x2="244.5" y2="58.8" stroke="rgb(0,0,0)"  stroke-width="1.0"/>
<line x1="246.1" y1="179.0" x2="246.5" y2="218.3" stroke="rgb(0,0,0)"  stroke-width="1.0"/>
<line x1="246.5" y1="218.3" x2="281.5" y2="238.2" stroke="rgb(0,0,0)"  stroke-width="1.0"/>
<line x1="281.5" y1="238.2" x2="315.9" y2="218.0" stroke="rgb(0,0,0)"  stroke-width="1.0"/>
<line x1="315.9" y1="218.0" x2="315.5" y2="177.7" stroke="rgb(0,0,0)"  stroke-width="1.0"/>
<line x1="315.5" y1="177.7" x2="280.6" y2="158.2" stroke="rgb(0,0,0)"  stroke-width="1.0"/>
<line x1="176.7" y1="179.5" x2="142.0" y2="160.2" stroke="rgb(0,0,0)"  stroke-width="1.0"/>
<line x1="142.0" y1="160.2" x2="107.4" y2="181.0" stroke="rgb(0,0,0)"  stroke-width="1.0"/>
<line x1="140.5" y1="169.5" x2="116.2" y2="184.1" stroke="rgb(0,0,0)"  stroke-width="1.0"/>
<line x1="107.4" y1="181.0" x2="108.1" y2="220.9" stroke="rgb(0,0,0)"  stroke-width="1.0"/>
<line x1="108.1" y1="220.9" x2="143.1" y2="240.3" stroke="rgb(0,0,0)"  stroke-width="1.0"/>
<line x1="116.8" y1="217.5" x2="141.3" y2="231.1" stroke="rgb(0,0,0)"  stroke-width="1.0"/>
<line x1="143.1" y1="240.3" x2="177.5" y2="219.6" stroke="rgb(0,0,0)"  stroke-width="1.0"/>
<line x1="177.5" y1="219.6" x2="176.7" y2="179.5" stroke="rgb(0,0,0)"  stroke-width="1.0"/>
<line x1="170.2" y1="213.8" x2="169.7" y2="185.6" stroke="rgb(0,0,0)"  stroke-width="1.0"/>
<text x="274.000411" y="126.590165" fill="rgb(12,12,255)"  stroke="rgb(12,12,255)" stroke-width="1" font-size="16" >N</text>
<text x="205.905085" y="247.329273" fill="rgb(255,12,12)"  stroke="rgb(255,12,12)" stroke-width="1" font-size="16" >O</text>
<text x="135.411354" y="128.252091" fill="rgb(255,12,12)"  stroke="rgb(255,12,12)" stroke-width="1" font-size="16" >O</text>
<text x="310.237039" y="105.978417" fill="rgb(102,102,102)"  stroke="rgb(102,102,102)" stroke-width="1" font-size="16" >CH</text>
<text x="334.237039" y="109.658417" fill="rgb(102,102,102)"  stroke="rgb(102,102,102)" stroke-width="1" font-size="13" >3</text>
<text x="67.679423" y="249.722833" fill="rgb(255,12,12)"  stroke="rgb(255,12,12)" stroke-width="1" font-size="16" >O</text>
<text x="34.547515" y="350.397707" fill="rgb(102,102,102)"  stroke="rgb(102,102,102)" stroke-width="1" font-size="16" >CH</text>
<text font-size="18.000000" fill ="black" font-family="sans-serif"
x="10.000000" y="20.000000" ></text>
<title> - OBDepict</title>
</svg>
