<?xml version="1.0"?>
<svg xmlns="http://www.w3.org/2000/svg"
xmlns:xlink="http://www.w3.org/1999/xlink" xmlns:cml="http://www.xml-cml.org/schema" width="494.96" height="278.585" x="0" y="0" font-family="sans-serif" stroke="rgb(0,0,0)" stroke-width="1"  stroke-linecap="round">
<rect x="0%" y="0%" width="100%" height="100%" stroke-width="0" fill="rgb(255,255,255)"  />
<line x1="301.8" y1="112.0" x2="274.7" y2="111.8" stroke="rgb(0,0,0)"  stroke-width="1.0"/>
<line x1="301.8" y1="106.0" x2="274.8" y2="105.8" stroke="rgb(0,0,0)"  stroke-width="1.0"/>
<line x1="334.8" y1="74.6" x2="321.3" y2="97.9" stroke="rgb(0,0,0)"  stroke-width="1.0"/>
<line x1="236.8" y1="208.9" x2="263.5" y2="179.1" stroke="rgb(0,0,0)"  stroke-width="1.0"/>
<line x1="218.8" y1="228.9" x2="236.8" y2="208.9" stroke="rgb(0,0,0)"  stroke-width="1.0"/>
<line x1="215.6" y1="226.1" x2="233.6" y2="206.1" stroke="rgb(0,0,0)"  stroke-width="1.0"/>
<line x1="221.9" y1="231.7" x2="239.9" y2="211.7" stroke="rgb(0,0,0)"  stroke-width="1.0"/>
<line x1="74.6" y1="88.5" x2="97.5" y2="75.1" stroke="rgb(0,0,0)"  stroke-width="1.0"/>
<line x1="120.0" y1="75.0" x2="143.9" y2="88.7" stroke="rgb(0,0,0)"  stroke-width="1.0"/>
<line x1="323.9" y1="49.7" x2="337.4" y2="73.1" stroke="rgb(0,0,0)"  stroke-width="1.0"/>
<line x1="318.7" y1="52.8" x2="332.2" y2="76.1" stroke="rgb(0,0,0)"  stroke-width="1.0"/>
<line x1="374.9" y1="74.6" x2="334.8" y2="74.6" stroke="rgb(0,0,0)"  stroke-width="1.0"/>
<line x1="263.5" y1="179.1" x2="255.3" y2="153.3" stroke="rgb(0,0,0)"  stroke-width="1.0"/>
<line x1="52.8" y1="72.4" x2="76.1" y2="85.9" stroke="rgb(0,0,0)"  stroke-width="1.0"/>
<line x1="49.7" y1="77.6" x2="73.1" y2="91.1" stroke="rgb(0,0,0)"  stroke-width="1.0"/>
<line x1="74.3" y1="115.6" x2="74.6" y2="88.5" stroke="rgb(0,0,0)"  stroke-width="1.0"/>
<line x1="274.8" y1="108.8" x2="259.0" y2="86.9" stroke="rgb(0,0,0)"  stroke-width="1.0"/>
<line x1="239.0" y1="80.4" x2="213.1" y2="88.7" stroke="rgb(0,0,0)"  stroke-width="1.0"/>
<line x1="213.1" y1="88.7" x2="213.1" y2="128.8" stroke="rgb(0,0,0)"  stroke-width="1.0"/>
<line x1="220.3" y1="94.7" x2="220.3" y2="122.8" stroke="rgb(0,0,0)"  stroke-width="1.0"/>
<line x1="213.1" y1="128.8" x2="238.9" y2="137.0" stroke="rgb(0,0,0)"  stroke-width="1.0"/>
<line x1="259.0" y1="130.4" x2="274.8" y2="108.8" stroke="rgb(0,0,0)"  stroke-width="1.0"/>
<line x1="374.9" y1="74.6" x2="394.9" y2="40.0" stroke="rgb(0,0,0)"  stroke-width="1.0"/>
<line x1="394.9" y1="40.0" x2="434.5" y2="40.0" stroke="rgb(0,0,0)"  stroke-width="1.0"/>
<line x1="400.9" y1="47.2" x2="428.5" y2="47.2" stroke="rgb(0,0,0)"  stroke-width="1.0"/>
<line x1="434.5" y1="40.0" x2="455.0" y2="74.6" stroke="rgb(0,0,0)"  stroke-width="1.0"/>
<line x1="455.0" y1="74.6" x2="434.5" y2="109.4" stroke="rgb(0,0,0)"  stroke-width="1.0"/>
<line x1="445.7" y1="76.1" x2="431.4" y2="100.5" stroke="rgb(0,0,0)"  stroke-width="1.0"/>
<line x1="434.5" y1="109.4" x2="394.9" y2="109.4" stroke="rgb(0,0,0)"  stroke-width="1.0"/>
<line x1="394.9" y1="109.4" x2="374.9" y2="74.6" stroke="rgb(0,0,0)"  stroke-width="1.0"/>
<line x1="398.1" y1="100.6" x2="384.1" y2="76.2" stroke="rgb(0,0,0)"  stroke-width="1.0"/>
<line x1="178.5" y1="68.7" x2="213.1" y2="88.7" stroke="rgb(0,0,0)"  stroke-width="1.0"/>
<line x1="213.1" y1="128.8" x2="178.5" y2="148.8" stroke="rgb(0,0,0)"  stroke-width="1.0"/>
<line x1="178.5" y1="148.8" x2="143.9" y2="128.8" stroke="rgb(0,0,0)"  stroke-width="1.0"/>
<line x1="176.9" y1="139.6" x2="152.7" y2="125.6" stroke="rgb(0,0,0)"  stroke-width="1.0"/>
<line x1="143.9" y1="128.8" x2="143.9" y2="88.7" stroke="rgb(0,0,0)"  stroke-width="1.0"/>
<line x1="143.9" y1="88.7" x2="178.5" y2="68.7" stroke="rgb(0,0,0)"  stroke-width="1.0"/>
<line x1="152.7" y1="92.0" x2="176.9" y2="78.0" stroke="rgb(0,0,0)"  stroke-width="1.0"/>
<text x="308.819181" y="117.162488" fill="rgb(12,12,255)"  stroke="rgb(12,12,255)" stroke-width="1" font-size="16" >N</text>
<text x="245.323367" y="148.910395" fill="rgb(12,12,255)"  stroke="rgb(12,12,255)" stroke-width="1" font-size="16" >N</text>
<text x="245.323367" y="84.402329" fill="rgb(178,178,0)"  stroke="rgb(178,178,0)" stroke-width="1" font-size="16" >S</text>
<text x="192.068040" y="246.585458" fill="rgb(102,102,102)"  stroke="rgb(102,102,102)" stroke-width="1" font-size="16" >HC</text>
<text x="102.755650" y="76.512575" fill="rgb(12,12,255)"  stroke="rgb(12,12,255)" stroke-width="1" font-size="16" >N</text>
<text x="102.755650" y="60.512575" fill="rgb(12,12,255)"  stroke="rgb(12,12,255)" stroke-width="1" font-size="16" >H</text>
<text x="308.819181" y="48.000000" fill="rgb(255,12,12)"  stroke="rgb(255,12,12)" stroke-width="1" font-size="16" >O</text>
<text x="34.000000" y="76.512575" fill="rgb(255,12,12)"  stroke="rgb(255,12,12)" stroke-width="1" font-size="16" >O</text>
<text x="48.174406" y="136.574481" fill="rgb(102,102,102)"  stroke="rgb(102,102,102)" stroke-width="1" font-size="16" >H</text>
<text x="60.174406" y="140.254481" fill="rgb(102,102,102)"  stroke="rgb(102,102,102)" stroke-width="1" font-size="13" >3</text>
<text x="66.674406" y="136.574481" fill="rgb(102,102,102)"  stroke="rgb(102,102,102)" stroke-width="1" font-size="16" >C</text>
<text font-size="18.000000" fill ="black" font-family="sans-serif"
x="10.000000" y="20.000000" ></text>
<title> - OBDepict</title>
</svg>
