<?xml version="1.0"?>
<svg xmlns="http://www.w3.org/2000/svg"
xmlns:xlink="http://www.w3.org/1999/xlink" xmlns:cml="http://www.xml-cml.org/schema" width="549.879" height="505.51" x="0" y="0" font-family="sans-serif" stroke="rgb(0,0,0)" stroke-width="1"  stroke-linecap="round">
<rect x="0%" y="0%" width="100%" height="100%" stroke-width="0" fill="rgb(255,255,255)"  />
<line x1="325.6" y1="186.3" x2="302.2" y2="200.1" stroke="rgb(0,0,0)"  stroke-width="1.0"/>
<line x1="188.0" y1="308.9" x2="164.7" y2="322.7" stroke="rgb(0,0,0)"  stroke-width="1.0"/>
<line x1="185.0" y1="303.8" x2="161.7" y2="317.5" stroke="rgb(0,0,0)"  stroke-width="1.0"/>
<line x1="197.7" y1="259.6" x2="197.7" y2="286.7" stroke="rgb(0,0,0)"  stroke-width="1.0"/>
<line x1="359.8" y1="166.6" x2="348.1" y2="173.3" stroke="rgb(0,0,0)"  stroke-width="1.0"/>
<line x1="179.6" y1="426.6" x2="188.6" y2="387.5" stroke="rgb(0,0,0)"  stroke-width="1.0"/>
<line x1="347.8" y1="204.8" x2="340.7" y2="192.5" stroke="rgb(0,0,0)"  stroke-width="1.0"/>
<line x1="353.0" y1="201.9" x2="345.9" y2="189.5" stroke="rgb(0,0,0)"  stroke-width="1.0"/>
<line x1="325.4" y1="154.4" x2="332.9" y2="167.0" stroke="rgb(0,0,0)"  stroke-width="1.0"/>
<line x1="320.3" y1="157.4" x2="327.7" y2="170.1" stroke="rgb(0,0,0)"  stroke-width="1.0"/>
<line x1="173.9" y1="452.8" x2="179.6" y2="426.6" stroke="rgb(0,0,0)"  stroke-width="1.0"/>
<line x1="169.7" y1="451.9" x2="175.5" y2="425.7" stroke="rgb(0,0,0)"  stroke-width="1.0"/>
<line x1="178.0" y1="453.7" x2="183.7" y2="427.5" stroke="rgb(0,0,0)"  stroke-width="1.0"/>
<line x1="232.2" y1="239.6" x2="197.7" y2="259.6" stroke="rgb(0,0,0)"  stroke-width="1.0"/>
<line x1="175.4" y1="243.5" x2="199.2" y2="257.0" stroke="rgb(0,0,0)"  stroke-width="1.0"/>
<line x1="172.4" y1="248.7" x2="196.2" y2="262.2" stroke="rgb(0,0,0)"  stroke-width="1.0"/>
<line x1="188.6" y1="387.5" x2="168.3" y2="368.5" stroke="rgb(0,0,0)"  stroke-width="1.0"/>
<line x1="405.8" y1="179.6" x2="382.5" y2="166.5" stroke="rgb(0,0,0)"  stroke-width="1.0"/>
<line x1="371.3" y1="119.7" x2="371.2" y2="147.2" stroke="rgb(0,0,0)"  stroke-width="1.0"/>
<line x1="112.2" y1="425.1" x2="99.1" y2="401.4" stroke="rgb(0,0,0)"  stroke-width="1.0"/>
<line x1="464.0" y1="173.0" x2="440.9" y2="159.6" stroke="rgb(0,0,0)"  stroke-width="1.0"/>
<line x1="336.8" y1="72.8" x2="336.6" y2="99.7" stroke="rgb(0,0,0)"  stroke-width="1.0"/>
<line x1="336.6" y1="99.7" x2="371.3" y2="119.7" stroke="rgb(0,0,0)"  stroke-width="1.0"/>
<line x1="440.9" y1="159.6" x2="405.8" y2="179.6" stroke="rgb(0,0,0)"  stroke-width="1.0"/>
<line x1="314.0" y1="46.5" x2="325.6" y2="53.2" stroke="rgb(0,0,0)"  stroke-width="1.0"/>
<line x1="498.6" y1="166.1" x2="486.5" y2="173.1" stroke="rgb(0,0,0)"  stroke-width="1.0"/>
<line x1="163.2" y1="320.1" x2="139.3" y2="308.9" stroke="rgb(0,0,0)"  stroke-width="1.0"/>
<line x1="118.6" y1="312.9" x2="100.3" y2="332.4" stroke="rgb(0,0,0)"  stroke-width="1.0"/>
<line x1="100.3" y1="332.4" x2="119.7" y2="367.5" stroke="rgb(0,0,0)"  stroke-width="1.0"/>
<line x1="109.5" y1="334.2" x2="123.1" y2="358.8" stroke="rgb(0,0,0)"  stroke-width="1.0"/>
<line x1="119.7" y1="367.5" x2="146.0" y2="362.2" stroke="rgb(0,0,0)"  stroke-width="1.0"/>
<line x1="160.2" y1="346.7" x2="163.2" y2="320.1" stroke="rgb(0,0,0)"  stroke-width="1.0"/>
<line x1="232.2" y1="239.6" x2="267.1" y2="259.8" stroke="rgb(0,0,0)"  stroke-width="1.0"/>
<line x1="241.0" y1="236.4" x2="265.5" y2="250.6" stroke="rgb(0,0,0)"  stroke-width="1.0"/>
<line x1="267.1" y1="259.8" x2="301.8" y2="240.0" stroke="rgb(0,0,0)"  stroke-width="1.0"/>
<line x1="301.8" y1="240.0" x2="302.2" y2="200.1" stroke="rgb(0,0,0)"  stroke-width="1.0"/>
<line x1="294.6" y1="234.0" x2="294.9" y2="206.0" stroke="rgb(0,0,0)"  stroke-width="1.0"/>
<line x1="302.2" y1="200.1" x2="267.1" y2="179.8" stroke="rgb(0,0,0)"  stroke-width="1.0"/>
<line x1="267.1" y1="179.8" x2="232.2" y2="200.1" stroke="rgb(0,0,0)"  stroke-width="1.0"/>
<line x1="265.5" y1="189.0" x2="241.0" y2="203.3" stroke="rgb(0,0,0)"  stroke-width="1.0"/>
<line x1="232.2" y1="200.1" x2="232.2" y2="239.6" stroke="rgb(0,0,0)"  stroke-width="1.0"/>
<line x1="99.1" y1="401.4" x2="60.0" y2="401.2" stroke="rgb(0,0,0)"  stroke-width="1.0"/>
<line x1="93.1" y1="394.2" x2="66.0" y2="394.0" stroke="rgb(0,0,0)"  stroke-width="1.0"/>
<line x1="60.0" y1="401.2" x2="40.0" y2="366.1" stroke="rgb(0,0,0)"  stroke-width="1.0"/>
<line x1="40.0" y1="366.1" x2="60.6" y2="331.8" stroke="rgb(0,0,0)"  stroke-width="1.0"/>
<line x1="49.3" y1="364.7" x2="63.7" y2="340.7" stroke="rgb(0,0,0)"  stroke-width="1.0"/>
<line x1="60.6" y1="331.8" x2="100.3" y2="332.4" stroke="rgb(0,0,0)"  stroke-width="1.0"/>
<line x1="119.7" y1="367.5" x2="99.1" y2="401.4" stroke="rgb(0,0,0)"  stroke-width="1.0"/>
<text x="330.850916" y="187.751274" fill="rgb(178,178,0)"  stroke="rgb(178,178,0)" stroke-width="1" font-size="16" >S</text>
<text x="191.705381" y="307.745763" fill="rgb(12,12,255)"  stroke="rgb(12,12,255)" stroke-width="1" font-size="16" >N</text>
<text x="152.783010" y="367.636397" fill="rgb(12,12,255)"  stroke="rgb(12,12,255)" stroke-width="1" font-size="16" >N</text>
<text x="121.526874" y="311.375352" fill="rgb(178,178,0)"  stroke="rgb(178,178,0)" stroke-width="1" font-size="16" >S</text>
<text x="365.135748" y="168.188325" fill="rgb(12,12,255)"  stroke="rgb(12,12,255)" stroke-width="1" font-size="16" >N</text>
<text x="350.816076" y="222.641845" fill="rgb(255,12,12)"  stroke="rgb(255,12,12)" stroke-width="1" font-size="16" >O</text>
<text x="310.284863" y="152.662021" fill="rgb(255,12,12)"  stroke="rgb(255,12,12)" stroke-width="1" font-size="16" >O</text>
<text x="153.086783" y="473.509897" fill="rgb(102,102,102)"  stroke="rgb(102,102,102)" stroke-width="1" font-size="16" >HC</text>
<text x="156.616127" y="247.646755" fill="rgb(255,12,12)"  stroke="rgb(255,12,12)" stroke-width="1" font-size="16" >O</text>
<text x="112.450480" y="444.473188" fill="rgb(30,239,30)"  stroke="rgb(30,239,30)" stroke-width="1" font-size="16" >Cl</text>
<text x="469.192030" y="187.552592" fill="rgb(255,12,12)"  stroke="rgb(255,12,12)" stroke-width="1" font-size="16" >O</text>
<text x="330.850916" y="67.761632" fill="rgb(255,12,12)"  stroke="rgb(255,12,12)" stroke-width="1" font-size="16" >O</text>
<text x="276.769613" y="48.000000" fill="rgb(102,102,102)"  stroke="rgb(102,102,102)" stroke-width="1" font-size="16" >H</text>
<text x="288.769613" y="51.680000" fill="rgb(102,102,102)"  stroke="rgb(102,102,102)" stroke-width="1" font-size="13" >3</text>
<text x="295.269613" y="48.000000" fill="rgb(102,102,102)"  stroke="rgb(102,102,102)" stroke-width="1" font-size="16" >C</text>
<text x="505.879073" y="167.587432" fill="rgb(102,102,102)"  stroke="rgb(102,102,102)" stroke-width="1" font-size="16" >CH</text>
<text x="529.879073" y="171.267432" fill="rgb(102,102,102)"  stroke="rgb(102,102,102)" stroke-width="1" font-size="13" >3</text>
<text font-size="18.000000" fill ="black" font-family="sans-serif"
x="10.000000" y="20.000000" ></text>
<title> - OBDepict</title>
</svg>
