<?xml version="1.0"?>
<svg xmlns="http://www.w3.org/2000/svg"
xmlns:xlink="http://www.w3.org/1999/xlink" xmlns:cml="http://www.xml-cml.org/schema" width="485.639" height="380.378" x="0" y="0" font-family="sans-serif" stroke="rgb(0,0,0)" stroke-width="1"  stroke-linecap="round">
<rect x="0%" y="0%" width="100%" height="100%" stroke-width="0" fill="rgb(255,255,255)"  />
<line x1="249.3" y1="220.4" x2="284.1" y2="200.7" stroke="rgb(0,0,0)"  stroke-width="1.0"/>
<line x1="249.5" y1="140.2" x2="284.1" y2="160.6" stroke="rgb(0,0,0)"  stroke-width="1.0"/>
<line x1="75.2" y1="279.0" x2="109.8" y2="259.2" stroke="rgb(0,0,0)"  stroke-width="1.0"/>
<line x1="51.4" y1="292.4" x2="75.2" y2="279.0" stroke="rgb(0,0,0)"  stroke-width="1.0"/>
<line x1="49.3" y1="288.7" x2="73.2" y2="275.4" stroke="rgb(0,0,0)"  stroke-width="1.0"/>
<line x1="53.4" y1="296.0" x2="77.3" y2="282.7" stroke="rgb(0,0,0)"  stroke-width="1.0"/>
<line x1="306.8" y1="277.9" x2="324.8" y2="257.8" stroke="rgb(0,0,0)"  stroke-width="1.0"/>
<line x1="311.2" y1="281.9" x2="329.3" y2="261.8" stroke="rgb(0,0,0)"  stroke-width="1.0"/>
<line x1="224.5" y1="151.1" x2="248.0" y2="137.6" stroke="rgb(0,0,0)"  stroke-width="1.0"/>
<line x1="227.4" y1="156.3" x2="251.0" y2="142.8" stroke="rgb(0,0,0)"  stroke-width="1.0"/>
<line x1="156.8" y1="206.5" x2="179.7" y2="220.4" stroke="rgb(0,0,0)"  stroke-width="1.0"/>
<line x1="155.8" y1="273.5" x2="179.7" y2="260.2" stroke="rgb(0,0,0)"  stroke-width="1.0"/>
<line x1="249.5" y1="113.5" x2="249.5" y2="140.2" stroke="rgb(0,0,0)"  stroke-width="1.0"/>
<line x1="319.3" y1="113.7" x2="319.1" y2="140.8" stroke="rgb(0,0,0)"  stroke-width="1.0"/>
<line x1="213.8" y1="306.9" x2="214.1" y2="280.5" stroke="rgb(0,0,0)"  stroke-width="1.0"/>
<line x1="109.8" y1="259.2" x2="133.3" y2="273.2" stroke="rgb(0,0,0)"  stroke-width="1.0"/>
<line x1="214.9" y1="80.1" x2="238.3" y2="93.9" stroke="rgb(0,0,0)"  stroke-width="1.0"/>
<line x1="236.9" y1="333.7" x2="224.8" y2="326.6" stroke="rgb(0,0,0)"  stroke-width="1.0"/>
<line x1="215.2" y1="53.0" x2="214.9" y2="80.1" stroke="rgb(0,0,0)"  stroke-width="1.0"/>
<line x1="366.5" y1="264.1" x2="382.9" y2="227.6" stroke="rgb(0,0,0)"  stroke-width="1.0"/>
<line x1="362.4" y1="255.6" x2="373.9" y2="230.2" stroke="rgb(0,0,0)"  stroke-width="1.0"/>
<line x1="382.9" y1="227.6" x2="353.3" y2="200.9" stroke="rgb(0,0,0)"  stroke-width="1.0"/>
<line x1="353.3" y1="200.9" x2="318.7" y2="221.0" stroke="rgb(0,0,0)"  stroke-width="1.0"/>
<line x1="351.8" y1="210.2" x2="327.5" y2="224.2" stroke="rgb(0,0,0)"  stroke-width="1.0"/>
<line x1="318.7" y1="221.0" x2="327.0" y2="259.8" stroke="rgb(0,0,0)"  stroke-width="1.0"/>
<line x1="327.0" y1="259.8" x2="366.5" y2="264.1" stroke="rgb(0,0,0)"  stroke-width="1.0"/>
<line x1="353.3" y1="200.9" x2="353.6" y2="174.2" stroke="rgb(0,0,0)"  stroke-width="1.0"/>
<line x1="342.5" y1="154.6" x2="319.1" y2="140.8" stroke="rgb(0,0,0)"  stroke-width="1.0"/>
<line x1="319.1" y1="140.8" x2="284.1" y2="160.6" stroke="rgb(0,0,0)"  stroke-width="1.0"/>
<line x1="317.5" y1="150.0" x2="292.9" y2="163.9" stroke="rgb(0,0,0)"  stroke-width="1.0"/>
<line x1="284.1" y1="160.6" x2="284.1" y2="200.7" stroke="rgb(0,0,0)"  stroke-width="1.0"/>
<line x1="284.1" y1="200.7" x2="318.7" y2="221.0" stroke="rgb(0,0,0)"  stroke-width="1.0"/>
<line x1="249.3" y1="220.4" x2="214.7" y2="200.3" stroke="rgb(0,0,0)"  stroke-width="1.0"/>
<line x1="214.7" y1="200.3" x2="179.7" y2="220.4" stroke="rgb(0,0,0)"  stroke-width="1.0"/>
<line x1="213.1" y1="209.5" x2="188.4" y2="223.6" stroke="rgb(0,0,0)"  stroke-width="1.0"/>
<line x1="179.7" y1="220.4" x2="179.7" y2="260.2" stroke="rgb(0,0,0)"  stroke-width="1.0"/>
<line x1="179.7" y1="260.2" x2="214.1" y2="280.5" stroke="rgb(0,0,0)"  stroke-width="1.0"/>
<line x1="188.5" y1="257.1" x2="212.6" y2="271.2" stroke="rgb(0,0,0)"  stroke-width="1.0"/>
<line x1="214.1" y1="280.5" x2="248.9" y2="260.8" stroke="rgb(0,0,0)"  stroke-width="1.0"/>
<line x1="248.9" y1="260.8" x2="249.3" y2="220.4" stroke="rgb(0,0,0)"  stroke-width="1.0"/>
<line x1="241.8" y1="254.8" x2="242.0" y2="226.3" stroke="rgb(0,0,0)"  stroke-width="1.0"/>
<line x1="422.6" y1="223.8" x2="382.9" y2="227.6" stroke="rgb(0,0,0)"  stroke-width="1.0"/>
<line x1="366.5" y1="264.1" x2="389.6" y2="296.7" stroke="rgb(0,0,0)"  stroke-width="1.0"/>
<line x1="389.6" y1="296.7" x2="429.2" y2="292.6" stroke="rgb(0,0,0)"  stroke-width="1.0"/>
<line x1="394.8" y1="288.9" x2="422.5" y2="286.1" stroke="rgb(0,0,0)"  stroke-width="1.0"/>
<line x1="429.2" y1="292.6" x2="445.6" y2="256.2" stroke="rgb(0,0,0)"  stroke-width="1.0"/>
<line x1="445.6" y1="256.2" x2="422.6" y2="223.8" stroke="rgb(0,0,0)"  stroke-width="1.0"/>
<line x1="436.3" y1="255.5" x2="420.2" y2="232.9" stroke="rgb(0,0,0)"  stroke-width="1.0"/>
<text x="347.741313" y="169.244442" fill="rgb(12,12,255)"  stroke="rgb(12,12,255)" stroke-width="1" font-size="16" >NH</text>
<text x="22.000000" y="306.686142" fill="rgb(102,102,102)"  stroke="rgb(102,102,102)" stroke-width="1" font-size="16" >HC</text>
<text x="294.304414" y="297.577304" fill="rgb(255,12,12)"  stroke="rgb(255,12,12)" stroke-width="1" font-size="16" >O</text>
<text x="208.681341" y="168.231811" fill="rgb(255,12,12)"  stroke="rgb(255,12,12)" stroke-width="1" font-size="16" >O</text>
<text x="127.657671" y="207.705055" fill="rgb(30,239,30)"  stroke="rgb(30,239,30)" stroke-width="1" font-size="16" >Cl</text>
<text x="138.446389" y="287.862826" fill="rgb(255,12,12)"  stroke="rgb(255,12,12)" stroke-width="1" font-size="16" >O</text>
<text x="243.498419" y="108.520473" fill="rgb(255,12,12)"  stroke="rgb(255,12,12)" stroke-width="1" font-size="16" >O</text>
<text x="315.331225" y="108.723969" fill="rgb(102,102,102)"  stroke="rgb(102,102,102)" stroke-width="1" font-size="16" >CH</text>
<text x="339.331225" y="112.403969" fill="rgb(102,102,102)"  stroke="rgb(102,102,102)" stroke-width="1" font-size="13" >3</text>
<text x="207.668710" y="327.936866" fill="rgb(255,12,12)"  stroke="rgb(255,12,12)" stroke-width="1" font-size="16" >O</text>
<text x="244.078797" y="348.378454" fill="rgb(102,102,102)"  stroke="rgb(102,102,102)" stroke-width="1" font-size="16" >CH</text>
<text x="268.078797" y="352.058454" fill="rgb(102,102,102)"  stroke="rgb(102,102,102)" stroke-width="1" font-size="13" >3</text>
<text x="211.286982" y="48.000000" fill="rgb(102,102,102)"  stroke="rgb(102,102,102)" stroke-width="1" font-size="16" >CH</text>
<text x="235.286982" y="51.680000" fill="rgb(102,102,102)"  stroke="rgb(102,102,102)" stroke-width="1" font-size="13" >3</text>
<text font-size="18.000000" fill ="black" font-family="sans-serif"
x="10.000000" y="20.000000" ></text>
<title> - OBDepict</title>
</svg>
