<?xml version="1.0"?>
<svg xmlns="http://www.w3.org/2000/svg"
xmlns:xlink="http://www.w3.org/1999/xlink" xmlns:cml="http://www.xml-cml.org/schema" width="460.677" height="289.651" x="0" y="0" font-family="sans-serif" stroke="rgb(0,0,0)" stroke-width="1"  stroke-linecap="round">
<rect x="0%" y="0%" width="100%" height="100%" stroke-width="0" fill="rgb(255,255,255)"  />
<line x1="267.5" y1="123.1" x2="240.5" y2="122.9" stroke="rgb(0,0,0)"  stroke-width="1.0"/>
<line x1="267.6" y1="117.1" x2="240.6" y2="116.9" stroke="rgb(0,0,0)"  stroke-width="1.0"/>
<line x1="300.6" y1="85.7" x2="287.1" y2="109.0" stroke="rgb(0,0,0)"  stroke-width="1.0"/>
<line x1="85.8" y1="86.1" x2="109.7" y2="99.8" stroke="rgb(0,0,0)"  stroke-width="1.0"/>
<line x1="340.6" y1="85.7" x2="300.6" y2="85.7" stroke="rgb(0,0,0)"  stroke-width="1.0"/>
<line x1="202.5" y1="219.9" x2="229.2" y2="190.2" stroke="rgb(0,0,0)"  stroke-width="1.0"/>
<line x1="184.5" y1="240.0" x2="202.5" y2="219.9" stroke="rgb(0,0,0)"  stroke-width="1.0"/>
<line x1="181.4" y1="237.2" x2="199.4" y2="217.1" stroke="rgb(0,0,0)"  stroke-width="1.0"/>
<line x1="187.7" y1="242.8" x2="205.7" y2="222.7" stroke="rgb(0,0,0)"  stroke-width="1.0"/>
<line x1="74.6" y1="53.0" x2="74.6" y2="66.6" stroke="rgb(0,0,0)"  stroke-width="1.0"/>
<line x1="49.7" y1="90.5" x2="61.8" y2="83.5" stroke="rgb(0,0,0)"  stroke-width="1.0"/>
<line x1="52.8" y1="95.7" x2="64.8" y2="88.7" stroke="rgb(0,0,0)"  stroke-width="1.0"/>
<line x1="289.7" y1="60.9" x2="303.2" y2="84.2" stroke="rgb(0,0,0)"  stroke-width="1.0"/>
<line x1="284.5" y1="63.9" x2="298.0" y2="87.2" stroke="rgb(0,0,0)"  stroke-width="1.0"/>
<line x1="229.2" y1="190.2" x2="221.0" y2="164.4" stroke="rgb(0,0,0)"  stroke-width="1.0"/>
<line x1="346.3" y1="143.9" x2="360.6" y2="119.9" stroke="rgb(0,0,0)"  stroke-width="1.0"/>
<line x1="240.5" y1="119.9" x2="224.7" y2="98.0" stroke="rgb(0,0,0)"  stroke-width="1.0"/>
<line x1="204.7" y1="91.5" x2="178.9" y2="99.8" stroke="rgb(0,0,0)"  stroke-width="1.0"/>
<line x1="178.9" y1="99.8" x2="178.9" y2="139.9" stroke="rgb(0,0,0)"  stroke-width="1.0"/>
<line x1="186.1" y1="105.8" x2="186.1" y2="133.9" stroke="rgb(0,0,0)"  stroke-width="1.0"/>
<line x1="178.9" y1="139.9" x2="204.7" y2="148.1" stroke="rgb(0,0,0)"  stroke-width="1.0"/>
<line x1="224.8" y1="141.5" x2="240.5" y2="119.9" stroke="rgb(0,0,0)"  stroke-width="1.0"/>
<line x1="340.6" y1="85.7" x2="360.6" y2="119.9" stroke="rgb(0,0,0)"  stroke-width="1.0"/>
<line x1="349.9" y1="87.2" x2="363.8" y2="111.0" stroke="rgb(0,0,0)"  stroke-width="1.0"/>
<line x1="360.6" y1="119.9" x2="400.3" y2="120.3" stroke="rgb(0,0,0)"  stroke-width="1.0"/>
<line x1="400.3" y1="120.3" x2="420.7" y2="85.9" stroke="rgb(0,0,0)"  stroke-width="1.0"/>
<line x1="397.1" y1="111.4" x2="411.4" y2="87.4" stroke="rgb(0,0,0)"  stroke-width="1.0"/>
<line x1="420.7" y1="85.9" x2="400.9" y2="51.3" stroke="rgb(0,0,0)"  stroke-width="1.0"/>
<line x1="400.9" y1="51.3" x2="360.8" y2="51.1" stroke="rgb(0,0,0)"  stroke-width="1.0"/>
<line x1="394.8" y1="58.5" x2="366.8" y2="58.4" stroke="rgb(0,0,0)"  stroke-width="1.0"/>
<line x1="360.8" y1="51.1" x2="340.6" y2="85.7" stroke="rgb(0,0,0)"  stroke-width="1.0"/>
<line x1="144.3" y1="79.8" x2="178.9" y2="99.8" stroke="rgb(0,0,0)"  stroke-width="1.0"/>
<line x1="178.9" y1="139.9" x2="144.3" y2="159.9" stroke="rgb(0,0,0)"  stroke-width="1.0"/>
<line x1="144.3" y1="159.9" x2="109.7" y2="139.9" stroke="rgb(0,0,0)"  stroke-width="1.0"/>
<line x1="142.7" y1="150.7" x2="118.5" y2="136.6" stroke="rgb(0,0,0)"  stroke-width="1.0"/>
<line x1="109.7" y1="139.9" x2="109.7" y2="99.8" stroke="rgb(0,0,0)"  stroke-width="1.0"/>
<line x1="109.7" y1="99.8" x2="144.3" y2="79.8" stroke="rgb(0,0,0)"  stroke-width="1.0"/>
<line x1="118.5" y1="103.1" x2="142.7" y2="89.1" stroke="rgb(0,0,0)"  stroke-width="1.0"/>
<text x="274.576010" y="128.264632" fill="rgb(12,12,255)"  stroke="rgb(12,12,255)" stroke-width="1" font-size="16" >N</text>
<text x="211.098341" y="160.003467" fill="rgb(12,12,255)"  stroke="rgb(12,12,255)" stroke-width="1" font-size="16" >N</text>
<text x="211.098341" y="95.513835" fill="rgb(178,178,0)"  stroke="rgb(178,178,0)" stroke-width="1" font-size="16" >S</text>
<text x="79.371362" y="75.594335" fill="rgb(12,12,255)"  stroke="rgb(12,12,255)" stroke-width="1" font-size="16" >+</text>
<text x="68.571362" y="87.626335" fill="rgb(12,12,255)"  stroke="rgb(12,12,255)" stroke-width="1" font-size="16" >N</text>
<text x="157.854802" y="257.650619" fill="rgb(102,102,102)"  stroke="rgb(102,102,102)" stroke-width="1" font-size="16" >HC</text>
<text x="79.371362" y="25.888000" fill="rgb(255,12,12)"  stroke="rgb(255,12,12)" stroke-width="1" font-size="16" >_</text>
<text x="68.571362" y="48.000000" fill="rgb(255,12,12)"  stroke="rgb(255,12,12)" stroke-width="1" font-size="16" >O</text>
<text x="34.000000" y="107.642863" fill="rgb(255,12,12)"  stroke="rgb(255,12,12)" stroke-width="1" font-size="16" >O</text>
<text x="274.576010" y="59.121908" fill="rgb(255,12,12)"  stroke="rgb(255,12,12)" stroke-width="1" font-size="16" >O</text>
<text x="321.608791" y="163.039356" fill="rgb(30,239,30)"  stroke="rgb(30,239,30)" stroke-width="1" font-size="16" >Cl</text>
<text font-size="18.000000" fill ="black" font-family="sans-serif"
x="10.000000" y="20.000000" ></text>
<title> - OBDepict</title>
</svg>
