<?xml version="1.0"?>
<svg xmlns="http://www.w3.org/2000/svg"
xmlns:xlink="http://www.w3.org/1999/xlink" xmlns:cml="http://www.xml-cml.org/schema" width="341.686" height="454.845" x="0" y="0" font-family="sans-serif" stroke="rgb(0,0,0)" stroke-width="1"  stroke-linecap="round">
<rect x="0%" y="0%" width="100%" height="100%" stroke-width="0" fill="rgb(255,255,255)"  />
<line x1="78.0" y1="350.2" x2="90.5" y2="312.2" stroke="rgb(0,0,0)"  stroke-width="1.0"/>
<line x1="221.1" y1="246.4" x2="197.8" y2="259.9" stroke="rgb(0,0,0)"  stroke-width="1.0"/>
<line x1="232.4" y1="319.9" x2="209.1" y2="306.4" stroke="rgb(0,0,0)"  stroke-width="1.0"/>
<line x1="301.7" y1="80.0" x2="301.7" y2="119.8" stroke="rgb(0,0,0)"  stroke-width="1.0"/>
<line x1="160.1" y1="346.9" x2="160.1" y2="319.9" stroke="rgb(0,0,0)"  stroke-width="1.0"/>
<line x1="166.1" y1="346.9" x2="166.1" y2="319.9" stroke="rgb(0,0,0)"  stroke-width="1.0"/>
<line x1="301.7" y1="53.0" x2="301.7" y2="80.0" stroke="rgb(0,0,0)"  stroke-width="1.0"/>
<line x1="305.9" y1="53.0" x2="305.9" y2="80.0" stroke="rgb(0,0,0)"  stroke-width="1.0"/>
<line x1="297.5" y1="53.0" x2="297.5" y2="80.0" stroke="rgb(0,0,0)"  stroke-width="1.0"/>
<line x1="267.1" y1="179.8" x2="232.4" y2="199.8" stroke="rgb(0,0,0)"  stroke-width="1.0"/>
<line x1="288.9" y1="195.9" x2="265.6" y2="182.4" stroke="rgb(0,0,0)"  stroke-width="1.0"/>
<line x1="291.9" y1="190.7" x2="268.6" y2="177.2" stroke="rgb(0,0,0)"  stroke-width="1.0"/>
<line x1="232.4" y1="199.8" x2="232.4" y2="226.8" stroke="rgb(0,0,0)"  stroke-width="1.0"/>
<line x1="267.1" y1="152.8" x2="267.1" y2="179.8" stroke="rgb(0,0,0)"  stroke-width="1.0"/>
<line x1="301.7" y1="119.8" x2="278.4" y2="133.3" stroke="rgb(0,0,0)"  stroke-width="1.0"/>
<line x1="232.4" y1="359.9" x2="232.4" y2="319.9" stroke="rgb(0,0,0)"  stroke-width="1.0"/>
<line x1="209.1" y1="373.4" x2="232.4" y2="359.9" stroke="rgb(0,0,0)"  stroke-width="1.0"/>
<line x1="255.9" y1="373.4" x2="232.4" y2="359.9" stroke="rgb(0,0,0)"  stroke-width="1.0"/>
<line x1="66.9" y1="279.9" x2="82.9" y2="257.8" stroke="rgb(0,0,0)"  stroke-width="1.0"/>
<line x1="102.9" y1="251.4" x2="128.5" y2="259.9" stroke="rgb(0,0,0)"  stroke-width="1.0"/>
<line x1="128.5" y1="259.9" x2="128.5" y2="299.9" stroke="rgb(0,0,0)"  stroke-width="1.0"/>
<line x1="121.3" y1="265.9" x2="121.3" y2="293.9" stroke="rgb(0,0,0)"  stroke-width="1.0"/>
<line x1="128.5" y1="299.9" x2="90.5" y2="312.2" stroke="rgb(0,0,0)"  stroke-width="1.0"/>
<line x1="90.5" y1="312.2" x2="66.9" y2="279.9" stroke="rgb(0,0,0)"  stroke-width="1.0"/>
<line x1="92.8" y1="303.1" x2="76.2" y2="280.5" stroke="rgb(0,0,0)"  stroke-width="1.0"/>
<line x1="78.0" y1="350.2" x2="94.0" y2="372.0" stroke="rgb(0,0,0)"  stroke-width="1.0"/>
<line x1="94.0" y1="393.0" x2="78.0" y2="414.8" stroke="rgb(0,0,0)"  stroke-width="1.0"/>
<line x1="78.0" y1="414.8" x2="40.0" y2="402.5" stroke="rgb(0,0,0)"  stroke-width="1.0"/>
<line x1="74.5" y1="406.1" x2="47.9" y2="397.5" stroke="rgb(0,0,0)"  stroke-width="1.0"/>
<line x1="40.0" y1="402.5" x2="40.0" y2="362.5" stroke="rgb(0,0,0)"  stroke-width="1.0"/>
<line x1="40.0" y1="362.5" x2="78.0" y2="350.2" stroke="rgb(0,0,0)"  stroke-width="1.0"/>
<line x1="47.9" y1="367.5" x2="74.5" y2="358.9" stroke="rgb(0,0,0)"  stroke-width="1.0"/>
<line x1="128.5" y1="259.9" x2="151.8" y2="246.4" stroke="rgb(0,0,0)"  stroke-width="1.0"/>
<line x1="174.5" y1="246.4" x2="197.8" y2="259.9" stroke="rgb(0,0,0)"  stroke-width="1.0"/>
<line x1="172.7" y1="253.7" x2="189.0" y2="263.1" stroke="rgb(0,0,0)"  stroke-width="1.0"/>
<line x1="197.8" y1="259.9" x2="197.8" y2="286.9" stroke="rgb(0,0,0)"  stroke-width="1.0"/>
<line x1="186.6" y1="306.3" x2="163.1" y2="319.9" stroke="rgb(0,0,0)"  stroke-width="1.0"/>
<line x1="163.1" y1="319.9" x2="128.5" y2="299.9" stroke="rgb(0,0,0)"  stroke-width="1.0"/>
<text x="191.819696" y="307.862725" fill="rgb(12,12,255)"  stroke="rgb(12,12,255)" stroke-width="1" font-size="16" >N</text>
<text x="157.061729" y="247.847399" fill="rgb(12,12,255)"  stroke="rgb(12,12,255)" stroke-width="1" font-size="16" >N</text>
<text x="84.519568" y="255.325672" fill="rgb(178,178,0)"  stroke="rgb(178,178,0)" stroke-width="1" font-size="16" >S</text>
<text x="226.373975" y="247.847399" fill="rgb(178,178,0)"  stroke="rgb(178,178,0)" stroke-width="1" font-size="16" >S</text>
<text x="95.635134" y="390.511710" fill="rgb(178,178,0)"  stroke="rgb(178,178,0)" stroke-width="1" font-size="16" >S</text>
<text x="157.061729" y="367.878051" fill="rgb(255,12,12)"  stroke="rgb(255,12,12)" stroke-width="1" font-size="16" >O</text>
<text x="295.686221" y="48.000000" fill="rgb(102,102,102)"  stroke="rgb(102,102,102)" stroke-width="1" font-size="16" >CH</text>
<text x="295.686221" y="207.837181" fill="rgb(255,12,12)"  stroke="rgb(255,12,12)" stroke-width="1" font-size="16" >O</text>
<text x="249.131942" y="147.821855" fill="rgb(12,12,255)"  stroke="rgb(12,12,255)" stroke-width="1" font-size="16" >HN</text>
<text x="171.819696" y="387.883160" fill="rgb(102,102,102)"  stroke="rgb(102,102,102)" stroke-width="1" font-size="16" >H</text>
<text x="183.819696" y="391.563160" fill="rgb(102,102,102)"  stroke="rgb(102,102,102)" stroke-width="1" font-size="13" >3</text>
<text x="190.319696" y="387.883160" fill="rgb(102,102,102)"  stroke="rgb(102,102,102)" stroke-width="1" font-size="16" >C</text>
<text x="263.131942" y="387.883160" fill="rgb(102,102,102)"  stroke="rgb(102,102,102)" stroke-width="1" font-size="16" >CH</text>
<text x="287.131942" y="391.563160" fill="rgb(102,102,102)"  stroke="rgb(102,102,102)" stroke-width="1" font-size="13" >3</text>
<text font-size="18.000000" fill ="black" font-family="sans-serif"
x="10.000000" y="20.000000" ></text>
<title> - OBDepict</title>
</svg>
