<?xml version="1.0"?>
<svg xmlns="http://www.w3.org/2000/svg"
xmlns:xlink="http://www.w3.org/1999/xlink" xmlns:cml="http://www.xml-cml.org/schema" width="528.947" height="284.552" x="0" y="0" font-family="sans-serif" stroke="rgb(0,0,0)" stroke-width="1"  stroke-linecap="round">
<rect x="0%" y="0%" width="100%" height="100%" stroke-width="0" fill="rgb(255,255,255)"  />
<line x1="326.6" y1="113.4" x2="356.2" y2="139.9" stroke="rgb(0,0,0)"  stroke-width="1.0"/>
<line x1="322.6" y1="117.9" x2="352.3" y2="144.4" stroke="rgb(0,0,0)"  stroke-width="1.0"/>
<line x1="286.4" y1="127.7" x2="324.6" y2="115.7" stroke="rgb(0,0,0)"  stroke-width="1.0"/>
<line x1="183.4" y1="115.7" x2="221.5" y2="127.7" stroke="rgb(0,0,0)"  stroke-width="1.0"/>
<line x1="69.7" y1="78.7" x2="107.7" y2="90.8" stroke="rgb(0,0,0)"  stroke-width="1.0"/>
<line x1="469.3" y1="210.0" x2="452.9" y2="173.2" stroke="rgb(0,0,0)"  stroke-width="1.0"/>
<line x1="482.5" y1="233.3" x2="469.3" y2="210.0" stroke="rgb(0,0,0)"  stroke-width="1.0"/>
<line x1="478.9" y1="235.3" x2="465.6" y2="212.1" stroke="rgb(0,0,0)"  stroke-width="1.0"/>
<line x1="486.2" y1="231.2" x2="472.9" y2="208.0" stroke="rgb(0,0,0)"  stroke-width="1.0"/>
<line x1="389.2" y1="225.7" x2="383.8" y2="199.0" stroke="rgb(0,0,0)"  stroke-width="1.0"/>
<line x1="395.1" y1="224.5" x2="389.7" y2="197.8" stroke="rgb(0,0,0)"  stroke-width="1.0"/>
<line x1="407.4" y1="110.6" x2="396.3" y2="135.4" stroke="rgb(0,0,0)"  stroke-width="1.0"/>
<line x1="401.9" y1="108.2" x2="390.8" y2="133.0" stroke="rgb(0,0,0)"  stroke-width="1.0"/>
<line x1="452.9" y1="173.2" x2="426.2" y2="170.2" stroke="rgb(0,0,0)"  stroke-width="1.0"/>
<line x1="47.7" y1="94.4" x2="67.7" y2="76.4" stroke="rgb(0,0,0)"  stroke-width="1.0"/>
<line x1="51.7" y1="98.9" x2="71.7" y2="80.9" stroke="rgb(0,0,0)"  stroke-width="1.0"/>
<line x1="64.2" y1="52.7" x2="69.7" y2="78.7" stroke="rgb(0,0,0)"  stroke-width="1.0"/>
<line x1="195.4" y1="58.7" x2="175.4" y2="76.7" stroke="rgb(0,0,0)"  stroke-width="1.0"/>
<line x1="404.6" y1="178.4" x2="386.8" y2="198.4" stroke="rgb(0,0,0)"  stroke-width="1.0"/>
<line x1="386.8" y1="198.4" x2="361.8" y2="187.4" stroke="rgb(0,0,0)"  stroke-width="1.0"/>
<line x1="351.3" y1="169.3" x2="354.3" y2="142.2" stroke="rgb(0,0,0)"  stroke-width="1.0"/>
<line x1="354.3" y1="142.2" x2="393.6" y2="134.2" stroke="rgb(0,0,0)"  stroke-width="1.0"/>
<line x1="393.6" y1="134.2" x2="406.8" y2="157.4" stroke="rgb(0,0,0)"  stroke-width="1.0"/>
<line x1="264.3" y1="111.8" x2="286.4" y2="127.7" stroke="rgb(0,0,0)"  stroke-width="1.0"/>
<line x1="286.4" y1="127.7" x2="274.2" y2="165.7" stroke="rgb(0,0,0)"  stroke-width="1.0"/>
<line x1="277.7" y1="131.2" x2="269.2" y2="157.8" stroke="rgb(0,0,0)"  stroke-width="1.0"/>
<line x1="274.2" y1="165.7" x2="233.7" y2="165.9" stroke="rgb(0,0,0)"  stroke-width="1.0"/>
<line x1="233.7" y1="165.9" x2="221.5" y2="127.7" stroke="rgb(0,0,0)"  stroke-width="1.0"/>
<line x1="238.8" y1="158.0" x2="230.2" y2="131.2" stroke="rgb(0,0,0)"  stroke-width="1.0"/>
<line x1="221.5" y1="127.7" x2="243.2" y2="111.8" stroke="rgb(0,0,0)"  stroke-width="1.0"/>
<line x1="183.4" y1="115.7" x2="175.4" y2="76.7" stroke="rgb(0,0,0)"  stroke-width="1.0"/>
<line x1="175.1" y1="111.2" x2="169.5" y2="84.0" stroke="rgb(0,0,0)"  stroke-width="1.0"/>
<line x1="175.4" y1="76.7" x2="137.4" y2="64.2" stroke="rgb(0,0,0)"  stroke-width="1.0"/>
<line x1="137.4" y1="64.2" x2="107.7" y2="90.8" stroke="rgb(0,0,0)"  stroke-width="1.0"/>
<line x1="137.7" y1="73.5" x2="117.0" y2="92.2" stroke="rgb(0,0,0)"  stroke-width="1.0"/>
<line x1="107.7" y1="90.8" x2="116.2" y2="130.2" stroke="rgb(0,0,0)"  stroke-width="1.0"/>
<line x1="116.2" y1="130.2" x2="154.4" y2="142.7" stroke="rgb(0,0,0)"  stroke-width="1.0"/>
<line x1="124.1" y1="125.2" x2="150.9" y2="134.0" stroke="rgb(0,0,0)"  stroke-width="1.0"/>
<line x1="154.4" y1="142.7" x2="183.4" y2="115.7" stroke="rgb(0,0,0)"  stroke-width="1.0"/>
<text x="407.261948" y="176.696801" fill="rgb(12,12,255)"  stroke="rgb(12,12,255)" stroke-width="1" font-size="16" >N</text>
<text x="343.910238" y="190.199416" fill="rgb(178,178,0)"  stroke="rgb(178,178,0)" stroke-width="1" font-size="16" >S</text>
<text x="247.723506" y="112.176223" fill="rgb(255,12,12)"  stroke="rgb(255,12,12)" stroke-width="1" font-size="16" >O</text>
<text x="482.947404" y="252.552009" fill="rgb(102,102,102)"  stroke="rgb(102,102,102)" stroke-width="1" font-size="16" >CH</text>
<text x="388.758903" y="245.878303" fill="rgb(255,12,12)"  stroke="rgb(255,12,12)" stroke-width="1" font-size="16" >O</text>
<text x="403.925094" y="105.512216" fill="rgb(255,12,12)"  stroke="rgb(255,12,12)" stroke-width="1" font-size="16" >O</text>
<text x="34.000000" y="113.345091" fill="rgb(255,12,12)"  stroke="rgb(255,12,12)" stroke-width="1" font-size="16" >O</text>
<text x="43.510093" y="48.000000" fill="rgb(255,12,12)"  stroke="rgb(255,12,12)" stroke-width="1" font-size="16" >HO</text>
<text x="201.043280" y="58.000859" fill="rgb(102,102,102)"  stroke="rgb(102,102,102)" stroke-width="1" font-size="16" >CH</text>
<text x="225.043280" y="61.680859" fill="rgb(102,102,102)"  stroke="rgb(102,102,102)" stroke-width="1" font-size="13" >3</text>
<text font-size="18.000000" fill ="black" font-family="sans-serif"
x="10.000000" y="20.000000" ></text>
<title> - OBDepict</title>
</svg>
