<?xml version="1.0"?>
<svg xmlns="http://www.w3.org/2000/svg"
xmlns:xlink="http://www.w3.org/1999/xlink" xmlns:cml="http://www.xml-cml.org/schema" width="385.662" height="376.58" x="0" y="0" font-family="sans-serif" stroke="rgb(0,0,0)" stroke-width="1"  stroke-linecap="round">
<rect x="0%" y="0%" width="100%" height="100%" stroke-width="0" fill="rgb(255,255,255)"  />
<line x1="159.2" y1="207.9" x2="178.3" y2="242.1" stroke="rgb(0,0,0)"  stroke-width="1.0"/>
<line x1="154.0" y1="210.8" x2="173.0" y2="245.0" stroke="rgb(0,0,0)"  stroke-width="1.0"/>
<line x1="117.7" y1="208.7" x2="156.6" y2="209.4" stroke="rgb(0,0,0)"  stroke-width="1.0"/>
<line x1="119.8" y1="74.2" x2="99.7" y2="107.5" stroke="rgb(0,0,0)"  stroke-width="1.0"/>
<line x1="107.1" y1="51.4" x2="119.8" y2="74.2" stroke="rgb(0,0,0)"  stroke-width="1.0"/>
<line x1="110.8" y1="49.3" x2="123.5" y2="72.1" stroke="rgb(0,0,0)"  stroke-width="1.0"/>
<line x1="103.4" y1="53.4" x2="116.2" y2="76.2" stroke="rgb(0,0,0)"  stroke-width="1.0"/>
<line x1="271.0" y1="288.6" x2="245.9" y2="281.5" stroke="rgb(0,0,0)"  stroke-width="1.0"/>
<line x1="230.0" y1="223.2" x2="216.9" y2="245.3" stroke="rgb(0,0,0)"  stroke-width="1.0"/>
<line x1="224.8" y1="220.1" x2="211.8" y2="242.2" stroke="rgb(0,0,0)"  stroke-width="1.0"/>
<line x1="129.6" y1="276.4" x2="155.5" y2="276.9" stroke="rgb(0,0,0)"  stroke-width="1.0"/>
<line x1="112.0" y1="152.5" x2="98.8" y2="175.0" stroke="rgb(0,0,0)"  stroke-width="1.0"/>
<line x1="99.7" y1="107.5" x2="112.2" y2="129.9" stroke="rgb(0,0,0)"  stroke-width="1.0"/>
<line x1="175.6" y1="243.6" x2="155.5" y2="276.9" stroke="rgb(0,0,0)"  stroke-width="1.0"/>
<line x1="155.5" y1="276.9" x2="168.4" y2="299.5" stroke="rgb(0,0,0)"  stroke-width="1.0"/>
<line x1="164.7" y1="278.5" x2="173.6" y2="294.1" stroke="rgb(0,0,0)"  stroke-width="1.0"/>
<line x1="186.1" y1="304.3" x2="222.0" y2="284.3" stroke="rgb(0,0,0)"  stroke-width="1.0"/>
<line x1="227.1" y1="266.6" x2="214.4" y2="243.8" stroke="rgb(0,0,0)"  stroke-width="1.0"/>
<line x1="214.4" y1="243.8" x2="175.6" y2="243.6" stroke="rgb(0,0,0)"  stroke-width="1.0"/>
<line x1="117.7" y1="208.7" x2="98.8" y2="175.0" stroke="rgb(0,0,0)"  stroke-width="1.0"/>
<line x1="98.8" y1="175.0" x2="59.9" y2="174.3" stroke="rgb(0,0,0)"  stroke-width="1.0"/>
<line x1="92.7" y1="182.1" x2="65.8" y2="181.6" stroke="rgb(0,0,0)"  stroke-width="1.0"/>
<line x1="59.9" y1="174.3" x2="40.0" y2="207.9" stroke="rgb(0,0,0)"  stroke-width="1.0"/>
<line x1="40.0" y1="207.9" x2="58.8" y2="241.8" stroke="rgb(0,0,0)"  stroke-width="1.0"/>
<line x1="49.2" y1="209.6" x2="62.2" y2="233.1" stroke="rgb(0,0,0)"  stroke-width="1.0"/>
<line x1="58.8" y1="241.8" x2="97.8" y2="242.5" stroke="rgb(0,0,0)"  stroke-width="1.0"/>
<line x1="97.8" y1="242.5" x2="117.7" y2="208.7" stroke="rgb(0,0,0)"  stroke-width="1.0"/>
<line x1="94.6" y1="233.7" x2="108.4" y2="210.2" stroke="rgb(0,0,0)"  stroke-width="1.0"/>
<line x1="271.0" y1="288.6" x2="280.5" y2="326.2" stroke="rgb(0,0,0)"  stroke-width="1.0"/>
<line x1="279.5" y1="292.6" x2="286.1" y2="318.6" stroke="rgb(0,0,0)"  stroke-width="1.0"/>
<line x1="280.5" y1="326.2" x2="317.8" y2="336.6" stroke="rgb(0,0,0)"  stroke-width="1.0"/>
<line x1="317.8" y1="336.6" x2="345.7" y2="309.8" stroke="rgb(0,0,0)"  stroke-width="1.0"/>
<line x1="317.1" y1="327.2" x2="336.3" y2="308.7" stroke="rgb(0,0,0)"  stroke-width="1.0"/>
<line x1="345.7" y1="309.8" x2="336.4" y2="271.7" stroke="rgb(0,0,0)"  stroke-width="1.0"/>
<line x1="336.4" y1="271.7" x2="298.9" y2="261.3" stroke="rgb(0,0,0)"  stroke-width="1.0"/>
<line x1="328.7" y1="277.0" x2="302.8" y2="269.8" stroke="rgb(0,0,0)"  stroke-width="1.0"/>
<line x1="298.9" y1="261.3" x2="271.0" y2="288.6" stroke="rgb(0,0,0)"  stroke-width="1.0"/>
<text x="227.391357" y="285.956950" fill="rgb(12,12,255)"  stroke="rgb(12,12,255)" stroke-width="1" font-size="16" >N</text>
<text x="168.768318" y="318.622336" fill="rgb(12,12,255)"  stroke="rgb(12,12,255)" stroke-width="1" font-size="16" >N</text>
<text x="82.784996" y="48.000000" fill="rgb(102,102,102)"  stroke="rgb(102,102,102)" stroke-width="1" font-size="16" >HC</text>
<text x="228.042776" y="218.464221" fill="rgb(255,12,12)"  stroke="rgb(255,12,12)" stroke-width="1" font-size="16" >O</text>
<text x="90.579560" y="284.224552" fill="rgb(102,102,102)"  stroke="rgb(102,102,102)" stroke-width="1" font-size="16" >H</text>
<text x="102.579560" y="287.904552" fill="rgb(102,102,102)"  stroke="rgb(102,102,102)" stroke-width="1" font-size="13" >3</text>
<text x="109.079560" y="284.224552" fill="rgb(102,102,102)"  stroke="rgb(102,102,102)" stroke-width="1" font-size="16" >C</text>
<text x="112.524377" y="149.239094" fill="rgb(255,12,12)"  stroke="rgb(255,12,12)" stroke-width="1" font-size="16" >O</text>
<text font-size="18.000000" fill ="black" font-family="sans-serif"
x="10.000000" y="20.000000" ></text>
<title> - OBDepict</title>
</svg>
