<?xml version="1.0"?>
<svg xmlns="http://www.w3.org/2000/svg"
xmlns:xlink="http://www.w3.org/1999/xlink" xmlns:cml="http://www.xml-cml.org/schema" width="399.763" height="353.881" x="0" y="0" font-family="sans-serif" stroke="rgb(0,0,0)" stroke-width="1"  stroke-linecap="round">
<rect x="0%" y="0%" width="100%" height="100%" stroke-width="0" fill="rgb(255,255,255)"  />
<line x1="188.4" y1="156.9" x2="165.0" y2="170.7" stroke="rgb(0,0,0)"  stroke-width="1.0"/>
<line x1="185.3" y1="151.8" x2="162.0" y2="165.6" stroke="rgb(0,0,0)"  stroke-width="1.0"/>
<line x1="323.8" y1="76.4" x2="296.3" y2="74.0" stroke="rgb(0,0,0)"  stroke-width="1.0"/>
<line x1="198.1" y1="107.5" x2="198.1" y2="134.7" stroke="rgb(0,0,0)"  stroke-width="1.0"/>
<line x1="232.6" y1="87.5" x2="198.1" y2="107.5" stroke="rgb(0,0,0)"  stroke-width="1.0"/>
<line x1="179.9" y1="274.9" x2="189.0" y2="235.5" stroke="rgb(0,0,0)"  stroke-width="1.0"/>
<line x1="174.1" y1="301.2" x2="179.9" y2="274.9" stroke="rgb(0,0,0)"  stroke-width="1.0"/>
<line x1="170.0" y1="300.3" x2="175.8" y2="274.0" stroke="rgb(0,0,0)"  stroke-width="1.0"/>
<line x1="178.3" y1="302.1" x2="184.0" y2="275.8" stroke="rgb(0,0,0)"  stroke-width="1.0"/>
<line x1="348.2" y1="102.0" x2="342.2" y2="89.4" stroke="rgb(0,0,0)"  stroke-width="1.0"/>
<line x1="354.7" y1="57.2" x2="346.7" y2="68.7" stroke="rgb(0,0,0)"  stroke-width="1.0"/>
<line x1="349.8" y1="53.8" x2="341.7" y2="65.2" stroke="rgb(0,0,0)"  stroke-width="1.0"/>
<line x1="175.7" y1="91.3" x2="199.5" y2="104.9" stroke="rgb(0,0,0)"  stroke-width="1.0"/>
<line x1="172.7" y1="96.5" x2="196.6" y2="110.1" stroke="rgb(0,0,0)"  stroke-width="1.0"/>
<line x1="189.0" y1="235.5" x2="168.6" y2="216.6" stroke="rgb(0,0,0)"  stroke-width="1.0"/>
<line x1="47.5" y1="156.1" x2="60.6" y2="179.9" stroke="rgb(0,0,0)"  stroke-width="1.0"/>
<line x1="46.9" y1="272.8" x2="60.0" y2="249.0" stroke="rgb(0,0,0)"  stroke-width="1.0"/>
<line x1="163.5" y1="168.1" x2="139.5" y2="156.9" stroke="rgb(0,0,0)"  stroke-width="1.0"/>
<line x1="118.8" y1="160.9" x2="100.4" y2="180.5" stroke="rgb(0,0,0)"  stroke-width="1.0"/>
<line x1="100.4" y1="180.5" x2="119.8" y2="215.6" stroke="rgb(0,0,0)"  stroke-width="1.0"/>
<line x1="109.6" y1="182.3" x2="123.2" y2="206.9" stroke="rgb(0,0,0)"  stroke-width="1.0"/>
<line x1="119.8" y1="215.6" x2="146.3" y2="210.3" stroke="rgb(0,0,0)"  stroke-width="1.0"/>
<line x1="160.5" y1="194.8" x2="163.5" y2="168.1" stroke="rgb(0,0,0)"  stroke-width="1.0"/>
<line x1="278.3" y1="93.8" x2="296.3" y2="74.0" stroke="rgb(0,0,0)"  stroke-width="1.0"/>
<line x1="296.3" y1="74.0" x2="275.7" y2="40.0" stroke="rgb(0,0,0)"  stroke-width="1.0"/>
<line x1="287.0" y1="72.6" x2="272.6" y2="48.9" stroke="rgb(0,0,0)"  stroke-width="1.0"/>
<line x1="275.7" y1="40.0" x2="236.9" y2="48.5" stroke="rgb(0,0,0)"  stroke-width="1.0"/>
<line x1="236.9" y1="48.5" x2="232.6" y2="87.5" stroke="rgb(0,0,0)"  stroke-width="1.0"/>
<line x1="243.4" y1="55.2" x2="240.4" y2="82.3" stroke="rgb(0,0,0)"  stroke-width="1.0"/>
<line x1="232.6" y1="87.5" x2="257.7" y2="98.3" stroke="rgb(0,0,0)"  stroke-width="1.0"/>
<line x1="60.6" y1="179.9" x2="100.4" y2="180.5" stroke="rgb(0,0,0)"  stroke-width="1.0"/>
<line x1="119.8" y1="215.6" x2="99.2" y2="249.6" stroke="rgb(0,0,0)"  stroke-width="1.0"/>
<line x1="99.2" y1="249.6" x2="60.0" y2="249.0" stroke="rgb(0,0,0)"  stroke-width="1.0"/>
<line x1="93.3" y1="242.3" x2="66.1" y2="241.9" stroke="rgb(0,0,0)"  stroke-width="1.0"/>
<line x1="60.0" y1="249.0" x2="40.0" y2="214.2" stroke="rgb(0,0,0)"  stroke-width="1.0"/>
<line x1="40.0" y1="214.2" x2="60.6" y2="179.9" stroke="rgb(0,0,0)"  stroke-width="1.0"/>
<line x1="49.3" y1="212.8" x2="63.7" y2="188.7" stroke="rgb(0,0,0)"  stroke-width="1.0"/>
<text x="192.066096" y="155.734931" fill="rgb(12,12,255)"  stroke="rgb(12,12,255)" stroke-width="1" font-size="16" >N</text>
<text x="153.053029" y="215.767323" fill="rgb(12,12,255)"  stroke="rgb(12,12,255)" stroke-width="1" font-size="16" >N</text>
<text x="121.727361" y="159.375312" fill="rgb(178,178,0)"  stroke="rgb(178,178,0)" stroke-width="1" font-size="16" >S</text>
<text x="341.520058" y="73.562674" fill="rgb(12,12,255)"  stroke="rgb(12,12,255)" stroke-width="1" font-size="16" >+</text>
<text x="330.720058" y="85.594674" fill="rgb(12,12,255)"  stroke="rgb(12,12,255)" stroke-width="1" font-size="16" >N</text>
<text x="263.615065" y="111.474294" fill="rgb(255,12,12)"  stroke="rgb(255,12,12)" stroke-width="1" font-size="16" >O</text>
<text x="153.382882" y="321.880543" fill="rgb(102,102,102)"  stroke="rgb(102,102,102)" stroke-width="1" font-size="16" >HC</text>
<text x="358.497204" y="99.668638" fill="rgb(255,12,12)"  stroke="rgb(255,12,12)" stroke-width="1" font-size="16" >_</text>
<text x="347.697204" y="121.780638" fill="rgb(255,12,12)"  stroke="rgb(255,12,12)" stroke-width="1" font-size="16" >O</text>
<text x="353.762892" y="52.850613" fill="rgb(255,12,12)"  stroke="rgb(255,12,12)" stroke-width="1" font-size="16" >O</text>
<text x="156.896729" y="95.504061" fill="rgb(255,12,12)"  stroke="rgb(255,12,12)" stroke-width="1" font-size="16" >O</text>
<text x="15.215074" y="152.704508" fill="rgb(102,102,102)"  stroke="rgb(102,102,102)" stroke-width="1" font-size="16" >H</text>
<text x="27.215074" y="156.384508" fill="rgb(102,102,102)"  stroke="rgb(102,102,102)" stroke-width="1" font-size="13" >3</text>
<text x="33.715074" y="152.704508" fill="rgb(102,102,102)"  stroke="rgb(102,102,102)" stroke-width="1" font-size="16" >C</text>
<text x="14.609957" y="292.171746" fill="rgb(102,102,102)"  stroke="rgb(102,102,102)" stroke-width="1" font-size="16" >H</text>
<text x="26.609957" y="295.851746" fill="rgb(102,102,102)"  stroke="rgb(102,102,102)" stroke-width="1" font-size="13" >3</text>
<text x="33.109957" y="292.171746" fill="rgb(102,102,102)"  stroke="rgb(102,102,102)" stroke-width="1" font-size="16" >C</text>
<text font-size="18.000000" fill ="black" font-family="sans-serif"
x="10.000000" y="20.000000" ></text>
<title> - OBDepict</title>
</svg>
