<?xml version="1.0"?>
<svg xmlns="http://www.w3.org/2000/svg"
xmlns:xlink="http://www.w3.org/1999/xlink" xmlns:cml="http://www.xml-cml.org/schema" width="292.84" height="450.296" x="0" y="0" font-family="sans-serif" stroke="rgb(0,0,0)" stroke-width="1"  stroke-linecap="round">
<rect x="0%" y="0%" width="100%" height="100%" stroke-width="0" fill="rgb(255,255,255)"  />
<line x1="177.7" y1="230.6" x2="212.3" y2="250.5" stroke="rgb(0,0,0)"  stroke-width="1.0"/>
<line x1="119.2" y1="178.8" x2="99.7" y2="159.0" stroke="rgb(0,0,0)"  stroke-width="1.0"/>
<line x1="123.5" y1="174.6" x2="104.0" y2="154.8" stroke="rgb(0,0,0)"  stroke-width="1.0"/>
<line x1="71.8" y1="212.3" x2="52.6" y2="192.9" stroke="rgb(0,0,0)"  stroke-width="1.0"/>
<line x1="76.1" y1="208.1" x2="56.8" y2="188.7" stroke="rgb(0,0,0)"  stroke-width="1.0"/>
<line x1="177.7" y1="270.6" x2="201.1" y2="284.3" stroke="rgb(0,0,0)"  stroke-width="1.0"/>
<line x1="212.3" y1="250.5" x2="235.6" y2="264.0" stroke="rgb(0,0,0)"  stroke-width="1.0"/>
<line x1="214.5" y1="246.9" x2="237.7" y2="260.4" stroke="rgb(0,0,0)"  stroke-width="1.0"/>
<line x1="210.2" y1="254.1" x2="233.5" y2="267.7" stroke="rgb(0,0,0)"  stroke-width="1.0"/>
<line x1="143.3" y1="133.1" x2="135.9" y2="106.8" stroke="rgb(0,0,0)"  stroke-width="1.0"/>
<line x1="142.9" y1="303.7" x2="142.6" y2="330.1" stroke="rgb(0,0,0)"  stroke-width="1.0"/>
<line x1="135.9" y1="106.8" x2="164.3" y2="78.5" stroke="rgb(0,0,0)"  stroke-width="1.0"/>
<line x1="164.3" y1="78.5" x2="157.0" y2="52.5" stroke="rgb(0,0,0)"  stroke-width="1.0"/>
<line x1="160.3" y1="79.6" x2="152.9" y2="53.7" stroke="rgb(0,0,0)"  stroke-width="1.0"/>
<line x1="168.4" y1="77.3" x2="161.0" y2="51.4" stroke="rgb(0,0,0)"  stroke-width="1.0"/>
<line x1="177.0" y1="350.6" x2="201.0" y2="337.0" stroke="rgb(0,0,0)"  stroke-width="1.0"/>
<line x1="107.9" y1="390.0" x2="84.5" y2="403.3" stroke="rgb(0,0,0)"  stroke-width="1.0"/>
<line x1="143.7" y1="210.2" x2="181.9" y2="199.8" stroke="rgb(0,0,0)"  stroke-width="1.0"/>
<line x1="181.9" y1="199.8" x2="183.7" y2="159.8" stroke="rgb(0,0,0)"  stroke-width="1.0"/>
<line x1="175.0" y1="193.5" x2="176.3" y2="165.5" stroke="rgb(0,0,0)"  stroke-width="1.0"/>
<line x1="183.7" y1="159.8" x2="158.9" y2="150.2" stroke="rgb(0,0,0)"  stroke-width="1.0"/>
<line x1="138.5" y1="155.6" x2="121.3" y2="176.7" stroke="rgb(0,0,0)"  stroke-width="1.0"/>
<line x1="121.3" y1="176.7" x2="143.7" y2="210.2" stroke="rgb(0,0,0)"  stroke-width="1.0"/>
<line x1="219.5" y1="141.4" x2="183.7" y2="159.8" stroke="rgb(0,0,0)"  stroke-width="1.0"/>
<line x1="181.9" y1="199.8" x2="215.4" y2="221.4" stroke="rgb(0,0,0)"  stroke-width="1.0"/>
<line x1="215.4" y1="221.4" x2="251.2" y2="203.3" stroke="rgb(0,0,0)"  stroke-width="1.0"/>
<line x1="217.5" y1="212.3" x2="242.6" y2="199.6" stroke="rgb(0,0,0)"  stroke-width="1.0"/>
<line x1="251.2" y1="203.3" x2="252.8" y2="163.2" stroke="rgb(0,0,0)"  stroke-width="1.0"/>
<line x1="252.8" y1="163.2" x2="219.5" y2="141.4" stroke="rgb(0,0,0)"  stroke-width="1.0"/>
<line x1="243.9" y1="165.9" x2="220.6" y2="150.7" stroke="rgb(0,0,0)"  stroke-width="1.0"/>
<line x1="143.7" y1="210.2" x2="177.7" y2="230.6" stroke="rgb(0,0,0)"  stroke-width="1.0"/>
<line x1="177.7" y1="230.6" x2="177.7" y2="270.6" stroke="rgb(0,0,0)"  stroke-width="1.0"/>
<line x1="170.5" y1="236.6" x2="170.5" y2="264.6" stroke="rgb(0,0,0)"  stroke-width="1.0"/>
<line x1="177.7" y1="270.6" x2="154.3" y2="284.1" stroke="rgb(0,0,0)"  stroke-width="1.0"/>
<line x1="131.8" y1="284.1" x2="108.6" y2="270.6" stroke="rgb(0,0,0)"  stroke-width="1.0"/>
<line x1="108.6" y1="270.6" x2="108.6" y2="230.6" stroke="rgb(0,0,0)"  stroke-width="1.0"/>
<line x1="115.8" y1="264.6" x2="115.8" y2="236.6" stroke="rgb(0,0,0)"  stroke-width="1.0"/>
<line x1="108.6" y1="230.6" x2="143.7" y2="210.2" stroke="rgb(0,0,0)"  stroke-width="1.0"/>
<line x1="108.6" y1="230.6" x2="74.0" y2="210.2" stroke="rgb(0,0,0)"  stroke-width="1.0"/>
<line x1="74.0" y1="210.2" x2="40.0" y2="230.6" stroke="rgb(0,0,0)"  stroke-width="1.0"/>
<line x1="40.0" y1="230.6" x2="40.0" y2="270.6" stroke="rgb(0,0,0)"  stroke-width="1.0"/>
<line x1="40.0" y1="270.6" x2="74.0" y2="290.2" stroke="rgb(0,0,0)"  stroke-width="1.0"/>
<line x1="74.0" y1="290.2" x2="108.6" y2="270.6" stroke="rgb(0,0,0)"  stroke-width="1.0"/>
<line x1="142.6" y1="330.1" x2="107.9" y2="350.1" stroke="rgb(0,0,0)"  stroke-width="1.0"/>
<line x1="141.0" y1="339.4" x2="116.7" y2="353.3" stroke="rgb(0,0,0)"  stroke-width="1.0"/>
<line x1="107.9" y1="350.1" x2="107.9" y2="390.0" stroke="rgb(0,0,0)"  stroke-width="1.0"/>
<line x1="107.9" y1="390.0" x2="142.6" y2="410.3" stroke="rgb(0,0,0)"  stroke-width="1.0"/>
<line x1="116.8" y1="386.9" x2="141.0" y2="401.1" stroke="rgb(0,0,0)"  stroke-width="1.0"/>
<line x1="142.6" y1="410.3" x2="177.0" y2="390.2" stroke="rgb(0,0,0)"  stroke-width="1.0"/>
<line x1="177.0" y1="390.2" x2="177.0" y2="350.6" stroke="rgb(0,0,0)"  stroke-width="1.0"/>
<line x1="169.8" y1="384.2" x2="169.8" y2="356.6" stroke="rgb(0,0,0)"  stroke-width="1.0"/>
<line x1="177.0" y1="350.6" x2="142.6" y2="330.1" stroke="rgb(0,0,0)"  stroke-width="1.0"/>
<text x="140.759425" y="153.581557" fill="rgb(12,12,255)"  stroke="rgb(12,12,255)" stroke-width="1" font-size="16" >N</text>
<text x="86.708376" y="155.593142" fill="rgb(255,12,12)"  stroke="rgb(255,12,12)" stroke-width="1" font-size="16" >O</text>
<text x="137.075559" y="298.658043" fill="rgb(12,12,255)"  stroke="rgb(12,12,255)" stroke-width="1" font-size="16" >N</text>
<text x="39.525800" y="189.557424" fill="rgb(255,12,12)"  stroke="rgb(255,12,12)" stroke-width="1" font-size="16" >O</text>
<text x="208.346793" y="298.827695" fill="rgb(12,12,255)"  stroke="rgb(12,12,255)" stroke-width="1" font-size="16" >NH</text>
<text x="232.346793" y="302.507695" fill="rgb(12,12,255)"  stroke="rgb(12,12,255)" stroke-width="1" font-size="13" >2</text>
<text x="240.815183" y="278.576122" fill="rgb(12,12,255)"  stroke="rgb(12,12,255)" stroke-width="1" font-size="16" >N</text>
<text x="135.448551" y="48.000000" fill="rgb(102,102,102)"  stroke="rgb(102,102,102)" stroke-width="1" font-size="16" >HC</text>
<text x="208.346793" y="338.647385" fill="rgb(102,102,102)"  stroke="rgb(102,102,102)" stroke-width="1" font-size="16" >CH</text>
<text x="232.346793" y="342.327385" fill="rgb(102,102,102)"  stroke="rgb(102,102,102)" stroke-width="1" font-size="13" >3</text>
<text x="55.130564" y="417.627547" fill="rgb(30,239,30)"  stroke="rgb(30,239,30)" stroke-width="1" font-size="16" >Cl</text>
<text font-size="18.000000" fill ="black" font-family="sans-serif"
x="10.000000" y="20.000000" ></text>
<title> - OBDepict</title>
</svg>
