<?xml version="1.0"?>
<svg xmlns="http://www.w3.org/2000/svg"
xmlns:xlink="http://www.w3.org/1999/xlink" xmlns:cml="http://www.xml-cml.org/schema" width="458.867" height="422.956" x="0" y="0" font-family="sans-serif" stroke="rgb(0,0,0)" stroke-width="1"  stroke-linecap="round">
<rect x="0%" y="0%" width="100%" height="100%" stroke-width="0" fill="rgb(255,255,255)"  />
<line x1="209.9" y1="220.1" x2="210.1" y2="180.2" stroke="rgb(0,0,0)"  stroke-width="1.0"/>
<line x1="215.9" y1="220.2" x2="216.1" y2="180.2" stroke="rgb(0,0,0)"  stroke-width="1.0"/>
<line x1="144.1" y1="100.3" x2="167.7" y2="113.8" stroke="rgb(0,0,0)"  stroke-width="1.0"/>
<line x1="247.4" y1="240.3" x2="212.9" y2="220.2" stroke="rgb(0,0,0)"  stroke-width="1.0"/>
<line x1="384.4" y1="362.6" x2="349.9" y2="341.8" stroke="rgb(0,0,0)"  stroke-width="1.0"/>
<line x1="216.5" y1="73.4" x2="216.5" y2="100.3" stroke="rgb(0,0,0)"  stroke-width="1.0"/>
<line x1="210.5" y1="73.4" x2="210.5" y2="100.3" stroke="rgb(0,0,0)"  stroke-width="1.0"/>
<line x1="407.7" y1="376.3" x2="384.4" y2="362.6" stroke="rgb(0,0,0)"  stroke-width="1.0"/>
<line x1="405.5" y1="380.0" x2="382.2" y2="366.2" stroke="rgb(0,0,0)"  stroke-width="1.0"/>
<line x1="409.8" y1="372.7" x2="386.5" y2="359.0" stroke="rgb(0,0,0)"  stroke-width="1.0"/>
<line x1="153.9" y1="170.8" x2="177.1" y2="157.6" stroke="rgb(0,0,0)"  stroke-width="1.0"/>
<line x1="156.9" y1="176.0" x2="180.1" y2="162.8" stroke="rgb(0,0,0)"  stroke-width="1.0"/>
<line x1="269.3" y1="176.5" x2="246.1" y2="163.0" stroke="rgb(0,0,0)"  stroke-width="1.0"/>
<line x1="272.3" y1="171.3" x2="249.1" y2="157.8" stroke="rgb(0,0,0)"  stroke-width="1.0"/>
<line x1="281.1" y1="327.8" x2="281.5" y2="300.2" stroke="rgb(0,0,0)"  stroke-width="1.0"/>
<line x1="339.3" y1="294.7" x2="316.4" y2="280.9" stroke="rgb(0,0,0)"  stroke-width="1.0"/>
<line x1="340.3" y1="227.9" x2="317.0" y2="240.9" stroke="rgb(0,0,0)"  stroke-width="1.0"/>
<line x1="349.9" y1="341.8" x2="350.3" y2="314.5" stroke="rgb(0,0,0)"  stroke-width="1.0"/>
<line x1="51.3" y1="46.5" x2="74.9" y2="60.0" stroke="rgb(0,0,0)"  stroke-width="1.0"/>
<line x1="351.7" y1="195.2" x2="351.7" y2="208.6" stroke="rgb(0,0,0)"  stroke-width="1.0"/>
<line x1="178.9" y1="133.3" x2="178.6" y2="160.2" stroke="rgb(0,0,0)"  stroke-width="1.0"/>
<line x1="178.6" y1="160.2" x2="213.1" y2="180.2" stroke="rgb(0,0,0)"  stroke-width="1.0"/>
<line x1="213.1" y1="180.2" x2="247.6" y2="160.4" stroke="rgb(0,0,0)"  stroke-width="1.0"/>
<line x1="247.6" y1="160.4" x2="247.9" y2="133.5" stroke="rgb(0,0,0)"  stroke-width="1.0"/>
<line x1="236.8" y1="113.9" x2="213.5" y2="100.3" stroke="rgb(0,0,0)"  stroke-width="1.0"/>
<line x1="213.5" y1="100.3" x2="190.2" y2="113.8" stroke="rgb(0,0,0)"  stroke-width="1.0"/>
<line x1="281.5" y1="300.2" x2="316.4" y2="280.9" stroke="rgb(0,0,0)"  stroke-width="1.0"/>
<line x1="316.4" y1="280.9" x2="317.0" y2="240.9" stroke="rgb(0,0,0)"  stroke-width="1.0"/>
<line x1="309.3" y1="274.8" x2="309.7" y2="246.8" stroke="rgb(0,0,0)"  stroke-width="1.0"/>
<line x1="317.0" y1="240.9" x2="282.5" y2="220.4" stroke="rgb(0,0,0)"  stroke-width="1.0"/>
<line x1="282.5" y1="220.4" x2="247.4" y2="240.3" stroke="rgb(0,0,0)"  stroke-width="1.0"/>
<line x1="280.8" y1="229.6" x2="256.2" y2="243.6" stroke="rgb(0,0,0)"  stroke-width="1.0"/>
<line x1="247.4" y1="240.3" x2="247.0" y2="280.3" stroke="rgb(0,0,0)"  stroke-width="1.0"/>
<line x1="247.0" y1="280.3" x2="281.5" y2="300.2" stroke="rgb(0,0,0)"  stroke-width="1.0"/>
<line x1="255.8" y1="277.0" x2="279.9" y2="291.0" stroke="rgb(0,0,0)"  stroke-width="1.0"/>
<line x1="144.1" y1="100.3" x2="109.4" y2="120.3" stroke="rgb(0,0,0)"  stroke-width="1.0"/>
<line x1="109.4" y1="120.3" x2="74.9" y2="100.3" stroke="rgb(0,0,0)"  stroke-width="1.0"/>
<line x1="107.8" y1="111.1" x2="83.7" y2="97.1" stroke="rgb(0,0,0)"  stroke-width="1.0"/>
<line x1="74.9" y1="100.3" x2="74.9" y2="60.0" stroke="rgb(0,0,0)"  stroke-width="1.0"/>
<line x1="74.9" y1="60.0" x2="109.4" y2="40.0" stroke="rgb(0,0,0)"  stroke-width="1.0"/>
<line x1="83.7" y1="63.2" x2="107.8" y2="49.2" stroke="rgb(0,0,0)"  stroke-width="1.0"/>
<line x1="109.4" y1="40.0" x2="144.1" y2="60.0" stroke="rgb(0,0,0)"  stroke-width="1.0"/>
<line x1="144.1" y1="60.0" x2="144.1" y2="100.3" stroke="rgb(0,0,0)"  stroke-width="1.0"/>
<line x1="136.9" y1="66.0" x2="136.9" y2="94.3" stroke="rgb(0,0,0)"  stroke-width="1.0"/>
<text x="172.998435" y="128.290300" fill="rgb(12,12,255)"  stroke="rgb(12,12,255)" stroke-width="1" font-size="16" >N</text>
<text x="241.991632" y="128.493677" fill="rgb(12,12,255)"  stroke="rgb(12,12,255)" stroke-width="1" font-size="16" >NH</text>
<text x="207.495034" y="68.376430" fill="rgb(255,12,12)"  stroke="rgb(255,12,12)" stroke-width="1" font-size="16" >O</text>
<text x="412.866977" y="390.956425" fill="rgb(102,102,102)"  stroke="rgb(102,102,102)" stroke-width="1" font-size="16" >CH</text>
<text x="138.099926" y="187.807101" fill="rgb(255,12,12)"  stroke="rgb(255,12,12)" stroke-width="1" font-size="16" >O</text>
<text x="276.086319" y="188.412389" fill="rgb(255,12,12)"  stroke="rgb(255,12,12)" stroke-width="1" font-size="16" >O</text>
<text x="274.875742" y="348.794454" fill="rgb(147,0,147)"  stroke="rgb(147,0,147)" stroke-width="1" font-size="16" >I</text>
<text x="344.479069" y="309.455548" fill="rgb(255,12,12)"  stroke="rgb(255,12,12)" stroke-width="1" font-size="16" >O</text>
<text x="345.689646" y="229.567160" fill="rgb(255,12,12)"  stroke="rgb(255,12,12)" stroke-width="1" font-size="16" >O</text>
<text x="14.000000" y="48.000000" fill="rgb(102,102,102)"  stroke="rgb(102,102,102)" stroke-width="1" font-size="16" >H</text>
<text x="26.000000" y="51.680000" fill="rgb(102,102,102)"  stroke="rgb(102,102,102)" stroke-width="1" font-size="13" >3</text>
<text x="32.500000" y="48.000000" fill="rgb(102,102,102)"  stroke="rgb(102,102,102)" stroke-width="1" font-size="16" >C</text>
<text x="347.689646" y="190.228254" fill="rgb(102,102,102)"  stroke="rgb(102,102,102)" stroke-width="1" font-size="16" >CH</text>
<text x="371.689646" y="193.908254" fill="rgb(102,102,102)"  stroke="rgb(102,102,102)" stroke-width="1" font-size="13" >3</text>
<text font-size="18.000000" fill ="black" font-family="sans-serif"
x="10.000000" y="20.000000" ></text>
<title> - OBDepict</title>
</svg>
