<?xml version="1.0"?>
<svg xmlns="http://www.w3.org/2000/svg"
xmlns:xlink="http://www.w3.org/1999/xlink" xmlns:cml="http://www.xml-cml.org/schema" width="409.94" height="291.336" x="0" y="0" font-family="sans-serif" stroke="rgb(0,0,0)" stroke-width="1"  stroke-linecap="round">
<rect x="0%" y="0%" width="100%" height="100%" stroke-width="0" fill="rgb(255,255,255)"  />
<line x1="159.8" y1="150.3" x2="147.5" y2="112.3" stroke="rgb(0,0,0)"  stroke-width="1.0"/>
<line x1="199.0" y1="158.6" x2="159.8" y2="150.3" stroke="rgb(0,0,0)"  stroke-width="1.0"/>
<line x1="343.1" y1="154.0" x2="316.4" y2="183.7" stroke="rgb(0,0,0)"  stroke-width="1.0"/>
<line x1="361.2" y1="133.9" x2="343.1" y2="154.0" stroke="rgb(0,0,0)"  stroke-width="1.0"/>
<line x1="364.3" y1="136.7" x2="346.2" y2="156.8" stroke="rgb(0,0,0)"  stroke-width="1.0"/>
<line x1="358.1" y1="131.1" x2="340.0" y2="151.1" stroke="rgb(0,0,0)"  stroke-width="1.0"/>
<line x1="207.3" y1="184.4" x2="199.0" y2="158.6" stroke="rgb(0,0,0)"  stroke-width="1.0"/>
<line x1="219.2" y1="140.6" x2="201.2" y2="160.6" stroke="rgb(0,0,0)"  stroke-width="1.0"/>
<line x1="214.8" y1="136.6" x2="196.8" y2="156.6" stroke="rgb(0,0,0)"  stroke-width="1.0"/>
<line x1="250.3" y1="205.1" x2="224.0" y2="199.5" stroke="rgb(0,0,0)"  stroke-width="1.0"/>
<line x1="163.2" y1="90.7" x2="147.5" y2="112.3" stroke="rgb(0,0,0)"  stroke-width="1.0"/>
<line x1="156.2" y1="88.1" x2="145.2" y2="103.2" stroke="rgb(0,0,0)"  stroke-width="1.0"/>
<line x1="147.5" y1="112.3" x2="109.3" y2="100.0" stroke="rgb(0,0,0)"  stroke-width="1.0"/>
<line x1="109.3" y1="100.0" x2="109.3" y2="60.0" stroke="rgb(0,0,0)"  stroke-width="1.0"/>
<line x1="116.5" y1="94.0" x2="116.5" y2="66.0" stroke="rgb(0,0,0)"  stroke-width="1.0"/>
<line x1="109.3" y1="60.0" x2="135.1" y2="51.7" stroke="rgb(0,0,0)"  stroke-width="1.0"/>
<line x1="155.1" y1="58.2" x2="163.3" y2="69.5" stroke="rgb(0,0,0)"  stroke-width="1.0"/>
<line x1="74.8" y1="120.0" x2="109.3" y2="100.0" stroke="rgb(0,0,0)"  stroke-width="1.0"/>
<line x1="109.3" y1="60.0" x2="74.8" y2="40.0" stroke="rgb(0,0,0)"  stroke-width="1.0"/>
<line x1="74.8" y1="40.0" x2="40.0" y2="60.0" stroke="rgb(0,0,0)"  stroke-width="1.0"/>
<line x1="73.1" y1="49.2" x2="48.8" y2="63.2" stroke="rgb(0,0,0)"  stroke-width="1.0"/>
<line x1="40.0" y1="60.0" x2="40.0" y2="100.0" stroke="rgb(0,0,0)"  stroke-width="1.0"/>
<line x1="40.0" y1="100.0" x2="74.8" y2="120.0" stroke="rgb(0,0,0)"  stroke-width="1.0"/>
<line x1="48.8" y1="96.8" x2="73.1" y2="110.8" stroke="rgb(0,0,0)"  stroke-width="1.0"/>
<line x1="250.3" y1="205.1" x2="277.2" y2="175.4" stroke="rgb(0,0,0)"  stroke-width="1.0"/>
<line x1="259.7" y1="205.5" x2="278.5" y2="184.7" stroke="rgb(0,0,0)"  stroke-width="1.0"/>
<line x1="277.2" y1="175.4" x2="316.4" y2="183.7" stroke="rgb(0,0,0)"  stroke-width="1.0"/>
<line x1="316.4" y1="183.7" x2="328.7" y2="221.6" stroke="rgb(0,0,0)"  stroke-width="1.0"/>
<line x1="311.4" y1="191.6" x2="320.0" y2="218.2" stroke="rgb(0,0,0)"  stroke-width="1.0"/>
<line x1="328.7" y1="221.6" x2="301.8" y2="251.3" stroke="rgb(0,0,0)"  stroke-width="1.0"/>
<line x1="301.8" y1="251.3" x2="262.9" y2="243.1" stroke="rgb(0,0,0)"  stroke-width="1.0"/>
<line x1="297.5" y1="243.0" x2="270.2" y2="237.3" stroke="rgb(0,0,0)"  stroke-width="1.0"/>
<line x1="262.9" y1="243.1" x2="250.3" y2="205.1" stroke="rgb(0,0,0)"  stroke-width="1.0"/>
<text x="164.924562" y="88.004727" fill="rgb(12,12,255)"  stroke="rgb(12,12,255)" stroke-width="1" font-size="16" >N</text>
<text x="141.489066" y="55.676059" fill="rgb(255,12,12)"  stroke="rgb(255,12,12)" stroke-width="1" font-size="16" >O</text>
<text x="363.939595" y="132.252380" fill="rgb(102,102,102)"  stroke="rgb(102,102,102)" stroke-width="1" font-size="16" >CH</text>
<text x="205.331762" y="204.784588" fill="rgb(12,12,255)"  stroke="rgb(12,12,255)" stroke-width="1" font-size="16" >N</text>
<text x="205.331762" y="220.784588" fill="rgb(12,12,255)"  stroke="rgb(12,12,255)" stroke-width="1" font-size="16" >H</text>
<text x="219.680124" y="136.897778" fill="rgb(255,12,12)"  stroke="rgb(255,12,12)" stroke-width="1" font-size="16" >O</text>
<text font-size="18.000000" fill ="black" font-family="sans-serif"
x="10.000000" y="20.000000" ></text>
<title> - OBDepict</title>
</svg>
