<?xml version="1.0"?>
<svg xmlns="http://www.w3.org/2000/svg"
xmlns:xlink="http://www.w3.org/1999/xlink" xmlns:cml="http://www.xml-cml.org/schema" width="391.63" height="340.06" x="0" y="0" font-family="sans-serif" stroke="rgb(0,0,0)" stroke-width="1"  stroke-linecap="round">
<rect x="0%" y="0%" width="100%" height="100%" stroke-width="0" fill="rgb(255,255,255)"  />
<line x1="282.3" y1="220.0" x2="282.3" y2="193.0" stroke="rgb(0,0,0)"  stroke-width="1.0"/>
<line x1="214.9" y1="97.4" x2="249.1" y2="117.4" stroke="rgb(0,0,0)"  stroke-width="1.0"/>
<line x1="211.9" y1="102.6" x2="246.1" y2="122.6" stroke="rgb(0,0,0)"  stroke-width="1.0"/>
<line x1="40.0" y1="240.0" x2="74.7" y2="220.0" stroke="rgb(0,0,0)"  stroke-width="1.0"/>
<line x1="338.9" y1="176.1" x2="315.5" y2="162.6" stroke="rgb(0,0,0)"  stroke-width="1.0"/>
<line x1="341.9" y1="170.9" x2="318.5" y2="157.4" stroke="rgb(0,0,0)"  stroke-width="1.0"/>
<line x1="223.1" y1="170.9" x2="246.1" y2="157.4" stroke="rgb(0,0,0)"  stroke-width="1.0"/>
<line x1="226.1" y1="176.1" x2="249.1" y2="162.6" stroke="rgb(0,0,0)"  stroke-width="1.0"/>
<line x1="40.0" y1="267.1" x2="40.0" y2="240.0" stroke="rgb(0,0,0)"  stroke-width="1.0"/>
<line x1="35.8" y1="267.1" x2="35.8" y2="240.0" stroke="rgb(0,0,0)"  stroke-width="1.0"/>
<line x1="44.2" y1="267.1" x2="44.2" y2="240.0" stroke="rgb(0,0,0)"  stroke-width="1.0"/>
<line x1="285.3" y1="73.0" x2="285.3" y2="100.0" stroke="rgb(0,0,0)"  stroke-width="1.0"/>
<line x1="279.3" y1="73.0" x2="279.3" y2="100.0" stroke="rgb(0,0,0)"  stroke-width="1.0"/>
<line x1="178.7" y1="120.0" x2="213.4" y2="100.0" stroke="rgb(0,0,0)"  stroke-width="1.0"/>
<line x1="340.4" y1="226.5" x2="317.0" y2="240.0" stroke="rgb(0,0,0)"  stroke-width="1.0"/>
<line x1="85.9" y1="106.5" x2="109.3" y2="120.0" stroke="rgb(0,0,0)"  stroke-width="1.0"/>
<line x1="85.9" y1="173.5" x2="109.3" y2="160.0" stroke="rgb(0,0,0)"  stroke-width="1.0"/>
<line x1="74.7" y1="220.0" x2="74.7" y2="193.0" stroke="rgb(0,0,0)"  stroke-width="1.0"/>
<line x1="74.7" y1="60.0" x2="74.7" y2="87.0" stroke="rgb(0,0,0)"  stroke-width="1.0"/>
<line x1="51.3" y1="46.5" x2="74.7" y2="60.0" stroke="rgb(0,0,0)"  stroke-width="1.0"/>
<line x1="271.0" y1="173.5" x2="247.6" y2="160.0" stroke="rgb(0,0,0)"  stroke-width="1.0"/>
<line x1="247.6" y1="160.0" x2="247.6" y2="120.0" stroke="rgb(0,0,0)"  stroke-width="1.0"/>
<line x1="247.6" y1="120.0" x2="282.3" y2="100.0" stroke="rgb(0,0,0)"  stroke-width="1.0"/>
<line x1="282.3" y1="100.0" x2="305.7" y2="113.5" stroke="rgb(0,0,0)"  stroke-width="1.0"/>
<line x1="317.0" y1="133.0" x2="317.0" y2="160.0" stroke="rgb(0,0,0)"  stroke-width="1.0"/>
<line x1="317.0" y1="160.0" x2="293.5" y2="173.5" stroke="rgb(0,0,0)"  stroke-width="1.0"/>
<line x1="109.3" y1="120.0" x2="109.3" y2="160.0" stroke="rgb(0,0,0)"  stroke-width="1.0"/>
<line x1="109.3" y1="160.0" x2="144.0" y2="180.0" stroke="rgb(0,0,0)"  stroke-width="1.0"/>
<line x1="118.1" y1="156.8" x2="142.4" y2="170.8" stroke="rgb(0,0,0)"  stroke-width="1.0"/>
<line x1="144.0" y1="180.0" x2="178.7" y2="160.0" stroke="rgb(0,0,0)"  stroke-width="1.0"/>
<line x1="178.7" y1="160.0" x2="178.7" y2="120.0" stroke="rgb(0,0,0)"  stroke-width="1.0"/>
<line x1="171.5" y1="154.0" x2="171.5" y2="126.0" stroke="rgb(0,0,0)"  stroke-width="1.0"/>
<line x1="178.7" y1="120.0" x2="144.0" y2="100.0" stroke="rgb(0,0,0)"  stroke-width="1.0"/>
<line x1="144.0" y1="100.0" x2="109.3" y2="120.0" stroke="rgb(0,0,0)"  stroke-width="1.0"/>
<line x1="142.4" y1="109.2" x2="118.1" y2="123.3" stroke="rgb(0,0,0)"  stroke-width="1.0"/>
<line x1="282.3" y1="220.0" x2="317.0" y2="240.0" stroke="rgb(0,0,0)"  stroke-width="1.0"/>
<line x1="283.9" y1="229.3" x2="308.2" y2="243.3" stroke="rgb(0,0,0)"  stroke-width="1.0"/>
<line x1="317.0" y1="240.0" x2="317.0" y2="280.1" stroke="rgb(0,0,0)"  stroke-width="1.0"/>
<line x1="317.0" y1="280.1" x2="282.3" y2="300.1" stroke="rgb(0,0,0)"  stroke-width="1.0"/>
<line x1="308.2" y1="276.8" x2="283.9" y2="290.8" stroke="rgb(0,0,0)"  stroke-width="1.0"/>
<line x1="282.3" y1="300.1" x2="247.6" y2="280.1" stroke="rgb(0,0,0)"  stroke-width="1.0"/>
<line x1="247.6" y1="280.1" x2="247.6" y2="240.0" stroke="rgb(0,0,0)"  stroke-width="1.0"/>
<line x1="254.8" y1="274.1" x2="254.8" y2="246.0" stroke="rgb(0,0,0)"  stroke-width="1.0"/>
<line x1="247.6" y1="240.0" x2="282.3" y2="220.0" stroke="rgb(0,0,0)"  stroke-width="1.0"/>
<text x="276.280838" y="188.032900" fill="rgb(12,12,255)"  stroke="rgb(12,12,255)" stroke-width="1" font-size="16" >N</text>
<text x="310.955466" y="128.019493" fill="rgb(12,12,255)"  stroke="rgb(12,12,255)" stroke-width="1" font-size="16" >NH</text>
<text x="345.630095" y="188.032900" fill="rgb(255,12,12)"  stroke="rgb(255,12,12)" stroke-width="1" font-size="16" >O</text>
<text x="207.377994" y="188.032900" fill="rgb(255,12,12)"  stroke="rgb(255,12,12)" stroke-width="1" font-size="16" >O</text>
<text x="34.000000" y="288.058479" fill="rgb(102,102,102)"  stroke="rgb(102,102,102)" stroke-width="1" font-size="16" >CH</text>
<text x="276.280838" y="68.006086" fill="rgb(255,12,12)"  stroke="rgb(255,12,12)" stroke-width="1" font-size="16" >O</text>
<text x="345.630095" y="228.045072" fill="rgb(127,178,255)"  stroke="rgb(127,178,255)" stroke-width="1" font-size="16" >F</text>
<text x="68.674628" y="108.013407" fill="rgb(255,12,12)"  stroke="rgb(255,12,12)" stroke-width="1" font-size="16" >O</text>
<text x="68.674628" y="188.032900" fill="rgb(255,12,12)"  stroke="rgb(255,12,12)" stroke-width="1" font-size="16" >O</text>
<text x="14.000000" y="48.000000" fill="rgb(102,102,102)"  stroke="rgb(102,102,102)" stroke-width="1" font-size="16" >H</text>
<text x="26.000000" y="51.680000" fill="rgb(102,102,102)"  stroke="rgb(102,102,102)" stroke-width="1" font-size="13" >3</text>
<text x="32.500000" y="48.000000" fill="rgb(102,102,102)"  stroke="rgb(102,102,102)" stroke-width="1" font-size="16" >C</text>
<text font-size="18.000000" fill ="black" font-family="sans-serif"
x="10.000000" y="20.000000" ></text>
<title> - OBDepict</title>
</svg>
