<?xml version="1.0"?>
<svg xmlns="http://www.w3.org/2000/svg"
xmlns:xlink="http://www.w3.org/1999/xlink" xmlns:cml="http://www.xml-cml.org/schema" width="293.337" height="519.804" x="0" y="0" font-family="sans-serif" stroke="rgb(0,0,0)" stroke-width="1"  stroke-linecap="round">
<rect x="0%" y="0%" width="100%" height="100%" stroke-width="0" fill="rgb(255,255,255)"  />
<line x1="109.3" y1="399.8" x2="109.3" y2="359.8" stroke="rgb(0,0,0)"  stroke-width="1.0"/>
<line x1="213.3" y1="219.8" x2="213.3" y2="192.8" stroke="rgb(0,0,0)"  stroke-width="1.0"/>
<line x1="144.0" y1="299.8" x2="178.6" y2="279.8" stroke="rgb(0,0,0)"  stroke-width="1.0"/>
<line x1="247.9" y1="80.0" x2="247.9" y2="120.0" stroke="rgb(0,0,0)"  stroke-width="1.0"/>
<line x1="247.9" y1="53.0" x2="247.9" y2="80.0" stroke="rgb(0,0,0)"  stroke-width="1.0"/>
<line x1="252.1" y1="53.0" x2="252.1" y2="80.0" stroke="rgb(0,0,0)"  stroke-width="1.0"/>
<line x1="243.7" y1="53.0" x2="243.7" y2="80.0" stroke="rgb(0,0,0)"  stroke-width="1.0"/>
<line x1="240.3" y1="182.8" x2="226.3" y2="182.8" stroke="rgb(0,0,0)"  stroke-width="1.0"/>
<line x1="240.3" y1="176.8" x2="226.3" y2="176.8" stroke="rgb(0,0,0)"  stroke-width="1.0"/>
<line x1="186.3" y1="176.8" x2="200.3" y2="176.8" stroke="rgb(0,0,0)"  stroke-width="1.0"/>
<line x1="186.3" y1="182.8" x2="200.3" y2="182.8" stroke="rgb(0,0,0)"  stroke-width="1.0"/>
<line x1="144.0" y1="326.8" x2="144.0" y2="299.8" stroke="rgb(0,0,0)"  stroke-width="1.0"/>
<line x1="109.3" y1="359.8" x2="132.8" y2="346.3" stroke="rgb(0,0,0)"  stroke-width="1.0"/>
<line x1="213.3" y1="152.8" x2="213.3" y2="166.8" stroke="rgb(0,0,0)"  stroke-width="1.0"/>
<line x1="49.8" y1="470.7" x2="73.3" y2="457.2" stroke="rgb(0,0,0)"  stroke-width="1.0"/>
<line x1="52.8" y1="475.9" x2="76.2" y2="462.4" stroke="rgb(0,0,0)"  stroke-width="1.0"/>
<line x1="122.1" y1="283.7" x2="145.5" y2="297.2" stroke="rgb(0,0,0)"  stroke-width="1.0"/>
<line x1="119.1" y1="288.9" x2="142.5" y2="302.4" stroke="rgb(0,0,0)"  stroke-width="1.0"/>
<line x1="247.9" y1="120.0" x2="224.6" y2="133.3" stroke="rgb(0,0,0)"  stroke-width="1.0"/>
<line x1="236.6" y1="473.3" x2="213.3" y2="459.8" stroke="rgb(0,0,0)"  stroke-width="1.0"/>
<line x1="144.0" y1="459.8" x2="120.6" y2="473.3" stroke="rgb(0,0,0)"  stroke-width="1.0"/>
<line x1="98.0" y1="473.3" x2="74.7" y2="459.8" stroke="rgb(0,0,0)"  stroke-width="1.0"/>
<line x1="74.7" y1="459.8" x2="74.7" y2="419.8" stroke="rgb(0,0,0)"  stroke-width="1.0"/>
<line x1="74.7" y1="419.8" x2="109.3" y2="399.8" stroke="rgb(0,0,0)"  stroke-width="1.0"/>
<line x1="83.5" y1="423.0" x2="107.7" y2="409.0" stroke="rgb(0,0,0)"  stroke-width="1.0"/>
<line x1="109.3" y1="399.8" x2="144.0" y2="419.8" stroke="rgb(0,0,0)"  stroke-width="1.0"/>
<line x1="144.0" y1="419.8" x2="144.0" y2="459.8" stroke="rgb(0,0,0)"  stroke-width="1.0"/>
<line x1="136.8" y1="425.8" x2="136.8" y2="453.8" stroke="rgb(0,0,0)"  stroke-width="1.0"/>
<line x1="213.3" y1="219.8" x2="247.9" y2="239.8" stroke="rgb(0,0,0)"  stroke-width="1.0"/>
<line x1="214.9" y1="229.0" x2="239.1" y2="243.0" stroke="rgb(0,0,0)"  stroke-width="1.0"/>
<line x1="247.9" y1="239.8" x2="247.9" y2="279.8" stroke="rgb(0,0,0)"  stroke-width="1.0"/>
<line x1="247.9" y1="279.8" x2="213.3" y2="299.8" stroke="rgb(0,0,0)"  stroke-width="1.0"/>
<line x1="239.1" y1="276.6" x2="214.9" y2="290.6" stroke="rgb(0,0,0)"  stroke-width="1.0"/>
<line x1="213.3" y1="299.8" x2="178.6" y2="279.8" stroke="rgb(0,0,0)"  stroke-width="1.0"/>
<line x1="178.6" y1="279.8" x2="178.6" y2="239.8" stroke="rgb(0,0,0)"  stroke-width="1.0"/>
<line x1="185.8" y1="273.8" x2="185.8" y2="245.8" stroke="rgb(0,0,0)"  stroke-width="1.0"/>
<line x1="178.6" y1="239.8" x2="213.3" y2="219.8" stroke="rgb(0,0,0)"  stroke-width="1.0"/>
<line x1="144.0" y1="419.8" x2="178.6" y2="399.8" stroke="rgb(0,0,0)"  stroke-width="1.0"/>
<line x1="178.6" y1="399.8" x2="213.3" y2="419.8" stroke="rgb(0,0,0)"  stroke-width="1.0"/>
<line x1="180.2" y1="409.0" x2="204.5" y2="423.0" stroke="rgb(0,0,0)"  stroke-width="1.0"/>
<line x1="213.3" y1="419.8" x2="213.3" y2="459.8" stroke="rgb(0,0,0)"  stroke-width="1.0"/>
<line x1="213.3" y1="459.8" x2="178.6" y2="479.8" stroke="rgb(0,0,0)"  stroke-width="1.0"/>
<line x1="204.5" y1="456.6" x2="180.2" y2="470.6" stroke="rgb(0,0,0)"  stroke-width="1.0"/>
<line x1="178.6" y1="479.8" x2="144.0" y2="459.8" stroke="rgb(0,0,0)"  stroke-width="1.0"/>
<text x="207.336176" y="187.798656" fill="rgb(178,178,0)"  stroke="rgb(178,178,0)" stroke-width="1" font-size="16" >S</text>
<text x="103.295682" y="487.803575" fill="rgb(255,12,12)"  stroke="rgb(255,12,12)" stroke-width="1" font-size="16" >O</text>
<text x="241.882196" y="48.000000" fill="rgb(102,102,102)"  stroke="rgb(102,102,102)" stroke-width="1" font-size="16" >CH</text>
<text x="247.336831" y="187.798656" fill="rgb(255,12,12)"  stroke="rgb(255,12,12)" stroke-width="1" font-size="16" >O</text>
<text x="167.335520" y="187.798656" fill="rgb(255,12,12)"  stroke="rgb(255,12,12)" stroke-width="1" font-size="16" >O</text>
<text x="138.040494" y="347.801279" fill="rgb(255,12,12)"  stroke="rgb(255,12,12)" stroke-width="1" font-size="16" >O</text>
<text x="195.336176" y="147.798000" fill="rgb(12,12,255)"  stroke="rgb(12,12,255)" stroke-width="1" font-size="16" >HN</text>
<text x="34.000000" y="487.803575" fill="rgb(255,12,12)"  stroke="rgb(255,12,12)" stroke-width="1" font-size="16" >O</text>
<text x="103.295682" y="287.800296" fill="rgb(255,12,12)"  stroke="rgb(255,12,12)" stroke-width="1" font-size="16" >O</text>
<text x="241.882196" y="487.803575" fill="rgb(255,12,12)"  stroke="rgb(255,12,12)" stroke-width="1" font-size="16" >OH</text>
<text font-size="18.000000" fill ="black" font-family="sans-serif"
x="10.000000" y="20.000000" ></text>
<title> - OBDepict</title>
</svg>
