<?xml version="1.0"?>
<svg xmlns="http://www.w3.org/2000/svg"
xmlns:xlink="http://www.w3.org/1999/xlink" xmlns:cml="http://www.xml-cml.org/schema" width="496.53" height="314.853" x="0" y="0" font-family="sans-serif" stroke="rgb(0,0,0)" stroke-width="1"  stroke-linecap="round">
<rect x="0%" y="0%" width="100%" height="100%" stroke-width="0" fill="rgb(255,255,255)"  />
<line x1="315.1" y1="58.9" x2="276.3" y2="66.8" stroke="rgb(0,0,0)"  stroke-width="1.0"/>
<line x1="313.9" y1="53.1" x2="275.1" y2="60.9" stroke="rgb(0,0,0)"  stroke-width="1.0"/>
<line x1="199.0" y1="133.5" x2="215.1" y2="111.8" stroke="rgb(0,0,0)"  stroke-width="1.0"/>
<line x1="431.0" y1="244.5" x2="404.9" y2="213.7" stroke="rgb(0,0,0)"  stroke-width="1.0"/>
<line x1="448.2" y1="264.9" x2="431.0" y2="244.5" stroke="rgb(0,0,0)"  stroke-width="1.0"/>
<line x1="444.9" y1="267.6" x2="427.8" y2="247.2" stroke="rgb(0,0,0)"  stroke-width="1.0"/>
<line x1="451.4" y1="262.2" x2="434.2" y2="241.8" stroke="rgb(0,0,0)"  stroke-width="1.0"/>
<line x1="185.8" y1="52.2" x2="212.1" y2="60.5" stroke="rgb(0,0,0)"  stroke-width="1.0"/>
<line x1="184.0" y1="57.9" x2="210.3" y2="66.2" stroke="rgb(0,0,0)"  stroke-width="1.0"/>
<line x1="276.1" y1="125.9" x2="260.4" y2="103.2" stroke="rgb(0,0,0)"  stroke-width="1.0"/>
<line x1="281.1" y1="122.5" x2="265.3" y2="99.8" stroke="rgb(0,0,0)"  stroke-width="1.0"/>
<line x1="341.0" y1="85.7" x2="314.5" y2="56.0" stroke="rgb(0,0,0)"  stroke-width="1.0"/>
<line x1="159.2" y1="128.8" x2="199.0" y2="133.5" stroke="rgb(0,0,0)"  stroke-width="1.0"/>
<line x1="344.2" y1="179.4" x2="353.4" y2="153.7" stroke="rgb(0,0,0)"  stroke-width="1.0"/>
<line x1="52.9" y1="115.8" x2="79.7" y2="119.2" stroke="rgb(0,0,0)"  stroke-width="1.0"/>
<line x1="409.8" y1="166.8" x2="392.9" y2="146.8" stroke="rgb(0,0,0)"  stroke-width="1.0"/>
<line x1="404.9" y1="213.7" x2="413.8" y2="188.9" stroke="rgb(0,0,0)"  stroke-width="1.0"/>
<line x1="219.0" y1="88.9" x2="211.2" y2="63.3" stroke="rgb(0,0,0)"  stroke-width="1.0"/>
<line x1="211.2" y1="63.3" x2="233.0" y2="47.6" stroke="rgb(0,0,0)"  stroke-width="1.0"/>
<line x1="254.0" y1="47.7" x2="275.7" y2="63.8" stroke="rgb(0,0,0)"  stroke-width="1.0"/>
<line x1="275.7" y1="63.8" x2="262.9" y2="101.5" stroke="rgb(0,0,0)"  stroke-width="1.0"/>
<line x1="262.9" y1="101.5" x2="235.8" y2="101.4" stroke="rgb(0,0,0)"  stroke-width="1.0"/>
<line x1="353.4" y1="153.7" x2="392.9" y2="146.8" stroke="rgb(0,0,0)"  stroke-width="1.0"/>
<line x1="358.0" y1="145.6" x2="385.7" y2="140.8" stroke="rgb(0,0,0)"  stroke-width="1.0"/>
<line x1="392.9" y1="146.8" x2="406.5" y2="109.2" stroke="rgb(0,0,0)"  stroke-width="1.0"/>
<line x1="406.5" y1="109.2" x2="380.7" y2="78.5" stroke="rgb(0,0,0)"  stroke-width="1.0"/>
<line x1="397.2" y1="109.2" x2="379.1" y2="87.7" stroke="rgb(0,0,0)"  stroke-width="1.0"/>
<line x1="380.7" y1="78.5" x2="341.0" y2="85.7" stroke="rgb(0,0,0)"  stroke-width="1.0"/>
<line x1="341.0" y1="85.7" x2="327.2" y2="122.7" stroke="rgb(0,0,0)"  stroke-width="1.0"/>
<line x1="345.7" y1="93.8" x2="336.0" y2="119.6" stroke="rgb(0,0,0)"  stroke-width="1.0"/>
<line x1="327.2" y1="122.7" x2="353.4" y2="153.7" stroke="rgb(0,0,0)"  stroke-width="1.0"/>
<line x1="159.2" y1="128.8" x2="135.5" y2="160.8" stroke="rgb(0,0,0)"  stroke-width="1.0"/>
<line x1="135.5" y1="160.8" x2="95.8" y2="156.2" stroke="rgb(0,0,0)"  stroke-width="1.0"/>
<line x1="130.4" y1="153.0" x2="102.6" y2="149.7" stroke="rgb(0,0,0)"  stroke-width="1.0"/>
<line x1="95.8" y1="156.2" x2="79.7" y2="119.2" stroke="rgb(0,0,0)"  stroke-width="1.0"/>
<line x1="79.7" y1="119.2" x2="104.0" y2="87.0" stroke="rgb(0,0,0)"  stroke-width="1.0"/>
<line x1="89.0" y1="118.7" x2="106.1" y2="96.1" stroke="rgb(0,0,0)"  stroke-width="1.0"/>
<line x1="104.0" y1="87.0" x2="143.3" y2="91.8" stroke="rgb(0,0,0)"  stroke-width="1.0"/>
<line x1="143.3" y1="91.8" x2="159.2" y2="128.8" stroke="rgb(0,0,0)"  stroke-width="1.0"/>
<line x1="139.1" y1="100.2" x2="150.2" y2="126.2" stroke="rgb(0,0,0)"  stroke-width="1.0"/>
<text x="216.843375" y="109.339593" fill="rgb(12,12,255)"  stroke="rgb(12,12,255)" stroke-width="1" font-size="16" >N</text>
<text x="237.514949" y="48.000000" fill="rgb(12,12,255)"  stroke="rgb(12,12,255)" stroke-width="1" font-size="16" >N</text>
<text x="237.514949" y="32.000000" fill="rgb(12,12,255)"  stroke="rgb(12,12,255)" stroke-width="1" font-size="16" >H</text>
<text x="450.530274" y="282.852589" fill="rgb(102,102,102)"  stroke="rgb(102,102,102)" stroke-width="1" font-size="16" >CH</text>
<text x="166.509841" y="59.171198" fill="rgb(255,12,12)"  stroke="rgb(255,12,12)" stroke-width="1" font-size="16" >O</text>
<text x="280.018930" y="142.843474" fill="rgb(255,12,12)"  stroke="rgb(255,12,12)" stroke-width="1" font-size="16" >O</text>
<text x="321.854392" y="199.680589" fill="rgb(165,40,40)"  stroke="rgb(165,40,40)" stroke-width="1" font-size="16" >Br</text>
<text x="22.000000" y="122.176757" fill="rgb(30,239,30)"  stroke="rgb(30,239,30)" stroke-width="1" font-size="16" >Cl</text>
<text x="412.193635" y="184.682041" fill="rgb(255,12,12)"  stroke="rgb(255,12,12)" stroke-width="1" font-size="16" >O</text>
<text font-size="18.000000" fill ="black" font-family="sans-serif"
x="10.000000" y="20.000000" ></text>
<title> - OBDepict</title>
</svg>
