<?xml version="1.0"?>
<svg xmlns="http://www.w3.org/2000/svg"
xmlns:xlink="http://www.w3.org/1999/xlink" xmlns:cml="http://www.xml-cml.org/schema" width="253.305" height="459.738" x="0" y="0" font-family="sans-serif" stroke="rgb(0,0,0)" stroke-width="1"  stroke-linecap="round">
<rect x="0%" y="0%" width="100%" height="100%" stroke-width="0" fill="rgb(255,255,255)"  />
<line x1="144.0" y1="319.8" x2="120.6" y2="306.2" stroke="rgb(0,0,0)"  stroke-width="1.0"/>
<line x1="109.3" y1="259.8" x2="109.3" y2="286.8" stroke="rgb(0,0,0)"  stroke-width="1.0"/>
<line x1="74.7" y1="212.8" x2="74.7" y2="239.8" stroke="rgb(0,0,0)"  stroke-width="1.0"/>
<line x1="109.3" y1="59.8" x2="74.7" y2="79.8" stroke="rgb(0,0,0)"  stroke-width="1.0"/>
<line x1="132.7" y1="46.4" x2="109.3" y2="59.8" stroke="rgb(0,0,0)"  stroke-width="1.0"/>
<line x1="134.8" y1="50.1" x2="111.4" y2="63.4" stroke="rgb(0,0,0)"  stroke-width="1.0"/>
<line x1="130.7" y1="42.8" x2="107.2" y2="56.1" stroke="rgb(0,0,0)"  stroke-width="1.0"/>
<line x1="74.7" y1="239.8" x2="109.3" y2="259.8" stroke="rgb(0,0,0)"  stroke-width="1.0"/>
<line x1="134.3" y1="248.9" x2="110.8" y2="262.4" stroke="rgb(0,0,0)"  stroke-width="1.0"/>
<line x1="131.3" y1="243.7" x2="107.8" y2="257.2" stroke="rgb(0,0,0)"  stroke-width="1.0"/>
<line x1="74.7" y1="79.8" x2="74.7" y2="106.8" stroke="rgb(0,0,0)"  stroke-width="1.0"/>
<line x1="120.6" y1="373.3" x2="144.0" y2="359.7" stroke="rgb(0,0,0)"  stroke-width="1.0"/>
<line x1="178.6" y1="406.7" x2="178.6" y2="379.7" stroke="rgb(0,0,0)"  stroke-width="1.0"/>
<line x1="144.0" y1="319.8" x2="178.6" y2="299.8" stroke="rgb(0,0,0)"  stroke-width="1.0"/>
<line x1="152.8" y1="323.0" x2="177.0" y2="309.0" stroke="rgb(0,0,0)"  stroke-width="1.0"/>
<line x1="178.6" y1="299.8" x2="213.3" y2="319.8" stroke="rgb(0,0,0)"  stroke-width="1.0"/>
<line x1="213.3" y1="319.8" x2="213.3" y2="359.7" stroke="rgb(0,0,0)"  stroke-width="1.0"/>
<line x1="206.1" y1="325.8" x2="206.1" y2="353.7" stroke="rgb(0,0,0)"  stroke-width="1.0"/>
<line x1="213.3" y1="359.7" x2="178.6" y2="379.7" stroke="rgb(0,0,0)"  stroke-width="1.0"/>
<line x1="178.6" y1="379.7" x2="144.0" y2="359.7" stroke="rgb(0,0,0)"  stroke-width="1.0"/>
<line x1="177.0" y1="370.5" x2="152.8" y2="356.5" stroke="rgb(0,0,0)"  stroke-width="1.0"/>
<line x1="144.0" y1="359.7" x2="144.0" y2="319.8" stroke="rgb(0,0,0)"  stroke-width="1.0"/>
<line x1="63.5" y1="193.3" x2="40.0" y2="179.8" stroke="rgb(0,0,0)"  stroke-width="1.0"/>
<line x1="40.0" y1="179.8" x2="40.0" y2="139.8" stroke="rgb(0,0,0)"  stroke-width="1.0"/>
<line x1="40.0" y1="139.8" x2="63.5" y2="126.3" stroke="rgb(0,0,0)"  stroke-width="1.0"/>
<line x1="86.0" y1="126.3" x2="109.3" y2="139.8" stroke="rgb(0,0,0)"  stroke-width="1.0"/>
<line x1="109.3" y1="139.8" x2="109.3" y2="179.8" stroke="rgb(0,0,0)"  stroke-width="1.0"/>
<line x1="109.3" y1="179.8" x2="86.0" y2="193.3" stroke="rgb(0,0,0)"  stroke-width="1.0"/>
<text x="91.283092" y="307.758270" fill="rgb(12,12,255)"  stroke="rgb(12,12,255)" stroke-width="1" font-size="16" >HN</text>
<text x="68.743347" y="207.774799" fill="rgb(12,12,255)"  stroke="rgb(12,12,255)" stroke-width="1" font-size="16" >N</text>
<text x="68.743347" y="127.788022" fill="rgb(12,12,255)"  stroke="rgb(12,12,255)" stroke-width="1" font-size="16" >N</text>
<text x="138.026439" y="48.000000" fill="rgb(102,102,102)"  stroke="rgb(102,102,102)" stroke-width="1" font-size="16" >CH</text>
<text x="138.026439" y="247.768187" fill="rgb(255,12,12)"  stroke="rgb(255,12,12)" stroke-width="1" font-size="16" >O</text>
<text x="83.283092" y="387.745046" fill="rgb(102,102,102)"  stroke="rgb(102,102,102)" stroke-width="1" font-size="16" >H</text>
<text x="95.283092" y="391.425046" fill="rgb(102,102,102)"  stroke="rgb(102,102,102)" stroke-width="1" font-size="13" >3</text>
<text x="101.783092" y="387.745046" fill="rgb(102,102,102)"  stroke="rgb(102,102,102)" stroke-width="1" font-size="16" >C</text>
<text x="174.566184" y="427.738435" fill="rgb(102,102,102)"  stroke="rgb(102,102,102)" stroke-width="1" font-size="16" >CH</text>
<text x="198.566184" y="431.418435" fill="rgb(102,102,102)"  stroke="rgb(102,102,102)" stroke-width="1" font-size="13" >3</text>
<text font-size="18.000000" fill ="black" font-family="sans-serif"
x="10.000000" y="20.000000" ></text>
<title> - OBDepict</title>
</svg>
