<?xml version="1.0"?>
<svg xmlns="http://www.w3.org/2000/svg"
xmlns:xlink="http://www.w3.org/1999/xlink" xmlns:cml="http://www.xml-cml.org/schema" width="419.502" height="234.143" x="0" y="0" font-family="sans-serif" stroke="rgb(0,0,0)" stroke-width="1"  stroke-linecap="round">
<rect x="0%" y="0%" width="100%" height="100%" stroke-width="0" fill="rgb(255,255,255)"  />
<line x1="341.4" y1="85.5" x2="303.6" y2="74.7" stroke="rgb(0,0,0)"  stroke-width="1.0"/>
<line x1="367.0" y1="92.6" x2="341.4" y2="85.5" stroke="rgb(0,0,0)"  stroke-width="1.0"/>
<line x1="365.9" y1="96.6" x2="340.2" y2="89.5" stroke="rgb(0,0,0)"  stroke-width="1.0"/>
<line x1="368.1" y1="88.5" x2="342.5" y2="81.4" stroke="rgb(0,0,0)"  stroke-width="1.0"/>
<line x1="262.9" y1="99.0" x2="237.1" y2="92.0" stroke="rgb(0,0,0)"  stroke-width="1.0"/>
<line x1="137.1" y1="174.1" x2="137.5" y2="147.6" stroke="rgb(0,0,0)"  stroke-width="1.0"/>
<line x1="303.6" y1="74.7" x2="284.7" y2="93.3" stroke="rgb(0,0,0)"  stroke-width="1.0"/>
<line x1="159.7" y1="187.5" x2="137.1" y2="174.1" stroke="rgb(0,0,0)"  stroke-width="1.0"/>
<line x1="105.3" y1="108.6" x2="119.2" y2="71.6" stroke="rgb(0,0,0)"  stroke-width="1.0"/>
<line x1="119.2" y1="71.6" x2="158.7" y2="71.6" stroke="rgb(0,0,0)"  stroke-width="1.0"/>
<line x1="158.7" y1="71.6" x2="170.8" y2="111.5" stroke="rgb(0,0,0)"  stroke-width="1.0"/>
<line x1="170.8" y1="111.5" x2="148.4" y2="127.2" stroke="rgb(0,0,0)"  stroke-width="1.0"/>
<line x1="127.6" y1="126.5" x2="105.3" y2="108.6" stroke="rgb(0,0,0)"  stroke-width="1.0"/>
<line x1="158.7" y1="71.6" x2="177.2" y2="52.4" stroke="rgb(0,0,0)"  stroke-width="1.0"/>
<line x1="168.0" y1="72.3" x2="180.9" y2="58.8" stroke="rgb(0,0,0)"  stroke-width="1.0"/>
<line x1="198.9" y1="46.0" x2="212.9" y2="49.6" stroke="rgb(0,0,0)"  stroke-width="1.0"/>
<line x1="229.4" y1="65.7" x2="237.1" y2="92.0" stroke="rgb(0,0,0)"  stroke-width="1.0"/>
<line x1="223.0" y1="69.5" x2="228.5" y2="88.3" stroke="rgb(0,0,0)"  stroke-width="1.0"/>
<line x1="237.1" y1="92.0" x2="218.5" y2="110.9" stroke="rgb(0,0,0)"  stroke-width="1.0"/>
<line x1="196.7" y1="117.3" x2="170.8" y2="111.5" stroke="rgb(0,0,0)"  stroke-width="1.0"/>
<line x1="196.2" y1="109.8" x2="178.3" y2="105.8" stroke="rgb(0,0,0)"  stroke-width="1.0"/>
<line x1="94.0" y1="40.0" x2="119.2" y2="71.6" stroke="rgb(0,0,0)"  stroke-width="1.0"/>
<line x1="92.1" y1="49.2" x2="109.8" y2="71.4" stroke="rgb(0,0,0)"  stroke-width="1.0"/>
<line x1="105.3" y1="108.6" x2="66.0" y2="114.6" stroke="rgb(0,0,0)"  stroke-width="1.0"/>
<line x1="98.3" y1="102.4" x2="70.9" y2="106.5" stroke="rgb(0,0,0)"  stroke-width="1.0"/>
<line x1="66.0" y1="114.6" x2="40.0" y2="83.2" stroke="rgb(0,0,0)"  stroke-width="1.0"/>
<line x1="40.0" y1="83.2" x2="54.5" y2="46.7" stroke="rgb(0,0,0)"  stroke-width="1.0"/>
<line x1="48.9" y1="80.2" x2="58.9" y2="55.0" stroke="rgb(0,0,0)"  stroke-width="1.0"/>
<line x1="54.5" y1="46.7" x2="94.0" y2="40.0" stroke="rgb(0,0,0)"  stroke-width="1.0"/>
<text x="131.692238" y="142.606209" fill="rgb(12,12,255)"  stroke="rgb(12,12,255)" stroke-width="1" font-size="16" >N</text>
<text x="203.366808" y="128.155149" fill="rgb(12,12,255)"  stroke="rgb(12,12,255)" stroke-width="1" font-size="16" >N</text>
<text x="180.243192" y="50.894052" fill="rgb(12,12,255)"  stroke="rgb(12,12,255)" stroke-width="1" font-size="16" >N</text>
<text x="219.550460" y="60.718469" fill="rgb(12,12,255)"  stroke="rgb(12,12,255)" stroke-width="1" font-size="16" >N</text>
<text x="373.501524" y="104.071649" fill="rgb(102,102,102)"  stroke="rgb(102,102,102)" stroke-width="1" font-size="16" >CH</text>
<text x="269.454851" y="110.430883" fill="rgb(178,178,0)"  stroke="rgb(178,178,0)" stroke-width="1" font-size="16" >S</text>
<text x="166.832248" y="202.143041" fill="rgb(102,102,102)"  stroke="rgb(102,102,102)" stroke-width="1" font-size="16" >CH</text>
<text x="190.832248" y="205.823041" fill="rgb(102,102,102)"  stroke="rgb(102,102,102)" stroke-width="1" font-size="13" >3</text>
<text font-size="18.000000" fill ="black" font-family="sans-serif"
x="10.000000" y="20.000000" ></text>
<title> - OBDepict</title>
</svg>
