<?xml version="1.0"?>
<svg xmlns="http://www.w3.org/2000/svg"
xmlns:xlink="http://www.w3.org/1999/xlink" xmlns:cml="http://www.xml-cml.org/schema" width="469.299" height="292.569" x="0" y="0" font-family="sans-serif" stroke="rgb(0,0,0)" stroke-width="1"  stroke-linecap="round">
<rect x="0%" y="0%" width="100%" height="100%" stroke-width="0" fill="rgb(255,255,255)"  />
<line x1="246.4" y1="213.7" x2="206.4" y2="213.2" stroke="rgb(0,0,0)"  stroke-width="1.0"/>
<line x1="246.4" y1="207.7" x2="206.4" y2="207.2" stroke="rgb(0,0,0)"  stroke-width="1.0"/>
<line x1="75.8" y1="181.2" x2="112.7" y2="165.4" stroke="rgb(0,0,0)"  stroke-width="1.0"/>
<line x1="51.6" y1="193.3" x2="75.8" y2="181.2" stroke="rgb(0,0,0)"  stroke-width="1.0"/>
<line x1="49.8" y1="189.5" x2="74.0" y2="177.4" stroke="rgb(0,0,0)"  stroke-width="1.0"/>
<line x1="53.5" y1="197.0" x2="77.7" y2="185.0" stroke="rgb(0,0,0)"  stroke-width="1.0"/>
<line x1="120.4" y1="242.6" x2="142.5" y2="227.1" stroke="rgb(0,0,0)"  stroke-width="1.0"/>
<line x1="123.9" y1="247.5" x2="145.9" y2="232.0" stroke="rgb(0,0,0)"  stroke-width="1.0"/>
<line x1="194.8" y1="152.5" x2="186.1" y2="177.9" stroke="rgb(0,0,0)"  stroke-width="1.0"/>
<line x1="189.1" y1="150.5" x2="180.4" y2="175.9" stroke="rgb(0,0,0)"  stroke-width="1.0"/>
<line x1="266.9" y1="176.0" x2="246.4" y2="210.7" stroke="rgb(0,0,0)"  stroke-width="1.0"/>
<line x1="112.7" y1="165.4" x2="134.7" y2="181.7" stroke="rgb(0,0,0)"  stroke-width="1.0"/>
<line x1="389.1" y1="40.0" x2="368.3" y2="73.8" stroke="rgb(0,0,0)"  stroke-width="1.0"/>
<line x1="416.2" y1="43.9" x2="389.0" y2="43.0" stroke="rgb(0,0,0)"  stroke-width="1.0"/>
<line x1="416.4" y1="37.9" x2="389.2" y2="37.0" stroke="rgb(0,0,0)"  stroke-width="1.0"/>
<line x1="353.6" y1="142.8" x2="327.1" y2="142.4" stroke="rgb(0,0,0)"  stroke-width="1.0"/>
<line x1="321.3" y1="84.7" x2="307.8" y2="107.9" stroke="rgb(0,0,0)"  stroke-width="1.0"/>
<line x1="368.3" y1="73.8" x2="340.9" y2="73.6" stroke="rgb(0,0,0)"  stroke-width="1.0"/>
<line x1="144.9" y1="202.4" x2="144.2" y2="229.6" stroke="rgb(0,0,0)"  stroke-width="1.0"/>
<line x1="144.2" y1="229.6" x2="169.9" y2="238.1" stroke="rgb(0,0,0)"  stroke-width="1.0"/>
<line x1="190.1" y1="231.9" x2="206.4" y2="210.2" stroke="rgb(0,0,0)"  stroke-width="1.0"/>
<line x1="206.4" y1="210.2" x2="183.2" y2="176.9" stroke="rgb(0,0,0)"  stroke-width="1.0"/>
<line x1="183.2" y1="176.9" x2="157.6" y2="185.3" stroke="rgb(0,0,0)"  stroke-width="1.0"/>
<line x1="327.1" y1="142.4" x2="307.8" y2="107.9" stroke="rgb(0,0,0)"  stroke-width="1.0"/>
<line x1="307.8" y1="107.9" x2="267.9" y2="107.2" stroke="rgb(0,0,0)"  stroke-width="1.0"/>
<line x1="301.6" y1="115.0" x2="273.8" y2="114.5" stroke="rgb(0,0,0)"  stroke-width="1.0"/>
<line x1="267.9" y1="107.2" x2="247.6" y2="141.2" stroke="rgb(0,0,0)"  stroke-width="1.0"/>
<line x1="247.6" y1="141.2" x2="266.9" y2="176.0" stroke="rgb(0,0,0)"  stroke-width="1.0"/>
<line x1="256.8" y1="142.9" x2="270.3" y2="167.3" stroke="rgb(0,0,0)"  stroke-width="1.0"/>
<line x1="266.9" y1="176.0" x2="306.8" y2="176.7" stroke="rgb(0,0,0)"  stroke-width="1.0"/>
<line x1="306.8" y1="176.7" x2="327.1" y2="142.4" stroke="rgb(0,0,0)"  stroke-width="1.0"/>
<line x1="303.6" y1="167.9" x2="317.8" y2="143.9" stroke="rgb(0,0,0)"  stroke-width="1.0"/>
<text x="139.205090" y="197.381449" fill="rgb(12,12,255)"  stroke="rgb(12,12,255)" stroke-width="1" font-size="16" >N</text>
<text x="176.216407" y="250.233318" fill="rgb(178,178,0)"  stroke="rgb(178,178,0)" stroke-width="1" font-size="16" >S</text>
<text x="22.000000" y="207.054256" fill="rgb(102,102,102)"  stroke="rgb(102,102,102)" stroke-width="1" font-size="16" >HC</text>
<text x="105.524550" y="260.569376" fill="rgb(255,12,12)"  stroke="rgb(255,12,12)" stroke-width="1" font-size="16" >O</text>
<text x="190.222128" y="147.197105" fill="rgb(255,12,12)"  stroke="rgb(255,12,12)" stroke-width="1" font-size="16" >O</text>
<text x="425.299016" y="49.331342" fill="rgb(102,102,102)"  stroke="rgb(102,102,102)" stroke-width="1" font-size="16" >CH</text>
<text x="449.299016" y="53.011342" fill="rgb(102,102,102)"  stroke="rgb(102,102,102)" stroke-width="1" font-size="13" >2</text>
<text x="360.609738" y="151.036213" fill="rgb(165,40,40)"  stroke="rgb(165,40,40)" stroke-width="1" font-size="16" >Br</text>
<text x="321.933033" y="81.511096" fill="rgb(255,12,12)"  stroke="rgb(255,12,12)" stroke-width="1" font-size="16" >O</text>
<text font-size="18.000000" fill ="black" font-family="sans-serif"
x="10.000000" y="20.000000" ></text>
<title> - OBDepict</title>
</svg>
