<?xml version="1.0"?>
<svg xmlns="http://www.w3.org/2000/svg"
xmlns:xlink="http://www.w3.org/1999/xlink" xmlns:cml="http://www.xml-cml.org/schema" width="460.479" height="260.039" x="0" y="0" font-family="sans-serif" stroke="rgb(0,0,0)" stroke-width="1"  stroke-linecap="round">
<rect x="0%" y="0%" width="100%" height="100%" stroke-width="0" fill="rgb(255,255,255)"  />
<line x1="374.7" y1="113.7" x2="351.3" y2="99.9" stroke="rgb(0,0,0)"  stroke-width="1.0"/>
<line x1="212.9" y1="99.9" x2="212.9" y2="60.0" stroke="rgb(0,0,0)"  stroke-width="1.0"/>
<line x1="211.4" y1="57.4" x2="246.0" y2="37.4" stroke="rgb(0,0,0)"  stroke-width="1.0"/>
<line x1="214.4" y1="62.6" x2="249.0" y2="42.6" stroke="rgb(0,0,0)"  stroke-width="1.0"/>
<line x1="247.5" y1="40.0" x2="282.1" y2="60.0" stroke="rgb(0,0,0)"  stroke-width="1.0"/>
<line x1="74.6" y1="99.9" x2="109.2" y2="120.3" stroke="rgb(0,0,0)"  stroke-width="1.0"/>
<line x1="51.3" y1="86.4" x2="74.6" y2="99.9" stroke="rgb(0,0,0)"  stroke-width="1.0"/>
<line x1="53.4" y1="82.8" x2="76.7" y2="96.2" stroke="rgb(0,0,0)"  stroke-width="1.0"/>
<line x1="49.2" y1="90.0" x2="72.5" y2="103.5" stroke="rgb(0,0,0)"  stroke-width="1.0"/>
<line x1="385.9" y1="147.2" x2="385.9" y2="133.3" stroke="rgb(0,0,0)"  stroke-width="1.0"/>
<line x1="313.7" y1="147.2" x2="313.7" y2="120.3" stroke="rgb(0,0,0)"  stroke-width="1.0"/>
<line x1="319.7" y1="147.2" x2="319.7" y2="120.3" stroke="rgb(0,0,0)"  stroke-width="1.0"/>
<line x1="410.8" y1="109.1" x2="398.6" y2="116.2" stroke="rgb(0,0,0)"  stroke-width="1.0"/>
<line x1="407.8" y1="103.9" x2="395.6" y2="111.1" stroke="rgb(0,0,0)"  stroke-width="1.0"/>
<line x1="374.6" y1="46.5" x2="351.3" y2="60.0" stroke="rgb(0,0,0)"  stroke-width="1.0"/>
<line x1="155.0" y1="173.6" x2="178.4" y2="160.2" stroke="rgb(0,0,0)"  stroke-width="1.0"/>
<line x1="155.0" y1="106.5" x2="178.4" y2="120.3" stroke="rgb(0,0,0)"  stroke-width="1.0"/>
<line x1="270.9" y1="173.6" x2="247.5" y2="160.2" stroke="rgb(0,0,0)"  stroke-width="1.0"/>
<line x1="109.2" y1="120.3" x2="132.6" y2="106.5" stroke="rgb(0,0,0)"  stroke-width="1.0"/>
<line x1="143.8" y1="207.0" x2="143.8" y2="193.1" stroke="rgb(0,0,0)"  stroke-width="1.0"/>
<line x1="351.3" y1="99.9" x2="351.3" y2="60.0" stroke="rgb(0,0,0)"  stroke-width="1.0"/>
<line x1="344.1" y1="93.9" x2="344.1" y2="66.0" stroke="rgb(0,0,0)"  stroke-width="1.0"/>
<line x1="351.3" y1="60.0" x2="328.0" y2="46.5" stroke="rgb(0,0,0)"  stroke-width="1.0"/>
<line x1="305.3" y1="46.6" x2="282.1" y2="60.0" stroke="rgb(0,0,0)"  stroke-width="1.0"/>
<line x1="307.2" y1="53.8" x2="290.9" y2="63.2" stroke="rgb(0,0,0)"  stroke-width="1.0"/>
<line x1="282.1" y1="60.0" x2="282.1" y2="86.9" stroke="rgb(0,0,0)"  stroke-width="1.0"/>
<line x1="293.3" y1="106.5" x2="316.7" y2="120.3" stroke="rgb(0,0,0)"  stroke-width="1.0"/>
<line x1="316.7" y1="120.3" x2="351.3" y2="99.9" stroke="rgb(0,0,0)"  stroke-width="1.0"/>
<line x1="212.9" y1="99.9" x2="178.4" y2="120.3" stroke="rgb(0,0,0)"  stroke-width="1.0"/>
<line x1="211.4" y1="109.1" x2="187.2" y2="123.4" stroke="rgb(0,0,0)"  stroke-width="1.0"/>
<line x1="178.4" y1="120.3" x2="178.4" y2="160.2" stroke="rgb(0,0,0)"  stroke-width="1.0"/>
<line x1="178.4" y1="160.2" x2="212.9" y2="180.1" stroke="rgb(0,0,0)"  stroke-width="1.0"/>
<line x1="187.2" y1="156.9" x2="211.3" y2="170.9" stroke="rgb(0,0,0)"  stroke-width="1.0"/>
<line x1="212.9" y1="180.1" x2="247.5" y2="160.2" stroke="rgb(0,0,0)"  stroke-width="1.0"/>
<line x1="247.5" y1="160.2" x2="247.5" y2="120.3" stroke="rgb(0,0,0)"  stroke-width="1.0"/>
<line x1="240.3" y1="154.2" x2="240.3" y2="126.3" stroke="rgb(0,0,0)"  stroke-width="1.0"/>
<line x1="247.5" y1="120.3" x2="212.9" y2="99.9" stroke="rgb(0,0,0)"  stroke-width="1.0"/>
<text x="310.713117" y="48.000000" fill="rgb(12,12,255)"  stroke="rgb(12,12,255)" stroke-width="1" font-size="16" >N</text>
<text x="390.690187" y="116.229276" fill="rgb(12,12,255)"  stroke="rgb(12,12,255)" stroke-width="1" font-size="16" >+</text>
<text x="379.890187" y="128.261276" fill="rgb(12,12,255)"  stroke="rgb(12,12,255)" stroke-width="1" font-size="16" >N</text>
<text x="264.124583" y="107.864399" fill="rgb(12,12,255)"  stroke="rgb(12,12,255)" stroke-width="1" font-size="16" >HN</text>
<text x="22.000000" y="87.912826" fill="rgb(102,102,102)"  stroke="rgb(102,102,102)" stroke-width="1" font-size="16" >HC</text>
<text x="390.690187" y="146.062103" fill="rgb(255,12,12)"  stroke="rgb(255,12,12)" stroke-width="1" font-size="16" >_</text>
<text x="379.890187" y="168.174103" fill="rgb(255,12,12)"  stroke="rgb(255,12,12)" stroke-width="1" font-size="16" >O</text>
<text x="310.713117" y="168.174103" fill="rgb(255,12,12)"  stroke="rgb(255,12,12)" stroke-width="1" font-size="16" >O</text>
<text x="414.478721" y="107.864399" fill="rgb(255,12,12)"  stroke="rgb(255,12,12)" stroke-width="1" font-size="16" >O</text>
<text x="379.890187" y="48.000000" fill="rgb(255,12,12)"  stroke="rgb(255,12,12)" stroke-width="1" font-size="16" >OH</text>
<text x="137.770444" y="188.125676" fill="rgb(255,12,12)"  stroke="rgb(255,12,12)" stroke-width="1" font-size="16" >O</text>
<text x="137.770444" y="107.864399" fill="rgb(255,12,12)"  stroke="rgb(255,12,12)" stroke-width="1" font-size="16" >O</text>
<text x="276.124583" y="188.125676" fill="rgb(165,40,40)"  stroke="rgb(165,40,40)" stroke-width="1" font-size="16" >Br</text>
<text x="139.770444" y="228.038502" fill="rgb(102,102,102)"  stroke="rgb(102,102,102)" stroke-width="1" font-size="16" >CH</text>
<text x="163.770444" y="231.718502" fill="rgb(102,102,102)"  stroke="rgb(102,102,102)" stroke-width="1" font-size="13" >3</text>
<text font-size="18.000000" fill ="black" font-family="sans-serif"
x="10.000000" y="20.000000" ></text>
<title> - OBDepict</title>
</svg>
