<?xml version="1.0"?>
<svg xmlns="http://www.w3.org/2000/svg"
xmlns:xlink="http://www.w3.org/1999/xlink" xmlns:cml="http://www.xml-cml.org/schema" width="564.849" height="300" x="0" y="0" font-family="sans-serif" stroke="rgb(0,0,0)" stroke-width="1"  stroke-linecap="round">
<rect x="0%" y="0%" width="100%" height="100%" stroke-width="0" fill="rgb(255,255,255)"  />
<line x1="74.5" y1="160.0" x2="109.3" y2="140.0" stroke="rgb(0,0,0)"  stroke-width="1.0"/>
<line x1="351.7" y1="80.0" x2="317.2" y2="100.0" stroke="rgb(0,0,0)"  stroke-width="1.0"/>
<line x1="51.3" y1="173.5" x2="74.5" y2="160.0" stroke="rgb(0,0,0)"  stroke-width="1.0"/>
<line x1="49.1" y1="169.9" x2="72.4" y2="156.4" stroke="rgb(0,0,0)"  stroke-width="1.0"/>
<line x1="53.4" y1="177.1" x2="76.6" y2="163.6" stroke="rgb(0,0,0)"  stroke-width="1.0"/>
<line x1="386.3" y1="100.0" x2="351.7" y2="80.0" stroke="rgb(0,0,0)"  stroke-width="1.0"/>
<line x1="283.9" y1="77.4" x2="318.7" y2="97.4" stroke="rgb(0,0,0)"  stroke-width="1.0"/>
<line x1="280.9" y1="82.6" x2="315.7" y2="102.6" stroke="rgb(0,0,0)"  stroke-width="1.0"/>
<line x1="354.7" y1="53.0" x2="354.7" y2="80.0" stroke="rgb(0,0,0)"  stroke-width="1.0"/>
<line x1="348.7" y1="53.0" x2="348.7" y2="80.0" stroke="rgb(0,0,0)"  stroke-width="1.0"/>
<line x1="247.9" y1="100.0" x2="282.4" y2="80.0" stroke="rgb(0,0,0)"  stroke-width="1.0"/>
<line x1="213.1" y1="187.0" x2="213.1" y2="160.0" stroke="rgb(0,0,0)"  stroke-width="1.0"/>
<line x1="155.1" y1="153.5" x2="178.6" y2="140.0" stroke="rgb(0,0,0)"  stroke-width="1.0"/>
<line x1="109.3" y1="140.0" x2="132.6" y2="153.5" stroke="rgb(0,0,0)"  stroke-width="1.0"/>
<line x1="479.0" y1="86.5" x2="455.6" y2="100.0" stroke="rgb(0,0,0)"  stroke-width="1.0"/>
<line x1="247.9" y1="220.0" x2="224.4" y2="206.5" stroke="rgb(0,0,0)"  stroke-width="1.0"/>
<line x1="513.6" y1="93.5" x2="501.6" y2="86.5" stroke="rgb(0,0,0)"  stroke-width="1.0"/>
<line x1="247.9" y1="247.0" x2="247.9" y2="220.0" stroke="rgb(0,0,0)"  stroke-width="1.0"/>
<line x1="213.1" y1="160.0" x2="178.6" y2="140.0" stroke="rgb(0,0,0)"  stroke-width="1.0"/>
<line x1="211.5" y1="150.8" x2="187.4" y2="136.8" stroke="rgb(0,0,0)"  stroke-width="1.0"/>
<line x1="178.6" y1="140.0" x2="178.6" y2="100.0" stroke="rgb(0,0,0)"  stroke-width="1.0"/>
<line x1="178.6" y1="100.0" x2="213.1" y2="80.0" stroke="rgb(0,0,0)"  stroke-width="1.0"/>
<line x1="187.4" y1="103.2" x2="211.5" y2="89.2" stroke="rgb(0,0,0)"  stroke-width="1.0"/>
<line x1="213.1" y1="80.0" x2="247.9" y2="100.0" stroke="rgb(0,0,0)"  stroke-width="1.0"/>
<line x1="247.9" y1="100.0" x2="247.9" y2="140.0" stroke="rgb(0,0,0)"  stroke-width="1.0"/>
<line x1="240.7" y1="106.0" x2="240.7" y2="134.0" stroke="rgb(0,0,0)"  stroke-width="1.0"/>
<line x1="247.9" y1="140.0" x2="213.1" y2="160.0" stroke="rgb(0,0,0)"  stroke-width="1.0"/>
<line x1="386.3" y1="100.0" x2="421.0" y2="80.0" stroke="rgb(0,0,0)"  stroke-width="1.0"/>
<line x1="395.1" y1="103.2" x2="419.4" y2="89.2" stroke="rgb(0,0,0)"  stroke-width="1.0"/>
<line x1="421.0" y1="80.0" x2="455.6" y2="100.0" stroke="rgb(0,0,0)"  stroke-width="1.0"/>
<line x1="455.6" y1="100.0" x2="455.6" y2="140.0" stroke="rgb(0,0,0)"  stroke-width="1.0"/>
<line x1="448.4" y1="106.0" x2="448.4" y2="134.0" stroke="rgb(0,0,0)"  stroke-width="1.0"/>
<line x1="455.6" y1="140.0" x2="421.0" y2="160.0" stroke="rgb(0,0,0)"  stroke-width="1.0"/>
<line x1="421.0" y1="160.0" x2="386.3" y2="140.0" stroke="rgb(0,0,0)"  stroke-width="1.0"/>
<line x1="419.4" y1="150.8" x2="395.1" y2="136.8" stroke="rgb(0,0,0)"  stroke-width="1.0"/>
<line x1="386.3" y1="140.0" x2="386.3" y2="100.0" stroke="rgb(0,0,0)"  stroke-width="1.0"/>
<text x="22.000000" y="188.000192" fill="rgb(102,102,102)"  stroke="rgb(102,102,102)" stroke-width="1" font-size="16" >HC</text>
<text x="345.719214" y="48.000000" fill="rgb(255,12,12)"  stroke="rgb(255,12,12)" stroke-width="1" font-size="16" >O</text>
<text x="207.134782" y="208.000219" fill="rgb(255,12,12)"  stroke="rgb(255,12,12)" stroke-width="1" font-size="16" >O</text>
<text x="137.840142" y="168.000164" fill="rgb(255,12,12)"  stroke="rgb(255,12,12)" stroke-width="1" font-size="16" >O</text>
<text x="484.303646" y="88.000055" fill="rgb(255,12,12)"  stroke="rgb(255,12,12)" stroke-width="1" font-size="16" >O</text>
<text x="520.849148" y="108.000082" fill="rgb(102,102,102)"  stroke="rgb(102,102,102)" stroke-width="1" font-size="16" >CH</text>
<text x="544.849148" y="111.680082" fill="rgb(102,102,102)"  stroke="rgb(102,102,102)" stroke-width="1" font-size="13" >3</text>
<text x="243.879072" y="268.000301" fill="rgb(102,102,102)"  stroke="rgb(102,102,102)" stroke-width="1" font-size="16" >CH</text>
<text x="267.879072" y="271.680301" fill="rgb(102,102,102)"  stroke="rgb(102,102,102)" stroke-width="1" font-size="13" >3</text>
<text font-size="18.000000" fill ="black" font-family="sans-serif"
x="10.000000" y="20.000000" ></text>
<title> - OBDepict</title>
</svg>
