<?xml version="1.0"?>
<svg xmlns="http://www.w3.org/2000/svg"
xmlns:xlink="http://www.w3.org/1999/xlink" xmlns:cml="http://www.xml-cml.org/schema" width="510.785" height="314.279" x="0" y="0" font-family="sans-serif" stroke="rgb(0,0,0)" stroke-width="1"  stroke-linecap="round">
<rect x="0%" y="0%" width="100%" height="100%" stroke-width="0" fill="rgb(255,255,255)"  />
<line x1="239.8" y1="141.6" x2="266.8" y2="141.9" stroke="rgb(0,0,0)"  stroke-width="1.0"/>
<line x1="239.7" y1="147.6" x2="266.7" y2="147.9" stroke="rgb(0,0,0)"  stroke-width="1.0"/>
<line x1="286.2" y1="133.8" x2="299.7" y2="110.5" stroke="rgb(0,0,0)"  stroke-width="1.0"/>
<line x1="85.2" y1="110.9" x2="109.1" y2="124.6" stroke="rgb(0,0,0)"  stroke-width="1.0"/>
<line x1="299.7" y1="110.5" x2="339.7" y2="110.5" stroke="rgb(0,0,0)"  stroke-width="1.0"/>
<line x1="201.8" y1="244.6" x2="228.4" y2="214.9" stroke="rgb(0,0,0)"  stroke-width="1.0"/>
<line x1="183.8" y1="264.6" x2="201.8" y2="244.6" stroke="rgb(0,0,0)"  stroke-width="1.0"/>
<line x1="180.7" y1="261.8" x2="198.6" y2="241.8" stroke="rgb(0,0,0)"  stroke-width="1.0"/>
<line x1="186.9" y1="267.4" x2="204.9" y2="247.4" stroke="rgb(0,0,0)"  stroke-width="1.0"/>
<line x1="57.0" y1="125.9" x2="64.5" y2="113.9" stroke="rgb(0,0,0)"  stroke-width="1.0"/>
<line x1="62.1" y1="129.1" x2="69.6" y2="117.1" stroke="rgb(0,0,0)"  stroke-width="1.0"/>
<line x1="90.8" y1="83.3" x2="83.4" y2="95.0" stroke="rgb(0,0,0)"  stroke-width="1.0"/>
<line x1="85.7" y1="80.1" x2="78.3" y2="91.8" stroke="rgb(0,0,0)"  stroke-width="1.0"/>
<line x1="288.8" y1="85.7" x2="302.3" y2="109.0" stroke="rgb(0,0,0)"  stroke-width="1.0"/>
<line x1="283.6" y1="88.7" x2="297.1" y2="112.0" stroke="rgb(0,0,0)"  stroke-width="1.0"/>
<line x1="51.1" y1="90.3" x2="62.9" y2="97.6" stroke="rgb(0,0,0)"  stroke-width="1.0"/>
<line x1="355.3" y1="52.4" x2="363.3" y2="78.0" stroke="rgb(0,0,0)"  stroke-width="1.0"/>
<line x1="228.4" y1="214.9" x2="220.2" y2="189.1" stroke="rgb(0,0,0)"  stroke-width="1.0"/>
<line x1="339.7" y1="110.5" x2="363.3" y2="78.0" stroke="rgb(0,0,0)"  stroke-width="1.0"/>
<line x1="349.1" y1="109.9" x2="365.6" y2="87.1" stroke="rgb(0,0,0)"  stroke-width="1.0"/>
<line x1="363.3" y1="78.0" x2="401.7" y2="90.7" stroke="rgb(0,0,0)"  stroke-width="1.0"/>
<line x1="401.7" y1="90.7" x2="400.9" y2="130.7" stroke="rgb(0,0,0)"  stroke-width="1.0"/>
<line x1="394.4" y1="96.5" x2="393.8" y2="124.5" stroke="rgb(0,0,0)"  stroke-width="1.0"/>
<line x1="400.9" y1="130.7" x2="375.3" y2="138.7" stroke="rgb(0,0,0)"  stroke-width="1.0"/>
<line x1="355.3" y1="132.1" x2="339.7" y2="110.5" stroke="rgb(0,0,0)"  stroke-width="1.0"/>
<line x1="239.7" y1="144.6" x2="223.9" y2="122.8" stroke="rgb(0,0,0)"  stroke-width="1.0"/>
<line x1="203.9" y1="116.3" x2="178.1" y2="124.6" stroke="rgb(0,0,0)"  stroke-width="1.0"/>
<line x1="178.1" y1="124.6" x2="178.1" y2="164.6" stroke="rgb(0,0,0)"  stroke-width="1.0"/>
<line x1="185.3" y1="130.6" x2="185.3" y2="158.6" stroke="rgb(0,0,0)"  stroke-width="1.0"/>
<line x1="178.1" y1="164.6" x2="203.9" y2="172.8" stroke="rgb(0,0,0)"  stroke-width="1.0"/>
<line x1="224.0" y1="166.2" x2="239.7" y2="144.6" stroke="rgb(0,0,0)"  stroke-width="1.0"/>
<line x1="436.9" y1="71.3" x2="401.7" y2="90.7" stroke="rgb(0,0,0)"  stroke-width="1.0"/>
<line x1="400.9" y1="130.7" x2="435.4" y2="151.3" stroke="rgb(0,0,0)"  stroke-width="1.0"/>
<line x1="435.4" y1="151.3" x2="470.8" y2="131.9" stroke="rgb(0,0,0)"  stroke-width="1.0"/>
<line x1="437.2" y1="142.1" x2="462.1" y2="128.5" stroke="rgb(0,0,0)"  stroke-width="1.0"/>
<line x1="470.8" y1="131.9" x2="470.8" y2="91.3" stroke="rgb(0,0,0)"  stroke-width="1.0"/>
<line x1="470.8" y1="91.3" x2="436.9" y2="71.3" stroke="rgb(0,0,0)"  stroke-width="1.0"/>
<line x1="462.0" y1="94.5" x2="438.4" y2="80.6" stroke="rgb(0,0,0)"  stroke-width="1.0"/>
<line x1="109.1" y1="124.6" x2="143.6" y2="104.6" stroke="rgb(0,0,0)"  stroke-width="1.0"/>
<line x1="117.9" y1="127.9" x2="142.0" y2="113.9" stroke="rgb(0,0,0)"  stroke-width="1.0"/>
<line x1="143.6" y1="104.6" x2="178.1" y2="124.6" stroke="rgb(0,0,0)"  stroke-width="1.0"/>
<line x1="178.1" y1="164.6" x2="143.6" y2="184.6" stroke="rgb(0,0,0)"  stroke-width="1.0"/>
<line x1="143.6" y1="184.6" x2="109.1" y2="164.6" stroke="rgb(0,0,0)"  stroke-width="1.0"/>
<line x1="142.0" y1="175.4" x2="117.9" y2="161.4" stroke="rgb(0,0,0)"  stroke-width="1.0"/>
<line x1="109.1" y1="164.6" x2="109.1" y2="124.6" stroke="rgb(0,0,0)"  stroke-width="1.0"/>
<text x="273.727325" y="153.021876" fill="rgb(12,12,255)"  stroke="rgb(12,12,255)" stroke-width="1" font-size="16" >N</text>
<text x="67.929623" y="112.427506" fill="rgb(178,178,0)"  stroke="rgb(178,178,0)" stroke-width="1" font-size="16" >S</text>
<text x="356.937301" y="150.598332" fill="rgb(178,178,0)"  stroke="rgb(178,178,0)" stroke-width="1" font-size="16" >S</text>
<text x="210.312860" y="184.731532" fill="rgb(12,12,255)"  stroke="rgb(12,12,255)" stroke-width="1" font-size="16" >N</text>
<text x="210.312860" y="120.304026" fill="rgb(178,178,0)"  stroke="rgb(178,178,0)" stroke-width="1" font-size="16" >S</text>
<text x="157.112604" y="282.279197" fill="rgb(102,102,102)"  stroke="rgb(102,102,102)" stroke-width="1" font-size="16" >HC</text>
<text x="46.723608" y="146.560707" fill="rgb(255,12,12)"  stroke="rgb(255,12,12)" stroke-width="1" font-size="16" >O</text>
<text x="89.135637" y="78.701461" fill="rgb(255,12,12)"  stroke="rgb(255,12,12)" stroke-width="1" font-size="16" >O</text>
<text x="273.727325" y="83.950859" fill="rgb(255,12,12)"  stroke="rgb(255,12,12)" stroke-width="1" font-size="16" >O</text>
<text x="14.000000" y="91.425070" fill="rgb(12,12,255)"  stroke="rgb(12,12,255)" stroke-width="1" font-size="16" >H</text>
<text x="26.000000" y="95.105070" fill="rgb(12,12,255)"  stroke="rgb(12,12,255)" stroke-width="1" font-size="13" >2</text>
<text x="32.500000" y="91.425070" fill="rgb(12,12,255)"  stroke="rgb(12,12,255)" stroke-width="1" font-size="16" >N</text>
<text x="333.425465" y="48.000000" fill="rgb(30,239,30)"  stroke="rgb(30,239,30)" stroke-width="1" font-size="16" >Cl</text>
<text font-size="18.000000" fill ="black" font-family="sans-serif"
x="10.000000" y="20.000000" ></text>
<title> - OBDepict</title>
</svg>
