<?xml version="1.0"?>
<svg xmlns="http://www.w3.org/2000/svg"
xmlns:xlink="http://www.w3.org/1999/xlink" xmlns:cml="http://www.xml-cml.org/schema" width="411.876" height="446.417" x="0" y="0" font-family="sans-serif" stroke="rgb(0,0,0)" stroke-width="1"  stroke-linecap="round">
<rect x="0%" y="0%" width="100%" height="100%" stroke-width="0" fill="rgb(255,255,255)"  />
<line x1="188.9" y1="209.6" x2="165.6" y2="223.4" stroke="rgb(0,0,0)"  stroke-width="1.0"/>
<line x1="185.8" y1="204.4" x2="162.5" y2="218.2" stroke="rgb(0,0,0)"  stroke-width="1.0"/>
<line x1="326.1" y1="86.5" x2="302.8" y2="100.0" stroke="rgb(0,0,0)"  stroke-width="1.0"/>
<line x1="198.6" y1="160.2" x2="198.6" y2="187.4" stroke="rgb(0,0,0)"  stroke-width="1.0"/>
<line x1="180.2" y1="327.4" x2="189.3" y2="288.3" stroke="rgb(0,0,0)"  stroke-width="1.0"/>
<line x1="174.2" y1="354.1" x2="180.2" y2="327.4" stroke="rgb(0,0,0)"  stroke-width="1.0"/>
<line x1="170.1" y1="353.2" x2="176.1" y2="326.5" stroke="rgb(0,0,0)"  stroke-width="1.0"/>
<line x1="178.3" y1="355.1" x2="184.3" y2="328.4" stroke="rgb(0,0,0)"  stroke-width="1.0"/>
<line x1="360.6" y1="93.5" x2="348.6" y2="86.5" stroke="rgb(0,0,0)"  stroke-width="1.0"/>
<line x1="233.1" y1="140.2" x2="198.6" y2="160.2" stroke="rgb(0,0,0)"  stroke-width="1.0"/>
<line x1="340.2" y1="53.0" x2="340.3" y2="67.0" stroke="rgb(0,0,0)"  stroke-width="1.0"/>
<line x1="334.2" y1="53.0" x2="334.3" y2="67.0" stroke="rgb(0,0,0)"  stroke-width="1.0"/>
<line x1="176.2" y1="144.3" x2="200.0" y2="157.6" stroke="rgb(0,0,0)"  stroke-width="1.0"/>
<line x1="173.3" y1="149.5" x2="197.1" y2="162.8" stroke="rgb(0,0,0)"  stroke-width="1.0"/>
<line x1="189.3" y1="288.3" x2="168.7" y2="269.2" stroke="rgb(0,0,0)"  stroke-width="1.0"/>
<line x1="112.5" y1="326.3" x2="99.6" y2="302.2" stroke="rgb(0,0,0)"  stroke-width="1.0"/>
<line x1="98.0" y1="371.9" x2="111.9" y2="348.9" stroke="rgb(0,0,0)"  stroke-width="1.0"/>
<line x1="110.4" y1="395.0" x2="98.0" y2="371.9" stroke="rgb(0,0,0)"  stroke-width="1.0"/>
<line x1="164.0" y1="220.8" x2="140.0" y2="209.5" stroke="rgb(0,0,0)"  stroke-width="1.0"/>
<line x1="119.3" y1="213.4" x2="100.4" y2="233.1" stroke="rgb(0,0,0)"  stroke-width="1.0"/>
<line x1="100.4" y1="233.1" x2="120.2" y2="268.1" stroke="rgb(0,0,0)"  stroke-width="1.0"/>
<line x1="109.6" y1="234.8" x2="123.5" y2="259.3" stroke="rgb(0,0,0)"  stroke-width="1.0"/>
<line x1="120.2" y1="268.1" x2="146.4" y2="262.9" stroke="rgb(0,0,0)"  stroke-width="1.0"/>
<line x1="160.8" y1="247.5" x2="164.0" y2="220.8" stroke="rgb(0,0,0)"  stroke-width="1.0"/>
<line x1="233.1" y1="140.2" x2="268.1" y2="160.2" stroke="rgb(0,0,0)"  stroke-width="1.0"/>
<line x1="241.9" y1="136.9" x2="266.4" y2="151.0" stroke="rgb(0,0,0)"  stroke-width="1.0"/>
<line x1="268.1" y1="160.2" x2="302.8" y2="140.2" stroke="rgb(0,0,0)"  stroke-width="1.0"/>
<line x1="302.8" y1="140.2" x2="302.8" y2="100.0" stroke="rgb(0,0,0)"  stroke-width="1.0"/>
<line x1="295.6" y1="134.2" x2="295.6" y2="106.0" stroke="rgb(0,0,0)"  stroke-width="1.0"/>
<line x1="302.8" y1="100.0" x2="268.1" y2="80.6" stroke="rgb(0,0,0)"  stroke-width="1.0"/>
<line x1="268.1" y1="80.6" x2="233.5" y2="100.6" stroke="rgb(0,0,0)"  stroke-width="1.0"/>
<line x1="266.5" y1="89.8" x2="242.3" y2="103.8" stroke="rgb(0,0,0)"  stroke-width="1.0"/>
<line x1="233.5" y1="100.6" x2="233.1" y2="140.2" stroke="rgb(0,0,0)"  stroke-width="1.0"/>
<line x1="99.6" y1="302.2" x2="60.0" y2="301.6" stroke="rgb(0,0,0)"  stroke-width="1.0"/>
<line x1="93.7" y1="294.9" x2="66.1" y2="294.5" stroke="rgb(0,0,0)"  stroke-width="1.0"/>
<line x1="60.0" y1="301.6" x2="40.0" y2="266.4" stroke="rgb(0,0,0)"  stroke-width="1.0"/>
<line x1="40.0" y1="266.4" x2="61.2" y2="232.3" stroke="rgb(0,0,0)"  stroke-width="1.0"/>
<line x1="49.3" y1="265.1" x2="64.2" y2="241.2" stroke="rgb(0,0,0)"  stroke-width="1.0"/>
<line x1="61.2" y1="232.3" x2="100.4" y2="233.1" stroke="rgb(0,0,0)"  stroke-width="1.0"/>
<line x1="120.2" y1="268.1" x2="99.6" y2="302.2" stroke="rgb(0,0,0)"  stroke-width="1.0"/>
<text x="192.567082" y="208.385011" fill="rgb(12,12,255)"  stroke="rgb(12,12,255)" stroke-width="1" font-size="16" >N</text>
<text x="153.178610" y="268.376684" fill="rgb(12,12,255)"  stroke="rgb(12,12,255)" stroke-width="1" font-size="16" >N</text>
<text x="122.273808" y="212.020870" fill="rgb(178,178,0)"  stroke="rgb(178,178,0)" stroke-width="1" font-size="16" >S</text>
<text x="342.135699" y="75.962449" fill="rgb(12,12,255)"  stroke="rgb(12,12,255)" stroke-width="1" font-size="16" >+</text>
<text x="331.335699" y="87.994449" fill="rgb(12,12,255)"  stroke="rgb(12,12,255)" stroke-width="1" font-size="16" >N</text>
<text x="153.298139" y="374.824940" fill="rgb(102,102,102)"  stroke="rgb(102,102,102)" stroke-width="1" font-size="16" >HC</text>
<text x="376.676360" y="85.879673" fill="rgb(255,12,12)"  stroke="rgb(255,12,12)" stroke-width="1" font-size="16" >_</text>
<text x="365.876360" y="107.991673" fill="rgb(255,12,12)"  stroke="rgb(255,12,12)" stroke-width="1" font-size="16" >O</text>
<text x="331.132091" y="48.000000" fill="rgb(255,12,12)"  stroke="rgb(255,12,12)" stroke-width="1" font-size="16" >O</text>
<text x="157.420445" y="148.592098" fill="rgb(255,12,12)"  stroke="rgb(255,12,12)" stroke-width="1" font-size="16" >O</text>
<text x="112.578184" y="345.738068" fill="rgb(255,12,12)"  stroke="rgb(255,12,12)" stroke-width="1" font-size="16" >O</text>
<text x="112.556647" y="414.417020" fill="rgb(102,102,102)"  stroke="rgb(102,102,102)" stroke-width="1" font-size="16" >CH</text>
<text x="136.556647" y="418.097020" fill="rgb(102,102,102)"  stroke="rgb(102,102,102)" stroke-width="1" font-size="13" >3</text>
<text font-size="18.000000" fill ="black" font-family="sans-serif"
x="10.000000" y="20.000000" ></text>
<title> - OBDepict</title>
</svg>
