<?xml version="1.0"?>
<svg xmlns="http://www.w3.org/2000/svg"
xmlns:xlink="http://www.w3.org/1999/xlink" xmlns:cml="http://www.xml-cml.org/schema" width="356.999" height="280.417" x="0" y="0" font-family="sans-serif" stroke="rgb(0,0,0)" stroke-width="1"  stroke-linecap="round">
<rect x="0%" y="0%" width="100%" height="100%" stroke-width="0" fill="rgb(255,255,255)"  />
<line x1="247.8" y1="160.2" x2="247.8" y2="120.1" stroke="rgb(0,0,0)"  stroke-width="1.0"/>
<line x1="175.6" y1="159.8" x2="175.6" y2="132.8" stroke="rgb(0,0,0)"  stroke-width="1.0"/>
<line x1="181.6" y1="159.8" x2="181.6" y2="132.8" stroke="rgb(0,0,0)"  stroke-width="1.0"/>
<line x1="282.3" y1="100.3" x2="305.7" y2="113.8" stroke="rgb(0,0,0)"  stroke-width="1.0"/>
<line x1="283.8" y1="217.4" x2="307.2" y2="230.8" stroke="rgb(0,0,0)"  stroke-width="1.0"/>
<line x1="280.8" y1="222.6" x2="304.2" y2="236.0" stroke="rgb(0,0,0)"  stroke-width="1.0"/>
<line x1="144.2" y1="220.3" x2="120.5" y2="233.9" stroke="rgb(0,0,0)"  stroke-width="1.0"/>
<line x1="282.3" y1="60.1" x2="305.8" y2="46.5" stroke="rgb(0,0,0)"  stroke-width="1.0"/>
<line x1="98.0" y1="233.9" x2="74.7" y2="220.3" stroke="rgb(0,0,0)"  stroke-width="1.0"/>
<line x1="74.7" y1="220.3" x2="74.7" y2="180.3" stroke="rgb(0,0,0)"  stroke-width="1.0"/>
<line x1="74.7" y1="180.3" x2="51.2" y2="166.7" stroke="rgb(0,0,0)"  stroke-width="1.0"/>
<line x1="72.6" y1="183.9" x2="49.1" y2="170.3" stroke="rgb(0,0,0)"  stroke-width="1.0"/>
<line x1="76.8" y1="176.6" x2="53.4" y2="163.0" stroke="rgb(0,0,0)"  stroke-width="1.0"/>
<line x1="213.1" y1="180.3" x2="213.1" y2="220.0" stroke="rgb(0,0,0)"  stroke-width="1.0"/>
<line x1="220.3" y1="186.3" x2="220.3" y2="214.0" stroke="rgb(0,0,0)"  stroke-width="1.0"/>
<line x1="213.1" y1="220.0" x2="236.5" y2="233.4" stroke="rgb(0,0,0)"  stroke-width="1.0"/>
<line x1="259.0" y1="233.4" x2="282.3" y2="220.0" stroke="rgb(0,0,0)"  stroke-width="1.0"/>
<line x1="282.3" y1="220.0" x2="282.3" y2="179.9" stroke="rgb(0,0,0)"  stroke-width="1.0"/>
<line x1="282.3" y1="179.9" x2="247.8" y2="160.2" stroke="rgb(0,0,0)"  stroke-width="1.0"/>
<line x1="247.8" y1="160.2" x2="213.1" y2="180.3" stroke="rgb(0,0,0)"  stroke-width="1.0"/>
<line x1="213.1" y1="180.3" x2="178.6" y2="159.8" stroke="rgb(0,0,0)"  stroke-width="1.0"/>
<line x1="178.6" y1="159.8" x2="155.4" y2="173.6" stroke="rgb(0,0,0)"  stroke-width="1.0"/>
<line x1="144.2" y1="193.3" x2="144.2" y2="220.3" stroke="rgb(0,0,0)"  stroke-width="1.0"/>
<line x1="144.2" y1="220.3" x2="167.2" y2="233.4" stroke="rgb(0,0,0)"  stroke-width="1.0"/>
<line x1="153.0" y1="217.0" x2="169.0" y2="226.2" stroke="rgb(0,0,0)"  stroke-width="1.0"/>
<line x1="189.8" y1="233.4" x2="213.1" y2="220.0" stroke="rgb(0,0,0)"  stroke-width="1.0"/>
<line x1="247.8" y1="120.1" x2="213.1" y2="100.3" stroke="rgb(0,0,0)"  stroke-width="1.0"/>
<line x1="213.1" y1="100.3" x2="212.6" y2="60.6" stroke="rgb(0,0,0)"  stroke-width="1.0"/>
<line x1="220.2" y1="94.2" x2="219.9" y2="66.5" stroke="rgb(0,0,0)"  stroke-width="1.0"/>
<line x1="212.6" y1="60.6" x2="247.6" y2="40.2" stroke="rgb(0,0,0)"  stroke-width="1.0"/>
<line x1="247.6" y1="40.2" x2="282.3" y2="60.1" stroke="rgb(0,0,0)"  stroke-width="1.0"/>
<line x1="249.2" y1="49.4" x2="273.5" y2="63.4" stroke="rgb(0,0,0)"  stroke-width="1.0"/>
<line x1="282.3" y1="60.1" x2="282.3" y2="100.3" stroke="rgb(0,0,0)"  stroke-width="1.0"/>
<line x1="282.3" y1="100.3" x2="247.8" y2="120.1" stroke="rgb(0,0,0)"  stroke-width="1.0"/>
<line x1="273.5" y1="97.1" x2="249.4" y2="110.9" stroke="rgb(0,0,0)"  stroke-width="1.0"/>
<text x="172.582194" y="247.917000" fill="rgb(12,12,255)"  stroke="rgb(12,12,255)" stroke-width="1" font-size="16" >N</text>
<text x="241.785913" y="247.917000" fill="rgb(12,12,255)"  stroke="rgb(12,12,255)" stroke-width="1" font-size="16" >N</text>
<text x="241.785913" y="263.917000" fill="rgb(12,12,255)"  stroke="rgb(12,12,255)" stroke-width="1" font-size="16" >H</text>
<text x="126.227907" y="188.261802" fill="rgb(12,12,255)"  stroke="rgb(12,12,255)" stroke-width="1" font-size="16" >HN</text>
<text x="172.582194" y="127.761946" fill="rgb(255,12,12)"  stroke="rgb(255,12,12)" stroke-width="1" font-size="16" >O</text>
<text x="310.999341" y="128.266799" fill="rgb(30,239,30)"  stroke="rgb(30,239,30)" stroke-width="1" font-size="16" >Cl</text>
<text x="310.999341" y="247.917000" fill="rgb(255,12,12)"  stroke="rgb(255,12,12)" stroke-width="1" font-size="16" >O</text>
<text x="103.203719" y="248.416999" fill="rgb(178,178,0)"  stroke="rgb(178,178,0)" stroke-width="1" font-size="16" >S</text>
<text x="310.999341" y="48.000000" fill="rgb(30,239,30)"  stroke="rgb(30,239,30)" stroke-width="1" font-size="16" >Cl</text>
<text x="22.000000" y="168.150199" fill="rgb(102,102,102)"  stroke="rgb(102,102,102)" stroke-width="1" font-size="16" >HC</text>
<text font-size="18.000000" fill ="black" font-family="sans-serif"
x="10.000000" y="20.000000" ></text>
<title> - OBDepict</title>
</svg>
