<?xml version="1.0"?>
<svg xmlns="http://www.w3.org/2000/svg"
xmlns:xlink="http://www.w3.org/1999/xlink" xmlns:cml="http://www.xml-cml.org/schema" width="350.386" height="160.113" x="0" y="0" font-family="sans-serif" stroke="rgb(0,0,0)" stroke-width="1"  stroke-linecap="round">
<rect x="0%" y="0%" width="100%" height="100%" stroke-width="0" fill="rgb(255,255,255)"  />
<line x1="170.7" y1="79.9" x2="197.6" y2="79.9" stroke="rgb(0,0,0)"  stroke-width="1.0"/>
<line x1="217.1" y1="68.6" x2="230.6" y2="45.0" stroke="rgb(0,0,0)"  stroke-width="1.0"/>
<line x1="230.6" y1="45.0" x2="270.5" y2="45.0" stroke="rgb(0,0,0)"  stroke-width="1.0"/>
<line x1="270.5" y1="45.0" x2="297.4" y2="45.0" stroke="rgb(0,0,0)"  stroke-width="1.0"/>
<line x1="270.5" y1="40.8" x2="297.4" y2="40.8" stroke="rgb(0,0,0)"  stroke-width="1.0"/>
<line x1="270.5" y1="49.2" x2="297.4" y2="49.2" stroke="rgb(0,0,0)"  stroke-width="1.0"/>
<line x1="109.4" y1="60.0" x2="109.4" y2="99.9" stroke="rgb(0,0,0)"  stroke-width="1.0"/>
<line x1="109.4" y1="99.9" x2="135.1" y2="108.3" stroke="rgb(0,0,0)"  stroke-width="1.0"/>
<line x1="155.1" y1="101.7" x2="170.7" y2="79.9" stroke="rgb(0,0,0)"  stroke-width="1.0"/>
<line x1="170.7" y1="79.9" x2="154.5" y2="58.0" stroke="rgb(0,0,0)"  stroke-width="1.0"/>
<line x1="161.3" y1="79.3" x2="149.8" y2="63.8" stroke="rgb(0,0,0)"  stroke-width="1.0"/>
<line x1="134.2" y1="51.4" x2="109.4" y2="60.0" stroke="rgb(0,0,0)"  stroke-width="1.0"/>
<line x1="109.4" y1="60.0" x2="74.5" y2="40.0" stroke="rgb(0,0,0)"  stroke-width="1.0"/>
<line x1="100.6" y1="63.3" x2="76.2" y2="49.2" stroke="rgb(0,0,0)"  stroke-width="1.0"/>
<line x1="74.5" y1="40.0" x2="40.0" y2="60.0" stroke="rgb(0,0,0)"  stroke-width="1.0"/>
<line x1="40.0" y1="60.0" x2="40.0" y2="100.1" stroke="rgb(0,0,0)"  stroke-width="1.0"/>
<line x1="47.2" y1="66.0" x2="47.2" y2="94.1" stroke="rgb(0,0,0)"  stroke-width="1.0"/>
<line x1="40.0" y1="100.1" x2="74.5" y2="120.1" stroke="rgb(0,0,0)"  stroke-width="1.0"/>
<line x1="74.5" y1="120.1" x2="109.4" y2="99.9" stroke="rgb(0,0,0)"  stroke-width="1.0"/>
<line x1="76.1" y1="110.9" x2="100.6" y2="96.7" stroke="rgb(0,0,0)"  stroke-width="1.0"/>
<text x="140.485441" y="55.173899" fill="rgb(12,12,255)"  stroke="rgb(12,12,255)" stroke-width="1" font-size="16" >N</text>
<text x="141.487464" y="120.266622" fill="rgb(178,178,0)"  stroke="rgb(178,178,0)" stroke-width="1" font-size="16" >S</text>
<text x="204.580983" y="87.887264" fill="rgb(178,178,0)"  stroke="rgb(178,178,0)" stroke-width="1" font-size="16" >S</text>
<text x="304.386276" y="53.000430" fill="rgb(102,102,102)"  stroke="rgb(102,102,102)" stroke-width="1" font-size="16" >CH</text>
<text font-size="18.000000" fill ="black" font-family="sans-serif"
x="10.000000" y="20.000000" ></text>
<title> - OBDepict</title>
</svg>
