<?xml version="1.0"?>
<svg xmlns="http://www.w3.org/2000/svg"
xmlns:xlink="http://www.w3.org/1999/xlink" xmlns:cml="http://www.xml-cml.org/schema" width="440.187" height="406.269" x="0" y="0" font-family="sans-serif" stroke="rgb(0,0,0)" stroke-width="1"  stroke-linecap="round">
<rect x="0%" y="0%" width="100%" height="100%" stroke-width="0" fill="rgb(255,255,255)"  />
<line x1="188.8" y1="169.5" x2="165.5" y2="183.3" stroke="rgb(0,0,0)"  stroke-width="1.0"/>
<line x1="185.8" y1="164.4" x2="162.4" y2="178.1" stroke="rgb(0,0,0)"  stroke-width="1.0"/>
<line x1="326.0" y1="113.8" x2="302.7" y2="100.2" stroke="rgb(0,0,0)"  stroke-width="1.0"/>
<line x1="198.5" y1="120.2" x2="198.5" y2="147.3" stroke="rgb(0,0,0)"  stroke-width="1.0"/>
<line x1="233.0" y1="100.2" x2="198.5" y2="120.2" stroke="rgb(0,0,0)"  stroke-width="1.0"/>
<line x1="180.1" y1="287.3" x2="189.2" y2="248.2" stroke="rgb(0,0,0)"  stroke-width="1.0"/>
<line x1="174.1" y1="314.0" x2="180.1" y2="287.3" stroke="rgb(0,0,0)"  stroke-width="1.0"/>
<line x1="170.0" y1="313.1" x2="176.0" y2="286.4" stroke="rgb(0,0,0)"  stroke-width="1.0"/>
<line x1="178.2" y1="314.9" x2="184.2" y2="288.3" stroke="rgb(0,0,0)"  stroke-width="1.0"/>
<line x1="176.2" y1="104.3" x2="200.0" y2="117.5" stroke="rgb(0,0,0)"  stroke-width="1.0"/>
<line x1="173.3" y1="109.5" x2="197.0" y2="122.8" stroke="rgb(0,0,0)"  stroke-width="1.0"/>
<line x1="316.9" y1="174.7" x2="337.5" y2="158.0" stroke="rgb(0,0,0)"  stroke-width="1.0"/>
<line x1="320.7" y1="179.3" x2="341.3" y2="162.7" stroke="rgb(0,0,0)"  stroke-width="1.0"/>
<line x1="384.5" y1="80.8" x2="377.4" y2="106.8" stroke="rgb(0,0,0)"  stroke-width="1.0"/>
<line x1="378.7" y1="79.2" x2="371.7" y2="105.2" stroke="rgb(0,0,0)"  stroke-width="1.0"/>
<line x1="189.2" y1="248.2" x2="168.7" y2="229.1" stroke="rgb(0,0,0)"  stroke-width="1.0"/>
<line x1="112.4" y1="286.2" x2="99.6" y2="262.1" stroke="rgb(0,0,0)"  stroke-width="1.0"/>
<line x1="97.9" y1="331.7" x2="111.8" y2="308.8" stroke="rgb(0,0,0)"  stroke-width="1.0"/>
<line x1="110.4" y1="354.8" x2="97.9" y2="331.7" stroke="rgb(0,0,0)"  stroke-width="1.0"/>
<line x1="164.0" y1="180.7" x2="140.0" y2="169.5" stroke="rgb(0,0,0)"  stroke-width="1.0"/>
<line x1="119.2" y1="173.4" x2="100.4" y2="193.0" stroke="rgb(0,0,0)"  stroke-width="1.0"/>
<line x1="100.4" y1="193.0" x2="120.2" y2="228.0" stroke="rgb(0,0,0)"  stroke-width="1.0"/>
<line x1="109.6" y1="194.7" x2="123.5" y2="219.2" stroke="rgb(0,0,0)"  stroke-width="1.0"/>
<line x1="120.2" y1="228.0" x2="146.4" y2="222.8" stroke="rgb(0,0,0)"  stroke-width="1.0"/>
<line x1="160.7" y1="207.4" x2="164.0" y2="180.7" stroke="rgb(0,0,0)"  stroke-width="1.0"/>
<line x1="337.9" y1="133.3" x2="339.4" y2="160.3" stroke="rgb(0,0,0)"  stroke-width="1.0"/>
<line x1="339.4" y1="160.3" x2="379.0" y2="170.0" stroke="rgb(0,0,0)"  stroke-width="1.0"/>
<line x1="379.0" y1="170.0" x2="400.2" y2="136.1" stroke="rgb(0,0,0)"  stroke-width="1.0"/>
<line x1="400.2" y1="136.1" x2="374.5" y2="106.0" stroke="rgb(0,0,0)"  stroke-width="1.0"/>
<line x1="374.5" y1="106.0" x2="349.3" y2="115.7" stroke="rgb(0,0,0)"  stroke-width="1.0"/>
<line x1="302.7" y1="100.2" x2="303.1" y2="60.6" stroke="rgb(0,0,0)"  stroke-width="1.0"/>
<line x1="295.5" y1="94.1" x2="295.8" y2="66.5" stroke="rgb(0,0,0)"  stroke-width="1.0"/>
<line x1="303.1" y1="60.6" x2="268.1" y2="40.0" stroke="rgb(0,0,0)"  stroke-width="1.0"/>
<line x1="268.1" y1="40.0" x2="233.4" y2="60.0" stroke="rgb(0,0,0)"  stroke-width="1.0"/>
<line x1="266.5" y1="49.2" x2="242.2" y2="63.2" stroke="rgb(0,0,0)"  stroke-width="1.0"/>
<line x1="233.4" y1="60.0" x2="233.0" y2="100.2" stroke="rgb(0,0,0)"  stroke-width="1.0"/>
<line x1="233.0" y1="100.2" x2="267.9" y2="119.8" stroke="rgb(0,0,0)"  stroke-width="1.0"/>
<line x1="241.8" y1="96.8" x2="266.2" y2="110.5" stroke="rgb(0,0,0)"  stroke-width="1.0"/>
<line x1="267.9" y1="119.8" x2="302.7" y2="100.2" stroke="rgb(0,0,0)"  stroke-width="1.0"/>
<line x1="99.6" y1="262.1" x2="60.0" y2="261.5" stroke="rgb(0,0,0)"  stroke-width="1.0"/>
<line x1="93.7" y1="254.8" x2="66.1" y2="254.4" stroke="rgb(0,0,0)"  stroke-width="1.0"/>
<line x1="60.0" y1="261.5" x2="40.0" y2="226.4" stroke="rgb(0,0,0)"  stroke-width="1.0"/>
<line x1="40.0" y1="226.4" x2="61.2" y2="192.2" stroke="rgb(0,0,0)"  stroke-width="1.0"/>
<line x1="49.3" y1="225.1" x2="64.1" y2="201.1" stroke="rgb(0,0,0)"  stroke-width="1.0"/>
<line x1="61.2" y1="192.2" x2="100.4" y2="193.0" stroke="rgb(0,0,0)"  stroke-width="1.0"/>
<line x1="120.2" y1="228.0" x2="99.6" y2="262.1" stroke="rgb(0,0,0)"  stroke-width="1.0"/>
<text x="192.489621" y="168.334263" fill="rgb(12,12,255)"  stroke="rgb(12,12,255)" stroke-width="1" font-size="16" >N</text>
<text x="153.120825" y="228.297537" fill="rgb(12,12,255)"  stroke="rgb(12,12,255)" stroke-width="1" font-size="16" >N</text>
<text x="331.195342" y="128.358747" fill="rgb(12,12,255)"  stroke="rgb(12,12,255)" stroke-width="1" font-size="16" >N</text>
<text x="122.231536" y="171.969725" fill="rgb(178,178,0)"  stroke="rgb(178,178,0)" stroke-width="1" font-size="16" >S</text>
<text x="153.235794" y="334.696673" fill="rgb(102,102,102)"  stroke="rgb(102,102,102)" stroke-width="1" font-size="16" >HC</text>
<text x="157.363005" y="108.569993" fill="rgb(255,12,12)"  stroke="rgb(255,12,12)" stroke-width="1" font-size="16" >O</text>
<text x="302.728077" y="193.170921" fill="rgb(255,12,12)"  stroke="rgb(255,12,12)" stroke-width="1" font-size="16" >O</text>
<text x="379.043647" y="75.462539" fill="rgb(255,12,12)"  stroke="rgb(255,12,12)" stroke-width="1" font-size="16" >O</text>
<text x="112.538589" y="305.622688" fill="rgb(255,12,12)"  stroke="rgb(255,12,12)" stroke-width="1" font-size="16" >O</text>
<text x="112.519428" y="374.269327" fill="rgb(102,102,102)"  stroke="rgb(102,102,102)" stroke-width="1" font-size="16" >CH</text>
<text x="136.519428" y="377.949327" fill="rgb(102,102,102)"  stroke="rgb(102,102,102)" stroke-width="1" font-size="13" >3</text>
<text font-size="18.000000" fill ="black" font-family="sans-serif"
x="10.000000" y="20.000000" ></text>
<title> - OBDepict</title>
</svg>
