<?xml version="1.0"?>
<svg xmlns="http://www.w3.org/2000/svg"
xmlns:xlink="http://www.w3.org/1999/xlink" xmlns:cml="http://www.xml-cml.org/schema" width="529.584" height="322.084" x="0" y="0" font-family="sans-serif" stroke="rgb(0,0,0)" stroke-width="1"  stroke-linecap="round">
<rect x="0%" y="0%" width="100%" height="100%" stroke-width="0" fill="rgb(255,255,255)"  />
<line x1="212.9" y1="200.8" x2="178.3" y2="221.4" stroke="rgb(0,0,0)"  stroke-width="1.0"/>
<line x1="455.0" y1="139.5" x2="420.4" y2="159.5" stroke="rgb(0,0,0)"  stroke-width="1.0"/>
<line x1="478.3" y1="126.0" x2="455.0" y2="139.5" stroke="rgb(0,0,0)"  stroke-width="1.0"/>
<line x1="480.4" y1="129.6" x2="457.1" y2="143.1" stroke="rgb(0,0,0)"  stroke-width="1.0"/>
<line x1="476.2" y1="122.4" x2="452.9" y2="135.9" stroke="rgb(0,0,0)"  stroke-width="1.0"/>
<line x1="246.0" y1="223.4" x2="211.4" y2="203.4" stroke="rgb(0,0,0)"  stroke-width="1.0"/>
<line x1="249.0" y1="218.2" x2="214.4" y2="198.2" stroke="rgb(0,0,0)"  stroke-width="1.0"/>
<line x1="282.1" y1="200.8" x2="247.5" y2="220.8" stroke="rgb(0,0,0)"  stroke-width="1.0"/>
<line x1="143.3" y1="174.3" x2="143.6" y2="188.4" stroke="rgb(0,0,0)"  stroke-width="1.0"/>
<line x1="316.1" y1="113.7" x2="316.1" y2="140.7" stroke="rgb(0,0,0)"  stroke-width="1.0"/>
<line x1="374.6" y1="146.6" x2="351.3" y2="160.1" stroke="rgb(0,0,0)"  stroke-width="1.0"/>
<line x1="420.4" y1="159.5" x2="397.2" y2="146.5" stroke="rgb(0,0,0)"  stroke-width="1.0"/>
<line x1="350.0" y1="80.0" x2="327.2" y2="93.9" stroke="rgb(0,0,0)"  stroke-width="1.0"/>
<line x1="350.0" y1="53.0" x2="350.0" y2="80.0" stroke="rgb(0,0,0)"  stroke-width="1.0"/>
<line x1="316.1" y1="140.7" x2="351.3" y2="160.1" stroke="rgb(0,0,0)"  stroke-width="1.0"/>
<line x1="351.3" y1="160.1" x2="351.3" y2="200.2" stroke="rgb(0,0,0)"  stroke-width="1.0"/>
<line x1="344.1" y1="166.1" x2="344.1" y2="194.2" stroke="rgb(0,0,0)"  stroke-width="1.0"/>
<line x1="351.3" y1="200.2" x2="316.7" y2="220.8" stroke="rgb(0,0,0)"  stroke-width="1.0"/>
<line x1="316.7" y1="220.8" x2="282.1" y2="200.8" stroke="rgb(0,0,0)"  stroke-width="1.0"/>
<line x1="315.1" y1="211.6" x2="290.9" y2="197.6" stroke="rgb(0,0,0)"  stroke-width="1.0"/>
<line x1="282.1" y1="200.8" x2="282.1" y2="160.7" stroke="rgb(0,0,0)"  stroke-width="1.0"/>
<line x1="282.1" y1="160.7" x2="316.1" y2="140.7" stroke="rgb(0,0,0)"  stroke-width="1.0"/>
<line x1="290.9" y1="163.9" x2="314.5" y2="150.0" stroke="rgb(0,0,0)"  stroke-width="1.0"/>
<line x1="132.5" y1="207.9" x2="109.2" y2="221.4" stroke="rgb(0,0,0)"  stroke-width="1.0"/>
<line x1="109.2" y1="221.4" x2="109.2" y2="261.5" stroke="rgb(0,0,0)"  stroke-width="1.0"/>
<line x1="109.2" y1="261.5" x2="143.8" y2="281.5" stroke="rgb(0,0,0)"  stroke-width="1.0"/>
<line x1="143.8" y1="281.5" x2="178.3" y2="261.5" stroke="rgb(0,0,0)"  stroke-width="1.0"/>
<line x1="145.3" y1="272.2" x2="169.5" y2="258.2" stroke="rgb(0,0,0)"  stroke-width="1.0"/>
<line x1="178.3" y1="261.5" x2="178.3" y2="221.4" stroke="rgb(0,0,0)"  stroke-width="1.0"/>
<line x1="178.3" y1="221.4" x2="155.2" y2="208.0" stroke="rgb(0,0,0)"  stroke-width="1.0"/>
<line x1="169.5" y1="224.6" x2="153.3" y2="215.2" stroke="rgb(0,0,0)"  stroke-width="1.0"/>
<line x1="109.2" y1="261.5" x2="74.6" y2="282.1" stroke="rgb(0,0,0)"  stroke-width="1.0"/>
<line x1="100.3" y1="258.3" x2="76.0" y2="272.8" stroke="rgb(0,0,0)"  stroke-width="1.0"/>
<line x1="74.6" y1="282.1" x2="40.0" y2="262.1" stroke="rgb(0,0,0)"  stroke-width="1.0"/>
<line x1="40.0" y1="262.1" x2="40.0" y2="222.0" stroke="rgb(0,0,0)"  stroke-width="1.0"/>
<line x1="47.2" y1="256.1" x2="47.2" y2="228.0" stroke="rgb(0,0,0)"  stroke-width="1.0"/>
<line x1="40.0" y1="222.0" x2="74.6" y2="201.4" stroke="rgb(0,0,0)"  stroke-width="1.0"/>
<line x1="74.6" y1="201.4" x2="109.2" y2="221.4" stroke="rgb(0,0,0)"  stroke-width="1.0"/>
<line x1="76.2" y1="210.6" x2="100.4" y2="224.6" stroke="rgb(0,0,0)"  stroke-width="1.0"/>
<text x="148.550122" y="197.357078" fill="rgb(12,12,255)"  stroke="rgb(12,12,255)" stroke-width="1" font-size="16" >+</text>
<text x="137.750122" y="209.389078" fill="rgb(12,12,255)"  stroke="rgb(12,12,255)" stroke-width="1" font-size="16" >N</text>
<text x="483.583860" y="127.481087" fill="rgb(102,102,102)"  stroke="rgb(102,102,102)" stroke-width="1" font-size="16" >CH</text>
<text x="117.143396" y="169.345171" fill="rgb(102,102,102)"  stroke="rgb(102,102,102)" stroke-width="1" font-size="16" >H</text>
<text x="129.143396" y="173.025171" fill="rgb(102,102,102)"  stroke="rgb(102,102,102)" stroke-width="1" font-size="13" >3</text>
<text x="135.643396" y="169.345171" fill="rgb(102,102,102)"  stroke="rgb(102,102,102)" stroke-width="1" font-size="16" >C</text>
<text x="310.060265" y="108.672586" fill="rgb(255,12,12)"  stroke="rgb(255,12,12)" stroke-width="1" font-size="16" >O</text>
<text x="379.833739" y="148.109766" fill="rgb(255,12,12)"  stroke="rgb(255,12,12)" stroke-width="1" font-size="16" >O</text>
<text x="346.036913" y="48.000000" fill="rgb(102,102,102)"  stroke="rgb(102,102,102)" stroke-width="1" font-size="16" >CH</text>
<text x="370.036913" y="51.680000" fill="rgb(102,102,102)"  stroke="rgb(102,102,102)" stroke-width="1" font-size="13" >3</text>
<text font-size="18.000000" fill ="black" font-family="sans-serif"
x="10.000000" y="20.000000" ></text>
<title> - OBDepict</title>
</svg>
