<?xml version="1.0"?>
<svg xmlns="http://www.w3.org/2000/svg"
xmlns:xlink="http://www.w3.org/1999/xlink" xmlns:cml="http://www.xml-cml.org/schema" width="481.06" height="445.953" x="0" y="0" font-family="sans-serif" stroke="rgb(0,0,0)" stroke-width="1"  stroke-linecap="round">
<rect x="0%" y="0%" width="100%" height="100%" stroke-width="0" fill="rgb(255,255,255)"  />
<line x1="325.5" y1="126.6" x2="301.9" y2="140.5" stroke="rgb(0,0,0)"  stroke-width="1.0"/>
<line x1="188.1" y1="249.3" x2="164.8" y2="263.1" stroke="rgb(0,0,0)"  stroke-width="1.0"/>
<line x1="185.0" y1="244.2" x2="161.7" y2="257.9" stroke="rgb(0,0,0)"  stroke-width="1.0"/>
<line x1="360.1" y1="106.9" x2="348.1" y2="113.7" stroke="rgb(0,0,0)"  stroke-width="1.0"/>
<line x1="197.8" y1="200.0" x2="197.8" y2="227.1" stroke="rgb(0,0,0)"  stroke-width="1.0"/>
<line x1="179.6" y1="367.0" x2="188.7" y2="327.9" stroke="rgb(0,0,0)"  stroke-width="1.0"/>
<line x1="347.7" y1="145.2" x2="340.6" y2="132.9" stroke="rgb(0,0,0)"  stroke-width="1.0"/>
<line x1="352.9" y1="142.2" x2="345.8" y2="129.9" stroke="rgb(0,0,0)"  stroke-width="1.0"/>
<line x1="325.9" y1="95.2" x2="332.9" y2="107.3" stroke="rgb(0,0,0)"  stroke-width="1.0"/>
<line x1="320.7" y1="98.2" x2="327.7" y2="110.3" stroke="rgb(0,0,0)"  stroke-width="1.0"/>
<line x1="173.9" y1="393.2" x2="179.6" y2="367.0" stroke="rgb(0,0,0)"  stroke-width="1.0"/>
<line x1="169.8" y1="392.4" x2="175.5" y2="366.1" stroke="rgb(0,0,0)"  stroke-width="1.0"/>
<line x1="178.0" y1="394.1" x2="183.7" y2="367.9" stroke="rgb(0,0,0)"  stroke-width="1.0"/>
<line x1="232.3" y1="180.0" x2="197.8" y2="200.0" stroke="rgb(0,0,0)"  stroke-width="1.0"/>
<line x1="175.4" y1="183.8" x2="199.2" y2="197.4" stroke="rgb(0,0,0)"  stroke-width="1.0"/>
<line x1="172.5" y1="189.0" x2="196.3" y2="202.6" stroke="rgb(0,0,0)"  stroke-width="1.0"/>
<line x1="188.7" y1="327.9" x2="168.3" y2="308.9" stroke="rgb(0,0,0)"  stroke-width="1.0"/>
<line x1="112.2" y1="365.5" x2="99.1" y2="341.8" stroke="rgb(0,0,0)"  stroke-width="1.0"/>
<line x1="163.3" y1="260.5" x2="139.3" y2="249.3" stroke="rgb(0,0,0)"  stroke-width="1.0"/>
<line x1="118.7" y1="253.2" x2="100.3" y2="272.8" stroke="rgb(0,0,0)"  stroke-width="1.0"/>
<line x1="100.3" y1="272.8" x2="119.7" y2="307.9" stroke="rgb(0,0,0)"  stroke-width="1.0"/>
<line x1="109.5" y1="274.6" x2="123.1" y2="299.2" stroke="rgb(0,0,0)"  stroke-width="1.0"/>
<line x1="119.7" y1="307.9" x2="146.1" y2="302.6" stroke="rgb(0,0,0)"  stroke-width="1.0"/>
<line x1="160.3" y1="287.1" x2="163.3" y2="260.5" stroke="rgb(0,0,0)"  stroke-width="1.0"/>
<line x1="232.3" y1="180.0" x2="267.2" y2="199.6" stroke="rgb(0,0,0)"  stroke-width="1.0"/>
<line x1="241.0" y1="176.7" x2="265.4" y2="190.4" stroke="rgb(0,0,0)"  stroke-width="1.0"/>
<line x1="267.2" y1="199.6" x2="301.7" y2="180.4" stroke="rgb(0,0,0)"  stroke-width="1.0"/>
<line x1="301.7" y1="180.4" x2="301.9" y2="140.5" stroke="rgb(0,0,0)"  stroke-width="1.0"/>
<line x1="294.5" y1="174.4" x2="294.6" y2="146.4" stroke="rgb(0,0,0)"  stroke-width="1.0"/>
<line x1="301.9" y1="140.5" x2="267.2" y2="120.1" stroke="rgb(0,0,0)"  stroke-width="1.0"/>
<line x1="267.2" y1="120.1" x2="232.3" y2="140.5" stroke="rgb(0,0,0)"  stroke-width="1.0"/>
<line x1="265.6" y1="129.3" x2="241.1" y2="143.7" stroke="rgb(0,0,0)"  stroke-width="1.0"/>
<line x1="232.3" y1="140.5" x2="232.3" y2="180.0" stroke="rgb(0,0,0)"  stroke-width="1.0"/>
<line x1="371.5" y1="87.5" x2="371.5" y2="60.0" stroke="rgb(0,0,0)"  stroke-width="1.0"/>
<line x1="371.5" y1="60.0" x2="406.4" y2="40.0" stroke="rgb(0,0,0)"  stroke-width="1.0"/>
<line x1="406.4" y1="40.0" x2="429.8" y2="53.5" stroke="rgb(0,0,0)"  stroke-width="1.0"/>
<line x1="441.0" y1="73.0" x2="440.9" y2="99.9" stroke="rgb(0,0,0)"  stroke-width="1.0"/>
<line x1="440.9" y1="99.9" x2="406.0" y2="119.9" stroke="rgb(0,0,0)"  stroke-width="1.0"/>
<line x1="406.0" y1="119.9" x2="382.8" y2="106.9" stroke="rgb(0,0,0)"  stroke-width="1.0"/>
<line x1="99.1" y1="341.8" x2="60.0" y2="341.6" stroke="rgb(0,0,0)"  stroke-width="1.0"/>
<line x1="93.2" y1="334.6" x2="66.0" y2="334.4" stroke="rgb(0,0,0)"  stroke-width="1.0"/>
<line x1="60.0" y1="341.6" x2="40.0" y2="306.5" stroke="rgb(0,0,0)"  stroke-width="1.0"/>
<line x1="40.0" y1="306.5" x2="60.6" y2="272.2" stroke="rgb(0,0,0)"  stroke-width="1.0"/>
<line x1="49.3" y1="305.1" x2="63.7" y2="281.1" stroke="rgb(0,0,0)"  stroke-width="1.0"/>
<line x1="60.6" y1="272.2" x2="100.3" y2="272.8" stroke="rgb(0,0,0)"  stroke-width="1.0"/>
<line x1="119.7" y1="307.9" x2="99.1" y2="341.8" stroke="rgb(0,0,0)"  stroke-width="1.0"/>
<text x="330.756543" y="128.088781" fill="rgb(178,178,0)"  stroke="rgb(178,178,0)" stroke-width="1" font-size="16" >S</text>
<text x="191.763410" y="248.127424" fill="rgb(12,12,255)"  stroke="rgb(12,12,255)" stroke-width="1" font-size="16" >N</text>
<text x="152.826718" y="308.040095" fill="rgb(12,12,255)"  stroke="rgb(12,12,255)" stroke-width="1" font-size="16" >N</text>
<text x="121.559081" y="251.758348" fill="rgb(178,178,0)"  stroke="rgb(178,178,0)" stroke-width="1" font-size="16" >S</text>
<text x="365.461197" y="108.518634" fill="rgb(12,12,255)"  stroke="rgb(12,12,255)" stroke-width="1" font-size="16" >N</text>
<text x="350.729049" y="162.992191" fill="rgb(255,12,12)"  stroke="rgb(255,12,12)" stroke-width="1" font-size="16" >O</text>
<text x="310.784036" y="93.388975" fill="rgb(255,12,12)"  stroke="rgb(255,12,12)" stroke-width="1" font-size="16" >O</text>
<text x="153.135018" y="413.952552" fill="rgb(102,102,102)"  stroke="rgb(102,102,102)" stroke-width="1" font-size="16" >HC</text>
<text x="156.661246" y="188.006301" fill="rgb(255,12,12)"  stroke="rgb(255,12,12)" stroke-width="1" font-size="16" >O</text>
<text x="435.059565" y="67.972506" fill="rgb(255,12,12)"  stroke="rgb(255,12,12)" stroke-width="1" font-size="16" >O</text>
<text x="112.479346" y="384.905159" fill="rgb(30,239,30)"  stroke="rgb(30,239,30)" stroke-width="1" font-size="16" >Cl</text>
<text font-size="18.000000" fill ="black" font-family="sans-serif"
x="10.000000" y="20.000000" ></text>
<title> - OBDepict</title>
</svg>
