<?xml version="1.0"?>
<svg xmlns="http://www.w3.org/2000/svg"
xmlns:xlink="http://www.w3.org/1999/xlink" xmlns:cml="http://www.xml-cml.org/schema" width="286.278" height="279.366" x="0" y="0" font-family="sans-serif" stroke="rgb(0,0,0)" stroke-width="1"  stroke-linecap="round">
<rect x="0%" y="0%" width="100%" height="100%" stroke-width="0" fill="rgb(255,255,255)"  />
<line x1="139.9" y1="162.4" x2="175.0" y2="180.8" stroke="rgb(0,0,0)"  stroke-width="1.0"/>
<line x1="139.9" y1="162.4" x2="148.6" y2="136.2" stroke="rgb(0,0,0)"  stroke-width="1.0"/>
<line x1="165.5" y1="121.4" x2="191.1" y2="116.4" stroke="rgb(0,0,0)"  stroke-width="1.0"/>
<line x1="86.7" y1="196.9" x2="68.5" y2="217.5" stroke="rgb(0,0,0)"  stroke-width="1.0"/>
<line x1="82.2" y1="192.9" x2="64.0" y2="213.6" stroke="rgb(0,0,0)"  stroke-width="1.0"/>
<line x1="191.1" y1="116.4" x2="203.8" y2="78.3" stroke="rgb(0,0,0)"  stroke-width="1.0"/>
<line x1="203.8" y1="78.3" x2="211.8" y2="52.4" stroke="rgb(0,0,0)"  stroke-width="1.0"/>
<line x1="199.8" y1="77.1" x2="207.8" y2="51.2" stroke="rgb(0,0,0)"  stroke-width="1.0"/>
<line x1="207.9" y1="79.6" x2="215.8" y2="53.7" stroke="rgb(0,0,0)"  stroke-width="1.0"/>
<line x1="139.9" y1="162.4" x2="110.3" y2="135.6" stroke="rgb(0,0,0)"  stroke-width="1.0"/>
<line x1="110.3" y1="135.6" x2="75.8" y2="155.3" stroke="rgb(0,0,0)"  stroke-width="1.0"/>
<line x1="75.8" y1="155.3" x2="84.5" y2="194.9" stroke="rgb(0,0,0)"  stroke-width="1.0"/>
<line x1="84.5" y1="194.9" x2="110.9" y2="197.3" stroke="rgb(0,0,0)"  stroke-width="1.0"/>
<line x1="129.1" y1="186.6" x2="139.9" y2="162.4" stroke="rgb(0,0,0)"  stroke-width="1.0"/>
<line x1="40.8" y1="135.6" x2="75.8" y2="155.3" stroke="rgb(0,0,0)"  stroke-width="1.0"/>
<line x1="49.5" y1="132.3" x2="74.1" y2="146.1" stroke="rgb(0,0,0)"  stroke-width="1.0"/>
<line x1="110.3" y1="135.6" x2="109.5" y2="96.0" stroke="rgb(0,0,0)"  stroke-width="1.0"/>
<line x1="103.0" y1="129.7" x2="102.4" y2="102.1" stroke="rgb(0,0,0)"  stroke-width="1.0"/>
<line x1="109.5" y1="96.0" x2="75.8" y2="76.3" stroke="rgb(0,0,0)"  stroke-width="1.0"/>
<line x1="75.8" y1="76.3" x2="40.0" y2="96.0" stroke="rgb(0,0,0)"  stroke-width="1.0"/>
<line x1="74.0" y1="85.5" x2="48.7" y2="99.4" stroke="rgb(0,0,0)"  stroke-width="1.0"/>
<line x1="40.0" y1="96.0" x2="40.8" y2="135.6" stroke="rgb(0,0,0)"  stroke-width="1.0"/>
<line x1="175.0" y1="180.8" x2="177.0" y2="220.7" stroke="rgb(0,0,0)"  stroke-width="1.0"/>
<line x1="177.0" y1="220.7" x2="212.3" y2="239.4" stroke="rgb(0,0,0)"  stroke-width="1.0"/>
<line x1="185.7" y1="217.2" x2="210.3" y2="230.2" stroke="rgb(0,0,0)"  stroke-width="1.0"/>
<line x1="212.3" y1="239.4" x2="246.3" y2="217.9" stroke="rgb(0,0,0)"  stroke-width="1.0"/>
<line x1="246.3" y1="217.9" x2="244.7" y2="177.5" stroke="rgb(0,0,0)"  stroke-width="1.0"/>
<line x1="238.9" y1="212.2" x2="237.8" y2="183.8" stroke="rgb(0,0,0)"  stroke-width="1.0"/>
<line x1="244.7" y1="177.5" x2="209.2" y2="158.9" stroke="rgb(0,0,0)"  stroke-width="1.0"/>
<line x1="209.2" y1="158.9" x2="175.0" y2="180.8" stroke="rgb(0,0,0)"  stroke-width="1.0"/>
<line x1="208.1" y1="168.2" x2="183.9" y2="183.7" stroke="rgb(0,0,0)"  stroke-width="1.0"/>
<text x="117.839055" y="206.471758" fill="rgb(255,12,12)"  stroke="rgb(255,12,12)" stroke-width="1" font-size="16" >O</text>
<text x="146.721921" y="131.834195" fill="rgb(255,12,12)"  stroke="rgb(255,12,12)" stroke-width="1" font-size="16" >O</text>
<text x="51.634978" y="233.313088" fill="rgb(255,12,12)"  stroke="rgb(255,12,12)" stroke-width="1" font-size="16" >O</text>
<text x="209.606073" y="48.000000" fill="rgb(102,102,102)"  stroke="rgb(102,102,102)" stroke-width="1" font-size="16" >CH</text>
<text font-size="18.000000" fill ="black" font-family="sans-serif"
x="10.000000" y="20.000000" ></text>
<title> - OBDepict</title>
</svg>
