<?xml version="1.0"?>
<svg xmlns="http://www.w3.org/2000/svg"
xmlns:xlink="http://www.w3.org/1999/xlink" xmlns:cml="http://www.xml-cml.org/schema" width="564.275" height="262.809" x="0" y="0" font-family="sans-serif" stroke="rgb(0,0,0)" stroke-width="1"  stroke-linecap="round">
<rect x="0%" y="0%" width="100%" height="100%" stroke-width="0" fill="rgb(255,255,255)"  />
<line x1="478.5" y1="91.6" x2="454.9" y2="105.0" stroke="rgb(0,0,0)"  stroke-width="1.0"/>
<line x1="214.0" y1="85.4" x2="179.0" y2="105.4" stroke="rgb(0,0,0)"  stroke-width="1.0"/>
<line x1="211.0" y1="80.2" x2="176.0" y2="100.2" stroke="rgb(0,0,0)"  stroke-width="1.0"/>
<line x1="58.2" y1="75.7" x2="74.5" y2="112.2" stroke="rgb(0,0,0)"  stroke-width="1.0"/>
<line x1="45.9" y1="51.6" x2="58.2" y2="75.7" stroke="rgb(0,0,0)"  stroke-width="1.0"/>
<line x1="49.6" y1="49.7" x2="61.9" y2="73.8" stroke="rgb(0,0,0)"  stroke-width="1.0"/>
<line x1="42.2" y1="53.5" x2="54.4" y2="77.6" stroke="rgb(0,0,0)"  stroke-width="1.0"/>
<line x1="385.3" y1="143.8" x2="361.9" y2="157.2" stroke="rgb(0,0,0)"  stroke-width="1.0"/>
<line x1="339.4" y1="157.1" x2="316.0" y2="143.5" stroke="rgb(0,0,0)"  stroke-width="1.0"/>
<line x1="513.0" y1="98.6" x2="501.0" y2="91.7" stroke="rgb(0,0,0)"  stroke-width="1.0"/>
<line x1="120.4" y1="174.7" x2="131.4" y2="149.8" stroke="rgb(0,0,0)"  stroke-width="1.0"/>
<line x1="125.8" y1="177.1" x2="136.9" y2="152.2" stroke="rgb(0,0,0)"  stroke-width="1.0"/>
<line x1="493.2" y1="57.9" x2="493.0" y2="72.2" stroke="rgb(0,0,0)"  stroke-width="1.0"/>
<line x1="487.2" y1="57.8" x2="487.0" y2="72.1" stroke="rgb(0,0,0)"  stroke-width="1.0"/>
<line x1="138.0" y1="59.9" x2="143.8" y2="86.2" stroke="rgb(0,0,0)"  stroke-width="1.0"/>
<line x1="132.2" y1="61.2" x2="137.9" y2="87.5" stroke="rgb(0,0,0)"  stroke-width="1.0"/>
<line x1="247.0" y1="103.2" x2="212.5" y2="82.8" stroke="rgb(0,0,0)"  stroke-width="1.0"/>
<line x1="74.5" y1="112.2" x2="101.1" y2="114.7" stroke="rgb(0,0,0)"  stroke-width="1.0"/>
<line x1="281.1" y1="189.8" x2="281.3" y2="163.0" stroke="rgb(0,0,0)"  stroke-width="1.0"/>
<line x1="304.4" y1="216.3" x2="292.2" y2="209.3" stroke="rgb(0,0,0)"  stroke-width="1.0"/>
<line x1="122.8" y1="106.4" x2="140.8" y2="86.8" stroke="rgb(0,0,0)"  stroke-width="1.0"/>
<line x1="140.8" y1="86.8" x2="177.5" y2="102.8" stroke="rgb(0,0,0)"  stroke-width="1.0"/>
<line x1="177.5" y1="102.8" x2="174.7" y2="129.6" stroke="rgb(0,0,0)"  stroke-width="1.0"/>
<line x1="160.6" y1="145.2" x2="134.2" y2="151.0" stroke="rgb(0,0,0)"  stroke-width="1.0"/>
<line x1="134.2" y1="151.0" x2="120.5" y2="127.3" stroke="rgb(0,0,0)"  stroke-width="1.0"/>
<line x1="396.9" y1="97.6" x2="420.5" y2="84.5" stroke="rgb(0,0,0)"  stroke-width="1.0"/>
<line x1="402.1" y1="102.9" x2="418.7" y2="93.7" stroke="rgb(0,0,0)"  stroke-width="1.0"/>
<line x1="420.5" y1="84.5" x2="454.9" y2="105.0" stroke="rgb(0,0,0)"  stroke-width="1.0"/>
<line x1="454.9" y1="105.0" x2="454.6" y2="144.8" stroke="rgb(0,0,0)"  stroke-width="1.0"/>
<line x1="447.7" y1="110.9" x2="447.5" y2="138.8" stroke="rgb(0,0,0)"  stroke-width="1.0"/>
<line x1="454.6" y1="144.8" x2="419.8" y2="164.3" stroke="rgb(0,0,0)"  stroke-width="1.0"/>
<line x1="419.8" y1="164.3" x2="385.3" y2="143.8" stroke="rgb(0,0,0)"  stroke-width="1.0"/>
<line x1="418.3" y1="155.1" x2="394.1" y2="140.7" stroke="rgb(0,0,0)"  stroke-width="1.0"/>
<line x1="385.3" y1="143.8" x2="385.3" y2="117.0" stroke="rgb(0,0,0)"  stroke-width="1.0"/>
<line x1="281.3" y1="163.0" x2="316.0" y2="143.5" stroke="rgb(0,0,0)"  stroke-width="1.0"/>
<line x1="316.0" y1="143.5" x2="316.1" y2="103.8" stroke="rgb(0,0,0)"  stroke-width="1.0"/>
<line x1="308.8" y1="137.5" x2="308.9" y2="109.8" stroke="rgb(0,0,0)"  stroke-width="1.0"/>
<line x1="316.1" y1="103.8" x2="281.6" y2="83.3" stroke="rgb(0,0,0)"  stroke-width="1.0"/>
<line x1="281.6" y1="83.3" x2="247.0" y2="103.2" stroke="rgb(0,0,0)"  stroke-width="1.0"/>
<line x1="280.0" y1="92.6" x2="255.8" y2="106.4" stroke="rgb(0,0,0)"  stroke-width="1.0"/>
<line x1="247.0" y1="103.2" x2="246.6" y2="143.5" stroke="rgb(0,0,0)"  stroke-width="1.0"/>
<line x1="246.6" y1="143.5" x2="281.3" y2="163.0" stroke="rgb(0,0,0)"  stroke-width="1.0"/>
<line x1="255.4" y1="140.2" x2="279.6" y2="153.8" stroke="rgb(0,0,0)"  stroke-width="1.0"/>
<text x="107.989567" y="123.987058" fill="rgb(12,12,255)"  stroke="rgb(12,12,255)" stroke-width="1" font-size="16" >N</text>
<text x="167.317943" y="150.487744" fill="rgb(178,178,0)"  stroke="rgb(178,178,0)" stroke-width="1" font-size="16" >S</text>
<text x="494.579579" y="81.129708" fill="rgb(12,12,255)"  stroke="rgb(12,12,255)" stroke-width="1" font-size="16" >+</text>
<text x="483.779579" y="93.161708" fill="rgb(12,12,255)"  stroke="rgb(12,12,255)" stroke-width="1" font-size="16" >N</text>
<text x="379.294344" y="111.992419" fill="rgb(12,12,255)"  stroke="rgb(12,12,255)" stroke-width="1" font-size="16" >N</text>
<text x="22.000000" y="48.000000" fill="rgb(102,102,102)"  stroke="rgb(102,102,102)" stroke-width="1" font-size="16" >HC</text>
<text x="344.629158" y="171.650477" fill="rgb(255,12,12)"  stroke="rgb(255,12,12)" stroke-width="1" font-size="16" >O</text>
<text x="529.075075" y="91.044005" fill="rgb(255,12,12)"  stroke="rgb(255,12,12)" stroke-width="1" font-size="16" >_</text>
<text x="518.275075" y="113.156005" fill="rgb(255,12,12)"  stroke="rgb(255,12,12)" stroke-width="1" font-size="16" >O</text>
<text x="111.824555" y="195.814293" fill="rgb(255,12,12)"  stroke="rgb(255,12,12)" stroke-width="1" font-size="16" >O</text>
<text x="484.443793" y="52.828885" fill="rgb(255,12,12)"  stroke="rgb(255,12,12)" stroke-width="1" font-size="16" >O</text>
<text x="126.325754" y="55.829969" fill="rgb(255,12,12)"  stroke="rgb(255,12,12)" stroke-width="1" font-size="16" >O</text>
<text x="274.969103" y="210.810016" fill="rgb(255,12,12)"  stroke="rgb(255,12,12)" stroke-width="1" font-size="16" >O</text>
<text x="311.634289" y="230.809162" fill="rgb(102,102,102)"  stroke="rgb(102,102,102)" stroke-width="1" font-size="16" >CH</text>
<text x="335.634289" y="234.489162" fill="rgb(102,102,102)"  stroke="rgb(102,102,102)" stroke-width="1" font-size="13" >3</text>
<text font-size="18.000000" fill ="black" font-family="sans-serif"
x="10.000000" y="20.000000" ></text>
<title> - OBDepict</title>
</svg>
