<?xml version="1.0"?>
<svg xmlns="http://www.w3.org/2000/svg"
xmlns:xlink="http://www.w3.org/1999/xlink" xmlns:cml="http://www.xml-cml.org/schema" width="316.452" height="334.211" x="0" y="0" font-family="sans-serif" stroke="rgb(0,0,0)" stroke-width="1"  stroke-linecap="round">
<rect x="0%" y="0%" width="100%" height="100%" stroke-width="0" fill="rgb(255,255,255)"  />
<line x1="167.9" y1="88.0" x2="187.7" y2="106.6" stroke="rgb(0,0,0)"  stroke-width="1.0"/>
<line x1="200.7" y1="214.5" x2="162.6" y2="226.9" stroke="rgb(0,0,0)"  stroke-width="1.0"/>
<line x1="198.9" y1="208.8" x2="160.7" y2="221.1" stroke="rgb(0,0,0)"  stroke-width="1.0"/>
<line x1="208.7" y1="172.6" x2="199.8" y2="211.7" stroke="rgb(0,0,0)"  stroke-width="1.0"/>
<line x1="50.7" y1="172.6" x2="59.2" y2="211.7" stroke="rgb(0,0,0)"  stroke-width="1.0"/>
<line x1="43.5" y1="146.4" x2="50.7" y2="172.6" stroke="rgb(0,0,0)"  stroke-width="1.0"/>
<line x1="47.5" y1="145.2" x2="54.7" y2="171.4" stroke="rgb(0,0,0)"  stroke-width="1.0"/>
<line x1="39.4" y1="147.5" x2="46.6" y2="173.7" stroke="rgb(0,0,0)"  stroke-width="1.0"/>
<line x1="164.3" y1="52.7" x2="161.2" y2="66.4" stroke="rgb(0,0,0)"  stroke-width="1.0"/>
<line x1="91.1" y1="282.0" x2="107.0" y2="260.4" stroke="rgb(0,0,0)"  stroke-width="1.0"/>
<line x1="95.9" y1="285.5" x2="111.8" y2="263.9" stroke="rgb(0,0,0)"  stroke-width="1.0"/>
<line x1="131.8" y1="84.2" x2="145.1" y2="80.1" stroke="rgb(0,0,0)"  stroke-width="1.0"/>
<line x1="133.6" y1="89.9" x2="146.9" y2="85.8" stroke="rgb(0,0,0)"  stroke-width="1.0"/>
<line x1="132.1" y1="173.4" x2="132.4" y2="200.4" stroke="rgb(0,0,0)"  stroke-width="1.0"/>
<line x1="126.1" y1="173.5" x2="126.4" y2="200.4" stroke="rgb(0,0,0)"  stroke-width="1.0"/>
<line x1="59.2" y1="211.7" x2="84.5" y2="220.0" stroke="rgb(0,0,0)"  stroke-width="1.0"/>
<line x1="266.9" y1="179.2" x2="246.8" y2="160.4" stroke="rgb(0,0,0)"  stroke-width="1.0"/>
<line x1="100.9" y1="236.4" x2="109.4" y2="262.1" stroke="rgb(0,0,0)"  stroke-width="1.0"/>
<line x1="109.4" y1="262.1" x2="136.4" y2="262.1" stroke="rgb(0,0,0)"  stroke-width="1.0"/>
<line x1="153.3" y1="249.8" x2="161.7" y2="224.0" stroke="rgb(0,0,0)"  stroke-width="1.0"/>
<line x1="161.7" y1="224.0" x2="129.4" y2="200.4" stroke="rgb(0,0,0)"  stroke-width="1.0"/>
<line x1="129.4" y1="200.4" x2="107.4" y2="216.4" stroke="rgb(0,0,0)"  stroke-width="1.0"/>
<line x1="208.7" y1="172.6" x2="179.2" y2="145.3" stroke="rgb(0,0,0)"  stroke-width="1.0"/>
<line x1="209.1" y1="163.2" x2="188.5" y2="144.1" stroke="rgb(0,0,0)"  stroke-width="1.0"/>
<line x1="179.2" y1="145.3" x2="187.7" y2="106.6" stroke="rgb(0,0,0)"  stroke-width="1.0"/>
<line x1="187.7" y1="106.6" x2="225.6" y2="94.9" stroke="rgb(0,0,0)"  stroke-width="1.0"/>
<line x1="195.5" y1="111.7" x2="222.0" y2="103.5" stroke="rgb(0,0,0)"  stroke-width="1.0"/>
<line x1="225.6" y1="94.9" x2="255.3" y2="121.5" stroke="rgb(0,0,0)"  stroke-width="1.0"/>
<line x1="255.3" y1="121.5" x2="246.8" y2="160.4" stroke="rgb(0,0,0)"  stroke-width="1.0"/>
<line x1="247.0" y1="125.8" x2="241.0" y2="153.1" stroke="rgb(0,0,0)"  stroke-width="1.0"/>
<line x1="246.8" y1="160.4" x2="208.7" y2="172.6" stroke="rgb(0,0,0)"  stroke-width="1.0"/>
<text x="90.896969" y="232.002266" fill="rgb(12,12,255)"  stroke="rgb(12,12,255)" stroke-width="1" font-size="16" >N</text>
<text x="143.351969" y="270.132401" fill="rgb(178,178,0)"  stroke="rgb(178,178,0)" stroke-width="1" font-size="16" >S</text>
<text x="163.229879" y="75.106791" fill="rgb(12,12,255)"  stroke="rgb(12,12,255)" stroke-width="1" font-size="16" >+</text>
<text x="152.429879" y="87.138791" fill="rgb(12,12,255)"  stroke="rgb(12,12,255)" stroke-width="1" font-size="16" >N</text>
<text x="22.000000" y="141.819625" fill="rgb(102,102,102)"  stroke="rgb(102,102,102)" stroke-width="1" font-size="16" >HC</text>
<text x="171.905297" y="25.888000" fill="rgb(255,12,12)"  stroke="rgb(255,12,12)" stroke-width="1" font-size="16" >_</text>
<text x="161.105297" y="48.000000" fill="rgb(255,12,12)"  stroke="rgb(255,12,12)" stroke-width="1" font-size="16" >O</text>
<text x="79.796895" y="302.210595" fill="rgb(255,12,12)"  stroke="rgb(255,12,12)" stroke-width="1" font-size="16" >O</text>
<text x="114.294896" y="98.845028" fill="rgb(255,12,12)"  stroke="rgb(255,12,12)" stroke-width="1" font-size="16" >O</text>
<text x="122.975163" y="168.447193" fill="rgb(255,12,12)"  stroke="rgb(255,12,12)" stroke-width="1" font-size="16" >O</text>
<text x="270.452417" y="196.088267" fill="rgb(30,239,30)"  stroke="rgb(30,239,30)" stroke-width="1" font-size="16" >Cl</text>
<text font-size="18.000000" fill ="black" font-family="sans-serif"
x="10.000000" y="20.000000" ></text>
<title> - OBDepict</title>
</svg>
