<?xml version="1.0"?>
<svg xmlns="http://www.w3.org/2000/svg"
xmlns:xlink="http://www.w3.org/1999/xlink" xmlns:cml="http://www.xml-cml.org/schema" width="359.189" height="382.809" x="0" y="0" font-family="sans-serif" stroke="rgb(0,0,0)" stroke-width="1"  stroke-linecap="round">
<rect x="0%" y="0%" width="100%" height="100%" stroke-width="0" fill="rgb(255,255,255)"  />
<line x1="200.8" y1="263.1" x2="162.7" y2="275.4" stroke="rgb(0,0,0)"  stroke-width="1.0"/>
<line x1="199.0" y1="257.4" x2="160.8" y2="269.7" stroke="rgb(0,0,0)"  stroke-width="1.0"/>
<line x1="208.2" y1="221.1" x2="199.9" y2="260.2" stroke="rgb(0,0,0)"  stroke-width="1.0"/>
<line x1="50.7" y1="221.1" x2="59.2" y2="260.2" stroke="rgb(0,0,0)"  stroke-width="1.0"/>
<line x1="43.5" y1="194.9" x2="50.7" y2="221.1" stroke="rgb(0,0,0)"  stroke-width="1.0"/>
<line x1="47.5" y1="193.7" x2="54.7" y2="220.0" stroke="rgb(0,0,0)"  stroke-width="1.0"/>
<line x1="39.4" y1="196.0" x2="46.7" y2="222.2" stroke="rgb(0,0,0)"  stroke-width="1.0"/>
<line x1="91.1" y1="330.6" x2="107.0" y2="308.9" stroke="rgb(0,0,0)"  stroke-width="1.0"/>
<line x1="95.9" y1="334.1" x2="111.9" y2="312.5" stroke="rgb(0,0,0)"  stroke-width="1.0"/>
<line x1="132.2" y1="221.9" x2="132.4" y2="248.9" stroke="rgb(0,0,0)"  stroke-width="1.0"/>
<line x1="126.2" y1="222.0" x2="126.4" y2="249.0" stroke="rgb(0,0,0)"  stroke-width="1.0"/>
<line x1="59.2" y1="260.2" x2="84.6" y2="268.5" stroke="rgb(0,0,0)"  stroke-width="1.0"/>
<line x1="281.0" y1="52.1" x2="272.0" y2="91.5" stroke="rgb(0,0,0)"  stroke-width="1.0"/>
<line x1="307.7" y1="46.8" x2="281.9" y2="55.0" stroke="rgb(0,0,0)"  stroke-width="1.0"/>
<line x1="305.9" y1="41.1" x2="280.1" y2="49.3" stroke="rgb(0,0,0)"  stroke-width="1.0"/>
<line x1="280.2" y1="161.0" x2="254.8" y2="169.4" stroke="rgb(0,0,0)"  stroke-width="1.0"/>
<line x1="231.0" y1="116.3" x2="225.1" y2="142.8" stroke="rgb(0,0,0)"  stroke-width="1.0"/>
<line x1="167.4" y1="136.7" x2="187.0" y2="154.9" stroke="rgb(0,0,0)"  stroke-width="1.0"/>
<line x1="272.0" y1="91.5" x2="246.2" y2="99.7" stroke="rgb(0,0,0)"  stroke-width="1.0"/>
<line x1="119.7" y1="139.9" x2="145.5" y2="131.7" stroke="rgb(0,0,0)"  stroke-width="1.0"/>
<line x1="100.3" y1="122.1" x2="119.7" y2="139.9" stroke="rgb(0,0,0)"  stroke-width="1.0"/>
<line x1="107.4" y1="264.9" x2="129.4" y2="248.9" stroke="rgb(0,0,0)"  stroke-width="1.0"/>
<line x1="129.4" y1="248.9" x2="161.7" y2="272.6" stroke="rgb(0,0,0)"  stroke-width="1.0"/>
<line x1="161.7" y1="272.6" x2="153.4" y2="298.3" stroke="rgb(0,0,0)"  stroke-width="1.0"/>
<line x1="136.4" y1="310.7" x2="109.4" y2="310.7" stroke="rgb(0,0,0)"  stroke-width="1.0"/>
<line x1="109.4" y1="310.7" x2="101.0" y2="284.9" stroke="rgb(0,0,0)"  stroke-width="1.0"/>
<line x1="254.8" y1="169.4" x2="225.1" y2="142.8" stroke="rgb(0,0,0)"  stroke-width="1.0"/>
<line x1="225.1" y1="142.8" x2="187.0" y2="154.9" stroke="rgb(0,0,0)"  stroke-width="1.0"/>
<line x1="221.6" y1="151.4" x2="194.9" y2="159.9" stroke="rgb(0,0,0)"  stroke-width="1.0"/>
<line x1="187.0" y1="154.9" x2="178.5" y2="193.8" stroke="rgb(0,0,0)"  stroke-width="1.0"/>
<line x1="178.5" y1="193.8" x2="208.2" y2="221.1" stroke="rgb(0,0,0)"  stroke-width="1.0"/>
<line x1="187.8" y1="192.6" x2="208.6" y2="211.7" stroke="rgb(0,0,0)"  stroke-width="1.0"/>
<line x1="208.2" y1="221.1" x2="245.9" y2="208.8" stroke="rgb(0,0,0)"  stroke-width="1.0"/>
<line x1="245.9" y1="208.8" x2="254.8" y2="169.4" stroke="rgb(0,0,0)"  stroke-width="1.0"/>
<line x1="240.2" y1="201.3" x2="246.4" y2="173.7" stroke="rgb(0,0,0)"  stroke-width="1.0"/>
<text x="90.930500" y="280.559615" fill="rgb(12,12,255)"  stroke="rgb(12,12,255)" stroke-width="1" font-size="16" >N</text>
<text x="143.416414" y="318.712220" fill="rgb(178,178,0)"  stroke="rgb(178,178,0)" stroke-width="1" font-size="16" >S</text>
<text x="22.000000" y="190.323825" fill="rgb(102,102,102)"  stroke="rgb(102,102,102)" stroke-width="1" font-size="16" >HC</text>
<text x="79.823885" y="350.809319" fill="rgb(255,12,12)"  stroke="rgb(255,12,12)" stroke-width="1" font-size="16" >O</text>
<text x="123.027599" y="216.967086" fill="rgb(255,12,12)"  stroke="rgb(255,12,12)" stroke-width="1" font-size="16" >O</text>
<text x="315.188960" y="48.000000" fill="rgb(102,102,102)"  stroke="rgb(102,102,102)" stroke-width="1" font-size="16" >CH</text>
<text x="339.188960" y="51.680000" fill="rgb(102,102,102)"  stroke="rgb(102,102,102)" stroke-width="1" font-size="13" >2</text>
<text x="286.545699" y="164.883902" fill="rgb(165,40,40)"  stroke="rgb(165,40,40)" stroke-width="1" font-size="16" >Br</text>
<text x="227.800487" y="111.592529" fill="rgb(255,12,12)"  stroke="rgb(255,12,12)" stroke-width="1" font-size="16" >O</text>
<text x="151.893154" y="135.814557" fill="rgb(255,12,12)"  stroke="rgb(255,12,12)" stroke-width="1" font-size="16" >O</text>
<text x="64.671202" y="121.282310" fill="rgb(102,102,102)"  stroke="rgb(102,102,102)" stroke-width="1" font-size="16" >H</text>
<text x="76.671202" y="124.962310" fill="rgb(102,102,102)"  stroke="rgb(102,102,102)" stroke-width="1" font-size="13" >3</text>
<text x="83.171202" y="121.282310" fill="rgb(102,102,102)"  stroke="rgb(102,102,102)" stroke-width="1" font-size="16" >C</text>
<text font-size="18.000000" fill ="black" font-family="sans-serif"
x="10.000000" y="20.000000" ></text>
<title> - OBDepict</title>
</svg>
