<?xml version="1.0"?>
<svg xmlns="http://www.w3.org/2000/svg"
xmlns:xlink="http://www.w3.org/1999/xlink" xmlns:cml="http://www.xml-cml.org/schema" width="580.694" height="287.847" x="0" y="0" font-family="sans-serif" stroke="rgb(0,0,0)" stroke-width="1"  stroke-linecap="round">
<rect x="0%" y="0%" width="100%" height="100%" stroke-width="0" fill="rgb(255,255,255)"  />
<line x1="320.4" y1="143.9" x2="280.3" y2="143.9" stroke="rgb(0,0,0)"  stroke-width="1.0"/>
<line x1="160.2" y1="143.9" x2="187.2" y2="143.9" stroke="rgb(0,0,0)"  stroke-width="1.0"/>
<line x1="500.6" y1="109.2" x2="460.6" y2="109.2" stroke="rgb(0,0,0)"  stroke-width="1.0"/>
<line x1="527.7" y1="109.2" x2="500.6" y2="109.2" stroke="rgb(0,0,0)"  stroke-width="1.0"/>
<line x1="527.7" y1="113.4" x2="500.6" y2="113.4" stroke="rgb(0,0,0)"  stroke-width="1.0"/>
<line x1="527.7" y1="105.0" x2="500.6" y2="105.0" stroke="rgb(0,0,0)"  stroke-width="1.0"/>
<line x1="307.4" y1="77.7" x2="280.3" y2="77.7" stroke="rgb(0,0,0)"  stroke-width="1.0"/>
<line x1="307.4" y1="71.7" x2="280.3" y2="71.7" stroke="rgb(0,0,0)"  stroke-width="1.0"/>
<line x1="307.4" y1="216.1" x2="280.3" y2="216.1" stroke="rgb(0,0,0)"  stroke-width="1.0"/>
<line x1="307.4" y1="210.1" x2="280.3" y2="210.1" stroke="rgb(0,0,0)"  stroke-width="1.0"/>
<line x1="394.1" y1="201.8" x2="380.5" y2="178.0" stroke="rgb(0,0,0)"  stroke-width="1.0"/>
<line x1="53.0" y1="143.9" x2="80.1" y2="143.9" stroke="rgb(0,0,0)"  stroke-width="1.0"/>
<line x1="427.6" y1="143.9" x2="400.5" y2="143.9" stroke="rgb(0,0,0)"  stroke-width="1.0"/>
<line x1="460.6" y1="109.2" x2="447.1" y2="132.7" stroke="rgb(0,0,0)"  stroke-width="1.0"/>
<line x1="387.0" y1="236.6" x2="394.0" y2="224.4" stroke="rgb(0,0,0)"  stroke-width="1.0"/>
<line x1="260.3" y1="178.0" x2="220.2" y2="178.0" stroke="rgb(0,0,0)"  stroke-width="1.0"/>
<line x1="254.3" y1="170.8" x2="226.2" y2="170.8" stroke="rgb(0,0,0)"  stroke-width="1.0"/>
<line x1="220.2" y1="178.0" x2="206.8" y2="155.1" stroke="rgb(0,0,0)"  stroke-width="1.0"/>
<line x1="206.7" y1="132.7" x2="220.2" y2="109.2" stroke="rgb(0,0,0)"  stroke-width="1.0"/>
<line x1="220.2" y1="109.2" x2="260.3" y2="109.2" stroke="rgb(0,0,0)"  stroke-width="1.0"/>
<line x1="226.2" y1="116.4" x2="254.3" y2="116.4" stroke="rgb(0,0,0)"  stroke-width="1.0"/>
<line x1="260.3" y1="109.2" x2="280.3" y2="143.9" stroke="rgb(0,0,0)"  stroke-width="1.0"/>
<line x1="280.3" y1="143.9" x2="260.3" y2="178.0" stroke="rgb(0,0,0)"  stroke-width="1.0"/>
<line x1="280.3" y1="74.7" x2="260.3" y2="40.0" stroke="rgb(0,0,0)"  stroke-width="1.0"/>
<line x1="260.3" y1="40.0" x2="220.2" y2="40.0" stroke="rgb(0,0,0)"  stroke-width="1.0"/>
<line x1="220.2" y1="40.0" x2="200.2" y2="74.7" stroke="rgb(0,0,0)"  stroke-width="1.0"/>
<line x1="200.2" y1="74.7" x2="220.2" y2="109.2" stroke="rgb(0,0,0)"  stroke-width="1.0"/>
<line x1="260.3" y1="109.2" x2="280.3" y2="74.7" stroke="rgb(0,0,0)"  stroke-width="1.0"/>
<line x1="320.4" y1="143.9" x2="340.4" y2="178.0" stroke="rgb(0,0,0)"  stroke-width="1.0"/>
<line x1="329.6" y1="145.4" x2="343.6" y2="169.2" stroke="rgb(0,0,0)"  stroke-width="1.0"/>
<line x1="340.4" y1="178.0" x2="380.5" y2="178.0" stroke="rgb(0,0,0)"  stroke-width="1.0"/>
<line x1="380.5" y1="178.0" x2="400.5" y2="143.9" stroke="rgb(0,0,0)"  stroke-width="1.0"/>
<line x1="377.3" y1="169.2" x2="391.3" y2="145.4" stroke="rgb(0,0,0)"  stroke-width="1.0"/>
<line x1="400.5" y1="143.9" x2="380.5" y2="109.2" stroke="rgb(0,0,0)"  stroke-width="1.0"/>
<line x1="380.5" y1="109.2" x2="340.4" y2="109.2" stroke="rgb(0,0,0)"  stroke-width="1.0"/>
<line x1="374.5" y1="116.4" x2="346.4" y2="116.4" stroke="rgb(0,0,0)"  stroke-width="1.0"/>
<line x1="340.4" y1="109.2" x2="320.4" y2="143.9" stroke="rgb(0,0,0)"  stroke-width="1.0"/>
<line x1="160.2" y1="143.9" x2="140.1" y2="109.2" stroke="rgb(0,0,0)"  stroke-width="1.0"/>
<line x1="150.9" y1="142.3" x2="136.9" y2="118.0" stroke="rgb(0,0,0)"  stroke-width="1.0"/>
<line x1="140.1" y1="109.2" x2="100.1" y2="109.2" stroke="rgb(0,0,0)"  stroke-width="1.0"/>
<line x1="100.1" y1="109.2" x2="80.1" y2="143.9" stroke="rgb(0,0,0)"  stroke-width="1.0"/>
<line x1="103.3" y1="118.0" x2="89.3" y2="142.3" stroke="rgb(0,0,0)"  stroke-width="1.0"/>
<line x1="80.1" y1="143.9" x2="100.1" y2="178.0" stroke="rgb(0,0,0)"  stroke-width="1.0"/>
<line x1="100.1" y1="178.0" x2="140.1" y2="178.0" stroke="rgb(0,0,0)"  stroke-width="1.0"/>
<line x1="106.1" y1="170.8" x2="134.1" y2="170.8" stroke="rgb(0,0,0)"  stroke-width="1.0"/>
<line x1="140.1" y1="178.0" x2="160.2" y2="143.9" stroke="rgb(0,0,0)"  stroke-width="1.0"/>
<line x1="220.2" y1="178.0" x2="200.2" y2="213.1" stroke="rgb(0,0,0)"  stroke-width="1.0"/>
<line x1="200.2" y1="213.1" x2="220.2" y2="247.8" stroke="rgb(0,0,0)"  stroke-width="1.0"/>
<line x1="220.2" y1="247.8" x2="260.3" y2="247.8" stroke="rgb(0,0,0)"  stroke-width="1.0"/>
<line x1="260.3" y1="247.8" x2="280.3" y2="213.1" stroke="rgb(0,0,0)"  stroke-width="1.0"/>
<line x1="280.3" y1="213.1" x2="260.3" y2="178.0" stroke="rgb(0,0,0)"  stroke-width="1.0"/>
<text x="194.222067" y="151.925859" fill="rgb(12,12,255)"  stroke="rgb(12,12,255)" stroke-width="1" font-size="16" >N</text>
<text x="534.693958" y="117.211078" fill="rgb(102,102,102)"  stroke="rgb(102,102,102)" stroke-width="1" font-size="16" >CH</text>
<text x="314.388617" y="82.714781" fill="rgb(255,12,12)"  stroke="rgb(255,12,12)" stroke-width="1" font-size="16" >O</text>
<text x="314.388617" y="221.132081" fill="rgb(255,12,12)"  stroke="rgb(255,12,12)" stroke-width="1" font-size="16" >O</text>
<text x="394.499650" y="221.132081" fill="rgb(255,12,12)"  stroke="rgb(255,12,12)" stroke-width="1" font-size="16" >O</text>
<text x="34.000000" y="151.925859" fill="rgb(127,178,255)"  stroke="rgb(127,178,255)" stroke-width="1" font-size="16" >F</text>
<text x="434.555167" y="151.925859" fill="rgb(255,12,12)"  stroke="rgb(255,12,12)" stroke-width="1" font-size="16" >O</text>
<text x="354.471892" y="255.846862" fill="rgb(102,102,102)"  stroke="rgb(102,102,102)" stroke-width="1" font-size="16" >H</text>
<text x="366.471892" y="259.526862" fill="rgb(102,102,102)"  stroke="rgb(102,102,102)" stroke-width="1" font-size="13" >3</text>
<text x="372.971892" y="255.846862" fill="rgb(102,102,102)"  stroke="rgb(102,102,102)" stroke-width="1" font-size="16" >C</text>
<text font-size="18.000000" fill ="black" font-family="sans-serif"
x="10.000000" y="20.000000" ></text>
<title> - OBDepict</title>
</svg>
