<?xml version="1.0"?>
<svg xmlns="http://www.w3.org/2000/svg"
xmlns:xlink="http://www.w3.org/1999/xlink" xmlns:cml="http://www.xml-cml.org/schema" width="357.154" height="339.981" x="0" y="0" font-family="sans-serif" stroke="rgb(0,0,0)" stroke-width="1"  stroke-linecap="round">
<rect x="0%" y="0%" width="100%" height="100%" stroke-width="0" fill="rgb(255,255,255)"  />
<line x1="178.6" y1="180.0" x2="144.0" y2="200.0" stroke="rgb(0,0,0)"  stroke-width="1.0"/>
<line x1="202.1" y1="193.5" x2="178.6" y2="180.0" stroke="rgb(0,0,0)"  stroke-width="1.0"/>
<line x1="282.6" y1="80.0" x2="282.6" y2="120.0" stroke="rgb(0,0,0)"  stroke-width="1.0"/>
<line x1="282.6" y1="53.0" x2="282.6" y2="80.0" stroke="rgb(0,0,0)"  stroke-width="1.0"/>
<line x1="286.8" y1="53.0" x2="286.8" y2="80.0" stroke="rgb(0,0,0)"  stroke-width="1.0"/>
<line x1="278.4" y1="53.0" x2="278.4" y2="80.0" stroke="rgb(0,0,0)"  stroke-width="1.0"/>
<line x1="181.6" y1="153.0" x2="181.6" y2="180.0" stroke="rgb(0,0,0)"  stroke-width="1.0"/>
<line x1="175.6" y1="153.0" x2="175.6" y2="180.0" stroke="rgb(0,0,0)"  stroke-width="1.0"/>
<line x1="49.8" y1="250.9" x2="73.3" y2="237.4" stroke="rgb(0,0,0)"  stroke-width="1.0"/>
<line x1="52.8" y1="256.1" x2="76.2" y2="242.6" stroke="rgb(0,0,0)"  stroke-width="1.0"/>
<line x1="247.9" y1="180.0" x2="224.6" y2="193.5" stroke="rgb(0,0,0)"  stroke-width="1.0"/>
<line x1="109.3" y1="287.0" x2="109.3" y2="273.0" stroke="rgb(0,0,0)"  stroke-width="1.0"/>
<line x1="132.8" y1="246.5" x2="120.6" y2="253.5" stroke="rgb(0,0,0)"  stroke-width="1.0"/>
<line x1="98.0" y1="253.5" x2="74.7" y2="240.0" stroke="rgb(0,0,0)"  stroke-width="1.0"/>
<line x1="74.7" y1="240.0" x2="74.7" y2="200.0" stroke="rgb(0,0,0)"  stroke-width="1.0"/>
<line x1="74.7" y1="200.0" x2="109.3" y2="180.0" stroke="rgb(0,0,0)"  stroke-width="1.0"/>
<line x1="109.3" y1="180.0" x2="144.0" y2="200.0" stroke="rgb(0,0,0)"  stroke-width="1.0"/>
<line x1="144.0" y1="200.0" x2="144.0" y2="226.8" stroke="rgb(0,0,0)"  stroke-width="1.0"/>
<line x1="136.8" y1="206.0" x2="136.8" y2="224.8" stroke="rgb(0,0,0)"  stroke-width="1.0"/>
<line x1="247.9" y1="180.0" x2="247.9" y2="140.0" stroke="rgb(0,0,0)"  stroke-width="1.0"/>
<line x1="255.1" y1="174.0" x2="255.1" y2="146.0" stroke="rgb(0,0,0)"  stroke-width="1.0"/>
<line x1="247.9" y1="140.0" x2="282.6" y2="120.0" stroke="rgb(0,0,0)"  stroke-width="1.0"/>
<line x1="282.6" y1="120.0" x2="317.2" y2="140.0" stroke="rgb(0,0,0)"  stroke-width="1.0"/>
<line x1="284.2" y1="129.2" x2="308.4" y2="143.2" stroke="rgb(0,0,0)"  stroke-width="1.0"/>
<line x1="317.2" y1="140.0" x2="317.2" y2="180.0" stroke="rgb(0,0,0)"  stroke-width="1.0"/>
<line x1="317.2" y1="180.0" x2="282.6" y2="200.0" stroke="rgb(0,0,0)"  stroke-width="1.0"/>
<line x1="308.4" y1="176.8" x2="284.2" y2="190.8" stroke="rgb(0,0,0)"  stroke-width="1.0"/>
<line x1="282.6" y1="200.0" x2="247.9" y2="180.0" stroke="rgb(0,0,0)"  stroke-width="1.0"/>
<text x="138.031375" y="247.985749" fill="rgb(12,12,255)"  stroke="rgb(12,12,255)" stroke-width="1" font-size="16" >N</text>
<text x="103.289608" y="267.984324" fill="rgb(12,12,255)"  stroke="rgb(12,12,255)" stroke-width="1" font-size="16" >N</text>
<text x="207.320983" y="207.988600" fill="rgb(12,12,255)"  stroke="rgb(12,12,255)" stroke-width="1" font-size="16" >N</text>
<text x="207.320983" y="223.988600" fill="rgb(12,12,255)"  stroke="rgb(12,12,255)" stroke-width="1" font-size="16" >H</text>
<text x="276.610591" y="48.000000" fill="rgb(102,102,102)"  stroke="rgb(102,102,102)" stroke-width="1" font-size="16" >CH</text>
<text x="172.574368" y="147.992875" fill="rgb(255,12,12)"  stroke="rgb(255,12,12)" stroke-width="1" font-size="16" >O</text>
<text x="34.000000" y="267.984324" fill="rgb(255,12,12)"  stroke="rgb(255,12,12)" stroke-width="1" font-size="16" >O</text>
<text x="105.289608" y="307.981474" fill="rgb(102,102,102)"  stroke="rgb(102,102,102)" stroke-width="1" font-size="16" >CH</text>
<text x="129.289608" y="311.661474" fill="rgb(102,102,102)"  stroke="rgb(102,102,102)" stroke-width="1" font-size="13" >3</text>
<text font-size="18.000000" fill ="black" font-family="sans-serif"
x="10.000000" y="20.000000" ></text>
<title> - OBDepict</title>
</svg>
