<?xml version="1.0"?>
<svg xmlns="http://www.w3.org/2000/svg"
xmlns:xlink="http://www.w3.org/1999/xlink" xmlns:cml="http://www.xml-cml.org/schema" width="356.908" height="253.295" x="0" y="0" font-family="sans-serif" stroke="rgb(0,0,0)" stroke-width="1"  stroke-linecap="round">
<rect x="0%" y="0%" width="100%" height="100%" stroke-width="0" fill="rgb(255,255,255)"  />
<line x1="210.9" y1="83.4" x2="170.9" y2="83.4" stroke="rgb(0,0,0)"  stroke-width="1.0"/>
<line x1="132.9" y1="183.6" x2="159.8" y2="153.9" stroke="rgb(0,0,0)"  stroke-width="1.0"/>
<line x1="304.8" y1="127.1" x2="283.0" y2="111.1" stroke="rgb(0,0,0)"  stroke-width="1.0"/>
<line x1="114.9" y1="203.6" x2="132.9" y2="183.6" stroke="rgb(0,0,0)"  stroke-width="1.0"/>
<line x1="111.8" y1="200.8" x2="129.8" y2="180.8" stroke="rgb(0,0,0)"  stroke-width="1.0"/>
<line x1="118.1" y1="206.4" x2="136.0" y2="186.4" stroke="rgb(0,0,0)"  stroke-width="1.0"/>
<line x1="300.5" y1="166.6" x2="304.8" y2="127.1" stroke="rgb(0,0,0)"  stroke-width="1.0"/>
<line x1="296.0" y1="50.1" x2="274.2" y2="65.9" stroke="rgb(0,0,0)"  stroke-width="1.0"/>
<line x1="292.5" y1="45.2" x2="270.7" y2="61.0" stroke="rgb(0,0,0)"  stroke-width="1.0"/>
<line x1="159.8" y1="153.9" x2="151.4" y2="128.1" stroke="rgb(0,0,0)"  stroke-width="1.0"/>
<line x1="300.5" y1="166.6" x2="316.9" y2="203.2" stroke="rgb(0,0,0)"  stroke-width="1.0"/>
<line x1="316.9" y1="203.2" x2="277.1" y2="199.2" stroke="rgb(0,0,0)"  stroke-width="1.0"/>
<line x1="277.1" y1="199.2" x2="300.5" y2="166.6" stroke="rgb(0,0,0)"  stroke-width="1.0"/>
<line x1="170.9" y1="83.4" x2="155.1" y2="105.2" stroke="rgb(0,0,0)"  stroke-width="1.0"/>
<line x1="135.1" y1="111.7" x2="109.3" y2="103.4" stroke="rgb(0,0,0)"  stroke-width="1.0"/>
<line x1="109.3" y1="103.4" x2="109.3" y2="63.4" stroke="rgb(0,0,0)"  stroke-width="1.0"/>
<line x1="116.5" y1="97.4" x2="116.5" y2="69.4" stroke="rgb(0,0,0)"  stroke-width="1.0"/>
<line x1="109.3" y1="63.4" x2="135.1" y2="55.1" stroke="rgb(0,0,0)"  stroke-width="1.0"/>
<line x1="155.2" y1="61.8" x2="170.9" y2="83.4" stroke="rgb(0,0,0)"  stroke-width="1.0"/>
<line x1="150.5" y1="67.6" x2="161.5" y2="82.8" stroke="rgb(0,0,0)"  stroke-width="1.0"/>
<line x1="210.9" y1="83.4" x2="234.3" y2="115.7" stroke="rgb(0,0,0)"  stroke-width="1.0"/>
<line x1="234.3" y1="115.7" x2="260.1" y2="107.4" stroke="rgb(0,0,0)"  stroke-width="1.0"/>
<line x1="272.5" y1="90.4" x2="272.5" y2="63.4" stroke="rgb(0,0,0)"  stroke-width="1.0"/>
<line x1="272.5" y1="63.4" x2="234.3" y2="51.1" stroke="rgb(0,0,0)"  stroke-width="1.0"/>
<line x1="234.3" y1="51.1" x2="210.9" y2="83.4" stroke="rgb(0,0,0)"  stroke-width="1.0"/>
<line x1="74.7" y1="123.4" x2="109.3" y2="103.4" stroke="rgb(0,0,0)"  stroke-width="1.0"/>
<line x1="109.3" y1="63.4" x2="74.7" y2="43.4" stroke="rgb(0,0,0)"  stroke-width="1.0"/>
<line x1="74.7" y1="43.4" x2="40.0" y2="63.4" stroke="rgb(0,0,0)"  stroke-width="1.0"/>
<line x1="73.1" y1="52.7" x2="48.8" y2="66.7" stroke="rgb(0,0,0)"  stroke-width="1.0"/>
<line x1="40.0" y1="63.4" x2="40.0" y2="103.4" stroke="rgb(0,0,0)"  stroke-width="1.0"/>
<line x1="40.0" y1="103.4" x2="74.7" y2="123.4" stroke="rgb(0,0,0)"  stroke-width="1.0"/>
<line x1="48.8" y1="100.2" x2="73.1" y2="114.2" stroke="rgb(0,0,0)"  stroke-width="1.0"/>
<text x="141.452489" y="59.110259" fill="rgb(12,12,255)"  stroke="rgb(12,12,255)" stroke-width="1" font-size="16" >N</text>
<text x="141.452489" y="123.740747" fill="rgb(12,12,255)"  stroke="rgb(12,12,255)" stroke-width="1" font-size="16" >N</text>
<text x="266.476832" y="111.423484" fill="rgb(12,12,255)"  stroke="rgb(12,12,255)" stroke-width="1" font-size="16" >N</text>
<text x="88.249523" y="221.294830" fill="rgb(102,102,102)"  stroke="rgb(102,102,102)" stroke-width="1" font-size="16" >HC</text>
<text x="298.789653" y="48.000000" fill="rgb(255,12,12)"  stroke="rgb(255,12,12)" stroke-width="1" font-size="16" >O</text>
<text font-size="18.000000" fill ="black" font-family="sans-serif"
x="10.000000" y="20.000000" ></text>
<title> - OBDepict</title>
</svg>
