<?xml version="1.0"?>
<svg xmlns="http://www.w3.org/2000/svg"
xmlns:xlink="http://www.w3.org/1999/xlink" xmlns:cml="http://www.xml-cml.org/schema" width="426.021" height="278.765" x="0" y="0" font-family="sans-serif" stroke="rgb(0,0,0)" stroke-width="1"  stroke-linecap="round">
<rect x="0%" y="0%" width="100%" height="100%" stroke-width="0" fill="rgb(255,255,255)"  />
<line x1="232.8" y1="112.4" x2="205.8" y2="112.1" stroke="rgb(0,0,0)"  stroke-width="1.0"/>
<line x1="232.9" y1="106.4" x2="205.9" y2="106.1" stroke="rgb(0,0,0)"  stroke-width="1.0"/>
<line x1="265.8" y1="74.9" x2="252.3" y2="98.2" stroke="rgb(0,0,0)"  stroke-width="1.0"/>
<line x1="305.8" y1="74.9" x2="265.8" y2="74.9" stroke="rgb(0,0,0)"  stroke-width="1.0"/>
<line x1="167.9" y1="209.1" x2="194.5" y2="179.4" stroke="rgb(0,0,0)"  stroke-width="1.0"/>
<line x1="149.9" y1="229.1" x2="167.9" y2="209.1" stroke="rgb(0,0,0)"  stroke-width="1.0"/>
<line x1="146.8" y1="226.3" x2="164.7" y2="206.3" stroke="rgb(0,0,0)"  stroke-width="1.0"/>
<line x1="153.0" y1="231.9" x2="171.0" y2="211.9" stroke="rgb(0,0,0)"  stroke-width="1.0"/>
<line x1="254.9" y1="50.1" x2="268.4" y2="73.4" stroke="rgb(0,0,0)"  stroke-width="1.0"/>
<line x1="249.8" y1="53.2" x2="263.2" y2="76.4" stroke="rgb(0,0,0)"  stroke-width="1.0"/>
<line x1="194.5" y1="179.4" x2="186.3" y2="153.6" stroke="rgb(0,0,0)"  stroke-width="1.0"/>
<line x1="311.9" y1="133.0" x2="325.8" y2="109.1" stroke="rgb(0,0,0)"  stroke-width="1.0"/>
<line x1="51.3" y1="75.4" x2="75.1" y2="89.1" stroke="rgb(0,0,0)"  stroke-width="1.0"/>
<line x1="205.8" y1="109.1" x2="190.0" y2="87.3" stroke="rgb(0,0,0)"  stroke-width="1.0"/>
<line x1="170.0" y1="80.8" x2="144.2" y2="89.1" stroke="rgb(0,0,0)"  stroke-width="1.0"/>
<line x1="144.2" y1="89.1" x2="144.2" y2="129.1" stroke="rgb(0,0,0)"  stroke-width="1.0"/>
<line x1="151.4" y1="95.1" x2="151.4" y2="123.1" stroke="rgb(0,0,0)"  stroke-width="1.0"/>
<line x1="144.2" y1="129.1" x2="170.0" y2="137.3" stroke="rgb(0,0,0)"  stroke-width="1.0"/>
<line x1="190.1" y1="130.7" x2="205.8" y2="109.1" stroke="rgb(0,0,0)"  stroke-width="1.0"/>
<line x1="305.8" y1="74.9" x2="325.8" y2="109.1" stroke="rgb(0,0,0)"  stroke-width="1.0"/>
<line x1="315.1" y1="76.5" x2="329.0" y2="100.3" stroke="rgb(0,0,0)"  stroke-width="1.0"/>
<line x1="325.8" y1="109.1" x2="365.4" y2="109.7" stroke="rgb(0,0,0)"  stroke-width="1.0"/>
<line x1="365.4" y1="109.7" x2="386.0" y2="75.8" stroke="rgb(0,0,0)"  stroke-width="1.0"/>
<line x1="362.4" y1="100.8" x2="376.8" y2="77.1" stroke="rgb(0,0,0)"  stroke-width="1.0"/>
<line x1="386.0" y1="75.8" x2="366.0" y2="40.4" stroke="rgb(0,0,0)"  stroke-width="1.0"/>
<line x1="366.0" y1="40.4" x2="326.4" y2="40.0" stroke="rgb(0,0,0)"  stroke-width="1.0"/>
<line x1="359.9" y1="47.5" x2="332.4" y2="47.3" stroke="rgb(0,0,0)"  stroke-width="1.0"/>
<line x1="326.4" y1="40.0" x2="305.8" y2="74.9" stroke="rgb(0,0,0)"  stroke-width="1.0"/>
<line x1="109.7" y1="149.1" x2="75.1" y2="129.1" stroke="rgb(0,0,0)"  stroke-width="1.0"/>
<line x1="108.1" y1="139.8" x2="83.9" y2="125.9" stroke="rgb(0,0,0)"  stroke-width="1.0"/>
<line x1="75.1" y1="129.1" x2="75.1" y2="89.1" stroke="rgb(0,0,0)"  stroke-width="1.0"/>
<line x1="75.1" y1="89.1" x2="109.7" y2="69.1" stroke="rgb(0,0,0)"  stroke-width="1.0"/>
<line x1="83.9" y1="92.3" x2="108.1" y2="78.3" stroke="rgb(0,0,0)"  stroke-width="1.0"/>
<line x1="109.7" y1="69.1" x2="144.2" y2="89.1" stroke="rgb(0,0,0)"  stroke-width="1.0"/>
<line x1="144.2" y1="129.1" x2="109.7" y2="149.1" stroke="rgb(0,0,0)"  stroke-width="1.0"/>
<text x="239.832930" y="117.486635" fill="rgb(12,12,255)"  stroke="rgb(12,12,255)" stroke-width="1" font-size="16" >N</text>
<text x="176.408173" y="149.199014" fill="rgb(12,12,255)"  stroke="rgb(12,12,255)" stroke-width="1" font-size="16" >N</text>
<text x="176.408173" y="84.763137" fill="rgb(178,178,0)"  stroke="rgb(178,178,0)" stroke-width="1" font-size="16" >S</text>
<text x="123.199014" y="246.764771" fill="rgb(102,102,102)"  stroke="rgb(102,102,102)" stroke-width="1" font-size="16" >HC</text>
<text x="239.832930" y="48.401545" fill="rgb(255,12,12)"  stroke="rgb(255,12,12)" stroke-width="1" font-size="16" >O</text>
<text x="287.421239" y="152.232372" fill="rgb(165,40,40)"  stroke="rgb(165,40,40)" stroke-width="1" font-size="16" >Br</text>
<text x="34.000000" y="76.882212" fill="rgb(191,191,191)"  stroke="rgb(191,191,191)" stroke-width="1" font-size="16" >H</text>
<text font-size="18.000000" fill ="black" font-family="sans-serif"
x="10.000000" y="20.000000" ></text>
<title> - OBDepict</title>
</svg>
