<?xml version="1.0"?>
<svg xmlns="http://www.w3.org/2000/svg"
xmlns:xlink="http://www.w3.org/1999/xlink" xmlns:cml="http://www.xml-cml.org/schema" width="307.697" height="350.727" x="0" y="0" font-family="sans-serif" stroke="rgb(0,0,0)" stroke-width="1"  stroke-linecap="round">
<rect x="0%" y="0%" width="100%" height="100%" stroke-width="0" fill="rgb(255,255,255)"  />
<line x1="189.3" y1="148.3" x2="164.9" y2="162.4" stroke="rgb(0,0,0)"  stroke-width="1.0"/>
<line x1="186.3" y1="143.1" x2="161.9" y2="157.2" stroke="rgb(0,0,0)"  stroke-width="1.0"/>
<line x1="198.6" y1="99.6" x2="198.9" y2="126.2" stroke="rgb(0,0,0)"  stroke-width="1.0"/>
<line x1="179.8" y1="266.5" x2="188.9" y2="227.5" stroke="rgb(0,0,0)"  stroke-width="1.0"/>
<line x1="173.6" y1="293.2" x2="179.8" y2="266.5" stroke="rgb(0,0,0)"  stroke-width="1.0"/>
<line x1="169.5" y1="292.3" x2="175.7" y2="265.5" stroke="rgb(0,0,0)"  stroke-width="1.0"/>
<line x1="177.7" y1="294.2" x2="183.9" y2="267.4" stroke="rgb(0,0,0)"  stroke-width="1.0"/>
<line x1="176.8" y1="83.4" x2="200.1" y2="97.0" stroke="rgb(0,0,0)"  stroke-width="1.0"/>
<line x1="173.8" y1="88.5" x2="197.1" y2="102.2" stroke="rgb(0,0,0)"  stroke-width="1.0"/>
<line x1="188.9" y1="227.5" x2="168.7" y2="208.7" stroke="rgb(0,0,0)"  stroke-width="1.0"/>
<line x1="233.1" y1="79.6" x2="198.6" y2="99.6" stroke="rgb(0,0,0)"  stroke-width="1.0"/>
<line x1="112.4" y1="265.4" x2="99.2" y2="241.0" stroke="rgb(0,0,0)"  stroke-width="1.0"/>
<line x1="256.5" y1="93.2" x2="233.1" y2="79.6" stroke="rgb(0,0,0)"  stroke-width="1.0"/>
<line x1="233.0" y1="53.0" x2="233.1" y2="79.6" stroke="rgb(0,0,0)"  stroke-width="1.0"/>
<line x1="104.3" y1="299.7" x2="111.7" y2="287.8" stroke="rgb(0,0,0)"  stroke-width="1.0"/>
<line x1="163.4" y1="159.8" x2="140.1" y2="148.9" stroke="rgb(0,0,0)"  stroke-width="1.0"/>
<line x1="119.3" y1="152.8" x2="100.4" y2="172.3" stroke="rgb(0,0,0)"  stroke-width="1.0"/>
<line x1="100.4" y1="172.3" x2="120.2" y2="207.1" stroke="rgb(0,0,0)"  stroke-width="1.0"/>
<line x1="109.6" y1="174.0" x2="123.5" y2="198.3" stroke="rgb(0,0,0)"  stroke-width="1.0"/>
<line x1="120.2" y1="207.1" x2="146.4" y2="202.2" stroke="rgb(0,0,0)"  stroke-width="1.0"/>
<line x1="160.6" y1="186.9" x2="163.4" y2="159.8" stroke="rgb(0,0,0)"  stroke-width="1.0"/>
<line x1="99.2" y1="241.0" x2="60.0" y2="240.8" stroke="rgb(0,0,0)"  stroke-width="1.0"/>
<line x1="93.2" y1="233.8" x2="66.0" y2="233.7" stroke="rgb(0,0,0)"  stroke-width="1.0"/>
<line x1="60.0" y1="240.8" x2="40.0" y2="205.3" stroke="rgb(0,0,0)"  stroke-width="1.0"/>
<line x1="40.0" y1="205.3" x2="61.2" y2="171.3" stroke="rgb(0,0,0)"  stroke-width="1.0"/>
<line x1="49.3" y1="204.0" x2="64.1" y2="180.2" stroke="rgb(0,0,0)"  stroke-width="1.0"/>
<line x1="61.2" y1="171.3" x2="100.4" y2="172.3" stroke="rgb(0,0,0)"  stroke-width="1.0"/>
<line x1="120.2" y1="207.1" x2="99.2" y2="241.0" stroke="rgb(0,0,0)"  stroke-width="1.0"/>
<text x="193.002528" y="147.202602" fill="rgb(12,12,255)"  stroke="rgb(12,12,255)" stroke-width="1" font-size="16" >N</text>
<text x="153.202188" y="207.812405" fill="rgb(12,12,255)"  stroke="rgb(12,12,255)" stroke-width="1" font-size="16" >N</text>
<text x="122.291092" y="151.441118" fill="rgb(178,178,0)"  stroke="rgb(178,178,0)" stroke-width="1" font-size="16" >S</text>
<text x="152.719893" y="313.877134" fill="rgb(102,102,102)"  stroke="rgb(102,102,102)" stroke-width="1" font-size="16" >HC</text>
<text x="158.051748" y="87.392977" fill="rgb(255,12,12)"  stroke="rgb(255,12,12)" stroke-width="1" font-size="16" >O</text>
<text x="112.591971" y="284.784623" fill="rgb(255,12,12)"  stroke="rgb(255,12,12)" stroke-width="1" font-size="16" >O</text>
<text x="263.696547" y="107.804776" fill="rgb(102,102,102)"  stroke="rgb(102,102,102)" stroke-width="1" font-size="16" >CH</text>
<text x="287.696547" y="111.484776" fill="rgb(102,102,102)"  stroke="rgb(102,102,102)" stroke-width="1" font-size="13" >3</text>
<text x="206.944599" y="48.000000" fill="rgb(102,102,102)"  stroke="rgb(102,102,102)" stroke-width="1" font-size="16" >H</text>
<text x="218.944599" y="51.680000" fill="rgb(102,102,102)"  stroke="rgb(102,102,102)" stroke-width="1" font-size="13" >3</text>
<text x="225.444599" y="48.000000" fill="rgb(102,102,102)"  stroke="rgb(102,102,102)" stroke-width="1" font-size="16" >C</text>
<text x="71.379995" y="318.726694" fill="rgb(102,102,102)"  stroke="rgb(102,102,102)" stroke-width="1" font-size="16" >H</text>
<text x="83.379995" y="322.406694" fill="rgb(102,102,102)"  stroke="rgb(102,102,102)" stroke-width="1" font-size="13" >3</text>
<text x="89.879995" y="318.726694" fill="rgb(102,102,102)"  stroke="rgb(102,102,102)" stroke-width="1" font-size="16" >C</text>
<text font-size="18.000000" fill ="black" font-family="sans-serif"
x="10.000000" y="20.000000" ></text>
<title> - OBDepict</title>
</svg>
