<?xml version="1.0"?>
<svg xmlns="http://www.w3.org/2000/svg"
xmlns:xlink="http://www.w3.org/1999/xlink" xmlns:cml="http://www.xml-cml.org/schema" width="495.649" height="300.05" x="0" y="0" font-family="sans-serif" stroke="rgb(0,0,0)" stroke-width="1"  stroke-linecap="round">
<rect x="0%" y="0%" width="100%" height="100%" stroke-width="0" fill="rgb(255,255,255)"  />
<line x1="421.1" y1="100.0" x2="386.5" y2="80.0" stroke="rgb(0,0,0)"  stroke-width="1.0"/>
<line x1="444.4" y1="113.5" x2="421.1" y2="100.0" stroke="rgb(0,0,0)"  stroke-width="1.0"/>
<line x1="442.3" y1="117.1" x2="419.0" y2="103.6" stroke="rgb(0,0,0)"  stroke-width="1.0"/>
<line x1="446.5" y1="109.9" x2="423.2" y2="96.4" stroke="rgb(0,0,0)"  stroke-width="1.0"/>
<line x1="120.6" y1="153.5" x2="143.9" y2="140.0" stroke="rgb(0,0,0)"  stroke-width="1.0"/>
<line x1="317.2" y1="80.0" x2="282.5" y2="100.0" stroke="rgb(0,0,0)"  stroke-width="1.0"/>
<line x1="74.6" y1="140.0" x2="98.0" y2="153.5" stroke="rgb(0,0,0)"  stroke-width="1.0"/>
<line x1="281.0" y1="102.6" x2="246.4" y2="82.6" stroke="rgb(0,0,0)"  stroke-width="1.0"/>
<line x1="284.0" y1="97.4" x2="249.4" y2="77.4" stroke="rgb(0,0,0)"  stroke-width="1.0"/>
<line x1="247.9" y1="80.0" x2="213.2" y2="100.0" stroke="rgb(0,0,0)"  stroke-width="1.0"/>
<line x1="320.2" y1="53.0" x2="320.2" y2="80.0" stroke="rgb(0,0,0)"  stroke-width="1.0"/>
<line x1="314.2" y1="53.0" x2="314.2" y2="80.0" stroke="rgb(0,0,0)"  stroke-width="1.0"/>
<line x1="340.5" y1="93.5" x2="317.2" y2="80.0" stroke="rgb(0,0,0)"  stroke-width="1.0"/>
<line x1="74.6" y1="113.0" x2="74.6" y2="140.0" stroke="rgb(0,0,0)"  stroke-width="1.0"/>
<line x1="51.3" y1="153.5" x2="74.6" y2="140.0" stroke="rgb(0,0,0)"  stroke-width="1.0"/>
<line x1="178.6" y1="187.0" x2="178.6" y2="160.0" stroke="rgb(0,0,0)"  stroke-width="1.0"/>
<line x1="386.5" y1="80.0" x2="363.1" y2="93.5" stroke="rgb(0,0,0)"  stroke-width="1.0"/>
<line x1="213.2" y1="220.0" x2="189.9" y2="206.5" stroke="rgb(0,0,0)"  stroke-width="1.0"/>
<line x1="213.2" y1="247.1" x2="213.2" y2="220.0" stroke="rgb(0,0,0)"  stroke-width="1.0"/>
<line x1="143.9" y1="140.0" x2="143.9" y2="100.0" stroke="rgb(0,0,0)"  stroke-width="1.0"/>
<line x1="143.9" y1="100.0" x2="178.6" y2="80.0" stroke="rgb(0,0,0)"  stroke-width="1.0"/>
<line x1="152.7" y1="103.3" x2="177.0" y2="89.2" stroke="rgb(0,0,0)"  stroke-width="1.0"/>
<line x1="178.6" y1="80.0" x2="213.2" y2="100.0" stroke="rgb(0,0,0)"  stroke-width="1.0"/>
<line x1="213.2" y1="100.0" x2="213.2" y2="140.0" stroke="rgb(0,0,0)"  stroke-width="1.0"/>
<line x1="206.0" y1="106.0" x2="206.0" y2="134.0" stroke="rgb(0,0,0)"  stroke-width="1.0"/>
<line x1="213.2" y1="140.0" x2="178.6" y2="160.0" stroke="rgb(0,0,0)"  stroke-width="1.0"/>
<line x1="178.6" y1="160.0" x2="143.9" y2="140.0" stroke="rgb(0,0,0)"  stroke-width="1.0"/>
<line x1="177.0" y1="150.8" x2="152.7" y2="136.8" stroke="rgb(0,0,0)"  stroke-width="1.0"/>
<text x="449.648541" y="128.018212" fill="rgb(102,102,102)"  stroke="rgb(102,102,102)" stroke-width="1" font-size="16" >CH</text>
<text x="103.305471" y="168.027318" fill="rgb(255,12,12)"  stroke="rgb(255,12,12)" stroke-width="1" font-size="16" >O</text>
<text x="311.231583" y="48.000000" fill="rgb(255,12,12)"  stroke="rgb(255,12,12)" stroke-width="1" font-size="16" >O</text>
<text x="345.784902" y="108.013659" fill="rgb(12,12,255)"  stroke="rgb(12,12,255)" stroke-width="1" font-size="16" >N</text>
<text x="345.784902" y="124.013659" fill="rgb(12,12,255)"  stroke="rgb(12,12,255)" stroke-width="1" font-size="16" >H</text>
<text x="68.553319" y="108.013659" fill="rgb(127,178,255)"  stroke="rgb(127,178,255)" stroke-width="1" font-size="16" >F</text>
<text x="34.000000" y="168.027318" fill="rgb(127,178,255)"  stroke="rgb(127,178,255)" stroke-width="1" font-size="16" >F</text>
<text x="172.615791" y="208.036424" fill="rgb(255,12,12)"  stroke="rgb(255,12,12)" stroke-width="1" font-size="16" >O</text>
<text x="209.169110" y="268.050084" fill="rgb(102,102,102)"  stroke="rgb(102,102,102)" stroke-width="1" font-size="16" >CH</text>
<text x="233.169110" y="271.730084" fill="rgb(102,102,102)"  stroke="rgb(102,102,102)" stroke-width="1" font-size="13" >3</text>
<text font-size="18.000000" fill ="black" font-family="sans-serif"
x="10.000000" y="20.000000" ></text>
<title> - OBDepict</title>
</svg>
