<?xml version="1.0"?>
<svg xmlns="http://www.w3.org/2000/svg"
xmlns:xlink="http://www.w3.org/1999/xlink" xmlns:cml="http://www.xml-cml.org/schema" width="357.464" height="382.854" x="0" y="0" font-family="sans-serif" stroke="rgb(0,0,0)" stroke-width="1"  stroke-linecap="round">
<rect x="0%" y="0%" width="100%" height="100%" stroke-width="0" fill="rgb(255,255,255)"  />
<line x1="200.5" y1="263.3" x2="162.4" y2="275.6" stroke="rgb(0,0,0)"  stroke-width="1.0"/>
<line x1="198.7" y1="257.6" x2="160.6" y2="269.9" stroke="rgb(0,0,0)"  stroke-width="1.0"/>
<line x1="50.7" y1="221.3" x2="59.1" y2="260.4" stroke="rgb(0,0,0)"  stroke-width="1.0"/>
<line x1="43.5" y1="195.2" x2="50.7" y2="221.3" stroke="rgb(0,0,0)"  stroke-width="1.0"/>
<line x1="47.5" y1="194.1" x2="54.7" y2="220.2" stroke="rgb(0,0,0)"  stroke-width="1.0"/>
<line x1="39.4" y1="196.3" x2="46.6" y2="222.5" stroke="rgb(0,0,0)"  stroke-width="1.0"/>
<line x1="91.0" y1="330.6" x2="106.9" y2="309.0" stroke="rgb(0,0,0)"  stroke-width="1.0"/>
<line x1="95.9" y1="334.2" x2="111.7" y2="312.6" stroke="rgb(0,0,0)"  stroke-width="1.0"/>
<line x1="132.0" y1="222.2" x2="132.3" y2="249.1" stroke="rgb(0,0,0)"  stroke-width="1.0"/>
<line x1="126.0" y1="222.3" x2="126.3" y2="249.2" stroke="rgb(0,0,0)"  stroke-width="1.0"/>
<line x1="207.4" y1="221.3" x2="199.6" y2="260.4" stroke="rgb(0,0,0)"  stroke-width="1.0"/>
<line x1="230.1" y1="116.6" x2="224.4" y2="142.8" stroke="rgb(0,0,0)"  stroke-width="1.0"/>
<line x1="59.1" y1="260.4" x2="84.5" y2="268.7" stroke="rgb(0,0,0)"  stroke-width="1.0"/>
<line x1="166.7" y1="137.0" x2="186.7" y2="155.3" stroke="rgb(0,0,0)"  stroke-width="1.0"/>
<line x1="270.9" y1="91.4" x2="245.2" y2="99.8" stroke="rgb(0,0,0)"  stroke-width="1.0"/>
<line x1="279.2" y1="52.5" x2="270.9" y2="91.4" stroke="rgb(0,0,0)"  stroke-width="1.0"/>
<line x1="290.9" y1="109.3" x2="270.9" y2="91.4" stroke="rgb(0,0,0)"  stroke-width="1.0"/>
<line x1="305.1" y1="44.0" x2="279.2" y2="52.5" stroke="rgb(0,0,0)"  stroke-width="1.0"/>
<line x1="107.3" y1="265.1" x2="129.3" y2="249.2" stroke="rgb(0,0,0)"  stroke-width="1.0"/>
<line x1="129.3" y1="249.2" x2="161.5" y2="272.7" stroke="rgb(0,0,0)"  stroke-width="1.0"/>
<line x1="161.5" y1="272.7" x2="153.2" y2="298.4" stroke="rgb(0,0,0)"  stroke-width="1.0"/>
<line x1="136.2" y1="310.8" x2="109.3" y2="310.8" stroke="rgb(0,0,0)"  stroke-width="1.0"/>
<line x1="109.3" y1="310.8" x2="100.9" y2="285.1" stroke="rgb(0,0,0)"  stroke-width="1.0"/>
<line x1="186.7" y1="155.3" x2="224.4" y2="142.8" stroke="rgb(0,0,0)"  stroke-width="1.0"/>
<line x1="194.7" y1="160.2" x2="220.9" y2="151.5" stroke="rgb(0,0,0)"  stroke-width="1.0"/>
<line x1="224.4" y1="142.8" x2="254.4" y2="169.8" stroke="rgb(0,0,0)"  stroke-width="1.0"/>
<line x1="254.4" y1="169.8" x2="246.1" y2="208.7" stroke="rgb(0,0,0)"  stroke-width="1.0"/>
<line x1="246.1" y1="174.1" x2="240.3" y2="201.3" stroke="rgb(0,0,0)"  stroke-width="1.0"/>
<line x1="246.1" y1="208.7" x2="207.4" y2="221.3" stroke="rgb(0,0,0)"  stroke-width="1.0"/>
<line x1="207.4" y1="221.3" x2="177.8" y2="194.8" stroke="rgb(0,0,0)"  stroke-width="1.0"/>
<line x1="207.8" y1="212.0" x2="187.1" y2="193.4" stroke="rgb(0,0,0)"  stroke-width="1.0"/>
<line x1="177.8" y1="194.8" x2="186.7" y2="155.3" stroke="rgb(0,0,0)"  stroke-width="1.0"/>
<text x="90.822135" y="280.729009" fill="rgb(12,12,255)"  stroke="rgb(12,12,255)" stroke-width="1" font-size="16" >N</text>
<text x="143.211475" y="318.812290" fill="rgb(178,178,0)"  stroke="rgb(178,178,0)" stroke-width="1" font-size="16" >S</text>
<text x="22.000000" y="190.663333" fill="rgb(102,102,102)"  stroke="rgb(102,102,102)" stroke-width="1" font-size="16" >HC</text>
<text x="79.737725" y="350.854374" fill="rgb(255,12,12)"  stroke="rgb(255,12,12)" stroke-width="1" font-size="16" >O</text>
<text x="122.859374" y="217.260104" fill="rgb(255,12,12)"  stroke="rgb(255,12,12)" stroke-width="1" font-size="16" >O</text>
<text x="226.833853" y="111.875851" fill="rgb(255,12,12)"  stroke="rgb(255,12,12)" stroke-width="1" font-size="16" >O</text>
<text x="139.069392" y="136.258646" fill="rgb(30,239,30)"  stroke="rgb(30,239,30)" stroke-width="1" font-size="16" >Cl</text>
<text x="296.536926" y="125.983281" fill="rgb(102,102,102)"  stroke="rgb(102,102,102)" stroke-width="1" font-size="16" >CH</text>
<text x="320.536926" y="129.663281" fill="rgb(102,102,102)"  stroke="rgb(102,102,102)" stroke-width="1" font-size="13" >3</text>
<text x="313.463905" y="48.000000" fill="rgb(102,102,102)"  stroke="rgb(102,102,102)" stroke-width="1" font-size="16" >CH</text>
<text x="337.463905" y="51.680000" fill="rgb(102,102,102)"  stroke="rgb(102,102,102)" stroke-width="1" font-size="13" >3</text>
<text font-size="18.000000" fill ="black" font-family="sans-serif"
x="10.000000" y="20.000000" ></text>
<title> - OBDepict</title>
</svg>
