<?xml version="1.0"?>
<svg xmlns="http://www.w3.org/2000/svg"
xmlns:xlink="http://www.w3.org/1999/xlink" xmlns:cml="http://www.xml-cml.org/schema" width="476.65" height="278.328" x="0" y="0" font-family="sans-serif" stroke="rgb(0,0,0)" stroke-width="1"  stroke-linecap="round">
<rect x="0%" y="0%" width="100%" height="100%" stroke-width="0" fill="rgb(255,255,255)"  />
<line x1="232.8" y1="111.9" x2="205.8" y2="111.7" stroke="rgb(0,0,0)"  stroke-width="1.0"/>
<line x1="232.8" y1="105.9" x2="205.8" y2="105.7" stroke="rgb(0,0,0)"  stroke-width="1.0"/>
<line x1="389.7" y1="110.2" x2="367.2" y2="94.1" stroke="rgb(0,0,0)"  stroke-width="1.0"/>
<line x1="265.8" y1="74.5" x2="252.3" y2="97.8" stroke="rgb(0,0,0)"  stroke-width="1.0"/>
<line x1="305.8" y1="74.5" x2="265.8" y2="74.5" stroke="rgb(0,0,0)"  stroke-width="1.0"/>
<line x1="167.8" y1="208.6" x2="194.5" y2="179.0" stroke="rgb(0,0,0)"  stroke-width="1.0"/>
<line x1="149.9" y1="228.7" x2="167.8" y2="208.6" stroke="rgb(0,0,0)"  stroke-width="1.0"/>
<line x1="146.7" y1="225.8" x2="164.7" y2="205.8" stroke="rgb(0,0,0)"  stroke-width="1.0"/>
<line x1="153.0" y1="231.5" x2="171.0" y2="211.4" stroke="rgb(0,0,0)"  stroke-width="1.0"/>
<line x1="397.8" y1="144.8" x2="399.1" y2="130.7" stroke="rgb(0,0,0)"  stroke-width="1.0"/>
<line x1="426.1" y1="109.0" x2="413.3" y2="115.0" stroke="rgb(0,0,0)"  stroke-width="1.0"/>
<line x1="423.6" y1="103.6" x2="410.8" y2="109.5" stroke="rgb(0,0,0)"  stroke-width="1.0"/>
<line x1="254.9" y1="49.7" x2="268.4" y2="73.0" stroke="rgb(0,0,0)"  stroke-width="1.0"/>
<line x1="249.7" y1="52.8" x2="263.2" y2="76.0" stroke="rgb(0,0,0)"  stroke-width="1.0"/>
<line x1="194.5" y1="179.0" x2="186.3" y2="153.2" stroke="rgb(0,0,0)"  stroke-width="1.0"/>
<line x1="51.3" y1="75.0" x2="75.1" y2="88.7" stroke="rgb(0,0,0)"  stroke-width="1.0"/>
<line x1="205.8" y1="108.7" x2="190.0" y2="86.9" stroke="rgb(0,0,0)"  stroke-width="1.0"/>
<line x1="170.0" y1="80.3" x2="144.2" y2="88.7" stroke="rgb(0,0,0)"  stroke-width="1.0"/>
<line x1="144.2" y1="88.7" x2="144.2" y2="128.7" stroke="rgb(0,0,0)"  stroke-width="1.0"/>
<line x1="151.4" y1="94.7" x2="151.4" y2="122.7" stroke="rgb(0,0,0)"  stroke-width="1.0"/>
<line x1="144.2" y1="128.7" x2="170.0" y2="136.8" stroke="rgb(0,0,0)"  stroke-width="1.0"/>
<line x1="190.0" y1="130.3" x2="205.8" y2="108.7" stroke="rgb(0,0,0)"  stroke-width="1.0"/>
<line x1="322.0" y1="96.7" x2="305.8" y2="74.5" stroke="rgb(0,0,0)"  stroke-width="1.0"/>
<line x1="305.8" y1="74.5" x2="329.0" y2="42.6" stroke="rgb(0,0,0)"  stroke-width="1.0"/>
<line x1="315.1" y1="73.9" x2="331.3" y2="51.7" stroke="rgb(0,0,0)"  stroke-width="1.0"/>
<line x1="329.0" y1="42.6" x2="366.6" y2="53.5" stroke="rgb(0,0,0)"  stroke-width="1.0"/>
<line x1="366.6" y1="53.5" x2="367.2" y2="94.1" stroke="rgb(0,0,0)"  stroke-width="1.0"/>
<line x1="359.5" y1="59.6" x2="359.9" y2="88.2" stroke="rgb(0,0,0)"  stroke-width="1.0"/>
<line x1="367.2" y1="94.1" x2="341.9" y2="103.0" stroke="rgb(0,0,0)"  stroke-width="1.0"/>
<line x1="109.7" y1="148.7" x2="75.1" y2="128.7" stroke="rgb(0,0,0)"  stroke-width="1.0"/>
<line x1="108.1" y1="139.4" x2="83.9" y2="125.4" stroke="rgb(0,0,0)"  stroke-width="1.0"/>
<line x1="75.1" y1="128.7" x2="75.1" y2="88.7" stroke="rgb(0,0,0)"  stroke-width="1.0"/>
<line x1="75.1" y1="88.7" x2="109.7" y2="68.7" stroke="rgb(0,0,0)"  stroke-width="1.0"/>
<line x1="83.9" y1="91.9" x2="108.1" y2="77.9" stroke="rgb(0,0,0)"  stroke-width="1.0"/>
<line x1="109.7" y1="68.7" x2="144.2" y2="88.7" stroke="rgb(0,0,0)"  stroke-width="1.0"/>
<line x1="144.2" y1="128.7" x2="109.7" y2="148.7" stroke="rgb(0,0,0)"  stroke-width="1.0"/>
<text x="239.796016" y="117.072700" fill="rgb(12,12,255)"  stroke="rgb(12,12,255)" stroke-width="1" font-size="16" >N</text>
<text x="176.382633" y="148.779391" fill="rgb(12,12,255)"  stroke="rgb(12,12,255)" stroke-width="1" font-size="16" >N</text>
<text x="405.095394" y="113.723158" fill="rgb(12,12,255)"  stroke="rgb(12,12,255)" stroke-width="1" font-size="16" >+</text>
<text x="394.295394" y="125.755158" fill="rgb(12,12,255)"  stroke="rgb(12,12,255)" stroke-width="1" font-size="16" >N</text>
<text x="176.382633" y="84.355071" fill="rgb(178,178,0)"  stroke="rgb(178,178,0)" stroke-width="1" font-size="16" >S</text>
<text x="323.611964" y="115.253979" fill="rgb(178,178,0)"  stroke="rgb(178,178,0)" stroke-width="1" font-size="16" >S</text>
<text x="123.180864" y="246.327651" fill="rgb(102,102,102)"  stroke="rgb(102,102,102)" stroke-width="1" font-size="16" >HC</text>
<text x="401.462789" y="143.635671" fill="rgb(255,12,12)"  stroke="rgb(255,12,12)" stroke-width="1" font-size="16" >_</text>
<text x="390.662789" y="165.747671" fill="rgb(255,12,12)"  stroke="rgb(255,12,12)" stroke-width="1" font-size="16" >O</text>
<text x="430.650465" y="108.791715" fill="rgb(255,12,12)"  stroke="rgb(255,12,12)" stroke-width="1" font-size="16" >O</text>
<text x="239.796016" y="48.000000" fill="rgb(255,12,12)"  stroke="rgb(255,12,12)" stroke-width="1" font-size="16" >O</text>
<text x="34.000000" y="76.475559" fill="rgb(191,191,191)"  stroke="rgb(191,191,191)" stroke-width="1" font-size="16" >H</text>
<text font-size="18.000000" fill ="black" font-family="sans-serif"
x="10.000000" y="20.000000" ></text>
<title> - OBDepict</title>
</svg>
