<?xml version="1.0"?>
<svg xmlns="http://www.w3.org/2000/svg"
xmlns:xlink="http://www.w3.org/1999/xlink" xmlns:cml="http://www.xml-cml.org/schema" width="550.819" height="431.448" x="0" y="0" font-family="sans-serif" stroke="rgb(0,0,0)" stroke-width="1"  stroke-linecap="round">
<rect x="0%" y="0%" width="100%" height="100%" stroke-width="0" fill="rgb(255,255,255)"  />
<line x1="170.9" y1="351.5" x2="210.9" y2="351.5" stroke="rgb(0,0,0)"  stroke-width="1.0"/>
<line x1="330.9" y1="282.2" x2="350.8" y2="247.6" stroke="rgb(0,0,0)"  stroke-width="1.0"/>
<line x1="390.8" y1="178.4" x2="404.3" y2="155.1" stroke="rgb(0,0,0)"  stroke-width="1.0"/>
<line x1="490.8" y1="74.5" x2="470.8" y2="109.1" stroke="rgb(0,0,0)"  stroke-width="1.0"/>
<line x1="504.3" y1="51.3" x2="490.8" y2="74.5" stroke="rgb(0,0,0)"  stroke-width="1.0"/>
<line x1="507.9" y1="53.4" x2="494.5" y2="76.6" stroke="rgb(0,0,0)"  stroke-width="1.0"/>
<line x1="500.7" y1="49.1" x2="487.2" y2="72.4" stroke="rgb(0,0,0)"  stroke-width="1.0"/>
<line x1="389.1" y1="127.7" x2="401.1" y2="134.7" stroke="rgb(0,0,0)"  stroke-width="1.0"/>
<line x1="386.0" y1="132.9" x2="398.1" y2="139.9" stroke="rgb(0,0,0)"  stroke-width="1.0"/>
<line x1="432.8" y1="159.9" x2="420.6" y2="152.9" stroke="rgb(0,0,0)"  stroke-width="1.0"/>
<line x1="435.8" y1="154.7" x2="423.6" y2="147.7" stroke="rgb(0,0,0)"  stroke-width="1.0"/>
<line x1="424.3" y1="120.3" x2="417.3" y2="132.6" stroke="rgb(0,0,0)"  stroke-width="1.0"/>
<line x1="341.8" y1="307.1" x2="328.3" y2="283.7" stroke="rgb(0,0,0)"  stroke-width="1.0"/>
<line x1="347.0" y1="304.2" x2="333.5" y2="280.7" stroke="rgb(0,0,0)"  stroke-width="1.0"/>
<line x1="303.9" y1="282.2" x2="330.9" y2="282.2" stroke="rgb(0,0,0)"  stroke-width="1.0"/>
<line x1="470.8" y1="109.1" x2="443.8" y2="109.1" stroke="rgb(0,0,0)"  stroke-width="1.0"/>
<line x1="210.9" y1="351.5" x2="230.9" y2="316.9" stroke="rgb(0,0,0)"  stroke-width="1.0"/>
<line x1="270.9" y1="316.9" x2="284.4" y2="293.4" stroke="rgb(0,0,0)"  stroke-width="1.0"/>
<line x1="230.9" y1="316.9" x2="270.9" y2="316.9" stroke="rgb(0,0,0)"  stroke-width="1.0"/>
<line x1="155.2" y1="329.8" x2="170.9" y2="351.5" stroke="rgb(0,0,0)"  stroke-width="1.0"/>
<line x1="150.5" y1="335.7" x2="161.5" y2="350.8" stroke="rgb(0,0,0)"  stroke-width="1.0"/>
<line x1="170.9" y1="351.5" x2="155.1" y2="373.4" stroke="rgb(0,0,0)"  stroke-width="1.0"/>
<line x1="135.1" y1="379.9" x2="109.3" y2="371.5" stroke="rgb(0,0,0)"  stroke-width="1.0"/>
<line x1="109.3" y1="371.5" x2="109.3" y2="331.5" stroke="rgb(0,0,0)"  stroke-width="1.0"/>
<line x1="116.5" y1="365.5" x2="116.5" y2="337.5" stroke="rgb(0,0,0)"  stroke-width="1.0"/>
<line x1="109.3" y1="331.5" x2="135.1" y2="323.1" stroke="rgb(0,0,0)"  stroke-width="1.0"/>
<line x1="390.8" y1="178.4" x2="410.8" y2="213.1" stroke="rgb(0,0,0)"  stroke-width="1.0"/>
<line x1="410.8" y1="213.1" x2="390.8" y2="247.6" stroke="rgb(0,0,0)"  stroke-width="1.0"/>
<line x1="401.6" y1="214.7" x2="387.6" y2="238.8" stroke="rgb(0,0,0)"  stroke-width="1.0"/>
<line x1="390.8" y1="247.6" x2="350.8" y2="247.6" stroke="rgb(0,0,0)"  stroke-width="1.0"/>
<line x1="350.8" y1="247.6" x2="330.9" y2="213.1" stroke="rgb(0,0,0)"  stroke-width="1.0"/>
<line x1="354.1" y1="238.8" x2="340.1" y2="214.7" stroke="rgb(0,0,0)"  stroke-width="1.0"/>
<line x1="330.9" y1="213.1" x2="350.8" y2="178.4" stroke="rgb(0,0,0)"  stroke-width="1.0"/>
<line x1="350.8" y1="178.4" x2="390.8" y2="178.4" stroke="rgb(0,0,0)"  stroke-width="1.0"/>
<line x1="356.8" y1="185.6" x2="384.8" y2="185.6" stroke="rgb(0,0,0)"  stroke-width="1.0"/>
<line x1="74.7" y1="311.5" x2="40.0" y2="331.5" stroke="rgb(0,0,0)"  stroke-width="1.0"/>
<line x1="73.1" y1="320.7" x2="48.8" y2="334.7" stroke="rgb(0,0,0)"  stroke-width="1.0"/>
<line x1="40.0" y1="331.5" x2="40.0" y2="371.5" stroke="rgb(0,0,0)"  stroke-width="1.0"/>
<line x1="40.0" y1="371.5" x2="74.7" y2="391.4" stroke="rgb(0,0,0)"  stroke-width="1.0"/>
<line x1="48.8" y1="368.2" x2="73.1" y2="382.2" stroke="rgb(0,0,0)"  stroke-width="1.0"/>
<line x1="74.7" y1="391.4" x2="109.3" y2="371.5" stroke="rgb(0,0,0)"  stroke-width="1.0"/>
<line x1="109.3" y1="331.5" x2="74.7" y2="311.5" stroke="rgb(0,0,0)"  stroke-width="1.0"/>
<text x="404.838321" y="151.820187" fill="rgb(178,178,0)"  stroke="rgb(178,178,0)" stroke-width="1" font-size="16" >S</text>
<text x="141.455857" y="327.137033" fill="rgb(12,12,255)"  stroke="rgb(12,12,255)" stroke-width="1" font-size="16" >N</text>
<text x="141.455857" y="391.973145" fill="rgb(12,12,255)"  stroke="rgb(12,12,255)" stroke-width="1" font-size="16" >N</text>
<text x="141.455857" y="407.973145" fill="rgb(12,12,255)"  stroke="rgb(12,12,255)" stroke-width="1" font-size="16" >H</text>
<text x="504.819240" y="48.000000" fill="rgb(102,102,102)"  stroke="rgb(102,102,102)" stroke-width="1" font-size="16" >CH</text>
<text x="370.299457" y="131.824003" fill="rgb(255,12,12)"  stroke="rgb(255,12,12)" stroke-width="1" font-size="16" >O</text>
<text x="439.580781" y="171.816371" fill="rgb(255,12,12)"  stroke="rgb(255,12,12)" stroke-width="1" font-size="16" >O</text>
<text x="424.834505" y="117.077726" fill="rgb(12,12,255)"  stroke="rgb(12,12,255)" stroke-width="1" font-size="16" >N</text>
<text x="424.834505" y="101.077726" fill="rgb(12,12,255)"  stroke="rgb(12,12,255)" stroke-width="1" font-size="16" >H</text>
<text x="344.849769" y="324.916851" fill="rgb(255,12,12)"  stroke="rgb(255,12,12)" stroke-width="1" font-size="16" >O</text>
<text x="284.861217" y="290.174390" fill="rgb(12,12,255)"  stroke="rgb(12,12,255)" stroke-width="1" font-size="16" >N</text>
<text x="284.861217" y="274.174390" fill="rgb(12,12,255)"  stroke="rgb(12,12,255)" stroke-width="1" font-size="16" >H</text>
<text font-size="18.000000" fill ="black" font-family="sans-serif"
x="10.000000" y="20.000000" ></text>
<title> - OBDepict</title>
</svg>
