<?xml version="1.0"?>
<svg xmlns="http://www.w3.org/2000/svg"
xmlns:xlink="http://www.w3.org/1999/xlink" xmlns:cml="http://www.xml-cml.org/schema" width="445.387" height="317.999" x="0" y="0" font-family="sans-serif" stroke="rgb(0,0,0)" stroke-width="1"  stroke-linecap="round">
<rect x="0%" y="0%" width="100%" height="100%" stroke-width="0" fill="rgb(255,255,255)"  />
<line x1="209.3" y1="149.0" x2="169.8" y2="146.6" stroke="rgb(0,0,0)"  stroke-width="1.0"/>
<line x1="304.0" y1="107.1" x2="282.1" y2="121.5" stroke="rgb(0,0,0)"  stroke-width="1.0"/>
<line x1="133.4" y1="248.0" x2="160.2" y2="217.3" stroke="rgb(0,0,0)"  stroke-width="1.0"/>
<line x1="115.7" y1="268.2" x2="133.4" y2="248.0" stroke="rgb(0,0,0)"  stroke-width="1.0"/>
<line x1="112.5" y1="265.5" x2="130.3" y2="245.3" stroke="rgb(0,0,0)"  stroke-width="1.0"/>
<line x1="118.8" y1="271.0" x2="136.6" y2="250.8" stroke="rgb(0,0,0)"  stroke-width="1.0"/>
<line x1="291.6" y1="187.1" x2="269.5" y2="171.4" stroke="rgb(0,0,0)"  stroke-width="1.0"/>
<line x1="295.1" y1="182.2" x2="272.9" y2="166.5" stroke="rgb(0,0,0)"  stroke-width="1.0"/>
<line x1="160.2" y1="217.3" x2="151.3" y2="191.3" stroke="rgb(0,0,0)"  stroke-width="1.0"/>
<line x1="342.3" y1="151.6" x2="339.9" y2="124.7" stroke="rgb(0,0,0)"  stroke-width="1.0"/>
<line x1="276.9" y1="55.3" x2="301.6" y2="67.6" stroke="rgb(0,0,0)"  stroke-width="1.0"/>
<line x1="394.6" y1="47.2" x2="371.0" y2="62.8" stroke="rgb(0,0,0)"  stroke-width="1.0"/>
<line x1="169.8" y1="146.6" x2="154.5" y2="168.3" stroke="rgb(0,0,0)"  stroke-width="1.0"/>
<line x1="134.6" y1="175.1" x2="108.7" y2="167.0" stroke="rgb(0,0,0)"  stroke-width="1.0"/>
<line x1="108.7" y1="167.0" x2="108.7" y2="127.5" stroke="rgb(0,0,0)"  stroke-width="1.0"/>
<line x1="115.9" y1="161.0" x2="115.9" y2="133.5" stroke="rgb(0,0,0)"  stroke-width="1.0"/>
<line x1="108.7" y1="127.5" x2="134.6" y2="119.3" stroke="rgb(0,0,0)"  stroke-width="1.0"/>
<line x1="154.5" y1="125.7" x2="169.8" y2="146.6" stroke="rgb(0,0,0)"  stroke-width="1.0"/>
<line x1="150.0" y1="131.7" x2="160.4" y2="146.0" stroke="rgb(0,0,0)"  stroke-width="1.0"/>
<line x1="209.3" y1="149.0" x2="233.3" y2="181.4" stroke="rgb(0,0,0)"  stroke-width="1.0"/>
<line x1="233.3" y1="181.4" x2="271.2" y2="169.0" stroke="rgb(0,0,0)"  stroke-width="1.0"/>
<line x1="271.2" y1="169.0" x2="271.2" y2="141.7" stroke="rgb(0,0,0)"  stroke-width="1.0"/>
<line x1="258.8" y1="124.7" x2="233.3" y2="116.7" stroke="rgb(0,0,0)"  stroke-width="1.0"/>
<line x1="233.3" y1="116.7" x2="209.3" y2="149.0" stroke="rgb(0,0,0)"  stroke-width="1.0"/>
<line x1="304.0" y1="107.1" x2="301.6" y2="67.6" stroke="rgb(0,0,0)"  stroke-width="1.0"/>
<line x1="310.8" y1="100.7" x2="309.1" y2="73.1" stroke="rgb(0,0,0)"  stroke-width="1.0"/>
<line x1="301.6" y1="67.6" x2="334.7" y2="44.8" stroke="rgb(0,0,0)"  stroke-width="1.0"/>
<line x1="334.7" y1="44.8" x2="371.0" y2="62.8" stroke="rgb(0,0,0)"  stroke-width="1.0"/>
<line x1="336.9" y1="53.9" x2="362.5" y2="66.6" stroke="rgb(0,0,0)"  stroke-width="1.0"/>
<line x1="371.0" y1="62.8" x2="373.4" y2="102.3" stroke="rgb(0,0,0)"  stroke-width="1.0"/>
<line x1="373.4" y1="102.3" x2="339.9" y2="124.7" stroke="rgb(0,0,0)"  stroke-width="1.0"/>
<line x1="364.5" y1="99.6" x2="340.9" y2="115.3" stroke="rgb(0,0,0)"  stroke-width="1.0"/>
<line x1="339.9" y1="124.7" x2="304.0" y2="107.1" stroke="rgb(0,0,0)"  stroke-width="1.0"/>
<line x1="74.7" y1="187.4" x2="108.7" y2="167.0" stroke="rgb(0,0,0)"  stroke-width="1.0"/>
<line x1="108.7" y1="127.5" x2="74.7" y2="107.1" stroke="rgb(0,0,0)"  stroke-width="1.0"/>
<line x1="74.7" y1="107.1" x2="40.0" y2="127.5" stroke="rgb(0,0,0)"  stroke-width="1.0"/>
<line x1="73.2" y1="116.3" x2="48.8" y2="130.6" stroke="rgb(0,0,0)"  stroke-width="1.0"/>
<line x1="40.0" y1="127.5" x2="40.0" y2="167.0" stroke="rgb(0,0,0)"  stroke-width="1.0"/>
<line x1="40.0" y1="167.0" x2="74.7" y2="187.4" stroke="rgb(0,0,0)"  stroke-width="1.0"/>
<line x1="48.8" y1="163.8" x2="73.2" y2="178.1" stroke="rgb(0,0,0)"  stroke-width="1.0"/>
<text x="265.210149" y="136.654452" fill="rgb(12,12,255)"  stroke="rgb(12,12,255)" stroke-width="1" font-size="16" >N</text>
<text x="141.024906" y="123.469520" fill="rgb(12,12,255)"  stroke="rgb(12,12,255)" stroke-width="1" font-size="16" >N</text>
<text x="141.024906" y="186.969085" fill="rgb(12,12,255)"  stroke="rgb(12,12,255)" stroke-width="1" font-size="16" >N</text>
<text x="89.086178" y="285.999441" fill="rgb(102,102,102)"  stroke="rgb(102,102,102)" stroke-width="1" font-size="16" >HC</text>
<text x="297.961073" y="200.144297" fill="rgb(255,12,12)"  stroke="rgb(255,12,12)" stroke-width="1" font-size="16" >O</text>
<text x="339.496429" y="172.588616" fill="rgb(102,102,102)"  stroke="rgb(102,102,102)" stroke-width="1" font-size="16" >CH</text>
<text x="363.496429" y="176.268616" fill="rgb(102,102,102)"  stroke="rgb(102,102,102)" stroke-width="1" font-size="13" >3</text>
<text x="239.222742" y="57.583740" fill="rgb(102,102,102)"  stroke="rgb(102,102,102)" stroke-width="1" font-size="16" >H</text>
<text x="251.222742" y="61.263740" fill="rgb(102,102,102)"  stroke="rgb(102,102,102)" stroke-width="1" font-size="13" >3</text>
<text x="257.722742" y="57.583740" fill="rgb(102,102,102)"  stroke="rgb(102,102,102)" stroke-width="1" font-size="16" >C</text>
<text x="401.387364" y="48.000000" fill="rgb(102,102,102)"  stroke="rgb(102,102,102)" stroke-width="1" font-size="16" >CH</text>
<text x="425.387364" y="51.680000" fill="rgb(102,102,102)"  stroke="rgb(102,102,102)" stroke-width="1" font-size="13" >3</text>
<text font-size="18.000000" fill ="black" font-family="sans-serif"
x="10.000000" y="20.000000" ></text>
<title> - OBDepict</title>
</svg>
