<?xml version="1.0"?>
<svg xmlns="http://www.w3.org/2000/svg"
xmlns:xlink="http://www.w3.org/1999/xlink" xmlns:cml="http://www.xml-cml.org/schema" width="701.869" height="221.422" x="0" y="0" font-family="sans-serif" stroke="rgb(0,0,0)" stroke-width="1"  stroke-linecap="round">
<rect x="0%" y="0%" width="100%" height="100%" stroke-width="0" fill="rgb(255,255,255)"  />
<line x1="170.9" y1="90.9" x2="210.9" y2="90.9" stroke="rgb(0,0,0)"  stroke-width="1.0"/>
<line x1="373.8" y1="141.6" x2="410.1" y2="125.5" stroke="rgb(0,0,0)"  stroke-width="1.0"/>
<line x1="483.3" y1="92.9" x2="508.0" y2="81.9" stroke="rgb(0,0,0)"  stroke-width="1.0"/>
<line x1="272.3" y1="110.9" x2="304.9" y2="134.6" stroke="rgb(0,0,0)"  stroke-width="1.0"/>
<line x1="625.3" y1="67.7" x2="588.7" y2="83.8" stroke="rgb(0,0,0)"  stroke-width="1.0"/>
<line x1="650.0" y1="56.6" x2="625.3" y2="67.7" stroke="rgb(0,0,0)"  stroke-width="1.0"/>
<line x1="651.7" y1="60.5" x2="627.0" y2="71.5" stroke="rgb(0,0,0)"  stroke-width="1.0"/>
<line x1="648.3" y1="52.8" x2="623.6" y2="63.8" stroke="rgb(0,0,0)"  stroke-width="1.0"/>
<line x1="351.8" y1="125.8" x2="373.8" y2="141.6" stroke="rgb(0,0,0)"  stroke-width="1.0"/>
<line x1="511.7" y1="50.7" x2="517.3" y2="63.5" stroke="rgb(0,0,0)"  stroke-width="1.0"/>
<line x1="506.2" y1="53.1" x2="511.8" y2="65.9" stroke="rgb(0,0,0)"  stroke-width="1.0"/>
<line x1="528.2" y1="102.5" x2="522.4" y2="89.7" stroke="rgb(0,0,0)"  stroke-width="1.0"/>
<line x1="533.6" y1="100.0" x2="527.9" y2="87.2" stroke="rgb(0,0,0)"  stroke-width="1.0"/>
<line x1="544.5" y1="65.7" x2="531.7" y2="71.3" stroke="rgb(0,0,0)"  stroke-width="1.0"/>
<line x1="367.9" y1="168.2" x2="370.8" y2="141.3" stroke="rgb(0,0,0)"  stroke-width="1.0"/>
<line x1="373.9" y1="168.8" x2="376.7" y2="141.9" stroke="rgb(0,0,0)"  stroke-width="1.0"/>
<line x1="304.9" y1="134.6" x2="329.4" y2="123.5" stroke="rgb(0,0,0)"  stroke-width="1.0"/>
<line x1="588.7" y1="83.8" x2="566.9" y2="68.0" stroke="rgb(0,0,0)"  stroke-width="1.0"/>
<line x1="226.7" y1="112.7" x2="210.9" y2="90.9" stroke="rgb(0,0,0)"  stroke-width="1.0"/>
<line x1="210.9" y1="90.9" x2="234.4" y2="58.6" stroke="rgb(0,0,0)"  stroke-width="1.0"/>
<line x1="220.3" y1="90.3" x2="236.7" y2="67.7" stroke="rgb(0,0,0)"  stroke-width="1.0"/>
<line x1="234.4" y1="58.6" x2="272.3" y2="70.9" stroke="rgb(0,0,0)"  stroke-width="1.0"/>
<line x1="272.3" y1="70.9" x2="272.3" y2="110.9" stroke="rgb(0,0,0)"  stroke-width="1.0"/>
<line x1="265.1" y1="76.9" x2="265.1" y2="104.9" stroke="rgb(0,0,0)"  stroke-width="1.0"/>
<line x1="272.3" y1="110.9" x2="246.7" y2="119.2" stroke="rgb(0,0,0)"  stroke-width="1.0"/>
<line x1="170.9" y1="90.9" x2="155.0" y2="112.7" stroke="rgb(0,0,0)"  stroke-width="1.0"/>
<line x1="134.9" y1="119.2" x2="109.3" y2="110.9" stroke="rgb(0,0,0)"  stroke-width="1.0"/>
<line x1="109.3" y1="110.9" x2="109.3" y2="70.9" stroke="rgb(0,0,0)"  stroke-width="1.0"/>
<line x1="116.5" y1="104.9" x2="116.5" y2="76.9" stroke="rgb(0,0,0)"  stroke-width="1.0"/>
<line x1="109.3" y1="70.9" x2="134.9" y2="62.6" stroke="rgb(0,0,0)"  stroke-width="1.0"/>
<line x1="155.1" y1="69.3" x2="170.9" y2="90.9" stroke="rgb(0,0,0)"  stroke-width="1.0"/>
<line x1="150.4" y1="75.1" x2="161.6" y2="90.3" stroke="rgb(0,0,0)"  stroke-width="1.0"/>
<line x1="483.3" y1="92.9" x2="479.2" y2="132.7" stroke="rgb(0,0,0)"  stroke-width="1.0"/>
<line x1="479.2" y1="132.7" x2="442.7" y2="148.9" stroke="rgb(0,0,0)"  stroke-width="1.0"/>
<line x1="470.8" y1="128.6" x2="445.2" y2="139.9" stroke="rgb(0,0,0)"  stroke-width="1.0"/>
<line x1="442.7" y1="148.9" x2="410.1" y2="125.5" stroke="rgb(0,0,0)"  stroke-width="1.0"/>
<line x1="410.1" y1="125.5" x2="414.4" y2="85.7" stroke="rgb(0,0,0)"  stroke-width="1.0"/>
<line x1="417.9" y1="120.3" x2="420.9" y2="92.4" stroke="rgb(0,0,0)"  stroke-width="1.0"/>
<line x1="414.4" y1="85.7" x2="450.9" y2="69.3" stroke="rgb(0,0,0)"  stroke-width="1.0"/>
<line x1="450.9" y1="69.3" x2="483.3" y2="92.9" stroke="rgb(0,0,0)"  stroke-width="1.0"/>
<line x1="451.5" y1="78.6" x2="474.2" y2="95.2" stroke="rgb(0,0,0)"  stroke-width="1.0"/>
<line x1="74.5" y1="50.9" x2="40.0" y2="70.9" stroke="rgb(0,0,0)"  stroke-width="1.0"/>
<line x1="73.0" y1="60.1" x2="48.8" y2="74.1" stroke="rgb(0,0,0)"  stroke-width="1.0"/>
<line x1="40.0" y1="70.9" x2="40.0" y2="110.9" stroke="rgb(0,0,0)"  stroke-width="1.0"/>
<line x1="40.0" y1="110.9" x2="74.5" y2="130.9" stroke="rgb(0,0,0)"  stroke-width="1.0"/>
<line x1="48.8" y1="107.7" x2="73.0" y2="121.7" stroke="rgb(0,0,0)"  stroke-width="1.0"/>
<line x1="74.5" y1="130.9" x2="109.3" y2="110.9" stroke="rgb(0,0,0)"  stroke-width="1.0"/>
<line x1="109.3" y1="70.9" x2="74.5" y2="50.9" stroke="rgb(0,0,0)"  stroke-width="1.0"/>
<text x="513.835549" y="84.565410" fill="rgb(178,178,0)"  stroke="rgb(178,178,0)" stroke-width="1" font-size="16" >S</text>
<text x="141.281488" y="66.585760" fill="rgb(12,12,255)"  stroke="rgb(12,12,255)" stroke-width="1" font-size="16" >N</text>
<text x="141.281488" y="131.235888" fill="rgb(178,178,0)"  stroke="rgb(178,178,0)" stroke-width="1" font-size="16" >S</text>
<text x="228.357690" y="131.235888" fill="rgb(255,12,12)"  stroke="rgb(255,12,12)" stroke-width="1" font-size="16" >O</text>
<text x="655.868966" y="59.312439" fill="rgb(102,102,102)"  stroke="rgb(102,102,102)" stroke-width="1" font-size="16" >CH</text>
<text x="335.236721" y="126.188203" fill="rgb(12,12,255)"  stroke="rgb(12,12,255)" stroke-width="1" font-size="16" >N</text>
<text x="335.236721" y="110.188203" fill="rgb(12,12,255)"  stroke="rgb(12,12,255)" stroke-width="1" font-size="16" >H</text>
<text x="497.674229" y="48.000000" fill="rgb(255,12,12)"  stroke="rgb(255,12,12)" stroke-width="1" font-size="16" >O</text>
<text x="530.200522" y="121.135670" fill="rgb(255,12,12)"  stroke="rgb(255,12,12)" stroke-width="1" font-size="16" >O</text>
<text x="550.405808" y="68.404091" fill="rgb(12,12,255)"  stroke="rgb(12,12,255)" stroke-width="1" font-size="16" >N</text>
<text x="550.405808" y="52.404091" fill="rgb(12,12,255)"  stroke="rgb(12,12,255)" stroke-width="1" font-size="16" >H</text>
<text x="363.520243" y="189.422458" fill="rgb(255,12,12)"  stroke="rgb(255,12,12)" stroke-width="1" font-size="16" >O</text>
<text font-size="18.000000" fill ="black" font-family="sans-serif"
x="10.000000" y="20.000000" ></text>
<title> - OBDepict</title>
</svg>
