<?xml version="1.0"?>
<svg xmlns="http://www.w3.org/2000/svg"
xmlns:xlink="http://www.w3.org/1999/xlink" xmlns:cml="http://www.xml-cml.org/schema" width="418.591" height="218.592" x="0" y="0" font-family="sans-serif" stroke="rgb(0,0,0)" stroke-width="1"  stroke-linecap="round">
<rect x="0%" y="0%" width="100%" height="100%" stroke-width="0" fill="rgb(255,255,255)"  />
<line x1="240.2" y1="109.3" x2="205.5" y2="129.3" stroke="rgb(0,0,0)"  stroke-width="1.0"/>
<line x1="205.5" y1="129.3" x2="182.2" y2="115.8" stroke="rgb(0,0,0)"  stroke-width="1.0"/>
<line x1="344.0" y1="89.3" x2="309.5" y2="109.3" stroke="rgb(0,0,0)"  stroke-width="1.0"/>
<line x1="367.3" y1="75.8" x2="344.0" y2="89.3" stroke="rgb(0,0,0)"  stroke-width="1.0"/>
<line x1="369.4" y1="79.4" x2="346.1" y2="92.9" stroke="rgb(0,0,0)"  stroke-width="1.0"/>
<line x1="365.2" y1="72.2" x2="341.9" y2="85.7" stroke="rgb(0,0,0)"  stroke-width="1.0"/>
<line x1="263.5" y1="122.8" x2="240.2" y2="109.3" stroke="rgb(0,0,0)"  stroke-width="1.0"/>
<line x1="133.2" y1="156.3" x2="133.2" y2="129.3" stroke="rgb(0,0,0)"  stroke-width="1.0"/>
<line x1="139.2" y1="156.3" x2="139.2" y2="129.3" stroke="rgb(0,0,0)"  stroke-width="1.0"/>
<line x1="309.5" y1="109.3" x2="286.0" y2="122.8" stroke="rgb(0,0,0)"  stroke-width="1.0"/>
<line x1="243.2" y1="82.3" x2="243.2" y2="109.3" stroke="rgb(0,0,0)"  stroke-width="1.0"/>
<line x1="237.2" y1="82.3" x2="237.2" y2="109.3" stroke="rgb(0,0,0)"  stroke-width="1.0"/>
<line x1="289.5" y1="74.5" x2="309.5" y2="109.3" stroke="rgb(0,0,0)"  stroke-width="1.0"/>
<line x1="329.5" y1="143.8" x2="309.5" y2="109.3" stroke="rgb(0,0,0)"  stroke-width="1.0"/>
<line x1="303.0" y1="51.3" x2="289.5" y2="74.5" stroke="rgb(0,0,0)"  stroke-width="1.0"/>
<line x1="316.0" y1="167.3" x2="329.5" y2="143.8" stroke="rgb(0,0,0)"  stroke-width="1.0"/>
<line x1="101.6" y1="109.3" x2="75.8" y2="117.6" stroke="rgb(0,0,0)"  stroke-width="1.0"/>
<line x1="55.8" y1="111.1" x2="40.0" y2="89.3" stroke="rgb(0,0,0)"  stroke-width="1.0"/>
<line x1="40.0" y1="89.3" x2="63.4" y2="57.0" stroke="rgb(0,0,0)"  stroke-width="1.0"/>
<line x1="49.4" y1="88.7" x2="65.7" y2="66.1" stroke="rgb(0,0,0)"  stroke-width="1.0"/>
<line x1="63.4" y1="57.0" x2="101.6" y2="69.3" stroke="rgb(0,0,0)"  stroke-width="1.0"/>
<line x1="101.6" y1="69.3" x2="101.6" y2="109.3" stroke="rgb(0,0,0)"  stroke-width="1.0"/>
<line x1="94.4" y1="75.3" x2="94.4" y2="103.3" stroke="rgb(0,0,0)"  stroke-width="1.0"/>
<line x1="170.9" y1="69.3" x2="170.9" y2="96.3" stroke="rgb(0,0,0)"  stroke-width="1.0"/>
<line x1="159.6" y1="115.8" x2="136.2" y2="129.3" stroke="rgb(0,0,0)"  stroke-width="1.0"/>
<line x1="136.2" y1="129.3" x2="101.6" y2="109.3" stroke="rgb(0,0,0)"  stroke-width="1.0"/>
<line x1="101.6" y1="69.3" x2="124.9" y2="55.8" stroke="rgb(0,0,0)"  stroke-width="1.0"/>
<line x1="147.6" y1="55.9" x2="170.9" y2="69.3" stroke="rgb(0,0,0)"  stroke-width="1.0"/>
<line x1="145.8" y1="63.1" x2="162.1" y2="72.5" stroke="rgb(0,0,0)"  stroke-width="1.0"/>
<text x="164.911641" y="117.295914" fill="rgb(12,12,255)"  stroke="rgb(12,12,255)" stroke-width="1" font-size="16" >N</text>
<text x="130.159635" y="57.296561" fill="rgb(12,12,255)"  stroke="rgb(12,12,255)" stroke-width="1" font-size="16" >N</text>
<text x="57.432559" y="129.621963" fill="rgb(178,178,0)"  stroke="rgb(178,178,0)" stroke-width="1" font-size="16" >S</text>
<text x="372.591288" y="77.297958" fill="rgb(102,102,102)"  stroke="rgb(102,102,102)" stroke-width="1" font-size="16" >CH</text>
<text x="268.751464" y="137.297312" fill="rgb(12,12,255)"  stroke="rgb(12,12,255)" stroke-width="1" font-size="16" >N</text>
<text x="268.751464" y="153.297312" fill="rgb(12,12,255)"  stroke="rgb(12,12,255)" stroke-width="1" font-size="16" >H</text>
<text x="130.159635" y="177.300108" fill="rgb(255,12,12)"  stroke="rgb(255,12,12)" stroke-width="1" font-size="16" >O</text>
<text x="234.207555" y="77.297958" fill="rgb(255,12,12)"  stroke="rgb(255,12,12)" stroke-width="1" font-size="16" >O</text>
<text x="305.498630" y="48.000000" fill="rgb(102,102,102)"  stroke="rgb(102,102,102)" stroke-width="1" font-size="16" >CH</text>
<text x="329.498630" y="51.680000" fill="rgb(102,102,102)"  stroke="rgb(102,102,102)" stroke-width="1" font-size="13" >3</text>
<text x="283.498630" y="186.591829" fill="rgb(102,102,102)"  stroke="rgb(102,102,102)" stroke-width="1" font-size="16" >H</text>
<text x="295.498630" y="190.271829" fill="rgb(102,102,102)"  stroke="rgb(102,102,102)" stroke-width="1" font-size="13" >3</text>
<text x="301.998630" y="186.591829" fill="rgb(102,102,102)"  stroke="rgb(102,102,102)" stroke-width="1" font-size="16" >C</text>
<text font-size="18.000000" fill ="black" font-family="sans-serif"
x="10.000000" y="20.000000" ></text>
<title> - OBDepict</title>
</svg>
