<?xml version="1.0"?>
<svg xmlns="http://www.w3.org/2000/svg"
xmlns:xlink="http://www.w3.org/1999/xlink" xmlns:cml="http://www.xml-cml.org/schema" width="359.274" height="397.237" x="0" y="0" font-family="sans-serif" stroke="rgb(0,0,0)" stroke-width="1"  stroke-linecap="round">
<rect x="0%" y="0%" width="100%" height="100%" stroke-width="0" fill="rgb(255,255,255)"  />
<line x1="200.9" y1="277.5" x2="162.7" y2="289.8" stroke="rgb(0,0,0)"  stroke-width="1.0"/>
<line x1="199.0" y1="271.8" x2="160.8" y2="284.1" stroke="rgb(0,0,0)"  stroke-width="1.0"/>
<line x1="50.7" y1="235.5" x2="59.2" y2="274.6" stroke="rgb(0,0,0)"  stroke-width="1.0"/>
<line x1="43.5" y1="209.2" x2="50.7" y2="235.5" stroke="rgb(0,0,0)"  stroke-width="1.0"/>
<line x1="47.5" y1="208.1" x2="54.8" y2="234.4" stroke="rgb(0,0,0)"  stroke-width="1.0"/>
<line x1="39.4" y1="210.4" x2="46.7" y2="236.6" stroke="rgb(0,0,0)"  stroke-width="1.0"/>
<line x1="91.1" y1="345.0" x2="107.0" y2="323.4" stroke="rgb(0,0,0)"  stroke-width="1.0"/>
<line x1="96.0" y1="348.5" x2="111.9" y2="326.9" stroke="rgb(0,0,0)"  stroke-width="1.0"/>
<line x1="132.2" y1="236.3" x2="132.5" y2="263.3" stroke="rgb(0,0,0)"  stroke-width="1.0"/>
<line x1="126.2" y1="236.4" x2="126.5" y2="263.4" stroke="rgb(0,0,0)"  stroke-width="1.0"/>
<line x1="281.1" y1="66.5" x2="272.0" y2="105.6" stroke="rgb(0,0,0)"  stroke-width="1.0"/>
<line x1="59.2" y1="274.6" x2="84.6" y2="282.9" stroke="rgb(0,0,0)"  stroke-width="1.0"/>
<line x1="263.1" y1="46.4" x2="283.1" y2="64.2" stroke="rgb(0,0,0)"  stroke-width="1.0"/>
<line x1="259.1" y1="50.9" x2="279.1" y2="68.7" stroke="rgb(0,0,0)"  stroke-width="1.0"/>
<line x1="208.2" y1="235.3" x2="199.9" y2="274.6" stroke="rgb(0,0,0)"  stroke-width="1.0"/>
<line x1="231.5" y1="130.6" x2="225.4" y2="157.1" stroke="rgb(0,0,0)"  stroke-width="1.0"/>
<line x1="272.0" y1="105.6" x2="246.8" y2="113.9" stroke="rgb(0,0,0)"  stroke-width="1.0"/>
<line x1="306.9" y1="58.3" x2="281.1" y2="66.5" stroke="rgb(0,0,0)"  stroke-width="1.0"/>
<line x1="107.5" y1="279.3" x2="129.5" y2="263.3" stroke="rgb(0,0,0)"  stroke-width="1.0"/>
<line x1="129.5" y1="263.3" x2="161.8" y2="287.0" stroke="rgb(0,0,0)"  stroke-width="1.0"/>
<line x1="161.8" y1="287.0" x2="153.4" y2="312.8" stroke="rgb(0,0,0)"  stroke-width="1.0"/>
<line x1="136.4" y1="325.1" x2="109.5" y2="325.1" stroke="rgb(0,0,0)"  stroke-width="1.0"/>
<line x1="109.5" y1="325.1" x2="101.0" y2="299.3" stroke="rgb(0,0,0)"  stroke-width="1.0"/>
<line x1="208.2" y1="235.3" x2="178.5" y2="208.0" stroke="rgb(0,0,0)"  stroke-width="1.0"/>
<line x1="208.7" y1="225.9" x2="187.8" y2="206.8" stroke="rgb(0,0,0)"  stroke-width="1.0"/>
<line x1="178.5" y1="208.0" x2="187.0" y2="168.8" stroke="rgb(0,0,0)"  stroke-width="1.0"/>
<line x1="187.0" y1="168.8" x2="225.4" y2="157.1" stroke="rgb(0,0,0)"  stroke-width="1.0"/>
<line x1="194.8" y1="174.0" x2="221.7" y2="165.8" stroke="rgb(0,0,0)"  stroke-width="1.0"/>
<line x1="225.4" y1="157.1" x2="254.5" y2="184.0" stroke="rgb(0,0,0)"  stroke-width="1.0"/>
<line x1="254.5" y1="184.0" x2="246.0" y2="222.7" stroke="rgb(0,0,0)"  stroke-width="1.0"/>
<line x1="246.1" y1="188.3" x2="240.2" y2="215.3" stroke="rgb(0,0,0)"  stroke-width="1.0"/>
<line x1="246.0" y1="222.7" x2="208.2" y2="235.3" stroke="rgb(0,0,0)"  stroke-width="1.0"/>
<text x="90.948967" y="294.966710" fill="rgb(12,12,255)"  stroke="rgb(12,12,255)" stroke-width="1" font-size="16" >N</text>
<text x="143.447733" y="333.133498" fill="rgb(178,178,0)"  stroke="rgb(178,178,0)" stroke-width="1" font-size="16" >S</text>
<text x="22.000000" y="204.704396" fill="rgb(102,102,102)"  stroke="rgb(102,102,102)" stroke-width="1" font-size="16" >HC</text>
<text x="79.838040" y="365.237130" fill="rgb(255,12,12)"  stroke="rgb(255,12,12)" stroke-width="1" font-size="16" >O</text>
<text x="123.052599" y="231.357017" fill="rgb(255,12,12)"  stroke="rgb(255,12,12)" stroke-width="1" font-size="16" >O</text>
<text x="245.423404" y="48.000000" fill="rgb(255,12,12)"  stroke="rgb(255,12,12)" stroke-width="1" font-size="16" >O</text>
<text x="228.463086" y="125.946530" fill="rgb(255,12,12)"  stroke="rgb(255,12,12)" stroke-width="1" font-size="16" >O</text>
<text x="313.274391" y="62.341695" fill="rgb(255,12,12)"  stroke="rgb(255,12,12)" stroke-width="1" font-size="16" >OH</text>
<text font-size="18.000000" fill ="black" font-family="sans-serif"
x="10.000000" y="20.000000" ></text>
<title> - OBDepict</title>
</svg>
