<?xml version="1.0"?>
<svg xmlns="http://www.w3.org/2000/svg"
xmlns:xlink="http://www.w3.org/1999/xlink" xmlns:cml="http://www.xml-cml.org/schema" width="620.435" height="283.421" x="0" y="0" font-family="sans-serif" stroke="rgb(0,0,0)" stroke-width="1"  stroke-linecap="round">
<rect x="0%" y="0%" width="100%" height="100%" stroke-width="0" fill="rgb(255,255,255)"  />
<line x1="266.5" y1="117.1" x2="239.6" y2="116.9" stroke="rgb(0,0,0)"  stroke-width="1.0"/>
<line x1="266.6" y1="111.1" x2="239.6" y2="110.9" stroke="rgb(0,0,0)"  stroke-width="1.0"/>
<line x1="85.2" y1="80.2" x2="109.0" y2="93.9" stroke="rgb(0,0,0)"  stroke-width="1.0"/>
<line x1="299.5" y1="79.8" x2="286.1" y2="103.0" stroke="rgb(0,0,0)"  stroke-width="1.0"/>
<line x1="201.6" y1="213.8" x2="228.3" y2="184.1" stroke="rgb(0,0,0)"  stroke-width="1.0"/>
<line x1="183.7" y1="233.7" x2="201.6" y2="213.8" stroke="rgb(0,0,0)"  stroke-width="1.0"/>
<line x1="180.6" y1="230.9" x2="198.5" y2="210.9" stroke="rgb(0,0,0)"  stroke-width="1.0"/>
<line x1="186.8" y1="236.6" x2="204.8" y2="216.6" stroke="rgb(0,0,0)"  stroke-width="1.0"/>
<line x1="90.7" y1="52.6" x2="83.4" y2="64.3" stroke="rgb(0,0,0)"  stroke-width="1.0"/>
<line x1="85.6" y1="49.4" x2="78.3" y2="61.1" stroke="rgb(0,0,0)"  stroke-width="1.0"/>
<line x1="57.0" y1="95.2" x2="64.5" y2="83.2" stroke="rgb(0,0,0)"  stroke-width="1.0"/>
<line x1="62.1" y1="98.3" x2="69.6" y2="86.3" stroke="rgb(0,0,0)"  stroke-width="1.0"/>
<line x1="339.5" y1="79.8" x2="299.5" y2="79.8" stroke="rgb(0,0,0)"  stroke-width="1.0"/>
<line x1="51.1" y1="59.6" x2="62.8" y2="66.9" stroke="rgb(0,0,0)"  stroke-width="1.0"/>
<line x1="288.7" y1="55.0" x2="302.1" y2="78.3" stroke="rgb(0,0,0)"  stroke-width="1.0"/>
<line x1="283.5" y1="58.0" x2="296.9" y2="81.3" stroke="rgb(0,0,0)"  stroke-width="1.0"/>
<line x1="228.3" y1="184.1" x2="220.1" y2="158.3" stroke="rgb(0,0,0)"  stroke-width="1.0"/>
<line x1="447.2" y1="80.0" x2="420.0" y2="80.0" stroke="rgb(0,0,0)"  stroke-width="1.0"/>
<line x1="480.1" y1="114.9" x2="466.6" y2="91.2" stroke="rgb(0,0,0)"  stroke-width="1.0"/>
<line x1="520.1" y1="115.1" x2="480.1" y2="114.9" stroke="rgb(0,0,0)"  stroke-width="1.0"/>
<line x1="540.1" y1="149.4" x2="520.1" y2="115.1" stroke="rgb(0,0,0)"  stroke-width="1.0"/>
<line x1="567.4" y1="149.5" x2="540.1" y2="149.4" stroke="rgb(0,0,0)"  stroke-width="1.0"/>
<line x1="239.6" y1="113.9" x2="223.8" y2="92.1" stroke="rgb(0,0,0)"  stroke-width="1.0"/>
<line x1="203.8" y1="85.6" x2="178.0" y2="93.9" stroke="rgb(0,0,0)"  stroke-width="1.0"/>
<line x1="178.0" y1="93.9" x2="178.0" y2="133.8" stroke="rgb(0,0,0)"  stroke-width="1.0"/>
<line x1="185.2" y1="99.9" x2="185.2" y2="127.8" stroke="rgb(0,0,0)"  stroke-width="1.0"/>
<line x1="178.0" y1="133.8" x2="203.8" y2="142.0" stroke="rgb(0,0,0)"  stroke-width="1.0"/>
<line x1="223.8" y1="135.4" x2="239.6" y2="113.9" stroke="rgb(0,0,0)"  stroke-width="1.0"/>
<line x1="339.5" y1="79.8" x2="359.7" y2="44.8" stroke="rgb(0,0,0)"  stroke-width="1.0"/>
<line x1="359.7" y1="44.8" x2="399.6" y2="45.2" stroke="rgb(0,0,0)"  stroke-width="1.0"/>
<line x1="365.6" y1="52.1" x2="393.5" y2="52.4" stroke="rgb(0,0,0)"  stroke-width="1.0"/>
<line x1="399.6" y1="45.2" x2="420.0" y2="80.0" stroke="rgb(0,0,0)"  stroke-width="1.0"/>
<line x1="420.0" y1="80.0" x2="399.6" y2="114.5" stroke="rgb(0,0,0)"  stroke-width="1.0"/>
<line x1="410.7" y1="81.5" x2="396.5" y2="105.6" stroke="rgb(0,0,0)"  stroke-width="1.0"/>
<line x1="399.6" y1="114.5" x2="359.7" y2="114.5" stroke="rgb(0,0,0)"  stroke-width="1.0"/>
<line x1="359.7" y1="114.5" x2="339.5" y2="79.8" stroke="rgb(0,0,0)"  stroke-width="1.0"/>
<line x1="362.9" y1="105.7" x2="348.7" y2="81.3" stroke="rgb(0,0,0)"  stroke-width="1.0"/>
<line x1="109.0" y1="93.9" x2="143.5" y2="73.9" stroke="rgb(0,0,0)"  stroke-width="1.0"/>
<line x1="117.8" y1="97.1" x2="141.9" y2="83.1" stroke="rgb(0,0,0)"  stroke-width="1.0"/>
<line x1="143.5" y1="73.9" x2="178.0" y2="93.9" stroke="rgb(0,0,0)"  stroke-width="1.0"/>
<line x1="178.0" y1="133.8" x2="143.5" y2="153.8" stroke="rgb(0,0,0)"  stroke-width="1.0"/>
<line x1="143.5" y1="153.8" x2="109.0" y2="133.8" stroke="rgb(0,0,0)"  stroke-width="1.0"/>
<line x1="141.9" y1="144.6" x2="117.8" y2="130.6" stroke="rgb(0,0,0)"  stroke-width="1.0"/>
<line x1="109.0" y1="133.8" x2="109.0" y2="93.9" stroke="rgb(0,0,0)"  stroke-width="1.0"/>
<text x="273.542176" y="122.263015" fill="rgb(12,12,255)"  stroke="rgb(12,12,255)" stroke-width="1" font-size="16" >N</text>
<text x="67.903418" y="81.699997" fill="rgb(178,178,0)"  stroke="rgb(178,178,0)" stroke-width="1" font-size="16" >S</text>
<text x="210.176688" y="153.948180" fill="rgb(12,12,255)"  stroke="rgb(12,12,255)" stroke-width="1" font-size="16" >N</text>
<text x="210.176688" y="89.570433" fill="rgb(178,178,0)"  stroke="rgb(178,178,0)" stroke-width="1" font-size="16" >S</text>
<text x="157.008252" y="251.420506" fill="rgb(102,102,102)"  stroke="rgb(102,102,102)" stroke-width="1" font-size="16" >HC</text>
<text x="89.093054" y="48.000000" fill="rgb(255,12,12)"  stroke="rgb(255,12,12)" stroke-width="1" font-size="16" >O</text>
<text x="46.713782" y="115.806835" fill="rgb(255,12,12)"  stroke="rgb(255,12,12)" stroke-width="1" font-size="16" >O</text>
<text x="14.000000" y="60.713782" fill="rgb(12,12,255)"  stroke="rgb(12,12,255)" stroke-width="1" font-size="16" >H</text>
<text x="26.000000" y="64.393782" fill="rgb(12,12,255)"  stroke="rgb(12,12,255)" stroke-width="1" font-size="13" >2</text>
<text x="32.500000" y="60.713782" fill="rgb(12,12,255)"  stroke="rgb(12,12,255)" stroke-width="1" font-size="16" >N</text>
<text x="273.542176" y="53.245343" fill="rgb(255,12,12)"  stroke="rgb(255,12,12)" stroke-width="1" font-size="16" >O</text>
<text x="454.160211" y="87.957599" fill="rgb(255,12,12)"  stroke="rgb(255,12,12)" stroke-width="1" font-size="16" >O</text>
<text x="576.435007" y="157.580689" fill="rgb(102,102,102)"  stroke="rgb(102,102,102)" stroke-width="1" font-size="16" >CH</text>
<text x="600.435007" y="161.260689" fill="rgb(102,102,102)"  stroke="rgb(102,102,102)" stroke-width="1" font-size="13" >3</text>
<text font-size="18.000000" fill ="black" font-family="sans-serif"
x="10.000000" y="20.000000" ></text>
<title> - OBDepict</title>
</svg>
