<?xml version="1.0"?>
<svg xmlns="http://www.w3.org/2000/svg"
xmlns:xlink="http://www.w3.org/1999/xlink" xmlns:cml="http://www.xml-cml.org/schema" width="436.934" height="471.381" x="0" y="0" font-family="sans-serif" stroke="rgb(0,0,0)" stroke-width="1"  stroke-linecap="round">
<rect x="0%" y="0%" width="100%" height="100%" stroke-width="0" fill="rgb(255,255,255)"  />
<line x1="354.9" y1="83.0" x2="328.9" y2="90.8" stroke="rgb(0,0,0)"  stroke-width="1.0"/>
<line x1="200.5" y1="351.9" x2="162.4" y2="364.1" stroke="rgb(0,0,0)"  stroke-width="1.0"/>
<line x1="198.6" y1="346.1" x2="160.5" y2="358.4" stroke="rgb(0,0,0)"  stroke-width="1.0"/>
<line x1="208.0" y1="309.3" x2="199.5" y2="349.0" stroke="rgb(0,0,0)"  stroke-width="1.0"/>
<line x1="231.5" y1="204.8" x2="225.3" y2="231.4" stroke="rgb(0,0,0)"  stroke-width="1.0"/>
<line x1="50.7" y1="309.9" x2="59.1" y2="349.0" stroke="rgb(0,0,0)"  stroke-width="1.0"/>
<line x1="43.5" y1="283.8" x2="50.7" y2="309.9" stroke="rgb(0,0,0)"  stroke-width="1.0"/>
<line x1="47.5" y1="282.7" x2="54.7" y2="308.8" stroke="rgb(0,0,0)"  stroke-width="1.0"/>
<line x1="39.4" y1="284.9" x2="46.6" y2="311.0" stroke="rgb(0,0,0)"  stroke-width="1.0"/>
<line x1="387.4" y1="97.7" x2="376.9" y2="88.1" stroke="rgb(0,0,0)"  stroke-width="1.0"/>
<line x1="91.0" y1="419.1" x2="106.9" y2="397.6" stroke="rgb(0,0,0)"  stroke-width="1.0"/>
<line x1="95.8" y1="422.7" x2="111.7" y2="401.1" stroke="rgb(0,0,0)"  stroke-width="1.0"/>
<line x1="376.4" y1="53.3" x2="373.2" y2="67.3" stroke="rgb(0,0,0)"  stroke-width="1.0"/>
<line x1="370.5" y1="52.0" x2="367.3" y2="65.9" stroke="rgb(0,0,0)"  stroke-width="1.0"/>
<line x1="132.0" y1="310.8" x2="132.2" y2="337.7" stroke="rgb(0,0,0)"  stroke-width="1.0"/>
<line x1="126.0" y1="310.9" x2="126.2" y2="337.7" stroke="rgb(0,0,0)"  stroke-width="1.0"/>
<line x1="59.1" y1="349.0" x2="84.4" y2="357.3" stroke="rgb(0,0,0)"  stroke-width="1.0"/>
<line x1="280.6" y1="250.3" x2="254.9" y2="258.4" stroke="rgb(0,0,0)"  stroke-width="1.0"/>
<line x1="272.5" y1="180.0" x2="246.8" y2="188.2" stroke="rgb(0,0,0)"  stroke-width="1.0"/>
<line x1="281.5" y1="140.7" x2="272.5" y2="180.0" stroke="rgb(0,0,0)"  stroke-width="1.0"/>
<line x1="167.4" y1="225.1" x2="186.8" y2="243.2" stroke="rgb(0,0,0)"  stroke-width="1.0"/>
<line x1="132.6" y1="224.2" x2="145.4" y2="220.2" stroke="rgb(0,0,0)"  stroke-width="1.0"/>
<line x1="107.3" y1="353.6" x2="129.2" y2="337.7" stroke="rgb(0,0,0)"  stroke-width="1.0"/>
<line x1="129.2" y1="337.7" x2="161.5" y2="361.3" stroke="rgb(0,0,0)"  stroke-width="1.0"/>
<line x1="161.5" y1="361.3" x2="153.2" y2="387.0" stroke="rgb(0,0,0)"  stroke-width="1.0"/>
<line x1="136.2" y1="399.4" x2="109.3" y2="399.4" stroke="rgb(0,0,0)"  stroke-width="1.0"/>
<line x1="109.3" y1="399.4" x2="100.9" y2="373.6" stroke="rgb(0,0,0)"  stroke-width="1.0"/>
<line x1="254.9" y1="258.4" x2="225.3" y2="231.4" stroke="rgb(0,0,0)"  stroke-width="1.0"/>
<line x1="225.3" y1="231.4" x2="186.8" y2="243.2" stroke="rgb(0,0,0)"  stroke-width="1.0"/>
<line x1="221.7" y1="240.0" x2="194.7" y2="248.4" stroke="rgb(0,0,0)"  stroke-width="1.0"/>
<line x1="186.8" y1="243.2" x2="178.4" y2="282.5" stroke="rgb(0,0,0)"  stroke-width="1.0"/>
<line x1="178.4" y1="282.5" x2="208.0" y2="309.3" stroke="rgb(0,0,0)"  stroke-width="1.0"/>
<line x1="187.7" y1="281.2" x2="208.4" y2="299.9" stroke="rgb(0,0,0)"  stroke-width="1.0"/>
<line x1="208.0" y1="309.3" x2="246.1" y2="297.8" stroke="rgb(0,0,0)"  stroke-width="1.0"/>
<line x1="246.1" y1="297.8" x2="254.9" y2="258.4" stroke="rgb(0,0,0)"  stroke-width="1.0"/>
<line x1="240.4" y1="290.4" x2="246.6" y2="262.6" stroke="rgb(0,0,0)"  stroke-width="1.0"/>
<line x1="328.9" y1="90.8" x2="299.2" y2="63.0" stroke="rgb(0,0,0)"  stroke-width="1.0"/>
<line x1="319.6" y1="91.9" x2="298.7" y2="72.3" stroke="rgb(0,0,0)"  stroke-width="1.0"/>
<line x1="299.2" y1="63.0" x2="261.6" y2="75.7" stroke="rgb(0,0,0)"  stroke-width="1.0"/>
<line x1="261.6" y1="75.7" x2="252.1" y2="114.3" stroke="rgb(0,0,0)"  stroke-width="1.0"/>
<line x1="267.1" y1="83.2" x2="260.5" y2="110.2" stroke="rgb(0,0,0)"  stroke-width="1.0"/>
<line x1="252.1" y1="114.3" x2="281.5" y2="140.7" stroke="rgb(0,0,0)"  stroke-width="1.0"/>
<line x1="281.5" y1="140.7" x2="319.8" y2="129.2" stroke="rgb(0,0,0)"  stroke-width="1.0"/>
<line x1="285.2" y1="132.1" x2="312.0" y2="124.1" stroke="rgb(0,0,0)"  stroke-width="1.0"/>
<line x1="319.8" y1="129.2" x2="328.9" y2="90.8" stroke="rgb(0,0,0)"  stroke-width="1.0"/>
<text x="90.807445" y="369.285305" fill="rgb(12,12,255)"  stroke="rgb(12,12,255)" stroke-width="1" font-size="16" >N</text>
<text x="143.175747" y="407.357245" fill="rgb(178,178,0)"  stroke="rgb(178,178,0)" stroke-width="1" font-size="16" >S</text>
<text x="372.123701" y="75.246650" fill="rgb(12,12,255)"  stroke="rgb(12,12,255)" stroke-width="1" font-size="16" >+</text>
<text x="361.323701" y="87.278650" fill="rgb(12,12,255)"  stroke="rgb(12,12,255)" stroke-width="1" font-size="16" >N</text>
<text x="228.382068" y="200.084220" fill="rgb(255,12,12)"  stroke="rgb(255,12,12)" stroke-width="1" font-size="16" >O</text>
<text x="22.000000" y="279.247299" fill="rgb(102,102,102)"  stroke="rgb(102,102,102)" stroke-width="1" font-size="16" >HC</text>
<text x="401.734133" y="92.358816" fill="rgb(255,12,12)"  stroke="rgb(255,12,12)" stroke-width="1" font-size="16" >_</text>
<text x="390.934133" y="114.470816" fill="rgb(255,12,12)"  stroke="rgb(255,12,12)" stroke-width="1" font-size="16" >O</text>
<text x="79.724129" y="439.381098" fill="rgb(255,12,12)"  stroke="rgb(255,12,12)" stroke-width="1" font-size="16" >O</text>
<text x="370.390987" y="48.000000" fill="rgb(255,12,12)"  stroke="rgb(255,12,12)" stroke-width="1" font-size="16" >O</text>
<text x="122.831297" y="305.833687" fill="rgb(255,12,12)"  stroke="rgb(255,12,12)" stroke-width="1" font-size="16" >O</text>
<text x="286.997155" y="254.468552" fill="rgb(30,239,30)"  stroke="rgb(30,239,30)" stroke-width="1" font-size="16" >Cl</text>
<text x="151.840797" y="224.257188" fill="rgb(255,12,12)"  stroke="rgb(255,12,12)" stroke-width="1" font-size="16" >O</text>
<text x="94.171093" y="236.135285" fill="rgb(102,102,102)"  stroke="rgb(102,102,102)" stroke-width="1" font-size="16" >H</text>
<text x="106.171093" y="239.815285" fill="rgb(102,102,102)"  stroke="rgb(102,102,102)" stroke-width="1" font-size="13" >3</text>
<text x="112.671093" y="236.135285" fill="rgb(102,102,102)"  stroke="rgb(102,102,102)" stroke-width="1" font-size="16" >C</text>
<text font-size="18.000000" fill ="black" font-family="sans-serif"
x="10.000000" y="20.000000" ></text>
<title> - OBDepict</title>
</svg>
