<?xml version="1.0"?>
<svg xmlns="http://www.w3.org/2000/svg"
xmlns:xlink="http://www.w3.org/1999/xlink" xmlns:cml="http://www.xml-cml.org/schema" width="458.787" height="462.824" x="0" y="0" font-family="sans-serif" stroke="rgb(0,0,0)" stroke-width="1"  stroke-linecap="round">
<rect x="0%" y="0%" width="100%" height="100%" stroke-width="0" fill="rgb(255,255,255)"  />
<line x1="144.1" y1="140.2" x2="167.5" y2="153.7" stroke="rgb(0,0,0)"  stroke-width="1.0"/>
<line x1="209.7" y1="260.1" x2="209.7" y2="220.1" stroke="rgb(0,0,0)"  stroke-width="1.0"/>
<line x1="215.7" y1="260.1" x2="215.7" y2="220.1" stroke="rgb(0,0,0)"  stroke-width="1.0"/>
<line x1="247.1" y1="280.2" x2="212.7" y2="260.1" stroke="rgb(0,0,0)"  stroke-width="1.0"/>
<line x1="384.3" y1="402.5" x2="350.0" y2="381.7" stroke="rgb(0,0,0)"  stroke-width="1.0"/>
<line x1="216.3" y1="113.3" x2="216.3" y2="140.2" stroke="rgb(0,0,0)"  stroke-width="1.0"/>
<line x1="210.3" y1="113.3" x2="210.3" y2="140.2" stroke="rgb(0,0,0)"  stroke-width="1.0"/>
<line x1="407.6" y1="416.2" x2="384.3" y2="402.5" stroke="rgb(0,0,0)"  stroke-width="1.0"/>
<line x1="405.5" y1="419.8" x2="382.2" y2="406.1" stroke="rgb(0,0,0)"  stroke-width="1.0"/>
<line x1="409.7" y1="412.6" x2="386.4" y2="398.8" stroke="rgb(0,0,0)"  stroke-width="1.0"/>
<line x1="153.5" y1="210.7" x2="177.1" y2="197.5" stroke="rgb(0,0,0)"  stroke-width="1.0"/>
<line x1="156.5" y1="216.0" x2="180.0" y2="202.8" stroke="rgb(0,0,0)"  stroke-width="1.0"/>
<line x1="269.3" y1="216.4" x2="246.0" y2="202.9" stroke="rgb(0,0,0)"  stroke-width="1.0"/>
<line x1="272.3" y1="211.2" x2="249.1" y2="197.8" stroke="rgb(0,0,0)"  stroke-width="1.0"/>
<line x1="281.0" y1="367.5" x2="281.4" y2="340.1" stroke="rgb(0,0,0)"  stroke-width="1.0"/>
<line x1="339.5" y1="334.7" x2="316.1" y2="320.8" stroke="rgb(0,0,0)"  stroke-width="1.0"/>
<line x1="339.9" y1="267.8" x2="316.7" y2="280.8" stroke="rgb(0,0,0)"  stroke-width="1.0"/>
<line x1="350.0" y1="381.7" x2="350.4" y2="354.3" stroke="rgb(0,0,0)"  stroke-width="1.0"/>
<line x1="109.2" y1="53.0" x2="109.2" y2="79.9" stroke="rgb(0,0,0)"  stroke-width="1.0"/>
<line x1="51.3" y1="153.7" x2="74.7" y2="140.2" stroke="rgb(0,0,0)"  stroke-width="1.0"/>
<line x1="351.5" y1="235.1" x2="351.4" y2="248.5" stroke="rgb(0,0,0)"  stroke-width="1.0"/>
<line x1="178.7" y1="173.2" x2="178.6" y2="200.1" stroke="rgb(0,0,0)"  stroke-width="1.0"/>
<line x1="178.6" y1="200.1" x2="212.7" y2="220.1" stroke="rgb(0,0,0)"  stroke-width="1.0"/>
<line x1="212.7" y1="220.1" x2="247.5" y2="200.4" stroke="rgb(0,0,0)"  stroke-width="1.0"/>
<line x1="247.5" y1="200.4" x2="247.7" y2="173.4" stroke="rgb(0,0,0)"  stroke-width="1.0"/>
<line x1="236.5" y1="153.9" x2="213.3" y2="140.2" stroke="rgb(0,0,0)"  stroke-width="1.0"/>
<line x1="213.3" y1="140.2" x2="190.0" y2="153.7" stroke="rgb(0,0,0)"  stroke-width="1.0"/>
<line x1="281.4" y1="340.1" x2="316.1" y2="320.8" stroke="rgb(0,0,0)"  stroke-width="1.0"/>
<line x1="316.1" y1="320.8" x2="316.7" y2="280.8" stroke="rgb(0,0,0)"  stroke-width="1.0"/>
<line x1="309.0" y1="314.7" x2="309.4" y2="286.7" stroke="rgb(0,0,0)"  stroke-width="1.0"/>
<line x1="316.7" y1="280.8" x2="282.2" y2="260.3" stroke="rgb(0,0,0)"  stroke-width="1.0"/>
<line x1="282.2" y1="260.3" x2="247.1" y2="280.2" stroke="rgb(0,0,0)"  stroke-width="1.0"/>
<line x1="280.6" y1="269.5" x2="255.9" y2="283.5" stroke="rgb(0,0,0)"  stroke-width="1.0"/>
<line x1="247.1" y1="280.2" x2="246.5" y2="320.2" stroke="rgb(0,0,0)"  stroke-width="1.0"/>
<line x1="246.5" y1="320.2" x2="281.4" y2="340.1" stroke="rgb(0,0,0)"  stroke-width="1.0"/>
<line x1="255.3" y1="316.9" x2="279.8" y2="330.9" stroke="rgb(0,0,0)"  stroke-width="1.0"/>
<line x1="144.1" y1="140.2" x2="144.1" y2="99.9" stroke="rgb(0,0,0)"  stroke-width="1.0"/>
<line x1="136.9" y1="134.2" x2="136.9" y2="105.9" stroke="rgb(0,0,0)"  stroke-width="1.0"/>
<line x1="144.1" y1="99.9" x2="109.2" y2="79.9" stroke="rgb(0,0,0)"  stroke-width="1.0"/>
<line x1="109.2" y1="79.9" x2="74.7" y2="99.9" stroke="rgb(0,0,0)"  stroke-width="1.0"/>
<line x1="107.6" y1="89.2" x2="83.5" y2="103.1" stroke="rgb(0,0,0)"  stroke-width="1.0"/>
<line x1="74.7" y1="99.9" x2="74.7" y2="140.2" stroke="rgb(0,0,0)"  stroke-width="1.0"/>
<line x1="74.7" y1="140.2" x2="109.2" y2="160.2" stroke="rgb(0,0,0)"  stroke-width="1.0"/>
<line x1="83.5" y1="137.0" x2="107.6" y2="151.0" stroke="rgb(0,0,0)"  stroke-width="1.0"/>
<line x1="109.2" y1="160.2" x2="144.1" y2="140.2" stroke="rgb(0,0,0)"  stroke-width="1.0"/>
<text x="172.769450" y="168.210249" fill="rgb(12,12,255)"  stroke="rgb(12,12,255)" stroke-width="1" font-size="16" >N</text>
<text x="241.751453" y="168.414036" fill="rgb(12,12,255)"  stroke="rgb(12,12,255)" stroke-width="1" font-size="16" >NH</text>
<text x="207.258025" y="108.306486" fill="rgb(255,12,12)"  stroke="rgb(255,12,12)" stroke-width="1" font-size="16" >O</text>
<text x="412.787226" y="430.824155" fill="rgb(102,102,102)"  stroke="rgb(102,102,102)" stroke-width="1" font-size="16" >CH</text>
<text x="137.674365" y="227.716142" fill="rgb(255,12,12)"  stroke="rgb(255,12,12)" stroke-width="1" font-size="16" >O</text>
<text x="276.036240" y="228.317800" fill="rgb(255,12,12)"  stroke="rgb(255,12,12)" stroke-width="1" font-size="16" >O</text>
<text x="262.828073" y="388.465508" fill="rgb(165,40,40)"  stroke="rgb(165,40,40)" stroke-width="1" font-size="16" >Br</text>
<text x="344.615520" y="349.338346" fill="rgb(255,12,12)"  stroke="rgb(255,12,12)" stroke-width="1" font-size="16" >O</text>
<text x="345.222030" y="269.463427" fill="rgb(255,12,12)"  stroke="rgb(255,12,12)" stroke-width="1" font-size="16" >O</text>
<text x="105.180938" y="48.000000" fill="rgb(102,102,102)"  stroke="rgb(102,102,102)" stroke-width="1" font-size="16" >CH</text>
<text x="129.180938" y="51.680000" fill="rgb(102,102,102)"  stroke="rgb(102,102,102)" stroke-width="1" font-size="13" >3</text>
<text x="14.000000" y="168.210249" fill="rgb(102,102,102)"  stroke="rgb(102,102,102)" stroke-width="1" font-size="16" >H</text>
<text x="26.000000" y="171.890249" fill="rgb(102,102,102)"  stroke="rgb(102,102,102)" stroke-width="1" font-size="13" >3</text>
<text x="32.500000" y="168.210249" fill="rgb(102,102,102)"  stroke="rgb(102,102,102)" stroke-width="1" font-size="16" >C</text>
<text x="347.619901" y="230.132477" fill="rgb(102,102,102)"  stroke="rgb(102,102,102)" stroke-width="1" font-size="16" >CH</text>
<text x="371.619901" y="233.812477" fill="rgb(102,102,102)"  stroke="rgb(102,102,102)" stroke-width="1" font-size="13" >3</text>
<text font-size="18.000000" fill ="black" font-family="sans-serif"
x="10.000000" y="20.000000" ></text>
<title> - OBDepict</title>
</svg>
