<?xml version="1.0"?>
<svg xmlns="http://www.w3.org/2000/svg"
xmlns:xlink="http://www.w3.org/1999/xlink" xmlns:cml="http://www.xml-cml.org/schema" width="574.068" height="270.521" x="0" y="0" font-family="sans-serif" stroke="rgb(0,0,0)" stroke-width="1"  stroke-linecap="round">
<rect x="0%" y="0%" width="100%" height="100%" stroke-width="0" fill="rgb(255,255,255)"  />
<line x1="364.0" y1="134.7" x2="387.7" y2="148.2" stroke="rgb(0,0,0)"  stroke-width="1.0"/>
<line x1="361.0" y1="139.9" x2="384.7" y2="153.5" stroke="rgb(0,0,0)"  stroke-width="1.0"/>
<line x1="282.2" y1="130.8" x2="305.5" y2="144.3" stroke="rgb(0,0,0)"  stroke-width="1.0"/>
<line x1="328.0" y1="144.3" x2="340.0" y2="137.4" stroke="rgb(0,0,0)"  stroke-width="1.0"/>
<line x1="494.2" y1="229.9" x2="454.2" y2="229.2" stroke="rgb(0,0,0)"  stroke-width="1.0"/>
<line x1="521.1" y1="230.3" x2="494.2" y2="229.9" stroke="rgb(0,0,0)"  stroke-width="1.0"/>
<line x1="521.0" y1="234.5" x2="494.2" y2="234.1" stroke="rgb(0,0,0)"  stroke-width="1.0"/>
<line x1="521.1" y1="226.1" x2="494.3" y2="225.7" stroke="rgb(0,0,0)"  stroke-width="1.0"/>
<line x1="374.5" y1="208.3" x2="392.5" y2="187.9" stroke="rgb(0,0,0)"  stroke-width="1.0"/>
<line x1="379.0" y1="212.2" x2="397.0" y2="191.8" stroke="rgb(0,0,0)"  stroke-width="1.0"/>
<line x1="454.2" y1="229.2" x2="440.7" y2="205.5" stroke="rgb(0,0,0)"  stroke-width="1.0"/>
<line x1="285.2" y1="103.5" x2="285.2" y2="130.8" stroke="rgb(0,0,0)"  stroke-width="1.0"/>
<line x1="279.2" y1="103.5" x2="279.2" y2="130.8" stroke="rgb(0,0,0)"  stroke-width="1.0"/>
<line x1="224.4" y1="137.1" x2="247.7" y2="150.8" stroke="rgb(0,0,0)"  stroke-width="1.0"/>
<line x1="247.7" y1="150.8" x2="282.2" y2="130.8" stroke="rgb(0,0,0)"  stroke-width="1.0"/>
<line x1="178.0" y1="150.5" x2="201.9" y2="136.9" stroke="rgb(0,0,0)"  stroke-width="1.0"/>
<line x1="472.2" y1="52.8" x2="466.9" y2="79.7" stroke="rgb(0,0,0)"  stroke-width="1.0"/>
<line x1="394.7" y1="189.8" x2="421.3" y2="192.8" stroke="rgb(0,0,0)"  stroke-width="1.0"/>
<line x1="439.6" y1="182.3" x2="450.6" y2="157.8" stroke="rgb(0,0,0)"  stroke-width="1.0"/>
<line x1="450.6" y1="157.8" x2="420.9" y2="130.8" stroke="rgb(0,0,0)"  stroke-width="1.0"/>
<line x1="441.3" y1="159.1" x2="420.5" y2="140.2" stroke="rgb(0,0,0)"  stroke-width="1.0"/>
<line x1="420.9" y1="130.8" x2="386.2" y2="150.8" stroke="rgb(0,0,0)"  stroke-width="1.0"/>
<line x1="386.2" y1="150.8" x2="394.7" y2="189.8" stroke="rgb(0,0,0)"  stroke-width="1.0"/>
<line x1="109.0" y1="150.5" x2="109.0" y2="190.5" stroke="rgb(0,0,0)"  stroke-width="1.0"/>
<line x1="109.0" y1="190.5" x2="143.5" y2="210.5" stroke="rgb(0,0,0)"  stroke-width="1.0"/>
<line x1="117.8" y1="187.3" x2="141.9" y2="201.3" stroke="rgb(0,0,0)"  stroke-width="1.0"/>
<line x1="143.5" y1="210.5" x2="178.0" y2="190.5" stroke="rgb(0,0,0)"  stroke-width="1.0"/>
<line x1="178.0" y1="190.5" x2="178.0" y2="150.5" stroke="rgb(0,0,0)"  stroke-width="1.0"/>
<line x1="170.8" y1="184.5" x2="170.8" y2="156.5" stroke="rgb(0,0,0)"  stroke-width="1.0"/>
<line x1="178.0" y1="150.5" x2="143.5" y2="130.5" stroke="rgb(0,0,0)"  stroke-width="1.0"/>
<line x1="143.5" y1="130.5" x2="109.0" y2="150.5" stroke="rgb(0,0,0)"  stroke-width="1.0"/>
<line x1="141.9" y1="139.7" x2="117.8" y2="153.7" stroke="rgb(0,0,0)"  stroke-width="1.0"/>
<line x1="74.5" y1="210.5" x2="109.0" y2="190.5" stroke="rgb(0,0,0)"  stroke-width="1.0"/>
<line x1="109.0" y1="150.5" x2="74.5" y2="130.5" stroke="rgb(0,0,0)"  stroke-width="1.0"/>
<line x1="74.5" y1="130.5" x2="40.0" y2="150.5" stroke="rgb(0,0,0)"  stroke-width="1.0"/>
<line x1="72.9" y1="139.7" x2="48.8" y2="153.7" stroke="rgb(0,0,0)"  stroke-width="1.0"/>
<line x1="40.0" y1="150.5" x2="40.0" y2="190.5" stroke="rgb(0,0,0)"  stroke-width="1.0"/>
<line x1="40.0" y1="190.5" x2="74.5" y2="210.5" stroke="rgb(0,0,0)"  stroke-width="1.0"/>
<line x1="48.8" y1="187.3" x2="72.9" y2="201.3" stroke="rgb(0,0,0)"  stroke-width="1.0"/>
<line x1="450.6" y1="157.8" x2="488.6" y2="145.7" stroke="rgb(0,0,0)"  stroke-width="1.0"/>
<line x1="488.6" y1="145.7" x2="497.2" y2="106.8" stroke="rgb(0,0,0)"  stroke-width="1.0"/>
<line x1="482.8" y1="138.2" x2="488.9" y2="111.1" stroke="rgb(0,0,0)"  stroke-width="1.0"/>
<line x1="497.2" y1="106.8" x2="466.9" y2="79.7" stroke="rgb(0,0,0)"  stroke-width="1.0"/>
<line x1="466.9" y1="79.7" x2="429.2" y2="92.2" stroke="rgb(0,0,0)"  stroke-width="1.0"/>
<line x1="463.5" y1="88.4" x2="437.2" y2="97.1" stroke="rgb(0,0,0)"  stroke-width="1.0"/>
<line x1="429.2" y1="92.2" x2="420.9" y2="130.8" stroke="rgb(0,0,0)"  stroke-width="1.0"/>
<text x="428.219495" y="202.180982" fill="rgb(12,12,255)"  stroke="rgb(12,12,255)" stroke-width="1" font-size="16" >N</text>
<text x="345.209378" y="138.841715" fill="rgb(12,12,255)"  stroke="rgb(12,12,255)" stroke-width="1" font-size="16" >N</text>
<text x="310.706833" y="158.846133" fill="rgb(12,12,255)"  stroke="rgb(12,12,255)" stroke-width="1" font-size="16" >N</text>
<text x="310.706833" y="174.846133" fill="rgb(12,12,255)"  stroke="rgb(12,12,255)" stroke-width="1" font-size="16" >H</text>
<text x="528.067549" y="238.520569" fill="rgb(102,102,102)"  stroke="rgb(102,102,102)" stroke-width="1" font-size="16" >CH</text>
<text x="362.211683" y="228.020425" fill="rgb(255,12,12)"  stroke="rgb(255,12,12)" stroke-width="1" font-size="16" >O</text>
<text x="276.199454" y="98.504146" fill="rgb(255,12,12)"  stroke="rgb(255,12,12)" stroke-width="1" font-size="16" >O</text>
<text x="207.194364" y="138.508147" fill="rgb(12,12,255)"  stroke="rgb(12,12,255)" stroke-width="1" font-size="16" >N</text>
<text x="207.194364" y="122.508147" fill="rgb(12,12,255)"  stroke="rgb(12,12,255)" stroke-width="1" font-size="16" >H</text>
<text x="468.726266" y="48.000000" fill="rgb(165,40,40)"  stroke="rgb(165,40,40)" stroke-width="1" font-size="16" >Br</text>
<text font-size="18.000000" fill ="black" font-family="sans-serif"
x="10.000000" y="20.000000" ></text>
<title> - OBDepict</title>
</svg>
