<?xml version="1.0"?>
<svg xmlns="http://www.w3.org/2000/svg"
xmlns:xlink="http://www.w3.org/1999/xlink" xmlns:cml="http://www.xml-cml.org/schema" width="433.005" height="473.705" x="0" y="0" font-family="sans-serif" stroke="rgb(0,0,0)" stroke-width="1"  stroke-linecap="round">
<rect x="0%" y="0%" width="100%" height="100%" stroke-width="0" fill="rgb(255,255,255)"  />
<line x1="200.5" y1="354.2" x2="162.4" y2="366.4" stroke="rgb(0,0,0)"  stroke-width="1.0"/>
<line x1="198.7" y1="348.4" x2="160.6" y2="360.7" stroke="rgb(0,0,0)"  stroke-width="1.0"/>
<line x1="363.2" y1="79.3" x2="324.7" y2="91.8" stroke="rgb(0,0,0)"  stroke-width="1.0"/>
<line x1="50.7" y1="312.2" x2="59.1" y2="351.3" stroke="rgb(0,0,0)"  stroke-width="1.0"/>
<line x1="43.5" y1="286.1" x2="50.7" y2="312.2" stroke="rgb(0,0,0)"  stroke-width="1.0"/>
<line x1="47.5" y1="284.9" x2="54.7" y2="311.1" stroke="rgb(0,0,0)"  stroke-width="1.0"/>
<line x1="39.4" y1="287.2" x2="46.6" y2="313.3" stroke="rgb(0,0,0)"  stroke-width="1.0"/>
<line x1="91.0" y1="421.5" x2="106.9" y2="399.9" stroke="rgb(0,0,0)"  stroke-width="1.0"/>
<line x1="95.9" y1="425.0" x2="111.7" y2="403.5" stroke="rgb(0,0,0)"  stroke-width="1.0"/>
<line x1="132.0" y1="313.1" x2="132.3" y2="340.0" stroke="rgb(0,0,0)"  stroke-width="1.0"/>
<line x1="126.0" y1="313.2" x2="126.3" y2="340.0" stroke="rgb(0,0,0)"  stroke-width="1.0"/>
<line x1="207.4" y1="312.2" x2="199.6" y2="351.3" stroke="rgb(0,0,0)"  stroke-width="1.0"/>
<line x1="59.1" y1="351.3" x2="84.5" y2="359.6" stroke="rgb(0,0,0)"  stroke-width="1.0"/>
<line x1="229.9" y1="207.1" x2="224.4" y2="233.6" stroke="rgb(0,0,0)"  stroke-width="1.0"/>
<line x1="371.6" y1="53.3" x2="366.1" y2="79.9" stroke="rgb(0,0,0)"  stroke-width="1.0"/>
<line x1="365.7" y1="52.1" x2="360.2" y2="78.7" stroke="rgb(0,0,0)"  stroke-width="1.0"/>
<line x1="383.4" y1="97.6" x2="363.2" y2="79.3" stroke="rgb(0,0,0)"  stroke-width="1.0"/>
<line x1="278.8" y1="143.0" x2="270.3" y2="182.3" stroke="rgb(0,0,0)"  stroke-width="1.0"/>
<line x1="270.3" y1="182.3" x2="245.0" y2="190.4" stroke="rgb(0,0,0)"  stroke-width="1.0"/>
<line x1="166.7" y1="227.9" x2="186.7" y2="246.1" stroke="rgb(0,0,0)"  stroke-width="1.0"/>
<line x1="131.3" y1="227.6" x2="144.7" y2="223.2" stroke="rgb(0,0,0)"  stroke-width="1.0"/>
<line x1="107.3" y1="355.9" x2="129.3" y2="340.0" stroke="rgb(0,0,0)"  stroke-width="1.0"/>
<line x1="129.3" y1="340.0" x2="161.5" y2="363.6" stroke="rgb(0,0,0)"  stroke-width="1.0"/>
<line x1="161.5" y1="363.6" x2="153.2" y2="389.3" stroke="rgb(0,0,0)"  stroke-width="1.0"/>
<line x1="136.2" y1="401.7" x2="109.3" y2="401.7" stroke="rgb(0,0,0)"  stroke-width="1.0"/>
<line x1="109.3" y1="401.7" x2="100.9" y2="375.9" stroke="rgb(0,0,0)"  stroke-width="1.0"/>
<line x1="186.7" y1="246.1" x2="224.4" y2="233.6" stroke="rgb(0,0,0)"  stroke-width="1.0"/>
<line x1="194.6" y1="251.1" x2="220.9" y2="242.4" stroke="rgb(0,0,0)"  stroke-width="1.0"/>
<line x1="224.4" y1="233.6" x2="254.4" y2="260.6" stroke="rgb(0,0,0)"  stroke-width="1.0"/>
<line x1="254.4" y1="260.6" x2="246.1" y2="299.5" stroke="rgb(0,0,0)"  stroke-width="1.0"/>
<line x1="246.1" y1="265.0" x2="240.3" y2="292.1" stroke="rgb(0,0,0)"  stroke-width="1.0"/>
<line x1="246.1" y1="299.5" x2="207.4" y2="312.2" stroke="rgb(0,0,0)"  stroke-width="1.0"/>
<line x1="207.4" y1="312.2" x2="177.8" y2="285.6" stroke="rgb(0,0,0)"  stroke-width="1.0"/>
<line x1="207.8" y1="302.8" x2="187.1" y2="284.3" stroke="rgb(0,0,0)"  stroke-width="1.0"/>
<line x1="177.8" y1="285.6" x2="186.7" y2="246.1" stroke="rgb(0,0,0)"  stroke-width="1.0"/>
<line x1="324.7" y1="91.8" x2="295.1" y2="65.2" stroke="rgb(0,0,0)"  stroke-width="1.0"/>
<line x1="315.4" y1="93.1" x2="294.7" y2="74.5" stroke="rgb(0,0,0)"  stroke-width="1.0"/>
<line x1="295.1" y1="65.2" x2="257.6" y2="77.9" stroke="rgb(0,0,0)"  stroke-width="1.0"/>
<line x1="257.6" y1="77.9" x2="249.1" y2="117.2" stroke="rgb(0,0,0)"  stroke-width="1.0"/>
<line x1="263.4" y1="85.3" x2="257.4" y2="112.8" stroke="rgb(0,0,0)"  stroke-width="1.0"/>
<line x1="249.1" y1="117.2" x2="278.8" y2="143.0" stroke="rgb(0,0,0)"  stroke-width="1.0"/>
<line x1="278.8" y1="143.0" x2="317.2" y2="130.9" stroke="rgb(0,0,0)"  stroke-width="1.0"/>
<line x1="282.3" y1="134.3" x2="309.4" y2="125.8" stroke="rgb(0,0,0)"  stroke-width="1.0"/>
<line x1="317.2" y1="130.9" x2="324.7" y2="91.8" stroke="rgb(0,0,0)"  stroke-width="1.0"/>
<text x="90.823257" y="371.590077" fill="rgb(12,12,255)"  stroke="rgb(12,12,255)" stroke-width="1" font-size="16" >N</text>
<text x="143.206137" y="409.672615" fill="rgb(178,178,0)"  stroke="rgb(178,178,0)" stroke-width="1" font-size="16" >S</text>
<text x="22.000000" y="281.527008" fill="rgb(102,102,102)"  stroke="rgb(102,102,102)" stroke-width="1" font-size="16" >HC</text>
<text x="79.736856" y="441.705381" fill="rgb(255,12,12)"  stroke="rgb(255,12,12)" stroke-width="1" font-size="16" >O</text>
<text x="122.856023" y="308.120797" fill="rgb(255,12,12)"  stroke="rgb(255,12,12)" stroke-width="1" font-size="16" >O</text>
<text x="226.623183" y="202.341894" fill="rgb(255,12,12)"  stroke="rgb(255,12,12)" stroke-width="1" font-size="16" >O</text>
<text x="365.244396" y="48.000000" fill="rgb(255,12,12)"  stroke="rgb(255,12,12)" stroke-width="1" font-size="16" >O</text>
<text x="387.005154" y="114.285721" fill="rgb(255,12,12)"  stroke="rgb(255,12,12)" stroke-width="1" font-size="16" >OH</text>
<text x="151.064054" y="227.122690" fill="rgb(255,12,12)"  stroke="rgb(255,12,12)" stroke-width="1" font-size="16" >O</text>
<text x="92.981516" y="239.614887" fill="rgb(102,102,102)"  stroke="rgb(102,102,102)" stroke-width="1" font-size="16" >H</text>
<text x="104.981516" y="243.294887" fill="rgb(102,102,102)"  stroke="rgb(102,102,102)" stroke-width="1" font-size="13" >3</text>
<text x="111.481516" y="239.614887" fill="rgb(102,102,102)"  stroke="rgb(102,102,102)" stroke-width="1" font-size="16" >C</text>
<text font-size="18.000000" fill ="black" font-family="sans-serif"
x="10.000000" y="20.000000" ></text>
<title> - OBDepict</title>
</svg>
