<?xml version="1.0"?>
<svg xmlns="http://www.w3.org/2000/svg"
xmlns:xlink="http://www.w3.org/1999/xlink" xmlns:cml="http://www.xml-cml.org/schema" width="473.716" height="326.173" x="0" y="0" font-family="sans-serif" stroke="rgb(0,0,0)" stroke-width="1"  stroke-linecap="round">
<rect x="0%" y="0%" width="100%" height="100%" stroke-width="0" fill="rgb(255,255,255)"  />
<line x1="101.6" y1="195.6" x2="123.5" y2="179.8" stroke="rgb(0,0,0)"  stroke-width="1.0"/>
<line x1="145.9" y1="177.4" x2="170.6" y2="188.3" stroke="rgb(0,0,0)"  stroke-width="1.0"/>
<line x1="170.6" y1="188.3" x2="202.9" y2="164.9" stroke="rgb(0,0,0)"  stroke-width="1.0"/>
<line x1="267.8" y1="117.8" x2="289.6" y2="102.0" stroke="rgb(0,0,0)"  stroke-width="1.0"/>
<line x1="401.4" y1="63.6" x2="369.0" y2="87.1" stroke="rgb(0,0,0)"  stroke-width="1.0"/>
<line x1="423.2" y1="47.7" x2="401.4" y2="63.6" stroke="rgb(0,0,0)"  stroke-width="1.0"/>
<line x1="425.7" y1="51.1" x2="403.9" y2="67.0" stroke="rgb(0,0,0)"  stroke-width="1.0"/>
<line x1="420.7" y1="44.3" x2="398.9" y2="60.3" stroke="rgb(0,0,0)"  stroke-width="1.0"/>
<line x1="286.7" y1="70.8" x2="294.9" y2="82.1" stroke="rgb(0,0,0)"  stroke-width="1.0"/>
<line x1="281.9" y1="74.3" x2="290.1" y2="85.6" stroke="rgb(0,0,0)"  stroke-width="1.0"/>
<line x1="313.5" y1="117.9" x2="305.3" y2="106.7" stroke="rgb(0,0,0)"  stroke-width="1.0"/>
<line x1="318.4" y1="114.4" x2="310.2" y2="103.1" stroke="rgb(0,0,0)"  stroke-width="1.0"/>
<line x1="322.0" y1="78.4" x2="310.6" y2="86.7" stroke="rgb(0,0,0)"  stroke-width="1.0"/>
<line x1="170.4" y1="215.6" x2="167.6" y2="188.7" stroke="rgb(0,0,0)"  stroke-width="1.0"/>
<line x1="176.4" y1="214.9" x2="173.5" y2="188.0" stroke="rgb(0,0,0)"  stroke-width="1.0"/>
<line x1="369.0" y1="87.1" x2="344.3" y2="76.0" stroke="rgb(0,0,0)"  stroke-width="1.0"/>
<line x1="55.3" y1="273.8" x2="63.6" y2="248.0" stroke="rgb(0,0,0)"  stroke-width="1.0"/>
<line x1="101.6" y1="195.6" x2="76.2" y2="187.4" stroke="rgb(0,0,0)"  stroke-width="1.0"/>
<line x1="93.7" y1="200.6" x2="75.9" y2="194.8" stroke="rgb(0,0,0)"  stroke-width="1.0"/>
<line x1="56.0" y1="193.8" x2="47.7" y2="205.1" stroke="rgb(0,0,0)"  stroke-width="1.0"/>
<line x1="47.7" y1="226.1" x2="63.6" y2="248.0" stroke="rgb(0,0,0)"  stroke-width="1.0"/>
<line x1="63.6" y1="248.0" x2="101.6" y2="235.6" stroke="rgb(0,0,0)"  stroke-width="1.0"/>
<line x1="67.1" y1="239.3" x2="93.7" y2="230.6" stroke="rgb(0,0,0)"  stroke-width="1.0"/>
<line x1="101.6" y1="235.6" x2="101.6" y2="195.6" stroke="rgb(0,0,0)"  stroke-width="1.0"/>
<line x1="267.8" y1="117.8" x2="271.8" y2="157.6" stroke="rgb(0,0,0)"  stroke-width="1.0"/>
<line x1="271.8" y1="157.6" x2="239.5" y2="181.1" stroke="rgb(0,0,0)"  stroke-width="1.0"/>
<line x1="262.7" y1="155.3" x2="240.1" y2="171.7" stroke="rgb(0,0,0)"  stroke-width="1.0"/>
<line x1="239.5" y1="181.1" x2="202.9" y2="164.9" stroke="rgb(0,0,0)"  stroke-width="1.0"/>
<line x1="202.9" y1="164.9" x2="198.9" y2="125.1" stroke="rgb(0,0,0)"  stroke-width="1.0"/>
<line x1="209.5" y1="158.2" x2="206.6" y2="130.3" stroke="rgb(0,0,0)"  stroke-width="1.0"/>
<line x1="198.9" y1="125.1" x2="231.2" y2="101.6" stroke="rgb(0,0,0)"  stroke-width="1.0"/>
<line x1="231.2" y1="101.6" x2="267.8" y2="117.8" stroke="rgb(0,0,0)"  stroke-width="1.0"/>
<line x1="233.8" y1="110.7" x2="259.4" y2="122.0" stroke="rgb(0,0,0)"  stroke-width="1.0"/>
<text x="294.116145" y="102.366810" fill="rgb(178,178,0)"  stroke="rgb(178,178,0)" stroke-width="1" font-size="16" >S</text>
<text x="57.644278" y="191.295862" fill="rgb(12,12,255)"  stroke="rgb(12,12,255)" stroke-width="1" font-size="16" >N</text>
<text x="127.980793" y="180.179125" fill="rgb(12,12,255)"  stroke="rgb(12,12,255)" stroke-width="1" font-size="16" >N</text>
<text x="127.980793" y="164.179125" fill="rgb(12,12,255)"  stroke="rgb(12,12,255)" stroke-width="1" font-size="16" >H</text>
<text x="34.000000" y="223.632818" fill="rgb(255,12,12)"  stroke="rgb(255,12,12)" stroke-width="1" font-size="16" >O</text>
<text x="427.715768" y="48.000000" fill="rgb(102,102,102)"  stroke="rgb(102,102,102)" stroke-width="1" font-size="16" >CH</text>
<text x="270.675488" y="70.029854" fill="rgb(255,12,12)"  stroke="rgb(255,12,12)" stroke-width="1" font-size="16" >O</text>
<text x="317.566498" y="134.703766" fill="rgb(255,12,12)"  stroke="rgb(255,12,12)" stroke-width="1" font-size="16" >O</text>
<text x="326.457949" y="78.717684" fill="rgb(12,12,255)"  stroke="rgb(12,12,255)" stroke-width="1" font-size="16" >N</text>
<text x="326.457949" y="62.717684" fill="rgb(12,12,255)"  stroke="rgb(12,12,255)" stroke-width="1" font-size="16" >H</text>
<text x="168.811653" y="236.165206" fill="rgb(255,12,12)"  stroke="rgb(255,12,12)" stroke-width="1" font-size="16" >O</text>
<text x="25.320359" y="294.172954" fill="rgb(102,102,102)"  stroke="rgb(102,102,102)" stroke-width="1" font-size="16" >H</text>
<text x="37.320359" y="297.852954" fill="rgb(102,102,102)"  stroke="rgb(102,102,102)" stroke-width="1" font-size="13" >3</text>
<text x="43.820359" y="294.172954" fill="rgb(102,102,102)"  stroke="rgb(102,102,102)" stroke-width="1" font-size="16" >C</text>
<text font-size="18.000000" fill ="black" font-family="sans-serif"
x="10.000000" y="20.000000" ></text>
<title> - OBDepict</title>
</svg>
