<?xml version="1.0"?>
<svg xmlns="http://www.w3.org/2000/svg"
xmlns:xlink="http://www.w3.org/1999/xlink" xmlns:cml="http://www.xml-cml.org/schema" width="331.066" height="401.919" x="0" y="0" font-family="sans-serif" stroke="rgb(0,0,0)" stroke-width="1"  stroke-linecap="round">
<rect x="0%" y="0%" width="100%" height="100%" stroke-width="0" fill="rgb(255,255,255)"  />
<line x1="200.8" y1="282.2" x2="162.6" y2="294.5" stroke="rgb(0,0,0)"  stroke-width="1.0"/>
<line x1="198.9" y1="276.5" x2="160.8" y2="288.8" stroke="rgb(0,0,0)"  stroke-width="1.0"/>
<line x1="207.7" y1="240.2" x2="199.8" y2="279.4" stroke="rgb(0,0,0)"  stroke-width="1.0"/>
<line x1="50.7" y1="240.2" x2="59.2" y2="279.4" stroke="rgb(0,0,0)"  stroke-width="1.0"/>
<line x1="43.5" y1="214.0" x2="50.7" y2="240.2" stroke="rgb(0,0,0)"  stroke-width="1.0"/>
<line x1="47.5" y1="212.9" x2="54.7" y2="239.1" stroke="rgb(0,0,0)"  stroke-width="1.0"/>
<line x1="39.4" y1="215.1" x2="46.6" y2="241.3" stroke="rgb(0,0,0)"  stroke-width="1.0"/>
<line x1="259.9" y1="165.9" x2="240.2" y2="183.9" stroke="rgb(0,0,0)"  stroke-width="1.0"/>
<line x1="91.1" y1="349.7" x2="107.0" y2="328.0" stroke="rgb(0,0,0)"  stroke-width="1.0"/>
<line x1="95.9" y1="353.2" x2="111.8" y2="331.6" stroke="rgb(0,0,0)"  stroke-width="1.0"/>
<line x1="132.1" y1="241.1" x2="132.4" y2="268.0" stroke="rgb(0,0,0)"  stroke-width="1.0"/>
<line x1="126.1" y1="241.1" x2="126.4" y2="268.1" stroke="rgb(0,0,0)"  stroke-width="1.0"/>
<line x1="59.2" y1="279.4" x2="84.6" y2="287.7" stroke="rgb(0,0,0)"  stroke-width="1.0"/>
<line x1="261.0" y1="117.7" x2="266.7" y2="144.4" stroke="rgb(0,0,0)"  stroke-width="1.0"/>
<line x1="107.4" y1="284.0" x2="129.4" y2="268.1" stroke="rgb(0,0,0)"  stroke-width="1.0"/>
<line x1="129.4" y1="268.1" x2="161.7" y2="291.7" stroke="rgb(0,0,0)"  stroke-width="1.0"/>
<line x1="161.7" y1="291.7" x2="153.4" y2="317.5" stroke="rgb(0,0,0)"  stroke-width="1.0"/>
<line x1="136.4" y1="329.8" x2="109.4" y2="329.8" stroke="rgb(0,0,0)"  stroke-width="1.0"/>
<line x1="109.4" y1="329.8" x2="101.0" y2="304.0" stroke="rgb(0,0,0)"  stroke-width="1.0"/>
<line x1="207.7" y1="240.2" x2="232.6" y2="228.7" stroke="rgb(0,0,0)"  stroke-width="1.0"/>
<line x1="243.1" y1="210.3" x2="240.2" y2="183.9" stroke="rgb(0,0,0)"  stroke-width="1.0"/>
<line x1="240.2" y1="183.9" x2="200.9" y2="175.4" stroke="rgb(0,0,0)"  stroke-width="1.0"/>
<line x1="232.8" y1="189.7" x2="205.2" y2="183.7" stroke="rgb(0,0,0)"  stroke-width="1.0"/>
<line x1="200.9" y1="175.4" x2="181.1" y2="210.3" stroke="rgb(0,0,0)"  stroke-width="1.0"/>
<line x1="181.1" y1="210.3" x2="207.7" y2="240.2" stroke="rgb(0,0,0)"  stroke-width="1.0"/>
<line x1="190.4" y1="210.0" x2="209.1" y2="230.9" stroke="rgb(0,0,0)"  stroke-width="1.0"/>
<line x1="261.0" y1="117.7" x2="291.1" y2="90.7" stroke="rgb(0,0,0)"  stroke-width="1.0"/>
<line x1="260.6" y1="108.3" x2="281.8" y2="89.3" stroke="rgb(0,0,0)"  stroke-width="1.0"/>
<line x1="291.1" y1="90.7" x2="282.8" y2="52.1" stroke="rgb(0,0,0)"  stroke-width="1.0"/>
<line x1="282.8" y1="52.1" x2="244.7" y2="40.0" stroke="rgb(0,0,0)"  stroke-width="1.0"/>
<line x1="274.9" y1="57.2" x2="248.2" y2="48.7" stroke="rgb(0,0,0)"  stroke-width="1.0"/>
<line x1="244.7" y1="40.0" x2="215.0" y2="66.4" stroke="rgb(0,0,0)"  stroke-width="1.0"/>
<line x1="215.0" y1="66.4" x2="223.3" y2="105.8" stroke="rgb(0,0,0)"  stroke-width="1.0"/>
<line x1="223.3" y1="70.8" x2="229.1" y2="98.4" stroke="rgb(0,0,0)"  stroke-width="1.0"/>
<line x1="223.3" y1="105.8" x2="261.0" y2="117.7" stroke="rgb(0,0,0)"  stroke-width="1.0"/>
<text x="90.914187" y="299.681898" fill="rgb(12,12,255)"  stroke="rgb(12,12,255)" stroke-width="1" font-size="16" >N</text>
<text x="143.384302" y="337.825222" fill="rgb(178,178,0)"  stroke="rgb(178,178,0)" stroke-width="1" font-size="16" >S</text>
<text x="238.446664" y="231.264554" fill="rgb(255,12,12)"  stroke="rgb(255,12,12)" stroke-width="1" font-size="16" >O</text>
<text x="22.000000" y="209.466290" fill="rgb(102,102,102)"  stroke="rgb(102,102,102)" stroke-width="1" font-size="16" >HC</text>
<text x="263.476098" y="165.064394" fill="rgb(178,178,0)"  stroke="rgb(178,178,0)" stroke-width="1" font-size="16" >S</text>
<text x="79.808861" y="369.918593" fill="rgb(255,12,12)"  stroke="rgb(255,12,12)" stroke-width="1" font-size="16" >O</text>
<text x="123.002707" y="236.106456" fill="rgb(255,12,12)"  stroke="rgb(255,12,12)" stroke-width="1" font-size="16" >O</text>
<text font-size="18.000000" fill ="black" font-family="sans-serif"
x="10.000000" y="20.000000" ></text>
<title> - OBDepict</title>
</svg>
