<?xml version="1.0"?>
<svg xmlns="http://www.w3.org/2000/svg"
xmlns:xlink="http://www.w3.org/1999/xlink" xmlns:cml="http://www.xml-cml.org/schema" width="523.661" height="349.927" x="0" y="0" font-family="sans-serif" stroke="rgb(0,0,0)" stroke-width="1"  stroke-linecap="round">
<rect x="0%" y="0%" width="100%" height="100%" stroke-width="0" fill="rgb(255,255,255)"  />
<line x1="430.6" y1="270.3" x2="436.6" y2="244.2" stroke="rgb(0,0,0)"  stroke-width="1.0"/>
<line x1="234.9" y1="55.9" x2="196.6" y2="67.5" stroke="rgb(0,0,0)"  stroke-width="1.0"/>
<line x1="233.2" y1="50.1" x2="194.8" y2="61.8" stroke="rgb(0,0,0)"  stroke-width="1.0"/>
<line x1="263.1" y1="79.7" x2="234.1" y2="53.0" stroke="rgb(0,0,0)"  stroke-width="1.0"/>
<line x1="340.3" y1="153.5" x2="320.9" y2="135.2" stroke="rgb(0,0,0)"  stroke-width="1.0"/>
<line x1="79.3" y1="131.4" x2="119.5" y2="135.7" stroke="rgb(0,0,0)"  stroke-width="1.0"/>
<line x1="52.9" y1="128.7" x2="79.3" y2="131.4" stroke="rgb(0,0,0)"  stroke-width="1.0"/>
<line x1="53.4" y1="124.5" x2="79.8" y2="127.2" stroke="rgb(0,0,0)"  stroke-width="1.0"/>
<line x1="52.5" y1="132.9" x2="78.9" y2="135.5" stroke="rgb(0,0,0)"  stroke-width="1.0"/>
<line x1="401.8" y1="290.6" x2="415.2" y2="286.6" stroke="rgb(0,0,0)"  stroke-width="1.0"/>
<line x1="106.0" y1="52.6" x2="131.3" y2="61.0" stroke="rgb(0,0,0)"  stroke-width="1.0"/>
<line x1="104.1" y1="58.3" x2="129.4" y2="66.7" stroke="rgb(0,0,0)"  stroke-width="1.0"/>
<line x1="445.1" y1="303.3" x2="435.1" y2="294.0" stroke="rgb(0,0,0)"  stroke-width="1.0"/>
<line x1="449.2" y1="298.9" x2="439.2" y2="289.6" stroke="rgb(0,0,0)"  stroke-width="1.0"/>
<line x1="196.4" y1="126.9" x2="180.6" y2="104.9" stroke="rgb(0,0,0)"  stroke-width="1.0"/>
<line x1="201.2" y1="123.4" x2="185.5" y2="101.4" stroke="rgb(0,0,0)"  stroke-width="1.0"/>
<line x1="119.5" y1="135.7" x2="135.5" y2="113.7" stroke="rgb(0,0,0)"  stroke-width="1.0"/>
<line x1="276.4" y1="172.6" x2="282.6" y2="146.7" stroke="rgb(0,0,0)"  stroke-width="1.0"/>
<line x1="388.1" y1="150.9" x2="362.2" y2="158.6" stroke="rgb(0,0,0)"  stroke-width="1.0"/>
<line x1="417.0" y1="178.4" x2="388.1" y2="150.9" stroke="rgb(0,0,0)"  stroke-width="1.0"/>
<line x1="355.6" y1="87.4" x2="329.6" y2="96.0" stroke="rgb(0,0,0)"  stroke-width="1.0"/>
<line x1="387.8" y1="101.4" x2="377.6" y2="92.1" stroke="rgb(0,0,0)"  stroke-width="1.0"/>
<line x1="156.2" y1="103.2" x2="183.1" y2="103.2" stroke="rgb(0,0,0)"  stroke-width="1.0"/>
<line x1="183.1" y1="103.2" x2="195.7" y2="64.7" stroke="rgb(0,0,0)"  stroke-width="1.0"/>
<line x1="195.7" y1="64.7" x2="174.0" y2="47.9" stroke="rgb(0,0,0)"  stroke-width="1.0"/>
<line x1="153.1" y1="47.6" x2="130.4" y2="63.8" stroke="rgb(0,0,0)"  stroke-width="1.0"/>
<line x1="130.4" y1="63.8" x2="139.2" y2="90.8" stroke="rgb(0,0,0)"  stroke-width="1.0"/>
<line x1="282.6" y1="146.7" x2="320.9" y2="135.2" stroke="rgb(0,0,0)"  stroke-width="1.0"/>
<line x1="286.3" y1="138.1" x2="313.1" y2="130.0" stroke="rgb(0,0,0)"  stroke-width="1.0"/>
<line x1="320.9" y1="135.2" x2="329.6" y2="96.0" stroke="rgb(0,0,0)"  stroke-width="1.0"/>
<line x1="329.6" y1="96.0" x2="300.6" y2="68.2" stroke="rgb(0,0,0)"  stroke-width="1.0"/>
<line x1="320.3" y1="97.1" x2="299.9" y2="77.5" stroke="rgb(0,0,0)"  stroke-width="1.0"/>
<line x1="300.6" y1="68.2" x2="263.1" y2="79.7" stroke="rgb(0,0,0)"  stroke-width="1.0"/>
<line x1="263.1" y1="79.7" x2="253.6" y2="119.4" stroke="rgb(0,0,0)"  stroke-width="1.0"/>
<line x1="268.7" y1="87.2" x2="262.0" y2="115.2" stroke="rgb(0,0,0)"  stroke-width="1.0"/>
<line x1="253.6" y1="119.4" x2="282.6" y2="146.7" stroke="rgb(0,0,0)"  stroke-width="1.0"/>
<line x1="436.6" y1="244.2" x2="474.8" y2="232.6" stroke="rgb(0,0,0)"  stroke-width="1.0"/>
<line x1="440.3" y1="235.6" x2="467.0" y2="227.4" stroke="rgb(0,0,0)"  stroke-width="1.0"/>
<line x1="474.8" y1="232.6" x2="483.7" y2="193.7" stroke="rgb(0,0,0)"  stroke-width="1.0"/>
<line x1="483.7" y1="193.7" x2="454.8" y2="166.5" stroke="rgb(0,0,0)"  stroke-width="1.0"/>
<line x1="474.4" y1="194.8" x2="454.2" y2="175.9" stroke="rgb(0,0,0)"  stroke-width="1.0"/>
<line x1="454.8" y1="166.5" x2="417.0" y2="178.4" stroke="rgb(0,0,0)"  stroke-width="1.0"/>
<line x1="417.0" y1="178.4" x2="407.8" y2="216.9" stroke="rgb(0,0,0)"  stroke-width="1.0"/>
<line x1="422.6" y1="185.9" x2="416.2" y2="212.7" stroke="rgb(0,0,0)"  stroke-width="1.0"/>
<line x1="407.8" y1="216.9" x2="436.6" y2="244.2" stroke="rgb(0,0,0)"  stroke-width="1.0"/>
<text x="137.200404" y="111.188260" fill="rgb(12,12,255)"  stroke="rgb(12,12,255)" stroke-width="1" font-size="16" >N</text>
<text x="157.709044" y="48.000000" fill="rgb(178,178,0)"  stroke="rgb(178,178,0)" stroke-width="1" font-size="16" >S</text>
<text x="432.439391" y="278.882307" fill="rgb(12,12,255)"  stroke="rgb(12,12,255)" stroke-width="1" font-size="16" >+</text>
<text x="421.639391" y="290.914307" fill="rgb(12,12,255)"  stroke="rgb(12,12,255)" stroke-width="1" font-size="16" >N</text>
<text x="343.775179" y="170.375306" fill="rgb(255,12,12)"  stroke="rgb(255,12,12)" stroke-width="1" font-size="16" >O</text>
<text x="22.000000" y="135.359848" fill="rgb(102,102,102)"  stroke="rgb(102,102,102)" stroke-width="1" font-size="16" >HC</text>
<text x="394.089588" y="280.143913" fill="rgb(255,12,12)"  stroke="rgb(255,12,12)" stroke-width="1" font-size="16" >_</text>
<text x="383.289588" y="302.255913" fill="rgb(255,12,12)"  stroke="rgb(255,12,12)" stroke-width="1" font-size="16" >O</text>
<text x="86.682656" y="59.331942" fill="rgb(255,12,12)"  stroke="rgb(255,12,12)" stroke-width="1" font-size="16" >O</text>
<text x="450.648196" y="317.927336" fill="rgb(255,12,12)"  stroke="rgb(255,12,12)" stroke-width="1" font-size="16" >O</text>
<text x="200.393497" y="143.700544" fill="rgb(255,12,12)"  stroke="rgb(255,12,12)" stroke-width="1" font-size="16" >O</text>
<text x="255.418671" y="193.217988" fill="rgb(165,40,40)"  stroke="rgb(165,40,40)" stroke-width="1" font-size="16" >Br</text>
<text x="361.949777" y="91.346489" fill="rgb(255,12,12)"  stroke="rgb(255,12,12)" stroke-width="1" font-size="16" >O</text>
<text x="393.461150" y="118.190386" fill="rgb(102,102,102)"  stroke="rgb(102,102,102)" stroke-width="1" font-size="16" >CH</text>
<text x="417.461150" y="121.870386" fill="rgb(102,102,102)"  stroke="rgb(102,102,102)" stroke-width="1" font-size="13" >3</text>
<text font-size="18.000000" fill ="black" font-family="sans-serif"
x="10.000000" y="20.000000" ></text>
<title> - OBDepict</title>
</svg>
