<?xml version="1.0"?>
<svg xmlns="http://www.w3.org/2000/svg"
xmlns:xlink="http://www.w3.org/1999/xlink" xmlns:cml="http://www.xml-cml.org/schema" width="355.904" height="382.224" x="0" y="0" font-family="sans-serif" stroke="rgb(0,0,0)" stroke-width="1"  stroke-linecap="round">
<rect x="0%" y="0%" width="100%" height="100%" stroke-width="0" fill="rgb(255,255,255)"  />
<line x1="211.4" y1="159.5" x2="176.8" y2="179.7" stroke="rgb(0,0,0)"  stroke-width="1.0"/>
<line x1="248.1" y1="220.9" x2="224.6" y2="235.3" stroke="rgb(0,0,0)"  stroke-width="1.0"/>
<line x1="244.9" y1="215.8" x2="221.4" y2="230.2" stroke="rgb(0,0,0)"  stroke-width="1.0"/>
<line x1="177.5" y1="102.6" x2="154.1" y2="116.3" stroke="rgb(0,0,0)"  stroke-width="1.0"/>
<line x1="174.5" y1="97.4" x2="151.1" y2="111.1" stroke="rgb(0,0,0)"  stroke-width="1.0"/>
<line x1="107.4" y1="181.0" x2="83.9" y2="167.7" stroke="rgb(0,0,0)"  stroke-width="1.0"/>
<line x1="143.1" y1="240.3" x2="143.6" y2="267.4" stroke="rgb(0,0,0)"  stroke-width="1.0"/>
<line x1="107.9" y1="220.9" x2="84.8" y2="234.7" stroke="rgb(0,0,0)"  stroke-width="1.0"/>
<line x1="72.4" y1="148.3" x2="72.2" y2="134.4" stroke="rgb(0,0,0)"  stroke-width="1.0"/>
<line x1="73.9" y1="254.4" x2="74.4" y2="281.7" stroke="rgb(0,0,0)"  stroke-width="1.0"/>
<line x1="74.4" y1="281.7" x2="40.0" y2="302.1" stroke="rgb(0,0,0)"  stroke-width="1.0"/>
<line x1="40.0" y1="302.1" x2="40.4" y2="329.2" stroke="rgb(0,0,0)"  stroke-width="1.0"/>
<line x1="44.2" y1="302.0" x2="44.6" y2="329.2" stroke="rgb(0,0,0)"  stroke-width="1.0"/>
<line x1="35.8" y1="302.2" x2="36.2" y2="329.3" stroke="rgb(0,0,0)"  stroke-width="1.0"/>
<line x1="211.4" y1="159.5" x2="210.8" y2="119.5" stroke="rgb(0,0,0)"  stroke-width="1.0"/>
<line x1="210.8" y1="119.5" x2="244.9" y2="99.3" stroke="rgb(0,0,0)"  stroke-width="1.0"/>
<line x1="219.6" y1="122.6" x2="243.4" y2="108.5" stroke="rgb(0,0,0)"  stroke-width="1.0"/>
<line x1="244.9" y1="99.3" x2="268.4" y2="112.3" stroke="rgb(0,0,0)"  stroke-width="1.0"/>
<line x1="280.1" y1="131.6" x2="280.6" y2="158.4" stroke="rgb(0,0,0)"  stroke-width="1.0"/>
<line x1="280.6" y1="158.4" x2="246.1" y2="179.0" stroke="rgb(0,0,0)"  stroke-width="1.0"/>
<line x1="271.7" y1="155.3" x2="247.6" y2="169.7" stroke="rgb(0,0,0)"  stroke-width="1.0"/>
<line x1="246.1" y1="179.0" x2="211.4" y2="159.5" stroke="rgb(0,0,0)"  stroke-width="1.0"/>
<line x1="244.5" y1="58.8" x2="244.9" y2="99.3" stroke="rgb(0,0,0)"  stroke-width="1.0"/>
<line x1="210.8" y1="119.5" x2="176.0" y2="100.0" stroke="rgb(0,0,0)"  stroke-width="1.0"/>
<line x1="176.0" y1="100.0" x2="175.5" y2="60.2" stroke="rgb(0,0,0)"  stroke-width="1.0"/>
<line x1="175.5" y1="60.2" x2="209.3" y2="40.0" stroke="rgb(0,0,0)"  stroke-width="1.0"/>
<line x1="209.3" y1="40.0" x2="244.5" y2="58.8" stroke="rgb(0,0,0)"  stroke-width="1.0"/>
<line x1="246.1" y1="179.0" x2="246.5" y2="218.4" stroke="rgb(0,0,0)"  stroke-width="1.0"/>
<line x1="246.5" y1="218.4" x2="281.5" y2="238.4" stroke="rgb(0,0,0)"  stroke-width="1.0"/>
<line x1="281.5" y1="238.4" x2="315.9" y2="218.2" stroke="rgb(0,0,0)"  stroke-width="1.0"/>
<line x1="315.9" y1="218.2" x2="315.5" y2="178.0" stroke="rgb(0,0,0)"  stroke-width="1.0"/>
<line x1="315.5" y1="178.0" x2="280.6" y2="158.4" stroke="rgb(0,0,0)"  stroke-width="1.0"/>
<line x1="176.8" y1="179.7" x2="177.3" y2="219.6" stroke="rgb(0,0,0)"  stroke-width="1.0"/>
<line x1="169.6" y1="185.8" x2="170.0" y2="213.7" stroke="rgb(0,0,0)"  stroke-width="1.0"/>
<line x1="177.3" y1="219.6" x2="143.1" y2="240.3" stroke="rgb(0,0,0)"  stroke-width="1.0"/>
<line x1="143.1" y1="240.3" x2="107.9" y2="220.9" stroke="rgb(0,0,0)"  stroke-width="1.0"/>
<line x1="141.3" y1="231.1" x2="116.6" y2="217.5" stroke="rgb(0,0,0)"  stroke-width="1.0"/>
<line x1="107.9" y1="220.9" x2="107.4" y2="181.0" stroke="rgb(0,0,0)"  stroke-width="1.0"/>
<line x1="107.4" y1="181.0" x2="142.0" y2="160.2" stroke="rgb(0,0,0)"  stroke-width="1.0"/>
<line x1="116.2" y1="184.1" x2="140.5" y2="169.5" stroke="rgb(0,0,0)"  stroke-width="1.0"/>
<line x1="142.0" y1="160.2" x2="176.8" y2="179.7" stroke="rgb(0,0,0)"  stroke-width="1.0"/>
<text x="273.827250" y="126.593150" fill="rgb(12,12,255)"  stroke="rgb(12,12,255)" stroke-width="1" font-size="16" >NH</text>
<text x="205.910412" y="247.518725" fill="rgb(255,12,12)"  stroke="rgb(255,12,12)" stroke-width="1" font-size="16" >O</text>
<text x="135.412859" y="128.253910" fill="rgb(255,12,12)"  stroke="rgb(255,12,12)" stroke-width="1" font-size="16" >O</text>
<text x="66.576067" y="169.293557" fill="rgb(255,12,12)"  stroke="rgb(255,12,12)" stroke-width="1" font-size="16" >O</text>
<text x="137.804741" y="288.384065" fill="rgb(30,239,30)"  stroke="rgb(30,239,30)" stroke-width="1" font-size="16" >Cl</text>
<text x="67.680012" y="249.358634" fill="rgb(255,12,12)"  stroke="rgb(255,12,12)" stroke-width="1" font-size="16" >O</text>
<text x="46.024094" y="129.357855" fill="rgb(102,102,102)"  stroke="rgb(102,102,102)" stroke-width="1" font-size="16" >H</text>
<text x="58.024094" y="133.037855" fill="rgb(102,102,102)"  stroke="rgb(102,102,102)" stroke-width="1" font-size="13" >3</text>
<text x="64.524094" y="129.357855" fill="rgb(102,102,102)"  stroke="rgb(102,102,102)" stroke-width="1" font-size="16" >C</text>
<text x="34.547131" y="350.224363" fill="rgb(102,102,102)"  stroke="rgb(102,102,102)" stroke-width="1" font-size="16" >CH</text>
<text font-size="18.000000" fill ="black" font-family="sans-serif"
x="10.000000" y="20.000000" ></text>
<title> - OBDepict</title>
</svg>
