<?xml version="1.0"?>
<svg xmlns="http://www.w3.org/2000/svg"
xmlns:xlink="http://www.w3.org/1999/xlink" xmlns:cml="http://www.xml-cml.org/schema" width="260.143" height="386.371" x="0" y="0" font-family="sans-serif" stroke="rgb(0,0,0)" stroke-width="1"  stroke-linecap="round">
<rect x="0%" y="0%" width="100%" height="100%" stroke-width="0" fill="rgb(255,255,255)"  />
<line x1="90.3" y1="243.8" x2="78.0" y2="205.6" stroke="rgb(0,0,0)"  stroke-width="1.0"/>
<line x1="90.3" y1="103.0" x2="78.0" y2="141.0" stroke="rgb(0,0,0)"  stroke-width="1.0"/>
<line x1="181.0" y1="48.3" x2="141.8" y2="56.6" stroke="rgb(0,0,0)"  stroke-width="1.0"/>
<line x1="207.4" y1="42.7" x2="181.0" y2="48.3" stroke="rgb(0,0,0)"  stroke-width="1.0"/>
<line x1="208.3" y1="46.8" x2="181.8" y2="52.4" stroke="rgb(0,0,0)"  stroke-width="1.0"/>
<line x1="206.6" y1="38.6" x2="180.1" y2="44.2" stroke="rgb(0,0,0)"  stroke-width="1.0"/>
<line x1="74.5" y1="81.0" x2="92.5" y2="101.0" stroke="rgb(0,0,0)"  stroke-width="1.0"/>
<line x1="70.1" y1="85.0" x2="88.1" y2="105.0" stroke="rgb(0,0,0)"  stroke-width="1.0"/>
<line x1="116.8" y1="97.4" x2="90.3" y2="103.0" stroke="rgb(0,0,0)"  stroke-width="1.0"/>
<line x1="141.8" y1="56.6" x2="133.5" y2="82.4" stroke="rgb(0,0,0)"  stroke-width="1.0"/>
<line x1="82.0" y1="334.0" x2="90.3" y2="308.4" stroke="rgb(0,0,0)"  stroke-width="1.0"/>
<line x1="78.0" y1="141.0" x2="52.5" y2="149.2" stroke="rgb(0,0,0)"  stroke-width="1.0"/>
<line x1="74.5" y1="149.7" x2="56.7" y2="155.5" stroke="rgb(0,0,0)"  stroke-width="1.0"/>
<line x1="40.0" y1="166.3" x2="40.0" y2="180.3" stroke="rgb(0,0,0)"  stroke-width="1.0"/>
<line x1="52.4" y1="197.3" x2="78.0" y2="205.6" stroke="rgb(0,0,0)"  stroke-width="1.0"/>
<line x1="78.0" y1="205.6" x2="101.6" y2="173.3" stroke="rgb(0,0,0)"  stroke-width="1.0"/>
<line x1="75.7" y1="196.5" x2="92.2" y2="173.9" stroke="rgb(0,0,0)"  stroke-width="1.0"/>
<line x1="101.6" y1="173.3" x2="78.0" y2="141.0" stroke="rgb(0,0,0)"  stroke-width="1.0"/>
<line x1="90.3" y1="243.8" x2="128.5" y2="256.1" stroke="rgb(0,0,0)"  stroke-width="1.0"/>
<line x1="93.8" y1="252.5" x2="120.5" y2="261.1" stroke="rgb(0,0,0)"  stroke-width="1.0"/>
<line x1="128.5" y1="256.1" x2="128.5" y2="296.1" stroke="rgb(0,0,0)"  stroke-width="1.0"/>
<line x1="128.5" y1="296.1" x2="90.3" y2="308.4" stroke="rgb(0,0,0)"  stroke-width="1.0"/>
<line x1="120.5" y1="291.1" x2="93.8" y2="299.7" stroke="rgb(0,0,0)"  stroke-width="1.0"/>
<line x1="90.3" y1="308.4" x2="74.5" y2="286.6" stroke="rgb(0,0,0)"  stroke-width="1.0"/>
<line x1="74.5" y1="265.6" x2="90.3" y2="243.8" stroke="rgb(0,0,0)"  stroke-width="1.0"/>
<text x="34.000000" y="161.297832" fill="rgb(12,12,255)"  stroke="rgb(12,12,255)" stroke-width="1" font-size="16" >N</text>
<text x="22.000000" y="201.282734" fill="rgb(12,12,255)"  stroke="rgb(12,12,255)" stroke-width="1" font-size="16" >HN</text>
<text x="60.855531" y="284.090926" fill="rgb(178,178,0)"  stroke="rgb(178,178,0)" stroke-width="1" font-size="16" >S</text>
<text x="214.143116" y="48.000000" fill="rgb(102,102,102)"  stroke="rgb(102,102,102)" stroke-width="1" font-size="16" >CH</text>
<text x="57.628986" y="81.323177" fill="rgb(255,12,12)"  stroke="rgb(255,12,12)" stroke-width="1" font-size="16" >O</text>
<text x="123.469917" y="102.729971" fill="rgb(12,12,255)"  stroke="rgb(12,12,255)" stroke-width="1" font-size="16" >N</text>
<text x="123.469917" y="118.729971" fill="rgb(12,12,255)"  stroke="rgb(12,12,255)" stroke-width="1" font-size="16" >H</text>
<text x="51.971343" y="354.371389" fill="rgb(102,102,102)"  stroke="rgb(102,102,102)" stroke-width="1" font-size="16" >H</text>
<text x="63.971343" y="358.051389" fill="rgb(102,102,102)"  stroke="rgb(102,102,102)" stroke-width="1" font-size="13" >3</text>
<text x="70.471343" y="354.371389" fill="rgb(102,102,102)"  stroke="rgb(102,102,102)" stroke-width="1" font-size="16" >C</text>
<text font-size="18.000000" fill ="black" font-family="sans-serif"
x="10.000000" y="20.000000" ></text>
<title> - OBDepict</title>
</svg>
