<?xml version="1.0"?>
<svg xmlns="http://www.w3.org/2000/svg"
xmlns:xlink="http://www.w3.org/1999/xlink" xmlns:cml="http://www.xml-cml.org/schema" width="475.753" height="418.592" x="0" y="0" font-family="sans-serif" stroke="rgb(0,0,0)" stroke-width="1"  stroke-linecap="round">
<rect x="0%" y="0%" width="100%" height="100%" stroke-width="0" fill="rgb(255,255,255)"  />
<line x1="82.1" y1="318.2" x2="108.1" y2="326.9" stroke="rgb(0,0,0)"  stroke-width="1.0"/>
<line x1="348.1" y1="288.8" x2="309.8" y2="301.2" stroke="rgb(0,0,0)"  stroke-width="1.0"/>
<line x1="346.2" y1="283.1" x2="307.9" y2="295.5" stroke="rgb(0,0,0)"  stroke-width="1.0"/>
<line x1="206.0" y1="285.9" x2="231.8" y2="294.3" stroke="rgb(0,0,0)"  stroke-width="1.0"/>
<line x1="427.2" y1="78.5" x2="418.3" y2="117.7" stroke="rgb(0,0,0)"  stroke-width="1.0"/>
<line x1="432.9" y1="52.7" x2="427.2" y2="78.5" stroke="rgb(0,0,0)"  stroke-width="1.0"/>
<line x1="437.0" y1="53.6" x2="431.3" y2="79.4" stroke="rgb(0,0,0)"  stroke-width="1.0"/>
<line x1="428.8" y1="51.8" x2="423.1" y2="77.6" stroke="rgb(0,0,0)"  stroke-width="1.0"/>
<line x1="64.3" y1="287.7" x2="67.2" y2="301.4" stroke="rgb(0,0,0)"  stroke-width="1.0"/>
<line x1="238.0" y1="356.6" x2="253.9" y2="334.9" stroke="rgb(0,0,0)"  stroke-width="1.0"/>
<line x1="242.9" y1="360.1" x2="258.8" y2="338.4" stroke="rgb(0,0,0)"  stroke-width="1.0"/>
<line x1="47.7" y1="330.0" x2="58.1" y2="320.6" stroke="rgb(0,0,0)"  stroke-width="1.0"/>
<line x1="51.7" y1="334.4" x2="62.1" y2="325.0" stroke="rgb(0,0,0)"  stroke-width="1.0"/>
<line x1="279.4" y1="247.4" x2="279.4" y2="274.6" stroke="rgb(0,0,0)"  stroke-width="1.0"/>
<line x1="273.4" y1="247.4" x2="273.4" y2="274.6" stroke="rgb(0,0,0)"  stroke-width="1.0"/>
<line x1="355.5" y1="246.6" x2="347.2" y2="285.9" stroke="rgb(0,0,0)"  stroke-width="1.0"/>
<line x1="176.0" y1="312.9" x2="206.0" y2="285.9" stroke="rgb(0,0,0)"  stroke-width="1.0"/>
<line x1="314.2" y1="162.9" x2="333.8" y2="180.9" stroke="rgb(0,0,0)"  stroke-width="1.0"/>
<line x1="377.5" y1="141.9" x2="371.5" y2="168.7" stroke="rgb(0,0,0)"  stroke-width="1.0"/>
<line x1="418.3" y1="117.7" x2="392.8" y2="125.4" stroke="rgb(0,0,0)"  stroke-width="1.0"/>
<line x1="266.9" y1="166.7" x2="292.2" y2="158.3" stroke="rgb(0,0,0)"  stroke-width="1.0"/>
<line x1="247.1" y1="148.7" x2="266.9" y2="166.7" stroke="rgb(0,0,0)"  stroke-width="1.0"/>
<line x1="254.6" y1="290.6" x2="276.4" y2="274.6" stroke="rgb(0,0,0)"  stroke-width="1.0"/>
<line x1="276.4" y1="274.6" x2="308.8" y2="298.3" stroke="rgb(0,0,0)"  stroke-width="1.0"/>
<line x1="308.8" y1="298.3" x2="300.5" y2="324.3" stroke="rgb(0,0,0)"  stroke-width="1.0"/>
<line x1="283.5" y1="336.6" x2="256.3" y2="336.6" stroke="rgb(0,0,0)"  stroke-width="1.0"/>
<line x1="256.3" y1="336.6" x2="248.1" y2="310.7" stroke="rgb(0,0,0)"  stroke-width="1.0"/>
<line x1="333.8" y1="180.9" x2="371.5" y2="168.7" stroke="rgb(0,0,0)"  stroke-width="1.0"/>
<line x1="341.7" y1="185.9" x2="368.0" y2="177.4" stroke="rgb(0,0,0)"  stroke-width="1.0"/>
<line x1="371.5" y1="168.7" x2="401.3" y2="195.5" stroke="rgb(0,0,0)"  stroke-width="1.0"/>
<line x1="401.3" y1="195.5" x2="392.8" y2="234.4" stroke="rgb(0,0,0)"  stroke-width="1.0"/>
<line x1="393.0" y1="199.8" x2="387.0" y2="227.0" stroke="rgb(0,0,0)"  stroke-width="1.0"/>
<line x1="392.8" y1="234.4" x2="355.5" y2="246.6" stroke="rgb(0,0,0)"  stroke-width="1.0"/>
<line x1="355.5" y1="246.6" x2="325.9" y2="219.8" stroke="rgb(0,0,0)"  stroke-width="1.0"/>
<line x1="355.8" y1="237.2" x2="335.1" y2="218.5" stroke="rgb(0,0,0)"  stroke-width="1.0"/>
<line x1="325.9" y1="219.8" x2="333.8" y2="180.9" stroke="rgb(0,0,0)"  stroke-width="1.0"/>
<line x1="108.1" y1="326.9" x2="116.0" y2="365.8" stroke="rgb(0,0,0)"  stroke-width="1.0"/>
<line x1="116.4" y1="331.3" x2="121.9" y2="358.5" stroke="rgb(0,0,0)"  stroke-width="1.0"/>
<line x1="116.0" y1="365.8" x2="154.3" y2="378.6" stroke="rgb(0,0,0)"  stroke-width="1.0"/>
<line x1="154.3" y1="378.6" x2="184.6" y2="351.8" stroke="rgb(0,0,0)"  stroke-width="1.0"/>
<line x1="154.1" y1="369.2" x2="175.3" y2="350.4" stroke="rgb(0,0,0)"  stroke-width="1.0"/>
<line x1="184.6" y1="351.8" x2="176.0" y2="312.9" stroke="rgb(0,0,0)"  stroke-width="1.0"/>
<line x1="176.0" y1="312.9" x2="137.9" y2="300.1" stroke="rgb(0,0,0)"  stroke-width="1.0"/>
<line x1="168.1" y1="317.8" x2="141.3" y2="308.9" stroke="rgb(0,0,0)"  stroke-width="1.0"/>
<line x1="137.9" y1="300.1" x2="108.1" y2="326.9" stroke="rgb(0,0,0)"  stroke-width="1.0"/>
<text x="238.159236" y="306.305204" fill="rgb(12,12,255)"  stroke="rgb(12,12,255)" stroke-width="1" font-size="16" >N</text>
<text x="290.469912" y="344.622993" fill="rgb(178,178,0)"  stroke="rgb(178,178,0)" stroke-width="1" font-size="16" >S</text>
<text x="74.601646" y="310.086818" fill="rgb(12,12,255)"  stroke="rgb(12,12,255)" stroke-width="1" font-size="16" >+</text>
<text x="63.801646" y="322.118818" fill="rgb(12,12,255)"  stroke="rgb(12,12,255)" stroke-width="1" font-size="16" >N</text>
<text x="429.753035" y="48.000000" fill="rgb(102,102,102)"  stroke="rgb(102,102,102)" stroke-width="1" font-size="16" >CH</text>
<text x="66.488490" y="260.873344" fill="rgb(255,12,12)"  stroke="rgb(255,12,12)" stroke-width="1" font-size="16" >_</text>
<text x="55.688490" y="282.985344" fill="rgb(255,12,12)"  stroke="rgb(255,12,12)" stroke-width="1" font-size="16" >O</text>
<text x="226.807616" y="376.857129" fill="rgb(255,12,12)"  stroke="rgb(255,12,12)" stroke-width="1" font-size="16" >O</text>
<text x="34.000000" y="348.881064" fill="rgb(255,12,12)"  stroke="rgb(255,12,12)" stroke-width="1" font-size="16" >O</text>
<text x="270.398227" y="242.438986" fill="rgb(255,12,12)"  stroke="rgb(255,12,12)" stroke-width="1" font-size="16" >O</text>
<text x="298.578213" y="162.152246" fill="rgb(255,12,12)"  stroke="rgb(255,12,12)" stroke-width="1" font-size="16" >O</text>
<text x="374.407815" y="137.215581" fill="rgb(255,12,12)"  stroke="rgb(255,12,12)" stroke-width="1" font-size="16" >O</text>
<text x="211.468675" y="147.955438" fill="rgb(102,102,102)"  stroke="rgb(102,102,102)" stroke-width="1" font-size="16" >H</text>
<text x="223.468675" y="151.635438" fill="rgb(102,102,102)"  stroke="rgb(102,102,102)" stroke-width="1" font-size="13" >3</text>
<text x="229.968675" y="147.955438" fill="rgb(102,102,102)"  stroke="rgb(102,102,102)" stroke-width="1" font-size="16" >C</text>
<text font-size="18.000000" fill ="black" font-family="sans-serif"
x="10.000000" y="20.000000" ></text>
<title> - OBDepict</title>
</svg>
