<?xml version="1.0"?>
<svg xmlns="http://www.w3.org/2000/svg"
xmlns:xlink="http://www.w3.org/1999/xlink" xmlns:cml="http://www.xml-cml.org/schema" width="385.82" height="359.966" x="0" y="0" font-family="sans-serif" stroke="rgb(0,0,0)" stroke-width="1"  stroke-linecap="round">
<rect x="0%" y="0%" width="100%" height="100%" stroke-width="0" fill="rgb(255,255,255)"  />
<line x1="207.3" y1="240.0" x2="183.8" y2="253.5" stroke="rgb(0,0,0)"  stroke-width="1.0"/>
<line x1="149.2" y1="273.5" x2="161.3" y2="266.5" stroke="rgb(0,0,0)"  stroke-width="1.0"/>
<line x1="241.8" y1="140.0" x2="241.8" y2="180.0" stroke="rgb(0,0,0)"  stroke-width="1.0"/>
<line x1="183.4" y1="284.8" x2="176.4" y2="272.7" stroke="rgb(0,0,0)"  stroke-width="1.0"/>
<line x1="188.6" y1="281.8" x2="181.6" y2="269.7" stroke="rgb(0,0,0)"  stroke-width="1.0"/>
<line x1="161.6" y1="235.0" x2="168.6" y2="247.2" stroke="rgb(0,0,0)"  stroke-width="1.0"/>
<line x1="156.4" y1="238.0" x2="163.4" y2="250.2" stroke="rgb(0,0,0)"  stroke-width="1.0"/>
<line x1="311.1" y1="60.0" x2="276.5" y2="80.0" stroke="rgb(0,0,0)"  stroke-width="1.0"/>
<line x1="334.6" y1="46.5" x2="311.1" y2="60.0" stroke="rgb(0,0,0)"  stroke-width="1.0"/>
<line x1="336.6" y1="50.1" x2="313.2" y2="63.6" stroke="rgb(0,0,0)"  stroke-width="1.0"/>
<line x1="332.5" y1="42.8" x2="309.0" y2="56.4" stroke="rgb(0,0,0)"  stroke-width="1.0"/>
<line x1="220.0" y1="123.9" x2="243.3" y2="137.4" stroke="rgb(0,0,0)"  stroke-width="1.0"/>
<line x1="217.0" y1="129.1" x2="240.3" y2="142.6" stroke="rgb(0,0,0)"  stroke-width="1.0"/>
<line x1="265.3" y1="126.5" x2="241.8" y2="140.0" stroke="rgb(0,0,0)"  stroke-width="1.0"/>
<line x1="103.2" y1="260.0" x2="126.7" y2="273.5" stroke="rgb(0,0,0)"  stroke-width="1.0"/>
<line x1="276.5" y1="80.0" x2="276.5" y2="107.0" stroke="rgb(0,0,0)"  stroke-width="1.0"/>
<line x1="241.8" y1="287.0" x2="241.8" y2="260.0" stroke="rgb(0,0,0)"  stroke-width="1.0"/>
<line x1="265.3" y1="313.5" x2="253.1" y2="306.5" stroke="rgb(0,0,0)"  stroke-width="1.0"/>
<line x1="103.2" y1="260.0" x2="66.7" y2="276.1" stroke="rgb(0,0,0)"  stroke-width="1.0"/>
<line x1="66.7" y1="276.1" x2="40.0" y2="246.4" stroke="rgb(0,0,0)"  stroke-width="1.0"/>
<line x1="40.0" y1="246.4" x2="60.0" y2="211.9" stroke="rgb(0,0,0)"  stroke-width="1.0"/>
<line x1="60.0" y1="211.9" x2="99.2" y2="220.2" stroke="rgb(0,0,0)"  stroke-width="1.0"/>
<line x1="99.2" y1="220.2" x2="103.2" y2="260.0" stroke="rgb(0,0,0)"  stroke-width="1.0"/>
<line x1="207.3" y1="240.0" x2="207.3" y2="200.0" stroke="rgb(0,0,0)"  stroke-width="1.0"/>
<line x1="207.3" y1="200.0" x2="241.8" y2="180.0" stroke="rgb(0,0,0)"  stroke-width="1.0"/>
<line x1="216.1" y1="203.2" x2="240.2" y2="189.2" stroke="rgb(0,0,0)"  stroke-width="1.0"/>
<line x1="241.8" y1="180.0" x2="276.5" y2="200.0" stroke="rgb(0,0,0)"  stroke-width="1.0"/>
<line x1="276.5" y1="200.0" x2="276.5" y2="240.0" stroke="rgb(0,0,0)"  stroke-width="1.0"/>
<line x1="269.3" y1="206.0" x2="269.3" y2="234.0" stroke="rgb(0,0,0)"  stroke-width="1.0"/>
<line x1="276.5" y1="240.0" x2="241.8" y2="260.0" stroke="rgb(0,0,0)"  stroke-width="1.0"/>
<line x1="241.8" y1="260.0" x2="207.3" y2="240.0" stroke="rgb(0,0,0)"  stroke-width="1.0"/>
<line x1="240.2" y1="250.7" x2="216.1" y2="236.8" stroke="rgb(0,0,0)"  stroke-width="1.0"/>
<text x="166.507780" y="267.973678" fill="rgb(178,178,0)"  stroke="rgb(178,178,0)" stroke-width="1" font-size="16" >S</text>
<text x="131.966459" y="287.971285" fill="rgb(12,12,255)"  stroke="rgb(12,12,255)" stroke-width="1" font-size="16" >N</text>
<text x="131.966459" y="303.971285" fill="rgb(12,12,255)"  stroke="rgb(12,12,255)" stroke-width="1" font-size="16" >H</text>
<text x="186.505387" y="302.514999" fill="rgb(255,12,12)"  stroke="rgb(255,12,12)" stroke-width="1" font-size="16" >O</text>
<text x="146.510173" y="233.228745" fill="rgb(255,12,12)"  stroke="rgb(255,12,12)" stroke-width="1" font-size="16" >O</text>
<text x="339.820375" y="48.000000" fill="rgb(102,102,102)"  stroke="rgb(102,102,102)" stroke-width="1" font-size="16" >CH</text>
<text x="201.252714" y="127.990428" fill="rgb(255,12,12)"  stroke="rgb(255,12,12)" stroke-width="1" font-size="16" >O</text>
<text x="270.538968" y="127.990428" fill="rgb(12,12,255)"  stroke="rgb(12,12,255)" stroke-width="1" font-size="16" >NH</text>
<text x="235.794035" y="307.968892" fill="rgb(255,12,12)"  stroke="rgb(255,12,12)" stroke-width="1" font-size="16" >O</text>
<text x="272.538968" y="327.966499" fill="rgb(102,102,102)"  stroke="rgb(102,102,102)" stroke-width="1" font-size="16" >CH</text>
<text x="296.538968" y="331.646499" fill="rgb(102,102,102)"  stroke="rgb(102,102,102)" stroke-width="1" font-size="13" >3</text>
<text font-size="18.000000" fill ="black" font-family="sans-serif"
x="10.000000" y="20.000000" ></text>
<title> - OBDepict</title>
</svg>
