<?xml version="1.0"?>
<svg xmlns="http://www.w3.org/2000/svg"
xmlns:xlink="http://www.w3.org/1999/xlink" xmlns:cml="http://www.xml-cml.org/schema" width="257.961" height="510.053" x="0" y="0" font-family="sans-serif" stroke="rgb(0,0,0)" stroke-width="1"  stroke-linecap="round">
<rect x="0%" y="0%" width="100%" height="100%" stroke-width="0" fill="rgb(255,255,255)"  />
<line x1="147.7" y1="349.7" x2="148.2" y2="389.9" stroke="rgb(0,0,0)"  stroke-width="1.0"/>
<line x1="182.6" y1="409.9" x2="206.0" y2="396.4" stroke="rgb(0,0,0)"  stroke-width="1.0"/>
<line x1="128.6" y1="289.4" x2="106.4" y2="255.5" stroke="rgb(0,0,0)"  stroke-width="1.0"/>
<line x1="133.7" y1="286.1" x2="111.5" y2="252.2" stroke="rgb(0,0,0)"  stroke-width="1.0"/>
<line x1="168.2" y1="287.7" x2="184.9" y2="266.1" stroke="rgb(0,0,0)"  stroke-width="1.0"/>
<line x1="172.9" y1="291.4" x2="189.7" y2="269.8" stroke="rgb(0,0,0)"  stroke-width="1.0"/>
<line x1="108.9" y1="253.9" x2="127.5" y2="218.1" stroke="rgb(0,0,0)"  stroke-width="1.0"/>
<line x1="123.5" y1="148.5" x2="108.9" y2="126.3" stroke="rgb(0,0,0)"  stroke-width="1.0"/>
<line x1="163.4" y1="146.3" x2="175.7" y2="122.2" stroke="rgb(0,0,0)"  stroke-width="1.0"/>
<line x1="88.8" y1="116.1" x2="61.7" y2="117.5" stroke="rgb(0,0,0)"  stroke-width="1.0"/>
<line x1="174.5" y1="99.7" x2="159.9" y2="77.4" stroke="rgb(0,0,0)"  stroke-width="1.0"/>
<line x1="61.7" y1="117.5" x2="47.1" y2="94.8" stroke="rgb(0,0,0)"  stroke-width="1.0"/>
<line x1="159.9" y1="77.4" x2="177.9" y2="42.0" stroke="rgb(0,0,0)"  stroke-width="1.0"/>
<line x1="177.9" y1="42.0" x2="205.0" y2="40.6" stroke="rgb(0,0,0)"  stroke-width="1.0"/>
<line x1="177.7" y1="37.8" x2="204.8" y2="36.5" stroke="rgb(0,0,0)"  stroke-width="1.0"/>
<line x1="178.1" y1="46.2" x2="205.2" y2="44.8" stroke="rgb(0,0,0)"  stroke-width="1.0"/>
<line x1="147.7" y1="349.7" x2="127.0" y2="333.4" stroke="rgb(0,0,0)"  stroke-width="1.0"/>
<line x1="147.4" y1="340.3" x2="133.1" y2="329.0" stroke="rgb(0,0,0)"  stroke-width="1.0"/>
<line x1="121.4" y1="313.2" x2="131.2" y2="287.7" stroke="rgb(0,0,0)"  stroke-width="1.0"/>
<line x1="131.2" y1="287.7" x2="170.5" y2="289.6" stroke="rgb(0,0,0)"  stroke-width="1.0"/>
<line x1="170.5" y1="289.6" x2="177.6" y2="315.3" stroke="rgb(0,0,0)"  stroke-width="1.0"/>
<line x1="170.2" y1="334.9" x2="147.7" y2="349.7" stroke="rgb(0,0,0)"  stroke-width="1.0"/>
<line x1="148.2" y1="389.9" x2="113.3" y2="409.9" stroke="rgb(0,0,0)"  stroke-width="1.0"/>
<line x1="146.6" y1="399.2" x2="122.1" y2="413.2" stroke="rgb(0,0,0)"  stroke-width="1.0"/>
<line x1="113.3" y1="409.9" x2="113.3" y2="450.2" stroke="rgb(0,0,0)"  stroke-width="1.0"/>
<line x1="113.3" y1="450.2" x2="147.7" y2="470.1" stroke="rgb(0,0,0)"  stroke-width="1.0"/>
<line x1="122.1" y1="447.0" x2="146.1" y2="460.8" stroke="rgb(0,0,0)"  stroke-width="1.0"/>
<line x1="147.7" y1="470.1" x2="182.2" y2="450.2" stroke="rgb(0,0,0)"  stroke-width="1.0"/>
<line x1="182.2" y1="450.2" x2="182.6" y2="409.9" stroke="rgb(0,0,0)"  stroke-width="1.0"/>
<line x1="175.1" y1="444.1" x2="175.3" y2="415.9" stroke="rgb(0,0,0)"  stroke-width="1.0"/>
<line x1="182.6" y1="409.9" x2="148.2" y2="389.9" stroke="rgb(0,0,0)"  stroke-width="1.0"/>
<line x1="127.5" y1="218.1" x2="167.0" y2="215.6" stroke="rgb(0,0,0)"  stroke-width="1.0"/>
<line x1="133.0" y1="210.6" x2="160.6" y2="208.8" stroke="rgb(0,0,0)"  stroke-width="1.0"/>
<line x1="167.0" y1="215.6" x2="185.6" y2="180.2" stroke="rgb(0,0,0)"  stroke-width="1.0"/>
<line x1="185.6" y1="180.2" x2="163.4" y2="146.3" stroke="rgb(0,0,0)"  stroke-width="1.0"/>
<line x1="176.3" y1="179.2" x2="160.6" y2="155.3" stroke="rgb(0,0,0)"  stroke-width="1.0"/>
<line x1="163.4" y1="146.3" x2="123.5" y2="148.5" stroke="rgb(0,0,0)"  stroke-width="1.0"/>
<line x1="123.5" y1="148.5" x2="105.3" y2="184.2" stroke="rgb(0,0,0)"  stroke-width="1.0"/>
<line x1="127.2" y1="157.1" x2="114.4" y2="182.2" stroke="rgb(0,0,0)"  stroke-width="1.0"/>
<line x1="105.3" y1="184.2" x2="127.5" y2="218.1" stroke="rgb(0,0,0)"  stroke-width="1.0"/>
<text x="110.793910" y="333.310200" fill="rgb(12,12,255)"  stroke="rgb(12,12,255)" stroke-width="1" font-size="16" >N</text>
<text x="175.063428" y="335.813134" fill="rgb(255,12,12)"  stroke="rgb(255,12,12)" stroke-width="1" font-size="16" >O</text>
<text x="211.290363" y="397.919923" fill="rgb(127,178,255)"  stroke="rgb(127,178,255)" stroke-width="1" font-size="16" >F</text>
<text x="189.259682" y="265.696956" fill="rgb(255,12,12)"  stroke="rgb(255,12,12)" stroke-width="1" font-size="16" >O</text>
<text x="95.766584" y="123.457391" fill="rgb(255,12,12)"  stroke="rgb(255,12,12)" stroke-width="1" font-size="16" >O</text>
<text x="175.568875" y="118.616765" fill="rgb(255,12,12)"  stroke="rgb(255,12,12)" stroke-width="1" font-size="16" >O</text>
<text x="14.000000" y="91.905840" fill="rgb(102,102,102)"  stroke="rgb(102,102,102)" stroke-width="1" font-size="16" >H</text>
<text x="26.000000" y="95.585840" fill="rgb(102,102,102)"  stroke="rgb(102,102,102)" stroke-width="1" font-size="13" >3</text>
<text x="32.500000" y="91.905840" fill="rgb(102,102,102)"  stroke="rgb(102,102,102)" stroke-width="1" font-size="16" >C</text>
<text x="211.961052" y="48.000000" fill="rgb(102,102,102)"  stroke="rgb(102,102,102)" stroke-width="1" font-size="16" >CH</text>
<text font-size="18.000000" fill ="black" font-family="sans-serif"
x="10.000000" y="20.000000" ></text>
<title> - OBDepict</title>
</svg>
