<?xml version="1.0"?>
<svg xmlns="http://www.w3.org/2000/svg"
xmlns:xlink="http://www.w3.org/1999/xlink" xmlns:cml="http://www.xml-cml.org/schema" width="486.082" height="339.887" x="0" y="0" font-family="sans-serif" stroke="rgb(0,0,0)" stroke-width="1"  stroke-linecap="round">
<rect x="0%" y="0%" width="100%" height="100%" stroke-width="0" fill="rgb(255,255,255)"  />
<line x1="237.8" y1="139.2" x2="203.5" y2="159.3" stroke="rgb(0,0,0)"  stroke-width="1.0"/>
<line x1="271.0" y1="161.9" x2="236.3" y2="141.8" stroke="rgb(0,0,0)"  stroke-width="1.0"/>
<line x1="274.0" y1="156.7" x2="239.3" y2="136.6" stroke="rgb(0,0,0)"  stroke-width="1.0"/>
<line x1="307.2" y1="139.2" x2="272.5" y2="159.3" stroke="rgb(0,0,0)"  stroke-width="1.0"/>
<line x1="237.8" y1="99.2" x2="237.8" y2="139.2" stroke="rgb(0,0,0)"  stroke-width="1.0"/>
<line x1="237.8" y1="73.0" x2="237.8" y2="99.2" stroke="rgb(0,0,0)"  stroke-width="1.0"/>
<line x1="242.0" y1="73.0" x2="242.0" y2="99.2" stroke="rgb(0,0,0)"  stroke-width="1.0"/>
<line x1="233.6" y1="73.0" x2="233.6" y2="99.2" stroke="rgb(0,0,0)"  stroke-width="1.0"/>
<line x1="376.7" y1="259.8" x2="376.7" y2="219.8" stroke="rgb(0,0,0)"  stroke-width="1.0"/>
<line x1="376.7" y1="286.9" x2="376.7" y2="259.8" stroke="rgb(0,0,0)"  stroke-width="1.0"/>
<line x1="372.5" y1="286.9" x2="372.5" y2="259.8" stroke="rgb(0,0,0)"  stroke-width="1.0"/>
<line x1="380.9" y1="286.9" x2="380.9" y2="259.8" stroke="rgb(0,0,0)"  stroke-width="1.0"/>
<line x1="400.1" y1="152.8" x2="376.7" y2="139.2" stroke="rgb(0,0,0)"  stroke-width="1.0"/>
<line x1="341.9" y1="186.8" x2="341.9" y2="159.3" stroke="rgb(0,0,0)"  stroke-width="1.0"/>
<line x1="341.9" y1="53.0" x2="341.9" y2="79.2" stroke="rgb(0,0,0)"  stroke-width="1.0"/>
<line x1="376.7" y1="219.8" x2="353.2" y2="206.3" stroke="rgb(0,0,0)"  stroke-width="1.0"/>
<line x1="53.0" y1="208.0" x2="80.1" y2="208.0" stroke="rgb(0,0,0)"  stroke-width="1.0"/>
<line x1="86.6" y1="265.9" x2="100.1" y2="242.5" stroke="rgb(0,0,0)"  stroke-width="1.0"/>
<line x1="434.8" y1="145.7" x2="422.6" y2="152.8" stroke="rgb(0,0,0)"  stroke-width="1.0"/>
<line x1="203.5" y1="159.3" x2="200.5" y2="186.4" stroke="rgb(0,0,0)"  stroke-width="1.0"/>
<line x1="186.4" y1="202.1" x2="160.2" y2="208.0" stroke="rgb(0,0,0)"  stroke-width="1.0"/>
<line x1="160.2" y1="208.0" x2="140.1" y2="173.3" stroke="rgb(0,0,0)"  stroke-width="1.0"/>
<line x1="140.1" y1="173.3" x2="158.2" y2="153.0" stroke="rgb(0,0,0)"  stroke-width="1.0"/>
<line x1="178.9" y1="148.5" x2="203.5" y2="159.3" stroke="rgb(0,0,0)"  stroke-width="1.0"/>
<line x1="177.9" y1="155.9" x2="195.2" y2="163.5" stroke="rgb(0,0,0)"  stroke-width="1.0"/>
<line x1="307.2" y1="139.2" x2="341.9" y2="159.3" stroke="rgb(0,0,0)"  stroke-width="1.0"/>
<line x1="316.0" y1="136.0" x2="340.3" y2="150.0" stroke="rgb(0,0,0)"  stroke-width="1.0"/>
<line x1="341.9" y1="159.3" x2="376.7" y2="139.2" stroke="rgb(0,0,0)"  stroke-width="1.0"/>
<line x1="376.7" y1="139.2" x2="376.7" y2="99.2" stroke="rgb(0,0,0)"  stroke-width="1.0"/>
<line x1="369.5" y1="133.2" x2="369.5" y2="105.2" stroke="rgb(0,0,0)"  stroke-width="1.0"/>
<line x1="376.7" y1="99.2" x2="341.9" y2="79.2" stroke="rgb(0,0,0)"  stroke-width="1.0"/>
<line x1="341.9" y1="79.2" x2="307.2" y2="99.2" stroke="rgb(0,0,0)"  stroke-width="1.0"/>
<line x1="340.3" y1="88.4" x2="316.0" y2="102.4" stroke="rgb(0,0,0)"  stroke-width="1.0"/>
<line x1="307.2" y1="99.2" x2="307.2" y2="139.2" stroke="rgb(0,0,0)"  stroke-width="1.0"/>
<line x1="100.1" y1="173.3" x2="80.1" y2="208.0" stroke="rgb(0,0,0)"  stroke-width="1.0"/>
<line x1="80.1" y1="208.0" x2="100.1" y2="242.5" stroke="rgb(0,0,0)"  stroke-width="1.0"/>
<line x1="89.3" y1="209.6" x2="103.3" y2="233.7" stroke="rgb(0,0,0)"  stroke-width="1.0"/>
<line x1="100.1" y1="242.5" x2="140.1" y2="242.5" stroke="rgb(0,0,0)"  stroke-width="1.0"/>
<line x1="140.1" y1="242.5" x2="160.2" y2="208.0" stroke="rgb(0,0,0)"  stroke-width="1.0"/>
<line x1="136.9" y1="233.7" x2="150.9" y2="209.6" stroke="rgb(0,0,0)"  stroke-width="1.0"/>
<line x1="140.1" y1="173.3" x2="100.1" y2="173.3" stroke="rgb(0,0,0)"  stroke-width="1.0"/>
<line x1="134.1" y1="180.5" x2="106.1" y2="180.5" stroke="rgb(0,0,0)"  stroke-width="1.0"/>
<text x="160.829202" y="151.245039" fill="rgb(12,12,255)"  stroke="rgb(12,12,255)" stroke-width="1" font-size="16" >N</text>
<text x="193.098434" y="207.316896" fill="rgb(12,12,255)"  stroke="rgb(12,12,255)" stroke-width="1" font-size="16" >NH</text>
<text x="231.814717" y="68.025663" fill="rgb(12,12,255)"  stroke="rgb(12,12,255)" stroke-width="1" font-size="16" >N</text>
<text x="370.659317" y="307.886991" fill="rgb(102,102,102)"  stroke="rgb(102,102,102)" stroke-width="1" font-size="16" >CH</text>
<text x="405.370467" y="167.265569" fill="rgb(255,12,12)"  stroke="rgb(255,12,12)" stroke-width="1" font-size="16" >O</text>
<text x="335.948167" y="207.763529" fill="rgb(255,12,12)"  stroke="rgb(255,12,12)" stroke-width="1" font-size="16" >O</text>
<text x="335.948167" y="48.000000" fill="rgb(165,40,40)"  stroke="rgb(165,40,40)" stroke-width="1" font-size="16" >Br</text>
<text x="14.000000" y="215.997111" fill="rgb(102,102,102)"  stroke="rgb(102,102,102)" stroke-width="1" font-size="16" >H</text>
<text x="26.000000" y="219.677111" fill="rgb(102,102,102)"  stroke="rgb(102,102,102)" stroke-width="1" font-size="13" >3</text>
<text x="32.500000" y="215.997111" fill="rgb(102,102,102)"  stroke="rgb(102,102,102)" stroke-width="1" font-size="16" >C</text>
<text x="54.056182" y="285.191240" fill="rgb(102,102,102)"  stroke="rgb(102,102,102)" stroke-width="1" font-size="16" >H</text>
<text x="66.056182" y="288.871240" fill="rgb(102,102,102)"  stroke="rgb(102,102,102)" stroke-width="1" font-size="13" >3</text>
<text x="72.556182" y="285.191240" fill="rgb(102,102,102)"  stroke="rgb(102,102,102)" stroke-width="1" font-size="16" >C</text>
<text x="442.081616" y="147.239906" fill="rgb(102,102,102)"  stroke="rgb(102,102,102)" stroke-width="1" font-size="16" >CH</text>
<text x="466.081616" y="150.919906" fill="rgb(102,102,102)"  stroke="rgb(102,102,102)" stroke-width="1" font-size="13" >3</text>
<text font-size="18.000000" fill ="black" font-family="sans-serif"
x="10.000000" y="20.000000" ></text>
<title> - OBDepict</title>
</svg>
