<?xml version="1.0"?>
<svg xmlns="http://www.w3.org/2000/svg"
xmlns:xlink="http://www.w3.org/1999/xlink" xmlns:cml="http://www.xml-cml.org/schema" width="439.493" height="293.925" x="0" y="0" font-family="sans-serif" stroke="rgb(0,0,0)" stroke-width="1"  stroke-linecap="round">
<rect x="0%" y="0%" width="100%" height="100%" stroke-width="0" fill="rgb(255,255,255)"  />
<line x1="207.3" y1="216.1" x2="220.2" y2="178.3" stroke="rgb(0,0,0)"  stroke-width="1.0"/>
<line x1="198.7" y1="241.6" x2="207.3" y2="216.1" stroke="rgb(0,0,0)"  stroke-width="1.0"/>
<line x1="194.8" y1="240.3" x2="203.3" y2="214.8" stroke="rgb(0,0,0)"  stroke-width="1.0"/>
<line x1="202.7" y1="242.9" x2="211.3" y2="217.5" stroke="rgb(0,0,0)"  stroke-width="1.0"/>
<line x1="371.9" y1="162.4" x2="343.6" y2="134.9" stroke="rgb(0,0,0)"  stroke-width="1.0"/>
<line x1="390.5" y1="181.6" x2="371.9" y2="162.4" stroke="rgb(0,0,0)"  stroke-width="1.0"/>
<line x1="387.4" y1="184.6" x2="368.9" y2="165.4" stroke="rgb(0,0,0)"  stroke-width="1.0"/>
<line x1="393.5" y1="178.7" x2="375.0" y2="159.5" stroke="rgb(0,0,0)"  stroke-width="1.0"/>
<line x1="286.2" y1="97.0" x2="275.8" y2="122.4" stroke="rgb(0,0,0)"  stroke-width="1.0"/>
<line x1="280.6" y1="94.7" x2="270.2" y2="120.1" stroke="rgb(0,0,0)"  stroke-width="1.0"/>
<line x1="119.8" y1="144.1" x2="146.6" y2="144.0" stroke="rgb(0,0,0)"  stroke-width="1.0"/>
<line x1="163.3" y1="199.5" x2="180.3" y2="178.7" stroke="rgb(0,0,0)"  stroke-width="1.0"/>
<line x1="343.6" y1="134.9" x2="317.3" y2="142.3" stroke="rgb(0,0,0)"  stroke-width="1.0"/>
<line x1="264.5" y1="63.2" x2="240.8" y2="77.0" stroke="rgb(0,0,0)"  stroke-width="1.0"/>
<line x1="261.5" y1="58.0" x2="237.7" y2="71.8" stroke="rgb(0,0,0)"  stroke-width="1.0"/>
<line x1="273.0" y1="121.2" x2="294.5" y2="137.8" stroke="rgb(0,0,0)"  stroke-width="1.0"/>
<line x1="300.3" y1="158.0" x2="290.9" y2="183.6" stroke="rgb(0,0,0)"  stroke-width="1.0"/>
<line x1="290.9" y1="183.6" x2="250.9" y2="181.7" stroke="rgb(0,0,0)"  stroke-width="1.0"/>
<line x1="285.3" y1="176.1" x2="257.2" y2="174.8" stroke="rgb(0,0,0)"  stroke-width="1.0"/>
<line x1="250.9" y1="181.7" x2="239.9" y2="143.7" stroke="rgb(0,0,0)"  stroke-width="1.0"/>
<line x1="239.9" y1="143.7" x2="273.0" y2="121.2" stroke="rgb(0,0,0)"  stroke-width="1.0"/>
<line x1="239.9" y1="143.7" x2="220.2" y2="178.3" stroke="rgb(0,0,0)"  stroke-width="1.0"/>
<line x1="220.2" y1="178.3" x2="180.3" y2="178.7" stroke="rgb(0,0,0)"  stroke-width="1.0"/>
<line x1="214.1" y1="171.2" x2="186.3" y2="171.5" stroke="rgb(0,0,0)"  stroke-width="1.0"/>
<line x1="180.3" y1="178.7" x2="166.3" y2="155.1" stroke="rgb(0,0,0)"  stroke-width="1.0"/>
<line x1="166.1" y1="132.7" x2="179.7" y2="109.2" stroke="rgb(0,0,0)"  stroke-width="1.0"/>
<line x1="179.7" y1="109.2" x2="219.5" y2="109.2" stroke="rgb(0,0,0)"  stroke-width="1.0"/>
<line x1="185.7" y1="116.4" x2="213.5" y2="116.4" stroke="rgb(0,0,0)"  stroke-width="1.0"/>
<line x1="219.5" y1="109.2" x2="239.9" y2="143.7" stroke="rgb(0,0,0)"  stroke-width="1.0"/>
<line x1="159.2" y1="75.2" x2="178.9" y2="40.4" stroke="rgb(0,0,0)"  stroke-width="1.0"/>
<line x1="178.9" y1="40.4" x2="218.7" y2="40.0" stroke="rgb(0,0,0)"  stroke-width="1.0"/>
<line x1="218.7" y1="40.0" x2="239.2" y2="74.4" stroke="rgb(0,0,0)"  stroke-width="1.0"/>
<line x1="239.2" y1="74.4" x2="219.5" y2="109.2" stroke="rgb(0,0,0)"  stroke-width="1.0"/>
<line x1="179.7" y1="109.2" x2="159.2" y2="75.2" stroke="rgb(0,0,0)"  stroke-width="1.0"/>
<line x1="119.8" y1="144.1" x2="100.1" y2="179.1" stroke="rgb(0,0,0)"  stroke-width="1.0"/>
<line x1="100.1" y1="179.1" x2="73.4" y2="179.0" stroke="rgb(0,0,0)"  stroke-width="1.0"/>
<line x1="94.2" y1="171.9" x2="75.5" y2="171.8" stroke="rgb(0,0,0)"  stroke-width="1.0"/>
<line x1="53.7" y1="167.7" x2="40.0" y2="144.3" stroke="rgb(0,0,0)"  stroke-width="1.0"/>
<line x1="40.0" y1="144.3" x2="60.3" y2="109.6" stroke="rgb(0,0,0)"  stroke-width="1.0"/>
<line x1="49.2" y1="142.8" x2="63.5" y2="118.4" stroke="rgb(0,0,0)"  stroke-width="1.0"/>
<line x1="60.3" y1="109.6" x2="100.1" y2="109.4" stroke="rgb(0,0,0)"  stroke-width="1.0"/>
<line x1="100.1" y1="109.4" x2="119.8" y2="144.1" stroke="rgb(0,0,0)"  stroke-width="1.0"/>
<line x1="96.8" y1="118.1" x2="110.6" y2="142.5" stroke="rgb(0,0,0)"  stroke-width="1.0"/>
<line x1="290.9" y1="183.6" x2="309.6" y2="218.7" stroke="rgb(0,0,0)"  stroke-width="1.0"/>
<line x1="309.6" y1="218.7" x2="288.3" y2="252.7" stroke="rgb(0,0,0)"  stroke-width="1.0"/>
<line x1="300.3" y1="220.0" x2="285.4" y2="243.8" stroke="rgb(0,0,0)"  stroke-width="1.0"/>
<line x1="288.3" y1="252.7" x2="248.3" y2="251.3" stroke="rgb(0,0,0)"  stroke-width="1.0"/>
<line x1="248.3" y1="251.3" x2="229.6" y2="215.7" stroke="rgb(0,0,0)"  stroke-width="1.0"/>
<line x1="251.9" y1="242.6" x2="238.8" y2="217.7" stroke="rgb(0,0,0)"  stroke-width="1.0"/>
<line x1="229.6" y1="215.7" x2="250.9" y2="181.7" stroke="rgb(0,0,0)"  stroke-width="1.0"/>
<text x="153.630683" y="151.941572" fill="rgb(12,12,255)"  stroke="rgb(12,12,255)" stroke-width="1" font-size="16" >N</text>
<text x="298.791301" y="153.753718" fill="rgb(12,12,255)"  stroke="rgb(12,12,255)" stroke-width="1" font-size="16" >N</text>
<text x="188.613816" y="261.925245" fill="rgb(12,12,255)"  stroke="rgb(12,12,255)" stroke-width="1" font-size="16" >N</text>
<text x="393.492869" y="198.989524" fill="rgb(102,102,102)"  stroke="rgb(102,102,102)" stroke-width="1" font-size="16" >CH</text>
<text x="282.307559" y="91.830667" fill="rgb(255,12,12)"  stroke="rgb(255,12,12)" stroke-width="1" font-size="16" >O</text>
<text x="129.008259" y="217.493760" fill="rgb(12,12,255)"  stroke="rgb(12,12,255)" stroke-width="1" font-size="16" >H</text>
<text x="141.008259" y="221.173760" fill="rgb(12,12,255)"  stroke="rgb(12,12,255)" stroke-width="1" font-size="13" >2</text>
<text x="147.508259" y="217.493760" fill="rgb(12,12,255)"  stroke="rgb(12,12,255)" stroke-width="1" font-size="16" >N</text>
<text x="54.311536" y="186.929550" fill="rgb(12,12,255)"  stroke="rgb(12,12,255)" stroke-width="1" font-size="16" >N</text>
<text x="268.231936" y="62.070778" fill="rgb(255,12,12)"  stroke="rgb(255,12,12)" stroke-width="1" font-size="16" >O</text>
<text font-size="18.000000" fill ="black" font-family="sans-serif"
x="10.000000" y="20.000000" ></text>
<title> - OBDepict</title>
</svg>
