<?xml version="1.0"?>
<svg xmlns="http://www.w3.org/2000/svg"
xmlns:xlink="http://www.w3.org/1999/xlink" xmlns:cml="http://www.xml-cml.org/schema" width="322.378" height="394.684" x="0" y="0" font-family="sans-serif" stroke="rgb(0,0,0)" stroke-width="1"  stroke-linecap="round">
<rect x="0%" y="0%" width="100%" height="100%" stroke-width="0" fill="rgb(255,255,255)"  />
<line x1="74.5" y1="60.0" x2="109.3" y2="80.0" stroke="rgb(0,0,0)"  stroke-width="1.0"/>
<line x1="51.3" y1="46.5" x2="74.5" y2="60.0" stroke="rgb(0,0,0)"  stroke-width="1.0"/>
<line x1="53.4" y1="42.9" x2="76.6" y2="56.4" stroke="rgb(0,0,0)"  stroke-width="1.0"/>
<line x1="49.1" y1="50.1" x2="72.4" y2="63.6" stroke="rgb(0,0,0)"  stroke-width="1.0"/>
<line x1="178.6" y1="240.0" x2="201.8" y2="253.4" stroke="rgb(0,0,0)"  stroke-width="1.0"/>
<line x1="213.1" y1="273.0" x2="213.1" y2="300.0" stroke="rgb(0,0,0)"  stroke-width="1.0"/>
<line x1="155.1" y1="186.5" x2="178.6" y2="200.0" stroke="rgb(0,0,0)"  stroke-width="1.0"/>
<line x1="153.6" y1="250.9" x2="177.1" y2="237.4" stroke="rgb(0,0,0)"  stroke-width="1.0"/>
<line x1="156.6" y1="256.1" x2="180.1" y2="242.6" stroke="rgb(0,0,0)"  stroke-width="1.0"/>
<line x1="213.1" y1="300.0" x2="247.8" y2="319.9" stroke="rgb(0,0,0)"  stroke-width="1.0"/>
<line x1="234.3" y1="343.4" x2="247.8" y2="319.9" stroke="rgb(0,0,0)"  stroke-width="1.0"/>
<line x1="271.1" y1="333.4" x2="247.8" y2="319.9" stroke="rgb(0,0,0)"  stroke-width="1.0"/>
<line x1="261.3" y1="296.7" x2="247.8" y2="319.9" stroke="rgb(0,0,0)"  stroke-width="1.0"/>
<line x1="178.6" y1="200.0" x2="178.6" y2="240.0" stroke="rgb(0,0,0)"  stroke-width="1.0"/>
<line x1="143.8" y1="140.0" x2="143.8" y2="167.0" stroke="rgb(0,0,0)"  stroke-width="1.0"/>
<line x1="109.3" y1="80.0" x2="143.8" y2="60.0" stroke="rgb(0,0,0)"  stroke-width="1.0"/>
<line x1="118.1" y1="83.2" x2="142.2" y2="69.2" stroke="rgb(0,0,0)"  stroke-width="1.0"/>
<line x1="143.8" y1="60.0" x2="178.6" y2="80.0" stroke="rgb(0,0,0)"  stroke-width="1.0"/>
<line x1="178.6" y1="80.0" x2="178.6" y2="120.0" stroke="rgb(0,0,0)"  stroke-width="1.0"/>
<line x1="171.4" y1="86.0" x2="171.4" y2="114.0" stroke="rgb(0,0,0)"  stroke-width="1.0"/>
<line x1="178.6" y1="120.0" x2="143.8" y2="140.0" stroke="rgb(0,0,0)"  stroke-width="1.0"/>
<line x1="143.8" y1="140.0" x2="109.3" y2="120.0" stroke="rgb(0,0,0)"  stroke-width="1.0"/>
<line x1="142.2" y1="130.7" x2="118.1" y2="116.8" stroke="rgb(0,0,0)"  stroke-width="1.0"/>
<line x1="109.3" y1="120.0" x2="109.3" y2="80.0" stroke="rgb(0,0,0)"  stroke-width="1.0"/>
<text x="22.000000" y="48.000000" fill="rgb(102,102,102)"  stroke="rgb(102,102,102)" stroke-width="1" font-size="16" >HC</text>
<text x="207.096513" y="267.957832" fill="rgb(12,12,255)"  stroke="rgb(12,12,255)" stroke-width="1" font-size="16" >NH</text>
<text x="125.820097" y="187.973166" fill="rgb(12,12,255)"  stroke="rgb(12,12,255)" stroke-width="1" font-size="16" >HN</text>
<text x="137.820097" y="267.957832" fill="rgb(255,12,12)"  stroke="rgb(255,12,12)" stroke-width="1" font-size="16" >O</text>
<text x="221.842776" y="362.683914" fill="rgb(127,178,255)"  stroke="rgb(127,178,255)" stroke-width="1" font-size="16" >F</text>
<text x="276.377776" y="347.942498" fill="rgb(127,178,255)"  stroke="rgb(127,178,255)" stroke-width="1" font-size="16" >F</text>
<text x="261.835109" y="293.407498" fill="rgb(127,178,255)"  stroke="rgb(127,178,255)" stroke-width="1" font-size="16" >F</text>
<text font-size="18.000000" fill ="black" font-family="sans-serif"
x="10.000000" y="20.000000" ></text>
<title> - OBDepict</title>
</svg>
