<?xml version="1.0"?>
<svg xmlns="http://www.w3.org/2000/svg"
xmlns:xlink="http://www.w3.org/1999/xlink" xmlns:cml="http://www.xml-cml.org/schema" width="462.797" height="356.643" x="0" y="0" font-family="sans-serif" stroke="rgb(0,0,0)" stroke-width="1"  stroke-linecap="round">
<rect x="0%" y="0%" width="100%" height="100%" stroke-width="0" fill="rgb(255,255,255)"  />
<line x1="201.2" y1="211.6" x2="174.5" y2="211.6" stroke="rgb(0,0,0)"  stroke-width="1.0"/>
<line x1="154.9" y1="200.4" x2="141.2" y2="177.3" stroke="rgb(0,0,0)"  stroke-width="1.0"/>
<line x1="220.1" y1="245.9" x2="201.2" y2="211.6" stroke="rgb(0,0,0)"  stroke-width="1.0"/>
<line x1="100.0" y1="108.6" x2="86.3" y2="85.5" stroke="rgb(0,0,0)"  stroke-width="1.0"/>
<line x1="281.6" y1="211.6" x2="261.2" y2="245.9" stroke="rgb(0,0,0)"  stroke-width="1.0"/>
<line x1="381.3" y1="248.0" x2="341.7" y2="248.0" stroke="rgb(0,0,0)"  stroke-width="1.0"/>
<line x1="409.8" y1="248.0" x2="381.3" y2="248.0" stroke="rgb(0,0,0)"  stroke-width="1.0"/>
<line x1="409.8" y1="252.2" x2="381.3" y2="252.2" stroke="rgb(0,0,0)"  stroke-width="1.0"/>
<line x1="409.8" y1="243.8" x2="381.3" y2="243.8" stroke="rgb(0,0,0)"  stroke-width="1.0"/>
<line x1="93.4" y1="51.2" x2="86.3" y2="63.1" stroke="rgb(0,0,0)"  stroke-width="1.0"/>
<line x1="53.0" y1="71.3" x2="66.7" y2="71.3" stroke="rgb(0,0,0)"  stroke-width="1.0"/>
<line x1="53.0" y1="77.3" x2="66.7" y2="77.3" stroke="rgb(0,0,0)"  stroke-width="1.0"/>
<line x1="216.5" y1="190.1" x2="203.8" y2="213.0" stroke="rgb(0,0,0)"  stroke-width="1.0"/>
<line x1="211.2" y1="187.2" x2="198.6" y2="210.1" stroke="rgb(0,0,0)"  stroke-width="1.0"/>
<line x1="271.9" y1="187.3" x2="284.3" y2="210.1" stroke="rgb(0,0,0)"  stroke-width="1.0"/>
<line x1="266.6" y1="190.1" x2="279.0" y2="213.0" stroke="rgb(0,0,0)"  stroke-width="1.0"/>
<line x1="188.2" y1="142.9" x2="160.1" y2="142.9" stroke="rgb(0,0,0)"  stroke-width="1.0"/>
<line x1="308.3" y1="213.0" x2="281.6" y2="211.6" stroke="rgb(0,0,0)"  stroke-width="1.0"/>
<line x1="341.7" y1="248.0" x2="327.9" y2="224.9" stroke="rgb(0,0,0)"  stroke-width="1.0"/>
<line x1="100.0" y1="108.6" x2="141.2" y2="108.6" stroke="rgb(0,0,0)"  stroke-width="1.0"/>
<line x1="141.2" y1="108.6" x2="160.1" y2="142.9" stroke="rgb(0,0,0)"  stroke-width="1.0"/>
<line x1="137.7" y1="117.4" x2="150.9" y2="141.2" stroke="rgb(0,0,0)"  stroke-width="1.0"/>
<line x1="160.1" y1="142.9" x2="141.2" y2="177.3" stroke="rgb(0,0,0)"  stroke-width="1.0"/>
<line x1="141.2" y1="177.3" x2="100.0" y2="177.3" stroke="rgb(0,0,0)"  stroke-width="1.0"/>
<line x1="135.2" y1="170.1" x2="106.0" y2="170.1" stroke="rgb(0,0,0)"  stroke-width="1.0"/>
<line x1="100.0" y1="177.3" x2="81.1" y2="142.9" stroke="rgb(0,0,0)"  stroke-width="1.0"/>
<line x1="81.1" y1="142.9" x2="100.0" y2="108.6" stroke="rgb(0,0,0)"  stroke-width="1.0"/>
<line x1="90.3" y1="141.2" x2="103.5" y2="117.4" stroke="rgb(0,0,0)"  stroke-width="1.0"/>
<line x1="220.1" y1="245.9" x2="261.2" y2="245.9" stroke="rgb(0,0,0)"  stroke-width="1.0"/>
<line x1="261.2" y1="245.9" x2="280.2" y2="282.3" stroke="rgb(0,0,0)"  stroke-width="1.0"/>
<line x1="257.6" y1="254.5" x2="271.0" y2="280.3" stroke="rgb(0,0,0)"  stroke-width="1.0"/>
<line x1="280.2" y1="282.3" x2="261.2" y2="316.6" stroke="rgb(0,0,0)"  stroke-width="1.0"/>
<line x1="261.2" y1="316.6" x2="220.1" y2="316.6" stroke="rgb(0,0,0)"  stroke-width="1.0"/>
<line x1="255.2" y1="309.4" x2="226.1" y2="309.4" stroke="rgb(0,0,0)"  stroke-width="1.0"/>
<line x1="220.1" y1="316.6" x2="201.2" y2="282.3" stroke="rgb(0,0,0)"  stroke-width="1.0"/>
<line x1="201.2" y1="282.3" x2="220.1" y2="245.9" stroke="rgb(0,0,0)"  stroke-width="1.0"/>
<line x1="210.4" y1="280.3" x2="223.8" y2="254.5" stroke="rgb(0,0,0)"  stroke-width="1.0"/>
<text x="84.473565" y="70.279359" fill="rgb(12,12,255)"  stroke="rgb(12,12,255)" stroke-width="1" font-size="16" >+</text>
<text x="73.673565" y="82.311359" fill="rgb(12,12,255)"  stroke="rgb(12,12,255)" stroke-width="1" font-size="16" >N</text>
<text x="155.525632" y="219.561624" fill="rgb(12,12,255)"  stroke="rgb(12,12,255)" stroke-width="1" font-size="16" >N</text>
<text x="155.525632" y="235.561624" fill="rgb(12,12,255)"  stroke="rgb(12,12,255)" stroke-width="1" font-size="16" >H</text>
<text x="416.796813" y="256.020761" fill="rgb(102,102,102)"  stroke="rgb(102,102,102)" stroke-width="1" font-size="16" >CH</text>
<text x="104.846086" y="25.888000" fill="rgb(255,12,12)"  stroke="rgb(255,12,12)" stroke-width="1" font-size="16" >_</text>
<text x="94.046086" y="48.000000" fill="rgb(255,12,12)"  stroke="rgb(255,12,12)" stroke-width="1" font-size="16" >O</text>
<text x="34.000000" y="82.311359" fill="rgb(255,12,12)"  stroke="rgb(255,12,12)" stroke-width="1" font-size="16" >O</text>
<text x="214.138257" y="185.250264" fill="rgb(255,12,12)"  stroke="rgb(255,12,12)" stroke-width="1" font-size="16" >O</text>
<text x="257.031076" y="185.250264" fill="rgb(255,12,12)"  stroke="rgb(255,12,12)" stroke-width="1" font-size="16" >O</text>
<text x="195.199197" y="150.938905" fill="rgb(30,239,30)"  stroke="rgb(30,239,30)" stroke-width="1" font-size="16" >Cl</text>
<text x="315.291369" y="221.704575" fill="rgb(255,12,12)"  stroke="rgb(255,12,12)" stroke-width="1" font-size="16" >O</text>
<text font-size="18.000000" fill ="black" font-family="sans-serif"
x="10.000000" y="20.000000" ></text>
<title> - OBDepict</title>
</svg>
