<?xml version="1.0"?>
<svg xmlns="http://www.w3.org/2000/svg"
xmlns:xlink="http://www.w3.org/1999/xlink" xmlns:cml="http://www.xml-cml.org/schema" width="485.816" height="278.67" x="0" y="0" font-family="sans-serif" stroke="rgb(0,0,0)" stroke-width="1"  stroke-linecap="round">
<rect x="0%" y="0%" width="100%" height="100%" stroke-width="0" fill="rgb(255,255,255)"  />
<line x1="232.7" y1="112.3" x2="205.7" y2="112.1" stroke="rgb(0,0,0)"  stroke-width="1.0"/>
<line x1="232.8" y1="106.3" x2="205.8" y2="106.1" stroke="rgb(0,0,0)"  stroke-width="1.0"/>
<line x1="265.7" y1="74.9" x2="252.2" y2="98.2" stroke="rgb(0,0,0)"  stroke-width="1.0"/>
<line x1="305.7" y1="74.9" x2="265.7" y2="74.9" stroke="rgb(0,0,0)"  stroke-width="1.0"/>
<line x1="167.8" y1="209.0" x2="194.5" y2="179.3" stroke="rgb(0,0,0)"  stroke-width="1.0"/>
<line x1="149.8" y1="229.0" x2="167.8" y2="209.0" stroke="rgb(0,0,0)"  stroke-width="1.0"/>
<line x1="146.7" y1="226.2" x2="164.7" y2="206.2" stroke="rgb(0,0,0)"  stroke-width="1.0"/>
<line x1="153.0" y1="231.8" x2="170.9" y2="211.8" stroke="rgb(0,0,0)"  stroke-width="1.0"/>
<line x1="254.8" y1="50.1" x2="268.3" y2="73.4" stroke="rgb(0,0,0)"  stroke-width="1.0"/>
<line x1="249.6" y1="53.2" x2="263.1" y2="76.4" stroke="rgb(0,0,0)"  stroke-width="1.0"/>
<line x1="194.5" y1="179.3" x2="186.3" y2="153.5" stroke="rgb(0,0,0)"  stroke-width="1.0"/>
<line x1="311.4" y1="133.1" x2="325.7" y2="109.5" stroke="rgb(0,0,0)"  stroke-width="1.0"/>
<line x1="413.2" y1="75.5" x2="385.9" y2="75.1" stroke="rgb(0,0,0)"  stroke-width="1.0"/>
<line x1="51.3" y1="75.3" x2="75.1" y2="89.1" stroke="rgb(0,0,0)"  stroke-width="1.0"/>
<line x1="278.1" y1="144.2" x2="291.7" y2="144.2" stroke="rgb(0,0,0)"  stroke-width="1.0"/>
<line x1="439.4" y1="99.0" x2="432.6" y2="87.0" stroke="rgb(0,0,0)"  stroke-width="1.0"/>
<line x1="205.8" y1="109.1" x2="190.0" y2="87.3" stroke="rgb(0,0,0)"  stroke-width="1.0"/>
<line x1="170.0" y1="80.7" x2="144.2" y2="89.1" stroke="rgb(0,0,0)"  stroke-width="1.0"/>
<line x1="144.2" y1="89.1" x2="144.2" y2="129.0" stroke="rgb(0,0,0)"  stroke-width="1.0"/>
<line x1="151.4" y1="95.1" x2="151.4" y2="123.0" stroke="rgb(0,0,0)"  stroke-width="1.0"/>
<line x1="144.2" y1="129.0" x2="169.9" y2="137.2" stroke="rgb(0,0,0)"  stroke-width="1.0"/>
<line x1="190.0" y1="130.6" x2="205.8" y2="109.1" stroke="rgb(0,0,0)"  stroke-width="1.0"/>
<line x1="305.7" y1="74.9" x2="325.7" y2="109.5" stroke="rgb(0,0,0)"  stroke-width="1.0"/>
<line x1="314.9" y1="76.5" x2="328.9" y2="100.7" stroke="rgb(0,0,0)"  stroke-width="1.0"/>
<line x1="325.7" y1="109.5" x2="365.3" y2="109.7" stroke="rgb(0,0,0)"  stroke-width="1.0"/>
<line x1="365.3" y1="109.7" x2="385.9" y2="75.1" stroke="rgb(0,0,0)"  stroke-width="1.0"/>
<line x1="362.1" y1="100.8" x2="376.6" y2="76.6" stroke="rgb(0,0,0)"  stroke-width="1.0"/>
<line x1="385.9" y1="75.1" x2="365.9" y2="40.0" stroke="rgb(0,0,0)"  stroke-width="1.0"/>
<line x1="365.9" y1="40.0" x2="325.9" y2="40.0" stroke="rgb(0,0,0)"  stroke-width="1.0"/>
<line x1="359.9" y1="47.2" x2="331.9" y2="47.2" stroke="rgb(0,0,0)"  stroke-width="1.0"/>
<line x1="325.9" y1="40.0" x2="305.7" y2="74.9" stroke="rgb(0,0,0)"  stroke-width="1.0"/>
<line x1="109.7" y1="149.0" x2="75.1" y2="129.0" stroke="rgb(0,0,0)"  stroke-width="1.0"/>
<line x1="108.1" y1="139.8" x2="83.9" y2="125.8" stroke="rgb(0,0,0)"  stroke-width="1.0"/>
<line x1="75.1" y1="129.0" x2="75.1" y2="89.1" stroke="rgb(0,0,0)"  stroke-width="1.0"/>
<line x1="75.1" y1="89.1" x2="109.7" y2="69.1" stroke="rgb(0,0,0)"  stroke-width="1.0"/>
<line x1="83.9" y1="92.3" x2="108.1" y2="78.3" stroke="rgb(0,0,0)"  stroke-width="1.0"/>
<line x1="109.7" y1="69.1" x2="144.2" y2="89.1" stroke="rgb(0,0,0)"  stroke-width="1.0"/>
<line x1="144.2" y1="129.0" x2="109.7" y2="149.0" stroke="rgb(0,0,0)"  stroke-width="1.0"/>
<text x="239.732591" y="117.453750" fill="rgb(12,12,255)"  stroke="rgb(12,12,255)" stroke-width="1" font-size="16" >N</text>
<text x="176.339766" y="149.152583" fill="rgb(12,12,255)"  stroke="rgb(12,12,255)" stroke-width="1" font-size="16" >N</text>
<text x="176.339766" y="84.743149" fill="rgb(178,178,0)"  stroke="rgb(178,178,0)" stroke-width="1" font-size="16" >S</text>
<text x="123.152583" y="246.669580" fill="rgb(102,102,102)"  stroke="rgb(102,102,102)" stroke-width="1" font-size="16" >HC</text>
<text x="239.732591" y="48.401803" fill="rgb(255,12,12)"  stroke="rgb(255,12,12)" stroke-width="1" font-size="16" >O</text>
<text x="298.686224" y="152.178205" fill="rgb(255,12,12)"  stroke="rgb(255,12,12)" stroke-width="1" font-size="16" >O</text>
<text x="420.229077" y="83.736223" fill="rgb(255,12,12)"  stroke="rgb(255,12,12)" stroke-width="1" font-size="16" >O</text>
<text x="14.000000" y="76.871692" fill="rgb(102,102,102)"  stroke="rgb(102,102,102)" stroke-width="1" font-size="16" >H</text>
<text x="26.000000" y="80.551692" fill="rgb(102,102,102)"  stroke="rgb(102,102,102)" stroke-width="1" font-size="13" >3</text>
<text x="32.500000" y="76.871692" fill="rgb(102,102,102)"  stroke="rgb(102,102,102)" stroke-width="1" font-size="16" >C</text>
<text x="239.115933" y="152.178205" fill="rgb(102,102,102)"  stroke="rgb(102,102,102)" stroke-width="1" font-size="16" >H</text>
<text x="251.115933" y="155.858205" fill="rgb(102,102,102)"  stroke="rgb(102,102,102)" stroke-width="1" font-size="13" >3</text>
<text x="257.615933" y="152.178205" fill="rgb(102,102,102)"  stroke="rgb(102,102,102)" stroke-width="1" font-size="16" >C</text>
<text x="441.815741" y="118.262196" fill="rgb(102,102,102)"  stroke="rgb(102,102,102)" stroke-width="1" font-size="16" >CH</text>
<text x="465.815741" y="121.942196" fill="rgb(102,102,102)"  stroke="rgb(102,102,102)" stroke-width="1" font-size="13" >3</text>
<text font-size="18.000000" fill ="black" font-family="sans-serif"
x="10.000000" y="20.000000" ></text>
<title> - OBDepict</title>
</svg>
