<?xml version="1.0"?>
<svg xmlns="http://www.w3.org/2000/svg"
xmlns:xlink="http://www.w3.org/1999/xlink" xmlns:cml="http://www.xml-cml.org/schema" width="387.318" height="409.546" x="0" y="0" font-family="sans-serif" stroke="rgb(0,0,0)" stroke-width="1"  stroke-linecap="round">
<rect x="0%" y="0%" width="100%" height="100%" stroke-width="0" fill="rgb(255,255,255)"  />
<line x1="257.9" y1="289.4" x2="219.7" y2="301.9" stroke="rgb(0,0,0)"  stroke-width="1.0"/>
<line x1="256.1" y1="283.7" x2="217.9" y2="296.2" stroke="rgb(0,0,0)"  stroke-width="1.0"/>
<line x1="265.5" y1="247.1" x2="257.0" y2="286.5" stroke="rgb(0,0,0)"  stroke-width="1.0"/>
<line x1="116.4" y1="286.5" x2="142.0" y2="295.0" stroke="rgb(0,0,0)"  stroke-width="1.0"/>
<line x1="338.8" y1="78.6" x2="329.7" y2="118.0" stroke="rgb(0,0,0)"  stroke-width="1.0"/>
<line x1="344.5" y1="52.7" x2="338.8" y2="78.6" stroke="rgb(0,0,0)"  stroke-width="1.0"/>
<line x1="348.6" y1="53.6" x2="342.9" y2="79.5" stroke="rgb(0,0,0)"  stroke-width="1.0"/>
<line x1="340.4" y1="51.8" x2="334.7" y2="77.7" stroke="rgb(0,0,0)"  stroke-width="1.0"/>
<line x1="86.5" y1="313.6" x2="116.4" y2="286.5" stroke="rgb(0,0,0)"  stroke-width="1.0"/>
<line x1="148.2" y1="357.3" x2="164.1" y2="335.5" stroke="rgb(0,0,0)"  stroke-width="1.0"/>
<line x1="153.1" y1="360.8" x2="168.9" y2="339.0" stroke="rgb(0,0,0)"  stroke-width="1.0"/>
<line x1="189.5" y1="248.6" x2="189.5" y2="275.6" stroke="rgb(0,0,0)"  stroke-width="1.0"/>
<line x1="183.5" y1="248.6" x2="183.5" y2="275.6" stroke="rgb(0,0,0)"  stroke-width="1.0"/>
<line x1="89.3" y1="340.5" x2="83.5" y2="314.2" stroke="rgb(0,0,0)"  stroke-width="1.0"/>
<line x1="95.1" y1="339.2" x2="89.4" y2="312.9" stroke="rgb(0,0,0)"  stroke-width="1.0"/>
<line x1="323.6" y1="253.5" x2="303.7" y2="235.4" stroke="rgb(0,0,0)"  stroke-width="1.0"/>
<line x1="288.6" y1="142.6" x2="282.5" y2="168.9" stroke="rgb(0,0,0)"  stroke-width="1.0"/>
<line x1="224.7" y1="163.0" x2="244.3" y2="181.0" stroke="rgb(0,0,0)"  stroke-width="1.0"/>
<line x1="60.8" y1="305.1" x2="86.5" y2="313.6" stroke="rgb(0,0,0)"  stroke-width="1.0"/>
<line x1="329.7" y1="118.0" x2="304.0" y2="126.0" stroke="rgb(0,0,0)"  stroke-width="1.0"/>
<line x1="189.8" y1="162.3" x2="202.8" y2="158.1" stroke="rgb(0,0,0)"  stroke-width="1.0"/>
<line x1="42.8" y1="275.0" x2="45.7" y2="288.3" stroke="rgb(0,0,0)"  stroke-width="1.0"/>
<line x1="158.3" y1="311.4" x2="166.5" y2="337.2" stroke="rgb(0,0,0)"  stroke-width="1.0"/>
<line x1="166.5" y1="337.2" x2="193.5" y2="337.2" stroke="rgb(0,0,0)"  stroke-width="1.0"/>
<line x1="210.5" y1="324.8" x2="218.8" y2="299.0" stroke="rgb(0,0,0)"  stroke-width="1.0"/>
<line x1="218.8" y1="299.0" x2="186.5" y2="275.6" stroke="rgb(0,0,0)"  stroke-width="1.0"/>
<line x1="186.5" y1="275.6" x2="164.9" y2="291.4" stroke="rgb(0,0,0)"  stroke-width="1.0"/>
<line x1="265.5" y1="247.1" x2="303.7" y2="235.4" stroke="rgb(0,0,0)"  stroke-width="1.0"/>
<line x1="303.7" y1="235.4" x2="312.0" y2="196.0" stroke="rgb(0,0,0)"  stroke-width="1.0"/>
<line x1="297.9" y1="228.0" x2="303.7" y2="200.4" stroke="rgb(0,0,0)"  stroke-width="1.0"/>
<line x1="312.0" y1="196.0" x2="282.5" y2="168.9" stroke="rgb(0,0,0)"  stroke-width="1.0"/>
<line x1="282.5" y1="168.9" x2="244.3" y2="181.0" stroke="rgb(0,0,0)"  stroke-width="1.0"/>
<line x1="278.9" y1="177.6" x2="252.2" y2="186.1" stroke="rgb(0,0,0)"  stroke-width="1.0"/>
<line x1="244.3" y1="181.0" x2="235.8" y2="220.4" stroke="rgb(0,0,0)"  stroke-width="1.0"/>
<line x1="235.8" y1="220.4" x2="265.5" y2="247.1" stroke="rgb(0,0,0)"  stroke-width="1.0"/>
<line x1="245.1" y1="219.1" x2="265.8" y2="237.7" stroke="rgb(0,0,0)"  stroke-width="1.0"/>
<text x="148.358730" y="307.029997" fill="rgb(12,12,255)"  stroke="rgb(12,12,255)" stroke-width="1" font-size="16" >N</text>
<text x="200.486005" y="345.214281" fill="rgb(178,178,0)"  stroke="rgb(178,178,0)" stroke-width="1" font-size="16" >S</text>
<text x="341.318460" y="48.000000" fill="rgb(102,102,102)"  stroke="rgb(102,102,102)" stroke-width="1" font-size="16" >CH</text>
<text x="137.046126" y="377.545713" fill="rgb(255,12,12)"  stroke="rgb(255,12,12)" stroke-width="1" font-size="16" >O</text>
<text x="180.486331" y="243.585264" fill="rgb(255,12,12)"  stroke="rgb(255,12,12)" stroke-width="1" font-size="16" >O</text>
<text x="88.956640" y="360.574381" fill="rgb(255,12,12)"  stroke="rgb(255,12,12)" stroke-width="1" font-size="16" >O</text>
<text x="327.171639" y="270.257967" fill="rgb(165,40,40)"  stroke="rgb(165,40,40)" stroke-width="1" font-size="16" >Br</text>
<text x="285.551351" y="137.913605" fill="rgb(255,12,12)"  stroke="rgb(255,12,12)" stroke-width="1" font-size="16" >O</text>
<text x="209.177929" y="162.159752" fill="rgb(255,12,12)"  stroke="rgb(255,12,12)" stroke-width="1" font-size="16" >O</text>
<text x="42.488093" y="309.048891" fill="rgb(255,12,12)"  stroke="rgb(255,12,12)" stroke-width="1" font-size="16" >O</text>
<text x="151.391599" y="174.282826" fill="rgb(102,102,102)"  stroke="rgb(102,102,102)" stroke-width="1" font-size="16" >H</text>
<text x="163.391599" y="177.962826" fill="rgb(102,102,102)"  stroke="rgb(102,102,102)" stroke-width="1" font-size="13" >3</text>
<text x="169.891599" y="174.282826" fill="rgb(102,102,102)"  stroke="rgb(102,102,102)" stroke-width="1" font-size="16" >C</text>
<text x="14.000000" y="270.257967" fill="rgb(102,102,102)"  stroke="rgb(102,102,102)" stroke-width="1" font-size="16" >H</text>
<text x="26.000000" y="273.937967" fill="rgb(102,102,102)"  stroke="rgb(102,102,102)" stroke-width="1" font-size="13" >3</text>
<text x="32.500000" y="270.257967" fill="rgb(102,102,102)"  stroke="rgb(102,102,102)" stroke-width="1" font-size="16" >C</text>
<text font-size="18.000000" fill ="black" font-family="sans-serif"
x="10.000000" y="20.000000" ></text>
<title> - OBDepict</title>
</svg>
