<?xml version="1.0"?>
<svg xmlns="http://www.w3.org/2000/svg"
xmlns:xlink="http://www.w3.org/1999/xlink" xmlns:cml="http://www.xml-cml.org/schema" width="206.678" height="575.998" x="0" y="0" font-family="sans-serif" stroke="rgb(0,0,0)" stroke-width="1"  stroke-linecap="round">
<rect x="0%" y="0%" width="100%" height="100%" stroke-width="0" fill="rgb(255,255,255)"  />
<line x1="79.2" y1="167.1" x2="91.5" y2="205.1" stroke="rgb(0,0,0)"  stroke-width="1.0"/>
<line x1="120.2" y1="69.7" x2="93.5" y2="99.4" stroke="rgb(0,0,0)"  stroke-width="1.0"/>
<line x1="138.4" y1="49.6" x2="120.2" y2="69.7" stroke="rgb(0,0,0)"  stroke-width="1.0"/>
<line x1="141.5" y1="52.5" x2="123.3" y2="72.5" stroke="rgb(0,0,0)"  stroke-width="1.0"/>
<line x1="135.2" y1="46.8" x2="117.1" y2="66.9" stroke="rgb(0,0,0)"  stroke-width="1.0"/>
<line x1="116.2" y1="281.0" x2="128.5" y2="319.2" stroke="rgb(0,0,0)"  stroke-width="1.0"/>
<line x1="116.2" y1="421.8" x2="128.5" y2="383.9" stroke="rgb(0,0,0)"  stroke-width="1.0"/>
<line x1="53.3" y1="158.4" x2="79.8" y2="164.1" stroke="rgb(0,0,0)"  stroke-width="1.0"/>
<line x1="52.1" y1="164.3" x2="78.6" y2="170.0" stroke="rgb(0,0,0)"  stroke-width="1.0"/>
<line x1="97.2" y1="146.9" x2="79.2" y2="167.1" stroke="rgb(0,0,0)"  stroke-width="1.0"/>
<line x1="93.5" y1="99.4" x2="101.8" y2="124.8" stroke="rgb(0,0,0)"  stroke-width="1.0"/>
<line x1="83.2" y1="523.6" x2="91.5" y2="498.0" stroke="rgb(0,0,0)"  stroke-width="1.0"/>
<line x1="112.7" y1="341.0" x2="128.5" y2="319.2" stroke="rgb(0,0,0)"  stroke-width="1.0"/>
<line x1="128.5" y1="319.2" x2="154.1" y2="327.5" stroke="rgb(0,0,0)"  stroke-width="1.0"/>
<line x1="132.0" y1="327.9" x2="150.0" y2="333.7" stroke="rgb(0,0,0)"  stroke-width="1.0"/>
<line x1="166.7" y1="344.5" x2="166.7" y2="358.5" stroke="rgb(0,0,0)"  stroke-width="1.0"/>
<line x1="154.1" y1="375.6" x2="128.5" y2="383.9" stroke="rgb(0,0,0)"  stroke-width="1.0"/>
<line x1="150.0" y1="369.4" x2="132.0" y2="375.2" stroke="rgb(0,0,0)"  stroke-width="1.0"/>
<line x1="128.5" y1="383.9" x2="112.7" y2="362.1" stroke="rgb(0,0,0)"  stroke-width="1.0"/>
<line x1="116.2" y1="281.0" x2="143.0" y2="251.3" stroke="rgb(0,0,0)"  stroke-width="1.0"/>
<line x1="143.0" y1="251.3" x2="130.5" y2="213.3" stroke="rgb(0,0,0)"  stroke-width="1.0"/>
<line x1="134.3" y1="247.9" x2="125.6" y2="221.3" stroke="rgb(0,0,0)"  stroke-width="1.0"/>
<line x1="130.5" y1="213.3" x2="91.5" y2="205.1" stroke="rgb(0,0,0)"  stroke-width="1.0"/>
<line x1="91.5" y1="205.1" x2="64.7" y2="234.8" stroke="rgb(0,0,0)"  stroke-width="1.0"/>
<line x1="92.8" y1="214.3" x2="74.0" y2="235.1" stroke="rgb(0,0,0)"  stroke-width="1.0"/>
<line x1="64.7" y1="234.8" x2="77.0" y2="272.7" stroke="rgb(0,0,0)"  stroke-width="1.0"/>
<line x1="77.0" y1="272.7" x2="116.2" y2="281.0" stroke="rgb(0,0,0)"  stroke-width="1.0"/>
<line x1="84.3" y1="266.9" x2="111.8" y2="272.7" stroke="rgb(0,0,0)"  stroke-width="1.0"/>
<line x1="116.2" y1="421.8" x2="143.0" y2="451.8" stroke="rgb(0,0,0)"  stroke-width="1.0"/>
<line x1="143.0" y1="451.8" x2="130.5" y2="489.7" stroke="rgb(0,0,0)"  stroke-width="1.0"/>
<line x1="134.3" y1="455.2" x2="125.6" y2="481.8" stroke="rgb(0,0,0)"  stroke-width="1.0"/>
<line x1="130.5" y1="489.7" x2="91.5" y2="498.0" stroke="rgb(0,0,0)"  stroke-width="1.0"/>
<line x1="91.5" y1="498.0" x2="64.7" y2="468.3" stroke="rgb(0,0,0)"  stroke-width="1.0"/>
<line x1="92.8" y1="488.7" x2="74.0" y2="467.9" stroke="rgb(0,0,0)"  stroke-width="1.0"/>
<line x1="64.7" y1="468.3" x2="77.0" y2="430.3" stroke="rgb(0,0,0)"  stroke-width="1.0"/>
<line x1="77.0" y1="430.3" x2="116.2" y2="421.8" stroke="rgb(0,0,0)"  stroke-width="1.0"/>
<line x1="84.4" y1="436.1" x2="111.8" y2="430.2" stroke="rgb(0,0,0)"  stroke-width="1.0"/>
<text x="99.059810" y="359.541523" fill="rgb(255,12,12)"  stroke="rgb(255,12,12)" stroke-width="1" font-size="16" >O</text>
<text x="160.677814" y="339.540273" fill="rgb(12,12,255)"  stroke="rgb(12,12,255)" stroke-width="1" font-size="16" >N</text>
<text x="160.677814" y="379.542773" fill="rgb(12,12,255)"  stroke="rgb(12,12,255)" stroke-width="1" font-size="16" >N</text>
<text x="141.083764" y="48.000000" fill="rgb(102,102,102)"  stroke="rgb(102,102,102)" stroke-width="1" font-size="16" >CH</text>
<text x="34.000000" y="166.596844" fill="rgb(255,12,12)"  stroke="rgb(255,12,12)" stroke-width="1" font-size="16" >O</text>
<text x="99.869361" y="145.180091" fill="rgb(12,12,255)"  stroke="rgb(12,12,255)" stroke-width="1" font-size="16" >NH</text>
<text x="53.197796" y="543.998032" fill="rgb(102,102,102)"  stroke="rgb(102,102,102)" stroke-width="1" font-size="16" >H</text>
<text x="65.197796" y="547.678032" fill="rgb(102,102,102)"  stroke="rgb(102,102,102)" stroke-width="1" font-size="13" >3</text>
<text x="71.697796" y="543.998032" fill="rgb(102,102,102)"  stroke="rgb(102,102,102)" stroke-width="1" font-size="16" >C</text>
<text font-size="18.000000" fill ="black" font-family="sans-serif"
x="10.000000" y="20.000000" ></text>
<title> - OBDepict</title>
</svg>
