<?xml version="1.0"?>
<svg xmlns="http://www.w3.org/2000/svg"
xmlns:xlink="http://www.w3.org/1999/xlink" xmlns:cml="http://www.xml-cml.org/schema" width="357.151" height="399.974" x="0" y="0" font-family="sans-serif" stroke="rgb(0,0,0)" stroke-width="1"  stroke-linecap="round">
<rect x="0%" y="0%" width="100%" height="100%" stroke-width="0" fill="rgb(255,255,255)"  />
<line x1="109.3" y1="220.0" x2="109.3" y2="180.0" stroke="rgb(0,0,0)"  stroke-width="1.0"/>
<line x1="201.9" y1="86.5" x2="189.8" y2="93.5" stroke="rgb(0,0,0)"  stroke-width="1.0"/>
<line x1="143.8" y1="120.0" x2="167.3" y2="106.5" stroke="rgb(0,0,0)"  stroke-width="1.0"/>
<line x1="132.6" y1="233.5" x2="109.3" y2="220.0" stroke="rgb(0,0,0)"  stroke-width="1.0"/>
<line x1="143.8" y1="320.0" x2="143.8" y2="280.0" stroke="rgb(0,0,0)"  stroke-width="1.0"/>
<line x1="167.7" y1="75.2" x2="174.7" y2="87.2" stroke="rgb(0,0,0)"  stroke-width="1.0"/>
<line x1="162.5" y1="78.2" x2="169.5" y2="90.2" stroke="rgb(0,0,0)"  stroke-width="1.0"/>
<line x1="189.5" y1="125.0" x2="182.5" y2="112.8" stroke="rgb(0,0,0)"  stroke-width="1.0"/>
<line x1="194.7" y1="122.0" x2="187.7" y2="109.8" stroke="rgb(0,0,0)"  stroke-width="1.0"/>
<line x1="143.8" y1="347.0" x2="143.8" y2="320.0" stroke="rgb(0,0,0)"  stroke-width="1.0"/>
<line x1="139.6" y1="347.0" x2="139.6" y2="320.0" stroke="rgb(0,0,0)"  stroke-width="1.0"/>
<line x1="148.0" y1="347.0" x2="148.0" y2="320.0" stroke="rgb(0,0,0)"  stroke-width="1.0"/>
<line x1="143.8" y1="280.0" x2="143.8" y2="253.0" stroke="rgb(0,0,0)"  stroke-width="1.0"/>
<line x1="84.3" y1="230.9" x2="107.8" y2="217.4" stroke="rgb(0,0,0)"  stroke-width="1.0"/>
<line x1="87.3" y1="236.1" x2="110.8" y2="222.6" stroke="rgb(0,0,0)"  stroke-width="1.0"/>
<line x1="247.9" y1="100.0" x2="224.4" y2="86.5" stroke="rgb(0,0,0)"  stroke-width="1.0"/>
<line x1="51.3" y1="173.5" x2="74.5" y2="160.0" stroke="rgb(0,0,0)"  stroke-width="1.0"/>
<line x1="213.1" y1="53.0" x2="213.1" y2="67.0" stroke="rgb(0,0,0)"  stroke-width="1.0"/>
<line x1="183.8" y1="280.0" x2="143.8" y2="280.0" stroke="rgb(0,0,0)"  stroke-width="1.0"/>
<line x1="103.8" y1="280.0" x2="143.8" y2="280.0" stroke="rgb(0,0,0)"  stroke-width="1.0"/>
<line x1="197.3" y1="303.5" x2="183.8" y2="280.0" stroke="rgb(0,0,0)"  stroke-width="1.0"/>
<line x1="90.3" y1="256.7" x2="103.8" y2="280.0" stroke="rgb(0,0,0)"  stroke-width="1.0"/>
<line x1="109.3" y1="180.0" x2="74.5" y2="160.0" stroke="rgb(0,0,0)"  stroke-width="1.0"/>
<line x1="107.7" y1="170.8" x2="83.3" y2="156.7" stroke="rgb(0,0,0)"  stroke-width="1.0"/>
<line x1="74.5" y1="160.0" x2="74.5" y2="120.0" stroke="rgb(0,0,0)"  stroke-width="1.0"/>
<line x1="74.5" y1="120.0" x2="109.3" y2="100.0" stroke="rgb(0,0,0)"  stroke-width="1.0"/>
<line x1="83.3" y1="123.2" x2="107.7" y2="109.2" stroke="rgb(0,0,0)"  stroke-width="1.0"/>
<line x1="109.3" y1="100.0" x2="143.8" y2="120.0" stroke="rgb(0,0,0)"  stroke-width="1.0"/>
<line x1="143.8" y1="120.0" x2="143.8" y2="160.0" stroke="rgb(0,0,0)"  stroke-width="1.0"/>
<line x1="136.6" y1="126.0" x2="136.6" y2="154.0" stroke="rgb(0,0,0)"  stroke-width="1.0"/>
<line x1="143.8" y1="160.0" x2="109.3" y2="180.0" stroke="rgb(0,0,0)"  stroke-width="1.0"/>
<line x1="247.9" y1="100.0" x2="247.9" y2="140.0" stroke="rgb(0,0,0)"  stroke-width="1.0"/>
<line x1="247.9" y1="140.0" x2="282.4" y2="160.0" stroke="rgb(0,0,0)"  stroke-width="1.0"/>
<line x1="256.7" y1="136.8" x2="280.8" y2="150.8" stroke="rgb(0,0,0)"  stroke-width="1.0"/>
<line x1="282.4" y1="160.0" x2="317.2" y2="140.0" stroke="rgb(0,0,0)"  stroke-width="1.0"/>
<line x1="317.2" y1="140.0" x2="317.2" y2="100.0" stroke="rgb(0,0,0)"  stroke-width="1.0"/>
<line x1="310.0" y1="134.0" x2="310.0" y2="106.0" stroke="rgb(0,0,0)"  stroke-width="1.0"/>
<line x1="317.2" y1="100.0" x2="282.4" y2="80.0" stroke="rgb(0,0,0)"  stroke-width="1.0"/>
<line x1="282.4" y1="80.0" x2="247.9" y2="100.0" stroke="rgb(0,0,0)"  stroke-width="1.0"/>
<line x1="280.8" y1="89.2" x2="256.7" y2="103.2" stroke="rgb(0,0,0)"  stroke-width="1.0"/>
<text x="172.577872" y="107.995143" fill="rgb(178,178,0)"  stroke="rgb(178,178,0)" stroke-width="1" font-size="16" >S</text>
<text x="207.120530" y="87.996762" fill="rgb(12,12,255)"  stroke="rgb(12,12,255)" stroke-width="1" font-size="16" >N</text>
<text x="137.831594" y="247.983809" fill="rgb(12,12,255)"  stroke="rgb(12,12,255)" stroke-width="1" font-size="16" >NH</text>
<text x="152.579491" y="73.452485" fill="rgb(255,12,12)"  stroke="rgb(255,12,12)" stroke-width="1" font-size="16" >O</text>
<text x="192.576253" y="142.741421" fill="rgb(255,12,12)"  stroke="rgb(255,12,12)" stroke-width="1" font-size="16" >O</text>
<text x="137.831594" y="367.974095" fill="rgb(102,102,102)"  stroke="rgb(102,102,102)" stroke-width="1" font-size="16" >CH</text>
<text x="68.542658" y="247.983809" fill="rgb(255,12,12)"  stroke="rgb(255,12,12)" stroke-width="1" font-size="16" >O</text>
<text x="22.000000" y="187.988667" fill="rgb(30,239,30)"  stroke="rgb(30,239,30)" stroke-width="1" font-size="16" >Cl</text>
<text x="209.120530" y="48.000000" fill="rgb(102,102,102)"  stroke="rgb(102,102,102)" stroke-width="1" font-size="16" >CH</text>
<text x="233.120530" y="51.680000" fill="rgb(102,102,102)"  stroke="rgb(102,102,102)" stroke-width="1" font-size="13" >3</text>
<text x="199.826737" y="322.726849" fill="rgb(102,102,102)"  stroke="rgb(102,102,102)" stroke-width="1" font-size="16" >CH</text>
<text x="223.826737" y="326.406849" fill="rgb(102,102,102)"  stroke="rgb(102,102,102)" stroke-width="1" font-size="13" >3</text>
<text x="57.836451" y="253.437913" fill="rgb(102,102,102)"  stroke="rgb(102,102,102)" stroke-width="1" font-size="16" >H</text>
<text x="69.836451" y="257.117913" fill="rgb(102,102,102)"  stroke="rgb(102,102,102)" stroke-width="1" font-size="13" >3</text>
<text x="76.336451" y="253.437913" fill="rgb(102,102,102)"  stroke="rgb(102,102,102)" stroke-width="1" font-size="16" >C</text>
<text font-size="18.000000" fill ="black" font-family="sans-serif"
x="10.000000" y="20.000000" ></text>
<title> - OBDepict</title>
</svg>
