<?xml version="1.0"?>
<svg xmlns="http://www.w3.org/2000/svg"
xmlns:xlink="http://www.w3.org/1999/xlink" xmlns:cml="http://www.xml-cml.org/schema" width="464.263" height="240.154" x="0" y="0" font-family="sans-serif" stroke="rgb(0,0,0)" stroke-width="1"  stroke-linecap="round">
<rect x="0%" y="0%" width="100%" height="100%" stroke-width="0" fill="rgb(255,255,255)"  />
<line x1="279.8" y1="138.9" x2="314.4" y2="118.9" stroke="rgb(0,0,0)"  stroke-width="1.0"/>
<line x1="282.7" y1="144.1" x2="317.4" y2="124.1" stroke="rgb(0,0,0)"  stroke-width="1.0"/>
<line x1="74.3" y1="60.4" x2="108.8" y2="80.5" stroke="rgb(0,0,0)"  stroke-width="1.0"/>
<line x1="51.2" y1="46.6" x2="74.3" y2="60.4" stroke="rgb(0,0,0)"  stroke-width="1.0"/>
<line x1="53.3" y1="43.0" x2="76.4" y2="56.8" stroke="rgb(0,0,0)"  stroke-width="1.0"/>
<line x1="49.0" y1="50.3" x2="72.1" y2="64.0" stroke="rgb(0,0,0)"  stroke-width="1.0"/>
<line x1="246.8" y1="121.1" x2="281.2" y2="141.5" stroke="rgb(0,0,0)"  stroke-width="1.0"/>
<line x1="347.4" y1="168.6" x2="347.4" y2="141.7" stroke="rgb(0,0,0)"  stroke-width="1.0"/>
<line x1="353.4" y1="168.6" x2="353.4" y2="141.7" stroke="rgb(0,0,0)"  stroke-width="1.0"/>
<line x1="294.2" y1="65.1" x2="317.4" y2="78.6" stroke="rgb(0,0,0)"  stroke-width="1.0"/>
<line x1="291.2" y1="70.3" x2="314.4" y2="83.7" stroke="rgb(0,0,0)"  stroke-width="1.0"/>
<line x1="154.2" y1="134.4" x2="177.8" y2="121.1" stroke="rgb(0,0,0)"  stroke-width="1.0"/>
<line x1="154.7" y1="67.2" x2="177.8" y2="80.9" stroke="rgb(0,0,0)"  stroke-width="1.0"/>
<line x1="398.7" y1="57.9" x2="384.9" y2="81.6" stroke="rgb(0,0,0)"  stroke-width="1.0"/>
<line x1="411.7" y1="88.5" x2="384.9" y2="81.6" stroke="rgb(0,0,0)"  stroke-width="1.0"/>
<line x1="108.8" y1="80.5" x2="132.2" y2="67.1" stroke="rgb(0,0,0)"  stroke-width="1.0"/>
<line x1="142.7" y1="180.4" x2="142.8" y2="153.9" stroke="rgb(0,0,0)"  stroke-width="1.0"/>
<line x1="119.1" y1="193.7" x2="142.7" y2="180.4" stroke="rgb(0,0,0)"  stroke-width="1.0"/>
<line x1="315.9" y1="121.5" x2="315.9" y2="81.1" stroke="rgb(0,0,0)"  stroke-width="1.0"/>
<line x1="315.9" y1="81.1" x2="339.1" y2="68.0" stroke="rgb(0,0,0)"  stroke-width="1.0"/>
<line x1="361.7" y1="68.1" x2="384.9" y2="81.6" stroke="rgb(0,0,0)"  stroke-width="1.0"/>
<line x1="384.9" y1="81.6" x2="385.2" y2="108.7" stroke="rgb(0,0,0)"  stroke-width="1.0"/>
<line x1="374.0" y1="128.1" x2="350.4" y2="141.7" stroke="rgb(0,0,0)"  stroke-width="1.0"/>
<line x1="350.4" y1="141.7" x2="315.9" y2="121.5" stroke="rgb(0,0,0)"  stroke-width="1.0"/>
<line x1="177.8" y1="121.1" x2="177.8" y2="80.9" stroke="rgb(0,0,0)"  stroke-width="1.0"/>
<line x1="185.0" y1="115.1" x2="185.0" y2="86.9" stroke="rgb(0,0,0)"  stroke-width="1.0"/>
<line x1="177.8" y1="80.9" x2="212.5" y2="61.2" stroke="rgb(0,0,0)"  stroke-width="1.0"/>
<line x1="212.5" y1="61.2" x2="247.0" y2="81.6" stroke="rgb(0,0,0)"  stroke-width="1.0"/>
<line x1="214.0" y1="70.4" x2="238.1" y2="84.7" stroke="rgb(0,0,0)"  stroke-width="1.0"/>
<line x1="247.0" y1="81.6" x2="246.8" y2="121.1" stroke="rgb(0,0,0)"  stroke-width="1.0"/>
<line x1="246.8" y1="121.1" x2="212.5" y2="141.1" stroke="rgb(0,0,0)"  stroke-width="1.0"/>
<line x1="237.9" y1="117.9" x2="214.0" y2="131.8" stroke="rgb(0,0,0)"  stroke-width="1.0"/>
<line x1="212.5" y1="141.1" x2="177.8" y2="121.1" stroke="rgb(0,0,0)"  stroke-width="1.0"/>
<text x="344.433726" y="69.578723" fill="rgb(255,12,12)"  stroke="rgb(255,12,12)" stroke-width="1" font-size="16" >O</text>
<text x="379.332349" y="129.690532" fill="rgb(255,12,12)"  stroke="rgb(255,12,12)" stroke-width="1" font-size="16" >O</text>
<text x="22.000000" y="48.000000" fill="rgb(102,102,102)"  stroke="rgb(102,102,102)" stroke-width="1" font-size="16" >HC</text>
<text x="344.433726" y="189.598540" fill="rgb(255,12,12)"  stroke="rgb(255,12,12)" stroke-width="1" font-size="16" >O</text>
<text x="275.451689" y="69.175972" fill="rgb(255,12,12)"  stroke="rgb(255,12,12)" stroke-width="1" font-size="16" >O</text>
<text x="136.876208" y="148.852748" fill="rgb(255,12,12)"  stroke="rgb(255,12,12)" stroke-width="1" font-size="16" >O</text>
<text x="137.477909" y="68.574271" fill="rgb(255,12,12)"  stroke="rgb(255,12,12)" stroke-width="1" font-size="16" >O</text>
<text x="401.300067" y="54.652671" fill="rgb(102,102,102)"  stroke="rgb(102,102,102)" stroke-width="1" font-size="16" >CH</text>
<text x="425.300067" y="58.332671" fill="rgb(102,102,102)"  stroke="rgb(102,102,102)" stroke-width="1" font-size="13" >3</text>
<text x="420.263334" y="99.838429" fill="rgb(102,102,102)"  stroke="rgb(102,102,102)" stroke-width="1" font-size="16" >CH</text>
<text x="444.263334" y="103.518429" fill="rgb(102,102,102)"  stroke="rgb(102,102,102)" stroke-width="1" font-size="13" >3</text>
<text x="81.778637" y="208.154203" fill="rgb(102,102,102)"  stroke="rgb(102,102,102)" stroke-width="1" font-size="16" >H</text>
<text x="93.778637" y="211.834203" fill="rgb(102,102,102)"  stroke="rgb(102,102,102)" stroke-width="1" font-size="13" >3</text>
<text x="100.278637" y="208.154203" fill="rgb(102,102,102)"  stroke="rgb(102,102,102)" stroke-width="1" font-size="16" >C</text>
<text font-size="18.000000" fill ="black" font-family="sans-serif"
x="10.000000" y="20.000000" ></text>
<title> - OBDepict</title>
</svg>
