<?xml version="1.0"?>
<svg xmlns="http://www.w3.org/2000/svg"
xmlns:xlink="http://www.w3.org/1999/xlink" xmlns:cml="http://www.xml-cml.org/schema" width="415.65" height="349.774" x="0" y="0" font-family="sans-serif" stroke="rgb(0,0,0)" stroke-width="1"  stroke-linecap="round">
<rect x="0%" y="0%" width="100%" height="100%" stroke-width="0" fill="rgb(255,255,255)"  />
<line x1="207.9" y1="187.9" x2="200.0" y2="227.1" stroke="rgb(0,0,0)"  stroke-width="1.0"/>
<line x1="201.0" y1="230.0" x2="162.8" y2="242.3" stroke="rgb(0,0,0)"  stroke-width="1.0"/>
<line x1="199.1" y1="224.3" x2="160.9" y2="236.6" stroke="rgb(0,0,0)"  stroke-width="1.0"/>
<line x1="270.2" y1="105.5" x2="250.1" y2="123.8" stroke="rgb(0,0,0)"  stroke-width="1.0"/>
<line x1="50.7" y1="187.9" x2="59.2" y2="227.1" stroke="rgb(0,0,0)"  stroke-width="1.0"/>
<line x1="43.5" y1="161.7" x2="50.7" y2="187.9" stroke="rgb(0,0,0)"  stroke-width="1.0"/>
<line x1="47.5" y1="160.5" x2="54.8" y2="186.8" stroke="rgb(0,0,0)"  stroke-width="1.0"/>
<line x1="39.4" y1="162.8" x2="46.7" y2="189.0" stroke="rgb(0,0,0)"  stroke-width="1.0"/>
<line x1="91.2" y1="297.5" x2="107.1" y2="275.9" stroke="rgb(0,0,0)"  stroke-width="1.0"/>
<line x1="96.0" y1="301.1" x2="111.9" y2="279.4" stroke="rgb(0,0,0)"  stroke-width="1.0"/>
<line x1="132.2" y1="188.8" x2="132.5" y2="215.8" stroke="rgb(0,0,0)"  stroke-width="1.0"/>
<line x1="126.2" y1="188.8" x2="126.5" y2="215.8" stroke="rgb(0,0,0)"  stroke-width="1.0"/>
<line x1="59.2" y1="227.1" x2="84.6" y2="235.4" stroke="rgb(0,0,0)"  stroke-width="1.0"/>
<line x1="190.2" y1="99.2" x2="201.3" y2="124.3" stroke="rgb(0,0,0)"  stroke-width="1.0"/>
<line x1="268.0" y1="185.7" x2="244.7" y2="172.2" stroke="rgb(0,0,0)"  stroke-width="1.0"/>
<line x1="363.3" y1="100.0" x2="337.7" y2="91.5" stroke="rgb(0,0,0)"  stroke-width="1.0"/>
<line x1="107.5" y1="231.8" x2="129.5" y2="215.8" stroke="rgb(0,0,0)"  stroke-width="1.0"/>
<line x1="129.5" y1="215.8" x2="161.9" y2="239.5" stroke="rgb(0,0,0)"  stroke-width="1.0"/>
<line x1="161.9" y1="239.5" x2="153.5" y2="265.3" stroke="rgb(0,0,0)"  stroke-width="1.0"/>
<line x1="136.5" y1="277.6" x2="109.5" y2="277.6" stroke="rgb(0,0,0)"  stroke-width="1.0"/>
<line x1="109.5" y1="277.6" x2="101.0" y2="251.8" stroke="rgb(0,0,0)"  stroke-width="1.0"/>
<line x1="207.9" y1="187.9" x2="244.7" y2="172.2" stroke="rgb(0,0,0)"  stroke-width="1.0"/>
<line x1="210.6" y1="178.9" x2="236.4" y2="167.9" stroke="rgb(0,0,0)"  stroke-width="1.0"/>
<line x1="244.7" y1="172.2" x2="241.8" y2="145.5" stroke="rgb(0,0,0)"  stroke-width="1.0"/>
<line x1="227.7" y1="129.9" x2="201.3" y2="124.3" stroke="rgb(0,0,0)"  stroke-width="1.0"/>
<line x1="201.3" y1="124.3" x2="181.3" y2="158.6" stroke="rgb(0,0,0)"  stroke-width="1.0"/>
<line x1="204.5" y1="133.1" x2="190.5" y2="157.1" stroke="rgb(0,0,0)"  stroke-width="1.0"/>
<line x1="181.3" y1="158.6" x2="207.9" y2="187.9" stroke="rgb(0,0,0)"  stroke-width="1.0"/>
<line x1="270.2" y1="105.5" x2="308.0" y2="118.2" stroke="rgb(0,0,0)"  stroke-width="1.0"/>
<line x1="278.1" y1="100.6" x2="304.6" y2="109.5" stroke="rgb(0,0,0)"  stroke-width="1.0"/>
<line x1="308.0" y1="118.2" x2="337.7" y2="91.5" stroke="rgb(0,0,0)"  stroke-width="1.0"/>
<line x1="337.7" y1="91.5" x2="329.2" y2="52.1" stroke="rgb(0,0,0)"  stroke-width="1.0"/>
<line x1="329.4" y1="87.2" x2="323.4" y2="59.5" stroke="rgb(0,0,0)"  stroke-width="1.0"/>
<line x1="329.2" y1="52.1" x2="291.6" y2="40.0" stroke="rgb(0,0,0)"  stroke-width="1.0"/>
<line x1="291.6" y1="40.0" x2="261.7" y2="66.7" stroke="rgb(0,0,0)"  stroke-width="1.0"/>
<line x1="291.9" y1="49.4" x2="270.9" y2="68.1" stroke="rgb(0,0,0)"  stroke-width="1.0"/>
<line x1="261.7" y1="66.7" x2="270.2" y2="105.5" stroke="rgb(0,0,0)"  stroke-width="1.0"/>
<text x="90.985993" y="247.450977" fill="rgb(12,12,255)"  stroke="rgb(12,12,255)" stroke-width="1" font-size="16" >N</text>
<text x="234.459750" y="140.550103" fill="rgb(12,12,255)"  stroke="rgb(12,12,255)" stroke-width="1" font-size="16" >N</text>
<text x="143.524654" y="285.643717" fill="rgb(178,178,0)"  stroke="rgb(178,178,0)" stroke-width="1" font-size="16" >S</text>
<text x="22.000000" y="157.122115" fill="rgb(102,102,102)"  stroke="rgb(102,102,102)" stroke-width="1" font-size="16" >HC</text>
<text x="79.870087" y="317.774117" fill="rgb(255,12,12)"  stroke="rgb(255,12,12)" stroke-width="1" font-size="16" >O</text>
<text x="123.116394" y="183.796410" fill="rgb(255,12,12)"  stroke="rgb(255,12,12)" stroke-width="1" font-size="16" >O</text>
<text x="158.889919" y="95.286250" fill="rgb(102,102,102)"  stroke="rgb(102,102,102)" stroke-width="1" font-size="16" >H</text>
<text x="170.889919" y="98.966250" fill="rgb(102,102,102)"  stroke="rgb(102,102,102)" stroke-width="1" font-size="13" >3</text>
<text x="177.389919" y="95.286250" fill="rgb(102,102,102)"  stroke="rgb(102,102,102)" stroke-width="1" font-size="16" >C</text>
<text x="275.258724" y="200.164727" fill="rgb(102,102,102)"  stroke="rgb(102,102,102)" stroke-width="1" font-size="16" >CH</text>
<text x="299.258724" y="203.844727" fill="rgb(102,102,102)"  stroke="rgb(102,102,102)" stroke-width="1" font-size="13" >3</text>
<text x="369.649926" y="112.057106" fill="rgb(147,0,147)"  stroke="rgb(147,0,147)" stroke-width="1" font-size="16" >I</text>
<text font-size="18.000000" fill ="black" font-family="sans-serif"
x="10.000000" y="20.000000" ></text>
<title> - OBDepict</title>
</svg>
