<?xml version="1.0"?>
<svg xmlns="http://www.w3.org/2000/svg"
xmlns:xlink="http://www.w3.org/1999/xlink" xmlns:cml="http://www.xml-cml.org/schema" width="391.458" height="341.064" x="0" y="0" font-family="sans-serif" stroke="rgb(0,0,0)" stroke-width="1"  stroke-linecap="round">
<rect x="0%" y="0%" width="100%" height="100%" stroke-width="0" fill="rgb(255,255,255)"  />
<line x1="247.8" y1="140.5" x2="213.3" y2="160.4" stroke="rgb(0,0,0)"  stroke-width="1.0"/>
<line x1="279.5" y1="80.4" x2="279.2" y2="53.0" stroke="rgb(0,0,0)"  stroke-width="1.0"/>
<line x1="285.5" y1="80.3" x2="285.2" y2="53.0" stroke="rgb(0,0,0)"  stroke-width="1.0"/>
<line x1="143.9" y1="159.9" x2="120.8" y2="146.5" stroke="rgb(0,0,0)"  stroke-width="1.0"/>
<line x1="178.5" y1="220.2" x2="178.3" y2="247.3" stroke="rgb(0,0,0)"  stroke-width="1.0"/>
<line x1="143.9" y1="200.3" x2="120.6" y2="214.0" stroke="rgb(0,0,0)"  stroke-width="1.0"/>
<line x1="109.6" y1="127.0" x2="109.8" y2="100.1" stroke="rgb(0,0,0)"  stroke-width="1.0"/>
<line x1="109.5" y1="233.6" x2="109.6" y2="260.8" stroke="rgb(0,0,0)"  stroke-width="1.0"/>
<line x1="109.8" y1="100.1" x2="86.4" y2="86.4" stroke="rgb(0,0,0)"  stroke-width="1.0"/>
<line x1="109.6" y1="260.8" x2="74.8" y2="280.7" stroke="rgb(0,0,0)"  stroke-width="1.0"/>
<line x1="74.8" y1="280.7" x2="51.2" y2="294.5" stroke="rgb(0,0,0)"  stroke-width="1.0"/>
<line x1="77.0" y1="284.4" x2="53.3" y2="298.1" stroke="rgb(0,0,0)"  stroke-width="1.0"/>
<line x1="72.7" y1="277.1" x2="49.1" y2="290.9" stroke="rgb(0,0,0)"  stroke-width="1.0"/>
<line x1="282.4" y1="160.4" x2="316.9" y2="140.3" stroke="rgb(0,0,0)"  stroke-width="1.0"/>
<line x1="291.2" y1="163.6" x2="315.3" y2="149.6" stroke="rgb(0,0,0)"  stroke-width="1.0"/>
<line x1="316.9" y1="140.3" x2="351.5" y2="160.4" stroke="rgb(0,0,0)"  stroke-width="1.0"/>
<line x1="351.5" y1="160.4" x2="351.5" y2="200.5" stroke="rgb(0,0,0)"  stroke-width="1.0"/>
<line x1="344.3" y1="166.4" x2="344.3" y2="194.5" stroke="rgb(0,0,0)"  stroke-width="1.0"/>
<line x1="351.5" y1="200.5" x2="316.9" y2="220.2" stroke="rgb(0,0,0)"  stroke-width="1.0"/>
<line x1="316.9" y1="220.2" x2="282.0" y2="200.3" stroke="rgb(0,0,0)"  stroke-width="1.0"/>
<line x1="282.0" y1="200.3" x2="282.4" y2="160.4" stroke="rgb(0,0,0)"  stroke-width="1.0"/>
<line x1="282.5" y1="80.3" x2="305.6" y2="93.7" stroke="rgb(0,0,0)"  stroke-width="1.0"/>
<line x1="316.9" y1="113.2" x2="316.9" y2="140.3" stroke="rgb(0,0,0)"  stroke-width="1.0"/>
<line x1="282.4" y1="160.4" x2="247.8" y2="140.5" stroke="rgb(0,0,0)"  stroke-width="1.0"/>
<line x1="247.8" y1="140.5" x2="248.0" y2="100.7" stroke="rgb(0,0,0)"  stroke-width="1.0"/>
<line x1="248.0" y1="100.7" x2="282.5" y2="80.3" stroke="rgb(0,0,0)"  stroke-width="1.0"/>
<line x1="282.0" y1="200.3" x2="247.5" y2="220.2" stroke="rgb(0,0,0)"  stroke-width="1.0"/>
<line x1="280.4" y1="209.5" x2="256.3" y2="223.4" stroke="rgb(0,0,0)"  stroke-width="1.0"/>
<line x1="247.5" y1="220.2" x2="247.3" y2="260.0" stroke="rgb(0,0,0)"  stroke-width="1.0"/>
<line x1="247.3" y1="260.0" x2="282.0" y2="280.4" stroke="rgb(0,0,0)"  stroke-width="1.0"/>
<line x1="256.1" y1="256.9" x2="280.5" y2="271.1" stroke="rgb(0,0,0)"  stroke-width="1.0"/>
<line x1="282.0" y1="280.4" x2="316.9" y2="260.3" stroke="rgb(0,0,0)"  stroke-width="1.0"/>
<line x1="316.9" y1="260.3" x2="316.9" y2="220.2" stroke="rgb(0,0,0)"  stroke-width="1.0"/>
<line x1="309.7" y1="254.3" x2="309.7" y2="226.2" stroke="rgb(0,0,0)"  stroke-width="1.0"/>
<line x1="213.3" y1="160.4" x2="212.9" y2="200.3" stroke="rgb(0,0,0)"  stroke-width="1.0"/>
<line x1="212.9" y1="200.3" x2="178.5" y2="220.2" stroke="rgb(0,0,0)"  stroke-width="1.0"/>
<line x1="204.1" y1="197.1" x2="180.1" y2="210.9" stroke="rgb(0,0,0)"  stroke-width="1.0"/>
<line x1="178.5" y1="220.2" x2="143.9" y2="200.3" stroke="rgb(0,0,0)"  stroke-width="1.0"/>
<line x1="143.9" y1="200.3" x2="143.9" y2="159.9" stroke="rgb(0,0,0)"  stroke-width="1.0"/>
<line x1="151.1" y1="194.3" x2="151.1" y2="165.9" stroke="rgb(0,0,0)"  stroke-width="1.0"/>
<line x1="143.9" y1="159.9" x2="178.7" y2="140.3" stroke="rgb(0,0,0)"  stroke-width="1.0"/>
<line x1="178.7" y1="140.3" x2="213.3" y2="160.4" stroke="rgb(0,0,0)"  stroke-width="1.0"/>
<line x1="180.2" y1="149.5" x2="204.5" y2="163.6" stroke="rgb(0,0,0)"  stroke-width="1.0"/>
<text x="310.855036" y="108.210126" fill="rgb(12,12,255)"  stroke="rgb(12,12,255)" stroke-width="1" font-size="16" >NH</text>
<text x="276.014154" y="48.000000" fill="rgb(255,12,12)"  stroke="rgb(255,12,12)" stroke-width="1" font-size="16" >O</text>
<text x="103.565369" y="147.958994" fill="rgb(255,12,12)"  stroke="rgb(255,12,12)" stroke-width="1" font-size="16" >O</text>
<text x="160.194728" y="268.262852" fill="rgb(30,239,30)"  stroke="rgb(30,239,30)" stroke-width="1" font-size="16" >Cl</text>
<text x="103.448974" y="228.630379" fill="rgb(255,12,12)"  stroke="rgb(255,12,12)" stroke-width="1" font-size="16" >O</text>
<text x="49.194916" y="87.870113" fill="rgb(102,102,102)"  stroke="rgb(102,102,102)" stroke-width="1" font-size="16" >H</text>
<text x="61.194916" y="91.550113" fill="rgb(102,102,102)"  stroke="rgb(102,102,102)" stroke-width="1" font-size="13" >3</text>
<text x="67.694916" y="87.870113" fill="rgb(102,102,102)"  stroke="rgb(102,102,102)" stroke-width="1" font-size="16" >C</text>
<text x="22.000000" y="309.064124" fill="rgb(102,102,102)"  stroke="rgb(102,102,102)" stroke-width="1" font-size="16" >HC</text>
<text font-size="18.000000" fill ="black" font-family="sans-serif"
x="10.000000" y="20.000000" ></text>
<title> - OBDepict</title>
</svg>
