<?xml version="1.0"?>
<svg xmlns="http://www.w3.org/2000/svg"
xmlns:xlink="http://www.w3.org/1999/xlink" xmlns:cml="http://www.xml-cml.org/schema" width="218.547" height="419.898" x="0" y="0" font-family="sans-serif" stroke="rgb(0,0,0)" stroke-width="1"  stroke-linecap="round">
<rect x="0%" y="0%" width="100%" height="100%" stroke-width="0" fill="rgb(255,255,255)"  />
<line x1="109.3" y1="200.0" x2="109.3" y2="239.9" stroke="rgb(0,0,0)"  stroke-width="1.0"/>
<line x1="132.7" y1="186.4" x2="109.3" y2="200.0" stroke="rgb(0,0,0)"  stroke-width="1.0"/>
<line x1="74.7" y1="60.0" x2="109.3" y2="80.0" stroke="rgb(0,0,0)"  stroke-width="1.0"/>
<line x1="51.3" y1="46.5" x2="74.7" y2="60.0" stroke="rgb(0,0,0)"  stroke-width="1.0"/>
<line x1="53.4" y1="42.8" x2="76.8" y2="56.4" stroke="rgb(0,0,0)"  stroke-width="1.0"/>
<line x1="49.2" y1="50.1" x2="72.6" y2="63.6" stroke="rgb(0,0,0)"  stroke-width="1.0"/>
<line x1="87.5" y1="183.9" x2="110.8" y2="197.4" stroke="rgb(0,0,0)"  stroke-width="1.0"/>
<line x1="84.5" y1="189.1" x2="107.8" y2="202.5" stroke="rgb(0,0,0)"  stroke-width="1.0"/>
<line x1="144.0" y1="140.0" x2="144.0" y2="167.0" stroke="rgb(0,0,0)"  stroke-width="1.0"/>
<line x1="51.3" y1="246.4" x2="74.7" y2="259.9" stroke="rgb(0,0,0)"  stroke-width="1.0"/>
<line x1="109.3" y1="346.9" x2="109.3" y2="319.9" stroke="rgb(0,0,0)"  stroke-width="1.0"/>
<line x1="132.7" y1="373.4" x2="120.5" y2="366.4" stroke="rgb(0,0,0)"  stroke-width="1.0"/>
<line x1="109.3" y1="239.9" x2="144.0" y2="259.9" stroke="rgb(0,0,0)"  stroke-width="1.0"/>
<line x1="144.0" y1="259.9" x2="144.0" y2="299.9" stroke="rgb(0,0,0)"  stroke-width="1.0"/>
<line x1="136.8" y1="265.9" x2="136.8" y2="293.9" stroke="rgb(0,0,0)"  stroke-width="1.0"/>
<line x1="144.0" y1="299.9" x2="109.3" y2="319.9" stroke="rgb(0,0,0)"  stroke-width="1.0"/>
<line x1="109.3" y1="319.9" x2="74.7" y2="299.9" stroke="rgb(0,0,0)"  stroke-width="1.0"/>
<line x1="107.7" y1="310.7" x2="83.5" y2="296.7" stroke="rgb(0,0,0)"  stroke-width="1.0"/>
<line x1="74.7" y1="299.9" x2="74.7" y2="259.9" stroke="rgb(0,0,0)"  stroke-width="1.0"/>
<line x1="74.7" y1="259.9" x2="109.3" y2="239.9" stroke="rgb(0,0,0)"  stroke-width="1.0"/>
<line x1="83.5" y1="263.2" x2="107.7" y2="249.2" stroke="rgb(0,0,0)"  stroke-width="1.0"/>
<line x1="144.0" y1="140.0" x2="109.3" y2="120.0" stroke="rgb(0,0,0)"  stroke-width="1.0"/>
<line x1="142.4" y1="130.7" x2="118.1" y2="116.7" stroke="rgb(0,0,0)"  stroke-width="1.0"/>
<line x1="109.3" y1="120.0" x2="109.3" y2="80.0" stroke="rgb(0,0,0)"  stroke-width="1.0"/>
<line x1="109.3" y1="80.0" x2="144.0" y2="60.0" stroke="rgb(0,0,0)"  stroke-width="1.0"/>
<line x1="118.1" y1="83.2" x2="142.4" y2="69.2" stroke="rgb(0,0,0)"  stroke-width="1.0"/>
<line x1="144.0" y1="60.0" x2="178.5" y2="80.0" stroke="rgb(0,0,0)"  stroke-width="1.0"/>
<line x1="178.5" y1="80.0" x2="178.5" y2="120.0" stroke="rgb(0,0,0)"  stroke-width="1.0"/>
<line x1="171.3" y1="86.0" x2="171.3" y2="114.0" stroke="rgb(0,0,0)"  stroke-width="1.0"/>
<line x1="178.5" y1="120.0" x2="144.0" y2="140.0" stroke="rgb(0,0,0)"  stroke-width="1.0"/>
<text x="138.012349" y="187.957900" fill="rgb(12,12,255)"  stroke="rgb(12,12,255)" stroke-width="1" font-size="16" >NH</text>
<text x="22.000000" y="48.000000" fill="rgb(102,102,102)"  stroke="rgb(102,102,102)" stroke-width="1" font-size="16" >HC</text>
<text x="68.738641" y="187.957900" fill="rgb(255,12,12)"  stroke="rgb(255,12,12)" stroke-width="1" font-size="16" >O</text>
<text x="34.000000" y="247.939858" fill="rgb(127,178,255)"  stroke="rgb(127,178,255)" stroke-width="1" font-size="16" >F</text>
<text x="103.273708" y="367.903772" fill="rgb(255,12,12)"  stroke="rgb(255,12,12)" stroke-width="1" font-size="16" >O</text>
<text x="140.012349" y="387.897758" fill="rgb(102,102,102)"  stroke="rgb(102,102,102)" stroke-width="1" font-size="16" >CH</text>
<text x="164.012349" y="391.577758" fill="rgb(102,102,102)"  stroke="rgb(102,102,102)" stroke-width="1" font-size="13" >3</text>
<text font-size="18.000000" fill ="black" font-family="sans-serif"
x="10.000000" y="20.000000" ></text>
<title> - OBDepict</title>
</svg>
