<?xml version="1.0"?>
<svg xmlns="http://www.w3.org/2000/svg"
xmlns:xlink="http://www.w3.org/1999/xlink" xmlns:cml="http://www.xml-cml.org/schema" width="322.435" height="260.008" x="0" y="0" font-family="sans-serif" stroke="rgb(0,0,0)" stroke-width="1"  stroke-linecap="round">
<rect x="0%" y="0%" width="100%" height="100%" stroke-width="0" fill="rgb(255,255,255)"  />
<line x1="247.9" y1="73.0" x2="247.9" y2="100.0" stroke="rgb(0,0,0)"  stroke-width="1.0"/>
<line x1="213.1" y1="160.0" x2="189.8" y2="173.5" stroke="rgb(0,0,0)"  stroke-width="1.0"/>
<line x1="74.5" y1="200.0" x2="109.3" y2="180.0" stroke="rgb(0,0,0)"  stroke-width="1.0"/>
<line x1="51.3" y1="213.5" x2="74.5" y2="200.0" stroke="rgb(0,0,0)"  stroke-width="1.0"/>
<line x1="49.1" y1="209.9" x2="72.4" y2="196.4" stroke="rgb(0,0,0)"  stroke-width="1.0"/>
<line x1="53.4" y1="217.1" x2="76.7" y2="203.6" stroke="rgb(0,0,0)"  stroke-width="1.0"/>
<line x1="167.7" y1="155.0" x2="174.7" y2="167.2" stroke="rgb(0,0,0)"  stroke-width="1.0"/>
<line x1="162.5" y1="158.0" x2="169.5" y2="170.2" stroke="rgb(0,0,0)"  stroke-width="1.0"/>
<line x1="189.5" y1="204.8" x2="182.5" y2="192.8" stroke="rgb(0,0,0)"  stroke-width="1.0"/>
<line x1="194.7" y1="201.8" x2="187.7" y2="189.8" stroke="rgb(0,0,0)"  stroke-width="1.0"/>
<line x1="271.2" y1="46.5" x2="259.1" y2="53.5" stroke="rgb(0,0,0)"  stroke-width="1.0"/>
<line x1="225.9" y1="43.9" x2="238.1" y2="50.9" stroke="rgb(0,0,0)"  stroke-width="1.0"/>
<line x1="222.9" y1="49.1" x2="235.1" y2="56.1" stroke="rgb(0,0,0)"  stroke-width="1.0"/>
<line x1="155.1" y1="193.5" x2="167.3" y2="186.5" stroke="rgb(0,0,0)"  stroke-width="1.0"/>
<line x1="109.3" y1="180.0" x2="132.6" y2="193.5" stroke="rgb(0,0,0)"  stroke-width="1.0"/>
<line x1="247.9" y1="207.0" x2="247.9" y2="180.0" stroke="rgb(0,0,0)"  stroke-width="1.0"/>
<line x1="213.1" y1="160.0" x2="213.1" y2="120.0" stroke="rgb(0,0,0)"  stroke-width="1.0"/>
<line x1="213.1" y1="120.0" x2="247.9" y2="100.0" stroke="rgb(0,0,0)"  stroke-width="1.0"/>
<line x1="221.9" y1="123.3" x2="246.3" y2="109.2" stroke="rgb(0,0,0)"  stroke-width="1.0"/>
<line x1="247.9" y1="100.0" x2="282.4" y2="120.0" stroke="rgb(0,0,0)"  stroke-width="1.0"/>
<line x1="282.4" y1="120.0" x2="282.4" y2="160.0" stroke="rgb(0,0,0)"  stroke-width="1.0"/>
<line x1="275.2" y1="126.0" x2="275.2" y2="154.0" stroke="rgb(0,0,0)"  stroke-width="1.0"/>
<line x1="282.4" y1="160.0" x2="247.9" y2="180.0" stroke="rgb(0,0,0)"  stroke-width="1.0"/>
<line x1="247.9" y1="180.0" x2="213.1" y2="160.0" stroke="rgb(0,0,0)"  stroke-width="1.0"/>
<line x1="246.3" y1="170.8" x2="221.9" y2="156.8" stroke="rgb(0,0,0)"  stroke-width="1.0"/>
<text x="172.595190" y="188.006162" fill="rgb(178,178,0)"  stroke="rgb(178,178,0)" stroke-width="1" font-size="16" >S</text>
<text x="252.687937" y="55.968880" fill="rgb(12,12,255)"  stroke="rgb(12,12,255)" stroke-width="1" font-size="16" >+</text>
<text x="241.887937" y="68.000880" fill="rgb(12,12,255)"  stroke="rgb(12,12,255)" stroke-width="1" font-size="16" >N</text>
<text x="22.000000" y="228.007922" fill="rgb(102,102,102)"  stroke="rgb(102,102,102)" stroke-width="1" font-size="16" >HC</text>
<text x="152.594310" y="153.255541" fill="rgb(255,12,12)"  stroke="rgb(255,12,12)" stroke-width="1" font-size="16" >O</text>
<text x="192.596071" y="222.553136" fill="rgb(255,12,12)"  stroke="rgb(255,12,12)" stroke-width="1" font-size="16" >O</text>
<text x="287.234912" y="25.888000" fill="rgb(255,12,12)"  stroke="rgb(255,12,12)" stroke-width="1" font-size="16" >_</text>
<text x="276.434912" y="48.000000" fill="rgb(255,12,12)"  stroke="rgb(255,12,12)" stroke-width="1" font-size="16" >O</text>
<text x="207.142165" y="48.000000" fill="rgb(255,12,12)"  stroke="rgb(255,12,12)" stroke-width="1" font-size="16" >O</text>
<text x="137.844570" y="208.007042" fill="rgb(12,12,255)"  stroke="rgb(12,12,255)" stroke-width="1" font-size="16" >N</text>
<text x="137.844570" y="224.007042" fill="rgb(12,12,255)"  stroke="rgb(12,12,255)" stroke-width="1" font-size="16" >H</text>
<text x="243.887937" y="228.007922" fill="rgb(102,102,102)"  stroke="rgb(102,102,102)" stroke-width="1" font-size="16" >CH</text>
<text x="267.887937" y="231.687922" fill="rgb(102,102,102)"  stroke="rgb(102,102,102)" stroke-width="1" font-size="13" >3</text>
<text font-size="18.000000" fill ="black" font-family="sans-serif"
x="10.000000" y="20.000000" ></text>
<title> - OBDepict</title>
</svg>
