<?xml version="1.0"?>
<svg xmlns="http://www.w3.org/2000/svg"
xmlns:xlink="http://www.w3.org/1999/xlink" xmlns:cml="http://www.xml-cml.org/schema" width="286.763" height="408.549" x="0" y="0" font-family="sans-serif" stroke="rgb(0,0,0)" stroke-width="1"  stroke-linecap="round">
<rect x="0%" y="0%" width="100%" height="100%" stroke-width="0" fill="rgb(255,255,255)"  />
<line x1="155.2" y1="288.8" x2="117.1" y2="300.9" stroke="rgb(0,0,0)"  stroke-width="1.0"/>
<line x1="153.4" y1="283.1" x2="115.2" y2="295.2" stroke="rgb(0,0,0)"  stroke-width="1.0"/>
<line x1="162.3" y1="246.6" x2="154.3" y2="285.9" stroke="rgb(0,0,0)"  stroke-width="1.0"/>
<line x1="235.1" y1="78.8" x2="226.1" y2="117.6" stroke="rgb(0,0,0)"  stroke-width="1.0"/>
<line x1="240.8" y1="52.7" x2="235.1" y2="78.8" stroke="rgb(0,0,0)"  stroke-width="1.0"/>
<line x1="244.9" y1="53.6" x2="239.2" y2="79.7" stroke="rgb(0,0,0)"  stroke-width="1.0"/>
<line x1="236.7" y1="51.8" x2="231.0" y2="77.9" stroke="rgb(0,0,0)"  stroke-width="1.0"/>
<line x1="45.3" y1="356.3" x2="61.2" y2="334.8" stroke="rgb(0,0,0)"  stroke-width="1.0"/>
<line x1="50.1" y1="359.9" x2="66.1" y2="338.3" stroke="rgb(0,0,0)"  stroke-width="1.0"/>
<line x1="86.3" y1="247.6" x2="86.7" y2="274.5" stroke="rgb(0,0,0)"  stroke-width="1.0"/>
<line x1="80.3" y1="247.6" x2="80.7" y2="274.6" stroke="rgb(0,0,0)"  stroke-width="1.0"/>
<line x1="234.4" y1="186.8" x2="208.3" y2="194.9" stroke="rgb(0,0,0)"  stroke-width="1.0"/>
<line x1="184.9" y1="142.3" x2="179.1" y2="168.3" stroke="rgb(0,0,0)"  stroke-width="1.0"/>
<line x1="121.3" y1="162.4" x2="141.1" y2="180.4" stroke="rgb(0,0,0)"  stroke-width="1.0"/>
<line x1="226.1" y1="117.6" x2="200.2" y2="125.7" stroke="rgb(0,0,0)"  stroke-width="1.0"/>
<line x1="86.5" y1="161.8" x2="99.3" y2="157.6" stroke="rgb(0,0,0)"  stroke-width="1.0"/>
<line x1="61.7" y1="290.5" x2="83.7" y2="274.6" stroke="rgb(0,0,0)"  stroke-width="1.0"/>
<line x1="83.7" y1="274.6" x2="116.1" y2="298.1" stroke="rgb(0,0,0)"  stroke-width="1.0"/>
<line x1="116.1" y1="298.1" x2="107.7" y2="324.2" stroke="rgb(0,0,0)"  stroke-width="1.0"/>
<line x1="90.6" y1="336.6" x2="63.7" y2="336.6" stroke="rgb(0,0,0)"  stroke-width="1.0"/>
<line x1="63.7" y1="336.6" x2="55.2" y2="310.4" stroke="rgb(0,0,0)"  stroke-width="1.0"/>
<line x1="208.3" y1="194.9" x2="179.1" y2="168.3" stroke="rgb(0,0,0)"  stroke-width="1.0"/>
<line x1="179.1" y1="168.3" x2="141.1" y2="180.4" stroke="rgb(0,0,0)"  stroke-width="1.0"/>
<line x1="175.6" y1="177.0" x2="149.0" y2="185.5" stroke="rgb(0,0,0)"  stroke-width="1.0"/>
<line x1="141.1" y1="180.4" x2="132.5" y2="219.6" stroke="rgb(0,0,0)"  stroke-width="1.0"/>
<line x1="132.5" y1="219.6" x2="162.3" y2="246.6" stroke="rgb(0,0,0)"  stroke-width="1.0"/>
<line x1="141.7" y1="218.3" x2="162.7" y2="237.2" stroke="rgb(0,0,0)"  stroke-width="1.0"/>
<line x1="162.3" y1="246.6" x2="200.3" y2="234.6" stroke="rgb(0,0,0)"  stroke-width="1.0"/>
<line x1="200.3" y1="234.6" x2="208.3" y2="194.9" stroke="rgb(0,0,0)"  stroke-width="1.0"/>
<line x1="194.4" y1="227.3" x2="200.0" y2="199.4" stroke="rgb(0,0,0)"  stroke-width="1.0"/>
<text x="33.163242" y="306.074745" fill="rgb(12,12,255)"  stroke="rgb(12,12,255)" stroke-width="1" font-size="16" >HN</text>
<text x="97.645041" y="344.563663" fill="rgb(178,178,0)"  stroke="rgb(178,178,0)" stroke-width="1" font-size="16" >S</text>
<text x="237.598123" y="48.000000" fill="rgb(102,102,102)"  stroke="rgb(102,102,102)" stroke-width="1" font-size="16" >CH</text>
<text x="22.000000" y="376.548778" fill="rgb(12,12,255)"  stroke="rgb(12,12,255)" stroke-width="1" font-size="16" >HN</text>
<text x="77.153211" y="242.594726" fill="rgb(255,12,12)"  stroke="rgb(255,12,12)" stroke-width="1" font-size="16" >O</text>
<text x="240.762660" y="190.947743" fill="rgb(165,40,40)"  stroke="rgb(165,40,40)" stroke-width="1" font-size="16" >Br</text>
<text x="181.781912" y="137.631128" fill="rgb(255,12,12)"  stroke="rgb(255,12,12)" stroke-width="1" font-size="16" >O</text>
<text x="105.643747" y="161.622391" fill="rgb(255,12,12)"  stroke="rgb(255,12,12)" stroke-width="1" font-size="16" >O</text>
<text x="48.154668" y="173.785472" fill="rgb(102,102,102)"  stroke="rgb(102,102,102)" stroke-width="1" font-size="16" >H</text>
<text x="60.154668" y="177.465472" fill="rgb(102,102,102)"  stroke="rgb(102,102,102)" stroke-width="1" font-size="13" >3</text>
<text x="66.654668" y="173.785472" fill="rgb(102,102,102)"  stroke="rgb(102,102,102)" stroke-width="1" font-size="16" >C</text>
<text font-size="18.000000" fill ="black" font-family="sans-serif"
x="10.000000" y="20.000000" ></text>
<title> - OBDepict</title>
</svg>
