<?xml version="1.0"?>
<svg xmlns="http://www.w3.org/2000/svg"
xmlns:xlink="http://www.w3.org/1999/xlink" xmlns:cml="http://www.xml-cml.org/schema" width="443.246" height="323.911" x="0" y="0" font-family="sans-serif" stroke="rgb(0,0,0)" stroke-width="1"  stroke-linecap="round">
<rect x="0%" y="0%" width="100%" height="100%" stroke-width="0" fill="rgb(255,255,255)"  />
<line x1="358.5" y1="109.5" x2="335.1" y2="97.5" stroke="rgb(0,0,0)"  stroke-width="1.0"/>
<line x1="196.1" y1="101.6" x2="151.7" y2="131.8" stroke="rgb(0,0,0)"  stroke-width="1.0"/>
<line x1="233.6" y1="121.7" x2="196.1" y2="101.6" stroke="rgb(0,0,0)"  stroke-width="1.0"/>
<line x1="119.3" y1="259.0" x2="149.5" y2="233.4" stroke="rgb(0,0,0)"  stroke-width="1.0"/>
<line x1="267.1" y1="100.3" x2="233.6" y2="121.7" stroke="rgb(0,0,0)"  stroke-width="1.0"/>
<line x1="99.2" y1="275.6" x2="119.3" y2="259.0" stroke="rgb(0,0,0)"  stroke-width="1.0"/>
<line x1="96.5" y1="272.4" x2="116.7" y2="255.8" stroke="rgb(0,0,0)"  stroke-width="1.0"/>
<line x1="101.9" y1="278.9" x2="122.0" y2="262.2" stroke="rgb(0,0,0)"  stroke-width="1.0"/>
<line x1="371.2" y1="141.8" x2="370.6" y2="128.4" stroke="rgb(0,0,0)"  stroke-width="1.0"/>
<line x1="195.9" y1="173.3" x2="169.6" y2="169.5" stroke="rgb(0,0,0)"  stroke-width="1.0"/>
<line x1="196.7" y1="167.4" x2="170.5" y2="163.6" stroke="rgb(0,0,0)"  stroke-width="1.0"/>
<line x1="393.9" y1="103.9" x2="382.6" y2="111.0" stroke="rgb(0,0,0)"  stroke-width="1.0"/>
<line x1="390.7" y1="98.8" x2="379.4" y2="105.9" stroke="rgb(0,0,0)"  stroke-width="1.0"/>
<line x1="149.5" y1="233.4" x2="144.8" y2="207.5" stroke="rgb(0,0,0)"  stroke-width="1.0"/>
<line x1="142.7" y1="99.7" x2="151.7" y2="131.8" stroke="rgb(0,0,0)"  stroke-width="1.0"/>
<line x1="231.7" y1="141.7" x2="230.6" y2="121.9" stroke="rgb(0,0,0)"  stroke-width="1.0"/>
<line x1="237.7" y1="141.4" x2="236.6" y2="121.6" stroke="rgb(0,0,0)"  stroke-width="1.0"/>
<line x1="170.0" y1="166.5" x2="151.6" y2="185.4" stroke="rgb(0,0,0)"  stroke-width="1.0"/>
<line x1="130.8" y1="189.0" x2="107.5" y2="177.7" stroke="rgb(0,0,0)"  stroke-width="1.0"/>
<line x1="107.5" y1="177.7" x2="113.0" y2="138.8" stroke="rgb(0,0,0)"  stroke-width="1.0"/>
<line x1="115.5" y1="172.8" x2="119.3" y2="145.7" stroke="rgb(0,0,0)"  stroke-width="1.0"/>
<line x1="113.0" y1="138.8" x2="151.7" y2="131.8" stroke="rgb(0,0,0)"  stroke-width="1.0"/>
<line x1="151.7" y1="131.8" x2="170.0" y2="166.5" stroke="rgb(0,0,0)"  stroke-width="1.0"/>
<line x1="335.1" y1="97.5" x2="333.3" y2="58.1" stroke="rgb(0,0,0)"  stroke-width="1.0"/>
<line x1="333.3" y1="58.1" x2="298.3" y2="40.0" stroke="rgb(0,0,0)"  stroke-width="1.0"/>
<line x1="324.7" y1="61.8" x2="300.3" y2="49.2" stroke="rgb(0,0,0)"  stroke-width="1.0"/>
<line x1="298.3" y1="40.0" x2="265.1" y2="61.0" stroke="rgb(0,0,0)"  stroke-width="1.0"/>
<line x1="265.1" y1="61.0" x2="267.1" y2="100.3" stroke="rgb(0,0,0)"  stroke-width="1.0"/>
<line x1="272.6" y1="66.6" x2="274.0" y2="94.0" stroke="rgb(0,0,0)"  stroke-width="1.0"/>
<line x1="267.1" y1="100.3" x2="301.8" y2="118.7" stroke="rgb(0,0,0)"  stroke-width="1.0"/>
<line x1="301.8" y1="118.7" x2="335.1" y2="97.5" stroke="rgb(0,0,0)"  stroke-width="1.0"/>
<line x1="303.0" y1="109.4" x2="326.1" y2="94.6" stroke="rgb(0,0,0)"  stroke-width="1.0"/>
<line x1="107.5" y1="177.7" x2="71.0" y2="192.1" stroke="rgb(0,0,0)"  stroke-width="1.0"/>
<line x1="71.0" y1="192.1" x2="40.0" y2="167.9" stroke="rgb(0,0,0)"  stroke-width="1.0"/>
<line x1="70.7" y1="182.7" x2="49.2" y2="165.9" stroke="rgb(0,0,0)"  stroke-width="1.0"/>
<line x1="40.0" y1="167.9" x2="45.5" y2="128.9" stroke="rgb(0,0,0)"  stroke-width="1.0"/>
<line x1="45.5" y1="128.9" x2="82.2" y2="114.1" stroke="rgb(0,0,0)"  stroke-width="1.0"/>
<line x1="53.7" y1="133.4" x2="79.3" y2="123.0" stroke="rgb(0,0,0)"  stroke-width="1.0"/>
<line x1="82.2" y1="114.1" x2="113.0" y2="138.8" stroke="rgb(0,0,0)"  stroke-width="1.0"/>
<text x="136.504202" y="202.737468" fill="rgb(12,12,255)"  stroke="rgb(12,12,255)" stroke-width="1" font-size="16" >N</text>
<text x="374.824476" y="111.367244" fill="rgb(12,12,255)"  stroke="rgb(12,12,255)" stroke-width="1" font-size="16" >+</text>
<text x="364.024476" y="123.399244" fill="rgb(12,12,255)"  stroke="rgb(12,12,255)" stroke-width="1" font-size="16" >N</text>
<text x="71.177572" y="291.911206" fill="rgb(102,102,102)"  stroke="rgb(102,102,102)" stroke-width="1" font-size="16" >HC</text>
<text x="376.571951" y="140.629301" fill="rgb(255,12,12)"  stroke="rgb(255,12,12)" stroke-width="1" font-size="16" >_</text>
<text x="365.771951" y="162.741301" fill="rgb(255,12,12)"  stroke="rgb(255,12,12)" stroke-width="1" font-size="16" >O</text>
<text x="203.166072" y="180.225599" fill="rgb(255,12,12)"  stroke="rgb(255,12,12)" stroke-width="1" font-size="16" >O</text>
<text x="397.245596" y="102.419996" fill="rgb(255,12,12)"  stroke="rgb(255,12,12)" stroke-width="1" font-size="16" >O</text>
<text x="121.228881" y="95.205694" fill="rgb(255,12,12)"  stroke="rgb(255,12,12)" stroke-width="1" font-size="16" >HO</text>
<text x="229.392518" y="162.521673" fill="rgb(255,12,12)"  stroke="rgb(255,12,12)" stroke-width="1" font-size="16" >O</text>
<text font-size="18.000000" fill ="black" font-family="sans-serif"
x="10.000000" y="20.000000" ></text>
<title> - OBDepict</title>
</svg>
