<?xml version="1.0"?>
<svg xmlns="http://www.w3.org/2000/svg"
xmlns:xlink="http://www.w3.org/1999/xlink" xmlns:cml="http://www.xml-cml.org/schema" width="487.481" height="279.823" x="0" y="0" font-family="sans-serif" stroke="rgb(0,0,0)" stroke-width="1"  stroke-linecap="round">
<rect x="0%" y="0%" width="100%" height="100%" stroke-width="0" fill="rgb(255,255,255)"  />
<line x1="229.5" y1="144.7" x2="199.8" y2="118.0" stroke="rgb(0,0,0)"  stroke-width="1.0"/>
<line x1="200.7" y1="120.9" x2="162.6" y2="133.2" stroke="rgb(0,0,0)"  stroke-width="1.0"/>
<line x1="198.9" y1="115.1" x2="160.7" y2="127.5" stroke="rgb(0,0,0)"  stroke-width="1.0"/>
<line x1="328.6" y1="175.5" x2="301.7" y2="172.3" stroke="rgb(0,0,0)"  stroke-width="1.0"/>
<line x1="50.7" y1="78.8" x2="59.2" y2="118.0" stroke="rgb(0,0,0)"  stroke-width="1.0"/>
<line x1="43.4" y1="52.5" x2="50.7" y2="78.8" stroke="rgb(0,0,0)"  stroke-width="1.0"/>
<line x1="47.5" y1="51.4" x2="54.7" y2="77.7" stroke="rgb(0,0,0)"  stroke-width="1.0"/>
<line x1="39.4" y1="53.6" x2="46.6" y2="79.9" stroke="rgb(0,0,0)"  stroke-width="1.0"/>
<line x1="91.1" y1="188.4" x2="106.9" y2="166.7" stroke="rgb(0,0,0)"  stroke-width="1.0"/>
<line x1="95.9" y1="191.9" x2="111.8" y2="170.3" stroke="rgb(0,0,0)"  stroke-width="1.0"/>
<line x1="132.1" y1="79.6" x2="132.3" y2="106.6" stroke="rgb(0,0,0)"  stroke-width="1.0"/>
<line x1="126.1" y1="79.7" x2="126.3" y2="106.7" stroke="rgb(0,0,0)"  stroke-width="1.0"/>
<line x1="59.2" y1="118.0" x2="84.5" y2="126.3" stroke="rgb(0,0,0)"  stroke-width="1.0"/>
<line x1="408.2" y1="126.8" x2="392.1" y2="148.3" stroke="rgb(0,0,0)"  stroke-width="1.0"/>
<line x1="267.2" y1="227.1" x2="261.7" y2="200.7" stroke="rgb(0,0,0)"  stroke-width="1.0"/>
<line x1="434.6" y1="188.3" x2="408.0" y2="185.5" stroke="rgb(0,0,0)"  stroke-width="1.0"/>
<line x1="279.8" y1="111.7" x2="268.8" y2="136.3" stroke="rgb(0,0,0)"  stroke-width="1.0"/>
<line x1="100.9" y1="142.7" x2="109.3" y2="168.5" stroke="rgb(0,0,0)"  stroke-width="1.0"/>
<line x1="109.3" y1="168.5" x2="136.3" y2="168.5" stroke="rgb(0,0,0)"  stroke-width="1.0"/>
<line x1="153.3" y1="156.1" x2="161.7" y2="130.3" stroke="rgb(0,0,0)"  stroke-width="1.0"/>
<line x1="161.7" y1="130.3" x2="129.3" y2="106.7" stroke="rgb(0,0,0)"  stroke-width="1.0"/>
<line x1="129.3" y1="106.7" x2="107.3" y2="122.7" stroke="rgb(0,0,0)"  stroke-width="1.0"/>
<line x1="229.5" y1="144.7" x2="225.7" y2="184.2" stroke="rgb(0,0,0)"  stroke-width="1.0"/>
<line x1="225.7" y1="184.2" x2="261.7" y2="200.7" stroke="rgb(0,0,0)"  stroke-width="1.0"/>
<line x1="234.1" y1="180.1" x2="259.2" y2="191.6" stroke="rgb(0,0,0)"  stroke-width="1.0"/>
<line x1="261.7" y1="200.7" x2="280.1" y2="180.4" stroke="rgb(0,0,0)"  stroke-width="1.0"/>
<line x1="282.3" y1="159.6" x2="268.8" y2="136.3" stroke="rgb(0,0,0)"  stroke-width="1.0"/>
<line x1="268.8" y1="136.3" x2="229.5" y2="144.7" stroke="rgb(0,0,0)"  stroke-width="1.0"/>
<line x1="264.4" y1="144.6" x2="236.9" y2="150.5" stroke="rgb(0,0,0)"  stroke-width="1.0"/>
<line x1="328.6" y1="175.5" x2="352.5" y2="143.7" stroke="rgb(0,0,0)"  stroke-width="1.0"/>
<line x1="352.5" y1="143.7" x2="392.1" y2="148.3" stroke="rgb(0,0,0)"  stroke-width="1.0"/>
<line x1="357.6" y1="151.5" x2="385.3" y2="154.8" stroke="rgb(0,0,0)"  stroke-width="1.0"/>
<line x1="392.1" y1="148.3" x2="408.0" y2="185.5" stroke="rgb(0,0,0)"  stroke-width="1.0"/>
<line x1="408.0" y1="185.5" x2="384.0" y2="217.3" stroke="rgb(0,0,0)"  stroke-width="1.0"/>
<line x1="398.6" y1="185.9" x2="381.8" y2="208.2" stroke="rgb(0,0,0)"  stroke-width="1.0"/>
<line x1="384.0" y1="217.3" x2="344.3" y2="212.7" stroke="rgb(0,0,0)"  stroke-width="1.0"/>
<line x1="344.3" y1="212.7" x2="328.6" y2="175.5" stroke="rgb(0,0,0)"  stroke-width="1.0"/>
<line x1="348.6" y1="204.3" x2="337.6" y2="178.2" stroke="rgb(0,0,0)"  stroke-width="1.0"/>
<text x="90.831936" y="138.328938" fill="rgb(12,12,255)"  stroke="rgb(12,12,255)" stroke-width="1" font-size="16" >N</text>
<text x="282.820322" y="178.826904" fill="rgb(12,12,255)"  stroke="rgb(12,12,255)" stroke-width="1" font-size="16" >N</text>
<text x="143.329480" y="176.494865" fill="rgb(178,178,0)"  stroke="rgb(178,178,0)" stroke-width="1" font-size="16" >S</text>
<text x="22.000000" y="48.000000" fill="rgb(102,102,102)"  stroke="rgb(102,102,102)" stroke-width="1" font-size="16" >HC</text>
<text x="79.831112" y="208.663429" fill="rgb(255,12,12)"  stroke="rgb(255,12,12)" stroke-width="1" font-size="16" >O</text>
<text x="122.995651" y="74.670575" fill="rgb(255,12,12)"  stroke="rgb(255,12,12)" stroke-width="1" font-size="16" >O</text>
<text x="409.981901" y="124.331855" fill="rgb(30,239,30)"  stroke="rgb(30,239,30)" stroke-width="1" font-size="16" >Cl</text>
<text x="265.819779" y="247.823261" fill="rgb(102,102,102)"  stroke="rgb(102,102,102)" stroke-width="1" font-size="16" >CH</text>
<text x="289.819779" y="251.503261" fill="rgb(102,102,102)"  stroke="rgb(102,102,102)" stroke-width="1" font-size="13" >3</text>
<text x="441.481397" y="197.662604" fill="rgb(30,239,30)"  stroke="rgb(30,239,30)" stroke-width="1" font-size="16" >Cl</text>
<text x="281.154996" y="107.828195" fill="rgb(102,102,102)"  stroke="rgb(102,102,102)" stroke-width="1" font-size="16" >CH</text>
<text x="305.154996" y="111.508195" fill="rgb(102,102,102)"  stroke="rgb(102,102,102)" stroke-width="1" font-size="13" >3</text>
<text font-size="18.000000" fill ="black" font-family="sans-serif"
x="10.000000" y="20.000000" ></text>
<title> - OBDepict</title>
</svg>
