<?xml version="1.0"?>
<svg xmlns="http://www.w3.org/2000/svg"
xmlns:xlink="http://www.w3.org/1999/xlink" xmlns:cml="http://www.xml-cml.org/schema" width="391.897" height="479.775" x="0" y="0" font-family="sans-serif" stroke="rgb(0,0,0)" stroke-width="1"  stroke-linecap="round">
<rect x="0%" y="0%" width="100%" height="100%" stroke-width="0" fill="rgb(255,255,255)"  />
<line x1="282.6" y1="339.8" x2="259.1" y2="326.3" stroke="rgb(0,0,0)"  stroke-width="1.0"/>
<line x1="74.7" y1="59.8" x2="109.3" y2="79.8" stroke="rgb(0,0,0)"  stroke-width="1.0"/>
<line x1="178.6" y1="199.8" x2="178.6" y2="239.8" stroke="rgb(0,0,0)"  stroke-width="1.0"/>
<line x1="51.3" y1="46.4" x2="74.7" y2="59.8" stroke="rgb(0,0,0)"  stroke-width="1.0"/>
<line x1="53.4" y1="42.8" x2="76.8" y2="56.2" stroke="rgb(0,0,0)"  stroke-width="1.0"/>
<line x1="49.2" y1="50.1" x2="72.7" y2="63.4" stroke="rgb(0,0,0)"  stroke-width="1.0"/>
<line x1="263.9" y1="298.0" x2="257.0" y2="310.0" stroke="rgb(0,0,0)"  stroke-width="1.0"/>
<line x1="258.8" y1="295.0" x2="251.8" y2="307.0" stroke="rgb(0,0,0)"  stroke-width="1.0"/>
<line x1="231.8" y1="341.8" x2="238.8" y2="329.6" stroke="rgb(0,0,0)"  stroke-width="1.0"/>
<line x1="237.0" y1="344.8" x2="244.0" y2="332.5" stroke="rgb(0,0,0)"  stroke-width="1.0"/>
<line x1="224.6" y1="306.3" x2="236.6" y2="313.3" stroke="rgb(0,0,0)"  stroke-width="1.0"/>
<line x1="155.3" y1="186.3" x2="178.6" y2="199.8" stroke="rgb(0,0,0)"  stroke-width="1.0"/>
<line x1="178.6" y1="239.8" x2="213.3" y2="259.8" stroke="rgb(0,0,0)"  stroke-width="1.0"/>
<line x1="144.0" y1="139.8" x2="144.0" y2="166.8" stroke="rgb(0,0,0)"  stroke-width="1.0"/>
<line x1="203.6" y1="188.9" x2="180.1" y2="202.4" stroke="rgb(0,0,0)"  stroke-width="1.0"/>
<line x1="200.6" y1="183.7" x2="177.1" y2="197.2" stroke="rgb(0,0,0)"  stroke-width="1.0"/>
<line x1="213.3" y1="259.8" x2="213.3" y2="286.8" stroke="rgb(0,0,0)"  stroke-width="1.0"/>
<line x1="317.1" y1="292.8" x2="317.1" y2="319.8" stroke="rgb(0,0,0)"  stroke-width="1.0"/>
<line x1="317.1" y1="426.8" x2="317.1" y2="399.8" stroke="rgb(0,0,0)"  stroke-width="1.0"/>
<line x1="282.6" y1="339.8" x2="317.1" y2="319.8" stroke="rgb(0,0,0)"  stroke-width="1.0"/>
<line x1="291.4" y1="343.0" x2="315.6" y2="329.0" stroke="rgb(0,0,0)"  stroke-width="1.0"/>
<line x1="317.1" y1="319.8" x2="351.9" y2="339.8" stroke="rgb(0,0,0)"  stroke-width="1.0"/>
<line x1="351.9" y1="339.8" x2="351.9" y2="379.8" stroke="rgb(0,0,0)"  stroke-width="1.0"/>
<line x1="344.7" y1="345.8" x2="344.7" y2="373.8" stroke="rgb(0,0,0)"  stroke-width="1.0"/>
<line x1="351.9" y1="379.8" x2="317.1" y2="399.8" stroke="rgb(0,0,0)"  stroke-width="1.0"/>
<line x1="317.1" y1="399.8" x2="282.6" y2="379.8" stroke="rgb(0,0,0)"  stroke-width="1.0"/>
<line x1="315.6" y1="390.5" x2="291.4" y2="376.6" stroke="rgb(0,0,0)"  stroke-width="1.0"/>
<line x1="282.6" y1="379.8" x2="282.6" y2="339.8" stroke="rgb(0,0,0)"  stroke-width="1.0"/>
<line x1="144.0" y1="139.8" x2="109.3" y2="119.8" stroke="rgb(0,0,0)"  stroke-width="1.0"/>
<line x1="142.4" y1="130.6" x2="118.1" y2="116.5" stroke="rgb(0,0,0)"  stroke-width="1.0"/>
<line x1="109.3" y1="119.8" x2="109.3" y2="79.8" stroke="rgb(0,0,0)"  stroke-width="1.0"/>
<line x1="109.3" y1="79.8" x2="144.0" y2="59.8" stroke="rgb(0,0,0)"  stroke-width="1.0"/>
<line x1="118.1" y1="83.0" x2="142.4" y2="69.0" stroke="rgb(0,0,0)"  stroke-width="1.0"/>
<line x1="144.0" y1="59.8" x2="178.6" y2="79.8" stroke="rgb(0,0,0)"  stroke-width="1.0"/>
<line x1="178.6" y1="79.8" x2="178.6" y2="119.8" stroke="rgb(0,0,0)"  stroke-width="1.0"/>
<line x1="171.4" y1="85.8" x2="171.4" y2="113.8" stroke="rgb(0,0,0)"  stroke-width="1.0"/>
<line x1="178.6" y1="119.8" x2="144.0" y2="139.8" stroke="rgb(0,0,0)"  stroke-width="1.0"/>
<text x="241.864909" y="327.782532" fill="rgb(178,178,0)"  stroke="rgb(178,178,0)" stroke-width="1" font-size="16" >S</text>
<text x="22.000000" y="48.000000" fill="rgb(102,102,102)"  stroke="rgb(102,102,102)" stroke-width="1" font-size="16" >HC</text>
<text x="261.863574" y="293.239384" fill="rgb(255,12,12)"  stroke="rgb(255,12,12)" stroke-width="1" font-size="16" >O</text>
<text x="221.866245" y="362.524455" fill="rgb(255,12,12)"  stroke="rgb(255,12,12)" stroke-width="1" font-size="16" >O</text>
<text x="195.321761" y="307.783867" fill="rgb(12,12,255)"  stroke="rgb(12,12,255)" stroke-width="1" font-size="16" >HN</text>
<text x="126.031842" y="187.791879" fill="rgb(12,12,255)"  stroke="rgb(12,12,255)" stroke-width="1" font-size="16" >HN</text>
<text x="207.321761" y="187.791879" fill="rgb(255,12,12)"  stroke="rgb(255,12,12)" stroke-width="1" font-size="16" >O</text>
<text x="313.149980" y="287.785202" fill="rgb(102,102,102)"  stroke="rgb(102,102,102)" stroke-width="1" font-size="16" >CH</text>
<text x="337.149980" y="291.465202" fill="rgb(102,102,102)"  stroke="rgb(102,102,102)" stroke-width="1" font-size="13" >3</text>
<text x="313.149980" y="447.774520" fill="rgb(102,102,102)"  stroke="rgb(102,102,102)" stroke-width="1" font-size="16" >CH</text>
<text x="337.149980" y="451.454520" fill="rgb(102,102,102)"  stroke="rgb(102,102,102)" stroke-width="1" font-size="13" >3</text>
<text font-size="18.000000" fill ="black" font-family="sans-serif"
x="10.000000" y="20.000000" ></text>
<title> - OBDepict</title>
</svg>
