<?xml version="1.0"?>
<svg xmlns="http://www.w3.org/2000/svg"
xmlns:xlink="http://www.w3.org/1999/xlink" xmlns:cml="http://www.xml-cml.org/schema" width="459.305" height="422.988" x="0" y="0" font-family="sans-serif" stroke="rgb(0,0,0)" stroke-width="1"  stroke-linecap="round">
<rect x="0%" y="0%" width="100%" height="100%" stroke-width="0" fill="rgb(255,255,255)"  />
<line x1="210.1" y1="220.2" x2="210.1" y2="180.2" stroke="rgb(0,0,0)"  stroke-width="1.0"/>
<line x1="216.1" y1="220.2" x2="216.1" y2="180.2" stroke="rgb(0,0,0)"  stroke-width="1.0"/>
<line x1="247.6" y1="240.3" x2="213.1" y2="220.2" stroke="rgb(0,0,0)"  stroke-width="1.0"/>
<line x1="144.5" y1="100.3" x2="167.9" y2="113.8" stroke="rgb(0,0,0)"  stroke-width="1.0"/>
<line x1="384.8" y1="362.6" x2="350.5" y2="341.8" stroke="rgb(0,0,0)"  stroke-width="1.0"/>
<line x1="216.7" y1="73.4" x2="216.7" y2="100.3" stroke="rgb(0,0,0)"  stroke-width="1.0"/>
<line x1="210.7" y1="73.4" x2="210.7" y2="100.3" stroke="rgb(0,0,0)"  stroke-width="1.0"/>
<line x1="408.1" y1="376.4" x2="384.8" y2="362.6" stroke="rgb(0,0,0)"  stroke-width="1.0"/>
<line x1="406.0" y1="380.0" x2="382.7" y2="366.2" stroke="rgb(0,0,0)"  stroke-width="1.0"/>
<line x1="410.2" y1="372.8" x2="386.9" y2="359.0" stroke="rgb(0,0,0)"  stroke-width="1.0"/>
<line x1="154.0" y1="170.8" x2="177.5" y2="157.6" stroke="rgb(0,0,0)"  stroke-width="1.0"/>
<line x1="156.9" y1="176.1" x2="180.5" y2="162.9" stroke="rgb(0,0,0)"  stroke-width="1.0"/>
<line x1="269.8" y1="176.5" x2="246.5" y2="163.0" stroke="rgb(0,0,0)"  stroke-width="1.0"/>
<line x1="272.8" y1="171.3" x2="249.5" y2="157.9" stroke="rgb(0,0,0)"  stroke-width="1.0"/>
<line x1="223.8" y1="293.3" x2="247.0" y2="280.3" stroke="rgb(0,0,0)"  stroke-width="1.0"/>
<line x1="339.9" y1="294.8" x2="316.6" y2="280.9" stroke="rgb(0,0,0)"  stroke-width="1.0"/>
<line x1="340.4" y1="227.9" x2="317.2" y2="241.0" stroke="rgb(0,0,0)"  stroke-width="1.0"/>
<line x1="51.3" y1="46.4" x2="75.1" y2="60.0" stroke="rgb(0,0,0)"  stroke-width="1.0"/>
<line x1="350.5" y1="341.8" x2="350.9" y2="314.5" stroke="rgb(0,0,0)"  stroke-width="1.0"/>
<line x1="352.0" y1="195.2" x2="351.8" y2="208.6" stroke="rgb(0,0,0)"  stroke-width="1.0"/>
<line x1="179.2" y1="133.3" x2="179.0" y2="160.2" stroke="rgb(0,0,0)"  stroke-width="1.0"/>
<line x1="179.0" y1="160.2" x2="213.1" y2="180.2" stroke="rgb(0,0,0)"  stroke-width="1.0"/>
<line x1="213.1" y1="180.2" x2="248.0" y2="160.5" stroke="rgb(0,0,0)"  stroke-width="1.0"/>
<line x1="248.0" y1="160.5" x2="248.1" y2="133.5" stroke="rgb(0,0,0)"  stroke-width="1.0"/>
<line x1="237.0" y1="113.9" x2="213.7" y2="100.3" stroke="rgb(0,0,0)"  stroke-width="1.0"/>
<line x1="213.7" y1="100.3" x2="190.5" y2="113.8" stroke="rgb(0,0,0)"  stroke-width="1.0"/>
<line x1="247.6" y1="240.3" x2="247.0" y2="280.3" stroke="rgb(0,0,0)"  stroke-width="1.0"/>
<line x1="247.0" y1="280.3" x2="281.9" y2="300.3" stroke="rgb(0,0,0)"  stroke-width="1.0"/>
<line x1="255.8" y1="277.0" x2="280.3" y2="291.0" stroke="rgb(0,0,0)"  stroke-width="1.0"/>
<line x1="281.9" y1="300.3" x2="316.6" y2="280.9" stroke="rgb(0,0,0)"  stroke-width="1.0"/>
<line x1="316.6" y1="280.9" x2="317.2" y2="241.0" stroke="rgb(0,0,0)"  stroke-width="1.0"/>
<line x1="309.5" y1="274.8" x2="309.9" y2="246.8" stroke="rgb(0,0,0)"  stroke-width="1.0"/>
<line x1="317.2" y1="241.0" x2="282.7" y2="220.4" stroke="rgb(0,0,0)"  stroke-width="1.0"/>
<line x1="282.7" y1="220.4" x2="247.6" y2="240.3" stroke="rgb(0,0,0)"  stroke-width="1.0"/>
<line x1="281.1" y1="229.6" x2="256.4" y2="243.6" stroke="rgb(0,0,0)"  stroke-width="1.0"/>
<line x1="144.5" y1="100.3" x2="109.6" y2="120.3" stroke="rgb(0,0,0)"  stroke-width="1.0"/>
<line x1="109.6" y1="120.3" x2="75.1" y2="100.3" stroke="rgb(0,0,0)"  stroke-width="1.0"/>
<line x1="108.0" y1="111.1" x2="83.9" y2="97.1" stroke="rgb(0,0,0)"  stroke-width="1.0"/>
<line x1="75.1" y1="100.3" x2="75.1" y2="60.0" stroke="rgb(0,0,0)"  stroke-width="1.0"/>
<line x1="75.1" y1="60.0" x2="109.6" y2="40.0" stroke="rgb(0,0,0)"  stroke-width="1.0"/>
<line x1="83.9" y1="63.2" x2="108.0" y2="49.2" stroke="rgb(0,0,0)"  stroke-width="1.0"/>
<line x1="109.6" y1="40.0" x2="144.5" y2="60.0" stroke="rgb(0,0,0)"  stroke-width="1.0"/>
<line x1="144.5" y1="60.0" x2="144.5" y2="100.3" stroke="rgb(0,0,0)"  stroke-width="1.0"/>
<line x1="137.3" y1="66.0" x2="137.3" y2="94.3" stroke="rgb(0,0,0)"  stroke-width="1.0"/>
<text x="173.216890" y="128.299510" fill="rgb(12,12,255)"  stroke="rgb(12,12,255)" stroke-width="1" font-size="16" >N</text>
<text x="242.213584" y="128.503426" fill="rgb(12,12,255)"  stroke="rgb(12,12,255)" stroke-width="1" font-size="16" >NH</text>
<text x="207.712810" y="68.377111" fill="rgb(255,12,12)"  stroke="rgb(255,12,12)" stroke-width="1" font-size="16" >O</text>
<text x="413.304607" y="390.988002" fill="rgb(102,102,102)"  stroke="rgb(102,102,102)" stroke-width="1" font-size="16" >CH</text>
<text x="138.109220" y="187.818930" fill="rgb(255,12,12)"  stroke="rgb(255,12,12)" stroke-width="1" font-size="16" >O</text>
<text x="276.515298" y="188.425825" fill="rgb(255,12,12)"  stroke="rgb(255,12,12)" stroke-width="1" font-size="16" >O</text>
<text x="194.503874" y="307.663727" fill="rgb(165,40,40)"  stroke="rgb(165,40,40)" stroke-width="1" font-size="16" >Br</text>
<text x="345.113869" y="309.479557" fill="rgb(255,12,12)"  stroke="rgb(255,12,12)" stroke-width="1" font-size="16" >O</text>
<text x="345.715909" y="229.583026" fill="rgb(255,12,12)"  stroke="rgb(255,12,12)" stroke-width="1" font-size="16" >O</text>
<text x="22.000000" y="48.000000" fill="rgb(30,239,30)"  stroke="rgb(30,239,30)" stroke-width="1" font-size="16" >Cl</text>
<text x="348.118887" y="190.241655" fill="rgb(102,102,102)"  stroke="rgb(102,102,102)" stroke-width="1" font-size="16" >CH</text>
<text x="372.118887" y="193.921655" fill="rgb(102,102,102)"  stroke="rgb(102,102,102)" stroke-width="1" font-size="13" >3</text>
<text font-size="18.000000" fill ="black" font-family="sans-serif"
x="10.000000" y="20.000000" ></text>
<title> - OBDepict</title>
</svg>
