<?xml version="1.0"?>
<svg xmlns="http://www.w3.org/2000/svg"
xmlns:xlink="http://www.w3.org/1999/xlink" xmlns:cml="http://www.xml-cml.org/schema" width="457.926" height="462.774" x="0" y="0" font-family="sans-serif" stroke="rgb(0,0,0)" stroke-width="1"  stroke-linecap="round">
<rect x="0%" y="0%" width="100%" height="100%" stroke-width="0" fill="rgb(255,255,255)"  />
<line x1="144.3" y1="140.5" x2="167.9" y2="154.0" stroke="rgb(0,0,0)"  stroke-width="1.0"/>
<line x1="210.1" y1="260.6" x2="210.1" y2="220.6" stroke="rgb(0,0,0)"  stroke-width="1.0"/>
<line x1="216.1" y1="260.6" x2="216.1" y2="220.6" stroke="rgb(0,0,0)"  stroke-width="1.0"/>
<line x1="383.6" y1="402.5" x2="349.6" y2="381.9" stroke="rgb(0,0,0)"  stroke-width="1.0"/>
<line x1="216.7" y1="113.5" x2="216.7" y2="140.5" stroke="rgb(0,0,0)"  stroke-width="1.0"/>
<line x1="210.7" y1="113.5" x2="210.7" y2="140.5" stroke="rgb(0,0,0)"  stroke-width="1.0"/>
<line x1="406.7" y1="416.2" x2="383.6" y2="402.5" stroke="rgb(0,0,0)"  stroke-width="1.0"/>
<line x1="404.6" y1="419.8" x2="381.4" y2="406.2" stroke="rgb(0,0,0)"  stroke-width="1.0"/>
<line x1="408.9" y1="412.6" x2="385.7" y2="398.9" stroke="rgb(0,0,0)"  stroke-width="1.0"/>
<line x1="153.8" y1="211.2" x2="177.5" y2="197.9" stroke="rgb(0,0,0)"  stroke-width="1.0"/>
<line x1="156.7" y1="216.4" x2="180.4" y2="203.2" stroke="rgb(0,0,0)"  stroke-width="1.0"/>
<line x1="269.9" y1="216.9" x2="246.6" y2="203.3" stroke="rgb(0,0,0)"  stroke-width="1.0"/>
<line x1="272.9" y1="211.7" x2="249.6" y2="198.2" stroke="rgb(0,0,0)"  stroke-width="1.0"/>
<line x1="247.5" y1="280.8" x2="213.1" y2="260.6" stroke="rgb(0,0,0)"  stroke-width="1.0"/>
<line x1="349.6" y1="381.9" x2="350.0" y2="355.1" stroke="rgb(0,0,0)"  stroke-width="1.0"/>
<line x1="339.1" y1="335.3" x2="316.0" y2="321.3" stroke="rgb(0,0,0)"  stroke-width="1.0"/>
<line x1="109.4" y1="53.0" x2="109.4" y2="80.0" stroke="rgb(0,0,0)"  stroke-width="1.0"/>
<line x1="51.3" y1="154.0" x2="74.8" y2="140.5" stroke="rgb(0,0,0)"  stroke-width="1.0"/>
<line x1="179.1" y1="173.5" x2="178.9" y2="200.5" stroke="rgb(0,0,0)"  stroke-width="1.0"/>
<line x1="178.9" y1="200.5" x2="213.1" y2="220.6" stroke="rgb(0,0,0)"  stroke-width="1.0"/>
<line x1="213.1" y1="220.6" x2="248.1" y2="200.8" stroke="rgb(0,0,0)"  stroke-width="1.0"/>
<line x1="248.1" y1="200.8" x2="248.2" y2="173.7" stroke="rgb(0,0,0)"  stroke-width="1.0"/>
<line x1="237.1" y1="154.2" x2="213.7" y2="140.5" stroke="rgb(0,0,0)"  stroke-width="1.0"/>
<line x1="213.7" y1="140.5" x2="190.4" y2="154.0" stroke="rgb(0,0,0)"  stroke-width="1.0"/>
<line x1="144.3" y1="140.5" x2="144.3" y2="100.1" stroke="rgb(0,0,0)"  stroke-width="1.0"/>
<line x1="137.1" y1="134.5" x2="137.1" y2="106.1" stroke="rgb(0,0,0)"  stroke-width="1.0"/>
<line x1="144.3" y1="100.1" x2="109.4" y2="80.0" stroke="rgb(0,0,0)"  stroke-width="1.0"/>
<line x1="109.4" y1="80.0" x2="74.8" y2="100.1" stroke="rgb(0,0,0)"  stroke-width="1.0"/>
<line x1="107.8" y1="89.3" x2="83.6" y2="103.3" stroke="rgb(0,0,0)"  stroke-width="1.0"/>
<line x1="74.8" y1="100.1" x2="74.8" y2="140.5" stroke="rgb(0,0,0)"  stroke-width="1.0"/>
<line x1="74.8" y1="140.5" x2="109.4" y2="160.5" stroke="rgb(0,0,0)"  stroke-width="1.0"/>
<line x1="83.6" y1="137.3" x2="107.8" y2="151.3" stroke="rgb(0,0,0)"  stroke-width="1.0"/>
<line x1="109.4" y1="160.5" x2="144.3" y2="140.5" stroke="rgb(0,0,0)"  stroke-width="1.0"/>
<line x1="247.5" y1="280.8" x2="247.1" y2="320.3" stroke="rgb(0,0,0)"  stroke-width="1.0"/>
<line x1="247.1" y1="320.3" x2="281.6" y2="340.9" stroke="rgb(0,0,0)"  stroke-width="1.0"/>
<line x1="255.9" y1="317.1" x2="280.2" y2="331.6" stroke="rgb(0,0,0)"  stroke-width="1.0"/>
<line x1="281.6" y1="340.9" x2="316.0" y2="321.3" stroke="rgb(0,0,0)"  stroke-width="1.0"/>
<line x1="316.0" y1="321.3" x2="316.6" y2="281.4" stroke="rgb(0,0,0)"  stroke-width="1.0"/>
<line x1="308.9" y1="315.2" x2="309.3" y2="287.3" stroke="rgb(0,0,0)"  stroke-width="1.0"/>
<line x1="316.6" y1="281.4" x2="282.2" y2="261.2" stroke="rgb(0,0,0)"  stroke-width="1.0"/>
<line x1="282.2" y1="261.2" x2="247.5" y2="280.8" stroke="rgb(0,0,0)"  stroke-width="1.0"/>
<line x1="280.6" y1="270.4" x2="256.2" y2="284.1" stroke="rgb(0,0,0)"  stroke-width="1.0"/>
<text x="173.122195" y="168.510902" fill="rgb(12,12,255)"  stroke="rgb(12,12,255)" stroke-width="1" font-size="16" >N</text>
<text x="242.274066" y="168.714304" fill="rgb(12,12,255)"  stroke="rgb(12,12,255)" stroke-width="1" font-size="16" >NH</text>
<text x="207.695709" y="108.454010" fill="rgb(255,12,12)"  stroke="rgb(255,12,12)" stroke-width="1" font-size="16" >O</text>
<text x="411.925948" y="430.773698" fill="rgb(102,102,102)"  stroke="rgb(102,102,102)" stroke-width="1" font-size="16" >CH</text>
<text x="137.938474" y="228.160990" fill="rgb(255,12,12)"  stroke="rgb(255,12,12)" stroke-width="1" font-size="16" >O</text>
<text x="276.649021" y="228.771196" fill="rgb(255,12,12)"  stroke="rgb(255,12,12)" stroke-width="1" font-size="16" >O</text>
<text x="344.188205" y="350.095707" fill="rgb(255,12,12)"  stroke="rgb(255,12,12)" stroke-width="1" font-size="16" >O</text>
<text x="105.360117" y="48.000000" fill="rgb(102,102,102)"  stroke="rgb(102,102,102)" stroke-width="1" font-size="16" >CH</text>
<text x="129.360117" y="51.680000" fill="rgb(102,102,102)"  stroke="rgb(102,102,102)" stroke-width="1" font-size="13" >3</text>
<text x="14.000000" y="168.510902" fill="rgb(102,102,102)"  stroke="rgb(102,102,102)" stroke-width="1" font-size="16" >H</text>
<text x="26.000000" y="172.190902" fill="rgb(102,102,102)"  stroke="rgb(102,102,102)" stroke-width="1" font-size="13" >3</text>
<text x="32.500000" y="168.510902" fill="rgb(102,102,102)"  stroke="rgb(102,102,102)" stroke-width="1" font-size="16" >C</text>
<text font-size="18.000000" fill ="black" font-family="sans-serif"
x="10.000000" y="20.000000" ></text>
<title> - OBDepict</title>
</svg>
