<?xml version="1.0"?>
<svg xmlns="http://www.w3.org/2000/svg"
xmlns:xlink="http://www.w3.org/1999/xlink" xmlns:cml="http://www.xml-cml.org/schema" width="540.216" height="480.039" x="0" y="0" font-family="sans-serif" stroke="rgb(0,0,0)" stroke-width="1"  stroke-linecap="round">
<rect x="0%" y="0%" width="100%" height="100%" stroke-width="0" fill="rgb(255,255,255)"  />
<line x1="329.5" y1="118.2" x2="329.9" y2="196.8" stroke="rgb(0,0,0)"  stroke-width="1.0"/>
<line x1="196.5" y1="233.3" x2="235.8" y2="233.0" stroke="rgb(0,0,0)"  stroke-width="1.0"/>
<line x1="196.5" y1="239.3" x2="235.9" y2="239.0" stroke="rgb(0,0,0)"  stroke-width="1.0"/>
<line x1="398.0" y1="196.2" x2="363.7" y2="216.3" stroke="rgb(0,0,0)"  stroke-width="1.0"/>
<line x1="177.2" y1="269.9" x2="196.5" y2="236.3" stroke="rgb(0,0,0)"  stroke-width="1.0"/>
<line x1="60.0" y1="406.2" x2="79.2" y2="372.0" stroke="rgb(0,0,0)"  stroke-width="1.0"/>
<line x1="46.6" y1="428.8" x2="60.0" y2="406.2" stroke="rgb(0,0,0)"  stroke-width="1.0"/>
<line x1="43.0" y1="426.7" x2="56.4" y2="404.1" stroke="rgb(0,0,0)"  stroke-width="1.0"/>
<line x1="50.2" y1="431.0" x2="63.6" y2="408.3" stroke="rgb(0,0,0)"  stroke-width="1.0"/>
<line x1="253.5" y1="178.3" x2="261.4" y2="203.4" stroke="rgb(0,0,0)"  stroke-width="1.0"/>
<line x1="247.7" y1="180.1" x2="255.7" y2="205.2" stroke="rgb(0,0,0)"  stroke-width="1.0"/>
<line x1="400.9" y1="170.0" x2="401.0" y2="196.2" stroke="rgb(0,0,0)"  stroke-width="1.0"/>
<line x1="394.9" y1="170.0" x2="395.0" y2="196.2" stroke="rgb(0,0,0)"  stroke-width="1.0"/>
<line x1="190.8" y1="360.2" x2="177.5" y2="337.5" stroke="rgb(0,0,0)"  stroke-width="1.0"/>
<line x1="124.9" y1="360.8" x2="138.0" y2="338.2" stroke="rgb(0,0,0)"  stroke-width="1.0"/>
<line x1="398.0" y1="275.7" x2="363.7" y2="255.5" stroke="rgb(0,0,0)"  stroke-width="1.0"/>
<line x1="421.1" y1="209.4" x2="398.0" y2="196.2" stroke="rgb(0,0,0)"  stroke-width="1.0"/>
<line x1="92.2" y1="304.2" x2="118.3" y2="304.0" stroke="rgb(0,0,0)"  stroke-width="1.0"/>
<line x1="386.3" y1="111.3" x2="363.5" y2="98.2" stroke="rgb(0,0,0)"  stroke-width="1.0"/>
<line x1="79.2" y1="372.0" x2="105.3" y2="372.0" stroke="rgb(0,0,0)"  stroke-width="1.0"/>
<line x1="466.2" y1="196.2" x2="443.6" y2="209.3" stroke="rgb(0,0,0)"  stroke-width="1.0"/>
<line x1="66.0" y1="281.6" x2="72.7" y2="293.1" stroke="rgb(0,0,0)"  stroke-width="1.0"/>
<line x1="420.1" y1="104.7" x2="408.8" y2="111.3" stroke="rgb(0,0,0)"  stroke-width="1.0"/>
<line x1="397.9" y1="315.0" x2="398.0" y2="275.7" stroke="rgb(0,0,0)"  stroke-width="1.0"/>
<line x1="488.9" y1="209.2" x2="466.2" y2="196.2" stroke="rgb(0,0,0)"  stroke-width="1.0"/>
<line x1="420.4" y1="328.0" x2="397.9" y2="315.0" stroke="rgb(0,0,0)"  stroke-width="1.0"/>
<line x1="235.9" y1="236.0" x2="251.0" y2="257.3" stroke="rgb(0,0,0)"  stroke-width="1.0"/>
<line x1="270.9" y1="263.8" x2="296.0" y2="255.5" stroke="rgb(0,0,0)"  stroke-width="1.0"/>
<line x1="296.0" y1="255.5" x2="296.0" y2="229.3" stroke="rgb(0,0,0)"  stroke-width="1.0"/>
<line x1="283.6" y1="212.4" x2="258.5" y2="204.3" stroke="rgb(0,0,0)"  stroke-width="1.0"/>
<line x1="258.5" y1="204.3" x2="235.9" y2="236.0" stroke="rgb(0,0,0)"  stroke-width="1.0"/>
<line x1="296.0" y1="255.5" x2="318.7" y2="268.7" stroke="rgb(0,0,0)"  stroke-width="1.0"/>
<line x1="304.8" y1="252.3" x2="320.5" y2="261.4" stroke="rgb(0,0,0)"  stroke-width="1.0"/>
<line x1="341.1" y1="268.7" x2="363.7" y2="255.5" stroke="rgb(0,0,0)"  stroke-width="1.0"/>
<line x1="363.7" y1="255.5" x2="363.7" y2="216.3" stroke="rgb(0,0,0)"  stroke-width="1.0"/>
<line x1="356.5" y1="249.5" x2="356.5" y2="222.3" stroke="rgb(0,0,0)"  stroke-width="1.0"/>
<line x1="363.7" y1="216.3" x2="329.9" y2="196.8" stroke="rgb(0,0,0)"  stroke-width="1.0"/>
<line x1="329.9" y1="196.8" x2="307.3" y2="209.9" stroke="rgb(0,0,0)"  stroke-width="1.0"/>
<line x1="177.5" y1="337.5" x2="138.0" y2="338.2" stroke="rgb(0,0,0)"  stroke-width="1.0"/>
<line x1="138.0" y1="338.2" x2="118.3" y2="304.0" stroke="rgb(0,0,0)"  stroke-width="1.0"/>
<line x1="141.3" y1="329.4" x2="127.6" y2="305.6" stroke="rgb(0,0,0)"  stroke-width="1.0"/>
<line x1="118.3" y1="304.0" x2="138.0" y2="270.2" stroke="rgb(0,0,0)"  stroke-width="1.0"/>
<line x1="138.0" y1="270.2" x2="177.2" y2="269.9" stroke="rgb(0,0,0)"  stroke-width="1.0"/>
<line x1="144.1" y1="277.3" x2="171.2" y2="277.1" stroke="rgb(0,0,0)"  stroke-width="1.0"/>
<line x1="177.2" y1="269.9" x2="196.9" y2="303.7" stroke="rgb(0,0,0)"  stroke-width="1.0"/>
<line x1="196.9" y1="303.7" x2="177.5" y2="337.5" stroke="rgb(0,0,0)"  stroke-width="1.0"/>
<line x1="187.6" y1="305.3" x2="174.2" y2="328.7" stroke="rgb(0,0,0)"  stroke-width="1.0"/>
<line x1="329.5" y1="118.2" x2="295.4" y2="98.8" stroke="rgb(0,0,0)"  stroke-width="1.0"/>
<line x1="295.4" y1="98.8" x2="295.4" y2="60.2" stroke="rgb(0,0,0)"  stroke-width="1.0"/>
<line x1="295.4" y1="60.2" x2="329.2" y2="40.0" stroke="rgb(0,0,0)"  stroke-width="1.0"/>
<line x1="329.2" y1="40.0" x2="363.0" y2="59.2" stroke="rgb(0,0,0)"  stroke-width="1.0"/>
<line x1="330.9" y1="49.2" x2="354.3" y2="62.5" stroke="rgb(0,0,0)"  stroke-width="1.0"/>
<line x1="363.0" y1="59.2" x2="363.5" y2="98.2" stroke="rgb(0,0,0)"  stroke-width="1.0"/>
<line x1="363.5" y1="98.2" x2="329.5" y2="118.2" stroke="rgb(0,0,0)"  stroke-width="1.0"/>
<line x1="354.7" y1="95.0" x2="331.1" y2="108.9" stroke="rgb(0,0,0)"  stroke-width="1.0"/>
<line x1="295.4" y1="60.2" x2="261.5" y2="40.7" stroke="rgb(0,0,0)"  stroke-width="1.0"/>
<line x1="286.6" y1="63.4" x2="263.1" y2="49.9" stroke="rgb(0,0,0)"  stroke-width="1.0"/>
<line x1="261.5" y1="40.7" x2="228.0" y2="60.3" stroke="rgb(0,0,0)"  stroke-width="1.0"/>
<line x1="228.0" y1="60.3" x2="228.2" y2="99.3" stroke="rgb(0,0,0)"  stroke-width="1.0"/>
<line x1="235.2" y1="66.3" x2="235.4" y2="93.3" stroke="rgb(0,0,0)"  stroke-width="1.0"/>
<line x1="228.2" y1="99.3" x2="262.0" y2="118.3" stroke="rgb(0,0,0)"  stroke-width="1.0"/>
<line x1="262.0" y1="118.3" x2="295.4" y2="98.8" stroke="rgb(0,0,0)"  stroke-width="1.0"/>
<line x1="263.6" y1="109.1" x2="286.5" y2="95.7" stroke="rgb(0,0,0)"  stroke-width="1.0"/>
<text x="290.028137" y="224.349932" fill="rgb(12,12,255)"  stroke="rgb(12,12,255)" stroke-width="1" font-size="16" >N</text>
<text x="323.867990" y="283.188637" fill="rgb(12,12,255)"  stroke="rgb(12,12,255)" stroke-width="1" font-size="16" >N</text>
<text x="252.522736" y="275.852792" fill="rgb(178,178,0)"  stroke="rgb(178,178,0)" stroke-width="1" font-size="16" >S</text>
<text x="22.000000" y="448.038622" fill="rgb(102,102,102)"  stroke="rgb(102,102,102)" stroke-width="1" font-size="16" >HC</text>
<text x="240.690420" y="174.846031" fill="rgb(255,12,12)"  stroke="rgb(255,12,12)" stroke-width="1" font-size="16" >O</text>
<text x="391.875315" y="165.012674" fill="rgb(255,12,12)"  stroke="rgb(255,12,12)" stroke-width="1" font-size="16" >O</text>
<text x="191.352703" y="379.366560" fill="rgb(30,239,30)"  stroke="rgb(30,239,30)" stroke-width="1" font-size="16" >Cl</text>
<text x="112.343983" y="380.031297" fill="rgb(255,12,12)"  stroke="rgb(255,12,12)" stroke-width="1" font-size="16" >O</text>
<text x="426.379905" y="223.846631" fill="rgb(255,12,12)"  stroke="rgb(255,12,12)" stroke-width="1" font-size="16" >O</text>
<text x="73.171992" y="312.356340" fill="rgb(255,12,12)"  stroke="rgb(255,12,12)" stroke-width="1" font-size="16" >O</text>
<text x="391.538199" y="125.840682" fill="rgb(255,12,12)"  stroke="rgb(255,12,12)" stroke-width="1" font-size="16" >O</text>
<text x="33.505278" y="278.355051" fill="rgb(102,102,102)"  stroke="rgb(102,102,102)" stroke-width="1" font-size="16" >H</text>
<text x="45.505278" y="282.035051" fill="rgb(102,102,102)"  stroke="rgb(102,102,102)" stroke-width="1" font-size="13" >3</text>
<text x="52.005278" y="278.355051" fill="rgb(102,102,102)"  stroke="rgb(102,102,102)" stroke-width="1" font-size="16" >C</text>
<text x="427.378051" y="106.173969" fill="rgb(102,102,102)"  stroke="rgb(102,102,102)" stroke-width="1" font-size="16" >CH</text>
<text x="451.378051" y="109.853969" fill="rgb(102,102,102)"  stroke="rgb(102,102,102)" stroke-width="1" font-size="13" >3</text>
<text x="496.216298" y="223.685195" fill="rgb(102,102,102)"  stroke="rgb(102,102,102)" stroke-width="1" font-size="16" >CH</text>
<text x="520.216298" y="227.365195" fill="rgb(102,102,102)"  stroke="rgb(102,102,102)" stroke-width="1" font-size="13" >3</text>
<text x="427.710420" y="342.530644" fill="rgb(102,102,102)"  stroke="rgb(102,102,102)" stroke-width="1" font-size="16" >CH</text>
<text x="451.710420" y="346.210644" fill="rgb(102,102,102)"  stroke="rgb(102,102,102)" stroke-width="1" font-size="13" >3</text>
<text font-size="18.000000" fill ="black" font-family="sans-serif"
x="10.000000" y="20.000000" ></text>
<title> - OBDepict</title>
</svg>
