<?xml version="1.0"?>
<svg xmlns="http://www.w3.org/2000/svg"
xmlns:xlink="http://www.w3.org/1999/xlink" xmlns:cml="http://www.xml-cml.org/schema" width="385.269" height="359.78" x="0" y="0" font-family="sans-serif" stroke="rgb(0,0,0)" stroke-width="1"  stroke-linecap="round">
<rect x="0%" y="0%" width="100%" height="100%" stroke-width="0" fill="rgb(255,255,255)"  />
<line x1="185.6" y1="122.8" x2="145.2" y2="159.6" stroke="rgb(0,0,0)"  stroke-width="1.0"/>
<line x1="255.1" y1="99.9" x2="231.3" y2="130.9" stroke="rgb(0,0,0)"  stroke-width="1.0"/>
<line x1="231.3" y1="130.9" x2="185.6" y2="122.8" stroke="rgb(0,0,0)"  stroke-width="1.0"/>
<line x1="133.3" y1="290.1" x2="158.3" y2="260.3" stroke="rgb(0,0,0)"  stroke-width="1.0"/>
<line x1="116.2" y1="309.9" x2="133.3" y2="290.1" stroke="rgb(0,0,0)"  stroke-width="1.0"/>
<line x1="113.1" y1="307.2" x2="130.1" y2="287.4" stroke="rgb(0,0,0)"  stroke-width="1.0"/>
<line x1="119.4" y1="312.7" x2="136.4" y2="292.9" stroke="rgb(0,0,0)"  stroke-width="1.0"/>
<line x1="192.0" y1="194.8" x2="167.2" y2="192.7" stroke="rgb(0,0,0)"  stroke-width="1.0"/>
<line x1="192.5" y1="188.9" x2="167.7" y2="186.7" stroke="rgb(0,0,0)"  stroke-width="1.0"/>
<line x1="158.3" y1="260.3" x2="149.5" y2="235.3" stroke="rgb(0,0,0)"  stroke-width="1.0"/>
<line x1="132.0" y1="129.7" x2="145.2" y2="159.6" stroke="rgb(0,0,0)"  stroke-width="1.0"/>
<line x1="236.1" y1="148.3" x2="228.6" y2="132.1" stroke="rgb(0,0,0)"  stroke-width="1.0"/>
<line x1="241.6" y1="145.7" x2="234.0" y2="129.6" stroke="rgb(0,0,0)"  stroke-width="1.0"/>
<line x1="332.8" y1="56.7" x2="307.4" y2="64.2" stroke="rgb(0,0,0)"  stroke-width="1.0"/>
<line x1="167.5" y1="189.7" x2="152.5" y2="212.2" stroke="rgb(0,0,0)"  stroke-width="1.0"/>
<line x1="132.8" y1="219.1" x2="108.0" y2="211.3" stroke="rgb(0,0,0)"  stroke-width="1.0"/>
<line x1="108.0" y1="211.3" x2="108.0" y2="171.8" stroke="rgb(0,0,0)"  stroke-width="1.0"/>
<line x1="115.2" y1="205.3" x2="115.2" y2="177.8" stroke="rgb(0,0,0)"  stroke-width="1.0"/>
<line x1="108.0" y1="171.8" x2="145.2" y2="159.6" stroke="rgb(0,0,0)"  stroke-width="1.0"/>
<line x1="145.2" y1="159.6" x2="167.5" y2="189.7" stroke="rgb(0,0,0)"  stroke-width="1.0"/>
<line x1="255.1" y1="99.9" x2="281.3" y2="100.8" stroke="rgb(0,0,0)"  stroke-width="1.0"/>
<line x1="298.6" y1="89.0" x2="307.4" y2="64.2" stroke="rgb(0,0,0)"  stroke-width="1.0"/>
<line x1="307.4" y1="64.2" x2="276.6" y2="40.0" stroke="rgb(0,0,0)"  stroke-width="1.0"/>
<line x1="298.2" y1="66.1" x2="276.9" y2="49.4" stroke="rgb(0,0,0)"  stroke-width="1.0"/>
<line x1="276.6" y1="40.0" x2="244.0" y2="62.2" stroke="rgb(0,0,0)"  stroke-width="1.0"/>
<line x1="244.0" y1="62.2" x2="255.1" y2="99.9" stroke="rgb(0,0,0)"  stroke-width="1.0"/>
<line x1="252.6" y1="65.9" x2="260.3" y2="92.1" stroke="rgb(0,0,0)"  stroke-width="1.0"/>
<line x1="108.0" y1="211.3" x2="73.8" y2="230.9" stroke="rgb(0,0,0)"  stroke-width="1.0"/>
<line x1="73.8" y1="230.9" x2="40.0" y2="211.3" stroke="rgb(0,0,0)"  stroke-width="1.0"/>
<line x1="72.2" y1="221.6" x2="48.8" y2="208.1" stroke="rgb(0,0,0)"  stroke-width="1.0"/>
<line x1="40.0" y1="211.3" x2="40.0" y2="171.8" stroke="rgb(0,0,0)"  stroke-width="1.0"/>
<line x1="40.0" y1="171.8" x2="73.8" y2="151.8" stroke="rgb(0,0,0)"  stroke-width="1.0"/>
<line x1="48.8" y1="175.0" x2="72.3" y2="161.0" stroke="rgb(0,0,0)"  stroke-width="1.0"/>
<line x1="73.8" y1="151.8" x2="108.0" y2="171.8" stroke="rgb(0,0,0)"  stroke-width="1.0"/>
<text x="139.243301" y="231.034935" fill="rgb(12,12,255)"  stroke="rgb(12,12,255)" stroke-width="1" font-size="16" >N</text>
<text x="288.281610" y="109.229175" fill="rgb(255,12,12)"  stroke="rgb(255,12,12)" stroke-width="1" font-size="16" >O</text>
<text x="89.759842" y="327.780270" fill="rgb(102,102,102)"  stroke="rgb(102,102,102)" stroke-width="1" font-size="16" >HC</text>
<text x="199.162532" y="200.963378" fill="rgb(255,12,12)"  stroke="rgb(255,12,12)" stroke-width="1" font-size="16" >O</text>
<text x="108.718308" y="125.791633" fill="rgb(255,12,12)"  stroke="rgb(255,12,12)" stroke-width="1" font-size="16" >HO</text>
<text x="238.384644" y="166.752399" fill="rgb(255,12,12)"  stroke="rgb(255,12,12)" stroke-width="1" font-size="16" >O</text>
<text x="341.269403" y="61.075625" fill="rgb(102,102,102)"  stroke="rgb(102,102,102)" stroke-width="1" font-size="16" >CH</text>
<text x="365.269403" y="64.755625" fill="rgb(102,102,102)"  stroke="rgb(102,102,102)" stroke-width="1" font-size="13" >3</text>
<text font-size="18.000000" fill ="black" font-family="sans-serif"
x="10.000000" y="20.000000" ></text>
<title> - OBDepict</title>
</svg>
