<?xml version="1.0"?>
<svg xmlns="http://www.w3.org/2000/svg"
xmlns:xlink="http://www.w3.org/1999/xlink" xmlns:cml="http://www.xml-cml.org/schema" width="501.887" height="436.611" x="0" y="0" font-family="sans-serif" stroke="rgb(0,0,0)" stroke-width="1"  stroke-linecap="round">
<rect x="0%" y="0%" width="100%" height="100%" stroke-width="0" fill="rgb(255,255,255)"  />
<line x1="178.9" y1="169.8" x2="218.2" y2="176.1" stroke="rgb(0,0,0)"  stroke-width="1.0"/>
<line x1="177.9" y1="175.7" x2="217.2" y2="182.0" stroke="rgb(0,0,0)"  stroke-width="1.0"/>
<line x1="317.4" y1="151.2" x2="293.4" y2="163.3" stroke="rgb(0,0,0)"  stroke-width="1.0"/>
<line x1="152.8" y1="203.8" x2="178.4" y2="172.8" stroke="rgb(0,0,0)"  stroke-width="1.0"/>
<line x1="292.3" y1="229.9" x2="273.4" y2="210.7" stroke="rgb(0,0,0)"  stroke-width="1.0"/>
<line x1="296.5" y1="225.7" x2="277.7" y2="206.5" stroke="rgb(0,0,0)"  stroke-width="1.0"/>
<line x1="65.8" y1="365.8" x2="90.8" y2="334.8" stroke="rgb(0,0,0)"  stroke-width="1.0"/>
<line x1="48.3" y1="386.6" x2="65.8" y2="365.8" stroke="rgb(0,0,0)"  stroke-width="1.0"/>
<line x1="45.1" y1="383.9" x2="62.6" y2="363.1" stroke="rgb(0,0,0)"  stroke-width="1.0"/>
<line x1="51.6" y1="389.3" x2="69.0" y2="368.5" stroke="rgb(0,0,0)"  stroke-width="1.0"/>
<line x1="245.0" y1="123.7" x2="249.1" y2="150.2" stroke="rgb(0,0,0)"  stroke-width="1.0"/>
<line x1="239.1" y1="124.6" x2="243.1" y2="151.1" stroke="rgb(0,0,0)"  stroke-width="1.0"/>
<line x1="61.3" y1="224.0" x2="87.7" y2="228.4" stroke="rgb(0,0,0)"  stroke-width="1.0"/>
<line x1="84.9" y1="287.4" x2="102.1" y2="266.5" stroke="rgb(0,0,0)"  stroke-width="1.0"/>
<line x1="151.2" y1="297.4" x2="141.5" y2="272.1" stroke="rgb(0,0,0)"  stroke-width="1.0"/>
<line x1="90.8" y1="334.8" x2="81.3" y2="309.6" stroke="rgb(0,0,0)"  stroke-width="1.0"/>
<line x1="412.5" y1="103.6" x2="388.5" y2="115.4" stroke="rgb(0,0,0)"  stroke-width="1.0"/>
<line x1="426.2" y1="57.5" x2="424.9" y2="84.8" stroke="rgb(0,0,0)"  stroke-width="1.0"/>
<line x1="182.5" y1="314.1" x2="168.7" y2="311.7" stroke="rgb(0,0,0)"  stroke-width="1.0"/>
<line x1="450.2" y1="45.7" x2="426.2" y2="57.5" stroke="rgb(0,0,0)"  stroke-width="1.0"/>
<line x1="279.7" y1="182.0" x2="275.5" y2="208.6" stroke="rgb(0,0,0)"  stroke-width="1.0"/>
<line x1="275.5" y1="208.6" x2="248.7" y2="212.7" stroke="rgb(0,0,0)"  stroke-width="1.0"/>
<line x1="229.9" y1="203.1" x2="217.7" y2="179.0" stroke="rgb(0,0,0)"  stroke-width="1.0"/>
<line x1="217.7" y1="179.0" x2="246.1" y2="150.6" stroke="rgb(0,0,0)"  stroke-width="1.0"/>
<line x1="246.1" y1="150.6" x2="270.2" y2="163.1" stroke="rgb(0,0,0)"  stroke-width="1.0"/>
<line x1="87.7" y1="228.4" x2="102.1" y2="266.5" stroke="rgb(0,0,0)"  stroke-width="1.0"/>
<line x1="96.6" y1="231.5" x2="106.7" y2="258.3" stroke="rgb(0,0,0)"  stroke-width="1.0"/>
<line x1="102.1" y1="266.5" x2="141.5" y2="272.1" stroke="rgb(0,0,0)"  stroke-width="1.0"/>
<line x1="141.5" y1="272.1" x2="166.9" y2="241.3" stroke="rgb(0,0,0)"  stroke-width="1.0"/>
<line x1="139.8" y1="262.9" x2="157.6" y2="241.3" stroke="rgb(0,0,0)"  stroke-width="1.0"/>
<line x1="166.9" y1="241.3" x2="152.8" y2="203.8" stroke="rgb(0,0,0)"  stroke-width="1.0"/>
<line x1="152.8" y1="203.8" x2="113.1" y2="197.2" stroke="rgb(0,0,0)"  stroke-width="1.0"/>
<line x1="145.7" y1="209.9" x2="117.9" y2="205.2" stroke="rgb(0,0,0)"  stroke-width="1.0"/>
<line x1="113.1" y1="197.2" x2="87.7" y2="228.4" stroke="rgb(0,0,0)"  stroke-width="1.0"/>
<line x1="317.4" y1="151.2" x2="319.2" y2="111.3" stroke="rgb(0,0,0)"  stroke-width="1.0"/>
<line x1="319.2" y1="111.3" x2="354.9" y2="93.6" stroke="rgb(0,0,0)"  stroke-width="1.0"/>
<line x1="327.8" y1="115.1" x2="352.7" y2="102.7" stroke="rgb(0,0,0)"  stroke-width="1.0"/>
<line x1="354.9" y1="93.6" x2="388.5" y2="115.4" stroke="rgb(0,0,0)"  stroke-width="1.0"/>
<line x1="388.5" y1="115.4" x2="386.1" y2="155.2" stroke="rgb(0,0,0)"  stroke-width="1.0"/>
<line x1="381.0" y1="120.9" x2="379.3" y2="148.8" stroke="rgb(0,0,0)"  stroke-width="1.0"/>
<line x1="386.1" y1="155.2" x2="350.7" y2="173.0" stroke="rgb(0,0,0)"  stroke-width="1.0"/>
<line x1="350.7" y1="173.0" x2="317.4" y2="151.2" stroke="rgb(0,0,0)"  stroke-width="1.0"/>
<line x1="349.6" y1="163.7" x2="326.4" y2="148.5" stroke="rgb(0,0,0)"  stroke-width="1.0"/>
<text x="275.767626" y="177.143287" fill="rgb(12,12,255)"  stroke="rgb(12,12,255)" stroke-width="1" font-size="16" >N</text>
<text x="229.834296" y="222.679387" fill="rgb(12,12,255)"  stroke="rgb(12,12,255)" stroke-width="1" font-size="16" >N</text>
<text x="229.834296" y="238.679387" fill="rgb(12,12,255)"  stroke="rgb(12,12,255)" stroke-width="1" font-size="16" >H</text>
<text x="297.528069" y="245.040518" fill="rgb(178,178,0)"  stroke="rgb(178,178,0)" stroke-width="1" font-size="16" >S</text>
<text x="22.000000" y="404.610640" fill="rgb(102,102,102)"  stroke="rgb(102,102,102)" stroke-width="1" font-size="16" >HC</text>
<text x="234.063340" y="119.322128" fill="rgb(255,12,12)"  stroke="rgb(255,12,12)" stroke-width="1" font-size="16" >O</text>
<text x="30.462933" y="229.931253" fill="rgb(165,40,40)"  stroke="rgb(165,40,40)" stroke-width="1" font-size="16" >Br</text>
<text x="70.666249" y="305.487269" fill="rgb(255,12,12)"  stroke="rgb(255,12,12)" stroke-width="1" font-size="16" >O</text>
<text x="149.845776" y="317.573713" fill="rgb(255,12,12)"  stroke="rgb(255,12,12)" stroke-width="1" font-size="16" >O</text>
<text x="418.208423" y="105.821159" fill="rgb(255,12,12)"  stroke="rgb(255,12,12)" stroke-width="1" font-size="16" >O</text>
<text x="191.336233" y="324.220046" fill="rgb(102,102,102)"  stroke="rgb(102,102,102)" stroke-width="1" font-size="16" >CH</text>
<text x="215.336233" y="327.900046" fill="rgb(102,102,102)"  stroke="rgb(102,102,102)" stroke-width="1" font-size="13" >3</text>
<text x="457.887124" y="48.000000" fill="rgb(102,102,102)"  stroke="rgb(102,102,102)" stroke-width="1" font-size="16" >CH</text>
<text x="481.887124" y="51.680000" fill="rgb(102,102,102)"  stroke="rgb(102,102,102)" stroke-width="1" font-size="13" >3</text>
<text font-size="18.000000" fill ="black" font-family="sans-serif"
x="10.000000" y="20.000000" ></text>
<title> - OBDepict</title>
</svg>
