<?xml version="1.0"?>
<svg xmlns="http://www.w3.org/2000/svg"
xmlns:xlink="http://www.w3.org/1999/xlink" xmlns:cml="http://www.xml-cml.org/schema" width="494.551" height="309.091" x="0" y="0" font-family="sans-serif" stroke="rgb(0,0,0)" stroke-width="1"  stroke-linecap="round">
<rect x="0%" y="0%" width="100%" height="100%" stroke-width="0" fill="rgb(255,255,255)"  />
<line x1="263.6" y1="135.6" x2="237.6" y2="144.1" stroke="rgb(0,0,0)"  stroke-width="1.0"/>
<line x1="261.7" y1="129.9" x2="235.7" y2="138.4" stroke="rgb(0,0,0)"  stroke-width="1.0"/>
<line x1="412.9" y1="85.3" x2="386.4" y2="77.3" stroke="rgb(0,0,0)"  stroke-width="1.0"/>
<line x1="283.5" y1="89.7" x2="277.8" y2="116.0" stroke="rgb(0,0,0)"  stroke-width="1.0"/>
<line x1="321.2" y1="77.3" x2="283.5" y2="89.7" stroke="rgb(0,0,0)"  stroke-width="1.0"/>
<line x1="287.2" y1="207.8" x2="247.6" y2="211.9" stroke="rgb(0,0,0)"  stroke-width="1.0"/>
<line x1="298.5" y1="183.1" x2="287.2" y2="207.8" stroke="rgb(0,0,0)"  stroke-width="1.0"/>
<line x1="302.4" y1="184.9" x2="291.0" y2="209.6" stroke="rgb(0,0,0)"  stroke-width="1.0"/>
<line x1="294.7" y1="181.3" x2="283.3" y2="206.1" stroke="rgb(0,0,0)"  stroke-width="1.0"/>
<line x1="431.1" y1="116.0" x2="428.1" y2="101.8" stroke="rgb(0,0,0)"  stroke-width="1.0"/>
<line x1="447.0" y1="73.1" x2="436.9" y2="82.5" stroke="rgb(0,0,0)"  stroke-width="1.0"/>
<line x1="443.0" y1="68.7" x2="432.8" y2="78.1" stroke="rgb(0,0,0)"  stroke-width="1.0"/>
<line x1="265.3" y1="69.2" x2="285.5" y2="87.5" stroke="rgb(0,0,0)"  stroke-width="1.0"/>
<line x1="261.3" y1="73.7" x2="281.5" y2="91.9" stroke="rgb(0,0,0)"  stroke-width="1.0"/>
<line x1="247.6" y1="211.9" x2="231.9" y2="190.1" stroke="rgb(0,0,0)"  stroke-width="1.0"/>
<line x1="100.4" y1="221.2" x2="118.5" y2="200.9" stroke="rgb(0,0,0)"  stroke-width="1.0"/>
<line x1="79.5" y1="157.0" x2="105.7" y2="162.8" stroke="rgb(0,0,0)"  stroke-width="1.0"/>
<line x1="100.0" y1="256.7" x2="95.7" y2="243.3" stroke="rgb(0,0,0)"  stroke-width="1.0"/>
<line x1="48.7" y1="174.4" x2="58.1" y2="163.9" stroke="rgb(0,0,0)"  stroke-width="1.0"/>
<line x1="236.6" y1="141.3" x2="214.7" y2="125.4" stroke="rgb(0,0,0)"  stroke-width="1.0"/>
<line x1="193.7" y1="125.4" x2="171.9" y2="141.5" stroke="rgb(0,0,0)"  stroke-width="1.0"/>
<line x1="171.9" y1="141.5" x2="184.1" y2="179.6" stroke="rgb(0,0,0)"  stroke-width="1.0"/>
<line x1="180.6" y1="145.0" x2="189.1" y2="171.7" stroke="rgb(0,0,0)"  stroke-width="1.0"/>
<line x1="184.1" y1="179.6" x2="211.2" y2="179.6" stroke="rgb(0,0,0)"  stroke-width="1.0"/>
<line x1="228.2" y1="167.2" x2="236.6" y2="141.3" stroke="rgb(0,0,0)"  stroke-width="1.0"/>
<line x1="364.6" y1="93.1" x2="386.4" y2="77.3" stroke="rgb(0,0,0)"  stroke-width="1.0"/>
<line x1="386.4" y1="77.3" x2="373.0" y2="40.0" stroke="rgb(0,0,0)"  stroke-width="1.0"/>
<line x1="377.6" y1="74.1" x2="368.2" y2="48.1" stroke="rgb(0,0,0)"  stroke-width="1.0"/>
<line x1="373.0" y1="40.0" x2="333.4" y2="40.6" stroke="rgb(0,0,0)"  stroke-width="1.0"/>
<line x1="333.4" y1="40.6" x2="321.2" y2="77.3" stroke="rgb(0,0,0)"  stroke-width="1.0"/>
<line x1="338.4" y1="48.6" x2="330.0" y2="73.9" stroke="rgb(0,0,0)"  stroke-width="1.0"/>
<line x1="321.2" y1="77.3" x2="343.5" y2="93.2" stroke="rgb(0,0,0)"  stroke-width="1.0"/>
<line x1="157.5" y1="209.0" x2="118.5" y2="200.9" stroke="rgb(0,0,0)"  stroke-width="1.0"/>
<line x1="153.1" y1="200.8" x2="125.9" y2="195.1" stroke="rgb(0,0,0)"  stroke-width="1.0"/>
<line x1="118.5" y1="200.9" x2="105.7" y2="162.8" stroke="rgb(0,0,0)"  stroke-width="1.0"/>
<line x1="105.7" y1="162.8" x2="132.5" y2="132.9" stroke="rgb(0,0,0)"  stroke-width="1.0"/>
<line x1="115.1" y1="163.1" x2="133.9" y2="142.2" stroke="rgb(0,0,0)"  stroke-width="1.0"/>
<line x1="132.5" y1="132.9" x2="171.9" y2="141.5" stroke="rgb(0,0,0)"  stroke-width="1.0"/>
<line x1="184.1" y1="179.6" x2="157.5" y2="209.0" stroke="rgb(0,0,0)"  stroke-width="1.0"/>
<text x="268.974006" y="136.676642" fill="rgb(12,12,255)"  stroke="rgb(12,12,255)" stroke-width="1" font-size="16" >N</text>
<text x="218.247080" y="187.606611" fill="rgb(12,12,255)"  stroke="rgb(12,12,255)" stroke-width="1" font-size="16" >N</text>
<text x="198.155485" y="125.721985" fill="rgb(178,178,0)"  stroke="rgb(178,178,0)" stroke-width="1" font-size="16" >S</text>
<text x="430.132231" y="85.075416" fill="rgb(12,12,255)"  stroke="rgb(12,12,255)" stroke-width="1" font-size="16" >+</text>
<text x="419.332231" y="97.107416" fill="rgb(12,12,255)"  stroke="rgb(12,12,255)" stroke-width="1" font-size="16" >N</text>
<text x="348.112458" y="108.676036" fill="rgb(255,12,12)"  stroke="rgb(255,12,12)" stroke-width="1" font-size="16" >O</text>
<text x="297.984993" y="179.286680" fill="rgb(102,102,102)"  stroke="rgb(102,102,102)" stroke-width="1" font-size="16" >CH</text>
<text x="438.655205" y="114.564642" fill="rgb(255,12,12)"  stroke="rgb(255,12,12)" stroke-width="1" font-size="16" >_</text>
<text x="427.855205" y="136.676642" fill="rgb(255,12,12)"  stroke="rgb(255,12,12)" stroke-width="1" font-size="16" >O</text>
<text x="448.551095" y="70.122026" fill="rgb(255,12,12)"  stroke="rgb(255,12,12)" stroke-width="1" font-size="16" >O</text>
<text x="247.664153" y="70.731155" fill="rgb(255,12,12)"  stroke="rgb(255,12,12)" stroke-width="1" font-size="16" >O</text>
<text x="85.737307" y="238.942667" fill="rgb(255,12,12)"  stroke="rgb(255,12,12)" stroke-width="1" font-size="16" >O</text>
<text x="60.782347" y="162.240731" fill="rgb(255,12,12)"  stroke="rgb(255,12,12)" stroke-width="1" font-size="16" >O</text>
<text x="99.915057" y="277.090591" fill="rgb(102,102,102)"  stroke="rgb(102,102,102)" stroke-width="1" font-size="16" >CH</text>
<text x="123.915057" y="280.770591" fill="rgb(102,102,102)"  stroke="rgb(102,102,102)" stroke-width="1" font-size="13" >3</text>
<text x="14.000000" y="192.073559" fill="rgb(102,102,102)"  stroke="rgb(102,102,102)" stroke-width="1" font-size="16" >H</text>
<text x="26.000000" y="195.753559" fill="rgb(102,102,102)"  stroke="rgb(102,102,102)" stroke-width="1" font-size="13" >3</text>
<text x="32.500000" y="192.073559" fill="rgb(102,102,102)"  stroke="rgb(102,102,102)" stroke-width="1" font-size="16" >C</text>
<text font-size="18.000000" fill ="black" font-family="sans-serif"
x="10.000000" y="20.000000" ></text>
<title> - OBDepict</title>
</svg>
