<?xml version="1.0"?>
<svg xmlns="http://www.w3.org/2000/svg"
xmlns:xlink="http://www.w3.org/1999/xlink" xmlns:cml="http://www.xml-cml.org/schema" width="422.108" height="462.345" x="0" y="0" font-family="sans-serif" stroke="rgb(0,0,0)" stroke-width="1"  stroke-linecap="round">
<rect x="0%" y="0%" width="100%" height="100%" stroke-width="0" fill="rgb(255,255,255)"  />
<line x1="103.9" y1="218.7" x2="91.6" y2="256.7" stroke="rgb(0,0,0)"  stroke-width="1.0"/>
<line x1="198.7" y1="375.8" x2="225.2" y2="370.2" stroke="rgb(0,0,0)"  stroke-width="1.0"/>
<line x1="105.9" y1="324.7" x2="132.8" y2="354.4" stroke="rgb(0,0,0)"  stroke-width="1.0"/>
<line x1="342.9" y1="380.7" x2="303.9" y2="389.0" stroke="rgb(0,0,0)"  stroke-width="1.0"/>
<line x1="369.4" y1="375.1" x2="342.9" y2="380.7" stroke="rgb(0,0,0)"  stroke-width="1.0"/>
<line x1="370.3" y1="379.2" x2="343.7" y2="384.8" stroke="rgb(0,0,0)"  stroke-width="1.0"/>
<line x1="368.5" y1="371.0" x2="342.0" y2="376.6" stroke="rgb(0,0,0)"  stroke-width="1.0"/>
<line x1="235.1" y1="340.4" x2="238.1" y2="354.2" stroke="rgb(0,0,0)"  stroke-width="1.0"/>
<line x1="229.3" y1="341.7" x2="232.3" y2="355.5" stroke="rgb(0,0,0)"  stroke-width="1.0"/>
<line x1="240.6" y1="394.7" x2="237.7" y2="380.9" stroke="rgb(0,0,0)"  stroke-width="1.0"/>
<line x1="246.5" y1="393.4" x2="243.6" y2="379.7" stroke="rgb(0,0,0)"  stroke-width="1.0"/>
<line x1="264.3" y1="362.0" x2="250.7" y2="364.9" stroke="rgb(0,0,0)"  stroke-width="1.0"/>
<line x1="114.2" y1="299.0" x2="105.9" y2="324.7" stroke="rgb(0,0,0)"  stroke-width="1.0"/>
<line x1="91.6" y1="115.8" x2="103.9" y2="154.0" stroke="rgb(0,0,0)"  stroke-width="1.0"/>
<line x1="79.0" y1="327.3" x2="105.3" y2="321.8" stroke="rgb(0,0,0)"  stroke-width="1.0"/>
<line x1="80.2" y1="333.2" x2="106.5" y2="327.6" stroke="rgb(0,0,0)"  stroke-width="1.0"/>
<line x1="91.6" y1="256.7" x2="109.6" y2="277.0" stroke="rgb(0,0,0)"  stroke-width="1.0"/>
<line x1="303.9" y1="389.0" x2="285.7" y2="368.9" stroke="rgb(0,0,0)"  stroke-width="1.0"/>
<line x1="129.4" y1="210.5" x2="103.9" y2="218.7" stroke="rgb(0,0,0)"  stroke-width="1.0"/>
<line x1="125.2" y1="204.2" x2="107.4" y2="210.0" stroke="rgb(0,0,0)"  stroke-width="1.0"/>
<line x1="103.9" y1="218.7" x2="88.1" y2="196.9" stroke="rgb(0,0,0)"  stroke-width="1.0"/>
<line x1="88.1" y1="175.9" x2="103.9" y2="154.0" stroke="rgb(0,0,0)"  stroke-width="1.0"/>
<line x1="103.9" y1="154.0" x2="141.9" y2="166.4" stroke="rgb(0,0,0)"  stroke-width="1.0"/>
<line x1="107.4" y1="162.7" x2="134.0" y2="171.4" stroke="rgb(0,0,0)"  stroke-width="1.0"/>
<line x1="141.9" y1="166.4" x2="141.9" y2="193.4" stroke="rgb(0,0,0)"  stroke-width="1.0"/>
<line x1="198.7" y1="375.8" x2="186.4" y2="413.9" stroke="rgb(0,0,0)"  stroke-width="1.0"/>
<line x1="190.0" y1="379.3" x2="181.4" y2="405.9" stroke="rgb(0,0,0)"  stroke-width="1.0"/>
<line x1="186.4" y1="413.9" x2="147.2" y2="422.3" stroke="rgb(0,0,0)"  stroke-width="1.0"/>
<line x1="147.2" y1="422.3" x2="120.5" y2="392.4" stroke="rgb(0,0,0)"  stroke-width="1.0"/>
<line x1="148.5" y1="413.1" x2="129.8" y2="392.1" stroke="rgb(0,0,0)"  stroke-width="1.0"/>
<line x1="120.5" y1="392.4" x2="132.8" y2="354.4" stroke="rgb(0,0,0)"  stroke-width="1.0"/>
<line x1="132.8" y1="354.4" x2="171.8" y2="346.1" stroke="rgb(0,0,0)"  stroke-width="1.0"/>
<line x1="140.2" y1="360.2" x2="167.5" y2="354.4" stroke="rgb(0,0,0)"  stroke-width="1.0"/>
<line x1="171.8" y1="346.1" x2="198.7" y2="375.8" stroke="rgb(0,0,0)"  stroke-width="1.0"/>
<line x1="91.6" y1="115.8" x2="52.3" y2="107.5" stroke="rgb(0,0,0)"  stroke-width="1.0"/>
<line x1="87.2" y1="107.5" x2="59.7" y2="101.7" stroke="rgb(0,0,0)"  stroke-width="1.0"/>
<line x1="52.3" y1="107.5" x2="40.0" y2="69.7" stroke="rgb(0,0,0)"  stroke-width="1.0"/>
<line x1="40.0" y1="69.7" x2="66.9" y2="40.0" stroke="rgb(0,0,0)"  stroke-width="1.0"/>
<line x1="49.4" y1="70.1" x2="68.2" y2="49.3" stroke="rgb(0,0,0)"  stroke-width="1.0"/>
<line x1="66.9" y1="40.0" x2="105.9" y2="48.3" stroke="rgb(0,0,0)"  stroke-width="1.0"/>
<line x1="105.9" y1="48.3" x2="118.2" y2="86.1" stroke="rgb(0,0,0)"  stroke-width="1.0"/>
<line x1="100.9" y1="56.2" x2="109.5" y2="82.6" stroke="rgb(0,0,0)"  stroke-width="1.0"/>
<line x1="118.2" y1="86.1" x2="91.6" y2="115.8" stroke="rgb(0,0,0)"  stroke-width="1.0"/>
<text x="231.941120" y="375.553673" fill="rgb(178,178,0)"  stroke="rgb(178,178,0)" stroke-width="1" font-size="16" >S</text>
<text x="135.904188" y="214.400386" fill="rgb(12,12,255)"  stroke="rgb(12,12,255)" stroke-width="1" font-size="16" >N</text>
<text x="74.436093" y="194.390673" fill="rgb(255,12,12)"  stroke="rgb(255,12,12)" stroke-width="1" font-size="16" >O</text>
<text x="376.107954" y="380.403485" fill="rgb(102,102,102)"  stroke="rgb(102,102,102)" stroke-width="1" font-size="16" >CH</text>
<text x="223.447893" y="336.328822" fill="rgb(255,12,12)"  stroke="rgb(255,12,12)" stroke-width="1" font-size="16" >O</text>
<text x="240.235704" y="414.778525" fill="rgb(255,12,12)"  stroke="rgb(255,12,12)" stroke-width="1" font-size="16" >O</text>
<text x="270.967328" y="367.263935" fill="rgb(12,12,255)"  stroke="rgb(12,12,255)" stroke-width="1" font-size="16" >N</text>
<text x="270.967328" y="351.263935" fill="rgb(12,12,255)"  stroke="rgb(12,12,255)" stroke-width="1" font-size="16" >H</text>
<text x="112.246214" y="294.676642" fill="rgb(255,12,12)"  stroke="rgb(255,12,12)" stroke-width="1" font-size="16" >O</text>
<text x="60.884721" y="340.975145" fill="rgb(255,12,12)"  stroke="rgb(255,12,12)" stroke-width="1" font-size="16" >O</text>
<text font-size="18.000000" fill ="black" font-family="sans-serif"
x="10.000000" y="20.000000" ></text>
<title> - OBDepict</title>
</svg>
