<?xml version="1.0"?>
<svg xmlns="http://www.w3.org/2000/svg"
xmlns:xlink="http://www.w3.org/1999/xlink" xmlns:cml="http://www.xml-cml.org/schema" width="353.622" height="459.768" x="0" y="0" font-family="sans-serif" stroke="rgb(0,0,0)" stroke-width="1"  stroke-linecap="round">
<rect x="0%" y="0%" width="100%" height="100%" stroke-width="0" fill="rgb(255,255,255)"  />
<line x1="265.8" y1="303.9" x2="245.8" y2="286.0" stroke="rgb(0,0,0)"  stroke-width="1.0"/>
<line x1="208.1" y1="298.1" x2="199.8" y2="337.2" stroke="rgb(0,0,0)"  stroke-width="1.0"/>
<line x1="200.7" y1="340.1" x2="162.6" y2="352.4" stroke="rgb(0,0,0)"  stroke-width="1.0"/>
<line x1="198.9" y1="334.4" x2="160.8" y2="346.7" stroke="rgb(0,0,0)"  stroke-width="1.0"/>
<line x1="50.7" y1="298.1" x2="59.2" y2="337.2" stroke="rgb(0,0,0)"  stroke-width="1.0"/>
<line x1="43.5" y1="271.9" x2="50.7" y2="298.1" stroke="rgb(0,0,0)"  stroke-width="1.0"/>
<line x1="47.5" y1="270.8" x2="54.7" y2="297.0" stroke="rgb(0,0,0)"  stroke-width="1.0"/>
<line x1="39.4" y1="273.0" x2="46.6" y2="299.2" stroke="rgb(0,0,0)"  stroke-width="1.0"/>
<line x1="270.0" y1="339.0" x2="272.9" y2="325.4" stroke="rgb(0,0,0)"  stroke-width="1.0"/>
<line x1="91.1" y1="407.5" x2="107.0" y2="385.9" stroke="rgb(0,0,0)"  stroke-width="1.0"/>
<line x1="95.9" y1="411.1" x2="111.8" y2="389.5" stroke="rgb(0,0,0)"  stroke-width="1.0"/>
<line x1="302.1" y1="307.6" x2="288.8" y2="311.7" stroke="rgb(0,0,0)"  stroke-width="1.0"/>
<line x1="300.3" y1="301.9" x2="287.0" y2="305.9" stroke="rgb(0,0,0)"  stroke-width="1.0"/>
<line x1="132.1" y1="299.0" x2="132.4" y2="325.9" stroke="rgb(0,0,0)"  stroke-width="1.0"/>
<line x1="126.1" y1="299.0" x2="126.4" y2="326.0" stroke="rgb(0,0,0)"  stroke-width="1.0"/>
<line x1="230.8" y1="194.0" x2="225.0" y2="220.6" stroke="rgb(0,0,0)"  stroke-width="1.0"/>
<line x1="59.2" y1="337.2" x2="84.5" y2="345.5" stroke="rgb(0,0,0)"  stroke-width="1.0"/>
<line x1="267.6" y1="160.5" x2="244.6" y2="174.5" stroke="rgb(0,0,0)"  stroke-width="1.0"/>
<line x1="167.4" y1="214.3" x2="186.9" y2="232.5" stroke="rgb(0,0,0)"  stroke-width="1.0"/>
<line x1="266.4" y1="120.1" x2="267.6" y2="160.5" stroke="rgb(0,0,0)"  stroke-width="1.0"/>
<line x1="131.7" y1="214.0" x2="145.5" y2="209.5" stroke="rgb(0,0,0)"  stroke-width="1.0"/>
<line x1="107.4" y1="341.9" x2="129.4" y2="325.9" stroke="rgb(0,0,0)"  stroke-width="1.0"/>
<line x1="129.4" y1="325.9" x2="161.7" y2="349.5" stroke="rgb(0,0,0)"  stroke-width="1.0"/>
<line x1="161.7" y1="349.5" x2="153.4" y2="375.3" stroke="rgb(0,0,0)"  stroke-width="1.0"/>
<line x1="136.4" y1="387.7" x2="109.4" y2="387.7" stroke="rgb(0,0,0)"  stroke-width="1.0"/>
<line x1="109.4" y1="387.7" x2="101.0" y2="361.9" stroke="rgb(0,0,0)"  stroke-width="1.0"/>
<line x1="245.8" y1="286.0" x2="254.3" y2="247.2" stroke="rgb(0,0,0)"  stroke-width="1.0"/>
<line x1="254.3" y1="247.2" x2="225.0" y2="220.6" stroke="rgb(0,0,0)"  stroke-width="1.0"/>
<line x1="245.0" y1="248.5" x2="224.6" y2="230.0" stroke="rgb(0,0,0)"  stroke-width="1.0"/>
<line x1="225.0" y1="220.6" x2="186.9" y2="232.5" stroke="rgb(0,0,0)"  stroke-width="1.0"/>
<line x1="186.9" y1="232.5" x2="178.6" y2="271.5" stroke="rgb(0,0,0)"  stroke-width="1.0"/>
<line x1="192.7" y1="239.9" x2="186.9" y2="267.1" stroke="rgb(0,0,0)"  stroke-width="1.0"/>
<line x1="178.6" y1="271.5" x2="208.1" y2="298.1" stroke="rgb(0,0,0)"  stroke-width="1.0"/>
<line x1="208.1" y1="298.1" x2="245.8" y2="286.0" stroke="rgb(0,0,0)"  stroke-width="1.0"/>
<line x1="211.6" y1="289.4" x2="237.9" y2="281.0" stroke="rgb(0,0,0)"  stroke-width="1.0"/>
<line x1="266.4" y1="120.1" x2="300.3" y2="99.1" stroke="rgb(0,0,0)"  stroke-width="1.0"/>
<line x1="267.7" y1="110.8" x2="291.4" y2="96.2" stroke="rgb(0,0,0)"  stroke-width="1.0"/>
<line x1="300.3" y1="99.1" x2="299.1" y2="59.8" stroke="rgb(0,0,0)"  stroke-width="1.0"/>
<line x1="299.1" y1="59.8" x2="263.4" y2="40.0" stroke="rgb(0,0,0)"  stroke-width="1.0"/>
<line x1="290.4" y1="63.2" x2="265.1" y2="49.2" stroke="rgb(0,0,0)"  stroke-width="1.0"/>
<line x1="263.4" y1="40.0" x2="229.5" y2="61.2" stroke="rgb(0,0,0)"  stroke-width="1.0"/>
<line x1="229.5" y1="61.2" x2="230.7" y2="102.2" stroke="rgb(0,0,0)"  stroke-width="1.0"/>
<line x1="236.9" y1="67.0" x2="237.7" y2="95.9" stroke="rgb(0,0,0)"  stroke-width="1.0"/>
<line x1="230.7" y1="102.2" x2="266.4" y2="120.1" stroke="rgb(0,0,0)"  stroke-width="1.0"/>
<text x="90.903116" y="357.543646" fill="rgb(12,12,255)"  stroke="rgb(12,12,255)" stroke-width="1" font-size="16" >N</text>
<text x="143.367566" y="395.684191" fill="rgb(178,178,0)"  stroke="rgb(178,178,0)" stroke-width="1" font-size="16" >S</text>
<text x="280.286734" y="308.587373" fill="rgb(12,12,255)"  stroke="rgb(12,12,255)" stroke-width="1" font-size="16" >+</text>
<text x="269.486734" y="320.619373" fill="rgb(12,12,255)"  stroke="rgb(12,12,255)" stroke-width="1" font-size="16" >N</text>
<text x="22.000000" y="267.345690" fill="rgb(102,102,102)"  stroke="rgb(102,102,102)" stroke-width="1" font-size="16" >HC</text>
<text x="272.213789" y="337.650979" fill="rgb(255,12,12)"  stroke="rgb(255,12,12)" stroke-width="1" font-size="16" >_</text>
<text x="261.413789" y="359.762979" fill="rgb(255,12,12)"  stroke="rgb(255,12,12)" stroke-width="1" font-size="16" >O</text>
<text x="79.801605" y="427.767605" fill="rgb(255,12,12)"  stroke="rgb(255,12,12)" stroke-width="1" font-size="16" >O</text>
<text x="307.622434" y="308.912149" fill="rgb(255,12,12)"  stroke="rgb(255,12,12)" stroke-width="1" font-size="16" >O</text>
<text x="122.986530" y="293.982531" fill="rgb(255,12,12)"  stroke="rgb(255,12,12)" stroke-width="1" font-size="16" >O</text>
<text x="227.513236" y="189.252306" fill="rgb(255,12,12)"  stroke="rgb(255,12,12)" stroke-width="1" font-size="16" >O</text>
<text x="151.842704" y="213.466294" fill="rgb(255,12,12)"  stroke="rgb(255,12,12)" stroke-width="1" font-size="16" >O</text>
<text x="93.299965" y="225.977905" fill="rgb(102,102,102)"  stroke="rgb(102,102,102)" stroke-width="1" font-size="16" >H</text>
<text x="105.299965" y="229.657905" fill="rgb(102,102,102)"  stroke="rgb(102,102,102)" stroke-width="1" font-size="13" >3</text>
<text x="111.799965" y="225.977905" fill="rgb(102,102,102)"  stroke="rgb(102,102,102)" stroke-width="1" font-size="16" >C</text>
<text font-size="18.000000" fill ="black" font-family="sans-serif"
x="10.000000" y="20.000000" ></text>
<title> - OBDepict</title>
</svg>
