<?xml version="1.0"?>
<svg xmlns="http://www.w3.org/2000/svg"
xmlns:xlink="http://www.w3.org/1999/xlink" xmlns:cml="http://www.xml-cml.org/schema" width="388.348" height="447.639" x="0" y="0" font-family="sans-serif" stroke="rgb(0,0,0)" stroke-width="1"  stroke-linecap="round">
<rect x="0%" y="0%" width="100%" height="100%" stroke-width="0" fill="rgb(255,255,255)"  />
<line x1="200.6" y1="328.0" x2="162.5" y2="340.3" stroke="rgb(0,0,0)"  stroke-width="1.0"/>
<line x1="198.8" y1="322.3" x2="160.7" y2="334.6" stroke="rgb(0,0,0)"  stroke-width="1.0"/>
<line x1="208.0" y1="285.8" x2="199.7" y2="325.2" stroke="rgb(0,0,0)"  stroke-width="1.0"/>
<line x1="50.7" y1="286.0" x2="59.2" y2="325.2" stroke="rgb(0,0,0)"  stroke-width="1.0"/>
<line x1="43.5" y1="259.8" x2="50.7" y2="286.0" stroke="rgb(0,0,0)"  stroke-width="1.0"/>
<line x1="47.5" y1="258.7" x2="54.7" y2="284.9" stroke="rgb(0,0,0)"  stroke-width="1.0"/>
<line x1="39.4" y1="261.0" x2="46.6" y2="287.1" stroke="rgb(0,0,0)"  stroke-width="1.0"/>
<line x1="91.1" y1="395.4" x2="107.0" y2="373.8" stroke="rgb(0,0,0)"  stroke-width="1.0"/>
<line x1="95.9" y1="398.9" x2="111.8" y2="377.4" stroke="rgb(0,0,0)"  stroke-width="1.0"/>
<line x1="281.2" y1="117.2" x2="272.3" y2="156.6" stroke="rgb(0,0,0)"  stroke-width="1.0"/>
<line x1="132.1" y1="286.9" x2="132.3" y2="313.8" stroke="rgb(0,0,0)"  stroke-width="1.0"/>
<line x1="126.1" y1="287.0" x2="126.3" y2="313.9" stroke="rgb(0,0,0)"  stroke-width="1.0"/>
<line x1="231.1" y1="180.7" x2="225.1" y2="207.4" stroke="rgb(0,0,0)"  stroke-width="1.0"/>
<line x1="59.2" y1="325.2" x2="84.5" y2="333.4" stroke="rgb(0,0,0)"  stroke-width="1.0"/>
<line x1="272.3" y1="156.6" x2="246.5" y2="164.3" stroke="rgb(0,0,0)"  stroke-width="1.0"/>
<line x1="266.1" y1="291.7" x2="246.1" y2="273.7" stroke="rgb(0,0,0)"  stroke-width="1.0"/>
<line x1="338.8" y1="124.1" x2="318.9" y2="105.7" stroke="rgb(0,0,0)"  stroke-width="1.0"/>
<line x1="167.4" y1="201.6" x2="186.8" y2="219.5" stroke="rgb(0,0,0)"  stroke-width="1.0"/>
<line x1="132.0" y1="201.0" x2="145.4" y2="196.8" stroke="rgb(0,0,0)"  stroke-width="1.0"/>
<line x1="107.4" y1="329.8" x2="129.3" y2="313.9" stroke="rgb(0,0,0)"  stroke-width="1.0"/>
<line x1="129.3" y1="313.9" x2="161.6" y2="337.5" stroke="rgb(0,0,0)"  stroke-width="1.0"/>
<line x1="161.6" y1="337.5" x2="153.3" y2="363.2" stroke="rgb(0,0,0)"  stroke-width="1.0"/>
<line x1="136.3" y1="375.6" x2="109.4" y2="375.6" stroke="rgb(0,0,0)"  stroke-width="1.0"/>
<line x1="109.4" y1="375.6" x2="100.9" y2="349.8" stroke="rgb(0,0,0)"  stroke-width="1.0"/>
<line x1="208.0" y1="285.8" x2="246.1" y2="273.7" stroke="rgb(0,0,0)"  stroke-width="1.0"/>
<line x1="246.1" y1="273.7" x2="254.6" y2="234.4" stroke="rgb(0,0,0)"  stroke-width="1.0"/>
<line x1="240.3" y1="266.3" x2="246.3" y2="238.8" stroke="rgb(0,0,0)"  stroke-width="1.0"/>
<line x1="254.6" y1="234.4" x2="225.1" y2="207.4" stroke="rgb(0,0,0)"  stroke-width="1.0"/>
<line x1="225.1" y1="207.4" x2="186.8" y2="219.5" stroke="rgb(0,0,0)"  stroke-width="1.0"/>
<line x1="221.6" y1="216.1" x2="194.7" y2="224.5" stroke="rgb(0,0,0)"  stroke-width="1.0"/>
<line x1="186.8" y1="219.5" x2="178.3" y2="258.8" stroke="rgb(0,0,0)"  stroke-width="1.0"/>
<line x1="178.3" y1="258.8" x2="208.0" y2="285.8" stroke="rgb(0,0,0)"  stroke-width="1.0"/>
<line x1="187.6" y1="257.5" x2="208.4" y2="276.5" stroke="rgb(0,0,0)"  stroke-width="1.0"/>
<line x1="281.2" y1="117.2" x2="318.9" y2="105.7" stroke="rgb(0,0,0)"  stroke-width="1.0"/>
<line x1="284.8" y1="108.6" x2="311.1" y2="100.6" stroke="rgb(0,0,0)"  stroke-width="1.0"/>
<line x1="318.9" y1="105.7" x2="328.0" y2="67.2" stroke="rgb(0,0,0)"  stroke-width="1.0"/>
<line x1="328.0" y1="67.2" x2="298.3" y2="40.0" stroke="rgb(0,0,0)"  stroke-width="1.0"/>
<line x1="318.7" y1="68.5" x2="297.9" y2="49.4" stroke="rgb(0,0,0)"  stroke-width="1.0"/>
<line x1="298.3" y1="40.0" x2="260.2" y2="51.7" stroke="rgb(0,0,0)"  stroke-width="1.0"/>
<line x1="260.2" y1="51.7" x2="251.1" y2="90.8" stroke="rgb(0,0,0)"  stroke-width="1.0"/>
<line x1="265.9" y1="59.2" x2="259.5" y2="86.6" stroke="rgb(0,0,0)"  stroke-width="1.0"/>
<line x1="251.1" y1="90.8" x2="281.2" y2="117.2" stroke="rgb(0,0,0)"  stroke-width="1.0"/>
<text x="90.868242" y="345.458675" fill="rgb(12,12,255)"  stroke="rgb(12,12,255)" stroke-width="1" font-size="16" >N</text>
<text x="143.304120" y="383.573116" fill="rgb(178,178,0)"  stroke="rgb(178,178,0)" stroke-width="1" font-size="16" >S</text>
<text x="22.000000" y="255.316152" fill="rgb(102,102,102)"  stroke="rgb(102,102,102)" stroke-width="1" font-size="16" >HC</text>
<text x="79.775197" y="415.638571" fill="rgb(255,12,12)"  stroke="rgb(255,12,12)" stroke-width="1" font-size="16" >O</text>
<text x="122.933697" y="281.934606" fill="rgb(255,12,12)"  stroke="rgb(255,12,12)" stroke-width="1" font-size="16" >O</text>
<text x="228.004497" y="176.057921" fill="rgb(255,12,12)"  stroke="rgb(255,12,12)" stroke-width="1" font-size="16" >O</text>
<text x="269.745418" y="308.349161" fill="rgb(165,40,40)"  stroke="rgb(165,40,40)" stroke-width="1" font-size="16" >Br</text>
<text x="342.347822" y="140.967973" fill="rgb(127,178,255)"  stroke="rgb(127,178,255)" stroke-width="1" font-size="16" >F</text>
<text x="151.770760" y="200.865563" fill="rgb(255,12,12)"  stroke="rgb(255,12,12)" stroke-width="1" font-size="16" >O</text>
<text x="93.656318" y="212.963536" fill="rgb(102,102,102)"  stroke="rgb(102,102,102)" stroke-width="1" font-size="16" >H</text>
<text x="105.656318" y="216.643536" fill="rgb(102,102,102)"  stroke="rgb(102,102,102)" stroke-width="1" font-size="13" >3</text>
<text x="112.156318" y="212.963536" fill="rgb(102,102,102)"  stroke="rgb(102,102,102)" stroke-width="1" font-size="16" >C</text>
<text font-size="18.000000" fill ="black" font-family="sans-serif"
x="10.000000" y="20.000000" ></text>
<title> - OBDepict</title>
</svg>
