<?xml version="1.0"?>
<svg xmlns="http://www.w3.org/2000/svg"
xmlns:xlink="http://www.w3.org/1999/xlink" xmlns:cml="http://www.xml-cml.org/schema" width="417.145" height="459.973" x="0" y="0" font-family="sans-serif" stroke="rgb(0,0,0)" stroke-width="1"  stroke-linecap="round">
<rect x="0%" y="0%" width="100%" height="100%" stroke-width="0" fill="rgb(255,255,255)"  />
<line x1="189.8" y1="146.5" x2="202.1" y2="153.5" stroke="rgb(0,0,0)"  stroke-width="1.0"/>
<line x1="247.9" y1="180.0" x2="224.6" y2="166.5" stroke="rgb(0,0,0)"  stroke-width="1.0"/>
<line x1="282.6" y1="280.0" x2="282.6" y2="240.0" stroke="rgb(0,0,0)"  stroke-width="1.0"/>
<line x1="74.7" y1="80.0" x2="98.0" y2="93.5" stroke="rgb(0,0,0)"  stroke-width="1.0"/>
<line x1="305.9" y1="293.5" x2="282.6" y2="280.0" stroke="rgb(0,0,0)"  stroke-width="1.0"/>
<line x1="317.1" y1="380.0" x2="317.1" y2="340.0" stroke="rgb(0,0,0)"  stroke-width="1.0"/>
<line x1="197.2" y1="181.8" x2="204.2" y2="169.7" stroke="rgb(0,0,0)"  stroke-width="1.0"/>
<line x1="202.4" y1="184.8" x2="209.4" y2="172.7" stroke="rgb(0,0,0)"  stroke-width="1.0"/>
<line x1="229.4" y1="138.0" x2="222.4" y2="150.2" stroke="rgb(0,0,0)"  stroke-width="1.0"/>
<line x1="224.2" y1="135.0" x2="217.2" y2="147.2" stroke="rgb(0,0,0)"  stroke-width="1.0"/>
<line x1="317.1" y1="407.0" x2="317.1" y2="380.0" stroke="rgb(0,0,0)"  stroke-width="1.0"/>
<line x1="312.9" y1="407.0" x2="312.9" y2="380.0" stroke="rgb(0,0,0)"  stroke-width="1.0"/>
<line x1="321.3" y1="407.0" x2="321.3" y2="380.0" stroke="rgb(0,0,0)"  stroke-width="1.0"/>
<line x1="317.1" y1="340.0" x2="317.1" y2="313.0" stroke="rgb(0,0,0)"  stroke-width="1.0"/>
<line x1="257.6" y1="290.9" x2="281.1" y2="277.4" stroke="rgb(0,0,0)"  stroke-width="1.0"/>
<line x1="260.6" y1="296.1" x2="284.1" y2="282.6" stroke="rgb(0,0,0)"  stroke-width="1.0"/>
<line x1="49.8" y1="90.9" x2="73.2" y2="77.4" stroke="rgb(0,0,0)"  stroke-width="1.0"/>
<line x1="52.8" y1="96.1" x2="76.2" y2="82.6" stroke="rgb(0,0,0)"  stroke-width="1.0"/>
<line x1="74.7" y1="53.0" x2="74.7" y2="80.0" stroke="rgb(0,0,0)"  stroke-width="1.0"/>
<line x1="277.2" y1="340.0" x2="317.1" y2="340.0" stroke="rgb(0,0,0)"  stroke-width="1.0"/>
<line x1="357.1" y1="340.0" x2="317.1" y2="340.0" stroke="rgb(0,0,0)"  stroke-width="1.0"/>
<line x1="263.6" y1="316.5" x2="277.2" y2="340.0" stroke="rgb(0,0,0)"  stroke-width="1.0"/>
<line x1="370.6" y1="363.3" x2="357.1" y2="340.0" stroke="rgb(0,0,0)"  stroke-width="1.0"/>
<line x1="178.6" y1="127.0" x2="178.6" y2="100.0" stroke="rgb(0,0,0)"  stroke-width="1.0"/>
<line x1="178.6" y1="100.0" x2="144.0" y2="80.0" stroke="rgb(0,0,0)"  stroke-width="1.0"/>
<line x1="144.0" y1="80.0" x2="120.6" y2="93.5" stroke="rgb(0,0,0)"  stroke-width="1.0"/>
<line x1="109.3" y1="113.0" x2="109.3" y2="140.0" stroke="rgb(0,0,0)"  stroke-width="1.0"/>
<line x1="109.3" y1="140.0" x2="144.0" y2="160.0" stroke="rgb(0,0,0)"  stroke-width="1.0"/>
<line x1="144.0" y1="160.0" x2="167.3" y2="146.5" stroke="rgb(0,0,0)"  stroke-width="1.0"/>
<line x1="247.9" y1="180.0" x2="282.6" y2="160.0" stroke="rgb(0,0,0)"  stroke-width="1.0"/>
<line x1="256.7" y1="183.2" x2="281.0" y2="169.2" stroke="rgb(0,0,0)"  stroke-width="1.0"/>
<line x1="282.6" y1="160.0" x2="317.1" y2="180.0" stroke="rgb(0,0,0)"  stroke-width="1.0"/>
<line x1="317.1" y1="180.0" x2="317.1" y2="220.0" stroke="rgb(0,0,0)"  stroke-width="1.0"/>
<line x1="309.9" y1="186.0" x2="309.9" y2="214.0" stroke="rgb(0,0,0)"  stroke-width="1.0"/>
<line x1="317.1" y1="220.0" x2="282.6" y2="240.0" stroke="rgb(0,0,0)"  stroke-width="1.0"/>
<line x1="282.6" y1="240.0" x2="247.9" y2="220.0" stroke="rgb(0,0,0)"  stroke-width="1.0"/>
<line x1="281.0" y1="230.8" x2="256.7" y2="216.7" stroke="rgb(0,0,0)"  stroke-width="1.0"/>
<line x1="247.9" y1="220.0" x2="247.9" y2="180.0" stroke="rgb(0,0,0)"  stroke-width="1.0"/>
<text x="207.321185" y="167.991590" fill="rgb(178,178,0)"  stroke="rgb(178,178,0)" stroke-width="1" font-size="16" >S</text>
<text x="172.574529" y="147.992991" fill="rgb(12,12,255)"  stroke="rgb(12,12,255)" stroke-width="1" font-size="16" >N</text>
<text x="103.284841" y="107.995795" fill="rgb(12,12,255)"  stroke="rgb(12,12,255)" stroke-width="1" font-size="16" >N</text>
<text x="311.149059" y="307.981777" fill="rgb(12,12,255)"  stroke="rgb(12,12,255)" stroke-width="1" font-size="16" >NH</text>
<text x="187.322587" y="202.534623" fill="rgb(255,12,12)"  stroke="rgb(255,12,12)" stroke-width="1" font-size="16" >O</text>
<text x="227.319783" y="133.244934" fill="rgb(255,12,12)"  stroke="rgb(255,12,12)" stroke-width="1" font-size="16" >O</text>
<text x="311.149059" y="427.973367" fill="rgb(102,102,102)"  stroke="rgb(102,102,102)" stroke-width="1" font-size="16" >CH</text>
<text x="241.864218" y="307.981777" fill="rgb(255,12,12)"  stroke="rgb(255,12,12)" stroke-width="1" font-size="16" >O</text>
<text x="34.000000" y="107.995795" fill="rgb(255,12,12)"  stroke="rgb(255,12,12)" stroke-width="1" font-size="16" >O</text>
<text x="70.741807" y="48.000000" fill="rgb(102,102,102)"  stroke="rgb(102,102,102)" stroke-width="1" font-size="16" >CH</text>
<text x="94.741807" y="51.680000" fill="rgb(102,102,102)"  stroke="rgb(102,102,102)" stroke-width="1" font-size="13" >3</text>
<text x="231.153264" y="313.232318" fill="rgb(102,102,102)"  stroke="rgb(102,102,102)" stroke-width="1" font-size="16" >H</text>
<text x="243.153264" y="316.912318" fill="rgb(102,102,102)"  stroke="rgb(102,102,102)" stroke-width="1" font-size="13" >3</text>
<text x="249.653264" y="313.232318" fill="rgb(102,102,102)"  stroke="rgb(102,102,102)" stroke-width="1" font-size="16" >C</text>
<text x="373.144854" y="382.522007" fill="rgb(102,102,102)"  stroke="rgb(102,102,102)" stroke-width="1" font-size="16" >CH</text>
<text x="397.144854" y="386.202007" fill="rgb(102,102,102)"  stroke="rgb(102,102,102)" stroke-width="1" font-size="13" >3</text>
<text font-size="18.000000" fill ="black" font-family="sans-serif"
x="10.000000" y="20.000000" ></text>
<title> - OBDepict</title>
</svg>
