<?xml version="1.0"?>
<svg xmlns="http://www.w3.org/2000/svg"
xmlns:xlink="http://www.w3.org/1999/xlink" xmlns:cml="http://www.xml-cml.org/schema" width="524.443" height="354.435" x="0" y="0" font-family="sans-serif" stroke="rgb(0,0,0)" stroke-width="1"  stroke-linecap="round">
<rect x="0%" y="0%" width="100%" height="100%" stroke-width="0" fill="rgb(255,255,255)"  />
<line x1="203.6" y1="192.9" x2="221.4" y2="173.2" stroke="rgb(0,0,0)"  stroke-width="1.0"/>
<line x1="208.0" y1="196.9" x2="225.9" y2="177.3" stroke="rgb(0,0,0)"  stroke-width="1.0"/>
<line x1="151.9" y1="228.9" x2="125.6" y2="233.7" stroke="rgb(0,0,0)"  stroke-width="1.0"/>
<line x1="150.8" y1="223.0" x2="124.6" y2="227.8" stroke="rgb(0,0,0)"  stroke-width="1.0"/>
<line x1="160.2" y1="180.6" x2="143.6" y2="160.2" stroke="rgb(0,0,0)"  stroke-width="1.0"/>
<line x1="247.8" y1="293.1" x2="316.1" y2="294.1" stroke="rgb(0,0,0)"  stroke-width="1.0"/>
<line x1="107.4" y1="102.9" x2="73.0" y2="84.6" stroke="rgb(0,0,0)"  stroke-width="1.0"/>
<line x1="73.0" y1="84.6" x2="50.9" y2="98.7" stroke="rgb(0,0,0)"  stroke-width="1.0"/>
<line x1="75.2" y1="88.1" x2="53.2" y2="102.3" stroke="rgb(0,0,0)"  stroke-width="1.0"/>
<line x1="70.7" y1="81.0" x2="48.7" y2="95.2" stroke="rgb(0,0,0)"  stroke-width="1.0"/>
<line x1="357.2" y1="198.7" x2="339.5" y2="178.4" stroke="rgb(0,0,0)"  stroke-width="1.0"/>
<line x1="361.8" y1="194.8" x2="344.1" y2="174.5" stroke="rgb(0,0,0)"  stroke-width="1.0"/>
<line x1="414.3" y1="226.1" x2="440.7" y2="232.1" stroke="rgb(0,0,0)"  stroke-width="1.0"/>
<line x1="413.0" y1="231.9" x2="439.3" y2="238.0" stroke="rgb(0,0,0)"  stroke-width="1.0"/>
<line x1="405.8" y1="182.5" x2="421.0" y2="161.7" stroke="rgb(0,0,0)"  stroke-width="1.0"/>
<line x1="452.2" y1="100.9" x2="484.4" y2="79.5" stroke="rgb(0,0,0)"  stroke-width="1.0"/>
<line x1="484.4" y1="79.5" x2="482.7" y2="53.0" stroke="rgb(0,0,0)"  stroke-width="1.0"/>
<line x1="480.3" y1="79.8" x2="478.6" y2="53.2" stroke="rgb(0,0,0)"  stroke-width="1.0"/>
<line x1="488.6" y1="79.2" x2="486.9" y2="52.7" stroke="rgb(0,0,0)"  stroke-width="1.0"/>
<line x1="214.7" y1="233.4" x2="180.2" y2="252.9" stroke="rgb(0,0,0)"  stroke-width="1.0"/>
<line x1="180.2" y1="252.9" x2="151.3" y2="226.0" stroke="rgb(0,0,0)"  stroke-width="1.0"/>
<line x1="151.3" y1="226.0" x2="162.8" y2="202.4" stroke="rgb(0,0,0)"  stroke-width="1.0"/>
<line x1="181.4" y1="192.1" x2="205.8" y2="194.9" stroke="rgb(0,0,0)"  stroke-width="1.0"/>
<line x1="205.8" y1="194.9" x2="214.7" y2="233.4" stroke="rgb(0,0,0)"  stroke-width="1.0"/>
<line x1="413.6" y1="229.0" x2="403.3" y2="205.0" stroke="rgb(0,0,0)"  stroke-width="1.0"/>
<line x1="385.2" y1="194.3" x2="359.5" y2="196.7" stroke="rgb(0,0,0)"  stroke-width="1.0"/>
<line x1="359.5" y1="196.7" x2="351.3" y2="234.9" stroke="rgb(0,0,0)"  stroke-width="1.0"/>
<line x1="351.3" y1="234.9" x2="385.1" y2="255.1" stroke="rgb(0,0,0)"  stroke-width="1.0"/>
<line x1="385.1" y1="255.1" x2="413.6" y2="229.0" stroke="rgb(0,0,0)"  stroke-width="1.0"/>
<line x1="214.7" y1="233.4" x2="247.8" y2="253.4" stroke="rgb(0,0,0)"  stroke-width="1.0"/>
<line x1="216.1" y1="242.6" x2="239.0" y2="256.5" stroke="rgb(0,0,0)"  stroke-width="1.0"/>
<line x1="247.8" y1="253.4" x2="247.8" y2="293.1" stroke="rgb(0,0,0)"  stroke-width="1.0"/>
<line x1="247.8" y1="293.1" x2="213.2" y2="312.6" stroke="rgb(0,0,0)"  stroke-width="1.0"/>
<line x1="239.1" y1="289.7" x2="214.9" y2="303.4" stroke="rgb(0,0,0)"  stroke-width="1.0"/>
<line x1="213.2" y1="312.6" x2="179.6" y2="291.9" stroke="rgb(0,0,0)"  stroke-width="1.0"/>
<line x1="179.6" y1="291.9" x2="180.2" y2="252.9" stroke="rgb(0,0,0)"  stroke-width="1.0"/>
<line x1="186.9" y1="286.0" x2="187.3" y2="259.0" stroke="rgb(0,0,0)"  stroke-width="1.0"/>
<line x1="143.6" y1="160.2" x2="177.2" y2="140.4" stroke="rgb(0,0,0)"  stroke-width="1.0"/>
<line x1="145.1" y1="151.0" x2="168.4" y2="137.2" stroke="rgb(0,0,0)"  stroke-width="1.0"/>
<line x1="177.2" y1="140.4" x2="176.5" y2="100.9" stroke="rgb(0,0,0)"  stroke-width="1.0"/>
<line x1="176.5" y1="100.9" x2="140.1" y2="81.4" stroke="rgb(0,0,0)"  stroke-width="1.0"/>
<line x1="167.9" y1="104.4" x2="141.9" y2="90.5" stroke="rgb(0,0,0)"  stroke-width="1.0"/>
<line x1="140.1" y1="81.4" x2="107.4" y2="102.9" stroke="rgb(0,0,0)"  stroke-width="1.0"/>
<line x1="107.4" y1="102.9" x2="108.9" y2="141.9" stroke="rgb(0,0,0)"  stroke-width="1.0"/>
<line x1="114.9" y1="108.6" x2="115.9" y2="135.6" stroke="rgb(0,0,0)"  stroke-width="1.0"/>
<line x1="108.9" y1="141.9" x2="143.6" y2="160.2" stroke="rgb(0,0,0)"  stroke-width="1.0"/>
<line x1="316.1" y1="294.1" x2="350.9" y2="314.4" stroke="rgb(0,0,0)"  stroke-width="1.0"/>
<line x1="324.9" y1="290.9" x2="349.4" y2="305.2" stroke="rgb(0,0,0)"  stroke-width="1.0"/>
<line x1="350.9" y1="314.4" x2="384.4" y2="295.9" stroke="rgb(0,0,0)"  stroke-width="1.0"/>
<line x1="384.4" y1="295.9" x2="385.1" y2="255.1" stroke="rgb(0,0,0)"  stroke-width="1.0"/>
<line x1="377.3" y1="289.8" x2="377.8" y2="261.0" stroke="rgb(0,0,0)"  stroke-width="1.0"/>
<line x1="351.3" y1="234.9" x2="316.8" y2="254.4" stroke="rgb(0,0,0)"  stroke-width="1.0"/>
<line x1="349.6" y1="244.1" x2="325.6" y2="257.7" stroke="rgb(0,0,0)"  stroke-width="1.0"/>
<line x1="316.8" y1="254.4" x2="316.1" y2="294.1" stroke="rgb(0,0,0)"  stroke-width="1.0"/>
<line x1="421.0" y1="161.7" x2="386.1" y2="143.8" stroke="rgb(0,0,0)"  stroke-width="1.0"/>
<line x1="386.1" y1="143.8" x2="384.4" y2="104.7" stroke="rgb(0,0,0)"  stroke-width="1.0"/>
<line x1="393.0" y1="137.5" x2="391.8" y2="110.4" stroke="rgb(0,0,0)"  stroke-width="1.0"/>
<line x1="384.4" y1="104.7" x2="417.7" y2="83.7" stroke="rgb(0,0,0)"  stroke-width="1.0"/>
<line x1="417.7" y1="83.7" x2="452.2" y2="100.9" stroke="rgb(0,0,0)"  stroke-width="1.0"/>
<line x1="419.8" y1="92.8" x2="443.6" y2="104.6" stroke="rgb(0,0,0)"  stroke-width="1.0"/>
<line x1="452.2" y1="100.9" x2="453.7" y2="140.4" stroke="rgb(0,0,0)"  stroke-width="1.0"/>
<line x1="453.7" y1="140.4" x2="421.0" y2="161.7" stroke="rgb(0,0,0)"  stroke-width="1.0"/>
<line x1="444.7" y1="137.7" x2="422.1" y2="152.4" stroke="rgb(0,0,0)"  stroke-width="1.0"/>
<text x="162.474478" y="198.670165" fill="rgb(12,12,255)"  stroke="rgb(12,12,255)" stroke-width="1" font-size="16" >N</text>
<text x="226.370575" y="173.616521" fill="rgb(255,12,12)"  stroke="rgb(255,12,12)" stroke-width="1" font-size="16" >O</text>
<text x="106.312519" y="241.043316" fill="rgb(255,12,12)"  stroke="rgb(255,12,12)" stroke-width="1" font-size="16" >O</text>
<text x="22.000000" y="113.752099" fill="rgb(102,102,102)"  stroke="rgb(102,102,102)" stroke-width="1" font-size="16" >HC</text>
<text x="392.175031" y="201.022374" fill="rgb(12,12,255)"  stroke="rgb(12,12,255)" stroke-width="1" font-size="16" >N</text>
<text x="327.267437" y="174.623247" fill="rgb(255,12,12)"  stroke="rgb(255,12,12)" stroke-width="1" font-size="16" >O</text>
<text x="446.662295" y="245.919497" fill="rgb(255,12,12)"  stroke="rgb(255,12,12)" stroke-width="1" font-size="16" >O</text>
<text x="463.919379" y="48.000000" fill="rgb(102,102,102)"  stroke="rgb(102,102,102)" stroke-width="1" font-size="16" >HC</text>
<text font-size="18.000000" fill ="black" font-family="sans-serif"
x="10.000000" y="20.000000" ></text>
<title> - OBDepict</title>
</svg>
