<?xml version="1.0"?>
<svg xmlns="http://www.w3.org/2000/svg"
xmlns:xlink="http://www.w3.org/1999/xlink" xmlns:cml="http://www.xml-cml.org/schema" width="412.095" height="539.585" x="0" y="0" font-family="sans-serif" stroke="rgb(0,0,0)" stroke-width="1"  stroke-linecap="round">
<rect x="0%" y="0%" width="100%" height="100%" stroke-width="0" fill="rgb(255,255,255)"  />
<line x1="200.4" y1="420.1" x2="162.4" y2="432.4" stroke="rgb(0,0,0)"  stroke-width="1.0"/>
<line x1="198.6" y1="414.4" x2="160.5" y2="426.6" stroke="rgb(0,0,0)"  stroke-width="1.0"/>
<line x1="50.7" y1="378.1" x2="59.1" y2="417.2" stroke="rgb(0,0,0)"  stroke-width="1.0"/>
<line x1="43.5" y1="352.0" x2="50.7" y2="378.1" stroke="rgb(0,0,0)"  stroke-width="1.0"/>
<line x1="47.5" y1="350.9" x2="54.7" y2="377.0" stroke="rgb(0,0,0)"  stroke-width="1.0"/>
<line x1="39.4" y1="353.1" x2="46.6" y2="379.3" stroke="rgb(0,0,0)"  stroke-width="1.0"/>
<line x1="279.3" y1="209.0" x2="270.8" y2="248.2" stroke="rgb(0,0,0)"  stroke-width="1.0"/>
<line x1="91.0" y1="487.3" x2="106.9" y2="465.8" stroke="rgb(0,0,0)"  stroke-width="1.0"/>
<line x1="95.8" y1="490.9" x2="111.7" y2="469.3" stroke="rgb(0,0,0)"  stroke-width="1.0"/>
<line x1="131.9" y1="379.0" x2="132.2" y2="405.9" stroke="rgb(0,0,0)"  stroke-width="1.0"/>
<line x1="125.9" y1="379.1" x2="126.2" y2="406.0" stroke="rgb(0,0,0)"  stroke-width="1.0"/>
<line x1="207.8" y1="378.1" x2="199.5" y2="417.2" stroke="rgb(0,0,0)"  stroke-width="1.0"/>
<line x1="304.7" y1="200.7" x2="279.3" y2="209.0" stroke="rgb(0,0,0)"  stroke-width="1.0"/>
<line x1="59.1" y1="417.2" x2="84.4" y2="425.5" stroke="rgb(0,0,0)"  stroke-width="1.0"/>
<line x1="230.1" y1="273.1" x2="224.7" y2="299.6" stroke="rgb(0,0,0)"  stroke-width="1.0"/>
<line x1="261.2" y1="189.0" x2="281.2" y2="206.7" stroke="rgb(0,0,0)"  stroke-width="1.0"/>
<line x1="257.2" y1="193.4" x2="277.3" y2="211.2" stroke="rgb(0,0,0)"  stroke-width="1.0"/>
<line x1="270.8" y1="248.2" x2="245.1" y2="256.4" stroke="rgb(0,0,0)"  stroke-width="1.0"/>
<line x1="325.2" y1="157.8" x2="319.8" y2="184.0" stroke="rgb(0,0,0)"  stroke-width="1.0"/>
<line x1="166.9" y1="294.4" x2="186.6" y2="312.1" stroke="rgb(0,0,0)"  stroke-width="1.0"/>
<line x1="347.7" y1="52.7" x2="342.1" y2="79.3" stroke="rgb(0,0,0)"  stroke-width="1.0"/>
<line x1="131.5" y1="293.9" x2="144.8" y2="289.6" stroke="rgb(0,0,0)"  stroke-width="1.0"/>
<line x1="107.3" y1="421.9" x2="129.2" y2="405.9" stroke="rgb(0,0,0)"  stroke-width="1.0"/>
<line x1="129.2" y1="405.9" x2="161.4" y2="429.5" stroke="rgb(0,0,0)"  stroke-width="1.0"/>
<line x1="161.4" y1="429.5" x2="153.1" y2="455.2" stroke="rgb(0,0,0)"  stroke-width="1.0"/>
<line x1="136.2" y1="467.6" x2="109.3" y2="467.6" stroke="rgb(0,0,0)"  stroke-width="1.0"/>
<line x1="109.3" y1="467.6" x2="100.8" y2="441.8" stroke="rgb(0,0,0)"  stroke-width="1.0"/>
<line x1="186.6" y1="312.1" x2="224.7" y2="299.6" stroke="rgb(0,0,0)"  stroke-width="1.0"/>
<line x1="194.6" y1="317.1" x2="221.2" y2="308.3" stroke="rgb(0,0,0)"  stroke-width="1.0"/>
<line x1="224.7" y1="299.6" x2="254.3" y2="326.2" stroke="rgb(0,0,0)"  stroke-width="1.0"/>
<line x1="254.3" y1="326.2" x2="246.0" y2="365.9" stroke="rgb(0,0,0)"  stroke-width="1.0"/>
<line x1="246.0" y1="330.6" x2="240.2" y2="358.5" stroke="rgb(0,0,0)"  stroke-width="1.0"/>
<line x1="246.0" y1="365.9" x2="207.8" y2="378.1" stroke="rgb(0,0,0)"  stroke-width="1.0"/>
<line x1="207.8" y1="378.1" x2="178.2" y2="351.4" stroke="rgb(0,0,0)"  stroke-width="1.0"/>
<line x1="208.1" y1="368.8" x2="187.4" y2="350.0" stroke="rgb(0,0,0)"  stroke-width="1.0"/>
<line x1="178.2" y1="351.4" x2="186.6" y2="312.1" stroke="rgb(0,0,0)"  stroke-width="1.0"/>
<line x1="325.2" y1="157.8" x2="295.6" y2="131.2" stroke="rgb(0,0,0)"  stroke-width="1.0"/>
<line x1="325.5" y1="148.5" x2="304.8" y2="129.9" stroke="rgb(0,0,0)"  stroke-width="1.0"/>
<line x1="295.6" y1="131.2" x2="304.0" y2="92.0" stroke="rgb(0,0,0)"  stroke-width="1.0"/>
<line x1="304.0" y1="92.0" x2="342.1" y2="79.3" stroke="rgb(0,0,0)"  stroke-width="1.0"/>
<line x1="312.0" y1="96.9" x2="338.7" y2="88.0" stroke="rgb(0,0,0)"  stroke-width="1.0"/>
<line x1="342.1" y1="79.3" x2="372.1" y2="106.1" stroke="rgb(0,0,0)"  stroke-width="1.0"/>
<line x1="372.1" y1="106.1" x2="363.8" y2="145.3" stroke="rgb(0,0,0)"  stroke-width="1.0"/>
<line x1="363.8" y1="110.5" x2="358.0" y2="138.0" stroke="rgb(0,0,0)"  stroke-width="1.0"/>
<line x1="363.8" y1="145.3" x2="325.2" y2="157.8" stroke="rgb(0,0,0)"  stroke-width="1.0"/>
<text x="90.789763" y="437.496728" fill="rgb(12,12,255)"  stroke="rgb(12,12,255)" stroke-width="1" font-size="16" >N</text>
<text x="143.153150" y="475.560639" fill="rgb(178,178,0)"  stroke="rgb(178,178,0)" stroke-width="1" font-size="16" >S</text>
<text x="22.000000" y="347.477568" fill="rgb(102,102,102)"  stroke="rgb(102,102,102)" stroke-width="1" font-size="16" >HC</text>
<text x="79.711678" y="507.585051" fill="rgb(255,12,12)"  stroke="rgb(255,12,12)" stroke-width="1" font-size="16" >O</text>
<text x="122.814175" y="374.060114" fill="rgb(255,12,12)"  stroke="rgb(255,12,12)" stroke-width="1" font-size="16" >O</text>
<text x="311.112469" y="204.686881" fill="rgb(12,12,255)"  stroke="rgb(12,12,255)" stroke-width="1" font-size="16" >NH</text>
<text x="226.729529" y="268.327565" fill="rgb(255,12,12)"  stroke="rgb(255,12,12)" stroke-width="1" font-size="16" >O</text>
<text x="243.443832" y="190.586617" fill="rgb(255,12,12)"  stroke="rgb(255,12,12)" stroke-width="1" font-size="16" >O</text>
<text x="151.209056" y="293.705126" fill="rgb(255,12,12)"  stroke="rgb(255,12,12)" stroke-width="1" font-size="16" >O</text>
<text x="346.341866" y="48.000000" fill="rgb(102,102,102)"  stroke="rgb(102,102,102)" stroke-width="1" font-size="16" >CH</text>
<text x="370.341866" y="51.680000" fill="rgb(102,102,102)"  stroke="rgb(102,102,102)" stroke-width="1" font-size="13" >3</text>
<text x="93.145144" y="305.788985" fill="rgb(102,102,102)"  stroke="rgb(102,102,102)" stroke-width="1" font-size="16" >H</text>
<text x="105.145144" y="309.468985" fill="rgb(102,102,102)"  stroke="rgb(102,102,102)" stroke-width="1" font-size="13" >3</text>
<text x="111.645144" y="305.788985" fill="rgb(102,102,102)"  stroke="rgb(102,102,102)" stroke-width="1" font-size="16" >C</text>
<text font-size="18.000000" fill ="black" font-family="sans-serif"
x="10.000000" y="20.000000" ></text>
<title> - OBDepict</title>
</svg>
