<?xml version="1.0"?>
<svg xmlns="http://www.w3.org/2000/svg"
xmlns:xlink="http://www.w3.org/1999/xlink" xmlns:cml="http://www.xml-cml.org/schema" width="461.223" height="379.911" x="0" y="0" font-family="sans-serif" stroke="rgb(0,0,0)" stroke-width="1"  stroke-linecap="round">
<rect x="0%" y="0%" width="100%" height="100%" stroke-width="0" fill="rgb(255,255,255)"  />
<line x1="386.6" y1="73.0" x2="386.6" y2="100.0" stroke="rgb(0,0,0)"  stroke-width="1.0"/>
<line x1="351.9" y1="160.0" x2="328.5" y2="173.5" stroke="rgb(0,0,0)"  stroke-width="1.0"/>
<line x1="214.8" y1="157.4" x2="249.4" y2="177.4" stroke="rgb(0,0,0)"  stroke-width="1.0"/>
<line x1="211.8" y1="162.6" x2="246.4" y2="182.6" stroke="rgb(0,0,0)"  stroke-width="1.0"/>
<line x1="178.6" y1="180.0" x2="213.3" y2="160.0" stroke="rgb(0,0,0)"  stroke-width="1.0"/>
<line x1="40.0" y1="299.9" x2="74.7" y2="279.9" stroke="rgb(0,0,0)"  stroke-width="1.0"/>
<line x1="339.1" y1="236.0" x2="315.8" y2="222.5" stroke="rgb(0,0,0)"  stroke-width="1.0"/>
<line x1="342.1" y1="230.8" x2="318.8" y2="217.3" stroke="rgb(0,0,0)"  stroke-width="1.0"/>
<line x1="40.0" y1="326.9" x2="40.0" y2="299.9" stroke="rgb(0,0,0)"  stroke-width="1.0"/>
<line x1="35.8" y1="326.9" x2="35.8" y2="299.9" stroke="rgb(0,0,0)"  stroke-width="1.0"/>
<line x1="44.2" y1="326.9" x2="44.2" y2="299.9" stroke="rgb(0,0,0)"  stroke-width="1.0"/>
<line x1="285.6" y1="133.0" x2="285.6" y2="160.0" stroke="rgb(0,0,0)"  stroke-width="1.0"/>
<line x1="279.6" y1="133.0" x2="279.6" y2="160.0" stroke="rgb(0,0,0)"  stroke-width="1.0"/>
<line x1="410.0" y1="46.5" x2="397.8" y2="53.5" stroke="rgb(0,0,0)"  stroke-width="1.0"/>
<line x1="364.7" y1="43.9" x2="376.8" y2="50.9" stroke="rgb(0,0,0)"  stroke-width="1.0"/>
<line x1="361.7" y1="49.1" x2="373.8" y2="56.1" stroke="rgb(0,0,0)"  stroke-width="1.0"/>
<line x1="223.0" y1="230.8" x2="246.4" y2="217.3" stroke="rgb(0,0,0)"  stroke-width="1.0"/>
<line x1="226.0" y1="236.0" x2="249.4" y2="222.5" stroke="rgb(0,0,0)"  stroke-width="1.0"/>
<line x1="85.9" y1="166.2" x2="109.3" y2="179.7" stroke="rgb(0,0,0)"  stroke-width="1.0"/>
<line x1="144.0" y1="266.7" x2="144.0" y2="239.7" stroke="rgb(0,0,0)"  stroke-width="1.0"/>
<line x1="85.9" y1="233.2" x2="109.3" y2="219.7" stroke="rgb(0,0,0)"  stroke-width="1.0"/>
<line x1="74.7" y1="279.9" x2="74.7" y2="252.7" stroke="rgb(0,0,0)"  stroke-width="1.0"/>
<line x1="306.0" y1="173.5" x2="282.6" y2="160.0" stroke="rgb(0,0,0)"  stroke-width="1.0"/>
<line x1="282.6" y1="160.0" x2="247.9" y2="180.0" stroke="rgb(0,0,0)"  stroke-width="1.0"/>
<line x1="247.9" y1="180.0" x2="247.9" y2="219.9" stroke="rgb(0,0,0)"  stroke-width="1.0"/>
<line x1="247.9" y1="219.9" x2="271.3" y2="233.4" stroke="rgb(0,0,0)"  stroke-width="1.0"/>
<line x1="293.9" y1="233.4" x2="317.3" y2="219.9" stroke="rgb(0,0,0)"  stroke-width="1.0"/>
<line x1="317.3" y1="219.9" x2="317.3" y2="193.0" stroke="rgb(0,0,0)"  stroke-width="1.0"/>
<line x1="144.0" y1="239.7" x2="109.3" y2="219.7" stroke="rgb(0,0,0)"  stroke-width="1.0"/>
<line x1="142.4" y1="230.5" x2="118.1" y2="216.5" stroke="rgb(0,0,0)"  stroke-width="1.0"/>
<line x1="109.3" y1="219.7" x2="109.3" y2="179.7" stroke="rgb(0,0,0)"  stroke-width="1.0"/>
<line x1="109.3" y1="179.7" x2="144.0" y2="160.0" stroke="rgb(0,0,0)"  stroke-width="1.0"/>
<line x1="118.1" y1="183.0" x2="142.3" y2="169.2" stroke="rgb(0,0,0)"  stroke-width="1.0"/>
<line x1="144.0" y1="160.0" x2="178.6" y2="180.0" stroke="rgb(0,0,0)"  stroke-width="1.0"/>
<line x1="178.6" y1="180.0" x2="178.6" y2="219.7" stroke="rgb(0,0,0)"  stroke-width="1.0"/>
<line x1="171.4" y1="186.0" x2="171.4" y2="213.7" stroke="rgb(0,0,0)"  stroke-width="1.0"/>
<line x1="178.6" y1="219.7" x2="144.0" y2="239.7" stroke="rgb(0,0,0)"  stroke-width="1.0"/>
<line x1="351.9" y1="160.0" x2="351.9" y2="120.0" stroke="rgb(0,0,0)"  stroke-width="1.0"/>
<line x1="359.1" y1="154.0" x2="359.1" y2="126.0" stroke="rgb(0,0,0)"  stroke-width="1.0"/>
<line x1="351.9" y1="120.0" x2="386.6" y2="100.0" stroke="rgb(0,0,0)"  stroke-width="1.0"/>
<line x1="386.6" y1="100.0" x2="421.2" y2="120.0" stroke="rgb(0,0,0)"  stroke-width="1.0"/>
<line x1="388.2" y1="109.2" x2="412.4" y2="123.2" stroke="rgb(0,0,0)"  stroke-width="1.0"/>
<line x1="421.2" y1="120.0" x2="421.2" y2="160.0" stroke="rgb(0,0,0)"  stroke-width="1.0"/>
<line x1="421.2" y1="160.0" x2="386.6" y2="180.0" stroke="rgb(0,0,0)"  stroke-width="1.0"/>
<line x1="412.4" y1="156.7" x2="388.2" y2="170.7" stroke="rgb(0,0,0)"  stroke-width="1.0"/>
<line x1="386.6" y1="180.0" x2="351.9" y2="160.0" stroke="rgb(0,0,0)"  stroke-width="1.0"/>
<text x="311.252821" y="187.960103" fill="rgb(12,12,255)"  stroke="rgb(12,12,255)" stroke-width="1" font-size="16" >N</text>
<text x="276.596219" y="247.942312" fill="rgb(12,12,255)"  stroke="rgb(12,12,255)" stroke-width="1" font-size="16" >N</text>
<text x="276.596219" y="263.942312" fill="rgb(12,12,255)"  stroke="rgb(12,12,255)" stroke-width="1" font-size="16" >H</text>
<text x="391.366027" y="55.958836" fill="rgb(12,12,255)"  stroke="rgb(12,12,255)" stroke-width="1" font-size="16" >+</text>
<text x="380.566027" y="67.990836" fill="rgb(12,12,255)"  stroke="rgb(12,12,255)" stroke-width="1" font-size="16" >N</text>
<text x="345.909424" y="247.942312" fill="rgb(255,12,12)"  stroke="rgb(255,12,12)" stroke-width="1" font-size="16" >O</text>
<text x="34.000000" y="347.911042" fill="rgb(102,102,102)"  stroke="rgb(102,102,102)" stroke-width="1" font-size="16" >CH</text>
<text x="276.596219" y="127.973045" fill="rgb(255,12,12)"  stroke="rgb(255,12,12)" stroke-width="1" font-size="16" >O</text>
<text x="426.022629" y="25.888000" fill="rgb(255,12,12)"  stroke="rgb(255,12,12)" stroke-width="1" font-size="16" >_</text>
<text x="415.222629" y="48.000000" fill="rgb(255,12,12)"  stroke="rgb(255,12,12)" stroke-width="1" font-size="16" >O</text>
<text x="345.909424" y="48.000000" fill="rgb(255,12,12)"  stroke="rgb(255,12,12)" stroke-width="1" font-size="16" >O</text>
<text x="207.283013" y="247.942312" fill="rgb(255,12,12)"  stroke="rgb(255,12,12)" stroke-width="1" font-size="16" >O</text>
<text x="56.656603" y="167.741327" fill="rgb(30,239,30)"  stroke="rgb(30,239,30)" stroke-width="1" font-size="16" >Cl</text>
<text x="137.969808" y="287.705744" fill="rgb(30,239,30)"  stroke="rgb(30,239,30)" stroke-width="1" font-size="16" >Cl</text>
<text x="68.656603" y="247.719221" fill="rgb(255,12,12)"  stroke="rgb(255,12,12)" stroke-width="1" font-size="16" >O</text>
<text font-size="18.000000" fill ="black" font-family="sans-serif"
x="10.000000" y="20.000000" ></text>
<title> - OBDepict</title>
</svg>
