<?xml version="1.0"?>
<svg xmlns="http://www.w3.org/2000/svg"
xmlns:xlink="http://www.w3.org/1999/xlink" xmlns:cml="http://www.xml-cml.org/schema" width="336.335" height="235.961" x="0" y="0" font-family="sans-serif" stroke="rgb(0,0,0)" stroke-width="1"  stroke-linecap="round">
<rect x="0%" y="0%" width="100%" height="100%" stroke-width="0" fill="rgb(255,255,255)"  />
<line x1="95.4" y1="161.0" x2="70.7" y2="129.9" stroke="rgb(0,0,0)"  stroke-width="1.0"/>
<line x1="70.7" y1="129.9" x2="91.6" y2="113.3" stroke="rgb(0,0,0)"  stroke-width="1.0"/>
<line x1="117.8" y1="186.2" x2="95.4" y2="161.0" stroke="rgb(0,0,0)"  stroke-width="1.0"/>
<line x1="114.7" y1="189.0" x2="92.3" y2="163.7" stroke="rgb(0,0,0)"  stroke-width="1.0"/>
<line x1="121.0" y1="183.4" x2="98.6" y2="158.2" stroke="rgb(0,0,0)"  stroke-width="1.0"/>
<line x1="265.4" y1="79.1" x2="240.8" y2="89.2" stroke="rgb(0,0,0)"  stroke-width="1.0"/>
<line x1="218.5" y1="86.0" x2="201.1" y2="72.4" stroke="rgb(0,0,0)"  stroke-width="1.0"/>
<line x1="284.2" y1="97.5" x2="263.6" y2="81.5" stroke="rgb(0,0,0)"  stroke-width="1.0"/>
<line x1="287.9" y1="92.8" x2="267.3" y2="76.8" stroke="rgb(0,0,0)"  stroke-width="1.0"/>
<line x1="50.2" y1="146.1" x2="70.7" y2="129.9" stroke="rgb(0,0,0)"  stroke-width="1.0"/>
<line x1="54.0" y1="108.7" x2="70.7" y2="129.9" stroke="rgb(0,0,0)"  stroke-width="1.0"/>
<line x1="268.8" y1="52.9" x2="265.4" y2="79.1" stroke="rgb(0,0,0)"  stroke-width="1.0"/>
<line x1="110.0" y1="95.1" x2="128.4" y2="72.4" stroke="rgb(0,0,0)"  stroke-width="1.0"/>
<line x1="128.4" y1="72.4" x2="169.5" y2="87.4" stroke="rgb(0,0,0)"  stroke-width="1.0"/>
<line x1="169.5" y1="87.4" x2="201.1" y2="72.4" stroke="rgb(0,0,0)"  stroke-width="1.0"/>
<line x1="201.1" y1="72.4" x2="175.2" y2="105.2" stroke="rgb(0,0,0)"  stroke-width="1.0"/>
<line x1="175.2" y1="105.2" x2="134.0" y2="91.0" stroke="rgb(0,0,0)"  stroke-width="1.0"/>
<line x1="134.0" y1="91.0" x2="113.7" y2="99.9" stroke="rgb(0,0,0)"  stroke-width="1.0"/>
<text x="95.765669" y="113.197363" fill="rgb(12,12,255)"  stroke="rgb(12,12,255)" stroke-width="1" font-size="16" >N</text>
<text x="120.472901" y="203.961089" fill="rgb(102,102,102)"  stroke="rgb(102,102,102)" stroke-width="1" font-size="16" >CH</text>
<text x="222.728700" y="102.047977" fill="rgb(255,12,12)"  stroke="rgb(255,12,12)" stroke-width="1" font-size="16" >O</text>
<text x="290.334524" y="111.136416" fill="rgb(255,12,12)"  stroke="rgb(255,12,12)" stroke-width="1" font-size="16" >O</text>
<text x="14.000000" y="162.095385" fill="rgb(102,102,102)"  stroke="rgb(102,102,102)" stroke-width="1" font-size="16" >H</text>
<text x="26.000000" y="165.775385" fill="rgb(102,102,102)"  stroke="rgb(102,102,102)" stroke-width="1" font-size="13" >3</text>
<text x="32.500000" y="162.095385" fill="rgb(102,102,102)"  stroke="rgb(102,102,102)" stroke-width="1" font-size="16" >C</text>
<text x="20.004258" y="106.507731" fill="rgb(102,102,102)"  stroke="rgb(102,102,102)" stroke-width="1" font-size="16" >H</text>
<text x="32.004258" y="110.187731" fill="rgb(102,102,102)"  stroke="rgb(102,102,102)" stroke-width="1" font-size="13" >3</text>
<text x="38.504258" y="106.507731" fill="rgb(102,102,102)"  stroke="rgb(102,102,102)" stroke-width="1" font-size="16" >C</text>
<text x="266.425474" y="48.000000" fill="rgb(102,102,102)"  stroke="rgb(102,102,102)" stroke-width="1" font-size="16" >CH</text>
<text x="290.425474" y="51.680000" fill="rgb(102,102,102)"  stroke="rgb(102,102,102)" stroke-width="1" font-size="13" >3</text>
<text x="201.800675" y="171.019721" fill="rgb(30,239,30)"  stroke="rgb(30,239,30)" stroke-width="1" font-size="16" >ClH</text>
<text font-size="18.000000" fill ="black" font-family="sans-serif"
x="10.000000" y="20.000000" ></text>
<title> - OBDepict</title>
</svg>
