<?xml version="1.0"?>
<svg xmlns="http://www.w3.org/2000/svg"
xmlns:xlink="http://www.w3.org/1999/xlink" xmlns:cml="http://www.xml-cml.org/schema" width="336.715" height="354.082" x="0" y="0" font-family="sans-serif" stroke="rgb(0,0,0)" stroke-width="1"  stroke-linecap="round">
<rect x="0%" y="0%" width="100%" height="100%" stroke-width="0" fill="rgb(255,255,255)"  />
<line x1="189.2" y1="156.6" x2="164.9" y2="170.6" stroke="rgb(0,0,0)"  stroke-width="1.0"/>
<line x1="186.2" y1="151.4" x2="161.9" y2="165.5" stroke="rgb(0,0,0)"  stroke-width="1.0"/>
<line x1="198.6" y1="107.9" x2="198.8" y2="134.5" stroke="rgb(0,0,0)"  stroke-width="1.0"/>
<line x1="233.1" y1="87.9" x2="198.6" y2="107.9" stroke="rgb(0,0,0)"  stroke-width="1.0"/>
<line x1="179.2" y1="274.7" x2="188.3" y2="235.7" stroke="rgb(0,0,0)"  stroke-width="1.0"/>
<line x1="173.0" y1="301.4" x2="179.2" y2="274.7" stroke="rgb(0,0,0)"  stroke-width="1.0"/>
<line x1="168.9" y1="300.5" x2="175.1" y2="273.8" stroke="rgb(0,0,0)"  stroke-width="1.0"/>
<line x1="177.1" y1="302.4" x2="183.3" y2="275.6" stroke="rgb(0,0,0)"  stroke-width="1.0"/>
<line x1="176.8" y1="91.8" x2="200.1" y2="105.3" stroke="rgb(0,0,0)"  stroke-width="1.0"/>
<line x1="173.8" y1="97.0" x2="197.1" y2="110.5" stroke="rgb(0,0,0)"  stroke-width="1.0"/>
<line x1="188.3" y1="235.7" x2="168.4" y2="217.0" stroke="rgb(0,0,0)"  stroke-width="1.0"/>
<line x1="111.8" y1="273.3" x2="99.0" y2="249.2" stroke="rgb(0,0,0)"  stroke-width="1.0"/>
<line x1="163.4" y1="168.1" x2="140.0" y2="157.0" stroke="rgb(0,0,0)"  stroke-width="1.0"/>
<line x1="119.2" y1="160.8" x2="100.4" y2="180.2" stroke="rgb(0,0,0)"  stroke-width="1.0"/>
<line x1="100.4" y1="180.2" x2="119.8" y2="215.3" stroke="rgb(0,0,0)"  stroke-width="1.0"/>
<line x1="109.6" y1="181.9" x2="123.2" y2="206.6" stroke="rgb(0,0,0)"  stroke-width="1.0"/>
<line x1="119.8" y1="215.3" x2="146.2" y2="210.4" stroke="rgb(0,0,0)"  stroke-width="1.0"/>
<line x1="160.4" y1="195.1" x2="163.4" y2="168.1" stroke="rgb(0,0,0)"  stroke-width="1.0"/>
<line x1="233.1" y1="87.9" x2="257.9" y2="98.6" stroke="rgb(0,0,0)"  stroke-width="1.0"/>
<line x1="278.6" y1="94.2" x2="296.7" y2="74.3" stroke="rgb(0,0,0)"  stroke-width="1.0"/>
<line x1="296.7" y1="74.3" x2="276.7" y2="40.0" stroke="rgb(0,0,0)"  stroke-width="1.0"/>
<line x1="287.5" y1="72.8" x2="273.5" y2="48.8" stroke="rgb(0,0,0)"  stroke-width="1.0"/>
<line x1="276.7" y1="40.0" x2="237.3" y2="47.7" stroke="rgb(0,0,0)"  stroke-width="1.0"/>
<line x1="237.3" y1="47.7" x2="233.1" y2="87.9" stroke="rgb(0,0,0)"  stroke-width="1.0"/>
<line x1="243.9" y1="54.4" x2="240.9" y2="82.7" stroke="rgb(0,0,0)"  stroke-width="1.0"/>
<line x1="99.0" y1="249.2" x2="60.0" y2="248.6" stroke="rgb(0,0,0)"  stroke-width="1.0"/>
<line x1="93.1" y1="242.0" x2="66.1" y2="241.5" stroke="rgb(0,0,0)"  stroke-width="1.0"/>
<line x1="60.0" y1="248.6" x2="40.0" y2="213.3" stroke="rgb(0,0,0)"  stroke-width="1.0"/>
<line x1="40.0" y1="213.3" x2="60.8" y2="179.0" stroke="rgb(0,0,0)"  stroke-width="1.0"/>
<line x1="49.3" y1="211.9" x2="63.9" y2="187.8" stroke="rgb(0,0,0)"  stroke-width="1.0"/>
<line x1="60.8" y1="179.0" x2="100.4" y2="180.2" stroke="rgb(0,0,0)"  stroke-width="1.0"/>
<line x1="119.8" y1="215.3" x2="99.0" y2="249.2" stroke="rgb(0,0,0)"  stroke-width="1.0"/>
<text x="192.956705" y="155.450339" fill="rgb(12,12,255)"  stroke="rgb(12,12,255)" stroke-width="1" font-size="16" >N</text>
<text x="152.964784" y="216.045778" fill="rgb(12,12,255)"  stroke="rgb(12,12,255)" stroke-width="1" font-size="16" >N</text>
<text x="122.266076" y="159.489386" fill="rgb(178,178,0)"  stroke="rgb(178,178,0)" stroke-width="1" font-size="16" >S</text>
<text x="152.075811" y="322.081720" fill="rgb(102,102,102)"  stroke="rgb(102,102,102)" stroke-width="1" font-size="16" >HC</text>
<text x="263.851473" y="111.827649" fill="rgb(255,12,12)"  stroke="rgb(255,12,12)" stroke-width="1" font-size="16" >O</text>
<text x="158.014809" y="95.865877" fill="rgb(255,12,12)"  stroke="rgb(255,12,12)" stroke-width="1" font-size="16" >O</text>
<text x="113.966747" y="292.792548" fill="rgb(102,102,102)"  stroke="rgb(102,102,102)" stroke-width="1" font-size="16" >CH</text>
<text x="137.966747" y="296.472548" fill="rgb(102,102,102)"  stroke="rgb(102,102,102)" stroke-width="1" font-size="13" >3</text>
<text font-size="18.000000" fill ="black" font-family="sans-serif"
x="10.000000" y="20.000000" ></text>
<title> - OBDepict</title>
</svg>
