<?xml version="1.0"?>
<svg xmlns="http://www.w3.org/2000/svg"
xmlns:xlink="http://www.w3.org/1999/xlink" xmlns:cml="http://www.xml-cml.org/schema" width="408.56" height="450.823" x="0" y="0" font-family="sans-serif" stroke="rgb(0,0,0)" stroke-width="1"  stroke-linecap="round">
<rect x="0%" y="0%" width="100%" height="100%" stroke-width="0" fill="rgb(255,255,255)"  />
<line x1="90.3" y1="207.4" x2="78.0" y2="245.4" stroke="rgb(0,0,0)"  stroke-width="1.0"/>
<line x1="78.0" y1="104.5" x2="90.3" y2="142.7" stroke="rgb(0,0,0)"  stroke-width="1.0"/>
<line x1="185.2" y1="364.5" x2="211.7" y2="358.9" stroke="rgb(0,0,0)"  stroke-width="1.0"/>
<line x1="92.4" y1="313.4" x2="119.3" y2="343.1" stroke="rgb(0,0,0)"  stroke-width="1.0"/>
<line x1="329.3" y1="369.4" x2="290.3" y2="377.7" stroke="rgb(0,0,0)"  stroke-width="1.0"/>
<line x1="100.7" y1="287.7" x2="92.4" y2="313.4" stroke="rgb(0,0,0)"  stroke-width="1.0"/>
<line x1="355.9" y1="363.6" x2="329.3" y2="369.4" stroke="rgb(0,0,0)"  stroke-width="1.0"/>
<line x1="356.7" y1="367.7" x2="330.2" y2="373.5" stroke="rgb(0,0,0)"  stroke-width="1.0"/>
<line x1="355.0" y1="359.5" x2="328.5" y2="365.3" stroke="rgb(0,0,0)"  stroke-width="1.0"/>
<line x1="221.6" y1="329.1" x2="224.6" y2="342.9" stroke="rgb(0,0,0)"  stroke-width="1.0"/>
<line x1="215.7" y1="330.3" x2="218.7" y2="344.2" stroke="rgb(0,0,0)"  stroke-width="1.0"/>
<line x1="227.1" y1="383.4" x2="224.2" y2="369.6" stroke="rgb(0,0,0)"  stroke-width="1.0"/>
<line x1="232.9" y1="382.1" x2="230.0" y2="368.3" stroke="rgb(0,0,0)"  stroke-width="1.0"/>
<line x1="250.7" y1="350.6" x2="237.1" y2="353.5" stroke="rgb(0,0,0)"  stroke-width="1.0"/>
<line x1="65.4" y1="316.0" x2="91.7" y2="310.4" stroke="rgb(0,0,0)"  stroke-width="1.0"/>
<line x1="66.7" y1="321.9" x2="93.0" y2="316.3" stroke="rgb(0,0,0)"  stroke-width="1.0"/>
<line x1="78.0" y1="245.4" x2="96.0" y2="265.7" stroke="rgb(0,0,0)"  stroke-width="1.0"/>
<line x1="290.3" y1="377.7" x2="272.1" y2="357.6" stroke="rgb(0,0,0)"  stroke-width="1.0"/>
<line x1="74.6" y1="164.4" x2="90.3" y2="142.7" stroke="rgb(0,0,0)"  stroke-width="1.0"/>
<line x1="81.6" y1="167.0" x2="92.7" y2="151.8" stroke="rgb(0,0,0)"  stroke-width="1.0"/>
<line x1="90.3" y1="142.7" x2="116.0" y2="151.0" stroke="rgb(0,0,0)"  stroke-width="1.0"/>
<line x1="128.4" y1="168.0" x2="128.4" y2="195.1" stroke="rgb(0,0,0)"  stroke-width="1.0"/>
<line x1="128.4" y1="195.1" x2="90.3" y2="207.4" stroke="rgb(0,0,0)"  stroke-width="1.0"/>
<line x1="120.4" y1="190.1" x2="93.8" y2="198.7" stroke="rgb(0,0,0)"  stroke-width="1.0"/>
<line x1="90.3" y1="207.4" x2="74.5" y2="185.6" stroke="rgb(0,0,0)"  stroke-width="1.0"/>
<line x1="78.0" y1="104.5" x2="52.4" y2="96.2" stroke="rgb(0,0,0)"  stroke-width="1.0"/>
<line x1="40.0" y1="79.2" x2="40.0" y2="52.3" stroke="rgb(0,0,0)"  stroke-width="1.0"/>
<line x1="40.0" y1="52.3" x2="78.0" y2="40.0" stroke="rgb(0,0,0)"  stroke-width="1.0"/>
<line x1="47.9" y1="57.3" x2="74.5" y2="48.7" stroke="rgb(0,0,0)"  stroke-width="1.0"/>
<line x1="78.0" y1="40.0" x2="101.5" y2="72.1" stroke="rgb(0,0,0)"  stroke-width="1.0"/>
<line x1="101.5" y1="72.1" x2="78.0" y2="104.5" stroke="rgb(0,0,0)"  stroke-width="1.0"/>
<line x1="92.1" y1="72.8" x2="75.7" y2="95.4" stroke="rgb(0,0,0)"  stroke-width="1.0"/>
<line x1="185.2" y1="364.5" x2="172.8" y2="402.5" stroke="rgb(0,0,0)"  stroke-width="1.0"/>
<line x1="176.5" y1="368.0" x2="167.8" y2="394.6" stroke="rgb(0,0,0)"  stroke-width="1.0"/>
<line x1="172.8" y1="402.5" x2="133.6" y2="410.8" stroke="rgb(0,0,0)"  stroke-width="1.0"/>
<line x1="133.6" y1="410.8" x2="106.7" y2="381.1" stroke="rgb(0,0,0)"  stroke-width="1.0"/>
<line x1="134.9" y1="401.5" x2="116.1" y2="380.7" stroke="rgb(0,0,0)"  stroke-width="1.0"/>
<line x1="106.7" y1="381.1" x2="119.3" y2="343.1" stroke="rgb(0,0,0)"  stroke-width="1.0"/>
<line x1="119.3" y1="343.1" x2="158.3" y2="334.8" stroke="rgb(0,0,0)"  stroke-width="1.0"/>
<line x1="126.6" y1="348.9" x2="153.9" y2="343.1" stroke="rgb(0,0,0)"  stroke-width="1.0"/>
<line x1="158.3" y1="334.8" x2="185.2" y2="364.5" stroke="rgb(0,0,0)"  stroke-width="1.0"/>
<text x="218.401452" y="364.232336" fill="rgb(178,178,0)"  stroke="rgb(178,178,0)" stroke-width="1" font-size="16" >S</text>
<text x="60.888346" y="183.066592" fill="rgb(12,12,255)"  stroke="rgb(12,12,255)" stroke-width="1" font-size="16" >N</text>
<text x="122.357112" y="163.046860" fill="rgb(255,12,12)"  stroke="rgb(255,12,12)" stroke-width="1" font-size="16" >O</text>
<text x="34.000000" y="100.168527" fill="rgb(178,178,0)"  stroke="rgb(178,178,0)" stroke-width="1" font-size="16" >S</text>
<text x="98.699630" y="283.354167" fill="rgb(12,12,255)"  stroke="rgb(12,12,255)" stroke-width="1" font-size="16" >NH</text>
<text x="362.559997" y="368.882456" fill="rgb(102,102,102)"  stroke="rgb(102,102,102)" stroke-width="1" font-size="16" >CH</text>
<text x="209.910141" y="325.001798" fill="rgb(255,12,12)"  stroke="rgb(255,12,12)" stroke-width="1" font-size="16" >O</text>
<text x="226.689321" y="403.453187" fill="rgb(255,12,12)"  stroke="rgb(255,12,12)" stroke-width="1" font-size="16" >O</text>
<text x="257.418860" y="355.939624" fill="rgb(12,12,255)"  stroke="rgb(12,12,255)" stroke-width="1" font-size="16" >N</text>
<text x="257.418860" y="339.939624" fill="rgb(12,12,255)"  stroke="rgb(12,12,255)" stroke-width="1" font-size="16" >H</text>
<text x="47.344874" y="329.656761" fill="rgb(255,12,12)"  stroke="rgb(255,12,12)" stroke-width="1" font-size="16" >O</text>
<text font-size="18.000000" fill ="black" font-family="sans-serif"
x="10.000000" y="20.000000" ></text>
<title> - OBDepict</title>
</svg>
