<?xml version="1.0"?>
<svg xmlns="http://www.w3.org/2000/svg"
xmlns:xlink="http://www.w3.org/1999/xlink" xmlns:cml="http://www.xml-cml.org/schema" width="417.069" height="221.663" x="0" y="0" font-family="sans-serif" stroke="rgb(0,0,0)" stroke-width="1"  stroke-linecap="round">
<rect x="0%" y="0%" width="100%" height="100%" stroke-width="0" fill="rgb(255,255,255)"  />
<line x1="239.8" y1="112.4" x2="226.4" y2="135.8" stroke="rgb(0,0,0)"  stroke-width="1.0"/>
<line x1="338.4" y1="88.0" x2="299.8" y2="78.0" stroke="rgb(0,0,0)"  stroke-width="1.0"/>
<line x1="100.0" y1="147.0" x2="73.0" y2="147.0" stroke="rgb(0,0,0)"  stroke-width="1.0"/>
<line x1="364.5" y1="95.2" x2="338.4" y2="88.0" stroke="rgb(0,0,0)"  stroke-width="1.0"/>
<line x1="363.4" y1="99.2" x2="337.3" y2="92.0" stroke="rgb(0,0,0)"  stroke-width="1.0"/>
<line x1="365.7" y1="91.1" x2="339.5" y2="83.9" stroke="rgb(0,0,0)"  stroke-width="1.0"/>
<line x1="206.9" y1="147.0" x2="179.9" y2="147.0" stroke="rgb(0,0,0)"  stroke-width="1.0"/>
<line x1="46.5" y1="123.6" x2="53.5" y2="135.8" stroke="rgb(0,0,0)"  stroke-width="1.0"/>
<line x1="43.9" y1="168.9" x2="50.9" y2="156.8" stroke="rgb(0,0,0)"  stroke-width="1.0"/>
<line x1="49.1" y1="171.9" x2="56.1" y2="159.8" stroke="rgb(0,0,0)"  stroke-width="1.0"/>
<line x1="266.8" y1="112.4" x2="239.8" y2="112.4" stroke="rgb(0,0,0)"  stroke-width="1.0"/>
<line x1="299.8" y1="78.0" x2="286.3" y2="101.1" stroke="rgb(0,0,0)"  stroke-width="1.0"/>
<line x1="229.0" y1="87.7" x2="242.4" y2="110.9" stroke="rgb(0,0,0)"  stroke-width="1.0"/>
<line x1="223.8" y1="90.7" x2="237.2" y2="113.9" stroke="rgb(0,0,0)"  stroke-width="1.0"/>
<line x1="309.0" y1="52.2" x2="299.8" y2="78.0" stroke="rgb(0,0,0)"  stroke-width="1.0"/>
<line x1="275.1" y1="66.2" x2="299.8" y2="78.0" stroke="rgb(0,0,0)"  stroke-width="1.0"/>
<line x1="100.0" y1="147.0" x2="119.9" y2="181.7" stroke="rgb(0,0,0)"  stroke-width="1.0"/>
<line x1="119.9" y1="181.7" x2="159.9" y2="181.7" stroke="rgb(0,0,0)"  stroke-width="1.0"/>
<line x1="125.9" y1="174.5" x2="153.9" y2="174.5" stroke="rgb(0,0,0)"  stroke-width="1.0"/>
<line x1="159.9" y1="181.7" x2="179.9" y2="147.0" stroke="rgb(0,0,0)"  stroke-width="1.0"/>
<line x1="179.9" y1="147.0" x2="159.9" y2="112.4" stroke="rgb(0,0,0)"  stroke-width="1.0"/>
<line x1="170.7" y1="145.4" x2="156.7" y2="121.2" stroke="rgb(0,0,0)"  stroke-width="1.0"/>
<line x1="159.9" y1="112.4" x2="119.9" y2="112.4" stroke="rgb(0,0,0)"  stroke-width="1.0"/>
<line x1="119.9" y1="112.4" x2="100.0" y2="147.0" stroke="rgb(0,0,0)"  stroke-width="1.0"/>
<line x1="123.2" y1="121.2" x2="109.2" y2="145.4" stroke="rgb(0,0,0)"  stroke-width="1.0"/>
<text x="64.785579" y="142.992398" fill="rgb(12,12,255)"  stroke="rgb(12,12,255)" stroke-width="1" font-size="16" >+</text>
<text x="53.985579" y="155.024398" fill="rgb(12,12,255)"  stroke="rgb(12,12,255)" stroke-width="1" font-size="16" >N</text>
<text x="371.069413" y="106.618871" fill="rgb(102,102,102)"  stroke="rgb(102,102,102)" stroke-width="1" font-size="16" >CH</text>
<text x="213.860514" y="155.024398" fill="rgb(12,12,255)"  stroke="rgb(12,12,255)" stroke-width="1" font-size="16" >N</text>
<text x="213.860514" y="171.024398" fill="rgb(12,12,255)"  stroke="rgb(12,12,255)" stroke-width="1" font-size="16" >H</text>
<text x="44.800000" y="98.273313" fill="rgb(255,12,12)"  stroke="rgb(255,12,12)" stroke-width="1" font-size="16" >_</text>
<text x="34.000000" y="120.385313" fill="rgb(255,12,12)"  stroke="rgb(255,12,12)" stroke-width="1" font-size="16" >O</text>
<text x="34.000000" y="189.663483" fill="rgb(255,12,12)"  stroke="rgb(255,12,12)" stroke-width="1" font-size="16" >O</text>
<text x="273.812403" y="120.385313" fill="rgb(255,12,12)"  stroke="rgb(255,12,12)" stroke-width="1" font-size="16" >O</text>
<text x="213.860514" y="85.969206" fill="rgb(255,12,12)"  stroke="rgb(255,12,12)" stroke-width="1" font-size="16" >O</text>
<text x="309.341447" y="48.000000" fill="rgb(102,102,102)"  stroke="rgb(102,102,102)" stroke-width="1" font-size="16" >CH</text>
<text x="333.341447" y="51.680000" fill="rgb(102,102,102)"  stroke="rgb(102,102,102)" stroke-width="1" font-size="13" >3</text>
<text x="237.379924" y="68.649664" fill="rgb(102,102,102)"  stroke="rgb(102,102,102)" stroke-width="1" font-size="16" >H</text>
<text x="249.379924" y="72.329664" fill="rgb(102,102,102)"  stroke="rgb(102,102,102)" stroke-width="1" font-size="13" >3</text>
<text x="255.879924" y="68.649664" fill="rgb(102,102,102)"  stroke="rgb(102,102,102)" stroke-width="1" font-size="16" >C</text>
<text font-size="18.000000" fill ="black" font-family="sans-serif"
x="10.000000" y="20.000000" ></text>
<title> - OBDepict</title>
</svg>
