<?xml version="1.0"?>
<svg xmlns="http://www.w3.org/2000/svg"
xmlns:xlink="http://www.w3.org/1999/xlink" xmlns:cml="http://www.xml-cml.org/schema" width="557.13" height="300.152" x="0" y="0" font-family="sans-serif" stroke="rgb(0,0,0)" stroke-width="1"  stroke-linecap="round">
<rect x="0%" y="0%" width="100%" height="100%" stroke-width="0" fill="rgb(255,255,255)"  />
<line x1="205.5" y1="220.3" x2="240.0" y2="200.3" stroke="rgb(0,0,0)"  stroke-width="1.0"/>
<line x1="273.1" y1="222.9" x2="238.5" y2="202.9" stroke="rgb(0,0,0)"  stroke-width="1.0"/>
<line x1="276.1" y1="217.7" x2="241.5" y2="197.7" stroke="rgb(0,0,0)"  stroke-width="1.0"/>
<line x1="239.5" y1="160.3" x2="240.0" y2="200.3" stroke="rgb(0,0,0)"  stroke-width="1.0"/>
<line x1="309.6" y1="199.8" x2="274.6" y2="220.3" stroke="rgb(0,0,0)"  stroke-width="1.0"/>
<line x1="239.5" y1="133.5" x2="239.5" y2="160.3" stroke="rgb(0,0,0)"  stroke-width="1.0"/>
<line x1="243.7" y1="133.5" x2="243.7" y2="160.3" stroke="rgb(0,0,0)"  stroke-width="1.0"/>
<line x1="235.3" y1="133.5" x2="235.3" y2="160.3" stroke="rgb(0,0,0)"  stroke-width="1.0"/>
<line x1="482.8" y1="139.3" x2="448.3" y2="159.3" stroke="rgb(0,0,0)"  stroke-width="1.0"/>
<line x1="181.9" y1="206.8" x2="205.5" y2="220.3" stroke="rgb(0,0,0)"  stroke-width="1.0"/>
<line x1="505.9" y1="126.0" x2="482.8" y2="139.3" stroke="rgb(0,0,0)"  stroke-width="1.0"/>
<line x1="508.0" y1="129.6" x2="484.9" y2="143.0" stroke="rgb(0,0,0)"  stroke-width="1.0"/>
<line x1="503.8" y1="122.4" x2="480.7" y2="135.7" stroke="rgb(0,0,0)"  stroke-width="1.0"/>
<line x1="202.5" y1="247.2" x2="202.5" y2="220.3" stroke="rgb(0,0,0)"  stroke-width="1.0"/>
<line x1="208.5" y1="247.2" x2="208.5" y2="220.3" stroke="rgb(0,0,0)"  stroke-width="1.0"/>
<line x1="402.6" y1="213.9" x2="378.6" y2="199.8" stroke="rgb(0,0,0)"  stroke-width="1.0"/>
<line x1="402.5" y1="146.3" x2="378.6" y2="160.0" stroke="rgb(0,0,0)"  stroke-width="1.0"/>
<line x1="136.2" y1="220.3" x2="159.4" y2="206.8" stroke="rgb(0,0,0)"  stroke-width="1.0"/>
<line x1="344.1" y1="113.0" x2="344.1" y2="140.0" stroke="rgb(0,0,0)"  stroke-width="1.0"/>
<line x1="101.5" y1="200.3" x2="136.2" y2="220.3" stroke="rgb(0,0,0)"  stroke-width="1.0"/>
<line x1="448.3" y1="159.3" x2="425.1" y2="146.2" stroke="rgb(0,0,0)"  stroke-width="1.0"/>
<line x1="378.6" y1="80.2" x2="355.4" y2="93.5" stroke="rgb(0,0,0)"  stroke-width="1.0"/>
<line x1="378.6" y1="53.0" x2="378.6" y2="80.2" stroke="rgb(0,0,0)"  stroke-width="1.0"/>
<line x1="75.9" y1="208.6" x2="101.5" y2="200.3" stroke="rgb(0,0,0)"  stroke-width="1.0"/>
<line x1="101.5" y1="200.3" x2="101.5" y2="160.0" stroke="rgb(0,0,0)"  stroke-width="1.0"/>
<line x1="101.5" y1="160.0" x2="63.5" y2="147.8" stroke="rgb(0,0,0)"  stroke-width="1.0"/>
<line x1="63.5" y1="147.8" x2="40.0" y2="180.0" stroke="rgb(0,0,0)"  stroke-width="1.0"/>
<line x1="40.0" y1="180.0" x2="55.9" y2="202.1" stroke="rgb(0,0,0)"  stroke-width="1.0"/>
<line x1="378.6" y1="199.8" x2="378.6" y2="160.0" stroke="rgb(0,0,0)"  stroke-width="1.0"/>
<line x1="378.6" y1="160.0" x2="344.1" y2="140.0" stroke="rgb(0,0,0)"  stroke-width="1.0"/>
<line x1="369.8" y1="163.2" x2="345.7" y2="149.2" stroke="rgb(0,0,0)"  stroke-width="1.0"/>
<line x1="344.1" y1="140.0" x2="309.6" y2="160.0" stroke="rgb(0,0,0)"  stroke-width="1.0"/>
<line x1="309.6" y1="160.0" x2="309.6" y2="199.8" stroke="rgb(0,0,0)"  stroke-width="1.0"/>
<line x1="316.8" y1="166.0" x2="316.8" y2="193.8" stroke="rgb(0,0,0)"  stroke-width="1.0"/>
<line x1="309.6" y1="199.8" x2="344.1" y2="219.8" stroke="rgb(0,0,0)"  stroke-width="1.0"/>
<line x1="344.1" y1="219.8" x2="378.6" y2="199.8" stroke="rgb(0,0,0)"  stroke-width="1.0"/>
<line x1="345.7" y1="210.6" x2="369.8" y2="196.6" stroke="rgb(0,0,0)"  stroke-width="1.0"/>
<text x="233.485211" y="128.493948" fill="rgb(12,12,255)"  stroke="rgb(12,12,255)" stroke-width="1" font-size="16" >N</text>
<text x="164.658874" y="208.325732" fill="rgb(12,12,255)"  stroke="rgb(12,12,255)" stroke-width="1" font-size="16" >N</text>
<text x="164.658874" y="192.325732" fill="rgb(12,12,255)"  stroke="rgb(12,12,255)" stroke-width="1" font-size="16" >H</text>
<text x="511.129881" y="127.493453" fill="rgb(102,102,102)"  stroke="rgb(102,102,102)" stroke-width="1" font-size="16" >CH</text>
<text x="199.487707" y="268.152445" fill="rgb(255,12,12)"  stroke="rgb(255,12,12)" stroke-width="1" font-size="16" >O</text>
<text x="57.499554" y="220.655506" fill="rgb(255,12,12)"  stroke="rgb(255,12,12)" stroke-width="1" font-size="16" >O</text>
<text x="407.808210" y="228.485469" fill="rgb(30,239,30)"  stroke="rgb(30,239,30)" stroke-width="1" font-size="16" >Cl</text>
<text x="407.808210" y="147.832022" fill="rgb(255,12,12)"  stroke="rgb(255,12,12)" stroke-width="1" font-size="16" >O</text>
<text x="338.145710" y="107.995879" fill="rgb(255,12,12)"  stroke="rgb(255,12,12)" stroke-width="1" font-size="16" >O</text>
<text x="374.641045" y="48.000000" fill="rgb(102,102,102)"  stroke="rgb(102,102,102)" stroke-width="1" font-size="16" >CH</text>
<text x="398.641045" y="51.680000" fill="rgb(102,102,102)"  stroke="rgb(102,102,102)" stroke-width="1" font-size="13" >3</text>
<text font-size="18.000000" fill ="black" font-family="sans-serif"
x="10.000000" y="20.000000" ></text>
<title> - OBDepict</title>
</svg>
