<?xml version="1.0"?>
<svg xmlns="http://www.w3.org/2000/svg"
xmlns:xlink="http://www.w3.org/1999/xlink" xmlns:cml="http://www.xml-cml.org/schema" width="324.357" height="367.335" x="0" y="0" font-family="sans-serif" stroke="rgb(0,0,0)" stroke-width="1"  stroke-linecap="round">
<rect x="0%" y="0%" width="100%" height="100%" stroke-width="0" fill="rgb(255,255,255)"  />
<line x1="130.0" y1="229.9" x2="138.2" y2="204.1" stroke="rgb(0,0,0)"  stroke-width="1.0"/>
<line x1="284.4" y1="79.8" x2="284.2" y2="119.7" stroke="rgb(0,0,0)"  stroke-width="1.0"/>
<line x1="284.2" y1="53.0" x2="284.4" y2="79.8" stroke="rgb(0,0,0)"  stroke-width="1.0"/>
<line x1="288.4" y1="53.0" x2="288.6" y2="79.7" stroke="rgb(0,0,0)"  stroke-width="1.0"/>
<line x1="280.0" y1="53.0" x2="280.2" y2="79.8" stroke="rgb(0,0,0)"  stroke-width="1.0"/>
<line x1="218.0" y1="92.6" x2="217.7" y2="119.1" stroke="rgb(0,0,0)"  stroke-width="1.0"/>
<line x1="212.0" y1="92.5" x2="211.7" y2="119.1" stroke="rgb(0,0,0)"  stroke-width="1.0"/>
<line x1="284.2" y1="119.7" x2="260.5" y2="133.2" stroke="rgb(0,0,0)"  stroke-width="1.0"/>
<line x1="162.8" y1="317.7" x2="144.5" y2="297.7" stroke="rgb(0,0,0)"  stroke-width="1.0"/>
<line x1="52.7" y1="282.0" x2="78.5" y2="276.5" stroke="rgb(0,0,0)"  stroke-width="1.0"/>
<line x1="126.3" y1="148.7" x2="134.3" y2="137.7" stroke="rgb(0,0,0)"  stroke-width="1.0"/>
<line x1="133.3" y1="151.4" x2="139.0" y2="143.5" stroke="rgb(0,0,0)"  stroke-width="1.0"/>
<line x1="154.5" y1="130.9" x2="180.6" y2="139.1" stroke="rgb(0,0,0)"  stroke-width="1.0"/>
<line x1="180.6" y1="139.1" x2="180.6" y2="179.6" stroke="rgb(0,0,0)"  stroke-width="1.0"/>
<line x1="173.4" y1="145.1" x2="173.4" y2="173.6" stroke="rgb(0,0,0)"  stroke-width="1.0"/>
<line x1="180.6" y1="179.6" x2="154.5" y2="187.8" stroke="rgb(0,0,0)"  stroke-width="1.0"/>
<line x1="134.4" y1="181.2" x2="126.2" y2="170.0" stroke="rgb(0,0,0)"  stroke-width="1.0"/>
<line x1="180.6" y1="139.1" x2="214.7" y2="119.1" stroke="rgb(0,0,0)"  stroke-width="1.0"/>
<line x1="214.7" y1="119.1" x2="238.1" y2="133.0" stroke="rgb(0,0,0)"  stroke-width="1.0"/>
<line x1="249.3" y1="152.7" x2="249.3" y2="179.6" stroke="rgb(0,0,0)"  stroke-width="1.0"/>
<line x1="249.3" y1="179.6" x2="226.1" y2="192.9" stroke="rgb(0,0,0)"  stroke-width="1.0"/>
<line x1="240.5" y1="176.4" x2="224.3" y2="185.6" stroke="rgb(0,0,0)"  stroke-width="1.0"/>
<line x1="203.5" y1="192.9" x2="180.6" y2="179.6" stroke="rgb(0,0,0)"  stroke-width="1.0"/>
<line x1="130.0" y1="229.9" x2="157.0" y2="259.5" stroke="rgb(0,0,0)"  stroke-width="1.0"/>
<line x1="157.0" y1="259.5" x2="144.5" y2="297.7" stroke="rgb(0,0,0)"  stroke-width="1.0"/>
<line x1="148.3" y1="263.0" x2="139.6" y2="289.7" stroke="rgb(0,0,0)"  stroke-width="1.0"/>
<line x1="144.5" y1="297.7" x2="105.8" y2="306.2" stroke="rgb(0,0,0)"  stroke-width="1.0"/>
<line x1="105.8" y1="306.2" x2="78.5" y2="276.5" stroke="rgb(0,0,0)"  stroke-width="1.0"/>
<line x1="107.0" y1="296.9" x2="87.9" y2="276.0" stroke="rgb(0,0,0)"  stroke-width="1.0"/>
<line x1="78.5" y1="276.5" x2="90.6" y2="238.1" stroke="rgb(0,0,0)"  stroke-width="1.0"/>
<line x1="90.6" y1="238.1" x2="130.0" y2="229.9" stroke="rgb(0,0,0)"  stroke-width="1.0"/>
<line x1="98.0" y1="244.0" x2="125.6" y2="238.2" stroke="rgb(0,0,0)"  stroke-width="1.0"/>
<text x="136.100470" y="199.737574" fill="rgb(12,12,255)"  stroke="rgb(12,12,255)" stroke-width="1" font-size="16" >N</text>
<text x="112.493172" y="167.456917" fill="rgb(12,12,255)"  stroke="rgb(12,12,255)" stroke-width="1" font-size="16" >N</text>
<text x="136.100470" y="134.967087" fill="rgb(12,12,255)"  stroke="rgb(12,12,255)" stroke-width="1" font-size="16" >N</text>
<text x="208.741678" y="207.403987" fill="rgb(12,12,255)"  stroke="rgb(12,12,255)" stroke-width="1" font-size="16" >N</text>
<text x="243.250265" y="147.677961" fill="rgb(12,12,255)"  stroke="rgb(12,12,255)" stroke-width="1" font-size="16" >N</text>
<text x="266.152874" y="48.000000" fill="rgb(102,102,102)"  stroke="rgb(102,102,102)" stroke-width="1" font-size="16" >HC</text>
<text x="209.145429" y="87.553048" fill="rgb(255,12,12)"  stroke="rgb(255,12,12)" stroke-width="1" font-size="16" >O</text>
<text x="167.564596" y="335.334820" fill="rgb(102,102,102)"  stroke="rgb(102,102,102)" stroke-width="1" font-size="16" >CH</text>
<text x="191.564596" y="339.014820" fill="rgb(102,102,102)"  stroke="rgb(102,102,102)" stroke-width="1" font-size="13" >3</text>
<text x="14.000000" y="292.756069" fill="rgb(102,102,102)"  stroke="rgb(102,102,102)" stroke-width="1" font-size="16" >H</text>
<text x="26.000000" y="296.436069" fill="rgb(102,102,102)"  stroke="rgb(102,102,102)" stroke-width="1" font-size="13" >3</text>
<text x="32.500000" y="292.756069" fill="rgb(102,102,102)"  stroke="rgb(102,102,102)" stroke-width="1" font-size="16" >C</text>
<text font-size="18.000000" fill ="black" font-family="sans-serif"
x="10.000000" y="20.000000" ></text>
<title> - OBDepict</title>
</svg>
