<?xml version="1.0"?>
<svg xmlns="http://www.w3.org/2000/svg"
xmlns:xlink="http://www.w3.org/1999/xlink" xmlns:cml="http://www.xml-cml.org/schema" width="391.391" height="399.002" x="0" y="0" font-family="sans-serif" stroke="rgb(0,0,0)" stroke-width="1"  stroke-linecap="round">
<rect x="0%" y="0%" width="100%" height="100%" stroke-width="0" fill="rgb(255,255,255)"  />
<line x1="247.2" y1="219.2" x2="212.3" y2="239.7" stroke="rgb(0,0,0)"  stroke-width="1.0"/>
<line x1="270.7" y1="205.7" x2="247.2" y2="219.2" stroke="rgb(0,0,0)"  stroke-width="1.0"/>
<line x1="272.8" y1="209.3" x2="249.2" y2="222.8" stroke="rgb(0,0,0)"  stroke-width="1.0"/>
<line x1="268.6" y1="202.0" x2="245.1" y2="215.5" stroke="rgb(0,0,0)"  stroke-width="1.0"/>
<line x1="316.6" y1="300.2" x2="281.4" y2="280.6" stroke="rgb(0,0,0)"  stroke-width="1.0"/>
<line x1="340.0" y1="313.3" x2="316.6" y2="300.2" stroke="rgb(0,0,0)"  stroke-width="1.0"/>
<line x1="338.0" y1="317.0" x2="314.5" y2="303.9" stroke="rgb(0,0,0)"  stroke-width="1.0"/>
<line x1="342.1" y1="309.6" x2="318.6" y2="296.6" stroke="rgb(0,0,0)"  stroke-width="1.0"/>
<line x1="177.9" y1="180.2" x2="177.9" y2="219.2" stroke="rgb(0,0,0)"  stroke-width="1.0"/>
<line x1="109.4" y1="299.7" x2="143.1" y2="280.1" stroke="rgb(0,0,0)"  stroke-width="1.0"/>
<line x1="235.9" y1="293.7" x2="212.3" y2="280.1" stroke="rgb(0,0,0)"  stroke-width="1.0"/>
<line x1="281.4" y1="280.6" x2="258.4" y2="293.8" stroke="rgb(0,0,0)"  stroke-width="1.0"/>
<line x1="177.9" y1="72.4" x2="177.9" y2="98.8" stroke="rgb(0,0,0)"  stroke-width="1.0"/>
<line x1="155.0" y1="46.4" x2="166.6" y2="53.0" stroke="rgb(0,0,0)"  stroke-width="1.0"/>
<line x1="212.3" y1="239.7" x2="212.3" y2="280.1" stroke="rgb(0,0,0)"  stroke-width="1.0"/>
<line x1="205.1" y1="245.7" x2="205.1" y2="274.1" stroke="rgb(0,0,0)"  stroke-width="1.0"/>
<line x1="212.3" y1="280.1" x2="189.2" y2="293.2" stroke="rgb(0,0,0)"  stroke-width="1.0"/>
<line x1="166.4" y1="293.2" x2="143.1" y2="280.1" stroke="rgb(0,0,0)"  stroke-width="1.0"/>
<line x1="168.2" y1="285.9" x2="151.9" y2="276.7" stroke="rgb(0,0,0)"  stroke-width="1.0"/>
<line x1="143.1" y1="280.1" x2="143.1" y2="239.7" stroke="rgb(0,0,0)"  stroke-width="1.0"/>
<line x1="143.1" y1="239.7" x2="177.9" y2="219.2" stroke="rgb(0,0,0)"  stroke-width="1.0"/>
<line x1="151.9" y1="242.9" x2="176.4" y2="228.4" stroke="rgb(0,0,0)"  stroke-width="1.0"/>
<line x1="177.9" y1="219.2" x2="212.3" y2="239.7" stroke="rgb(0,0,0)"  stroke-width="1.0"/>
<line x1="177.9" y1="180.2" x2="212.9" y2="159.6" stroke="rgb(0,0,0)"  stroke-width="1.0"/>
<line x1="212.9" y1="159.6" x2="212.9" y2="119.3" stroke="rgb(0,0,0)"  stroke-width="1.0"/>
<line x1="205.7" y1="153.6" x2="205.7" y2="125.3" stroke="rgb(0,0,0)"  stroke-width="1.0"/>
<line x1="212.9" y1="119.3" x2="177.9" y2="98.8" stroke="rgb(0,0,0)"  stroke-width="1.0"/>
<line x1="177.9" y1="98.8" x2="143.1" y2="119.3" stroke="rgb(0,0,0)"  stroke-width="1.0"/>
<line x1="176.4" y1="108.0" x2="151.9" y2="122.5" stroke="rgb(0,0,0)"  stroke-width="1.0"/>
<line x1="143.1" y1="119.3" x2="143.1" y2="159.6" stroke="rgb(0,0,0)"  stroke-width="1.0"/>
<line x1="143.1" y1="159.6" x2="177.9" y2="180.2" stroke="rgb(0,0,0)"  stroke-width="1.0"/>
<line x1="151.9" y1="156.5" x2="176.4" y2="170.9" stroke="rgb(0,0,0)"  stroke-width="1.0"/>
<line x1="109.4" y1="299.7" x2="109.4" y2="340.0" stroke="rgb(0,0,0)"  stroke-width="1.0"/>
<line x1="102.2" y1="305.7" x2="102.2" y2="334.0" stroke="rgb(0,0,0)"  stroke-width="1.0"/>
<line x1="109.4" y1="340.0" x2="74.2" y2="359.0" stroke="rgb(0,0,0)"  stroke-width="1.0"/>
<line x1="74.2" y1="359.0" x2="40.0" y2="340.0" stroke="rgb(0,0,0)"  stroke-width="1.0"/>
<line x1="72.5" y1="349.8" x2="48.7" y2="336.6" stroke="rgb(0,0,0)"  stroke-width="1.0"/>
<line x1="40.0" y1="340.0" x2="40.0" y2="299.7" stroke="rgb(0,0,0)"  stroke-width="1.0"/>
<line x1="40.0" y1="299.7" x2="74.2" y2="280.1" stroke="rgb(0,0,0)"  stroke-width="1.0"/>
<line x1="48.8" y1="302.9" x2="72.6" y2="289.3" stroke="rgb(0,0,0)"  stroke-width="1.0"/>
<line x1="74.2" y1="280.1" x2="109.4" y2="299.7" stroke="rgb(0,0,0)"  stroke-width="1.0"/>
<text x="171.908387" y="307.652351" fill="rgb(12,12,255)"  stroke="rgb(12,12,255)" stroke-width="1" font-size="16" >N</text>
<text x="275.962890" y="207.214925" fill="rgb(12,12,255)"  stroke="rgb(12,12,255)" stroke-width="1" font-size="16" >N</text>
<text x="345.391214" y="327.624481" fill="rgb(102,102,102)"  stroke="rgb(102,102,102)" stroke-width="1" font-size="16" >CH</text>
<text x="241.150969" y="308.224240" fill="rgb(178,178,0)"  stroke="rgb(178,178,0)" stroke-width="1" font-size="16" >S</text>
<text x="171.908387" y="67.400241" fill="rgb(255,12,12)"  stroke="rgb(255,12,12)" stroke-width="1" font-size="16" >O</text>
<text x="117.668356" y="48.000000" fill="rgb(102,102,102)"  stroke="rgb(102,102,102)" stroke-width="1" font-size="16" >H</text>
<text x="129.668356" y="51.680000" fill="rgb(102,102,102)"  stroke="rgb(102,102,102)" stroke-width="1" font-size="13" >3</text>
<text x="136.168356" y="48.000000" fill="rgb(102,102,102)"  stroke="rgb(102,102,102)" stroke-width="1" font-size="16" >C</text>
<text font-size="18.000000" fill ="black" font-family="sans-serif"
x="10.000000" y="20.000000" ></text>
<title> - OBDepict</title>
</svg>
