<?xml version="1.0"?>
<svg xmlns="http://www.w3.org/2000/svg"
xmlns:xlink="http://www.w3.org/1999/xlink" xmlns:cml="http://www.xml-cml.org/schema" width="385.521" height="254.38" x="0" y="0" font-family="sans-serif" stroke="rgb(0,0,0)" stroke-width="1"  stroke-linecap="round">
<rect x="0%" y="0%" width="100%" height="100%" stroke-width="0" fill="rgb(255,255,255)"  />
<line x1="245.5" y1="144.1" x2="205.5" y2="144.1" stroke="rgb(0,0,0)"  stroke-width="1.0"/>
<line x1="325.5" y1="74.8" x2="305.5" y2="109.3" stroke="rgb(0,0,0)"  stroke-width="1.0"/>
<line x1="339.0" y1="51.3" x2="325.5" y2="74.8" stroke="rgb(0,0,0)"  stroke-width="1.0"/>
<line x1="342.7" y1="53.4" x2="329.2" y2="76.8" stroke="rgb(0,0,0)"  stroke-width="1.0"/>
<line x1="335.4" y1="49.2" x2="321.9" y2="72.7" stroke="rgb(0,0,0)"  stroke-width="1.0"/>
<line x1="256.4" y1="168.9" x2="242.9" y2="145.6" stroke="rgb(0,0,0)"  stroke-width="1.0"/>
<line x1="261.6" y1="165.9" x2="248.1" y2="142.6" stroke="rgb(0,0,0)"  stroke-width="1.0"/>
<line x1="259.0" y1="120.6" x2="245.5" y2="144.1" stroke="rgb(0,0,0)"  stroke-width="1.0"/>
<line x1="190.4" y1="202.0" x2="182.0" y2="176.4" stroke="rgb(0,0,0)"  stroke-width="1.0"/>
<line x1="305.5" y1="109.3" x2="278.5" y2="109.3" stroke="rgb(0,0,0)"  stroke-width="1.0"/>
<line x1="205.5" y1="144.1" x2="182.0" y2="176.4" stroke="rgb(0,0,0)"  stroke-width="1.0"/>
<line x1="196.1" y1="144.7" x2="179.7" y2="167.3" stroke="rgb(0,0,0)"  stroke-width="1.0"/>
<line x1="182.0" y1="176.4" x2="143.9" y2="164.1" stroke="rgb(0,0,0)"  stroke-width="1.0"/>
<line x1="143.9" y1="164.1" x2="143.9" y2="124.1" stroke="rgb(0,0,0)"  stroke-width="1.0"/>
<line x1="143.9" y1="124.1" x2="169.7" y2="115.7" stroke="rgb(0,0,0)"  stroke-width="1.0"/>
<line x1="189.7" y1="122.3" x2="205.5" y2="144.1" stroke="rgb(0,0,0)"  stroke-width="1.0"/>
<line x1="109.3" y1="104.1" x2="74.8" y2="124.1" stroke="rgb(0,0,0)"  stroke-width="1.0"/>
<line x1="74.8" y1="124.1" x2="74.8" y2="164.1" stroke="rgb(0,0,0)"  stroke-width="1.0"/>
<line x1="82.0" y1="130.1" x2="82.0" y2="158.1" stroke="rgb(0,0,0)"  stroke-width="1.0"/>
<line x1="74.8" y1="164.1" x2="109.3" y2="184.1" stroke="rgb(0,0,0)"  stroke-width="1.0"/>
<line x1="109.3" y1="184.1" x2="143.9" y2="164.1" stroke="rgb(0,0,0)"  stroke-width="1.0"/>
<line x1="110.9" y1="174.8" x2="135.1" y2="160.8" stroke="rgb(0,0,0)"  stroke-width="1.0"/>
<line x1="143.9" y1="124.1" x2="109.3" y2="104.1" stroke="rgb(0,0,0)"  stroke-width="1.0"/>
<line x1="135.1" y1="127.3" x2="110.9" y2="113.3" stroke="rgb(0,0,0)"  stroke-width="1.0"/>
<line x1="40.0" y1="104.1" x2="74.8" y2="124.1" stroke="rgb(0,0,0)"  stroke-width="1.0"/>
<line x1="109.3" y1="104.1" x2="109.3" y2="64.0" stroke="rgb(0,0,0)"  stroke-width="1.0"/>
<line x1="109.3" y1="64.0" x2="74.8" y2="44.0" stroke="rgb(0,0,0)"  stroke-width="1.0"/>
<line x1="100.5" y1="67.3" x2="76.3" y2="53.3" stroke="rgb(0,0,0)"  stroke-width="1.0"/>
<line x1="74.8" y1="44.0" x2="40.0" y2="64.0" stroke="rgb(0,0,0)"  stroke-width="1.0"/>
<line x1="40.0" y1="64.0" x2="40.0" y2="104.1" stroke="rgb(0,0,0)"  stroke-width="1.0"/>
<line x1="47.2" y1="70.0" x2="47.2" y2="98.1" stroke="rgb(0,0,0)"  stroke-width="1.0"/>
<text x="176.047717" y="119.729466" fill="rgb(255,12,12)"  stroke="rgb(255,12,12)" stroke-width="1" font-size="16" >O</text>
<text x="339.520677" y="48.000000" fill="rgb(102,102,102)"  stroke="rgb(102,102,102)" stroke-width="1" font-size="16" >CH</text>
<text x="259.503357" y="186.614246" fill="rgb(255,12,12)"  stroke="rgb(255,12,12)" stroke-width="1" font-size="16" >O</text>
<text x="259.503357" y="117.304698" fill="rgb(12,12,255)"  stroke="rgb(12,12,255)" stroke-width="1" font-size="16" >N</text>
<text x="259.503357" y="101.304698" fill="rgb(12,12,255)"  stroke="rgb(12,12,255)" stroke-width="1" font-size="16" >H</text>
<text x="190.375234" y="222.379564" fill="rgb(102,102,102)"  stroke="rgb(102,102,102)" stroke-width="1" font-size="16" >CH</text>
<text x="214.375234" y="226.059564" fill="rgb(102,102,102)"  stroke="rgb(102,102,102)" stroke-width="1" font-size="13" >3</text>
<text font-size="18.000000" fill ="black" font-family="sans-serif"
x="10.000000" y="20.000000" ></text>
<title> - OBDepict</title>
</svg>
