<?xml version="1.0"?>
<svg xmlns="http://www.w3.org/2000/svg"
xmlns:xlink="http://www.w3.org/1999/xlink" xmlns:cml="http://www.xml-cml.org/schema" width="358.977" height="325.562" x="0" y="0" font-family="sans-serif" stroke="rgb(0,0,0)" stroke-width="1"  stroke-linecap="round">
<rect x="0%" y="0%" width="100%" height="100%" stroke-width="0" fill="rgb(255,255,255)"  />
<line x1="211.6" y1="194.4" x2="185.0" y2="200.0" stroke="rgb(0,0,0)"  stroke-width="1.0"/>
<line x1="245.4" y1="158.1" x2="235.2" y2="132.5" stroke="rgb(0,0,0)"  stroke-width="1.0"/>
<line x1="185.0" y1="200.0" x2="158.2" y2="168.7" stroke="rgb(0,0,0)"  stroke-width="1.0"/>
<line x1="187.9" y1="201.0" x2="178.8" y2="226.3" stroke="rgb(0,0,0)"  stroke-width="1.0"/>
<line x1="182.2" y1="199.0" x2="173.2" y2="224.3" stroke="rgb(0,0,0)"  stroke-width="1.0"/>
<line x1="217.6" y1="118.4" x2="190.3" y2="114.2" stroke="rgb(0,0,0)"  stroke-width="1.0"/>
<line x1="190.3" y1="114.2" x2="175.2" y2="77.7" stroke="rgb(0,0,0)"  stroke-width="1.0"/>
<line x1="175.2" y1="77.7" x2="164.5" y2="52.0" stroke="rgb(0,0,0)"  stroke-width="1.0"/>
<line x1="171.3" y1="79.3" x2="160.6" y2="53.6" stroke="rgb(0,0,0)"  stroke-width="1.0"/>
<line x1="179.1" y1="76.1" x2="168.3" y2="50.4" stroke="rgb(0,0,0)"  stroke-width="1.0"/>
<line x1="232.6" y1="201.8" x2="249.8" y2="222.3" stroke="rgb(0,0,0)"  stroke-width="1.0"/>
<line x1="249.8" y1="222.3" x2="286.8" y2="207.2" stroke="rgb(0,0,0)"  stroke-width="1.0"/>
<line x1="252.7" y1="213.4" x2="278.5" y2="202.8" stroke="rgb(0,0,0)"  stroke-width="1.0"/>
<line x1="286.8" y1="207.2" x2="285.6" y2="180.8" stroke="rgb(0,0,0)"  stroke-width="1.0"/>
<line x1="271.9" y1="164.6" x2="245.4" y2="158.1" stroke="rgb(0,0,0)"  stroke-width="1.0"/>
<line x1="268.3" y1="171.1" x2="249.5" y2="166.5" stroke="rgb(0,0,0)"  stroke-width="1.0"/>
<line x1="245.4" y1="158.1" x2="231.2" y2="180.8" stroke="rgb(0,0,0)"  stroke-width="1.0"/>
<line x1="60.8" y1="95.2" x2="40.0" y2="110.7" stroke="rgb(0,0,0)"  stroke-width="1.0"/>
<line x1="40.0" y1="110.7" x2="48.6" y2="135.9" stroke="rgb(0,0,0)"  stroke-width="1.0"/>
<line x1="65.8" y1="148.2" x2="92.0" y2="148.2" stroke="rgb(0,0,0)"  stroke-width="1.0"/>
<line x1="92.0" y1="148.2" x2="104.7" y2="109.7" stroke="rgb(0,0,0)"  stroke-width="1.0"/>
<line x1="87.1" y1="140.3" x2="96.0" y2="113.2" stroke="rgb(0,0,0)"  stroke-width="1.0"/>
<line x1="104.7" y1="109.7" x2="82.1" y2="94.6" stroke="rgb(0,0,0)"  stroke-width="1.0"/>
<line x1="319.0" y1="231.2" x2="286.8" y2="207.2" stroke="rgb(0,0,0)"  stroke-width="1.0"/>
<line x1="249.8" y1="222.3" x2="245.4" y2="261.5" stroke="rgb(0,0,0)"  stroke-width="1.0"/>
<line x1="245.4" y1="261.5" x2="277.9" y2="285.6" stroke="rgb(0,0,0)"  stroke-width="1.0"/>
<line x1="254.5" y1="259.3" x2="277.3" y2="276.2" stroke="rgb(0,0,0)"  stroke-width="1.0"/>
<line x1="277.9" y1="285.6" x2="313.6" y2="271.4" stroke="rgb(0,0,0)"  stroke-width="1.0"/>
<line x1="313.6" y1="271.4" x2="319.0" y2="231.2" stroke="rgb(0,0,0)"  stroke-width="1.0"/>
<line x1="307.2" y1="264.5" x2="311.0" y2="236.2" stroke="rgb(0,0,0)"  stroke-width="1.0"/>
<line x1="158.2" y1="168.7" x2="170.7" y2="130.4" stroke="rgb(0,0,0)"  stroke-width="1.0"/>
<line x1="170.7" y1="130.4" x2="142.7" y2="100.8" stroke="rgb(0,0,0)"  stroke-width="1.0"/>
<line x1="161.4" y1="131.0" x2="141.6" y2="110.1" stroke="rgb(0,0,0)"  stroke-width="1.0"/>
<line x1="142.7" y1="100.8" x2="104.7" y2="109.7" stroke="rgb(0,0,0)"  stroke-width="1.0"/>
<line x1="92.0" y1="148.2" x2="119.8" y2="177.6" stroke="rgb(0,0,0)"  stroke-width="1.0"/>
<line x1="119.8" y1="177.6" x2="158.2" y2="168.7" stroke="rgb(0,0,0)"  stroke-width="1.0"/>
<line x1="124.0" y1="169.3" x2="150.8" y2="163.1" stroke="rgb(0,0,0)"  stroke-width="1.0"/>
<text x="218.292133" y="199.802069" fill="rgb(12,12,255)"  stroke="rgb(12,12,255)" stroke-width="1" font-size="16" >N</text>
<text x="278.948692" y="175.783864" fill="rgb(12,12,255)"  stroke="rgb(12,12,255)" stroke-width="1" font-size="16" >N</text>
<text x="224.446403" y="128.365801" fill="rgb(178,178,0)"  stroke="rgb(178,178,0)" stroke-width="1" font-size="16" >S</text>
<text x="165.635151" y="245.525760" fill="rgb(255,12,12)"  stroke="rgb(255,12,12)" stroke-width="1" font-size="16" >O</text>
<text x="141.472679" y="48.000000" fill="rgb(102,102,102)"  stroke="rgb(102,102,102)" stroke-width="1" font-size="16" >HC</text>
<text x="46.780821" y="156.230425" fill="rgb(255,12,12)"  stroke="rgb(255,12,12)" stroke-width="1" font-size="16" >O</text>
<text x="65.253367" y="95.418063" fill="rgb(255,12,12)"  stroke="rgb(255,12,12)" stroke-width="1" font-size="16" >O</text>
<text font-size="18.000000" fill ="black" font-family="sans-serif"
x="10.000000" y="20.000000" ></text>
<title> - OBDepict</title>
</svg>
