<?xml version="1.0"?>
<svg xmlns="http://www.w3.org/2000/svg"
xmlns:xlink="http://www.w3.org/1999/xlink" xmlns:cml="http://www.xml-cml.org/schema" width="419.775" height="283.503" x="0" y="0" font-family="sans-serif" stroke="rgb(0,0,0)" stroke-width="1"  stroke-linecap="round">
<rect x="0%" y="0%" width="100%" height="100%" stroke-width="0" fill="rgb(255,255,255)"  />
<line x1="266.6" y1="117.2" x2="239.6" y2="116.9" stroke="rgb(0,0,0)"  stroke-width="1.0"/>
<line x1="266.7" y1="111.2" x2="239.7" y2="110.9" stroke="rgb(0,0,0)"  stroke-width="1.0"/>
<line x1="85.2" y1="80.2" x2="109.0" y2="93.9" stroke="rgb(0,0,0)"  stroke-width="1.0"/>
<line x1="299.6" y1="79.8" x2="286.2" y2="103.0" stroke="rgb(0,0,0)"  stroke-width="1.0"/>
<line x1="201.7" y1="213.8" x2="228.4" y2="184.1" stroke="rgb(0,0,0)"  stroke-width="1.0"/>
<line x1="183.7" y1="233.8" x2="201.7" y2="213.8" stroke="rgb(0,0,0)"  stroke-width="1.0"/>
<line x1="180.6" y1="231.0" x2="198.6" y2="211.0" stroke="rgb(0,0,0)"  stroke-width="1.0"/>
<line x1="186.9" y1="236.6" x2="204.8" y2="216.6" stroke="rgb(0,0,0)"  stroke-width="1.0"/>
<line x1="90.7" y1="52.6" x2="83.4" y2="64.3" stroke="rgb(0,0,0)"  stroke-width="1.0"/>
<line x1="85.7" y1="49.4" x2="78.3" y2="61.1" stroke="rgb(0,0,0)"  stroke-width="1.0"/>
<line x1="57.0" y1="95.2" x2="64.5" y2="83.2" stroke="rgb(0,0,0)"  stroke-width="1.0"/>
<line x1="62.1" y1="98.4" x2="69.6" y2="86.3" stroke="rgb(0,0,0)"  stroke-width="1.0"/>
<line x1="339.6" y1="79.8" x2="299.6" y2="79.8" stroke="rgb(0,0,0)"  stroke-width="1.0"/>
<line x1="51.1" y1="59.6" x2="62.9" y2="66.9" stroke="rgb(0,0,0)"  stroke-width="1.0"/>
<line x1="288.7" y1="55.0" x2="302.2" y2="78.3" stroke="rgb(0,0,0)"  stroke-width="1.0"/>
<line x1="283.6" y1="58.0" x2="297.0" y2="81.3" stroke="rgb(0,0,0)"  stroke-width="1.0"/>
<line x1="228.4" y1="184.1" x2="220.2" y2="158.4" stroke="rgb(0,0,0)"  stroke-width="1.0"/>
<line x1="352.0" y1="103.6" x2="339.6" y2="79.8" stroke="rgb(0,0,0)"  stroke-width="1.0"/>
<line x1="354.6" y1="56.4" x2="339.6" y2="79.8" stroke="rgb(0,0,0)"  stroke-width="1.0"/>
<line x1="366.8" y1="78.9" x2="339.6" y2="79.8" stroke="rgb(0,0,0)"  stroke-width="1.0"/>
<line x1="239.7" y1="113.9" x2="223.9" y2="92.1" stroke="rgb(0,0,0)"  stroke-width="1.0"/>
<line x1="203.9" y1="85.6" x2="178.1" y2="93.9" stroke="rgb(0,0,0)"  stroke-width="1.0"/>
<line x1="178.1" y1="93.9" x2="178.1" y2="133.9" stroke="rgb(0,0,0)"  stroke-width="1.0"/>
<line x1="185.3" y1="99.9" x2="185.3" y2="127.9" stroke="rgb(0,0,0)"  stroke-width="1.0"/>
<line x1="178.1" y1="133.9" x2="203.9" y2="142.1" stroke="rgb(0,0,0)"  stroke-width="1.0"/>
<line x1="223.9" y1="135.5" x2="239.7" y2="113.9" stroke="rgb(0,0,0)"  stroke-width="1.0"/>
<line x1="109.0" y1="93.9" x2="143.6" y2="73.9" stroke="rgb(0,0,0)"  stroke-width="1.0"/>
<line x1="117.8" y1="97.1" x2="142.0" y2="83.2" stroke="rgb(0,0,0)"  stroke-width="1.0"/>
<line x1="143.6" y1="73.9" x2="178.1" y2="93.9" stroke="rgb(0,0,0)"  stroke-width="1.0"/>
<line x1="178.1" y1="133.9" x2="143.6" y2="153.9" stroke="rgb(0,0,0)"  stroke-width="1.0"/>
<line x1="143.6" y1="153.9" x2="109.0" y2="133.9" stroke="rgb(0,0,0)"  stroke-width="1.0"/>
<line x1="142.0" y1="144.6" x2="117.8" y2="130.7" stroke="rgb(0,0,0)"  stroke-width="1.0"/>
<line x1="109.0" y1="133.9" x2="109.0" y2="93.9" stroke="rgb(0,0,0)"  stroke-width="1.0"/>
<text x="273.636719" y="122.294152" fill="rgb(12,12,255)"  stroke="rgb(12,12,255)" stroke-width="1" font-size="16" >N</text>
<text x="67.914688" y="81.711606" fill="rgb(178,178,0)"  stroke="rgb(178,178,0)" stroke-width="1" font-size="16" >S</text>
<text x="210.246134" y="153.989445" fill="rgb(12,12,255)"  stroke="rgb(12,12,255)" stroke-width="1" font-size="16" >N</text>
<text x="210.246134" y="89.588285" fill="rgb(178,178,0)"  stroke="rgb(178,178,0)" stroke-width="1" font-size="16" >S</text>
<text x="157.059177" y="251.502635" fill="rgb(102,102,102)"  stroke="rgb(102,102,102)" stroke-width="1" font-size="16" >HC</text>
<text x="89.112577" y="48.000000" fill="rgb(255,12,12)"  stroke="rgb(255,12,12)" stroke-width="1" font-size="16" >O</text>
<text x="46.716799" y="115.834212" fill="rgb(255,12,12)"  stroke="rgb(255,12,12)" stroke-width="1" font-size="16" >O</text>
<text x="14.000000" y="60.716799" fill="rgb(12,12,255)"  stroke="rgb(12,12,255)" stroke-width="1" font-size="16" >H</text>
<text x="26.000000" y="64.396799" fill="rgb(12,12,255)"  stroke="rgb(12,12,255)" stroke-width="1" font-size="13" >2</text>
<text x="32.500000" y="60.716799" fill="rgb(12,12,255)"  stroke="rgb(12,12,255)" stroke-width="1" font-size="16" >N</text>
<text x="273.636719" y="53.246284" fill="rgb(255,12,12)"  stroke="rgb(255,12,12)" stroke-width="1" font-size="16" >O</text>
<text x="353.973169" y="123.101645" fill="rgb(102,102,102)"  stroke="rgb(102,102,102)" stroke-width="1" font-size="16" >CH</text>
<text x="377.973169" y="126.781645" fill="rgb(102,102,102)"  stroke="rgb(102,102,102)" stroke-width="1" font-size="13" >3</text>
<text x="357.604468" y="53.449366" fill="rgb(102,102,102)"  stroke="rgb(102,102,102)" stroke-width="1" font-size="16" >CH</text>
<text x="381.604468" y="57.129366" fill="rgb(102,102,102)"  stroke="rgb(102,102,102)" stroke-width="1" font-size="13" >3</text>
<text x="375.775468" y="86.556562" fill="rgb(102,102,102)"  stroke="rgb(102,102,102)" stroke-width="1" font-size="16" >CH</text>
<text x="399.775468" y="90.236562" fill="rgb(102,102,102)"  stroke="rgb(102,102,102)" stroke-width="1" font-size="13" >3</text>
<text font-size="18.000000" fill ="black" font-family="sans-serif"
x="10.000000" y="20.000000" ></text>
<title> - OBDepict</title>
</svg>
