<?xml version="1.0"?>
<svg xmlns="http://www.w3.org/2000/svg"
xmlns:xlink="http://www.w3.org/1999/xlink" xmlns:cml="http://www.xml-cml.org/schema" width="391.991" height="359.768" x="0" y="0" font-family="sans-serif" stroke="rgb(0,0,0)" stroke-width="1"  stroke-linecap="round">
<rect x="0%" y="0%" width="100%" height="100%" stroke-width="0" fill="rgb(255,255,255)"  />
<line x1="317.1" y1="120.4" x2="282.3" y2="100.0" stroke="rgb(0,0,0)"  stroke-width="1.0"/>
<line x1="247.9" y1="120.0" x2="247.9" y2="160.0" stroke="rgb(0,0,0)"  stroke-width="1.0"/>
<line x1="74.8" y1="299.6" x2="109.3" y2="279.7" stroke="rgb(0,0,0)"  stroke-width="1.0"/>
<line x1="51.3" y1="313.3" x2="74.8" y2="299.6" stroke="rgb(0,0,0)"  stroke-width="1.0"/>
<line x1="49.2" y1="309.6" x2="72.7" y2="296.0" stroke="rgb(0,0,0)"  stroke-width="1.0"/>
<line x1="53.4" y1="316.9" x2="76.9" y2="303.3" stroke="rgb(0,0,0)"  stroke-width="1.0"/>
<line x1="182.0" y1="133.2" x2="182.0" y2="160.0" stroke="rgb(0,0,0)"  stroke-width="1.0"/>
<line x1="176.0" y1="133.2" x2="176.0" y2="160.0" stroke="rgb(0,0,0)"  stroke-width="1.0"/>
<line x1="304.6" y1="236.0" x2="281.0" y2="222.5" stroke="rgb(0,0,0)"  stroke-width="1.0"/>
<line x1="307.6" y1="230.7" x2="284.0" y2="217.3" stroke="rgb(0,0,0)"  stroke-width="1.0"/>
<line x1="120.8" y1="233.3" x2="144.3" y2="219.9" stroke="rgb(0,0,0)"  stroke-width="1.0"/>
<line x1="303.4" y1="144.0" x2="317.1" y2="120.4" stroke="rgb(0,0,0)"  stroke-width="1.0"/>
<line x1="340.8" y1="134.2" x2="317.1" y2="120.4" stroke="rgb(0,0,0)"  stroke-width="1.0"/>
<line x1="330.9" y1="96.7" x2="317.1" y2="120.4" stroke="rgb(0,0,0)"  stroke-width="1.0"/>
<line x1="109.3" y1="279.7" x2="109.4" y2="252.8" stroke="rgb(0,0,0)"  stroke-width="1.0"/>
<line x1="213.4" y1="219.9" x2="213.4" y2="180.0" stroke="rgb(0,0,0)"  stroke-width="1.0"/>
<line x1="206.2" y1="213.9" x2="206.2" y2="186.0" stroke="rgb(0,0,0)"  stroke-width="1.0"/>
<line x1="213.4" y1="180.0" x2="179.0" y2="160.0" stroke="rgb(0,0,0)"  stroke-width="1.0"/>
<line x1="179.0" y1="160.0" x2="155.6" y2="173.5" stroke="rgb(0,0,0)"  stroke-width="1.0"/>
<line x1="144.3" y1="193.0" x2="144.3" y2="219.9" stroke="rgb(0,0,0)"  stroke-width="1.0"/>
<line x1="144.3" y1="219.9" x2="167.5" y2="233.2" stroke="rgb(0,0,0)"  stroke-width="1.0"/>
<line x1="153.1" y1="216.6" x2="169.4" y2="226.0" stroke="rgb(0,0,0)"  stroke-width="1.0"/>
<line x1="190.2" y1="233.3" x2="213.4" y2="219.9" stroke="rgb(0,0,0)"  stroke-width="1.0"/>
<line x1="213.4" y1="180.0" x2="247.9" y2="160.0" stroke="rgb(0,0,0)"  stroke-width="1.0"/>
<line x1="247.9" y1="160.0" x2="282.5" y2="180.0" stroke="rgb(0,0,0)"  stroke-width="1.0"/>
<line x1="282.5" y1="180.0" x2="282.5" y2="219.9" stroke="rgb(0,0,0)"  stroke-width="1.0"/>
<line x1="282.5" y1="219.9" x2="259.1" y2="233.3" stroke="rgb(0,0,0)"  stroke-width="1.0"/>
<line x1="236.6" y1="233.3" x2="213.4" y2="219.9" stroke="rgb(0,0,0)"  stroke-width="1.0"/>
<line x1="247.9" y1="120.0" x2="282.3" y2="100.0" stroke="rgb(0,0,0)"  stroke-width="1.0"/>
<line x1="249.4" y1="110.7" x2="273.5" y2="96.8" stroke="rgb(0,0,0)"  stroke-width="1.0"/>
<line x1="282.3" y1="100.0" x2="282.3" y2="59.9" stroke="rgb(0,0,0)"  stroke-width="1.0"/>
<line x1="282.3" y1="59.9" x2="247.9" y2="40.0" stroke="rgb(0,0,0)"  stroke-width="1.0"/>
<line x1="273.5" y1="63.2" x2="249.4" y2="49.2" stroke="rgb(0,0,0)"  stroke-width="1.0"/>
<line x1="247.9" y1="40.0" x2="213.2" y2="59.9" stroke="rgb(0,0,0)"  stroke-width="1.0"/>
<line x1="213.2" y1="59.9" x2="213.2" y2="100.0" stroke="rgb(0,0,0)"  stroke-width="1.0"/>
<line x1="220.4" y1="65.9" x2="220.4" y2="94.0" stroke="rgb(0,0,0)"  stroke-width="1.0"/>
<line x1="213.2" y1="100.0" x2="247.9" y2="120.0" stroke="rgb(0,0,0)"  stroke-width="1.0"/>
<text x="172.977991" y="247.804481" fill="rgb(12,12,255)"  stroke="rgb(12,12,255)" stroke-width="1" font-size="16" >N</text>
<text x="126.332812" y="187.980865" fill="rgb(12,12,255)"  stroke="rgb(12,12,255)" stroke-width="1" font-size="16" >HN</text>
<text x="241.861386" y="247.804481" fill="rgb(12,12,255)"  stroke="rgb(12,12,255)" stroke-width="1" font-size="16" >N</text>
<text x="241.861386" y="263.804481" fill="rgb(12,12,255)"  stroke="rgb(12,12,255)" stroke-width="1" font-size="16" >H</text>
<text x="22.000000" y="327.767938" fill="rgb(102,102,102)"  stroke="rgb(102,102,102)" stroke-width="1" font-size="16" >HC</text>
<text x="172.977991" y="128.162094" fill="rgb(255,12,12)"  stroke="rgb(255,12,12)" stroke-width="1" font-size="16" >O</text>
<text x="311.350382" y="247.804481" fill="rgb(255,12,12)"  stroke="rgb(255,12,12)" stroke-width="1" font-size="16" >O</text>
<text x="103.488996" y="247.804481" fill="rgb(178,178,0)"  stroke="rgb(178,178,0)" stroke-width="1" font-size="16" >S</text>
<text x="290.803576" y="163.209392" fill="rgb(127,178,255)"  stroke="rgb(127,178,255)" stroke-width="1" font-size="16" >F</text>
<text x="345.990716" y="148.704055" fill="rgb(127,178,255)"  stroke="rgb(127,178,255)" stroke-width="1" font-size="16" >F</text>
<text x="331.490224" y="93.516915" fill="rgb(127,178,255)"  stroke="rgb(127,178,255)" stroke-width="1" font-size="16" >F</text>
<text font-size="18.000000" fill ="black" font-family="sans-serif"
x="10.000000" y="20.000000" ></text>
<title> - OBDepict</title>
</svg>
