<?xml version="1.0"?>
<svg xmlns="http://www.w3.org/2000/svg"
xmlns:xlink="http://www.w3.org/1999/xlink" xmlns:cml="http://www.xml-cml.org/schema" width="519.487" height="313.576" x="0" y="0" font-family="sans-serif" stroke="rgb(0,0,0)" stroke-width="1"  stroke-linecap="round">
<rect x="0%" y="0%" width="100%" height="100%" stroke-width="0" fill="rgb(255,255,255)"  />
<line x1="339.6" y1="109.9" x2="299.6" y2="109.9" stroke="rgb(0,0,0)"  stroke-width="1.0"/>
<line x1="266.6" y1="147.2" x2="239.6" y2="147.0" stroke="rgb(0,0,0)"  stroke-width="1.0"/>
<line x1="266.7" y1="141.2" x2="239.7" y2="141.0" stroke="rgb(0,0,0)"  stroke-width="1.0"/>
<line x1="85.2" y1="110.3" x2="109.0" y2="124.0" stroke="rgb(0,0,0)"  stroke-width="1.0"/>
<line x1="299.6" y1="109.9" x2="286.1" y2="133.1" stroke="rgb(0,0,0)"  stroke-width="1.0"/>
<line x1="201.7" y1="243.9" x2="228.4" y2="214.2" stroke="rgb(0,0,0)"  stroke-width="1.0"/>
<line x1="183.7" y1="263.9" x2="201.7" y2="243.9" stroke="rgb(0,0,0)"  stroke-width="1.0"/>
<line x1="180.6" y1="261.1" x2="198.6" y2="241.1" stroke="rgb(0,0,0)"  stroke-width="1.0"/>
<line x1="186.9" y1="266.7" x2="204.8" y2="246.7" stroke="rgb(0,0,0)"  stroke-width="1.0"/>
<line x1="90.7" y1="82.7" x2="83.4" y2="94.4" stroke="rgb(0,0,0)"  stroke-width="1.0"/>
<line x1="85.7" y1="79.5" x2="78.3" y2="91.2" stroke="rgb(0,0,0)"  stroke-width="1.0"/>
<line x1="57.0" y1="125.3" x2="64.5" y2="113.3" stroke="rgb(0,0,0)"  stroke-width="1.0"/>
<line x1="62.1" y1="128.5" x2="69.6" y2="116.4" stroke="rgb(0,0,0)"  stroke-width="1.0"/>
<line x1="343.1" y1="166.9" x2="357.0" y2="142.9" stroke="rgb(0,0,0)"  stroke-width="1.0"/>
<line x1="348.3" y1="169.9" x2="362.2" y2="145.9" stroke="rgb(0,0,0)"  stroke-width="1.0"/>
<line x1="288.7" y1="85.1" x2="302.2" y2="108.3" stroke="rgb(0,0,0)"  stroke-width="1.0"/>
<line x1="283.5" y1="88.1" x2="297.0" y2="111.4" stroke="rgb(0,0,0)"  stroke-width="1.0"/>
<line x1="51.1" y1="89.6" x2="62.9" y2="97.0" stroke="rgb(0,0,0)"  stroke-width="1.0"/>
<line x1="228.4" y1="214.2" x2="220.2" y2="188.5" stroke="rgb(0,0,0)"  stroke-width="1.0"/>
<line x1="239.7" y1="144.0" x2="223.9" y2="122.2" stroke="rgb(0,0,0)"  stroke-width="1.0"/>
<line x1="203.9" y1="115.7" x2="178.1" y2="124.0" stroke="rgb(0,0,0)"  stroke-width="1.0"/>
<line x1="178.1" y1="124.0" x2="178.1" y2="164.0" stroke="rgb(0,0,0)"  stroke-width="1.0"/>
<line x1="185.3" y1="130.0" x2="185.3" y2="158.0" stroke="rgb(0,0,0)"  stroke-width="1.0"/>
<line x1="178.1" y1="164.0" x2="203.8" y2="172.1" stroke="rgb(0,0,0)"  stroke-width="1.0"/>
<line x1="223.9" y1="165.6" x2="239.7" y2="144.0" stroke="rgb(0,0,0)"  stroke-width="1.0"/>
<line x1="339.6" y1="109.9" x2="359.6" y2="144.4" stroke="rgb(0,0,0)"  stroke-width="1.0"/>
<line x1="359.6" y1="144.4" x2="386.1" y2="144.4" stroke="rgb(0,0,0)"  stroke-width="1.0"/>
<line x1="405.7" y1="133.1" x2="419.5" y2="109.4" stroke="rgb(0,0,0)"  stroke-width="1.0"/>
<line x1="419.5" y1="109.4" x2="399.7" y2="74.9" stroke="rgb(0,0,0)"  stroke-width="1.0"/>
<line x1="410.3" y1="107.8" x2="396.5" y2="83.7" stroke="rgb(0,0,0)"  stroke-width="1.0"/>
<line x1="399.7" y1="74.9" x2="359.8" y2="74.9" stroke="rgb(0,0,0)"  stroke-width="1.0"/>
<line x1="359.8" y1="74.9" x2="339.6" y2="109.9" stroke="rgb(0,0,0)"  stroke-width="1.0"/>
<line x1="363.0" y1="83.7" x2="348.8" y2="108.3" stroke="rgb(0,0,0)"  stroke-width="1.0"/>
<line x1="419.7" y1="40.2" x2="459.7" y2="40.0" stroke="rgb(0,0,0)"  stroke-width="1.0"/>
<line x1="425.8" y1="47.4" x2="453.7" y2="47.2" stroke="rgb(0,0,0)"  stroke-width="1.0"/>
<line x1="459.7" y1="40.0" x2="479.5" y2="74.9" stroke="rgb(0,0,0)"  stroke-width="1.0"/>
<line x1="479.5" y1="74.9" x2="459.5" y2="109.4" stroke="rgb(0,0,0)"  stroke-width="1.0"/>
<line x1="470.2" y1="76.5" x2="456.3" y2="100.6" stroke="rgb(0,0,0)"  stroke-width="1.0"/>
<line x1="459.5" y1="109.4" x2="419.5" y2="109.4" stroke="rgb(0,0,0)"  stroke-width="1.0"/>
<line x1="399.7" y1="74.9" x2="419.7" y2="40.2" stroke="rgb(0,0,0)"  stroke-width="1.0"/>
<line x1="109.0" y1="124.0" x2="143.6" y2="104.0" stroke="rgb(0,0,0)"  stroke-width="1.0"/>
<line x1="117.8" y1="127.2" x2="142.0" y2="113.2" stroke="rgb(0,0,0)"  stroke-width="1.0"/>
<line x1="143.6" y1="104.0" x2="178.1" y2="124.0" stroke="rgb(0,0,0)"  stroke-width="1.0"/>
<line x1="178.1" y1="164.0" x2="143.6" y2="183.9" stroke="rgb(0,0,0)"  stroke-width="1.0"/>
<line x1="143.6" y1="183.9" x2="109.0" y2="164.0" stroke="rgb(0,0,0)"  stroke-width="1.0"/>
<line x1="142.0" y1="174.7" x2="117.8" y2="160.7" stroke="rgb(0,0,0)"  stroke-width="1.0"/>
<line x1="109.0" y1="164.0" x2="109.0" y2="124.0" stroke="rgb(0,0,0)"  stroke-width="1.0"/>
<text x="273.627799" y="152.372640" fill="rgb(12,12,255)"  stroke="rgb(12,12,255)" stroke-width="1" font-size="16" >N</text>
<text x="67.915536" y="111.795124" fill="rgb(178,178,0)"  stroke="rgb(178,178,0)" stroke-width="1" font-size="16" >S</text>
<text x="210.239662" y="184.069131" fill="rgb(12,12,255)"  stroke="rgb(12,12,255)" stroke-width="1" font-size="16" >N</text>
<text x="210.239662" y="119.668373" fill="rgb(178,178,0)"  stroke="rgb(178,178,0)" stroke-width="1" font-size="16" >S</text>
<text x="393.141304" y="152.372640" fill="rgb(255,12,12)"  stroke="rgb(255,12,12)" stroke-width="1" font-size="16" >O</text>
<text x="157.056510" y="281.576298" fill="rgb(102,102,102)"  stroke="rgb(102,102,102)" stroke-width="1" font-size="16" >HC</text>
<text x="89.112746" y="78.083081" fill="rgb(255,12,12)"  stroke="rgb(255,12,12)" stroke-width="1" font-size="16" >O</text>
<text x="46.718326" y="145.914153" fill="rgb(255,12,12)"  stroke="rgb(255,12,12)" stroke-width="1" font-size="16" >O</text>
<text x="333.183481" y="187.702939" fill="rgb(255,12,12)"  stroke="rgb(255,12,12)" stroke-width="1" font-size="16" >O</text>
<text x="273.627799" y="83.330299" fill="rgb(255,12,12)"  stroke="rgb(255,12,12)" stroke-width="1" font-size="16" >O</text>
<text x="14.000000" y="90.801407" fill="rgb(12,12,255)"  stroke="rgb(12,12,255)" stroke-width="1" font-size="16" >H</text>
<text x="26.000000" y="94.481407" fill="rgb(12,12,255)"  stroke="rgb(12,12,255)" stroke-width="1" font-size="13" >2</text>
<text x="32.500000" y="90.801407" fill="rgb(12,12,255)"  stroke="rgb(12,12,255)" stroke-width="1" font-size="16" >N</text>
<text font-size="18.000000" fill ="black" font-family="sans-serif"
x="10.000000" y="20.000000" ></text>
<title> - OBDepict</title>
</svg>
