<?xml version="1.0"?>
<svg xmlns="http://www.w3.org/2000/svg"
xmlns:xlink="http://www.w3.org/1999/xlink" xmlns:cml="http://www.xml-cml.org/schema" width="549.835" height="526.243" x="0" y="0" font-family="sans-serif" stroke="rgb(0,0,0)" stroke-width="1"  stroke-linecap="round">
<rect x="0%" y="0%" width="100%" height="100%" stroke-width="0" fill="rgb(255,255,255)"  />
<line x1="325.0" y1="206.3" x2="301.5" y2="220.3" stroke="rgb(0,0,0)"  stroke-width="1.0"/>
<line x1="188.0" y1="329.7" x2="164.7" y2="343.4" stroke="rgb(0,0,0)"  stroke-width="1.0"/>
<line x1="185.0" y1="324.5" x2="161.7" y2="338.3" stroke="rgb(0,0,0)"  stroke-width="1.0"/>
<line x1="197.7" y1="280.4" x2="197.7" y2="307.5" stroke="rgb(0,0,0)"  stroke-width="1.0"/>
<line x1="359.4" y1="186.3" x2="347.5" y2="193.2" stroke="rgb(0,0,0)"  stroke-width="1.0"/>
<line x1="335.3" y1="53.0" x2="335.0" y2="79.9" stroke="rgb(0,0,0)"  stroke-width="1.0"/>
<line x1="339.5" y1="53.0" x2="339.2" y2="80.0" stroke="rgb(0,0,0)"  stroke-width="1.0"/>
<line x1="331.1" y1="53.0" x2="330.8" y2="79.9" stroke="rgb(0,0,0)"  stroke-width="1.0"/>
<line x1="498.5" y1="212.3" x2="474.7" y2="199.1" stroke="rgb(0,0,0)"  stroke-width="1.0"/>
<line x1="496.4" y1="216.0" x2="472.7" y2="202.8" stroke="rgb(0,0,0)"  stroke-width="1.0"/>
<line x1="500.5" y1="208.7" x2="476.8" y2="195.4" stroke="rgb(0,0,0)"  stroke-width="1.0"/>
<line x1="179.5" y1="447.3" x2="188.6" y2="408.2" stroke="rgb(0,0,0)"  stroke-width="1.0"/>
<line x1="347.5" y1="225.1" x2="340.2" y2="212.5" stroke="rgb(0,0,0)"  stroke-width="1.0"/>
<line x1="352.7" y1="222.0" x2="345.3" y2="209.4" stroke="rgb(0,0,0)"  stroke-width="1.0"/>
<line x1="324.9" y1="174.8" x2="332.1" y2="187.0" stroke="rgb(0,0,0)"  stroke-width="1.0"/>
<line x1="319.7" y1="177.9" x2="327.0" y2="190.1" stroke="rgb(0,0,0)"  stroke-width="1.0"/>
<line x1="173.8" y1="473.5" x2="179.5" y2="447.3" stroke="rgb(0,0,0)"  stroke-width="1.0"/>
<line x1="169.7" y1="472.6" x2="175.4" y2="446.4" stroke="rgb(0,0,0)"  stroke-width="1.0"/>
<line x1="177.9" y1="474.4" x2="183.6" y2="448.2" stroke="rgb(0,0,0)"  stroke-width="1.0"/>
<line x1="335.0" y1="79.9" x2="335.6" y2="120.5" stroke="rgb(0,0,0)"  stroke-width="1.0"/>
<line x1="474.7" y1="199.1" x2="439.7" y2="179.1" stroke="rgb(0,0,0)"  stroke-width="1.0"/>
<line x1="232.2" y1="260.4" x2="197.7" y2="280.4" stroke="rgb(0,0,0)"  stroke-width="1.0"/>
<line x1="175.4" y1="264.2" x2="199.2" y2="277.8" stroke="rgb(0,0,0)"  stroke-width="1.0"/>
<line x1="172.4" y1="269.4" x2="196.2" y2="283.0" stroke="rgb(0,0,0)"  stroke-width="1.0"/>
<line x1="188.6" y1="408.2" x2="168.3" y2="389.2" stroke="rgb(0,0,0)"  stroke-width="1.0"/>
<line x1="439.7" y1="179.1" x2="405.2" y2="199.7" stroke="rgb(0,0,0)"  stroke-width="1.0"/>
<line x1="335.6" y1="120.5" x2="370.5" y2="139.8" stroke="rgb(0,0,0)"  stroke-width="1.0"/>
<line x1="112.2" y1="445.8" x2="99.1" y2="422.1" stroke="rgb(0,0,0)"  stroke-width="1.0"/>
<line x1="405.2" y1="199.7" x2="382.0" y2="186.3" stroke="rgb(0,0,0)"  stroke-width="1.0"/>
<line x1="370.5" y1="139.8" x2="370.6" y2="166.7" stroke="rgb(0,0,0)"  stroke-width="1.0"/>
<line x1="163.2" y1="340.9" x2="139.3" y2="329.6" stroke="rgb(0,0,0)"  stroke-width="1.0"/>
<line x1="118.6" y1="333.6" x2="100.3" y2="353.2" stroke="rgb(0,0,0)"  stroke-width="1.0"/>
<line x1="100.3" y1="353.2" x2="119.7" y2="388.2" stroke="rgb(0,0,0)"  stroke-width="1.0"/>
<line x1="109.5" y1="354.9" x2="123.1" y2="379.5" stroke="rgb(0,0,0)"  stroke-width="1.0"/>
<line x1="119.7" y1="388.2" x2="146.0" y2="382.9" stroke="rgb(0,0,0)"  stroke-width="1.0"/>
<line x1="160.2" y1="367.5" x2="163.2" y2="340.9" stroke="rgb(0,0,0)"  stroke-width="1.0"/>
<line x1="232.2" y1="260.4" x2="232.6" y2="220.9" stroke="rgb(0,0,0)"  stroke-width="1.0"/>
<line x1="232.6" y1="220.9" x2="266.7" y2="200.9" stroke="rgb(0,0,0)"  stroke-width="1.0"/>
<line x1="241.4" y1="224.1" x2="265.1" y2="210.2" stroke="rgb(0,0,0)"  stroke-width="1.0"/>
<line x1="266.7" y1="200.9" x2="301.5" y2="220.3" stroke="rgb(0,0,0)"  stroke-width="1.0"/>
<line x1="301.5" y1="220.3" x2="301.7" y2="260.4" stroke="rgb(0,0,0)"  stroke-width="1.0"/>
<line x1="294.4" y1="226.3" x2="294.5" y2="254.4" stroke="rgb(0,0,0)"  stroke-width="1.0"/>
<line x1="301.7" y1="260.4" x2="267.7" y2="280.4" stroke="rgb(0,0,0)"  stroke-width="1.0"/>
<line x1="267.7" y1="280.4" x2="232.2" y2="260.4" stroke="rgb(0,0,0)"  stroke-width="1.0"/>
<line x1="266.0" y1="271.1" x2="240.9" y2="257.1" stroke="rgb(0,0,0)"  stroke-width="1.0"/>
<line x1="99.1" y1="422.1" x2="60.0" y2="421.9" stroke="rgb(0,0,0)"  stroke-width="1.0"/>
<line x1="93.1" y1="414.9" x2="66.0" y2="414.7" stroke="rgb(0,0,0)"  stroke-width="1.0"/>
<line x1="60.0" y1="421.9" x2="40.0" y2="386.8" stroke="rgb(0,0,0)"  stroke-width="1.0"/>
<line x1="40.0" y1="386.8" x2="60.6" y2="352.6" stroke="rgb(0,0,0)"  stroke-width="1.0"/>
<line x1="49.3" y1="385.4" x2="63.7" y2="361.4" stroke="rgb(0,0,0)"  stroke-width="1.0"/>
<line x1="60.6" y1="352.6" x2="100.3" y2="353.2" stroke="rgb(0,0,0)"  stroke-width="1.0"/>
<line x1="119.7" y1="388.2" x2="99.1" y2="422.1" stroke="rgb(0,0,0)"  stroke-width="1.0"/>
<text x="330.219013" y="207.702453" fill="rgb(178,178,0)"  stroke="rgb(178,178,0)" stroke-width="1" font-size="16" >S</text>
<text x="191.689234" y="328.490741" fill="rgb(12,12,255)"  stroke="rgb(12,12,255)" stroke-width="1" font-size="16" >N</text>
<text x="152.770230" y="388.379160" fill="rgb(12,12,255)"  stroke="rgb(12,12,255)" stroke-width="1" font-size="16" >N</text>
<text x="121.516944" y="332.120342" fill="rgb(178,178,0)"  stroke="rgb(178,178,0)" stroke-width="1" font-size="16" >S</text>
<text x="364.700224" y="187.739646" fill="rgb(12,12,255)"  stroke="rgb(12,12,255)" stroke-width="1" font-size="16" >N</text>
<text x="329.410821" y="48.000000" fill="rgb(12,12,255)"  stroke="rgb(12,12,255)" stroke-width="1" font-size="16" >N</text>
<text x="503.834936" y="226.658650" fill="rgb(12,12,255)"  stroke="rgb(12,12,255)" stroke-width="1" font-size="16" >N</text>
<text x="350.583495" y="242.788597" fill="rgb(255,12,12)"  stroke="rgb(255,12,12)" stroke-width="1" font-size="16" >O</text>
<text x="309.651273" y="173.221241" fill="rgb(255,12,12)"  stroke="rgb(255,12,12)" stroke-width="1" font-size="16" >O</text>
<text x="153.072158" y="494.242529" fill="rgb(102,102,102)"  stroke="rgb(102,102,102)" stroke-width="1" font-size="16" >HC</text>
<text x="156.603089" y="268.399063" fill="rgb(255,12,12)"  stroke="rgb(255,12,12)" stroke-width="1" font-size="16" >O</text>
<text x="112.442941" y="465.205719" fill="rgb(30,239,30)"  stroke="rgb(30,239,30)" stroke-width="1" font-size="16" >Cl</text>
<text font-size="18.000000" fill ="black" font-family="sans-serif"
x="10.000000" y="20.000000" ></text>
<title> - OBDepict</title>
</svg>
