<?xml version="1.0"?>
<svg xmlns="http://www.w3.org/2000/svg"
xmlns:xlink="http://www.w3.org/1999/xlink" xmlns:cml="http://www.xml-cml.org/schema" width="425.364" height="409.408" x="0" y="0" font-family="sans-serif" stroke="rgb(0,0,0)" stroke-width="1"  stroke-linecap="round">
<rect x="0%" y="0%" width="100%" height="100%" stroke-width="0" fill="rgb(255,255,255)"  />
<line x1="296.0" y1="289.7" x2="257.8" y2="302.0" stroke="rgb(0,0,0)"  stroke-width="1.0"/>
<line x1="294.2" y1="283.9" x2="256.0" y2="296.3" stroke="rgb(0,0,0)"  stroke-width="1.0"/>
<line x1="303.6" y1="247.4" x2="295.1" y2="286.8" stroke="rgb(0,0,0)"  stroke-width="1.0"/>
<line x1="154.5" y1="286.8" x2="180.1" y2="295.1" stroke="rgb(0,0,0)"  stroke-width="1.0"/>
<line x1="376.9" y1="78.6" x2="367.8" y2="118.0" stroke="rgb(0,0,0)"  stroke-width="1.0"/>
<line x1="382.6" y1="52.7" x2="376.9" y2="78.6" stroke="rgb(0,0,0)"  stroke-width="1.0"/>
<line x1="386.7" y1="53.6" x2="381.0" y2="79.5" stroke="rgb(0,0,0)"  stroke-width="1.0"/>
<line x1="378.5" y1="51.8" x2="372.8" y2="77.7" stroke="rgb(0,0,0)"  stroke-width="1.0"/>
<line x1="124.6" y1="313.7" x2="154.5" y2="286.8" stroke="rgb(0,0,0)"  stroke-width="1.0"/>
<line x1="186.4" y1="357.1" x2="202.2" y2="335.5" stroke="rgb(0,0,0)"  stroke-width="1.0"/>
<line x1="191.3" y1="360.7" x2="207.0" y2="339.1" stroke="rgb(0,0,0)"  stroke-width="1.0"/>
<line x1="227.6" y1="248.5" x2="227.6" y2="275.5" stroke="rgb(0,0,0)"  stroke-width="1.0"/>
<line x1="221.6" y1="248.5" x2="221.6" y2="275.5" stroke="rgb(0,0,0)"  stroke-width="1.0"/>
<line x1="127.4" y1="340.8" x2="121.7" y2="314.3" stroke="rgb(0,0,0)"  stroke-width="1.0"/>
<line x1="133.3" y1="339.5" x2="127.6" y2="313.0" stroke="rgb(0,0,0)"  stroke-width="1.0"/>
<line x1="361.6" y1="253.4" x2="341.7" y2="235.5" stroke="rgb(0,0,0)"  stroke-width="1.0"/>
<line x1="326.7" y1="142.7" x2="320.5" y2="169.3" stroke="rgb(0,0,0)"  stroke-width="1.0"/>
<line x1="262.9" y1="163.1" x2="282.4" y2="181.0" stroke="rgb(0,0,0)"  stroke-width="1.0"/>
<line x1="99.0" y1="305.4" x2="124.6" y2="313.7" stroke="rgb(0,0,0)"  stroke-width="1.0"/>
<line x1="367.8" y1="118.0" x2="342.0" y2="126.1" stroke="rgb(0,0,0)"  stroke-width="1.0"/>
<line x1="78.2" y1="262.2" x2="83.9" y2="288.6" stroke="rgb(0,0,0)"  stroke-width="1.0"/>
<line x1="227.9" y1="162.5" x2="240.9" y2="158.3" stroke="rgb(0,0,0)"  stroke-width="1.0"/>
<line x1="52.4" y1="254.0" x2="78.2" y2="262.2" stroke="rgb(0,0,0)"  stroke-width="1.0"/>
<line x1="203.0" y1="291.4" x2="224.6" y2="275.5" stroke="rgb(0,0,0)"  stroke-width="1.0"/>
<line x1="224.6" y1="275.5" x2="256.9" y2="299.1" stroke="rgb(0,0,0)"  stroke-width="1.0"/>
<line x1="256.9" y1="299.1" x2="248.6" y2="324.9" stroke="rgb(0,0,0)"  stroke-width="1.0"/>
<line x1="231.6" y1="337.3" x2="204.6" y2="337.3" stroke="rgb(0,0,0)"  stroke-width="1.0"/>
<line x1="204.6" y1="337.3" x2="196.4" y2="311.5" stroke="rgb(0,0,0)"  stroke-width="1.0"/>
<line x1="303.6" y1="247.4" x2="341.7" y2="235.5" stroke="rgb(0,0,0)"  stroke-width="1.0"/>
<line x1="341.7" y1="235.5" x2="350.0" y2="196.1" stroke="rgb(0,0,0)"  stroke-width="1.0"/>
<line x1="335.9" y1="228.2" x2="341.7" y2="200.5" stroke="rgb(0,0,0)"  stroke-width="1.0"/>
<line x1="350.0" y1="196.1" x2="320.5" y2="169.3" stroke="rgb(0,0,0)"  stroke-width="1.0"/>
<line x1="320.5" y1="169.3" x2="282.4" y2="181.0" stroke="rgb(0,0,0)"  stroke-width="1.0"/>
<line x1="316.9" y1="177.9" x2="290.2" y2="186.1" stroke="rgb(0,0,0)"  stroke-width="1.0"/>
<line x1="282.4" y1="181.0" x2="273.9" y2="220.4" stroke="rgb(0,0,0)"  stroke-width="1.0"/>
<line x1="273.9" y1="220.4" x2="303.6" y2="247.4" stroke="rgb(0,0,0)"  stroke-width="1.0"/>
<line x1="283.2" y1="219.1" x2="304.0" y2="238.1" stroke="rgb(0,0,0)"  stroke-width="1.0"/>
<text x="186.482860" y="307.125229" fill="rgb(12,12,255)"  stroke="rgb(12,12,255)" stroke-width="1" font-size="16" >N</text>
<text x="238.590434" y="345.295702" fill="rgb(178,178,0)"  stroke="rgb(178,178,0)" stroke-width="1" font-size="16" >S</text>
<text x="379.364381" y="48.000000" fill="rgb(102,102,102)"  stroke="rgb(102,102,102)" stroke-width="1" font-size="16" >CH</text>
<text x="175.172011" y="377.407832" fill="rgb(255,12,12)"  stroke="rgb(255,12,12)" stroke-width="1" font-size="16" >O</text>
<text x="218.594990" y="243.502920" fill="rgb(255,12,12)"  stroke="rgb(255,12,12)" stroke-width="1" font-size="16" >O</text>
<text x="127.103332" y="360.844478" fill="rgb(255,12,12)"  stroke="rgb(255,12,12)" stroke-width="1" font-size="16" >O</text>
<text x="365.223393" y="270.163512" fill="rgb(165,40,40)"  stroke="rgb(165,40,40)" stroke-width="1" font-size="16" >Br</text>
<text x="323.620830" y="138.079015" fill="rgb(255,12,12)"  stroke="rgb(255,12,12)" stroke-width="1" font-size="16" >O</text>
<text x="247.275030" y="162.312387" fill="rgb(255,12,12)"  stroke="rgb(255,12,12)" stroke-width="1" font-size="16" >O</text>
<text x="80.651182" y="309.343709" fill="rgb(255,12,12)"  stroke="rgb(255,12,12)" stroke-width="1" font-size="16" >O</text>
<text x="189.507475" y="174.433927" fill="rgb(102,102,102)"  stroke="rgb(102,102,102)" stroke-width="1" font-size="16" >H</text>
<text x="201.507475" y="178.113927" fill="rgb(102,102,102)"  stroke="rgb(102,102,102)" stroke-width="1" font-size="13" >3</text>
<text x="208.007475" y="174.433927" fill="rgb(102,102,102)"  stroke="rgb(102,102,102)" stroke-width="1" font-size="16" >C</text>
<text x="14.000000" y="258.046826" fill="rgb(102,102,102)"  stroke="rgb(102,102,102)" stroke-width="1" font-size="16" >H</text>
<text x="26.000000" y="261.726826" fill="rgb(102,102,102)"  stroke="rgb(102,102,102)" stroke-width="1" font-size="13" >3</text>
<text x="32.500000" y="258.046826" fill="rgb(102,102,102)"  stroke="rgb(102,102,102)" stroke-width="1" font-size="16" >C</text>
<text font-size="18.000000" fill ="black" font-family="sans-serif"
x="10.000000" y="20.000000" ></text>
<title> - OBDepict</title>
</svg>
