<?xml version="1.0"?>
<svg xmlns="http://www.w3.org/2000/svg"
xmlns:xlink="http://www.w3.org/1999/xlink" xmlns:cml="http://www.xml-cml.org/schema" width="390.785" height="279.314" x="0" y="0" font-family="sans-serif" stroke="rgb(0,0,0)" stroke-width="1"  stroke-linecap="round">
<rect x="0%" y="0%" width="100%" height="100%" stroke-width="0" fill="rgb(255,255,255)"  />
<line x1="132.7" y1="209.6" x2="159.3" y2="180.3" stroke="rgb(0,0,0)"  stroke-width="1.0"/>
<line x1="114.6" y1="229.7" x2="132.7" y2="209.6" stroke="rgb(0,0,0)"  stroke-width="1.0"/>
<line x1="111.4" y1="226.9" x2="129.6" y2="206.8" stroke="rgb(0,0,0)"  stroke-width="1.0"/>
<line x1="117.7" y1="232.5" x2="135.8" y2="212.4" stroke="rgb(0,0,0)"  stroke-width="1.0"/>
<line x1="210.6" y1="109.5" x2="170.7" y2="109.7" stroke="rgb(0,0,0)"  stroke-width="1.0"/>
<line x1="224.1" y1="86.2" x2="210.6" y2="109.5" stroke="rgb(0,0,0)"  stroke-width="1.0"/>
<line x1="270.8" y1="74.9" x2="243.6" y2="74.9" stroke="rgb(0,0,0)"  stroke-width="1.0"/>
<line x1="159.3" y1="180.3" x2="151.2" y2="154.6" stroke="rgb(0,0,0)"  stroke-width="1.0"/>
<line x1="276.8" y1="133.0" x2="290.8" y2="109.5" stroke="rgb(0,0,0)"  stroke-width="1.0"/>
<line x1="170.7" y1="109.7" x2="155.0" y2="88.2" stroke="rgb(0,0,0)"  stroke-width="1.0"/>
<line x1="161.3" y1="109.1" x2="150.3" y2="94.0" stroke="rgb(0,0,0)"  stroke-width="1.0"/>
<line x1="134.8" y1="81.5" x2="109.1" y2="89.7" stroke="rgb(0,0,0)"  stroke-width="1.0"/>
<line x1="109.1" y1="89.7" x2="109.1" y2="129.7" stroke="rgb(0,0,0)"  stroke-width="1.0"/>
<line x1="109.1" y1="129.7" x2="134.9" y2="138.1" stroke="rgb(0,0,0)"  stroke-width="1.0"/>
<line x1="154.8" y1="131.6" x2="170.7" y2="109.7" stroke="rgb(0,0,0)"  stroke-width="1.0"/>
<line x1="270.8" y1="74.9" x2="290.8" y2="109.5" stroke="rgb(0,0,0)"  stroke-width="1.0"/>
<line x1="280.1" y1="76.5" x2="294.0" y2="100.7" stroke="rgb(0,0,0)"  stroke-width="1.0"/>
<line x1="290.8" y1="109.5" x2="330.8" y2="109.5" stroke="rgb(0,0,0)"  stroke-width="1.0"/>
<line x1="330.8" y1="109.5" x2="350.8" y2="74.9" stroke="rgb(0,0,0)"  stroke-width="1.0"/>
<line x1="327.6" y1="100.7" x2="341.5" y2="76.5" stroke="rgb(0,0,0)"  stroke-width="1.0"/>
<line x1="350.8" y1="74.9" x2="330.8" y2="40.0" stroke="rgb(0,0,0)"  stroke-width="1.0"/>
<line x1="330.8" y1="40.0" x2="290.8" y2="40.0" stroke="rgb(0,0,0)"  stroke-width="1.0"/>
<line x1="324.8" y1="47.2" x2="296.8" y2="47.2" stroke="rgb(0,0,0)"  stroke-width="1.0"/>
<line x1="290.8" y1="40.0" x2="270.8" y2="74.9" stroke="rgb(0,0,0)"  stroke-width="1.0"/>
<line x1="74.5" y1="149.7" x2="40.0" y2="129.7" stroke="rgb(0,0,0)"  stroke-width="1.0"/>
<line x1="40.0" y1="129.7" x2="40.0" y2="89.7" stroke="rgb(0,0,0)"  stroke-width="1.0"/>
<line x1="47.2" y1="123.7" x2="47.2" y2="95.7" stroke="rgb(0,0,0)"  stroke-width="1.0"/>
<line x1="40.0" y1="89.7" x2="74.5" y2="69.7" stroke="rgb(0,0,0)"  stroke-width="1.0"/>
<line x1="74.5" y1="69.7" x2="109.1" y2="89.7" stroke="rgb(0,0,0)"  stroke-width="1.0"/>
<line x1="76.1" y1="78.9" x2="100.3" y2="92.9" stroke="rgb(0,0,0)"  stroke-width="1.0"/>
<line x1="109.1" y1="129.7" x2="74.5" y2="149.7" stroke="rgb(0,0,0)"  stroke-width="1.0"/>
<line x1="100.3" y1="126.4" x2="76.1" y2="140.4" stroke="rgb(0,0,0)"  stroke-width="1.0"/>
<text x="141.229813" y="85.560726" fill="rgb(12,12,255)"  stroke="rgb(12,12,255)" stroke-width="1" font-size="16" >N</text>
<text x="141.229813" y="150.179713" fill="rgb(12,12,255)"  stroke="rgb(12,12,255)" stroke-width="1" font-size="16" >N</text>
<text x="87.830624" y="247.314173" fill="rgb(102,102,102)"  stroke="rgb(102,102,102)" stroke-width="1" font-size="16" >HC</text>
<text x="224.629164" y="82.933898" fill="rgb(255,12,12)"  stroke="rgb(255,12,12)" stroke-width="1" font-size="16" >O</text>
<text x="244.210899" y="152.200723" fill="rgb(102,102,102)"  stroke="rgb(102,102,102)" stroke-width="1" font-size="16" >H</text>
<text x="256.210899" y="155.880723" fill="rgb(102,102,102)"  stroke="rgb(102,102,102)" stroke-width="1" font-size="13" >3</text>
<text x="262.710899" y="152.200723" fill="rgb(102,102,102)"  stroke="rgb(102,102,102)" stroke-width="1" font-size="16" >C</text>
<text font-size="18.000000" fill ="black" font-family="sans-serif"
x="10.000000" y="20.000000" ></text>
<title> - OBDepict</title>
</svg>
