<?xml version="1.0"?>
<svg xmlns="http://www.w3.org/2000/svg"
xmlns:xlink="http://www.w3.org/1999/xlink" xmlns:cml="http://www.xml-cml.org/schema" width="450.001" height="401.882" x="0" y="0" font-family="sans-serif" stroke="rgb(0,0,0)" stroke-width="1"  stroke-linecap="round">
<rect x="0%" y="0%" width="100%" height="100%" stroke-width="0" fill="rgb(255,255,255)"  />
<line x1="206.0" y1="229.1" x2="233.1" y2="229.4" stroke="rgb(0,0,0)"  stroke-width="1.0"/>
<line x1="206.0" y1="235.1" x2="233.0" y2="235.4" stroke="rgb(0,0,0)"  stroke-width="1.0"/>
<line x1="252.5" y1="221.2" x2="266.0" y2="197.9" stroke="rgb(0,0,0)"  stroke-width="1.0"/>
<line x1="266.0" y1="197.9" x2="306.1" y2="197.9" stroke="rgb(0,0,0)"  stroke-width="1.0"/>
<line x1="306.1" y1="197.9" x2="320.2" y2="173.6" stroke="rgb(0,0,0)"  stroke-width="1.0"/>
<line x1="168.0" y1="332.2" x2="194.7" y2="302.4" stroke="rgb(0,0,0)"  stroke-width="1.0"/>
<line x1="150.0" y1="352.2" x2="168.0" y2="332.2" stroke="rgb(0,0,0)"  stroke-width="1.0"/>
<line x1="146.9" y1="349.4" x2="164.9" y2="329.4" stroke="rgb(0,0,0)"  stroke-width="1.0"/>
<line x1="153.1" y1="355.0" x2="171.1" y2="335.0" stroke="rgb(0,0,0)"  stroke-width="1.0"/>
<line x1="284.2" y1="118.0" x2="311.2" y2="123.8" stroke="rgb(0,0,0)"  stroke-width="1.0"/>
<line x1="283.0" y1="123.9" x2="309.9" y2="129.7" stroke="rgb(0,0,0)"  stroke-width="1.0"/>
<line x1="381.3" y1="180.7" x2="363.5" y2="160.5" stroke="rgb(0,0,0)"  stroke-width="1.0"/>
<line x1="385.8" y1="176.7" x2="368.0" y2="156.5" stroke="rgb(0,0,0)"  stroke-width="1.0"/>
<line x1="255.1" y1="173.1" x2="268.6" y2="196.4" stroke="rgb(0,0,0)"  stroke-width="1.0"/>
<line x1="249.9" y1="176.1" x2="263.4" y2="199.4" stroke="rgb(0,0,0)"  stroke-width="1.0"/>
<line x1="194.7" y1="302.4" x2="186.5" y2="276.6" stroke="rgb(0,0,0)"  stroke-width="1.0"/>
<line x1="51.3" y1="198.3" x2="75.2" y2="212.1" stroke="rgb(0,0,0)"  stroke-width="1.0"/>
<line x1="339.6" y1="161.1" x2="365.7" y2="158.5" stroke="rgb(0,0,0)"  stroke-width="1.0"/>
<line x1="365.7" y1="158.5" x2="374.8" y2="120.1" stroke="rgb(0,0,0)"  stroke-width="1.0"/>
<line x1="374.8" y1="120.1" x2="340.2" y2="100.0" stroke="rgb(0,0,0)"  stroke-width="1.0"/>
<line x1="366.0" y1="123.3" x2="341.8" y2="109.3" stroke="rgb(0,0,0)"  stroke-width="1.0"/>
<line x1="340.2" y1="100.0" x2="310.5" y2="126.7" stroke="rgb(0,0,0)"  stroke-width="1.0"/>
<line x1="310.5" y1="126.7" x2="321.3" y2="150.5" stroke="rgb(0,0,0)"  stroke-width="1.0"/>
<line x1="206.0" y1="232.1" x2="190.2" y2="210.3" stroke="rgb(0,0,0)"  stroke-width="1.0"/>
<line x1="170.2" y1="203.7" x2="144.3" y2="212.1" stroke="rgb(0,0,0)"  stroke-width="1.0"/>
<line x1="144.3" y1="212.1" x2="144.3" y2="252.1" stroke="rgb(0,0,0)"  stroke-width="1.0"/>
<line x1="151.5" y1="218.1" x2="151.5" y2="246.1" stroke="rgb(0,0,0)"  stroke-width="1.0"/>
<line x1="144.3" y1="252.1" x2="170.2" y2="260.3" stroke="rgb(0,0,0)"  stroke-width="1.0"/>
<line x1="190.2" y1="253.7" x2="206.0" y2="232.1" stroke="rgb(0,0,0)"  stroke-width="1.0"/>
<line x1="409.4" y1="100.7" x2="374.8" y2="120.1" stroke="rgb(0,0,0)"  stroke-width="1.0"/>
<line x1="340.2" y1="100.0" x2="340.6" y2="59.6" stroke="rgb(0,0,0)"  stroke-width="1.0"/>
<line x1="340.6" y1="59.6" x2="375.4" y2="40.0" stroke="rgb(0,0,0)"  stroke-width="1.0"/>
<line x1="349.4" y1="62.9" x2="373.7" y2="49.2" stroke="rgb(0,0,0)"  stroke-width="1.0"/>
<line x1="375.4" y1="40.0" x2="410.0" y2="60.6" stroke="rgb(0,0,0)"  stroke-width="1.0"/>
<line x1="410.0" y1="60.6" x2="409.4" y2="100.7" stroke="rgb(0,0,0)"  stroke-width="1.0"/>
<line x1="402.7" y1="66.5" x2="402.3" y2="94.5" stroke="rgb(0,0,0)"  stroke-width="1.0"/>
<line x1="109.8" y1="192.0" x2="144.3" y2="212.1" stroke="rgb(0,0,0)"  stroke-width="1.0"/>
<line x1="144.3" y1="252.1" x2="109.8" y2="272.1" stroke="rgb(0,0,0)"  stroke-width="1.0"/>
<line x1="109.8" y1="272.1" x2="75.2" y2="252.1" stroke="rgb(0,0,0)"  stroke-width="1.0"/>
<line x1="108.2" y1="262.9" x2="84.0" y2="248.9" stroke="rgb(0,0,0)"  stroke-width="1.0"/>
<line x1="75.2" y1="252.1" x2="75.2" y2="212.1" stroke="rgb(0,0,0)"  stroke-width="1.0"/>
<line x1="75.2" y1="212.1" x2="109.8" y2="192.0" stroke="rgb(0,0,0)"  stroke-width="1.0"/>
<line x1="84.0" y1="215.3" x2="108.2" y2="201.3" stroke="rgb(0,0,0)"  stroke-width="1.0"/>
<text x="320.696740" y="170.324911" fill="rgb(12,12,255)"  stroke="rgb(12,12,255)" stroke-width="1" font-size="16" >N</text>
<text x="176.542104" y="272.224404" fill="rgb(12,12,255)"  stroke="rgb(12,12,255)" stroke-width="1" font-size="16" >N</text>
<text x="240.026510" y="240.482201" fill="rgb(12,12,255)"  stroke="rgb(12,12,255)" stroke-width="1" font-size="16" >N</text>
<text x="176.542104" y="207.727928" fill="rgb(178,178,0)"  stroke="rgb(178,178,0)" stroke-width="1" font-size="16" >S</text>
<text x="123.294188" y="369.881919" fill="rgb(102,102,102)"  stroke="rgb(102,102,102)" stroke-width="1" font-size="16" >HC</text>
<text x="264.897289" y="126.244167" fill="rgb(255,12,12)"  stroke="rgb(255,12,12)" stroke-width="1" font-size="16" >O</text>
<text x="386.205287" y="196.406300" fill="rgb(255,12,12)"  stroke="rgb(255,12,12)" stroke-width="1" font-size="16" >O</text>
<text x="240.026510" y="171.332139" fill="rgb(255,12,12)"  stroke="rgb(255,12,12)" stroke-width="1" font-size="16" >O</text>
<text x="34.000000" y="199.839591" fill="rgb(127,178,255)"  stroke="rgb(127,178,255)" stroke-width="1" font-size="16" >F</text>
<text font-size="18.000000" fill ="black" font-family="sans-serif"
x="10.000000" y="20.000000" ></text>
<title> - OBDepict</title>
</svg>
