<?xml version="1.0"?>
<svg xmlns="http://www.w3.org/2000/svg"
xmlns:xlink="http://www.w3.org/1999/xlink" xmlns:cml="http://www.xml-cml.org/schema" width="409.481" height="506.343" x="0" y="0" font-family="sans-serif" stroke="rgb(0,0,0)" stroke-width="1"  stroke-linecap="round">
<rect x="0%" y="0%" width="100%" height="100%" stroke-width="0" fill="rgb(255,255,255)"  />
<line x1="282.3" y1="288.6" x2="244.0" y2="301.2" stroke="rgb(0,0,0)"  stroke-width="1.0"/>
<line x1="280.4" y1="282.9" x2="242.1" y2="295.5" stroke="rgb(0,0,0)"  stroke-width="1.0"/>
<line x1="166.8" y1="369.1" x2="182.9" y2="347.2" stroke="rgb(0,0,0)"  stroke-width="1.0"/>
<line x1="182.9" y1="405.6" x2="166.8" y2="369.1" stroke="rgb(0,0,0)"  stroke-width="1.0"/>
<line x1="361.0" y1="78.9" x2="352.3" y2="118.2" stroke="rgb(0,0,0)"  stroke-width="1.0"/>
<line x1="366.7" y1="52.7" x2="361.0" y2="78.9" stroke="rgb(0,0,0)"  stroke-width="1.0"/>
<line x1="370.8" y1="53.6" x2="365.1" y2="79.8" stroke="rgb(0,0,0)"  stroke-width="1.0"/>
<line x1="362.6" y1="51.8" x2="356.9" y2="78.0" stroke="rgb(0,0,0)"  stroke-width="1.0"/>
<line x1="153.4" y1="287.0" x2="178.9" y2="295.5" stroke="rgb(0,0,0)"  stroke-width="1.0"/>
<line x1="151.5" y1="292.7" x2="177.1" y2="301.2" stroke="rgb(0,0,0)"  stroke-width="1.0"/>
<line x1="167.1" y1="427.6" x2="182.9" y2="405.6" stroke="rgb(0,0,0)"  stroke-width="1.0"/>
<line x1="244.0" y1="360.3" x2="228.2" y2="338.4" stroke="rgb(0,0,0)"  stroke-width="1.0"/>
<line x1="248.8" y1="356.8" x2="233.1" y2="334.9" stroke="rgb(0,0,0)"  stroke-width="1.0"/>
<line x1="289.2" y1="246.9" x2="281.3" y2="285.8" stroke="rgb(0,0,0)"  stroke-width="1.0"/>
<line x1="209.7" y1="411.4" x2="182.5" y2="408.5" stroke="rgb(0,0,0)"  stroke-width="1.0"/>
<line x1="210.4" y1="405.5" x2="183.2" y2="402.6" stroke="rgb(0,0,0)"  stroke-width="1.0"/>
<line x1="119.6" y1="433.9" x2="146.6" y2="436.8" stroke="rgb(0,0,0)"  stroke-width="1.0"/>
<line x1="248.4" y1="163.2" x2="268.0" y2="181.0" stroke="rgb(0,0,0)"  stroke-width="1.0"/>
<line x1="311.4" y1="142.3" x2="305.7" y2="169.1" stroke="rgb(0,0,0)"  stroke-width="1.0"/>
<line x1="352.3" y1="118.2" x2="326.6" y2="125.9" stroke="rgb(0,0,0)"  stroke-width="1.0"/>
<line x1="200.9" y1="166.7" x2="226.4" y2="158.5" stroke="rgb(0,0,0)"  stroke-width="1.0"/>
<line x1="52.6" y1="368.0" x2="63.7" y2="392.8" stroke="rgb(0,0,0)"  stroke-width="1.0"/>
<line x1="180.9" y1="148.6" x2="200.9" y2="166.7" stroke="rgb(0,0,0)"  stroke-width="1.0"/>
<line x1="186.5" y1="324.3" x2="178.0" y2="298.4" stroke="rgb(0,0,0)"  stroke-width="1.0"/>
<line x1="178.0" y1="298.4" x2="200.1" y2="282.5" stroke="rgb(0,0,0)"  stroke-width="1.0"/>
<line x1="221.1" y1="282.5" x2="243.0" y2="298.4" stroke="rgb(0,0,0)"  stroke-width="1.0"/>
<line x1="243.0" y1="298.4" x2="230.7" y2="336.7" stroke="rgb(0,0,0)"  stroke-width="1.0"/>
<line x1="230.7" y1="336.7" x2="203.6" y2="336.7" stroke="rgb(0,0,0)"  stroke-width="1.0"/>
<line x1="268.0" y1="181.0" x2="305.7" y2="169.1" stroke="rgb(0,0,0)"  stroke-width="1.0"/>
<line x1="275.9" y1="186.1" x2="302.1" y2="177.8" stroke="rgb(0,0,0)"  stroke-width="1.0"/>
<line x1="305.7" y1="169.1" x2="335.2" y2="195.6" stroke="rgb(0,0,0)"  stroke-width="1.0"/>
<line x1="335.2" y1="195.6" x2="326.9" y2="234.7" stroke="rgb(0,0,0)"  stroke-width="1.0"/>
<line x1="326.9" y1="200.0" x2="321.1" y2="227.4" stroke="rgb(0,0,0)"  stroke-width="1.0"/>
<line x1="326.9" y1="234.7" x2="289.2" y2="246.9" stroke="rgb(0,0,0)"  stroke-width="1.0"/>
<line x1="289.2" y1="246.9" x2="259.9" y2="220.1" stroke="rgb(0,0,0)"  stroke-width="1.0"/>
<line x1="289.7" y1="237.5" x2="269.1" y2="218.9" stroke="rgb(0,0,0)"  stroke-width="1.0"/>
<line x1="259.9" y1="220.1" x2="268.0" y2="181.0" stroke="rgb(0,0,0)"  stroke-width="1.0"/>
<line x1="119.6" y1="433.9" x2="103.2" y2="397.0" stroke="rgb(0,0,0)"  stroke-width="1.0"/>
<line x1="110.6" y1="431.4" x2="99.1" y2="405.5" stroke="rgb(0,0,0)"  stroke-width="1.0"/>
<line x1="103.2" y1="397.0" x2="63.7" y2="392.8" stroke="rgb(0,0,0)"  stroke-width="1.0"/>
<line x1="63.7" y1="392.8" x2="40.0" y2="425.0" stroke="rgb(0,0,0)"  stroke-width="1.0"/>
<line x1="66.0" y1="401.9" x2="49.4" y2="424.4" stroke="rgb(0,0,0)"  stroke-width="1.0"/>
<line x1="40.0" y1="425.0" x2="56.2" y2="461.9" stroke="rgb(0,0,0)"  stroke-width="1.0"/>
<line x1="56.2" y1="461.9" x2="95.9" y2="466.3" stroke="rgb(0,0,0)"  stroke-width="1.0"/>
<line x1="63.0" y1="455.4" x2="90.8" y2="458.5" stroke="rgb(0,0,0)"  stroke-width="1.0"/>
<line x1="95.9" y1="466.3" x2="119.6" y2="433.9" stroke="rgb(0,0,0)"  stroke-width="1.0"/>
<text x="184.553358" y="344.659440" fill="rgb(12,12,255)"  stroke="rgb(12,12,255)" stroke-width="1" font-size="16" >N</text>
<text x="204.614543" y="282.857812" fill="rgb(178,178,0)"  stroke="rgb(178,178,0)" stroke-width="1" font-size="16" >S</text>
<text x="363.481109" y="48.000000" fill="rgb(102,102,102)"  stroke="rgb(102,102,102)" stroke-width="1" font-size="16" >CH</text>
<text x="134.097612" y="293.796754" fill="rgb(255,12,12)"  stroke="rgb(255,12,12)" stroke-width="1" font-size="16" >O</text>
<text x="153.553231" y="446.176498" fill="rgb(12,12,255)"  stroke="rgb(12,12,255)" stroke-width="1" font-size="16" >N</text>
<text x="153.553231" y="462.176498" fill="rgb(12,12,255)"  stroke="rgb(12,12,255)" stroke-width="1" font-size="16" >H</text>
<text x="247.982747" y="377.079013" fill="rgb(255,12,12)"  stroke="rgb(255,12,12)" stroke-width="1" font-size="16" >O</text>
<text x="216.977775" y="417.811794" fill="rgb(255,12,12)"  stroke="rgb(255,12,12)" stroke-width="1" font-size="16" >O</text>
<text x="232.785466" y="162.490701" fill="rgb(255,12,12)"  stroke="rgb(255,12,12)" stroke-width="1" font-size="16" >O</text>
<text x="308.161458" y="137.565611" fill="rgb(255,12,12)"  stroke="rgb(255,12,12)" stroke-width="1" font-size="16" >O</text>
<text x="21.295857" y="364.110215" fill="rgb(102,102,102)"  stroke="rgb(102,102,102)" stroke-width="1" font-size="16" >H</text>
<text x="33.295857" y="367.790215" fill="rgb(102,102,102)"  stroke="rgb(102,102,102)" stroke-width="1" font-size="13" >3</text>
<text x="39.795857" y="364.110215" fill="rgb(102,102,102)"  stroke="rgb(102,102,102)" stroke-width="1" font-size="16" >C</text>
<text x="145.306053" y="147.903831" fill="rgb(102,102,102)"  stroke="rgb(102,102,102)" stroke-width="1" font-size="16" >H</text>
<text x="157.306053" y="151.583831" fill="rgb(102,102,102)"  stroke="rgb(102,102,102)" stroke-width="1" font-size="13" >3</text>
<text x="163.806053" y="147.903831" fill="rgb(102,102,102)"  stroke="rgb(102,102,102)" stroke-width="1" font-size="16" >C</text>
<text font-size="18.000000" fill ="black" font-family="sans-serif"
x="10.000000" y="20.000000" ></text>
<title> - OBDepict</title>
</svg>
