<?xml version="1.0"?>
<svg xmlns="http://www.w3.org/2000/svg"
xmlns:xlink="http://www.w3.org/1999/xlink" xmlns:cml="http://www.xml-cml.org/schema" width="524.576" height="279.742" x="0" y="0" font-family="sans-serif" stroke="rgb(0,0,0)" stroke-width="1"  stroke-linecap="round">
<rect x="0%" y="0%" width="100%" height="100%" stroke-width="0" fill="rgb(255,255,255)"  />
<line x1="276.6" y1="199.8" x2="253.2" y2="186.3" stroke="rgb(0,0,0)"  stroke-width="1.0"/>
<line x1="161.4" y1="133.3" x2="138.0" y2="119.8" stroke="rgb(0,0,0)"  stroke-width="1.0"/>
<line x1="103.3" y1="139.8" x2="138.0" y2="119.8" stroke="rgb(0,0,0)"  stroke-width="1.0"/>
<line x1="449.9" y1="59.8" x2="415.3" y2="79.8" stroke="rgb(0,0,0)"  stroke-width="1.0"/>
<line x1="473.3" y1="46.4" x2="449.9" y2="59.8" stroke="rgb(0,0,0)"  stroke-width="1.0"/>
<line x1="475.4" y1="50.1" x2="452.0" y2="63.4" stroke="rgb(0,0,0)"  stroke-width="1.0"/>
<line x1="471.2" y1="42.8" x2="447.8" y2="56.1" stroke="rgb(0,0,0)"  stroke-width="1.0"/>
<line x1="311.3" y1="179.8" x2="276.6" y2="199.8" stroke="rgb(0,0,0)"  stroke-width="1.0"/>
<line x1="141.0" y1="92.8" x2="141.0" y2="119.8" stroke="rgb(0,0,0)"  stroke-width="1.0"/>
<line x1="135.0" y1="92.8" x2="135.0" y2="119.8" stroke="rgb(0,0,0)"  stroke-width="1.0"/>
<line x1="273.6" y1="226.7" x2="273.6" y2="199.8" stroke="rgb(0,0,0)"  stroke-width="1.0"/>
<line x1="279.6" y1="226.7" x2="279.6" y2="199.8" stroke="rgb(0,0,0)"  stroke-width="1.0"/>
<line x1="415.3" y1="79.8" x2="415.3" y2="106.8" stroke="rgb(0,0,0)"  stroke-width="1.0"/>
<line x1="404.0" y1="126.3" x2="380.6" y2="139.8" stroke="rgb(0,0,0)"  stroke-width="1.0"/>
<line x1="103.3" y1="139.8" x2="79.0" y2="128.9" stroke="rgb(0,0,0)"  stroke-width="1.0"/>
<line x1="58.3" y1="133.1" x2="40.0" y2="153.1" stroke="rgb(0,0,0)"  stroke-width="1.0"/>
<line x1="40.0" y1="153.1" x2="60.0" y2="187.8" stroke="rgb(0,0,0)"  stroke-width="1.0"/>
<line x1="49.2" y1="154.7" x2="63.2" y2="179.0" stroke="rgb(0,0,0)"  stroke-width="1.0"/>
<line x1="60.0" y1="187.8" x2="99.3" y2="179.5" stroke="rgb(0,0,0)"  stroke-width="1.0"/>
<line x1="99.3" y1="179.5" x2="103.3" y2="139.8" stroke="rgb(0,0,0)"  stroke-width="1.0"/>
<line x1="92.8" y1="172.8" x2="95.6" y2="145.0" stroke="rgb(0,0,0)"  stroke-width="1.0"/>
<line x1="183.9" y1="133.3" x2="207.3" y2="119.8" stroke="rgb(0,0,0)"  stroke-width="1.0"/>
<line x1="207.3" y1="119.8" x2="242.0" y2="139.8" stroke="rgb(0,0,0)"  stroke-width="1.0"/>
<line x1="242.0" y1="139.8" x2="242.0" y2="166.8" stroke="rgb(0,0,0)"  stroke-width="1.0"/>
<line x1="230.7" y1="186.3" x2="207.3" y2="199.8" stroke="rgb(0,0,0)"  stroke-width="1.0"/>
<line x1="207.3" y1="199.8" x2="172.6" y2="179.8" stroke="rgb(0,0,0)"  stroke-width="1.0"/>
<line x1="172.6" y1="179.8" x2="172.6" y2="152.8" stroke="rgb(0,0,0)"  stroke-width="1.0"/>
<line x1="311.3" y1="179.8" x2="345.9" y2="199.8" stroke="rgb(0,0,0)"  stroke-width="1.0"/>
<line x1="320.1" y1="176.5" x2="344.3" y2="190.5" stroke="rgb(0,0,0)"  stroke-width="1.0"/>
<line x1="345.9" y1="199.8" x2="380.6" y2="179.8" stroke="rgb(0,0,0)"  stroke-width="1.0"/>
<line x1="380.6" y1="179.8" x2="380.6" y2="139.8" stroke="rgb(0,0,0)"  stroke-width="1.0"/>
<line x1="373.4" y1="173.8" x2="373.4" y2="145.8" stroke="rgb(0,0,0)"  stroke-width="1.0"/>
<line x1="380.6" y1="139.8" x2="345.9" y2="119.8" stroke="rgb(0,0,0)"  stroke-width="1.0"/>
<line x1="345.9" y1="119.8" x2="311.3" y2="139.8" stroke="rgb(0,0,0)"  stroke-width="1.0"/>
<line x1="344.3" y1="129.0" x2="320.1" y2="143.0" stroke="rgb(0,0,0)"  stroke-width="1.0"/>
<line x1="311.3" y1="139.8" x2="311.3" y2="179.8" stroke="rgb(0,0,0)"  stroke-width="1.0"/>
<text x="166.639100" y="147.759426" fill="rgb(12,12,255)"  stroke="rgb(12,12,255)" stroke-width="1" font-size="16" >N</text>
<text x="235.958515" y="187.754380" fill="rgb(12,12,255)"  stroke="rgb(12,12,255)" stroke-width="1" font-size="16" >N</text>
<text x="478.576465" y="48.000000" fill="rgb(102,102,102)"  stroke="rgb(102,102,102)" stroke-width="1" font-size="16" >CH</text>
<text x="61.103057" y="131.540274" fill="rgb(255,12,12)"  stroke="rgb(255,12,12)" stroke-width="1" font-size="16" >O</text>
<text x="131.979393" y="87.771844" fill="rgb(255,12,12)"  stroke="rgb(255,12,12)" stroke-width="1" font-size="16" >O</text>
<text x="270.618222" y="247.741962" fill="rgb(255,12,12)"  stroke="rgb(255,12,12)" stroke-width="1" font-size="16" >O</text>
<text x="409.257050" y="127.766799" fill="rgb(255,12,12)"  stroke="rgb(255,12,12)" stroke-width="1" font-size="16" >O</text>
<text font-size="18.000000" fill ="black" font-family="sans-serif"
x="10.000000" y="20.000000" ></text>
<title> - OBDepict</title>
</svg>
