<?xml version="1.0"?>
<svg xmlns="http://www.w3.org/2000/svg"
xmlns:xlink="http://www.w3.org/1999/xlink" xmlns:cml="http://www.xml-cml.org/schema" width="287.875" height="219.866" x="0" y="0" font-family="sans-serif" stroke="rgb(0,0,0)" stroke-width="1"  stroke-linecap="round">
<rect x="0%" y="0%" width="100%" height="100%" stroke-width="0" fill="rgb(255,255,255)"  />
<line x1="144.8" y1="119.8" x2="144.8" y2="146.9" stroke="rgb(0,0,0)"  stroke-width="1.0"/>
<line x1="156.1" y1="166.3" x2="179.9" y2="179.9" stroke="rgb(0,0,0)"  stroke-width="1.0"/>
<line x1="179.9" y1="179.9" x2="214.1" y2="161.1" stroke="rgb(0,0,0)"  stroke-width="1.0"/>
<line x1="214.1" y1="161.1" x2="236.5" y2="148.7" stroke="rgb(0,0,0)"  stroke-width="1.0"/>
<line x1="212.1" y1="157.5" x2="234.5" y2="145.1" stroke="rgb(0,0,0)"  stroke-width="1.0"/>
<line x1="216.1" y1="164.8" x2="238.5" y2="152.4" stroke="rgb(0,0,0)"  stroke-width="1.0"/>
<line x1="109.9" y1="100.0" x2="144.8" y2="119.8" stroke="rgb(0,0,0)"  stroke-width="1.0"/>
<line x1="118.7" y1="96.7" x2="143.1" y2="110.6" stroke="rgb(0,0,0)"  stroke-width="1.0"/>
<line x1="144.8" y1="119.8" x2="179.9" y2="100.0" stroke="rgb(0,0,0)"  stroke-width="1.0"/>
<line x1="179.9" y1="100.0" x2="179.9" y2="60.0" stroke="rgb(0,0,0)"  stroke-width="1.0"/>
<line x1="172.7" y1="94.0" x2="172.7" y2="66.0" stroke="rgb(0,0,0)"  stroke-width="1.0"/>
<line x1="179.9" y1="60.0" x2="144.8" y2="40.0" stroke="rgb(0,0,0)"  stroke-width="1.0"/>
<line x1="144.8" y1="40.0" x2="109.9" y2="60.0" stroke="rgb(0,0,0)"  stroke-width="1.0"/>
<line x1="143.2" y1="49.2" x2="118.7" y2="63.3" stroke="rgb(0,0,0)"  stroke-width="1.0"/>
<line x1="109.9" y1="60.0" x2="109.9" y2="100.0" stroke="rgb(0,0,0)"  stroke-width="1.0"/>
<line x1="109.9" y1="100.0" x2="86.2" y2="113.4" stroke="rgb(0,0,0)"  stroke-width="1.0"/>
<line x1="63.4" y1="113.3" x2="40.0" y2="100.0" stroke="rgb(0,0,0)"  stroke-width="1.0"/>
<line x1="65.2" y1="106.1" x2="48.8" y2="96.7" stroke="rgb(0,0,0)"  stroke-width="1.0"/>
<line x1="40.0" y1="100.0" x2="40.0" y2="60.0" stroke="rgb(0,0,0)"  stroke-width="1.0"/>
<line x1="40.0" y1="60.0" x2="74.9" y2="40.0" stroke="rgb(0,0,0)"  stroke-width="1.0"/>
<line x1="48.8" y1="63.3" x2="73.2" y2="49.2" stroke="rgb(0,0,0)"  stroke-width="1.0"/>
<line x1="74.9" y1="40.0" x2="109.9" y2="60.0" stroke="rgb(0,0,0)"  stroke-width="1.0"/>
<text x="68.857229" y="127.833359" fill="rgb(12,12,255)"  stroke="rgb(12,12,255)" stroke-width="1" font-size="16" >N</text>
<text x="138.795257" y="167.852103" fill="rgb(178,178,0)"  stroke="rgb(178,178,0)" stroke-width="1" font-size="16" >S</text>
<text x="241.874869" y="150.423488" fill="rgb(102,102,102)"  stroke="rgb(102,102,102)" stroke-width="1" font-size="16" >CH</text>
<text font-size="18.000000" fill ="black" font-family="sans-serif"
x="10.000000" y="20.000000" ></text>
<title> - OBDepict</title>
</svg>
