<?xml version="1.0"?>
<svg xmlns="http://www.w3.org/2000/svg"
xmlns:xlink="http://www.w3.org/1999/xlink" xmlns:cml="http://www.xml-cml.org/schema" width="412.403" height="430.976" x="0" y="0" font-family="sans-serif" stroke="rgb(0,0,0)" stroke-width="1"  stroke-linecap="round">
<rect x="0%" y="0%" width="100%" height="100%" stroke-width="0" fill="rgb(255,255,255)"  />
<line x1="189.2" y1="228.6" x2="164.9" y2="242.7" stroke="rgb(0,0,0)"  stroke-width="1.0"/>
<line x1="186.2" y1="223.5" x2="161.9" y2="237.5" stroke="rgb(0,0,0)"  stroke-width="1.0"/>
<line x1="198.5" y1="179.9" x2="198.8" y2="206.5" stroke="rgb(0,0,0)"  stroke-width="1.0"/>
<line x1="179.8" y1="346.8" x2="188.8" y2="307.8" stroke="rgb(0,0,0)"  stroke-width="1.0"/>
<line x1="173.6" y1="373.5" x2="179.8" y2="346.8" stroke="rgb(0,0,0)"  stroke-width="1.0"/>
<line x1="169.5" y1="372.5" x2="175.7" y2="345.8" stroke="rgb(0,0,0)"  stroke-width="1.0"/>
<line x1="177.7" y1="374.4" x2="183.8" y2="347.7" stroke="rgb(0,0,0)"  stroke-width="1.0"/>
<line x1="233.1" y1="160.0" x2="198.5" y2="179.9" stroke="rgb(0,0,0)"  stroke-width="1.0"/>
<line x1="176.7" y1="163.7" x2="200.0" y2="177.4" stroke="rgb(0,0,0)"  stroke-width="1.0"/>
<line x1="173.7" y1="168.9" x2="197.0" y2="182.5" stroke="rgb(0,0,0)"  stroke-width="1.0"/>
<line x1="188.8" y1="307.8" x2="168.7" y2="289.0" stroke="rgb(0,0,0)"  stroke-width="1.0"/>
<line x1="326.0" y1="106.9" x2="302.5" y2="120.4" stroke="rgb(0,0,0)"  stroke-width="1.0"/>
<line x1="112.4" y1="345.6" x2="99.2" y2="321.3" stroke="rgb(0,0,0)"  stroke-width="1.0"/>
<line x1="337.7" y1="60.4" x2="337.4" y2="87.4" stroke="rgb(0,0,0)"  stroke-width="1.0"/>
<line x1="104.2" y1="380.0" x2="111.7" y2="368.1" stroke="rgb(0,0,0)"  stroke-width="1.0"/>
<line x1="314.3" y1="46.6" x2="337.7" y2="60.4" stroke="rgb(0,0,0)"  stroke-width="1.0"/>
<line x1="361.2" y1="46.6" x2="337.7" y2="60.4" stroke="rgb(0,0,0)"  stroke-width="1.0"/>
<line x1="163.4" y1="240.1" x2="140.0" y2="229.3" stroke="rgb(0,0,0)"  stroke-width="1.0"/>
<line x1="119.2" y1="233.1" x2="100.4" y2="252.6" stroke="rgb(0,0,0)"  stroke-width="1.0"/>
<line x1="100.4" y1="252.6" x2="120.2" y2="287.4" stroke="rgb(0,0,0)"  stroke-width="1.0"/>
<line x1="109.6" y1="254.3" x2="123.5" y2="278.6" stroke="rgb(0,0,0)"  stroke-width="1.0"/>
<line x1="120.2" y1="287.4" x2="146.4" y2="282.5" stroke="rgb(0,0,0)"  stroke-width="1.0"/>
<line x1="160.5" y1="267.2" x2="163.4" y2="240.1" stroke="rgb(0,0,0)"  stroke-width="1.0"/>
<line x1="233.1" y1="160.0" x2="233.5" y2="120.4" stroke="rgb(0,0,0)"  stroke-width="1.0"/>
<line x1="240.3" y1="154.0" x2="240.6" y2="126.4" stroke="rgb(0,0,0)"  stroke-width="1.0"/>
<line x1="233.5" y1="120.4" x2="268.2" y2="100.0" stroke="rgb(0,0,0)"  stroke-width="1.0"/>
<line x1="268.2" y1="100.0" x2="302.5" y2="120.4" stroke="rgb(0,0,0)"  stroke-width="1.0"/>
<line x1="269.7" y1="109.2" x2="293.7" y2="123.5" stroke="rgb(0,0,0)"  stroke-width="1.0"/>
<line x1="302.5" y1="120.4" x2="302.7" y2="160.4" stroke="rgb(0,0,0)"  stroke-width="1.0"/>
<line x1="302.7" y1="160.4" x2="267.6" y2="179.5" stroke="rgb(0,0,0)"  stroke-width="1.0"/>
<line x1="294.0" y1="156.9" x2="269.4" y2="170.3" stroke="rgb(0,0,0)"  stroke-width="1.0"/>
<line x1="267.6" y1="179.5" x2="233.1" y2="160.0" stroke="rgb(0,0,0)"  stroke-width="1.0"/>
<line x1="99.2" y1="321.3" x2="60.0" y2="321.1" stroke="rgb(0,0,0)"  stroke-width="1.0"/>
<line x1="93.2" y1="314.1" x2="66.0" y2="313.9" stroke="rgb(0,0,0)"  stroke-width="1.0"/>
<line x1="60.0" y1="321.1" x2="40.0" y2="285.6" stroke="rgb(0,0,0)"  stroke-width="1.0"/>
<line x1="40.0" y1="285.6" x2="61.2" y2="251.6" stroke="rgb(0,0,0)"  stroke-width="1.0"/>
<line x1="49.3" y1="284.3" x2="64.1" y2="260.5" stroke="rgb(0,0,0)"  stroke-width="1.0"/>
<line x1="61.2" y1="251.6" x2="100.4" y2="252.6" stroke="rgb(0,0,0)"  stroke-width="1.0"/>
<line x1="120.2" y1="287.4" x2="99.2" y2="321.3" stroke="rgb(0,0,0)"  stroke-width="1.0"/>
<text x="192.929656" y="227.528506" fill="rgb(12,12,255)"  stroke="rgb(12,12,255)" stroke-width="1" font-size="16" >N</text>
<text x="153.152398" y="288.113074" fill="rgb(12,12,255)"  stroke="rgb(12,12,255)" stroke-width="1" font-size="16" >N</text>
<text x="122.251699" y="231.770444" fill="rgb(178,178,0)"  stroke="rgb(178,178,0)" stroke-width="1" font-size="16" >S</text>
<text x="152.661382" y="394.132433" fill="rgb(102,102,102)"  stroke="rgb(102,102,102)" stroke-width="1" font-size="16" >HC</text>
<text x="157.995479" y="167.748694" fill="rgb(255,12,12)"  stroke="rgb(255,12,12)" stroke-width="1" font-size="16" >O</text>
<text x="331.265309" y="108.380955" fill="rgb(255,12,12)"  stroke="rgb(255,12,12)" stroke-width="1" font-size="16" >O</text>
<text x="112.560689" y="365.049707" fill="rgb(255,12,12)"  stroke="rgb(255,12,12)" stroke-width="1" font-size="16" >O</text>
<text x="71.355848" y="398.975514" fill="rgb(102,102,102)"  stroke="rgb(102,102,102)" stroke-width="1" font-size="16" >H</text>
<text x="83.355848" y="402.655514" fill="rgb(102,102,102)"  stroke="rgb(102,102,102)" stroke-width="1" font-size="13" >3</text>
<text x="89.855848" y="398.975514" fill="rgb(102,102,102)"  stroke="rgb(102,102,102)" stroke-width="1" font-size="16" >C</text>
<text x="277.135889" y="48.000000" fill="rgb(102,102,102)"  stroke="rgb(102,102,102)" stroke-width="1" font-size="16" >H</text>
<text x="289.135889" y="51.680000" fill="rgb(102,102,102)"  stroke="rgb(102,102,102)" stroke-width="1" font-size="13" >3</text>
<text x="295.635889" y="48.000000" fill="rgb(102,102,102)"  stroke="rgb(102,102,102)" stroke-width="1" font-size="16" >C</text>
<text x="368.403098" y="48.000000" fill="rgb(102,102,102)"  stroke="rgb(102,102,102)" stroke-width="1" font-size="16" >CH</text>
<text x="392.403098" y="51.680000" fill="rgb(102,102,102)"  stroke="rgb(102,102,102)" stroke-width="1" font-size="13" >3</text>
<text font-size="18.000000" fill ="black" font-family="sans-serif"
x="10.000000" y="20.000000" ></text>
<title> - OBDepict</title>
</svg>
