<?xml version="1.0"?>
<svg xmlns="http://www.w3.org/2000/svg"
xmlns:xlink="http://www.w3.org/1999/xlink" xmlns:cml="http://www.xml-cml.org/schema" width="426.394" height="199.974" x="0" y="0" font-family="sans-serif" stroke="rgb(0,0,0)" stroke-width="1"  stroke-linecap="round">
<rect x="0%" y="0%" width="100%" height="100%" stroke-width="0" fill="rgb(255,255,255)"  />
<line x1="178.6" y1="120.0" x2="213.1" y2="100.0" stroke="rgb(0,0,0)"  stroke-width="1.0"/>
<line x1="74.5" y1="100.0" x2="109.3" y2="120.0" stroke="rgb(0,0,0)"  stroke-width="1.0"/>
<line x1="51.3" y1="86.5" x2="74.5" y2="100.0" stroke="rgb(0,0,0)"  stroke-width="1.0"/>
<line x1="53.4" y1="82.9" x2="76.6" y2="96.4" stroke="rgb(0,0,0)"  stroke-width="1.0"/>
<line x1="49.1" y1="90.1" x2="72.4" y2="103.6" stroke="rgb(0,0,0)"  stroke-width="1.0"/>
<line x1="175.6" y1="147.0" x2="175.6" y2="120.0" stroke="rgb(0,0,0)"  stroke-width="1.0"/>
<line x1="181.6" y1="147.0" x2="181.6" y2="120.0" stroke="rgb(0,0,0)"  stroke-width="1.0"/>
<line x1="155.1" y1="106.5" x2="178.6" y2="120.0" stroke="rgb(0,0,0)"  stroke-width="1.0"/>
<line x1="109.3" y1="120.0" x2="132.6" y2="106.5" stroke="rgb(0,0,0)"  stroke-width="1.0"/>
<line x1="375.1" y1="46.5" x2="351.7" y2="60.0" stroke="rgb(0,0,0)"  stroke-width="1.0"/>
<line x1="375.1" y1="113.5" x2="351.7" y2="100.0" stroke="rgb(0,0,0)"  stroke-width="1.0"/>
<line x1="305.6" y1="113.4" x2="282.4" y2="100.0" stroke="rgb(0,0,0)"  stroke-width="1.0"/>
<line x1="307.5" y1="106.2" x2="291.2" y2="96.7" stroke="rgb(0,0,0)"  stroke-width="1.0"/>
<line x1="282.4" y1="100.0" x2="282.4" y2="60.0" stroke="rgb(0,0,0)"  stroke-width="1.0"/>
<line x1="282.4" y1="60.0" x2="305.6" y2="46.6" stroke="rgb(0,0,0)"  stroke-width="1.0"/>
<line x1="291.2" y1="63.2" x2="307.5" y2="53.8" stroke="rgb(0,0,0)"  stroke-width="1.0"/>
<line x1="328.4" y1="46.5" x2="351.7" y2="60.0" stroke="rgb(0,0,0)"  stroke-width="1.0"/>
<line x1="351.7" y1="60.0" x2="351.7" y2="100.0" stroke="rgb(0,0,0)"  stroke-width="1.0"/>
<line x1="344.5" y1="66.0" x2="344.5" y2="94.0" stroke="rgb(0,0,0)"  stroke-width="1.0"/>
<line x1="351.7" y1="100.0" x2="328.4" y2="113.5" stroke="rgb(0,0,0)"  stroke-width="1.0"/>
<line x1="213.1" y1="60.0" x2="247.8" y2="40.0" stroke="rgb(0,0,0)"  stroke-width="1.0"/>
<line x1="221.9" y1="63.2" x2="246.2" y2="49.2" stroke="rgb(0,0,0)"  stroke-width="1.0"/>
<line x1="247.8" y1="40.0" x2="282.4" y2="60.0" stroke="rgb(0,0,0)"  stroke-width="1.0"/>
<line x1="282.4" y1="100.0" x2="247.8" y2="120.0" stroke="rgb(0,0,0)"  stroke-width="1.0"/>
<line x1="247.8" y1="120.0" x2="213.1" y2="100.0" stroke="rgb(0,0,0)"  stroke-width="1.0"/>
<line x1="246.2" y1="110.7" x2="221.9" y2="96.7" stroke="rgb(0,0,0)"  stroke-width="1.0"/>
<line x1="213.1" y1="100.0" x2="213.1" y2="60.0" stroke="rgb(0,0,0)"  stroke-width="1.0"/>
<text x="311.114432" y="127.982999" fill="rgb(12,12,255)"  stroke="rgb(12,12,255)" stroke-width="1" font-size="16" >N</text>
<text x="311.114432" y="48.000000" fill="rgb(12,12,255)"  stroke="rgb(12,12,255)" stroke-width="1" font-size="16" >N</text>
<text x="22.000000" y="87.991500" fill="rgb(102,102,102)"  stroke="rgb(102,102,102)" stroke-width="1" font-size="16" >HC</text>
<text x="172.559640" y="167.974499" fill="rgb(255,12,12)"  stroke="rgb(255,12,12)" stroke-width="1" font-size="16" >O</text>
<text x="137.817933" y="107.987250" fill="rgb(12,12,255)"  stroke="rgb(12,12,255)" stroke-width="1" font-size="16" >N</text>
<text x="137.817933" y="91.987250" fill="rgb(12,12,255)"  stroke="rgb(12,12,255)" stroke-width="1" font-size="16" >H</text>
<text x="382.394252" y="48.000000" fill="rgb(102,102,102)"  stroke="rgb(102,102,102)" stroke-width="1" font-size="16" >CH</text>
<text x="406.394252" y="51.680000" fill="rgb(102,102,102)"  stroke="rgb(102,102,102)" stroke-width="1" font-size="13" >3</text>
<text x="382.394252" y="127.982999" fill="rgb(102,102,102)"  stroke="rgb(102,102,102)" stroke-width="1" font-size="16" >CH</text>
<text x="406.394252" y="131.662999" fill="rgb(102,102,102)"  stroke="rgb(102,102,102)" stroke-width="1" font-size="13" >3</text>
<text font-size="18.000000" fill ="black" font-family="sans-serif"
x="10.000000" y="20.000000" ></text>
<title> - OBDepict</title>
</svg>
