<?xml version="1.0"?>
<svg xmlns="http://www.w3.org/2000/svg"
xmlns:xlink="http://www.w3.org/1999/xlink" xmlns:cml="http://www.xml-cml.org/schema" width="293.107" height="490.32" x="0" y="0" font-family="sans-serif" stroke="rgb(0,0,0)" stroke-width="1"  stroke-linecap="round">
<rect x="0%" y="0%" width="100%" height="100%" stroke-width="0" fill="rgb(255,255,255)"  />
<line x1="177.8" y1="230.4" x2="212.5" y2="250.4" stroke="rgb(0,0,0)"  stroke-width="1.0"/>
<line x1="119.3" y1="178.9" x2="100.0" y2="159.3" stroke="rgb(0,0,0)"  stroke-width="1.0"/>
<line x1="123.6" y1="174.7" x2="104.3" y2="155.1" stroke="rgb(0,0,0)"  stroke-width="1.0"/>
<line x1="72.0" y1="212.2" x2="52.8" y2="193.0" stroke="rgb(0,0,0)"  stroke-width="1.0"/>
<line x1="76.3" y1="208.0" x2="57.0" y2="188.8" stroke="rgb(0,0,0)"  stroke-width="1.0"/>
<line x1="177.8" y1="270.3" x2="201.3" y2="284.1" stroke="rgb(0,0,0)"  stroke-width="1.0"/>
<line x1="212.5" y1="250.4" x2="235.7" y2="263.8" stroke="rgb(0,0,0)"  stroke-width="1.0"/>
<line x1="214.6" y1="246.8" x2="237.8" y2="260.2" stroke="rgb(0,0,0)"  stroke-width="1.0"/>
<line x1="210.4" y1="254.1" x2="233.6" y2="267.5" stroke="rgb(0,0,0)"  stroke-width="1.0"/>
<line x1="143.3" y1="132.9" x2="136.0" y2="106.6" stroke="rgb(0,0,0)"  stroke-width="1.0"/>
<line x1="143.2" y1="303.4" x2="142.7" y2="330.2" stroke="rgb(0,0,0)"  stroke-width="1.0"/>
<line x1="136.0" y1="106.6" x2="164.3" y2="78.6" stroke="rgb(0,0,0)"  stroke-width="1.0"/>
<line x1="164.3" y1="78.6" x2="157.1" y2="52.5" stroke="rgb(0,0,0)"  stroke-width="1.0"/>
<line x1="160.2" y1="79.8" x2="153.0" y2="53.6" stroke="rgb(0,0,0)"  stroke-width="1.0"/>
<line x1="168.3" y1="77.5" x2="161.1" y2="51.4" stroke="rgb(0,0,0)"  stroke-width="1.0"/>
<line x1="177.3" y1="390.3" x2="200.5" y2="403.7" stroke="rgb(0,0,0)"  stroke-width="1.0"/>
<line x1="142.5" y1="410.2" x2="142.2" y2="437.3" stroke="rgb(0,0,0)"  stroke-width="1.0"/>
<line x1="143.7" y1="210.1" x2="182.2" y2="199.9" stroke="rgb(0,0,0)"  stroke-width="1.0"/>
<line x1="182.2" y1="199.9" x2="183.9" y2="159.8" stroke="rgb(0,0,0)"  stroke-width="1.0"/>
<line x1="175.2" y1="193.6" x2="176.4" y2="165.5" stroke="rgb(0,0,0)"  stroke-width="1.0"/>
<line x1="183.9" y1="159.8" x2="158.8" y2="150.1" stroke="rgb(0,0,0)"  stroke-width="1.0"/>
<line x1="138.6" y1="155.5" x2="121.5" y2="176.8" stroke="rgb(0,0,0)"  stroke-width="1.0"/>
<line x1="121.5" y1="176.8" x2="143.7" y2="210.1" stroke="rgb(0,0,0)"  stroke-width="1.0"/>
<line x1="219.7" y1="141.2" x2="183.9" y2="159.8" stroke="rgb(0,0,0)"  stroke-width="1.0"/>
<line x1="182.2" y1="199.9" x2="215.5" y2="221.3" stroke="rgb(0,0,0)"  stroke-width="1.0"/>
<line x1="215.5" y1="221.3" x2="251.3" y2="203.1" stroke="rgb(0,0,0)"  stroke-width="1.0"/>
<line x1="217.6" y1="212.2" x2="242.7" y2="199.4" stroke="rgb(0,0,0)"  stroke-width="1.0"/>
<line x1="251.3" y1="203.1" x2="253.1" y2="163.1" stroke="rgb(0,0,0)"  stroke-width="1.0"/>
<line x1="253.1" y1="163.1" x2="219.7" y2="141.2" stroke="rgb(0,0,0)"  stroke-width="1.0"/>
<line x1="244.1" y1="165.8" x2="220.7" y2="150.5" stroke="rgb(0,0,0)"  stroke-width="1.0"/>
<line x1="143.7" y1="210.1" x2="177.8" y2="230.4" stroke="rgb(0,0,0)"  stroke-width="1.0"/>
<line x1="177.8" y1="230.4" x2="177.8" y2="270.3" stroke="rgb(0,0,0)"  stroke-width="1.0"/>
<line x1="170.6" y1="236.4" x2="170.6" y2="264.3" stroke="rgb(0,0,0)"  stroke-width="1.0"/>
<line x1="177.8" y1="270.3" x2="154.6" y2="283.9" stroke="rgb(0,0,0)"  stroke-width="1.0"/>
<line x1="132.1" y1="283.9" x2="108.8" y2="270.3" stroke="rgb(0,0,0)"  stroke-width="1.0"/>
<line x1="108.8" y1="270.3" x2="108.8" y2="230.4" stroke="rgb(0,0,0)"  stroke-width="1.0"/>
<line x1="116.0" y1="264.3" x2="116.0" y2="236.4" stroke="rgb(0,0,0)"  stroke-width="1.0"/>
<line x1="108.8" y1="230.4" x2="143.7" y2="210.1" stroke="rgb(0,0,0)"  stroke-width="1.0"/>
<line x1="108.8" y1="230.4" x2="74.1" y2="210.1" stroke="rgb(0,0,0)"  stroke-width="1.0"/>
<line x1="74.1" y1="210.1" x2="40.0" y2="230.4" stroke="rgb(0,0,0)"  stroke-width="1.0"/>
<line x1="40.0" y1="230.4" x2="40.0" y2="270.3" stroke="rgb(0,0,0)"  stroke-width="1.0"/>
<line x1="40.0" y1="270.3" x2="74.1" y2="290.2" stroke="rgb(0,0,0)"  stroke-width="1.0"/>
<line x1="74.1" y1="290.2" x2="108.8" y2="270.3" stroke="rgb(0,0,0)"  stroke-width="1.0"/>
<line x1="142.7" y1="330.2" x2="108.1" y2="349.8" stroke="rgb(0,0,0)"  stroke-width="1.0"/>
<line x1="141.0" y1="339.4" x2="116.8" y2="353.1" stroke="rgb(0,0,0)"  stroke-width="1.0"/>
<line x1="108.1" y1="349.8" x2="107.9" y2="389.8" stroke="rgb(0,0,0)"  stroke-width="1.0"/>
<line x1="107.9" y1="389.8" x2="142.5" y2="410.2" stroke="rgb(0,0,0)"  stroke-width="1.0"/>
<line x1="116.7" y1="386.6" x2="141.0" y2="400.9" stroke="rgb(0,0,0)"  stroke-width="1.0"/>
<line x1="142.5" y1="410.2" x2="177.3" y2="390.3" stroke="rgb(0,0,0)"  stroke-width="1.0"/>
<line x1="177.3" y1="390.3" x2="177.3" y2="350.5" stroke="rgb(0,0,0)"  stroke-width="1.0"/>
<line x1="170.1" y1="384.3" x2="170.1" y2="356.5" stroke="rgb(0,0,0)"  stroke-width="1.0"/>
<line x1="177.3" y1="350.5" x2="142.7" y2="330.2" stroke="rgb(0,0,0)"  stroke-width="1.0"/>
<text x="140.720672" y="153.382847" fill="rgb(12,12,255)"  stroke="rgb(12,12,255)" stroke-width="1" font-size="16" >N</text>
<text x="87.028303" y="155.888846" fill="rgb(255,12,12)"  stroke="rgb(255,12,12)" stroke-width="1" font-size="16" >O</text>
<text x="137.380956" y="298.406047" fill="rgb(12,12,255)"  stroke="rgb(12,12,255)" stroke-width="1" font-size="16" >N</text>
<text x="39.690606" y="189.683483" fill="rgb(255,12,12)"  stroke="rgb(255,12,12)" stroke-width="1" font-size="16" >O</text>
<text x="208.463166" y="298.740503" fill="rgb(12,12,255)"  stroke="rgb(12,12,255)" stroke-width="1" font-size="16" >NH</text>
<text x="232.463166" y="302.420503" fill="rgb(12,12,255)"  stroke="rgb(12,12,255)" stroke-width="1" font-size="13" >2</text>
<text x="240.921869" y="278.333816" fill="rgb(12,12,255)"  stroke="rgb(12,12,255)" stroke-width="1" font-size="16" >N</text>
<text x="135.579452" y="48.000000" fill="rgb(102,102,102)"  stroke="rgb(102,102,102)" stroke-width="1" font-size="16" >HC</text>
<text x="205.794253" y="418.175366" fill="rgb(30,239,30)"  stroke="rgb(30,239,30)" stroke-width="1" font-size="16" >Cl</text>
<text x="116.043130" y="458.319827" fill="rgb(102,102,102)"  stroke="rgb(102,102,102)" stroke-width="1" font-size="16" >H</text>
<text x="128.043130" y="461.999827" fill="rgb(102,102,102)"  stroke="rgb(102,102,102)" stroke-width="1" font-size="13" >3</text>
<text x="134.543130" y="458.319827" fill="rgb(102,102,102)"  stroke="rgb(102,102,102)" stroke-width="1" font-size="16" >C</text>
<text font-size="18.000000" fill ="black" font-family="sans-serif"
x="10.000000" y="20.000000" ></text>
<title> - OBDepict</title>
</svg>
