<?xml version="1.0"?>
<svg xmlns="http://www.w3.org/2000/svg"
xmlns:xlink="http://www.w3.org/1999/xlink" xmlns:cml="http://www.xml-cml.org/schema" width="389.295" height="408.542" x="0" y="0" font-family="sans-serif" stroke="rgb(0,0,0)" stroke-width="1"  stroke-linecap="round">
<rect x="0%" y="0%" width="100%" height="100%" stroke-width="0" fill="rgb(255,255,255)"  />
<line x1="116.4" y1="285.7" x2="141.9" y2="294.0" stroke="rgb(0,0,0)"  stroke-width="1.0"/>
<line x1="258.5" y1="288.5" x2="220.2" y2="300.9" stroke="rgb(0,0,0)"  stroke-width="1.0"/>
<line x1="256.6" y1="282.8" x2="218.3" y2="295.2" stroke="rgb(0,0,0)"  stroke-width="1.0"/>
<line x1="107.9" y1="246.4" x2="116.4" y2="285.7" stroke="rgb(0,0,0)"  stroke-width="1.0"/>
<line x1="265.4" y1="246.4" x2="257.5" y2="285.7" stroke="rgb(0,0,0)"  stroke-width="1.0"/>
<line x1="337.1" y1="78.1" x2="328.4" y2="117.6" stroke="rgb(0,0,0)"  stroke-width="1.0"/>
<line x1="342.8" y1="52.7" x2="337.1" y2="78.1" stroke="rgb(0,0,0)"  stroke-width="1.0"/>
<line x1="346.9" y1="53.6" x2="341.2" y2="79.0" stroke="rgb(0,0,0)"  stroke-width="1.0"/>
<line x1="338.7" y1="51.8" x2="333.0" y2="77.2" stroke="rgb(0,0,0)"  stroke-width="1.0"/>
<line x1="148.4" y1="356.3" x2="164.4" y2="334.6" stroke="rgb(0,0,0)"  stroke-width="1.0"/>
<line x1="153.2" y1="359.8" x2="169.2" y2="338.1" stroke="rgb(0,0,0)"  stroke-width="1.0"/>
<line x1="189.6" y1="247.2" x2="189.8" y2="274.3" stroke="rgb(0,0,0)"  stroke-width="1.0"/>
<line x1="183.6" y1="247.3" x2="183.8" y2="274.4" stroke="rgb(0,0,0)"  stroke-width="1.0"/>
<line x1="336.9" y1="186.9" x2="311.0" y2="195.2" stroke="rgb(0,0,0)"  stroke-width="1.0"/>
<line x1="224.4" y1="162.6" x2="244.2" y2="180.8" stroke="rgb(0,0,0)"  stroke-width="1.0"/>
<line x1="287.5" y1="142.2" x2="281.6" y2="168.6" stroke="rgb(0,0,0)"  stroke-width="1.0"/>
<line x1="49.7" y1="252.3" x2="69.8" y2="234.2" stroke="rgb(0,0,0)"  stroke-width="1.0"/>
<line x1="328.4" y1="117.6" x2="302.8" y2="125.6" stroke="rgb(0,0,0)"  stroke-width="1.0"/>
<line x1="164.8" y1="290.4" x2="186.8" y2="274.4" stroke="rgb(0,0,0)"  stroke-width="1.0"/>
<line x1="186.8" y1="274.4" x2="219.3" y2="298.1" stroke="rgb(0,0,0)"  stroke-width="1.0"/>
<line x1="219.3" y1="298.1" x2="210.9" y2="324.0" stroke="rgb(0,0,0)"  stroke-width="1.0"/>
<line x1="193.9" y1="336.3" x2="166.8" y2="336.3" stroke="rgb(0,0,0)"  stroke-width="1.0"/>
<line x1="166.8" y1="336.3" x2="158.3" y2="310.4" stroke="rgb(0,0,0)"  stroke-width="1.0"/>
<line x1="244.2" y1="180.8" x2="281.6" y2="168.6" stroke="rgb(0,0,0)"  stroke-width="1.0"/>
<line x1="252.1" y1="185.8" x2="278.2" y2="177.3" stroke="rgb(0,0,0)"  stroke-width="1.0"/>
<line x1="281.6" y1="168.6" x2="311.0" y2="195.2" stroke="rgb(0,0,0)"  stroke-width="1.0"/>
<line x1="311.0" y1="195.2" x2="303.1" y2="234.2" stroke="rgb(0,0,0)"  stroke-width="1.0"/>
<line x1="302.8" y1="199.6" x2="297.2" y2="226.9" stroke="rgb(0,0,0)"  stroke-width="1.0"/>
<line x1="303.1" y1="234.2" x2="265.4" y2="246.4" stroke="rgb(0,0,0)"  stroke-width="1.0"/>
<line x1="265.4" y1="246.4" x2="235.7" y2="219.7" stroke="rgb(0,0,0)"  stroke-width="1.0"/>
<line x1="265.8" y1="237.0" x2="244.9" y2="218.3" stroke="rgb(0,0,0)"  stroke-width="1.0"/>
<line x1="235.7" y1="219.7" x2="244.2" y2="180.8" stroke="rgb(0,0,0)"  stroke-width="1.0"/>
<line x1="107.9" y1="246.4" x2="69.8" y2="234.2" stroke="rgb(0,0,0)"  stroke-width="1.0"/>
<line x1="69.8" y1="234.2" x2="61.3" y2="195.2" stroke="rgb(0,0,0)"  stroke-width="1.0"/>
<line x1="75.5" y1="226.9" x2="69.6" y2="199.5" stroke="rgb(0,0,0)"  stroke-width="1.0"/>
<line x1="61.3" y1="195.2" x2="91.0" y2="168.0" stroke="rgb(0,0,0)"  stroke-width="1.0"/>
<line x1="91.0" y1="168.0" x2="129.3" y2="180.6" stroke="rgb(0,0,0)"  stroke-width="1.0"/>
<line x1="94.5" y1="176.7" x2="121.4" y2="185.5" stroke="rgb(0,0,0)"  stroke-width="1.0"/>
<line x1="129.3" y1="180.6" x2="137.8" y2="219.7" stroke="rgb(0,0,0)"  stroke-width="1.0"/>
<line x1="137.8" y1="219.7" x2="107.9" y2="246.4" stroke="rgb(0,0,0)"  stroke-width="1.0"/>
<line x1="128.6" y1="218.3" x2="107.5" y2="237.0" stroke="rgb(0,0,0)"  stroke-width="1.0"/>
<text x="148.237005" y="306.053104" fill="rgb(12,12,255)"  stroke="rgb(12,12,255)" stroke-width="1" font-size="16" >N</text>
<text x="200.900210" y="344.334214" fill="rgb(12,12,255)"  stroke="rgb(12,12,255)" stroke-width="1" font-size="16" >N</text>
<text x="200.900210" y="360.334214" fill="rgb(12,12,255)"  stroke="rgb(12,12,255)" stroke-width="1" font-size="16" >H</text>
<text x="339.647409" y="48.000000" fill="rgb(102,102,102)"  stroke="rgb(102,102,102)" stroke-width="1" font-size="16" >CH</text>
<text x="137.095125" y="376.542346" fill="rgb(255,12,12)"  stroke="rgb(255,12,12)" stroke-width="1" font-size="16" >O</text>
<text x="180.445136" y="242.248018" fill="rgb(255,12,12)"  stroke="rgb(255,12,12)" stroke-width="1" font-size="16" >O</text>
<text x="343.295077" y="191.001194" fill="rgb(30,239,30)"  stroke="rgb(30,239,30)" stroke-width="1" font-size="16" >Cl</text>
<text x="196.801874" y="161.834403" fill="rgb(30,239,30)"  stroke="rgb(30,239,30)" stroke-width="1" font-size="16" >Cl</text>
<text x="284.355166" y="137.527935" fill="rgb(255,12,12)"  stroke="rgb(255,12,12)" stroke-width="1" font-size="16" >O</text>
<text x="34.000000" y="268.984648" fill="rgb(127,178,255)"  stroke="rgb(127,178,255)" stroke-width="1" font-size="16" >F</text>
<text font-size="18.000000" fill ="black" font-family="sans-serif"
x="10.000000" y="20.000000" ></text>
<title> - OBDepict</title>
</svg>
