<?xml version="1.0"?>
<svg xmlns="http://www.w3.org/2000/svg"
xmlns:xlink="http://www.w3.org/1999/xlink" xmlns:cml="http://www.xml-cml.org/schema" width="488.171" height="251.13" x="0" y="0" font-family="sans-serif" stroke="rgb(0,0,0)" stroke-width="1"  stroke-linecap="round">
<rect x="0%" y="0%" width="100%" height="100%" stroke-width="0" fill="rgb(255,255,255)"  />
<line x1="235.2" y1="78.1" x2="208.1" y2="78.1" stroke="rgb(0,0,0)"  stroke-width="1.0"/>
<line x1="235.2" y1="72.1" x2="208.1" y2="72.1" stroke="rgb(0,0,0)"  stroke-width="1.0"/>
<line x1="308.1" y1="109.5" x2="268.2" y2="109.5" stroke="rgb(0,0,0)"  stroke-width="1.0"/>
<line x1="268.2" y1="109.5" x2="254.7" y2="86.3" stroke="rgb(0,0,0)"  stroke-width="1.0"/>
<line x1="180.5" y1="178.9" x2="204.5" y2="146.4" stroke="rgb(0,0,0)"  stroke-width="1.0"/>
<line x1="164.6" y1="200.6" x2="180.5" y2="178.9" stroke="rgb(0,0,0)"  stroke-width="1.0"/>
<line x1="161.2" y1="198.2" x2="177.1" y2="176.4" stroke="rgb(0,0,0)"  stroke-width="1.0"/>
<line x1="168.0" y1="203.1" x2="183.9" y2="181.4" stroke="rgb(0,0,0)"  stroke-width="1.0"/>
<line x1="252.1" y1="131.3" x2="265.6" y2="108.0" stroke="rgb(0,0,0)"  stroke-width="1.0"/>
<line x1="257.3" y1="134.3" x2="270.8" y2="111.0" stroke="rgb(0,0,0)"  stroke-width="1.0"/>
<line x1="384.5" y1="52.7" x2="370.5" y2="76.4" stroke="rgb(0,0,0)"  stroke-width="1.0"/>
<line x1="379.3" y1="49.7" x2="365.4" y2="73.3" stroke="rgb(0,0,0)"  stroke-width="1.0"/>
<line x1="204.5" y1="146.4" x2="193.4" y2="121.4" stroke="rgb(0,0,0)"  stroke-width="1.0"/>
<line x1="118.8" y1="151.0" x2="116.4" y2="124.1" stroke="rgb(0,0,0)"  stroke-width="1.0"/>
<line x1="51.8" y1="56.4" x2="76.5" y2="67.8" stroke="rgb(0,0,0)"  stroke-width="1.0"/>
<line x1="208.1" y1="75.1" x2="194.7" y2="98.3" stroke="rgb(0,0,0)"  stroke-width="1.0"/>
<line x1="175.4" y1="106.8" x2="149.0" y2="101.1" stroke="rgb(0,0,0)"  stroke-width="1.0"/>
<line x1="149.0" y1="101.1" x2="145.2" y2="61.2" stroke="rgb(0,0,0)"  stroke-width="1.0"/>
<line x1="155.6" y1="94.4" x2="153.0" y2="66.4" stroke="rgb(0,0,0)"  stroke-width="1.0"/>
<line x1="145.2" y1="61.2" x2="169.3" y2="50.2" stroke="rgb(0,0,0)"  stroke-width="1.0"/>
<line x1="189.8" y1="54.5" x2="208.1" y2="75.1" stroke="rgb(0,0,0)"  stroke-width="1.0"/>
<line x1="308.1" y1="109.5" x2="328.0" y2="74.9" stroke="rgb(0,0,0)"  stroke-width="1.0"/>
<line x1="317.3" y1="107.9" x2="331.3" y2="83.7" stroke="rgb(0,0,0)"  stroke-width="1.0"/>
<line x1="328.0" y1="74.9" x2="367.9" y2="74.9" stroke="rgb(0,0,0)"  stroke-width="1.0"/>
<line x1="367.9" y1="74.9" x2="387.9" y2="109.5" stroke="rgb(0,0,0)"  stroke-width="1.0"/>
<line x1="387.9" y1="109.5" x2="367.9" y2="144.0" stroke="rgb(0,0,0)"  stroke-width="1.0"/>
<line x1="378.7" y1="111.1" x2="364.7" y2="135.2" stroke="rgb(0,0,0)"  stroke-width="1.0"/>
<line x1="367.9" y1="144.0" x2="341.0" y2="144.0" stroke="rgb(0,0,0)"  stroke-width="1.0"/>
<line x1="321.5" y1="132.8" x2="308.1" y2="109.5" stroke="rgb(0,0,0)"  stroke-width="1.0"/>
<line x1="428.2" y1="109.5" x2="387.9" y2="109.5" stroke="rgb(0,0,0)"  stroke-width="1.0"/>
<line x1="367.9" y1="144.0" x2="387.9" y2="178.5" stroke="rgb(0,0,0)"  stroke-width="1.0"/>
<line x1="387.9" y1="178.5" x2="428.2" y2="178.5" stroke="rgb(0,0,0)"  stroke-width="1.0"/>
<line x1="393.9" y1="171.3" x2="422.2" y2="171.3" stroke="rgb(0,0,0)"  stroke-width="1.0"/>
<line x1="428.2" y1="178.5" x2="448.2" y2="144.0" stroke="rgb(0,0,0)"  stroke-width="1.0"/>
<line x1="448.2" y1="144.0" x2="428.2" y2="109.5" stroke="rgb(0,0,0)"  stroke-width="1.0"/>
<line x1="438.9" y1="142.4" x2="425.0" y2="118.3" stroke="rgb(0,0,0)"  stroke-width="1.0"/>
<line x1="116.4" y1="124.1" x2="149.0" y2="101.1" stroke="rgb(0,0,0)"  stroke-width="1.0"/>
<line x1="145.2" y1="61.2" x2="108.9" y2="44.6" stroke="rgb(0,0,0)"  stroke-width="1.0"/>
<line x1="108.9" y1="44.6" x2="76.5" y2="67.8" stroke="rgb(0,0,0)"  stroke-width="1.0"/>
<line x1="108.2" y1="54.0" x2="85.6" y2="70.2" stroke="rgb(0,0,0)"  stroke-width="1.0"/>
<line x1="76.5" y1="67.8" x2="80.1" y2="107.5" stroke="rgb(0,0,0)"  stroke-width="1.0"/>
<line x1="80.1" y1="107.5" x2="116.4" y2="124.1" stroke="rgb(0,0,0)"  stroke-width="1.0"/>
<line x1="88.6" y1="103.5" x2="113.9" y2="115.0" stroke="rgb(0,0,0)"  stroke-width="1.0"/>
<text x="242.219381" y="83.072499" fill="rgb(12,12,255)"  stroke="rgb(12,12,255)" stroke-width="1" font-size="16" >N</text>
<text x="182.151075" y="117.540300" fill="rgb(12,12,255)"  stroke="rgb(12,12,255)" stroke-width="1" font-size="16" >N</text>
<text x="175.097874" y="52.837586" fill="rgb(178,178,0)"  stroke="rgb(178,178,0)" stroke-width="1" font-size="16" >S</text>
<text x="322.039552" y="152.008101" fill="rgb(255,12,12)"  stroke="rgb(255,12,12)" stroke-width="1" font-size="16" >O</text>
<text x="138.909943" y="219.129609" fill="rgb(102,102,102)"  stroke="rgb(102,102,102)" stroke-width="1" font-size="16" >HC</text>
<text x="242.219381" y="152.008101" fill="rgb(255,12,12)"  stroke="rgb(255,12,12)" stroke-width="1" font-size="16" >O</text>
<text x="382.509378" y="48.000000" fill="rgb(255,12,12)"  stroke="rgb(255,12,12)" stroke-width="1" font-size="16" >O</text>
<text x="114.023349" y="171.963144" fill="rgb(127,178,255)"  stroke="rgb(127,178,255)" stroke-width="1" font-size="16" >F</text>
<text x="34.000000" y="58.884569" fill="rgb(127,178,255)"  stroke="rgb(127,178,255)" stroke-width="1" font-size="16" >F</text>
<text font-size="18.000000" fill ="black" font-family="sans-serif"
x="10.000000" y="20.000000" ></text>
<title> - OBDepict</title>
</svg>
