<?xml version="1.0"?>
<svg xmlns="http://www.w3.org/2000/svg"
xmlns:xlink="http://www.w3.org/1999/xlink" xmlns:cml="http://www.xml-cml.org/schema" width="371.553" height="332.552" x="0" y="0" font-family="sans-serif" stroke="rgb(0,0,0)" stroke-width="1"  stroke-linecap="round">
<rect x="0%" y="0%" width="100%" height="100%" stroke-width="0" fill="rgb(255,255,255)"  />
<line x1="238.0" y1="170.0" x2="222.4" y2="192.0" stroke="rgb(0,0,0)"  stroke-width="1.0"/>
<line x1="240.0" y1="147.6" x2="228.7" y2="123.1" stroke="rgb(0,0,0)"  stroke-width="1.0"/>
<line x1="258.4" y1="160.6" x2="285.4" y2="163.1" stroke="rgb(0,0,0)"  stroke-width="1.0"/>
<line x1="222.4" y1="192.0" x2="239.2" y2="228.0" stroke="rgb(0,0,0)"  stroke-width="1.0"/>
<line x1="222.4" y1="192.0" x2="182.5" y2="188.3" stroke="rgb(0,0,0)"  stroke-width="1.0"/>
<line x1="285.4" y1="163.1" x2="308.4" y2="130.4" stroke="rgb(0,0,0)"  stroke-width="1.0"/>
<line x1="288.1" y1="161.8" x2="299.3" y2="186.3" stroke="rgb(0,0,0)"  stroke-width="1.0"/>
<line x1="282.7" y1="164.3" x2="293.9" y2="188.8" stroke="rgb(0,0,0)"  stroke-width="1.0"/>
<line x1="182.5" y1="188.3" x2="167.0" y2="210.4" stroke="rgb(0,0,0)"  stroke-width="1.0"/>
<line x1="179.7" y1="189.6" x2="168.5" y2="165.1" stroke="rgb(0,0,0)"  stroke-width="1.0"/>
<line x1="185.2" y1="187.1" x2="174.0" y2="162.6" stroke="rgb(0,0,0)"  stroke-width="1.0"/>
<line x1="308.4" y1="130.4" x2="324.1" y2="108.1" stroke="rgb(0,0,0)"  stroke-width="1.0"/>
<line x1="304.9" y1="128.0" x2="320.6" y2="105.7" stroke="rgb(0,0,0)"  stroke-width="1.0"/>
<line x1="311.8" y1="132.8" x2="327.5" y2="110.5" stroke="rgb(0,0,0)"  stroke-width="1.0"/>
<line x1="146.5" y1="219.8" x2="119.7" y2="217.3" stroke="rgb(0,0,0)"  stroke-width="1.0"/>
<line x1="172.2" y1="83.0" x2="132.2" y2="79.4" stroke="rgb(0,0,0)"  stroke-width="1.0"/>
<line x1="132.2" y1="79.4" x2="105.3" y2="81.6" stroke="rgb(0,0,0)"  stroke-width="1.0"/>
<line x1="132.2" y1="79.4" x2="132.2" y2="106.4" stroke="rgb(0,0,0)"  stroke-width="1.0"/>
<line x1="132.2" y1="79.4" x2="127.6" y2="52.8" stroke="rgb(0,0,0)"  stroke-width="1.0"/>
<line x1="239.2" y1="228.0" x2="219.7" y2="262.9" stroke="rgb(0,0,0)"  stroke-width="1.0"/>
<line x1="242.6" y1="236.7" x2="228.9" y2="261.2" stroke="rgb(0,0,0)"  stroke-width="1.0"/>
<line x1="219.7" y1="262.9" x2="246.8" y2="292.6" stroke="rgb(0,0,0)"  stroke-width="1.0"/>
<line x1="246.8" y1="292.6" x2="283.2" y2="275.6" stroke="rgb(0,0,0)"  stroke-width="1.0"/>
<line x1="249.2" y1="283.5" x2="274.7" y2="271.6" stroke="rgb(0,0,0)"  stroke-width="1.0"/>
<line x1="283.2" y1="275.6" x2="280.0" y2="248.9" stroke="rgb(0,0,0)"  stroke-width="1.0"/>
<line x1="265.7" y1="233.4" x2="239.2" y2="228.0" stroke="rgb(0,0,0)"  stroke-width="1.0"/>
<line x1="228.7" y1="123.1" x2="251.8" y2="90.4" stroke="rgb(0,0,0)"  stroke-width="1.0"/>
<line x1="226.3" y1="114.0" x2="242.5" y2="91.1" stroke="rgb(0,0,0)"  stroke-width="1.0"/>
<line x1="251.8" y1="90.4" x2="235.1" y2="54.1" stroke="rgb(0,0,0)"  stroke-width="1.0"/>
<line x1="235.1" y1="54.1" x2="195.2" y2="50.4" stroke="rgb(0,0,0)"  stroke-width="1.0"/>
<line x1="228.4" y1="60.7" x2="200.5" y2="58.1" stroke="rgb(0,0,0)"  stroke-width="1.0"/>
<line x1="195.2" y1="50.4" x2="172.2" y2="83.0" stroke="rgb(0,0,0)"  stroke-width="1.0"/>
<line x1="172.2" y1="83.0" x2="188.8" y2="119.4" stroke="rgb(0,0,0)"  stroke-width="1.0"/>
<line x1="181.2" y1="85.5" x2="192.9" y2="110.9" stroke="rgb(0,0,0)"  stroke-width="1.0"/>
<line x1="188.8" y1="119.4" x2="228.7" y2="123.1" stroke="rgb(0,0,0)"  stroke-width="1.0"/>
<line x1="119.7" y1="217.3" x2="102.8" y2="181.1" stroke="rgb(0,0,0)"  stroke-width="1.0"/>
<line x1="102.8" y1="181.1" x2="62.8" y2="177.5" stroke="rgb(0,0,0)"  stroke-width="1.0"/>
<line x1="62.8" y1="177.5" x2="40.0" y2="210.0" stroke="rgb(0,0,0)"  stroke-width="1.0"/>
<line x1="40.0" y1="210.0" x2="56.8" y2="246.3" stroke="rgb(0,0,0)"  stroke-width="1.0"/>
<line x1="56.8" y1="246.3" x2="96.5" y2="250.0" stroke="rgb(0,0,0)"  stroke-width="1.0"/>
<line x1="96.5" y1="250.0" x2="119.7" y2="217.3" stroke="rgb(0,0,0)"  stroke-width="1.0"/>
<text x="239.471091" y="167.379174" fill="rgb(12,12,255)"  stroke="rgb(12,12,255)" stroke-width="1" font-size="16" >N</text>
<text x="296.034693" y="207.384027" fill="rgb(255,12,12)"  stroke="rgb(255,12,12)" stroke-width="1" font-size="16" >O</text>
<text x="272.486735" y="243.993705" fill="rgb(178,178,0)"  stroke="rgb(178,178,0)" stroke-width="1" font-size="16" >S</text>
<text x="153.471329" y="229.001586" fill="rgb(12,12,255)"  stroke="rgb(12,12,255)" stroke-width="1" font-size="16" >N</text>
<text x="153.471329" y="245.001586" fill="rgb(12,12,255)"  stroke="rgb(12,12,255)" stroke-width="1" font-size="16" >H</text>
<text x="159.820305" y="160.021347" fill="rgb(255,12,12)"  stroke="rgb(255,12,12)" stroke-width="1" font-size="16" >O</text>
<text x="325.553307" y="105.480299" fill="rgb(102,102,102)"  stroke="rgb(102,102,102)" stroke-width="1" font-size="16" >CH</text>
<text x="86.334185" y="90.672489" fill="rgb(127,178,255)"  stroke="rgb(127,178,255)" stroke-width="1" font-size="16" >F</text>
<text x="126.159578" y="127.369472" fill="rgb(127,178,255)"  stroke="rgb(127,178,255)" stroke-width="1" font-size="16" >F</text>
<text x="119.446834" y="48.000000" fill="rgb(127,178,255)"  stroke="rgb(127,178,255)" stroke-width="1" font-size="16" >F</text>
<text font-size="18.000000" fill ="black" font-family="sans-serif"
x="10.000000" y="20.000000" ></text>
<title> - OBDepict</title>
</svg>
