<?xml version="1.0"?>
<svg xmlns="http://www.w3.org/2000/svg"
xmlns:xlink="http://www.w3.org/1999/xlink" xmlns:cml="http://www.xml-cml.org/schema" width="438.554" height="318.485" x="0" y="0" font-family="sans-serif" stroke="rgb(0,0,0)" stroke-width="1"  stroke-linecap="round">
<rect x="0%" y="0%" width="100%" height="100%" stroke-width="0" fill="rgb(255,255,255)"  />
<line x1="139.5" y1="154.0" x2="165.6" y2="124.8" stroke="rgb(0,0,0)"  stroke-width="1.0"/>
<line x1="166.2" y1="121.8" x2="204.6" y2="129.7" stroke="rgb(0,0,0)"  stroke-width="1.0"/>
<line x1="165.0" y1="127.7" x2="203.4" y2="135.6" stroke="rgb(0,0,0)"  stroke-width="1.0"/>
<line x1="165.6" y1="124.8" x2="151.2" y2="82.5" stroke="rgb(0,0,0)"  stroke-width="1.0"/>
<line x1="204.0" y1="132.7" x2="216.7" y2="170.2" stroke="rgb(0,0,0)"  stroke-width="1.0"/>
<line x1="151.2" y1="82.5" x2="141.3" y2="52.3" stroke="rgb(0,0,0)"  stroke-width="1.0"/>
<line x1="147.3" y1="83.8" x2="137.3" y2="53.7" stroke="rgb(0,0,0)"  stroke-width="1.0"/>
<line x1="155.2" y1="81.2" x2="145.3" y2="51.0" stroke="rgb(0,0,0)"  stroke-width="1.0"/>
<line x1="268.2" y1="216.5" x2="294.8" y2="221.9" stroke="rgb(0,0,0)"  stroke-width="1.0"/>
<line x1="311.6" y1="236.8" x2="320.2" y2="262.5" stroke="rgb(0,0,0)"  stroke-width="1.0"/>
<line x1="320.2" y1="262.5" x2="359.6" y2="270.4" stroke="rgb(0,0,0)"  stroke-width="1.0"/>
<line x1="359.6" y1="270.4" x2="385.8" y2="275.8" stroke="rgb(0,0,0)"  stroke-width="1.0"/>
<line x1="360.4" y1="266.3" x2="386.7" y2="271.7" stroke="rgb(0,0,0)"  stroke-width="1.0"/>
<line x1="358.7" y1="274.5" x2="385.0" y2="280.0" stroke="rgb(0,0,0)"  stroke-width="1.0"/>
<line x1="139.5" y1="154.0" x2="145.1" y2="179.5" stroke="rgb(0,0,0)"  stroke-width="1.0"/>
<line x1="133.7" y1="161.4" x2="137.7" y2="179.0" stroke="rgb(0,0,0)"  stroke-width="1.0"/>
<line x1="136.8" y1="198.7" x2="114.3" y2="212.1" stroke="rgb(0,0,0)"  stroke-width="1.0"/>
<line x1="114.3" y1="212.1" x2="84.9" y2="186.0" stroke="rgb(0,0,0)"  stroke-width="1.0"/>
<line x1="114.6" y1="202.7" x2="94.1" y2="184.6" stroke="rgb(0,0,0)"  stroke-width="1.0"/>
<line x1="84.9" y1="186.0" x2="95.4" y2="162.0" stroke="rgb(0,0,0)"  stroke-width="1.0"/>
<line x1="113.6" y1="151.4" x2="139.5" y2="154.0" stroke="rgb(0,0,0)"  stroke-width="1.0"/>
<line x1="106.7" y1="250.7" x2="114.3" y2="212.1" stroke="rgb(0,0,0)"  stroke-width="1.0"/>
<line x1="84.9" y1="186.0" x2="47.5" y2="198.7" stroke="rgb(0,0,0)"  stroke-width="1.0"/>
<line x1="47.5" y1="198.7" x2="40.0" y2="237.1" stroke="rgb(0,0,0)"  stroke-width="1.0"/>
<line x1="53.4" y1="206.0" x2="48.2" y2="232.6" stroke="rgb(0,0,0)"  stroke-width="1.0"/>
<line x1="40.0" y1="237.1" x2="68.9" y2="263.2" stroke="rgb(0,0,0)"  stroke-width="1.0"/>
<line x1="68.9" y1="263.2" x2="106.7" y2="250.7" stroke="rgb(0,0,0)"  stroke-width="1.0"/>
<line x1="72.3" y1="254.5" x2="98.8" y2="245.8" stroke="rgb(0,0,0)"  stroke-width="1.0"/>
<line x1="216.7" y1="170.2" x2="190.0" y2="200.5" stroke="rgb(0,0,0)"  stroke-width="1.0"/>
<line x1="190.0" y1="200.5" x2="202.7" y2="238.4" stroke="rgb(0,0,0)"  stroke-width="1.0"/>
<line x1="198.8" y1="203.9" x2="207.7" y2="230.4" stroke="rgb(0,0,0)"  stroke-width="1.0"/>
<line x1="202.7" y1="238.4" x2="241.9" y2="246.5" stroke="rgb(0,0,0)"  stroke-width="1.0"/>
<line x1="241.9" y1="246.5" x2="268.2" y2="216.5" stroke="rgb(0,0,0)"  stroke-width="1.0"/>
<line x1="240.4" y1="237.2" x2="258.8" y2="216.3" stroke="rgb(0,0,0)"  stroke-width="1.0"/>
<line x1="268.2" y1="216.5" x2="255.5" y2="178.5" stroke="rgb(0,0,0)"  stroke-width="1.0"/>
<line x1="255.5" y1="178.5" x2="216.7" y2="170.2" stroke="rgb(0,0,0)"  stroke-width="1.0"/>
<line x1="248.1" y1="184.2" x2="221.1" y2="178.5" stroke="rgb(0,0,0)"  stroke-width="1.0"/>
<text x="141.934138" y="200.061694" fill="rgb(12,12,255)"  stroke="rgb(12,12,255)" stroke-width="1" font-size="16" >N</text>
<text x="94.681400" y="158.140997" fill="rgb(178,178,0)"  stroke="rgb(178,178,0)" stroke-width="1" font-size="16" >S</text>
<text x="131.270059" y="48.000000" fill="rgb(12,12,255)"  stroke="rgb(12,12,255)" stroke-width="1" font-size="16" >N</text>
<text x="301.534731" y="232.424146" fill="rgb(255,12,12)"  stroke="rgb(255,12,12)" stroke-width="1" font-size="16" >O</text>
<text x="392.554427" y="286.484971" fill="rgb(102,102,102)"  stroke="rgb(102,102,102)" stroke-width="1" font-size="16" >CH</text>
<text font-size="18.000000" fill ="black" font-family="sans-serif"
x="10.000000" y="20.000000" ></text>
<title> - OBDepict</title>
</svg>
