<?xml version="1.0"?>
<svg xmlns="http://www.w3.org/2000/svg"
xmlns:xlink="http://www.w3.org/1999/xlink" xmlns:cml="http://www.xml-cml.org/schema" width="391.72" height="374.547" x="0" y="0" font-family="sans-serif" stroke="rgb(0,0,0)" stroke-width="1"  stroke-linecap="round">
<rect x="0%" y="0%" width="100%" height="100%" stroke-width="0" fill="rgb(255,255,255)"  />
<line x1="213.3" y1="160.0" x2="247.9" y2="180.0" stroke="rgb(0,0,0)"  stroke-width="1.0"/>
<line x1="213.3" y1="133.0" x2="213.3" y2="160.0" stroke="rgb(0,0,0)"  stroke-width="1.0"/>
<line x1="293.7" y1="286.5" x2="305.9" y2="293.5" stroke="rgb(0,0,0)"  stroke-width="1.0"/>
<line x1="74.7" y1="120.0" x2="109.3" y2="100.0" stroke="rgb(0,0,0)"  stroke-width="1.0"/>
<line x1="51.3" y1="133.5" x2="74.7" y2="120.0" stroke="rgb(0,0,0)"  stroke-width="1.0"/>
<line x1="49.2" y1="129.9" x2="72.7" y2="116.4" stroke="rgb(0,0,0)"  stroke-width="1.0"/>
<line x1="53.4" y1="137.2" x2="76.8" y2="123.6" stroke="rgb(0,0,0)"  stroke-width="1.0"/>
<line x1="301.1" y1="321.8" x2="308.1" y2="309.7" stroke="rgb(0,0,0)"  stroke-width="1.0"/>
<line x1="306.3" y1="324.8" x2="313.3" y2="312.8" stroke="rgb(0,0,0)"  stroke-width="1.0"/>
<line x1="339.0" y1="316.1" x2="326.9" y2="309.1" stroke="rgb(0,0,0)"  stroke-width="1.0"/>
<line x1="342.0" y1="310.9" x2="329.9" y2="303.9" stroke="rgb(0,0,0)"  stroke-width="1.0"/>
<line x1="188.4" y1="170.9" x2="211.8" y2="157.4" stroke="rgb(0,0,0)"  stroke-width="1.0"/>
<line x1="191.3" y1="176.1" x2="214.8" y2="162.6" stroke="rgb(0,0,0)"  stroke-width="1.0"/>
<line x1="282.4" y1="240.0" x2="282.4" y2="267.0" stroke="rgb(0,0,0)"  stroke-width="1.0"/>
<line x1="178.6" y1="100.0" x2="202.1" y2="113.5" stroke="rgb(0,0,0)"  stroke-width="1.0"/>
<line x1="330.7" y1="276.7" x2="323.7" y2="288.8" stroke="rgb(0,0,0)"  stroke-width="1.0"/>
<line x1="247.9" y1="180.0" x2="282.4" y2="160.0" stroke="rgb(0,0,0)"  stroke-width="1.0"/>
<line x1="256.7" y1="183.2" x2="280.8" y2="169.2" stroke="rgb(0,0,0)"  stroke-width="1.0"/>
<line x1="282.4" y1="160.0" x2="317.2" y2="180.0" stroke="rgb(0,0,0)"  stroke-width="1.0"/>
<line x1="317.2" y1="180.0" x2="317.2" y2="220.0" stroke="rgb(0,0,0)"  stroke-width="1.0"/>
<line x1="310.0" y1="186.0" x2="310.0" y2="214.0" stroke="rgb(0,0,0)"  stroke-width="1.0"/>
<line x1="317.2" y1="220.0" x2="282.4" y2="240.0" stroke="rgb(0,0,0)"  stroke-width="1.0"/>
<line x1="282.4" y1="240.0" x2="247.9" y2="220.0" stroke="rgb(0,0,0)"  stroke-width="1.0"/>
<line x1="280.8" y1="230.8" x2="256.7" y2="216.8" stroke="rgb(0,0,0)"  stroke-width="1.0"/>
<line x1="247.9" y1="220.0" x2="247.9" y2="180.0" stroke="rgb(0,0,0)"  stroke-width="1.0"/>
<line x1="178.6" y1="100.0" x2="144.0" y2="120.0" stroke="rgb(0,0,0)"  stroke-width="1.0"/>
<line x1="169.8" y1="96.8" x2="145.6" y2="110.8" stroke="rgb(0,0,0)"  stroke-width="1.0"/>
<line x1="144.0" y1="120.0" x2="109.3" y2="100.0" stroke="rgb(0,0,0)"  stroke-width="1.0"/>
<line x1="109.3" y1="100.0" x2="109.3" y2="60.0" stroke="rgb(0,0,0)"  stroke-width="1.0"/>
<line x1="116.5" y1="94.0" x2="116.5" y2="66.0" stroke="rgb(0,0,0)"  stroke-width="1.0"/>
<line x1="109.3" y1="60.0" x2="144.0" y2="40.0" stroke="rgb(0,0,0)"  stroke-width="1.0"/>
<line x1="144.0" y1="40.0" x2="178.6" y2="60.0" stroke="rgb(0,0,0)"  stroke-width="1.0"/>
<line x1="145.6" y1="49.2" x2="169.8" y2="63.2" stroke="rgb(0,0,0)"  stroke-width="1.0"/>
<line x1="178.6" y1="60.0" x2="178.6" y2="100.0" stroke="rgb(0,0,0)"  stroke-width="1.0"/>
<text x="311.174515" y="308.001108" fill="rgb(178,178,0)"  stroke="rgb(178,178,0)" stroke-width="1" font-size="16" >S</text>
<text x="207.334072" y="128.000341" fill="rgb(12,12,255)"  stroke="rgb(12,12,255)" stroke-width="1" font-size="16" >NH</text>
<text x="264.425276" y="288.001023" fill="rgb(12,12,255)"  stroke="rgb(12,12,255)" stroke-width="1" font-size="16" >HN</text>
<text x="22.000000" y="148.000426" fill="rgb(102,102,102)"  stroke="rgb(102,102,102)" stroke-width="1" font-size="16" >HC</text>
<text x="291.174429" y="342.546710" fill="rgb(255,12,12)"  stroke="rgb(255,12,12)" stroke-width="1" font-size="16" >O</text>
<text x="345.720116" y="328.001193" fill="rgb(255,12,12)"  stroke="rgb(255,12,12)" stroke-width="1" font-size="16" >O</text>
<text x="172.584833" y="188.000597" fill="rgb(255,12,12)"  stroke="rgb(255,12,12)" stroke-width="1" font-size="16" >O</text>
<text x="333.174600" y="273.455506" fill="rgb(102,102,102)"  stroke="rgb(102,102,102)" stroke-width="1" font-size="16" >CH</text>
<text x="357.174600" y="277.135506" fill="rgb(102,102,102)"  stroke="rgb(102,102,102)" stroke-width="1" font-size="13" >3</text>
<text font-size="18.000000" fill ="black" font-family="sans-serif"
x="10.000000" y="20.000000" ></text>
<title> - OBDepict</title>
</svg>
