<?xml version="1.0"?>
<svg xmlns="http://www.w3.org/2000/svg"
xmlns:xlink="http://www.w3.org/1999/xlink" xmlns:cml="http://www.xml-cml.org/schema" width="391.862" height="319.957" x="0" y="0" font-family="sans-serif" stroke="rgb(0,0,0)" stroke-width="1"  stroke-linecap="round">
<rect x="0%" y="0%" width="100%" height="100%" stroke-width="0" fill="rgb(255,255,255)"  />
<line x1="189.8" y1="106.5" x2="213.3" y2="120.0" stroke="rgb(0,0,0)"  stroke-width="1.0"/>
<line x1="144.0" y1="120.0" x2="167.3" y2="106.5" stroke="rgb(0,0,0)"  stroke-width="1.0"/>
<line x1="317.1" y1="100.0" x2="282.6" y2="120.0" stroke="rgb(0,0,0)"  stroke-width="1.0"/>
<line x1="340.6" y1="86.5" x2="317.1" y2="100.0" stroke="rgb(0,0,0)"  stroke-width="1.0"/>
<line x1="342.7" y1="90.1" x2="319.2" y2="103.6" stroke="rgb(0,0,0)"  stroke-width="1.0"/>
<line x1="338.5" y1="82.8" x2="315.0" y2="96.3" stroke="rgb(0,0,0)"  stroke-width="1.0"/>
<line x1="144.0" y1="160.0" x2="144.0" y2="120.0" stroke="rgb(0,0,0)"  stroke-width="1.0"/>
<line x1="210.3" y1="147.0" x2="210.3" y2="120.0" stroke="rgb(0,0,0)"  stroke-width="1.0"/>
<line x1="216.3" y1="147.0" x2="216.3" y2="120.0" stroke="rgb(0,0,0)"  stroke-width="1.0"/>
<line x1="109.3" y1="100.0" x2="144.0" y2="120.0" stroke="rgb(0,0,0)"  stroke-width="1.0"/>
<line x1="236.6" y1="106.5" x2="213.3" y2="120.0" stroke="rgb(0,0,0)"  stroke-width="1.0"/>
<line x1="282.6" y1="120.0" x2="259.1" y2="106.5" stroke="rgb(0,0,0)"  stroke-width="1.0"/>
<line x1="144.0" y1="267.0" x2="144.0" y2="240.0" stroke="rgb(0,0,0)"  stroke-width="1.0"/>
<line x1="144.0" y1="160.0" x2="178.6" y2="180.0" stroke="rgb(0,0,0)"  stroke-width="1.0"/>
<line x1="178.6" y1="180.0" x2="178.6" y2="220.0" stroke="rgb(0,0,0)"  stroke-width="1.0"/>
<line x1="171.4" y1="186.0" x2="171.4" y2="214.0" stroke="rgb(0,0,0)"  stroke-width="1.0"/>
<line x1="178.6" y1="220.0" x2="144.0" y2="240.0" stroke="rgb(0,0,0)"  stroke-width="1.0"/>
<line x1="144.0" y1="240.0" x2="109.3" y2="220.0" stroke="rgb(0,0,0)"  stroke-width="1.0"/>
<line x1="142.4" y1="230.7" x2="118.1" y2="216.7" stroke="rgb(0,0,0)"  stroke-width="1.0"/>
<line x1="109.3" y1="220.0" x2="109.3" y2="180.0" stroke="rgb(0,0,0)"  stroke-width="1.0"/>
<line x1="109.3" y1="180.0" x2="144.0" y2="160.0" stroke="rgb(0,0,0)"  stroke-width="1.0"/>
<line x1="118.1" y1="183.2" x2="142.4" y2="169.2" stroke="rgb(0,0,0)"  stroke-width="1.0"/>
<line x1="109.3" y1="100.0" x2="109.3" y2="60.0" stroke="rgb(0,0,0)"  stroke-width="1.0"/>
<line x1="109.3" y1="60.0" x2="74.7" y2="40.0" stroke="rgb(0,0,0)"  stroke-width="1.0"/>
<line x1="100.5" y1="63.2" x2="76.3" y2="49.2" stroke="rgb(0,0,0)"  stroke-width="1.0"/>
<line x1="74.7" y1="40.0" x2="40.0" y2="60.0" stroke="rgb(0,0,0)"  stroke-width="1.0"/>
<line x1="40.0" y1="60.0" x2="40.0" y2="100.0" stroke="rgb(0,0,0)"  stroke-width="1.0"/>
<line x1="47.2" y1="66.0" x2="47.2" y2="94.0" stroke="rgb(0,0,0)"  stroke-width="1.0"/>
<line x1="40.0" y1="100.0" x2="74.7" y2="120.0" stroke="rgb(0,0,0)"  stroke-width="1.0"/>
<line x1="74.7" y1="120.0" x2="109.3" y2="100.0" stroke="rgb(0,0,0)"  stroke-width="1.0"/>
<line x1="76.3" y1="110.7" x2="100.5" y2="96.8" stroke="rgb(0,0,0)"  stroke-width="1.0"/>
<text x="172.559469" y="107.989274" fill="rgb(12,12,255)"  stroke="rgb(12,12,255)" stroke-width="1" font-size="16" >N</text>
<text x="172.559469" y="91.989274" fill="rgb(12,12,255)"  stroke="rgb(12,12,255)" stroke-width="1" font-size="16" >H</text>
<text x="345.861817" y="87.992850" fill="rgb(102,102,102)"  stroke="rgb(102,102,102)" stroke-width="1" font-size="16" >CH</text>
<text x="207.302348" y="167.978549" fill="rgb(255,12,12)"  stroke="rgb(255,12,12)" stroke-width="1" font-size="16" >O</text>
<text x="241.841627" y="107.989274" fill="rgb(12,12,255)"  stroke="rgb(12,12,255)" stroke-width="1" font-size="16" >N</text>
<text x="241.841627" y="91.989274" fill="rgb(12,12,255)"  stroke="rgb(12,12,255)" stroke-width="1" font-size="16" >H</text>
<text x="140.020190" y="287.957097" fill="rgb(102,102,102)"  stroke="rgb(102,102,102)" stroke-width="1" font-size="16" >CH</text>
<text x="164.020190" y="291.637097" fill="rgb(102,102,102)"  stroke="rgb(102,102,102)" stroke-width="1" font-size="13" >3</text>
<text font-size="18.000000" fill ="black" font-family="sans-serif"
x="10.000000" y="20.000000" ></text>
<title> - OBDepict</title>
</svg>
