<?xml version="1.0"?>
<svg xmlns="http://www.w3.org/2000/svg"
xmlns:xlink="http://www.w3.org/1999/xlink" xmlns:cml="http://www.xml-cml.org/schema" width="345.931" height="278.441" x="0" y="0" font-family="sans-serif" stroke="rgb(0,0,0)" stroke-width="1"  stroke-linecap="round">
<rect x="0%" y="0%" width="100%" height="100%" stroke-width="0" fill="rgb(255,255,255)"  />
<line x1="232.9" y1="112.0" x2="205.9" y2="111.7" stroke="rgb(0,0,0)"  stroke-width="1.0"/>
<line x1="232.9" y1="106.0" x2="205.9" y2="105.7" stroke="rgb(0,0,0)"  stroke-width="1.0"/>
<line x1="265.9" y1="74.6" x2="252.4" y2="97.9" stroke="rgb(0,0,0)"  stroke-width="1.0"/>
<line x1="167.9" y1="208.7" x2="194.6" y2="179.0" stroke="rgb(0,0,0)"  stroke-width="1.0"/>
<line x1="149.9" y1="228.8" x2="167.9" y2="208.7" stroke="rgb(0,0,0)"  stroke-width="1.0"/>
<line x1="146.8" y1="226.0" x2="164.8" y2="205.9" stroke="rgb(0,0,0)"  stroke-width="1.0"/>
<line x1="153.0" y1="231.6" x2="171.0" y2="211.5" stroke="rgb(0,0,0)"  stroke-width="1.0"/>
<line x1="194.6" y1="179.0" x2="186.4" y2="153.2" stroke="rgb(0,0,0)"  stroke-width="1.0"/>
<line x1="255.0" y1="49.7" x2="268.5" y2="73.1" stroke="rgb(0,0,0)"  stroke-width="1.0"/>
<line x1="249.8" y1="52.8" x2="263.3" y2="76.1" stroke="rgb(0,0,0)"  stroke-width="1.0"/>
<line x1="51.3" y1="75.0" x2="75.2" y2="88.7" stroke="rgb(0,0,0)"  stroke-width="1.0"/>
<line x1="292.9" y1="74.6" x2="265.9" y2="74.6" stroke="rgb(0,0,0)"  stroke-width="1.0"/>
<line x1="205.9" y1="108.7" x2="190.1" y2="86.9" stroke="rgb(0,0,0)"  stroke-width="1.0"/>
<line x1="170.1" y1="80.4" x2="144.3" y2="88.7" stroke="rgb(0,0,0)"  stroke-width="1.0"/>
<line x1="144.3" y1="88.7" x2="144.3" y2="128.7" stroke="rgb(0,0,0)"  stroke-width="1.0"/>
<line x1="151.5" y1="94.7" x2="151.5" y2="122.7" stroke="rgb(0,0,0)"  stroke-width="1.0"/>
<line x1="144.3" y1="128.7" x2="170.1" y2="136.9" stroke="rgb(0,0,0)"  stroke-width="1.0"/>
<line x1="190.1" y1="130.3" x2="205.9" y2="108.7" stroke="rgb(0,0,0)"  stroke-width="1.0"/>
<line x1="109.7" y1="68.7" x2="144.3" y2="88.7" stroke="rgb(0,0,0)"  stroke-width="1.0"/>
<line x1="144.3" y1="128.7" x2="109.7" y2="148.7" stroke="rgb(0,0,0)"  stroke-width="1.0"/>
<line x1="109.7" y1="148.7" x2="75.2" y2="128.7" stroke="rgb(0,0,0)"  stroke-width="1.0"/>
<line x1="108.1" y1="139.5" x2="84.0" y2="125.5" stroke="rgb(0,0,0)"  stroke-width="1.0"/>
<line x1="75.2" y1="128.7" x2="75.2" y2="88.7" stroke="rgb(0,0,0)"  stroke-width="1.0"/>
<line x1="75.2" y1="88.7" x2="109.7" y2="68.7" stroke="rgb(0,0,0)"  stroke-width="1.0"/>
<line x1="84.0" y1="91.9" x2="108.1" y2="77.9" stroke="rgb(0,0,0)"  stroke-width="1.0"/>
<text x="176.463689" y="148.836763" fill="rgb(12,12,255)"  stroke="rgb(12,12,255)" stroke-width="1" font-size="16" >N</text>
<text x="239.913171" y="117.112022" fill="rgb(12,12,255)"  stroke="rgb(12,12,255)" stroke-width="1" font-size="16" >N</text>
<text x="176.463689" y="84.375767" fill="rgb(178,178,0)"  stroke="rgb(178,178,0)" stroke-width="1" font-size="16" >S</text>
<text x="123.238465" y="246.440555" fill="rgb(102,102,102)"  stroke="rgb(102,102,102)" stroke-width="1" font-size="16" >HC</text>
<text x="239.913171" y="48.000000" fill="rgb(255,12,12)"  stroke="rgb(255,12,12)" stroke-width="1" font-size="16" >O</text>
<text x="34.000000" y="76.491770" fill="rgb(127,178,255)"  stroke="rgb(127,178,255)" stroke-width="1" font-size="16" >F</text>
<text x="301.931251" y="82.556011" fill="rgb(102,102,102)"  stroke="rgb(102,102,102)" stroke-width="1" font-size="16" >CH</text>
<text x="325.931251" y="86.236011" fill="rgb(102,102,102)"  stroke="rgb(102,102,102)" stroke-width="1" font-size="13" >3</text>
<text font-size="18.000000" fill ="black" font-family="sans-serif"
x="10.000000" y="20.000000" ></text>
<title> - OBDepict</title>
</svg>
