<?xml version="1.0"?>
<svg xmlns="http://www.w3.org/2000/svg"
xmlns:xlink="http://www.w3.org/1999/xlink" xmlns:cml="http://www.xml-cml.org/schema" width="390.679" height="279.246" x="0" y="0" font-family="sans-serif" stroke="rgb(0,0,0)" stroke-width="1"  stroke-linecap="round">
<rect x="0%" y="0%" width="100%" height="100%" stroke-width="0" fill="rgb(255,255,255)"  />
<line x1="132.7" y1="209.6" x2="159.3" y2="180.3" stroke="rgb(0,0,0)"  stroke-width="1.0"/>
<line x1="114.5" y1="229.6" x2="132.7" y2="209.6" stroke="rgb(0,0,0)"  stroke-width="1.0"/>
<line x1="111.4" y1="226.8" x2="129.5" y2="206.8" stroke="rgb(0,0,0)"  stroke-width="1.0"/>
<line x1="117.6" y1="232.4" x2="135.8" y2="212.4" stroke="rgb(0,0,0)"  stroke-width="1.0"/>
<line x1="210.6" y1="109.4" x2="170.6" y2="109.6" stroke="rgb(0,0,0)"  stroke-width="1.0"/>
<line x1="224.1" y1="86.2" x2="210.6" y2="109.4" stroke="rgb(0,0,0)"  stroke-width="1.0"/>
<line x1="270.7" y1="74.9" x2="243.6" y2="74.9" stroke="rgb(0,0,0)"  stroke-width="1.0"/>
<line x1="159.3" y1="180.3" x2="151.1" y2="154.5" stroke="rgb(0,0,0)"  stroke-width="1.0"/>
<line x1="276.8" y1="133.0" x2="290.7" y2="109.4" stroke="rgb(0,0,0)"  stroke-width="1.0"/>
<line x1="283.5" y1="168.0" x2="276.5" y2="155.5" stroke="rgb(0,0,0)"  stroke-width="1.0"/>
<line x1="170.6" y1="109.6" x2="154.9" y2="88.1" stroke="rgb(0,0,0)"  stroke-width="1.0"/>
<line x1="161.3" y1="109.0" x2="150.3" y2="94.0" stroke="rgb(0,0,0)"  stroke-width="1.0"/>
<line x1="134.8" y1="81.5" x2="109.0" y2="89.7" stroke="rgb(0,0,0)"  stroke-width="1.0"/>
<line x1="109.0" y1="89.7" x2="109.0" y2="129.6" stroke="rgb(0,0,0)"  stroke-width="1.0"/>
<line x1="109.0" y1="129.6" x2="134.8" y2="138.1" stroke="rgb(0,0,0)"  stroke-width="1.0"/>
<line x1="154.8" y1="131.6" x2="170.6" y2="109.6" stroke="rgb(0,0,0)"  stroke-width="1.0"/>
<line x1="270.7" y1="74.9" x2="290.7" y2="109.4" stroke="rgb(0,0,0)"  stroke-width="1.0"/>
<line x1="280.0" y1="76.5" x2="293.9" y2="100.6" stroke="rgb(0,0,0)"  stroke-width="1.0"/>
<line x1="290.7" y1="109.4" x2="330.7" y2="109.4" stroke="rgb(0,0,0)"  stroke-width="1.0"/>
<line x1="330.7" y1="109.4" x2="350.7" y2="74.9" stroke="rgb(0,0,0)"  stroke-width="1.0"/>
<line x1="327.5" y1="100.6" x2="341.4" y2="76.5" stroke="rgb(0,0,0)"  stroke-width="1.0"/>
<line x1="350.7" y1="74.9" x2="330.7" y2="40.0" stroke="rgb(0,0,0)"  stroke-width="1.0"/>
<line x1="330.7" y1="40.0" x2="290.7" y2="40.0" stroke="rgb(0,0,0)"  stroke-width="1.0"/>
<line x1="324.7" y1="47.2" x2="296.7" y2="47.2" stroke="rgb(0,0,0)"  stroke-width="1.0"/>
<line x1="290.7" y1="40.0" x2="270.7" y2="74.9" stroke="rgb(0,0,0)"  stroke-width="1.0"/>
<line x1="74.5" y1="149.6" x2="40.0" y2="129.6" stroke="rgb(0,0,0)"  stroke-width="1.0"/>
<line x1="40.0" y1="129.6" x2="40.0" y2="89.7" stroke="rgb(0,0,0)"  stroke-width="1.0"/>
<line x1="47.2" y1="123.6" x2="47.2" y2="95.7" stroke="rgb(0,0,0)"  stroke-width="1.0"/>
<line x1="40.0" y1="89.7" x2="74.5" y2="69.7" stroke="rgb(0,0,0)"  stroke-width="1.0"/>
<line x1="74.5" y1="69.7" x2="109.0" y2="89.7" stroke="rgb(0,0,0)"  stroke-width="1.0"/>
<line x1="76.1" y1="78.9" x2="100.2" y2="92.9" stroke="rgb(0,0,0)"  stroke-width="1.0"/>
<line x1="109.0" y1="129.6" x2="74.5" y2="149.6" stroke="rgb(0,0,0)"  stroke-width="1.0"/>
<line x1="100.2" y1="126.4" x2="76.1" y2="140.4" stroke="rgb(0,0,0)"  stroke-width="1.0"/>
<text x="141.193361" y="85.547957" fill="rgb(12,12,255)"  stroke="rgb(12,12,255)" stroke-width="1" font-size="16" >N</text>
<text x="141.193361" y="150.144978" fill="rgb(12,12,255)"  stroke="rgb(12,12,255)" stroke-width="1" font-size="16" >N</text>
<text x="87.808245" y="247.246417" fill="rgb(102,102,102)"  stroke="rgb(102,102,102)" stroke-width="1" font-size="16" >HC</text>
<text x="224.564361" y="82.922023" fill="rgb(255,12,12)"  stroke="rgb(255,12,12)" stroke-width="1" font-size="16" >O</text>
<text x="264.132640" y="152.165300" fill="rgb(255,12,12)"  stroke="rgb(255,12,12)" stroke-width="1" font-size="16" >O</text>
<text x="285.914357" y="187.290808" fill="rgb(102,102,102)"  stroke="rgb(102,102,102)" stroke-width="1" font-size="16" >CH</text>
<text x="309.914357" y="190.970808" fill="rgb(102,102,102)"  stroke="rgb(102,102,102)" stroke-width="1" font-size="13" >3</text>
<text font-size="18.000000" fill ="black" font-family="sans-serif"
x="10.000000" y="20.000000" ></text>
<title> - OBDepict</title>
</svg>
