<?xml version="1.0"?>
<svg xmlns="http://www.w3.org/2000/svg"
xmlns:xlink="http://www.w3.org/1999/xlink" xmlns:cml="http://www.xml-cml.org/schema" width="391.063" height="241.122" x="0" y="0" font-family="sans-serif" stroke="rgb(0,0,0)" stroke-width="1"  stroke-linecap="round">
<rect x="0%" y="0%" width="100%" height="100%" stroke-width="0" fill="rgb(255,255,255)"  />
<line x1="189.8" y1="127.2" x2="213.1" y2="141.0" stroke="rgb(0,0,0)"  stroke-width="1.0"/>
<line x1="178.6" y1="80.4" x2="202.2" y2="67.1" stroke="rgb(0,0,0)"  stroke-width="1.0"/>
<line x1="146.5" y1="140.5" x2="146.5" y2="167.4" stroke="rgb(0,0,0)"  stroke-width="1.0"/>
<line x1="140.5" y1="140.5" x2="140.5" y2="167.4" stroke="rgb(0,0,0)"  stroke-width="1.0"/>
<line x1="224.8" y1="67.2" x2="248.0" y2="80.6" stroke="rgb(0,0,0)"  stroke-width="1.0"/>
<line x1="248.0" y1="80.6" x2="282.4" y2="60.4" stroke="rgb(0,0,0)"  stroke-width="1.0"/>
<line x1="282.4" y1="60.4" x2="305.8" y2="46.6" stroke="rgb(0,0,0)"  stroke-width="1.0"/>
<line x1="280.3" y1="56.8" x2="303.7" y2="43.0" stroke="rgb(0,0,0)"  stroke-width="1.0"/>
<line x1="284.6" y1="64.0" x2="307.9" y2="50.2" stroke="rgb(0,0,0)"  stroke-width="1.0"/>
<line x1="282.1" y1="181.1" x2="305.4" y2="194.6" stroke="rgb(0,0,0)"  stroke-width="1.0"/>
<line x1="327.9" y1="194.6" x2="339.8" y2="187.6" stroke="rgb(0,0,0)"  stroke-width="1.0"/>
<line x1="167.3" y1="127.1" x2="143.5" y2="140.5" stroke="rgb(0,0,0)"  stroke-width="1.0"/>
<line x1="143.5" y1="140.5" x2="109.0" y2="120.6" stroke="rgb(0,0,0)"  stroke-width="1.0"/>
<line x1="109.0" y1="120.6" x2="109.0" y2="80.4" stroke="rgb(0,0,0)"  stroke-width="1.0"/>
<line x1="109.0" y1="80.4" x2="132.6" y2="66.6" stroke="rgb(0,0,0)"  stroke-width="1.0"/>
<line x1="155.3" y1="66.8" x2="178.6" y2="80.4" stroke="rgb(0,0,0)"  stroke-width="1.0"/>
<line x1="153.4" y1="74.0" x2="169.8" y2="83.6" stroke="rgb(0,0,0)"  stroke-width="1.0"/>
<line x1="178.6" y1="80.4" x2="178.6" y2="107.6" stroke="rgb(0,0,0)"  stroke-width="1.0"/>
<line x1="74.6" y1="140.5" x2="109.0" y2="120.6" stroke="rgb(0,0,0)"  stroke-width="1.0"/>
<line x1="76.2" y1="131.3" x2="100.2" y2="117.4" stroke="rgb(0,0,0)"  stroke-width="1.0"/>
<line x1="109.0" y1="80.4" x2="74.6" y2="60.4" stroke="rgb(0,0,0)"  stroke-width="1.0"/>
<line x1="100.1" y1="83.6" x2="76.1" y2="69.6" stroke="rgb(0,0,0)"  stroke-width="1.0"/>
<line x1="74.6" y1="60.4" x2="40.0" y2="80.4" stroke="rgb(0,0,0)"  stroke-width="1.0"/>
<line x1="40.0" y1="80.4" x2="40.0" y2="120.6" stroke="rgb(0,0,0)"  stroke-width="1.0"/>
<line x1="47.2" y1="86.4" x2="47.2" y2="114.6" stroke="rgb(0,0,0)"  stroke-width="1.0"/>
<line x1="40.0" y1="120.6" x2="74.6" y2="140.5" stroke="rgb(0,0,0)"  stroke-width="1.0"/>
<line x1="213.1" y1="141.0" x2="247.5" y2="121.0" stroke="rgb(0,0,0)"  stroke-width="1.0"/>
<line x1="247.5" y1="121.0" x2="282.1" y2="141.0" stroke="rgb(0,0,0)"  stroke-width="1.0"/>
<line x1="249.1" y1="130.2" x2="273.3" y2="144.2" stroke="rgb(0,0,0)"  stroke-width="1.0"/>
<line x1="282.1" y1="141.0" x2="282.1" y2="181.1" stroke="rgb(0,0,0)"  stroke-width="1.0"/>
<line x1="282.1" y1="181.1" x2="247.4" y2="200.8" stroke="rgb(0,0,0)"  stroke-width="1.0"/>
<line x1="273.3" y1="177.8" x2="249.0" y2="191.6" stroke="rgb(0,0,0)"  stroke-width="1.0"/>
<line x1="247.4" y1="200.8" x2="213.0" y2="180.9" stroke="rgb(0,0,0)"  stroke-width="1.0"/>
<line x1="213.0" y1="180.9" x2="213.1" y2="141.0" stroke="rgb(0,0,0)"  stroke-width="1.0"/>
<line x1="220.2" y1="174.9" x2="220.3" y2="147.0" stroke="rgb(0,0,0)"  stroke-width="1.0"/>
<text x="172.584431" y="128.643346" fill="rgb(12,12,255)"  stroke="rgb(12,12,255)" stroke-width="1" font-size="16" >N</text>
<text x="137.853649" y="68.036245" fill="rgb(12,12,255)"  stroke="rgb(12,12,255)" stroke-width="1" font-size="16" >N</text>
<text x="207.479721" y="68.703958" fill="rgb(178,178,0)"  stroke="rgb(178,178,0)" stroke-width="1" font-size="16" >S</text>
<text x="137.519792" y="188.418224" fill="rgb(255,12,12)"  stroke="rgb(255,12,12)" stroke-width="1" font-size="16" >O</text>
<text x="310.999514" y="48.000000" fill="rgb(102,102,102)"  stroke="rgb(102,102,102)" stroke-width="1" font-size="16" >CH</text>
<text x="310.665657" y="209.122182" fill="rgb(255,12,12)"  stroke="rgb(255,12,12)" stroke-width="1" font-size="16" >O</text>
<text x="347.062582" y="189.085937" fill="rgb(102,102,102)"  stroke="rgb(102,102,102)" stroke-width="1" font-size="16" >CH</text>
<text x="371.062582" y="192.765937" fill="rgb(102,102,102)"  stroke="rgb(102,102,102)" stroke-width="1" font-size="13" >3</text>
<text font-size="18.000000" fill ="black" font-family="sans-serif"
x="10.000000" y="20.000000" ></text>
<title> - OBDepict</title>
</svg>
