<?xml version="1.0"?>
<svg xmlns="http://www.w3.org/2000/svg"
xmlns:xlink="http://www.w3.org/1999/xlink" xmlns:cml="http://www.xml-cml.org/schema" width="412.12" height="539.409" x="0" y="0" font-family="sans-serif" stroke="rgb(0,0,0)" stroke-width="1"  stroke-linecap="round">
<rect x="0%" y="0%" width="100%" height="100%" stroke-width="0" fill="rgb(255,255,255)"  />
<line x1="200.4" y1="419.9" x2="162.4" y2="432.2" stroke="rgb(0,0,0)"  stroke-width="1.0"/>
<line x1="198.6" y1="414.2" x2="160.5" y2="426.5" stroke="rgb(0,0,0)"  stroke-width="1.0"/>
<line x1="50.7" y1="378.0" x2="59.1" y2="417.0" stroke="rgb(0,0,0)"  stroke-width="1.0"/>
<line x1="43.5" y1="351.8" x2="50.7" y2="378.0" stroke="rgb(0,0,0)"  stroke-width="1.0"/>
<line x1="47.5" y1="350.7" x2="54.7" y2="376.8" stroke="rgb(0,0,0)"  stroke-width="1.0"/>
<line x1="39.4" y1="352.9" x2="46.6" y2="379.1" stroke="rgb(0,0,0)"  stroke-width="1.0"/>
<line x1="279.3" y1="208.8" x2="270.8" y2="248.1" stroke="rgb(0,0,0)"  stroke-width="1.0"/>
<line x1="91.0" y1="487.2" x2="106.9" y2="465.6" stroke="rgb(0,0,0)"  stroke-width="1.0"/>
<line x1="95.8" y1="490.7" x2="111.7" y2="469.2" stroke="rgb(0,0,0)"  stroke-width="1.0"/>
<line x1="132.0" y1="378.8" x2="132.2" y2="405.7" stroke="rgb(0,0,0)"  stroke-width="1.0"/>
<line x1="126.0" y1="378.9" x2="126.2" y2="405.8" stroke="rgb(0,0,0)"  stroke-width="1.0"/>
<line x1="305.0" y1="200.6" x2="279.3" y2="208.8" stroke="rgb(0,0,0)"  stroke-width="1.0"/>
<line x1="59.1" y1="417.0" x2="84.4" y2="425.3" stroke="rgb(0,0,0)"  stroke-width="1.0"/>
<line x1="261.4" y1="188.8" x2="281.3" y2="206.5" stroke="rgb(0,0,0)"  stroke-width="1.0"/>
<line x1="257.4" y1="193.3" x2="277.3" y2="211.0" stroke="rgb(0,0,0)"  stroke-width="1.0"/>
<line x1="208.0" y1="378.0" x2="199.5" y2="417.0" stroke="rgb(0,0,0)"  stroke-width="1.0"/>
<line x1="230.0" y1="273.2" x2="224.3" y2="299.4" stroke="rgb(0,0,0)"  stroke-width="1.0"/>
<line x1="325.6" y1="158.2" x2="320.1" y2="184.0" stroke="rgb(0,0,0)"  stroke-width="1.0"/>
<line x1="270.8" y1="248.1" x2="245.1" y2="256.5" stroke="rgb(0,0,0)"  stroke-width="1.0"/>
<line x1="347.7" y1="52.7" x2="342.1" y2="79.1" stroke="rgb(0,0,0)"  stroke-width="1.0"/>
<line x1="107.3" y1="421.7" x2="129.2" y2="405.8" stroke="rgb(0,0,0)"  stroke-width="1.0"/>
<line x1="129.2" y1="405.8" x2="161.4" y2="429.3" stroke="rgb(0,0,0)"  stroke-width="1.0"/>
<line x1="161.4" y1="429.3" x2="153.2" y2="455.0" stroke="rgb(0,0,0)"  stroke-width="1.0"/>
<line x1="136.2" y1="467.4" x2="109.3" y2="467.4" stroke="rgb(0,0,0)"  stroke-width="1.0"/>
<line x1="109.3" y1="467.4" x2="100.9" y2="441.7" stroke="rgb(0,0,0)"  stroke-width="1.0"/>
<line x1="208.0" y1="378.0" x2="246.0" y2="365.3" stroke="rgb(0,0,0)"  stroke-width="1.0"/>
<line x1="246.0" y1="365.3" x2="254.5" y2="326.4" stroke="rgb(0,0,0)"  stroke-width="1.0"/>
<line x1="240.3" y1="357.9" x2="246.2" y2="330.7" stroke="rgb(0,0,0)"  stroke-width="1.0"/>
<line x1="254.5" y1="326.4" x2="224.3" y2="299.4" stroke="rgb(0,0,0)"  stroke-width="1.0"/>
<line x1="224.3" y1="299.4" x2="186.6" y2="311.9" stroke="rgb(0,0,0)"  stroke-width="1.0"/>
<line x1="220.9" y1="308.1" x2="194.6" y2="316.8" stroke="rgb(0,0,0)"  stroke-width="1.0"/>
<line x1="186.6" y1="311.9" x2="178.2" y2="351.2" stroke="rgb(0,0,0)"  stroke-width="1.0"/>
<line x1="178.2" y1="351.2" x2="208.0" y2="378.0" stroke="rgb(0,0,0)"  stroke-width="1.0"/>
<line x1="187.4" y1="349.8" x2="208.3" y2="368.6" stroke="rgb(0,0,0)"  stroke-width="1.0"/>
<line x1="325.6" y1="158.2" x2="295.6" y2="131.0" stroke="rgb(0,0,0)"  stroke-width="1.0"/>
<line x1="326.0" y1="148.9" x2="304.9" y2="129.7" stroke="rgb(0,0,0)"  stroke-width="1.0"/>
<line x1="295.6" y1="131.0" x2="304.0" y2="91.8" stroke="rgb(0,0,0)"  stroke-width="1.0"/>
<line x1="304.0" y1="91.8" x2="342.1" y2="79.1" stroke="rgb(0,0,0)"  stroke-width="1.0"/>
<line x1="312.0" y1="96.7" x2="338.7" y2="87.8" stroke="rgb(0,0,0)"  stroke-width="1.0"/>
<line x1="342.1" y1="79.1" x2="372.1" y2="106.3" stroke="rgb(0,0,0)"  stroke-width="1.0"/>
<line x1="372.1" y1="106.3" x2="363.9" y2="145.1" stroke="rgb(0,0,0)"  stroke-width="1.0"/>
<line x1="363.8" y1="110.6" x2="358.1" y2="137.8" stroke="rgb(0,0,0)"  stroke-width="1.0"/>
<line x1="363.9" y1="145.1" x2="325.6" y2="158.2" stroke="rgb(0,0,0)"  stroke-width="1.0"/>
<text x="90.799394" y="437.317777" fill="rgb(12,12,255)"  stroke="rgb(12,12,255)" stroke-width="1" font-size="16" >N</text>
<text x="143.163461" y="475.384835" fill="rgb(178,178,0)"  stroke="rgb(178,178,0)" stroke-width="1" font-size="16" >S</text>
<text x="22.000000" y="347.289862" fill="rgb(102,102,102)"  stroke="rgb(102,102,102)" stroke-width="1" font-size="16" >HC</text>
<text x="79.718363" y="507.408579" fill="rgb(255,12,12)"  stroke="rgb(255,12,12)" stroke-width="1" font-size="16" >O</text>
<text x="122.823137" y="373.877536" fill="rgb(255,12,12)"  stroke="rgb(255,12,12)" stroke-width="1" font-size="16" >O</text>
<text x="311.341551" y="204.693847" fill="rgb(12,12,255)"  stroke="rgb(12,12,255)" stroke-width="1" font-size="16" >NH</text>
<text x="243.665160" y="190.391981" fill="rgb(255,12,12)"  stroke="rgb(255,12,12)" stroke-width="1" font-size="16" >O</text>
<text x="226.749706" y="268.537299" fill="rgb(255,12,12)"  stroke="rgb(255,12,12)" stroke-width="1" font-size="16" >O</text>
<text x="346.370894" y="48.000000" fill="rgb(102,102,102)"  stroke="rgb(102,102,102)" stroke-width="1" font-size="16" >CH</text>
<text x="370.370894" y="51.680000" fill="rgb(102,102,102)"  stroke="rgb(102,102,102)" stroke-width="1" font-size="13" >3</text>
<text font-size="18.000000" fill ="black" font-family="sans-serif"
x="10.000000" y="20.000000" ></text>
<title> - OBDepict</title>
</svg>
