<?xml version="1.0"?>
<svg xmlns="http://www.w3.org/2000/svg"
xmlns:xlink="http://www.w3.org/1999/xlink" xmlns:cml="http://www.xml-cml.org/schema" width="428.081" height="409.073" x="0" y="0" font-family="sans-serif" stroke="rgb(0,0,0)" stroke-width="1"  stroke-linecap="round">
<rect x="0%" y="0%" width="100%" height="100%" stroke-width="0" fill="rgb(255,255,255)"  />
<line x1="296.4" y1="289.2" x2="258.1" y2="301.5" stroke="rgb(0,0,0)"  stroke-width="1.0"/>
<line x1="294.5" y1="283.5" x2="256.3" y2="295.8" stroke="rgb(0,0,0)"  stroke-width="1.0"/>
<line x1="154.7" y1="286.3" x2="180.3" y2="294.7" stroke="rgb(0,0,0)"  stroke-width="1.0"/>
<line x1="303.7" y1="247.1" x2="295.4" y2="286.3" stroke="rgb(0,0,0)"  stroke-width="1.0"/>
<line x1="376.1" y1="78.4" x2="367.4" y2="117.9" stroke="rgb(0,0,0)"  stroke-width="1.0"/>
<line x1="381.8" y1="52.7" x2="376.1" y2="78.4" stroke="rgb(0,0,0)"  stroke-width="1.0"/>
<line x1="385.9" y1="53.6" x2="380.3" y2="79.3" stroke="rgb(0,0,0)"  stroke-width="1.0"/>
<line x1="377.7" y1="51.8" x2="372.0" y2="77.5" stroke="rgb(0,0,0)"  stroke-width="1.0"/>
<line x1="124.7" y1="313.2" x2="154.7" y2="286.3" stroke="rgb(0,0,0)"  stroke-width="1.0"/>
<line x1="186.6" y1="356.8" x2="202.4" y2="335.1" stroke="rgb(0,0,0)"  stroke-width="1.0"/>
<line x1="191.5" y1="360.3" x2="207.3" y2="338.7" stroke="rgb(0,0,0)"  stroke-width="1.0"/>
<line x1="227.9" y1="248.0" x2="227.9" y2="275.0" stroke="rgb(0,0,0)"  stroke-width="1.0"/>
<line x1="221.9" y1="248.0" x2="221.9" y2="275.0" stroke="rgb(0,0,0)"  stroke-width="1.0"/>
<line x1="127.6" y1="340.4" x2="121.8" y2="313.9" stroke="rgb(0,0,0)"  stroke-width="1.0"/>
<line x1="133.4" y1="339.1" x2="127.7" y2="312.6" stroke="rgb(0,0,0)"  stroke-width="1.0"/>
<line x1="375.7" y1="187.6" x2="349.9" y2="195.5" stroke="rgb(0,0,0)"  stroke-width="1.0"/>
<line x1="326.3" y1="142.5" x2="320.3" y2="168.8" stroke="rgb(0,0,0)"  stroke-width="1.0"/>
<line x1="262.6" y1="163.0" x2="282.5" y2="181.0" stroke="rgb(0,0,0)"  stroke-width="1.0"/>
<line x1="99.1" y1="304.9" x2="124.7" y2="313.2" stroke="rgb(0,0,0)"  stroke-width="1.0"/>
<line x1="367.4" y1="117.9" x2="341.6" y2="125.9" stroke="rgb(0,0,0)"  stroke-width="1.0"/>
<line x1="78.2" y1="261.7" x2="84.0" y2="288.2" stroke="rgb(0,0,0)"  stroke-width="1.0"/>
<line x1="227.7" y1="162.4" x2="240.6" y2="158.3" stroke="rgb(0,0,0)"  stroke-width="1.0"/>
<line x1="52.4" y1="253.5" x2="78.2" y2="261.7" stroke="rgb(0,0,0)"  stroke-width="1.0"/>
<line x1="203.2" y1="291.0" x2="224.9" y2="275.0" stroke="rgb(0,0,0)"  stroke-width="1.0"/>
<line x1="224.9" y1="275.0" x2="257.2" y2="298.7" stroke="rgb(0,0,0)"  stroke-width="1.0"/>
<line x1="257.2" y1="298.7" x2="248.9" y2="324.5" stroke="rgb(0,0,0)"  stroke-width="1.0"/>
<line x1="231.9" y1="336.9" x2="204.8" y2="336.9" stroke="rgb(0,0,0)"  stroke-width="1.0"/>
<line x1="204.8" y1="336.9" x2="196.6" y2="311.1" stroke="rgb(0,0,0)"  stroke-width="1.0"/>
<line x1="349.9" y1="195.5" x2="320.3" y2="168.8" stroke="rgb(0,0,0)"  stroke-width="1.0"/>
<line x1="320.3" y1="168.8" x2="282.5" y2="181.0" stroke="rgb(0,0,0)"  stroke-width="1.0"/>
<line x1="316.8" y1="177.5" x2="290.4" y2="186.0" stroke="rgb(0,0,0)"  stroke-width="1.0"/>
<line x1="282.5" y1="181.0" x2="274.0" y2="220.2" stroke="rgb(0,0,0)"  stroke-width="1.0"/>
<line x1="274.0" y1="220.2" x2="303.7" y2="247.1" stroke="rgb(0,0,0)"  stroke-width="1.0"/>
<line x1="283.3" y1="218.9" x2="304.1" y2="237.7" stroke="rgb(0,0,0)"  stroke-width="1.0"/>
<line x1="303.7" y1="247.1" x2="341.6" y2="235.0" stroke="rgb(0,0,0)"  stroke-width="1.0"/>
<line x1="341.6" y1="235.0" x2="349.9" y2="195.5" stroke="rgb(0,0,0)"  stroke-width="1.0"/>
<line x1="335.8" y1="227.6" x2="341.6" y2="199.9" stroke="rgb(0,0,0)"  stroke-width="1.0"/>
<text x="186.699732" y="306.688966" fill="rgb(12,12,255)"  stroke="rgb(12,12,255)" stroke-width="1" font-size="16" >N</text>
<text x="238.882711" y="344.913716" fill="rgb(178,178,0)"  stroke="rgb(178,178,0)" stroke-width="1" font-size="16" >S</text>
<text x="378.644836" y="48.000000" fill="rgb(102,102,102)"  stroke="rgb(102,102,102)" stroke-width="1" font-size="16" >CH</text>
<text x="175.375680" y="377.073050" fill="rgb(255,12,12)"  stroke="rgb(255,12,12)" stroke-width="1" font-size="16" >O</text>
<text x="218.859066" y="242.977811" fill="rgb(255,12,12)"  stroke="rgb(255,12,12)" stroke-width="1" font-size="16" >O</text>
<text x="127.236311" y="360.485501" fill="rgb(255,12,12)"  stroke="rgb(255,12,12)" stroke-width="1" font-size="16" >O</text>
<text x="382.080932" y="191.805734" fill="rgb(30,239,30)"  stroke="rgb(30,239,30)" stroke-width="1" font-size="16" >Cl</text>
<text x="323.225025" y="137.800215" fill="rgb(255,12,12)"  stroke="rgb(255,12,12)" stroke-width="1" font-size="16" >O</text>
<text x="246.974791" y="162.275718" fill="rgb(255,12,12)"  stroke="rgb(255,12,12)" stroke-width="1" font-size="16" >O</text>
<text x="80.720218" y="308.910036" fill="rgb(255,12,12)"  stroke="rgb(255,12,12)" stroke-width="1" font-size="16" >O</text>
<text x="189.357555" y="174.411408" fill="rgb(102,102,102)"  stroke="rgb(102,102,102)" stroke-width="1" font-size="16" >H</text>
<text x="201.357555" y="178.091408" fill="rgb(102,102,102)"  stroke="rgb(102,102,102)" stroke-width="1" font-size="13" >3</text>
<text x="207.857555" y="174.411408" fill="rgb(102,102,102)"  stroke="rgb(102,102,102)" stroke-width="1" font-size="16" >C</text>
<text x="14.000000" y="257.538695" fill="rgb(102,102,102)"  stroke="rgb(102,102,102)" stroke-width="1" font-size="16" >H</text>
<text x="26.000000" y="261.218695" fill="rgb(102,102,102)"  stroke="rgb(102,102,102)" stroke-width="1" font-size="13" >3</text>
<text x="32.500000" y="257.538695" fill="rgb(102,102,102)"  stroke="rgb(102,102,102)" stroke-width="1" font-size="16" >C</text>
<text font-size="18.000000" fill ="black" font-family="sans-serif"
x="10.000000" y="20.000000" ></text>
<title> - OBDepict</title>
</svg>
