<?xml version="1.0"?>
<svg xmlns="http://www.w3.org/2000/svg"
xmlns:xlink="http://www.w3.org/1999/xlink" xmlns:cml="http://www.xml-cml.org/schema" width="359.774" height="218.976" x="0" y="0" font-family="sans-serif" stroke="rgb(0,0,0)" stroke-width="1"  stroke-linecap="round">
<rect x="0%" y="0%" width="100%" height="100%" stroke-width="0" fill="rgb(255,255,255)"  />
<line x1="119.9" y1="75.2" x2="159.7" y2="75.0" stroke="rgb(0,0,0)"  stroke-width="1.0"/>
<line x1="159.7" y1="75.0" x2="199.7" y2="75.0" stroke="rgb(0,0,0)"  stroke-width="1.0"/>
<line x1="159.7" y1="70.8" x2="199.7" y2="70.8" stroke="rgb(0,0,0)"  stroke-width="1.0"/>
<line x1="159.7" y1="79.2" x2="199.7" y2="79.2" stroke="rgb(0,0,0)"  stroke-width="1.0"/>
<line x1="199.7" y1="75.0" x2="239.5" y2="75.0" stroke="rgb(0,0,0)"  stroke-width="1.0"/>
<line x1="99.9" y1="109.9" x2="60.2" y2="109.9" stroke="rgb(0,0,0)"  stroke-width="1.0"/>
<line x1="60.2" y1="109.9" x2="40.0" y2="75.2" stroke="rgb(0,0,0)"  stroke-width="1.0"/>
<line x1="40.0" y1="75.2" x2="59.4" y2="40.6" stroke="rgb(0,0,0)"  stroke-width="1.0"/>
<line x1="49.2" y1="73.5" x2="62.8" y2="49.3" stroke="rgb(0,0,0)"  stroke-width="1.0"/>
<line x1="59.4" y1="40.6" x2="99.8" y2="40.6" stroke="rgb(0,0,0)"  stroke-width="1.0"/>
<line x1="99.8" y1="40.6" x2="119.9" y2="75.2" stroke="rgb(0,0,0)"  stroke-width="1.0"/>
<line x1="96.6" y1="49.4" x2="110.7" y2="73.6" stroke="rgb(0,0,0)"  stroke-width="1.0"/>
<line x1="119.9" y1="75.2" x2="99.9" y2="109.9" stroke="rgb(0,0,0)"  stroke-width="1.0"/>
<line x1="99.9" y1="109.9" x2="119.9" y2="144.3" stroke="rgb(0,0,0)"  stroke-width="1.0"/>
<line x1="96.7" y1="118.7" x2="110.7" y2="142.7" stroke="rgb(0,0,0)"  stroke-width="1.0"/>
<line x1="119.9" y1="144.3" x2="99.9" y2="179.0" stroke="rgb(0,0,0)"  stroke-width="1.0"/>
<line x1="99.9" y1="179.0" x2="60.2" y2="179.0" stroke="rgb(0,0,0)"  stroke-width="1.0"/>
<line x1="93.9" y1="171.8" x2="66.2" y2="171.8" stroke="rgb(0,0,0)"  stroke-width="1.0"/>
<line x1="60.2" y1="179.0" x2="40.2" y2="144.3" stroke="rgb(0,0,0)"  stroke-width="1.0"/>
<line x1="40.2" y1="144.3" x2="60.2" y2="109.9" stroke="rgb(0,0,0)"  stroke-width="1.0"/>
<line x1="49.4" y1="142.7" x2="63.4" y2="118.7" stroke="rgb(0,0,0)"  stroke-width="1.0"/>
<line x1="239.5" y1="75.0" x2="259.5" y2="40.0" stroke="rgb(0,0,0)"  stroke-width="1.0"/>
<line x1="248.7" y1="73.4" x2="262.7" y2="48.8" stroke="rgb(0,0,0)"  stroke-width="1.0"/>
<line x1="259.5" y1="40.0" x2="299.4" y2="40.0" stroke="rgb(0,0,0)"  stroke-width="1.0"/>
<line x1="299.4" y1="40.0" x2="319.8" y2="75.0" stroke="rgb(0,0,0)"  stroke-width="1.0"/>
<line x1="296.2" y1="48.8" x2="310.5" y2="73.4" stroke="rgb(0,0,0)"  stroke-width="1.0"/>
<line x1="319.8" y1="75.0" x2="299.4" y2="109.7" stroke="rgb(0,0,0)"  stroke-width="1.0"/>
<line x1="299.4" y1="109.7" x2="259.5" y2="109.7" stroke="rgb(0,0,0)"  stroke-width="1.0"/>
<line x1="293.4" y1="102.5" x2="265.5" y2="102.5" stroke="rgb(0,0,0)"  stroke-width="1.0"/>
<line x1="259.5" y1="109.7" x2="239.5" y2="75.0" stroke="rgb(0,0,0)"  stroke-width="1.0"/>
<text font-size="18.000000" fill ="black" font-family="sans-serif"
x="10.000000" y="20.000000" ></text>
<title> - OBDepict</title>
</svg>
