<?xml version="1.0"?>
<svg xmlns="http://www.w3.org/2000/svg"
xmlns:xlink="http://www.w3.org/1999/xlink" xmlns:cml="http://www.xml-cml.org/schema" width="391.991" height="300.07" x="0" y="0" font-family="sans-serif" stroke="rgb(0,0,0)" stroke-width="1"  stroke-linecap="round">
<rect x="0%" y="0%" width="100%" height="100%" stroke-width="0" fill="rgb(255,255,255)"  />
<line x1="145.6" y1="197.4" x2="180.1" y2="217.4" stroke="rgb(0,0,0)"  stroke-width="1.0"/>
<line x1="142.6" y1="202.5" x2="177.1" y2="222.6" stroke="rgb(0,0,0)"  stroke-width="1.0"/>
<line x1="178.6" y1="220.0" x2="213.4" y2="199.9" stroke="rgb(0,0,0)"  stroke-width="1.0"/>
<line x1="142.6" y1="157.5" x2="165.9" y2="143.9" stroke="rgb(0,0,0)"  stroke-width="1.0"/>
<line x1="145.6" y1="162.7" x2="168.9" y2="149.1" stroke="rgb(0,0,0)"  stroke-width="1.0"/>
<line x1="112.3" y1="220.0" x2="112.3" y2="247.1" stroke="rgb(0,0,0)"  stroke-width="1.0"/>
<line x1="106.3" y1="220.0" x2="106.3" y2="247.1" stroke="rgb(0,0,0)"  stroke-width="1.0"/>
<line x1="73.2" y1="162.7" x2="49.8" y2="149.1" stroke="rgb(0,0,0)"  stroke-width="1.0"/>
<line x1="76.2" y1="157.5" x2="52.8" y2="143.9" stroke="rgb(0,0,0)"  stroke-width="1.0"/>
<line x1="247.9" y1="140.0" x2="247.9" y2="113.1" stroke="rgb(0,0,0)"  stroke-width="1.0"/>
<line x1="282.7" y1="160.1" x2="306.0" y2="146.5" stroke="rgb(0,0,0)"  stroke-width="1.0"/>
<line x1="317.2" y1="127.0" x2="317.2" y2="100.1" stroke="rgb(0,0,0)"  stroke-width="1.0"/>
<line x1="317.2" y1="100.1" x2="352.0" y2="80.1" stroke="rgb(0,0,0)"  stroke-width="1.0"/>
<line x1="352.0" y1="80.1" x2="352.0" y2="53.0" stroke="rgb(0,0,0)"  stroke-width="1.0"/>
<line x1="347.8" y1="80.1" x2="347.8" y2="53.0" stroke="rgb(0,0,0)"  stroke-width="1.0"/>
<line x1="356.2" y1="80.1" x2="356.2" y2="53.0" stroke="rgb(0,0,0)"  stroke-width="1.0"/>
<line x1="144.1" y1="199.9" x2="109.3" y2="220.0" stroke="rgb(0,0,0)"  stroke-width="1.0"/>
<line x1="109.3" y1="220.0" x2="86.0" y2="206.5" stroke="rgb(0,0,0)"  stroke-width="1.0"/>
<line x1="74.7" y1="186.9" x2="74.7" y2="160.1" stroke="rgb(0,0,0)"  stroke-width="1.0"/>
<line x1="74.7" y1="160.1" x2="98.1" y2="146.5" stroke="rgb(0,0,0)"  stroke-width="1.0"/>
<line x1="120.6" y1="146.5" x2="144.1" y2="160.1" stroke="rgb(0,0,0)"  stroke-width="1.0"/>
<line x1="144.1" y1="160.1" x2="144.1" y2="199.9" stroke="rgb(0,0,0)"  stroke-width="1.0"/>
<line x1="213.4" y1="199.9" x2="247.9" y2="220.0" stroke="rgb(0,0,0)"  stroke-width="1.0"/>
<line x1="247.9" y1="220.0" x2="282.7" y2="199.9" stroke="rgb(0,0,0)"  stroke-width="1.0"/>
<line x1="249.5" y1="210.8" x2="273.9" y2="196.7" stroke="rgb(0,0,0)"  stroke-width="1.0"/>
<line x1="282.7" y1="199.9" x2="282.7" y2="160.1" stroke="rgb(0,0,0)"  stroke-width="1.0"/>
<line x1="282.7" y1="160.1" x2="247.9" y2="140.0" stroke="rgb(0,0,0)"  stroke-width="1.0"/>
<line x1="273.9" y1="163.3" x2="249.5" y2="149.2" stroke="rgb(0,0,0)"  stroke-width="1.0"/>
<line x1="247.9" y1="140.0" x2="213.4" y2="160.1" stroke="rgb(0,0,0)"  stroke-width="1.0"/>
<line x1="213.4" y1="160.1" x2="213.4" y2="199.9" stroke="rgb(0,0,0)"  stroke-width="1.0"/>
<line x1="220.6" y1="166.1" x2="220.6" y2="193.9" stroke="rgb(0,0,0)"  stroke-width="1.0"/>
<text x="103.309375" y="148.014527" fill="rgb(12,12,255)"  stroke="rgb(12,12,255)" stroke-width="1" font-size="16" >N</text>
<text x="103.309375" y="132.014527" fill="rgb(12,12,255)"  stroke="rgb(12,12,255)" stroke-width="1" font-size="16" >H</text>
<text x="172.623593" y="148.014527" fill="rgb(255,12,12)"  stroke="rgb(255,12,12)" stroke-width="1" font-size="16" >O</text>
<text x="56.744285" y="207.947692" fill="rgb(12,12,255)"  stroke="rgb(12,12,255)" stroke-width="1" font-size="16" >HN</text>
<text x="103.309375" y="268.069736" fill="rgb(255,12,12)"  stroke="rgb(255,12,12)" stroke-width="1" font-size="16" >O</text>
<text x="34.000000" y="148.014527" fill="rgb(255,12,12)"  stroke="rgb(255,12,12)" stroke-width="1" font-size="16" >O</text>
<text x="241.932968" y="108.117202" fill="rgb(30,239,30)"  stroke="rgb(30,239,30)" stroke-width="1" font-size="16" >Cl</text>
<text x="311.247186" y="148.014527" fill="rgb(255,12,12)"  stroke="rgb(255,12,12)" stroke-width="1" font-size="16" >O</text>
<text x="345.991470" y="48.000000" fill="rgb(102,102,102)"  stroke="rgb(102,102,102)" stroke-width="1" font-size="16" >CH</text>
<text font-size="18.000000" fill ="black" font-family="sans-serif"
x="10.000000" y="20.000000" ></text>
<title> - OBDepict</title>
</svg>
