<?xml version="1.0"?>
<svg xmlns="http://www.w3.org/2000/svg"
xmlns:xlink="http://www.w3.org/1999/xlink" xmlns:cml="http://www.xml-cml.org/schema" width="287.036" height="380.263" x="0" y="0" font-family="sans-serif" stroke="rgb(0,0,0)" stroke-width="1"  stroke-linecap="round">
<rect x="0%" y="0%" width="100%" height="100%" stroke-width="0" fill="rgb(255,255,255)"  />
<line x1="40.0" y1="260.4" x2="74.5" y2="279.9" stroke="rgb(0,0,0)"  stroke-width="1.0"/>
<line x1="40.0" y1="233.4" x2="40.0" y2="260.4" stroke="rgb(0,0,0)"  stroke-width="1.0"/>
<line x1="44.2" y1="233.4" x2="44.2" y2="260.4" stroke="rgb(0,0,0)"  stroke-width="1.0"/>
<line x1="35.8" y1="233.4" x2="35.8" y2="260.4" stroke="rgb(0,0,0)"  stroke-width="1.0"/>
<line x1="178.2" y1="246.7" x2="178.0" y2="219.8" stroke="rgb(0,0,0)"  stroke-width="1.0"/>
<line x1="155.9" y1="203.8" x2="179.5" y2="217.2" stroke="rgb(0,0,0)"  stroke-width="1.0"/>
<line x1="152.9" y1="209.0" x2="176.5" y2="222.4" stroke="rgb(0,0,0)"  stroke-width="1.0"/>
<line x1="143.7" y1="279.9" x2="167.0" y2="266.3" stroke="rgb(0,0,0)"  stroke-width="1.0"/>
<line x1="212.5" y1="199.8" x2="178.0" y2="219.8" stroke="rgb(0,0,0)"  stroke-width="1.0"/>
<line x1="212.1" y1="159.9" x2="212.5" y2="199.8" stroke="rgb(0,0,0)"  stroke-width="1.0"/>
<line x1="212.1" y1="53.0" x2="212.1" y2="80.0" stroke="rgb(0,0,0)"  stroke-width="1.0"/>
<line x1="212.1" y1="159.9" x2="177.6" y2="139.9" stroke="rgb(0,0,0)"  stroke-width="1.0"/>
<line x1="177.6" y1="139.9" x2="177.6" y2="100.1" stroke="rgb(0,0,0)"  stroke-width="1.0"/>
<line x1="184.8" y1="133.9" x2="184.8" y2="106.1" stroke="rgb(0,0,0)"  stroke-width="1.0"/>
<line x1="177.6" y1="100.1" x2="212.1" y2="80.0" stroke="rgb(0,0,0)"  stroke-width="1.0"/>
<line x1="212.1" y1="80.0" x2="247.0" y2="99.9" stroke="rgb(0,0,0)"  stroke-width="1.0"/>
<line x1="213.8" y1="89.2" x2="238.3" y2="103.2" stroke="rgb(0,0,0)"  stroke-width="1.0"/>
<line x1="247.0" y1="99.9" x2="247.0" y2="139.9" stroke="rgb(0,0,0)"  stroke-width="1.0"/>
<line x1="247.0" y1="139.9" x2="212.1" y2="159.9" stroke="rgb(0,0,0)"  stroke-width="1.0"/>
<line x1="238.3" y1="136.6" x2="213.8" y2="150.6" stroke="rgb(0,0,0)"  stroke-width="1.0"/>
<line x1="143.7" y1="279.9" x2="109.0" y2="260.0" stroke="rgb(0,0,0)"  stroke-width="1.0"/>
<line x1="134.9" y1="283.2" x2="110.6" y2="269.2" stroke="rgb(0,0,0)"  stroke-width="1.0"/>
<line x1="109.0" y1="260.0" x2="74.5" y2="279.9" stroke="rgb(0,0,0)"  stroke-width="1.0"/>
<line x1="74.5" y1="279.9" x2="74.5" y2="320.3" stroke="rgb(0,0,0)"  stroke-width="1.0"/>
<line x1="81.7" y1="285.9" x2="81.7" y2="314.3" stroke="rgb(0,0,0)"  stroke-width="1.0"/>
<line x1="74.5" y1="320.3" x2="109.0" y2="340.3" stroke="rgb(0,0,0)"  stroke-width="1.0"/>
<line x1="109.0" y1="340.3" x2="143.7" y2="320.3" stroke="rgb(0,0,0)"  stroke-width="1.0"/>
<line x1="110.6" y1="331.0" x2="134.9" y2="317.0" stroke="rgb(0,0,0)"  stroke-width="1.0"/>
<line x1="143.7" y1="320.3" x2="143.7" y2="279.9" stroke="rgb(0,0,0)"  stroke-width="1.0"/>
<text x="34.000000" y="228.399951" fill="rgb(102,102,102)"  stroke="rgb(102,102,102)" stroke-width="1" font-size="16" >CH</text>
<text x="172.227527" y="267.748933" fill="rgb(12,12,255)"  stroke="rgb(12,12,255)" stroke-width="1" font-size="16" >NH</text>
<text x="137.116128" y="208.020810" fill="rgb(255,12,12)"  stroke="rgb(255,12,12)" stroke-width="1" font-size="16" >O</text>
<text x="206.128189" y="48.000000" fill="rgb(30,239,30)"  stroke="rgb(30,239,30)" stroke-width="1" font-size="16" >Cl</text>
<text font-size="18.000000" fill ="black" font-family="sans-serif"
x="10.000000" y="20.000000" ></text>
<title> - OBDepict</title>
</svg>
