<?xml version="1.0"?>
<svg xmlns="http://www.w3.org/2000/svg"
xmlns:xlink="http://www.w3.org/1999/xlink" xmlns:cml="http://www.xml-cml.org/schema" width="347.522" height="437.641" x="0" y="0" font-family="sans-serif" stroke="rgb(0,0,0)" stroke-width="1"  stroke-linecap="round">
<rect x="0%" y="0%" width="100%" height="100%" stroke-width="0" fill="rgb(255,255,255)"  />
<line x1="145.8" y1="214.4" x2="185.8" y2="213.2" stroke="rgb(0,0,0)"  stroke-width="1.0"/>
<line x1="115.5" y1="240.7" x2="143.7" y2="212.3" stroke="rgb(0,0,0)"  stroke-width="1.0"/>
<line x1="119.7" y1="244.9" x2="148.0" y2="216.5" stroke="rgb(0,0,0)"  stroke-width="1.0"/>
<line x1="246.4" y1="245.8" x2="260.8" y2="269.0" stroke="rgb(0,0,0)"  stroke-width="1.0"/>
<line x1="78.7" y1="232.3" x2="117.6" y2="242.8" stroke="rgb(0,0,0)"  stroke-width="1.0"/>
<line x1="52.5" y1="225.1" x2="78.7" y2="232.3" stroke="rgb(0,0,0)"  stroke-width="1.0"/>
<line x1="53.6" y1="221.1" x2="79.8" y2="228.3" stroke="rgb(0,0,0)"  stroke-width="1.0"/>
<line x1="51.4" y1="229.2" x2="77.6" y2="236.4" stroke="rgb(0,0,0)"  stroke-width="1.0"/>
<line x1="181.1" y1="74.7" x2="202.1" y2="108.9" stroke="rgb(0,0,0)"  stroke-width="1.0"/>
<line x1="193.7" y1="51.4" x2="181.1" y2="74.7" stroke="rgb(0,0,0)"  stroke-width="1.0"/>
<line x1="197.4" y1="53.4" x2="184.8" y2="76.7" stroke="rgb(0,0,0)"  stroke-width="1.0"/>
<line x1="190.0" y1="49.4" x2="177.4" y2="72.7" stroke="rgb(0,0,0)"  stroke-width="1.0"/>
<line x1="255.0" y1="303.9" x2="261.5" y2="291.6" stroke="rgb(0,0,0)"  stroke-width="1.0"/>
<line x1="127.7" y1="281.5" x2="117.6" y2="242.8" stroke="rgb(0,0,0)"  stroke-width="1.0"/>
<line x1="294.6" y1="282.4" x2="280.7" y2="282.8" stroke="rgb(0,0,0)"  stroke-width="1.0"/>
<line x1="294.5" y1="276.4" x2="280.5" y2="276.8" stroke="rgb(0,0,0)"  stroke-width="1.0"/>
<line x1="154.8" y1="385.1" x2="147.9" y2="358.9" stroke="rgb(0,0,0)"  stroke-width="1.0"/>
<line x1="190.2" y1="155.3" x2="204.5" y2="178.1" stroke="rgb(0,0,0)"  stroke-width="1.0"/>
<line x1="202.1" y1="108.9" x2="189.4" y2="132.8" stroke="rgb(0,0,0)"  stroke-width="1.0"/>
<line x1="185.8" y1="213.2" x2="204.5" y2="178.1" stroke="rgb(0,0,0)"  stroke-width="1.0"/>
<line x1="194.9" y1="211.3" x2="208.0" y2="186.8" stroke="rgb(0,0,0)"  stroke-width="1.0"/>
<line x1="204.5" y1="178.1" x2="244.6" y2="176.9" stroke="rgb(0,0,0)"  stroke-width="1.0"/>
<line x1="244.6" y1="176.9" x2="265.6" y2="210.8" stroke="rgb(0,0,0)"  stroke-width="1.0"/>
<line x1="241.7" y1="185.8" x2="256.3" y2="209.4" stroke="rgb(0,0,0)"  stroke-width="1.0"/>
<line x1="265.6" y1="210.8" x2="246.4" y2="245.8" stroke="rgb(0,0,0)"  stroke-width="1.0"/>
<line x1="246.4" y1="245.8" x2="206.5" y2="247.0" stroke="rgb(0,0,0)"  stroke-width="1.0"/>
<line x1="240.2" y1="238.8" x2="212.3" y2="239.7" stroke="rgb(0,0,0)"  stroke-width="1.0"/>
<line x1="206.5" y1="247.0" x2="185.8" y2="213.2" stroke="rgb(0,0,0)"  stroke-width="1.0"/>
<line x1="127.7" y1="281.5" x2="99.3" y2="309.3" stroke="rgb(0,0,0)"  stroke-width="1.0"/>
<line x1="128.4" y1="290.9" x2="108.6" y2="310.3" stroke="rgb(0,0,0)"  stroke-width="1.0"/>
<line x1="99.3" y1="309.3" x2="109.5" y2="348.1" stroke="rgb(0,0,0)"  stroke-width="1.0"/>
<line x1="109.5" y1="348.1" x2="147.9" y2="358.9" stroke="rgb(0,0,0)"  stroke-width="1.0"/>
<line x1="117.3" y1="342.8" x2="144.1" y2="350.4" stroke="rgb(0,0,0)"  stroke-width="1.0"/>
<line x1="147.9" y1="358.9" x2="176.7" y2="330.9" stroke="rgb(0,0,0)"  stroke-width="1.0"/>
<line x1="176.7" y1="330.9" x2="166.6" y2="291.8" stroke="rgb(0,0,0)"  stroke-width="1.0"/>
<line x1="168.2" y1="326.9" x2="161.1" y2="299.4" stroke="rgb(0,0,0)"  stroke-width="1.0"/>
<line x1="166.6" y1="291.8" x2="127.7" y2="281.5" stroke="rgb(0,0,0)"  stroke-width="1.0"/>
<text x="272.405319" y="276.076497" fill="rgb(12,12,255)"  stroke="rgb(12,12,255)" stroke-width="1" font-size="16" >+</text>
<text x="261.605319" y="288.108497" fill="rgb(12,12,255)"  stroke="rgb(12,12,255)" stroke-width="1" font-size="16" >N</text>
<text x="34.000000" y="229.642454" fill="rgb(12,12,255)"  stroke="rgb(12,12,255)" stroke-width="1" font-size="16" >N</text>
<text x="193.867255" y="48.000000" fill="rgb(102,102,102)"  stroke="rgb(102,102,102)" stroke-width="1" font-size="16" >CH</text>
<text x="253.657818" y="301.277647" fill="rgb(255,12,12)"  stroke="rgb(255,12,12)" stroke-width="1" font-size="16" >_</text>
<text x="242.857818" y="323.389647" fill="rgb(255,12,12)"  stroke="rgb(255,12,12)" stroke-width="1" font-size="16" >O</text>
<text x="301.522478" y="287.100880" fill="rgb(255,12,12)"  stroke="rgb(255,12,12)" stroke-width="1" font-size="16" >O</text>
<text x="152.138322" y="405.641279" fill="rgb(30,239,30)"  stroke="rgb(30,239,30)" stroke-width="1" font-size="16" >Cl</text>
<text x="177.338451" y="152.230292" fill="rgb(255,12,12)"  stroke="rgb(255,12,12)" stroke-width="1" font-size="16" >O</text>
<text font-size="18.000000" fill ="black" font-family="sans-serif"
x="10.000000" y="20.000000" ></text>
<title> - OBDepict</title>
</svg>
