<?xml version="1.0"?>
<svg xmlns="http://www.w3.org/2000/svg"
xmlns:xlink="http://www.w3.org/1999/xlink" xmlns:cml="http://www.xml-cml.org/schema" width="440.169" height="287.874" x="0" y="0" font-family="sans-serif" stroke="rgb(0,0,0)" stroke-width="1"  stroke-linecap="round">
<rect x="0%" y="0%" width="100%" height="100%" stroke-width="0" fill="rgb(255,255,255)"  />
<line x1="220.1" y1="106.4" x2="260.1" y2="106.4" stroke="rgb(0,0,0)"  stroke-width="1.0"/>
<line x1="220.1" y1="112.4" x2="260.1" y2="112.4" stroke="rgb(0,0,0)"  stroke-width="1.0"/>
<line x1="340.1" y1="178.7" x2="326.6" y2="155.3" stroke="rgb(0,0,0)"  stroke-width="1.0"/>
<line x1="200.1" y1="144.0" x2="220.1" y2="109.4" stroke="rgb(0,0,0)"  stroke-width="1.0"/>
<line x1="80.0" y1="74.7" x2="100.0" y2="109.4" stroke="rgb(0,0,0)"  stroke-width="1.0"/>
<line x1="367.2" y1="112.4" x2="340.1" y2="112.4" stroke="rgb(0,0,0)"  stroke-width="1.0"/>
<line x1="367.2" y1="106.4" x2="340.1" y2="106.4" stroke="rgb(0,0,0)"  stroke-width="1.0"/>
<line x1="264.0" y1="165.8" x2="277.5" y2="142.5" stroke="rgb(0,0,0)"  stroke-width="1.0"/>
<line x1="269.2" y1="168.8" x2="282.7" y2="145.6" stroke="rgb(0,0,0)"  stroke-width="1.0"/>
<line x1="53.0" y1="74.7" x2="80.0" y2="74.7" stroke="rgb(0,0,0)"  stroke-width="1.0"/>
<line x1="53.0" y1="70.5" x2="80.0" y2="70.5" stroke="rgb(0,0,0)"  stroke-width="1.0"/>
<line x1="53.0" y1="78.9" x2="80.0" y2="78.9" stroke="rgb(0,0,0)"  stroke-width="1.0"/>
<line x1="269.2" y1="49.8" x2="282.7" y2="73.2" stroke="rgb(0,0,0)"  stroke-width="1.0"/>
<line x1="264.0" y1="52.8" x2="277.5" y2="76.2" stroke="rgb(0,0,0)"  stroke-width="1.0"/>
<line x1="393.7" y1="155.3" x2="380.2" y2="178.7" stroke="rgb(0,0,0)"  stroke-width="1.0"/>
<line x1="146.5" y1="120.6" x2="160.1" y2="144.0" stroke="rgb(0,0,0)"  stroke-width="1.0"/>
<line x1="100.0" y1="109.4" x2="127.0" y2="109.4" stroke="rgb(0,0,0)"  stroke-width="1.0"/>
<line x1="307.1" y1="144.0" x2="280.1" y2="144.0" stroke="rgb(0,0,0)"  stroke-width="1.0"/>
<line x1="280.1" y1="144.0" x2="260.1" y2="109.4" stroke="rgb(0,0,0)"  stroke-width="1.0"/>
<line x1="260.1" y1="109.4" x2="280.1" y2="74.7" stroke="rgb(0,0,0)"  stroke-width="1.0"/>
<line x1="280.1" y1="74.7" x2="307.1" y2="74.7" stroke="rgb(0,0,0)"  stroke-width="1.0"/>
<line x1="326.6" y1="85.9" x2="340.1" y2="109.4" stroke="rgb(0,0,0)"  stroke-width="1.0"/>
<line x1="340.1" y1="109.4" x2="326.6" y2="132.8" stroke="rgb(0,0,0)"  stroke-width="1.0"/>
<line x1="200.1" y1="144.0" x2="160.1" y2="144.0" stroke="rgb(0,0,0)"  stroke-width="1.0"/>
<line x1="160.1" y1="144.0" x2="140.0" y2="178.5" stroke="rgb(0,0,0)"  stroke-width="1.0"/>
<line x1="163.3" y1="152.9" x2="149.3" y2="176.9" stroke="rgb(0,0,0)"  stroke-width="1.0"/>
<line x1="140.0" y1="178.5" x2="160.1" y2="213.2" stroke="rgb(0,0,0)"  stroke-width="1.0"/>
<line x1="160.1" y1="213.2" x2="200.1" y2="213.2" stroke="rgb(0,0,0)"  stroke-width="1.0"/>
<line x1="166.1" y1="206.0" x2="194.1" y2="206.0" stroke="rgb(0,0,0)"  stroke-width="1.0"/>
<line x1="200.1" y1="213.2" x2="220.1" y2="178.5" stroke="rgb(0,0,0)"  stroke-width="1.0"/>
<line x1="220.1" y1="178.5" x2="200.1" y2="144.0" stroke="rgb(0,0,0)"  stroke-width="1.0"/>
<line x1="210.8" y1="176.9" x2="196.9" y2="152.9" stroke="rgb(0,0,0)"  stroke-width="1.0"/>
<line x1="340.1" y1="178.7" x2="380.2" y2="178.7" stroke="rgb(0,0,0)"  stroke-width="1.0"/>
<line x1="346.1" y1="185.9" x2="374.2" y2="185.9" stroke="rgb(0,0,0)"  stroke-width="1.0"/>
<line x1="380.2" y1="178.7" x2="400.2" y2="213.4" stroke="rgb(0,0,0)"  stroke-width="1.0"/>
<line x1="400.2" y1="213.4" x2="380.2" y2="247.9" stroke="rgb(0,0,0)"  stroke-width="1.0"/>
<line x1="390.9" y1="215.0" x2="376.9" y2="239.1" stroke="rgb(0,0,0)"  stroke-width="1.0"/>
<line x1="380.2" y1="247.9" x2="340.1" y2="247.9" stroke="rgb(0,0,0)"  stroke-width="1.0"/>
<line x1="340.1" y1="247.9" x2="320.1" y2="213.4" stroke="rgb(0,0,0)"  stroke-width="1.0"/>
<line x1="343.4" y1="239.1" x2="329.4" y2="215.0" stroke="rgb(0,0,0)"  stroke-width="1.0"/>
<line x1="320.1" y1="213.4" x2="340.1" y2="178.7" stroke="rgb(0,0,0)"  stroke-width="1.0"/>
<text x="314.131141" y="152.048709" fill="rgb(12,12,255)"  stroke="rgb(12,12,255)" stroke-width="1" font-size="16" >N</text>
<text x="314.131141" y="82.682903" fill="rgb(12,12,255)"  stroke="rgb(12,12,255)" stroke-width="1" font-size="16" >N</text>
<text x="314.131141" y="66.682903" fill="rgb(12,12,255)"  stroke="rgb(12,12,255)" stroke-width="1" font-size="16" >H</text>
<text x="374.159242" y="117.365806" fill="rgb(255,12,12)"  stroke="rgb(255,12,12)" stroke-width="1" font-size="16" >O</text>
<text x="254.103039" y="186.508478" fill="rgb(255,12,12)"  stroke="rgb(255,12,12)" stroke-width="1" font-size="16" >O</text>
<text x="22.000000" y="82.682903" fill="rgb(102,102,102)"  stroke="rgb(102,102,102)" stroke-width="1" font-size="16" >HC</text>
<text x="254.103039" y="48.000000" fill="rgb(255,12,12)"  stroke="rgb(255,12,12)" stroke-width="1" font-size="16" >O</text>
<text x="394.168610" y="152.048709" fill="rgb(127,178,255)"  stroke="rgb(127,178,255)" stroke-width="1" font-size="16" >F</text>
<text x="134.046836" y="117.365806" fill="rgb(255,12,12)"  stroke="rgb(255,12,12)" stroke-width="1" font-size="16" >O</text>
<text font-size="18.000000" fill ="black" font-family="sans-serif"
x="10.000000" y="20.000000" ></text>
<title> - OBDepict</title>
</svg>
