<?xml version="1.0"?>
<svg xmlns="http://www.w3.org/2000/svg"
xmlns:xlink="http://www.w3.org/1999/xlink" xmlns:cml="http://www.xml-cml.org/schema" width="507.555" height="365.039" x="0" y="0" font-family="sans-serif" stroke="rgb(0,0,0)" stroke-width="1"  stroke-linecap="round">
<rect x="0%" y="0%" width="100%" height="100%" stroke-width="0" fill="rgb(255,255,255)"  />
<line x1="195.3" y1="98.3" x2="235.0" y2="104.8" stroke="rgb(0,0,0)"  stroke-width="1.0"/>
<line x1="194.3" y1="104.2" x2="234.0" y2="110.7" stroke="rgb(0,0,0)"  stroke-width="1.0"/>
<line x1="334.3" y1="79.5" x2="310.2" y2="91.8" stroke="rgb(0,0,0)"  stroke-width="1.0"/>
<line x1="83.5" y1="294.2" x2="108.3" y2="262.7" stroke="rgb(0,0,0)"  stroke-width="1.0"/>
<line x1="66.4" y1="315.0" x2="83.5" y2="294.2" stroke="rgb(0,0,0)"  stroke-width="1.0"/>
<line x1="63.2" y1="312.3" x2="80.3" y2="291.5" stroke="rgb(0,0,0)"  stroke-width="1.0"/>
<line x1="69.6" y1="317.7" x2="86.8" y2="296.9" stroke="rgb(0,0,0)"  stroke-width="1.0"/>
<line x1="309.1" y1="158.4" x2="290.1" y2="139.5" stroke="rgb(0,0,0)"  stroke-width="1.0"/>
<line x1="313.3" y1="154.1" x2="294.3" y2="135.2" stroke="rgb(0,0,0)"  stroke-width="1.0"/>
<line x1="261.6" y1="52.3" x2="265.9" y2="79.0" stroke="rgb(0,0,0)"  stroke-width="1.0"/>
<line x1="255.6" y1="53.3" x2="260.0" y2="80.0" stroke="rgb(0,0,0)"  stroke-width="1.0"/>
<line x1="169.8" y1="132.1" x2="194.8" y2="101.3" stroke="rgb(0,0,0)"  stroke-width="1.0"/>
<line x1="367.6" y1="101.3" x2="334.3" y2="79.5" stroke="rgb(0,0,0)"  stroke-width="1.0"/>
<line x1="78.2" y1="152.8" x2="104.7" y2="156.9" stroke="rgb(0,0,0)"  stroke-width="1.0"/>
<line x1="456.7" y1="160.1" x2="434.1" y2="145.2" stroke="rgb(0,0,0)"  stroke-width="1.0"/>
<line x1="102.0" y1="215.7" x2="119.2" y2="194.4" stroke="rgb(0,0,0)"  stroke-width="1.0"/>
<line x1="108.3" y1="262.7" x2="98.6" y2="238.0" stroke="rgb(0,0,0)"  stroke-width="1.0"/>
<line x1="48.2" y1="172.0" x2="57.2" y2="161.0" stroke="rgb(0,0,0)"  stroke-width="1.0"/>
<line x1="296.5" y1="110.5" x2="292.2" y2="137.4" stroke="rgb(0,0,0)"  stroke-width="1.0"/>
<line x1="292.2" y1="137.4" x2="265.5" y2="141.4" stroke="rgb(0,0,0)"  stroke-width="1.0"/>
<line x1="246.8" y1="131.8" x2="234.5" y2="107.7" stroke="rgb(0,0,0)"  stroke-width="1.0"/>
<line x1="234.5" y1="107.7" x2="262.9" y2="79.5" stroke="rgb(0,0,0)"  stroke-width="1.0"/>
<line x1="262.9" y1="79.5" x2="287.0" y2="91.8" stroke="rgb(0,0,0)"  stroke-width="1.0"/>
<line x1="104.7" y1="156.9" x2="119.2" y2="194.4" stroke="rgb(0,0,0)"  stroke-width="1.0"/>
<line x1="113.6" y1="159.9" x2="123.8" y2="186.2" stroke="rgb(0,0,0)"  stroke-width="1.0"/>
<line x1="119.2" y1="194.4" x2="158.5" y2="200.9" stroke="rgb(0,0,0)"  stroke-width="1.0"/>
<line x1="158.5" y1="200.9" x2="183.9" y2="169.6" stroke="rgb(0,0,0)"  stroke-width="1.0"/>
<line x1="156.7" y1="191.7" x2="174.6" y2="169.7" stroke="rgb(0,0,0)"  stroke-width="1.0"/>
<line x1="183.9" y1="169.6" x2="169.8" y2="132.1" stroke="rgb(0,0,0)"  stroke-width="1.0"/>
<line x1="169.8" y1="132.1" x2="130.1" y2="126.1" stroke="rgb(0,0,0)"  stroke-width="1.0"/>
<line x1="162.8" y1="138.3" x2="135.0" y2="134.1" stroke="rgb(0,0,0)"  stroke-width="1.0"/>
<line x1="130.1" y1="126.1" x2="104.7" y2="156.9" stroke="rgb(0,0,0)"  stroke-width="1.0"/>
<line x1="367.6" y1="101.3" x2="365.2" y2="141.2" stroke="rgb(0,0,0)"  stroke-width="1.0"/>
<line x1="374.4" y1="107.7" x2="372.7" y2="135.6" stroke="rgb(0,0,0)"  stroke-width="1.0"/>
<line x1="365.2" y1="141.2" x2="398.4" y2="163.0" stroke="rgb(0,0,0)"  stroke-width="1.0"/>
<line x1="398.4" y1="163.0" x2="434.1" y2="145.2" stroke="rgb(0,0,0)"  stroke-width="1.0"/>
<line x1="400.6" y1="153.8" x2="425.5" y2="141.4" stroke="rgb(0,0,0)"  stroke-width="1.0"/>
<line x1="434.1" y1="145.2" x2="436.5" y2="105.3" stroke="rgb(0,0,0)"  stroke-width="1.0"/>
<line x1="436.5" y1="105.3" x2="402.8" y2="83.1" stroke="rgb(0,0,0)"  stroke-width="1.0"/>
<line x1="427.5" y1="108.0" x2="403.9" y2="92.5" stroke="rgb(0,0,0)"  stroke-width="1.0"/>
<line x1="402.8" y1="83.1" x2="367.6" y2="101.3" stroke="rgb(0,0,0)"  stroke-width="1.0"/>
<text x="292.628030" y="105.653306" fill="rgb(12,12,255)"  stroke="rgb(12,12,255)" stroke-width="1" font-size="16" >N</text>
<text x="246.665332" y="151.407590" fill="rgb(178,178,0)"  stroke="rgb(178,178,0)" stroke-width="1" font-size="16" >S</text>
<text x="40.141768" y="333.038528" fill="rgb(102,102,102)"  stroke="rgb(102,102,102)" stroke-width="1" font-size="16" >HC</text>
<text x="314.400090" y="173.383218" fill="rgb(255,12,12)"  stroke="rgb(255,12,12)" stroke-width="1" font-size="16" >O</text>
<text x="250.499192" y="48.000000" fill="rgb(255,12,12)"  stroke="rgb(255,12,12)" stroke-width="1" font-size="16" >O</text>
<text x="59.397505" y="158.871743" fill="rgb(255,12,12)"  stroke="rgb(255,12,12)" stroke-width="1" font-size="16" >O</text>
<text x="461.555368" y="175.195941" fill="rgb(127,178,255)"  stroke="rgb(127,178,255)" stroke-width="1" font-size="16" >F</text>
<text x="87.819446" y="233.857392" fill="rgb(255,12,12)"  stroke="rgb(255,12,12)" stroke-width="1" font-size="16" >O</text>
<text x="14.000000" y="190.114552" fill="rgb(102,102,102)"  stroke="rgb(102,102,102)" stroke-width="1" font-size="16" >H</text>
<text x="26.000000" y="193.794552" fill="rgb(102,102,102)"  stroke="rgb(102,102,102)" stroke-width="1" font-size="13" >3</text>
<text x="32.500000" y="190.114552" fill="rgb(102,102,102)"  stroke="rgb(102,102,102)" stroke-width="1" font-size="16" >C</text>
<text font-size="18.000000" fill ="black" font-family="sans-serif"
x="10.000000" y="20.000000" ></text>
<title> - OBDepict</title>
</svg>
