<?xml version="1.0"?>
<svg xmlns="http://www.w3.org/2000/svg"
xmlns:xlink="http://www.w3.org/1999/xlink" xmlns:cml="http://www.xml-cml.org/schema" width="531.555" height="297.529" x="0" y="0" font-family="sans-serif" stroke="rgb(0,0,0)" stroke-width="1"  stroke-linecap="round">
<rect x="0%" y="0%" width="100%" height="100%" stroke-width="0" fill="rgb(255,255,255)"  />
<line x1="213.4" y1="100.0" x2="247.9" y2="119.5" stroke="rgb(0,0,0)"  stroke-width="1.0"/>
<line x1="284.0" y1="101.9" x2="249.4" y2="122.1" stroke="rgb(0,0,0)"  stroke-width="1.0"/>
<line x1="281.0" y1="96.7" x2="246.3" y2="116.9" stroke="rgb(0,0,0)"  stroke-width="1.0"/>
<line x1="248.0" y1="159.5" x2="247.9" y2="119.5" stroke="rgb(0,0,0)"  stroke-width="1.0"/>
<line x1="190.1" y1="113.6" x2="213.4" y2="100.0" stroke="rgb(0,0,0)"  stroke-width="1.0"/>
<line x1="248.5" y1="186.4" x2="248.0" y2="159.5" stroke="rgb(0,0,0)"  stroke-width="1.0"/>
<line x1="244.3" y1="186.4" x2="243.8" y2="159.6" stroke="rgb(0,0,0)"  stroke-width="1.0"/>
<line x1="252.7" y1="186.3" x2="252.2" y2="159.4" stroke="rgb(0,0,0)"  stroke-width="1.0"/>
<line x1="456.5" y1="238.2" x2="421.9" y2="218.4" stroke="rgb(0,0,0)"  stroke-width="1.0"/>
<line x1="480.2" y1="251.2" x2="456.5" y2="238.2" stroke="rgb(0,0,0)"  stroke-width="1.0"/>
<line x1="478.1" y1="254.9" x2="454.5" y2="241.9" stroke="rgb(0,0,0)"  stroke-width="1.0"/>
<line x1="482.2" y1="247.6" x2="458.6" y2="234.5" stroke="rgb(0,0,0)"  stroke-width="1.0"/>
<line x1="317.2" y1="119.3" x2="282.5" y2="99.3" stroke="rgb(0,0,0)"  stroke-width="1.0"/>
<line x1="215.9" y1="73.0" x2="216.4" y2="100.0" stroke="rgb(0,0,0)"  stroke-width="1.0"/>
<line x1="209.9" y1="73.1" x2="210.4" y2="100.1" stroke="rgb(0,0,0)"  stroke-width="1.0"/>
<line x1="143.8" y1="100.2" x2="167.6" y2="113.7" stroke="rgb(0,0,0)"  stroke-width="1.0"/>
<line x1="352.3" y1="205.9" x2="352.2" y2="178.7" stroke="rgb(0,0,0)"  stroke-width="1.0"/>
<line x1="410.0" y1="172.0" x2="386.7" y2="158.9" stroke="rgb(0,0,0)"  stroke-width="1.0"/>
<line x1="421.9" y1="218.4" x2="421.5" y2="191.3" stroke="rgb(0,0,0)"  stroke-width="1.0"/>
<line x1="51.2" y1="46.7" x2="74.5" y2="60.2" stroke="rgb(0,0,0)"  stroke-width="1.0"/>
<line x1="352.2" y1="178.7" x2="386.7" y2="158.9" stroke="rgb(0,0,0)"  stroke-width="1.0"/>
<line x1="353.8" y1="169.5" x2="377.9" y2="155.6" stroke="rgb(0,0,0)"  stroke-width="1.0"/>
<line x1="386.7" y1="158.9" x2="386.0" y2="118.3" stroke="rgb(0,0,0)"  stroke-width="1.0"/>
<line x1="386.0" y1="118.3" x2="351.5" y2="98.8" stroke="rgb(0,0,0)"  stroke-width="1.0"/>
<line x1="377.3" y1="121.7" x2="353.2" y2="108.1" stroke="rgb(0,0,0)"  stroke-width="1.0"/>
<line x1="351.5" y1="98.8" x2="317.2" y2="119.3" stroke="rgb(0,0,0)"  stroke-width="1.0"/>
<line x1="317.2" y1="119.3" x2="317.2" y2="159.4" stroke="rgb(0,0,0)"  stroke-width="1.0"/>
<line x1="324.4" y1="125.3" x2="324.4" y2="153.4" stroke="rgb(0,0,0)"  stroke-width="1.0"/>
<line x1="317.2" y1="159.4" x2="352.2" y2="178.7" stroke="rgb(0,0,0)"  stroke-width="1.0"/>
<line x1="143.8" y1="100.2" x2="143.8" y2="60.0" stroke="rgb(0,0,0)"  stroke-width="1.0"/>
<line x1="143.8" y1="60.0" x2="109.2" y2="40.0" stroke="rgb(0,0,0)"  stroke-width="1.0"/>
<line x1="135.1" y1="63.2" x2="110.8" y2="49.2" stroke="rgb(0,0,0)"  stroke-width="1.0"/>
<line x1="109.2" y1="40.0" x2="74.5" y2="60.2" stroke="rgb(0,0,0)"  stroke-width="1.0"/>
<line x1="74.5" y1="60.2" x2="74.5" y2="100.2" stroke="rgb(0,0,0)"  stroke-width="1.0"/>
<line x1="81.7" y1="66.2" x2="81.7" y2="94.2" stroke="rgb(0,0,0)"  stroke-width="1.0"/>
<line x1="74.5" y1="100.2" x2="109.2" y2="120.2" stroke="rgb(0,0,0)"  stroke-width="1.0"/>
<line x1="109.2" y1="120.2" x2="143.8" y2="100.2" stroke="rgb(0,0,0)"  stroke-width="1.0"/>
<line x1="110.8" y1="110.9" x2="135.1" y2="96.9" stroke="rgb(0,0,0)"  stroke-width="1.0"/>
<text x="172.848375" y="128.174584" fill="rgb(12,12,255)"  stroke="rgb(12,12,255)" stroke-width="1" font-size="16" >N</text>
<text x="172.848375" y="144.174584" fill="rgb(12,12,255)"  stroke="rgb(12,12,255)" stroke-width="1" font-size="16" >H</text>
<text x="242.689583" y="207.355107" fill="rgb(12,12,255)"  stroke="rgb(12,12,255)" stroke-width="1" font-size="16" >N</text>
<text x="485.555437" y="265.529444" fill="rgb(102,102,102)"  stroke="rgb(102,102,102)" stroke-width="1" font-size="16" >CH</text>
<text x="206.685211" y="68.002429" fill="rgb(255,12,12)"  stroke="rgb(255,12,12)" stroke-width="1" font-size="16" >O</text>
<text x="346.372476" y="226.858082" fill="rgb(165,40,40)"  stroke="rgb(165,40,40)" stroke-width="1" font-size="16" >Br</text>
<text x="415.379643" y="186.348920" fill="rgb(255,12,12)"  stroke="rgb(255,12,12)" stroke-width="1" font-size="16" >O</text>
<text x="14.000000" y="48.164869" fill="rgb(102,102,102)"  stroke="rgb(102,102,102)" stroke-width="1" font-size="16" >H</text>
<text x="26.000000" y="51.844869" fill="rgb(102,102,102)"  stroke="rgb(102,102,102)" stroke-width="1" font-size="13" >3</text>
<text x="32.500000" y="48.164869" fill="rgb(102,102,102)"  stroke="rgb(102,102,102)" stroke-width="1" font-size="16" >C</text>
<text font-size="18.000000" fill ="black" font-family="sans-serif"
x="10.000000" y="20.000000" ></text>
<title> - OBDepict</title>
</svg>
