<?xml version="1.0"?>
<svg xmlns="http://www.w3.org/2000/svg"
xmlns:xlink="http://www.w3.org/1999/xlink" xmlns:cml="http://www.xml-cml.org/schema" width="340.661" height="397.317" x="0" y="0" font-family="sans-serif" stroke="rgb(0,0,0)" stroke-width="1"  stroke-linecap="round">
<rect x="0%" y="0%" width="100%" height="100%" stroke-width="0" fill="rgb(255,255,255)"  />
<line x1="200.6" y1="277.7" x2="162.5" y2="290.0" stroke="rgb(0,0,0)"  stroke-width="1.0"/>
<line x1="198.7" y1="272.0" x2="160.6" y2="284.3" stroke="rgb(0,0,0)"  stroke-width="1.0"/>
<line x1="50.7" y1="235.8" x2="59.1" y2="274.9" stroke="rgb(0,0,0)"  stroke-width="1.0"/>
<line x1="43.5" y1="209.6" x2="50.7" y2="235.8" stroke="rgb(0,0,0)"  stroke-width="1.0"/>
<line x1="47.5" y1="208.5" x2="54.7" y2="234.6" stroke="rgb(0,0,0)"  stroke-width="1.0"/>
<line x1="39.4" y1="210.7" x2="46.6" y2="236.9" stroke="rgb(0,0,0)"  stroke-width="1.0"/>
<line x1="91.0" y1="345.1" x2="106.9" y2="323.5" stroke="rgb(0,0,0)"  stroke-width="1.0"/>
<line x1="95.9" y1="348.6" x2="111.8" y2="327.0" stroke="rgb(0,0,0)"  stroke-width="1.0"/>
<line x1="132.0" y1="236.6" x2="132.3" y2="263.5" stroke="rgb(0,0,0)"  stroke-width="1.0"/>
<line x1="126.0" y1="236.7" x2="126.3" y2="263.6" stroke="rgb(0,0,0)"  stroke-width="1.0"/>
<line x1="207.5" y1="235.8" x2="199.7" y2="274.9" stroke="rgb(0,0,0)"  stroke-width="1.0"/>
<line x1="230.2" y1="130.9" x2="224.5" y2="157.1" stroke="rgb(0,0,0)"  stroke-width="1.0"/>
<line x1="59.1" y1="274.9" x2="84.5" y2="283.1" stroke="rgb(0,0,0)"  stroke-width="1.0"/>
<line x1="166.7" y1="151.4" x2="186.8" y2="169.6" stroke="rgb(0,0,0)"  stroke-width="1.0"/>
<line x1="271.0" y1="105.7" x2="245.3" y2="114.2" stroke="rgb(0,0,0)"  stroke-width="1.0"/>
<line x1="279.3" y1="66.8" x2="271.0" y2="105.7" stroke="rgb(0,0,0)"  stroke-width="1.0"/>
<line x1="291.0" y1="123.6" x2="271.0" y2="105.7" stroke="rgb(0,0,0)"  stroke-width="1.0"/>
<line x1="259.5" y1="48.8" x2="279.3" y2="66.8" stroke="rgb(0,0,0)"  stroke-width="1.0"/>
<line x1="100.9" y1="299.5" x2="109.3" y2="325.3" stroke="rgb(0,0,0)"  stroke-width="1.0"/>
<line x1="109.3" y1="325.3" x2="136.3" y2="325.3" stroke="rgb(0,0,0)"  stroke-width="1.0"/>
<line x1="153.3" y1="312.9" x2="161.6" y2="287.2" stroke="rgb(0,0,0)"  stroke-width="1.0"/>
<line x1="161.6" y1="287.2" x2="129.3" y2="263.6" stroke="rgb(0,0,0)"  stroke-width="1.0"/>
<line x1="129.3" y1="263.6" x2="107.4" y2="279.5" stroke="rgb(0,0,0)"  stroke-width="1.0"/>
<line x1="186.8" y1="169.6" x2="224.5" y2="157.1" stroke="rgb(0,0,0)"  stroke-width="1.0"/>
<line x1="194.7" y1="174.6" x2="221.0" y2="165.9" stroke="rgb(0,0,0)"  stroke-width="1.0"/>
<line x1="224.5" y1="157.1" x2="254.5" y2="184.1" stroke="rgb(0,0,0)"  stroke-width="1.0"/>
<line x1="254.5" y1="184.1" x2="246.2" y2="223.1" stroke="rgb(0,0,0)"  stroke-width="1.0"/>
<line x1="246.2" y1="188.5" x2="240.4" y2="215.7" stroke="rgb(0,0,0)"  stroke-width="1.0"/>
<line x1="246.2" y1="223.1" x2="207.5" y2="235.8" stroke="rgb(0,0,0)"  stroke-width="1.0"/>
<line x1="207.5" y1="235.8" x2="177.9" y2="209.1" stroke="rgb(0,0,0)"  stroke-width="1.0"/>
<line x1="207.9" y1="226.4" x2="187.2" y2="207.8" stroke="rgb(0,0,0)"  stroke-width="1.0"/>
<line x1="177.9" y1="209.1" x2="186.8" y2="169.6" stroke="rgb(0,0,0)"  stroke-width="1.0"/>
<text x="90.849431" y="295.159229" fill="rgb(12,12,255)"  stroke="rgb(12,12,255)" stroke-width="1" font-size="16" >N</text>
<text x="143.264383" y="333.263791" fill="rgb(178,178,0)"  stroke="rgb(178,178,0)" stroke-width="1" font-size="16" >S</text>
<text x="22.000000" y="205.046371" fill="rgb(102,102,102)"  stroke="rgb(102,102,102)" stroke-width="1" font-size="16" >HC</text>
<text x="79.758394" y="365.316936" fill="rgb(255,12,12)"  stroke="rgb(255,12,12)" stroke-width="1" font-size="16" >O</text>
<text x="122.902575" y="231.658081" fill="rgb(255,12,12)"  stroke="rgb(255,12,12)" stroke-width="1" font-size="16" >O</text>
<text x="226.924011" y="126.223035" fill="rgb(255,12,12)"  stroke="rgb(255,12,12)" stroke-width="1" font-size="16" >O</text>
<text x="139.126384" y="150.617507" fill="rgb(165,40,40)"  stroke="rgb(165,40,40)" stroke-width="1" font-size="16" >Br</text>
<text x="296.661151" y="140.334939" fill="rgb(102,102,102)"  stroke="rgb(102,102,102)" stroke-width="1" font-size="16" >CH</text>
<text x="320.661151" y="144.014939" fill="rgb(102,102,102)"  stroke="rgb(102,102,102)" stroke-width="1" font-size="13" >3</text>
<text x="223.858296" y="48.000000" fill="rgb(102,102,102)"  stroke="rgb(102,102,102)" stroke-width="1" font-size="16" >H</text>
<text x="235.858296" y="51.680000" fill="rgb(102,102,102)"  stroke="rgb(102,102,102)" stroke-width="1" font-size="13" >3</text>
<text x="242.358296" y="48.000000" fill="rgb(102,102,102)"  stroke="rgb(102,102,102)" stroke-width="1" font-size="16" >C</text>
<text font-size="18.000000" fill ="black" font-family="sans-serif"
x="10.000000" y="20.000000" ></text>
<title> - OBDepict</title>
</svg>
