<?xml version="1.0"?>
<svg xmlns="http://www.w3.org/2000/svg"
xmlns:xlink="http://www.w3.org/1999/xlink" xmlns:cml="http://www.xml-cml.org/schema" width="445.755" height="349.918" x="0" y="0" font-family="sans-serif" stroke="rgb(0,0,0)" stroke-width="1"  stroke-linecap="round">
<rect x="0%" y="0%" width="100%" height="100%" stroke-width="0" fill="rgb(255,255,255)"  />
<line x1="363.1" y1="100.0" x2="337.6" y2="91.6" stroke="rgb(0,0,0)"  stroke-width="1.0"/>
<line x1="201.1" y1="230.1" x2="162.8" y2="242.4" stroke="rgb(0,0,0)"  stroke-width="1.0"/>
<line x1="199.2" y1="224.4" x2="161.0" y2="236.7" stroke="rgb(0,0,0)"  stroke-width="1.0"/>
<line x1="208.0" y1="188.4" x2="200.1" y2="227.2" stroke="rgb(0,0,0)"  stroke-width="1.0"/>
<line x1="269.9" y1="105.9" x2="240.6" y2="132.6" stroke="rgb(0,0,0)"  stroke-width="1.0"/>
<line x1="50.7" y1="188.0" x2="59.2" y2="227.2" stroke="rgb(0,0,0)"  stroke-width="1.0"/>
<line x1="43.5" y1="161.7" x2="50.7" y2="188.0" stroke="rgb(0,0,0)"  stroke-width="1.0"/>
<line x1="47.5" y1="160.6" x2="54.8" y2="186.9" stroke="rgb(0,0,0)"  stroke-width="1.0"/>
<line x1="39.4" y1="162.8" x2="46.7" y2="189.1" stroke="rgb(0,0,0)"  stroke-width="1.0"/>
<line x1="381.1" y1="130.2" x2="378.2" y2="116.8" stroke="rgb(0,0,0)"  stroke-width="1.0"/>
<line x1="91.2" y1="297.7" x2="107.1" y2="276.0" stroke="rgb(0,0,0)"  stroke-width="1.0"/>
<line x1="96.0" y1="301.2" x2="112.0" y2="279.6" stroke="rgb(0,0,0)"  stroke-width="1.0"/>
<line x1="397.9" y1="88.4" x2="387.2" y2="97.8" stroke="rgb(0,0,0)"  stroke-width="1.0"/>
<line x1="394.0" y1="83.9" x2="383.2" y2="93.3" stroke="rgb(0,0,0)"  stroke-width="1.0"/>
<line x1="132.3" y1="188.8" x2="132.6" y2="215.9" stroke="rgb(0,0,0)"  stroke-width="1.0"/>
<line x1="126.3" y1="188.9" x2="126.6" y2="215.9" stroke="rgb(0,0,0)"  stroke-width="1.0"/>
<line x1="59.2" y1="227.2" x2="84.7" y2="235.5" stroke="rgb(0,0,0)"  stroke-width="1.0"/>
<line x1="101.1" y1="251.9" x2="109.6" y2="277.8" stroke="rgb(0,0,0)"  stroke-width="1.0"/>
<line x1="109.6" y1="277.8" x2="136.6" y2="277.8" stroke="rgb(0,0,0)"  stroke-width="1.0"/>
<line x1="153.6" y1="265.4" x2="161.9" y2="239.6" stroke="rgb(0,0,0)"  stroke-width="1.0"/>
<line x1="161.9" y1="239.6" x2="129.6" y2="215.9" stroke="rgb(0,0,0)"  stroke-width="1.0"/>
<line x1="129.6" y1="215.9" x2="107.5" y2="231.9" stroke="rgb(0,0,0)"  stroke-width="1.0"/>
<line x1="232.5" y1="177.5" x2="208.0" y2="188.4" stroke="rgb(0,0,0)"  stroke-width="1.0"/>
<line x1="208.0" y1="188.4" x2="181.3" y2="158.7" stroke="rgb(0,0,0)"  stroke-width="1.0"/>
<line x1="209.4" y1="179.1" x2="190.7" y2="158.3" stroke="rgb(0,0,0)"  stroke-width="1.0"/>
<line x1="181.3" y1="158.7" x2="200.7" y2="124.1" stroke="rgb(0,0,0)"  stroke-width="1.0"/>
<line x1="200.7" y1="124.1" x2="240.6" y2="132.6" stroke="rgb(0,0,0)"  stroke-width="1.0"/>
<line x1="205.1" y1="132.4" x2="233.2" y2="138.4" stroke="rgb(0,0,0)"  stroke-width="1.0"/>
<line x1="240.6" y1="132.6" x2="243.2" y2="159.3" stroke="rgb(0,0,0)"  stroke-width="1.0"/>
<line x1="337.6" y1="91.6" x2="329.3" y2="52.1" stroke="rgb(0,0,0)"  stroke-width="1.0"/>
<line x1="329.3" y1="87.2" x2="323.5" y2="59.5" stroke="rgb(0,0,0)"  stroke-width="1.0"/>
<line x1="329.3" y1="52.1" x2="291.5" y2="40.0" stroke="rgb(0,0,0)"  stroke-width="1.0"/>
<line x1="291.5" y1="40.0" x2="261.8" y2="66.7" stroke="rgb(0,0,0)"  stroke-width="1.0"/>
<line x1="291.9" y1="49.4" x2="271.1" y2="68.0" stroke="rgb(0,0,0)"  stroke-width="1.0"/>
<line x1="261.8" y1="66.7" x2="269.9" y2="105.9" stroke="rgb(0,0,0)"  stroke-width="1.0"/>
<line x1="269.9" y1="105.9" x2="308.1" y2="118.2" stroke="rgb(0,0,0)"  stroke-width="1.0"/>
<line x1="277.8" y1="100.9" x2="304.6" y2="109.6" stroke="rgb(0,0,0)"  stroke-width="1.0"/>
<line x1="308.1" y1="118.2" x2="337.6" y2="91.6" stroke="rgb(0,0,0)"  stroke-width="1.0"/>
<text x="91.018958" y="247.556648" fill="rgb(12,12,255)"  stroke="rgb(12,12,255)" stroke-width="1" font-size="16" >N</text>
<text x="143.582401" y="285.773134" fill="rgb(178,178,0)"  stroke="rgb(178,178,0)" stroke-width="1" font-size="16" >S</text>
<text x="380.225623" y="100.058513" fill="rgb(12,12,255)"  stroke="rgb(12,12,255)" stroke-width="1" font-size="16" >+</text>
<text x="369.425623" y="112.090513" fill="rgb(12,12,255)"  stroke="rgb(12,12,255)" stroke-width="1" font-size="16" >N</text>
<text x="238.410151" y="180.228848" fill="rgb(255,12,12)"  stroke="rgb(255,12,12)" stroke-width="1" font-size="16" >O</text>
<text x="22.000000" y="157.179560" fill="rgb(102,102,102)"  stroke="rgb(102,102,102)" stroke-width="1" font-size="16" >HC</text>
<text x="388.719254" y="128.801687" fill="rgb(255,12,12)"  stroke="rgb(255,12,12)" stroke-width="1" font-size="16" >_</text>
<text x="377.919254" y="150.913687" fill="rgb(255,12,12)"  stroke="rgb(255,12,12)" stroke-width="1" font-size="16" >O</text>
<text x="79.894729" y="317.917887" fill="rgb(255,12,12)"  stroke="rgb(255,12,12)" stroke-width="1" font-size="16" >O</text>
<text x="399.755166" y="85.604945" fill="rgb(255,12,12)"  stroke="rgb(255,12,12)" stroke-width="1" font-size="16" >O</text>
<text x="123.163712" y="183.868975" fill="rgb(255,12,12)"  stroke="rgb(255,12,12)" stroke-width="1" font-size="16" >O</text>
<text font-size="18.000000" fill ="black" font-family="sans-serif"
x="10.000000" y="20.000000" ></text>
<title> - OBDepict</title>
</svg>
