<?xml version="1.0"?>
<svg xmlns="http://www.w3.org/2000/svg"
xmlns:xlink="http://www.w3.org/1999/xlink" xmlns:cml="http://www.xml-cml.org/schema" width="344.659" height="208.887" x="0" y="0" font-family="sans-serif" stroke="rgb(0,0,0)" stroke-width="1"  stroke-linecap="round">
<rect x="0%" y="0%" width="100%" height="100%" stroke-width="0" fill="rgb(255,255,255)"  />
<line x1="155.3" y1="86.5" x2="178.7" y2="100.0" stroke="rgb(0,0,0)"  stroke-width="1.0"/>
<line x1="276.4" y1="71.6" x2="248.0" y2="100.0" stroke="rgb(0,0,0)"  stroke-width="1.0"/>
<line x1="202.1" y1="86.5" x2="178.7" y2="100.0" stroke="rgb(0,0,0)"  stroke-width="1.0"/>
<line x1="295.5" y1="52.5" x2="276.4" y2="71.6" stroke="rgb(0,0,0)"  stroke-width="1.0"/>
<line x1="298.4" y1="55.5" x2="279.4" y2="74.5" stroke="rgb(0,0,0)"  stroke-width="1.0"/>
<line x1="292.5" y1="49.6" x2="273.5" y2="68.6" stroke="rgb(0,0,0)"  stroke-width="1.0"/>
<line x1="109.3" y1="100.0" x2="132.7" y2="86.5" stroke="rgb(0,0,0)"  stroke-width="1.0"/>
<line x1="248.0" y1="100.0" x2="224.6" y2="86.5" stroke="rgb(0,0,0)"  stroke-width="1.0"/>
<line x1="175.7" y1="127.0" x2="175.7" y2="100.0" stroke="rgb(0,0,0)"  stroke-width="1.0"/>
<line x1="181.7" y1="127.0" x2="181.7" y2="100.0" stroke="rgb(0,0,0)"  stroke-width="1.0"/>
<line x1="74.7" y1="53.0" x2="74.7" y2="80.0" stroke="rgb(0,0,0)"  stroke-width="1.0"/>
<line x1="225.1" y1="132.7" x2="248.0" y2="100.0" stroke="rgb(0,0,0)"  stroke-width="1.0"/>
<line x1="278.7" y1="125.6" x2="248.0" y2="100.0" stroke="rgb(0,0,0)"  stroke-width="1.0"/>
<line x1="274.0" y1="152.1" x2="278.7" y2="125.6" stroke="rgb(0,0,0)"  stroke-width="1.0"/>
<line x1="236.5" y1="157.1" x2="225.1" y2="132.7" stroke="rgb(0,0,0)"  stroke-width="1.0"/>
<line x1="109.3" y1="100.0" x2="74.7" y2="80.0" stroke="rgb(0,0,0)"  stroke-width="1.0"/>
<line x1="74.7" y1="80.0" x2="40.0" y2="100.0" stroke="rgb(0,0,0)"  stroke-width="1.0"/>
<line x1="73.1" y1="89.2" x2="48.8" y2="103.2" stroke="rgb(0,0,0)"  stroke-width="1.0"/>
<line x1="40.0" y1="100.0" x2="40.0" y2="140.0" stroke="rgb(0,0,0)"  stroke-width="1.0"/>
<line x1="40.0" y1="140.0" x2="74.7" y2="160.0" stroke="rgb(0,0,0)"  stroke-width="1.0"/>
<line x1="48.8" y1="136.8" x2="73.1" y2="150.8" stroke="rgb(0,0,0)"  stroke-width="1.0"/>
<line x1="74.7" y1="160.0" x2="109.3" y2="140.0" stroke="rgb(0,0,0)"  stroke-width="1.0"/>
<line x1="109.3" y1="140.0" x2="109.3" y2="100.0" stroke="rgb(0,0,0)"  stroke-width="1.0"/>
<line x1="102.1" y1="134.0" x2="102.1" y2="106.0" stroke="rgb(0,0,0)"  stroke-width="1.0"/>
<text x="137.995852" y="87.998405" fill="rgb(12,12,255)"  stroke="rgb(12,12,255)" stroke-width="1" font-size="16" >N</text>
<text x="137.995852" y="71.998405" fill="rgb(12,12,255)"  stroke="rgb(12,12,255)" stroke-width="1" font-size="16" >H</text>
<text x="207.326421" y="87.998405" fill="rgb(12,12,255)"  stroke="rgb(12,12,255)" stroke-width="1" font-size="16" >N</text>
<text x="207.326421" y="71.998405" fill="rgb(12,12,255)"  stroke="rgb(12,12,255)" stroke-width="1" font-size="16" >H</text>
<text x="298.658536" y="51.335625" fill="rgb(102,102,102)"  stroke="rgb(102,102,102)" stroke-width="1" font-size="16" >CH</text>
<text x="172.661137" y="147.996012" fill="rgb(255,12,12)"  stroke="rgb(255,12,12)" stroke-width="1" font-size="16" >O</text>
<text x="68.665284" y="48.000000" fill="rgb(30,239,30)"  stroke="rgb(30,239,30)" stroke-width="1" font-size="16" >Cl</text>
<text x="245.767726" y="172.887140" fill="rgb(102,102,102)"  stroke="rgb(102,102,102)" stroke-width="1" font-size="16" >H</text>
<text x="257.767726" y="176.567140" fill="rgb(102,102,102)"  stroke="rgb(102,102,102)" stroke-width="1" font-size="13" >3</text>
<text x="264.267726" y="172.887140" fill="rgb(102,102,102)"  stroke="rgb(102,102,102)" stroke-width="1" font-size="16" >C</text>
<text x="237.994368" y="176.886981" fill="rgb(102,102,102)"  stroke="rgb(102,102,102)" stroke-width="1" font-size="16" >CH</text>
<text x="261.994368" y="180.566981" fill="rgb(102,102,102)"  stroke="rgb(102,102,102)" stroke-width="1" font-size="13" >3</text>
<text font-size="18.000000" fill ="black" font-family="sans-serif"
x="10.000000" y="20.000000" ></text>
<title> - OBDepict</title>
</svg>
