<?xml version="1.0"?>
<svg xmlns="http://www.w3.org/2000/svg"
xmlns:xlink="http://www.w3.org/1999/xlink" xmlns:cml="http://www.xml-cml.org/schema" width="383.702" height="212.814" x="0" y="0" font-family="sans-serif" stroke="rgb(0,0,0)" stroke-width="1"  stroke-linecap="round">
<rect x="0%" y="0%" width="100%" height="100%" stroke-width="0" fill="rgb(255,255,255)"  />
<line x1="178.3" y1="112.8" x2="201.3" y2="99.4" stroke="rgb(0,0,0)"  stroke-width="1.0"/>
<line x1="223.9" y1="99.3" x2="247.1" y2="112.5" stroke="rgb(0,0,0)"  stroke-width="1.0"/>
<line x1="247.1" y1="112.5" x2="281.8" y2="92.5" stroke="rgb(0,0,0)"  stroke-width="1.0"/>
<line x1="250.1" y1="112.5" x2="250.1" y2="139.6" stroke="rgb(0,0,0)"  stroke-width="1.0"/>
<line x1="244.1" y1="112.5" x2="244.1" y2="139.6" stroke="rgb(0,0,0)"  stroke-width="1.0"/>
<line x1="108.6" y1="113.2" x2="74.0" y2="93.4" stroke="rgb(0,0,0)"  stroke-width="1.0"/>
<line x1="74.0" y1="93.4" x2="51.3" y2="80.4" stroke="rgb(0,0,0)"  stroke-width="1.0"/>
<line x1="72.0" y1="97.1" x2="49.2" y2="84.0" stroke="rgb(0,0,0)"  stroke-width="1.0"/>
<line x1="76.1" y1="89.8" x2="53.4" y2="76.7" stroke="rgb(0,0,0)"  stroke-width="1.0"/>
<line x1="281.8" y1="92.5" x2="281.8" y2="52.5" stroke="rgb(0,0,0)"  stroke-width="1.0"/>
<line x1="289.0" y1="86.5" x2="289.0" y2="58.5" stroke="rgb(0,0,0)"  stroke-width="1.0"/>
<line x1="281.8" y1="52.5" x2="320.3" y2="40.0" stroke="rgb(0,0,0)"  stroke-width="1.0"/>
<line x1="320.3" y1="40.0" x2="343.7" y2="72.4" stroke="rgb(0,0,0)"  stroke-width="1.0"/>
<line x1="317.9" y1="49.1" x2="334.4" y2="71.7" stroke="rgb(0,0,0)"  stroke-width="1.0"/>
<line x1="343.7" y1="72.4" x2="327.8" y2="94.4" stroke="rgb(0,0,0)"  stroke-width="1.0"/>
<line x1="307.9" y1="101.0" x2="281.8" y2="92.5" stroke="rgb(0,0,0)"  stroke-width="1.0"/>
<line x1="178.3" y1="112.8" x2="178.3" y2="152.6" stroke="rgb(0,0,0)"  stroke-width="1.0"/>
<line x1="178.3" y1="152.6" x2="143.8" y2="172.8" stroke="rgb(0,0,0)"  stroke-width="1.0"/>
<line x1="169.5" y1="149.4" x2="145.3" y2="163.6" stroke="rgb(0,0,0)"  stroke-width="1.0"/>
<line x1="143.8" y1="172.8" x2="108.6" y2="153.3" stroke="rgb(0,0,0)"  stroke-width="1.0"/>
<line x1="108.6" y1="153.3" x2="108.6" y2="113.2" stroke="rgb(0,0,0)"  stroke-width="1.0"/>
<line x1="115.8" y1="147.3" x2="115.8" y2="119.2" stroke="rgb(0,0,0)"  stroke-width="1.0"/>
<line x1="108.6" y1="113.2" x2="143.5" y2="93.1" stroke="rgb(0,0,0)"  stroke-width="1.0"/>
<line x1="143.5" y1="93.1" x2="178.3" y2="112.8" stroke="rgb(0,0,0)"  stroke-width="1.0"/>
<line x1="145.2" y1="102.3" x2="169.5" y2="116.1" stroke="rgb(0,0,0)"  stroke-width="1.0"/>
<text x="206.556188" y="100.839453" fill="rgb(12,12,255)"  stroke="rgb(12,12,255)" stroke-width="1" font-size="16" >N</text>
<text x="206.556188" y="84.839453" fill="rgb(12,12,255)"  stroke="rgb(12,12,255)" stroke-width="1" font-size="16" >H</text>
<text x="241.071305" y="160.583869" fill="rgb(255,12,12)"  stroke="rgb(255,12,12)" stroke-width="1" font-size="16" >O</text>
<text x="314.257124" y="112.981326" fill="rgb(178,178,0)"  stroke="rgb(178,178,0)" stroke-width="1" font-size="16" >S</text>
<text x="22.000000" y="81.918691" fill="rgb(102,102,102)"  stroke="rgb(102,102,102)" stroke-width="1" font-size="16" >HC</text>
<text font-size="18.000000" fill ="black" font-family="sans-serif"
x="10.000000" y="20.000000" ></text>
<title> - OBDepict</title>
</svg>
