<?xml version="1.0"?>
<svg xmlns="http://www.w3.org/2000/svg"
xmlns:xlink="http://www.w3.org/1999/xlink" xmlns:cml="http://www.xml-cml.org/schema" width="354.847" height="399.921" x="0" y="0" font-family="sans-serif" stroke="rgb(0,0,0)" stroke-width="1"  stroke-linecap="round">
<rect x="0%" y="0%" width="100%" height="100%" stroke-width="0" fill="rgb(255,255,255)"  />
<line x1="40.0" y1="79.8" x2="40.0" y2="119.8" stroke="rgb(0,0,0)"  stroke-width="1.0"/>
<line x1="40.0" y1="53.0" x2="40.0" y2="79.8" stroke="rgb(0,0,0)"  stroke-width="1.0"/>
<line x1="44.2" y1="53.0" x2="44.2" y2="79.8" stroke="rgb(0,0,0)"  stroke-width="1.0"/>
<line x1="35.8" y1="53.0" x2="35.8" y2="79.8" stroke="rgb(0,0,0)"  stroke-width="1.0"/>
<line x1="120.6" y1="246.4" x2="143.9" y2="259.9" stroke="rgb(0,0,0)"  stroke-width="1.0"/>
<line x1="74.6" y1="179.9" x2="109.3" y2="199.9" stroke="rgb(0,0,0)"  stroke-width="1.0"/>
<line x1="178.6" y1="346.9" x2="178.6" y2="319.9" stroke="rgb(0,0,0)"  stroke-width="1.0"/>
<line x1="49.7" y1="190.8" x2="73.1" y2="177.3" stroke="rgb(0,0,0)"  stroke-width="1.0"/>
<line x1="52.8" y1="195.9" x2="76.1" y2="182.5" stroke="rgb(0,0,0)"  stroke-width="1.0"/>
<line x1="109.3" y1="199.9" x2="109.3" y2="226.9" stroke="rgb(0,0,0)"  stroke-width="1.0"/>
<line x1="74.6" y1="152.8" x2="74.6" y2="179.9" stroke="rgb(0,0,0)"  stroke-width="1.0"/>
<line x1="259.7" y1="337.9" x2="251.4" y2="312.2" stroke="rgb(0,0,0)"  stroke-width="1.0"/>
<line x1="301.8" y1="279.9" x2="274.8" y2="279.9" stroke="rgb(0,0,0)"  stroke-width="1.0"/>
<line x1="40.0" y1="119.8" x2="63.3" y2="133.3" stroke="rgb(0,0,0)"  stroke-width="1.0"/>
<line x1="274.8" y1="279.9" x2="251.4" y2="312.2" stroke="rgb(0,0,0)"  stroke-width="1.0"/>
<line x1="265.5" y1="280.5" x2="249.1" y2="303.1" stroke="rgb(0,0,0)"  stroke-width="1.0"/>
<line x1="251.4" y1="312.2" x2="213.2" y2="299.9" stroke="rgb(0,0,0)"  stroke-width="1.0"/>
<line x1="213.2" y1="299.9" x2="213.2" y2="259.9" stroke="rgb(0,0,0)"  stroke-width="1.0"/>
<line x1="220.4" y1="293.9" x2="220.4" y2="265.9" stroke="rgb(0,0,0)"  stroke-width="1.0"/>
<line x1="213.2" y1="259.9" x2="239.0" y2="251.5" stroke="rgb(0,0,0)"  stroke-width="1.0"/>
<line x1="259.0" y1="258.1" x2="274.8" y2="279.9" stroke="rgb(0,0,0)"  stroke-width="1.0"/>
<line x1="213.2" y1="299.9" x2="178.6" y2="319.9" stroke="rgb(0,0,0)"  stroke-width="1.0"/>
<line x1="178.6" y1="319.9" x2="155.3" y2="306.5" stroke="rgb(0,0,0)"  stroke-width="1.0"/>
<line x1="177.0" y1="310.7" x2="160.7" y2="301.3" stroke="rgb(0,0,0)"  stroke-width="1.0"/>
<line x1="143.9" y1="286.9" x2="143.9" y2="259.9" stroke="rgb(0,0,0)"  stroke-width="1.0"/>
<line x1="143.9" y1="259.9" x2="167.2" y2="246.5" stroke="rgb(0,0,0)"  stroke-width="1.0"/>
<line x1="152.7" y1="263.1" x2="169.0" y2="253.7" stroke="rgb(0,0,0)"  stroke-width="1.0"/>
<line x1="189.9" y1="246.4" x2="213.2" y2="259.9" stroke="rgb(0,0,0)"  stroke-width="1.0"/>
<text x="172.636319" y="247.876292" fill="rgb(12,12,255)"  stroke="rgb(12,12,255)" stroke-width="1" font-size="16" >N</text>
<text x="137.874170" y="307.898838" fill="rgb(12,12,255)"  stroke="rgb(12,12,255)" stroke-width="1" font-size="16" >N</text>
<text x="245.390920" y="255.554328" fill="rgb(178,178,0)"  stroke="rgb(178,178,0)" stroke-width="1" font-size="16" >S</text>
<text x="34.000000" y="48.000000" fill="rgb(102,102,102)"  stroke="rgb(102,102,102)" stroke-width="1" font-size="16" >CH</text>
<text x="103.315734" y="247.876292" fill="rgb(178,178,0)"  stroke="rgb(178,178,0)" stroke-width="1" font-size="16" >S</text>
<text x="174.636319" y="367.921385" fill="rgb(12,12,255)"  stroke="rgb(12,12,255)" stroke-width="1" font-size="16" >NH</text>
<text x="198.636319" y="371.601385" fill="rgb(12,12,255)"  stroke="rgb(12,12,255)" stroke-width="1" font-size="13" >2</text>
<text x="34.000000" y="207.861261" fill="rgb(255,12,12)"  stroke="rgb(255,12,12)" stroke-width="1" font-size="16" >O</text>
<text x="68.558436" y="147.838715" fill="rgb(12,12,255)"  stroke="rgb(12,12,255)" stroke-width="1" font-size="16" >NH</text>
<text x="259.720400" y="358.220771" fill="rgb(102,102,102)"  stroke="rgb(102,102,102)" stroke-width="1" font-size="16" >CH</text>
<text x="283.720400" y="361.900771" fill="rgb(102,102,102)"  stroke="rgb(102,102,102)" stroke-width="1" font-size="13" >3</text>
<text x="310.847484" y="287.891323" fill="rgb(102,102,102)"  stroke="rgb(102,102,102)" stroke-width="1" font-size="16" >CH</text>
<text x="334.847484" y="291.571323" fill="rgb(102,102,102)"  stroke="rgb(102,102,102)" stroke-width="1" font-size="13" >3</text>
<text font-size="18.000000" fill ="black" font-family="sans-serif"
x="10.000000" y="20.000000" ></text>
<title> - OBDepict</title>
</svg>
