<?xml version="1.0"?>
<svg xmlns="http://www.w3.org/2000/svg"
xmlns:xlink="http://www.w3.org/1999/xlink" xmlns:cml="http://www.xml-cml.org/schema" width="245.515" height="467.043" x="0" y="0" font-family="sans-serif" stroke="rgb(0,0,0)" stroke-width="1"  stroke-linecap="round">
<rect x="0%" y="0%" width="100%" height="100%" stroke-width="0" fill="rgb(255,255,255)"  />
<line x1="53.9" y1="255.3" x2="66.4" y2="293.4" stroke="rgb(0,0,0)"  stroke-width="1.0"/>
<line x1="48.1" y1="257.1" x2="60.7" y2="295.3" stroke="rgb(0,0,0)"  stroke-width="1.0"/>
<line x1="171.5" y1="70.2" x2="145.3" y2="99.8" stroke="rgb(0,0,0)"  stroke-width="1.0"/>
<line x1="136.2" y1="367.0" x2="112.6" y2="353.5" stroke="rgb(0,0,0)"  stroke-width="1.0"/>
<line x1="189.6" y1="49.7" x2="171.5" y2="70.2" stroke="rgb(0,0,0)"  stroke-width="1.0"/>
<line x1="192.7" y1="52.5" x2="174.7" y2="73.0" stroke="rgb(0,0,0)"  stroke-width="1.0"/>
<line x1="186.4" y1="47.0" x2="168.4" y2="67.4" stroke="rgb(0,0,0)"  stroke-width="1.0"/>
<line x1="52.2" y1="384.1" x2="60.7" y2="358.3" stroke="rgb(0,0,0)"  stroke-width="1.0"/>
<line x1="57.9" y1="385.9" x2="66.4" y2="360.1" stroke="rgb(0,0,0)"  stroke-width="1.0"/>
<line x1="125.2" y1="292.9" x2="103.1" y2="309.0" stroke="rgb(0,0,0)"  stroke-width="1.0"/>
<line x1="121.7" y1="288.1" x2="99.6" y2="304.1" stroke="rgb(0,0,0)"  stroke-width="1.0"/>
<line x1="78.0" y1="226.9" x2="51.0" y2="256.2" stroke="rgb(0,0,0)"  stroke-width="1.0"/>
<line x1="84.4" y1="133.4" x2="92.5" y2="159.2" stroke="rgb(0,0,0)"  stroke-width="1.0"/>
<line x1="149.4" y1="147.1" x2="131.3" y2="167.7" stroke="rgb(0,0,0)"  stroke-width="1.0"/>
<line x1="145.3" y1="99.8" x2="153.9" y2="125.0" stroke="rgb(0,0,0)"  stroke-width="1.0"/>
<line x1="98.5" y1="101.4" x2="89.3" y2="111.4" stroke="rgb(0,0,0)"  stroke-width="1.0"/>
<line x1="101.3" y1="334.0" x2="101.3" y2="306.5" stroke="rgb(0,0,0)"  stroke-width="1.0"/>
<line x1="101.3" y1="306.5" x2="63.5" y2="294.4" stroke="rgb(0,0,0)"  stroke-width="1.0"/>
<line x1="63.5" y1="294.4" x2="47.6" y2="316.3" stroke="rgb(0,0,0)"  stroke-width="1.0"/>
<line x1="47.6" y1="337.4" x2="63.5" y2="359.2" stroke="rgb(0,0,0)"  stroke-width="1.0"/>
<line x1="63.5" y1="359.2" x2="89.0" y2="351.0" stroke="rgb(0,0,0)"  stroke-width="1.0"/>
<line x1="92.5" y1="159.2" x2="131.3" y2="167.7" stroke="rgb(0,0,0)"  stroke-width="1.0"/>
<line x1="131.3" y1="167.7" x2="143.7" y2="205.7" stroke="rgb(0,0,0)"  stroke-width="1.0"/>
<line x1="126.3" y1="175.6" x2="135.0" y2="202.2" stroke="rgb(0,0,0)"  stroke-width="1.0"/>
<line x1="143.7" y1="205.7" x2="116.8" y2="235.4" stroke="rgb(0,0,0)"  stroke-width="1.0"/>
<line x1="116.8" y1="235.4" x2="78.0" y2="226.9" stroke="rgb(0,0,0)"  stroke-width="1.0"/>
<line x1="112.5" y1="227.0" x2="85.4" y2="221.1" stroke="rgb(0,0,0)"  stroke-width="1.0"/>
<line x1="78.0" y1="226.9" x2="65.5" y2="188.7" stroke="rgb(0,0,0)"  stroke-width="1.0"/>
<line x1="65.5" y1="188.7" x2="92.5" y2="159.2" stroke="rgb(0,0,0)"  stroke-width="1.0"/>
<line x1="74.9" y1="189.1" x2="93.8" y2="168.5" stroke="rgb(0,0,0)"  stroke-width="1.0"/>
<line x1="136.2" y1="367.0" x2="136.2" y2="407.0" stroke="rgb(0,0,0)"  stroke-width="1.0"/>
<line x1="143.4" y1="373.0" x2="143.4" y2="401.0" stroke="rgb(0,0,0)"  stroke-width="1.0"/>
<line x1="136.2" y1="407.0" x2="170.7" y2="427.0" stroke="rgb(0,0,0)"  stroke-width="1.0"/>
<line x1="170.7" y1="427.0" x2="205.5" y2="407.0" stroke="rgb(0,0,0)"  stroke-width="1.0"/>
<line x1="172.3" y1="417.8" x2="196.7" y2="403.8" stroke="rgb(0,0,0)"  stroke-width="1.0"/>
<line x1="205.5" y1="407.0" x2="205.5" y2="367.0" stroke="rgb(0,0,0)"  stroke-width="1.0"/>
<line x1="205.5" y1="367.0" x2="170.7" y2="347.0" stroke="rgb(0,0,0)"  stroke-width="1.0"/>
<line x1="196.7" y1="370.3" x2="172.3" y2="356.3" stroke="rgb(0,0,0)"  stroke-width="1.0"/>
<line x1="170.7" y1="347.0" x2="136.2" y2="367.0" stroke="rgb(0,0,0)"  stroke-width="1.0"/>
<text x="95.339826" y="355.033632" fill="rgb(12,12,255)"  stroke="rgb(12,12,255)" stroke-width="1" font-size="16" >N</text>
<text x="22.000000" y="334.861735" fill="rgb(12,12,255)"  stroke="rgb(12,12,255)" stroke-width="1" font-size="16" >HN</text>
<text x="192.180446" y="48.000000" fill="rgb(102,102,102)"  stroke="rgb(102,102,102)" stroke-width="1" font-size="16" >CH</text>
<text x="44.999768" y="405.368842" fill="rgb(255,12,12)"  stroke="rgb(255,12,12)" stroke-width="1" font-size="16" >O</text>
<text x="128.009477" y="290.857815" fill="rgb(255,12,12)"  stroke="rgb(255,12,12)" stroke-width="1" font-size="16" >O</text>
<text x="74.503774" y="129.007547" fill="rgb(255,12,12)"  stroke="rgb(255,12,12)" stroke-width="1" font-size="16" >O</text>
<text x="152.011174" y="145.344796" fill="rgb(255,12,12)"  stroke="rgb(255,12,12)" stroke-width="1" font-size="16" >O</text>
<text x="103.336615" y="99.838043" fill="rgb(102,102,102)"  stroke="rgb(102,102,102)" stroke-width="1" font-size="16" >CH</text>
<text x="127.336615" y="103.518043" fill="rgb(102,102,102)"  stroke="rgb(102,102,102)" stroke-width="1" font-size="13" >3</text>
<text font-size="18.000000" fill ="black" font-family="sans-serif"
x="10.000000" y="20.000000" ></text>
<title> - OBDepict</title>
</svg>
