<?xml version="1.0"?>
<svg xmlns="http://www.w3.org/2000/svg"
xmlns:xlink="http://www.w3.org/1999/xlink" xmlns:cml="http://www.xml-cml.org/schema" width="481.8" height="446.081" x="0" y="0" font-family="sans-serif" stroke="rgb(0,0,0)" stroke-width="1"  stroke-linecap="round">
<rect x="0%" y="0%" width="100%" height="100%" stroke-width="0" fill="rgb(255,255,255)"  />
<line x1="326.2" y1="126.7" x2="302.6" y2="140.5" stroke="rgb(0,0,0)"  stroke-width="1.0"/>
<line x1="189.1" y1="248.7" x2="164.8" y2="262.8" stroke="rgb(0,0,0)"  stroke-width="1.0"/>
<line x1="186.1" y1="243.5" x2="161.8" y2="257.6" stroke="rgb(0,0,0)"  stroke-width="1.0"/>
<line x1="360.9" y1="106.9" x2="348.8" y2="113.7" stroke="rgb(0,0,0)"  stroke-width="1.0"/>
<line x1="198.4" y1="200.0" x2="198.7" y2="226.6" stroke="rgb(0,0,0)"  stroke-width="1.0"/>
<line x1="179.0" y1="366.7" x2="188.1" y2="327.8" stroke="rgb(0,0,0)"  stroke-width="1.0"/>
<line x1="348.4" y1="145.2" x2="341.3" y2="132.9" stroke="rgb(0,0,0)"  stroke-width="1.0"/>
<line x1="353.6" y1="142.3" x2="346.5" y2="129.9" stroke="rgb(0,0,0)"  stroke-width="1.0"/>
<line x1="326.6" y1="95.2" x2="333.6" y2="107.4" stroke="rgb(0,0,0)"  stroke-width="1.0"/>
<line x1="321.4" y1="98.2" x2="328.4" y2="110.3" stroke="rgb(0,0,0)"  stroke-width="1.0"/>
<line x1="172.9" y1="393.4" x2="179.0" y2="366.7" stroke="rgb(0,0,0)"  stroke-width="1.0"/>
<line x1="168.8" y1="392.5" x2="175.0" y2="365.8" stroke="rgb(0,0,0)"  stroke-width="1.0"/>
<line x1="177.0" y1="394.4" x2="183.1" y2="367.7" stroke="rgb(0,0,0)"  stroke-width="1.0"/>
<line x1="232.9" y1="180.1" x2="198.4" y2="200.0" stroke="rgb(0,0,0)"  stroke-width="1.0"/>
<line x1="176.7" y1="184.0" x2="199.9" y2="197.4" stroke="rgb(0,0,0)"  stroke-width="1.0"/>
<line x1="173.7" y1="189.2" x2="196.9" y2="202.6" stroke="rgb(0,0,0)"  stroke-width="1.0"/>
<line x1="188.1" y1="327.8" x2="168.3" y2="309.1" stroke="rgb(0,0,0)"  stroke-width="1.0"/>
<line x1="111.8" y1="365.3" x2="98.9" y2="341.3" stroke="rgb(0,0,0)"  stroke-width="1.0"/>
<line x1="163.3" y1="260.2" x2="140.0" y2="249.2" stroke="rgb(0,0,0)"  stroke-width="1.0"/>
<line x1="119.1" y1="252.9" x2="100.3" y2="272.3" stroke="rgb(0,0,0)"  stroke-width="1.0"/>
<line x1="100.3" y1="272.3" x2="119.7" y2="307.4" stroke="rgb(0,0,0)"  stroke-width="1.0"/>
<line x1="109.5" y1="274.1" x2="123.1" y2="298.7" stroke="rgb(0,0,0)"  stroke-width="1.0"/>
<line x1="119.7" y1="307.4" x2="146.1" y2="302.5" stroke="rgb(0,0,0)"  stroke-width="1.0"/>
<line x1="160.3" y1="287.2" x2="163.3" y2="260.2" stroke="rgb(0,0,0)"  stroke-width="1.0"/>
<line x1="232.9" y1="180.1" x2="267.8" y2="199.6" stroke="rgb(0,0,0)"  stroke-width="1.0"/>
<line x1="241.7" y1="176.7" x2="266.1" y2="190.4" stroke="rgb(0,0,0)"  stroke-width="1.0"/>
<line x1="267.8" y1="199.6" x2="302.4" y2="180.5" stroke="rgb(0,0,0)"  stroke-width="1.0"/>
<line x1="302.4" y1="180.5" x2="302.6" y2="140.5" stroke="rgb(0,0,0)"  stroke-width="1.0"/>
<line x1="295.2" y1="174.4" x2="295.3" y2="146.5" stroke="rgb(0,0,0)"  stroke-width="1.0"/>
<line x1="302.6" y1="140.5" x2="267.8" y2="120.1" stroke="rgb(0,0,0)"  stroke-width="1.0"/>
<line x1="267.8" y1="120.1" x2="232.9" y2="140.5" stroke="rgb(0,0,0)"  stroke-width="1.0"/>
<line x1="266.3" y1="129.4" x2="241.7" y2="143.7" stroke="rgb(0,0,0)"  stroke-width="1.0"/>
<line x1="232.9" y1="140.5" x2="232.9" y2="180.1" stroke="rgb(0,0,0)"  stroke-width="1.0"/>
<line x1="372.2" y1="87.5" x2="372.2" y2="60.0" stroke="rgb(0,0,0)"  stroke-width="1.0"/>
<line x1="372.2" y1="60.0" x2="407.1" y2="40.0" stroke="rgb(0,0,0)"  stroke-width="1.0"/>
<line x1="407.1" y1="40.0" x2="430.5" y2="53.5" stroke="rgb(0,0,0)"  stroke-width="1.0"/>
<line x1="441.7" y1="73.0" x2="441.6" y2="99.9" stroke="rgb(0,0,0)"  stroke-width="1.0"/>
<line x1="441.6" y1="99.9" x2="406.7" y2="119.9" stroke="rgb(0,0,0)"  stroke-width="1.0"/>
<line x1="406.7" y1="119.9" x2="383.5" y2="106.9" stroke="rgb(0,0,0)"  stroke-width="1.0"/>
<line x1="98.9" y1="341.3" x2="60.0" y2="340.7" stroke="rgb(0,0,0)"  stroke-width="1.0"/>
<line x1="93.0" y1="334.0" x2="66.1" y2="333.6" stroke="rgb(0,0,0)"  stroke-width="1.0"/>
<line x1="60.0" y1="340.7" x2="40.0" y2="305.4" stroke="rgb(0,0,0)"  stroke-width="1.0"/>
<line x1="40.0" y1="305.4" x2="60.8" y2="271.1" stroke="rgb(0,0,0)"  stroke-width="1.0"/>
<line x1="49.3" y1="304.0" x2="63.8" y2="279.9" stroke="rgb(0,0,0)"  stroke-width="1.0"/>
<line x1="60.8" y1="271.1" x2="100.3" y2="272.3" stroke="rgb(0,0,0)"  stroke-width="1.0"/>
<line x1="119.7" y1="307.4" x2="98.9" y2="341.3" stroke="rgb(0,0,0)"  stroke-width="1.0"/>
<text x="331.462388" y="128.120186" fill="rgb(178,178,0)"  stroke="rgb(178,178,0)" stroke-width="1" font-size="16" >S</text>
<text x="192.823260" y="247.589483" fill="rgb(12,12,255)"  stroke="rgb(12,12,255)" stroke-width="1" font-size="16" >N</text>
<text x="152.862656" y="308.132176" fill="rgb(12,12,255)"  stroke="rgb(12,12,255)" stroke-width="1" font-size="16" >N</text>
<text x="122.190927" y="251.622427" fill="rgb(178,178,0)"  stroke="rgb(178,178,0)" stroke-width="1" font-size="16" >S</text>
<text x="366.176767" y="108.542693" fill="rgb(12,12,255)"  stroke="rgb(12,12,255)" stroke-width="1" font-size="16" >N</text>
<text x="351.442690" y="163.028690" fill="rgb(255,12,12)"  stroke="rgb(255,12,12)" stroke-width="1" font-size="16" >O</text>
<text x="311.482086" y="93.405807" fill="rgb(255,12,12)"  stroke="rgb(255,12,12)" stroke-width="1" font-size="16" >O</text>
<text x="151.966599" y="414.080675" fill="rgb(102,102,102)"  stroke="rgb(102,102,102)" stroke-width="1" font-size="16" >HC</text>
<text x="157.909903" y="188.056239" fill="rgb(255,12,12)"  stroke="rgb(255,12,12)" stroke-width="1" font-size="16" >O</text>
<text x="435.799651" y="67.980302" fill="rgb(255,12,12)"  stroke="rgb(255,12,12)" stroke-width="1" font-size="16" >O</text>
<text x="113.897456" y="384.816351" fill="rgb(102,102,102)"  stroke="rgb(102,102,102)" stroke-width="1" font-size="16" >CH</text>
<text x="137.897456" y="388.496351" fill="rgb(102,102,102)"  stroke="rgb(102,102,102)" stroke-width="1" font-size="13" >3</text>
<text font-size="18.000000" fill ="black" font-family="sans-serif"
x="10.000000" y="20.000000" ></text>
<title> - OBDepict</title>
</svg>
