<?xml version="1.0"?>
<svg xmlns="http://www.w3.org/2000/svg"
xmlns:xlink="http://www.w3.org/1999/xlink" xmlns:cml="http://www.xml-cml.org/schema" width="322.541" height="399.951" x="0" y="0" font-family="sans-serif" stroke="rgb(0,0,0)" stroke-width="1"  stroke-linecap="round">
<rect x="0%" y="0%" width="100%" height="100%" stroke-width="0" fill="rgb(255,255,255)"  />
<line x1="202.0" y1="246.4" x2="178.7" y2="259.9" stroke="rgb(0,0,0)"  stroke-width="1.0"/>
<line x1="282.5" y1="79.8" x2="282.5" y2="119.8" stroke="rgb(0,0,0)"  stroke-width="1.0"/>
<line x1="282.5" y1="53.0" x2="282.5" y2="79.8" stroke="rgb(0,0,0)"  stroke-width="1.0"/>
<line x1="286.7" y1="53.0" x2="286.7" y2="79.8" stroke="rgb(0,0,0)"  stroke-width="1.0"/>
<line x1="278.3" y1="53.0" x2="278.3" y2="79.8" stroke="rgb(0,0,0)"  stroke-width="1.0"/>
<line x1="140.9" y1="347.0" x2="140.9" y2="319.9" stroke="rgb(0,0,0)"  stroke-width="1.0"/>
<line x1="146.9" y1="347.0" x2="146.9" y2="319.9" stroke="rgb(0,0,0)"  stroke-width="1.0"/>
<line x1="248.0" y1="179.9" x2="213.2" y2="199.9" stroke="rgb(0,0,0)"  stroke-width="1.0"/>
<line x1="269.8" y1="196.0" x2="246.5" y2="182.5" stroke="rgb(0,0,0)"  stroke-width="1.0"/>
<line x1="272.8" y1="190.8" x2="249.5" y2="177.3" stroke="rgb(0,0,0)"  stroke-width="1.0"/>
<line x1="213.2" y1="199.9" x2="213.2" y2="226.9" stroke="rgb(0,0,0)"  stroke-width="1.0"/>
<line x1="202.0" y1="313.4" x2="189.9" y2="306.4" stroke="rgb(0,0,0)"  stroke-width="1.0"/>
<line x1="248.0" y1="152.8" x2="248.0" y2="179.9" stroke="rgb(0,0,0)"  stroke-width="1.0"/>
<line x1="282.5" y1="119.8" x2="259.2" y2="133.3" stroke="rgb(0,0,0)"  stroke-width="1.0"/>
<line x1="178.7" y1="286.9" x2="178.7" y2="259.9" stroke="rgb(0,0,0)"  stroke-width="1.0"/>
<line x1="178.7" y1="259.9" x2="155.4" y2="246.5" stroke="rgb(0,0,0)"  stroke-width="1.0"/>
<line x1="169.9" y1="263.1" x2="153.5" y2="253.7" stroke="rgb(0,0,0)"  stroke-width="1.0"/>
<line x1="132.6" y1="246.4" x2="109.3" y2="259.9" stroke="rgb(0,0,0)"  stroke-width="1.0"/>
<line x1="109.3" y1="259.9" x2="109.3" y2="299.9" stroke="rgb(0,0,0)"  stroke-width="1.0"/>
<line x1="116.5" y1="265.9" x2="116.5" y2="293.9" stroke="rgb(0,0,0)"  stroke-width="1.0"/>
<line x1="109.3" y1="299.9" x2="143.9" y2="319.9" stroke="rgb(0,0,0)"  stroke-width="1.0"/>
<line x1="143.9" y1="319.9" x2="167.4" y2="306.4" stroke="rgb(0,0,0)"  stroke-width="1.0"/>
<line x1="74.6" y1="319.9" x2="40.0" y2="299.9" stroke="rgb(0,0,0)"  stroke-width="1.0"/>
<line x1="73.0" y1="310.7" x2="48.8" y2="296.7" stroke="rgb(0,0,0)"  stroke-width="1.0"/>
<line x1="40.0" y1="299.9" x2="40.0" y2="259.9" stroke="rgb(0,0,0)"  stroke-width="1.0"/>
<line x1="40.0" y1="259.9" x2="74.6" y2="239.9" stroke="rgb(0,0,0)"  stroke-width="1.0"/>
<line x1="48.8" y1="263.1" x2="73.0" y2="249.1" stroke="rgb(0,0,0)"  stroke-width="1.0"/>
<line x1="74.6" y1="239.9" x2="109.3" y2="259.9" stroke="rgb(0,0,0)"  stroke-width="1.0"/>
<line x1="109.3" y1="299.9" x2="74.6" y2="319.9" stroke="rgb(0,0,0)"  stroke-width="1.0"/>
<text x="172.651211" y="307.921907" fill="rgb(12,12,255)"  stroke="rgb(12,12,255)" stroke-width="1" font-size="16" >N</text>
<text x="137.890179" y="247.892913" fill="rgb(12,12,255)"  stroke="rgb(12,12,255)" stroke-width="1" font-size="16" >N</text>
<text x="207.213360" y="247.892913" fill="rgb(178,178,0)"  stroke="rgb(178,178,0)" stroke-width="1" font-size="16" >S</text>
<text x="276.541391" y="48.000000" fill="rgb(102,102,102)"  stroke="rgb(102,102,102)" stroke-width="1" font-size="16" >CH</text>
<text x="137.890179" y="367.950901" fill="rgb(255,12,12)"  stroke="rgb(255,12,12)" stroke-width="1" font-size="16" >O</text>
<text x="276.541391" y="207.873583" fill="rgb(255,12,12)"  stroke="rgb(255,12,12)" stroke-width="1" font-size="16" >O</text>
<text x="209.213360" y="327.931571" fill="rgb(102,102,102)"  stroke="rgb(102,102,102)" stroke-width="1" font-size="16" >CH</text>
<text x="233.213360" y="331.611571" fill="rgb(102,102,102)"  stroke="rgb(102,102,102)" stroke-width="1" font-size="13" >3</text>
<text x="229.979242" y="147.844589" fill="rgb(12,12,255)"  stroke="rgb(12,12,255)" stroke-width="1" font-size="16" >HN</text>
<text font-size="18.000000" fill ="black" font-family="sans-serif"
x="10.000000" y="20.000000" ></text>
<title> - OBDepict</title>
</svg>
