<?xml version="1.0"?>
<svg xmlns="http://www.w3.org/2000/svg"
xmlns:xlink="http://www.w3.org/1999/xlink" xmlns:cml="http://www.xml-cml.org/schema" width="357.621" height="319.502" x="0" y="0" font-family="sans-serif" stroke="rgb(0,0,0)" stroke-width="1"  stroke-linecap="round">
<rect x="0%" y="0%" width="100%" height="100%" stroke-width="0" fill="rgb(255,255,255)"  />
<line x1="181.6" y1="199.2" x2="181.6" y2="227.7" stroke="rgb(0,0,0)"  stroke-width="1.0"/>
<line x1="175.6" y1="199.2" x2="175.6" y2="227.7" stroke="rgb(0,0,0)"  stroke-width="1.0"/>
<line x1="225.8" y1="186.6" x2="248.6" y2="199.5" stroke="rgb(0,0,0)"  stroke-width="1.0"/>
<line x1="214.5" y1="139.9" x2="238.3" y2="126.1" stroke="rgb(0,0,0)"  stroke-width="1.0"/>
<line x1="249.5" y1="106.6" x2="249.5" y2="79.3" stroke="rgb(0,0,0)"  stroke-width="1.0"/>
<line x1="249.5" y1="79.3" x2="214.5" y2="59.4" stroke="rgb(0,0,0)"  stroke-width="1.0"/>
<line x1="214.5" y1="59.4" x2="191.7" y2="46.4" stroke="rgb(0,0,0)"  stroke-width="1.0"/>
<line x1="212.5" y1="63.1" x2="189.6" y2="50.1" stroke="rgb(0,0,0)"  stroke-width="1.0"/>
<line x1="216.6" y1="55.8" x2="193.7" y2="42.8" stroke="rgb(0,0,0)"  stroke-width="1.0"/>
<line x1="108.8" y1="199.5" x2="74.8" y2="180.1" stroke="rgb(0,0,0)"  stroke-width="1.0"/>
<line x1="74.8" y1="180.1" x2="74.8" y2="139.9" stroke="rgb(0,0,0)"  stroke-width="1.0"/>
<line x1="74.8" y1="139.9" x2="108.8" y2="119.6" stroke="rgb(0,0,0)"  stroke-width="1.0"/>
<line x1="108.8" y1="119.6" x2="144.3" y2="139.9" stroke="rgb(0,0,0)"  stroke-width="1.0"/>
<line x1="144.3" y1="139.9" x2="144.3" y2="180.1" stroke="rgb(0,0,0)"  stroke-width="1.0"/>
<line x1="137.1" y1="145.9" x2="137.1" y2="174.1" stroke="rgb(0,0,0)"  stroke-width="1.0"/>
<line x1="144.3" y1="180.1" x2="108.8" y2="199.5" stroke="rgb(0,0,0)"  stroke-width="1.0"/>
<line x1="40.0" y1="119.6" x2="74.8" y2="139.9" stroke="rgb(0,0,0)"  stroke-width="1.0"/>
<line x1="48.8" y1="116.4" x2="73.2" y2="130.6" stroke="rgb(0,0,0)"  stroke-width="1.0"/>
<line x1="108.8" y1="119.6" x2="108.8" y2="79.6" stroke="rgb(0,0,0)"  stroke-width="1.0"/>
<line x1="101.6" y1="113.6" x2="101.6" y2="85.6" stroke="rgb(0,0,0)"  stroke-width="1.0"/>
<line x1="108.8" y1="79.6" x2="74.8" y2="59.4" stroke="rgb(0,0,0)"  stroke-width="1.0"/>
<line x1="74.8" y1="59.4" x2="40.0" y2="79.6" stroke="rgb(0,0,0)"  stroke-width="1.0"/>
<line x1="73.2" y1="68.7" x2="48.8" y2="82.8" stroke="rgb(0,0,0)"  stroke-width="1.0"/>
<line x1="40.0" y1="79.6" x2="40.0" y2="119.6" stroke="rgb(0,0,0)"  stroke-width="1.0"/>
<line x1="108.8" y1="199.5" x2="75.7" y2="218.4" stroke="rgb(0,0,0)"  stroke-width="1.0"/>
<line x1="75.7" y1="218.4" x2="75.7" y2="258.6" stroke="rgb(0,0,0)"  stroke-width="1.0"/>
<line x1="75.7" y1="258.6" x2="108.8" y2="279.5" stroke="rgb(0,0,0)"  stroke-width="1.0"/>
<line x1="108.8" y1="279.5" x2="144.3" y2="258.6" stroke="rgb(0,0,0)"  stroke-width="1.0"/>
<line x1="144.3" y1="258.6" x2="144.3" y2="219.1" stroke="rgb(0,0,0)"  stroke-width="1.0"/>
<line x1="144.3" y1="219.1" x2="108.8" y2="199.5" stroke="rgb(0,0,0)"  stroke-width="1.0"/>
<line x1="144.3" y1="180.1" x2="178.6" y2="199.2" stroke="rgb(0,0,0)"  stroke-width="1.0"/>
<line x1="178.6" y1="199.2" x2="203.0" y2="186.2" stroke="rgb(0,0,0)"  stroke-width="1.0"/>
<line x1="214.5" y1="167.1" x2="214.5" y2="139.9" stroke="rgb(0,0,0)"  stroke-width="1.0"/>
<line x1="214.5" y1="139.9" x2="190.4" y2="126.3" stroke="rgb(0,0,0)"  stroke-width="1.0"/>
<line x1="205.8" y1="143.2" x2="188.5" y2="133.5" stroke="rgb(0,0,0)"  stroke-width="1.0"/>
<line x1="167.4" y1="126.2" x2="144.3" y2="139.9" stroke="rgb(0,0,0)"  stroke-width="1.0"/>
<line x1="248.6" y1="199.5" x2="282.9" y2="180.1" stroke="rgb(0,0,0)"  stroke-width="1.0"/>
<line x1="282.9" y1="180.1" x2="317.6" y2="199.5" stroke="rgb(0,0,0)"  stroke-width="1.0"/>
<line x1="317.6" y1="199.5" x2="317.6" y2="239.5" stroke="rgb(0,0,0)"  stroke-width="1.0"/>
<line x1="317.6" y1="239.5" x2="284.1" y2="259.0" stroke="rgb(0,0,0)"  stroke-width="1.0"/>
<line x1="284.1" y1="259.0" x2="248.6" y2="239.5" stroke="rgb(0,0,0)"  stroke-width="1.0"/>
<line x1="248.6" y1="239.5" x2="248.6" y2="199.5" stroke="rgb(0,0,0)"  stroke-width="1.0"/>
<text x="172.567929" y="127.596245" fill="rgb(12,12,255)"  stroke="rgb(12,12,255)" stroke-width="1" font-size="16" >N</text>
<text x="208.532310" y="188.130543" fill="rgb(12,12,255)"  stroke="rgb(12,12,255)" stroke-width="1" font-size="16" >N</text>
<text x="172.567929" y="248.659988" fill="rgb(255,12,12)"  stroke="rgb(255,12,12)" stroke-width="1" font-size="16" >O</text>
<text x="243.530976" y="127.596245" fill="rgb(178,178,0)"  stroke="rgb(178,178,0)" stroke-width="1" font-size="16" >S</text>
<text x="162.368332" y="48.000000" fill="rgb(102,102,102)"  stroke="rgb(102,102,102)" stroke-width="1" font-size="16" >HC</text>
<text font-size="18.000000" fill ="black" font-family="sans-serif"
x="10.000000" y="20.000000" ></text>
<title> - OBDepict</title>
</svg>
