<?xml version="1.0"?>
<svg xmlns="http://www.w3.org/2000/svg"
xmlns:xlink="http://www.w3.org/1999/xlink" xmlns:cml="http://www.xml-cml.org/schema" width="390.865" height="431.69" x="0" y="0" font-family="sans-serif" stroke="rgb(0,0,0)" stroke-width="1"  stroke-linecap="round">
<rect x="0%" y="0%" width="100%" height="100%" stroke-width="0" fill="rgb(255,255,255)"  />
<line x1="170.8" y1="351.7" x2="210.8" y2="351.7" stroke="rgb(0,0,0)"  stroke-width="1.0"/>
<line x1="290.8" y1="213.0" x2="277.3" y2="189.7" stroke="rgb(0,0,0)"  stroke-width="1.0"/>
<line x1="270.8" y1="317.1" x2="290.8" y2="282.3" stroke="rgb(0,0,0)"  stroke-width="1.0"/>
<line x1="250.8" y1="74.4" x2="270.8" y2="109.1" stroke="rgb(0,0,0)"  stroke-width="1.0"/>
<line x1="237.3" y1="51.2" x2="250.8" y2="74.4" stroke="rgb(0,0,0)"  stroke-width="1.0"/>
<line x1="241.0" y1="49.1" x2="254.4" y2="72.3" stroke="rgb(0,0,0)"  stroke-width="1.0"/>
<line x1="233.7" y1="53.3" x2="247.2" y2="76.5" stroke="rgb(0,0,0)"  stroke-width="1.0"/>
<line x1="246.0" y1="189.4" x2="258.1" y2="182.4" stroke="rgb(0,0,0)"  stroke-width="1.0"/>
<line x1="249.0" y1="194.5" x2="261.1" y2="187.6" stroke="rgb(0,0,0)"  stroke-width="1.0"/>
<line x1="295.8" y1="167.5" x2="283.6" y2="174.6" stroke="rgb(0,0,0)"  stroke-width="1.0"/>
<line x1="292.8" y1="162.3" x2="280.6" y2="169.4" stroke="rgb(0,0,0)"  stroke-width="1.0"/>
<line x1="257.3" y1="155.0" x2="264.3" y2="167.2" stroke="rgb(0,0,0)"  stroke-width="1.0"/>
<line x1="243.8" y1="317.1" x2="270.8" y2="317.1" stroke="rgb(0,0,0)"  stroke-width="1.0"/>
<line x1="281.7" y1="341.9" x2="268.2" y2="318.6" stroke="rgb(0,0,0)"  stroke-width="1.0"/>
<line x1="286.9" y1="338.9" x2="273.4" y2="315.6" stroke="rgb(0,0,0)"  stroke-width="1.0"/>
<line x1="210.8" y1="351.7" x2="224.3" y2="328.4" stroke="rgb(0,0,0)"  stroke-width="1.0"/>
<line x1="270.8" y1="109.1" x2="257.3" y2="132.4" stroke="rgb(0,0,0)"  stroke-width="1.0"/>
<line x1="155.1" y1="330.0" x2="170.8" y2="351.7" stroke="rgb(0,0,0)"  stroke-width="1.0"/>
<line x1="150.4" y1="335.9" x2="161.4" y2="351.0" stroke="rgb(0,0,0)"  stroke-width="1.0"/>
<line x1="170.8" y1="351.7" x2="155.0" y2="373.5" stroke="rgb(0,0,0)"  stroke-width="1.0"/>
<line x1="135.0" y1="380.0" x2="109.3" y2="371.7" stroke="rgb(0,0,0)"  stroke-width="1.0"/>
<line x1="109.3" y1="371.7" x2="109.3" y2="331.7" stroke="rgb(0,0,0)"  stroke-width="1.0"/>
<line x1="116.5" y1="365.7" x2="116.5" y2="337.7" stroke="rgb(0,0,0)"  stroke-width="1.0"/>
<line x1="109.3" y1="331.7" x2="135.0" y2="323.3" stroke="rgb(0,0,0)"  stroke-width="1.0"/>
<line x1="290.8" y1="213.0" x2="330.9" y2="213.0" stroke="rgb(0,0,0)"  stroke-width="1.0"/>
<line x1="296.8" y1="220.2" x2="324.9" y2="220.2" stroke="rgb(0,0,0)"  stroke-width="1.0"/>
<line x1="330.9" y1="213.0" x2="350.9" y2="247.8" stroke="rgb(0,0,0)"  stroke-width="1.0"/>
<line x1="350.9" y1="247.8" x2="330.9" y2="282.3" stroke="rgb(0,0,0)"  stroke-width="1.0"/>
<line x1="341.6" y1="249.4" x2="327.6" y2="273.5" stroke="rgb(0,0,0)"  stroke-width="1.0"/>
<line x1="330.9" y1="282.3" x2="290.8" y2="282.3" stroke="rgb(0,0,0)"  stroke-width="1.0"/>
<line x1="290.8" y1="282.3" x2="270.8" y2="247.8" stroke="rgb(0,0,0)"  stroke-width="1.0"/>
<line x1="294.1" y1="273.5" x2="280.1" y2="249.4" stroke="rgb(0,0,0)"  stroke-width="1.0"/>
<line x1="270.8" y1="247.8" x2="290.8" y2="213.0" stroke="rgb(0,0,0)"  stroke-width="1.0"/>
<line x1="74.6" y1="311.7" x2="40.0" y2="331.7" stroke="rgb(0,0,0)"  stroke-width="1.0"/>
<line x1="73.0" y1="320.9" x2="48.8" y2="334.9" stroke="rgb(0,0,0)"  stroke-width="1.0"/>
<line x1="40.0" y1="331.7" x2="40.0" y2="371.7" stroke="rgb(0,0,0)"  stroke-width="1.0"/>
<line x1="40.0" y1="371.7" x2="74.6" y2="391.7" stroke="rgb(0,0,0)"  stroke-width="1.0"/>
<line x1="48.8" y1="368.5" x2="73.0" y2="382.5" stroke="rgb(0,0,0)"  stroke-width="1.0"/>
<line x1="74.6" y1="391.7" x2="109.3" y2="371.7" stroke="rgb(0,0,0)"  stroke-width="1.0"/>
<line x1="109.3" y1="331.7" x2="74.6" y2="311.7" stroke="rgb(0,0,0)"  stroke-width="1.0"/>
<text x="264.825086" y="186.454304" fill="rgb(178,178,0)"  stroke="rgb(178,178,0)" stroke-width="1" font-size="16" >S</text>
<text x="141.326098" y="327.334057" fill="rgb(12,12,255)"  stroke="rgb(12,12,255)" stroke-width="1" font-size="16" >N</text>
<text x="141.326098" y="392.011068" fill="rgb(178,178,0)"  stroke="rgb(178,178,0)" stroke-width="1" font-size="16" >S</text>
<text x="212.805186" y="48.000000" fill="rgb(102,102,102)"  stroke="rgb(102,102,102)" stroke-width="1" font-size="16" >HC</text>
<text x="230.262445" y="206.464255" fill="rgb(255,12,12)"  stroke="rgb(255,12,12)" stroke-width="1" font-size="16" >O</text>
<text x="299.586615" y="166.444354" fill="rgb(255,12,12)"  stroke="rgb(255,12,12)" stroke-width="1" font-size="16" >O</text>
<text x="232.815136" y="151.687925" fill="rgb(12,12,255)"  stroke="rgb(12,12,255)" stroke-width="1" font-size="16" >HN</text>
<text x="224.805186" y="325.107495" fill="rgb(255,12,12)"  stroke="rgb(255,12,12)" stroke-width="1" font-size="16" >O</text>
<text x="284.835037" y="359.670137" fill="rgb(255,12,12)"  stroke="rgb(255,12,12)" stroke-width="1" font-size="16" >O</text>
<text font-size="18.000000" fill ="black" font-family="sans-serif"
x="10.000000" y="20.000000" ></text>
<title> - OBDepict</title>
</svg>
