<?xml version="1.0"?>
<svg xmlns="http://www.w3.org/2000/svg"
xmlns:xlink="http://www.w3.org/1999/xlink" xmlns:cml="http://www.xml-cml.org/schema" width="323.105" height="219.134" x="0" y="0" font-family="sans-serif" stroke="rgb(0,0,0)" stroke-width="1"  stroke-linecap="round">
<rect x="0%" y="0%" width="100%" height="100%" stroke-width="0" fill="rgb(255,255,255)"  />
<line x1="214.3" y1="99.7" x2="179.6" y2="120.6" stroke="rgb(0,0,0)"  stroke-width="1.0"/>
<line x1="248.6" y1="160.0" x2="248.6" y2="119.8" stroke="rgb(0,0,0)"  stroke-width="1.0"/>
<line x1="74.7" y1="140.8" x2="110.1" y2="120.6" stroke="rgb(0,0,0)"  stroke-width="1.0"/>
<line x1="156.2" y1="107.2" x2="179.6" y2="120.6" stroke="rgb(0,0,0)"  stroke-width="1.0"/>
<line x1="51.3" y1="154.3" x2="74.7" y2="140.8" stroke="rgb(0,0,0)"  stroke-width="1.0"/>
<line x1="49.2" y1="150.7" x2="72.6" y2="137.2" stroke="rgb(0,0,0)"  stroke-width="1.0"/>
<line x1="53.4" y1="157.9" x2="76.8" y2="144.5" stroke="rgb(0,0,0)"  stroke-width="1.0"/>
<line x1="110.1" y1="120.6" x2="133.7" y2="107.1" stroke="rgb(0,0,0)"  stroke-width="1.0"/>
<line x1="176.6" y1="147.0" x2="176.6" y2="120.6" stroke="rgb(0,0,0)"  stroke-width="1.0"/>
<line x1="182.6" y1="147.0" x2="182.6" y2="120.6" stroke="rgb(0,0,0)"  stroke-width="1.0"/>
<line x1="270.3" y1="175.4" x2="247.2" y2="162.6" stroke="rgb(0,0,0)"  stroke-width="1.0"/>
<line x1="273.2" y1="170.2" x2="250.1" y2="157.3" stroke="rgb(0,0,0)"  stroke-width="1.0"/>
<line x1="225.2" y1="172.9" x2="248.6" y2="160.0" stroke="rgb(0,0,0)"  stroke-width="1.0"/>
<line x1="96.4" y1="96.3" x2="110.1" y2="120.6" stroke="rgb(0,0,0)"  stroke-width="1.0"/>
<line x1="123.7" y1="144.2" x2="110.1" y2="120.6" stroke="rgb(0,0,0)"  stroke-width="1.0"/>
<line x1="214.3" y1="99.7" x2="248.6" y2="119.8" stroke="rgb(0,0,0)"  stroke-width="1.0"/>
<line x1="223.1" y1="96.5" x2="247.1" y2="110.6" stroke="rgb(0,0,0)"  stroke-width="1.0"/>
<line x1="248.6" y1="119.8" x2="283.1" y2="99.7" stroke="rgb(0,0,0)"  stroke-width="1.0"/>
<line x1="283.1" y1="99.7" x2="283.1" y2="59.5" stroke="rgb(0,0,0)"  stroke-width="1.0"/>
<line x1="275.9" y1="93.7" x2="275.9" y2="65.5" stroke="rgb(0,0,0)"  stroke-width="1.0"/>
<line x1="283.1" y1="59.5" x2="248.6" y2="40.0" stroke="rgb(0,0,0)"  stroke-width="1.0"/>
<line x1="248.6" y1="40.0" x2="214.3" y2="60.5" stroke="rgb(0,0,0)"  stroke-width="1.0"/>
<line x1="247.2" y1="49.3" x2="223.1" y2="63.6" stroke="rgb(0,0,0)"  stroke-width="1.0"/>
<line x1="214.3" y1="60.5" x2="214.3" y2="99.7" stroke="rgb(0,0,0)"  stroke-width="1.0"/>
<text x="138.970297" y="108.655110" fill="rgb(255,12,12)"  stroke="rgb(255,12,12)" stroke-width="1" font-size="16" >O</text>
<text x="22.000000" y="168.805811" fill="rgb(102,102,102)"  stroke="rgb(102,102,102)" stroke-width="1" font-size="16" >HC</text>
<text x="173.628974" y="167.971597" fill="rgb(255,12,12)"  stroke="rgb(255,12,12)" stroke-width="1" font-size="16" >O</text>
<text x="277.105447" y="187.134266" fill="rgb(255,12,12)"  stroke="rgb(255,12,12)" stroke-width="1" font-size="16" >O</text>
<text x="195.788093" y="187.134266" fill="rgb(255,12,12)"  stroke="rgb(255,12,12)" stroke-width="1" font-size="16" >HO</text>
<text x="63.984932" y="92.989349" fill="rgb(102,102,102)"  stroke="rgb(102,102,102)" stroke-width="1" font-size="16" >H</text>
<text x="75.984932" y="96.669349" fill="rgb(102,102,102)"  stroke="rgb(102,102,102)" stroke-width="1" font-size="13" >3</text>
<text x="82.484932" y="92.989349" fill="rgb(102,102,102)"  stroke="rgb(102,102,102)" stroke-width="1" font-size="16" >C</text>
<text x="126.143601" y="163.470722" fill="rgb(102,102,102)"  stroke="rgb(102,102,102)" stroke-width="1" font-size="16" >CH</text>
<text x="150.143601" y="167.150722" fill="rgb(102,102,102)"  stroke="rgb(102,102,102)" stroke-width="1" font-size="13" >3</text>
<text font-size="18.000000" fill ="black" font-family="sans-serif"
x="10.000000" y="20.000000" ></text>
<title> - OBDepict</title>
</svg>
