<?xml version="1.0"?>
<svg xmlns="http://www.w3.org/2000/svg"
xmlns:xlink="http://www.w3.org/1999/xlink" xmlns:cml="http://www.xml-cml.org/schema" width="223.913" height="441.6" x="0" y="0" font-family="sans-serif" stroke="rgb(0,0,0)" stroke-width="1"  stroke-linecap="round">
<rect x="0%" y="0%" width="100%" height="100%" stroke-width="0" fill="rgb(255,255,255)"  />
<line x1="80.0" y1="114.4" x2="80.0" y2="128.5" stroke="rgb(0,0,0)"  stroke-width="1.0"/>
<line x1="80.0" y1="181.5" x2="80.0" y2="154.5" stroke="rgb(0,0,0)"  stroke-width="1.0"/>
<line x1="80.0" y1="301.5" x2="80.0" y2="261.5" stroke="rgb(0,0,0)"  stroke-width="1.0"/>
<line x1="107.0" y1="144.5" x2="93.0" y2="144.5" stroke="rgb(0,0,0)"  stroke-width="1.0"/>
<line x1="107.0" y1="138.5" x2="93.0" y2="138.5" stroke="rgb(0,0,0)"  stroke-width="1.0"/>
<line x1="53.0" y1="138.5" x2="67.0" y2="138.5" stroke="rgb(0,0,0)"  stroke-width="1.0"/>
<line x1="53.0" y1="144.5" x2="67.0" y2="144.5" stroke="rgb(0,0,0)"  stroke-width="1.0"/>
<line x1="149.4" y1="381.6" x2="114.8" y2="361.6" stroke="rgb(0,0,0)"  stroke-width="1.0"/>
<line x1="172.7" y1="395.1" x2="149.4" y2="381.6" stroke="rgb(0,0,0)"  stroke-width="1.0"/>
<line x1="170.6" y1="398.7" x2="147.2" y2="385.2" stroke="rgb(0,0,0)"  stroke-width="1.0"/>
<line x1="174.8" y1="391.5" x2="151.5" y2="378.0" stroke="rgb(0,0,0)"  stroke-width="1.0"/>
<line x1="55.2" y1="312.4" x2="78.5" y2="299.0" stroke="rgb(0,0,0)"  stroke-width="1.0"/>
<line x1="58.2" y1="317.6" x2="81.5" y2="304.1" stroke="rgb(0,0,0)"  stroke-width="1.0"/>
<line x1="103.5" y1="315.1" x2="80.0" y2="301.5" stroke="rgb(0,0,0)"  stroke-width="1.0"/>
<line x1="114.8" y1="361.6" x2="114.8" y2="334.6" stroke="rgb(0,0,0)"  stroke-width="1.0"/>
<line x1="69.5" y1="93.8" x2="47.7" y2="78.0" stroke="rgb(0,0,0)"  stroke-width="1.0"/>
<line x1="47.7" y1="78.0" x2="60.0" y2="40.0" stroke="rgb(0,0,0)"  stroke-width="1.0"/>
<line x1="60.0" y1="40.0" x2="100.0" y2="40.0" stroke="rgb(0,0,0)"  stroke-width="1.0"/>
<line x1="100.0" y1="40.0" x2="112.4" y2="78.0" stroke="rgb(0,0,0)"  stroke-width="1.0"/>
<line x1="112.4" y1="78.0" x2="90.5" y2="93.8" stroke="rgb(0,0,0)"  stroke-width="1.0"/>
<line x1="80.0" y1="181.5" x2="114.8" y2="201.5" stroke="rgb(0,0,0)"  stroke-width="1.0"/>
<line x1="114.8" y1="201.5" x2="114.8" y2="241.5" stroke="rgb(0,0,0)"  stroke-width="1.0"/>
<line x1="107.6" y1="207.5" x2="107.6" y2="235.5" stroke="rgb(0,0,0)"  stroke-width="1.0"/>
<line x1="114.8" y1="241.5" x2="80.0" y2="261.5" stroke="rgb(0,0,0)"  stroke-width="1.0"/>
<line x1="80.0" y1="261.5" x2="45.5" y2="241.5" stroke="rgb(0,0,0)"  stroke-width="1.0"/>
<line x1="78.4" y1="252.3" x2="54.3" y2="238.3" stroke="rgb(0,0,0)"  stroke-width="1.0"/>
<line x1="45.5" y1="241.5" x2="45.5" y2="201.5" stroke="rgb(0,0,0)"  stroke-width="1.0"/>
<line x1="45.5" y1="201.5" x2="80.0" y2="181.5" stroke="rgb(0,0,0)"  stroke-width="1.0"/>
<line x1="54.3" y1="204.7" x2="78.4" y2="190.7" stroke="rgb(0,0,0)"  stroke-width="1.0"/>
<text x="74.020341" y="149.467329" fill="rgb(178,178,0)"  stroke="rgb(178,178,0)" stroke-width="1" font-size="16" >S</text>
<text x="74.020341" y="109.446989" fill="rgb(12,12,255)"  stroke="rgb(12,12,255)" stroke-width="1" font-size="16" >N</text>
<text x="114.040681" y="149.467329" fill="rgb(255,12,12)"  stroke="rgb(255,12,12)" stroke-width="1" font-size="16" >O</text>
<text x="34.000000" y="149.467329" fill="rgb(255,12,12)"  stroke="rgb(255,12,12)" stroke-width="1" font-size="16" >O</text>
<text x="177.913145" y="409.599544" fill="rgb(102,102,102)"  stroke="rgb(102,102,102)" stroke-width="1" font-size="16" >CH</text>
<text x="39.457319" y="329.558863" fill="rgb(255,12,12)"  stroke="rgb(255,12,12)" stroke-width="1" font-size="16" >O</text>
<text x="108.787102" y="329.558863" fill="rgb(12,12,255)"  stroke="rgb(12,12,255)" stroke-width="1" font-size="16" >NH</text>
<text font-size="18.000000" fill ="black" font-family="sans-serif"
x="10.000000" y="20.000000" ></text>
<title> - OBDepict</title>
</svg>
