<?xml version="1.0"?>
<svg xmlns="http://www.w3.org/2000/svg"
xmlns:xlink="http://www.w3.org/1999/xlink" xmlns:cml="http://www.xml-cml.org/schema" width="565.009" height="219.988" x="0" y="0" font-family="sans-serif" stroke="rgb(0,0,0)" stroke-width="1"  stroke-linecap="round">
<rect x="0%" y="0%" width="100%" height="100%" stroke-width="0" fill="rgb(255,255,255)"  />
<line x1="247.9" y1="100.0" x2="282.6" y2="120.0" stroke="rgb(0,0,0)"  stroke-width="1.0"/>
<line x1="224.6" y1="113.5" x2="247.9" y2="100.0" stroke="rgb(0,0,0)"  stroke-width="1.0"/>
<line x1="178.6" y1="100.0" x2="202.1" y2="113.5" stroke="rgb(0,0,0)"  stroke-width="1.0"/>
<line x1="351.9" y1="120.0" x2="375.2" y2="106.5" stroke="rgb(0,0,0)"  stroke-width="1.0"/>
<line x1="490.3" y1="80.0" x2="455.7" y2="100.0" stroke="rgb(0,0,0)"  stroke-width="1.0"/>
<line x1="513.7" y1="66.5" x2="490.3" y2="80.0" stroke="rgb(0,0,0)"  stroke-width="1.0"/>
<line x1="515.8" y1="70.1" x2="492.4" y2="83.6" stroke="rgb(0,0,0)"  stroke-width="1.0"/>
<line x1="511.6" y1="62.8" x2="488.2" y2="76.4" stroke="rgb(0,0,0)"  stroke-width="1.0"/>
<line x1="375.5" y1="75.0" x2="382.5" y2="87.2" stroke="rgb(0,0,0)"  stroke-width="1.0"/>
<line x1="370.3" y1="78.0" x2="377.3" y2="90.2" stroke="rgb(0,0,0)"  stroke-width="1.0"/>
<line x1="397.3" y1="124.8" x2="390.3" y2="112.7" stroke="rgb(0,0,0)"  stroke-width="1.0"/>
<line x1="402.5" y1="121.8" x2="395.5" y2="109.7" stroke="rgb(0,0,0)"  stroke-width="1.0"/>
<line x1="409.9" y1="86.5" x2="397.7" y2="93.5" stroke="rgb(0,0,0)"  stroke-width="1.0"/>
<line x1="250.9" y1="73.0" x2="250.9" y2="100.0" stroke="rgb(0,0,0)"  stroke-width="1.0"/>
<line x1="244.9" y1="73.0" x2="244.9" y2="100.0" stroke="rgb(0,0,0)"  stroke-width="1.0"/>
<line x1="455.7" y1="100.0" x2="432.4" y2="86.5" stroke="rgb(0,0,0)"  stroke-width="1.0"/>
<line x1="351.9" y1="120.0" x2="351.9" y2="160.0" stroke="rgb(0,0,0)"  stroke-width="1.0"/>
<line x1="344.7" y1="126.0" x2="344.7" y2="154.0" stroke="rgb(0,0,0)"  stroke-width="1.0"/>
<line x1="351.9" y1="160.0" x2="317.1" y2="180.0" stroke="rgb(0,0,0)"  stroke-width="1.0"/>
<line x1="317.1" y1="180.0" x2="282.6" y2="160.0" stroke="rgb(0,0,0)"  stroke-width="1.0"/>
<line x1="315.6" y1="170.8" x2="291.4" y2="156.8" stroke="rgb(0,0,0)"  stroke-width="1.0"/>
<line x1="282.6" y1="160.0" x2="282.6" y2="120.0" stroke="rgb(0,0,0)"  stroke-width="1.0"/>
<line x1="282.6" y1="120.0" x2="317.1" y2="100.0" stroke="rgb(0,0,0)"  stroke-width="1.0"/>
<line x1="291.4" y1="123.2" x2="315.6" y2="109.2" stroke="rgb(0,0,0)"  stroke-width="1.0"/>
<line x1="317.1" y1="100.0" x2="351.9" y2="120.0" stroke="rgb(0,0,0)"  stroke-width="1.0"/>
<line x1="132.8" y1="113.5" x2="109.3" y2="100.0" stroke="rgb(0,0,0)"  stroke-width="1.0"/>
<line x1="109.3" y1="100.0" x2="109.3" y2="60.0" stroke="rgb(0,0,0)"  stroke-width="1.0"/>
<line x1="116.5" y1="94.0" x2="116.5" y2="66.0" stroke="rgb(0,0,0)"  stroke-width="1.0"/>
<line x1="109.3" y1="60.0" x2="144.0" y2="40.0" stroke="rgb(0,0,0)"  stroke-width="1.0"/>
<line x1="144.0" y1="40.0" x2="178.6" y2="60.0" stroke="rgb(0,0,0)"  stroke-width="1.0"/>
<line x1="145.6" y1="49.2" x2="169.8" y2="63.2" stroke="rgb(0,0,0)"  stroke-width="1.0"/>
<line x1="178.6" y1="60.0" x2="178.6" y2="100.0" stroke="rgb(0,0,0)"  stroke-width="1.0"/>
<line x1="178.6" y1="100.0" x2="155.4" y2="113.4" stroke="rgb(0,0,0)"  stroke-width="1.0"/>
<line x1="169.8" y1="96.8" x2="153.6" y2="106.2" stroke="rgb(0,0,0)"  stroke-width="1.0"/>
<line x1="74.7" y1="40.0" x2="109.3" y2="60.0" stroke="rgb(0,0,0)"  stroke-width="1.0"/>
<line x1="109.3" y1="100.0" x2="74.7" y2="120.0" stroke="rgb(0,0,0)"  stroke-width="1.0"/>
<line x1="74.7" y1="120.0" x2="40.0" y2="100.0" stroke="rgb(0,0,0)"  stroke-width="1.0"/>
<line x1="73.1" y1="110.8" x2="48.8" y2="96.7" stroke="rgb(0,0,0)"  stroke-width="1.0"/>
<line x1="40.0" y1="100.0" x2="40.0" y2="60.0" stroke="rgb(0,0,0)"  stroke-width="1.0"/>
<line x1="40.0" y1="60.0" x2="74.7" y2="40.0" stroke="rgb(0,0,0)"  stroke-width="1.0"/>
<line x1="48.8" y1="63.2" x2="73.1" y2="49.2" stroke="rgb(0,0,0)"  stroke-width="1.0"/>
<text x="380.432436" y="107.994702" fill="rgb(178,178,0)"  stroke="rgb(178,178,0)" stroke-width="1" font-size="16" >S</text>
<text x="207.318027" y="127.992936" fill="rgb(12,12,255)"  stroke="rgb(12,12,255)" stroke-width="1" font-size="16" >N</text>
<text x="207.318027" y="143.992936" fill="rgb(12,12,255)"  stroke="rgb(12,12,255)" stroke-width="1" font-size="16" >H</text>
<text x="138.029601" y="127.992936" fill="rgb(12,12,255)"  stroke="rgb(12,12,255)" stroke-width="1" font-size="16" >N</text>
<text x="519.009290" y="67.998234" fill="rgb(102,102,102)"  stroke="rgb(102,102,102)" stroke-width="1" font-size="16" >CH</text>
<text x="360.434203" y="73.253527" fill="rgb(255,12,12)"  stroke="rgb(255,12,12)" stroke-width="1" font-size="16" >O</text>
<text x="400.430670" y="142.537106" fill="rgb(255,12,12)"  stroke="rgb(255,12,12)" stroke-width="1" font-size="16" >O</text>
<text x="415.178459" y="87.996468" fill="rgb(12,12,255)"  stroke="rgb(12,12,255)" stroke-width="1" font-size="16" >N</text>
<text x="415.178459" y="71.996468" fill="rgb(12,12,255)"  stroke="rgb(12,12,255)" stroke-width="1" font-size="16" >H</text>
<text x="241.860432" y="67.998234" fill="rgb(255,12,12)"  stroke="rgb(255,12,12)" stroke-width="1" font-size="16" >O</text>
<text font-size="18.000000" fill ="black" font-family="sans-serif"
x="10.000000" y="20.000000" ></text>
<title> - OBDepict</title>
</svg>
