<?xml version="1.0"?>
<svg xmlns="http://www.w3.org/2000/svg"
xmlns:xlink="http://www.w3.org/1999/xlink" xmlns:cml="http://www.xml-cml.org/schema" width="463.23" height="317.558" x="0" y="0" font-family="sans-serif" stroke="rgb(0,0,0)" stroke-width="1"  stroke-linecap="round">
<rect x="0%" y="0%" width="100%" height="100%" stroke-width="0" fill="rgb(255,255,255)"  />
<line x1="319.9" y1="138.9" x2="299.9" y2="173.6" stroke="rgb(0,0,0)"  stroke-width="1.0"/>
<line x1="79.9" y1="208.0" x2="120.0" y2="208.0" stroke="rgb(0,0,0)"  stroke-width="1.0"/>
<line x1="53.0" y1="208.0" x2="79.9" y2="208.0" stroke="rgb(0,0,0)"  stroke-width="1.0"/>
<line x1="53.0" y1="203.8" x2="79.9" y2="203.8" stroke="rgb(0,0,0)"  stroke-width="1.0"/>
<line x1="53.0" y1="212.2" x2="79.9" y2="212.2" stroke="rgb(0,0,0)"  stroke-width="1.0"/>
<line x1="256.3" y1="116.8" x2="242.5" y2="140.4" stroke="rgb(0,0,0)"  stroke-width="1.0"/>
<line x1="251.1" y1="113.8" x2="237.3" y2="137.4" stroke="rgb(0,0,0)"  stroke-width="1.0"/>
<line x1="311.1" y1="267.8" x2="297.3" y2="244.2" stroke="rgb(0,0,0)"  stroke-width="1.0"/>
<line x1="316.3" y1="264.8" x2="302.5" y2="241.2" stroke="rgb(0,0,0)"  stroke-width="1.0"/>
<line x1="152.9" y1="173.6" x2="179.8" y2="173.6" stroke="rgb(0,0,0)"  stroke-width="1.0"/>
<line x1="120.0" y1="208.0" x2="133.4" y2="184.8" stroke="rgb(0,0,0)"  stroke-width="1.0"/>
<line x1="378.2" y1="49.6" x2="360.0" y2="69.6" stroke="rgb(0,0,0)"  stroke-width="1.0"/>
<line x1="360.0" y1="69.6" x2="379.9" y2="104.5" stroke="rgb(0,0,0)"  stroke-width="1.0"/>
<line x1="369.2" y1="71.3" x2="383.2" y2="95.7" stroke="rgb(0,0,0)"  stroke-width="1.0"/>
<line x1="379.9" y1="104.5" x2="406.3" y2="98.9" stroke="rgb(0,0,0)"  stroke-width="1.0"/>
<line x1="420.4" y1="83.3" x2="423.2" y2="56.7" stroke="rgb(0,0,0)"  stroke-width="1.0"/>
<line x1="423.2" y1="56.7" x2="398.8" y2="45.4" stroke="rgb(0,0,0)"  stroke-width="1.0"/>
<line x1="239.9" y1="208.0" x2="259.8" y2="173.6" stroke="rgb(0,0,0)"  stroke-width="1.0"/>
<line x1="236.7" y1="199.2" x2="250.6" y2="175.2" stroke="rgb(0,0,0)"  stroke-width="1.0"/>
<line x1="259.8" y1="173.6" x2="239.9" y2="138.9" stroke="rgb(0,0,0)"  stroke-width="1.0"/>
<line x1="239.9" y1="138.9" x2="212.8" y2="138.9" stroke="rgb(0,0,0)"  stroke-width="1.0"/>
<line x1="193.3" y1="150.2" x2="179.8" y2="173.6" stroke="rgb(0,0,0)"  stroke-width="1.0"/>
<line x1="179.8" y1="173.6" x2="193.2" y2="196.7" stroke="rgb(0,0,0)"  stroke-width="1.0"/>
<line x1="189.1" y1="175.2" x2="198.4" y2="191.3" stroke="rgb(0,0,0)"  stroke-width="1.0"/>
<line x1="212.8" y1="208.0" x2="239.9" y2="208.0" stroke="rgb(0,0,0)"  stroke-width="1.0"/>
<line x1="259.8" y1="173.6" x2="299.9" y2="173.6" stroke="rgb(0,0,0)"  stroke-width="1.0"/>
<line x1="299.9" y1="173.6" x2="319.9" y2="208.0" stroke="rgb(0,0,0)"  stroke-width="1.0"/>
<line x1="319.9" y1="208.0" x2="299.9" y2="242.7" stroke="rgb(0,0,0)"  stroke-width="1.0"/>
<line x1="299.9" y1="242.7" x2="272.8" y2="242.7" stroke="rgb(0,0,0)"  stroke-width="1.0"/>
<line x1="253.3" y1="231.4" x2="239.9" y2="208.0" stroke="rgb(0,0,0)"  stroke-width="1.0"/>
<line x1="319.9" y1="138.9" x2="360.0" y2="138.9" stroke="rgb(0,0,0)"  stroke-width="1.0"/>
<line x1="325.9" y1="131.7" x2="354.0" y2="131.7" stroke="rgb(0,0,0)"  stroke-width="1.0"/>
<line x1="360.0" y1="138.9" x2="379.9" y2="104.5" stroke="rgb(0,0,0)"  stroke-width="1.0"/>
<line x1="360.0" y1="69.6" x2="319.9" y2="69.6" stroke="rgb(0,0,0)"  stroke-width="1.0"/>
<line x1="319.9" y1="69.6" x2="299.9" y2="104.3" stroke="rgb(0,0,0)"  stroke-width="1.0"/>
<line x1="323.1" y1="78.4" x2="309.2" y2="102.7" stroke="rgb(0,0,0)"  stroke-width="1.0"/>
<line x1="299.9" y1="104.3" x2="319.9" y2="138.9" stroke="rgb(0,0,0)"  stroke-width="1.0"/>
<text x="193.782352" y="216.041691" fill="rgb(12,12,255)"  stroke="rgb(12,12,255)" stroke-width="1" font-size="16" >N</text>
<text x="193.782352" y="146.927887" fill="rgb(12,12,255)"  stroke="rgb(12,12,255)" stroke-width="1" font-size="16" >N</text>
<text x="193.782352" y="130.927887" fill="rgb(12,12,255)"  stroke="rgb(12,12,255)" stroke-width="1" font-size="16" >H</text>
<text x="253.827362" y="250.693110" fill="rgb(12,12,255)"  stroke="rgb(12,12,255)" stroke-width="1" font-size="16" >N</text>
<text x="253.827362" y="266.693110" fill="rgb(12,12,255)"  stroke="rgb(12,12,255)" stroke-width="1" font-size="16" >H</text>
<text x="22.000000" y="216.041691" fill="rgb(102,102,102)"  stroke="rgb(102,102,102)" stroke-width="1" font-size="16" >HC</text>
<text x="254.229666" y="112.072893" fill="rgb(255,12,12)"  stroke="rgb(255,12,12)" stroke-width="1" font-size="16" >O</text>
<text x="412.998988" y="104.215857" fill="rgb(255,12,12)"  stroke="rgb(255,12,12)" stroke-width="1" font-size="16" >O</text>
<text x="380.964965" y="48.000000" fill="rgb(255,12,12)"  stroke="rgb(255,12,12)" stroke-width="1" font-size="16" >O</text>
<text x="314.274676" y="285.557799" fill="rgb(255,12,12)"  stroke="rgb(255,12,12)" stroke-width="1" font-size="16" >O</text>
<text x="133.940916" y="181.589000" fill="rgb(178,178,0)"  stroke="rgb(178,178,0)" stroke-width="1" font-size="16" >S</text>
<text font-size="18.000000" fill ="black" font-family="sans-serif"
x="10.000000" y="20.000000" ></text>
<title> - OBDepict</title>
</svg>
