<?xml version="1.0"?>
<svg xmlns="http://www.w3.org/2000/svg"
xmlns:xlink="http://www.w3.org/1999/xlink" xmlns:cml="http://www.xml-cml.org/schema" width="391.693" height="399.973" x="0" y="0" font-family="sans-serif" stroke="rgb(0,0,0)" stroke-width="1"  stroke-linecap="round">
<rect x="0%" y="0%" width="100%" height="100%" stroke-width="0" fill="rgb(255,255,255)"  />
<line x1="247.9" y1="100.0" x2="271.2" y2="113.5" stroke="rgb(0,0,0)"  stroke-width="1.0"/>
<line x1="143.8" y1="160.0" x2="143.8" y2="120.0" stroke="rgb(0,0,0)"  stroke-width="1.0"/>
<line x1="305.9" y1="133.5" x2="293.7" y2="126.5" stroke="rgb(0,0,0)"  stroke-width="1.0"/>
<line x1="74.5" y1="240.0" x2="109.3" y2="220.0" stroke="rgb(0,0,0)"  stroke-width="1.0"/>
<line x1="298.5" y1="98.2" x2="291.5" y2="110.2" stroke="rgb(0,0,0)"  stroke-width="1.0"/>
<line x1="293.3" y1="95.2" x2="286.3" y2="107.2" stroke="rgb(0,0,0)"  stroke-width="1.0"/>
<line x1="266.3" y1="142.0" x2="273.3" y2="129.8" stroke="rgb(0,0,0)"  stroke-width="1.0"/>
<line x1="271.5" y1="145.0" x2="278.5" y2="132.8" stroke="rgb(0,0,0)"  stroke-width="1.0"/>
<line x1="51.3" y1="253.5" x2="74.5" y2="240.0" stroke="rgb(0,0,0)"  stroke-width="1.0"/>
<line x1="49.1" y1="249.8" x2="72.4" y2="236.3" stroke="rgb(0,0,0)"  stroke-width="1.0"/>
<line x1="53.4" y1="257.1" x2="76.6" y2="243.6" stroke="rgb(0,0,0)"  stroke-width="1.0"/>
<line x1="87.3" y1="43.9" x2="110.8" y2="57.4" stroke="rgb(0,0,0)"  stroke-width="1.0"/>
<line x1="84.3" y1="49.1" x2="107.8" y2="62.6" stroke="rgb(0,0,0)"  stroke-width="1.0"/>
<line x1="165.8" y1="176.1" x2="142.3" y2="162.6" stroke="rgb(0,0,0)"  stroke-width="1.0"/>
<line x1="168.8" y1="170.9" x2="145.3" y2="157.4" stroke="rgb(0,0,0)"  stroke-width="1.0"/>
<line x1="120.5" y1="173.5" x2="143.8" y2="160.0" stroke="rgb(0,0,0)"  stroke-width="1.0"/>
<line x1="317.2" y1="180.0" x2="317.2" y2="153.0" stroke="rgb(0,0,0)"  stroke-width="1.0"/>
<line x1="109.3" y1="220.0" x2="109.3" y2="193.0" stroke="rgb(0,0,0)"  stroke-width="1.0"/>
<line x1="317.2" y1="287.0" x2="317.2" y2="260.0" stroke="rgb(0,0,0)"  stroke-width="1.0"/>
<line x1="351.7" y1="320.0" x2="328.4" y2="306.5" stroke="rgb(0,0,0)"  stroke-width="1.0"/>
<line x1="351.7" y1="347.0" x2="351.7" y2="320.0" stroke="rgb(0,0,0)"  stroke-width="1.0"/>
<line x1="143.8" y1="120.0" x2="109.3" y2="100.0" stroke="rgb(0,0,0)"  stroke-width="1.0"/>
<line x1="142.2" y1="110.8" x2="118.1" y2="96.8" stroke="rgb(0,0,0)"  stroke-width="1.0"/>
<line x1="109.3" y1="100.0" x2="109.3" y2="60.0" stroke="rgb(0,0,0)"  stroke-width="1.0"/>
<line x1="109.3" y1="60.0" x2="132.6" y2="46.5" stroke="rgb(0,0,0)"  stroke-width="1.0"/>
<line x1="155.1" y1="46.5" x2="178.6" y2="60.0" stroke="rgb(0,0,0)"  stroke-width="1.0"/>
<line x1="178.6" y1="60.0" x2="178.6" y2="100.0" stroke="rgb(0,0,0)"  stroke-width="1.0"/>
<line x1="171.4" y1="66.0" x2="171.4" y2="94.0" stroke="rgb(0,0,0)"  stroke-width="1.0"/>
<line x1="178.6" y1="100.0" x2="143.8" y2="120.0" stroke="rgb(0,0,0)"  stroke-width="1.0"/>
<line x1="247.9" y1="60.0" x2="247.9" y2="100.0" stroke="rgb(0,0,0)"  stroke-width="1.0"/>
<line x1="247.9" y1="100.0" x2="213.1" y2="120.0" stroke="rgb(0,0,0)"  stroke-width="1.0"/>
<line x1="239.1" y1="96.7" x2="214.7" y2="110.8" stroke="rgb(0,0,0)"  stroke-width="1.0"/>
<line x1="213.1" y1="120.0" x2="178.6" y2="100.0" stroke="rgb(0,0,0)"  stroke-width="1.0"/>
<line x1="178.6" y1="60.0" x2="213.1" y2="40.0" stroke="rgb(0,0,0)"  stroke-width="1.0"/>
<line x1="213.1" y1="40.0" x2="247.9" y2="60.0" stroke="rgb(0,0,0)"  stroke-width="1.0"/>
<line x1="214.7" y1="49.2" x2="239.1" y2="63.2" stroke="rgb(0,0,0)"  stroke-width="1.0"/>
<line x1="317.2" y1="180.0" x2="351.7" y2="200.0" stroke="rgb(0,0,0)"  stroke-width="1.0"/>
<line x1="351.7" y1="200.0" x2="351.7" y2="240.0" stroke="rgb(0,0,0)"  stroke-width="1.0"/>
<line x1="344.5" y1="206.0" x2="344.5" y2="234.0" stroke="rgb(0,0,0)"  stroke-width="1.0"/>
<line x1="351.7" y1="240.0" x2="317.2" y2="260.0" stroke="rgb(0,0,0)"  stroke-width="1.0"/>
<line x1="317.2" y1="260.0" x2="282.4" y2="240.0" stroke="rgb(0,0,0)"  stroke-width="1.0"/>
<line x1="315.5" y1="250.7" x2="291.2" y2="236.7" stroke="rgb(0,0,0)"  stroke-width="1.0"/>
<line x1="282.4" y1="240.0" x2="282.4" y2="200.0" stroke="rgb(0,0,0)"  stroke-width="1.0"/>
<line x1="282.4" y1="200.0" x2="317.2" y2="180.0" stroke="rgb(0,0,0)"  stroke-width="1.0"/>
<line x1="291.2" y1="203.2" x2="315.5" y2="189.2" stroke="rgb(0,0,0)"  stroke-width="1.0"/>
<text x="276.403920" y="127.993294" fill="rgb(178,178,0)"  stroke="rgb(178,178,0)" stroke-width="1" font-size="16" >S</text>
<text x="137.831295" y="48.000000" fill="rgb(12,12,255)"  stroke="rgb(12,12,255)" stroke-width="1" font-size="16" >N</text>
<text x="137.831295" y="32.000000" fill="rgb(12,12,255)"  stroke="rgb(12,12,255)" stroke-width="1" font-size="16" >H</text>
<text x="311.150098" y="147.991617" fill="rgb(12,12,255)"  stroke="rgb(12,12,255)" stroke-width="1" font-size="16" >NH</text>
<text x="296.402243" y="93.450735" fill="rgb(255,12,12)"  stroke="rgb(255,12,12)" stroke-width="1" font-size="16" >O</text>
<text x="256.405596" y="162.734623" fill="rgb(255,12,12)"  stroke="rgb(255,12,12)" stroke-width="1" font-size="16" >O</text>
<text x="22.000000" y="267.981557" fill="rgb(102,102,102)"  stroke="rgb(102,102,102)" stroke-width="1" font-size="16" >HC</text>
<text x="68.542559" y="48.000000" fill="rgb(255,12,12)"  stroke="rgb(255,12,12)" stroke-width="1" font-size="16" >O</text>
<text x="172.577473" y="187.988264" fill="rgb(255,12,12)"  stroke="rgb(255,12,12)" stroke-width="1" font-size="16" >O</text>
<text x="91.288736" y="187.988264" fill="rgb(12,12,255)"  stroke="rgb(12,12,255)" stroke-width="1" font-size="16" >HN</text>
<text x="311.150098" y="307.978204" fill="rgb(255,12,12)"  stroke="rgb(255,12,12)" stroke-width="1" font-size="16" >O</text>
<text x="347.692656" y="367.973174" fill="rgb(102,102,102)"  stroke="rgb(102,102,102)" stroke-width="1" font-size="16" >CH</text>
<text x="371.692656" y="371.653174" fill="rgb(102,102,102)"  stroke="rgb(102,102,102)" stroke-width="1" font-size="13" >3</text>
<text font-size="18.000000" fill ="black" font-family="sans-serif"
x="10.000000" y="20.000000" ></text>
<title> - OBDepict</title>
</svg>
