<?xml version="1.0"?>
<svg xmlns="http://www.w3.org/2000/svg"
xmlns:xlink="http://www.w3.org/1999/xlink" xmlns:cml="http://www.xml-cml.org/schema" width="412.187" height="446.091" x="0" y="0" font-family="sans-serif" stroke="rgb(0,0,0)" stroke-width="1"  stroke-linecap="round">
<rect x="0%" y="0%" width="100%" height="100%" stroke-width="0" fill="rgb(255,255,255)"  />
<line x1="188.8" y1="209.4" x2="165.4" y2="223.2" stroke="rgb(0,0,0)"  stroke-width="1.0"/>
<line x1="185.7" y1="204.3" x2="162.4" y2="218.0" stroke="rgb(0,0,0)"  stroke-width="1.0"/>
<line x1="198.4" y1="160.1" x2="198.4" y2="187.2" stroke="rgb(0,0,0)"  stroke-width="1.0"/>
<line x1="180.1" y1="327.2" x2="189.1" y2="288.0" stroke="rgb(0,0,0)"  stroke-width="1.0"/>
<line x1="174.0" y1="353.9" x2="180.1" y2="327.2" stroke="rgb(0,0,0)"  stroke-width="1.0"/>
<line x1="169.9" y1="352.9" x2="176.0" y2="326.3" stroke="rgb(0,0,0)"  stroke-width="1.0"/>
<line x1="178.1" y1="354.8" x2="184.2" y2="328.1" stroke="rgb(0,0,0)"  stroke-width="1.0"/>
<line x1="232.9" y1="140.1" x2="198.4" y2="160.1" stroke="rgb(0,0,0)"  stroke-width="1.0"/>
<line x1="337.7" y1="80.2" x2="303.0" y2="100.5" stroke="rgb(0,0,0)"  stroke-width="1.0"/>
<line x1="176.1" y1="144.2" x2="199.9" y2="157.5" stroke="rgb(0,0,0)"  stroke-width="1.0"/>
<line x1="173.2" y1="149.5" x2="197.0" y2="162.7" stroke="rgb(0,0,0)"  stroke-width="1.0"/>
<line x1="189.1" y1="288.0" x2="168.6" y2="269.0" stroke="rgb(0,0,0)"  stroke-width="1.0"/>
<line x1="359.4" y1="96.1" x2="336.2" y2="82.8" stroke="rgb(0,0,0)"  stroke-width="1.0"/>
<line x1="362.4" y1="90.9" x2="339.2" y2="77.6" stroke="rgb(0,0,0)"  stroke-width="1.0"/>
<line x1="112.4" y1="326.0" x2="99.5" y2="302.0" stroke="rgb(0,0,0)"  stroke-width="1.0"/>
<line x1="337.7" y1="53.0" x2="337.7" y2="80.2" stroke="rgb(0,0,0)"  stroke-width="1.0"/>
<line x1="97.9" y1="371.6" x2="111.8" y2="348.6" stroke="rgb(0,0,0)"  stroke-width="1.0"/>
<line x1="110.3" y1="394.6" x2="97.9" y2="371.6" stroke="rgb(0,0,0)"  stroke-width="1.0"/>
<line x1="163.9" y1="220.6" x2="140.0" y2="209.4" stroke="rgb(0,0,0)"  stroke-width="1.0"/>
<line x1="119.2" y1="213.3" x2="100.3" y2="232.9" stroke="rgb(0,0,0)"  stroke-width="1.0"/>
<line x1="100.3" y1="232.9" x2="120.1" y2="267.8" stroke="rgb(0,0,0)"  stroke-width="1.0"/>
<line x1="109.6" y1="234.6" x2="123.4" y2="259.1" stroke="rgb(0,0,0)"  stroke-width="1.0"/>
<line x1="120.1" y1="267.8" x2="146.3" y2="262.7" stroke="rgb(0,0,0)"  stroke-width="1.0"/>
<line x1="160.7" y1="247.3" x2="163.9" y2="220.6" stroke="rgb(0,0,0)"  stroke-width="1.0"/>
<line x1="232.9" y1="140.1" x2="267.8" y2="159.7" stroke="rgb(0,0,0)"  stroke-width="1.0"/>
<line x1="241.7" y1="136.8" x2="266.1" y2="150.5" stroke="rgb(0,0,0)"  stroke-width="1.0"/>
<line x1="267.8" y1="159.7" x2="302.6" y2="140.1" stroke="rgb(0,0,0)"  stroke-width="1.0"/>
<line x1="302.6" y1="140.1" x2="303.0" y2="100.5" stroke="rgb(0,0,0)"  stroke-width="1.0"/>
<line x1="295.4" y1="134.0" x2="295.7" y2="106.5" stroke="rgb(0,0,0)"  stroke-width="1.0"/>
<line x1="303.0" y1="100.5" x2="268.1" y2="80.0" stroke="rgb(0,0,0)"  stroke-width="1.0"/>
<line x1="268.1" y1="80.0" x2="233.3" y2="99.9" stroke="rgb(0,0,0)"  stroke-width="1.0"/>
<line x1="266.4" y1="89.2" x2="242.1" y2="103.2" stroke="rgb(0,0,0)"  stroke-width="1.0"/>
<line x1="233.3" y1="99.9" x2="232.9" y2="140.1" stroke="rgb(0,0,0)"  stroke-width="1.0"/>
<line x1="99.5" y1="302.0" x2="60.0" y2="301.4" stroke="rgb(0,0,0)"  stroke-width="1.0"/>
<line x1="93.6" y1="294.7" x2="66.1" y2="294.2" stroke="rgb(0,0,0)"  stroke-width="1.0"/>
<line x1="60.0" y1="301.4" x2="40.0" y2="266.2" stroke="rgb(0,0,0)"  stroke-width="1.0"/>
<line x1="40.0" y1="266.2" x2="61.2" y2="232.1" stroke="rgb(0,0,0)"  stroke-width="1.0"/>
<line x1="49.3" y1="264.9" x2="64.1" y2="241.0" stroke="rgb(0,0,0)"  stroke-width="1.0"/>
<line x1="61.2" y1="232.1" x2="100.3" y2="232.9" stroke="rgb(0,0,0)"  stroke-width="1.0"/>
<line x1="120.1" y1="267.8" x2="99.5" y2="302.0" stroke="rgb(0,0,0)"  stroke-width="1.0"/>
<text x="192.425127" y="208.242030" fill="rgb(12,12,255)"  stroke="rgb(12,12,255)" stroke-width="1" font-size="16" >N</text>
<text x="153.075106" y="268.180370" fill="rgb(12,12,255)"  stroke="rgb(12,12,255)" stroke-width="1" font-size="16" >N</text>
<text x="122.197485" y="211.875834" fill="rgb(178,178,0)"  stroke="rgb(178,178,0)" stroke-width="1" font-size="16" >S</text>
<text x="153.181310" y="374.532303" fill="rgb(102,102,102)"  stroke="rgb(102,102,102)" stroke-width="1" font-size="16" >HC</text>
<text x="157.311306" y="148.502868" fill="rgb(255,12,12)"  stroke="rgb(255,12,12)" stroke-width="1" font-size="16" >O</text>
<text x="366.187047" y="107.938340" fill="rgb(255,12,12)"  stroke="rgb(255,12,12)" stroke-width="1" font-size="16" >O</text>
<text x="112.510579" y="345.471584" fill="rgb(255,12,12)"  stroke="rgb(255,12,12)" stroke-width="1" font-size="16" >O</text>
<text x="333.675621" y="48.000000" fill="rgb(102,102,102)"  stroke="rgb(102,102,102)" stroke-width="1" font-size="16" >CH</text>
<text x="357.675621" y="51.680000" fill="rgb(102,102,102)"  stroke="rgb(102,102,102)" stroke-width="1" font-size="13" >3</text>
<text x="112.489639" y="414.091219" fill="rgb(102,102,102)"  stroke="rgb(102,102,102)" stroke-width="1" font-size="16" >CH</text>
<text x="136.489639" y="417.771219" fill="rgb(102,102,102)"  stroke="rgb(102,102,102)" stroke-width="1" font-size="13" >3</text>
<text font-size="18.000000" fill ="black" font-family="sans-serif"
x="10.000000" y="20.000000" ></text>
<title> - OBDepict</title>
</svg>
