<?xml version="1.0"?>
<svg xmlns="http://www.w3.org/2000/svg"
xmlns:xlink="http://www.w3.org/1999/xlink" xmlns:cml="http://www.xml-cml.org/schema" width="322.582" height="339.951" x="0" y="0" font-family="sans-serif" stroke="rgb(0,0,0)" stroke-width="1"  stroke-linecap="round">
<rect x="0%" y="0%" width="100%" height="100%" stroke-width="0" fill="rgb(255,255,255)"  />
<line x1="144.0" y1="140.0" x2="144.0" y2="180.0" stroke="rgb(0,0,0)"  stroke-width="1.0"/>
<line x1="213.3" y1="60.0" x2="178.6" y2="80.0" stroke="rgb(0,0,0)"  stroke-width="1.0"/>
<line x1="236.6" y1="46.5" x2="213.3" y2="60.0" stroke="rgb(0,0,0)"  stroke-width="1.0"/>
<line x1="238.7" y1="50.1" x2="215.4" y2="63.6" stroke="rgb(0,0,0)"  stroke-width="1.0"/>
<line x1="234.5" y1="42.9" x2="211.2" y2="56.4" stroke="rgb(0,0,0)"  stroke-width="1.0"/>
<line x1="141.0" y1="287.0" x2="141.0" y2="260.0" stroke="rgb(0,0,0)"  stroke-width="1.0"/>
<line x1="147.0" y1="287.0" x2="147.0" y2="260.0" stroke="rgb(0,0,0)"  stroke-width="1.0"/>
<line x1="122.0" y1="123.9" x2="145.5" y2="137.4" stroke="rgb(0,0,0)"  stroke-width="1.0"/>
<line x1="119.1" y1="129.1" x2="142.5" y2="142.6" stroke="rgb(0,0,0)"  stroke-width="1.0"/>
<line x1="167.3" y1="126.5" x2="144.0" y2="140.0" stroke="rgb(0,0,0)"  stroke-width="1.0"/>
<line x1="213.3" y1="260.0" x2="189.8" y2="246.4" stroke="rgb(0,0,0)"  stroke-width="1.0"/>
<line x1="178.6" y1="80.0" x2="178.6" y2="107.0" stroke="rgb(0,0,0)"  stroke-width="1.0"/>
<line x1="247.8" y1="240.0" x2="213.3" y2="260.0" stroke="rgb(0,0,0)"  stroke-width="1.0"/>
<line x1="271.3" y1="253.5" x2="247.8" y2="240.0" stroke="rgb(0,0,0)"  stroke-width="1.0"/>
<line x1="144.0" y1="180.0" x2="167.2" y2="193.4" stroke="rgb(0,0,0)"  stroke-width="1.0"/>
<line x1="145.6" y1="189.2" x2="161.8" y2="198.6" stroke="rgb(0,0,0)"  stroke-width="1.0"/>
<line x1="178.6" y1="213.0" x2="178.6" y2="227.0" stroke="rgb(0,0,0)"  stroke-width="1.0"/>
<line x1="167.3" y1="246.5" x2="144.0" y2="260.0" stroke="rgb(0,0,0)"  stroke-width="1.0"/>
<line x1="144.0" y1="260.0" x2="109.3" y2="240.0" stroke="rgb(0,0,0)"  stroke-width="1.0"/>
<line x1="109.3" y1="240.0" x2="109.3" y2="200.0" stroke="rgb(0,0,0)"  stroke-width="1.0"/>
<line x1="116.5" y1="234.0" x2="116.5" y2="206.0" stroke="rgb(0,0,0)"  stroke-width="1.0"/>
<line x1="109.3" y1="200.0" x2="144.0" y2="180.0" stroke="rgb(0,0,0)"  stroke-width="1.0"/>
<line x1="74.7" y1="260.0" x2="40.0" y2="240.0" stroke="rgb(0,0,0)"  stroke-width="1.0"/>
<line x1="73.1" y1="250.7" x2="48.8" y2="236.7" stroke="rgb(0,0,0)"  stroke-width="1.0"/>
<line x1="40.0" y1="240.0" x2="40.0" y2="200.0" stroke="rgb(0,0,0)"  stroke-width="1.0"/>
<line x1="40.0" y1="200.0" x2="74.7" y2="180.0" stroke="rgb(0,0,0)"  stroke-width="1.0"/>
<line x1="48.8" y1="203.2" x2="73.1" y2="189.2" stroke="rgb(0,0,0)"  stroke-width="1.0"/>
<line x1="74.7" y1="180.0" x2="109.3" y2="200.0" stroke="rgb(0,0,0)"  stroke-width="1.0"/>
<line x1="109.3" y1="240.0" x2="74.7" y2="260.0" stroke="rgb(0,0,0)"  stroke-width="1.0"/>
<text x="172.558290" y="207.970037" fill="rgb(12,12,255)"  stroke="rgb(12,12,255)" stroke-width="1" font-size="16" >N</text>
<text x="172.558290" y="247.962546" fill="rgb(12,12,255)"  stroke="rgb(12,12,255)" stroke-width="1" font-size="16" >N</text>
<text x="241.839858" y="48.000000" fill="rgb(102,102,102)"  stroke="rgb(102,102,102)" stroke-width="1" font-size="16" >CH</text>
<text x="138.019304" y="307.951309" fill="rgb(255,12,12)"  stroke="rgb(255,12,12)" stroke-width="1" font-size="16" >O</text>
<text x="103.281569" y="127.985018" fill="rgb(255,12,12)"  stroke="rgb(255,12,12)" stroke-width="1" font-size="16" >O</text>
<text x="172.558290" y="127.985018" fill="rgb(12,12,255)"  stroke="rgb(12,12,255)" stroke-width="1" font-size="16" >NH</text>
<text x="278.582441" y="267.958800" fill="rgb(102,102,102)"  stroke="rgb(102,102,102)" stroke-width="1" font-size="16" >CH</text>
<text x="302.582441" y="271.638800" fill="rgb(102,102,102)"  stroke="rgb(102,102,102)" stroke-width="1" font-size="13" >3</text>
<text font-size="18.000000" fill ="black" font-family="sans-serif"
x="10.000000" y="20.000000" ></text>
<title> - OBDepict</title>
</svg>
