<?xml version="1.0"?>
<svg xmlns="http://www.w3.org/2000/svg"
xmlns:xlink="http://www.w3.org/1999/xlink" xmlns:cml="http://www.xml-cml.org/schema" width="464.215" height="299.19" x="0" y="0" font-family="sans-serif" stroke="rgb(0,0,0)" stroke-width="1"  stroke-linecap="round">
<rect x="0%" y="0%" width="100%" height="100%" stroke-width="0" fill="rgb(255,255,255)"  />
<line x1="245.9" y1="217.9" x2="205.9" y2="218.0" stroke="rgb(0,0,0)"  stroke-width="1.0"/>
<line x1="245.9" y1="211.9" x2="205.8" y2="212.0" stroke="rgb(0,0,0)"  stroke-width="1.0"/>
<line x1="265.5" y1="180.0" x2="245.9" y2="214.9" stroke="rgb(0,0,0)"  stroke-width="1.0"/>
<line x1="75.7" y1="189.0" x2="112.2" y2="172.5" stroke="rgb(0,0,0)"  stroke-width="1.0"/>
<line x1="51.5" y1="201.5" x2="75.7" y2="189.0" stroke="rgb(0,0,0)"  stroke-width="1.0"/>
<line x1="49.6" y1="197.8" x2="73.7" y2="185.3" stroke="rgb(0,0,0)"  stroke-width="1.0"/>
<line x1="53.5" y1="205.3" x2="77.6" y2="192.7" stroke="rgb(0,0,0)"  stroke-width="1.0"/>
<line x1="318.4" y1="86.0" x2="304.9" y2="109.8" stroke="rgb(0,0,0)"  stroke-width="1.0"/>
<line x1="121.3" y1="249.0" x2="142.9" y2="233.1" stroke="rgb(0,0,0)"  stroke-width="1.0"/>
<line x1="124.9" y1="253.9" x2="146.5" y2="237.9" stroke="rgb(0,0,0)"  stroke-width="1.0"/>
<line x1="193.1" y1="158.0" x2="184.9" y2="183.8" stroke="rgb(0,0,0)"  stroke-width="1.0"/>
<line x1="187.4" y1="156.2" x2="179.2" y2="181.9" stroke="rgb(0,0,0)"  stroke-width="1.0"/>
<line x1="112.2" y1="172.5" x2="134.1" y2="188.1" stroke="rgb(0,0,0)"  stroke-width="1.0"/>
<line x1="352.5" y1="144.5" x2="325.7" y2="144.7" stroke="rgb(0,0,0)"  stroke-width="1.0"/>
<line x1="251.7" y1="87.1" x2="265.2" y2="110.2" stroke="rgb(0,0,0)"  stroke-width="1.0"/>
<line x1="364.4" y1="74.7" x2="337.9" y2="74.7" stroke="rgb(0,0,0)"  stroke-width="1.0"/>
<line x1="258.6" y1="52.5" x2="251.6" y2="64.6" stroke="rgb(0,0,0)"  stroke-width="1.0"/>
<line x1="384.4" y1="40.2" x2="364.4" y2="74.7" stroke="rgb(0,0,0)"  stroke-width="1.0"/>
<line x1="378.2" y1="98.0" x2="364.4" y2="74.7" stroke="rgb(0,0,0)"  stroke-width="1.0"/>
<line x1="411.2" y1="40.1" x2="384.4" y2="40.2" stroke="rgb(0,0,0)"  stroke-width="1.0"/>
<line x1="144.7" y1="208.7" x2="144.7" y2="235.5" stroke="rgb(0,0,0)"  stroke-width="1.0"/>
<line x1="144.7" y1="235.5" x2="170.3" y2="243.7" stroke="rgb(0,0,0)"  stroke-width="1.0"/>
<line x1="190.2" y1="237.1" x2="205.9" y2="215.0" stroke="rgb(0,0,0)"  stroke-width="1.0"/>
<line x1="205.9" y1="215.0" x2="182.0" y2="182.9" stroke="rgb(0,0,0)"  stroke-width="1.0"/>
<line x1="182.0" y1="182.9" x2="157.0" y2="191.5" stroke="rgb(0,0,0)"  stroke-width="1.0"/>
<line x1="325.7" y1="144.7" x2="304.9" y2="109.8" stroke="rgb(0,0,0)"  stroke-width="1.0"/>
<line x1="304.9" y1="109.8" x2="265.2" y2="110.2" stroke="rgb(0,0,0)"  stroke-width="1.0"/>
<line x1="298.9" y1="117.1" x2="271.3" y2="117.3" stroke="rgb(0,0,0)"  stroke-width="1.0"/>
<line x1="265.2" y1="110.2" x2="245.0" y2="145.2" stroke="rgb(0,0,0)"  stroke-width="1.0"/>
<line x1="245.0" y1="145.2" x2="265.5" y2="180.0" stroke="rgb(0,0,0)"  stroke-width="1.0"/>
<line x1="254.3" y1="146.7" x2="268.7" y2="171.2" stroke="rgb(0,0,0)"  stroke-width="1.0"/>
<line x1="265.5" y1="180.0" x2="305.7" y2="179.4" stroke="rgb(0,0,0)"  stroke-width="1.0"/>
<line x1="305.7" y1="179.4" x2="325.7" y2="144.7" stroke="rgb(0,0,0)"  stroke-width="1.0"/>
<line x1="302.5" y1="170.6" x2="316.5" y2="146.3" stroke="rgb(0,0,0)"  stroke-width="1.0"/>
<text x="138.681428" y="203.687538" fill="rgb(12,12,255)"  stroke="rgb(12,12,255)" stroke-width="1" font-size="16" >N</text>
<text x="176.686076" y="255.693388" fill="rgb(178,178,0)"  stroke="rgb(178,178,0)" stroke-width="1" font-size="16" >S</text>
<text x="22.000000" y="215.519403" fill="rgb(102,102,102)"  stroke="rgb(102,102,102)" stroke-width="1" font-size="16" >HC</text>
<text x="318.872282" y="82.670566" fill="rgb(255,12,12)"  stroke="rgb(255,12,12)" stroke-width="1" font-size="16" >O</text>
<text x="106.680068" y="267.190388" fill="rgb(255,12,12)"  stroke="rgb(255,12,12)" stroke-width="1" font-size="16" >O</text>
<text x="188.187929" y="152.681428" fill="rgb(255,12,12)"  stroke="rgb(255,12,12)" stroke-width="1" font-size="16" >O</text>
<text x="359.541283" y="152.346563" fill="rgb(147,0,147)"  stroke="rgb(147,0,147)" stroke-width="1" font-size="16" >I</text>
<text x="239.194040" y="83.840164" fill="rgb(255,12,12)"  stroke="rgb(255,12,12)" stroke-width="1" font-size="16" >O</text>
<text x="261.028671" y="49.169598" fill="rgb(102,102,102)"  stroke="rgb(102,102,102)" stroke-width="1" font-size="16" >CH</text>
<text x="285.028671" y="52.849598" fill="rgb(102,102,102)"  stroke="rgb(102,102,102)" stroke-width="1" font-size="13" >3</text>
<text x="380.876045" y="117.176127" fill="rgb(102,102,102)"  stroke="rgb(102,102,102)" stroke-width="1" font-size="16" >CH</text>
<text x="404.876045" y="120.856127" fill="rgb(102,102,102)"  stroke="rgb(102,102,102)" stroke-width="1" font-size="13" >3</text>
<text x="420.215296" y="48.000000" fill="rgb(102,102,102)"  stroke="rgb(102,102,102)" stroke-width="1" font-size="16" >CH</text>
<text x="444.215296" y="51.680000" fill="rgb(102,102,102)"  stroke="rgb(102,102,102)" stroke-width="1" font-size="13" >3</text>
<text font-size="18.000000" fill ="black" font-family="sans-serif"
x="10.000000" y="20.000000" ></text>
<title> - OBDepict</title>
</svg>
