<?xml version="1.0"?>
<svg xmlns="http://www.w3.org/2000/svg"
xmlns:xlink="http://www.w3.org/1999/xlink" xmlns:cml="http://www.xml-cml.org/schema" width="351.704" height="369.644" x="0" y="0" font-family="sans-serif" stroke="rgb(0,0,0)" stroke-width="1"  stroke-linecap="round">
<rect x="0%" y="0%" width="100%" height="100%" stroke-width="0" fill="rgb(255,255,255)"  />
<line x1="145.6" y1="221.9" x2="130.0" y2="199.3" stroke="rgb(0,0,0)"  stroke-width="1.0"/>
<line x1="150.6" y1="218.5" x2="135.0" y2="195.9" stroke="rgb(0,0,0)"  stroke-width="1.0"/>
<line x1="195.6" y1="227.5" x2="168.4" y2="229.8" stroke="rgb(0,0,0)"  stroke-width="1.0"/>
<line x1="269.7" y1="233.5" x2="257.9" y2="257.7" stroke="rgb(0,0,0)"  stroke-width="1.0"/>
<line x1="218.0" y1="260.7" x2="195.6" y2="227.5" stroke="rgb(0,0,0)"  stroke-width="1.0"/>
<line x1="86.6" y1="266.8" x2="69.8" y2="230.3" stroke="rgb(0,0,0)"  stroke-width="1.0"/>
<line x1="97.7" y1="291.2" x2="86.6" y2="266.8" stroke="rgb(0,0,0)"  stroke-width="1.0"/>
<line x1="93.9" y1="293.0" x2="82.7" y2="268.5" stroke="rgb(0,0,0)"  stroke-width="1.0"/>
<line x1="101.5" y1="289.5" x2="90.4" y2="265.0" stroke="rgb(0,0,0)"  stroke-width="1.0"/>
<line x1="252.5" y1="207.0" x2="265.1" y2="213.3" stroke="rgb(0,0,0)"  stroke-width="1.0"/>
<line x1="249.8" y1="212.4" x2="262.5" y2="218.7" stroke="rgb(0,0,0)"  stroke-width="1.0"/>
<line x1="298.7" y1="236.5" x2="285.8" y2="230.2" stroke="rgb(0,0,0)"  stroke-width="1.0"/>
<line x1="301.3" y1="231.1" x2="288.4" y2="224.8" stroke="rgb(0,0,0)"  stroke-width="1.0"/>
<line x1="210.0" y1="204.8" x2="198.3" y2="228.8" stroke="rgb(0,0,0)"  stroke-width="1.0"/>
<line x1="204.6" y1="202.2" x2="192.9" y2="226.1" stroke="rgb(0,0,0)"  stroke-width="1.0"/>
<line x1="69.8" y1="230.3" x2="85.7" y2="207.8" stroke="rgb(0,0,0)"  stroke-width="1.0"/>
<line x1="287.6" y1="197.4" x2="281.2" y2="210.2" stroke="rgb(0,0,0)"  stroke-width="1.0"/>
<line x1="69.2" y1="52.9" x2="72.2" y2="79.9" stroke="rgb(0,0,0)"  stroke-width="1.0"/>
<line x1="132.5" y1="197.6" x2="106.2" y2="197.4" stroke="rgb(0,0,0)"  stroke-width="1.0"/>
<line x1="89.2" y1="184.9" x2="80.7" y2="159.1" stroke="rgb(0,0,0)"  stroke-width="1.0"/>
<line x1="80.7" y1="159.1" x2="112.8" y2="135.9" stroke="rgb(0,0,0)"  stroke-width="1.0"/>
<line x1="89.8" y1="161.4" x2="112.1" y2="145.3" stroke="rgb(0,0,0)"  stroke-width="1.0"/>
<line x1="112.8" y1="135.9" x2="134.7" y2="151.9" stroke="rgb(0,0,0)"  stroke-width="1.0"/>
<line x1="141.1" y1="171.9" x2="132.5" y2="197.6" stroke="rgb(0,0,0)"  stroke-width="1.0"/>
<line x1="218.0" y1="260.7" x2="257.9" y2="257.7" stroke="rgb(0,0,0)"  stroke-width="1.0"/>
<line x1="257.9" y1="257.7" x2="280.3" y2="290.9" stroke="rgb(0,0,0)"  stroke-width="1.0"/>
<line x1="255.3" y1="266.7" x2="270.9" y2="290.0" stroke="rgb(0,0,0)"  stroke-width="1.0"/>
<line x1="280.3" y1="290.9" x2="262.7" y2="326.6" stroke="rgb(0,0,0)"  stroke-width="1.0"/>
<line x1="262.7" y1="326.6" x2="222.8" y2="329.6" stroke="rgb(0,0,0)"  stroke-width="1.0"/>
<line x1="256.2" y1="319.9" x2="228.3" y2="322.0" stroke="rgb(0,0,0)"  stroke-width="1.0"/>
<line x1="222.8" y1="329.6" x2="200.4" y2="296.4" stroke="rgb(0,0,0)"  stroke-width="1.0"/>
<line x1="200.4" y1="296.4" x2="218.0" y2="260.7" stroke="rgb(0,0,0)"  stroke-width="1.0"/>
<line x1="209.6" y1="294.2" x2="221.8" y2="269.3" stroke="rgb(0,0,0)"  stroke-width="1.0"/>
<line x1="44.2" y1="142.8" x2="80.7" y2="159.1" stroke="rgb(0,0,0)"  stroke-width="1.0"/>
<line x1="112.8" y1="135.9" x2="108.5" y2="96.2" stroke="rgb(0,0,0)"  stroke-width="1.0"/>
<line x1="108.5" y1="96.2" x2="72.2" y2="79.9" stroke="rgb(0,0,0)"  stroke-width="1.0"/>
<line x1="100.1" y1="100.3" x2="74.8" y2="88.9" stroke="rgb(0,0,0)"  stroke-width="1.0"/>
<line x1="72.2" y1="79.9" x2="40.0" y2="103.3" stroke="rgb(0,0,0)"  stroke-width="1.0"/>
<line x1="40.0" y1="103.3" x2="44.2" y2="142.8" stroke="rgb(0,0,0)"  stroke-width="1.0"/>
<line x1="47.8" y1="108.5" x2="50.8" y2="136.1" stroke="rgb(0,0,0)"  stroke-width="1.0"/>
<text x="149.493385" y="238.880460" fill="rgb(12,12,255)"  stroke="rgb(12,12,255)" stroke-width="1" font-size="16" >N</text>
<text x="87.211840" y="205.217902" fill="rgb(12,12,255)"  stroke="rgb(12,12,255)" stroke-width="1" font-size="16" >N</text>
<text x="139.212449" y="167.524365" fill="rgb(178,178,0)"  stroke="rgb(178,178,0)" stroke-width="1" font-size="16" >S</text>
<text x="269.424725" y="229.810755" fill="rgb(178,178,0)"  stroke="rgb(178,178,0)" stroke-width="1" font-size="16" >S</text>
<text x="97.090648" y="311.040812" fill="rgb(102,102,102)"  stroke="rgb(102,102,102)" stroke-width="1" font-size="16" >CH</text>
<text x="233.543190" y="211.869988" fill="rgb(255,12,12)"  stroke="rgb(255,12,12)" stroke-width="1" font-size="16" >O</text>
<text x="305.703543" y="247.548035" fill="rgb(255,12,12)"  stroke="rgb(255,12,12)" stroke-width="1" font-size="16" >O</text>
<text x="206.939693" y="199.777049" fill="rgb(255,12,12)"  stroke="rgb(255,12,12)" stroke-width="1" font-size="16" >O</text>
<text x="289.360647" y="193.730579" fill="rgb(102,102,102)"  stroke="rgb(102,102,102)" stroke-width="1" font-size="16" >CH</text>
<text x="313.360647" y="197.410579" fill="rgb(102,102,102)"  stroke="rgb(102,102,102)" stroke-width="1" font-size="13" >3</text>
<text x="41.814730" y="48.000000" fill="rgb(102,102,102)"  stroke="rgb(102,102,102)" stroke-width="1" font-size="16" >H</text>
<text x="53.814730" y="51.680000" fill="rgb(102,102,102)"  stroke="rgb(102,102,102)" stroke-width="1" font-size="13" >3</text>
<text x="60.314730" y="48.000000" fill="rgb(102,102,102)"  stroke="rgb(102,102,102)" stroke-width="1" font-size="16" >C</text>
<text font-size="18.000000" fill ="black" font-family="sans-serif"
x="10.000000" y="20.000000" ></text>
<title> - OBDepict</title>
</svg>
