<?xml version="1.0"?>
<svg xmlns="http://www.w3.org/2000/svg"
xmlns:xlink="http://www.w3.org/1999/xlink" xmlns:cml="http://www.xml-cml.org/schema" width="258.597" height="519.815" x="0" y="0" font-family="sans-serif" stroke="rgb(0,0,0)" stroke-width="1"  stroke-linecap="round">
<rect x="0%" y="0%" width="100%" height="100%" stroke-width="0" fill="rgb(255,255,255)"  />
<line x1="80.0" y1="339.8" x2="80.0" y2="299.8" stroke="rgb(0,0,0)"  stroke-width="1.0"/>
<line x1="103.5" y1="353.3" x2="80.0" y2="339.8" stroke="rgb(0,0,0)"  stroke-width="1.0"/>
<line x1="80.0" y1="219.8" x2="80.0" y2="192.8" stroke="rgb(0,0,0)"  stroke-width="1.0"/>
<line x1="114.8" y1="399.8" x2="114.8" y2="372.8" stroke="rgb(0,0,0)"  stroke-width="1.0"/>
<line x1="114.8" y1="80.0" x2="114.8" y2="119.8" stroke="rgb(0,0,0)"  stroke-width="1.0"/>
<line x1="114.8" y1="53.0" x2="114.8" y2="80.0" stroke="rgb(0,0,0)"  stroke-width="1.0"/>
<line x1="119.0" y1="53.0" x2="119.0" y2="80.0" stroke="rgb(0,0,0)"  stroke-width="1.0"/>
<line x1="110.6" y1="53.0" x2="110.6" y2="80.0" stroke="rgb(0,0,0)"  stroke-width="1.0"/>
<line x1="149.3" y1="419.8" x2="114.8" y2="399.8" stroke="rgb(0,0,0)"  stroke-width="1.0"/>
<line x1="107.0" y1="182.8" x2="93.0" y2="182.8" stroke="rgb(0,0,0)"  stroke-width="1.0"/>
<line x1="107.0" y1="176.8" x2="93.0" y2="176.8" stroke="rgb(0,0,0)"  stroke-width="1.0"/>
<line x1="53.0" y1="176.8" x2="67.0" y2="176.8" stroke="rgb(0,0,0)"  stroke-width="1.0"/>
<line x1="53.0" y1="182.8" x2="67.0" y2="182.8" stroke="rgb(0,0,0)"  stroke-width="1.0"/>
<line x1="80.0" y1="152.8" x2="80.0" y2="166.8" stroke="rgb(0,0,0)"  stroke-width="1.0"/>
<line x1="55.2" y1="350.7" x2="78.5" y2="337.2" stroke="rgb(0,0,0)"  stroke-width="1.0"/>
<line x1="58.2" y1="355.9" x2="81.5" y2="342.4" stroke="rgb(0,0,0)"  stroke-width="1.0"/>
<line x1="114.8" y1="119.8" x2="91.3" y2="133.3" stroke="rgb(0,0,0)"  stroke-width="1.0"/>
<line x1="91.3" y1="413.3" x2="114.8" y2="399.8" stroke="rgb(0,0,0)"  stroke-width="1.0"/>
<line x1="183.8" y1="372.8" x2="183.8" y2="399.8" stroke="rgb(0,0,0)"  stroke-width="1.0"/>
<line x1="80.0" y1="219.8" x2="114.8" y2="239.8" stroke="rgb(0,0,0)"  stroke-width="1.0"/>
<line x1="114.8" y1="239.8" x2="114.8" y2="279.8" stroke="rgb(0,0,0)"  stroke-width="1.0"/>
<line x1="107.6" y1="245.8" x2="107.6" y2="273.8" stroke="rgb(0,0,0)"  stroke-width="1.0"/>
<line x1="114.8" y1="279.8" x2="80.0" y2="299.8" stroke="rgb(0,0,0)"  stroke-width="1.0"/>
<line x1="80.0" y1="299.8" x2="45.5" y2="279.8" stroke="rgb(0,0,0)"  stroke-width="1.0"/>
<line x1="78.4" y1="290.6" x2="54.3" y2="276.6" stroke="rgb(0,0,0)"  stroke-width="1.0"/>
<line x1="45.5" y1="279.8" x2="45.5" y2="239.8" stroke="rgb(0,0,0)"  stroke-width="1.0"/>
<line x1="45.5" y1="239.8" x2="80.0" y2="219.8" stroke="rgb(0,0,0)"  stroke-width="1.0"/>
<line x1="54.3" y1="243.0" x2="78.4" y2="229.0" stroke="rgb(0,0,0)"  stroke-width="1.0"/>
<line x1="149.3" y1="419.8" x2="183.8" y2="399.8" stroke="rgb(0,0,0)"  stroke-width="1.0"/>
<line x1="158.1" y1="423.0" x2="182.3" y2="409.0" stroke="rgb(0,0,0)"  stroke-width="1.0"/>
<line x1="183.8" y1="399.8" x2="218.6" y2="419.8" stroke="rgb(0,0,0)"  stroke-width="1.0"/>
<line x1="218.6" y1="419.8" x2="218.6" y2="459.8" stroke="rgb(0,0,0)"  stroke-width="1.0"/>
<line x1="211.4" y1="425.8" x2="211.4" y2="453.8" stroke="rgb(0,0,0)"  stroke-width="1.0"/>
<line x1="218.6" y1="459.8" x2="183.8" y2="479.8" stroke="rgb(0,0,0)"  stroke-width="1.0"/>
<line x1="183.8" y1="479.8" x2="149.3" y2="459.8" stroke="rgb(0,0,0)"  stroke-width="1.0"/>
<line x1="182.3" y1="470.6" x2="158.1" y2="456.6" stroke="rgb(0,0,0)"  stroke-width="1.0"/>
<line x1="149.3" y1="459.8" x2="149.3" y2="419.8" stroke="rgb(0,0,0)"  stroke-width="1.0"/>
<text x="74.001715" y="187.802358" fill="rgb(178,178,0)"  stroke="rgb(178,178,0)" stroke-width="1" font-size="16" >S</text>
<text x="108.752296" y="367.810077" fill="rgb(12,12,255)"  stroke="rgb(12,12,255)" stroke-width="1" font-size="16" >NH</text>
<text x="108.752296" y="48.000000" fill="rgb(102,102,102)"  stroke="rgb(102,102,102)" stroke-width="1" font-size="16" >CH</text>
<text x="114.003430" y="187.802358" fill="rgb(255,12,12)"  stroke="rgb(255,12,12)" stroke-width="1" font-size="16" >O</text>
<text x="34.000000" y="187.802358" fill="rgb(255,12,12)"  stroke="rgb(255,12,12)" stroke-width="1" font-size="16" >O</text>
<text x="62.001715" y="147.800643" fill="rgb(12,12,255)"  stroke="rgb(12,12,255)" stroke-width="1" font-size="16" >HN</text>
<text x="39.454779" y="367.810077" fill="rgb(255,12,12)"  stroke="rgb(255,12,12)" stroke-width="1" font-size="16" >O</text>
<text x="54.001715" y="427.812650" fill="rgb(102,102,102)"  stroke="rgb(102,102,102)" stroke-width="1" font-size="16" >H</text>
<text x="66.001715" y="431.492650" fill="rgb(102,102,102)"  stroke="rgb(102,102,102)" stroke-width="1" font-size="13" >3</text>
<text x="72.501715" y="427.812650" fill="rgb(102,102,102)"  stroke="rgb(102,102,102)" stroke-width="1" font-size="16" >C</text>
<text x="179.846168" y="367.810077" fill="rgb(102,102,102)"  stroke="rgb(102,102,102)" stroke-width="1" font-size="16" >CH</text>
<text x="203.846168" y="371.490077" fill="rgb(102,102,102)"  stroke="rgb(102,102,102)" stroke-width="1" font-size="13" >3</text>
<text font-size="18.000000" fill ="black" font-family="sans-serif"
x="10.000000" y="20.000000" ></text>
<title> - OBDepict</title>
</svg>
