<?xml version="1.0"?>
<svg xmlns="http://www.w3.org/2000/svg"
xmlns:xlink="http://www.w3.org/1999/xlink" xmlns:cml="http://www.xml-cml.org/schema" width="318.798" height="297.039" x="0" y="0" font-family="sans-serif" stroke="rgb(0,0,0)" stroke-width="1"  stroke-linecap="round">
<rect x="0%" y="0%" width="100%" height="100%" stroke-width="0" fill="rgb(255,255,255)"  />
<line x1="177.4" y1="196.3" x2="177.4" y2="223.1" stroke="rgb(0,0,0)"  stroke-width="1.0"/>
<line x1="171.4" y1="196.3" x2="171.4" y2="223.1" stroke="rgb(0,0,0)"  stroke-width="1.0"/>
<line x1="220.3" y1="184.1" x2="243.7" y2="197.4" stroke="rgb(0,0,0)"  stroke-width="1.0"/>
<line x1="209.0" y1="138.7" x2="231.4" y2="125.4" stroke="rgb(0,0,0)"  stroke-width="1.0"/>
<line x1="243.7" y1="197.4" x2="243.7" y2="236.8" stroke="rgb(0,0,0)"  stroke-width="1.0"/>
<line x1="242.4" y1="105.7" x2="242.1" y2="78.7" stroke="rgb(0,0,0)"  stroke-width="1.0"/>
<line x1="245.2" y1="234.2" x2="269.0" y2="247.9" stroke="rgb(0,0,0)"  stroke-width="1.0"/>
<line x1="242.2" y1="239.4" x2="266.0" y2="253.1" stroke="rgb(0,0,0)"  stroke-width="1.0"/>
<line x1="242.1" y1="78.7" x2="207.5" y2="59.2" stroke="rgb(0,0,0)"  stroke-width="1.0"/>
<line x1="207.5" y1="59.2" x2="184.6" y2="46.4" stroke="rgb(0,0,0)"  stroke-width="1.0"/>
<line x1="205.4" y1="62.9" x2="182.5" y2="50.0" stroke="rgb(0,0,0)"  stroke-width="1.0"/>
<line x1="209.5" y1="55.5" x2="186.6" y2="42.7" stroke="rgb(0,0,0)"  stroke-width="1.0"/>
<line x1="107.0" y1="196.6" x2="74.6" y2="215.0" stroke="rgb(0,0,0)"  stroke-width="1.0"/>
<line x1="74.6" y1="215.0" x2="74.6" y2="254.0" stroke="rgb(0,0,0)"  stroke-width="1.0"/>
<line x1="74.6" y1="254.0" x2="140.9" y2="254.0" stroke="rgb(0,0,0)"  stroke-width="1.0"/>
<line x1="140.9" y1="254.0" x2="140.9" y2="215.3" stroke="rgb(0,0,0)"  stroke-width="1.0"/>
<line x1="140.9" y1="215.3" x2="107.0" y2="196.6" stroke="rgb(0,0,0)"  stroke-width="1.0"/>
<line x1="107.0" y1="196.6" x2="73.4" y2="177.7" stroke="rgb(0,0,0)"  stroke-width="1.0"/>
<line x1="73.4" y1="177.7" x2="73.4" y2="138.7" stroke="rgb(0,0,0)"  stroke-width="1.0"/>
<line x1="73.4" y1="138.7" x2="107.0" y2="118.7" stroke="rgb(0,0,0)"  stroke-width="1.0"/>
<line x1="107.0" y1="118.7" x2="140.9" y2="138.7" stroke="rgb(0,0,0)"  stroke-width="1.0"/>
<line x1="140.9" y1="138.7" x2="140.9" y2="177.7" stroke="rgb(0,0,0)"  stroke-width="1.0"/>
<line x1="133.7" y1="144.7" x2="133.7" y2="171.7" stroke="rgb(0,0,0)"  stroke-width="1.0"/>
<line x1="140.9" y1="177.7" x2="107.0" y2="196.6" stroke="rgb(0,0,0)"  stroke-width="1.0"/>
<line x1="40.0" y1="118.7" x2="73.4" y2="138.7" stroke="rgb(0,0,0)"  stroke-width="1.0"/>
<line x1="48.8" y1="115.6" x2="72.0" y2="129.5" stroke="rgb(0,0,0)"  stroke-width="1.0"/>
<line x1="107.0" y1="118.7" x2="107.0" y2="80.3" stroke="rgb(0,0,0)"  stroke-width="1.0"/>
<line x1="99.8" y1="112.7" x2="99.8" y2="86.3" stroke="rgb(0,0,0)"  stroke-width="1.0"/>
<line x1="107.0" y1="80.3" x2="73.4" y2="60.8" stroke="rgb(0,0,0)"  stroke-width="1.0"/>
<line x1="73.4" y1="60.8" x2="40.0" y2="80.3" stroke="rgb(0,0,0)"  stroke-width="1.0"/>
<line x1="71.9" y1="70.1" x2="48.8" y2="83.5" stroke="rgb(0,0,0)"  stroke-width="1.0"/>
<line x1="40.0" y1="80.3" x2="40.0" y2="118.7" stroke="rgb(0,0,0)"  stroke-width="1.0"/>
<line x1="140.9" y1="177.7" x2="174.4" y2="196.3" stroke="rgb(0,0,0)"  stroke-width="1.0"/>
<line x1="174.4" y1="196.3" x2="197.5" y2="183.8" stroke="rgb(0,0,0)"  stroke-width="1.0"/>
<line x1="209.0" y1="164.7" x2="209.0" y2="138.7" stroke="rgb(0,0,0)"  stroke-width="1.0"/>
<line x1="209.0" y1="138.7" x2="185.8" y2="125.3" stroke="rgb(0,0,0)"  stroke-width="1.0"/>
<line x1="200.2" y1="141.9" x2="184.0" y2="132.5" stroke="rgb(0,0,0)"  stroke-width="1.0"/>
<line x1="163.3" y1="125.4" x2="140.9" y2="138.7" stroke="rgb(0,0,0)"  stroke-width="1.0"/>
<text x="168.443012" y="126.700882" fill="rgb(12,12,255)"  stroke="rgb(12,12,255)" stroke-width="1" font-size="16" >N</text>
<text x="202.959037" y="185.662808" fill="rgb(12,12,255)"  stroke="rgb(12,12,255)" stroke-width="1" font-size="16" >N</text>
<text x="168.443012" y="244.086528" fill="rgb(255,12,12)"  stroke="rgb(255,12,12)" stroke-width="1" font-size="16" >O</text>
<text x="236.535562" y="126.700882" fill="rgb(178,178,0)"  stroke="rgb(178,178,0)" stroke-width="1" font-size="16" >S</text>
<text x="274.798398" y="265.038808" fill="rgb(102,102,102)"  stroke="rgb(102,102,102)" stroke-width="1" font-size="16" >CH</text>
<text x="298.798398" y="268.718808" fill="rgb(102,102,102)"  stroke="rgb(102,102,102)" stroke-width="1" font-size="13" >2</text>
<text x="155.234408" y="48.000000" fill="rgb(102,102,102)"  stroke="rgb(102,102,102)" stroke-width="1" font-size="16" >HC</text>
<text font-size="18.000000" fill ="black" font-family="sans-serif"
x="10.000000" y="20.000000" ></text>
<title> - OBDepict</title>
</svg>
