<?xml version="1.0"?>
<svg xmlns="http://www.w3.org/2000/svg"
xmlns:xlink="http://www.w3.org/1999/xlink" xmlns:cml="http://www.xml-cml.org/schema" width="372.71" height="271.413" x="0" y="0" font-family="sans-serif" stroke="rgb(0,0,0)" stroke-width="1"  stroke-linecap="round">
<rect x="0%" y="0%" width="100%" height="100%" stroke-width="0" fill="rgb(255,255,255)"  />
<line x1="138.6" y1="135.8" x2="178.5" y2="135.8" stroke="rgb(0,0,0)"  stroke-width="1.0"/>
<line x1="138.6" y1="135.8" x2="118.8" y2="170.3" stroke="rgb(0,0,0)"  stroke-width="1.0"/>
<line x1="138.6" y1="135.8" x2="118.8" y2="101.4" stroke="rgb(0,0,0)"  stroke-width="1.0"/>
<line x1="130.8" y1="208.2" x2="156.5" y2="216.8" stroke="rgb(0,0,0)"  stroke-width="1.0"/>
<line x1="78.7" y1="170.2" x2="52.5" y2="162.9" stroke="rgb(0,0,0)"  stroke-width="1.0"/>
<line x1="131.1" y1="63.2" x2="156.9" y2="55.0" stroke="rgb(0,0,0)"  stroke-width="1.0"/>
<line x1="78.7" y1="101.2" x2="55.3" y2="114.4" stroke="rgb(0,0,0)"  stroke-width="1.0"/>
<line x1="251.4" y1="161.9" x2="269.1" y2="179.3" stroke="rgb(0,0,0)"  stroke-width="1.0"/>
<line x1="269.1" y1="179.3" x2="305.7" y2="169.7" stroke="rgb(0,0,0)"  stroke-width="1.0"/>
<line x1="305.7" y1="169.7" x2="323.5" y2="187.5" stroke="rgb(0,0,0)"  stroke-width="1.0"/>
<line x1="308.6" y1="166.7" x2="326.5" y2="184.5" stroke="rgb(0,0,0)"  stroke-width="1.0"/>
<line x1="302.7" y1="172.6" x2="320.5" y2="190.5" stroke="rgb(0,0,0)"  stroke-width="1.0"/>
<line x1="178.5" y1="135.8" x2="225.2" y2="89.2" stroke="rgb(0,0,0)"  stroke-width="1.0"/>
<line x1="225.2" y1="89.2" x2="251.8" y2="115.9" stroke="rgb(0,0,0)"  stroke-width="1.0"/>
<line x1="224.4" y1="98.6" x2="242.4" y2="116.7" stroke="rgb(0,0,0)"  stroke-width="1.0"/>
<line x1="251.8" y1="115.9" x2="245.4" y2="140.2" stroke="rgb(0,0,0)"  stroke-width="1.0"/>
<line x1="229.5" y1="156.1" x2="205.5" y2="162.5" stroke="rgb(0,0,0)"  stroke-width="1.0"/>
<line x1="205.5" y1="162.5" x2="178.5" y2="135.8" stroke="rgb(0,0,0)"  stroke-width="1.0"/>
<line x1="206.3" y1="153.2" x2="187.8" y2="134.9" stroke="rgb(0,0,0)"  stroke-width="1.0"/>
<line x1="118.8" y1="170.3" x2="130.8" y2="208.2" stroke="rgb(0,0,0)"  stroke-width="1.0"/>
<line x1="130.8" y1="208.2" x2="109.2" y2="223.8" stroke="rgb(0,0,0)"  stroke-width="1.0"/>
<line x1="121.7" y1="205.9" x2="106.6" y2="216.7" stroke="rgb(0,0,0)"  stroke-width="1.0"/>
<line x1="88.1" y1="223.7" x2="77.2" y2="215.6" stroke="rgb(0,0,0)"  stroke-width="1.0"/>
<line x1="70.6" y1="195.5" x2="78.7" y2="170.2" stroke="rgb(0,0,0)"  stroke-width="1.0"/>
<line x1="78.7" y1="170.2" x2="118.8" y2="170.3" stroke="rgb(0,0,0)"  stroke-width="1.0"/>
<line x1="84.7" y1="177.4" x2="112.7" y2="177.5" stroke="rgb(0,0,0)"  stroke-width="1.0"/>
<line x1="118.8" y1="101.4" x2="131.1" y2="63.2" stroke="rgb(0,0,0)"  stroke-width="1.0"/>
<line x1="131.1" y1="63.2" x2="109.4" y2="47.7" stroke="rgb(0,0,0)"  stroke-width="1.0"/>
<line x1="122.0" y1="65.6" x2="106.9" y2="54.7" stroke="rgb(0,0,0)"  stroke-width="1.0"/>
<line x1="88.2" y1="47.6" x2="77.2" y2="55.6" stroke="rgb(0,0,0)"  stroke-width="1.0"/>
<line x1="70.6" y1="75.6" x2="78.7" y2="101.2" stroke="rgb(0,0,0)"  stroke-width="1.0"/>
<line x1="78.7" y1="101.2" x2="118.8" y2="101.4" stroke="rgb(0,0,0)"  stroke-width="1.0"/>
<line x1="84.7" y1="94.1" x2="112.8" y2="94.2" stroke="rgb(0,0,0)"  stroke-width="1.0"/>
<line x1="288.7" y1="106.2" x2="251.8" y2="115.9" stroke="rgb(0,0,0)"  stroke-width="1.0"/>
<line x1="225.2" y1="89.2" x2="234.9" y2="52.3" stroke="rgb(0,0,0)"  stroke-width="1.0"/>
<line x1="234.9" y1="52.3" x2="271.5" y2="42.5" stroke="rgb(0,0,0)"  stroke-width="1.0"/>
<line x1="242.6" y1="57.7" x2="267.5" y2="51.0" stroke="rgb(0,0,0)"  stroke-width="1.0"/>
<line x1="271.5" y1="42.5" x2="298.8" y2="69.4" stroke="rgb(0,0,0)"  stroke-width="1.0"/>
<line x1="298.8" y1="69.4" x2="288.7" y2="106.2" stroke="rgb(0,0,0)"  stroke-width="1.0"/>
<line x1="290.3" y1="73.2" x2="283.3" y2="98.5" stroke="rgb(0,0,0)"  stroke-width="1.0"/>
<text x="236.092178" y="160.807609" fill="rgb(12,12,255)"  stroke="rgb(12,12,255)" stroke-width="1" font-size="16" >N</text>
<text x="92.576606" y="239.413449" fill="rgb(12,12,255)"  stroke="rgb(12,12,255)" stroke-width="1" font-size="16" >N</text>
<text x="164.832921" y="228.898342" fill="rgb(102,102,102)"  stroke="rgb(102,102,102)" stroke-width="1" font-size="16" >CH</text>
<text x="188.832921" y="232.578342" fill="rgb(102,102,102)"  stroke="rgb(102,102,102)" stroke-width="1" font-size="13" >3</text>
<text x="48.699229" y="215.875971" fill="rgb(12,12,255)"  stroke="rgb(12,12,255)" stroke-width="1" font-size="16" >HN</text>
<text x="22.000000" y="167.482416" fill="rgb(255,12,12)"  stroke="rgb(255,12,12)" stroke-width="1" font-size="16" >HO</text>
<text x="92.740228" y="48.000000" fill="rgb(12,12,255)"  stroke="rgb(12,12,255)" stroke-width="1" font-size="16" >N</text>
<text x="165.328599" y="59.015597" fill="rgb(102,102,102)"  stroke="rgb(102,102,102)" stroke-width="1" font-size="16" >CH</text>
<text x="189.328599" y="62.695597" fill="rgb(102,102,102)"  stroke="rgb(102,102,102)" stroke-width="1" font-size="13" >3</text>
<text x="48.699229" y="71.195797" fill="rgb(12,12,255)"  stroke="rgb(12,12,255)" stroke-width="1" font-size="16" >HN</text>
<text x="26.003922" y="128.766610" fill="rgb(255,12,12)"  stroke="rgb(255,12,12)" stroke-width="1" font-size="16" >HO</text>
<text x="326.709783" y="204.696752" fill="rgb(102,102,102)"  stroke="rgb(102,102,102)" stroke-width="1" font-size="16" >CH</text>
<text font-size="18.000000" fill ="black" font-family="sans-serif"
x="10.000000" y="20.000000" ></text>
<title> - OBDepict</title>
</svg>
