<?xml version="1.0"?>
<svg xmlns="http://www.w3.org/2000/svg"
xmlns:xlink="http://www.w3.org/1999/xlink" xmlns:cml="http://www.xml-cml.org/schema" width="578.498" height="319.958" x="0" y="0" font-family="sans-serif" stroke="rgb(0,0,0)" stroke-width="1"  stroke-linecap="round">
<rect x="0%" y="0%" width="100%" height="100%" stroke-width="0" fill="rgb(255,255,255)"  />
<line x1="296.1" y1="100.0" x2="330.7" y2="120.0" stroke="rgb(0,0,0)"  stroke-width="1.0"/>
<line x1="272.6" y1="113.5" x2="296.1" y2="100.0" stroke="rgb(0,0,0)"  stroke-width="1.0"/>
<line x1="399.9" y1="160.0" x2="423.4" y2="173.5" stroke="rgb(0,0,0)"  stroke-width="1.0"/>
<line x1="504.0" y1="260.0" x2="469.2" y2="240.0" stroke="rgb(0,0,0)"  stroke-width="1.0"/>
<line x1="527.2" y1="273.4" x2="504.0" y2="260.0" stroke="rgb(0,0,0)"  stroke-width="1.0"/>
<line x1="525.1" y1="277.1" x2="501.9" y2="263.6" stroke="rgb(0,0,0)"  stroke-width="1.0"/>
<line x1="529.4" y1="269.8" x2="506.1" y2="256.3" stroke="rgb(0,0,0)"  stroke-width="1.0"/>
<line x1="450.8" y1="158.2" x2="443.8" y2="170.2" stroke="rgb(0,0,0)"  stroke-width="1.0"/>
<line x1="445.6" y1="155.2" x2="438.6" y2="167.2" stroke="rgb(0,0,0)"  stroke-width="1.0"/>
<line x1="418.6" y1="202.0" x2="425.6" y2="189.7" stroke="rgb(0,0,0)"  stroke-width="1.0"/>
<line x1="423.8" y1="204.9" x2="430.8" y2="192.7" stroke="rgb(0,0,0)"  stroke-width="1.0"/>
<line x1="458.0" y1="193.5" x2="445.9" y2="186.5" stroke="rgb(0,0,0)"  stroke-width="1.0"/>
<line x1="226.8" y1="100.0" x2="250.1" y2="113.5" stroke="rgb(0,0,0)"  stroke-width="1.0"/>
<line x1="299.1" y1="73.0" x2="299.1" y2="100.0" stroke="rgb(0,0,0)"  stroke-width="1.0"/>
<line x1="293.1" y1="73.0" x2="293.1" y2="100.0" stroke="rgb(0,0,0)"  stroke-width="1.0"/>
<line x1="469.2" y1="240.0" x2="469.2" y2="213.0" stroke="rgb(0,0,0)"  stroke-width="1.0"/>
<line x1="96.0" y1="80.0" x2="119.4" y2="47.7" stroke="rgb(0,0,0)"  stroke-width="1.0"/>
<line x1="119.4" y1="47.7" x2="157.6" y2="60.0" stroke="rgb(0,0,0)"  stroke-width="1.0"/>
<line x1="157.6" y1="60.0" x2="157.6" y2="100.0" stroke="rgb(0,0,0)"  stroke-width="1.0"/>
<line x1="150.4" y1="66.0" x2="150.4" y2="94.0" stroke="rgb(0,0,0)"  stroke-width="1.0"/>
<line x1="157.6" y1="100.0" x2="119.4" y2="112.5" stroke="rgb(0,0,0)"  stroke-width="1.0"/>
<line x1="119.4" y1="112.5" x2="96.0" y2="80.0" stroke="rgb(0,0,0)"  stroke-width="1.0"/>
<line x1="121.7" y1="103.4" x2="105.3" y2="80.7" stroke="rgb(0,0,0)"  stroke-width="1.0"/>
<line x1="399.9" y1="160.0" x2="365.4" y2="180.0" stroke="rgb(0,0,0)"  stroke-width="1.0"/>
<line x1="365.4" y1="180.0" x2="330.7" y2="160.0" stroke="rgb(0,0,0)"  stroke-width="1.0"/>
<line x1="363.8" y1="170.7" x2="339.4" y2="156.7" stroke="rgb(0,0,0)"  stroke-width="1.0"/>
<line x1="330.7" y1="160.0" x2="330.7" y2="120.0" stroke="rgb(0,0,0)"  stroke-width="1.0"/>
<line x1="330.7" y1="120.0" x2="365.4" y2="100.0" stroke="rgb(0,0,0)"  stroke-width="1.0"/>
<line x1="339.4" y1="123.2" x2="363.8" y2="109.2" stroke="rgb(0,0,0)"  stroke-width="1.0"/>
<line x1="365.4" y1="100.0" x2="399.9" y2="120.0" stroke="rgb(0,0,0)"  stroke-width="1.0"/>
<line x1="399.9" y1="120.0" x2="399.9" y2="160.0" stroke="rgb(0,0,0)"  stroke-width="1.0"/>
<line x1="392.7" y1="126.0" x2="392.7" y2="154.0" stroke="rgb(0,0,0)"  stroke-width="1.0"/>
<line x1="157.6" y1="60.0" x2="192.1" y2="40.0" stroke="rgb(0,0,0)"  stroke-width="1.0"/>
<line x1="192.1" y1="40.0" x2="226.8" y2="60.0" stroke="rgb(0,0,0)"  stroke-width="1.0"/>
<line x1="193.7" y1="49.2" x2="218.0" y2="63.2" stroke="rgb(0,0,0)"  stroke-width="1.0"/>
<line x1="226.8" y1="60.0" x2="226.8" y2="100.0" stroke="rgb(0,0,0)"  stroke-width="1.0"/>
<line x1="226.8" y1="100.0" x2="192.1" y2="120.0" stroke="rgb(0,0,0)"  stroke-width="1.0"/>
<line x1="218.0" y1="96.7" x2="193.7" y2="110.8" stroke="rgb(0,0,0)"  stroke-width="1.0"/>
<line x1="192.1" y1="120.0" x2="157.6" y2="100.0" stroke="rgb(0,0,0)"  stroke-width="1.0"/>
<line x1="56.2" y1="84.2" x2="96.0" y2="80.0" stroke="rgb(0,0,0)"  stroke-width="1.0"/>
<line x1="119.4" y1="112.5" x2="103.2" y2="149.1" stroke="rgb(0,0,0)"  stroke-width="1.0"/>
<line x1="103.2" y1="149.1" x2="63.4" y2="153.1" stroke="rgb(0,0,0)"  stroke-width="1.0"/>
<line x1="96.5" y1="142.5" x2="68.7" y2="145.3" stroke="rgb(0,0,0)"  stroke-width="1.0"/>
<line x1="63.4" y1="153.1" x2="40.0" y2="120.8" stroke="rgb(0,0,0)"  stroke-width="1.0"/>
<line x1="40.0" y1="120.8" x2="56.2" y2="84.2" stroke="rgb(0,0,0)"  stroke-width="1.0"/>
<line x1="49.0" y1="118.2" x2="60.3" y2="92.6" stroke="rgb(0,0,0)"  stroke-width="1.0"/>
<text x="428.680438" y="187.975652" fill="rgb(178,178,0)"  stroke="rgb(178,178,0)" stroke-width="1" font-size="16" >S</text>
<text x="255.377250" y="127.986087" fill="rgb(12,12,255)"  stroke="rgb(12,12,255)" stroke-width="1" font-size="16" >N</text>
<text x="255.377250" y="143.986087" fill="rgb(12,12,255)"  stroke="rgb(12,12,255)" stroke-width="1" font-size="16" >H</text>
<text x="532.497531" y="287.958260" fill="rgb(102,102,102)"  stroke="rgb(102,102,102)" stroke-width="1" font-size="16" >CH</text>
<text x="448.676960" y="153.436205" fill="rgb(255,12,12)"  stroke="rgb(255,12,12)" stroke-width="1" font-size="16" >O</text>
<text x="408.683916" y="222.718699" fill="rgb(255,12,12)"  stroke="rgb(255,12,12)" stroke-width="1" font-size="16" >O</text>
<text x="463.219884" y="207.972174" fill="rgb(12,12,255)"  stroke="rgb(12,12,255)" stroke-width="1" font-size="16" >NH</text>
<text x="290.115450" y="67.996522" fill="rgb(255,12,12)"  stroke="rgb(255,12,12)" stroke-width="1" font-size="16" >O</text>
<text font-size="18.000000" fill ="black" font-family="sans-serif"
x="10.000000" y="20.000000" ></text>
<title> - OBDepict</title>
</svg>
