<?xml version="1.0"?>
<svg xmlns="http://www.w3.org/2000/svg"
xmlns:xlink="http://www.w3.org/1999/xlink" xmlns:cml="http://www.xml-cml.org/schema" width="459.881" height="312.986" x="0" y="0" font-family="sans-serif" stroke="rgb(0,0,0)" stroke-width="1"  stroke-linecap="round">
<rect x="0%" y="0%" width="100%" height="100%" stroke-width="0" fill="rgb(255,255,255)"  />
<line x1="266.8" y1="146.5" x2="239.8" y2="146.3" stroke="rgb(0,0,0)"  stroke-width="1.0"/>
<line x1="266.9" y1="140.5" x2="239.9" y2="140.3" stroke="rgb(0,0,0)"  stroke-width="1.0"/>
<line x1="85.2" y1="109.5" x2="109.1" y2="123.3" stroke="rgb(0,0,0)"  stroke-width="1.0"/>
<line x1="299.9" y1="109.1" x2="286.4" y2="132.4" stroke="rgb(0,0,0)"  stroke-width="1.0"/>
<line x1="339.9" y1="109.1" x2="299.9" y2="109.1" stroke="rgb(0,0,0)"  stroke-width="1.0"/>
<line x1="201.9" y1="243.3" x2="228.5" y2="213.6" stroke="rgb(0,0,0)"  stroke-width="1.0"/>
<line x1="183.9" y1="263.3" x2="201.9" y2="243.3" stroke="rgb(0,0,0)"  stroke-width="1.0"/>
<line x1="180.7" y1="260.5" x2="198.7" y2="240.5" stroke="rgb(0,0,0)"  stroke-width="1.0"/>
<line x1="187.0" y1="266.1" x2="205.0" y2="246.1" stroke="rgb(0,0,0)"  stroke-width="1.0"/>
<line x1="90.8" y1="81.9" x2="83.4" y2="93.6" stroke="rgb(0,0,0)"  stroke-width="1.0"/>
<line x1="85.7" y1="78.7" x2="78.3" y2="90.4" stroke="rgb(0,0,0)"  stroke-width="1.0"/>
<line x1="57.0" y1="124.6" x2="64.5" y2="112.5" stroke="rgb(0,0,0)"  stroke-width="1.0"/>
<line x1="62.1" y1="127.7" x2="69.6" y2="115.7" stroke="rgb(0,0,0)"  stroke-width="1.0"/>
<line x1="289.0" y1="84.3" x2="302.5" y2="107.6" stroke="rgb(0,0,0)"  stroke-width="1.0"/>
<line x1="283.8" y1="87.3" x2="297.3" y2="110.6" stroke="rgb(0,0,0)"  stroke-width="1.0"/>
<line x1="51.1" y1="88.9" x2="62.9" y2="96.2" stroke="rgb(0,0,0)"  stroke-width="1.0"/>
<line x1="228.5" y1="213.6" x2="220.3" y2="187.8" stroke="rgb(0,0,0)"  stroke-width="1.0"/>
<line x1="345.9" y1="167.3" x2="359.9" y2="143.9" stroke="rgb(0,0,0)"  stroke-width="1.0"/>
<line x1="413.3" y1="51.2" x2="399.5" y2="74.6" stroke="rgb(0,0,0)"  stroke-width="1.0"/>
<line x1="239.8" y1="143.3" x2="224.0" y2="121.5" stroke="rgb(0,0,0)"  stroke-width="1.0"/>
<line x1="204.0" y1="114.9" x2="178.2" y2="123.3" stroke="rgb(0,0,0)"  stroke-width="1.0"/>
<line x1="178.2" y1="123.3" x2="178.2" y2="163.3" stroke="rgb(0,0,0)"  stroke-width="1.0"/>
<line x1="185.4" y1="129.3" x2="185.4" y2="157.3" stroke="rgb(0,0,0)"  stroke-width="1.0"/>
<line x1="178.2" y1="163.3" x2="204.0" y2="171.5" stroke="rgb(0,0,0)"  stroke-width="1.0"/>
<line x1="224.1" y1="164.9" x2="239.8" y2="143.3" stroke="rgb(0,0,0)"  stroke-width="1.0"/>
<line x1="339.9" y1="109.1" x2="359.9" y2="143.9" stroke="rgb(0,0,0)"  stroke-width="1.0"/>
<line x1="349.1" y1="110.7" x2="363.1" y2="135.1" stroke="rgb(0,0,0)"  stroke-width="1.0"/>
<line x1="359.9" y1="143.9" x2="399.5" y2="143.9" stroke="rgb(0,0,0)"  stroke-width="1.0"/>
<line x1="399.5" y1="143.9" x2="419.9" y2="109.1" stroke="rgb(0,0,0)"  stroke-width="1.0"/>
<line x1="396.3" y1="135.0" x2="410.6" y2="110.6" stroke="rgb(0,0,0)"  stroke-width="1.0"/>
<line x1="419.9" y1="109.1" x2="399.5" y2="74.6" stroke="rgb(0,0,0)"  stroke-width="1.0"/>
<line x1="399.5" y1="74.6" x2="359.9" y2="74.6" stroke="rgb(0,0,0)"  stroke-width="1.0"/>
<line x1="393.5" y1="81.8" x2="365.9" y2="81.8" stroke="rgb(0,0,0)"  stroke-width="1.0"/>
<line x1="359.9" y1="74.6" x2="339.9" y2="109.1" stroke="rgb(0,0,0)"  stroke-width="1.0"/>
<line x1="109.1" y1="123.3" x2="143.7" y2="103.3" stroke="rgb(0,0,0)"  stroke-width="1.0"/>
<line x1="117.9" y1="126.5" x2="142.1" y2="112.5" stroke="rgb(0,0,0)"  stroke-width="1.0"/>
<line x1="143.7" y1="103.3" x2="178.2" y2="123.3" stroke="rgb(0,0,0)"  stroke-width="1.0"/>
<line x1="178.2" y1="163.3" x2="143.7" y2="183.3" stroke="rgb(0,0,0)"  stroke-width="1.0"/>
<line x1="143.7" y1="183.3" x2="109.1" y2="163.3" stroke="rgb(0,0,0)"  stroke-width="1.0"/>
<line x1="142.1" y1="174.0" x2="117.9" y2="160.0" stroke="rgb(0,0,0)"  stroke-width="1.0"/>
<line x1="109.1" y1="163.3" x2="109.1" y2="123.3" stroke="rgb(0,0,0)"  stroke-width="1.0"/>
<text x="273.848616" y="151.663385" fill="rgb(12,12,255)"  stroke="rgb(12,12,255)" stroke-width="1" font-size="16" >N</text>
<text x="67.944677" y="111.044954" fill="rgb(178,178,0)"  stroke="rgb(178,178,0)" stroke-width="1" font-size="16" >S</text>
<text x="210.401979" y="183.386704" fill="rgb(12,12,255)"  stroke="rgb(12,12,255)" stroke-width="1" font-size="16" >N</text>
<text x="210.401979" y="118.928598" fill="rgb(178,178,0)"  stroke="rgb(178,178,0)" stroke-width="1" font-size="16" >S</text>
<text x="157.178603" y="280.986119" fill="rgb(102,102,102)"  stroke="rgb(102,102,102)" stroke-width="1" font-size="16" >HC</text>
<text x="89.161310" y="77.303539" fill="rgb(255,12,12)"  stroke="rgb(255,12,12)" stroke-width="1" font-size="16" >O</text>
<text x="46.728044" y="145.197732" fill="rgb(255,12,12)"  stroke="rgb(255,12,12)" stroke-width="1" font-size="16" >O</text>
<text x="273.848616" y="82.554462" fill="rgb(255,12,12)"  stroke="rgb(255,12,12)" stroke-width="1" font-size="16" >O</text>
<text x="14.000000" y="90.031583" fill="rgb(12,12,255)"  stroke="rgb(12,12,255)" stroke-width="1" font-size="16" >H</text>
<text x="26.000000" y="93.711583" fill="rgb(12,12,255)"  stroke="rgb(12,12,255)" stroke-width="1" font-size="13" >2</text>
<text x="32.500000" y="90.031583" fill="rgb(12,12,255)"  stroke="rgb(12,12,255)" stroke-width="1" font-size="16" >N</text>
<text x="321.254221" y="186.421108" fill="rgb(30,239,30)"  stroke="rgb(30,239,30)" stroke-width="1" font-size="16" >Cl</text>
<text x="413.881298" y="48.000000" fill="rgb(30,239,30)"  stroke="rgb(30,239,30)" stroke-width="1" font-size="16" >Cl</text>
<text font-size="18.000000" fill ="black" font-family="sans-serif"
x="10.000000" y="20.000000" ></text>
<title> - OBDepict</title>
</svg>
