<?xml version="1.0"?>
<svg xmlns="http://www.w3.org/2000/svg"
xmlns:xlink="http://www.w3.org/1999/xlink" xmlns:cml="http://www.xml-cml.org/schema" width="387.546" height="396.077" x="0" y="0" font-family="sans-serif" stroke="rgb(0,0,0)" stroke-width="1"  stroke-linecap="round">
<rect x="0%" y="0%" width="100%" height="100%" stroke-width="0" fill="rgb(255,255,255)"  />
<line x1="201.8" y1="275.8" x2="163.4" y2="288.2" stroke="rgb(0,0,0)"  stroke-width="1.0"/>
<line x1="200.0" y1="270.1" x2="161.6" y2="282.5" stroke="rgb(0,0,0)"  stroke-width="1.0"/>
<line x1="208.8" y1="234.2" x2="200.9" y2="273.0" stroke="rgb(0,0,0)"  stroke-width="1.0"/>
<line x1="230.8" y1="129.9" x2="225.1" y2="156.2" stroke="rgb(0,0,0)"  stroke-width="1.0"/>
<line x1="50.8" y1="233.6" x2="59.3" y2="273.0" stroke="rgb(0,0,0)"  stroke-width="1.0"/>
<line x1="43.5" y1="207.1" x2="50.8" y2="233.6" stroke="rgb(0,0,0)"  stroke-width="1.0"/>
<line x1="47.5" y1="206.0" x2="54.8" y2="232.5" stroke="rgb(0,0,0)"  stroke-width="1.0"/>
<line x1="39.4" y1="208.2" x2="46.7" y2="234.7" stroke="rgb(0,0,0)"  stroke-width="1.0"/>
<line x1="91.4" y1="343.8" x2="107.5" y2="322.0" stroke="rgb(0,0,0)"  stroke-width="1.0"/>
<line x1="96.2" y1="347.4" x2="112.3" y2="325.6" stroke="rgb(0,0,0)"  stroke-width="1.0"/>
<line x1="132.7" y1="234.4" x2="133.0" y2="261.6" stroke="rgb(0,0,0)"  stroke-width="1.0"/>
<line x1="126.7" y1="234.4" x2="127.0" y2="261.6" stroke="rgb(0,0,0)"  stroke-width="1.0"/>
<line x1="280.5" y1="66.6" x2="271.6" y2="105.6" stroke="rgb(0,0,0)"  stroke-width="1.0"/>
<line x1="59.3" y1="273.0" x2="84.9" y2="281.4" stroke="rgb(0,0,0)"  stroke-width="1.0"/>
<line x1="262.5" y1="46.4" x2="282.5" y2="64.4" stroke="rgb(0,0,0)"  stroke-width="1.0"/>
<line x1="258.5" y1="50.9" x2="278.5" y2="68.8" stroke="rgb(0,0,0)"  stroke-width="1.0"/>
<line x1="271.6" y1="105.6" x2="246.0" y2="113.4" stroke="rgb(0,0,0)"  stroke-width="1.0"/>
<line x1="279.9" y1="174.2" x2="254.5" y2="182.4" stroke="rgb(0,0,0)"  stroke-width="1.0"/>
<line x1="167.5" y1="150.4" x2="187.3" y2="168.8" stroke="rgb(0,0,0)"  stroke-width="1.0"/>
<line x1="305.9" y1="58.4" x2="280.5" y2="66.6" stroke="rgb(0,0,0)"  stroke-width="1.0"/>
<line x1="338.0" y1="72.5" x2="327.9" y2="63.2" stroke="rgb(0,0,0)"  stroke-width="1.0"/>
<line x1="107.8" y1="277.7" x2="130.0" y2="261.6" stroke="rgb(0,0,0)"  stroke-width="1.0"/>
<line x1="130.0" y1="261.6" x2="162.5" y2="285.4" stroke="rgb(0,0,0)"  stroke-width="1.0"/>
<line x1="162.5" y1="285.4" x2="154.1" y2="311.4" stroke="rgb(0,0,0)"  stroke-width="1.0"/>
<line x1="137.1" y1="323.8" x2="109.9" y2="323.8" stroke="rgb(0,0,0)"  stroke-width="1.0"/>
<line x1="109.9" y1="323.8" x2="101.3" y2="297.7" stroke="rgb(0,0,0)"  stroke-width="1.0"/>
<line x1="187.3" y1="168.8" x2="225.1" y2="156.2" stroke="rgb(0,0,0)"  stroke-width="1.0"/>
<line x1="195.2" y1="173.7" x2="221.6" y2="164.9" stroke="rgb(0,0,0)"  stroke-width="1.0"/>
<line x1="225.1" y1="156.2" x2="254.5" y2="182.4" stroke="rgb(0,0,0)"  stroke-width="1.0"/>
<line x1="254.5" y1="182.4" x2="246.4" y2="222.0" stroke="rgb(0,0,0)"  stroke-width="1.0"/>
<line x1="246.3" y1="186.8" x2="240.5" y2="214.7" stroke="rgb(0,0,0)"  stroke-width="1.0"/>
<line x1="246.4" y1="222.0" x2="208.8" y2="234.2" stroke="rgb(0,0,0)"  stroke-width="1.0"/>
<line x1="208.8" y1="234.2" x2="178.9" y2="207.4" stroke="rgb(0,0,0)"  stroke-width="1.0"/>
<line x1="209.2" y1="224.8" x2="188.2" y2="206.0" stroke="rgb(0,0,0)"  stroke-width="1.0"/>
<line x1="178.9" y1="207.4" x2="187.3" y2="168.8" stroke="rgb(0,0,0)"  stroke-width="1.0"/>
<text x="91.282884" y="293.383752" fill="rgb(12,12,255)"  stroke="rgb(12,12,255)" stroke-width="1" font-size="16" >N</text>
<text x="144.098953" y="331.776039" fill="rgb(178,178,0)"  stroke="rgb(178,178,0)" stroke-width="1" font-size="16" >S</text>
<text x="227.586174" y="125.191971" fill="rgb(255,12,12)"  stroke="rgb(255,12,12)" stroke-width="1" font-size="16" >O</text>
<text x="22.000000" y="202.587641" fill="rgb(102,102,102)"  stroke="rgb(102,102,102)" stroke-width="1" font-size="16" >HC</text>
<text x="80.113425" y="364.076776" fill="rgb(255,12,12)"  stroke="rgb(255,12,12)" stroke-width="1" font-size="16" >O</text>
<text x="123.583621" y="229.398223" fill="rgb(255,12,12)"  stroke="rgb(255,12,12)" stroke-width="1" font-size="16" >O</text>
<text x="244.852033" y="48.000000" fill="rgb(255,12,12)"  stroke="rgb(255,12,12)" stroke-width="1" font-size="16" >O</text>
<text x="286.294946" y="178.211740" fill="rgb(30,239,30)"  stroke="rgb(30,239,30)" stroke-width="1" font-size="16" >Cl</text>
<text x="140.018939" y="149.567873" fill="rgb(30,239,30)"  stroke="rgb(30,239,30)" stroke-width="1" font-size="16" >Cl</text>
<text x="312.290734" y="62.423783" fill="rgb(255,12,12)"  stroke="rgb(255,12,12)" stroke-width="1" font-size="16" >O</text>
<text x="343.545696" y="89.239214" fill="rgb(102,102,102)"  stroke="rgb(102,102,102)" stroke-width="1" font-size="16" >CH</text>
<text x="367.545696" y="92.919214" fill="rgb(102,102,102)"  stroke="rgb(102,102,102)" stroke-width="1" font-size="13" >3</text>
<text font-size="18.000000" fill ="black" font-family="sans-serif"
x="10.000000" y="20.000000" ></text>
<title> - OBDepict</title>
</svg>
