<?xml version="1.0"?>
<svg xmlns="http://www.w3.org/2000/svg"
xmlns:xlink="http://www.w3.org/1999/xlink" xmlns:cml="http://www.xml-cml.org/schema" width="341.185" height="520.932" x="0" y="0" font-family="sans-serif" stroke="rgb(0,0,0)" stroke-width="1"  stroke-linecap="round">
<rect x="0%" y="0%" width="100%" height="100%" stroke-width="0" fill="rgb(255,255,255)"  />
<line x1="263.7" y1="74.1" x2="264.5" y2="101.0" stroke="rgb(0,0,0)"  stroke-width="1.0"/>
<line x1="199.8" y1="401.7" x2="161.9" y2="414.0" stroke="rgb(0,0,0)"  stroke-width="1.0"/>
<line x1="198.0" y1="396.0" x2="160.0" y2="408.3" stroke="rgb(0,0,0)"  stroke-width="1.0"/>
<line x1="50.6" y1="360.0" x2="59.1" y2="398.9" stroke="rgb(0,0,0)"  stroke-width="1.0"/>
<line x1="43.5" y1="334.0" x2="50.6" y2="360.0" stroke="rgb(0,0,0)"  stroke-width="1.0"/>
<line x1="47.5" y1="332.9" x2="54.7" y2="358.9" stroke="rgb(0,0,0)"  stroke-width="1.0"/>
<line x1="39.4" y1="335.1" x2="46.6" y2="361.1" stroke="rgb(0,0,0)"  stroke-width="1.0"/>
<line x1="286.5" y1="46.8" x2="274.4" y2="54.3" stroke="rgb(0,0,0)"  stroke-width="1.0"/>
<line x1="90.8" y1="468.7" x2="106.6" y2="447.3" stroke="rgb(0,0,0)"  stroke-width="1.0"/>
<line x1="95.7" y1="472.2" x2="111.4" y2="450.8" stroke="rgb(0,0,0)"  stroke-width="1.0"/>
<line x1="241.2" y1="45.5" x2="253.3" y2="52.2" stroke="rgb(0,0,0)"  stroke-width="1.0"/>
<line x1="238.3" y1="50.7" x2="250.4" y2="57.4" stroke="rgb(0,0,0)"  stroke-width="1.0"/>
<line x1="131.6" y1="360.9" x2="131.9" y2="387.6" stroke="rgb(0,0,0)"  stroke-width="1.0"/>
<line x1="125.6" y1="361.0" x2="125.9" y2="387.7" stroke="rgb(0,0,0)"  stroke-width="1.0"/>
<line x1="207.3" y1="360.0" x2="198.9" y2="398.9" stroke="rgb(0,0,0)"  stroke-width="1.0"/>
<line x1="59.1" y1="398.9" x2="84.2" y2="407.1" stroke="rgb(0,0,0)"  stroke-width="1.0"/>
<line x1="231.0" y1="255.3" x2="225.2" y2="281.7" stroke="rgb(0,0,0)"  stroke-width="1.0"/>
<line x1="268.1" y1="221.6" x2="244.9" y2="235.8" stroke="rgb(0,0,0)"  stroke-width="1.0"/>
<line x1="266.9" y1="181.2" x2="268.1" y2="221.6" stroke="rgb(0,0,0)"  stroke-width="1.0"/>
<line x1="167.3" y1="275.5" x2="186.8" y2="293.8" stroke="rgb(0,0,0)"  stroke-width="1.0"/>
<line x1="131.9" y1="274.7" x2="145.3" y2="270.5" stroke="rgb(0,0,0)"  stroke-width="1.0"/>
<line x1="107.1" y1="403.5" x2="128.9" y2="387.7" stroke="rgb(0,0,0)"  stroke-width="1.0"/>
<line x1="128.9" y1="387.7" x2="161.0" y2="411.1" stroke="rgb(0,0,0)"  stroke-width="1.0"/>
<line x1="161.0" y1="411.1" x2="152.7" y2="436.7" stroke="rgb(0,0,0)"  stroke-width="1.0"/>
<line x1="135.7" y1="449.0" x2="109.0" y2="449.0" stroke="rgb(0,0,0)"  stroke-width="1.0"/>
<line x1="109.0" y1="449.0" x2="100.6" y2="423.5" stroke="rgb(0,0,0)"  stroke-width="1.0"/>
<line x1="230.2" y1="122.1" x2="264.5" y2="101.0" stroke="rgb(0,0,0)"  stroke-width="1.0"/>
<line x1="264.5" y1="101.0" x2="300.0" y2="120.6" stroke="rgb(0,0,0)"  stroke-width="1.0"/>
<line x1="266.2" y1="110.2" x2="291.2" y2="124.0" stroke="rgb(0,0,0)"  stroke-width="1.0"/>
<line x1="300.0" y1="120.6" x2="301.2" y2="160.6" stroke="rgb(0,0,0)"  stroke-width="1.0"/>
<line x1="301.2" y1="160.6" x2="266.9" y2="181.2" stroke="rgb(0,0,0)"  stroke-width="1.0"/>
<line x1="292.3" y1="157.5" x2="268.3" y2="172.0" stroke="rgb(0,0,0)"  stroke-width="1.0"/>
<line x1="266.9" y1="181.2" x2="231.2" y2="162.8" stroke="rgb(0,0,0)"  stroke-width="1.0"/>
<line x1="231.2" y1="162.8" x2="230.2" y2="122.1" stroke="rgb(0,0,0)"  stroke-width="1.0"/>
<line x1="238.2" y1="156.6" x2="237.5" y2="127.9" stroke="rgb(0,0,0)"  stroke-width="1.0"/>
<line x1="186.8" y1="293.8" x2="225.2" y2="281.7" stroke="rgb(0,0,0)"  stroke-width="1.0"/>
<line x1="225.2" y1="281.7" x2="254.2" y2="308.8" stroke="rgb(0,0,0)"  stroke-width="1.0"/>
<line x1="224.6" y1="291.1" x2="244.9" y2="310.0" stroke="rgb(0,0,0)"  stroke-width="1.0"/>
<line x1="254.2" y1="308.8" x2="245.8" y2="347.7" stroke="rgb(0,0,0)"  stroke-width="1.0"/>
<line x1="245.8" y1="347.7" x2="207.3" y2="360.0" stroke="rgb(0,0,0)"  stroke-width="1.0"/>
<line x1="237.9" y1="342.7" x2="210.8" y2="351.3" stroke="rgb(0,0,0)"  stroke-width="1.0"/>
<line x1="207.3" y1="360.0" x2="177.8" y2="332.9" stroke="rgb(0,0,0)"  stroke-width="1.0"/>
<line x1="177.8" y1="332.9" x2="186.8" y2="293.8" stroke="rgb(0,0,0)"  stroke-width="1.0"/>
<line x1="186.2" y1="328.7" x2="192.5" y2="301.2" stroke="rgb(0,0,0)"  stroke-width="1.0"/>
<text x="90.571812" y="419.121184" fill="rgb(12,12,255)"  stroke="rgb(12,12,255)" stroke-width="1" font-size="16" >N</text>
<text x="142.727364" y="457.037935" fill="rgb(178,178,0)"  stroke="rgb(178,178,0)" stroke-width="1" font-size="16" >S</text>
<text x="268.073516" y="57.030166" fill="rgb(12,12,255)"  stroke="rgb(12,12,255)" stroke-width="1" font-size="16" >+</text>
<text x="257.273516" y="69.062166" fill="rgb(12,12,255)"  stroke="rgb(12,12,255)" stroke-width="1" font-size="16" >N</text>
<text x="22.000000" y="329.451683" fill="rgb(102,102,102)"  stroke="rgb(102,102,102)" stroke-width="1" font-size="16" >HC</text>
<text x="302.374757" y="25.888000" fill="rgb(255,12,12)"  stroke="rgb(255,12,12)" stroke-width="1" font-size="16" >_</text>
<text x="291.574757" y="48.000000" fill="rgb(255,12,12)"  stroke="rgb(255,12,12)" stroke-width="1" font-size="16" >O</text>
<text x="79.536014" y="488.932072" fill="rgb(255,12,12)"  stroke="rgb(255,12,12)" stroke-width="1" font-size="16" >O</text>
<text x="222.365645" y="49.805328" fill="rgb(255,12,12)"  stroke="rgb(255,12,12)" stroke-width="1" font-size="16" >O</text>
<text x="122.465949" y="355.929834" fill="rgb(255,12,12)"  stroke="rgb(255,12,12)" stroke-width="1" font-size="16" >O</text>
<text x="227.781631" y="250.614152" fill="rgb(255,12,12)"  stroke="rgb(255,12,12)" stroke-width="1" font-size="16" >O</text>
<text x="151.754007" y="274.685199" fill="rgb(255,12,12)"  stroke="rgb(255,12,12)" stroke-width="1" font-size="16" >O</text>
<text x="93.439307" y="286.521748" fill="rgb(102,102,102)"  stroke="rgb(102,102,102)" stroke-width="1" font-size="16" >H</text>
<text x="105.439307" y="290.201748" fill="rgb(102,102,102)"  stroke="rgb(102,102,102)" stroke-width="1" font-size="13" >3</text>
<text x="111.939307" y="286.521748" fill="rgb(102,102,102)"  stroke="rgb(102,102,102)" stroke-width="1" font-size="16" >C</text>
<text font-size="18.000000" fill ="black" font-family="sans-serif"
x="10.000000" y="20.000000" ></text>
<title> - OBDepict</title>
</svg>
