<?xml version="1.0"?>
<svg xmlns="http://www.w3.org/2000/svg"
xmlns:xlink="http://www.w3.org/1999/xlink" xmlns:cml="http://www.xml-cml.org/schema" width="371.824" height="322.558" x="0" y="0" font-family="sans-serif" stroke="rgb(0,0,0)" stroke-width="1"  stroke-linecap="round">
<rect x="0%" y="0%" width="100%" height="100%" stroke-width="0" fill="rgb(255,255,255)"  />
<line x1="212.5" y1="199.2" x2="161.2" y2="216.0" stroke="rgb(0,0,0)"  stroke-width="1.0"/>
<line x1="210.6" y1="193.5" x2="159.3" y2="210.3" stroke="rgb(0,0,0)"  stroke-width="1.0"/>
<line x1="219.9" y1="157.9" x2="211.5" y2="196.4" stroke="rgb(0,0,0)"  stroke-width="1.0"/>
<line x1="50.6" y1="162.3" x2="58.9" y2="201.0" stroke="rgb(0,0,0)"  stroke-width="1.0"/>
<line x1="132.2" y1="78.5" x2="123.8" y2="116.8" stroke="rgb(0,0,0)"  stroke-width="1.0"/>
<line x1="137.6" y1="52.7" x2="132.2" y2="78.5" stroke="rgb(0,0,0)"  stroke-width="1.0"/>
<line x1="141.7" y1="53.6" x2="136.3" y2="79.4" stroke="rgb(0,0,0)"  stroke-width="1.0"/>
<line x1="133.5" y1="51.8" x2="128.0" y2="77.6" stroke="rgb(0,0,0)"  stroke-width="1.0"/>
<line x1="43.5" y1="136.5" x2="50.6" y2="162.3" stroke="rgb(0,0,0)"  stroke-width="1.0"/>
<line x1="47.5" y1="135.4" x2="54.6" y2="161.2" stroke="rgb(0,0,0)"  stroke-width="1.0"/>
<line x1="39.4" y1="137.6" x2="46.5" y2="163.4" stroke="rgb(0,0,0)"  stroke-width="1.0"/>
<line x1="90.6" y1="270.3" x2="106.2" y2="249.1" stroke="rgb(0,0,0)"  stroke-width="1.0"/>
<line x1="95.4" y1="273.9" x2="111.0" y2="252.6" stroke="rgb(0,0,0)"  stroke-width="1.0"/>
<line x1="131.1" y1="163.3" x2="131.4" y2="189.8" stroke="rgb(0,0,0)"  stroke-width="1.0"/>
<line x1="125.1" y1="163.3" x2="125.4" y2="189.8" stroke="rgb(0,0,0)"  stroke-width="1.0"/>
<line x1="58.9" y1="201.0" x2="83.9" y2="209.1" stroke="rgb(0,0,0)"  stroke-width="1.0"/>
<line x1="165.5" y1="139.6" x2="190.6" y2="131.6" stroke="rgb(0,0,0)"  stroke-width="1.0"/>
<line x1="123.8" y1="116.8" x2="143.5" y2="134.8" stroke="rgb(0,0,0)"  stroke-width="1.0"/>
<line x1="106.8" y1="205.5" x2="128.4" y2="189.8" stroke="rgb(0,0,0)"  stroke-width="1.0"/>
<line x1="128.4" y1="189.8" x2="160.3" y2="213.1" stroke="rgb(0,0,0)"  stroke-width="1.0"/>
<line x1="160.3" y1="213.1" x2="152.1" y2="238.5" stroke="rgb(0,0,0)"  stroke-width="1.0"/>
<line x1="135.1" y1="250.8" x2="108.6" y2="250.8" stroke="rgb(0,0,0)"  stroke-width="1.0"/>
<line x1="108.6" y1="250.8" x2="100.3" y2="225.5" stroke="rgb(0,0,0)"  stroke-width="1.0"/>
<line x1="219.9" y1="157.9" x2="257.2" y2="145.5" stroke="rgb(0,0,0)"  stroke-width="1.0"/>
<line x1="257.2" y1="145.5" x2="265.6" y2="107.2" stroke="rgb(0,0,0)"  stroke-width="1.0"/>
<line x1="265.6" y1="107.2" x2="236.3" y2="80.3" stroke="rgb(0,0,0)"  stroke-width="1.0"/>
<line x1="236.3" y1="80.3" x2="198.6" y2="92.9" stroke="rgb(0,0,0)"  stroke-width="1.0"/>
<line x1="232.9" y1="89.0" x2="206.5" y2="97.8" stroke="rgb(0,0,0)"  stroke-width="1.0"/>
<line x1="198.6" y1="92.9" x2="190.6" y2="131.6" stroke="rgb(0,0,0)"  stroke-width="1.0"/>
<line x1="190.6" y1="131.6" x2="219.9" y2="157.9" stroke="rgb(0,0,0)"  stroke-width="1.0"/>
<line x1="199.9" y1="130.2" x2="220.3" y2="148.5" stroke="rgb(0,0,0)"  stroke-width="1.0"/>
<line x1="265.6" y1="107.2" x2="302.7" y2="95.1" stroke="rgb(0,0,0)"  stroke-width="1.0"/>
<line x1="273.5" y1="112.2" x2="299.2" y2="103.8" stroke="rgb(0,0,0)"  stroke-width="1.0"/>
<line x1="302.7" y1="95.1" x2="331.8" y2="121.0" stroke="rgb(0,0,0)"  stroke-width="1.0"/>
<line x1="331.8" y1="121.0" x2="323.6" y2="159.7" stroke="rgb(0,0,0)"  stroke-width="1.0"/>
<line x1="323.5" y1="125.4" x2="317.8" y2="152.3" stroke="rgb(0,0,0)"  stroke-width="1.0"/>
<line x1="323.6" y1="159.7" x2="286.5" y2="172.4" stroke="rgb(0,0,0)"  stroke-width="1.0"/>
<line x1="286.5" y1="172.4" x2="257.2" y2="145.5" stroke="rgb(0,0,0)"  stroke-width="1.0"/>
<line x1="287.0" y1="163.1" x2="266.5" y2="144.3" stroke="rgb(0,0,0)"  stroke-width="1.0"/>
<text x="90.250663" y="221.141935" fill="rgb(12,12,255)"  stroke="rgb(12,12,255)" stroke-width="1" font-size="16" >N</text>
<text x="142.111381" y="258.841848" fill="rgb(178,178,0)"  stroke="rgb(178,178,0)" stroke-width="1" font-size="16" >S</text>
<text x="134.332034" y="48.000000" fill="rgb(102,102,102)"  stroke="rgb(102,102,102)" stroke-width="1" font-size="16" >CH</text>
<text x="22.000000" y="131.978650" fill="rgb(102,102,102)"  stroke="rgb(102,102,102)" stroke-width="1" font-size="16" >HC</text>
<text x="79.278193" y="290.557647" fill="rgb(255,12,12)"  stroke="rgb(255,12,12)" stroke-width="1" font-size="16" >O</text>
<text x="121.966463" y="158.308747" fill="rgb(255,12,12)"  stroke="rgb(255,12,12)" stroke-width="1" font-size="16" >O</text>
<text x="147.099738" y="151.525157" fill="rgb(255,12,12)"  stroke="rgb(255,12,12)" stroke-width="1" font-size="16" >O</text>
<text font-size="18.000000" fill ="black" font-family="sans-serif"
x="10.000000" y="20.000000" ></text>
<title> - OBDepict</title>
</svg>
