<?xml version="1.0"?>
<svg xmlns="http://www.w3.org/2000/svg"
xmlns:xlink="http://www.w3.org/1999/xlink" xmlns:cml="http://www.xml-cml.org/schema" width="536.252" height="394.401" x="0" y="0" font-family="sans-serif" stroke="rgb(0,0,0)" stroke-width="1"  stroke-linecap="round">
<rect x="0%" y="0%" width="100%" height="100%" stroke-width="0" fill="rgb(255,255,255)"  />
<line x1="100.0" y1="176.4" x2="80.0" y2="210.9" stroke="rgb(0,0,0)"  stroke-width="1.0"/>
<line x1="298.2" y1="286.7" x2="271.6" y2="257.0" stroke="rgb(0,0,0)"  stroke-width="1.0"/>
<line x1="271.6" y1="257.0" x2="279.9" y2="231.2" stroke="rgb(0,0,0)"  stroke-width="1.0"/>
<line x1="459.7" y1="152.1" x2="423.3" y2="135.8" stroke="rgb(0,0,0)"  stroke-width="1.0"/>
<line x1="484.4" y1="163.0" x2="459.7" y2="152.1" stroke="rgb(0,0,0)"  stroke-width="1.0"/>
<line x1="482.7" y1="166.9" x2="458.0" y2="156.0" stroke="rgb(0,0,0)"  stroke-width="1.0"/>
<line x1="486.1" y1="159.2" x2="461.4" y2="148.3" stroke="rgb(0,0,0)"  stroke-width="1.0"/>
<line x1="271.6" y1="116.2" x2="283.9" y2="154.2" stroke="rgb(0,0,0)"  stroke-width="1.0"/>
<line x1="90.9" y1="235.9" x2="77.4" y2="212.4" stroke="rgb(0,0,0)"  stroke-width="1.0"/>
<line x1="96.1" y1="232.9" x2="82.6" y2="209.4" stroke="rgb(0,0,0)"  stroke-width="1.0"/>
<line x1="127.0" y1="179.4" x2="100.0" y2="179.4" stroke="rgb(0,0,0)"  stroke-width="1.0"/>
<line x1="127.0" y1="173.4" x2="100.0" y2="173.4" stroke="rgb(0,0,0)"  stroke-width="1.0"/>
<line x1="354.4" y1="143.0" x2="321.9" y2="166.5" stroke="rgb(0,0,0)"  stroke-width="1.0"/>
<line x1="86.5" y1="152.9" x2="100.0" y2="176.4" stroke="rgb(0,0,0)"  stroke-width="1.0"/>
<line x1="53.0" y1="210.9" x2="80.0" y2="210.9" stroke="rgb(0,0,0)"  stroke-width="1.0"/>
<line x1="259.4" y1="330.3" x2="285.9" y2="324.7" stroke="rgb(0,0,0)"  stroke-width="1.0"/>
<line x1="378.9" y1="153.9" x2="354.4" y2="143.0" stroke="rgb(0,0,0)"  stroke-width="1.0"/>
<line x1="423.3" y1="135.8" x2="401.3" y2="151.6" stroke="rgb(0,0,0)"  stroke-width="1.0"/>
<line x1="321.9" y1="166.5" x2="283.9" y2="154.2" stroke="rgb(0,0,0)"  stroke-width="1.0"/>
<line x1="283.9" y1="154.2" x2="268.2" y2="175.8" stroke="rgb(0,0,0)"  stroke-width="1.0"/>
<line x1="286.2" y1="163.2" x2="275.2" y2="178.4" stroke="rgb(0,0,0)"  stroke-width="1.0"/>
<line x1="268.1" y1="197.0" x2="276.3" y2="208.3" stroke="rgb(0,0,0)"  stroke-width="1.0"/>
<line x1="296.2" y1="214.8" x2="321.9" y2="206.5" stroke="rgb(0,0,0)"  stroke-width="1.0"/>
<line x1="321.9" y1="206.5" x2="321.9" y2="166.5" stroke="rgb(0,0,0)"  stroke-width="1.0"/>
<line x1="314.7" y1="200.5" x2="314.7" y2="172.5" stroke="rgb(0,0,0)"  stroke-width="1.0"/>
<line x1="271.6" y1="116.2" x2="298.2" y2="86.5" stroke="rgb(0,0,0)"  stroke-width="1.0"/>
<line x1="298.2" y1="86.5" x2="285.9" y2="48.3" stroke="rgb(0,0,0)"  stroke-width="1.0"/>
<line x1="289.5" y1="83.0" x2="280.9" y2="56.2" stroke="rgb(0,0,0)"  stroke-width="1.0"/>
<line x1="285.9" y1="48.3" x2="246.7" y2="40.0" stroke="rgb(0,0,0)"  stroke-width="1.0"/>
<line x1="246.7" y1="40.0" x2="220.0" y2="69.7" stroke="rgb(0,0,0)"  stroke-width="1.0"/>
<line x1="248.1" y1="49.3" x2="229.4" y2="70.0" stroke="rgb(0,0,0)"  stroke-width="1.0"/>
<line x1="220.0" y1="69.7" x2="232.4" y2="107.9" stroke="rgb(0,0,0)"  stroke-width="1.0"/>
<line x1="232.4" y1="107.9" x2="271.6" y2="116.2" stroke="rgb(0,0,0)"  stroke-width="1.0"/>
<line x1="239.7" y1="102.1" x2="267.2" y2="107.9" stroke="rgb(0,0,0)"  stroke-width="1.0"/>
<line x1="298.2" y1="286.7" x2="337.4" y2="278.4" stroke="rgb(0,0,0)"  stroke-width="1.0"/>
<line x1="337.4" y1="278.4" x2="364.3" y2="308.1" stroke="rgb(0,0,0)"  stroke-width="1.0"/>
<line x1="336.1" y1="287.7" x2="354.9" y2="308.5" stroke="rgb(0,0,0)"  stroke-width="1.0"/>
<line x1="364.3" y1="308.1" x2="351.8" y2="346.1" stroke="rgb(0,0,0)"  stroke-width="1.0"/>
<line x1="351.8" y1="346.1" x2="312.8" y2="354.4" stroke="rgb(0,0,0)"  stroke-width="1.0"/>
<line x1="344.4" y1="340.3" x2="317.2" y2="346.1" stroke="rgb(0,0,0)"  stroke-width="1.0"/>
<line x1="312.8" y1="354.4" x2="285.9" y2="324.7" stroke="rgb(0,0,0)"  stroke-width="1.0"/>
<line x1="285.9" y1="324.7" x2="298.2" y2="286.7" stroke="rgb(0,0,0)"  stroke-width="1.0"/>
<line x1="294.6" y1="321.2" x2="303.2" y2="294.6" stroke="rgb(0,0,0)"  stroke-width="1.0"/>
<text x="254.447451" y="194.491388" fill="rgb(12,12,255)"  stroke="rgb(12,12,255)" stroke-width="1" font-size="16" >N</text>
<text x="277.882388" y="226.824133" fill="rgb(12,12,255)"  stroke="rgb(12,12,255)" stroke-width="1" font-size="16" >N</text>
<text x="490.251502" y="176.303006" fill="rgb(102,102,102)"  stroke="rgb(102,102,102)" stroke-width="1" font-size="16" >CH</text>
<text x="94.010507" y="253.692121" fill="rgb(255,12,12)"  stroke="rgb(255,12,12)" stroke-width="1" font-size="16" >O</text>
<text x="134.019127" y="184.391041" fill="rgb(255,12,12)"  stroke="rgb(255,12,12)" stroke-width="1" font-size="16" >O</text>
<text x="62.008621" y="149.633825" fill="rgb(255,12,12)"  stroke="rgb(255,12,12)" stroke-width="1" font-size="16" >HO</text>
<text x="22.000000" y="218.939753" fill="rgb(255,12,12)"  stroke="rgb(255,12,12)" stroke-width="1" font-size="16" >HO</text>
<text x="228.705550" y="340.982775" fill="rgb(30,239,30)"  stroke="rgb(30,239,30)" stroke-width="1" font-size="16" >Cl</text>
<text x="384.772466" y="167.211240" fill="rgb(12,12,255)"  stroke="rgb(12,12,255)" stroke-width="1" font-size="16" >N</text>
<text x="384.772466" y="183.211240" fill="rgb(12,12,255)"  stroke="rgb(12,12,255)" stroke-width="1" font-size="16" >H</text>
<text font-size="18.000000" fill ="black" font-family="sans-serif"
x="10.000000" y="20.000000" ></text>
<title> - OBDepict</title>
</svg>
