<?xml version="1.0"?>
<svg xmlns="http://www.w3.org/2000/svg"
xmlns:xlink="http://www.w3.org/1999/xlink" xmlns:cml="http://www.xml-cml.org/schema" width="359.468" height="409.079" x="0" y="0" font-family="sans-serif" stroke="rgb(0,0,0)" stroke-width="1"  stroke-linecap="round">
<rect x="0%" y="0%" width="100%" height="100%" stroke-width="0" fill="rgb(255,255,255)"  />
<line x1="86.6" y1="286.1" x2="112.1" y2="294.2" stroke="rgb(0,0,0)"  stroke-width="1.0"/>
<line x1="228.6" y1="288.9" x2="190.4" y2="301.1" stroke="rgb(0,0,0)"  stroke-width="1.0"/>
<line x1="226.8" y1="283.2" x2="188.5" y2="295.3" stroke="rgb(0,0,0)"  stroke-width="1.0"/>
<line x1="78.1" y1="247.0" x2="86.6" y2="286.1" stroke="rgb(0,0,0)"  stroke-width="1.0"/>
<line x1="235.6" y1="247.0" x2="227.7" y2="286.1" stroke="rgb(0,0,0)"  stroke-width="1.0"/>
<line x1="307.3" y1="78.9" x2="298.6" y2="117.8" stroke="rgb(0,0,0)"  stroke-width="1.0"/>
<line x1="313.0" y1="52.7" x2="307.3" y2="78.9" stroke="rgb(0,0,0)"  stroke-width="1.0"/>
<line x1="317.1" y1="53.6" x2="311.4" y2="79.8" stroke="rgb(0,0,0)"  stroke-width="1.0"/>
<line x1="308.9" y1="51.8" x2="303.2" y2="78.0" stroke="rgb(0,0,0)"  stroke-width="1.0"/>
<line x1="118.5" y1="356.8" x2="134.6" y2="334.7" stroke="rgb(0,0,0)"  stroke-width="1.0"/>
<line x1="123.4" y1="360.3" x2="139.4" y2="338.2" stroke="rgb(0,0,0)"  stroke-width="1.0"/>
<line x1="159.8" y1="247.8" x2="160.0" y2="274.9" stroke="rgb(0,0,0)"  stroke-width="1.0"/>
<line x1="153.8" y1="247.8" x2="154.1" y2="274.9" stroke="rgb(0,0,0)"  stroke-width="1.0"/>
<line x1="53.3" y1="235.6" x2="79.0" y2="244.1" stroke="rgb(0,0,0)"  stroke-width="1.0"/>
<line x1="51.4" y1="241.3" x2="77.1" y2="249.8" stroke="rgb(0,0,0)"  stroke-width="1.0"/>
<line x1="307.1" y1="187.3" x2="281.2" y2="195.5" stroke="rgb(0,0,0)"  stroke-width="1.0"/>
<line x1="194.6" y1="163.0" x2="214.4" y2="180.9" stroke="rgb(0,0,0)"  stroke-width="1.0"/>
<line x1="257.7" y1="142.6" x2="251.8" y2="168.8" stroke="rgb(0,0,0)"  stroke-width="1.0"/>
<line x1="98.2" y1="228.6" x2="78.1" y2="247.0" stroke="rgb(0,0,0)"  stroke-width="1.0"/>
<line x1="298.6" y1="117.8" x2="272.9" y2="126.0" stroke="rgb(0,0,0)"  stroke-width="1.0"/>
<line x1="66.1" y1="304.2" x2="86.6" y2="286.1" stroke="rgb(0,0,0)"  stroke-width="1.0"/>
<line x1="99.3" y1="180.7" x2="105.1" y2="207.1" stroke="rgb(0,0,0)"  stroke-width="1.0"/>
<line x1="119.5" y1="162.4" x2="99.3" y2="180.7" stroke="rgb(0,0,0)"  stroke-width="1.0"/>
<line x1="135.0" y1="290.6" x2="157.1" y2="274.9" stroke="rgb(0,0,0)"  stroke-width="1.0"/>
<line x1="157.1" y1="274.9" x2="189.5" y2="298.2" stroke="rgb(0,0,0)"  stroke-width="1.0"/>
<line x1="189.5" y1="298.2" x2="181.1" y2="324.1" stroke="rgb(0,0,0)"  stroke-width="1.0"/>
<line x1="164.1" y1="336.5" x2="137.0" y2="336.5" stroke="rgb(0,0,0)"  stroke-width="1.0"/>
<line x1="137.0" y1="336.5" x2="128.5" y2="310.6" stroke="rgb(0,0,0)"  stroke-width="1.0"/>
<line x1="214.4" y1="180.9" x2="251.8" y2="168.8" stroke="rgb(0,0,0)"  stroke-width="1.0"/>
<line x1="222.3" y1="185.9" x2="248.3" y2="177.5" stroke="rgb(0,0,0)"  stroke-width="1.0"/>
<line x1="251.8" y1="168.8" x2="281.2" y2="195.5" stroke="rgb(0,0,0)"  stroke-width="1.0"/>
<line x1="281.2" y1="195.5" x2="273.3" y2="234.8" stroke="rgb(0,0,0)"  stroke-width="1.0"/>
<line x1="273.0" y1="200.0" x2="267.4" y2="227.5" stroke="rgb(0,0,0)"  stroke-width="1.0"/>
<line x1="273.3" y1="234.8" x2="235.6" y2="247.0" stroke="rgb(0,0,0)"  stroke-width="1.0"/>
<line x1="235.6" y1="247.0" x2="205.9" y2="220.2" stroke="rgb(0,0,0)"  stroke-width="1.0"/>
<line x1="236.0" y1="237.6" x2="215.1" y2="218.9" stroke="rgb(0,0,0)"  stroke-width="1.0"/>
<line x1="205.9" y1="220.2" x2="214.4" y2="180.9" stroke="rgb(0,0,0)"  stroke-width="1.0"/>
<text x="118.448070" y="306.202506" fill="rgb(12,12,255)"  stroke="rgb(12,12,255)" stroke-width="1" font-size="16" >N</text>
<text x="171.099019" y="344.477356" fill="rgb(178,178,0)"  stroke="rgb(178,178,0)" stroke-width="1" font-size="16" >S</text>
<text x="309.822319" y="48.000000" fill="rgb(102,102,102)"  stroke="rgb(102,102,102)" stroke-width="1" font-size="16" >CH</text>
<text x="107.310835" y="377.079344" fill="rgb(255,12,12)"  stroke="rgb(255,12,12)" stroke-width="1" font-size="16" >O</text>
<text x="150.647623" y="242.816756" fill="rgb(255,12,12)"  stroke="rgb(255,12,12)" stroke-width="1" font-size="16" >O</text>
<text x="34.000000" y="242.414322" fill="rgb(255,12,12)"  stroke="rgb(255,12,12)" stroke-width="1" font-size="16" >O</text>
<text x="313.468466" y="191.377956" fill="rgb(30,239,30)"  stroke="rgb(30,239,30)" stroke-width="1" font-size="16" >Cl</text>
<text x="166.997389" y="162.218475" fill="rgb(30,239,30)"  stroke="rgb(30,239,30)" stroke-width="1" font-size="16" >Cl</text>
<text x="254.538580" y="137.917291" fill="rgb(255,12,12)"  stroke="rgb(255,12,12)" stroke-width="1" font-size="16" >O</text>
<text x="101.841614" y="227.829732" fill="rgb(255,12,12)"  stroke="rgb(255,12,12)" stroke-width="1" font-size="16" >O</text>
<text x="30.407663" y="320.782247" fill="rgb(102,102,102)"  stroke="rgb(102,102,102)" stroke-width="1" font-size="16" >H</text>
<text x="42.407663" y="324.462247" fill="rgb(102,102,102)"  stroke="rgb(102,102,102)" stroke-width="1" font-size="13" >3</text>
<text x="48.907663" y="320.782247" fill="rgb(102,102,102)"  stroke="rgb(102,102,102)" stroke-width="1" font-size="16" >C</text>
<text x="125.107574" y="161.612400" fill="rgb(102,102,102)"  stroke="rgb(102,102,102)" stroke-width="1" font-size="16" >CH</text>
<text x="149.107574" y="165.292400" fill="rgb(102,102,102)"  stroke="rgb(102,102,102)" stroke-width="1" font-size="13" >3</text>
<text font-size="18.000000" fill ="black" font-family="sans-serif"
x="10.000000" y="20.000000" ></text>
<title> - OBDepict</title>
</svg>
