<?xml version="1.0"?>
<svg xmlns="http://www.w3.org/2000/svg"
xmlns:xlink="http://www.w3.org/1999/xlink" xmlns:cml="http://www.xml-cml.org/schema" width="530.338" height="260.014" x="0" y="0" font-family="sans-serif" stroke="rgb(0,0,0)" stroke-width="1"  stroke-linecap="round">
<rect x="0%" y="0%" width="100%" height="100%" stroke-width="0" fill="rgb(255,255,255)"  />
<line x1="351.7" y1="80.0" x2="386.5" y2="100.0" stroke="rgb(0,0,0)"  stroke-width="1.0"/>
<line x1="317.2" y1="100.0" x2="351.7" y2="80.0" stroke="rgb(0,0,0)"  stroke-width="1.0"/>
<line x1="74.8" y1="160.0" x2="109.3" y2="140.0" stroke="rgb(0,0,0)"  stroke-width="1.0"/>
<line x1="51.3" y1="173.5" x2="74.8" y2="160.0" stroke="rgb(0,0,0)"  stroke-width="1.0"/>
<line x1="49.2" y1="169.9" x2="72.7" y2="156.4" stroke="rgb(0,0,0)"  stroke-width="1.0"/>
<line x1="53.4" y1="177.2" x2="76.8" y2="163.6" stroke="rgb(0,0,0)"  stroke-width="1.0"/>
<line x1="284.1" y1="77.4" x2="318.7" y2="97.4" stroke="rgb(0,0,0)"  stroke-width="1.0"/>
<line x1="281.1" y1="82.6" x2="315.7" y2="102.6" stroke="rgb(0,0,0)"  stroke-width="1.0"/>
<line x1="361.5" y1="150.9" x2="385.0" y2="137.4" stroke="rgb(0,0,0)"  stroke-width="1.0"/>
<line x1="364.5" y1="156.1" x2="388.0" y2="142.6" stroke="rgb(0,0,0)"  stroke-width="1.0"/>
<line x1="247.9" y1="100.0" x2="282.6" y2="80.0" stroke="rgb(0,0,0)"  stroke-width="1.0"/>
<line x1="424.0" y1="53.0" x2="424.0" y2="80.0" stroke="rgb(0,0,0)"  stroke-width="1.0"/>
<line x1="418.0" y1="53.0" x2="418.0" y2="80.0" stroke="rgb(0,0,0)"  stroke-width="1.0"/>
<line x1="354.7" y1="53.0" x2="354.7" y2="80.0" stroke="rgb(0,0,0)"  stroke-width="1.0"/>
<line x1="348.7" y1="53.0" x2="348.7" y2="80.0" stroke="rgb(0,0,0)"  stroke-width="1.0"/>
<line x1="155.3" y1="86.5" x2="178.6" y2="100.0" stroke="rgb(0,0,0)"  stroke-width="1.0"/>
<line x1="155.3" y1="153.5" x2="178.6" y2="140.0" stroke="rgb(0,0,0)"  stroke-width="1.0"/>
<line x1="213.3" y1="187.0" x2="213.3" y2="160.0" stroke="rgb(0,0,0)"  stroke-width="1.0"/>
<line x1="109.3" y1="140.0" x2="132.8" y2="153.5" stroke="rgb(0,0,0)"  stroke-width="1.0"/>
<line x1="479.1" y1="153.5" x2="455.8" y2="140.0" stroke="rgb(0,0,0)"  stroke-width="1.0"/>
<line x1="236.6" y1="213.5" x2="224.6" y2="206.5" stroke="rgb(0,0,0)"  stroke-width="1.0"/>
<line x1="386.5" y1="140.0" x2="386.5" y2="100.0" stroke="rgb(0,0,0)"  stroke-width="1.0"/>
<line x1="386.5" y1="100.0" x2="421.0" y2="80.0" stroke="rgb(0,0,0)"  stroke-width="1.0"/>
<line x1="421.0" y1="80.0" x2="455.8" y2="100.0" stroke="rgb(0,0,0)"  stroke-width="1.0"/>
<line x1="455.8" y1="100.0" x2="455.8" y2="140.0" stroke="rgb(0,0,0)"  stroke-width="1.0"/>
<line x1="448.6" y1="106.0" x2="448.6" y2="134.0" stroke="rgb(0,0,0)"  stroke-width="1.0"/>
<line x1="455.8" y1="140.0" x2="432.3" y2="153.5" stroke="rgb(0,0,0)"  stroke-width="1.0"/>
<line x1="409.8" y1="153.5" x2="386.5" y2="140.0" stroke="rgb(0,0,0)"  stroke-width="1.0"/>
<line x1="178.6" y1="100.0" x2="178.6" y2="140.0" stroke="rgb(0,0,0)"  stroke-width="1.0"/>
<line x1="178.6" y1="140.0" x2="213.3" y2="160.0" stroke="rgb(0,0,0)"  stroke-width="1.0"/>
<line x1="187.4" y1="136.8" x2="211.7" y2="150.8" stroke="rgb(0,0,0)"  stroke-width="1.0"/>
<line x1="213.3" y1="160.0" x2="247.9" y2="140.0" stroke="rgb(0,0,0)"  stroke-width="1.0"/>
<line x1="247.9" y1="140.0" x2="247.9" y2="100.0" stroke="rgb(0,0,0)"  stroke-width="1.0"/>
<line x1="240.7" y1="134.0" x2="240.7" y2="106.0" stroke="rgb(0,0,0)"  stroke-width="1.0"/>
<line x1="247.9" y1="100.0" x2="213.3" y2="80.0" stroke="rgb(0,0,0)"  stroke-width="1.0"/>
<line x1="213.3" y1="80.0" x2="178.6" y2="100.0" stroke="rgb(0,0,0)"  stroke-width="1.0"/>
<line x1="211.7" y1="89.2" x2="187.4" y2="103.3" stroke="rgb(0,0,0)"  stroke-width="1.0"/>
<text x="415.043024" y="168.009351" fill="rgb(255,12,12)"  stroke="rgb(255,12,12)" stroke-width="1" font-size="16" >O</text>
<text x="22.000000" y="188.010910" fill="rgb(102,102,102)"  stroke="rgb(102,102,102)" stroke-width="1" font-size="16" >HC</text>
<text x="345.743079" y="168.009351" fill="rgb(255,12,12)"  stroke="rgb(255,12,12)" stroke-width="1" font-size="16" >O</text>
<text x="415.043024" y="48.000000" fill="rgb(255,12,12)"  stroke="rgb(255,12,12)" stroke-width="1" font-size="16" >O</text>
<text x="345.743079" y="48.000000" fill="rgb(255,12,12)"  stroke="rgb(255,12,12)" stroke-width="1" font-size="16" >O</text>
<text x="126.051744" y="88.003117" fill="rgb(30,239,30)"  stroke="rgb(30,239,30)" stroke-width="1" font-size="16" >Cl</text>
<text x="138.051744" y="168.009351" fill="rgb(255,12,12)"  stroke="rgb(255,12,12)" stroke-width="1" font-size="16" >O</text>
<text x="207.346840" y="208.012468" fill="rgb(255,12,12)"  stroke="rgb(255,12,12)" stroke-width="1" font-size="16" >O</text>
<text x="486.338121" y="168.009351" fill="rgb(102,102,102)"  stroke="rgb(102,102,102)" stroke-width="1" font-size="16" >CH</text>
<text x="510.338121" y="171.689351" fill="rgb(102,102,102)"  stroke="rgb(102,102,102)" stroke-width="1" font-size="13" >3</text>
<text x="243.894987" y="228.014027" fill="rgb(102,102,102)"  stroke="rgb(102,102,102)" stroke-width="1" font-size="16" >CH</text>
<text x="267.894987" y="231.694027" fill="rgb(102,102,102)"  stroke="rgb(102,102,102)" stroke-width="1" font-size="13" >3</text>
<text font-size="18.000000" fill ="black" font-family="sans-serif"
x="10.000000" y="20.000000" ></text>
<title> - OBDepict</title>
</svg>
