<?xml version="1.0"?>
<svg xmlns="http://www.w3.org/2000/svg"
xmlns:xlink="http://www.w3.org/1999/xlink" xmlns:cml="http://www.xml-cml.org/schema" width="462.207" height="250.182" x="0" y="0" font-family="sans-serif" stroke="rgb(0,0,0)" stroke-width="1"  stroke-linecap="round">
<rect x="0%" y="0%" width="100%" height="100%" stroke-width="0" fill="rgb(255,255,255)"  />
<line x1="179.9" y1="120.0" x2="214.5" y2="100.0" stroke="rgb(0,0,0)"  stroke-width="1.0"/>
<line x1="216.0" y1="97.4" x2="250.9" y2="117.4" stroke="rgb(0,0,0)"  stroke-width="1.0"/>
<line x1="213.0" y1="102.6" x2="247.9" y2="122.6" stroke="rgb(0,0,0)"  stroke-width="1.0"/>
<line x1="352.9" y1="100.0" x2="329.3" y2="113.5" stroke="rgb(0,0,0)"  stroke-width="1.0"/>
<line x1="340.1" y1="176.0" x2="316.5" y2="162.4" stroke="rgb(0,0,0)"  stroke-width="1.0"/>
<line x1="343.1" y1="170.8" x2="319.5" y2="157.2" stroke="rgb(0,0,0)"  stroke-width="1.0"/>
<line x1="80.0" y1="208.4" x2="120.0" y2="204.7" stroke="rgb(0,0,0)"  stroke-width="1.0"/>
<line x1="286.5" y1="72.8" x2="286.5" y2="99.7" stroke="rgb(0,0,0)"  stroke-width="1.0"/>
<line x1="280.5" y1="72.8" x2="280.5" y2="99.7" stroke="rgb(0,0,0)"  stroke-width="1.0"/>
<line x1="53.0" y1="209.6" x2="80.0" y2="208.4" stroke="rgb(0,0,0)"  stroke-width="1.0"/>
<line x1="52.8" y1="205.4" x2="79.8" y2="204.2" stroke="rgb(0,0,0)"  stroke-width="1.0"/>
<line x1="53.2" y1="213.8" x2="80.2" y2="212.5" stroke="rgb(0,0,0)"  stroke-width="1.0"/>
<line x1="224.3" y1="170.8" x2="247.9" y2="157.2" stroke="rgb(0,0,0)"  stroke-width="1.0"/>
<line x1="227.3" y1="176.0" x2="250.9" y2="162.4" stroke="rgb(0,0,0)"  stroke-width="1.0"/>
<line x1="120.0" y1="204.7" x2="131.0" y2="179.8" stroke="rgb(0,0,0)"  stroke-width="1.0"/>
<line x1="386.9" y1="147.3" x2="387.0" y2="120.0" stroke="rgb(0,0,0)"  stroke-width="1.0"/>
<line x1="175.5" y1="159.3" x2="148.9" y2="165.1" stroke="rgb(0,0,0)"  stroke-width="1.0"/>
<line x1="129.7" y1="156.6" x2="116.2" y2="133.3" stroke="rgb(0,0,0)"  stroke-width="1.0"/>
<line x1="116.2" y1="133.3" x2="143.0" y2="103.7" stroke="rgb(0,0,0)"  stroke-width="1.0"/>
<line x1="143.0" y1="103.7" x2="179.9" y2="120.0" stroke="rgb(0,0,0)"  stroke-width="1.0"/>
<line x1="179.9" y1="120.0" x2="175.5" y2="159.3" stroke="rgb(0,0,0)"  stroke-width="1.0"/>
<line x1="172.0" y1="125.2" x2="169.0" y2="152.6" stroke="rgb(0,0,0)"  stroke-width="1.0"/>
<line x1="318.0" y1="133.0" x2="318.0" y2="159.8" stroke="rgb(0,0,0)"  stroke-width="1.0"/>
<line x1="318.0" y1="159.8" x2="294.8" y2="173.2" stroke="rgb(0,0,0)"  stroke-width="1.0"/>
<line x1="272.3" y1="173.2" x2="249.4" y2="159.8" stroke="rgb(0,0,0)"  stroke-width="1.0"/>
<line x1="249.4" y1="159.8" x2="249.4" y2="120.0" stroke="rgb(0,0,0)"  stroke-width="1.0"/>
<line x1="249.4" y1="120.0" x2="283.5" y2="99.7" stroke="rgb(0,0,0)"  stroke-width="1.0"/>
<line x1="283.5" y1="99.7" x2="306.8" y2="113.4" stroke="rgb(0,0,0)"  stroke-width="1.0"/>
<line x1="116.2" y1="133.3" x2="77.3" y2="124.8" stroke="rgb(0,0,0)"  stroke-width="1.0"/>
<line x1="111.9" y1="125.0" x2="84.7" y2="119.1" stroke="rgb(0,0,0)"  stroke-width="1.0"/>
<line x1="77.3" y1="124.8" x2="64.8" y2="87.2" stroke="rgb(0,0,0)"  stroke-width="1.0"/>
<line x1="64.8" y1="87.2" x2="91.8" y2="57.3" stroke="rgb(0,0,0)"  stroke-width="1.0"/>
<line x1="74.2" y1="87.6" x2="93.2" y2="66.6" stroke="rgb(0,0,0)"  stroke-width="1.0"/>
<line x1="91.8" y1="57.3" x2="130.8" y2="65.5" stroke="rgb(0,0,0)"  stroke-width="1.0"/>
<line x1="130.8" y1="65.5" x2="143.0" y2="103.7" stroke="rgb(0,0,0)"  stroke-width="1.0"/>
<line x1="125.8" y1="73.4" x2="134.3" y2="100.1" stroke="rgb(0,0,0)"  stroke-width="1.0"/>
<line x1="352.9" y1="100.0" x2="387.0" y2="120.0" stroke="rgb(0,0,0)"  stroke-width="1.0"/>
<line x1="361.7" y1="96.8" x2="385.5" y2="110.8" stroke="rgb(0,0,0)"  stroke-width="1.0"/>
<line x1="387.0" y1="120.0" x2="422.0" y2="100.3" stroke="rgb(0,0,0)"  stroke-width="1.0"/>
<line x1="422.0" y1="100.3" x2="422.2" y2="60.3" stroke="rgb(0,0,0)"  stroke-width="1.0"/>
<line x1="414.9" y1="94.3" x2="415.0" y2="66.3" stroke="rgb(0,0,0)"  stroke-width="1.0"/>
<line x1="422.2" y1="60.3" x2="387.0" y2="40.0" stroke="rgb(0,0,0)"  stroke-width="1.0"/>
<line x1="387.0" y1="40.0" x2="352.5" y2="60.0" stroke="rgb(0,0,0)"  stroke-width="1.0"/>
<line x1="385.5" y1="49.2" x2="361.3" y2="63.2" stroke="rgb(0,0,0)"  stroke-width="1.0"/>
<line x1="352.5" y1="60.0" x2="352.9" y2="100.0" stroke="rgb(0,0,0)"  stroke-width="1.0"/>
<text x="312.027273" y="128.006488" fill="rgb(12,12,255)"  stroke="rgb(12,12,255)" stroke-width="1" font-size="16" >N</text>
<text x="277.525415" y="187.680398" fill="rgb(12,12,255)"  stroke="rgb(12,12,255)" stroke-width="1" font-size="16" >N</text>
<text x="277.525415" y="203.680398" fill="rgb(12,12,255)"  stroke="rgb(12,12,255)" stroke-width="1" font-size="16" >H</text>
<text x="130.178476" y="175.848418" fill="rgb(12,12,255)"  stroke="rgb(12,12,255)" stroke-width="1" font-size="16" >N</text>
<text x="346.868573" y="187.850119" fill="rgb(178,178,0)"  stroke="rgb(178,178,0)" stroke-width="1" font-size="16" >S</text>
<text x="277.525415" y="67.837962" fill="rgb(255,12,12)"  stroke="rgb(255,12,12)" stroke-width="1" font-size="16" >O</text>
<text x="22.000000" y="218.181689" fill="rgb(102,102,102)"  stroke="rgb(102,102,102)" stroke-width="1" font-size="16" >HC</text>
<text x="208.516849" y="187.850119" fill="rgb(255,12,12)"  stroke="rgb(255,12,12)" stroke-width="1" font-size="16" >O</text>
<text x="368.870967" y="168.346749" fill="rgb(30,239,30)"  stroke="rgb(30,239,30)" stroke-width="1" font-size="16" >Cl</text>
<text font-size="18.000000" fill ="black" font-family="sans-serif"
x="10.000000" y="20.000000" ></text>
<title> - OBDepict</title>
</svg>
