<?xml version="1.0"?>
<svg xmlns="http://www.w3.org/2000/svg"
xmlns:xlink="http://www.w3.org/1999/xlink" xmlns:cml="http://www.xml-cml.org/schema" width="493.263" height="362.298" x="0" y="0" font-family="sans-serif" stroke="rgb(0,0,0)" stroke-width="1"  stroke-linecap="round">
<rect x="0%" y="0%" width="100%" height="100%" stroke-width="0" fill="rgb(255,255,255)"  />
<line x1="191.8" y1="151.0" x2="171.4" y2="185.5" stroke="rgb(0,0,0)"  stroke-width="1.0"/>
<line x1="231.9" y1="219.9" x2="191.8" y2="220.6" stroke="rgb(0,0,0)"  stroke-width="1.0"/>
<line x1="413.0" y1="252.7" x2="372.4" y2="253.0" stroke="rgb(0,0,0)"  stroke-width="1.0"/>
<line x1="440.3" y1="252.4" x2="413.0" y2="252.7" stroke="rgb(0,0,0)"  stroke-width="1.0"/>
<line x1="440.3" y1="256.6" x2="413.0" y2="256.9" stroke="rgb(0,0,0)"  stroke-width="1.0"/>
<line x1="440.2" y1="248.2" x2="412.9" y2="248.5" stroke="rgb(0,0,0)"  stroke-width="1.0"/>
<line x1="116.2" y1="276.7" x2="129.5" y2="253.6" stroke="rgb(0,0,0)"  stroke-width="1.0"/>
<line x1="121.4" y1="279.7" x2="134.7" y2="256.6" stroke="rgb(0,0,0)"  stroke-width="1.0"/>
<line x1="105.4" y1="156.0" x2="132.1" y2="185.5" stroke="rgb(0,0,0)"  stroke-width="1.0"/>
<line x1="218.2" y1="154.0" x2="191.8" y2="154.0" stroke="rgb(0,0,0)"  stroke-width="1.0"/>
<line x1="218.2" y1="148.0" x2="191.8" y2="148.0" stroke="rgb(0,0,0)"  stroke-width="1.0"/>
<line x1="177.1" y1="113.8" x2="191.8" y2="151.0" stroke="rgb(0,0,0)"  stroke-width="1.0"/>
<line x1="306.7" y1="277.4" x2="292.8" y2="254.1" stroke="rgb(0,0,0)"  stroke-width="1.0"/>
<line x1="339.5" y1="218.7" x2="312.0" y2="219.2" stroke="rgb(0,0,0)"  stroke-width="1.0"/>
<line x1="372.4" y1="253.0" x2="359.0" y2="229.8" stroke="rgb(0,0,0)"  stroke-width="1.0"/>
<line x1="353.9" y1="287.9" x2="326.4" y2="288.3" stroke="rgb(0,0,0)"  stroke-width="1.0"/>
<line x1="367.9" y1="311.1" x2="353.9" y2="287.9" stroke="rgb(0,0,0)"  stroke-width="1.0"/>
<line x1="171.4" y1="185.5" x2="132.1" y2="185.5" stroke="rgb(0,0,0)"  stroke-width="1.0"/>
<line x1="165.4" y1="192.7" x2="138.1" y2="192.7" stroke="rgb(0,0,0)"  stroke-width="1.0"/>
<line x1="132.1" y1="185.5" x2="118.2" y2="209.4" stroke="rgb(0,0,0)"  stroke-width="1.0"/>
<line x1="118.3" y1="231.8" x2="132.1" y2="255.1" stroke="rgb(0,0,0)"  stroke-width="1.0"/>
<line x1="132.1" y1="255.1" x2="159.1" y2="254.6" stroke="rgb(0,0,0)"  stroke-width="1.0"/>
<line x1="178.7" y1="243.1" x2="191.8" y2="220.6" stroke="rgb(0,0,0)"  stroke-width="1.0"/>
<line x1="191.8" y1="220.6" x2="171.4" y2="185.5" stroke="rgb(0,0,0)"  stroke-width="1.0"/>
<line x1="231.9" y1="219.9" x2="252.3" y2="254.4" stroke="rgb(0,0,0)"  stroke-width="1.0"/>
<line x1="241.1" y1="221.4" x2="255.4" y2="245.5" stroke="rgb(0,0,0)"  stroke-width="1.0"/>
<line x1="252.3" y1="254.4" x2="292.8" y2="254.1" stroke="rgb(0,0,0)"  stroke-width="1.0"/>
<line x1="292.8" y1="254.1" x2="312.0" y2="219.2" stroke="rgb(0,0,0)"  stroke-width="1.0"/>
<line x1="289.4" y1="245.4" x2="302.8" y2="221.0" stroke="rgb(0,0,0)"  stroke-width="1.0"/>
<line x1="312.0" y1="219.2" x2="292.1" y2="184.1" stroke="rgb(0,0,0)"  stroke-width="1.0"/>
<line x1="292.1" y1="184.1" x2="251.6" y2="184.8" stroke="rgb(0,0,0)"  stroke-width="1.0"/>
<line x1="286.2" y1="191.4" x2="257.7" y2="191.9" stroke="rgb(0,0,0)"  stroke-width="1.0"/>
<line x1="251.6" y1="184.8" x2="231.9" y2="219.9" stroke="rgb(0,0,0)"  stroke-width="1.0"/>
<line x1="177.1" y1="113.8" x2="138.4" y2="108.2" stroke="rgb(0,0,0)"  stroke-width="1.0"/>
<line x1="138.4" y1="108.2" x2="123.6" y2="70.9" stroke="rgb(0,0,0)"  stroke-width="1.0"/>
<line x1="142.9" y1="99.9" x2="132.5" y2="73.8" stroke="rgb(0,0,0)"  stroke-width="1.0"/>
<line x1="123.6" y1="70.9" x2="148.2" y2="40.0" stroke="rgb(0,0,0)"  stroke-width="1.0"/>
<line x1="148.2" y1="40.0" x2="187.6" y2="45.6" stroke="rgb(0,0,0)"  stroke-width="1.0"/>
<line x1="153.2" y1="48.0" x2="180.6" y2="51.9" stroke="rgb(0,0,0)"  stroke-width="1.0"/>
<line x1="187.6" y1="45.6" x2="202.4" y2="82.9" stroke="rgb(0,0,0)"  stroke-width="1.0"/>
<line x1="202.4" y1="82.9" x2="177.1" y2="113.8" stroke="rgb(0,0,0)"  stroke-width="1.0"/>
<line x1="193.0" y1="83.0" x2="175.3" y2="104.6" stroke="rgb(0,0,0)"  stroke-width="1.0"/>
<line x1="105.4" y1="156.0" x2="118.0" y2="118.0" stroke="rgb(0,0,0)"  stroke-width="1.0"/>
<line x1="100.4" y1="148.0" x2="109.3" y2="121.4" stroke="rgb(0,0,0)"  stroke-width="1.0"/>
<line x1="118.0" y1="118.0" x2="92.0" y2="87.8" stroke="rgb(0,0,0)"  stroke-width="1.0"/>
<line x1="92.0" y1="87.8" x2="53.4" y2="95.5" stroke="rgb(0,0,0)"  stroke-width="1.0"/>
<line x1="87.5" y1="96.0" x2="60.7" y2="101.4" stroke="rgb(0,0,0)"  stroke-width="1.0"/>
<line x1="53.4" y1="95.5" x2="40.0" y2="133.5" stroke="rgb(0,0,0)"  stroke-width="1.0"/>
<line x1="40.0" y1="133.5" x2="66.7" y2="163.7" stroke="rgb(0,0,0)"  stroke-width="1.0"/>
<line x1="49.4" y1="133.2" x2="68.1" y2="154.4" stroke="rgb(0,0,0)"  stroke-width="1.0"/>
<line x1="66.7" y1="163.7" x2="105.4" y2="156.0" stroke="rgb(0,0,0)"  stroke-width="1.0"/>
<text x="93.689142" y="228.624001" fill="rgb(12,12,255)"  stroke="rgb(12,12,255)" stroke-width="1" font-size="16" >HN</text>
<text x="166.135118" y="262.363210" fill="rgb(12,12,255)"  stroke="rgb(12,12,255)" stroke-width="1" font-size="16" >N</text>
<text x="166.135118" y="278.363210" fill="rgb(12,12,255)"  stroke="rgb(12,12,255)" stroke-width="1" font-size="16" >H</text>
<text x="447.262818" y="260.250564" fill="rgb(102,102,102)"  stroke="rgb(102,102,102)" stroke-width="1" font-size="16" >CH</text>
<text x="106.393357" y="297.501137" fill="rgb(178,178,0)"  stroke="rgb(178,178,0)" stroke-width="1" font-size="16" >S</text>
<text x="225.172664" y="159.047506" fill="rgb(255,12,12)"  stroke="rgb(255,12,12)" stroke-width="1" font-size="16" >O</text>
<text x="307.400756" y="296.563802" fill="rgb(255,12,12)"  stroke="rgb(255,12,12)" stroke-width="1" font-size="16" >O</text>
<text x="346.526000" y="226.516211" fill="rgb(255,12,12)"  stroke="rgb(255,12,12)" stroke-width="1" font-size="16" >O</text>
<text x="370.546091" y="330.298155" fill="rgb(102,102,102)"  stroke="rgb(102,102,102)" stroke-width="1" font-size="16" >CH</text>
<text x="394.546091" y="333.978155" fill="rgb(102,102,102)"  stroke="rgb(102,102,102)" stroke-width="1" font-size="13" >3</text>
<text font-size="18.000000" fill ="black" font-family="sans-serif"
x="10.000000" y="20.000000" ></text>
<title> - OBDepict</title>
</svg>
