<?xml version="1.0"?>
<svg xmlns="http://www.w3.org/2000/svg"
xmlns:xlink="http://www.w3.org/1999/xlink" xmlns:cml="http://www.xml-cml.org/schema" width="441.021" height="430.536" x="0" y="0" font-family="sans-serif" stroke="rgb(0,0,0)" stroke-width="1"  stroke-linecap="round">
<rect x="0%" y="0%" width="100%" height="100%" stroke-width="0" fill="rgb(255,255,255)"  />
<line x1="353.8" y1="87.0" x2="338.1" y2="107.5" stroke="rgb(0,0,0)"  stroke-width="1.0"/>
<line x1="220.2" y1="192.7" x2="180.0" y2="229.8" stroke="rgb(0,0,0)"  stroke-width="1.0"/>
<line x1="266.0" y1="201.2" x2="220.2" y2="192.7" stroke="rgb(0,0,0)"  stroke-width="1.0"/>
<line x1="167.8" y1="360.4" x2="193.1" y2="330.7" stroke="rgb(0,0,0)"  stroke-width="1.0"/>
<line x1="150.6" y1="380.6" x2="167.8" y2="360.4" stroke="rgb(0,0,0)"  stroke-width="1.0"/>
<line x1="147.4" y1="377.9" x2="164.6" y2="357.7" stroke="rgb(0,0,0)"  stroke-width="1.0"/>
<line x1="153.8" y1="383.3" x2="171.0" y2="363.1" stroke="rgb(0,0,0)"  stroke-width="1.0"/>
<line x1="388.1" y1="80.2" x2="374.6" y2="78.4" stroke="rgb(0,0,0)"  stroke-width="1.0"/>
<line x1="226.6" y1="265.1" x2="201.6" y2="262.9" stroke="rgb(0,0,0)"  stroke-width="1.0"/>
<line x1="227.1" y1="259.1" x2="202.1" y2="256.9" stroke="rgb(0,0,0)"  stroke-width="1.0"/>
<line x1="354.7" y1="51.0" x2="359.7" y2="63.5" stroke="rgb(0,0,0)"  stroke-width="1.0"/>
<line x1="349.1" y1="53.2" x2="354.1" y2="65.7" stroke="rgb(0,0,0)"  stroke-width="1.0"/>
<line x1="290.1" y1="169.7" x2="266.0" y2="201.2" stroke="rgb(0,0,0)"  stroke-width="1.0"/>
<line x1="193.1" y1="330.7" x2="184.3" y2="305.8" stroke="rgb(0,0,0)"  stroke-width="1.0"/>
<line x1="166.6" y1="199.9" x2="180.0" y2="229.8" stroke="rgb(0,0,0)"  stroke-width="1.0"/>
<line x1="270.9" y1="218.3" x2="263.3" y2="202.5" stroke="rgb(0,0,0)"  stroke-width="1.0"/>
<line x1="276.3" y1="215.7" x2="268.8" y2="199.9" stroke="rgb(0,0,0)"  stroke-width="1.0"/>
<line x1="51.3" y1="228.6" x2="74.1" y2="241.8" stroke="rgb(0,0,0)"  stroke-width="1.0"/>
<line x1="201.8" y1="259.9" x2="187.1" y2="282.7" stroke="rgb(0,0,0)"  stroke-width="1.0"/>
<line x1="167.6" y1="289.6" x2="142.2" y2="281.6" stroke="rgb(0,0,0)"  stroke-width="1.0"/>
<line x1="142.2" y1="281.6" x2="142.2" y2="241.8" stroke="rgb(0,0,0)"  stroke-width="1.0"/>
<line x1="149.4" y1="275.6" x2="149.4" y2="247.8" stroke="rgb(0,0,0)"  stroke-width="1.0"/>
<line x1="142.2" y1="241.8" x2="180.0" y2="229.8" stroke="rgb(0,0,0)"  stroke-width="1.0"/>
<line x1="180.0" y1="229.8" x2="201.8" y2="259.9" stroke="rgb(0,0,0)"  stroke-width="1.0"/>
<line x1="290.1" y1="169.7" x2="275.0" y2="133.7" stroke="rgb(0,0,0)"  stroke-width="1.0"/>
<line x1="294.4" y1="161.4" x2="284.0" y2="136.5" stroke="rgb(0,0,0)"  stroke-width="1.0"/>
<line x1="275.0" y1="133.7" x2="298.8" y2="102.2" stroke="rgb(0,0,0)"  stroke-width="1.0"/>
<line x1="298.8" y1="102.2" x2="338.1" y2="107.5" stroke="rgb(0,0,0)"  stroke-width="1.0"/>
<line x1="303.8" y1="110.2" x2="331.2" y2="113.8" stroke="rgb(0,0,0)"  stroke-width="1.0"/>
<line x1="338.1" y1="107.5" x2="353.0" y2="144.2" stroke="rgb(0,0,0)"  stroke-width="1.0"/>
<line x1="353.0" y1="144.2" x2="328.9" y2="175.0" stroke="rgb(0,0,0)"  stroke-width="1.0"/>
<line x1="343.6" y1="144.5" x2="327.0" y2="165.8" stroke="rgb(0,0,0)"  stroke-width="1.0"/>
<line x1="328.9" y1="175.0" x2="290.1" y2="169.7" stroke="rgb(0,0,0)"  stroke-width="1.0"/>
<line x1="142.2" y1="281.6" x2="108.1" y2="301.2" stroke="rgb(0,0,0)"  stroke-width="1.0"/>
<line x1="108.1" y1="301.2" x2="74.1" y2="281.6" stroke="rgb(0,0,0)"  stroke-width="1.0"/>
<line x1="106.5" y1="292.0" x2="82.9" y2="278.3" stroke="rgb(0,0,0)"  stroke-width="1.0"/>
<line x1="74.1" y1="281.6" x2="74.1" y2="241.8" stroke="rgb(0,0,0)"  stroke-width="1.0"/>
<line x1="74.1" y1="241.8" x2="108.1" y2="222.2" stroke="rgb(0,0,0)"  stroke-width="1.0"/>
<line x1="82.9" y1="245.0" x2="106.5" y2="231.4" stroke="rgb(0,0,0)"  stroke-width="1.0"/>
<line x1="108.1" y1="222.2" x2="142.2" y2="241.8" stroke="rgb(0,0,0)"  stroke-width="1.0"/>
<text x="173.994396" y="301.567719" fill="rgb(12,12,255)"  stroke="rgb(12,12,255)" stroke-width="1" font-size="16" >N</text>
<text x="366.505018" y="72.659154" fill="rgb(12,12,255)"  stroke="rgb(12,12,255)" stroke-width="1" font-size="16" >+</text>
<text x="355.705018" y="84.691154" fill="rgb(12,12,255)"  stroke="rgb(12,12,255)" stroke-width="1" font-size="16" >N</text>
<text x="124.213122" y="398.535831" fill="rgb(102,102,102)"  stroke="rgb(102,102,102)" stroke-width="1" font-size="16" >HC</text>
<text x="405.821067" y="67.819382" fill="rgb(255,12,12)"  stroke="rgb(255,12,12)" stroke-width="1" font-size="16" >_</text>
<text x="395.021067" y="89.931382" fill="rgb(255,12,12)"  stroke="rgb(255,12,12)" stroke-width="1" font-size="16" >O</text>
<text x="233.836263" y="271.206912" fill="rgb(255,12,12)"  stroke="rgb(255,12,12)" stroke-width="1" font-size="16" >O</text>
<text x="341.069675" y="48.000000" fill="rgb(255,12,12)"  stroke="rgb(255,12,12)" stroke-width="1" font-size="16" >O</text>
<text x="143.213727" y="196.079455" fill="rgb(255,12,12)"  stroke="rgb(255,12,12)" stroke-width="1" font-size="16" >HO</text>
<text x="273.152312" y="236.700780" fill="rgb(255,12,12)"  stroke="rgb(255,12,12)" stroke-width="1" font-size="16" >O</text>
<text x="22.000000" y="230.150495" fill="rgb(165,40,40)"  stroke="rgb(165,40,40)" stroke-width="1" font-size="16" >Br</text>
<text font-size="18.000000" fill ="black" font-family="sans-serif"
x="10.000000" y="20.000000" ></text>
<title> - OBDepict</title>
</svg>
