<?xml version="1.0"?>
<svg xmlns="http://www.w3.org/2000/svg"
xmlns:xlink="http://www.w3.org/1999/xlink" xmlns:cml="http://www.xml-cml.org/schema" width="461.213" height="347.498" x="0" y="0" font-family="sans-serif" stroke="rgb(0,0,0)" stroke-width="1"  stroke-linecap="round">
<rect x="0%" y="0%" width="100%" height="100%" stroke-width="0" fill="rgb(255,255,255)"  />
<line x1="267.8" y1="180.9" x2="240.7" y2="180.6" stroke="rgb(0,0,0)"  stroke-width="1.0"/>
<line x1="267.8" y1="174.9" x2="240.8" y2="174.6" stroke="rgb(0,0,0)"  stroke-width="1.0"/>
<line x1="300.8" y1="143.4" x2="287.3" y2="166.7" stroke="rgb(0,0,0)"  stroke-width="1.0"/>
<line x1="347.4" y1="85.8" x2="360.9" y2="109.0" stroke="rgb(0,0,0)"  stroke-width="1.0"/>
<line x1="85.9" y1="143.8" x2="109.8" y2="157.6" stroke="rgb(0,0,0)"  stroke-width="1.0"/>
<line x1="340.9" y1="143.4" x2="300.8" y2="143.4" stroke="rgb(0,0,0)"  stroke-width="1.0"/>
<line x1="202.7" y1="277.8" x2="229.4" y2="248.0" stroke="rgb(0,0,0)"  stroke-width="1.0"/>
<line x1="184.7" y1="297.8" x2="202.7" y2="277.8" stroke="rgb(0,0,0)"  stroke-width="1.0"/>
<line x1="181.5" y1="295.0" x2="199.6" y2="274.9" stroke="rgb(0,0,0)"  stroke-width="1.0"/>
<line x1="187.8" y1="300.6" x2="205.8" y2="280.6" stroke="rgb(0,0,0)"  stroke-width="1.0"/>
<line x1="354.1" y1="51.3" x2="347.3" y2="63.3" stroke="rgb(0,0,0)"  stroke-width="1.0"/>
<line x1="74.6" y1="110.7" x2="74.6" y2="124.3" stroke="rgb(0,0,0)"  stroke-width="1.0"/>
<line x1="313.8" y1="71.6" x2="327.9" y2="71.6" stroke="rgb(0,0,0)"  stroke-width="1.0"/>
<line x1="313.8" y1="77.6" x2="327.9" y2="77.6" stroke="rgb(0,0,0)"  stroke-width="1.0"/>
<line x1="49.7" y1="148.2" x2="61.8" y2="141.2" stroke="rgb(0,0,0)"  stroke-width="1.0"/>
<line x1="52.8" y1="153.4" x2="64.9" y2="146.4" stroke="rgb(0,0,0)"  stroke-width="1.0"/>
<line x1="289.9" y1="118.5" x2="303.4" y2="141.9" stroke="rgb(0,0,0)"  stroke-width="1.0"/>
<line x1="284.7" y1="121.5" x2="298.2" y2="144.9" stroke="rgb(0,0,0)"  stroke-width="1.0"/>
<line x1="229.4" y1="248.0" x2="221.2" y2="222.2" stroke="rgb(0,0,0)"  stroke-width="1.0"/>
<line x1="240.7" y1="177.6" x2="224.9" y2="155.7" stroke="rgb(0,0,0)"  stroke-width="1.0"/>
<line x1="204.9" y1="149.2" x2="179.0" y2="157.6" stroke="rgb(0,0,0)"  stroke-width="1.0"/>
<line x1="179.0" y1="157.6" x2="179.0" y2="197.6" stroke="rgb(0,0,0)"  stroke-width="1.0"/>
<line x1="186.2" y1="163.6" x2="186.2" y2="191.6" stroke="rgb(0,0,0)"  stroke-width="1.0"/>
<line x1="179.0" y1="197.6" x2="204.9" y2="205.8" stroke="rgb(0,0,0)"  stroke-width="1.0"/>
<line x1="224.9" y1="199.3" x2="240.7" y2="177.6" stroke="rgb(0,0,0)"  stroke-width="1.0"/>
<line x1="340.9" y1="143.4" x2="360.9" y2="109.0" stroke="rgb(0,0,0)"  stroke-width="1.0"/>
<line x1="360.9" y1="109.0" x2="400.6" y2="109.0" stroke="rgb(0,0,0)"  stroke-width="1.0"/>
<line x1="366.9" y1="116.2" x2="394.6" y2="116.2" stroke="rgb(0,0,0)"  stroke-width="1.0"/>
<line x1="400.6" y1="109.0" x2="421.2" y2="143.6" stroke="rgb(0,0,0)"  stroke-width="1.0"/>
<line x1="421.2" y1="143.6" x2="400.6" y2="178.2" stroke="rgb(0,0,0)"  stroke-width="1.0"/>
<line x1="412.0" y1="145.1" x2="397.5" y2="169.4" stroke="rgb(0,0,0)"  stroke-width="1.0"/>
<line x1="400.6" y1="178.2" x2="361.1" y2="178.2" stroke="rgb(0,0,0)"  stroke-width="1.0"/>
<line x1="361.1" y1="178.2" x2="340.9" y2="143.4" stroke="rgb(0,0,0)"  stroke-width="1.0"/>
<line x1="364.3" y1="169.4" x2="350.1" y2="145.0" stroke="rgb(0,0,0)"  stroke-width="1.0"/>
<line x1="144.4" y1="137.5" x2="179.0" y2="157.6" stroke="rgb(0,0,0)"  stroke-width="1.0"/>
<line x1="179.0" y1="197.6" x2="144.4" y2="217.7" stroke="rgb(0,0,0)"  stroke-width="1.0"/>
<line x1="144.4" y1="217.7" x2="109.8" y2="197.6" stroke="rgb(0,0,0)"  stroke-width="1.0"/>
<line x1="142.8" y1="208.4" x2="118.6" y2="194.4" stroke="rgb(0,0,0)"  stroke-width="1.0"/>
<line x1="109.8" y1="197.6" x2="109.8" y2="157.6" stroke="rgb(0,0,0)"  stroke-width="1.0"/>
<line x1="109.8" y1="157.6" x2="144.4" y2="137.5" stroke="rgb(0,0,0)"  stroke-width="1.0"/>
<line x1="118.6" y1="160.8" x2="142.8" y2="146.8" stroke="rgb(0,0,0)"  stroke-width="1.0"/>
<text x="274.785751" y="185.998934" fill="rgb(12,12,255)"  stroke="rgb(12,12,255)" stroke-width="1" font-size="16" >N</text>
<text x="211.252740" y="217.765440" fill="rgb(12,12,255)"  stroke="rgb(12,12,255)" stroke-width="1" font-size="16" >N</text>
<text x="211.252740" y="153.219583" fill="rgb(178,178,0)"  stroke="rgb(178,178,0)" stroke-width="1" font-size="16" >S</text>
<text x="345.682842" y="70.569503" fill="rgb(12,12,255)"  stroke="rgb(12,12,255)" stroke-width="1" font-size="16" >+</text>
<text x="334.882842" y="82.601503" fill="rgb(12,12,255)"  stroke="rgb(12,12,255)" stroke-width="1" font-size="16" >N</text>
<text x="79.401503" y="133.293207" fill="rgb(12,12,255)"  stroke="rgb(12,12,255)" stroke-width="1" font-size="16" >+</text>
<text x="68.601503" y="145.325207" fill="rgb(12,12,255)"  stroke="rgb(12,12,255)" stroke-width="1" font-size="16" >N</text>
<text x="157.973244" y="315.497723" fill="rgb(102,102,102)"  stroke="rgb(102,102,102)" stroke-width="1" font-size="16" >HC</text>
<text x="365.309745" y="25.888000" fill="rgb(255,12,12)"  stroke="rgb(255,12,12)" stroke-width="1" font-size="16" >_</text>
<text x="354.509745" y="48.000000" fill="rgb(255,12,12)"  stroke="rgb(255,12,12)" stroke-width="1" font-size="16" >O</text>
<text x="79.401503" y="83.552325" fill="rgb(255,12,12)"  stroke="rgb(255,12,12)" stroke-width="1" font-size="16" >_</text>
<text x="68.601503" y="105.664325" fill="rgb(255,12,12)"  stroke="rgb(255,12,12)" stroke-width="1" font-size="16" >O</text>
<text x="294.819730" y="82.601503" fill="rgb(255,12,12)"  stroke="rgb(255,12,12)" stroke-width="1" font-size="16" >O</text>
<text x="34.000000" y="165.359186" fill="rgb(255,12,12)"  stroke="rgb(255,12,12)" stroke-width="1" font-size="16" >O</text>
<text x="274.785751" y="116.795929" fill="rgb(255,12,12)"  stroke="rgb(255,12,12)" stroke-width="1" font-size="16" >O</text>
<text font-size="18.000000" fill ="black" font-family="sans-serif"
x="10.000000" y="20.000000" ></text>
<title> - OBDepict</title>
</svg>
