<?xml version="1.0"?>
<svg xmlns="http://www.w3.org/2000/svg"
xmlns:xlink="http://www.w3.org/1999/xlink" xmlns:cml="http://www.xml-cml.org/schema" width="462.786" height="249.812" x="0" y="0" font-family="sans-serif" stroke="rgb(0,0,0)" stroke-width="1"  stroke-linecap="round">
<rect x="0%" y="0%" width="100%" height="100%" stroke-width="0" fill="rgb(255,255,255)"  />
<line x1="180.3" y1="119.5" x2="214.8" y2="99.7" stroke="rgb(0,0,0)"  stroke-width="1.0"/>
<line x1="216.3" y1="97.0" x2="251.3" y2="116.9" stroke="rgb(0,0,0)"  stroke-width="1.0"/>
<line x1="213.3" y1="102.3" x2="248.3" y2="122.1" stroke="rgb(0,0,0)"  stroke-width="1.0"/>
<line x1="353.5" y1="99.7" x2="329.8" y2="113.1" stroke="rgb(0,0,0)"  stroke-width="1.0"/>
<line x1="340.0" y1="175.3" x2="317.0" y2="162.3" stroke="rgb(0,0,0)"  stroke-width="1.0"/>
<line x1="343.0" y1="170.1" x2="319.9" y2="157.0" stroke="rgb(0,0,0)"  stroke-width="1.0"/>
<line x1="79.8" y1="208.1" x2="119.7" y2="204.3" stroke="rgb(0,0,0)"  stroke-width="1.0"/>
<line x1="287.1" y1="72.2" x2="287.1" y2="99.3" stroke="rgb(0,0,0)"  stroke-width="1.0"/>
<line x1="281.1" y1="72.2" x2="281.1" y2="99.3" stroke="rgb(0,0,0)"  stroke-width="1.0"/>
<line x1="53.0" y1="209.3" x2="79.8" y2="208.1" stroke="rgb(0,0,0)"  stroke-width="1.0"/>
<line x1="52.8" y1="205.1" x2="79.7" y2="203.9" stroke="rgb(0,0,0)"  stroke-width="1.0"/>
<line x1="53.2" y1="213.5" x2="80.0" y2="212.3" stroke="rgb(0,0,0)"  stroke-width="1.0"/>
<line x1="224.6" y1="170.5" x2="248.3" y2="157.0" stroke="rgb(0,0,0)"  stroke-width="1.0"/>
<line x1="227.6" y1="175.7" x2="251.3" y2="162.3" stroke="rgb(0,0,0)"  stroke-width="1.0"/>
<line x1="119.7" y1="204.3" x2="130.9" y2="179.5" stroke="rgb(0,0,0)"  stroke-width="1.0"/>
<line x1="387.7" y1="146.7" x2="387.8" y2="119.8" stroke="rgb(0,0,0)"  stroke-width="1.0"/>
<line x1="410.7" y1="173.2" x2="398.8" y2="166.2" stroke="rgb(0,0,0)"  stroke-width="1.0"/>
<line x1="175.6" y1="159.3" x2="149.0" y2="165.0" stroke="rgb(0,0,0)"  stroke-width="1.0"/>
<line x1="129.8" y1="156.4" x2="116.3" y2="132.8" stroke="rgb(0,0,0)"  stroke-width="1.0"/>
<line x1="116.3" y1="132.8" x2="143.2" y2="103.0" stroke="rgb(0,0,0)"  stroke-width="1.0"/>
<line x1="143.2" y1="103.0" x2="180.3" y2="119.5" stroke="rgb(0,0,0)"  stroke-width="1.0"/>
<line x1="180.3" y1="119.5" x2="175.6" y2="159.3" stroke="rgb(0,0,0)"  stroke-width="1.0"/>
<line x1="172.5" y1="124.6" x2="169.2" y2="152.5" stroke="rgb(0,0,0)"  stroke-width="1.0"/>
<line x1="318.5" y1="132.5" x2="318.5" y2="159.7" stroke="rgb(0,0,0)"  stroke-width="1.0"/>
<line x1="318.5" y1="159.7" x2="295.4" y2="172.7" stroke="rgb(0,0,0)"  stroke-width="1.0"/>
<line x1="272.8" y1="172.7" x2="249.8" y2="159.7" stroke="rgb(0,0,0)"  stroke-width="1.0"/>
<line x1="249.8" y1="159.7" x2="249.8" y2="119.5" stroke="rgb(0,0,0)"  stroke-width="1.0"/>
<line x1="249.8" y1="119.5" x2="284.1" y2="99.3" stroke="rgb(0,0,0)"  stroke-width="1.0"/>
<line x1="284.1" y1="99.3" x2="307.3" y2="112.9" stroke="rgb(0,0,0)"  stroke-width="1.0"/>
<line x1="116.3" y1="132.8" x2="77.3" y2="124.3" stroke="rgb(0,0,0)"  stroke-width="1.0"/>
<line x1="112.0" y1="124.5" x2="84.7" y2="118.6" stroke="rgb(0,0,0)"  stroke-width="1.0"/>
<line x1="77.3" y1="124.3" x2="65.2" y2="86.3" stroke="rgb(0,0,0)"  stroke-width="1.0"/>
<line x1="65.2" y1="86.3" x2="91.8" y2="56.8" stroke="rgb(0,0,0)"  stroke-width="1.0"/>
<line x1="74.5" y1="86.7" x2="93.1" y2="66.1" stroke="rgb(0,0,0)"  stroke-width="1.0"/>
<line x1="91.8" y1="56.8" x2="131.5" y2="64.7" stroke="rgb(0,0,0)"  stroke-width="1.0"/>
<line x1="131.5" y1="64.7" x2="143.2" y2="103.0" stroke="rgb(0,0,0)"  stroke-width="1.0"/>
<line x1="126.3" y1="72.5" x2="134.5" y2="99.3" stroke="rgb(0,0,0)"  stroke-width="1.0"/>
<line x1="353.5" y1="99.7" x2="387.8" y2="119.8" stroke="rgb(0,0,0)"  stroke-width="1.0"/>
<line x1="362.3" y1="96.5" x2="386.3" y2="110.6" stroke="rgb(0,0,0)"  stroke-width="1.0"/>
<line x1="387.8" y1="119.8" x2="422.6" y2="100.0" stroke="rgb(0,0,0)"  stroke-width="1.0"/>
<line x1="422.6" y1="100.0" x2="422.8" y2="59.8" stroke="rgb(0,0,0)"  stroke-width="1.0"/>
<line x1="415.4" y1="94.0" x2="415.6" y2="65.8" stroke="rgb(0,0,0)"  stroke-width="1.0"/>
<line x1="422.8" y1="59.8" x2="387.8" y2="40.0" stroke="rgb(0,0,0)"  stroke-width="1.0"/>
<line x1="387.8" y1="40.0" x2="353.3" y2="59.8" stroke="rgb(0,0,0)"  stroke-width="1.0"/>
<line x1="386.2" y1="49.2" x2="362.1" y2="63.1" stroke="rgb(0,0,0)"  stroke-width="1.0"/>
<line x1="353.3" y1="59.8" x2="353.5" y2="99.7" stroke="rgb(0,0,0)"  stroke-width="1.0"/>
<text x="312.464530" y="127.491226" fill="rgb(12,12,255)"  stroke="rgb(12,12,255)" stroke-width="1" font-size="16" >N</text>
<text x="278.136014" y="187.149709" fill="rgb(12,12,255)"  stroke="rgb(12,12,255)" stroke-width="1" font-size="16" >N</text>
<text x="278.136014" y="203.149709" fill="rgb(12,12,255)"  stroke="rgb(12,12,255)" stroke-width="1" font-size="16" >H</text>
<text x="130.317978" y="175.650215" fill="rgb(12,12,255)"  stroke="rgb(12,12,255)" stroke-width="1" font-size="16" >N</text>
<text x="346.793045" y="187.149709" fill="rgb(178,178,0)"  stroke="rgb(178,178,0)" stroke-width="1" font-size="16" >S</text>
<text x="278.136014" y="67.162586" fill="rgb(255,12,12)"  stroke="rgb(255,12,12)" stroke-width="1" font-size="16" >O</text>
<text x="22.000000" y="217.811790" fill="rgb(102,102,102)"  stroke="rgb(102,102,102)" stroke-width="1" font-size="16" >HC</text>
<text x="208.808825" y="187.479931" fill="rgb(255,12,12)"  stroke="rgb(255,12,12)" stroke-width="1" font-size="16" >O</text>
<text x="381.626607" y="167.652045" fill="rgb(255,12,12)"  stroke="rgb(255,12,12)" stroke-width="1" font-size="16" >O</text>
<text x="417.950266" y="187.815009" fill="rgb(102,102,102)"  stroke="rgb(102,102,102)" stroke-width="1" font-size="16" >CH</text>
<text x="441.950266" y="191.495009" fill="rgb(102,102,102)"  stroke="rgb(102,102,102)" stroke-width="1" font-size="13" >3</text>
<text font-size="18.000000" fill ="black" font-family="sans-serif"
x="10.000000" y="20.000000" ></text>
<title> - OBDepict</title>
</svg>
