<?xml version="1.0"?>
<svg xmlns="http://www.w3.org/2000/svg"
xmlns:xlink="http://www.w3.org/1999/xlink" xmlns:cml="http://www.xml-cml.org/schema" width="419.854" height="288.494" x="0" y="0" font-family="sans-serif" stroke="rgb(0,0,0)" stroke-width="1"  stroke-linecap="round">
<rect x="0%" y="0%" width="100%" height="100%" stroke-width="0" fill="rgb(255,255,255)"  />
<line x1="302.3" y1="107.8" x2="322.2" y2="142.8" stroke="rgb(0,0,0)"  stroke-width="1.0"/>
<line x1="297.1" y1="110.8" x2="317.0" y2="145.7" stroke="rgb(0,0,0)"  stroke-width="1.0"/>
<line x1="80.2" y1="73.1" x2="120.1" y2="73.7" stroke="rgb(0,0,0)"  stroke-width="1.0"/>
<line x1="53.0" y1="72.7" x2="80.2" y2="73.1" stroke="rgb(0,0,0)"  stroke-width="1.0"/>
<line x1="53.1" y1="68.5" x2="80.2" y2="68.9" stroke="rgb(0,0,0)"  stroke-width="1.0"/>
<line x1="52.9" y1="76.9" x2="80.1" y2="77.3" stroke="rgb(0,0,0)"  stroke-width="1.0"/>
<line x1="272.7" y1="176.1" x2="299.7" y2="176.0" stroke="rgb(0,0,0)"  stroke-width="1.0"/>
<line x1="272.8" y1="182.1" x2="299.7" y2="182.0" stroke="rgb(0,0,0)"  stroke-width="1.0"/>
<line x1="375.9" y1="122.4" x2="362.4" y2="145.8" stroke="rgb(0,0,0)"  stroke-width="1.0"/>
<line x1="370.7" y1="119.4" x2="357.2" y2="142.7" stroke="rgb(0,0,0)"  stroke-width="1.0"/>
<line x1="259.7" y1="109.3" x2="299.7" y2="109.3" stroke="rgb(0,0,0)"  stroke-width="1.0"/>
<line x1="370.8" y1="238.7" x2="357.2" y2="215.0" stroke="rgb(0,0,0)"  stroke-width="1.0"/>
<line x1="376.0" y1="235.7" x2="362.4" y2="212.0" stroke="rgb(0,0,0)"  stroke-width="1.0"/>
<line x1="186.8" y1="51.3" x2="200.1" y2="74.7" stroke="rgb(0,0,0)"  stroke-width="1.0"/>
<line x1="152.8" y1="108.7" x2="179.8" y2="109.1" stroke="rgb(0,0,0)"  stroke-width="1.0"/>
<line x1="120.1" y1="73.7" x2="133.4" y2="97.2" stroke="rgb(0,0,0)"  stroke-width="1.0"/>
<line x1="319.6" y1="144.2" x2="359.8" y2="144.2" stroke="rgb(0,0,0)"  stroke-width="1.0"/>
<line x1="359.8" y1="144.2" x2="373.4" y2="167.9" stroke="rgb(0,0,0)"  stroke-width="1.0"/>
<line x1="373.3" y1="190.4" x2="359.8" y2="213.5" stroke="rgb(0,0,0)"  stroke-width="1.0"/>
<line x1="359.8" y1="213.5" x2="333.0" y2="213.5" stroke="rgb(0,0,0)"  stroke-width="1.0"/>
<line x1="313.4" y1="202.3" x2="299.7" y2="179.0" stroke="rgb(0,0,0)"  stroke-width="1.0"/>
<line x1="299.7" y1="179.0" x2="319.6" y2="144.2" stroke="rgb(0,0,0)"  stroke-width="1.0"/>
<line x1="200.1" y1="74.7" x2="179.8" y2="109.1" stroke="rgb(0,0,0)"  stroke-width="1.0"/>
<line x1="179.8" y1="109.1" x2="199.5" y2="143.6" stroke="rgb(0,0,0)"  stroke-width="1.0"/>
<line x1="189.0" y1="110.7" x2="202.8" y2="134.9" stroke="rgb(0,0,0)"  stroke-width="1.0"/>
<line x1="199.5" y1="143.6" x2="239.5" y2="144.0" stroke="rgb(0,0,0)"  stroke-width="1.0"/>
<line x1="239.5" y1="144.0" x2="259.7" y2="109.3" stroke="rgb(0,0,0)"  stroke-width="1.0"/>
<line x1="236.3" y1="135.2" x2="250.5" y2="110.9" stroke="rgb(0,0,0)"  stroke-width="1.0"/>
<line x1="259.7" y1="109.3" x2="240.1" y2="75.0" stroke="rgb(0,0,0)"  stroke-width="1.0"/>
<line x1="240.1" y1="75.0" x2="200.1" y2="74.7" stroke="rgb(0,0,0)"  stroke-width="1.0"/>
<line x1="234.0" y1="82.1" x2="206.0" y2="82.0" stroke="rgb(0,0,0)"  stroke-width="1.0"/>
<text x="373.854006" y="187.199673" fill="rgb(12,12,255)"  stroke="rgb(12,12,255)" stroke-width="1" font-size="16" >NH</text>
<text x="313.998341" y="221.544121" fill="rgb(12,12,255)"  stroke="rgb(12,12,255)" stroke-width="1" font-size="16" >N</text>
<text x="313.998341" y="237.544121" fill="rgb(12,12,255)"  stroke="rgb(12,12,255)" stroke-width="1" font-size="16" >H</text>
<text x="22.000000" y="80.541945" fill="rgb(102,102,102)"  stroke="rgb(102,102,102)" stroke-width="1" font-size="16" >HC</text>
<text x="253.735658" y="187.199673" fill="rgb(255,12,12)"  stroke="rgb(255,12,12)" stroke-width="1" font-size="16" >O</text>
<text x="373.854006" y="117.696745" fill="rgb(255,12,12)"  stroke="rgb(255,12,12)" stroke-width="1" font-size="16" >O</text>
<text x="373.854006" y="256.494248" fill="rgb(255,12,12)"  stroke="rgb(255,12,12)" stroke-width="1" font-size="16" >O</text>
<text x="162.401341" y="48.000000" fill="rgb(165,40,40)"  stroke="rgb(165,40,40)" stroke-width="1" font-size="16" >Br</text>
<text x="133.825664" y="116.495077" fill="rgb(255,12,12)"  stroke="rgb(255,12,12)" stroke-width="1" font-size="16" >O</text>
<text font-size="18.000000" fill ="black" font-family="sans-serif"
x="10.000000" y="20.000000" ></text>
<title> - OBDepict</title>
</svg>
