<?xml version="1.0"?>
<svg xmlns="http://www.w3.org/2000/svg"
xmlns:xlink="http://www.w3.org/1999/xlink" xmlns:cml="http://www.xml-cml.org/schema" width="287.851" height="322.042" x="0" y="0" font-family="sans-serif" stroke="rgb(0,0,0)" stroke-width="1"  stroke-linecap="round">
<rect x="0%" y="0%" width="100%" height="100%" stroke-width="0" fill="rgb(255,255,255)"  />
<line x1="181.0" y1="203.5" x2="181.0" y2="231.3" stroke="rgb(0,0,0)"  stroke-width="1.0"/>
<line x1="175.0" y1="203.5" x2="175.0" y2="231.3" stroke="rgb(0,0,0)"  stroke-width="1.0"/>
<line x1="224.7" y1="191.2" x2="236.2" y2="198.3" stroke="rgb(0,0,0)"  stroke-width="1.0"/>
<line x1="213.7" y1="142.5" x2="236.9" y2="127.4" stroke="rgb(0,0,0)"  stroke-width="1.0"/>
<line x1="247.9" y1="107.4" x2="247.9" y2="79.1" stroke="rgb(0,0,0)"  stroke-width="1.0"/>
<line x1="247.9" y1="79.1" x2="213.5" y2="59.5" stroke="rgb(0,0,0)"  stroke-width="1.0"/>
<line x1="213.5" y1="59.5" x2="190.6" y2="46.4" stroke="rgb(0,0,0)"  stroke-width="1.0"/>
<line x1="211.5" y1="63.1" x2="188.6" y2="50.1" stroke="rgb(0,0,0)"  stroke-width="1.0"/>
<line x1="215.6" y1="55.8" x2="192.7" y2="42.8" stroke="rgb(0,0,0)"  stroke-width="1.0"/>
<line x1="109.2" y1="203.5" x2="73.7" y2="184.4" stroke="rgb(0,0,0)"  stroke-width="1.0"/>
<line x1="73.7" y1="184.4" x2="73.7" y2="142.5" stroke="rgb(0,0,0)"  stroke-width="1.0"/>
<line x1="73.7" y1="142.5" x2="108.9" y2="123.5" stroke="rgb(0,0,0)"  stroke-width="1.0"/>
<line x1="108.9" y1="123.5" x2="142.6" y2="142.5" stroke="rgb(0,0,0)"  stroke-width="1.0"/>
<line x1="142.6" y1="142.5" x2="142.6" y2="184.4" stroke="rgb(0,0,0)"  stroke-width="1.0"/>
<line x1="135.4" y1="148.5" x2="135.4" y2="178.4" stroke="rgb(0,0,0)"  stroke-width="1.0"/>
<line x1="142.6" y1="184.4" x2="109.2" y2="203.5" stroke="rgb(0,0,0)"  stroke-width="1.0"/>
<line x1="40.0" y1="123.5" x2="73.7" y2="142.5" stroke="rgb(0,0,0)"  stroke-width="1.0"/>
<line x1="48.8" y1="120.1" x2="72.0" y2="133.2" stroke="rgb(0,0,0)"  stroke-width="1.0"/>
<line x1="108.9" y1="123.5" x2="108.9" y2="83.5" stroke="rgb(0,0,0)"  stroke-width="1.0"/>
<line x1="101.7" y1="117.5" x2="101.7" y2="89.5" stroke="rgb(0,0,0)"  stroke-width="1.0"/>
<line x1="108.9" y1="83.5" x2="73.7" y2="63.0" stroke="rgb(0,0,0)"  stroke-width="1.0"/>
<line x1="73.7" y1="63.0" x2="40.0" y2="83.5" stroke="rgb(0,0,0)"  stroke-width="1.0"/>
<line x1="72.3" y1="72.3" x2="48.9" y2="86.5" stroke="rgb(0,0,0)"  stroke-width="1.0"/>
<line x1="40.0" y1="83.5" x2="40.0" y2="123.5" stroke="rgb(0,0,0)"  stroke-width="1.0"/>
<line x1="109.2" y1="203.5" x2="142.6" y2="224.2" stroke="rgb(0,0,0)"  stroke-width="1.0"/>
<line x1="142.6" y1="224.2" x2="142.6" y2="265.0" stroke="rgb(0,0,0)"  stroke-width="1.0"/>
<line x1="142.6" y1="265.0" x2="111.8" y2="282.0" stroke="rgb(0,0,0)"  stroke-width="1.0"/>
<line x1="111.8" y1="282.0" x2="75.5" y2="265.0" stroke="rgb(0,0,0)"  stroke-width="1.0"/>
<line x1="75.5" y1="265.0" x2="75.5" y2="224.2" stroke="rgb(0,0,0)"  stroke-width="1.0"/>
<line x1="75.5" y1="224.2" x2="109.2" y2="203.5" stroke="rgb(0,0,0)"  stroke-width="1.0"/>
<line x1="142.6" y1="184.4" x2="178.0" y2="203.5" stroke="rgb(0,0,0)"  stroke-width="1.0"/>
<line x1="178.0" y1="203.5" x2="202.2" y2="190.5" stroke="rgb(0,0,0)"  stroke-width="1.0"/>
<line x1="213.7" y1="171.4" x2="213.7" y2="142.5" stroke="rgb(0,0,0)"  stroke-width="1.0"/>
<line x1="213.7" y1="142.5" x2="189.8" y2="129.7" stroke="rgb(0,0,0)"  stroke-width="1.0"/>
<line x1="205.0" y1="146.0" x2="188.1" y2="137.0" stroke="rgb(0,0,0)"  stroke-width="1.0"/>
<line x1="166.5" y1="129.6" x2="142.6" y2="142.5" stroke="rgb(0,0,0)"  stroke-width="1.0"/>
<text x="171.995535" y="131.463714" fill="rgb(12,12,255)"  stroke="rgb(12,12,255)" stroke-width="1" font-size="16" >N</text>
<text x="207.659153" y="192.368881" fill="rgb(12,12,255)"  stroke="rgb(12,12,255)" stroke-width="1" font-size="16" >N</text>
<text x="171.995535" y="252.300613" fill="rgb(255,12,12)"  stroke="rgb(255,12,12)" stroke-width="1" font-size="16" >O</text>
<text x="243.235451" y="213.082256" fill="rgb(102,102,102)"  stroke="rgb(102,102,102)" stroke-width="1" font-size="16" >CH</text>
<text x="267.235451" y="216.762256" fill="rgb(102,102,102)"  stroke="rgb(102,102,102)" stroke-width="1" font-size="13" >3</text>
<text x="241.850508" y="128.398115" fill="rgb(178,178,0)"  stroke="rgb(178,178,0)" stroke-width="1" font-size="16" >S</text>
<text x="161.341881" y="48.000000" fill="rgb(102,102,102)"  stroke="rgb(102,102,102)" stroke-width="1" font-size="16" >HC</text>
<text font-size="18.000000" fill ="black" font-family="sans-serif"
x="10.000000" y="20.000000" ></text>
<title> - OBDepict</title>
</svg>
