<?xml version="1.0"?>
<svg xmlns="http://www.w3.org/2000/svg"
xmlns:xlink="http://www.w3.org/1999/xlink" xmlns:cml="http://www.xml-cml.org/schema" width="440.095" height="341.625" x="0" y="0" font-family="sans-serif" stroke="rgb(0,0,0)" stroke-width="1"  stroke-linecap="round">
<rect x="0%" y="0%" width="100%" height="100%" stroke-width="0" fill="rgb(255,255,255)"  />
<line x1="120.0" y1="143.6" x2="140.0" y2="178.3" stroke="rgb(0,0,0)"  stroke-width="1.0"/>
<line x1="142.6" y1="110.4" x2="122.6" y2="145.1" stroke="rgb(0,0,0)"  stroke-width="1.0"/>
<line x1="137.4" y1="107.4" x2="117.4" y2="142.1" stroke="rgb(0,0,0)"  stroke-width="1.0"/>
<line x1="80.0" y1="143.6" x2="120.0" y2="143.6" stroke="rgb(0,0,0)"  stroke-width="1.0"/>
<line x1="180.0" y1="108.9" x2="140.0" y2="108.9" stroke="rgb(0,0,0)"  stroke-width="1.0"/>
<line x1="53.0" y1="143.6" x2="80.0" y2="143.6" stroke="rgb(0,0,0)"  stroke-width="1.0"/>
<line x1="53.0" y1="139.4" x2="80.0" y2="139.4" stroke="rgb(0,0,0)"  stroke-width="1.0"/>
<line x1="53.0" y1="147.8" x2="80.0" y2="147.8" stroke="rgb(0,0,0)"  stroke-width="1.0"/>
<line x1="360.1" y1="143.6" x2="320.1" y2="143.6" stroke="rgb(0,0,0)"  stroke-width="1.0"/>
<line x1="387.1" y1="143.6" x2="360.1" y2="143.6" stroke="rgb(0,0,0)"  stroke-width="1.0"/>
<line x1="387.1" y1="147.8" x2="360.1" y2="147.8" stroke="rgb(0,0,0)"  stroke-width="1.0"/>
<line x1="387.1" y1="139.4" x2="360.1" y2="139.4" stroke="rgb(0,0,0)"  stroke-width="1.0"/>
<line x1="253.5" y1="51.2" x2="240.1" y2="74.4" stroke="rgb(0,0,0)"  stroke-width="1.0"/>
<line x1="287.1" y1="108.9" x2="260.1" y2="108.9" stroke="rgb(0,0,0)"  stroke-width="1.0"/>
<line x1="253.6" y1="167.0" x2="240.1" y2="143.6" stroke="rgb(0,0,0)"  stroke-width="1.0"/>
<line x1="320.1" y1="143.6" x2="306.6" y2="120.2" stroke="rgb(0,0,0)"  stroke-width="1.0"/>
<line x1="240.1" y1="212.9" x2="253.6" y2="189.5" stroke="rgb(0,0,0)"  stroke-width="1.0"/>
<line x1="253.6" y1="236.3" x2="240.1" y2="212.9" stroke="rgb(0,0,0)"  stroke-width="1.0"/>
<line x1="140.0" y1="178.3" x2="167.1" y2="181.0" stroke="rgb(0,0,0)"  stroke-width="1.0"/>
<line x1="182.6" y1="195.0" x2="188.0" y2="221.6" stroke="rgb(0,0,0)"  stroke-width="1.0"/>
<line x1="188.0" y1="221.6" x2="153.4" y2="241.6" stroke="rgb(0,0,0)"  stroke-width="1.0"/>
<line x1="153.4" y1="241.6" x2="133.6" y2="223.5" stroke="rgb(0,0,0)"  stroke-width="1.0"/>
<line x1="129.3" y1="202.7" x2="140.0" y2="178.3" stroke="rgb(0,0,0)"  stroke-width="1.0"/>
<line x1="136.7" y1="203.7" x2="144.2" y2="186.6" stroke="rgb(0,0,0)"  stroke-width="1.0"/>
<line x1="240.1" y1="74.4" x2="260.1" y2="108.9" stroke="rgb(0,0,0)"  stroke-width="1.0"/>
<line x1="236.8" y1="83.3" x2="250.8" y2="107.3" stroke="rgb(0,0,0)"  stroke-width="1.0"/>
<line x1="260.1" y1="108.9" x2="240.1" y2="143.6" stroke="rgb(0,0,0)"  stroke-width="1.0"/>
<line x1="240.1" y1="143.6" x2="200.0" y2="143.6" stroke="rgb(0,0,0)"  stroke-width="1.0"/>
<line x1="234.1" y1="136.4" x2="206.0" y2="136.4" stroke="rgb(0,0,0)"  stroke-width="1.0"/>
<line x1="200.0" y1="143.6" x2="180.0" y2="108.9" stroke="rgb(0,0,0)"  stroke-width="1.0"/>
<line x1="180.0" y1="108.9" x2="200.0" y2="74.4" stroke="rgb(0,0,0)"  stroke-width="1.0"/>
<line x1="189.3" y1="107.3" x2="203.3" y2="83.3" stroke="rgb(0,0,0)"  stroke-width="1.0"/>
<line x1="200.0" y1="74.4" x2="240.1" y2="74.4" stroke="rgb(0,0,0)"  stroke-width="1.0"/>
<line x1="153.4" y1="281.6" x2="188.0" y2="301.6" stroke="rgb(0,0,0)"  stroke-width="1.0"/>
<line x1="188.0" y1="301.6" x2="222.7" y2="281.6" stroke="rgb(0,0,0)"  stroke-width="1.0"/>
<line x1="189.6" y1="292.4" x2="213.9" y2="278.4" stroke="rgb(0,0,0)"  stroke-width="1.0"/>
<line x1="222.7" y1="281.6" x2="222.7" y2="241.6" stroke="rgb(0,0,0)"  stroke-width="1.0"/>
<line x1="222.7" y1="241.6" x2="188.0" y2="221.6" stroke="rgb(0,0,0)"  stroke-width="1.0"/>
<line x1="213.9" y1="244.8" x2="189.6" y2="230.8" stroke="rgb(0,0,0)"  stroke-width="1.0"/>
<line x1="153.4" y1="241.6" x2="153.4" y2="281.6" stroke="rgb(0,0,0)"  stroke-width="1.0"/>
<line x1="160.6" y1="247.6" x2="160.6" y2="275.6" stroke="rgb(0,0,0)"  stroke-width="1.0"/>
<text x="118.022052" y="222.712521" fill="rgb(12,12,255)"  stroke="rgb(12,12,255)" stroke-width="1" font-size="16" >N</text>
<text x="174.036754" y="190.257943" fill="rgb(12,12,255)"  stroke="rgb(12,12,255)" stroke-width="1" font-size="16" >N</text>
<text x="174.036754" y="174.257943" fill="rgb(12,12,255)"  stroke="rgb(12,12,255)" stroke-width="1" font-size="16" >H</text>
<text x="34.000000" y="151.581125" fill="rgb(12,12,255)"  stroke="rgb(12,12,255)" stroke-width="1" font-size="16" >N</text>
<text x="394.094510" y="151.581125" fill="rgb(102,102,102)"  stroke="rgb(102,102,102)" stroke-width="1" font-size="16" >CH</text>
<text x="254.057756" y="48.000000" fill="rgb(165,40,40)"  stroke="rgb(165,40,40)" stroke-width="1" font-size="16" >Br</text>
<text x="294.068257" y="116.905357" fill="rgb(255,12,12)"  stroke="rgb(255,12,12)" stroke-width="1" font-size="16" >O</text>
<text x="254.057756" y="186.256893" fill="rgb(255,12,12)"  stroke="rgb(255,12,12)" stroke-width="1" font-size="16" >O</text>
<text x="256.057756" y="255.608428" fill="rgb(102,102,102)"  stroke="rgb(102,102,102)" stroke-width="1" font-size="16" >CH</text>
<text x="280.057756" y="259.288428" fill="rgb(102,102,102)"  stroke="rgb(102,102,102)" stroke-width="1" font-size="13" >3</text>
<text font-size="18.000000" fill ="black" font-family="sans-serif"
x="10.000000" y="20.000000" ></text>
<title> - OBDepict</title>
</svg>
