<?xml version="1.0"?>
<svg xmlns="http://www.w3.org/2000/svg"
xmlns:xlink="http://www.w3.org/1999/xlink" xmlns:cml="http://www.xml-cml.org/schema" width="287.862" height="299.983" x="0" y="0" font-family="sans-serif" stroke="rgb(0,0,0)" stroke-width="1"  stroke-linecap="round">
<rect x="0%" y="0%" width="100%" height="100%" stroke-width="0" fill="rgb(255,255,255)"  />
<line x1="213.3" y1="120.0" x2="178.6" y2="100.0" stroke="rgb(0,0,0)"  stroke-width="1.0"/>
<line x1="247.9" y1="220.0" x2="247.9" y2="180.0" stroke="rgb(0,0,0)"  stroke-width="1.0"/>
<line x1="247.9" y1="247.0" x2="247.9" y2="220.0" stroke="rgb(0,0,0)"  stroke-width="1.0"/>
<line x1="243.7" y1="247.0" x2="243.7" y2="220.0" stroke="rgb(0,0,0)"  stroke-width="1.0"/>
<line x1="252.1" y1="247.0" x2="252.1" y2="220.0" stroke="rgb(0,0,0)"  stroke-width="1.0"/>
<line x1="238.1" y1="109.1" x2="214.8" y2="122.6" stroke="rgb(0,0,0)"  stroke-width="1.0"/>
<line x1="235.1" y1="103.9" x2="211.8" y2="117.4" stroke="rgb(0,0,0)"  stroke-width="1.0"/>
<line x1="213.3" y1="147.0" x2="213.3" y2="120.0" stroke="rgb(0,0,0)"  stroke-width="1.0"/>
<line x1="202.1" y1="46.5" x2="178.6" y2="60.0" stroke="rgb(0,0,0)"  stroke-width="1.0"/>
<line x1="247.9" y1="180.0" x2="224.6" y2="166.5" stroke="rgb(0,0,0)"  stroke-width="1.0"/>
<line x1="178.6" y1="100.0" x2="144.0" y2="120.0" stroke="rgb(0,0,0)"  stroke-width="1.0"/>
<line x1="144.0" y1="120.0" x2="109.3" y2="100.0" stroke="rgb(0,0,0)"  stroke-width="1.0"/>
<line x1="142.4" y1="110.8" x2="118.1" y2="96.7" stroke="rgb(0,0,0)"  stroke-width="1.0"/>
<line x1="109.3" y1="100.0" x2="109.3" y2="60.0" stroke="rgb(0,0,0)"  stroke-width="1.0"/>
<line x1="109.3" y1="60.0" x2="144.0" y2="40.0" stroke="rgb(0,0,0)"  stroke-width="1.0"/>
<line x1="118.1" y1="63.2" x2="142.4" y2="49.2" stroke="rgb(0,0,0)"  stroke-width="1.0"/>
<line x1="144.0" y1="40.0" x2="178.6" y2="60.0" stroke="rgb(0,0,0)"  stroke-width="1.0"/>
<line x1="178.6" y1="60.0" x2="178.6" y2="100.0" stroke="rgb(0,0,0)"  stroke-width="1.0"/>
<line x1="171.4" y1="66.0" x2="171.4" y2="94.0" stroke="rgb(0,0,0)"  stroke-width="1.0"/>
<line x1="74.7" y1="40.0" x2="109.3" y2="60.0" stroke="rgb(0,0,0)"  stroke-width="1.0"/>
<line x1="109.3" y1="100.0" x2="74.7" y2="120.0" stroke="rgb(0,0,0)"  stroke-width="1.0"/>
<line x1="74.7" y1="120.0" x2="40.0" y2="100.0" stroke="rgb(0,0,0)"  stroke-width="1.0"/>
<line x1="73.1" y1="110.8" x2="48.8" y2="96.7" stroke="rgb(0,0,0)"  stroke-width="1.0"/>
<line x1="40.0" y1="100.0" x2="40.0" y2="60.0" stroke="rgb(0,0,0)"  stroke-width="1.0"/>
<line x1="40.0" y1="60.0" x2="74.7" y2="40.0" stroke="rgb(0,0,0)"  stroke-width="1.0"/>
<line x1="48.8" y1="63.2" x2="73.1" y2="49.2" stroke="rgb(0,0,0)"  stroke-width="1.0"/>
<text x="241.862330" y="267.982583" fill="rgb(102,102,102)"  stroke="rgb(102,102,102)" stroke-width="1" font-size="16" >CH</text>
<text x="241.862330" y="107.995250" fill="rgb(255,12,12)"  stroke="rgb(255,12,12)" stroke-width="1" font-size="16" >O</text>
<text x="195.319611" y="167.990500" fill="rgb(12,12,255)"  stroke="rgb(12,12,255)" stroke-width="1" font-size="16" >HN</text>
<text x="207.319611" y="48.000000" fill="rgb(255,12,12)"  stroke="rgb(255,12,12)" stroke-width="1" font-size="16" >OH</text>
<text font-size="18.000000" fill ="black" font-family="sans-serif"
x="10.000000" y="20.000000" ></text>
<title> - OBDepict</title>
</svg>
