<?xml version="1.0"?>
<svg xmlns="http://www.w3.org/2000/svg"
xmlns:xlink="http://www.w3.org/1999/xlink" xmlns:cml="http://www.xml-cml.org/schema" width="400.447" height="278.537" x="0" y="0" font-family="sans-serif" stroke="rgb(0,0,0)" stroke-width="1"  stroke-linecap="round">
<rect x="0%" y="0%" width="100%" height="100%" stroke-width="0" fill="rgb(255,255,255)"  />
<line x1="267.2" y1="112.0" x2="240.1" y2="111.7" stroke="rgb(0,0,0)"  stroke-width="1.0"/>
<line x1="267.2" y1="106.0" x2="240.2" y2="105.7" stroke="rgb(0,0,0)"  stroke-width="1.0"/>
<line x1="300.2" y1="74.6" x2="286.7" y2="97.9" stroke="rgb(0,0,0)"  stroke-width="1.0"/>
<line x1="202.1" y1="208.8" x2="228.8" y2="179.1" stroke="rgb(0,0,0)"  stroke-width="1.0"/>
<line x1="184.1" y1="228.9" x2="202.1" y2="208.8" stroke="rgb(0,0,0)"  stroke-width="1.0"/>
<line x1="181.0" y1="226.1" x2="199.0" y2="206.0" stroke="rgb(0,0,0)"  stroke-width="1.0"/>
<line x1="187.3" y1="231.7" x2="205.3" y2="211.6" stroke="rgb(0,0,0)"  stroke-width="1.0"/>
<line x1="228.8" y1="179.1" x2="220.6" y2="153.3" stroke="rgb(0,0,0)"  stroke-width="1.0"/>
<line x1="289.3" y1="49.7" x2="302.8" y2="73.1" stroke="rgb(0,0,0)"  stroke-width="1.0"/>
<line x1="284.1" y1="52.8" x2="297.6" y2="76.1" stroke="rgb(0,0,0)"  stroke-width="1.0"/>
<line x1="85.4" y1="75.0" x2="109.3" y2="88.7" stroke="rgb(0,0,0)"  stroke-width="1.0"/>
<line x1="340.2" y1="74.6" x2="300.2" y2="74.6" stroke="rgb(0,0,0)"  stroke-width="1.0"/>
<line x1="51.2" y1="82.0" x2="63.0" y2="75.1" stroke="rgb(0,0,0)"  stroke-width="1.0"/>
<line x1="353.9" y1="51.2" x2="340.2" y2="74.6" stroke="rgb(0,0,0)"  stroke-width="1.0"/>
<line x1="240.2" y1="108.7" x2="224.3" y2="86.9" stroke="rgb(0,0,0)"  stroke-width="1.0"/>
<line x1="204.3" y1="80.4" x2="178.5" y2="88.7" stroke="rgb(0,0,0)"  stroke-width="1.0"/>
<line x1="178.5" y1="88.7" x2="178.5" y2="128.8" stroke="rgb(0,0,0)"  stroke-width="1.0"/>
<line x1="185.7" y1="94.7" x2="185.7" y2="122.8" stroke="rgb(0,0,0)"  stroke-width="1.0"/>
<line x1="178.5" y1="128.8" x2="204.3" y2="137.0" stroke="rgb(0,0,0)"  stroke-width="1.0"/>
<line x1="224.4" y1="130.4" x2="240.2" y2="108.7" stroke="rgb(0,0,0)"  stroke-width="1.0"/>
<line x1="143.9" y1="68.7" x2="178.5" y2="88.7" stroke="rgb(0,0,0)"  stroke-width="1.0"/>
<line x1="178.5" y1="128.8" x2="143.9" y2="148.8" stroke="rgb(0,0,0)"  stroke-width="1.0"/>
<line x1="143.9" y1="148.8" x2="109.3" y2="128.8" stroke="rgb(0,0,0)"  stroke-width="1.0"/>
<line x1="142.3" y1="139.5" x2="118.1" y2="125.5" stroke="rgb(0,0,0)"  stroke-width="1.0"/>
<line x1="109.3" y1="128.8" x2="109.3" y2="88.7" stroke="rgb(0,0,0)"  stroke-width="1.0"/>
<line x1="109.3" y1="88.7" x2="143.9" y2="68.7" stroke="rgb(0,0,0)"  stroke-width="1.0"/>
<line x1="118.1" y1="92.0" x2="142.3" y2="78.0" stroke="rgb(0,0,0)"  stroke-width="1.0"/>
<text x="210.703448" y="148.885549" fill="rgb(12,12,255)"  stroke="rgb(12,12,255)" stroke-width="1" font-size="16" >N</text>
<text x="274.183628" y="117.145459" fill="rgb(12,12,255)"  stroke="rgb(12,12,255)" stroke-width="1" font-size="16" >N</text>
<text x="210.703448" y="84.393366" fill="rgb(178,178,0)"  stroke="rgb(178,178,0)" stroke-width="1" font-size="16" >S</text>
<text x="157.458279" y="246.536563" fill="rgb(102,102,102)"  stroke="rgb(102,102,102)" stroke-width="1" font-size="16" >HC</text>
<text x="274.183628" y="48.000000" fill="rgb(255,12,12)"  stroke="rgb(255,12,12)" stroke-width="1" font-size="16" >O</text>
<text x="68.170834" y="76.505554" fill="rgb(255,12,12)"  stroke="rgb(255,12,12)" stroke-width="1" font-size="16" >O</text>
<text x="14.000000" y="96.522874" fill="rgb(102,102,102)"  stroke="rgb(102,102,102)" stroke-width="1" font-size="16" >H</text>
<text x="26.000000" y="100.202874" fill="rgb(102,102,102)"  stroke="rgb(102,102,102)" stroke-width="1" font-size="13" >3</text>
<text x="32.500000" y="96.522874" fill="rgb(102,102,102)"  stroke="rgb(102,102,102)" stroke-width="1" font-size="16" >C</text>
<text x="356.446593" y="48.000000" fill="rgb(102,102,102)"  stroke="rgb(102,102,102)" stroke-width="1" font-size="16" >CH</text>
<text x="380.446593" y="51.680000" fill="rgb(102,102,102)"  stroke="rgb(102,102,102)" stroke-width="1" font-size="13" >3</text>
<text font-size="18.000000" fill ="black" font-family="sans-serif"
x="10.000000" y="20.000000" ></text>
<title> - OBDepict</title>
</svg>
