<?xml version="1.0"?>
<svg xmlns="http://www.w3.org/2000/svg"
xmlns:xlink="http://www.w3.org/1999/xlink" xmlns:cml="http://www.xml-cml.org/schema" width="494.724" height="399.981" x="0" y="0" font-family="sans-serif" stroke="rgb(0,0,0)" stroke-width="1"  stroke-linecap="round">
<rect x="0%" y="0%" width="100%" height="100%" stroke-width="0" fill="rgb(255,255,255)"  />
<line x1="282.4" y1="160.0" x2="247.9" y2="180.0" stroke="rgb(0,0,0)"  stroke-width="1.0"/>
<line x1="351.7" y1="160.0" x2="328.4" y2="173.5" stroke="rgb(0,0,0)"  stroke-width="1.0"/>
<line x1="305.9" y1="173.5" x2="282.4" y2="160.0" stroke="rgb(0,0,0)"  stroke-width="1.0"/>
<line x1="213.1" y1="120.0" x2="213.1" y2="160.0" stroke="rgb(0,0,0)"  stroke-width="1.0"/>
<line x1="213.1" y1="280.0" x2="213.1" y2="253.0" stroke="rgb(0,0,0)"  stroke-width="1.0"/>
<line x1="153.6" y1="230.9" x2="177.1" y2="217.4" stroke="rgb(0,0,0)"  stroke-width="1.0"/>
<line x1="156.6" y1="236.1" x2="180.1" y2="222.6" stroke="rgb(0,0,0)"  stroke-width="1.0"/>
<line x1="74.5" y1="120.0" x2="109.3" y2="100.0" stroke="rgb(0,0,0)"  stroke-width="1.0"/>
<line x1="51.3" y1="133.5" x2="74.5" y2="120.0" stroke="rgb(0,0,0)"  stroke-width="1.0"/>
<line x1="49.1" y1="129.8" x2="72.4" y2="116.4" stroke="rgb(0,0,0)"  stroke-width="1.0"/>
<line x1="53.4" y1="137.1" x2="76.6" y2="123.6" stroke="rgb(0,0,0)"  stroke-width="1.0"/>
<line x1="285.4" y1="133.0" x2="285.4" y2="160.0" stroke="rgb(0,0,0)"  stroke-width="1.0"/>
<line x1="279.4" y1="133.0" x2="279.4" y2="160.0" stroke="rgb(0,0,0)"  stroke-width="1.0"/>
<line x1="271.2" y1="233.5" x2="247.9" y2="220.0" stroke="rgb(0,0,0)"  stroke-width="1.0"/>
<line x1="155.1" y1="113.5" x2="178.6" y2="100.0" stroke="rgb(0,0,0)"  stroke-width="1.0"/>
<line x1="155.1" y1="286.5" x2="178.6" y2="300.0" stroke="rgb(0,0,0)"  stroke-width="1.0"/>
<line x1="109.3" y1="100.0" x2="132.6" y2="113.5" stroke="rgb(0,0,0)"  stroke-width="1.0"/>
<line x1="441.8" y1="149.3" x2="415.1" y2="146.5" stroke="rgb(0,0,0)"  stroke-width="1.0"/>
<line x1="120.5" y1="293.5" x2="132.6" y2="286.5" stroke="rgb(0,0,0)"  stroke-width="1.0"/>
<line x1="351.7" y1="160.0" x2="354.5" y2="133.3" stroke="rgb(0,0,0)"  stroke-width="1.0"/>
<line x1="359.5" y1="154.8" x2="361.5" y2="136.1" stroke="rgb(0,0,0)"  stroke-width="1.0"/>
<line x1="368.7" y1="117.5" x2="382.4" y2="114.6" stroke="rgb(0,0,0)"  stroke-width="1.0"/>
<line x1="401.6" y1="123.2" x2="415.1" y2="146.5" stroke="rgb(0,0,0)"  stroke-width="1.0"/>
<line x1="415.1" y1="146.5" x2="388.3" y2="176.4" stroke="rgb(0,0,0)"  stroke-width="1.0"/>
<line x1="405.8" y1="146.1" x2="386.9" y2="167.1" stroke="rgb(0,0,0)"  stroke-width="1.0"/>
<line x1="388.3" y1="176.4" x2="351.7" y2="160.0" stroke="rgb(0,0,0)"  stroke-width="1.0"/>
<line x1="247.9" y1="180.0" x2="247.9" y2="220.0" stroke="rgb(0,0,0)"  stroke-width="1.0"/>
<line x1="240.7" y1="186.0" x2="240.7" y2="214.0" stroke="rgb(0,0,0)"  stroke-width="1.0"/>
<line x1="247.9" y1="220.0" x2="224.4" y2="233.5" stroke="rgb(0,0,0)"  stroke-width="1.0"/>
<line x1="201.9" y1="233.5" x2="178.6" y2="220.0" stroke="rgb(0,0,0)"  stroke-width="1.0"/>
<line x1="178.6" y1="220.0" x2="178.6" y2="193.0" stroke="rgb(0,0,0)"  stroke-width="1.0"/>
<line x1="189.8" y1="173.5" x2="213.1" y2="160.0" stroke="rgb(0,0,0)"  stroke-width="1.0"/>
<line x1="213.1" y1="160.0" x2="247.9" y2="180.0" stroke="rgb(0,0,0)"  stroke-width="1.0"/>
<line x1="213.1" y1="120.0" x2="178.6" y2="100.0" stroke="rgb(0,0,0)"  stroke-width="1.0"/>
<line x1="211.5" y1="110.8" x2="187.4" y2="96.8" stroke="rgb(0,0,0)"  stroke-width="1.0"/>
<line x1="178.6" y1="100.0" x2="178.6" y2="60.0" stroke="rgb(0,0,0)"  stroke-width="1.0"/>
<line x1="178.6" y1="60.0" x2="213.1" y2="40.0" stroke="rgb(0,0,0)"  stroke-width="1.0"/>
<line x1="187.4" y1="63.2" x2="211.5" y2="49.2" stroke="rgb(0,0,0)"  stroke-width="1.0"/>
<line x1="213.1" y1="40.0" x2="247.9" y2="60.0" stroke="rgb(0,0,0)"  stroke-width="1.0"/>
<line x1="247.9" y1="60.0" x2="247.9" y2="100.0" stroke="rgb(0,0,0)"  stroke-width="1.0"/>
<line x1="240.7" y1="66.0" x2="240.7" y2="94.0" stroke="rgb(0,0,0)"  stroke-width="1.0"/>
<line x1="247.9" y1="100.0" x2="213.1" y2="120.0" stroke="rgb(0,0,0)"  stroke-width="1.0"/>
<line x1="213.1" y1="280.0" x2="247.9" y2="300.0" stroke="rgb(0,0,0)"  stroke-width="1.0"/>
<line x1="247.9" y1="300.0" x2="247.9" y2="340.0" stroke="rgb(0,0,0)"  stroke-width="1.0"/>
<line x1="240.7" y1="306.0" x2="240.7" y2="334.0" stroke="rgb(0,0,0)"  stroke-width="1.0"/>
<line x1="247.9" y1="340.0" x2="213.1" y2="360.0" stroke="rgb(0,0,0)"  stroke-width="1.0"/>
<line x1="213.1" y1="360.0" x2="178.6" y2="340.0" stroke="rgb(0,0,0)"  stroke-width="1.0"/>
<line x1="211.5" y1="350.7" x2="187.4" y2="336.8" stroke="rgb(0,0,0)"  stroke-width="1.0"/>
<line x1="178.6" y1="340.0" x2="178.6" y2="300.0" stroke="rgb(0,0,0)"  stroke-width="1.0"/>
<line x1="178.6" y1="300.0" x2="213.1" y2="280.0" stroke="rgb(0,0,0)"  stroke-width="1.0"/>
<line x1="187.4" y1="303.2" x2="211.5" y2="289.2" stroke="rgb(0,0,0)"  stroke-width="1.0"/>
<text x="207.124225" y="247.988078" fill="rgb(12,12,255)"  stroke="rgb(12,12,255)" stroke-width="1" font-size="16" >N</text>
<text x="160.580830" y="187.991655" fill="rgb(12,12,255)"  stroke="rgb(12,12,255)" stroke-width="1" font-size="16" >HN</text>
<text x="311.156811" y="187.991655" fill="rgb(12,12,255)"  stroke="rgb(12,12,255)" stroke-width="1" font-size="16" >N</text>
<text x="311.156811" y="203.991655" fill="rgb(12,12,255)"  stroke="rgb(12,12,255)" stroke-width="1" font-size="16" >H</text>
<text x="349.942378" y="128.198855" fill="rgb(12,12,255)"  stroke="rgb(12,12,255)" stroke-width="1" font-size="16" >N</text>
<text x="389.130345" y="119.913289" fill="rgb(255,12,12)"  stroke="rgb(255,12,12)" stroke-width="1" font-size="16" >O</text>
<text x="137.833810" y="247.988078" fill="rgb(178,178,0)"  stroke="rgb(178,178,0)" stroke-width="1" font-size="16" >S</text>
<text x="22.000000" y="147.994039" fill="rgb(102,102,102)"  stroke="rgb(102,102,102)" stroke-width="1" font-size="16" >HC</text>
<text x="276.409792" y="127.995231" fill="rgb(255,12,12)"  stroke="rgb(255,12,12)" stroke-width="1" font-size="16" >O</text>
<text x="278.409792" y="247.988078" fill="rgb(102,102,102)"  stroke="rgb(102,102,102)" stroke-width="1" font-size="16" >CH</text>
<text x="302.409792" y="251.668078" fill="rgb(102,102,102)"  stroke="rgb(102,102,102)" stroke-width="1" font-size="13" >3</text>
<text x="137.833810" y="127.995231" fill="rgb(255,12,12)"  stroke="rgb(255,12,12)" stroke-width="1" font-size="16" >O</text>
<text x="137.833810" y="287.985694" fill="rgb(255,12,12)"  stroke="rgb(255,12,12)" stroke-width="1" font-size="16" >O</text>
<text x="450.724368" y="158.698855" fill="rgb(102,102,102)"  stroke="rgb(102,102,102)" stroke-width="1" font-size="16" >CH</text>
<text x="474.724368" y="162.378855" fill="rgb(102,102,102)"  stroke="rgb(102,102,102)" stroke-width="1" font-size="13" >3</text>
<text x="83.290415" y="307.984502" fill="rgb(102,102,102)"  stroke="rgb(102,102,102)" stroke-width="1" font-size="16" >H</text>
<text x="95.290415" y="311.664502" fill="rgb(102,102,102)"  stroke="rgb(102,102,102)" stroke-width="1" font-size="13" >3</text>
<text x="101.790415" y="307.984502" fill="rgb(102,102,102)"  stroke="rgb(102,102,102)" stroke-width="1" font-size="16" >C</text>
<text font-size="18.000000" fill ="black" font-family="sans-serif"
x="10.000000" y="20.000000" ></text>
<title> - OBDepict</title>
</svg>
