<?xml version="1.0"?>
<svg xmlns="http://www.w3.org/2000/svg"
xmlns:xlink="http://www.w3.org/1999/xlink" xmlns:cml="http://www.xml-cml.org/schema" width="456.345" height="394.242" x="0" y="0" font-family="sans-serif" stroke="rgb(0,0,0)" stroke-width="1"  stroke-linecap="round">
<rect x="0%" y="0%" width="100%" height="100%" stroke-width="0" fill="rgb(255,255,255)"  />
<line x1="220.4" y1="156.3" x2="180.2" y2="193.1" stroke="rgb(0,0,0)"  stroke-width="1.0"/>
<line x1="266.3" y1="164.6" x2="220.4" y2="156.3" stroke="rgb(0,0,0)"  stroke-width="1.0"/>
<line x1="290.4" y1="133.4" x2="266.3" y2="164.6" stroke="rgb(0,0,0)"  stroke-width="1.0"/>
<line x1="167.9" y1="324.3" x2="193.3" y2="294.1" stroke="rgb(0,0,0)"  stroke-width="1.0"/>
<line x1="150.8" y1="344.4" x2="167.9" y2="324.3" stroke="rgb(0,0,0)"  stroke-width="1.0"/>
<line x1="147.6" y1="341.6" x2="164.7" y2="321.6" stroke="rgb(0,0,0)"  stroke-width="1.0"/>
<line x1="154.0" y1="347.1" x2="171.1" y2="327.0" stroke="rgb(0,0,0)"  stroke-width="1.0"/>
<line x1="226.9" y1="228.4" x2="201.8" y2="226.2" stroke="rgb(0,0,0)"  stroke-width="1.0"/>
<line x1="227.4" y1="222.4" x2="202.3" y2="220.3" stroke="rgb(0,0,0)"  stroke-width="1.0"/>
<line x1="193.3" y1="294.1" x2="184.5" y2="269.4" stroke="rgb(0,0,0)"  stroke-width="1.0"/>
<line x1="166.7" y1="163.4" x2="180.2" y2="193.1" stroke="rgb(0,0,0)"  stroke-width="1.0"/>
<line x1="271.2" y1="181.9" x2="263.6" y2="165.9" stroke="rgb(0,0,0)"  stroke-width="1.0"/>
<line x1="276.6" y1="179.4" x2="269.0" y2="163.4" stroke="rgb(0,0,0)"  stroke-width="1.0"/>
<line x1="379.4" y1="111.1" x2="353.4" y2="107.6" stroke="rgb(0,0,0)"  stroke-width="1.0"/>
<line x1="51.3" y1="192.4" x2="74.1" y2="205.5" stroke="rgb(0,0,0)"  stroke-width="1.0"/>
<line x1="354.2" y1="50.3" x2="338.5" y2="71.1" stroke="rgb(0,0,0)"  stroke-width="1.0"/>
<line x1="408.4" y1="91.9" x2="400.2" y2="102.5" stroke="rgb(0,0,0)"  stroke-width="1.0"/>
<line x1="388.6" y1="43.5" x2="375.0" y2="41.7" stroke="rgb(0,0,0)"  stroke-width="1.0"/>
<line x1="202.0" y1="223.3" x2="187.2" y2="246.2" stroke="rgb(0,0,0)"  stroke-width="1.0"/>
<line x1="167.8" y1="253.1" x2="142.3" y2="244.9" stroke="rgb(0,0,0)"  stroke-width="1.0"/>
<line x1="142.3" y1="244.9" x2="142.3" y2="205.5" stroke="rgb(0,0,0)"  stroke-width="1.0"/>
<line x1="149.5" y1="238.9" x2="149.5" y2="211.5" stroke="rgb(0,0,0)"  stroke-width="1.0"/>
<line x1="142.3" y1="205.5" x2="180.2" y2="193.1" stroke="rgb(0,0,0)"  stroke-width="1.0"/>
<line x1="180.2" y1="193.1" x2="202.0" y2="223.3" stroke="rgb(0,0,0)"  stroke-width="1.0"/>
<line x1="290.4" y1="133.4" x2="329.3" y2="138.6" stroke="rgb(0,0,0)"  stroke-width="1.0"/>
<line x1="329.3" y1="138.6" x2="353.4" y2="107.6" stroke="rgb(0,0,0)"  stroke-width="1.0"/>
<line x1="327.3" y1="129.5" x2="344.0" y2="107.9" stroke="rgb(0,0,0)"  stroke-width="1.0"/>
<line x1="353.4" y1="107.6" x2="338.5" y2="71.1" stroke="rgb(0,0,0)"  stroke-width="1.0"/>
<line x1="338.5" y1="71.1" x2="299.1" y2="65.8" stroke="rgb(0,0,0)"  stroke-width="1.0"/>
<line x1="331.6" y1="77.4" x2="304.1" y2="73.7" stroke="rgb(0,0,0)"  stroke-width="1.0"/>
<line x1="299.1" y1="65.8" x2="275.3" y2="97.1" stroke="rgb(0,0,0)"  stroke-width="1.0"/>
<line x1="275.3" y1="97.1" x2="290.4" y2="133.4" stroke="rgb(0,0,0)"  stroke-width="1.0"/>
<line x1="284.2" y1="99.9" x2="294.7" y2="125.1" stroke="rgb(0,0,0)"  stroke-width="1.0"/>
<line x1="142.3" y1="244.9" x2="108.2" y2="264.6" stroke="rgb(0,0,0)"  stroke-width="1.0"/>
<line x1="108.2" y1="264.6" x2="74.1" y2="244.9" stroke="rgb(0,0,0)"  stroke-width="1.0"/>
<line x1="106.6" y1="255.4" x2="82.9" y2="241.7" stroke="rgb(0,0,0)"  stroke-width="1.0"/>
<line x1="74.1" y1="244.9" x2="74.1" y2="205.5" stroke="rgb(0,0,0)"  stroke-width="1.0"/>
<line x1="74.1" y1="205.5" x2="108.2" y2="185.6" stroke="rgb(0,0,0)"  stroke-width="1.0"/>
<line x1="82.9" y1="208.7" x2="106.7" y2="194.9" stroke="rgb(0,0,0)"  stroke-width="1.0"/>
<line x1="108.2" y1="185.6" x2="142.3" y2="205.5" stroke="rgb(0,0,0)"  stroke-width="1.0"/>
<text x="174.168815" y="265.146340" fill="rgb(12,12,255)"  stroke="rgb(12,12,255)" stroke-width="1" font-size="16" >N</text>
<text x="124.339041" y="362.242123" fill="rgb(102,102,102)"  stroke="rgb(102,102,102)" stroke-width="1" font-size="16" >HC</text>
<text x="234.089037" y="234.532015" fill="rgb(255,12,12)"  stroke="rgb(255,12,12)" stroke-width="1" font-size="16" >O</text>
<text x="143.363759" y="159.526681" fill="rgb(255,12,12)"  stroke="rgb(255,12,12)" stroke-width="1" font-size="16" >HO</text>
<text x="273.451676" y="200.422185" fill="rgb(255,12,12)"  stroke="rgb(255,12,12)" stroke-width="1" font-size="16" >O</text>
<text x="386.291559" y="120.818256" fill="rgb(255,12,12)"  stroke="rgb(255,12,12)" stroke-width="1" font-size="16" >O</text>
<text x="22.000000" y="193.860949" fill="rgb(165,40,40)"  stroke="rgb(165,40,40)" stroke-width="1" font-size="16" >Br</text>
<text x="356.111785" y="48.000000" fill="rgb(255,12,12)"  stroke="rgb(255,12,12)" stroke-width="1" font-size="16" >O</text>
<text x="412.344648" y="89.549717" fill="rgb(102,102,102)"  stroke="rgb(102,102,102)" stroke-width="1" font-size="16" >CH</text>
<text x="436.344648" y="93.229717" fill="rgb(102,102,102)"  stroke="rgb(102,102,102)" stroke-width="1" font-size="13" >3</text>
<text x="397.474424" y="53.248034" fill="rgb(102,102,102)"  stroke="rgb(102,102,102)" stroke-width="1" font-size="16" >CH</text>
<text x="421.474424" y="56.928034" fill="rgb(102,102,102)"  stroke="rgb(102,102,102)" stroke-width="1" font-size="13" >3</text>
<text font-size="18.000000" fill ="black" font-family="sans-serif"
x="10.000000" y="20.000000" ></text>
<title> - OBDepict</title>
</svg>
