<?xml version="1.0"?>
<svg xmlns="http://www.w3.org/2000/svg"
xmlns:xlink="http://www.w3.org/1999/xlink" xmlns:cml="http://www.xml-cml.org/schema" width="293.796" height="319.162" x="0" y="0" font-family="sans-serif" stroke="rgb(0,0,0)" stroke-width="1"  stroke-linecap="round">
<rect x="0%" y="0%" width="100%" height="100%" stroke-width="0" fill="rgb(255,255,255)"  />
<line x1="200.4" y1="199.7" x2="162.3" y2="212.0" stroke="rgb(0,0,0)"  stroke-width="1.0"/>
<line x1="198.5" y1="194.0" x2="160.5" y2="206.2" stroke="rgb(0,0,0)"  stroke-width="1.0"/>
<line x1="50.7" y1="157.8" x2="59.1" y2="196.8" stroke="rgb(0,0,0)"  stroke-width="1.0"/>
<line x1="43.5" y1="131.6" x2="50.7" y2="157.8" stroke="rgb(0,0,0)"  stroke-width="1.0"/>
<line x1="47.5" y1="130.5" x2="54.7" y2="156.7" stroke="rgb(0,0,0)"  stroke-width="1.0"/>
<line x1="39.4" y1="132.8" x2="46.6" y2="158.9" stroke="rgb(0,0,0)"  stroke-width="1.0"/>
<line x1="91.0" y1="266.9" x2="106.8" y2="245.4" stroke="rgb(0,0,0)"  stroke-width="1.0"/>
<line x1="95.8" y1="270.5" x2="111.7" y2="248.9" stroke="rgb(0,0,0)"  stroke-width="1.0"/>
<line x1="131.9" y1="158.7" x2="132.2" y2="185.5" stroke="rgb(0,0,0)"  stroke-width="1.0"/>
<line x1="125.9" y1="158.7" x2="126.2" y2="185.6" stroke="rgb(0,0,0)"  stroke-width="1.0"/>
<line x1="59.1" y1="196.8" x2="84.4" y2="205.1" stroke="rgb(0,0,0)"  stroke-width="1.0"/>
<line x1="207.7" y1="157.8" x2="199.4" y2="196.8" stroke="rgb(0,0,0)"  stroke-width="1.0"/>
<line x1="229.2" y1="52.7" x2="223.6" y2="79.3" stroke="rgb(0,0,0)"  stroke-width="1.0"/>
<line x1="107.3" y1="201.5" x2="129.2" y2="185.6" stroke="rgb(0,0,0)"  stroke-width="1.0"/>
<line x1="129.2" y1="185.6" x2="161.4" y2="209.1" stroke="rgb(0,0,0)"  stroke-width="1.0"/>
<line x1="161.4" y1="209.1" x2="153.1" y2="234.8" stroke="rgb(0,0,0)"  stroke-width="1.0"/>
<line x1="136.1" y1="247.2" x2="109.3" y2="247.2" stroke="rgb(0,0,0)"  stroke-width="1.0"/>
<line x1="109.3" y1="247.2" x2="100.8" y2="221.5" stroke="rgb(0,0,0)"  stroke-width="1.0"/>
<line x1="207.7" y1="157.8" x2="177.5" y2="131.2" stroke="rgb(0,0,0)"  stroke-width="1.0"/>
<line x1="207.9" y1="148.4" x2="186.8" y2="129.8" stroke="rgb(0,0,0)"  stroke-width="1.0"/>
<line x1="177.5" y1="131.2" x2="185.6" y2="91.9" stroke="rgb(0,0,0)"  stroke-width="1.0"/>
<line x1="185.6" y1="91.9" x2="223.6" y2="79.3" stroke="rgb(0,0,0)"  stroke-width="1.0"/>
<line x1="193.5" y1="96.9" x2="220.2" y2="88.0" stroke="rgb(0,0,0)"  stroke-width="1.0"/>
<line x1="223.6" y1="79.3" x2="253.8" y2="105.6" stroke="rgb(0,0,0)"  stroke-width="1.0"/>
<line x1="253.8" y1="105.6" x2="245.7" y2="145.1" stroke="rgb(0,0,0)"  stroke-width="1.0"/>
<line x1="245.5" y1="110.1" x2="239.9" y2="137.8" stroke="rgb(0,0,0)"  stroke-width="1.0"/>
<line x1="245.7" y1="145.1" x2="207.7" y2="157.8" stroke="rgb(0,0,0)"  stroke-width="1.0"/>
<text x="90.772898" y="217.103834" fill="rgb(12,12,255)"  stroke="rgb(12,12,255)" stroke-width="1" font-size="16" >N</text>
<text x="143.113983" y="255.153290" fill="rgb(178,178,0)"  stroke="rgb(178,178,0)" stroke-width="1" font-size="16" >S</text>
<text x="22.000000" y="127.116627" fill="rgb(102,102,102)"  stroke="rgb(102,102,102)" stroke-width="1" font-size="16" >HC</text>
<text x="79.698223" y="287.162455" fill="rgb(255,12,12)"  stroke="rgb(255,12,12)" stroke-width="1" font-size="16" >O</text>
<text x="122.782064" y="153.692933" fill="rgb(255,12,12)"  stroke="rgb(255,12,12)" stroke-width="1" font-size="16" >O</text>
<text x="227.850897" y="48.000000" fill="rgb(102,102,102)"  stroke="rgb(102,102,102)" stroke-width="1" font-size="16" >CH</text>
<text x="251.850897" y="51.680000" fill="rgb(102,102,102)"  stroke="rgb(102,102,102)" stroke-width="1" font-size="13" >3</text>
<text font-size="18.000000" fill ="black" font-family="sans-serif"
x="10.000000" y="20.000000" ></text>
<title> - OBDepict</title>
</svg>
