<?xml version="1.0"?>
<svg xmlns="http://www.w3.org/2000/svg"
xmlns:xlink="http://www.w3.org/1999/xlink" xmlns:cml="http://www.xml-cml.org/schema" width="515.917" height="228.47" x="0" y="0" font-family="sans-serif" stroke="rgb(0,0,0)" stroke-width="1"  stroke-linecap="round">
<rect x="0%" y="0%" width="100%" height="100%" stroke-width="0" fill="rgb(255,255,255)"  />
<line x1="251.3" y1="150.5" x2="263.6" y2="112.3" stroke="rgb(0,0,0)"  stroke-width="1.0"/>
<line x1="80.2" y1="80.0" x2="120.2" y2="80.0" stroke="rgb(0,0,0)"  stroke-width="1.0"/>
<line x1="200.2" y1="80.0" x2="227.2" y2="80.0" stroke="rgb(0,0,0)"  stroke-width="1.0"/>
<line x1="333.9" y1="123.6" x2="301.6" y2="100.0" stroke="rgb(0,0,0)"  stroke-width="1.0"/>
<line x1="439.4" y1="114.5" x2="402.8" y2="130.7" stroke="rgb(0,0,0)"  stroke-width="1.0"/>
<line x1="464.1" y1="103.5" x2="439.4" y2="114.5" stroke="rgb(0,0,0)"  stroke-width="1.0"/>
<line x1="465.8" y1="107.3" x2="441.1" y2="118.4" stroke="rgb(0,0,0)"  stroke-width="1.0"/>
<line x1="462.3" y1="99.7" x2="437.6" y2="110.7" stroke="rgb(0,0,0)"  stroke-width="1.0"/>
<line x1="328.2" y1="150.2" x2="330.9" y2="123.3" stroke="rgb(0,0,0)"  stroke-width="1.0"/>
<line x1="334.2" y1="150.8" x2="336.9" y2="123.9" stroke="rgb(0,0,0)"  stroke-width="1.0"/>
<line x1="225.5" y1="142.2" x2="251.3" y2="150.5" stroke="rgb(0,0,0)"  stroke-width="1.0"/>
<line x1="243.0" y1="176.1" x2="251.3" y2="150.5" stroke="rgb(0,0,0)"  stroke-width="1.0"/>
<line x1="276.9" y1="158.8" x2="251.3" y2="150.5" stroke="rgb(0,0,0)"  stroke-width="1.0"/>
<line x1="80.2" y1="53.0" x2="80.2" y2="80.0" stroke="rgb(0,0,0)"  stroke-width="1.0"/>
<line x1="53.0" y1="80.0" x2="80.2" y2="80.0" stroke="rgb(0,0,0)"  stroke-width="1.0"/>
<line x1="80.2" y1="107.0" x2="80.2" y2="80.0" stroke="rgb(0,0,0)"  stroke-width="1.0"/>
<line x1="358.6" y1="112.6" x2="333.9" y2="123.6" stroke="rgb(0,0,0)"  stroke-width="1.0"/>
<line x1="402.8" y1="130.7" x2="381.0" y2="114.9" stroke="rgb(0,0,0)"  stroke-width="1.0"/>
<line x1="263.6" y1="112.3" x2="247.8" y2="90.5" stroke="rgb(0,0,0)"  stroke-width="1.0"/>
<line x1="247.8" y1="69.5" x2="256.0" y2="58.2" stroke="rgb(0,0,0)"  stroke-width="1.0"/>
<line x1="276.1" y1="51.7" x2="301.6" y2="60.0" stroke="rgb(0,0,0)"  stroke-width="1.0"/>
<line x1="275.8" y1="59.2" x2="293.7" y2="65.0" stroke="rgb(0,0,0)"  stroke-width="1.0"/>
<line x1="301.6" y1="60.0" x2="301.6" y2="100.0" stroke="rgb(0,0,0)"  stroke-width="1.0"/>
<line x1="301.6" y1="100.0" x2="263.6" y2="112.3" stroke="rgb(0,0,0)"  stroke-width="1.0"/>
<line x1="293.7" y1="95.0" x2="267.1" y2="103.6" stroke="rgb(0,0,0)"  stroke-width="1.0"/>
<line x1="200.2" y1="80.0" x2="186.8" y2="103.3" stroke="rgb(0,0,0)"  stroke-width="1.0"/>
<line x1="191.0" y1="81.6" x2="181.5" y2="98.0" stroke="rgb(0,0,0)"  stroke-width="1.0"/>
<line x1="167.2" y1="114.7" x2="140.2" y2="114.7" stroke="rgb(0,0,0)"  stroke-width="1.0"/>
<line x1="140.2" y1="114.7" x2="120.2" y2="80.0" stroke="rgb(0,0,0)"  stroke-width="1.0"/>
<line x1="143.4" y1="105.9" x2="129.4" y2="81.6" stroke="rgb(0,0,0)"  stroke-width="1.0"/>
<line x1="120.2" y1="80.0" x2="140.2" y2="45.5" stroke="rgb(0,0,0)"  stroke-width="1.0"/>
<line x1="140.2" y1="45.5" x2="180.2" y2="45.5" stroke="rgb(0,0,0)"  stroke-width="1.0"/>
<line x1="146.2" y1="52.7" x2="174.2" y2="52.7" stroke="rgb(0,0,0)"  stroke-width="1.0"/>
<line x1="180.2" y1="45.5" x2="200.2" y2="80.0" stroke="rgb(0,0,0)"  stroke-width="1.0"/>
<text x="234.183163" y="87.995910" fill="rgb(12,12,255)"  stroke="rgb(12,12,255)" stroke-width="1" font-size="16" >N</text>
<text x="257.613495" y="55.679215" fill="rgb(12,12,255)"  stroke="rgb(12,12,255)" stroke-width="1" font-size="16" >N</text>
<text x="174.189299" y="122.741447" fill="rgb(12,12,255)"  stroke="rgb(12,12,255)" stroke-width="1" font-size="16" >N</text>
<text x="469.916631" y="106.175868" fill="rgb(102,102,102)"  stroke="rgb(102,102,102)" stroke-width="1" font-size="16" >CH</text>
<text x="323.870961" y="171.424953" fill="rgb(255,12,12)"  stroke="rgb(255,12,12)" stroke-width="1" font-size="16" >O</text>
<text x="207.116841" y="146.171778" fill="rgb(127,178,255)"  stroke="rgb(127,178,255)" stroke-width="1" font-size="16" >F</text>
<text x="232.971166" y="196.469664" fill="rgb(127,178,255)"  stroke="rgb(127,178,255)" stroke-width="1" font-size="16" >F</text>
<text x="283.269053" y="170.818954" fill="rgb(127,178,255)"  stroke="rgb(127,178,255)" stroke-width="1" font-size="16" >F</text>
<text x="74.199525" y="48.000000" fill="rgb(127,178,255)"  stroke="rgb(127,178,255)" stroke-width="1" font-size="16" >F</text>
<text x="34.000000" y="87.995910" fill="rgb(127,178,255)"  stroke="rgb(127,178,255)" stroke-width="1" font-size="16" >F</text>
<text x="74.199525" y="127.991819" fill="rgb(127,178,255)"  stroke="rgb(127,178,255)" stroke-width="1" font-size="16" >F</text>
<text x="364.472869" y="115.265848" fill="rgb(12,12,255)"  stroke="rgb(12,12,255)" stroke-width="1" font-size="16" >N</text>
<text x="364.472869" y="99.265848" fill="rgb(12,12,255)"  stroke="rgb(12,12,255)" stroke-width="1" font-size="16" >H</text>
<text font-size="18.000000" fill ="black" font-family="sans-serif"
x="10.000000" y="20.000000" ></text>
<title> - OBDepict</title>
</svg>
