<?xml version="1.0"?>
<svg xmlns="http://www.w3.org/2000/svg"
xmlns:xlink="http://www.w3.org/1999/xlink" xmlns:cml="http://www.xml-cml.org/schema" width="460.442" height="347.385" x="0" y="0" font-family="sans-serif" stroke="rgb(0,0,0)" stroke-width="1"  stroke-linecap="round">
<rect x="0%" y="0%" width="100%" height="100%" stroke-width="0" fill="rgb(255,255,255)"  />
<line x1="267.0" y1="180.8" x2="240.0" y2="180.5" stroke="rgb(0,0,0)"  stroke-width="1.0"/>
<line x1="267.1" y1="174.8" x2="240.1" y2="174.5" stroke="rgb(0,0,0)"  stroke-width="1.0"/>
<line x1="300.1" y1="143.4" x2="286.6" y2="166.7" stroke="rgb(0,0,0)"  stroke-width="1.0"/>
<line x1="346.7" y1="85.8" x2="360.2" y2="109.0" stroke="rgb(0,0,0)"  stroke-width="1.0"/>
<line x1="85.2" y1="143.8" x2="109.2" y2="157.5" stroke="rgb(0,0,0)"  stroke-width="1.0"/>
<line x1="340.1" y1="143.4" x2="300.1" y2="143.4" stroke="rgb(0,0,0)"  stroke-width="1.0"/>
<line x1="202.0" y1="277.7" x2="228.7" y2="247.9" stroke="rgb(0,0,0)"  stroke-width="1.0"/>
<line x1="184.0" y1="297.7" x2="202.0" y2="277.7" stroke="rgb(0,0,0)"  stroke-width="1.0"/>
<line x1="180.9" y1="294.9" x2="198.9" y2="274.8" stroke="rgb(0,0,0)"  stroke-width="1.0"/>
<line x1="187.1" y1="300.5" x2="205.1" y2="280.5" stroke="rgb(0,0,0)"  stroke-width="1.0"/>
<line x1="353.4" y1="51.3" x2="346.6" y2="63.3" stroke="rgb(0,0,0)"  stroke-width="1.0"/>
<line x1="90.8" y1="116.1" x2="83.4" y2="127.9" stroke="rgb(0,0,0)"  stroke-width="1.0"/>
<line x1="85.8" y1="112.9" x2="78.4" y2="124.7" stroke="rgb(0,0,0)"  stroke-width="1.0"/>
<line x1="57.1" y1="158.8" x2="64.6" y2="146.7" stroke="rgb(0,0,0)"  stroke-width="1.0"/>
<line x1="62.1" y1="162.0" x2="69.7" y2="149.9" stroke="rgb(0,0,0)"  stroke-width="1.0"/>
<line x1="313.1" y1="71.6" x2="327.1" y2="71.6" stroke="rgb(0,0,0)"  stroke-width="1.0"/>
<line x1="313.1" y1="77.6" x2="327.1" y2="77.6" stroke="rgb(0,0,0)"  stroke-width="1.0"/>
<line x1="289.2" y1="118.5" x2="302.7" y2="141.9" stroke="rgb(0,0,0)"  stroke-width="1.0"/>
<line x1="284.0" y1="121.5" x2="297.5" y2="144.9" stroke="rgb(0,0,0)"  stroke-width="1.0"/>
<line x1="228.7" y1="247.9" x2="220.5" y2="222.1" stroke="rgb(0,0,0)"  stroke-width="1.0"/>
<line x1="51.1" y1="123.1" x2="62.9" y2="130.4" stroke="rgb(0,0,0)"  stroke-width="1.0"/>
<line x1="240.0" y1="177.5" x2="224.2" y2="155.7" stroke="rgb(0,0,0)"  stroke-width="1.0"/>
<line x1="204.2" y1="149.2" x2="178.3" y2="157.5" stroke="rgb(0,0,0)"  stroke-width="1.0"/>
<line x1="178.3" y1="157.5" x2="178.3" y2="197.6" stroke="rgb(0,0,0)"  stroke-width="1.0"/>
<line x1="185.5" y1="163.5" x2="185.5" y2="191.6" stroke="rgb(0,0,0)"  stroke-width="1.0"/>
<line x1="178.3" y1="197.6" x2="204.2" y2="205.8" stroke="rgb(0,0,0)"  stroke-width="1.0"/>
<line x1="224.2" y1="199.2" x2="240.0" y2="177.5" stroke="rgb(0,0,0)"  stroke-width="1.0"/>
<line x1="340.1" y1="143.4" x2="360.2" y2="109.0" stroke="rgb(0,0,0)"  stroke-width="1.0"/>
<line x1="360.2" y1="109.0" x2="399.8" y2="109.0" stroke="rgb(0,0,0)"  stroke-width="1.0"/>
<line x1="366.2" y1="116.2" x2="393.8" y2="116.2" stroke="rgb(0,0,0)"  stroke-width="1.0"/>
<line x1="399.8" y1="109.0" x2="420.4" y2="143.6" stroke="rgb(0,0,0)"  stroke-width="1.0"/>
<line x1="420.4" y1="143.6" x2="399.8" y2="178.1" stroke="rgb(0,0,0)"  stroke-width="1.0"/>
<line x1="411.2" y1="145.0" x2="396.7" y2="169.3" stroke="rgb(0,0,0)"  stroke-width="1.0"/>
<line x1="399.8" y1="178.1" x2="360.4" y2="178.1" stroke="rgb(0,0,0)"  stroke-width="1.0"/>
<line x1="360.4" y1="178.1" x2="340.1" y2="143.4" stroke="rgb(0,0,0)"  stroke-width="1.0"/>
<line x1="363.6" y1="169.3" x2="349.4" y2="144.9" stroke="rgb(0,0,0)"  stroke-width="1.0"/>
<line x1="109.2" y1="157.5" x2="143.8" y2="137.5" stroke="rgb(0,0,0)"  stroke-width="1.0"/>
<line x1="118.0" y1="160.7" x2="142.2" y2="146.7" stroke="rgb(0,0,0)"  stroke-width="1.0"/>
<line x1="143.8" y1="137.5" x2="178.3" y2="157.5" stroke="rgb(0,0,0)"  stroke-width="1.0"/>
<line x1="178.3" y1="197.6" x2="143.8" y2="217.6" stroke="rgb(0,0,0)"  stroke-width="1.0"/>
<line x1="143.8" y1="217.6" x2="109.2" y2="197.6" stroke="rgb(0,0,0)"  stroke-width="1.0"/>
<line x1="142.2" y1="208.3" x2="118.0" y2="194.3" stroke="rgb(0,0,0)"  stroke-width="1.0"/>
<line x1="109.2" y1="197.6" x2="109.2" y2="157.5" stroke="rgb(0,0,0)"  stroke-width="1.0"/>
<text x="274.073871" y="185.940750" fill="rgb(12,12,255)"  stroke="rgb(12,12,255)" stroke-width="1" font-size="16" >N</text>
<text x="210.567647" y="217.693862" fill="rgb(12,12,255)"  stroke="rgb(12,12,255)" stroke-width="1" font-size="16" >N</text>
<text x="210.567647" y="153.175220" fill="rgb(178,178,0)"  stroke="rgb(178,178,0)" stroke-width="1" font-size="16" >S</text>
<text x="344.945624" y="70.554914" fill="rgb(12,12,255)"  stroke="rgb(12,12,255)" stroke-width="1" font-size="16" >+</text>
<text x="334.145624" y="82.586914" fill="rgb(12,12,255)"  stroke="rgb(12,12,255)" stroke-width="1" font-size="16" >N</text>
<text x="67.976556" y="145.284172" fill="rgb(178,178,0)"  stroke="rgb(178,178,0)" stroke-width="1" font-size="16" >S</text>
<text x="157.305556" y="315.384938" fill="rgb(102,102,102)"  stroke="rgb(102,102,102)" stroke-width="1" font-size="16" >HC</text>
<text x="364.564252" y="25.888000" fill="rgb(255,12,12)"  stroke="rgb(255,12,12)" stroke-width="1" font-size="16" >_</text>
<text x="353.764252" y="48.000000" fill="rgb(255,12,12)"  stroke="rgb(255,12,12)" stroke-width="1" font-size="16" >O</text>
<text x="89.213115" y="111.511068" fill="rgb(255,12,12)"  stroke="rgb(255,12,12)" stroke-width="1" font-size="16" >O</text>
<text x="46.739998" y="179.469025" fill="rgb(255,12,12)"  stroke="rgb(255,12,12)" stroke-width="1" font-size="16" >O</text>
<text x="294.099404" y="82.586914" fill="rgb(255,12,12)"  stroke="rgb(255,12,12)" stroke-width="1" font-size="16" >O</text>
<text x="274.073871" y="116.766922" fill="rgb(255,12,12)"  stroke="rgb(255,12,12)" stroke-width="1" font-size="16" >O</text>
<text x="14.000000" y="124.251066" fill="rgb(102,102,102)"  stroke="rgb(102,102,102)" stroke-width="1" font-size="16" >H</text>
<text x="26.000000" y="127.931066" fill="rgb(102,102,102)"  stroke="rgb(102,102,102)" stroke-width="1" font-size="13" >3</text>
<text x="32.500000" y="124.251066" fill="rgb(102,102,102)"  stroke="rgb(102,102,102)" stroke-width="1" font-size="16" >C</text>
<text font-size="18.000000" fill ="black" font-family="sans-serif"
x="10.000000" y="20.000000" ></text>
<title> - OBDepict</title>
</svg>
