<?xml version="1.0"?>
<svg xmlns="http://www.w3.org/2000/svg"
xmlns:xlink="http://www.w3.org/1999/xlink" xmlns:cml="http://www.xml-cml.org/schema" width="480.593" height="287.864" x="0" y="0" font-family="sans-serif" stroke="rgb(0,0,0)" stroke-width="1"  stroke-linecap="round">
<rect x="0%" y="0%" width="100%" height="100%" stroke-width="0" fill="rgb(255,255,255)"  />
<line x1="313.9" y1="97.8" x2="300.4" y2="74.5" stroke="rgb(0,0,0)"  stroke-width="1.0"/>
<line x1="367.0" y1="167.2" x2="380.5" y2="143.7" stroke="rgb(0,0,0)"  stroke-width="1.0"/>
<line x1="360.5" y1="109.0" x2="333.4" y2="109.0" stroke="rgb(0,0,0)"  stroke-width="1.0"/>
<line x1="80.1" y1="109.0" x2="120.1" y2="109.0" stroke="rgb(0,0,0)"  stroke-width="1.0"/>
<line x1="53.0" y1="109.0" x2="80.1" y2="109.0" stroke="rgb(0,0,0)"  stroke-width="1.0"/>
<line x1="53.0" y1="104.8" x2="80.1" y2="104.8" stroke="rgb(0,0,0)"  stroke-width="1.0"/>
<line x1="53.0" y1="113.2" x2="80.1" y2="113.2" stroke="rgb(0,0,0)"  stroke-width="1.0"/>
<line x1="380.5" y1="213.1" x2="367.0" y2="189.7" stroke="rgb(0,0,0)"  stroke-width="1.0"/>
<line x1="260.3" y1="74.5" x2="300.4" y2="74.5" stroke="rgb(0,0,0)"  stroke-width="1.0"/>
<line x1="316.5" y1="52.7" x2="303.0" y2="76.0" stroke="rgb(0,0,0)"  stroke-width="1.0"/>
<line x1="311.3" y1="49.7" x2="297.8" y2="73.0" stroke="rgb(0,0,0)"  stroke-width="1.0"/>
<line x1="364.4" y1="235.1" x2="377.9" y2="211.6" stroke="rgb(0,0,0)"  stroke-width="1.0"/>
<line x1="369.6" y1="238.1" x2="383.1" y2="214.6" stroke="rgb(0,0,0)"  stroke-width="1.0"/>
<line x1="120.1" y1="109.0" x2="133.6" y2="85.7" stroke="rgb(0,0,0)"  stroke-width="1.0"/>
<line x1="153.1" y1="74.5" x2="180.2" y2="74.5" stroke="rgb(0,0,0)"  stroke-width="1.0"/>
<line x1="407.6" y1="213.1" x2="380.5" y2="213.1" stroke="rgb(0,0,0)"  stroke-width="1.0"/>
<line x1="260.3" y1="74.5" x2="240.3" y2="40.0" stroke="rgb(0,0,0)"  stroke-width="1.0"/>
<line x1="240.3" y1="40.0" x2="200.2" y2="40.0" stroke="rgb(0,0,0)"  stroke-width="1.0"/>
<line x1="234.3" y1="47.2" x2="206.2" y2="47.2" stroke="rgb(0,0,0)"  stroke-width="1.0"/>
<line x1="200.2" y1="40.0" x2="180.2" y2="74.5" stroke="rgb(0,0,0)"  stroke-width="1.0"/>
<line x1="180.2" y1="74.5" x2="200.2" y2="109.0" stroke="rgb(0,0,0)"  stroke-width="1.0"/>
<line x1="189.4" y1="76.1" x2="203.4" y2="100.2" stroke="rgb(0,0,0)"  stroke-width="1.0"/>
<line x1="200.2" y1="109.0" x2="240.3" y2="109.0" stroke="rgb(0,0,0)"  stroke-width="1.0"/>
<line x1="240.3" y1="109.0" x2="260.3" y2="74.5" stroke="rgb(0,0,0)"  stroke-width="1.0"/>
<line x1="237.1" y1="100.2" x2="251.1" y2="76.1" stroke="rgb(0,0,0)"  stroke-width="1.0"/>
<line x1="360.5" y1="109.0" x2="380.5" y2="143.7" stroke="rgb(0,0,0)"  stroke-width="1.0"/>
<line x1="380.5" y1="143.7" x2="420.6" y2="143.7" stroke="rgb(0,0,0)"  stroke-width="1.0"/>
<line x1="386.5" y1="136.5" x2="414.6" y2="136.5" stroke="rgb(0,0,0)"  stroke-width="1.0"/>
<line x1="420.6" y1="143.7" x2="440.6" y2="109.0" stroke="rgb(0,0,0)"  stroke-width="1.0"/>
<line x1="440.6" y1="109.0" x2="420.6" y2="74.5" stroke="rgb(0,0,0)"  stroke-width="1.0"/>
<line x1="431.4" y1="107.4" x2="417.3" y2="83.3" stroke="rgb(0,0,0)"  stroke-width="1.0"/>
<line x1="420.6" y1="74.5" x2="380.5" y2="74.5" stroke="rgb(0,0,0)"  stroke-width="1.0"/>
<line x1="380.5" y1="74.5" x2="360.5" y2="109.0" stroke="rgb(0,0,0)"  stroke-width="1.0"/>
<line x1="383.7" y1="83.3" x2="369.7" y2="107.4" stroke="rgb(0,0,0)"  stroke-width="1.0"/>
<text x="314.411505" y="116.993369" fill="rgb(12,12,255)"  stroke="rgb(12,12,255)" stroke-width="1" font-size="16" >N</text>
<text x="314.411505" y="132.993369" fill="rgb(12,12,255)"  stroke="rgb(12,12,255)" stroke-width="1" font-size="16" >H</text>
<text x="342.470292" y="186.423744" fill="rgb(12,12,255)"  stroke="rgb(12,12,255)" stroke-width="1" font-size="16" >HN</text>
<text x="22.000000" y="116.993369" fill="rgb(102,102,102)"  stroke="rgb(102,102,102)" stroke-width="1" font-size="16" >HC</text>
<text x="314.411505" y="48.000000" fill="rgb(255,12,12)"  stroke="rgb(255,12,12)" stroke-width="1" font-size="16" >O</text>
<text x="354.470292" y="255.863829" fill="rgb(255,12,12)"  stroke="rgb(255,12,12)" stroke-width="1" font-size="16" >O</text>
<text x="134.146966" y="82.499112" fill="rgb(255,12,12)"  stroke="rgb(255,12,12)" stroke-width="1" font-size="16" >O</text>
<text x="416.558472" y="221.141359" fill="rgb(102,102,102)"  stroke="rgb(102,102,102)" stroke-width="1" font-size="16" >CH</text>
<text x="440.558472" y="224.821359" fill="rgb(102,102,102)"  stroke="rgb(102,102,102)" stroke-width="1" font-size="13" >3</text>
<text font-size="18.000000" fill ="black" font-family="sans-serif"
x="10.000000" y="20.000000" ></text>
<title> - OBDepict</title>
</svg>
