<?xml version="1.0"?>
<svg xmlns="http://www.w3.org/2000/svg"
xmlns:xlink="http://www.w3.org/1999/xlink" xmlns:cml="http://www.xml-cml.org/schema" width="296.198" height="331.205" x="0" y="0" font-family="sans-serif" stroke="rgb(0,0,0)" stroke-width="1"  stroke-linecap="round">
<rect x="0%" y="0%" width="100%" height="100%" stroke-width="0" fill="rgb(255,255,255)"  />
<line x1="222.7" y1="272.4" x2="222.2" y2="233.9" stroke="rgb(0,0,0)"  stroke-width="1.0"/>
<line x1="244.9" y1="284.8" x2="222.7" y2="272.4" stroke="rgb(0,0,0)"  stroke-width="1.0"/>
<line x1="242.8" y1="288.5" x2="220.6" y2="276.0" stroke="rgb(0,0,0)"  stroke-width="1.0"/>
<line x1="246.9" y1="281.2" x2="224.8" y2="268.7" stroke="rgb(0,0,0)"  stroke-width="1.0"/>
<line x1="161.0" y1="46.4" x2="186.9" y2="60.8" stroke="rgb(0,0,0)"  stroke-width="1.0"/>
<line x1="243.5" y1="169.3" x2="221.4" y2="156.9" stroke="rgb(0,0,0)"  stroke-width="1.0"/>
<line x1="132.7" y1="170.3" x2="154.7" y2="157.5" stroke="rgb(0,0,0)"  stroke-width="1.0"/>
<line x1="186.9" y1="60.8" x2="187.4" y2="99.3" stroke="rgb(0,0,0)"  stroke-width="1.0"/>
<line x1="188.5" y1="201.9" x2="188.2" y2="176.4" stroke="rgb(0,0,0)"  stroke-width="1.0"/>
<line x1="113.8" y1="61.2" x2="138.5" y2="46.6" stroke="rgb(0,0,0)"  stroke-width="1.0"/>
<line x1="222.2" y1="233.9" x2="200.0" y2="221.3" stroke="rgb(0,0,0)"  stroke-width="1.0"/>
<line x1="188.2" y1="176.4" x2="221.4" y2="156.9" stroke="rgb(0,0,0)"  stroke-width="1.0"/>
<line x1="189.7" y1="167.1" x2="212.5" y2="153.7" stroke="rgb(0,0,0)"  stroke-width="1.0"/>
<line x1="221.4" y1="156.9" x2="220.9" y2="118.3" stroke="rgb(0,0,0)"  stroke-width="1.0"/>
<line x1="220.9" y1="118.3" x2="187.4" y2="99.3" stroke="rgb(0,0,0)"  stroke-width="1.0"/>
<line x1="212.1" y1="121.7" x2="189.0" y2="108.6" stroke="rgb(0,0,0)"  stroke-width="1.0"/>
<line x1="187.4" y1="99.3" x2="154.2" y2="119.0" stroke="rgb(0,0,0)"  stroke-width="1.0"/>
<line x1="154.2" y1="119.0" x2="154.7" y2="157.5" stroke="rgb(0,0,0)"  stroke-width="1.0"/>
<line x1="161.5" y1="124.9" x2="161.8" y2="151.4" stroke="rgb(0,0,0)"  stroke-width="1.0"/>
<line x1="154.7" y1="157.5" x2="188.2" y2="176.4" stroke="rgb(0,0,0)"  stroke-width="1.0"/>
<line x1="113.8" y1="61.2" x2="113.8" y2="103.8" stroke="rgb(0,0,0)"  stroke-width="1.0"/>
<line x1="113.8" y1="103.8" x2="76.5" y2="125.0" stroke="rgb(0,0,0)"  stroke-width="1.0"/>
<line x1="105.1" y1="100.5" x2="78.2" y2="115.8" stroke="rgb(0,0,0)"  stroke-width="1.0"/>
<line x1="76.5" y1="125.0" x2="40.0" y2="103.8" stroke="rgb(0,0,0)"  stroke-width="1.0"/>
<line x1="40.0" y1="103.8" x2="40.0" y2="61.5" stroke="rgb(0,0,0)"  stroke-width="1.0"/>
<line x1="47.2" y1="97.8" x2="47.2" y2="67.5" stroke="rgb(0,0,0)"  stroke-width="1.0"/>
<line x1="40.0" y1="61.5" x2="76.5" y2="40.0" stroke="rgb(0,0,0)"  stroke-width="1.0"/>
<line x1="76.5" y1="40.0" x2="113.8" y2="61.2" stroke="rgb(0,0,0)"  stroke-width="1.0"/>
<line x1="78.2" y1="49.2" x2="105.1" y2="64.5" stroke="rgb(0,0,0)"  stroke-width="1.0"/>
<text x="250.197783" y="299.205147" fill="rgb(102,102,102)"  stroke="rgb(102,102,102)" stroke-width="1" font-size="16" >CH</text>
<text x="143.681647" y="48.000000" fill="rgb(12,12,255)"  stroke="rgb(12,12,255)" stroke-width="1" font-size="16" >N</text>
<text x="143.681647" y="32.000000" fill="rgb(12,12,255)"  stroke="rgb(12,12,255)" stroke-width="1" font-size="16" >H</text>
<text x="248.867149" y="183.687384" fill="rgb(165,40,40)"  stroke="rgb(165,40,40)" stroke-width="1" font-size="16" >Br</text>
<text x="103.509543" y="184.854607" fill="rgb(165,40,40)"  stroke="rgb(165,40,40)" stroke-width="1" font-size="16" >Br</text>
<text x="182.690252" y="222.859400" fill="rgb(255,12,12)"  stroke="rgb(255,12,12)" stroke-width="1" font-size="16" >O</text>
<text font-size="18.000000" fill ="black" font-family="sans-serif"
x="10.000000" y="20.000000" ></text>
<title> - OBDepict</title>
</svg>
