<?xml version="1.0"?>
<svg xmlns="http://www.w3.org/2000/svg"
xmlns:xlink="http://www.w3.org/1999/xlink" xmlns:cml="http://www.xml-cml.org/schema" width="336.837" height="359.061" x="0" y="0" font-family="sans-serif" stroke="rgb(0,0,0)" stroke-width="1"  stroke-linecap="round">
<rect x="0%" y="0%" width="100%" height="100%" stroke-width="0" fill="rgb(255,255,255)"  />
<line x1="189.3" y1="156.6" x2="165.0" y2="170.7" stroke="rgb(0,0,0)"  stroke-width="1.0"/>
<line x1="186.3" y1="151.4" x2="162.0" y2="165.5" stroke="rgb(0,0,0)"  stroke-width="1.0"/>
<line x1="198.6" y1="107.9" x2="198.9" y2="134.5" stroke="rgb(0,0,0)"  stroke-width="1.0"/>
<line x1="233.2" y1="87.9" x2="198.6" y2="107.9" stroke="rgb(0,0,0)"  stroke-width="1.0"/>
<line x1="179.8" y1="274.8" x2="188.9" y2="235.8" stroke="rgb(0,0,0)"  stroke-width="1.0"/>
<line x1="173.7" y1="301.5" x2="179.8" y2="274.8" stroke="rgb(0,0,0)"  stroke-width="1.0"/>
<line x1="169.6" y1="300.6" x2="175.7" y2="273.9" stroke="rgb(0,0,0)"  stroke-width="1.0"/>
<line x1="177.8" y1="302.5" x2="183.9" y2="275.8" stroke="rgb(0,0,0)"  stroke-width="1.0"/>
<line x1="176.8" y1="91.7" x2="200.1" y2="105.3" stroke="rgb(0,0,0)"  stroke-width="1.0"/>
<line x1="173.8" y1="96.8" x2="197.1" y2="110.5" stroke="rgb(0,0,0)"  stroke-width="1.0"/>
<line x1="188.9" y1="235.8" x2="168.7" y2="217.0" stroke="rgb(0,0,0)"  stroke-width="1.0"/>
<line x1="112.4" y1="273.7" x2="99.2" y2="249.4" stroke="rgb(0,0,0)"  stroke-width="1.0"/>
<line x1="104.3" y1="308.0" x2="111.7" y2="296.1" stroke="rgb(0,0,0)"  stroke-width="1.0"/>
<line x1="163.5" y1="168.1" x2="140.1" y2="157.2" stroke="rgb(0,0,0)"  stroke-width="1.0"/>
<line x1="119.3" y1="161.1" x2="100.4" y2="180.6" stroke="rgb(0,0,0)"  stroke-width="1.0"/>
<line x1="100.4" y1="180.6" x2="120.2" y2="215.4" stroke="rgb(0,0,0)"  stroke-width="1.0"/>
<line x1="109.6" y1="182.3" x2="123.5" y2="206.6" stroke="rgb(0,0,0)"  stroke-width="1.0"/>
<line x1="120.2" y1="215.4" x2="146.4" y2="210.5" stroke="rgb(0,0,0)"  stroke-width="1.0"/>
<line x1="160.6" y1="195.2" x2="163.5" y2="168.1" stroke="rgb(0,0,0)"  stroke-width="1.0"/>
<line x1="233.2" y1="87.9" x2="258.6" y2="98.8" stroke="rgb(0,0,0)"  stroke-width="1.0"/>
<line x1="279.2" y1="94.1" x2="296.8" y2="74.4" stroke="rgb(0,0,0)"  stroke-width="1.0"/>
<line x1="296.8" y1="74.4" x2="276.8" y2="40.0" stroke="rgb(0,0,0)"  stroke-width="1.0"/>
<line x1="287.6" y1="72.8" x2="273.6" y2="48.8" stroke="rgb(0,0,0)"  stroke-width="1.0"/>
<line x1="276.8" y1="40.0" x2="238.0" y2="48.3" stroke="rgb(0,0,0)"  stroke-width="1.0"/>
<line x1="238.0" y1="48.3" x2="233.2" y2="87.9" stroke="rgb(0,0,0)"  stroke-width="1.0"/>
<line x1="244.5" y1="55.1" x2="241.1" y2="82.8" stroke="rgb(0,0,0)"  stroke-width="1.0"/>
<line x1="99.2" y1="249.4" x2="60.0" y2="249.1" stroke="rgb(0,0,0)"  stroke-width="1.0"/>
<line x1="93.2" y1="242.1" x2="66.0" y2="242.0" stroke="rgb(0,0,0)"  stroke-width="1.0"/>
<line x1="60.0" y1="249.1" x2="40.0" y2="213.6" stroke="rgb(0,0,0)"  stroke-width="1.0"/>
<line x1="40.0" y1="213.6" x2="61.2" y2="179.6" stroke="rgb(0,0,0)"  stroke-width="1.0"/>
<line x1="49.3" y1="212.3" x2="64.1" y2="188.5" stroke="rgb(0,0,0)"  stroke-width="1.0"/>
<line x1="61.2" y1="179.6" x2="100.4" y2="180.6" stroke="rgb(0,0,0)"  stroke-width="1.0"/>
<line x1="120.2" y1="215.4" x2="99.2" y2="249.4" stroke="rgb(0,0,0)"  stroke-width="1.0"/>
<text x="193.031856" y="155.503793" fill="rgb(12,12,255)"  stroke="rgb(12,12,255)" stroke-width="1" font-size="16" >N</text>
<text x="153.225495" y="216.125613" fill="rgb(12,12,255)"  stroke="rgb(12,12,255)" stroke-width="1" font-size="16" >N</text>
<text x="122.309625" y="159.748191" fill="rgb(178,178,0)"  stroke="rgb(178,178,0)" stroke-width="1" font-size="16" >S</text>
<text x="264.567154" y="111.859566" fill="rgb(178,178,0)"  stroke="rgb(178,178,0)" stroke-width="1" font-size="16" >S</text>
<text x="152.743932" y="322.211380" fill="rgb(102,102,102)"  stroke="rgb(102,102,102)" stroke-width="1" font-size="16" >HC</text>
<text x="158.074854" y="95.690198" fill="rgb(255,12,12)"  stroke="rgb(255,12,12)" stroke-width="1" font-size="16" >O</text>
<text x="112.610908" y="293.115229" fill="rgb(255,12,12)"  stroke="rgb(255,12,12)" stroke-width="1" font-size="16" >O</text>
<text x="71.393755" y="327.060739" fill="rgb(102,102,102)"  stroke="rgb(102,102,102)" stroke-width="1" font-size="16" >H</text>
<text x="83.393755" y="330.740739" fill="rgb(102,102,102)"  stroke="rgb(102,102,102)" stroke-width="1" font-size="13" >3</text>
<text x="89.893755" y="327.060739" fill="rgb(102,102,102)"  stroke="rgb(102,102,102)" stroke-width="1" font-size="16" >C</text>
<text font-size="18.000000" fill ="black" font-family="sans-serif"
x="10.000000" y="20.000000" ></text>
<title> - OBDepict</title>
</svg>
