<?xml version="1.0"?>
<svg xmlns="http://www.w3.org/2000/svg"
xmlns:xlink="http://www.w3.org/1999/xlink" xmlns:cml="http://www.xml-cml.org/schema" width="520.535" height="289.465" x="0" y="0" font-family="sans-serif" stroke="rgb(0,0,0)" stroke-width="1"  stroke-linecap="round">
<rect x="0%" y="0%" width="100%" height="100%" stroke-width="0" fill="rgb(255,255,255)"  />
<line x1="267.3" y1="123.1" x2="240.3" y2="122.8" stroke="rgb(0,0,0)"  stroke-width="1.0"/>
<line x1="267.4" y1="117.1" x2="240.4" y2="116.8" stroke="rgb(0,0,0)"  stroke-width="1.0"/>
<line x1="300.4" y1="85.7" x2="286.9" y2="108.9" stroke="rgb(0,0,0)"  stroke-width="1.0"/>
<line x1="85.8" y1="86.1" x2="109.7" y2="99.8" stroke="rgb(0,0,0)"  stroke-width="1.0"/>
<line x1="340.4" y1="85.7" x2="300.4" y2="85.7" stroke="rgb(0,0,0)"  stroke-width="1.0"/>
<line x1="202.4" y1="219.8" x2="229.1" y2="190.1" stroke="rgb(0,0,0)"  stroke-width="1.0"/>
<line x1="184.4" y1="239.8" x2="202.4" y2="219.8" stroke="rgb(0,0,0)"  stroke-width="1.0"/>
<line x1="181.3" y1="237.0" x2="199.3" y2="217.0" stroke="rgb(0,0,0)"  stroke-width="1.0"/>
<line x1="187.5" y1="242.6" x2="205.5" y2="222.6" stroke="rgb(0,0,0)"  stroke-width="1.0"/>
<line x1="74.5" y1="53.0" x2="74.5" y2="66.6" stroke="rgb(0,0,0)"  stroke-width="1.0"/>
<line x1="49.7" y1="90.5" x2="61.8" y2="83.5" stroke="rgb(0,0,0)"  stroke-width="1.0"/>
<line x1="52.8" y1="95.7" x2="64.8" y2="88.7" stroke="rgb(0,0,0)"  stroke-width="1.0"/>
<line x1="289.5" y1="60.9" x2="303.0" y2="84.1" stroke="rgb(0,0,0)"  stroke-width="1.0"/>
<line x1="284.3" y1="63.9" x2="297.8" y2="87.2" stroke="rgb(0,0,0)"  stroke-width="1.0"/>
<line x1="229.1" y1="190.1" x2="220.9" y2="164.3" stroke="rgb(0,0,0)"  stroke-width="1.0"/>
<line x1="346.1" y1="143.8" x2="360.3" y2="120.2" stroke="rgb(0,0,0)"  stroke-width="1.0"/>
<line x1="447.9" y1="86.3" x2="420.5" y2="85.9" stroke="rgb(0,0,0)"  stroke-width="1.0"/>
<line x1="312.8" y1="154.9" x2="326.3" y2="154.9" stroke="rgb(0,0,0)"  stroke-width="1.0"/>
<line x1="474.1" y1="109.7" x2="467.4" y2="97.8" stroke="rgb(0,0,0)"  stroke-width="1.0"/>
<line x1="240.4" y1="119.8" x2="224.6" y2="98.0" stroke="rgb(0,0,0)"  stroke-width="1.0"/>
<line x1="204.6" y1="91.5" x2="178.8" y2="99.8" stroke="rgb(0,0,0)"  stroke-width="1.0"/>
<line x1="178.8" y1="99.8" x2="178.8" y2="139.8" stroke="rgb(0,0,0)"  stroke-width="1.0"/>
<line x1="186.0" y1="105.8" x2="186.0" y2="133.8" stroke="rgb(0,0,0)"  stroke-width="1.0"/>
<line x1="178.8" y1="139.8" x2="204.6" y2="148.0" stroke="rgb(0,0,0)"  stroke-width="1.0"/>
<line x1="224.6" y1="141.4" x2="240.4" y2="119.8" stroke="rgb(0,0,0)"  stroke-width="1.0"/>
<line x1="340.4" y1="85.7" x2="360.3" y2="120.2" stroke="rgb(0,0,0)"  stroke-width="1.0"/>
<line x1="349.6" y1="87.2" x2="363.6" y2="111.4" stroke="rgb(0,0,0)"  stroke-width="1.0"/>
<line x1="360.3" y1="120.2" x2="399.9" y2="120.4" stroke="rgb(0,0,0)"  stroke-width="1.0"/>
<line x1="399.9" y1="120.4" x2="420.5" y2="85.9" stroke="rgb(0,0,0)"  stroke-width="1.0"/>
<line x1="396.8" y1="111.6" x2="411.3" y2="87.3" stroke="rgb(0,0,0)"  stroke-width="1.0"/>
<line x1="420.5" y1="85.9" x2="400.5" y2="50.7" stroke="rgb(0,0,0)"  stroke-width="1.0"/>
<line x1="400.5" y1="50.7" x2="360.6" y2="50.7" stroke="rgb(0,0,0)"  stroke-width="1.0"/>
<line x1="394.5" y1="57.9" x2="366.6" y2="57.9" stroke="rgb(0,0,0)"  stroke-width="1.0"/>
<line x1="360.6" y1="50.7" x2="340.4" y2="85.7" stroke="rgb(0,0,0)"  stroke-width="1.0"/>
<line x1="144.2" y1="79.8" x2="178.8" y2="99.8" stroke="rgb(0,0,0)"  stroke-width="1.0"/>
<line x1="178.8" y1="139.8" x2="144.2" y2="159.8" stroke="rgb(0,0,0)"  stroke-width="1.0"/>
<line x1="144.2" y1="159.8" x2="109.7" y2="139.8" stroke="rgb(0,0,0)"  stroke-width="1.0"/>
<line x1="142.6" y1="150.5" x2="118.5" y2="136.6" stroke="rgb(0,0,0)"  stroke-width="1.0"/>
<line x1="109.7" y1="139.8" x2="109.7" y2="99.8" stroke="rgb(0,0,0)"  stroke-width="1.0"/>
<line x1="109.7" y1="99.8" x2="144.2" y2="79.8" stroke="rgb(0,0,0)"  stroke-width="1.0"/>
<line x1="118.5" y1="103.0" x2="142.6" y2="89.0" stroke="rgb(0,0,0)"  stroke-width="1.0"/>
<text x="274.363182" y="128.193625" fill="rgb(12,12,255)"  stroke="rgb(12,12,255)" stroke-width="1" font-size="16" >N</text>
<text x="210.941668" y="159.904382" fill="rgb(12,12,255)"  stroke="rgb(12,12,255)" stroke-width="1" font-size="16" >N</text>
<text x="210.941668" y="95.471801" fill="rgb(178,178,0)"  stroke="rgb(178,178,0)" stroke-width="1" font-size="16" >S</text>
<text x="79.340778" y="75.559279" fill="rgb(12,12,255)"  stroke="rgb(12,12,255)" stroke-width="1" font-size="16" >+</text>
<text x="68.540778" y="87.591279" fill="rgb(12,12,255)"  stroke="rgb(12,12,255)" stroke-width="1" font-size="16" >N</text>
<text x="157.734616" y="257.465149" fill="rgb(102,102,102)"  stroke="rgb(102,102,102)" stroke-width="1" font-size="16" >HC</text>
<text x="79.340778" y="25.888000" fill="rgb(255,12,12)"  stroke="rgb(255,12,12)" stroke-width="1" font-size="16" >_</text>
<text x="68.540778" y="48.000000" fill="rgb(255,12,12)"  stroke="rgb(255,12,12)" stroke-width="1" font-size="16" >O</text>
<text x="34.000000" y="107.590099" fill="rgb(255,12,12)"  stroke="rgb(255,12,12)" stroke-width="1" font-size="16" >O</text>
<text x="274.363182" y="59.112068" fill="rgb(255,12,12)"  stroke="rgb(255,12,12)" stroke-width="1" font-size="16" >O</text>
<text x="333.343738" y="162.937585" fill="rgb(255,12,12)"  stroke="rgb(255,12,12)" stroke-width="1" font-size="16" >O</text>
<text x="454.937921" y="94.460733" fill="rgb(255,12,12)"  stroke="rgb(255,12,12)" stroke-width="1" font-size="16" >O</text>
<text x="273.752459" y="162.937585" fill="rgb(102,102,102)"  stroke="rgb(102,102,102)" stroke-width="1" font-size="16" >H</text>
<text x="285.752459" y="166.617585" fill="rgb(102,102,102)"  stroke="rgb(102,102,102)" stroke-width="1" font-size="13" >3</text>
<text x="292.252459" y="162.937585" fill="rgb(102,102,102)"  stroke="rgb(102,102,102)" stroke-width="1" font-size="16" >C</text>
<text x="476.535217" y="129.001512" fill="rgb(102,102,102)"  stroke="rgb(102,102,102)" stroke-width="1" font-size="16" >CH</text>
<text x="500.535217" y="132.681512" fill="rgb(102,102,102)"  stroke="rgb(102,102,102)" stroke-width="1" font-size="13" >3</text>
<text font-size="18.000000" fill ="black" font-family="sans-serif"
x="10.000000" y="20.000000" ></text>
<title> - OBDepict</title>
</svg>
