<?xml version="1.0"?>
<svg xmlns="http://www.w3.org/2000/svg"
xmlns:xlink="http://www.w3.org/1999/xlink" xmlns:cml="http://www.xml-cml.org/schema" width="413.225" height="385.341" x="0" y="0" font-family="sans-serif" stroke="rgb(0,0,0)" stroke-width="1"  stroke-linecap="round">
<rect x="0%" y="0%" width="100%" height="100%" stroke-width="0" fill="rgb(255,255,255)"  />
<line x1="189.3" y1="187.7" x2="165.0" y2="201.8" stroke="rgb(0,0,0)"  stroke-width="1.0"/>
<line x1="186.3" y1="182.6" x2="162.0" y2="196.6" stroke="rgb(0,0,0)"  stroke-width="1.0"/>
<line x1="198.6" y1="139.0" x2="198.9" y2="165.6" stroke="rgb(0,0,0)"  stroke-width="1.0"/>
<line x1="361.9" y1="46.4" x2="338.5" y2="59.6" stroke="rgb(0,0,0)"  stroke-width="1.0"/>
<line x1="364.0" y1="50.0" x2="340.5" y2="63.3" stroke="rgb(0,0,0)"  stroke-width="1.0"/>
<line x1="359.8" y1="42.7" x2="336.4" y2="55.9" stroke="rgb(0,0,0)"  stroke-width="1.0"/>
<line x1="179.2" y1="305.9" x2="188.3" y2="266.9" stroke="rgb(0,0,0)"  stroke-width="1.0"/>
<line x1="173.1" y1="332.7" x2="179.2" y2="305.9" stroke="rgb(0,0,0)"  stroke-width="1.0"/>
<line x1="169.0" y1="331.7" x2="175.1" y2="305.0" stroke="rgb(0,0,0)"  stroke-width="1.0"/>
<line x1="177.2" y1="333.6" x2="183.3" y2="306.9" stroke="rgb(0,0,0)"  stroke-width="1.0"/>
<line x1="338.5" y1="59.6" x2="303.5" y2="79.4" stroke="rgb(0,0,0)"  stroke-width="1.0"/>
<line x1="233.2" y1="119.0" x2="198.6" y2="139.0" stroke="rgb(0,0,0)"  stroke-width="1.0"/>
<line x1="176.8" y1="122.9" x2="200.1" y2="136.4" stroke="rgb(0,0,0)"  stroke-width="1.0"/>
<line x1="173.8" y1="128.1" x2="197.1" y2="141.6" stroke="rgb(0,0,0)"  stroke-width="1.0"/>
<line x1="188.3" y1="266.9" x2="168.5" y2="248.2" stroke="rgb(0,0,0)"  stroke-width="1.0"/>
<line x1="111.9" y1="304.6" x2="99.0" y2="280.5" stroke="rgb(0,0,0)"  stroke-width="1.0"/>
<line x1="163.5" y1="199.2" x2="140.1" y2="188.2" stroke="rgb(0,0,0)"  stroke-width="1.0"/>
<line x1="119.2" y1="192.0" x2="100.4" y2="211.4" stroke="rgb(0,0,0)"  stroke-width="1.0"/>
<line x1="100.4" y1="211.4" x2="119.8" y2="246.5" stroke="rgb(0,0,0)"  stroke-width="1.0"/>
<line x1="109.6" y1="213.1" x2="123.2" y2="237.8" stroke="rgb(0,0,0)"  stroke-width="1.0"/>
<line x1="119.8" y1="246.5" x2="146.2" y2="241.6" stroke="rgb(0,0,0)"  stroke-width="1.0"/>
<line x1="160.5" y1="226.3" x2="163.5" y2="199.2" stroke="rgb(0,0,0)"  stroke-width="1.0"/>
<line x1="233.2" y1="119.0" x2="233.8" y2="79.4" stroke="rgb(0,0,0)"  stroke-width="1.0"/>
<line x1="233.8" y1="79.4" x2="268.8" y2="59.4" stroke="rgb(0,0,0)"  stroke-width="1.0"/>
<line x1="242.6" y1="82.7" x2="267.1" y2="68.6" stroke="rgb(0,0,0)"  stroke-width="1.0"/>
<line x1="268.8" y1="59.4" x2="303.5" y2="79.4" stroke="rgb(0,0,0)"  stroke-width="1.0"/>
<line x1="303.5" y1="79.4" x2="302.9" y2="119.4" stroke="rgb(0,0,0)"  stroke-width="1.0"/>
<line x1="296.2" y1="85.3" x2="295.8" y2="113.3" stroke="rgb(0,0,0)"  stroke-width="1.0"/>
<line x1="302.9" y1="119.4" x2="268.3" y2="138.6" stroke="rgb(0,0,0)"  stroke-width="1.0"/>
<line x1="268.3" y1="138.6" x2="233.2" y2="119.0" stroke="rgb(0,0,0)"  stroke-width="1.0"/>
<line x1="266.6" y1="129.4" x2="241.9" y2="115.6" stroke="rgb(0,0,0)"  stroke-width="1.0"/>
<line x1="99.0" y1="280.5" x2="60.0" y2="279.9" stroke="rgb(0,0,0)"  stroke-width="1.0"/>
<line x1="93.1" y1="273.2" x2="66.1" y2="272.8" stroke="rgb(0,0,0)"  stroke-width="1.0"/>
<line x1="60.0" y1="279.9" x2="40.0" y2="244.5" stroke="rgb(0,0,0)"  stroke-width="1.0"/>
<line x1="40.0" y1="244.5" x2="60.8" y2="210.2" stroke="rgb(0,0,0)"  stroke-width="1.0"/>
<line x1="49.3" y1="243.1" x2="63.9" y2="219.0" stroke="rgb(0,0,0)"  stroke-width="1.0"/>
<line x1="60.8" y1="210.2" x2="100.4" y2="211.4" stroke="rgb(0,0,0)"  stroke-width="1.0"/>
<line x1="119.8" y1="246.5" x2="99.0" y2="280.5" stroke="rgb(0,0,0)"  stroke-width="1.0"/>
<text x="193.034057" y="186.631613" fill="rgb(12,12,255)"  stroke="rgb(12,12,255)" stroke-width="1" font-size="16" >N</text>
<text x="153.021545" y="247.250739" fill="rgb(12,12,255)"  stroke="rgb(12,12,255)" stroke-width="1" font-size="16" >N</text>
<text x="122.308503" y="190.671268" fill="rgb(178,178,0)"  stroke="rgb(178,178,0)" stroke-width="1" font-size="16" >S</text>
<text x="367.225325" y="48.000000" fill="rgb(12,12,255)"  stroke="rgb(12,12,255)" stroke-width="1" font-size="16" >N</text>
<text x="152.139102" y="353.341500" fill="rgb(102,102,102)"  stroke="rgb(102,102,102)" stroke-width="1" font-size="16" >HC</text>
<text x="158.077190" y="127.013894" fill="rgb(255,12,12)"  stroke="rgb(255,12,12)" stroke-width="1" font-size="16" >O</text>
<text x="114.002765" y="324.043066" fill="rgb(102,102,102)"  stroke="rgb(102,102,102)" stroke-width="1" font-size="16" >CH</text>
<text x="138.002765" y="327.723066" fill="rgb(102,102,102)"  stroke="rgb(102,102,102)" stroke-width="1" font-size="13" >3</text>
<text font-size="18.000000" fill ="black" font-family="sans-serif"
x="10.000000" y="20.000000" ></text>
<title> - OBDepict</title>
</svg>
