<?xml version="1.0"?>
<svg xmlns="http://www.w3.org/2000/svg"
xmlns:xlink="http://www.w3.org/1999/xlink" xmlns:cml="http://www.xml-cml.org/schema" width="386.553" height="296.26" x="0" y="0" font-family="sans-serif" stroke="rgb(0,0,0)" stroke-width="1"  stroke-linecap="round">
<rect x="0%" y="0%" width="100%" height="100%" stroke-width="0" fill="rgb(255,255,255)"  />
<line x1="233.8" y1="193.3" x2="248.6" y2="170.4" stroke="rgb(0,0,0)"  stroke-width="1.0"/>
<line x1="194.4" y1="190.7" x2="233.8" y2="193.3" stroke="rgb(0,0,0)"  stroke-width="1.0"/>
<line x1="57.3" y1="147.8" x2="76.0" y2="184.9" stroke="rgb(0,0,0)"  stroke-width="1.0"/>
<line x1="45.6" y1="123.3" x2="57.3" y2="147.8" stroke="rgb(0,0,0)"  stroke-width="1.0"/>
<line x1="49.4" y1="121.5" x2="61.1" y2="146.0" stroke="rgb(0,0,0)"  stroke-width="1.0"/>
<line x1="41.8" y1="125.1" x2="53.5" y2="149.6" stroke="rgb(0,0,0)"  stroke-width="1.0"/>
<line x1="180.2" y1="212.6" x2="194.4" y2="190.7" stroke="rgb(0,0,0)"  stroke-width="1.0"/>
<line x1="217.7" y1="112.8" x2="241.8" y2="119.6" stroke="rgb(0,0,0)"  stroke-width="1.0"/>
<line x1="216.1" y1="118.5" x2="240.2" y2="125.4" stroke="rgb(0,0,0)"  stroke-width="1.0"/>
<line x1="308.5" y1="181.8" x2="292.8" y2="159.9" stroke="rgb(0,0,0)"  stroke-width="1.0"/>
<line x1="313.4" y1="178.4" x2="297.7" y2="156.4" stroke="rgb(0,0,0)"  stroke-width="1.0"/>
<line x1="185.6" y1="166.2" x2="197.1" y2="189.3" stroke="rgb(0,0,0)"  stroke-width="1.0"/>
<line x1="180.2" y1="168.9" x2="191.7" y2="192.0" stroke="rgb(0,0,0)"  stroke-width="1.0"/>
<line x1="133.4" y1="221.3" x2="160.2" y2="222.8" stroke="rgb(0,0,0)"  stroke-width="1.0"/>
<line x1="250.9" y1="147.4" x2="241.0" y2="122.5" stroke="rgb(0,0,0)"  stroke-width="1.0"/>
<line x1="241.0" y1="122.5" x2="273.5" y2="97.4" stroke="rgb(0,0,0)"  stroke-width="1.0"/>
<line x1="273.5" y1="97.4" x2="307.3" y2="120.5" stroke="rgb(0,0,0)"  stroke-width="1.0"/>
<line x1="307.3" y1="120.5" x2="295.3" y2="158.2" stroke="rgb(0,0,0)"  stroke-width="1.0"/>
<line x1="295.3" y1="158.2" x2="268.7" y2="159.0" stroke="rgb(0,0,0)"  stroke-width="1.0"/>
<line x1="133.4" y1="221.3" x2="116.2" y2="185.7" stroke="rgb(0,0,0)"  stroke-width="1.0"/>
<line x1="124.4" y1="219.1" x2="112.3" y2="194.2" stroke="rgb(0,0,0)"  stroke-width="1.0"/>
<line x1="116.2" y1="185.7" x2="76.0" y2="184.9" stroke="rgb(0,0,0)"  stroke-width="1.0"/>
<line x1="76.0" y1="184.9" x2="53.7" y2="217.4" stroke="rgb(0,0,0)"  stroke-width="1.0"/>
<line x1="78.6" y1="193.9" x2="63.1" y2="216.6" stroke="rgb(0,0,0)"  stroke-width="1.0"/>
<line x1="53.7" y1="217.4" x2="71.2" y2="254.0" stroke="rgb(0,0,0)"  stroke-width="1.0"/>
<line x1="71.2" y1="254.0" x2="111.2" y2="256.3" stroke="rgb(0,0,0)"  stroke-width="1.0"/>
<line x1="77.6" y1="247.2" x2="105.6" y2="248.7" stroke="rgb(0,0,0)"  stroke-width="1.0"/>
<line x1="111.2" y1="256.3" x2="133.4" y2="221.3" stroke="rgb(0,0,0)"  stroke-width="1.0"/>
<line x1="277.4" y1="58.6" x2="273.5" y2="97.4" stroke="rgb(0,0,0)"  stroke-width="1.0"/>
<line x1="284.0" y1="65.3" x2="281.3" y2="92.2" stroke="rgb(0,0,0)"  stroke-width="1.0"/>
<line x1="307.3" y1="120.5" x2="343.8" y2="102.4" stroke="rgb(0,0,0)"  stroke-width="1.0"/>
<line x1="309.5" y1="111.3" x2="335.2" y2="98.6" stroke="rgb(0,0,0)"  stroke-width="1.0"/>
<line x1="343.8" y1="102.4" x2="346.6" y2="61.7" stroke="rgb(0,0,0)"  stroke-width="1.0"/>
<line x1="346.6" y1="61.7" x2="313.7" y2="40.0" stroke="rgb(0,0,0)"  stroke-width="1.0"/>
<line x1="337.6" y1="64.4" x2="314.7" y2="49.3" stroke="rgb(0,0,0)"  stroke-width="1.0"/>
<line x1="313.7" y1="40.0" x2="277.4" y2="58.6" stroke="rgb(0,0,0)"  stroke-width="1.0"/>
<text x="249.700995" y="167.463595" fill="rgb(12,12,255)"  stroke="rgb(12,12,255)" stroke-width="1" font-size="16" >N</text>
<text x="22.000000" y="119.532203" fill="rgb(102,102,102)"  stroke="rgb(102,102,102)" stroke-width="1" font-size="16" >HC</text>
<text x="167.207625" y="231.561858" fill="rgb(12,12,255)"  stroke="rgb(12,12,255)" stroke-width="1" font-size="16" >N</text>
<text x="167.207625" y="247.561858" fill="rgb(12,12,255)"  stroke="rgb(12,12,255)" stroke-width="1" font-size="16" >H</text>
<text x="198.422384" y="120.086829" fill="rgb(255,12,12)"  stroke="rgb(255,12,12)" stroke-width="1" font-size="16" >O</text>
<text x="312.495400" y="198.678354" fill="rgb(255,12,12)"  stroke="rgb(255,12,12)" stroke-width="1" font-size="16" >O</text>
<text x="171.109470" y="163.931501" fill="rgb(255,12,12)"  stroke="rgb(255,12,12)" stroke-width="1" font-size="16" >O</text>
<text font-size="18.000000" fill ="black" font-family="sans-serif"
x="10.000000" y="20.000000" ></text>
<title> - OBDepict</title>
</svg>
