<?xml version="1.0"?>
<svg xmlns="http://www.w3.org/2000/svg"
xmlns:xlink="http://www.w3.org/1999/xlink" xmlns:cml="http://www.xml-cml.org/schema" width="495.013" height="268.112" x="0" y="0" font-family="sans-serif" stroke="rgb(0,0,0)" stroke-width="1"  stroke-linecap="round">
<rect x="0%" y="0%" width="100%" height="100%" stroke-width="0" fill="rgb(255,255,255)"  />
<line x1="317.2" y1="108.1" x2="351.8" y2="88.1" stroke="rgb(0,0,0)"  stroke-width="1.0"/>
<line x1="284.0" y1="85.5" x2="318.7" y2="105.5" stroke="rgb(0,0,0)"  stroke-width="1.0"/>
<line x1="281.0" y1="90.7" x2="315.7" y2="110.7" stroke="rgb(0,0,0)"  stroke-width="1.0"/>
<line x1="317.2" y1="148.1" x2="317.2" y2="108.1" stroke="rgb(0,0,0)"  stroke-width="1.0"/>
<line x1="247.9" y1="108.1" x2="282.5" y2="88.1" stroke="rgb(0,0,0)"  stroke-width="1.0"/>
<line x1="317.2" y1="175.1" x2="317.2" y2="148.1" stroke="rgb(0,0,0)"  stroke-width="1.0"/>
<line x1="313.0" y1="175.1" x2="313.0" y2="148.1" stroke="rgb(0,0,0)"  stroke-width="1.0"/>
<line x1="321.4" y1="175.1" x2="321.4" y2="148.1" stroke="rgb(0,0,0)"  stroke-width="1.0"/>
<line x1="74.7" y1="168.1" x2="109.3" y2="148.1" stroke="rgb(0,0,0)"  stroke-width="1.0"/>
<line x1="51.3" y1="181.6" x2="74.7" y2="168.1" stroke="rgb(0,0,0)"  stroke-width="1.0"/>
<line x1="49.2" y1="178.0" x2="72.7" y2="164.5" stroke="rgb(0,0,0)"  stroke-width="1.0"/>
<line x1="53.4" y1="185.3" x2="76.8" y2="171.7" stroke="rgb(0,0,0)"  stroke-width="1.0"/>
<line x1="155.3" y1="94.6" x2="178.6" y2="108.1" stroke="rgb(0,0,0)"  stroke-width="1.0"/>
<line x1="155.3" y1="161.6" x2="178.6" y2="148.1" stroke="rgb(0,0,0)"  stroke-width="1.0"/>
<line x1="213.4" y1="195.1" x2="213.4" y2="168.1" stroke="rgb(0,0,0)"  stroke-width="1.0"/>
<line x1="109.3" y1="148.1" x2="132.8" y2="161.6" stroke="rgb(0,0,0)"  stroke-width="1.0"/>
<line x1="442.1" y1="77.4" x2="415.2" y2="74.6" stroke="rgb(0,0,0)"  stroke-width="1.0"/>
<line x1="236.7" y1="221.6" x2="224.6" y2="214.6" stroke="rgb(0,0,0)"  stroke-width="1.0"/>
<line x1="351.8" y1="88.1" x2="354.6" y2="61.2" stroke="rgb(0,0,0)"  stroke-width="1.0"/>
<line x1="368.7" y1="45.6" x2="395.2" y2="40.0" stroke="rgb(0,0,0)"  stroke-width="1.0"/>
<line x1="395.2" y1="40.0" x2="415.2" y2="74.6" stroke="rgb(0,0,0)"  stroke-width="1.0"/>
<line x1="392.0" y1="48.8" x2="406.0" y2="73.0" stroke="rgb(0,0,0)"  stroke-width="1.0"/>
<line x1="415.2" y1="74.6" x2="397.1" y2="94.6" stroke="rgb(0,0,0)"  stroke-width="1.0"/>
<line x1="376.3" y1="98.9" x2="351.8" y2="88.1" stroke="rgb(0,0,0)"  stroke-width="1.0"/>
<line x1="377.3" y1="91.5" x2="360.2" y2="83.9" stroke="rgb(0,0,0)"  stroke-width="1.0"/>
<line x1="178.6" y1="108.1" x2="178.6" y2="148.1" stroke="rgb(0,0,0)"  stroke-width="1.0"/>
<line x1="178.6" y1="148.1" x2="213.4" y2="168.1" stroke="rgb(0,0,0)"  stroke-width="1.0"/>
<line x1="187.4" y1="144.9" x2="211.8" y2="158.9" stroke="rgb(0,0,0)"  stroke-width="1.0"/>
<line x1="213.4" y1="168.1" x2="247.9" y2="148.1" stroke="rgb(0,0,0)"  stroke-width="1.0"/>
<line x1="247.9" y1="148.1" x2="247.9" y2="108.1" stroke="rgb(0,0,0)"  stroke-width="1.0"/>
<line x1="240.7" y1="142.1" x2="240.7" y2="114.1" stroke="rgb(0,0,0)"  stroke-width="1.0"/>
<line x1="247.9" y1="108.1" x2="213.4" y2="88.1" stroke="rgb(0,0,0)"  stroke-width="1.0"/>
<line x1="213.4" y1="88.1" x2="178.6" y2="108.1" stroke="rgb(0,0,0)"  stroke-width="1.0"/>
<line x1="211.8" y1="97.3" x2="187.4" y2="111.3" stroke="rgb(0,0,0)"  stroke-width="1.0"/>
<text x="382.336286" y="112.252583" fill="rgb(12,12,255)"  stroke="rgb(12,12,255)" stroke-width="1" font-size="16" >N</text>
<text x="350.006326" y="56.287371" fill="rgb(178,178,0)"  stroke="rgb(178,178,0)" stroke-width="1" font-size="16" >S</text>
<text x="311.212314" y="196.105841" fill="rgb(12,12,255)"  stroke="rgb(12,12,255)" stroke-width="1" font-size="16" >N</text>
<text x="22.000000" y="196.105841" fill="rgb(102,102,102)"  stroke="rgb(102,102,102)" stroke-width="1" font-size="16" >HC</text>
<text x="126.055240" y="96.090028" fill="rgb(30,239,30)"  stroke="rgb(30,239,30)" stroke-width="1" font-size="16" >Cl</text>
<text x="138.055240" y="176.102678" fill="rgb(255,12,12)"  stroke="rgb(255,12,12)" stroke-width="1" font-size="16" >O</text>
<text x="207.360743" y="216.109003" fill="rgb(255,12,12)"  stroke="rgb(255,12,12)" stroke-width="1" font-size="16" >O</text>
<text x="451.013495" y="86.794012" fill="rgb(102,102,102)"  stroke="rgb(102,102,102)" stroke-width="1" font-size="16" >CH</text>
<text x="475.013495" y="90.474012" fill="rgb(102,102,102)"  stroke="rgb(102,102,102)" stroke-width="1" font-size="13" >3</text>
<text x="243.911660" y="236.112166" fill="rgb(102,102,102)"  stroke="rgb(102,102,102)" stroke-width="1" font-size="16" >CH</text>
<text x="267.911660" y="239.792166" fill="rgb(102,102,102)"  stroke="rgb(102,102,102)" stroke-width="1" font-size="13" >3</text>
<text font-size="18.000000" fill ="black" font-family="sans-serif"
x="10.000000" y="20.000000" ></text>
<title> - OBDepict</title>
</svg>
