<?xml version="1.0"?>
<svg xmlns="http://www.w3.org/2000/svg"
xmlns:xlink="http://www.w3.org/1999/xlink" xmlns:cml="http://www.xml-cml.org/schema" width="554.517" height="384.021" x="0" y="0" font-family="sans-serif" stroke="rgb(0,0,0)" stroke-width="1"  stroke-linecap="round">
<rect x="0%" y="0%" width="100%" height="100%" stroke-width="0" fill="rgb(255,255,255)"  />
<line x1="141.8" y1="139.4" x2="174.3" y2="116.0" stroke="rgb(0,0,0)"  stroke-width="1.0"/>
<line x1="348.7" y1="117.8" x2="370.5" y2="102.0" stroke="rgb(0,0,0)"  stroke-width="1.0"/>
<line x1="243.2" y1="108.7" x2="279.8" y2="125.0" stroke="rgb(0,0,0)"  stroke-width="1.0"/>
<line x1="482.2" y1="63.4" x2="449.9" y2="87.1" stroke="rgb(0,0,0)"  stroke-width="1.0"/>
<line x1="504.0" y1="47.6" x2="482.2" y2="63.4" stroke="rgb(0,0,0)"  stroke-width="1.0"/>
<line x1="506.5" y1="51.0" x2="484.7" y2="66.8" stroke="rgb(0,0,0)"  stroke-width="1.0"/>
<line x1="501.5" y1="44.2" x2="479.7" y2="60.0" stroke="rgb(0,0,0)"  stroke-width="1.0"/>
<line x1="367.6" y1="70.6" x2="375.8" y2="82.0" stroke="rgb(0,0,0)"  stroke-width="1.0"/>
<line x1="362.7" y1="74.1" x2="371.0" y2="85.5" stroke="rgb(0,0,0)"  stroke-width="1.0"/>
<line x1="394.4" y1="117.9" x2="386.2" y2="106.6" stroke="rgb(0,0,0)"  stroke-width="1.0"/>
<line x1="399.2" y1="114.4" x2="391.0" y2="103.1" stroke="rgb(0,0,0)"  stroke-width="1.0"/>
<line x1="91.5" y1="229.9" x2="103.8" y2="191.9" stroke="rgb(0,0,0)"  stroke-width="1.0"/>
<line x1="402.8" y1="78.4" x2="391.5" y2="86.7" stroke="rgb(0,0,0)"  stroke-width="1.0"/>
<line x1="221.4" y1="124.6" x2="243.2" y2="108.7" stroke="rgb(0,0,0)"  stroke-width="1.0"/>
<line x1="243.3" y1="81.5" x2="246.2" y2="108.4" stroke="rgb(0,0,0)"  stroke-width="1.0"/>
<line x1="237.4" y1="82.1" x2="240.2" y2="109.0" stroke="rgb(0,0,0)"  stroke-width="1.0"/>
<line x1="174.3" y1="116.0" x2="199.0" y2="127.0" stroke="rgb(0,0,0)"  stroke-width="1.0"/>
<line x1="449.9" y1="87.1" x2="425.2" y2="76.0" stroke="rgb(0,0,0)"  stroke-width="1.0"/>
<line x1="58.4" y1="331.7" x2="66.9" y2="306.0" stroke="rgb(0,0,0)"  stroke-width="1.0"/>
<line x1="141.8" y1="179.4" x2="141.8" y2="139.4" stroke="rgb(0,0,0)"  stroke-width="1.0"/>
<line x1="134.6" y1="173.4" x2="134.6" y2="145.4" stroke="rgb(0,0,0)"  stroke-width="1.0"/>
<line x1="141.8" y1="139.4" x2="116.2" y2="131.1" stroke="rgb(0,0,0)"  stroke-width="1.0"/>
<line x1="96.2" y1="137.6" x2="88.0" y2="148.9" stroke="rgb(0,0,0)"  stroke-width="1.0"/>
<line x1="88.1" y1="170.1" x2="103.8" y2="191.9" stroke="rgb(0,0,0)"  stroke-width="1.0"/>
<line x1="95.1" y1="167.5" x2="106.2" y2="182.8" stroke="rgb(0,0,0)"  stroke-width="1.0"/>
<line x1="103.8" y1="191.9" x2="141.8" y2="179.4" stroke="rgb(0,0,0)"  stroke-width="1.0"/>
<line x1="91.5" y1="229.9" x2="118.2" y2="259.6" stroke="rgb(0,0,0)"  stroke-width="1.0"/>
<line x1="118.2" y1="259.6" x2="105.9" y2="297.6" stroke="rgb(0,0,0)"  stroke-width="1.0"/>
<line x1="109.5" y1="263.1" x2="100.9" y2="289.6" stroke="rgb(0,0,0)"  stroke-width="1.0"/>
<line x1="105.9" y1="297.6" x2="66.9" y2="306.0" stroke="rgb(0,0,0)"  stroke-width="1.0"/>
<line x1="66.9" y1="306.0" x2="40.0" y2="276.1" stroke="rgb(0,0,0)"  stroke-width="1.0"/>
<line x1="68.2" y1="296.8" x2="49.4" y2="275.8" stroke="rgb(0,0,0)"  stroke-width="1.0"/>
<line x1="40.0" y1="276.1" x2="52.3" y2="238.2" stroke="rgb(0,0,0)"  stroke-width="1.0"/>
<line x1="52.3" y1="238.2" x2="91.5" y2="229.9" stroke="rgb(0,0,0)"  stroke-width="1.0"/>
<line x1="59.7" y1="244.0" x2="87.1" y2="238.2" stroke="rgb(0,0,0)"  stroke-width="1.0"/>
<line x1="348.7" y1="117.8" x2="352.7" y2="157.6" stroke="rgb(0,0,0)"  stroke-width="1.0"/>
<line x1="342.1" y1="124.5" x2="344.9" y2="152.3" stroke="rgb(0,0,0)"  stroke-width="1.0"/>
<line x1="352.7" y1="157.6" x2="320.4" y2="181.0" stroke="rgb(0,0,0)"  stroke-width="1.0"/>
<line x1="320.4" y1="181.0" x2="283.8" y2="164.8" stroke="rgb(0,0,0)"  stroke-width="1.0"/>
<line x1="317.8" y1="172.0" x2="292.2" y2="160.7" stroke="rgb(0,0,0)"  stroke-width="1.0"/>
<line x1="283.8" y1="164.8" x2="279.8" y2="125.0" stroke="rgb(0,0,0)"  stroke-width="1.0"/>
<line x1="279.8" y1="125.0" x2="312.1" y2="101.4" stroke="rgb(0,0,0)"  stroke-width="1.0"/>
<line x1="288.9" y1="127.3" x2="311.5" y2="110.8" stroke="rgb(0,0,0)"  stroke-width="1.0"/>
<line x1="312.1" y1="101.4" x2="348.7" y2="117.8" stroke="rgb(0,0,0)"  stroke-width="1.0"/>
<text x="374.987981" y="102.338551" fill="rgb(178,178,0)"  stroke="rgb(178,178,0)" stroke-width="1" font-size="16" >S</text>
<text x="74.399995" y="167.386761" fill="rgb(12,12,255)"  stroke="rgb(12,12,255)" stroke-width="1" font-size="16" >N</text>
<text x="97.836162" y="135.063856" fill="rgb(255,12,12)"  stroke="rgb(255,12,12)" stroke-width="1" font-size="16" >O</text>
<text x="508.516922" y="48.000000" fill="rgb(102,102,102)"  stroke="rgb(102,102,102)" stroke-width="1" font-size="16" >CH</text>
<text x="351.556663" y="69.816870" fill="rgb(255,12,12)"  stroke="rgb(255,12,12)" stroke-width="1" font-size="16" >O</text>
<text x="398.424148" y="134.661456" fill="rgb(255,12,12)"  stroke="rgb(255,12,12)" stroke-width="1" font-size="16" >O</text>
<text x="407.310886" y="78.703608" fill="rgb(12,12,255)"  stroke="rgb(12,12,255)" stroke-width="1" font-size="16" >N</text>
<text x="407.310886" y="62.703608" fill="rgb(12,12,255)"  stroke="rgb(12,12,255)" stroke-width="1" font-size="16" >H</text>
<text x="204.898815" y="140.319297" fill="rgb(255,12,12)"  stroke="rgb(255,12,12)" stroke-width="1" font-size="16" >O</text>
<text x="232.979550" y="76.885536" fill="rgb(255,12,12)"  stroke="rgb(255,12,12)" stroke-width="1" font-size="16" >O</text>
<text x="36.340956" y="352.020507" fill="rgb(30,239,30)"  stroke="rgb(30,239,30)" stroke-width="1" font-size="16" >Cl</text>
<text font-size="18.000000" fill ="black" font-family="sans-serif"
x="10.000000" y="20.000000" ></text>
<title> - OBDepict</title>
</svg>
