<?xml version="1.0"?>
<svg xmlns="http://www.w3.org/2000/svg"
xmlns:xlink="http://www.w3.org/1999/xlink" xmlns:cml="http://www.xml-cml.org/schema" width="315.576" height="319.193" x="0" y="0" font-family="sans-serif" stroke="rgb(0,0,0)" stroke-width="1"  stroke-linecap="round">
<rect x="0%" y="0%" width="100%" height="100%" stroke-width="0" fill="rgb(255,255,255)"  />
<line x1="200.0" y1="199.9" x2="162.0" y2="212.2" stroke="rgb(0,0,0)"  stroke-width="1.0"/>
<line x1="198.1" y1="194.2" x2="160.2" y2="206.4" stroke="rgb(0,0,0)"  stroke-width="1.0"/>
<line x1="207.5" y1="157.9" x2="199.1" y2="197.0" stroke="rgb(0,0,0)"  stroke-width="1.0"/>
<line x1="50.6" y1="158.1" x2="59.1" y2="197.0" stroke="rgb(0,0,0)"  stroke-width="1.0"/>
<line x1="43.5" y1="132.1" x2="50.6" y2="158.1" stroke="rgb(0,0,0)"  stroke-width="1.0"/>
<line x1="47.5" y1="130.9" x2="54.7" y2="157.0" stroke="rgb(0,0,0)"  stroke-width="1.0"/>
<line x1="39.4" y1="133.2" x2="46.6" y2="159.2" stroke="rgb(0,0,0)"  stroke-width="1.0"/>
<line x1="90.9" y1="266.9" x2="106.7" y2="245.5" stroke="rgb(0,0,0)"  stroke-width="1.0"/>
<line x1="95.7" y1="270.5" x2="111.5" y2="249.0" stroke="rgb(0,0,0)"  stroke-width="1.0"/>
<line x1="131.7" y1="159.0" x2="132.0" y2="185.8" stroke="rgb(0,0,0)"  stroke-width="1.0"/>
<line x1="125.7" y1="159.1" x2="126.0" y2="185.8" stroke="rgb(0,0,0)"  stroke-width="1.0"/>
<line x1="59.1" y1="197.0" x2="84.3" y2="205.3" stroke="rgb(0,0,0)"  stroke-width="1.0"/>
<line x1="265.9" y1="163.6" x2="245.9" y2="145.4" stroke="rgb(0,0,0)"  stroke-width="1.0"/>
<line x1="229.6" y1="52.7" x2="224.2" y2="79.2" stroke="rgb(0,0,0)"  stroke-width="1.0"/>
<line x1="107.2" y1="201.7" x2="129.0" y2="185.8" stroke="rgb(0,0,0)"  stroke-width="1.0"/>
<line x1="129.0" y1="185.8" x2="161.1" y2="209.3" stroke="rgb(0,0,0)"  stroke-width="1.0"/>
<line x1="161.1" y1="209.3" x2="152.8" y2="234.9" stroke="rgb(0,0,0)"  stroke-width="1.0"/>
<line x1="135.8" y1="247.3" x2="109.1" y2="247.3" stroke="rgb(0,0,0)"  stroke-width="1.0"/>
<line x1="109.1" y1="247.3" x2="100.7" y2="221.7" stroke="rgb(0,0,0)"  stroke-width="1.0"/>
<line x1="207.5" y1="157.9" x2="245.9" y2="145.4" stroke="rgb(0,0,0)"  stroke-width="1.0"/>
<line x1="245.9" y1="145.4" x2="254.3" y2="106.1" stroke="rgb(0,0,0)"  stroke-width="1.0"/>
<line x1="240.1" y1="138.1" x2="246.0" y2="110.4" stroke="rgb(0,0,0)"  stroke-width="1.0"/>
<line x1="254.3" y1="106.1" x2="224.2" y2="79.2" stroke="rgb(0,0,0)"  stroke-width="1.0"/>
<line x1="224.2" y1="79.2" x2="185.8" y2="91.8" stroke="rgb(0,0,0)"  stroke-width="1.0"/>
<line x1="220.7" y1="87.9" x2="193.8" y2="96.8" stroke="rgb(0,0,0)"  stroke-width="1.0"/>
<line x1="185.8" y1="91.8" x2="177.4" y2="131.0" stroke="rgb(0,0,0)"  stroke-width="1.0"/>
<line x1="177.4" y1="131.0" x2="207.5" y2="157.9" stroke="rgb(0,0,0)"  stroke-width="1.0"/>
<line x1="186.6" y1="129.6" x2="207.8" y2="148.5" stroke="rgb(0,0,0)"  stroke-width="1.0"/>
<text x="90.633571" y="217.303447" fill="rgb(12,12,255)"  stroke="rgb(12,12,255)" stroke-width="1" font-size="16" >N</text>
<text x="142.848335" y="255.261487" fill="rgb(178,178,0)"  stroke="rgb(178,178,0)" stroke-width="1" font-size="16" >S</text>
<text x="22.000000" y="127.528820" fill="rgb(102,102,102)"  stroke="rgb(102,102,102)" stroke-width="1" font-size="16" >HC</text>
<text x="79.586553" y="287.193440" fill="rgb(255,12,12)"  stroke="rgb(255,12,12)" stroke-width="1" font-size="16" >O</text>
<text x="122.570380" y="154.041664" fill="rgb(255,12,12)"  stroke="rgb(255,12,12)" stroke-width="1" font-size="16" >O</text>
<text x="269.575845" y="180.345708" fill="rgb(30,239,30)"  stroke="rgb(30,239,30)" stroke-width="1" font-size="16" >Cl</text>
<text x="226.198696" y="48.000000" fill="rgb(30,239,30)"  stroke="rgb(30,239,30)" stroke-width="1" font-size="16" >Cl</text>
<text font-size="18.000000" fill ="black" font-family="sans-serif"
x="10.000000" y="20.000000" ></text>
<title> - OBDepict</title>
</svg>
