<?xml version="1.0"?>
<svg xmlns="http://www.w3.org/2000/svg"
xmlns:xlink="http://www.w3.org/1999/xlink" xmlns:cml="http://www.xml-cml.org/schema" width="442.159" height="271.825" x="0" y="0" font-family="sans-serif" stroke="rgb(0,0,0)" stroke-width="1"  stroke-linecap="round">
<rect x="0%" y="0%" width="100%" height="100%" stroke-width="0" fill="rgb(255,255,255)"  />
<line x1="240.6" y1="96.1" x2="275.6" y2="115.9" stroke="rgb(0,0,0)"  stroke-width="1.0"/>
<line x1="237.7" y1="101.3" x2="272.7" y2="121.1" stroke="rgb(0,0,0)"  stroke-width="1.0"/>
<line x1="113.3" y1="174.0" x2="136.7" y2="160.2" stroke="rgb(0,0,0)"  stroke-width="1.0"/>
<line x1="204.8" y1="119.2" x2="239.2" y2="98.7" stroke="rgb(0,0,0)"  stroke-width="1.0"/>
<line x1="389.5" y1="78.7" x2="377.5" y2="116.7" stroke="rgb(0,0,0)"  stroke-width="1.0"/>
<line x1="398.1" y1="52.4" x2="389.5" y2="78.7" stroke="rgb(0,0,0)"  stroke-width="1.0"/>
<line x1="402.1" y1="53.7" x2="393.5" y2="80.0" stroke="rgb(0,0,0)"  stroke-width="1.0"/>
<line x1="394.1" y1="51.0" x2="385.5" y2="77.4" stroke="rgb(0,0,0)"  stroke-width="1.0"/>
<line x1="334.9" y1="186.2" x2="320.3" y2="162.7" stroke="rgb(0,0,0)"  stroke-width="1.0"/>
<line x1="340.0" y1="183.0" x2="325.4" y2="159.6" stroke="rgb(0,0,0)"  stroke-width="1.0"/>
<line x1="313.5" y1="71.4" x2="311.0" y2="98.9" stroke="rgb(0,0,0)"  stroke-width="1.0"/>
<line x1="307.5" y1="70.8" x2="305.0" y2="98.4" stroke="rgb(0,0,0)"  stroke-width="1.0"/>
<line x1="377.5" y1="116.7" x2="350.9" y2="122.4" stroke="rgb(0,0,0)"  stroke-width="1.0"/>
<line x1="169.4" y1="72.3" x2="169.8" y2="99.8" stroke="rgb(0,0,0)"  stroke-width="1.0"/>
<line x1="333.1" y1="137.1" x2="322.8" y2="161.2" stroke="rgb(0,0,0)"  stroke-width="1.0"/>
<line x1="322.8" y1="161.2" x2="295.6" y2="158.7" stroke="rgb(0,0,0)"  stroke-width="1.0"/>
<line x1="279.9" y1="144.8" x2="274.2" y2="118.5" stroke="rgb(0,0,0)"  stroke-width="1.0"/>
<line x1="274.2" y1="118.5" x2="308.0" y2="98.7" stroke="rgb(0,0,0)"  stroke-width="1.0"/>
<line x1="308.0" y1="98.7" x2="328.4" y2="116.6" stroke="rgb(0,0,0)"  stroke-width="1.0"/>
<line x1="101.6" y1="193.7" x2="100.3" y2="221.0" stroke="rgb(0,0,0)"  stroke-width="1.0"/>
<line x1="100.3" y1="221.0" x2="61.7" y2="231.8" stroke="rgb(0,0,0)"  stroke-width="1.0"/>
<line x1="61.7" y1="231.8" x2="40.0" y2="198.2" stroke="rgb(0,0,0)"  stroke-width="1.0"/>
<line x1="40.0" y1="198.2" x2="64.7" y2="166.8" stroke="rgb(0,0,0)"  stroke-width="1.0"/>
<line x1="64.7" y1="166.8" x2="90.0" y2="176.2" stroke="rgb(0,0,0)"  stroke-width="1.0"/>
<line x1="204.8" y1="119.2" x2="169.8" y2="99.8" stroke="rgb(0,0,0)"  stroke-width="1.0"/>
<line x1="196.1" y1="122.6" x2="171.6" y2="109.0" stroke="rgb(0,0,0)"  stroke-width="1.0"/>
<line x1="169.8" y1="99.8" x2="136.0" y2="120.2" stroke="rgb(0,0,0)"  stroke-width="1.0"/>
<line x1="136.0" y1="120.2" x2="136.7" y2="160.2" stroke="rgb(0,0,0)"  stroke-width="1.0"/>
<line x1="143.3" y1="126.0" x2="143.8" y2="154.0" stroke="rgb(0,0,0)"  stroke-width="1.0"/>
<line x1="136.7" y1="160.2" x2="170.3" y2="179.3" stroke="rgb(0,0,0)"  stroke-width="1.0"/>
<line x1="170.3" y1="179.3" x2="204.8" y2="158.7" stroke="rgb(0,0,0)"  stroke-width="1.0"/>
<line x1="171.8" y1="170.1" x2="196.0" y2="155.6" stroke="rgb(0,0,0)"  stroke-width="1.0"/>
<line x1="204.8" y1="158.7" x2="204.8" y2="119.2" stroke="rgb(0,0,0)"  stroke-width="1.0"/>
<text x="332.162076" y="133.167003" fill="rgb(12,12,255)"  stroke="rgb(12,12,255)" stroke-width="1" font-size="16" >N</text>
<text x="276.663906" y="165.497305" fill="rgb(178,178,0)"  stroke="rgb(178,178,0)" stroke-width="1" font-size="16" >S</text>
<text x="96.168810" y="188.665173" fill="rgb(12,12,255)"  stroke="rgb(12,12,255)" stroke-width="1" font-size="16" >N</text>
<text x="396.158525" y="48.000000" fill="rgb(102,102,102)"  stroke="rgb(102,102,102)" stroke-width="1" font-size="16" >CH</text>
<text x="338.328540" y="203.664417" fill="rgb(255,12,12)"  stroke="rgb(255,12,12)" stroke-width="1" font-size="16" >O</text>
<text x="305.658888" y="66.169736" fill="rgb(255,12,12)"  stroke="rgb(255,12,12)" stroke-width="1" font-size="16" >O</text>
<text x="143.166076" y="67.333220" fill="rgb(102,102,102)"  stroke="rgb(102,102,102)" stroke-width="1" font-size="16" >H</text>
<text x="155.166076" y="71.013220" fill="rgb(102,102,102)"  stroke="rgb(102,102,102)" stroke-width="1" font-size="13" >3</text>
<text x="161.666076" y="67.333220" fill="rgb(102,102,102)"  stroke="rgb(102,102,102)" stroke-width="1" font-size="16" >C</text>
<text font-size="18.000000" fill ="black" font-family="sans-serif"
x="10.000000" y="20.000000" ></text>
<title> - OBDepict</title>
</svg>
