<?xml version="1.0"?>
<svg xmlns="http://www.w3.org/2000/svg"
xmlns:xlink="http://www.w3.org/1999/xlink" xmlns:cml="http://www.xml-cml.org/schema" width="463.825" height="309.167" x="0" y="0" font-family="sans-serif" stroke="rgb(0,0,0)" stroke-width="1"  stroke-linecap="round">
<rect x="0%" y="0%" width="100%" height="100%" stroke-width="0" fill="rgb(255,255,255)"  />
<line x1="167.5" y1="220.2" x2="137.3" y2="193.6" stroke="rgb(0,0,0)"  stroke-width="1.0"/>
<line x1="171.5" y1="215.7" x2="141.3" y2="189.1" stroke="rgb(0,0,0)"  stroke-width="1.0"/>
<line x1="207.5" y1="205.8" x2="169.5" y2="218.0" stroke="rgb(0,0,0)"  stroke-width="1.0"/>
<line x1="127.8" y1="68.8" x2="98.2" y2="96.0" stroke="rgb(0,0,0)"  stroke-width="1.0"/>
<line x1="147.1" y1="49.3" x2="127.8" y2="68.8" stroke="rgb(0,0,0)"  stroke-width="1.0"/>
<line x1="150.0" y1="52.2" x2="130.8" y2="71.8" stroke="rgb(0,0,0)"  stroke-width="1.0"/>
<line x1="144.1" y1="46.3" x2="124.8" y2="65.9" stroke="rgb(0,0,0)"  stroke-width="1.0"/>
<line x1="53.2" y1="159.4" x2="80.3" y2="162.4" stroke="rgb(0,0,0)"  stroke-width="1.0"/>
<line x1="52.6" y1="165.4" x2="79.7" y2="168.3" stroke="rgb(0,0,0)"  stroke-width="1.0"/>
<line x1="310.0" y1="218.3" x2="272.3" y2="205.8" stroke="rgb(0,0,0)"  stroke-width="1.0"/>
<line x1="168.4" y1="139.8" x2="145.0" y2="153.7" stroke="rgb(0,0,0)"  stroke-width="1.0"/>
<line x1="165.3" y1="134.6" x2="142.0" y2="148.6" stroke="rgb(0,0,0)"  stroke-width="1.0"/>
<line x1="98.2" y1="96.0" x2="103.9" y2="122.3" stroke="rgb(0,0,0)"  stroke-width="1.0"/>
<line x1="411.5" y1="251.2" x2="385.7" y2="242.5" stroke="rgb(0,0,0)"  stroke-width="1.0"/>
<line x1="98.1" y1="144.8" x2="80.0" y2="165.3" stroke="rgb(0,0,0)"  stroke-width="1.0"/>
<line x1="80.0" y1="165.3" x2="93.5" y2="188.6" stroke="rgb(0,0,0)"  stroke-width="1.0"/>
<line x1="112.7" y1="197.1" x2="139.3" y2="191.3" stroke="rgb(0,0,0)"  stroke-width="1.0"/>
<line x1="139.3" y1="191.3" x2="143.5" y2="151.2" stroke="rgb(0,0,0)"  stroke-width="1.0"/>
<line x1="143.5" y1="151.2" x2="118.6" y2="140.2" stroke="rgb(0,0,0)"  stroke-width="1.0"/>
<line x1="229.2" y1="221.3" x2="207.5" y2="205.8" stroke="rgb(0,0,0)"  stroke-width="1.0"/>
<line x1="207.5" y1="205.8" x2="219.0" y2="167.7" stroke="rgb(0,0,0)"  stroke-width="1.0"/>
<line x1="216.1" y1="202.2" x2="224.2" y2="175.5" stroke="rgb(0,0,0)"  stroke-width="1.0"/>
<line x1="219.0" y1="167.7" x2="258.5" y2="167.5" stroke="rgb(0,0,0)"  stroke-width="1.0"/>
<line x1="258.5" y1="167.5" x2="272.3" y2="205.8" stroke="rgb(0,0,0)"  stroke-width="1.0"/>
<line x1="253.8" y1="175.6" x2="263.5" y2="202.6" stroke="rgb(0,0,0)"  stroke-width="1.0"/>
<line x1="272.3" y1="205.8" x2="250.4" y2="221.3" stroke="rgb(0,0,0)"  stroke-width="1.0"/>
<line x1="310.0" y1="218.3" x2="318.3" y2="257.3" stroke="rgb(0,0,0)"  stroke-width="1.0"/>
<line x1="318.3" y1="222.7" x2="324.1" y2="250.0" stroke="rgb(0,0,0)"  stroke-width="1.0"/>
<line x1="318.3" y1="257.3" x2="355.5" y2="269.2" stroke="rgb(0,0,0)"  stroke-width="1.0"/>
<line x1="355.5" y1="269.2" x2="385.7" y2="242.5" stroke="rgb(0,0,0)"  stroke-width="1.0"/>
<line x1="355.2" y1="259.8" x2="376.4" y2="241.1" stroke="rgb(0,0,0)"  stroke-width="1.0"/>
<line x1="385.7" y1="242.5" x2="376.7" y2="203.8" stroke="rgb(0,0,0)"  stroke-width="1.0"/>
<line x1="376.7" y1="203.8" x2="339.0" y2="191.3" stroke="rgb(0,0,0)"  stroke-width="1.0"/>
<line x1="368.7" y1="208.8" x2="342.4" y2="200.1" stroke="rgb(0,0,0)"  stroke-width="1.0"/>
<line x1="339.0" y1="191.3" x2="310.0" y2="218.3" stroke="rgb(0,0,0)"  stroke-width="1.0"/>
<text x="100.665636" y="142.999015" fill="rgb(12,12,255)"  stroke="rgb(12,12,255)" stroke-width="1" font-size="16" >N</text>
<text x="93.998105" y="207.837003" fill="rgb(178,178,0)"  stroke="rgb(178,178,0)" stroke-width="1" font-size="16" >S</text>
<text x="233.827681" y="236.832783" fill="rgb(255,12,12)"  stroke="rgb(255,12,12)" stroke-width="1" font-size="16" >O</text>
<text x="150.162018" y="48.000000" fill="rgb(102,102,102)"  stroke="rgb(102,102,102)" stroke-width="1" font-size="16" >CH</text>
<text x="34.000000" y="169.001900" fill="rgb(255,12,12)"  stroke="rgb(255,12,12)" stroke-width="1" font-size="16" >O</text>
<text x="171.997093" y="138.502420" fill="rgb(255,12,12)"  stroke="rgb(255,12,12)" stroke-width="1" font-size="16" >O</text>
<text x="417.825416" y="263.333679" fill="rgb(30,239,30)"  stroke="rgb(30,239,30)" stroke-width="1" font-size="16" >Cl</text>
<text font-size="18.000000" fill ="black" font-family="sans-serif"
x="10.000000" y="20.000000" ></text>
<title> - OBDepict</title>
</svg>
