<?xml version="1.0"?>
<svg xmlns="http://www.w3.org/2000/svg"
xmlns:xlink="http://www.w3.org/1999/xlink" xmlns:cml="http://www.xml-cml.org/schema" width="516.081" height="525.766" x="0" y="0" font-family="sans-serif" stroke="rgb(0,0,0)" stroke-width="1"  stroke-linecap="round">
<rect x="0%" y="0%" width="100%" height="100%" stroke-width="0" fill="rgb(255,255,255)"  />
<line x1="326.1" y1="166.4" x2="302.4" y2="180.4" stroke="rgb(0,0,0)"  stroke-width="1.0"/>
<line x1="360.6" y1="146.4" x2="348.6" y2="153.3" stroke="rgb(0,0,0)"  stroke-width="1.0"/>
<line x1="188.7" y1="289.2" x2="165.4" y2="303.0" stroke="rgb(0,0,0)"  stroke-width="1.0"/>
<line x1="185.6" y1="284.1" x2="162.3" y2="297.8" stroke="rgb(0,0,0)"  stroke-width="1.0"/>
<line x1="198.3" y1="239.9" x2="198.3" y2="267.0" stroke="rgb(0,0,0)"  stroke-width="1.0"/>
<line x1="326.5" y1="135.1" x2="333.4" y2="147.1" stroke="rgb(0,0,0)"  stroke-width="1.0"/>
<line x1="321.3" y1="138.1" x2="328.2" y2="150.1" stroke="rgb(0,0,0)"  stroke-width="1.0"/>
<line x1="348.2" y1="185.1" x2="341.1" y2="172.6" stroke="rgb(0,0,0)"  stroke-width="1.0"/>
<line x1="353.5" y1="182.1" x2="346.3" y2="169.6" stroke="rgb(0,0,0)"  stroke-width="1.0"/>
<line x1="180.0" y1="406.9" x2="189.1" y2="367.8" stroke="rgb(0,0,0)"  stroke-width="1.0"/>
<line x1="174.0" y1="433.5" x2="180.0" y2="406.9" stroke="rgb(0,0,0)"  stroke-width="1.0"/>
<line x1="169.9" y1="432.6" x2="175.9" y2="406.0" stroke="rgb(0,0,0)"  stroke-width="1.0"/>
<line x1="178.1" y1="434.5" x2="184.1" y2="407.8" stroke="rgb(0,0,0)"  stroke-width="1.0"/>
<line x1="232.8" y1="219.9" x2="198.3" y2="239.9" stroke="rgb(0,0,0)"  stroke-width="1.0"/>
<line x1="176.1" y1="224.0" x2="199.8" y2="237.3" stroke="rgb(0,0,0)"  stroke-width="1.0"/>
<line x1="173.1" y1="229.3" x2="196.9" y2="242.5" stroke="rgb(0,0,0)"  stroke-width="1.0"/>
<line x1="189.1" y1="367.8" x2="168.5" y2="348.8" stroke="rgb(0,0,0)"  stroke-width="1.0"/>
<line x1="112.3" y1="405.7" x2="99.5" y2="381.7" stroke="rgb(0,0,0)"  stroke-width="1.0"/>
<line x1="406.5" y1="53.0" x2="406.5" y2="79.9" stroke="rgb(0,0,0)"  stroke-width="1.0"/>
<line x1="464.9" y1="153.8" x2="441.0" y2="139.8" stroke="rgb(0,0,0)"  stroke-width="1.0"/>
<line x1="97.9" y1="451.3" x2="111.7" y2="428.3" stroke="rgb(0,0,0)"  stroke-width="1.0"/>
<line x1="110.3" y1="474.3" x2="97.9" y2="451.3" stroke="rgb(0,0,0)"  stroke-width="1.0"/>
<line x1="163.8" y1="300.4" x2="139.9" y2="289.2" stroke="rgb(0,0,0)"  stroke-width="1.0"/>
<line x1="119.2" y1="293.0" x2="100.3" y2="312.7" stroke="rgb(0,0,0)"  stroke-width="1.0"/>
<line x1="100.3" y1="312.7" x2="120.1" y2="347.6" stroke="rgb(0,0,0)"  stroke-width="1.0"/>
<line x1="109.5" y1="314.4" x2="123.4" y2="338.8" stroke="rgb(0,0,0)"  stroke-width="1.0"/>
<line x1="120.1" y1="347.6" x2="146.2" y2="342.4" stroke="rgb(0,0,0)"  stroke-width="1.0"/>
<line x1="160.6" y1="327.0" x2="163.8" y2="300.4" stroke="rgb(0,0,0)"  stroke-width="1.0"/>
<line x1="232.8" y1="219.9" x2="267.9" y2="239.5" stroke="rgb(0,0,0)"  stroke-width="1.0"/>
<line x1="241.6" y1="216.6" x2="266.2" y2="230.3" stroke="rgb(0,0,0)"  stroke-width="1.0"/>
<line x1="267.9" y1="239.5" x2="302.4" y2="220.3" stroke="rgb(0,0,0)"  stroke-width="1.0"/>
<line x1="302.4" y1="220.3" x2="302.4" y2="180.4" stroke="rgb(0,0,0)"  stroke-width="1.0"/>
<line x1="295.2" y1="214.3" x2="295.2" y2="186.4" stroke="rgb(0,0,0)"  stroke-width="1.0"/>
<line x1="302.4" y1="180.4" x2="267.7" y2="160.0" stroke="rgb(0,0,0)"  stroke-width="1.0"/>
<line x1="267.7" y1="160.0" x2="233.2" y2="180.4" stroke="rgb(0,0,0)"  stroke-width="1.0"/>
<line x1="266.2" y1="169.3" x2="242.1" y2="183.5" stroke="rgb(0,0,0)"  stroke-width="1.0"/>
<line x1="233.2" y1="180.4" x2="232.8" y2="219.9" stroke="rgb(0,0,0)"  stroke-width="1.0"/>
<line x1="371.8" y1="126.8" x2="371.8" y2="99.9" stroke="rgb(0,0,0)"  stroke-width="1.0"/>
<line x1="371.8" y1="99.9" x2="406.5" y2="79.9" stroke="rgb(0,0,0)"  stroke-width="1.0"/>
<line x1="406.5" y1="79.9" x2="430.1" y2="93.4" stroke="rgb(0,0,0)"  stroke-width="1.0"/>
<line x1="441.3" y1="112.9" x2="441.0" y2="139.8" stroke="rgb(0,0,0)"  stroke-width="1.0"/>
<line x1="441.0" y1="139.8" x2="406.5" y2="160.0" stroke="rgb(0,0,0)"  stroke-width="1.0"/>
<line x1="406.5" y1="160.0" x2="383.0" y2="146.4" stroke="rgb(0,0,0)"  stroke-width="1.0"/>
<line x1="99.5" y1="381.7" x2="60.0" y2="381.1" stroke="rgb(0,0,0)"  stroke-width="1.0"/>
<line x1="93.6" y1="374.4" x2="66.1" y2="374.0" stroke="rgb(0,0,0)"  stroke-width="1.0"/>
<line x1="60.0" y1="381.1" x2="40.0" y2="346.0" stroke="rgb(0,0,0)"  stroke-width="1.0"/>
<line x1="40.0" y1="346.0" x2="61.2" y2="311.9" stroke="rgb(0,0,0)"  stroke-width="1.0"/>
<line x1="49.3" y1="344.7" x2="64.1" y2="320.8" stroke="rgb(0,0,0)"  stroke-width="1.0"/>
<line x1="61.2" y1="311.9" x2="100.3" y2="312.7" stroke="rgb(0,0,0)"  stroke-width="1.0"/>
<line x1="120.1" y1="347.6" x2="99.5" y2="381.7" stroke="rgb(0,0,0)"  stroke-width="1.0"/>
<text x="331.308414" y="167.810346" fill="rgb(178,178,0)"  stroke="rgb(178,178,0)" stroke-width="1" font-size="16" >S</text>
<text x="365.802653" y="147.843573" fill="rgb(12,12,255)"  stroke="rgb(12,12,255)" stroke-width="1" font-size="16" >N</text>
<text x="192.336758" y="288.028277" fill="rgb(12,12,255)"  stroke="rgb(12,12,255)" stroke-width="1" font-size="16" >N</text>
<text x="153.004882" y="347.933450" fill="rgb(12,12,255)"  stroke="rgb(12,12,255)" stroke-width="1" font-size="16" >N</text>
<text x="122.144936" y="291.662569" fill="rgb(178,178,0)"  stroke="rgb(178,178,0)" stroke-width="1" font-size="16" >S</text>
<text x="311.341640" y="133.320959" fill="rgb(255,12,12)"  stroke="rgb(255,12,12)" stroke-width="1" font-size="16" >O</text>
<text x="351.280039" y="202.906257" fill="rgb(255,12,12)"  stroke="rgb(255,12,12)" stroke-width="1" font-size="16" >O</text>
<text x="435.387951" y="107.905173" fill="rgb(255,12,12)"  stroke="rgb(255,12,12)" stroke-width="1" font-size="16" >O</text>
<text x="153.111103" y="454.230439" fill="rgb(102,102,102)"  stroke="rgb(102,102,102)" stroke-width="1" font-size="16" >HC</text>
<text x="157.240847" y="228.322044" fill="rgb(255,12,12)"  stroke="rgb(255,12,12)" stroke-width="1" font-size="16" >O</text>
<text x="112.464811" y="425.185213" fill="rgb(255,12,12)"  stroke="rgb(255,12,12)" stroke-width="1" font-size="16" >O</text>
<text x="402.495832" y="48.000000" fill="rgb(102,102,102)"  stroke="rgb(102,102,102)" stroke-width="1" font-size="16" >CH</text>
<text x="426.495832" y="51.680000" fill="rgb(102,102,102)"  stroke="rgb(102,102,102)" stroke-width="1" font-size="13" >3</text>
<text x="472.081130" y="168.416870" fill="rgb(102,102,102)"  stroke="rgb(102,102,102)" stroke-width="1" font-size="16" >CH</text>
<text x="496.081130" y="172.096870" fill="rgb(102,102,102)"  stroke="rgb(102,102,102)" stroke-width="1" font-size="13" >3</text>
<text x="112.446299" y="493.766107" fill="rgb(102,102,102)"  stroke="rgb(102,102,102)" stroke-width="1" font-size="16" >CH</text>
<text x="136.446299" y="497.446107" fill="rgb(102,102,102)"  stroke="rgb(102,102,102)" stroke-width="1" font-size="13" >3</text>
<text font-size="18.000000" fill ="black" font-family="sans-serif"
x="10.000000" y="20.000000" ></text>
<title> - OBDepict</title>
</svg>
