<?xml version="1.0"?>
<svg xmlns="http://www.w3.org/2000/svg"
xmlns:xlink="http://www.w3.org/1999/xlink" xmlns:cml="http://www.xml-cml.org/schema" width="527.024" height="226.181" x="0" y="0" font-family="sans-serif" stroke="rgb(0,0,0)" stroke-width="1"  stroke-linecap="round">
<rect x="0%" y="0%" width="100%" height="100%" stroke-width="0" fill="rgb(255,255,255)"  />
<line x1="168.5" y1="117.1" x2="207.4" y2="116.8" stroke="rgb(0,0,0)"  stroke-width="1.0"/>
<line x1="210.0" y1="115.3" x2="229.5" y2="149.7" stroke="rgb(0,0,0)"  stroke-width="1.0"/>
<line x1="204.7" y1="118.3" x2="224.3" y2="152.7" stroke="rgb(0,0,0)"  stroke-width="1.0"/>
<line x1="207.4" y1="116.8" x2="229.4" y2="78.7" stroke="rgb(0,0,0)"  stroke-width="1.0"/>
<line x1="226.9" y1="151.2" x2="266.8" y2="151.2" stroke="rgb(0,0,0)"  stroke-width="1.0"/>
<line x1="229.4" y1="78.7" x2="245.4" y2="51.2" stroke="rgb(0,0,0)"  stroke-width="1.0"/>
<line x1="225.8" y1="76.6" x2="241.7" y2="49.1" stroke="rgb(0,0,0)"  stroke-width="1.0"/>
<line x1="233.1" y1="80.8" x2="249.0" y2="53.4" stroke="rgb(0,0,0)"  stroke-width="1.0"/>
<line x1="326.8" y1="116.8" x2="340.8" y2="93.2" stroke="rgb(0,0,0)"  stroke-width="1.0"/>
<line x1="346.9" y1="151.4" x2="374.1" y2="151.4" stroke="rgb(0,0,0)"  stroke-width="1.0"/>
<line x1="360.5" y1="82.0" x2="374.4" y2="82.0" stroke="rgb(0,0,0)"  stroke-width="1.0"/>
<line x1="393.5" y1="162.7" x2="406.9" y2="186.2" stroke="rgb(0,0,0)"  stroke-width="1.0"/>
<line x1="406.9" y1="186.2" x2="447.1" y2="186.2" stroke="rgb(0,0,0)"  stroke-width="1.0"/>
<line x1="447.1" y1="186.2" x2="474.0" y2="186.2" stroke="rgb(0,0,0)"  stroke-width="1.0"/>
<line x1="447.1" y1="182.0" x2="474.0" y2="182.0" stroke="rgb(0,0,0)"  stroke-width="1.0"/>
<line x1="447.1" y1="190.4" x2="474.0" y2="190.4" stroke="rgb(0,0,0)"  stroke-width="1.0"/>
<line x1="168.5" y1="117.1" x2="153.1" y2="96.3" stroke="rgb(0,0,0)"  stroke-width="1.0"/>
<line x1="132.9" y1="89.8" x2="107.9" y2="97.8" stroke="rgb(0,0,0)"  stroke-width="1.0"/>
<line x1="107.9" y1="97.8" x2="107.9" y2="136.7" stroke="rgb(0,0,0)"  stroke-width="1.0"/>
<line x1="115.1" y1="103.8" x2="115.1" y2="130.7" stroke="rgb(0,0,0)"  stroke-width="1.0"/>
<line x1="107.9" y1="136.7" x2="132.9" y2="144.8" stroke="rgb(0,0,0)"  stroke-width="1.0"/>
<line x1="153.0" y1="138.4" x2="168.5" y2="117.1" stroke="rgb(0,0,0)"  stroke-width="1.0"/>
<line x1="148.4" y1="132.4" x2="159.2" y2="117.7" stroke="rgb(0,0,0)"  stroke-width="1.0"/>
<line x1="73.9" y1="77.9" x2="107.9" y2="97.8" stroke="rgb(0,0,0)"  stroke-width="1.0"/>
<line x1="107.9" y1="136.7" x2="73.9" y2="156.5" stroke="rgb(0,0,0)"  stroke-width="1.0"/>
<line x1="73.9" y1="156.5" x2="40.0" y2="136.7" stroke="rgb(0,0,0)"  stroke-width="1.0"/>
<line x1="72.4" y1="147.3" x2="48.8" y2="133.5" stroke="rgb(0,0,0)"  stroke-width="1.0"/>
<line x1="40.0" y1="136.7" x2="40.0" y2="97.8" stroke="rgb(0,0,0)"  stroke-width="1.0"/>
<line x1="40.0" y1="97.8" x2="73.9" y2="77.9" stroke="rgb(0,0,0)"  stroke-width="1.0"/>
<line x1="48.8" y1="101.0" x2="72.4" y2="87.2" stroke="rgb(0,0,0)"  stroke-width="1.0"/>
<line x1="266.8" y1="151.2" x2="286.9" y2="185.8" stroke="rgb(0,0,0)"  stroke-width="1.0"/>
<line x1="286.9" y1="185.8" x2="326.8" y2="186.2" stroke="rgb(0,0,0)"  stroke-width="1.0"/>
<line x1="293.0" y1="178.7" x2="320.9" y2="178.9" stroke="rgb(0,0,0)"  stroke-width="1.0"/>
<line x1="326.8" y1="186.2" x2="346.9" y2="151.4" stroke="rgb(0,0,0)"  stroke-width="1.0"/>
<line x1="346.9" y1="151.4" x2="326.8" y2="116.8" stroke="rgb(0,0,0)"  stroke-width="1.0"/>
<line x1="337.7" y1="149.8" x2="323.6" y2="125.6" stroke="rgb(0,0,0)"  stroke-width="1.0"/>
<line x1="326.8" y1="116.8" x2="286.9" y2="116.4" stroke="rgb(0,0,0)"  stroke-width="1.0"/>
<line x1="286.9" y1="116.4" x2="266.8" y2="151.2" stroke="rgb(0,0,0)"  stroke-width="1.0"/>
<line x1="290.1" y1="125.2" x2="276.1" y2="149.6" stroke="rgb(0,0,0)"  stroke-width="1.0"/>
<text x="139.312659" y="93.842437" fill="rgb(12,12,255)"  stroke="rgb(12,12,255)" stroke-width="1" font-size="16" >N</text>
<text x="139.312659" y="77.842437" fill="rgb(12,12,255)"  stroke="rgb(12,12,255)" stroke-width="1" font-size="16" >H</text>
<text x="139.312659" y="156.809198" fill="rgb(12,12,255)"  stroke="rgb(12,12,255)" stroke-width="1" font-size="16" >N</text>
<text x="245.908673" y="48.000000" fill="rgb(12,12,255)"  stroke="rgb(12,12,255)" stroke-width="1" font-size="16" >N</text>
<text x="341.467828" y="89.977841" fill="rgb(255,12,12)"  stroke="rgb(255,12,12)" stroke-width="1" font-size="16" >O</text>
<text x="381.053300" y="159.385595" fill="rgb(255,12,12)"  stroke="rgb(255,12,12)" stroke-width="1" font-size="16" >O</text>
<text x="383.421357" y="89.977841" fill="rgb(102,102,102)"  stroke="rgb(102,102,102)" stroke-width="1" font-size="16" >CH</text>
<text x="407.421357" y="93.657841" fill="rgb(102,102,102)"  stroke="rgb(102,102,102)" stroke-width="1" font-size="13" >3</text>
<text x="481.024293" y="194.181486" fill="rgb(102,102,102)"  stroke="rgb(102,102,102)" stroke-width="1" font-size="16" >CH</text>
<text font-size="18.000000" fill ="black" font-family="sans-serif"
x="10.000000" y="20.000000" ></text>
<title> - OBDepict</title>
</svg>
