<?xml version="1.0"?>
<svg xmlns="http://www.w3.org/2000/svg"
xmlns:xlink="http://www.w3.org/1999/xlink" xmlns:cml="http://www.xml-cml.org/schema" width="300.309" height="149.265" x="0" y="0" font-family="sans-serif" stroke="rgb(0,0,0)" stroke-width="1"  stroke-linecap="round">
<rect x="0%" y="0%" width="100%" height="100%" stroke-width="0" fill="rgb(255,255,255)"  />
<line x1="247.3" y1="40.0" x2="220.3" y2="40.0" stroke="rgb(0,0,0)"  stroke-width="1.0"/>
<line x1="247.3" y1="44.2" x2="220.3" y2="44.2" stroke="rgb(0,0,0)"  stroke-width="1.0"/>
<line x1="247.3" y1="35.8" x2="220.3" y2="35.8" stroke="rgb(0,0,0)"  stroke-width="1.0"/>
<line x1="166.5" y1="63.1" x2="179.9" y2="40.0" stroke="rgb(0,0,0)"  stroke-width="1.0"/>
<line x1="179.9" y1="40.0" x2="220.3" y2="40.0" stroke="rgb(0,0,0)"  stroke-width="1.0"/>
<line x1="120.4" y1="74.3" x2="146.9" y2="74.3" stroke="rgb(0,0,0)"  stroke-width="1.0"/>
<line x1="120.4" y1="74.3" x2="100.0" y2="109.3" stroke="rgb(0,0,0)"  stroke-width="1.0"/>
<line x1="100.0" y1="109.3" x2="60.0" y2="109.3" stroke="rgb(0,0,0)"  stroke-width="1.0"/>
<line x1="60.0" y1="109.3" x2="40.0" y2="74.1" stroke="rgb(0,0,0)"  stroke-width="1.0"/>
<line x1="40.0" y1="74.1" x2="60.0" y2="40.0" stroke="rgb(0,0,0)"  stroke-width="1.0"/>
<line x1="60.0" y1="40.0" x2="100.0" y2="40.0" stroke="rgb(0,0,0)"  stroke-width="1.0"/>
<line x1="100.0" y1="40.0" x2="120.4" y2="74.3" stroke="rgb(0,0,0)"  stroke-width="1.0"/>
<text x="254.308562" y="48.000000" fill="rgb(102,102,102)"  stroke="rgb(102,102,102)" stroke-width="1" font-size="16" >CH</text>
<text x="153.948896" y="82.327193" fill="rgb(12,12,255)"  stroke="rgb(12,12,255)" stroke-width="1" font-size="16" >N</text>
<text x="153.948896" y="98.327193" fill="rgb(12,12,255)"  stroke="rgb(12,12,255)" stroke-width="1" font-size="16" >H</text>
<text font-size="18.000000" fill ="black" font-family="sans-serif"
x="10.000000" y="20.000000" ></text>
<title> - OBDepict</title>
</svg>
