<?xml version="1.0"?>
<svg xmlns="http://www.w3.org/2000/svg"
xmlns:xlink="http://www.w3.org/1999/xlink" xmlns:cml="http://www.xml-cml.org/schema" width="362.422" height="392.135" x="0" y="0" font-family="sans-serif" stroke="rgb(0,0,0)" stroke-width="1"  stroke-linecap="round">
<rect x="0%" y="0%" width="100%" height="100%" stroke-width="0" fill="rgb(255,255,255)"  />
<line x1="181.7" y1="213.1" x2="202.7" y2="178.0" stroke="rgb(0,0,0)"  stroke-width="1.0"/>
<line x1="202.7" y1="178.0" x2="230.3" y2="178.0" stroke="rgb(0,0,0)"  stroke-width="1.0"/>
<line x1="200.1" y1="179.5" x2="186.3" y2="155.5" stroke="rgb(0,0,0)"  stroke-width="1.0"/>
<line x1="205.3" y1="176.5" x2="191.4" y2="152.5" stroke="rgb(0,0,0)"  stroke-width="1.0"/>
<line x1="121.7" y1="247.4" x2="81.2" y2="247.4" stroke="rgb(0,0,0)"  stroke-width="1.0"/>
<line x1="249.5" y1="189.4" x2="262.4" y2="213.1" stroke="rgb(0,0,0)"  stroke-width="1.0"/>
<line x1="81.2" y1="247.4" x2="68.4" y2="224.5" stroke="rgb(0,0,0)"  stroke-width="1.0"/>
<line x1="83.9" y1="248.8" x2="70.9" y2="271.9" stroke="rgb(0,0,0)"  stroke-width="1.0"/>
<line x1="78.6" y1="245.9" x2="65.7" y2="269.0" stroke="rgb(0,0,0)"  stroke-width="1.0"/>
<line x1="68.3" y1="201.8" x2="81.2" y2="178.7" stroke="rgb(0,0,0)"  stroke-width="1.0"/>
<line x1="262.4" y1="281.8" x2="242.2" y2="317.0" stroke="rgb(0,0,0)"  stroke-width="1.0"/>
<line x1="242.2" y1="317.0" x2="228.0" y2="341.0" stroke="rgb(0,0,0)"  stroke-width="1.0"/>
<line x1="245.8" y1="319.1" x2="231.6" y2="343.1" stroke="rgb(0,0,0)"  stroke-width="1.0"/>
<line x1="238.6" y1="314.8" x2="224.3" y2="338.8" stroke="rgb(0,0,0)"  stroke-width="1.0"/>
<line x1="81.2" y1="110.0" x2="60.9" y2="75.2" stroke="rgb(0,0,0)"  stroke-width="1.0"/>
<line x1="60.9" y1="75.2" x2="46.6" y2="51.2" stroke="rgb(0,0,0)"  stroke-width="1.0"/>
<line x1="57.3" y1="77.3" x2="43.0" y2="53.3" stroke="rgb(0,0,0)"  stroke-width="1.0"/>
<line x1="64.5" y1="73.0" x2="50.3" y2="49.0" stroke="rgb(0,0,0)"  stroke-width="1.0"/>
<line x1="181.7" y1="213.1" x2="201.6" y2="247.4" stroke="rgb(0,0,0)"  stroke-width="1.0"/>
<line x1="178.5" y1="221.9" x2="192.4" y2="245.8" stroke="rgb(0,0,0)"  stroke-width="1.0"/>
<line x1="201.6" y1="247.4" x2="181.7" y2="281.8" stroke="rgb(0,0,0)"  stroke-width="1.0"/>
<line x1="181.7" y1="281.8" x2="141.1" y2="281.8" stroke="rgb(0,0,0)"  stroke-width="1.0"/>
<line x1="175.7" y1="274.6" x2="147.1" y2="274.6" stroke="rgb(0,0,0)"  stroke-width="1.0"/>
<line x1="141.1" y1="281.8" x2="121.7" y2="247.4" stroke="rgb(0,0,0)"  stroke-width="1.0"/>
<line x1="121.7" y1="247.4" x2="141.1" y2="213.1" stroke="rgb(0,0,0)"  stroke-width="1.0"/>
<line x1="130.9" y1="245.7" x2="144.4" y2="221.9" stroke="rgb(0,0,0)"  stroke-width="1.0"/>
<line x1="141.1" y1="213.1" x2="181.7" y2="213.1" stroke="rgb(0,0,0)"  stroke-width="1.0"/>
<line x1="262.4" y1="213.1" x2="302.7" y2="213.1" stroke="rgb(0,0,0)"  stroke-width="1.0"/>
<line x1="302.7" y1="213.1" x2="322.4" y2="247.4" stroke="rgb(0,0,0)"  stroke-width="1.0"/>
<line x1="299.5" y1="221.9" x2="313.2" y2="245.8" stroke="rgb(0,0,0)"  stroke-width="1.0"/>
<line x1="322.4" y1="247.4" x2="302.7" y2="281.8" stroke="rgb(0,0,0)"  stroke-width="1.0"/>
<line x1="302.7" y1="281.8" x2="262.4" y2="281.8" stroke="rgb(0,0,0)"  stroke-width="1.0"/>
<line x1="296.7" y1="274.6" x2="268.4" y2="274.6" stroke="rgb(0,0,0)"  stroke-width="1.0"/>
<line x1="262.4" y1="281.8" x2="243.3" y2="247.4" stroke="rgb(0,0,0)"  stroke-width="1.0"/>
<line x1="243.3" y1="247.4" x2="262.4" y2="213.1" stroke="rgb(0,0,0)"  stroke-width="1.0"/>
<line x1="252.5" y1="245.6" x2="265.8" y2="221.9" stroke="rgb(0,0,0)"  stroke-width="1.0"/>
<line x1="81.2" y1="178.7" x2="121.7" y2="178.7" stroke="rgb(0,0,0)"  stroke-width="1.0"/>
<line x1="87.2" y1="171.5" x2="115.7" y2="171.5" stroke="rgb(0,0,0)"  stroke-width="1.0"/>
<line x1="121.7" y1="178.7" x2="141.1" y2="144.6" stroke="rgb(0,0,0)"  stroke-width="1.0"/>
<line x1="141.1" y1="144.6" x2="121.7" y2="110.0" stroke="rgb(0,0,0)"  stroke-width="1.0"/>
<line x1="131.9" y1="142.9" x2="118.4" y2="118.8" stroke="rgb(0,0,0)"  stroke-width="1.0"/>
<line x1="121.7" y1="110.0" x2="81.2" y2="110.0" stroke="rgb(0,0,0)"  stroke-width="1.0"/>
<line x1="81.2" y1="110.0" x2="62.0" y2="144.6" stroke="rgb(0,0,0)"  stroke-width="1.0"/>
<line x1="84.6" y1="118.8" x2="71.2" y2="142.9" stroke="rgb(0,0,0)"  stroke-width="1.0"/>
<line x1="62.0" y1="144.6" x2="81.2" y2="178.7" stroke="rgb(0,0,0)"  stroke-width="1.0"/>
<text x="237.288432" y="185.950555" fill="rgb(12,12,255)"  stroke="rgb(12,12,255)" stroke-width="1" font-size="16" >N</text>
<text x="237.288432" y="169.950555" fill="rgb(12,12,255)"  stroke="rgb(12,12,255)" stroke-width="1" font-size="16" >H</text>
<text x="176.349273" y="150.780149" fill="rgb(255,12,12)"  stroke="rgb(255,12,12)" stroke-width="1" font-size="16" >O</text>
<text x="43.983921" y="221.120962" fill="rgb(12,12,255)"  stroke="rgb(12,12,255)" stroke-width="1" font-size="16" >HN</text>
<text x="55.983921" y="289.794130" fill="rgb(255,12,12)"  stroke="rgb(255,12,12)" stroke-width="1" font-size="16" >O</text>
<text x="203.309345" y="360.134944" fill="rgb(102,102,102)"  stroke="rgb(102,102,102)" stroke-width="1" font-size="16" >HC</text>
<text x="22.000000" y="48.000000" fill="rgb(102,102,102)"  stroke="rgb(102,102,102)" stroke-width="1" font-size="16" >HC</text>
<text font-size="18.000000" fill ="black" font-family="sans-serif"
x="10.000000" y="20.000000" ></text>
<title> - OBDepict</title>
</svg>
