<?xml version="1.0"?>
<svg xmlns="http://www.w3.org/2000/svg"
xmlns:xlink="http://www.w3.org/1999/xlink" xmlns:cml="http://www.xml-cml.org/schema" width="580.601" height="360.088" x="0" y="0" font-family="sans-serif" stroke="rgb(0,0,0)" stroke-width="1"  stroke-linecap="round">
<rect x="0%" y="0%" width="100%" height="100%" stroke-width="0" fill="rgb(255,255,255)"  />
<line x1="283.3" y1="179.2" x2="303.1" y2="213.9" stroke="rgb(0,0,0)"  stroke-width="1.0"/>
<line x1="278.1" y1="182.2" x2="297.9" y2="216.9" stroke="rgb(0,0,0)"  stroke-width="1.0"/>
<line x1="400.1" y1="251.2" x2="373.1" y2="250.9" stroke="rgb(0,0,0)"  stroke-width="1.0"/>
<line x1="240.7" y1="180.0" x2="280.7" y2="180.7" stroke="rgb(0,0,0)"  stroke-width="1.0"/>
<line x1="520.2" y1="252.7" x2="480.1" y2="252.1" stroke="rgb(0,0,0)"  stroke-width="1.0"/>
<line x1="60.4" y1="212.1" x2="100.5" y2="212.7" stroke="rgb(0,0,0)"  stroke-width="1.0"/>
<line x1="350.2" y1="310.3" x2="336.8" y2="286.7" stroke="rgb(0,0,0)"  stroke-width="1.0"/>
<line x1="355.4" y1="307.3" x2="342.0" y2="283.7" stroke="rgb(0,0,0)"  stroke-width="1.0"/>
<line x1="46.7" y1="234.9" x2="60.4" y2="212.1" stroke="rgb(0,0,0)"  stroke-width="1.0"/>
<line x1="43.1" y1="232.8" x2="56.8" y2="209.9" stroke="rgb(0,0,0)"  stroke-width="1.0"/>
<line x1="50.3" y1="237.1" x2="64.0" y2="214.2" stroke="rgb(0,0,0)"  stroke-width="1.0"/>
<line x1="356.7" y1="194.1" x2="342.7" y2="217.6" stroke="rgb(0,0,0)"  stroke-width="1.0"/>
<line x1="351.5" y1="191.0" x2="337.5" y2="214.5" stroke="rgb(0,0,0)"  stroke-width="1.0"/>
<line x1="253.1" y1="246.5" x2="280.1" y2="246.8" stroke="rgb(0,0,0)"  stroke-width="1.0"/>
<line x1="253.0" y1="252.5" x2="280.0" y2="252.8" stroke="rgb(0,0,0)"  stroke-width="1.0"/>
<line x1="530.5" y1="277.5" x2="517.5" y2="254.2" stroke="rgb(0,0,0)"  stroke-width="1.0"/>
<line x1="535.8" y1="274.6" x2="522.8" y2="251.3" stroke="rgb(0,0,0)"  stroke-width="1.0"/>
<line x1="166.7" y1="236.9" x2="180.5" y2="213.8" stroke="rgb(0,0,0)"  stroke-width="1.0"/>
<line x1="134.1" y1="178.3" x2="161.1" y2="178.7" stroke="rgb(0,0,0)"  stroke-width="1.0"/>
<line x1="534.0" y1="229.3" x2="520.2" y2="252.7" stroke="rgb(0,0,0)"  stroke-width="1.0"/>
<line x1="168.3" y1="120.7" x2="181.4" y2="144.5" stroke="rgb(0,0,0)"  stroke-width="1.0"/>
<line x1="100.5" y1="212.7" x2="114.5" y2="189.2" stroke="rgb(0,0,0)"  stroke-width="1.0"/>
<line x1="182.5" y1="75.3" x2="168.7" y2="98.2" stroke="rgb(0,0,0)"  stroke-width="1.0"/>
<line x1="169.4" y1="51.4" x2="182.5" y2="75.3" stroke="rgb(0,0,0)"  stroke-width="1.0"/>
<line x1="353.6" y1="239.5" x2="340.1" y2="216.1" stroke="rgb(0,0,0)"  stroke-width="1.0"/>
<line x1="340.1" y1="216.1" x2="300.5" y2="215.4" stroke="rgb(0,0,0)"  stroke-width="1.0"/>
<line x1="300.5" y1="215.4" x2="280.1" y2="249.8" stroke="rgb(0,0,0)"  stroke-width="1.0"/>
<line x1="280.1" y1="249.8" x2="293.1" y2="273.4" stroke="rgb(0,0,0)"  stroke-width="1.0"/>
<line x1="312.4" y1="284.9" x2="339.4" y2="285.2" stroke="rgb(0,0,0)"  stroke-width="1.0"/>
<line x1="339.4" y1="285.2" x2="353.4" y2="261.9" stroke="rgb(0,0,0)"  stroke-width="1.0"/>
<line x1="180.5" y1="213.8" x2="161.1" y2="178.7" stroke="rgb(0,0,0)"  stroke-width="1.0"/>
<line x1="183.9" y1="205.1" x2="170.3" y2="180.5" stroke="rgb(0,0,0)"  stroke-width="1.0"/>
<line x1="161.1" y1="178.7" x2="181.4" y2="144.5" stroke="rgb(0,0,0)"  stroke-width="1.0"/>
<line x1="181.4" y1="144.5" x2="221.4" y2="145.1" stroke="rgb(0,0,0)"  stroke-width="1.0"/>
<line x1="187.3" y1="151.8" x2="215.3" y2="152.2" stroke="rgb(0,0,0)"  stroke-width="1.0"/>
<line x1="221.4" y1="145.1" x2="240.7" y2="180.0" stroke="rgb(0,0,0)"  stroke-width="1.0"/>
<line x1="240.7" y1="180.0" x2="220.5" y2="214.5" stroke="rgb(0,0,0)"  stroke-width="1.0"/>
<line x1="231.5" y1="181.6" x2="217.3" y2="205.7" stroke="rgb(0,0,0)"  stroke-width="1.0"/>
<line x1="220.5" y1="214.5" x2="180.5" y2="213.8" stroke="rgb(0,0,0)"  stroke-width="1.0"/>
<line x1="400.1" y1="251.2" x2="420.6" y2="216.7" stroke="rgb(0,0,0)"  stroke-width="1.0"/>
<line x1="409.4" y1="249.7" x2="423.7" y2="225.6" stroke="rgb(0,0,0)"  stroke-width="1.0"/>
<line x1="420.6" y1="216.7" x2="460.6" y2="217.4" stroke="rgb(0,0,0)"  stroke-width="1.0"/>
<line x1="460.6" y1="217.4" x2="480.1" y2="252.1" stroke="rgb(0,0,0)"  stroke-width="1.0"/>
<line x1="457.3" y1="226.2" x2="470.9" y2="250.4" stroke="rgb(0,0,0)"  stroke-width="1.0"/>
<line x1="480.1" y1="252.1" x2="459.5" y2="286.5" stroke="rgb(0,0,0)"  stroke-width="1.0"/>
<line x1="459.5" y1="286.5" x2="419.4" y2="286.1" stroke="rgb(0,0,0)"  stroke-width="1.0"/>
<line x1="453.5" y1="279.3" x2="425.5" y2="278.9" stroke="rgb(0,0,0)"  stroke-width="1.0"/>
<line x1="419.4" y1="286.1" x2="400.1" y2="251.2" stroke="rgb(0,0,0)"  stroke-width="1.0"/>
<text x="354.101651" y="258.733223" fill="rgb(12,12,255)"  stroke="rgb(12,12,255)" stroke-width="1" font-size="16" >N</text>
<text x="293.414712" y="292.746236" fill="rgb(12,12,255)"  stroke="rgb(12,12,255)" stroke-width="1" font-size="16" >N</text>
<text x="293.414712" y="308.746236" fill="rgb(12,12,255)"  stroke="rgb(12,12,255)" stroke-width="1" font-size="16" >H</text>
<text x="353.209124" y="328.088338" fill="rgb(255,12,12)"  stroke="rgb(255,12,12)" stroke-width="1" font-size="16" >O</text>
<text x="22.000000" y="254.066863" fill="rgb(102,102,102)"  stroke="rgb(102,102,102)" stroke-width="1" font-size="16" >HC</text>
<text x="354.766195" y="189.378108" fill="rgb(255,12,12)"  stroke="rgb(255,12,12)" stroke-width="1" font-size="16" >O</text>
<text x="234.061713" y="257.399284" fill="rgb(255,12,12)"  stroke="rgb(255,12,12)" stroke-width="1" font-size="16" >O</text>
<text x="533.489738" y="295.414114" fill="rgb(255,12,12)"  stroke="rgb(255,12,12)" stroke-width="1" font-size="16" >O</text>
<text x="142.035087" y="256.065345" fill="rgb(30,239,30)"  stroke="rgb(30,239,30)" stroke-width="1" font-size="16" >Cl</text>
<text x="115.132582" y="186.045686" fill="rgb(255,12,12)"  stroke="rgb(255,12,12)" stroke-width="1" font-size="16" >O</text>
<text x="534.600545" y="226.058999" fill="rgb(255,12,12)"  stroke="rgb(255,12,12)" stroke-width="1" font-size="16" >OH</text>
<text x="156.038421" y="117.355115" fill="rgb(255,12,12)"  stroke="rgb(255,12,12)" stroke-width="1" font-size="16" >O</text>
<text x="137.149228" y="48.000000" fill="rgb(102,102,102)"  stroke="rgb(102,102,102)" stroke-width="1" font-size="16" >H</text>
<text x="149.149228" y="51.680000" fill="rgb(102,102,102)"  stroke="rgb(102,102,102)" stroke-width="1" font-size="13" >3</text>
<text x="155.649228" y="48.000000" fill="rgb(102,102,102)"  stroke="rgb(102,102,102)" stroke-width="1" font-size="16" >C</text>
<text font-size="18.000000" fill ="black" font-family="sans-serif"
x="10.000000" y="20.000000" ></text>
<title> - OBDepict</title>
</svg>
