<?xml version="1.0"?>
<svg xmlns="http://www.w3.org/2000/svg"
xmlns:xlink="http://www.w3.org/1999/xlink" xmlns:cml="http://www.xml-cml.org/schema" width="488.769" height="251.14" x="0" y="0" font-family="sans-serif" stroke="rgb(0,0,0)" stroke-width="1"  stroke-linecap="round">
<rect x="0%" y="0%" width="100%" height="100%" stroke-width="0" fill="rgb(255,255,255)"  />
<line x1="179.3" y1="114.9" x2="209.5" y2="88.1" stroke="rgb(0,0,0)"  stroke-width="1.0"/>
<line x1="183.3" y1="119.4" x2="213.5" y2="92.6" stroke="rgb(0,0,0)"  stroke-width="1.0"/>
<line x1="211.5" y1="90.3" x2="249.3" y2="103.2" stroke="rgb(0,0,0)"  stroke-width="1.0"/>
<line x1="352.3" y1="92.0" x2="326.6" y2="99.9" stroke="rgb(0,0,0)"  stroke-width="1.0"/>
<line x1="381.4" y1="119.3" x2="352.3" y2="92.0" stroke="rgb(0,0,0)"  stroke-width="1.0"/>
<line x1="60.0" y1="171.6" x2="80.0" y2="137.2" stroke="rgb(0,0,0)"  stroke-width="1.0"/>
<line x1="46.4" y1="195.4" x2="60.0" y2="171.6" stroke="rgb(0,0,0)"  stroke-width="1.0"/>
<line x1="42.8" y1="193.3" x2="56.4" y2="169.6" stroke="rgb(0,0,0)"  stroke-width="1.0"/>
<line x1="50.1" y1="197.4" x2="63.6" y2="173.7" stroke="rgb(0,0,0)"  stroke-width="1.0"/>
<line x1="131.7" y1="193.5" x2="140.3" y2="168.0" stroke="rgb(0,0,0)"  stroke-width="1.0"/>
<line x1="137.3" y1="195.5" x2="146.0" y2="169.9" stroke="rgb(0,0,0)"  stroke-width="1.0"/>
<line x1="138.1" y1="77.6" x2="146.5" y2="103.9" stroke="rgb(0,0,0)"  stroke-width="1.0"/>
<line x1="132.4" y1="79.5" x2="140.8" y2="105.7" stroke="rgb(0,0,0)"  stroke-width="1.0"/>
<line x1="80.0" y1="137.2" x2="107.0" y2="136.9" stroke="rgb(0,0,0)"  stroke-width="1.0"/>
<line x1="281.9" y1="53.0" x2="281.8" y2="80.2" stroke="rgb(0,0,0)"  stroke-width="1.0"/>
<line x1="426.0" y1="81.0" x2="419.6" y2="107.3" stroke="rgb(0,0,0)"  stroke-width="1.0"/>
<line x1="281.8" y1="80.2" x2="249.3" y2="103.2" stroke="rgb(0,0,0)"  stroke-width="1.0"/>
<line x1="281.1" y1="89.5" x2="258.4" y2="105.6" stroke="rgb(0,0,0)"  stroke-width="1.0"/>
<line x1="249.3" y1="103.2" x2="261.3" y2="141.3" stroke="rgb(0,0,0)"  stroke-width="1.0"/>
<line x1="261.3" y1="141.3" x2="301.5" y2="142.0" stroke="rgb(0,0,0)"  stroke-width="1.0"/>
<line x1="301.5" y1="142.0" x2="310.0" y2="116.0" stroke="rgb(0,0,0)"  stroke-width="1.0"/>
<line x1="303.6" y1="96.0" x2="281.8" y2="80.2" stroke="rgb(0,0,0)"  stroke-width="1.0"/>
<line x1="181.3" y1="117.2" x2="143.7" y2="104.8" stroke="rgb(0,0,0)"  stroke-width="1.0"/>
<line x1="143.7" y1="104.8" x2="127.7" y2="126.4" stroke="rgb(0,0,0)"  stroke-width="1.0"/>
<line x1="127.6" y1="147.4" x2="143.2" y2="169.0" stroke="rgb(0,0,0)"  stroke-width="1.0"/>
<line x1="143.2" y1="169.0" x2="168.9" y2="161.0" stroke="rgb(0,0,0)"  stroke-width="1.0"/>
<line x1="181.3" y1="144.1" x2="181.3" y2="117.2" stroke="rgb(0,0,0)"  stroke-width="1.0"/>
<line x1="261.3" y1="141.3" x2="240.8" y2="176.0" stroke="rgb(0,0,0)"  stroke-width="1.0"/>
<line x1="264.4" y1="150.1" x2="250.1" y2="174.5" stroke="rgb(0,0,0)"  stroke-width="1.0"/>
<line x1="240.8" y1="176.0" x2="260.6" y2="210.8" stroke="rgb(0,0,0)"  stroke-width="1.0"/>
<line x1="260.6" y1="210.8" x2="300.6" y2="211.1" stroke="rgb(0,0,0)"  stroke-width="1.0"/>
<line x1="266.7" y1="203.7" x2="294.7" y2="203.9" stroke="rgb(0,0,0)"  stroke-width="1.0"/>
<line x1="300.6" y1="211.1" x2="320.8" y2="176.5" stroke="rgb(0,0,0)"  stroke-width="1.0"/>
<line x1="320.8" y1="176.5" x2="301.5" y2="142.0" stroke="rgb(0,0,0)"  stroke-width="1.0"/>
<line x1="311.6" y1="174.8" x2="298.1" y2="150.7" stroke="rgb(0,0,0)"  stroke-width="1.0"/>
<line x1="381.4" y1="119.3" x2="419.6" y2="107.3" stroke="rgb(0,0,0)"  stroke-width="1.0"/>
<line x1="419.6" y1="107.3" x2="448.8" y2="134.7" stroke="rgb(0,0,0)"  stroke-width="1.0"/>
<line x1="419.1" y1="116.7" x2="439.5" y2="135.8" stroke="rgb(0,0,0)"  stroke-width="1.0"/>
<line x1="448.8" y1="134.7" x2="439.6" y2="173.3" stroke="rgb(0,0,0)"  stroke-width="1.0"/>
<line x1="439.6" y1="173.3" x2="401.8" y2="185.5" stroke="rgb(0,0,0)"  stroke-width="1.0"/>
<line x1="431.7" y1="168.3" x2="405.3" y2="176.8" stroke="rgb(0,0,0)"  stroke-width="1.0"/>
<line x1="401.8" y1="185.5" x2="372.3" y2="158.1" stroke="rgb(0,0,0)"  stroke-width="1.0"/>
<line x1="372.3" y1="158.1" x2="381.4" y2="119.3" stroke="rgb(0,0,0)"  stroke-width="1.0"/>
<line x1="380.7" y1="154.0" x2="387.1" y2="126.8" stroke="rgb(0,0,0)"  stroke-width="1.0"/>
<text x="308.128429" y="111.657560" fill="rgb(12,12,255)"  stroke="rgb(12,12,255)" stroke-width="1" font-size="16" >N</text>
<text x="113.990080" y="144.817084" fill="rgb(12,12,255)"  stroke="rgb(12,12,255)" stroke-width="1" font-size="16" >N</text>
<text x="175.310961" y="165.149108" fill="rgb(178,178,0)"  stroke="rgb(178,178,0)" stroke-width="1" font-size="16" >S</text>
<text x="22.000000" y="214.641153" fill="rgb(102,102,102)"  stroke="rgb(102,102,102)" stroke-width="1" font-size="16" >HC</text>
<text x="124.320920" y="214.805981" fill="rgb(255,12,12)"  stroke="rgb(255,12,12)" stroke-width="1" font-size="16" >O</text>
<text x="125.319584" y="74.164028" fill="rgb(255,12,12)"  stroke="rgb(255,12,12)" stroke-width="1" font-size="16" >O</text>
<text x="277.962721" y="48.000000" fill="rgb(102,102,102)"  stroke="rgb(102,102,102)" stroke-width="1" font-size="16" >CH</text>
<text x="301.962721" y="51.680000" fill="rgb(102,102,102)"  stroke="rgb(102,102,102)" stroke-width="1" font-size="13" >3</text>
<text x="423.105685" y="76.331032" fill="rgb(30,239,30)"  stroke="rgb(30,239,30)" stroke-width="1" font-size="16" >Cl</text>
<text font-size="18.000000" fill ="black" font-family="sans-serif"
x="10.000000" y="20.000000" ></text>
<title> - OBDepict</title>
</svg>
