<?xml version="1.0"?>
<svg xmlns="http://www.w3.org/2000/svg"
xmlns:xlink="http://www.w3.org/1999/xlink" xmlns:cml="http://www.xml-cml.org/schema" width="369.945" height="485.772" x="0" y="0" font-family="sans-serif" stroke="rgb(0,0,0)" stroke-width="1"  stroke-linecap="round">
<rect x="0%" y="0%" width="100%" height="100%" stroke-width="0" fill="rgb(255,255,255)"  />
<line x1="201.8" y1="365.5" x2="163.4" y2="377.9" stroke="rgb(0,0,0)"  stroke-width="1.0"/>
<line x1="200.0" y1="359.8" x2="161.6" y2="372.2" stroke="rgb(0,0,0)"  stroke-width="1.0"/>
<line x1="50.8" y1="323.2" x2="59.3" y2="362.7" stroke="rgb(0,0,0)"  stroke-width="1.0"/>
<line x1="43.5" y1="296.8" x2="50.8" y2="323.2" stroke="rgb(0,0,0)"  stroke-width="1.0"/>
<line x1="47.5" y1="295.7" x2="54.8" y2="322.1" stroke="rgb(0,0,0)"  stroke-width="1.0"/>
<line x1="39.4" y1="297.9" x2="46.7" y2="324.4" stroke="rgb(0,0,0)"  stroke-width="1.0"/>
<line x1="91.4" y1="433.5" x2="107.5" y2="411.7" stroke="rgb(0,0,0)"  stroke-width="1.0"/>
<line x1="96.2" y1="437.1" x2="112.3" y2="415.2" stroke="rgb(0,0,0)"  stroke-width="1.0"/>
<line x1="132.7" y1="324.0" x2="133.0" y2="351.3" stroke="rgb(0,0,0)"  stroke-width="1.0"/>
<line x1="126.7" y1="324.1" x2="127.0" y2="351.3" stroke="rgb(0,0,0)"  stroke-width="1.0"/>
<line x1="59.3" y1="362.7" x2="84.9" y2="371.0" stroke="rgb(0,0,0)"  stroke-width="1.0"/>
<line x1="209.3" y1="323.9" x2="200.9" y2="362.7" stroke="rgb(0,0,0)"  stroke-width="1.0"/>
<line x1="233.2" y1="219.5" x2="227.1" y2="245.8" stroke="rgb(0,0,0)"  stroke-width="1.0"/>
<line x1="283.0" y1="156.0" x2="273.9" y2="195.0" stroke="rgb(0,0,0)"  stroke-width="1.0"/>
<line x1="273.9" y1="195.0" x2="248.5" y2="203.0" stroke="rgb(0,0,0)"  stroke-width="1.0"/>
<line x1="307.4" y1="52.6" x2="301.3" y2="78.4" stroke="rgb(0,0,0)"  stroke-width="1.0"/>
<line x1="107.8" y1="367.4" x2="130.0" y2="351.3" stroke="rgb(0,0,0)"  stroke-width="1.0"/>
<line x1="130.0" y1="351.3" x2="162.5" y2="375.1" stroke="rgb(0,0,0)"  stroke-width="1.0"/>
<line x1="162.5" y1="375.1" x2="154.1" y2="401.1" stroke="rgb(0,0,0)"  stroke-width="1.0"/>
<line x1="137.1" y1="413.5" x2="109.9" y2="413.5" stroke="rgb(0,0,0)"  stroke-width="1.0"/>
<line x1="109.9" y1="413.5" x2="101.3" y2="387.4" stroke="rgb(0,0,0)"  stroke-width="1.0"/>
<line x1="209.3" y1="323.9" x2="179.6" y2="296.4" stroke="rgb(0,0,0)"  stroke-width="1.0"/>
<line x1="209.7" y1="314.5" x2="188.9" y2="295.2" stroke="rgb(0,0,0)"  stroke-width="1.0"/>
<line x1="179.6" y1="296.4" x2="188.7" y2="257.4" stroke="rgb(0,0,0)"  stroke-width="1.0"/>
<line x1="188.7" y1="257.4" x2="227.1" y2="245.8" stroke="rgb(0,0,0)"  stroke-width="1.0"/>
<line x1="196.6" y1="262.6" x2="223.5" y2="254.5" stroke="rgb(0,0,0)"  stroke-width="1.0"/>
<line x1="227.1" y1="245.8" x2="255.6" y2="273.1" stroke="rgb(0,0,0)"  stroke-width="1.0"/>
<line x1="255.6" y1="273.1" x2="247.0" y2="311.7" stroke="rgb(0,0,0)"  stroke-width="1.0"/>
<line x1="247.3" y1="277.4" x2="241.3" y2="304.3" stroke="rgb(0,0,0)"  stroke-width="1.0"/>
<line x1="247.0" y1="311.7" x2="209.3" y2="323.9" stroke="rgb(0,0,0)"  stroke-width="1.0"/>
<line x1="283.0" y1="156.0" x2="253.8" y2="129.6" stroke="rgb(0,0,0)"  stroke-width="1.0"/>
<line x1="253.8" y1="129.6" x2="262.9" y2="90.6" stroke="rgb(0,0,0)"  stroke-width="1.0"/>
<line x1="262.1" y1="125.4" x2="268.5" y2="98.1" stroke="rgb(0,0,0)"  stroke-width="1.0"/>
<line x1="262.9" y1="90.6" x2="301.3" y2="78.4" stroke="rgb(0,0,0)"  stroke-width="1.0"/>
<line x1="301.3" y1="78.4" x2="329.9" y2="106.4" stroke="rgb(0,0,0)"  stroke-width="1.0"/>
<line x1="300.5" y1="87.7" x2="320.6" y2="107.4" stroke="rgb(0,0,0)"  stroke-width="1.0"/>
<line x1="329.9" y1="106.4" x2="321.0" y2="144.6" stroke="rgb(0,0,0)"  stroke-width="1.0"/>
<line x1="321.0" y1="144.6" x2="283.0" y2="156.0" stroke="rgb(0,0,0)"  stroke-width="1.0"/>
<line x1="313.2" y1="139.5" x2="286.7" y2="147.4" stroke="rgb(0,0,0)"  stroke-width="1.0"/>
<text x="91.296421" y="383.060458" fill="rgb(12,12,255)"  stroke="rgb(12,12,255)" stroke-width="1" font-size="16" >N</text>
<text x="144.124528" y="421.463680" fill="rgb(178,178,0)"  stroke="rgb(178,178,0)" stroke-width="1" font-size="16" >S</text>
<text x="22.000000" y="292.237106" fill="rgb(102,102,102)"  stroke="rgb(102,102,102)" stroke-width="1" font-size="16" >HC</text>
<text x="80.120778" y="453.771537" fill="rgb(255,12,12)"  stroke="rgb(255,12,12)" stroke-width="1" font-size="16" >O</text>
<text x="123.604279" y="319.056708" fill="rgb(255,12,12)"  stroke="rgb(255,12,12)" stroke-width="1" font-size="16" >O</text>
<text x="230.071589" y="214.823555" fill="rgb(255,12,12)"  stroke="rgb(255,12,12)" stroke-width="1" font-size="16" >O</text>
<text x="304.439886" y="48.000000" fill="rgb(147,0,147)"  stroke="rgb(147,0,147)" stroke-width="1" font-size="16" >I</text>
<text font-size="18.000000" fill ="black" font-family="sans-serif"
x="10.000000" y="20.000000" ></text>
<title> - OBDepict</title>
</svg>
