<?xml version="1.0"?>
<svg xmlns="http://www.w3.org/2000/svg"
xmlns:xlink="http://www.w3.org/1999/xlink" xmlns:cml="http://www.xml-cml.org/schema" width="453.668" height="370.833" x="0" y="0" font-family="sans-serif" stroke="rgb(0,0,0)" stroke-width="1"  stroke-linecap="round">
<rect x="0%" y="0%" width="100%" height="100%" stroke-width="0" fill="rgb(255,255,255)"  />
<line x1="300.0" y1="178.9" x2="260.1" y2="178.6" stroke="rgb(0,0,0)"  stroke-width="1.0"/>
<line x1="309.0" y1="254.5" x2="283.2" y2="263.0" stroke="rgb(0,0,0)"  stroke-width="1.0"/>
<line x1="307.1" y1="248.8" x2="281.3" y2="257.3" stroke="rgb(0,0,0)"  stroke-width="1.0"/>
<line x1="320.3" y1="144.3" x2="300.2" y2="109.4" stroke="rgb(0,0,0)"  stroke-width="1.0"/>
<line x1="360.3" y1="144.3" x2="373.9" y2="120.7" stroke="rgb(0,0,0)"  stroke-width="1.0"/>
<line x1="300.2" y1="109.4" x2="313.8" y2="86.2" stroke="rgb(0,0,0)"  stroke-width="1.0"/>
<line x1="300.2" y1="112.4" x2="273.2" y2="112.2" stroke="rgb(0,0,0)"  stroke-width="1.0"/>
<line x1="300.2" y1="106.4" x2="273.2" y2="106.2" stroke="rgb(0,0,0)"  stroke-width="1.0"/>
<line x1="199.5" y1="213.2" x2="186.1" y2="236.1" stroke="rgb(0,0,0)"  stroke-width="1.0"/>
<line x1="200.1" y1="144.1" x2="187.0" y2="120.8" stroke="rgb(0,0,0)"  stroke-width="1.0"/>
<line x1="313.9" y1="63.6" x2="307.1" y2="51.3" stroke="rgb(0,0,0)"  stroke-width="1.0"/>
<line x1="179.9" y1="178.2" x2="152.9" y2="178.1" stroke="rgb(0,0,0)"  stroke-width="1.0"/>
<line x1="186.0" y1="258.6" x2="192.9" y2="270.7" stroke="rgb(0,0,0)"  stroke-width="1.0"/>
<line x1="133.5" y1="166.7" x2="120.2" y2="143.1" stroke="rgb(0,0,0)"  stroke-width="1.0"/>
<line x1="120.2" y1="143.1" x2="80.0" y2="142.9" stroke="rgb(0,0,0)"  stroke-width="1.0"/>
<line x1="80.0" y1="142.9" x2="53.0" y2="142.6" stroke="rgb(0,0,0)"  stroke-width="1.0"/>
<line x1="79.9" y1="147.1" x2="52.9" y2="146.8" stroke="rgb(0,0,0)"  stroke-width="1.0"/>
<line x1="80.0" y1="138.7" x2="53.1" y2="138.4" stroke="rgb(0,0,0)"  stroke-width="1.0"/>
<line x1="320.3" y1="213.4" x2="360.3" y2="213.2" stroke="rgb(0,0,0)"  stroke-width="1.0"/>
<line x1="326.3" y1="220.5" x2="354.3" y2="220.4" stroke="rgb(0,0,0)"  stroke-width="1.0"/>
<line x1="360.3" y1="213.2" x2="372.8" y2="251.0" stroke="rgb(0,0,0)"  stroke-width="1.0"/>
<line x1="372.8" y1="251.0" x2="340.2" y2="274.6" stroke="rgb(0,0,0)"  stroke-width="1.0"/>
<line x1="363.8" y1="248.7" x2="340.9" y2="265.3" stroke="rgb(0,0,0)"  stroke-width="1.0"/>
<line x1="340.2" y1="274.6" x2="308.1" y2="251.7" stroke="rgb(0,0,0)"  stroke-width="1.0"/>
<line x1="308.1" y1="251.7" x2="320.3" y2="213.4" stroke="rgb(0,0,0)"  stroke-width="1.0"/>
<line x1="360.3" y1="144.3" x2="373.6" y2="167.6" stroke="rgb(0,0,0)"  stroke-width="1.0"/>
<line x1="373.5" y1="190.2" x2="360.3" y2="213.2" stroke="rgb(0,0,0)"  stroke-width="1.0"/>
<line x1="320.3" y1="213.4" x2="300.0" y2="178.9" stroke="rgb(0,0,0)"  stroke-width="1.0"/>
<line x1="300.0" y1="178.9" x2="320.3" y2="144.3" stroke="rgb(0,0,0)"  stroke-width="1.0"/>
<line x1="320.3" y1="144.3" x2="360.3" y2="144.3" stroke="rgb(0,0,0)"  stroke-width="1.0"/>
<line x1="326.3" y1="151.5" x2="354.3" y2="151.5" stroke="rgb(0,0,0)"  stroke-width="1.0"/>
<line x1="409.5" y1="267.4" x2="372.8" y2="251.0" stroke="rgb(0,0,0)"  stroke-width="1.0"/>
<line x1="340.2" y1="274.6" x2="344.6" y2="314.4" stroke="rgb(0,0,0)"  stroke-width="1.0"/>
<line x1="344.6" y1="314.4" x2="381.4" y2="330.8" stroke="rgb(0,0,0)"  stroke-width="1.0"/>
<line x1="353.0" y1="310.3" x2="378.8" y2="321.8" stroke="rgb(0,0,0)"  stroke-width="1.0"/>
<line x1="381.4" y1="330.8" x2="413.7" y2="307.2" stroke="rgb(0,0,0)"  stroke-width="1.0"/>
<line x1="413.7" y1="307.2" x2="409.5" y2="267.4" stroke="rgb(0,0,0)"  stroke-width="1.0"/>
<line x1="405.9" y1="302.0" x2="403.0" y2="274.1" stroke="rgb(0,0,0)"  stroke-width="1.0"/>
<line x1="260.1" y1="178.6" x2="240.1" y2="144.1" stroke="rgb(0,0,0)"  stroke-width="1.0"/>
<line x1="240.1" y1="144.1" x2="200.1" y2="144.1" stroke="rgb(0,0,0)"  stroke-width="1.0"/>
<line x1="234.1" y1="151.3" x2="206.1" y2="151.3" stroke="rgb(0,0,0)"  stroke-width="1.0"/>
<line x1="200.1" y1="144.1" x2="179.9" y2="178.2" stroke="rgb(0,0,0)"  stroke-width="1.0"/>
<line x1="179.9" y1="178.2" x2="199.5" y2="213.2" stroke="rgb(0,0,0)"  stroke-width="1.0"/>
<line x1="189.1" y1="179.9" x2="202.8" y2="204.4" stroke="rgb(0,0,0)"  stroke-width="1.0"/>
<line x1="199.5" y1="213.2" x2="239.6" y2="213.4" stroke="rgb(0,0,0)"  stroke-width="1.0"/>
<line x1="239.6" y1="213.4" x2="260.1" y2="178.6" stroke="rgb(0,0,0)"  stroke-width="1.0"/>
<line x1="236.5" y1="204.5" x2="250.8" y2="180.1" stroke="rgb(0,0,0)"  stroke-width="1.0"/>
<text x="374.034206" y="186.895073" fill="rgb(12,12,255)"  stroke="rgb(12,12,255)" stroke-width="1" font-size="16" >NH</text>
<text x="263.923916" y="272.234916" fill="rgb(255,12,12)"  stroke="rgb(255,12,12)" stroke-width="1" font-size="16" >O</text>
<text x="376.369138" y="117.442682" fill="rgb(102,102,102)"  stroke="rgb(102,102,102)" stroke-width="1" font-size="16" >CH</text>
<text x="400.369138" y="121.122682" fill="rgb(102,102,102)"  stroke="rgb(102,102,102)" stroke-width="1" font-size="13" >3</text>
<text x="314.294859" y="82.973754" fill="rgb(255,12,12)"  stroke="rgb(255,12,12)" stroke-width="1" font-size="16" >O</text>
<text x="254.220580" y="117.107750" fill="rgb(255,12,12)"  stroke="rgb(255,12,12)" stroke-width="1" font-size="16" >O</text>
<text x="173.564938" y="255.332958" fill="rgb(255,12,12)"  stroke="rgb(255,12,12)" stroke-width="1" font-size="16" >O</text>
<text x="162.564882" y="117.442682" fill="rgb(165,40,40)"  stroke="rgb(165,40,40)" stroke-width="1" font-size="16" >Br</text>
<text x="274.713440" y="48.000000" fill="rgb(102,102,102)"  stroke="rgb(102,102,102)" stroke-width="1" font-size="16" >H</text>
<text x="286.713440" y="51.680000" fill="rgb(102,102,102)"  stroke="rgb(102,102,102)" stroke-width="1" font-size="13" >3</text>
<text x="293.213440" y="48.000000" fill="rgb(102,102,102)"  stroke="rgb(102,102,102)" stroke-width="1" font-size="16" >C</text>
<text x="133.902128" y="186.055315" fill="rgb(255,12,12)"  stroke="rgb(255,12,12)" stroke-width="1" font-size="16" >O</text>
<text x="195.306542" y="289.971779" fill="rgb(102,102,102)"  stroke="rgb(102,102,102)" stroke-width="1" font-size="16" >CH</text>
<text x="219.306542" y="293.651779" fill="rgb(102,102,102)"  stroke="rgb(102,102,102)" stroke-width="1" font-size="13" >3</text>
<text x="22.000000" y="150.411695" fill="rgb(102,102,102)"  stroke="rgb(102,102,102)" stroke-width="1" font-size="16" >HC</text>
<text font-size="18.000000" fill ="black" font-family="sans-serif"
x="10.000000" y="20.000000" ></text>
<title> - OBDepict</title>
</svg>
