<?xml version="1.0"?>
<svg xmlns="http://www.w3.org/2000/svg"
xmlns:xlink="http://www.w3.org/1999/xlink" xmlns:cml="http://www.xml-cml.org/schema" width="428.087" height="241.825" x="0" y="0" font-family="sans-serif" stroke="rgb(0,0,0)" stroke-width="1"  stroke-linecap="round">
<rect x="0%" y="0%" width="100%" height="100%" stroke-width="0" fill="rgb(255,255,255)"  />
<line x1="182.7" y1="111.6" x2="162.5" y2="75.4" stroke="rgb(0,0,0)"  stroke-width="1.0"/>
<line x1="245.1" y1="75.4" x2="223.2" y2="111.6" stroke="rgb(0,0,0)"  stroke-width="1.0"/>
<line x1="133.9" y1="75.4" x2="162.5" y2="75.4" stroke="rgb(0,0,0)"  stroke-width="1.0"/>
<line x1="346.2" y1="110.0" x2="305.8" y2="110.0" stroke="rgb(0,0,0)"  stroke-width="1.0"/>
<line x1="375.1" y1="110.0" x2="346.2" y2="110.0" stroke="rgb(0,0,0)"  stroke-width="1.0"/>
<line x1="375.1" y1="114.2" x2="346.2" y2="114.2" stroke="rgb(0,0,0)"  stroke-width="1.0"/>
<line x1="375.1" y1="105.8" x2="346.2" y2="105.8" stroke="rgb(0,0,0)"  stroke-width="1.0"/>
<line x1="178.9" y1="52.8" x2="165.1" y2="76.9" stroke="rgb(0,0,0)"  stroke-width="1.0"/>
<line x1="173.7" y1="49.8" x2="159.9" y2="73.9" stroke="rgb(0,0,0)"  stroke-width="1.0"/>
<line x1="232.6" y1="49.5" x2="247.6" y2="73.8" stroke="rgb(0,0,0)"  stroke-width="1.0"/>
<line x1="227.5" y1="52.6" x2="242.5" y2="77.0" stroke="rgb(0,0,0)"  stroke-width="1.0"/>
<line x1="100.7" y1="110.0" x2="114.3" y2="86.6" stroke="rgb(0,0,0)"  stroke-width="1.0"/>
<line x1="272.5" y1="75.4" x2="245.1" y2="75.4" stroke="rgb(0,0,0)"  stroke-width="1.0"/>
<line x1="56.1" y1="189.9" x2="60.2" y2="180.5" stroke="rgb(0,0,0)"  stroke-width="1.0"/>
<line x1="305.8" y1="110.0" x2="292.1" y2="86.6" stroke="rgb(0,0,0)"  stroke-width="1.0"/>
<line x1="100.7" y1="110.0" x2="60.2" y2="110.0" stroke="rgb(0,0,0)"  stroke-width="1.0"/>
<line x1="60.2" y1="110.0" x2="40.0" y2="145.4" stroke="rgb(0,0,0)"  stroke-width="1.0"/>
<line x1="63.5" y1="118.7" x2="49.2" y2="143.7" stroke="rgb(0,0,0)"  stroke-width="1.0"/>
<line x1="40.0" y1="145.4" x2="60.2" y2="180.5" stroke="rgb(0,0,0)"  stroke-width="1.0"/>
<line x1="60.2" y1="180.5" x2="100.7" y2="180.5" stroke="rgb(0,0,0)"  stroke-width="1.0"/>
<line x1="66.2" y1="173.3" x2="94.7" y2="173.3" stroke="rgb(0,0,0)"  stroke-width="1.0"/>
<line x1="100.7" y1="180.5" x2="120.9" y2="145.4" stroke="rgb(0,0,0)"  stroke-width="1.0"/>
<line x1="120.9" y1="145.4" x2="100.7" y2="110.0" stroke="rgb(0,0,0)"  stroke-width="1.0"/>
<line x1="111.7" y1="143.7" x2="97.4" y2="118.7" stroke="rgb(0,0,0)"  stroke-width="1.0"/>
<line x1="182.7" y1="111.6" x2="223.2" y2="111.6" stroke="rgb(0,0,0)"  stroke-width="1.0"/>
<line x1="223.2" y1="111.6" x2="243.4" y2="146.8" stroke="rgb(0,0,0)"  stroke-width="1.0"/>
<line x1="219.9" y1="120.4" x2="234.2" y2="145.2" stroke="rgb(0,0,0)"  stroke-width="1.0"/>
<line x1="243.4" y1="146.8" x2="223.2" y2="181.6" stroke="rgb(0,0,0)"  stroke-width="1.0"/>
<line x1="223.2" y1="181.6" x2="182.7" y2="181.6" stroke="rgb(0,0,0)"  stroke-width="1.0"/>
<line x1="217.2" y1="174.4" x2="188.7" y2="174.4" stroke="rgb(0,0,0)"  stroke-width="1.0"/>
<line x1="182.7" y1="181.6" x2="162.5" y2="146.8" stroke="rgb(0,0,0)"  stroke-width="1.0"/>
<line x1="162.5" y1="146.8" x2="182.7" y2="111.6" stroke="rgb(0,0,0)"  stroke-width="1.0"/>
<line x1="171.7" y1="145.2" x2="186.0" y2="120.4" stroke="rgb(0,0,0)"  stroke-width="1.0"/>
<text x="114.907350" y="83.401571" fill="rgb(12,12,255)"  stroke="rgb(12,12,255)" stroke-width="1" font-size="16" >N</text>
<text x="114.907350" y="67.401571" fill="rgb(12,12,255)"  stroke="rgb(12,12,255)" stroke-width="1" font-size="16" >H</text>
<text x="382.086791" y="117.953346" fill="rgb(102,102,102)"  stroke="rgb(102,102,102)" stroke-width="1" font-size="16" >CH</text>
<text x="176.721331" y="48.000000" fill="rgb(255,12,12)"  stroke="rgb(255,12,12)" stroke-width="1" font-size="16" >O</text>
<text x="217.172550" y="48.000000" fill="rgb(255,12,12)"  stroke="rgb(255,12,12)" stroke-width="1" font-size="16" >O</text>
<text x="279.541600" y="83.401571" fill="rgb(255,12,12)"  stroke="rgb(255,12,12)" stroke-width="1" font-size="16" >O</text>
<text x="32.954003" y="209.824524" fill="rgb(30,239,30)"  stroke="rgb(30,239,30)" stroke-width="1" font-size="16" >Cl</text>
<text font-size="18.000000" fill ="black" font-family="sans-serif"
x="10.000000" y="20.000000" ></text>
<title> - OBDepict</title>
</svg>
