<?xml version="1.0"?>
<svg xmlns="http://www.w3.org/2000/svg"
xmlns:xlink="http://www.w3.org/1999/xlink" xmlns:cml="http://www.xml-cml.org/schema" width="443.576" height="327.415" x="0" y="0" font-family="sans-serif" stroke="rgb(0,0,0)" stroke-width="1"  stroke-linecap="round">
<rect x="0%" y="0%" width="100%" height="100%" stroke-width="0" fill="rgb(255,255,255)"  />
<line x1="358.8" y1="112.8" x2="335.3" y2="100.6" stroke="rgb(0,0,0)"  stroke-width="1.0"/>
<line x1="196.2" y1="105.2" x2="151.8" y2="135.2" stroke="rgb(0,0,0)"  stroke-width="1.0"/>
<line x1="233.8" y1="124.9" x2="196.2" y2="105.2" stroke="rgb(0,0,0)"  stroke-width="1.0"/>
<line x1="267.3" y1="103.2" x2="233.8" y2="124.9" stroke="rgb(0,0,0)"  stroke-width="1.0"/>
<line x1="119.4" y1="262.0" x2="149.6" y2="236.9" stroke="rgb(0,0,0)"  stroke-width="1.0"/>
<line x1="99.2" y1="279.1" x2="119.4" y2="262.0" stroke="rgb(0,0,0)"  stroke-width="1.0"/>
<line x1="96.5" y1="275.8" x2="116.7" y2="258.8" stroke="rgb(0,0,0)"  stroke-width="1.0"/>
<line x1="101.9" y1="282.3" x2="122.1" y2="265.3" stroke="rgb(0,0,0)"  stroke-width="1.0"/>
<line x1="371.5" y1="145.1" x2="370.9" y2="131.7" stroke="rgb(0,0,0)"  stroke-width="1.0"/>
<line x1="196.0" y1="176.6" x2="169.7" y2="172.9" stroke="rgb(0,0,0)"  stroke-width="1.0"/>
<line x1="196.9" y1="170.6" x2="170.6" y2="167.0" stroke="rgb(0,0,0)"  stroke-width="1.0"/>
<line x1="394.3" y1="106.9" x2="382.9" y2="114.2" stroke="rgb(0,0,0)"  stroke-width="1.0"/>
<line x1="391.0" y1="101.8" x2="379.6" y2="109.2" stroke="rgb(0,0,0)"  stroke-width="1.0"/>
<line x1="149.6" y1="236.9" x2="144.9" y2="211.0" stroke="rgb(0,0,0)"  stroke-width="1.0"/>
<line x1="142.8" y1="102.6" x2="151.8" y2="135.2" stroke="rgb(0,0,0)"  stroke-width="1.0"/>
<line x1="231.9" y1="144.9" x2="230.8" y2="125.0" stroke="rgb(0,0,0)"  stroke-width="1.0"/>
<line x1="237.9" y1="144.6" x2="236.8" y2="124.7" stroke="rgb(0,0,0)"  stroke-width="1.0"/>
<line x1="355.9" y1="47.0" x2="333.6" y2="61.2" stroke="rgb(0,0,0)"  stroke-width="1.0"/>
<line x1="390.1" y1="52.0" x2="378.4" y2="46.0" stroke="rgb(0,0,0)"  stroke-width="1.0"/>
<line x1="170.2" y1="169.9" x2="151.7" y2="188.9" stroke="rgb(0,0,0)"  stroke-width="1.0"/>
<line x1="131.0" y1="192.3" x2="107.6" y2="180.7" stroke="rgb(0,0,0)"  stroke-width="1.0"/>
<line x1="107.6" y1="180.7" x2="113.1" y2="141.9" stroke="rgb(0,0,0)"  stroke-width="1.0"/>
<line x1="115.6" y1="175.7" x2="119.4" y2="148.9" stroke="rgb(0,0,0)"  stroke-width="1.0"/>
<line x1="113.1" y1="141.9" x2="151.8" y2="135.2" stroke="rgb(0,0,0)"  stroke-width="1.0"/>
<line x1="151.8" y1="135.2" x2="170.2" y2="169.9" stroke="rgb(0,0,0)"  stroke-width="1.0"/>
<line x1="335.3" y1="100.6" x2="333.6" y2="61.2" stroke="rgb(0,0,0)"  stroke-width="1.0"/>
<line x1="333.6" y1="61.2" x2="298.6" y2="42.8" stroke="rgb(0,0,0)"  stroke-width="1.0"/>
<line x1="324.9" y1="64.8" x2="300.5" y2="52.0" stroke="rgb(0,0,0)"  stroke-width="1.0"/>
<line x1="298.6" y1="42.8" x2="265.3" y2="64.3" stroke="rgb(0,0,0)"  stroke-width="1.0"/>
<line x1="265.3" y1="64.3" x2="267.3" y2="103.2" stroke="rgb(0,0,0)"  stroke-width="1.0"/>
<line x1="272.8" y1="69.9" x2="274.2" y2="96.9" stroke="rgb(0,0,0)"  stroke-width="1.0"/>
<line x1="267.3" y1="103.2" x2="302.1" y2="121.6" stroke="rgb(0,0,0)"  stroke-width="1.0"/>
<line x1="302.1" y1="121.6" x2="335.3" y2="100.6" stroke="rgb(0,0,0)"  stroke-width="1.0"/>
<line x1="303.3" y1="112.3" x2="326.4" y2="97.7" stroke="rgb(0,0,0)"  stroke-width="1.0"/>
<line x1="107.6" y1="180.7" x2="71.1" y2="195.5" stroke="rgb(0,0,0)"  stroke-width="1.0"/>
<line x1="71.1" y1="195.5" x2="40.0" y2="171.3" stroke="rgb(0,0,0)"  stroke-width="1.0"/>
<line x1="70.8" y1="186.2" x2="49.2" y2="169.3" stroke="rgb(0,0,0)"  stroke-width="1.0"/>
<line x1="40.0" y1="171.3" x2="45.5" y2="132.1" stroke="rgb(0,0,0)"  stroke-width="1.0"/>
<line x1="45.5" y1="132.1" x2="82.2" y2="117.4" stroke="rgb(0,0,0)"  stroke-width="1.0"/>
<line x1="53.7" y1="136.6" x2="79.3" y2="126.3" stroke="rgb(0,0,0)"  stroke-width="1.0"/>
<line x1="82.2" y1="117.4" x2="113.1" y2="141.9" stroke="rgb(0,0,0)"  stroke-width="1.0"/>
<text x="136.597345" y="206.161547" fill="rgb(12,12,255)"  stroke="rgb(12,12,255)" stroke-width="1" font-size="16" >N</text>
<text x="375.126458" y="114.721391" fill="rgb(12,12,255)"  stroke="rgb(12,12,255)" stroke-width="1" font-size="16" >+</text>
<text x="364.326458" y="126.753391" fill="rgb(12,12,255)"  stroke="rgb(12,12,255)" stroke-width="1" font-size="16" >N</text>
<text x="71.222064" y="295.415071" fill="rgb(102,102,102)"  stroke="rgb(102,102,102)" stroke-width="1" font-size="16" >HC</text>
<text x="376.870904" y="144.018086" fill="rgb(255,12,12)"  stroke="rgb(255,12,12)" stroke-width="1" font-size="16" >_</text>
<text x="366.070904" y="166.130086" fill="rgb(255,12,12)"  stroke="rgb(255,12,12)" stroke-width="1" font-size="16" >O</text>
<text x="203.316445" y="183.412054" fill="rgb(255,12,12)"  stroke="rgb(255,12,12)" stroke-width="1" font-size="16" >O</text>
<text x="397.576084" y="105.318207" fill="rgb(255,12,12)"  stroke="rgb(255,12,12)" stroke-width="1" font-size="16" >O</text>
<text x="121.318741" y="98.096677" fill="rgb(255,12,12)"  stroke="rgb(255,12,12)" stroke-width="1" font-size="16" >HO</text>
<text x="229.569168" y="165.695170" fill="rgb(255,12,12)"  stroke="rgb(255,12,12)" stroke-width="1" font-size="16" >O</text>
<text x="360.823227" y="48.000000" fill="rgb(255,12,12)"  stroke="rgb(255,12,12)" stroke-width="1" font-size="16" >O</text>
<text x="397.607010" y="65.941512" fill="rgb(102,102,102)"  stroke="rgb(102,102,102)" stroke-width="1" font-size="16" >CH</text>
<text x="421.607010" y="69.621512" fill="rgb(102,102,102)"  stroke="rgb(102,102,102)" stroke-width="1" font-size="13" >3</text>
<text font-size="18.000000" fill ="black" font-family="sans-serif"
x="10.000000" y="20.000000" ></text>
<title> - OBDepict</title>
</svg>
