<?xml version="1.0"?>
<svg xmlns="http://www.w3.org/2000/svg"
xmlns:xlink="http://www.w3.org/1999/xlink" xmlns:cml="http://www.xml-cml.org/schema" width="505.611" height="316.493" x="0" y="0" font-family="sans-serif" stroke="rgb(0,0,0)" stroke-width="1"  stroke-linecap="round">
<rect x="0%" y="0%" width="100%" height="100%" stroke-width="0" fill="rgb(255,255,255)"  />
<line x1="386.4" y1="145.2" x2="359.6" y2="148.1" stroke="rgb(0,0,0)"  stroke-width="1.0"/>
<line x1="250.2" y1="113.4" x2="284.7" y2="133.4" stroke="rgb(0,0,0)"  stroke-width="1.0"/>
<line x1="247.2" y1="118.6" x2="281.6" y2="138.6" stroke="rgb(0,0,0)"  stroke-width="1.0"/>
<line x1="213.6" y1="136.2" x2="248.7" y2="116.0" stroke="rgb(0,0,0)"  stroke-width="1.0"/>
<line x1="74.5" y1="256.9" x2="109.0" y2="236.6" stroke="rgb(0,0,0)"  stroke-width="1.0"/>
<line x1="51.3" y1="270.1" x2="74.5" y2="256.9" stroke="rgb(0,0,0)"  stroke-width="1.0"/>
<line x1="49.2" y1="266.4" x2="72.4" y2="253.3" stroke="rgb(0,0,0)"  stroke-width="1.0"/>
<line x1="53.4" y1="273.7" x2="76.6" y2="260.6" stroke="rgb(0,0,0)"  stroke-width="1.0"/>
<line x1="334.8" y1="209.6" x2="324.0" y2="185.2" stroke="rgb(0,0,0)"  stroke-width="1.0"/>
<line x1="340.3" y1="207.1" x2="329.4" y2="182.7" stroke="rgb(0,0,0)"  stroke-width="1.0"/>
<line x1="328.2" y1="93.9" x2="322.8" y2="120.4" stroke="rgb(0,0,0)"  stroke-width="1.0"/>
<line x1="322.4" y1="92.7" x2="316.9" y2="119.2" stroke="rgb(0,0,0)"  stroke-width="1.0"/>
<line x1="120.9" y1="122.4" x2="144.0" y2="135.6" stroke="rgb(0,0,0)"  stroke-width="1.0"/>
<line x1="120.6" y1="190.1" x2="143.8" y2="176.5" stroke="rgb(0,0,0)"  stroke-width="1.0"/>
<line x1="179.0" y1="223.0" x2="179.1" y2="196.1" stroke="rgb(0,0,0)"  stroke-width="1.0"/>
<line x1="386.4" y1="87.2" x2="402.3" y2="108.7" stroke="rgb(0,0,0)"  stroke-width="1.0"/>
<line x1="109.0" y1="236.6" x2="109.2" y2="209.7" stroke="rgb(0,0,0)"  stroke-width="1.0"/>
<line x1="202.4" y1="249.8" x2="190.1" y2="242.6" stroke="rgb(0,0,0)"  stroke-width="1.0"/>
<line x1="389.8" y1="51.9" x2="384.0" y2="64.8" stroke="rgb(0,0,0)"  stroke-width="1.0"/>
<line x1="337.9" y1="139.8" x2="319.8" y2="119.8" stroke="rgb(0,0,0)"  stroke-width="1.0"/>
<line x1="319.8" y1="119.8" x2="283.2" y2="136.0" stroke="rgb(0,0,0)"  stroke-width="1.0"/>
<line x1="283.2" y1="136.0" x2="286.0" y2="162.6" stroke="rgb(0,0,0)"  stroke-width="1.0"/>
<line x1="300.1" y1="178.2" x2="326.7" y2="184.0" stroke="rgb(0,0,0)"  stroke-width="1.0"/>
<line x1="326.7" y1="184.0" x2="340.1" y2="160.7" stroke="rgb(0,0,0)"  stroke-width="1.0"/>
<line x1="144.0" y1="135.6" x2="143.8" y2="176.5" stroke="rgb(0,0,0)"  stroke-width="1.0"/>
<line x1="151.2" y1="141.6" x2="151.1" y2="170.5" stroke="rgb(0,0,0)"  stroke-width="1.0"/>
<line x1="143.8" y1="176.5" x2="179.1" y2="196.1" stroke="rgb(0,0,0)"  stroke-width="1.0"/>
<line x1="179.1" y1="196.1" x2="213.6" y2="176.1" stroke="rgb(0,0,0)"  stroke-width="1.0"/>
<line x1="180.7" y1="186.8" x2="204.8" y2="172.9" stroke="rgb(0,0,0)"  stroke-width="1.0"/>
<line x1="213.6" y1="176.1" x2="213.6" y2="136.2" stroke="rgb(0,0,0)"  stroke-width="1.0"/>
<line x1="213.6" y1="136.2" x2="178.9" y2="115.6" stroke="rgb(0,0,0)"  stroke-width="1.0"/>
<line x1="204.8" y1="139.3" x2="180.4" y2="124.9" stroke="rgb(0,0,0)"  stroke-width="1.0"/>
<line x1="178.9" y1="115.6" x2="144.0" y2="135.6" stroke="rgb(0,0,0)"  stroke-width="1.0"/>
<line x1="386.4" y1="145.2" x2="402.3" y2="108.7" stroke="rgb(0,0,0)"  stroke-width="1.0"/>
<line x1="402.3" y1="108.7" x2="442.0" y2="104.7" stroke="rgb(0,0,0)"  stroke-width="1.0"/>
<line x1="409.0" y1="115.3" x2="436.8" y2="112.5" stroke="rgb(0,0,0)"  stroke-width="1.0"/>
<line x1="442.0" y1="104.7" x2="465.6" y2="137.2" stroke="rgb(0,0,0)"  stroke-width="1.0"/>
<line x1="465.6" y1="137.2" x2="448.9" y2="173.5" stroke="rgb(0,0,0)"  stroke-width="1.0"/>
<line x1="456.6" y1="139.6" x2="444.9" y2="165.0" stroke="rgb(0,0,0)"  stroke-width="1.0"/>
<line x1="448.9" y1="173.5" x2="409.6" y2="177.7" stroke="rgb(0,0,0)"  stroke-width="1.0"/>
<line x1="409.6" y1="177.7" x2="386.4" y2="145.2" stroke="rgb(0,0,0)"  stroke-width="1.0"/>
<line x1="411.9" y1="168.6" x2="395.7" y2="145.9" stroke="rgb(0,0,0)"  stroke-width="1.0"/>
<text x="340.659344" y="157.474151" fill="rgb(12,12,255)"  stroke="rgb(12,12,255)" stroke-width="1" font-size="16" >N</text>
<text x="281.384656" y="183.484310" fill="rgb(178,178,0)"  stroke="rgb(178,178,0)" stroke-width="1" font-size="16" >S</text>
<text x="22.000000" y="284.493416" fill="rgb(102,102,102)"  stroke="rgb(102,102,102)" stroke-width="1" font-size="16" >HC</text>
<text x="336.828766" y="228.245417" fill="rgb(255,12,12)"  stroke="rgb(255,12,12)" stroke-width="1" font-size="16" >O</text>
<text x="321.908397" y="88.523741" fill="rgb(255,12,12)"  stroke="rgb(255,12,12)" stroke-width="1" font-size="16" >O</text>
<text x="91.560590" y="124.006228" fill="rgb(165,40,40)"  stroke="rgb(165,40,40)" stroke-width="1" font-size="16" >Br</text>
<text x="103.357197" y="204.656609" fill="rgb(255,12,12)"  stroke="rgb(255,12,12)" stroke-width="1" font-size="16" >O</text>
<text x="172.912944" y="243.969675" fill="rgb(255,12,12)"  stroke="rgb(255,12,12)" stroke-width="1" font-size="16" >O</text>
<text x="372.718040" y="84.693163" fill="rgb(255,12,12)"  stroke="rgb(255,12,12)" stroke-width="1" font-size="16" >O</text>
<text x="209.591543" y="264.333242" fill="rgb(102,102,102)"  stroke="rgb(102,102,102)" stroke-width="1" font-size="16" >CH</text>
<text x="233.591543" y="268.013242" fill="rgb(102,102,102)"  stroke="rgb(102,102,102)" stroke-width="1" font-size="13" >3</text>
<text x="391.047636" y="48.000000" fill="rgb(102,102,102)"  stroke="rgb(102,102,102)" stroke-width="1" font-size="16" >CH</text>
<text x="415.047636" y="51.680000" fill="rgb(102,102,102)"  stroke="rgb(102,102,102)" stroke-width="1" font-size="13" >3</text>
<text font-size="18.000000" fill ="black" font-family="sans-serif"
x="10.000000" y="20.000000" ></text>
<title> - OBDepict</title>
</svg>
