<?xml version="1.0"?>
<svg xmlns="http://www.w3.org/2000/svg"
xmlns:xlink="http://www.w3.org/1999/xlink" xmlns:cml="http://www.xml-cml.org/schema" width="445.594" height="318.135" x="0" y="0" font-family="sans-serif" stroke="rgb(0,0,0)" stroke-width="1"  stroke-linecap="round">
<rect x="0%" y="0%" width="100%" height="100%" stroke-width="0" fill="rgb(255,255,255)"  />
<line x1="209.4" y1="149.1" x2="169.9" y2="146.7" stroke="rgb(0,0,0)"  stroke-width="1.0"/>
<line x1="304.1" y1="107.1" x2="282.2" y2="121.6" stroke="rgb(0,0,0)"  stroke-width="1.0"/>
<line x1="133.5" y1="248.2" x2="160.3" y2="217.4" stroke="rgb(0,0,0)"  stroke-width="1.0"/>
<line x1="115.7" y1="268.4" x2="133.5" y2="248.2" stroke="rgb(0,0,0)"  stroke-width="1.0"/>
<line x1="112.6" y1="265.6" x2="130.3" y2="245.4" stroke="rgb(0,0,0)"  stroke-width="1.0"/>
<line x1="118.9" y1="271.2" x2="136.6" y2="250.9" stroke="rgb(0,0,0)"  stroke-width="1.0"/>
<line x1="291.8" y1="187.2" x2="269.6" y2="171.5" stroke="rgb(0,0,0)"  stroke-width="1.0"/>
<line x1="295.2" y1="182.3" x2="273.1" y2="166.6" stroke="rgb(0,0,0)"  stroke-width="1.0"/>
<line x1="160.3" y1="217.4" x2="151.3" y2="191.3" stroke="rgb(0,0,0)"  stroke-width="1.0"/>
<line x1="394.8" y1="47.2" x2="371.2" y2="62.8" stroke="rgb(0,0,0)"  stroke-width="1.0"/>
<line x1="169.9" y1="146.7" x2="154.6" y2="168.4" stroke="rgb(0,0,0)"  stroke-width="1.0"/>
<line x1="134.7" y1="175.2" x2="108.7" y2="167.1" stroke="rgb(0,0,0)"  stroke-width="1.0"/>
<line x1="108.7" y1="167.1" x2="108.7" y2="127.5" stroke="rgb(0,0,0)"  stroke-width="1.0"/>
<line x1="115.9" y1="161.1" x2="115.9" y2="133.5" stroke="rgb(0,0,0)"  stroke-width="1.0"/>
<line x1="108.7" y1="127.5" x2="134.7" y2="119.4" stroke="rgb(0,0,0)"  stroke-width="1.0"/>
<line x1="154.6" y1="125.8" x2="169.9" y2="146.7" stroke="rgb(0,0,0)"  stroke-width="1.0"/>
<line x1="150.0" y1="131.8" x2="160.5" y2="146.1" stroke="rgb(0,0,0)"  stroke-width="1.0"/>
<line x1="209.4" y1="149.1" x2="233.4" y2="181.4" stroke="rgb(0,0,0)"  stroke-width="1.0"/>
<line x1="233.4" y1="181.4" x2="271.3" y2="169.1" stroke="rgb(0,0,0)"  stroke-width="1.0"/>
<line x1="271.3" y1="169.1" x2="271.3" y2="141.7" stroke="rgb(0,0,0)"  stroke-width="1.0"/>
<line x1="258.9" y1="124.8" x2="233.4" y2="116.7" stroke="rgb(0,0,0)"  stroke-width="1.0"/>
<line x1="233.4" y1="116.7" x2="209.4" y2="149.1" stroke="rgb(0,0,0)"  stroke-width="1.0"/>
<line x1="304.1" y1="107.1" x2="340.1" y2="124.7" stroke="rgb(0,0,0)"  stroke-width="1.0"/>
<line x1="340.1" y1="124.7" x2="373.6" y2="102.3" stroke="rgb(0,0,0)"  stroke-width="1.0"/>
<line x1="341.1" y1="115.4" x2="364.6" y2="99.7" stroke="rgb(0,0,0)"  stroke-width="1.0"/>
<line x1="373.6" y1="102.3" x2="371.2" y2="62.8" stroke="rgb(0,0,0)"  stroke-width="1.0"/>
<line x1="371.2" y1="62.8" x2="334.9" y2="44.8" stroke="rgb(0,0,0)"  stroke-width="1.0"/>
<line x1="362.7" y1="66.6" x2="337.1" y2="53.9" stroke="rgb(0,0,0)"  stroke-width="1.0"/>
<line x1="334.9" y1="44.8" x2="301.7" y2="67.6" stroke="rgb(0,0,0)"  stroke-width="1.0"/>
<line x1="301.7" y1="67.6" x2="304.1" y2="107.1" stroke="rgb(0,0,0)"  stroke-width="1.0"/>
<line x1="309.3" y1="73.1" x2="310.9" y2="100.7" stroke="rgb(0,0,0)"  stroke-width="1.0"/>
<line x1="74.8" y1="187.4" x2="108.7" y2="167.1" stroke="rgb(0,0,0)"  stroke-width="1.0"/>
<line x1="108.7" y1="127.5" x2="74.8" y2="107.1" stroke="rgb(0,0,0)"  stroke-width="1.0"/>
<line x1="74.8" y1="107.1" x2="40.0" y2="127.5" stroke="rgb(0,0,0)"  stroke-width="1.0"/>
<line x1="73.2" y1="116.4" x2="48.8" y2="130.7" stroke="rgb(0,0,0)"  stroke-width="1.0"/>
<line x1="40.0" y1="127.5" x2="40.0" y2="167.1" stroke="rgb(0,0,0)"  stroke-width="1.0"/>
<line x1="40.0" y1="167.1" x2="74.8" y2="187.4" stroke="rgb(0,0,0)"  stroke-width="1.0"/>
<line x1="48.8" y1="163.9" x2="73.2" y2="178.2" stroke="rgb(0,0,0)"  stroke-width="1.0"/>
<text x="141.081557" y="123.516489" fill="rgb(12,12,255)"  stroke="rgb(12,12,255)" stroke-width="1" font-size="16" >N</text>
<text x="141.081557" y="187.049314" fill="rgb(12,12,255)"  stroke="rgb(12,12,255)" stroke-width="1" font-size="16" >N</text>
<text x="265.342933" y="136.703371" fill="rgb(12,12,255)"  stroke="rgb(12,12,255)" stroke-width="1" font-size="16" >N</text>
<text x="89.123073" y="286.135293" fill="rgb(102,102,102)"  stroke="rgb(102,102,102)" stroke-width="1" font-size="16" >HC</text>
<text x="298.111218" y="200.231345" fill="rgb(255,12,12)"  stroke="rgb(255,12,12)" stroke-width="1" font-size="16" >O</text>
<text x="399.593930" y="48.000000" fill="rgb(165,40,40)"  stroke="rgb(165,40,40)" stroke-width="1" font-size="16" >Br</text>
<text font-size="18.000000" fill ="black" font-family="sans-serif"
x="10.000000" y="20.000000" ></text>
<title> - OBDepict</title>
</svg>
