<?xml version="1.0"?>
<svg xmlns="http://www.w3.org/2000/svg"
xmlns:xlink="http://www.w3.org/1999/xlink" xmlns:cml="http://www.xml-cml.org/schema" width="399.486" height="388.984" x="0" y="0" font-family="sans-serif" stroke="rgb(0,0,0)" stroke-width="1"  stroke-linecap="round">
<rect x="0%" y="0%" width="100%" height="100%" stroke-width="0" fill="rgb(255,255,255)"  />
<line x1="207.9" y1="227.1" x2="200.0" y2="266.3" stroke="rgb(0,0,0)"  stroke-width="1.0"/>
<line x1="201.0" y1="269.2" x2="162.8" y2="281.5" stroke="rgb(0,0,0)"  stroke-width="1.0"/>
<line x1="199.1" y1="263.5" x2="160.9" y2="275.8" stroke="rgb(0,0,0)"  stroke-width="1.0"/>
<line x1="270.2" y1="144.1" x2="250.2" y2="162.4" stroke="rgb(0,0,0)"  stroke-width="1.0"/>
<line x1="50.7" y1="227.1" x2="59.2" y2="266.3" stroke="rgb(0,0,0)"  stroke-width="1.0"/>
<line x1="43.5" y1="200.9" x2="50.7" y2="227.1" stroke="rgb(0,0,0)"  stroke-width="1.0"/>
<line x1="47.5" y1="199.7" x2="54.8" y2="226.0" stroke="rgb(0,0,0)"  stroke-width="1.0"/>
<line x1="39.4" y1="202.0" x2="46.7" y2="228.2" stroke="rgb(0,0,0)"  stroke-width="1.0"/>
<line x1="91.2" y1="336.7" x2="107.1" y2="315.1" stroke="rgb(0,0,0)"  stroke-width="1.0"/>
<line x1="96.0" y1="340.3" x2="111.9" y2="318.6" stroke="rgb(0,0,0)"  stroke-width="1.0"/>
<line x1="132.2" y1="228.0" x2="132.5" y2="255.0" stroke="rgb(0,0,0)"  stroke-width="1.0"/>
<line x1="126.2" y1="228.0" x2="126.5" y2="255.0" stroke="rgb(0,0,0)"  stroke-width="1.0"/>
<line x1="59.2" y1="266.3" x2="84.6" y2="274.6" stroke="rgb(0,0,0)"  stroke-width="1.0"/>
<line x1="286.1" y1="52.7" x2="291.6" y2="79.0" stroke="rgb(0,0,0)"  stroke-width="1.0"/>
<line x1="190.6" y1="138.3" x2="201.7" y2="162.9" stroke="rgb(0,0,0)"  stroke-width="1.0"/>
<line x1="349.9" y1="72.8" x2="329.8" y2="91.3" stroke="rgb(0,0,0)"  stroke-width="1.0"/>
<line x1="268.3" y1="224.6" x2="244.9" y2="210.8" stroke="rgb(0,0,0)"  stroke-width="1.0"/>
<line x1="107.5" y1="271.0" x2="129.5" y2="255.0" stroke="rgb(0,0,0)"  stroke-width="1.0"/>
<line x1="129.5" y1="255.0" x2="161.9" y2="278.7" stroke="rgb(0,0,0)"  stroke-width="1.0"/>
<line x1="161.9" y1="278.7" x2="153.5" y2="304.5" stroke="rgb(0,0,0)"  stroke-width="1.0"/>
<line x1="136.5" y1="316.9" x2="109.5" y2="316.9" stroke="rgb(0,0,0)"  stroke-width="1.0"/>
<line x1="109.5" y1="316.9" x2="101.0" y2="291.0" stroke="rgb(0,0,0)"  stroke-width="1.0"/>
<line x1="207.9" y1="227.1" x2="244.9" y2="210.8" stroke="rgb(0,0,0)"  stroke-width="1.0"/>
<line x1="210.5" y1="218.1" x2="236.5" y2="206.6" stroke="rgb(0,0,0)"  stroke-width="1.0"/>
<line x1="244.9" y1="210.8" x2="242.1" y2="184.1" stroke="rgb(0,0,0)"  stroke-width="1.0"/>
<line x1="227.9" y1="168.5" x2="201.7" y2="162.9" stroke="rgb(0,0,0)"  stroke-width="1.0"/>
<line x1="201.7" y1="162.9" x2="181.3" y2="197.4" stroke="rgb(0,0,0)"  stroke-width="1.0"/>
<line x1="204.8" y1="171.7" x2="190.5" y2="195.9" stroke="rgb(0,0,0)"  stroke-width="1.0"/>
<line x1="181.3" y1="197.4" x2="207.9" y2="227.1" stroke="rgb(0,0,0)"  stroke-width="1.0"/>
<line x1="270.2" y1="144.1" x2="261.9" y2="105.7" stroke="rgb(0,0,0)"  stroke-width="1.0"/>
<line x1="261.9" y1="105.7" x2="291.6" y2="79.0" stroke="rgb(0,0,0)"  stroke-width="1.0"/>
<line x1="271.2" y1="107.0" x2="291.9" y2="88.4" stroke="rgb(0,0,0)"  stroke-width="1.0"/>
<line x1="291.6" y1="79.0" x2="329.8" y2="91.3" stroke="rgb(0,0,0)"  stroke-width="1.0"/>
<line x1="329.8" y1="91.3" x2="337.7" y2="130.1" stroke="rgb(0,0,0)"  stroke-width="1.0"/>
<line x1="323.9" y1="98.6" x2="329.4" y2="125.7" stroke="rgb(0,0,0)"  stroke-width="1.0"/>
<line x1="337.7" y1="130.1" x2="308.4" y2="156.8" stroke="rgb(0,0,0)"  stroke-width="1.0"/>
<line x1="308.4" y1="156.8" x2="270.2" y2="144.1" stroke="rgb(0,0,0)"  stroke-width="1.0"/>
<line x1="304.9" y1="148.1" x2="278.1" y2="139.1" stroke="rgb(0,0,0)"  stroke-width="1.0"/>
<text x="90.987088" y="286.659225" fill="rgb(12,12,255)"  stroke="rgb(12,12,255)" stroke-width="1" font-size="16" >N</text>
<text x="234.666215" y="179.152358" fill="rgb(12,12,255)"  stroke="rgb(12,12,255)" stroke-width="1" font-size="16" >N</text>
<text x="143.521832" y="324.851304" fill="rgb(178,178,0)"  stroke="rgb(178,178,0)" stroke-width="1" font-size="16" >S</text>
<text x="22.000000" y="196.330539" fill="rgb(102,102,102)"  stroke="rgb(102,102,102)" stroke-width="1" font-size="16" >HC</text>
<text x="79.868367" y="356.983923" fill="rgb(255,12,12)"  stroke="rgb(255,12,12)" stroke-width="1" font-size="16" >O</text>
<text x="123.114852" y="223.005760" fill="rgb(255,12,12)"  stroke="rgb(255,12,12)" stroke-width="1" font-size="16" >O</text>
<text x="265.504851" y="48.000000" fill="rgb(30,239,30)"  stroke="rgb(30,239,30)" stroke-width="1" font-size="16" >Cl</text>
<text x="159.291098" y="134.492970" fill="rgb(102,102,102)"  stroke="rgb(102,102,102)" stroke-width="1" font-size="16" >H</text>
<text x="171.291098" y="138.172970" fill="rgb(102,102,102)"  stroke="rgb(102,102,102)" stroke-width="1" font-size="13" >3</text>
<text x="177.791098" y="134.492970" fill="rgb(102,102,102)"  stroke="rgb(102,102,102)" stroke-width="1" font-size="16" >C</text>
<text x="353.486017" y="72.048483" fill="rgb(165,40,40)"  stroke="rgb(165,40,40)" stroke-width="1" font-size="16" >Br</text>
<text x="275.465211" y="239.169176" fill="rgb(102,102,102)"  stroke="rgb(102,102,102)" stroke-width="1" font-size="16" >CH</text>
<text x="299.465211" y="242.849176" fill="rgb(102,102,102)"  stroke="rgb(102,102,102)" stroke-width="1" font-size="13" >3</text>
<text font-size="18.000000" fill ="black" font-family="sans-serif"
x="10.000000" y="20.000000" ></text>
<title> - OBDepict</title>
</svg>
