<?xml version="1.0"?>
<svg xmlns="http://www.w3.org/2000/svg"
xmlns:xlink="http://www.w3.org/1999/xlink" xmlns:cml="http://www.xml-cml.org/schema" width="426.723" height="260.613" x="0" y="0" font-family="sans-serif" stroke="rgb(0,0,0)" stroke-width="1"  stroke-linecap="round">
<rect x="0%" y="0%" width="100%" height="100%" stroke-width="0" fill="rgb(255,255,255)"  />
<line x1="143.8" y1="160.1" x2="167.2" y2="146.8" stroke="rgb(0,0,0)"  stroke-width="1.0"/>
<line x1="143.8" y1="200.5" x2="167.2" y2="214.1" stroke="rgb(0,0,0)"  stroke-width="1.0"/>
<line x1="74.7" y1="160.6" x2="51.1" y2="146.4" stroke="rgb(0,0,0)"  stroke-width="1.0"/>
<line x1="247.4" y1="100.3" x2="282.4" y2="79.8" stroke="rgb(0,0,0)"  stroke-width="1.0"/>
<line x1="282.4" y1="79.8" x2="306.0" y2="93.3" stroke="rgb(0,0,0)"  stroke-width="1.0"/>
<line x1="279.4" y1="79.8" x2="279.3" y2="53.0" stroke="rgb(0,0,0)"  stroke-width="1.0"/>
<line x1="285.4" y1="79.8" x2="285.3" y2="53.0" stroke="rgb(0,0,0)"  stroke-width="1.0"/>
<line x1="317.3" y1="112.8" x2="317.4" y2="139.6" stroke="rgb(0,0,0)"  stroke-width="1.0"/>
<line x1="317.4" y1="139.6" x2="351.9" y2="159.6" stroke="rgb(0,0,0)"  stroke-width="1.0"/>
<line x1="351.9" y1="159.6" x2="375.5" y2="173.4" stroke="rgb(0,0,0)"  stroke-width="1.0"/>
<line x1="354.0" y1="156.0" x2="377.6" y2="169.8" stroke="rgb(0,0,0)"  stroke-width="1.0"/>
<line x1="349.8" y1="163.3" x2="373.4" y2="177.0" stroke="rgb(0,0,0)"  stroke-width="1.0"/>
<line x1="143.8" y1="160.1" x2="120.5" y2="146.8" stroke="rgb(0,0,0)"  stroke-width="1.0"/>
<line x1="135.0" y1="163.4" x2="118.6" y2="154.1" stroke="rgb(0,0,0)"  stroke-width="1.0"/>
<line x1="97.8" y1="146.9" x2="74.7" y2="160.6" stroke="rgb(0,0,0)"  stroke-width="1.0"/>
<line x1="74.7" y1="160.6" x2="74.7" y2="200.5" stroke="rgb(0,0,0)"  stroke-width="1.0"/>
<line x1="81.9" y1="166.6" x2="81.9" y2="194.5" stroke="rgb(0,0,0)"  stroke-width="1.0"/>
<line x1="74.7" y1="200.5" x2="97.7" y2="213.8" stroke="rgb(0,0,0)"  stroke-width="1.0"/>
<line x1="120.5" y1="213.7" x2="143.8" y2="200.5" stroke="rgb(0,0,0)"  stroke-width="1.0"/>
<line x1="118.6" y1="206.5" x2="135.0" y2="197.2" stroke="rgb(0,0,0)"  stroke-width="1.0"/>
<line x1="143.8" y1="200.5" x2="143.8" y2="160.1" stroke="rgb(0,0,0)"  stroke-width="1.0"/>
<line x1="189.7" y1="146.8" x2="212.9" y2="160.1" stroke="rgb(0,0,0)"  stroke-width="1.0"/>
<line x1="212.9" y1="160.1" x2="247.4" y2="140.3" stroke="rgb(0,0,0)"  stroke-width="1.0"/>
<line x1="247.4" y1="140.3" x2="247.4" y2="100.3" stroke="rgb(0,0,0)"  stroke-width="1.0"/>
<line x1="247.4" y1="100.3" x2="212.9" y2="80.5" stroke="rgb(0,0,0)"  stroke-width="1.0"/>
<line x1="212.9" y1="80.5" x2="178.5" y2="100.3" stroke="rgb(0,0,0)"  stroke-width="1.0"/>
<line x1="178.5" y1="100.3" x2="178.5" y2="127.3" stroke="rgb(0,0,0)"  stroke-width="1.0"/>
<text x="172.457339" y="148.305835" fill="rgb(12,12,255)"  stroke="rgb(12,12,255)" stroke-width="1" font-size="16" >N</text>
<text x="102.974197" y="148.305835" fill="rgb(12,12,255)"  stroke="rgb(12,12,255)" stroke-width="1" font-size="16" >N</text>
<text x="102.974197" y="228.282943" fill="rgb(12,12,255)"  stroke="rgb(12,12,255)" stroke-width="1" font-size="16" >N</text>
<text x="174.457339" y="228.612546" fill="rgb(102,102,102)"  stroke="rgb(102,102,102)" stroke-width="1" font-size="16" >CH</text>
<text x="198.457339" y="232.292546" fill="rgb(102,102,102)"  stroke="rgb(102,102,102)" stroke-width="1" font-size="13" >3</text>
<text x="14.000000" y="147.636936" fill="rgb(102,102,102)"  stroke="rgb(102,102,102)" stroke-width="1" font-size="16" >H</text>
<text x="26.000000" y="151.316936" fill="rgb(102,102,102)"  stroke="rgb(102,102,102)" stroke-width="1" font-size="13" >3</text>
<text x="32.500000" y="147.636936" fill="rgb(102,102,102)"  stroke="rgb(102,102,102)" stroke-width="1" font-size="16" >C</text>
<text x="311.249128" y="107.813183" fill="rgb(12,12,255)"  stroke="rgb(12,12,255)" stroke-width="1" font-size="16" >NH</text>
<text x="276.253085" y="48.000000" fill="rgb(255,12,12)"  stroke="rgb(255,12,12)" stroke-width="1" font-size="16" >O</text>
<text x="380.722577" y="187.959940" fill="rgb(102,102,102)"  stroke="rgb(102,102,102)" stroke-width="1" font-size="16" >CH</text>
<text font-size="18.000000" fill ="black" font-family="sans-serif"
x="10.000000" y="20.000000" ></text>
<title> - OBDepict</title>
</svg>
