<?xml version="1.0"?>
<svg xmlns="http://www.w3.org/2000/svg"
xmlns:xlink="http://www.w3.org/1999/xlink" xmlns:cml="http://www.xml-cml.org/schema" width="345.697" height="319.235" x="0" y="0" font-family="sans-serif" stroke="rgb(0,0,0)" stroke-width="1"  stroke-linecap="round">
<rect x="0%" y="0%" width="100%" height="100%" stroke-width="0" fill="rgb(255,255,255)"  />
<line x1="139.0" y1="246.9" x2="160.0" y2="212.9" stroke="rgb(0,0,0)"  stroke-width="1.0"/>
<line x1="144.1" y1="250.0" x2="165.1" y2="216.0" stroke="rgb(0,0,0)"  stroke-width="1.0"/>
<line x1="150.1" y1="190.7" x2="162.6" y2="214.4" stroke="rgb(0,0,0)"  stroke-width="1.0"/>
<line x1="165.3" y1="144.8" x2="150.9" y2="168.1" stroke="rgb(0,0,0)"  stroke-width="1.0"/>
<line x1="202.0" y1="215.9" x2="162.6" y2="214.4" stroke="rgb(0,0,0)"  stroke-width="1.0"/>
<line x1="101.6" y1="247.7" x2="141.5" y2="248.5" stroke="rgb(0,0,0)"  stroke-width="1.0"/>
<line x1="284.5" y1="150.2" x2="263.4" y2="183.6" stroke="rgb(0,0,0)"  stroke-width="1.0"/>
<line x1="298.8" y1="127.5" x2="284.5" y2="150.2" stroke="rgb(0,0,0)"  stroke-width="1.0"/>
<line x1="302.3" y1="129.7" x2="288.0" y2="152.4" stroke="rgb(0,0,0)"  stroke-width="1.0"/>
<line x1="295.2" y1="125.3" x2="280.9" y2="147.9" stroke="rgb(0,0,0)"  stroke-width="1.0"/>
<line x1="192.7" y1="148.5" x2="165.2" y2="147.8" stroke="rgb(0,0,0)"  stroke-width="1.0"/>
<line x1="192.9" y1="142.5" x2="165.4" y2="141.8" stroke="rgb(0,0,0)"  stroke-width="1.0"/>
<line x1="145.8" y1="110.0" x2="165.3" y2="144.8" stroke="rgb(0,0,0)"  stroke-width="1.0"/>
<line x1="211.6" y1="240.5" x2="199.4" y2="217.3" stroke="rgb(0,0,0)"  stroke-width="1.0"/>
<line x1="217.0" y1="237.7" x2="204.7" y2="214.5" stroke="rgb(0,0,0)"  stroke-width="1.0"/>
<line x1="216.9" y1="192.9" x2="202.0" y2="215.9" stroke="rgb(0,0,0)"  stroke-width="1.0"/>
<line x1="263.4" y1="183.6" x2="237.0" y2="182.6" stroke="rgb(0,0,0)"  stroke-width="1.0"/>
<line x1="101.6" y1="247.7" x2="86.1" y2="268.8" stroke="rgb(0,0,0)"  stroke-width="1.0"/>
<line x1="66.1" y1="274.9" x2="40.0" y2="265.6" stroke="rgb(0,0,0)"  stroke-width="1.0"/>
<line x1="40.0" y1="265.6" x2="41.1" y2="226.1" stroke="rgb(0,0,0)"  stroke-width="1.0"/>
<line x1="47.4" y1="259.8" x2="48.1" y2="232.3" stroke="rgb(0,0,0)"  stroke-width="1.0"/>
<line x1="41.1" y1="226.1" x2="80.5" y2="215.3" stroke="rgb(0,0,0)"  stroke-width="1.0"/>
<line x1="80.5" y1="215.3" x2="101.6" y2="247.7" stroke="rgb(0,0,0)"  stroke-width="1.0"/>
<line x1="77.7" y1="224.3" x2="92.3" y2="246.6" stroke="rgb(0,0,0)"  stroke-width="1.0"/>
<line x1="145.8" y1="110.0" x2="105.3" y2="110.0" stroke="rgb(0,0,0)"  stroke-width="1.0"/>
<line x1="105.3" y1="110.0" x2="85.4" y2="74.6" stroke="rgb(0,0,0)"  stroke-width="1.0"/>
<line x1="108.7" y1="101.3" x2="94.6" y2="76.3" stroke="rgb(0,0,0)"  stroke-width="1.0"/>
<line x1="85.4" y1="74.6" x2="105.9" y2="40.0" stroke="rgb(0,0,0)"  stroke-width="1.0"/>
<line x1="105.9" y1="40.0" x2="146.2" y2="40.0" stroke="rgb(0,0,0)"  stroke-width="1.0"/>
<line x1="111.9" y1="47.2" x2="140.2" y2="47.2" stroke="rgb(0,0,0)"  stroke-width="1.0"/>
<line x1="146.2" y1="40.0" x2="166.4" y2="74.6" stroke="rgb(0,0,0)"  stroke-width="1.0"/>
<line x1="166.4" y1="74.6" x2="145.8" y2="110.0" stroke="rgb(0,0,0)"  stroke-width="1.0"/>
<line x1="157.1" y1="76.1" x2="142.6" y2="101.2" stroke="rgb(0,0,0)"  stroke-width="1.0"/>
<text x="126.045814" y="187.146483" fill="rgb(12,12,255)"  stroke="rgb(12,12,255)" stroke-width="1" font-size="16" >HN</text>
<text x="299.697078" y="124.501707" fill="rgb(102,102,102)"  stroke="rgb(102,102,102)" stroke-width="1" font-size="16" >CH</text>
<text x="72.340582" y="287.234559" fill="rgb(255,12,12)"  stroke="rgb(255,12,12)" stroke-width="1" font-size="16" >O</text>
<text x="199.788458" y="153.845226" fill="rgb(255,12,12)"  stroke="rgb(255,12,12)" stroke-width="1" font-size="16" >O</text>
<text x="214.372915" y="258.613715" fill="rgb(255,12,12)"  stroke="rgb(255,12,12)" stroke-width="1" font-size="16" >O</text>
<text x="217.971739" y="190.027483" fill="rgb(255,12,12)"  stroke="rgb(255,12,12)" stroke-width="1" font-size="16" >O</text>
<text font-size="18.000000" fill ="black" font-family="sans-serif"
x="10.000000" y="20.000000" ></text>
<title> - OBDepict</title>
</svg>
