<?xml version="1.0"?>
<svg xmlns="http://www.w3.org/2000/svg"
xmlns:xlink="http://www.w3.org/1999/xlink" xmlns:cml="http://www.xml-cml.org/schema" width="281.815" height="360.147" x="0" y="0" font-family="sans-serif" stroke="rgb(0,0,0)" stroke-width="1"  stroke-linecap="round">
<rect x="0%" y="0%" width="100%" height="100%" stroke-width="0" fill="rgb(255,255,255)"  />
<line x1="139.3" y1="182.9" x2="104.7" y2="202.9" stroke="rgb(0,0,0)"  stroke-width="1.0"/>
<line x1="136.3" y1="177.7" x2="101.7" y2="197.7" stroke="rgb(0,0,0)"  stroke-width="1.0"/>
<line x1="172.5" y1="200.3" x2="137.8" y2="180.3" stroke="rgb(0,0,0)"  stroke-width="1.0"/>
<line x1="172.7" y1="80.0" x2="172.7" y2="120.2" stroke="rgb(0,0,0)"  stroke-width="1.0"/>
<line x1="172.7" y1="53.0" x2="172.7" y2="80.0" stroke="rgb(0,0,0)"  stroke-width="1.0"/>
<line x1="176.9" y1="53.0" x2="176.9" y2="80.0" stroke="rgb(0,0,0)"  stroke-width="1.0"/>
<line x1="168.5" y1="53.0" x2="168.5" y2="80.0" stroke="rgb(0,0,0)"  stroke-width="1.0"/>
<line x1="46.3" y1="271.9" x2="57.3" y2="247.1" stroke="rgb(0,0,0)"  stroke-width="1.0"/>
<line x1="51.8" y1="274.3" x2="62.7" y2="249.5" stroke="rgb(0,0,0)"  stroke-width="1.0"/>
<line x1="64.1" y1="157.1" x2="69.8" y2="183.5" stroke="rgb(0,0,0)"  stroke-width="1.0"/>
<line x1="58.3" y1="158.3" x2="63.9" y2="184.8" stroke="rgb(0,0,0)"  stroke-width="1.0"/>
<line x1="207.3" y1="153.2" x2="207.3" y2="180.2" stroke="rgb(0,0,0)"  stroke-width="1.0"/>
<line x1="172.7" y1="120.2" x2="196.1" y2="133.7" stroke="rgb(0,0,0)"  stroke-width="1.0"/>
<line x1="46.5" y1="225.2" x2="60.0" y2="248.3" stroke="rgb(0,0,0)"  stroke-width="1.0"/>
<line x1="60.0" y1="248.3" x2="86.3" y2="242.9" stroke="rgb(0,0,0)"  stroke-width="1.0"/>
<line x1="100.3" y1="227.4" x2="103.2" y2="200.3" stroke="rgb(0,0,0)"  stroke-width="1.0"/>
<line x1="103.2" y1="200.3" x2="66.8" y2="184.2" stroke="rgb(0,0,0)"  stroke-width="1.0"/>
<line x1="66.8" y1="184.2" x2="48.7" y2="204.3" stroke="rgb(0,0,0)"  stroke-width="1.0"/>
<line x1="172.5" y1="200.3" x2="172.7" y2="240.3" stroke="rgb(0,0,0)"  stroke-width="1.0"/>
<line x1="172.7" y1="240.3" x2="207.0" y2="260.2" stroke="rgb(0,0,0)"  stroke-width="1.0"/>
<line x1="207.0" y1="260.2" x2="241.8" y2="240.0" stroke="rgb(0,0,0)"  stroke-width="1.0"/>
<line x1="241.8" y1="240.0" x2="241.8" y2="200.0" stroke="rgb(0,0,0)"  stroke-width="1.0"/>
<line x1="234.6" y1="234.0" x2="234.6" y2="206.0" stroke="rgb(0,0,0)"  stroke-width="1.0"/>
<line x1="241.8" y1="200.0" x2="207.3" y2="180.2" stroke="rgb(0,0,0)"  stroke-width="1.0"/>
<line x1="207.3" y1="180.2" x2="172.5" y2="200.3" stroke="rgb(0,0,0)"  stroke-width="1.0"/>
<line x1="205.7" y1="189.4" x2="181.3" y2="203.5" stroke="rgb(0,0,0)"  stroke-width="1.0"/>
<line x1="207.0" y1="260.2" x2="207.2" y2="300.1" stroke="rgb(0,0,0)"  stroke-width="1.0"/>
<line x1="199.8" y1="266.2" x2="199.9" y2="294.2" stroke="rgb(0,0,0)"  stroke-width="1.0"/>
<line x1="207.2" y1="300.1" x2="172.3" y2="320.1" stroke="rgb(0,0,0)"  stroke-width="1.0"/>
<line x1="172.3" y1="320.1" x2="137.8" y2="300.3" stroke="rgb(0,0,0)"  stroke-width="1.0"/>
<line x1="170.7" y1="310.9" x2="146.6" y2="297.1" stroke="rgb(0,0,0)"  stroke-width="1.0"/>
<line x1="137.8" y1="300.3" x2="137.8" y2="260.3" stroke="rgb(0,0,0)"  stroke-width="1.0"/>
<line x1="137.8" y1="260.3" x2="172.7" y2="240.3" stroke="rgb(0,0,0)"  stroke-width="1.0"/>
<line x1="146.6" y1="263.6" x2="171.0" y2="249.6" stroke="rgb(0,0,0)"  stroke-width="1.0"/>
<text x="22.000000" y="221.986353" fill="rgb(12,12,255)"  stroke="rgb(12,12,255)" stroke-width="1" font-size="16" >HN</text>
<text x="92.997407" y="248.321624" fill="rgb(178,178,0)"  stroke="rgb(178,178,0)" stroke-width="1" font-size="16" >S</text>
<text x="166.655686" y="48.000000" fill="rgb(102,102,102)"  stroke="rgb(102,102,102)" stroke-width="1" font-size="16" >CH</text>
<text x="37.830056" y="292.978138" fill="rgb(255,12,12)"  stroke="rgb(255,12,12)" stroke-width="1" font-size="16" >O</text>
<text x="52.500625" y="152.992016" fill="rgb(255,12,12)"  stroke="rgb(255,12,12)" stroke-width="1" font-size="16" >O</text>
<text x="201.320117" y="148.158388" fill="rgb(255,12,12)"  stroke="rgb(255,12,12)" stroke-width="1" font-size="16" >O</text>
<text font-size="18.000000" fill ="black" font-family="sans-serif"
x="10.000000" y="20.000000" ></text>
<title> - OBDepict</title>
</svg>
