<?xml version="1.0"?>
<svg xmlns="http://www.w3.org/2000/svg"
xmlns:xlink="http://www.w3.org/1999/xlink" xmlns:cml="http://www.xml-cml.org/schema" width="499.958" height="283.614" x="0" y="0" font-family="sans-serif" stroke="rgb(0,0,0)" stroke-width="1"  stroke-linecap="round">
<rect x="0%" y="0%" width="100%" height="100%" stroke-width="0" fill="rgb(255,255,255)"  />
<line x1="266.7" y1="117.2" x2="239.7" y2="116.9" stroke="rgb(0,0,0)"  stroke-width="1.0"/>
<line x1="266.8" y1="111.2" x2="239.8" y2="110.9" stroke="rgb(0,0,0)"  stroke-width="1.0"/>
<line x1="85.2" y1="80.2" x2="109.1" y2="93.9" stroke="rgb(0,0,0)"  stroke-width="1.0"/>
<line x1="299.8" y1="79.8" x2="286.3" y2="103.1" stroke="rgb(0,0,0)"  stroke-width="1.0"/>
<line x1="339.8" y1="79.8" x2="299.8" y2="79.8" stroke="rgb(0,0,0)"  stroke-width="1.0"/>
<line x1="201.8" y1="213.9" x2="228.5" y2="184.2" stroke="rgb(0,0,0)"  stroke-width="1.0"/>
<line x1="183.8" y1="233.9" x2="201.8" y2="213.9" stroke="rgb(0,0,0)"  stroke-width="1.0"/>
<line x1="180.7" y1="231.1" x2="198.7" y2="211.1" stroke="rgb(0,0,0)"  stroke-width="1.0"/>
<line x1="187.0" y1="236.7" x2="204.9" y2="216.7" stroke="rgb(0,0,0)"  stroke-width="1.0"/>
<line x1="90.8" y1="52.6" x2="83.4" y2="64.3" stroke="rgb(0,0,0)"  stroke-width="1.0"/>
<line x1="85.7" y1="49.4" x2="78.3" y2="61.1" stroke="rgb(0,0,0)"  stroke-width="1.0"/>
<line x1="57.0" y1="95.2" x2="64.5" y2="83.2" stroke="rgb(0,0,0)"  stroke-width="1.0"/>
<line x1="62.1" y1="98.4" x2="69.6" y2="86.4" stroke="rgb(0,0,0)"  stroke-width="1.0"/>
<line x1="288.9" y1="55.0" x2="302.4" y2="78.3" stroke="rgb(0,0,0)"  stroke-width="1.0"/>
<line x1="283.7" y1="58.0" x2="297.2" y2="81.3" stroke="rgb(0,0,0)"  stroke-width="1.0"/>
<line x1="51.1" y1="59.6" x2="62.9" y2="66.9" stroke="rgb(0,0,0)"  stroke-width="1.0"/>
<line x1="228.5" y1="184.2" x2="220.3" y2="158.4" stroke="rgb(0,0,0)"  stroke-width="1.0"/>
<line x1="345.8" y1="137.9" x2="360.0" y2="114.3" stroke="rgb(0,0,0)"  stroke-width="1.0"/>
<line x1="447.0" y1="80.0" x2="420.0" y2="80.0" stroke="rgb(0,0,0)"  stroke-width="1.0"/>
<line x1="239.8" y1="113.9" x2="224.0" y2="92.1" stroke="rgb(0,0,0)"  stroke-width="1.0"/>
<line x1="204.0" y1="85.6" x2="178.2" y2="93.9" stroke="rgb(0,0,0)"  stroke-width="1.0"/>
<line x1="178.2" y1="93.9" x2="178.2" y2="133.9" stroke="rgb(0,0,0)"  stroke-width="1.0"/>
<line x1="185.4" y1="99.9" x2="185.4" y2="127.9" stroke="rgb(0,0,0)"  stroke-width="1.0"/>
<line x1="178.2" y1="133.9" x2="204.0" y2="142.1" stroke="rgb(0,0,0)"  stroke-width="1.0"/>
<line x1="224.0" y1="135.5" x2="239.8" y2="113.9" stroke="rgb(0,0,0)"  stroke-width="1.0"/>
<line x1="339.8" y1="79.8" x2="360.0" y2="114.3" stroke="rgb(0,0,0)"  stroke-width="1.0"/>
<line x1="349.0" y1="81.3" x2="363.2" y2="105.5" stroke="rgb(0,0,0)"  stroke-width="1.0"/>
<line x1="360.0" y1="114.3" x2="400.0" y2="114.5" stroke="rgb(0,0,0)"  stroke-width="1.0"/>
<line x1="400.0" y1="114.5" x2="420.0" y2="80.0" stroke="rgb(0,0,0)"  stroke-width="1.0"/>
<line x1="396.7" y1="105.7" x2="410.7" y2="81.6" stroke="rgb(0,0,0)"  stroke-width="1.0"/>
<line x1="420.0" y1="80.0" x2="400.0" y2="45.5" stroke="rgb(0,0,0)"  stroke-width="1.0"/>
<line x1="400.0" y1="45.5" x2="360.0" y2="45.2" stroke="rgb(0,0,0)"  stroke-width="1.0"/>
<line x1="393.9" y1="52.6" x2="365.9" y2="52.5" stroke="rgb(0,0,0)"  stroke-width="1.0"/>
<line x1="360.0" y1="45.2" x2="339.8" y2="79.8" stroke="rgb(0,0,0)"  stroke-width="1.0"/>
<line x1="109.1" y1="93.9" x2="143.6" y2="73.9" stroke="rgb(0,0,0)"  stroke-width="1.0"/>
<line x1="117.9" y1="97.2" x2="142.0" y2="83.2" stroke="rgb(0,0,0)"  stroke-width="1.0"/>
<line x1="143.6" y1="73.9" x2="178.2" y2="93.9" stroke="rgb(0,0,0)"  stroke-width="1.0"/>
<line x1="178.2" y1="133.9" x2="143.6" y2="153.9" stroke="rgb(0,0,0)"  stroke-width="1.0"/>
<line x1="143.6" y1="153.9" x2="109.1" y2="133.9" stroke="rgb(0,0,0)"  stroke-width="1.0"/>
<line x1="142.0" y1="144.7" x2="117.9" y2="130.7" stroke="rgb(0,0,0)"  stroke-width="1.0"/>
<line x1="109.1" y1="133.9" x2="109.1" y2="93.9" stroke="rgb(0,0,0)"  stroke-width="1.0"/>
<text x="273.771401" y="122.332231" fill="rgb(12,12,255)"  stroke="rgb(12,12,255)" stroke-width="1" font-size="16" >N</text>
<text x="67.936488" y="81.728437" fill="rgb(178,178,0)"  stroke="rgb(178,178,0)" stroke-width="1" font-size="16" >S</text>
<text x="210.344908" y="154.047897" fill="rgb(12,12,255)"  stroke="rgb(12,12,255)" stroke-width="1" font-size="16" >N</text>
<text x="210.344908" y="89.610179" fill="rgb(178,178,0)"  stroke="rgb(178,178,0)" stroke-width="1" font-size="16" >S</text>
<text x="157.141154" y="251.614091" fill="rgb(102,102,102)"  stroke="rgb(102,102,102)" stroke-width="1" font-size="16" >HC</text>
<text x="89.148003" y="48.000000" fill="rgb(255,12,12)"  stroke="rgb(255,12,12)" stroke-width="1" font-size="16" >O</text>
<text x="46.729812" y="115.868138" fill="rgb(255,12,12)"  stroke="rgb(255,12,12)" stroke-width="1" font-size="16" >O</text>
<text x="273.771401" y="53.249656" fill="rgb(255,12,12)"  stroke="rgb(255,12,12)" stroke-width="1" font-size="16" >O</text>
<text x="14.000000" y="60.724973" fill="rgb(12,12,255)"  stroke="rgb(12,12,255)" stroke-width="1" font-size="16" >H</text>
<text x="26.000000" y="64.404973" fill="rgb(12,12,255)"  stroke="rgb(12,12,255)" stroke-width="1" font-size="13" >2</text>
<text x="32.500000" y="60.724973" fill="rgb(12,12,255)"  stroke="rgb(12,12,255)" stroke-width="1" font-size="16" >N</text>
<text x="321.162675" y="157.076731" fill="rgb(30,239,30)"  stroke="rgb(30,239,30)" stroke-width="1" font-size="16" >Cl</text>
<text x="453.957993" y="87.994156" fill="rgb(30,239,30)"  stroke="rgb(30,239,30)" stroke-width="1" font-size="16" >Cl</text>
<text font-size="18.000000" fill ="black" font-family="sans-serif"
x="10.000000" y="20.000000" ></text>
<title> - OBDepict</title>
</svg>
