<?xml version="1.0"?>
<svg xmlns="http://www.w3.org/2000/svg"
xmlns:xlink="http://www.w3.org/1999/xlink" xmlns:cml="http://www.xml-cml.org/schema" width="407.489" height="324.782" x="0" y="0" font-family="sans-serif" stroke="rgb(0,0,0)" stroke-width="1"  stroke-linecap="round">
<rect x="0%" y="0%" width="100%" height="100%" stroke-width="0" fill="rgb(255,255,255)"  />
<line x1="213.3" y1="183.9" x2="242.6" y2="190.4" stroke="rgb(0,0,0)"  stroke-width="1.0"/>
<line x1="165.7" y1="180.6" x2="187.7" y2="180.9" stroke="rgb(0,0,0)"  stroke-width="1.0"/>
<line x1="360.1" y1="244.9" x2="367.5" y2="204.7" stroke="rgb(0,0,0)"  stroke-width="1.0"/>
<line x1="355.4" y1="272.0" x2="360.1" y2="244.9" stroke="rgb(0,0,0)"  stroke-width="1.0"/>
<line x1="351.3" y1="271.3" x2="355.9" y2="244.2" stroke="rgb(0,0,0)"  stroke-width="1.0"/>
<line x1="359.6" y1="272.7" x2="364.2" y2="245.6" stroke="rgb(0,0,0)"  stroke-width="1.0"/>
<line x1="135.5" y1="180.9" x2="165.7" y2="180.6" stroke="rgb(0,0,0)"  stroke-width="1.0"/>
<line x1="168.5" y1="159.0" x2="168.7" y2="180.5" stroke="rgb(0,0,0)"  stroke-width="1.0"/>
<line x1="162.5" y1="159.0" x2="162.7" y2="180.6" stroke="rgb(0,0,0)"  stroke-width="1.0"/>
<line x1="324.4" y1="182.8" x2="302.9" y2="190.4" stroke="rgb(0,0,0)"  stroke-width="1.0"/>
<line x1="101.9" y1="145.6" x2="116.0" y2="169.9" stroke="rgb(0,0,0)"  stroke-width="1.0"/>
<line x1="46.5" y1="51.2" x2="60.6" y2="75.4" stroke="rgb(0,0,0)"  stroke-width="1.0"/>
<line x1="367.5" y1="204.7" x2="346.5" y2="186.9" stroke="rgb(0,0,0)"  stroke-width="1.0"/>
<line x1="242.6" y1="190.4" x2="242.6" y2="213.8" stroke="rgb(0,0,0)"  stroke-width="1.0"/>
<line x1="249.8" y1="196.4" x2="249.8" y2="211.3" stroke="rgb(0,0,0)"  stroke-width="1.0"/>
<line x1="255.6" y1="225.3" x2="289.9" y2="225.3" stroke="rgb(0,0,0)"  stroke-width="1.0"/>
<line x1="302.9" y1="213.8" x2="302.9" y2="190.4" stroke="rgb(0,0,0)"  stroke-width="1.0"/>
<line x1="295.7" y1="211.3" x2="295.7" y2="196.4" stroke="rgb(0,0,0)"  stroke-width="1.0"/>
<line x1="302.9" y1="190.4" x2="283.8" y2="179.2" stroke="rgb(0,0,0)"  stroke-width="1.0"/>
<line x1="261.4" y1="179.3" x2="242.6" y2="190.4" stroke="rgb(0,0,0)"  stroke-width="1.0"/>
<line x1="101.9" y1="145.6" x2="61.2" y2="146.0" stroke="rgb(0,0,0)"  stroke-width="1.0"/>
<line x1="95.8" y1="138.5" x2="67.1" y2="138.7" stroke="rgb(0,0,0)"  stroke-width="1.0"/>
<line x1="61.2" y1="146.0" x2="40.5" y2="110.9" stroke="rgb(0,0,0)"  stroke-width="1.0"/>
<line x1="40.5" y1="110.9" x2="60.6" y2="75.4" stroke="rgb(0,0,0)"  stroke-width="1.0"/>
<line x1="49.8" y1="109.2" x2="63.9" y2="84.2" stroke="rgb(0,0,0)"  stroke-width="1.0"/>
<line x1="60.6" y1="75.4" x2="101.4" y2="75.4" stroke="rgb(0,0,0)"  stroke-width="1.0"/>
<line x1="101.4" y1="75.4" x2="122.4" y2="110.4" stroke="rgb(0,0,0)"  stroke-width="1.0"/>
<line x1="98.3" y1="84.3" x2="113.1" y2="108.9" stroke="rgb(0,0,0)"  stroke-width="1.0"/>
<line x1="122.4" y1="110.4" x2="101.9" y2="145.6" stroke="rgb(0,0,0)"  stroke-width="1.0"/>
<text x="266.610075" y="180.620235" fill="rgb(178,178,0)"  stroke="rgb(178,178,0)" stroke-width="1" font-size="16" >S</text>
<text x="236.631394" y="233.348346" fill="rgb(12,12,255)"  stroke="rgb(12,12,255)" stroke-width="1" font-size="16" >N</text>
<text x="296.944293" y="233.348346" fill="rgb(12,12,255)"  stroke="rgb(12,12,255)" stroke-width="1" font-size="16" >N</text>
<text x="194.653339" y="189.088928" fill="rgb(12,12,255)"  stroke="rgb(12,12,255)" stroke-width="1" font-size="16" >N</text>
<text x="194.653339" y="173.088928" fill="rgb(12,12,255)"  stroke="rgb(12,12,255)" stroke-width="1" font-size="16" >H</text>
<text x="335.203397" y="292.782279" fill="rgb(102,102,102)"  stroke="rgb(102,102,102)" stroke-width="1" font-size="16" >HC</text>
<text x="116.533962" y="189.088928" fill="rgb(12,12,255)"  stroke="rgb(12,12,255)" stroke-width="1" font-size="16" >N</text>
<text x="116.533962" y="205.088928" fill="rgb(12,12,255)"  stroke="rgb(12,12,255)" stroke-width="1" font-size="16" >H</text>
<text x="159.386045" y="153.989527" fill="rgb(255,12,12)"  stroke="rgb(255,12,12)" stroke-width="1" font-size="16" >O</text>
<text x="330.626485" y="186.442153" fill="rgb(178,178,0)"  stroke="rgb(178,178,0)" stroke-width="1" font-size="16" >S</text>
<text x="34.000000" y="48.000000" fill="rgb(127,178,255)"  stroke="rgb(127,178,255)" stroke-width="1" font-size="16" >F</text>
<text font-size="18.000000" fill ="black" font-family="sans-serif"
x="10.000000" y="20.000000" ></text>
<title> - OBDepict</title>
</svg>
