<?xml version="1.0"?>
<svg xmlns="http://www.w3.org/2000/svg"
xmlns:xlink="http://www.w3.org/1999/xlink" xmlns:cml="http://www.xml-cml.org/schema" width="307.563" height="365.709" x="0" y="0" font-family="sans-serif" stroke="rgb(0,0,0)" stroke-width="1"  stroke-linecap="round">
<rect x="0%" y="0%" width="100%" height="100%" stroke-width="0" fill="rgb(255,255,255)"  />
<line x1="188.2" y1="168.9" x2="164.9" y2="182.7" stroke="rgb(0,0,0)"  stroke-width="1.0"/>
<line x1="185.2" y1="163.8" x2="161.8" y2="177.5" stroke="rgb(0,0,0)"  stroke-width="1.0"/>
<line x1="197.9" y1="119.6" x2="197.9" y2="146.7" stroke="rgb(0,0,0)"  stroke-width="1.0"/>
<line x1="179.7" y1="286.7" x2="188.8" y2="247.6" stroke="rgb(0,0,0)"  stroke-width="1.0"/>
<line x1="174.0" y1="313.0" x2="179.7" y2="286.7" stroke="rgb(0,0,0)"  stroke-width="1.0"/>
<line x1="169.9" y1="312.1" x2="175.6" y2="285.8" stroke="rgb(0,0,0)"  stroke-width="1.0"/>
<line x1="178.1" y1="313.9" x2="183.8" y2="287.6" stroke="rgb(0,0,0)"  stroke-width="1.0"/>
<line x1="188.8" y1="247.6" x2="168.4" y2="228.6" stroke="rgb(0,0,0)"  stroke-width="1.0"/>
<line x1="175.6" y1="103.4" x2="199.4" y2="116.9" stroke="rgb(0,0,0)"  stroke-width="1.0"/>
<line x1="172.6" y1="108.6" x2="196.4" y2="122.2" stroke="rgb(0,0,0)"  stroke-width="1.0"/>
<line x1="112.3" y1="285.3" x2="99.2" y2="261.5" stroke="rgb(0,0,0)"  stroke-width="1.0"/>
<line x1="232.4" y1="99.6" x2="197.9" y2="119.6" stroke="rgb(0,0,0)"  stroke-width="1.0"/>
<line x1="232.4" y1="60.0" x2="232.4" y2="99.6" stroke="rgb(0,0,0)"  stroke-width="1.0"/>
<line x1="256.3" y1="46.4" x2="232.4" y2="60.0" stroke="rgb(0,0,0)"  stroke-width="1.0"/>
<line x1="163.4" y1="180.1" x2="139.4" y2="168.9" stroke="rgb(0,0,0)"  stroke-width="1.0"/>
<line x1="118.7" y1="172.9" x2="100.4" y2="192.4" stroke="rgb(0,0,0)"  stroke-width="1.0"/>
<line x1="100.4" y1="192.4" x2="119.8" y2="227.6" stroke="rgb(0,0,0)"  stroke-width="1.0"/>
<line x1="109.6" y1="194.2" x2="123.2" y2="218.8" stroke="rgb(0,0,0)"  stroke-width="1.0"/>
<line x1="119.8" y1="227.6" x2="146.2" y2="222.3" stroke="rgb(0,0,0)"  stroke-width="1.0"/>
<line x1="160.4" y1="206.8" x2="163.4" y2="180.1" stroke="rgb(0,0,0)"  stroke-width="1.0"/>
<line x1="99.2" y1="261.5" x2="60.0" y2="261.3" stroke="rgb(0,0,0)"  stroke-width="1.0"/>
<line x1="93.2" y1="254.3" x2="66.0" y2="254.1" stroke="rgb(0,0,0)"  stroke-width="1.0"/>
<line x1="60.0" y1="261.3" x2="40.0" y2="226.2" stroke="rgb(0,0,0)"  stroke-width="1.0"/>
<line x1="40.0" y1="226.2" x2="60.6" y2="191.8" stroke="rgb(0,0,0)"  stroke-width="1.0"/>
<line x1="49.3" y1="224.7" x2="63.7" y2="200.7" stroke="rgb(0,0,0)"  stroke-width="1.0"/>
<line x1="60.6" y1="191.8" x2="100.4" y2="192.4" stroke="rgb(0,0,0)"  stroke-width="1.0"/>
<line x1="119.8" y1="227.6" x2="99.2" y2="261.5" stroke="rgb(0,0,0)"  stroke-width="1.0"/>
<text x="152.929079" y="227.706562" fill="rgb(12,12,255)"  stroke="rgb(12,12,255)" stroke-width="1" font-size="16" >N</text>
<text x="191.901528" y="167.736672" fill="rgb(12,12,255)"  stroke="rgb(12,12,255)" stroke-width="1" font-size="16" >N</text>
<text x="121.636025" y="171.373263" fill="rgb(178,178,0)"  stroke="rgb(178,178,0)" stroke-width="1" font-size="16" >S</text>
<text x="153.246094" y="333.709303" fill="rgb(102,102,102)"  stroke="rgb(102,102,102)" stroke-width="1" font-size="16" >HC</text>
<text x="156.768776" y="107.568511" fill="rgb(255,12,12)"  stroke="rgb(255,12,12)" stroke-width="1" font-size="16" >O</text>
<text x="112.549385" y="304.635924" fill="rgb(30,239,30)"  stroke="rgb(30,239,30)" stroke-width="1" font-size="16" >Cl</text>
<text x="263.562544" y="48.000000" fill="rgb(102,102,102)"  stroke="rgb(102,102,102)" stroke-width="1" font-size="16" >CH</text>
<text x="287.562544" y="51.680000" fill="rgb(102,102,102)"  stroke="rgb(102,102,102)" stroke-width="1" font-size="13" >3</text>
<text font-size="18.000000" fill ="black" font-family="sans-serif"
x="10.000000" y="20.000000" ></text>
<title> - OBDepict</title>
</svg>
