<?xml version="1.0"?>
<svg xmlns="http://www.w3.org/2000/svg"
xmlns:xlink="http://www.w3.org/1999/xlink" xmlns:cml="http://www.xml-cml.org/schema" width="392.064" height="420.215" x="0" y="0" font-family="sans-serif" stroke="rgb(0,0,0)" stroke-width="1"  stroke-linecap="round">
<rect x="0%" y="0%" width="100%" height="100%" stroke-width="0" fill="rgb(255,255,255)"  />
<line x1="213.5" y1="219.8" x2="178.7" y2="199.7" stroke="rgb(0,0,0)"  stroke-width="1.0"/>
<line x1="177.2" y1="282.3" x2="153.7" y2="268.6" stroke="rgb(0,0,0)"  stroke-width="1.0"/>
<line x1="180.2" y1="277.2" x2="156.7" y2="263.5" stroke="rgb(0,0,0)"  stroke-width="1.0"/>
<line x1="246.4" y1="162.7" x2="223.0" y2="148.9" stroke="rgb(0,0,0)"  stroke-width="1.0"/>
<line x1="249.4" y1="157.6" x2="226.0" y2="143.8" stroke="rgb(0,0,0)"  stroke-width="1.0"/>
<line x1="109.4" y1="199.7" x2="86.0" y2="213.2" stroke="rgb(0,0,0)"  stroke-width="1.0"/>
<line x1="213.3" y1="339.7" x2="213.3" y2="367.2" stroke="rgb(0,0,0)"  stroke-width="1.0"/>
<line x1="213.3" y1="339.7" x2="185.9" y2="339.7" stroke="rgb(0,0,0)"  stroke-width="1.0"/>
<line x1="316.9" y1="160.3" x2="303.2" y2="136.6" stroke="rgb(0,0,0)"  stroke-width="1.0"/>
<line x1="316.9" y1="160.3" x2="340.8" y2="146.3" stroke="rgb(0,0,0)"  stroke-width="1.0"/>
<line x1="109.4" y1="159.6" x2="86.1" y2="146.5" stroke="rgb(0,0,0)"  stroke-width="1.0"/>
<line x1="63.5" y1="213.3" x2="40.0" y2="199.7" stroke="rgb(0,0,0)"  stroke-width="1.0"/>
<line x1="74.8" y1="127.1" x2="74.8" y2="100.2" stroke="rgb(0,0,0)"  stroke-width="1.0"/>
<line x1="40.0" y1="199.7" x2="40.0" y2="173.2" stroke="rgb(0,0,0)"  stroke-width="1.0"/>
<line x1="74.8" y1="100.2" x2="109.4" y2="80.1" stroke="rgb(0,0,0)"  stroke-width="1.0"/>
<line x1="109.4" y1="80.1" x2="109.4" y2="53.0" stroke="rgb(0,0,0)"  stroke-width="1.0"/>
<line x1="105.2" y1="80.1" x2="105.2" y2="53.0" stroke="rgb(0,0,0)"  stroke-width="1.0"/>
<line x1="113.6" y1="80.1" x2="113.6" y2="53.0" stroke="rgb(0,0,0)"  stroke-width="1.0"/>
<line x1="213.5" y1="219.8" x2="247.9" y2="200.1" stroke="rgb(0,0,0)"  stroke-width="1.0"/>
<line x1="247.9" y1="200.1" x2="282.1" y2="220.1" stroke="rgb(0,0,0)"  stroke-width="1.0"/>
<line x1="249.5" y1="209.3" x2="273.3" y2="223.3" stroke="rgb(0,0,0)"  stroke-width="1.0"/>
<line x1="282.1" y1="220.1" x2="282.1" y2="246.7" stroke="rgb(0,0,0)"  stroke-width="1.0"/>
<line x1="270.9" y1="266.3" x2="247.9" y2="279.8" stroke="rgb(0,0,0)"  stroke-width="1.0"/>
<line x1="247.9" y1="279.8" x2="213.5" y2="259.7" stroke="rgb(0,0,0)"  stroke-width="1.0"/>
<line x1="246.4" y1="270.5" x2="222.3" y2="256.5" stroke="rgb(0,0,0)"  stroke-width="1.0"/>
<line x1="213.5" y1="259.7" x2="213.5" y2="219.8" stroke="rgb(0,0,0)"  stroke-width="1.0"/>
<line x1="316.9" y1="199.7" x2="282.1" y2="220.1" stroke="rgb(0,0,0)"  stroke-width="1.0"/>
<line x1="247.9" y1="200.1" x2="247.9" y2="160.2" stroke="rgb(0,0,0)"  stroke-width="1.0"/>
<line x1="247.9" y1="160.2" x2="282.1" y2="140.3" stroke="rgb(0,0,0)"  stroke-width="1.0"/>
<line x1="282.1" y1="140.3" x2="316.9" y2="160.3" stroke="rgb(0,0,0)"  stroke-width="1.0"/>
<line x1="316.9" y1="160.3" x2="316.9" y2="199.7" stroke="rgb(0,0,0)"  stroke-width="1.0"/>
<line x1="213.5" y1="259.7" x2="178.7" y2="279.8" stroke="rgb(0,0,0)"  stroke-width="1.0"/>
<line x1="178.7" y1="279.8" x2="178.7" y2="319.7" stroke="rgb(0,0,0)"  stroke-width="1.0"/>
<line x1="178.7" y1="319.7" x2="213.3" y2="339.7" stroke="rgb(0,0,0)"  stroke-width="1.0"/>
<line x1="213.3" y1="339.7" x2="247.9" y2="319.7" stroke="rgb(0,0,0)"  stroke-width="1.0"/>
<line x1="247.9" y1="319.7" x2="247.9" y2="279.8" stroke="rgb(0,0,0)"  stroke-width="1.0"/>
<line x1="178.7" y1="199.7" x2="178.7" y2="159.6" stroke="rgb(0,0,0)"  stroke-width="1.0"/>
<line x1="171.5" y1="193.7" x2="171.5" y2="165.6" stroke="rgb(0,0,0)"  stroke-width="1.0"/>
<line x1="178.7" y1="159.6" x2="144.1" y2="139.7" stroke="rgb(0,0,0)"  stroke-width="1.0"/>
<line x1="144.1" y1="139.7" x2="109.4" y2="159.6" stroke="rgb(0,0,0)"  stroke-width="1.0"/>
<line x1="142.5" y1="149.0" x2="118.2" y2="162.9" stroke="rgb(0,0,0)"  stroke-width="1.0"/>
<line x1="109.4" y1="159.6" x2="109.4" y2="199.7" stroke="rgb(0,0,0)"  stroke-width="1.0"/>
<line x1="109.4" y1="199.7" x2="144.1" y2="219.8" stroke="rgb(0,0,0)"  stroke-width="1.0"/>
<line x1="118.2" y1="196.5" x2="142.5" y2="210.5" stroke="rgb(0,0,0)"  stroke-width="1.0"/>
<line x1="144.1" y1="219.8" x2="178.7" y2="199.7" stroke="rgb(0,0,0)"  stroke-width="1.0"/>
<text x="276.141048" y="267.699487" fill="rgb(12,12,255)"  stroke="rgb(12,12,255)" stroke-width="1" font-size="16" >NH</text>
<text x="137.963075" y="267.510455" fill="rgb(255,12,12)"  stroke="rgb(255,12,12)" stroke-width="1" font-size="16" >O</text>
<text x="207.328340" y="147.726806" fill="rgb(255,12,12)"  stroke="rgb(255,12,12)" stroke-width="1" font-size="16" >O</text>
<text x="68.777149" y="227.769989" fill="rgb(255,12,12)"  stroke="rgb(255,12,12)" stroke-width="1" font-size="16" >O</text>
<text x="209.328340" y="388.215031" fill="rgb(102,102,102)"  stroke="rgb(102,102,102)" stroke-width="1" font-size="16" >CH</text>
<text x="233.328340" y="391.895031" fill="rgb(102,102,102)"  stroke="rgb(102,102,102)" stroke-width="1" font-size="13" >3</text>
<text x="146.851132" y="347.737823" fill="rgb(102,102,102)"  stroke="rgb(102,102,102)" stroke-width="1" font-size="16" >H</text>
<text x="158.851132" y="351.417823" fill="rgb(102,102,102)"  stroke="rgb(102,102,102)" stroke-width="1" font-size="13" >3</text>
<text x="165.351132" y="347.737823" fill="rgb(102,102,102)"  stroke="rgb(102,102,102)" stroke-width="1" font-size="16" >C</text>
<text x="270.677169" y="133.374871" fill="rgb(102,102,102)"  stroke="rgb(102,102,102)" stroke-width="1" font-size="16" >H</text>
<text x="282.677169" y="137.054871" fill="rgb(102,102,102)"  stroke="rgb(102,102,102)" stroke-width="1" font-size="13" >3</text>
<text x="289.177169" y="133.374871" fill="rgb(102,102,102)"  stroke="rgb(102,102,102)" stroke-width="1" font-size="16" >C</text>
<text x="348.063717" y="147.726806" fill="rgb(102,102,102)"  stroke="rgb(102,102,102)" stroke-width="1" font-size="16" >CH</text>
<text x="372.063717" y="151.406806" fill="rgb(102,102,102)"  stroke="rgb(102,102,102)" stroke-width="1" font-size="13" >3</text>
<text x="68.777149" y="148.095177" fill="rgb(255,12,12)"  stroke="rgb(255,12,12)" stroke-width="1" font-size="16" >O</text>
<text x="36.000000" y="168.156866" fill="rgb(102,102,102)"  stroke="rgb(102,102,102)" stroke-width="1" font-size="16" >CH</text>
<text x="60.000000" y="171.836866" fill="rgb(102,102,102)"  stroke="rgb(102,102,102)" stroke-width="1" font-size="13" >3</text>
<text x="103.370112" y="48.000000" fill="rgb(102,102,102)"  stroke="rgb(102,102,102)" stroke-width="1" font-size="16" >CH</text>
<text font-size="18.000000" fill ="black" font-family="sans-serif"
x="10.000000" y="20.000000" ></text>
<title> - OBDepict</title>
</svg>
