<?xml version="1.0"?>
<svg xmlns="http://www.w3.org/2000/svg"
xmlns:xlink="http://www.w3.org/1999/xlink" xmlns:cml="http://www.xml-cml.org/schema" width="356.629" height="320.654" x="0" y="0" font-family="sans-serif" stroke="rgb(0,0,0)" stroke-width="1"  stroke-linecap="round">
<rect x="0%" y="0%" width="100%" height="100%" stroke-width="0" fill="rgb(255,255,255)"  />
<line x1="247.3" y1="200.7" x2="247.3" y2="160.5" stroke="rgb(0,0,0)"  stroke-width="1.0"/>
<line x1="175.2" y1="200.2" x2="175.2" y2="173.2" stroke="rgb(0,0,0)"  stroke-width="1.0"/>
<line x1="181.2" y1="200.2" x2="181.2" y2="173.2" stroke="rgb(0,0,0)"  stroke-width="1.0"/>
<line x1="283.5" y1="257.6" x2="306.9" y2="271.2" stroke="rgb(0,0,0)"  stroke-width="1.0"/>
<line x1="280.5" y1="262.8" x2="303.9" y2="276.4" stroke="rgb(0,0,0)"  stroke-width="1.0"/>
<line x1="144.1" y1="260.7" x2="120.4" y2="274.2" stroke="rgb(0,0,0)"  stroke-width="1.0"/>
<line x1="97.8" y1="274.2" x2="74.5" y2="260.7" stroke="rgb(0,0,0)"  stroke-width="1.0"/>
<line x1="247.2" y1="80.2" x2="247.2" y2="53.0" stroke="rgb(0,0,0)"  stroke-width="1.0"/>
<line x1="74.5" y1="260.7" x2="74.5" y2="220.6" stroke="rgb(0,0,0)"  stroke-width="1.0"/>
<line x1="74.5" y1="220.6" x2="51.3" y2="207.2" stroke="rgb(0,0,0)"  stroke-width="1.0"/>
<line x1="72.4" y1="224.2" x2="49.2" y2="210.8" stroke="rgb(0,0,0)"  stroke-width="1.0"/>
<line x1="76.6" y1="216.9" x2="53.4" y2="203.5" stroke="rgb(0,0,0)"  stroke-width="1.0"/>
<line x1="212.9" y1="220.6" x2="212.9" y2="260.2" stroke="rgb(0,0,0)"  stroke-width="1.0"/>
<line x1="220.1" y1="226.6" x2="220.1" y2="254.2" stroke="rgb(0,0,0)"  stroke-width="1.0"/>
<line x1="212.9" y1="260.2" x2="236.1" y2="273.8" stroke="rgb(0,0,0)"  stroke-width="1.0"/>
<line x1="258.6" y1="273.8" x2="282.0" y2="260.2" stroke="rgb(0,0,0)"  stroke-width="1.0"/>
<line x1="282.0" y1="260.2" x2="282.0" y2="220.2" stroke="rgb(0,0,0)"  stroke-width="1.0"/>
<line x1="282.0" y1="220.2" x2="247.3" y2="200.7" stroke="rgb(0,0,0)"  stroke-width="1.0"/>
<line x1="247.3" y1="200.7" x2="212.9" y2="220.6" stroke="rgb(0,0,0)"  stroke-width="1.0"/>
<line x1="212.9" y1="220.6" x2="178.2" y2="200.2" stroke="rgb(0,0,0)"  stroke-width="1.0"/>
<line x1="178.2" y1="200.2" x2="155.2" y2="213.9" stroke="rgb(0,0,0)"  stroke-width="1.0"/>
<line x1="144.1" y1="233.6" x2="144.1" y2="260.7" stroke="rgb(0,0,0)"  stroke-width="1.0"/>
<line x1="144.1" y1="260.7" x2="167.0" y2="273.9" stroke="rgb(0,0,0)"  stroke-width="1.0"/>
<line x1="152.9" y1="257.5" x2="168.8" y2="266.6" stroke="rgb(0,0,0)"  stroke-width="1.0"/>
<line x1="189.5" y1="273.8" x2="212.9" y2="260.2" stroke="rgb(0,0,0)"  stroke-width="1.0"/>
<line x1="247.3" y1="160.5" x2="212.7" y2="140.6" stroke="rgb(0,0,0)"  stroke-width="1.0"/>
<line x1="212.7" y1="140.6" x2="212.9" y2="100.1" stroke="rgb(0,0,0)"  stroke-width="1.0"/>
<line x1="219.9" y1="134.6" x2="220.0" y2="106.1" stroke="rgb(0,0,0)"  stroke-width="1.0"/>
<line x1="212.9" y1="100.1" x2="247.2" y2="80.2" stroke="rgb(0,0,0)"  stroke-width="1.0"/>
<line x1="247.2" y1="80.2" x2="282.0" y2="100.1" stroke="rgb(0,0,0)"  stroke-width="1.0"/>
<line x1="248.8" y1="89.4" x2="273.2" y2="103.4" stroke="rgb(0,0,0)"  stroke-width="1.0"/>
<line x1="282.0" y1="100.1" x2="282.0" y2="140.6" stroke="rgb(0,0,0)"  stroke-width="1.0"/>
<line x1="282.0" y1="140.6" x2="247.3" y2="160.5" stroke="rgb(0,0,0)"  stroke-width="1.0"/>
<line x1="273.2" y1="137.3" x2="249.0" y2="151.3" stroke="rgb(0,0,0)"  stroke-width="1.0"/>
<text x="172.224944" y="288.319112" fill="rgb(12,12,255)"  stroke="rgb(12,12,255)" stroke-width="1" font-size="16" >N</text>
<text x="241.344688" y="288.319112" fill="rgb(12,12,255)"  stroke="rgb(12,12,255)" stroke-width="1" font-size="16" >N</text>
<text x="241.344688" y="304.319112" fill="rgb(12,12,255)"  stroke="rgb(12,12,255)" stroke-width="1" font-size="16" >H</text>
<text x="126.086888" y="228.571454" fill="rgb(12,12,255)"  stroke="rgb(12,12,255)" stroke-width="1" font-size="16" >HN</text>
<text x="172.224944" y="168.159556" fill="rgb(255,12,12)"  stroke="rgb(255,12,12)" stroke-width="1" font-size="16" >O</text>
<text x="310.629280" y="288.319112" fill="rgb(255,12,12)"  stroke="rgb(255,12,12)" stroke-width="1" font-size="16" >O</text>
<text x="103.110048" y="288.653656" fill="rgb(178,178,0)"  stroke="rgb(178,178,0)" stroke-width="1" font-size="16" >S</text>
<text x="241.174992" y="48.000000" fill="rgb(255,12,12)"  stroke="rgb(255,12,12)" stroke-width="1" font-size="16" >OH</text>
<text x="22.000000" y="208.658800" fill="rgb(102,102,102)"  stroke="rgb(102,102,102)" stroke-width="1" font-size="16" >HC</text>
<text font-size="18.000000" fill ="black" font-family="sans-serif"
x="10.000000" y="20.000000" ></text>
<title> - OBDepict</title>
</svg>
