<?xml version="1.0"?>
<svg xmlns="http://www.w3.org/2000/svg"
xmlns:xlink="http://www.w3.org/1999/xlink" xmlns:cml="http://www.xml-cml.org/schema" width="391.549" height="321.829" x="0" y="0" font-family="sans-serif" stroke="rgb(0,0,0)" stroke-width="1"  stroke-linecap="round">
<rect x="0%" y="0%" width="100%" height="100%" stroke-width="0" fill="rgb(255,255,255)"  />
<line x1="180.7" y1="203.3" x2="180.7" y2="231.3" stroke="rgb(0,0,0)"  stroke-width="1.0"/>
<line x1="174.7" y1="203.3" x2="174.7" y2="231.3" stroke="rgb(0,0,0)"  stroke-width="1.0"/>
<line x1="225.3" y1="190.7" x2="248.4" y2="204.0" stroke="rgb(0,0,0)"  stroke-width="1.0"/>
<line x1="214.1" y1="142.2" x2="237.4" y2="127.3" stroke="rgb(0,0,0)"  stroke-width="1.0"/>
<line x1="248.4" y1="204.0" x2="282.6" y2="184.3" stroke="rgb(0,0,0)"  stroke-width="1.0"/>
<line x1="248.4" y1="107.4" x2="248.4" y2="78.6" stroke="rgb(0,0,0)"  stroke-width="1.0"/>
<line x1="248.4" y1="78.6" x2="213.7" y2="59.6" stroke="rgb(0,0,0)"  stroke-width="1.0"/>
<line x1="213.7" y1="59.6" x2="190.8" y2="46.5" stroke="rgb(0,0,0)"  stroke-width="1.0"/>
<line x1="211.6" y1="63.2" x2="188.7" y2="50.1" stroke="rgb(0,0,0)"  stroke-width="1.0"/>
<line x1="215.8" y1="56.0" x2="192.9" y2="42.8" stroke="rgb(0,0,0)"  stroke-width="1.0"/>
<line x1="109.4" y1="203.3" x2="73.8" y2="184.3" stroke="rgb(0,0,0)"  stroke-width="1.0"/>
<line x1="73.8" y1="184.3" x2="73.8" y2="142.2" stroke="rgb(0,0,0)"  stroke-width="1.0"/>
<line x1="73.8" y1="142.2" x2="108.9" y2="123.4" stroke="rgb(0,0,0)"  stroke-width="1.0"/>
<line x1="108.9" y1="123.4" x2="142.6" y2="142.2" stroke="rgb(0,0,0)"  stroke-width="1.0"/>
<line x1="142.6" y1="142.2" x2="142.6" y2="184.3" stroke="rgb(0,0,0)"  stroke-width="1.0"/>
<line x1="135.4" y1="148.2" x2="135.4" y2="178.3" stroke="rgb(0,0,0)"  stroke-width="1.0"/>
<line x1="142.6" y1="184.3" x2="109.4" y2="203.3" stroke="rgb(0,0,0)"  stroke-width="1.0"/>
<line x1="40.0" y1="123.4" x2="73.8" y2="142.2" stroke="rgb(0,0,0)"  stroke-width="1.0"/>
<line x1="48.7" y1="120.0" x2="72.0" y2="132.9" stroke="rgb(0,0,0)"  stroke-width="1.0"/>
<line x1="108.9" y1="123.4" x2="108.9" y2="83.4" stroke="rgb(0,0,0)"  stroke-width="1.0"/>
<line x1="101.7" y1="117.4" x2="101.7" y2="89.4" stroke="rgb(0,0,0)"  stroke-width="1.0"/>
<line x1="108.9" y1="83.4" x2="73.8" y2="63.1" stroke="rgb(0,0,0)"  stroke-width="1.0"/>
<line x1="73.8" y1="63.1" x2="40.0" y2="83.4" stroke="rgb(0,0,0)"  stroke-width="1.0"/>
<line x1="72.3" y1="72.4" x2="48.9" y2="86.5" stroke="rgb(0,0,0)"  stroke-width="1.0"/>
<line x1="40.0" y1="83.4" x2="40.0" y2="123.4" stroke="rgb(0,0,0)"  stroke-width="1.0"/>
<line x1="109.4" y1="203.3" x2="75.6" y2="223.9" stroke="rgb(0,0,0)"  stroke-width="1.0"/>
<line x1="75.6" y1="223.9" x2="75.6" y2="264.6" stroke="rgb(0,0,0)"  stroke-width="1.0"/>
<line x1="75.6" y1="264.6" x2="111.9" y2="281.8" stroke="rgb(0,0,0)"  stroke-width="1.0"/>
<line x1="111.9" y1="281.8" x2="142.6" y2="264.6" stroke="rgb(0,0,0)"  stroke-width="1.0"/>
<line x1="142.6" y1="264.6" x2="142.6" y2="223.9" stroke="rgb(0,0,0)"  stroke-width="1.0"/>
<line x1="142.6" y1="223.9" x2="109.4" y2="203.3" stroke="rgb(0,0,0)"  stroke-width="1.0"/>
<line x1="142.6" y1="184.3" x2="177.7" y2="203.3" stroke="rgb(0,0,0)"  stroke-width="1.0"/>
<line x1="177.7" y1="203.3" x2="202.5" y2="190.3" stroke="rgb(0,0,0)"  stroke-width="1.0"/>
<line x1="214.1" y1="171.3" x2="214.1" y2="142.2" stroke="rgb(0,0,0)"  stroke-width="1.0"/>
<line x1="214.1" y1="142.2" x2="189.7" y2="129.6" stroke="rgb(0,0,0)"  stroke-width="1.0"/>
<line x1="205.4" y1="145.8" x2="188.1" y2="136.9" stroke="rgb(0,0,0)"  stroke-width="1.0"/>
<line x1="166.3" y1="129.5" x2="142.6" y2="142.2" stroke="rgb(0,0,0)"  stroke-width="1.0"/>
<line x1="282.6" y1="184.3" x2="317.2" y2="204.1" stroke="rgb(0,0,0)"  stroke-width="1.0"/>
<line x1="317.2" y1="204.1" x2="351.5" y2="184.3" stroke="rgb(0,0,0)"  stroke-width="1.0"/>
<line x1="318.8" y1="194.9" x2="342.8" y2="181.0" stroke="rgb(0,0,0)"  stroke-width="1.0"/>
<line x1="351.5" y1="184.3" x2="351.5" y2="144.3" stroke="rgb(0,0,0)"  stroke-width="1.0"/>
<line x1="351.5" y1="144.3" x2="317.2" y2="124.2" stroke="rgb(0,0,0)"  stroke-width="1.0"/>
<line x1="342.7" y1="147.5" x2="318.7" y2="133.5" stroke="rgb(0,0,0)"  stroke-width="1.0"/>
<line x1="317.2" y1="124.2" x2="282.6" y2="144.3" stroke="rgb(0,0,0)"  stroke-width="1.0"/>
<line x1="282.6" y1="144.3" x2="282.6" y2="184.3" stroke="rgb(0,0,0)"  stroke-width="1.0"/>
<line x1="289.8" y1="150.3" x2="289.8" y2="178.3" stroke="rgb(0,0,0)"  stroke-width="1.0"/>
<text x="171.738653" y="131.395883" fill="rgb(12,12,255)"  stroke="rgb(12,12,255)" stroke-width="1" font-size="16" >N</text>
<text x="208.052626" y="192.273910" fill="rgb(12,12,255)"  stroke="rgb(12,12,255)" stroke-width="1" font-size="16" >N</text>
<text x="171.738653" y="252.310239" fill="rgb(255,12,12)"  stroke="rgb(255,12,12)" stroke-width="1" font-size="16" >O</text>
<text x="242.426822" y="128.367703" fill="rgb(178,178,0)"  stroke="rgb(178,178,0)" stroke-width="1" font-size="16" >S</text>
<text x="161.557496" y="48.000000" fill="rgb(102,102,102)"  stroke="rgb(102,102,102)" stroke-width="1" font-size="16" >HC</text>
<text font-size="18.000000" fill ="black" font-family="sans-serif"
x="10.000000" y="20.000000" ></text>
<title> - OBDepict</title>
</svg>
