<?xml version="1.0"?>
<svg xmlns="http://www.w3.org/2000/svg"
xmlns:xlink="http://www.w3.org/1999/xlink" xmlns:cml="http://www.xml-cml.org/schema" width="530.823" height="293.188" x="0" y="0" font-family="sans-serif" stroke="rgb(0,0,0)" stroke-width="1"  stroke-linecap="round">
<rect x="0%" y="0%" width="100%" height="100%" stroke-width="0" fill="rgb(255,255,255)"  />
<line x1="210.8" y1="213.2" x2="170.7" y2="213.2" stroke="rgb(0,0,0)"  stroke-width="1.0"/>
<line x1="450.8" y1="213.2" x2="410.8" y2="213.2" stroke="rgb(0,0,0)"  stroke-width="1.0"/>
<line x1="477.8" y1="213.2" x2="450.8" y2="213.2" stroke="rgb(0,0,0)"  stroke-width="1.0"/>
<line x1="477.8" y1="217.4" x2="450.8" y2="217.4" stroke="rgb(0,0,0)"  stroke-width="1.0"/>
<line x1="477.8" y1="209.0" x2="450.8" y2="209.0" stroke="rgb(0,0,0)"  stroke-width="1.0"/>
<line x1="233.4" y1="180.1" x2="213.3" y2="214.7" stroke="rgb(0,0,0)"  stroke-width="1.0"/>
<line x1="228.2" y1="177.1" x2="208.2" y2="211.7" stroke="rgb(0,0,0)"  stroke-width="1.0"/>
<line x1="270.8" y1="178.6" x2="230.8" y2="178.6" stroke="rgb(0,0,0)"  stroke-width="1.0"/>
<line x1="344.3" y1="120.6" x2="330.8" y2="143.9" stroke="rgb(0,0,0)"  stroke-width="1.0"/>
<line x1="377.8" y1="178.6" x2="350.8" y2="178.6" stroke="rgb(0,0,0)"  stroke-width="1.0"/>
<line x1="410.8" y1="213.2" x2="397.3" y2="189.9" stroke="rgb(0,0,0)"  stroke-width="1.0"/>
<line x1="330.8" y1="74.6" x2="344.3" y2="98.0" stroke="rgb(0,0,0)"  stroke-width="1.0"/>
<line x1="344.3" y1="51.3" x2="330.8" y2="74.6" stroke="rgb(0,0,0)"  stroke-width="1.0"/>
<line x1="155.0" y1="191.5" x2="170.7" y2="213.2" stroke="rgb(0,0,0)"  stroke-width="1.0"/>
<line x1="150.4" y1="197.4" x2="161.4" y2="212.5" stroke="rgb(0,0,0)"  stroke-width="1.0"/>
<line x1="170.7" y1="213.2" x2="154.9" y2="235.2" stroke="rgb(0,0,0)"  stroke-width="1.0"/>
<line x1="135.0" y1="241.6" x2="109.3" y2="233.2" stroke="rgb(0,0,0)"  stroke-width="1.0"/>
<line x1="109.3" y1="233.2" x2="109.3" y2="193.2" stroke="rgb(0,0,0)"  stroke-width="1.0"/>
<line x1="116.5" y1="227.2" x2="116.5" y2="199.2" stroke="rgb(0,0,0)"  stroke-width="1.0"/>
<line x1="109.3" y1="193.2" x2="134.9" y2="184.9" stroke="rgb(0,0,0)"  stroke-width="1.0"/>
<line x1="330.8" y1="143.9" x2="350.8" y2="178.6" stroke="rgb(0,0,0)"  stroke-width="1.0"/>
<line x1="327.5" y1="152.7" x2="341.6" y2="177.0" stroke="rgb(0,0,0)"  stroke-width="1.0"/>
<line x1="350.8" y1="178.6" x2="330.8" y2="213.2" stroke="rgb(0,0,0)"  stroke-width="1.0"/>
<line x1="330.8" y1="213.2" x2="290.8" y2="213.2" stroke="rgb(0,0,0)"  stroke-width="1.0"/>
<line x1="324.8" y1="206.0" x2="296.8" y2="206.0" stroke="rgb(0,0,0)"  stroke-width="1.0"/>
<line x1="290.8" y1="213.2" x2="270.8" y2="178.6" stroke="rgb(0,0,0)"  stroke-width="1.0"/>
<line x1="270.8" y1="178.6" x2="290.8" y2="143.9" stroke="rgb(0,0,0)"  stroke-width="1.0"/>
<line x1="280.0" y1="177.0" x2="294.0" y2="152.7" stroke="rgb(0,0,0)"  stroke-width="1.0"/>
<line x1="290.8" y1="143.9" x2="330.8" y2="143.9" stroke="rgb(0,0,0)"  stroke-width="1.0"/>
<line x1="74.6" y1="253.2" x2="40.0" y2="233.2" stroke="rgb(0,0,0)"  stroke-width="1.0"/>
<line x1="73.0" y1="244.0" x2="48.8" y2="230.0" stroke="rgb(0,0,0)"  stroke-width="1.0"/>
<line x1="40.0" y1="233.2" x2="40.0" y2="193.2" stroke="rgb(0,0,0)"  stroke-width="1.0"/>
<line x1="40.0" y1="193.2" x2="74.6" y2="173.2" stroke="rgb(0,0,0)"  stroke-width="1.0"/>
<line x1="48.8" y1="196.4" x2="73.0" y2="182.4" stroke="rgb(0,0,0)"  stroke-width="1.0"/>
<line x1="74.6" y1="173.2" x2="109.3" y2="193.2" stroke="rgb(0,0,0)"  stroke-width="1.0"/>
<line x1="109.3" y1="233.2" x2="74.6" y2="253.2" stroke="rgb(0,0,0)"  stroke-width="1.0"/>
<text x="141.299504" y="188.844844" fill="rgb(12,12,255)"  stroke="rgb(12,12,255)" stroke-width="1" font-size="16" >N</text>
<text x="141.299504" y="253.709516" fill="rgb(255,12,12)"  stroke="rgb(255,12,12)" stroke-width="1" font-size="16" >O</text>
<text x="484.822805" y="221.177762" fill="rgb(102,102,102)"  stroke="rgb(102,102,102)" stroke-width="1" font-size="16" >CH</text>
<text x="344.787859" y="117.311842" fill="rgb(255,12,12)"  stroke="rgb(255,12,12)" stroke-width="1" font-size="16" >O</text>
<text x="384.797844" y="186.623684" fill="rgb(255,12,12)"  stroke="rgb(255,12,12)" stroke-width="1" font-size="16" >O</text>
<text x="346.787859" y="48.000000" fill="rgb(102,102,102)"  stroke="rgb(102,102,102)" stroke-width="1" font-size="16" >CH</text>
<text x="370.787859" y="51.680000" fill="rgb(102,102,102)"  stroke="rgb(102,102,102)" stroke-width="1" font-size="13" >3</text>
<text font-size="18.000000" fill ="black" font-family="sans-serif"
x="10.000000" y="20.000000" ></text>
<title> - OBDepict</title>
</svg>
