<?xml version="1.0"?>
<svg xmlns="http://www.w3.org/2000/svg"
xmlns:xlink="http://www.w3.org/1999/xlink" xmlns:cml="http://www.xml-cml.org/schema" width="420.001" height="357.197" x="0" y="0" font-family="sans-serif" stroke="rgb(0,0,0)" stroke-width="1"  stroke-linecap="round">
<rect x="0%" y="0%" width="100%" height="100%" stroke-width="0" fill="rgb(255,255,255)"  />
<line x1="319.6" y1="178.7" x2="299.7" y2="213.3" stroke="rgb(0,0,0)"  stroke-width="1.0"/>
<line x1="79.9" y1="247.7" x2="119.9" y2="247.7" stroke="rgb(0,0,0)"  stroke-width="1.0"/>
<line x1="53.0" y1="247.7" x2="79.9" y2="247.7" stroke="rgb(0,0,0)"  stroke-width="1.0"/>
<line x1="53.0" y1="243.5" x2="79.9" y2="243.5" stroke="rgb(0,0,0)"  stroke-width="1.0"/>
<line x1="53.0" y1="251.9" x2="79.9" y2="251.9" stroke="rgb(0,0,0)"  stroke-width="1.0"/>
<line x1="256.1" y1="156.6" x2="242.3" y2="180.2" stroke="rgb(0,0,0)"  stroke-width="1.0"/>
<line x1="250.9" y1="153.6" x2="237.1" y2="177.2" stroke="rgb(0,0,0)"  stroke-width="1.0"/>
<line x1="310.9" y1="307.5" x2="297.1" y2="283.9" stroke="rgb(0,0,0)"  stroke-width="1.0"/>
<line x1="316.0" y1="304.5" x2="302.3" y2="280.9" stroke="rgb(0,0,0)"  stroke-width="1.0"/>
<line x1="152.8" y1="213.3" x2="179.7" y2="213.3" stroke="rgb(0,0,0)"  stroke-width="1.0"/>
<line x1="305.8" y1="86.1" x2="319.6" y2="109.7" stroke="rgb(0,0,0)"  stroke-width="1.0"/>
<line x1="119.9" y1="247.7" x2="133.3" y2="224.6" stroke="rgb(0,0,0)"  stroke-width="1.0"/>
<line x1="373.4" y1="86.1" x2="359.7" y2="109.7" stroke="rgb(0,0,0)"  stroke-width="1.0"/>
<line x1="312.8" y1="51.3" x2="305.7" y2="63.5" stroke="rgb(0,0,0)"  stroke-width="1.0"/>
<line x1="366.5" y1="51.3" x2="373.5" y2="63.5" stroke="rgb(0,0,0)"  stroke-width="1.0"/>
<line x1="239.7" y1="247.7" x2="259.6" y2="213.3" stroke="rgb(0,0,0)"  stroke-width="1.0"/>
<line x1="236.5" y1="238.9" x2="250.4" y2="214.9" stroke="rgb(0,0,0)"  stroke-width="1.0"/>
<line x1="259.6" y1="213.3" x2="239.7" y2="178.7" stroke="rgb(0,0,0)"  stroke-width="1.0"/>
<line x1="239.7" y1="178.7" x2="212.6" y2="178.7" stroke="rgb(0,0,0)"  stroke-width="1.0"/>
<line x1="193.1" y1="190.0" x2="179.7" y2="213.3" stroke="rgb(0,0,0)"  stroke-width="1.0"/>
<line x1="179.7" y1="213.3" x2="193.1" y2="236.4" stroke="rgb(0,0,0)"  stroke-width="1.0"/>
<line x1="188.9" y1="214.9" x2="198.3" y2="231.0" stroke="rgb(0,0,0)"  stroke-width="1.0"/>
<line x1="212.6" y1="247.7" x2="239.7" y2="247.7" stroke="rgb(0,0,0)"  stroke-width="1.0"/>
<line x1="259.6" y1="213.3" x2="299.7" y2="213.3" stroke="rgb(0,0,0)"  stroke-width="1.0"/>
<line x1="299.7" y1="213.3" x2="319.6" y2="247.7" stroke="rgb(0,0,0)"  stroke-width="1.0"/>
<line x1="319.6" y1="247.7" x2="299.7" y2="282.4" stroke="rgb(0,0,0)"  stroke-width="1.0"/>
<line x1="299.7" y1="282.4" x2="272.6" y2="282.4" stroke="rgb(0,0,0)"  stroke-width="1.0"/>
<line x1="253.1" y1="271.1" x2="239.7" y2="247.7" stroke="rgb(0,0,0)"  stroke-width="1.0"/>
<line x1="319.6" y1="178.7" x2="299.7" y2="144.3" stroke="rgb(0,0,0)"  stroke-width="1.0"/>
<line x1="299.7" y1="144.3" x2="319.6" y2="109.7" stroke="rgb(0,0,0)"  stroke-width="1.0"/>
<line x1="308.9" y1="142.7" x2="322.9" y2="118.4" stroke="rgb(0,0,0)"  stroke-width="1.0"/>
<line x1="319.6" y1="109.7" x2="359.7" y2="109.7" stroke="rgb(0,0,0)"  stroke-width="1.0"/>
<line x1="359.7" y1="109.7" x2="379.6" y2="144.3" stroke="rgb(0,0,0)"  stroke-width="1.0"/>
<line x1="356.4" y1="118.4" x2="370.4" y2="142.7" stroke="rgb(0,0,0)"  stroke-width="1.0"/>
<line x1="379.6" y1="144.3" x2="359.7" y2="178.7" stroke="rgb(0,0,0)"  stroke-width="1.0"/>
<line x1="359.7" y1="178.7" x2="319.6" y2="178.7" stroke="rgb(0,0,0)"  stroke-width="1.0"/>
<line x1="353.7" y1="171.5" x2="325.6" y2="171.5" stroke="rgb(0,0,0)"  stroke-width="1.0"/>
<text x="193.632209" y="255.748506" fill="rgb(12,12,255)"  stroke="rgb(12,12,255)" stroke-width="1" font-size="16" >N</text>
<text x="193.632209" y="186.697552" fill="rgb(12,12,255)"  stroke="rgb(12,12,255)" stroke-width="1" font-size="16" >N</text>
<text x="193.632209" y="170.697552" fill="rgb(12,12,255)"  stroke="rgb(12,12,255)" stroke-width="1" font-size="16" >H</text>
<text x="253.617774" y="290.373257" fill="rgb(12,12,255)"  stroke="rgb(12,12,255)" stroke-width="1" font-size="16" >N</text>
<text x="253.617774" y="306.373257" fill="rgb(12,12,255)"  stroke="rgb(12,12,255)" stroke-width="1" font-size="16" >H</text>
<text x="22.000000" y="255.748506" fill="rgb(102,102,102)"  stroke="rgb(102,102,102)" stroke-width="1" font-size="16" >HC</text>
<text x="254.024554" y="151.874253" fill="rgb(255,12,12)"  stroke="rgb(255,12,12)" stroke-width="1" font-size="16" >O</text>
<text x="314.010119" y="325.196556" fill="rgb(255,12,12)"  stroke="rgb(255,12,12)" stroke-width="1" font-size="16" >O</text>
<text x="133.845191" y="221.322303" fill="rgb(178,178,0)"  stroke="rgb(178,178,0)" stroke-width="1" font-size="16" >S</text>
<text x="293.278852" y="82.823299" fill="rgb(255,12,12)"  stroke="rgb(255,12,12)" stroke-width="1" font-size="16" >O</text>
<text x="374.000527" y="82.823299" fill="rgb(255,12,12)"  stroke="rgb(255,12,12)" stroke-width="1" font-size="16" >O</text>
<text x="315.211087" y="48.000000" fill="rgb(102,102,102)"  stroke="rgb(102,102,102)" stroke-width="1" font-size="16" >CH</text>
<text x="339.211087" y="51.680000" fill="rgb(102,102,102)"  stroke="rgb(102,102,102)" stroke-width="1" font-size="13" >3</text>
<text x="334.073136" y="48.000000" fill="rgb(102,102,102)"  stroke="rgb(102,102,102)" stroke-width="1" font-size="16" >H</text>
<text x="346.073136" y="51.680000" fill="rgb(102,102,102)"  stroke="rgb(102,102,102)" stroke-width="1" font-size="13" >3</text>
<text x="352.573136" y="48.000000" fill="rgb(102,102,102)"  stroke="rgb(102,102,102)" stroke-width="1" font-size="16" >C</text>
<text font-size="18.000000" fill ="black" font-family="sans-serif"
x="10.000000" y="20.000000" ></text>
<title> - OBDepict</title>
</svg>
