<?xml version="1.0"?>
<svg xmlns="http://www.w3.org/2000/svg"
xmlns:xlink="http://www.w3.org/1999/xlink" xmlns:cml="http://www.xml-cml.org/schema" width="452.808" height="476.047" x="0" y="0" font-family="sans-serif" stroke="rgb(0,0,0)" stroke-width="1"  stroke-linecap="round">
<rect x="0%" y="0%" width="100%" height="100%" stroke-width="0" fill="rgb(255,255,255)"  />
<line x1="170.7" y1="254.8" x2="197.7" y2="254.8" stroke="rgb(0,0,0)"  stroke-width="1.0"/>
<line x1="364.7" y1="245.9" x2="342.9" y2="261.7" stroke="rgb(0,0,0)"  stroke-width="1.0"/>
<line x1="361.9" y1="219.0" x2="364.7" y2="245.9" stroke="rgb(0,0,0)"  stroke-width="1.0"/>
<line x1="352.5" y1="327.7" x2="330.6" y2="311.8" stroke="rgb(0,0,0)"  stroke-width="1.0"/>
<line x1="356.0" y1="322.9" x2="334.2" y2="306.9" stroke="rgb(0,0,0)"  stroke-width="1.0"/>
<line x1="230.8" y1="289.3" x2="270.8" y2="289.3" stroke="rgb(0,0,0)"  stroke-width="1.0"/>
<line x1="380.5" y1="63.2" x2="347.9" y2="86.7" stroke="rgb(0,0,0)"  stroke-width="1.0"/>
<line x1="281.9" y1="359.9" x2="290.3" y2="334.2" stroke="rgb(0,0,0)"  stroke-width="1.0"/>
<line x1="402.3" y1="47.6" x2="380.5" y2="63.2" stroke="rgb(0,0,0)"  stroke-width="1.0"/>
<line x1="404.7" y1="51.0" x2="382.9" y2="66.6" stroke="rgb(0,0,0)"  stroke-width="1.0"/>
<line x1="399.8" y1="44.2" x2="378.0" y2="59.8" stroke="rgb(0,0,0)"  stroke-width="1.0"/>
<line x1="217.3" y1="266.0" x2="230.8" y2="289.3" stroke="rgb(0,0,0)"  stroke-width="1.0"/>
<line x1="347.9" y1="86.7" x2="350.8" y2="113.6" stroke="rgb(0,0,0)"  stroke-width="1.0"/>
<line x1="332.4" y1="282.3" x2="332.4" y2="309.4" stroke="rgb(0,0,0)"  stroke-width="1.0"/>
<line x1="332.4" y1="309.4" x2="306.7" y2="317.8" stroke="rgb(0,0,0)"  stroke-width="1.0"/>
<line x1="286.8" y1="311.4" x2="270.8" y2="289.3" stroke="rgb(0,0,0)"  stroke-width="1.0"/>
<line x1="270.8" y1="289.3" x2="286.6" y2="267.7" stroke="rgb(0,0,0)"  stroke-width="1.0"/>
<line x1="280.1" y1="288.8" x2="291.2" y2="273.5" stroke="rgb(0,0,0)"  stroke-width="1.0"/>
<line x1="306.8" y1="261.0" x2="320.0" y2="265.3" stroke="rgb(0,0,0)"  stroke-width="1.0"/>
<line x1="170.7" y1="254.8" x2="154.9" y2="276.6" stroke="rgb(0,0,0)"  stroke-width="1.0"/>
<line x1="134.9" y1="283.1" x2="109.3" y2="274.8" stroke="rgb(0,0,0)"  stroke-width="1.0"/>
<line x1="109.3" y1="274.8" x2="109.3" y2="234.8" stroke="rgb(0,0,0)"  stroke-width="1.0"/>
<line x1="116.5" y1="268.8" x2="116.5" y2="240.8" stroke="rgb(0,0,0)"  stroke-width="1.0"/>
<line x1="109.3" y1="234.8" x2="134.9" y2="226.5" stroke="rgb(0,0,0)"  stroke-width="1.0"/>
<line x1="155.0" y1="233.1" x2="170.7" y2="254.8" stroke="rgb(0,0,0)"  stroke-width="1.0"/>
<line x1="150.4" y1="239.0" x2="161.4" y2="254.2" stroke="rgb(0,0,0)"  stroke-width="1.0"/>
<line x1="281.9" y1="359.9" x2="242.9" y2="368.2" stroke="rgb(0,0,0)"  stroke-width="1.0"/>
<line x1="242.9" y1="368.2" x2="230.5" y2="406.1" stroke="rgb(0,0,0)"  stroke-width="1.0"/>
<line x1="247.9" y1="376.1" x2="239.2" y2="402.7" stroke="rgb(0,0,0)"  stroke-width="1.0"/>
<line x1="230.5" y1="406.1" x2="257.2" y2="436.0" stroke="rgb(0,0,0)"  stroke-width="1.0"/>
<line x1="257.2" y1="436.0" x2="296.4" y2="427.6" stroke="rgb(0,0,0)"  stroke-width="1.0"/>
<line x1="261.6" y1="427.7" x2="289.0" y2="421.8" stroke="rgb(0,0,0)"  stroke-width="1.0"/>
<line x1="296.4" y1="427.6" x2="308.7" y2="389.6" stroke="rgb(0,0,0)"  stroke-width="1.0"/>
<line x1="308.7" y1="389.6" x2="281.9" y2="359.9" stroke="rgb(0,0,0)"  stroke-width="1.0"/>
<line x1="299.4" y1="390.0" x2="280.6" y2="369.1" stroke="rgb(0,0,0)"  stroke-width="1.0"/>
<line x1="348.6" y1="200.8" x2="324.1" y2="189.9" stroke="rgb(0,0,0)"  stroke-width="1.0"/>
<line x1="324.1" y1="189.9" x2="319.9" y2="150.1" stroke="rgb(0,0,0)"  stroke-width="1.0"/>
<line x1="319.9" y1="150.1" x2="341.7" y2="134.2" stroke="rgb(0,0,0)"  stroke-width="1.0"/>
<line x1="364.1" y1="131.8" x2="388.8" y2="142.8" stroke="rgb(0,0,0)"  stroke-width="1.0"/>
<line x1="388.8" y1="142.8" x2="393.0" y2="182.7" stroke="rgb(0,0,0)"  stroke-width="1.0"/>
<line x1="393.0" y1="182.7" x2="371.0" y2="198.5" stroke="rgb(0,0,0)"  stroke-width="1.0"/>
<line x1="74.6" y1="214.8" x2="40.0" y2="234.8" stroke="rgb(0,0,0)"  stroke-width="1.0"/>
<line x1="73.0" y1="224.0" x2="48.8" y2="238.0" stroke="rgb(0,0,0)"  stroke-width="1.0"/>
<line x1="40.0" y1="234.8" x2="40.0" y2="274.8" stroke="rgb(0,0,0)"  stroke-width="1.0"/>
<line x1="40.0" y1="274.8" x2="74.6" y2="294.8" stroke="rgb(0,0,0)"  stroke-width="1.0"/>
<line x1="48.8" y1="271.6" x2="73.0" y2="285.6" stroke="rgb(0,0,0)"  stroke-width="1.0"/>
<line x1="74.6" y1="294.8" x2="109.3" y2="274.8" stroke="rgb(0,0,0)"  stroke-width="1.0"/>
<line x1="109.3" y1="234.8" x2="74.6" y2="214.8" stroke="rgb(0,0,0)"  stroke-width="1.0"/>
<text x="326.388397" y="277.344392" fill="rgb(12,12,255)"  stroke="rgb(12,12,255)" stroke-width="1" font-size="16" >N</text>
<text x="288.401959" y="329.879446" fill="rgb(12,12,255)"  stroke="rgb(12,12,255)" stroke-width="1" font-size="16" >N</text>
<text x="288.401959" y="265.016864" fill="rgb(12,12,255)"  stroke="rgb(12,12,255)" stroke-width="1" font-size="16" >N</text>
<text x="141.296047" y="230.463900" fill="rgb(12,12,255)"  stroke="rgb(12,12,255)" stroke-width="1" font-size="16" >N</text>
<text x="141.296047" y="295.122801" fill="rgb(178,178,0)"  stroke="rgb(178,178,0)" stroke-width="1" font-size="16" >S</text>
<text x="354.476926" y="214.096706" fill="rgb(12,12,255)"  stroke="rgb(12,12,255)" stroke-width="1" font-size="16" >N</text>
<text x="358.720273" y="340.994589" fill="rgb(178,178,0)"  stroke="rgb(178,178,0)" stroke-width="1" font-size="16" >S</text>
<text x="346.189064" y="134.481827" fill="rgb(12,12,255)"  stroke="rgb(12,12,255)" stroke-width="1" font-size="16" >N</text>
<text x="406.808300" y="48.000000" fill="rgb(102,102,102)"  stroke="rgb(102,102,102)" stroke-width="1" font-size="16" >CH</text>
<text x="204.747414" y="262.795775" fill="rgb(178,178,0)"  stroke="rgb(178,178,0)" stroke-width="1" font-size="16" >S</text>
<text font-size="18.000000" fill ="black" font-family="sans-serif"
x="10.000000" y="20.000000" ></text>
<title> - OBDepict</title>
</svg>
