<?xml version="1.0"?>
<svg xmlns="http://www.w3.org/2000/svg"
xmlns:xlink="http://www.w3.org/1999/xlink" xmlns:cml="http://www.xml-cml.org/schema" width="356.689" height="400.485" x="0" y="0" font-family="sans-serif" stroke="rgb(0,0,0)" stroke-width="1"  stroke-linecap="round">
<rect x="0%" y="0%" width="100%" height="100%" stroke-width="0" fill="rgb(255,255,255)"  />
<line x1="106.4" y1="200.6" x2="106.4" y2="160.5" stroke="rgb(0,0,0)"  stroke-width="1.0"/>
<line x1="112.4" y1="200.6" x2="112.4" y2="160.5" stroke="rgb(0,0,0)"  stroke-width="1.0"/>
<line x1="112.4" y1="53.0" x2="112.4" y2="80.2" stroke="rgb(0,0,0)"  stroke-width="1.0"/>
<line x1="106.4" y1="53.0" x2="106.4" y2="80.2" stroke="rgb(0,0,0)"  stroke-width="1.0"/>
<line x1="282.2" y1="340.3" x2="247.7" y2="319.9" stroke="rgb(0,0,0)"  stroke-width="1.0"/>
<line x1="305.5" y1="353.9" x2="282.2" y2="340.3" stroke="rgb(0,0,0)"  stroke-width="1.0"/>
<line x1="303.3" y1="357.5" x2="280.1" y2="343.9" stroke="rgb(0,0,0)"  stroke-width="1.0"/>
<line x1="307.6" y1="350.3" x2="284.3" y2="336.7" stroke="rgb(0,0,0)"  stroke-width="1.0"/>
<line x1="49.8" y1="151.7" x2="73.6" y2="138.1" stroke="rgb(0,0,0)"  stroke-width="1.0"/>
<line x1="52.8" y1="156.9" x2="76.6" y2="143.3" stroke="rgb(0,0,0)"  stroke-width="1.0"/>
<line x1="166.3" y1="156.8" x2="142.6" y2="143.3" stroke="rgb(0,0,0)"  stroke-width="1.0"/>
<line x1="169.3" y1="151.6" x2="145.6" y2="138.1" stroke="rgb(0,0,0)"  stroke-width="1.0"/>
<line x1="144.1" y1="220.0" x2="109.4" y2="200.6" stroke="rgb(0,0,0)"  stroke-width="1.0"/>
<line x1="167.4" y1="87.1" x2="155.4" y2="94.0" stroke="rgb(0,0,0)"  stroke-width="1.0"/>
<line x1="51.7" y1="87.0" x2="63.8" y2="94.1" stroke="rgb(0,0,0)"  stroke-width="1.0"/>
<line x1="178.6" y1="306.7" x2="178.6" y2="279.8" stroke="rgb(0,0,0)"  stroke-width="1.0"/>
<line x1="236.5" y1="273.4" x2="213.6" y2="260.0" stroke="rgb(0,0,0)"  stroke-width="1.0"/>
<line x1="247.7" y1="319.9" x2="247.7" y2="293.0" stroke="rgb(0,0,0)"  stroke-width="1.0"/>
<line x1="109.4" y1="160.5" x2="75.1" y2="140.7" stroke="rgb(0,0,0)"  stroke-width="1.0"/>
<line x1="75.1" y1="140.7" x2="75.1" y2="113.5" stroke="rgb(0,0,0)"  stroke-width="1.0"/>
<line x1="86.3" y1="93.9" x2="109.4" y2="80.2" stroke="rgb(0,0,0)"  stroke-width="1.0"/>
<line x1="109.4" y1="80.2" x2="132.9" y2="94.0" stroke="rgb(0,0,0)"  stroke-width="1.0"/>
<line x1="144.1" y1="113.5" x2="144.1" y2="140.7" stroke="rgb(0,0,0)"  stroke-width="1.0"/>
<line x1="144.1" y1="140.7" x2="109.4" y2="160.5" stroke="rgb(0,0,0)"  stroke-width="1.0"/>
<line x1="178.6" y1="279.8" x2="213.6" y2="260.0" stroke="rgb(0,0,0)"  stroke-width="1.0"/>
<line x1="213.6" y1="260.0" x2="213.6" y2="220.0" stroke="rgb(0,0,0)"  stroke-width="1.0"/>
<line x1="206.4" y1="254.0" x2="206.4" y2="226.0" stroke="rgb(0,0,0)"  stroke-width="1.0"/>
<line x1="213.6" y1="220.0" x2="178.6" y2="200.0" stroke="rgb(0,0,0)"  stroke-width="1.0"/>
<line x1="178.6" y1="200.0" x2="144.1" y2="220.0" stroke="rgb(0,0,0)"  stroke-width="1.0"/>
<line x1="177.1" y1="209.3" x2="152.9" y2="223.2" stroke="rgb(0,0,0)"  stroke-width="1.0"/>
<line x1="144.1" y1="220.0" x2="144.1" y2="259.8" stroke="rgb(0,0,0)"  stroke-width="1.0"/>
<line x1="144.1" y1="259.8" x2="178.6" y2="279.8" stroke="rgb(0,0,0)"  stroke-width="1.0"/>
<line x1="152.9" y1="256.6" x2="177.1" y2="270.5" stroke="rgb(0,0,0)"  stroke-width="1.0"/>
<text x="138.136809" y="108.544656" fill="rgb(12,12,255)"  stroke="rgb(12,12,255)" stroke-width="1" font-size="16" >N</text>
<text x="69.115901" y="108.544656" fill="rgb(12,12,255)"  stroke="rgb(12,12,255)" stroke-width="1" font-size="16" >N</text>
<text x="103.422925" y="48.000000" fill="rgb(178,178,0)"  stroke="rgb(178,178,0)" stroke-width="1" font-size="16" >S</text>
<text x="310.689080" y="368.484662" fill="rgb(102,102,102)"  stroke="rgb(102,102,102)" stroke-width="1" font-size="16" >CH</text>
<text x="34.000000" y="168.687296" fill="rgb(255,12,12)"  stroke="rgb(255,12,12)" stroke-width="1" font-size="16" >O</text>
<text x="173.049280" y="168.687296" fill="rgb(255,12,12)"  stroke="rgb(255,12,12)" stroke-width="1" font-size="16" >O</text>
<text x="174.647263" y="88.564920" fill="rgb(102,102,102)"  stroke="rgb(102,102,102)" stroke-width="1" font-size="16" >CH</text>
<text x="198.647263" y="92.244920" fill="rgb(102,102,102)"  stroke="rgb(102,102,102)" stroke-width="1" font-size="13" >3</text>
<text x="14.402017" y="88.564920" fill="rgb(102,102,102)"  stroke="rgb(102,102,102)" stroke-width="1" font-size="16" >H</text>
<text x="26.402017" y="92.244920" fill="rgb(102,102,102)"  stroke="rgb(102,102,102)" stroke-width="1" font-size="13" >3</text>
<text x="32.902017" y="88.564920" fill="rgb(102,102,102)"  stroke="rgb(102,102,102)" stroke-width="1" font-size="16" >C</text>
<text x="172.647263" y="327.716312" fill="rgb(165,40,40)"  stroke="rgb(165,40,40)" stroke-width="1" font-size="16" >Br</text>
<text x="241.668171" y="287.960269" fill="rgb(255,12,12)"  stroke="rgb(255,12,12)" stroke-width="1" font-size="16" >O</text>
<text font-size="18.000000" fill ="black" font-family="sans-serif"
x="10.000000" y="20.000000" ></text>
<title> - OBDepict</title>
</svg>
