<?xml version="1.0"?>
<svg xmlns="http://www.w3.org/2000/svg"
xmlns:xlink="http://www.w3.org/1999/xlink" xmlns:cml="http://www.xml-cml.org/schema" width="287.864" height="419.976" x="0" y="0" font-family="sans-serif" stroke="rgb(0,0,0)" stroke-width="1"  stroke-linecap="round">
<rect x="0%" y="0%" width="100%" height="100%" stroke-width="0" fill="rgb(255,255,255)"  />
<line x1="213.3" y1="360.0" x2="178.6" y2="340.0" stroke="rgb(0,0,0)"  stroke-width="1.0"/>
<line x1="236.6" y1="373.5" x2="213.3" y2="360.0" stroke="rgb(0,0,0)"  stroke-width="1.0"/>
<line x1="234.5" y1="377.1" x2="211.2" y2="363.6" stroke="rgb(0,0,0)"  stroke-width="1.0"/>
<line x1="238.7" y1="369.8" x2="215.4" y2="356.3" stroke="rgb(0,0,0)"  stroke-width="1.0"/>
<line x1="119.1" y1="290.9" x2="142.5" y2="277.4" stroke="rgb(0,0,0)"  stroke-width="1.0"/>
<line x1="122.1" y1="296.1" x2="145.5" y2="282.6" stroke="rgb(0,0,0)"  stroke-width="1.0"/>
<line x1="167.3" y1="293.5" x2="144.0" y2="280.0" stroke="rgb(0,0,0)"  stroke-width="1.0"/>
<line x1="144.0" y1="253.0" x2="144.0" y2="280.0" stroke="rgb(0,0,0)"  stroke-width="1.0"/>
<line x1="86.0" y1="166.5" x2="109.3" y2="180.0" stroke="rgb(0,0,0)"  stroke-width="1.0"/>
<line x1="178.6" y1="340.0" x2="178.6" y2="313.0" stroke="rgb(0,0,0)"  stroke-width="1.0"/>
<line x1="74.7" y1="120.0" x2="74.7" y2="147.0" stroke="rgb(0,0,0)"  stroke-width="1.0"/>
<line x1="109.3" y1="220.0" x2="132.8" y2="233.5" stroke="rgb(0,0,0)"  stroke-width="1.0"/>
<line x1="109.3" y1="180.0" x2="109.3" y2="220.0" stroke="rgb(0,0,0)"  stroke-width="1.0"/>
<line x1="74.7" y1="120.0" x2="109.3" y2="100.0" stroke="rgb(0,0,0)"  stroke-width="1.0"/>
<line x1="109.3" y1="100.0" x2="109.3" y2="60.0" stroke="rgb(0,0,0)"  stroke-width="1.0"/>
<line x1="102.1" y1="94.0" x2="102.1" y2="66.0" stroke="rgb(0,0,0)"  stroke-width="1.0"/>
<line x1="109.3" y1="60.0" x2="74.7" y2="40.0" stroke="rgb(0,0,0)"  stroke-width="1.0"/>
<line x1="74.7" y1="40.0" x2="40.0" y2="60.0" stroke="rgb(0,0,0)"  stroke-width="1.0"/>
<line x1="73.1" y1="49.2" x2="48.8" y2="63.2" stroke="rgb(0,0,0)"  stroke-width="1.0"/>
<line x1="40.0" y1="60.0" x2="40.0" y2="100.0" stroke="rgb(0,0,0)"  stroke-width="1.0"/>
<line x1="40.0" y1="100.0" x2="74.7" y2="120.0" stroke="rgb(0,0,0)"  stroke-width="1.0"/>
<line x1="48.8" y1="96.7" x2="73.1" y2="110.8" stroke="rgb(0,0,0)"  stroke-width="1.0"/>
<text x="241.863814" y="387.975509" fill="rgb(102,102,102)"  stroke="rgb(102,102,102)" stroke-width="1" font-size="16" >CH</text>
<text x="103.289554" y="307.981271" fill="rgb(255,12,12)"  stroke="rgb(255,12,12)" stroke-width="1" font-size="16" >O</text>
<text x="172.574260" y="307.981271" fill="rgb(12,12,255)"  stroke="rgb(12,12,255)" stroke-width="1" font-size="16" >NH</text>
<text x="138.031294" y="247.985593" fill="rgb(12,12,255)"  stroke="rgb(12,12,255)" stroke-width="1" font-size="16" >NH</text>
<text x="68.746588" y="167.991356" fill="rgb(178,178,0)"  stroke="rgb(178,178,0)" stroke-width="1" font-size="16" >S</text>
<text font-size="18.000000" fill ="black" font-family="sans-serif"
x="10.000000" y="20.000000" ></text>
<title> - OBDepict</title>
</svg>
