<?xml version="1.0"?>
<svg xmlns="http://www.w3.org/2000/svg"
xmlns:xlink="http://www.w3.org/1999/xlink" xmlns:cml="http://www.xml-cml.org/schema" width="489.791" height="338.887" x="0" y="0" font-family="sans-serif" stroke="rgb(0,0,0)" stroke-width="1"  stroke-linecap="round">
<rect x="0%" y="0%" width="100%" height="100%" stroke-width="0" fill="rgb(255,255,255)"  />
<line x1="303.1" y1="108.2" x2="323.4" y2="142.6" stroke="rgb(0,0,0)"  stroke-width="1.0"/>
<line x1="297.9" y1="111.2" x2="318.3" y2="145.7" stroke="rgb(0,0,0)"  stroke-width="1.0"/>
<line x1="260.4" y1="109.7" x2="300.5" y2="109.7" stroke="rgb(0,0,0)"  stroke-width="1.0"/>
<line x1="79.9" y1="144.6" x2="119.8" y2="144.2" stroke="rgb(0,0,0)"  stroke-width="1.0"/>
<line x1="53.0" y1="144.3" x2="79.9" y2="144.6" stroke="rgb(0,0,0)"  stroke-width="1.0"/>
<line x1="53.0" y1="140.1" x2="79.9" y2="140.4" stroke="rgb(0,0,0)"  stroke-width="1.0"/>
<line x1="53.0" y1="148.5" x2="79.8" y2="148.8" stroke="rgb(0,0,0)"  stroke-width="1.0"/>
<line x1="328.5" y1="233.7" x2="331.4" y2="207.1" stroke="rgb(0,0,0)"  stroke-width="1.0"/>
<line x1="334.5" y1="234.3" x2="337.3" y2="207.7" stroke="rgb(0,0,0)"  stroke-width="1.0"/>
<line x1="380.5" y1="130.5" x2="362.6" y2="150.4" stroke="rgb(0,0,0)"  stroke-width="1.0"/>
<line x1="376.0" y1="126.4" x2="358.1" y2="146.4" stroke="rgb(0,0,0)"  stroke-width="1.0"/>
<line x1="405.1" y1="203.4" x2="380.7" y2="192.7" stroke="rgb(0,0,0)"  stroke-width="1.0"/>
<line x1="186.7" y1="51.3" x2="200.2" y2="74.5" stroke="rgb(0,0,0)"  stroke-width="1.0"/>
<line x1="152.7" y1="109.5" x2="179.6" y2="109.5" stroke="rgb(0,0,0)"  stroke-width="1.0"/>
<line x1="186.7" y1="167.4" x2="200.2" y2="144.2" stroke="rgb(0,0,0)"  stroke-width="1.0"/>
<line x1="119.8" y1="144.2" x2="133.2" y2="120.8" stroke="rgb(0,0,0)"  stroke-width="1.0"/>
<line x1="193.7" y1="202.4" x2="186.7" y2="189.9" stroke="rgb(0,0,0)"  stroke-width="1.0"/>
<line x1="409.3" y1="243.3" x2="405.1" y2="203.4" stroke="rgb(0,0,0)"  stroke-width="1.0"/>
<line x1="446.0" y1="259.4" x2="409.3" y2="243.3" stroke="rgb(0,0,0)"  stroke-width="1.0"/>
<line x1="448.5" y1="285.9" x2="446.0" y2="259.4" stroke="rgb(0,0,0)"  stroke-width="1.0"/>
<line x1="366.0" y1="174.8" x2="360.3" y2="148.4" stroke="rgb(0,0,0)"  stroke-width="1.0"/>
<line x1="360.3" y1="148.4" x2="320.8" y2="144.2" stroke="rgb(0,0,0)"  stroke-width="1.0"/>
<line x1="320.8" y1="144.2" x2="309.9" y2="168.6" stroke="rgb(0,0,0)"  stroke-width="1.0"/>
<line x1="314.2" y1="189.1" x2="334.3" y2="207.4" stroke="rgb(0,0,0)"  stroke-width="1.0"/>
<line x1="334.3" y1="207.4" x2="357.5" y2="194.0" stroke="rgb(0,0,0)"  stroke-width="1.0"/>
<line x1="200.2" y1="74.5" x2="179.6" y2="109.5" stroke="rgb(0,0,0)"  stroke-width="1.0"/>
<line x1="203.3" y1="83.3" x2="188.9" y2="108.0" stroke="rgb(0,0,0)"  stroke-width="1.0"/>
<line x1="179.6" y1="109.5" x2="200.2" y2="144.2" stroke="rgb(0,0,0)"  stroke-width="1.0"/>
<line x1="200.2" y1="144.2" x2="240.5" y2="144.2" stroke="rgb(0,0,0)"  stroke-width="1.0"/>
<line x1="206.2" y1="137.0" x2="234.5" y2="137.0" stroke="rgb(0,0,0)"  stroke-width="1.0"/>
<line x1="240.5" y1="144.2" x2="260.4" y2="109.7" stroke="rgb(0,0,0)"  stroke-width="1.0"/>
<line x1="260.4" y1="109.7" x2="240.5" y2="74.5" stroke="rgb(0,0,0)"  stroke-width="1.0"/>
<line x1="251.2" y1="108.0" x2="237.1" y2="83.2" stroke="rgb(0,0,0)"  stroke-width="1.0"/>
<line x1="240.5" y1="74.5" x2="200.2" y2="74.5" stroke="rgb(0,0,0)"  stroke-width="1.0"/>
<text x="362.797630" y="195.474195" fill="rgb(12,12,255)"  stroke="rgb(12,12,255)" stroke-width="1" font-size="16" >N</text>
<text x="298.529684" y="188.423887" fill="rgb(178,178,0)"  stroke="rgb(178,178,0)" stroke-width="1" font-size="16" >S</text>
<text x="22.000000" y="152.158229" fill="rgb(102,102,102)"  stroke="rgb(102,102,102)" stroke-width="1" font-size="16" >HC</text>
<text x="324.115556" y="254.909308" fill="rgb(255,12,12)"  stroke="rgb(255,12,12)" stroke-width="1" font-size="16" >O</text>
<text x="380.930459" y="126.776151" fill="rgb(255,12,12)"  stroke="rgb(255,12,12)" stroke-width="1" font-size="16" >O</text>
<text x="162.224945" y="48.000000" fill="rgb(165,40,40)"  stroke="rgb(165,40,40)" stroke-width="1" font-size="16" >Br</text>
<text x="133.728132" y="117.503516" fill="rgb(255,12,12)"  stroke="rgb(255,12,12)" stroke-width="1" font-size="16" >O</text>
<text x="174.224945" y="186.609148" fill="rgb(255,12,12)"  stroke="rgb(255,12,12)" stroke-width="1" font-size="16" >O</text>
<text x="196.167660" y="221.666598" fill="rgb(102,102,102)"  stroke="rgb(102,102,102)" stroke-width="1" font-size="16" >CH</text>
<text x="220.167660" y="225.346598" fill="rgb(102,102,102)"  stroke="rgb(102,102,102)" stroke-width="1" font-size="13" >3</text>
<text x="445.791256" y="306.886526" fill="rgb(102,102,102)"  stroke="rgb(102,102,102)" stroke-width="1" font-size="16" >CH</text>
<text x="469.791256" y="310.566526" fill="rgb(102,102,102)"  stroke="rgb(102,102,102)" stroke-width="1" font-size="13" >3</text>
<text font-size="18.000000" fill ="black" font-family="sans-serif"
x="10.000000" y="20.000000" ></text>
<title> - OBDepict</title>
</svg>
