<?xml version="1.0"?>
<svg xmlns="http://www.w3.org/2000/svg"
xmlns:xlink="http://www.w3.org/1999/xlink" xmlns:cml="http://www.xml-cml.org/schema" width="316.725" height="225.962" x="0" y="0" font-family="sans-serif" stroke="rgb(0,0,0)" stroke-width="1"  stroke-linecap="round">
<rect x="0%" y="0%" width="100%" height="100%" stroke-width="0" fill="rgb(255,255,255)"  />
<line x1="179.3" y1="145.9" x2="213.7" y2="125.5" stroke="rgb(0,0,0)"  stroke-width="1.0"/>
<line x1="75.0" y1="127.5" x2="109.9" y2="146.9" stroke="rgb(0,0,0)"  stroke-width="1.0"/>
<line x1="51.4" y1="114.4" x2="75.0" y2="127.5" stroke="rgb(0,0,0)"  stroke-width="1.0"/>
<line x1="53.4" y1="110.8" x2="77.0" y2="123.9" stroke="rgb(0,0,0)"  stroke-width="1.0"/>
<line x1="49.3" y1="118.1" x2="72.9" y2="131.2" stroke="rgb(0,0,0)"  stroke-width="1.0"/>
<line x1="176.7" y1="173.0" x2="176.3" y2="146.0" stroke="rgb(0,0,0)"  stroke-width="1.0"/>
<line x1="182.7" y1="172.9" x2="182.3" y2="145.9" stroke="rgb(0,0,0)"  stroke-width="1.0"/>
<line x1="155.7" y1="132.8" x2="179.3" y2="145.9" stroke="rgb(0,0,0)"  stroke-width="1.0"/>
<line x1="256.4" y1="167.6" x2="250.4" y2="141.3" stroke="rgb(0,0,0)"  stroke-width="1.0"/>
<line x1="109.9" y1="146.9" x2="133.1" y2="133.2" stroke="rgb(0,0,0)"  stroke-width="1.0"/>
<line x1="266.9" y1="51.9" x2="256.3" y2="76.8" stroke="rgb(0,0,0)"  stroke-width="1.0"/>
<line x1="213.7" y1="125.5" x2="250.4" y2="141.3" stroke="rgb(0,0,0)"  stroke-width="1.0"/>
<line x1="222.0" y1="121.3" x2="247.8" y2="132.3" stroke="rgb(0,0,0)"  stroke-width="1.0"/>
<line x1="250.4" y1="141.3" x2="268.2" y2="121.0" stroke="rgb(0,0,0)"  stroke-width="1.0"/>
<line x1="270.1" y1="100.0" x2="256.3" y2="76.8" stroke="rgb(0,0,0)"  stroke-width="1.0"/>
<line x1="256.3" y1="76.8" x2="217.3" y2="85.7" stroke="rgb(0,0,0)"  stroke-width="1.0"/>
<line x1="252.1" y1="85.1" x2="224.7" y2="91.4" stroke="rgb(0,0,0)"  stroke-width="1.0"/>
<line x1="217.3" y1="85.7" x2="213.7" y2="125.5" stroke="rgb(0,0,0)"  stroke-width="1.0"/>
<text x="270.724658" y="119.160426" fill="rgb(178,178,0)"  stroke="rgb(178,178,0)" stroke-width="1" font-size="16" >S</text>
<text x="22.000000" y="116.130156" fill="rgb(102,102,102)"  stroke="rgb(102,102,102)" stroke-width="1" font-size="16" >HC</text>
<text x="173.891788" y="193.962024" fill="rgb(255,12,12)"  stroke="rgb(255,12,12)" stroke-width="1" font-size="16" >O</text>
<text x="138.313999" y="134.525105" fill="rgb(12,12,255)"  stroke="rgb(12,12,255)" stroke-width="1" font-size="16" >N</text>
<text x="138.313999" y="118.525105" fill="rgb(12,12,255)"  stroke="rgb(12,12,255)" stroke-width="1" font-size="16" >H</text>
<text x="255.338183" y="188.299056" fill="rgb(102,102,102)"  stroke="rgb(102,102,102)" stroke-width="1" font-size="16" >CH</text>
<text x="279.338183" y="191.979056" fill="rgb(102,102,102)"  stroke="rgb(102,102,102)" stroke-width="1" font-size="13" >3</text>
<text x="268.070164" y="48.000000" fill="rgb(102,102,102)"  stroke="rgb(102,102,102)" stroke-width="1" font-size="16" >CH</text>
<text x="292.070164" y="51.680000" fill="rgb(102,102,102)"  stroke="rgb(102,102,102)" stroke-width="1" font-size="13" >3</text>
<text font-size="18.000000" fill ="black" font-family="sans-serif"
x="10.000000" y="20.000000" ></text>
<title> - OBDepict</title>
</svg>
