<?xml version="1.0"?>
<svg xmlns="http://www.w3.org/2000/svg"
xmlns:xlink="http://www.w3.org/1999/xlink" xmlns:cml="http://www.xml-cml.org/schema" width="430.689" height="283.529" x="0" y="0" font-family="sans-serif" stroke="rgb(0,0,0)" stroke-width="1"  stroke-linecap="round">
<rect x="0%" y="0%" width="100%" height="100%" stroke-width="0" fill="rgb(255,255,255)"  />
<line x1="179.5" y1="132.7" x2="166.0" y2="109.4" stroke="rgb(0,0,0)"  stroke-width="1.0"/>
<line x1="126.0" y1="109.4" x2="112.5" y2="132.7" stroke="rgb(0,0,0)"  stroke-width="1.0"/>
<line x1="225.8" y1="148.2" x2="252.6" y2="118.4" stroke="rgb(0,0,0)"  stroke-width="1.0"/>
<line x1="169.7" y1="180.5" x2="143.3" y2="186.1" stroke="rgb(0,0,0)"  stroke-width="1.0"/>
<line x1="126.6" y1="201.2" x2="118.3" y2="226.9" stroke="rgb(0,0,0)"  stroke-width="1.0"/>
<line x1="118.3" y1="226.9" x2="79.1" y2="235.2" stroke="rgb(0,0,0)"  stroke-width="1.0"/>
<line x1="79.1" y1="235.2" x2="52.7" y2="240.8" stroke="rgb(0,0,0)"  stroke-width="1.0"/>
<line x1="80.0" y1="239.3" x2="53.6" y2="244.9" stroke="rgb(0,0,0)"  stroke-width="1.0"/>
<line x1="78.3" y1="231.1" x2="51.8" y2="236.7" stroke="rgb(0,0,0)"  stroke-width="1.0"/>
<line x1="252.6" y1="118.4" x2="279.0" y2="124.1" stroke="rgb(0,0,0)"  stroke-width="1.0"/>
<line x1="310.5" y1="164.8" x2="297.0" y2="188.2" stroke="rgb(0,0,0)"  stroke-width="1.0"/>
<line x1="305.4" y1="161.8" x2="291.9" y2="185.2" stroke="rgb(0,0,0)"  stroke-width="1.0"/>
<line x1="198.9" y1="145.4" x2="225.8" y2="148.2" stroke="rgb(0,0,0)"  stroke-width="1.0"/>
<line x1="225.8" y1="148.2" x2="231.4" y2="174.4" stroke="rgb(0,0,0)"  stroke-width="1.0"/>
<line x1="220.0" y1="155.5" x2="223.9" y2="173.9" stroke="rgb(0,0,0)"  stroke-width="1.0"/>
<line x1="222.8" y1="193.8" x2="210.7" y2="200.8" stroke="rgb(0,0,0)"  stroke-width="1.0"/>
<line x1="189.7" y1="198.5" x2="169.7" y2="180.5" stroke="rgb(0,0,0)"  stroke-width="1.0"/>
<line x1="193.0" y1="191.8" x2="179.0" y2="179.2" stroke="rgb(0,0,0)"  stroke-width="1.0"/>
<line x1="169.7" y1="180.5" x2="180.7" y2="155.9" stroke="rgb(0,0,0)"  stroke-width="1.0"/>
<line x1="297.0" y1="138.6" x2="307.9" y2="163.3" stroke="rgb(0,0,0)"  stroke-width="1.0"/>
<line x1="307.9" y1="163.3" x2="334.8" y2="160.5" stroke="rgb(0,0,0)"  stroke-width="1.0"/>
<line x1="350.4" y1="146.4" x2="356.0" y2="120.0" stroke="rgb(0,0,0)"  stroke-width="1.0"/>
<line x1="356.0" y1="120.0" x2="321.4" y2="100.0" stroke="rgb(0,0,0)"  stroke-width="1.0"/>
<line x1="347.3" y1="123.2" x2="323.0" y2="109.2" stroke="rgb(0,0,0)"  stroke-width="1.0"/>
<line x1="321.4" y1="100.0" x2="301.3" y2="118.1" stroke="rgb(0,0,0)"  stroke-width="1.0"/>
<line x1="166.0" y1="109.4" x2="186.0" y2="74.7" stroke="rgb(0,0,0)"  stroke-width="1.0"/>
<line x1="162.8" y1="100.6" x2="176.8" y2="76.3" stroke="rgb(0,0,0)"  stroke-width="1.0"/>
<line x1="186.0" y1="74.7" x2="166.0" y2="40.1" stroke="rgb(0,0,0)"  stroke-width="1.0"/>
<line x1="166.0" y1="40.1" x2="126.0" y2="40.1" stroke="rgb(0,0,0)"  stroke-width="1.0"/>
<line x1="160.0" y1="47.3" x2="132.0" y2="47.3" stroke="rgb(0,0,0)"  stroke-width="1.0"/>
<line x1="126.0" y1="40.1" x2="106.0" y2="74.7" stroke="rgb(0,0,0)"  stroke-width="1.0"/>
<line x1="106.0" y1="74.7" x2="126.0" y2="109.4" stroke="rgb(0,0,0)"  stroke-width="1.0"/>
<line x1="115.2" y1="76.3" x2="129.2" y2="100.6" stroke="rgb(0,0,0)"  stroke-width="1.0"/>
<line x1="126.0" y1="109.4" x2="166.0" y2="109.4" stroke="rgb(0,0,0)"  stroke-width="1.0"/>
<line x1="390.7" y1="60.0" x2="356.0" y2="40.0" stroke="rgb(0,0,0)"  stroke-width="1.0"/>
<line x1="356.0" y1="40.0" x2="321.4" y2="60.0" stroke="rgb(0,0,0)"  stroke-width="1.0"/>
<line x1="354.5" y1="49.2" x2="330.2" y2="63.2" stroke="rgb(0,0,0)"  stroke-width="1.0"/>
<line x1="321.4" y1="60.0" x2="321.4" y2="100.0" stroke="rgb(0,0,0)"  stroke-width="1.0"/>
<line x1="356.0" y1="120.0" x2="390.7" y2="100.0" stroke="rgb(0,0,0)"  stroke-width="1.0"/>
<line x1="390.7" y1="100.0" x2="390.7" y2="60.0" stroke="rgb(0,0,0)"  stroke-width="1.0"/>
<line x1="383.5" y1="94.0" x2="383.5" y2="66.0" stroke="rgb(0,0,0)"  stroke-width="1.0"/>
<text x="180.008520" y="151.992370" fill="rgb(12,12,255)"  stroke="rgb(12,12,255)" stroke-width="1" font-size="16" >N</text>
<text x="80.008235" y="151.992370" fill="rgb(102,102,102)"  stroke="rgb(102,102,102)" stroke-width="1" font-size="16" >H</text>
<text x="92.008235" y="155.672370" fill="rgb(102,102,102)"  stroke="rgb(102,102,102)" stroke-width="1" font-size="13" >3</text>
<text x="98.508235" y="151.992370" fill="rgb(102,102,102)"  stroke="rgb(102,102,102)" stroke-width="1" font-size="16" >C</text>
<text x="228.104691" y="195.300524" fill="rgb(12,12,255)"  stroke="rgb(12,12,255)" stroke-width="1" font-size="16" >N</text>
<text x="193.464567" y="215.300595" fill="rgb(12,12,255)"  stroke="rgb(12,12,255)" stroke-width="1" font-size="16" >N</text>
<text x="124.612322" y="196.852530" fill="rgb(178,178,0)"  stroke="rgb(178,178,0)" stroke-width="1" font-size="16" >S</text>
<text x="22.000000" y="251.528724" fill="rgb(102,102,102)"  stroke="rgb(102,102,102)" stroke-width="1" font-size="16" >HC</text>
<text x="285.680896" y="134.764309" fill="rgb(12,12,255)"  stroke="rgb(12,12,255)" stroke-width="1" font-size="16" >N</text>
<text x="281.948882" y="205.948562" fill="rgb(255,12,12)"  stroke="rgb(255,12,12)" stroke-width="1" font-size="16" >O</text>
<text x="341.733095" y="167.124424" fill="rgb(178,178,0)"  stroke="rgb(178,178,0)" stroke-width="1" font-size="16" >S</text>
<text font-size="18.000000" fill ="black" font-family="sans-serif"
x="10.000000" y="20.000000" >CLK029_A07</text>
<title>CLK029_A07 - OBDepict</title>
</svg>
