<?xml version="1.0"?>
<svg xmlns="http://www.w3.org/2000/svg"
xmlns:xlink="http://www.w3.org/1999/xlink" xmlns:cml="http://www.xml-cml.org/schema" width="450.192" height="356.44" x="0" y="0" font-family="sans-serif" stroke="rgb(0,0,0)" stroke-width="1"  stroke-linecap="round">
<rect x="0%" y="0%" width="100%" height="100%" stroke-width="0" fill="rgb(255,255,255)"  />
<line x1="170.8" y1="186.6" x2="210.8" y2="186.6" stroke="rgb(0,0,0)"  stroke-width="1.0"/>
<line x1="282.9" y1="158.9" x2="304.7" y2="143.1" stroke="rgb(0,0,0)"  stroke-width="1.0"/>
<line x1="332.9" y1="79.8" x2="330.1" y2="52.9" stroke="rgb(0,0,0)"  stroke-width="1.0"/>
<line x1="373.7" y1="135.8" x2="398.3" y2="146.8" stroke="rgb(0,0,0)"  stroke-width="1.0"/>
<line x1="274.2" y1="204.2" x2="296.0" y2="220.0" stroke="rgb(0,0,0)"  stroke-width="1.0"/>
<line x1="270.6" y1="209.0" x2="292.5" y2="224.9" stroke="rgb(0,0,0)"  stroke-width="1.0"/>
<line x1="151.3" y1="231.3" x2="159.7" y2="257.0" stroke="rgb(0,0,0)"  stroke-width="1.0"/>
<line x1="159.7" y1="257.0" x2="132.9" y2="286.7" stroke="rgb(0,0,0)"  stroke-width="1.0"/>
<line x1="132.9" y1="286.7" x2="114.9" y2="306.8" stroke="rgb(0,0,0)"  stroke-width="1.0"/>
<line x1="136.0" y1="289.5" x2="118.0" y2="309.6" stroke="rgb(0,0,0)"  stroke-width="1.0"/>
<line x1="129.8" y1="283.9" x2="111.7" y2="304.0" stroke="rgb(0,0,0)"  stroke-width="1.0"/>
<line x1="210.8" y1="186.6" x2="234.3" y2="154.2" stroke="rgb(0,0,0)"  stroke-width="1.0"/>
<line x1="234.3" y1="154.2" x2="260.0" y2="162.6" stroke="rgb(0,0,0)"  stroke-width="1.0"/>
<line x1="272.4" y1="179.6" x2="272.4" y2="206.6" stroke="rgb(0,0,0)"  stroke-width="1.0"/>
<line x1="272.4" y1="206.6" x2="234.3" y2="218.9" stroke="rgb(0,0,0)"  stroke-width="1.0"/>
<line x1="234.3" y1="218.9" x2="210.8" y2="186.6" stroke="rgb(0,0,0)"  stroke-width="1.0"/>
<line x1="155.1" y1="164.9" x2="170.8" y2="186.6" stroke="rgb(0,0,0)"  stroke-width="1.0"/>
<line x1="150.4" y1="170.8" x2="161.5" y2="186.0" stroke="rgb(0,0,0)"  stroke-width="1.0"/>
<line x1="170.8" y1="186.6" x2="155.0" y2="208.4" stroke="rgb(0,0,0)"  stroke-width="1.0"/>
<line x1="135.0" y1="214.9" x2="109.3" y2="206.6" stroke="rgb(0,0,0)"  stroke-width="1.0"/>
<line x1="109.3" y1="206.6" x2="109.3" y2="166.6" stroke="rgb(0,0,0)"  stroke-width="1.0"/>
<line x1="116.5" y1="200.6" x2="116.5" y2="172.6" stroke="rgb(0,0,0)"  stroke-width="1.0"/>
<line x1="109.3" y1="166.6" x2="135.0" y2="158.2" stroke="rgb(0,0,0)"  stroke-width="1.0"/>
<line x1="304.7" y1="143.1" x2="300.6" y2="103.3" stroke="rgb(0,0,0)"  stroke-width="1.0"/>
<line x1="311.3" y1="136.4" x2="308.4" y2="108.5" stroke="rgb(0,0,0)"  stroke-width="1.0"/>
<line x1="300.6" y1="103.3" x2="332.9" y2="79.8" stroke="rgb(0,0,0)"  stroke-width="1.0"/>
<line x1="332.9" y1="79.8" x2="369.5" y2="96.0" stroke="rgb(0,0,0)"  stroke-width="1.0"/>
<line x1="335.5" y1="88.8" x2="361.1" y2="100.2" stroke="rgb(0,0,0)"  stroke-width="1.0"/>
<line x1="369.5" y1="96.0" x2="373.7" y2="135.8" stroke="rgb(0,0,0)"  stroke-width="1.0"/>
<line x1="373.7" y1="135.8" x2="341.3" y2="159.3" stroke="rgb(0,0,0)"  stroke-width="1.0"/>
<line x1="364.6" y1="133.5" x2="341.9" y2="150.0" stroke="rgb(0,0,0)"  stroke-width="1.0"/>
<line x1="341.3" y1="159.3" x2="304.7" y2="143.1" stroke="rgb(0,0,0)"  stroke-width="1.0"/>
<line x1="40.0" y1="206.6" x2="40.0" y2="166.6" stroke="rgb(0,0,0)"  stroke-width="1.0"/>
<line x1="40.0" y1="166.6" x2="74.6" y2="146.6" stroke="rgb(0,0,0)"  stroke-width="1.0"/>
<line x1="48.8" y1="169.8" x2="73.0" y2="155.8" stroke="rgb(0,0,0)"  stroke-width="1.0"/>
<line x1="74.6" y1="146.6" x2="109.3" y2="166.6" stroke="rgb(0,0,0)"  stroke-width="1.0"/>
<line x1="109.3" y1="206.6" x2="74.6" y2="226.6" stroke="rgb(0,0,0)"  stroke-width="1.0"/>
<line x1="74.6" y1="226.6" x2="40.0" y2="206.6" stroke="rgb(0,0,0)"  stroke-width="1.0"/>
<line x1="73.0" y1="217.3" x2="48.8" y2="203.3" stroke="rgb(0,0,0)"  stroke-width="1.0"/>
<text x="141.324094" y="162.224100" fill="rgb(12,12,255)"  stroke="rgb(12,12,255)" stroke-width="1" font-size="16" >N</text>
<text x="266.388204" y="174.584111" fill="rgb(12,12,255)"  stroke="rgb(12,12,255)" stroke-width="1" font-size="16" >N</text>
<text x="406.192324" y="160.100098" fill="rgb(102,102,102)"  stroke="rgb(102,102,102)" stroke-width="1" font-size="16" >CH</text>
<text x="430.192324" y="163.780098" fill="rgb(102,102,102)"  stroke="rgb(102,102,102)" stroke-width="1" font-size="13" >3</text>
<text x="302.748253" y="48.000000" fill="rgb(102,102,102)"  stroke="rgb(102,102,102)" stroke-width="1" font-size="16" >H</text>
<text x="314.748253" y="51.680000" fill="rgb(102,102,102)"  stroke="rgb(102,102,102)" stroke-width="1" font-size="13" >3</text>
<text x="321.248253" y="48.000000" fill="rgb(102,102,102)"  stroke="rgb(102,102,102)" stroke-width="1" font-size="16" >C</text>
<text x="298.748232" y="238.096166" fill="rgb(255,12,12)"  stroke="rgb(255,12,12)" stroke-width="1" font-size="16" >O</text>
<text x="141.324094" y="226.944157" fill="rgb(12,12,255)"  stroke="rgb(12,12,255)" stroke-width="1" font-size="16" >N</text>
<text x="88.152058" y="324.440242" fill="rgb(102,102,102)"  stroke="rgb(102,102,102)" stroke-width="1" font-size="16" >HC</text>
<text font-size="18.000000" fill ="black" font-family="sans-serif"
x="10.000000" y="20.000000" >CLK029_D06</text>
<title>CLK029_D06 - OBDepict</title>
</svg>
