<?xml version="1.0"?>
<svg xmlns="http://www.w3.org/2000/svg"
xmlns:xlink="http://www.w3.org/1999/xlink" xmlns:cml="http://www.xml-cml.org/schema" width="430.835" height="287.847" x="0" y="0" font-family="sans-serif" stroke="rgb(0,0,0)" stroke-width="1"  stroke-linecap="round">
<rect x="0%" y="0%" width="100%" height="100%" stroke-width="0" fill="rgb(255,255,255)"  />
<line x1="170.8" y1="109.3" x2="210.8" y2="109.3" stroke="rgb(0,0,0)"  stroke-width="1.0"/>
<line x1="213.4" y1="107.8" x2="228.2" y2="145.4" stroke="rgb(0,0,0)"  stroke-width="1.0"/>
<line x1="208.2" y1="110.8" x2="233.4" y2="142.4" stroke="rgb(0,0,0)"  stroke-width="1.0"/>
<line x1="210.8" y1="109.3" x2="230.8" y2="74.6" stroke="rgb(0,0,0)"  stroke-width="1.0"/>
<line x1="230.8" y1="143.9" x2="270.8" y2="143.9" stroke="rgb(0,0,0)"  stroke-width="1.0"/>
<line x1="290.8" y1="109.3" x2="277.3" y2="85.9" stroke="rgb(0,0,0)"  stroke-width="1.0"/>
<line x1="330.8" y1="178.6" x2="344.3" y2="201.9" stroke="rgb(0,0,0)"  stroke-width="1.0"/>
<line x1="346.9" y1="226.0" x2="339.9" y2="238.1" stroke="rgb(0,0,0)"  stroke-width="1.0"/>
<line x1="341.7" y1="223.0" x2="334.7" y2="235.1" stroke="rgb(0,0,0)"  stroke-width="1.0"/>
<line x1="363.8" y1="213.2" x2="377.8" y2="213.2" stroke="rgb(0,0,0)"  stroke-width="1.0"/>
<line x1="277.3" y1="63.4" x2="290.8" y2="40.0" stroke="rgb(0,0,0)"  stroke-width="1.0"/>
<line x1="290.8" y1="40.0" x2="330.8" y2="40.0" stroke="rgb(0,0,0)"  stroke-width="1.0"/>
<line x1="330.8" y1="40.0" x2="357.8" y2="40.0" stroke="rgb(0,0,0)"  stroke-width="1.0"/>
<line x1="330.8" y1="35.8" x2="357.8" y2="35.8" stroke="rgb(0,0,0)"  stroke-width="1.0"/>
<line x1="330.8" y1="44.2" x2="357.8" y2="44.2" stroke="rgb(0,0,0)"  stroke-width="1.0"/>
<line x1="230.8" y1="74.6" x2="244.3" y2="51.3" stroke="rgb(0,0,0)"  stroke-width="1.0"/>
<line x1="227.2" y1="72.5" x2="240.7" y2="49.2" stroke="rgb(0,0,0)"  stroke-width="1.0"/>
<line x1="234.5" y1="76.7" x2="248.0" y2="53.4" stroke="rgb(0,0,0)"  stroke-width="1.0"/>
<line x1="155.1" y1="87.6" x2="170.8" y2="109.3" stroke="rgb(0,0,0)"  stroke-width="1.0"/>
<line x1="150.4" y1="93.5" x2="161.5" y2="108.7" stroke="rgb(0,0,0)"  stroke-width="1.0"/>
<line x1="170.8" y1="109.3" x2="155.0" y2="131.1" stroke="rgb(0,0,0)"  stroke-width="1.0"/>
<line x1="135.0" y1="137.6" x2="109.3" y2="129.3" stroke="rgb(0,0,0)"  stroke-width="1.0"/>
<line x1="109.3" y1="129.3" x2="109.3" y2="89.3" stroke="rgb(0,0,0)"  stroke-width="1.0"/>
<line x1="116.5" y1="123.3" x2="116.5" y2="95.3" stroke="rgb(0,0,0)"  stroke-width="1.0"/>
<line x1="109.3" y1="89.3" x2="135.0" y2="80.9" stroke="rgb(0,0,0)"  stroke-width="1.0"/>
<line x1="270.8" y1="143.9" x2="290.8" y2="109.3" stroke="rgb(0,0,0)"  stroke-width="1.0"/>
<line x1="280.1" y1="142.3" x2="294.1" y2="118.1" stroke="rgb(0,0,0)"  stroke-width="1.0"/>
<line x1="290.8" y1="109.3" x2="330.8" y2="109.3" stroke="rgb(0,0,0)"  stroke-width="1.0"/>
<line x1="330.8" y1="109.3" x2="350.8" y2="143.9" stroke="rgb(0,0,0)"  stroke-width="1.0"/>
<line x1="327.6" y1="118.1" x2="341.6" y2="142.3" stroke="rgb(0,0,0)"  stroke-width="1.0"/>
<line x1="350.8" y1="143.9" x2="330.8" y2="178.6" stroke="rgb(0,0,0)"  stroke-width="1.0"/>
<line x1="330.8" y1="178.6" x2="290.8" y2="178.6" stroke="rgb(0,0,0)"  stroke-width="1.0"/>
<line x1="324.8" y1="171.4" x2="296.8" y2="171.4" stroke="rgb(0,0,0)"  stroke-width="1.0"/>
<line x1="290.8" y1="178.6" x2="270.8" y2="143.9" stroke="rgb(0,0,0)"  stroke-width="1.0"/>
<line x1="40.0" y1="129.3" x2="40.0" y2="89.3" stroke="rgb(0,0,0)"  stroke-width="1.0"/>
<line x1="40.0" y1="89.3" x2="74.6" y2="69.3" stroke="rgb(0,0,0)"  stroke-width="1.0"/>
<line x1="48.8" y1="92.5" x2="73.0" y2="78.5" stroke="rgb(0,0,0)"  stroke-width="1.0"/>
<line x1="74.6" y1="69.3" x2="109.3" y2="89.3" stroke="rgb(0,0,0)"  stroke-width="1.0"/>
<line x1="109.3" y1="129.3" x2="74.6" y2="149.3" stroke="rgb(0,0,0)"  stroke-width="1.0"/>
<line x1="74.6" y1="149.3" x2="40.0" y2="129.3" stroke="rgb(0,0,0)"  stroke-width="1.0"/>
<line x1="73.0" y1="140.0" x2="48.8" y2="126.0" stroke="rgb(0,0,0)"  stroke-width="1.0"/>
<text x="141.323699" y="84.923897" fill="rgb(12,12,255)"  stroke="rgb(12,12,255)" stroke-width="1" font-size="16" >N</text>
<text x="355.635129" y="209.175515" fill="rgb(12,12,255)"  stroke="rgb(12,12,255)" stroke-width="1" font-size="16" >+</text>
<text x="344.835129" y="221.207515" fill="rgb(12,12,255)"  stroke="rgb(12,12,255)" stroke-width="1" font-size="16" >N</text>
<text x="324.835185" y="255.847418" fill="rgb(255,12,12)"  stroke="rgb(255,12,12)" stroke-width="1" font-size="16" >O</text>
<text x="395.635017" y="199.095515" fill="rgb(255,12,12)"  stroke="rgb(255,12,12)" stroke-width="1" font-size="16" >_</text>
<text x="384.835017" y="221.207515" fill="rgb(255,12,12)"  stroke="rgb(255,12,12)" stroke-width="1" font-size="16" >O</text>
<text x="264.835353" y="82.643903" fill="rgb(255,12,12)"  stroke="rgb(255,12,12)" stroke-width="1" font-size="16" >O</text>
<text x="364.835073" y="48.000000" fill="rgb(102,102,102)"  stroke="rgb(102,102,102)" stroke-width="1" font-size="16" >CH</text>
<text x="244.835409" y="48.000000" fill="rgb(12,12,255)"  stroke="rgb(12,12,255)" stroke-width="1" font-size="16" >N</text>
<text x="141.323699" y="149.643715" fill="rgb(12,12,255)"  stroke="rgb(12,12,255)" stroke-width="1" font-size="16" >N</text>
<text x="141.323699" y="165.643715" fill="rgb(12,12,255)"  stroke="rgb(12,12,255)" stroke-width="1" font-size="16" >H</text>
<text font-size="18.000000" fill ="black" font-family="sans-serif"
x="10.000000" y="20.000000" >CLK020_G04</text>
<title>CLK020_G04 - OBDepict</title>
</svg>
